<?xml version="1.0" encoding="UTF-8"?>
<!DOCTYPE svg PUBLIC "-//W3C//DTD SVG 1.1//EN" "http://www.w3.org/Graphics/SVG/1.1/DTD/svg11.dtd">
<svg version="1.2" width="28.43mm" height="25.02mm" viewBox="38079 12500 2843 2502" preserveAspectRatio="xMidYMid" fill-rule="evenodd" stroke-width="28.222" stroke-linejoin="round" xmlns="http://www.w3.org/2000/svg" xmlns:ooo="http://xml.openoffice.org/svg/export" xmlns:xlink="http://www.w3.org/1999/xlink" xmlns:presentation="http://sun.com/xmlns/staroffice/presentation" xmlns:smil="http://www.w3.org/2001/SMIL20/" xmlns:anim="urn:oasis:names:tc:opendocument:xmlns:animation:1.0" xml:space="preserve">
 <defs class="EmbeddedBulletChars">
  <g id="bullet-char-template-57356" transform="scale(0.00048828125,-0.00048828125)">
   <path d="M 580,1141 L 1163,571 580,0 -4,571 580,1141 Z"/>
  </g>
  <g id="bullet-char-template-57354" transform="scale(0.00048828125,-0.00048828125)">
   <path d="M 8,1128 L 1137,1128 1137,0 8,0 8,1128 Z"/>
  </g>
  <g id="bullet-char-template-10146" transform="scale(0.00048828125,-0.00048828125)">
   <path d="M 174,0 L 602,739 174,1481 1456,739 174,0 Z M 1358,739 L 309,1346 659,739 1358,739 Z"/>
  </g>
  <g id="bullet-char-template-10132" transform="scale(0.00048828125,-0.00048828125)">
   <path d="M 2015,739 L 1276,0 717,0 1260,543 174,543 174,936 1260,936 717,1481 1274,1481 2015,739 Z"/>
  </g>
  <g id="bullet-char-template-10007" transform="scale(0.00048828125,-0.00048828125)">
   <path d="M 0,-2 C -7,14 -16,27 -25,37 L 356,567 C 262,823 215,952 215,954 215,979 228,992 255,992 264,992 276,990 289,987 310,991 331,999 354,1012 L 381,999 492,748 772,1049 836,1024 860,1049 C 881,1039 901,1025 922,1006 886,937 835,863 770,784 769,783 710,716 594,584 L 774,223 C 774,196 753,168 711,139 L 727,119 C 717,90 699,76 672,76 641,76 570,178 457,381 L 164,-76 C 142,-110 111,-127 72,-127 30,-127 9,-110 8,-76 1,-67 -2,-52 -2,-32 -2,-23 -1,-13 0,-2 Z"/>
  </g>
  <g id="bullet-char-template-10004" transform="scale(0.00048828125,-0.00048828125)">
   <path d="M 285,-33 C 182,-33 111,30 74,156 52,228 41,333 41,471 41,549 55,616 82,672 116,743 169,778 240,778 293,778 328,747 346,684 L 369,508 C 377,444 397,411 428,410 L 1163,1116 C 1174,1127 1196,1133 1229,1133 1271,1133 1292,1118 1292,1087 L 1292,965 C 1292,929 1282,901 1262,881 L 442,47 C 390,-6 338,-33 285,-33 Z"/>
  </g>
  <g id="bullet-char-template-9679" transform="scale(0.00048828125,-0.00048828125)">
   <path d="M 813,0 C 632,0 489,54 383,161 276,268 223,411 223,592 223,773 276,916 383,1023 489,1130 632,1184 813,1184 992,1184 1136,1130 1245,1023 1353,916 1407,772 1407,592 1407,412 1353,268 1245,161 1136,54 992,0 813,0 Z"/>
  </g>
  <g id="bullet-char-template-8226" transform="scale(0.00048828125,-0.00048828125)">
   <path d="M 346,457 C 273,457 209,483 155,535 101,586 74,649 74,723 74,796 101,859 155,911 209,963 273,989 346,989 419,989 480,963 531,910 582,859 608,796 608,723 608,648 583,586 532,535 482,483 420,457 346,457 Z"/>
  </g>
  <g id="bullet-char-template-8211" transform="scale(0.00048828125,-0.00048828125)">
   <path d="M -4,459 L 1135,459 1135,606 -4,606 -4,459 Z"/>
  </g>
  <g id="bullet-char-template-61548" transform="scale(0.00048828125,-0.00048828125)">
   <path d="M 173,740 C 173,903 231,1043 346,1159 462,1274 601,1332 765,1332 928,1332 1067,1274 1183,1159 1299,1043 1357,903 1357,740 1357,577 1299,437 1183,322 1067,206 928,148 765,148 601,148 462,206 346,322 231,437 173,577 173,740 Z"/>
  </g>
 </defs>
 <g class="Page">
  <g class="com.sun.star.drawing.PolyPolygonShape">
   <g id="id3">
    <rect class="BoundingBox" stroke="none" fill="none" x="38079" y="12500" width="2843" height="2502"/>
    <path fill="rgb(255,0,0)" stroke="none" d="M 39368,12576 L 38100,14771 38095,14780 38091,14789 38088,14798 38085,14808 38082,14817 38081,14827 38080,14837 38079,14847 38080,14857 38081,14867 38082,14877 38085,14887 38088,14897 38091,14906 38095,14915 38100,14924 38105,14932 38111,14941 38117,14948 38124,14956 38132,14963 38139,14969 38148,14975 38156,14980 38165,14985 38174,14989 38183,14992 38193,14995 38203,14998 38213,14999 38223,15000 38233,15001 40767,15001 40777,15000 40787,14999 40797,14998 40807,14995 40817,14992 40826,14989 40835,14985 40844,14980 40852,14975 40861,14969 40868,14963 40876,14956 40883,14948 40889,14941 40895,14932 40900,14924 40905,14915 40909,14906 40912,14897 40915,14887 40918,14877 40919,14867 40920,14857 40921,14847 40920,14837 40919,14827 40918,14817 40915,14808 40912,14798 40909,14789 40905,14780 40900,14771 39633,12576 39628,12568 39622,12560 39616,12552 39609,12544 39602,12537 39594,12531 39586,12525 39577,12520 39568,12515 39559,12511 39550,12508 39540,12505 39530,12502 39521,12501 39510,12500 39501,12500 39491,12500 39480,12501 39471,12502 39461,12505 39451,12508 39442,12511 39433,12515 39424,12520 39415,12525 39407,12531 39399,12537 39392,12544 39385,12552 39379,12560 39373,12568 39368,12576 Z"/>
   </g>
  </g>
  <g class="com.sun.star.drawing.PolyPolygonShape">
   <g id="id4">
    <rect class="BoundingBox" stroke="none" fill="none" x="38497" y="12964" width="2007" height="1731"/>
    <path fill="rgb(255,255,255)" stroke="none" d="M 38498,14694 L 40503,14694 39501,12964 38498,14694 Z"/>
   </g>
  </g>
  <g class="com.sun.star.drawing.PolyPolygonShape">
   <g id="id5">
    <rect class="BoundingBox" stroke="none" fill="none" x="38944" y="14019" width="1127" height="545"/>
    <path fill="rgb(0,0,0)" stroke="none" d="M 39883,14403 L 39876,14400 39870,14397 39863,14394 39856,14392 39849,14390 39842,14389 39834,14388 39827,14388 39820,14388 39812,14389 39805,14390 39798,14391 39791,14393 39784,14396 39778,14399 39771,14402 39765,14405 39758,14408 39751,14411 39744,14413 39737,14414 39730,14416 39723,14417 39715,14417 39708,14417 39701,14416 39694,14415 39686,14413 39679,14412 39673,14409 39666,14406 39659,14403 39653,14400 39646,14397 39639,14394 39632,14392 39625,14390 39618,14389 39611,14388 39604,14388 39596,14388 39589,14389 39582,14390 39575,14391 39568,14393 39561,14396 39554,14399 39548,14402 39541,14405 39535,14408 39528,14411 39521,14413 39514,14414 39507,14416 39499,14417 39492,14417 39485,14417 39477,14416 39470,14415 39463,14413 39456,14412 39449,14409 39443,14406 39436,14403 39430,14400 39423,14397 39416,14394 39409,14392 39402,14390 39395,14389 39388,14388 39380,14388 39373,14388 39366,14389 39359,14390 39351,14391 39344,14393 39338,14396 39331,14399 39324,14402 39318,14405 39312,14408 39306,14410 39299,14412 39293,14414 39286,14415 39279,14416 39273,14417 39273,14019 39122,14019 38944,14563 40070,14563 40070,14390 40060,14388 40051,14388 40041,14388 40031,14390 40022,14392 40013,14394 40004,14398 39995,14402 39989,14405 39982,14408 39975,14411 39969,14413 39961,14414 39954,14416 39947,14417 39940,14417 39932,14417 39925,14416 39918,14415 39911,14413 39904,14412 39896,14409 39889,14406 39883,14403 Z"/>
   </g>
  </g>
  <g class="com.sun.star.drawing.PolyPolygonShape">
   <g id="id6">
    <rect class="BoundingBox" stroke="none" fill="none" x="39375" y="13865" width="580" height="501"/>
    <path fill="rgb(0,0,0)" stroke="none" d="M 39795,14058 L 39797,14060 39799,14062 39801,14065 39803,14068 39804,14070 39805,14074 39806,14077 39806,14080 39804,14164 39669,14056 39717,13996 39795,14058 Z M 39704,13985 L 39656,14045 39531,13944 39608,13924 39612,13924 39616,13923 39621,13924 39625,13924 39629,13926 39633,13928 39636,13930 39640,13933 39704,13985 Z M 39867,14353 L 39870,14348 39872,14342 39874,14337 39875,14331 39876,14325 39877,14319 39877,14313 39876,14307 39875,14302 39873,14296 39871,14290 39868,14285 39865,14280 39861,14276 39857,14271 39853,14267 39848,14264 39843,14261 39837,14258 39832,14256 39826,14254 39820,14253 39814,14253 39808,14253 39803,14253 39797,14254 39791,14256 39786,14258 39780,14261 39775,14264 39770,14267 39766,14271 39529,14078 39532,14073 39534,14068 39536,14062 39537,14056 39538,14050 39539,14044 39539,14039 39538,14033 39537,14027 39535,14021 39532,14016 39530,14010 39527,14006 39522,14001 39518,13997 39513,13993 39509,13989 39504,13986 39498,13983 39493,13981 39487,13980 39481,13979 39475,13978 39469,13978 39464,13979 39458,13980 39452,13981 39447,13983 39441,13986 39436,13989 39431,13993 39427,13996 39377,13956 39376,13955 39375,13953 39375,13951 39375,13949 39380,13937 39383,13931 39383,13927 39383,13923 39381,13920 39378,13918 39391,13902 39400,13910 39420,13872 39421,13870 39423,13868 39425,13867 39427,13866 39429,13866 39432,13866 39434,13866 39436,13868 39492,13902 39496,13904 39500,13906 39504,13908 39509,13909 39513,13910 39518,13910 39523,13910 39528,13910 39609,13907 39616,13906 39622,13908 39628,13910 39633,13914 39805,14053 39809,14055 39812,14058 39815,14061 39818,14065 39820,14068 39822,14072 39823,14076 39824,14081 39829,14121 39833,14153 39835,14167 39837,14177 39838,14182 39840,14186 39843,14191 39846,14196 39941,14274 39947,14280 39951,14285 39952,14287 39953,14290 39953,14293 39953,14295 39952,14298 39951,14300 39949,14302 39947,14304 39926,14322 39936,14330 39920,14349 39915,14349 39910,14349 39905,14350 39901,14352 39896,14354 39892,14356 39888,14359 39885,14362 39882,14365 39867,14353 39882,14365 39867,14353 Z"/>
   </g>
  </g>
  <g class="com.sun.star.drawing.PolyPolygonShape">
   <g id="id7">
    <rect class="BoundingBox" stroke="none" fill="none" x="39415" y="13986" width="117" height="117"/>
    <path fill="rgb(0,0,0)" stroke="none" d="M 39496,14044 L 39496,14039 39494,14035 39492,14031 39489,14027 39486,14024 39481,14022 39477,14021 39472,14020 39468,14021 39463,14022 39459,14024 39456,14027 39453,14031 39450,14035 39449,14039 39449,14044 39449,14048 39450,14053 39453,14057 39456,14061 39459,14064 39463,14066 39468,14067 39472,14068 39477,14067 39481,14066 39486,14064 39489,14061 39492,14057 39494,14053 39496,14048 39496,14044 Z M 39531,14043 L 39531,14038 39530,14032 39529,14027 39527,14021 39524,14016 39521,14011 39518,14007 39514,14003 39510,13999 39505,13996 39500,13993 39494,13990 39489,13988 39484,13987 39478,13986 39472,13986 39467,13986 39461,13987 39456,13988 39450,13990 39445,13993 39440,13996 39436,13999 39432,14003 39428,14007 39425,14011 39422,14016 39419,14021 39417,14027 39416,14032 39415,14038 39415,14043 39415,14049 39416,14055 39417,14060 39419,14065 39422,14071 39425,14075 39428,14080 39432,14084 39436,14089 39440,14092 39445,14095 39450,14098 39456,14100 39461,14101 39467,14102 39472,14102 39478,14102 39484,14101 39489,14100 39494,14098 39500,14095 39505,14092 39510,14089 39514,14084 39518,14080 39521,14075 39524,14071 39527,14065 39529,14060 39530,14055 39531,14049 39531,14043 Z"/>
   </g>
  </g>
  <g class="com.sun.star.drawing.PolyPolygonShape">
   <g id="id8">
    <rect class="BoundingBox" stroke="none" fill="none" x="39753" y="14259" width="117" height="119"/>
    <path fill="rgb(0,0,0)" stroke="none" d="M 39834,14317 L 39834,14313 39832,14308 39830,14304 39827,14301 39824,14298 39819,14296 39815,14294 39810,14294 39806,14294 39801,14296 39797,14298 39794,14301 39791,14304 39788,14308 39787,14313 39787,14317 39787,14323 39788,14328 39791,14332 39794,14335 39797,14338 39801,14340 39806,14342 39810,14342 39815,14342 39819,14340 39824,14338 39827,14335 39830,14332 39832,14328 39834,14323 39834,14317 Z M 39869,14317 L 39869,14311 39868,14306 39867,14300 39865,14295 39862,14290 39859,14285 39856,14281 39852,14276 39847,14273 39842,14269 39838,14266 39832,14264 39827,14262 39822,14261 39816,14260 39810,14259 39805,14260 39799,14261 39794,14262 39788,14264 39783,14266 39778,14269 39774,14273 39770,14276 39766,14281 39763,14285 39760,14290 39757,14295 39755,14300 39754,14306 39753,14311 39753,14317 39753,14324 39754,14329 39755,14335 39757,14340 39760,14345 39763,14350 39766,14355 39770,14359 39774,14363 39778,14366 39783,14369 39788,14371 39794,14373 39799,14375 39805,14375 39810,14376 39816,14375 39822,14375 39827,14373 39832,14371 39838,14369 39842,14366 39847,14363 39852,14359 39856,14355 39859,14350 39862,14345 39865,14340 39867,14335 39868,14329 39869,14324 39869,14317 Z"/>
   </g>
  </g>
 </g>
</svg>