<?xml version="1.0" encoding="UTF-8"?>
<!DOCTYPE svg PUBLIC "-//W3C//DTD SVG 1.1//EN" "http://www.w3.org/Graphics/SVG/1.1/DTD/svg11.dtd">
<svg version="1.2" width="28.51mm" height="25.02mm" viewBox="41475 12500 2851 2502" preserveAspectRatio="xMidYMid" fill-rule="evenodd" stroke-width="28.222" stroke-linejoin="round" xmlns="http://www.w3.org/2000/svg" xmlns:ooo="http://xml.openoffice.org/svg/export" xmlns:xlink="http://www.w3.org/1999/xlink" xmlns:presentation="http://sun.com/xmlns/staroffice/presentation" xmlns:smil="http://www.w3.org/2001/SMIL20/" xmlns:anim="urn:oasis:names:tc:opendocument:xmlns:animation:1.0" xml:space="preserve">
 <defs class="EmbeddedBulletChars">
  <g id="bullet-char-template-57356" transform="scale(0.00048828125,-0.00048828125)">
   <path d="M 580,1141 L 1163,571 580,0 -4,571 580,1141 Z"/>
  </g>
  <g id="bullet-char-template-57354" transform="scale(0.00048828125,-0.00048828125)">
   <path d="M 8,1128 L 1137,1128 1137,0 8,0 8,1128 Z"/>
  </g>
  <g id="bullet-char-template-10146" transform="scale(0.00048828125,-0.00048828125)">
   <path d="M 174,0 L 602,739 174,1481 1456,739 174,0 Z M 1358,739 L 309,1346 659,739 1358,739 Z"/>
  </g>
  <g id="bullet-char-template-10132" transform="scale(0.00048828125,-0.00048828125)">
   <path d="M 2015,739 L 1276,0 717,0 1260,543 174,543 174,936 1260,936 717,1481 1274,1481 2015,739 Z"/>
  </g>
  <g id="bullet-char-template-10007" transform="scale(0.00048828125,-0.00048828125)">
   <path d="M 0,-2 C -7,14 -16,27 -25,37 L 356,567 C 262,823 215,952 215,954 215,979 228,992 255,992 264,992 276,990 289,987 310,991 331,999 354,1012 L 381,999 492,748 772,1049 836,1024 860,1049 C 881,1039 901,1025 922,1006 886,937 835,863 770,784 769,783 710,716 594,584 L 774,223 C 774,196 753,168 711,139 L 727,119 C 717,90 699,76 672,76 641,76 570,178 457,381 L 164,-76 C 142,-110 111,-127 72,-127 30,-127 9,-110 8,-76 1,-67 -2,-52 -2,-32 -2,-23 -1,-13 0,-2 Z"/>
  </g>
  <g id="bullet-char-template-10004" transform="scale(0.00048828125,-0.00048828125)">
   <path d="M 285,-33 C 182,-33 111,30 74,156 52,228 41,333 41,471 41,549 55,616 82,672 116,743 169,778 240,778 293,778 328,747 346,684 L 369,508 C 377,444 397,411 428,410 L 1163,1116 C 1174,1127 1196,1133 1229,1133 1271,1133 1292,1118 1292,1087 L 1292,965 C 1292,929 1282,901 1262,881 L 442,47 C 390,-6 338,-33 285,-33 Z"/>
  </g>
  <g id="bullet-char-template-9679" transform="scale(0.00048828125,-0.00048828125)">
   <path d="M 813,0 C 632,0 489,54 383,161 276,268 223,411 223,592 223,773 276,916 383,1023 489,1130 632,1184 813,1184 992,1184 1136,1130 1245,1023 1353,916 1407,772 1407,592 1407,412 1353,268 1245,161 1136,54 992,0 813,0 Z"/>
  </g>
  <g id="bullet-char-template-8226" transform="scale(0.00048828125,-0.00048828125)">
   <path d="M 346,457 C 273,457 209,483 155,535 101,586 74,649 74,723 74,796 101,859 155,911 209,963 273,989 346,989 419,989 480,963 531,910 582,859 608,796 608,723 608,648 583,586 532,535 482,483 420,457 346,457 Z"/>
  </g>
  <g id="bullet-char-template-8211" transform="scale(0.00048828125,-0.00048828125)">
   <path d="M -4,459 L 1135,459 1135,606 -4,606 -4,459 Z"/>
  </g>
  <g id="bullet-char-template-61548" transform="scale(0.00048828125,-0.00048828125)">
   <path d="M 173,740 C 173,903 231,1043 346,1159 462,1274 601,1332 765,1332 928,1332 1067,1274 1183,1159 1299,1043 1357,903 1357,740 1357,577 1299,437 1183,322 1067,206 928,148 765,148 601,148 462,206 346,322 231,437 173,577 173,740 Z"/>
  </g>
 </defs>
 <g class="Page">
  <g class="com.sun.star.drawing.PolyPolygonShape">
   <g id="id3">
    <rect class="BoundingBox" stroke="none" fill="none" x="41475" y="12500" width="2851" height="2502"/>
    <path fill="rgb(255,0,0)" stroke="none" d="M 42792,12561 L 41491,14815 41488,14822 41484,14829 41481,14837 41479,14844 41477,14852 41476,14860 41475,14868 41475,14876 41475,14885 41476,14893 41477,14901 41479,14909 41481,14916 41484,14924 41488,14931 41491,14939 41496,14945 41500,14952 41506,14958 41511,14964 41517,14970 41523,14975 41530,14980 41537,14984 41544,14988 41551,14991 41559,14994 41567,14996 41575,14998 41583,14999 41591,15000 41599,15001 44201,15001 44209,15000 44217,14999 44225,14998 44233,14996 44241,14994 44249,14991 44256,14988 44263,14984 44270,14980 44277,14975 44283,14970 44289,14964 44294,14958 44300,14952 44304,14945 44309,14939 44312,14931 44316,14924 44319,14916 44321,14909 44323,14901 44324,14893 44325,14885 44325,14876 44325,14868 44324,14860 44323,14852 44321,14844 44319,14837 44316,14829 44312,14822 44309,14815 43007,12561 43003,12555 42998,12548 42993,12542 42987,12536 42981,12530 42975,12525 42968,12520 42962,12516 42954,12512 42947,12509 42939,12506 42932,12504 42924,12502 42916,12501 42908,12500 42899,12500 42891,12500 42883,12501 42875,12502 42867,12504 42860,12506 42852,12509 42845,12512 42837,12516 42831,12520 42824,12525 42818,12530 42812,12536 42806,12542 42801,12548 42796,12555 42792,12561 Z"/>
   </g>
  </g>
  <g class="com.sun.star.drawing.PolyPolygonShape">
   <g id="id4">
    <rect class="BoundingBox" stroke="none" fill="none" x="41909" y="12982" width="1983" height="1717"/>
    <path fill="rgb(255,255,255)" stroke="none" d="M 43891,14698 L 42901,12982 41909,14698 43891,14698 Z"/>
   </g>
  </g>
  <g class="com.sun.star.drawing.PolyPolygonShape">
   <g id="id5">
    <rect class="BoundingBox" stroke="none" fill="none" x="42328" y="14039" width="1145" height="356"/>
    <path fill="rgb(0,0,0)" stroke="none" d="M 42328,14394 L 42328,14222 42338,14215 42348,14207 42357,14198 42366,14189 42374,14179 42381,14169 42387,14158 42393,14146 42399,14135 42406,14123 42413,14112 42422,14102 42431,14093 42440,14083 42451,14075 42462,14068 42473,14061 42485,14055 42497,14050 42510,14046 42522,14043 42535,14041 42549,14039 42562,14039 42575,14039 42588,14041 42601,14043 42614,14046 42627,14050 42639,14055 42651,14061 42662,14068 42673,14075 42683,14083 42693,14093 42702,14102 42710,14112 42718,14123 42725,14135 42731,14146 42737,14158 42743,14169 42751,14180 42759,14190 42768,14200 42778,14209 42788,14217 42799,14225 42811,14232 42822,14237 42835,14242 42847,14247 42860,14250 42874,14252 42887,14254 42901,14254 42914,14254 42927,14252 42940,14250 42953,14247 42965,14242 42977,14237 42989,14232 43001,14225 43012,14217 43022,14209 43032,14200 43041,14190 43049,14180 43056,14169 43063,14158 43069,14146 43075,14135 43082,14123 43090,14112 43098,14102 43107,14093 43117,14083 43127,14075 43138,14068 43149,14061 43161,14055 43173,14050 43186,14046 43199,14043 43212,14041 43225,14039 43238,14039 43251,14039 43265,14041 43278,14043 43290,14046 43303,14050 43315,14055 43327,14061 43338,14068 43349,14075 43360,14083 43369,14093 43378,14102 43387,14112 43394,14123 43401,14135 43407,14146 43413,14158 43419,14169 43426,14179 43434,14189 43443,14198 43452,14207 43462,14215 43472,14222 43472,14394 42328,14394 Z"/>
   </g>
  </g>
 </g>
</svg>