<?xml version="1.0" encoding="UTF-8"?>
<!DOCTYPE svg PUBLIC "-//W3C//DTD SVG 1.1//EN" "http://www.w3.org/Graphics/SVG/1.1/DTD/svg11.dtd">
<svg version="1.2" width="28.27mm" height="25.02mm" viewBox="44887 12500 2827 2502" preserveAspectRatio="xMidYMid" fill-rule="evenodd" stroke-width="28.222" stroke-linejoin="round" xmlns="http://www.w3.org/2000/svg" xmlns:ooo="http://xml.openoffice.org/svg/export" xmlns:xlink="http://www.w3.org/1999/xlink" xmlns:presentation="http://sun.com/xmlns/staroffice/presentation" xmlns:smil="http://www.w3.org/2001/SMIL20/" xmlns:anim="urn:oasis:names:tc:opendocument:xmlns:animation:1.0" xml:space="preserve">
 <defs class="EmbeddedBulletChars">
  <g id="bullet-char-template-57356" transform="scale(0.00048828125,-0.00048828125)">
   <path d="M 580,1141 L 1163,571 580,0 -4,571 580,1141 Z"/>
  </g>
  <g id="bullet-char-template-57354" transform="scale(0.00048828125,-0.00048828125)">
   <path d="M 8,1128 L 1137,1128 1137,0 8,0 8,1128 Z"/>
  </g>
  <g id="bullet-char-template-10146" transform="scale(0.00048828125,-0.00048828125)">
   <path d="M 174,0 L 602,739 174,1481 1456,739 174,0 Z M 1358,739 L 309,1346 659,739 1358,739 Z"/>
  </g>
  <g id="bullet-char-template-10132" transform="scale(0.00048828125,-0.00048828125)">
   <path d="M 2015,739 L 1276,0 717,0 1260,543 174,543 174,936 1260,936 717,1481 1274,1481 2015,739 Z"/>
  </g>
  <g id="bullet-char-template-10007" transform="scale(0.00048828125,-0.00048828125)">
   <path d="M 0,-2 C -7,14 -16,27 -25,37 L 356,567 C 262,823 215,952 215,954 215,979 228,992 255,992 264,992 276,990 289,987 310,991 331,999 354,1012 L 381,999 492,748 772,1049 836,1024 860,1049 C 881,1039 901,1025 922,1006 886,937 835,863 770,784 769,783 710,716 594,584 L 774,223 C 774,196 753,168 711,139 L 727,119 C 717,90 699,76 672,76 641,76 570,178 457,381 L 164,-76 C 142,-110 111,-127 72,-127 30,-127 9,-110 8,-76 1,-67 -2,-52 -2,-32 -2,-23 -1,-13 0,-2 Z"/>
  </g>
  <g id="bullet-char-template-10004" transform="scale(0.00048828125,-0.00048828125)">
   <path d="M 285,-33 C 182,-33 111,30 74,156 52,228 41,333 41,471 41,549 55,616 82,672 116,743 169,778 240,778 293,778 328,747 346,684 L 369,508 C 377,444 397,411 428,410 L 1163,1116 C 1174,1127 1196,1133 1229,1133 1271,1133 1292,1118 1292,1087 L 1292,965 C 1292,929 1282,901 1262,881 L 442,47 C 390,-6 338,-33 285,-33 Z"/>
  </g>
  <g id="bullet-char-template-9679" transform="scale(0.00048828125,-0.00048828125)">
   <path d="M 813,0 C 632,0 489,54 383,161 276,268 223,411 223,592 223,773 276,916 383,1023 489,1130 632,1184 813,1184 992,1184 1136,1130 1245,1023 1353,916 1407,772 1407,592 1407,412 1353,268 1245,161 1136,54 992,0 813,0 Z"/>
  </g>
  <g id="bullet-char-template-8226" transform="scale(0.00048828125,-0.00048828125)">
   <path d="M 346,457 C 273,457 209,483 155,535 101,586 74,649 74,723 74,796 101,859 155,911 209,963 273,989 346,989 419,989 480,963 531,910 582,859 608,796 608,723 608,648 583,586 532,535 482,483 420,457 346,457 Z"/>
  </g>
  <g id="bullet-char-template-8211" transform="scale(0.00048828125,-0.00048828125)">
   <path d="M -4,459 L 1135,459 1135,606 -4,606 -4,459 Z"/>
  </g>
  <g id="bullet-char-template-61548" transform="scale(0.00048828125,-0.00048828125)">
   <path d="M 173,740 C 173,903 231,1043 346,1159 462,1274 601,1332 765,1332 928,1332 1067,1274 1183,1159 1299,1043 1357,903 1357,740 1357,577 1299,437 1183,322 1067,206 928,148 765,148 601,148 462,206 346,322 231,437 173,577 173,740 Z"/>
  </g>
 </defs>
 <g class="Page">
  <g class="com.sun.star.drawing.PolyPolygonShape">
   <g id="id3">
    <rect class="BoundingBox" stroke="none" fill="none" x="44887" y="12500" width="2827" height="2502"/>
    <path fill="rgb(255,0,0)" stroke="none" d="M 46126,12600 L 44914,14700 44907,14711 44902,14723 44897,14736 44894,14748 44891,14761 44888,14774 44887,14787 44887,14800 44887,14813 44888,14826 44891,14839 44894,14852 44897,14864 44902,14877 44907,14889 44914,14900 44921,14911 44928,14922 44936,14932 44945,14942 44955,14951 44965,14959 44976,14967 44987,14974 44999,14980 45010,14985 45023,14990 45035,14994 45048,14997 45061,14999 45074,15000 45087,15001 47513,15001 47526,15000 47539,14999 47552,14997 47565,14994 47577,14990 47590,14985 47601,14980 47613,14974 47624,14967 47635,14959 47645,14951 47655,14942 47664,14932 47672,14922 47679,14911 47686,14900 47693,14889 47698,14877 47703,14864 47706,14852 47709,14839 47712,14826 47713,14813 47713,14800 47713,14787 47712,14774 47709,14761 47706,14748 47703,14736 47698,14723 47693,14711 47686,14700 46473,12600 46466,12589 46459,12578 46450,12568 46441,12558 46432,12549 46422,12541 46411,12533 46400,12526 46388,12520 46376,12515 46364,12510 46351,12506 46339,12503 46326,12501 46313,12500 46300,12500 46286,12500 46273,12501 46260,12503 46248,12506 46235,12510 46223,12515 46211,12520 46199,12526 46188,12533 46177,12541 46167,12549 46158,12558 46149,12568 46140,12578 46133,12589 46126,12600 Z"/>
   </g>
  </g>
  <g class="com.sun.star.drawing.PolyPolygonShape">
   <g id="id4">
    <rect class="BoundingBox" stroke="none" fill="none" x="45280" y="12923" width="2041" height="1767"/>
    <path fill="rgb(255,255,255)" stroke="none" d="M 47320,14689 L 46301,12923 45280,14689 47320,14689 Z"/>
   </g>
  </g>
  <g class="com.sun.star.drawing.PolyPolygonShape">
   <g id="id5">
    <rect class="BoundingBox" stroke="none" fill="none" x="45589" y="14153" width="1423" height="403"/>
    <path fill="rgb(0,0,0)" stroke="none" d="M 47011,14555 L 47011,14421 46857,14421 46840,14421 46822,14420 46805,14417 46788,14414 46771,14409 46754,14404 46738,14398 46722,14391 46706,14383 46691,14374 46677,14364 46663,14354 46649,14342 46637,14331 46625,14318 46614,14304 46599,14287 46584,14271 46567,14256 46550,14241 46532,14228 46514,14215 46494,14204 46474,14193 46454,14184 46433,14175 46411,14169 46390,14163 46368,14159 46345,14156 46323,14154 46300,14153 46278,14154 46256,14156 46233,14159 46211,14163 46190,14169 46167,14175 46146,14184 46126,14193 46106,14204 46086,14215 46068,14228 46050,14241 46033,14256 46016,14271 46001,14287 45986,14304 45975,14318 45963,14331 45951,14342 45937,14354 45923,14364 45909,14374 45894,14383 45878,14391 45862,14398 45846,14404 45829,14409 45812,14414 45795,14417 45778,14420 45760,14421 45743,14421 45589,14421 45589,14555 47011,14555 Z"/>
   </g>
  </g>
 </g>
</svg>