<?xml version="1.0" encoding="UTF-8"?>
<!DOCTYPE svg PUBLIC "-//W3C//DTD SVG 1.1//EN" "http://www.w3.org/Graphics/SVG/1.1/DTD/svg11.dtd">
<svg version="1.2" width="28.51mm" height="25.02mm" viewBox="48275 12500 2851 2502" preserveAspectRatio="xMidYMid" fill-rule="evenodd" stroke-width="28.222" stroke-linejoin="round" xmlns="http://www.w3.org/2000/svg" xmlns:ooo="http://xml.openoffice.org/svg/export" xmlns:xlink="http://www.w3.org/1999/xlink" xmlns:presentation="http://sun.com/xmlns/staroffice/presentation" xmlns:smil="http://www.w3.org/2001/SMIL20/" xmlns:anim="urn:oasis:names:tc:opendocument:xmlns:animation:1.0" xml:space="preserve">
 <defs class="EmbeddedBulletChars">
  <g id="bullet-char-template-57356" transform="scale(0.00048828125,-0.00048828125)">
   <path d="M 580,1141 L 1163,571 580,0 -4,571 580,1141 Z"/>
  </g>
  <g id="bullet-char-template-57354" transform="scale(0.00048828125,-0.00048828125)">
   <path d="M 8,1128 L 1137,1128 1137,0 8,0 8,1128 Z"/>
  </g>
  <g id="bullet-char-template-10146" transform="scale(0.00048828125,-0.00048828125)">
   <path d="M 174,0 L 602,739 174,1481 1456,739 174,0 Z M 1358,739 L 309,1346 659,739 1358,739 Z"/>
  </g>
  <g id="bullet-char-template-10132" transform="scale(0.00048828125,-0.00048828125)">
   <path d="M 2015,739 L 1276,0 717,0 1260,543 174,543 174,936 1260,936 717,1481 1274,1481 2015,739 Z"/>
  </g>
  <g id="bullet-char-template-10007" transform="scale(0.00048828125,-0.00048828125)">
   <path d="M 0,-2 C -7,14 -16,27 -25,37 L 356,567 C 262,823 215,952 215,954 215,979 228,992 255,992 264,992 276,990 289,987 310,991 331,999 354,1012 L 381,999 492,748 772,1049 836,1024 860,1049 C 881,1039 901,1025 922,1006 886,937 835,863 770,784 769,783 710,716 594,584 L 774,223 C 774,196 753,168 711,139 L 727,119 C 717,90 699,76 672,76 641,76 570,178 457,381 L 164,-76 C 142,-110 111,-127 72,-127 30,-127 9,-110 8,-76 1,-67 -2,-52 -2,-32 -2,-23 -1,-13 0,-2 Z"/>
  </g>
  <g id="bullet-char-template-10004" transform="scale(0.00048828125,-0.00048828125)">
   <path d="M 285,-33 C 182,-33 111,30 74,156 52,228 41,333 41,471 41,549 55,616 82,672 116,743 169,778 240,778 293,778 328,747 346,684 L 369,508 C 377,444 397,411 428,410 L 1163,1116 C 1174,1127 1196,1133 1229,1133 1271,1133 1292,1118 1292,1087 L 1292,965 C 1292,929 1282,901 1262,881 L 442,47 C 390,-6 338,-33 285,-33 Z"/>
  </g>
  <g id="bullet-char-template-9679" transform="scale(0.00048828125,-0.00048828125)">
   <path d="M 813,0 C 632,0 489,54 383,161 276,268 223,411 223,592 223,773 276,916 383,1023 489,1130 632,1184 813,1184 992,1184 1136,1130 1245,1023 1353,916 1407,772 1407,592 1407,412 1353,268 1245,161 1136,54 992,0 813,0 Z"/>
  </g>
  <g id="bullet-char-template-8226" transform="scale(0.00048828125,-0.00048828125)">
   <path d="M 346,457 C 273,457 209,483 155,535 101,586 74,649 74,723 74,796 101,859 155,911 209,963 273,989 346,989 419,989 480,963 531,910 582,859 608,796 608,723 608,648 583,586 532,535 482,483 420,457 346,457 Z"/>
  </g>
  <g id="bullet-char-template-8211" transform="scale(0.00048828125,-0.00048828125)">
   <path d="M -4,459 L 1135,459 1135,606 -4,606 -4,459 Z"/>
  </g>
  <g id="bullet-char-template-61548" transform="scale(0.00048828125,-0.00048828125)">
   <path d="M 173,740 C 173,903 231,1043 346,1159 462,1274 601,1332 765,1332 928,1332 1067,1274 1183,1159 1299,1043 1357,903 1357,740 1357,577 1299,437 1183,322 1067,206 928,148 765,148 601,148 462,206 346,322 231,437 173,577 173,740 Z"/>
  </g>
 </defs>
 <g class="Page">
  <g class="com.sun.star.drawing.PolyPolygonShape">
   <g id="id3">
    <rect class="BoundingBox" stroke="none" fill="none" x="48275" y="12500" width="2851" height="2502"/>
    <path fill="rgb(255,0,0)" stroke="none" d="M 49592,12561 L 48291,14815 48288,14822 48284,14829 48281,14837 48279,14844 48277,14852 48276,14860 48275,14868 48275,14876 48275,14885 48276,14893 48277,14901 48279,14909 48281,14916 48284,14924 48288,14931 48291,14939 48296,14945 48300,14952 48306,14958 48311,14964 48317,14970 48323,14975 48330,14980 48337,14984 48344,14988 48351,14991 48359,14994 48367,14996 48375,14998 48383,14999 48391,15000 48399,15001 51001,15001 51009,15000 51017,14999 51025,14998 51033,14996 51041,14994 51049,14991 51056,14988 51063,14984 51070,14980 51077,14975 51083,14970 51089,14964 51094,14958 51100,14952 51104,14945 51109,14939 51112,14931 51116,14924 51119,14916 51121,14909 51123,14901 51124,14893 51125,14885 51125,14876 51125,14868 51124,14860 51123,14852 51121,14844 51119,14837 51116,14829 51112,14822 51109,14815 49807,12561 49803,12555 49798,12548 49793,12542 49787,12536 49781,12530 49775,12525 49768,12520 49762,12516 49754,12512 49747,12509 49739,12506 49732,12504 49724,12502 49716,12501 49708,12500 49699,12500 49691,12500 49683,12501 49675,12502 49667,12504 49660,12506 49652,12509 49645,12512 49637,12516 49631,12520 49624,12525 49618,12530 49612,12536 49606,12542 49601,12548 49596,12555 49592,12561 Z"/>
   </g>
  </g>
  <g class="com.sun.star.drawing.PolyPolygonShape">
   <g id="id4">
    <rect class="BoundingBox" stroke="none" fill="none" x="48709" y="12982" width="1984" height="1717"/>
    <path fill="rgb(255,255,255)" stroke="none" d="M 50691,14698 L 49700,12982 48709,14698 50691,14698 Z"/>
   </g>
  </g>
  <g class="com.sun.star.drawing.PolyPolygonShape">
   <g id="id5">
    <rect class="BoundingBox" stroke="none" fill="none" x="49325" y="13455" width="732" height="689"/>
    <path fill="rgb(0,0,0)" stroke="none" d="M 49959,13579 L 50004,13782 49968,13769 49931,13758 49895,13746 49859,13736 49823,13725 49787,13716 49750,13707 49714,13698 49677,13690 49640,13683 49603,13676 49566,13669 49529,13663 49492,13658 49454,13653 49417,13649 49545,13485 49959,13579 Z M 49979,14035 L 49988,14020 49997,14005 50005,13990 50013,13975 50020,13959 50027,13943 50033,13927 50040,13911 50054,13849 50055,13840 50056,13832 50055,13823 50053,13814 50052,13811 50051,13807 50048,13804 50046,13802 50043,13799 50040,13797 50037,13795 50034,13793 49982,13557 49534,13455 49385,13646 49381,13646 49377,13647 49374,13647 49370,13648 49367,13650 49363,13652 49360,13654 49358,13657 49353,13664 49348,13671 49345,13679 49342,13688 49329,13750 49327,13767 49326,13784 49325,13802 49325,13819 49326,13836 49327,13854 49328,13871 49329,13888 49353,13894 49328,14006 49396,14021 49422,13909 49886,14014 49860,14127 49929,14143 49955,14030 49979,14035 Z"/>
   </g>
  </g>
  <g class="com.sun.star.drawing.PolyPolygonShape">
   <g id="id6">
    <rect class="BoundingBox" stroke="none" fill="none" x="49231" y="14177" width="378" height="488"/>
    <path fill="rgb(0,0,0)" stroke="none" d="M 49362,14177 L 49254,14241 49249,14245 49244,14249 49240,14254 49236,14260 49233,14266 49232,14272 49231,14280 49231,14286 49232,14293 49234,14299 49236,14305 49240,14311 49244,14316 49249,14320 49254,14324 49260,14327 49508,14428 49511,14429 49514,14431 49516,14433 49518,14436 49520,14439 49522,14442 49523,14445 49524,14448 49524,14452 49524,14455 49523,14458 49522,14461 49521,14465 49519,14467 49517,14470 49514,14472 49276,14663 49386,14663 49585,14504 49591,14499 49596,14492 49601,14486 49604,14479 49606,14471 49608,14463 49608,14456 49607,14448 49606,14440 49603,14433 49600,14425 49595,14419 49590,14413 49584,14408 49577,14404 49570,14400 49296,14291 49292,14289 49289,14286 49286,14281 49285,14276 49285,14271 49287,14266 49290,14262 49293,14260 49430,14177 49362,14177 Z"/>
   </g>
  </g>
  <g class="com.sun.star.drawing.PolyPolygonShape">
   <g id="id7">
    <rect class="BoundingBox" stroke="none" fill="none" x="49750" y="14177" width="409" height="488"/>
    <path fill="rgb(0,0,0)" stroke="none" d="M 49884,14177 L 49774,14241 49768,14244 49764,14248 49760,14253 49757,14259 49754,14264 49752,14270 49751,14276 49751,14284 49752,14290 49754,14296 49756,14302 49759,14307 49763,14312 49768,14316 49773,14320 49779,14323 50047,14437 50050,14438 50053,14440 50055,14442 50058,14445 50059,14447 50061,14450 50062,14453 50063,14456 50063,14459 50063,14462 50063,14465 50062,14468 50061,14471 50060,14474 50058,14477 50056,14479 49877,14663 49997,14663 50139,14516 50145,14510 50150,14504 50153,14497 50156,14489 50157,14481 50158,14474 50158,14466 50157,14458 50155,14450 50152,14443 50148,14436 50143,14430 50137,14424 50131,14419 50124,14415 50117,14411 49829,14292 49826,14290 49824,14288 49821,14286 49819,14284 49818,14282 49817,14279 49816,14275 49815,14272 49815,14269 49816,14266 49817,14263 49818,14260 49819,14258 49821,14256 49824,14254 49826,14252 49953,14177 49884,14177 Z"/>
   </g>
  </g>
 </g>
</svg>