<?xml version="1.0" encoding="UTF-8"?>
<!DOCTYPE svg PUBLIC "-//W3C//DTD SVG 1.1//EN" "http://www.w3.org/Graphics/SVG/1.1/DTD/svg11.dtd">
<svg version="1.2" width="28.51mm" height="25.02mm" viewBox="51675 12500 2851 2502" preserveAspectRatio="xMidYMid" fill-rule="evenodd" stroke-width="28.222" stroke-linejoin="round" xmlns="http://www.w3.org/2000/svg" xmlns:ooo="http://xml.openoffice.org/svg/export" xmlns:xlink="http://www.w3.org/1999/xlink" xmlns:presentation="http://sun.com/xmlns/staroffice/presentation" xmlns:smil="http://www.w3.org/2001/SMIL20/" xmlns:anim="urn:oasis:names:tc:opendocument:xmlns:animation:1.0" xml:space="preserve">
 <defs class="EmbeddedBulletChars">
  <g id="bullet-char-template-57356" transform="scale(0.00048828125,-0.00048828125)">
   <path d="M 580,1141 L 1163,571 580,0 -4,571 580,1141 Z"/>
  </g>
  <g id="bullet-char-template-57354" transform="scale(0.00048828125,-0.00048828125)">
   <path d="M 8,1128 L 1137,1128 1137,0 8,0 8,1128 Z"/>
  </g>
  <g id="bullet-char-template-10146" transform="scale(0.00048828125,-0.00048828125)">
   <path d="M 174,0 L 602,739 174,1481 1456,739 174,0 Z M 1358,739 L 309,1346 659,739 1358,739 Z"/>
  </g>
  <g id="bullet-char-template-10132" transform="scale(0.00048828125,-0.00048828125)">
   <path d="M 2015,739 L 1276,0 717,0 1260,543 174,543 174,936 1260,936 717,1481 1274,1481 2015,739 Z"/>
  </g>
  <g id="bullet-char-template-10007" transform="scale(0.00048828125,-0.00048828125)">
   <path d="M 0,-2 C -7,14 -16,27 -25,37 L 356,567 C 262,823 215,952 215,954 215,979 228,992 255,992 264,992 276,990 289,987 310,991 331,999 354,1012 L 381,999 492,748 772,1049 836,1024 860,1049 C 881,1039 901,1025 922,1006 886,937 835,863 770,784 769,783 710,716 594,584 L 774,223 C 774,196 753,168 711,139 L 727,119 C 717,90 699,76 672,76 641,76 570,178 457,381 L 164,-76 C 142,-110 111,-127 72,-127 30,-127 9,-110 8,-76 1,-67 -2,-52 -2,-32 -2,-23 -1,-13 0,-2 Z"/>
  </g>
  <g id="bullet-char-template-10004" transform="scale(0.00048828125,-0.00048828125)">
   <path d="M 285,-33 C 182,-33 111,30 74,156 52,228 41,333 41,471 41,549 55,616 82,672 116,743 169,778 240,778 293,778 328,747 346,684 L 369,508 C 377,444 397,411 428,410 L 1163,1116 C 1174,1127 1196,1133 1229,1133 1271,1133 1292,1118 1292,1087 L 1292,965 C 1292,929 1282,901 1262,881 L 442,47 C 390,-6 338,-33 285,-33 Z"/>
  </g>
  <g id="bullet-char-template-9679" transform="scale(0.00048828125,-0.00048828125)">
   <path d="M 813,0 C 632,0 489,54 383,161 276,268 223,411 223,592 223,773 276,916 383,1023 489,1130 632,1184 813,1184 992,1184 1136,1130 1245,1023 1353,916 1407,772 1407,592 1407,412 1353,268 1245,161 1136,54 992,0 813,0 Z"/>
  </g>
  <g id="bullet-char-template-8226" transform="scale(0.00048828125,-0.00048828125)">
   <path d="M 346,457 C 273,457 209,483 155,535 101,586 74,649 74,723 74,796 101,859 155,911 209,963 273,989 346,989 419,989 480,963 531,910 582,859 608,796 608,723 608,648 583,586 532,535 482,483 420,457 346,457 Z"/>
  </g>
  <g id="bullet-char-template-8211" transform="scale(0.00048828125,-0.00048828125)">
   <path d="M -4,459 L 1135,459 1135,606 -4,606 -4,459 Z"/>
  </g>
  <g id="bullet-char-template-61548" transform="scale(0.00048828125,-0.00048828125)">
   <path d="M 173,740 C 173,903 231,1043 346,1159 462,1274 601,1332 765,1332 928,1332 1067,1274 1183,1159 1299,1043 1357,903 1357,740 1357,577 1299,437 1183,322 1067,206 928,148 765,148 601,148 462,206 346,322 231,437 173,577 173,740 Z"/>
  </g>
 </defs>
 <g class="Page">
  <g class="com.sun.star.drawing.PolyPolygonShape">
   <g id="id3">
    <rect class="BoundingBox" stroke="none" fill="none" x="51675" y="12500" width="2851" height="2502"/>
    <path fill="rgb(255,0,0)" stroke="none" d="M 52993,12561 L 51691,14815 51688,14822 51684,14829 51681,14837 51679,14844 51677,14852 51676,14860 51675,14868 51675,14876 51675,14885 51676,14893 51677,14901 51679,14909 51681,14916 51684,14924 51688,14931 51691,14939 51696,14945 51700,14952 51706,14958 51711,14964 51717,14970 51723,14975 51730,14980 51737,14984 51744,14988 51751,14991 51759,14994 51767,14996 51775,14998 51783,14999 51791,15000 51799,15001 54401,15001 54409,15000 54417,14999 54425,14998 54433,14996 54441,14994 54449,14991 54456,14988 54463,14984 54470,14980 54477,14975 54483,14970 54489,14964 54494,14958 54500,14952 54504,14945 54509,14939 54512,14931 54516,14924 54519,14916 54521,14909 54523,14901 54524,14893 54525,14885 54525,14876 54525,14868 54524,14860 54523,14852 54521,14844 54519,14837 54516,14829 54512,14822 54509,14815 53208,12561 53204,12555 53199,12548 53194,12542 53188,12536 53182,12530 53176,12525 53169,12520 53163,12516 53155,12512 53148,12509 53140,12506 53133,12504 53125,12502 53117,12501 53109,12500 53100,12500 53092,12500 53084,12501 53076,12502 53068,12504 53061,12506 53053,12509 53046,12512 53038,12516 53032,12520 53025,12525 53019,12530 53013,12536 53007,12542 53002,12548 52997,12555 52993,12561 Z"/>
   </g>
  </g>
  <g class="com.sun.star.drawing.PolyPolygonShape">
   <g id="id4">
    <rect class="BoundingBox" stroke="none" fill="none" x="52109" y="12982" width="1983" height="1717"/>
    <path fill="rgb(255,255,255)" stroke="none" d="M 54091,14698 L 53101,12982 52109,14698 54091,14698 Z"/>
   </g>
  </g>
  <g class="com.sun.star.drawing.PolyPolygonShape">
   <g id="id5">
    <rect class="BoundingBox" stroke="none" fill="none" x="52287" y="13566" width="1627" height="984"/>
    <path fill="rgb(0,0,0)" stroke="none" d="M 52910,14004 L 52910,13998 52909,13991 52908,13985 52906,13979 52903,13974 52900,13968 52896,13963 52892,13959 52887,13954 52882,13951 52876,13947 52871,13945 52865,13942 52859,13941 52852,13940 52846,13940 52840,13940 52833,13941 52827,13942 52821,13945 52816,13947 52809,13951 52804,13954 52799,13959 52795,13963 52791,13968 52788,13974 52785,13979 52783,13985 52782,13991 52781,13998 52780,14004 52781,14010 52782,14017 52783,14023 52785,14029 52788,14034 52791,14040 52795,14045 52799,14050 52804,14054 52809,14058 52816,14061 52821,14064 52827,14066 52833,14067 52840,14068 52846,14069 52852,14068 52859,14067 52865,14066 52871,14064 52876,14061 52882,14058 52887,14054 52892,14050 52896,14045 52900,14040 52903,14034 52906,14029 52908,14023 52909,14017 52910,14010 52910,14004 Z M 52511,14056 L 52689,14056 52689,14041 52520,14041 52621,13863 52899,13875 52764,13613 52791,13567 52960,13895 52964,13898 52968,13902 52973,13906 52976,13910 52980,13914 52983,13919 52986,13924 52988,13929 52994,13942 52998,13955 53002,13969 53006,13982 53008,13996 53010,14010 53011,14023 53012,14037 53013,14068 53013,14098 53011,14129 53009,14159 53006,14189 53001,14221 52996,14251 52989,14280 52985,14295 52981,14309 52975,14323 52969,14337 52915,14337 52915,14520 53913,14520 53913,14549 52287,14549 52287,14520 52790,14520 52790,14337 52352,14337 52400,14253 52689,14253 52689,14238 52409,14238 52457,14153 52800,14153 52800,14137 52465,14137 52511,14056 Z"/>
   </g>
  </g>
  <g class="com.sun.star.drawing.PolyPolygonShape">
   <g id="id6">
    <rect class="BoundingBox" stroke="none" fill="none" x="53244" y="13456" width="84" height="97"/>
    <path fill="rgb(0,0,0)" stroke="none" d="M 53256,13487 L 53258,13492 53258,13497 53258,13502 53258,13507 53256,13512 53254,13516 53251,13520 53247,13524 53245,13527 53244,13531 53244,13534 53244,13539 53245,13542 53246,13546 53248,13549 53250,13552 53253,13552 53257,13552 53258,13552 53261,13552 53262,13550 53263,13549 53264,13551 53266,13552 53269,13552 53271,13552 53277,13551 53283,13550 53288,13547 53293,13545 53297,13541 53301,13535 53304,13531 53307,13525 53316,13509 53325,13491 53326,13489 53327,13486 53327,13483 53327,13480 53327,13476 53326,13473 53325,13471 53323,13468 53320,13463 53315,13459 53313,13457 53310,13457 53308,13456 53305,13456 53302,13457 53300,13457 53297,13458 53295,13460 53290,13464 53286,13468 53282,13472 53278,13477 53276,13479 53274,13481 53271,13483 53269,13484 53266,13485 53263,13486 53260,13487 53256,13487 Z"/>
   </g>
  </g>
  <g class="com.sun.star.drawing.PolyPolygonShape">
   <g id="id7">
    <rect class="BoundingBox" stroke="none" fill="none" x="52948" y="14237" width="794" height="268"/>
    <path fill="rgb(0,0,0)" stroke="none" d="M 53740,14286 L 52948,14504 53723,14237 53740,14286 Z"/>
   </g>
  </g>
  <g class="com.sun.star.drawing.PolyPolygonShape">
   <g id="id8">
    <rect class="BoundingBox" stroke="none" fill="none" x="53574" y="14183" width="78" height="60"/>
    <path fill="rgb(0,0,0)" stroke="none" d="M 53630,14242 L 53635,14239 53640,14235 53645,14231 53648,14226 53650,14219 53651,14213 53651,14207 53650,14201 53643,14194 53636,14188 53634,14186 53632,14185 53630,14184 53627,14183 53625,14183 53622,14183 53620,14184 53617,14185 53605,14194 53592,14202 53586,14205 53582,14210 53579,14215 53576,14221 53575,14226 53575,14229 53576,14233 53577,14236 53583,14239 53590,14241 53597,14242 53603,14242 53630,14242 Z"/>
   </g>
  </g>
  <g class="com.sun.star.drawing.PolyPolygonShape">
   <g id="id9">
    <rect class="BoundingBox" stroke="none" fill="none" x="53569" y="14039" width="86" height="70"/>
    <path fill="rgb(0,0,0)" stroke="none" d="M 53572,14081 L 53571,14087 53569,14093 53569,14094 53569,14095 53570,14096 53571,14097 53574,14098 53578,14098 53581,14098 53583,14099 53586,14100 53588,14102 53591,14105 53595,14107 53599,14108 53603,14108 53609,14107 53616,14105 53622,14102 53628,14098 53633,14096 53639,14093 53645,14091 53651,14090 53650,14085 53650,14080 53651,14076 53653,14071 53654,14069 53653,14066 53653,14064 53651,14062 53649,14060 53647,14059 53644,14058 53642,14058 53636,14057 53630,14054 53624,14051 53619,14047 53616,14045 53612,14043 53609,14041 53605,14040 53601,14039 53597,14039 53593,14039 53589,14040 53586,14041 53584,14041 53581,14043 53579,14045 53575,14047 53574,14049 53573,14052 53572,14055 53572,14081 Z"/>
   </g>
  </g>
  <g class="com.sun.star.drawing.PolyPolygonShape">
   <g id="id10">
    <rect class="BoundingBox" stroke="none" fill="none" x="52941" y="13986" width="465" height="505"/>
    <path fill="rgb(0,0,0)" stroke="none" d="M 53405,14019 L 52941,14490 53370,13986 53405,14019 Z"/>
   </g>
  </g>
  <g class="com.sun.star.drawing.PolyPolygonShape">
   <g id="id11">
    <rect class="BoundingBox" stroke="none" fill="none" x="52935" y="13578" width="437" height="898"/>
    <path fill="rgb(0,0,0)" stroke="none" d="M 53371,13618 L 52936,14475 53325,13578 53371,13618 Z"/>
   </g>
  </g>
  <g class="com.sun.star.drawing.PolyPolygonShape">
   <g id="id12">
    <rect class="BoundingBox" stroke="none" fill="none" x="52944" y="14172" width="501" height="326"/>
    <path fill="rgb(0,0,0)" stroke="none" d="M 53425,14172 L 52945,14497 53444,14210 53425,14172 Z"/>
   </g>
  </g>
  <g class="com.sun.star.drawing.PolyPolygonShape">
   <g id="id13">
    <rect class="BoundingBox" stroke="none" fill="none" x="53146" y="13575" width="58" height="56"/>
    <path fill="rgb(0,0,0)" stroke="none" d="M 53147,13625 L 53149,13626 53152,13628 53155,13629 53159,13629 53164,13630 53170,13629 53175,13628 53180,13625 53198,13616 53200,13608 53202,13601 53202,13597 53203,13593 53202,13590 53202,13587 53201,13584 53199,13581 53197,13579 53195,13576 53191,13578 53186,13579 53181,13579 53176,13579 53173,13579 53169,13580 53166,13581 53163,13582 53161,13584 53157,13586 53155,13589 53153,13591 53151,13595 53149,13600 53148,13604 53147,13608 53146,13612 53146,13616 53146,13620 53147,13625 Z"/>
   </g>
  </g>
  <g class="com.sun.star.drawing.PolyPolygonShape">
   <g id="id14">
    <rect class="BoundingBox" stroke="none" fill="none" x="53375" y="13858" width="66" height="40"/>
    <path fill="rgb(0,0,0)" stroke="none" d="M 53397,13864 L 53403,13863 53417,13859 53421,13858 53424,13858 53428,13859 53431,13860 53432,13862 53434,13863 53435,13865 53436,13867 53437,13868 53438,13870 53439,13873 53440,13875 53439,13878 53438,13880 53435,13882 53433,13883 53427,13884 53420,13886 53411,13890 53401,13895 53398,13896 53396,13897 53392,13897 53389,13897 53386,13897 53383,13896 53380,13895 53378,13893 53376,13890 53375,13887 53375,13884 53375,13881 53376,13879 53377,13876 53379,13874 53381,13872 53384,13870 53389,13866 53397,13864 Z"/>
   </g>
  </g>
  <g class="com.sun.star.drawing.PolyPolygonShape">
   <g id="id15">
    <rect class="BoundingBox" stroke="none" fill="none" x="53424" y="13983" width="70" height="63"/>
    <path fill="rgb(0,0,0)" stroke="none" d="M 53457,13984 L 53454,13990 53450,13995 53446,14001 53441,14005 53435,14010 53431,14017 53427,14023 53424,14029 53424,14032 53425,14034 53426,14037 53428,14039 53430,14040 53432,14042 53434,14043 53437,14043 53443,14044 53448,14044 53454,14044 53460,14043 53464,14042 53468,14042 53472,14043 53477,14043 53485,14031 53488,14024 53491,14017 53492,14009 53493,14001 53493,13999 53492,13997 53491,13994 53490,13992 53489,13991 53487,13989 53485,13988 53483,13987 53476,13985 53470,13984 53464,13983 53458,13984 53457,13984 Z"/>
   </g>
  </g>
  <g class="com.sun.star.drawing.PolyPolygonShape">
   <g id="id16">
    <rect class="BoundingBox" stroke="none" fill="none" x="53354" y="13709" width="88" height="87"/>
    <path fill="rgb(0,0,0)" stroke="none" d="M 53397,13710 L 53394,13709 53391,13709 53387,13709 53384,13710 53381,13712 53378,13713 53376,13716 53373,13718 53371,13723 53369,13727 53370,13731 53369,13736 53367,13740 53364,13743 53355,13749 53354,13759 53357,13761 53356,13766 53356,13770 53358,13774 53361,13778 53375,13786 53388,13795 53394,13793 53400,13792 53406,13790 53412,13788 53418,13785 53424,13782 53429,13778 53434,13774 53441,13761 53439,13753 53436,13745 53433,13737 53429,13728 53426,13724 53422,13721 53418,13718 53413,13716 53397,13710 Z"/>
   </g>
  </g>
  <g class="com.sun.star.drawing.PolyPolygonShape">
   <g id="id17">
    <rect class="BoundingBox" stroke="none" fill="none" x="53700" y="14319" width="83" height="67"/>
    <path fill="rgb(0,0,0)" stroke="none" d="M 53745,14319 L 53750,14320 53756,14321 53762,14324 53767,14327 53774,14332 53782,14337 53780,14342 53777,14347 53774,14352 53770,14356 53768,14360 53765,14363 53763,14367 53762,14372 53762,14375 53762,14378 53762,14381 53763,14384 53754,14383 53746,14384 53739,14384 53733,14385 53728,14385 53724,14385 53718,14384 53714,14383 53710,14380 53706,14377 53703,14374 53700,14370 53701,14366 53703,14361 53704,14357 53706,14353 53709,14350 53712,14346 53715,14343 53718,14340 53732,14329 53745,14319 Z"/>
   </g>
  </g>
 </g>
</svg>