<?xml version="1.0" encoding="UTF-8"?>
<!DOCTYPE svg PUBLIC "-//W3C//DTD SVG 1.1//EN" "http://www.w3.org/Graphics/SVG/1.1/DTD/svg11.dtd">
<svg version="1.2" width="28.51mm" height="25.02mm" viewBox="55075 12500 2851 2502" preserveAspectRatio="xMidYMid" fill-rule="evenodd" stroke-width="28.222" stroke-linejoin="round" xmlns="http://www.w3.org/2000/svg" xmlns:ooo="http://xml.openoffice.org/svg/export" xmlns:xlink="http://www.w3.org/1999/xlink" xmlns:presentation="http://sun.com/xmlns/staroffice/presentation" xmlns:smil="http://www.w3.org/2001/SMIL20/" xmlns:anim="urn:oasis:names:tc:opendocument:xmlns:animation:1.0" xml:space="preserve">
 <defs class="EmbeddedBulletChars">
  <g id="bullet-char-template-57356" transform="scale(0.00048828125,-0.00048828125)">
   <path d="M 580,1141 L 1163,571 580,0 -4,571 580,1141 Z"/>
  </g>
  <g id="bullet-char-template-57354" transform="scale(0.00048828125,-0.00048828125)">
   <path d="M 8,1128 L 1137,1128 1137,0 8,0 8,1128 Z"/>
  </g>
  <g id="bullet-char-template-10146" transform="scale(0.00048828125,-0.00048828125)">
   <path d="M 174,0 L 602,739 174,1481 1456,739 174,0 Z M 1358,739 L 309,1346 659,739 1358,739 Z"/>
  </g>
  <g id="bullet-char-template-10132" transform="scale(0.00048828125,-0.00048828125)">
   <path d="M 2015,739 L 1276,0 717,0 1260,543 174,543 174,936 1260,936 717,1481 1274,1481 2015,739 Z"/>
  </g>
  <g id="bullet-char-template-10007" transform="scale(0.00048828125,-0.00048828125)">
   <path d="M 0,-2 C -7,14 -16,27 -25,37 L 356,567 C 262,823 215,952 215,954 215,979 228,992 255,992 264,992 276,990 289,987 310,991 331,999 354,1012 L 381,999 492,748 772,1049 836,1024 860,1049 C 881,1039 901,1025 922,1006 886,937 835,863 770,784 769,783 710,716 594,584 L 774,223 C 774,196 753,168 711,139 L 727,119 C 717,90 699,76 672,76 641,76 570,178 457,381 L 164,-76 C 142,-110 111,-127 72,-127 30,-127 9,-110 8,-76 1,-67 -2,-52 -2,-32 -2,-23 -1,-13 0,-2 Z"/>
  </g>
  <g id="bullet-char-template-10004" transform="scale(0.00048828125,-0.00048828125)">
   <path d="M 285,-33 C 182,-33 111,30 74,156 52,228 41,333 41,471 41,549 55,616 82,672 116,743 169,778 240,778 293,778 328,747 346,684 L 369,508 C 377,444 397,411 428,410 L 1163,1116 C 1174,1127 1196,1133 1229,1133 1271,1133 1292,1118 1292,1087 L 1292,965 C 1292,929 1282,901 1262,881 L 442,47 C 390,-6 338,-33 285,-33 Z"/>
  </g>
  <g id="bullet-char-template-9679" transform="scale(0.00048828125,-0.00048828125)">
   <path d="M 813,0 C 632,0 489,54 383,161 276,268 223,411 223,592 223,773 276,916 383,1023 489,1130 632,1184 813,1184 992,1184 1136,1130 1245,1023 1353,916 1407,772 1407,592 1407,412 1353,268 1245,161 1136,54 992,0 813,0 Z"/>
  </g>
  <g id="bullet-char-template-8226" transform="scale(0.00048828125,-0.00048828125)">
   <path d="M 346,457 C 273,457 209,483 155,535 101,586 74,649 74,723 74,796 101,859 155,911 209,963 273,989 346,989 419,989 480,963 531,910 582,859 608,796 608,723 608,648 583,586 532,535 482,483 420,457 346,457 Z"/>
  </g>
  <g id="bullet-char-template-8211" transform="scale(0.00048828125,-0.00048828125)">
   <path d="M -4,459 L 1135,459 1135,606 -4,606 -4,459 Z"/>
  </g>
  <g id="bullet-char-template-61548" transform="scale(0.00048828125,-0.00048828125)">
   <path d="M 173,740 C 173,903 231,1043 346,1159 462,1274 601,1332 765,1332 928,1332 1067,1274 1183,1159 1299,1043 1357,903 1357,740 1357,577 1299,437 1183,322 1067,206 928,148 765,148 601,148 462,206 346,322 231,437 173,577 173,740 Z"/>
  </g>
 </defs>
 <g class="Page">
  <g class="com.sun.star.drawing.PolyPolygonShape">
   <g id="id3">
    <rect class="BoundingBox" stroke="none" fill="none" x="55075" y="12500" width="2851" height="2502"/>
    <path fill="rgb(255,0,0)" stroke="none" d="M 56393,12561 L 55091,14815 55088,14822 55084,14829 55081,14837 55079,14844 55077,14852 55076,14860 55075,14868 55075,14876 55075,14885 55076,14893 55077,14901 55079,14909 55081,14916 55084,14924 55088,14931 55091,14939 55096,14945 55100,14952 55106,14958 55111,14964 55117,14970 55123,14975 55130,14980 55137,14984 55144,14988 55151,14991 55159,14994 55167,14996 55175,14998 55183,14999 55191,15000 55199,15001 57801,15001 57809,15000 57817,14999 57825,14998 57833,14996 57841,14994 57849,14991 57856,14988 57863,14984 57870,14980 57877,14975 57883,14970 57889,14964 57894,14958 57900,14952 57904,14945 57909,14939 57912,14931 57916,14924 57919,14916 57921,14909 57923,14901 57924,14893 57925,14885 57925,14876 57925,14868 57924,14860 57923,14852 57921,14844 57919,14837 57916,14829 57912,14822 57909,14815 56608,12561 56604,12555 56599,12548 56594,12542 56588,12536 56582,12530 56576,12525 56569,12520 56563,12516 56555,12512 56548,12509 56540,12506 56533,12504 56525,12502 56517,12501 56509,12500 56500,12500 56492,12500 56484,12501 56476,12502 56468,12504 56461,12506 56453,12509 56446,12512 56438,12516 56432,12520 56425,12525 56419,12530 56413,12536 56407,12542 56402,12548 56397,12555 56393,12561 Z"/>
   </g>
  </g>
  <g class="com.sun.star.drawing.PolyPolygonShape">
   <g id="id4">
    <rect class="BoundingBox" stroke="none" fill="none" x="55509" y="12982" width="1983" height="1717"/>
    <path fill="rgb(255,255,255)" stroke="none" d="M 57491,14698 L 56501,12982 55509,14698 57491,14698 Z"/>
   </g>
  </g>
  <g class="com.sun.star.drawing.PolyPolygonShape">
   <g id="id5">
    <rect class="BoundingBox" stroke="none" fill="none" x="56421" y="13420" width="1071" height="1278"/>
    <path fill="rgb(0,0,0)" stroke="none" d="M 56669,13590 L 56683,13571 56696,13551 56708,13530 56720,13509 56730,13488 56739,13466 56746,13443 56753,13420 57491,14697 56421,14697 56436,14683 56450,14666 56463,14650 56476,14633 56488,14616 56500,14599 56511,14580 56521,14562 56531,14543 56539,14524 56547,14505 56555,14485 56561,14465 56567,14445 56571,14424 56575,14403 56580,14379 56586,14355 56592,14332 56599,14308 56603,14296 56607,14284 56612,14273 56618,14262 56624,14251 56631,14241 56639,14231 56647,14222 56658,14210 56668,14199 56678,14186 56687,14174 56696,14161 56704,14148 56712,14134 56719,14120 56723,14114 56726,14108 56728,14101 56729,14095 56730,14088 56729,14081 56727,14074 56725,14067 56720,14059 56716,14051 56712,14042 56708,14034 56705,14025 56702,14016 56700,14007 56698,13998 56697,13995 56696,13992 56694,13989 56693,13986 56690,13982 56688,13978 56688,13973 56689,13968 56681,13937 56678,13926 56674,13916 56674,13909 56675,13902 56674,13895 56674,13887 56672,13876 56669,13865 56666,13855 56663,13844 56660,13837 56658,13830 56657,13823 56656,13816 56655,13813 56655,13809 56654,13806 56652,13803 56647,13791 56642,13780 56637,13768 56633,13755 56630,13743 56627,13731 56624,13718 56622,13705 56621,13699 56620,13692 56618,13686 56616,13680 56614,13675 56614,13671 56615,13666 56616,13662 56622,13652 56628,13643 56634,13633 56640,13624 56647,13615 56654,13607 56661,13598 56669,13590 Z"/>
   </g>
  </g>
  <g class="com.sun.star.drawing.PolyPolygonShape">
   <g id="id6">
    <rect class="BoundingBox" stroke="none" fill="none" x="56175" y="14086" width="92" height="117"/>
    <path fill="rgb(0,0,0)" stroke="none" d="M 56198,14202 L 56193,14201 56189,14201 56184,14199 56180,14197 56178,14194 56175,14189 56175,14184 56175,14179 56176,14171 56177,14162 56179,14150 56180,14137 56181,14131 56184,14126 56187,14121 56191,14116 56196,14112 56199,14106 56202,14104 56205,14101 56208,14099 56212,14098 56227,14088 56229,14087 56232,14086 56234,14086 56237,14087 56239,14087 56241,14089 56243,14091 56244,14093 56250,14105 56256,14118 56260,14125 56262,14134 56264,14142 56264,14151 56265,14158 56264,14165 56263,14171 56261,14178 56260,14181 56258,14184 56256,14186 56253,14188 56250,14190 56247,14192 56244,14194 56240,14195 56235,14196 56229,14199 56226,14200 56223,14200 56220,14200 56218,14199 56216,14198 56214,14198 56212,14199 56211,14200 56198,14202 Z"/>
   </g>
  </g>
  <g class="com.sun.star.drawing.PolyPolygonShape">
   <g id="id7">
    <rect class="BoundingBox" stroke="none" fill="none" x="56196" y="14358" width="119" height="99"/>
    <path fill="rgb(0,0,0)" stroke="none" d="M 56290,14381 L 56285,14379 56281,14377 56277,14373 56274,14369 56273,14366 56270,14364 56267,14362 56264,14361 56260,14359 56255,14359 56251,14358 56247,14358 56242,14358 56238,14359 56233,14360 56229,14361 56223,14366 56219,14372 56215,14379 56212,14386 56210,14391 56208,14394 56206,14398 56203,14401 56199,14404 56198,14407 56197,14410 56196,14413 56196,14417 56197,14420 56198,14423 56200,14425 56205,14429 56208,14433 56210,14438 56212,14443 56212,14445 56214,14448 56216,14449 56219,14450 56223,14452 56227,14454 56231,14455 56235,14456 56240,14456 56244,14456 56249,14456 56253,14455 56263,14455 56272,14455 56278,14455 56283,14454 56289,14452 56294,14449 56298,14446 56301,14443 56304,14439 56307,14434 56310,14430 56311,14425 56313,14420 56313,14415 56313,14412 56313,14409 56312,14404 56312,14401 56312,14398 56310,14395 56309,14392 56306,14389 56303,14387 56299,14384 56295,14382 56290,14381 Z"/>
   </g>
  </g>
  <g class="com.sun.star.drawing.PolyPolygonShape">
   <g id="id8">
    <rect class="BoundingBox" stroke="none" fill="none" x="56083" y="14581" width="146" height="98"/>
    <path fill="rgb(0,0,0)" stroke="none" d="M 56195,14603 L 56191,14604 56187,14604 56184,14604 56180,14603 56176,14602 56173,14600 56169,14599 56166,14597 56161,14593 56154,14589 56148,14587 56142,14584 56135,14581 56129,14581 56124,14582 56121,14584 56117,14584 56114,14584 56109,14585 56104,14588 56100,14590 56096,14593 56092,14597 56089,14601 56087,14606 56086,14611 56084,14618 56083,14626 56083,14634 56084,14642 56087,14646 56090,14650 56092,14655 56094,14661 56098,14665 56104,14669 56109,14673 56115,14676 56122,14677 56129,14678 56136,14677 56142,14676 56146,14674 56150,14673 56155,14673 56159,14673 56163,14673 56167,14673 56172,14674 56176,14675 56181,14677 56186,14678 56191,14678 56196,14677 56201,14676 56206,14674 56210,14672 56214,14669 56216,14663 56219,14658 56222,14652 56225,14647 56226,14645 56227,14642 56228,14640 56228,14637 56228,14634 56227,14631 56226,14629 56225,14626 56223,14621 56220,14616 56216,14611 56212,14607 56208,14604 56204,14603 56199,14603 56195,14603 Z"/>
   </g>
  </g>
  <g class="com.sun.star.drawing.PolyPolygonShape">
   <g id="id9">
    <rect class="BoundingBox" stroke="none" fill="none" x="56339" y="14146" width="217" height="244"/>
    <path fill="rgb(0,0,0)" stroke="none" d="M 56514,14389 L 56520,14383 56525,14377 56530,14370 56534,14363 56538,14361 56542,14358 56545,14355 56547,14351 56549,14347 56550,14343 56550,14338 56549,14333 56548,14330 56548,14327 56549,14324 56551,14321 56551,14317 56551,14313 56553,14309 56554,14305 56555,14298 56555,14292 56555,14285 56554,14279 56553,14272 56551,14266 56549,14260 56546,14254 56537,14238 56530,14221 56523,14203 56518,14185 56516,14181 56514,14177 56511,14173 56508,14170 56504,14167 56500,14165 56495,14164 56491,14163 56483,14163 56475,14163 56472,14164 56468,14165 56465,14165 56461,14165 56458,14165 56454,14164 56451,14162 56448,14160 56446,14158 56443,14157 56441,14157 56437,14156 56433,14153 56428,14150 56424,14147 56418,14146 56413,14146 56408,14147 56403,14149 56399,14152 56392,14159 56385,14166 56380,14174 56377,14183 56375,14188 56375,14193 56374,14198 56375,14203 56375,14206 56374,14210 56373,14213 56371,14216 56366,14221 56361,14226 56357,14232 56353,14237 56349,14243 56346,14249 56343,14256 56340,14262 56339,14265 56339,14268 56339,14270 56339,14273 56340,14276 56341,14278 56343,14281 56345,14282 56355,14302 56366,14322 56367,14325 56369,14328 56372,14331 56374,14333 56377,14335 56381,14337 56385,14337 56388,14337 56395,14337 56402,14338 56409,14341 56415,14344 56421,14347 56427,14351 56432,14356 56437,14361 56441,14364 56445,14367 56449,14369 56453,14371 56457,14372 56462,14373 56466,14374 56471,14374 56477,14374 56482,14375 56488,14376 56493,14378 56499,14380 56504,14382 56509,14385 56514,14389 Z"/>
   </g>
  </g>
  <g class="com.sun.star.drawing.PolyPolygonShape">
   <g id="id10">
    <rect class="BoundingBox" stroke="none" fill="none" x="56363" y="14474" width="88" height="102"/>
    <path fill="rgb(0,0,0)" stroke="none" d="M 56367,14517 L 56368,14520 56370,14524 56370,14528 56371,14531 56371,14535 56370,14539 56369,14543 56368,14546 56367,14549 56366,14552 56366,14556 56366,14559 56367,14562 56368,14565 56369,14568 56371,14571 56376,14573 56382,14574 56388,14575 56393,14575 56400,14575 56405,14574 56411,14572 56416,14570 56420,14571 56423,14570 56426,14569 56429,14568 56433,14565 56436,14561 56439,14558 56442,14554 56444,14550 56446,14546 56448,14541 56449,14537 56449,14526 56450,14514 56449,14510 56448,14505 56446,14500 56442,14497 56437,14494 56432,14492 56427,14490 56421,14488 56417,14487 56413,14485 56409,14483 56406,14480 56403,14478 56400,14476 56396,14475 56392,14474 56389,14474 56386,14475 56382,14476 56379,14478 56374,14481 56370,14486 56366,14491 56364,14497 56363,14502 56363,14508 56364,14513 56367,14517 Z"/>
   </g>
  </g>
  <g class="com.sun.star.drawing.PolyPolygonShape">
   <g id="id11">
    <rect class="BoundingBox" stroke="none" fill="none" x="56290" y="13819" width="210" height="224"/>
    <path fill="rgb(0,0,0)" stroke="none" d="M 56401,14039 L 56406,14041 56412,14042 56417,14042 56423,14042 56428,14040 56434,14038 56438,14035 56443,14031 56465,13993 56489,13957 56491,13953 56492,13949 56494,13945 56494,13940 56498,13913 56499,13906 56499,13899 56498,13892 56497,13885 56495,13879 56492,13871 56489,13865 56485,13859 56479,13852 56473,13845 56465,13839 56457,13834 56443,13825 56440,13824 56437,13824 56434,13824 56431,13825 56429,13826 56427,13827 56425,13827 56423,13827 56420,13826 56418,13825 56416,13824 56415,13823 56409,13821 56404,13820 56398,13819 56392,13819 56386,13819 56381,13819 56375,13820 56369,13822 56364,13823 56358,13826 56353,13828 56348,13831 56344,13835 56339,13838 56335,13842 56331,13847 56325,13854 56318,13862 56313,13870 56307,13880 56302,13889 56298,13898 56294,13907 56291,13917 56290,13922 56290,13927 56290,13932 56291,13937 56292,13942 56294,13947 56297,13951 56299,13956 56307,13964 56313,13973 56320,13982 56325,13992 56332,13998 56340,14004 56348,14009 56356,14014 56369,14023 56382,14032 56386,14035 56391,14037 56396,14038 56401,14039 Z"/>
   </g>
  </g>
  <g class="com.sun.star.drawing.PolyPolygonShape">
   <g id="id12">
    <rect class="BoundingBox" stroke="none" fill="none" x="56506" y="13681" width="102" height="107"/>
    <path fill="rgb(0,0,0)" stroke="none" d="M 56576,13781 L 56580,13776 56584,13772 56588,13770 56593,13768 56597,13765 56600,13762 56603,13758 56605,13754 56606,13750 56607,13745 56607,13741 56607,13736 56607,13730 56607,13724 56606,13719 56605,13713 56603,13707 56602,13702 56599,13697 56596,13692 56595,13689 56592,13687 56590,13685 56587,13683 56584,13682 56581,13681 56578,13681 56575,13682 56561,13684 56559,13683 56557,13683 56555,13683 56553,13684 56551,13686 56549,13687 56548,13689 56548,13691 56543,13693 56537,13695 56532,13698 56527,13701 56523,13704 56518,13708 56514,13711 56510,13716 56508,13720 56507,13724 56506,13728 56506,13732 56506,13737 56506,13741 56507,13746 56508,13750 56511,13759 56516,13767 56520,13770 56524,13774 56528,13776 56532,13779 56537,13782 56542,13784 56547,13785 56553,13786 56559,13787 56565,13786 56571,13784 56576,13781 Z"/>
   </g>
  </g>
 </g>
</svg>