<?xml version="1.0" encoding="UTF-8"?>
<!DOCTYPE svg PUBLIC "-//W3C//DTD SVG 1.1//EN" "http://www.w3.org/Graphics/SVG/1.1/DTD/svg11.dtd">
<svg version="1.2" width="28.6mm" height="25.02mm" viewBox="10870 12500 2860 2502" preserveAspectRatio="xMidYMid" fill-rule="evenodd" stroke-width="28.222" stroke-linejoin="round" xmlns="http://www.w3.org/2000/svg" xmlns:ooo="http://xml.openoffice.org/svg/export" xmlns:xlink="http://www.w3.org/1999/xlink" xmlns:presentation="http://sun.com/xmlns/staroffice/presentation" xmlns:smil="http://www.w3.org/2001/SMIL20/" xmlns:anim="urn:oasis:names:tc:opendocument:xmlns:animation:1.0" xml:space="preserve">
 <defs class="EmbeddedBulletChars">
  <g id="bullet-char-template-57356" transform="scale(0.00048828125,-0.00048828125)">
   <path d="M 580,1141 L 1163,571 580,0 -4,571 580,1141 Z"/>
  </g>
  <g id="bullet-char-template-57354" transform="scale(0.00048828125,-0.00048828125)">
   <path d="M 8,1128 L 1137,1128 1137,0 8,0 8,1128 Z"/>
  </g>
  <g id="bullet-char-template-10146" transform="scale(0.00048828125,-0.00048828125)">
   <path d="M 174,0 L 602,739 174,1481 1456,739 174,0 Z M 1358,739 L 309,1346 659,739 1358,739 Z"/>
  </g>
  <g id="bullet-char-template-10132" transform="scale(0.00048828125,-0.00048828125)">
   <path d="M 2015,739 L 1276,0 717,0 1260,543 174,543 174,936 1260,936 717,1481 1274,1481 2015,739 Z"/>
  </g>
  <g id="bullet-char-template-10007" transform="scale(0.00048828125,-0.00048828125)">
   <path d="M 0,-2 C -7,14 -16,27 -25,37 L 356,567 C 262,823 215,952 215,954 215,979 228,992 255,992 264,992 276,990 289,987 310,991 331,999 354,1012 L 381,999 492,748 772,1049 836,1024 860,1049 C 881,1039 901,1025 922,1006 886,937 835,863 770,784 769,783 710,716 594,584 L 774,223 C 774,196 753,168 711,139 L 727,119 C 717,90 699,76 672,76 641,76 570,178 457,381 L 164,-76 C 142,-110 111,-127 72,-127 30,-127 9,-110 8,-76 1,-67 -2,-52 -2,-32 -2,-23 -1,-13 0,-2 Z"/>
  </g>
  <g id="bullet-char-template-10004" transform="scale(0.00048828125,-0.00048828125)">
   <path d="M 285,-33 C 182,-33 111,30 74,156 52,228 41,333 41,471 41,549 55,616 82,672 116,743 169,778 240,778 293,778 328,747 346,684 L 369,508 C 377,444 397,411 428,410 L 1163,1116 C 1174,1127 1196,1133 1229,1133 1271,1133 1292,1118 1292,1087 L 1292,965 C 1292,929 1282,901 1262,881 L 442,47 C 390,-6 338,-33 285,-33 Z"/>
  </g>
  <g id="bullet-char-template-9679" transform="scale(0.00048828125,-0.00048828125)">
   <path d="M 813,0 C 632,0 489,54 383,161 276,268 223,411 223,592 223,773 276,916 383,1023 489,1130 632,1184 813,1184 992,1184 1136,1130 1245,1023 1353,916 1407,772 1407,592 1407,412 1353,268 1245,161 1136,54 992,0 813,0 Z"/>
  </g>
  <g id="bullet-char-template-8226" transform="scale(0.00048828125,-0.00048828125)">
   <path d="M 346,457 C 273,457 209,483 155,535 101,586 74,649 74,723 74,796 101,859 155,911 209,963 273,989 346,989 419,989 480,963 531,910 582,859 608,796 608,723 608,648 583,586 532,535 482,483 420,457 346,457 Z"/>
  </g>
  <g id="bullet-char-template-8211" transform="scale(0.00048828125,-0.00048828125)">
   <path d="M -4,459 L 1135,459 1135,606 -4,606 -4,459 Z"/>
  </g>
  <g id="bullet-char-template-61548" transform="scale(0.00048828125,-0.00048828125)">
   <path d="M 173,740 C 173,903 231,1043 346,1159 462,1274 601,1332 765,1332 928,1332 1067,1274 1183,1159 1299,1043 1357,903 1357,740 1357,577 1299,437 1183,322 1067,206 928,148 765,148 601,148 462,206 346,322 231,437 173,577 173,740 Z"/>
  </g>
 </defs>
 <g class="Page">
  <g class="com.sun.star.drawing.PolyPolygonShape">
   <g id="id3">
    <rect class="BoundingBox" stroke="none" fill="none" x="10870" y="12500" width="2860" height="2502"/>
    <path fill="rgb(255,0,0)" stroke="none" d="M 12192,12561 L 10888,14814 10884,14821 10881,14829 10878,14836 10876,14844 10874,14852 10872,14860 10872,14868 10871,14876 10872,14884 10872,14892 10874,14900 10876,14908 10878,14916 10881,14924 10884,14931 10888,14938 10892,14945 10897,14952 10902,14958 10908,14964 10914,14970 10920,14975 10927,14980 10934,14984 10941,14988 10948,14991 10956,14994 10963,14996 10971,14998 10979,14999 10988,15000 10996,15001 13604,15001 13612,15000 13621,14999 13629,14998 13637,14996 13644,14994 13652,14991 13659,14988 13667,14984 13674,14980 13680,14975 13686,14970 13692,14964 13698,14958 13703,14952 13708,14945 13712,14938 13716,14931 13719,14924 13722,14916 13724,14908 13726,14900 13728,14892 13728,14884 13729,14876 13728,14868 13728,14860 13726,14852 13724,14844 13722,14836 13719,14829 13716,14821 13712,14814 12407,12561 12403,12555 12398,12548 12393,12542 12387,12536 12381,12530 12375,12525 12368,12520 12362,12516 12354,12512 12347,12509 12339,12506 12332,12504 12324,12502 12316,12501 12308,12500 12300,12500 12291,12500 12283,12501 12275,12502 12267,12504 12260,12506 12252,12509 12245,12512 12238,12516 12231,12520 12224,12525 12218,12530 12212,12536 12206,12542 12201,12548 12196,12555 12192,12561 Z"/>
   </g>
  </g>
  <g class="com.sun.star.drawing.PolyPolygonShape">
   <g id="id4">
    <rect class="BoundingBox" stroke="none" fill="none" x="11307" y="12982" width="1987" height="1716"/>
    <path fill="rgb(255,255,255)" stroke="none" d="M 13293,14697 L 12300,12982 11307,14697 13293,14697 Z"/>
   </g>
  </g>
  <g class="com.sun.star.drawing.PolyPolygonShape">
   <g id="id5">
    <rect class="BoundingBox" stroke="none" fill="none" x="11979" y="13646" width="829" height="917"/>
    <path fill="rgb(0,0,0)" stroke="none" d="M 12333,14223 L 12319,14230 12305,14237 12291,14242 12276,14247 12261,14250 12246,14252 12230,14254 12215,14255 12199,14254 12184,14252 12169,14250 12154,14246 12139,14242 12125,14236 12111,14230 12097,14223 12084,14215 12071,14206 12059,14196 12048,14185 12037,14174 12028,14161 12019,14149 12011,14135 12003,14122 11997,14108 11991,14093 11987,14078 11984,14063 11981,14048 11979,14033 11979,14017 11979,13714 12080,13646 12181,13714 12181,14017 12182,14022 12183,14026 12184,14030 12186,14034 12188,14038 12191,14041 12195,14044 12198,14047 12202,14048 12206,14050 12211,14051 12215,14051 12220,14051 12224,14050 12228,14048 12232,14047 12452,13920 12465,13913 12479,13907 12494,13901 12509,13897 12524,13893 12539,13891 12554,13889 12570,13889 12585,13889 12600,13891 12616,13893 12631,13897 12645,13901 12660,13907 12674,13913 12688,13920 12701,13929 12713,13938 12725,13947 12737,13958 12747,13969 12757,13981 12766,13994 12774,14007 12781,14020 12788,14035 12793,14049 12798,14064 12801,14079 12805,14094 12806,14109 12807,14125 12807,14562 12704,14494 12603,14562 12603,14125 12603,14121 12602,14116 12601,14112 12599,14108 12596,14104 12593,14101 12590,14098 12586,14096 12582,14094 12578,14092 12574,14091 12569,14091 12565,14091 12561,14092 12557,14094 12553,14096 12333,14223 Z"/>
   </g>
  </g>
 </g>
</svg>