<?xml version="1.0" encoding="UTF-8"?>
<!DOCTYPE svg PUBLIC "-//W3C//DTD SVG 1.1//EN" "http://www.w3.org/Graphics/SVG/1.1/DTD/svg11.dtd">
<svg version="1.2" width="28.51mm" height="25.02mm" viewBox="61875 12500 2851 2502" preserveAspectRatio="xMidYMid" fill-rule="evenodd" stroke-width="28.222" stroke-linejoin="round" xmlns="http://www.w3.org/2000/svg" xmlns:ooo="http://xml.openoffice.org/svg/export" xmlns:xlink="http://www.w3.org/1999/xlink" xmlns:presentation="http://sun.com/xmlns/staroffice/presentation" xmlns:smil="http://www.w3.org/2001/SMIL20/" xmlns:anim="urn:oasis:names:tc:opendocument:xmlns:animation:1.0" xml:space="preserve">
 <defs class="EmbeddedBulletChars">
  <g id="bullet-char-template-57356" transform="scale(0.00048828125,-0.00048828125)">
   <path d="M 580,1141 L 1163,571 580,0 -4,571 580,1141 Z"/>
  </g>
  <g id="bullet-char-template-57354" transform="scale(0.00048828125,-0.00048828125)">
   <path d="M 8,1128 L 1137,1128 1137,0 8,0 8,1128 Z"/>
  </g>
  <g id="bullet-char-template-10146" transform="scale(0.00048828125,-0.00048828125)">
   <path d="M 174,0 L 602,739 174,1481 1456,739 174,0 Z M 1358,739 L 309,1346 659,739 1358,739 Z"/>
  </g>
  <g id="bullet-char-template-10132" transform="scale(0.00048828125,-0.00048828125)">
   <path d="M 2015,739 L 1276,0 717,0 1260,543 174,543 174,936 1260,936 717,1481 1274,1481 2015,739 Z"/>
  </g>
  <g id="bullet-char-template-10007" transform="scale(0.00048828125,-0.00048828125)">
   <path d="M 0,-2 C -7,14 -16,27 -25,37 L 356,567 C 262,823 215,952 215,954 215,979 228,992 255,992 264,992 276,990 289,987 310,991 331,999 354,1012 L 381,999 492,748 772,1049 836,1024 860,1049 C 881,1039 901,1025 922,1006 886,937 835,863 770,784 769,783 710,716 594,584 L 774,223 C 774,196 753,168 711,139 L 727,119 C 717,90 699,76 672,76 641,76 570,178 457,381 L 164,-76 C 142,-110 111,-127 72,-127 30,-127 9,-110 8,-76 1,-67 -2,-52 -2,-32 -2,-23 -1,-13 0,-2 Z"/>
  </g>
  <g id="bullet-char-template-10004" transform="scale(0.00048828125,-0.00048828125)">
   <path d="M 285,-33 C 182,-33 111,30 74,156 52,228 41,333 41,471 41,549 55,616 82,672 116,743 169,778 240,778 293,778 328,747 346,684 L 369,508 C 377,444 397,411 428,410 L 1163,1116 C 1174,1127 1196,1133 1229,1133 1271,1133 1292,1118 1292,1087 L 1292,965 C 1292,929 1282,901 1262,881 L 442,47 C 390,-6 338,-33 285,-33 Z"/>
  </g>
  <g id="bullet-char-template-9679" transform="scale(0.00048828125,-0.00048828125)">
   <path d="M 813,0 C 632,0 489,54 383,161 276,268 223,411 223,592 223,773 276,916 383,1023 489,1130 632,1184 813,1184 992,1184 1136,1130 1245,1023 1353,916 1407,772 1407,592 1407,412 1353,268 1245,161 1136,54 992,0 813,0 Z"/>
  </g>
  <g id="bullet-char-template-8226" transform="scale(0.00048828125,-0.00048828125)">
   <path d="M 346,457 C 273,457 209,483 155,535 101,586 74,649 74,723 74,796 101,859 155,911 209,963 273,989 346,989 419,989 480,963 531,910 582,859 608,796 608,723 608,648 583,586 532,535 482,483 420,457 346,457 Z"/>
  </g>
  <g id="bullet-char-template-8211" transform="scale(0.00048828125,-0.00048828125)">
   <path d="M -4,459 L 1135,459 1135,606 -4,606 -4,459 Z"/>
  </g>
  <g id="bullet-char-template-61548" transform="scale(0.00048828125,-0.00048828125)">
   <path d="M 173,740 C 173,903 231,1043 346,1159 462,1274 601,1332 765,1332 928,1332 1067,1274 1183,1159 1299,1043 1357,903 1357,740 1357,577 1299,437 1183,322 1067,206 928,148 765,148 601,148 462,206 346,322 231,437 173,577 173,740 Z"/>
  </g>
 </defs>
 <g class="Page">
  <g class="com.sun.star.drawing.PolyPolygonShape">
   <g id="id3">
    <rect class="BoundingBox" stroke="none" fill="none" x="61875" y="12500" width="2851" height="2502"/>
    <path fill="rgb(255,0,0)" stroke="none" d="M 63192,12561 L 61891,14815 61888,14822 61884,14829 61882,14837 61879,14845 61877,14852 61876,14860 61875,14868 61875,14877 61875,14885 61876,14893 61877,14901 61879,14909 61882,14916 61884,14924 61888,14931 61891,14939 61896,14945 61900,14952 61906,14958 61911,14964 61917,14970 61923,14975 61930,14980 61937,14984 61944,14988 61951,14991 61959,14994 61967,14996 61975,14998 61983,14999 61991,15000 61999,15001 64601,15001 64609,15000 64617,14999 64625,14998 64633,14996 64641,14994 64649,14991 64656,14988 64663,14984 64670,14980 64677,14975 64683,14970 64689,14964 64694,14958 64700,14952 64704,14945 64709,14939 64712,14931 64716,14924 64719,14916 64721,14909 64723,14901 64724,14893 64725,14885 64725,14877 64725,14868 64724,14860 64723,14852 64721,14845 64719,14837 64716,14829 64712,14822 64709,14815 63407,12561 63403,12555 63398,12548 63393,12542 63387,12536 63381,12530 63375,12525 63368,12520 63362,12516 63354,12512 63347,12509 63339,12506 63332,12504 63324,12502 63316,12501 63308,12500 63299,12500 63291,12500 63283,12501 63275,12502 63267,12504 63260,12506 63252,12509 63245,12512 63237,12516 63231,12520 63224,12525 63218,12530 63212,12536 63206,12542 63201,12548 63196,12555 63192,12561 Z"/>
   </g>
  </g>
  <g class="com.sun.star.drawing.PolyPolygonShape">
   <g id="id4">
    <rect class="BoundingBox" stroke="none" fill="none" x="62309" y="12982" width="1984" height="1717"/>
    <path fill="rgb(255,255,255)" stroke="none" d="M 64291,14698 L 63301,12982 62309,14698 64291,14698 Z"/>
   </g>
  </g>
  <g class="com.sun.star.drawing.PolyPolygonShape">
   <g id="id5">
    <rect class="BoundingBox" stroke="none" fill="none" x="62693" y="13505" width="1215" height="1059"/>
    <path fill="rgb(0,0,0)" stroke="none" d="M 63509,13960 L 63521,13960 63532,13960 63543,13960 63555,13962 63553,13953 63551,13944 63549,13936 63545,13928 63541,13920 63537,13912 63532,13905 63526,13898 63521,13905 63517,13912 63513,13920 63511,13927 63509,13936 63508,13944 63508,13952 63509,13960 Z M 63107,14152 L 63106,14147 63105,14142 63105,14136 63105,14131 63106,14126 63107,14121 63108,14116 63110,14111 63115,14115 63121,14120 63126,14125 63131,14131 63135,14136 63139,14142 63142,14149 63145,14155 63148,14162 63150,14169 63152,14176 63153,14183 63153,14190 63154,14197 63153,14204 63152,14211 63135,14217 63126,14205 63119,14193 63112,14180 63107,14167 63106,14163 63106,14159 63106,14156 63107,14152 Z M 63126,14345 L 63086,14296 63082,14298 63079,14301 63076,14305 63074,14309 63073,14313 63073,14318 63074,14322 63075,14326 63078,14339 63081,14352 63085,14364 63091,14375 63095,14385 63099,14395 63103,14405 63106,14416 63109,14426 63111,14437 63113,14448 63115,14458 63117,14462 63120,14465 63122,14469 63124,14473 63125,14477 63126,14481 63127,14486 63127,14490 63113,14505 63107,14501 63083,14529 63172,14529 63146,14514 63150,14501 63152,14498 63153,14497 63155,14495 63157,14493 63160,14492 63162,14492 63165,14492 63167,14492 63174,14492 63182,14492 63189,14491 63196,14490 63203,14488 63209,14485 63216,14481 63222,14477 63227,14473 63232,14467 63237,14462 63241,14456 63245,14449 63247,14443 63250,14436 63251,14429 63252,14428 63254,14427 63256,14426 63258,14426 63303,14233 63300,14233 63299,14233 63297,14232 63295,14231 63294,14229 63293,14228 63292,14226 63292,14224 63292,14217 63293,14210 63295,14203 63296,14196 63298,14189 63301,14183 63303,14176 63307,14170 63317,14144 63327,14117 63335,14090 63343,14063 63345,14056 63345,14048 63346,14041 63346,14034 63345,14026 63344,14019 63343,14012 63341,14005 63325,13976 63256,14058 63252,14057 63194,14103 63198,14114 63201,14125 63205,14136 63208,14148 63210,14159 63212,14171 63214,14182 63216,14193 63229,14188 63237,14194 63245,14201 63252,14210 63258,14219 63263,14228 63266,14238 63268,14249 63269,14260 63269,14263 63269,14266 63268,14271 63266,14274 63264,14276 63262,14279 63259,14281 63256,14282 63152,14346 63149,14349 63146,14350 63142,14351 63138,14352 63135,14351 63132,14350 63128,14348 63126,14345 Z M 62999,14293 L 62999,14300 62999,14307 63000,14314 63001,14322 63003,14329 63004,14336 63007,14343 63009,14350 63012,14356 63015,14363 63019,14369 63022,14375 63026,14381 63031,14387 63036,14393 63041,14398 63044,14403 63047,14409 63050,14415 63053,14421 63055,14427 63057,14433 63058,14439 63059,14446 63060,14450 63061,14454 63061,14457 63061,14461 63061,14465 63060,14469 63059,14473 63058,14477 63056,14480 63054,14484 63051,14487 63049,14490 63046,14493 63043,14495 63040,14497 63036,14499 63032,14501 63027,14504 63024,14507 63020,14511 63017,14515 63015,14520 63013,14524 63012,14529 62961,14529 62964,14520 62965,14511 62965,14501 62964,14492 62971,14345 62972,14338 62973,14331 62975,14324 62977,14317 62979,14311 62983,14305 62987,14298 62991,14293 62999,14293 Z M 63444,14260 L 63419,14229 63400,14255 63379,14253 63319,14435 63322,14435 63312,14459 63304,14483 63307,14494 63308,14506 63308,14517 63307,14529 63527,14529 63525,14528 63524,14527 63523,14525 63522,14523 63521,14522 63521,14520 63521,14518 63522,14516 63523,14514 63524,14513 63526,14511 63528,14510 63529,14510 63531,14510 63533,14510 63535,14510 63540,14505 63545,14501 63552,14498 63558,14496 63560,14489 63561,14482 63564,14475 63567,14468 63570,14462 63574,14456 63579,14450 63584,14444 63583,14440 63583,14437 63581,14433 63580,14430 63565,14405 63549,14381 63532,14357 63514,14334 63496,14316 63479,14298 63463,14278 63448,14258 63444,14260 Z M 62940,14139 L 62852,14186 62851,14184 62850,14182 62848,14180 62847,14179 62845,14178 62843,14178 62840,14178 62838,14179 62836,14180 62835,14181 62833,14183 62832,14185 62832,14187 62832,14189 62832,14191 62833,14193 62834,14198 62834,14203 62833,14207 62832,14212 62831,14216 62828,14220 62826,14224 62822,14227 62821,14229 62820,14230 62818,14231 62816,14232 62814,14231 62813,14231 62811,14230 62810,14228 62806,14224 62802,14220 62799,14216 62796,14211 62794,14206 62792,14201 62791,14195 62790,14190 62790,14184 62791,14177 62793,14172 62796,14166 62802,14160 62808,14155 62814,14150 62822,14147 62822,14143 62950,14051 62952,14039 62954,14029 62958,14018 62962,14007 62967,13997 62973,13987 62980,13978 62987,13969 62984,13966 62982,13962 62980,13958 62978,13954 62977,13950 62976,13946 62975,13941 62975,13937 62970,13939 62965,13939 62960,13939 62956,13937 62953,13935 62952,13931 62951,13928 62951,13924 62949,13915 62949,13906 62949,13897 62950,13887 62948,13878 62946,13869 62944,13860 62943,13851 62942,13842 62942,13833 62942,13824 62943,13815 62940,13811 62937,13806 62936,13801 62936,13796 62936,13791 62938,13786 62940,13782 62944,13778 62949,13774 62954,13771 62959,13769 62964,13767 62970,13766 62976,13764 62982,13764 62987,13764 62996,13764 63005,13764 63013,13766 63022,13767 63030,13770 63038,13772 63046,13776 63054,13780 63061,13784 63067,13790 63073,13796 63077,13802 63081,13810 63084,13818 63085,13826 63085,13834 63085,13838 63085,13841 63086,13844 63089,13847 63096,13852 63103,13857 63106,13847 63107,13837 63107,13834 63108,13832 63109,13830 63110,13828 63112,13826 63114,13825 63117,13823 63119,13823 63121,13822 63124,13823 63126,13823 63129,13824 63131,13825 63133,13827 63134,13829 63136,13831 63137,13835 63137,13840 63137,13845 63136,13849 63135,13854 63134,13858 63132,13862 63129,13866 63144,13877 63158,13890 63171,13903 63183,13918 63179,13925 63169,13919 63159,13915 63149,13911 63138,13909 63138,13918 63137,13921 63136,13924 63135,13927 63133,13930 63130,13932 63127,13933 63124,13934 63121,13934 63118,13934 63115,13933 63112,13931 63109,13929 63107,13927 63106,13924 63105,13921 63104,13918 63104,13913 63104,13909 63105,13905 63106,13900 63099,13898 63097,13897 63093,13897 63090,13897 63088,13898 63085,13900 63083,13902 63081,13904 63079,13907 63077,13911 63076,13916 63075,13920 63074,13925 63073,13929 63073,13934 63074,13938 63074,13943 63080,13949 63085,13955 63090,13961 63095,13967 63098,13968 63100,13969 63102,13971 63104,13973 63155,14047 63157,14051 63161,14054 63165,14056 63169,14057 63173,14057 63178,14056 63182,14053 63185,14050 63195,14031 63193,14025 63237,13960 63247,13947 63256,13934 63265,13921 63273,13907 63280,13892 63287,13878 63293,13863 63298,13847 63304,13835 63310,13823 63317,13811 63324,13800 63332,13790 63341,13779 63350,13769 63360,13760 63365,13755 63370,13750 63376,13745 63382,13742 63383,13738 63384,13734 63385,13730 63384,13726 63383,13722 63382,13718 63379,13715 63376,13712 63371,13711 63365,13710 63363,13710 63362,13710 63360,13709 63359,13708 63358,13707 63358,13705 63358,13703 63358,13702 63359,13697 63360,13693 63361,13690 63364,13686 63362,13684 63359,13683 63361,13666 63355,13664 63353,13663 63351,13661 63350,13659 63350,13657 63350,13650 63351,13644 63352,13637 63354,13631 63355,13627 63356,13622 63357,13617 63357,13612 63359,13604 63360,13595 63361,13585 63362,13576 63359,13571 63356,13565 63355,13559 63353,13553 63353,13547 63353,13541 63353,13535 63354,13529 63357,13524 63360,13520 63363,13517 63367,13513 63372,13511 63376,13509 63381,13507 63386,13506 63397,13505 63409,13505 63420,13505 63431,13507 63450,13512 63469,13517 63487,13524 63505,13531 63510,13533 63514,13535 63519,13537 63523,13540 63527,13543 63530,13547 63533,13551 63536,13555 63538,13560 63539,13564 63541,13569 63541,13574 63541,13579 63541,13584 63540,13589 63539,13594 63535,13603 63531,13612 63527,13621 63522,13630 63517,13638 63512,13646 63506,13654 63500,13662 63491,13676 63490,13681 63489,13686 63489,13690 63490,13695 63494,13706 63497,13716 63499,13727 63501,13738 63509,13741 63517,13746 63524,13750 63531,13756 63537,13761 63544,13767 63549,13774 63554,13781 63566,13796 63577,13811 63587,13826 63597,13842 63606,13858 63614,13875 63621,13892 63628,13909 63630,13915 63633,13922 63635,13928 63636,13935 63637,13941 63638,13948 63638,13955 63638,13962 63647,13963 63657,13963 63666,13963 63676,13963 63684,13977 63691,13991 63697,14007 63701,14022 63705,14038 63707,14054 63707,14071 63707,14087 63706,14096 63704,14105 63702,14113 63699,14121 63697,14124 63694,14127 63691,14129 63688,14131 63685,14132 63682,14134 63678,14134 63675,14134 63663,14136 63652,14137 63640,14137 63628,14138 63616,14137 63605,14137 63594,14135 63582,14134 63582,14138 63582,14142 63582,14146 63583,14149 63584,14153 63585,14157 63587,14161 63589,14164 63593,14171 63596,14177 63598,14184 63599,14192 63600,14199 63600,14206 63600,14214 63599,14221 63595,14227 63590,14233 63585,14238 63580,14243 63573,14247 63567,14250 63560,14253 63553,14254 63608,14373 63620,14387 63647,14417 63654,14425 63660,14433 63665,14442 63669,14452 63647,14477 63643,14476 63599,14529 63907,14529 63907,14563 62693,14563 62693,14529 62848,14529 62824,14520 62827,14511 62828,14508 62829,14506 62831,14504 62833,14503 62835,14501 62837,14501 62840,14500 62842,14500 62852,14499 62862,14498 62872,14496 62882,14494 62887,14493 62892,14491 62897,14488 62901,14484 62905,14480 62908,14476 62910,14470 62911,14465 62912,14441 62912,14417 62911,14394 62910,14370 62910,14348 62910,14327 62910,14322 62911,14317 62911,14312 62913,14308 62914,14303 62916,14298 62919,14294 62922,14290 62873,14290 62873,14280 62885,14263 62896,14247 62906,14230 62915,14213 62923,14195 62930,14177 62936,14158 62940,14139 Z"/>
   </g>
  </g>
 </g>
</svg>