<?xml version="1.0" encoding="UTF-8"?>
<!DOCTYPE svg PUBLIC "-//W3C//DTD SVG 1.1//EN" "http://www.w3.org/Graphics/SVG/1.1/DTD/svg11.dtd">
<svg version="1.2" width="28.52mm" height="25.02mm" viewBox="65274 12500 2852 2502" preserveAspectRatio="xMidYMid" fill-rule="evenodd" stroke-width="28.222" stroke-linejoin="round" xmlns="http://www.w3.org/2000/svg" xmlns:ooo="http://xml.openoffice.org/svg/export" xmlns:xlink="http://www.w3.org/1999/xlink" xmlns:presentation="http://sun.com/xmlns/staroffice/presentation" xmlns:smil="http://www.w3.org/2001/SMIL20/" xmlns:anim="urn:oasis:names:tc:opendocument:xmlns:animation:1.0" xml:space="preserve">
 <defs class="EmbeddedBulletChars">
  <g id="bullet-char-template-57356" transform="scale(0.00048828125,-0.00048828125)">
   <path d="M 580,1141 L 1163,571 580,0 -4,571 580,1141 Z"/>
  </g>
  <g id="bullet-char-template-57354" transform="scale(0.00048828125,-0.00048828125)">
   <path d="M 8,1128 L 1137,1128 1137,0 8,0 8,1128 Z"/>
  </g>
  <g id="bullet-char-template-10146" transform="scale(0.00048828125,-0.00048828125)">
   <path d="M 174,0 L 602,739 174,1481 1456,739 174,0 Z M 1358,739 L 309,1346 659,739 1358,739 Z"/>
  </g>
  <g id="bullet-char-template-10132" transform="scale(0.00048828125,-0.00048828125)">
   <path d="M 2015,739 L 1276,0 717,0 1260,543 174,543 174,936 1260,936 717,1481 1274,1481 2015,739 Z"/>
  </g>
  <g id="bullet-char-template-10007" transform="scale(0.00048828125,-0.00048828125)">
   <path d="M 0,-2 C -7,14 -16,27 -25,37 L 356,567 C 262,823 215,952 215,954 215,979 228,992 255,992 264,992 276,990 289,987 310,991 331,999 354,1012 L 381,999 492,748 772,1049 836,1024 860,1049 C 881,1039 901,1025 922,1006 886,937 835,863 770,784 769,783 710,716 594,584 L 774,223 C 774,196 753,168 711,139 L 727,119 C 717,90 699,76 672,76 641,76 570,178 457,381 L 164,-76 C 142,-110 111,-127 72,-127 30,-127 9,-110 8,-76 1,-67 -2,-52 -2,-32 -2,-23 -1,-13 0,-2 Z"/>
  </g>
  <g id="bullet-char-template-10004" transform="scale(0.00048828125,-0.00048828125)">
   <path d="M 285,-33 C 182,-33 111,30 74,156 52,228 41,333 41,471 41,549 55,616 82,672 116,743 169,778 240,778 293,778 328,747 346,684 L 369,508 C 377,444 397,411 428,410 L 1163,1116 C 1174,1127 1196,1133 1229,1133 1271,1133 1292,1118 1292,1087 L 1292,965 C 1292,929 1282,901 1262,881 L 442,47 C 390,-6 338,-33 285,-33 Z"/>
  </g>
  <g id="bullet-char-template-9679" transform="scale(0.00048828125,-0.00048828125)">
   <path d="M 813,0 C 632,0 489,54 383,161 276,268 223,411 223,592 223,773 276,916 383,1023 489,1130 632,1184 813,1184 992,1184 1136,1130 1245,1023 1353,916 1407,772 1407,592 1407,412 1353,268 1245,161 1136,54 992,0 813,0 Z"/>
  </g>
  <g id="bullet-char-template-8226" transform="scale(0.00048828125,-0.00048828125)">
   <path d="M 346,457 C 273,457 209,483 155,535 101,586 74,649 74,723 74,796 101,859 155,911 209,963 273,989 346,989 419,989 480,963 531,910 582,859 608,796 608,723 608,648 583,586 532,535 482,483 420,457 346,457 Z"/>
  </g>
  <g id="bullet-char-template-8211" transform="scale(0.00048828125,-0.00048828125)">
   <path d="M -4,459 L 1135,459 1135,606 -4,606 -4,459 Z"/>
  </g>
  <g id="bullet-char-template-61548" transform="scale(0.00048828125,-0.00048828125)">
   <path d="M 173,740 C 173,903 231,1043 346,1159 462,1274 601,1332 765,1332 928,1332 1067,1274 1183,1159 1299,1043 1357,903 1357,740 1357,577 1299,437 1183,322 1067,206 928,148 765,148 601,148 462,206 346,322 231,437 173,577 173,740 Z"/>
  </g>
 </defs>
 <g class="Page">
  <g class="com.sun.star.drawing.PolyPolygonShape">
   <g id="id3">
    <rect class="BoundingBox" stroke="none" fill="none" x="65274" y="12500" width="2852" height="2502"/>
    <path fill="rgb(255,0,0)" stroke="none" d="M 66592,12561 L 65291,14815 65288,14822 65284,14829 65282,14837 65279,14844 65277,14852 65276,14860 65275,14868 65275,14876 65275,14885 65276,14893 65277,14901 65279,14909 65282,14916 65284,14924 65288,14931 65291,14939 65296,14945 65300,14952 65306,14958 65311,14964 65317,14970 65323,14975 65330,14980 65337,14984 65344,14988 65351,14991 65359,14994 65367,14996 65375,14998 65383,14999 65391,15000 65399,15001 68001,15001 68009,15000 68017,14999 68025,14998 68033,14996 68041,14994 68049,14991 68056,14988 68063,14984 68070,14980 68077,14975 68083,14970 68089,14964 68094,14958 68100,14952 68104,14945 68109,14939 68112,14931 68116,14924 68119,14916 68121,14909 68123,14901 68124,14893 68125,14885 68125,14876 68125,14868 68124,14860 68123,14852 68121,14844 68119,14837 68116,14829 68112,14822 68109,14815 66807,12561 66803,12555 66798,12548 66793,12542 66787,12536 66781,12530 66775,12525 66768,12520 66762,12516 66754,12512 66747,12509 66739,12506 66732,12504 66724,12502 66716,12501 66708,12500 66699,12500 66691,12500 66683,12501 66675,12502 66667,12504 66660,12506 66652,12509 66645,12512 66637,12516 66631,12520 66624,12525 66618,12530 66612,12536 66606,12542 66601,12548 66596,12555 66592,12561 Z"/>
   </g>
  </g>
  <g class="com.sun.star.drawing.PolyPolygonShape">
   <g id="id4">
    <rect class="BoundingBox" stroke="none" fill="none" x="65709" y="12982" width="1983" height="1717"/>
    <path fill="rgb(255,255,255)" stroke="none" d="M 67691,14698 L 66701,12982 65709,14698 67691,14698 Z"/>
   </g>
  </g>
  <g class="com.sun.star.drawing.PolyPolygonShape">
   <g id="id5">
    <rect class="BoundingBox" stroke="none" fill="none" x="66231" y="13659" width="943" height="913"/>
    <path fill="rgb(0,0,0)" stroke="none" d="M 66877,14118 L 66888,14096 66864,14118 66877,14118 Z M 66711,14148 L 66686,14188 66670,14169 66711,14148 Z M 66742,14044 L 66744,14042 66746,14040 66748,14038 66749,14035 66751,14032 66751,14031 66756,14028 66760,14024 66762,14021 66764,14018 66767,14010 66768,14007 66769,14004 66769,14001 66769,13998 66767,13992 66766,13987 66765,13982 66766,13976 66765,13981 66763,13986 66761,13990 66757,13993 66696,14045 66691,14050 66685,14054 66679,14058 66672,14061 66661,14064 66650,14066 66650,14060 66637,14062 66632,14074 66617,14069 66615,14074 66613,14075 66611,14076 66609,14075 66608,14073 66608,14074 66608,14076 66608,14077 66607,14079 66606,14079 66604,14080 66603,14080 66601,14080 66597,14077 66592,14076 66582,14076 66571,14076 66561,14075 66551,14073 66537,14120 66587,14120 66742,14044 Z M 66960,14395 L 66961,14399 66961,14403 66963,14406 66965,14410 66967,14413 66969,14416 66972,14419 66975,14421 66979,14423 66982,14425 66986,14426 66990,14427 66994,14428 66997,14428 67001,14427 67005,14426 67009,14425 67012,14424 67016,14422 67019,14419 67022,14417 67024,14414 67027,14410 67029,14407 67030,14403 67031,14400 67032,14396 67032,14392 67032,14388 67031,14384 67030,14380 67029,14377 67136,14314 67140,14322 67143,14330 67147,14339 67149,14348 67152,14356 67153,14365 67155,14374 67155,14383 67156,14392 67155,14401 67154,14410 67153,14419 67151,14428 67149,14436 67146,14445 67143,14453 67139,14462 67135,14470 67130,14477 67125,14485 67120,14492 67114,14499 67108,14505 67101,14511 67094,14517 67087,14523 67079,14527 67072,14532 67064,14536 67055,14540 67047,14543 67038,14545 67029,14547 67021,14549 67012,14550 67003,14551 66994,14551 66985,14550 66976,14550 66967,14548 66958,14546 66949,14544 66941,14541 66932,14538 66924,14534 66916,14530 66909,14525 66901,14520 66894,14514 66887,14508 66881,14502 66875,14495 66869,14488 66864,14481 66859,14473 66855,14465 66851,14457 66847,14449 66844,14441 66842,14432 66839,14423 66838,14414 66837,14405 66836,14396 66960,14395 Z M 67151,14292 L 67143,14297 67135,14285 67125,14273 67115,14262 67103,14253 67091,14244 67078,14237 67064,14230 67050,14225 67036,14221 67021,14218 67006,14217 66991,14216 66976,14217 66962,14220 66947,14223 66933,14228 66930,14220 66944,14215 66960,14211 66975,14209 66991,14208 67007,14208 67022,14210 67038,14212 67053,14217 67068,14222 67082,14229 67096,14237 67108,14246 67120,14256 67132,14267 67142,14279 67151,14292 Z M 67130,14305 L 67024,14368 67020,14365 67016,14361 67012,14359 67008,14357 67003,14356 66998,14355 66993,14355 66988,14356 66939,14242 66952,14238 66965,14235 66979,14233 66992,14232 67006,14232 67019,14234 67032,14236 67046,14240 67058,14245 67071,14250 67082,14257 67093,14265 67104,14274 67113,14283 67122,14294 67130,14305 Z M 66677,14285 L 66577,14164 66574,14161 66572,14157 66571,14152 66570,14148 66570,14143 66571,14139 66572,14135 66574,14131 66534,14131 66524,14161 66677,14318 66677,14285 Z M 66591,14388 L 66582,14388 66582,14378 66580,14367 66578,14356 66575,14346 66572,14336 66568,14326 66563,14316 66558,14306 66552,14297 66546,14289 66539,14280 66532,14272 66524,14265 66516,14258 66507,14252 66498,14246 66500,14237 66510,14243 66519,14250 66528,14258 66537,14265 66545,14274 66552,14282 66559,14292 66565,14301 66571,14311 66575,14322 66580,14332 66583,14343 66586,14354 66589,14366 66590,14377 66591,14388 Z M 66429,14380 L 66431,14384 66433,14388 66567,14388 66566,14379 66565,14369 66563,14360 66560,14351 66558,14342 66554,14333 66550,14324 66546,14316 66541,14308 66535,14300 66529,14292 66523,14285 66516,14279 66509,14272 66501,14267 66493,14261 66482,14298 66479,14307 66475,14317 66470,14326 66466,14334 66460,14343 66454,14351 66448,14359 66442,14367 66429,14380 Z M 66976,14361 L 66928,14247 66918,14252 66908,14258 66899,14264 66891,14271 66883,14279 66875,14287 66868,14295 66862,14304 66856,14314 66851,14324 66847,14334 66843,14344 66841,14355 66838,14366 66837,14377 66836,14388 66960,14387 66961,14383 66962,14379 66963,14376 66965,14372 66967,14369 66970,14366 66973,14363 66976,14361 Z M 66918,14225 L 66922,14233 66911,14238 66900,14245 66890,14252 66881,14259 66872,14268 66864,14277 66856,14286 66849,14296 66843,14306 66837,14317 66832,14328 66828,14340 66825,14351 66823,14364 66822,14376 66821,14388 66812,14388 66813,14375 66814,14362 66817,14350 66820,14337 66824,14325 66829,14313 66835,14302 66842,14291 66849,14281 66857,14271 66866,14261 66875,14253 66885,14245 66896,14237 66907,14231 66918,14225 Z M 66805,14388 L 66786,14388 66785,14382 66783,14377 66782,14371 66779,14366 66776,14361 66772,14357 66768,14353 66763,14349 66880,14136 66915,14218 66903,14224 66892,14231 66881,14239 66871,14247 66861,14256 66852,14266 66843,14276 66836,14287 66829,14299 66823,14310 66818,14323 66813,14335 66810,14348 66807,14361 66806,14374 66805,14388 Z M 66750,14282 L 66749,14276 66749,14268 66750,14261 66751,14255 66753,14248 66756,14241 66759,14235 66763,14229 66856,14129 66871,14128 66753,14345 66750,14282 Z M 66420,14372 L 66434,14359 66440,14352 66446,14345 66451,14337 66456,14329 66461,14321 66465,14312 66468,14304 66472,14295 66484,14256 66472,14250 66460,14245 66448,14241 66435,14238 66422,14237 66409,14236 66396,14237 66383,14238 66370,14240 66358,14244 66346,14248 66334,14254 66323,14260 66312,14268 66302,14276 66293,14285 66284,14294 66276,14305 66268,14316 66262,14327 66257,14339 66253,14351 66250,14364 66248,14377 66247,14390 66247,14403 66248,14416 66250,14428 66253,14441 66257,14453 66263,14465 66269,14476 66277,14487 66285,14498 66293,14507 66303,14516 66313,14524 66324,14532 66335,14538 66347,14543 66359,14548 66371,14551 66384,14553 66397,14555 66410,14555 66423,14554 66436,14553 66448,14550 66461,14546 66473,14541 66485,14535 66496,14529 66506,14521 66516,14513 66525,14503 66533,14493 66541,14483 66548,14472 66553,14460 66558,14448 66562,14436 66564,14423 66566,14410 66567,14397 66434,14397 66433,14401 66432,14405 66430,14409 66428,14413 66425,14416 66421,14418 66417,14420 66413,14422 66409,14422 66405,14422 66400,14421 66396,14420 66393,14418 66389,14415 66386,14412 66384,14408 66382,14405 66381,14400 66381,14396 66381,14392 66382,14388 66384,14384 66386,14380 66389,14377 66392,14374 66396,14372 66400,14370 66404,14369 66408,14369 66412,14369 66416,14371 66420,14372 Z M 66503,14230 L 66520,14175 66677,14335 66677,14441 66712,14441 66712,14444 66712,14446 66711,14449 66709,14452 66707,14454 66705,14456 66703,14457 66700,14458 66672,14463 66670,14464 66667,14465 66666,14467 66665,14469 66664,14478 66703,14478 66706,14478 66709,14477 66712,14476 66715,14475 66715,14482 66734,14482 66734,14480 66755,14480 66755,14476 66756,14472 66755,14468 66755,14464 66752,14460 66751,14455 66750,14450 66751,14445 66753,14439 66759,14436 66765,14432 66770,14428 66775,14423 66779,14417 66782,14410 66784,14404 66785,14397 66805,14397 66806,14408 66813,14408 66812,14397 66821,14397 66821,14406 66823,14416 66824,14426 66826,14436 66829,14445 66832,14454 66836,14464 66841,14473 66846,14481 66851,14489 66857,14498 66863,14505 66870,14513 66877,14520 66884,14526 66892,14532 66900,14538 66908,14543 66917,14548 66926,14552 66935,14556 66945,14559 66954,14561 66964,14564 66974,14565 66983,14566 66993,14567 67003,14566 67013,14566 67023,14564 67033,14562 67042,14560 67052,14557 67061,14554 67070,14550 67079,14545 67088,14541 67096,14535 67104,14529 67111,14523 67119,14516 67126,14509 67132,14501 67138,14494 67144,14485 67149,14477 67153,14468 67157,14459 67161,14450 67164,14441 67167,14431 67168,14421 67170,14412 67171,14402 67171,14392 67171,14382 67170,14372 67169,14362 67167,14352 67164,14343 67161,14333 67158,14324 67154,14315 67149,14306 67157,14302 67162,14313 67167,14324 67173,14320 67170,14312 67165,14303 67161,14295 67156,14287 67151,14279 67145,14272 67139,14265 67133,14258 67126,14252 67119,14246 67112,14240 67104,14234 67097,14229 67089,14224 67080,14220 67072,14216 67063,14213 67055,14210 67045,14207 67036,14205 67027,14203 67018,14202 67009,14201 67000,14201 66990,14201 66981,14201 66972,14202 66962,14203 66953,14205 66944,14207 66935,14210 66927,14213 66887,14122 66902,14094 66903,14092 66905,14091 66907,14089 66909,14089 66920,14088 66923,14087 66924,14084 66925,14081 66924,14078 66923,14076 66921,14074 66918,14073 66915,14073 66917,14069 66918,14065 66919,14060 66918,14055 66915,14039 66911,14023 66906,14007 66901,13991 66896,13976 66890,13960 66884,13945 66877,13930 66871,13917 66866,13904 66859,13892 66852,13879 66845,13867 66837,13855 66829,13843 66821,13832 66812,13821 66803,13810 66793,13800 66783,13790 66773,13780 66762,13771 66751,13762 66740,13753 66748,13752 66745,13746 66743,13741 66739,13736 66735,13731 66735,13723 66735,13715 66733,13707 66730,13699 66727,13691 66722,13684 66718,13677 66712,13671 66709,13668 66705,13665 66701,13663 66697,13661 66693,13660 66689,13659 66685,13659 66680,13659 66676,13659 66671,13660 66666,13662 66663,13665 66653,13676 66644,13687 66635,13698 66626,13710 66625,13712 66625,13715 66625,13718 66625,13720 66626,13723 66627,13725 66629,13727 66631,13729 66635,13730 66638,13732 66640,13736 66643,13740 66647,13743 66650,13746 66650,13751 66650,13756 66650,13761 66650,13766 66652,13768 66653,13769 66655,13769 66657,13768 66659,13767 66664,13774 66669,13774 66669,13781 66673,13783 66676,13786 66679,13790 66680,13794 66679,13795 66680,13797 66681,13798 66682,13798 66683,13798 66685,13797 66686,13796 66697,13784 66699,13783 66702,13783 66704,13784 66706,13786 66707,13788 66707,13791 66706,13793 66704,13795 66692,13809 66691,13827 66691,13845 66693,13862 66695,13880 66698,13897 66703,13914 66708,13931 66714,13947 66707,13959 66699,13970 66691,13981 66682,13991 66673,14001 66664,14011 66654,14020 66643,14029 66641,14030 66638,14031 66621,14030 66616,14029 66611,14030 66606,14033 66602,14036 66593,14045 66583,14054 66583,14057 66584,14060 66564,14060 66544,14058 66493,14225 66483,14220 66472,14216 66461,14213 66450,14210 66438,14207 66427,14206 66415,14205 66404,14205 66392,14205 66381,14207 66369,14209 66358,14211 66347,14215 66336,14219 66326,14223 66315,14229 66319,14234 66329,14229 66340,14225 66350,14221 66361,14218 66372,14215 66383,14214 66394,14213 66405,14212 66416,14212 66427,14213 66438,14215 66449,14217 66460,14220 66470,14223 66481,14227 66491,14232 66488,14240 66475,14234 66462,14229 66449,14225 66435,14223 66421,14221 66406,14221 66392,14221 66378,14223 66364,14226 66351,14230 66337,14235 66325,14241 66312,14248 66301,14257 66290,14266 66280,14276 66269,14286 66261,14298 66254,14310 66247,14322 66242,14336 66237,14349 66234,14363 66232,14377 66231,14391 66231,14405 66233,14419 66235,14433 66239,14447 66244,14460 66249,14473 66256,14486 66264,14498 66274,14509 66283,14519 66294,14529 66305,14538 66317,14545 66329,14552 66342,14558 66355,14563 66369,14567 66383,14569 66397,14571 66411,14571 66425,14570 66440,14568 66453,14565 66467,14560 66480,14555 66493,14549 66505,14541 66516,14533 66527,14524 66537,14513 66546,14502 66554,14491 66562,14479 66568,14466 66573,14453 66577,14439 66580,14425 66582,14411 66582,14397 66591,14397 66591,14406 66598,14406 66598,14393 66598,14380 66596,14367 66594,14354 66590,14341 66586,14329 66581,14317 66575,14305 66569,14294 66561,14283 66553,14272 66544,14263 66535,14254 66525,14245 66514,14237 66503,14230 Z"/>
   </g>
  </g>
 </g>
</svg>