<?xml version="1.0" encoding="UTF-8"?>
<!DOCTYPE svg PUBLIC "-//W3C//DTD SVG 1.1//EN" "http://www.w3.org/Graphics/SVG/1.1/DTD/svg11.dtd">
<svg version="1.2" width="28.52mm" height="25.02mm" viewBox="68574 12500 2852 2502" preserveAspectRatio="xMidYMid" fill-rule="evenodd" stroke-width="28.222" stroke-linejoin="round" xmlns="http://www.w3.org/2000/svg" xmlns:ooo="http://xml.openoffice.org/svg/export" xmlns:xlink="http://www.w3.org/1999/xlink" xmlns:presentation="http://sun.com/xmlns/staroffice/presentation" xmlns:smil="http://www.w3.org/2001/SMIL20/" xmlns:anim="urn:oasis:names:tc:opendocument:xmlns:animation:1.0" xml:space="preserve">
 <defs class="EmbeddedBulletChars">
  <g id="bullet-char-template-57356" transform="scale(0.00048828125,-0.00048828125)">
   <path d="M 580,1141 L 1163,571 580,0 -4,571 580,1141 Z"/>
  </g>
  <g id="bullet-char-template-57354" transform="scale(0.00048828125,-0.00048828125)">
   <path d="M 8,1128 L 1137,1128 1137,0 8,0 8,1128 Z"/>
  </g>
  <g id="bullet-char-template-10146" transform="scale(0.00048828125,-0.00048828125)">
   <path d="M 174,0 L 602,739 174,1481 1456,739 174,0 Z M 1358,739 L 309,1346 659,739 1358,739 Z"/>
  </g>
  <g id="bullet-char-template-10132" transform="scale(0.00048828125,-0.00048828125)">
   <path d="M 2015,739 L 1276,0 717,0 1260,543 174,543 174,936 1260,936 717,1481 1274,1481 2015,739 Z"/>
  </g>
  <g id="bullet-char-template-10007" transform="scale(0.00048828125,-0.00048828125)">
   <path d="M 0,-2 C -7,14 -16,27 -25,37 L 356,567 C 262,823 215,952 215,954 215,979 228,992 255,992 264,992 276,990 289,987 310,991 331,999 354,1012 L 381,999 492,748 772,1049 836,1024 860,1049 C 881,1039 901,1025 922,1006 886,937 835,863 770,784 769,783 710,716 594,584 L 774,223 C 774,196 753,168 711,139 L 727,119 C 717,90 699,76 672,76 641,76 570,178 457,381 L 164,-76 C 142,-110 111,-127 72,-127 30,-127 9,-110 8,-76 1,-67 -2,-52 -2,-32 -2,-23 -1,-13 0,-2 Z"/>
  </g>
  <g id="bullet-char-template-10004" transform="scale(0.00048828125,-0.00048828125)">
   <path d="M 285,-33 C 182,-33 111,30 74,156 52,228 41,333 41,471 41,549 55,616 82,672 116,743 169,778 240,778 293,778 328,747 346,684 L 369,508 C 377,444 397,411 428,410 L 1163,1116 C 1174,1127 1196,1133 1229,1133 1271,1133 1292,1118 1292,1087 L 1292,965 C 1292,929 1282,901 1262,881 L 442,47 C 390,-6 338,-33 285,-33 Z"/>
  </g>
  <g id="bullet-char-template-9679" transform="scale(0.00048828125,-0.00048828125)">
   <path d="M 813,0 C 632,0 489,54 383,161 276,268 223,411 223,592 223,773 276,916 383,1023 489,1130 632,1184 813,1184 992,1184 1136,1130 1245,1023 1353,916 1407,772 1407,592 1407,412 1353,268 1245,161 1136,54 992,0 813,0 Z"/>
  </g>
  <g id="bullet-char-template-8226" transform="scale(0.00048828125,-0.00048828125)">
   <path d="M 346,457 C 273,457 209,483 155,535 101,586 74,649 74,723 74,796 101,859 155,911 209,963 273,989 346,989 419,989 480,963 531,910 582,859 608,796 608,723 608,648 583,586 532,535 482,483 420,457 346,457 Z"/>
  </g>
  <g id="bullet-char-template-8211" transform="scale(0.00048828125,-0.00048828125)">
   <path d="M -4,459 L 1135,459 1135,606 -4,606 -4,459 Z"/>
  </g>
  <g id="bullet-char-template-61548" transform="scale(0.00048828125,-0.00048828125)">
   <path d="M 173,740 C 173,903 231,1043 346,1159 462,1274 601,1332 765,1332 928,1332 1067,1274 1183,1159 1299,1043 1357,903 1357,740 1357,577 1299,437 1183,322 1067,206 928,148 765,148 601,148 462,206 346,322 231,437 173,577 173,740 Z"/>
  </g>
 </defs>
 <g class="Page">
  <g class="com.sun.star.drawing.PolyPolygonShape">
   <g id="id3">
    <rect class="BoundingBox" stroke="none" fill="none" x="68574" y="12500" width="2852" height="2502"/>
    <path fill="rgb(255,0,0)" stroke="none" d="M 69893,12561 L 68591,14815 68588,14822 68584,14829 68581,14837 68579,14844 68577,14852 68576,14860 68575,14868 68575,14876 68575,14885 68576,14893 68577,14901 68579,14909 68581,14916 68584,14924 68588,14931 68591,14939 68596,14945 68600,14952 68606,14958 68611,14964 68617,14970 68623,14975 68630,14980 68637,14984 68644,14988 68651,14991 68659,14994 68667,14996 68675,14998 68683,14999 68691,15000 68699,15001 71301,15001 71309,15000 71317,14999 71325,14998 71333,14996 71341,14994 71349,14991 71356,14988 71363,14984 71370,14980 71377,14975 71383,14970 71389,14964 71394,14958 71400,14952 71404,14945 71409,14939 71412,14931 71416,14924 71419,14916 71421,14909 71423,14901 71424,14893 71425,14885 71425,14876 71425,14868 71424,14860 71423,14852 71421,14844 71419,14837 71416,14829 71412,14822 71409,14815 70108,12561 70104,12555 70099,12548 70094,12542 70088,12536 70082,12530 70076,12525 70069,12520 70063,12516 70055,12512 70048,12509 70040,12506 70033,12504 70025,12502 70017,12501 70009,12500 70000,12500 69992,12500 69984,12501 69976,12502 69968,12504 69961,12506 69953,12509 69946,12512 69938,12516 69932,12520 69925,12525 69919,12530 69913,12536 69907,12542 69902,12548 69897,12555 69893,12561 Z"/>
   </g>
  </g>
  <g class="com.sun.star.drawing.PolyPolygonShape">
   <g id="id4">
    <rect class="BoundingBox" stroke="none" fill="none" x="69009" y="12982" width="1983" height="1717"/>
    <path fill="rgb(255,255,255)" stroke="none" d="M 70991,14698 L 70000,12982 69009,14698 70991,14698 Z"/>
   </g>
  </g>
  <g class="com.sun.star.drawing.PolyPolygonShape">
   <g id="id5">
    <rect class="BoundingBox" stroke="none" fill="none" x="69635" y="13425" width="1162" height="1147"/>
    <path fill="rgb(0,0,0)" stroke="none" d="M 70702,14456 L 70705,14461 70709,14465 70716,14472 70718,14474 70720,14476 70721,14479 70722,14482 70722,14485 70721,14488 70720,14490 70718,14493 70726,14508 70729,14512 70733,14516 70737,14519 70742,14520 70761,14525 70767,14527 70773,14528 70778,14531 70784,14534 70788,14537 70792,14541 70795,14546 70796,14552 70796,14556 70794,14560 70791,14563 70787,14566 70782,14568 70777,14570 70771,14571 70765,14571 70761,14570 70756,14568 70752,14566 70749,14563 70736,14549 70724,14534 70716,14533 70708,14530 70700,14528 70692,14525 70685,14521 70678,14516 70672,14511 70666,14505 70657,14492 70649,14478 70641,14463 70636,14448 70632,14438 70628,14428 70624,14418 70619,14408 70614,14398 70608,14389 70602,14380 70596,14371 70592,14366 70587,14362 70582,14358 70576,14354 70531,14353 70516,14352 70502,14350 70487,14346 70473,14342 70460,14336 70447,14330 70434,14322 70422,14314 70362,14266 70356,14261 70349,14256 70341,14251 70334,14247 70326,14243 70318,14240 70310,14237 70302,14234 70294,14232 70286,14231 70278,14230 70270,14231 70261,14231 70253,14233 70245,14235 70238,14238 70236,14232 70233,14226 70229,14221 70225,14217 70216,14211 70206,14206 70196,14202 70185,14200 70173,14198 70162,14198 70151,14199 70141,14201 70116,14208 70090,14216 70080,14219 70069,14221 70058,14224 70047,14225 70036,14225 70026,14225 70015,14225 70004,14224 69992,14220 69981,14216 69970,14211 69960,14205 69954,14202 69947,14199 69941,14198 69934,14198 69930,14199 69927,14200 69924,14202 69921,14204 69918,14208 69914,14211 69910,14213 69905,14215 69899,14217 69893,14217 69886,14218 69880,14217 69874,14217 69868,14215 69862,14213 69857,14211 69841,14201 69826,14193 69809,14185 69792,14179 69776,14173 69759,14168 69742,14163 69725,14159 69718,14158 69711,14158 69724,14176 69737,14195 69749,14214 69761,14234 69767,14246 69773,14258 69774,14261 69775,14263 69777,14265 69779,14267 69781,14269 69783,14270 69786,14271 69789,14271 69794,14273 69800,14275 69805,14277 69810,14281 69820,14290 69831,14299 69842,14308 69853,14316 69857,14318 69862,14321 69866,14323 69871,14324 69874,14326 69877,14328 69880,14330 69882,14334 69884,14339 69886,14344 69887,14349 69886,14355 69886,14357 69884,14360 69882,14361 69879,14362 69869,14364 69858,14365 69848,14365 69838,14363 69829,14356 69820,14349 69811,14342 69801,14336 69797,14333 69792,14331 69786,14331 69781,14332 69774,14325 69768,14318 69762,14310 69756,14302 69751,14292 69746,14283 69742,14274 69739,14265 69732,14249 69724,14232 69715,14217 69706,14201 69696,14187 69685,14172 69673,14159 69661,14146 69654,14138 69648,14130 69642,14122 69637,14114 69635,14109 69635,14105 69635,14100 69637,14095 69640,14091 69644,14089 69648,14087 69653,14086 69663,14086 69674,14086 69685,14087 69695,14088 69706,14090 69716,14092 69727,14094 69737,14097 69757,14102 69776,14107 69796,14111 69816,14116 69819,14117 69822,14118 69825,14118 69829,14118 69832,14118 69835,14117 69838,14116 69842,14115 69836,14101 69832,14087 69829,14073 69827,14059 69827,14044 69828,14030 69830,14015 69834,14001 69837,13996 69839,13990 69841,13984 69842,13977 69842,13971 69841,13965 69840,13958 69838,13952 69836,13945 69835,13938 69834,13931 69834,13924 69833,13916 69834,13909 69834,13902 69835,13895 69826,13881 69819,13866 69812,13852 69806,13836 69801,13821 69798,13805 69795,13789 69794,13772 69794,13766 69794,13760 69792,13755 69789,13749 69785,13744 69780,13741 69775,13738 69769,13736 69758,13735 69748,13733 69737,13730 69727,13726 69717,13722 69708,13717 69698,13712 69690,13706 69686,13703 69683,13700 69680,13697 69678,13694 69676,13690 69674,13687 69672,13683 69671,13679 69671,13676 69671,13674 69671,13672 69672,13670 69673,13668 69675,13666 69677,13665 69679,13664 69688,13660 69697,13657 69707,13655 69716,13654 69722,13653 69727,13652 69733,13649 69738,13647 69742,13644 69747,13640 69751,13637 69755,13632 69761,13625 69766,13617 69771,13620 69777,13621 69783,13622 69789,13622 69794,13621 69800,13619 69805,13616 69810,13613 69822,13604 69834,13595 69838,13592 69843,13589 69848,13587 69853,13585 69858,13584 69864,13584 69869,13584 69874,13585 69879,13583 69884,13579 69888,13576 69891,13572 69894,13567 69896,13562 69898,13557 69898,13551 69900,13526 69901,13519 69901,13512 69903,13505 69905,13498 69907,13491 69910,13484 69914,13478 69918,13472 69923,13465 69929,13457 69935,13451 69942,13444 69943,13443 69945,13442 69947,13441 69949,13441 69941,13454 69934,13467 69927,13479 69921,13492 69918,13499 69916,13505 69914,13512 69913,13519 69912,13526 69912,13533 69913,13540 69914,13546 69934,13533 69954,13520 69973,13506 69991,13491 70009,13475 70027,13459 70044,13442 70060,13425 70062,13427 70062,13430 70062,13433 70061,13436 70056,13442 70055,13443 70055,13445 70006,13492 70054,13491 70045,13497 70037,13496 70028,13497 70020,13498 70012,13500 70004,13502 69996,13505 69989,13509 69982,13514 69975,13519 69967,13525 69960,13531 69954,13537 69945,13544 69936,13551 69926,13557 69916,13562 69907,13572 69898,13583 69894,13587 69892,13591 69890,13596 69888,13600 69888,13604 69889,13608 69915,13607 69941,13608 69949,13608 69958,13610 69966,13613 69973,13617 69976,13619 69979,13621 69980,13624 69981,13628 69979,13637 69975,13646 69970,13654 69964,13662 69961,13665 69958,13667 69955,13670 69952,13672 69948,13673 69945,13675 69941,13676 69937,13676 69923,13679 69910,13682 69908,13692 69907,13701 69907,13711 69907,13721 69907,13731 69908,13741 69910,13751 69912,13760 69914,13770 69917,13779 69920,13788 69924,13797 69929,13806 69933,13815 69938,13823 69944,13831 69984,13886 69987,13891 69989,13896 69991,13901 69992,13907 69993,13916 69995,13925 69999,13934 70004,13943 70006,13945 70009,13947 70012,13948 70016,13948 70020,13948 70024,13949 70028,13951 70032,13954 70040,13964 70048,13974 70057,13983 70067,13992 70072,13995 70078,13999 70083,14001 70089,14004 70095,14006 70101,14007 70107,14009 70113,14010 70134,14013 70156,14016 70177,14018 70200,14019 70219,14021 70237,14023 70255,14027 70274,14032 70281,14034 70288,14038 70297,14034 70306,14031 70315,14029 70324,14026 70334,14025 70343,14023 70352,14022 70362,14022 70371,14021 70381,14022 70390,14022 70399,14023 70409,14025 70418,14027 70427,14029 70436,14032 70448,14036 70459,14041 70470,14047 70481,14054 70490,14062 70499,14071 70508,14080 70515,14090 70517,14093 70518,14095 70519,14098 70519,14100 70519,14103 70518,14106 70517,14109 70516,14111 70509,14121 70513,14126 70517,14132 70521,14137 70524,14144 70526,14150 70528,14156 70530,14163 70531,14169 70533,14183 70535,14197 70538,14211 70541,14225 70544,14233 70547,14241 70551,14249 70556,14256 70562,14262 70569,14268 70576,14272 70583,14276 70592,14280 70601,14284 70610,14287 70620,14289 70626,14290 70632,14291 70636,14291 70640,14292 70644,14294 70647,14297 70650,14301 70652,14304 70654,14307 70656,14311 70702,14456 Z"/>
   </g>
  </g>
 </g>
</svg>