<?xml version="1.0" encoding="UTF-8"?>
<!DOCTYPE svg PUBLIC "-//W3C//DTD SVG 1.1//EN" "http://www.w3.org/Graphics/SVG/1.1/DTD/svg11.dtd">
<svg version="1.2" width="28.52mm" height="25.02mm" viewBox="71974 12500 2852 2502" preserveAspectRatio="xMidYMid" fill-rule="evenodd" stroke-width="28.222" stroke-linejoin="round" xmlns="http://www.w3.org/2000/svg" xmlns:ooo="http://xml.openoffice.org/svg/export" xmlns:xlink="http://www.w3.org/1999/xlink" xmlns:presentation="http://sun.com/xmlns/staroffice/presentation" xmlns:smil="http://www.w3.org/2001/SMIL20/" xmlns:anim="urn:oasis:names:tc:opendocument:xmlns:animation:1.0" xml:space="preserve">
 <defs class="EmbeddedBulletChars">
  <g id="bullet-char-template-57356" transform="scale(0.00048828125,-0.00048828125)">
   <path d="M 580,1141 L 1163,571 580,0 -4,571 580,1141 Z"/>
  </g>
  <g id="bullet-char-template-57354" transform="scale(0.00048828125,-0.00048828125)">
   <path d="M 8,1128 L 1137,1128 1137,0 8,0 8,1128 Z"/>
  </g>
  <g id="bullet-char-template-10146" transform="scale(0.00048828125,-0.00048828125)">
   <path d="M 174,0 L 602,739 174,1481 1456,739 174,0 Z M 1358,739 L 309,1346 659,739 1358,739 Z"/>
  </g>
  <g id="bullet-char-template-10132" transform="scale(0.00048828125,-0.00048828125)">
   <path d="M 2015,739 L 1276,0 717,0 1260,543 174,543 174,936 1260,936 717,1481 1274,1481 2015,739 Z"/>
  </g>
  <g id="bullet-char-template-10007" transform="scale(0.00048828125,-0.00048828125)">
   <path d="M 0,-2 C -7,14 -16,27 -25,37 L 356,567 C 262,823 215,952 215,954 215,979 228,992 255,992 264,992 276,990 289,987 310,991 331,999 354,1012 L 381,999 492,748 772,1049 836,1024 860,1049 C 881,1039 901,1025 922,1006 886,937 835,863 770,784 769,783 710,716 594,584 L 774,223 C 774,196 753,168 711,139 L 727,119 C 717,90 699,76 672,76 641,76 570,178 457,381 L 164,-76 C 142,-110 111,-127 72,-127 30,-127 9,-110 8,-76 1,-67 -2,-52 -2,-32 -2,-23 -1,-13 0,-2 Z"/>
  </g>
  <g id="bullet-char-template-10004" transform="scale(0.00048828125,-0.00048828125)">
   <path d="M 285,-33 C 182,-33 111,30 74,156 52,228 41,333 41,471 41,549 55,616 82,672 116,743 169,778 240,778 293,778 328,747 346,684 L 369,508 C 377,444 397,411 428,410 L 1163,1116 C 1174,1127 1196,1133 1229,1133 1271,1133 1292,1118 1292,1087 L 1292,965 C 1292,929 1282,901 1262,881 L 442,47 C 390,-6 338,-33 285,-33 Z"/>
  </g>
  <g id="bullet-char-template-9679" transform="scale(0.00048828125,-0.00048828125)">
   <path d="M 813,0 C 632,0 489,54 383,161 276,268 223,411 223,592 223,773 276,916 383,1023 489,1130 632,1184 813,1184 992,1184 1136,1130 1245,1023 1353,916 1407,772 1407,592 1407,412 1353,268 1245,161 1136,54 992,0 813,0 Z"/>
  </g>
  <g id="bullet-char-template-8226" transform="scale(0.00048828125,-0.00048828125)">
   <path d="M 346,457 C 273,457 209,483 155,535 101,586 74,649 74,723 74,796 101,859 155,911 209,963 273,989 346,989 419,989 480,963 531,910 582,859 608,796 608,723 608,648 583,586 532,535 482,483 420,457 346,457 Z"/>
  </g>
  <g id="bullet-char-template-8211" transform="scale(0.00048828125,-0.00048828125)">
   <path d="M -4,459 L 1135,459 1135,606 -4,606 -4,459 Z"/>
  </g>
  <g id="bullet-char-template-61548" transform="scale(0.00048828125,-0.00048828125)">
   <path d="M 173,740 C 173,903 231,1043 346,1159 462,1274 601,1332 765,1332 928,1332 1067,1274 1183,1159 1299,1043 1357,903 1357,740 1357,577 1299,437 1183,322 1067,206 928,148 765,148 601,148 462,206 346,322 231,437 173,577 173,740 Z"/>
  </g>
 </defs>
 <g class="Page">
  <g class="com.sun.star.drawing.PolyPolygonShape">
   <g id="id3">
    <rect class="BoundingBox" stroke="none" fill="none" x="71974" y="12500" width="2852" height="2502"/>
    <path fill="rgb(255,0,0)" stroke="none" d="M 73293,12561 L 71991,14815 71988,14822 71984,14829 71981,14837 71979,14844 71977,14852 71976,14860 71975,14868 71975,14876 71975,14885 71976,14893 71977,14901 71979,14909 71981,14916 71984,14924 71988,14931 71991,14939 71996,14945 72000,14952 72006,14958 72011,14964 72017,14970 72023,14975 72030,14980 72037,14984 72044,14988 72051,14991 72059,14994 72067,14996 72075,14998 72083,14999 72091,15000 72099,15001 74701,15001 74709,15000 74717,14999 74725,14998 74733,14996 74741,14994 74749,14991 74756,14988 74763,14984 74770,14980 74777,14975 74783,14970 74789,14964 74794,14958 74800,14952 74804,14945 74809,14939 74812,14931 74816,14924 74819,14916 74821,14909 74823,14901 74824,14893 74825,14885 74825,14876 74825,14868 74824,14860 74823,14852 74821,14844 74819,14837 74816,14829 74812,14822 74809,14815 73508,12561 73504,12555 73499,12548 73494,12542 73488,12536 73482,12530 73476,12525 73469,12520 73463,12516 73455,12512 73448,12509 73440,12506 73433,12504 73425,12502 73417,12501 73409,12500 73400,12500 73392,12500 73384,12501 73376,12502 73368,12504 73361,12506 73353,12509 73346,12512 73338,12516 73332,12520 73325,12525 73319,12530 73313,12536 73307,12542 73302,12548 73297,12555 73293,12561 Z"/>
   </g>
  </g>
  <g class="com.sun.star.drawing.PolyPolygonShape">
   <g id="id4">
    <rect class="BoundingBox" stroke="none" fill="none" x="72409" y="12982" width="1983" height="1717"/>
    <path fill="rgb(255,255,255)" stroke="none" d="M 74391,14698 L 73400,12982 72409,14698 74391,14698 Z"/>
   </g>
  </g>
  <g class="com.sun.star.drawing.PolyPolygonShape">
   <g id="id5">
    <rect class="BoundingBox" stroke="none" fill="none" x="72951" y="13957" width="893" height="587"/>
    <path fill="rgb(0,0,0)" stroke="none" d="M 73764,14515 L 73761,14516 73758,14518 73756,14520 73754,14523 73752,14525 73751,14528 73750,14532 73750,14535 73744,14537 73738,14539 73732,14541 73726,14542 73720,14542 73715,14542 73710,14540 73705,14538 73702,14536 73700,14533 73705,14524 73710,14514 73715,14504 73719,14494 73723,14484 73727,14473 73729,14463 73732,14452 73733,14445 73733,14438 73733,14430 73733,14423 73732,14416 73730,14409 73728,14402 73725,14396 73725,14391 73725,14385 73724,14380 73723,14375 73722,14370 73720,14366 73718,14361 73716,14356 73712,14350 73708,14344 73704,14339 73700,14332 73698,14331 73697,14330 73695,14330 73693,14330 73689,14331 73685,14334 73681,14337 73679,14341 73678,14343 73678,14344 73678,14346 73679,14348 73679,14350 73679,14353 73679,14356 73678,14358 73676,14362 73675,14364 73674,14366 73673,14366 73672,14366 73671,14366 73670,14365 73668,14363 73666,14358 73665,14353 73663,14349 73661,14345 73660,14344 73659,14344 73658,14343 73657,14344 73655,14344 73654,14345 73653,14346 73653,14347 73651,14354 73649,14360 73647,14362 73645,14364 73643,14365 73642,14364 73641,14364 73641,14363 73639,14361 73639,14358 73638,14356 73638,14353 73638,14349 73638,14345 73637,14341 73635,14338 73631,14332 73628,14327 73624,14322 73620,14319 73616,14314 73613,14310 73610,14305 73607,14300 73602,14304 73597,14307 73591,14309 73585,14311 73579,14313 73573,14314 73567,14315 73561,14316 73543,14316 73525,14315 73507,14313 73489,14311 73481,14309 73472,14309 73467,14308 73463,14309 73459,14310 73455,14312 73447,14315 73438,14318 73429,14321 73420,14323 73411,14325 73402,14327 73392,14328 73383,14329 73371,14329 73360,14328 73357,14332 73355,14337 73353,14342 73351,14346 73350,14351 73349,14355 73349,14360 73349,14365 73350,14387 73352,14410 73348,14423 73345,14436 73341,14449 73339,14463 73337,14476 73335,14489 73333,14503 73333,14517 73330,14518 73327,14520 73325,14523 73323,14525 73322,14529 73322,14532 73322,14535 73322,14539 73321,14540 73319,14541 73317,14542 73315,14542 73308,14543 73301,14543 73294,14542 73287,14540 73284,14539 73281,14537 73278,14534 73277,14531 73281,14525 73284,14519 73288,14512 73291,14506 73293,14499 73296,14492 73297,14485 73299,14478 73300,14470 73301,14462 73301,14454 73300,14445 73300,14440 73298,14435 73296,14430 73294,14425 73291,14418 73290,14412 73289,14405 73288,14398 73288,14381 73286,14365 73286,14362 73285,14359 73284,14356 73282,14354 73280,14352 73277,14350 73275,14349 73272,14348 73265,14349 73257,14348 73250,14347 73243,14344 73237,14340 73231,14335 73225,14330 73220,14324 73215,14319 73210,14313 73206,14307 73202,14301 73195,14289 73187,14278 73179,14264 73173,14250 73167,14235 73162,14220 73159,14211 73155,14203 73151,14195 73146,14187 73141,14180 73135,14173 73128,14166 73121,14160 73118,14157 73114,14155 73110,14153 73105,14151 73102,14152 73099,14153 73096,14155 73093,14157 73087,14160 73081,14163 73074,14165 73068,14167 73062,14168 73056,14169 73050,14168 73044,14167 73040,14171 73035,14173 73030,14175 73025,14177 73020,14177 73015,14177 73010,14176 73005,14174 72995,14170 72986,14166 72981,14165 72977,14164 72973,14164 72968,14165 72966,14165 72963,14165 72961,14165 72958,14163 72956,14162 72954,14160 72953,14158 72952,14156 72951,14151 72951,14146 72952,14141 72954,14136 72989,14082 72991,14080 72992,14077 72993,14074 72993,14071 72995,14063 72997,14056 72999,14048 73002,14041 73005,14034 73009,14027 73013,14020 73017,14014 73018,14013 73018,14011 73018,14010 73017,14009 73016,14008 73015,14008 73014,14008 73013,14008 72995,14015 72992,14016 72990,14016 72988,14015 72988,14013 72988,14007 72989,14001 72992,13996 72996,13992 73001,13988 73007,13984 73012,13980 73018,13977 73042,13964 73047,13962 73053,13960 73055,13959 73058,13959 73061,13959 73064,13960 73067,13960 73069,13961 73072,13963 73074,13965 73095,13976 73098,13978 73103,13978 73107,13978 73111,13976 73136,13960 73139,13959 73142,13958 73145,13957 73147,13957 73150,13957 73153,13957 73156,13958 73158,13959 73161,13962 73162,13966 73162,13970 73161,13974 73158,13986 73155,13997 73160,14001 73166,14005 73172,14007 73178,14009 73184,14011 73191,14012 73197,14012 73204,14012 73215,14012 73227,14011 73239,14009 73250,14007 73275,14004 73299,14002 73324,14001 73348,14000 73373,14000 73397,14001 73422,14003 73446,14006 73462,14007 73478,14007 73493,14008 73510,14007 73526,14006 73541,14004 73557,14002 73572,13999 73591,13996 73611,13993 73630,13992 73650,13991 73669,13991 73689,13992 73708,13994 73728,13997 73740,13999 73752,14002 73763,14006 73775,14011 73786,14017 73796,14024 73806,14031 73815,14039 73820,14045 73825,14050 73829,14056 73833,14063 73836,14069 73839,14076 73841,14083 73842,14090 73843,14110 73843,14129 73843,14148 73841,14167 73838,14186 73835,14205 73830,14224 73825,14242 73824,14246 73823,14250 73822,14255 73822,14259 73823,14263 73823,14267 73824,14271 73825,14275 73828,14282 73829,14289 73830,14297 73830,14304 73830,14311 73829,14318 73828,14325 73825,14332 73824,14335 73823,14337 73822,14338 73820,14339 73818,14340 73816,14340 73814,14340 73812,14339 73808,14334 73804,14328 73802,14322 73801,14316 73801,14306 73801,14295 73802,14285 73804,14274 73811,14242 73819,14209 73822,14194 73824,14178 73825,14162 73825,14146 73823,14131 73820,14115 73816,14100 73811,14085 73812,14096 73814,14107 73816,14117 73818,14128 73820,14139 73820,14149 73821,14160 73820,14171 73819,14181 73817,14192 73814,14202 73811,14213 73806,14225 73802,14237 73799,14250 73796,14263 73794,14276 73793,14289 73792,14303 73793,14316 73790,14322 73789,14329 73788,14338 73787,14345 73788,14359 73789,14373 73790,14394 73786,14401 73783,14408 73780,14415 73778,14423 73776,14430 73774,14438 73772,14445 73771,14453 73764,14515 Z"/>
   </g>
  </g>
 </g>
</svg>