<?xml version="1.0" encoding="UTF-8"?>
<!DOCTYPE svg PUBLIC "-//W3C//DTD SVG 1.1//EN" "http://www.w3.org/Graphics/SVG/1.1/DTD/svg11.dtd">
<svg version="1.2" width="28.52mm" height="25.02mm" viewBox="17674 12500 2852 2502" preserveAspectRatio="xMidYMid" fill-rule="evenodd" stroke-width="28.222" stroke-linejoin="round" xmlns="http://www.w3.org/2000/svg" xmlns:ooo="http://xml.openoffice.org/svg/export" xmlns:xlink="http://www.w3.org/1999/xlink" xmlns:presentation="http://sun.com/xmlns/staroffice/presentation" xmlns:smil="http://www.w3.org/2001/SMIL20/" xmlns:anim="urn:oasis:names:tc:opendocument:xmlns:animation:1.0" xml:space="preserve">
 <defs class="EmbeddedBulletChars">
  <g id="bullet-char-template-57356" transform="scale(0.00048828125,-0.00048828125)">
   <path d="M 580,1141 L 1163,571 580,0 -4,571 580,1141 Z"/>
  </g>
  <g id="bullet-char-template-57354" transform="scale(0.00048828125,-0.00048828125)">
   <path d="M 8,1128 L 1137,1128 1137,0 8,0 8,1128 Z"/>
  </g>
  <g id="bullet-char-template-10146" transform="scale(0.00048828125,-0.00048828125)">
   <path d="M 174,0 L 602,739 174,1481 1456,739 174,0 Z M 1358,739 L 309,1346 659,739 1358,739 Z"/>
  </g>
  <g id="bullet-char-template-10132" transform="scale(0.00048828125,-0.00048828125)">
   <path d="M 2015,739 L 1276,0 717,0 1260,543 174,543 174,936 1260,936 717,1481 1274,1481 2015,739 Z"/>
  </g>
  <g id="bullet-char-template-10007" transform="scale(0.00048828125,-0.00048828125)">
   <path d="M 0,-2 C -7,14 -16,27 -25,37 L 356,567 C 262,823 215,952 215,954 215,979 228,992 255,992 264,992 276,990 289,987 310,991 331,999 354,1012 L 381,999 492,748 772,1049 836,1024 860,1049 C 881,1039 901,1025 922,1006 886,937 835,863 770,784 769,783 710,716 594,584 L 774,223 C 774,196 753,168 711,139 L 727,119 C 717,90 699,76 672,76 641,76 570,178 457,381 L 164,-76 C 142,-110 111,-127 72,-127 30,-127 9,-110 8,-76 1,-67 -2,-52 -2,-32 -2,-23 -1,-13 0,-2 Z"/>
  </g>
  <g id="bullet-char-template-10004" transform="scale(0.00048828125,-0.00048828125)">
   <path d="M 285,-33 C 182,-33 111,30 74,156 52,228 41,333 41,471 41,549 55,616 82,672 116,743 169,778 240,778 293,778 328,747 346,684 L 369,508 C 377,444 397,411 428,410 L 1163,1116 C 1174,1127 1196,1133 1229,1133 1271,1133 1292,1118 1292,1087 L 1292,965 C 1292,929 1282,901 1262,881 L 442,47 C 390,-6 338,-33 285,-33 Z"/>
  </g>
  <g id="bullet-char-template-9679" transform="scale(0.00048828125,-0.00048828125)">
   <path d="M 813,0 C 632,0 489,54 383,161 276,268 223,411 223,592 223,773 276,916 383,1023 489,1130 632,1184 813,1184 992,1184 1136,1130 1245,1023 1353,916 1407,772 1407,592 1407,412 1353,268 1245,161 1136,54 992,0 813,0 Z"/>
  </g>
  <g id="bullet-char-template-8226" transform="scale(0.00048828125,-0.00048828125)">
   <path d="M 346,457 C 273,457 209,483 155,535 101,586 74,649 74,723 74,796 101,859 155,911 209,963 273,989 346,989 419,989 480,963 531,910 582,859 608,796 608,723 608,648 583,586 532,535 482,483 420,457 346,457 Z"/>
  </g>
  <g id="bullet-char-template-8211" transform="scale(0.00048828125,-0.00048828125)">
   <path d="M -4,459 L 1135,459 1135,606 -4,606 -4,459 Z"/>
  </g>
  <g id="bullet-char-template-61548" transform="scale(0.00048828125,-0.00048828125)">
   <path d="M 173,740 C 173,903 231,1043 346,1159 462,1274 601,1332 765,1332 928,1332 1067,1274 1183,1159 1299,1043 1357,903 1357,740 1357,577 1299,437 1183,322 1067,206 928,148 765,148 601,148 462,206 346,322 231,437 173,577 173,740 Z"/>
  </g>
 </defs>
 <g class="Page">
  <g class="com.sun.star.drawing.PolyPolygonShape">
   <g id="id3">
    <rect class="BoundingBox" stroke="none" fill="none" x="17674" y="12500" width="2852" height="2502"/>
    <path fill="rgb(255,0,0)" stroke="none" d="M 18993,12561 L 17691,14815 17688,14822 17684,14829 17681,14837 17679,14844 17677,14852 17676,14860 17675,14868 17675,14876 17675,14885 17676,14893 17677,14901 17679,14909 17681,14916 17684,14924 17688,14931 17691,14939 17696,14945 17700,14952 17706,14958 17711,14964 17717,14970 17723,14975 17730,14980 17737,14984 17744,14988 17751,14991 17759,14994 17767,14996 17775,14998 17783,14999 17791,15000 17799,15001 20401,15001 20409,15000 20417,14999 20425,14998 20433,14996 20441,14994 20449,14991 20456,14988 20463,14984 20470,14980 20477,14975 20483,14970 20489,14964 20494,14958 20500,14952 20504,14945 20509,14939 20512,14931 20516,14924 20519,14916 20521,14909 20523,14901 20524,14893 20525,14885 20525,14876 20525,14868 20524,14860 20523,14852 20521,14844 20519,14837 20516,14829 20512,14822 20509,14815 19208,12561 19204,12555 19199,12548 19194,12542 19188,12536 19182,12530 19176,12525 19169,12520 19163,12516 19155,12512 19148,12509 19140,12506 19133,12504 19125,12502 19117,12501 19109,12500 19100,12500 19092,12500 19084,12501 19076,12502 19068,12504 19061,12506 19053,12509 19046,12512 19038,12516 19032,12520 19025,12525 19019,12530 19013,12536 19007,12542 19002,12548 18997,12555 18993,12561 Z"/>
   </g>
  </g>
  <g class="com.sun.star.drawing.PolyPolygonShape">
   <g id="id4">
    <rect class="BoundingBox" stroke="none" fill="none" x="18109" y="12982" width="1983" height="1717"/>
    <path fill="rgb(255,255,255)" stroke="none" d="M 20091,14698 L 19101,12982 18109,14698 20091,14698 Z"/>
   </g>
  </g>
  <g class="com.sun.star.drawing.PolyPolygonShape">
   <g id="id5">
    <rect class="BoundingBox" stroke="none" fill="none" x="18109" y="13839" width="1983" height="859"/>
    <path fill="rgb(0,0,0)" stroke="none" d="M 18604,13839 L 20091,14697 18109,14697 18604,13839 Z"/>
   </g>
  </g>
  <g class="com.sun.star.drawing.PolyPolygonShape">
   <g id="id6">
    <rect class="BoundingBox" stroke="none" fill="none" x="18821" y="13609" width="360" height="316"/>
    <path fill="rgb(0,0,0)" stroke="none" d="M 18821,13888 L 19091,13732 19014,13687 19002,13708 18949,13678 18989,13609 19180,13719 19152,13767 18882,13923 18821,13888 Z"/>
   </g>
  </g>
  <g class="com.sun.star.drawing.PolyPolygonShape">
   <g id="id7">
    <rect class="BoundingBox" stroke="none" fill="none" x="19275" y="13731" width="170" height="170"/>
    <path fill="rgb(0,0,0)" stroke="none" d="M 19393,13815 L 19392,13809 19391,13802 19387,13796 19383,13791 19378,13787 19372,13784 19366,13782 19359,13782 19353,13782 19346,13784 19341,13787 19336,13791 19331,13796 19328,13802 19326,13809 19326,13815 19326,13822 19328,13828 19331,13834 19336,13839 19341,13843 19346,13846 19353,13848 19359,13849 19366,13848 19372,13846 19378,13843 19383,13839 19387,13834 19391,13828 19392,13822 19393,13815 Z M 19444,13815 L 19444,13807 19443,13799 19441,13791 19438,13783 19435,13776 19430,13768 19425,13762 19420,13756 19414,13750 19407,13745 19399,13741 19391,13738 19384,13735 19376,13733 19368,13732 19359,13731 19351,13732 19343,13733 19335,13735 19327,13738 19320,13741 19313,13745 19306,13750 19300,13756 19294,13762 19289,13768 19285,13776 19282,13783 19279,13791 19277,13799 19276,13807 19275,13815 19276,13823 19277,13832 19279,13840 19282,13847 19285,13855 19289,13863 19294,13869 19300,13876 19306,13881 19313,13886 19320,13890 19327,13894 19335,13897 19343,13899 19351,13900 19359,13900 19368,13900 19376,13899 19384,13897 19391,13894 19399,13890 19407,13886 19414,13881 19420,13876 19425,13869 19430,13863 19435,13855 19438,13847 19441,13840 19443,13832 19444,13823 19444,13815 Z"/>
   </g>
  </g>
  <g class="com.sun.star.drawing.PolyPolygonShape">
   <g id="id8">
    <rect class="BoundingBox" stroke="none" fill="none" x="19312" y="14037" width="170" height="170"/>
    <path fill="rgb(0,0,0)" stroke="none" d="M 19431,14121 L 19430,14114 19428,14108 19425,14102 19421,14097 19416,14093 19410,14090 19403,14088 19396,14087 19389,14088 19383,14090 19377,14093 19372,14097 19368,14102 19365,14108 19363,14114 19362,14121 19363,14128 19365,14134 19368,14140 19372,14145 19377,14149 19383,14152 19389,14154 19396,14155 19403,14154 19410,14152 19416,14149 19421,14145 19425,14140 19428,14134 19430,14128 19431,14121 Z M 19481,14121 L 19480,14113 19479,14105 19477,14097 19475,14089 19471,14081 19467,14074 19462,14068 19456,14062 19450,14056 19444,14051 19437,14047 19429,14043 19421,14041 19413,14039 19405,14037 19396,14037 19388,14037 19380,14039 19372,14041 19364,14043 19356,14047 19349,14051 19342,14056 19336,14062 19331,14068 19326,14074 19322,14081 19318,14089 19316,14097 19313,14105 19312,14113 19312,14121 19312,14129 19313,14137 19316,14145 19318,14153 19322,14161 19326,14168 19331,14174 19336,14180 19342,14186 19349,14191 19356,14195 19364,14200 19372,14202 19380,14204 19388,14206 19396,14206 19405,14206 19413,14204 19421,14202 19429,14200 19437,14195 19444,14191 19450,14186 19456,14180 19462,14174 19467,14168 19471,14161 19475,14153 19477,14145 19479,14137 19480,14129 19481,14121 Z"/>
   </g>
  </g>
  <g class="com.sun.star.drawing.PolyPolygonShape">
   <g id="id9">
    <rect class="BoundingBox" stroke="none" fill="none" x="19145" y="13882" width="376" height="218"/>
    <path fill="rgb(0,0,0)" stroke="none" d="M 19476,13882 L 19520,13907 19188,14099 19145,14074 19476,13882 Z"/>
   </g>
  </g>
 </g>
</svg>