<?xml version="1.0" encoding="UTF-8"?>
<!DOCTYPE svg PUBLIC "-//W3C//DTD SVG 1.1//EN" "http://www.w3.org/Graphics/SVG/1.1/DTD/svg11.dtd">
<svg version="1.2" width="28.51mm" height="25.02mm" viewBox="75375 12500 2851 2502" preserveAspectRatio="xMidYMid" fill-rule="evenodd" stroke-width="28.222" stroke-linejoin="round" xmlns="http://www.w3.org/2000/svg" xmlns:ooo="http://xml.openoffice.org/svg/export" xmlns:xlink="http://www.w3.org/1999/xlink" xmlns:presentation="http://sun.com/xmlns/staroffice/presentation" xmlns:smil="http://www.w3.org/2001/SMIL20/" xmlns:anim="urn:oasis:names:tc:opendocument:xmlns:animation:1.0" xml:space="preserve">
 <defs class="EmbeddedBulletChars">
  <g id="bullet-char-template-57356" transform="scale(0.00048828125,-0.00048828125)">
   <path d="M 580,1141 L 1163,571 580,0 -4,571 580,1141 Z"/>
  </g>
  <g id="bullet-char-template-57354" transform="scale(0.00048828125,-0.00048828125)">
   <path d="M 8,1128 L 1137,1128 1137,0 8,0 8,1128 Z"/>
  </g>
  <g id="bullet-char-template-10146" transform="scale(0.00048828125,-0.00048828125)">
   <path d="M 174,0 L 602,739 174,1481 1456,739 174,0 Z M 1358,739 L 309,1346 659,739 1358,739 Z"/>
  </g>
  <g id="bullet-char-template-10132" transform="scale(0.00048828125,-0.00048828125)">
   <path d="M 2015,739 L 1276,0 717,0 1260,543 174,543 174,936 1260,936 717,1481 1274,1481 2015,739 Z"/>
  </g>
  <g id="bullet-char-template-10007" transform="scale(0.00048828125,-0.00048828125)">
   <path d="M 0,-2 C -7,14 -16,27 -25,37 L 356,567 C 262,823 215,952 215,954 215,979 228,992 255,992 264,992 276,990 289,987 310,991 331,999 354,1012 L 381,999 492,748 772,1049 836,1024 860,1049 C 881,1039 901,1025 922,1006 886,937 835,863 770,784 769,783 710,716 594,584 L 774,223 C 774,196 753,168 711,139 L 727,119 C 717,90 699,76 672,76 641,76 570,178 457,381 L 164,-76 C 142,-110 111,-127 72,-127 30,-127 9,-110 8,-76 1,-67 -2,-52 -2,-32 -2,-23 -1,-13 0,-2 Z"/>
  </g>
  <g id="bullet-char-template-10004" transform="scale(0.00048828125,-0.00048828125)">
   <path d="M 285,-33 C 182,-33 111,30 74,156 52,228 41,333 41,471 41,549 55,616 82,672 116,743 169,778 240,778 293,778 328,747 346,684 L 369,508 C 377,444 397,411 428,410 L 1163,1116 C 1174,1127 1196,1133 1229,1133 1271,1133 1292,1118 1292,1087 L 1292,965 C 1292,929 1282,901 1262,881 L 442,47 C 390,-6 338,-33 285,-33 Z"/>
  </g>
  <g id="bullet-char-template-9679" transform="scale(0.00048828125,-0.00048828125)">
   <path d="M 813,0 C 632,0 489,54 383,161 276,268 223,411 223,592 223,773 276,916 383,1023 489,1130 632,1184 813,1184 992,1184 1136,1130 1245,1023 1353,916 1407,772 1407,592 1407,412 1353,268 1245,161 1136,54 992,0 813,0 Z"/>
  </g>
  <g id="bullet-char-template-8226" transform="scale(0.00048828125,-0.00048828125)">
   <path d="M 346,457 C 273,457 209,483 155,535 101,586 74,649 74,723 74,796 101,859 155,911 209,963 273,989 346,989 419,989 480,963 531,910 582,859 608,796 608,723 608,648 583,586 532,535 482,483 420,457 346,457 Z"/>
  </g>
  <g id="bullet-char-template-8211" transform="scale(0.00048828125,-0.00048828125)">
   <path d="M -4,459 L 1135,459 1135,606 -4,606 -4,459 Z"/>
  </g>
  <g id="bullet-char-template-61548" transform="scale(0.00048828125,-0.00048828125)">
   <path d="M 173,740 C 173,903 231,1043 346,1159 462,1274 601,1332 765,1332 928,1332 1067,1274 1183,1159 1299,1043 1357,903 1357,740 1357,577 1299,437 1183,322 1067,206 928,148 765,148 601,148 462,206 346,322 231,437 173,577 173,740 Z"/>
  </g>
 </defs>
 <g class="Page">
  <g class="com.sun.star.drawing.PolyPolygonShape">
   <g id="id3">
    <rect class="BoundingBox" stroke="none" fill="none" x="75375" y="12500" width="2851" height="2502"/>
    <path fill="rgb(255,0,0)" stroke="none" d="M 76693,12561 L 75391,14815 75388,14822 75384,14829 75382,14837 75379,14844 75377,14852 75376,14860 75375,14868 75375,14876 75375,14885 75376,14893 75377,14901 75379,14909 75382,14916 75384,14924 75388,14931 75391,14939 75396,14945 75400,14952 75406,14958 75411,14964 75417,14970 75423,14975 75430,14980 75437,14984 75444,14988 75451,14991 75459,14994 75467,14996 75475,14998 75483,14999 75491,15000 75500,15001 78101,15001 78109,15000 78117,14999 78125,14998 78133,14996 78141,14994 78149,14991 78156,14988 78163,14984 78170,14980 78177,14975 78183,14970 78189,14964 78194,14958 78200,14952 78204,14945 78209,14939 78212,14931 78216,14924 78218,14916 78221,14909 78223,14901 78224,14893 78225,14885 78225,14876 78225,14868 78224,14860 78223,14852 78221,14844 78218,14837 78216,14829 78212,14822 78209,14815 76908,12561 76904,12555 76899,12548 76894,12542 76888,12536 76882,12530 76876,12525 76869,12520 76863,12516 76855,12512 76848,12509 76840,12506 76833,12504 76825,12502 76817,12501 76809,12500 76800,12500 76792,12500 76784,12501 76776,12502 76768,12504 76761,12506 76753,12509 76746,12512 76738,12516 76732,12520 76725,12525 76719,12530 76713,12536 76707,12542 76702,12548 76697,12555 76693,12561 Z"/>
   </g>
  </g>
  <g class="com.sun.star.drawing.PolyPolygonShape">
   <g id="id4">
    <rect class="BoundingBox" stroke="none" fill="none" x="75809" y="12982" width="1983" height="1717"/>
    <path fill="rgb(255,255,255)" stroke="none" d="M 77791,14698 L 76801,12982 75809,14698 77791,14698 Z"/>
   </g>
  </g>
  <g class="com.sun.star.drawing.PolyPolygonShape">
   <g id="id5">
    <rect class="BoundingBox" stroke="none" fill="none" x="75948" y="13488" width="1637" height="1137"/>
    <path fill="rgb(0,0,0)" stroke="none" d="M 76770,13873 L 76765,13875 76760,13879 76756,13882 76751,13886 76748,13890 76744,13894 76740,13899 76737,13903 76734,13909 76732,13914 76730,13919 76728,13924 76727,13930 76726,13935 76725,13941 76725,13947 76725,13952 76725,13958 76726,13963 76727,13969 76729,13974 76730,13980 76733,13985 76735,13990 76738,13995 76741,14000 76745,14004 76748,14008 76753,14012 76757,14016 76761,14020 76766,14023 76764,14004 76762,13985 76761,13966 76761,13947 76762,13928 76764,13910 76766,13891 76770,13873 Z M 77097,14388 L 77092,14388 77087,14390 77082,14392 77078,14394 77073,14397 77070,14401 77066,14405 77063,14409 77056,14417 77049,14425 77042,14433 77035,14442 77029,14450 77023,14460 77017,14469 77012,14478 76999,14486 76987,14494 76976,14502 76964,14511 76961,14514 76956,14517 76952,14518 76947,14519 76944,14519 76942,14519 76939,14520 76936,14521 76934,14523 76933,14525 76931,14528 76930,14530 76927,14532 76924,14534 76922,14537 76922,14541 76919,14545 76916,14549 76912,14551 76908,14553 76905,14555 76902,14558 76901,14561 76900,14564 76896,14566 76893,14567 76889,14567 76885,14566 76877,14564 76869,14563 76872,14561 76874,14558 76876,14555 76877,14551 76877,14549 76877,14548 76869,14543 76862,14537 76855,14530 76849,14523 76843,14515 76838,14507 76834,14499 76830,14490 76829,14484 76826,14477 76823,14471 76820,14466 76812,14468 76787,14446 76795,14444 76803,14442 76810,14438 76818,14434 76919,14251 76922,14247 76924,14242 76925,14237 76927,14232 76928,14227 76928,14222 76929,14217 76928,14212 76928,14207 76927,14202 76926,14197 76925,14192 76923,14187 76921,14182 76919,14178 76916,14173 76906,14151 76906,14149 76906,14148 76906,14147 76907,14145 76908,14145 76910,14144 76911,14144 76912,14144 77126,14244 77132,14252 77139,14259 77147,14266 77156,14271 77165,14275 77175,14277 77185,14279 77195,14278 77188,14284 77181,14290 77175,14296 77169,14303 77163,14310 77158,14317 77154,14325 77150,14333 77144,14341 77139,14349 77133,14356 77126,14363 77119,14370 77112,14376 77105,14382 77097,14388 Z M 76561,14464 L 76557,14470 76555,14478 76554,14485 76555,14493 76564,14495 76573,14497 76583,14497 76592,14496 76596,14497 76599,14499 76602,14501 76604,14504 76605,14508 76606,14511 76605,14515 76604,14518 76589,14560 76756,14560 76750,14554 76743,14548 76737,14541 76731,14534 76726,14526 76721,14519 76717,14511 76713,14503 76697,14516 76658,14477 76662,14471 76666,14465 76670,14459 76675,14454 76680,14449 76686,14444 76691,14440 76697,14436 76699,14422 76701,14409 76703,14395 76706,14381 76709,14368 76712,14354 76715,14341 76719,14328 76724,14315 76729,14302 76734,14289 76740,14276 76745,14264 76752,14251 76758,14239 76765,14227 76637,14115 76631,14127 76624,14139 76619,14151 76613,14164 76608,14178 76604,14191 76599,14204 76596,14217 76592,14230 76590,14244 76587,14257 76586,14271 76584,14285 76583,14298 76583,14312 76583,14326 76580,14332 76578,14338 76576,14344 76575,14350 76574,14357 76573,14363 76573,14370 76573,14376 76575,14380 76576,14384 76576,14389 76576,14393 76576,14397 76575,14401 76573,14405 76570,14408 76568,14411 76567,14414 76565,14417 76564,14420 76563,14423 76563,14426 76563,14429 76563,14433 76564,14437 76565,14440 76565,14444 76565,14448 76565,14452 76564,14456 76563,14460 76561,14464 Z M 76496,13892 L 76501,13880 76505,13867 76509,13855 76511,13842 76513,13829 76515,13816 76516,13803 76516,13790 76539,13782 76562,13773 76585,13763 76607,13752 76597,13772 76586,13792 76575,13812 76564,13831 76552,13851 76540,13870 76528,13889 76515,13907 76514,13904 76513,13901 76511,13898 76509,13896 76506,13894 76503,13893 76499,13892 76496,13892 Z M 76814,13556 L 76814,13560 76814,13565 76814,13569 76813,13573 76812,13578 76811,13582 76809,13586 76807,13590 76805,13593 76802,13597 76799,13600 76796,13603 76793,13606 76789,13608 76785,13611 76781,13612 76756,13597 76743,13605 76729,13611 76714,13616 76699,13619 76684,13622 76669,13623 76654,13623 76639,13621 76633,13622 76627,13624 76622,13626 76616,13629 76612,13632 76607,13636 76603,13640 76599,13644 76590,13652 76579,13658 76569,13664 76558,13669 76547,13673 76535,13676 76523,13679 76511,13680 76509,13684 76506,13688 76503,13691 76499,13694 76495,13696 76491,13698 76487,13700 76483,13701 76479,13702 76475,13702 76472,13703 76468,13704 76465,13706 76462,13708 76459,13711 76456,13714 76454,13717 76452,13720 76451,13723 76450,13727 76449,13731 76449,13734 76449,13738 76449,13742 76450,13746 76450,13750 76450,13754 76449,13759 76448,13763 76446,13767 76444,13770 76441,13774 76432,13802 76424,13831 76417,13860 76411,13889 76413,13890 76416,13891 76418,13891 76421,13891 76419,13906 76417,13922 76416,13926 76417,13930 76418,13934 76419,13938 76421,13941 76424,13945 76426,13947 76430,13950 76475,13975 76470,13985 76465,13995 76461,14006 76457,14017 76454,14028 76452,14039 76450,14050 76449,14062 76449,14073 76449,14084 76449,14096 76451,14107 76453,14118 76456,14129 76459,14140 76463,14151 76458,14164 76454,14179 76452,14193 76450,14207 76454,14221 76458,14236 76460,14251 76462,14267 76462,14282 76461,14297 76459,14313 76455,14327 76452,14351 76450,14374 76449,14398 76449,14421 76450,14445 76452,14468 76456,14491 76460,14514 76458,14516 76456,14518 76454,14521 76453,14523 76453,14526 76452,14529 76453,14531 76453,14534 76453,14556 76402,14556 76387,14539 76371,14523 76354,14507 76337,14493 76334,14491 76332,14490 76329,14488 76327,14486 76326,14483 76324,14481 76323,14478 76322,14475 76321,14472 76319,14469 76318,14466 76315,14463 76313,14460 76310,14458 76307,14456 76303,14455 76298,14451 76294,14446 76290,14440 76287,14434 76285,14430 76282,14425 76278,14422 76274,14419 76269,14417 76265,14414 76262,14410 76259,14405 76257,14401 76255,14398 76251,14395 76248,14393 76242,14390 76235,14388 76229,14386 76222,14385 76215,14386 76209,14387 76202,14389 76196,14392 76189,14398 76182,14406 76176,14413 76171,14422 76063,14544 76050,14543 76038,14543 76024,14544 76012,14545 76000,14545 75987,14544 75983,14542 75978,14541 75973,14540 75968,14540 75963,14540 75958,14540 75953,14541 75948,14542 75948,14624 77584,14624 77584,14568 77578,14567 77572,14565 77567,14563 77563,14559 77559,14554 77557,14548 77556,14542 77556,14536 77557,14531 77557,14526 77557,14521 77557,14516 77556,14511 77554,14506 77553,14501 77551,14496 77548,14494 77545,14490 77543,14487 77542,14483 77542,14478 77541,14473 77539,14469 77536,14465 77532,14462 77527,14459 77523,14455 77520,14450 77516,14442 77512,14434 77509,14425 77507,14416 77505,14408 77504,14398 77503,14390 77502,14381 77503,14377 77503,14374 77503,14371 77502,14368 77501,14365 77500,14362 77499,14359 77497,14356 77493,14352 77490,14347 77487,14342 77484,14336 77484,14329 77483,14323 77481,14316 77479,14309 77477,14303 77474,14296 77470,14290 77466,14285 77449,14262 77444,14258 77440,14254 77437,14249 77435,14243 77434,14239 77432,14235 77430,14231 77427,14227 77424,14224 77421,14221 77417,14219 77413,14217 77403,14207 77394,14196 77385,14185 77377,14172 77372,14168 77367,14165 77362,14164 77356,14162 77350,14161 77344,14161 77339,14162 77333,14164 77326,14167 77319,14171 77312,14176 77306,14180 77210,14261 77205,14262 77200,14263 77195,14263 77190,14263 77184,14263 77179,14262 77174,14261 77169,14260 77164,14258 77159,14255 77155,14253 77151,14250 77146,14246 77143,14243 77139,14239 77136,14235 76947,14146 76933,14138 76919,14129 76906,14120 76892,14111 76876,14070 76874,14050 76873,14030 76874,14010 76875,13990 76877,13971 76880,13951 76884,13932 76889,13912 76890,13901 76891,13889 76893,13878 76895,13866 76898,13855 76901,13843 76905,13832 76909,13821 76911,13817 76913,13813 76914,13809 76916,13805 76916,13800 76917,13796 76917,13792 76917,13787 76916,13783 76915,13778 76914,13774 76912,13770 76910,13766 76908,13762 76905,13759 76902,13755 76866,13709 76865,13707 76864,13705 76863,13702 76863,13700 76863,13698 76864,13695 76864,13693 76866,13691 76867,13689 76869,13688 76871,13686 76874,13686 76876,13685 76878,13685 76881,13686 76883,13686 76888,13687 76893,13685 76898,13683 76901,13680 76909,13672 76953,13630 76954,13633 76957,13635 76959,13638 76962,13640 76965,13640 76967,13640 76969,13639 76971,13637 76971,13635 76971,13632 76970,13630 76968,13628 76967,13624 76965,13619 76965,13614 76965,13608 76966,13603 76967,13599 76969,13594 76972,13590 76973,13587 76974,13583 76974,13580 76974,13577 76974,13574 76973,13571 76972,13567 76971,13565 76966,13558 76960,13551 76955,13545 76949,13539 76943,13533 76937,13528 76930,13523 76924,13518 76917,13513 76910,13509 76902,13505 76895,13501 76887,13498 76879,13495 76871,13493 76863,13491 76858,13489 76853,13488 76848,13489 76842,13490 76837,13492 76833,13495 76829,13498 76825,13502 76822,13508 76819,13515 76817,13521 76815,13528 76814,13535 76813,13542 76813,13549 76814,13556 Z"/>
   </g>
  </g>
 </g>
</svg>