<?xml version="1.0" encoding="UTF-8"?>
<!DOCTYPE svg PUBLIC "-//W3C//DTD SVG 1.1//EN" "http://www.w3.org/Graphics/SVG/1.1/DTD/svg11.dtd">
<svg version="1.2" width="28.52mm" height="25.02mm" viewBox="78774 12500 2852 2502" preserveAspectRatio="xMidYMid" fill-rule="evenodd" stroke-width="28.222" stroke-linejoin="round" xmlns="http://www.w3.org/2000/svg" xmlns:ooo="http://xml.openoffice.org/svg/export" xmlns:xlink="http://www.w3.org/1999/xlink" xmlns:presentation="http://sun.com/xmlns/staroffice/presentation" xmlns:smil="http://www.w3.org/2001/SMIL20/" xmlns:anim="urn:oasis:names:tc:opendocument:xmlns:animation:1.0" xml:space="preserve">
 <defs class="EmbeddedBulletChars">
  <g id="bullet-char-template-57356" transform="scale(0.00048828125,-0.00048828125)">
   <path d="M 580,1141 L 1163,571 580,0 -4,571 580,1141 Z"/>
  </g>
  <g id="bullet-char-template-57354" transform="scale(0.00048828125,-0.00048828125)">
   <path d="M 8,1128 L 1137,1128 1137,0 8,0 8,1128 Z"/>
  </g>
  <g id="bullet-char-template-10146" transform="scale(0.00048828125,-0.00048828125)">
   <path d="M 174,0 L 602,739 174,1481 1456,739 174,0 Z M 1358,739 L 309,1346 659,739 1358,739 Z"/>
  </g>
  <g id="bullet-char-template-10132" transform="scale(0.00048828125,-0.00048828125)">
   <path d="M 2015,739 L 1276,0 717,0 1260,543 174,543 174,936 1260,936 717,1481 1274,1481 2015,739 Z"/>
  </g>
  <g id="bullet-char-template-10007" transform="scale(0.00048828125,-0.00048828125)">
   <path d="M 0,-2 C -7,14 -16,27 -25,37 L 356,567 C 262,823 215,952 215,954 215,979 228,992 255,992 264,992 276,990 289,987 310,991 331,999 354,1012 L 381,999 492,748 772,1049 836,1024 860,1049 C 881,1039 901,1025 922,1006 886,937 835,863 770,784 769,783 710,716 594,584 L 774,223 C 774,196 753,168 711,139 L 727,119 C 717,90 699,76 672,76 641,76 570,178 457,381 L 164,-76 C 142,-110 111,-127 72,-127 30,-127 9,-110 8,-76 1,-67 -2,-52 -2,-32 -2,-23 -1,-13 0,-2 Z"/>
  </g>
  <g id="bullet-char-template-10004" transform="scale(0.00048828125,-0.00048828125)">
   <path d="M 285,-33 C 182,-33 111,30 74,156 52,228 41,333 41,471 41,549 55,616 82,672 116,743 169,778 240,778 293,778 328,747 346,684 L 369,508 C 377,444 397,411 428,410 L 1163,1116 C 1174,1127 1196,1133 1229,1133 1271,1133 1292,1118 1292,1087 L 1292,965 C 1292,929 1282,901 1262,881 L 442,47 C 390,-6 338,-33 285,-33 Z"/>
  </g>
  <g id="bullet-char-template-9679" transform="scale(0.00048828125,-0.00048828125)">
   <path d="M 813,0 C 632,0 489,54 383,161 276,268 223,411 223,592 223,773 276,916 383,1023 489,1130 632,1184 813,1184 992,1184 1136,1130 1245,1023 1353,916 1407,772 1407,592 1407,412 1353,268 1245,161 1136,54 992,0 813,0 Z"/>
  </g>
  <g id="bullet-char-template-8226" transform="scale(0.00048828125,-0.00048828125)">
   <path d="M 346,457 C 273,457 209,483 155,535 101,586 74,649 74,723 74,796 101,859 155,911 209,963 273,989 346,989 419,989 480,963 531,910 582,859 608,796 608,723 608,648 583,586 532,535 482,483 420,457 346,457 Z"/>
  </g>
  <g id="bullet-char-template-8211" transform="scale(0.00048828125,-0.00048828125)">
   <path d="M -4,459 L 1135,459 1135,606 -4,606 -4,459 Z"/>
  </g>
  <g id="bullet-char-template-61548" transform="scale(0.00048828125,-0.00048828125)">
   <path d="M 173,740 C 173,903 231,1043 346,1159 462,1274 601,1332 765,1332 928,1332 1067,1274 1183,1159 1299,1043 1357,903 1357,740 1357,577 1299,437 1183,322 1067,206 928,148 765,148 601,148 462,206 346,322 231,437 173,577 173,740 Z"/>
  </g>
 </defs>
 <g class="Page">
  <g class="com.sun.star.drawing.PolyPolygonShape">
   <g id="id3">
    <rect class="BoundingBox" stroke="none" fill="none" x="78774" y="12500" width="2852" height="2502"/>
    <path fill="rgb(255,0,0)" stroke="none" d="M 80092,12561 L 78791,14815 78788,14822 78784,14829 78781,14837 78779,14844 78777,14852 78776,14860 78775,14868 78775,14876 78775,14885 78776,14893 78777,14901 78779,14909 78781,14916 78784,14924 78788,14931 78791,14939 78796,14945 78800,14952 78806,14958 78811,14964 78817,14970 78823,14975 78830,14980 78837,14984 78844,14988 78851,14991 78859,14994 78867,14996 78875,14998 78883,14999 78891,15000 78899,15001 81501,15001 81509,15000 81517,14999 81525,14998 81533,14996 81541,14994 81549,14991 81556,14988 81563,14984 81570,14980 81577,14975 81583,14970 81589,14964 81594,14958 81600,14952 81604,14945 81609,14939 81612,14931 81616,14924 81619,14916 81621,14909 81623,14901 81624,14893 81625,14885 81625,14876 81625,14868 81624,14860 81623,14852 81621,14844 81619,14837 81616,14829 81612,14822 81609,14815 80307,12561 80303,12555 80298,12548 80293,12542 80287,12536 80281,12530 80275,12525 80268,12520 80262,12516 80254,12512 80247,12509 80239,12506 80232,12504 80224,12502 80216,12501 80208,12500 80199,12500 80191,12500 80183,12501 80175,12502 80167,12504 80160,12506 80152,12509 80145,12512 80137,12516 80131,12520 80124,12525 80118,12530 80112,12536 80106,12542 80101,12548 80096,12555 80092,12561 Z"/>
   </g>
  </g>
  <g class="com.sun.star.drawing.PolyPolygonShape">
   <g id="id4">
    <rect class="BoundingBox" stroke="none" fill="none" x="79209" y="12982" width="1983" height="1717"/>
    <path fill="rgb(255,255,255)" stroke="none" d="M 81191,14698 L 80201,12982 79209,14698 81191,14698 Z"/>
   </g>
  </g>
  <g class="com.sun.star.drawing.PolyPolygonShape">
   <g id="id5">
    <rect class="BoundingBox" stroke="none" fill="none" x="79998" y="14234" width="405" height="404"/>
    <path fill="rgb(0,255,0)" stroke="none" d="M 80402,14436 L 80401,14426 80401,14416 80399,14406 80398,14397 80396,14387 80393,14377 80390,14368 80386,14359 80382,14350 80378,14341 80373,14333 80368,14324 80362,14316 80356,14308 80349,14301 80343,14294 80336,14287 80328,14280 80320,14274 80312,14268 80304,14262 80295,14257 80287,14253 80277,14249 80268,14246 80259,14242 80249,14240 80240,14238 80230,14236 80220,14235 80210,14234 80201,14234 80190,14234 80180,14235 80170,14236 80160,14238 80151,14240 80141,14242 80132,14246 80122,14249 80113,14253 80105,14257 80096,14262 80088,14268 80080,14274 80072,14280 80064,14287 80057,14294 80050,14301 80044,14308 80038,14316 80032,14324 80027,14333 80022,14341 80018,14350 80014,14359 80010,14368 80007,14377 80004,14387 80002,14397 80001,14406 79999,14416 79999,14426 79998,14436 79999,14446 79999,14456 80001,14465 80002,14475 80004,14485 80007,14494 80010,14504 80014,14513 80018,14522 80022,14531 80027,14539 80032,14548 80038,14556 80044,14563 80050,14571 80057,14578 80064,14585 80072,14591 80080,14597 80088,14603 80096,14608 80105,14613 80113,14618 80122,14622 80132,14625 80141,14628 80151,14631 80160,14633 80170,14635 80180,14636 80190,14637 80201,14637 80210,14637 80220,14636 80230,14635 80240,14633 80249,14631 80259,14628 80268,14625 80277,14622 80287,14618 80295,14613 80304,14608 80312,14603 80320,14597 80328,14591 80336,14585 80343,14578 80349,14571 80356,14563 80362,14556 80368,14548 80373,14539 80378,14531 80382,14522 80386,14513 80390,14504 80393,14494 80396,14485 80398,14475 80399,14465 80401,14456 80401,14446 80402,14436 Z"/>
   </g>
  </g>
  <g class="com.sun.star.drawing.PolyPolygonShape">
   <g id="id6">
    <rect class="BoundingBox" stroke="none" fill="none" x="79998" y="13774" width="405" height="404"/>
    <path fill="rgb(255,129,0)" stroke="none" d="M 80402,13976 L 80401,13966 80401,13956 80399,13946 80398,13937 80396,13927 80393,13917 80390,13908 80386,13899 80382,13890 80378,13881 80373,13872 80368,13864 80362,13856 80356,13848 80349,13841 80343,13833 80336,13826 80328,13819 80320,13813 80312,13808 80304,13802 80295,13798 80287,13793 80277,13789 80268,13786 80259,13782 80249,13780 80240,13778 80230,13776 80220,13775 80210,13774 80201,13774 80190,13774 80180,13775 80170,13776 80160,13778 80151,13780 80141,13782 80132,13786 80122,13789 80113,13793 80105,13798 80096,13802 80088,13808 80080,13813 80072,13819 80064,13826 80057,13833 80050,13841 80044,13848 80038,13856 80032,13864 80027,13872 80022,13881 80018,13890 80014,13899 80010,13908 80007,13917 80004,13927 80002,13937 80001,13946 79999,13956 79999,13966 79998,13976 79999,13986 79999,13996 80001,14005 80002,14015 80004,14025 80007,14034 80010,14044 80014,14053 80018,14062 80022,14071 80027,14079 80032,14088 80038,14096 80044,14103 80050,14111 80057,14118 80064,14125 80072,14131 80080,14137 80088,14143 80096,14148 80105,14153 80113,14158 80122,14162 80132,14165 80141,14168 80151,14171 80160,14173 80170,14175 80180,14176 80190,14177 80201,14177 80210,14177 80220,14176 80230,14175 80240,14173 80249,14171 80259,14168 80268,14165 80277,14162 80287,14158 80295,14153 80304,14148 80312,14143 80320,14137 80328,14131 80336,14125 80343,14118 80349,14111 80356,14103 80362,14096 80368,14088 80373,14079 80378,14071 80382,14062 80386,14053 80390,14044 80393,14034 80396,14025 80398,14015 80399,14005 80401,13996 80401,13986 80402,13976 Z"/>
   </g>
  </g>
  <g class="com.sun.star.drawing.PolyPolygonShape">
   <g id="id7">
    <rect class="BoundingBox" stroke="none" fill="none" x="79998" y="13314" width="405" height="404"/>
    <path fill="rgb(255,0,0)" stroke="none" d="M 80402,13516 L 80401,13506 80401,13496 80399,13486 80398,13477 80396,13466 80393,13456 80390,13447 80386,13438 80382,13429 80378,13420 80373,13412 80368,13403 80362,13395 80356,13387 80349,13380 80343,13373 80336,13366 80328,13359 80320,13353 80312,13348 80304,13342 80295,13338 80287,13333 80277,13329 80268,13326 80259,13322 80249,13320 80240,13318 80230,13316 80220,13315 80210,13314 80201,13314 80190,13314 80180,13315 80170,13316 80160,13318 80151,13320 80141,13322 80132,13326 80122,13329 80113,13333 80105,13338 80096,13342 80088,13348 80080,13353 80072,13359 80064,13366 80057,13373 80050,13380 80044,13387 80038,13395 80032,13403 80027,13412 80022,13420 80018,13429 80014,13438 80010,13447 80007,13456 80004,13466 80002,13477 80001,13486 79999,13496 79999,13506 79998,13516 79999,13526 79999,13536 80001,13545 80002,13555 80004,13565 80007,13574 80010,13584 80014,13593 80018,13602 80022,13611 80027,13619 80032,13628 80038,13636 80044,13643 80050,13651 80057,13658 80064,13665 80072,13671 80080,13677 80088,13683 80096,13688 80105,13693 80113,13698 80122,13702 80132,13705 80141,13708 80151,13711 80160,13713 80170,13715 80180,13716 80190,13717 80201,13717 80210,13717 80220,13716 80230,13715 80240,13713 80249,13711 80259,13708 80268,13705 80277,13702 80287,13698 80295,13693 80304,13688 80312,13683 80320,13677 80328,13671 80336,13665 80343,13658 80349,13651 80356,13643 80362,13636 80368,13628 80373,13619 80378,13611 80382,13602 80386,13593 80390,13584 80393,13574 80396,13565 80398,13555 80399,13545 80401,13536 80401,13526 80402,13516 Z"/>
   </g>
  </g>
 </g>
</svg>