<?xml version="1.0" encoding="UTF-8"?>
<!DOCTYPE svg PUBLIC "-//W3C//DTD SVG 1.1//EN" "http://www.w3.org/Graphics/SVG/1.1/DTD/svg11.dtd">
<svg version="1.2" width="28.51mm" height="25.02mm" viewBox="82175 12500 2851 2502" preserveAspectRatio="xMidYMid" fill-rule="evenodd" stroke-width="28.222" stroke-linejoin="round" xmlns="http://www.w3.org/2000/svg" xmlns:ooo="http://xml.openoffice.org/svg/export" xmlns:xlink="http://www.w3.org/1999/xlink" xmlns:presentation="http://sun.com/xmlns/staroffice/presentation" xmlns:smil="http://www.w3.org/2001/SMIL20/" xmlns:anim="urn:oasis:names:tc:opendocument:xmlns:animation:1.0" xml:space="preserve">
 <defs class="EmbeddedBulletChars">
  <g id="bullet-char-template-57356" transform="scale(0.00048828125,-0.00048828125)">
   <path d="M 580,1141 L 1163,571 580,0 -4,571 580,1141 Z"/>
  </g>
  <g id="bullet-char-template-57354" transform="scale(0.00048828125,-0.00048828125)">
   <path d="M 8,1128 L 1137,1128 1137,0 8,0 8,1128 Z"/>
  </g>
  <g id="bullet-char-template-10146" transform="scale(0.00048828125,-0.00048828125)">
   <path d="M 174,0 L 602,739 174,1481 1456,739 174,0 Z M 1358,739 L 309,1346 659,739 1358,739 Z"/>
  </g>
  <g id="bullet-char-template-10132" transform="scale(0.00048828125,-0.00048828125)">
   <path d="M 2015,739 L 1276,0 717,0 1260,543 174,543 174,936 1260,936 717,1481 1274,1481 2015,739 Z"/>
  </g>
  <g id="bullet-char-template-10007" transform="scale(0.00048828125,-0.00048828125)">
   <path d="M 0,-2 C -7,14 -16,27 -25,37 L 356,567 C 262,823 215,952 215,954 215,979 228,992 255,992 264,992 276,990 289,987 310,991 331,999 354,1012 L 381,999 492,748 772,1049 836,1024 860,1049 C 881,1039 901,1025 922,1006 886,937 835,863 770,784 769,783 710,716 594,584 L 774,223 C 774,196 753,168 711,139 L 727,119 C 717,90 699,76 672,76 641,76 570,178 457,381 L 164,-76 C 142,-110 111,-127 72,-127 30,-127 9,-110 8,-76 1,-67 -2,-52 -2,-32 -2,-23 -1,-13 0,-2 Z"/>
  </g>
  <g id="bullet-char-template-10004" transform="scale(0.00048828125,-0.00048828125)">
   <path d="M 285,-33 C 182,-33 111,30 74,156 52,228 41,333 41,471 41,549 55,616 82,672 116,743 169,778 240,778 293,778 328,747 346,684 L 369,508 C 377,444 397,411 428,410 L 1163,1116 C 1174,1127 1196,1133 1229,1133 1271,1133 1292,1118 1292,1087 L 1292,965 C 1292,929 1282,901 1262,881 L 442,47 C 390,-6 338,-33 285,-33 Z"/>
  </g>
  <g id="bullet-char-template-9679" transform="scale(0.00048828125,-0.00048828125)">
   <path d="M 813,0 C 632,0 489,54 383,161 276,268 223,411 223,592 223,773 276,916 383,1023 489,1130 632,1184 813,1184 992,1184 1136,1130 1245,1023 1353,916 1407,772 1407,592 1407,412 1353,268 1245,161 1136,54 992,0 813,0 Z"/>
  </g>
  <g id="bullet-char-template-8226" transform="scale(0.00048828125,-0.00048828125)">
   <path d="M 346,457 C 273,457 209,483 155,535 101,586 74,649 74,723 74,796 101,859 155,911 209,963 273,989 346,989 419,989 480,963 531,910 582,859 608,796 608,723 608,648 583,586 532,535 482,483 420,457 346,457 Z"/>
  </g>
  <g id="bullet-char-template-8211" transform="scale(0.00048828125,-0.00048828125)">
   <path d="M -4,459 L 1135,459 1135,606 -4,606 -4,459 Z"/>
  </g>
  <g id="bullet-char-template-61548" transform="scale(0.00048828125,-0.00048828125)">
   <path d="M 173,740 C 173,903 231,1043 346,1159 462,1274 601,1332 765,1332 928,1332 1067,1274 1183,1159 1299,1043 1357,903 1357,740 1357,577 1299,437 1183,322 1067,206 928,148 765,148 601,148 462,206 346,322 231,437 173,577 173,740 Z"/>
  </g>
 </defs>
 <g class="Page">
  <g class="com.sun.star.drawing.PolyPolygonShape">
   <g id="id3">
    <rect class="BoundingBox" stroke="none" fill="none" x="82175" y="12500" width="2851" height="2502"/>
    <path fill="rgb(255,0,0)" stroke="none" d="M 83492,12561 L 82191,14815 82188,14822 82184,14829 82182,14837 82179,14844 82177,14852 82176,14860 82175,14868 82175,14876 82175,14885 82176,14893 82177,14901 82179,14909 82182,14916 82184,14924 82188,14931 82191,14939 82196,14945 82200,14952 82206,14958 82211,14964 82217,14970 82223,14975 82230,14980 82237,14984 82244,14988 82251,14991 82259,14994 82267,14996 82275,14998 82283,14999 82291,15000 82299,15001 84901,15001 84909,15000 84917,14999 84925,14998 84933,14996 84941,14994 84949,14991 84956,14988 84963,14984 84970,14980 84977,14975 84983,14970 84989,14964 84994,14958 85000,14952 85004,14945 85009,14939 85012,14931 85016,14924 85018,14916 85021,14909 85023,14901 85024,14893 85025,14885 85025,14876 85025,14868 85024,14860 85023,14852 85021,14844 85018,14837 85016,14829 85012,14822 85009,14815 83707,12561 83703,12555 83698,12548 83693,12542 83687,12536 83681,12530 83675,12525 83668,12520 83662,12516 83654,12512 83647,12509 83639,12506 83632,12504 83624,12502 83616,12501 83608,12500 83599,12500 83591,12500 83583,12501 83575,12502 83567,12504 83560,12506 83552,12509 83545,12512 83537,12516 83531,12520 83524,12525 83518,12530 83512,12536 83506,12542 83501,12548 83496,12555 83492,12561 Z"/>
   </g>
  </g>
  <g class="com.sun.star.drawing.PolyPolygonShape">
   <g id="id4">
    <rect class="BoundingBox" stroke="none" fill="none" x="82609" y="12982" width="1983" height="1717"/>
    <path fill="rgb(255,255,255)" stroke="none" d="M 84591,14698 L 83600,12982 82609,14698 84591,14698 Z"/>
   </g>
  </g>
  <g class="com.sun.star.drawing.PolyPolygonShape">
   <g id="id5">
    <rect class="BoundingBox" stroke="none" fill="none" x="83164" y="13740" width="869" height="790"/>
    <path fill="rgb(0,0,0)" stroke="none" d="M 83988,14187 L 84032,14077 83984,14066 83899,14152 83885,14146 83871,14140 83857,14134 83843,14129 83828,14124 83814,14120 83799,14116 83784,14112 83651,14081 83667,14010 83851,13751 83804,13740 83451,14035 83329,14007 83309,14001 83289,13997 83269,13995 83248,13993 83227,13993 83206,13994 83186,13997 83165,14001 83164,14001 83164,14002 83164,14003 83165,14004 83181,14017 83198,14028 83216,14038 83235,14047 83254,14055 83274,14062 83294,14067 83314,14071 83436,14100 83623,14519 83670,14529 83619,14217 83636,14146 83769,14177 83784,14180 83799,14183 83814,14185 83829,14187 83844,14189 83859,14190 83874,14191 83890,14191 83928,14306 83976,14317 83985,14199 84004,14197 83988,14187 Z"/>
   </g>
  </g>
 </g>
</svg>