<?xml version="1.0" encoding="UTF-8"?>
<!DOCTYPE svg PUBLIC "-//W3C//DTD SVG 1.1//EN" "http://www.w3.org/Graphics/SVG/1.1/DTD/svg11.dtd">
<svg version="1.2" width="28.52mm" height="25.02mm" viewBox="85474 12500 2852 2502" preserveAspectRatio="xMidYMid" fill-rule="evenodd" stroke-width="28.222" stroke-linejoin="round" xmlns="http://www.w3.org/2000/svg" xmlns:ooo="http://xml.openoffice.org/svg/export" xmlns:xlink="http://www.w3.org/1999/xlink" xmlns:presentation="http://sun.com/xmlns/staroffice/presentation" xmlns:smil="http://www.w3.org/2001/SMIL20/" xmlns:anim="urn:oasis:names:tc:opendocument:xmlns:animation:1.0" xml:space="preserve">
 <defs class="EmbeddedBulletChars">
  <g id="bullet-char-template-57356" transform="scale(0.00048828125,-0.00048828125)">
   <path d="M 580,1141 L 1163,571 580,0 -4,571 580,1141 Z"/>
  </g>
  <g id="bullet-char-template-57354" transform="scale(0.00048828125,-0.00048828125)">
   <path d="M 8,1128 L 1137,1128 1137,0 8,0 8,1128 Z"/>
  </g>
  <g id="bullet-char-template-10146" transform="scale(0.00048828125,-0.00048828125)">
   <path d="M 174,0 L 602,739 174,1481 1456,739 174,0 Z M 1358,739 L 309,1346 659,739 1358,739 Z"/>
  </g>
  <g id="bullet-char-template-10132" transform="scale(0.00048828125,-0.00048828125)">
   <path d="M 2015,739 L 1276,0 717,0 1260,543 174,543 174,936 1260,936 717,1481 1274,1481 2015,739 Z"/>
  </g>
  <g id="bullet-char-template-10007" transform="scale(0.00048828125,-0.00048828125)">
   <path d="M 0,-2 C -7,14 -16,27 -25,37 L 356,567 C 262,823 215,952 215,954 215,979 228,992 255,992 264,992 276,990 289,987 310,991 331,999 354,1012 L 381,999 492,748 772,1049 836,1024 860,1049 C 881,1039 901,1025 922,1006 886,937 835,863 770,784 769,783 710,716 594,584 L 774,223 C 774,196 753,168 711,139 L 727,119 C 717,90 699,76 672,76 641,76 570,178 457,381 L 164,-76 C 142,-110 111,-127 72,-127 30,-127 9,-110 8,-76 1,-67 -2,-52 -2,-32 -2,-23 -1,-13 0,-2 Z"/>
  </g>
  <g id="bullet-char-template-10004" transform="scale(0.00048828125,-0.00048828125)">
   <path d="M 285,-33 C 182,-33 111,30 74,156 52,228 41,333 41,471 41,549 55,616 82,672 116,743 169,778 240,778 293,778 328,747 346,684 L 369,508 C 377,444 397,411 428,410 L 1163,1116 C 1174,1127 1196,1133 1229,1133 1271,1133 1292,1118 1292,1087 L 1292,965 C 1292,929 1282,901 1262,881 L 442,47 C 390,-6 338,-33 285,-33 Z"/>
  </g>
  <g id="bullet-char-template-9679" transform="scale(0.00048828125,-0.00048828125)">
   <path d="M 813,0 C 632,0 489,54 383,161 276,268 223,411 223,592 223,773 276,916 383,1023 489,1130 632,1184 813,1184 992,1184 1136,1130 1245,1023 1353,916 1407,772 1407,592 1407,412 1353,268 1245,161 1136,54 992,0 813,0 Z"/>
  </g>
  <g id="bullet-char-template-8226" transform="scale(0.00048828125,-0.00048828125)">
   <path d="M 346,457 C 273,457 209,483 155,535 101,586 74,649 74,723 74,796 101,859 155,911 209,963 273,989 346,989 419,989 480,963 531,910 582,859 608,796 608,723 608,648 583,586 532,535 482,483 420,457 346,457 Z"/>
  </g>
  <g id="bullet-char-template-8211" transform="scale(0.00048828125,-0.00048828125)">
   <path d="M -4,459 L 1135,459 1135,606 -4,606 -4,459 Z"/>
  </g>
  <g id="bullet-char-template-61548" transform="scale(0.00048828125,-0.00048828125)">
   <path d="M 173,740 C 173,903 231,1043 346,1159 462,1274 601,1332 765,1332 928,1332 1067,1274 1183,1159 1299,1043 1357,903 1357,740 1357,577 1299,437 1183,322 1067,206 928,148 765,148 601,148 462,206 346,322 231,437 173,577 173,740 Z"/>
  </g>
 </defs>
 <g class="Page">
  <g class="com.sun.star.drawing.PolyPolygonShape">
   <g id="id3">
    <rect class="BoundingBox" stroke="none" fill="none" x="85474" y="12500" width="2852" height="2502"/>
    <path fill="rgb(255,0,0)" stroke="none" d="M 86792,12561 L 85491,14815 85488,14822 85484,14829 85481,14837 85479,14844 85477,14852 85476,14860 85475,14868 85475,14876 85475,14885 85476,14893 85477,14901 85479,14909 85481,14916 85484,14924 85488,14931 85491,14939 85496,14945 85500,14952 85506,14958 85511,14964 85517,14970 85523,14975 85530,14980 85537,14984 85544,14988 85551,14991 85559,14994 85567,14996 85575,14998 85583,14999 85591,15000 85599,15001 88201,15001 88209,15000 88217,14999 88225,14998 88233,14996 88241,14994 88249,14991 88256,14988 88263,14984 88270,14980 88277,14975 88283,14970 88289,14964 88294,14958 88300,14952 88304,14945 88309,14939 88312,14931 88316,14924 88319,14916 88321,14909 88323,14901 88324,14893 88325,14885 88325,14876 88325,14868 88324,14860 88323,14852 88321,14844 88319,14837 88316,14829 88312,14822 88309,14815 87008,12561 87004,12555 86999,12548 86994,12542 86988,12536 86982,12530 86976,12525 86969,12520 86963,12516 86955,12512 86948,12509 86940,12506 86933,12504 86925,12502 86917,12501 86909,12500 86901,12500 86891,12500 86883,12501 86875,12502 86867,12504 86860,12506 86852,12509 86845,12512 86837,12516 86831,12520 86824,12525 86818,12530 86812,12536 86806,12542 86801,12548 86796,12555 86792,12561 Z"/>
   </g>
  </g>
  <g class="com.sun.star.drawing.PolyPolygonShape">
   <g id="id4">
    <rect class="BoundingBox" stroke="none" fill="none" x="85909" y="12982" width="1983" height="1717"/>
    <path fill="rgb(255,255,255)" stroke="none" d="M 87891,14698 L 86901,12982 85909,14698 87891,14698 Z"/>
   </g>
  </g>
  <g class="com.sun.star.drawing.PolyPolygonShape">
   <g id="id5">
    <rect class="BoundingBox" stroke="none" fill="none" x="86604" y="13939" width="593" height="578"/>
    <path fill="rgb(0,0,0)" stroke="none" d="M 86868,14017 L 86859,14021 86851,14026 86843,14032 86836,14038 86829,14046 86824,14054 86819,14062 86815,14071 86812,14080 86810,14090 86808,14100 86808,14110 86809,14119 86810,14129 86813,14138 86816,14147 86883,14173 86880,14165 86878,14156 86877,14147 86877,14139 86878,14130 86879,14121 86882,14113 86885,14104 86889,14097 86893,14089 86898,14081 86904,14075 86911,14069 86918,14063 86925,14059 86933,14055 86868,14017 Z M 87018,14226 L 87015,14219 87014,14212 87013,14205 87013,14197 87014,14190 87015,14183 87017,14176 87020,14169 87023,14162 87028,14156 87033,14151 87038,14146 87044,14141 87050,14137 87056,14134 87063,14131 87001,14095 86993,14098 86986,14102 86980,14107 86974,14113 86969,14118 86964,14125 86959,14131 86956,14139 86953,14146 86951,14154 86949,14162 86949,14170 86949,14178 86950,14186 86952,14194 86954,14201 87018,14226 Z M 87191,14205 L 87130,14170 87125,14173 87120,14177 87115,14181 87111,14186 87107,14191 87103,14196 87100,14201 87098,14207 87096,14213 87095,14219 87094,14226 87093,14232 87094,14238 87094,14245 87096,14251 87097,14257 87157,14280 87156,14275 87156,14269 87156,14264 87156,14258 87157,14253 87158,14247 87159,14242 87162,14237 87164,14232 87167,14227 87170,14223 87173,14218 87177,14215 87181,14211 87186,14208 87191,14205 Z M 86664,14025 L 86661,14031 86660,14037 86658,14043 86657,14049 86656,14056 86656,14062 86657,14068 86658,14074 86627,14013 86627,13997 86713,13958 86705,13965 86698,13972 86690,13980 86684,13988 86678,13997 86673,14006 86668,14015 86664,14025 Z M 86736,14116 L 86732,14106 86730,14095 86728,14084 86728,14073 86729,14063 86731,14053 86733,14042 86737,14032 86742,14023 86747,14014 86754,14006 86761,13998 86769,13991 86778,13985 86787,13980 86797,13975 86749,13948 86741,13952 86734,13957 86727,13962 86720,13968 86713,13974 86707,13980 86701,13986 86696,13993 86691,14001 86686,14008 86682,14016 86678,14024 86675,14032 86672,14041 86670,14049 86668,14058 86668,14064 86668,14069 86670,14075 86672,14080 86674,14085 86678,14091 86682,14094 86687,14097 86736,14116 Z M 86744,13939 L 87195,14202 87195,14208 87196,14214 87195,14220 87194,14226 87193,14232 87192,14237 87190,14243 87188,14249 87185,14254 87183,14259 87179,14264 87176,14269 87172,14274 87167,14278 87163,14282 87158,14285 86662,14092 86627,14021 86627,14516 86604,14516 86604,13998 86615,13998 86744,13939 Z"/>
   </g>
  </g>
 </g>
</svg>