<?xml version="1.0" encoding="UTF-8"?>
<!DOCTYPE svg PUBLIC "-//W3C//DTD SVG 1.1//EN" "http://www.w3.org/Graphics/SVG/1.1/DTD/svg11.dtd">
<svg version="1.2" width="28.51mm" height="25.02mm" viewBox="92275 12500 2851 2502" preserveAspectRatio="xMidYMid" fill-rule="evenodd" stroke-width="28.222" stroke-linejoin="round" xmlns="http://www.w3.org/2000/svg" xmlns:ooo="http://xml.openoffice.org/svg/export" xmlns:xlink="http://www.w3.org/1999/xlink" xmlns:presentation="http://sun.com/xmlns/staroffice/presentation" xmlns:smil="http://www.w3.org/2001/SMIL20/" xmlns:anim="urn:oasis:names:tc:opendocument:xmlns:animation:1.0" xml:space="preserve">
 <defs class="EmbeddedBulletChars">
  <g id="bullet-char-template-57356" transform="scale(0.00048828125,-0.00048828125)">
   <path d="M 580,1141 L 1163,571 580,0 -4,571 580,1141 Z"/>
  </g>
  <g id="bullet-char-template-57354" transform="scale(0.00048828125,-0.00048828125)">
   <path d="M 8,1128 L 1137,1128 1137,0 8,0 8,1128 Z"/>
  </g>
  <g id="bullet-char-template-10146" transform="scale(0.00048828125,-0.00048828125)">
   <path d="M 174,0 L 602,739 174,1481 1456,739 174,0 Z M 1358,739 L 309,1346 659,739 1358,739 Z"/>
  </g>
  <g id="bullet-char-template-10132" transform="scale(0.00048828125,-0.00048828125)">
   <path d="M 2015,739 L 1276,0 717,0 1260,543 174,543 174,936 1260,936 717,1481 1274,1481 2015,739 Z"/>
  </g>
  <g id="bullet-char-template-10007" transform="scale(0.00048828125,-0.00048828125)">
   <path d="M 0,-2 C -7,14 -16,27 -25,37 L 356,567 C 262,823 215,952 215,954 215,979 228,992 255,992 264,992 276,990 289,987 310,991 331,999 354,1012 L 381,999 492,748 772,1049 836,1024 860,1049 C 881,1039 901,1025 922,1006 886,937 835,863 770,784 769,783 710,716 594,584 L 774,223 C 774,196 753,168 711,139 L 727,119 C 717,90 699,76 672,76 641,76 570,178 457,381 L 164,-76 C 142,-110 111,-127 72,-127 30,-127 9,-110 8,-76 1,-67 -2,-52 -2,-32 -2,-23 -1,-13 0,-2 Z"/>
  </g>
  <g id="bullet-char-template-10004" transform="scale(0.00048828125,-0.00048828125)">
   <path d="M 285,-33 C 182,-33 111,30 74,156 52,228 41,333 41,471 41,549 55,616 82,672 116,743 169,778 240,778 293,778 328,747 346,684 L 369,508 C 377,444 397,411 428,410 L 1163,1116 C 1174,1127 1196,1133 1229,1133 1271,1133 1292,1118 1292,1087 L 1292,965 C 1292,929 1282,901 1262,881 L 442,47 C 390,-6 338,-33 285,-33 Z"/>
  </g>
  <g id="bullet-char-template-9679" transform="scale(0.00048828125,-0.00048828125)">
   <path d="M 813,0 C 632,0 489,54 383,161 276,268 223,411 223,592 223,773 276,916 383,1023 489,1130 632,1184 813,1184 992,1184 1136,1130 1245,1023 1353,916 1407,772 1407,592 1407,412 1353,268 1245,161 1136,54 992,0 813,0 Z"/>
  </g>
  <g id="bullet-char-template-8226" transform="scale(0.00048828125,-0.00048828125)">
   <path d="M 346,457 C 273,457 209,483 155,535 101,586 74,649 74,723 74,796 101,859 155,911 209,963 273,989 346,989 419,989 480,963 531,910 582,859 608,796 608,723 608,648 583,586 532,535 482,483 420,457 346,457 Z"/>
  </g>
  <g id="bullet-char-template-8211" transform="scale(0.00048828125,-0.00048828125)">
   <path d="M -4,459 L 1135,459 1135,606 -4,606 -4,459 Z"/>
  </g>
  <g id="bullet-char-template-61548" transform="scale(0.00048828125,-0.00048828125)">
   <path d="M 173,740 C 173,903 231,1043 346,1159 462,1274 601,1332 765,1332 928,1332 1067,1274 1183,1159 1299,1043 1357,903 1357,740 1357,577 1299,437 1183,322 1067,206 928,148 765,148 601,148 462,206 346,322 231,437 173,577 173,740 Z"/>
  </g>
 </defs>
 <g class="Page">
  <g class="com.sun.star.drawing.PolyPolygonShape">
   <g id="id3">
    <rect class="BoundingBox" stroke="none" fill="none" x="92275" y="12500" width="2851" height="2502"/>
    <path fill="rgb(255,0,0)" stroke="none" d="M 93593,12561 L 92291,14815 92288,14822 92284,14829 92281,14837 92279,14844 92277,14852 92276,14860 92275,14868 92275,14876 92275,14885 92276,14893 92277,14901 92279,14909 92281,14916 92284,14924 92288,14931 92291,14939 92296,14945 92300,14952 92306,14958 92311,14964 92317,14970 92323,14975 92330,14980 92337,14984 92344,14988 92351,14991 92359,14994 92367,14996 92375,14998 92383,14999 92391,15000 92399,15001 95001,15001 95009,15000 95017,14999 95025,14998 95033,14996 95041,14994 95049,14991 95056,14988 95063,14984 95070,14980 95077,14975 95083,14970 95089,14964 95094,14958 95100,14952 95104,14945 95109,14939 95112,14931 95116,14924 95118,14916 95121,14909 95123,14901 95124,14893 95125,14885 95125,14876 95125,14868 95124,14860 95123,14852 95121,14844 95118,14837 95116,14829 95112,14822 95109,14815 93808,12561 93804,12555 93799,12548 93794,12542 93788,12536 93782,12530 93776,12525 93769,12520 93763,12516 93755,12512 93748,12509 93740,12506 93733,12504 93725,12502 93717,12501 93709,12500 93701,12500 93692,12500 93684,12501 93676,12502 93668,12504 93661,12506 93653,12509 93646,12512 93638,12516 93632,12520 93625,12525 93619,12530 93613,12536 93607,12542 93602,12548 93597,12555 93593,12561 Z"/>
   </g>
  </g>
  <g class="com.sun.star.drawing.PolyPolygonShape">
   <g id="id4">
    <rect class="BoundingBox" stroke="none" fill="none" x="92709" y="12982" width="1983" height="1717"/>
    <path fill="rgb(255,255,255)" stroke="none" d="M 94691,14698 L 93700,12982 92709,14698 94691,14698 Z"/>
   </g>
  </g>
  <g class="com.sun.star.drawing.PolyPolygonShape">
   <g id="id5">
    <rect class="BoundingBox" stroke="none" fill="none" x="93218" y="13868" width="965" height="743"/>
    <path fill="rgb(0,0,0)" stroke="none" d="M 94007,14435 L 93919,14435 93919,14091 94007,14091 94007,14435 Z M 93831,14435 L 93743,14435 93743,14091 93831,14091 93831,14435 Z M 93656,14435 L 93568,14435 93568,14091 93656,14091 93656,14435 Z M 93481,14435 L 93393,14435 93393,14091 93481,14091 93481,14435 Z M 94051,13868 L 94095,13912 94095,14003 94182,14003 94182,14091 94095,14091 94095,14435 94182,14435 94182,14523 94095,14523 94095,14610 94007,14610 94007,14523 93919,14523 93919,14610 93831,14610 93831,14523 93743,14523 93743,14610 93656,14610 93656,14523 93568,14523 93568,14610 93481,14610 93481,14523 93393,14523 93393,14610 93305,14610 93305,14523 93218,14523 93218,14435 93305,14435 93305,14091 93218,14091 93218,14003 93305,14003 93305,13912 93349,13868 93393,13912 93393,14003 93481,14003 93481,13912 93524,13868 93568,13912 93568,14003 93656,14003 93656,13912 93700,13868 93743,13912 93743,14003 93831,14003 93831,13912 93875,13868 93919,13912 93919,14003 94007,14003 94007,13912 94051,13868 Z"/>
   </g>
  </g>
 </g>
</svg>