<?xml version="1.0" encoding="UTF-8"?>
<!DOCTYPE svg PUBLIC "-//W3C//DTD SVG 1.1//EN" "http://www.w3.org/Graphics/SVG/1.1/DTD/svg11.dtd">
<svg version="1.2" width="28.52mm" height="25.02mm" viewBox="95674 12500 2852 2502" preserveAspectRatio="xMidYMid" fill-rule="evenodd" stroke-width="28.222" stroke-linejoin="round" xmlns="http://www.w3.org/2000/svg" xmlns:ooo="http://xml.openoffice.org/svg/export" xmlns:xlink="http://www.w3.org/1999/xlink" xmlns:presentation="http://sun.com/xmlns/staroffice/presentation" xmlns:smil="http://www.w3.org/2001/SMIL20/" xmlns:anim="urn:oasis:names:tc:opendocument:xmlns:animation:1.0" xml:space="preserve">
 <defs class="EmbeddedBulletChars">
  <g id="bullet-char-template-57356" transform="scale(0.00048828125,-0.00048828125)">
   <path d="M 580,1141 L 1163,571 580,0 -4,571 580,1141 Z"/>
  </g>
  <g id="bullet-char-template-57354" transform="scale(0.00048828125,-0.00048828125)">
   <path d="M 8,1128 L 1137,1128 1137,0 8,0 8,1128 Z"/>
  </g>
  <g id="bullet-char-template-10146" transform="scale(0.00048828125,-0.00048828125)">
   <path d="M 174,0 L 602,739 174,1481 1456,739 174,0 Z M 1358,739 L 309,1346 659,739 1358,739 Z"/>
  </g>
  <g id="bullet-char-template-10132" transform="scale(0.00048828125,-0.00048828125)">
   <path d="M 2015,739 L 1276,0 717,0 1260,543 174,543 174,936 1260,936 717,1481 1274,1481 2015,739 Z"/>
  </g>
  <g id="bullet-char-template-10007" transform="scale(0.00048828125,-0.00048828125)">
   <path d="M 0,-2 C -7,14 -16,27 -25,37 L 356,567 C 262,823 215,952 215,954 215,979 228,992 255,992 264,992 276,990 289,987 310,991 331,999 354,1012 L 381,999 492,748 772,1049 836,1024 860,1049 C 881,1039 901,1025 922,1006 886,937 835,863 770,784 769,783 710,716 594,584 L 774,223 C 774,196 753,168 711,139 L 727,119 C 717,90 699,76 672,76 641,76 570,178 457,381 L 164,-76 C 142,-110 111,-127 72,-127 30,-127 9,-110 8,-76 1,-67 -2,-52 -2,-32 -2,-23 -1,-13 0,-2 Z"/>
  </g>
  <g id="bullet-char-template-10004" transform="scale(0.00048828125,-0.00048828125)">
   <path d="M 285,-33 C 182,-33 111,30 74,156 52,228 41,333 41,471 41,549 55,616 82,672 116,743 169,778 240,778 293,778 328,747 346,684 L 369,508 C 377,444 397,411 428,410 L 1163,1116 C 1174,1127 1196,1133 1229,1133 1271,1133 1292,1118 1292,1087 L 1292,965 C 1292,929 1282,901 1262,881 L 442,47 C 390,-6 338,-33 285,-33 Z"/>
  </g>
  <g id="bullet-char-template-9679" transform="scale(0.00048828125,-0.00048828125)">
   <path d="M 813,0 C 632,0 489,54 383,161 276,268 223,411 223,592 223,773 276,916 383,1023 489,1130 632,1184 813,1184 992,1184 1136,1130 1245,1023 1353,916 1407,772 1407,592 1407,412 1353,268 1245,161 1136,54 992,0 813,0 Z"/>
  </g>
  <g id="bullet-char-template-8226" transform="scale(0.00048828125,-0.00048828125)">
   <path d="M 346,457 C 273,457 209,483 155,535 101,586 74,649 74,723 74,796 101,859 155,911 209,963 273,989 346,989 419,989 480,963 531,910 582,859 608,796 608,723 608,648 583,586 532,535 482,483 420,457 346,457 Z"/>
  </g>
  <g id="bullet-char-template-8211" transform="scale(0.00048828125,-0.00048828125)">
   <path d="M -4,459 L 1135,459 1135,606 -4,606 -4,459 Z"/>
  </g>
  <g id="bullet-char-template-61548" transform="scale(0.00048828125,-0.00048828125)">
   <path d="M 173,740 C 173,903 231,1043 346,1159 462,1274 601,1332 765,1332 928,1332 1067,1274 1183,1159 1299,1043 1357,903 1357,740 1357,577 1299,437 1183,322 1067,206 928,148 765,148 601,148 462,206 346,322 231,437 173,577 173,740 Z"/>
  </g>
 </defs>
 <g class="Page">
  <g class="com.sun.star.drawing.PolyPolygonShape">
   <g id="id3">
    <rect class="BoundingBox" stroke="none" fill="none" x="95674" y="12500" width="2852" height="2502"/>
    <path fill="rgb(255,0,0)" stroke="none" d="M 96992,12561 L 95691,14815 95688,14822 95684,14829 95682,14837 95679,14844 95677,14852 95676,14860 95675,14868 95675,14876 95675,14885 95676,14893 95677,14901 95679,14909 95682,14916 95684,14924 95688,14931 95691,14939 95696,14945 95700,14952 95706,14958 95711,14964 95717,14970 95723,14975 95730,14980 95737,14984 95744,14988 95751,14991 95759,14994 95767,14996 95775,14998 95783,14999 95791,15000 95799,15001 98401,15001 98409,15000 98417,14999 98425,14998 98433,14996 98441,14994 98449,14991 98456,14988 98463,14984 98470,14980 98477,14975 98483,14970 98489,14964 98494,14958 98500,14952 98504,14945 98509,14939 98512,14931 98516,14924 98519,14916 98521,14909 98523,14901 98524,14893 98525,14885 98525,14876 98525,14868 98524,14860 98523,14852 98521,14844 98519,14837 98516,14829 98512,14822 98509,14815 97207,12561 97203,12555 97198,12548 97193,12542 97187,12536 97181,12530 97175,12525 97168,12520 97162,12516 97154,12512 97147,12509 97139,12506 97132,12504 97124,12502 97116,12501 97108,12500 97100,12500 97091,12500 97083,12501 97075,12502 97067,12504 97060,12506 97052,12509 97045,12512 97038,12516 97031,12520 97024,12525 97018,12530 97012,12536 97006,12542 97001,12548 96996,12555 96992,12561 Z"/>
   </g>
  </g>
  <g class="com.sun.star.drawing.PolyPolygonShape">
   <g id="id4">
    <rect class="BoundingBox" stroke="none" fill="none" x="96109" y="12982" width="1983" height="1717"/>
    <path fill="rgb(255,255,255)" stroke="none" d="M 98091,14698 L 97100,12982 96109,14698 98091,14698 Z"/>
   </g>
  </g>
  <g class="com.sun.star.drawing.PolyPolygonShape">
   <g id="id5">
    <rect class="BoundingBox" stroke="none" fill="none" x="96418" y="13346" width="1215" height="1184"/>
    <path fill="rgb(0,0,0)" stroke="none" d="M 97478,14145 L 97544,14145 97544,14044 97478,14044 97478,14145 Z M 97354,14145 L 97461,14145 97455,14044 97372,14044 97354,14145 Z M 96472,14325 L 96472,14372 96418,14372 96418,14438 96510,14438 96511,14447 96514,14456 96517,14465 96522,14473 96526,14482 96532,14489 96538,14496 96545,14503 96553,14509 96561,14514 96569,14518 96578,14522 96586,14525 96596,14527 96605,14528 96615,14529 96624,14528 96633,14527 96643,14525 96652,14522 96660,14518 96669,14514 96677,14509 96684,14503 96691,14496 96697,14489 96703,14482 96708,14473 96712,14465 96715,14456 96718,14447 96720,14438 96782,14438 96784,14447 96787,14456 96790,14465 96794,14473 96799,14482 96805,14489 96811,14496 96818,14503 96825,14509 96833,14514 96842,14518 96850,14522 96859,14525 96869,14527 96878,14528 96887,14529 96897,14528 96906,14527 96915,14525 96924,14522 96933,14518 96941,14514 96949,14509 96957,14503 96964,14496 96970,14489 96976,14482 96980,14473 96985,14465 96988,14456 96991,14447 96992,14438 97055,14438 97057,14447 97060,14456 97063,14465 97067,14473 97072,14482 97077,14489 97084,14496 97091,14503 97098,14509 97106,14514 97114,14518 97123,14522 97132,14525 97141,14527 97151,14528 97160,14529 97170,14528 97179,14527 97188,14525 97197,14522 97206,14518 97214,14514 97222,14509 97230,14503 97236,14496 97243,14489 97248,14482 97253,14473 97257,14465 97261,14456 97263,14447 97265,14438 97328,14438 97330,14447 97332,14456 97336,14465 97340,14473 97345,14482 97350,14489 97357,14496 97363,14503 97371,14509 97379,14514 97387,14518 97396,14522 97405,14525 97414,14527 97423,14528 97433,14529 97442,14528 97452,14527 97461,14525 97470,14522 97479,14518 97487,14514 97495,14509 97502,14503 97509,14496 97515,14489 97521,14482 97526,14473 97530,14465 97534,14456 97536,14447 97538,14438 97631,14438 97631,14370 97580,14370 97580,14044 97631,14044 97631,14007 97357,14007 97318,14095 97198,14095 97198,14062 97078,14062 97078,14095 96984,14095 96986,14087 96987,14079 96987,14071 96986,14063 96984,14055 96981,14047 96978,14040 96973,14033 96968,14027 96962,14021 96956,14016 96949,14012 96941,14009 96934,14007 96926,14006 96918,14005 96910,14006 96902,14007 96894,14009 96886,14012 96880,14016 96873,14021 96867,14027 96862,14033 96858,14040 96854,14047 96851,14055 96849,14063 96849,14071 96849,14079 96850,14087 96851,14095 96728,14095 96728,14044 96731,14042 96733,14040 96735,14038 96737,14036 96738,14033 96739,14030 96739,14027 96739,14024 96739,14021 96738,14018 96737,14016 96735,14013 96733,14011 96731,14009 96728,14008 96725,14007 96724,13955 96732,13951 96739,13946 96745,13940 96752,13934 96758,13928 96764,13921 96769,13914 96774,13906 96778,13899 96782,13891 96786,13883 96789,13875 96791,13866 96793,13857 96795,13849 96796,13840 96805,13838 96814,13836 96823,13833 96832,13829 96841,13826 96849,13822 96858,13818 96866,13813 96874,13808 96882,13802 96889,13797 96897,13791 96904,13784 96910,13778 96917,13771 96923,13763 96932,13760 96941,13755 96950,13751 96959,13745 96968,13740 96976,13734 96984,13728 96992,13722 97000,13715 97007,13708 97014,13701 97021,13693 97027,13685 97033,13677 97039,13669 97044,13660 97051,13658 97057,13656 97063,13653 97068,13649 97073,13645 97078,13640 97083,13635 97087,13630 97090,13624 97093,13618 97095,13612 97096,13605 97097,13599 97098,13591 97098,13584 97096,13578 97101,13567 97105,13555 97108,13543 97110,13531 97111,13519 97110,13507 97109,13495 97107,13483 97110,13479 97114,13474 97116,13469 97119,13464 97121,13459 97123,13454 97124,13448 97126,13443 97126,13437 97127,13432 97127,13426 97126,13421 97126,13415 97124,13409 97123,13404 97121,13399 97119,13394 97116,13389 97114,13384 97110,13379 97107,13375 97103,13371 97099,13367 97095,13363 97090,13360 97085,13357 97080,13354 97075,13352 97070,13350 97065,13348 97059,13347 97053,13346 97048,13346 97042,13346 97037,13346 97031,13346 97026,13348 97020,13349 97015,13351 97010,13353 97005,13355 97000,13358 96995,13361 96991,13364 96986,13368 96982,13372 96979,13376 96975,13381 96972,13386 96969,13390 96967,13396 96965,13401 96963,13406 96962,13412 96961,13417 96960,13423 96960,13428 96960,13434 96961,13439 96961,13445 96963,13450 96964,13456 96966,13461 96969,13466 96961,13472 96953,13478 96946,13485 96939,13492 96933,13500 96928,13508 96922,13516 96918,13524 96914,13533 96910,13543 96907,13552 96905,13561 96903,13571 96902,13581 96902,13591 96902,13601 96884,13614 96866,13627 96850,13641 96834,13657 96819,13673 96805,13691 96793,13709 96781,13728 96774,13733 96766,13739 96759,13745 96752,13751 96745,13758 96739,13765 96733,13773 96728,13780 96723,13788 96718,13796 96714,13805 96710,13813 96707,13822 96704,13831 96701,13840 96699,13849 96691,13852 96683,13856 96675,13861 96667,13866 96660,13872 96653,13878 96647,13884 96641,13891 96639,13894 96636,13898 96635,13902 96633,13906 96632,13910 96631,13914 96630,13918 96630,13923 96630,14007 96628,14008 96625,14010 96623,14012 96621,14014 96620,14016 96619,14019 96618,14022 96618,14024 96618,14027 96618,14030 96619,14033 96620,14035 96621,14038 96623,14040 96625,14042 96627,14044 96627,14095 96535,14095 96533,14095 96530,14095 96528,14096 96526,14098 96524,14099 96522,14101 96521,14103 96520,14106 96484,14228 96483,14231 96482,14235 96482,14238 96482,14242 96483,14245 96484,14249 96486,14252 96488,14254 96523,14269 96506,14325 96472,14325 Z"/>
   </g>
  </g>
  <g class="com.sun.star.drawing.PolyPolygonShape">
   <g id="id6">
    <rect class="BoundingBox" stroke="none" fill="none" x="96387" y="14528" width="1275" height="32"/>
    <path fill="rgb(0,0,0)" stroke="none" d="M 97661,14528 L 96387,14528 96387,14559 97661,14559 97661,14528 Z"/>
   </g>
  </g>
 </g>
</svg>