<?xml version="1.0" encoding="UTF-8"?>
<!DOCTYPE svg PUBLIC "-//W3C//DTD SVG 1.1//EN" "http://www.w3.org/Graphics/SVG/1.1/DTD/svg11.dtd">
<svg version="1.2" width="19.25mm" height="28.52mm" viewBox="102138 12150 1925 2852" preserveAspectRatio="xMidYMid" fill-rule="evenodd" stroke-width="28.222" stroke-linejoin="round" xmlns="http://www.w3.org/2000/svg" xmlns:ooo="http://xml.openoffice.org/svg/export" xmlns:xlink="http://www.w3.org/1999/xlink" xmlns:presentation="http://sun.com/xmlns/staroffice/presentation" xmlns:smil="http://www.w3.org/2001/SMIL20/" xmlns:anim="urn:oasis:names:tc:opendocument:xmlns:animation:1.0" xml:space="preserve">
 <defs class="EmbeddedBulletChars">
  <g id="bullet-char-template-57356" transform="scale(0.00048828125,-0.00048828125)">
   <path d="M 580,1141 L 1163,571 580,0 -4,571 580,1141 Z"/>
  </g>
  <g id="bullet-char-template-57354" transform="scale(0.00048828125,-0.00048828125)">
   <path d="M 8,1128 L 1137,1128 1137,0 8,0 8,1128 Z"/>
  </g>
  <g id="bullet-char-template-10146" transform="scale(0.00048828125,-0.00048828125)">
   <path d="M 174,0 L 602,739 174,1481 1456,739 174,0 Z M 1358,739 L 309,1346 659,739 1358,739 Z"/>
  </g>
  <g id="bullet-char-template-10132" transform="scale(0.00048828125,-0.00048828125)">
   <path d="M 2015,739 L 1276,0 717,0 1260,543 174,543 174,936 1260,936 717,1481 1274,1481 2015,739 Z"/>
  </g>
  <g id="bullet-char-template-10007" transform="scale(0.00048828125,-0.00048828125)">
   <path d="M 0,-2 C -7,14 -16,27 -25,37 L 356,567 C 262,823 215,952 215,954 215,979 228,992 255,992 264,992 276,990 289,987 310,991 331,999 354,1012 L 381,999 492,748 772,1049 836,1024 860,1049 C 881,1039 901,1025 922,1006 886,937 835,863 770,784 769,783 710,716 594,584 L 774,223 C 774,196 753,168 711,139 L 727,119 C 717,90 699,76 672,76 641,76 570,178 457,381 L 164,-76 C 142,-110 111,-127 72,-127 30,-127 9,-110 8,-76 1,-67 -2,-52 -2,-32 -2,-23 -1,-13 0,-2 Z"/>
  </g>
  <g id="bullet-char-template-10004" transform="scale(0.00048828125,-0.00048828125)">
   <path d="M 285,-33 C 182,-33 111,30 74,156 52,228 41,333 41,471 41,549 55,616 82,672 116,743 169,778 240,778 293,778 328,747 346,684 L 369,508 C 377,444 397,411 428,410 L 1163,1116 C 1174,1127 1196,1133 1229,1133 1271,1133 1292,1118 1292,1087 L 1292,965 C 1292,929 1282,901 1262,881 L 442,47 C 390,-6 338,-33 285,-33 Z"/>
  </g>
  <g id="bullet-char-template-9679" transform="scale(0.00048828125,-0.00048828125)">
   <path d="M 813,0 C 632,0 489,54 383,161 276,268 223,411 223,592 223,773 276,916 383,1023 489,1130 632,1184 813,1184 992,1184 1136,1130 1245,1023 1353,916 1407,772 1407,592 1407,412 1353,268 1245,161 1136,54 992,0 813,0 Z"/>
  </g>
  <g id="bullet-char-template-8226" transform="scale(0.00048828125,-0.00048828125)">
   <path d="M 346,457 C 273,457 209,483 155,535 101,586 74,649 74,723 74,796 101,859 155,911 209,963 273,989 346,989 419,989 480,963 531,910 582,859 608,796 608,723 608,648 583,586 532,535 482,483 420,457 346,457 Z"/>
  </g>
  <g id="bullet-char-template-8211" transform="scale(0.00048828125,-0.00048828125)">
   <path d="M -4,459 L 1135,459 1135,606 -4,606 -4,459 Z"/>
  </g>
  <g id="bullet-char-template-61548" transform="scale(0.00048828125,-0.00048828125)">
   <path d="M 173,740 C 173,903 231,1043 346,1159 462,1274 601,1332 765,1332 928,1332 1067,1274 1183,1159 1299,1043 1357,903 1357,740 1357,577 1299,437 1183,322 1067,206 928,148 765,148 601,148 462,206 346,322 231,437 173,577 173,740 Z"/>
  </g>
 </defs>
 <g class="Page">
  <g class="com.sun.star.drawing.PolyPolygonShape">
   <g id="id3">
    <rect class="BoundingBox" stroke="none" fill="none" x="102138" y="12150" width="1925" height="1181"/>
    <path fill="rgb(0,0,0)" stroke="none" d="M 103100,13330 L 102138,12386 102378,12150 103100,12858 103822,12150 104062,12386 103100,13330 Z"/>
   </g>
  </g>
  <g class="com.sun.star.drawing.PolyPolygonShape">
   <g id="id4">
    <rect class="BoundingBox" stroke="none" fill="none" x="102138" y="13112" width="1925" height="1890"/>
    <path fill="rgb(0,0,0)" stroke="none" d="M 102859,14057 L 102138,14764 102378,15001 103100,14293 103822,15001 104062,14764 103341,14057 104062,13348 103822,13112 103100,13820 102378,13112 102138,13348 102859,14057 Z"/>
   </g>
  </g>
  <g class="com.sun.star.drawing.PolyPolygonShape">
   <g id="id5">
    <rect class="BoundingBox" stroke="none" fill="none" x="103591" y="12171" width="450" height="442"/>
    <path fill="rgb(255,0,0)" stroke="none" d="M 103592,12396 L 103821,12172 104040,12386 103810,12612 103592,12396 Z"/>
   </g>
  </g>
  <g class="com.sun.star.drawing.PolyPolygonShape">
   <g id="id6">
    <rect class="BoundingBox" stroke="none" fill="none" x="103351" y="12396" width="461" height="453"/>
    <path fill="rgb(255,255,255)" stroke="none" d="M 103351,12633 L 103592,12396 103811,12612 103569,12848 103351,12633 Z"/>
   </g>
  </g>
  <g class="com.sun.star.drawing.PolyPolygonShape">
   <g id="id7">
    <rect class="BoundingBox" stroke="none" fill="none" x="103111" y="12632" width="461" height="453"/>
    <path fill="rgb(255,0,0)" stroke="none" d="M 103111,12868 L 103352,12632 103570,12847 103330,13084 103111,12868 Z"/>
   </g>
  </g>
  <g class="com.sun.star.drawing.PolyPolygonShape">
   <g id="id8">
    <rect class="BoundingBox" stroke="none" fill="none" x="102882" y="12879" width="437" height="431"/>
    <path fill="rgb(255,255,255)" stroke="none" d="M 102882,13094 L 103099,13308 103318,13094 103099,12880 102882,13094 Z"/>
   </g>
  </g>
  <g class="com.sun.star.drawing.PolyPolygonShape">
   <g id="id9">
    <rect class="BoundingBox" stroke="none" fill="none" x="102630" y="12632" width="460" height="453"/>
    <path fill="rgb(255,0,0)" stroke="none" d="M 103089,12868 L 102849,12632 102630,12847 102871,13084 103089,12868 Z"/>
   </g>
  </g>
  <g class="com.sun.star.drawing.PolyPolygonShape">
   <g id="id10">
    <rect class="BoundingBox" stroke="none" fill="none" x="102160" y="12171" width="449" height="442"/>
    <path fill="rgb(255,0,0)" stroke="none" d="M 102608,12396 L 102379,12172 102160,12386 102390,12612 102608,12396 Z"/>
   </g>
  </g>
  <g class="com.sun.star.drawing.PolyPolygonShape">
   <g id="id11">
    <rect class="BoundingBox" stroke="none" fill="none" x="102389" y="12396" width="461" height="453"/>
    <path fill="rgb(255,255,255)" stroke="none" d="M 102849,12633 L 102607,12396 102389,12612 102630,12848 102849,12633 Z"/>
   </g>
  </g>
  <g class="com.sun.star.drawing.PolyPolygonShape">
   <g id="id12">
    <rect class="BoundingBox" stroke="none" fill="none" x="103591" y="14538" width="450" height="442"/>
    <path fill="rgb(255,0,0)" stroke="none" d="M 104040,14764 L 103810,14538 103592,14752 103821,14978 104040,14764 Z"/>
   </g>
  </g>
  <g class="com.sun.star.drawing.PolyPolygonShape">
   <g id="id13">
    <rect class="BoundingBox" stroke="none" fill="none" x="103351" y="14302" width="461" height="453"/>
    <path fill="rgb(255,255,255)" stroke="none" d="M 103811,14538 L 103569,14302 103351,14517 103592,14754 103811,14538 Z"/>
   </g>
  </g>
  <g class="com.sun.star.drawing.PolyPolygonShape">
   <g id="id14">
    <rect class="BoundingBox" stroke="none" fill="none" x="103591" y="13133" width="450" height="442"/>
    <path fill="rgb(255,0,0)" stroke="none" d="M 103592,13359 L 103821,13134 104040,13348 103810,13574 103592,13359 Z"/>
   </g>
  </g>
  <g class="com.sun.star.drawing.PolyPolygonShape">
   <g id="id15">
    <rect class="BoundingBox" stroke="none" fill="none" x="103351" y="13359" width="461" height="452"/>
    <path fill="rgb(255,255,255)" stroke="none" d="M 103351,13595 L 103592,13359 103811,13574 103569,13810 103351,13595 Z"/>
   </g>
  </g>
  <g class="com.sun.star.drawing.PolyPolygonShape">
   <g id="id16">
    <rect class="BoundingBox" stroke="none" fill="none" x="102630" y="13594" width="460" height="453"/>
    <path fill="rgb(255,0,0)" stroke="none" d="M 103089,13830 L 102849,13594 102630,13809 102871,14046 103089,13830 Z"/>
   </g>
  </g>
  <g class="com.sun.star.drawing.PolyPolygonShape">
   <g id="id17">
    <rect class="BoundingBox" stroke="none" fill="none" x="102160" y="14538" width="449" height="442"/>
    <path fill="rgb(255,0,0)" stroke="none" d="M 102160,14764 L 102390,14538 102608,14752 102379,14978 102160,14764 Z"/>
   </g>
  </g>
  <g class="com.sun.star.drawing.PolyPolygonShape">
   <g id="id18">
    <rect class="BoundingBox" stroke="none" fill="none" x="102389" y="14302" width="461" height="453"/>
    <path fill="rgb(255,255,255)" stroke="none" d="M 102389,14538 L 102630,14302 102849,14517 102607,14754 102389,14538 Z"/>
   </g>
  </g>
  <g class="com.sun.star.drawing.PolyPolygonShape">
   <g id="id19">
    <rect class="BoundingBox" stroke="none" fill="none" x="102630" y="14066" width="460" height="453"/>
    <path fill="rgb(255,0,0)" stroke="none" d="M 102630,14303 L 102871,14066 103089,14281 102849,14518 102630,14303 Z"/>
   </g>
  </g>
  <g class="com.sun.star.drawing.PolyPolygonShape">
   <g id="id20">
    <rect class="BoundingBox" stroke="none" fill="none" x="102389" y="13359" width="461" height="452"/>
    <path fill="rgb(255,255,255)" stroke="none" d="M 102849,13595 L 102607,13359 102389,13574 102630,13810 102849,13595 Z"/>
   </g>
  </g>
  <g class="com.sun.star.drawing.PolyPolygonShape">
   <g id="id21">
    <rect class="BoundingBox" stroke="none" fill="none" x="102160" y="13133" width="449" height="442"/>
    <path fill="rgb(255,0,0)" stroke="none" d="M 102608,13359 L 102379,13134 102160,13348 102390,13574 102608,13359 Z"/>
   </g>
  </g>
  <g class="com.sun.star.drawing.PolyPolygonShape">
   <g id="id22">
    <rect class="BoundingBox" stroke="none" fill="none" x="103111" y="13594" width="461" height="453"/>
    <path fill="rgb(255,0,0)" stroke="none" d="M 103111,13830 L 103352,13594 103570,13809 103330,14046 103111,13830 Z"/>
   </g>
  </g>
  <g class="com.sun.star.drawing.PolyPolygonShape">
   <g id="id23">
    <rect class="BoundingBox" stroke="none" fill="none" x="102882" y="13841" width="437" height="431"/>
    <path fill="rgb(255,255,255)" stroke="none" d="M 102882,14057 L 103099,14270 103318,14057 103099,13842 102882,14057 Z"/>
   </g>
  </g>
  <g class="com.sun.star.drawing.PolyPolygonShape">
   <g id="id24">
    <rect class="BoundingBox" stroke="none" fill="none" x="103111" y="14066" width="461" height="453"/>
    <path fill="rgb(255,0,0)" stroke="none" d="M 103570,14303 L 103330,14066 103111,14281 103352,14518 103570,14303 Z"/>
   </g>
  </g>
 </g>
</svg>