<?xml version="1.0" encoding="UTF-8"?>
<!DOCTYPE svg PUBLIC "-//W3C//DTD SVG 1.1//EN" "http://www.w3.org/Graphics/SVG/1.1/DTD/svg11.dtd">
<svg version="1.2" width="28.49mm" height="25.02mm" viewBox="104576 12500 2849 2502" preserveAspectRatio="xMidYMid" fill-rule="evenodd" stroke-width="28.222" stroke-linejoin="round" xmlns="http://www.w3.org/2000/svg" xmlns:ooo="http://xml.openoffice.org/svg/export" xmlns:xlink="http://www.w3.org/1999/xlink" xmlns:presentation="http://sun.com/xmlns/staroffice/presentation" xmlns:smil="http://www.w3.org/2001/SMIL20/" xmlns:anim="urn:oasis:names:tc:opendocument:xmlns:animation:1.0" xml:space="preserve">
 <defs class="EmbeddedBulletChars">
  <g id="bullet-char-template-57356" transform="scale(0.00048828125,-0.00048828125)">
   <path d="M 580,1141 L 1163,571 580,0 -4,571 580,1141 Z"/>
  </g>
  <g id="bullet-char-template-57354" transform="scale(0.00048828125,-0.00048828125)">
   <path d="M 8,1128 L 1137,1128 1137,0 8,0 8,1128 Z"/>
  </g>
  <g id="bullet-char-template-10146" transform="scale(0.00048828125,-0.00048828125)">
   <path d="M 174,0 L 602,739 174,1481 1456,739 174,0 Z M 1358,739 L 309,1346 659,739 1358,739 Z"/>
  </g>
  <g id="bullet-char-template-10132" transform="scale(0.00048828125,-0.00048828125)">
   <path d="M 2015,739 L 1276,0 717,0 1260,543 174,543 174,936 1260,936 717,1481 1274,1481 2015,739 Z"/>
  </g>
  <g id="bullet-char-template-10007" transform="scale(0.00048828125,-0.00048828125)">
   <path d="M 0,-2 C -7,14 -16,27 -25,37 L 356,567 C 262,823 215,952 215,954 215,979 228,992 255,992 264,992 276,990 289,987 310,991 331,999 354,1012 L 381,999 492,748 772,1049 836,1024 860,1049 C 881,1039 901,1025 922,1006 886,937 835,863 770,784 769,783 710,716 594,584 L 774,223 C 774,196 753,168 711,139 L 727,119 C 717,90 699,76 672,76 641,76 570,178 457,381 L 164,-76 C 142,-110 111,-127 72,-127 30,-127 9,-110 8,-76 1,-67 -2,-52 -2,-32 -2,-23 -1,-13 0,-2 Z"/>
  </g>
  <g id="bullet-char-template-10004" transform="scale(0.00048828125,-0.00048828125)">
   <path d="M 285,-33 C 182,-33 111,30 74,156 52,228 41,333 41,471 41,549 55,616 82,672 116,743 169,778 240,778 293,778 328,747 346,684 L 369,508 C 377,444 397,411 428,410 L 1163,1116 C 1174,1127 1196,1133 1229,1133 1271,1133 1292,1118 1292,1087 L 1292,965 C 1292,929 1282,901 1262,881 L 442,47 C 390,-6 338,-33 285,-33 Z"/>
  </g>
  <g id="bullet-char-template-9679" transform="scale(0.00048828125,-0.00048828125)">
   <path d="M 813,0 C 632,0 489,54 383,161 276,268 223,411 223,592 223,773 276,916 383,1023 489,1130 632,1184 813,1184 992,1184 1136,1130 1245,1023 1353,916 1407,772 1407,592 1407,412 1353,268 1245,161 1136,54 992,0 813,0 Z"/>
  </g>
  <g id="bullet-char-template-8226" transform="scale(0.00048828125,-0.00048828125)">
   <path d="M 346,457 C 273,457 209,483 155,535 101,586 74,649 74,723 74,796 101,859 155,911 209,963 273,989 346,989 419,989 480,963 531,910 582,859 608,796 608,723 608,648 583,586 532,535 482,483 420,457 346,457 Z"/>
  </g>
  <g id="bullet-char-template-8211" transform="scale(0.00048828125,-0.00048828125)">
   <path d="M -4,459 L 1135,459 1135,606 -4,606 -4,459 Z"/>
  </g>
  <g id="bullet-char-template-61548" transform="scale(0.00048828125,-0.00048828125)">
   <path d="M 173,740 C 173,903 231,1043 346,1159 462,1274 601,1332 765,1332 928,1332 1067,1274 1183,1159 1299,1043 1357,903 1357,740 1357,577 1299,437 1183,322 1067,206 928,148 765,148 601,148 462,206 346,322 231,437 173,577 173,740 Z"/>
  </g>
 </defs>
 <g class="Page">
  <g class="com.sun.star.drawing.PolyPolygonShape">
   <g id="id3">
    <rect class="BoundingBox" stroke="none" fill="none" x="104576" y="12500" width="2849" height="2502"/>
    <path fill="rgb(255,0,0)" stroke="none" d="M 105867,12576 L 104597,14770 104592,14779 104588,14788 104584,14798 104581,14807 104579,14817 104578,14827 104576,14837 104576,14847 104576,14857 104577,14867 104579,14877 104581,14887 104584,14896 104588,14906 104592,14915 104597,14924 104602,14932 104608,14940 104614,14948 104621,14955 104628,14962 104636,14969 104644,14975 104653,14980 104662,14985 104671,14989 104680,14992 104690,14995 104700,14998 104710,14999 104720,15000 104730,15001 107270,15001 107281,15000 107290,14999 107300,14998 107310,14995 107320,14992 107329,14989 107338,14985 107347,14980 107356,14975 107364,14969 107372,14962 107379,14955 107386,14948 107392,14940 107398,14932 107403,14924 107408,14915 107412,14906 107416,14896 107419,14887 107421,14877 107423,14867 107424,14857 107424,14847 107424,14837 107423,14827 107421,14817 107419,14807 107416,14798 107412,14788 107408,14779 107403,14770 106132,12576 106127,12568 106121,12559 106115,12552 106108,12544 106101,12538 106093,12531 106085,12525 106076,12520 106067,12515 106058,12511 106049,12508 106039,12505 106030,12502 106020,12501 106010,12500 106000,12500 105990,12500 105979,12501 105970,12502 105960,12505 105950,12508 105941,12511 105932,12515 105923,12520 105914,12525 105906,12531 105898,12538 105891,12544 105884,12552 105878,12559 105872,12568 105867,12576 Z"/>
   </g>
  </g>
  <g class="com.sun.star.drawing.PolyPolygonShape">
   <g id="id4">
    <rect class="BoundingBox" stroke="none" fill="none" x="104996" y="12959" width="2009" height="1736"/>
    <path fill="rgb(255,255,255)" stroke="none" d="M 107004,14694 L 106001,12959 104996,14694 107004,14694 Z"/>
   </g>
  </g>
  <g class="com.sun.star.drawing.PolyPolygonShape">
   <g id="id5">
    <rect class="BoundingBox" stroke="none" fill="none" x="105231" y="14595" width="1538" height="31"/>
    <path fill="rgb(0,0,0)" stroke="none" d="M 105232,14625 L 106768,14625 106768,14595 105232,14595 105232,14625 Z"/>
   </g>
  </g>
  <g class="com.sun.star.drawing.PolyPolygonShape">
   <g id="id6">
    <rect class="BoundingBox" stroke="none" fill="none" x="105263" y="13999" width="1475" height="568"/>
    <path fill="rgb(0,0,0)" stroke="none" d="M 106617,14245 L 106617,14385 106702,14385 106648,14245 106617,14245 Z M 106528,14385 L 106559,14385 106559,14245 106528,14245 106528,14385 Z M 106573,14385 L 106603,14385 106603,14245 106573,14245 106573,14385 Z M 105641,14017 L 105505,14099 105506,14102 105507,14104 105506,14106 105506,14108 105649,14195 105793,14108 105792,14106 105792,14104 105792,14102 105793,14099 105657,14017 105655,14018 105653,14019 105651,14020 105649,14020 105647,14020 105645,14019 105643,14018 105641,14017 Z M 105756,14385 L 105991,14385 105991,14245 105756,14245 105756,14385 Z M 105502,14385 L 105736,14385 105736,14245 105502,14245 105502,14385 Z M 105442,14385 L 105473,14385 105473,14245 105442,14245 105442,14385 Z M 106011,14385 L 106245,14385 106245,14245 106011,14245 106011,14385 Z M 105353,14245 L 105298,14385 105384,14385 105384,14245 105353,14245 Z M 105398,14385 L 105428,14385 105428,14245 105398,14245 105398,14385 Z M 106265,14385 L 106499,14385 106499,14245 106265,14245 106265,14385 Z M 105275,14548 L 105275,14566 105475,14566 105505,14515 105686,14515 105716,14566 106285,14566 106315,14515 106496,14515 106526,14566 106725,14566 106725,14548 106737,14548 106737,14519 106725,14519 106725,14385 106721,14385 106654,14215 106473,14215 106473,14197 105658,14197 105797,14113 105800,14114 105802,14115 105805,14114 105808,14113 105810,14112 105812,14109 105813,14107 105814,14104 105813,14101 105812,14099 105810,14096 105808,14095 105805,14093 105802,14093 105800,14094 105797,14095 105660,14011 105660,14009 105660,14007 105659,14004 105658,14002 105656,14001 105654,14000 105652,13999 105649,13999 105647,13999 105645,14000 105643,14001 105641,14002 105640,14004 105639,14007 105639,14009 105639,14011 105501,14095 105499,14094 105496,14093 105493,14093 105490,14095 105488,14096 105486,14099 105485,14101 105485,14104 105485,14107 105486,14109 105488,14112 105491,14113 105493,14114 105496,14115 105499,14114 105501,14113 105641,14197 105525,14197 105523,14206 105478,14206 105470,14206 105464,14205 105460,14205 105455,14204 105449,14202 105445,14201 105441,14200 105436,14199 105432,14198 105428,14198 105424,14197 105421,14197 105418,14197 105368,14197 105364,14197 105362,14198 105359,14199 105356,14200 105354,14202 105352,14204 105350,14207 105349,14209 105279,14385 105275,14385 105275,14519 105263,14519 105263,14548 105275,14548 Z"/>
   </g>
  </g>
  <g class="com.sun.star.drawing.PolyPolygonShape">
   <g id="id7">
    <rect class="BoundingBox" stroke="none" fill="none" x="105607" y="14524" width="73" height="74"/>
    <path fill="rgb(0,0,0)" stroke="none" d="M 105679,14560 L 105679,14553 105677,14546 105673,14540 105669,14535 105664,14530 105657,14527 105651,14525 105644,14524 105637,14525 105630,14527 105624,14530 105619,14535 105614,14540 105610,14546 105608,14553 105607,14560 105608,14567 105610,14574 105614,14580 105619,14585 105624,14590 105630,14594 105637,14596 105644,14597 105651,14596 105657,14594 105664,14590 105669,14585 105673,14580 105677,14574 105679,14567 105679,14560 Z"/>
   </g>
  </g>
  <g class="com.sun.star.drawing.PolyPolygonShape">
   <g id="id8">
    <rect class="BoundingBox" stroke="none" fill="none" x="105510" y="14524" width="74" height="74"/>
    <path fill="rgb(0,0,0)" stroke="none" d="M 105583,14560 L 105582,14553 105580,14546 105577,14540 105572,14535 105567,14530 105561,14527 105554,14525 105547,14524 105539,14525 105533,14527 105526,14530 105521,14535 105517,14540 105513,14546 105511,14553 105511,14560 105511,14567 105513,14574 105517,14580 105521,14585 105526,14590 105533,14594 105539,14596 105547,14597 105554,14596 105561,14594 105567,14590 105572,14585 105577,14580 105580,14574 105582,14567 105583,14560 Z"/>
   </g>
  </g>
  <g class="com.sun.star.drawing.PolyPolygonShape">
   <g id="id9">
    <rect class="BoundingBox" stroke="none" fill="none" x="106320" y="14524" width="74" height="74"/>
    <path fill="rgb(0,0,0)" stroke="none" d="M 106393,14560 L 106392,14553 106390,14546 106387,14540 106382,14535 106377,14530 106371,14527 106364,14525 106357,14524 106350,14525 106344,14527 106337,14530 106332,14535 106328,14540 106324,14546 106321,14553 106321,14560 106321,14567 106324,14574 106328,14580 106332,14585 106337,14590 106344,14594 106350,14596 106357,14597 106364,14596 106371,14594 106377,14590 106382,14585 106387,14580 106390,14574 106392,14567 106393,14560 Z"/>
   </g>
  </g>
  <g class="com.sun.star.drawing.PolyPolygonShape">
   <g id="id10">
    <rect class="BoundingBox" stroke="none" fill="none" x="106417" y="14524" width="74" height="74"/>
    <path fill="rgb(0,0,0)" stroke="none" d="M 106490,14560 L 106489,14553 106487,14546 106483,14540 106479,14535 106474,14530 106468,14527 106460,14525 106453,14524 106446,14525 106439,14527 106433,14530 106428,14535 106423,14540 106420,14546 106418,14553 106417,14560 106418,14567 106420,14574 106423,14580 106428,14585 106433,14590 106439,14594 106446,14596 106453,14597 106460,14596 106468,14594 106474,14590 106479,14585 106483,14580 106487,14574 106489,14567 106490,14560 Z"/>
   </g>
  </g>
 </g>
</svg>