<?xml version="1.0" encoding="UTF-8"?>
<!DOCTYPE svg PUBLIC "-//W3C//DTD SVG 1.1//EN" "http://www.w3.org/Graphics/SVG/1.1/DTD/svg11.dtd">
<svg version="1.2" width="28.51mm" height="25.02mm" viewBox="21075 12500 2851 2502" preserveAspectRatio="xMidYMid" fill-rule="evenodd" stroke-width="28.222" stroke-linejoin="round" xmlns="http://www.w3.org/2000/svg" xmlns:ooo="http://xml.openoffice.org/svg/export" xmlns:xlink="http://www.w3.org/1999/xlink" xmlns:presentation="http://sun.com/xmlns/staroffice/presentation" xmlns:smil="http://www.w3.org/2001/SMIL20/" xmlns:anim="urn:oasis:names:tc:opendocument:xmlns:animation:1.0" xml:space="preserve">
 <defs class="EmbeddedBulletChars">
  <g id="bullet-char-template-57356" transform="scale(0.00048828125,-0.00048828125)">
   <path d="M 580,1141 L 1163,571 580,0 -4,571 580,1141 Z"/>
  </g>
  <g id="bullet-char-template-57354" transform="scale(0.00048828125,-0.00048828125)">
   <path d="M 8,1128 L 1137,1128 1137,0 8,0 8,1128 Z"/>
  </g>
  <g id="bullet-char-template-10146" transform="scale(0.00048828125,-0.00048828125)">
   <path d="M 174,0 L 602,739 174,1481 1456,739 174,0 Z M 1358,739 L 309,1346 659,739 1358,739 Z"/>
  </g>
  <g id="bullet-char-template-10132" transform="scale(0.00048828125,-0.00048828125)">
   <path d="M 2015,739 L 1276,0 717,0 1260,543 174,543 174,936 1260,936 717,1481 1274,1481 2015,739 Z"/>
  </g>
  <g id="bullet-char-template-10007" transform="scale(0.00048828125,-0.00048828125)">
   <path d="M 0,-2 C -7,14 -16,27 -25,37 L 356,567 C 262,823 215,952 215,954 215,979 228,992 255,992 264,992 276,990 289,987 310,991 331,999 354,1012 L 381,999 492,748 772,1049 836,1024 860,1049 C 881,1039 901,1025 922,1006 886,937 835,863 770,784 769,783 710,716 594,584 L 774,223 C 774,196 753,168 711,139 L 727,119 C 717,90 699,76 672,76 641,76 570,178 457,381 L 164,-76 C 142,-110 111,-127 72,-127 30,-127 9,-110 8,-76 1,-67 -2,-52 -2,-32 -2,-23 -1,-13 0,-2 Z"/>
  </g>
  <g id="bullet-char-template-10004" transform="scale(0.00048828125,-0.00048828125)">
   <path d="M 285,-33 C 182,-33 111,30 74,156 52,228 41,333 41,471 41,549 55,616 82,672 116,743 169,778 240,778 293,778 328,747 346,684 L 369,508 C 377,444 397,411 428,410 L 1163,1116 C 1174,1127 1196,1133 1229,1133 1271,1133 1292,1118 1292,1087 L 1292,965 C 1292,929 1282,901 1262,881 L 442,47 C 390,-6 338,-33 285,-33 Z"/>
  </g>
  <g id="bullet-char-template-9679" transform="scale(0.00048828125,-0.00048828125)">
   <path d="M 813,0 C 632,0 489,54 383,161 276,268 223,411 223,592 223,773 276,916 383,1023 489,1130 632,1184 813,1184 992,1184 1136,1130 1245,1023 1353,916 1407,772 1407,592 1407,412 1353,268 1245,161 1136,54 992,0 813,0 Z"/>
  </g>
  <g id="bullet-char-template-8226" transform="scale(0.00048828125,-0.00048828125)">
   <path d="M 346,457 C 273,457 209,483 155,535 101,586 74,649 74,723 74,796 101,859 155,911 209,963 273,989 346,989 419,989 480,963 531,910 582,859 608,796 608,723 608,648 583,586 532,535 482,483 420,457 346,457 Z"/>
  </g>
  <g id="bullet-char-template-8211" transform="scale(0.00048828125,-0.00048828125)">
   <path d="M -4,459 L 1135,459 1135,606 -4,606 -4,459 Z"/>
  </g>
  <g id="bullet-char-template-61548" transform="scale(0.00048828125,-0.00048828125)">
   <path d="M 173,740 C 173,903 231,1043 346,1159 462,1274 601,1332 765,1332 928,1332 1067,1274 1183,1159 1299,1043 1357,903 1357,740 1357,577 1299,437 1183,322 1067,206 928,148 765,148 601,148 462,206 346,322 231,437 173,577 173,740 Z"/>
  </g>
 </defs>
 <g class="Page">
  <g class="com.sun.star.drawing.PolyPolygonShape">
   <g id="id3">
    <rect class="BoundingBox" stroke="none" fill="none" x="21075" y="12500" width="2851" height="2502"/>
    <path fill="rgb(255,0,0)" stroke="none" d="M 22393,12561 L 21091,14815 21088,14822 21084,14829 21082,14837 21079,14844 21077,14852 21076,14860 21075,14868 21075,14876 21075,14885 21076,14893 21077,14901 21079,14909 21082,14916 21084,14924 21088,14931 21091,14939 21096,14945 21100,14952 21106,14958 21111,14964 21117,14970 21123,14975 21130,14980 21137,14984 21144,14988 21151,14991 21159,14994 21167,14996 21175,14998 21183,14999 21191,15000 21199,15001 23801,15001 23809,15000 23817,14999 23825,14998 23833,14996 23841,14994 23849,14991 23856,14988 23863,14984 23870,14980 23877,14975 23883,14970 23889,14964 23894,14958 23900,14952 23904,14945 23909,14939 23912,14931 23916,14924 23919,14916 23921,14909 23923,14901 23924,14893 23925,14885 23925,14876 23925,14868 23924,14860 23923,14852 23921,14844 23919,14837 23916,14829 23912,14822 23909,14815 22608,12561 22604,12555 22599,12548 22594,12542 22588,12536 22582,12530 22576,12525 22569,12520 22563,12516 22555,12512 22548,12509 22540,12506 22533,12504 22525,12502 22517,12501 22509,12500 22501,12500 22492,12500 22484,12501 22476,12502 22468,12504 22461,12506 22453,12509 22446,12512 22438,12516 22432,12520 22425,12525 22419,12530 22413,12536 22407,12542 22402,12548 22397,12555 22393,12561 Z"/>
   </g>
  </g>
  <g class="com.sun.star.drawing.PolyPolygonShape">
   <g id="id4">
    <rect class="BoundingBox" stroke="none" fill="none" x="21509" y="12982" width="1983" height="1717"/>
    <path fill="rgb(255,255,255)" stroke="none" d="M 23491,14698 L 22500,12982 21509,14698 23491,14698 Z"/>
   </g>
  </g>
  <g class="com.sun.star.drawing.PolyPolygonShape">
   <g id="id5">
    <rect class="BoundingBox" stroke="none" fill="none" x="21509" y="13839" width="1983" height="859"/>
    <path fill="rgb(0,0,0)" stroke="none" d="M 22996,13839 L 21509,14697 23491,14697 22996,13839 Z"/>
   </g>
  </g>
  <g class="com.sun.star.drawing.PolyPolygonShape">
   <g id="id6">
    <rect class="BoundingBox" stroke="none" fill="none" x="22104" y="13791" width="221" height="396"/>
    <path fill="rgb(0,0,0)" stroke="none" d="M 22262,14186 L 22263,13874 22186,13918 22198,13939 22145,13970 22105,13901 22297,13791 22324,13839 22323,14151 22262,14186 Z"/>
   </g>
  </g>
  <g class="com.sun.star.drawing.PolyPolygonShape">
   <g id="id7">
    <rect class="BoundingBox" stroke="none" fill="none" x="22668" y="13720" width="170" height="170"/>
    <path fill="rgb(0,0,0)" stroke="none" d="M 22786,13804 L 22786,13798 22784,13791 22781,13786 22777,13780 22772,13776 22766,13773 22758,13771 22752,13771 22745,13771 22739,13773 22733,13776 22728,13780 22724,13786 22721,13791 22719,13798 22718,13804 22719,13811 22721,13817 22724,13823 22728,13828 22733,13832 22739,13836 22745,13838 22752,13838 22758,13838 22766,13836 22772,13832 22777,13828 22781,13823 22784,13817 22786,13811 22786,13804 Z M 22837,13804 L 22836,13796 22835,13788 22833,13780 22830,13772 22827,13765 22822,13758 22818,13751 22812,13745 22806,13739 22799,13735 22792,13730 22785,13727 22777,13724 22769,13722 22760,13721 22752,13720 22744,13721 22735,13722 22727,13724 22720,13727 22712,13730 22705,13735 22698,13739 22692,13745 22687,13751 22682,13758 22678,13765 22674,13772 22671,13780 22669,13788 22668,13796 22668,13804 22668,13813 22669,13821 22671,13829 22674,13836 22678,13844 22682,13851 22687,13858 22692,13865 22698,13870 22705,13875 22712,13879 22720,13883 22727,13886 22735,13888 22744,13889 22752,13889 22760,13889 22769,13888 22777,13886 22785,13883 22792,13879 22799,13875 22806,13870 22812,13865 22818,13858 22822,13851 22827,13844 22830,13836 22833,13829 22835,13821 22836,13813 22837,13804 Z"/>
   </g>
  </g>
  <g class="com.sun.star.drawing.PolyPolygonShape">
   <g id="id8">
    <rect class="BoundingBox" stroke="none" fill="none" x="22584" y="13591" width="46" height="409"/>
    <path fill="rgb(0,0,0)" stroke="none" d="M 22584,13616 L 22629,13591 22629,13974 22584,13999 22584,13616 Z"/>
   </g>
  </g>
  <g class="com.sun.star.drawing.PolyPolygonShape">
   <g id="id9">
    <rect class="BoundingBox" stroke="none" fill="none" x="22384" y="13598" width="170" height="171"/>
    <path fill="rgb(0,0,0)" stroke="none" d="M 22503,13683 L 22503,13677 22501,13670 22498,13664 22493,13659 22488,13655 22483,13652 22476,13650 22469,13649 22463,13650 22457,13652 22451,13655 22446,13659 22441,13664 22438,13670 22436,13677 22436,13683 22436,13690 22438,13697 22441,13703 22446,13708 22451,13712 22457,13715 22463,13717 22469,13718 22476,13717 22483,13715 22488,13712 22493,13708 22498,13703 22501,13697 22503,13690 22503,13683 Z M 22553,13683 L 22553,13675 22552,13667 22550,13659 22547,13651 22544,13644 22539,13636 22535,13630 22529,13624 22523,13618 22516,13613 22509,13609 22502,13606 22494,13603 22486,13601 22478,13600 22469,13599 22461,13600 22453,13601 22445,13603 22437,13606 22430,13609 22422,13613 22415,13618 22409,13624 22404,13630 22399,13636 22394,13644 22391,13651 22388,13659 22386,13667 22385,13675 22384,13683 22385,13691 22386,13701 22388,13709 22391,13716 22394,13724 22399,13731 22404,13737 22409,13744 22415,13749 22422,13754 22430,13758 22437,13762 22445,13765 22453,13767 22461,13768 22469,13768 22478,13768 22486,13767 22494,13765 22502,13762 22509,13758 22516,13754 22523,13749 22529,13744 22535,13737 22539,13731 22544,13724 22547,13716 22550,13709 22552,13701 22553,13691 22553,13683 Z"/>
   </g>
  </g>
 </g>
</svg>