<?xml version="1.0" encoding="UTF-8"?>
<!DOCTYPE svg PUBLIC "-//W3C//DTD SVG 1.1//EN" "http://www.w3.org/Graphics/SVG/1.1/DTD/svg11.dtd">
<svg version="1.2" width="20.91mm" height="18.35mm" viewBox="108055 12500 2091 1835" preserveAspectRatio="xMidYMid" fill-rule="evenodd" stroke-width="28.222" stroke-linejoin="round" xmlns="http://www.w3.org/2000/svg" xmlns:ooo="http://xml.openoffice.org/svg/export" xmlns:xlink="http://www.w3.org/1999/xlink" xmlns:presentation="http://sun.com/xmlns/staroffice/presentation" xmlns:smil="http://www.w3.org/2001/SMIL20/" xmlns:anim="urn:oasis:names:tc:opendocument:xmlns:animation:1.0" xml:space="preserve">
 <defs class="EmbeddedBulletChars">
  <g id="bullet-char-template-57356" transform="scale(0.00048828125,-0.00048828125)">
   <path d="M 580,1141 L 1163,571 580,0 -4,571 580,1141 Z"/>
  </g>
  <g id="bullet-char-template-57354" transform="scale(0.00048828125,-0.00048828125)">
   <path d="M 8,1128 L 1137,1128 1137,0 8,0 8,1128 Z"/>
  </g>
  <g id="bullet-char-template-10146" transform="scale(0.00048828125,-0.00048828125)">
   <path d="M 174,0 L 602,739 174,1481 1456,739 174,0 Z M 1358,739 L 309,1346 659,739 1358,739 Z"/>
  </g>
  <g id="bullet-char-template-10132" transform="scale(0.00048828125,-0.00048828125)">
   <path d="M 2015,739 L 1276,0 717,0 1260,543 174,543 174,936 1260,936 717,1481 1274,1481 2015,739 Z"/>
  </g>
  <g id="bullet-char-template-10007" transform="scale(0.00048828125,-0.00048828125)">
   <path d="M 0,-2 C -7,14 -16,27 -25,37 L 356,567 C 262,823 215,952 215,954 215,979 228,992 255,992 264,992 276,990 289,987 310,991 331,999 354,1012 L 381,999 492,748 772,1049 836,1024 860,1049 C 881,1039 901,1025 922,1006 886,937 835,863 770,784 769,783 710,716 594,584 L 774,223 C 774,196 753,168 711,139 L 727,119 C 717,90 699,76 672,76 641,76 570,178 457,381 L 164,-76 C 142,-110 111,-127 72,-127 30,-127 9,-110 8,-76 1,-67 -2,-52 -2,-32 -2,-23 -1,-13 0,-2 Z"/>
  </g>
  <g id="bullet-char-template-10004" transform="scale(0.00048828125,-0.00048828125)">
   <path d="M 285,-33 C 182,-33 111,30 74,156 52,228 41,333 41,471 41,549 55,616 82,672 116,743 169,778 240,778 293,778 328,747 346,684 L 369,508 C 377,444 397,411 428,410 L 1163,1116 C 1174,1127 1196,1133 1229,1133 1271,1133 1292,1118 1292,1087 L 1292,965 C 1292,929 1282,901 1262,881 L 442,47 C 390,-6 338,-33 285,-33 Z"/>
  </g>
  <g id="bullet-char-template-9679" transform="scale(0.00048828125,-0.00048828125)">
   <path d="M 813,0 C 632,0 489,54 383,161 276,268 223,411 223,592 223,773 276,916 383,1023 489,1130 632,1184 813,1184 992,1184 1136,1130 1245,1023 1353,916 1407,772 1407,592 1407,412 1353,268 1245,161 1136,54 992,0 813,0 Z"/>
  </g>
  <g id="bullet-char-template-8226" transform="scale(0.00048828125,-0.00048828125)">
   <path d="M 346,457 C 273,457 209,483 155,535 101,586 74,649 74,723 74,796 101,859 155,911 209,963 273,989 346,989 419,989 480,963 531,910 582,859 608,796 608,723 608,648 583,586 532,535 482,483 420,457 346,457 Z"/>
  </g>
  <g id="bullet-char-template-8211" transform="scale(0.00048828125,-0.00048828125)">
   <path d="M -4,459 L 1135,459 1135,606 -4,606 -4,459 Z"/>
  </g>
  <g id="bullet-char-template-61548" transform="scale(0.00048828125,-0.00048828125)">
   <path d="M 173,740 C 173,903 231,1043 346,1159 462,1274 601,1332 765,1332 928,1332 1067,1274 1183,1159 1299,1043 1357,903 1357,740 1357,577 1299,437 1183,322 1067,206 928,148 765,148 601,148 462,206 346,322 231,437 173,577 173,740 Z"/>
  </g>
 </defs>
 <g class="Page">
  <g class="com.sun.star.drawing.PolyPolygonShape">
   <g id="id3">
    <rect class="BoundingBox" stroke="none" fill="none" x="108055" y="12500" width="2091" height="1835"/>
    <path fill="rgb(255,0,0)" stroke="none" d="M 109021,12545 L 108067,14198 108066,14200 108064,14203 108063,14206 108062,14208 108061,14211 108060,14214 108059,14217 108058,14219 108057,14222 108056,14225 108056,14228 108056,14231 108055,14234 108055,14237 108055,14240 108055,14243 108055,14246 108055,14249 108055,14252 108056,14255 108056,14258 108056,14261 108057,14264 108058,14266 108059,14269 108060,14272 108061,14275 108062,14278 108063,14281 108064,14283 108066,14286 108067,14288 108069,14291 108070,14294 108072,14296 108074,14298 108075,14301 108077,14303 108079,14305 108081,14307 108083,14309 108086,14311 108088,14313 108090,14315 108093,14317 108095,14319 108098,14320 108100,14322 108103,14323 108105,14324 108108,14326 108111,14327 108114,14328 108116,14329 108119,14330 108122,14331 108125,14332 108128,14332 108131,14333 108134,14333 108137,14334 108140,14334 108143,14334 108146,14334 110054,14334 110057,14334 110060,14334 110063,14334 110066,14333 110069,14333 110072,14332 110075,14332 110078,14331 110081,14330 110084,14329 110087,14328 110089,14327 110092,14326 110095,14324 110097,14323 110100,14322 110102,14320 110105,14319 110107,14317 110110,14315 110112,14313 110114,14311 110117,14309 110119,14307 110121,14305 110123,14303 110125,14301 110126,14298 110128,14296 110130,14294 110131,14291 110133,14288 110135,14286 110136,14283 110137,14281 110138,14278 110139,14275 110141,14272 110141,14269 110142,14266 110143,14264 110144,14261 110144,14258 110145,14255 110145,14252 110145,14249 110145,14246 110145,14243 110145,14240 110145,14237 110145,14234 110145,14231 110144,14228 110144,14225 110143,14222 110142,14219 110141,14217 110141,14214 110139,14211 110138,14208 110137,14206 110136,14203 110135,14200 110133,14198 109178,12545 109177,12542 109175,12540 109173,12538 109172,12535 109170,12533 109168,12531 109166,12528 109164,12526 109162,12524 109160,12522 109157,12520 109155,12518 109152,12516 109150,12515 109147,12513 109145,12512 109142,12510 109140,12509 109137,12508 109134,12506 109132,12505 109129,12504 109126,12503 109123,12503 109120,12502 109117,12501 109114,12501 109111,12500 109108,12500 109105,12500 109103,12500 109099,12500 109097,12500 109094,12500 109091,12500 109088,12500 109085,12501 109082,12501 109079,12502 109076,12503 109073,12503 109070,12504 109067,12505 109065,12506 109062,12508 109059,12509 109057,12510 109054,12512 109052,12513 109049,12515 109047,12516 109044,12518 109042,12520 109039,12522 109037,12524 109035,12526 109033,12528 109031,12531 109029,12533 109027,12535 109026,12538 109024,12540 109022,12542 109021,12545 Z"/>
   </g>
  </g>
  <g class="com.sun.star.drawing.PolyPolygonShape">
   <g id="id4">
    <rect class="BoundingBox" stroke="none" fill="none" x="108373" y="12853" width="1455" height="1260"/>
    <path fill="rgb(255,255,255)" stroke="none" d="M 109827,14112 L 109100,12853 108373,14112 109827,14112 Z"/>
   </g>
  </g>
  <g class="com.sun.star.drawing.PolyPolygonShape">
   <g id="id5">
    <rect class="BoundingBox" stroke="none" fill="none" x="109019" y="13130" width="162" height="885"/>
    <path fill="rgb(0,0,0)" stroke="none" d="M 109019,13210 L 109084,13892 109083,13892 109081,13893 109080,13893 109079,13894 109078,13894 109076,13894 109075,13895 109074,13896 109072,13896 109071,13897 109070,13897 109069,13898 109068,13899 109066,13900 109065,13900 109064,13901 109063,13902 109062,13903 109061,13904 109060,13905 109059,13906 109058,13907 109057,13907 109056,13908 109055,13909 109054,13910 109053,13912 109052,13913 109051,13914 109050,13915 109050,13916 109049,13917 109048,13918 109047,13919 109046,13921 109046,13922 109045,13923 109045,13924 109044,13926 109043,13927 109043,13928 109042,13929 109042,13931 109041,13932 109041,13933 109041,13935 109039,13936 109039,13937 109039,13939 109038,13940 109038,13941 109038,13943 109038,13944 109037,13946 109037,13947 109037,13948 109037,13950 109037,13951 109037,13952 109037,13954 109037,13955 109037,13957 109038,13958 109038,13959 109038,13961 109038,13962 109038,13964 109039,13965 109039,13966 109039,13968 109041,13969 109041,13970 109042,13971 109042,13973 109043,13974 109043,13976 109044,13977 109044,13978 109045,13979 109046,13981 109046,13982 109047,13983 109048,13984 109048,13985 109049,13986 109050,13988 109051,13989 109052,13990 109053,13991 109054,13992 109054,13993 109055,13994 109056,13995 109057,13996 109058,13997 109059,13998 109060,13999 109061,14000 109062,14001 109064,14001 109065,14002 109066,14003 109067,14004 109068,14004 109069,14005 109071,14006 109072,14006 109073,14007 109074,14008 109076,14008 109077,14009 109078,14009 109080,14010 109081,14010 109082,14011 109084,14011 109085,14011 109086,14012 109088,14012 109089,14012 109090,14012 109092,14013 109093,14013 109094,14013 109096,14013 109097,14013 109099,14013 109100,14013 109101,14013 109103,14013 109104,14013 109106,14013 109107,14013 109108,14013 109110,14012 109111,14012 109112,14012 109114,14012 109115,14011 109117,14011 109118,14011 109119,14010 109121,14010 109122,14009 109123,14009 109124,14008 109126,14008 109127,14007 109128,14006 109129,14006 109131,14005 109132,14004 109133,14004 109134,14003 109135,14002 109136,14001 109138,14001 109139,14000 109140,13999 109141,13998 109142,13997 109143,13996 109144,13995 109145,13994 109146,13993 109147,13992 109148,13991 109148,13990 109149,13989 109150,13988 109151,13986 109152,13985 109152,13984 109153,13983 109154,13982 109154,13981 109155,13979 109156,13978 109156,13977 109157,13976 109157,13974 109158,13973 109158,13971 109159,13970 109159,13969 109160,13968 109160,13966 109160,13965 109161,13964 109161,13962 109161,13961 109161,13959 109162,13958 109162,13957 109162,13955 109162,13954 109162,13952 109162,13951 109162,13950 109162,13948 109162,13947 109162,13946 109161,13944 109161,13943 109161,13941 109161,13940 109160,13939 109160,13937 109160,13936 109159,13935 109159,13933 109159,13932 109158,13931 109158,13929 109157,13928 109157,13927 109156,13926 109156,13924 109155,13923 109154,13922 109153,13921 109153,13919 109152,13918 109151,13917 109151,13916 109150,13915 109149,13914 109148,13913 109147,13912 109146,13910 109145,13909 109144,13908 109143,13907 109142,13907 109141,13906 109140,13905 109139,13904 109138,13903 109137,13902 109136,13901 109135,13900 109134,13900 109132,13899 109131,13898 109130,13897 109129,13897 109128,13896 109126,13896 109125,13895 109124,13894 109122,13894 109121,13894 109120,13893 109119,13893 109117,13892 109116,13892 109180,13210 109180,13208 109180,13206 109180,13204 109180,13202 109180,13200 109179,13198 109179,13196 109179,13194 109178,13192 109178,13190 109177,13188 109177,13187 109176,13185 109176,13183 109175,13181 109174,13179 109173,13177 109173,13175 109172,13174 109171,13172 109170,13170 109169,13169 109168,13167 109167,13165 109166,13164 109165,13162 109163,13160 109162,13159 109161,13157 109159,13156 109158,13155 109157,13153 109155,13152 109154,13150 109152,13149 109151,13148 109149,13147 109148,13145 109146,13144 109145,13143 109143,13142 109141,13141 109140,13140 109138,13139 109136,13138 109134,13137 109133,13136 109131,13136 109129,13135 109127,13134 109125,13134 109123,13133 109121,13133 109119,13132 109118,13131 109116,13131 109114,13131 109112,13130 109110,13130 109108,13130 109106,13130 109104,13130 109102,13130 109100,13130 109098,13130 109096,13130 109094,13130 109092,13130 109090,13130 109088,13130 109086,13131 109084,13131 109083,13131 109081,13132 109079,13133 109077,13133 109075,13134 109073,13134 109071,13135 109069,13136 109068,13136 109066,13137 109064,13138 109062,13139 109061,13140 109059,13141 109057,13142 109055,13143 109054,13144 109052,13145 109051,13147 109049,13148 109048,13149 109046,13150 109045,13152 109043,13153 109042,13155 109039,13156 109038,13157 109037,13159 109036,13160 109035,13162 109033,13164 109032,13165 109031,13167 109030,13169 109029,13170 109028,13172 109027,13174 109027,13175 109026,13177 109025,13179 109024,13181 109023,13183 109023,13185 109022,13187 109022,13188 109021,13190 109021,13192 109020,13194 109020,13196 109020,13198 109019,13200 109019,13202 109019,13204 109019,13206 109019,13208 109019,13210 Z"/>
   </g>
  </g>
 </g>
</svg>