<?xml version="1.0" encoding="UTF-8"?>
<!DOCTYPE svg PUBLIC "-//W3C//DTD SVG 1.1//EN" "http://www.w3.org/Graphics/SVG/1.1/DTD/svg11.dtd">
<svg version="1.2" width="28.52mm" height="25.02mm" viewBox="27874 12500 2852 2502" preserveAspectRatio="xMidYMid" fill-rule="evenodd" stroke-width="28.222" stroke-linejoin="round" xmlns="http://www.w3.org/2000/svg" xmlns:ooo="http://xml.openoffice.org/svg/export" xmlns:xlink="http://www.w3.org/1999/xlink" xmlns:presentation="http://sun.com/xmlns/staroffice/presentation" xmlns:smil="http://www.w3.org/2001/SMIL20/" xmlns:anim="urn:oasis:names:tc:opendocument:xmlns:animation:1.0" xml:space="preserve">
 <defs class="EmbeddedBulletChars">
  <g id="bullet-char-template-57356" transform="scale(0.00048828125,-0.00048828125)">
   <path d="M 580,1141 L 1163,571 580,0 -4,571 580,1141 Z"/>
  </g>
  <g id="bullet-char-template-57354" transform="scale(0.00048828125,-0.00048828125)">
   <path d="M 8,1128 L 1137,1128 1137,0 8,0 8,1128 Z"/>
  </g>
  <g id="bullet-char-template-10146" transform="scale(0.00048828125,-0.00048828125)">
   <path d="M 174,0 L 602,739 174,1481 1456,739 174,0 Z M 1358,739 L 309,1346 659,739 1358,739 Z"/>
  </g>
  <g id="bullet-char-template-10132" transform="scale(0.00048828125,-0.00048828125)">
   <path d="M 2015,739 L 1276,0 717,0 1260,543 174,543 174,936 1260,936 717,1481 1274,1481 2015,739 Z"/>
  </g>
  <g id="bullet-char-template-10007" transform="scale(0.00048828125,-0.00048828125)">
   <path d="M 0,-2 C -7,14 -16,27 -25,37 L 356,567 C 262,823 215,952 215,954 215,979 228,992 255,992 264,992 276,990 289,987 310,991 331,999 354,1012 L 381,999 492,748 772,1049 836,1024 860,1049 C 881,1039 901,1025 922,1006 886,937 835,863 770,784 769,783 710,716 594,584 L 774,223 C 774,196 753,168 711,139 L 727,119 C 717,90 699,76 672,76 641,76 570,178 457,381 L 164,-76 C 142,-110 111,-127 72,-127 30,-127 9,-110 8,-76 1,-67 -2,-52 -2,-32 -2,-23 -1,-13 0,-2 Z"/>
  </g>
  <g id="bullet-char-template-10004" transform="scale(0.00048828125,-0.00048828125)">
   <path d="M 285,-33 C 182,-33 111,30 74,156 52,228 41,333 41,471 41,549 55,616 82,672 116,743 169,778 240,778 293,778 328,747 346,684 L 369,508 C 377,444 397,411 428,410 L 1163,1116 C 1174,1127 1196,1133 1229,1133 1271,1133 1292,1118 1292,1087 L 1292,965 C 1292,929 1282,901 1262,881 L 442,47 C 390,-6 338,-33 285,-33 Z"/>
  </g>
  <g id="bullet-char-template-9679" transform="scale(0.00048828125,-0.00048828125)">
   <path d="M 813,0 C 632,0 489,54 383,161 276,268 223,411 223,592 223,773 276,916 383,1023 489,1130 632,1184 813,1184 992,1184 1136,1130 1245,1023 1353,916 1407,772 1407,592 1407,412 1353,268 1245,161 1136,54 992,0 813,0 Z"/>
  </g>
  <g id="bullet-char-template-8226" transform="scale(0.00048828125,-0.00048828125)">
   <path d="M 346,457 C 273,457 209,483 155,535 101,586 74,649 74,723 74,796 101,859 155,911 209,963 273,989 346,989 419,989 480,963 531,910 582,859 608,796 608,723 608,648 583,586 532,535 482,483 420,457 346,457 Z"/>
  </g>
  <g id="bullet-char-template-8211" transform="scale(0.00048828125,-0.00048828125)">
   <path d="M -4,459 L 1135,459 1135,606 -4,606 -4,459 Z"/>
  </g>
  <g id="bullet-char-template-61548" transform="scale(0.00048828125,-0.00048828125)">
   <path d="M 173,740 C 173,903 231,1043 346,1159 462,1274 601,1332 765,1332 928,1332 1067,1274 1183,1159 1299,1043 1357,903 1357,740 1357,577 1299,437 1183,322 1067,206 928,148 765,148 601,148 462,206 346,322 231,437 173,577 173,740 Z"/>
  </g>
 </defs>
 <g class="Page">
  <g class="com.sun.star.drawing.PolyPolygonShape">
   <g id="id3">
    <rect class="BoundingBox" stroke="none" fill="none" x="27874" y="12500" width="2852" height="2502"/>
    <path fill="rgb(255,0,0)" stroke="none" d="M 29192,12561 L 27891,14815 27888,14822 27884,14829 27881,14837 27879,14844 27877,14852 27876,14860 27875,14868 27875,14876 27875,14885 27876,14893 27877,14901 27879,14909 27881,14916 27884,14924 27888,14931 27891,14939 27896,14945 27900,14952 27906,14958 27911,14964 27917,14970 27923,14975 27930,14980 27937,14984 27944,14988 27951,14991 27959,14994 27967,14996 27975,14998 27983,14999 27991,15000 27999,15001 30601,15001 30609,15000 30617,14999 30625,14998 30633,14996 30641,14994 30649,14991 30656,14988 30663,14984 30670,14980 30677,14975 30683,14970 30689,14964 30694,14958 30700,14952 30704,14945 30709,14939 30712,14931 30716,14924 30719,14916 30721,14909 30723,14901 30724,14893 30725,14885 30725,14876 30725,14868 30724,14860 30723,14852 30721,14844 30719,14837 30716,14829 30712,14822 30709,14815 29407,12561 29403,12555 29398,12548 29393,12542 29387,12536 29381,12530 29375,12525 29368,12520 29362,12516 29354,12512 29347,12509 29339,12506 29332,12504 29324,12502 29316,12501 29308,12500 29299,12500 29291,12500 29283,12501 29275,12502 29267,12504 29260,12506 29252,12509 29245,12512 29237,12516 29231,12520 29224,12525 29218,12530 29212,12536 29206,12542 29201,12548 29196,12555 29192,12561 Z"/>
   </g>
  </g>
  <g class="com.sun.star.drawing.PolyPolygonShape">
   <g id="id4">
    <rect class="BoundingBox" stroke="none" fill="none" x="28309" y="12982" width="1983" height="1717"/>
    <path fill="rgb(255,255,255)" stroke="none" d="M 30291,14698 L 29301,12982 28309,14698 30291,14698 Z"/>
   </g>
  </g>
  <g class="com.sun.star.drawing.PolyPolygonShape">
   <g id="id5">
    <rect class="BoundingBox" stroke="none" fill="none" x="29371" y="13548" width="153" height="981"/>
    <path fill="rgb(0,0,0)" stroke="none" d="M 29523,13548 L 29371,13548 29371,14527 29523,14527 29523,13548 Z"/>
   </g>
  </g>
  <g class="com.sun.star.drawing.PolyPolygonShape">
   <g id="id6">
    <rect class="BoundingBox" stroke="none" fill="none" x="28916" y="13548" width="305" height="981"/>
    <path fill="rgb(0,0,0)" stroke="none" d="M 29069,14095 L 29220,13866 29220,13548 29069,13548 29069,13821 28916,14049 28916,14527 29069,14527 29069,14095 Z"/>
   </g>
  </g>
 </g>
</svg>