<?xml version="1.0" encoding="UTF-8"?>
<!DOCTYPE svg PUBLIC "-//W3C//DTD SVG 1.1//EN" "http://www.w3.org/Graphics/SVG/1.1/DTD/svg11.dtd">
<svg version="1.2" width="28.51mm" height="25.02mm" viewBox="31275 12500 2851 2502" preserveAspectRatio="xMidYMid" fill-rule="evenodd" stroke-width="28.222" stroke-linejoin="round" xmlns="http://www.w3.org/2000/svg" xmlns:ooo="http://xml.openoffice.org/svg/export" xmlns:xlink="http://www.w3.org/1999/xlink" xmlns:presentation="http://sun.com/xmlns/staroffice/presentation" xmlns:smil="http://www.w3.org/2001/SMIL20/" xmlns:anim="urn:oasis:names:tc:opendocument:xmlns:animation:1.0" xml:space="preserve">
 <defs class="EmbeddedBulletChars">
  <g id="bullet-char-template-57356" transform="scale(0.00048828125,-0.00048828125)">
   <path d="M 580,1141 L 1163,571 580,0 -4,571 580,1141 Z"/>
  </g>
  <g id="bullet-char-template-57354" transform="scale(0.00048828125,-0.00048828125)">
   <path d="M 8,1128 L 1137,1128 1137,0 8,0 8,1128 Z"/>
  </g>
  <g id="bullet-char-template-10146" transform="scale(0.00048828125,-0.00048828125)">
   <path d="M 174,0 L 602,739 174,1481 1456,739 174,0 Z M 1358,739 L 309,1346 659,739 1358,739 Z"/>
  </g>
  <g id="bullet-char-template-10132" transform="scale(0.00048828125,-0.00048828125)">
   <path d="M 2015,739 L 1276,0 717,0 1260,543 174,543 174,936 1260,936 717,1481 1274,1481 2015,739 Z"/>
  </g>
  <g id="bullet-char-template-10007" transform="scale(0.00048828125,-0.00048828125)">
   <path d="M 0,-2 C -7,14 -16,27 -25,37 L 356,567 C 262,823 215,952 215,954 215,979 228,992 255,992 264,992 276,990 289,987 310,991 331,999 354,1012 L 381,999 492,748 772,1049 836,1024 860,1049 C 881,1039 901,1025 922,1006 886,937 835,863 770,784 769,783 710,716 594,584 L 774,223 C 774,196 753,168 711,139 L 727,119 C 717,90 699,76 672,76 641,76 570,178 457,381 L 164,-76 C 142,-110 111,-127 72,-127 30,-127 9,-110 8,-76 1,-67 -2,-52 -2,-32 -2,-23 -1,-13 0,-2 Z"/>
  </g>
  <g id="bullet-char-template-10004" transform="scale(0.00048828125,-0.00048828125)">
   <path d="M 285,-33 C 182,-33 111,30 74,156 52,228 41,333 41,471 41,549 55,616 82,672 116,743 169,778 240,778 293,778 328,747 346,684 L 369,508 C 377,444 397,411 428,410 L 1163,1116 C 1174,1127 1196,1133 1229,1133 1271,1133 1292,1118 1292,1087 L 1292,965 C 1292,929 1282,901 1262,881 L 442,47 C 390,-6 338,-33 285,-33 Z"/>
  </g>
  <g id="bullet-char-template-9679" transform="scale(0.00048828125,-0.00048828125)">
   <path d="M 813,0 C 632,0 489,54 383,161 276,268 223,411 223,592 223,773 276,916 383,1023 489,1130 632,1184 813,1184 992,1184 1136,1130 1245,1023 1353,916 1407,772 1407,592 1407,412 1353,268 1245,161 1136,54 992,0 813,0 Z"/>
  </g>
  <g id="bullet-char-template-8226" transform="scale(0.00048828125,-0.00048828125)">
   <path d="M 346,457 C 273,457 209,483 155,535 101,586 74,649 74,723 74,796 101,859 155,911 209,963 273,989 346,989 419,989 480,963 531,910 582,859 608,796 608,723 608,648 583,586 532,535 482,483 420,457 346,457 Z"/>
  </g>
  <g id="bullet-char-template-8211" transform="scale(0.00048828125,-0.00048828125)">
   <path d="M -4,459 L 1135,459 1135,606 -4,606 -4,459 Z"/>
  </g>
  <g id="bullet-char-template-61548" transform="scale(0.00048828125,-0.00048828125)">
   <path d="M 173,740 C 173,903 231,1043 346,1159 462,1274 601,1332 765,1332 928,1332 1067,1274 1183,1159 1299,1043 1357,903 1357,740 1357,577 1299,437 1183,322 1067,206 928,148 765,148 601,148 462,206 346,322 231,437 173,577 173,740 Z"/>
  </g>
 </defs>
 <g class="Page">
  <g class="com.sun.star.drawing.PolyPolygonShape">
   <g id="id3">
    <rect class="BoundingBox" stroke="none" fill="none" x="31275" y="12500" width="2851" height="2502"/>
    <path fill="rgb(255,0,0)" stroke="none" d="M 32592,12561 L 31291,14815 31288,14822 31284,14829 31281,14837 31279,14844 31277,14852 31276,14860 31275,14868 31275,14876 31275,14885 31276,14893 31277,14901 31279,14909 31281,14916 31284,14924 31288,14931 31291,14939 31296,14945 31300,14952 31306,14958 31311,14964 31317,14970 31323,14975 31330,14980 31337,14984 31344,14988 31351,14991 31359,14994 31367,14996 31375,14998 31383,14999 31391,15000 31399,15001 34001,15001 34009,15000 34017,14999 34025,14998 34033,14996 34041,14994 34049,14991 34056,14988 34063,14984 34070,14980 34077,14975 34083,14970 34089,14964 34094,14958 34100,14952 34104,14945 34109,14939 34112,14931 34116,14924 34119,14916 34121,14909 34123,14901 34124,14893 34125,14885 34125,14876 34125,14868 34124,14860 34123,14852 34121,14844 34119,14837 34116,14829 34112,14822 34109,14815 32808,12561 32804,12555 32799,12548 32794,12542 32788,12536 32782,12530 32776,12525 32769,12520 32762,12516 32754,12512 32747,12509 32739,12506 32732,12504 32724,12502 32716,12501 32708,12500 32699,12500 32691,12500 32683,12501 32675,12502 32667,12504 32660,12506 32652,12509 32645,12512 32637,12516 32631,12520 32624,12525 32618,12530 32612,12536 32606,12542 32601,12548 32596,12555 32592,12561 Z"/>
   </g>
  </g>
  <g class="com.sun.star.drawing.PolyPolygonShape">
   <g id="id4">
    <rect class="BoundingBox" stroke="none" fill="none" x="31709" y="12982" width="1983" height="1717"/>
    <path fill="rgb(255,255,255)" stroke="none" d="M 33691,14698 L 32701,12982 31709,14698 33691,14698 Z"/>
   </g>
  </g>
  <g class="com.sun.star.drawing.PolyPolygonShape">
   <g id="id5">
    <rect class="BoundingBox" stroke="none" fill="none" x="32477" y="13548" width="153" height="981"/>
    <path fill="rgb(0,0,0)" stroke="none" d="M 32477,13548 L 32629,13548 32629,14527 32477,14527 32477,13548 Z"/>
   </g>
  </g>
  <g class="com.sun.star.drawing.PolyPolygonShape">
   <g id="id6">
    <rect class="BoundingBox" stroke="none" fill="none" x="32779" y="13548" width="306" height="981"/>
    <path fill="rgb(0,0,0)" stroke="none" d="M 32932,14095 L 32780,13866 32780,13548 32932,13548 32932,13821 33084,14049 33084,14527 32932,14527 32932,14095 Z"/>
   </g>
  </g>
 </g>
</svg>