<?xml version="1.0" encoding="UTF-8"?>
<!DOCTYPE svg PUBLIC "-//W3C//DTD SVG 1.1//EN" "http://www.w3.org/Graphics/SVG/1.1/DTD/svg11.dtd">
<svg version="1.2" width="28.43mm" height="25.02mm" viewBox="34679 12500 2843 2502" preserveAspectRatio="xMidYMid" fill-rule="evenodd" stroke-width="28.222" stroke-linejoin="round" xmlns="http://www.w3.org/2000/svg" xmlns:ooo="http://xml.openoffice.org/svg/export" xmlns:xlink="http://www.w3.org/1999/xlink" xmlns:presentation="http://sun.com/xmlns/staroffice/presentation" xmlns:smil="http://www.w3.org/2001/SMIL20/" xmlns:anim="urn:oasis:names:tc:opendocument:xmlns:animation:1.0" xml:space="preserve">
 <defs class="EmbeddedBulletChars">
  <g id="bullet-char-template-57356" transform="scale(0.00048828125,-0.00048828125)">
   <path d="M 580,1141 L 1163,571 580,0 -4,571 580,1141 Z"/>
  </g>
  <g id="bullet-char-template-57354" transform="scale(0.00048828125,-0.00048828125)">
   <path d="M 8,1128 L 1137,1128 1137,0 8,0 8,1128 Z"/>
  </g>
  <g id="bullet-char-template-10146" transform="scale(0.00048828125,-0.00048828125)">
   <path d="M 174,0 L 602,739 174,1481 1456,739 174,0 Z M 1358,739 L 309,1346 659,739 1358,739 Z"/>
  </g>
  <g id="bullet-char-template-10132" transform="scale(0.00048828125,-0.00048828125)">
   <path d="M 2015,739 L 1276,0 717,0 1260,543 174,543 174,936 1260,936 717,1481 1274,1481 2015,739 Z"/>
  </g>
  <g id="bullet-char-template-10007" transform="scale(0.00048828125,-0.00048828125)">
   <path d="M 0,-2 C -7,14 -16,27 -25,37 L 356,567 C 262,823 215,952 215,954 215,979 228,992 255,992 264,992 276,990 289,987 310,991 331,999 354,1012 L 381,999 492,748 772,1049 836,1024 860,1049 C 881,1039 901,1025 922,1006 886,937 835,863 770,784 769,783 710,716 594,584 L 774,223 C 774,196 753,168 711,139 L 727,119 C 717,90 699,76 672,76 641,76 570,178 457,381 L 164,-76 C 142,-110 111,-127 72,-127 30,-127 9,-110 8,-76 1,-67 -2,-52 -2,-32 -2,-23 -1,-13 0,-2 Z"/>
  </g>
  <g id="bullet-char-template-10004" transform="scale(0.00048828125,-0.00048828125)">
   <path d="M 285,-33 C 182,-33 111,30 74,156 52,228 41,333 41,471 41,549 55,616 82,672 116,743 169,778 240,778 293,778 328,747 346,684 L 369,508 C 377,444 397,411 428,410 L 1163,1116 C 1174,1127 1196,1133 1229,1133 1271,1133 1292,1118 1292,1087 L 1292,965 C 1292,929 1282,901 1262,881 L 442,47 C 390,-6 338,-33 285,-33 Z"/>
  </g>
  <g id="bullet-char-template-9679" transform="scale(0.00048828125,-0.00048828125)">
   <path d="M 813,0 C 632,0 489,54 383,161 276,268 223,411 223,592 223,773 276,916 383,1023 489,1130 632,1184 813,1184 992,1184 1136,1130 1245,1023 1353,916 1407,772 1407,592 1407,412 1353,268 1245,161 1136,54 992,0 813,0 Z"/>
  </g>
  <g id="bullet-char-template-8226" transform="scale(0.00048828125,-0.00048828125)">
   <path d="M 346,457 C 273,457 209,483 155,535 101,586 74,649 74,723 74,796 101,859 155,911 209,963 273,989 346,989 419,989 480,963 531,910 582,859 608,796 608,723 608,648 583,586 532,535 482,483 420,457 346,457 Z"/>
  </g>
  <g id="bullet-char-template-8211" transform="scale(0.00048828125,-0.00048828125)">
   <path d="M -4,459 L 1135,459 1135,606 -4,606 -4,459 Z"/>
  </g>
  <g id="bullet-char-template-61548" transform="scale(0.00048828125,-0.00048828125)">
   <path d="M 173,740 C 173,903 231,1043 346,1159 462,1274 601,1332 765,1332 928,1332 1067,1274 1183,1159 1299,1043 1357,903 1357,740 1357,577 1299,437 1183,322 1067,206 928,148 765,148 601,148 462,206 346,322 231,437 173,577 173,740 Z"/>
  </g>
 </defs>
 <g class="Page">
  <g class="com.sun.star.drawing.PolyPolygonShape">
   <g id="id3">
    <rect class="BoundingBox" stroke="none" fill="none" x="34679" y="12500" width="2843" height="2502"/>
    <path fill="rgb(255,0,0)" stroke="none" d="M 35968,12576 L 34700,14771 34695,14780 34691,14789 34688,14798 34685,14808 34682,14817 34681,14827 34680,14837 34679,14847 34680,14857 34681,14867 34682,14877 34685,14887 34688,14897 34691,14906 34695,14915 34700,14924 34705,14932 34711,14941 34717,14948 34724,14956 34732,14963 34739,14969 34748,14975 34756,14980 34765,14985 34774,14989 34783,14992 34793,14995 34803,14998 34813,14999 34823,15000 34833,15001 37367,15001 37377,15000 37387,14999 37397,14998 37407,14995 37417,14992 37426,14989 37435,14985 37444,14980 37452,14975 37461,14969 37468,14963 37476,14956 37483,14948 37489,14941 37495,14932 37500,14924 37505,14915 37509,14906 37512,14897 37515,14887 37518,14877 37519,14867 37520,14857 37521,14847 37520,14837 37519,14827 37518,14817 37515,14808 37512,14798 37509,14789 37505,14780 37500,14771 36233,12576 36228,12568 36222,12560 36216,12552 36209,12544 36202,12538 36194,12531 36186,12525 36177,12520 36168,12515 36159,12511 36150,12508 36140,12505 36130,12502 36121,12501 36110,12500 36101,12500 36091,12500 36080,12501 36071,12502 36061,12505 36051,12508 36042,12511 36033,12515 36024,12520 36015,12525 36007,12531 35999,12538 35992,12544 35985,12552 35979,12560 35973,12568 35968,12576 Z"/>
   </g>
  </g>
  <g class="com.sun.star.drawing.PolyPolygonShape">
   <g id="id4">
    <rect class="BoundingBox" stroke="none" fill="none" x="35097" y="12959" width="2006" height="1736"/>
    <path fill="rgb(255,255,255)" stroke="none" d="M 37102,14694 L 36100,12959 35098,14694 37102,14694 Z"/>
   </g>
  </g>
  <g class="com.sun.star.drawing.PolyPolygonShape">
   <g id="id5">
    <rect class="BoundingBox" stroke="none" fill="none" x="35616" y="13499" width="720" height="720"/>
    <path fill="rgb(0,0,0)" stroke="none" d="M 35708,14218 L 36335,13591 36243,13499 35616,14126 35708,14218 Z"/>
   </g>
  </g>
  <g class="com.sun.star.drawing.PolyPolygonShape">
   <g id="id6">
    <rect class="BoundingBox" stroke="none" fill="none" x="35313" y="14217" width="1569" height="342"/>
    <path fill="rgb(0,0,0)" stroke="none" d="M 35708,14469 L 35708,14217 35510,14217 35313,14558 36880,14558 36683,14217 36484,14217 36484,14469 36476,14469 36468,14468 36460,14467 36453,14465 36445,14463 36437,14460 36430,14456 36423,14452 36417,14447 36410,14443 36403,14439 36395,14436 36387,14434 36379,14432 36371,14430 36363,14429 36355,14429 36347,14429 36338,14430 36330,14432 36322,14434 36315,14436 36307,14439 36300,14443 36293,14447 36286,14452 36279,14456 36272,14460 36265,14463 36257,14465 36249,14467 36241,14468 36233,14469 36226,14469 36218,14469 36210,14468 36202,14467 36194,14465 36186,14463 36179,14460 36171,14456 36164,14452 36158,14447 36151,14443 36144,14439 36136,14436 36129,14434 36121,14432 36112,14430 36104,14429 36096,14429 36088,14429 36080,14430 36072,14432 36064,14434 36056,14436 36048,14439 36041,14443 36034,14447 36028,14452 36021,14456 36013,14460 36006,14463 35998,14465 35991,14467 35983,14468 35975,14469 35967,14469 35959,14469 35951,14468 35943,14467 35935,14465 35927,14463 35920,14460 35913,14456 35906,14452 35900,14447 35892,14443 35885,14439 35878,14436 35870,14434 35862,14432 35854,14430 35845,14429 35837,14429 35829,14429 35821,14430 35813,14432 35805,14434 35797,14436 35789,14439 35782,14443 35775,14447 35769,14452 35762,14456 35755,14460 35747,14463 35740,14465 35732,14467 35724,14468 35716,14469 35708,14469 Z"/>
   </g>
  </g>
 </g>
</svg>