<?xml version="1.0" encoding="UTF-8"?>
<!DOCTYPE svg PUBLIC "-//W3C//DTD SVG 1.1//EN" "http://www.w3.org/Graphics/SVG/1.1/DTD/svg11.dtd">
<svg version="1.2" width="25.39mm" height="25.38mm" viewBox="19231 18482 2539 2538" preserveAspectRatio="xMidYMid" fill-rule="evenodd" stroke-width="28.222" stroke-linejoin="round" xmlns="http://www.w3.org/2000/svg" xmlns:ooo="http://xml.openoffice.org/svg/export" xmlns:xlink="http://www.w3.org/1999/xlink" xmlns:presentation="http://sun.com/xmlns/staroffice/presentation" xmlns:smil="http://www.w3.org/2001/SMIL20/" xmlns:anim="urn:oasis:names:tc:opendocument:xmlns:animation:1.0" xml:space="preserve">
 <defs class="EmbeddedBulletChars">
  <g id="bullet-char-template-57356" transform="scale(0.00048828125,-0.00048828125)">
   <path d="M 580,1141 L 1163,571 580,0 -4,571 580,1141 Z"/>
  </g>
  <g id="bullet-char-template-57354" transform="scale(0.00048828125,-0.00048828125)">
   <path d="M 8,1128 L 1137,1128 1137,0 8,0 8,1128 Z"/>
  </g>
  <g id="bullet-char-template-10146" transform="scale(0.00048828125,-0.00048828125)">
   <path d="M 174,0 L 602,739 174,1481 1456,739 174,0 Z M 1358,739 L 309,1346 659,739 1358,739 Z"/>
  </g>
  <g id="bullet-char-template-10132" transform="scale(0.00048828125,-0.00048828125)">
   <path d="M 2015,739 L 1276,0 717,0 1260,543 174,543 174,936 1260,936 717,1481 1274,1481 2015,739 Z"/>
  </g>
  <g id="bullet-char-template-10007" transform="scale(0.00048828125,-0.00048828125)">
   <path d="M 0,-2 C -7,14 -16,27 -25,37 L 356,567 C 262,823 215,952 215,954 215,979 228,992 255,992 264,992 276,990 289,987 310,991 331,999 354,1012 L 381,999 492,748 772,1049 836,1024 860,1049 C 881,1039 901,1025 922,1006 886,937 835,863 770,784 769,783 710,716 594,584 L 774,223 C 774,196 753,168 711,139 L 727,119 C 717,90 699,76 672,76 641,76 570,178 457,381 L 164,-76 C 142,-110 111,-127 72,-127 30,-127 9,-110 8,-76 1,-67 -2,-52 -2,-32 -2,-23 -1,-13 0,-2 Z"/>
  </g>
  <g id="bullet-char-template-10004" transform="scale(0.00048828125,-0.00048828125)">
   <path d="M 285,-33 C 182,-33 111,30 74,156 52,228 41,333 41,471 41,549 55,616 82,672 116,743 169,778 240,778 293,778 328,747 346,684 L 369,508 C 377,444 397,411 428,410 L 1163,1116 C 1174,1127 1196,1133 1229,1133 1271,1133 1292,1118 1292,1087 L 1292,965 C 1292,929 1282,901 1262,881 L 442,47 C 390,-6 338,-33 285,-33 Z"/>
  </g>
  <g id="bullet-char-template-9679" transform="scale(0.00048828125,-0.00048828125)">
   <path d="M 813,0 C 632,0 489,54 383,161 276,268 223,411 223,592 223,773 276,916 383,1023 489,1130 632,1184 813,1184 992,1184 1136,1130 1245,1023 1353,916 1407,772 1407,592 1407,412 1353,268 1245,161 1136,54 992,0 813,0 Z"/>
  </g>
  <g id="bullet-char-template-8226" transform="scale(0.00048828125,-0.00048828125)">
   <path d="M 346,457 C 273,457 209,483 155,535 101,586 74,649 74,723 74,796 101,859 155,911 209,963 273,989 346,989 419,989 480,963 531,910 582,859 608,796 608,723 608,648 583,586 532,535 482,483 420,457 346,457 Z"/>
  </g>
  <g id="bullet-char-template-8211" transform="scale(0.00048828125,-0.00048828125)">
   <path d="M -4,459 L 1135,459 1135,606 -4,606 -4,459 Z"/>
  </g>
  <g id="bullet-char-template-61548" transform="scale(0.00048828125,-0.00048828125)">
   <path d="M 173,740 C 173,903 231,1043 346,1159 462,1274 601,1332 765,1332 928,1332 1067,1274 1183,1159 1299,1043 1357,903 1357,740 1357,577 1299,437 1183,322 1067,206 928,148 765,148 601,148 462,206 346,322 231,437 173,577 173,740 Z"/>
  </g>
 </defs>
 <g class="Page">
  <g class="com.sun.star.drawing.PolyPolygonShape">
   <g id="id3">
    <rect class="BoundingBox" stroke="none" fill="none" x="19231" y="18482" width="2539" height="2538"/>
    <path fill="rgb(255,255,255)" stroke="none" d="M 19295,19860 L 20390,20955 20395,20960 20401,20965 20407,20970 20413,20974 20420,20978 20426,20982 20433,20986 20440,20989 20447,20992 20454,20994 20462,20996 20469,20998 20477,20999 20484,21000 20492,21000 20499,21001 20507,21000 20515,21000 20522,20999 20530,20998 20537,20996 20545,20994 20552,20992 20559,20989 20566,20986 20573,20982 20579,20978 20586,20974 20592,20970 20598,20965 20604,20960 20609,20955 21705,19860 21711,19855 21716,19849 21720,19843 21725,19837 21729,19830 21733,19824 21736,19817 21739,19810 21742,19803 21744,19796 21746,19788 21748,19781 21749,19773 21750,19766 21751,19758 21751,19751 21751,19743 21750,19735 21749,19728 21748,19720 21746,19713 21744,19705 21742,19698 21739,19691 21736,19684 21733,19677 21729,19671 21725,19664 21720,19658 21716,19652 21711,19646 21705,19641 20609,18545 20604,18540 20598,18535 20592,18530 20586,18526 20579,18522 20573,18518 20566,18515 20559,18511 20552,18509 20545,18506 20537,18504 20530,18503 20522,18501 20515,18500 20507,18500 20500,18500 20492,18500 20484,18500 20477,18501 20469,18503 20462,18504 20454,18506 20447,18509 20440,18511 20433,18515 20426,18518 20420,18522 20413,18526 20407,18530 20401,18535 20395,18540 20390,18545 19295,19641 19290,19646 19284,19652 19280,19658 19275,19664 19271,19671 19267,19677 19264,19684 19261,19691 19258,19698 19256,19705 19254,19713 19252,19720 19251,19728 19250,19735 19249,19743 19249,19751 19249,19758 19250,19766 19251,19773 19252,19781 19254,19788 19256,19796 19258,19803 19261,19810 19264,19817 19267,19824 19271,19830 19275,19837 19280,19843 19284,19849 19290,19855 19295,19860 Z"/>
    <path fill="none" stroke="rgb(0,0,0)" stroke-width="35" stroke-linejoin="miter" stroke-linecap="square" d="M 19295,19860 L 20390,20955 20395,20960 20401,20965 20407,20970 20413,20974 20420,20978 20426,20982 20433,20986 20440,20989 20447,20992 20454,20994 20462,20996 20469,20998 20477,20999 20484,21000 20492,21000 20499,21001 20507,21000 20515,21000 20522,20999 20530,20998 20537,20996 20545,20994 20552,20992 20559,20989 20566,20986 20573,20982 20579,20978 20586,20974 20592,20970 20598,20965 20604,20960 20609,20955 21705,19860 21711,19855 21716,19849 21720,19843 21725,19837 21729,19830 21733,19824 21736,19817 21739,19810 21742,19803 21744,19796 21746,19788 21748,19781 21749,19773 21750,19766 21751,19758 21751,19751 21751,19743 21750,19735 21749,19728 21748,19720 21746,19713 21744,19705 21742,19698 21739,19691 21736,19684 21733,19677 21729,19671 21725,19664 21720,19658 21716,19652 21711,19646 21705,19641 20609,18545 20604,18540 20598,18535 20592,18530 20586,18526 20579,18522 20573,18518 20566,18515 20559,18511 20552,18509 20545,18506 20537,18504 20530,18503 20522,18501 20515,18500 20507,18500 20500,18500 20492,18500 20484,18500 20477,18501 20469,18503 20462,18504 20454,18506 20447,18509 20440,18511 20433,18515 20426,18518 20420,18522 20413,18526 20407,18530 20401,18535 20395,18540 20390,18545 19295,19641 19290,19646 19284,19652 19280,19658 19275,19664 19271,19671 19267,19677 19264,19684 19261,19691 19258,19698 19256,19705 19254,19713 19252,19720 19251,19728 19250,19735 19249,19743 19249,19751 19249,19758 19250,19766 19251,19773 19252,19781 19254,19788 19256,19796 19258,19803 19261,19810 19264,19817 19267,19824 19271,19830 19275,19837 19280,19843 19284,19849 19290,19855 19295,19860 Z"/>
   </g>
  </g>
  <g class="com.sun.star.drawing.PolyPolygonShape">
   <g id="id4">
    <rect class="BoundingBox" stroke="none" fill="none" x="19592" y="18842" width="1818" height="1818"/>
    <path fill="rgb(0,0,0)" stroke="none" d="M 20198,20356 L 20499,20658 21408,19750 21107,19449 21310,19245 21006,18940 20801,19145 20500,18842 19592,19751 19893,20052 19690,20256 19994,20560 20198,20356 Z"/>
   </g>
  </g>
  <g class="com.sun.star.drawing.PolyPolygonShape">
   <g id="id5">
    <rect class="BoundingBox" stroke="none" fill="none" x="19675" y="18925" width="1087" height="1087"/>
    <path fill="rgb(255,129,0)" stroke="none" d="M 19935,20011 L 20761,19186 20501,18925 19675,19751 19935,20011 Z"/>
   </g>
  </g>
  <g class="com.sun.star.drawing.PolyPolygonShape">
   <g id="id6">
    <rect class="BoundingBox" stroke="none" fill="none" x="20239" y="19490" width="1087" height="1086"/>
    <path fill="rgb(255,129,0)" stroke="none" d="M 20239,20315 L 20499,20575 21325,19749 21064,19490 20239,20315 Z"/>
   </g>
  </g>
 </g>
</svg>