<?xml version="1.0" encoding="UTF-8"?>
<!DOCTYPE svg PUBLIC "-//W3C//DTD SVG 1.1//EN" "http://www.w3.org/Graphics/SVG/1.1/DTD/svg11.dtd">
<svg version="1.2" width="20.03mm" height="25.06mm" viewBox="22499 18498 2003 2506" preserveAspectRatio="xMidYMid" fill-rule="evenodd" stroke-width="28.222" stroke-linejoin="round" xmlns="http://www.w3.org/2000/svg" xmlns:ooo="http://xml.openoffice.org/svg/export" xmlns:xlink="http://www.w3.org/1999/xlink" xmlns:presentation="http://sun.com/xmlns/staroffice/presentation" xmlns:smil="http://www.w3.org/2001/SMIL20/" xmlns:anim="urn:oasis:names:tc:opendocument:xmlns:animation:1.0" xml:space="preserve">
 <defs class="EmbeddedBulletChars">
  <g id="bullet-char-template-57356" transform="scale(0.00048828125,-0.00048828125)">
   <path d="M 580,1141 L 1163,571 580,0 -4,571 580,1141 Z"/>
  </g>
  <g id="bullet-char-template-57354" transform="scale(0.00048828125,-0.00048828125)">
   <path d="M 8,1128 L 1137,1128 1137,0 8,0 8,1128 Z"/>
  </g>
  <g id="bullet-char-template-10146" transform="scale(0.00048828125,-0.00048828125)">
   <path d="M 174,0 L 602,739 174,1481 1456,739 174,0 Z M 1358,739 L 309,1346 659,739 1358,739 Z"/>
  </g>
  <g id="bullet-char-template-10132" transform="scale(0.00048828125,-0.00048828125)">
   <path d="M 2015,739 L 1276,0 717,0 1260,543 174,543 174,936 1260,936 717,1481 1274,1481 2015,739 Z"/>
  </g>
  <g id="bullet-char-template-10007" transform="scale(0.00048828125,-0.00048828125)">
   <path d="M 0,-2 C -7,14 -16,27 -25,37 L 356,567 C 262,823 215,952 215,954 215,979 228,992 255,992 264,992 276,990 289,987 310,991 331,999 354,1012 L 381,999 492,748 772,1049 836,1024 860,1049 C 881,1039 901,1025 922,1006 886,937 835,863 770,784 769,783 710,716 594,584 L 774,223 C 774,196 753,168 711,139 L 727,119 C 717,90 699,76 672,76 641,76 570,178 457,381 L 164,-76 C 142,-110 111,-127 72,-127 30,-127 9,-110 8,-76 1,-67 -2,-52 -2,-32 -2,-23 -1,-13 0,-2 Z"/>
  </g>
  <g id="bullet-char-template-10004" transform="scale(0.00048828125,-0.00048828125)">
   <path d="M 285,-33 C 182,-33 111,30 74,156 52,228 41,333 41,471 41,549 55,616 82,672 116,743 169,778 240,778 293,778 328,747 346,684 L 369,508 C 377,444 397,411 428,410 L 1163,1116 C 1174,1127 1196,1133 1229,1133 1271,1133 1292,1118 1292,1087 L 1292,965 C 1292,929 1282,901 1262,881 L 442,47 C 390,-6 338,-33 285,-33 Z"/>
  </g>
  <g id="bullet-char-template-9679" transform="scale(0.00048828125,-0.00048828125)">
   <path d="M 813,0 C 632,0 489,54 383,161 276,268 223,411 223,592 223,773 276,916 383,1023 489,1130 632,1184 813,1184 992,1184 1136,1130 1245,1023 1353,916 1407,772 1407,592 1407,412 1353,268 1245,161 1136,54 992,0 813,0 Z"/>
  </g>
  <g id="bullet-char-template-8226" transform="scale(0.00048828125,-0.00048828125)">
   <path d="M 346,457 C 273,457 209,483 155,535 101,586 74,649 74,723 74,796 101,859 155,911 209,963 273,989 346,989 419,989 480,963 531,910 582,859 608,796 608,723 608,648 583,586 532,535 482,483 420,457 346,457 Z"/>
  </g>
  <g id="bullet-char-template-8211" transform="scale(0.00048828125,-0.00048828125)">
   <path d="M -4,459 L 1135,459 1135,606 -4,606 -4,459 Z"/>
  </g>
  <g id="bullet-char-template-61548" transform="scale(0.00048828125,-0.00048828125)">
   <path d="M 173,740 C 173,903 231,1043 346,1159 462,1274 601,1332 765,1332 928,1332 1067,1274 1183,1159 1299,1043 1357,903 1357,740 1357,577 1299,437 1183,322 1067,206 928,148 765,148 601,148 462,206 346,322 231,437 173,577 173,740 Z"/>
  </g>
 </defs>
 <g class="Page">
  <g class="com.sun.star.drawing.PolyPolygonShape">
   <g id="id3">
    <rect class="BoundingBox" stroke="none" fill="none" x="22548" y="18498" width="1905" height="1906"/>
    <path fill="rgb(255,255,255)" stroke="none" d="M 22584,19533 L 23416,20366 23418,20368 23420,20370 23422,20372 23425,20374 23427,20376 23429,20378 23432,20379 23434,20381 23436,20383 23439,20384 23441,20386 23444,20387 23446,20388 23449,20390 23452,20391 23454,20392 23457,20393 23460,20394 23463,20395 23465,20396 23468,20397 23471,20397 23474,20398 23477,20399 23479,20399 23482,20400 23485,20400 23488,20401 23491,20401 23494,20401 23497,20401 23500,20401 23502,20401 23505,20401 23508,20401 23511,20401 23514,20400 23517,20400 23520,20399 23522,20399 23525,20398 23528,20397 23531,20397 23534,20396 23536,20395 23539,20394 23542,20393 23545,20392 23547,20391 23550,20390 23553,20388 23555,20387 23558,20386 23560,20384 23563,20383 23565,20381 23567,20379 23570,20378 23572,20376 23574,20374 23577,20372 23579,20370 23581,20368 23583,20366 24416,19533 24418,19531 24420,19529 24422,19527 24423,19525 24425,19522 24427,19520 24429,19518 24430,19515 24432,19513 24434,19510 24435,19508 24436,19505 24438,19503 24439,19500 24440,19498 24441,19495 24442,19492 24443,19490 24444,19487 24445,19484 24446,19481 24447,19478 24447,19476 24448,19473 24449,19470 24449,19467 24449,19464 24450,19461 24450,19458 24450,19456 24450,19453 24450,19450 24450,19447 24450,19444 24450,19441 24450,19438 24449,19435 24449,19432 24449,19430 24448,19427 24447,19424 24447,19421 24446,19418 24445,19416 24444,19413 24443,19410 24442,19407 24441,19405 24440,19402 24439,19399 24438,19397 24436,19394 24435,19392 24434,19389 24432,19387 24430,19384 24429,19382 24427,19379 24425,19377 24423,19375 24422,19373 24420,19371 24418,19368 24416,19366 23583,18534 23581,18532 23579,18530 23577,18528 23574,18526 23572,18525 23570,18523 23567,18521 23565,18519 23563,18518 23560,18516 23558,18515 23555,18513 23553,18512 23550,18511 23547,18510 23545,18508 23542,18507 23539,18506 23536,18505 23534,18505 23531,18504 23528,18503 23525,18502 23522,18502 23520,18501 23517,18501 23514,18500 23511,18500 23508,18500 23505,18500 23502,18500 23500,18500 23497,18500 23494,18500 23491,18500 23488,18500 23485,18500 23482,18501 23479,18501 23477,18502 23474,18502 23471,18503 23468,18504 23465,18505 23463,18505 23460,18506 23457,18507 23454,18508 23452,18510 23449,18511 23446,18512 23444,18513 23441,18515 23439,18516 23436,18518 23434,18519 23432,18521 23429,18523 23427,18525 23425,18526 23422,18528 23420,18530 23418,18532 23416,18534 22584,19366 22582,19368 22580,19371 22578,19373 22577,19375 22575,19377 22573,19379 22571,19382 22570,19384 22568,19387 22566,19389 22565,19392 22564,19394 22562,19397 22561,19399 22560,19402 22559,19405 22558,19407 22557,19410 22556,19413 22555,19416 22554,19418 22553,19421 22553,19424 22552,19427 22551,19430 22551,19432 22551,19435 22550,19438 22550,19441 22550,19444 22550,19447 22550,19450 22550,19453 22550,19456 22550,19458 22550,19461 22551,19464 22551,19467 22551,19470 22552,19473 22553,19476 22553,19478 22554,19481 22555,19484 22556,19487 22557,19490 22558,19492 22559,19495 22560,19498 22561,19500 22562,19503 22564,19505 22565,19508 22566,19510 22568,19513 22570,19515 22571,19518 22573,19520 22575,19522 22577,19525 22578,19527 22580,19529 22582,19531 22584,19533 Z"/>
    <path fill="none" stroke="rgb(0,0,0)" stroke-width="3" stroke-linejoin="miter" stroke-linecap="square" d="M 22584,19533 L 23416,20366 23418,20368 23420,20370 23422,20372 23425,20374 23427,20376 23429,20378 23432,20379 23434,20381 23436,20383 23439,20384 23441,20386 23444,20387 23446,20388 23449,20390 23452,20391 23454,20392 23457,20393 23460,20394 23463,20395 23465,20396 23468,20397 23471,20397 23474,20398 23477,20399 23479,20399 23482,20400 23485,20400 23488,20401 23491,20401 23494,20401 23497,20401 23500,20401 23502,20401 23505,20401 23508,20401 23511,20401 23514,20400 23517,20400 23520,20399 23522,20399 23525,20398 23528,20397 23531,20397 23534,20396 23536,20395 23539,20394 23542,20393 23545,20392 23547,20391 23550,20390 23553,20388 23555,20387 23558,20386 23560,20384 23563,20383 23565,20381 23567,20379 23570,20378 23572,20376 23574,20374 23577,20372 23579,20370 23581,20368 23583,20366 24416,19533 24418,19531 24420,19529 24422,19527 24423,19525 24425,19522 24427,19520 24429,19518 24430,19515 24432,19513 24434,19510 24435,19508 24436,19505 24438,19503 24439,19500 24440,19498 24441,19495 24442,19492 24443,19490 24444,19487 24445,19484 24446,19481 24447,19478 24447,19476 24448,19473 24449,19470 24449,19467 24449,19464 24450,19461 24450,19458 24450,19456 24450,19453 24450,19450 24450,19447 24450,19444 24450,19441 24450,19438 24449,19435 24449,19432 24449,19430 24448,19427 24447,19424 24447,19421 24446,19418 24445,19416 24444,19413 24443,19410 24442,19407 24441,19405 24440,19402 24439,19399 24438,19397 24436,19394 24435,19392 24434,19389 24432,19387 24430,19384 24429,19382 24427,19379 24425,19377 24423,19375 24422,19373 24420,19371 24418,19368 24416,19366 23583,18534 23581,18532 23579,18530 23577,18528 23574,18526 23572,18525 23570,18523 23567,18521 23565,18519 23563,18518 23560,18516 23558,18515 23555,18513 23553,18512 23550,18511 23547,18510 23545,18508 23542,18507 23539,18506 23536,18505 23534,18505 23531,18504 23528,18503 23525,18502 23522,18502 23520,18501 23517,18501 23514,18500 23511,18500 23508,18500 23505,18500 23502,18500 23500,18500 23497,18500 23494,18500 23491,18500 23488,18500 23485,18500 23482,18501 23479,18501 23477,18502 23474,18502 23471,18503 23468,18504 23465,18505 23463,18505 23460,18506 23457,18507 23454,18508 23452,18510 23449,18511 23446,18512 23444,18513 23441,18515 23439,18516 23436,18518 23434,18519 23432,18521 23429,18523 23427,18525 23425,18526 23422,18528 23420,18530 23418,18532 23416,18534 22584,19366 22582,19368 22580,19371 22578,19373 22577,19375 22575,19377 22573,19379 22571,19382 22570,19384 22568,19387 22566,19389 22565,19392 22564,19394 22562,19397 22561,19399 22560,19402 22559,19405 22558,19407 22557,19410 22556,19413 22555,19416 22554,19418 22553,19421 22553,19424 22552,19427 22551,19430 22551,19432 22551,19435 22550,19438 22550,19441 22550,19444 22550,19447 22550,19450 22550,19453 22550,19456 22550,19458 22550,19461 22551,19464 22551,19467 22551,19470 22552,19473 22553,19476 22553,19478 22554,19481 22555,19484 22556,19487 22557,19490 22558,19492 22559,19495 22560,19498 22561,19500 22562,19503 22564,19505 22565,19508 22566,19510 22568,19513 22570,19515 22571,19518 22573,19520 22575,19522 22577,19525 22578,19527 22580,19529 22582,19531 22584,19533 Z"/>
   </g>
  </g>
  <g class="com.sun.star.drawing.PolyPolygonShape">
   <g id="id4">
    <rect class="BoundingBox" stroke="none" fill="none" x="22807" y="18757" width="1387" height="1388"/>
    <path fill="rgb(0,0,0)" stroke="none" d="M 23270,19910 L 23500,20141 24190,19450 23960,19220 24114,19066 23883,18835 23729,18989 23500,18760 22810,19450 23039,19679 22885,19834 23116,20066 23270,19910 Z"/>
    <path fill="none" stroke="rgb(0,0,0)" stroke-width="3" stroke-linejoin="miter" stroke-linecap="square" d="M 23270,19910 L 23500,20141 24190,19450 23960,19220 24114,19066 23883,18835 23729,18989 23500,18760 22810,19450 23039,19679 22885,19834 23116,20066 23270,19910 Z"/>
   </g>
  </g>
  <g class="com.sun.star.drawing.PolyPolygonShape">
   <g id="id5">
    <rect class="BoundingBox" stroke="none" fill="none" x="22870" y="18820" width="832" height="832"/>
    <path fill="rgb(255,129,0)" stroke="none" d="M 23071,19648 L 23698,19021 23501,18823 22873,19451 23071,19648 Z"/>
    <path fill="none" stroke="rgb(255,129,0)" stroke-width="3" stroke-linejoin="miter" stroke-linecap="square" d="M 23071,19648 L 23698,19021 23501,18823 22873,19451 23071,19648 Z"/>
   </g>
  </g>
  <g class="com.sun.star.drawing.PolyPolygonShape">
   <g id="id6">
    <rect class="BoundingBox" stroke="none" fill="none" x="23299" y="19249" width="832" height="832"/>
    <path fill="rgb(255,129,0)" stroke="none" d="M 23302,19880 L 23501,20077 24127,19451 23929,19252 23302,19880 Z"/>
    <path fill="none" stroke="rgb(255,129,0)" stroke-width="3" stroke-linejoin="miter" stroke-linecap="square" d="M 23302,19880 L 23501,20077 24127,19451 23929,19252 23302,19880 Z"/>
   </g>
  </g>
  <g class="com.sun.star.drawing.PolyPolygonShape">
   <g id="id7">
    <rect class="BoundingBox" stroke="none" fill="none" x="22499" y="20452" width="2003" height="552"/>
    <path fill="rgb(0,0,255)" stroke="none" d="M 22619,21001 L 24381,21001 24384,21001 24387,21000 24390,21000 24393,21000 24396,21000 24398,20999 24401,20999 24404,20998 24407,20998 24410,20997 24413,20996 24415,20995 24418,20995 24421,20994 24424,20993 24426,20991 24429,20990 24432,20989 24434,20988 24437,20987 24439,20985 24442,20984 24444,20981 24447,20980 24449,20978 24451,20976 24454,20974 24456,20973 24458,20971 24460,20969 24463,20967 24465,20965 24467,20963 24469,20961 24471,20959 24472,20956 24474,20954 24476,20952 24478,20949 24479,20947 24481,20945 24482,20942 24484,20940 24485,20937 24487,20934 24488,20932 24489,20929 24490,20927 24491,20924 24492,20921 24493,20918 24494,20916 24495,20913 24496,20910 24496,20907 24497,20904 24498,20902 24498,20899 24498,20896 24499,20893 24499,20890 24499,20887 24499,20884 24499,20881 24499,20573 24499,20570 24499,20567 24499,20564 24499,20561 24498,20558 24498,20555 24498,20552 24497,20550 24496,20547 24496,20544 24495,20541 24494,20538 24493,20536 24492,20533 24491,20530 24490,20527 24489,20525 24488,20522 24487,20520 24485,20517 24484,20514 24482,20512 24481,20509 24479,20507 24478,20505 24476,20502 24474,20500 24472,20498 24471,20496 24469,20493 24467,20491 24465,20489 24463,20487 24460,20485 24458,20483 24456,20481 24454,20480 24451,20478 24449,20476 24447,20474 24444,20473 24442,20471 24439,20470 24437,20469 24434,20467 24432,20466 24429,20465 24426,20464 24424,20462 24421,20461 24418,20460 24415,20460 24413,20459 24410,20458 24407,20457 24404,20457 24401,20456 24398,20456 24396,20455 24393,20455 24390,20455 24387,20455 24384,20454 24381,20454 22619,20454 22616,20454 22613,20455 22610,20455 22607,20455 22604,20455 22602,20456 22599,20456 22596,20457 22593,20457 22590,20458 22587,20459 22585,20460 22582,20460 22579,20461 22576,20462 22574,20464 22571,20465 22568,20466 22566,20467 22563,20469 22561,20470 22558,20471 22556,20473 22553,20474 22551,20476 22549,20478 22546,20480 22544,20481 22542,20483 22540,20485 22537,20487 22536,20489 22533,20491 22531,20493 22530,20496 22528,20498 22526,20500 22524,20502 22522,20505 22521,20507 22519,20509 22518,20512 22516,20514 22515,20517 22514,20520 22512,20522 22511,20525 22510,20527 22509,20530 22508,20533 22507,20536 22506,20538 22505,20541 22504,20544 22504,20547 22503,20550 22503,20552 22502,20555 22502,20558 22501,20561 22501,20564 22501,20567 22501,20570 22501,20573 22501,20881 22501,20884 22501,20887 22501,20890 22501,20893 22502,20896 22502,20899 22503,20902 22503,20904 22504,20907 22504,20910 22505,20913 22506,20916 22507,20918 22508,20921 22509,20924 22510,20927 22511,20929 22512,20932 22514,20934 22515,20937 22516,20940 22518,20942 22519,20945 22521,20947 22522,20949 22524,20952 22526,20954 22528,20956 22530,20959 22531,20961 22533,20963 22536,20965 22537,20967 22540,20969 22542,20971 22544,20973 22546,20974 22549,20976 22551,20978 22553,20980 22556,20981 22558,20984 22561,20985 22563,20987 22566,20988 22568,20989 22571,20990 22574,20991 22576,20993 22579,20994 22582,20995 22585,20995 22587,20996 22590,20997 22593,20998 22596,20998 22599,20999 22602,20999 22604,21000 22607,21000 22610,21000 22613,21000 22616,21001 22619,21001 Z"/>
    <path fill="none" stroke="rgb(0,0,255)" stroke-width="3" stroke-linejoin="miter" stroke-linecap="square" d="M 22619,21001 L 24381,21001 24384,21001 24387,21000 24390,21000 24393,21000 24396,21000 24398,20999 24401,20999 24404,20998 24407,20998 24410,20997 24413,20996 24415,20995 24418,20995 24421,20994 24424,20993 24426,20991 24429,20990 24432,20989 24434,20988 24437,20987 24439,20985 24442,20984 24444,20981 24447,20980 24449,20978 24451,20976 24454,20974 24456,20973 24458,20971 24460,20969 24463,20967 24465,20965 24467,20963 24469,20961 24471,20959 24472,20956 24474,20954 24476,20952 24478,20949 24479,20947 24481,20945 24482,20942 24484,20940 24485,20937 24487,20934 24488,20932 24489,20929 24490,20927 24491,20924 24492,20921 24493,20918 24494,20916 24495,20913 24496,20910 24496,20907 24497,20904 24498,20902 24498,20899 24498,20896 24499,20893 24499,20890 24499,20887 24499,20884 24499,20881 24499,20573 24499,20570 24499,20567 24499,20564 24499,20561 24498,20558 24498,20555 24498,20552 24497,20550 24496,20547 24496,20544 24495,20541 24494,20538 24493,20536 24492,20533 24491,20530 24490,20527 24489,20525 24488,20522 24487,20520 24485,20517 24484,20514 24482,20512 24481,20509 24479,20507 24478,20505 24476,20502 24474,20500 24472,20498 24471,20496 24469,20493 24467,20491 24465,20489 24463,20487 24460,20485 24458,20483 24456,20481 24454,20480 24451,20478 24449,20476 24447,20474 24444,20473 24442,20471 24439,20470 24437,20469 24434,20467 24432,20466 24429,20465 24426,20464 24424,20462 24421,20461 24418,20460 24415,20460 24413,20459 24410,20458 24407,20457 24404,20457 24401,20456 24398,20456 24396,20455 24393,20455 24390,20455 24387,20455 24384,20454 24381,20454 22619,20454 22616,20454 22613,20455 22610,20455 22607,20455 22604,20455 22602,20456 22599,20456 22596,20457 22593,20457 22590,20458 22587,20459 22585,20460 22582,20460 22579,20461 22576,20462 22574,20464 22571,20465 22568,20466 22566,20467 22563,20469 22561,20470 22558,20471 22556,20473 22553,20474 22551,20476 22549,20478 22546,20480 22544,20481 22542,20483 22540,20485 22537,20487 22536,20489 22533,20491 22531,20493 22530,20496 22528,20498 22526,20500 22524,20502 22522,20505 22521,20507 22519,20509 22518,20512 22516,20514 22515,20517 22514,20520 22512,20522 22511,20525 22510,20527 22509,20530 22508,20533 22507,20536 22506,20538 22505,20541 22504,20544 22504,20547 22503,20550 22503,20552 22502,20555 22502,20558 22501,20561 22501,20564 22501,20567 22501,20570 22501,20573 22501,20881 22501,20884 22501,20887 22501,20890 22501,20893 22502,20896 22502,20899 22503,20902 22503,20904 22504,20907 22504,20910 22505,20913 22506,20916 22507,20918 22508,20921 22509,20924 22510,20927 22511,20929 22512,20932 22514,20934 22515,20937 22516,20940 22518,20942 22519,20945 22521,20947 22522,20949 22524,20952 22526,20954 22528,20956 22530,20959 22531,20961 22533,20963 22536,20965 22537,20967 22540,20969 22542,20971 22544,20973 22546,20974 22549,20976 22551,20978 22553,20980 22556,20981 22558,20984 22561,20985 22563,20987 22566,20988 22568,20989 22571,20990 22574,20991 22576,20993 22579,20994 22582,20995 22585,20995 22587,20996 22590,20997 22593,20998 22596,20998 22599,20999 22602,20999 22604,21000 22607,21000 22610,21000 22613,21000 22616,21001 22619,21001 Z"/>
   </g>
  </g>
  <g class="com.sun.star.drawing.PolyPolygonShape">
   <g id="id8">
    <rect class="BoundingBox" stroke="none" fill="none" x="22651" y="20489" width="317" height="469"/>
    <path fill="rgb(255,255,255)" stroke="none" d="M 22662,20955 L 22965,20955 22965,20879 22785,20879 22914,20748 22915,20747 22917,20745 22918,20743 22920,20741 22921,20740 22923,20738 22924,20736 22925,20734 22927,20732 22928,20731 22930,20729 22931,20727 22932,20725 22933,20723 22935,20721 22936,20719 22937,20717 22938,20715 22939,20713 22940,20711 22941,20709 22942,20707 22943,20704 22944,20702 22945,20700 22946,20698 22947,20696 22947,20694 22948,20692 22949,20689 22950,20687 22950,20685 22951,20683 22951,20681 22952,20678 22952,20676 22953,20674 22953,20672 22954,20669 22954,20667 22955,20665 22955,20662 22955,20660 22955,20658 22956,20655 22956,20653 22956,20651 22956,20649 22956,20646 22956,20644 22956,20642 22956,20639 22956,20637 22956,20635 22956,20632 22956,20630 22955,20628 22955,20626 22955,20623 22954,20621 22954,20619 22954,20616 22953,20614 22953,20612 22952,20610 22952,20607 22951,20605 22951,20602 22950,20600 22949,20597 22949,20595 22948,20593 22947,20591 22946,20589 22946,20587 22945,20584 22944,20582 22943,20580 22942,20578 22941,20576 22940,20574 22939,20572 22938,20570 22937,20568 22936,20566 22934,20564 22933,20562 22932,20560 22931,20558 22929,20556 22928,20554 22927,20552 22925,20551 22924,20549 22922,20547 22921,20545 22919,20543 22918,20541 22916,20540 22915,20538 22913,20536 22912,20535 22910,20533 22908,20532 22907,20530 22905,20529 22903,20527 22901,20525 22900,20524 22898,20523 22896,20521 22894,20520 22892,20518 22890,20517 22888,20516 22886,20515 22884,20513 22882,20512 22880,20511 22878,20510 22876,20509 22874,20508 22872,20507 22870,20506 22868,20505 22866,20504 22864,20503 22862,20502 22860,20501 22857,20500 22854,20499 22852,20499 22850,20498 22848,20497 22846,20497 22843,20496 22841,20495 22839,20495 22837,20494 22834,20494 22832,20493 22830,20493 22828,20493 22825,20492 22823,20492 22821,20492 22818,20492 22816,20491 22814,20491 22811,20491 22809,20491 22807,20491 22805,20491 22802,20491 22800,20491 22798,20491 22795,20491 22793,20491 22791,20491 22788,20492 22786,20492 22784,20492 22781,20492 22779,20493 22777,20493 22775,20494 22772,20494 22770,20495 22768,20495 22766,20496 22763,20496 22761,20497 22759,20498 22757,20498 22755,20499 22752,20500 22750,20501 22748,20501 22746,20502 22744,20503 22742,20504 22740,20505 22738,20506 22736,20507 22734,20508 22731,20509 22729,20510 22727,20512 22725,20513 22723,20514 22722,20515 22720,20517 22718,20518 22716,20519 22714,20521 22712,20522 22710,20523 22709,20525 22707,20526 22705,20528 22703,20529 22702,20531 22700,20533 22698,20534 22697,20536 22695,20537 22693,20539 22692,20541 22690,20543 22689,20544 22687,20546 22686,20548 22684,20550 22683,20552 22682,20553 22680,20555 22679,20557 22678,20559 22676,20561 22675,20563 22674,20565 22673,20567 22672,20569 22671,20571 22670,20573 22669,20575 22667,20577 22667,20579 22666,20581 22665,20583 22664,20586 22663,20588 22662,20590 22661,20592 22661,20594 22660,20596 22659,20599 22659,20601 22658,20603 22657,20606 22657,20609 22656,20611 22656,20613 22655,20615 22655,20618 22655,20620 22654,20622 22654,20625 22654,20627 22654,20629 22653,20632 22653,20634 22653,20636 22653,20638 22653,20641 22653,20643 22653,20650 22736,20650 22736,20635 22736,20633 22736,20631 22736,20629 22737,20627 22737,20625 22737,20623 22738,20621 22738,20619 22739,20617 22739,20615 22740,20613 22741,20611 22742,20609 22742,20607 22743,20605 22744,20603 22745,20601 22746,20599 22747,20597 22749,20596 22750,20594 22751,20592 22752,20590 22754,20589 22755,20587 22756,20586 22758,20585 22760,20583 22761,20582 22763,20581 22764,20579 22766,20578 22768,20577 22770,20576 22771,20575 22773,20574 22775,20573 22777,20572 22779,20571 22781,20571 22783,20570 22785,20569 22787,20569 22789,20568 22791,20568 22793,20567 22795,20567 22797,20567 22799,20567 22801,20567 22803,20567 22805,20567 22807,20567 22809,20567 22812,20567 22814,20567 22816,20568 22818,20568 22820,20568 22822,20569 22824,20569 22826,20570 22828,20571 22830,20572 22832,20572 22833,20573 22835,20574 22837,20575 22839,20576 22841,20577 22842,20578 22844,20580 22846,20581 22847,20582 22849,20583 22850,20585 22852,20586 22853,20588 22855,20589 22856,20591 22857,20592 22860,20594 22861,20596 22862,20598 22863,20599 22864,20601 22865,20603 22866,20606 22867,20608 22868,20610 22869,20611 22869,20613 22870,20615 22871,20617 22871,20619 22871,20621 22872,20624 22872,20626 22873,20628 22873,20630 22873,20632 22873,20634 22873,20636 22873,20638 22873,20640 22873,20642 22872,20644 22872,20646 22872,20648 22871,20650 22871,20652 22870,20654 22870,20656 22869,20658 22868,20660 22867,20662 22867,20664 22866,20666 22865,20668 22864,20669 22863,20671 22862,20673 22860,20675 22858,20676 22857,20678 22855,20680 22854,20681 22853,20683 22662,20879 22662,20955 Z"/>
    <path fill="none" stroke="rgb(255,255,255)" stroke-width="3" stroke-linejoin="miter" stroke-linecap="square" d="M 22662,20955 L 22965,20955 22965,20879 22785,20879 22914,20748 22915,20747 22917,20745 22918,20743 22920,20741 22921,20740 22923,20738 22924,20736 22925,20734 22927,20732 22928,20731 22930,20729 22931,20727 22932,20725 22933,20723 22935,20721 22936,20719 22937,20717 22938,20715 22939,20713 22940,20711 22941,20709 22942,20707 22943,20704 22944,20702 22945,20700 22946,20698 22947,20696 22947,20694 22948,20692 22949,20689 22950,20687 22950,20685 22951,20683 22951,20681 22952,20678 22952,20676 22953,20674 22953,20672 22954,20669 22954,20667 22955,20665 22955,20662 22955,20660 22955,20658 22956,20655 22956,20653 22956,20651 22956,20649 22956,20646 22956,20644 22956,20642 22956,20639 22956,20637 22956,20635 22956,20632 22956,20630 22955,20628 22955,20626 22955,20623 22954,20621 22954,20619 22954,20616 22953,20614 22953,20612 22952,20610 22952,20607 22951,20605 22951,20602 22950,20600 22949,20597 22949,20595 22948,20593 22947,20591 22946,20589 22946,20587 22945,20584 22944,20582 22943,20580 22942,20578 22941,20576 22940,20574 22939,20572 22938,20570 22937,20568 22936,20566 22934,20564 22933,20562 22932,20560 22931,20558 22929,20556 22928,20554 22927,20552 22925,20551 22924,20549 22922,20547 22921,20545 22919,20543 22918,20541 22916,20540 22915,20538 22913,20536 22912,20535 22910,20533 22908,20532 22907,20530 22905,20529 22903,20527 22901,20525 22900,20524 22898,20523 22896,20521 22894,20520 22892,20518 22890,20517 22888,20516 22886,20515 22884,20513 22882,20512 22880,20511 22878,20510 22876,20509 22874,20508 22872,20507 22870,20506 22868,20505 22866,20504 22864,20503 22862,20502 22860,20501 22857,20500 22854,20499 22852,20499 22850,20498 22848,20497 22846,20497 22843,20496 22841,20495 22839,20495 22837,20494 22834,20494 22832,20493 22830,20493 22828,20493 22825,20492 22823,20492 22821,20492 22818,20492 22816,20491 22814,20491 22811,20491 22809,20491 22807,20491 22805,20491 22802,20491 22800,20491 22798,20491 22795,20491 22793,20491 22791,20491 22788,20492 22786,20492 22784,20492 22781,20492 22779,20493 22777,20493 22775,20494 22772,20494 22770,20495 22768,20495 22766,20496 22763,20496 22761,20497 22759,20498 22757,20498 22755,20499 22752,20500 22750,20501 22748,20501 22746,20502 22744,20503 22742,20504 22740,20505 22738,20506 22736,20507 22734,20508 22731,20509 22729,20510 22727,20512 22725,20513 22723,20514 22722,20515 22720,20517 22718,20518 22716,20519 22714,20521 22712,20522 22710,20523 22709,20525 22707,20526 22705,20528 22703,20529 22702,20531 22700,20533 22698,20534 22697,20536 22695,20537 22693,20539 22692,20541 22690,20543 22689,20544 22687,20546 22686,20548 22684,20550 22683,20552 22682,20553 22680,20555 22679,20557 22678,20559 22676,20561 22675,20563 22674,20565 22673,20567 22672,20569 22671,20571 22670,20573 22669,20575 22667,20577 22667,20579 22666,20581 22665,20583 22664,20586 22663,20588 22662,20590 22661,20592 22661,20594 22660,20596 22659,20599 22659,20601 22658,20603 22657,20606 22657,20609 22656,20611 22656,20613 22655,20615 22655,20618 22655,20620 22654,20622 22654,20625 22654,20627 22654,20629 22653,20632 22653,20634 22653,20636 22653,20638 22653,20641 22653,20643 22653,20650 22736,20650 22736,20635 22736,20633 22736,20631 22736,20629 22737,20627 22737,20625 22737,20623 22738,20621 22738,20619 22739,20617 22739,20615 22740,20613 22741,20611 22742,20609 22742,20607 22743,20605 22744,20603 22745,20601 22746,20599 22747,20597 22749,20596 22750,20594 22751,20592 22752,20590 22754,20589 22755,20587 22756,20586 22758,20585 22760,20583 22761,20582 22763,20581 22764,20579 22766,20578 22768,20577 22770,20576 22771,20575 22773,20574 22775,20573 22777,20572 22779,20571 22781,20571 22783,20570 22785,20569 22787,20569 22789,20568 22791,20568 22793,20567 22795,20567 22797,20567 22799,20567 22801,20567 22803,20567 22805,20567 22807,20567 22809,20567 22812,20567 22814,20567 22816,20568 22818,20568 22820,20568 22822,20569 22824,20569 22826,20570 22828,20571 22830,20572 22832,20572 22833,20573 22835,20574 22837,20575 22839,20576 22841,20577 22842,20578 22844,20580 22846,20581 22847,20582 22849,20583 22850,20585 22852,20586 22853,20588 22855,20589 22856,20591 22857,20592 22860,20594 22861,20596 22862,20598 22863,20599 22864,20601 22865,20603 22866,20606 22867,20608 22868,20610 22869,20611 22869,20613 22870,20615 22871,20617 22871,20619 22871,20621 22872,20624 22872,20626 22873,20628 22873,20630 22873,20632 22873,20634 22873,20636 22873,20638 22873,20640 22873,20642 22872,20644 22872,20646 22872,20648 22871,20650 22871,20652 22870,20654 22870,20656 22869,20658 22868,20660 22867,20662 22867,20664 22866,20666 22865,20668 22864,20669 22863,20671 22862,20673 22860,20675 22858,20676 22857,20678 22855,20680 22854,20681 22853,20683 22662,20879 22662,20955 Z"/>
   </g>
  </g>
  <g class="com.sun.star.drawing.PolyPolygonShape">
   <g id="id9">
    <rect class="BoundingBox" stroke="none" fill="none" x="23064" y="20498" width="315" height="468"/>
    <path fill="rgb(255,255,255)" stroke="none" d="M 23077,20760 L 23157,20760 23158,20758 23160,20755 23162,20753 23163,20751 23165,20748 23167,20746 23169,20744 23172,20742 23174,20740 23176,20738 23179,20737 23181,20735 23184,20733 23186,20732 23189,20731 23192,20729 23194,20728 23197,20727 23200,20726 23203,20726 23206,20725 23209,20724 23212,20724 23215,20724 23218,20724 23220,20724 23224,20724 23226,20724 23229,20724 23232,20725 23235,20725 23238,20726 23241,20727 23244,20728 23247,20729 23249,20730 23252,20731 23256,20733 23258,20734 23261,20736 23263,20737 23266,20739 23268,20741 23270,20743 23272,20745 23274,20747 23276,20749 23278,20752 23280,20754 23281,20757 23283,20759 23285,20762 23286,20764 23287,20767 23288,20770 23289,20773 23290,20776 23291,20779 23292,20781 23292,20784 23293,20787 23293,20790 23293,20793 23293,20796 23293,20819 23293,20820 23293,20822 23293,20824 23293,20825 23293,20827 23292,20829 23292,20830 23292,20832 23292,20833 23291,20835 23291,20837 23290,20838 23290,20840 23290,20841 23289,20843 23288,20844 23288,20846 23287,20847 23287,20849 23286,20850 23285,20852 23285,20853 23284,20855 23283,20856 23282,20857 23281,20859 23280,20860 23279,20861 23278,20863 23277,20864 23276,20865 23275,20866 23274,20868 23273,20869 23272,20870 23271,20871 23270,20872 23268,20873 23267,20874 23266,20875 23265,20876 23263,20877 23262,20878 23261,20879 23259,20880 23258,20881 23257,20882 23255,20883 23253,20883 23251,20884 23250,20885 23248,20885 23247,20886 23245,20887 23244,20887 23242,20888 23241,20888 23239,20889 23238,20889 23236,20890 23234,20890 23233,20890 23231,20890 23229,20891 23228,20891 23226,20891 23225,20891 23223,20891 23221,20891 23220,20891 23218,20891 23217,20891 23215,20891 23213,20891 23212,20891 23210,20891 23209,20890 23207,20890 23205,20890 23204,20890 23202,20889 23201,20889 23199,20888 23197,20888 23196,20887 23194,20887 23193,20886 23191,20886 23190,20885 23188,20884 23187,20883 23186,20883 23184,20882 23183,20881 23181,20880 23180,20879 23179,20879 23177,20878 23176,20877 23175,20876 23173,20875 23172,20873 23171,20872 23170,20871 23169,20870 23168,20869 23166,20868 23165,20867 23164,20865 23163,20864 23162,20863 23161,20862 23160,20860 23159,20859 23159,20858 23158,20856 23157,20855 23156,20853 23155,20852 23155,20850 23154,20849 23153,20848 23153,20846 23152,20844 23151,20843 23151,20841 23150,20840 23150,20838 23067,20838 23068,20841 23069,20844 23069,20847 23070,20850 23071,20853 23072,20856 23073,20858 23074,20861 23075,20864 23076,20867 23077,20869 23078,20872 23079,20875 23081,20878 23082,20880 23084,20883 23085,20886 23087,20888 23088,20891 23090,20893 23091,20896 23093,20898 23095,20901 23097,20903 23099,20905 23100,20908 23102,20910 23104,20912 23106,20914 23108,20916 23110,20918 23113,20921 23115,20922 23117,20924 23119,20926 23122,20928 23124,20930 23126,20932 23129,20934 23131,20935 23134,20937 23136,20939 23139,20940 23141,20942 23144,20943 23146,20945 23149,20946 23152,20948 23154,20949 23157,20950 23160,20951 23163,20952 23165,20953 23168,20954 23171,20955 23174,20956 23177,20957 23180,20958 23182,20959 23185,20959 23188,20960 23191,20961 23194,20961 23197,20962 23200,20962 23203,20962 23206,20963 23209,20963 23212,20963 23215,20963 23218,20963 23221,20963 23224,20963 23227,20963 23230,20963 23233,20963 23236,20962 23239,20962 23242,20962 23245,20961 23248,20961 23251,20960 23253,20959 23257,20959 23260,20958 23263,20957 23266,20956 23269,20956 23272,20955 23274,20954 23277,20953 23280,20951 23283,20950 23286,20949 23288,20948 23291,20946 23293,20945 23296,20944 23299,20942 23301,20941 23304,20939 23306,20937 23309,20936 23311,20934 23314,20932 23316,20931 23318,20929 23321,20927 23323,20925 23325,20923 23327,20921 23330,20919 23332,20917 23334,20915 23336,20912 23338,20910 23340,20908 23342,20906 23343,20903 23345,20901 23347,20898 23349,20896 23350,20893 23352,20891 23354,20888 23355,20886 23357,20883 23358,20881 23359,20878 23361,20875 23362,20873 23363,20870 23364,20867 23366,20864 23367,20862 23368,20859 23369,20856 23370,20853 23370,20850 23371,20848 23372,20845 23373,20842 23373,20839 23374,20836 23374,20833 23375,20830 23375,20827 23375,20824 23376,20821 23376,20818 23376,20815 23376,20812 23376,20809 23376,20806 23376,20803 23376,20800 23376,20797 23376,20794 23375,20791 23375,20788 23375,20785 23374,20783 23374,20779 23373,20777 23373,20774 23372,20771 23371,20768 23370,20765 23370,20762 23369,20759 23368,20756 23367,20754 23366,20751 23365,20748 23363,20745 23362,20743 23361,20740 23360,20737 23358,20735 23357,20732 23355,20729 23354,20727 23352,20724 23351,20722 23349,20719 23347,20717 23346,20714 23344,20712 23342,20710 23340,20707 23338,20705 23336,20703 23334,20701 23332,20699 23330,20696 23328,20694 23326,20692 23323,20690 23321,20688 23319,20686 23316,20685 23314,20683 23312,20681 23309,20679 23307,20678 23304,20676 23302,20675 23299,20673 23297,20672 23294,20670 23291,20669 23289,20667 23286,20666 23283,20665 23280,20664 23278,20663 23275,20662 23272,20661 23269,20660 23266,20659 23264,20658 23261,20657 23258,20656 23255,20656 23251,20655 23248,20654 23245,20654 23242,20653 23239,20653 23236,20653 23233,20652 23230,20652 23227,20652 23224,20652 23221,20652 23218,20652 23215,20652 23212,20652 23209,20652 23206,20652 23204,20653 23200,20653 23198,20653 23195,20654 23192,20654 23189,20655 23186,20655 23183,20656 23180,20657 23177,20658 23174,20659 23172,20659 23169,20660 23166,20661 23163,20662 23160,20664 23160,20577 23344,20577 23344,20500 23077,20500 23077,20760 Z"/>
    <path fill="none" stroke="rgb(255,255,255)" stroke-width="3" stroke-linejoin="miter" stroke-linecap="square" d="M 23077,20760 L 23157,20760 23158,20758 23160,20755 23162,20753 23163,20751 23165,20748 23167,20746 23169,20744 23172,20742 23174,20740 23176,20738 23179,20737 23181,20735 23184,20733 23186,20732 23189,20731 23192,20729 23194,20728 23197,20727 23200,20726 23203,20726 23206,20725 23209,20724 23212,20724 23215,20724 23218,20724 23220,20724 23224,20724 23226,20724 23229,20724 23232,20725 23235,20725 23238,20726 23241,20727 23244,20728 23247,20729 23249,20730 23252,20731 23256,20733 23258,20734 23261,20736 23263,20737 23266,20739 23268,20741 23270,20743 23272,20745 23274,20747 23276,20749 23278,20752 23280,20754 23281,20757 23283,20759 23285,20762 23286,20764 23287,20767 23288,20770 23289,20773 23290,20776 23291,20779 23292,20781 23292,20784 23293,20787 23293,20790 23293,20793 23293,20796 23293,20819 23293,20820 23293,20822 23293,20824 23293,20825 23293,20827 23292,20829 23292,20830 23292,20832 23292,20833 23291,20835 23291,20837 23290,20838 23290,20840 23290,20841 23289,20843 23288,20844 23288,20846 23287,20847 23287,20849 23286,20850 23285,20852 23285,20853 23284,20855 23283,20856 23282,20857 23281,20859 23280,20860 23279,20861 23278,20863 23277,20864 23276,20865 23275,20866 23274,20868 23273,20869 23272,20870 23271,20871 23270,20872 23268,20873 23267,20874 23266,20875 23265,20876 23263,20877 23262,20878 23261,20879 23259,20880 23258,20881 23257,20882 23255,20883 23253,20883 23251,20884 23250,20885 23248,20885 23247,20886 23245,20887 23244,20887 23242,20888 23241,20888 23239,20889 23238,20889 23236,20890 23234,20890 23233,20890 23231,20890 23229,20891 23228,20891 23226,20891 23225,20891 23223,20891 23221,20891 23220,20891 23218,20891 23217,20891 23215,20891 23213,20891 23212,20891 23210,20891 23209,20890 23207,20890 23205,20890 23204,20890 23202,20889 23201,20889 23199,20888 23197,20888 23196,20887 23194,20887 23193,20886 23191,20886 23190,20885 23188,20884 23187,20883 23186,20883 23184,20882 23183,20881 23181,20880 23180,20879 23179,20879 23177,20878 23176,20877 23175,20876 23173,20875 23172,20873 23171,20872 23170,20871 23169,20870 23168,20869 23166,20868 23165,20867 23164,20865 23163,20864 23162,20863 23161,20862 23160,20860 23159,20859 23159,20858 23158,20856 23157,20855 23156,20853 23155,20852 23155,20850 23154,20849 23153,20848 23153,20846 23152,20844 23151,20843 23151,20841 23150,20840 23150,20838 23067,20838 23068,20841 23069,20844 23069,20847 23070,20850 23071,20853 23072,20856 23073,20858 23074,20861 23075,20864 23076,20867 23077,20869 23078,20872 23079,20875 23081,20878 23082,20880 23084,20883 23085,20886 23087,20888 23088,20891 23090,20893 23091,20896 23093,20898 23095,20901 23097,20903 23099,20905 23100,20908 23102,20910 23104,20912 23106,20914 23108,20916 23110,20918 23113,20921 23115,20922 23117,20924 23119,20926 23122,20928 23124,20930 23126,20932 23129,20934 23131,20935 23134,20937 23136,20939 23139,20940 23141,20942 23144,20943 23146,20945 23149,20946 23152,20948 23154,20949 23157,20950 23160,20951 23163,20952 23165,20953 23168,20954 23171,20955 23174,20956 23177,20957 23180,20958 23182,20959 23185,20959 23188,20960 23191,20961 23194,20961 23197,20962 23200,20962 23203,20962 23206,20963 23209,20963 23212,20963 23215,20963 23218,20963 23221,20963 23224,20963 23227,20963 23230,20963 23233,20963 23236,20962 23239,20962 23242,20962 23245,20961 23248,20961 23251,20960 23253,20959 23257,20959 23260,20958 23263,20957 23266,20956 23269,20956 23272,20955 23274,20954 23277,20953 23280,20951 23283,20950 23286,20949 23288,20948 23291,20946 23293,20945 23296,20944 23299,20942 23301,20941 23304,20939 23306,20937 23309,20936 23311,20934 23314,20932 23316,20931 23318,20929 23321,20927 23323,20925 23325,20923 23327,20921 23330,20919 23332,20917 23334,20915 23336,20912 23338,20910 23340,20908 23342,20906 23343,20903 23345,20901 23347,20898 23349,20896 23350,20893 23352,20891 23354,20888 23355,20886 23357,20883 23358,20881 23359,20878 23361,20875 23362,20873 23363,20870 23364,20867 23366,20864 23367,20862 23368,20859 23369,20856 23370,20853 23370,20850 23371,20848 23372,20845 23373,20842 23373,20839 23374,20836 23374,20833 23375,20830 23375,20827 23375,20824 23376,20821 23376,20818 23376,20815 23376,20812 23376,20809 23376,20806 23376,20803 23376,20800 23376,20797 23376,20794 23375,20791 23375,20788 23375,20785 23374,20783 23374,20779 23373,20777 23373,20774 23372,20771 23371,20768 23370,20765 23370,20762 23369,20759 23368,20756 23367,20754 23366,20751 23365,20748 23363,20745 23362,20743 23361,20740 23360,20737 23358,20735 23357,20732 23355,20729 23354,20727 23352,20724 23351,20722 23349,20719 23347,20717 23346,20714 23344,20712 23342,20710 23340,20707 23338,20705 23336,20703 23334,20701 23332,20699 23330,20696 23328,20694 23326,20692 23323,20690 23321,20688 23319,20686 23316,20685 23314,20683 23312,20681 23309,20679 23307,20678 23304,20676 23302,20675 23299,20673 23297,20672 23294,20670 23291,20669 23289,20667 23286,20666 23283,20665 23280,20664 23278,20663 23275,20662 23272,20661 23269,20660 23266,20659 23264,20658 23261,20657 23258,20656 23255,20656 23251,20655 23248,20654 23245,20654 23242,20653 23239,20653 23236,20653 23233,20652 23230,20652 23227,20652 23224,20652 23221,20652 23218,20652 23215,20652 23212,20652 23209,20652 23206,20652 23204,20653 23200,20653 23198,20653 23195,20654 23192,20654 23189,20655 23186,20655 23183,20656 23180,20657 23177,20658 23174,20659 23172,20659 23169,20660 23166,20661 23163,20662 23160,20664 23160,20577 23344,20577 23344,20500 23077,20500 23077,20760 Z"/>
   </g>
  </g>
  <g class="com.sun.star.drawing.PolyPolygonShape">
   <g id="id10">
    <rect class="BoundingBox" stroke="none" fill="none" x="23475" y="20489" width="317" height="478"/>
    <path fill="rgb(255,255,255)" stroke="none" d="M 23561,20640 L 23561,20816 23561,20818 23561,20820 23561,20821 23561,20823 23561,20825 23562,20827 23562,20828 23562,20830 23563,20832 23563,20834 23563,20835 23564,20837 23565,20839 23565,20841 23566,20842 23566,20844 23567,20845 23568,20847 23569,20849 23569,20850 23570,20852 23571,20853 23572,20855 23573,20856 23574,20858 23575,20859 23576,20861 23577,20862 23579,20863 23580,20865 23581,20866 23582,20867 23583,20868 23585,20870 23586,20871 23587,20872 23589,20873 23590,20874 23592,20875 23593,20876 23595,20877 23596,20878 23598,20879 23599,20880 23601,20881 23602,20882 23604,20882 23606,20883 23607,20884 23609,20884 23611,20885 23612,20885 23614,20886 23616,20886 23617,20887 23619,20887 23621,20887 23623,20888 23625,20888 23626,20888 23628,20888 23630,20888 23632,20888 23633,20888 23635,20888 23637,20888 23639,20888 23640,20888 23642,20888 23644,20888 23646,20887 23647,20887 23649,20887 23651,20886 23653,20886 23654,20885 23656,20885 23658,20884 23659,20884 23661,20883 23663,20882 23664,20882 23666,20881 23667,20880 23669,20879 23671,20878 23672,20877 23673,20876 23675,20875 23677,20874 23678,20873 23679,20872 23681,20871 23682,20870 23683,20868 23684,20867 23686,20866 23687,20865 23688,20863 23689,20862 23690,20861 23691,20859 23693,20858 23693,20856 23695,20855 23695,20853 23696,20852 23697,20850 23698,20849 23699,20847 23700,20845 23700,20844 23701,20842 23702,20841 23702,20839 23703,20837 23703,20835 23704,20834 23704,20832 23704,20830 23705,20828 23705,20827 23705,20825 23705,20823 23706,20821 23706,20820 23706,20818 23706,20816 23706,20640 23706,20638 23706,20636 23706,20635 23705,20633 23705,20631 23705,20629 23705,20628 23704,20626 23704,20624 23704,20622 23703,20621 23703,20619 23702,20617 23702,20616 23701,20614 23700,20612 23700,20611 23699,20609 23698,20607 23697,20606 23696,20604 23695,20603 23695,20601 23693,20600 23693,20598 23691,20597 23690,20595 23689,20594 23688,20593 23687,20591 23686,20590 23684,20589 23683,20588 23682,20586 23681,20585 23679,20584 23678,20583 23677,20582 23675,20581 23673,20580 23672,20579 23671,20578 23669,20577 23667,20576 23666,20575 23664,20575 23663,20574 23661,20573 23659,20572 23658,20572 23656,20571 23654,20571 23653,20570 23651,20570 23649,20569 23647,20569 23646,20569 23644,20568 23642,20568 23640,20568 23639,20568 23637,20568 23635,20568 23633,20568 23632,20568 23630,20568 23628,20568 23626,20568 23625,20568 23623,20568 23621,20569 23619,20569 23617,20569 23616,20570 23614,20570 23612,20571 23611,20571 23609,20572 23607,20572 23606,20573 23604,20574 23602,20575 23601,20575 23599,20576 23598,20577 23596,20578 23595,20579 23593,20580 23592,20581 23590,20582 23589,20583 23587,20584 23586,20585 23585,20586 23583,20588 23582,20589 23581,20590 23580,20591 23579,20593 23577,20594 23576,20595 23575,20597 23574,20598 23573,20600 23572,20601 23571,20603 23570,20604 23569,20606 23569,20607 23568,20609 23567,20611 23566,20612 23566,20614 23565,20616 23565,20617 23564,20619 23563,20621 23563,20622 23563,20624 23562,20626 23562,20628 23562,20629 23561,20631 23561,20633 23561,20635 23561,20636 23561,20638 23561,20640 Z M 23477,20648 L 23477,20808 23477,20812 23477,20816 23477,20820 23477,20824 23478,20828 23478,20831 23479,20835 23480,20839 23482,20843 23482,20846 23483,20850 23484,20854 23485,20857 23487,20861 23488,20864 23490,20868 23491,20872 23493,20875 23494,20879 23496,20882 23498,20885 23500,20888 23502,20892 23504,20895 23506,20898 23508,20901 23511,20904 23513,20907 23516,20910 23518,20913 23521,20916 23523,20919 23526,20921 23529,20924 23532,20926 23535,20929 23537,20931 23541,20933 23544,20936 23547,20938 23550,20940 23553,20942 23557,20944 23560,20946 23563,20948 23567,20949 23570,20951 23574,20952 23577,20954 23581,20955 23585,20956 23588,20957 23592,20959 23595,20959 23599,20960 23603,20961 23607,20962 23610,20962 23614,20963 23618,20963 23622,20964 23626,20964 23630,20964 23633,20964 23637,20964 23641,20964 23645,20964 23649,20963 23652,20963 23656,20962 23660,20962 23664,20961 23667,20960 23671,20959 23675,20959 23679,20957 23682,20956 23686,20955 23689,20954 23693,20952 23696,20951 23700,20949 23703,20948 23707,20946 23710,20944 23713,20942 23716,20940 23720,20938 23723,20936 23726,20933 23729,20931 23732,20929 23735,20926 23738,20924 23741,20921 23743,20919 23746,20916 23749,20913 23751,20910 23754,20907 23756,20904 23758,20901 23761,20898 23763,20895 23765,20892 23767,20888 23769,20885 23771,20882 23772,20879 23774,20875 23776,20872 23777,20868 23778,20864 23780,20861 23781,20857 23782,20854 23783,20850 23784,20846 23785,20843 23786,20839 23787,20835 23787,20831 23788,20828 23788,20824 23789,20820 23789,20816 23789,20812 23789,20808 23789,20648 23789,20644 23789,20640 23789,20636 23788,20632 23788,20628 23787,20625 23787,20621 23786,20617 23785,20613 23784,20610 23783,20606 23782,20602 23781,20599 23780,20595 23778,20592 23777,20588 23776,20584 23774,20581 23772,20578 23771,20574 23769,20571 23767,20568 23765,20564 23763,20561 23761,20558 23758,20555 23756,20552 23754,20549 23751,20546 23749,20543 23746,20540 23743,20537 23741,20535 23738,20531 23735,20529 23732,20526 23729,20524 23726,20522 23723,20519 23720,20517 23716,20515 23713,20513 23710,20511 23707,20509 23703,20507 23700,20506 23696,20504 23693,20503 23689,20501 23686,20500 23682,20499 23679,20498 23675,20496 23671,20496 23667,20495 23664,20494 23660,20493 23656,20493 23652,20492 23649,20492 23645,20491 23641,20491 23637,20491 23633,20491 23630,20491 23626,20491 23622,20491 23618,20492 23614,20492 23610,20493 23607,20493 23603,20494 23599,20495 23595,20496 23592,20496 23588,20498 23585,20499 23581,20500 23577,20501 23574,20503 23570,20504 23567,20506 23563,20507 23560,20509 23557,20511 23553,20513 23550,20515 23547,20517 23544,20519 23541,20522 23537,20524 23535,20526 23532,20529 23529,20531 23526,20535 23523,20537 23521,20540 23518,20543 23516,20546 23513,20549 23511,20552 23508,20555 23506,20558 23504,20561 23502,20564 23500,20568 23498,20571 23496,20574 23494,20578 23493,20581 23491,20584 23490,20588 23488,20592 23487,20595 23485,20599 23484,20602 23483,20606 23482,20610 23482,20613 23480,20617 23479,20621 23478,20625 23478,20628 23477,20632 23477,20636 23477,20640 23477,20644 23477,20648 Z"/>
    <path fill="none" stroke="rgb(255,255,255)" stroke-width="3" stroke-linejoin="miter" stroke-linecap="square" d="M 23561,20640 L 23561,20816 23561,20818 23561,20820 23561,20821 23561,20823 23561,20825 23562,20827 23562,20828 23562,20830 23563,20832 23563,20834 23563,20835 23564,20837 23565,20839 23565,20841 23566,20842 23566,20844 23567,20845 23568,20847 23569,20849 23569,20850 23570,20852 23571,20853 23572,20855 23573,20856 23574,20858 23575,20859 23576,20861 23577,20862 23579,20863 23580,20865 23581,20866 23582,20867 23583,20868 23585,20870 23586,20871 23587,20872 23589,20873 23590,20874 23592,20875 23593,20876 23595,20877 23596,20878 23598,20879 23599,20880 23601,20881 23602,20882 23604,20882 23606,20883 23607,20884 23609,20884 23611,20885 23612,20885 23614,20886 23616,20886 23617,20887 23619,20887 23621,20887 23623,20888 23625,20888 23626,20888 23628,20888 23630,20888 23632,20888 23633,20888 23635,20888 23637,20888 23639,20888 23640,20888 23642,20888 23644,20888 23646,20887 23647,20887 23649,20887 23651,20886 23653,20886 23654,20885 23656,20885 23658,20884 23659,20884 23661,20883 23663,20882 23664,20882 23666,20881 23667,20880 23669,20879 23671,20878 23672,20877 23673,20876 23675,20875 23677,20874 23678,20873 23679,20872 23681,20871 23682,20870 23683,20868 23684,20867 23686,20866 23687,20865 23688,20863 23689,20862 23690,20861 23691,20859 23693,20858 23693,20856 23695,20855 23695,20853 23696,20852 23697,20850 23698,20849 23699,20847 23700,20845 23700,20844 23701,20842 23702,20841 23702,20839 23703,20837 23703,20835 23704,20834 23704,20832 23704,20830 23705,20828 23705,20827 23705,20825 23705,20823 23706,20821 23706,20820 23706,20818 23706,20816 23706,20640 23706,20638 23706,20636 23706,20635 23705,20633 23705,20631 23705,20629 23705,20628 23704,20626 23704,20624 23704,20622 23703,20621 23703,20619 23702,20617 23702,20616 23701,20614 23700,20612 23700,20611 23699,20609 23698,20607 23697,20606 23696,20604 23695,20603 23695,20601 23693,20600 23693,20598 23691,20597 23690,20595 23689,20594 23688,20593 23687,20591 23686,20590 23684,20589 23683,20588 23682,20586 23681,20585 23679,20584 23678,20583 23677,20582 23675,20581 23673,20580 23672,20579 23671,20578 23669,20577 23667,20576 23666,20575 23664,20575 23663,20574 23661,20573 23659,20572 23658,20572 23656,20571 23654,20571 23653,20570 23651,20570 23649,20569 23647,20569 23646,20569 23644,20568 23642,20568 23640,20568 23639,20568 23637,20568 23635,20568 23633,20568 23632,20568 23630,20568 23628,20568 23626,20568 23625,20568 23623,20568 23621,20569 23619,20569 23617,20569 23616,20570 23614,20570 23612,20571 23611,20571 23609,20572 23607,20572 23606,20573 23604,20574 23602,20575 23601,20575 23599,20576 23598,20577 23596,20578 23595,20579 23593,20580 23592,20581 23590,20582 23589,20583 23587,20584 23586,20585 23585,20586 23583,20588 23582,20589 23581,20590 23580,20591 23579,20593 23577,20594 23576,20595 23575,20597 23574,20598 23573,20600 23572,20601 23571,20603 23570,20604 23569,20606 23569,20607 23568,20609 23567,20611 23566,20612 23566,20614 23565,20616 23565,20617 23564,20619 23563,20621 23563,20622 23563,20624 23562,20626 23562,20628 23562,20629 23561,20631 23561,20633 23561,20635 23561,20636 23561,20638 23561,20640 Z"/>
    <path fill="none" stroke="rgb(255,255,255)" stroke-width="3" stroke-linejoin="miter" stroke-linecap="square" d="M 23477,20648 L 23477,20808 23477,20812 23477,20816 23477,20820 23477,20824 23478,20828 23478,20831 23479,20835 23480,20839 23482,20843 23482,20846 23483,20850 23484,20854 23485,20857 23487,20861 23488,20864 23490,20868 23491,20872 23493,20875 23494,20879 23496,20882 23498,20885 23500,20888 23502,20892 23504,20895 23506,20898 23508,20901 23511,20904 23513,20907 23516,20910 23518,20913 23521,20916 23523,20919 23526,20921 23529,20924 23532,20926 23535,20929 23537,20931 23541,20933 23544,20936 23547,20938 23550,20940 23553,20942 23557,20944 23560,20946 23563,20948 23567,20949 23570,20951 23574,20952 23577,20954 23581,20955 23585,20956 23588,20957 23592,20959 23595,20959 23599,20960 23603,20961 23607,20962 23610,20962 23614,20963 23618,20963 23622,20964 23626,20964 23630,20964 23633,20964 23637,20964 23641,20964 23645,20964 23649,20963 23652,20963 23656,20962 23660,20962 23664,20961 23667,20960 23671,20959 23675,20959 23679,20957 23682,20956 23686,20955 23689,20954 23693,20952 23696,20951 23700,20949 23703,20948 23707,20946 23710,20944 23713,20942 23716,20940 23720,20938 23723,20936 23726,20933 23729,20931 23732,20929 23735,20926 23738,20924 23741,20921 23743,20919 23746,20916 23749,20913 23751,20910 23754,20907 23756,20904 23758,20901 23761,20898 23763,20895 23765,20892 23767,20888 23769,20885 23771,20882 23772,20879 23774,20875 23776,20872 23777,20868 23778,20864 23780,20861 23781,20857 23782,20854 23783,20850 23784,20846 23785,20843 23786,20839 23787,20835 23787,20831 23788,20828 23788,20824 23789,20820 23789,20816 23789,20812 23789,20808 23789,20648 23789,20644 23789,20640 23789,20636 23788,20632 23788,20628 23787,20625 23787,20621 23786,20617 23785,20613 23784,20610 23783,20606 23782,20602 23781,20599 23780,20595 23778,20592 23777,20588 23776,20584 23774,20581 23772,20578 23771,20574 23769,20571 23767,20568 23765,20564 23763,20561 23761,20558 23758,20555 23756,20552 23754,20549 23751,20546 23749,20543 23746,20540 23743,20537 23741,20535 23738,20531 23735,20529 23732,20526 23729,20524 23726,20522 23723,20519 23720,20517 23716,20515 23713,20513 23710,20511 23707,20509 23703,20507 23700,20506 23696,20504 23693,20503 23689,20501 23686,20500 23682,20499 23679,20498 23675,20496 23671,20496 23667,20495 23664,20494 23660,20493 23656,20493 23652,20492 23649,20492 23645,20491 23641,20491 23637,20491 23633,20491 23630,20491 23626,20491 23622,20491 23618,20492 23614,20492 23610,20493 23607,20493 23603,20494 23599,20495 23595,20496 23592,20496 23588,20498 23585,20499 23581,20500 23577,20501 23574,20503 23570,20504 23567,20506 23563,20507 23560,20509 23557,20511 23553,20513 23550,20515 23547,20517 23544,20519 23541,20522 23537,20524 23535,20526 23532,20529 23529,20531 23526,20535 23523,20537 23521,20540 23518,20543 23516,20546 23513,20549 23511,20552 23508,20555 23506,20558 23504,20561 23502,20564 23500,20568 23498,20571 23496,20574 23494,20578 23493,20581 23491,20584 23490,20588 23488,20592 23487,20595 23485,20599 23484,20602 23483,20606 23482,20610 23482,20613 23480,20617 23479,20621 23478,20625 23478,20628 23477,20632 23477,20636 23477,20640 23477,20644 23477,20648 Z"/>
   </g>
  </g>
  <g class="com.sun.star.drawing.PolyPolygonShape">
   <g id="id11">
    <rect class="BoundingBox" stroke="none" fill="none" x="23901" y="20619" width="449" height="339"/>
    <path fill="rgb(255,255,255)" stroke="none" d="M 23903,20955 L 23979,20955 23979,20740 23979,20738 23979,20737 23979,20736 23979,20734 23979,20733 23979,20732 23979,20730 23980,20729 23980,20728 23980,20726 23981,20725 23981,20724 23981,20723 23982,20721 23982,20720 23983,20719 23983,20718 23984,20716 23984,20715 23985,20714 23986,20713 23986,20712 23987,20711 23988,20709 23988,20708 23989,20707 23990,20706 23991,20705 23992,20704 23993,20703 23994,20702 23994,20701 23995,20700 23996,20700 23997,20699 23998,20698 23999,20697 24000,20696 24001,20695 24003,20695 24004,20694 24005,20693 24006,20692 24007,20692 24008,20691 24010,20691 24011,20690 24012,20690 24013,20689 24014,20689 24016,20688 24017,20688 24018,20687 24020,20687 24021,20687 24022,20687 24023,20686 24025,20686 24026,20686 24027,20686 24029,20686 24030,20686 24031,20685 24033,20685 24034,20685 24035,20686 24037,20686 24038,20686 24039,20686 24041,20686 24042,20686 24043,20687 24045,20687 24046,20687 24047,20687 24048,20688 24050,20688 24051,20689 24052,20689 24053,20690 24055,20690 24056,20691 24057,20691 24058,20692 24059,20692 24060,20693 24062,20694 24063,20695 24064,20695 24065,20696 24066,20697 24067,20698 24068,20699 24069,20700 24070,20700 24071,20701 24072,20702 24073,20703 24074,20704 24074,20705 24075,20706 24076,20707 24077,20708 24078,20709 24078,20711 24079,20712 24080,20713 24080,20714 24081,20715 24081,20716 24082,20718 24083,20719 24083,20720 24084,20721 24084,20723 24084,20724 24085,20725 24085,20726 24085,20728 24086,20729 24086,20730 24086,20732 24086,20733 24086,20734 24086,20736 24087,20737 24087,20738 24087,20740 24087,20955 24163,20955 24163,20740 24163,20738 24163,20737 24163,20736 24164,20734 24164,20733 24164,20732 24164,20730 24164,20729 24165,20728 24165,20726 24165,20725 24166,20724 24166,20723 24166,20721 24167,20720 24167,20719 24168,20718 24168,20716 24169,20715 24170,20714 24170,20713 24171,20712 24172,20711 24172,20709 24173,20708 24174,20707 24175,20706 24176,20705 24176,20704 24177,20703 24178,20702 24179,20701 24180,20700 24181,20700 24182,20699 24183,20698 24184,20697 24185,20696 24186,20695 24187,20695 24188,20694 24190,20693 24191,20692 24192,20692 24193,20691 24194,20691 24196,20690 24197,20690 24198,20689 24199,20689 24200,20688 24202,20688 24203,20687 24204,20687 24206,20687 24207,20687 24208,20686 24209,20686 24211,20686 24212,20686 24213,20686 24215,20686 24216,20685 24217,20685 24219,20685 24220,20686 24221,20686 24223,20686 24224,20686 24225,20686 24227,20686 24228,20687 24229,20687 24230,20687 24232,20687 24233,20688 24234,20688 24236,20689 24237,20689 24238,20690 24239,20690 24241,20691 24242,20691 24243,20692 24244,20692 24245,20693 24246,20694 24247,20695 24248,20695 24250,20696 24251,20697 24252,20698 24253,20699 24254,20700 24255,20700 24256,20701 24257,20702 24257,20703 24258,20704 24259,20705 24260,20706 24261,20707 24262,20708 24262,20709 24263,20711 24264,20712 24264,20713 24265,20714 24266,20715 24266,20716 24267,20718 24267,20719 24268,20720 24268,20721 24269,20723 24269,20724 24269,20725 24270,20726 24270,20728 24270,20729 24271,20730 24271,20732 24271,20733 24271,20734 24271,20736 24271,20737 24271,20738 24271,20740 24271,20955 24347,20955 24347,20727 24347,20725 24347,20723 24347,20721 24347,20719 24347,20717 24346,20714 24346,20712 24346,20710 24345,20708 24345,20706 24344,20704 24344,20702 24343,20700 24343,20697 24342,20695 24341,20693 24341,20691 24340,20689 24339,20687 24338,20685 24337,20683 24337,20681 24336,20679 24335,20677 24334,20675 24332,20673 24331,20672 24330,20670 24329,20668 24328,20666 24326,20664 24325,20663 24324,20661 24322,20659 24321,20658 24320,20656 24318,20654 24317,20653 24315,20651 24314,20650 24312,20648 24310,20647 24309,20645 24307,20644 24305,20643 24304,20641 24302,20640 24300,20639 24298,20638 24296,20636 24295,20635 24293,20634 24291,20633 24289,20632 24287,20631 24285,20630 24283,20629 24281,20629 24279,20628 24277,20627 24275,20626 24273,20626 24271,20625 24268,20624 24266,20624 24264,20623 24262,20623 24260,20622 24258,20622 24256,20622 24254,20621 24251,20621 24249,20621 24247,20621 24245,20621 24243,20621 24241,20621 24238,20621 24236,20621 24234,20621 24232,20621 24230,20621 24228,20621 24225,20622 24223,20622 24221,20622 24219,20623 24217,20623 24215,20624 24213,20624 24210,20625 24208,20625 24206,20626 24204,20627 24202,20628 24200,20628 24198,20629 24196,20630 24194,20631 24192,20632 24190,20633 24188,20634 24187,20635 24185,20636 24183,20637 24181,20639 24179,20640 24178,20641 24176,20642 24174,20644 24172,20645 24171,20646 24169,20648 24167,20649 24166,20651 24164,20652 24163,20654 24161,20656 24160,20657 24158,20659 24157,20660 24156,20662 24154,20664 24153,20666 24152,20667 24151,20669 24150,20671 24149,20673 24147,20670 24145,20668 24142,20665 24141,20663 24139,20660 24137,20658 24135,20656 24133,20653 24130,20651 24128,20649 24126,20647 24124,20645 24121,20643 24119,20641 24116,20639 24114,20638 24111,20636 24108,20635 24106,20633 24103,20632 24100,20630 24097,20629 24095,20628 24092,20627 24089,20626 24086,20625 24083,20624 24080,20623 24077,20623 24074,20622 24071,20622 24068,20621 24065,20621 24062,20621 24059,20621 24056,20621 24053,20621 24050,20621 24046,20621 24043,20621 24040,20622 24037,20622 24034,20623 24031,20623 24028,20624 24025,20625 24022,20626 24020,20627 24017,20628 24014,20629 24011,20630 24008,20632 24005,20633 24003,20635 24000,20636 23998,20638 23995,20639 23992,20641 23990,20643 23988,20645 23985,20647 23983,20649 23981,20651 23979,20653 23979,20630 23903,20630 23903,20955 Z"/>
    <path fill="none" stroke="rgb(255,255,255)" stroke-width="3" stroke-linejoin="miter" stroke-linecap="square" d="M 23903,20955 L 23979,20955 23979,20740 23979,20738 23979,20737 23979,20736 23979,20734 23979,20733 23979,20732 23979,20730 23980,20729 23980,20728 23980,20726 23981,20725 23981,20724 23981,20723 23982,20721 23982,20720 23983,20719 23983,20718 23984,20716 23984,20715 23985,20714 23986,20713 23986,20712 23987,20711 23988,20709 23988,20708 23989,20707 23990,20706 23991,20705 23992,20704 23993,20703 23994,20702 23994,20701 23995,20700 23996,20700 23997,20699 23998,20698 23999,20697 24000,20696 24001,20695 24003,20695 24004,20694 24005,20693 24006,20692 24007,20692 24008,20691 24010,20691 24011,20690 24012,20690 24013,20689 24014,20689 24016,20688 24017,20688 24018,20687 24020,20687 24021,20687 24022,20687 24023,20686 24025,20686 24026,20686 24027,20686 24029,20686 24030,20686 24031,20685 24033,20685 24034,20685 24035,20686 24037,20686 24038,20686 24039,20686 24041,20686 24042,20686 24043,20687 24045,20687 24046,20687 24047,20687 24048,20688 24050,20688 24051,20689 24052,20689 24053,20690 24055,20690 24056,20691 24057,20691 24058,20692 24059,20692 24060,20693 24062,20694 24063,20695 24064,20695 24065,20696 24066,20697 24067,20698 24068,20699 24069,20700 24070,20700 24071,20701 24072,20702 24073,20703 24074,20704 24074,20705 24075,20706 24076,20707 24077,20708 24078,20709 24078,20711 24079,20712 24080,20713 24080,20714 24081,20715 24081,20716 24082,20718 24083,20719 24083,20720 24084,20721 24084,20723 24084,20724 24085,20725 24085,20726 24085,20728 24086,20729 24086,20730 24086,20732 24086,20733 24086,20734 24086,20736 24087,20737 24087,20738 24087,20740 24087,20955 24163,20955 24163,20740 24163,20738 24163,20737 24163,20736 24164,20734 24164,20733 24164,20732 24164,20730 24164,20729 24165,20728 24165,20726 24165,20725 24166,20724 24166,20723 24166,20721 24167,20720 24167,20719 24168,20718 24168,20716 24169,20715 24170,20714 24170,20713 24171,20712 24172,20711 24172,20709 24173,20708 24174,20707 24175,20706 24176,20705 24176,20704 24177,20703 24178,20702 24179,20701 24180,20700 24181,20700 24182,20699 24183,20698 24184,20697 24185,20696 24186,20695 24187,20695 24188,20694 24190,20693 24191,20692 24192,20692 24193,20691 24194,20691 24196,20690 24197,20690 24198,20689 24199,20689 24200,20688 24202,20688 24203,20687 24204,20687 24206,20687 24207,20687 24208,20686 24209,20686 24211,20686 24212,20686 24213,20686 24215,20686 24216,20685 24217,20685 24219,20685 24220,20686 24221,20686 24223,20686 24224,20686 24225,20686 24227,20686 24228,20687 24229,20687 24230,20687 24232,20687 24233,20688 24234,20688 24236,20689 24237,20689 24238,20690 24239,20690 24241,20691 24242,20691 24243,20692 24244,20692 24245,20693 24246,20694 24247,20695 24248,20695 24250,20696 24251,20697 24252,20698 24253,20699 24254,20700 24255,20700 24256,20701 24257,20702 24257,20703 24258,20704 24259,20705 24260,20706 24261,20707 24262,20708 24262,20709 24263,20711 24264,20712 24264,20713 24265,20714 24266,20715 24266,20716 24267,20718 24267,20719 24268,20720 24268,20721 24269,20723 24269,20724 24269,20725 24270,20726 24270,20728 24270,20729 24271,20730 24271,20732 24271,20733 24271,20734 24271,20736 24271,20737 24271,20738 24271,20740 24271,20955 24347,20955 24347,20727 24347,20725 24347,20723 24347,20721 24347,20719 24347,20717 24346,20714 24346,20712 24346,20710 24345,20708 24345,20706 24344,20704 24344,20702 24343,20700 24343,20697 24342,20695 24341,20693 24341,20691 24340,20689 24339,20687 24338,20685 24337,20683 24337,20681 24336,20679 24335,20677 24334,20675 24332,20673 24331,20672 24330,20670 24329,20668 24328,20666 24326,20664 24325,20663 24324,20661 24322,20659 24321,20658 24320,20656 24318,20654 24317,20653 24315,20651 24314,20650 24312,20648 24310,20647 24309,20645 24307,20644 24305,20643 24304,20641 24302,20640 24300,20639 24298,20638 24296,20636 24295,20635 24293,20634 24291,20633 24289,20632 24287,20631 24285,20630 24283,20629 24281,20629 24279,20628 24277,20627 24275,20626 24273,20626 24271,20625 24268,20624 24266,20624 24264,20623 24262,20623 24260,20622 24258,20622 24256,20622 24254,20621 24251,20621 24249,20621 24247,20621 24245,20621 24243,20621 24241,20621 24238,20621 24236,20621 24234,20621 24232,20621 24230,20621 24228,20621 24225,20622 24223,20622 24221,20622 24219,20623 24217,20623 24215,20624 24213,20624 24210,20625 24208,20625 24206,20626 24204,20627 24202,20628 24200,20628 24198,20629 24196,20630 24194,20631 24192,20632 24190,20633 24188,20634 24187,20635 24185,20636 24183,20637 24181,20639 24179,20640 24178,20641 24176,20642 24174,20644 24172,20645 24171,20646 24169,20648 24167,20649 24166,20651 24164,20652 24163,20654 24161,20656 24160,20657 24158,20659 24157,20660 24156,20662 24154,20664 24153,20666 24152,20667 24151,20669 24150,20671 24149,20673 24147,20670 24145,20668 24142,20665 24141,20663 24139,20660 24137,20658 24135,20656 24133,20653 24130,20651 24128,20649 24126,20647 24124,20645 24121,20643 24119,20641 24116,20639 24114,20638 24111,20636 24108,20635 24106,20633 24103,20632 24100,20630 24097,20629 24095,20628 24092,20627 24089,20626 24086,20625 24083,20624 24080,20623 24077,20623 24074,20622 24071,20622 24068,20621 24065,20621 24062,20621 24059,20621 24056,20621 24053,20621 24050,20621 24046,20621 24043,20621 24040,20622 24037,20622 24034,20623 24031,20623 24028,20624 24025,20625 24022,20626 24020,20627 24017,20628 24014,20629 24011,20630 24008,20632 24005,20633 24003,20635 24000,20636 23998,20638 23995,20639 23992,20641 23990,20643 23988,20645 23985,20647 23983,20649 23981,20651 23979,20653 23979,20630 23903,20630 23903,20955 Z"/>
   </g>
  </g>
 </g>
</svg>