<?xml version="1.0" encoding="UTF-8"?>
<!DOCTYPE svg PUBLIC "-//W3C//DTD SVG 1.1//EN" "http://www.w3.org/Graphics/SVG/1.1/DTD/svg11.dtd">
<svg version="1.2" width="25.03mm" height="25.02mm" viewBox="52249 18500 2503 2502" preserveAspectRatio="xMidYMid" fill-rule="evenodd" stroke-width="28.222" stroke-linejoin="round" xmlns="http://www.w3.org/2000/svg" xmlns:ooo="http://xml.openoffice.org/svg/export" xmlns:xlink="http://www.w3.org/1999/xlink" xmlns:presentation="http://sun.com/xmlns/staroffice/presentation" xmlns:smil="http://www.w3.org/2001/SMIL20/" xmlns:anim="urn:oasis:names:tc:opendocument:xmlns:animation:1.0" xml:space="preserve">
 <defs class="EmbeddedBulletChars">
  <g id="bullet-char-template-57356" transform="scale(0.00048828125,-0.00048828125)">
   <path d="M 580,1141 L 1163,571 580,0 -4,571 580,1141 Z"/>
  </g>
  <g id="bullet-char-template-57354" transform="scale(0.00048828125,-0.00048828125)">
   <path d="M 8,1128 L 1137,1128 1137,0 8,0 8,1128 Z"/>
  </g>
  <g id="bullet-char-template-10146" transform="scale(0.00048828125,-0.00048828125)">
   <path d="M 174,0 L 602,739 174,1481 1456,739 174,0 Z M 1358,739 L 309,1346 659,739 1358,739 Z"/>
  </g>
  <g id="bullet-char-template-10132" transform="scale(0.00048828125,-0.00048828125)">
   <path d="M 2015,739 L 1276,0 717,0 1260,543 174,543 174,936 1260,936 717,1481 1274,1481 2015,739 Z"/>
  </g>
  <g id="bullet-char-template-10007" transform="scale(0.00048828125,-0.00048828125)">
   <path d="M 0,-2 C -7,14 -16,27 -25,37 L 356,567 C 262,823 215,952 215,954 215,979 228,992 255,992 264,992 276,990 289,987 310,991 331,999 354,1012 L 381,999 492,748 772,1049 836,1024 860,1049 C 881,1039 901,1025 922,1006 886,937 835,863 770,784 769,783 710,716 594,584 L 774,223 C 774,196 753,168 711,139 L 727,119 C 717,90 699,76 672,76 641,76 570,178 457,381 L 164,-76 C 142,-110 111,-127 72,-127 30,-127 9,-110 8,-76 1,-67 -2,-52 -2,-32 -2,-23 -1,-13 0,-2 Z"/>
  </g>
  <g id="bullet-char-template-10004" transform="scale(0.00048828125,-0.00048828125)">
   <path d="M 285,-33 C 182,-33 111,30 74,156 52,228 41,333 41,471 41,549 55,616 82,672 116,743 169,778 240,778 293,778 328,747 346,684 L 369,508 C 377,444 397,411 428,410 L 1163,1116 C 1174,1127 1196,1133 1229,1133 1271,1133 1292,1118 1292,1087 L 1292,965 C 1292,929 1282,901 1262,881 L 442,47 C 390,-6 338,-33 285,-33 Z"/>
  </g>
  <g id="bullet-char-template-9679" transform="scale(0.00048828125,-0.00048828125)">
   <path d="M 813,0 C 632,0 489,54 383,161 276,268 223,411 223,592 223,773 276,916 383,1023 489,1130 632,1184 813,1184 992,1184 1136,1130 1245,1023 1353,916 1407,772 1407,592 1407,412 1353,268 1245,161 1136,54 992,0 813,0 Z"/>
  </g>
  <g id="bullet-char-template-8226" transform="scale(0.00048828125,-0.00048828125)">
   <path d="M 346,457 C 273,457 209,483 155,535 101,586 74,649 74,723 74,796 101,859 155,911 209,963 273,989 346,989 419,989 480,963 531,910 582,859 608,796 608,723 608,648 583,586 532,535 482,483 420,457 346,457 Z"/>
  </g>
  <g id="bullet-char-template-8211" transform="scale(0.00048828125,-0.00048828125)">
   <path d="M -4,459 L 1135,459 1135,606 -4,606 -4,459 Z"/>
  </g>
  <g id="bullet-char-template-61548" transform="scale(0.00048828125,-0.00048828125)">
   <path d="M 173,740 C 173,903 231,1043 346,1159 462,1274 601,1332 765,1332 928,1332 1067,1274 1183,1159 1299,1043 1357,903 1357,740 1357,577 1299,437 1183,322 1067,206 928,148 765,148 601,148 462,206 346,322 231,437 173,577 173,740 Z"/>
  </g>
 </defs>
 <g class="Page">
  <g class="com.sun.star.drawing.PolyPolygonShape">
   <g id="id3">
    <rect class="BoundingBox" stroke="none" fill="none" x="52249" y="18500" width="2503" height="2502"/>
    <path fill="rgb(255,0,0)" stroke="none" d="M 54751,19751 L 54751,19720 54749,19689 54748,19659 54745,19628 54741,19597 54737,19567 54732,19537 54727,19507 54721,19477 54713,19447 54706,19417 54697,19388 54688,19358 54678,19329 54667,19301 54656,19272 54644,19244 54631,19216 54617,19188 54603,19161 54588,19134 54573,19108 54557,19082 54540,19056 54523,19031 54505,19006 54486,18981 54467,18957 54447,18934 54427,18911 54406,18889 54385,18867 54363,18845 54340,18824 54317,18804 54294,18784 54270,18765 54245,18745 54220,18728 54195,18710 54170,18693 54143,18677 54117,18662 54090,18647 54063,18633 54035,18620 54007,18607 53979,18595 53951,18583 53922,18573 53893,18563 53863,18553 53834,18545 53804,18537 53774,18530 53743,18523 53713,18518 53683,18513 53653,18509 53622,18505 53592,18503 53561,18501 53530,18500 53500,18500 53469,18500 53438,18501 53407,18503 53377,18505 53346,18509 53316,18513 53286,18518 53256,18523 53226,18530 53196,18537 53166,18545 53137,18553 53107,18563 53078,18573 53050,18583 53021,18595 52993,18607 52965,18620 52937,18633 52910,18647 52883,18662 52857,18677 52831,18693 52805,18710 52780,18728 52755,18745 52730,18765 52706,18784 52683,18804 52660,18824 52637,18845 52615,18867 52594,18889 52573,18911 52553,18934 52533,18957 52514,18981 52495,19006 52477,19031 52460,19056 52443,19082 52427,19108 52412,19134 52397,19161 52383,19188 52369,19216 52356,19244 52344,19272 52333,19301 52322,19329 52312,19358 52303,19388 52294,19417 52287,19447 52279,19477 52273,19507 52268,19537 52263,19567 52259,19597 52255,19628 52252,19659 52251,19689 52249,19720 52249,19750 52249,19781 52251,19812 52252,19842 52255,19873 52259,19904 52263,19934 52268,19964 52273,19994 52279,20024 52287,20054 52294,20084 52303,20113 52312,20143 52322,20172 52333,20200 52344,20229 52356,20257 52369,20285 52383,20313 52397,20340 52412,20367 52427,20393 52443,20419 52460,20445 52477,20470 52495,20495 52514,20520 52533,20544 52553,20567 52573,20590 52594,20612 52615,20634 52637,20656 52660,20677 52683,20697 52706,20717 52730,20736 52755,20755 52780,20772 52805,20790 52831,20807 52857,20823 52883,20838 52910,20853 52937,20867 52965,20881 52993,20893 53021,20905 53050,20917 53078,20927 53107,20938 53137,20947 53166,20955 53196,20963 53226,20970 53256,20977 53286,20982 53316,20987 53346,20991 53377,20995 53407,20997 53438,20999 53469,21000 53499,21001 53530,21000 53561,20999 53592,20997 53622,20995 53653,20991 53683,20987 53713,20982 53743,20977 53774,20970 53804,20963 53834,20955 53863,20947 53893,20938 53922,20927 53951,20917 53979,20905 54007,20893 54035,20881 54063,20867 54090,20853 54117,20838 54143,20823 54170,20807 54195,20790 54220,20772 54245,20755 54270,20736 54294,20717 54317,20697 54340,20677 54363,20656 54385,20634 54406,20612 54427,20590 54447,20567 54467,20544 54486,20520 54505,20495 54523,20470 54540,20445 54557,20419 54573,20393 54588,20367 54603,20340 54617,20313 54631,20285 54644,20257 54656,20229 54667,20200 54678,20172 54688,20143 54697,20113 54706,20084 54713,20054 54721,20024 54727,19994 54732,19964 54737,19934 54741,19904 54745,19873 54748,19842 54749,19812 54751,19781 54751,19751 Z"/>
   </g>
  </g>
  <g class="com.sun.star.drawing.PolyPolygonShape">
   <g id="id4">
    <rect class="BoundingBox" stroke="none" fill="none" x="52606" y="18857" width="1789" height="1787"/>
    <path fill="rgb(255,255,255)" stroke="none" d="M 54394,19750 L 54393,19728 54393,19706 54391,19684 54389,19662 54387,19640 54384,19618 54381,19597 54376,19575 54372,19554 54367,19533 54361,19511 54355,19490 54349,19469 54341,19449 54334,19428 54326,19408 54317,19388 54308,19368 54298,19348 54288,19329 54278,19309 54267,19291 54255,19272 54243,19253 54231,19235 54218,19218 54205,19200 54191,19183 54177,19166 54162,19150 54147,19134 54132,19118 54116,19103 54100,19088 54084,19073 54067,19059 54050,19046 54032,19032 54015,19020 53997,19007 53978,18995 53960,18984 53941,18973 53921,18962 53902,18952 53882,18942 53862,18933 53842,18925 53822,18916 53801,18909 53781,18902 53760,18895 53739,18889 53718,18883 53696,18878 53675,18874 53653,18870 53632,18866 53610,18863 53588,18861 53566,18859 53544,18858 53522,18857 53501,18857 53479,18857 53457,18858 53435,18859 53413,18861 53391,18863 53369,18866 53348,18870 53326,18874 53305,18878 53283,18883 53262,18889 53241,18895 53220,18902 53200,18909 53179,18916 53159,18925 53139,18933 53119,18942 53099,18952 53080,18962 53060,18973 53041,18984 53023,18995 53004,19007 52986,19020 52969,19032 52951,19046 52934,19059 52917,19073 52901,19088 52885,19103 52869,19118 52854,19134 52839,19150 52824,19166 52810,19183 52796,19200 52783,19218 52770,19235 52758,19253 52746,19272 52734,19291 52723,19309 52713,19329 52703,19348 52693,19368 52683,19388 52674,19408 52666,19428 52659,19449 52651,19469 52645,19490 52639,19511 52633,19533 52628,19554 52624,19575 52619,19597 52616,19618 52613,19640 52611,19662 52609,19684 52607,19706 52607,19728 52606,19749 52607,19771 52607,19793 52609,19815 52611,19837 52613,19859 52616,19881 52619,19902 52624,19924 52628,19945 52633,19967 52639,19988 52645,20009 52651,20030 52659,20050 52666,20071 52674,20091 52683,20111 52693,20131 52703,20151 52713,20170 52723,20190 52734,20209 52746,20227 52758,20246 52770,20264 52783,20281 52796,20299 52810,20316 52824,20333 52839,20349 52854,20365 52869,20381 52885,20396 52901,20411 52917,20426 52934,20440 52951,20453 52969,20467 52986,20480 53004,20492 53023,20504 53041,20515 53060,20526 53080,20538 53099,20548 53119,20558 53139,20567 53159,20576 53179,20584 53200,20591 53220,20598 53241,20605 53262,20611 53283,20617 53305,20622 53326,20626 53348,20630 53369,20634 53391,20637 53413,20639 53435,20641 53457,20642 53479,20643 53500,20643 53522,20643 53544,20642 53566,20641 53588,20639 53610,20637 53632,20634 53653,20630 53675,20626 53696,20622 53718,20617 53739,20611 53760,20605 53781,20598 53801,20591 53822,20584 53842,20576 53862,20567 53882,20558 53902,20548 53921,20538 53941,20526 53960,20515 53978,20504 53997,20492 54015,20480 54032,20467 54050,20453 54067,20440 54084,20426 54100,20411 54116,20396 54132,20381 54147,20365 54162,20349 54177,20333 54191,20316 54205,20299 54218,20281 54231,20264 54243,20246 54255,20227 54267,20209 54278,20190 54288,20170 54298,20151 54308,20131 54317,20111 54326,20091 54334,20071 54341,20050 54349,20030 54355,20009 54361,19988 54367,19967 54372,19945 54376,19924 54381,19902 54384,19881 54387,19859 54389,19837 54391,19815 54393,19793 54393,19771 54394,19750 Z"/>
   </g>
  </g>
  <g class="com.sun.star.drawing.PolyPolygonShape">
   <g id="id5">
    <rect class="BoundingBox" stroke="none" fill="none" x="52928" y="19125" width="431" height="1252"/>
    <path fill="rgb(0,0,0)" stroke="none" d="M 53214,20018 L 53358,20018 53142,20376 52928,20018 53071,20018 53071,19125 53214,19125 53214,20018 Z"/>
   </g>
  </g>
  <g class="com.sun.star.drawing.PolyPolygonShape">
   <g id="id6">
    <rect class="BoundingBox" stroke="none" fill="none" x="53642" y="19125" width="431" height="1252"/>
    <path fill="rgb(255,0,0)" stroke="none" d="M 53929,19483 L 54072,19483 53858,19125 53642,19483 53786,19483 53786,20376 53929,20376 53929,19483 Z"/>
   </g>
  </g>
 </g>
</svg>