<?xml version="1.0" encoding="UTF-8"?>
<!DOCTYPE svg PUBLIC "-//W3C//DTD SVG 1.1//EN" "http://www.w3.org/Graphics/SVG/1.1/DTD/svg11.dtd">
<svg version="1.2" width="16.7mm" height="25.02mm" viewBox="55265 18500 1670 2502" preserveAspectRatio="xMidYMid" fill-rule="evenodd" stroke-width="28.222" stroke-linejoin="round" xmlns="http://www.w3.org/2000/svg" xmlns:ooo="http://xml.openoffice.org/svg/export" xmlns:xlink="http://www.w3.org/1999/xlink" xmlns:presentation="http://sun.com/xmlns/staroffice/presentation" xmlns:smil="http://www.w3.org/2001/SMIL20/" xmlns:anim="urn:oasis:names:tc:opendocument:xmlns:animation:1.0" xml:space="preserve">
 <defs class="EmbeddedBulletChars">
  <g id="bullet-char-template-57356" transform="scale(0.00048828125,-0.00048828125)">
   <path d="M 580,1141 L 1163,571 580,0 -4,571 580,1141 Z"/>
  </g>
  <g id="bullet-char-template-57354" transform="scale(0.00048828125,-0.00048828125)">
   <path d="M 8,1128 L 1137,1128 1137,0 8,0 8,1128 Z"/>
  </g>
  <g id="bullet-char-template-10146" transform="scale(0.00048828125,-0.00048828125)">
   <path d="M 174,0 L 602,739 174,1481 1456,739 174,0 Z M 1358,739 L 309,1346 659,739 1358,739 Z"/>
  </g>
  <g id="bullet-char-template-10132" transform="scale(0.00048828125,-0.00048828125)">
   <path d="M 2015,739 L 1276,0 717,0 1260,543 174,543 174,936 1260,936 717,1481 1274,1481 2015,739 Z"/>
  </g>
  <g id="bullet-char-template-10007" transform="scale(0.00048828125,-0.00048828125)">
   <path d="M 0,-2 C -7,14 -16,27 -25,37 L 356,567 C 262,823 215,952 215,954 215,979 228,992 255,992 264,992 276,990 289,987 310,991 331,999 354,1012 L 381,999 492,748 772,1049 836,1024 860,1049 C 881,1039 901,1025 922,1006 886,937 835,863 770,784 769,783 710,716 594,584 L 774,223 C 774,196 753,168 711,139 L 727,119 C 717,90 699,76 672,76 641,76 570,178 457,381 L 164,-76 C 142,-110 111,-127 72,-127 30,-127 9,-110 8,-76 1,-67 -2,-52 -2,-32 -2,-23 -1,-13 0,-2 Z"/>
  </g>
  <g id="bullet-char-template-10004" transform="scale(0.00048828125,-0.00048828125)">
   <path d="M 285,-33 C 182,-33 111,30 74,156 52,228 41,333 41,471 41,549 55,616 82,672 116,743 169,778 240,778 293,778 328,747 346,684 L 369,508 C 377,444 397,411 428,410 L 1163,1116 C 1174,1127 1196,1133 1229,1133 1271,1133 1292,1118 1292,1087 L 1292,965 C 1292,929 1282,901 1262,881 L 442,47 C 390,-6 338,-33 285,-33 Z"/>
  </g>
  <g id="bullet-char-template-9679" transform="scale(0.00048828125,-0.00048828125)">
   <path d="M 813,0 C 632,0 489,54 383,161 276,268 223,411 223,592 223,773 276,916 383,1023 489,1130 632,1184 813,1184 992,1184 1136,1130 1245,1023 1353,916 1407,772 1407,592 1407,412 1353,268 1245,161 1136,54 992,0 813,0 Z"/>
  </g>
  <g id="bullet-char-template-8226" transform="scale(0.00048828125,-0.00048828125)">
   <path d="M 346,457 C 273,457 209,483 155,535 101,586 74,649 74,723 74,796 101,859 155,911 209,963 273,989 346,989 419,989 480,963 531,910 582,859 608,796 608,723 608,648 583,586 532,535 482,483 420,457 346,457 Z"/>
  </g>
  <g id="bullet-char-template-8211" transform="scale(0.00048828125,-0.00048828125)">
   <path d="M -4,459 L 1135,459 1135,606 -4,606 -4,459 Z"/>
  </g>
  <g id="bullet-char-template-61548" transform="scale(0.00048828125,-0.00048828125)">
   <path d="M 173,740 C 173,903 231,1043 346,1159 462,1274 601,1332 765,1332 928,1332 1067,1274 1183,1159 1299,1043 1357,903 1357,740 1357,577 1299,437 1183,322 1067,206 928,148 765,148 601,148 462,206 346,322 231,437 173,577 173,740 Z"/>
  </g>
 </defs>
 <g class="Page">
  <g class="com.sun.star.drawing.PolyPolygonShape">
   <g id="id3">
    <rect class="BoundingBox" stroke="none" fill="none" x="55265" y="18500" width="1670" height="2502"/>
    <path fill="rgb(0,0,255)" stroke="none" d="M 56747,18500 L 55453,18500 55444,18500 55435,18500 55426,18502 55417,18503 55408,18505 55399,18508 55390,18511 55382,18514 55373,18518 55365,18522 55357,18526 55349,18531 55342,18537 55334,18542 55327,18548 55321,18555 55314,18561 55309,18568 55303,18575 55297,18583 55293,18591 55288,18599 55284,18607 55280,18615 55277,18624 55274,18633 55272,18642 55270,18651 55268,18660 55267,18669 55266,18678 55266,18687 55266,20813 55266,20822 55267,20831 55268,20841 55270,20850 55272,20859 55274,20867 55277,20876 55280,20885 55284,20893 55288,20901 55293,20909 55297,20917 55303,20925 55309,20932 55314,20939 55321,20946 55327,20952 55334,20958 55342,20964 55349,20969 55357,20974 55365,20978 55373,20983 55382,20986 55390,20990 55399,20992 55408,20995 55417,20997 55426,20999 55435,21000 55444,21000 55453,21001 56747,21001 56756,21000 56765,21000 56774,20999 56783,20997 56792,20995 56801,20992 56810,20990 56818,20986 56827,20983 56835,20978 56843,20974 56851,20969 56858,20964 56866,20958 56872,20952 56879,20946 56886,20939 56892,20932 56897,20925 56903,20917 56907,20909 56912,20901 56916,20893 56920,20885 56923,20876 56926,20867 56928,20859 56930,20850 56932,20841 56933,20831 56934,20822 56934,20813 56934,18687 56934,18678 56933,18669 56932,18660 56930,18651 56928,18642 56926,18633 56923,18624 56920,18615 56916,18607 56912,18599 56907,18591 56903,18583 56897,18575 56892,18568 56886,18561 56879,18555 56872,18548 56866,18542 56858,18537 56851,18531 56843,18526 56835,18522 56827,18518 56818,18514 56810,18511 56801,18508 56792,18505 56783,18503 56774,18502 56765,18500 56756,18500 56747,18500 Z"/>
   </g>
  </g>
  <g class="com.sun.star.drawing.PolyPolygonShape">
   <g id="id4">
    <rect class="BoundingBox" stroke="none" fill="none" x="55328" y="18562" width="1544" height="2377"/>
    <path fill="rgb(255,255,255)" stroke="none" d="M 56747,18562 L 55453,18562 55441,18563 55429,18564 55417,18568 55406,18572 55394,18577 55384,18583 55374,18590 55365,18599 55357,18608 55349,18618 55343,18628 55338,18639 55334,18651 55331,18663 55329,18675 55328,18687 55328,20813 55329,20825 55331,20838 55334,20849 55338,20861 55343,20872 55349,20883 55357,20892 55365,20901 55374,20910 55384,20917 55394,20923 55406,20929 55417,20933 55429,20936 55441,20938 55453,20938 56747,20938 56759,20938 56771,20936 56783,20933 56794,20929 56805,20923 56816,20917 56826,20910 56835,20901 56843,20892 56850,20883 56857,20872 56862,20861 56866,20849 56869,20838 56871,20825 56871,20813 56871,18687 56871,18675 56869,18663 56866,18651 56862,18639 56857,18628 56850,18618 56843,18608 56835,18599 56826,18590 56816,18583 56805,18577 56794,18572 56783,18568 56771,18564 56759,18563 56747,18562 Z"/>
   </g>
  </g>
  <g class="com.sun.star.drawing.PolyPolygonShape">
   <g id="id5">
    <rect class="BoundingBox" stroke="none" fill="none" x="55391" y="18625" width="1419" height="2252"/>
    <path fill="rgb(0,0,255)" stroke="none" d="M 56747,18625 L 55453,18625 55447,18625 55441,18626 55435,18627 55429,18629 55424,18632 55419,18635 55414,18639 55409,18643 55405,18647 55401,18652 55398,18658 55396,18663 55394,18669 55392,18675 55391,18681 55391,18687 55391,20813 55391,20819 55392,20825 55394,20831 55396,20837 55398,20843 55401,20848 55405,20853 55409,20857 55414,20861 55419,20865 55424,20868 55429,20871 55435,20873 55441,20874 55447,20875 55453,20876 56747,20876 56753,20875 56759,20874 56765,20873 56770,20871 56776,20868 56781,20865 56786,20861 56791,20857 56795,20853 56799,20848 56802,20843 56804,20837 56806,20831 56808,20825 56809,20819 56809,20813 56809,18687 56809,18681 56808,18675 56806,18669 56804,18663 56802,18658 56799,18652 56795,18647 56791,18643 56786,18639 56781,18635 56776,18632 56770,18629 56765,18627 56759,18626 56753,18625 56747,18625 Z"/>
   </g>
  </g>
  <g class="com.sun.star.drawing.PolyPolygonShape">
   <g id="id6">
    <rect class="BoundingBox" stroke="none" fill="none" x="56161" y="19020" width="503" height="1461"/>
    <path fill="rgb(255,255,255)" stroke="none" d="M 56496,19437 L 56663,19437 56413,19020 56162,19437 56330,19437 56330,20480 56496,20480 56496,19437 Z"/>
   </g>
  </g>
  <g class="com.sun.star.drawing.PolyPolygonShape">
   <g id="id7">
    <rect class="BoundingBox" stroke="none" fill="none" x="55536" y="19020" width="503" height="1461"/>
    <path fill="rgb(255,0,0)" stroke="none" d="M 55871,20063 L 56038,20063 55788,20480 55537,20063 55704,20063 55704,19020 55871,19020 55871,20063 Z"/>
   </g>
  </g>
 </g>
</svg>