<?xml version="1.0" encoding="UTF-8"?>
<!DOCTYPE svg PUBLIC "-//W3C//DTD SVG 1.1//EN" "http://www.w3.org/Graphics/SVG/1.1/DTD/svg11.dtd">
<svg version="1.2" width="28.43mm" height="25.02mm" viewBox="57479 18500 2843 2502" preserveAspectRatio="xMidYMid" fill-rule="evenodd" stroke-width="28.222" stroke-linejoin="round" xmlns="http://www.w3.org/2000/svg" xmlns:ooo="http://xml.openoffice.org/svg/export" xmlns:xlink="http://www.w3.org/1999/xlink" xmlns:presentation="http://sun.com/xmlns/staroffice/presentation" xmlns:smil="http://www.w3.org/2001/SMIL20/" xmlns:anim="urn:oasis:names:tc:opendocument:xmlns:animation:1.0" xml:space="preserve">
 <defs class="EmbeddedBulletChars">
  <g id="bullet-char-template-57356" transform="scale(0.00048828125,-0.00048828125)">
   <path d="M 580,1141 L 1163,571 580,0 -4,571 580,1141 Z"/>
  </g>
  <g id="bullet-char-template-57354" transform="scale(0.00048828125,-0.00048828125)">
   <path d="M 8,1128 L 1137,1128 1137,0 8,0 8,1128 Z"/>
  </g>
  <g id="bullet-char-template-10146" transform="scale(0.00048828125,-0.00048828125)">
   <path d="M 174,0 L 602,739 174,1481 1456,739 174,0 Z M 1358,739 L 309,1346 659,739 1358,739 Z"/>
  </g>
  <g id="bullet-char-template-10132" transform="scale(0.00048828125,-0.00048828125)">
   <path d="M 2015,739 L 1276,0 717,0 1260,543 174,543 174,936 1260,936 717,1481 1274,1481 2015,739 Z"/>
  </g>
  <g id="bullet-char-template-10007" transform="scale(0.00048828125,-0.00048828125)">
   <path d="M 0,-2 C -7,14 -16,27 -25,37 L 356,567 C 262,823 215,952 215,954 215,979 228,992 255,992 264,992 276,990 289,987 310,991 331,999 354,1012 L 381,999 492,748 772,1049 836,1024 860,1049 C 881,1039 901,1025 922,1006 886,937 835,863 770,784 769,783 710,716 594,584 L 774,223 C 774,196 753,168 711,139 L 727,119 C 717,90 699,76 672,76 641,76 570,178 457,381 L 164,-76 C 142,-110 111,-127 72,-127 30,-127 9,-110 8,-76 1,-67 -2,-52 -2,-32 -2,-23 -1,-13 0,-2 Z"/>
  </g>
  <g id="bullet-char-template-10004" transform="scale(0.00048828125,-0.00048828125)">
   <path d="M 285,-33 C 182,-33 111,30 74,156 52,228 41,333 41,471 41,549 55,616 82,672 116,743 169,778 240,778 293,778 328,747 346,684 L 369,508 C 377,444 397,411 428,410 L 1163,1116 C 1174,1127 1196,1133 1229,1133 1271,1133 1292,1118 1292,1087 L 1292,965 C 1292,929 1282,901 1262,881 L 442,47 C 390,-6 338,-33 285,-33 Z"/>
  </g>
  <g id="bullet-char-template-9679" transform="scale(0.00048828125,-0.00048828125)">
   <path d="M 813,0 C 632,0 489,54 383,161 276,268 223,411 223,592 223,773 276,916 383,1023 489,1130 632,1184 813,1184 992,1184 1136,1130 1245,1023 1353,916 1407,772 1407,592 1407,412 1353,268 1245,161 1136,54 992,0 813,0 Z"/>
  </g>
  <g id="bullet-char-template-8226" transform="scale(0.00048828125,-0.00048828125)">
   <path d="M 346,457 C 273,457 209,483 155,535 101,586 74,649 74,723 74,796 101,859 155,911 209,963 273,989 346,989 419,989 480,963 531,910 582,859 608,796 608,723 608,648 583,586 532,535 482,483 420,457 346,457 Z"/>
  </g>
  <g id="bullet-char-template-8211" transform="scale(0.00048828125,-0.00048828125)">
   <path d="M -4,459 L 1135,459 1135,606 -4,606 -4,459 Z"/>
  </g>
  <g id="bullet-char-template-61548" transform="scale(0.00048828125,-0.00048828125)">
   <path d="M 173,740 C 173,903 231,1043 346,1159 462,1274 601,1332 765,1332 928,1332 1067,1274 1183,1159 1299,1043 1357,903 1357,740 1357,577 1299,437 1183,322 1067,206 928,148 765,148 601,148 462,206 346,322 231,437 173,577 173,740 Z"/>
  </g>
 </defs>
 <g class="Page">
  <g class="com.sun.star.drawing.PolyPolygonShape">
   <g id="id3">
    <rect class="BoundingBox" stroke="none" fill="none" x="57479" y="18500" width="2843" height="2502"/>
    <path fill="rgb(255,0,0)" stroke="none" d="M 59033,20924 L 60300,18729 60305,18720 60309,18711 60312,18702 60315,18692 60318,18683 60319,18673 60320,18663 60321,18653 60320,18643 60319,18633 60318,18623 60315,18613 60312,18603 60309,18594 60305,18585 60300,18576 60295,18568 60289,18560 60283,18552 60276,18544 60268,18538 60261,18531 60252,18525 60244,18520 60235,18515 60226,18511 60217,18508 60207,18505 60197,18503 60187,18501 60177,18500 60167,18500 57633,18500 57623,18500 57613,18501 57603,18503 57593,18505 57583,18508 57574,18511 57565,18515 57556,18520 57548,18525 57539,18531 57532,18538 57524,18544 57517,18552 57511,18560 57505,18568 57500,18576 57495,18585 57491,18594 57488,18603 57485,18613 57482,18623 57481,18633 57480,18643 57479,18653 57480,18663 57481,18673 57482,18683 57485,18692 57488,18702 57491,18711 57495,18720 57500,18729 58768,20924 58773,20932 58779,20941 58785,20948 58792,20956 58800,20963 58807,20969 58815,20975 58824,20980 58833,20985 58842,20989 58851,20992 58861,20995 58871,20998 58881,20999 58891,21000 58901,21001 58911,21000 58921,20999 58930,20998 58940,20995 58950,20992 58959,20989 58968,20985 58977,20980 58986,20975 58994,20969 59002,20963 59009,20956 59016,20948 59022,20941 59028,20932 59033,20924 Z"/>
   </g>
  </g>
  <g class="com.sun.star.drawing.PolyPolygonShape">
   <g id="id4">
    <rect class="BoundingBox" stroke="none" fill="none" x="57897" y="18806" width="2006" height="1736"/>
    <path fill="rgb(255,255,255)" stroke="none" d="M 58900,20541 L 59902,18806 57898,18806 58900,20541 Z"/>
   </g>
  </g>
  <g class="com.sun.star.drawing.PolyPolygonShape">
   <g id="id5">
    <rect class="BoundingBox" stroke="none" fill="none" x="58680" y="19604" width="441" height="308"/>
    <path fill="rgb(0,0,0)" stroke="none" d="M 59010,19669 L 59010,19604 59120,19758 59010,19911 59010,19845 58681,19845 58681,19669 59010,19669 Z"/>
   </g>
  </g>
  <g class="com.sun.star.drawing.PolyPolygonShape">
   <g id="id6">
    <rect class="BoundingBox" stroke="none" fill="none" x="58359" y="18850" width="1084" height="668"/>
    <path fill="rgb(0,0,0)" stroke="none" d="M 59141,18899 L 59266,18899 59268,18899 59271,18900 59273,18901 59275,18903 59280,18908 59284,18914 59287,18921 59289,18927 59290,18935 59290,18942 59290,18949 59288,18956 59286,18962 59283,18967 59279,18974 59277,18976 59275,18978 59272,18979 59268,18980 59123,18976 58832,19186 58754,19000 58804,19000 58808,19000 58812,18999 58816,18998 58819,18996 58822,18993 58825,18990 58826,18987 58827,18984 58829,18980 58829,18977 58829,18971 58829,18965 58828,18960 58827,18954 58825,18949 58821,18945 58816,18942 58811,18940 58807,18939 58802,18939 58644,18939 58639,18939 58635,18940 58632,18940 58629,18942 58627,18943 58624,18944 58622,18946 58620,18949 58619,18951 58618,18954 58616,18960 58615,18966 58615,18973 58616,18979 58617,18983 58618,18987 58620,18990 58623,18993 58626,18995 58629,18997 58633,18999 58636,19000 58653,19000 58670,19000 58738,19160 58719,19142 58698,19125 58688,19119 58678,19113 58667,19107 58656,19102 58645,19098 58633,19094 58622,19091 58610,19089 58598,19087 58586,19087 58574,19086 58562,19087 58550,19088 58538,19089 58526,19092 58514,19095 58499,19100 58484,19106 58469,19114 58455,19122 58442,19132 58429,19142 58417,19153 58406,19166 58396,19179 58387,19193 58380,19208 58373,19224 58367,19240 58363,19256 58361,19273 58359,19289 58359,19302 58359,19314 58361,19327 58362,19339 58365,19352 58369,19364 58373,19376 58377,19387 58383,19399 58389,19410 58395,19421 58403,19431 58410,19441 58419,19450 58428,19459 58437,19468 58445,19473 58452,19479 58460,19484 58468,19489 58477,19494 58485,19498 58494,19502 58503,19505 58512,19508 58521,19510 58530,19512 58540,19514 58549,19516 58559,19516 58568,19517 58578,19517 58587,19517 58596,19516 58606,19514 58615,19513 58625,19511 58634,19508 58643,19505 58652,19502 58661,19499 58669,19495 58678,19490 58686,19485 58694,19480 58702,19475 58709,19469 58717,19463 58722,19459 58727,19454 58732,19448 58737,19443 58754,19418 58771,19392 58781,19397 58791,19402 58797,19404 58804,19406 58811,19406 58818,19406 58824,19406 58831,19404 58838,19402 58844,19400 58850,19397 58856,19394 58861,19390 58867,19385 58872,19381 58876,19376 58880,19370 58884,19365 58887,19356 58890,19347 58892,19338 58892,19329 58892,19320 58891,19311 58888,19302 58884,19294 58879,19287 58875,19283 58871,19278 58867,19273 58864,19268 58862,19260 58860,19250 59130,19055 59159,19097 59138,19106 59118,19115 59108,19122 59099,19128 59089,19136 59081,19143 59072,19152 59064,19160 59057,19169 59049,19179 59043,19189 59037,19199 59032,19209 59027,19220 59023,19231 59019,19242 59016,19254 59014,19265 59012,19276 59011,19287 59011,19298 59011,19310 59011,19321 59012,19332 59014,19343 59017,19353 59020,19364 59023,19375 59027,19385 59032,19395 59037,19405 59042,19415 59049,19424 59055,19433 59062,19442 59070,19450 59078,19458 59087,19466 59096,19473 59105,19480 59115,19486 59125,19491 59135,19497 59145,19501 59156,19505 59167,19509 59178,19511 59189,19514 59201,19515 59212,19516 59222,19517 59232,19517 59242,19517 59252,19516 59261,19515 59271,19513 59281,19510 59290,19508 59300,19505 59309,19501 59318,19497 59327,19492 59335,19487 59344,19482 59352,19476 59360,19470 59367,19464 59374,19457 59381,19450 59388,19443 59394,19435 59400,19427 59406,19419 59411,19411 59416,19402 59420,19394 59424,19385 59428,19376 59431,19366 59434,19357 59436,19347 59438,19338 59440,19329 59441,19320 59442,19311 59442,19302 59442,19293 59441,19284 59440,19275 59439,19266 59438,19257 59435,19248 59433,19239 59430,19231 59427,19222 59423,19214 59419,19206 59415,19198 59411,19190 59406,19182 59400,19175 59395,19167 59389,19160 59382,19154 59376,19147 59369,19141 59362,19135 59355,19129 59347,19124 59340,19119 59332,19114 59324,19110 59315,19106 59307,19102 59299,19099 59291,19096 59282,19094 59274,19092 59233,19086 59230,19085 59228,19084 59226,19083 59225,19081 59192,19034 59259,19034 59264,19034 59269,19032 59279,19028 59289,19024 59299,19018 59308,19012 59315,19006 59322,18998 59328,18990 59333,18980 59337,18971 59340,18962 59342,18952 59343,18943 59343,18933 59341,18923 59339,18914 59335,18905 59330,18896 59325,18887 59318,18879 59311,18872 59303,18866 59294,18860 59285,18856 59276,18852 59272,18851 59268,18850 59259,18850 59147,18850 59137,18850 59134,18850 59131,18851 59128,18852 59126,18854 59124,18856 59122,18858 59120,18861 59119,18864 59118,18869 59117,18875 59117,18881 59118,18886 59120,18889 59123,18892 59127,18895 59132,18898 59136,18899 59141,18899 Z"/>
   </g>
  </g>
  <g class="com.sun.star.drawing.PolyPolygonShape">
   <g id="id7">
    <rect class="BoundingBox" stroke="none" fill="none" x="58689" y="19630" width="421" height="255"/>
    <path fill="rgb(255,255,0)" stroke="none" d="M 59019,19678 L 59019,19631 59109,19758 59019,19884 59019,19837 58689,19837 58689,19678 59019,19678 Z"/>
   </g>
  </g>
  <g class="com.sun.star.drawing.PolyPolygonShape">
   <g id="id8">
    <rect class="BoundingBox" stroke="none" fill="none" x="58371" y="18862" width="1058" height="643"/>
    <path fill="rgb(255,255,0)" stroke="none" d="M 59253,19022 L 59176,19022 59176,19028 59176,19034 59178,19038 59181,19042 59189,19050 59193,19055 59197,19060 59208,19078 59220,19099 59242,19099 59258,19101 59274,19105 59290,19109 59305,19115 59320,19122 59335,19130 59348,19139 59361,19150 59369,19157 59376,19165 59383,19173 59390,19182 59396,19191 59401,19200 59407,19209 59411,19219 59415,19229 59419,19239 59422,19250 59424,19260 59426,19271 59427,19282 59428,19292 59428,19303 59428,19314 59427,19324 59426,19335 59424,19345 59422,19356 59418,19366 59415,19376 59411,19385 59406,19395 59401,19404 59396,19413 59389,19422 59383,19430 59376,19438 59369,19446 59361,19453 59354,19459 59347,19465 59339,19470 59331,19475 59323,19480 59315,19484 59307,19488 59298,19491 59289,19494 59281,19497 59272,19499 59263,19501 59254,19502 59244,19503 59235,19504 59226,19504 59217,19504 59208,19503 59198,19502 59189,19501 59180,19499 59171,19497 59163,19494 59154,19491 59145,19488 59137,19484 59129,19480 59121,19475 59113,19470 59106,19465 59098,19459 59091,19453 59084,19447 59077,19440 59071,19433 59065,19425 59059,19418 59054,19410 59049,19401 59044,19393 59040,19384 59037,19375 59033,19366 59031,19357 59028,19348 59026,19338 59025,19329 59024,19319 59023,19309 59023,19300 59024,19290 59025,19280 59026,19271 59028,19261 59030,19252 59032,19243 59035,19233 59039,19224 59043,19215 59047,19207 59051,19198 59057,19190 59062,19182 59068,19174 59076,19165 59085,19155 59095,19147 59105,19139 59116,19131 59127,19125 59138,19119 59150,19113 59175,19105 59169,19089 59164,19081 59159,19073 59153,19065 59147,19057 59132,19037 58857,19238 58854,19241 58851,19245 58847,19252 58845,19259 58844,19261 58844,19264 58845,19267 58846,19270 58847,19273 58850,19275 58859,19283 58868,19291 58872,19296 58875,19301 58878,19307 58879,19313 58881,19319 58881,19325 58881,19331 58880,19337 58879,19343 58877,19349 58875,19355 58873,19360 58869,19366 58866,19371 58861,19375 58857,19379 58850,19384 58843,19387 58836,19390 58828,19392 58820,19393 58812,19393 58804,19392 58796,19391 58791,19389 58786,19386 58777,19382 58774,19381 58772,19380 58769,19380 58766,19380 58764,19381 58762,19382 58760,19384 58759,19386 58755,19391 58753,19397 58745,19411 58740,19420 58734,19429 58727,19437 58720,19445 58712,19452 58704,19459 58695,19465 58686,19471 58677,19476 58668,19481 58659,19486 58649,19490 58639,19494 58629,19497 58619,19499 58607,19502 58599,19503 58590,19504 58581,19504 58573,19504 58564,19504 58555,19503 58547,19502 58538,19501 58530,19499 58521,19497 58513,19494 58504,19491 58496,19488 58488,19485 58480,19481 58473,19477 58465,19472 58458,19468 58451,19463 58445,19457 58438,19452 58432,19446 58426,19440 58420,19433 58415,19427 58409,19420 58405,19413 58400,19405 58396,19398 58392,19390 58388,19382 58385,19375 58382,19366 58379,19357 58377,19348 58375,19338 58373,19329 58372,19320 58371,19310 58371,19301 58371,19292 58372,19282 58373,19273 58375,19264 58377,19254 58379,19245 58382,19236 58385,19227 58389,19219 58393,19210 58397,19202 58402,19194 58407,19186 58413,19178 58419,19171 58425,19164 58432,19157 58439,19150 58446,19144 58454,19139 58461,19133 58469,19128 58478,19123 58486,19119 58498,19113 58511,19109 58524,19105 58538,19102 58551,19100 58565,19098 58579,19098 58592,19099 58606,19101 58620,19103 58634,19107 58647,19111 58659,19117 58671,19123 58683,19130 58694,19137 58701,19142 58708,19147 58714,19153 58719,19159 58743,19189 58745,19191 58746,19192 58749,19193 58751,19193 58767,19193 58684,18988 58630,18985 58629,18972 58630,18960 58631,18958 58632,18956 58635,18954 58639,18953 58642,18953 58646,18953 58802,18953 58806,18953 58809,18954 58812,18955 58815,18958 58817,18961 58819,18965 58819,18969 58819,18973 58818,18977 58817,18980 58816,18983 58814,18984 58811,18986 58808,18987 58802,18988 58770,18988 58739,18987 58825,19206 59125,18988 59136,18991 59264,18993 59269,18992 59274,18992 59278,18991 59282,18989 59285,18987 59289,18984 59292,18980 59294,18976 59296,18972 59298,18967 59301,18959 59302,18950 59303,18941 59302,18932 59300,18923 59297,18914 59293,18906 59288,18899 59285,18896 59282,18893 59277,18890 59272,18889 59267,18888 59262,18888 59145,18888 59138,18887 59135,18887 59133,18885 59131,18883 59129,18881 59129,18877 59128,18874 59129,18872 59130,18869 59132,18866 59134,18864 59135,18863 59137,18863 59141,18862 59263,18862 59268,18863 59273,18864 59280,18866 59286,18869 59293,18872 59299,18876 59304,18882 59309,18887 59313,18893 59317,18899 59320,18904 59323,18909 59325,18915 59327,18921 59328,18926 59330,18932 59330,18938 59331,18944 59330,18951 59329,18957 59328,18963 59326,18969 59324,18974 59321,18980 59317,18985 59314,18990 59309,18995 59303,19001 59297,19006 59291,19010 59284,19013 59278,19017 59271,19019 59263,19021 59258,19022 59253,19022 Z"/>
   </g>
  </g>
 </g>
</svg>