<?xml version="1.0" encoding="UTF-8"?>
<!DOCTYPE svg PUBLIC "-//W3C//DTD SVG 1.1//EN" "http://www.w3.org/Graphics/SVG/1.1/DTD/svg11.dtd">
<svg version="1.2" width="28.43mm" height="25.02mm" viewBox="60879 18500 2843 2502" preserveAspectRatio="xMidYMid" fill-rule="evenodd" stroke-width="28.222" stroke-linejoin="round" xmlns="http://www.w3.org/2000/svg" xmlns:ooo="http://xml.openoffice.org/svg/export" xmlns:xlink="http://www.w3.org/1999/xlink" xmlns:presentation="http://sun.com/xmlns/staroffice/presentation" xmlns:smil="http://www.w3.org/2001/SMIL20/" xmlns:anim="urn:oasis:names:tc:opendocument:xmlns:animation:1.0" xml:space="preserve">
 <defs class="EmbeddedBulletChars">
  <g id="bullet-char-template-57356" transform="scale(0.00048828125,-0.00048828125)">
   <path d="M 580,1141 L 1163,571 580,0 -4,571 580,1141 Z"/>
  </g>
  <g id="bullet-char-template-57354" transform="scale(0.00048828125,-0.00048828125)">
   <path d="M 8,1128 L 1137,1128 1137,0 8,0 8,1128 Z"/>
  </g>
  <g id="bullet-char-template-10146" transform="scale(0.00048828125,-0.00048828125)">
   <path d="M 174,0 L 602,739 174,1481 1456,739 174,0 Z M 1358,739 L 309,1346 659,739 1358,739 Z"/>
  </g>
  <g id="bullet-char-template-10132" transform="scale(0.00048828125,-0.00048828125)">
   <path d="M 2015,739 L 1276,0 717,0 1260,543 174,543 174,936 1260,936 717,1481 1274,1481 2015,739 Z"/>
  </g>
  <g id="bullet-char-template-10007" transform="scale(0.00048828125,-0.00048828125)">
   <path d="M 0,-2 C -7,14 -16,27 -25,37 L 356,567 C 262,823 215,952 215,954 215,979 228,992 255,992 264,992 276,990 289,987 310,991 331,999 354,1012 L 381,999 492,748 772,1049 836,1024 860,1049 C 881,1039 901,1025 922,1006 886,937 835,863 770,784 769,783 710,716 594,584 L 774,223 C 774,196 753,168 711,139 L 727,119 C 717,90 699,76 672,76 641,76 570,178 457,381 L 164,-76 C 142,-110 111,-127 72,-127 30,-127 9,-110 8,-76 1,-67 -2,-52 -2,-32 -2,-23 -1,-13 0,-2 Z"/>
  </g>
  <g id="bullet-char-template-10004" transform="scale(0.00048828125,-0.00048828125)">
   <path d="M 285,-33 C 182,-33 111,30 74,156 52,228 41,333 41,471 41,549 55,616 82,672 116,743 169,778 240,778 293,778 328,747 346,684 L 369,508 C 377,444 397,411 428,410 L 1163,1116 C 1174,1127 1196,1133 1229,1133 1271,1133 1292,1118 1292,1087 L 1292,965 C 1292,929 1282,901 1262,881 L 442,47 C 390,-6 338,-33 285,-33 Z"/>
  </g>
  <g id="bullet-char-template-9679" transform="scale(0.00048828125,-0.00048828125)">
   <path d="M 813,0 C 632,0 489,54 383,161 276,268 223,411 223,592 223,773 276,916 383,1023 489,1130 632,1184 813,1184 992,1184 1136,1130 1245,1023 1353,916 1407,772 1407,592 1407,412 1353,268 1245,161 1136,54 992,0 813,0 Z"/>
  </g>
  <g id="bullet-char-template-8226" transform="scale(0.00048828125,-0.00048828125)">
   <path d="M 346,457 C 273,457 209,483 155,535 101,586 74,649 74,723 74,796 101,859 155,911 209,963 273,989 346,989 419,989 480,963 531,910 582,859 608,796 608,723 608,648 583,586 532,535 482,483 420,457 346,457 Z"/>
  </g>
  <g id="bullet-char-template-8211" transform="scale(0.00048828125,-0.00048828125)">
   <path d="M -4,459 L 1135,459 1135,606 -4,606 -4,459 Z"/>
  </g>
  <g id="bullet-char-template-61548" transform="scale(0.00048828125,-0.00048828125)">
   <path d="M 173,740 C 173,903 231,1043 346,1159 462,1274 601,1332 765,1332 928,1332 1067,1274 1183,1159 1299,1043 1357,903 1357,740 1357,577 1299,437 1183,322 1067,206 928,148 765,148 601,148 462,206 346,322 231,437 173,577 173,740 Z"/>
  </g>
 </defs>
 <g class="Page">
  <g class="com.sun.star.drawing.PolyPolygonShape">
   <g id="id3">
    <rect class="BoundingBox" stroke="none" fill="none" x="60879" y="18500" width="2843" height="2502"/>
    <path fill="rgb(255,0,0)" stroke="none" d="M 62433,20924 L 63700,18729 63705,18720 63709,18711 63712,18702 63715,18692 63718,18683 63719,18673 63720,18663 63721,18653 63720,18643 63719,18633 63718,18623 63715,18613 63712,18603 63709,18594 63705,18585 63700,18576 63695,18568 63689,18560 63683,18552 63676,18544 63668,18538 63661,18531 63652,18525 63644,18520 63635,18515 63626,18511 63617,18508 63607,18505 63597,18503 63587,18501 63577,18500 63567,18500 61033,18500 61023,18500 61013,18501 61003,18503 60993,18505 60983,18508 60974,18511 60965,18515 60956,18520 60948,18525 60939,18531 60932,18538 60924,18544 60917,18552 60911,18560 60905,18568 60900,18576 60895,18585 60891,18594 60887,18603 60885,18613 60882,18623 60881,18633 60880,18643 60879,18653 60880,18663 60881,18673 60882,18683 60885,18692 60887,18702 60891,18711 60895,18720 60900,18729 62168,20924 62173,20932 62179,20941 62185,20948 62192,20956 62199,20963 62207,20969 62215,20975 62224,20980 62233,20985 62242,20989 62251,20992 62261,20995 62271,20998 62281,20999 62291,21000 62301,21001 62311,21000 62321,20999 62330,20998 62340,20995 62350,20992 62359,20989 62368,20985 62377,20980 62386,20975 62394,20969 62402,20963 62409,20956 62416,20948 62422,20941 62428,20932 62433,20924 Z"/>
   </g>
  </g>
  <g class="com.sun.star.drawing.PolyPolygonShape">
   <g id="id4">
    <rect class="BoundingBox" stroke="none" fill="none" x="61297" y="18806" width="2006" height="1736"/>
    <path fill="rgb(255,255,255)" stroke="none" d="M 62300,20541 L 63302,18806 61298,18806 62300,20541 Z"/>
   </g>
  </g>
  <g class="com.sun.star.drawing.PolyPolygonShape">
   <g id="id5">
    <rect class="BoundingBox" stroke="none" fill="none" x="62146" y="19647" width="309" height="440"/>
    <path fill="rgb(0,0,0)" stroke="none" d="M 62212,19757 L 62146,19757 62301,19647 62454,19757 62388,19757 62388,20086 62212,20086 62212,19757 Z"/>
   </g>
  </g>
  <g class="com.sun.star.drawing.PolyPolygonShape">
   <g id="id6">
    <rect class="BoundingBox" stroke="none" fill="none" x="61759" y="18850" width="1084" height="668"/>
    <path fill="rgb(0,0,0)" stroke="none" d="M 62541,18899 L 62666,18899 62668,18899 62671,18900 62673,18901 62675,18903 62680,18908 62684,18914 62687,18921 62689,18927 62690,18935 62690,18942 62690,18949 62688,18956 62686,18962 62683,18967 62679,18974 62677,18976 62675,18978 62672,18979 62668,18980 62523,18976 62233,19186 62154,19000 62204,19000 62208,19000 62212,18999 62217,18998 62220,18996 62223,18993 62226,18990 62227,18987 62228,18984 62229,18980 62230,18977 62230,18971 62230,18965 62229,18960 62228,18954 62226,18949 62222,18945 62217,18942 62211,18940 62207,18939 62202,18939 62044,18939 62039,18939 62035,18940 62032,18940 62029,18942 62027,18943 62024,18944 62022,18946 62020,18949 62019,18951 62018,18954 62016,18960 62015,18966 62015,18973 62016,18979 62017,18983 62018,18987 62020,18990 62023,18993 62026,18995 62029,18997 62033,18999 62036,19000 62053,19000 62070,19000 62138,19160 62119,19142 62098,19125 62088,19119 62078,19113 62067,19107 62056,19102 62045,19098 62033,19094 62022,19091 62010,19089 61998,19087 61986,19087 61974,19086 61962,19087 61950,19088 61938,19089 61926,19092 61914,19095 61899,19100 61884,19106 61869,19114 61855,19122 61842,19132 61829,19142 61817,19153 61806,19166 61796,19179 61787,19193 61780,19208 61773,19224 61767,19240 61763,19256 61761,19273 61759,19289 61759,19302 61759,19314 61761,19327 61762,19339 61765,19352 61769,19364 61773,19376 61777,19387 61783,19399 61789,19410 61795,19421 61803,19431 61810,19441 61819,19450 61828,19459 61837,19468 61844,19473 61852,19479 61860,19484 61868,19489 61877,19494 61885,19498 61894,19502 61903,19505 61912,19508 61921,19510 61930,19512 61940,19514 61949,19516 61959,19516 61968,19517 61978,19517 61987,19517 61996,19516 62006,19514 62015,19513 62025,19511 62034,19508 62043,19505 62052,19502 62061,19499 62069,19495 62078,19490 62086,19485 62094,19480 62102,19475 62109,19469 62117,19463 62122,19459 62127,19454 62132,19448 62137,19443 62154,19418 62171,19392 62181,19397 62191,19402 62197,19404 62204,19406 62211,19406 62219,19406 62225,19406 62232,19404 62239,19402 62245,19400 62251,19397 62257,19394 62262,19390 62268,19385 62273,19381 62277,19376 62281,19370 62285,19365 62288,19356 62291,19347 62293,19338 62293,19329 62293,19320 62292,19311 62289,19302 62285,19294 62280,19287 62276,19283 62272,19278 62268,19273 62265,19268 62263,19260 62261,19250 62530,19055 62559,19097 62538,19106 62518,19115 62508,19122 62499,19128 62489,19136 62480,19143 62472,19152 62464,19160 62457,19169 62449,19179 62443,19189 62437,19199 62432,19209 62427,19220 62423,19231 62419,19242 62416,19254 62414,19265 62412,19276 62411,19287 62411,19298 62411,19310 62411,19321 62412,19332 62414,19343 62417,19353 62420,19364 62423,19375 62427,19385 62432,19395 62437,19405 62442,19415 62449,19424 62455,19433 62462,19442 62470,19450 62478,19458 62487,19466 62496,19473 62505,19480 62515,19486 62525,19491 62535,19497 62545,19501 62556,19505 62567,19509 62578,19511 62589,19514 62600,19515 62612,19516 62622,19517 62632,19517 62642,19517 62652,19516 62661,19515 62671,19513 62681,19510 62690,19508 62700,19505 62709,19501 62718,19497 62727,19492 62735,19487 62744,19482 62752,19476 62760,19470 62767,19464 62774,19457 62781,19450 62788,19443 62794,19435 62800,19427 62806,19419 62811,19411 62816,19402 62820,19394 62824,19385 62828,19376 62831,19366 62834,19357 62837,19347 62839,19338 62840,19329 62841,19320 62842,19311 62842,19302 62842,19293 62841,19284 62841,19275 62839,19266 62838,19257 62836,19248 62833,19239 62830,19231 62827,19222 62824,19214 62820,19206 62815,19198 62811,19190 62806,19182 62800,19175 62795,19167 62789,19160 62782,19154 62776,19147 62769,19141 62762,19135 62755,19129 62747,19124 62740,19119 62732,19114 62724,19110 62715,19106 62707,19102 62699,19099 62691,19096 62682,19094 62674,19092 62633,19086 62630,19085 62628,19084 62626,19083 62625,19081 62592,19034 62659,19034 62664,19034 62669,19032 62679,19028 62689,19024 62699,19018 62708,19012 62715,19006 62722,18998 62729,18990 62733,18980 62737,18971 62740,18962 62742,18952 62743,18943 62743,18933 62741,18923 62739,18914 62735,18905 62730,18896 62725,18887 62718,18879 62711,18872 62703,18866 62694,18860 62685,18856 62676,18852 62672,18851 62668,18850 62659,18850 62547,18850 62537,18850 62534,18850 62531,18851 62528,18852 62526,18854 62523,18856 62522,18858 62520,18861 62519,18864 62518,18869 62517,18875 62517,18881 62518,18886 62520,18889 62523,18892 62527,18895 62532,18898 62536,18899 62541,18899 Z"/>
   </g>
  </g>
  <g class="com.sun.star.drawing.PolyPolygonShape">
   <g id="id7">
    <rect class="BoundingBox" stroke="none" fill="none" x="62173" y="19658" width="255" height="421"/>
    <path fill="rgb(255,255,0)" stroke="none" d="M 62221,19748 L 62174,19748 62300,19658 62427,19748 62379,19748 62379,20077 62221,20077 62221,19748 Z"/>
   </g>
  </g>
  <g class="com.sun.star.drawing.PolyPolygonShape">
   <g id="id8">
    <rect class="BoundingBox" stroke="none" fill="none" x="61771" y="18862" width="1058" height="643"/>
    <path fill="rgb(255,255,0)" stroke="none" d="M 62653,19022 L 62576,19022 62576,19028 62576,19034 62578,19038 62581,19042 62589,19050 62593,19055 62597,19060 62608,19078 62620,19099 62642,19099 62658,19101 62674,19105 62690,19109 62705,19115 62720,19122 62735,19130 62748,19139 62761,19150 62769,19157 62776,19165 62783,19173 62790,19182 62796,19191 62801,19200 62807,19209 62811,19219 62815,19229 62819,19239 62822,19250 62824,19260 62826,19271 62828,19282 62828,19292 62828,19303 62828,19314 62827,19324 62826,19335 62824,19345 62822,19356 62819,19366 62815,19376 62811,19385 62806,19395 62801,19404 62796,19413 62790,19422 62783,19430 62776,19438 62769,19446 62761,19453 62754,19459 62747,19465 62739,19470 62731,19475 62723,19480 62715,19484 62707,19488 62698,19491 62689,19494 62681,19497 62672,19499 62663,19501 62654,19502 62644,19503 62635,19504 62626,19504 62617,19504 62608,19503 62598,19502 62589,19501 62580,19499 62571,19497 62563,19494 62554,19491 62545,19488 62537,19484 62529,19480 62521,19475 62513,19470 62506,19465 62498,19459 62491,19453 62484,19447 62477,19440 62471,19433 62465,19425 62459,19418 62454,19410 62449,19401 62444,19393 62440,19384 62437,19375 62433,19366 62431,19357 62428,19348 62426,19338 62425,19329 62424,19319 62423,19309 62423,19300 62424,19290 62424,19280 62426,19271 62428,19261 62430,19252 62432,19243 62435,19233 62439,19224 62443,19215 62447,19207 62452,19198 62457,19190 62462,19182 62468,19174 62476,19165 62485,19155 62495,19147 62505,19139 62516,19131 62527,19125 62538,19119 62550,19113 62575,19105 62569,19089 62564,19081 62559,19073 62553,19065 62547,19057 62532,19037 62257,19238 62254,19241 62251,19245 62247,19252 62245,19259 62244,19261 62244,19264 62245,19267 62246,19270 62247,19273 62250,19275 62259,19283 62268,19291 62272,19296 62275,19301 62278,19307 62279,19313 62281,19319 62281,19325 62281,19331 62280,19337 62279,19343 62277,19349 62275,19355 62273,19360 62269,19366 62266,19371 62261,19375 62257,19379 62250,19384 62243,19387 62236,19390 62228,19392 62220,19393 62212,19393 62204,19392 62196,19391 62191,19389 62186,19386 62177,19382 62174,19381 62172,19380 62169,19380 62166,19380 62164,19381 62162,19382 62160,19384 62159,19386 62155,19391 62153,19397 62145,19411 62140,19420 62134,19429 62127,19437 62120,19445 62112,19452 62104,19459 62095,19465 62086,19471 62077,19476 62068,19481 62059,19486 62049,19490 62039,19494 62029,19497 62019,19499 62008,19502 62000,19503 61991,19504 61982,19504 61974,19504 61965,19504 61956,19503 61948,19502 61939,19501 61931,19499 61922,19497 61914,19494 61905,19491 61897,19488 61889,19485 61881,19481 61874,19477 61866,19472 61859,19468 61852,19463 61845,19457 61839,19452 61833,19446 61827,19440 61821,19433 61816,19427 61810,19420 61806,19413 61801,19405 61797,19398 61793,19390 61789,19382 61786,19375 61783,19366 61780,19357 61778,19348 61775,19338 61773,19329 61772,19320 61771,19310 61771,19301 61771,19292 61772,19282 61773,19273 61775,19264 61778,19254 61780,19245 61783,19236 61786,19227 61790,19219 61794,19210 61798,19202 61803,19194 61808,19186 61814,19178 61820,19171 61826,19164 61833,19157 61840,19150 61847,19144 61854,19139 61862,19133 61870,19128 61879,19123 61887,19119 61899,19113 61912,19109 61925,19105 61939,19102 61952,19100 61966,19098 61980,19098 61993,19099 62007,19101 62020,19103 62034,19107 62047,19111 62059,19117 62071,19123 62083,19130 62094,19137 62101,19142 62108,19147 62114,19153 62119,19159 62143,19189 62145,19191 62146,19192 62148,19193 62151,19193 62167,19193 62084,18988 62030,18985 62029,18972 62030,18960 62031,18958 62032,18956 62035,18954 62039,18953 62042,18953 62046,18953 62202,18953 62206,18953 62209,18954 62212,18955 62215,18958 62217,18961 62219,18965 62219,18969 62219,18973 62218,18977 62217,18980 62216,18983 62214,18984 62211,18986 62208,18987 62202,18988 62170,18988 62139,18987 62225,19206 62525,18988 62536,18991 62664,18993 62669,18992 62674,18992 62678,18991 62682,18989 62685,18987 62689,18984 62692,18980 62694,18976 62696,18972 62698,18967 62701,18959 62702,18950 62703,18941 62702,18932 62700,18923 62697,18914 62693,18906 62688,18899 62685,18896 62682,18893 62677,18890 62672,18889 62667,18888 62662,18888 62545,18888 62538,18887 62535,18887 62532,18885 62531,18883 62529,18881 62529,18877 62528,18874 62529,18872 62530,18869 62531,18866 62534,18864 62535,18863 62537,18863 62541,18862 62663,18862 62668,18863 62673,18864 62680,18866 62686,18869 62693,18872 62699,18876 62704,18882 62709,18887 62713,18893 62717,18899 62720,18904 62723,18909 62725,18915 62727,18921 62729,18926 62730,18932 62730,18938 62731,18944 62730,18951 62729,18957 62728,18963 62726,18969 62724,18974 62721,18980 62717,18985 62714,18990 62709,18995 62703,19001 62697,19006 62691,19010 62684,19013 62678,19017 62671,19019 62663,19021 62658,19022 62653,19022 Z"/>
   </g>
  </g>
 </g>
</svg>