<?xml version="1.0" encoding="UTF-8"?>
<!DOCTYPE svg PUBLIC "-//W3C//DTD SVG 1.1//EN" "http://www.w3.org/Graphics/SVG/1.1/DTD/svg11.dtd">
<svg version="1.2" width="22.25mm" height="25.02mm" viewBox="7388 18500 2225 2502" preserveAspectRatio="xMidYMid" fill-rule="evenodd" stroke-width="28.222" stroke-linejoin="round" xmlns="http://www.w3.org/2000/svg" xmlns:ooo="http://xml.openoffice.org/svg/export" xmlns:xlink="http://www.w3.org/1999/xlink" xmlns:presentation="http://sun.com/xmlns/staroffice/presentation" xmlns:smil="http://www.w3.org/2001/SMIL20/" xmlns:anim="urn:oasis:names:tc:opendocument:xmlns:animation:1.0" xml:space="preserve">
 <defs class="EmbeddedBulletChars">
  <g id="bullet-char-template-57356" transform="scale(0.00048828125,-0.00048828125)">
   <path d="M 580,1141 L 1163,571 580,0 -4,571 580,1141 Z"/>
  </g>
  <g id="bullet-char-template-57354" transform="scale(0.00048828125,-0.00048828125)">
   <path d="M 8,1128 L 1137,1128 1137,0 8,0 8,1128 Z"/>
  </g>
  <g id="bullet-char-template-10146" transform="scale(0.00048828125,-0.00048828125)">
   <path d="M 174,0 L 602,739 174,1481 1456,739 174,0 Z M 1358,739 L 309,1346 659,739 1358,739 Z"/>
  </g>
  <g id="bullet-char-template-10132" transform="scale(0.00048828125,-0.00048828125)">
   <path d="M 2015,739 L 1276,0 717,0 1260,543 174,543 174,936 1260,936 717,1481 1274,1481 2015,739 Z"/>
  </g>
  <g id="bullet-char-template-10007" transform="scale(0.00048828125,-0.00048828125)">
   <path d="M 0,-2 C -7,14 -16,27 -25,37 L 356,567 C 262,823 215,952 215,954 215,979 228,992 255,992 264,992 276,990 289,987 310,991 331,999 354,1012 L 381,999 492,748 772,1049 836,1024 860,1049 C 881,1039 901,1025 922,1006 886,937 835,863 770,784 769,783 710,716 594,584 L 774,223 C 774,196 753,168 711,139 L 727,119 C 717,90 699,76 672,76 641,76 570,178 457,381 L 164,-76 C 142,-110 111,-127 72,-127 30,-127 9,-110 8,-76 1,-67 -2,-52 -2,-32 -2,-23 -1,-13 0,-2 Z"/>
  </g>
  <g id="bullet-char-template-10004" transform="scale(0.00048828125,-0.00048828125)">
   <path d="M 285,-33 C 182,-33 111,30 74,156 52,228 41,333 41,471 41,549 55,616 82,672 116,743 169,778 240,778 293,778 328,747 346,684 L 369,508 C 377,444 397,411 428,410 L 1163,1116 C 1174,1127 1196,1133 1229,1133 1271,1133 1292,1118 1292,1087 L 1292,965 C 1292,929 1282,901 1262,881 L 442,47 C 390,-6 338,-33 285,-33 Z"/>
  </g>
  <g id="bullet-char-template-9679" transform="scale(0.00048828125,-0.00048828125)">
   <path d="M 813,0 C 632,0 489,54 383,161 276,268 223,411 223,592 223,773 276,916 383,1023 489,1130 632,1184 813,1184 992,1184 1136,1130 1245,1023 1353,916 1407,772 1407,592 1407,412 1353,268 1245,161 1136,54 992,0 813,0 Z"/>
  </g>
  <g id="bullet-char-template-8226" transform="scale(0.00048828125,-0.00048828125)">
   <path d="M 346,457 C 273,457 209,483 155,535 101,586 74,649 74,723 74,796 101,859 155,911 209,963 273,989 346,989 419,989 480,963 531,910 582,859 608,796 608,723 608,648 583,586 532,535 482,483 420,457 346,457 Z"/>
  </g>
  <g id="bullet-char-template-8211" transform="scale(0.00048828125,-0.00048828125)">
   <path d="M -4,459 L 1135,459 1135,606 -4,606 -4,459 Z"/>
  </g>
  <g id="bullet-char-template-61548" transform="scale(0.00048828125,-0.00048828125)">
   <path d="M 173,740 C 173,903 231,1043 346,1159 462,1274 601,1332 765,1332 928,1332 1067,1274 1183,1159 1299,1043 1357,903 1357,740 1357,577 1299,437 1183,322 1067,206 928,148 765,148 601,148 462,206 346,322 231,437 173,577 173,740 Z"/>
  </g>
 </defs>
 <g class="Page">
  <g class="com.sun.star.drawing.PolyPolygonShape">
   <g id="id3">
    <rect class="BoundingBox" stroke="none" fill="none" x="7455" y="18500" width="2091" height="1835"/>
    <path fill="rgb(255,0,0)" stroke="none" d="M 8578,20289 L 9533,18636 9535,18633 9536,18631 9537,18628 9538,18625 9539,18622 9541,18620 9541,18617 9542,18614 9543,18611 9544,18608 9544,18605 9544,18602 9545,18599 9545,18596 9545,18593 9545,18590 9545,18588 9545,18584 9545,18582 9544,18579 9544,18576 9544,18573 9543,18570 9542,18567 9541,18564 9541,18561 9539,18558 9538,18556 9537,18553 9536,18550 9535,18548 9533,18545 9531,18542 9530,18540 9528,18538 9526,18535 9525,18533 9523,18531 9521,18528 9519,18526 9517,18524 9514,18522 9512,18520 9510,18518 9507,18516 9505,18515 9502,18513 9500,18512 9497,18510 9495,18509 9492,18508 9489,18506 9486,18505 9484,18504 9481,18504 9478,18503 9475,18502 9472,18501 9469,18501 9466,18500 9463,18500 9460,18500 9457,18500 9454,18500 7546,18500 7543,18500 7540,18500 7537,18500 7534,18500 7531,18501 7528,18501 7525,18502 7522,18503 7519,18504 7516,18504 7514,18505 7511,18506 7508,18508 7505,18509 7503,18510 7500,18512 7498,18513 7495,18515 7493,18516 7490,18518 7488,18520 7486,18522 7483,18524 7481,18526 7479,18528 7477,18531 7475,18533 7474,18535 7472,18538 7470,18540 7469,18542 7467,18545 7465,18548 7464,18550 7463,18553 7462,18556 7461,18558 7459,18561 7459,18564 7458,18567 7457,18570 7456,18573 7456,18576 7456,18579 7455,18582 7455,18584 7455,18588 7455,18590 7455,18593 7455,18596 7455,18599 7456,18602 7456,18605 7456,18608 7457,18611 7458,18614 7459,18617 7459,18620 7461,18622 7462,18625 7463,18628 7464,18631 7465,18633 7467,18636 8421,20289 8422,20291 8424,20294 8426,20296 8427,20298 8429,20301 8431,20303 8433,20305 8435,20307 8437,20309 8439,20311 8442,20313 8444,20315 8447,20317 8449,20319 8452,20320 8454,20322 8457,20323 8459,20325 8462,20326 8465,20327 8467,20328 8470,20329 8473,20330 8476,20331 8479,20332 8482,20332 8485,20333 8488,20333 8491,20334 8494,20334 8497,20334 8500,20334 8503,20334 8505,20334 8508,20334 8511,20333 8514,20333 8517,20332 8520,20332 8523,20331 8526,20330 8529,20329 8532,20328 8534,20327 8537,20326 8540,20325 8542,20323 8545,20322 8547,20320 8550,20319 8552,20317 8555,20315 8557,20313 8560,20311 8562,20309 8564,20307 8566,20305 8568,20303 8570,20301 8572,20298 8573,20296 8575,20294 8577,20291 8578,20289 Z"/>
   </g>
  </g>
  <g class="com.sun.star.drawing.PolyPolygonShape">
   <g id="id4">
    <rect class="BoundingBox" stroke="none" fill="none" x="7773" y="18722" width="1455" height="1259"/>
    <path fill="rgb(255,255,255)" stroke="none" d="M 7773,18722 L 8501,19980 9227,18722 7773,18722 Z"/>
   </g>
  </g>
  <g class="com.sun.star.drawing.PolyPolygonShape">
   <g id="id5">
    <rect class="BoundingBox" stroke="none" fill="none" x="7388" y="20394" width="2225" height="608"/>
    <path fill="rgb(0,0,255)" stroke="none" d="M 7520,21001 L 9481,21001 9484,21001 9487,21000 9490,21000 9493,21000 9497,21000 9500,20999 9503,20999 9506,20998 9509,20997 9512,20997 9515,20996 9519,20995 9522,20994 9525,20993 9528,20992 9531,20991 9534,20989 9537,20988 9540,20987 9542,20985 9545,20983 9548,20982 9551,20980 9553,20978 9556,20977 9559,20975 9561,20973 9564,20971 9566,20969 9569,20967 9571,20964 9573,20962 9576,20960 9578,20958 9580,20955 9582,20953 9584,20950 9586,20947 9588,20945 9590,20942 9592,20940 9593,20937 9595,20934 9596,20931 9598,20928 9599,20925 9601,20923 9602,20919 9603,20917 9604,20914 9605,20910 9606,20907 9607,20904 9608,20901 9609,20898 9609,20895 9610,20892 9610,20889 9611,20885 9611,20882 9611,20879 9612,20876 9612,20871 9612,20868 9612,20525 9612,20522 9612,20518 9611,20515 9611,20512 9611,20509 9610,20506 9610,20502 9609,20499 9609,20496 9608,20493 9607,20490 9606,20487 9605,20484 9604,20481 9603,20478 9602,20475 9601,20472 9599,20469 9598,20466 9596,20463 9595,20460 9593,20457 9592,20455 9590,20452 9588,20449 9586,20447 9584,20444 9582,20442 9580,20439 9578,20437 9576,20434 9573,20432 9571,20430 9569,20428 9566,20426 9564,20423 9561,20421 9559,20419 9556,20418 9553,20416 9551,20414 9548,20412 9545,20411 9542,20409 9540,20408 9537,20406 9534,20405 9531,20404 9528,20402 9525,20401 9522,20400 9519,20399 9515,20398 9512,20397 9509,20397 9506,20396 9503,20395 9500,20395 9497,20395 9493,20394 9490,20394 9487,20394 9484,20394 9481,20394 7520,20394 7516,20394 7513,20394 7510,20394 7507,20394 7503,20395 7500,20395 7497,20395 7494,20396 7491,20397 7488,20397 7485,20398 7481,20399 7478,20400 7475,20401 7472,20402 7469,20404 7466,20405 7463,20406 7460,20408 7458,20409 7455,20411 7452,20412 7449,20414 7447,20416 7444,20418 7441,20419 7439,20421 7436,20423 7434,20426 7431,20428 7429,20430 7427,20432 7424,20434 7422,20437 7420,20439 7418,20442 7416,20444 7414,20447 7412,20449 7410,20452 7409,20455 7407,20457 7405,20460 7404,20463 7402,20466 7401,20469 7399,20472 7398,20475 7397,20478 7396,20481 7395,20484 7394,20487 7393,20490 7392,20493 7391,20496 7391,20499 7390,20502 7390,20506 7389,20509 7389,20512 7388,20515 7388,20518 7388,20522 7388,20525 7388,20868 7388,20871 7388,20876 7388,20879 7389,20882 7389,20885 7390,20889 7390,20892 7391,20895 7391,20898 7392,20901 7393,20904 7394,20907 7395,20910 7396,20914 7397,20917 7398,20919 7399,20923 7401,20925 7402,20928 7404,20931 7405,20934 7407,20937 7409,20940 7410,20942 7412,20945 7414,20947 7416,20950 7418,20953 7420,20955 7422,20958 7424,20960 7427,20962 7429,20964 7431,20967 7434,20969 7436,20971 7439,20973 7441,20975 7444,20977 7447,20978 7449,20980 7452,20982 7455,20983 7458,20985 7460,20987 7463,20988 7466,20989 7469,20991 7472,20992 7475,20993 7478,20994 7481,20995 7485,20996 7488,20997 7491,20997 7494,20998 7497,20999 7500,20999 7503,21000 7507,21000 7510,21000 7513,21000 7516,21001 7520,21001 Z"/>
   </g>
  </g>
  <g class="com.sun.star.drawing.PolyPolygonShape">
   <g id="id6">
    <rect class="BoundingBox" stroke="none" fill="none" x="7650" y="20444" width="147" height="507"/>
    <path fill="rgb(255,255,255)" stroke="none" d="M 7651,20589 L 7702,20589 7702,20950 7796,20950 7796,20444 7702,20444 7651,20539 7651,20589 Z"/>
   </g>
  </g>
  <g class="com.sun.star.drawing.PolyPolygonShape">
   <g id="id7">
    <rect class="BoundingBox" stroke="none" fill="none" x="7924" y="20444" width="345" height="516"/>
    <path fill="rgb(255,255,255)" stroke="none" d="M 7935,20733 L 8024,20733 8025,20731 8026,20730 8027,20728 8027,20727 8028,20726 8029,20724 8030,20723 8031,20722 8032,20720 8034,20719 8035,20718 8036,20717 8038,20716 8039,20714 8040,20713 8041,20712 8043,20711 8044,20710 8045,20709 8047,20708 8048,20707 8049,20706 8051,20705 8052,20704 8053,20703 8055,20702 8056,20702 8058,20701 8059,20700 8061,20699 8062,20699 8064,20698 8065,20697 8067,20697 8068,20696 8070,20696 8072,20695 8073,20695 8075,20694 8076,20694 8078,20694 8080,20693 8081,20693 8083,20693 8084,20692 8086,20692 8088,20692 8089,20692 8091,20692 8093,20692 8094,20692 8096,20692 8098,20692 8099,20692 8101,20692 8103,20692 8104,20692 8106,20693 8108,20693 8109,20693 8111,20693 8112,20694 8114,20694 8116,20694 8117,20695 8119,20695 8120,20696 8122,20696 8123,20697 8125,20698 8127,20698 8128,20699 8130,20700 8131,20700 8133,20701 8134,20702 8135,20703 8137,20703 8138,20704 8140,20705 8141,20706 8142,20707 8144,20708 8145,20709 8146,20710 8148,20711 8149,20712 8150,20713 8151,20715 8152,20716 8154,20717 8155,20718 8156,20719 8157,20721 8158,20722 8159,20723 8160,20724 8161,20726 8162,20727 8163,20729 8164,20730 8165,20731 8165,20733 8166,20734 8167,20736 8168,20737 8168,20739 8169,20740 8170,20742 8170,20743 8171,20745 8171,20746 8172,20748 8172,20750 8173,20751 8173,20753 8174,20754 8174,20756 8174,20758 8175,20759 8175,20761 8175,20762 8175,20764 8175,20766 8176,20767 8176,20769 8176,20771 8176,20772 8176,20798 8176,20799 8176,20801 8176,20803 8175,20805 8175,20807 8175,20808 8175,20810 8174,20812 8174,20814 8174,20815 8173,20818 8173,20820 8172,20822 8172,20823 8171,20825 8171,20827 8170,20829 8169,20830 8168,20832 8168,20834 8167,20835 8166,20837 8165,20838 8164,20840 8163,20841 8162,20843 8161,20844 8160,20846 8159,20847 8158,20849 8157,20850 8156,20852 8155,20853 8153,20854 8152,20856 8151,20857 8150,20858 8148,20859 8147,20860 8145,20861 8144,20863 8143,20864 8141,20865 8139,20866 8138,20867 8136,20868 8135,20869 8133,20869 8132,20870 8130,20871 8128,20872 8127,20873 8125,20873 8123,20874 8122,20875 8120,20875 8118,20876 8117,20876 8115,20877 8113,20877 8111,20878 8110,20878 8108,20878 8106,20878 8104,20879 8102,20879 8101,20879 8099,20879 8097,20879 8095,20879 8093,20879 8092,20879 8090,20879 8088,20879 8086,20879 8084,20878 8083,20878 8081,20878 8079,20878 8077,20877 8075,20877 8074,20876 8072,20876 8070,20875 8069,20875 8067,20874 8065,20873 8064,20873 8062,20872 8060,20871 8059,20870 8057,20870 8055,20869 8054,20868 8052,20867 8051,20866 8049,20865 8048,20864 8046,20863 8045,20862 8044,20861 8042,20859 8041,20858 8040,20857 8038,20856 8036,20854 8035,20853 8034,20852 8032,20850 8031,20849 8030,20848 8029,20846 8028,20845 8027,20843 8026,20842 8025,20840 8024,20838 8023,20837 8022,20835 8022,20834 8021,20832 8020,20830 8019,20829 8019,20827 8018,20825 8018,20824 8017,20822 8016,20820 7924,20820 7925,20823 7926,20827 7927,20830 7927,20833 7928,20836 7929,20839 7930,20843 7932,20846 7933,20849 7934,20852 7935,20855 7937,20858 7938,20861 7939,20864 7941,20867 7943,20870 7944,20873 7946,20876 7948,20878 7949,20881 7951,20884 7953,20887 7955,20889 7957,20892 7959,20895 7961,20897 7963,20900 7966,20902 7968,20905 7970,20907 7973,20909 7975,20912 7977,20914 7980,20916 7982,20918 7985,20920 7988,20922 7990,20924 7993,20926 7996,20928 7998,20930 8001,20932 8004,20934 8007,20936 8010,20937 8013,20939 8016,20940 8018,20942 8021,20943 8025,20945 8028,20946 8031,20947 8034,20948 8038,20949 8041,20950 8044,20951 8047,20952 8051,20953 8054,20954 8057,20955 8060,20956 8063,20956 8067,20957 8070,20957 8073,20958 8077,20958 8080,20958 8083,20959 8086,20959 8090,20959 8093,20959 8096,20959 8100,20959 8103,20959 8106,20959 8110,20958 8113,20958 8116,20958 8120,20957 8123,20957 8126,20956 8129,20956 8133,20955 8136,20954 8139,20953 8142,20952 8145,20952 8149,20951 8152,20950 8155,20948 8158,20947 8161,20946 8164,20945 8167,20943 8170,20942 8173,20940 8176,20939 8179,20937 8182,20936 8185,20934 8188,20932 8190,20930 8193,20929 8196,20927 8199,20925 8201,20923 8204,20921 8206,20919 8209,20916 8211,20914 8214,20912 8216,20910 8219,20907 8221,20905 8223,20903 8225,20900 8227,20898 8230,20895 8232,20892 8234,20890 8236,20887 8238,20884 8239,20882 8241,20879 8243,20876 8245,20873 8246,20870 8248,20867 8249,20864 8251,20861 8252,20858 8254,20856 8255,20852 8256,20849 8257,20846 8259,20843 8260,20840 8261,20837 8262,20834 8262,20830 8263,20827 8264,20824 8265,20821 8265,20818 8266,20813 8266,20810 8267,20807 8267,20803 8268,20800 8268,20797 8268,20793 8268,20790 8268,20787 8268,20784 8268,20780 8268,20777 8268,20774 8268,20770 8267,20767 8267,20764 8267,20760 8266,20757 8265,20754 8265,20751 8264,20747 8263,20744 8263,20741 8262,20738 8261,20735 8260,20731 8259,20728 8258,20725 8256,20722 8255,20719 8254,20716 8252,20713 8251,20710 8250,20707 8248,20704 8247,20701 8245,20698 8243,20695 8241,20692 8240,20690 8238,20687 8236,20684 8234,20681 8232,20679 8230,20676 8228,20674 8226,20671 8223,20669 8221,20666 8219,20664 8216,20662 8214,20659 8212,20657 8209,20655 8207,20653 8204,20650 8201,20648 8199,20646 8196,20644 8194,20642 8191,20641 8188,20639 8185,20637 8182,20635 8179,20634 8177,20632 8174,20631 8171,20629 8168,20628 8165,20626 8161,20625 8158,20624 8155,20623 8152,20622 8149,20620 8146,20619 8143,20618 8139,20618 8136,20617 8133,20616 8130,20615 8127,20615 8123,20614 8120,20614 8117,20613 8113,20613 8110,20612 8107,20612 8104,20612 8100,20612 8097,20612 8094,20612 8090,20612 8087,20612 8084,20612 8080,20612 8077,20613 8074,20613 8070,20614 8067,20614 8064,20615 8061,20615 8057,20616 8054,20617 8051,20618 8048,20618 8044,20619 8041,20620 8038,20621 8034,20622 8031,20624 8028,20625 8028,20528 8232,20528 8232,20444 7935,20444 7935,20733 Z"/>
   </g>
  </g>
  <g class="com.sun.star.drawing.PolyPolygonShape">
   <g id="id8">
    <rect class="BoundingBox" stroke="none" fill="none" x="8379" y="20434" width="349" height="527"/>
    <path fill="rgb(255,255,255)" stroke="none" d="M 8473,20599 L 8473,20795 8473,20797 8473,20799 8473,20801 8473,20803 8473,20805 8474,20807 8474,20809 8474,20811 8475,20813 8475,20815 8476,20817 8476,20819 8478,20821 8478,20823 8479,20824 8480,20826 8480,20828 8481,20830 8482,20832 8483,20833 8484,20835 8485,20837 8486,20839 8487,20840 8488,20842 8490,20843 8491,20845 8492,20847 8493,20848 8495,20850 8496,20851 8497,20852 8499,20854 8500,20855 8502,20856 8503,20858 8505,20859 8506,20860 8508,20861 8510,20862 8511,20863 8513,20865 8515,20865 8516,20867 8518,20867 8520,20868 8522,20869 8523,20870 8525,20871 8527,20871 8529,20872 8531,20872 8533,20873 8535,20874 8537,20874 8539,20874 8541,20875 8542,20875 8544,20875 8546,20876 8548,20876 8550,20876 8552,20876 8554,20876 8556,20876 8558,20876 8560,20876 8562,20876 8564,20875 8566,20875 8568,20875 8570,20874 8572,20874 8574,20874 8576,20873 8578,20872 8579,20872 8581,20871 8583,20871 8585,20870 8587,20869 8589,20868 8590,20867 8592,20867 8594,20865 8596,20865 8597,20863 8599,20862 8601,20861 8602,20860 8604,20859 8605,20858 8607,20856 8608,20855 8610,20854 8611,20852 8613,20851 8614,20850 8615,20848 8617,20847 8618,20845 8619,20843 8620,20842 8621,20840 8622,20839 8623,20837 8624,20835 8625,20833 8626,20832 8627,20830 8628,20828 8629,20826 8629,20824 8630,20823 8631,20821 8631,20819 8632,20817 8632,20815 8633,20813 8633,20811 8634,20809 8634,20807 8634,20805 8634,20803 8635,20801 8635,20799 8635,20797 8635,20795 8635,20599 8635,20597 8635,20595 8635,20593 8634,20591 8634,20589 8634,20587 8634,20585 8633,20583 8633,20581 8632,20579 8632,20577 8631,20575 8631,20573 8630,20572 8629,20570 8629,20568 8628,20566 8627,20564 8626,20562 8625,20561 8624,20559 8623,20557 8622,20556 8621,20554 8620,20552 8619,20551 8618,20549 8617,20548 8615,20546 8614,20545 8613,20543 8611,20542 8610,20540 8608,20539 8607,20538 8605,20536 8604,20535 8602,20534 8601,20533 8599,20532 8597,20531 8596,20530 8594,20529 8592,20528 8590,20527 8589,20526 8587,20525 8585,20524 8583,20524 8581,20523 8579,20522 8578,20522 8576,20521 8574,20520 8572,20520 8570,20520 8568,20519 8566,20519 8564,20519 8562,20519 8560,20518 8558,20518 8556,20518 8554,20518 8552,20518 8550,20518 8548,20518 8546,20519 8544,20519 8542,20519 8541,20519 8539,20520 8537,20520 8535,20520 8533,20521 8531,20522 8529,20522 8527,20523 8525,20524 8523,20524 8522,20525 8520,20526 8518,20527 8516,20528 8515,20529 8513,20530 8511,20531 8510,20532 8508,20533 8506,20534 8505,20535 8503,20536 8502,20538 8500,20539 8499,20540 8497,20542 8496,20543 8495,20545 8493,20546 8492,20548 8491,20549 8490,20551 8488,20552 8487,20554 8486,20556 8485,20557 8484,20559 8483,20561 8482,20562 8481,20564 8480,20566 8480,20568 8479,20570 8478,20572 8478,20573 8476,20575 8476,20577 8475,20579 8475,20581 8474,20583 8474,20585 8474,20587 8473,20589 8473,20591 8473,20593 8473,20595 8473,20597 8473,20599 Z M 8380,20607 L 8380,20787 8380,20791 8380,20796 8381,20800 8381,20804 8381,20808 8382,20812 8382,20817 8383,20821 8384,20825 8385,20829 8386,20833 8388,20837 8389,20841 8390,20845 8392,20849 8393,20853 8395,20857 8397,20861 8399,20865 8401,20869 8403,20872 8405,20876 8407,20880 8409,20883 8412,20887 8414,20890 8417,20894 8419,20897 8422,20900 8425,20903 8428,20906 8431,20909 8434,20912 8437,20915 8440,20918 8443,20921 8447,20923 8450,20926 8454,20929 8457,20931 8461,20933 8464,20936 8468,20938 8472,20940 8475,20942 8480,20944 8484,20945 8488,20947 8492,20949 8496,20950 8500,20951 8504,20953 8508,20954 8512,20955 8516,20956 8521,20957 8525,20958 8529,20958 8533,20959 8537,20959 8541,20960 8546,20960 8550,20960 8554,20960 8559,20960 8563,20960 8567,20960 8571,20959 8576,20959 8580,20958 8584,20958 8588,20957 8592,20956 8596,20955 8600,20954 8605,20953 8609,20951 8613,20950 8617,20949 8621,20947 8624,20945 8628,20944 8632,20942 8636,20940 8640,20938 8643,20936 8647,20933 8650,20931 8654,20929 8657,20926 8661,20923 8664,20921 8667,20918 8670,20915 8674,20912 8677,20909 8680,20906 8683,20903 8685,20900 8688,20897 8691,20894 8693,20890 8696,20887 8698,20883 8701,20880 8703,20876 8705,20872 8707,20869 8709,20865 8711,20861 8713,20857 8714,20853 8716,20849 8717,20845 8719,20841 8720,20837 8721,20833 8722,20829 8723,20825 8724,20821 8725,20817 8726,20812 8726,20808 8727,20804 8727,20800 8727,20796 8727,20791 8727,20787 8727,20607 8727,20603 8727,20599 8727,20594 8727,20590 8726,20586 8726,20582 8725,20577 8724,20573 8723,20569 8722,20565 8721,20561 8720,20557 8719,20553 8717,20549 8716,20545 8714,20541 8713,20537 8711,20533 8709,20529 8707,20526 8705,20522 8703,20518 8701,20515 8698,20511 8696,20507 8693,20504 8691,20501 8688,20497 8685,20494 8683,20491 8680,20488 8677,20485 8674,20482 8670,20479 8667,20476 8664,20473 8661,20471 8657,20468 8654,20466 8650,20463 8647,20461 8643,20459 8640,20457 8636,20454 8632,20452 8628,20451 8624,20449 8621,20447 8617,20446 8613,20444 8609,20443 8605,20441 8600,20440 8596,20439 8592,20438 8588,20437 8584,20437 8580,20436 8576,20435 8571,20435 8567,20434 8563,20434 8559,20434 8554,20434 8550,20434 8546,20434 8541,20434 8537,20435 8533,20435 8529,20436 8525,20437 8521,20437 8516,20438 8512,20439 8508,20440 8504,20441 8500,20443 8496,20444 8492,20446 8488,20447 8484,20449 8480,20451 8475,20452 8472,20454 8468,20457 8464,20459 8461,20461 8457,20463 8454,20466 8450,20468 8447,20471 8443,20473 8440,20476 8437,20479 8434,20482 8431,20485 8428,20488 8425,20491 8422,20494 8419,20497 8417,20501 8414,20504 8412,20507 8409,20511 8407,20515 8405,20518 8403,20522 8401,20526 8399,20529 8397,20533 8395,20537 8393,20541 8392,20545 8390,20549 8389,20553 8388,20557 8386,20561 8385,20565 8384,20569 8383,20573 8382,20577 8382,20582 8381,20586 8381,20590 8381,20594 8380,20599 8380,20603 8380,20607 Z"/>
   </g>
  </g>
  <g class="com.sun.star.drawing.PolyPolygonShape">
   <g id="id9">
    <rect class="BoundingBox" stroke="none" fill="none" x="8854" y="20578" width="496" height="373"/>
    <path fill="rgb(255,255,255)" stroke="none" d="M 8854,20950 L 8939,20950 8939,20711 8939,20709 8939,20707 8939,20706 8939,20705 8939,20703 8939,20702 8939,20700 8940,20699 8940,20697 8940,20696 8941,20695 8941,20693 8942,20692 8942,20690 8943,20689 8943,20687 8944,20686 8944,20685 8945,20684 8946,20682 8946,20681 8947,20680 8948,20678 8949,20677 8950,20676 8950,20675 8951,20673 8952,20672 8953,20671 8954,20670 8955,20669 8956,20668 8957,20667 8958,20666 8960,20665 8961,20664 8962,20663 8963,20662 8964,20661 8965,20660 8967,20660 8968,20659 8969,20658 8970,20657 8972,20657 8973,20656 8974,20656 8976,20655 8977,20654 8978,20654 8980,20653 8981,20653 8983,20653 8984,20652 8986,20652 8987,20651 8989,20651 8990,20651 8991,20651 8993,20651 8994,20651 8996,20650 8997,20650 8999,20650 9000,20650 9002,20650 9003,20651 9005,20651 9006,20651 9008,20651 9009,20651 9010,20651 9012,20652 9013,20652 9015,20653 9016,20653 9018,20653 9019,20654 9020,20654 9022,20655 9023,20656 9024,20656 9026,20657 9027,20657 9028,20658 9030,20659 9031,20660 9032,20660 9033,20661 9035,20662 9036,20663 9037,20664 9038,20665 9039,20666 9040,20667 9041,20668 9042,20669 9043,20670 9044,20671 9045,20672 9046,20673 9047,20675 9048,20676 9049,20677 9050,20678 9050,20680 9051,20681 9052,20682 9052,20684 9053,20685 9054,20686 9054,20687 9055,20689 9055,20690 9056,20692 9056,20693 9057,20695 9057,20696 9057,20697 9058,20699 9058,20700 9058,20702 9058,20703 9059,20705 9059,20706 9059,20707 9059,20709 9059,20711 9059,20950 9144,20950 9144,20711 9144,20709 9144,20707 9144,20706 9144,20705 9144,20703 9145,20702 9145,20700 9145,20699 9146,20697 9146,20696 9146,20695 9147,20693 9147,20692 9148,20690 9148,20689 9149,20687 9149,20686 9150,20685 9150,20684 9151,20682 9152,20681 9153,20680 9153,20678 9154,20677 9155,20676 9156,20675 9157,20673 9158,20672 9159,20671 9160,20670 9161,20669 9162,20668 9163,20667 9164,20666 9165,20665 9166,20664 9167,20663 9168,20662 9170,20661 9171,20660 9172,20660 9173,20659 9175,20658 9176,20657 9177,20657 9178,20656 9180,20656 9181,20655 9183,20654 9184,20654 9185,20653 9187,20653 9188,20653 9190,20652 9191,20652 9192,20651 9194,20651 9195,20651 9197,20651 9198,20651 9200,20651 9201,20650 9203,20650 9204,20650 9206,20650 9207,20650 9209,20651 9210,20651 9212,20651 9213,20651 9214,20651 9216,20651 9217,20652 9219,20652 9220,20653 9222,20653 9223,20653 9224,20654 9226,20654 9227,20655 9229,20656 9230,20656 9231,20657 9232,20657 9234,20658 9235,20659 9236,20660 9238,20660 9239,20661 9240,20662 9241,20663 9242,20664 9243,20665 9245,20666 9246,20667 9247,20668 9248,20669 9249,20670 9250,20671 9251,20672 9252,20673 9252,20675 9253,20676 9254,20677 9255,20678 9256,20680 9256,20681 9257,20682 9258,20684 9259,20685 9259,20686 9260,20687 9260,20689 9261,20690 9261,20692 9262,20693 9262,20695 9263,20696 9263,20697 9263,20699 9263,20700 9264,20702 9264,20703 9264,20705 9264,20706 9264,20707 9264,20709 9264,20711 9264,20950 9349,20950 9349,20697 9349,20695 9348,20692 9348,20690 9348,20687 9348,20685 9348,20683 9347,20680 9347,20678 9347,20675 9346,20673 9345,20671 9345,20668 9344,20666 9344,20664 9343,20661 9342,20659 9342,20657 9341,20655 9340,20652 9339,20650 9338,20648 9337,20646 9336,20643 9335,20641 9333,20639 9332,20637 9331,20635 9330,20633 9328,20631 9327,20629 9326,20627 9324,20625 9323,20623 9321,20621 9320,20619 9318,20618 9316,20616 9315,20614 9313,20612 9311,20611 9309,20609 9308,20607 9306,20606 9304,20604 9302,20603 9300,20601 9298,20600 9296,20598 9294,20597 9292,20596 9290,20595 9288,20593 9286,20592 9284,20591 9281,20590 9279,20589 9277,20588 9275,20587 9273,20586 9270,20585 9268,20585 9266,20584 9263,20583 9261,20582 9259,20582 9256,20581 9254,20581 9252,20580 9249,20580 9247,20580 9245,20579 9242,20579 9240,20579 9237,20578 9235,20578 9232,20578 9230,20578 9228,20578 9225,20578 9223,20578 9220,20579 9218,20579 9216,20579 9213,20579 9211,20580 9208,20580 9206,20581 9204,20581 9201,20582 9199,20582 9197,20583 9194,20584 9192,20584 9190,20585 9187,20586 9185,20587 9183,20588 9181,20589 9179,20590 9176,20591 9174,20592 9172,20593 9170,20594 9168,20596 9166,20597 9164,20598 9162,20600 9160,20601 9158,20602 9156,20604 9154,20605 9152,20607 9150,20609 9149,20610 9147,20612 9145,20614 9143,20615 9142,20617 9140,20619 9139,20621 9137,20623 9136,20624 9134,20626 9133,20628 9131,20630 9130,20632 9129,20634 9127,20637 9126,20634 9124,20631 9122,20628 9119,20625 9117,20622 9114,20620 9112,20617 9110,20615 9108,20612 9105,20610 9103,20608 9100,20606 9097,20603 9095,20601 9092,20599 9089,20597 9086,20596 9083,20594 9080,20592 9077,20591 9074,20589 9071,20588 9068,20586 9065,20585 9061,20584 9058,20583 9055,20582 9051,20581 9048,20581 9045,20580 9041,20580 9038,20579 9034,20579 9031,20578 9028,20578 9024,20578 9021,20578 9018,20578 9014,20579 9011,20579 9007,20579 9004,20580 9001,20581 8997,20581 8994,20582 8991,20583 8987,20584 8984,20585 8981,20586 8978,20588 8975,20589 8972,20591 8968,20592 8965,20594 8963,20596 8960,20597 8957,20599 8954,20601 8951,20603 8949,20605 8946,20608 8943,20610 8941,20612 8939,20615 8939,20588 8854,20588 8854,20950 Z"/>
   </g>
  </g>
 </g>
</svg>