<?xml version="1.0" encoding="UTF-8"?>
<!DOCTYPE svg PUBLIC "-//W3C//DTD SVG 1.1//EN" "http://www.w3.org/Graphics/SVG/1.1/DTD/svg11.dtd">
<svg version="1.2" width="22.26mm" height="25.03mm" viewBox="13388 18499 2226 2503" preserveAspectRatio="xMidYMid" fill-rule="evenodd" stroke-width="28.222" stroke-linejoin="round" xmlns="http://www.w3.org/2000/svg" xmlns:ooo="http://xml.openoffice.org/svg/export" xmlns:xlink="http://www.w3.org/1999/xlink" xmlns:presentation="http://sun.com/xmlns/staroffice/presentation" xmlns:smil="http://www.w3.org/2001/SMIL20/" xmlns:anim="urn:oasis:names:tc:opendocument:xmlns:animation:1.0" xml:space="preserve">
 <defs class="EmbeddedBulletChars">
  <g id="bullet-char-template-57356" transform="scale(0.00048828125,-0.00048828125)">
   <path d="M 580,1141 L 1163,571 580,0 -4,571 580,1141 Z"/>
  </g>
  <g id="bullet-char-template-57354" transform="scale(0.00048828125,-0.00048828125)">
   <path d="M 8,1128 L 1137,1128 1137,0 8,0 8,1128 Z"/>
  </g>
  <g id="bullet-char-template-10146" transform="scale(0.00048828125,-0.00048828125)">
   <path d="M 174,0 L 602,739 174,1481 1456,739 174,0 Z M 1358,739 L 309,1346 659,739 1358,739 Z"/>
  </g>
  <g id="bullet-char-template-10132" transform="scale(0.00048828125,-0.00048828125)">
   <path d="M 2015,739 L 1276,0 717,0 1260,543 174,543 174,936 1260,936 717,1481 1274,1481 2015,739 Z"/>
  </g>
  <g id="bullet-char-template-10007" transform="scale(0.00048828125,-0.00048828125)">
   <path d="M 0,-2 C -7,14 -16,27 -25,37 L 356,567 C 262,823 215,952 215,954 215,979 228,992 255,992 264,992 276,990 289,987 310,991 331,999 354,1012 L 381,999 492,748 772,1049 836,1024 860,1049 C 881,1039 901,1025 922,1006 886,937 835,863 770,784 769,783 710,716 594,584 L 774,223 C 774,196 753,168 711,139 L 727,119 C 717,90 699,76 672,76 641,76 570,178 457,381 L 164,-76 C 142,-110 111,-127 72,-127 30,-127 9,-110 8,-76 1,-67 -2,-52 -2,-32 -2,-23 -1,-13 0,-2 Z"/>
  </g>
  <g id="bullet-char-template-10004" transform="scale(0.00048828125,-0.00048828125)">
   <path d="M 285,-33 C 182,-33 111,30 74,156 52,228 41,333 41,471 41,549 55,616 82,672 116,743 169,778 240,778 293,778 328,747 346,684 L 369,508 C 377,444 397,411 428,410 L 1163,1116 C 1174,1127 1196,1133 1229,1133 1271,1133 1292,1118 1292,1087 L 1292,965 C 1292,929 1282,901 1262,881 L 442,47 C 390,-6 338,-33 285,-33 Z"/>
  </g>
  <g id="bullet-char-template-9679" transform="scale(0.00048828125,-0.00048828125)">
   <path d="M 813,0 C 632,0 489,54 383,161 276,268 223,411 223,592 223,773 276,916 383,1023 489,1130 632,1184 813,1184 992,1184 1136,1130 1245,1023 1353,916 1407,772 1407,592 1407,412 1353,268 1245,161 1136,54 992,0 813,0 Z"/>
  </g>
  <g id="bullet-char-template-8226" transform="scale(0.00048828125,-0.00048828125)">
   <path d="M 346,457 C 273,457 209,483 155,535 101,586 74,649 74,723 74,796 101,859 155,911 209,963 273,989 346,989 419,989 480,963 531,910 582,859 608,796 608,723 608,648 583,586 532,535 482,483 420,457 346,457 Z"/>
  </g>
  <g id="bullet-char-template-8211" transform="scale(0.00048828125,-0.00048828125)">
   <path d="M -4,459 L 1135,459 1135,606 -4,606 -4,459 Z"/>
  </g>
  <g id="bullet-char-template-61548" transform="scale(0.00048828125,-0.00048828125)">
   <path d="M 173,740 C 173,903 231,1043 346,1159 462,1274 601,1332 765,1332 928,1332 1067,1274 1183,1159 1299,1043 1357,903 1357,740 1357,577 1299,437 1183,322 1067,206 928,148 765,148 601,148 462,206 346,322 231,437 173,577 173,740 Z"/>
  </g>
 </defs>
 <g class="Page">
  <g class="com.sun.star.drawing.PolyPolygonShape">
   <g id="id3">
    <rect class="BoundingBox" stroke="none" fill="none" x="13455" y="18499" width="2091" height="1836"/>
    <path fill="rgb(255,0,0)" stroke="none" d="M 14579,20288 L 15533,18636 15535,18633 15536,18631 15537,18628 15538,18625 15539,18622 15541,18620 15541,18617 15542,18614 15543,18611 15544,18608 15544,18605 15544,18602 15545,18599 15545,18596 15545,18593 15545,18590 15545,18587 15545,18584 15545,18582 15544,18579 15544,18576 15544,18573 15543,18570 15542,18567 15541,18564 15541,18561 15539,18558 15538,18556 15537,18553 15536,18550 15535,18548 15533,18545 15532,18542 15530,18540 15528,18538 15526,18535 15525,18533 15523,18531 15521,18528 15519,18526 15517,18524 15514,18522 15512,18520 15510,18518 15507,18516 15505,18515 15502,18513 15500,18512 15497,18510 15495,18509 15492,18508 15489,18506 15486,18505 15484,18504 15481,18503 15478,18503 15475,18502 15472,18501 15469,18501 15466,18500 15463,18500 15460,18500 15457,18499 15454,18499 13546,18499 13543,18499 13540,18500 13537,18500 13534,18500 13531,18501 13528,18501 13525,18502 13522,18503 13519,18503 13516,18504 13514,18505 13511,18506 13508,18508 13505,18509 13503,18510 13500,18512 13498,18513 13495,18515 13493,18516 13490,18518 13488,18520 13486,18522 13483,18524 13481,18526 13479,18528 13477,18531 13475,18533 13474,18535 13472,18538 13470,18540 13468,18542 13467,18545 13465,18548 13464,18550 13463,18553 13462,18556 13461,18558 13459,18561 13459,18564 13458,18567 13457,18570 13456,18573 13456,18576 13456,18579 13455,18582 13455,18584 13455,18587 13455,18590 13455,18593 13455,18596 13455,18599 13456,18602 13456,18605 13456,18608 13457,18611 13458,18614 13459,18617 13459,18620 13461,18622 13462,18625 13463,18628 13464,18631 13465,18633 13467,18636 14422,20288 14423,20291 14425,20294 14427,20296 14428,20298 14430,20301 14432,20303 14434,20305 14436,20307 14438,20309 14440,20311 14443,20313 14445,20315 14448,20317 14450,20319 14453,20320 14455,20322 14458,20323 14460,20324 14463,20326 14466,20327 14468,20328 14471,20329 14474,20330 14477,20331 14480,20332 14483,20332 14486,20333 14489,20333 14492,20333 14495,20334 14498,20334 14500,20334 14504,20334 14506,20334 14509,20333 14512,20333 14515,20333 14518,20332 14521,20332 14524,20331 14527,20330 14530,20329 14533,20328 14535,20327 14538,20326 14541,20324 14543,20323 14546,20322 14548,20320 14551,20319 14554,20317 14556,20315 14558,20313 14561,20311 14563,20309 14565,20307 14567,20305 14569,20303 14571,20301 14573,20298 14574,20296 14576,20294 14578,20291 14579,20288 Z"/>
   </g>
  </g>
  <g class="com.sun.star.drawing.PolyPolygonShape">
   <g id="id4">
    <rect class="BoundingBox" stroke="none" fill="none" x="13773" y="18722" width="1455" height="1259"/>
    <path fill="rgb(255,255,255)" stroke="none" d="M 13773,18722 L 14500,19980 15227,18722 13773,18722 Z"/>
   </g>
  </g>
  <g class="com.sun.star.drawing.PolyPolygonShape">
   <g id="id5">
    <rect class="BoundingBox" stroke="none" fill="none" x="13388" y="20394" width="2226" height="608"/>
    <path fill="rgb(0,0,255)" stroke="none" d="M 13520,21001 L 15480,21001 15484,21001 15487,21000 15490,21000 15493,21000 15497,21000 15500,20999 15503,20999 15506,20998 15509,20997 15512,20997 15515,20996 15519,20995 15522,20994 15525,20993 15528,20992 15531,20991 15534,20989 15537,20988 15540,20987 15542,20985 15545,20983 15548,20982 15551,20980 15553,20978 15556,20977 15559,20975 15561,20973 15564,20971 15566,20969 15569,20967 15571,20964 15573,20962 15576,20960 15578,20958 15580,20955 15582,20953 15584,20950 15586,20947 15588,20945 15590,20942 15592,20940 15593,20937 15595,20934 15596,20931 15598,20928 15599,20925 15601,20923 15602,20919 15603,20917 15604,20914 15605,20910 15606,20907 15607,20904 15608,20901 15609,20898 15609,20895 15610,20892 15610,20889 15611,20885 15611,20882 15612,20879 15612,20876 15612,20871 15612,20868 15612,20525 15612,20522 15612,20518 15612,20515 15611,20512 15611,20509 15610,20506 15610,20502 15609,20499 15609,20496 15608,20493 15607,20490 15606,20487 15605,20484 15604,20481 15603,20478 15602,20475 15601,20472 15599,20469 15598,20466 15596,20463 15595,20460 15593,20457 15592,20455 15590,20452 15588,20449 15586,20447 15584,20444 15582,20442 15580,20439 15578,20437 15576,20434 15573,20432 15571,20430 15569,20428 15566,20426 15564,20423 15561,20421 15559,20419 15556,20418 15553,20416 15551,20414 15548,20412 15545,20411 15542,20409 15540,20408 15537,20406 15534,20405 15531,20403 15528,20402 15525,20401 15522,20400 15519,20399 15515,20398 15512,20397 15509,20397 15506,20396 15503,20395 15500,20395 15497,20395 15493,20394 15490,20394 15487,20394 15484,20394 15480,20394 13520,20394 13516,20394 13513,20394 13510,20394 13507,20394 13503,20395 13500,20395 13497,20395 13494,20396 13491,20397 13488,20397 13485,20398 13481,20399 13478,20400 13475,20401 13472,20402 13469,20403 13466,20405 13463,20406 13460,20408 13458,20409 13455,20411 13452,20412 13449,20414 13447,20416 13444,20418 13441,20419 13439,20421 13436,20423 13434,20426 13431,20428 13429,20430 13427,20432 13424,20434 13422,20437 13420,20439 13418,20442 13416,20444 13414,20447 13412,20449 13410,20452 13408,20455 13407,20457 13405,20460 13404,20463 13402,20466 13401,20469 13399,20472 13398,20475 13397,20478 13396,20481 13395,20484 13394,20487 13393,20490 13392,20493 13391,20496 13391,20499 13390,20502 13390,20506 13389,20509 13389,20512 13388,20515 13388,20518 13388,20522 13388,20525 13388,20868 13388,20871 13388,20876 13388,20879 13389,20882 13389,20885 13390,20889 13390,20892 13391,20895 13391,20898 13392,20901 13393,20904 13394,20907 13395,20910 13396,20914 13397,20917 13398,20919 13399,20923 13401,20925 13402,20928 13404,20931 13405,20934 13407,20937 13408,20940 13410,20942 13412,20945 13414,20947 13416,20950 13418,20953 13420,20955 13422,20958 13424,20960 13427,20962 13429,20964 13431,20967 13434,20969 13436,20971 13439,20973 13441,20975 13444,20977 13447,20978 13449,20980 13452,20982 13455,20983 13458,20985 13460,20987 13463,20988 13466,20989 13469,20991 13472,20992 13475,20993 13478,20994 13481,20995 13485,20996 13488,20997 13491,20997 13494,20998 13497,20999 13500,20999 13503,21000 13507,21000 13510,21000 13513,21000 13516,21001 13520,21001 Z"/>
   </g>
  </g>
  <g class="com.sun.star.drawing.PolyPolygonShape">
   <g id="id6">
    <rect class="BoundingBox" stroke="none" fill="none" x="13512" y="20509" width="190" height="377"/>
    <path fill="rgb(255,255,255)" stroke="none" d="M 13512,20776 L 13512,20791 13512,20794 13513,20797 13513,20800 13513,20803 13514,20805 13514,20808 13515,20811 13515,20814 13516,20817 13517,20819 13518,20822 13519,20825 13520,20827 13521,20830 13522,20833 13523,20835 13525,20838 13526,20840 13528,20843 13530,20845 13531,20847 13533,20850 13535,20852 13537,20854 13539,20856 13541,20858 13543,20860 13545,20862 13547,20864 13549,20865 13552,20867 13554,20869 13556,20870 13560,20872 13563,20873 13565,20875 13568,20876 13570,20877 13573,20878 13575,20879 13578,20880 13581,20881 13584,20882 13586,20882 13589,20883 13592,20883 13595,20884 13598,20884 13601,20884 13604,20885 13606,20885 13609,20885 13612,20884 13615,20884 13618,20884 13621,20884 13624,20883 13626,20883 13629,20882 13632,20881 13635,20880 13637,20879 13640,20879 13643,20878 13645,20876 13648,20875 13651,20874 13653,20872 13656,20871 13658,20869 13660,20868 13663,20866 13665,20864 13667,20863 13669,20861 13672,20859 13674,20857 13676,20855 13677,20853 13679,20850 13681,20848 13683,20846 13685,20843 13686,20841 13688,20839 13689,20836 13690,20834 13692,20831 13693,20829 13694,20826 13695,20823 13696,20820 13697,20818 13697,20815 13698,20812 13699,20809 13699,20807 13700,20804 13700,20801 13700,20798 13700,20795 13701,20792 13701,20789 13700,20787 13700,20784 13700,20781 13700,20778 13699,20775 13699,20772 13698,20769 13697,20767 13697,20764 13696,20761 13695,20758 13694,20756 13692,20753 13691,20751 13690,20748 13689,20745 13687,20743 13686,20741 13684,20738 13683,20736 13681,20734 13679,20731 13677,20729 13675,20727 13673,20725 13581,20624 13581,20623 13580,20622 13579,20621 13578,20620 13578,20619 13577,20618 13576,20618 13576,20617 13575,20616 13575,20615 13574,20614 13574,20613 13573,20612 13573,20611 13573,20609 13572,20608 13572,20607 13572,20606 13571,20605 13571,20604 13571,20603 13571,20602 13571,20601 13571,20600 13571,20599 13571,20597 13571,20596 13571,20595 13571,20594 13571,20593 13571,20592 13571,20591 13572,20590 13572,20589 13572,20588 13572,20586 13573,20585 13573,20584 13574,20583 13574,20582 13575,20581 13575,20580 13576,20579 13576,20578 13577,20577 13578,20577 13578,20576 13579,20575 13580,20574 13580,20573 13581,20572 13582,20571 13583,20571 13584,20570 13584,20569 13585,20569 13586,20568 13587,20567 13588,20567 13589,20566 13590,20566 13591,20565 13592,20565 13593,20564 13594,20564 13595,20564 13596,20563 13597,20563 13598,20563 13599,20562 13601,20562 13602,20562 13603,20562 13604,20562 13605,20562 13606,20562 13607,20562 13608,20562 13610,20562 13611,20562 13612,20562 13613,20562 13614,20562 13615,20562 13616,20563 13617,20563 13618,20563 13619,20564 13620,20564 13621,20564 13622,20565 13623,20565 13624,20566 13625,20566 13626,20567 13627,20568 13628,20568 13629,20569 13630,20570 13631,20570 13632,20571 13632,20572 13633,20573 13634,20573 13635,20574 13635,20575 13636,20576 13637,20577 13637,20578 13638,20579 13639,20580 13639,20581 13640,20582 13640,20583 13641,20584 13641,20585 13641,20586 13642,20587 13642,20588 13642,20589 13643,20590 13643,20591 13643,20592 13643,20593 13643,20595 13643,20596 13643,20597 13643,20598 13695,20598 13695,20595 13695,20592 13695,20590 13695,20587 13694,20584 13694,20582 13693,20579 13693,20576 13692,20574 13691,20571 13690,20569 13689,20566 13688,20564 13687,20561 13686,20559 13685,20556 13684,20554 13682,20552 13681,20549 13679,20547 13678,20545 13676,20543 13674,20541 13672,20539 13671,20537 13669,20535 13667,20533 13665,20531 13663,20529 13661,20528 13658,20526 13656,20524 13654,20523 13652,20522 13649,20520 13647,20519 13644,20518 13642,20517 13639,20516 13637,20515 13634,20514 13632,20513 13629,20512 13626,20512 13624,20511 13621,20511 13618,20510 13616,20510 13613,20510 13610,20510 13608,20510 13605,20510 13602,20510 13599,20510 13597,20510 13594,20511 13591,20511 13589,20511 13586,20512 13583,20513 13581,20514 13578,20514 13576,20515 13573,20516 13571,20517 13568,20518 13566,20520 13564,20521 13561,20522 13559,20524 13556,20525 13553,20527 13551,20529 13549,20530 13547,20532 13545,20534 13543,20536 13541,20538 13539,20540 13538,20542 13536,20544 13534,20546 13533,20548 13531,20551 13530,20553 13529,20555 13527,20558 13526,20560 13525,20563 13524,20565 13523,20568 13522,20570 13521,20573 13521,20575 13520,20578 13519,20581 13519,20583 13518,20586 13518,20589 13518,20591 13518,20594 13518,20597 13518,20600 13518,20602 13518,20605 13518,20608 13519,20610 13519,20613 13519,20616 13520,20618 13521,20621 13521,20624 13522,20626 13523,20629 13524,20631 13525,20634 13526,20636 13528,20639 13529,20641 13530,20643 13532,20646 13533,20648 13535,20650 13536,20652 13538,20654 13540,20656 13542,20658 13544,20660 13636,20762 13637,20763 13638,20764 13639,20765 13640,20765 13641,20767 13641,20768 13642,20769 13643,20770 13643,20771 13644,20772 13644,20773 13645,20774 13646,20775 13646,20777 13646,20778 13647,20779 13647,20780 13647,20781 13648,20783 13648,20784 13648,20785 13648,20787 13648,20788 13648,20789 13649,20790 13649,20792 13648,20793 13648,20794 13648,20795 13648,20797 13648,20798 13648,20799 13648,20800 13647,20802 13647,20803 13647,20804 13646,20805 13646,20807 13645,20808 13645,20809 13644,20810 13643,20811 13643,20812 13642,20813 13641,20814 13641,20815 13640,20816 13639,20817 13638,20818 13637,20819 13637,20820 13636,20821 13635,20822 13634,20823 13633,20824 13632,20824 13631,20825 13630,20826 13629,20826 13628,20827 13626,20828 13625,20828 13624,20829 13623,20829 13622,20830 13621,20830 13619,20831 13618,20831 13617,20831 13616,20832 13614,20832 13613,20832 13612,20832 13611,20832 13609,20833 13608,20833 13607,20833 13606,20833 13604,20832 13603,20832 13602,20832 13600,20832 13599,20832 13598,20832 13597,20831 13595,20831 13594,20831 13593,20830 13592,20830 13591,20829 13590,20829 13588,20828 13587,20828 13586,20827 13585,20826 13584,20826 13583,20825 13582,20824 13581,20823 13580,20823 13579,20822 13578,20821 13577,20820 13576,20819 13575,20818 13575,20817 13574,20816 13573,20815 13572,20814 13572,20813 13571,20812 13570,20811 13570,20810 13569,20808 13569,20807 13568,20806 13568,20805 13567,20804 13567,20802 13567,20801 13566,20800 13566,20799 13566,20797 13566,20796 13566,20795 13566,20794 13566,20792 13565,20791 13565,20776 13512,20776 Z"/>
   </g>
  </g>
  <g class="com.sun.star.drawing.PolyPolygonShape">
   <g id="id7">
    <rect class="BoundingBox" stroke="none" fill="none" x="13732" y="20515" width="189" height="366"/>
    <path fill="rgb(255,255,255)" stroke="none" d="M 13801,20879 L 13801,20562 13732,20562 13732,20515 13920,20515 13920,20562 13853,20562 13853,20879 13801,20879 Z"/>
   </g>
  </g>
  <g class="com.sun.star.drawing.PolyPolygonShape">
   <g id="id8">
    <rect class="BoundingBox" stroke="none" fill="none" x="13952" y="20509" width="189" height="377"/>
    <path fill="rgb(255,255,255)" stroke="none" d="M 14004,20796 L 14004,20598 14004,20596 14004,20594 14005,20592 14005,20590 14005,20588 14006,20586 14007,20584 14007,20582 14008,20580 14009,20578 14010,20577 14011,20575 14012,20573 14013,20571 14015,20570 14016,20568 14018,20567 14019,20566 14021,20564 14023,20563 14024,20562 14026,20561 14028,20560 14030,20559 14032,20559 14034,20558 14036,20558 14038,20557 14039,20557 14042,20556 14043,20556 14046,20556 14048,20556 14050,20556 14052,20557 14054,20557 14056,20558 14058,20558 14060,20559 14062,20559 14063,20560 14065,20561 14067,20562 14069,20563 14070,20564 14072,20566 14074,20567 14075,20568 14076,20570 14078,20571 14079,20573 14080,20575 14081,20577 14082,20578 14083,20580 14084,20582 14085,20584 14085,20586 14086,20588 14086,20590 14087,20592 14087,20594 14087,20596 14087,20598 14087,20796 14087,20798 14087,20800 14087,20802 14086,20804 14086,20806 14085,20808 14085,20810 14084,20812 14083,20814 14082,20816 14081,20818 14080,20819 14079,20821 14078,20823 14076,20824 14075,20826 14074,20827 14072,20828 14070,20830 14069,20831 14067,20832 14065,20833 14063,20834 14062,20835 14060,20835 14058,20836 14056,20837 14054,20837 14052,20837 14050,20838 14048,20838 14046,20838 14043,20838 14042,20838 14039,20837 14038,20837 14036,20837 14034,20836 14032,20835 14030,20835 14028,20834 14026,20833 14024,20832 14023,20831 14021,20830 14019,20828 14018,20827 14016,20826 14015,20824 14013,20823 14012,20821 14011,20819 14010,20818 14009,20816 14008,20814 14007,20812 14007,20810 14006,20808 14005,20806 14005,20804 14005,20802 14004,20800 14004,20798 14004,20796 Z M 13952,20791 L 13952,20603 13952,20601 13952,20599 13952,20596 13952,20594 13953,20592 13953,20589 13953,20587 13954,20585 13954,20583 13955,20580 13956,20578 13956,20576 13957,20574 13958,20572 13958,20569 13959,20567 13960,20565 13961,20563 13962,20561 13963,20559 13964,20557 13965,20555 13967,20553 13968,20551 13969,20549 13970,20547 13972,20546 13973,20544 13975,20542 13976,20540 13978,20539 13979,20537 13981,20535 13983,20534 13985,20532 13986,20531 13988,20529 13990,20528 13992,20527 13994,20525 13996,20524 13998,20523 13999,20522 14001,20521 14003,20520 14006,20518 14008,20518 14010,20517 14012,20516 14014,20515 14016,20514 14018,20514 14021,20513 14023,20512 14025,20512 14027,20511 14030,20511 14032,20511 14034,20510 14036,20510 14039,20510 14041,20510 14043,20510 14046,20509 14048,20510 14050,20510 14052,20510 14055,20510 14057,20510 14059,20511 14062,20511 14064,20511 14066,20512 14068,20512 14071,20513 14073,20514 14075,20514 14077,20515 14079,20516 14081,20517 14083,20518 14086,20518 14088,20520 14090,20521 14092,20522 14094,20523 14096,20524 14098,20525 14099,20527 14101,20528 14103,20529 14105,20531 14107,20532 14108,20534 14110,20535 14112,20537 14113,20539 14115,20540 14117,20542 14118,20544 14120,20546 14122,20547 14123,20549 14124,20551 14126,20553 14127,20555 14128,20557 14129,20559 14130,20561 14131,20563 14132,20565 14133,20567 14134,20569 14135,20572 14135,20574 14136,20576 14137,20578 14137,20580 14138,20583 14138,20585 14139,20587 14139,20589 14139,20592 14140,20594 14140,20596 14140,20599 14140,20601 14140,20603 14140,20791 14140,20793 14140,20796 14140,20798 14140,20800 14139,20803 14139,20805 14139,20807 14138,20809 14138,20812 14137,20814 14137,20816 14136,20818 14135,20820 14135,20823 14134,20825 14133,20827 14132,20829 14131,20831 14130,20833 14129,20835 14128,20837 14127,20839 14126,20841 14124,20843 14123,20845 14122,20847 14120,20849 14118,20850 14117,20852 14115,20854 14113,20856 14112,20857 14110,20859 14108,20860 14107,20862 14105,20863 14103,20865 14101,20866 14099,20868 14098,20869 14096,20870 14094,20871 14092,20872 14090,20874 14088,20875 14086,20876 14083,20877 14081,20878 14079,20878 14077,20879 14075,20880 14073,20881 14071,20881 14068,20882 14066,20882 14064,20883 14062,20883 14059,20884 14057,20884 14055,20884 14052,20884 14050,20885 14048,20885 14046,20885 14043,20885 14041,20885 14039,20884 14036,20884 14034,20884 14032,20884 14030,20883 14027,20883 14025,20882 14023,20882 14021,20881 14018,20881 14016,20880 14014,20879 14012,20878 14010,20878 14008,20877 14006,20876 14003,20875 14001,20874 13999,20872 13998,20871 13996,20870 13994,20869 13992,20868 13990,20866 13988,20865 13986,20863 13985,20862 13983,20860 13981,20859 13979,20857 13978,20856 13976,20854 13975,20852 13973,20850 13972,20849 13970,20847 13969,20845 13968,20843 13967,20841 13965,20839 13964,20837 13963,20835 13962,20833 13961,20831 13960,20829 13959,20827 13958,20825 13958,20823 13957,20820 13956,20818 13956,20816 13955,20814 13954,20812 13954,20809 13953,20807 13953,20805 13953,20803 13952,20800 13952,20798 13952,20796 13952,20793 13952,20791 Z"/>
   </g>
  </g>
  <g class="com.sun.star.drawing.PolyPolygonShape">
   <g id="id9">
    <rect class="BoundingBox" stroke="none" fill="none" x="14205" y="20515" width="189" height="366"/>
    <path fill="rgb(255,255,255)" stroke="none" d="M 14257,20562 L 14303,20562 14305,20562 14308,20562 14310,20562 14311,20562 14313,20563 14315,20563 14317,20564 14318,20564 14320,20565 14322,20566 14323,20567 14325,20568 14326,20569 14327,20570 14329,20571 14330,20572 14331,20573 14332,20575 14334,20576 14335,20578 14336,20579 14336,20581 14337,20582 14338,20584 14339,20586 14339,20587 14340,20589 14340,20591 14340,20593 14340,20594 14341,20596 14341,20598 14341,20634 14341,20636 14340,20638 14340,20640 14340,20641 14340,20643 14339,20645 14339,20646 14338,20648 14337,20650 14336,20651 14336,20653 14335,20654 14334,20656 14332,20657 14331,20659 14330,20660 14329,20661 14327,20662 14326,20663 14325,20664 14323,20665 14322,20666 14320,20667 14318,20668 14317,20668 14315,20669 14313,20669 14311,20670 14310,20670 14308,20670 14305,20671 14303,20671 14257,20671 14257,20562 Z M 14205,20879 L 14205,20515 14309,20515 14312,20515 14314,20515 14316,20515 14318,20515 14320,20515 14322,20516 14324,20516 14326,20516 14328,20517 14330,20517 14332,20518 14334,20518 14336,20519 14338,20520 14339,20520 14341,20521 14343,20522 14345,20523 14347,20524 14349,20525 14351,20526 14352,20527 14354,20528 14356,20529 14357,20530 14359,20531 14361,20532 14362,20534 14364,20535 14365,20536 14367,20538 14368,20539 14370,20541 14371,20542 14372,20544 14374,20545 14375,20547 14376,20548 14377,20550 14379,20552 14380,20553 14381,20555 14382,20557 14383,20559 14384,20560 14385,20562 14386,20564 14386,20566 14387,20568 14388,20570 14388,20572 14389,20574 14390,20576 14390,20578 14391,20580 14391,20582 14391,20584 14392,20586 14392,20588 14392,20590 14392,20592 14393,20594 14393,20596 14393,20598 14393,20634 14393,20636 14393,20638 14392,20640 14392,20642 14392,20644 14392,20646 14391,20648 14391,20650 14391,20652 14390,20654 14390,20656 14389,20658 14388,20660 14388,20662 14387,20664 14386,20666 14386,20668 14385,20670 14384,20672 14383,20673 14382,20675 14381,20677 14380,20679 14379,20680 14377,20682 14376,20684 14375,20685 14374,20687 14372,20689 14371,20690 14370,20692 14368,20693 14367,20694 14365,20696 14364,20697 14362,20698 14361,20700 14359,20701 14357,20702 14356,20703 14354,20704 14352,20706 14351,20707 14349,20708 14347,20708 14345,20709 14343,20710 14341,20711 14339,20712 14338,20713 14336,20713 14334,20714 14332,20714 14330,20715 14328,20715 14326,20716 14324,20716 14322,20716 14320,20717 14318,20717 14316,20717 14314,20717 14312,20717 14309,20717 14257,20717 14257,20879 14205,20879 Z"/>
   </g>
  </g>
  <g class="com.sun.star.drawing.PolyPolygonShape">
   <g id="id10">
    <rect class="BoundingBox" stroke="none" fill="none" x="14581" y="20515" width="85" height="366"/>
    <path fill="rgb(255,255,255)" stroke="none" d="M 14611,20879 L 14611,20600 14581,20600 14581,20569 14611,20515 14664,20515 14664,20879 14611,20879 Z"/>
   </g>
  </g>
  <g class="com.sun.star.drawing.PolyPolygonShape">
   <g id="id11">
    <rect class="BoundingBox" stroke="none" fill="none" x="14728" y="20515" width="189" height="372"/>
    <path fill="rgb(255,255,255)" stroke="none" d="M 14728,20775 L 14728,20790 14728,20793 14728,20796 14728,20798 14729,20800 14729,20803 14729,20805 14730,20807 14730,20809 14730,20812 14731,20814 14731,20816 14732,20818 14733,20820 14734,20823 14734,20825 14735,20827 14736,20829 14737,20831 14738,20833 14739,20835 14740,20837 14741,20839 14743,20841 14744,20843 14745,20845 14747,20847 14748,20849 14749,20850 14751,20852 14752,20854 14754,20856 14755,20857 14757,20859 14759,20860 14761,20862 14762,20863 14764,20865 14766,20866 14768,20868 14770,20869 14772,20870 14774,20871 14776,20872 14778,20874 14780,20875 14782,20876 14784,20877 14786,20878 14788,20878 14790,20879 14792,20880 14795,20881 14797,20881 14799,20882 14801,20882 14803,20883 14806,20883 14808,20884 14810,20884 14813,20884 14815,20884 14817,20885 14819,20885 14822,20885 14824,20885 14826,20885 14829,20884 14831,20884 14833,20884 14835,20884 14838,20883 14840,20883 14842,20882 14844,20882 14847,20881 14849,20881 14851,20880 14853,20879 14855,20878 14857,20878 14860,20877 14862,20876 14864,20875 14866,20874 14869,20872 14871,20871 14873,20870 14875,20869 14876,20868 14878,20866 14880,20865 14882,20863 14884,20862 14886,20860 14887,20859 14889,20857 14890,20856 14892,20854 14893,20852 14895,20850 14896,20849 14898,20847 14899,20845 14900,20843 14902,20841 14903,20839 14904,20837 14905,20835 14906,20833 14907,20831 14908,20829 14909,20827 14910,20825 14911,20823 14911,20820 14912,20818 14913,20816 14913,20814 14914,20812 14914,20809 14915,20807 14915,20805 14915,20803 14916,20800 14916,20798 14916,20796 14916,20793 14916,20790 14916,20723 14916,20720 14916,20717 14916,20714 14915,20711 14915,20709 14915,20706 14914,20703 14913,20700 14913,20698 14912,20695 14911,20692 14910,20690 14909,20687 14908,20685 14906,20682 14905,20680 14903,20677 14902,20675 14900,20673 14899,20671 14897,20668 14895,20666 14893,20664 14891,20662 14889,20660 14887,20658 14885,20656 14883,20655 14881,20653 14879,20651 14876,20650 14874,20648 14871,20647 14869,20646 14865,20644 14863,20643 14860,20642 14858,20641 14855,20640 14852,20640 14850,20639 14847,20638 14844,20638 14841,20637 14839,20637 14836,20637 14833,20636 14830,20636 14828,20636 14825,20636 14822,20637 14819,20637 14816,20637 14814,20638 14811,20638 14808,20639 14805,20640 14803,20640 14800,20641 14797,20642 14795,20643 14792,20644 14790,20646 14787,20647 14787,20562 14909,20562 14909,20515 14735,20515 14735,20697 14789,20697 14790,20695 14791,20694 14792,20693 14794,20692 14795,20691 14796,20690 14797,20689 14799,20688 14800,20687 14801,20686 14803,20686 14804,20685 14806,20684 14807,20684 14809,20683 14810,20683 14812,20682 14813,20682 14815,20682 14817,20681 14818,20681 14820,20681 14821,20681 14823,20681 14824,20681 14826,20681 14828,20681 14829,20682 14831,20682 14832,20682 14834,20683 14835,20683 14837,20684 14838,20684 14840,20685 14841,20686 14843,20687 14844,20687 14845,20688 14847,20689 14848,20690 14849,20691 14850,20693 14852,20694 14853,20695 14854,20696 14855,20697 14856,20698 14856,20700 14857,20701 14858,20703 14859,20704 14860,20706 14860,20707 14861,20708 14861,20710 14862,20711 14862,20713 14863,20715 14863,20716 14863,20718 14863,20719 14863,20721 14863,20723 14863,20796 14863,20798 14863,20800 14863,20802 14862,20804 14862,20806 14861,20808 14861,20810 14860,20812 14859,20814 14858,20816 14857,20818 14856,20819 14855,20821 14854,20823 14852,20824 14851,20826 14850,20827 14848,20828 14846,20830 14845,20831 14843,20832 14841,20833 14839,20834 14838,20835 14836,20835 14834,20836 14832,20837 14830,20837 14828,20837 14826,20838 14824,20838 14822,20838 14820,20838 14818,20838 14816,20837 14813,20837 14811,20837 14810,20836 14808,20835 14806,20835 14804,20834 14802,20833 14800,20832 14799,20831 14797,20830 14795,20828 14794,20827 14792,20826 14791,20824 14790,20823 14788,20821 14787,20819 14786,20818 14785,20816 14784,20814 14783,20812 14782,20810 14782,20808 14781,20806 14781,20804 14781,20802 14780,20800 14780,20798 14780,20796 14780,20775 14728,20775 Z"/>
   </g>
  </g>
  <g class="com.sun.star.drawing.PolyPolygonShape">
   <g id="id12">
    <rect class="BoundingBox" stroke="none" fill="none" x="14975" y="20509" width="189" height="377"/>
    <path fill="rgb(255,255,255)" stroke="none" d="M 15027,20796 L 15027,20598 15027,20596 15027,20594 15027,20592 15028,20590 15028,20588 15029,20586 15029,20584 15030,20582 15031,20580 15032,20578 15033,20577 15034,20575 15035,20573 15036,20571 15038,20570 15039,20568 15040,20567 15042,20566 15044,20564 15045,20563 15047,20562 15049,20561 15051,20560 15052,20559 15055,20559 15057,20558 15059,20558 15061,20557 15063,20557 15065,20556 15067,20556 15069,20556 15071,20556 15074,20556 15076,20557 15077,20557 15079,20558 15081,20558 15083,20559 15085,20559 15087,20560 15089,20561 15091,20562 15092,20563 15094,20564 15096,20566 15097,20567 15099,20568 15100,20570 15101,20571 15103,20573 15104,20575 15105,20577 15106,20578 15107,20580 15108,20582 15108,20584 15109,20586 15110,20588 15110,20590 15110,20592 15111,20594 15111,20596 15111,20598 15111,20796 15111,20798 15111,20800 15110,20802 15110,20804 15110,20806 15109,20808 15108,20810 15108,20812 15107,20814 15106,20816 15105,20818 15104,20819 15103,20821 15101,20823 15100,20824 15099,20826 15097,20827 15096,20828 15094,20830 15092,20831 15091,20832 15089,20833 15087,20834 15085,20835 15083,20835 15081,20836 15079,20837 15077,20837 15076,20837 15074,20838 15071,20838 15069,20838 15067,20838 15065,20838 15063,20837 15061,20837 15059,20837 15057,20836 15055,20835 15052,20835 15051,20834 15049,20833 15047,20832 15045,20831 15044,20830 15042,20828 15040,20827 15039,20826 15038,20824 15036,20823 15035,20821 15034,20819 15033,20818 15032,20816 15031,20814 15030,20812 15029,20810 15029,20808 15028,20806 15028,20804 15027,20802 15027,20800 15027,20798 15027,20796 Z M 14975,20791 L 14975,20603 14975,20601 14975,20599 14975,20596 14975,20594 14976,20592 14976,20589 14976,20587 14977,20585 14977,20583 14978,20580 14978,20578 14979,20576 14980,20574 14980,20572 14981,20569 14982,20567 14983,20565 14984,20563 14985,20561 14986,20559 14987,20557 14988,20555 14989,20553 14991,20551 14992,20549 14993,20547 14995,20546 14996,20544 14998,20542 14999,20540 15001,20539 15002,20537 15004,20535 15006,20534 15007,20532 15009,20531 15011,20529 15013,20528 15014,20527 15016,20525 15018,20524 15020,20523 15022,20522 15024,20521 15026,20520 15028,20518 15031,20518 15033,20517 15035,20516 15037,20515 15039,20514 15041,20514 15044,20513 15046,20512 15048,20512 15050,20511 15052,20511 15056,20511 15058,20510 15060,20510 15062,20510 15065,20510 15067,20510 15069,20509 15072,20510 15074,20510 15076,20510 15079,20510 15081,20510 15083,20511 15085,20511 15088,20511 15090,20512 15092,20512 15094,20513 15097,20514 15099,20514 15101,20515 15103,20516 15105,20517 15107,20518 15109,20518 15111,20520 15114,20521 15116,20522 15117,20523 15119,20524 15121,20525 15123,20527 15125,20528 15127,20529 15129,20531 15130,20532 15132,20534 15134,20535 15136,20537 15137,20539 15139,20540 15140,20542 15142,20544 15143,20546 15145,20547 15146,20549 15147,20551 15148,20553 15150,20555 15151,20557 15152,20559 15153,20561 15154,20563 15155,20565 15156,20567 15157,20569 15157,20572 15158,20574 15159,20576 15159,20578 15160,20580 15161,20583 15161,20585 15161,20587 15162,20589 15162,20592 15162,20594 15163,20596 15163,20599 15163,20601 15163,20603 15163,20791 15163,20793 15163,20796 15163,20798 15162,20800 15162,20803 15162,20805 15161,20807 15161,20809 15161,20812 15160,20814 15159,20816 15159,20818 15158,20820 15157,20823 15157,20825 15156,20827 15155,20829 15154,20831 15153,20833 15152,20835 15151,20837 15150,20839 15148,20841 15147,20843 15146,20845 15145,20847 15143,20849 15142,20850 15140,20852 15139,20854 15137,20856 15136,20857 15134,20859 15132,20860 15130,20862 15129,20863 15127,20865 15125,20866 15123,20868 15121,20869 15119,20870 15117,20871 15116,20872 15114,20874 15111,20875 15109,20876 15107,20877 15105,20878 15103,20878 15101,20879 15099,20880 15097,20881 15094,20881 15092,20882 15090,20882 15088,20883 15085,20883 15083,20884 15081,20884 15079,20884 15076,20884 15074,20885 15072,20885 15069,20885 15067,20885 15065,20885 15062,20884 15060,20884 15058,20884 15056,20884 15052,20883 15050,20883 15048,20882 15046,20882 15044,20881 15041,20881 15039,20880 15037,20879 15035,20878 15033,20878 15031,20877 15028,20876 15026,20875 15024,20874 15022,20872 15020,20871 15018,20870 15016,20869 15014,20868 15013,20866 15011,20865 15009,20863 15007,20862 15006,20860 15004,20859 15002,20857 15001,20856 14999,20854 14998,20852 14996,20850 14995,20849 14993,20847 14992,20845 14991,20843 14989,20841 14988,20839 14987,20837 14986,20835 14985,20833 14984,20831 14983,20829 14982,20827 14981,20825 14980,20823 14980,20820 14979,20818 14978,20816 14978,20814 14977,20812 14977,20809 14976,20807 14976,20805 14976,20803 14975,20800 14975,20798 14975,20796 14975,20793 14975,20791 Z"/>
   </g>
  </g>
  <g class="com.sun.star.drawing.PolyPolygonShape">
   <g id="id13">
    <rect class="BoundingBox" stroke="none" fill="none" x="15222" y="20613" width="267" height="267"/>
    <path fill="rgb(255,255,255)" stroke="none" d="M 15222,20879 L 15268,20879 15268,20686 15268,20685 15268,20683 15269,20682 15269,20680 15269,20679 15270,20677 15270,20676 15271,20674 15271,20673 15272,20671 15273,20670 15273,20669 15274,20668 15275,20666 15276,20665 15277,20664 15279,20663 15280,20662 15281,20661 15282,20660 15283,20659 15285,20659 15286,20658 15288,20657 15289,20657 15290,20656 15292,20656 15293,20656 15295,20655 15296,20655 15298,20655 15299,20655 15301,20655 15302,20655 15304,20655 15306,20656 15307,20656 15308,20656 15310,20657 15311,20657 15313,20658 15314,20659 15315,20659 15317,20660 15318,20661 15319,20662 15320,20663 15321,20664 15322,20665 15324,20666 15324,20668 15325,20669 15326,20670 15327,20671 15328,20673 15328,20674 15329,20676 15329,20677 15330,20679 15330,20680 15330,20682 15330,20683 15331,20685 15331,20686 15331,20879 15377,20879 15377,20686 15377,20685 15377,20683 15378,20682 15378,20680 15378,20679 15379,20677 15379,20676 15380,20674 15380,20673 15381,20671 15382,20670 15383,20669 15384,20668 15385,20666 15385,20665 15386,20664 15388,20663 15389,20662 15390,20661 15391,20660 15393,20659 15394,20659 15395,20658 15397,20657 15398,20657 15399,20656 15401,20656 15403,20656 15404,20655 15406,20655 15407,20655 15409,20655 15410,20655 15412,20655 15413,20655 15415,20656 15416,20656 15418,20656 15419,20657 15421,20657 15422,20658 15423,20659 15425,20659 15426,20660 15427,20661 15428,20662 15430,20663 15431,20664 15432,20665 15433,20666 15434,20668 15434,20669 15435,20670 15436,20671 15437,20673 15437,20674 15438,20676 15438,20677 15439,20679 15439,20680 15439,20682 15440,20683 15440,20685 15440,20686 15440,20879 15488,20879 15488,20678 15488,20675 15487,20673 15487,20670 15487,20668 15486,20665 15486,20663 15485,20660 15484,20658 15483,20655 15482,20653 15481,20650 15480,20648 15479,20646 15478,20644 15476,20641 15475,20639 15473,20637 15471,20635 15470,20633 15468,20631 15466,20630 15464,20628 15462,20626 15460,20625 15457,20624 15455,20622 15453,20621 15451,20620 15448,20619 15446,20618 15442,20617 15440,20616 15437,20615 15435,20615 15432,20614 15430,20614 15427,20614 15425,20613 15422,20613 15419,20613 15417,20614 15414,20614 15412,20614 15409,20615 15406,20615 15404,20616 15401,20617 15399,20618 15397,20619 15394,20620 15392,20621 15390,20622 15387,20623 15385,20625 15383,20626 15381,20628 15379,20630 15377,20631 15375,20633 15374,20635 15372,20637 15370,20639 15369,20641 15367,20643 15366,20642 15365,20640 15364,20639 15363,20638 15362,20636 15361,20635 15360,20634 15358,20632 15357,20631 15356,20630 15354,20629 15353,20628 15352,20626 15350,20626 15349,20624 15347,20624 15346,20622 15344,20622 15343,20621 15341,20620 15339,20619 15338,20618 15336,20618 15335,20617 15333,20617 15331,20616 15329,20616 15328,20615 15326,20615 15324,20615 15322,20614 15321,20614 15319,20614 15317,20614 15315,20613 15314,20613 15312,20613 15310,20613 15308,20614 15306,20614 15305,20614 15303,20614 15301,20615 15299,20615 15298,20615 15296,20616 15294,20616 15293,20617 15291,20617 15289,20618 15288,20619 15286,20619 15284,20620 15283,20621 15281,20622 15280,20623 15278,20624 15277,20624 15275,20626 15274,20627 15272,20628 15271,20629 15270,20630 15268,20631 15268,20619 15222,20619 15222,20879 Z"/>
   </g>
  </g>
 </g>
</svg>