<?xml version="1.0" encoding="UTF-8"?>
<!DOCTYPE svg PUBLIC "-//W3C//DTD SVG 1.1//EN" "http://www.w3.org/Graphics/SVG/1.1/DTD/svg11.dtd">
<svg version="1.2" width="25.4mm" height="25.38mm" viewBox="16231 18482 2540 2538" preserveAspectRatio="xMidYMid" fill-rule="evenodd" stroke-width="28.222" stroke-linejoin="round" xmlns="http://www.w3.org/2000/svg" xmlns:ooo="http://xml.openoffice.org/svg/export" xmlns:xlink="http://www.w3.org/1999/xlink" xmlns:presentation="http://sun.com/xmlns/staroffice/presentation" xmlns:smil="http://www.w3.org/2001/SMIL20/" xmlns:anim="urn:oasis:names:tc:opendocument:xmlns:animation:1.0" xml:space="preserve">
 <defs class="EmbeddedBulletChars">
  <g id="bullet-char-template-57356" transform="scale(0.00048828125,-0.00048828125)">
   <path d="M 580,1141 L 1163,571 580,0 -4,571 580,1141 Z"/>
  </g>
  <g id="bullet-char-template-57354" transform="scale(0.00048828125,-0.00048828125)">
   <path d="M 8,1128 L 1137,1128 1137,0 8,0 8,1128 Z"/>
  </g>
  <g id="bullet-char-template-10146" transform="scale(0.00048828125,-0.00048828125)">
   <path d="M 174,0 L 602,739 174,1481 1456,739 174,0 Z M 1358,739 L 309,1346 659,739 1358,739 Z"/>
  </g>
  <g id="bullet-char-template-10132" transform="scale(0.00048828125,-0.00048828125)">
   <path d="M 2015,739 L 1276,0 717,0 1260,543 174,543 174,936 1260,936 717,1481 1274,1481 2015,739 Z"/>
  </g>
  <g id="bullet-char-template-10007" transform="scale(0.00048828125,-0.00048828125)">
   <path d="M 0,-2 C -7,14 -16,27 -25,37 L 356,567 C 262,823 215,952 215,954 215,979 228,992 255,992 264,992 276,990 289,987 310,991 331,999 354,1012 L 381,999 492,748 772,1049 836,1024 860,1049 C 881,1039 901,1025 922,1006 886,937 835,863 770,784 769,783 710,716 594,584 L 774,223 C 774,196 753,168 711,139 L 727,119 C 717,90 699,76 672,76 641,76 570,178 457,381 L 164,-76 C 142,-110 111,-127 72,-127 30,-127 9,-110 8,-76 1,-67 -2,-52 -2,-32 -2,-23 -1,-13 0,-2 Z"/>
  </g>
  <g id="bullet-char-template-10004" transform="scale(0.00048828125,-0.00048828125)">
   <path d="M 285,-33 C 182,-33 111,30 74,156 52,228 41,333 41,471 41,549 55,616 82,672 116,743 169,778 240,778 293,778 328,747 346,684 L 369,508 C 377,444 397,411 428,410 L 1163,1116 C 1174,1127 1196,1133 1229,1133 1271,1133 1292,1118 1292,1087 L 1292,965 C 1292,929 1282,901 1262,881 L 442,47 C 390,-6 338,-33 285,-33 Z"/>
  </g>
  <g id="bullet-char-template-9679" transform="scale(0.00048828125,-0.00048828125)">
   <path d="M 813,0 C 632,0 489,54 383,161 276,268 223,411 223,592 223,773 276,916 383,1023 489,1130 632,1184 813,1184 992,1184 1136,1130 1245,1023 1353,916 1407,772 1407,592 1407,412 1353,268 1245,161 1136,54 992,0 813,0 Z"/>
  </g>
  <g id="bullet-char-template-8226" transform="scale(0.00048828125,-0.00048828125)">
   <path d="M 346,457 C 273,457 209,483 155,535 101,586 74,649 74,723 74,796 101,859 155,911 209,963 273,989 346,989 419,989 480,963 531,910 582,859 608,796 608,723 608,648 583,586 532,535 482,483 420,457 346,457 Z"/>
  </g>
  <g id="bullet-char-template-8211" transform="scale(0.00048828125,-0.00048828125)">
   <path d="M -4,459 L 1135,459 1135,606 -4,606 -4,459 Z"/>
  </g>
  <g id="bullet-char-template-61548" transform="scale(0.00048828125,-0.00048828125)">
   <path d="M 173,740 C 173,903 231,1043 346,1159 462,1274 601,1332 765,1332 928,1332 1067,1274 1183,1159 1299,1043 1357,903 1357,740 1357,577 1299,437 1183,322 1067,206 928,148 765,148 601,148 462,206 346,322 231,437 173,577 173,740 Z"/>
  </g>
 </defs>
 <g class="Page">
  <g class="com.sun.star.drawing.PolyPolygonShape">
   <g id="id3">
    <rect class="BoundingBox" stroke="none" fill="none" x="16231" y="18482" width="2540" height="2538"/>
    <path fill="rgb(255,255,255)" stroke="none" d="M 16296,19860 L 17391,20955 17396,20960 17402,20965 17408,20970 17414,20974 17421,20978 17427,20982 17434,20986 17441,20989 17448,20992 17455,20994 17463,20996 17470,20998 17478,20999 17485,21000 17493,21000 17500,21001 17508,21000 17516,21000 17523,20999 17531,20998 17538,20996 17546,20994 17553,20992 17560,20989 17567,20986 17574,20982 17580,20978 17587,20974 17593,20970 17599,20965 17605,20960 17610,20955 18705,19860 18711,19855 18716,19849 18720,19843 18725,19837 18729,19830 18733,19824 18736,19817 18739,19810 18742,19803 18744,19796 18746,19788 18748,19781 18749,19773 18750,19766 18752,19758 18752,19751 18752,19743 18750,19735 18749,19728 18748,19720 18746,19713 18744,19705 18742,19698 18739,19691 18736,19684 18733,19677 18729,19671 18725,19664 18720,19658 18716,19652 18711,19646 18705,19641 17610,18545 17605,18540 17599,18535 17593,18530 17587,18526 17580,18522 17574,18518 17567,18515 17560,18511 17553,18509 17546,18506 17538,18504 17531,18503 17523,18501 17516,18500 17508,18500 17501,18500 17493,18500 17485,18500 17478,18501 17470,18503 17463,18504 17455,18506 17448,18509 17441,18511 17434,18515 17427,18518 17421,18522 17414,18526 17408,18530 17402,18535 17396,18540 17391,18545 16296,19641 16290,19646 16285,19652 16281,19658 16276,19664 16272,19671 16268,19677 16265,19684 16262,19691 16259,19698 16257,19705 16255,19713 16253,19720 16252,19728 16251,19735 16249,19743 16249,19751 16249,19758 16251,19766 16252,19773 16253,19781 16255,19788 16257,19796 16259,19803 16262,19810 16265,19817 16268,19824 16272,19830 16276,19837 16281,19843 16285,19849 16290,19855 16296,19860 Z"/>
    <path fill="none" stroke="rgb(0,0,0)" stroke-width="35" stroke-linejoin="miter" stroke-linecap="square" d="M 16296,19860 L 17391,20955 17396,20960 17402,20965 17408,20970 17414,20974 17421,20978 17427,20982 17434,20986 17441,20989 17448,20992 17455,20994 17463,20996 17470,20998 17478,20999 17485,21000 17493,21000 17500,21001 17508,21000 17516,21000 17523,20999 17531,20998 17538,20996 17546,20994 17553,20992 17560,20989 17567,20986 17574,20982 17580,20978 17587,20974 17593,20970 17599,20965 17605,20960 17610,20955 18705,19860 18711,19855 18716,19849 18720,19843 18725,19837 18729,19830 18733,19824 18736,19817 18739,19810 18742,19803 18744,19796 18746,19788 18748,19781 18749,19773 18750,19766 18752,19758 18752,19751 18752,19743 18750,19735 18749,19728 18748,19720 18746,19713 18744,19705 18742,19698 18739,19691 18736,19684 18733,19677 18729,19671 18725,19664 18720,19658 18716,19652 18711,19646 18705,19641 17610,18545 17605,18540 17599,18535 17593,18530 17587,18526 17580,18522 17574,18518 17567,18515 17560,18511 17553,18509 17546,18506 17538,18504 17531,18503 17523,18501 17516,18500 17508,18500 17501,18500 17493,18500 17485,18500 17478,18501 17470,18503 17463,18504 17455,18506 17448,18509 17441,18511 17434,18515 17427,18518 17421,18522 17414,18526 17408,18530 17402,18535 17396,18540 17391,18545 16296,19641 16290,19646 16285,19652 16281,19658 16276,19664 16272,19671 16268,19677 16265,19684 16262,19691 16259,19698 16257,19705 16255,19713 16253,19720 16252,19728 16251,19735 16249,19743 16249,19751 16249,19758 16251,19766 16252,19773 16253,19781 16255,19788 16257,19796 16259,19803 16262,19810 16265,19817 16268,19824 16272,19830 16276,19837 16281,19843 16285,19849 16290,19855 16296,19860 Z"/>
   </g>
  </g>
  <g class="com.sun.star.drawing.PolyPolygonShape">
   <g id="id4">
    <rect class="BoundingBox" stroke="none" fill="none" x="16592" y="18842" width="1818" height="1818"/>
    <path fill="rgb(0,0,0)" stroke="none" d="M 16592,19751 L 17500,20658 18408,19750 17501,18842 16592,19751 Z"/>
   </g>
  </g>
  <g class="com.sun.star.drawing.PolyPolygonShape">
   <g id="id5">
    <rect class="BoundingBox" stroke="none" fill="none" x="16675" y="18925" width="1651" height="1651"/>
    <path fill="rgb(255,129,0)" stroke="none" d="M 16675,19751 L 17500,20575 18325,19750 17501,18925 16675,19751 Z"/>
   </g>
  </g>
 </g>
</svg>