<?xml version="1.0" encoding="UTF-8"?>
<!DOCTYPE svg PUBLIC "-//W3C//DTD SVG 1.1//EN" "http://www.w3.org/Graphics/SVG/1.1/DTD/svg11.dtd">
<svg version="1.2" width="25.03mm" height="25.02mm" viewBox="25049 24500 2503 2502" preserveAspectRatio="xMidYMid" fill-rule="evenodd" stroke-width="28.222" stroke-linejoin="round" xmlns="http://www.w3.org/2000/svg" xmlns:ooo="http://xml.openoffice.org/svg/export" xmlns:xlink="http://www.w3.org/1999/xlink" xmlns:presentation="http://sun.com/xmlns/staroffice/presentation" xmlns:smil="http://www.w3.org/2001/SMIL20/" xmlns:anim="urn:oasis:names:tc:opendocument:xmlns:animation:1.0" xml:space="preserve">
 <defs class="EmbeddedBulletChars">
  <g id="bullet-char-template-57356" transform="scale(0.00048828125,-0.00048828125)">
   <path d="M 580,1141 L 1163,571 580,0 -4,571 580,1141 Z"/>
  </g>
  <g id="bullet-char-template-57354" transform="scale(0.00048828125,-0.00048828125)">
   <path d="M 8,1128 L 1137,1128 1137,0 8,0 8,1128 Z"/>
  </g>
  <g id="bullet-char-template-10146" transform="scale(0.00048828125,-0.00048828125)">
   <path d="M 174,0 L 602,739 174,1481 1456,739 174,0 Z M 1358,739 L 309,1346 659,739 1358,739 Z"/>
  </g>
  <g id="bullet-char-template-10132" transform="scale(0.00048828125,-0.00048828125)">
   <path d="M 2015,739 L 1276,0 717,0 1260,543 174,543 174,936 1260,936 717,1481 1274,1481 2015,739 Z"/>
  </g>
  <g id="bullet-char-template-10007" transform="scale(0.00048828125,-0.00048828125)">
   <path d="M 0,-2 C -7,14 -16,27 -25,37 L 356,567 C 262,823 215,952 215,954 215,979 228,992 255,992 264,992 276,990 289,987 310,991 331,999 354,1012 L 381,999 492,748 772,1049 836,1024 860,1049 C 881,1039 901,1025 922,1006 886,937 835,863 770,784 769,783 710,716 594,584 L 774,223 C 774,196 753,168 711,139 L 727,119 C 717,90 699,76 672,76 641,76 570,178 457,381 L 164,-76 C 142,-110 111,-127 72,-127 30,-127 9,-110 8,-76 1,-67 -2,-52 -2,-32 -2,-23 -1,-13 0,-2 Z"/>
  </g>
  <g id="bullet-char-template-10004" transform="scale(0.00048828125,-0.00048828125)">
   <path d="M 285,-33 C 182,-33 111,30 74,156 52,228 41,333 41,471 41,549 55,616 82,672 116,743 169,778 240,778 293,778 328,747 346,684 L 369,508 C 377,444 397,411 428,410 L 1163,1116 C 1174,1127 1196,1133 1229,1133 1271,1133 1292,1118 1292,1087 L 1292,965 C 1292,929 1282,901 1262,881 L 442,47 C 390,-6 338,-33 285,-33 Z"/>
  </g>
  <g id="bullet-char-template-9679" transform="scale(0.00048828125,-0.00048828125)">
   <path d="M 813,0 C 632,0 489,54 383,161 276,268 223,411 223,592 223,773 276,916 383,1023 489,1130 632,1184 813,1184 992,1184 1136,1130 1245,1023 1353,916 1407,772 1407,592 1407,412 1353,268 1245,161 1136,54 992,0 813,0 Z"/>
  </g>
  <g id="bullet-char-template-8226" transform="scale(0.00048828125,-0.00048828125)">
   <path d="M 346,457 C 273,457 209,483 155,535 101,586 74,649 74,723 74,796 101,859 155,911 209,963 273,989 346,989 419,989 480,963 531,910 582,859 608,796 608,723 608,648 583,586 532,535 482,483 420,457 346,457 Z"/>
  </g>
  <g id="bullet-char-template-8211" transform="scale(0.00048828125,-0.00048828125)">
   <path d="M -4,459 L 1135,459 1135,606 -4,606 -4,459 Z"/>
  </g>
  <g id="bullet-char-template-61548" transform="scale(0.00048828125,-0.00048828125)">
   <path d="M 173,740 C 173,903 231,1043 346,1159 462,1274 601,1332 765,1332 928,1332 1067,1274 1183,1159 1299,1043 1357,903 1357,740 1357,577 1299,437 1183,322 1067,206 928,148 765,148 601,148 462,206 346,322 231,437 173,577 173,740 Z"/>
  </g>
 </defs>
 <g class="Page">
  <g class="com.sun.star.drawing.PolyPolygonShape">
   <g id="id3">
    <rect class="BoundingBox" stroke="none" fill="none" x="25049" y="24500" width="2503" height="2502"/>
    <path fill="rgb(255,0,0)" stroke="none" d="M 27551,25750 L 27551,25719 27549,25688 27548,25658 27545,25627 27541,25596 27537,25566 27532,25536 27527,25506 27521,25476 27513,25446 27506,25416 27497,25387 27488,25357 27478,25328 27467,25300 27456,25271 27444,25243 27431,25215 27417,25187 27403,25160 27388,25133 27373,25107 27357,25081 27340,25055 27323,25030 27305,25005 27286,24980 27267,24956 27247,24933 27227,24910 27206,24888 27185,24866 27163,24844 27140,24823 27117,24803 27094,24783 27070,24764 27045,24745 27020,24728 26995,24710 26970,24693 26943,24677 26917,24662 26890,24647 26863,24633 26835,24620 26807,24607 26779,24595 26750,24583 26722,24573 26693,24563 26663,24553 26634,24545 26604,24537 26574,24530 26544,24523 26514,24518 26484,24513 26454,24509 26423,24505 26393,24503 26362,24501 26331,24500 26301,24500 26270,24500 26238,24501 26207,24503 26177,24505 26146,24509 26116,24513 26086,24518 26056,24523 26026,24530 25996,24537 25966,24545 25937,24553 25907,24563 25878,24573 25850,24583 25821,24595 25793,24607 25765,24620 25737,24633 25710,24647 25683,24662 25657,24677 25631,24693 25605,24710 25580,24728 25555,24745 25530,24764 25506,24783 25483,24803 25460,24823 25437,24844 25415,24866 25394,24888 25373,24910 25353,24933 25333,24956 25314,24980 25295,25005 25277,25030 25260,25055 25243,25081 25227,25107 25212,25133 25197,25160 25183,25187 25169,25215 25156,25243 25144,25271 25133,25300 25122,25328 25112,25357 25103,25387 25094,25416 25087,25446 25080,25476 25073,25506 25068,25536 25063,25566 25059,25596 25055,25627 25052,25658 25051,25688 25049,25719 25049,25749 25049,25780 25051,25811 25052,25841 25055,25872 25059,25903 25063,25933 25068,25963 25073,25993 25080,26023 25087,26053 25094,26083 25103,26112 25112,26142 25122,26171 25133,26199 25144,26228 25156,26257 25169,26285 25183,26313 25197,26340 25212,26367 25227,26393 25243,26419 25260,26445 25277,26470 25295,26495 25314,26520 25333,26544 25353,26567 25373,26590 25394,26612 25415,26634 25437,26656 25460,26677 25483,26697 25506,26717 25530,26736 25555,26755 25580,26772 25605,26790 25631,26807 25657,26823 25683,26838 25710,26853 25737,26867 25765,26880 25793,26893 25821,26905 25850,26917 25878,26927 25907,26937 25937,26947 25966,26955 25996,26963 26026,26970 26056,26977 26086,26982 26116,26987 26146,26991 26177,26995 26207,26997 26238,26999 26270,27000 26300,27001 26331,27000 26362,26999 26393,26997 26423,26995 26454,26991 26484,26987 26514,26982 26544,26977 26574,26970 26604,26963 26634,26955 26663,26947 26693,26937 26722,26927 26750,26917 26779,26905 26807,26893 26835,26880 26863,26867 26890,26853 26917,26838 26943,26823 26970,26807 26995,26790 27020,26772 27045,26755 27070,26736 27094,26717 27117,26697 27140,26677 27163,26656 27185,26634 27206,26612 27227,26590 27247,26567 27267,26544 27286,26520 27305,26495 27323,26470 27340,26445 27357,26419 27373,26393 27388,26367 27403,26340 27417,26313 27431,26285 27444,26257 27456,26228 27467,26199 27478,26171 27488,26142 27497,26112 27506,26083 27513,26053 27521,26023 27527,25993 27532,25963 27537,25933 27541,25903 27545,25872 27548,25841 27549,25811 27551,25780 27551,25750 Z"/>
   </g>
  </g>
  <g class="com.sun.star.drawing.PolyPolygonShape">
   <g id="id4">
    <rect class="BoundingBox" stroke="none" fill="none" x="25406" y="24857" width="1789" height="1787"/>
    <path fill="rgb(255,255,255)" stroke="none" d="M 27194,25750 L 27193,25728 27193,25706 27191,25684 27189,25662 27187,25640 27184,25618 27181,25597 27176,25575 27172,25554 27167,25533 27161,25511 27155,25490 27149,25469 27141,25449 27134,25428 27126,25408 27117,25388 27108,25368 27098,25348 27088,25329 27078,25309 27067,25291 27055,25272 27043,25253 27031,25235 27018,25218 27005,25200 26991,25183 26977,25166 26962,25150 26947,25134 26932,25118 26916,25103 26900,25088 26884,25073 26867,25059 26850,25046 26832,25032 26815,25020 26797,25007 26778,24995 26760,24984 26741,24973 26721,24962 26702,24952 26682,24942 26662,24933 26642,24925 26622,24916 26601,24909 26581,24902 26560,24895 26539,24889 26518,24883 26496,24878 26475,24874 26453,24870 26432,24866 26410,24863 26388,24861 26366,24859 26344,24858 26322,24857 26301,24857 26279,24857 26257,24858 26235,24859 26213,24861 26191,24863 26169,24866 26148,24870 26126,24874 26105,24878 26083,24883 26062,24889 26041,24895 26020,24902 26000,24909 25979,24916 25959,24925 25939,24933 25919,24942 25899,24952 25879,24962 25859,24973 25840,24984 25822,24995 25803,25007 25785,25020 25768,25032 25750,25046 25733,25059 25716,25073 25700,25088 25684,25103 25668,25118 25653,25134 25638,25150 25623,25166 25609,25183 25595,25200 25582,25218 25569,25235 25557,25253 25545,25272 25533,25291 25522,25309 25512,25329 25502,25348 25492,25368 25483,25388 25474,25408 25466,25428 25459,25449 25451,25469 25445,25490 25439,25511 25433,25533 25428,25554 25424,25575 25419,25597 25416,25618 25413,25640 25411,25662 25409,25684 25407,25706 25407,25728 25406,25749 25407,25771 25407,25793 25409,25815 25411,25837 25413,25859 25416,25881 25419,25903 25424,25925 25428,25946 25433,25968 25439,25989 25445,26010 25451,26031 25459,26051 25466,26072 25474,26092 25483,26112 25492,26132 25502,26152 25512,26171 25522,26191 25533,26210 25545,26228 25557,26247 25569,26265 25582,26282 25595,26300 25609,26317 25623,26334 25638,26350 25653,26366 25668,26382 25684,26397 25700,26412 25716,26427 25733,26441 25750,26454 25768,26468 25785,26481 25803,26493 25822,26505 25840,26516 25859,26527 25879,26538 25899,26548 25919,26558 25939,26567 25959,26575 25979,26584 26000,26591 26020,26598 26041,26605 26062,26611 26083,26617 26105,26622 26126,26626 26148,26630 26169,26634 26191,26637 26213,26639 26235,26641 26257,26642 26279,26643 26300,26643 26322,26643 26344,26642 26366,26641 26388,26639 26410,26637 26432,26634 26453,26630 26475,26626 26496,26622 26518,26617 26539,26611 26560,26605 26581,26598 26601,26591 26622,26584 26642,26575 26662,26567 26682,26558 26702,26548 26721,26538 26741,26527 26760,26516 26778,26505 26797,26493 26815,26481 26832,26468 26850,26454 26867,26441 26884,26427 26900,26412 26916,26397 26932,26382 26947,26366 26962,26350 26977,26334 26991,26317 27005,26300 27018,26282 27031,26265 27043,26247 27055,26228 27067,26210 27078,26191 27088,26171 27098,26152 27108,26132 27117,26112 27126,26092 27134,26072 27141,26051 27149,26031 27155,26010 27161,25989 27167,25968 27172,25946 27176,25925 27181,25903 27184,25881 27187,25859 27189,25837 27191,25815 27193,25793 27193,25771 27194,25750 Z"/>
   </g>
  </g>
  <g class="com.sun.star.drawing.PolyPolygonShape">
   <g id="id5">
    <rect class="BoundingBox" stroke="none" fill="none" x="25549" y="25301" width="1503" height="826"/>
    <path fill="rgb(0,0,0)" stroke="none" d="M 26637,25594 L 26624,25603 26611,25612 26598,25622 26587,25633 26575,25644 26565,25656 26556,25669 26547,25683 26539,25696 26532,25711 26526,25725 26521,25740 26517,25756 26513,25771 26511,25787 26510,25803 26707,25803 26709,25798 26710,25794 26712,25789 26715,25785 26717,25781 26720,25777 26724,25773 26727,25770 26637,25594 Z M 26990,25695 L 26997,25708 27002,25721 27007,25734 27011,25748 27015,25762 27017,25776 27019,25790 27020,25804 27020,25819 27020,25833 27018,25847 27016,25861 27013,25875 27009,25889 27005,25903 27000,25916 26994,25930 26987,25943 26980,25955 26972,25967 26963,25978 26954,25989 26944,25999 26933,26009 26922,26018 26911,26026 26899,26034 26886,26041 26873,26048 26860,26053 26847,26058 26833,26063 26819,26066 26805,26069 26791,26071 26777,26072 26763,26072 26748,26071 26734,26070 26720,26068 26706,26065 26692,26061 26678,26057 26665,26052 26652,26046 26639,26039 26627,26032 26615,26024 26604,26015 26593,26006 26583,25996 26573,25985 26564,25974 26555,25963 26548,25951 26540,25938 26534,25926 26528,25911 26523,25898 26519,25884 26515,25870 26513,25856 26511,25842 26510,25828 26707,25828 26709,25834 26711,25839 26714,25845 26717,25850 26721,25854 26725,25859 26730,25863 26734,25866 26740,25869 26745,25871 26751,25873 26757,25874 26763,25874 26769,25874 26775,25874 26781,25872 26786,25870 26792,25868 26797,25865 26802,25861 26806,25858 26810,25853 26814,25848 26817,25843 26820,25838 26821,25832 26823,25826 26824,25820 26824,25814 26823,25808 26822,25802 26821,25797 26990,25695 Z M 27019,25649 L 27003,25658 26996,25647 26988,25637 26980,25628 26972,25618 26963,25609 26953,25601 26944,25593 26934,25585 26923,25578 26913,25571 26902,25565 26890,25559 26879,25554 26867,25549 26855,25545 26843,25541 26831,25538 26819,25535 26806,25533 26794,25531 26781,25530 26768,25530 26756,25530 26743,25531 26730,25532 26718,25534 26705,25536 26693,25539 26681,25542 26669,25546 26657,25551 26646,25556 26637,25540 26650,25535 26662,25530 26675,25526 26688,25522 26701,25519 26714,25516 26728,25514 26741,25513 26755,25512 26768,25512 26782,25512 26795,25514 26809,25515 26822,25517 26835,25520 26848,25524 26861,25528 26874,25532 26886,25537 26898,25543 26910,25549 26922,25556 26933,25563 26945,25571 26955,25579 26965,25588 26975,25597 26985,25606 26994,25616 27003,25627 27011,25638 27019,25649 Z M 26623,25567 L 26608,25577 26593,25587 26579,25598 26566,25610 26553,25623 26542,25637 26531,25652 26521,25667 26512,25682 26504,25699 26497,25715 26491,25732 26487,25750 26483,25767 26481,25785 26479,25803 26462,25803 26463,25784 26466,25765 26469,25746 26474,25727 26481,25709 26488,25691 26496,25674 26506,25657 26516,25641 26528,25626 26540,25611 26554,25598 26568,25585 26583,25572 26599,25561 26615,25552 26623,25567 Z M 26610,25542 L 26602,25547 26593,25552 26585,25558 26577,25564 26569,25570 26561,25576 26554,25583 26546,25590 26539,25597 26533,25604 26526,25611 26520,25619 26513,25627 26508,25635 26502,25643 26497,25652 26491,25660 26487,25669 26482,25678 26478,25687 26474,25696 26470,25706 26467,25715 26464,25725 26461,25734 26459,25744 26457,25754 26455,25763 26453,25773 26452,25783 26451,25793 26451,25803 26439,25803 26437,25794 26434,25786 26431,25777 26427,25770 26421,25763 26416,25756 26409,25750 26402,25744 26552,25429 26610,25542 Z M 26659,25583 L 26670,25579 26680,25575 26691,25571 26702,25568 26713,25566 26724,25564 26735,25562 26746,25561 26757,25560 26769,25560 26780,25561 26791,25561 26802,25563 26813,25565 26824,25567 26835,25570 26846,25573 26856,25577 26867,25581 26877,25586 26887,25591 26896,25597 26906,25603 26915,25609 26924,25616 26933,25623 26941,25631 26949,25639 26957,25647 26964,25655 26971,25664 26977,25673 26808,25775 26802,25770 26796,25765 26789,25762 26781,25759 26773,25757 26765,25757 26758,25757 26750,25759 26659,25583 Z M 25869,25795 L 25870,25798 25872,25802 26091,25794 26089,25777 26086,25760 26082,25744 26077,25728 26070,25712 26063,25696 26054,25682 26045,25667 26035,25654 26024,25641 26012,25629 25999,25617 25985,25607 25971,25597 25956,25589 25941,25581 25907,25713 25904,25724 25901,25735 25897,25746 25893,25757 25888,25767 25882,25777 25876,25786 25869,25795 Z M 26138,25792 L 26120,25793 26119,25783 26118,25774 26116,25764 26114,25755 26112,25745 26110,25736 26107,25727 26103,25718 26100,25708 26096,25700 26092,25691 26088,25682 26083,25674 26078,25665 26073,25657 26067,25649 26062,25642 26056,25634 26049,25627 26043,25619 26036,25613 26029,25606 26022,25599 26014,25593 26007,25587 25999,25581 25991,25576 25983,25571 25974,25566 25966,25561 25957,25557 25948,25553 25953,25536 25962,25540 25972,25544 25981,25549 25990,25554 25999,25560 26007,25566 26016,25572 26024,25578 26032,25585 26040,25592 26048,25599 26055,25606 26062,25614 26069,25622 26075,25630 26081,25638 26087,25647 26093,25655 26098,25664 26103,25673 26108,25683 26113,25692 26117,25702 26120,25711 26124,25721 26127,25731 26129,25741 26132,25751 26134,25761 26136,25772 26137,25782 26138,25792 Z M 25850,25779 L 25844,25777 25838,25776 25832,25776 25826,25777 25821,25779 25815,25781 25811,25785 25806,25789 25803,25793 25800,25799 25797,25804 25796,25810 25796,25816 25796,25822 25798,25827 25800,25833 25803,25838 25806,25842 25811,25846 25816,25850 25821,25852 25827,25854 25832,25855 25838,25855 25844,25854 25850,25852 25855,25849 25860,25846 25864,25842 25868,25837 25871,25832 25873,25827 26092,25819 26092,25829 26091,25839 26090,25849 26089,25859 26087,25869 26084,25879 26082,25889 26079,25898 26075,25908 26071,25917 26067,25927 26063,25936 26058,25945 26052,25954 26047,25962 26041,25971 26035,25979 26028,25986 26022,25994 26014,26001 26007,26008 26000,26014 25992,26021 25983,26027 25975,26032 25967,26038 25958,26043 25949,26047 25940,26052 25930,26055 25921,26059 25911,26062 25902,26065 25892,26067 25882,26069 25872,26071 25862,26072 25852,26073 25842,26074 25832,26074 25822,26073 25812,26073 25802,26071 25791,26070 25782,26068 25772,26066 25762,26063 25752,26060 25743,26057 25734,26053 25724,26049 25715,26044 25707,26039 25698,26034 25689,26029 25681,26023 25673,26016 25666,26010 25658,26003 25651,25996 25644,25989 25637,25981 25631,25973 25625,25965 25619,25957 25614,25948 25609,25939 25604,25930 25600,25920 25596,25911 25593,25901 25589,25892 25587,25882 25584,25873 25582,25863 25581,25853 25579,25843 25578,25832 25578,25822 25578,25812 25578,25802 25579,25792 25580,25782 25582,25772 25583,25762 25586,25752 25588,25743 25591,25733 25595,25724 25599,25714 25603,25705 25607,25696 25612,25687 25617,25679 25623,25670 25629,25662 25635,25654 25642,25646 25648,25639 25655,25632 25663,25625 25670,25618 25678,25612 25686,25606 25695,25600 25703,25595 25712,25590 25721,25585 25730,25581 25740,25577 25749,25573 25759,25570 25768,25567 25778,25565 25788,25563 25798,25561 25808,25560 25818,25559 25828,25559 25838,25558 25848,25559 25858,25560 25868,25561 25878,25562 25888,25564 25898,25566 25908,25569 25917,25572 25882,25708 25880,25718 25877,25727 25874,25737 25870,25746 25866,25755 25861,25763 25856,25771 25850,25779 Z M 26388,25979 L 26388,26004 26320,26004 26320,25979 26343,25979 26343,25901 26338,25900 26333,25899 26327,25897 26322,25895 26317,25893 26312,25891 26308,25888 26303,25885 26299,25881 26295,25878 26291,25874 26287,25870 26284,25865 26281,25861 26278,25856 26276,25851 26274,25846 26272,25841 26271,25836 26270,25830 26269,25825 26269,25819 26268,25814 26269,25809 26269,25803 26270,25798 26272,25792 26273,25787 26275,25782 26278,25777 26280,25772 26283,25768 25967,25481 25956,25525 25967,25531 25979,25536 25990,25542 26001,25549 26012,25556 26023,25563 26033,25571 26043,25580 26052,25589 26062,25598 26070,25607 26079,25617 26087,25627 26094,25638 26101,25649 26108,25660 26114,25671 26120,25683 26125,25694 26130,25707 26134,25719 26138,25731 26141,25744 26144,25756 26146,25769 26148,25782 26149,25795 26149,25808 26149,25821 26149,25834 26148,25847 26146,25860 26136,25858 26137,25848 26138,25838 26138,25828 26139,25818 26121,25818 26120,25831 26120,25843 26118,25856 26116,25868 26113,25880 26110,25892 26107,25904 26103,25916 26098,25929 26093,25940 26087,25951 26081,25962 26074,25973 26067,25983 26060,25993 26052,26003 26043,26012 26034,26021 26025,26030 26016,26038 26006,26046 25996,26053 25985,26060 25974,26066 25963,26072 25952,26077 25940,26082 25929,26086 25917,26090 25905,26094 25892,26097 25880,26099 26720,26099 26708,26097 26696,26094 26684,26091 26672,26087 26661,26083 26650,26078 26639,26073 26628,26067 26617,26061 26607,26055 26597,26048 26587,26040 26578,26032 26569,26024 26560,26016 26552,26007 26544,25997 26536,25988 26529,25978 26522,25968 26516,25957 26510,25946 26505,25935 26500,25923 26496,25912 26492,25900 26489,25888 26486,25876 26483,25865 26482,25852 26480,25840 26479,25828 26462,25828 26462,25838 26463,25849 26464,25859 26466,25869 26455,25871 26454,25860 26452,25850 26451,25839 26451,25828 26439,25828 26438,25835 26436,25842 26433,25848 26431,25854 26427,25861 26423,25866 26419,25872 26414,25877 26409,25881 26403,25886 26398,25889 26391,25893 26385,25896 26378,25898 26372,25899 26365,25901 26365,25979 26388,25979 Z M 26320,25628 L 26388,25628 26388,25653 26365,25653 26365,25730 26372,25732 26379,25734 26527,25423 25982,25423 25974,25454 26300,25749 26305,25746 26310,25742 26315,25739 26320,25737 26326,25735 26332,25733 26337,25732 26343,25730 26343,25653 26320,25653 26320,25628 Z M 26069,25332 L 26079,25330 26090,25330 26101,25330 26111,25332 26115,25331 26119,25328 26121,25325 26123,25321 26124,25317 26123,25313 26121,25309 26118,25306 26114,25304 26109,25303 26104,25302 26100,25301 26095,25301 26090,25301 26085,25301 26080,25302 26069,25304 26057,25306 26045,25307 26034,25308 26022,25308 26010,25308 25998,25308 25986,25307 25932,25517 25921,25513 25910,25510 25899,25508 25888,25506 25876,25504 25865,25503 25854,25502 25842,25501 25831,25501 25819,25502 25808,25502 25797,25504 25785,25505 25774,25507 25763,25510 25752,25512 25755,25523 25766,25520 25776,25518 25787,25516 25798,25514 25809,25513 25820,25512 25831,25512 25842,25512 25853,25512 25864,25513 25875,25515 25886,25516 25897,25518 25908,25521 25919,25524 25929,25527 25925,25544 25911,25540 25896,25536 25882,25534 25867,25532 25852,25530 25838,25530 25823,25530 25808,25531 25794,25533 25779,25535 25765,25539 25751,25543 25737,25547 25723,25553 25709,25559 25696,25566 25684,25573 25671,25581 25660,25590 25648,25600 25637,25609 25627,25620 25617,25631 25608,25642 25599,25654 25591,25667 25584,25679 25577,25693 25571,25706 25566,25720 25561,25734 25557,25748 25554,25762 25552,25777 25550,25792 25549,25806 25549,25821 25550,25836 25551,25851 25554,25865 25557,25880 25560,25894 25565,25908 25570,25922 25576,25936 25582,25950 25589,25962 25597,25975 25606,25987 25615,25999 25624,26010 25635,26020 25645,26030 25657,26040 25668,26049 25681,26057 25693,26065 25706,26072 25720,26078 25733,26084 25747,26088 25761,26093 25776,26096 25790,26099 25585,26099 25585,26126 27015,26126 27015,26099 26810,26099 26827,26095 26843,26091 26860,26086 26875,26080 26891,26073 26906,26065 26921,26056 26935,26046 26948,26036 26961,26025 26973,26013 26984,26000 26995,25986 27004,25972 27013,25958 27021,25943 27028,25927 27035,25910 27040,25894 27044,25878 27047,25861 27049,25844 27051,25827 27051,25810 27050,25793 27048,25776 27045,25759 27041,25743 27036,25726 27031,25710 27024,25694 27016,25679 27031,25670 27037,25680 27041,25690 27051,25686 27044,25672 27037,25658 27029,25645 27020,25632 27011,25620 27001,25608 26990,25596 26979,25585 26968,25575 26955,25566 26943,25556 26930,25548 26916,25540 26903,25533 26889,25527 26874,25521 26860,25516 26845,25512 26829,25508 26814,25505 26799,25503 26783,25502 26768,25501 26752,25501 26737,25503 26721,25504 26706,25507 26691,25510 26676,25514 26661,25519 26647,25524 26632,25531 26566,25400 26581,25368 26582,25366 26585,25364 26587,25363 26590,25362 26594,25361 26598,25360 26601,25358 26604,25355 26606,25353 26607,25351 26608,25349 26608,25347 26609,25345 26609,25343 26608,25341 26608,25339 26607,25337 26606,25335 26604,25333 26603,25332 26601,25331 26599,25330 26597,25329 26595,25329 26578,25327 26561,25325 26545,25325 26528,25325 26511,25325 26495,25326 26478,25328 26462,25331 26460,25332 26458,25333 26456,25334 26455,25336 26453,25338 26453,25340 26452,25343 26452,25345 26453,25347 26453,25350 26455,25352 26456,25354 26458,25355 26460,25356 26462,25357 26464,25358 26537,25361 26540,25361 26543,25362 26546,25363 26548,25366 26549,25369 26550,25372 26550,25375 26548,25378 26539,25398 25989,25398 26004,25339 26012,25339 26020,25339 26029,25339 26037,25338 26045,25337 26053,25336 26061,25334 26069,25332 Z"/>
   </g>
  </g>
 </g>
</svg>