<?xml version="1.0" encoding="UTF-8"?>
<!DOCTYPE svg PUBLIC "-//W3C//DTD SVG 1.1//EN" "http://www.w3.org/Graphics/SVG/1.1/DTD/svg11.dtd">
<svg version="1.2" width="25.04mm" height="25.02mm" viewBox="31048 24500 2504 2502" preserveAspectRatio="xMidYMid" fill-rule="evenodd" stroke-width="28.222" stroke-linejoin="round" xmlns="http://www.w3.org/2000/svg" xmlns:ooo="http://xml.openoffice.org/svg/export" xmlns:xlink="http://www.w3.org/1999/xlink" xmlns:presentation="http://sun.com/xmlns/staroffice/presentation" xmlns:smil="http://www.w3.org/2001/SMIL20/" xmlns:anim="urn:oasis:names:tc:opendocument:xmlns:animation:1.0" xml:space="preserve">
 <defs class="EmbeddedBulletChars">
  <g id="bullet-char-template-57356" transform="scale(0.00048828125,-0.00048828125)">
   <path d="M 580,1141 L 1163,571 580,0 -4,571 580,1141 Z"/>
  </g>
  <g id="bullet-char-template-57354" transform="scale(0.00048828125,-0.00048828125)">
   <path d="M 8,1128 L 1137,1128 1137,0 8,0 8,1128 Z"/>
  </g>
  <g id="bullet-char-template-10146" transform="scale(0.00048828125,-0.00048828125)">
   <path d="M 174,0 L 602,739 174,1481 1456,739 174,0 Z M 1358,739 L 309,1346 659,739 1358,739 Z"/>
  </g>
  <g id="bullet-char-template-10132" transform="scale(0.00048828125,-0.00048828125)">
   <path d="M 2015,739 L 1276,0 717,0 1260,543 174,543 174,936 1260,936 717,1481 1274,1481 2015,739 Z"/>
  </g>
  <g id="bullet-char-template-10007" transform="scale(0.00048828125,-0.00048828125)">
   <path d="M 0,-2 C -7,14 -16,27 -25,37 L 356,567 C 262,823 215,952 215,954 215,979 228,992 255,992 264,992 276,990 289,987 310,991 331,999 354,1012 L 381,999 492,748 772,1049 836,1024 860,1049 C 881,1039 901,1025 922,1006 886,937 835,863 770,784 769,783 710,716 594,584 L 774,223 C 774,196 753,168 711,139 L 727,119 C 717,90 699,76 672,76 641,76 570,178 457,381 L 164,-76 C 142,-110 111,-127 72,-127 30,-127 9,-110 8,-76 1,-67 -2,-52 -2,-32 -2,-23 -1,-13 0,-2 Z"/>
  </g>
  <g id="bullet-char-template-10004" transform="scale(0.00048828125,-0.00048828125)">
   <path d="M 285,-33 C 182,-33 111,30 74,156 52,228 41,333 41,471 41,549 55,616 82,672 116,743 169,778 240,778 293,778 328,747 346,684 L 369,508 C 377,444 397,411 428,410 L 1163,1116 C 1174,1127 1196,1133 1229,1133 1271,1133 1292,1118 1292,1087 L 1292,965 C 1292,929 1282,901 1262,881 L 442,47 C 390,-6 338,-33 285,-33 Z"/>
  </g>
  <g id="bullet-char-template-9679" transform="scale(0.00048828125,-0.00048828125)">
   <path d="M 813,0 C 632,0 489,54 383,161 276,268 223,411 223,592 223,773 276,916 383,1023 489,1130 632,1184 813,1184 992,1184 1136,1130 1245,1023 1353,916 1407,772 1407,592 1407,412 1353,268 1245,161 1136,54 992,0 813,0 Z"/>
  </g>
  <g id="bullet-char-template-8226" transform="scale(0.00048828125,-0.00048828125)">
   <path d="M 346,457 C 273,457 209,483 155,535 101,586 74,649 74,723 74,796 101,859 155,911 209,963 273,989 346,989 419,989 480,963 531,910 582,859 608,796 608,723 608,648 583,586 532,535 482,483 420,457 346,457 Z"/>
  </g>
  <g id="bullet-char-template-8211" transform="scale(0.00048828125,-0.00048828125)">
   <path d="M -4,459 L 1135,459 1135,606 -4,606 -4,459 Z"/>
  </g>
  <g id="bullet-char-template-61548" transform="scale(0.00048828125,-0.00048828125)">
   <path d="M 173,740 C 173,903 231,1043 346,1159 462,1274 601,1332 765,1332 928,1332 1067,1274 1183,1159 1299,1043 1357,903 1357,740 1357,577 1299,437 1183,322 1067,206 928,148 765,148 601,148 462,206 346,322 231,437 173,577 173,740 Z"/>
  </g>
 </defs>
 <g class="Page">
  <g class="com.sun.star.drawing.PolyPolygonShape">
   <g id="id3">
    <rect class="BoundingBox" stroke="none" fill="none" x="31048" y="24500" width="2504" height="2502"/>
    <path fill="rgb(255,0,0)" stroke="none" d="M 33551,25750 L 33551,25719 33549,25688 33548,25658 33545,25627 33541,25596 33537,25566 33532,25536 33527,25506 33520,25476 33513,25446 33506,25416 33497,25387 33488,25357 33478,25328 33467,25300 33456,25271 33444,25243 33431,25215 33417,25187 33403,25160 33388,25133 33373,25107 33357,25081 33340,25055 33323,25030 33305,25005 33286,24980 33267,24956 33247,24933 33227,24910 33206,24888 33185,24866 33163,24844 33140,24823 33117,24803 33094,24783 33070,24764 33045,24745 33020,24728 32995,24710 32969,24693 32943,24677 32917,24662 32890,24647 32863,24633 32835,24620 32807,24607 32779,24595 32750,24583 32722,24573 32693,24563 32663,24553 32634,24545 32604,24537 32574,24530 32544,24523 32514,24518 32484,24513 32454,24509 32423,24505 32393,24503 32362,24501 32331,24500 32301,24500 32270,24500 32239,24501 32208,24503 32178,24505 32147,24509 32117,24513 32087,24518 32057,24523 32027,24530 31997,24537 31967,24545 31938,24553 31908,24563 31879,24573 31851,24583 31822,24595 31794,24607 31766,24620 31738,24633 31711,24647 31684,24662 31658,24677 31632,24693 31606,24710 31581,24728 31556,24745 31531,24764 31507,24783 31484,24803 31461,24823 31438,24844 31416,24866 31395,24888 31374,24910 31354,24933 31334,24956 31315,24980 31296,25005 31278,25030 31261,25055 31243,25081 31227,25107 31212,25133 31197,25160 31183,25187 31169,25215 31156,25243 31144,25271 31133,25300 31122,25328 31112,25357 31103,25387 31094,25416 31087,25446 31080,25476 31073,25506 31068,25536 31063,25566 31059,25596 31055,25627 31052,25658 31051,25688 31049,25719 31049,25749 31049,25780 31051,25811 31052,25841 31055,25872 31059,25903 31063,25933 31068,25963 31073,25993 31080,26023 31087,26053 31094,26083 31103,26112 31112,26142 31122,26171 31133,26199 31144,26228 31156,26257 31169,26285 31183,26313 31197,26340 31212,26367 31227,26393 31243,26419 31261,26445 31278,26470 31296,26495 31315,26520 31334,26544 31354,26567 31374,26590 31395,26612 31416,26634 31438,26656 31461,26677 31484,26697 31507,26717 31531,26736 31556,26755 31581,26772 31606,26790 31632,26807 31658,26823 31684,26838 31711,26853 31738,26867 31766,26880 31794,26893 31822,26905 31851,26917 31879,26927 31908,26937 31938,26947 31967,26955 31997,26963 32027,26970 32057,26977 32087,26982 32117,26987 32147,26991 32178,26995 32208,26997 32239,26999 32270,27000 32300,27001 32331,27000 32362,26999 32393,26997 32423,26995 32454,26991 32484,26987 32514,26982 32544,26977 32574,26970 32604,26963 32634,26955 32663,26947 32693,26937 32722,26927 32750,26917 32779,26905 32807,26893 32835,26880 32863,26867 32890,26853 32917,26838 32943,26823 32969,26807 32995,26790 33020,26772 33045,26755 33070,26736 33094,26717 33117,26697 33140,26677 33163,26656 33185,26634 33206,26612 33227,26590 33247,26567 33267,26544 33286,26520 33305,26495 33323,26470 33340,26445 33357,26419 33373,26393 33388,26367 33403,26340 33417,26313 33431,26285 33444,26257 33456,26228 33467,26199 33478,26171 33488,26142 33497,26112 33506,26083 33513,26053 33520,26023 33527,25993 33532,25963 33537,25933 33541,25903 33545,25872 33548,25841 33549,25811 33551,25780 33551,25750 Z"/>
   </g>
  </g>
  <g class="com.sun.star.drawing.PolyPolygonShape">
   <g id="id4">
    <rect class="BoundingBox" stroke="none" fill="none" x="31406" y="24857" width="1789" height="1787"/>
    <path fill="rgb(255,255,255)" stroke="none" d="M 33194,25750 L 33193,25728 33193,25706 33191,25684 33189,25662 33187,25640 33184,25618 33181,25597 33176,25575 33172,25554 33167,25533 33161,25511 33155,25490 33149,25469 33141,25449 33134,25428 33126,25408 33117,25388 33108,25368 33098,25348 33088,25329 33078,25309 33067,25291 33055,25272 33043,25253 33030,25235 33017,25218 33004,25200 32990,25183 32976,25166 32961,25150 32946,25134 32931,25118 32915,25103 32899,25088 32883,25073 32866,25059 32849,25046 32831,25032 32814,25020 32796,25007 32777,24995 32759,24984 32740,24973 32720,24962 32701,24952 32681,24942 32661,24933 32641,24925 32621,24916 32600,24909 32580,24902 32559,24895 32538,24889 32517,24883 32495,24878 32474,24874 32452,24870 32431,24866 32409,24863 32387,24861 32365,24859 32343,24858 32321,24857 32300,24857 32278,24857 32256,24858 32234,24859 32212,24861 32190,24863 32168,24866 32147,24870 32125,24874 32104,24878 32082,24883 32061,24889 32040,24895 32019,24902 31999,24909 31978,24916 31958,24925 31938,24933 31918,24942 31898,24952 31879,24962 31859,24973 31840,24984 31822,24995 31803,25007 31785,25020 31768,25032 31750,25046 31733,25059 31716,25073 31700,25088 31684,25103 31668,25118 31653,25134 31638,25150 31623,25166 31609,25183 31595,25200 31582,25218 31569,25235 31557,25253 31545,25272 31533,25291 31522,25309 31512,25329 31502,25348 31492,25368 31483,25388 31474,25408 31466,25428 31459,25449 31451,25469 31445,25490 31439,25511 31433,25533 31428,25554 31424,25575 31419,25597 31416,25618 31413,25640 31411,25662 31409,25684 31407,25706 31407,25728 31406,25749 31407,25771 31407,25793 31409,25815 31411,25837 31413,25859 31416,25881 31419,25903 31424,25925 31428,25946 31433,25968 31439,25989 31445,26010 31451,26031 31459,26051 31466,26072 31474,26092 31483,26112 31492,26132 31502,26152 31512,26171 31522,26191 31533,26210 31545,26228 31557,26247 31569,26265 31582,26282 31595,26300 31609,26317 31623,26334 31638,26350 31653,26366 31668,26382 31684,26397 31700,26412 31716,26427 31733,26441 31750,26454 31768,26468 31785,26481 31803,26493 31822,26505 31840,26516 31859,26527 31879,26538 31898,26548 31918,26558 31938,26567 31958,26575 31978,26584 31999,26591 32019,26598 32040,26605 32061,26611 32082,26617 32104,26622 32125,26626 32147,26630 32168,26634 32190,26637 32212,26639 32234,26641 32256,26642 32278,26643 32299,26643 32321,26643 32343,26642 32365,26641 32387,26639 32409,26637 32431,26634 32452,26630 32474,26626 32495,26622 32517,26617 32538,26611 32559,26605 32580,26598 32600,26591 32621,26584 32641,26575 32661,26567 32681,26558 32701,26548 32720,26538 32740,26527 32759,26516 32777,26505 32796,26493 32814,26481 32831,26468 32849,26454 32866,26441 32883,26427 32899,26412 32915,26397 32931,26382 32946,26366 32961,26350 32976,26334 32990,26317 33004,26300 33017,26282 33030,26265 33043,26247 33055,26228 33067,26210 33078,26191 33088,26171 33098,26152 33108,26132 33117,26112 33126,26092 33134,26072 33141,26051 33149,26031 33155,26010 33161,25989 33167,25968 33172,25946 33176,25925 33181,25903 33184,25881 33187,25859 33189,25837 33191,25815 33193,25793 33193,25771 33194,25750 Z"/>
   </g>
  </g>
  <g class="com.sun.star.drawing.PolyPolygonShape">
   <g id="id5">
    <rect class="BoundingBox" stroke="none" fill="none" x="31476" y="25478" width="1603" height="594"/>
    <path fill="rgb(0,0,0)" stroke="none" d="M 32239,25689 L 32236,25681 32234,25672 32232,25663 32231,25654 32229,25659 32227,25665 32225,25670 32225,25676 32225,25681 32226,25687 32227,25693 32229,25698 32232,25696 32235,25694 32237,25692 32239,25689 Z M 32238,25655 L 32238,25659 32239,25663 32239,25667 32240,25671 32241,25674 32243,25678 32245,25682 32247,25685 32250,25682 32252,25679 32254,25676 32256,25672 32257,25668 32257,25664 32257,25660 32257,25656 32248,25656 32238,25655 Z M 32220,25897 L 32154,25899 32144,25899 32133,25898 32123,25896 32113,25893 32112,25880 32111,25867 32109,25853 32106,25841 32102,25828 32098,25815 32093,25803 32087,25791 32084,25786 32080,25781 32076,25777 32072,25773 32067,25770 32061,25767 32056,25765 32050,25764 32049,25761 32048,25759 32046,25757 32044,25756 32036,25751 32027,25748 32018,25745 32010,25742 32001,25740 31991,25738 31982,25737 31973,25736 31959,25736 31946,25735 31932,25735 31918,25736 31904,25737 31891,25738 31877,25739 31863,25741 31934,25727 31967,25719 32001,25711 32034,25702 32066,25692 32099,25681 32131,25669 32163,25656 32194,25643 32198,25642 32202,25641 32205,25641 32209,25641 32209,25643 32210,25646 32211,25649 32213,25651 32214,25653 32216,25655 32218,25657 32221,25658 32220,25669 32219,25679 32218,25690 32218,25701 32213,25702 32209,25705 32205,25708 32203,25712 32170,25772 32169,25773 32168,25775 32167,25777 32167,25779 32167,25781 32167,25783 32168,25785 32169,25787 32165,25788 32161,25789 32157,25790 32153,25789 32149,25788 32145,25787 32142,25786 32138,25784 32136,25782 32133,25782 32131,25781 32128,25782 32126,25782 32124,25784 32122,25785 32120,25787 32131,25805 32134,25881 32220,25883 32220,25897 Z M 32248,25847 L 32140,25847 32139,25808 32147,25806 32160,25826 32183,25798 32196,25805 32227,25766 32247,25761 32248,25847 Z M 32068,25799 L 32067,25796 32065,25794 32063,25791 32060,25790 32058,25788 32055,25787 32051,25786 32048,25786 32046,25797 32044,25808 32042,25818 32040,25829 32039,25840 32038,25850 32037,25861 32037,25872 32086,25888 32085,25877 32083,25866 32081,25855 32079,25843 32077,25832 32074,25821 32071,25810 32068,25799 Z M 31526,25783 L 31533,25778 31540,25773 31547,25767 31554,25761 31560,25755 31566,25747 31572,25740 31577,25733 31585,25742 31593,25753 31600,25764 31605,25776 31586,25779 31566,25781 31546,25782 31526,25783 Z M 31636,26059 L 31640,26052 31640,26036 31640,26020 31638,26004 31636,25988 31636,25981 31636,25975 31638,25968 31641,25962 31661,25897 31653,25888 31646,25879 31639,25869 31633,25859 31629,25849 31624,25838 31621,25826 31619,25815 31618,25807 31615,25799 31612,25791 31608,25784 31517,25792 31511,25797 31509,25799 31506,25801 31503,25802 31499,25802 31496,25802 31493,25801 31490,25799 31488,25797 31485,25797 31483,25797 31480,25797 31478,25795 31477,25791 31477,25786 31477,25782 31478,25777 31479,25772 31480,25768 31482,25763 31484,25759 31521,25687 31519,25672 31530,25658 31540,25644 31548,25629 31556,25614 31559,25617 31562,25620 31564,25624 31566,25628 31571,25628 31576,25628 31581,25629 31586,25630 31591,25631 31596,25633 31601,25635 31605,25637 31610,25639 31614,25642 31618,25645 31622,25649 31625,25652 31629,25656 31632,25660 31635,25664 31645,25679 31657,25694 31669,25708 31682,25721 31689,25725 31697,25729 31704,25732 31712,25735 31720,25737 31728,25740 31736,25741 31744,25743 31752,25744 31760,25745 31768,25746 31776,25746 31785,25745 31793,25745 31801,25744 31809,25743 31864,25732 31919,25721 31955,25712 31990,25704 32026,25694 32061,25683 32096,25672 32131,25660 32165,25647 32200,25634 32203,25633 32207,25632 32211,25632 32216,25632 32220,25633 32224,25634 32227,25636 32231,25638 32233,25634 32236,25631 32239,25628 32243,25625 32247,25623 32251,25622 32255,25621 32260,25621 32264,25612 32267,25603 32272,25594 32276,25585 32281,25577 32286,25569 32292,25561 32298,25553 32300,25551 32301,25548 32301,25545 32301,25542 32300,25540 32298,25537 32295,25536 32293,25535 32291,25535 32288,25536 32286,25535 32284,25534 32283,25533 32281,25531 32281,25529 32280,25527 32281,25518 32280,25519 32278,25520 32277,25520 32276,25519 32275,25518 32274,25516 32274,25515 32275,25514 32277,25512 32279,25510 32281,25507 32282,25504 32282,25501 32282,25498 32281,25496 32279,25493 32276,25494 32273,25493 32270,25492 32268,25489 32269,25488 32270,25487 32271,25486 32273,25485 32274,25485 32276,25484 32278,25485 32279,25485 32284,25483 32290,25481 32295,25480 32300,25479 32306,25478 32311,25478 32317,25478 32322,25479 32326,25481 32330,25483 32333,25486 32334,25490 32335,25494 32334,25499 32332,25503 32330,25506 32331,25513 32332,25521 32331,25528 32330,25536 32336,25541 32341,25547 32346,25554 32350,25561 32353,25568 32355,25576 32357,25584 32357,25592 32358,25665 32346,25681 32362,25681 32379,25680 32395,25678 32411,25675 32427,25671 32442,25665 32457,25659 32472,25652 32475,25647 32478,25644 32482,25640 32487,25637 32491,25635 32496,25633 32501,25632 32506,25631 32515,25625 32525,25620 32535,25616 32546,25613 32556,25611 32567,25610 32578,25610 32589,25612 32593,25614 32598,25614 32603,25614 32607,25613 32612,25611 32617,25610 32622,25611 32627,25612 32632,25613 32638,25614 32644,25613 32649,25612 32656,25609 32664,25608 32671,25607 32678,25607 32680,25606 32683,25606 32685,25605 32687,25606 32689,25606 32692,25607 32694,25608 32696,25609 32700,25612 32704,25614 32709,25615 32713,25616 32718,25615 32723,25615 32727,25613 32731,25611 32736,25610 32740,25609 32744,25608 32749,25608 32753,25608 32757,25609 32762,25609 32766,25611 32771,25612 32775,25613 32781,25614 32786,25614 32791,25614 32796,25614 32801,25614 32805,25613 32810,25612 32815,25612 32819,25612 32824,25612 32828,25613 32833,25614 32837,25616 32842,25617 32844,25619 32847,25620 32850,25621 32853,25622 32856,25622 32859,25621 32862,25620 32865,25619 32869,25618 32873,25616 32877,25616 32882,25616 32886,25617 32891,25618 32894,25620 32898,25623 32904,25624 32910,25626 32916,25629 32921,25631 32926,25635 32931,25639 32935,25643 32939,25648 32946,25647 32953,25647 32960,25647 32967,25649 32974,25651 32980,25653 32986,25657 32992,25660 32999,25660 33007,25661 33014,25662 33021,25665 33028,25669 33034,25673 33039,25679 33044,25685 33049,25686 33053,25687 33058,25689 33062,25691 33066,25694 33070,25697 33074,25700 33078,25703 33078,25955 32946,25955 32946,25966 32945,25977 32942,25988 32939,25999 32934,26009 32929,26019 32922,26028 32915,26036 32906,26044 32898,26051 32888,26057 32878,26062 32867,26065 32857,26068 32846,26070 32834,26070 32823,26070 32812,26068 32801,26065 32791,26061 32781,26057 32770,26051 32761,26044 32753,26036 32746,26028 32740,26019 32734,26009 32729,25999 32726,25988 32724,25977 32722,25966 32722,25955 32344,25955 32344,25883 32268,25884 32268,25897 32326,25897 32327,25918 32266,25918 32273,25921 32279,25924 32284,25928 32290,25932 32295,25937 32300,25942 32304,25947 32308,25953 32311,25959 32313,25965 32315,25972 32317,25979 32318,25985 32318,25992 32318,25999 32317,26006 32315,26013 32313,26019 32311,26025 32308,26031 32304,26037 32300,26043 32295,26048 32290,26052 32285,26057 32279,26060 32273,26064 32267,26066 32260,26068 32253,26070 32247,26071 32240,26071 32233,26071 32226,26070 32219,26069 32213,26067 32207,26064 32200,26061 32195,26057 32189,26053 32184,26049 32179,26044 32175,26038 32171,26033 32168,26027 32165,26020 32163,26014 32162,26007 32161,26000 32160,25993 32160,25987 32161,25980 32163,25973 32165,25967 32167,25960 32170,25954 32174,25948 32178,25943 32182,25938 32187,25933 32193,25929 32198,25925 32204,25922 32211,25919 32148,25919 32141,25919 32134,25917 32127,25916 32121,25913 32117,25913 32114,25966 32093,25965 32085,25911 32064,25903 32044,25897 32046,25905 32049,25914 32052,25922 32055,25931 32059,25939 32063,25947 32067,25955 32071,25962 32070,25972 32069,25982 32069,25992 32070,26001 32072,26011 32075,26020 32078,26030 32082,26039 32090,26042 32075,26069 32072,26068 32069,26067 32067,26065 32065,26062 32063,26059 32063,26056 32062,26053 32063,26050 32061,26033 32058,26017 32054,26001 32049,25985 32048,25982 32047,25979 32045,25976 32043,25973 32041,25970 32039,25968 32036,25966 32033,25965 32001,25936 31947,26048 31948,26051 31949,26054 31949,26057 31949,26060 31948,26064 31946,26067 31944,26069 31941,26071 31919,26071 31919,26059 31921,26059 31924,26057 31926,26056 31928,26054 31930,26052 31932,26050 31933,26047 31934,26044 31938,26035 31941,26026 31944,26016 31947,26006 31949,25996 31950,25986 31951,25976 31951,25966 31950,25956 31949,25946 31947,25936 31945,25926 31942,25917 31938,25907 31934,25898 31929,25889 31908,25894 31887,25899 31866,25902 31844,25904 31823,25906 31801,25906 31779,25906 31758,25904 31757,25913 31756,25921 31756,25930 31757,25938 31758,25946 31759,25955 31762,25963 31764,25971 31768,25979 31772,25986 31776,25993 31781,26000 31786,26007 31792,26013 31798,26019 31804,26024 31820,26022 31822,26024 31825,26026 31826,26029 31827,26032 31828,26035 31828,26039 31827,26042 31825,26045 31822,26047 31819,26049 31816,26050 31813,26050 31796,26039 31780,26028 31764,26015 31750,26002 31736,25988 31723,25973 31712,25957 31701,25941 31690,25958 31680,25975 31668,25991 31657,26008 31656,26037 31662,26050 31659,26056 31658,26067 31655,26069 31653,26070 31650,26070 31647,26071 31644,26071 31641,26070 31639,26070 31636,26069 31636,26059 Z"/>
   </g>
  </g>
 </g>
</svg>