<?xml version="1.0" encoding="UTF-8"?>
<!DOCTYPE svg PUBLIC "-//W3C//DTD SVG 1.1//EN" "http://www.w3.org/Graphics/SVG/1.1/DTD/svg11.dtd">
<svg version="1.2" width="25.03mm" height="25.02mm" viewBox="34049 24500 2503 2502" preserveAspectRatio="xMidYMid" fill-rule="evenodd" stroke-width="28.222" stroke-linejoin="round" xmlns="http://www.w3.org/2000/svg" xmlns:ooo="http://xml.openoffice.org/svg/export" xmlns:xlink="http://www.w3.org/1999/xlink" xmlns:presentation="http://sun.com/xmlns/staroffice/presentation" xmlns:smil="http://www.w3.org/2001/SMIL20/" xmlns:anim="urn:oasis:names:tc:opendocument:xmlns:animation:1.0" xml:space="preserve">
 <defs class="EmbeddedBulletChars">
  <g id="bullet-char-template-57356" transform="scale(0.00048828125,-0.00048828125)">
   <path d="M 580,1141 L 1163,571 580,0 -4,571 580,1141 Z"/>
  </g>
  <g id="bullet-char-template-57354" transform="scale(0.00048828125,-0.00048828125)">
   <path d="M 8,1128 L 1137,1128 1137,0 8,0 8,1128 Z"/>
  </g>
  <g id="bullet-char-template-10146" transform="scale(0.00048828125,-0.00048828125)">
   <path d="M 174,0 L 602,739 174,1481 1456,739 174,0 Z M 1358,739 L 309,1346 659,739 1358,739 Z"/>
  </g>
  <g id="bullet-char-template-10132" transform="scale(0.00048828125,-0.00048828125)">
   <path d="M 2015,739 L 1276,0 717,0 1260,543 174,543 174,936 1260,936 717,1481 1274,1481 2015,739 Z"/>
  </g>
  <g id="bullet-char-template-10007" transform="scale(0.00048828125,-0.00048828125)">
   <path d="M 0,-2 C -7,14 -16,27 -25,37 L 356,567 C 262,823 215,952 215,954 215,979 228,992 255,992 264,992 276,990 289,987 310,991 331,999 354,1012 L 381,999 492,748 772,1049 836,1024 860,1049 C 881,1039 901,1025 922,1006 886,937 835,863 770,784 769,783 710,716 594,584 L 774,223 C 774,196 753,168 711,139 L 727,119 C 717,90 699,76 672,76 641,76 570,178 457,381 L 164,-76 C 142,-110 111,-127 72,-127 30,-127 9,-110 8,-76 1,-67 -2,-52 -2,-32 -2,-23 -1,-13 0,-2 Z"/>
  </g>
  <g id="bullet-char-template-10004" transform="scale(0.00048828125,-0.00048828125)">
   <path d="M 285,-33 C 182,-33 111,30 74,156 52,228 41,333 41,471 41,549 55,616 82,672 116,743 169,778 240,778 293,778 328,747 346,684 L 369,508 C 377,444 397,411 428,410 L 1163,1116 C 1174,1127 1196,1133 1229,1133 1271,1133 1292,1118 1292,1087 L 1292,965 C 1292,929 1282,901 1262,881 L 442,47 C 390,-6 338,-33 285,-33 Z"/>
  </g>
  <g id="bullet-char-template-9679" transform="scale(0.00048828125,-0.00048828125)">
   <path d="M 813,0 C 632,0 489,54 383,161 276,268 223,411 223,592 223,773 276,916 383,1023 489,1130 632,1184 813,1184 992,1184 1136,1130 1245,1023 1353,916 1407,772 1407,592 1407,412 1353,268 1245,161 1136,54 992,0 813,0 Z"/>
  </g>
  <g id="bullet-char-template-8226" transform="scale(0.00048828125,-0.00048828125)">
   <path d="M 346,457 C 273,457 209,483 155,535 101,586 74,649 74,723 74,796 101,859 155,911 209,963 273,989 346,989 419,989 480,963 531,910 582,859 608,796 608,723 608,648 583,586 532,535 482,483 420,457 346,457 Z"/>
  </g>
  <g id="bullet-char-template-8211" transform="scale(0.00048828125,-0.00048828125)">
   <path d="M -4,459 L 1135,459 1135,606 -4,606 -4,459 Z"/>
  </g>
  <g id="bullet-char-template-61548" transform="scale(0.00048828125,-0.00048828125)">
   <path d="M 173,740 C 173,903 231,1043 346,1159 462,1274 601,1332 765,1332 928,1332 1067,1274 1183,1159 1299,1043 1357,903 1357,740 1357,577 1299,437 1183,322 1067,206 928,148 765,148 601,148 462,206 346,322 231,437 173,577 173,740 Z"/>
  </g>
 </defs>
 <g class="Page">
  <g class="com.sun.star.drawing.PolyPolygonShape">
   <g id="id3">
    <rect class="BoundingBox" stroke="none" fill="none" x="34049" y="24500" width="2503" height="2502"/>
    <path fill="rgb(255,0,0)" stroke="none" d="M 36551,25750 L 36551,25719 36549,25688 36548,25658 36545,25627 36541,25596 36537,25566 36532,25536 36527,25506 36520,25476 36513,25446 36506,25416 36497,25387 36488,25357 36478,25328 36467,25300 36456,25271 36444,25243 36431,25215 36417,25187 36403,25160 36388,25133 36373,25107 36357,25081 36340,25055 36323,25030 36305,25005 36286,24980 36267,24956 36246,24933 36226,24910 36205,24888 36184,24866 36162,24844 36139,24823 36116,24803 36093,24783 36069,24764 36044,24745 36019,24728 35994,24710 35968,24693 35942,24677 35916,24662 35889,24647 35862,24633 35834,24620 35806,24607 35778,24595 35750,24583 35721,24573 35692,24563 35662,24553 35633,24545 35603,24537 35573,24530 35543,24523 35513,24518 35483,24513 35453,24509 35422,24505 35392,24503 35361,24501 35330,24500 35300,24500 35269,24500 35238,24501 35208,24503 35177,24505 35146,24509 35116,24513 35086,24518 35056,24523 35026,24530 34996,24537 34966,24545 34937,24553 34907,24563 34878,24573 34850,24583 34821,24595 34793,24607 34765,24620 34737,24633 34710,24647 34683,24662 34657,24677 34631,24693 34605,24710 34580,24728 34555,24745 34530,24764 34506,24783 34483,24803 34460,24823 34437,24844 34415,24866 34394,24888 34373,24910 34353,24933 34333,24956 34314,24980 34295,25005 34277,25030 34260,25055 34243,25081 34227,25107 34212,25133 34197,25160 34183,25187 34169,25215 34156,25243 34144,25271 34133,25300 34122,25328 34112,25357 34103,25387 34094,25416 34087,25446 34080,25476 34073,25506 34068,25536 34063,25566 34059,25596 34055,25627 34052,25658 34051,25688 34049,25719 34049,25749 34049,25780 34051,25811 34052,25841 34055,25872 34059,25903 34063,25933 34068,25963 34073,25993 34080,26023 34087,26053 34094,26083 34103,26112 34112,26142 34122,26171 34133,26199 34144,26228 34156,26257 34169,26285 34183,26313 34197,26340 34212,26367 34227,26393 34243,26419 34260,26445 34277,26470 34295,26495 34314,26520 34333,26544 34353,26567 34373,26590 34394,26612 34415,26634 34437,26656 34460,26677 34483,26697 34506,26717 34530,26736 34555,26755 34580,26772 34605,26790 34631,26807 34657,26823 34683,26838 34710,26853 34737,26867 34765,26880 34793,26893 34821,26905 34850,26917 34878,26927 34907,26937 34937,26947 34966,26955 34996,26963 35026,26970 35056,26977 35086,26982 35116,26987 35146,26991 35177,26995 35208,26997 35238,26999 35269,27000 35299,27001 35330,27000 35361,26999 35392,26997 35422,26995 35453,26991 35483,26987 35513,26982 35543,26977 35573,26970 35603,26963 35633,26955 35662,26947 35692,26937 35721,26927 35750,26917 35778,26905 35806,26893 35834,26880 35862,26867 35889,26853 35916,26838 35942,26823 35968,26807 35994,26790 36019,26772 36044,26755 36069,26736 36093,26717 36116,26697 36139,26677 36162,26656 36184,26634 36205,26612 36226,26590 36246,26567 36267,26544 36286,26520 36305,26495 36323,26470 36340,26445 36357,26419 36373,26393 36388,26367 36403,26340 36417,26313 36431,26285 36444,26257 36456,26228 36467,26199 36478,26171 36488,26142 36497,26112 36506,26083 36513,26053 36520,26023 36527,25993 36532,25963 36537,25933 36541,25903 36545,25872 36548,25841 36549,25811 36551,25780 36551,25750 Z"/>
   </g>
  </g>
  <g class="com.sun.star.drawing.PolyPolygonShape">
   <g id="id4">
    <rect class="BoundingBox" stroke="none" fill="none" x="34406" y="24857" width="1789" height="1787"/>
    <path fill="rgb(255,255,255)" stroke="none" d="M 36194,25750 L 36193,25728 36193,25706 36191,25684 36189,25662 36187,25640 36184,25618 36181,25597 36176,25575 36172,25554 36167,25533 36161,25511 36155,25490 36149,25469 36141,25449 36134,25428 36126,25408 36117,25388 36108,25368 36098,25348 36088,25329 36078,25309 36067,25291 36055,25272 36043,25253 36031,25235 36018,25218 36005,25200 35991,25183 35977,25166 35962,25150 35947,25134 35932,25118 35916,25103 35900,25088 35884,25073 35867,25059 35850,25046 35832,25032 35815,25020 35797,25007 35778,24995 35760,24984 35741,24973 35721,24962 35702,24952 35682,24942 35662,24933 35642,24925 35622,24916 35601,24909 35581,24902 35560,24895 35539,24889 35518,24883 35496,24878 35475,24874 35453,24870 35432,24866 35410,24863 35388,24861 35366,24859 35344,24858 35322,24857 35301,24857 35279,24857 35257,24858 35235,24859 35213,24861 35191,24863 35169,24866 35148,24870 35126,24874 35105,24878 35083,24883 35062,24889 35041,24895 35020,24902 35000,24909 34979,24916 34959,24925 34939,24933 34919,24942 34899,24952 34880,24962 34860,24973 34841,24984 34822,24995 34803,25007 34785,25020 34768,25032 34750,25046 34733,25059 34716,25073 34700,25088 34684,25103 34668,25118 34653,25134 34638,25150 34623,25166 34609,25183 34595,25200 34582,25218 34569,25235 34557,25253 34545,25272 34533,25291 34522,25309 34512,25329 34502,25348 34492,25368 34483,25388 34474,25408 34466,25428 34459,25449 34451,25469 34445,25490 34439,25511 34433,25533 34428,25554 34424,25575 34419,25597 34416,25618 34413,25640 34411,25662 34409,25684 34407,25706 34407,25728 34406,25749 34407,25771 34407,25793 34409,25815 34411,25837 34413,25859 34416,25881 34419,25903 34424,25925 34428,25946 34433,25968 34439,25989 34445,26010 34451,26031 34459,26051 34466,26072 34474,26092 34483,26112 34492,26132 34502,26152 34512,26171 34522,26191 34533,26210 34545,26228 34557,26247 34569,26265 34582,26282 34595,26300 34609,26317 34623,26334 34638,26350 34653,26366 34668,26382 34684,26397 34700,26412 34716,26427 34733,26441 34750,26454 34768,26468 34785,26481 34803,26493 34822,26505 34841,26516 34860,26527 34880,26538 34899,26548 34919,26558 34939,26567 34959,26575 34979,26584 35000,26591 35020,26598 35041,26605 35062,26611 35083,26617 35105,26622 35126,26626 35148,26630 35169,26634 35191,26637 35213,26639 35235,26641 35257,26642 35279,26643 35300,26643 35322,26643 35344,26642 35366,26641 35388,26639 35410,26637 35432,26634 35453,26630 35475,26626 35496,26622 35518,26617 35539,26611 35560,26605 35581,26598 35601,26591 35622,26584 35642,26575 35662,26567 35682,26558 35702,26548 35721,26538 35741,26527 35760,26516 35778,26505 35797,26493 35815,26481 35832,26468 35850,26454 35867,26441 35884,26427 35900,26412 35916,26397 35932,26382 35947,26366 35962,26350 35977,26334 35991,26317 36005,26300 36018,26282 36031,26265 36043,26247 36055,26228 36067,26210 36078,26191 36088,26171 36098,26152 36108,26132 36117,26112 36126,26092 36134,26072 36141,26051 36149,26031 36155,26010 36161,25989 36167,25968 36172,25946 36176,25925 36181,25903 36184,25881 36187,25859 36189,25837 36191,25815 36193,25793 36193,25771 36194,25750 Z"/>
   </g>
  </g>
  <g class="com.sun.star.drawing.PolyPolygonShape">
   <g id="id5">
    <rect class="BoundingBox" stroke="none" fill="none" x="34588" y="25077" width="1364" height="1290"/>
    <path fill="rgb(0,0,0)" stroke="none" d="M 35083,25491 L 35080,25495 35078,25500 35076,25504 35075,25509 35074,25511 35074,25513 35074,25514 35075,25516 35076,25518 35077,25519 35078,25520 35080,25521 35090,25524 35089,25516 35088,25507 35086,25499 35083,25491 Z M 35027,25461 L 35029,25465 35031,25469 35033,25473 35035,25476 35038,25479 35041,25482 35045,25484 35048,25487 35051,25488 35054,25489 35057,25490 35060,25490 35062,25490 35065,25489 35068,25488 35071,25486 35059,25508 35008,25471 35027,25461 Z M 34671,25609 L 34675,25602 34679,25596 34683,25591 34688,25585 34693,25580 34698,25575 34703,25570 34709,25565 34718,25557 34726,25548 34735,25538 34743,25529 34750,25519 34757,25509 34763,25498 34769,25487 34785,25499 34800,25511 34814,25524 34828,25538 34671,25609 Z M 35099,25529 L 35099,25521 35098,25513 35097,25505 35095,25497 35093,25491 35090,25486 35087,25481 35084,25476 35082,25473 35081,25469 35080,25466 35080,25462 35081,25459 35083,25456 35085,25453 35088,25451 35101,25466 35194,25415 35193,25429 35192,25442 35190,25455 35186,25468 35183,25481 35178,25493 35173,25505 35167,25517 35161,25525 35155,25533 35148,25540 35141,25547 35099,25529 Z M 35873,26316 L 35871,26317 35869,26318 35868,26320 35867,26322 35866,26328 35866,26334 35866,26341 35866,26348 35866,26365 35813,26365 35813,26356 35816,26348 35818,26341 35820,26332 35821,26327 35820,26322 35819,26316 35817,26312 35820,26302 35823,26292 35825,26282 35827,26272 35828,26262 35829,26252 35830,26241 35830,26231 35831,26217 35831,26202 35831,26188 35830,26173 35830,26164 35828,26155 35826,26147 35823,26139 35819,26131 35815,26123 35810,26116 35804,26109 35771,26075 35737,26042 35723,26029 35710,26014 35698,25999 35686,25983 35683,25995 35681,26006 35680,26018 35680,26030 35680,26035 35679,26041 35678,26046 35677,26051 35675,26056 35672,26061 35669,26066 35666,26070 35653,26085 35640,26099 35626,26113 35612,26126 35599,26138 35587,26149 35575,26161 35563,26173 35552,26185 35541,26198 35529,26210 35518,26223 35517,26243 35515,26245 35512,26247 35510,26249 35507,26251 35512,26256 35516,26261 35520,26267 35523,26274 35519,26278 35515,26282 35511,26286 35507,26289 35502,26291 35497,26294 35492,26295 35486,26297 35481,26293 35476,26289 35472,26284 35468,26278 35467,26274 35466,26270 35466,26266 35465,26261 35466,26257 35466,26253 35467,26249 35469,26245 35472,26234 35476,26223 35481,26213 35487,26203 35531,26134 35574,26065 35579,26056 35584,26048 35588,26039 35592,26030 35593,26026 35595,26022 35595,26018 35595,26014 35595,26011 35595,26007 35594,26003 35593,25999 35591,25992 35588,25986 35586,25980 35582,25973 35579,25968 35575,25962 35571,25956 35567,25951 35558,25938 35550,25924 35542,25911 35535,25897 35529,25882 35523,25867 35518,25852 35515,25837 35495,25846 35475,25855 35454,25863 35433,25869 35412,25875 35391,25880 35369,25884 35348,25887 35312,25890 35277,25893 35241,25895 35205,25896 35172,25921 35175,25937 35177,25952 35178,25968 35179,25984 35179,25999 35179,26015 35178,26031 35176,26046 35174,26060 35173,26074 35173,26088 35173,26102 35173,26110 35174,26118 35175,26126 35176,26134 35178,26142 35180,26150 35182,26157 35185,26165 35190,26180 35195,26194 35200,26209 35207,26223 35213,26238 35220,26252 35227,26266 35235,26279 35239,26286 35244,26293 35249,26299 35255,26305 35254,26308 35252,26312 35250,26315 35248,26318 35249,26320 35251,26322 35253,26324 35256,26324 35257,26334 35257,26344 35257,26355 35256,26365 35245,26366 35234,26366 35223,26366 35211,26365 35210,26362 35209,26359 35208,26355 35208,26352 35208,26349 35208,26346 35209,26342 35210,26339 35210,26333 35210,26326 35212,26320 35215,26314 35207,26297 35198,26280 35189,26263 35180,26246 35170,26230 35160,26214 35150,26198 35139,26182 35131,26172 35124,26161 35118,26150 35113,26138 35109,26125 35104,26112 35100,26099 35095,26086 35090,26074 35084,26061 35078,26049 35072,26037 35062,26017 35054,25997 35046,25976 35040,25955 35033,25957 35027,25959 35021,25962 35015,25966 34988,25983 34960,25999 34932,26015 34904,26031 34897,26035 34891,26039 34885,26044 34880,26049 34875,26055 34870,26061 34867,26067 34863,26074 34860,26081 34858,26088 34856,26095 34855,26103 34854,26110 34854,26118 34855,26125 34856,26133 34862,26158 34869,26183 34877,26208 34886,26233 34883,26234 34881,26235 34878,26237 34876,26239 34881,26247 34886,26255 34887,26258 34888,26262 34888,26266 34887,26269 34883,26274 34879,26278 34875,26282 34870,26286 34865,26289 34859,26292 34854,26294 34848,26297 34845,26290 34842,26284 34840,26277 34838,26270 34836,26262 34836,26255 34837,26247 34839,26240 34843,26225 34808,26104 34805,26094 34803,26084 34803,26075 34803,26065 34804,26055 34806,26045 34809,26036 34812,26026 34823,26010 34834,25994 34846,25978 34858,25963 34872,25949 34886,25935 34901,25923 34916,25911 34930,25900 34944,25889 34957,25878 34970,25866 34962,25856 34955,25845 34948,25834 34942,25823 34937,25811 34932,25799 34928,25787 34924,25774 34917,25744 34909,25714 34901,25684 34892,25654 34888,25640 34882,25625 34876,25611 34869,25597 34861,25584 34853,25571 34844,25559 34834,25547 34668,25621 34666,25622 34664,25623 34663,25625 34663,25627 34662,25632 34661,25636 34660,25637 34658,25639 34656,25640 34654,25640 34640,25641 34627,25640 34623,25635 34617,25635 34612,25635 34606,25634 34601,25632 34596,25631 34592,25629 34590,25626 34588,25624 34588,25621 34588,25617 34589,25602 34591,25586 34595,25570 34599,25555 34629,25464 34632,25453 34635,25441 34637,25430 34638,25418 34638,25413 34639,25409 34640,25404 34642,25399 34656,25361 34671,25323 34673,25315 34675,25307 34676,25298 34677,25290 34677,25281 34676,25272 34675,25264 34673,25255 34677,25259 34682,25263 34686,25267 34689,25271 34693,25276 34696,25281 34699,25286 34701,25292 34705,25282 34711,25272 34717,25263 34723,25255 34726,25252 34728,25250 34731,25249 34736,25248 34736,25264 34736,25280 34738,25285 34740,25290 34742,25295 34745,25299 34748,25303 34751,25307 34754,25311 34758,25315 34762,25318 34766,25321 34770,25324 34775,25327 34779,25329 34784,25331 34789,25332 34794,25334 34801,25336 34809,25338 34816,25340 34824,25343 34831,25346 34838,25350 34845,25353 34852,25357 34871,25369 34891,25381 34910,25393 34928,25406 34947,25420 34964,25434 34982,25448 34999,25463 35027,25449 35028,25445 35029,25441 35036,25437 35043,25435 35050,25433 35057,25431 35060,25430 35063,25429 35066,25426 35068,25424 35068,25414 35118,25391 35124,25387 35130,25384 35136,25379 35141,25375 35146,25369 35150,25364 35154,25358 35158,25352 35160,25345 35163,25338 35164,25331 35165,25324 35165,25317 35165,25310 35164,25303 35163,25296 35159,25287 35156,25279 35155,25270 35154,25261 35154,25252 35155,25243 35157,25234 35160,25226 35161,25223 35161,25220 35161,25217 35161,25215 35160,25212 35159,25210 35157,25207 35156,25205 35155,25204 35153,25204 35152,25204 35151,25204 35131,25208 35129,25208 35128,25208 35126,25207 35125,25205 35123,25199 35121,25192 35119,25184 35118,25177 35112,25177 35106,25175 35105,25174 35105,25173 35106,25158 35109,25143 35110,25134 35111,25125 35111,25120 35111,25114 35110,25113 35108,25112 35079,25112 35079,25109 35078,25107 35079,25105 35080,25103 35081,25101 35083,25100 35085,25099 35087,25098 35094,25098 35100,25097 35103,25096 35106,25095 35110,25094 35113,25092 35119,25087 35125,25083 35133,25080 35140,25078 35148,25077 35156,25077 35163,25079 35171,25081 35179,25084 35187,25086 35195,25088 35204,25090 35212,25092 35220,25093 35229,25094 35238,25094 35211,25170 35210,25173 35209,25176 35209,25180 35210,25184 35210,25186 35212,25187 35214,25187 35215,25186 35218,25183 35221,25181 35224,25180 35228,25180 35228,25199 35283,25260 35292,25270 35301,25281 35309,25292 35317,25304 35323,25316 35329,25328 35334,25341 35338,25354 35340,25362 35342,25370 35342,25379 35342,25387 35342,25395 35343,25403 35344,25412 35346,25419 35349,25427 35352,25435 35356,25442 35361,25449 35364,25454 35368,25460 35370,25465 35372,25471 35374,25477 35375,25484 35375,25490 35375,25496 35375,25499 35376,25501 35377,25503 35378,25505 35381,25505 35384,25504 35387,25502 35392,25498 35397,25493 35401,25488 35404,25483 35406,25480 35407,25478 35410,25476 35412,25474 35415,25473 35418,25472 35420,25471 35423,25471 35425,25471 35426,25472 35427,25473 35428,25474 35429,25479 35430,25484 35429,25490 35427,25495 35418,25516 35417,25518 35418,25520 35420,25521 35421,25521 35429,25520 35438,25519 35437,25522 35437,25525 35439,25528 35441,25529 35537,25517 35551,25516 35565,25514 35579,25513 35592,25512 35606,25512 35620,25512 35634,25513 35648,25514 35660,25515 35672,25518 35684,25521 35695,25525 35706,25530 35717,25536 35727,25542 35737,25550 35764,25554 35791,25559 35800,25560 35810,25562 35819,25565 35828,25568 35834,25571 35841,25575 35846,25579 35852,25584 35857,25589 35861,25594 35865,25600 35868,25606 35883,25646 35898,25685 35913,25724 35929,25763 35934,25773 35938,25784 35942,25794 35945,25805 35948,25816 35950,25827 35951,25838 35951,25850 35949,25852 35946,25853 35942,25855 35939,25856 35935,25856 35931,25856 35928,25855 35925,25854 35917,25851 35910,25850 35905,25852 35901,25854 35897,25857 35893,25860 35891,25861 35889,25862 35887,25863 35884,25863 35882,25862 35880,25860 35878,25859 35877,25856 35871,25844 35865,25831 35861,25817 35858,25804 35852,25779 35847,25755 35843,25730 35839,25705 35833,25646 35830,25636 35826,25627 35821,25619 35816,25611 35809,25604 35801,25598 35793,25592 35784,25588 35777,25585 35769,25582 35761,25580 35753,25578 35760,25589 35766,25600 35772,25612 35777,25624 35781,25636 35784,25649 35787,25662 35789,25674 35790,25684 35790,25695 35790,25705 35790,25715 35789,25725 35787,25735 35786,25745 35784,25755 35780,25768 35778,25781 35776,25795 35774,25809 35772,25822 35771,25836 35770,25850 35770,25864 35770,25873 35770,25882 35770,25891 35772,25900 35773,25909 35775,25918 35777,25927 35780,25935 35783,25944 35786,25952 35790,25960 35794,25968 35799,25976 35804,25984 35809,25991 35814,25999 35831,26019 35849,26038 35867,26057 35885,26075 35888,26078 35891,26082 35893,26086 35894,26090 35894,26094 35894,26098 35894,26102 35893,26106 35881,26170 35879,26182 35877,26194 35876,26207 35874,26219 35874,26232 35873,26244 35873,26256 35874,26269 35874,26281 35874,26293 35874,26304 35873,26316 Z"/>
   </g>
  </g>
 </g>
</svg>