<?xml version="1.0" encoding="UTF-8"?>
<!DOCTYPE svg PUBLIC "-//W3C//DTD SVG 1.1//EN" "http://www.w3.org/Graphics/SVG/1.1/DTD/svg11.dtd">
<svg version="1.2" width="25.03mm" height="25.02mm" viewBox="37049 24500 2503 2502" preserveAspectRatio="xMidYMid" fill-rule="evenodd" stroke-width="28.222" stroke-linejoin="round" xmlns="http://www.w3.org/2000/svg" xmlns:ooo="http://xml.openoffice.org/svg/export" xmlns:xlink="http://www.w3.org/1999/xlink" xmlns:presentation="http://sun.com/xmlns/staroffice/presentation" xmlns:smil="http://www.w3.org/2001/SMIL20/" xmlns:anim="urn:oasis:names:tc:opendocument:xmlns:animation:1.0" xml:space="preserve">
 <defs class="EmbeddedBulletChars">
  <g id="bullet-char-template-57356" transform="scale(0.00048828125,-0.00048828125)">
   <path d="M 580,1141 L 1163,571 580,0 -4,571 580,1141 Z"/>
  </g>
  <g id="bullet-char-template-57354" transform="scale(0.00048828125,-0.00048828125)">
   <path d="M 8,1128 L 1137,1128 1137,0 8,0 8,1128 Z"/>
  </g>
  <g id="bullet-char-template-10146" transform="scale(0.00048828125,-0.00048828125)">
   <path d="M 174,0 L 602,739 174,1481 1456,739 174,0 Z M 1358,739 L 309,1346 659,739 1358,739 Z"/>
  </g>
  <g id="bullet-char-template-10132" transform="scale(0.00048828125,-0.00048828125)">
   <path d="M 2015,739 L 1276,0 717,0 1260,543 174,543 174,936 1260,936 717,1481 1274,1481 2015,739 Z"/>
  </g>
  <g id="bullet-char-template-10007" transform="scale(0.00048828125,-0.00048828125)">
   <path d="M 0,-2 C -7,14 -16,27 -25,37 L 356,567 C 262,823 215,952 215,954 215,979 228,992 255,992 264,992 276,990 289,987 310,991 331,999 354,1012 L 381,999 492,748 772,1049 836,1024 860,1049 C 881,1039 901,1025 922,1006 886,937 835,863 770,784 769,783 710,716 594,584 L 774,223 C 774,196 753,168 711,139 L 727,119 C 717,90 699,76 672,76 641,76 570,178 457,381 L 164,-76 C 142,-110 111,-127 72,-127 30,-127 9,-110 8,-76 1,-67 -2,-52 -2,-32 -2,-23 -1,-13 0,-2 Z"/>
  </g>
  <g id="bullet-char-template-10004" transform="scale(0.00048828125,-0.00048828125)">
   <path d="M 285,-33 C 182,-33 111,30 74,156 52,228 41,333 41,471 41,549 55,616 82,672 116,743 169,778 240,778 293,778 328,747 346,684 L 369,508 C 377,444 397,411 428,410 L 1163,1116 C 1174,1127 1196,1133 1229,1133 1271,1133 1292,1118 1292,1087 L 1292,965 C 1292,929 1282,901 1262,881 L 442,47 C 390,-6 338,-33 285,-33 Z"/>
  </g>
  <g id="bullet-char-template-9679" transform="scale(0.00048828125,-0.00048828125)">
   <path d="M 813,0 C 632,0 489,54 383,161 276,268 223,411 223,592 223,773 276,916 383,1023 489,1130 632,1184 813,1184 992,1184 1136,1130 1245,1023 1353,916 1407,772 1407,592 1407,412 1353,268 1245,161 1136,54 992,0 813,0 Z"/>
  </g>
  <g id="bullet-char-template-8226" transform="scale(0.00048828125,-0.00048828125)">
   <path d="M 346,457 C 273,457 209,483 155,535 101,586 74,649 74,723 74,796 101,859 155,911 209,963 273,989 346,989 419,989 480,963 531,910 582,859 608,796 608,723 608,648 583,586 532,535 482,483 420,457 346,457 Z"/>
  </g>
  <g id="bullet-char-template-8211" transform="scale(0.00048828125,-0.00048828125)">
   <path d="M -4,459 L 1135,459 1135,606 -4,606 -4,459 Z"/>
  </g>
  <g id="bullet-char-template-61548" transform="scale(0.00048828125,-0.00048828125)">
   <path d="M 173,740 C 173,903 231,1043 346,1159 462,1274 601,1332 765,1332 928,1332 1067,1274 1183,1159 1299,1043 1357,903 1357,740 1357,577 1299,437 1183,322 1067,206 928,148 765,148 601,148 462,206 346,322 231,437 173,577 173,740 Z"/>
  </g>
 </defs>
 <g class="Page">
  <g class="com.sun.star.drawing.PolyPolygonShape">
   <g id="id3">
    <rect class="BoundingBox" stroke="none" fill="none" x="37049" y="24500" width="2503" height="2502"/>
    <path fill="rgb(255,0,0)" stroke="none" d="M 39551,25750 L 39551,25719 39549,25688 39548,25658 39545,25627 39541,25596 39537,25566 39532,25536 39527,25506 39520,25476 39513,25446 39506,25416 39497,25387 39488,25357 39478,25328 39467,25300 39456,25271 39444,25243 39431,25215 39417,25187 39403,25160 39388,25133 39373,25107 39357,25081 39340,25055 39323,25030 39305,25005 39286,24980 39267,24956 39247,24933 39227,24910 39206,24888 39185,24866 39163,24844 39140,24823 39117,24803 39094,24783 39070,24764 39045,24745 39020,24728 38995,24710 38969,24693 38943,24677 38917,24662 38890,24647 38863,24633 38835,24620 38807,24607 38779,24595 38749,24583 38721,24573 38692,24563 38662,24553 38633,24545 38603,24537 38573,24530 38543,24523 38513,24518 38483,24513 38453,24509 38422,24505 38392,24503 38361,24501 38330,24500 38300,24500 38269,24500 38238,24501 38207,24503 38177,24505 38146,24509 38116,24513 38086,24518 38056,24523 38026,24530 37996,24537 37966,24545 37937,24553 37907,24563 37878,24573 37850,24583 37821,24595 37793,24607 37765,24620 37737,24633 37710,24647 37683,24662 37657,24677 37631,24693 37605,24710 37579,24728 37555,24745 37530,24764 37506,24783 37483,24803 37460,24823 37437,24844 37415,24866 37394,24888 37373,24910 37353,24933 37333,24956 37314,24980 37295,25005 37277,25030 37260,25055 37243,25081 37227,25107 37212,25133 37197,25160 37183,25187 37169,25215 37156,25243 37144,25271 37133,25300 37122,25328 37112,25357 37103,25387 37094,25416 37087,25446 37080,25476 37073,25506 37068,25536 37063,25566 37059,25596 37055,25627 37052,25658 37051,25688 37049,25719 37049,25749 37049,25780 37051,25811 37052,25841 37055,25872 37059,25903 37063,25933 37068,25963 37073,25993 37080,26023 37087,26053 37094,26083 37103,26112 37112,26142 37122,26171 37133,26199 37144,26228 37156,26257 37169,26285 37183,26313 37197,26340 37212,26367 37227,26393 37243,26419 37260,26445 37277,26470 37295,26495 37314,26520 37333,26544 37353,26567 37373,26590 37394,26612 37415,26634 37437,26656 37460,26677 37483,26697 37506,26717 37530,26736 37555,26755 37579,26772 37605,26790 37631,26807 37657,26823 37683,26838 37710,26853 37737,26867 37765,26880 37793,26893 37821,26905 37850,26917 37878,26927 37907,26937 37937,26947 37966,26955 37996,26963 38026,26970 38056,26977 38086,26982 38116,26987 38146,26991 38177,26995 38207,26997 38238,26999 38269,27000 38299,27001 38330,27000 38361,26999 38392,26997 38422,26995 38453,26991 38483,26987 38513,26982 38543,26977 38573,26970 38603,26963 38633,26955 38662,26947 38692,26937 38721,26927 38749,26917 38779,26905 38807,26893 38835,26880 38863,26867 38890,26853 38917,26838 38943,26823 38969,26807 38995,26790 39020,26772 39045,26755 39070,26736 39094,26717 39117,26697 39140,26677 39163,26656 39185,26634 39206,26612 39227,26590 39247,26567 39267,26544 39286,26520 39305,26495 39323,26470 39340,26445 39357,26419 39373,26393 39388,26367 39403,26340 39417,26313 39431,26285 39444,26257 39456,26228 39467,26199 39478,26171 39488,26142 39497,26112 39506,26083 39513,26053 39520,26023 39527,25993 39532,25963 39537,25933 39541,25903 39545,25872 39548,25841 39549,25811 39551,25780 39551,25750 Z"/>
   </g>
  </g>
  <g class="com.sun.star.drawing.PolyPolygonShape">
   <g id="id4">
    <rect class="BoundingBox" stroke="none" fill="none" x="37406" y="24857" width="1789" height="1787"/>
    <path fill="rgb(255,255,255)" stroke="none" d="M 39194,25750 L 39193,25728 39193,25706 39191,25684 39189,25662 39187,25640 39184,25618 39181,25597 39176,25575 39172,25554 39167,25533 39161,25511 39155,25490 39149,25469 39141,25449 39134,25428 39126,25408 39117,25388 39108,25368 39098,25348 39088,25329 39078,25309 39067,25291 39055,25272 39043,25253 39031,25235 39018,25218 39005,25200 38991,25183 38977,25166 38962,25150 38947,25134 38932,25118 38916,25103 38900,25088 38884,25073 38867,25059 38850,25046 38832,25032 38815,25020 38797,25007 38778,24995 38760,24984 38741,24973 38721,24962 38702,24952 38682,24942 38662,24933 38642,24925 38622,24916 38601,24909 38581,24902 38560,24895 38539,24889 38518,24883 38496,24878 38475,24874 38453,24870 38432,24866 38410,24863 38387,24861 38365,24859 38343,24858 38321,24857 38300,24857 38278,24857 38256,24858 38234,24859 38212,24861 38190,24863 38168,24866 38147,24870 38125,24874 38104,24878 38082,24883 38061,24889 38040,24895 38019,24902 37999,24909 37978,24916 37958,24925 37938,24933 37918,24942 37898,24952 37879,24962 37859,24973 37840,24984 37822,24995 37803,25007 37785,25020 37768,25032 37750,25046 37733,25059 37716,25073 37700,25088 37684,25103 37668,25118 37653,25134 37638,25150 37623,25166 37609,25183 37595,25200 37582,25218 37569,25235 37557,25253 37545,25272 37533,25291 37522,25309 37512,25329 37502,25348 37492,25368 37483,25388 37474,25408 37466,25428 37459,25449 37451,25469 37445,25490 37439,25511 37433,25533 37428,25554 37424,25575 37419,25597 37416,25618 37413,25640 37411,25662 37409,25684 37407,25706 37407,25728 37406,25749 37407,25771 37407,25793 37409,25815 37411,25837 37413,25859 37416,25881 37419,25903 37424,25925 37428,25946 37433,25968 37439,25989 37445,26010 37451,26031 37459,26051 37466,26072 37474,26092 37483,26112 37492,26132 37502,26152 37512,26171 37522,26191 37533,26210 37545,26228 37557,26247 37569,26265 37582,26282 37595,26300 37609,26317 37623,26334 37638,26350 37653,26366 37668,26382 37684,26397 37700,26412 37716,26427 37733,26441 37750,26454 37768,26468 37785,26481 37803,26493 37822,26505 37840,26516 37859,26527 37879,26538 37898,26548 37918,26558 37938,26567 37958,26575 37978,26584 37999,26591 38019,26598 38040,26605 38061,26611 38082,26617 38104,26622 38125,26626 38147,26630 38168,26634 38190,26637 38212,26639 38234,26641 38256,26642 38278,26643 38299,26643 38321,26643 38343,26642 38365,26641 38387,26639 38410,26637 38432,26634 38453,26630 38475,26626 38496,26622 38518,26617 38539,26611 38560,26605 38581,26598 38601,26591 38622,26584 38642,26575 38662,26567 38682,26558 38702,26548 38721,26538 38741,26527 38760,26516 38778,26505 38797,26493 38815,26481 38832,26468 38850,26454 38867,26441 38884,26427 38900,26412 38916,26397 38932,26382 38947,26366 38962,26350 38977,26334 38991,26317 39005,26300 39018,26282 39031,26265 39043,26247 39055,26228 39067,26210 39078,26191 39088,26171 39098,26152 39108,26132 39117,26112 39126,26092 39134,26072 39141,26051 39149,26031 39155,26010 39161,25989 39167,25968 39172,25946 39176,25925 39181,25903 39184,25881 39187,25859 39189,25837 39191,25815 39193,25793 39193,25771 39194,25750 Z"/>
   </g>
  </g>
  <g class="com.sun.star.drawing.PolyPolygonShape">
   <g id="id5">
    <rect class="BoundingBox" stroke="none" fill="none" x="37498" y="25434" width="1551" height="679"/>
    <path fill="rgb(0,0,0)" stroke="none" d="M 37874,26060 L 37857,25991 37861,25990 37865,25987 37870,25984 37874,25982 37879,25990 37884,25997 37890,26004 37896,26011 37903,26017 37910,26023 37917,26028 37924,26033 37918,26038 37913,26042 37906,26046 37900,26049 37894,26053 37887,26055 37881,26058 37874,26060 Z M 37900,25947 L 37897,25941 37895,25934 37893,25927 37891,25920 37957,25903 37958,25907 37959,25912 37961,25916 37963,25920 37900,25947 Z M 37919,25977 L 37927,25985 37934,25993 37942,25999 37951,26005 37957,25994 37962,25982 37966,25970 37969,25958 37919,25977 Z M 38016,26026 L 38010,26025 38003,26024 37997,26023 37990,26022 37995,26014 37998,26006 38002,25998 38005,25989 38008,25980 38010,25971 38012,25962 38014,25954 38015,25954 38016,26026 Z M 38049,25947 L 38085,26012 38079,26014 38072,26017 38066,26019 38059,26021 38052,26023 38046,26024 38039,26025 38032,26026 38030,25953 38035,25952 38040,25951 38045,25949 38049,25947 Z M 38075,25923 L 38135,25967 38127,25976 38119,25985 38111,25994 38101,26002 38062,25938 38065,25935 38069,25931 38072,25927 38075,25923 Z M 38158,25880 L 38159,25889 38158,25898 38157,25907 38156,25916 38154,25925 38151,25934 38148,25943 38144,25951 38080,25911 38082,25904 38084,25897 38158,25880 Z M 38146,25833 L 38077,25860 38079,25864 38081,25869 38082,25874 38083,25880 38156,25863 38154,25856 38152,25848 38149,25841 38146,25833 Z M 37775,25946 L 37711,25995 37707,25987 37704,25980 37701,25973 37698,25966 37696,25959 37695,25951 37693,25943 37693,25936 37773,25935 37773,25941 37775,25946 Z M 37772,26052 L 37765,26048 37758,26044 37751,26040 37745,26035 37738,26030 37733,26024 37727,26018 37722,26012 37780,25959 37783,25965 37787,25970 37792,25975 37797,25980 37772,26052 Z M 37857,26064 L 37849,26065 37841,26066 37832,26066 37824,26066 37815,26065 37807,26064 37799,26062 37791,26060 37813,25990 37820,25992 37827,25994 37835,25995 37842,25994 37857,26064 Z M 39016,26104 L 39048,26094 39041,26072 39043,26068 39043,26064 39044,26059 39043,26055 38975,25845 38973,25836 38971,25827 38970,25818 38969,25809 38969,25799 38970,25790 38972,25781 38974,25772 38976,25763 38977,25754 38977,25745 38976,25737 38974,25728 38971,25719 38967,25711 38962,25704 38964,25696 38965,25689 38966,25681 38967,25674 38967,25666 38966,25658 38966,25651 38964,25643 38963,25636 38961,25628 38959,25621 38956,25614 38953,25607 38949,25600 38945,25594 38941,25587 38940,25580 38939,25573 38937,25566 38934,25559 38931,25552 38928,25546 38924,25540 38920,25534 38915,25529 38909,25524 38904,25519 38898,25515 38892,25511 38885,25508 38879,25505 38872,25503 38865,25500 38859,25497 38854,25492 38850,25487 38849,25481 38849,25475 38847,25470 38846,25464 38844,25459 38842,25453 38839,25448 38836,25443 38832,25440 38828,25438 38823,25436 38818,25435 38813,25434 38808,25434 38803,25434 38798,25435 38793,25436 38788,25438 38784,25440 38779,25442 38775,25445 38772,25448 38768,25452 38765,25456 38764,25461 38764,25466 38764,25471 38765,25476 38766,25480 38768,25485 38770,25489 38773,25494 38772,25518 38779,25518 38781,25522 38784,25526 38788,25530 38793,25532 38797,25534 38802,25534 38807,25534 38812,25532 38821,25625 38817,25629 38813,25631 38808,25633 38803,25633 38798,25633 38793,25632 38789,25629 38785,25627 38781,25625 38777,25624 38773,25624 38769,25625 38765,25626 38761,25628 38758,25630 38755,25633 38753,25636 38751,25639 38749,25641 38746,25643 38743,25644 38740,25645 38736,25645 38733,25644 38691,25657 38648,25670 38606,25684 38564,25698 38522,25713 38480,25728 38439,25743 38397,25758 38379,25765 38360,25771 38341,25777 38322,25782 38303,25786 38284,25790 38264,25793 38245,25795 38264,25781 38258,25764 38230,25773 38205,25692 38204,25688 38202,25685 38200,25681 38198,25678 38195,25675 38192,25672 38189,25670 38186,25668 38182,25666 38179,25665 38175,25663 38171,25663 38167,25662 38163,25662 38159,25663 38155,25663 38078,25686 38071,25674 38067,25670 38063,25666 38058,25663 38053,25661 38047,25660 38042,25660 38036,25661 38031,25663 37516,25801 37511,25804 37506,25808 37503,25812 37500,25817 37499,25823 37499,25829 37499,25835 37501,25840 37529,25950 37658,25944 37659,25956 37662,25969 37665,25982 37669,25995 37674,26006 37680,26018 37687,26029 37694,26039 37702,26049 37711,26058 37721,26067 37731,26075 37742,26082 37753,26088 37764,26094 37776,26099 37788,26103 37801,26106 37813,26108 37826,26109 37839,26109 37852,26108 37865,26107 37877,26104 37890,26101 37902,26096 37913,26091 37925,26085 37937,26078 37947,26071 37957,26062 37966,26053 37978,26057 37990,26060 38002,26062 38014,26063 38026,26063 38038,26062 38050,26061 38062,26059 38074,26056 38085,26052 38097,26047 38108,26042 38118,26035 38128,26029 38138,26021 38147,26013 38155,26004 38163,25995 38170,25984 38177,25974 38182,25963 38187,25952 38192,25940 38195,25929 38198,25917 38199,25905 38201,25893 38201,25881 38200,25868 38198,25856 38196,25844 38193,25833 38225,25810 38247,25809 38269,25808 38291,25805 38313,25801 38335,25796 38356,25791 38377,25783 38398,25775 38440,25758 38482,25742 38525,25726 38568,25711 38611,25697 38654,25683 38698,25671 38741,25659 38749,25657 38757,25657 38769,25660 38781,25663 38782,25667 38784,25671 38787,25674 38790,25676 38794,25677 38798,25677 38802,25676 38805,25673 38833,25667 38835,25677 38838,25688 38841,25698 38845,25708 38849,25718 38854,25728 38859,25738 38865,25747 38807,25876 38803,25884 38801,25893 38800,25902 38799,25911 38799,25920 38800,25929 38802,25938 38804,25947 38812,25970 38819,25995 38825,26019 38831,26044 38831,26047 38831,26051 38831,26055 38830,26058 38828,26062 38826,26065 38824,26068 38821,26070 38817,26070 38813,26070 38809,26071 38806,26072 38802,26074 38799,26076 38796,26078 38793,26081 38792,26084 38790,26087 38790,26090 38791,26093 38793,26096 38795,26098 38798,26099 38801,26100 38809,26099 38817,26098 38825,26096 38833,26094 38841,26092 38848,26088 38856,26085 38863,26081 38866,26092 38885,26085 38886,26082 38887,26079 38888,26075 38888,26071 38887,26067 38886,26064 38884,26061 38881,26058 38895,26050 38870,25950 38869,25941 38867,25932 38867,25922 38868,25913 38869,25903 38871,25894 38874,25885 38878,25877 38904,25838 38971,26061 38971,26065 38971,26070 38970,26073 38969,26077 38966,26081 38963,26083 38959,26085 38955,26086 38952,26088 38948,26090 38946,26093 38945,26097 38944,26101 38945,26104 38947,26108 38950,26111 38958,26110 38966,26108 38974,26107 38982,26105 38990,26102 38998,26100 39005,26097 39013,26093 39016,26104 Z"/>
   </g>
  </g>
 </g>
</svg>