<?xml version="1.0" encoding="UTF-8"?>
<!DOCTYPE svg PUBLIC "-//W3C//DTD SVG 1.1//EN" "http://www.w3.org/Graphics/SVG/1.1/DTD/svg11.dtd">
<svg version="1.2" width="25.03mm" height="25.02mm" viewBox="40049 24500 2503 2502" preserveAspectRatio="xMidYMid" fill-rule="evenodd" stroke-width="28.222" stroke-linejoin="round" xmlns="http://www.w3.org/2000/svg" xmlns:ooo="http://xml.openoffice.org/svg/export" xmlns:xlink="http://www.w3.org/1999/xlink" xmlns:presentation="http://sun.com/xmlns/staroffice/presentation" xmlns:smil="http://www.w3.org/2001/SMIL20/" xmlns:anim="urn:oasis:names:tc:opendocument:xmlns:animation:1.0" xml:space="preserve">
 <defs class="EmbeddedBulletChars">
  <g id="bullet-char-template-57356" transform="scale(0.00048828125,-0.00048828125)">
   <path d="M 580,1141 L 1163,571 580,0 -4,571 580,1141 Z"/>
  </g>
  <g id="bullet-char-template-57354" transform="scale(0.00048828125,-0.00048828125)">
   <path d="M 8,1128 L 1137,1128 1137,0 8,0 8,1128 Z"/>
  </g>
  <g id="bullet-char-template-10146" transform="scale(0.00048828125,-0.00048828125)">
   <path d="M 174,0 L 602,739 174,1481 1456,739 174,0 Z M 1358,739 L 309,1346 659,739 1358,739 Z"/>
  </g>
  <g id="bullet-char-template-10132" transform="scale(0.00048828125,-0.00048828125)">
   <path d="M 2015,739 L 1276,0 717,0 1260,543 174,543 174,936 1260,936 717,1481 1274,1481 2015,739 Z"/>
  </g>
  <g id="bullet-char-template-10007" transform="scale(0.00048828125,-0.00048828125)">
   <path d="M 0,-2 C -7,14 -16,27 -25,37 L 356,567 C 262,823 215,952 215,954 215,979 228,992 255,992 264,992 276,990 289,987 310,991 331,999 354,1012 L 381,999 492,748 772,1049 836,1024 860,1049 C 881,1039 901,1025 922,1006 886,937 835,863 770,784 769,783 710,716 594,584 L 774,223 C 774,196 753,168 711,139 L 727,119 C 717,90 699,76 672,76 641,76 570,178 457,381 L 164,-76 C 142,-110 111,-127 72,-127 30,-127 9,-110 8,-76 1,-67 -2,-52 -2,-32 -2,-23 -1,-13 0,-2 Z"/>
  </g>
  <g id="bullet-char-template-10004" transform="scale(0.00048828125,-0.00048828125)">
   <path d="M 285,-33 C 182,-33 111,30 74,156 52,228 41,333 41,471 41,549 55,616 82,672 116,743 169,778 240,778 293,778 328,747 346,684 L 369,508 C 377,444 397,411 428,410 L 1163,1116 C 1174,1127 1196,1133 1229,1133 1271,1133 1292,1118 1292,1087 L 1292,965 C 1292,929 1282,901 1262,881 L 442,47 C 390,-6 338,-33 285,-33 Z"/>
  </g>
  <g id="bullet-char-template-9679" transform="scale(0.00048828125,-0.00048828125)">
   <path d="M 813,0 C 632,0 489,54 383,161 276,268 223,411 223,592 223,773 276,916 383,1023 489,1130 632,1184 813,1184 992,1184 1136,1130 1245,1023 1353,916 1407,772 1407,592 1407,412 1353,268 1245,161 1136,54 992,0 813,0 Z"/>
  </g>
  <g id="bullet-char-template-8226" transform="scale(0.00048828125,-0.00048828125)">
   <path d="M 346,457 C 273,457 209,483 155,535 101,586 74,649 74,723 74,796 101,859 155,911 209,963 273,989 346,989 419,989 480,963 531,910 582,859 608,796 608,723 608,648 583,586 532,535 482,483 420,457 346,457 Z"/>
  </g>
  <g id="bullet-char-template-8211" transform="scale(0.00048828125,-0.00048828125)">
   <path d="M -4,459 L 1135,459 1135,606 -4,606 -4,459 Z"/>
  </g>
  <g id="bullet-char-template-61548" transform="scale(0.00048828125,-0.00048828125)">
   <path d="M 173,740 C 173,903 231,1043 346,1159 462,1274 601,1332 765,1332 928,1332 1067,1274 1183,1159 1299,1043 1357,903 1357,740 1357,577 1299,437 1183,322 1067,206 928,148 765,148 601,148 462,206 346,322 231,437 173,577 173,740 Z"/>
  </g>
 </defs>
 <g class="Page">
  <g class="com.sun.star.drawing.PolyPolygonShape">
   <g id="id3">
    <rect class="BoundingBox" stroke="none" fill="none" x="40049" y="24500" width="2503" height="2502"/>
    <path fill="rgb(255,0,0)" stroke="none" d="M 42551,25750 L 42551,25719 42549,25688 42548,25658 42545,25627 42541,25596 42537,25566 42532,25536 42527,25506 42520,25476 42513,25446 42506,25416 42497,25387 42488,25357 42478,25328 42467,25300 42456,25271 42444,25243 42431,25215 42417,25187 42403,25160 42388,25133 42373,25107 42357,25081 42340,25055 42323,25030 42305,25005 42286,24980 42267,24956 42247,24933 42227,24910 42206,24888 42185,24866 42163,24844 42140,24823 42117,24803 42094,24783 42070,24764 42045,24745 42020,24728 41995,24710 41969,24693 41943,24677 41917,24662 41890,24647 41863,24633 41835,24620 41807,24607 41779,24595 41751,24583 41722,24573 41693,24563 41663,24553 41634,24545 41604,24537 41574,24530 41544,24523 41514,24518 41484,24513 41454,24509 41423,24505 41393,24503 41362,24501 41331,24500 41301,24500 41270,24500 41238,24501 41207,24503 41177,24505 41146,24509 41116,24513 41086,24518 41056,24523 41026,24530 40996,24537 40966,24545 40937,24553 40907,24563 40878,24573 40850,24583 40821,24595 40793,24607 40765,24620 40737,24633 40710,24647 40683,24662 40657,24677 40631,24693 40605,24710 40579,24728 40555,24745 40530,24764 40506,24783 40483,24803 40460,24823 40437,24844 40415,24866 40394,24888 40373,24910 40353,24933 40333,24956 40314,24980 40295,25005 40277,25030 40260,25055 40243,25081 40227,25107 40212,25133 40197,25160 40183,25187 40169,25215 40156,25243 40144,25271 40133,25300 40122,25328 40112,25357 40103,25387 40094,25416 40087,25446 40080,25476 40073,25506 40068,25536 40063,25566 40059,25596 40055,25627 40052,25658 40051,25688 40049,25719 40049,25749 40049,25780 40051,25811 40052,25841 40055,25872 40059,25903 40063,25933 40068,25963 40073,25993 40080,26023 40087,26053 40094,26083 40103,26112 40112,26142 40122,26171 40133,26199 40144,26228 40156,26257 40169,26285 40183,26313 40197,26340 40212,26367 40227,26393 40243,26419 40260,26445 40277,26470 40295,26495 40314,26520 40333,26544 40353,26567 40373,26590 40394,26612 40415,26634 40437,26656 40460,26677 40483,26697 40506,26717 40530,26736 40555,26755 40579,26772 40605,26790 40631,26807 40657,26823 40683,26838 40710,26853 40737,26867 40765,26880 40793,26893 40821,26905 40850,26917 40878,26927 40907,26937 40937,26947 40966,26955 40996,26963 41026,26970 41056,26977 41086,26982 41116,26987 41146,26991 41177,26995 41207,26997 41238,26999 41270,27000 41300,27001 41331,27000 41362,26999 41393,26997 41423,26995 41454,26991 41484,26987 41514,26982 41544,26977 41574,26970 41604,26963 41634,26955 41663,26947 41693,26937 41722,26927 41751,26917 41779,26905 41807,26893 41835,26880 41863,26867 41890,26853 41917,26838 41943,26823 41969,26807 41995,26790 42020,26772 42045,26755 42070,26736 42094,26717 42117,26697 42140,26677 42163,26656 42185,26634 42206,26612 42227,26590 42247,26567 42267,26544 42286,26520 42305,26495 42323,26470 42340,26445 42357,26419 42373,26393 42388,26367 42403,26340 42417,26313 42431,26285 42444,26257 42456,26228 42467,26199 42478,26171 42488,26142 42497,26112 42506,26083 42513,26053 42520,26023 42527,25993 42532,25963 42537,25933 42541,25903 42545,25872 42548,25841 42549,25811 42551,25780 42551,25750 Z"/>
   </g>
  </g>
  <g class="com.sun.star.drawing.PolyPolygonShape">
   <g id="id4">
    <rect class="BoundingBox" stroke="none" fill="none" x="40405" y="24857" width="1790" height="1787"/>
    <path fill="rgb(255,255,255)" stroke="none" d="M 42194,25750 L 42193,25728 42193,25706 42191,25684 42189,25662 42187,25640 42184,25618 42181,25597 42176,25575 42172,25554 42167,25533 42161,25511 42155,25490 42149,25469 42141,25449 42134,25428 42126,25408 42117,25388 42108,25368 42098,25348 42088,25329 42078,25309 42067,25291 42055,25272 42043,25253 42031,25235 42018,25218 42005,25200 41991,25183 41977,25166 41961,25150 41946,25134 41931,25118 41915,25103 41899,25088 41883,25073 41866,25059 41849,25046 41831,25032 41814,25020 41796,25007 41777,24995 41759,24984 41740,24973 41720,24962 41701,24952 41681,24942 41661,24933 41641,24925 41621,24916 41600,24909 41580,24902 41559,24895 41538,24889 41517,24883 41495,24878 41474,24874 41452,24870 41431,24866 41409,24863 41387,24861 41365,24859 41343,24858 41321,24857 41300,24857 41278,24857 41256,24858 41234,24859 41212,24861 41190,24863 41168,24866 41147,24870 41125,24874 41104,24878 41082,24883 41061,24889 41040,24895 41019,24902 40999,24909 40978,24916 40958,24925 40938,24933 40918,24942 40898,24952 40879,24962 40859,24973 40840,24984 40822,24995 40803,25007 40785,25020 40768,25032 40750,25046 40733,25059 40716,25073 40700,25088 40684,25103 40668,25118 40653,25134 40638,25150 40623,25166 40609,25183 40595,25200 40582,25218 40569,25235 40557,25253 40545,25272 40533,25291 40522,25309 40512,25329 40502,25348 40492,25368 40483,25388 40474,25408 40466,25428 40459,25449 40451,25469 40445,25490 40439,25511 40433,25533 40428,25554 40424,25575 40419,25597 40416,25618 40413,25640 40411,25662 40409,25684 40407,25706 40407,25728 40406,25749 40407,25771 40407,25793 40409,25815 40411,25837 40413,25859 40416,25881 40419,25903 40424,25925 40428,25946 40433,25968 40439,25989 40445,26010 40451,26031 40459,26051 40466,26072 40474,26092 40483,26112 40492,26132 40502,26152 40512,26171 40522,26191 40533,26210 40545,26228 40557,26247 40569,26265 40582,26282 40595,26300 40609,26317 40623,26334 40638,26350 40653,26366 40668,26382 40684,26397 40700,26412 40716,26427 40733,26441 40750,26454 40768,26468 40785,26481 40803,26493 40822,26505 40840,26516 40859,26527 40879,26538 40898,26548 40918,26558 40938,26567 40958,26575 40978,26584 40999,26591 41019,26598 41040,26605 41061,26611 41082,26617 41104,26622 41125,26626 41147,26630 41168,26634 41190,26637 41212,26639 41234,26641 41256,26642 41278,26643 41299,26643 41321,26643 41343,26642 41365,26641 41387,26639 41409,26637 41431,26634 41452,26630 41474,26626 41495,26622 41517,26617 41538,26611 41559,26605 41580,26598 41600,26591 41621,26584 41641,26575 41661,26567 41681,26558 41701,26548 41720,26538 41740,26527 41759,26516 41777,26505 41796,26493 41814,26481 41831,26468 41849,26454 41866,26441 41883,26427 41899,26412 41915,26397 41931,26382 41946,26366 41961,26350 41977,26334 41991,26317 42005,26300 42018,26282 42031,26265 42043,26247 42055,26228 42067,26210 42078,26191 42088,26171 42098,26152 42108,26132 42117,26112 42126,26092 42134,26072 42141,26051 42149,26031 42155,26010 42161,25989 42167,25968 42172,25946 42176,25925 42181,25903 42184,25881 42187,25859 42189,25837 42191,25815 42193,25793 42193,25771 42194,25750 Z"/>
   </g>
  </g>
  <g class="com.sun.star.drawing.PolyPolygonShape">
   <g id="id5">
    <rect class="BoundingBox" stroke="none" fill="none" x="40984" y="25123" width="566" height="1213"/>
    <path fill="rgb(0,0,0)" stroke="none" d="M 41159,26321 L 41182,26234 41184,26232 41187,26230 41189,26229 41192,26230 41200,26216 41207,26202 41214,26188 41219,26173 41223,26158 41227,26143 41229,26127 41231,26112 41238,26105 41245,26098 41252,26090 41258,26082 41264,26074 41269,26066 41275,26057 41279,26048 41283,26039 41287,26029 41291,26020 41293,26009 41296,25999 41298,25989 41299,25979 41300,25969 41307,25990 41314,26011 41323,26033 41332,26053 41342,26073 41353,26093 41365,26112 41377,26130 41399,26205 41421,26232 41418,26243 41422,26256 41423,26260 41423,26264 41422,26268 41421,26272 41419,26275 41417,26278 41414,26281 41410,26283 41401,26287 41392,26291 41382,26294 41372,26297 41369,26299 41367,26301 41364,26303 41362,26306 41361,26309 41359,26312 41358,26316 41358,26319 41354,26321 41355,26329 41363,26331 41371,26332 41379,26333 41387,26334 41395,26335 41403,26334 41411,26334 41419,26333 41430,26332 41441,26331 41451,26328 41462,26325 41472,26320 41482,26314 41490,26308 41498,26300 41508,26313 41547,26297 41544,26286 41549,26281 41516,26221 41516,26210 41499,26167 41484,26125 41469,26082 41455,26038 41441,25994 41429,25950 41418,25906 41407,25862 41406,25829 41417,25828 41419,25828 41422,25827 41424,25826 41425,25825 41427,25823 41428,25821 41429,25819 41429,25817 41430,25799 41437,25798 41440,25780 41441,25762 41443,25743 41444,25725 41445,25707 41445,25688 41445,25670 41444,25651 41443,25633 41441,25615 41440,25596 41437,25578 41435,25560 41431,25542 41428,25524 41424,25506 41422,25493 41420,25480 41417,25468 41414,25455 41411,25443 41408,25430 41404,25418 41399,25406 41395,25394 41390,25382 41385,25371 41379,25359 41373,25348 41367,25337 41360,25326 41353,25315 41358,25308 41346,25286 41338,25292 41336,25287 41334,25282 41333,25277 41332,25272 41331,25267 41331,25262 41332,25256 41333,25251 41334,25246 41338,25232 41342,25217 41344,25203 41347,25189 41347,25182 41347,25175 41346,25169 41344,25162 41342,25156 41339,25150 41335,25145 41331,25140 41326,25138 41322,25135 41318,25131 41315,25127 41306,25125 41298,25124 41289,25123 41280,25123 41272,25124 41263,25125 41255,25126 41247,25128 41243,25131 41240,25134 41236,25137 41232,25140 41228,25142 41224,25143 41219,25145 41215,25146 41214,25149 41214,25152 41214,25155 41216,25158 41215,25163 41214,25169 41214,25175 41214,25181 41214,25187 41215,25192 41216,25198 41217,25204 41214,25212 41211,25221 41209,25230 41208,25238 41214,25240 41219,25242 41223,25280 41224,25283 41226,25285 41228,25288 41231,25290 41234,25291 41237,25292 41240,25292 41244,25292 41248,25294 41253,25297 41256,25300 41259,25305 41261,25309 41261,25314 41261,25320 41259,25324 41252,25336 41245,25347 41238,25359 41232,25371 41226,25383 41221,25395 41216,25408 41212,25420 41208,25433 41205,25446 41202,25460 41200,25473 41198,25486 41196,25499 41196,25513 41195,25526 41194,25529 41194,25532 41192,25535 41191,25538 41189,25540 41187,25542 41184,25544 41181,25545 41164,25556 41147,25567 41131,25578 41115,25591 41100,25604 41085,25618 41071,25632 41058,25647 41063,25655 41056,25655 41049,25656 41042,25658 41035,25660 41029,25664 41023,25668 41018,25672 41013,25678 41012,25683 41011,25689 41011,25695 41012,25701 41013,25707 41015,25713 41018,25718 41021,25723 41025,25725 41029,25725 41034,25726 41038,25726 41042,25726 41046,25725 41050,25724 41054,25722 41054,25718 41054,25715 41056,25711 41057,25707 41060,25704 41063,25701 41066,25699 41069,25698 41073,25697 41077,25697 41081,25697 41085,25699 41088,25701 41091,25703 41094,25706 41096,25710 41117,25695 41139,25680 41162,25667 41185,25655 41153,25801 41152,25803 41152,25805 41151,25808 41151,25810 41152,25813 41152,25815 41154,25818 41155,25820 41156,25822 41158,25823 41160,25825 41162,25826 41164,25827 41167,25828 41169,25829 41172,25829 41181,25829 41191,25829 41192,25842 41193,25854 41193,25866 41193,25878 41192,25890 41190,25902 41188,25914 41186,25926 41183,25938 41179,25950 41175,25961 41171,25972 41165,25983 41160,25994 41154,26005 41148,26016 41146,26031 41145,26045 41143,26059 41140,26073 41138,26088 41135,26102 41132,26115 41128,26129 41124,26143 41120,26157 41115,26171 41110,26184 41105,26198 41100,26211 41094,26224 41088,26237 41078,26237 41076,26242 41073,26247 41069,26251 41064,26254 41059,26256 41053,26257 41047,26256 41042,26255 41030,26254 41019,26253 41013,26253 41007,26254 41002,26256 40997,26259 40993,26262 40989,26267 40986,26272 40984,26277 41000,26293 41006,26297 41012,26301 41019,26304 41026,26307 41032,26310 41039,26312 41046,26314 41054,26316 41061,26317 41068,26317 41075,26318 41083,26318 41090,26317 41097,26317 41105,26316 41112,26314 41109,26329 41152,26334 41155,26321 41159,26321 Z"/>
   </g>
  </g>
 </g>
</svg>