<?xml version="1.0" encoding="UTF-8"?>
<!DOCTYPE svg PUBLIC "-//W3C//DTD SVG 1.1//EN" "http://www.w3.org/Graphics/SVG/1.1/DTD/svg11.dtd">
<svg version="1.2" width="25.03mm" height="25.02mm" viewBox="52049 24500 2503 2502" preserveAspectRatio="xMidYMid" fill-rule="evenodd" stroke-width="28.222" stroke-linejoin="round" xmlns="http://www.w3.org/2000/svg" xmlns:ooo="http://xml.openoffice.org/svg/export" xmlns:xlink="http://www.w3.org/1999/xlink" xmlns:presentation="http://sun.com/xmlns/staroffice/presentation" xmlns:smil="http://www.w3.org/2001/SMIL20/" xmlns:anim="urn:oasis:names:tc:opendocument:xmlns:animation:1.0" xml:space="preserve">
 <defs class="EmbeddedBulletChars">
  <g id="bullet-char-template-57356" transform="scale(0.00048828125,-0.00048828125)">
   <path d="M 580,1141 L 1163,571 580,0 -4,571 580,1141 Z"/>
  </g>
  <g id="bullet-char-template-57354" transform="scale(0.00048828125,-0.00048828125)">
   <path d="M 8,1128 L 1137,1128 1137,0 8,0 8,1128 Z"/>
  </g>
  <g id="bullet-char-template-10146" transform="scale(0.00048828125,-0.00048828125)">
   <path d="M 174,0 L 602,739 174,1481 1456,739 174,0 Z M 1358,739 L 309,1346 659,739 1358,739 Z"/>
  </g>
  <g id="bullet-char-template-10132" transform="scale(0.00048828125,-0.00048828125)">
   <path d="M 2015,739 L 1276,0 717,0 1260,543 174,543 174,936 1260,936 717,1481 1274,1481 2015,739 Z"/>
  </g>
  <g id="bullet-char-template-10007" transform="scale(0.00048828125,-0.00048828125)">
   <path d="M 0,-2 C -7,14 -16,27 -25,37 L 356,567 C 262,823 215,952 215,954 215,979 228,992 255,992 264,992 276,990 289,987 310,991 331,999 354,1012 L 381,999 492,748 772,1049 836,1024 860,1049 C 881,1039 901,1025 922,1006 886,937 835,863 770,784 769,783 710,716 594,584 L 774,223 C 774,196 753,168 711,139 L 727,119 C 717,90 699,76 672,76 641,76 570,178 457,381 L 164,-76 C 142,-110 111,-127 72,-127 30,-127 9,-110 8,-76 1,-67 -2,-52 -2,-32 -2,-23 -1,-13 0,-2 Z"/>
  </g>
  <g id="bullet-char-template-10004" transform="scale(0.00048828125,-0.00048828125)">
   <path d="M 285,-33 C 182,-33 111,30 74,156 52,228 41,333 41,471 41,549 55,616 82,672 116,743 169,778 240,778 293,778 328,747 346,684 L 369,508 C 377,444 397,411 428,410 L 1163,1116 C 1174,1127 1196,1133 1229,1133 1271,1133 1292,1118 1292,1087 L 1292,965 C 1292,929 1282,901 1262,881 L 442,47 C 390,-6 338,-33 285,-33 Z"/>
  </g>
  <g id="bullet-char-template-9679" transform="scale(0.00048828125,-0.00048828125)">
   <path d="M 813,0 C 632,0 489,54 383,161 276,268 223,411 223,592 223,773 276,916 383,1023 489,1130 632,1184 813,1184 992,1184 1136,1130 1245,1023 1353,916 1407,772 1407,592 1407,412 1353,268 1245,161 1136,54 992,0 813,0 Z"/>
  </g>
  <g id="bullet-char-template-8226" transform="scale(0.00048828125,-0.00048828125)">
   <path d="M 346,457 C 273,457 209,483 155,535 101,586 74,649 74,723 74,796 101,859 155,911 209,963 273,989 346,989 419,989 480,963 531,910 582,859 608,796 608,723 608,648 583,586 532,535 482,483 420,457 346,457 Z"/>
  </g>
  <g id="bullet-char-template-8211" transform="scale(0.00048828125,-0.00048828125)">
   <path d="M -4,459 L 1135,459 1135,606 -4,606 -4,459 Z"/>
  </g>
  <g id="bullet-char-template-61548" transform="scale(0.00048828125,-0.00048828125)">
   <path d="M 173,740 C 173,903 231,1043 346,1159 462,1274 601,1332 765,1332 928,1332 1067,1274 1183,1159 1299,1043 1357,903 1357,740 1357,577 1299,437 1183,322 1067,206 928,148 765,148 601,148 462,206 346,322 231,437 173,577 173,740 Z"/>
  </g>
 </defs>
 <g class="Page">
  <g class="com.sun.star.drawing.PolyPolygonShape">
   <g id="id3">
    <rect class="BoundingBox" stroke="none" fill="none" x="52049" y="24500" width="2503" height="2502"/>
    <path fill="rgb(255,0,0)" stroke="none" d="M 54551,25750 L 54551,25719 54549,25688 54547,25658 54545,25627 54541,25596 54537,25566 54532,25536 54527,25506 54521,25476 54513,25446 54506,25416 54497,25387 54488,25357 54478,25328 54467,25300 54456,25271 54444,25243 54431,25215 54417,25187 54403,25160 54388,25133 54373,25107 54357,25081 54340,25055 54323,25030 54305,25005 54286,24980 54267,24956 54247,24933 54227,24910 54206,24888 54185,24866 54163,24844 54140,24823 54117,24803 54094,24783 54070,24764 54045,24745 54020,24728 53995,24710 53970,24693 53943,24677 53917,24662 53890,24647 53863,24633 53835,24620 53807,24607 53779,24595 53751,24583 53721,24573 53692,24563 53662,24553 53633,24545 53603,24537 53573,24530 53543,24523 53513,24518 53483,24513 53453,24509 53422,24505 53392,24503 53361,24501 53330,24500 53300,24500 53269,24500 53238,24501 53207,24503 53177,24505 53146,24509 53116,24513 53086,24518 53056,24523 53026,24530 52996,24537 52966,24545 52937,24553 52907,24563 52878,24573 52850,24583 52821,24595 52793,24607 52765,24620 52737,24633 52710,24647 52683,24662 52657,24677 52631,24693 52605,24710 52580,24728 52555,24745 52530,24764 52506,24783 52483,24803 52460,24823 52437,24844 52415,24866 52394,24888 52373,24910 52353,24933 52333,24956 52314,24980 52295,25005 52277,25030 52260,25055 52243,25081 52227,25107 52212,25133 52197,25160 52183,25187 52169,25215 52156,25243 52144,25271 52133,25300 52122,25328 52112,25357 52103,25387 52094,25416 52087,25446 52080,25476 52073,25506 52068,25536 52063,25566 52059,25596 52055,25627 52052,25658 52051,25688 52049,25719 52049,25750 52049,25780 52051,25811 52052,25841 52055,25872 52059,25903 52063,25933 52068,25963 52073,25993 52080,26023 52087,26053 52094,26083 52103,26112 52112,26142 52122,26171 52133,26199 52144,26228 52156,26257 52169,26285 52183,26313 52197,26340 52212,26367 52227,26393 52243,26419 52260,26445 52277,26470 52295,26495 52314,26520 52333,26544 52353,26567 52373,26590 52394,26612 52415,26634 52437,26656 52460,26677 52483,26697 52506,26717 52530,26736 52555,26755 52580,26772 52605,26790 52631,26807 52657,26823 52683,26838 52710,26853 52737,26867 52765,26880 52793,26893 52821,26905 52850,26917 52878,26927 52907,26937 52937,26947 52966,26955 52996,26963 53026,26970 53056,26977 53086,26982 53116,26987 53146,26991 53177,26995 53207,26997 53238,26999 53269,27000 53299,27001 53330,27000 53361,26999 53392,26997 53422,26995 53453,26991 53483,26987 53513,26982 53543,26977 53573,26970 53603,26963 53633,26955 53662,26947 53692,26937 53721,26927 53751,26917 53779,26905 53807,26893 53835,26880 53863,26867 53890,26853 53917,26838 53943,26823 53970,26807 53995,26790 54020,26772 54045,26755 54070,26736 54094,26717 54117,26697 54140,26677 54163,26656 54185,26634 54206,26612 54227,26590 54247,26567 54267,26544 54286,26520 54305,26495 54323,26470 54340,26445 54357,26419 54373,26393 54388,26367 54403,26340 54417,26313 54431,26285 54444,26257 54456,26228 54467,26199 54478,26171 54488,26142 54497,26112 54506,26083 54513,26053 54521,26023 54527,25993 54532,25963 54537,25933 54541,25903 54545,25872 54547,25841 54549,25811 54551,25780 54551,25750 Z"/>
   </g>
  </g>
  <g class="com.sun.star.drawing.PolyPolygonShape">
   <g id="id4">
    <rect class="BoundingBox" stroke="none" fill="none" x="52396" y="24847" width="1809" height="1807"/>
    <path fill="rgb(255,255,255)" stroke="none" d="M 54204,25750 L 54203,25727 54203,25705 54201,25683 54199,25661 54197,25639 54194,25617 54190,25595 54186,25573 54182,25552 54176,25530 54171,25509 54165,25487 54158,25466 54151,25445 54143,25425 54135,25404 54126,25384 54117,25363 54107,25344 54097,25324 54086,25305 54075,25285 54063,25267 54051,25248 54039,25230 54026,25212 54012,25194 53999,25177 53984,25160 53970,25143 53954,25127 53939,25111 53923,25096 53907,25081 53890,25066 53873,25052 53856,25038 53838,25024 53820,25011 53802,24999 53784,24987 53765,24975 53746,24964 53726,24953 53706,24943 53687,24933 53666,24924 53646,24915 53626,24907 53605,24899 53584,24892 53563,24886 53541,24880 53520,24874 53498,24869 53477,24864 53455,24860 53433,24856 53411,24854 53389,24851 53367,24849 53345,24848 53323,24847 53300,24847 53278,24847 53255,24848 53233,24849 53211,24851 53189,24854 53167,24856 53145,24860 53123,24864 53102,24869 53080,24874 53059,24880 53037,24886 53016,24892 52995,24899 52974,24907 52954,24915 52933,24924 52913,24933 52894,24943 52874,24953 52854,24964 52835,24975 52816,24987 52798,24999 52780,25011 52762,25024 52744,25038 52727,25052 52710,25066 52693,25081 52677,25096 52661,25111 52645,25127 52630,25143 52616,25160 52601,25177 52588,25194 52574,25212 52561,25230 52549,25248 52537,25267 52525,25285 52514,25305 52503,25324 52493,25344 52483,25363 52474,25384 52465,25404 52457,25425 52449,25445 52442,25466 52435,25487 52429,25509 52424,25530 52418,25552 52414,25573 52410,25595 52406,25617 52403,25639 52401,25661 52399,25683 52397,25705 52397,25727 52396,25750 52397,25772 52397,25794 52399,25816 52401,25838 52403,25860 52406,25882 52410,25904 52414,25926 52418,25947 52424,25969 52429,25990 52435,26012 52442,26033 52449,26054 52457,26074 52465,26095 52474,26115 52483,26136 52493,26155 52503,26176 52514,26195 52525,26215 52537,26233 52549,26252 52561,26270 52574,26288 52588,26306 52601,26323 52616,26340 52630,26357 52645,26373 52661,26389 52677,26404 52693,26419 52710,26434 52727,26448 52744,26462 52762,26476 52780,26489 52798,26501 52816,26513 52835,26525 52854,26536 52874,26547 52894,26557 52913,26567 52933,26576 52954,26585 52974,26593 52995,26601 53016,26608 53037,26614 53059,26620 53080,26626 53102,26631 53123,26636 53145,26640 53167,26644 53189,26646 53211,26649 53233,26651 53255,26652 53278,26653 53300,26653 53323,26653 53345,26652 53367,26651 53389,26649 53411,26646 53433,26644 53455,26640 53477,26636 53498,26631 53520,26626 53541,26620 53563,26614 53584,26608 53605,26601 53626,26593 53646,26585 53666,26576 53687,26567 53706,26557 53726,26547 53746,26536 53765,26525 53784,26513 53802,26501 53820,26489 53838,26476 53856,26462 53873,26448 53890,26434 53907,26419 53923,26404 53939,26389 53954,26373 53970,26357 53984,26340 53999,26323 54012,26306 54026,26288 54039,26270 54051,26252 54063,26233 54075,26215 54086,26195 54097,26176 54107,26155 54117,26136 54126,26115 54135,26095 54143,26074 54151,26054 54158,26033 54165,26012 54171,25990 54176,25969 54182,25947 54186,25926 54190,25904 54194,25882 54197,25860 54199,25838 54201,25816 54203,25794 54203,25772 54204,25750 Z"/>
   </g>
  </g>
  <g class="com.sun.star.drawing.PolyPolygonShape">
   <g id="id5">
    <rect class="BoundingBox" stroke="none" fill="none" x="52851" y="25129" width="899" height="887"/>
    <path fill="rgb(0,0,0)" stroke="none" d="M 53749,26014 L 52851,26014 52851,25129 53749,25129 53749,26014 Z"/>
   </g>
  </g>
  <g class="com.sun.star.drawing.PolyPolygonShape">
   <g id="id6">
    <rect class="BoundingBox" stroke="none" fill="none" x="52855" y="26118" width="897" height="290"/>
    <path fill="rgb(0,0,0)" stroke="none" d="M 53738,26371 L 53738,26324 53741,26318 53744,26312 53746,26306 53748,26300 53749,26294 53750,26288 53750,26281 53751,26275 53750,26268 53750,26262 53749,26254 53748,26248 53746,26242 53744,26236 53741,26230 53738,26224 53738,26155 53737,26151 53735,26148 53733,26144 53731,26140 53728,26137 53726,26134 53723,26131 53719,26129 53716,26126 53712,26124 53708,26123 53705,26121 53700,26120 53696,26119 53692,26119 53688,26119 53684,26119 53680,26119 53676,26120 53672,26122 53668,26123 53664,26125 53661,26127 53657,26129 53654,26132 53651,26135 53648,26138 53646,26141 53643,26145 53641,26148 53640,26152 53639,26156 53639,26213 53627,26213 53627,26247 53409,26247 53401,26246 53393,26245 53385,26243 53378,26240 53371,26237 53363,26233 53357,26229 53350,26224 53345,26221 53340,26219 53334,26216 53328,26214 53322,26213 53316,26212 53310,26211 53304,26211 53298,26211 53292,26212 53286,26213 53280,26214 53274,26216 53268,26219 53263,26221 53257,26224 53251,26229 53244,26233 53237,26237 53230,26240 53222,26243 53214,26245 53207,26246 53199,26247 52979,26247 52979,26213 52968,26213 52968,26156 52967,26152 52965,26148 52963,26145 52961,26141 52959,26138 52956,26135 52953,26132 52950,26129 52946,26127 52943,26125 52939,26123 52935,26122 52931,26120 52927,26119 52923,26119 52919,26119 52914,26119 52910,26119 52906,26120 52902,26121 52898,26123 52895,26124 52891,26126 52887,26129 52884,26131 52881,26134 52878,26137 52876,26140 52874,26144 52872,26148 52870,26151 52868,26155 52868,26224 52866,26230 52863,26236 52861,26242 52859,26248 52858,26254 52857,26262 52856,26268 52856,26275 52856,26281 52857,26288 52858,26294 52859,26300 52861,26306 52863,26312 52866,26318 52868,26324 52868,26371 52870,26375 52872,26379 52874,26382 52876,26386 52878,26389 52881,26392 52884,26395 52887,26397 52891,26400 52895,26402 52898,26403 52902,26405 52906,26406 52910,26407 52914,26407 52919,26407 52923,26407 52927,26407 52931,26406 52935,26405 52939,26403 52943,26401 52946,26399 52950,26397 52953,26394 52956,26391 52959,26388 52961,26385 52963,26381 52965,26378 52967,26374 52968,26370 52968,26313 52979,26313 52979,26279 53199,26279 53207,26280 53214,26281 53222,26283 53230,26286 53237,26289 53244,26293 53251,26297 53257,26302 53263,26305 53268,26308 53274,26310 53280,26312 53286,26313 53292,26314 53298,26315 53304,26315 53310,26315 53316,26314 53322,26313 53328,26312 53334,26310 53340,26308 53345,26305 53350,26302 53357,26297 53363,26293 53371,26289 53378,26286 53385,26283 53393,26281 53401,26280 53409,26279 53627,26279 53627,26313 53639,26313 53639,26370 53640,26374 53641,26378 53643,26381 53646,26385 53648,26388 53651,26391 53654,26394 53657,26397 53661,26399 53664,26401 53668,26403 53672,26405 53676,26406 53680,26407 53684,26407 53688,26407 53692,26407 53696,26407 53700,26406 53705,26405 53708,26403 53712,26402 53716,26400 53719,26397 53723,26395 53726,26392 53728,26389 53731,26386 53733,26382 53735,26379 53737,26375 53738,26371 Z"/>
   </g>
  </g>
  <g class="com.sun.star.drawing.PolyPolygonShape">
   <g id="id7">
    <rect class="BoundingBox" stroke="none" fill="none" x="52851" y="26053" width="899" height="39"/>
    <path fill="rgb(0,0,0)" stroke="none" d="M 52851,26090 L 53749,26090 53749,26053 52851,26053 52851,26090 Z"/>
   </g>
  </g>
  <g class="com.sun.star.drawing.PolyPolygonShape">
   <g id="id8">
    <rect class="BoundingBox" stroke="none" fill="none" x="52887" y="25166" width="827" height="812"/>
    <path fill="rgb(255,129,0)" stroke="none" d="M 53713,25977 L 52887,25977 52887,25166 53713,25166 53713,25977 Z"/>
   </g>
  </g>
 </g>
</svg>