<?xml version="1.0" encoding="UTF-8"?>
<!DOCTYPE svg PUBLIC "-//W3C//DTD SVG 1.1//EN" "http://www.w3.org/Graphics/SVG/1.1/DTD/svg11.dtd">
<svg version="1.2" width="25.04mm" height="25.02mm" viewBox="58048 24500 2504 2502" preserveAspectRatio="xMidYMid" fill-rule="evenodd" stroke-width="28.222" stroke-linejoin="round" xmlns="http://www.w3.org/2000/svg" xmlns:ooo="http://xml.openoffice.org/svg/export" xmlns:xlink="http://www.w3.org/1999/xlink" xmlns:presentation="http://sun.com/xmlns/staroffice/presentation" xmlns:smil="http://www.w3.org/2001/SMIL20/" xmlns:anim="urn:oasis:names:tc:opendocument:xmlns:animation:1.0" xml:space="preserve">
 <defs class="EmbeddedBulletChars">
  <g id="bullet-char-template-57356" transform="scale(0.00048828125,-0.00048828125)">
   <path d="M 580,1141 L 1163,571 580,0 -4,571 580,1141 Z"/>
  </g>
  <g id="bullet-char-template-57354" transform="scale(0.00048828125,-0.00048828125)">
   <path d="M 8,1128 L 1137,1128 1137,0 8,0 8,1128 Z"/>
  </g>
  <g id="bullet-char-template-10146" transform="scale(0.00048828125,-0.00048828125)">
   <path d="M 174,0 L 602,739 174,1481 1456,739 174,0 Z M 1358,739 L 309,1346 659,739 1358,739 Z"/>
  </g>
  <g id="bullet-char-template-10132" transform="scale(0.00048828125,-0.00048828125)">
   <path d="M 2015,739 L 1276,0 717,0 1260,543 174,543 174,936 1260,936 717,1481 1274,1481 2015,739 Z"/>
  </g>
  <g id="bullet-char-template-10007" transform="scale(0.00048828125,-0.00048828125)">
   <path d="M 0,-2 C -7,14 -16,27 -25,37 L 356,567 C 262,823 215,952 215,954 215,979 228,992 255,992 264,992 276,990 289,987 310,991 331,999 354,1012 L 381,999 492,748 772,1049 836,1024 860,1049 C 881,1039 901,1025 922,1006 886,937 835,863 770,784 769,783 710,716 594,584 L 774,223 C 774,196 753,168 711,139 L 727,119 C 717,90 699,76 672,76 641,76 570,178 457,381 L 164,-76 C 142,-110 111,-127 72,-127 30,-127 9,-110 8,-76 1,-67 -2,-52 -2,-32 -2,-23 -1,-13 0,-2 Z"/>
  </g>
  <g id="bullet-char-template-10004" transform="scale(0.00048828125,-0.00048828125)">
   <path d="M 285,-33 C 182,-33 111,30 74,156 52,228 41,333 41,471 41,549 55,616 82,672 116,743 169,778 240,778 293,778 328,747 346,684 L 369,508 C 377,444 397,411 428,410 L 1163,1116 C 1174,1127 1196,1133 1229,1133 1271,1133 1292,1118 1292,1087 L 1292,965 C 1292,929 1282,901 1262,881 L 442,47 C 390,-6 338,-33 285,-33 Z"/>
  </g>
  <g id="bullet-char-template-9679" transform="scale(0.00048828125,-0.00048828125)">
   <path d="M 813,0 C 632,0 489,54 383,161 276,268 223,411 223,592 223,773 276,916 383,1023 489,1130 632,1184 813,1184 992,1184 1136,1130 1245,1023 1353,916 1407,772 1407,592 1407,412 1353,268 1245,161 1136,54 992,0 813,0 Z"/>
  </g>
  <g id="bullet-char-template-8226" transform="scale(0.00048828125,-0.00048828125)">
   <path d="M 346,457 C 273,457 209,483 155,535 101,586 74,649 74,723 74,796 101,859 155,911 209,963 273,989 346,989 419,989 480,963 531,910 582,859 608,796 608,723 608,648 583,586 532,535 482,483 420,457 346,457 Z"/>
  </g>
  <g id="bullet-char-template-8211" transform="scale(0.00048828125,-0.00048828125)">
   <path d="M -4,459 L 1135,459 1135,606 -4,606 -4,459 Z"/>
  </g>
  <g id="bullet-char-template-61548" transform="scale(0.00048828125,-0.00048828125)">
   <path d="M 173,740 C 173,903 231,1043 346,1159 462,1274 601,1332 765,1332 928,1332 1067,1274 1183,1159 1299,1043 1357,903 1357,740 1357,577 1299,437 1183,322 1067,206 928,148 765,148 601,148 462,206 346,322 231,437 173,577 173,740 Z"/>
  </g>
 </defs>
 <g class="Page">
  <g class="com.sun.star.drawing.PolyPolygonShape">
   <g id="id3">
    <rect class="BoundingBox" stroke="none" fill="none" x="58048" y="24500" width="2504" height="2502"/>
    <path fill="rgb(255,0,0)" stroke="none" d="M 60551,25750 L 60551,25719 60549,25688 60548,25658 60545,25627 60541,25596 60537,25566 60532,25536 60527,25506 60520,25476 60513,25446 60506,25416 60497,25387 60488,25357 60478,25328 60467,25300 60456,25271 60444,25243 60431,25215 60417,25187 60403,25160 60388,25133 60373,25107 60357,25081 60340,25055 60323,25030 60305,25005 60286,24980 60267,24956 60247,24933 60227,24910 60206,24888 60185,24866 60163,24844 60140,24823 60117,24803 60094,24783 60070,24764 60045,24745 60021,24728 59995,24710 59969,24693 59943,24677 59917,24662 59890,24647 59863,24633 59835,24620 59807,24607 59779,24595 59750,24583 59722,24573 59693,24563 59663,24553 59634,24545 59604,24537 59574,24530 59544,24523 59514,24518 59484,24513 59454,24509 59423,24505 59393,24503 59362,24501 59331,24500 59301,24500 59270,24500 59239,24501 59208,24503 59178,24505 59147,24509 59117,24513 59087,24518 59057,24523 59027,24530 58997,24537 58967,24545 58938,24553 58908,24563 58879,24573 58851,24583 58822,24595 58794,24607 58766,24620 58737,24633 58710,24647 58683,24662 58657,24677 58631,24693 58605,24710 58580,24728 58555,24745 58530,24764 58506,24783 58483,24803 58460,24823 58437,24844 58415,24866 58394,24888 58373,24910 58353,24933 58333,24956 58314,24980 58295,25005 58277,25030 58260,25055 58243,25081 58227,25107 58212,25133 58197,25160 58183,25187 58169,25215 58156,25243 58144,25271 58133,25300 58122,25328 58112,25357 58103,25387 58095,25416 58087,25446 58080,25476 58073,25506 58068,25536 58063,25566 58059,25596 58055,25627 58053,25658 58051,25688 58049,25719 58049,25750 58049,25780 58051,25811 58053,25841 58055,25872 58059,25903 58063,25933 58068,25963 58073,25993 58080,26023 58087,26053 58095,26083 58103,26112 58112,26142 58122,26171 58133,26199 58144,26228 58156,26257 58169,26285 58183,26313 58197,26340 58212,26367 58227,26393 58243,26419 58260,26445 58277,26470 58295,26495 58314,26520 58333,26544 58353,26567 58373,26590 58394,26612 58415,26634 58437,26656 58460,26677 58483,26697 58506,26717 58530,26736 58555,26755 58580,26772 58605,26790 58631,26807 58657,26823 58683,26838 58710,26853 58737,26867 58766,26880 58794,26893 58822,26905 58851,26917 58879,26927 58908,26937 58938,26947 58967,26955 58997,26963 59027,26970 59057,26977 59087,26982 59117,26987 59147,26991 59178,26995 59208,26997 59239,26999 59270,27000 59300,27001 59331,27000 59362,26999 59393,26997 59423,26995 59454,26991 59484,26987 59514,26982 59544,26977 59574,26970 59604,26963 59634,26955 59663,26947 59693,26937 59722,26927 59750,26917 59779,26905 59807,26893 59835,26880 59863,26867 59890,26853 59917,26838 59943,26823 59969,26807 59995,26790 60021,26772 60045,26755 60070,26736 60094,26717 60117,26697 60140,26677 60163,26656 60185,26634 60206,26612 60227,26590 60247,26567 60267,26544 60286,26520 60305,26495 60323,26470 60340,26445 60357,26419 60373,26393 60388,26367 60403,26340 60417,26313 60431,26285 60444,26257 60456,26228 60467,26199 60478,26171 60488,26142 60497,26112 60506,26083 60513,26053 60520,26023 60527,25993 60532,25963 60537,25933 60541,25903 60545,25872 60548,25841 60549,25811 60551,25780 60551,25750 Z"/>
   </g>
  </g>
  <g class="com.sun.star.drawing.PolyPolygonShape">
   <g id="id4">
    <rect class="BoundingBox" stroke="none" fill="none" x="58396" y="24847" width="1809" height="1807"/>
    <path fill="rgb(255,255,255)" stroke="none" d="M 60204,25750 L 60203,25727 60203,25705 60201,25683 60199,25661 60197,25639 60194,25617 60190,25595 60186,25573 60182,25552 60176,25530 60171,25509 60165,25487 60158,25466 60151,25445 60143,25425 60135,25404 60126,25384 60117,25363 60107,25344 60097,25324 60086,25305 60075,25285 60063,25267 60051,25248 60039,25230 60026,25212 60012,25194 59999,25177 59984,25160 59970,25143 59954,25127 59939,25111 59923,25096 59907,25081 59890,25066 59873,25052 59856,25038 59838,25024 59820,25011 59802,24999 59784,24987 59765,24975 59746,24964 59726,24953 59707,24943 59687,24933 59666,24924 59646,24915 59626,24907 59605,24899 59584,24892 59563,24886 59541,24880 59520,24874 59498,24869 59477,24864 59455,24860 59433,24856 59411,24854 59389,24851 59367,24849 59345,24848 59323,24847 59300,24847 59278,24847 59256,24848 59234,24849 59212,24851 59190,24854 59168,24856 59146,24860 59124,24864 59103,24869 59081,24874 59060,24880 59038,24886 59017,24892 58996,24899 58975,24907 58955,24915 58935,24924 58914,24933 58895,24943 58875,24953 58855,24964 58836,24975 58817,24987 58799,24999 58781,25011 58763,25024 58745,25038 58728,25052 58711,25066 58693,25081 58677,25096 58661,25111 58645,25127 58630,25143 58616,25160 58602,25177 58588,25194 58574,25212 58561,25230 58549,25248 58537,25267 58525,25285 58514,25305 58503,25324 58493,25344 58483,25363 58474,25384 58465,25404 58457,25425 58449,25445 58442,25466 58435,25487 58429,25509 58424,25530 58418,25552 58414,25573 58410,25595 58406,25617 58403,25639 58401,25661 58399,25683 58398,25705 58397,25727 58396,25750 58397,25772 58398,25794 58399,25816 58401,25838 58403,25860 58406,25882 58410,25904 58414,25926 58418,25947 58424,25969 58429,25990 58435,26012 58442,26033 58449,26054 58457,26074 58465,26095 58474,26115 58483,26136 58493,26155 58503,26176 58514,26195 58525,26215 58537,26233 58549,26252 58561,26270 58574,26288 58588,26306 58602,26323 58616,26340 58630,26357 58645,26373 58661,26389 58677,26404 58693,26419 58711,26434 58728,26448 58745,26462 58763,26476 58781,26489 58799,26501 58817,26513 58836,26525 58855,26536 58875,26547 58895,26557 58914,26567 58935,26576 58955,26585 58975,26593 58996,26601 59017,26608 59038,26614 59060,26620 59081,26626 59103,26631 59124,26636 59146,26640 59168,26644 59190,26646 59212,26649 59234,26651 59256,26652 59278,26653 59300,26653 59323,26653 59345,26652 59367,26651 59389,26649 59411,26646 59433,26644 59455,26640 59477,26636 59498,26631 59520,26626 59541,26620 59563,26614 59584,26608 59605,26601 59626,26593 59646,26585 59666,26576 59687,26567 59707,26557 59726,26547 59746,26536 59765,26525 59784,26513 59802,26501 59820,26489 59838,26476 59856,26462 59873,26448 59890,26434 59907,26419 59923,26404 59939,26389 59954,26373 59970,26357 59984,26340 59999,26323 60012,26306 60026,26288 60039,26270 60051,26252 60063,26233 60075,26215 60086,26195 60097,26176 60107,26155 60117,26136 60126,26115 60135,26095 60143,26074 60151,26054 60158,26033 60165,26012 60171,25990 60176,25969 60182,25947 60186,25926 60190,25904 60194,25882 60197,25860 60199,25838 60201,25816 60203,25794 60203,25772 60204,25750 Z"/>
   </g>
  </g>
  <g class="com.sun.star.drawing.PolyPolygonShape">
   <g id="id5">
    <rect class="BoundingBox" stroke="none" fill="none" x="58849" y="25784" width="897" height="290"/>
    <path fill="rgb(0,0,0)" stroke="none" d="M 59733,26037 L 59733,25990 59736,25984 59738,25978 59740,25971 59742,25965 59743,25959 59744,25952 59745,25946 59745,25939 59745,25933 59744,25927 59743,25920 59742,25914 59740,25908 59738,25902 59736,25896 59733,25890 59733,25821 59731,25817 59730,25813 59728,25810 59725,25806 59723,25803 59720,25800 59717,25797 59714,25794 59710,25792 59707,25790 59703,25788 59699,25787 59695,25786 59691,25785 59687,25785 59683,25784 59678,25785 59674,25785 59670,25786 59666,25787 59662,25789 59659,25791 59655,25792 59652,25795 59648,25798 59645,25800 59642,25804 59640,25807 59638,25810 59636,25814 59634,25818 59633,25822 59633,25879 59622,25879 59622,25913 59403,25913 59396,25912 59388,25911 59379,25909 59371,25906 59364,25903 59357,25899 59350,25895 59344,25890 59338,25887 59333,25884 59327,25882 59321,25880 59315,25879 59310,25878 59303,25877 59297,25877 59291,25877 59285,25878 59279,25879 59273,25880 59267,25882 59262,25884 59256,25887 59251,25890 59244,25895 59238,25899 59231,25903 59223,25906 59216,25909 59208,25911 59200,25912 59192,25913 58974,25913 58974,25879 58963,25879 58963,25822 58961,25818 58960,25814 58958,25810 58956,25807 58953,25804 58950,25800 58947,25798 58944,25795 58941,25792 58937,25791 58933,25789 58929,25787 58925,25786 58921,25785 58917,25785 58913,25784 58909,25785 58905,25785 58901,25786 58897,25787 58893,25788 58889,25790 58885,25792 58882,25794 58879,25797 58876,25800 58873,25803 58870,25806 58868,25810 58866,25813 58864,25817 58863,25821 58863,25890 58860,25896 58857,25902 58855,25908 58854,25914 58852,25920 58851,25927 58851,25933 58850,25939 58851,25946 58851,25952 58852,25959 58854,25965 58855,25971 58857,25978 58860,25984 58863,25990 58863,26037 58864,26041 58866,26044 58868,26048 58870,26051 58873,26055 58876,26058 58879,26061 58882,26063 58885,26065 58889,26068 58893,26069 58897,26071 58901,26072 58905,26073 58909,26073 58913,26073 58917,26073 58921,26072 58925,26071 58929,26070 58933,26069 58937,26067 58941,26065 58944,26063 58947,26060 58950,26057 58953,26054 58956,26051 58958,26047 58960,26043 58961,26040 58963,26036 58963,25979 58974,25979 58974,25944 59192,25944 59200,25945 59208,25946 59216,25948 59223,25951 59231,25954 59238,25958 59244,25962 59251,25967 59256,25970 59262,25972 59267,25975 59273,25977 59279,25979 59285,25980 59291,25980 59297,25981 59303,25980 59310,25980 59315,25979 59321,25977 59327,25975 59333,25972 59338,25970 59344,25967 59350,25962 59357,25958 59364,25954 59371,25951 59379,25948 59388,25946 59396,25945 59403,25944 59622,25944 59622,25979 59633,25979 59633,26036 59634,26040 59636,26043 59638,26047 59640,26051 59642,26054 59645,26057 59648,26060 59652,26063 59655,26065 59659,26067 59662,26069 59666,26070 59670,26071 59674,26072 59678,26073 59683,26073 59687,26073 59691,26073 59695,26072 59699,26071 59703,26069 59707,26068 59710,26065 59714,26063 59717,26061 59720,26058 59723,26055 59725,26051 59728,26048 59730,26044 59731,26041 59733,26037 Z"/>
   </g>
  </g>
  <g class="com.sun.star.drawing.PolyPolygonShape">
   <g id="id6">
    <rect class="BoundingBox" stroke="none" fill="none" x="58634" y="26091" width="1335" height="101"/>
    <path fill="rgb(255,0,0)" stroke="none" d="M 58634,26165 L 58650,26121 58665,26126 58680,26130 58695,26133 58711,26136 58726,26139 58742,26140 58758,26141 58773,26142 58789,26141 58805,26140 58820,26139 58836,26137 58851,26134 58867,26131 58882,26127 58897,26122 58912,26114 58927,26109 58943,26103 58959,26099 58976,26096 58992,26094 59009,26092 59026,26091 59042,26092 59059,26093 59076,26095 59092,26098 59108,26102 59124,26106 59140,26112 59155,26119 59172,26125 59189,26130 59206,26134 59223,26138 59240,26141 59258,26142 59276,26144 59294,26144 59311,26144 59329,26143 59346,26142 59364,26139 59381,26136 59398,26132 59415,26128 59432,26122 59447,26115 59463,26110 59479,26105 59495,26101 59512,26098 59528,26096 59545,26095 59562,26094 59579,26095 59595,26096 59612,26098 59628,26101 59645,26105 59661,26110 59676,26115 59692,26122 59708,26127 59724,26132 59741,26135 59757,26139 59774,26141 59790,26143 59807,26144 59824,26144 59841,26144 59858,26143 59874,26142 59891,26140 59908,26137 59924,26133 59940,26129 59956,26124 59968,26169 59950,26175 59932,26179 59913,26183 59895,26186 59877,26188 59858,26190 59839,26191 59821,26191 59802,26190 59784,26189 59765,26187 59747,26184 59729,26181 59711,26176 59693,26171 59675,26166 59662,26160 59648,26155 59634,26151 59620,26148 59605,26145 59591,26143 59576,26142 59562,26142 59547,26142 59533,26143 59518,26145 59504,26148 59490,26151 59476,26155 59462,26160 59449,26166 59430,26172 59411,26177 59391,26181 59372,26185 59353,26188 59333,26190 59313,26191 59293,26191 59273,26190 59253,26189 59233,26186 59214,26183 59195,26179 59175,26174 59156,26169 59138,26162 59125,26157 59111,26152 59097,26148 59083,26144 59069,26142 59055,26140 59040,26139 59026,26139 59011,26140 58997,26141 58982,26143 58968,26146 58954,26150 58941,26154 58927,26159 58914,26165 58897,26171 58880,26175 58862,26179 58845,26182 58827,26185 58809,26187 58792,26188 58774,26188 58756,26188 58738,26186 58720,26185 58703,26182 58685,26179 58668,26175 58651,26170 58634,26165 Z"/>
   </g>
  </g>
  <g class="com.sun.star.drawing.PolyPolygonShape">
   <g id="id7">
    <rect class="BoundingBox" stroke="none" fill="none" x="58628" y="26179" width="1336" height="101"/>
    <path fill="rgb(255,0,0)" stroke="none" d="M 58629,26252 L 58646,26208 58661,26212 58676,26217 58691,26221 58707,26224 58722,26226 58738,26227 58753,26228 58769,26229 58785,26228 58800,26228 58816,26226 58831,26224 58847,26221 58862,26218 58877,26213 58892,26208 58908,26202 58923,26196 58939,26191 58955,26187 58972,26183 58988,26181 59005,26179 59021,26179 59038,26179 59055,26180 59071,26182 59088,26185 59104,26189 59120,26194 59136,26199 59151,26205 59168,26211 59184,26217 59201,26221 59219,26225 59236,26228 59253,26230 59271,26231 59289,26232 59307,26232 59324,26231 59342,26229 59359,26226 59376,26223 59394,26219 59411,26214 59427,26208 59443,26202 59459,26197 59475,26192 59491,26188 59507,26185 59524,26183 59541,26182 59557,26182 59574,26182 59591,26183 59607,26185 59624,26188 59640,26192 59656,26197 59672,26202 59688,26208 59704,26214 59720,26219 59736,26223 59753,26226 59769,26228 59786,26230 59803,26231 59820,26232 59836,26232 59853,26231 59870,26229 59887,26227 59903,26224 59920,26220 59936,26215 59952,26210 59963,26257 59945,26262 59927,26266 59909,26270 59891,26273 59872,26275 59854,26277 59835,26278 59817,26278 59798,26278 59779,26276 59761,26274 59743,26271 59724,26268 59706,26263 59688,26259 59671,26253 59657,26247 59643,26243 59630,26238 59615,26235 59601,26232 59587,26231 59572,26229 59557,26229 59543,26229 59528,26231 59514,26232 59500,26235 59485,26238 59471,26243 59458,26247 59444,26253 59425,26259 59406,26264 59387,26269 59368,26272 59348,26275 59329,26277 59309,26278 59289,26278 59268,26277 59249,26276 59229,26274 59209,26271 59190,26266 59171,26262 59152,26256 59133,26250 59120,26244 59107,26239 59093,26235 59079,26232 59064,26229 59050,26227 59036,26226 59021,26226 59007,26227 58992,26228 58978,26230 58964,26233 58950,26237 58936,26241 58923,26247 58910,26253 58893,26258 58875,26262 58858,26266 58840,26270 58823,26272 58805,26274 58787,26275 58769,26275 58752,26275 58734,26274 58716,26272 58699,26269 58681,26266 58664,26262 58646,26257 58629,26252 Z"/>
   </g>
  </g>
  <g class="com.sun.star.drawing.PolyPolygonShape">
   <g id="id8">
    <rect class="BoundingBox" stroke="none" fill="none" x="58807" y="25079" width="986" height="671"/>
    <path fill="rgb(255,129,0)" stroke="none" d="M 59169,25711 L 59147,25707 59126,25703 59105,25698 59084,25691 59064,25684 59044,25677 59024,25668 59004,25658 58985,25648 58967,25637 58949,25624 58931,25612 58914,25598 58898,25584 58882,25569 58867,25554 58860,25546 58853,25537 58847,25529 58841,25520 58836,25511 58830,25501 58826,25491 58822,25482 58818,25472 58815,25461 58812,25451 58810,25441 58809,25430 58808,25419 58807,25409 58807,25398 58807,25388 58808,25377 58809,25366 58811,25356 58814,25345 58817,25335 58820,25325 58824,25315 58828,25305 58833,25296 58838,25286 58844,25277 58850,25268 58856,25260 58863,25252 58870,25244 58882,25232 58894,25220 58906,25209 58919,25198 58933,25188 58946,25178 58960,25169 58974,25160 58989,25151 59004,25144 59019,25136 59034,25130 59050,25123 59065,25118 59081,25113 59098,25108 59123,25101 59148,25095 59174,25091 59200,25085 59225,25082 59251,25080 59277,25079 59303,25079 59329,25079 59355,25081 59381,25083 59407,25087 59433,25092 59458,25097 59485,25103 59510,25110 59525,25114 59540,25119 59555,25125 59570,25131 59584,25137 59598,25144 59612,25152 59626,25160 59639,25168 59653,25177 59666,25186 59678,25195 59690,25205 59702,25216 59714,25227 59725,25238 59733,25246 59740,25255 59747,25264 59753,25273 59759,25283 59765,25293 59770,25303 59774,25313 59778,25324 59782,25334 59785,25345 59787,25356 59789,25368 59790,25379 59791,25390 59791,25401 59791,25413 59790,25424 59789,25435 59787,25446 59785,25457 59781,25468 59778,25479 59774,25489 59769,25500 59765,25510 59759,25520 59753,25529 59747,25539 59740,25548 59732,25556 59725,25564 59710,25579 59694,25593 59678,25606 59662,25619 59645,25631 59627,25642 59609,25653 59591,25662 59572,25671 59553,25679 59533,25687 59514,25693 59494,25699 59473,25704 59452,25708 59431,25711 59750,25711 59750,25749 58850,25749 58850,25711 59169,25711 Z"/>
   </g>
  </g>
 </g>
</svg>