<?xml version="1.0" encoding="UTF-8"?>
<!DOCTYPE svg PUBLIC "-//W3C//DTD SVG 1.1//EN" "http://www.w3.org/Graphics/SVG/1.1/DTD/svg11.dtd">
<svg version="1.2" width="25.03mm" height="25.02mm" viewBox="61049 24500 2503 2502" preserveAspectRatio="xMidYMid" fill-rule="evenodd" stroke-width="28.222" stroke-linejoin="round" xmlns="http://www.w3.org/2000/svg" xmlns:ooo="http://xml.openoffice.org/svg/export" xmlns:xlink="http://www.w3.org/1999/xlink" xmlns:presentation="http://sun.com/xmlns/staroffice/presentation" xmlns:smil="http://www.w3.org/2001/SMIL20/" xmlns:anim="urn:oasis:names:tc:opendocument:xmlns:animation:1.0" xml:space="preserve">
 <defs class="EmbeddedBulletChars">
  <g id="bullet-char-template-57356" transform="scale(0.00048828125,-0.00048828125)">
   <path d="M 580,1141 L 1163,571 580,0 -4,571 580,1141 Z"/>
  </g>
  <g id="bullet-char-template-57354" transform="scale(0.00048828125,-0.00048828125)">
   <path d="M 8,1128 L 1137,1128 1137,0 8,0 8,1128 Z"/>
  </g>
  <g id="bullet-char-template-10146" transform="scale(0.00048828125,-0.00048828125)">
   <path d="M 174,0 L 602,739 174,1481 1456,739 174,0 Z M 1358,739 L 309,1346 659,739 1358,739 Z"/>
  </g>
  <g id="bullet-char-template-10132" transform="scale(0.00048828125,-0.00048828125)">
   <path d="M 2015,739 L 1276,0 717,0 1260,543 174,543 174,936 1260,936 717,1481 1274,1481 2015,739 Z"/>
  </g>
  <g id="bullet-char-template-10007" transform="scale(0.00048828125,-0.00048828125)">
   <path d="M 0,-2 C -7,14 -16,27 -25,37 L 356,567 C 262,823 215,952 215,954 215,979 228,992 255,992 264,992 276,990 289,987 310,991 331,999 354,1012 L 381,999 492,748 772,1049 836,1024 860,1049 C 881,1039 901,1025 922,1006 886,937 835,863 770,784 769,783 710,716 594,584 L 774,223 C 774,196 753,168 711,139 L 727,119 C 717,90 699,76 672,76 641,76 570,178 457,381 L 164,-76 C 142,-110 111,-127 72,-127 30,-127 9,-110 8,-76 1,-67 -2,-52 -2,-32 -2,-23 -1,-13 0,-2 Z"/>
  </g>
  <g id="bullet-char-template-10004" transform="scale(0.00048828125,-0.00048828125)">
   <path d="M 285,-33 C 182,-33 111,30 74,156 52,228 41,333 41,471 41,549 55,616 82,672 116,743 169,778 240,778 293,778 328,747 346,684 L 369,508 C 377,444 397,411 428,410 L 1163,1116 C 1174,1127 1196,1133 1229,1133 1271,1133 1292,1118 1292,1087 L 1292,965 C 1292,929 1282,901 1262,881 L 442,47 C 390,-6 338,-33 285,-33 Z"/>
  </g>
  <g id="bullet-char-template-9679" transform="scale(0.00048828125,-0.00048828125)">
   <path d="M 813,0 C 632,0 489,54 383,161 276,268 223,411 223,592 223,773 276,916 383,1023 489,1130 632,1184 813,1184 992,1184 1136,1130 1245,1023 1353,916 1407,772 1407,592 1407,412 1353,268 1245,161 1136,54 992,0 813,0 Z"/>
  </g>
  <g id="bullet-char-template-8226" transform="scale(0.00048828125,-0.00048828125)">
   <path d="M 346,457 C 273,457 209,483 155,535 101,586 74,649 74,723 74,796 101,859 155,911 209,963 273,989 346,989 419,989 480,963 531,910 582,859 608,796 608,723 608,648 583,586 532,535 482,483 420,457 346,457 Z"/>
  </g>
  <g id="bullet-char-template-8211" transform="scale(0.00048828125,-0.00048828125)">
   <path d="M -4,459 L 1135,459 1135,606 -4,606 -4,459 Z"/>
  </g>
  <g id="bullet-char-template-61548" transform="scale(0.00048828125,-0.00048828125)">
   <path d="M 173,740 C 173,903 231,1043 346,1159 462,1274 601,1332 765,1332 928,1332 1067,1274 1183,1159 1299,1043 1357,903 1357,740 1357,577 1299,437 1183,322 1067,206 928,148 765,148 601,148 462,206 346,322 231,437 173,577 173,740 Z"/>
  </g>
 </defs>
 <g class="Page">
  <g class="com.sun.star.drawing.PolyPolygonShape">
   <g id="id3">
    <rect class="BoundingBox" stroke="none" fill="none" x="61049" y="24500" width="2503" height="2502"/>
    <path fill="rgb(255,0,0)" stroke="none" d="M 63551,25750 L 63551,25719 63549,25688 63547,25658 63545,25627 63541,25596 63537,25566 63532,25536 63527,25506 63520,25476 63513,25446 63506,25416 63497,25387 63488,25357 63478,25328 63467,25300 63456,25271 63444,25243 63431,25215 63417,25187 63403,25160 63388,25133 63373,25107 63357,25081 63340,25055 63323,25030 63305,25005 63286,24980 63267,24956 63247,24933 63227,24910 63206,24888 63185,24866 63163,24844 63140,24823 63117,24803 63094,24783 63070,24764 63045,24745 63020,24728 62995,24710 62969,24693 62943,24677 62917,24662 62890,24647 62863,24633 62835,24620 62807,24607 62779,24595 62751,24583 62722,24573 62693,24563 62663,24553 62634,24545 62604,24537 62574,24530 62544,24523 62514,24518 62484,24513 62454,24509 62423,24505 62392,24503 62362,24501 62331,24500 62301,24500 62270,24500 62239,24501 62209,24503 62178,24505 62147,24509 62117,24513 62087,24518 62057,24523 62027,24530 61997,24537 61967,24545 61938,24553 61908,24563 61879,24573 61851,24583 61822,24595 61794,24607 61766,24620 61738,24633 61711,24647 61684,24662 61658,24677 61632,24693 61606,24710 61581,24728 61556,24745 61531,24764 61507,24783 61484,24803 61461,24823 61438,24844 61416,24866 61395,24888 61374,24910 61354,24933 61334,24956 61315,24980 61296,25005 61278,25030 61261,25055 61243,25081 61227,25107 61212,25133 61197,25160 61183,25187 61169,25215 61156,25243 61144,25271 61133,25300 61122,25328 61112,25357 61103,25387 61094,25416 61087,25446 61080,25476 61073,25506 61068,25536 61063,25566 61059,25596 61055,25627 61053,25658 61051,25688 61049,25719 61049,25750 61049,25780 61051,25811 61053,25841 61055,25872 61059,25903 61063,25933 61068,25963 61073,25993 61080,26023 61087,26053 61094,26083 61103,26112 61112,26142 61122,26171 61133,26199 61144,26228 61156,26257 61169,26285 61183,26313 61197,26340 61212,26367 61227,26393 61243,26419 61261,26445 61278,26470 61296,26495 61315,26520 61334,26544 61354,26567 61374,26590 61395,26612 61416,26634 61438,26656 61461,26677 61484,26697 61507,26717 61531,26736 61556,26755 61581,26772 61606,26790 61632,26807 61658,26823 61684,26838 61711,26853 61738,26867 61766,26880 61794,26893 61822,26905 61851,26917 61879,26927 61908,26937 61938,26947 61967,26955 61997,26963 62027,26970 62057,26977 62087,26982 62117,26987 62147,26991 62178,26995 62209,26997 62239,26999 62270,27000 62300,27001 62331,27000 62362,26999 62392,26997 62423,26995 62454,26991 62484,26987 62514,26982 62544,26977 62574,26970 62604,26963 62634,26955 62663,26947 62693,26937 62722,26927 62751,26917 62779,26905 62807,26893 62835,26880 62863,26867 62890,26853 62917,26838 62943,26823 62969,26807 62995,26790 63020,26772 63045,26755 63070,26736 63094,26717 63117,26697 63140,26677 63163,26656 63185,26634 63206,26612 63227,26590 63247,26567 63267,26544 63286,26520 63305,26495 63323,26470 63340,26445 63357,26419 63373,26393 63388,26367 63403,26340 63417,26313 63431,26285 63444,26257 63456,26228 63467,26199 63478,26171 63488,26142 63497,26112 63506,26083 63513,26053 63520,26023 63527,25993 63532,25963 63537,25933 63541,25903 63545,25872 63547,25841 63549,25811 63551,25780 63551,25750 Z"/>
   </g>
  </g>
  <g class="com.sun.star.drawing.PolyPolygonShape">
   <g id="id4">
    <rect class="BoundingBox" stroke="none" fill="none" x="61396" y="24847" width="1809" height="1807"/>
    <path fill="rgb(255,255,255)" stroke="none" d="M 63204,25750 L 63203,25727 63203,25705 63201,25683 63199,25661 63197,25639 63194,25617 63190,25595 63186,25573 63182,25552 63176,25530 63171,25509 63165,25487 63158,25466 63151,25445 63143,25425 63135,25404 63126,25384 63117,25363 63107,25344 63097,25324 63086,25305 63075,25285 63063,25267 63051,25248 63039,25230 63026,25212 63012,25194 62998,25177 62984,25160 62970,25143 62955,25127 62939,25111 62923,25096 62907,25081 62890,25066 62873,25052 62856,25038 62838,25024 62820,25011 62802,24999 62784,24987 62765,24975 62746,24964 62726,24953 62706,24943 62687,24933 62666,24924 62646,24915 62626,24907 62605,24899 62584,24892 62563,24886 62541,24880 62520,24874 62498,24869 62477,24864 62455,24860 62433,24856 62411,24854 62389,24851 62367,24849 62345,24848 62323,24847 62299,24847 62277,24847 62255,24848 62233,24849 62211,24851 62189,24854 62167,24856 62145,24860 62123,24864 62102,24869 62080,24874 62059,24880 62037,24886 62016,24892 61995,24899 61974,24907 61954,24915 61933,24924 61913,24933 61894,24943 61874,24953 61854,24964 61835,24975 61816,24987 61798,24999 61780,25011 61762,25024 61744,25038 61727,25052 61710,25066 61693,25081 61677,25096 61661,25111 61645,25127 61630,25143 61616,25160 61602,25177 61588,25194 61574,25212 61561,25230 61549,25248 61537,25267 61525,25285 61514,25305 61503,25324 61493,25344 61483,25363 61474,25384 61465,25404 61457,25425 61449,25445 61442,25466 61435,25487 61429,25509 61424,25530 61418,25552 61414,25573 61410,25595 61406,25617 61403,25639 61401,25661 61399,25683 61398,25705 61397,25727 61396,25750 61397,25772 61398,25794 61399,25816 61401,25838 61403,25860 61406,25882 61410,25904 61414,25926 61418,25947 61424,25969 61429,25990 61435,26012 61442,26033 61449,26054 61457,26074 61465,26095 61474,26115 61483,26136 61493,26155 61503,26176 61514,26195 61525,26215 61537,26233 61549,26252 61561,26270 61574,26288 61588,26306 61602,26323 61616,26340 61630,26357 61645,26373 61661,26389 61677,26404 61693,26419 61710,26434 61727,26448 61744,26462 61762,26476 61780,26489 61798,26501 61816,26513 61835,26525 61854,26536 61874,26547 61894,26557 61913,26567 61933,26576 61954,26585 61974,26593 61995,26601 62016,26608 62037,26614 62059,26620 62080,26626 62102,26631 62123,26636 62145,26640 62167,26644 62189,26646 62211,26649 62233,26651 62255,26652 62277,26653 62299,26653 62323,26653 62345,26652 62367,26651 62389,26649 62411,26646 62433,26644 62455,26640 62477,26636 62498,26631 62520,26626 62541,26620 62563,26614 62584,26608 62605,26601 62626,26593 62646,26585 62666,26576 62687,26567 62706,26557 62726,26547 62746,26536 62765,26525 62784,26513 62802,26501 62820,26489 62838,26476 62856,26462 62873,26448 62890,26434 62907,26419 62923,26404 62939,26389 62955,26373 62970,26357 62984,26340 62998,26323 63012,26306 63026,26288 63039,26270 63051,26252 63063,26233 63075,26215 63086,26195 63097,26176 63107,26155 63117,26136 63126,26115 63135,26095 63143,26074 63151,26054 63158,26033 63165,26012 63171,25990 63176,25969 63182,25947 63186,25926 63190,25904 63194,25882 63197,25860 63199,25838 63201,25816 63203,25794 63203,25772 63204,25750 Z"/>
   </g>
  </g>
  <g class="com.sun.star.drawing.PolyPolygonShape">
   <g id="id5">
    <rect class="BoundingBox" stroke="none" fill="none" x="62034" y="26065" width="64" height="222"/>
    <path fill="rgb(0,0,0)" stroke="none" d="M 62034,26129 L 62056,26129 62056,26286 62097,26286 62097,26066 62056,26066 62034,26107 62034,26129 Z"/>
   </g>
  </g>
  <g class="com.sun.star.drawing.PolyPolygonShape">
   <g id="id6">
    <rect class="BoundingBox" stroke="none" fill="none" x="62153" y="26065" width="150" height="226"/>
    <path fill="rgb(0,0,0)" stroke="none" d="M 62157,26191 L 62196,26191 62197,26190 62197,26189 62198,26188 62199,26186 62200,26185 62201,26184 62202,26183 62203,26182 62204,26181 62205,26180 62206,26180 62208,26179 62209,26178 62210,26177 62211,26177 62213,26176 62214,26176 62215,26175 62217,26175 62218,26174 62220,26174 62221,26174 62222,26174 62224,26174 62225,26173 62227,26173 62228,26173 62230,26174 62231,26174 62232,26174 62235,26174 62236,26174 62238,26175 62239,26175 62240,26176 62242,26176 62243,26177 62244,26178 62245,26178 62247,26179 62248,26180 62249,26181 62250,26182 62251,26183 62252,26184 62253,26185 62254,26186 62255,26187 62256,26188 62257,26189 62257,26190 62258,26192 62259,26193 62259,26194 62260,26196 62260,26197 62261,26198 62261,26200 62262,26201 62262,26204 62262,26205 62262,26206 62262,26208 62262,26209 62262,26220 62262,26222 62262,26223 62262,26225 62262,26227 62261,26228 62261,26230 62261,26231 62260,26233 62259,26234 62259,26235 62258,26237 62257,26238 62256,26240 62256,26241 62255,26242 62254,26243 62253,26244 62252,26246 62250,26247 62249,26248 62248,26249 62246,26250 62245,26250 62244,26251 62243,26252 62241,26252 62240,26253 62238,26253 62237,26254 62235,26254 62233,26255 62231,26255 62230,26255 62228,26255 62226,26255 62225,26255 62223,26255 62222,26255 62220,26255 62219,26254 62217,26254 62216,26254 62214,26253 62213,26252 62211,26252 62210,26251 62208,26250 62207,26250 62206,26249 62205,26248 62203,26247 62202,26246 62201,26244 62200,26243 62199,26242 62198,26241 62197,26240 62196,26238 62196,26237 62195,26236 62194,26234 62194,26233 62193,26231 62193,26230 62153,26230 62153,26233 62154,26235 62155,26238 62156,26241 62157,26243 62158,26246 62159,26249 62161,26251 62162,26254 62163,26256 62165,26259 62167,26261 62169,26263 62171,26265 62173,26267 62175,26269 62177,26271 62179,26273 62181,26275 62184,26277 62186,26278 62188,26280 62191,26281 62193,26283 62196,26284 62199,26285 62201,26286 62204,26287 62207,26287 62210,26288 62213,26289 62215,26289 62218,26290 62221,26290 62224,26290 62227,26290 62230,26290 62233,26290 62237,26289 62239,26289 62242,26288 62245,26288 62248,26287 62250,26286 62253,26285 62256,26284 62259,26283 62261,26282 62264,26281 62266,26279 62269,26278 62271,26276 62273,26274 62276,26272 62278,26271 62280,26269 62282,26266 62284,26264 62286,26262 62287,26260 62289,26258 62291,26255 62292,26253 62294,26250 62295,26248 62296,26245 62297,26242 62298,26240 62299,26237 62300,26234 62301,26231 62301,26229 62302,26226 62302,26223 62302,26220 62302,26217 62302,26214 62302,26211 62302,26208 62302,26206 62301,26202 62301,26199 62300,26196 62300,26193 62299,26190 62298,26188 62297,26185 62296,26183 62294,26180 62293,26177 62292,26175 62290,26173 62288,26170 62287,26168 62285,26165 62283,26163 62281,26161 62279,26159 62277,26157 62275,26155 62272,26154 62270,26152 62268,26150 62265,26149 62263,26147 62260,26146 62258,26145 62255,26144 62252,26143 62249,26142 62246,26141 62244,26141 62241,26140 62238,26139 62235,26139 62231,26139 62229,26139 62226,26139 62223,26139 62220,26139 62217,26139 62214,26140 62211,26140 62209,26141 62206,26141 62203,26142 62200,26143 62198,26144 62198,26102 62287,26102 62287,26066 62157,26066 62157,26191 Z"/>
   </g>
  </g>
  <g class="com.sun.star.drawing.PolyPolygonShape">
   <g id="id7">
    <rect class="BoundingBox" stroke="none" fill="none" x="62355" y="26123" width="217" height="164"/>
    <path fill="rgb(0,0,0)" stroke="none" d="M 62355,26286 L 62393,26286 62393,26182 62393,26181 62393,26180 62393,26179 62394,26177 62394,26176 62394,26175 62394,26174 62395,26173 62396,26171 62396,26170 62397,26169 62397,26168 62398,26167 62399,26166 62400,26165 62401,26164 62402,26163 62403,26162 62404,26162 62405,26161 62406,26159 62407,26159 62408,26158 62409,26157 62410,26157 62412,26157 62413,26156 62414,26156 62415,26156 62417,26156 62418,26156 62419,26155 62420,26156 62422,26156 62423,26156 62424,26156 62425,26156 62427,26157 62428,26157 62429,26157 62430,26158 62431,26159 62433,26159 62434,26161 62435,26162 62436,26162 62437,26163 62438,26164 62438,26165 62439,26166 62440,26167 62441,26168 62442,26169 62442,26170 62443,26171 62443,26173 62444,26174 62444,26175 62444,26176 62445,26177 62445,26179 62445,26180 62445,26181 62445,26182 62445,26286 62482,26286 62482,26182 62482,26181 62482,26180 62482,26179 62482,26177 62483,26176 62483,26175 62483,26174 62484,26173 62484,26171 62485,26170 62485,26169 62486,26168 62487,26167 62488,26166 62489,26165 62489,26164 62490,26163 62491,26162 62492,26162 62493,26161 62495,26159 62496,26159 62497,26158 62498,26157 62499,26157 62500,26157 62502,26156 62503,26156 62504,26156 62505,26156 62507,26156 62508,26155 62509,26156 62510,26156 62512,26156 62513,26156 62514,26156 62515,26157 62517,26157 62518,26157 62519,26158 62520,26159 62521,26159 62522,26161 62523,26162 62524,26162 62525,26163 62526,26164 62527,26165 62528,26166 62529,26167 62530,26168 62530,26169 62531,26170 62531,26171 62532,26173 62532,26174 62533,26175 62533,26176 62533,26177 62534,26179 62534,26180 62534,26181 62534,26182 62534,26286 62571,26286 62571,26177 62570,26175 62570,26172 62570,26170 62570,26168 62569,26166 62569,26164 62568,26162 62568,26159 62567,26157 62566,26155 62565,26153 62564,26151 62563,26150 62562,26148 62561,26146 62560,26144 62559,26143 62557,26141 62556,26140 62554,26138 62553,26137 62551,26135 62550,26134 62548,26133 62546,26132 62544,26131 62542,26130 62540,26129 62538,26128 62537,26127 62535,26127 62533,26126 62531,26125 62528,26125 62526,26125 62524,26124 62522,26124 62520,26124 62518,26124 62516,26124 62514,26124 62512,26125 62510,26125 62508,26125 62506,26126 62504,26127 62502,26127 62500,26128 62498,26129 62496,26130 62494,26131 62492,26132 62490,26133 62489,26134 62487,26135 62485,26137 62484,26138 62482,26139 62481,26141 62479,26143 62478,26144 62477,26146 62476,26148 62475,26149 62474,26148 62473,26147 62472,26146 62471,26145 62470,26143 62469,26142 62468,26141 62468,26140 62466,26139 62465,26138 62464,26137 62463,26136 62462,26135 62461,26134 62460,26133 62458,26133 62457,26132 62456,26131 62454,26130 62453,26130 62452,26129 62450,26128 62449,26128 62448,26127 62446,26127 62445,26126 62443,26126 62442,26125 62441,26125 62439,26125 62438,26125 62436,26125 62435,26124 62433,26124 62432,26124 62430,26124 62429,26124 62427,26124 62426,26124 62424,26125 62423,26125 62421,26125 62420,26125 62418,26125 62417,26126 62416,26126 62414,26127 62413,26127 62411,26128 62410,26128 62409,26129 62407,26129 62406,26130 62405,26131 62404,26132 62402,26133 62401,26133 62400,26134 62399,26135 62397,26136 62396,26137 62395,26138 62394,26139 62393,26140 62393,26128 62355,26128 62355,26286 Z"/>
   </g>
  </g>
  <g class="com.sun.star.drawing.PolyPolygonShape">
   <g id="id8">
    <rect class="BoundingBox" stroke="none" fill="none" x="61742" y="26086" width="181" height="181"/>
    <path fill="rgb(0,0,0)" stroke="none" d="M 61831,26153 L 61922,26153 61922,26198 61831,26198 61831,26266 61742,26176 61831,26086 61831,26153 Z"/>
   </g>
  </g>
  <g class="com.sun.star.drawing.PolyPolygonShape">
   <g id="id9">
    <rect class="BoundingBox" stroke="none" fill="none" x="62678" y="26086" width="181" height="181"/>
    <path fill="rgb(0,0,0)" stroke="none" d="M 62769,26153 L 62678,26153 62678,26198 62769,26198 62769,26266 62858,26176 62769,26086 62769,26153 Z"/>
   </g>
  </g>
  <g class="com.sun.star.drawing.PolyPolygonShape">
   <g id="id10">
    <rect class="BoundingBox" stroke="none" fill="none" x="61808" y="25214" width="986" height="358"/>
    <path fill="rgb(0,0,0)" stroke="none" d="M 61932,25336 L 61914,25419 61896,25419 61914,25336 61932,25336 Z M 61949,25336 L 61954,25336 62028,25336 62028,25419 61932,25419 61949,25336 Z M 62076,25571 L 62076,25561 62075,25552 62072,25542 62069,25533 62065,25524 62060,25515 62054,25507 62047,25500 62039,25493 62032,25487 62023,25482 62014,25478 62005,25475 61995,25472 61985,25471 61975,25470 61965,25471 61956,25472 61946,25475 61937,25478 61928,25482 61919,25487 61911,25493 61904,25500 61897,25507 61891,25515 61886,25524 61882,25533 61878,25542 61876,25552 61875,25561 61874,25571 61808,25571 61808,25543 61828,25543 61848,25441 61865,25419 61879,25419 61914,25301 62077,25301 62077,25513 62462,25513 62462,25499 62090,25499 62090,25214 62792,25214 62792,25499 62665,25499 62665,25513 62788,25513 62788,25547 62721,25556 62721,25571 62686,25571 62685,25561 62684,25552 62681,25542 62678,25533 62674,25524 62668,25515 62663,25507 62656,25500 62649,25493 62641,25487 62632,25482 62623,25478 62614,25475 62604,25472 62594,25471 62584,25470 62574,25471 62565,25472 62555,25475 62546,25478 62537,25482 62528,25487 62520,25493 62513,25500 62506,25507 62500,25515 62495,25524 62491,25533 62488,25542 62485,25552 62484,25561 62483,25571 62076,25571 Z"/>
   </g>
  </g>
  <g class="com.sun.star.drawing.PolyPolygonShape">
   <g id="id11">
    <rect class="BoundingBox" stroke="none" fill="none" x="61885" y="25480" width="184" height="183"/>
    <path fill="rgb(0,0,0)" stroke="none" d="M 62006,25570 L 62005,25564 62004,25559 62001,25553 61997,25549 61993,25545 61987,25542 61982,25540 61976,25540 61970,25540 61964,25542 61959,25545 61954,25549 61951,25553 61948,25559 61946,25564 61945,25570 61946,25576 61948,25582 61951,25587 61954,25592 61959,25595 61964,25598 61970,25600 61976,25600 61982,25600 61987,25598 61993,25595 61997,25592 62001,25587 62004,25582 62005,25576 62006,25570 Z M 62067,25570 L 62066,25562 62065,25553 62063,25544 62060,25536 62056,25528 62052,25520 62046,25513 62040,25507 62034,25501 62027,25495 62019,25491 62011,25487 62002,25484 61993,25482 61985,25480 61976,25480 61967,25480 61958,25482 61949,25484 61941,25487 61933,25491 61925,25495 61918,25501 61912,25507 61906,25513 61900,25520 61896,25528 61892,25536 61889,25544 61887,25553 61886,25562 61885,25570 61886,25579 61887,25588 61889,25597 61892,25605 61896,25613 61900,25621 61906,25628 61912,25634 61918,25640 61925,25645 61933,25651 61941,25655 61949,25658 61958,25660 61967,25661 61976,25662 61985,25661 61993,25660 62002,25658 62011,25655 62019,25651 62027,25645 62034,25640 62040,25634 62046,25628 62052,25621 62056,25613 62060,25605 62063,25597 62065,25588 62066,25579 62067,25570 Z"/>
   </g>
  </g>
  <g class="com.sun.star.drawing.PolyPolygonShape">
   <g id="id12">
    <rect class="BoundingBox" stroke="none" fill="none" x="62493" y="25480" width="184" height="183"/>
    <path fill="rgb(0,0,0)" stroke="none" d="M 62615,25570 L 62614,25564 62613,25559 62610,25554 62606,25549 62601,25545 62596,25542 62591,25541 62585,25540 62579,25541 62573,25542 62568,25545 62563,25549 62559,25554 62557,25559 62555,25564 62554,25570 62555,25576 62557,25582 62559,25587 62563,25592 62568,25596 62573,25598 62579,25600 62585,25601 62591,25600 62596,25598 62601,25596 62606,25592 62610,25587 62613,25582 62614,25576 62615,25570 Z M 62675,25570 L 62674,25562 62673,25553 62671,25544 62668,25536 62664,25528 62659,25520 62654,25513 62648,25506 62642,25500 62635,25495 62627,25491 62619,25487 62611,25484 62602,25482 62593,25480 62584,25480 62575,25480 62567,25482 62558,25484 62549,25487 62541,25491 62533,25495 62526,25500 62519,25506 62514,25513 62508,25520 62504,25528 62500,25536 62497,25544 62495,25553 62493,25562 62493,25570 62493,25579 62495,25588 62497,25596 62500,25605 62504,25613 62508,25620 62514,25628 62519,25634 62526,25640 62533,25645 62541,25651 62549,25655 62558,25658 62567,25660 62575,25661 62584,25662 62593,25661 62602,25660 62611,25658 62619,25655 62627,25651 62635,25645 62642,25640 62648,25634 62654,25628 62659,25620 62664,25613 62668,25605 62671,25596 62673,25588 62674,25579 62675,25570 Z"/>
   </g>
  </g>
 </g>
</svg>