<?xml version="1.0" encoding="UTF-8"?>
<!DOCTYPE svg PUBLIC "-//W3C//DTD SVG 1.1//EN" "http://www.w3.org/Graphics/SVG/1.1/DTD/svg11.dtd">
<svg version="1.2" width="25.03mm" height="25.02mm" viewBox="64049 24500 2503 2502" preserveAspectRatio="xMidYMid" fill-rule="evenodd" stroke-width="28.222" stroke-linejoin="round" xmlns="http://www.w3.org/2000/svg" xmlns:ooo="http://xml.openoffice.org/svg/export" xmlns:xlink="http://www.w3.org/1999/xlink" xmlns:presentation="http://sun.com/xmlns/staroffice/presentation" xmlns:smil="http://www.w3.org/2001/SMIL20/" xmlns:anim="urn:oasis:names:tc:opendocument:xmlns:animation:1.0" xml:space="preserve">
 <defs class="EmbeddedBulletChars">
  <g id="bullet-char-template-57356" transform="scale(0.00048828125,-0.00048828125)">
   <path d="M 580,1141 L 1163,571 580,0 -4,571 580,1141 Z"/>
  </g>
  <g id="bullet-char-template-57354" transform="scale(0.00048828125,-0.00048828125)">
   <path d="M 8,1128 L 1137,1128 1137,0 8,0 8,1128 Z"/>
  </g>
  <g id="bullet-char-template-10146" transform="scale(0.00048828125,-0.00048828125)">
   <path d="M 174,0 L 602,739 174,1481 1456,739 174,0 Z M 1358,739 L 309,1346 659,739 1358,739 Z"/>
  </g>
  <g id="bullet-char-template-10132" transform="scale(0.00048828125,-0.00048828125)">
   <path d="M 2015,739 L 1276,0 717,0 1260,543 174,543 174,936 1260,936 717,1481 1274,1481 2015,739 Z"/>
  </g>
  <g id="bullet-char-template-10007" transform="scale(0.00048828125,-0.00048828125)">
   <path d="M 0,-2 C -7,14 -16,27 -25,37 L 356,567 C 262,823 215,952 215,954 215,979 228,992 255,992 264,992 276,990 289,987 310,991 331,999 354,1012 L 381,999 492,748 772,1049 836,1024 860,1049 C 881,1039 901,1025 922,1006 886,937 835,863 770,784 769,783 710,716 594,584 L 774,223 C 774,196 753,168 711,139 L 727,119 C 717,90 699,76 672,76 641,76 570,178 457,381 L 164,-76 C 142,-110 111,-127 72,-127 30,-127 9,-110 8,-76 1,-67 -2,-52 -2,-32 -2,-23 -1,-13 0,-2 Z"/>
  </g>
  <g id="bullet-char-template-10004" transform="scale(0.00048828125,-0.00048828125)">
   <path d="M 285,-33 C 182,-33 111,30 74,156 52,228 41,333 41,471 41,549 55,616 82,672 116,743 169,778 240,778 293,778 328,747 346,684 L 369,508 C 377,444 397,411 428,410 L 1163,1116 C 1174,1127 1196,1133 1229,1133 1271,1133 1292,1118 1292,1087 L 1292,965 C 1292,929 1282,901 1262,881 L 442,47 C 390,-6 338,-33 285,-33 Z"/>
  </g>
  <g id="bullet-char-template-9679" transform="scale(0.00048828125,-0.00048828125)">
   <path d="M 813,0 C 632,0 489,54 383,161 276,268 223,411 223,592 223,773 276,916 383,1023 489,1130 632,1184 813,1184 992,1184 1136,1130 1245,1023 1353,916 1407,772 1407,592 1407,412 1353,268 1245,161 1136,54 992,0 813,0 Z"/>
  </g>
  <g id="bullet-char-template-8226" transform="scale(0.00048828125,-0.00048828125)">
   <path d="M 346,457 C 273,457 209,483 155,535 101,586 74,649 74,723 74,796 101,859 155,911 209,963 273,989 346,989 419,989 480,963 531,910 582,859 608,796 608,723 608,648 583,586 532,535 482,483 420,457 346,457 Z"/>
  </g>
  <g id="bullet-char-template-8211" transform="scale(0.00048828125,-0.00048828125)">
   <path d="M -4,459 L 1135,459 1135,606 -4,606 -4,459 Z"/>
  </g>
  <g id="bullet-char-template-61548" transform="scale(0.00048828125,-0.00048828125)">
   <path d="M 173,740 C 173,903 231,1043 346,1159 462,1274 601,1332 765,1332 928,1332 1067,1274 1183,1159 1299,1043 1357,903 1357,740 1357,577 1299,437 1183,322 1067,206 928,148 765,148 601,148 462,206 346,322 231,437 173,577 173,740 Z"/>
  </g>
 </defs>
 <g class="Page">
  <g class="com.sun.star.drawing.PolyPolygonShape">
   <g id="id3">
    <rect class="BoundingBox" stroke="none" fill="none" x="64049" y="24500" width="2503" height="2502"/>
    <path fill="rgb(255,0,0)" stroke="none" d="M 66551,25750 L 66551,25719 66549,25688 66547,25658 66545,25627 66541,25596 66537,25566 66532,25536 66527,25506 66520,25476 66513,25446 66506,25416 66497,25387 66488,25357 66478,25328 66467,25300 66456,25271 66444,25243 66431,25215 66417,25187 66403,25160 66388,25133 66373,25107 66357,25081 66340,25055 66323,25030 66305,25005 66286,24980 66267,24956 66246,24933 66226,24910 66205,24888 66184,24866 66162,24844 66139,24823 66116,24803 66093,24783 66069,24764 66044,24745 66019,24728 65994,24710 65968,24693 65942,24677 65916,24662 65889,24647 65862,24633 65834,24620 65806,24607 65778,24595 65750,24583 65721,24573 65692,24563 65662,24553 65633,24545 65603,24537 65573,24530 65543,24523 65513,24518 65483,24513 65453,24509 65422,24505 65391,24503 65361,24501 65330,24500 65300,24500 65269,24500 65238,24501 65208,24503 65177,24505 65146,24509 65116,24513 65086,24518 65056,24523 65026,24530 64996,24537 64966,24545 64937,24553 64907,24563 64878,24573 64850,24583 64821,24595 64793,24607 64765,24620 64737,24633 64710,24647 64683,24662 64657,24677 64631,24693 64605,24710 64580,24728 64555,24745 64530,24764 64506,24783 64483,24803 64460,24823 64437,24844 64415,24866 64394,24888 64373,24910 64353,24933 64333,24956 64314,24980 64295,25005 64277,25030 64260,25055 64243,25081 64227,25107 64212,25133 64197,25160 64183,25187 64169,25215 64156,25243 64144,25271 64133,25300 64122,25328 64112,25357 64103,25387 64094,25416 64087,25446 64080,25476 64073,25506 64068,25536 64063,25566 64059,25596 64055,25627 64053,25658 64051,25688 64049,25719 64049,25749 64049,25780 64051,25811 64053,25841 64055,25872 64059,25903 64063,25933 64068,25963 64073,25993 64080,26023 64087,26053 64094,26083 64103,26112 64112,26142 64122,26171 64133,26199 64144,26228 64156,26257 64169,26285 64183,26313 64197,26340 64212,26367 64227,26393 64243,26419 64260,26445 64277,26470 64295,26495 64314,26520 64333,26544 64353,26567 64373,26590 64394,26612 64415,26634 64437,26656 64460,26677 64483,26697 64506,26717 64530,26736 64555,26755 64580,26772 64605,26790 64631,26807 64657,26823 64683,26838 64710,26853 64737,26867 64765,26880 64793,26893 64821,26905 64850,26917 64878,26927 64907,26937 64937,26947 64966,26955 64996,26963 65026,26970 65056,26977 65086,26982 65116,26987 65146,26991 65177,26995 65208,26997 65238,26999 65269,27000 65299,27001 65330,27000 65361,26999 65391,26997 65422,26995 65453,26991 65483,26987 65513,26982 65543,26977 65573,26970 65603,26963 65633,26955 65662,26947 65692,26937 65721,26927 65750,26917 65778,26905 65806,26893 65834,26880 65862,26867 65889,26853 65916,26838 65942,26823 65968,26807 65994,26790 66019,26772 66044,26755 66069,26736 66093,26717 66116,26697 66139,26677 66162,26656 66184,26634 66205,26612 66226,26590 66246,26567 66267,26544 66286,26520 66305,26495 66323,26470 66340,26445 66357,26419 66373,26393 66388,26367 66403,26340 66417,26313 66431,26285 66444,26257 66456,26228 66467,26199 66478,26171 66488,26142 66497,26112 66506,26083 66513,26053 66520,26023 66527,25993 66532,25963 66537,25933 66541,25903 66545,25872 66547,25841 66549,25811 66551,25780 66551,25750 Z"/>
   </g>
  </g>
  <g class="com.sun.star.drawing.PolyPolygonShape">
   <g id="id4">
    <rect class="BoundingBox" stroke="none" fill="none" x="64406" y="24857" width="1789" height="1787"/>
    <path fill="rgb(255,255,255)" stroke="none" d="M 66194,25750 L 66193,25728 66193,25706 66191,25684 66189,25662 66187,25640 66184,25618 66181,25597 66176,25575 66172,25554 66167,25533 66161,25511 66155,25490 66149,25469 66141,25449 66134,25428 66126,25408 66117,25388 66108,25368 66098,25348 66088,25329 66078,25309 66067,25291 66055,25272 66043,25253 66031,25235 66018,25218 66005,25200 65991,25183 65977,25166 65962,25150 65947,25134 65932,25118 65916,25103 65900,25088 65884,25073 65867,25059 65850,25046 65832,25032 65815,25020 65797,25007 65778,24995 65760,24984 65741,24973 65721,24962 65702,24952 65682,24942 65662,24933 65642,24925 65622,24916 65601,24909 65581,24902 65560,24895 65539,24889 65518,24883 65496,24878 65475,24874 65453,24870 65432,24866 65410,24863 65388,24861 65366,24859 65344,24858 65322,24857 65301,24857 65279,24857 65257,24858 65235,24859 65213,24861 65191,24863 65168,24866 65147,24870 65125,24874 65104,24878 65082,24883 65061,24889 65040,24895 65019,24902 64999,24909 64978,24916 64958,24925 64938,24933 64918,24942 64898,24952 64879,24962 64859,24973 64840,24984 64822,24995 64803,25007 64785,25020 64768,25032 64750,25046 64733,25059 64716,25073 64700,25088 64684,25103 64668,25118 64653,25134 64638,25150 64623,25166 64609,25183 64595,25200 64582,25218 64569,25235 64557,25253 64545,25272 64533,25291 64522,25309 64512,25329 64502,25348 64492,25368 64483,25388 64474,25408 64466,25428 64459,25449 64451,25469 64445,25490 64439,25511 64433,25533 64428,25554 64424,25575 64419,25597 64416,25618 64413,25640 64411,25662 64409,25684 64407,25706 64407,25728 64406,25749 64407,25771 64407,25793 64409,25815 64411,25837 64413,25859 64416,25881 64419,25903 64424,25925 64428,25946 64433,25968 64439,25989 64445,26010 64451,26031 64459,26051 64466,26072 64474,26092 64483,26112 64492,26132 64502,26152 64512,26171 64522,26191 64533,26210 64545,26228 64557,26247 64569,26265 64582,26282 64595,26300 64609,26317 64623,26334 64638,26350 64653,26366 64668,26382 64684,26397 64700,26412 64716,26427 64733,26441 64750,26454 64768,26468 64785,26481 64803,26493 64822,26505 64840,26516 64859,26527 64879,26538 64898,26548 64918,26558 64938,26567 64958,26575 64978,26584 64999,26591 65019,26598 65040,26605 65061,26611 65082,26617 65104,26622 65125,26626 65147,26630 65168,26634 65191,26637 65213,26639 65235,26641 65257,26642 65279,26643 65300,26643 65322,26643 65344,26642 65366,26641 65388,26639 65410,26637 65432,26634 65453,26630 65475,26626 65496,26622 65518,26617 65539,26611 65560,26605 65581,26598 65601,26591 65622,26584 65642,26575 65662,26567 65682,26558 65702,26548 65721,26538 65741,26527 65760,26516 65778,26505 65797,26493 65815,26481 65832,26468 65850,26454 65867,26441 65884,26427 65900,26412 65916,26397 65932,26382 65947,26366 65962,26350 65977,26334 65991,26317 66005,26300 66018,26282 66031,26265 66043,26247 66055,26228 66067,26210 66078,26191 66088,26171 66098,26152 66108,26132 66117,26112 66126,26092 66134,26072 66141,26051 66149,26031 66155,26010 66161,25989 66167,25968 66172,25946 66176,25925 66181,25903 66184,25881 66187,25859 66189,25837 66191,25815 66193,25793 66193,25771 66194,25750 Z"/>
   </g>
  </g>
  <g class="com.sun.star.drawing.PolyPolygonShape">
   <g id="id5">
    <rect class="BoundingBox" stroke="none" fill="none" x="65339" y="25822" width="186" height="364"/>
    <path fill="rgb(0,0,0)" stroke="none" d="M 65339,26078 L 65339,26094 65339,26096 65339,26098 65339,26100 65340,26102 65340,26105 65340,26107 65340,26109 65341,26111 65341,26114 65342,26116 65342,26118 65343,26120 65344,26122 65344,26124 65345,26126 65346,26129 65347,26131 65348,26133 65349,26135 65350,26137 65351,26139 65352,26141 65353,26143 65355,26144 65356,26146 65357,26148 65359,26150 65360,26152 65361,26153 65363,26155 65364,26157 65366,26158 65368,26160 65369,26161 65371,26163 65373,26164 65374,26166 65376,26167 65378,26169 65380,26170 65382,26171 65384,26172 65386,26173 65388,26174 65390,26175 65392,26177 65394,26177 65396,26178 65398,26179 65400,26180 65402,26181 65404,26181 65406,26182 65409,26182 65411,26183 65413,26184 65415,26184 65417,26184 65420,26185 65422,26185 65425,26185 65427,26185 65430,26185 65432,26185 65434,26185 65436,26185 65439,26185 65441,26185 65443,26185 65445,26184 65448,26184 65450,26184 65452,26183 65454,26182 65456,26182 65459,26181 65461,26181 65463,26180 65465,26179 65467,26178 65469,26177 65471,26177 65473,26175 65475,26174 65477,26173 65479,26172 65481,26171 65483,26170 65485,26169 65487,26167 65489,26166 65490,26164 65492,26163 65494,26161 65495,26160 65497,26158 65499,26157 65500,26155 65502,26153 65503,26152 65504,26150 65506,26148 65507,26146 65508,26144 65510,26143 65511,26141 65512,26139 65513,26137 65514,26135 65515,26133 65516,26131 65517,26129 65518,26126 65519,26124 65519,26122 65520,26120 65520,26118 65521,26116 65522,26114 65522,26111 65522,26109 65523,26107 65523,26105 65523,26102 65524,26100 65524,26098 65524,26096 65524,26094 65524,26027 65524,26024 65524,26022 65523,26019 65523,26016 65523,26013 65522,26011 65522,26008 65521,26005 65520,26003 65519,26000 65519,25998 65518,25995 65517,25993 65515,25990 65514,25988 65513,25985 65511,25983 65510,25980 65508,25978 65507,25976 65505,25974 65503,25972 65501,25970 65500,25968 65498,25966 65496,25964 65493,25962 65491,25960 65489,25959 65487,25957 65485,25956 65482,25954 65480,25953 65477,25952 65475,25950 65473,25949 65470,25948 65467,25947 65465,25946 65462,25946 65459,25945 65457,25944 65454,25944 65451,25943 65449,25943 65446,25943 65443,25942 65440,25942 65438,25942 65435,25942 65432,25943 65429,25943 65427,25943 65424,25944 65420,25944 65418,25945 65415,25946 65412,25946 65410,25947 65407,25948 65405,25949 65402,25950 65400,25952 65397,25953 65397,25868 65517,25868 65517,25822 65346,25822 65346,26002 65399,26002 65400,26000 65401,25999 65402,25998 65403,25997 65405,25996 65406,25995 65407,25994 65408,25993 65410,25992 65411,25991 65412,25991 65414,25990 65415,25990 65417,25989 65418,25988 65420,25988 65421,25988 65424,25987 65425,25987 65427,25987 65428,25986 65430,25986 65432,25986 65433,25986 65435,25986 65436,25986 65438,25987 65439,25987 65441,25987 65442,25988 65444,25988 65445,25989 65447,25989 65448,25990 65450,25990 65451,25991 65453,25992 65454,25993 65455,25994 65456,25995 65458,25995 65459,25997 65460,25998 65461,25999 65462,26000 65463,26001 65464,26002 65465,26004 65466,26005 65467,26006 65468,26008 65469,26009 65469,26010 65470,26012 65470,26013 65471,26015 65471,26016 65472,26018 65472,26019 65472,26021 65473,26022 65473,26024 65473,26026 65473,26027 65473,26099 65473,26100 65473,26102 65472,26104 65472,26106 65472,26108 65471,26110 65470,26112 65470,26114 65469,26116 65468,26118 65467,26120 65466,26121 65465,26123 65464,26124 65462,26126 65461,26127 65459,26129 65458,26130 65456,26131 65455,26132 65453,26134 65451,26135 65449,26135 65448,26136 65446,26137 65444,26138 65442,26138 65440,26139 65438,26139 65436,26139 65434,26139 65432,26139 65430,26139 65428,26139 65426,26139 65424,26139 65421,26138 65419,26138 65417,26137 65415,26136 65413,26135 65412,26135 65410,26134 65408,26132 65407,26131 65405,26130 65404,26129 65402,26127 65401,26126 65399,26124 65398,26123 65397,26121 65396,26120 65395,26118 65394,26116 65393,26114 65393,26112 65392,26110 65391,26108 65391,26106 65391,26104 65390,26102 65390,26100 65390,26099 65390,26078 65339,26078 Z"/>
   </g>
  </g>
  <g class="com.sun.star.drawing.PolyPolygonShape">
   <g id="id6">
    <rect class="BoundingBox" stroke="none" fill="none" x="65582" y="25817" width="185" height="369"/>
    <path fill="rgb(0,0,0)" stroke="none" d="M 65633,26099 L 65633,25905 65633,25903 65634,25901 65634,25899 65634,25897 65635,25895 65635,25893 65636,25891 65637,25889 65637,25887 65638,25885 65639,25884 65640,25882 65641,25880 65643,25879 65644,25877 65645,25876 65647,25873 65648,25872 65650,25871 65652,25870 65653,25869 65655,25868 65657,25867 65659,25866 65661,25865 65662,25865 65664,25864 65666,25864 65668,25863 65670,25863 65672,25863 65674,25863 65676,25863 65678,25863 65680,25863 65682,25864 65684,25864 65686,25865 65688,25865 65690,25866 65692,25867 65694,25868 65695,25869 65697,25870 65699,25871 65700,25872 65702,25873 65703,25876 65705,25877 65706,25879 65707,25880 65708,25882 65709,25884 65710,25885 65711,25887 65712,25889 65713,25891 65713,25893 65714,25895 65714,25897 65715,25899 65715,25901 65715,25903 65715,25905 65715,26099 65715,26101 65715,26102 65715,26104 65714,26106 65714,26108 65713,26110 65713,26112 65712,26114 65711,26116 65710,26118 65709,26120 65708,26121 65707,26123 65706,26124 65705,26126 65703,26127 65702,26129 65700,26130 65699,26131 65697,26132 65695,26134 65694,26135 65692,26135 65690,26136 65688,26137 65686,26138 65684,26138 65682,26139 65680,26139 65678,26139 65676,26139 65674,26139 65672,26139 65670,26139 65668,26139 65666,26139 65664,26138 65662,26138 65661,26137 65659,26136 65657,26135 65655,26135 65653,26134 65652,26132 65650,26131 65648,26130 65647,26129 65645,26127 65644,26126 65643,26124 65641,26123 65640,26121 65639,26120 65638,26118 65637,26116 65637,26114 65636,26112 65635,26110 65635,26108 65634,26106 65634,26104 65634,26102 65633,26101 65633,26099 Z M 65582,26093 L 65582,25910 65582,25908 65582,25905 65582,25903 65582,25901 65582,25899 65582,25896 65583,25894 65583,25892 65584,25890 65584,25888 65585,25885 65585,25883 65586,25881 65587,25879 65588,25877 65588,25875 65589,25872 65590,25870 65591,25867 65592,25865 65593,25863 65594,25862 65596,25860 65597,25858 65598,25856 65599,25854 65601,25852 65602,25851 65604,25849 65605,25847 65608,25845 65609,25844 65611,25842 65613,25841 65614,25839 65616,25838 65618,25836 65620,25835 65621,25834 65623,25832 65625,25831 65627,25830 65629,25829 65631,25828 65633,25827 65635,25826 65637,25825 65639,25824 65641,25823 65643,25822 65645,25822 65648,25821 65650,25820 65652,25820 65654,25819 65656,25819 65659,25818 65661,25818 65663,25818 65665,25817 65668,25817 65670,25817 65672,25817 65674,25817 65677,25817 65679,25817 65681,25817 65683,25817 65686,25818 65688,25818 65690,25818 65692,25819 65694,25819 65697,25820 65699,25820 65701,25821 65703,25822 65705,25822 65707,25823 65709,25824 65711,25825 65714,25826 65716,25827 65718,25828 65720,25829 65721,25830 65723,25831 65725,25832 65727,25834 65729,25835 65731,25836 65733,25838 65734,25839 65736,25841 65738,25842 65739,25844 65741,25845 65742,25847 65744,25849 65745,25851 65747,25852 65748,25854 65749,25856 65751,25858 65752,25860 65753,25862 65754,25863 65755,25865 65756,25867 65757,25870 65758,25872 65759,25875 65760,25877 65761,25879 65761,25881 65762,25883 65763,25885 65763,25888 65764,25890 65764,25892 65765,25894 65765,25896 65765,25899 65766,25901 65766,25903 65766,25905 65766,25908 65766,25910 65766,26093 65766,26096 65766,26098 65766,26100 65766,26102 65765,26105 65765,26107 65765,26109 65764,26111 65764,26114 65763,26116 65763,26118 65762,26120 65761,26122 65761,26124 65760,26126 65759,26129 65758,26131 65757,26133 65756,26135 65755,26137 65754,26139 65753,26141 65752,26143 65751,26144 65749,26146 65748,26148 65747,26150 65745,26152 65744,26153 65742,26155 65741,26157 65739,26158 65738,26160 65736,26161 65734,26163 65733,26164 65731,26166 65729,26167 65727,26169 65725,26170 65723,26171 65721,26172 65720,26173 65718,26174 65716,26175 65714,26177 65711,26177 65709,26178 65707,26179 65705,26180 65703,26181 65701,26181 65699,26182 65697,26182 65694,26183 65692,26184 65690,26184 65688,26184 65686,26185 65683,26185 65681,26185 65679,26185 65677,26185 65674,26185 65672,26185 65670,26185 65668,26185 65665,26185 65663,26185 65661,26184 65659,26184 65656,26184 65654,26183 65652,26182 65650,26182 65648,26181 65645,26181 65643,26180 65641,26179 65639,26178 65637,26177 65635,26177 65633,26175 65631,26174 65629,26173 65627,26172 65625,26171 65623,26170 65621,26169 65620,26167 65618,26166 65616,26164 65614,26163 65613,26161 65611,26160 65609,26158 65608,26157 65605,26155 65604,26153 65602,26152 65601,26150 65599,26148 65598,26146 65597,26144 65596,26143 65594,26141 65593,26139 65592,26137 65591,26135 65590,26133 65589,26131 65588,26129 65588,26126 65587,26124 65586,26122 65585,26120 65585,26118 65584,26116 65584,26114 65583,26111 65583,26109 65582,26107 65582,26105 65582,26102 65582,26100 65582,26098 65582,26096 65582,26093 Z"/>
   </g>
  </g>
  <g class="com.sun.star.drawing.PolyPolygonShape">
   <g id="id7">
    <rect class="BoundingBox" stroke="none" fill="none" x="65339" y="25315" width="293" height="294"/>
    <path fill="rgb(0,0,0)" stroke="none" d="M 65339,25608 L 65390,25608 65390,25395 65390,25392 65391,25389 65392,25385 65393,25382 65394,25379 65396,25376 65398,25373 65400,25371 65403,25369 65405,25367 65408,25365 65411,25363 65415,25362 65418,25362 65421,25361 65424,25361 65428,25361 65431,25362 65434,25362 65438,25363 65441,25365 65444,25367 65446,25369 65449,25371 65451,25373 65453,25376 65455,25379 65456,25382 65457,25385 65458,25389 65459,25392 65459,25395 65459,25608 65510,25608 65510,25395 65510,25392 65511,25389 65512,25385 65513,25382 65514,25379 65516,25376 65518,25373 65520,25371 65523,25369 65525,25367 65528,25365 65531,25363 65535,25362 65538,25362 65541,25361 65545,25361 65548,25361 65551,25362 65554,25362 65558,25363 65561,25365 65564,25367 65566,25369 65569,25371 65571,25373 65573,25376 65575,25379 65576,25382 65577,25385 65578,25389 65579,25392 65579,25395 65579,25608 65631,25608 65631,25386 65631,25381 65630,25375 65629,25369 65628,25364 65626,25358 65623,25353 65619,25348 65616,25344 65613,25339 65609,25335 65604,25331 65600,25328 65595,25325 65590,25322 65585,25320 65579,25318 65574,25317 65568,25316 65562,25315 65556,25315 65551,25316 65545,25317 65539,25318 65534,25320 65529,25322 65524,25325 65519,25328 65514,25331 65510,25335 65506,25339 65502,25343 65499,25348 65495,25342 65489,25336 65484,25331 65477,25326 65470,25322 65463,25319 65456,25317 65448,25316 65440,25315 65432,25316 65424,25317 65417,25319 65410,25322 65403,25325 65396,25330 65390,25335 65390,25321 65339,25321 65339,25608 Z"/>
   </g>
  </g>
  <g class="com.sun.star.drawing.PolyPolygonShape">
   <g id="id8">
    <rect class="BoundingBox" stroke="none" fill="none" x="64827" y="25309" width="443" height="884"/>
    <path fill="rgb(0,0,0)" stroke="none" d="M 64999,25676 L 65049,25676 65051,25676 65053,25676 65055,25676 65057,25676 65059,25675 65061,25675 65063,25675 65066,25674 65068,25674 65070,25673 65072,25673 65074,25672 65076,25672 65078,25671 65080,25670 65082,25670 65084,25669 65085,25668 65087,25667 65089,25666 65091,25665 65093,25664 65095,25663 65096,25662 65098,25660 65100,25659 65102,25658 65103,25657 65105,25655 65106,25654 65108,25652 65109,25651 65111,25649 65112,25648 65114,25646 65115,25645 65116,25643 65118,25641 65119,25640 65120,25638 65121,25636 65122,25634 65123,25633 65124,25631 65125,25629 65126,25627 65127,25625 65128,25623 65129,25621 65130,25619 65130,25617 65131,25615 65131,25613 65132,25611 65132,25609 65133,25607 65133,25605 65133,25603 65134,25601 65134,25599 65134,25597 65134,25594 65134,25592 65135,25590 65135,25505 65134,25503 65134,25500 65134,25498 65134,25496 65134,25494 65133,25492 65133,25490 65133,25488 65132,25486 65132,25484 65131,25482 65131,25480 65130,25478 65130,25476 65129,25474 65128,25472 65127,25470 65126,25468 65125,25466 65124,25464 65123,25462 65122,25461 65121,25459 65120,25457 65119,25455 65118,25454 65116,25452 65115,25450 65114,25449 65112,25447 65111,25445 65109,25444 65108,25443 65106,25441 65105,25440 65103,25438 65102,25437 65100,25436 65098,25434 65096,25433 65095,25432 65093,25431 65091,25430 65089,25429 65087,25428 65085,25427 65084,25426 65082,25425 65080,25425 65078,25424 65076,25423 65074,25423 65072,25422 65070,25421 65068,25421 65066,25421 65063,25420 65061,25420 65059,25419 65057,25419 65055,25419 65053,25419 65051,25419 65049,25419 65046,25419 65044,25419 65041,25419 65039,25419 65037,25419 65035,25420 65033,25420 65031,25421 65029,25421 65027,25421 65025,25422 65023,25423 65021,25423 65019,25424 65017,25425 65015,25425 65013,25426 65011,25427 65009,25428 65007,25429 65005,25430 65004,25431 65002,25432 65000,25433 64998,25434 64997,25436 64995,25437 64993,25438 64992,25440 64990,25441 64989,25443 64987,25444 64986,25445 64984,25447 64983,25449 64981,25450 64980,25452 64979,25454 64978,25455 64976,25457 64975,25459 64974,25461 64973,25462 64972,25464 64971,25466 64970,25468 64969,25470 64969,25472 64968,25474 64967,25476 64966,25478 64966,25480 64965,25482 64965,25484 64964,25486 64964,25488 64963,25490 64963,25492 64963,25494 64962,25496 64962,25498 64962,25500 64962,25503 64962,25505 64962,25541 64840,25541 64840,25517 64840,25514 64840,25512 64840,25509 64840,25507 64840,25504 64840,25502 64840,25499 64840,25496 64841,25494 64841,25491 64841,25489 64842,25486 64842,25484 64843,25481 64843,25479 64844,25476 64844,25474 64845,25471 64845,25469 64846,25466 64846,25464 64847,25461 64848,25459 64848,25456 64849,25454 64850,25452 64851,25449 64852,25447 64853,25444 64853,25442 64854,25440 64855,25437 64856,25435 64857,25433 64859,25430 64860,25428 64861,25426 64862,25423 64863,25421 64864,25419 64865,25416 64867,25414 64868,25412 64869,25410 64870,25408 64872,25405 64873,25403 64875,25401 64876,25399 64877,25397 64879,25395 64880,25393 64882,25391 64884,25389 64885,25387 64887,25385 64888,25383 64890,25381 64892,25379 64894,25377 64895,25375 64897,25373 64899,25371 64900,25370 64902,25368 64904,25366 64906,25364 64908,25363 64910,25361 64912,25359 64914,25358 64916,25356 64918,25354 64920,25353 64922,25351 64924,25350 64926,25348 64928,25347 64930,25345 64932,25344 64934,25342 64936,25341 64939,25340 64941,25338 64943,25337 64945,25336 64947,25334 64950,25333 64952,25332 64954,25331 64956,25330 64959,25329 64961,25328 64963,25327 64966,25325 64968,25325 64970,25324 64973,25323 64975,25322 64978,25321 64980,25320 64982,25319 64985,25318 64987,25318 64990,25317 64992,25316 64995,25316 64997,25315 65000,25314 65002,25314 65005,25313 65007,25313 65010,25312 65012,25312 65015,25311 65017,25311 65020,25311 65022,25310 65025,25310 65027,25310 65030,25309 65032,25309 65035,25309 65038,25309 65040,25309 65043,25309 65045,25309 65049,25309 65051,25309 65054,25309 65056,25309 65059,25309 65062,25309 65064,25309 65067,25309 65069,25310 65072,25310 65074,25310 65077,25311 65079,25311 65082,25311 65084,25312 65087,25312 65089,25313 65092,25313 65094,25314 65097,25314 65099,25315 65102,25316 65104,25316 65107,25317 65109,25318 65112,25318 65114,25319 65117,25320 65119,25321 65121,25322 65124,25323 65126,25324 65128,25325 65131,25325 65133,25327 65135,25328 65138,25329 65140,25330 65142,25331 65145,25332 65147,25333 65149,25334 65151,25336 65154,25337 65156,25338 65158,25340 65160,25341 65162,25342 65164,25344 65166,25345 65169,25347 65171,25348 65173,25350 65175,25351 65177,25353 65179,25354 65181,25356 65183,25358 65185,25359 65187,25361 65189,25363 65190,25364 65192,25366 65194,25368 65196,25370 65198,25371 65200,25373 65201,25375 65203,25377 65205,25379 65206,25381 65208,25383 65210,25385 65211,25387 65213,25389 65214,25391 65216,25393 65217,25395 65219,25397 65220,25399 65222,25401 65223,25403 65225,25405 65226,25408 65227,25410 65229,25412 65230,25414 65231,25416 65232,25419 65234,25421 65235,25423 65236,25426 65237,25428 65238,25430 65239,25433 65240,25435 65241,25437 65242,25440 65243,25442 65244,25444 65245,25447 65246,25449 65246,25452 65247,25454 65248,25456 65249,25459 65249,25461 65250,25464 65251,25466 65251,25469 65252,25471 65252,25474 65253,25476 65253,25479 65254,25481 65254,25484 65255,25486 65255,25489 65255,25491 65256,25494 65256,25496 65256,25499 65256,25502 65257,25504 65257,25507 65257,25509 65257,25512 65257,25514 65257,25517 65257,25590 65257,25593 65257,25596 65257,25598 65257,25601 65256,25604 65256,25606 65256,25609 65256,25611 65255,25614 65255,25617 65254,25619 65254,25622 65253,25625 65253,25627 65252,25630 65252,25632 65251,25635 65250,25637 65250,25640 65249,25643 65248,25645 65247,25647 65246,25650 65245,25652 65244,25655 65243,25657 65242,25660 65241,25662 65240,25665 65239,25667 65238,25669 65236,25672 65235,25674 65234,25676 65232,25679 65231,25681 65230,25683 65228,25685 65227,25688 65225,25690 65224,25692 65222,25694 65220,25696 65219,25698 65217,25700 65215,25702 65214,25704 65212,25706 65210,25708 65208,25710 65206,25712 65205,25714 65203,25716 65201,25717 65199,25719 65197,25721 65195,25723 65193,25724 65190,25726 65188,25727 65186,25729 65184,25731 65182,25732 65180,25734 65182,25735 65185,25736 65187,25738 65190,25739 65192,25741 65194,25743 65197,25744 65199,25746 65201,25748 65204,25749 65206,25751 65208,25753 65210,25755 65212,25757 65215,25759 65217,25761 65219,25763 65221,25765 65223,25767 65225,25769 65227,25771 65228,25773 65230,25775 65232,25778 65234,25780 65236,25782 65237,25785 65239,25787 65241,25789 65242,25792 65244,25794 65245,25797 65247,25799 65248,25802 65249,25804 65251,25807 65252,25809 65253,25812 65254,25814 65255,25817 65257,25820 65258,25822 65259,25825 65260,25828 65261,25831 65261,25833 65262,25836 65263,25839 65264,25841 65265,25844 65265,25847 65266,25850 65266,25853 65267,25856 65267,25858 65268,25861 65268,25864 65268,25867 65269,25870 65269,25873 65269,25876 65269,25878 65269,25881 65269,25884 65269,25970 65269,25973 65269,25975 65269,25978 65269,25981 65269,25983 65269,25986 65268,25989 65268,25993 65268,25995 65268,25998 65267,26001 65267,26003 65266,26006 65266,26009 65265,26011 65265,26014 65265,26017 65264,26019 65263,26022 65263,26024 65262,26027 65261,26030 65261,26032 65260,26035 65259,26037 65258,26040 65257,26043 65256,26045 65255,26048 65254,26050 65253,26053 65252,26055 65251,26058 65250,26060 65249,26063 65248,26065 65247,26068 65246,26070 65245,26072 65243,26075 65242,26077 65241,26080 65239,26082 65238,26084 65236,26087 65235,26089 65234,26091 65232,26093 65231,26096 65229,26098 65227,26100 65226,26102 65224,26104 65222,26106 65221,26109 65219,26111 65217,26113 65216,26115 65214,26117 65212,26119 65210,26121 65209,26123 65206,26125 65205,26127 65203,26129 65201,26131 65199,26132 65197,26134 65195,26136 65193,26138 65191,26140 65189,26141 65186,26143 65184,26145 65182,26146 65180,26148 65178,26150 65176,26151 65174,26153 65171,26154 65169,26156 65167,26157 65164,26158 65162,26160 65160,26161 65157,26163 65155,26164 65153,26165 65150,26167 65148,26168 65145,26169 65143,26170 65140,26171 65138,26172 65136,26173 65133,26175 65131,26176 65128,26177 65126,26177 65123,26178 65121,26179 65118,26180 65115,26181 65113,26182 65110,26183 65108,26183 65105,26184 65102,26185 65100,26185 65097,26186 65094,26187 65092,26187 65089,26188 65086,26188 65084,26189 65081,26189 65078,26189 65076,26190 65073,26190 65070,26190 65068,26191 65065,26191 65062,26191 65060,26191 65057,26191 65054,26191 65051,26191 65049,26191 65045,26191 65042,26191 65040,26191 65037,26191 65034,26191 65032,26191 65029,26191 65026,26190 65023,26190 65021,26190 65018,26189 65015,26189 65013,26189 65010,26188 65007,26188 65005,26187 65002,26187 64999,26186 64997,26185 64994,26185 64992,26184 64989,26183 64986,26183 64984,26182 64981,26181 64979,26180 64976,26179 64974,26178 64971,26177 64969,26177 64966,26176 64963,26175 64961,26173 64958,26172 64956,26171 64954,26170 64951,26169 64949,26168 64946,26167 64944,26165 64941,26164 64939,26163 64937,26161 64934,26160 64932,26158 64930,26157 64928,26156 64925,26154 64923,26153 64921,26151 64919,26150 64916,26148 64914,26146 64912,26145 64910,26143 64908,26141 64906,26140 64904,26138 64902,26136 64900,26134 64898,26132 64896,26131 64894,26129 64892,26127 64890,26125 64888,26123 64886,26121 64884,26119 64883,26117 64881,26115 64879,26113 64877,26111 64876,26109 64874,26106 64872,26104 64871,26102 64869,26100 64868,26098 64866,26096 64864,26093 64863,26091 64861,26089 64860,26087 64859,26084 64857,26082 64856,26080 64855,26077 64853,26075 64852,26072 64851,26070 64850,26068 64848,26065 64847,26063 64846,26060 64845,26058 64844,26055 64843,26053 64842,26050 64841,26048 64840,26045 64839,26043 64838,26040 64838,26037 64837,26035 64836,26032 64835,26030 64835,26027 64834,26024 64833,26022 64833,26019 64832,26017 64832,26014 64831,26011 64831,26009 64830,26006 64830,26003 64829,26001 64829,25998 64829,25995 64828,25993 64828,25989 64828,25986 64828,25983 64827,25981 64827,25978 64827,25975 64827,25973 64827,25970 64827,25933 64950,25933 64950,25982 64950,25985 64950,25987 64950,25989 64950,25993 64950,25995 64951,25998 64951,26000 64952,26002 64952,26005 64953,26007 64953,26009 64954,26012 64955,26014 64955,26016 64956,26018 64957,26021 64958,26023 64959,26025 64960,26027 64961,26029 64963,26031 64964,26033 64965,26036 64966,26038 64968,26040 64969,26042 64970,26043 64972,26045 64974,26047 64975,26049 64977,26051 64978,26052 64980,26054 64982,26056 64984,26057 64986,26059 64987,26060 64989,26062 64991,26063 64993,26065 64995,26066 64997,26067 64999,26068 65002,26070 65004,26071 65006,26072 65008,26073 65010,26074 65012,26075 65015,26075 65017,26076 65019,26077 65022,26078 65024,26078 65026,26079 65029,26079 65031,26080 65033,26080 65036,26080 65038,26081 65041,26081 65043,26081 65045,26081 65049,26081 65051,26081 65054,26081 65056,26081 65058,26081 65061,26080 65063,26080 65066,26080 65068,26079 65070,26079 65073,26078 65075,26078 65077,26077 65079,26076 65082,26075 65084,26075 65086,26074 65088,26073 65091,26072 65093,26071 65095,26070 65097,26068 65099,26067 65101,26066 65103,26065 65105,26063 65107,26062 65109,26060 65111,26059 65113,26057 65115,26056 65116,26054 65118,26052 65120,26051 65121,26049 65123,26047 65124,26045 65126,26043 65128,26042 65129,26040 65130,26038 65131,26036 65133,26033 65134,26031 65135,26029 65136,26027 65137,26025 65138,26023 65139,26021 65140,26018 65141,26016 65142,26014 65143,26012 65143,26009 65144,26007 65144,26005 65145,26002 65145,26000 65146,25998 65146,25995 65146,25993 65146,25989 65147,25987 65147,25985 65147,25982 65147,25884 65147,25882 65147,25879 65146,25877 65146,25875 65146,25872 65146,25870 65145,25867 65145,25865 65144,25863 65144,25860 65143,25858 65143,25856 65142,25853 65141,25851 65140,25849 65139,25847 65138,25845 65137,25842 65136,25840 65135,25838 65134,25836 65133,25834 65131,25832 65130,25830 65129,25828 65128,25826 65126,25824 65124,25822 65123,25820 65121,25818 65120,25817 65118,25815 65116,25813 65115,25812 65113,25810 65111,25809 65109,25807 65107,25805 65105,25804 65103,25803 65101,25802 65099,25800 65097,25799 65095,25798 65093,25797 65091,25796 65088,25795 65086,25794 65084,25793 65082,25792 65079,25791 65077,25791 65075,25790 65073,25789 65070,25789 65068,25788 65066,25788 65063,25787 65061,25787 65058,25787 65056,25787 65054,25786 65051,25786 65049,25786 64999,25786 64999,25676 Z"/>
   </g>
  </g>
  <g class="com.sun.star.drawing.PolyPolygonShape">
   <g id="id9">
    <rect class="BoundingBox" stroke="none" fill="none" x="64409" y="25440" width="367" height="621"/>
    <path fill="rgb(0,0,0)" stroke="none" d="M 64775,25750 L 64465,25440 64459,25458 64452,25477 64447,25496 64441,25515 64436,25534 64431,25553 64427,25573 64424,25592 64419,25612 64417,25631 64414,25651 64412,25671 64411,25691 64410,25711 64409,25731 64409,25750 64409,25770 64410,25790 64411,25810 64412,25829 64414,25849 64417,25869 64419,25888 64424,25908 64427,25927 64431,25947 64436,25966 64441,25985 64447,26004 64452,26023 64459,26042 64465,26060 64775,25750 Z"/>
   </g>
  </g>
  <g class="com.sun.star.drawing.PolyPolygonShape">
   <g id="id10">
    <rect class="BoundingBox" stroke="none" fill="none" x="65825" y="25440" width="367" height="621"/>
    <path fill="rgb(0,0,0)" stroke="none" d="M 65825,25750 L 66136,25440 66142,25458 66149,25477 66154,25496 66160,25515 66165,25534 66170,25553 66174,25573 66177,25592 66181,25612 66183,25631 66186,25651 66188,25671 66189,25691 66190,25711 66191,25731 66191,25751 66191,25770 66190,25790 66189,25810 66188,25829 66186,25849 66183,25869 66181,25888 66177,25908 66174,25927 66170,25947 66165,25966 66160,25985 66154,26004 66149,26023 66142,26042 66136,26060 65825,25750 Z"/>
   </g>
  </g>
 </g>
</svg>