<?xml version="1.0" encoding="UTF-8"?>
<!DOCTYPE svg PUBLIC "-//W3C//DTD SVG 1.1//EN" "http://www.w3.org/Graphics/SVG/1.1/DTD/svg11.dtd">
<svg version="1.2" width="25.03mm" height="25.02mm" viewBox="67049 24500 2503 2502" preserveAspectRatio="xMidYMid" fill-rule="evenodd" stroke-width="28.222" stroke-linejoin="round" xmlns="http://www.w3.org/2000/svg" xmlns:ooo="http://xml.openoffice.org/svg/export" xmlns:xlink="http://www.w3.org/1999/xlink" xmlns:presentation="http://sun.com/xmlns/staroffice/presentation" xmlns:smil="http://www.w3.org/2001/SMIL20/" xmlns:anim="urn:oasis:names:tc:opendocument:xmlns:animation:1.0" xml:space="preserve">
 <defs class="EmbeddedBulletChars">
  <g id="bullet-char-template-57356" transform="scale(0.00048828125,-0.00048828125)">
   <path d="M 580,1141 L 1163,571 580,0 -4,571 580,1141 Z"/>
  </g>
  <g id="bullet-char-template-57354" transform="scale(0.00048828125,-0.00048828125)">
   <path d="M 8,1128 L 1137,1128 1137,0 8,0 8,1128 Z"/>
  </g>
  <g id="bullet-char-template-10146" transform="scale(0.00048828125,-0.00048828125)">
   <path d="M 174,0 L 602,739 174,1481 1456,739 174,0 Z M 1358,739 L 309,1346 659,739 1358,739 Z"/>
  </g>
  <g id="bullet-char-template-10132" transform="scale(0.00048828125,-0.00048828125)">
   <path d="M 2015,739 L 1276,0 717,0 1260,543 174,543 174,936 1260,936 717,1481 1274,1481 2015,739 Z"/>
  </g>
  <g id="bullet-char-template-10007" transform="scale(0.00048828125,-0.00048828125)">
   <path d="M 0,-2 C -7,14 -16,27 -25,37 L 356,567 C 262,823 215,952 215,954 215,979 228,992 255,992 264,992 276,990 289,987 310,991 331,999 354,1012 L 381,999 492,748 772,1049 836,1024 860,1049 C 881,1039 901,1025 922,1006 886,937 835,863 770,784 769,783 710,716 594,584 L 774,223 C 774,196 753,168 711,139 L 727,119 C 717,90 699,76 672,76 641,76 570,178 457,381 L 164,-76 C 142,-110 111,-127 72,-127 30,-127 9,-110 8,-76 1,-67 -2,-52 -2,-32 -2,-23 -1,-13 0,-2 Z"/>
  </g>
  <g id="bullet-char-template-10004" transform="scale(0.00048828125,-0.00048828125)">
   <path d="M 285,-33 C 182,-33 111,30 74,156 52,228 41,333 41,471 41,549 55,616 82,672 116,743 169,778 240,778 293,778 328,747 346,684 L 369,508 C 377,444 397,411 428,410 L 1163,1116 C 1174,1127 1196,1133 1229,1133 1271,1133 1292,1118 1292,1087 L 1292,965 C 1292,929 1282,901 1262,881 L 442,47 C 390,-6 338,-33 285,-33 Z"/>
  </g>
  <g id="bullet-char-template-9679" transform="scale(0.00048828125,-0.00048828125)">
   <path d="M 813,0 C 632,0 489,54 383,161 276,268 223,411 223,592 223,773 276,916 383,1023 489,1130 632,1184 813,1184 992,1184 1136,1130 1245,1023 1353,916 1407,772 1407,592 1407,412 1353,268 1245,161 1136,54 992,0 813,0 Z"/>
  </g>
  <g id="bullet-char-template-8226" transform="scale(0.00048828125,-0.00048828125)">
   <path d="M 346,457 C 273,457 209,483 155,535 101,586 74,649 74,723 74,796 101,859 155,911 209,963 273,989 346,989 419,989 480,963 531,910 582,859 608,796 608,723 608,648 583,586 532,535 482,483 420,457 346,457 Z"/>
  </g>
  <g id="bullet-char-template-8211" transform="scale(0.00048828125,-0.00048828125)">
   <path d="M -4,459 L 1135,459 1135,606 -4,606 -4,459 Z"/>
  </g>
  <g id="bullet-char-template-61548" transform="scale(0.00048828125,-0.00048828125)">
   <path d="M 173,740 C 173,903 231,1043 346,1159 462,1274 601,1332 765,1332 928,1332 1067,1274 1183,1159 1299,1043 1357,903 1357,740 1357,577 1299,437 1183,322 1067,206 928,148 765,148 601,148 462,206 346,322 231,437 173,577 173,740 Z"/>
  </g>
 </defs>
 <g class="Page">
  <g class="com.sun.star.drawing.PolyPolygonShape">
   <g id="id3">
    <rect class="BoundingBox" stroke="none" fill="none" x="67049" y="24500" width="2503" height="2502"/>
    <path fill="rgb(255,0,0)" stroke="none" d="M 69551,25750 L 69551,25719 69549,25688 69547,25658 69545,25627 69541,25596 69537,25566 69532,25536 69527,25506 69520,25476 69513,25446 69506,25416 69497,25387 69488,25357 69478,25328 69467,25300 69456,25271 69444,25243 69431,25215 69417,25187 69403,25160 69388,25133 69373,25107 69357,25081 69340,25055 69323,25030 69305,25005 69286,24980 69267,24956 69247,24933 69227,24910 69206,24888 69185,24866 69163,24844 69140,24823 69117,24803 69094,24783 69070,24764 69045,24745 69020,24728 68995,24710 68969,24693 68943,24677 68917,24662 68890,24647 68863,24633 68835,24620 68807,24607 68779,24595 68751,24583 68721,24573 68692,24563 68662,24553 68633,24545 68603,24537 68573,24530 68543,24523 68513,24518 68483,24513 68453,24509 68422,24505 68391,24503 68361,24501 68330,24500 68300,24500 68269,24500 68238,24501 68207,24503 68177,24505 68146,24509 68116,24513 68086,24518 68056,24523 68026,24530 67996,24537 67966,24545 67937,24553 67907,24563 67878,24573 67849,24583 67821,24595 67793,24607 67765,24620 67737,24633 67710,24647 67683,24662 67657,24677 67631,24693 67605,24710 67580,24728 67555,24745 67530,24764 67506,24783 67483,24803 67460,24823 67437,24844 67415,24866 67394,24888 67373,24910 67353,24933 67333,24956 67314,24980 67295,25005 67277,25030 67260,25055 67243,25081 67227,25107 67212,25133 67197,25160 67183,25187 67169,25215 67156,25243 67144,25271 67133,25300 67122,25328 67112,25357 67103,25387 67094,25416 67087,25446 67080,25476 67073,25506 67068,25536 67063,25566 67059,25596 67055,25627 67052,25658 67051,25688 67049,25719 67049,25750 67049,25780 67051,25811 67052,25841 67055,25872 67059,25903 67063,25933 67068,25963 67073,25993 67080,26023 67087,26053 67094,26083 67103,26112 67112,26142 67122,26171 67133,26199 67144,26228 67156,26257 67169,26285 67183,26313 67197,26340 67212,26367 67227,26393 67243,26419 67260,26445 67277,26470 67295,26495 67314,26520 67333,26544 67353,26567 67373,26590 67394,26612 67415,26634 67437,26656 67460,26677 67483,26697 67506,26717 67530,26736 67555,26755 67580,26772 67605,26790 67631,26807 67657,26823 67683,26838 67710,26853 67737,26867 67765,26880 67793,26893 67821,26905 67849,26917 67878,26927 67907,26937 67937,26947 67966,26955 67996,26963 68026,26970 68056,26977 68086,26982 68116,26987 68146,26991 68177,26995 68207,26997 68238,26999 68269,27000 68299,27001 68330,27000 68361,26999 68391,26997 68422,26995 68453,26991 68483,26987 68513,26982 68543,26977 68573,26970 68603,26963 68633,26955 68662,26947 68692,26937 68721,26927 68751,26917 68779,26905 68807,26893 68835,26880 68863,26867 68890,26853 68917,26838 68943,26823 68969,26807 68995,26790 69020,26772 69045,26755 69070,26736 69094,26717 69117,26697 69140,26677 69163,26656 69185,26634 69206,26612 69227,26590 69247,26567 69267,26544 69286,26520 69305,26495 69323,26470 69340,26445 69357,26419 69373,26393 69388,26367 69403,26340 69417,26313 69431,26285 69444,26257 69456,26228 69467,26199 69478,26171 69488,26142 69497,26112 69506,26083 69513,26053 69520,26023 69527,25993 69532,25963 69537,25933 69541,25903 69545,25872 69547,25841 69549,25811 69551,25780 69551,25750 Z"/>
   </g>
  </g>
  <g class="com.sun.star.drawing.PolyPolygonShape">
   <g id="id4">
    <rect class="BoundingBox" stroke="none" fill="none" x="67396" y="24847" width="1809" height="1807"/>
    <path fill="rgb(255,255,255)" stroke="none" d="M 69204,25750 L 69203,25727 69202,25705 69201,25683 69199,25661 69197,25639 69194,25617 69190,25595 69186,25573 69182,25552 69176,25530 69171,25509 69165,25487 69158,25466 69151,25445 69143,25425 69135,25404 69126,25384 69117,25363 69107,25344 69097,25324 69086,25305 69075,25285 69063,25267 69051,25248 69039,25230 69026,25212 69012,25194 68998,25177 68984,25160 68970,25143 68954,25127 68939,25111 68923,25096 68907,25081 68890,25066 68873,25052 68856,25038 68838,25024 68820,25011 68802,24999 68784,24987 68765,24975 68746,24964 68726,24953 68706,24943 68687,24933 68666,24924 68646,24915 68626,24907 68605,24899 68584,24892 68563,24886 68541,24880 68520,24874 68498,24869 68477,24864 68455,24860 68433,24856 68411,24854 68389,24851 68367,24849 68345,24848 68323,24847 68300,24847 68278,24847 68256,24848 68234,24849 68212,24851 68190,24854 68168,24856 68146,24860 68124,24864 68103,24869 68081,24874 68060,24880 68038,24886 68017,24892 67996,24899 67975,24907 67955,24915 67934,24924 67914,24933 67895,24943 67875,24953 67855,24964 67836,24975 67817,24987 67799,24999 67781,25011 67763,25024 67745,25038 67728,25052 67710,25066 67693,25081 67677,25096 67661,25111 67645,25127 67630,25143 67616,25160 67601,25177 67588,25194 67574,25212 67561,25230 67549,25248 67537,25267 67525,25285 67514,25305 67503,25324 67493,25344 67483,25363 67474,25384 67465,25404 67457,25425 67449,25445 67442,25466 67435,25487 67429,25509 67424,25530 67418,25552 67414,25573 67410,25595 67406,25617 67403,25639 67401,25661 67399,25683 67397,25705 67397,25727 67396,25750 67397,25772 67397,25794 67399,25816 67401,25838 67403,25860 67406,25882 67410,25904 67414,25926 67418,25947 67424,25969 67429,25990 67435,26012 67442,26033 67449,26054 67457,26074 67465,26095 67474,26115 67483,26136 67493,26155 67503,26176 67514,26195 67525,26215 67537,26233 67549,26252 67561,26270 67574,26288 67588,26306 67601,26323 67616,26340 67630,26357 67645,26373 67661,26389 67677,26404 67693,26419 67710,26434 67728,26448 67745,26462 67763,26476 67781,26489 67799,26501 67817,26513 67836,26525 67855,26536 67875,26547 67895,26557 67914,26567 67934,26576 67955,26585 67975,26593 67996,26601 68017,26608 68038,26614 68060,26620 68081,26626 68103,26631 68124,26636 68146,26640 68168,26644 68190,26646 68212,26649 68234,26651 68256,26652 68278,26653 68300,26653 68323,26653 68345,26652 68367,26651 68389,26649 68411,26646 68433,26644 68455,26640 68477,26636 68498,26631 68520,26626 68541,26620 68563,26614 68584,26608 68605,26601 68626,26593 68646,26585 68666,26576 68687,26567 68706,26557 68726,26547 68746,26536 68765,26525 68784,26513 68802,26501 68820,26489 68838,26476 68856,26462 68873,26448 68890,26434 68907,26419 68923,26404 68939,26389 68954,26373 68970,26357 68984,26340 68998,26323 69012,26306 69026,26288 69039,26270 69051,26252 69063,26233 69075,26215 69086,26195 69097,26176 69107,26155 69117,26136 69126,26115 69135,26095 69143,26074 69151,26054 69158,26033 69165,26012 69171,25990 69176,25969 69182,25947 69186,25926 69190,25904 69194,25882 69197,25860 69199,25838 69201,25816 69202,25794 69203,25772 69204,25750 Z"/>
   </g>
  </g>
  <g class="com.sun.star.drawing.PolyPolygonShape">
   <g id="id5">
    <rect class="BoundingBox" stroke="none" fill="none" x="67981" y="24847" width="639" height="380"/>
    <path fill="rgb(0,0,0)" stroke="none" d="M 68299,25226 L 67981,24906 68000,24899 68019,24892 68038,24886 68058,24880 68078,24875 68098,24870 68117,24866 68137,24862 68157,24858 68178,24855 68198,24852 68218,24850 68238,24849 68259,24848 68279,24847 68299,24847 68320,24847 68340,24848 68361,24849 68381,24850 68401,24852 68421,24855 68442,24858 68462,24862 68483,24866 68502,24870 68522,24875 68542,24880 68562,24886 68581,24892 68600,24899 68619,24906 68299,25226 Z"/>
   </g>
  </g>
  <g class="com.sun.star.drawing.PolyPolygonShape">
   <g id="id6">
    <rect class="BoundingBox" stroke="none" fill="none" x="67791" y="25322" width="479" height="857"/>
    <path fill="rgb(0,0,0)" stroke="none" d="M 67927,25933 L 68110,25534 68110,25933 67927,25933 Z M 67791,25933 L 68074,25322 68233,25322 68233,25933 68269,25933 68269,26043 68233,26043 68233,26178 68110,26178 68110,26043 67791,26043 67791,25933 Z"/>
   </g>
  </g>
  <g class="com.sun.star.drawing.PolyPolygonShape">
   <g id="id7">
    <rect class="BoundingBox" stroke="none" fill="none" x="67981" y="26273" width="639" height="381"/>
    <path fill="rgb(0,0,0)" stroke="none" d="M 68299,26274 L 67981,26594 68000,26601 68019,26608 68038,26614 68058,26620 68078,26625 68098,26630 68117,26634 68137,26638 68157,26642 68178,26645 68198,26648 68218,26650 68238,26651 68259,26652 68279,26653 68299,26653 68320,26653 68340,26652 68361,26651 68381,26650 68401,26648 68421,26645 68442,26642 68462,26638 68483,26634 68502,26630 68522,26625 68542,26620 68562,26614 68581,26608 68600,26601 68619,26594 68299,26274 Z"/>
   </g>
  </g>
  <g class="com.sun.star.drawing.PolyPolygonShape">
   <g id="id8">
    <rect class="BoundingBox" stroke="none" fill="none" x="68339" y="25790" width="185" height="364"/>
    <path fill="rgb(0,0,0)" stroke="none" d="M 68339,26045 L 68339,26060 68339,26063 68340,26065 68340,26067 68340,26069 68340,26072 68340,26074 68342,26076 68342,26078 68343,26080 68343,26083 68344,26085 68344,26087 68345,26089 68346,26091 68347,26093 68347,26095 68348,26097 68349,26099 68350,26103 68351,26104 68352,26106 68353,26108 68355,26110 68356,26112 68357,26114 68358,26116 68360,26118 68361,26119 68363,26121 68364,26123 68366,26124 68367,26126 68369,26128 68371,26129 68372,26131 68374,26132 68376,26134 68377,26135 68379,26136 68381,26137 68383,26139 68385,26140 68387,26141 68389,26142 68391,26143 68393,26144 68395,26145 68397,26146 68399,26147 68401,26148 68403,26148 68405,26149 68407,26150 68410,26150 68412,26151 68414,26151 68416,26152 68418,26152 68421,26152 68423,26152 68425,26153 68427,26153 68430,26153 68432,26153 68434,26153 68436,26153 68439,26153 68441,26152 68443,26152 68445,26152 68447,26152 68450,26151 68452,26151 68454,26150 68456,26150 68458,26149 68461,26148 68463,26148 68465,26147 68467,26146 68469,26145 68471,26144 68473,26143 68475,26142 68477,26141 68479,26140 68481,26139 68483,26137 68485,26136 68486,26135 68488,26134 68490,26132 68492,26131 68493,26129 68495,26128 68497,26126 68498,26124 68500,26123 68501,26121 68503,26119 68504,26118 68505,26116 68507,26114 68508,26112 68509,26110 68510,26108 68511,26106 68512,26104 68514,26103 68515,26099 68515,26097 68516,26095 68517,26093 68518,26091 68519,26089 68519,26087 68520,26085 68521,26083 68521,26080 68522,26078 68522,26076 68522,26074 68523,26072 68523,26069 68523,26067 68523,26065 68523,26063 68523,26060 68523,25994 68523,25992 68523,25989 68523,25986 68523,25983 68522,25981 68522,25978 68521,25975 68521,25973 68520,25970 68519,25967 68518,25965 68517,25962 68516,25960 68515,25957 68514,25955 68512,25953 68511,25950 68509,25948 68508,25946 68506,25943 68505,25941 68503,25939 68501,25937 68499,25935 68497,25933 68495,25931 68493,25930 68491,25928 68489,25926 68487,25925 68484,25923 68482,25922 68480,25920 68477,25919 68475,25918 68472,25917 68470,25916 68467,25915 68464,25914 68462,25913 68459,25912 68456,25912 68454,25911 68451,25911 68449,25911 68446,25910 68443,25910 68440,25910 68438,25910 68435,25910 68432,25910 68429,25911 68427,25911 68424,25911 68421,25912 68419,25912 68416,25913 68413,25914 68411,25915 68408,25916 68406,25917 68403,25918 68401,25919 68398,25920 68398,25837 68516,25837 68516,25791 68348,25791 68348,25969 68400,25969 68401,25968 68402,25967 68403,25965 68404,25964 68406,25963 68407,25962 68408,25961 68409,25961 68411,25960 68412,25959 68413,25958 68415,25958 68416,25957 68418,25956 68419,25956 68421,25955 68422,25955 68424,25954 68425,25954 68427,25954 68428,25954 68430,25954 68431,25954 68433,25954 68435,25954 68436,25954 68438,25954 68439,25954 68441,25955 68442,25955 68444,25956 68445,25956 68447,25957 68448,25957 68450,25958 68451,25959 68452,25959 68454,25960 68455,25961 68456,25962 68458,25963 68459,25964 68460,25965 68461,25966 68462,25967 68463,25968 68464,25970 68465,25971 68466,25972 68467,25973 68468,25975 68468,25976 68469,25978 68469,25979 68470,25981 68471,25982 68471,25983 68471,25985 68472,25987 68472,25988 68472,25990 68472,25991 68473,25993 68473,25994 68473,26065 68473,26067 68472,26069 68472,26071 68472,26073 68471,26075 68471,26077 68470,26079 68469,26081 68469,26083 68468,26085 68467,26086 68466,26088 68465,26090 68463,26091 68462,26093 68461,26094 68459,26096 68458,26097 68456,26098 68454,26099 68453,26101 68451,26102 68449,26103 68447,26104 68445,26105 68444,26105 68442,26106 68440,26106 68438,26107 68436,26107 68434,26107 68432,26107 68430,26107 68428,26107 68426,26107 68424,26106 68422,26106 68420,26105 68418,26105 68416,26104 68414,26103 68413,26102 68411,26101 68409,26099 68408,26098 68406,26097 68405,26096 68403,26094 68402,26093 68400,26091 68399,26090 68398,26088 68397,26086 68396,26085 68395,26083 68394,26081 68394,26079 68393,26077 68392,26075 68392,26073 68392,26071 68391,26069 68391,26067 68391,26065 68391,26045 68339,26045 Z"/>
   </g>
  </g>
  <g class="com.sun.star.drawing.PolyPolygonShape">
   <g id="id9">
    <rect class="BoundingBox" stroke="none" fill="none" x="68581" y="25786" width="185" height="368"/>
    <path fill="rgb(0,0,0)" stroke="none" d="M 68631,26065 L 68631,25872 68632,25871 68632,25869 68632,25867 68632,25865 68633,25863 68633,25861 68634,25859 68635,25857 68635,25855 68636,25853 68637,25852 68638,25850 68639,25848 68641,25847 68642,25845 68643,25844 68645,25842 68646,25841 68648,25840 68650,25839 68651,25838 68653,25837 68655,25836 68657,25835 68658,25834 68660,25834 68662,25833 68664,25833 68666,25832 68668,25832 68670,25832 68672,25832 68674,25832 68676,25832 68678,25832 68680,25833 68682,25833 68684,25834 68686,25834 68688,25835 68689,25836 68691,25837 68693,25838 68695,25839 68696,25840 68698,25841 68699,25842 68701,25844 68702,25845 68704,25847 68706,25848 68707,25850 68708,25852 68709,25853 68710,25855 68711,25857 68711,25859 68712,25861 68713,25863 68713,25865 68713,25867 68713,25869 68714,25871 68714,25872 68714,26065 68714,26067 68713,26069 68713,26071 68713,26073 68713,26075 68712,26077 68711,26079 68711,26081 68710,26083 68709,26085 68708,26086 68707,26088 68706,26090 68704,26091 68702,26093 68701,26094 68699,26096 68698,26097 68696,26099 68695,26100 68693,26101 68691,26102 68689,26103 68688,26104 68686,26105 68684,26105 68682,26106 68680,26106 68678,26107 68676,26107 68674,26107 68672,26107 68670,26107 68668,26107 68666,26107 68664,26106 68662,26106 68660,26105 68658,26105 68657,26104 68655,26103 68653,26102 68651,26101 68650,26100 68648,26099 68646,26097 68645,26096 68643,26094 68642,26093 68641,26091 68639,26090 68638,26088 68637,26086 68636,26085 68635,26083 68635,26081 68634,26079 68633,26077 68633,26075 68632,26073 68632,26071 68632,26069 68632,26067 68631,26065 Z M 68581,26060 L 68581,25878 68581,25875 68581,25873 68581,25871 68581,25869 68581,25866 68582,25864 68582,25862 68582,25860 68583,25857 68583,25855 68584,25853 68585,25851 68585,25849 68586,25847 68587,25845 68588,25843 68589,25840 68589,25838 68590,25836 68591,25834 68592,25832 68594,25831 68595,25829 68596,25827 68597,25825 68599,25823 68600,25821 68601,25819 68603,25818 68604,25816 68606,25814 68607,25813 68609,25811 68611,25810 68612,25808 68614,25807 68616,25805 68618,25804 68619,25803 68621,25802 68623,25800 68625,25799 68627,25798 68629,25797 68631,25796 68633,25795 68635,25794 68637,25793 68639,25792 68641,25791 68643,25791 68646,25790 68648,25789 68650,25789 68652,25788 68654,25788 68656,25787 68659,25787 68661,25787 68663,25787 68665,25786 68668,25786 68670,25786 68672,25786 68674,25786 68677,25786 68679,25786 68681,25787 68683,25787 68685,25787 68688,25787 68690,25788 68692,25788 68694,25789 68697,25789 68699,25790 68701,25791 68703,25791 68706,25792 68708,25793 68710,25794 68712,25795 68714,25796 68716,25797 68718,25798 68720,25799 68722,25800 68724,25802 68726,25803 68728,25804 68729,25805 68731,25807 68733,25808 68735,25810 68736,25811 68738,25813 68739,25814 68741,25816 68742,25818 68744,25819 68745,25821 68746,25823 68748,25825 68749,25827 68750,25829 68752,25831 68753,25832 68754,25834 68755,25836 68756,25838 68757,25840 68758,25843 68758,25845 68759,25847 68760,25849 68761,25851 68761,25853 68762,25855 68762,25857 68763,25860 68763,25862 68764,25864 68764,25866 68764,25869 68764,25871 68765,25873 68765,25875 68765,25878 68765,26060 68765,26063 68765,26065 68764,26067 68764,26069 68764,26072 68764,26074 68763,26076 68763,26078 68762,26080 68762,26083 68761,26085 68761,26087 68760,26089 68759,26091 68758,26093 68758,26095 68757,26097 68756,26100 68755,26102 68754,26104 68753,26106 68752,26108 68750,26110 68749,26112 68748,26114 68746,26116 68745,26118 68744,26119 68742,26121 68741,26123 68739,26124 68738,26126 68736,26128 68735,26129 68733,26131 68731,26132 68729,26133 68728,26135 68726,26136 68724,26137 68722,26139 68720,26140 68718,26141 68716,26142 68714,26143 68712,26144 68710,26145 68708,26146 68706,26147 68703,26148 68701,26148 68699,26149 68697,26150 68694,26150 68692,26151 68690,26151 68688,26152 68685,26152 68683,26152 68681,26152 68679,26153 68677,26153 68674,26153 68672,26153 68670,26153 68668,26153 68665,26153 68663,26152 68661,26152 68659,26152 68656,26152 68654,26151 68652,26151 68650,26150 68648,26150 68646,26149 68643,26148 68641,26148 68639,26147 68637,26146 68635,26145 68633,26144 68631,26143 68629,26142 68627,26141 68625,26140 68623,26139 68621,26137 68619,26136 68618,26135 68616,26133 68614,26132 68612,26131 68611,26129 68609,26128 68607,26126 68606,26124 68604,26123 68603,26121 68601,26119 68600,26118 68599,26116 68597,26114 68596,26112 68595,26110 68594,26108 68592,26106 68591,26104 68590,26102 68589,26100 68589,26097 68588,26095 68587,26093 68586,26091 68585,26089 68585,26087 68584,26085 68583,26083 68583,26080 68582,26078 68582,26076 68582,26074 68581,26072 68581,26069 68581,26067 68581,26065 68581,26063 68581,26060 Z"/>
   </g>
  </g>
  <g class="com.sun.star.drawing.PolyPolygonShape">
   <g id="id10">
    <rect class="BoundingBox" stroke="none" fill="none" x="68338" y="25352" width="294" height="294"/>
    <path fill="rgb(0,0,0)" stroke="none" d="M 68338,25645 L 68390,25645 68390,25432 68390,25429 68390,25426 68391,25423 68392,25419 68394,25416 68396,25413 68398,25411 68400,25408 68402,25406 68405,25404 68408,25402 68411,25401 68414,25400 68417,25399 68421,25398 68424,25398 68427,25398 68431,25399 68434,25400 68437,25401 68440,25402 68443,25404 68446,25406 68448,25408 68451,25411 68453,25413 68454,25416 68456,25419 68457,25423 68458,25426 68458,25429 68458,25432 68458,25645 68510,25645 68510,25432 68510,25429 68510,25426 68511,25423 68512,25419 68514,25416 68516,25413 68518,25411 68520,25408 68522,25406 68525,25404 68528,25402 68532,25401 68535,25400 68538,25399 68542,25398 68545,25398 68549,25398 68552,25399 68555,25400 68558,25401 68561,25402 68564,25404 68567,25406 68569,25408 68572,25411 68574,25413 68575,25416 68577,25419 68578,25423 68579,25426 68579,25429 68579,25432 68579,25645 68631,25645 68631,25424 68631,25418 68630,25412 68629,25407 68627,25401 68625,25396 68623,25391 68620,25386 68617,25381 68613,25376 68609,25372 68605,25369 68600,25365 68595,25362 68590,25359 68585,25357 68580,25355 68574,25354 68568,25353 68563,25353 68557,25353 68551,25353 68546,25354 68540,25355 68535,25357 68528,25359 68523,25362 68519,25365 68514,25369 68510,25372 68506,25376 68502,25381 68499,25385 68494,25379 68489,25373 68483,25368 68477,25363 68470,25360 68463,25357 68455,25354 68448,25353 68440,25352 68432,25353 68424,25354 68417,25356 68409,25359 68402,25363 68396,25367 68390,25372 68390,25358 68338,25358 68338,25645 Z"/>
   </g>
  </g>
 </g>
</svg>