<?xml version="1.0" encoding="UTF-8"?>
<!DOCTYPE svg PUBLIC "-//W3C//DTD SVG 1.1//EN" "http://www.w3.org/Graphics/SVG/1.1/DTD/svg11.dtd">
<svg version="1.2" width="25.03mm" height="25.02mm" viewBox="7049 24500 2503 2502" preserveAspectRatio="xMidYMid" fill-rule="evenodd" stroke-width="28.222" stroke-linejoin="round" xmlns="http://www.w3.org/2000/svg" xmlns:ooo="http://xml.openoffice.org/svg/export" xmlns:xlink="http://www.w3.org/1999/xlink" xmlns:presentation="http://sun.com/xmlns/staroffice/presentation" xmlns:smil="http://www.w3.org/2001/SMIL20/" xmlns:anim="urn:oasis:names:tc:opendocument:xmlns:animation:1.0" xml:space="preserve">
 <defs class="EmbeddedBulletChars">
  <g id="bullet-char-template-57356" transform="scale(0.00048828125,-0.00048828125)">
   <path d="M 580,1141 L 1163,571 580,0 -4,571 580,1141 Z"/>
  </g>
  <g id="bullet-char-template-57354" transform="scale(0.00048828125,-0.00048828125)">
   <path d="M 8,1128 L 1137,1128 1137,0 8,0 8,1128 Z"/>
  </g>
  <g id="bullet-char-template-10146" transform="scale(0.00048828125,-0.00048828125)">
   <path d="M 174,0 L 602,739 174,1481 1456,739 174,0 Z M 1358,739 L 309,1346 659,739 1358,739 Z"/>
  </g>
  <g id="bullet-char-template-10132" transform="scale(0.00048828125,-0.00048828125)">
   <path d="M 2015,739 L 1276,0 717,0 1260,543 174,543 174,936 1260,936 717,1481 1274,1481 2015,739 Z"/>
  </g>
  <g id="bullet-char-template-10007" transform="scale(0.00048828125,-0.00048828125)">
   <path d="M 0,-2 C -7,14 -16,27 -25,37 L 356,567 C 262,823 215,952 215,954 215,979 228,992 255,992 264,992 276,990 289,987 310,991 331,999 354,1012 L 381,999 492,748 772,1049 836,1024 860,1049 C 881,1039 901,1025 922,1006 886,937 835,863 770,784 769,783 710,716 594,584 L 774,223 C 774,196 753,168 711,139 L 727,119 C 717,90 699,76 672,76 641,76 570,178 457,381 L 164,-76 C 142,-110 111,-127 72,-127 30,-127 9,-110 8,-76 1,-67 -2,-52 -2,-32 -2,-23 -1,-13 0,-2 Z"/>
  </g>
  <g id="bullet-char-template-10004" transform="scale(0.00048828125,-0.00048828125)">
   <path d="M 285,-33 C 182,-33 111,30 74,156 52,228 41,333 41,471 41,549 55,616 82,672 116,743 169,778 240,778 293,778 328,747 346,684 L 369,508 C 377,444 397,411 428,410 L 1163,1116 C 1174,1127 1196,1133 1229,1133 1271,1133 1292,1118 1292,1087 L 1292,965 C 1292,929 1282,901 1262,881 L 442,47 C 390,-6 338,-33 285,-33 Z"/>
  </g>
  <g id="bullet-char-template-9679" transform="scale(0.00048828125,-0.00048828125)">
   <path d="M 813,0 C 632,0 489,54 383,161 276,268 223,411 223,592 223,773 276,916 383,1023 489,1130 632,1184 813,1184 992,1184 1136,1130 1245,1023 1353,916 1407,772 1407,592 1407,412 1353,268 1245,161 1136,54 992,0 813,0 Z"/>
  </g>
  <g id="bullet-char-template-8226" transform="scale(0.00048828125,-0.00048828125)">
   <path d="M 346,457 C 273,457 209,483 155,535 101,586 74,649 74,723 74,796 101,859 155,911 209,963 273,989 346,989 419,989 480,963 531,910 582,859 608,796 608,723 608,648 583,586 532,535 482,483 420,457 346,457 Z"/>
  </g>
  <g id="bullet-char-template-8211" transform="scale(0.00048828125,-0.00048828125)">
   <path d="M -4,459 L 1135,459 1135,606 -4,606 -4,459 Z"/>
  </g>
  <g id="bullet-char-template-61548" transform="scale(0.00048828125,-0.00048828125)">
   <path d="M 173,740 C 173,903 231,1043 346,1159 462,1274 601,1332 765,1332 928,1332 1067,1274 1183,1159 1299,1043 1357,903 1357,740 1357,577 1299,437 1183,322 1067,206 928,148 765,148 601,148 462,206 346,322 231,437 173,577 173,740 Z"/>
  </g>
 </defs>
 <g class="Page">
  <g class="com.sun.star.drawing.PolyPolygonShape">
   <g id="id3">
    <rect class="BoundingBox" stroke="none" fill="none" x="7049" y="24500" width="2503" height="2502"/>
    <path fill="rgb(255,0,0)" stroke="none" d="M 9551,25750 L 9551,25719 9549,25688 9548,25658 9545,25627 9541,25596 9537,25566 9532,25536 9527,25506 9520,25476 9513,25446 9506,25416 9497,25387 9488,25357 9478,25328 9467,25300 9456,25271 9444,25243 9431,25215 9417,25187 9403,25160 9388,25133 9373,25107 9357,25081 9340,25055 9323,25030 9305,25005 9286,24980 9267,24956 9247,24933 9227,24910 9206,24888 9185,24866 9163,24844 9140,24823 9117,24803 9094,24783 9070,24764 9045,24745 9020,24728 8995,24710 8969,24693 8943,24677 8917,24662 8890,24647 8863,24633 8835,24620 8807,24607 8779,24595 8749,24583 8721,24573 8692,24563 8662,24553 8633,24545 8603,24537 8573,24530 8543,24523 8513,24518 8483,24513 8453,24509 8422,24505 8392,24503 8361,24501 8330,24500 8300,24500 8269,24500 8238,24501 8207,24503 8177,24505 8146,24509 8116,24513 8086,24518 8056,24523 8026,24530 7996,24537 7966,24545 7937,24553 7907,24563 7878,24573 7850,24583 7821,24595 7793,24607 7765,24620 7737,24633 7710,24647 7683,24662 7657,24677 7631,24693 7605,24710 7580,24728 7555,24745 7530,24764 7506,24783 7483,24803 7460,24823 7437,24844 7415,24866 7394,24888 7373,24910 7353,24933 7333,24956 7314,24980 7295,25005 7277,25030 7260,25055 7243,25081 7227,25107 7212,25133 7197,25160 7183,25187 7169,25215 7156,25243 7144,25271 7133,25300 7122,25328 7112,25357 7103,25387 7094,25416 7087,25446 7080,25476 7073,25506 7068,25536 7063,25566 7059,25596 7055,25627 7052,25658 7051,25688 7049,25719 7049,25750 7049,25780 7051,25811 7052,25841 7055,25872 7059,25903 7063,25933 7068,25963 7073,25993 7080,26023 7087,26053 7094,26083 7103,26112 7112,26142 7122,26171 7133,26199 7144,26228 7156,26257 7169,26285 7183,26313 7197,26340 7212,26367 7227,26393 7243,26419 7260,26445 7277,26470 7295,26495 7314,26520 7333,26544 7353,26567 7373,26590 7394,26612 7415,26634 7437,26656 7460,26677 7483,26697 7506,26717 7530,26736 7555,26755 7580,26772 7605,26790 7631,26807 7657,26823 7683,26838 7710,26853 7737,26867 7765,26880 7793,26893 7821,26905 7850,26917 7878,26927 7907,26937 7937,26947 7966,26955 7996,26963 8026,26970 8056,26977 8086,26982 8116,26987 8146,26991 8177,26995 8207,26997 8238,26999 8269,27000 8299,27001 8330,27000 8361,26999 8392,26997 8422,26995 8453,26991 8483,26987 8513,26982 8543,26977 8573,26970 8603,26963 8633,26955 8662,26947 8692,26937 8721,26927 8749,26917 8779,26905 8807,26893 8835,26880 8863,26867 8890,26853 8917,26838 8943,26823 8969,26807 8995,26790 9020,26772 9045,26755 9070,26736 9094,26717 9117,26697 9140,26677 9163,26656 9185,26634 9206,26612 9227,26590 9247,26567 9267,26544 9286,26520 9305,26495 9323,26470 9340,26445 9357,26419 9373,26393 9388,26367 9403,26340 9417,26313 9431,26285 9444,26257 9456,26228 9467,26199 9478,26171 9488,26142 9497,26112 9506,26083 9513,26053 9520,26023 9527,25993 9532,25963 9537,25933 9541,25903 9545,25872 9548,25841 9549,25811 9551,25780 9551,25750 Z"/>
   </g>
  </g>
  <g class="com.sun.star.drawing.PolyPolygonShape">
   <g id="id4">
    <rect class="BoundingBox" stroke="none" fill="none" x="7396" y="24847" width="1809" height="1807"/>
    <path fill="rgb(255,255,255)" stroke="none" d="M 9204,25750 L 9203,25727 9203,25705 9201,25683 9199,25661 9197,25639 9194,25617 9190,25595 9186,25573 9182,25552 9176,25530 9171,25509 9165,25487 9158,25466 9151,25445 9143,25425 9135,25404 9126,25384 9117,25363 9107,25344 9097,25324 9086,25305 9075,25285 9063,25267 9051,25248 9039,25230 9026,25212 9012,25194 8998,25177 8984,25160 8970,25143 8954,25127 8939,25111 8923,25096 8907,25081 8890,25066 8873,25052 8856,25038 8838,25024 8820,25011 8802,24999 8784,24987 8765,24975 8746,24964 8726,24953 8706,24943 8687,24933 8666,24924 8646,24915 8626,24907 8605,24899 8584,24892 8563,24886 8541,24880 8520,24874 8498,24869 8477,24864 8455,24860 8433,24856 8411,24854 8389,24851 8367,24849 8345,24848 8323,24847 8300,24847 8278,24847 8256,24848 8234,24849 8212,24851 8190,24854 8168,24856 8146,24860 8123,24864 8102,24869 8080,24874 8059,24880 8037,24886 8016,24892 7995,24899 7974,24907 7954,24915 7934,24924 7913,24933 7894,24943 7874,24953 7854,24964 7835,24975 7816,24987 7798,24999 7780,25011 7762,25024 7744,25038 7727,25052 7710,25066 7693,25081 7677,25096 7661,25111 7645,25127 7630,25143 7616,25160 7602,25177 7588,25194 7574,25212 7561,25230 7549,25248 7537,25267 7525,25285 7514,25305 7503,25324 7493,25344 7483,25363 7474,25384 7465,25404 7457,25425 7449,25445 7442,25466 7435,25487 7429,25509 7424,25530 7418,25552 7414,25573 7410,25595 7406,25617 7403,25639 7401,25661 7399,25683 7397,25705 7397,25727 7396,25750 7397,25772 7397,25794 7399,25816 7401,25838 7403,25860 7406,25882 7410,25904 7414,25926 7418,25947 7424,25969 7429,25990 7435,26012 7442,26033 7449,26054 7457,26074 7465,26095 7474,26115 7483,26136 7493,26155 7503,26176 7514,26195 7525,26215 7537,26233 7549,26252 7561,26270 7574,26288 7588,26306 7602,26323 7616,26340 7630,26357 7645,26373 7661,26389 7677,26404 7693,26419 7710,26434 7727,26448 7744,26462 7762,26476 7780,26489 7798,26501 7816,26513 7835,26525 7854,26536 7874,26547 7894,26557 7913,26567 7934,26576 7954,26585 7974,26593 7995,26601 8016,26608 8037,26614 8059,26620 8080,26626 8102,26631 8123,26636 8146,26640 8168,26644 8190,26646 8212,26649 8234,26651 8256,26652 8278,26653 8300,26653 8323,26653 8345,26652 8367,26651 8389,26649 8411,26646 8433,26644 8455,26640 8477,26636 8498,26631 8520,26626 8541,26620 8563,26614 8584,26608 8605,26601 8626,26593 8646,26585 8666,26576 8687,26567 8706,26557 8726,26547 8746,26536 8765,26525 8784,26513 8802,26501 8820,26489 8838,26476 8856,26462 8873,26448 8890,26434 8907,26419 8923,26404 8939,26389 8954,26373 8970,26357 8984,26340 8998,26323 9012,26306 9026,26288 9039,26270 9051,26252 9063,26233 9075,26215 9086,26195 9097,26176 9107,26155 9117,26136 9126,26115 9135,26095 9143,26074 9151,26054 9158,26033 9165,26012 9171,25990 9176,25969 9182,25947 9186,25926 9190,25904 9194,25882 9197,25860 9199,25838 9201,25816 9203,25794 9203,25772 9204,25750 Z"/>
   </g>
  </g>
 </g>
</svg>