<?xml version="1.0" encoding="UTF-8"?>
<!DOCTYPE svg PUBLIC "-//W3C//DTD SVG 1.1//EN" "http://www.w3.org/Graphics/SVG/1.1/DTD/svg11.dtd">
<svg version="1.2" width="25.03mm" height="25.02mm" viewBox="70049 24500 2503 2502" preserveAspectRatio="xMidYMid" fill-rule="evenodd" stroke-width="28.222" stroke-linejoin="round" xmlns="http://www.w3.org/2000/svg" xmlns:ooo="http://xml.openoffice.org/svg/export" xmlns:xlink="http://www.w3.org/1999/xlink" xmlns:presentation="http://sun.com/xmlns/staroffice/presentation" xmlns:smil="http://www.w3.org/2001/SMIL20/" xmlns:anim="urn:oasis:names:tc:opendocument:xmlns:animation:1.0" xml:space="preserve">
 <defs class="EmbeddedBulletChars">
  <g id="bullet-char-template-57356" transform="scale(0.00048828125,-0.00048828125)">
   <path d="M 580,1141 L 1163,571 580,0 -4,571 580,1141 Z"/>
  </g>
  <g id="bullet-char-template-57354" transform="scale(0.00048828125,-0.00048828125)">
   <path d="M 8,1128 L 1137,1128 1137,0 8,0 8,1128 Z"/>
  </g>
  <g id="bullet-char-template-10146" transform="scale(0.00048828125,-0.00048828125)">
   <path d="M 174,0 L 602,739 174,1481 1456,739 174,0 Z M 1358,739 L 309,1346 659,739 1358,739 Z"/>
  </g>
  <g id="bullet-char-template-10132" transform="scale(0.00048828125,-0.00048828125)">
   <path d="M 2015,739 L 1276,0 717,0 1260,543 174,543 174,936 1260,936 717,1481 1274,1481 2015,739 Z"/>
  </g>
  <g id="bullet-char-template-10007" transform="scale(0.00048828125,-0.00048828125)">
   <path d="M 0,-2 C -7,14 -16,27 -25,37 L 356,567 C 262,823 215,952 215,954 215,979 228,992 255,992 264,992 276,990 289,987 310,991 331,999 354,1012 L 381,999 492,748 772,1049 836,1024 860,1049 C 881,1039 901,1025 922,1006 886,937 835,863 770,784 769,783 710,716 594,584 L 774,223 C 774,196 753,168 711,139 L 727,119 C 717,90 699,76 672,76 641,76 570,178 457,381 L 164,-76 C 142,-110 111,-127 72,-127 30,-127 9,-110 8,-76 1,-67 -2,-52 -2,-32 -2,-23 -1,-13 0,-2 Z"/>
  </g>
  <g id="bullet-char-template-10004" transform="scale(0.00048828125,-0.00048828125)">
   <path d="M 285,-33 C 182,-33 111,30 74,156 52,228 41,333 41,471 41,549 55,616 82,672 116,743 169,778 240,778 293,778 328,747 346,684 L 369,508 C 377,444 397,411 428,410 L 1163,1116 C 1174,1127 1196,1133 1229,1133 1271,1133 1292,1118 1292,1087 L 1292,965 C 1292,929 1282,901 1262,881 L 442,47 C 390,-6 338,-33 285,-33 Z"/>
  </g>
  <g id="bullet-char-template-9679" transform="scale(0.00048828125,-0.00048828125)">
   <path d="M 813,0 C 632,0 489,54 383,161 276,268 223,411 223,592 223,773 276,916 383,1023 489,1130 632,1184 813,1184 992,1184 1136,1130 1245,1023 1353,916 1407,772 1407,592 1407,412 1353,268 1245,161 1136,54 992,0 813,0 Z"/>
  </g>
  <g id="bullet-char-template-8226" transform="scale(0.00048828125,-0.00048828125)">
   <path d="M 346,457 C 273,457 209,483 155,535 101,586 74,649 74,723 74,796 101,859 155,911 209,963 273,989 346,989 419,989 480,963 531,910 582,859 608,796 608,723 608,648 583,586 532,535 482,483 420,457 346,457 Z"/>
  </g>
  <g id="bullet-char-template-8211" transform="scale(0.00048828125,-0.00048828125)">
   <path d="M -4,459 L 1135,459 1135,606 -4,606 -4,459 Z"/>
  </g>
  <g id="bullet-char-template-61548" transform="scale(0.00048828125,-0.00048828125)">
   <path d="M 173,740 C 173,903 231,1043 346,1159 462,1274 601,1332 765,1332 928,1332 1067,1274 1183,1159 1299,1043 1357,903 1357,740 1357,577 1299,437 1183,322 1067,206 928,148 765,148 601,148 462,206 346,322 231,437 173,577 173,740 Z"/>
  </g>
 </defs>
 <g class="Page">
  <g class="com.sun.star.drawing.PolyPolygonShape">
   <g id="id3">
    <rect class="BoundingBox" stroke="none" fill="none" x="70049" y="24500" width="2503" height="2502"/>
    <path fill="rgb(255,0,0)" stroke="none" d="M 72551,25750 L 72551,25719 72549,25688 72547,25658 72545,25627 72541,25596 72537,25566 72532,25536 72527,25506 72520,25476 72513,25446 72506,25416 72497,25387 72488,25357 72478,25328 72467,25300 72456,25271 72444,25243 72431,25215 72417,25187 72403,25160 72388,25133 72373,25107 72357,25081 72340,25055 72323,25030 72305,25005 72286,24980 72267,24956 72247,24933 72227,24910 72206,24888 72185,24866 72163,24844 72140,24823 72117,24803 72094,24783 72070,24764 72045,24745 72020,24728 71995,24710 71969,24693 71943,24677 71917,24662 71890,24647 71863,24633 71835,24620 71807,24607 71779,24595 71751,24583 71722,24573 71693,24563 71663,24553 71634,24545 71604,24537 71574,24530 71545,24523 71514,24518 71484,24513 71454,24509 71423,24505 71392,24503 71362,24501 71331,24500 71301,24500 71270,24500 71238,24501 71208,24503 71177,24505 71146,24509 71116,24513 71086,24518 71056,24523 71026,24530 70996,24537 70966,24545 70937,24553 70907,24563 70878,24573 70850,24583 70821,24595 70793,24607 70765,24620 70737,24633 70710,24647 70683,24662 70657,24677 70631,24693 70605,24710 70580,24728 70555,24745 70530,24764 70506,24783 70483,24803 70460,24823 70437,24844 70415,24866 70394,24888 70373,24910 70353,24933 70333,24956 70314,24980 70295,25005 70277,25030 70260,25055 70243,25081 70227,25107 70212,25133 70197,25160 70183,25187 70169,25215 70156,25243 70144,25271 70133,25300 70122,25328 70112,25357 70103,25387 70094,25416 70087,25446 70080,25476 70073,25506 70068,25536 70063,25566 70059,25596 70055,25627 70053,25658 70051,25688 70049,25719 70049,25750 70049,25780 70051,25811 70053,25841 70055,25872 70059,25903 70063,25933 70068,25963 70073,25993 70080,26023 70087,26053 70094,26083 70103,26112 70112,26142 70122,26171 70133,26199 70144,26228 70156,26257 70169,26285 70183,26313 70197,26340 70212,26367 70227,26393 70243,26419 70260,26445 70277,26470 70295,26495 70314,26520 70333,26544 70353,26567 70373,26590 70394,26612 70415,26634 70437,26656 70460,26677 70483,26697 70506,26717 70530,26736 70555,26755 70580,26772 70605,26790 70631,26807 70657,26823 70683,26838 70710,26853 70737,26867 70765,26880 70793,26893 70821,26905 70850,26917 70878,26927 70907,26937 70937,26947 70966,26955 70996,26963 71026,26970 71056,26977 71086,26982 71116,26987 71146,26991 71177,26995 71208,26997 71238,26999 71270,27000 71300,27001 71331,27000 71362,26999 71392,26997 71423,26995 71454,26991 71484,26987 71514,26982 71545,26977 71574,26970 71604,26963 71634,26955 71663,26947 71693,26937 71722,26927 71751,26917 71779,26905 71807,26893 71835,26880 71863,26867 71890,26853 71917,26838 71943,26823 71969,26807 71995,26790 72020,26772 72045,26755 72070,26736 72094,26717 72117,26697 72140,26677 72163,26656 72185,26634 72206,26612 72227,26590 72247,26567 72267,26544 72286,26520 72305,26495 72323,26470 72340,26445 72357,26419 72373,26393 72388,26367 72403,26340 72417,26313 72431,26285 72444,26257 72456,26228 72467,26199 72478,26171 72488,26142 72497,26112 72506,26083 72513,26053 72520,26023 72527,25993 72532,25963 72537,25933 72541,25903 72545,25872 72547,25841 72549,25811 72551,25780 72551,25750 Z"/>
   </g>
  </g>
  <g class="com.sun.star.drawing.PolyPolygonShape">
   <g id="id4">
    <rect class="BoundingBox" stroke="none" fill="none" x="70727" y="24847" width="1478" height="1477"/>
    <path fill="rgb(255,255,255)" stroke="none" d="M 71999,26323 L 72012,26306 72025,26290 72037,26273 72049,26256 72060,26239 72071,26221 72082,26203 72092,26185 72102,26167 72111,26148 72120,26130 72129,26111 72137,26091 72144,26072 72151,26053 72158,26033 72164,26013 72170,25993 72176,25973 72181,25953 72185,25933 72189,25913 72192,25892 72195,25872 72198,25851 72200,25830 72202,25810 72203,25788 72203,25767 72204,25746 72203,25726 72202,25705 72201,25684 72199,25663 72197,25643 72195,25622 72191,25602 72188,25581 72184,25561 72179,25541 72174,25520 72168,25500 72163,25481 72156,25461 72149,25441 72142,25422 72134,25403 72126,25383 72117,25365 72108,25346 72099,25327 72089,25309 72079,25291 72068,25273 72057,25256 72045,25239 72033,25222 72021,25205 72008,25189 71995,25172 71982,25157 71968,25141 71954,25126 71939,25111 71924,25097 71909,25082 71894,25069 71878,25055 71862,25042 71845,25029 71829,25017 71811,25005 71794,24994 71777,24982 71759,24972 71741,24961 71723,24951 71704,24942 71686,24933 71667,24924 71648,24916 71628,24908 71609,24901 71589,24894 71569,24888 71550,24882 71529,24876 71508,24871 71488,24867 71468,24863 71447,24859 71427,24856 71406,24853 71386,24851 71365,24849 71344,24848 71323,24847 71303,24847 71282,24847 71261,24848 71240,24849 71220,24850 71199,24852 71178,24855 71158,24858 71137,24861 71117,24865 71097,24870 71077,24875 71057,24880 71037,24886 71017,24892 70997,24899 70978,24906 70958,24914 70939,24922 70920,24930 70902,24939 70883,24949 70865,24958 70847,24969 70829,24979 70811,24990 70794,25002 70777,25013 70760,25026 70743,25038 70727,25051 71999,26323 Z"/>
   </g>
  </g>
  <g class="com.sun.star.drawing.PolyPolygonShape">
   <g id="id5">
    <rect class="BoundingBox" stroke="none" fill="none" x="70395" y="25177" width="1479" height="1477"/>
    <path fill="rgb(255,255,255)" stroke="none" d="M 70601,25177 L 70588,25194 70575,25210 70563,25227 70551,25244 70540,25261 70529,25279 70518,25297 70508,25315 70498,25333 70489,25352 70480,25370 70471,25389 70463,25409 70456,25428 70449,25447 70442,25467 70435,25487 70430,25507 70424,25527 70419,25547 70415,25567 70411,25587 70408,25608 70405,25629 70402,25649 70400,25670 70398,25690 70397,25711 70397,25732 70396,25753 70397,25773 70398,25794 70399,25816 70401,25837 70403,25857 70405,25878 70409,25898 70412,25919 70416,25939 70421,25959 70426,25980 70432,26000 70437,26019 70444,26039 70451,26059 70458,26078 70466,26097 70474,26117 70483,26135 70492,26154 70501,26173 70511,26191 70521,26209 70532,26227 70543,26244 70555,26261 70567,26278 70579,26295 70592,26311 70605,26328 70618,26343 70632,26359 70646,26374 70661,26389 70676,26403 70691,26418 70706,26431 70722,26445 70738,26458 70755,26471 70772,26483 70789,26495 70806,26506 70823,26518 70841,26528 70859,26539 70877,26549 70896,26558 70914,26567 70933,26576 70952,26584 70972,26592 70991,26599 71011,26606 71031,26612 71050,26618 71070,26624 71091,26629 71111,26633 71131,26637 71152,26641 71172,26644 71193,26647 71213,26649 71234,26651 71255,26652 71276,26653 71296,26653 71317,26653 71338,26652 71359,26651 71379,26650 71400,26648 71420,26645 71441,26642 71462,26639 71482,26635 71502,26630 71522,26625 71543,26620 71563,26614 71583,26608 71603,26601 71622,26594 71642,26586 71661,26578 71680,26570 71698,26561 71717,26551 71735,26542 71753,26531 71771,26521 71789,26510 71806,26499 71823,26487 71840,26474 71857,26462 71873,26449 70601,25177 Z"/>
   </g>
  </g>
  <g class="com.sun.star.drawing.PolyPolygonShape">
   <g id="id6">
    <rect class="BoundingBox" stroke="none" fill="none" x="70599" y="25290" width="365" height="480"/>
    <path fill="rgb(0,0,0)" stroke="none" d="M 70715,25291 L 70599,25406 70962,25769 70962,25538 70715,25291 Z"/>
   </g>
  </g>
  <g class="com.sun.star.drawing.PolyPolygonShape">
   <g id="id7">
    <rect class="BoundingBox" stroke="none" fill="none" x="70841" y="25045" width="122" height="241"/>
    <path fill="rgb(0,0,0)" stroke="none" d="M 70962,25285 L 70962,25045 70841,25165 70962,25285 Z"/>
   </g>
  </g>
  <g class="com.sun.star.drawing.PolyPolygonShape">
   <g id="id8">
    <rect class="BoundingBox" stroke="none" fill="none" x="71549" y="26126" width="183" height="323"/>
    <path fill="rgb(0,0,0)" stroke="none" d="M 71731,26306 L 71550,26126 71550,26448 71640,26356 71731,26448 71731,26306 Z"/>
   </g>
  </g>
  <g class="com.sun.star.drawing.PolyPolygonShape">
   <g id="id9">
    <rect class="BoundingBox" stroke="none" fill="none" x="70992" y="25316" width="741" height="740"/>
    <path fill="rgb(0,0,0)" stroke="none" d="M 71551,25874 L 71731,26055 71731,25751 71731,25729 71729,25708 71727,25687 71723,25666 71718,25645 71712,25625 71706,25604 71698,25585 71690,25565 71680,25546 71670,25528 71658,25510 71646,25492 71633,25476 71619,25459 71604,25444 71589,25429 71573,25414 71556,25401 71538,25389 71521,25378 71502,25367 71483,25358 71464,25349 71444,25342 71423,25335 71403,25329 71382,25325 71361,25321 71340,25318 71319,25317 71298,25316 70992,25316 71174,25498 71298,25498 71310,25498 71323,25499 71335,25500 71347,25503 71359,25505 71371,25509 71383,25513 71394,25517 71406,25522 71417,25528 71428,25534 71438,25540 71448,25548 71458,25555 71468,25563 71476,25572 71485,25581 71493,25590 71501,25600 71508,25610 71515,25621 71521,25631 71526,25643 71531,25654 71536,25665 71540,25677 71543,25689 71546,25701 71548,25713 71549,25726 71550,25738 71551,25751 71551,25874 Z"/>
   </g>
  </g>
 </g>
</svg>