<?xml version="1.0" encoding="UTF-8"?>
<!DOCTYPE svg PUBLIC "-//W3C//DTD SVG 1.1//EN" "http://www.w3.org/Graphics/SVG/1.1/DTD/svg11.dtd">
<svg version="1.2" width="25.03mm" height="25.02mm" viewBox="73049 24500 2503 2502" preserveAspectRatio="xMidYMid" fill-rule="evenodd" stroke-width="28.222" stroke-linejoin="round" xmlns="http://www.w3.org/2000/svg" xmlns:ooo="http://xml.openoffice.org/svg/export" xmlns:xlink="http://www.w3.org/1999/xlink" xmlns:presentation="http://sun.com/xmlns/staroffice/presentation" xmlns:smil="http://www.w3.org/2001/SMIL20/" xmlns:anim="urn:oasis:names:tc:opendocument:xmlns:animation:1.0" xml:space="preserve">
 <defs class="EmbeddedBulletChars">
  <g id="bullet-char-template-57356" transform="scale(0.00048828125,-0.00048828125)">
   <path d="M 580,1141 L 1163,571 580,0 -4,571 580,1141 Z"/>
  </g>
  <g id="bullet-char-template-57354" transform="scale(0.00048828125,-0.00048828125)">
   <path d="M 8,1128 L 1137,1128 1137,0 8,0 8,1128 Z"/>
  </g>
  <g id="bullet-char-template-10146" transform="scale(0.00048828125,-0.00048828125)">
   <path d="M 174,0 L 602,739 174,1481 1456,739 174,0 Z M 1358,739 L 309,1346 659,739 1358,739 Z"/>
  </g>
  <g id="bullet-char-template-10132" transform="scale(0.00048828125,-0.00048828125)">
   <path d="M 2015,739 L 1276,0 717,0 1260,543 174,543 174,936 1260,936 717,1481 1274,1481 2015,739 Z"/>
  </g>
  <g id="bullet-char-template-10007" transform="scale(0.00048828125,-0.00048828125)">
   <path d="M 0,-2 C -7,14 -16,27 -25,37 L 356,567 C 262,823 215,952 215,954 215,979 228,992 255,992 264,992 276,990 289,987 310,991 331,999 354,1012 L 381,999 492,748 772,1049 836,1024 860,1049 C 881,1039 901,1025 922,1006 886,937 835,863 770,784 769,783 710,716 594,584 L 774,223 C 774,196 753,168 711,139 L 727,119 C 717,90 699,76 672,76 641,76 570,178 457,381 L 164,-76 C 142,-110 111,-127 72,-127 30,-127 9,-110 8,-76 1,-67 -2,-52 -2,-32 -2,-23 -1,-13 0,-2 Z"/>
  </g>
  <g id="bullet-char-template-10004" transform="scale(0.00048828125,-0.00048828125)">
   <path d="M 285,-33 C 182,-33 111,30 74,156 52,228 41,333 41,471 41,549 55,616 82,672 116,743 169,778 240,778 293,778 328,747 346,684 L 369,508 C 377,444 397,411 428,410 L 1163,1116 C 1174,1127 1196,1133 1229,1133 1271,1133 1292,1118 1292,1087 L 1292,965 C 1292,929 1282,901 1262,881 L 442,47 C 390,-6 338,-33 285,-33 Z"/>
  </g>
  <g id="bullet-char-template-9679" transform="scale(0.00048828125,-0.00048828125)">
   <path d="M 813,0 C 632,0 489,54 383,161 276,268 223,411 223,592 223,773 276,916 383,1023 489,1130 632,1184 813,1184 992,1184 1136,1130 1245,1023 1353,916 1407,772 1407,592 1407,412 1353,268 1245,161 1136,54 992,0 813,0 Z"/>
  </g>
  <g id="bullet-char-template-8226" transform="scale(0.00048828125,-0.00048828125)">
   <path d="M 346,457 C 273,457 209,483 155,535 101,586 74,649 74,723 74,796 101,859 155,911 209,963 273,989 346,989 419,989 480,963 531,910 582,859 608,796 608,723 608,648 583,586 532,535 482,483 420,457 346,457 Z"/>
  </g>
  <g id="bullet-char-template-8211" transform="scale(0.00048828125,-0.00048828125)">
   <path d="M -4,459 L 1135,459 1135,606 -4,606 -4,459 Z"/>
  </g>
  <g id="bullet-char-template-61548" transform="scale(0.00048828125,-0.00048828125)">
   <path d="M 173,740 C 173,903 231,1043 346,1159 462,1274 601,1332 765,1332 928,1332 1067,1274 1183,1159 1299,1043 1357,903 1357,740 1357,577 1299,437 1183,322 1067,206 928,148 765,148 601,148 462,206 346,322 231,437 173,577 173,740 Z"/>
  </g>
 </defs>
 <g class="Page">
  <g class="com.sun.star.drawing.PolyPolygonShape">
   <g id="id3">
    <rect class="BoundingBox" stroke="none" fill="none" x="73049" y="24500" width="2503" height="2502"/>
    <path fill="rgb(255,0,0)" stroke="none" d="M 75551,25750 L 75551,25719 75549,25688 75548,25658 75545,25627 75541,25596 75537,25566 75532,25536 75527,25506 75520,25476 75513,25446 75506,25416 75497,25387 75488,25357 75478,25328 75467,25300 75456,25271 75444,25243 75431,25215 75417,25187 75403,25160 75388,25133 75373,25107 75357,25081 75340,25055 75323,25030 75305,25005 75286,24980 75267,24956 75247,24933 75227,24910 75206,24888 75185,24866 75163,24844 75140,24823 75117,24803 75094,24783 75070,24764 75045,24745 75021,24728 74995,24710 74969,24693 74943,24677 74917,24662 74890,24647 74863,24633 74835,24620 74807,24607 74779,24595 74751,24583 74722,24573 74693,24563 74663,24553 74634,24545 74604,24537 74574,24530 74544,24523 74514,24518 74484,24513 74454,24509 74423,24505 74393,24503 74362,24501 74331,24500 74301,24500 74270,24500 74239,24501 74209,24503 74178,24505 74147,24509 74117,24513 74087,24518 74057,24523 74027,24530 73997,24537 73967,24545 73938,24553 73908,24563 73879,24573 73851,24583 73822,24595 73794,24607 73766,24620 73737,24633 73710,24647 73683,24662 73657,24677 73631,24693 73605,24710 73580,24728 73555,24745 73530,24764 73506,24783 73483,24803 73460,24823 73437,24844 73415,24866 73394,24888 73373,24910 73353,24933 73333,24956 73314,24980 73295,25005 73277,25030 73260,25055 73243,25081 73227,25107 73212,25133 73197,25160 73183,25187 73169,25215 73156,25243 73144,25271 73133,25300 73122,25328 73112,25357 73103,25387 73095,25416 73087,25446 73080,25476 73073,25506 73068,25536 73063,25566 73059,25596 73055,25627 73053,25658 73051,25688 73049,25719 73049,25750 73049,25780 73051,25811 73053,25841 73055,25872 73059,25903 73063,25933 73068,25963 73073,25993 73080,26023 73087,26053 73095,26083 73103,26112 73112,26142 73122,26171 73133,26199 73144,26228 73156,26257 73169,26285 73183,26313 73197,26340 73212,26367 73227,26393 73243,26419 73260,26445 73277,26470 73295,26495 73314,26520 73333,26544 73353,26567 73373,26590 73394,26612 73415,26634 73437,26656 73460,26677 73483,26697 73506,26717 73530,26736 73555,26755 73580,26772 73605,26790 73631,26807 73657,26823 73683,26838 73710,26853 73737,26867 73766,26880 73794,26893 73822,26905 73851,26917 73879,26927 73908,26937 73938,26947 73967,26955 73997,26963 74027,26970 74057,26977 74087,26982 74117,26987 74147,26991 74178,26995 74209,26997 74239,26999 74270,27000 74300,27001 74331,27000 74362,26999 74393,26997 74423,26995 74454,26991 74484,26987 74514,26982 74544,26977 74574,26970 74604,26963 74634,26955 74663,26947 74693,26937 74722,26927 74751,26917 74779,26905 74807,26893 74835,26880 74863,26867 74890,26853 74917,26838 74943,26823 74969,26807 74995,26790 75021,26772 75045,26755 75070,26736 75094,26717 75117,26697 75140,26677 75163,26656 75185,26634 75206,26612 75227,26590 75247,26567 75267,26544 75286,26520 75305,26495 75323,26470 75340,26445 75357,26419 75373,26393 75388,26367 75403,26340 75417,26313 75431,26285 75444,26257 75456,26228 75467,26199 75478,26171 75488,26142 75497,26112 75506,26083 75513,26053 75520,26023 75527,25993 75532,25963 75537,25933 75541,25903 75545,25872 75548,25841 75549,25811 75551,25780 75551,25750 Z"/>
   </g>
  </g>
  <g class="com.sun.star.drawing.PolyPolygonShape">
   <g id="id4">
    <rect class="BoundingBox" stroke="none" fill="none" x="73396" y="25177" width="1478" height="1477"/>
    <path fill="rgb(255,255,255)" stroke="none" d="M 73601,25177 L 73588,25194 73575,25210 73563,25227 73551,25244 73540,25261 73529,25279 73518,25297 73508,25315 73498,25333 73489,25352 73480,25370 73471,25389 73463,25409 73456,25428 73449,25447 73442,25467 73436,25487 73430,25507 73424,25527 73419,25547 73415,25567 73411,25587 73408,25608 73405,25629 73402,25649 73400,25670 73398,25690 73397,25711 73397,25732 73396,25753 73397,25773 73398,25794 73399,25816 73401,25837 73403,25857 73405,25878 73409,25898 73412,25919 73416,25939 73421,25959 73426,25980 73432,26000 73438,26019 73444,26039 73451,26059 73458,26078 73466,26097 73474,26117 73483,26135 73492,26154 73501,26173 73511,26191 73522,26209 73532,26227 73543,26244 73555,26261 73567,26278 73579,26295 73592,26311 73605,26328 73618,26343 73632,26359 73646,26374 73661,26389 73676,26403 73691,26418 73706,26431 73722,26445 73738,26458 73755,26471 73772,26483 73789,26495 73806,26506 73823,26518 73841,26528 73859,26539 73877,26549 73896,26558 73914,26567 73933,26576 73952,26584 73972,26592 73991,26599 74011,26606 74031,26612 74050,26618 74070,26624 74091,26629 74111,26633 74131,26637 74152,26641 74172,26644 74193,26647 74213,26649 74234,26651 74255,26652 74276,26653 74296,26653 74317,26653 74338,26652 74359,26651 74379,26650 74400,26648 74421,26645 74441,26642 74462,26639 74482,26635 74503,26630 74523,26625 74543,26620 74563,26614 74583,26608 74603,26601 74622,26594 74642,26586 74661,26578 74680,26570 74698,26561 74717,26551 74735,26542 74753,26531 74771,26521 74789,26510 74806,26499 74823,26487 74840,26474 74857,26462 74873,26449 73601,25177 Z"/>
   </g>
  </g>
  <g class="com.sun.star.drawing.PolyPolygonShape">
   <g id="id5">
    <rect class="BoundingBox" stroke="none" fill="none" x="73727" y="24847" width="1478" height="1477"/>
    <path fill="rgb(255,255,255)" stroke="none" d="M 74999,26323 L 75012,26306 75025,26290 75037,26273 75049,26256 75060,26239 75071,26221 75082,26203 75092,26185 75102,26167 75111,26148 75120,26130 75129,26111 75137,26091 75144,26072 75151,26053 75158,26033 75165,26013 75170,25993 75176,25973 75181,25953 75185,25933 75189,25913 75192,25892 75195,25872 75198,25851 75200,25830 75202,25810 75203,25788 75203,25767 75204,25746 75203,25726 75202,25705 75201,25684 75199,25663 75197,25643 75195,25622 75191,25602 75188,25581 75184,25561 75179,25541 75174,25520 75168,25500 75163,25481 75156,25461 75149,25441 75142,25422 75134,25403 75126,25383 75117,25365 75108,25346 75099,25327 75089,25309 75079,25291 75068,25273 75057,25256 75045,25239 75033,25222 75021,25205 75008,25189 74995,25172 74982,25157 74968,25141 74954,25126 74939,25111 74924,25097 74909,25082 74894,25069 74878,25055 74862,25042 74845,25029 74829,25017 74811,25005 74794,24994 74777,24982 74759,24972 74741,24961 74723,24951 74704,24942 74686,24933 74667,24924 74648,24916 74628,24908 74609,24901 74589,24894 74570,24888 74550,24882 74530,24876 74510,24871 74489,24867 74468,24863 74447,24859 74427,24856 74406,24853 74386,24851 74365,24849 74344,24848 74323,24847 74303,24847 74282,24847 74261,24848 74241,24849 74220,24850 74199,24852 74179,24855 74158,24858 74137,24861 74117,24865 74097,24870 74077,24875 74057,24880 74037,24886 74017,24892 73997,24899 73978,24906 73958,24914 73939,24922 73920,24930 73902,24939 73883,24949 73865,24958 73847,24969 73829,24979 73811,24990 73794,25002 73777,25013 73760,25026 73743,25038 73727,25051 74999,26323 Z"/>
   </g>
  </g>
  <g class="com.sun.star.drawing.PolyPolygonShape">
   <g id="id6">
    <rect class="BoundingBox" stroke="none" fill="none" x="74064" y="25045" width="939" height="725"/>
    <path fill="rgb(0,0,0)" stroke="none" d="M 74064,25388 L 74077,25379 74091,25371 74105,25364 74119,25357 74133,25350 74148,25345 74163,25339 74178,25334 74193,25330 74208,25327 74224,25323 74239,25321 74255,25319 74271,25317 74286,25316 74302,25316 74639,25316 74639,25045 75001,25406 74639,25769 74639,25497 74302,25497 74289,25497 74275,25498 74261,25500 74248,25503 74235,25506 74222,25510 74209,25515 74196,25520 74064,25388 Z"/>
   </g>
  </g>
  <g class="com.sun.star.drawing.PolyPolygonShape">
   <g id="id7">
    <rect class="BoundingBox" stroke="none" fill="none" x="73869" y="25514" width="204" height="935"/>
    <path fill="rgb(0,0,0)" stroke="none" d="M 74072,25648 L 74067,25661 74063,25673 74059,25686 74056,25698 74053,25711 74052,25724 74051,25737 74050,25751 74050,26448 73959,26357 73869,26448 73869,25751 73869,25735 73870,25719 73871,25704 73873,25689 73876,25673 73879,25658 73882,25643 73886,25627 73891,25612 73896,25598 73902,25583 73908,25569 73915,25555 73922,25541 73930,25528 73938,25514 74072,25648 Z"/>
   </g>
  </g>
 </g>
</svg>