<?xml version="1.0" encoding="UTF-8"?>
<!DOCTYPE svg PUBLIC "-//W3C//DTD SVG 1.1//EN" "http://www.w3.org/Graphics/SVG/1.1/DTD/svg11.dtd">
<svg version="1.2" width="25.03mm" height="25.02mm" viewBox="76049 24500 2503 2502" preserveAspectRatio="xMidYMid" fill-rule="evenodd" stroke-width="28.222" stroke-linejoin="round" xmlns="http://www.w3.org/2000/svg" xmlns:ooo="http://xml.openoffice.org/svg/export" xmlns:xlink="http://www.w3.org/1999/xlink" xmlns:presentation="http://sun.com/xmlns/staroffice/presentation" xmlns:smil="http://www.w3.org/2001/SMIL20/" xmlns:anim="urn:oasis:names:tc:opendocument:xmlns:animation:1.0" xml:space="preserve">
 <defs class="EmbeddedBulletChars">
  <g id="bullet-char-template-57356" transform="scale(0.00048828125,-0.00048828125)">
   <path d="M 580,1141 L 1163,571 580,0 -4,571 580,1141 Z"/>
  </g>
  <g id="bullet-char-template-57354" transform="scale(0.00048828125,-0.00048828125)">
   <path d="M 8,1128 L 1137,1128 1137,0 8,0 8,1128 Z"/>
  </g>
  <g id="bullet-char-template-10146" transform="scale(0.00048828125,-0.00048828125)">
   <path d="M 174,0 L 602,739 174,1481 1456,739 174,0 Z M 1358,739 L 309,1346 659,739 1358,739 Z"/>
  </g>
  <g id="bullet-char-template-10132" transform="scale(0.00048828125,-0.00048828125)">
   <path d="M 2015,739 L 1276,0 717,0 1260,543 174,543 174,936 1260,936 717,1481 1274,1481 2015,739 Z"/>
  </g>
  <g id="bullet-char-template-10007" transform="scale(0.00048828125,-0.00048828125)">
   <path d="M 0,-2 C -7,14 -16,27 -25,37 L 356,567 C 262,823 215,952 215,954 215,979 228,992 255,992 264,992 276,990 289,987 310,991 331,999 354,1012 L 381,999 492,748 772,1049 836,1024 860,1049 C 881,1039 901,1025 922,1006 886,937 835,863 770,784 769,783 710,716 594,584 L 774,223 C 774,196 753,168 711,139 L 727,119 C 717,90 699,76 672,76 641,76 570,178 457,381 L 164,-76 C 142,-110 111,-127 72,-127 30,-127 9,-110 8,-76 1,-67 -2,-52 -2,-32 -2,-23 -1,-13 0,-2 Z"/>
  </g>
  <g id="bullet-char-template-10004" transform="scale(0.00048828125,-0.00048828125)">
   <path d="M 285,-33 C 182,-33 111,30 74,156 52,228 41,333 41,471 41,549 55,616 82,672 116,743 169,778 240,778 293,778 328,747 346,684 L 369,508 C 377,444 397,411 428,410 L 1163,1116 C 1174,1127 1196,1133 1229,1133 1271,1133 1292,1118 1292,1087 L 1292,965 C 1292,929 1282,901 1262,881 L 442,47 C 390,-6 338,-33 285,-33 Z"/>
  </g>
  <g id="bullet-char-template-9679" transform="scale(0.00048828125,-0.00048828125)">
   <path d="M 813,0 C 632,0 489,54 383,161 276,268 223,411 223,592 223,773 276,916 383,1023 489,1130 632,1184 813,1184 992,1184 1136,1130 1245,1023 1353,916 1407,772 1407,592 1407,412 1353,268 1245,161 1136,54 992,0 813,0 Z"/>
  </g>
  <g id="bullet-char-template-8226" transform="scale(0.00048828125,-0.00048828125)">
   <path d="M 346,457 C 273,457 209,483 155,535 101,586 74,649 74,723 74,796 101,859 155,911 209,963 273,989 346,989 419,989 480,963 531,910 582,859 608,796 608,723 608,648 583,586 532,535 482,483 420,457 346,457 Z"/>
  </g>
  <g id="bullet-char-template-8211" transform="scale(0.00048828125,-0.00048828125)">
   <path d="M -4,459 L 1135,459 1135,606 -4,606 -4,459 Z"/>
  </g>
  <g id="bullet-char-template-61548" transform="scale(0.00048828125,-0.00048828125)">
   <path d="M 173,740 C 173,903 231,1043 346,1159 462,1274 601,1332 765,1332 928,1332 1067,1274 1183,1159 1299,1043 1357,903 1357,740 1357,577 1299,437 1183,322 1067,206 928,148 765,148 601,148 462,206 346,322 231,437 173,577 173,740 Z"/>
  </g>
 </defs>
 <g class="Page">
  <g class="com.sun.star.drawing.PolyPolygonShape">
   <g id="id3">
    <rect class="BoundingBox" stroke="none" fill="none" x="76049" y="24500" width="2503" height="2502"/>
    <path fill="rgb(255,0,0)" stroke="none" d="M 78551,25750 L 78551,25719 78549,25688 78547,25658 78545,25627 78541,25596 78537,25566 78532,25536 78527,25506 78521,25476 78513,25446 78506,25416 78497,25387 78488,25357 78478,25328 78467,25300 78456,25271 78444,25243 78431,25215 78417,25187 78403,25160 78388,25133 78373,25107 78357,25081 78340,25055 78323,25030 78305,25005 78286,24980 78267,24956 78247,24933 78227,24910 78206,24888 78185,24866 78163,24844 78140,24823 78117,24803 78094,24783 78070,24764 78045,24745 78020,24728 77995,24710 77970,24693 77943,24677 77917,24662 77890,24647 77863,24633 77835,24620 77807,24607 77779,24595 77751,24583 77722,24573 77693,24563 77663,24553 77634,24545 77604,24537 77574,24530 77545,24523 77514,24518 77484,24513 77454,24509 77423,24505 77393,24503 77362,24501 77331,24500 77301,24500 77270,24500 77239,24501 77209,24503 77178,24505 77147,24509 77117,24513 77087,24518 77057,24523 77027,24530 76997,24537 76967,24545 76938,24553 76908,24563 76879,24573 76851,24583 76822,24595 76794,24607 76766,24620 76738,24633 76711,24647 76684,24662 76658,24677 76632,24693 76606,24710 76581,24728 76556,24745 76531,24764 76507,24783 76484,24803 76461,24823 76438,24844 76416,24866 76395,24888 76374,24910 76354,24933 76334,24956 76315,24980 76296,25005 76278,25030 76261,25055 76243,25081 76227,25107 76212,25133 76197,25160 76183,25187 76169,25215 76156,25243 76144,25271 76133,25300 76122,25328 76112,25357 76103,25387 76094,25416 76087,25446 76080,25476 76073,25506 76068,25536 76063,25566 76059,25596 76055,25627 76053,25658 76051,25688 76049,25719 76049,25750 76049,25780 76051,25811 76053,25841 76055,25872 76059,25903 76063,25933 76068,25963 76073,25993 76080,26023 76087,26053 76094,26083 76103,26112 76112,26142 76122,26171 76133,26199 76144,26228 76156,26257 76169,26285 76183,26313 76197,26340 76212,26367 76227,26393 76243,26419 76261,26445 76278,26470 76296,26495 76315,26520 76334,26544 76354,26567 76374,26590 76395,26612 76416,26634 76438,26656 76461,26677 76484,26697 76507,26717 76531,26736 76556,26755 76581,26772 76606,26790 76632,26807 76658,26823 76684,26838 76711,26853 76738,26867 76766,26880 76794,26893 76822,26905 76851,26917 76879,26927 76908,26937 76938,26947 76967,26955 76997,26963 77027,26970 77057,26977 77087,26982 77117,26987 77147,26991 77178,26995 77209,26997 77239,26999 77270,27000 77300,27001 77331,27000 77362,26999 77393,26997 77423,26995 77454,26991 77484,26987 77514,26982 77545,26977 77574,26970 77604,26963 77634,26955 77663,26947 77693,26937 77722,26927 77751,26917 77779,26905 77807,26893 77835,26880 77863,26867 77890,26853 77917,26838 77943,26823 77970,26807 77995,26790 78020,26772 78045,26755 78070,26736 78094,26717 78117,26697 78140,26677 78163,26656 78185,26634 78206,26612 78227,26590 78247,26567 78267,26544 78286,26520 78305,26495 78323,26470 78340,26445 78357,26419 78373,26393 78388,26367 78403,26340 78417,26313 78431,26285 78444,26257 78456,26228 78467,26199 78478,26171 78488,26142 78497,26112 78506,26083 78513,26053 78521,26023 78527,25993 78532,25963 78537,25933 78541,25903 78545,25872 78547,25841 78549,25811 78551,25780 78551,25750 Z"/>
   </g>
  </g>
  <g class="com.sun.star.drawing.PolyPolygonShape">
   <g id="id4">
    <rect class="BoundingBox" stroke="none" fill="none" x="76728" y="24847" width="1477" height="1476"/>
    <path fill="rgb(255,255,255)" stroke="none" d="M 78000,26322 L 78013,26306 78025,26289 78037,26272 78049,26255 78061,26238 78072,26220 78082,26202 78092,26184 78102,26166 78111,26148 78120,26129 78129,26110 78137,26091 78145,26071 78152,26052 78158,26032 78165,26013 78170,25993 78176,25973 78181,25953 78185,25932 78189,25912 78192,25891 78195,25871 78198,25850 78200,25830 78202,25809 78203,25787 78203,25767 78204,25746 78203,25725 78202,25704 78201,25684 78199,25663 78197,25642 78194,25622 78191,25601 78188,25581 78184,25560 78179,25540 78174,25520 78168,25500 78163,25480 78156,25461 78149,25441 78142,25422 78134,25402 78126,25383 78117,25364 78108,25346 78099,25327 78089,25309 78079,25291 78068,25273 78056,25256 78045,25239 78033,25222 78021,25205 78008,25188 77995,25172 77982,25157 77968,25141 77954,25126 77939,25111 77924,25097 77909,25083 77894,25069 77878,25055 77862,25042 77845,25029 77828,25017 77812,25005 77794,24994 77777,24983 77759,24972 77741,24961 77723,24952 77704,24942 77686,24933 77667,24924 77648,24916 77629,24908 77609,24901 77590,24894 77570,24888 77550,24882 77530,24876 77510,24871 77490,24867 77469,24863 77449,24859 77428,24856 77408,24853 77387,24851 77365,24849 77345,24848 77324,24847 77303,24847 77282,24847 77262,24847 77241,24849 77220,24850 77200,24852 77179,24855 77159,24858 77138,24861 77118,24865 77097,24870 77077,24874 77057,24880 77037,24886 77018,24892 76998,24899 76978,24906 76959,24913 76940,24921 76921,24930 76902,24939 76884,24948 76865,24958 76847,24968 76830,24979 76812,24990 76795,25001 76778,25013 76761,25025 76744,25038 76728,25050 78000,26322 Z"/>
   </g>
  </g>
  <g class="com.sun.star.drawing.PolyPolygonShape">
   <g id="id5">
    <rect class="BoundingBox" stroke="none" fill="none" x="76396" y="25178" width="1477" height="1476"/>
    <path fill="rgb(255,255,255)" stroke="none" d="M 77872,26450 L 76600,25178 76587,25194 76575,25211 76563,25228 76551,25245 76539,25262 76528,25280 76518,25298 76508,25316 76498,25334 76489,25353 76480,25371 76471,25390 76463,25409 76456,25429 76448,25448 76442,25468 76435,25487 76430,25507 76424,25527 76419,25547 76415,25568 76411,25588 76408,25609 76404,25629 76402,25650 76400,25670 76398,25691 76397,25712 76397,25732 76396,25753 76397,25774 76398,25796 76399,25816 76401,25837 76403,25858 76406,25878 76409,25899 76412,25919 76416,25940 76421,25960 76426,25980 76432,26000 76437,26020 76444,26039 76451,26059 76458,26079 76466,26098 76474,26117 76483,26136 76492,26154 76501,26173 76511,26191 76521,26209 76532,26227 76543,26244 76555,26261 76567,26278 76579,26295 76592,26312 76605,26328 76618,26343 76632,26359 76646,26374 76661,26389 76676,26403 76691,26417 76706,26431 76722,26445 76738,26458 76755,26471 76772,26483 76788,26495 76806,26506 76823,26517 76841,26528 76859,26539 76877,26548 76896,26558 76914,26567 76933,26576 76952,26584 76971,26592 76991,26599 77010,26606 77030,26612 77050,26618 77070,26624 77090,26629 77110,26633 77131,26637 77151,26641 77172,26644 77192,26647 77213,26649 77234,26651 77254,26652 77275,26653 77296,26653 77317,26653 77337,26653 77358,26651 77379,26650 77400,26648 77421,26645 77441,26642 77462,26639 77482,26635 77503,26630 77523,26626 77543,26620 77563,26614 77583,26608 77602,26601 77622,26594 77641,26587 77660,26579 77679,26570 77698,26561 77716,26552 77735,26542 77753,26532 77770,26521 77788,26510 77805,26499 77822,26487 77839,26475 77856,26462 77872,26450 Z"/>
   </g>
  </g>
  <g class="com.sun.star.drawing.PolyPolygonShape">
   <g id="id6">
    <rect class="BoundingBox" stroke="none" fill="none" x="76565" y="25438" width="724" height="925"/>
    <path fill="rgb(0,0,0)" stroke="none" d="M 77017,25594 L 77017,26000 77288,26000 76927,26362 76565,26000 76835,26000 76835,25588 76836,25569 76837,25550 76839,25531 76842,25512 76845,25494 76850,25475 76855,25456 76861,25438 77017,25594 Z"/>
   </g>
  </g>
  <g class="com.sun.star.drawing.PolyPolygonShape">
   <g id="id7">
    <rect class="BoundingBox" stroke="none" fill="none" x="76955" y="25125" width="811" height="964"/>
    <path fill="rgb(0,0,0)" stroke="none" d="M 77765,26087 L 77584,25906 77584,25589 77584,25579 77583,25568 77582,25557 77581,25546 77579,25536 77577,25525 77574,25515 77571,25504 77567,25494 77564,25484 77559,25474 77555,25463 77550,25454 77545,25444 77539,25435 77533,25426 77526,25417 77520,25409 77513,25401 77506,25393 77498,25385 77490,25378 77482,25371 77473,25364 77465,25357 77456,25351 77447,25346 77437,25340 77428,25335 77418,25331 77408,25326 77398,25322 77388,25319 77377,25316 77367,25313 77356,25311 77346,25309 77335,25307 77324,25306 77314,25305 77303,25305 77292,25305 77281,25306 77270,25307 77260,25308 77249,25310 77238,25312 77228,25314 77217,25318 77207,25321 77197,25325 77187,25329 77177,25333 77168,25338 77157,25343 77148,25349 77139,25355 77130,25361 77122,25368 77113,25375 77105,25382 77098,25390 77090,25397 77083,25405 76955,25278 76967,25265 76979,25252 76992,25241 77006,25229 77019,25219 77033,25208 77048,25199 77063,25189 77078,25181 77093,25173 77109,25165 77125,25158 77142,25152 77158,25147 77176,25142 77193,25137 77210,25134 77227,25130 77244,25128 77262,25126 77279,25125 77296,25125 77314,25125 77331,25125 77349,25127 77366,25129 77383,25132 77400,25135 77417,25140 77434,25144 77451,25149 77467,25155 77483,25162 77499,25169 77515,25177 77530,25185 77545,25194 77560,25204 77574,25214 77588,25224 77601,25235 77615,25247 77627,25259 77639,25271 77651,25284 77662,25298 77673,25312 77683,25326 77693,25340 77702,25355 77710,25371 77718,25386 77725,25402 77732,25418 77738,25434 77744,25451 77749,25469 77753,25486 77756,25503 77759,25520 77762,25537 77763,25555 77764,25572 77765,25589 77765,26087 Z"/>
   </g>
  </g>
  <g class="com.sun.star.drawing.PolyPolygonShape">
   <g id="id8">
    <rect class="BoundingBox" stroke="none" fill="none" x="77583" y="26161" width="183" height="277"/>
    <path fill="rgb(0,0,0)" stroke="none" d="M 77674,26346 L 77583,26437 77583,26161 77765,26342 77765,26437 77674,26346 Z"/>
   </g>
  </g>
 </g>
</svg>