<?xml version="1.0" encoding="UTF-8"?>
<!DOCTYPE svg PUBLIC "-//W3C//DTD SVG 1.1//EN" "http://www.w3.org/Graphics/SVG/1.1/DTD/svg11.dtd">
<svg version="1.2" width="25.04mm" height="25.02mm" viewBox="79049 24500 2504 2502" preserveAspectRatio="xMidYMid" fill-rule="evenodd" stroke-width="28.222" stroke-linejoin="round" xmlns="http://www.w3.org/2000/svg" xmlns:ooo="http://xml.openoffice.org/svg/export" xmlns:xlink="http://www.w3.org/1999/xlink" xmlns:presentation="http://sun.com/xmlns/staroffice/presentation" xmlns:smil="http://www.w3.org/2001/SMIL20/" xmlns:anim="urn:oasis:names:tc:opendocument:xmlns:animation:1.0" xml:space="preserve">
 <defs class="EmbeddedBulletChars">
  <g id="bullet-char-template-57356" transform="scale(0.00048828125,-0.00048828125)">
   <path d="M 580,1141 L 1163,571 580,0 -4,571 580,1141 Z"/>
  </g>
  <g id="bullet-char-template-57354" transform="scale(0.00048828125,-0.00048828125)">
   <path d="M 8,1128 L 1137,1128 1137,0 8,0 8,1128 Z"/>
  </g>
  <g id="bullet-char-template-10146" transform="scale(0.00048828125,-0.00048828125)">
   <path d="M 174,0 L 602,739 174,1481 1456,739 174,0 Z M 1358,739 L 309,1346 659,739 1358,739 Z"/>
  </g>
  <g id="bullet-char-template-10132" transform="scale(0.00048828125,-0.00048828125)">
   <path d="M 2015,739 L 1276,0 717,0 1260,543 174,543 174,936 1260,936 717,1481 1274,1481 2015,739 Z"/>
  </g>
  <g id="bullet-char-template-10007" transform="scale(0.00048828125,-0.00048828125)">
   <path d="M 0,-2 C -7,14 -16,27 -25,37 L 356,567 C 262,823 215,952 215,954 215,979 228,992 255,992 264,992 276,990 289,987 310,991 331,999 354,1012 L 381,999 492,748 772,1049 836,1024 860,1049 C 881,1039 901,1025 922,1006 886,937 835,863 770,784 769,783 710,716 594,584 L 774,223 C 774,196 753,168 711,139 L 727,119 C 717,90 699,76 672,76 641,76 570,178 457,381 L 164,-76 C 142,-110 111,-127 72,-127 30,-127 9,-110 8,-76 1,-67 -2,-52 -2,-32 -2,-23 -1,-13 0,-2 Z"/>
  </g>
  <g id="bullet-char-template-10004" transform="scale(0.00048828125,-0.00048828125)">
   <path d="M 285,-33 C 182,-33 111,30 74,156 52,228 41,333 41,471 41,549 55,616 82,672 116,743 169,778 240,778 293,778 328,747 346,684 L 369,508 C 377,444 397,411 428,410 L 1163,1116 C 1174,1127 1196,1133 1229,1133 1271,1133 1292,1118 1292,1087 L 1292,965 C 1292,929 1282,901 1262,881 L 442,47 C 390,-6 338,-33 285,-33 Z"/>
  </g>
  <g id="bullet-char-template-9679" transform="scale(0.00048828125,-0.00048828125)">
   <path d="M 813,0 C 632,0 489,54 383,161 276,268 223,411 223,592 223,773 276,916 383,1023 489,1130 632,1184 813,1184 992,1184 1136,1130 1245,1023 1353,916 1407,772 1407,592 1407,412 1353,268 1245,161 1136,54 992,0 813,0 Z"/>
  </g>
  <g id="bullet-char-template-8226" transform="scale(0.00048828125,-0.00048828125)">
   <path d="M 346,457 C 273,457 209,483 155,535 101,586 74,649 74,723 74,796 101,859 155,911 209,963 273,989 346,989 419,989 480,963 531,910 582,859 608,796 608,723 608,648 583,586 532,535 482,483 420,457 346,457 Z"/>
  </g>
  <g id="bullet-char-template-8211" transform="scale(0.00048828125,-0.00048828125)">
   <path d="M -4,459 L 1135,459 1135,606 -4,606 -4,459 Z"/>
  </g>
  <g id="bullet-char-template-61548" transform="scale(0.00048828125,-0.00048828125)">
   <path d="M 173,740 C 173,903 231,1043 346,1159 462,1274 601,1332 765,1332 928,1332 1067,1274 1183,1159 1299,1043 1357,903 1357,740 1357,577 1299,437 1183,322 1067,206 928,148 765,148 601,148 462,206 346,322 231,437 173,577 173,740 Z"/>
  </g>
 </defs>
 <g class="Page">
  <g class="com.sun.star.drawing.PolyPolygonShape">
   <g id="id3">
    <rect class="BoundingBox" stroke="none" fill="none" x="79049" y="24500" width="2504" height="2502"/>
    <path fill="rgb(255,0,0)" stroke="none" d="M 81551,25750 L 81551,25719 81549,25688 81548,25658 81545,25627 81541,25596 81537,25566 81532,25536 81527,25506 81520,25476 81513,25446 81506,25416 81497,25387 81488,25357 81478,25328 81467,25300 81456,25271 81444,25243 81431,25215 81417,25187 81403,25160 81388,25133 81373,25107 81357,25081 81340,25055 81323,25030 81305,25005 81286,24980 81267,24956 81246,24933 81226,24910 81205,24888 81184,24866 81162,24844 81139,24823 81116,24803 81093,24783 81069,24764 81044,24745 81020,24728 80994,24710 80968,24693 80942,24677 80916,24662 80889,24647 80862,24633 80834,24620 80806,24607 80778,24595 80750,24583 80721,24573 80692,24563 80662,24553 80633,24545 80603,24537 80573,24530 80544,24523 80513,24518 80483,24513 80453,24509 80422,24505 80392,24503 80361,24501 80330,24500 80300,24500 80269,24500 80238,24501 80208,24503 80177,24505 80146,24509 80116,24513 80086,24518 80056,24523 80026,24530 79996,24537 79966,24545 79937,24553 79907,24563 79878,24573 79850,24583 79821,24595 79793,24607 79765,24620 79737,24633 79710,24647 79683,24662 79657,24677 79631,24693 79605,24710 79580,24728 79555,24745 79530,24764 79506,24783 79483,24803 79460,24823 79437,24844 79415,24866 79394,24888 79373,24910 79353,24933 79333,24956 79314,24980 79295,25005 79277,25030 79260,25055 79243,25081 79227,25107 79212,25133 79197,25160 79183,25187 79169,25215 79156,25243 79144,25271 79133,25300 79122,25328 79112,25357 79103,25387 79094,25416 79087,25446 79080,25476 79073,25506 79068,25536 79063,25566 79059,25596 79055,25627 79053,25658 79051,25688 79049,25719 79049,25750 79049,25780 79051,25811 79053,25841 79055,25872 79059,25903 79063,25933 79068,25963 79073,25993 79080,26023 79087,26053 79094,26083 79103,26112 79112,26142 79122,26171 79133,26199 79144,26228 79156,26257 79169,26285 79183,26313 79197,26340 79212,26367 79227,26393 79243,26419 79260,26445 79277,26470 79295,26495 79314,26520 79333,26544 79353,26567 79373,26590 79394,26612 79415,26634 79437,26656 79460,26677 79483,26697 79506,26717 79530,26736 79555,26755 79580,26772 79605,26790 79631,26807 79657,26823 79683,26838 79710,26853 79737,26867 79765,26880 79793,26893 79821,26905 79850,26917 79878,26927 79907,26937 79937,26947 79966,26955 79996,26963 80026,26970 80056,26977 80086,26982 80116,26987 80146,26991 80177,26995 80208,26997 80238,26999 80269,27000 80299,27001 80330,27000 80361,26999 80392,26997 80422,26995 80453,26991 80483,26987 80513,26982 80544,26977 80573,26970 80603,26963 80633,26955 80662,26947 80692,26937 80721,26927 80750,26917 80778,26905 80806,26893 80834,26880 80862,26867 80889,26853 80916,26838 80942,26823 80968,26807 80994,26790 81020,26772 81044,26755 81069,26736 81093,26717 81116,26697 81139,26677 81162,26656 81184,26634 81205,26612 81226,26590 81246,26567 81267,26544 81286,26520 81305,26495 81323,26470 81340,26445 81357,26419 81373,26393 81388,26367 81403,26340 81417,26313 81431,26285 81444,26257 81456,26228 81467,26199 81478,26171 81488,26142 81497,26112 81506,26083 81513,26053 81520,26023 81527,25993 81532,25963 81537,25933 81541,25903 81545,25872 81548,25841 81549,25811 81551,25780 81551,25750 Z"/>
   </g>
  </g>
  <g class="com.sun.star.drawing.PolyPolygonShape">
   <g id="id4">
    <rect class="BoundingBox" stroke="none" fill="none" x="79396" y="24847" width="1809" height="1807"/>
    <path fill="rgb(255,255,255)" stroke="none" d="M 81204,25750 L 81203,25727 81203,25705 81201,25683 81199,25661 81197,25639 81194,25617 81190,25595 81186,25573 81182,25552 81176,25530 81171,25509 81165,25487 81158,25466 81151,25445 81143,25425 81135,25404 81126,25384 81117,25363 81107,25344 81097,25324 81086,25305 81075,25285 81063,25267 81051,25248 81039,25230 81026,25212 81012,25194 80999,25177 80984,25160 80970,25143 80955,25127 80939,25111 80923,25096 80907,25081 80890,25066 80873,25052 80856,25038 80838,25024 80820,25011 80802,24999 80784,24987 80765,24975 80746,24964 80726,24953 80707,24943 80687,24933 80667,24924 80646,24915 80626,24907 80605,24899 80584,24892 80563,24886 80541,24880 80520,24874 80498,24869 80477,24864 80455,24860 80433,24856 80411,24854 80389,24851 80366,24849 80344,24848 80322,24847 80299,24847 80277,24847 80255,24848 80233,24849 80211,24851 80189,24854 80167,24856 80145,24860 80123,24864 80102,24869 80080,24874 80059,24880 80037,24886 80016,24892 79995,24899 79974,24907 79954,24915 79934,24924 79913,24933 79894,24943 79874,24953 79854,24964 79835,24975 79816,24987 79798,24999 79780,25011 79762,25024 79744,25038 79727,25052 79710,25066 79693,25081 79677,25096 79661,25111 79645,25127 79630,25143 79616,25160 79602,25177 79588,25194 79574,25212 79561,25230 79549,25248 79537,25267 79525,25285 79514,25305 79503,25324 79493,25344 79483,25363 79474,25384 79465,25404 79457,25425 79449,25445 79442,25466 79435,25487 79429,25509 79424,25530 79418,25552 79414,25573 79410,25595 79406,25617 79403,25639 79401,25661 79399,25683 79398,25705 79397,25727 79396,25750 79397,25772 79398,25794 79399,25816 79401,25838 79403,25860 79406,25882 79410,25904 79414,25926 79418,25947 79424,25969 79429,25990 79435,26012 79442,26033 79449,26054 79457,26074 79465,26095 79474,26115 79483,26136 79493,26155 79503,26176 79514,26195 79525,26215 79537,26233 79549,26252 79561,26270 79574,26288 79588,26306 79602,26323 79616,26340 79630,26357 79645,26373 79661,26389 79677,26404 79693,26419 79710,26434 79727,26448 79744,26462 79762,26476 79780,26489 79798,26501 79816,26513 79835,26525 79854,26536 79874,26547 79894,26557 79913,26567 79934,26576 79954,26585 79974,26593 79995,26601 80016,26608 80037,26614 80059,26620 80080,26626 80102,26631 80123,26636 80145,26640 80167,26644 80189,26646 80211,26649 80233,26651 80255,26652 80277,26653 80299,26653 80322,26653 80344,26652 80366,26651 80389,26649 80411,26646 80433,26644 80455,26640 80477,26636 80498,26631 80520,26626 80541,26620 80563,26614 80584,26608 80605,26601 80626,26593 80646,26585 80667,26576 80687,26567 80707,26557 80726,26547 80746,26536 80765,26525 80784,26513 80802,26501 80820,26489 80838,26476 80856,26462 80873,26448 80890,26434 80907,26419 80923,26404 80939,26389 80955,26373 80970,26357 80984,26340 80999,26323 81012,26306 81026,26288 81039,26270 81051,26252 81063,26233 81075,26215 81086,26195 81097,26176 81107,26155 81117,26136 81126,26115 81135,26095 81143,26074 81151,26054 81158,26033 81165,26012 81171,25990 81176,25969 81182,25947 81186,25926 81190,25904 81194,25882 81197,25860 81199,25838 81201,25816 81203,25794 81203,25772 81204,25750 Z"/>
   </g>
  </g>
  <g class="com.sun.star.drawing.PolyPolygonShape">
   <g id="id5">
    <rect class="BoundingBox" stroke="none" fill="none" x="79487" y="25423" width="1673" height="683"/>
    <path fill="rgb(0,0,0)" stroke="none" d="M 81016,26083 L 80477,26083 80477,25953 81016,25953 81016,26083 Z M 80986,25454 L 81087,25667 81044,25663 81002,25659 80959,25655 80916,25652 80874,25650 80831,25649 80789,25648 80746,25648 80704,25648 80661,25649 80619,25650 80576,25652 80534,25655 80491,25659 80449,25663 80407,25667 80507,25454 80986,25454 Z M 81096,26083 L 81096,25953 81123,25953 81129,25935 81135,25916 81140,25897 81145,25878 81149,25859 81153,25840 81156,25820 81159,25801 81159,25729 81158,25719 81157,25709 81154,25700 81150,25691 81148,25687 81145,25684 81142,25681 81139,25679 81135,25677 81131,25675 81127,25673 81123,25673 81006,25424 80487,25424 80370,25673 80366,25673 80362,25675 80359,25677 80355,25679 80352,25681 80348,25684 80346,25687 80344,25691 80340,25700 80337,25709 80335,25719 80334,25729 80335,25801 80337,25820 80341,25840 80344,25859 80348,25878 80353,25897 80358,25916 80364,25935 80370,25953 80398,25953 80398,26083 79487,26083 79487,26105 81113,26105 81113,26083 81096,26083 Z"/>
   </g>
  </g>
  <g class="com.sun.star.drawing.PolyPolygonShape">
   <g id="id6">
    <rect class="BoundingBox" stroke="none" fill="none" x="79441" y="25424" width="826" height="660"/>
    <path fill="rgb(255,0,0)" stroke="none" d="M 80093,25454 L 80192,25666 80150,25662 80108,25658 80065,25654 80023,25651 79980,25649 79938,25648 79895,25647 79853,25647 79810,25647 79768,25648 79725,25649 79683,25651 79640,25654 79598,25658 79556,25662 79514,25666 79613,25454 80093,25454 Z M 80265,25800 L 80266,25728 80265,25718 80263,25708 80260,25699 80256,25690 80254,25686 80252,25683 80249,25680 80245,25678 80241,25676 80237,25674 80233,25672 80229,25672 80112,25424 79594,25424 79477,25672 79473,25672 79469,25674 79465,25676 79462,25678 79458,25680 79455,25683 79452,25686 79450,25690 79446,25699 79443,25708 79442,25718 79441,25728 79441,25800 79444,25819 79447,25839 79451,25858 79455,25877 79460,25896 79465,25915 79471,25934 79477,25952 79505,25952 79505,26083 79584,26083 79584,25952 80122,25952 80122,26083 80201,26083 80201,25952 80229,25952 80235,25934 80241,25915 80247,25896 80252,25877 80256,25858 80260,25839 80263,25819 80265,25800 Z"/>
   </g>
  </g>
 </g>
</svg>