<?xml version="1.0" encoding="UTF-8"?>
<!DOCTYPE svg PUBLIC "-//W3C//DTD SVG 1.1//EN" "http://www.w3.org/Graphics/SVG/1.1/DTD/svg11.dtd">
<svg version="1.2" width="25.39mm" height="25.38mm" viewBox="82031 24482 2539 2538" preserveAspectRatio="xMidYMid" fill-rule="evenodd" stroke-width="28.222" stroke-linejoin="round" xmlns="http://www.w3.org/2000/svg" xmlns:ooo="http://xml.openoffice.org/svg/export" xmlns:xlink="http://www.w3.org/1999/xlink" xmlns:presentation="http://sun.com/xmlns/staroffice/presentation" xmlns:smil="http://www.w3.org/2001/SMIL20/" xmlns:anim="urn:oasis:names:tc:opendocument:xmlns:animation:1.0" xml:space="preserve">
 <defs class="EmbeddedBulletChars">
  <g id="bullet-char-template-57356" transform="scale(0.00048828125,-0.00048828125)">
   <path d="M 580,1141 L 1163,571 580,0 -4,571 580,1141 Z"/>
  </g>
  <g id="bullet-char-template-57354" transform="scale(0.00048828125,-0.00048828125)">
   <path d="M 8,1128 L 1137,1128 1137,0 8,0 8,1128 Z"/>
  </g>
  <g id="bullet-char-template-10146" transform="scale(0.00048828125,-0.00048828125)">
   <path d="M 174,0 L 602,739 174,1481 1456,739 174,0 Z M 1358,739 L 309,1346 659,739 1358,739 Z"/>
  </g>
  <g id="bullet-char-template-10132" transform="scale(0.00048828125,-0.00048828125)">
   <path d="M 2015,739 L 1276,0 717,0 1260,543 174,543 174,936 1260,936 717,1481 1274,1481 2015,739 Z"/>
  </g>
  <g id="bullet-char-template-10007" transform="scale(0.00048828125,-0.00048828125)">
   <path d="M 0,-2 C -7,14 -16,27 -25,37 L 356,567 C 262,823 215,952 215,954 215,979 228,992 255,992 264,992 276,990 289,987 310,991 331,999 354,1012 L 381,999 492,748 772,1049 836,1024 860,1049 C 881,1039 901,1025 922,1006 886,937 835,863 770,784 769,783 710,716 594,584 L 774,223 C 774,196 753,168 711,139 L 727,119 C 717,90 699,76 672,76 641,76 570,178 457,381 L 164,-76 C 142,-110 111,-127 72,-127 30,-127 9,-110 8,-76 1,-67 -2,-52 -2,-32 -2,-23 -1,-13 0,-2 Z"/>
  </g>
  <g id="bullet-char-template-10004" transform="scale(0.00048828125,-0.00048828125)">
   <path d="M 285,-33 C 182,-33 111,30 74,156 52,228 41,333 41,471 41,549 55,616 82,672 116,743 169,778 240,778 293,778 328,747 346,684 L 369,508 C 377,444 397,411 428,410 L 1163,1116 C 1174,1127 1196,1133 1229,1133 1271,1133 1292,1118 1292,1087 L 1292,965 C 1292,929 1282,901 1262,881 L 442,47 C 390,-6 338,-33 285,-33 Z"/>
  </g>
  <g id="bullet-char-template-9679" transform="scale(0.00048828125,-0.00048828125)">
   <path d="M 813,0 C 632,0 489,54 383,161 276,268 223,411 223,592 223,773 276,916 383,1023 489,1130 632,1184 813,1184 992,1184 1136,1130 1245,1023 1353,916 1407,772 1407,592 1407,412 1353,268 1245,161 1136,54 992,0 813,0 Z"/>
  </g>
  <g id="bullet-char-template-8226" transform="scale(0.00048828125,-0.00048828125)">
   <path d="M 346,457 C 273,457 209,483 155,535 101,586 74,649 74,723 74,796 101,859 155,911 209,963 273,989 346,989 419,989 480,963 531,910 582,859 608,796 608,723 608,648 583,586 532,535 482,483 420,457 346,457 Z"/>
  </g>
  <g id="bullet-char-template-8211" transform="scale(0.00048828125,-0.00048828125)">
   <path d="M -4,459 L 1135,459 1135,606 -4,606 -4,459 Z"/>
  </g>
  <g id="bullet-char-template-61548" transform="scale(0.00048828125,-0.00048828125)">
   <path d="M 173,740 C 173,903 231,1043 346,1159 462,1274 601,1332 765,1332 928,1332 1067,1274 1183,1159 1299,1043 1357,903 1357,740 1357,577 1299,437 1183,322 1067,206 928,148 765,148 601,148 462,206 346,322 231,437 173,577 173,740 Z"/>
  </g>
 </defs>
 <g class="Page">
  <g class="com.sun.star.drawing.PolyPolygonShape">
   <g id="id3">
    <rect class="BoundingBox" stroke="none" fill="none" x="82031" y="24482" width="2539" height="2538"/>
    <path fill="rgb(255,255,255)" stroke="none" d="M 84551,25750 L 84551,25719 84549,25688 84547,25658 84545,25627 84541,25596 84537,25566 84532,25536 84527,25506 84520,25476 84513,25446 84506,25416 84497,25387 84488,25357 84478,25328 84467,25300 84456,25271 84444,25243 84431,25215 84417,25187 84403,25160 84388,25133 84373,25107 84357,25081 84340,25055 84323,25030 84305,25005 84286,24980 84267,24956 84247,24933 84227,24910 84206,24888 84185,24866 84163,24844 84140,24823 84117,24803 84094,24783 84070,24764 84045,24745 84020,24728 83995,24710 83969,24693 83943,24677 83917,24662 83890,24647 83863,24633 83835,24620 83807,24607 83779,24595 83751,24583 83721,24573 83692,24563 83662,24553 83633,24545 83603,24537 83573,24530 83543,24523 83513,24518 83483,24513 83453,24509 83422,24505 83391,24503 83361,24501 83330,24500 83300,24500 83269,24500 83238,24501 83208,24503 83177,24505 83146,24509 83116,24513 83086,24518 83056,24523 83026,24530 82996,24537 82966,24545 82937,24553 82907,24563 82878,24573 82850,24583 82821,24595 82793,24607 82765,24620 82737,24633 82710,24647 82683,24662 82657,24677 82631,24693 82605,24710 82580,24728 82555,24745 82530,24764 82506,24783 82483,24803 82460,24823 82437,24844 82415,24866 82394,24888 82373,24910 82353,24933 82333,24956 82314,24980 82295,25005 82277,25030 82260,25055 82243,25081 82227,25107 82212,25133 82197,25160 82183,25187 82169,25215 82156,25243 82144,25271 82133,25300 82122,25328 82112,25357 82103,25387 82094,25416 82087,25446 82080,25476 82073,25506 82068,25536 82063,25566 82059,25596 82055,25627 82053,25658 82051,25688 82049,25719 82049,25750 82049,25780 82051,25811 82053,25841 82055,25872 82059,25903 82063,25933 82068,25963 82073,25993 82080,26023 82087,26053 82094,26083 82103,26112 82112,26142 82122,26171 82133,26199 82144,26228 82156,26257 82169,26285 82183,26313 82197,26340 82212,26367 82227,26393 82243,26419 82260,26445 82277,26470 82295,26495 82314,26520 82333,26544 82353,26567 82373,26590 82394,26612 82415,26634 82437,26656 82460,26677 82483,26697 82506,26717 82530,26736 82555,26755 82580,26772 82605,26790 82631,26807 82657,26823 82683,26838 82710,26853 82737,26867 82765,26880 82793,26893 82821,26905 82850,26917 82878,26927 82907,26937 82937,26947 82966,26955 82996,26963 83026,26970 83056,26977 83086,26982 83116,26987 83146,26991 83177,26995 83208,26997 83238,26999 83269,27000 83299,27001 83330,27000 83361,26999 83391,26997 83422,26995 83453,26991 83483,26987 83513,26982 83543,26977 83573,26970 83603,26963 83633,26955 83662,26947 83692,26937 83721,26927 83751,26917 83779,26905 83807,26893 83835,26880 83863,26867 83890,26853 83917,26838 83943,26823 83969,26807 83995,26790 84020,26772 84045,26755 84070,26736 84094,26717 84117,26697 84140,26677 84163,26656 84185,26634 84206,26612 84227,26590 84247,26567 84267,26544 84286,26520 84305,26495 84323,26470 84340,26445 84357,26419 84373,26393 84388,26367 84403,26340 84417,26313 84431,26285 84444,26257 84456,26228 84467,26199 84478,26171 84488,26142 84497,26112 84506,26083 84513,26053 84520,26023 84527,25993 84532,25963 84537,25933 84541,25903 84545,25872 84547,25841 84549,25811 84551,25780 84551,25750 Z"/>
    <path fill="none" stroke="rgb(0,0,0)" stroke-width="35" stroke-linejoin="miter" stroke-linecap="square" d="M 84551,25750 L 84551,25719 84549,25688 84547,25658 84545,25627 84541,25596 84537,25566 84532,25536 84527,25506 84520,25476 84513,25446 84506,25416 84497,25387 84488,25357 84478,25328 84467,25300 84456,25271 84444,25243 84431,25215 84417,25187 84403,25160 84388,25133 84373,25107 84357,25081 84340,25055 84323,25030 84305,25005 84286,24980 84267,24956 84247,24933 84227,24910 84206,24888 84185,24866 84163,24844 84140,24823 84117,24803 84094,24783 84070,24764 84045,24745 84020,24728 83995,24710 83969,24693 83943,24677 83917,24662 83890,24647 83863,24633 83835,24620 83807,24607 83779,24595 83751,24583 83721,24573 83692,24563 83662,24553 83633,24545 83603,24537 83573,24530 83543,24523 83513,24518 83483,24513 83453,24509 83422,24505 83391,24503 83361,24501 83330,24500 83300,24500 83269,24500 83238,24501 83208,24503 83177,24505 83146,24509 83116,24513 83086,24518 83056,24523 83026,24530 82996,24537 82966,24545 82937,24553 82907,24563 82878,24573 82850,24583 82821,24595 82793,24607 82765,24620 82737,24633 82710,24647 82683,24662 82657,24677 82631,24693 82605,24710 82580,24728 82555,24745 82530,24764 82506,24783 82483,24803 82460,24823 82437,24844 82415,24866 82394,24888 82373,24910 82353,24933 82333,24956 82314,24980 82295,25005 82277,25030 82260,25055 82243,25081 82227,25107 82212,25133 82197,25160 82183,25187 82169,25215 82156,25243 82144,25271 82133,25300 82122,25328 82112,25357 82103,25387 82094,25416 82087,25446 82080,25476 82073,25506 82068,25536 82063,25566 82059,25596 82055,25627 82053,25658 82051,25688 82049,25719 82049,25750 82049,25780 82051,25811 82053,25841 82055,25872 82059,25903 82063,25933 82068,25963 82073,25993 82080,26023 82087,26053 82094,26083 82103,26112 82112,26142 82122,26171 82133,26199 82144,26228 82156,26257 82169,26285 82183,26313 82197,26340 82212,26367 82227,26393 82243,26419 82260,26445 82277,26470 82295,26495 82314,26520 82333,26544 82353,26567 82373,26590 82394,26612 82415,26634 82437,26656 82460,26677 82483,26697 82506,26717 82530,26736 82555,26755 82580,26772 82605,26790 82631,26807 82657,26823 82683,26838 82710,26853 82737,26867 82765,26880 82793,26893 82821,26905 82850,26917 82878,26927 82907,26937 82937,26947 82966,26955 82996,26963 83026,26970 83056,26977 83086,26982 83116,26987 83146,26991 83177,26995 83208,26997 83238,26999 83269,27000 83299,27001 83330,27000 83361,26999 83391,26997 83422,26995 83453,26991 83483,26987 83513,26982 83543,26977 83573,26970 83603,26963 83633,26955 83662,26947 83692,26937 83721,26927 83751,26917 83779,26905 83807,26893 83835,26880 83863,26867 83890,26853 83917,26838 83943,26823 83969,26807 83995,26790 84020,26772 84045,26755 84070,26736 84094,26717 84117,26697 84140,26677 84163,26656 84185,26634 84206,26612 84227,26590 84247,26567 84267,26544 84286,26520 84305,26495 84323,26470 84340,26445 84357,26419 84373,26393 84388,26367 84403,26340 84417,26313 84431,26285 84444,26257 84456,26228 84467,26199 84478,26171 84488,26142 84497,26112 84506,26083 84513,26053 84520,26023 84527,25993 84532,25963 84537,25933 84541,25903 84545,25872 84547,25841 84549,25811 84551,25780 84551,25750 Z"/>
   </g>
  </g>
  <g class="com.sun.star.drawing.PolyPolygonShape">
   <g id="id4">
    <rect class="BoundingBox" stroke="none" fill="none" x="82264" y="24715" width="2073" height="2071"/>
    <path fill="rgb(0,0,0)" stroke="none" d="M 82598,26785 L 82574,26768 82550,26751 82526,26733 82503,26714 82481,26695 82458,26675 82437,26655 82415,26634 82395,26613 82374,26591 82355,26569 82335,26547 82317,26523 82299,26500 82281,26476 82264,26452 84002,24715 84026,24732 84050,24749 84074,24767 84097,24786 84119,24805 84142,24825 84163,24845 84185,24866 84205,24887 84226,24909 84245,24931 84264,24953 84283,24977 84301,25000 84319,25024 84336,25049 82598,26785 Z"/>
   </g>
  </g>
  <g class="com.sun.star.drawing.PolyPolygonShape">
   <g id="id5">
    <rect class="BoundingBox" stroke="none" fill="none" x="83258" y="25374" width="1113" height="753"/>
    <path fill="rgb(180,180,180)" stroke="none" d="M 84213,26101 L 83619,26101 83619,25958 84213,25958 84213,26101 Z M 83484,25900 L 83492,25929 83501,25958 83532,25958 83532,26101 83283,26101 83258,26126 84363,26126 84363,26101 84300,26101 84300,25958 84331,25958 84338,25937 84344,25917 84350,25896 84355,25874 84360,25853 84364,25832 84367,25810 84370,25789 84370,25710 84370,25704 84370,25699 84369,25694 84368,25688 84366,25683 84365,25678 84363,25673 84360,25668 84358,25664 84355,25660 84352,25657 84348,25654 84344,25652 84340,25650 84335,25649 84331,25648 84202,25374 84010,25374 83976,25408 84181,25408 84291,25642 84258,25638 84225,25635 84192,25632 84158,25629 84125,25627 84092,25625 84059,25623 84026,25622 83993,25621 83959,25620 83926,25620 83893,25620 83859,25621 83826,25621 83792,25622 83759,25624 83484,25900 Z"/>
   </g>
  </g>
  <g class="com.sun.star.drawing.PolyPolygonShape">
   <g id="id6">
    <rect class="BoundingBox" stroke="none" fill="none" x="82230" y="25374" width="860" height="753"/>
    <path fill="rgb(180,180,180)" stroke="none" d="M 82949,25408 L 83059,25642 83012,25637 82965,25632 82918,25629 82872,25625 82825,25623 82777,25621 82730,25620 82683,25620 82637,25620 82590,25621 82543,25623 82496,25625 82449,25629 82403,25632 82356,25637 82309,25642 82419,25408 82949,25408 Z M 82758,25958 L 83089,25627 82970,25374 82398,25374 82269,25648 82265,25649 82260,25650 82256,25652 82252,25654 82248,25657 82245,25660 82242,25664 82240,25668 82237,25673 82235,25678 82234,25683 82232,25688 82231,25694 82230,25699 82230,25704 82230,25710 82230,25789 82233,25810 82236,25832 82240,25853 82245,25874 82250,25896 82256,25917 82262,25937 82269,25958 82300,25958 82300,26101 82230,26101 82230,26126 82590,26126 82615,26101 82387,26101 82387,25958 82758,25958 Z"/>
   </g>
  </g>
 </g>
</svg>