<?xml version="1.0" encoding="UTF-8"?>
<!DOCTYPE svg PUBLIC "-//W3C//DTD SVG 1.1//EN" "http://www.w3.org/Graphics/SVG/1.1/DTD/svg11.dtd">
<svg version="1.2" width="25.03mm" height="25.02mm" viewBox="85049 24500 2503 2502" preserveAspectRatio="xMidYMid" fill-rule="evenodd" stroke-width="28.222" stroke-linejoin="round" xmlns="http://www.w3.org/2000/svg" xmlns:ooo="http://xml.openoffice.org/svg/export" xmlns:xlink="http://www.w3.org/1999/xlink" xmlns:presentation="http://sun.com/xmlns/staroffice/presentation" xmlns:smil="http://www.w3.org/2001/SMIL20/" xmlns:anim="urn:oasis:names:tc:opendocument:xmlns:animation:1.0" xml:space="preserve">
 <defs class="EmbeddedBulletChars">
  <g id="bullet-char-template-57356" transform="scale(0.00048828125,-0.00048828125)">
   <path d="M 580,1141 L 1163,571 580,0 -4,571 580,1141 Z"/>
  </g>
  <g id="bullet-char-template-57354" transform="scale(0.00048828125,-0.00048828125)">
   <path d="M 8,1128 L 1137,1128 1137,0 8,0 8,1128 Z"/>
  </g>
  <g id="bullet-char-template-10146" transform="scale(0.00048828125,-0.00048828125)">
   <path d="M 174,0 L 602,739 174,1481 1456,739 174,0 Z M 1358,739 L 309,1346 659,739 1358,739 Z"/>
  </g>
  <g id="bullet-char-template-10132" transform="scale(0.00048828125,-0.00048828125)">
   <path d="M 2015,739 L 1276,0 717,0 1260,543 174,543 174,936 1260,936 717,1481 1274,1481 2015,739 Z"/>
  </g>
  <g id="bullet-char-template-10007" transform="scale(0.00048828125,-0.00048828125)">
   <path d="M 0,-2 C -7,14 -16,27 -25,37 L 356,567 C 262,823 215,952 215,954 215,979 228,992 255,992 264,992 276,990 289,987 310,991 331,999 354,1012 L 381,999 492,748 772,1049 836,1024 860,1049 C 881,1039 901,1025 922,1006 886,937 835,863 770,784 769,783 710,716 594,584 L 774,223 C 774,196 753,168 711,139 L 727,119 C 717,90 699,76 672,76 641,76 570,178 457,381 L 164,-76 C 142,-110 111,-127 72,-127 30,-127 9,-110 8,-76 1,-67 -2,-52 -2,-32 -2,-23 -1,-13 0,-2 Z"/>
  </g>
  <g id="bullet-char-template-10004" transform="scale(0.00048828125,-0.00048828125)">
   <path d="M 285,-33 C 182,-33 111,30 74,156 52,228 41,333 41,471 41,549 55,616 82,672 116,743 169,778 240,778 293,778 328,747 346,684 L 369,508 C 377,444 397,411 428,410 L 1163,1116 C 1174,1127 1196,1133 1229,1133 1271,1133 1292,1118 1292,1087 L 1292,965 C 1292,929 1282,901 1262,881 L 442,47 C 390,-6 338,-33 285,-33 Z"/>
  </g>
  <g id="bullet-char-template-9679" transform="scale(0.00048828125,-0.00048828125)">
   <path d="M 813,0 C 632,0 489,54 383,161 276,268 223,411 223,592 223,773 276,916 383,1023 489,1130 632,1184 813,1184 992,1184 1136,1130 1245,1023 1353,916 1407,772 1407,592 1407,412 1353,268 1245,161 1136,54 992,0 813,0 Z"/>
  </g>
  <g id="bullet-char-template-8226" transform="scale(0.00048828125,-0.00048828125)">
   <path d="M 346,457 C 273,457 209,483 155,535 101,586 74,649 74,723 74,796 101,859 155,911 209,963 273,989 346,989 419,989 480,963 531,910 582,859 608,796 608,723 608,648 583,586 532,535 482,483 420,457 346,457 Z"/>
  </g>
  <g id="bullet-char-template-8211" transform="scale(0.00048828125,-0.00048828125)">
   <path d="M -4,459 L 1135,459 1135,606 -4,606 -4,459 Z"/>
  </g>
  <g id="bullet-char-template-61548" transform="scale(0.00048828125,-0.00048828125)">
   <path d="M 173,740 C 173,903 231,1043 346,1159 462,1274 601,1332 765,1332 928,1332 1067,1274 1183,1159 1299,1043 1357,903 1357,740 1357,577 1299,437 1183,322 1067,206 928,148 765,148 601,148 462,206 346,322 231,437 173,577 173,740 Z"/>
  </g>
 </defs>
 <g class="Page">
  <g class="com.sun.star.drawing.PolyPolygonShape">
   <g id="id3">
    <rect class="BoundingBox" stroke="none" fill="none" x="85049" y="24500" width="2503" height="2502"/>
    <path fill="rgb(255,0,0)" stroke="none" d="M 87551,25750 L 87551,25719 87549,25688 87548,25658 87545,25627 87541,25596 87537,25566 87532,25536 87527,25506 87520,25476 87513,25446 87506,25416 87497,25387 87488,25357 87478,25328 87467,25300 87456,25271 87444,25243 87431,25215 87417,25187 87403,25160 87388,25133 87373,25107 87357,25081 87340,25055 87323,25030 87305,25005 87286,24980 87267,24956 87247,24933 87227,24910 87206,24888 87185,24866 87163,24844 87140,24823 87117,24803 87094,24783 87070,24764 87045,24745 87021,24728 86995,24710 86969,24693 86943,24677 86917,24662 86890,24647 86863,24633 86835,24620 86807,24607 86779,24595 86751,24583 86722,24573 86693,24563 86663,24553 86634,24545 86604,24537 86574,24530 86544,24523 86514,24518 86484,24513 86454,24509 86423,24505 86393,24503 86362,24501 86331,24500 86301,24500 86270,24500 86238,24501 86207,24503 86177,24505 86146,24509 86116,24513 86086,24518 86056,24523 86026,24530 85996,24537 85966,24545 85937,24553 85907,24563 85878,24573 85850,24583 85821,24595 85793,24607 85765,24620 85737,24633 85710,24647 85683,24662 85657,24677 85631,24693 85605,24710 85580,24728 85555,24745 85530,24764 85506,24783 85483,24803 85460,24823 85437,24844 85415,24866 85394,24888 85373,24910 85353,24933 85333,24956 85314,24980 85295,25005 85277,25030 85260,25055 85243,25081 85227,25107 85212,25133 85197,25160 85183,25187 85169,25215 85156,25243 85144,25271 85133,25300 85122,25328 85112,25357 85103,25387 85095,25416 85087,25446 85080,25476 85073,25506 85068,25536 85063,25566 85059,25596 85055,25627 85053,25658 85051,25688 85049,25719 85049,25750 85049,25780 85051,25811 85053,25841 85055,25872 85059,25903 85063,25933 85068,25963 85073,25993 85080,26023 85087,26053 85095,26083 85103,26112 85112,26142 85122,26171 85133,26199 85144,26228 85156,26257 85169,26285 85183,26313 85197,26340 85212,26367 85227,26393 85243,26419 85260,26445 85277,26470 85295,26495 85314,26520 85333,26544 85353,26567 85373,26590 85394,26612 85415,26634 85437,26656 85460,26677 85483,26697 85506,26717 85530,26736 85555,26755 85580,26772 85605,26790 85631,26807 85657,26823 85683,26838 85710,26853 85737,26867 85765,26880 85793,26893 85821,26905 85850,26917 85878,26927 85907,26937 85937,26947 85966,26955 85996,26963 86026,26970 86056,26977 86086,26982 86116,26987 86146,26991 86177,26995 86207,26997 86238,26999 86270,27000 86300,27001 86331,27000 86362,26999 86393,26997 86423,26995 86454,26991 86484,26987 86514,26982 86544,26977 86574,26970 86604,26963 86634,26955 86663,26947 86693,26937 86722,26927 86751,26917 86779,26905 86807,26893 86835,26880 86863,26867 86890,26853 86917,26838 86943,26823 86969,26807 86995,26790 87021,26772 87045,26755 87070,26736 87094,26717 87117,26697 87140,26677 87163,26656 87185,26634 87206,26612 87227,26590 87247,26567 87267,26544 87286,26520 87305,26495 87323,26470 87340,26445 87357,26419 87373,26393 87388,26367 87403,26340 87417,26313 87431,26285 87444,26257 87456,26228 87467,26199 87478,26171 87488,26142 87497,26112 87506,26083 87513,26053 87520,26023 87527,25993 87532,25963 87537,25933 87541,25903 87545,25872 87548,25841 87549,25811 87551,25780 87551,25750 Z"/>
   </g>
  </g>
  <g class="com.sun.star.drawing.PolyPolygonShape">
   <g id="id4">
    <rect class="BoundingBox" stroke="none" fill="none" x="85395" y="24847" width="1810" height="1807"/>
    <path fill="rgb(255,255,255)" stroke="none" d="M 87204,25750 L 87203,25727 87203,25705 87201,25683 87199,25661 87197,25639 87194,25617 87190,25595 87186,25573 87182,25552 87176,25530 87171,25509 87165,25487 87158,25466 87151,25445 87143,25425 87135,25404 87126,25384 87117,25363 87107,25344 87097,25324 87086,25305 87075,25285 87063,25267 87051,25248 87039,25230 87026,25212 87012,25194 86999,25177 86984,25160 86970,25143 86954,25127 86939,25111 86923,25096 86907,25081 86890,25066 86873,25052 86856,25038 86838,25024 86820,25011 86802,24999 86784,24987 86765,24975 86746,24964 86726,24953 86707,24943 86687,24933 86666,24924 86646,24915 86626,24907 86605,24899 86584,24892 86563,24886 86541,24880 86520,24874 86498,24869 86477,24864 86455,24860 86433,24856 86411,24854 86389,24851 86367,24849 86345,24848 86323,24847 86300,24847 86278,24847 86256,24848 86234,24849 86212,24851 86190,24854 86168,24856 86146,24860 86124,24864 86103,24869 86081,24874 86060,24880 86038,24886 86017,24892 85996,24899 85975,24907 85955,24915 85935,24924 85914,24933 85895,24943 85875,24953 85855,24964 85836,24975 85817,24987 85799,24999 85780,25011 85762,25024 85744,25038 85727,25052 85710,25066 85693,25081 85677,25096 85661,25111 85645,25127 85630,25143 85616,25160 85602,25177 85588,25194 85574,25212 85561,25230 85549,25248 85537,25267 85525,25285 85514,25305 85503,25324 85493,25344 85483,25363 85474,25384 85465,25404 85457,25425 85449,25445 85442,25466 85435,25487 85429,25509 85424,25530 85418,25552 85414,25573 85410,25595 85406,25617 85403,25639 85401,25661 85399,25683 85397,25705 85397,25727 85396,25750 85397,25772 85397,25794 85399,25816 85401,25838 85403,25860 85406,25882 85410,25904 85414,25926 85418,25947 85424,25969 85429,25990 85435,26012 85442,26033 85449,26054 85457,26074 85465,26095 85474,26115 85483,26136 85493,26155 85503,26176 85514,26195 85525,26215 85537,26233 85549,26252 85561,26270 85574,26288 85588,26306 85602,26323 85616,26340 85630,26357 85645,26373 85661,26389 85677,26404 85693,26419 85710,26434 85727,26448 85744,26462 85762,26476 85780,26489 85799,26501 85817,26513 85836,26525 85855,26536 85875,26547 85895,26557 85914,26567 85935,26576 85955,26585 85975,26593 85996,26601 86017,26608 86038,26614 86060,26620 86081,26626 86103,26631 86124,26636 86146,26640 86168,26644 86190,26646 86212,26649 86234,26651 86256,26652 86278,26653 86300,26653 86323,26653 86345,26652 86367,26651 86389,26649 86411,26646 86433,26644 86455,26640 86477,26636 86498,26631 86520,26626 86541,26620 86563,26614 86584,26608 86605,26601 86626,26593 86646,26585 86666,26576 86687,26567 86707,26557 86726,26547 86746,26536 86765,26525 86784,26513 86802,26501 86820,26489 86838,26476 86856,26462 86873,26448 86890,26434 86907,26419 86923,26404 86939,26389 86954,26373 86970,26357 86984,26340 86999,26323 87012,26306 87026,26288 87039,26270 87051,26252 87063,26233 87075,26215 87086,26195 87097,26176 87107,26155 87117,26136 87126,26115 87135,26095 87143,26074 87151,26054 87158,26033 87165,26012 87171,25990 87176,25969 87182,25947 87186,25926 87190,25904 87194,25882 87197,25860 87199,25838 87201,25816 87203,25794 87203,25772 87204,25750 Z"/>
   </g>
  </g>
  <g class="com.sun.star.drawing.PolyPolygonShape">
   <g id="id5">
    <rect class="BoundingBox" stroke="none" fill="none" x="85566" y="25245" width="704" height="1012"/>
    <path fill="rgb(255,0,0)" stroke="none" d="M 86269,25295 L 86269,26147 86220,26147 86220,26256 86133,26256 86133,26147 85703,26147 85703,26256 85616,26256 85616,26147 85566,26147 85566,25295 85566,25290 85567,25285 85568,25280 85570,25276 85572,25271 85574,25267 85577,25263 85581,25260 85584,25256 85588,25253 85592,25251 85597,25249 85601,25247 85606,25246 85611,25245 85616,25245 86220,25245 86225,25245 86229,25246 86234,25247 86239,25249 86243,25251 86247,25253 86251,25256 86255,25260 86258,25263 86261,25267 86264,25271 86266,25276 86267,25280 86269,25285 86269,25290 86269,25295 Z"/>
   </g>
  </g>
  <g class="com.sun.star.drawing.PolyPolygonShape">
   <g id="id6">
    <rect class="BoundingBox" stroke="none" fill="none" x="85602" y="25683" width="1435" height="595"/>
    <path fill="rgb(0,0,0)" stroke="none" d="M 86887,25710 L 86973,25895 86937,25891 86900,25888 86863,25884 86826,25882 86790,25880 86753,25879 86716,25878 86679,25878 86642,25878 86604,25879 86567,25880 86531,25882 86494,25884 86457,25888 86420,25891 86384,25895 86470,25710 86887,25710 Z M 86913,26256 L 86445,26256 86445,26143 86913,26143 86913,26256 Z M 86996,26256 L 86981,26256 86981,26143 87005,26143 87011,26127 87015,26111 87020,26094 87024,26078 87028,26061 87031,26044 87034,26028 87036,26011 87036,25948 87036,25940 87034,25932 87032,25923 87028,25916 87026,25912 87024,25910 87021,25907 87018,25905 87015,25903 87012,25902 87009,25900 87005,25900 86904,25684 86453,25684 86352,25900 86348,25900 86345,25902 86342,25903 86339,25905 86336,25907 86333,25910 86331,25912 86329,25916 86325,25923 86323,25932 86321,25940 86321,25948 86321,26011 86323,26028 86326,26044 86329,26061 86333,26078 86337,26094 86341,26111 86346,26127 86352,26143 86376,26143 86376,26256 85603,26256 85603,26277 86996,26277 86996,26256 Z"/>
   </g>
  </g>
 </g>
</svg>