<?xml version="1.0" encoding="UTF-8"?>
<!DOCTYPE svg PUBLIC "-//W3C//DTD SVG 1.1//EN" "http://www.w3.org/Graphics/SVG/1.1/DTD/svg11.dtd">
<svg version="1.2" width="25.39mm" height="25.38mm" viewBox="87981 24482 2539 2538" preserveAspectRatio="xMidYMid" fill-rule="evenodd" stroke-width="28.222" stroke-linejoin="round" xmlns="http://www.w3.org/2000/svg" xmlns:ooo="http://xml.openoffice.org/svg/export" xmlns:xlink="http://www.w3.org/1999/xlink" xmlns:presentation="http://sun.com/xmlns/staroffice/presentation" xmlns:smil="http://www.w3.org/2001/SMIL20/" xmlns:anim="urn:oasis:names:tc:opendocument:xmlns:animation:1.0" xml:space="preserve">
 <defs class="EmbeddedBulletChars">
  <g id="bullet-char-template-57356" transform="scale(0.00048828125,-0.00048828125)">
   <path d="M 580,1141 L 1163,571 580,0 -4,571 580,1141 Z"/>
  </g>
  <g id="bullet-char-template-57354" transform="scale(0.00048828125,-0.00048828125)">
   <path d="M 8,1128 L 1137,1128 1137,0 8,0 8,1128 Z"/>
  </g>
  <g id="bullet-char-template-10146" transform="scale(0.00048828125,-0.00048828125)">
   <path d="M 174,0 L 602,739 174,1481 1456,739 174,0 Z M 1358,739 L 309,1346 659,739 1358,739 Z"/>
  </g>
  <g id="bullet-char-template-10132" transform="scale(0.00048828125,-0.00048828125)">
   <path d="M 2015,739 L 1276,0 717,0 1260,543 174,543 174,936 1260,936 717,1481 1274,1481 2015,739 Z"/>
  </g>
  <g id="bullet-char-template-10007" transform="scale(0.00048828125,-0.00048828125)">
   <path d="M 0,-2 C -7,14 -16,27 -25,37 L 356,567 C 262,823 215,952 215,954 215,979 228,992 255,992 264,992 276,990 289,987 310,991 331,999 354,1012 L 381,999 492,748 772,1049 836,1024 860,1049 C 881,1039 901,1025 922,1006 886,937 835,863 770,784 769,783 710,716 594,584 L 774,223 C 774,196 753,168 711,139 L 727,119 C 717,90 699,76 672,76 641,76 570,178 457,381 L 164,-76 C 142,-110 111,-127 72,-127 30,-127 9,-110 8,-76 1,-67 -2,-52 -2,-32 -2,-23 -1,-13 0,-2 Z"/>
  </g>
  <g id="bullet-char-template-10004" transform="scale(0.00048828125,-0.00048828125)">
   <path d="M 285,-33 C 182,-33 111,30 74,156 52,228 41,333 41,471 41,549 55,616 82,672 116,743 169,778 240,778 293,778 328,747 346,684 L 369,508 C 377,444 397,411 428,410 L 1163,1116 C 1174,1127 1196,1133 1229,1133 1271,1133 1292,1118 1292,1087 L 1292,965 C 1292,929 1282,901 1262,881 L 442,47 C 390,-6 338,-33 285,-33 Z"/>
  </g>
  <g id="bullet-char-template-9679" transform="scale(0.00048828125,-0.00048828125)">
   <path d="M 813,0 C 632,0 489,54 383,161 276,268 223,411 223,592 223,773 276,916 383,1023 489,1130 632,1184 813,1184 992,1184 1136,1130 1245,1023 1353,916 1407,772 1407,592 1407,412 1353,268 1245,161 1136,54 992,0 813,0 Z"/>
  </g>
  <g id="bullet-char-template-8226" transform="scale(0.00048828125,-0.00048828125)">
   <path d="M 346,457 C 273,457 209,483 155,535 101,586 74,649 74,723 74,796 101,859 155,911 209,963 273,989 346,989 419,989 480,963 531,910 582,859 608,796 608,723 608,648 583,586 532,535 482,483 420,457 346,457 Z"/>
  </g>
  <g id="bullet-char-template-8211" transform="scale(0.00048828125,-0.00048828125)">
   <path d="M -4,459 L 1135,459 1135,606 -4,606 -4,459 Z"/>
  </g>
  <g id="bullet-char-template-61548" transform="scale(0.00048828125,-0.00048828125)">
   <path d="M 173,740 C 173,903 231,1043 346,1159 462,1274 601,1332 765,1332 928,1332 1067,1274 1183,1159 1299,1043 1357,903 1357,740 1357,577 1299,437 1183,322 1067,206 928,148 765,148 601,148 462,206 346,322 231,437 173,577 173,740 Z"/>
  </g>
 </defs>
 <g class="Page">
  <g class="com.sun.star.drawing.PolyPolygonShape">
   <g id="id3">
    <rect class="BoundingBox" stroke="none" fill="none" x="87981" y="24482" width="2539" height="2538"/>
    <path fill="rgb(255,255,255)" stroke="none" d="M 90501,25750 L 90501,25719 90500,25688 90498,25658 90495,25627 90492,25596 90488,25566 90483,25536 90477,25506 90471,25476 90464,25446 90456,25416 90447,25387 90438,25357 90428,25328 90417,25300 90406,25271 90394,25243 90381,25215 90368,25187 90353,25160 90339,25133 90323,25107 90307,25081 90290,25055 90273,25030 90255,25005 90237,24980 90217,24956 90198,24933 90177,24910 90156,24888 90135,24866 90113,24844 90090,24823 90067,24803 90044,24783 90020,24764 89996,24745 89971,24728 89945,24710 89920,24693 89894,24677 89867,24662 89840,24647 89813,24633 89785,24620 89757,24607 89729,24595 89701,24583 89672,24573 89643,24563 89614,24553 89584,24545 89555,24537 89525,24530 89495,24523 89465,24518 89434,24513 89404,24509 89373,24505 89343,24503 89312,24501 89281,24500 89251,24500 89220,24500 89189,24501 89159,24503 89128,24505 89098,24509 89067,24513 89037,24518 89007,24523 88977,24530 88947,24537 88917,24545 88888,24553 88859,24563 88830,24573 88801,24583 88772,24595 88743,24607 88715,24620 88688,24633 88660,24647 88634,24662 88607,24677 88581,24693 88555,24710 88530,24728 88505,24745 88481,24764 88457,24783 88433,24803 88410,24823 88388,24844 88366,24866 88344,24888 88323,24910 88303,24933 88283,24956 88264,24980 88245,25005 88228,25030 88210,25055 88193,25081 88177,25107 88162,25133 88147,25160 88133,25187 88119,25215 88107,25243 88095,25271 88083,25300 88073,25328 88063,25357 88053,25387 88045,25416 88037,25446 88030,25476 88023,25506 88018,25536 88013,25566 88009,25596 88005,25627 88003,25658 88001,25688 88000,25719 87999,25750 88000,25780 88001,25811 88003,25841 88005,25872 88009,25903 88013,25933 88018,25963 88023,25993 88030,26023 88037,26053 88045,26083 88053,26112 88063,26142 88073,26171 88083,26199 88095,26228 88107,26257 88119,26285 88133,26313 88147,26340 88162,26367 88177,26393 88193,26419 88210,26445 88228,26470 88245,26495 88264,26520 88283,26544 88303,26567 88323,26590 88344,26612 88366,26634 88388,26656 88410,26677 88433,26697 88457,26717 88481,26736 88505,26755 88530,26772 88555,26790 88581,26807 88607,26823 88634,26838 88660,26853 88688,26867 88715,26880 88743,26893 88772,26905 88801,26917 88830,26927 88859,26937 88888,26947 88917,26955 88947,26963 88977,26970 89007,26977 89037,26982 89067,26987 89098,26991 89128,26995 89159,26997 89189,26999 89220,27000 89251,27001 89281,27000 89312,26999 89343,26997 89373,26995 89404,26991 89434,26987 89465,26982 89495,26977 89525,26970 89555,26963 89584,26955 89614,26947 89643,26937 89672,26927 89701,26917 89729,26905 89757,26893 89785,26880 89813,26867 89840,26853 89867,26838 89894,26823 89920,26807 89945,26790 89971,26772 89996,26755 90020,26736 90044,26717 90067,26697 90090,26677 90113,26656 90135,26634 90156,26612 90177,26590 90198,26567 90217,26544 90237,26520 90255,26495 90273,26470 90290,26445 90307,26419 90323,26393 90339,26367 90353,26340 90368,26313 90381,26285 90394,26257 90406,26228 90417,26199 90428,26171 90438,26142 90447,26112 90456,26083 90464,26053 90471,26023 90477,25993 90483,25963 90488,25933 90492,25903 90495,25872 90498,25841 90500,25811 90501,25780 90501,25750 Z"/>
    <path fill="none" stroke="rgb(0,0,0)" stroke-width="35" stroke-linejoin="miter" stroke-linecap="square" d="M 90501,25750 L 90501,25719 90500,25688 90498,25658 90495,25627 90492,25596 90488,25566 90483,25536 90477,25506 90471,25476 90464,25446 90456,25416 90447,25387 90438,25357 90428,25328 90417,25300 90406,25271 90394,25243 90381,25215 90368,25187 90353,25160 90339,25133 90323,25107 90307,25081 90290,25055 90273,25030 90255,25005 90237,24980 90217,24956 90198,24933 90177,24910 90156,24888 90135,24866 90113,24844 90090,24823 90067,24803 90044,24783 90020,24764 89996,24745 89971,24728 89945,24710 89920,24693 89894,24677 89867,24662 89840,24647 89813,24633 89785,24620 89757,24607 89729,24595 89701,24583 89672,24573 89643,24563 89614,24553 89584,24545 89555,24537 89525,24530 89495,24523 89465,24518 89434,24513 89404,24509 89373,24505 89343,24503 89312,24501 89281,24500 89251,24500 89220,24500 89189,24501 89159,24503 89128,24505 89098,24509 89067,24513 89037,24518 89007,24523 88977,24530 88947,24537 88917,24545 88888,24553 88859,24563 88830,24573 88801,24583 88772,24595 88743,24607 88715,24620 88688,24633 88660,24647 88634,24662 88607,24677 88581,24693 88555,24710 88530,24728 88505,24745 88481,24764 88457,24783 88433,24803 88410,24823 88388,24844 88366,24866 88344,24888 88323,24910 88303,24933 88283,24956 88264,24980 88245,25005 88228,25030 88210,25055 88193,25081 88177,25107 88162,25133 88147,25160 88133,25187 88119,25215 88107,25243 88095,25271 88083,25300 88073,25328 88063,25357 88053,25387 88045,25416 88037,25446 88030,25476 88023,25506 88018,25536 88013,25566 88009,25596 88005,25627 88003,25658 88001,25688 88000,25719 87999,25750 88000,25780 88001,25811 88003,25841 88005,25872 88009,25903 88013,25933 88018,25963 88023,25993 88030,26023 88037,26053 88045,26083 88053,26112 88063,26142 88073,26171 88083,26199 88095,26228 88107,26257 88119,26285 88133,26313 88147,26340 88162,26367 88177,26393 88193,26419 88210,26445 88228,26470 88245,26495 88264,26520 88283,26544 88303,26567 88323,26590 88344,26612 88366,26634 88388,26656 88410,26677 88433,26697 88457,26717 88481,26736 88505,26755 88530,26772 88555,26790 88581,26807 88607,26823 88634,26838 88660,26853 88688,26867 88715,26880 88743,26893 88772,26905 88801,26917 88830,26927 88859,26937 88888,26947 88917,26955 88947,26963 88977,26970 89007,26977 89037,26982 89067,26987 89098,26991 89128,26995 89159,26997 89189,26999 89220,27000 89251,27001 89281,27000 89312,26999 89343,26997 89373,26995 89404,26991 89434,26987 89465,26982 89495,26977 89525,26970 89555,26963 89584,26955 89614,26947 89643,26937 89672,26927 89701,26917 89729,26905 89757,26893 89785,26880 89813,26867 89840,26853 89867,26838 89894,26823 89920,26807 89945,26790 89971,26772 89996,26755 90020,26736 90044,26717 90067,26697 90090,26677 90113,26656 90135,26634 90156,26612 90177,26590 90198,26567 90217,26544 90237,26520 90255,26495 90273,26470 90290,26445 90307,26419 90323,26393 90339,26367 90353,26340 90368,26313 90381,26285 90394,26257 90406,26228 90417,26199 90428,26171 90438,26142 90447,26112 90456,26083 90464,26053 90471,26023 90477,25993 90483,25963 90488,25933 90492,25903 90495,25872 90498,25841 90500,25811 90501,25780 90501,25750 Z"/>
   </g>
  </g>
  <g class="com.sun.star.drawing.PolyPolygonShape">
   <g id="id4">
    <rect class="BoundingBox" stroke="none" fill="none" x="88202" y="25125" width="876" height="1251"/>
    <path fill="rgb(180,180,180)" stroke="none" d="M 88390,26217 L 88468,26217 89077,25610 89077,25185 89076,25179 89076,25173 89074,25167 89072,25162 89070,25156 89067,25151 89063,25147 89059,25142 89055,25138 89050,25135 89045,25132 89040,25129 89034,25127 89028,25126 89022,25125 89016,25125 88285,25125 88279,25125 88273,25126 88267,25127 88262,25129 88256,25132 88251,25135 88247,25138 88242,25142 88238,25147 88235,25151 88232,25156 88229,25162 88227,25167 88226,25173 88225,25179 88225,25185 88225,26217 88285,26217 88285,26349 88202,26349 88202,26375 88310,26375 88390,26296 88390,26217 Z"/>
   </g>
  </g>
  <g class="com.sun.star.drawing.PolyPolygonShape">
   <g id="id5">
    <rect class="BoundingBox" stroke="none" fill="none" x="88223" y="24723" width="2072" height="2071"/>
    <path fill="rgb(0,0,0)" stroke="none" d="M 88560,26793 L 90294,25060 90277,25036 90260,25012 90242,24988 90224,24964 90205,24941 90185,24919 90165,24897 90145,24876 90124,24855 90102,24834 90080,24814 90058,24795 90034,24776 90011,24758 89987,24740 89963,24723 88223,26463 88240,26487 88258,26511 88276,26535 88295,26557 88314,26580 88334,26602 88355,26623 88376,26644 88397,26665 88419,26685 88442,26704 88464,26723 88488,26742 88512,26759 88536,26777 88560,26793 Z"/>
   </g>
  </g>
  <g class="com.sun.star.drawing.PolyPolygonShape">
   <g id="id6">
    <rect class="BoundingBox" stroke="none" fill="none" x="88978" y="25656" width="1305" height="720"/>
    <path fill="rgb(180,180,180)" stroke="none" d="M 90127,26349 L 89561,26349 89561,26212 90127,26212 90127,26349 Z M 89448,26212 L 89478,26212 89478,26349 89015,26349 89015,26338 88978,26375 90282,26375 90282,26349 90210,26349 90210,26212 90239,26212 90246,26192 90252,26172 90257,26152 90262,26133 90266,26112 90270,26092 90274,26072 90276,26051 90277,25976 90276,25965 90274,25955 90271,25945 90267,25936 90265,25932 90262,25929 90259,25926 90255,25923 90251,25921 90247,25919 90243,25918 90239,25917 90116,25656 89698,25656 89666,25688 90096,25688 90200,25911 90156,25906 90112,25902 90067,25898 90022,25895 89978,25893 89933,25892 89888,25891 89844,25890 89799,25891 89754,25891 89710,25893 89665,25895 89620,25898 89576,25902 89531,25906 89487,25911 89526,25828 89459,25895 89449,25917 89444,25918 89440,25919 89436,25921 89432,25923 89429,25926 89425,25929 89423,25932 89420,25936 89416,25945 89413,25955 89411,25965 89411,25976 89411,26051 89414,26072 89417,26092 89421,26112 89425,26133 89430,26152 89436,26172 89442,26192 89448,26212 Z"/>
   </g>
  </g>
 </g>
</svg>