<?xml version="1.0" encoding="UTF-8"?>
<!DOCTYPE svg PUBLIC "-//W3C//DTD SVG 1.1//EN" "http://www.w3.org/Graphics/SVG/1.1/DTD/svg11.dtd">
<svg version="1.2" width="25.39mm" height="25.38mm" viewBox="103031 24482 2539 2538" preserveAspectRatio="xMidYMid" fill-rule="evenodd" stroke-width="28.222" stroke-linejoin="round" xmlns="http://www.w3.org/2000/svg" xmlns:ooo="http://xml.openoffice.org/svg/export" xmlns:xlink="http://www.w3.org/1999/xlink" xmlns:presentation="http://sun.com/xmlns/staroffice/presentation" xmlns:smil="http://www.w3.org/2001/SMIL20/" xmlns:anim="urn:oasis:names:tc:opendocument:xmlns:animation:1.0" xml:space="preserve">
 <defs class="EmbeddedBulletChars">
  <g id="bullet-char-template-57356" transform="scale(0.00048828125,-0.00048828125)">
   <path d="M 580,1141 L 1163,571 580,0 -4,571 580,1141 Z"/>
  </g>
  <g id="bullet-char-template-57354" transform="scale(0.00048828125,-0.00048828125)">
   <path d="M 8,1128 L 1137,1128 1137,0 8,0 8,1128 Z"/>
  </g>
  <g id="bullet-char-template-10146" transform="scale(0.00048828125,-0.00048828125)">
   <path d="M 174,0 L 602,739 174,1481 1456,739 174,0 Z M 1358,739 L 309,1346 659,739 1358,739 Z"/>
  </g>
  <g id="bullet-char-template-10132" transform="scale(0.00048828125,-0.00048828125)">
   <path d="M 2015,739 L 1276,0 717,0 1260,543 174,543 174,936 1260,936 717,1481 1274,1481 2015,739 Z"/>
  </g>
  <g id="bullet-char-template-10007" transform="scale(0.00048828125,-0.00048828125)">
   <path d="M 0,-2 C -7,14 -16,27 -25,37 L 356,567 C 262,823 215,952 215,954 215,979 228,992 255,992 264,992 276,990 289,987 310,991 331,999 354,1012 L 381,999 492,748 772,1049 836,1024 860,1049 C 881,1039 901,1025 922,1006 886,937 835,863 770,784 769,783 710,716 594,584 L 774,223 C 774,196 753,168 711,139 L 727,119 C 717,90 699,76 672,76 641,76 570,178 457,381 L 164,-76 C 142,-110 111,-127 72,-127 30,-127 9,-110 8,-76 1,-67 -2,-52 -2,-32 -2,-23 -1,-13 0,-2 Z"/>
  </g>
  <g id="bullet-char-template-10004" transform="scale(0.00048828125,-0.00048828125)">
   <path d="M 285,-33 C 182,-33 111,30 74,156 52,228 41,333 41,471 41,549 55,616 82,672 116,743 169,778 240,778 293,778 328,747 346,684 L 369,508 C 377,444 397,411 428,410 L 1163,1116 C 1174,1127 1196,1133 1229,1133 1271,1133 1292,1118 1292,1087 L 1292,965 C 1292,929 1282,901 1262,881 L 442,47 C 390,-6 338,-33 285,-33 Z"/>
  </g>
  <g id="bullet-char-template-9679" transform="scale(0.00048828125,-0.00048828125)">
   <path d="M 813,0 C 632,0 489,54 383,161 276,268 223,411 223,592 223,773 276,916 383,1023 489,1130 632,1184 813,1184 992,1184 1136,1130 1245,1023 1353,916 1407,772 1407,592 1407,412 1353,268 1245,161 1136,54 992,0 813,0 Z"/>
  </g>
  <g id="bullet-char-template-8226" transform="scale(0.00048828125,-0.00048828125)">
   <path d="M 346,457 C 273,457 209,483 155,535 101,586 74,649 74,723 74,796 101,859 155,911 209,963 273,989 346,989 419,989 480,963 531,910 582,859 608,796 608,723 608,648 583,586 532,535 482,483 420,457 346,457 Z"/>
  </g>
  <g id="bullet-char-template-8211" transform="scale(0.00048828125,-0.00048828125)">
   <path d="M -4,459 L 1135,459 1135,606 -4,606 -4,459 Z"/>
  </g>
  <g id="bullet-char-template-61548" transform="scale(0.00048828125,-0.00048828125)">
   <path d="M 173,740 C 173,903 231,1043 346,1159 462,1274 601,1332 765,1332 928,1332 1067,1274 1183,1159 1299,1043 1357,903 1357,740 1357,577 1299,437 1183,322 1067,206 928,148 765,148 601,148 462,206 346,322 231,437 173,577 173,740 Z"/>
  </g>
 </defs>
 <g class="Page">
  <g class="com.sun.star.drawing.PolyPolygonShape">
   <g id="id3">
    <rect class="BoundingBox" stroke="none" fill="none" x="103031" y="24482" width="2539" height="2538"/>
    <path fill="rgb(255,255,255)" stroke="none" d="M 105551,25750 L 105551,25719 105549,25688 105548,25658 105545,25627 105541,25596 105537,25566 105532,25536 105527,25506 105520,25476 105513,25446 105506,25416 105497,25387 105488,25357 105478,25328 105467,25300 105456,25271 105444,25243 105431,25215 105417,25187 105403,25160 105388,25133 105373,25107 105357,25081 105340,25055 105323,25030 105305,25005 105286,24980 105267,24956 105247,24933 105227,24910 105206,24888 105185,24866 105163,24844 105140,24823 105117,24803 105094,24783 105070,24764 105045,24745 105021,24728 104995,24710 104969,24693 104943,24677 104917,24662 104890,24647 104863,24633 104835,24620 104807,24607 104779,24595 104751,24583 104722,24573 104693,24563 104663,24553 104634,24545 104604,24537 104574,24530 104544,24523 104514,24518 104484,24513 104454,24509 104423,24505 104393,24503 104362,24501 104331,24500 104301,24500 104270,24500 104239,24501 104208,24503 104178,24505 104147,24509 104117,24513 104087,24518 104057,24523 104027,24530 103997,24537 103967,24545 103938,24553 103908,24563 103879,24573 103851,24583 103822,24595 103794,24607 103766,24620 103737,24633 103710,24647 103683,24662 103657,24677 103631,24693 103605,24710 103580,24728 103555,24745 103530,24764 103506,24783 103483,24803 103460,24823 103437,24844 103415,24866 103394,24888 103373,24910 103353,24933 103333,24956 103314,24980 103295,25005 103277,25030 103260,25055 103243,25081 103227,25107 103212,25133 103197,25160 103183,25187 103169,25215 103156,25243 103144,25271 103133,25300 103122,25328 103112,25357 103103,25387 103095,25416 103087,25446 103080,25476 103073,25506 103068,25536 103063,25566 103059,25596 103055,25627 103053,25658 103051,25688 103049,25719 103049,25750 103049,25780 103051,25811 103053,25841 103055,25872 103059,25903 103063,25933 103068,25963 103073,25993 103080,26023 103087,26053 103095,26083 103103,26112 103112,26142 103122,26171 103133,26199 103144,26228 103156,26257 103169,26285 103183,26313 103197,26340 103212,26367 103227,26393 103243,26419 103260,26445 103277,26470 103295,26495 103314,26520 103333,26544 103353,26567 103373,26590 103394,26612 103415,26634 103437,26656 103460,26677 103483,26697 103506,26717 103530,26736 103555,26755 103580,26772 103605,26790 103631,26807 103657,26823 103683,26838 103710,26853 103737,26867 103766,26880 103794,26893 103822,26905 103851,26917 103879,26927 103908,26937 103938,26947 103967,26955 103997,26963 104027,26970 104057,26977 104087,26982 104117,26987 104147,26991 104178,26995 104208,26997 104239,26999 104270,27000 104300,27001 104331,27000 104362,26999 104393,26997 104423,26995 104454,26991 104484,26987 104514,26982 104544,26977 104574,26970 104604,26963 104634,26955 104663,26947 104693,26937 104722,26927 104751,26917 104779,26905 104807,26893 104835,26880 104863,26867 104890,26853 104917,26838 104943,26823 104969,26807 104995,26790 105021,26772 105045,26755 105070,26736 105094,26717 105117,26697 105140,26677 105163,26656 105185,26634 105206,26612 105227,26590 105247,26567 105267,26544 105286,26520 105305,26495 105323,26470 105340,26445 105357,26419 105373,26393 105388,26367 105403,26340 105417,26313 105431,26285 105444,26257 105456,26228 105467,26199 105478,26171 105488,26142 105497,26112 105506,26083 105513,26053 105520,26023 105527,25993 105532,25963 105537,25933 105541,25903 105545,25872 105548,25841 105549,25811 105551,25780 105551,25750 Z"/>
    <path fill="none" stroke="rgb(0,0,0)" stroke-width="35" stroke-linejoin="miter" stroke-linecap="square" d="M 105551,25750 L 105551,25719 105549,25688 105548,25658 105545,25627 105541,25596 105537,25566 105532,25536 105527,25506 105520,25476 105513,25446 105506,25416 105497,25387 105488,25357 105478,25328 105467,25300 105456,25271 105444,25243 105431,25215 105417,25187 105403,25160 105388,25133 105373,25107 105357,25081 105340,25055 105323,25030 105305,25005 105286,24980 105267,24956 105247,24933 105227,24910 105206,24888 105185,24866 105163,24844 105140,24823 105117,24803 105094,24783 105070,24764 105045,24745 105021,24728 104995,24710 104969,24693 104943,24677 104917,24662 104890,24647 104863,24633 104835,24620 104807,24607 104779,24595 104751,24583 104722,24573 104693,24563 104663,24553 104634,24545 104604,24537 104574,24530 104544,24523 104514,24518 104484,24513 104454,24509 104423,24505 104393,24503 104362,24501 104331,24500 104301,24500 104270,24500 104239,24501 104208,24503 104178,24505 104147,24509 104117,24513 104087,24518 104057,24523 104027,24530 103997,24537 103967,24545 103938,24553 103908,24563 103879,24573 103851,24583 103822,24595 103794,24607 103766,24620 103737,24633 103710,24647 103683,24662 103657,24677 103631,24693 103605,24710 103580,24728 103555,24745 103530,24764 103506,24783 103483,24803 103460,24823 103437,24844 103415,24866 103394,24888 103373,24910 103353,24933 103333,24956 103314,24980 103295,25005 103277,25030 103260,25055 103243,25081 103227,25107 103212,25133 103197,25160 103183,25187 103169,25215 103156,25243 103144,25271 103133,25300 103122,25328 103112,25357 103103,25387 103095,25416 103087,25446 103080,25476 103073,25506 103068,25536 103063,25566 103059,25596 103055,25627 103053,25658 103051,25688 103049,25719 103049,25750 103049,25780 103051,25811 103053,25841 103055,25872 103059,25903 103063,25933 103068,25963 103073,25993 103080,26023 103087,26053 103095,26083 103103,26112 103112,26142 103122,26171 103133,26199 103144,26228 103156,26257 103169,26285 103183,26313 103197,26340 103212,26367 103227,26393 103243,26419 103260,26445 103277,26470 103295,26495 103314,26520 103333,26544 103353,26567 103373,26590 103394,26612 103415,26634 103437,26656 103460,26677 103483,26697 103506,26717 103530,26736 103555,26755 103580,26772 103605,26790 103631,26807 103657,26823 103683,26838 103710,26853 103737,26867 103766,26880 103794,26893 103822,26905 103851,26917 103879,26927 103908,26937 103938,26947 103967,26955 103997,26963 104027,26970 104057,26977 104087,26982 104117,26987 104147,26991 104178,26995 104208,26997 104239,26999 104270,27000 104300,27001 104331,27000 104362,26999 104393,26997 104423,26995 104454,26991 104484,26987 104514,26982 104544,26977 104574,26970 104604,26963 104634,26955 104663,26947 104693,26937 104722,26927 104751,26917 104779,26905 104807,26893 104835,26880 104863,26867 104890,26853 104917,26838 104943,26823 104969,26807 104995,26790 105021,26772 105045,26755 105070,26736 105094,26717 105117,26697 105140,26677 105163,26656 105185,26634 105206,26612 105227,26590 105247,26567 105267,26544 105286,26520 105305,26495 105323,26470 105340,26445 105357,26419 105373,26393 105388,26367 105403,26340 105417,26313 105431,26285 105444,26257 105456,26228 105467,26199 105478,26171 105488,26142 105497,26112 105506,26083 105513,26053 105520,26023 105527,25993 105532,25963 105537,25933 105541,25903 105545,25872 105548,25841 105549,25811 105551,25780 105551,25750 Z"/>
   </g>
  </g>
  <g class="com.sun.star.drawing.PolyPolygonShape">
   <g id="id4">
    <rect class="BoundingBox" stroke="none" fill="none" x="103264" y="24715" width="2073" height="2071"/>
    <path fill="rgb(0,0,0)" stroke="none" d="M 103598,26785 L 105336,25049 105319,25024 105301,25000 105283,24977 105265,24953 105245,24931 105226,24909 105205,24887 105185,24866 105163,24845 105142,24825 105119,24805 105097,24786 105074,24767 105050,24749 105026,24732 105002,24715 103264,26452 103281,26476 103299,26500 103317,26523 103335,26547 103355,26569 103374,26591 103395,26613 103415,26634 103437,26655 103458,26675 103481,26695 103503,26714 103526,26733 103550,26751 103574,26768 103598,26785 Z"/>
   </g>
  </g>
 </g>
</svg>