<?xml version="1.0" encoding="UTF-8"?>
<!DOCTYPE svg PUBLIC "-//W3C//DTD SVG 1.1//EN" "http://www.w3.org/Graphics/SVG/1.1/DTD/svg11.dtd">
<svg version="1.2" width="25.04mm" height="25.02mm" viewBox="106048 24500 2504 2502" preserveAspectRatio="xMidYMid" fill-rule="evenodd" stroke-width="28.222" stroke-linejoin="round" xmlns="http://www.w3.org/2000/svg" xmlns:ooo="http://xml.openoffice.org/svg/export" xmlns:xlink="http://www.w3.org/1999/xlink" xmlns:presentation="http://sun.com/xmlns/staroffice/presentation" xmlns:smil="http://www.w3.org/2001/SMIL20/" xmlns:anim="urn:oasis:names:tc:opendocument:xmlns:animation:1.0" xml:space="preserve">
 <defs class="EmbeddedBulletChars">
  <g id="bullet-char-template-57356" transform="scale(0.00048828125,-0.00048828125)">
   <path d="M 580,1141 L 1163,571 580,0 -4,571 580,1141 Z"/>
  </g>
  <g id="bullet-char-template-57354" transform="scale(0.00048828125,-0.00048828125)">
   <path d="M 8,1128 L 1137,1128 1137,0 8,0 8,1128 Z"/>
  </g>
  <g id="bullet-char-template-10146" transform="scale(0.00048828125,-0.00048828125)">
   <path d="M 174,0 L 602,739 174,1481 1456,739 174,0 Z M 1358,739 L 309,1346 659,739 1358,739 Z"/>
  </g>
  <g id="bullet-char-template-10132" transform="scale(0.00048828125,-0.00048828125)">
   <path d="M 2015,739 L 1276,0 717,0 1260,543 174,543 174,936 1260,936 717,1481 1274,1481 2015,739 Z"/>
  </g>
  <g id="bullet-char-template-10007" transform="scale(0.00048828125,-0.00048828125)">
   <path d="M 0,-2 C -7,14 -16,27 -25,37 L 356,567 C 262,823 215,952 215,954 215,979 228,992 255,992 264,992 276,990 289,987 310,991 331,999 354,1012 L 381,999 492,748 772,1049 836,1024 860,1049 C 881,1039 901,1025 922,1006 886,937 835,863 770,784 769,783 710,716 594,584 L 774,223 C 774,196 753,168 711,139 L 727,119 C 717,90 699,76 672,76 641,76 570,178 457,381 L 164,-76 C 142,-110 111,-127 72,-127 30,-127 9,-110 8,-76 1,-67 -2,-52 -2,-32 -2,-23 -1,-13 0,-2 Z"/>
  </g>
  <g id="bullet-char-template-10004" transform="scale(0.00048828125,-0.00048828125)">
   <path d="M 285,-33 C 182,-33 111,30 74,156 52,228 41,333 41,471 41,549 55,616 82,672 116,743 169,778 240,778 293,778 328,747 346,684 L 369,508 C 377,444 397,411 428,410 L 1163,1116 C 1174,1127 1196,1133 1229,1133 1271,1133 1292,1118 1292,1087 L 1292,965 C 1292,929 1282,901 1262,881 L 442,47 C 390,-6 338,-33 285,-33 Z"/>
  </g>
  <g id="bullet-char-template-9679" transform="scale(0.00048828125,-0.00048828125)">
   <path d="M 813,0 C 632,0 489,54 383,161 276,268 223,411 223,592 223,773 276,916 383,1023 489,1130 632,1184 813,1184 992,1184 1136,1130 1245,1023 1353,916 1407,772 1407,592 1407,412 1353,268 1245,161 1136,54 992,0 813,0 Z"/>
  </g>
  <g id="bullet-char-template-8226" transform="scale(0.00048828125,-0.00048828125)">
   <path d="M 346,457 C 273,457 209,483 155,535 101,586 74,649 74,723 74,796 101,859 155,911 209,963 273,989 346,989 419,989 480,963 531,910 582,859 608,796 608,723 608,648 583,586 532,535 482,483 420,457 346,457 Z"/>
  </g>
  <g id="bullet-char-template-8211" transform="scale(0.00048828125,-0.00048828125)">
   <path d="M -4,459 L 1135,459 1135,606 -4,606 -4,459 Z"/>
  </g>
  <g id="bullet-char-template-61548" transform="scale(0.00048828125,-0.00048828125)">
   <path d="M 173,740 C 173,903 231,1043 346,1159 462,1274 601,1332 765,1332 928,1332 1067,1274 1183,1159 1299,1043 1357,903 1357,740 1357,577 1299,437 1183,322 1067,206 928,148 765,148 601,148 462,206 346,322 231,437 173,577 173,740 Z"/>
  </g>
 </defs>
 <g class="Page">
  <g class="com.sun.star.drawing.PolyPolygonShape">
   <g id="id3">
    <rect class="BoundingBox" stroke="none" fill="none" x="106048" y="24500" width="2504" height="2502"/>
    <path fill="rgb(255,0,0)" stroke="none" d="M 108551,25750 L 108551,25719 108549,25688 108547,25658 108545,25627 108541,25596 108537,25566 108532,25536 108527,25506 108520,25476 108513,25446 108506,25416 108497,25387 108488,25357 108478,25328 108467,25300 108456,25271 108444,25243 108431,25215 108417,25187 108403,25160 108388,25133 108373,25107 108357,25081 108340,25055 108323,25030 108305,25005 108286,24980 108267,24956 108247,24933 108227,24910 108206,24888 108185,24866 108163,24844 108140,24823 108117,24803 108094,24783 108070,24764 108045,24745 108020,24728 107995,24710 107969,24693 107943,24677 107917,24662 107890,24647 107863,24633 107835,24620 107807,24607 107779,24595 107750,24583 107722,24573 107693,24563 107663,24553 107634,24545 107604,24537 107574,24530 107544,24523 107514,24518 107484,24513 107454,24509 107423,24505 107392,24503 107362,24501 107331,24500 107301,24500 107270,24500 107239,24501 107208,24503 107178,24505 107147,24509 107117,24513 107087,24518 107057,24523 107027,24530 106997,24537 106967,24545 106938,24553 106908,24563 106879,24573 106850,24583 106822,24595 106794,24607 106766,24620 106738,24633 106711,24647 106684,24662 106658,24677 106632,24693 106606,24710 106581,24728 106556,24745 106531,24764 106507,24783 106484,24803 106461,24823 106438,24844 106416,24866 106395,24888 106374,24910 106354,24933 106334,24956 106315,24980 106296,25005 106278,25030 106261,25055 106243,25081 106227,25107 106212,25133 106197,25160 106183,25187 106169,25215 106156,25243 106144,25271 106133,25300 106122,25328 106112,25357 106103,25387 106094,25416 106087,25446 106080,25476 106073,25506 106068,25536 106063,25566 106059,25596 106055,25627 106052,25658 106051,25688 106049,25719 106049,25750 106049,25780 106051,25811 106052,25841 106055,25872 106059,25903 106063,25933 106068,25963 106073,25993 106080,26023 106087,26053 106094,26083 106103,26112 106112,26142 106122,26171 106133,26199 106144,26228 106156,26257 106169,26285 106183,26313 106197,26340 106212,26367 106227,26393 106243,26419 106261,26445 106278,26470 106296,26495 106315,26520 106334,26544 106354,26567 106374,26590 106395,26612 106416,26634 106438,26656 106461,26677 106484,26697 106507,26717 106531,26736 106556,26755 106581,26772 106606,26790 106632,26807 106658,26823 106684,26838 106711,26853 106738,26867 106766,26880 106794,26893 106822,26905 106850,26917 106879,26927 106908,26937 106938,26947 106967,26955 106997,26963 107027,26970 107057,26977 107087,26982 107117,26987 107147,26991 107178,26995 107208,26997 107239,26999 107270,27000 107300,27001 107331,27000 107362,26999 107392,26997 107423,26995 107454,26991 107484,26987 107514,26982 107544,26977 107574,26970 107604,26963 107634,26955 107663,26947 107693,26937 107722,26927 107750,26917 107779,26905 107807,26893 107835,26880 107863,26867 107890,26853 107917,26838 107943,26823 107969,26807 107995,26790 108020,26772 108045,26755 108070,26736 108094,26717 108117,26697 108140,26677 108163,26656 108185,26634 108206,26612 108227,26590 108247,26567 108267,26544 108286,26520 108305,26495 108323,26470 108340,26445 108357,26419 108373,26393 108388,26367 108403,26340 108417,26313 108431,26285 108444,26257 108456,26228 108467,26199 108478,26171 108488,26142 108497,26112 108506,26083 108513,26053 108520,26023 108527,25993 108532,25963 108537,25933 108541,25903 108545,25872 108547,25841 108549,25811 108551,25780 108551,25750 Z"/>
   </g>
  </g>
  <g class="com.sun.star.drawing.PolyPolygonShape">
   <g id="id4">
    <rect class="BoundingBox" stroke="none" fill="none" x="106396" y="24847" width="1809" height="1807"/>
    <path fill="rgb(255,255,255)" stroke="none" d="M 108204,25750 L 108203,25727 108202,25705 108201,25683 108199,25661 108197,25639 108194,25617 108190,25595 108186,25573 108182,25552 108176,25530 108171,25509 108165,25487 108158,25466 108151,25445 108143,25425 108135,25404 108126,25384 108117,25363 108107,25344 108097,25324 108086,25305 108075,25285 108063,25267 108051,25248 108039,25230 108026,25212 108012,25194 107998,25177 107984,25160 107970,25143 107954,25127 107939,25111 107923,25096 107907,25081 107890,25066 107873,25052 107856,25038 107838,25024 107820,25011 107802,24999 107784,24987 107765,24975 107746,24964 107726,24953 107706,24943 107687,24933 107666,24924 107646,24915 107626,24907 107605,24899 107584,24892 107563,24886 107541,24880 107520,24874 107498,24869 107477,24864 107454,24860 107432,24856 107410,24854 107388,24851 107366,24849 107344,24848 107322,24847 107299,24847 107277,24847 107255,24848 107233,24849 107211,24851 107189,24854 107167,24856 107145,24860 107123,24864 107102,24869 107080,24874 107059,24880 107037,24886 107016,24892 106995,24899 106974,24907 106954,24915 106933,24924 106913,24933 106894,24943 106874,24953 106854,24964 106835,24975 106816,24987 106798,24999 106780,25011 106762,25024 106744,25038 106727,25052 106710,25066 106693,25081 106677,25096 106661,25111 106645,25127 106630,25143 106616,25160 106601,25177 106588,25194 106574,25212 106561,25230 106549,25248 106537,25267 106525,25285 106514,25305 106503,25324 106493,25344 106483,25363 106474,25384 106465,25404 106457,25425 106449,25445 106442,25466 106435,25487 106429,25509 106424,25530 106418,25552 106414,25573 106410,25595 106406,25617 106403,25639 106401,25661 106399,25683 106397,25705 106397,25727 106396,25750 106397,25772 106397,25794 106399,25816 106401,25838 106403,25860 106406,25882 106410,25904 106414,25926 106418,25947 106424,25969 106429,25990 106435,26012 106442,26033 106449,26054 106457,26074 106465,26095 106474,26115 106483,26136 106493,26155 106503,26176 106514,26195 106525,26215 106537,26233 106549,26252 106561,26270 106574,26288 106588,26306 106601,26323 106616,26340 106630,26357 106645,26373 106661,26389 106677,26404 106693,26419 106710,26434 106727,26448 106744,26462 106762,26476 106780,26489 106798,26501 106816,26513 106835,26525 106854,26536 106874,26547 106894,26557 106913,26567 106933,26576 106954,26585 106974,26593 106995,26601 107016,26608 107037,26614 107059,26620 107080,26626 107102,26631 107123,26636 107145,26640 107167,26644 107189,26646 107211,26649 107233,26651 107255,26652 107277,26653 107299,26653 107322,26653 107344,26652 107366,26651 107388,26649 107410,26646 107432,26644 107454,26640 107477,26636 107498,26631 107520,26626 107541,26620 107563,26614 107584,26608 107605,26601 107626,26593 107646,26585 107666,26576 107687,26567 107706,26557 107726,26547 107746,26536 107765,26525 107784,26513 107802,26501 107820,26489 107838,26476 107856,26462 107873,26448 107890,26434 107907,26419 107923,26404 107939,26389 107954,26373 107970,26357 107984,26340 107998,26323 108012,26306 108026,26288 108039,26270 108051,26252 108063,26233 108075,26215 108086,26195 108097,26176 108107,26155 108117,26136 108126,26115 108135,26095 108143,26074 108151,26054 108158,26033 108165,26012 108171,25990 108176,25969 108182,25947 108186,25926 108190,25904 108194,25882 108197,25860 108199,25838 108201,25816 108202,25794 108203,25772 108204,25750 Z"/>
   </g>
  </g>
  <g class="com.sun.star.drawing.PolyPolygonShape">
   <g id="id5">
    <rect class="BoundingBox" stroke="none" fill="none" x="106858" y="25927" width="887" height="74"/>
    <path fill="rgb(0,0,0)" stroke="none" d="M 107707,25927 L 106894,25927 106890,25927 106887,25928 106883,25929 106880,25930 106877,25931 106874,25933 106871,25935 106868,25938 106866,25940 106864,25943 106862,25946 106861,25949 106859,25953 106858,25957 106858,25961 106858,25964 106858,25968 106858,25971 106859,25975 106861,25978 106862,25981 106864,25984 106866,25987 106868,25990 106871,25992 106874,25994 106877,25996 106880,25998 106883,25999 106887,26000 106890,26000 106894,26000 107707,26000 107710,26000 107714,26000 107717,25999 107721,25998 107724,25996 107727,25994 107730,25992 107732,25990 107735,25987 107737,25984 107739,25981 107740,25978 107741,25975 107742,25971 107743,25968 107743,25964 107743,25961 107742,25957 107741,25953 107740,25949 107739,25946 107737,25943 107735,25940 107732,25938 107730,25935 107727,25933 107724,25931 107721,25930 107717,25929 107714,25928 107710,25927 107707,25927 Z"/>
   </g>
  </g>
  <g class="com.sun.star.drawing.PolyPolygonShape">
   <g id="id6">
    <rect class="BoundingBox" stroke="none" fill="none" x="106894" y="25499" width="246" height="358"/>
    <path fill="rgb(0,0,0)" stroke="none" d="M 106983,25856 L 107049,25856 107049,25559 107139,25559 107139,25499 106894,25499 106894,25559 106983,25559 106983,25856 Z"/>
   </g>
  </g>
  <g class="com.sun.star.drawing.PolyPolygonShape">
   <g id="id7">
    <rect class="BoundingBox" stroke="none" fill="none" x="107180" y="25492" width="247" height="372"/>
    <path fill="rgb(0,0,0)" stroke="none" d="M 107245,25608 L 107245,25747 107246,25753 107247,25758 107248,25764 107250,25769 107252,25774 107255,25779 107258,25783 107262,25787 107266,25791 107271,25794 107276,25797 107281,25800 107287,25801 107292,25803 107298,25804 107303,25804 107309,25804 107314,25803 107320,25801 107325,25800 107330,25797 107335,25794 107339,25791 107343,25787 107347,25783 107350,25779 107353,25774 107356,25769 107358,25764 107359,25758 107360,25753 107360,25747 107360,25608 107360,25603 107359,25597 107358,25592 107356,25587 107353,25582 107350,25577 107347,25572 107343,25568 107339,25565 107335,25561 107330,25558 107325,25556 107320,25554 107314,25553 107309,25552 107303,25552 107298,25552 107292,25553 107287,25554 107281,25556 107276,25558 107271,25561 107266,25565 107262,25568 107258,25572 107255,25577 107252,25582 107250,25587 107248,25592 107247,25597 107246,25603 107245,25608 Z M 107180,25614 L 107180,25741 107181,25753 107183,25765 107186,25777 107190,25788 107195,25799 107201,25809 107208,25819 107216,25828 107225,25835 107234,25843 107245,25849 107256,25854 107267,25858 107278,25861 107291,25863 107303,25863 107315,25863 107327,25861 107339,25858 107350,25854 107361,25849 107371,25843 107381,25835 107390,25828 107397,25819 107405,25809 107411,25799 107416,25788 107420,25777 107423,25765 107425,25753 107425,25741 107425,25614 107425,25602 107423,25591 107420,25579 107416,25568 107411,25557 107405,25547 107397,25537 107390,25528 107381,25520 107371,25513 107361,25507 107350,25502 107339,25498 107327,25495 107315,25493 107303,25492 107291,25493 107278,25495 107267,25498 107256,25502 107245,25507 107234,25513 107225,25520 107216,25528 107208,25537 107201,25547 107195,25557 107190,25568 107186,25579 107183,25591 107181,25602 107180,25614 Z"/>
   </g>
  </g>
  <g class="com.sun.star.drawing.PolyPolygonShape">
   <g id="id8">
    <rect class="BoundingBox" stroke="none" fill="none" x="107503" y="25499" width="205" height="358"/>
    <path fill="rgb(0,0,0)" stroke="none" d="M 107503,25856 L 107707,25856 107707,25797 107568,25797 107568,25499 107503,25499 107503,25856 Z"/>
   </g>
  </g>
 </g>
</svg>