<?xml version="1.0" encoding="UTF-8"?>
<!DOCTYPE svg PUBLIC "-//W3C//DTD SVG 1.1//EN" "http://www.w3.org/Graphics/SVG/1.1/DTD/svg11.dtd">
<svg version="1.2" width="25.03mm" height="25.02mm" viewBox="109049 24500 2503 2502" preserveAspectRatio="xMidYMid" fill-rule="evenodd" stroke-width="28.222" stroke-linejoin="round" xmlns="http://www.w3.org/2000/svg" xmlns:ooo="http://xml.openoffice.org/svg/export" xmlns:xlink="http://www.w3.org/1999/xlink" xmlns:presentation="http://sun.com/xmlns/staroffice/presentation" xmlns:smil="http://www.w3.org/2001/SMIL20/" xmlns:anim="urn:oasis:names:tc:opendocument:xmlns:animation:1.0" xml:space="preserve">
 <defs class="EmbeddedBulletChars">
  <g id="bullet-char-template-57356" transform="scale(0.00048828125,-0.00048828125)">
   <path d="M 580,1141 L 1163,571 580,0 -4,571 580,1141 Z"/>
  </g>
  <g id="bullet-char-template-57354" transform="scale(0.00048828125,-0.00048828125)">
   <path d="M 8,1128 L 1137,1128 1137,0 8,0 8,1128 Z"/>
  </g>
  <g id="bullet-char-template-10146" transform="scale(0.00048828125,-0.00048828125)">
   <path d="M 174,0 L 602,739 174,1481 1456,739 174,0 Z M 1358,739 L 309,1346 659,739 1358,739 Z"/>
  </g>
  <g id="bullet-char-template-10132" transform="scale(0.00048828125,-0.00048828125)">
   <path d="M 2015,739 L 1276,0 717,0 1260,543 174,543 174,936 1260,936 717,1481 1274,1481 2015,739 Z"/>
  </g>
  <g id="bullet-char-template-10007" transform="scale(0.00048828125,-0.00048828125)">
   <path d="M 0,-2 C -7,14 -16,27 -25,37 L 356,567 C 262,823 215,952 215,954 215,979 228,992 255,992 264,992 276,990 289,987 310,991 331,999 354,1012 L 381,999 492,748 772,1049 836,1024 860,1049 C 881,1039 901,1025 922,1006 886,937 835,863 770,784 769,783 710,716 594,584 L 774,223 C 774,196 753,168 711,139 L 727,119 C 717,90 699,76 672,76 641,76 570,178 457,381 L 164,-76 C 142,-110 111,-127 72,-127 30,-127 9,-110 8,-76 1,-67 -2,-52 -2,-32 -2,-23 -1,-13 0,-2 Z"/>
  </g>
  <g id="bullet-char-template-10004" transform="scale(0.00048828125,-0.00048828125)">
   <path d="M 285,-33 C 182,-33 111,30 74,156 52,228 41,333 41,471 41,549 55,616 82,672 116,743 169,778 240,778 293,778 328,747 346,684 L 369,508 C 377,444 397,411 428,410 L 1163,1116 C 1174,1127 1196,1133 1229,1133 1271,1133 1292,1118 1292,1087 L 1292,965 C 1292,929 1282,901 1262,881 L 442,47 C 390,-6 338,-33 285,-33 Z"/>
  </g>
  <g id="bullet-char-template-9679" transform="scale(0.00048828125,-0.00048828125)">
   <path d="M 813,0 C 632,0 489,54 383,161 276,268 223,411 223,592 223,773 276,916 383,1023 489,1130 632,1184 813,1184 992,1184 1136,1130 1245,1023 1353,916 1407,772 1407,592 1407,412 1353,268 1245,161 1136,54 992,0 813,0 Z"/>
  </g>
  <g id="bullet-char-template-8226" transform="scale(0.00048828125,-0.00048828125)">
   <path d="M 346,457 C 273,457 209,483 155,535 101,586 74,649 74,723 74,796 101,859 155,911 209,963 273,989 346,989 419,989 480,963 531,910 582,859 608,796 608,723 608,648 583,586 532,535 482,483 420,457 346,457 Z"/>
  </g>
  <g id="bullet-char-template-8211" transform="scale(0.00048828125,-0.00048828125)">
   <path d="M -4,459 L 1135,459 1135,606 -4,606 -4,459 Z"/>
  </g>
  <g id="bullet-char-template-61548" transform="scale(0.00048828125,-0.00048828125)">
   <path d="M 173,740 C 173,903 231,1043 346,1159 462,1274 601,1332 765,1332 928,1332 1067,1274 1183,1159 1299,1043 1357,903 1357,740 1357,577 1299,437 1183,322 1067,206 928,148 765,148 601,148 462,206 346,322 231,437 173,577 173,740 Z"/>
  </g>
 </defs>
 <g class="Page">
  <g class="com.sun.star.drawing.PolyPolygonShape">
   <g id="id3">
    <rect class="BoundingBox" stroke="none" fill="none" x="109049" y="24500" width="2503" height="2502"/>
    <path fill="rgb(255,0,0)" stroke="none" d="M 111551,25750 L 111551,25719 111549,25688 111548,25658 111545,25627 111541,25596 111537,25566 111532,25536 111527,25506 111520,25476 111513,25446 111506,25416 111497,25387 111488,25357 111478,25328 111467,25300 111456,25271 111444,25243 111431,25215 111417,25187 111403,25160 111388,25133 111373,25107 111357,25081 111340,25055 111323,25030 111305,25005 111286,24980 111267,24956 111246,24933 111226,24910 111205,24888 111184,24866 111162,24844 111139,24823 111116,24803 111093,24783 111069,24764 111044,24745 111020,24728 110994,24710 110968,24693 110942,24677 110916,24662 110889,24647 110862,24633 110834,24620 110806,24607 110778,24595 110750,24583 110721,24573 110692,24563 110662,24553 110633,24545 110603,24537 110573,24530 110543,24523 110513,24518 110483,24513 110453,24509 110422,24505 110392,24503 110361,24501 110330,24500 110300,24500 110269,24500 110238,24501 110208,24503 110177,24505 110146,24509 110116,24513 110086,24518 110056,24523 110026,24530 109996,24537 109966,24545 109937,24553 109907,24563 109878,24573 109850,24583 109821,24595 109793,24607 109765,24620 109737,24633 109710,24647 109683,24662 109657,24677 109631,24693 109605,24710 109580,24728 109555,24745 109530,24764 109506,24783 109483,24803 109460,24823 109437,24844 109415,24866 109394,24888 109373,24910 109353,24933 109333,24956 109314,24980 109295,25005 109277,25030 109260,25055 109243,25081 109227,25107 109212,25133 109197,25160 109183,25187 109169,25215 109156,25243 109144,25271 109133,25300 109122,25328 109112,25357 109103,25387 109094,25416 109087,25446 109080,25476 109073,25506 109068,25536 109063,25566 109059,25596 109055,25627 109053,25658 109051,25688 109049,25719 109049,25750 109049,25780 109051,25811 109053,25841 109055,25872 109059,25903 109063,25933 109068,25963 109073,25993 109080,26023 109087,26053 109094,26083 109103,26112 109112,26142 109122,26171 109133,26199 109144,26228 109156,26257 109169,26285 109183,26313 109197,26340 109212,26367 109227,26393 109243,26419 109260,26445 109277,26470 109295,26495 109314,26520 109333,26544 109353,26567 109373,26590 109394,26612 109415,26634 109437,26656 109460,26677 109483,26697 109506,26717 109530,26736 109555,26755 109580,26772 109605,26790 109631,26807 109657,26823 109683,26838 109710,26853 109737,26867 109765,26880 109793,26893 109821,26905 109850,26917 109878,26927 109907,26937 109937,26947 109966,26955 109996,26963 110026,26970 110056,26977 110086,26982 110116,26987 110146,26991 110177,26995 110208,26997 110238,26999 110269,27000 110299,27001 110330,27000 110361,26999 110392,26997 110422,26995 110453,26991 110483,26987 110513,26982 110543,26977 110573,26970 110603,26963 110633,26955 110662,26947 110692,26937 110721,26927 110750,26917 110778,26905 110806,26893 110834,26880 110862,26867 110889,26853 110916,26838 110942,26823 110968,26807 110994,26790 111020,26772 111044,26755 111069,26736 111093,26717 111116,26697 111139,26677 111162,26656 111184,26634 111205,26612 111226,26590 111246,26567 111267,26544 111286,26520 111305,26495 111323,26470 111340,26445 111357,26419 111373,26393 111388,26367 111403,26340 111417,26313 111431,26285 111444,26257 111456,26228 111467,26199 111478,26171 111488,26142 111497,26112 111506,26083 111513,26053 111520,26023 111527,25993 111532,25963 111537,25933 111541,25903 111545,25872 111548,25841 111549,25811 111551,25780 111551,25750 Z"/>
   </g>
  </g>
  <g class="com.sun.star.drawing.PolyPolygonShape">
   <g id="id4">
    <rect class="BoundingBox" stroke="none" fill="none" x="109396" y="25205" width="1450" height="1449"/>
    <path fill="rgb(255,255,255)" stroke="none" d="M 109579,25206 L 109567,25222 109555,25238 109544,25255 109533,25272 109522,25290 109512,25308 109503,25326 109493,25344 109485,25362 109476,25380 109468,25399 109460,25417 109453,25436 109446,25455 109440,25474 109434,25494 109428,25513 109423,25533 109419,25552 109414,25572 109410,25592 109407,25612 109404,25632 109402,25652 109400,25672 109398,25692 109397,25712 109397,25732 109396,25753 109397,25773 109397,25793 109399,25813 109400,25833 109402,25853 109405,25873 109408,25893 109411,25913 109415,25933 109419,25953 109424,25973 109429,25992 109435,26011 109441,26031 109448,26050 109455,26069 109462,26088 109470,26106 109478,26125 109486,26143 109495,26161 109505,26179 109515,26197 109525,26214 109535,26231 109546,26248 109558,26265 109569,26281 109581,26298 109594,26314 109606,26329 109620,26345 109633,26360 109647,26374 109661,26389 109675,26403 109690,26417 109705,26430 109721,26443 109736,26456 109752,26469 109768,26481 109785,26492 109802,26504 109819,26515 109836,26525 109853,26535 109871,26545 109889,26555 109907,26564 109925,26572 109944,26580 109962,26588 109981,26595 110000,26602 110019,26609 110039,26615 110058,26620 110077,26626 110097,26630 110117,26635 110137,26639 110157,26642 110177,26645 110197,26647 110217,26649 110237,26651 110257,26652 110277,26653 110297,26653 110318,26653 110338,26652 110358,26651 110378,26650 110398,26648 110418,26645 110438,26642 110458,26639 110478,26635 110498,26631 110517,26627 110537,26622 110556,26616 110576,26610 110595,26604 110614,26597 110633,26590 110651,26582 110670,26574 110688,26565 110707,26556 110726,26547 110743,26537 110761,26527 110778,26517 110795,26506 110812,26495 110828,26483 110845,26471 109579,25206 Z"/>
   </g>
  </g>
  <g class="com.sun.star.drawing.PolyPolygonShape">
   <g id="id5">
    <rect class="BoundingBox" stroke="none" fill="none" x="109755" y="24847" width="1450" height="1448"/>
    <path fill="rgb(255,255,255)" stroke="none" d="M 111021,26294 L 109755,25029 109772,25017 109788,25005 109805,24994 109822,24983 109839,24973 109857,24963 109875,24953 109893,24944 109911,24935 109929,24926 109948,24918 109966,24910 109985,24903 110004,24896 110023,24890 110043,24884 110062,24878 110082,24873 110101,24869 110121,24865 110141,24861 110161,24858 110181,24855 110201,24852 110221,24850 110241,24849 110261,24848 110281,24847 110302,24847 110322,24847 110342,24848 110362,24849 110382,24851 110402,24853 110423,24855 110442,24858 110462,24861 110482,24865 110502,24870 110522,24874 110541,24880 110560,24885 110580,24891 110599,24898 110618,24905 110637,24912 110655,24920 110674,24928 110692,24936 110711,24945 110729,24955 110747,24965 110764,24975 110782,24985 110798,24996 110815,25008 110832,25019 110848,25031 110864,25044 110879,25057 110895,25070 110910,25083 110925,25097 110939,25111 110953,25126 110967,25140 110981,25155 110994,25171 111006,25186 111019,25202 111031,25219 111043,25235 111054,25252 111065,25269 111075,25286 111086,25303 111095,25322 111105,25340 111114,25358 111122,25376 111131,25395 111138,25413 111146,25432 111152,25451 111159,25470 111165,25490 111171,25509 111176,25528 111181,25548 111185,25568 111189,25588 111192,25608 111195,25628 111198,25648 111200,25668 111201,25688 111203,25708 111203,25728 111204,25748 111203,25769 111203,25789 111202,25809 111200,25829 111198,25849 111196,25869 111193,25889 111190,25909 111186,25929 111181,25949 111177,25968 111172,25988 111166,26007 111160,26027 111154,26046 111147,26065 111140,26084 111132,26102 111124,26121 111115,26139 111107,26157 111097,26175 111088,26193 111078,26210 111067,26228 111056,26245 111045,26262 111033,26278 111021,26294 Z"/>
   </g>
  </g>
  <g class="com.sun.star.drawing.PolyPolygonShape">
   <g id="id6">
    <rect class="BoundingBox" stroke="none" fill="none" x="110896" y="25777" width="145" height="336"/>
    <path fill="rgb(0,0,0)" stroke="none" d="M 110896,26112 L 110896,25777 110944,25777 110944,26069 111040,26069 111040,26112 110896,26112 Z"/>
   </g>
  </g>
  <g class="com.sun.star.drawing.PolyPolygonShape">
   <g id="id7">
    <rect class="BoundingBox" stroke="none" fill="none" x="109559" y="25772" width="175" height="345"/>
    <path fill="rgb(0,0,0)" stroke="none" d="M 109733,26031 L 109684,26031 109684,26035 109684,26039 109684,26043 109683,26046 109681,26050 109680,26053 109678,26057 109676,26060 109673,26062 109670,26065 109667,26067 109664,26069 109661,26071 109657,26072 109654,26073 109650,26073 109646,26073 109642,26073 109639,26073 109635,26072 109632,26071 109628,26069 109625,26067 109622,26065 109619,26062 109617,26060 109614,26057 109613,26053 109611,26050 109610,26046 109609,26043 109608,26039 109608,26035 109608,25854 109608,25851 109609,25847 109610,25843 109611,25840 109613,25837 109614,25833 109617,25830 109619,25828 109622,25825 109625,25823 109628,25820 109632,25818 109635,25817 109639,25816 109642,25816 109646,25815 109650,25816 109654,25816 109657,25817 109661,25818 109664,25820 109667,25823 109670,25825 109673,25828 109676,25830 109678,25833 109680,25837 109681,25840 109683,25843 109684,25847 109684,25851 109684,25854 109684,25859 109733,25859 109732,25851 109731,25842 109729,25834 109726,25826 109723,25818 109718,25811 109713,25804 109708,25798 109701,25792 109694,25787 109687,25783 109679,25779 109671,25776 109663,25774 109655,25773 109646,25772 109638,25773 109630,25774 109621,25776 109613,25779 109606,25783 109599,25787 109592,25792 109585,25798 109580,25804 109575,25811 109571,25818 109567,25826 109564,25834 109562,25842 109561,25851 109560,25859 109560,26031 109561,26039 109562,26047 109564,26056 109567,26063 109571,26071 109575,26078 109580,26085 109585,26091 109592,26097 109599,26102 109606,26106 109613,26110 109621,26113 109630,26115 109638,26116 109646,26116 109655,26116 109663,26115 109671,26113 109679,26110 109687,26106 109694,26102 109701,26097 109708,26091 109713,26085 109718,26078 109723,26071 109726,26063 109729,26056 109731,26047 109732,26039 109733,26031 Z"/>
   </g>
  </g>
  <g class="com.sun.star.drawing.PolyPolygonShape">
   <g id="id8">
    <rect class="BoundingBox" stroke="none" fill="none" x="110731" y="25277" width="159" height="336"/>
    <path fill="rgb(0,0,0)" stroke="none" d="M 110731,25612 L 110731,25277 110889,25277 110889,25320 110780,25320 110780,25423 110851,25423 110851,25465 110780,25465 110780,25569 110889,25569 110889,25612 110731,25612 Z"/>
   </g>
  </g>
  <g class="com.sun.star.drawing.PolyPolygonShape">
   <g id="id9">
    <rect class="BoundingBox" stroke="none" fill="none" x="109711" y="25340" width="173" height="277"/>
    <path fill="rgb(0,0,0)" stroke="none" d="M 109713,25340 L 109711,25349 109711,25358 109711,25531 109711,25539 109713,25547 109715,25556 109717,25563 109721,25571 109725,25578 109730,25585 109736,25591 109742,25597 109749,25602 109756,25606 109764,25610 109772,25613 109780,25615 109788,25616 109797,25616 109805,25616 109813,25615 109822,25613 109830,25610 109837,25606 109844,25602 109851,25597 109857,25591 109863,25585 109869,25578 109873,25571 109877,25563 109880,25556 109882,25547 109883,25539 109883,25531 109835,25531 109835,25535 109835,25539 109834,25543 109833,25546 109832,25550 109830,25553 109828,25557 109826,25560 109824,25562 109821,25565 109818,25567 109815,25569 109811,25571 109808,25572 109804,25573 109800,25573 109797,25574 109793,25573 109789,25573 109786,25572 109782,25571 109779,25569 109775,25567 109773,25565 109770,25562 109767,25560 109765,25557 109763,25553 109761,25550 109760,25546 109759,25543 109759,25539 109759,25535 109759,25385 109713,25340 Z"/>
   </g>
  </g>
  <g class="com.sun.star.drawing.PolyPolygonShape">
   <g id="id10">
    <rect class="BoundingBox" stroke="none" fill="none" x="110665" y="25772" width="173" height="317"/>
    <path fill="rgb(0,0,0)" stroke="none" d="M 110783,26056 L 110786,26051 110788,26046 110789,26041 110789,26035 110789,25853 110789,25850 110789,25846 110788,25842 110787,25839 110785,25836 110783,25832 110781,25829 110778,25827 110775,25824 110772,25822 110769,25820 110766,25818 110762,25817 110759,25816 110755,25816 110751,25815 110748,25816 110744,25816 110740,25817 110737,25818 110733,25820 110730,25822 110727,25824 110724,25827 110721,25829 110719,25832 110717,25836 110715,25839 110714,25842 110713,25846 110712,25850 110712,25853 110712,25986 110665,25939 110665,25858 110665,25850 110666,25841 110668,25833 110671,25825 110675,25818 110679,25811 110684,25804 110690,25798 110696,25792 110703,25787 110710,25783 110717,25779 110726,25776 110735,25774 110743,25773 110751,25772 110760,25773 110768,25774 110776,25776 110784,25779 110792,25783 110799,25787 110806,25792 110812,25798 110818,25804 110823,25811 110827,25818 110831,25825 110833,25833 110835,25841 110837,25850 110837,25858 110837,26031 110837,26039 110836,26046 110834,26054 110831,26061 110828,26069 110824,26075 110820,26082 110815,26088 110783,26056 Z"/>
   </g>
  </g>
  <g class="com.sun.star.drawing.PolyPolygonShape">
   <g id="id11">
    <rect class="BoundingBox" stroke="none" fill="none" x="110504" y="25777" width="117" height="116"/>
    <path fill="rgb(0,0,0)" stroke="none" d="M 110568,25842 L 110566,25839 110565,25836 110563,25833 110560,25831 110558,25829 110555,25827 110552,25825 110549,25824 110504,25777 110542,25777 110549,25778 110556,25779 110564,25781 110572,25783 110579,25786 110585,25790 110591,25795 110597,25800 110602,25805 110606,25811 110610,25818 110613,25825 110616,25832 110617,25840 110619,25847 110619,25854 110619,25888 110619,25892 110568,25842 Z"/>
   </g>
  </g>
  <g class="com.sun.star.drawing.PolyPolygonShape">
   <g id="id12">
    <rect class="BoundingBox" stroke="none" fill="none" x="110293" y="25920" width="50" height="193"/>
    <path fill="rgb(0,0,0)" stroke="none" d="M 110342,25969 L 110342,26112 110293,26112 110293,25920 110342,25969 Z"/>
   </g>
  </g>
  <g class="com.sun.star.drawing.PolyPolygonShape">
   <g id="id13">
    <rect class="BoundingBox" stroke="none" fill="none" x="110017" y="25777" width="173" height="336"/>
    <path fill="rgb(0,0,0)" stroke="none" d="M 110189,25816 L 110189,26112 110139,26112 110061,25897 110061,26112 110017,26112 110017,25777 110068,25777 110146,25993 110146,25777 110152,25777 110189,25816 Z"/>
   </g>
  </g>
  <g class="com.sun.star.drawing.PolyPolygonShape">
   <g id="id14">
    <rect class="BoundingBox" stroke="none" fill="none" x="109784" y="25772" width="175" height="345"/>
    <path fill="rgb(0,0,0)" stroke="none" d="M 109833,26035 L 109833,25854 109833,25851 109834,25847 109835,25843 109836,25840 109837,25837 109839,25833 109842,25830 109844,25828 109847,25825 109850,25823 109853,25820 109856,25818 109860,25817 109864,25816 109867,25816 109872,25815 109876,25816 109879,25816 109883,25817 109887,25818 109890,25820 109893,25823 109896,25825 109899,25828 109901,25830 109904,25833 109905,25837 109907,25840 109908,25843 109909,25847 109910,25851 109910,25854 109910,26035 109910,26039 109909,26043 109908,26046 109907,26050 109905,26053 109904,26057 109901,26060 109899,26062 109896,26065 109893,26067 109890,26069 109887,26071 109883,26072 109879,26073 109876,26073 109872,26073 109867,26073 109864,26073 109860,26072 109856,26071 109853,26069 109850,26067 109847,26065 109844,26062 109842,26060 109839,26057 109837,26053 109836,26050 109835,26046 109834,26043 109833,26039 109833,26035 Z M 109785,26031 L 109785,25859 109786,25851 109787,25842 109789,25834 109792,25826 109795,25818 109800,25811 109805,25804 109810,25798 109817,25792 109823,25787 109831,25783 109838,25779 109846,25776 109854,25774 109863,25773 109872,25772 109880,25773 109889,25774 109897,25776 109905,25779 109912,25783 109920,25787 109926,25792 109933,25798 109938,25804 109943,25811 109948,25818 109951,25826 109954,25834 109956,25842 109957,25851 109958,25859 109958,26031 109957,26039 109956,26047 109954,26056 109951,26063 109948,26071 109943,26078 109938,26085 109933,26091 109926,26097 109920,26102 109912,26106 109905,26110 109897,26113 109889,26115 109880,26116 109872,26116 109863,26116 109854,26115 109846,26113 109838,26110 109831,26106 109823,26102 109817,26097 109810,26091 109805,26085 109800,26078 109795,26071 109792,26063 109789,26056 109787,26047 109786,26039 109785,26031 Z"/>
   </g>
  </g>
  <g class="com.sun.star.drawing.PolyPolygonShape">
   <g id="id15">
    <rect class="BoundingBox" stroke="none" fill="none" x="110500" y="25272" width="173" height="345"/>
    <path fill="rgb(0,0,0)" stroke="none" d="M 110500,25516 L 110500,25531 110500,25536 110500,25541 110501,25546 110502,25551 110504,25557 110505,25562 110508,25566 110510,25571 110512,25576 110515,25580 110519,25584 110522,25588 110526,25592 110529,25596 110534,25599 110538,25602 110542,25605 110547,25607 110553,25610 110558,25611 110563,25613 110568,25614 110573,25615 110578,25616 110583,25616 110589,25616 110594,25616 110599,25615 110604,25615 110609,25613 110614,25612 110619,25610 110624,25608 110629,25605 110633,25602 110638,25599 110642,25596 110646,25593 110649,25589 110653,25585 110656,25581 110659,25577 110662,25572 110664,25567 110666,25563 110668,25558 110669,25553 110671,25547 110671,25542 110672,25537 110672,25532 110672,25526 110672,25521 110671,25516 110670,25511 110669,25506 110667,25501 110665,25496 110663,25491 110660,25487 110657,25482 110654,25477 110651,25473 110647,25469 110563,25377 110560,25374 110558,25371 110556,25367 110555,25363 110554,25359 110553,25355 110553,25351 110554,25347 110555,25343 110556,25339 110558,25336 110561,25332 110563,25329 110567,25327 110570,25325 110574,25323 110578,25321 110582,25321 110586,25320 110590,25320 110594,25321 110598,25322 110601,25324 110605,25326 110608,25328 110611,25331 110614,25334 110616,25338 110618,25341 110619,25345 110620,25349 110620,25353 110667,25353 110667,25344 110665,25334 110662,25324 110658,25315 110653,25307 110647,25299 110639,25292 110632,25286 110623,25281 110614,25277 110604,25274 110594,25273 110585,25272 110575,25273 110565,25275 110556,25279 110546,25283 110537,25289 110530,25295 110523,25302 110517,25310 110512,25319 110508,25328 110506,25338 110505,25347 110505,25358 110506,25367 110508,25377 110511,25386 110516,25395 110522,25403 110528,25411 110613,25504 110617,25507 110619,25511 110621,25515 110623,25520 110624,25524 110624,25529 110624,25533 110624,25538 110623,25543 110621,25547 110619,25551 110616,25555 110613,25558 110609,25561 110605,25564 110601,25566 110597,25567 110592,25568 110587,25569 110583,25569 110578,25568 110574,25566 110569,25565 110565,25562 110562,25559 110558,25556 110555,25553 110553,25549 110550,25544 110549,25540 110548,25535 110547,25531 110547,25516 110500,25516 Z"/>
   </g>
  </g>
  <g class="com.sun.star.drawing.PolyPolygonShape">
   <g id="id16">
    <rect class="BoundingBox" stroke="none" fill="none" x="110392" y="25277" width="50" height="336"/>
    <path fill="rgb(0,0,0)" stroke="none" d="M 110392,25612 L 110441,25612 110441,25277 110392,25277 110392,25612 Z"/>
   </g>
  </g>
  <g class="com.sun.star.drawing.PolyPolygonShape">
   <g id="id17">
    <rect class="BoundingBox" stroke="none" fill="none" x="110156" y="25277" width="51" height="203"/>
    <path fill="rgb(0,0,0)" stroke="none" d="M 110157,25431 L 110157,25277 110206,25277 110206,25479 110157,25431 Z"/>
   </g>
  </g>
  <g class="com.sun.star.drawing.PolyPolygonShape">
   <g id="id18">
    <rect class="BoundingBox" stroke="none" fill="none" x="109942" y="25569" width="44" height="44"/>
    <path fill="rgb(0,0,0)" stroke="none" d="M 109985,25612 L 109942,25612 109942,25569 109985,25612 Z"/>
   </g>
  </g>
  <g class="com.sun.star.drawing.PolyPolygonShape">
   <g id="id19">
    <rect class="BoundingBox" stroke="none" fill="none" x="110277" y="25277" width="54" height="308"/>
    <path fill="rgb(0,0,0)" stroke="none" d="M 110277,25552 L 110279,25548 110280,25544 110281,25540 110281,25535 110281,25277 110330,25277 110330,25531 110329,25538 110329,25545 110327,25552 110325,25559 110322,25566 110319,25572 110315,25578 110311,25584 110277,25552 Z"/>
   </g>
  </g>
  <g class="com.sun.star.drawing.PolyPolygonShape">
   <g id="id20">
    <rect class="BoundingBox" stroke="none" fill="none" x="110446" y="26073" width="40" height="40"/>
    <path fill="rgb(0,0,0)" stroke="none" d="M 110485,26112 L 110446,26112 110446,26073 110485,26112 Z"/>
   </g>
  </g>
  <g class="com.sun.star.drawing.PolyPolygonShape">
   <g id="id21">
    <rect class="BoundingBox" stroke="none" fill="none" x="110004" y="25277" width="112" height="112"/>
    <path fill="rgb(0,0,0)" stroke="none" d="M 110115,25388 L 110115,25354 110115,25347 110114,25339 110112,25331 110109,25324 110106,25318 110102,25311 110098,25305 110093,25300 110087,25295 110081,25290 110075,25286 110068,25283 110061,25281 110053,25279 110046,25278 110039,25277 110004,25277 110115,25388 Z"/>
   </g>
  </g>
 </g>
</svg>