<?xml version="1.0" encoding="UTF-8"?>
<!DOCTYPE svg PUBLIC "-//W3C//DTD SVG 1.1//EN" "http://www.w3.org/Graphics/SVG/1.1/DTD/svg11.dtd">
<svg version="1.2" width="25.39mm" height="25.38mm" viewBox="112031 24482 2539 2538" preserveAspectRatio="xMidYMid" fill-rule="evenodd" stroke-width="28.222" stroke-linejoin="round" xmlns="http://www.w3.org/2000/svg" xmlns:ooo="http://xml.openoffice.org/svg/export" xmlns:xlink="http://www.w3.org/1999/xlink" xmlns:presentation="http://sun.com/xmlns/staroffice/presentation" xmlns:smil="http://www.w3.org/2001/SMIL20/" xmlns:anim="urn:oasis:names:tc:opendocument:xmlns:animation:1.0" xml:space="preserve">
 <defs class="EmbeddedBulletChars">
  <g id="bullet-char-template-57356" transform="scale(0.00048828125,-0.00048828125)">
   <path d="M 580,1141 L 1163,571 580,0 -4,571 580,1141 Z"/>
  </g>
  <g id="bullet-char-template-57354" transform="scale(0.00048828125,-0.00048828125)">
   <path d="M 8,1128 L 1137,1128 1137,0 8,0 8,1128 Z"/>
  </g>
  <g id="bullet-char-template-10146" transform="scale(0.00048828125,-0.00048828125)">
   <path d="M 174,0 L 602,739 174,1481 1456,739 174,0 Z M 1358,739 L 309,1346 659,739 1358,739 Z"/>
  </g>
  <g id="bullet-char-template-10132" transform="scale(0.00048828125,-0.00048828125)">
   <path d="M 2015,739 L 1276,0 717,0 1260,543 174,543 174,936 1260,936 717,1481 1274,1481 2015,739 Z"/>
  </g>
  <g id="bullet-char-template-10007" transform="scale(0.00048828125,-0.00048828125)">
   <path d="M 0,-2 C -7,14 -16,27 -25,37 L 356,567 C 262,823 215,952 215,954 215,979 228,992 255,992 264,992 276,990 289,987 310,991 331,999 354,1012 L 381,999 492,748 772,1049 836,1024 860,1049 C 881,1039 901,1025 922,1006 886,937 835,863 770,784 769,783 710,716 594,584 L 774,223 C 774,196 753,168 711,139 L 727,119 C 717,90 699,76 672,76 641,76 570,178 457,381 L 164,-76 C 142,-110 111,-127 72,-127 30,-127 9,-110 8,-76 1,-67 -2,-52 -2,-32 -2,-23 -1,-13 0,-2 Z"/>
  </g>
  <g id="bullet-char-template-10004" transform="scale(0.00048828125,-0.00048828125)">
   <path d="M 285,-33 C 182,-33 111,30 74,156 52,228 41,333 41,471 41,549 55,616 82,672 116,743 169,778 240,778 293,778 328,747 346,684 L 369,508 C 377,444 397,411 428,410 L 1163,1116 C 1174,1127 1196,1133 1229,1133 1271,1133 1292,1118 1292,1087 L 1292,965 C 1292,929 1282,901 1262,881 L 442,47 C 390,-6 338,-33 285,-33 Z"/>
  </g>
  <g id="bullet-char-template-9679" transform="scale(0.00048828125,-0.00048828125)">
   <path d="M 813,0 C 632,0 489,54 383,161 276,268 223,411 223,592 223,773 276,916 383,1023 489,1130 632,1184 813,1184 992,1184 1136,1130 1245,1023 1353,916 1407,772 1407,592 1407,412 1353,268 1245,161 1136,54 992,0 813,0 Z"/>
  </g>
  <g id="bullet-char-template-8226" transform="scale(0.00048828125,-0.00048828125)">
   <path d="M 346,457 C 273,457 209,483 155,535 101,586 74,649 74,723 74,796 101,859 155,911 209,963 273,989 346,989 419,989 480,963 531,910 582,859 608,796 608,723 608,648 583,586 532,535 482,483 420,457 346,457 Z"/>
  </g>
  <g id="bullet-char-template-8211" transform="scale(0.00048828125,-0.00048828125)">
   <path d="M -4,459 L 1135,459 1135,606 -4,606 -4,459 Z"/>
  </g>
  <g id="bullet-char-template-61548" transform="scale(0.00048828125,-0.00048828125)">
   <path d="M 173,740 C 173,903 231,1043 346,1159 462,1274 601,1332 765,1332 928,1332 1067,1274 1183,1159 1299,1043 1357,903 1357,740 1357,577 1299,437 1183,322 1067,206 928,148 765,148 601,148 462,206 346,322 231,437 173,577 173,740 Z"/>
  </g>
 </defs>
 <g class="Page">
  <g class="com.sun.star.drawing.PolyPolygonShape">
   <g id="id3">
    <rect class="BoundingBox" stroke="none" fill="none" x="112031" y="24482" width="2539" height="2538"/>
    <path fill="rgb(255,255,255)" stroke="none" d="M 114551,25750 L 114551,25719 114549,25688 114547,25658 114545,25627 114541,25596 114537,25566 114532,25536 114527,25506 114520,25476 114513,25446 114506,25416 114497,25387 114488,25357 114478,25328 114467,25300 114456,25271 114444,25243 114431,25215 114417,25187 114403,25160 114388,25133 114373,25107 114357,25081 114340,25055 114323,25030 114305,25005 114286,24980 114267,24956 114247,24933 114227,24910 114206,24888 114185,24866 114163,24844 114140,24823 114117,24803 114094,24783 114070,24764 114045,24745 114020,24728 113995,24710 113969,24693 113943,24677 113917,24662 113890,24647 113863,24633 113835,24620 113807,24607 113779,24595 113751,24583 113721,24573 113692,24563 113662,24553 113633,24545 113603,24537 113573,24530 113543,24523 113513,24518 113483,24513 113453,24509 113422,24505 113391,24503 113361,24501 113330,24500 113300,24500 113269,24500 113238,24501 113208,24503 113177,24505 113146,24509 113116,24513 113086,24518 113056,24523 113026,24530 112996,24537 112966,24545 112937,24553 112907,24563 112878,24573 112850,24583 112821,24595 112793,24607 112765,24620 112737,24633 112710,24647 112683,24662 112657,24677 112631,24693 112605,24710 112580,24728 112555,24745 112530,24764 112506,24783 112483,24803 112460,24823 112437,24844 112415,24866 112394,24888 112373,24910 112353,24933 112333,24956 112314,24980 112295,25005 112277,25030 112260,25055 112243,25081 112227,25107 112212,25133 112197,25160 112183,25187 112169,25215 112156,25243 112144,25271 112133,25300 112122,25328 112112,25357 112103,25387 112094,25416 112087,25446 112080,25476 112073,25506 112068,25536 112063,25566 112059,25596 112055,25627 112053,25658 112051,25688 112049,25719 112049,25750 112049,25780 112051,25811 112053,25841 112055,25872 112059,25903 112063,25933 112068,25963 112073,25993 112080,26023 112087,26053 112094,26083 112103,26112 112112,26142 112122,26171 112133,26199 112144,26228 112156,26257 112169,26285 112183,26313 112197,26340 112212,26367 112227,26393 112243,26419 112260,26445 112277,26470 112295,26495 112314,26520 112333,26544 112353,26567 112373,26590 112394,26612 112415,26634 112437,26656 112460,26677 112483,26697 112506,26717 112530,26736 112555,26755 112580,26772 112605,26790 112631,26807 112657,26823 112683,26838 112710,26853 112737,26867 112765,26880 112793,26893 112821,26905 112850,26917 112878,26927 112907,26937 112937,26947 112966,26955 112996,26963 113026,26970 113056,26977 113086,26982 113116,26987 113146,26991 113177,26995 113208,26997 113238,26999 113269,27000 113299,27001 113330,27000 113361,26999 113391,26997 113422,26995 113453,26991 113483,26987 113513,26982 113543,26977 113573,26970 113603,26963 113633,26955 113662,26947 113692,26937 113721,26927 113751,26917 113779,26905 113807,26893 113835,26880 113863,26867 113890,26853 113917,26838 113943,26823 113969,26807 113995,26790 114020,26772 114045,26755 114070,26736 114094,26717 114117,26697 114140,26677 114163,26656 114185,26634 114206,26612 114227,26590 114247,26567 114267,26544 114286,26520 114305,26495 114323,26470 114340,26445 114357,26419 114373,26393 114388,26367 114403,26340 114417,26313 114431,26285 114444,26257 114456,26228 114467,26199 114478,26171 114488,26142 114497,26112 114506,26083 114513,26053 114520,26023 114527,25993 114532,25963 114537,25933 114541,25903 114545,25872 114547,25841 114549,25811 114551,25780 114551,25750 Z"/>
    <path fill="none" stroke="rgb(0,0,0)" stroke-width="35" stroke-linejoin="miter" stroke-linecap="square" d="M 114551,25750 L 114551,25719 114549,25688 114547,25658 114545,25627 114541,25596 114537,25566 114532,25536 114527,25506 114520,25476 114513,25446 114506,25416 114497,25387 114488,25357 114478,25328 114467,25300 114456,25271 114444,25243 114431,25215 114417,25187 114403,25160 114388,25133 114373,25107 114357,25081 114340,25055 114323,25030 114305,25005 114286,24980 114267,24956 114247,24933 114227,24910 114206,24888 114185,24866 114163,24844 114140,24823 114117,24803 114094,24783 114070,24764 114045,24745 114020,24728 113995,24710 113969,24693 113943,24677 113917,24662 113890,24647 113863,24633 113835,24620 113807,24607 113779,24595 113751,24583 113721,24573 113692,24563 113662,24553 113633,24545 113603,24537 113573,24530 113543,24523 113513,24518 113483,24513 113453,24509 113422,24505 113391,24503 113361,24501 113330,24500 113300,24500 113269,24500 113238,24501 113208,24503 113177,24505 113146,24509 113116,24513 113086,24518 113056,24523 113026,24530 112996,24537 112966,24545 112937,24553 112907,24563 112878,24573 112850,24583 112821,24595 112793,24607 112765,24620 112737,24633 112710,24647 112683,24662 112657,24677 112631,24693 112605,24710 112580,24728 112555,24745 112530,24764 112506,24783 112483,24803 112460,24823 112437,24844 112415,24866 112394,24888 112373,24910 112353,24933 112333,24956 112314,24980 112295,25005 112277,25030 112260,25055 112243,25081 112227,25107 112212,25133 112197,25160 112183,25187 112169,25215 112156,25243 112144,25271 112133,25300 112122,25328 112112,25357 112103,25387 112094,25416 112087,25446 112080,25476 112073,25506 112068,25536 112063,25566 112059,25596 112055,25627 112053,25658 112051,25688 112049,25719 112049,25750 112049,25780 112051,25811 112053,25841 112055,25872 112059,25903 112063,25933 112068,25963 112073,25993 112080,26023 112087,26053 112094,26083 112103,26112 112112,26142 112122,26171 112133,26199 112144,26228 112156,26257 112169,26285 112183,26313 112197,26340 112212,26367 112227,26393 112243,26419 112260,26445 112277,26470 112295,26495 112314,26520 112333,26544 112353,26567 112373,26590 112394,26612 112415,26634 112437,26656 112460,26677 112483,26697 112506,26717 112530,26736 112555,26755 112580,26772 112605,26790 112631,26807 112657,26823 112683,26838 112710,26853 112737,26867 112765,26880 112793,26893 112821,26905 112850,26917 112878,26927 112907,26937 112937,26947 112966,26955 112996,26963 113026,26970 113056,26977 113086,26982 113116,26987 113146,26991 113177,26995 113208,26997 113238,26999 113269,27000 113299,27001 113330,27000 113361,26999 113391,26997 113422,26995 113453,26991 113483,26987 113513,26982 113543,26977 113573,26970 113603,26963 113633,26955 113662,26947 113692,26937 113721,26927 113751,26917 113779,26905 113807,26893 113835,26880 113863,26867 113890,26853 113917,26838 113943,26823 113969,26807 113995,26790 114020,26772 114045,26755 114070,26736 114094,26717 114117,26697 114140,26677 114163,26656 114185,26634 114206,26612 114227,26590 114247,26567 114267,26544 114286,26520 114305,26495 114323,26470 114340,26445 114357,26419 114373,26393 114388,26367 114403,26340 114417,26313 114431,26285 114444,26257 114456,26228 114467,26199 114478,26171 114488,26142 114497,26112 114506,26083 114513,26053 114520,26023 114527,25993 114532,25963 114537,25933 114541,25903 114545,25872 114547,25841 114549,25811 114551,25780 114551,25750 Z"/>
   </g>
  </g>
  <g class="com.sun.star.drawing.PolyPolygonShape">
   <g id="id4">
    <rect class="BoundingBox" stroke="none" fill="none" x="114193" y="25776" width="218" height="503"/>
    <path fill="rgb(180,180,180)" stroke="none" d="M 114194,26278 L 114194,25777 114266,25777 114266,26213 114410,26213 114410,26278 114194,26278 Z"/>
   </g>
  </g>
  <g class="com.sun.star.drawing.PolyPolygonShape">
   <g id="id5">
    <rect class="BoundingBox" stroke="none" fill="none" x="112191" y="25770" width="259" height="516"/>
    <path fill="rgb(180,180,180)" stroke="none" d="M 112449,26157 L 112377,26157 112377,26164 112376,26170 112375,26175 112374,26181 112372,26186 112370,26191 112367,26196 112364,26200 112360,26204 112356,26208 112351,26212 112346,26214 112341,26217 112336,26219 112331,26220 112325,26221 112319,26221 112314,26221 112308,26220 112303,26219 112298,26217 112293,26214 112288,26212 112283,26208 112279,26204 112275,26200 112272,26196 112269,26191 112267,26186 112265,26181 112263,26175 112263,26170 112262,26164 112262,25892 112263,25886 112263,25880 112265,25875 112267,25870 112269,25865 112272,25860 112275,25855 112279,25851 112283,25847 112288,25844 112293,25841 112298,25839 112303,25837 112308,25836 112314,25835 112319,25834 112325,25835 112331,25836 112336,25837 112341,25839 112346,25841 112351,25844 112356,25847 112360,25851 112364,25855 112367,25860 112370,25865 112372,25870 112374,25875 112375,25880 112376,25886 112377,25892 112377,25899 112449,25899 112449,25892 112448,25886 112448,25880 112447,25874 112445,25867 112443,25861 112442,25855 112439,25850 112436,25844 112433,25838 112430,25833 112426,25827 112423,25822 112419,25817 112415,25812 112410,25808 112406,25804 112401,25799 112396,25795 112391,25792 112386,25788 112380,25785 112374,25783 112369,25780 112363,25778 112357,25776 112351,25774 112344,25773 112338,25772 112332,25771 112326,25770 112319,25770 112313,25770 112307,25771 112300,25772 112294,25773 112288,25774 112282,25776 112276,25778 112270,25780 112264,25783 112259,25785 112253,25788 112248,25792 112243,25795 112238,25799 112233,25804 112229,25808 112224,25812 112220,25817 112216,25822 112212,25827 112209,25833 112206,25838 112203,25844 112201,25850 112198,25855 112196,25861 112195,25867 112193,25874 112192,25880 112191,25886 112191,25892 112191,25899 112191,26157 112191,26163 112191,26169 112192,26176 112193,26182 112195,26188 112196,26194 112198,26200 112201,26206 112203,26212 112206,26217 112209,26223 112212,26228 112216,26233 112220,26238 112224,26243 112229,26248 112233,26252 112238,26256 112243,26260 112248,26264 112253,26267 112259,26270 112264,26273 112270,26276 112276,26278 112282,26280 112288,26282 112294,26283 112300,26284 112307,26285 112313,26285 112319,26285 112326,26285 112332,26285 112338,26284 112344,26283 112351,26282 112357,26280 112363,26278 112369,26276 112374,26273 112380,26270 112386,26267 112391,26264 112396,26260 112401,26256 112406,26252 112410,26248 112415,26243 112419,26238 112423,26233 112426,26228 112430,26223 112433,26217 112436,26212 112439,26206 112442,26200 112443,26194 112445,26188 112447,26182 112448,26176 112448,26169 112449,26163 112449,26157 Z"/>
   </g>
  </g>
  <g class="com.sun.star.drawing.PolyPolygonShape">
   <g id="id6">
    <rect class="BoundingBox" stroke="none" fill="none" x="112264" y="24715" width="2073" height="2071"/>
    <path fill="rgb(0,0,0)" stroke="none" d="M 112598,26785 L 114336,25049 114319,25024 114301,25000 114283,24977 114264,24953 114245,24931 114226,24909 114205,24887 114185,24866 114163,24845 114142,24825 114119,24805 114097,24786 114074,24767 114050,24749 114026,24732 114002,24715 112264,26452 112281,26476 112299,26500 112317,26523 112335,26547 112355,26569 112374,26591 112395,26613 112415,26634 112437,26655 112458,26675 112481,26695 112503,26714 112526,26733 112550,26751 112574,26768 112598,26785 Z"/>
   </g>
  </g>
  <g class="com.sun.star.drawing.PolyPolygonShape">
   <g id="id7">
    <rect class="BoundingBox" stroke="none" fill="none" x="113847" y="25770" width="259" height="516"/>
    <path fill="rgb(180,180,180)" stroke="none" d="M 113919,26164 L 113919,25892 113919,25886 113920,25880 113921,25875 113923,25870 113925,25865 113928,25860 113932,25855 113935,25851 113939,25847 113944,25844 113949,25841 113954,25839 113959,25837 113964,25836 113970,25835 113976,25834 113982,25835 113988,25836 113993,25837 113998,25839 114004,25841 114008,25844 114013,25847 114017,25851 114021,25855 114024,25860 114027,25865 114029,25870 114031,25875 114033,25880 114033,25886 114034,25892 114034,26164 114033,26170 114033,26175 114031,26181 114029,26186 114027,26191 114024,26196 114021,26200 114017,26204 114013,26208 114008,26212 114004,26214 113998,26217 113993,26219 113988,26220 113982,26221 113976,26221 113970,26221 113964,26220 113959,26219 113954,26217 113949,26214 113944,26212 113939,26208 113935,26204 113932,26200 113928,26196 113925,26191 113923,26186 113921,26181 113920,26175 113919,26170 113919,26164 Z M 113847,26157 L 113847,25899 113847,25892 113848,25886 113848,25880 113849,25874 113851,25867 113853,25861 113855,25855 113857,25850 113859,25844 113862,25838 113865,25833 113869,25827 113872,25822 113876,25817 113880,25812 113885,25808 113889,25804 113894,25799 113899,25795 113904,25792 113909,25788 113915,25785 113921,25783 113927,25780 113932,25778 113938,25776 113944,25774 113951,25773 113957,25772 113963,25771 113969,25770 113976,25770 113983,25770 113989,25771 113996,25772 114002,25773 114008,25774 114014,25776 114020,25778 114026,25780 114032,25783 114037,25785 114043,25788 114048,25792 114053,25795 114058,25799 114063,25804 114067,25808 114072,25812 114076,25817 114080,25822 114084,25827 114087,25833 114090,25838 114093,25844 114095,25850 114098,25855 114100,25861 114101,25867 114103,25874 114104,25880 114105,25886 114105,25892 114105,25899 114105,26157 114105,26163 114105,26169 114104,26176 114103,26182 114101,26188 114100,26194 114098,26200 114095,26206 114093,26212 114090,26217 114087,26223 114084,26228 114080,26233 114076,26238 114072,26243 114067,26248 114063,26252 114058,26256 114053,26260 114048,26264 114043,26267 114037,26270 114032,26273 114026,26276 114020,26278 114014,26280 114008,26282 114002,26283 113996,26284 113989,26285 113983,26285 113976,26285 113969,26285 113963,26285 113957,26284 113951,26283 113944,26282 113938,26280 113932,26278 113927,26276 113921,26273 113915,26270 113909,26267 113904,26264 113899,26260 113894,26256 113889,26252 113885,26248 113880,26243 113876,26238 113872,26233 113869,26228 113865,26223 113862,26217 113859,26212 113857,26206 113855,26200 113853,26194 113851,26188 113849,26182 113848,26176 113848,26169 113847,26163 113847,26157 Z"/>
   </g>
  </g>
  <g class="com.sun.star.drawing.PolyPolygonShape">
   <g id="id8">
    <rect class="BoundingBox" stroke="none" fill="none" x="113520" y="25776" width="269" height="503"/>
    <path fill="rgb(180,180,180)" stroke="none" d="M 113591,25842 L 113657,25842 113661,25842 113666,25843 113671,25844 113676,25845 113680,25847 113684,25850 113688,25853 113692,25856 113695,25860 113698,25864 113701,25868 113703,25872 113704,25877 113706,25882 113706,25887 113706,25892 113706,25942 113706,25947 113706,25951 113704,25956 113703,25961 113701,25965 113698,25969 113695,25973 113692,25977 113688,25980 113684,25983 113680,25986 113676,25988 113671,25989 113666,25991 113661,25991 113657,25992 113591,25992 113591,25842 Z M 113606,25777 L 113664,25777 113675,25778 113686,25780 113697,25782 113707,25786 113718,25791 113727,25797 113736,25803 113744,25811 113752,25819 113759,25828 113765,25838 113769,25848 113773,25858 113776,25869 113778,25880 113778,25892 113778,25942 113778,25951 113776,25961 113774,25971 113771,25980 113768,25989 113763,25998 113758,26007 113752,26014 113745,26022 113738,26029 113730,26034 113722,26040 113713,26045 113704,26048 113695,26052 113685,26054 113788,26278 113709,26278 113607,26056 113591,26056 113591,26278 113520,26278 113520,25863 113606,25777 Z"/>
   </g>
  </g>
  <g class="com.sun.star.drawing.PolyPolygonShape">
   <g id="id9">
    <rect class="BoundingBox" stroke="none" fill="none" x="113289" y="26021" width="75" height="258"/>
    <path fill="rgb(180,180,180)" stroke="none" d="M 113363,26021 L 113363,26278 113290,26278 113290,26092 113363,26021 Z"/>
   </g>
  </g>
  <g class="com.sun.star.drawing.PolyPolygonShape">
   <g id="id10">
    <rect class="BoundingBox" stroke="none" fill="none" x="113106" y="26250" width="28" height="29"/>
    <path fill="rgb(180,180,180)" stroke="none" d="M 113133,26250 L 113133,26278 113106,26278 113133,26250 Z"/>
   </g>
  </g>
  <g class="com.sun.star.drawing.PolyPolygonShape">
   <g id="id11">
    <rect class="BoundingBox" stroke="none" fill="none" x="112528" y="25770" width="259" height="417"/>
    <path fill="rgb(180,180,180)" stroke="none" d="M 112715,26002 L 112715,25893 112715,25887 112714,25881 112712,25876 112710,25871 112708,25866 112705,25861 112702,25856 112698,25852 112693,25848 112688,25845 112684,25842 112679,25840 112673,25838 112668,25837 112662,25836 112657,25835 112651,25836 112645,25837 112640,25838 112635,25840 112630,25842 112625,25845 112620,25848 112616,25852 112612,25856 112609,25861 112606,25866 112604,25871 112602,25876 112601,25881 112600,25887 112600,25893 112600,26116 112531,26185 112530,26178 112529,26171 112528,26164 112528,26157 112528,25900 112528,25893 112529,25887 112529,25881 112530,25875 112532,25868 112534,25862 112535,25856 112538,25851 112540,25845 112543,25839 112546,25834 112550,25828 112553,25823 112557,25818 112561,25812 112566,25808 112570,25803 112575,25799 112580,25795 112585,25792 112590,25788 112596,25785 112602,25783 112607,25780 112613,25778 112619,25776 112625,25774 112632,25773 112638,25772 112644,25771 112650,25770 112657,25770 112663,25770 112669,25771 112676,25772 112682,25773 112688,25774 112694,25776 112701,25778 112707,25780 112713,25783 112718,25785 112724,25788 112729,25792 112734,25795 112739,25799 112744,25803 112749,25808 112753,25812 112757,25818 112761,25823 112765,25828 112768,25834 112771,25839 112774,25845 112776,25851 112779,25856 112781,25862 112782,25868 112784,25875 112785,25881 112786,25887 112786,25893 112786,25900 112786,25931 112715,26002 Z"/>
   </g>
  </g>
  <g class="com.sun.star.drawing.PolyPolygonShape">
   <g id="id12">
    <rect class="BoundingBox" stroke="none" fill="none" x="114074" y="25258" width="54" height="54"/>
    <path fill="rgb(180,180,180)" stroke="none" d="M 114127,25258 L 114127,25310 114074,25310 114127,25258 Z"/>
   </g>
  </g>
  <g class="com.sun.star.drawing.PolyPolygonShape">
   <g id="id13">
    <rect class="BoundingBox" stroke="none" fill="none" x="113614" y="25027" width="77" height="76"/>
    <path fill="rgb(180,180,180)" stroke="none" d="M 113689,25027 L 113683,25029 113677,25032 113671,25035 113665,25039 113659,25043 113654,25047 113648,25052 113644,25057 113639,25062 113634,25067 113630,25072 113626,25078 113622,25084 113619,25090 113616,25096 113614,25102 113689,25027 Z"/>
   </g>
  </g>
  <g class="com.sun.star.drawing.PolyPolygonShape">
   <g id="id14">
    <rect class="BoundingBox" stroke="none" fill="none" x="113438" y="25027" width="74" height="252"/>
    <path fill="rgb(180,180,180)" stroke="none" d="M 113511,25205 L 113511,25027 113438,25027 113438,25278 113511,25205 Z"/>
   </g>
  </g>
  <g class="com.sun.star.drawing.PolyPolygonShape">
   <g id="id15">
    <rect class="BoundingBox" stroke="none" fill="none" x="113086" y="25027" width="259" height="506"/>
    <path fill="rgb(180,180,180)" stroke="none" d="M 113184,25532 L 113174,25529 113164,25525 113154,25520 113145,25515 113136,25509 113128,25502 113121,25494 113114,25486 113107,25478 113102,25468 113097,25459 113093,25449 113090,25439 113088,25428 113087,25418 113086,25407 113086,25027 113158,25027 113158,25414 113158,25420 113159,25425 113160,25431 113162,25436 113164,25441 113167,25446 113170,25450 113174,25454 113178,25458 113183,25462 113188,25464 113193,25467 113198,25469 113204,25470 113210,25471 113216,25471 113221,25471 113227,25470 113232,25469 113238,25467 113243,25464 113247,25462 113252,25458 113256,25454 113260,25450 113263,25446 113266,25441 113269,25436 113270,25431 113272,25425 113273,25420 113273,25414 113273,25027 113344,25027 113344,25372 113184,25532 Z"/>
   </g>
  </g>
  <g class="com.sun.star.drawing.PolyPolygonShape">
   <g id="id16">
    <rect class="BoundingBox" stroke="none" fill="none" x="112764" y="25026" width="269" height="503"/>
    <path fill="rgb(180,180,180)" stroke="none" d="M 112836,25092 L 112901,25092 112905,25092 112910,25092 112915,25094 112920,25095 112924,25098 112928,25100 112932,25103 112936,25106 112939,25110 112942,25114 112945,25118 112947,25122 112948,25127 112950,25132 112950,25137 112951,25142 112951,25192 112950,25196 112950,25201 112948,25206 112947,25211 112945,25215 112942,25219 112939,25223 112936,25227 112932,25230 112928,25233 112924,25236 112920,25238 112915,25239 112910,25241 112905,25241 112901,25242 112836,25242 112836,25092 Z M 112764,25528 L 112764,25027 112908,25027 112919,25028 112930,25029 112941,25032 112951,25036 112962,25041 112971,25047 112980,25053 112989,25061 112996,25069 113003,25078 113009,25088 113013,25098 113017,25108 113020,25119 113022,25130 113022,25142 113022,25192 113022,25201 113020,25211 113018,25221 113015,25230 113012,25239 113007,25248 113002,25257 112996,25265 112989,25273 112982,25279 112974,25286 112966,25291 112957,25296 112948,25299 112939,25303 112929,25305 113032,25528 112953,25528 112852,25307 112836,25307 112836,25528 112764,25528 Z"/>
   </g>
  </g>
  <g class="com.sun.star.drawing.PolyPolygonShape">
   <g id="id17">
    <rect class="BoundingBox" stroke="none" fill="none" x="112417" y="25019" width="259" height="517"/>
    <path fill="rgb(180,180,180)" stroke="none" d="M 112675,25406 L 112603,25406 112603,25413 112603,25419 112602,25424 112601,25430 112599,25435 112597,25440 112594,25446 112590,25450 112587,25454 112582,25458 112578,25462 112573,25464 112568,25467 112563,25469 112557,25470 112552,25471 112546,25471 112541,25471 112535,25470 112530,25469 112524,25467 112519,25464 112515,25462 112510,25458 112506,25454 112502,25450 112499,25446 112496,25440 112493,25435 112491,25430 112490,25424 112489,25419 112489,25413 112489,25142 112489,25136 112490,25130 112491,25125 112493,25120 112496,25115 112499,25110 112502,25105 112506,25101 112510,25097 112515,25094 112519,25091 112524,25089 112530,25087 112535,25085 112541,25085 112546,25084 112552,25085 112557,25085 112563,25087 112568,25089 112573,25091 112578,25094 112582,25097 112587,25101 112590,25105 112594,25110 112597,25115 112599,25120 112601,25125 112602,25130 112603,25136 112603,25142 112603,25149 112675,25149 112675,25142 112674,25136 112673,25130 112672,25124 112671,25118 112669,25111 112667,25105 112665,25100 112663,25094 112660,25088 112657,25083 112653,25077 112649,25072 112646,25067 112641,25062 112637,25058 112633,25053 112628,25049 112623,25045 112618,25042 112612,25038 112607,25035 112601,25032 112595,25030 112589,25028 112584,25026 112577,25024 112571,25023 112565,25022 112559,25021 112553,25020 112546,25020 112540,25020 112534,25021 112527,25022 112521,25023 112515,25024 112509,25026 112503,25028 112497,25030 112491,25032 112486,25035 112480,25038 112475,25042 112470,25045 112465,25049 112460,25053 112455,25058 112451,25062 112447,25067 112443,25072 112439,25077 112435,25083 112432,25088 112429,25094 112426,25100 112424,25105 112422,25111 112420,25118 112419,25124 112418,25130 112417,25136 112417,25142 112417,25149 112417,25406 112417,25412 112417,25418 112418,25425 112419,25431 112420,25437 112422,25444 112424,25450 112426,25456 112429,25462 112432,25468 112435,25473 112439,25478 112443,25483 112447,25488 112451,25493 112455,25498 112460,25502 112465,25506 112470,25510 112475,25514 112480,25517 112486,25520 112491,25523 112497,25526 112503,25528 112509,25530 112515,25531 112521,25533 112527,25534 112534,25535 112540,25535 112546,25535 112553,25535 112559,25535 112565,25534 112571,25533 112577,25531 112584,25530 112589,25528 112595,25526 112601,25523 112607,25520 112612,25517 112618,25514 112623,25510 112628,25506 112633,25502 112637,25498 112641,25493 112646,25488 112649,25483 112653,25478 112657,25473 112660,25468 112663,25462 112665,25456 112667,25450 112669,25444 112671,25437 112672,25431 112673,25425 112674,25418 112675,25412 112675,25406 Z"/>
   </g>
  </g>
  <g class="com.sun.star.drawing.PolyPolygonShape">
   <g id="id18">
    <rect class="BoundingBox" stroke="none" fill="none" x="112875" y="25777" width="65" height="65"/>
    <path fill="rgb(180,180,180)" stroke="none" d="M 112875,25841 L 112875,25777 112939,25777 112875,25841 Z"/>
   </g>
  </g>
  <g class="com.sun.star.drawing.PolyPolygonShape">
   <g id="id19">
    <rect class="BoundingBox" stroke="none" fill="none" x="113946" y="25365" width="239" height="164"/>
    <path fill="rgb(180,180,180)" stroke="none" d="M 114019,25365 L 114019,25463 114184,25463 114184,25528 113947,25528 113947,25436 114019,25365 Z"/>
   </g>
  </g>
 </g>
</svg>