<?xml version="1.0" encoding="UTF-8"?>
<!DOCTYPE svg PUBLIC "-//W3C//DTD SVG 1.1//EN" "http://www.w3.org/Graphics/SVG/1.1/DTD/svg11.dtd">
<svg version="1.2" width="25.04mm" height="25.02mm" viewBox="19049 24500 2504 2502" preserveAspectRatio="xMidYMid" fill-rule="evenodd" stroke-width="28.222" stroke-linejoin="round" xmlns="http://www.w3.org/2000/svg" xmlns:ooo="http://xml.openoffice.org/svg/export" xmlns:xlink="http://www.w3.org/1999/xlink" xmlns:presentation="http://sun.com/xmlns/staroffice/presentation" xmlns:smil="http://www.w3.org/2001/SMIL20/" xmlns:anim="urn:oasis:names:tc:opendocument:xmlns:animation:1.0" xml:space="preserve">
 <defs class="EmbeddedBulletChars">
  <g id="bullet-char-template-57356" transform="scale(0.00048828125,-0.00048828125)">
   <path d="M 580,1141 L 1163,571 580,0 -4,571 580,1141 Z"/>
  </g>
  <g id="bullet-char-template-57354" transform="scale(0.00048828125,-0.00048828125)">
   <path d="M 8,1128 L 1137,1128 1137,0 8,0 8,1128 Z"/>
  </g>
  <g id="bullet-char-template-10146" transform="scale(0.00048828125,-0.00048828125)">
   <path d="M 174,0 L 602,739 174,1481 1456,739 174,0 Z M 1358,739 L 309,1346 659,739 1358,739 Z"/>
  </g>
  <g id="bullet-char-template-10132" transform="scale(0.00048828125,-0.00048828125)">
   <path d="M 2015,739 L 1276,0 717,0 1260,543 174,543 174,936 1260,936 717,1481 1274,1481 2015,739 Z"/>
  </g>
  <g id="bullet-char-template-10007" transform="scale(0.00048828125,-0.00048828125)">
   <path d="M 0,-2 C -7,14 -16,27 -25,37 L 356,567 C 262,823 215,952 215,954 215,979 228,992 255,992 264,992 276,990 289,987 310,991 331,999 354,1012 L 381,999 492,748 772,1049 836,1024 860,1049 C 881,1039 901,1025 922,1006 886,937 835,863 770,784 769,783 710,716 594,584 L 774,223 C 774,196 753,168 711,139 L 727,119 C 717,90 699,76 672,76 641,76 570,178 457,381 L 164,-76 C 142,-110 111,-127 72,-127 30,-127 9,-110 8,-76 1,-67 -2,-52 -2,-32 -2,-23 -1,-13 0,-2 Z"/>
  </g>
  <g id="bullet-char-template-10004" transform="scale(0.00048828125,-0.00048828125)">
   <path d="M 285,-33 C 182,-33 111,30 74,156 52,228 41,333 41,471 41,549 55,616 82,672 116,743 169,778 240,778 293,778 328,747 346,684 L 369,508 C 377,444 397,411 428,410 L 1163,1116 C 1174,1127 1196,1133 1229,1133 1271,1133 1292,1118 1292,1087 L 1292,965 C 1292,929 1282,901 1262,881 L 442,47 C 390,-6 338,-33 285,-33 Z"/>
  </g>
  <g id="bullet-char-template-9679" transform="scale(0.00048828125,-0.00048828125)">
   <path d="M 813,0 C 632,0 489,54 383,161 276,268 223,411 223,592 223,773 276,916 383,1023 489,1130 632,1184 813,1184 992,1184 1136,1130 1245,1023 1353,916 1407,772 1407,592 1407,412 1353,268 1245,161 1136,54 992,0 813,0 Z"/>
  </g>
  <g id="bullet-char-template-8226" transform="scale(0.00048828125,-0.00048828125)">
   <path d="M 346,457 C 273,457 209,483 155,535 101,586 74,649 74,723 74,796 101,859 155,911 209,963 273,989 346,989 419,989 480,963 531,910 582,859 608,796 608,723 608,648 583,586 532,535 482,483 420,457 346,457 Z"/>
  </g>
  <g id="bullet-char-template-8211" transform="scale(0.00048828125,-0.00048828125)">
   <path d="M -4,459 L 1135,459 1135,606 -4,606 -4,459 Z"/>
  </g>
  <g id="bullet-char-template-61548" transform="scale(0.00048828125,-0.00048828125)">
   <path d="M 173,740 C 173,903 231,1043 346,1159 462,1274 601,1332 765,1332 928,1332 1067,1274 1183,1159 1299,1043 1357,903 1357,740 1357,577 1299,437 1183,322 1067,206 928,148 765,148 601,148 462,206 346,322 231,437 173,577 173,740 Z"/>
  </g>
 </defs>
 <g class="Page">
  <g class="com.sun.star.drawing.PolyPolygonShape">
   <g id="id3">
    <rect class="BoundingBox" stroke="none" fill="none" x="19049" y="24500" width="2504" height="2502"/>
    <path fill="rgb(255,0,0)" stroke="none" d="M 21551,25750 L 21551,25719 21549,25688 21548,25658 21545,25627 21541,25596 21537,25566 21532,25536 21527,25506 21520,25476 21513,25446 21506,25416 21497,25387 21488,25357 21478,25328 21467,25300 21456,25271 21444,25243 21431,25215 21417,25187 21403,25160 21388,25133 21373,25107 21357,25081 21340,25055 21323,25030 21305,25005 21286,24980 21267,24956 21246,24933 21226,24910 21205,24888 21184,24866 21162,24844 21139,24823 21116,24803 21093,24783 21069,24764 21044,24745 21019,24728 20994,24710 20968,24693 20942,24677 20916,24662 20889,24647 20862,24633 20834,24620 20806,24607 20778,24595 20750,24583 20721,24573 20692,24563 20662,24553 20633,24545 20603,24537 20573,24530 20543,24523 20513,24518 20483,24513 20453,24509 20422,24505 20392,24503 20361,24501 20330,24500 20300,24500 20269,24500 20238,24501 20207,24503 20177,24505 20146,24509 20116,24513 20086,24518 20056,24523 20026,24530 19996,24537 19966,24545 19937,24553 19907,24563 19878,24573 19850,24583 19821,24595 19793,24607 19765,24620 19737,24633 19710,24647 19683,24662 19657,24677 19631,24693 19605,24710 19579,24728 19555,24745 19530,24764 19506,24783 19483,24803 19460,24823 19437,24844 19415,24866 19394,24888 19373,24910 19353,24933 19333,24956 19314,24980 19295,25005 19277,25030 19260,25055 19243,25081 19227,25107 19212,25133 19197,25160 19183,25187 19169,25215 19156,25243 19144,25271 19133,25300 19122,25328 19112,25357 19103,25387 19094,25416 19087,25446 19080,25476 19073,25506 19068,25536 19063,25566 19059,25596 19055,25627 19052,25658 19051,25688 19049,25719 19049,25749 19049,25780 19051,25811 19052,25841 19055,25872 19059,25903 19063,25933 19068,25963 19073,25993 19080,26023 19087,26053 19094,26083 19103,26112 19112,26142 19122,26171 19133,26199 19144,26228 19156,26257 19169,26285 19183,26313 19197,26340 19212,26367 19227,26393 19243,26419 19260,26445 19277,26470 19295,26495 19314,26520 19333,26544 19353,26567 19373,26590 19394,26612 19415,26634 19437,26656 19460,26677 19483,26697 19506,26717 19530,26736 19555,26755 19579,26772 19605,26790 19631,26807 19657,26823 19683,26838 19710,26853 19737,26867 19765,26880 19793,26893 19821,26905 19850,26917 19878,26927 19907,26937 19937,26947 19966,26955 19996,26963 20026,26970 20056,26977 20086,26982 20116,26987 20146,26991 20177,26995 20207,26997 20238,26999 20269,27000 20299,27001 20330,27000 20361,26999 20392,26997 20422,26995 20453,26991 20483,26987 20513,26982 20543,26977 20573,26970 20603,26963 20633,26955 20662,26947 20692,26937 20721,26927 20750,26917 20778,26905 20806,26893 20834,26880 20862,26867 20889,26853 20916,26838 20942,26823 20968,26807 20994,26790 21019,26772 21044,26755 21069,26736 21093,26717 21116,26697 21139,26677 21162,26656 21184,26634 21205,26612 21226,26590 21246,26567 21267,26544 21286,26520 21305,26495 21323,26470 21340,26445 21357,26419 21373,26393 21388,26367 21403,26340 21417,26313 21431,26285 21444,26257 21456,26228 21467,26199 21478,26171 21488,26142 21497,26112 21506,26083 21513,26053 21520,26023 21527,25993 21532,25963 21537,25933 21541,25903 21545,25872 21548,25841 21549,25811 21551,25780 21551,25750 Z"/>
   </g>
  </g>
  <g class="com.sun.star.drawing.PolyPolygonShape">
   <g id="id4">
    <rect class="BoundingBox" stroke="none" fill="none" x="19406" y="24857" width="1789" height="1787"/>
    <path fill="rgb(255,255,255)" stroke="none" d="M 21194,25750 L 21193,25728 21193,25706 21191,25684 21189,25662 21187,25640 21184,25618 21181,25597 21176,25575 21172,25554 21167,25533 21161,25511 21155,25490 21149,25469 21141,25449 21134,25428 21126,25408 21117,25388 21108,25368 21098,25348 21088,25329 21078,25309 21067,25291 21055,25272 21043,25253 21031,25235 21018,25218 21005,25200 20991,25183 20977,25166 20962,25150 20947,25134 20932,25118 20916,25103 20900,25088 20884,25073 20867,25059 20850,25046 20833,25032 20815,25020 20797,25007 20778,24995 20760,24984 20741,24973 20721,24962 20702,24952 20682,24942 20662,24933 20642,24925 20622,24916 20601,24909 20581,24902 20560,24895 20538,24889 20517,24883 20495,24878 20474,24874 20452,24870 20431,24866 20409,24863 20387,24861 20365,24859 20343,24858 20321,24857 20300,24857 20278,24857 20256,24858 20234,24859 20212,24861 20190,24863 20168,24866 20147,24870 20125,24874 20104,24878 20082,24883 20061,24889 20040,24895 20019,24902 19999,24909 19978,24916 19958,24925 19938,24933 19918,24942 19898,24952 19879,24962 19859,24973 19840,24984 19822,24995 19803,25007 19785,25020 19768,25032 19750,25046 19733,25059 19716,25073 19700,25088 19684,25103 19668,25118 19653,25134 19638,25150 19623,25166 19609,25183 19595,25200 19582,25218 19569,25235 19557,25253 19545,25272 19533,25291 19522,25309 19512,25329 19502,25348 19492,25368 19483,25388 19474,25408 19466,25428 19459,25449 19451,25469 19445,25490 19439,25511 19433,25533 19428,25554 19424,25575 19419,25597 19416,25618 19413,25640 19411,25662 19409,25684 19407,25706 19407,25728 19406,25749 19407,25771 19407,25793 19409,25815 19411,25837 19413,25859 19416,25881 19419,25903 19424,25925 19428,25946 19433,25968 19439,25989 19445,26010 19451,26031 19459,26051 19466,26072 19474,26092 19483,26112 19492,26132 19502,26152 19512,26171 19522,26191 19533,26210 19545,26228 19557,26247 19569,26265 19582,26282 19595,26300 19609,26317 19623,26334 19638,26350 19653,26366 19668,26382 19684,26397 19700,26412 19716,26427 19733,26441 19750,26454 19768,26468 19785,26481 19803,26493 19822,26505 19840,26516 19859,26527 19879,26538 19898,26548 19918,26558 19938,26567 19958,26575 19978,26584 19999,26591 20019,26598 20040,26605 20061,26611 20082,26617 20104,26622 20125,26626 20147,26630 20168,26634 20190,26637 20212,26639 20234,26641 20256,26642 20278,26643 20299,26643 20321,26643 20343,26642 20365,26641 20387,26639 20409,26637 20431,26634 20452,26630 20474,26626 20495,26622 20517,26617 20538,26611 20560,26605 20581,26598 20601,26591 20622,26584 20642,26575 20662,26567 20682,26558 20702,26548 20721,26538 20741,26527 20760,26516 20778,26505 20797,26493 20815,26481 20833,26468 20850,26454 20867,26441 20884,26427 20900,26412 20916,26397 20932,26382 20947,26366 20962,26350 20977,26334 20991,26317 21005,26300 21018,26282 21031,26265 21043,26247 21055,26228 21067,26210 21078,26191 21088,26171 21098,26152 21108,26132 21117,26112 21126,26092 21134,26072 21141,26051 21149,26031 21155,26010 21161,25989 21167,25968 21172,25946 21176,25925 21181,25903 21184,25881 21187,25859 21189,25837 21191,25815 21193,25793 21193,25771 21194,25750 Z"/>
   </g>
  </g>
  <g class="com.sun.star.drawing.PolyPolygonShape">
   <g id="id5">
    <rect class="BoundingBox" stroke="none" fill="none" x="19925" y="25776" width="751" height="526"/>
    <path fill="rgb(0,0,0)" stroke="none" d="M 20526,26085 L 20546,26138 20549,26138 20553,26138 20556,26139 20560,26140 20594,26094 20586,26090 20578,26086 20569,26084 20560,26083 20552,26082 20543,26082 20534,26083 20526,26085 Z M 20057,26036 L 19963,26036 19987,26064 19995,26058 20003,26053 20011,26049 20020,26045 20029,26042 20038,26039 20047,26037 20057,26036 Z M 20146,26071 L 20140,26077 20133,26072 20124,26067 20116,26063 20107,26060 20098,26057 20089,26056 20079,26055 20070,26054 20060,26055 20051,26056 20042,26058 20032,26061 20024,26064 20015,26068 20007,26073 19999,26079 19995,26073 20003,26067 20011,26062 20021,26057 20030,26054 20040,26051 20050,26049 20060,26047 20070,26047 20080,26047 20090,26048 20100,26050 20110,26053 20119,26056 20128,26060 20137,26066 20146,26071 Z M 20049,26153 L 20047,26156 20045,26159 20044,26162 20043,26165 20043,26168 20042,26171 20043,26174 20043,26178 20044,26181 20045,26184 20047,26186 20049,26189 20051,26191 20054,26193 20056,26195 20059,26197 20062,26198 20065,26199 20069,26199 20072,26199 20075,26199 20078,26198 20081,26197 20084,26195 20087,26194 20089,26192 20092,26190 20094,26187 20095,26184 20097,26181 20098,26178 20098,26175 20155,26175 20155,26180 20154,26185 20153,26190 20152,26195 20150,26200 20148,26205 20146,26210 20143,26214 20141,26219 20138,26223 20134,26227 20131,26230 20127,26234 20123,26237 20119,26240 20115,26243 20110,26246 20105,26248 20101,26250 20096,26252 20091,26253 20086,26254 20081,26255 20076,26255 20071,26256 20065,26255 20060,26255 20055,26254 20050,26253 20045,26252 20040,26250 20036,26248 20031,26246 20026,26243 20022,26240 20018,26237 20014,26234 20010,26230 20007,26227 20003,26223 20000,26219 19998,26214 19995,26210 19993,26205 19991,26200 19989,26195 19988,26190 19987,26185 19986,26180 19986,26175 19986,26170 19986,26165 19987,26160 19987,26155 19989,26150 19990,26144 19992,26140 19994,26135 19996,26130 19999,26126 20002,26122 20005,26118 20008,26114 20012,26110 20049,26153 Z M 20445,26020 L 20450,26021 20455,26022 20460,26023 20465,26022 20470,26022 20475,26020 20480,26019 20485,26016 20472,25981 20354,26005 20349,26006 20343,26007 20337,26007 20332,26006 20326,26004 20321,26002 20316,25999 20312,25995 20289,25978 20290,25986 20290,25994 20289,26002 20288,26010 20287,26017 20285,26025 20282,26032 20279,26039 20284,26042 20289,26043 20295,26045 20300,26046 20305,26047 20311,26047 20316,26048 20321,26047 20327,26047 20332,26046 20337,26045 20343,26044 20348,26042 20353,26040 20357,26038 20362,26035 20389,26020 20395,26017 20402,26014 20409,26013 20417,26012 20424,26013 20431,26014 20438,26017 20445,26020 Z M 20091,26152 L 20094,26155 20095,26158 20097,26161 20098,26164 20155,26164 20154,26156 20152,26149 20150,26141 20147,26134 20143,26127 20138,26121 20134,26114 20128,26109 20091,26152 Z M 20154,26078 L 20163,26087 20171,26096 20178,26106 20184,26117 20188,26128 20192,26140 20195,26152 20196,26164 20187,26164 20186,26153 20184,26142 20180,26131 20176,26121 20170,26111 20164,26101 20157,26092 20149,26084 20154,26078 Z M 20120,26102 L 20083,26146 20080,26144 20076,26144 20073,26143 20070,26143 20067,26143 20063,26144 20060,26145 20057,26146 20020,26103 20025,26099 20031,26096 20037,26093 20043,26091 20050,26089 20056,26088 20063,26087 20070,26086 20076,26086 20083,26087 20089,26088 20096,26090 20102,26092 20108,26095 20114,26098 20120,26102 Z M 20424,26164 L 20424,26155 20425,26146 20427,26138 20429,26129 20432,26121 20436,26113 20440,26105 20444,26097 20450,26090 20455,26083 20461,26077 20468,26071 20475,26065 20482,26060 20490,26056 20498,26052 20501,26061 20494,26064 20487,26068 20480,26073 20474,26078 20468,26084 20462,26090 20457,26096 20452,26103 20448,26110 20444,26117 20441,26124 20438,26132 20436,26140 20435,26148 20434,26156 20433,26164 20424,26164 Z M 20603,26100 L 20607,26103 20611,26107 20614,26111 20618,26115 20621,26119 20624,26123 20626,26128 20628,26133 20630,26137 20632,26142 20633,26148 20634,26153 20635,26158 20635,26163 20636,26168 20635,26173 20635,26179 20634,26184 20633,26189 20631,26194 20629,26199 20627,26204 20625,26208 20622,26213 20619,26217 20616,26221 20612,26225 20609,26229 20605,26232 20601,26235 20596,26238 20592,26241 20587,26243 20582,26245 20577,26247 20572,26249 20566,26250 20561,26251 20556,26251 20551,26251 20545,26251 20540,26251 20535,26250 20530,26249 20525,26248 20520,26246 20515,26244 20510,26242 20506,26239 20501,26236 20497,26233 20493,26230 20489,26226 20486,26222 20483,26218 20479,26214 20477,26210 20474,26205 20472,26200 20470,26195 20468,26190 20467,26185 20466,26180 20465,26175 20522,26175 20523,26178 20525,26181 20527,26184 20529,26186 20531,26189 20534,26191 20537,26192 20540,26194 20543,26195 20546,26195 20549,26195 20553,26195 20556,26195 20559,26194 20562,26193 20565,26191 20568,26189 20570,26187 20573,26184 20575,26182 20577,26179 20578,26176 20579,26173 20579,26169 20580,26166 20579,26163 20579,26159 20578,26156 20576,26153 20575,26150 20573,26148 20569,26145 20603,26100 Z M 20235,26232 L 20238,26237 20241,26241 20244,26246 20248,26250 20254,26255 20261,26259 20268,26263 20275,26265 20282,26267 20290,26268 20297,26268 20305,26267 20323,26266 20329,26266 20334,26264 20339,26261 20343,26258 20347,26254 20350,26250 20352,26245 20353,26239 20358,26225 20359,26221 20361,26218 20363,26215 20366,26212 20370,26210 20373,26209 20377,26208 20381,26208 20391,26208 20394,26208 20397,26208 20401,26207 20404,26206 20407,26205 20410,26204 20413,26202 20415,26199 20418,26197 20419,26194 20421,26191 20422,26188 20423,26185 20424,26182 20424,26178 20424,26175 20434,26175 20434,26185 20436,26194 20439,26203 20442,26212 20446,26221 20450,26230 20455,26238 20461,26245 20468,26252 20475,26259 20483,26265 20491,26270 20499,26275 20508,26278 20517,26282 20526,26284 20099,26284 20108,26281 20117,26278 20125,26274 20134,26269 20141,26264 20148,26258 20155,26251 20161,26244 20167,26237 20172,26229 20176,26220 20180,26212 20183,26203 20185,26194 20186,26184 20187,26175 20195,26175 20196,26180 20196,26185 20198,26190 20200,26195 20204,26199 20207,26202 20211,26205 20216,26208 20220,26208 20223,26210 20225,26213 20227,26217 20235,26232 Z M 20618,26060 L 20613,26068 20607,26065 20602,26062 20596,26059 20590,26057 20584,26055 20578,26053 20572,26052 20565,26051 20558,26050 20552,26050 20546,26050 20539,26051 20533,26051 20527,26052 20521,26054 20515,26055 20512,26046 20518,26045 20525,26043 20532,26042 20538,26041 20545,26041 20552,26041 20559,26041 20566,26042 20574,26043 20580,26044 20587,26046 20594,26048 20600,26051 20606,26053 20612,26057 20618,26060 Z M 20532,26144 L 20530,26146 20528,26148 20526,26150 20525,26153 20523,26156 20522,26158 20521,26161 20521,26164 20465,26164 20465,26158 20466,26153 20467,26147 20469,26142 20471,26136 20473,26131 20476,26126 20479,26121 20482,26116 20485,26112 20489,26107 20493,26103 20498,26100 20503,26096 20507,26093 20512,26091 20532,26144 Z M 20675,26301 L 20675,26284 20577,26284 20585,26282 20593,26279 20601,26276 20608,26272 20616,26268 20623,26263 20629,26258 20635,26252 20641,26246 20647,26239 20651,26232 20656,26225 20659,26217 20663,26210 20665,26202 20667,26193 20669,26185 20670,26177 20670,26168 20669,26160 20668,26152 20667,26143 20665,26135 20662,26127 20659,26119 20655,26112 20650,26104 20646,26098 20640,26091 20634,26085 20628,26079 20622,26074 20627,26066 20632,26070 20637,26075 20643,26068 20637,26063 20632,26059 20625,26054 20619,26050 20612,26046 20605,26043 20598,26040 20591,26038 20591,26015 20527,26015 20527,26034 20517,26036 20508,26038 20493,25996 20499,25998 20504,26000 20509,26001 20514,26001 20520,26001 20522,26001 20523,25999 20524,25998 20525,25996 20526,25989 20527,25982 20527,25975 20526,25968 20525,25966 20524,25965 20522,25964 20520,25964 20516,25964 20512,25965 20508,25967 20504,25969 20496,25975 20488,25982 20481,25966 20442,25974 20434,25965 20432,25964 20430,25964 20423,25964 20415,25964 20408,25965 20401,25967 20392,25969 20384,25971 20376,25971 20367,25972 20359,25971 20350,25970 20342,25967 20334,25964 20329,25962 20324,25959 20320,25955 20315,25952 20311,25948 20307,25944 20303,25940 20300,25935 20296,25931 20293,25926 20291,25921 20288,25916 20286,25911 20284,25905 20283,25900 20281,25894 20281,25888 20282,25886 20282,25884 20284,25882 20285,25880 20287,25879 20289,25878 20291,25877 20293,25877 20298,25877 20302,25877 20302,25862 20312,25862 20312,25852 20312,25843 20315,25836 20316,25829 20319,25825 20319,25821 20318,25816 20317,25812 20316,25807 20314,25803 20312,25799 20309,25795 20306,25791 20303,25788 20299,25785 20295,25783 20291,25780 20287,25779 20282,25777 20278,25776 20273,25776 20268,25776 20264,25776 20259,25777 20255,25779 20250,25780 20246,25783 20242,25785 20239,25788 20235,25791 20232,25795 20230,25799 20227,25803 20225,25807 20224,25812 20223,25816 20222,25821 20225,25822 20224,25827 20223,25832 20223,25838 20224,25843 20224,25848 20226,25854 20228,25858 20231,25863 20233,25869 20234,25875 20235,25876 20235,25878 20235,25880 20234,25881 20233,25883 20232,25884 20231,25885 20230,25886 20226,25886 20222,25887 20219,25888 20216,25891 20208,25898 20200,25906 20193,25914 20187,25923 20181,25932 20176,25942 20173,25952 20169,25962 20166,25974 20164,25985 20162,25996 20160,26008 20159,26019 20158,26031 20158,26043 20158,26054 20143,26054 20143,26025 20135,26025 20135,26007 20125,26007 20125,26025 19938,26025 19938,26036 19949,26036 19979,26071 19974,26076 19969,26081 19964,26086 19960,26092 19956,26098 19952,26104 19949,26110 19946,26116 19943,26123 19941,26130 19939,26136 19938,26143 19936,26150 19935,26157 19935,26164 19935,26171 19946,26171 19946,26164 19947,26158 19948,26152 19949,26146 19951,26139 19952,26133 19954,26127 19957,26121 19960,26115 19963,26110 19966,26104 19969,26099 19973,26094 19977,26089 19982,26084 19986,26080 19991,26086 19985,26091 19980,26097 19976,26103 19971,26110 19967,26116 19964,26123 19961,26131 19959,26138 19957,26146 19955,26153 19954,26161 19954,26169 19954,26177 19955,26184 19956,26192 19958,26200 19960,26207 19962,26215 19965,26222 19969,26229 19973,26235 19978,26242 19983,26248 19988,26254 19994,26259 20000,26264 20006,26268 20013,26272 20020,26276 20027,26279 20034,26282 20042,26284 19925,26284 19925,26301 20675,26301 Z"/>
   </g>
  </g>
  <g class="com.sun.star.drawing.PolyPolygonShape">
   <g id="id6">
    <rect class="BoundingBox" stroke="none" fill="none" x="20014" y="25198" width="572" height="434"/>
    <path fill="rgb(0,0,0)" stroke="none" d="M 20505,25481 L 20094,25481 20094,25473 20505,25473 20505,25481 Z M 20105,25425 L 20104,25420 20103,25415 20100,25410 20096,25406 20092,25402 20087,25399 20082,25398 20076,25397 20071,25398 20066,25399 20061,25402 20056,25406 20053,25410 20050,25415 20049,25420 20048,25425 20049,25431 20050,25436 20053,25441 20056,25445 20061,25449 20066,25452 20071,25453 20076,25454 20082,25453 20087,25452 20092,25449 20096,25445 20100,25441 20103,25436 20104,25431 20105,25425 Z M 20451,25445 L 20153,25445 20153,25435 20451,25435 20451,25445 Z M 20105,25620 L 20495,25620 20495,25549 20105,25549 20105,25620 Z M 20446,25519 L 20154,25519 20154,25511 20446,25511 20446,25519 Z M 20540,25371 L 20471,25220 20129,25220 20057,25371 20087,25368 20117,25365 20147,25363 20178,25361 20209,25360 20239,25359 20269,25358 20299,25358 20329,25358 20360,25359 20390,25360 20420,25361 20450,25363 20480,25365 20510,25368 20540,25371 Z M 20552,25426 L 20551,25421 20550,25416 20547,25411 20543,25406 20539,25403 20534,25400 20529,25399 20524,25398 20518,25399 20513,25400 20508,25403 20504,25406 20500,25411 20497,25416 20496,25421 20495,25426 20496,25432 20497,25437 20500,25442 20504,25446 20508,25450 20513,25452 20518,25454 20524,25455 20529,25454 20534,25452 20539,25450 20543,25446 20547,25442 20550,25437 20551,25432 20552,25426 Z M 20116,25198 L 20052,25335 20043,25356 20042,25359 20040,25363 20037,25366 20035,25368 20026,25378 20017,25387 20016,25388 20016,25390 20014,25428 20015,25467 20015,25478 20016,25489 20020,25504 20025,25519 20030,25534 20036,25549 20049,25549 20049,25620 20016,25620 20016,25631 20584,25631 20584,25620 20551,25620 20551,25549 20564,25549 20570,25534 20575,25519 20580,25504 20584,25489 20585,25478 20585,25467 20585,25428 20584,25390 20584,25388 20583,25387 20574,25378 20565,25368 20563,25366 20560,25363 20559,25359 20557,25356 20548,25335 20484,25198 20116,25198 Z"/>
   </g>
  </g>
 </g>
</svg>