<?xml version="1.0" encoding="UTF-8"?>
<!DOCTYPE svg PUBLIC "-//W3C//DTD SVG 1.1//EN" "http://www.w3.org/Graphics/SVG/1.1/DTD/svg11.dtd">
<svg version="1.2" width="25.03mm" height="25.02mm" viewBox="10049 24500 2503 2502" preserveAspectRatio="xMidYMid" fill-rule="evenodd" stroke-width="28.222" stroke-linejoin="round" xmlns="http://www.w3.org/2000/svg" xmlns:ooo="http://xml.openoffice.org/svg/export" xmlns:xlink="http://www.w3.org/1999/xlink" xmlns:presentation="http://sun.com/xmlns/staroffice/presentation" xmlns:smil="http://www.w3.org/2001/SMIL20/" xmlns:anim="urn:oasis:names:tc:opendocument:xmlns:animation:1.0" xml:space="preserve">
 <defs class="EmbeddedBulletChars">
  <g id="bullet-char-template-57356" transform="scale(0.00048828125,-0.00048828125)">
   <path d="M 580,1141 L 1163,571 580,0 -4,571 580,1141 Z"/>
  </g>
  <g id="bullet-char-template-57354" transform="scale(0.00048828125,-0.00048828125)">
   <path d="M 8,1128 L 1137,1128 1137,0 8,0 8,1128 Z"/>
  </g>
  <g id="bullet-char-template-10146" transform="scale(0.00048828125,-0.00048828125)">
   <path d="M 174,0 L 602,739 174,1481 1456,739 174,0 Z M 1358,739 L 309,1346 659,739 1358,739 Z"/>
  </g>
  <g id="bullet-char-template-10132" transform="scale(0.00048828125,-0.00048828125)">
   <path d="M 2015,739 L 1276,0 717,0 1260,543 174,543 174,936 1260,936 717,1481 1274,1481 2015,739 Z"/>
  </g>
  <g id="bullet-char-template-10007" transform="scale(0.00048828125,-0.00048828125)">
   <path d="M 0,-2 C -7,14 -16,27 -25,37 L 356,567 C 262,823 215,952 215,954 215,979 228,992 255,992 264,992 276,990 289,987 310,991 331,999 354,1012 L 381,999 492,748 772,1049 836,1024 860,1049 C 881,1039 901,1025 922,1006 886,937 835,863 770,784 769,783 710,716 594,584 L 774,223 C 774,196 753,168 711,139 L 727,119 C 717,90 699,76 672,76 641,76 570,178 457,381 L 164,-76 C 142,-110 111,-127 72,-127 30,-127 9,-110 8,-76 1,-67 -2,-52 -2,-32 -2,-23 -1,-13 0,-2 Z"/>
  </g>
  <g id="bullet-char-template-10004" transform="scale(0.00048828125,-0.00048828125)">
   <path d="M 285,-33 C 182,-33 111,30 74,156 52,228 41,333 41,471 41,549 55,616 82,672 116,743 169,778 240,778 293,778 328,747 346,684 L 369,508 C 377,444 397,411 428,410 L 1163,1116 C 1174,1127 1196,1133 1229,1133 1271,1133 1292,1118 1292,1087 L 1292,965 C 1292,929 1282,901 1262,881 L 442,47 C 390,-6 338,-33 285,-33 Z"/>
  </g>
  <g id="bullet-char-template-9679" transform="scale(0.00048828125,-0.00048828125)">
   <path d="M 813,0 C 632,0 489,54 383,161 276,268 223,411 223,592 223,773 276,916 383,1023 489,1130 632,1184 813,1184 992,1184 1136,1130 1245,1023 1353,916 1407,772 1407,592 1407,412 1353,268 1245,161 1136,54 992,0 813,0 Z"/>
  </g>
  <g id="bullet-char-template-8226" transform="scale(0.00048828125,-0.00048828125)">
   <path d="M 346,457 C 273,457 209,483 155,535 101,586 74,649 74,723 74,796 101,859 155,911 209,963 273,989 346,989 419,989 480,963 531,910 582,859 608,796 608,723 608,648 583,586 532,535 482,483 420,457 346,457 Z"/>
  </g>
  <g id="bullet-char-template-8211" transform="scale(0.00048828125,-0.00048828125)">
   <path d="M -4,459 L 1135,459 1135,606 -4,606 -4,459 Z"/>
  </g>
  <g id="bullet-char-template-61548" transform="scale(0.00048828125,-0.00048828125)">
   <path d="M 173,740 C 173,903 231,1043 346,1159 462,1274 601,1332 765,1332 928,1332 1067,1274 1183,1159 1299,1043 1357,903 1357,740 1357,577 1299,437 1183,322 1067,206 928,148 765,148 601,148 462,206 346,322 231,437 173,577 173,740 Z"/>
  </g>
 </defs>
 <g class="Page">
  <g class="com.sun.star.drawing.PolyPolygonShape">
   <g id="id3">
    <rect class="BoundingBox" stroke="none" fill="none" x="10049" y="24500" width="2503" height="2502"/>
    <path fill="rgb(255,0,0)" stroke="none" d="M 12551,25750 L 12551,25719 12549,25688 12548,25658 12545,25627 12541,25596 12537,25566 12532,25536 12527,25506 12521,25476 12513,25446 12506,25416 12497,25387 12488,25357 12478,25328 12467,25300 12456,25271 12444,25243 12431,25215 12417,25187 12403,25160 12388,25133 12373,25107 12357,25081 12340,25055 12323,25030 12305,25005 12286,24980 12267,24956 12247,24933 12227,24910 12206,24888 12185,24866 12163,24844 12140,24823 12117,24803 12094,24783 12070,24764 12045,24745 12020,24728 11995,24710 11970,24693 11943,24677 11917,24662 11890,24647 11863,24633 11835,24620 11807,24607 11779,24595 11750,24583 11722,24573 11693,24563 11663,24553 11634,24545 11604,24537 11574,24530 11544,24523 11514,24518 11484,24513 11454,24509 11423,24505 11393,24503 11362,24501 11331,24500 11301,24500 11270,24500 11238,24501 11207,24503 11177,24505 11146,24509 11116,24513 11086,24518 11056,24523 11026,24530 10996,24537 10966,24545 10937,24553 10907,24563 10878,24573 10850,24583 10821,24595 10793,24607 10765,24620 10737,24633 10710,24647 10683,24662 10657,24677 10631,24693 10605,24710 10580,24728 10555,24745 10530,24764 10506,24783 10483,24803 10460,24823 10437,24844 10415,24866 10394,24888 10373,24910 10353,24933 10333,24956 10314,24980 10295,25005 10277,25030 10260,25055 10243,25081 10227,25107 10212,25133 10197,25160 10183,25187 10169,25215 10156,25243 10144,25271 10133,25300 10122,25328 10112,25357 10103,25387 10094,25416 10087,25446 10080,25476 10073,25506 10068,25536 10063,25566 10059,25596 10055,25627 10052,25658 10051,25688 10049,25719 10049,25749 10049,25780 10051,25811 10052,25841 10055,25872 10059,25903 10063,25933 10068,25963 10073,25993 10080,26023 10087,26053 10094,26083 10103,26112 10112,26142 10122,26171 10133,26199 10144,26228 10156,26257 10169,26285 10183,26313 10197,26340 10212,26367 10227,26393 10243,26419 10260,26445 10277,26470 10295,26495 10314,26520 10333,26544 10353,26567 10373,26590 10394,26612 10415,26634 10437,26656 10460,26677 10483,26697 10506,26717 10530,26736 10555,26755 10580,26772 10605,26790 10631,26807 10657,26823 10683,26838 10710,26853 10737,26867 10765,26880 10793,26893 10821,26905 10850,26917 10878,26927 10907,26937 10937,26947 10966,26955 10996,26963 11026,26970 11056,26977 11086,26982 11116,26987 11146,26991 11177,26995 11207,26997 11238,26999 11270,27000 11300,27001 11331,27000 11362,26999 11393,26997 11423,26995 11454,26991 11484,26987 11514,26982 11544,26977 11574,26970 11604,26963 11634,26955 11663,26947 11693,26937 11722,26927 11750,26917 11779,26905 11807,26893 11835,26880 11863,26867 11890,26853 11917,26838 11943,26823 11970,26807 11995,26790 12020,26772 12045,26755 12070,26736 12094,26717 12117,26697 12140,26677 12163,26656 12185,26634 12206,26612 12227,26590 12247,26567 12267,26544 12286,26520 12305,26495 12323,26470 12340,26445 12357,26419 12373,26393 12388,26367 12403,26340 12417,26313 12431,26285 12444,26257 12456,26228 12467,26199 12478,26171 12488,26142 12497,26112 12506,26083 12513,26053 12521,26023 12527,25993 12532,25963 12537,25933 12541,25903 12545,25872 12548,25841 12549,25811 12551,25780 12551,25750 Z"/>
   </g>
  </g>
  <g class="com.sun.star.drawing.PolyPolygonShape">
   <g id="id4">
    <rect class="BoundingBox" stroke="none" fill="none" x="10409" y="24859" width="1783" height="1784"/>
    <path fill="rgb(255,255,255)" stroke="none" d="M 12191,25750 L 12191,25728 12190,25706 12189,25684 12187,25662 12185,25640 12182,25619 12178,25597 12174,25576 12170,25554 12165,25533 12159,25512 12153,25491 12146,25470 12139,25449 12132,25429 12124,25409 12115,25389 12106,25369 12096,25349 12086,25330 12076,25311 12065,25292 12053,25273 12041,25255 12029,25237 12016,25219 12003,25201 11989,25185 11975,25168 11961,25151 11946,25135 11930,25120 11915,25105 11899,25090 11882,25075 11866,25061 11849,25047 11831,25034 11814,25021 11795,25009 11777,24997 11759,24986 11740,24975 11720,24964 11701,24954 11681,24944 11662,24935 11641,24927 11621,24919 11601,24911 11580,24904 11558,24897 11537,24891 11516,24886 11495,24881 11473,24876 11452,24872 11430,24869 11409,24866 11387,24863 11365,24861 11343,24860 11321,24859 11300,24859 11278,24859 11256,24860 11234,24861 11212,24863 11190,24866 11169,24869 11147,24872 11126,24876 11104,24881 11083,24886 11062,24891 11041,24897 11020,24904 10999,24911 10979,24919 10959,24927 10938,24935 10919,24944 10899,24954 10880,24964 10860,24975 10841,24986 10823,24997 10805,25009 10786,25021 10769,25034 10751,25047 10734,25061 10718,25075 10701,25090 10685,25105 10670,25120 10654,25135 10639,25151 10625,25168 10611,25185 10597,25201 10584,25219 10571,25237 10559,25255 10547,25273 10535,25292 10524,25311 10514,25330 10504,25349 10494,25369 10485,25389 10476,25409 10468,25429 10461,25449 10454,25470 10447,25491 10441,25512 10435,25533 10430,25554 10426,25576 10422,25597 10418,25619 10415,25640 10413,25662 10411,25684 10410,25706 10409,25728 10409,25749 10409,25771 10410,25793 10411,25815 10413,25838 10415,25860 10418,25881 10422,25903 10426,25924 10430,25946 10435,25967 10441,25988 10447,26009 10454,26030 10461,26051 10468,26071 10476,26091 10485,26111 10494,26131 10504,26151 10514,26170 10524,26190 10535,26208 10547,26227 10559,26245 10571,26263 10584,26281 10597,26299 10611,26315 10625,26332 10639,26349 10654,26365 10670,26380 10685,26395 10701,26410 10718,26425 10734,26439 10751,26453 10769,26466 10786,26479 10805,26491 10823,26503 10841,26514 10860,26525 10880,26536 10899,26546 10919,26556 10938,26565 10959,26573 10979,26581 10999,26589 11020,26596 11041,26603 11062,26609 11083,26614 11104,26619 11126,26624 11147,26628 11169,26631 11190,26634 11212,26637 11234,26639 11256,26640 11278,26641 11299,26641 11321,26641 11343,26640 11365,26639 11387,26637 11409,26634 11430,26631 11452,26628 11473,26624 11495,26619 11516,26614 11537,26609 11558,26603 11580,26596 11601,26589 11621,26581 11641,26573 11662,26565 11681,26556 11701,26546 11720,26536 11740,26525 11759,26514 11777,26503 11795,26491 11814,26479 11831,26466 11849,26453 11866,26439 11882,26425 11899,26410 11915,26395 11930,26380 11946,26365 11961,26349 11975,26332 11989,26315 12003,26299 12016,26281 12029,26263 12041,26245 12053,26227 12065,26208 12076,26190 12086,26170 12096,26151 12106,26131 12115,26111 12124,26091 12132,26071 12139,26051 12146,26030 12153,26009 12159,25988 12165,25967 12170,25946 12174,25924 12178,25903 12182,25881 12185,25860 12187,25838 12189,25815 12190,25793 12191,25771 12191,25750 Z"/>
   </g>
  </g>
  <g class="com.sun.star.drawing.PolyPolygonShape">
   <g id="id5">
    <rect class="BoundingBox" stroke="none" fill="none" x="10752" y="25350" width="1097" height="833"/>
    <path fill="rgb(0,0,0)" stroke="none" d="M 11783,25787 L 11783,25782 11782,25777 11781,25771 11779,25766 11776,25762 11774,25757 11771,25753 11767,25749 11763,25745 11759,25742 11754,25739 11749,25737 11744,25735 11739,25734 11734,25733 11729,25733 11723,25733 11718,25734 11713,25735 11708,25737 11703,25739 11699,25742 11694,25745 11690,25749 11687,25753 11684,25757 11681,25762 11679,25766 11677,25771 11676,25777 11675,25782 11674,25787 11675,25792 11676,25798 11677,25803 11679,25808 11681,25813 11684,25817 11687,25822 11690,25826 11694,25829 11699,25832 11703,25835 11708,25837 11713,25839 11718,25840 11723,25841 11729,25841 11734,25841 11739,25840 11744,25839 11749,25837 11754,25835 11759,25832 11763,25829 11767,25826 11771,25822 11774,25817 11776,25813 11779,25808 11781,25803 11782,25798 11783,25792 11783,25787 Z M 10926,25785 L 10925,25780 10925,25775 10923,25770 10921,25765 10919,25760 10916,25755 10913,25751 10910,25747 10906,25743 10901,25740 10897,25738 10892,25735 10887,25734 10882,25732 10877,25731 10871,25731 10866,25731 10861,25732 10855,25734 10850,25735 10846,25738 10841,25740 10837,25743 10833,25747 10829,25751 10826,25755 10823,25760 10821,25765 10819,25770 10818,25775 10817,25780 10817,25785 10817,25791 10818,25796 10819,25801 10821,25806 10823,25811 10826,25816 10829,25820 10833,25824 10837,25827 10841,25830 10846,25833 10850,25836 10855,25837 10861,25839 10866,25839 10871,25840 10877,25839 10882,25839 10887,25837 10892,25836 10897,25833 10901,25830 10906,25827 10910,25824 10913,25820 10916,25816 10919,25811 10921,25806 10923,25801 10925,25796 10925,25791 10926,25785 Z M 11761,25680 L 11628,25392 10972,25392 10835,25680 10892,25674 10950,25669 11008,25665 11065,25662 11123,25659 11181,25657 11239,25656 11297,25656 11355,25656 11413,25657 11471,25659 11530,25662 11588,25665 11645,25669 11703,25674 11761,25680 Z M 11589,25822 L 11019,25822 11019,25803 11589,25803 11589,25822 Z M 11580,25965 L 11020,25965 11020,25949 11580,25949 11580,25965 Z M 11693,25891 L 10905,25891 10905,25877 11693,25877 11693,25891 Z M 10926,26159 L 11674,26159 11674,26022 10926,26022 10926,26159 Z M 10946,25350 L 10825,25611 10807,25652 10804,25658 10800,25665 10796,25671 10792,25676 10783,25685 10775,25694 10766,25703 10757,25711 10756,25712 10755,25714 10755,25716 10754,25717 10753,25754 10752,25791 10752,25828 10752,25865 10753,25875 10753,25886 10754,25897 10756,25907 10760,25922 10764,25937 10768,25951 10772,25966 10777,25980 10783,25994 10788,26008 10795,26022 10818,26022 10818,26159 10756,26159 10756,26182 11844,26182 11844,26159 11782,26159 11782,26022 11805,26022 11812,26008 11817,25994 11823,25980 11828,25966 11832,25951 11836,25937 11840,25922 11844,25907 11845,25897 11847,25886 11847,25875 11847,25865 11848,25828 11848,25791 11847,25754 11846,25717 11845,25716 11845,25714 11844,25712 11843,25711 11834,25703 11825,25694 11816,25685 11808,25676 11804,25671 11800,25665 11796,25658 11793,25652 11775,25611 11653,25350 10946,25350 Z"/>
   </g>
  </g>
 </g>
</svg>