<?xml version="1.0" encoding="UTF-8"?>
<!DOCTYPE svg PUBLIC "-//W3C//DTD SVG 1.1//EN" "http://www.w3.org/Graphics/SVG/1.1/DTD/svg11.dtd">
<svg version="1.2" width="25.03mm" height="25.02mm" viewBox="13049 24500 2503 2502" preserveAspectRatio="xMidYMid" fill-rule="evenodd" stroke-width="28.222" stroke-linejoin="round" xmlns="http://www.w3.org/2000/svg" xmlns:ooo="http://xml.openoffice.org/svg/export" xmlns:xlink="http://www.w3.org/1999/xlink" xmlns:presentation="http://sun.com/xmlns/staroffice/presentation" xmlns:smil="http://www.w3.org/2001/SMIL20/" xmlns:anim="urn:oasis:names:tc:opendocument:xmlns:animation:1.0" xml:space="preserve">
 <defs class="EmbeddedBulletChars">
  <g id="bullet-char-template-57356" transform="scale(0.00048828125,-0.00048828125)">
   <path d="M 580,1141 L 1163,571 580,0 -4,571 580,1141 Z"/>
  </g>
  <g id="bullet-char-template-57354" transform="scale(0.00048828125,-0.00048828125)">
   <path d="M 8,1128 L 1137,1128 1137,0 8,0 8,1128 Z"/>
  </g>
  <g id="bullet-char-template-10146" transform="scale(0.00048828125,-0.00048828125)">
   <path d="M 174,0 L 602,739 174,1481 1456,739 174,0 Z M 1358,739 L 309,1346 659,739 1358,739 Z"/>
  </g>
  <g id="bullet-char-template-10132" transform="scale(0.00048828125,-0.00048828125)">
   <path d="M 2015,739 L 1276,0 717,0 1260,543 174,543 174,936 1260,936 717,1481 1274,1481 2015,739 Z"/>
  </g>
  <g id="bullet-char-template-10007" transform="scale(0.00048828125,-0.00048828125)">
   <path d="M 0,-2 C -7,14 -16,27 -25,37 L 356,567 C 262,823 215,952 215,954 215,979 228,992 255,992 264,992 276,990 289,987 310,991 331,999 354,1012 L 381,999 492,748 772,1049 836,1024 860,1049 C 881,1039 901,1025 922,1006 886,937 835,863 770,784 769,783 710,716 594,584 L 774,223 C 774,196 753,168 711,139 L 727,119 C 717,90 699,76 672,76 641,76 570,178 457,381 L 164,-76 C 142,-110 111,-127 72,-127 30,-127 9,-110 8,-76 1,-67 -2,-52 -2,-32 -2,-23 -1,-13 0,-2 Z"/>
  </g>
  <g id="bullet-char-template-10004" transform="scale(0.00048828125,-0.00048828125)">
   <path d="M 285,-33 C 182,-33 111,30 74,156 52,228 41,333 41,471 41,549 55,616 82,672 116,743 169,778 240,778 293,778 328,747 346,684 L 369,508 C 377,444 397,411 428,410 L 1163,1116 C 1174,1127 1196,1133 1229,1133 1271,1133 1292,1118 1292,1087 L 1292,965 C 1292,929 1282,901 1262,881 L 442,47 C 390,-6 338,-33 285,-33 Z"/>
  </g>
  <g id="bullet-char-template-9679" transform="scale(0.00048828125,-0.00048828125)">
   <path d="M 813,0 C 632,0 489,54 383,161 276,268 223,411 223,592 223,773 276,916 383,1023 489,1130 632,1184 813,1184 992,1184 1136,1130 1245,1023 1353,916 1407,772 1407,592 1407,412 1353,268 1245,161 1136,54 992,0 813,0 Z"/>
  </g>
  <g id="bullet-char-template-8226" transform="scale(0.00048828125,-0.00048828125)">
   <path d="M 346,457 C 273,457 209,483 155,535 101,586 74,649 74,723 74,796 101,859 155,911 209,963 273,989 346,989 419,989 480,963 531,910 582,859 608,796 608,723 608,648 583,586 532,535 482,483 420,457 346,457 Z"/>
  </g>
  <g id="bullet-char-template-8211" transform="scale(0.00048828125,-0.00048828125)">
   <path d="M -4,459 L 1135,459 1135,606 -4,606 -4,459 Z"/>
  </g>
  <g id="bullet-char-template-61548" transform="scale(0.00048828125,-0.00048828125)">
   <path d="M 173,740 C 173,903 231,1043 346,1159 462,1274 601,1332 765,1332 928,1332 1067,1274 1183,1159 1299,1043 1357,903 1357,740 1357,577 1299,437 1183,322 1067,206 928,148 765,148 601,148 462,206 346,322 231,437 173,577 173,740 Z"/>
  </g>
 </defs>
 <g class="Page">
  <g class="com.sun.star.drawing.PolyPolygonShape">
   <g id="id3">
    <rect class="BoundingBox" stroke="none" fill="none" x="13049" y="24500" width="2503" height="2502"/>
    <path fill="rgb(255,0,0)" stroke="none" d="M 15551,25750 L 15551,25719 15549,25688 15548,25658 15545,25627 15541,25596 15537,25566 15532,25536 15527,25506 15520,25476 15513,25446 15506,25416 15497,25387 15488,25357 15478,25328 15467,25300 15456,25271 15444,25243 15431,25215 15417,25187 15403,25160 15388,25133 15373,25107 15357,25081 15340,25055 15323,25030 15305,25005 15286,24980 15267,24956 15247,24933 15227,24910 15206,24888 15185,24866 15163,24844 15140,24823 15117,24803 15094,24783 15070,24764 15045,24745 15020,24728 14995,24710 14969,24693 14943,24677 14917,24662 14890,24647 14863,24633 14835,24620 14807,24607 14779,24595 14750,24583 14722,24573 14693,24563 14663,24553 14634,24545 14604,24537 14574,24530 14544,24523 14514,24518 14484,24513 14454,24509 14423,24505 14393,24503 14362,24501 14331,24500 14301,24500 14270,24500 14239,24501 14208,24503 14178,24505 14147,24509 14117,24513 14087,24518 14057,24523 14027,24530 13997,24537 13967,24545 13938,24553 13908,24563 13879,24573 13851,24583 13822,24595 13794,24607 13766,24620 13737,24633 13710,24647 13683,24662 13657,24677 13631,24693 13605,24710 13580,24728 13555,24745 13530,24764 13506,24783 13483,24803 13460,24823 13437,24844 13415,24866 13394,24888 13373,24910 13353,24933 13333,24956 13314,24980 13295,25005 13277,25030 13260,25055 13243,25081 13227,25107 13212,25133 13197,25160 13183,25187 13169,25215 13156,25243 13144,25271 13133,25300 13122,25328 13112,25357 13103,25387 13094,25416 13087,25446 13080,25476 13073,25506 13068,25536 13063,25566 13059,25596 13055,25627 13052,25658 13051,25688 13049,25719 13049,25749 13049,25780 13051,25811 13052,25841 13055,25872 13059,25903 13063,25933 13068,25963 13073,25993 13080,26023 13087,26053 13094,26083 13103,26112 13112,26142 13122,26171 13133,26199 13144,26228 13156,26257 13169,26285 13183,26313 13197,26340 13212,26367 13227,26393 13243,26419 13260,26445 13277,26470 13295,26495 13314,26520 13333,26544 13353,26567 13373,26590 13394,26612 13415,26634 13437,26656 13460,26677 13483,26697 13506,26717 13530,26736 13555,26755 13580,26772 13605,26790 13631,26807 13657,26823 13683,26838 13710,26853 13737,26867 13766,26880 13794,26893 13822,26905 13851,26917 13879,26927 13908,26937 13938,26947 13967,26955 13997,26963 14027,26970 14057,26977 14087,26982 14117,26987 14147,26991 14178,26995 14208,26997 14239,26999 14270,27000 14300,27001 14331,27000 14362,26999 14393,26997 14423,26995 14454,26991 14484,26987 14514,26982 14544,26977 14574,26970 14604,26963 14634,26955 14663,26947 14693,26937 14722,26927 14750,26917 14779,26905 14807,26893 14835,26880 14863,26867 14890,26853 14917,26838 14943,26823 14969,26807 14995,26790 15020,26772 15045,26755 15070,26736 15094,26717 15117,26697 15140,26677 15163,26656 15185,26634 15206,26612 15227,26590 15247,26567 15267,26544 15286,26520 15305,26495 15323,26470 15340,26445 15357,26419 15373,26393 15388,26367 15403,26340 15417,26313 15431,26285 15444,26257 15456,26228 15467,26199 15478,26171 15488,26142 15497,26112 15506,26083 15513,26053 15520,26023 15527,25993 15532,25963 15537,25933 15541,25903 15545,25872 15548,25841 15549,25811 15551,25780 15551,25750 Z"/>
   </g>
  </g>
  <g class="com.sun.star.drawing.PolyPolygonShape">
   <g id="id4">
    <rect class="BoundingBox" stroke="none" fill="none" x="13409" y="24859" width="1783" height="1784"/>
    <path fill="rgb(255,255,255)" stroke="none" d="M 15191,25750 L 15191,25728 15190,25706 15189,25684 15187,25662 15185,25640 15182,25619 15178,25597 15174,25576 15170,25554 15165,25533 15159,25512 15153,25491 15146,25470 15138,25449 15131,25429 15123,25409 15114,25389 15105,25369 15095,25349 15085,25330 15075,25311 15064,25292 15052,25273 15040,25255 15028,25237 15015,25219 15002,25201 14988,25185 14974,25168 14960,25151 14945,25135 14929,25120 14914,25105 14898,25090 14881,25075 14865,25061 14848,25047 14830,25034 14813,25021 14794,25009 14776,24997 14758,24986 14739,24975 14719,24964 14700,24954 14680,24944 14661,24935 14640,24927 14620,24919 14600,24911 14579,24904 14558,24897 14537,24891 14516,24886 14495,24881 14473,24876 14452,24872 14430,24869 14409,24866 14387,24863 14365,24861 14343,24860 14321,24859 14300,24859 14278,24859 14256,24860 14234,24861 14212,24863 14190,24866 14169,24869 14147,24872 14126,24876 14104,24881 14083,24886 14062,24891 14041,24897 14020,24904 13999,24911 13979,24919 13959,24927 13938,24935 13919,24944 13899,24954 13880,24964 13860,24975 13841,24986 13823,24997 13805,25009 13786,25021 13769,25034 13751,25047 13734,25061 13718,25075 13701,25090 13685,25105 13670,25120 13654,25135 13639,25151 13625,25168 13611,25185 13597,25201 13584,25219 13571,25237 13559,25255 13547,25273 13535,25292 13524,25311 13514,25330 13504,25349 13494,25369 13485,25389 13476,25409 13468,25429 13461,25449 13454,25470 13447,25491 13441,25512 13435,25533 13430,25554 13426,25576 13422,25597 13418,25619 13415,25640 13413,25662 13411,25684 13410,25706 13409,25728 13409,25749 13409,25771 13410,25793 13411,25815 13413,25838 13415,25860 13418,25881 13422,25903 13426,25924 13430,25946 13435,25967 13441,25988 13447,26009 13454,26030 13461,26051 13468,26071 13476,26091 13485,26111 13494,26131 13504,26151 13514,26170 13524,26190 13535,26208 13547,26227 13559,26245 13571,26263 13584,26281 13597,26299 13611,26315 13625,26332 13639,26349 13654,26365 13670,26380 13685,26395 13701,26410 13718,26425 13734,26439 13751,26453 13769,26466 13786,26479 13805,26491 13823,26503 13841,26514 13860,26525 13880,26536 13899,26546 13919,26556 13938,26565 13959,26573 13979,26581 13999,26589 14020,26596 14041,26603 14062,26609 14083,26614 14104,26619 14126,26624 14147,26628 14169,26631 14190,26634 14212,26637 14234,26639 14256,26640 14278,26641 14299,26641 14321,26641 14343,26640 14365,26639 14387,26637 14409,26634 14430,26631 14452,26628 14473,26624 14495,26619 14516,26614 14537,26609 14558,26603 14579,26596 14600,26589 14620,26581 14640,26573 14661,26565 14680,26556 14700,26546 14719,26536 14739,26525 14758,26514 14776,26503 14794,26491 14813,26479 14830,26466 14848,26453 14865,26439 14881,26425 14898,26410 14914,26395 14929,26380 14945,26365 14960,26349 14974,26332 14988,26315 15002,26299 15015,26281 15028,26263 15040,26245 15052,26227 15064,26208 15075,26190 15085,26170 15095,26151 15105,26131 15114,26111 15123,26091 15131,26071 15138,26051 15146,26030 15153,26009 15159,25988 15165,25967 15170,25946 15174,25924 15178,25903 15182,25881 15185,25860 15187,25838 15189,25815 15190,25793 15191,25771 15191,25750 Z"/>
   </g>
  </g>
  <g class="com.sun.star.drawing.PolyPolygonShape">
   <g id="id5">
    <rect class="BoundingBox" stroke="none" fill="none" x="13613" y="25319" width="1319" height="647"/>
    <path fill="rgb(0,0,0)" stroke="none" d="M 14074,25774 L 14131,25934 14462,25934 14557,25752 14539,25752 14452,25919 14147,25919 14094,25769 14074,25774 Z M 14751,25527 L 14931,25527 14922,25534 14913,25542 14905,25550 14897,25559 14890,25568 14883,25577 14876,25587 14870,25597 14864,25607 14859,25617 14854,25628 14850,25639 14846,25650 14843,25661 14840,25672 14838,25684 14824,25682 14809,25681 14794,25681 14780,25682 14765,25684 14751,25686 14736,25689 14722,25693 14708,25698 14695,25704 14682,25710 14669,25717 14656,25725 14645,25734 14633,25743 14622,25753 14612,25763 14602,25774 14593,25785 14584,25797 14577,25810 14570,25823 14564,25836 14558,25850 14553,25864 14549,25878 14546,25892 14544,25906 14542,25921 14542,25936 14542,25950 14543,25965 14090,25965 14091,25953 14091,25940 14091,25928 14090,25916 14089,25904 14087,25892 14084,25879 14082,25868 14078,25856 14074,25844 14069,25833 14064,25822 14059,25811 14053,25800 14046,25789 14039,25779 14039,25706 14030,25697 14021,25688 14012,25680 14002,25672 13991,25665 13981,25658 13970,25652 13958,25646 13934,25704 13920,25697 13906,25691 13930,25634 13919,25630 13908,25627 13898,25625 13887,25622 13876,25621 13864,25619 13853,25619 13842,25618 13831,25618 13820,25619 13808,25620 13797,25621 13786,25623 13775,25626 13764,25628 13753,25632 13743,25635 13732,25640 13722,25644 13712,25649 13702,25654 13693,25660 13683,25666 13674,25673 13666,25680 13657,25687 13649,25695 13641,25703 13634,25711 13626,25719 13620,25728 13613,25737 13620,25724 13627,25710 13634,25697 13642,25684 13650,25672 13658,25659 13667,25647 13677,25636 13686,25624 13697,25613 13707,25603 13718,25592 13729,25582 13741,25572 13752,25563 13765,25554 13777,25546 13790,25538 13803,25530 13816,25523 13830,25516 13844,25510 13858,25504 13872,25498 13886,25494 13900,25489 13915,25485 13929,25482 13944,25479 13959,25476 13974,25474 13989,25472 14049,25319 14075,25324 14075,25354 14173,25354 14173,25392 14075,25392 14043,25472 14137,25472 14188,25511 14188,25559 14200,25574 14213,25589 14226,25602 14240,25615 14254,25627 14270,25639 14285,25649 14302,25659 14319,25667 14336,25675 14354,25682 14372,25688 14390,25693 14409,25697 14427,25700 14446,25702 14465,25703 14484,25703 14503,25702 14522,25700 14541,25697 14559,25693 14577,25688 14595,25682 14613,25675 14630,25667 14647,25658 14664,25648 14679,25638 14695,25627 14709,25614 14723,25602 14729,25595 14735,25587 14740,25579 14744,25571 14747,25562 14749,25553 14751,25544 14751,25535 14751,25527 Z"/>
   </g>
  </g>
  <g class="com.sun.star.drawing.PolyPolygonShape">
   <g id="id6">
    <rect class="BoundingBox" stroke="none" fill="none" x="14581" y="25719" width="439" height="440"/>
    <path fill="rgb(0,0,0)" stroke="none" d="M 14894,25939 L 14894,25930 14893,25921 14890,25912 14887,25903 14883,25895 14878,25887 14873,25879 14867,25872 14860,25866 14853,25861 14845,25856 14836,25852 14828,25849 14819,25847 14810,25845 14800,25845 14791,25845 14782,25847 14773,25849 14765,25852 14756,25856 14748,25861 14741,25866 14734,25872 14728,25879 14723,25887 14718,25895 14714,25903 14711,25912 14708,25921 14707,25930 14707,25939 14707,25948 14708,25957 14711,25966 14714,25975 14718,25983 14723,25991 14728,25998 14734,26006 14741,26012 14748,26018 14756,26023 14765,26026 14773,26030 14782,26032 14791,26033 14800,26034 14810,26033 14819,26032 14828,26030 14836,26026 14845,26023 14853,26018 14860,26012 14867,26006 14873,25998 14878,25991 14883,25983 14887,25975 14890,25966 14893,25957 14894,25948 14894,25939 Z M 15019,25939 L 15019,25928 15018,25917 15017,25907 15015,25896 15013,25886 15010,25875 15006,25865 15003,25855 14998,25845 14993,25836 14988,25826 14982,25817 14976,25809 14970,25800 14963,25792 14955,25784 14947,25777 14939,25770 14931,25763 14922,25757 14913,25751 14904,25746 14894,25741 14884,25737 14874,25733 14864,25729 14854,25727 14843,25724 14833,25722 14822,25721 14811,25720 14800,25720 14790,25720 14779,25721 14768,25722 14758,25724 14747,25727 14737,25729 14727,25733 14717,25737 14707,25741 14697,25746 14688,25751 14679,25757 14670,25763 14662,25770 14654,25777 14646,25784 14637,25792 14630,25800 14624,25809 14618,25817 14612,25826 14607,25836 14602,25845 14597,25855 14593,25865 14590,25875 14587,25886 14585,25896 14583,25907 14582,25917 14581,25928 14581,25939 14581,25950 14582,25960 14583,25971 14585,25981 14587,25992 14590,26003 14593,26013 14597,26024 14602,26033 14607,26043 14612,26052 14618,26061 14624,26070 14630,26079 14637,26087 14646,26095 14654,26102 14662,26109 14670,26115 14679,26122 14688,26128 14697,26133 14707,26138 14717,26142 14727,26146 14737,26149 14747,26152 14758,26154 14768,26156 14779,26157 14790,26158 14800,26158 14811,26158 14822,26157 14833,26156 14843,26154 14854,26152 14864,26149 14874,26146 14884,26142 14894,26138 14904,26133 14913,26128 14922,26122 14931,26115 14939,26109 14947,26102 14955,26095 14963,26087 14970,26079 14976,26070 14982,26061 14988,26052 14993,26043 14998,26033 15003,26024 15006,26013 15010,26003 15013,25992 15015,25981 15017,25971 15018,25960 15019,25950 15019,25939 Z"/>
   </g>
  </g>
  <g class="com.sun.star.drawing.PolyPolygonShape">
   <g id="id7">
    <rect class="BoundingBox" stroke="none" fill="none" x="13598" y="25719" width="441" height="440"/>
    <path fill="rgb(0,0,0)" stroke="none" d="M 13913,25939 L 13912,25930 13911,25921 13909,25912 13905,25903 13902,25895 13897,25887 13891,25879 13885,25872 13878,25866 13871,25861 13863,25856 13855,25852 13846,25849 13837,25847 13828,25845 13819,25845 13810,25845 13801,25847 13792,25849 13783,25852 13775,25856 13767,25861 13758,25866 13752,25872 13745,25879 13740,25887 13735,25895 13731,25903 13728,25912 13726,25921 13725,25930 13724,25939 13725,25948 13726,25957 13728,25966 13731,25975 13735,25983 13740,25991 13745,25998 13752,26006 13758,26012 13767,26018 13775,26023 13783,26026 13792,26030 13801,26032 13810,26033 13819,26034 13828,26033 13837,26032 13846,26030 13855,26026 13863,26023 13871,26018 13878,26012 13885,26006 13891,25998 13897,25991 13902,25983 13905,25975 13909,25966 13911,25957 13912,25948 13913,25939 Z M 14038,25939 L 14037,25928 14037,25917 14035,25907 14033,25896 14031,25886 14028,25875 14025,25865 14021,25855 14017,25845 14012,25836 14007,25826 14001,25817 13995,25809 13988,25800 13981,25792 13974,25784 13966,25777 13958,25770 13949,25763 13940,25757 13931,25751 13922,25746 13913,25741 13903,25737 13893,25733 13882,25729 13872,25727 13862,25724 13851,25722 13840,25721 13830,25720 13819,25720 13808,25720 13798,25721 13787,25722 13776,25724 13765,25727 13754,25729 13744,25733 13734,25737 13724,25741 13715,25746 13705,25751 13696,25757 13687,25763 13679,25770 13671,25777 13663,25784 13656,25792 13649,25800 13642,25809 13636,25817 13630,25826 13625,25836 13620,25845 13616,25855 13612,25865 13609,25875 13606,25886 13603,25896 13602,25907 13600,25917 13599,25928 13599,25939 13599,25950 13600,25960 13602,25971 13603,25981 13606,25992 13609,26003 13612,26013 13616,26024 13620,26033 13625,26043 13630,26052 13636,26061 13642,26070 13649,26079 13656,26087 13663,26095 13671,26102 13679,26109 13687,26115 13696,26122 13705,26128 13715,26133 13724,26138 13734,26142 13744,26146 13754,26149 13765,26152 13776,26154 13787,26156 13798,26157 13808,26158 13819,26158 13830,26158 13840,26157 13851,26156 13862,26154 13872,26152 13882,26149 13893,26146 13903,26142 13913,26138 13922,26133 13931,26128 13940,26122 13949,26115 13958,26109 13966,26102 13974,26095 13981,26087 13988,26079 13995,26070 14001,26061 14007,26052 14012,26043 14017,26033 14021,26024 14025,26013 14028,26003 14031,25992 14033,25981 14035,25971 14037,25960 14037,25950 14038,25939 Z"/>
   </g>
  </g>
  <g class="com.sun.star.drawing.PolyPolygonShape">
   <g id="id8">
    <rect class="BoundingBox" stroke="none" fill="none" x="14249" y="25540" width="454" height="119"/>
    <path fill="rgb(0,0,0)" stroke="none" d="M 14702,25540 L 14692,25553 14680,25565 14669,25577 14657,25588 14644,25599 14631,25608 14618,25617 14603,25624 14589,25632 14574,25638 14559,25643 14543,25648 14527,25652 14511,25655 14495,25656 14479,25657 14463,25658 14447,25657 14430,25655 14414,25653 14399,25649 14383,25645 14368,25640 14353,25634 14338,25627 14324,25619 14310,25611 14296,25602 14284,25592 14271,25581 14260,25569 14249,25557 14262,25563 14276,25569 14289,25574 14303,25580 14317,25585 14331,25589 14346,25593 14360,25596 14374,25599 14389,25601 14404,25603 14418,25605 14433,25606 14448,25607 14462,25607 14477,25606 14492,25606 14507,25604 14521,25603 14536,25601 14550,25598 14565,25595 14579,25592 14593,25588 14607,25583 14621,25579 14635,25572 14649,25567 14662,25561 14675,25554 14689,25547 14702,25540 Z"/>
   </g>
  </g>
 </g>
</svg>