<?xml version="1.0" encoding="UTF-8"?>
<!DOCTYPE svg PUBLIC "-//W3C//DTD SVG 1.1//EN" "http://www.w3.org/Graphics/SVG/1.1/DTD/svg11.dtd">
<svg version="1.2" width="25.03mm" height="25.02mm" viewBox="16049 24500 2503 2502" preserveAspectRatio="xMidYMid" fill-rule="evenodd" stroke-width="28.222" stroke-linejoin="round" xmlns="http://www.w3.org/2000/svg" xmlns:ooo="http://xml.openoffice.org/svg/export" xmlns:xlink="http://www.w3.org/1999/xlink" xmlns:presentation="http://sun.com/xmlns/staroffice/presentation" xmlns:smil="http://www.w3.org/2001/SMIL20/" xmlns:anim="urn:oasis:names:tc:opendocument:xmlns:animation:1.0" xml:space="preserve">
 <defs class="EmbeddedBulletChars">
  <g id="bullet-char-template-57356" transform="scale(0.00048828125,-0.00048828125)">
   <path d="M 580,1141 L 1163,571 580,0 -4,571 580,1141 Z"/>
  </g>
  <g id="bullet-char-template-57354" transform="scale(0.00048828125,-0.00048828125)">
   <path d="M 8,1128 L 1137,1128 1137,0 8,0 8,1128 Z"/>
  </g>
  <g id="bullet-char-template-10146" transform="scale(0.00048828125,-0.00048828125)">
   <path d="M 174,0 L 602,739 174,1481 1456,739 174,0 Z M 1358,739 L 309,1346 659,739 1358,739 Z"/>
  </g>
  <g id="bullet-char-template-10132" transform="scale(0.00048828125,-0.00048828125)">
   <path d="M 2015,739 L 1276,0 717,0 1260,543 174,543 174,936 1260,936 717,1481 1274,1481 2015,739 Z"/>
  </g>
  <g id="bullet-char-template-10007" transform="scale(0.00048828125,-0.00048828125)">
   <path d="M 0,-2 C -7,14 -16,27 -25,37 L 356,567 C 262,823 215,952 215,954 215,979 228,992 255,992 264,992 276,990 289,987 310,991 331,999 354,1012 L 381,999 492,748 772,1049 836,1024 860,1049 C 881,1039 901,1025 922,1006 886,937 835,863 770,784 769,783 710,716 594,584 L 774,223 C 774,196 753,168 711,139 L 727,119 C 717,90 699,76 672,76 641,76 570,178 457,381 L 164,-76 C 142,-110 111,-127 72,-127 30,-127 9,-110 8,-76 1,-67 -2,-52 -2,-32 -2,-23 -1,-13 0,-2 Z"/>
  </g>
  <g id="bullet-char-template-10004" transform="scale(0.00048828125,-0.00048828125)">
   <path d="M 285,-33 C 182,-33 111,30 74,156 52,228 41,333 41,471 41,549 55,616 82,672 116,743 169,778 240,778 293,778 328,747 346,684 L 369,508 C 377,444 397,411 428,410 L 1163,1116 C 1174,1127 1196,1133 1229,1133 1271,1133 1292,1118 1292,1087 L 1292,965 C 1292,929 1282,901 1262,881 L 442,47 C 390,-6 338,-33 285,-33 Z"/>
  </g>
  <g id="bullet-char-template-9679" transform="scale(0.00048828125,-0.00048828125)">
   <path d="M 813,0 C 632,0 489,54 383,161 276,268 223,411 223,592 223,773 276,916 383,1023 489,1130 632,1184 813,1184 992,1184 1136,1130 1245,1023 1353,916 1407,772 1407,592 1407,412 1353,268 1245,161 1136,54 992,0 813,0 Z"/>
  </g>
  <g id="bullet-char-template-8226" transform="scale(0.00048828125,-0.00048828125)">
   <path d="M 346,457 C 273,457 209,483 155,535 101,586 74,649 74,723 74,796 101,859 155,911 209,963 273,989 346,989 419,989 480,963 531,910 582,859 608,796 608,723 608,648 583,586 532,535 482,483 420,457 346,457 Z"/>
  </g>
  <g id="bullet-char-template-8211" transform="scale(0.00048828125,-0.00048828125)">
   <path d="M -4,459 L 1135,459 1135,606 -4,606 -4,459 Z"/>
  </g>
  <g id="bullet-char-template-61548" transform="scale(0.00048828125,-0.00048828125)">
   <path d="M 173,740 C 173,903 231,1043 346,1159 462,1274 601,1332 765,1332 928,1332 1067,1274 1183,1159 1299,1043 1357,903 1357,740 1357,577 1299,437 1183,322 1067,206 928,148 765,148 601,148 462,206 346,322 231,437 173,577 173,740 Z"/>
  </g>
 </defs>
 <g class="Page">
  <g class="com.sun.star.drawing.PolyPolygonShape">
   <g id="id3">
    <rect class="BoundingBox" stroke="none" fill="none" x="16049" y="24500" width="2503" height="2502"/>
    <path fill="rgb(255,0,0)" stroke="none" d="M 18551,25750 L 18551,25719 18549,25688 18548,25658 18545,25627 18541,25596 18537,25566 18532,25536 18527,25506 18521,25476 18513,25446 18506,25416 18497,25387 18488,25357 18478,25328 18467,25300 18456,25271 18444,25243 18431,25215 18417,25187 18403,25160 18388,25133 18373,25107 18357,25081 18340,25055 18323,25030 18305,25005 18286,24980 18267,24956 18247,24933 18227,24910 18206,24888 18185,24866 18163,24844 18140,24823 18117,24803 18094,24783 18070,24764 18045,24745 18020,24728 17995,24710 17969,24693 17943,24677 17917,24662 17890,24647 17863,24633 17835,24620 17807,24607 17779,24595 17750,24583 17722,24573 17693,24563 17663,24553 17634,24545 17604,24537 17574,24530 17544,24523 17514,24518 17484,24513 17454,24509 17423,24505 17393,24503 17362,24501 17331,24500 17301,24500 17270,24500 17239,24501 17208,24503 17178,24505 17147,24509 17117,24513 17087,24518 17057,24523 17027,24530 16997,24537 16967,24545 16938,24553 16908,24563 16879,24573 16851,24583 16822,24595 16794,24607 16766,24620 16738,24633 16711,24647 16684,24662 16658,24677 16632,24693 16606,24710 16581,24728 16556,24745 16531,24764 16507,24783 16484,24803 16461,24823 16438,24844 16416,24866 16395,24888 16374,24910 16354,24933 16334,24956 16315,24980 16296,25005 16278,25030 16261,25055 16243,25081 16227,25107 16212,25133 16197,25160 16183,25187 16169,25215 16156,25243 16144,25271 16133,25300 16122,25328 16112,25357 16103,25387 16094,25416 16087,25446 16080,25476 16073,25506 16068,25536 16063,25566 16059,25596 16055,25627 16052,25658 16051,25688 16049,25719 16049,25749 16049,25780 16051,25811 16052,25841 16055,25872 16059,25903 16063,25933 16068,25963 16073,25993 16080,26023 16087,26053 16094,26083 16103,26112 16112,26142 16122,26171 16133,26199 16144,26228 16156,26257 16169,26285 16183,26313 16197,26340 16212,26367 16227,26393 16243,26419 16261,26445 16278,26470 16296,26495 16315,26520 16334,26544 16354,26567 16374,26590 16395,26612 16416,26634 16438,26656 16461,26677 16484,26697 16507,26717 16531,26736 16556,26755 16581,26772 16606,26790 16632,26807 16658,26823 16684,26838 16711,26853 16738,26867 16766,26880 16794,26893 16822,26905 16851,26917 16879,26927 16908,26937 16938,26947 16967,26955 16997,26963 17027,26970 17057,26977 17087,26982 17117,26987 17147,26991 17178,26995 17208,26997 17239,26999 17270,27000 17300,27001 17331,27000 17362,26999 17393,26997 17423,26995 17454,26991 17484,26987 17514,26982 17544,26977 17574,26970 17604,26963 17634,26955 17663,26947 17693,26937 17722,26927 17750,26917 17779,26905 17807,26893 17835,26880 17863,26867 17890,26853 17917,26838 17943,26823 17969,26807 17995,26790 18020,26772 18045,26755 18070,26736 18094,26717 18117,26697 18140,26677 18163,26656 18185,26634 18206,26612 18227,26590 18247,26567 18267,26544 18286,26520 18305,26495 18323,26470 18340,26445 18357,26419 18373,26393 18388,26367 18403,26340 18417,26313 18431,26285 18444,26257 18456,26228 18467,26199 18478,26171 18488,26142 18497,26112 18506,26083 18513,26053 18521,26023 18527,25993 18532,25963 18537,25933 18541,25903 18545,25872 18548,25841 18549,25811 18551,25780 18551,25750 Z"/>
   </g>
  </g>
  <g class="com.sun.star.drawing.PolyPolygonShape">
   <g id="id4">
    <rect class="BoundingBox" stroke="none" fill="none" x="16406" y="24857" width="1789" height="1787"/>
    <path fill="rgb(255,255,255)" stroke="none" d="M 18194,25750 L 18193,25728 18193,25706 18191,25684 18189,25662 18187,25640 18184,25618 18181,25597 18176,25575 18172,25554 18167,25533 18161,25511 18155,25490 18149,25469 18141,25449 18134,25428 18126,25408 18117,25388 18108,25368 18098,25348 18088,25329 18078,25309 18067,25291 18055,25272 18043,25253 18031,25235 18018,25218 18005,25200 17991,25183 17977,25166 17962,25150 17947,25134 17932,25118 17916,25103 17900,25088 17884,25073 17867,25059 17850,25046 17832,25032 17815,25020 17797,25007 17778,24995 17760,24984 17741,24973 17721,24962 17702,24952 17682,24942 17662,24933 17642,24925 17622,24916 17601,24909 17581,24902 17560,24895 17539,24889 17518,24883 17496,24878 17475,24874 17453,24870 17432,24866 17410,24863 17388,24861 17366,24859 17344,24858 17322,24857 17301,24857 17279,24857 17257,24858 17235,24859 17213,24861 17191,24863 17169,24866 17148,24870 17126,24874 17105,24878 17083,24883 17062,24889 17041,24895 17020,24902 17000,24909 16979,24916 16958,24925 16938,24933 16918,24942 16898,24952 16879,24962 16859,24973 16840,24984 16822,24995 16803,25007 16785,25020 16768,25032 16750,25046 16733,25059 16716,25073 16700,25088 16684,25103 16668,25118 16653,25134 16638,25150 16623,25166 16609,25183 16595,25200 16582,25218 16569,25235 16557,25253 16545,25272 16533,25291 16522,25309 16512,25329 16502,25348 16492,25368 16483,25388 16474,25408 16466,25428 16459,25449 16451,25469 16445,25490 16439,25511 16433,25533 16428,25554 16424,25575 16419,25597 16416,25618 16413,25640 16411,25662 16409,25684 16407,25706 16407,25728 16406,25749 16407,25771 16407,25793 16409,25815 16411,25837 16413,25859 16416,25881 16419,25903 16424,25925 16428,25946 16433,25968 16439,25989 16445,26010 16451,26031 16459,26051 16466,26072 16474,26092 16483,26112 16492,26132 16502,26152 16512,26171 16522,26191 16533,26210 16545,26228 16557,26247 16569,26265 16582,26282 16595,26300 16609,26317 16623,26334 16638,26350 16653,26366 16668,26382 16684,26397 16700,26412 16716,26427 16733,26441 16750,26454 16768,26468 16785,26481 16803,26493 16822,26505 16840,26516 16859,26527 16879,26538 16898,26548 16918,26558 16938,26567 16958,26575 16979,26584 17000,26591 17020,26598 17041,26605 17062,26611 17083,26617 17105,26622 17126,26626 17148,26630 17169,26634 17191,26637 17213,26639 17235,26641 17257,26642 17279,26643 17300,26643 17322,26643 17344,26642 17366,26641 17388,26639 17410,26637 17432,26634 17453,26630 17475,26626 17496,26622 17518,26617 17539,26611 17560,26605 17581,26598 17601,26591 17622,26584 17642,26575 17662,26567 17682,26558 17702,26548 17721,26538 17741,26527 17760,26516 17778,26505 17797,26493 17815,26481 17832,26468 17850,26454 17867,26441 17884,26427 17900,26412 17916,26397 17932,26382 17947,26366 17962,26350 17977,26334 17991,26317 18005,26300 18018,26282 18031,26265 18043,26247 18055,26228 18067,26210 18078,26191 18088,26171 18098,26152 18108,26132 18117,26112 18126,26092 18134,26072 18141,26051 18149,26031 18155,26010 18161,25989 18167,25968 18172,25946 18176,25925 18181,25903 18184,25881 18187,25859 18189,25837 18191,25815 18193,25793 18193,25771 18194,25750 Z"/>
   </g>
  </g>
  <g class="com.sun.star.drawing.PolyPolygonShape">
   <g id="id5">
    <rect class="BoundingBox" stroke="none" fill="none" x="16581" y="25175" width="1439" height="1008"/>
    <path fill="rgb(0,0,0)" stroke="none" d="M 17910,25719 L 17899,25734 17888,25728 17878,25723 17867,25717 17855,25713 17844,25709 17832,25706 17821,25704 17809,25702 17797,25701 17784,25700 17772,25700 17760,25701 17748,25702 17736,25704 17725,25707 17713,25710 17707,25693 17719,25690 17732,25686 17745,25684 17758,25683 17771,25682 17785,25682 17798,25682 17811,25684 17824,25686 17837,25688 17850,25692 17862,25696 17875,25701 17887,25706 17898,25712 17910,25719 Z M 17734,25768 L 17772,25869 17779,25869 17786,25869 17793,25870 17800,25872 17863,25784 17856,25780 17848,25776 17841,25773 17833,25770 17825,25767 17817,25765 17809,25764 17800,25762 17792,25762 17784,25761 17775,25761 17767,25762 17759,25762 17751,25764 17742,25766 17734,25768 Z M 17746,25880 L 17742,25884 17738,25888 17735,25892 17732,25897 17729,25902 17727,25908 17726,25914 17725,25919 17617,25919 17618,25908 17620,25897 17622,25886 17625,25876 17628,25865 17633,25855 17638,25845 17643,25836 17649,25827 17656,25818 17664,25810 17672,25802 17680,25795 17689,25789 17699,25783 17708,25778 17746,25880 Z M 17880,25796 L 17888,25802 17895,25809 17902,25816 17909,25824 17915,25832 17920,25841 17925,25849 17929,25858 17933,25868 17936,25877 17939,25887 17941,25897 17942,25907 17943,25917 17943,25927 17942,25937 17941,25947 17940,25957 17937,25967 17934,25976 17931,25986 17927,25995 17922,26004 17917,26012 17911,26021 17905,26028 17898,26036 17891,26043 17884,26050 17876,26056 17867,26061 17859,26066 17850,26071 17840,26075 17831,26079 17821,26081 17811,26084 17802,26085 17792,26086 17782,26087 17771,26086 17762,26086 17752,26084 17742,26082 17732,26079 17723,26076 17713,26072 17704,26068 17695,26063 17687,26057 17679,26052 17671,26045 17664,26038 17657,26031 17651,26023 17645,26015 17640,26006 17635,25997 17631,25988 17627,25979 17624,25970 17621,25960 17619,25950 17618,25940 17727,25940 17729,25946 17732,25952 17736,25957 17740,25962 17744,25966 17749,25970 17755,25973 17761,25976 17767,25978 17773,25979 17779,25979 17786,25979 17792,25978 17798,25976 17804,25974 17809,25971 17815,25967 17819,25963 17824,25958 17827,25953 17830,25947 17833,25941 17834,25935 17835,25929 17835,25923 17835,25916 17834,25910 17832,25904 17829,25898 17826,25893 17822,25888 17817,25883 17880,25796 Z M 16900,25896 L 16904,25901 16907,25907 16910,25913 16912,25919 17022,25919 17021,25912 17020,25904 17018,25897 17017,25889 17014,25882 17012,25875 17009,25868 17006,25861 17003,25854 16999,25848 16995,25841 16990,25835 16986,25829 16981,25824 16976,25818 16970,25813 16900,25896 Z M 17020,25754 L 17029,25762 17037,25770 17045,25779 17052,25788 17059,25798 17066,25808 17072,25818 17077,25828 17082,25839 17086,25850 17090,25861 17093,25873 17096,25884 17098,25896 17100,25907 17101,25919 17083,25919 17083,25908 17081,25897 17079,25887 17077,25876 17074,25866 17070,25855 17066,25845 17062,25835 17057,25826 17051,25816 17046,25807 17039,25798 17032,25789 17025,25781 17018,25773 17010,25766 17020,25754 Z M 16834,25673 L 16653,25673 16699,25727 16707,25721 16714,25716 16722,25711 16730,25706 16738,25702 16746,25698 16754,25694 16763,25690 16771,25687 16780,25684 16789,25681 16797,25679 16806,25677 16815,25675 16824,25674 16834,25673 Z M 17004,25740 L 16994,25753 16987,25747 16979,25742 16971,25738 16963,25733 16955,25729 16947,25726 16938,25722 16930,25719 16921,25717 16912,25714 16903,25712 16894,25711 16885,25709 16876,25709 16867,25708 16858,25708 16849,25708 16840,25709 16831,25710 16822,25711 16813,25713 16804,25715 16795,25717 16787,25720 16778,25723 16770,25727 16762,25731 16753,25735 16746,25739 16738,25744 16730,25749 16723,25755 16714,25744 16722,25738 16730,25733 16738,25728 16746,25723 16755,25718 16764,25714 16773,25710 16782,25707 16791,25704 16801,25701 16810,25699 16820,25697 16829,25696 16839,25694 16849,25694 16858,25693 16868,25693 16878,25694 16888,25695 16897,25696 16907,25698 16916,25700 16926,25702 16935,25705 16944,25708 16953,25712 16962,25716 16971,25720 16979,25725 16988,25730 16996,25735 17004,25741 17004,25740 Z M 16954,25800 L 16883,25884 16877,25881 16871,25879 16865,25879 16859,25878 16852,25879 16846,25880 16840,25882 16834,25885 16763,25802 16773,25794 16785,25788 16796,25782 16808,25778 16820,25774 16833,25772 16845,25770 16858,25770 16871,25770 16884,25771 16896,25774 16909,25777 16921,25781 16932,25787 16943,25793 16954,25800 Z M 16818,25898 L 16814,25903 16811,25909 16809,25914 16807,25920 16806,25926 16806,25933 16806,25939 16808,25945 16809,25951 16812,25956 16815,25962 16819,25967 16823,25971 16828,25975 16833,25979 16838,25981 16844,25984 16850,25985 16856,25986 16862,25986 16868,25985 16874,25984 16880,25982 16886,25979 16891,25976 16896,25972 16900,25968 16904,25963 16907,25957 16910,25952 16912,25946 16913,25940 17022,25940 17021,25950 17020,25960 17018,25969 17016,25979 17012,25988 17009,25997 17004,26006 17000,26015 16994,26023 16989,26031 16982,26039 16976,26046 16968,26053 16961,26059 16953,26065 16945,26071 16936,26076 16927,26080 16918,26084 16908,26087 16899,26090 16889,26092 16880,26093 16870,26094 16860,26095 16850,26094 16840,26093 16830,26092 16821,26090 16811,26087 16802,26084 16793,26080 16784,26076 16775,26071 16767,26065 16759,26059 16751,26053 16744,26046 16737,26039 16731,26031 16725,26023 16720,26015 16715,26006 16711,25997 16707,25988 16704,25979 16702,25969 16700,25960 16698,25950 16697,25940 16697,25930 16698,25920 16699,25910 16700,25901 16702,25891 16705,25881 16709,25872 16713,25863 16717,25854 16722,25846 16728,25837 16734,25830 16740,25822 16747,25815 16818,25898 Z M 17538,25919 L 17539,25902 17541,25885 17544,25868 17549,25852 17554,25836 17561,25820 17569,25805 17578,25790 17588,25777 17599,25763 17610,25751 17623,25739 17636,25729 17650,25719 17665,25711 17680,25703 17687,25720 17673,25727 17659,25735 17647,25744 17634,25754 17623,25765 17612,25776 17602,25788 17593,25801 17585,25814 17578,25828 17571,25843 17566,25857 17562,25873 17559,25888 17557,25903 17556,25919 17538,25919 Z M 17578,25641 L 17588,25644 17598,25646 17608,25646 17618,25646 17627,25644 17637,25642 17646,25639 17655,25634 17630,25566 17404,25612 17399,25614 17394,25615 17388,25616 17383,25616 17377,25616 17372,25616 17367,25615 17361,25614 17356,25613 17351,25611 17346,25609 17341,25607 17336,25604 17332,25600 17328,25597 17324,25593 17279,25561 17280,25576 17280,25591 17280,25606 17278,25621 17275,25636 17271,25650 17266,25666 17261,25680 17270,25684 17280,25687 17290,25690 17300,25692 17310,25694 17321,25695 17331,25695 17341,25695 17352,25694 17362,25692 17372,25690 17382,25688 17392,25684 17402,25680 17411,25676 17420,25671 17471,25641 17477,25638 17483,25634 17490,25632 17497,25630 17504,25628 17510,25627 17518,25626 17525,25626 17532,25626 17539,25627 17546,25628 17553,25630 17559,25632 17566,25635 17572,25638 17578,25641 Z M 17175,26048 L 17181,26058 17187,26067 17194,26076 17202,26085 17207,26089 17213,26094 17219,26098 17225,26102 17232,26105 17238,26108 17245,26111 17252,26113 17259,26115 17266,26117 17273,26118 17281,26118 17288,26119 17295,26119 17303,26118 17310,26117 17345,26115 17350,26114 17355,26113 17360,26112 17365,26111 17370,26108 17375,26106 17379,26103 17383,26100 17387,26096 17391,26092 17394,26088 17396,26083 17399,26079 17401,26074 17402,26069 17403,26063 17411,26035 17412,26032 17414,26028 17415,26025 17417,26022 17419,26019 17422,26016 17425,26013 17428,26011 17431,26009 17434,26007 17438,26006 17441,26004 17445,26003 17449,26003 17452,26003 17456,26003 17475,26002 17481,26003 17488,26003 17494,26002 17500,26000 17506,25998 17512,25995 17517,25991 17522,25987 17526,25982 17530,25977 17533,25971 17536,25965 17537,25959 17538,25953 17539,25946 17538,25940 17557,25940 17558,25949 17559,25958 17560,25967 17562,25976 17564,25985 17566,25994 17569,26003 17572,26012 17576,26020 17580,26028 17584,26037 17589,26045 17594,26053 17599,26060 17605,26068 17610,26075 17616,26082 17623,26088 17630,26095 17636,26101 17644,26106 17651,26112 17659,26117 17666,26122 17674,26127 17683,26131 17691,26135 17700,26138 17708,26142 17717,26145 17726,26147 17735,26149 16915,26149 16924,26147 16932,26144 16941,26141 16949,26137 16957,26134 16965,26130 16973,26125 16981,26121 16988,26115 16996,26110 17003,26105 17009,26099 17016,26093 17022,26086 17029,26079 17034,26073 17040,26065 17045,26058 17050,26051 17054,26043 17059,26035 17063,26027 17066,26019 17070,26010 17073,26002 17075,25993 17078,25984 17079,25976 17081,25967 17082,25958 17083,25949 17084,25940 17100,25940 17100,25945 17100,25950 17101,25955 17102,25959 17103,25964 17105,25969 17107,25973 17109,25978 17112,25982 17115,25985 17119,25989 17123,25992 17126,25995 17131,25998 17135,26000 17139,26002 17143,26003 17146,26004 17150,26006 17153,26008 17155,26010 17158,26013 17159,26016 17161,26020 17175,26048 Z M 18019,26182 L 18019,26149 17830,26149 17846,26145 17861,26140 17876,26134 17891,26127 17905,26118 17918,26109 17931,26099 17943,26088 17954,26076 17965,26063 17974,26050 17982,26036 17989,26021 17996,26006 18001,25991 18005,25975 18007,25959 18009,25943 18009,25927 18009,25911 18007,25895 18004,25879 18000,25863 17995,25848 17988,25833 17981,25818 17973,25804 17962,25791 17952,25779 17941,25767 17929,25756 17916,25746 17927,25731 17936,25739 17946,25747 17957,25735 17946,25725 17935,25716 17923,25708 17910,25700 17898,25693 17884,25687 17871,25681 17857,25676 17857,25632 17735,25632 17735,25669 17727,25670 17718,25672 17709,25675 17701,25677 17671,25596 17682,25600 17692,25602 17702,25604 17712,25605 17722,25605 17724,25604 17726,25604 17728,25603 17729,25602 17730,25600 17731,25599 17732,25597 17732,25595 17734,25588 17735,25582 17735,25575 17736,25569 17736,25562 17736,25555 17735,25549 17735,25542 17734,25540 17733,25538 17732,25536 17730,25535 17729,25534 17727,25533 17724,25533 17722,25533 17718,25533 17714,25534 17711,25535 17707,25536 17703,25537 17699,25539 17696,25541 17693,25543 17676,25555 17661,25569 17649,25537 17574,25553 17558,25536 17554,25534 17550,25534 17536,25533 17521,25534 17507,25536 17494,25539 17486,25541 17478,25544 17470,25545 17462,25547 17454,25548 17446,25548 17438,25549 17430,25548 17421,25548 17413,25547 17405,25546 17397,25544 17389,25542 17381,25540 17374,25537 17366,25534 17357,25529 17347,25523 17338,25517 17330,25510 17322,25503 17314,25496 17307,25487 17300,25479 17293,25470 17288,25461 17282,25451 17278,25441 17274,25431 17270,25421 17267,25411 17265,25400 17265,25390 17265,25386 17267,25382 17269,25378 17272,25375 17275,25372 17279,25370 17283,25368 17287,25368 17292,25368 17296,25369 17300,25368 17305,25368 17305,25339 17324,25341 17324,25331 17324,25322 17324,25312 17323,25303 17326,25296 17328,25290 17330,25283 17332,25277 17335,25273 17337,25270 17337,25261 17336,25252 17334,25243 17331,25234 17327,25226 17323,25218 17318,25211 17312,25204 17306,25198 17299,25192 17291,25187 17283,25183 17275,25180 17266,25177 17257,25176 17249,25175 17240,25175 17231,25176 17222,25177 17213,25180 17205,25183 17197,25187 17189,25192 17182,25198 17176,25204 17170,25211 17165,25218 17161,25226 17157,25234 17154,25243 17152,25252 17151,25261 17158,25262 17155,25272 17153,25283 17153,25293 17154,25303 17155,25314 17158,25323 17163,25333 17168,25342 17172,25353 17174,25365 17175,25368 17176,25371 17175,25374 17174,25377 17173,25379 17171,25382 17168,25384 17166,25385 17158,25386 17152,25388 17145,25390 17139,25394 17131,25400 17123,25407 17116,25415 17109,25422 17102,25430 17095,25438 17089,25447 17083,25455 17078,25464 17073,25473 17068,25482 17063,25492 17059,25501 17056,25511 17052,25521 17049,25531 17044,25552 17039,25574 17035,25596 17032,25618 17029,25640 17028,25663 17028,25686 17028,25708 16999,25708 16999,25651 16983,25651 16983,25616 16966,25616 16966,25651 16605,25651 16605,25673 16626,25673 16683,25740 16674,25749 16664,25759 16656,25770 16648,25780 16640,25792 16633,25803 16627,25815 16621,25827 16616,25840 16612,25852 16608,25865 16605,25878 16602,25892 16600,25905 16599,25918 16599,25932 16622,25932 16622,25920 16623,25907 16624,25895 16627,25883 16630,25871 16633,25860 16637,25848 16642,25837 16647,25826 16653,25815 16659,25804 16666,25794 16673,25784 16681,25775 16689,25766 16698,25757 16707,25768 16696,25779 16687,25790 16678,25802 16669,25814 16662,25827 16655,25841 16649,25855 16645,25869 16641,25883 16638,25898 16636,25913 16636,25928 16636,25943 16637,25958 16640,25973 16643,25988 16647,26002 16652,26016 16658,26030 16665,26043 16673,26056 16682,26068 16691,26080 16701,26090 16712,26101 16724,26110 16736,26119 16749,26127 16762,26134 16776,26140 16790,26145 16804,26149 16581,26149 16581,26182 18019,26182 Z"/>
   </g>
  </g>
 </g>
</svg>