<?xml version="1.0" encoding="UTF-8"?>
<!DOCTYPE svg PUBLIC "-//W3C//DTD SVG 1.1//EN" "http://www.w3.org/Graphics/SVG/1.1/DTD/svg11.dtd">
<svg version="1.2" width="25.03mm" height="25.02mm" viewBox="28049 24500 2503 2502" preserveAspectRatio="xMidYMid" fill-rule="evenodd" stroke-width="28.222" stroke-linejoin="round" xmlns="http://www.w3.org/2000/svg" xmlns:ooo="http://xml.openoffice.org/svg/export" xmlns:xlink="http://www.w3.org/1999/xlink" xmlns:presentation="http://sun.com/xmlns/staroffice/presentation" xmlns:smil="http://www.w3.org/2001/SMIL20/" xmlns:anim="urn:oasis:names:tc:opendocument:xmlns:animation:1.0" xml:space="preserve">
 <defs class="EmbeddedBulletChars">
  <g id="bullet-char-template-57356" transform="scale(0.00048828125,-0.00048828125)">
   <path d="M 580,1141 L 1163,571 580,0 -4,571 580,1141 Z"/>
  </g>
  <g id="bullet-char-template-57354" transform="scale(0.00048828125,-0.00048828125)">
   <path d="M 8,1128 L 1137,1128 1137,0 8,0 8,1128 Z"/>
  </g>
  <g id="bullet-char-template-10146" transform="scale(0.00048828125,-0.00048828125)">
   <path d="M 174,0 L 602,739 174,1481 1456,739 174,0 Z M 1358,739 L 309,1346 659,739 1358,739 Z"/>
  </g>
  <g id="bullet-char-template-10132" transform="scale(0.00048828125,-0.00048828125)">
   <path d="M 2015,739 L 1276,0 717,0 1260,543 174,543 174,936 1260,936 717,1481 1274,1481 2015,739 Z"/>
  </g>
  <g id="bullet-char-template-10007" transform="scale(0.00048828125,-0.00048828125)">
   <path d="M 0,-2 C -7,14 -16,27 -25,37 L 356,567 C 262,823 215,952 215,954 215,979 228,992 255,992 264,992 276,990 289,987 310,991 331,999 354,1012 L 381,999 492,748 772,1049 836,1024 860,1049 C 881,1039 901,1025 922,1006 886,937 835,863 770,784 769,783 710,716 594,584 L 774,223 C 774,196 753,168 711,139 L 727,119 C 717,90 699,76 672,76 641,76 570,178 457,381 L 164,-76 C 142,-110 111,-127 72,-127 30,-127 9,-110 8,-76 1,-67 -2,-52 -2,-32 -2,-23 -1,-13 0,-2 Z"/>
  </g>
  <g id="bullet-char-template-10004" transform="scale(0.00048828125,-0.00048828125)">
   <path d="M 285,-33 C 182,-33 111,30 74,156 52,228 41,333 41,471 41,549 55,616 82,672 116,743 169,778 240,778 293,778 328,747 346,684 L 369,508 C 377,444 397,411 428,410 L 1163,1116 C 1174,1127 1196,1133 1229,1133 1271,1133 1292,1118 1292,1087 L 1292,965 C 1292,929 1282,901 1262,881 L 442,47 C 390,-6 338,-33 285,-33 Z"/>
  </g>
  <g id="bullet-char-template-9679" transform="scale(0.00048828125,-0.00048828125)">
   <path d="M 813,0 C 632,0 489,54 383,161 276,268 223,411 223,592 223,773 276,916 383,1023 489,1130 632,1184 813,1184 992,1184 1136,1130 1245,1023 1353,916 1407,772 1407,592 1407,412 1353,268 1245,161 1136,54 992,0 813,0 Z"/>
  </g>
  <g id="bullet-char-template-8226" transform="scale(0.00048828125,-0.00048828125)">
   <path d="M 346,457 C 273,457 209,483 155,535 101,586 74,649 74,723 74,796 101,859 155,911 209,963 273,989 346,989 419,989 480,963 531,910 582,859 608,796 608,723 608,648 583,586 532,535 482,483 420,457 346,457 Z"/>
  </g>
  <g id="bullet-char-template-8211" transform="scale(0.00048828125,-0.00048828125)">
   <path d="M -4,459 L 1135,459 1135,606 -4,606 -4,459 Z"/>
  </g>
  <g id="bullet-char-template-61548" transform="scale(0.00048828125,-0.00048828125)">
   <path d="M 173,740 C 173,903 231,1043 346,1159 462,1274 601,1332 765,1332 928,1332 1067,1274 1183,1159 1299,1043 1357,903 1357,740 1357,577 1299,437 1183,322 1067,206 928,148 765,148 601,148 462,206 346,322 231,437 173,577 173,740 Z"/>
  </g>
 </defs>
 <g class="Page">
  <g class="com.sun.star.drawing.PolyPolygonShape">
   <g id="id3">
    <rect class="BoundingBox" stroke="none" fill="none" x="28049" y="24500" width="2503" height="2502"/>
    <path fill="rgb(255,0,0)" stroke="none" d="M 30551,25750 L 30551,25719 30549,25688 30548,25658 30545,25627 30541,25596 30537,25566 30532,25536 30527,25506 30520,25476 30513,25446 30505,25416 30497,25387 30488,25357 30478,25328 30467,25300 30456,25271 30444,25243 30431,25215 30417,25187 30403,25160 30388,25133 30373,25107 30357,25081 30340,25055 30323,25030 30305,25005 30286,24980 30267,24956 30247,24933 30227,24910 30206,24888 30185,24866 30163,24844 30140,24823 30117,24803 30094,24783 30070,24764 30045,24745 30020,24728 29995,24710 29969,24693 29943,24677 29917,24662 29890,24647 29863,24633 29835,24620 29807,24607 29779,24595 29750,24583 29722,24573 29693,24563 29663,24553 29634,24545 29604,24537 29574,24530 29544,24523 29514,24518 29484,24513 29454,24509 29423,24505 29393,24503 29362,24501 29331,24500 29301,24500 29270,24500 29239,24501 29208,24503 29178,24505 29147,24509 29117,24513 29087,24518 29057,24523 29027,24530 28997,24537 28967,24545 28938,24553 28908,24563 28879,24573 28851,24583 28822,24595 28794,24607 28766,24620 28737,24633 28710,24647 28683,24662 28657,24677 28631,24693 28605,24710 28579,24728 28555,24745 28530,24764 28506,24783 28483,24803 28460,24823 28437,24844 28415,24866 28394,24888 28373,24910 28353,24933 28333,24956 28314,24980 28295,25005 28277,25030 28260,25055 28243,25081 28227,25107 28212,25133 28197,25160 28183,25187 28169,25215 28156,25243 28144,25271 28133,25300 28122,25328 28112,25357 28103,25387 28094,25416 28087,25446 28080,25476 28073,25506 28068,25536 28063,25566 28059,25596 28055,25627 28052,25658 28051,25688 28049,25719 28049,25749 28049,25780 28051,25811 28052,25841 28055,25872 28059,25903 28063,25933 28068,25963 28073,25993 28080,26023 28087,26053 28094,26083 28103,26112 28112,26142 28122,26171 28133,26199 28144,26228 28156,26257 28169,26285 28183,26313 28197,26340 28212,26367 28227,26393 28243,26419 28260,26445 28277,26470 28295,26495 28314,26520 28333,26544 28353,26567 28373,26590 28394,26612 28415,26634 28437,26656 28460,26677 28483,26697 28506,26717 28530,26736 28555,26755 28579,26772 28605,26790 28631,26807 28657,26823 28683,26838 28710,26853 28737,26867 28766,26880 28794,26893 28822,26905 28851,26917 28879,26927 28908,26937 28938,26947 28967,26955 28997,26963 29027,26970 29057,26977 29087,26982 29117,26987 29147,26991 29178,26995 29208,26997 29239,26999 29270,27000 29300,27001 29331,27000 29362,26999 29393,26997 29423,26995 29454,26991 29484,26987 29514,26982 29544,26977 29574,26970 29604,26963 29634,26955 29663,26947 29693,26937 29722,26927 29750,26917 29779,26905 29807,26893 29835,26880 29863,26867 29890,26853 29917,26838 29943,26823 29969,26807 29995,26790 30020,26772 30045,26755 30070,26736 30094,26717 30117,26697 30140,26677 30163,26656 30185,26634 30206,26612 30227,26590 30247,26567 30267,26544 30286,26520 30305,26495 30323,26470 30340,26445 30357,26419 30373,26393 30388,26367 30403,26340 30417,26313 30431,26285 30444,26257 30456,26228 30467,26199 30478,26171 30488,26142 30497,26112 30505,26083 30513,26053 30520,26023 30527,25993 30532,25963 30537,25933 30541,25903 30545,25872 30548,25841 30549,25811 30551,25780 30551,25750 Z"/>
   </g>
  </g>
  <g class="com.sun.star.drawing.PolyPolygonShape">
   <g id="id4">
    <rect class="BoundingBox" stroke="none" fill="none" x="28406" y="24857" width="1789" height="1787"/>
    <path fill="rgb(255,255,255)" stroke="none" d="M 30194,25750 L 30193,25728 30193,25706 30191,25684 30189,25662 30187,25640 30184,25618 30181,25597 30176,25575 30172,25554 30167,25533 30161,25511 30155,25490 30149,25469 30141,25449 30134,25428 30126,25408 30117,25388 30108,25368 30098,25348 30088,25329 30078,25309 30067,25291 30055,25272 30043,25253 30031,25235 30018,25218 30005,25200 29991,25183 29977,25166 29962,25150 29947,25134 29932,25118 29916,25103 29900,25088 29884,25073 29867,25059 29850,25046 29832,25032 29815,25020 29797,25007 29778,24995 29760,24984 29741,24973 29721,24962 29702,24952 29682,24942 29662,24933 29642,24925 29622,24916 29601,24909 29581,24902 29560,24895 29539,24889 29518,24883 29496,24878 29475,24874 29452,24870 29431,24866 29409,24863 29387,24861 29365,24859 29343,24858 29321,24857 29300,24857 29278,24857 29256,24858 29234,24859 29212,24861 29190,24863 29168,24866 29147,24870 29125,24874 29104,24878 29082,24883 29061,24889 29040,24895 29019,24902 28999,24909 28978,24916 28958,24925 28938,24933 28918,24942 28898,24952 28879,24962 28859,24973 28840,24984 28822,24995 28803,25007 28785,25020 28768,25032 28750,25046 28733,25059 28716,25073 28700,25088 28684,25103 28668,25118 28653,25134 28638,25150 28623,25166 28609,25183 28595,25200 28582,25218 28569,25235 28557,25253 28545,25272 28533,25291 28522,25309 28512,25329 28502,25348 28492,25368 28483,25388 28474,25408 28466,25428 28459,25449 28451,25469 28445,25490 28439,25511 28433,25533 28428,25554 28424,25575 28419,25597 28416,25618 28413,25640 28411,25662 28409,25684 28407,25706 28407,25728 28406,25749 28407,25771 28407,25793 28409,25815 28411,25837 28413,25859 28416,25881 28419,25903 28424,25925 28428,25946 28433,25968 28439,25989 28445,26010 28451,26031 28459,26051 28466,26072 28474,26092 28483,26112 28492,26132 28502,26152 28512,26171 28522,26191 28533,26210 28545,26228 28557,26247 28569,26265 28582,26282 28595,26300 28609,26317 28623,26334 28638,26350 28653,26366 28668,26382 28684,26397 28700,26412 28716,26427 28733,26441 28750,26454 28768,26468 28785,26481 28803,26493 28822,26505 28840,26516 28859,26527 28879,26538 28898,26548 28918,26558 28938,26567 28958,26575 28978,26584 28999,26591 29019,26598 29040,26605 29061,26611 29082,26617 29104,26622 29125,26626 29147,26630 29168,26634 29190,26637 29212,26639 29234,26641 29256,26642 29278,26643 29299,26643 29321,26643 29343,26642 29365,26641 29387,26639 29409,26637 29431,26634 29452,26630 29475,26626 29496,26622 29518,26617 29539,26611 29560,26605 29581,26598 29601,26591 29622,26584 29642,26575 29662,26567 29682,26558 29702,26548 29721,26538 29741,26527 29760,26516 29778,26505 29797,26493 29815,26481 29832,26468 29850,26454 29867,26441 29884,26427 29900,26412 29916,26397 29932,26382 29947,26366 29962,26350 29977,26334 29991,26317 30005,26300 30018,26282 30031,26265 30043,26247 30055,26228 30067,26210 30078,26191 30088,26171 30098,26152 30108,26132 30117,26112 30126,26092 30134,26072 30141,26051 30149,26031 30155,26010 30161,25989 30167,25968 30172,25946 30176,25925 30181,25903 30184,25881 30187,25859 30189,25837 30191,25815 30193,25793 30193,25771 30194,25750 Z"/>
   </g>
  </g>
  <g class="com.sun.star.drawing.PolyPolygonShape">
   <g id="id5">
    <rect class="BoundingBox" stroke="none" fill="none" x="28912" y="25875" width="777" height="427"/>
    <path fill="rgb(0,0,0)" stroke="none" d="M 29474,26027 L 29467,26031 29461,26036 29454,26041 29448,26046 29442,26052 29437,26058 29432,26065 29428,26072 29424,26080 29420,26088 29417,26095 29414,26103 29412,26111 29410,26119 29409,26127 29409,26135 29510,26135 29512,26130 29514,26126 29517,26122 29521,26118 29474,26027 Z M 29467,26012 L 29459,26017 29452,26023 29444,26029 29437,26035 29431,26041 29425,26049 29419,26056 29414,26064 29410,26072 29406,26081 29402,26090 29399,26099 29397,26108 29395,26117 29394,26126 29393,26135 29384,26135 29384,26125 29386,26115 29388,26106 29390,26096 29393,26087 29397,26076 29401,26068 29406,26059 29412,26051 29418,26043 29424,26035 29431,26028 29438,26021 29446,26015 29454,26009 29463,26004 29467,26012 Z M 29656,26079 L 29660,26086 29663,26093 29665,26100 29667,26107 29669,26114 29670,26121 29671,26128 29672,26136 29672,26143 29672,26151 29671,26158 29670,26165 29668,26172 29666,26180 29664,26186 29661,26193 29658,26200 29655,26207 29651,26213 29647,26219 29642,26225 29637,26230 29632,26236 29627,26241 29621,26246 29615,26250 29609,26254 29603,26258 29596,26261 29589,26264 29582,26266 29575,26269 29568,26270 29561,26272 29554,26273 29546,26273 29539,26273 29531,26273 29524,26272 29517,26271 29510,26270 29502,26268 29495,26266 29489,26263 29482,26260 29475,26256 29469,26253 29463,26248 29457,26244 29451,26239 29446,26234 29441,26229 29436,26223 29432,26217 29428,26211 29424,26204 29421,26198 29418,26191 29415,26184 29413,26177 29411,26170 29410,26163 29409,26155 29409,26148 29510,26148 29511,26151 29512,26154 29514,26157 29515,26159 29517,26162 29520,26164 29522,26166 29524,26168 29527,26169 29530,26170 29533,26171 29536,26172 29539,26172 29542,26172 29545,26171 29548,26171 29551,26170 29554,26169 29557,26167 29559,26165 29562,26163 29564,26161 29566,26159 29567,26156 29568,26153 29569,26150 29570,26147 29570,26144 29571,26141 29570,26138 29570,26135 29569,26132 29656,26079 Z M 29486,26021 L 29497,26016 29508,26013 29519,26011 29530,26009 29542,26009 29553,26009 29565,26011 29576,26014 29587,26018 29598,26022 29608,26028 29618,26034 29627,26041 29635,26049 29643,26058 29650,26067 29562,26121 29559,26118 29556,26116 29552,26114 29548,26112 29544,26111 29540,26111 29536,26111 29532,26112 29486,26021 Z M 29671,26054 L 29663,26059 29655,26049 29647,26039 29637,26030 29627,26022 29616,26014 29605,26008 29593,26003 29580,25999 29568,25996 29555,25994 29542,25993 29529,25994 29516,25995 29503,25998 29491,26002 29479,26007 29474,25998 29481,25996 29487,25993 29494,25991 29500,25989 29507,25987 29514,25986 29521,25985 29528,25984 29535,25984 29542,25984 29549,25984 29556,25985 29563,25986 29570,25987 29576,25988 29583,25990 29590,25992 29596,25994 29603,25997 29609,26000 29615,26003 29621,26007 29627,26010 29633,26014 29638,26019 29644,26023 29649,26028 29654,26033 29658,26038 29663,26043 29667,26049 29671,26054 Z M 29460,25999 L 29452,26005 29443,26011 29435,26017 29427,26024 29420,26031 29414,26039 29407,26047 29402,26056 29397,26065 29392,26074 29388,26085 29385,26095 29382,26105 29380,26115 29379,26125 29378,26135 29372,26135 29371,26131 29370,26126 29368,26122 29366,26118 29363,26114 29360,26111 29356,26108 29353,26105 29430,25941 29460,25999 Z M 29311,26044 L 29346,26044 29346,26057 29334,26057 29334,26098 29337,26098 29341,26099 29417,25938 29137,25938 29133,25954 29300,26107 29305,26104 29311,26101 29317,26099 29323,26098 29323,26057 29311,26057 29311,26044 Z M 29217,26130 L 29208,26130 29207,26120 29205,26110 29203,26100 29199,26091 29196,26082 29191,26072 29186,26063 29181,26055 29175,26047 29168,26039 29161,26032 29153,26026 29145,26020 29137,26014 29128,26009 29119,26005 29122,25996 29131,26001 29141,26006 29150,26012 29158,26018 29167,26025 29174,26032 29181,26041 29188,26049 29194,26058 29199,26067 29204,26078 29208,26088 29211,26098 29214,26108 29216,26119 29217,26130 Z M 29346,26225 L 29346,26238 29311,26238 29311,26225 29323,26225 29323,26186 29317,26184 29312,26183 29307,26180 29302,26177 29298,26174 29294,26169 29290,26165 29288,26160 29286,26155 29285,26149 29284,26144 29284,26138 29285,26132 29286,26127 29289,26122 29291,26117 29129,25968 29123,25991 29135,25996 29147,26003 29158,26011 29168,26019 29178,26028 29187,26038 29195,26049 29202,26060 29208,26072 29213,26085 29217,26098 29220,26111 29222,26124 29223,26138 29223,26151 29221,26164 29216,26163 29217,26153 29217,26143 29208,26143 29208,26156 29206,26169 29203,26181 29199,26193 29194,26205 29188,26217 29181,26228 29173,26238 29164,26247 29154,26256 29144,26264 29133,26270 29121,26276 29109,26281 29097,26285 29084,26287 29517,26287 29505,26285 29492,26281 29481,26277 29469,26271 29459,26264 29448,26257 29439,26249 29430,26240 29422,26230 29415,26220 29409,26209 29404,26197 29399,26185 29396,26173 29394,26161 29393,26148 29384,26148 29384,26159 29386,26169 29380,26170 29379,26159 29378,26148 29372,26148 29370,26155 29368,26162 29364,26168 29359,26173 29354,26178 29347,26181 29341,26184 29334,26186 29334,26225 29346,26225 Z M 29068,26123 L 29065,26122 29062,26121 29059,26121 29056,26122 29053,26123 29051,26124 29048,26126 29046,26128 29044,26130 29043,26133 29041,26136 29041,26139 29040,26142 29041,26145 29041,26148 29043,26150 29044,26153 29046,26155 29048,26157 29051,26159 29053,26161 29056,26161 29059,26162 29062,26162 29066,26161 29068,26160 29071,26159 29074,26157 29076,26155 29078,26153 29079,26150 29080,26147 29193,26143 29193,26154 29192,26164 29189,26174 29186,26184 29183,26194 29178,26203 29173,26212 29167,26221 29161,26229 29153,26237 29146,26244 29137,26250 29129,26256 29119,26261 29110,26265 29100,26268 29090,26271 29080,26273 29069,26274 29059,26274 29049,26274 29038,26272 29028,26270 29017,26267 29007,26264 28998,26259 28989,26254 28980,26248 28972,26241 28965,26234 28958,26226 28952,26218 28946,26210 28941,26200 28937,26191 28933,26181 28930,26171 28928,26161 28927,26150 28927,26140 28928,26130 28929,26119 28931,26109 28934,26099 28938,26089 28942,26080 28948,26070 28953,26061 28960,26053 28967,26046 28975,26039 28983,26032 28992,26027 29001,26022 29010,26017 29020,26014 29031,26011 29042,26009 29052,26008 29062,26008 29073,26009 29083,26010 29093,26012 29103,26015 29085,26086 29084,26091 29083,26096 29081,26101 29079,26106 29077,26110 29074,26115 29071,26119 29068,26123 Z M 29078,26131 L 29080,26134 29193,26131 29192,26122 29190,26113 29188,26105 29186,26096 29182,26088 29178,26080 29174,26071 29169,26064 29164,26057 29158,26050 29152,26044 29145,26038 29138,26033 29131,26028 29123,26023 29116,26020 29098,26089 29097,26094 29095,26100 29093,26106 29091,26111 29088,26116 29085,26122 29082,26126 29078,26131 Z M 29181,25891 L 29187,25890 29192,25890 29198,25890 29203,25891 29205,25890 29207,25889 29209,25887 29209,25885 29210,25883 29209,25881 29208,25879 29207,25878 29202,25876 29197,25875 29192,25875 29187,25876 29176,25878 29163,25879 29151,25879 29139,25878 29111,25986 29099,25983 29088,25981 29076,25979 29064,25978 29053,25979 29041,25980 29029,25982 29017,25984 29018,25990 29030,25987 29042,25985 29053,25984 29064,25984 29076,25985 29087,25986 29098,25989 29109,25992 29107,26001 29100,25998 29092,25997 29085,25995 29077,25994 29070,25993 29062,25993 29055,25993 29047,25994 29039,25995 29032,25996 29023,25998 29016,26000 29009,26002 29002,26005 28995,26008 28988,26012 28982,26016 28975,26020 28969,26024 28963,26029 28958,26034 28952,26040 28947,26045 28943,26051 28938,26057 28934,26064 28930,26070 28927,26078 28924,26085 28921,26092 28919,26099 28917,26107 28915,26114 28914,26122 28913,26129 28912,26137 28912,26144 28913,26152 28913,26160 28915,26167 28916,26175 28918,26182 28920,26189 28923,26196 28926,26203 28929,26210 28933,26217 28937,26223 28941,26230 28946,26235 28951,26241 28956,26247 28962,26252 28968,26257 28974,26261 28980,26266 28987,26269 28993,26273 29000,26276 29007,26279 29014,26282 29022,26284 29030,26286 29038,26287 28931,26287 28931,26301 29669,26301 29669,26287 29563,26287 29572,26286 29580,26283 29589,26281 29597,26278 29605,26274 29613,26270 29621,26265 29628,26260 29635,26255 29641,26249 29647,26243 29653,26236 29659,26229 29664,26222 29668,26215 29672,26207 29676,26199 29679,26191 29682,26182 29684,26174 29686,26165 29687,26156 29688,26147 29688,26139 29687,26130 29686,26121 29685,26112 29683,26104 29680,26095 29677,26087 29674,26079 29670,26070 29678,26065 29683,26076 29688,26074 29684,26066 29681,26059 29676,26052 29672,26046 29667,26040 29662,26033 29656,26027 29651,26022 29645,26017 29638,26012 29632,26007 29625,26003 29618,25998 29611,25995 29604,25991 29597,25989 29589,25986 29581,25984 29573,25982 29566,25980 29558,25979 29550,25979 29542,25978 29534,25979 29526,25979 29518,25980 29510,25981 29502,25983 29494,25985 29487,25987 29479,25990 29472,25994 29437,25926 29445,25910 29446,25908 29447,25907 29449,25907 29450,25907 29454,25905 29457,25903 29459,25901 29459,25899 29460,25897 29459,25895 29458,25893 29456,25891 29454,25890 29452,25889 29444,25888 29435,25888 29427,25887 29418,25887 29409,25887 29401,25888 29392,25889 29384,25890 29382,25891 29380,25893 29379,25895 29379,25898 29379,25900 29381,25902 29383,25904 29385,25904 29422,25906 29424,25906 29426,25906 29427,25907 29428,25909 29429,25910 29429,25912 29429,25913 29428,25915 29424,25925 29140,25925 29148,25894 29156,25895 29165,25894 29173,25893 29181,25891 Z"/>
   </g>
  </g>
  <g class="com.sun.star.drawing.PolyPolygonShape">
   <g id="id6">
    <rect class="BoundingBox" stroke="none" fill="none" x="28963" y="25206" width="680" height="427"/>
    <path fill="rgb(0,0,0)" stroke="none" d="M 29501,25513 L 29502,25508 29505,25504 29508,25501 29512,25499 29504,25424 29496,25426 29488,25429 29481,25432 29474,25435 29467,25440 29461,25444 29455,25450 29449,25455 29445,25461 29440,25468 29436,25475 29433,25482 29430,25489 29428,25497 29427,25505 29426,25513 29501,25513 Z M 29397,25522 L 29401,25522 29402,25530 29402,25537 29397,25536 29397,25522 Z M 29426,25522 L 29500,25522 29501,25526 29502,25529 29504,25532 29506,25535 29508,25537 29511,25539 29514,25541 29518,25542 29430,25550 29428,25543 29427,25536 29426,25529 29426,25522 Z M 29404,25461 L 29425,25380 29438,25380 29441,25387 29444,25394 29448,25400 29453,25405 29455,25407 29457,25408 29458,25408 29460,25408 29473,25408 29465,25412 29458,25416 29451,25421 29445,25426 29439,25431 29433,25437 29427,25444 29423,25450 29418,25457 29414,25465 29411,25472 29408,25480 29405,25488 29403,25496 29402,25504 29401,25513 29397,25513 29397,25474 29398,25474 29399,25473 29401,25470 29402,25467 29403,25464 29404,25461 Z M 29618,25443 L 29613,25437 29608,25432 29603,25428 29597,25423 29592,25419 29586,25415 29579,25412 29573,25408 29605,25408 29618,25443 Z M 29568,25568 L 29439,25568 29442,25573 29446,25578 29450,25583 29454,25588 29459,25592 29464,25596 29469,25600 29475,25603 29480,25606 29486,25609 29492,25611 29499,25613 29506,25614 29512,25615 29518,25616 29525,25616 29531,25616 29538,25615 29544,25614 29550,25612 29556,25610 29562,25608 29568,25605 29573,25602 29579,25599 29584,25595 29589,25591 29593,25586 29598,25581 29602,25576 29605,25571 29609,25565 29612,25560 29614,25554 29616,25548 29618,25542 29619,25535 29620,25529 29620,25523 29620,25516 29620,25510 29619,25503 29618,25497 29616,25491 29614,25485 29612,25479 29609,25473 29606,25468 29602,25462 29598,25457 29594,25452 29589,25448 29584,25444 29579,25440 29574,25436 29568,25433 29563,25430 29557,25428 29551,25426 29544,25424 29538,25423 29532,25422 29525,25422 29519,25422 29527,25496 29530,25497 29534,25498 29537,25500 29540,25502 29542,25505 29544,25508 29546,25512 29547,25516 29547,25519 29547,25523 29546,25527 29544,25530 29542,25534 29539,25536 29537,25539 29533,25540 29568,25537 29570,25538 29571,25539 29573,25541 29573,25543 29575,25561 29574,25564 29573,25566 29571,25567 29568,25568 Z M 29100,25513 L 29173,25513 29172,25507 29171,25501 29170,25495 29169,25490 29167,25484 29165,25479 29162,25473 29159,25468 29156,25463 29153,25458 29149,25454 29145,25450 29141,25445 29136,25442 29132,25438 29127,25435 29094,25501 29096,25504 29097,25506 29099,25509 29100,25513 Z M 29086,25496 L 29115,25429 29108,25426 29101,25424 29093,25422 29086,25421 29078,25421 29070,25421 29063,25422 29056,25423 29048,25425 29041,25428 29034,25431 29027,25434 29021,25439 29015,25443 29009,25448 29004,25454 28999,25460 28995,25466 28991,25473 28988,25480 28985,25487 28983,25494 28981,25502 28981,25509 28980,25517 28981,25524 28981,25532 28983,25539 28985,25547 28988,25554 28991,25561 28995,25568 28999,25574 29004,25580 29009,25585 29014,25591 29020,25595 29027,25599 29033,25603 29040,25606 29048,25609 29055,25611 29062,25612 29070,25613 29078,25613 29085,25613 29093,25612 29100,25610 29108,25608 29115,25605 29121,25602 29128,25598 29134,25594 29140,25589 29146,25584 29151,25578 29156,25572 29160,25566 29163,25559 29166,25552 29169,25545 29171,25537 29172,25530 29173,25522 29100,25522 29098,25526 29097,25529 29095,25532 29092,25535 29089,25537 29086,25539 29083,25540 29079,25540 29076,25541 29072,25540 29069,25539 29065,25538 29062,25536 29060,25534 29057,25531 29056,25528 29054,25524 29053,25521 29053,25517 29053,25513 29054,25510 29056,25507 29057,25504 29060,25501 29062,25498 29065,25496 29069,25495 29072,25494 29076,25494 29079,25494 29083,25495 29086,25496 Z M 29338,25560 L 29330,25561 29322,25563 29315,25565 29307,25568 29338,25554 29338,25560 Z M 29246,25528 L 29266,25534 29267,25541 29268,25548 29271,25554 29274,25560 29277,25564 29279,25567 29283,25569 29286,25572 29282,25573 29278,25574 29273,25573 29269,25571 29264,25568 29258,25563 29254,25559 29250,25553 29248,25551 29247,25548 29246,25545 29245,25541 29244,25538 29244,25535 29245,25532 29246,25528 Z M 29375,25556 L 29344,25559 29344,25551 29374,25540 29375,25556 Z M 29233,25423 L 29211,25423 29207,25423 29204,25423 29201,25422 29198,25421 29195,25420 29192,25418 29189,25416 29187,25414 29182,25410 29178,25405 29174,25399 29171,25394 29168,25388 29165,25382 29163,25376 29162,25369 29138,25413 29147,25419 29156,25426 29164,25433 29171,25442 29178,25450 29183,25460 29188,25470 29192,25480 29194,25490 29196,25501 29197,25512 29197,25523 29196,25534 29194,25545 29191,25555 29187,25565 29180,25562 29177,25569 29174,25575 29170,25580 29166,25586 29162,25592 29157,25597 29152,25602 29147,25606 29141,25610 29135,25614 29129,25617 29123,25621 29116,25623 29110,25625 29103,25627 29096,25629 29089,25630 29082,25630 29075,25630 29068,25630 29061,25629 29054,25628 29048,25627 29041,25625 29034,25622 29028,25619 29022,25616 29016,25613 29010,25609 29005,25604 28999,25600 28994,25595 28990,25590 28985,25584 28981,25579 28978,25573 28975,25566 28972,25560 28969,25553 28967,25547 28966,25540 28964,25533 28964,25526 28963,25519 28963,25512 28964,25505 28965,25498 28966,25491 28968,25485 28970,25478 28973,25472 28976,25465 28979,25459 28983,25453 28987,25448 28991,25442 28996,25437 29001,25432 29007,25428 29012,25424 29018,25420 29024,25417 29030,25414 29037,25411 29037,25403 29048,25400 29059,25397 29070,25396 29082,25396 29093,25397 29104,25399 29115,25402 29126,25407 29174,25302 29175,25300 29177,25297 29180,25295 29182,25293 29186,25291 29189,25289 29191,25286 29192,25284 29193,25283 29193,25281 29192,25279 29191,25278 29190,25277 29188,25276 29187,25276 29182,25277 29178,25279 29172,25282 29166,25285 29162,25286 29158,25287 29156,25287 29155,25287 29154,25286 29153,25284 29144,25261 29152,25258 29160,25254 29164,25252 29168,25251 29172,25250 29177,25250 29180,25250 29183,25251 29186,25252 29188,25254 29193,25257 29198,25261 29204,25263 29210,25265 29210,25224 29208,25222 29207,25220 29206,25218 29206,25216 29206,25213 29207,25211 29208,25209 29210,25208 29213,25206 29216,25206 29219,25206 29222,25208 29226,25211 29229,25215 29247,25215 29247,25221 29218,25221 29218,25264 29218,25271 29216,25278 29212,25293 29215,25295 29216,25296 29216,25298 29189,25354 29196,25363 29198,25364 29199,25364 29201,25363 29202,25363 29204,25362 29205,25363 29207,25364 29208,25366 29209,25368 29210,25370 29209,25372 29209,25374 29210,25376 29287,25455 29373,25455 29376,25455 29379,25454 29381,25453 29384,25452 29386,25450 29387,25447 29388,25445 29389,25442 29415,25332 29345,25311 29345,25304 29444,25304 29447,25305 29450,25306 29452,25308 29454,25310 29455,25313 29455,25316 29454,25319 29453,25322 29451,25324 29448,25327 29437,25336 29435,25338 29434,25341 29427,25371 29595,25371 29595,25373 29595,25374 29597,25375 29598,25376 29599,25377 29600,25377 29602,25377 29603,25377 29616,25377 29616,25408 29610,25408 29642,25495 29634,25495 29636,25505 29637,25516 29637,25526 29635,25536 29633,25546 29631,25556 29627,25566 29622,25575 29617,25584 29610,25592 29603,25599 29596,25606 29588,25613 29579,25618 29570,25622 29560,25626 29550,25629 29540,25631 29530,25632 29519,25632 29509,25632 29499,25630 29488,25627 29478,25623 29469,25619 29460,25614 29452,25608 29444,25601 29437,25593 29431,25586 29425,25577 29420,25568 29344,25568 29344,25592 29351,25592 29351,25601 29329,25601 29329,25592 29338,25592 29338,25570 29332,25571 29326,25572 29321,25573 29315,25575 29292,25582 29287,25583 29283,25584 29278,25584 29273,25584 29269,25583 29264,25582 29260,25580 29256,25578 29252,25576 29249,25573 29247,25570 29245,25567 29241,25559 29238,25551 29236,25543 29235,25534 29234,25526 29234,25518 29235,25509 29237,25501 29240,25486 29243,25472 29247,25457 29252,25443 29233,25423 Z"/>
   </g>
  </g>
 </g>
</svg>