<?xml version="1.0" encoding="UTF-8"?>
<!DOCTYPE svg PUBLIC "-//W3C//DTD SVG 1.1//EN" "http://www.w3.org/Graphics/SVG/1.1/DTD/svg11.dtd">
<svg version="1.2" width="25.03mm" height="25.02mm" viewBox="22049 24500 2503 2502" preserveAspectRatio="xMidYMid" fill-rule="evenodd" stroke-width="28.222" stroke-linejoin="round" xmlns="http://www.w3.org/2000/svg" xmlns:ooo="http://xml.openoffice.org/svg/export" xmlns:xlink="http://www.w3.org/1999/xlink" xmlns:presentation="http://sun.com/xmlns/staroffice/presentation" xmlns:smil="http://www.w3.org/2001/SMIL20/" xmlns:anim="urn:oasis:names:tc:opendocument:xmlns:animation:1.0" xml:space="preserve">
 <defs class="EmbeddedBulletChars">
  <g id="bullet-char-template-57356" transform="scale(0.00048828125,-0.00048828125)">
   <path d="M 580,1141 L 1163,571 580,0 -4,571 580,1141 Z"/>
  </g>
  <g id="bullet-char-template-57354" transform="scale(0.00048828125,-0.00048828125)">
   <path d="M 8,1128 L 1137,1128 1137,0 8,0 8,1128 Z"/>
  </g>
  <g id="bullet-char-template-10146" transform="scale(0.00048828125,-0.00048828125)">
   <path d="M 174,0 L 602,739 174,1481 1456,739 174,0 Z M 1358,739 L 309,1346 659,739 1358,739 Z"/>
  </g>
  <g id="bullet-char-template-10132" transform="scale(0.00048828125,-0.00048828125)">
   <path d="M 2015,739 L 1276,0 717,0 1260,543 174,543 174,936 1260,936 717,1481 1274,1481 2015,739 Z"/>
  </g>
  <g id="bullet-char-template-10007" transform="scale(0.00048828125,-0.00048828125)">
   <path d="M 0,-2 C -7,14 -16,27 -25,37 L 356,567 C 262,823 215,952 215,954 215,979 228,992 255,992 264,992 276,990 289,987 310,991 331,999 354,1012 L 381,999 492,748 772,1049 836,1024 860,1049 C 881,1039 901,1025 922,1006 886,937 835,863 770,784 769,783 710,716 594,584 L 774,223 C 774,196 753,168 711,139 L 727,119 C 717,90 699,76 672,76 641,76 570,178 457,381 L 164,-76 C 142,-110 111,-127 72,-127 30,-127 9,-110 8,-76 1,-67 -2,-52 -2,-32 -2,-23 -1,-13 0,-2 Z"/>
  </g>
  <g id="bullet-char-template-10004" transform="scale(0.00048828125,-0.00048828125)">
   <path d="M 285,-33 C 182,-33 111,30 74,156 52,228 41,333 41,471 41,549 55,616 82,672 116,743 169,778 240,778 293,778 328,747 346,684 L 369,508 C 377,444 397,411 428,410 L 1163,1116 C 1174,1127 1196,1133 1229,1133 1271,1133 1292,1118 1292,1087 L 1292,965 C 1292,929 1282,901 1262,881 L 442,47 C 390,-6 338,-33 285,-33 Z"/>
  </g>
  <g id="bullet-char-template-9679" transform="scale(0.00048828125,-0.00048828125)">
   <path d="M 813,0 C 632,0 489,54 383,161 276,268 223,411 223,592 223,773 276,916 383,1023 489,1130 632,1184 813,1184 992,1184 1136,1130 1245,1023 1353,916 1407,772 1407,592 1407,412 1353,268 1245,161 1136,54 992,0 813,0 Z"/>
  </g>
  <g id="bullet-char-template-8226" transform="scale(0.00048828125,-0.00048828125)">
   <path d="M 346,457 C 273,457 209,483 155,535 101,586 74,649 74,723 74,796 101,859 155,911 209,963 273,989 346,989 419,989 480,963 531,910 582,859 608,796 608,723 608,648 583,586 532,535 482,483 420,457 346,457 Z"/>
  </g>
  <g id="bullet-char-template-8211" transform="scale(0.00048828125,-0.00048828125)">
   <path d="M -4,459 L 1135,459 1135,606 -4,606 -4,459 Z"/>
  </g>
  <g id="bullet-char-template-61548" transform="scale(0.00048828125,-0.00048828125)">
   <path d="M 173,740 C 173,903 231,1043 346,1159 462,1274 601,1332 765,1332 928,1332 1067,1274 1183,1159 1299,1043 1357,903 1357,740 1357,577 1299,437 1183,322 1067,206 928,148 765,148 601,148 462,206 346,322 231,437 173,577 173,740 Z"/>
  </g>
 </defs>
 <g class="Page">
  <g class="com.sun.star.drawing.PolyPolygonShape">
   <g id="id3">
    <rect class="BoundingBox" stroke="none" fill="none" x="22049" y="24500" width="2503" height="2502"/>
    <path fill="rgb(255,0,0)" stroke="none" d="M 24551,25750 L 24551,25719 24549,25688 24548,25658 24545,25627 24541,25596 24537,25566 24532,25536 24527,25506 24520,25476 24513,25446 24506,25416 24497,25387 24488,25357 24478,25328 24467,25300 24456,25271 24444,25243 24431,25215 24417,25187 24403,25160 24388,25133 24373,25107 24357,25081 24340,25055 24323,25030 24305,25005 24286,24980 24267,24956 24247,24933 24227,24910 24206,24888 24185,24866 24163,24844 24140,24823 24117,24803 24094,24783 24070,24764 24045,24745 24020,24728 23995,24710 23969,24693 23943,24677 23917,24662 23890,24647 23863,24633 23835,24620 23807,24607 23779,24595 23749,24583 23721,24573 23692,24563 23662,24553 23633,24545 23603,24537 23573,24530 23543,24523 23513,24518 23483,24513 23453,24509 23422,24505 23392,24503 23361,24501 23330,24500 23300,24500 23269,24500 23238,24501 23207,24503 23177,24505 23146,24509 23116,24513 23086,24518 23056,24523 23026,24530 22996,24537 22966,24545 22937,24553 22907,24563 22878,24573 22850,24583 22821,24595 22793,24607 22765,24620 22737,24633 22710,24647 22683,24662 22657,24677 22631,24693 22605,24710 22580,24728 22555,24745 22530,24764 22506,24783 22483,24803 22460,24823 22437,24844 22415,24866 22394,24888 22373,24910 22353,24933 22333,24956 22314,24980 22295,25005 22277,25030 22260,25055 22243,25081 22227,25107 22212,25133 22197,25160 22183,25187 22169,25215 22156,25243 22144,25271 22133,25300 22122,25328 22112,25357 22103,25387 22094,25416 22087,25446 22080,25476 22073,25506 22068,25536 22063,25566 22059,25596 22055,25627 22052,25658 22051,25688 22049,25719 22049,25749 22049,25780 22051,25811 22052,25841 22055,25872 22059,25903 22063,25933 22068,25963 22073,25993 22080,26023 22087,26053 22094,26083 22103,26112 22112,26142 22122,26171 22133,26199 22144,26228 22156,26257 22169,26285 22183,26313 22197,26340 22212,26367 22227,26393 22243,26419 22260,26445 22277,26470 22295,26495 22314,26520 22333,26544 22353,26567 22373,26590 22394,26612 22415,26634 22437,26656 22460,26677 22483,26697 22506,26717 22530,26736 22555,26755 22580,26772 22605,26790 22631,26807 22657,26823 22683,26838 22710,26853 22737,26867 22765,26880 22793,26893 22821,26905 22850,26917 22878,26927 22907,26937 22937,26947 22966,26955 22996,26963 23026,26970 23056,26977 23086,26982 23116,26987 23146,26991 23177,26995 23207,26997 23238,26999 23269,27000 23299,27001 23330,27000 23361,26999 23392,26997 23422,26995 23453,26991 23483,26987 23513,26982 23543,26977 23573,26970 23603,26963 23633,26955 23662,26947 23692,26937 23721,26927 23749,26917 23779,26905 23807,26893 23835,26880 23863,26867 23890,26853 23917,26838 23943,26823 23969,26807 23995,26790 24020,26772 24045,26755 24070,26736 24094,26717 24117,26697 24140,26677 24163,26656 24185,26634 24206,26612 24227,26590 24247,26567 24267,26544 24286,26520 24305,26495 24323,26470 24340,26445 24357,26419 24373,26393 24388,26367 24403,26340 24417,26313 24431,26285 24444,26257 24456,26228 24467,26199 24478,26171 24488,26142 24497,26112 24506,26083 24513,26053 24520,26023 24527,25993 24532,25963 24537,25933 24541,25903 24545,25872 24548,25841 24549,25811 24551,25780 24551,25750 Z"/>
   </g>
  </g>
  <g class="com.sun.star.drawing.PolyPolygonShape">
   <g id="id4">
    <rect class="BoundingBox" stroke="none" fill="none" x="22406" y="24857" width="1789" height="1787"/>
    <path fill="rgb(255,255,255)" stroke="none" d="M 24194,25750 L 24193,25728 24193,25706 24191,25684 24189,25662 24187,25640 24184,25618 24181,25597 24176,25575 24172,25554 24167,25533 24161,25511 24155,25490 24149,25469 24141,25449 24134,25428 24126,25408 24117,25388 24107,25368 24097,25348 24087,25329 24077,25309 24066,25291 24054,25272 24042,25253 24030,25235 24017,25218 24004,25200 23990,25183 23976,25166 23961,25150 23946,25134 23931,25118 23915,25103 23899,25088 23883,25073 23866,25059 23849,25046 23831,25032 23814,25020 23796,25007 23777,24995 23759,24984 23740,24973 23720,24962 23701,24952 23681,24942 23661,24933 23641,24925 23621,24916 23600,24909 23580,24902 23559,24895 23538,24889 23517,24883 23495,24878 23474,24874 23452,24870 23431,24866 23409,24863 23387,24861 23365,24859 23343,24858 23321,24857 23300,24857 23278,24857 23256,24858 23234,24859 23212,24861 23190,24863 23168,24866 23147,24870 23125,24874 23104,24878 23082,24883 23061,24889 23040,24895 23019,24902 22999,24909 22978,24916 22958,24925 22938,24933 22918,24942 22898,24952 22879,24962 22859,24973 22840,24984 22822,24995 22803,25007 22785,25020 22768,25032 22750,25046 22733,25059 22716,25073 22700,25088 22684,25103 22668,25118 22653,25134 22638,25150 22623,25166 22609,25183 22595,25200 22582,25218 22569,25235 22557,25253 22545,25272 22533,25291 22522,25309 22512,25329 22502,25348 22492,25368 22483,25388 22474,25408 22466,25428 22459,25449 22451,25469 22445,25490 22439,25511 22433,25533 22428,25554 22424,25575 22419,25597 22416,25618 22413,25640 22411,25662 22409,25684 22407,25706 22407,25728 22406,25749 22407,25771 22407,25793 22409,25815 22411,25837 22413,25859 22416,25881 22419,25903 22424,25925 22428,25946 22433,25968 22439,25989 22445,26010 22451,26031 22459,26051 22466,26072 22474,26092 22483,26112 22492,26132 22502,26152 22512,26171 22522,26191 22533,26210 22545,26228 22557,26247 22569,26265 22582,26282 22595,26300 22609,26317 22623,26334 22638,26350 22653,26366 22668,26382 22684,26397 22700,26412 22716,26427 22733,26441 22750,26454 22768,26468 22785,26481 22803,26493 22822,26505 22840,26516 22859,26527 22879,26538 22898,26548 22918,26558 22938,26567 22958,26575 22978,26584 22999,26591 23019,26598 23040,26605 23061,26611 23082,26617 23104,26622 23125,26626 23147,26630 23168,26634 23190,26637 23212,26639 23234,26641 23256,26642 23278,26643 23299,26643 23321,26643 23343,26642 23365,26641 23387,26639 23409,26637 23431,26634 23452,26630 23474,26626 23495,26622 23517,26617 23538,26611 23559,26605 23580,26598 23600,26591 23621,26584 23641,26575 23661,26567 23681,26558 23701,26548 23720,26538 23740,26527 23759,26516 23777,26505 23796,26493 23814,26481 23831,26468 23849,26454 23866,26441 23883,26427 23899,26412 23915,26397 23931,26382 23946,26366 23961,26350 23976,26334 23990,26317 24004,26300 24017,26282 24030,26265 24042,26247 24054,26228 24066,26210 24077,26191 24087,26171 24097,26152 24107,26132 24117,26112 24126,26092 24134,26072 24141,26051 24149,26031 24155,26010 24161,25989 24167,25968 24172,25946 24176,25925 24181,25903 24184,25881 24187,25859 24189,25837 24191,25815 24193,25793 24193,25771 24194,25750 Z"/>
   </g>
  </g>
  <g class="com.sun.star.drawing.PolyPolygonShape">
   <g id="id5">
    <rect class="BoundingBox" stroke="none" fill="none" x="22702" y="25406" width="1189" height="747"/>
    <path fill="rgb(0,0,0)" stroke="none" d="M 23512,25959 L 23641,25959 23642,25965 23644,25971 23647,25976 23651,25981 23655,25985 23660,25989 23666,25992 23672,25994 23521,26007 23517,25995 23515,25984 23513,25971 23512,25959 Z M 23475,25852 L 23511,25710 23534,25710 23536,25717 23539,25722 23542,25728 23545,25734 23548,25740 23552,25745 23556,25750 23560,25755 23563,25757 23566,25759 23570,25760 23573,25760 23595,25760 23582,25766 23569,25774 23557,25782 23546,25791 23535,25800 23525,25811 23515,25822 23507,25833 23499,25846 23492,25858 23486,25872 23481,25885 23476,25899 23473,25913 23471,25928 23470,25942 23461,25942 23461,25875 23463,25874 23465,25873 23468,25868 23471,25863 23473,25857 23475,25852 Z M 23642,25942 L 23643,25938 23645,25935 23647,25931 23649,25928 23652,25925 23655,25922 23658,25920 23661,25918 23647,25788 23634,25791 23621,25795 23608,25801 23596,25807 23584,25815 23573,25823 23563,25832 23554,25842 23545,25853 23537,25864 23531,25876 23525,25889 23520,25902 23516,25915 23514,25929 23512,25942 23642,25942 Z M 23760,26039 L 23535,26039 23541,26048 23548,26058 23555,26066 23562,26074 23571,26082 23579,26089 23588,26095 23598,26101 23608,26106 23618,26111 23629,26115 23640,26118 23650,26120 23662,26122 23673,26123 23684,26123 23695,26123 23706,26121 23717,26119 23728,26117 23739,26113 23749,26109 23759,26104 23769,26099 23779,26093 23788,26086 23796,26079 23804,26071 23812,26063 23819,26054 23825,26044 23831,26035 23836,26025 23840,26014 23844,26004 23847,25993 23849,25982 23850,25971 23851,25960 23851,25949 23851,25937 23849,25926 23847,25915 23844,25904 23840,25894 23836,25883 23831,25873 23825,25864 23819,25854 23812,25846 23805,25837 23797,25829 23788,25822 23779,25815 23770,25809 23760,25803 23750,25799 23740,25794 23729,25791 23718,25788 23707,25786 23696,25785 23685,25784 23674,25784 23687,25913 23694,25914 23700,25917 23706,25920 23711,25924 23715,25930 23718,25935 23721,25941 23722,25948 23723,25954 23722,25961 23721,25967 23718,25973 23714,25979 23710,25984 23705,25988 23699,25991 23759,25986 23763,25987 23766,25989 23768,25992 23769,25995 23771,26027 23771,26030 23770,26032 23770,26034 23768,26036 23767,26037 23765,26038 23762,26039 23760,26039 Z M 23462,25959 L 23469,25959 23470,25973 23472,25986 23462,25983 23462,25959 Z M 23370,26010 L 23423,25988 23423,26019 23370,26024 23370,26010 Z M 23847,25820 L 23838,25811 23830,25802 23821,25793 23811,25786 23801,25778 23790,25771 23780,25765 23768,25760 23824,25760 23847,25820 Z M 22941,25942 L 23069,25942 23068,25932 23066,25922 23064,25912 23062,25902 23058,25892 23054,25883 23050,25873 23045,25864 23040,25856 23034,25847 23027,25839 23020,25832 23013,25825 23005,25818 22997,25812 22988,25806 22930,25922 22934,25926 22937,25932 22939,25937 22941,25942 Z M 22917,25913 L 22968,25796 22955,25791 22943,25787 22930,25784 22916,25783 22903,25782 22890,25782 22877,25784 22863,25786 22850,25789 22838,25794 22826,25799 22814,25806 22803,25813 22792,25821 22782,25830 22773,25840 22765,25850 22757,25861 22751,25873 22745,25885 22740,25897 22737,25910 22734,25923 22732,25936 22732,25950 22732,25963 22734,25976 22736,25989 22740,26002 22745,26015 22750,26027 22757,26039 22764,26050 22773,26060 22782,26070 22791,26079 22802,26087 22813,26094 22825,26101 22837,26106 22850,26111 22862,26114 22875,26117 22889,26118 22902,26119 22915,26118 22929,26116 22942,26113 22955,26110 22967,26105 22979,26099 22991,26092 23001,26085 23012,26076 23021,26067 23030,26057 23038,26046 23046,26035 23052,26024 23057,26011 23061,25999 23065,25986 23067,25973 23068,25959 22940,25959 22939,25965 22936,25971 22932,25976 22928,25981 22923,25985 22917,25988 22911,25990 22905,25991 22899,25991 22893,25991 22886,25989 22881,25986 22875,25983 22871,25979 22867,25974 22863,25969 22861,25963 22860,25957 22859,25950 22860,25944 22861,25938 22863,25932 22867,25926 22871,25922 22875,25917 22881,25914 22886,25911 22893,25910 22899,25909 22905,25909 22911,25911 22917,25913 Z M 23197,25970 L 23233,25980 23233,25986 23234,25992 23235,25998 23237,26004 23239,26010 23241,26015 23244,26020 23247,26026 23251,26031 23256,26037 23262,26042 23268,26046 23265,26047 23261,26048 23257,26049 23253,26049 23250,26049 23246,26048 23242,26046 23239,26045 23234,26042 23229,26039 23224,26035 23220,26031 23216,26027 23212,26023 23208,26019 23204,26014 23201,26009 23199,26004 23197,25999 23196,25993 23195,25987 23195,25981 23196,25976 23197,25970 Z M 23358,26026 L 23344,26028 23331,26031 23318,26034 23305,26039 23358,26015 23358,26026 Z M 23174,25785 L 23136,25786 23130,25786 23124,25785 23118,25784 23113,25782 23107,25780 23102,25777 23098,25774 23093,25770 23085,25762 23078,25754 23071,25744 23065,25735 23060,25724 23056,25714 23052,25703 23050,25692 23008,25768 23016,25773 23024,25779 23032,25784 23039,25791 23046,25797 23053,25804 23060,25811 23066,25818 23072,25826 23077,25834 23082,25842 23087,25850 23091,25858 23095,25867 23099,25876 23102,25885 23105,25894 23107,25904 23109,25913 23110,25922 23111,25932 23112,25942 23112,25951 23112,25961 23111,25970 23110,25980 23108,25989 23106,25999 23104,26008 23101,26017 23098,26026 23094,26035 23082,26029 23077,26040 23071,26051 23064,26061 23057,26071 23050,26081 23041,26090 23032,26098 23023,26106 23013,26113 23003,26120 22992,26126 22981,26131 22970,26136 22958,26140 22947,26143 22935,26145 22923,26147 22910,26148 22898,26148 22886,26148 22874,26147 22862,26145 22850,26142 22838,26139 22827,26134 22815,26129 22804,26124 22794,26118 22784,26111 22774,26103 22765,26095 22756,26087 22748,26077 22741,26068 22734,26058 22727,26047 22722,26037 22717,26025 22713,26014 22709,26002 22706,25990 22704,25978 22703,25966 22702,25954 22702,25942 22703,25930 22705,25917 22707,25905 22710,25894 22714,25882 22719,25871 22724,25860 22730,25849 22736,25839 22744,25829 22751,25819 22760,25810 22769,25802 22778,25794 22788,25787 22798,25780 22809,25774 22820,25769 22831,25764 22831,25750 22841,25747 22850,25744 22860,25742 22870,25741 22880,25740 22889,25739 22899,25739 22909,25739 22919,25739 22929,25741 22939,25742 22949,25744 22958,25747 22968,25750 22977,25753 22986,25757 23070,25573 23073,25569 23077,25564 23081,25561 23086,25558 23092,25554 23096,25550 23101,25546 23102,25543 23103,25541 23103,25538 23102,25535 23101,25533 23098,25531 23096,25530 23093,25530 23089,25530 23086,25531 23082,25532 23079,25534 23068,25539 23057,25545 23050,25547 23043,25549 23040,25549 23037,25548 23035,25546 23034,25543 23018,25502 23032,25497 23046,25490 23053,25488 23061,25485 23068,25484 23076,25483 23081,25484 23086,25485 23091,25487 23096,25490 23104,25496 23113,25502 23118,25505 23123,25507 23129,25509 23134,25510 23134,25438 23131,25435 23129,25431 23128,25427 23128,25423 23128,25419 23130,25415 23132,25412 23135,25409 23137,25408 23140,25407 23143,25406 23146,25406 23149,25406 23151,25407 23154,25408 23156,25410 23159,25413 23163,25416 23165,25419 23168,25423 23199,25423 23199,25433 23149,25433 23149,25508 23149,25515 23148,25521 23147,25527 23146,25533 23139,25557 23144,25561 23145,25562 23146,25563 23146,25564 23145,25566 23097,25664 23109,25681 23111,25682 23112,25683 23114,25683 23115,25683 23118,25681 23121,25680 23123,25680 23126,25680 23129,25682 23132,25685 23134,25689 23134,25691 23134,25692 23134,25694 23134,25695 23133,25697 23133,25700 23133,25702 23134,25704 23270,25842 23421,25842 23426,25842 23431,25841 23435,25838 23439,25836 23442,25832 23445,25828 23447,25824 23448,25819 23494,25626 23372,25588 23372,25577 23544,25577 23547,25577 23549,25577 23552,25578 23554,25579 23556,25581 23558,25583 23560,25585 23561,25587 23562,25589 23563,25592 23564,25595 23564,25597 23563,25600 23562,25602 23561,25605 23560,25607 23556,25612 23552,25616 23532,25632 23530,25634 23529,25636 23528,25638 23526,25640 23515,25695 23806,25695 23807,25697 23808,25700 23809,25702 23811,25704 23814,25705 23816,25706 23819,25706 23822,25705 23844,25705 23844,25760 23833,25760 23890,25912 23876,25912 23877,25921 23878,25930 23879,25939 23880,25948 23880,25957 23880,25966 23879,25975 23878,25984 23876,25993 23874,26001 23872,26010 23869,26019 23866,26027 23862,26035 23858,26043 23854,26051 23850,26059 23845,26067 23839,26074 23834,26081 23828,26088 23822,26094 23815,26100 23808,26106 23801,26112 23794,26117 23786,26122 23778,26127 23770,26131 23762,26135 23754,26138 23746,26141 23737,26144 23728,26146 23719,26148 23710,26150 23702,26151 23693,26152 23684,26152 23675,26152 23666,26151 23657,26150 23648,26149 23639,26147 23630,26145 23621,26143 23613,26140 23604,26136 23596,26133 23588,26129 23580,26124 23573,26119 23565,26114 23558,26109 23551,26103 23545,26097 23538,26091 23532,26084 23526,26077 23521,26070 23516,26063 23511,26055 23507,26047 23503,26039 23370,26039 23370,26081 23381,26081 23381,26096 23344,26096 23344,26081 23358,26081 23358,26043 23348,26044 23339,26046 23329,26048 23320,26051 23278,26064 23270,26066 23262,26067 23254,26067 23246,26067 23238,26066 23230,26064 23223,26061 23215,26057 23209,26054 23204,26049 23199,26043 23195,26037 23192,26030 23189,26023 23187,26016 23185,26009 23183,26002 23181,25995 23180,25988 23179,25980 23178,25973 23177,25966 23177,25958 23177,25951 23178,25944 23179,25936 23180,25929 23181,25922 23187,25896 23193,25871 23200,25846 23208,25820 23174,25785 Z"/>
   </g>
  </g>
 </g>
</svg>