<?xml version="1.0" encoding="UTF-8"?>
<!DOCTYPE svg PUBLIC "-//W3C//DTD SVG 1.1//EN" "http://www.w3.org/Graphics/SVG/1.1/DTD/svg11.dtd">
<svg version="1.2" width="25.03mm" height="25.02mm" viewBox="49649 30500 2503 2502" preserveAspectRatio="xMidYMid" fill-rule="evenodd" stroke-width="28.222" stroke-linejoin="round" xmlns="http://www.w3.org/2000/svg" xmlns:ooo="http://xml.openoffice.org/svg/export" xmlns:xlink="http://www.w3.org/1999/xlink" xmlns:presentation="http://sun.com/xmlns/staroffice/presentation" xmlns:smil="http://www.w3.org/2001/SMIL20/" xmlns:anim="urn:oasis:names:tc:opendocument:xmlns:animation:1.0" xml:space="preserve">
 <defs class="EmbeddedBulletChars">
  <g id="bullet-char-template-57356" transform="scale(0.00048828125,-0.00048828125)">
   <path d="M 580,1141 L 1163,571 580,0 -4,571 580,1141 Z"/>
  </g>
  <g id="bullet-char-template-57354" transform="scale(0.00048828125,-0.00048828125)">
   <path d="M 8,1128 L 1137,1128 1137,0 8,0 8,1128 Z"/>
  </g>
  <g id="bullet-char-template-10146" transform="scale(0.00048828125,-0.00048828125)">
   <path d="M 174,0 L 602,739 174,1481 1456,739 174,0 Z M 1358,739 L 309,1346 659,739 1358,739 Z"/>
  </g>
  <g id="bullet-char-template-10132" transform="scale(0.00048828125,-0.00048828125)">
   <path d="M 2015,739 L 1276,0 717,0 1260,543 174,543 174,936 1260,936 717,1481 1274,1481 2015,739 Z"/>
  </g>
  <g id="bullet-char-template-10007" transform="scale(0.00048828125,-0.00048828125)">
   <path d="M 0,-2 C -7,14 -16,27 -25,37 L 356,567 C 262,823 215,952 215,954 215,979 228,992 255,992 264,992 276,990 289,987 310,991 331,999 354,1012 L 381,999 492,748 772,1049 836,1024 860,1049 C 881,1039 901,1025 922,1006 886,937 835,863 770,784 769,783 710,716 594,584 L 774,223 C 774,196 753,168 711,139 L 727,119 C 717,90 699,76 672,76 641,76 570,178 457,381 L 164,-76 C 142,-110 111,-127 72,-127 30,-127 9,-110 8,-76 1,-67 -2,-52 -2,-32 -2,-23 -1,-13 0,-2 Z"/>
  </g>
  <g id="bullet-char-template-10004" transform="scale(0.00048828125,-0.00048828125)">
   <path d="M 285,-33 C 182,-33 111,30 74,156 52,228 41,333 41,471 41,549 55,616 82,672 116,743 169,778 240,778 293,778 328,747 346,684 L 369,508 C 377,444 397,411 428,410 L 1163,1116 C 1174,1127 1196,1133 1229,1133 1271,1133 1292,1118 1292,1087 L 1292,965 C 1292,929 1282,901 1262,881 L 442,47 C 390,-6 338,-33 285,-33 Z"/>
  </g>
  <g id="bullet-char-template-9679" transform="scale(0.00048828125,-0.00048828125)">
   <path d="M 813,0 C 632,0 489,54 383,161 276,268 223,411 223,592 223,773 276,916 383,1023 489,1130 632,1184 813,1184 992,1184 1136,1130 1245,1023 1353,916 1407,772 1407,592 1407,412 1353,268 1245,161 1136,54 992,0 813,0 Z"/>
  </g>
  <g id="bullet-char-template-8226" transform="scale(0.00048828125,-0.00048828125)">
   <path d="M 346,457 C 273,457 209,483 155,535 101,586 74,649 74,723 74,796 101,859 155,911 209,963 273,989 346,989 419,989 480,963 531,910 582,859 608,796 608,723 608,648 583,586 532,535 482,483 420,457 346,457 Z"/>
  </g>
  <g id="bullet-char-template-8211" transform="scale(0.00048828125,-0.00048828125)">
   <path d="M -4,459 L 1135,459 1135,606 -4,606 -4,459 Z"/>
  </g>
  <g id="bullet-char-template-61548" transform="scale(0.00048828125,-0.00048828125)">
   <path d="M 173,740 C 173,903 231,1043 346,1159 462,1274 601,1332 765,1332 928,1332 1067,1274 1183,1159 1299,1043 1357,903 1357,740 1357,577 1299,437 1183,322 1067,206 928,148 765,148 601,148 462,206 346,322 231,437 173,577 173,740 Z"/>
  </g>
 </defs>
 <g class="Page">
  <g class="com.sun.star.drawing.PolyPolygonShape">
   <g id="id3">
    <rect class="BoundingBox" stroke="none" fill="none" x="49649" y="30500" width="2503" height="2502"/>
    <path fill="rgb(0,0,255)" stroke="none" d="M 52151,31751 L 52151,31720 52149,31689 52147,31659 52145,31628 52141,31597 52137,31567 52132,31537 52127,31507 52120,31477 52113,31447 52106,31417 52097,31388 52088,31358 52078,31329 52067,31301 52056,31272 52044,31244 52031,31215 52017,31187 52003,31160 51988,31133 51973,31107 51957,31081 51940,31055 51923,31030 51905,31005 51886,30980 51867,30956 51847,30933 51827,30910 51806,30888 51785,30866 51763,30844 51740,30823 51717,30803 51694,30783 51670,30764 51645,30745 51620,30728 51595,30710 51569,30693 51543,30677 51517,30662 51490,30647 51463,30633 51435,30620 51407,30607 51379,30595 51350,30583 51322,30573 51293,30563 51263,30553 51233,30545 51203,30537 51173,30530 51143,30523 51113,30518 51083,30513 51053,30509 51022,30505 50991,30503 50961,30501 50930,30500 50900,30500 50869,30500 50838,30501 50807,30503 50777,30505 50746,30509 50716,30513 50686,30518 50656,30523 50626,30530 50596,30537 50566,30545 50537,30553 50507,30563 50478,30573 50450,30583 50421,30595 50393,30607 50365,30620 50337,30633 50310,30647 50283,30662 50257,30677 50231,30693 50205,30710 50180,30728 50155,30745 50130,30764 50106,30783 50083,30803 50060,30823 50037,30844 50015,30866 49994,30888 49973,30910 49953,30933 49933,30956 49914,30980 49895,31005 49877,31030 49860,31055 49843,31081 49827,31107 49812,31133 49797,31160 49783,31187 49769,31215 49756,31244 49744,31272 49733,31301 49722,31329 49712,31358 49703,31388 49694,31417 49687,31447 49680,31477 49673,31507 49668,31537 49663,31567 49659,31597 49655,31628 49652,31659 49651,31689 49649,31720 49649,31750 49649,31781 49651,31812 49652,31843 49655,31873 49659,31904 49663,31934 49668,31964 49673,31994 49680,32024 49687,32054 49694,32084 49703,32113 49712,32143 49722,32172 49733,32200 49744,32229 49756,32257 49769,32285 49783,32313 49797,32340 49812,32367 49827,32393 49843,32419 49860,32445 49877,32470 49895,32495 49914,32520 49933,32544 49953,32567 49973,32590 49994,32612 50015,32634 50037,32656 50060,32677 50083,32697 50106,32717 50130,32736 50155,32755 50180,32772 50205,32790 50231,32807 50257,32823 50283,32838 50310,32853 50337,32867 50365,32881 50393,32893 50421,32905 50450,32917 50478,32927 50507,32937 50537,32947 50566,32955 50596,32963 50626,32970 50656,32977 50686,32982 50716,32987 50746,32991 50777,32995 50807,32997 50838,32999 50869,33000 50899,33001 50930,33000 50961,32999 50991,32997 51022,32995 51053,32991 51083,32987 51113,32982 51143,32977 51173,32970 51203,32963 51233,32955 51263,32947 51293,32937 51322,32927 51350,32917 51379,32905 51407,32893 51435,32881 51463,32867 51490,32853 51517,32838 51543,32823 51569,32807 51595,32790 51620,32772 51645,32755 51670,32736 51694,32717 51717,32697 51740,32677 51763,32656 51785,32634 51806,32612 51827,32590 51847,32567 51867,32544 51886,32520 51905,32495 51923,32470 51940,32445 51957,32419 51973,32393 51988,32367 52003,32340 52017,32313 52031,32285 52044,32257 52056,32229 52067,32200 52078,32172 52088,32143 52097,32113 52106,32084 52113,32054 52120,32024 52127,31994 52132,31964 52137,31934 52141,31904 52145,31873 52147,31843 52149,31812 52151,31781 52151,31751 Z"/>
   </g>
  </g>
  <g class="com.sun.star.drawing.PolyPolygonShape">
   <g id="id4">
    <rect class="BoundingBox" stroke="none" fill="none" x="49703" y="30553" width="2395" height="2395"/>
    <path fill="rgb(255,255,255)" stroke="none" d="M 52097,31750 L 52097,31720 52096,31691 52094,31662 52091,31632 52088,31603 52084,31574 52080,31545 52074,31516 52068,31487 52061,31459 52054,31430 52046,31402 52037,31374 52027,31346 52017,31319 52006,31292 51995,31265 51982,31238 51969,31212 51956,31186 51942,31160 51927,31134 51912,31109 51896,31085 51879,31061 51862,31037 51844,31013 51826,30990 51807,30968 51787,30946 51767,30925 51747,30904 51726,30883 51704,30863 51682,30844 51660,30825 51637,30806 51613,30789 51590,30771 51565,30755 51541,30739 51516,30723 51490,30709 51465,30694 51438,30681 51411,30668 51384,30656 51357,30644 51330,30633 51303,30623 51275,30613 51247,30605 51219,30596 51190,30589 51162,30582 51133,30576 51104,30571 51075,30566 51046,30562 51017,30559 50988,30556 50958,30555 50929,30553 50900,30553 50870,30553 50841,30555 50811,30556 50782,30559 50753,30562 50724,30566 50695,30571 50666,30576 50637,30582 50609,30589 50580,30596 50552,30605 50524,30613 50496,30623 50469,30633 50442,30644 50415,30656 50388,30668 50361,30681 50335,30694 50310,30709 50284,30723 50259,30739 50235,30755 50210,30771 50187,30789 50163,30806 50140,30825 50118,30844 50096,30863 50074,30883 50053,30904 50033,30925 50013,30946 49993,30968 49974,30990 49956,31013 49938,31037 49921,31061 49904,31085 49888,31109 49873,31134 49858,31160 49844,31186 49831,31212 49818,31238 49805,31265 49794,31292 49783,31319 49773,31346 49763,31374 49754,31402 49746,31430 49739,31459 49732,31487 49726,31516 49720,31545 49716,31574 49712,31603 49709,31632 49706,31662 49704,31691 49703,31720 49703,31749 49703,31779 49704,31808 49706,31838 49709,31867 49712,31896 49716,31925 49720,31954 49726,31983 49732,32012 49739,32040 49746,32069 49754,32097 49763,32125 49773,32153 49783,32180 49794,32207 49805,32234 49818,32261 49831,32287 49844,32315 49858,32340 49873,32366 49888,32391 49904,32415 49921,32439 49938,32463 49956,32487 49974,32510 49993,32532 50013,32554 50033,32576 50053,32597 50074,32617 50096,32637 50118,32656 50140,32675 50163,32694 50187,32712 50210,32729 50235,32745 50259,32761 50284,32777 50310,32792 50335,32806 50361,32819 50388,32832 50415,32844 50442,32856 50469,32867 50496,32877 50524,32887 50552,32896 50580,32904 50609,32911 50637,32918 50666,32924 50695,32929 50724,32934 50753,32938 50782,32941 50811,32944 50841,32946 50870,32947 50899,32947 50929,32947 50958,32946 50988,32944 51017,32941 51046,32938 51075,32934 51104,32929 51133,32924 51162,32918 51190,32911 51219,32904 51247,32896 51275,32887 51303,32877 51330,32867 51357,32856 51384,32844 51411,32832 51438,32819 51465,32806 51490,32792 51516,32777 51541,32761 51565,32745 51590,32729 51613,32712 51637,32694 51660,32675 51682,32656 51704,32637 51726,32617 51747,32597 51767,32576 51787,32554 51807,32532 51826,32510 51844,32487 51862,32463 51879,32439 51896,32415 51912,32391 51927,32366 51942,32340 51956,32315 51969,32287 51982,32261 51995,32234 52006,32207 52017,32180 52027,32153 52037,32125 52046,32097 52054,32069 52061,32040 52068,32012 52074,31983 52080,31954 52084,31925 52088,31896 52091,31867 52094,31838 52096,31808 52097,31779 52097,31750 Z"/>
   </g>
  </g>
  <g class="com.sun.star.drawing.PolyPolygonShape">
   <g id="id5">
    <rect class="BoundingBox" stroke="none" fill="none" x="49756" y="30607" width="2289" height="2287"/>
    <path fill="rgb(0,0,255)" stroke="none" d="M 52044,31751 L 52043,31723 52042,31694 52041,31666 52038,31639 52035,31611 52031,31583 52027,31555 52022,31528 52016,31500 52009,31473 52002,31446 51994,31419 51986,31392 51977,31366 51967,31339 51957,31313 51946,31287 51934,31262 51922,31237 51909,31212 51895,31187 51881,31163 51866,31139 51851,31116 51835,31092 51819,31070 51802,31047 51784,31026 51766,31004 51748,30983 51728,30963 51709,30942 51689,30923 51668,30904 51647,30885 51626,30867 51604,30850 51582,30832 51559,30815 51536,30799 51512,30784 51488,30769 51464,30755 51439,30742 51413,30729 51388,30716 51363,30705 51337,30694 51311,30683 51285,30673 51258,30664 51231,30656 51204,30648 51177,30641 51150,30635 51123,30629 51095,30624 51067,30619 51039,30615 51012,30612 50984,30610 50956,30608 50928,30607 50900,30607 50871,30607 50843,30608 50815,30610 50787,30612 50760,30615 50732,30619 50704,30624 50676,30629 50649,30635 50622,30641 50595,30648 50568,30656 50541,30664 50514,30673 50488,30683 50462,30694 50436,30705 50411,30716 50386,30729 50361,30742 50336,30755 50312,30769 50288,30784 50264,30799 50241,30815 50218,30832 50196,30850 50174,30867 50153,30885 50132,30904 50111,30923 50091,30942 50072,30963 50052,30983 50034,31004 50016,31026 49998,31047 49981,31070 49965,31092 49949,31116 49934,31139 49919,31163 49905,31187 49891,31212 49878,31237 49866,31262 49854,31287 49843,31313 49833,31339 49823,31366 49814,31392 49806,31419 49798,31446 49791,31473 49784,31500 49778,31528 49773,31555 49769,31583 49765,31611 49762,31639 49759,31666 49758,31694 49757,31723 49756,31750 49757,31779 49758,31807 49759,31835 49762,31863 49765,31890 49769,31918 49773,31946 49778,31973 49784,32001 49791,32028 49798,32055 49806,32082 49814,32109 49823,32135 49833,32162 49843,32188 49854,32214 49866,32239 49878,32264 49891,32289 49905,32314 49919,32338 49934,32362 49949,32385 49965,32409 49981,32431 49998,32454 50016,32475 50034,32497 50052,32518 50072,32539 50091,32559 50111,32578 50132,32597 50153,32616 50174,32634 50196,32652 50218,32668 50241,32685 50264,32701 50288,32716 50312,32731 50336,32745 50361,32758 50386,32771 50411,32784 50436,32795 50462,32806 50488,32817 50514,32827 50541,32836 50568,32844 50595,32852 50622,32859 50649,32866 50676,32871 50704,32877 50732,32881 50760,32885 50787,32888 50815,32890 50843,32892 50871,32893 50899,32893 50928,32893 50956,32892 50984,32890 51012,32888 51039,32885 51067,32881 51095,32877 51123,32871 51150,32866 51177,32859 51204,32852 51231,32844 51258,32836 51285,32827 51311,32817 51337,32806 51363,32795 51388,32784 51413,32771 51439,32758 51464,32745 51488,32731 51512,32716 51536,32701 51559,32685 51582,32668 51604,32652 51626,32634 51647,32616 51668,32597 51689,32578 51709,32559 51728,32539 51748,32518 51766,32497 51784,32475 51802,32454 51819,32431 51835,32409 51851,32385 51866,32362 51881,32338 51895,32314 51909,32289 51922,32264 51934,32239 51946,32214 51957,32188 51967,32162 51977,32135 51986,32109 51994,32082 52002,32055 52009,32028 52016,32001 52022,31973 52027,31946 52031,31918 52035,31890 52038,31863 52041,31835 52042,31807 52043,31779 52044,31751 Z"/>
   </g>
  </g>
  <g class="com.sun.star.drawing.PolyPolygonShape">
   <g id="id6">
    <rect class="BoundingBox" stroke="none" fill="none" x="50542" y="30842" width="721" height="993"/>
    <path fill="rgb(255,255,255)" stroke="none" d="M 50981,31361 L 50976,31352 50975,31347 50974,31343 50974,31338 50974,31333 50972,31324 50969,31316 50843,31099 50832,31080 50820,31062 50804,31045 50786,31035 50768,31029 50750,31025 50740,31024 50733,31022 50730,31019 50728,31017 50727,31013 50727,30975 50731,30973 50735,30971 50740,30969 50744,30966 50747,30963 50751,30959 50754,30956 50757,30952 50759,30947 50762,30943 50764,30939 50765,30934 50767,30929 50768,30925 50768,30920 50768,30915 50768,30906 50768,30900 50767,30894 50766,30887 50763,30882 50761,30876 50757,30870 50754,30865 50749,30861 50745,30856 50740,30852 50734,30849 50728,30847 50722,30844 50716,30843 50710,30842 50704,30842 50697,30842 50691,30843 50685,30844 50679,30847 50673,30849 50668,30852 50662,30856 50658,30861 50654,30865 50650,30870 50646,30876 50644,30882 50642,30887 50640,30894 50639,30900 50639,30906 50639,30915 50639,30920 50640,30925 50640,30929 50642,30934 50643,30939 50645,30943 50648,30947 50650,30952 50653,30956 50656,30959 50660,30963 50664,30966 50668,30969 50672,30971 50676,30973 50681,30975 50681,31013 50681,31015 50681,31016 50680,31018 50679,31019 50678,31021 50676,31022 50675,31022 50673,31023 50664,31023 50656,31025 50647,31026 50639,31029 50630,31032 50622,31035 50613,31039 50606,31044 50599,31050 50592,31057 50586,31064 50580,31071 50575,31079 50570,31087 50565,31095 50561,31104 50557,31113 50553,31121 50550,31130 50548,31139 50546,31149 50544,31158 50543,31167 50542,31177 50542,31369 50543,31373 50544,31377 50546,31381 50549,31384 50552,31387 50556,31389 50560,31390 50564,31391 50568,31390 50572,31389 50576,31387 50579,31384 50582,31381 50584,31377 50585,31373 50586,31369 50586,31175 50586,31169 50587,31163 50589,31157 50592,31151 50594,31148 50596,31146 50598,31145 50601,31143 50603,31142 50606,31142 50609,31141 50612,31141 50615,31142 50618,31143 50621,31144 50623,31146 50624,31149 50625,31151 50626,31154 50625,31157 50625,31734 50626,31740 50628,31746 50630,31751 50634,31756 50639,31759 50644,31762 50650,31764 50656,31765 50662,31764 50667,31762 50672,31759 50677,31756 50681,31751 50684,31746 50685,31740 50686,31734 50686,31423 50686,31419 50687,31415 50689,31411 50692,31408 50695,31406 50699,31404 50703,31403 50707,31402 50711,31403 50715,31404 50718,31406 50721,31408 50724,31411 50726,31415 50727,31419 50728,31423 50728,31803 50728,31809 50730,31815 50733,31820 50736,31825 50741,31828 50746,31831 50752,31833 50758,31834 50764,31833 50769,31831 50775,31828 50779,31825 50783,31820 50786,31815 50787,31809 50788,31803 50788,31164 50788,31159 50790,31154 50792,31150 50795,31146 50798,31144 50802,31144 50806,31144 50810,31145 50814,31146 50817,31148 50820,31151 50822,31154 50931,31338 50934,31341 50938,31344 50942,31347 50946,31349 50951,31352 50955,31356 50959,31360 50962,31365 50965,31370 50967,31375 50969,31380 50969,31386 50971,31392 50974,31398 50978,31403 50982,31407 50987,31410 50993,31412 50999,31414 51005,31413 51093,31413 51038,31609 51084,31609 51084,31752 51085,31754 51085,31757 51087,31759 51088,31761 51090,31762 51092,31764 51095,31764 51097,31765 51100,31764 51102,31764 51104,31762 51106,31761 51108,31759 51109,31757 51110,31754 51110,31752 51110,31609 51120,31608 51130,31608 51141,31608 51151,31609 51151,31720 51151,31723 51151,31725 51153,31727 51154,31729 51156,31731 51159,31732 51161,31733 51163,31733 51166,31733 51168,31732 51171,31731 51173,31729 51174,31727 51175,31725 51176,31723 51176,31720 51176,31609 51228,31609 51167,31437 51167,31436 51167,31434 51168,31433 51170,31432 51171,31432 51172,31432 51173,31433 51174,31434 51242,31498 51243,31500 51245,31502 51247,31503 51249,31503 51251,31504 51253,31503 51255,31503 51257,31502 51259,31500 51260,31499 51261,31497 51262,31494 51262,31492 51261,31490 51260,31488 51259,31486 51175,31404 51172,31401 51169,31398 51166,31395 51163,31393 51159,31391 51155,31389 51151,31388 51148,31387 51145,31383 51142,31380 51141,31376 51140,31372 51139,31368 51139,31363 51139,31359 51141,31355 51144,31354 51148,31352 51152,31350 51155,31347 51158,31344 51161,31341 51164,31338 51166,31335 51168,31331 51170,31327 51171,31323 51172,31319 51173,31315 51173,31311 51173,31307 51173,31303 51172,31299 51171,31295 51169,31291 51167,31287 51165,31283 51162,31280 51160,31277 51157,31274 51153,31272 51150,31269 51146,31267 51142,31266 51138,31264 51134,31263 51130,31263 51126,31263 51122,31263 51118,31263 51114,31264 51110,31265 51106,31267 51102,31269 51098,31271 51095,31274 51092,31276 51089,31280 51087,31283 51084,31286 51083,31290 51081,31294 51080,31298 51079,31302 51078,31306 51078,31310 51078,31315 51079,31319 51080,31323 51081,31327 51083,31331 51085,31334 51087,31338 51090,31341 51093,31344 51096,31347 51099,31349 51103,31352 51106,31353 51110,31355 51113,31371 51114,31374 51114,31377 51113,31379 51112,31382 51111,31385 51110,31387 51108,31389 51106,31391 51015,31391 51012,31391 51009,31391 51006,31391 51004,31390 51001,31389 50999,31387 50997,31385 50995,31383 50995,31379 50994,31376 50993,31373 50991,31370 50989,31367 50987,31365 50984,31363 50981,31361 Z"/>
   </g>
  </g>
  <g class="com.sun.star.drawing.PolyPolygonShape">
   <g id="id7">
    <rect class="BoundingBox" stroke="none" fill="none" x="50415" y="32035" width="989" height="552"/>
    <path fill="rgb(255,255,255)" stroke="none" d="M 51172,32402 L 51044,32402 51045,32411 51046,32420 51048,32429 51050,32438 51053,32447 51056,32456 51060,32464 51064,32473 51069,32481 51074,32488 51080,32496 51085,32503 51092,32510 51098,32516 51106,32522 51113,32528 51120,32533 51128,32538 51136,32542 51145,32546 51154,32549 51162,32552 51171,32555 51180,32557 51190,32558 51199,32559 51208,32559 51217,32559 51227,32558 51236,32557 51245,32555 51254,32553 51263,32550 51271,32547 51280,32543 51288,32539 51296,32535 51304,32530 51311,32524 51319,32518 51325,32512 51332,32505 51338,32498 51343,32491 51349,32483 51354,32475 51358,32467 51362,32459 51365,32450 51368,32441 51370,32432 51372,32423 51374,32414 51375,32405 51375,32396 51375,32386 51374,32377 51373,32368 51371,32359 51369,32350 51366,32341 51363,32332 51359,32324 51355,32316 51246,32381 51247,32385 51248,32389 51248,32393 51248,32397 51247,32401 51246,32404 51245,32408 51243,32411 51241,32415 51239,32418 51236,32421 51234,32423 51230,32426 51227,32428 51224,32429 51220,32430 51216,32431 51212,32432 51208,32432 51204,32432 51201,32431 51197,32430 51193,32428 51190,32426 51187,32424 51184,32422 51181,32419 51179,32416 51177,32413 51175,32409 51173,32406 51172,32402 Z M 51127,32251 L 51118,32256 51110,32262 51102,32268 51094,32275 51087,32283 51080,32291 51074,32299 51069,32308 51063,32317 51059,32326 51055,32335 51052,32345 51049,32355 51047,32365 51045,32375 51044,32386 51172,32386 51174,32380 51177,32374 51181,32369 51185,32364 51127,32251 Z M 51347,32302 L 51237,32368 51234,32364 51230,32361 51225,32359 51220,32357 51215,32356 51210,32356 51205,32356 51200,32357 51141,32243 51148,32240 51155,32238 51162,32235 51169,32234 51176,32232 51183,32231 51190,32230 51197,32229 51205,32228 51212,32228 51219,32229 51226,32229 51234,32230 51241,32231 51248,32233 51255,32235 51262,32237 51269,32239 51275,32242 51282,32245 51288,32248 51295,32252 51301,32256 51307,32260 51313,32264 51318,32269 51324,32274 51329,32279 51334,32284 51338,32290 51343,32296 51347,32302 Z M 50974,32348 L 51072,32142 51112,32222 51102,32229 51091,32236 51082,32244 51072,32252 51064,32261 51056,32270 51048,32281 51041,32291 51035,32302 51030,32313 51025,32325 51021,32336 51018,32349 51015,32361 51013,32373 51013,32386 50999,32386 50997,32380 50996,32374 50993,32369 50991,32364 50987,32359 50983,32355 50979,32351 50974,32348 Z M 50632,32401 L 50630,32405 50628,32408 50626,32411 50623,32414 50620,32416 50616,32418 50612,32419 50609,32419 50605,32419 50601,32418 50597,32417 50594,32415 50590,32413 50588,32410 50585,32407 50584,32403 50582,32400 50582,32396 50582,32392 50582,32388 50584,32384 50585,32381 50588,32377 50590,32375 50594,32372 50597,32370 50601,32369 50605,32368 50609,32368 50612,32369 50616,32370 50620,32372 50624,32363 50628,32353 50632,32344 50635,32335 50661,32236 50648,32232 50635,32230 50622,32228 50609,32227 50596,32228 50583,32229 50570,32231 50558,32235 50545,32239 50533,32244 50522,32251 50511,32258 50501,32266 50491,32275 50482,32284 50474,32294 50466,32305 50460,32316 50454,32328 50450,32340 50446,32353 50443,32366 50441,32379 50441,32392 50441,32405 50442,32418 50445,32431 50448,32443 50453,32456 50458,32467 50464,32479 50471,32490 50479,32500 50488,32510 50497,32519 50508,32527 50518,32535 50530,32541 50541,32547 50554,32551 50566,32555 50579,32558 50592,32560 50605,32560 50618,32560 50631,32559 50644,32556 50657,32553 50669,32548 50681,32543 50692,32537 50703,32530 50714,32522 50723,32513 50733,32504 50742,32493 50749,32483 50756,32471 50761,32460 50766,32447 50770,32435 50772,32422 50774,32409 50775,32396 50632,32401 Z M 50631,32385 L 50774,32380 50773,32369 50771,32358 50768,32347 50765,32337 50761,32326 50756,32317 50750,32307 50744,32298 50738,32289 50730,32281 50722,32273 50713,32265 50704,32259 50695,32252 50686,32247 50676,32242 50654,32327 50650,32339 50645,32350 50641,32362 50635,32373 50632,32377 50629,32381 50631,32385 Z M 50702,32138 L 51056,32138 50960,32341 50955,32340 50951,32339 50946,32339 50942,32339 50936,32289 50951,32287 50950,32277 50913,32281 50914,32291 50929,32290 50934,32339 50927,32341 50921,32343 50914,32347 50909,32351 50697,32158 50702,32138 Z M 51107,32087 L 51110,32086 51113,32085 51115,32083 51116,32081 51117,32077 51117,32074 51116,32071 51115,32069 51112,32068 51093,32065 51074,32064 51055,32064 51036,32065 51032,32065 51027,32066 51023,32068 51019,32071 51017,32073 51016,32075 51016,32078 51017,32081 51019,32083 51021,32085 51024,32085 51027,32085 51039,32085 51051,32086 51063,32087 51075,32088 51076,32088 51078,32090 51078,32091 51077,32093 51063,32122 50707,32122 50714,32094 50688,32076 50686,32075 50684,32072 50682,32070 50681,32067 50680,32065 50680,32062 50680,32059 50681,32056 50684,32054 50687,32052 50690,32051 50694,32051 50734,32051 50735,32051 50736,32050 50737,32049 50738,32048 50739,32044 50738,32041 50737,32039 50736,32037 50734,32036 50732,32035 50717,32035 50703,32035 50689,32036 50674,32038 50670,32038 50666,32040 50663,32042 50660,32046 50658,32049 50657,32054 50657,32058 50658,32062 50660,32067 50663,32073 50667,32078 50671,32082 50696,32099 50668,32206 50654,32203 50640,32200 50626,32198 50612,32197 50597,32197 50583,32198 50569,32201 50555,32204 50556,32209 50544,32212 50532,32217 50520,32223 50509,32229 50498,32236 50488,32243 50478,32252 50469,32261 50460,32270 50452,32281 50445,32291 50438,32302 50433,32314 50428,32326 50423,32338 50420,32351 50418,32363 50416,32376 50415,32389 50415,32402 50416,32415 50418,32428 50421,32440 50424,32452 50429,32465 50434,32477 50440,32488 50447,32499 50454,32510 50462,32520 50471,32529 50480,32538 50490,32546 50501,32554 50512,32560 50523,32566 50535,32572 50547,32576 50560,32580 50572,32583 50585,32584 50598,32585 50611,32586 50624,32585 50636,32583 50649,32581 50662,32578 50674,32574 50686,32569 50697,32563 50709,32557 50719,32550 50731,32542 50740,32533 50749,32524 50758,32514 50766,32504 50773,32493 50779,32482 50784,32470 50789,32458 50793,32446 50796,32433 50798,32421 50803,32421 50804,32413 50805,32405 50805,32397 50805,32389 50805,32381 50804,32373 50803,32365 50802,32357 50800,32349 50798,32341 50796,32333 50793,32326 50790,32318 50787,32311 50783,32304 50779,32297 50775,32290 50771,32283 50766,32276 50761,32270 50756,32264 50751,32258 50745,32252 50739,32247 50733,32241 50725,32236 50719,32232 50712,32227 50705,32223 50698,32219 50691,32215 50683,32212 50693,32177 50898,32363 50894,32369 50891,32376 50889,32384 50888,32391 50889,32399 50890,32406 50892,32414 50895,32421 50900,32427 50904,32433 50910,32437 50916,32442 50923,32445 50931,32447 50938,32449 50946,32449 50951,32499 50936,32500 50937,32510 50974,32506 50973,32496 50958,32498 50953,32448 50957,32448 50962,32446 50966,32445 50970,32443 50973,32441 50977,32438 50980,32435 50983,32432 50986,32429 50989,32426 50991,32422 50993,32418 50995,32414 50997,32410 50998,32406 50999,32402 51013,32402 51014,32415 51015,32429 51021,32428 51023,32438 51025,32448 51028,32457 51032,32467 51036,32476 51041,32485 51046,32494 51051,32502 51057,32511 51064,32519 51071,32526 51078,32533 51085,32540 51093,32546 51102,32552 51110,32558 51119,32563 51128,32567 51137,32572 51147,32575 51157,32578 51166,32581 51176,32583 51186,32584 51197,32585 51207,32586 51217,32586 51227,32585 51237,32584 51247,32582 51257,32580 51267,32577 51276,32574 51286,32570 51295,32566 51304,32561 51313,32556 51321,32550 51329,32544 51337,32537 51345,32530 51352,32523 51358,32515 51365,32507 51370,32499 51376,32490 51380,32481 51385,32472 51389,32463 51392,32453 51395,32443 51398,32434 51399,32424 51401,32414 51401,32403 51402,32393 51401,32383 51401,32373 51399,32363 51397,32353 51395,32343 51392,32333 51388,32324 51384,32314 51389,32312 51385,32303 51380,32295 51375,32287 51370,32279 51364,32271 51358,32263 51351,32256 51344,32249 51337,32243 51329,32237 51321,32231 51313,32226 51305,32221 51296,32216 51287,32212 51278,32209 51269,32206 51260,32203 51250,32201 51241,32199 51231,32198 51221,32197 51212,32197 51202,32197 51192,32197 51183,32198 51173,32200 51163,32202 51154,32204 51145,32207 51136,32211 51127,32215 51080,32124 51096,32092 51098,32090 51101,32088 51104,32087 51107,32087 Z"/>
   </g>
  </g>
 </g>
</svg>