<?xml version="1.0" encoding="UTF-8"?>
<!DOCTYPE svg PUBLIC "-//W3C//DTD SVG 1.1//EN" "http://www.w3.org/Graphics/SVG/1.1/DTD/svg11.dtd">
<svg version="1.2" width="25.03mm" height="25.02mm" viewBox="52649 30500 2503 2502" preserveAspectRatio="xMidYMid" fill-rule="evenodd" stroke-width="28.222" stroke-linejoin="round" xmlns="http://www.w3.org/2000/svg" xmlns:ooo="http://xml.openoffice.org/svg/export" xmlns:xlink="http://www.w3.org/1999/xlink" xmlns:presentation="http://sun.com/xmlns/staroffice/presentation" xmlns:smil="http://www.w3.org/2001/SMIL20/" xmlns:anim="urn:oasis:names:tc:opendocument:xmlns:animation:1.0" xml:space="preserve">
 <defs class="EmbeddedBulletChars">
  <g id="bullet-char-template-57356" transform="scale(0.00048828125,-0.00048828125)">
   <path d="M 580,1141 L 1163,571 580,0 -4,571 580,1141 Z"/>
  </g>
  <g id="bullet-char-template-57354" transform="scale(0.00048828125,-0.00048828125)">
   <path d="M 8,1128 L 1137,1128 1137,0 8,0 8,1128 Z"/>
  </g>
  <g id="bullet-char-template-10146" transform="scale(0.00048828125,-0.00048828125)">
   <path d="M 174,0 L 602,739 174,1481 1456,739 174,0 Z M 1358,739 L 309,1346 659,739 1358,739 Z"/>
  </g>
  <g id="bullet-char-template-10132" transform="scale(0.00048828125,-0.00048828125)">
   <path d="M 2015,739 L 1276,0 717,0 1260,543 174,543 174,936 1260,936 717,1481 1274,1481 2015,739 Z"/>
  </g>
  <g id="bullet-char-template-10007" transform="scale(0.00048828125,-0.00048828125)">
   <path d="M 0,-2 C -7,14 -16,27 -25,37 L 356,567 C 262,823 215,952 215,954 215,979 228,992 255,992 264,992 276,990 289,987 310,991 331,999 354,1012 L 381,999 492,748 772,1049 836,1024 860,1049 C 881,1039 901,1025 922,1006 886,937 835,863 770,784 769,783 710,716 594,584 L 774,223 C 774,196 753,168 711,139 L 727,119 C 717,90 699,76 672,76 641,76 570,178 457,381 L 164,-76 C 142,-110 111,-127 72,-127 30,-127 9,-110 8,-76 1,-67 -2,-52 -2,-32 -2,-23 -1,-13 0,-2 Z"/>
  </g>
  <g id="bullet-char-template-10004" transform="scale(0.00048828125,-0.00048828125)">
   <path d="M 285,-33 C 182,-33 111,30 74,156 52,228 41,333 41,471 41,549 55,616 82,672 116,743 169,778 240,778 293,778 328,747 346,684 L 369,508 C 377,444 397,411 428,410 L 1163,1116 C 1174,1127 1196,1133 1229,1133 1271,1133 1292,1118 1292,1087 L 1292,965 C 1292,929 1282,901 1262,881 L 442,47 C 390,-6 338,-33 285,-33 Z"/>
  </g>
  <g id="bullet-char-template-9679" transform="scale(0.00048828125,-0.00048828125)">
   <path d="M 813,0 C 632,0 489,54 383,161 276,268 223,411 223,592 223,773 276,916 383,1023 489,1130 632,1184 813,1184 992,1184 1136,1130 1245,1023 1353,916 1407,772 1407,592 1407,412 1353,268 1245,161 1136,54 992,0 813,0 Z"/>
  </g>
  <g id="bullet-char-template-8226" transform="scale(0.00048828125,-0.00048828125)">
   <path d="M 346,457 C 273,457 209,483 155,535 101,586 74,649 74,723 74,796 101,859 155,911 209,963 273,989 346,989 419,989 480,963 531,910 582,859 608,796 608,723 608,648 583,586 532,535 482,483 420,457 346,457 Z"/>
  </g>
  <g id="bullet-char-template-8211" transform="scale(0.00048828125,-0.00048828125)">
   <path d="M -4,459 L 1135,459 1135,606 -4,606 -4,459 Z"/>
  </g>
  <g id="bullet-char-template-61548" transform="scale(0.00048828125,-0.00048828125)">
   <path d="M 173,740 C 173,903 231,1043 346,1159 462,1274 601,1332 765,1332 928,1332 1067,1274 1183,1159 1299,1043 1357,903 1357,740 1357,577 1299,437 1183,322 1067,206 928,148 765,148 601,148 462,206 346,322 231,437 173,577 173,740 Z"/>
  </g>
 </defs>
 <g class="Page">
  <g class="com.sun.star.drawing.PolyPolygonShape">
   <g id="id3">
    <rect class="BoundingBox" stroke="none" fill="none" x="52649" y="30500" width="2503" height="2502"/>
    <path fill="rgb(0,0,255)" stroke="none" d="M 55151,31751 L 55151,31720 55149,31689 55148,31659 55145,31628 55141,31597 55137,31567 55132,31537 55127,31507 55120,31477 55113,31447 55106,31417 55097,31388 55088,31358 55078,31329 55067,31301 55056,31272 55044,31244 55031,31215 55017,31187 55003,31160 54988,31133 54973,31107 54957,31081 54940,31055 54923,31030 54905,31005 54886,30980 54867,30956 54847,30933 54827,30910 54806,30888 54785,30866 54763,30844 54740,30823 54717,30803 54694,30783 54670,30764 54645,30745 54620,30728 54595,30710 54569,30693 54543,30677 54517,30662 54490,30647 54463,30633 54435,30620 54407,30607 54379,30595 54351,30583 54322,30573 54293,30563 54263,30553 54234,30545 54204,30537 54174,30530 54144,30523 54114,30518 54084,30513 54054,30509 54023,30505 53993,30503 53962,30501 53931,30500 53901,30500 53870,30500 53839,30501 53808,30503 53778,30505 53746,30509 53716,30513 53686,30518 53656,30523 53626,30530 53596,30537 53566,30545 53537,30553 53507,30563 53478,30573 53450,30583 53421,30595 53393,30607 53365,30620 53337,30633 53310,30647 53283,30662 53257,30677 53231,30693 53205,30710 53179,30728 53155,30745 53130,30764 53106,30783 53083,30803 53060,30823 53037,30844 53015,30866 52994,30888 52973,30910 52953,30933 52933,30956 52914,30980 52895,31005 52877,31030 52860,31055 52843,31081 52827,31107 52812,31133 52797,31160 52783,31187 52769,31215 52756,31244 52744,31272 52733,31301 52722,31329 52712,31358 52703,31388 52694,31417 52687,31447 52680,31477 52673,31507 52668,31537 52663,31567 52659,31597 52655,31628 52652,31659 52651,31689 52649,31720 52649,31750 52649,31781 52651,31812 52652,31843 52655,31873 52659,31904 52663,31934 52668,31964 52673,31994 52680,32024 52687,32054 52694,32084 52703,32113 52712,32143 52722,32172 52733,32200 52744,32229 52756,32257 52769,32285 52783,32313 52797,32340 52812,32367 52827,32393 52843,32419 52860,32445 52877,32470 52895,32495 52914,32520 52933,32544 52953,32567 52973,32590 52994,32612 53015,32634 53037,32656 53060,32677 53083,32697 53106,32717 53130,32736 53155,32755 53179,32772 53205,32790 53231,32807 53257,32823 53283,32838 53310,32853 53337,32867 53365,32881 53393,32893 53421,32905 53450,32917 53478,32927 53507,32937 53537,32947 53566,32955 53596,32963 53626,32970 53656,32977 53686,32982 53716,32987 53746,32991 53778,32995 53808,32997 53839,32999 53870,33000 53900,33001 53931,33000 53962,32999 53993,32997 54023,32995 54054,32991 54084,32987 54114,32982 54144,32977 54174,32970 54204,32963 54234,32955 54263,32947 54293,32937 54322,32927 54351,32917 54379,32905 54407,32893 54435,32881 54463,32867 54490,32853 54517,32838 54543,32823 54569,32807 54595,32790 54620,32772 54645,32755 54670,32736 54694,32717 54717,32697 54740,32677 54763,32656 54785,32634 54806,32612 54827,32590 54847,32567 54867,32544 54886,32520 54905,32495 54923,32470 54940,32445 54957,32419 54973,32393 54988,32367 55003,32340 55017,32313 55031,32285 55044,32257 55056,32229 55067,32200 55078,32172 55088,32143 55097,32113 55106,32084 55113,32054 55120,32024 55127,31994 55132,31964 55137,31934 55141,31904 55145,31873 55148,31843 55149,31812 55151,31781 55151,31751 Z"/>
   </g>
  </g>
  <g class="com.sun.star.drawing.PolyPolygonShape">
   <g id="id4">
    <rect class="BoundingBox" stroke="none" fill="none" x="52703" y="30553" width="2395" height="2395"/>
    <path fill="rgb(255,255,255)" stroke="none" d="M 55097,31750 L 55097,31720 55096,31691 55094,31662 55091,31632 55088,31603 55084,31574 55080,31545 55074,31516 55068,31487 55061,31459 55054,31430 55046,31402 55037,31374 55027,31346 55017,31319 55006,31292 54995,31265 54982,31238 54969,31212 54956,31186 54942,31160 54927,31134 54912,31109 54896,31085 54879,31061 54862,31037 54844,31013 54826,30990 54807,30968 54787,30946 54767,30925 54747,30904 54726,30883 54704,30863 54682,30844 54660,30825 54637,30806 54613,30789 54590,30771 54565,30755 54541,30739 54516,30723 54490,30709 54465,30694 54439,30681 54412,30668 54385,30656 54358,30644 54331,30633 54304,30623 54276,30613 54248,30605 54220,30596 54191,30589 54163,30582 54134,30576 54105,30571 54076,30566 54047,30562 54018,30559 53989,30556 53959,30555 53930,30553 53901,30553 53871,30553 53841,30555 53811,30556 53782,30559 53753,30562 53724,30566 53695,30571 53666,30576 53637,30582 53609,30589 53580,30596 53552,30605 53524,30613 53496,30623 53469,30633 53442,30644 53415,30656 53388,30668 53361,30681 53335,30694 53310,30709 53284,30723 53259,30739 53235,30755 53210,30771 53187,30789 53163,30806 53140,30825 53118,30844 53096,30863 53074,30883 53053,30904 53033,30925 53013,30946 52993,30968 52974,30990 52956,31013 52938,31037 52921,31061 52904,31085 52888,31109 52873,31134 52858,31160 52844,31186 52831,31212 52818,31238 52805,31265 52794,31292 52783,31319 52773,31346 52763,31374 52754,31402 52746,31430 52739,31459 52732,31487 52726,31516 52720,31545 52716,31574 52712,31603 52709,31632 52706,31662 52704,31691 52703,31720 52703,31749 52703,31779 52704,31808 52706,31838 52709,31867 52712,31896 52716,31925 52720,31954 52726,31983 52732,32012 52739,32040 52746,32069 52754,32097 52763,32125 52773,32153 52783,32180 52794,32207 52805,32234 52818,32261 52831,32287 52844,32315 52858,32340 52873,32366 52888,32391 52904,32415 52921,32439 52938,32463 52956,32487 52974,32510 52993,32532 53013,32554 53033,32576 53053,32597 53074,32617 53096,32637 53118,32656 53140,32675 53163,32694 53187,32712 53210,32729 53235,32745 53259,32761 53284,32777 53310,32792 53335,32806 53361,32819 53388,32832 53415,32844 53442,32856 53469,32867 53496,32877 53524,32887 53552,32896 53580,32904 53609,32911 53637,32918 53666,32924 53695,32929 53724,32934 53753,32938 53782,32941 53811,32944 53841,32946 53871,32947 53900,32947 53930,32947 53959,32946 53989,32944 54018,32941 54047,32938 54076,32934 54105,32929 54134,32924 54163,32918 54191,32911 54220,32904 54248,32896 54276,32887 54304,32877 54331,32867 54358,32856 54385,32844 54412,32832 54439,32819 54465,32806 54490,32792 54516,32777 54541,32761 54565,32745 54590,32729 54613,32712 54637,32694 54660,32675 54682,32656 54704,32637 54726,32617 54747,32597 54767,32576 54787,32554 54807,32532 54826,32510 54844,32487 54862,32463 54879,32439 54896,32415 54912,32391 54927,32366 54942,32340 54956,32315 54969,32287 54982,32261 54995,32234 55006,32207 55017,32180 55027,32153 55037,32125 55046,32097 55054,32069 55061,32040 55068,32012 55074,31983 55080,31954 55084,31925 55088,31896 55091,31867 55094,31838 55096,31808 55097,31779 55097,31750 Z"/>
   </g>
  </g>
  <g class="com.sun.star.drawing.PolyPolygonShape">
   <g id="id5">
    <rect class="BoundingBox" stroke="none" fill="none" x="52756" y="30607" width="2289" height="2287"/>
    <path fill="rgb(0,0,255)" stroke="none" d="M 55044,31751 L 55043,31723 55042,31694 55041,31666 55038,31639 55035,31611 55031,31583 55027,31555 55022,31528 55016,31500 55009,31473 55002,31446 54994,31419 54986,31392 54977,31366 54967,31339 54957,31313 54946,31287 54934,31262 54922,31237 54909,31212 54895,31187 54881,31163 54866,31139 54851,31116 54835,31092 54819,31070 54802,31047 54784,31026 54766,31004 54748,30983 54728,30963 54709,30942 54689,30923 54668,30904 54647,30885 54626,30867 54604,30850 54582,30832 54559,30815 54536,30799 54512,30784 54488,30769 54464,30755 54439,30742 54414,30729 54389,30716 54364,30705 54338,30694 54312,30683 54286,30673 54259,30664 54232,30656 54205,30648 54178,30641 54151,30635 54124,30629 54096,30624 54068,30619 54040,30615 54013,30612 53985,30610 53957,30608 53929,30607 53901,30607 53872,30607 53844,30608 53816,30610 53789,30612 53761,30615 53733,30619 53704,30624 53676,30629 53649,30635 53622,30641 53595,30648 53568,30656 53541,30664 53514,30673 53488,30683 53462,30694 53436,30705 53411,30716 53386,30729 53361,30742 53336,30755 53312,30769 53288,30784 53264,30799 53241,30815 53218,30832 53196,30850 53174,30867 53153,30885 53132,30904 53111,30923 53091,30942 53072,30963 53052,30983 53034,31004 53016,31026 52998,31047 52981,31070 52965,31092 52949,31116 52934,31139 52919,31163 52905,31187 52891,31212 52878,31237 52866,31262 52854,31287 52843,31313 52833,31339 52823,31366 52814,31392 52806,31419 52798,31446 52791,31473 52784,31500 52778,31528 52773,31555 52769,31583 52765,31611 52762,31639 52759,31666 52758,31694 52757,31723 52756,31750 52757,31779 52758,31807 52759,31835 52762,31863 52765,31890 52769,31918 52773,31946 52778,31973 52784,32001 52791,32028 52798,32055 52806,32082 52814,32109 52823,32135 52833,32162 52843,32188 52854,32214 52866,32239 52878,32264 52891,32289 52905,32314 52919,32338 52934,32362 52949,32385 52965,32409 52981,32431 52998,32454 53016,32475 53034,32497 53052,32518 53072,32539 53091,32559 53111,32578 53132,32597 53153,32616 53174,32634 53196,32652 53218,32668 53241,32685 53264,32701 53288,32716 53312,32731 53336,32745 53361,32758 53386,32771 53411,32784 53436,32795 53462,32806 53488,32817 53514,32827 53541,32836 53568,32844 53595,32852 53622,32859 53649,32866 53676,32871 53704,32877 53733,32881 53761,32885 53789,32888 53816,32890 53844,32892 53872,32893 53900,32893 53929,32893 53957,32892 53985,32890 54013,32888 54040,32885 54068,32881 54096,32877 54124,32871 54151,32866 54178,32859 54205,32852 54232,32844 54259,32836 54286,32827 54312,32817 54338,32806 54364,32795 54389,32784 54414,32771 54439,32758 54464,32745 54488,32731 54512,32716 54536,32701 54559,32685 54582,32668 54604,32652 54626,32634 54647,32616 54668,32597 54689,32578 54709,32559 54728,32539 54748,32518 54766,32497 54784,32475 54802,32454 54819,32431 54835,32409 54851,32385 54866,32362 54881,32338 54895,32314 54909,32289 54922,32264 54934,32239 54946,32214 54957,32188 54967,32162 54977,32135 54986,32109 54994,32082 55002,32055 55009,32028 55016,32001 55022,31973 55027,31946 55031,31918 55035,31890 55038,31863 55041,31835 55042,31807 55043,31779 55044,31751 Z"/>
   </g>
  </g>
  <g class="com.sun.star.drawing.PolyPolygonShape">
   <g id="id6">
    <rect class="BoundingBox" stroke="none" fill="none" x="53376" y="31027" width="1049" height="1447"/>
    <path fill="rgb(255,255,255)" stroke="none" d="M 54015,31784 L 54008,31771 54006,31764 54005,31757 54004,31750 54004,31743 54001,31730 53998,31718 53812,31404 53796,31376 53779,31349 53756,31325 53729,31310 53703,31301 53677,31296 53663,31294 53653,31291 53647,31288 53645,31284 53643,31277 53643,31223 53650,31221 53656,31217 53662,31214 53668,31209 53673,31205 53678,31200 53683,31194 53687,31189 53691,31183 53695,31176 53697,31170 53700,31163 53702,31156 53703,31149 53704,31142 53704,31135 53704,31123 53703,31113 53702,31104 53700,31095 53697,31087 53693,31078 53688,31070 53683,31063 53676,31056 53669,31050 53662,31043 53654,31038 53646,31034 53637,31031 53628,31029 53619,31028 53610,31027 53600,31028 53591,31029 53582,31031 53574,31034 53565,31038 53557,31043 53550,31050 53543,31056 53537,31063 53531,31070 53526,31078 53522,31087 53519,31095 53517,31104 53516,31113 53515,31123 53515,31135 53516,31142 53516,31149 53518,31156 53519,31163 53522,31170 53525,31176 53528,31183 53532,31189 53536,31194 53541,31200 53546,31205 53551,31209 53557,31214 53563,31217 53570,31221 53576,31223 53576,31278 53576,31281 53576,31283 53575,31285 53574,31288 53572,31289 53570,31291 53568,31292 53565,31292 53552,31293 53540,31295 53527,31298 53515,31301 53503,31306 53491,31311 53479,31316 53468,31323 53458,31332 53449,31342 53440,31353 53431,31363 53423,31375 53416,31386 53409,31398 53402,31411 53397,31423 53392,31436 53388,31449 53384,31463 53381,31476 53379,31490 53377,31503 53376,31517 53376,31796 53377,31802 53379,31808 53381,31813 53385,31818 53390,31822 53395,31825 53401,31826 53408,31827 53414,31826 53420,31825 53425,31822 53430,31818 53434,31813 53437,31808 53438,31802 53439,31796 53439,31515 53439,31506 53441,31496 53444,31487 53448,31479 53451,31476 53454,31473 53457,31470 53461,31468 53465,31466 53469,31466 53473,31465 53478,31465 53482,31466 53485,31467 53489,31469 53492,31472 53494,31476 53495,31479 53496,31483 53496,31487 53496,32328 53496,32332 53496,32337 53497,32341 53499,32345 53501,32349 53503,32353 53506,32356 53508,32359 53512,32362 53515,32365 53519,32367 53523,32369 53527,32370 53531,32371 53535,32372 53540,32372 53544,32372 53548,32371 53552,32370 53556,32369 53560,32367 53564,32365 53568,32362 53571,32359 53574,32356 53576,32353 53578,32349 53580,32345 53582,32341 53583,32337 53583,32332 53584,32328 53584,31874 53584,31868 53586,31863 53589,31857 53593,31853 53597,31849 53602,31846 53608,31844 53614,31844 53620,31844 53626,31846 53631,31849 53636,31853 53639,31857 53642,31863 53644,31868 53645,31874 53645,32429 53645,32433 53645,32437 53646,32441 53648,32446 53650,32450 53652,32453 53654,32457 53657,32460 53661,32463 53664,32465 53668,32468 53672,32469 53676,32471 53680,32472 53684,32473 53689,32473 53693,32473 53697,32472 53701,32471 53705,32469 53709,32468 53713,32465 53716,32463 53720,32460 53723,32457 53725,32453 53727,32450 53729,32446 53731,32441 53732,32437 53732,32433 53733,32429 53733,31498 53733,31491 53735,31484 53738,31478 53742,31472 53748,31470 53753,31469 53759,31469 53765,31470 53770,31472 53775,31475 53779,31479 53782,31484 53942,31751 53947,31755 53952,31759 53958,31763 53964,31766 53971,31771 53977,31776 53983,31782 53988,31789 53992,31796 53995,31804 53997,31812 53998,31821 53999,31825 54000,31829 54002,31833 54004,31837 54007,31841 54010,31845 54013,31848 54016,31851 54020,31853 54024,31856 54028,31857 54033,31859 54037,31860 54042,31861 54046,31861 54051,31861 54178,31861 54098,32146 54166,32146 54166,32353 54166,32357 54167,32361 54169,32364 54171,32367 54174,32369 54177,32371 54181,32372 54184,32372 54188,32372 54192,32371 54195,32369 54198,32367 54200,32364 54202,32361 54203,32357 54203,32353 54203,32146 54218,32144 54233,32144 54247,32144 54262,32146 54262,32307 54262,32311 54263,32314 54265,32318 54268,32321 54270,32323 54274,32325 54277,32326 54281,32326 54284,32326 54288,32325 54291,32323 54294,32321 54297,32318 54298,32314 54299,32311 54300,32307 54300,32146 54375,32146 54286,31895 54286,31893 54287,31891 54288,31889 54290,31888 54292,31887 54294,31888 54296,31889 54297,31890 54395,31984 54397,31987 54400,31989 54402,31990 54405,31992 54408,31992 54412,31992 54415,31991 54417,31989 54420,31987 54422,31984 54423,31982 54424,31979 54424,31975 54423,31972 54422,31969 54420,31967 54298,31846 54294,31842 54289,31838 54284,31834 54280,31831 54274,31828 54269,31825 54263,31823 54258,31821 54254,31817 54250,31811 54248,31806 54246,31800 54245,31794 54245,31787 54246,31781 54248,31775 54253,31773 54259,31770 54264,31767 54269,31764 54273,31760 54278,31756 54281,31751 54285,31746 54288,31740 54290,31735 54292,31729 54294,31723 54295,31717 54295,31711 54295,31705 54294,31699 54293,31693 54291,31687 54289,31681 54286,31676 54283,31671 54279,31666 54275,31661 54271,31657 54266,31654 54261,31650 54256,31647 54250,31645 54244,31643 54238,31642 54232,31641 54226,31641 54220,31641 54214,31641 54208,31643 54202,31644 54197,31647 54191,31650 54186,31653 54181,31657 54177,31661 54173,31665 54169,31670 54166,31675 54163,31681 54161,31686 54159,31692 54158,31698 54157,31704 54157,31710 54157,31716 54158,31722 54159,31728 54161,31734 54163,31740 54166,31745 54170,31750 54173,31755 54177,31759 54182,31763 54187,31767 54192,31770 54198,31773 54203,31775 54208,31799 54208,31803 54208,31807 54208,31811 54206,31815 54205,31818 54202,31822 54200,31825 54197,31827 54064,31827 54060,31828 54056,31828 54052,31828 54048,31826 54044,31825 54041,31822 54038,31819 54036,31815 54035,31810 54034,31806 54032,31801 54030,31797 54027,31793 54024,31790 54020,31787 54015,31784 Z"/>
   </g>
  </g>
 </g>
</svg>