<?xml version="1.0" encoding="UTF-8"?>
<!DOCTYPE svg PUBLIC "-//W3C//DTD SVG 1.1//EN" "http://www.w3.org/Graphics/SVG/1.1/DTD/svg11.dtd">
<svg version="1.2" width="25.03mm" height="25.02mm" viewBox="55649 30500 2503 2502" preserveAspectRatio="xMidYMid" fill-rule="evenodd" stroke-width="28.222" stroke-linejoin="round" xmlns="http://www.w3.org/2000/svg" xmlns:ooo="http://xml.openoffice.org/svg/export" xmlns:xlink="http://www.w3.org/1999/xlink" xmlns:presentation="http://sun.com/xmlns/staroffice/presentation" xmlns:smil="http://www.w3.org/2001/SMIL20/" xmlns:anim="urn:oasis:names:tc:opendocument:xmlns:animation:1.0" xml:space="preserve">
 <defs class="EmbeddedBulletChars">
  <g id="bullet-char-template-57356" transform="scale(0.00048828125,-0.00048828125)">
   <path d="M 580,1141 L 1163,571 580,0 -4,571 580,1141 Z"/>
  </g>
  <g id="bullet-char-template-57354" transform="scale(0.00048828125,-0.00048828125)">
   <path d="M 8,1128 L 1137,1128 1137,0 8,0 8,1128 Z"/>
  </g>
  <g id="bullet-char-template-10146" transform="scale(0.00048828125,-0.00048828125)">
   <path d="M 174,0 L 602,739 174,1481 1456,739 174,0 Z M 1358,739 L 309,1346 659,739 1358,739 Z"/>
  </g>
  <g id="bullet-char-template-10132" transform="scale(0.00048828125,-0.00048828125)">
   <path d="M 2015,739 L 1276,0 717,0 1260,543 174,543 174,936 1260,936 717,1481 1274,1481 2015,739 Z"/>
  </g>
  <g id="bullet-char-template-10007" transform="scale(0.00048828125,-0.00048828125)">
   <path d="M 0,-2 C -7,14 -16,27 -25,37 L 356,567 C 262,823 215,952 215,954 215,979 228,992 255,992 264,992 276,990 289,987 310,991 331,999 354,1012 L 381,999 492,748 772,1049 836,1024 860,1049 C 881,1039 901,1025 922,1006 886,937 835,863 770,784 769,783 710,716 594,584 L 774,223 C 774,196 753,168 711,139 L 727,119 C 717,90 699,76 672,76 641,76 570,178 457,381 L 164,-76 C 142,-110 111,-127 72,-127 30,-127 9,-110 8,-76 1,-67 -2,-52 -2,-32 -2,-23 -1,-13 0,-2 Z"/>
  </g>
  <g id="bullet-char-template-10004" transform="scale(0.00048828125,-0.00048828125)">
   <path d="M 285,-33 C 182,-33 111,30 74,156 52,228 41,333 41,471 41,549 55,616 82,672 116,743 169,778 240,778 293,778 328,747 346,684 L 369,508 C 377,444 397,411 428,410 L 1163,1116 C 1174,1127 1196,1133 1229,1133 1271,1133 1292,1118 1292,1087 L 1292,965 C 1292,929 1282,901 1262,881 L 442,47 C 390,-6 338,-33 285,-33 Z"/>
  </g>
  <g id="bullet-char-template-9679" transform="scale(0.00048828125,-0.00048828125)">
   <path d="M 813,0 C 632,0 489,54 383,161 276,268 223,411 223,592 223,773 276,916 383,1023 489,1130 632,1184 813,1184 992,1184 1136,1130 1245,1023 1353,916 1407,772 1407,592 1407,412 1353,268 1245,161 1136,54 992,0 813,0 Z"/>
  </g>
  <g id="bullet-char-template-8226" transform="scale(0.00048828125,-0.00048828125)">
   <path d="M 346,457 C 273,457 209,483 155,535 101,586 74,649 74,723 74,796 101,859 155,911 209,963 273,989 346,989 419,989 480,963 531,910 582,859 608,796 608,723 608,648 583,586 532,535 482,483 420,457 346,457 Z"/>
  </g>
  <g id="bullet-char-template-8211" transform="scale(0.00048828125,-0.00048828125)">
   <path d="M -4,459 L 1135,459 1135,606 -4,606 -4,459 Z"/>
  </g>
  <g id="bullet-char-template-61548" transform="scale(0.00048828125,-0.00048828125)">
   <path d="M 173,740 C 173,903 231,1043 346,1159 462,1274 601,1332 765,1332 928,1332 1067,1274 1183,1159 1299,1043 1357,903 1357,740 1357,577 1299,437 1183,322 1067,206 928,148 765,148 601,148 462,206 346,322 231,437 173,577 173,740 Z"/>
  </g>
 </defs>
 <g class="Page">
  <g class="com.sun.star.drawing.PolyPolygonShape">
   <g id="id3">
    <rect class="BoundingBox" stroke="none" fill="none" x="55649" y="30500" width="2503" height="2502"/>
    <path fill="rgb(0,0,255)" stroke="none" d="M 58151,31751 L 58151,31720 58149,31689 58147,31659 58145,31628 58141,31597 58137,31567 58132,31537 58127,31507 58121,31477 58113,31447 58106,31417 58097,31388 58088,31358 58078,31329 58067,31301 58056,31272 58044,31244 58031,31215 58017,31187 58003,31160 57988,31133 57973,31107 57957,31081 57940,31055 57923,31030 57905,31005 57886,30980 57867,30956 57847,30933 57827,30910 57806,30888 57785,30866 57763,30844 57740,30823 57717,30803 57694,30783 57670,30764 57645,30745 57620,30728 57595,30710 57570,30693 57543,30677 57517,30662 57490,30647 57463,30633 57435,30620 57407,30607 57379,30595 57351,30583 57322,30573 57293,30563 57263,30553 57234,30545 57204,30537 57174,30530 57145,30523 57114,30518 57084,30513 57054,30509 57023,30505 56993,30503 56962,30501 56931,30500 56901,30500 56870,30500 56839,30501 56808,30503 56778,30505 56747,30509 56717,30513 56687,30518 56657,30523 56627,30530 56597,30537 56567,30545 56538,30553 56508,30563 56479,30573 56451,30583 56422,30595 56394,30607 56366,30620 56338,30633 56311,30647 56284,30662 56258,30677 56231,30693 56205,30710 56179,30728 56155,30745 56130,30764 56106,30783 56083,30803 56060,30823 56037,30844 56015,30866 55994,30888 55973,30910 55953,30933 55933,30956 55914,30980 55895,31005 55877,31030 55860,31055 55843,31081 55827,31107 55812,31133 55797,31160 55783,31187 55769,31215 55756,31244 55744,31272 55733,31301 55722,31329 55712,31358 55703,31388 55694,31417 55687,31447 55680,31477 55673,31507 55668,31537 55663,31567 55659,31597 55655,31628 55652,31659 55651,31689 55649,31720 55649,31750 55649,31781 55651,31812 55652,31843 55655,31873 55659,31904 55663,31934 55668,31964 55673,31994 55680,32024 55687,32054 55694,32084 55703,32113 55712,32143 55722,32172 55733,32200 55744,32229 55756,32257 55769,32285 55783,32313 55797,32340 55812,32367 55827,32393 55843,32419 55860,32445 55877,32470 55895,32495 55914,32520 55933,32544 55953,32567 55973,32590 55994,32612 56015,32634 56037,32656 56060,32677 56083,32697 56106,32717 56130,32736 56155,32755 56179,32772 56205,32790 56231,32807 56258,32823 56284,32838 56311,32853 56338,32867 56366,32881 56394,32893 56422,32905 56451,32917 56479,32927 56508,32937 56538,32947 56567,32955 56597,32963 56627,32970 56657,32977 56687,32982 56717,32987 56747,32991 56778,32995 56808,32997 56839,32999 56870,33000 56900,33001 56931,33000 56962,32999 56993,32997 57023,32995 57054,32991 57084,32987 57114,32982 57145,32977 57174,32970 57204,32963 57234,32955 57263,32947 57293,32937 57322,32927 57351,32917 57379,32905 57407,32893 57435,32881 57463,32867 57490,32853 57517,32838 57543,32823 57570,32807 57595,32790 57620,32772 57645,32755 57670,32736 57694,32717 57717,32697 57740,32677 57763,32656 57785,32634 57806,32612 57827,32590 57847,32567 57867,32544 57886,32520 57905,32495 57923,32470 57940,32445 57957,32419 57973,32393 57988,32367 58003,32340 58017,32313 58031,32285 58044,32257 58056,32229 58067,32200 58078,32172 58088,32143 58097,32113 58106,32084 58113,32054 58121,32024 58127,31994 58132,31964 58137,31934 58141,31904 58145,31873 58147,31843 58149,31812 58151,31781 58151,31751 Z"/>
   </g>
  </g>
  <g class="com.sun.star.drawing.PolyPolygonShape">
   <g id="id4">
    <rect class="BoundingBox" stroke="none" fill="none" x="55702" y="30553" width="2396" height="2395"/>
    <path fill="rgb(255,255,255)" stroke="none" d="M 58097,31750 L 58097,31720 58096,31691 58094,31662 58091,31632 58088,31603 58084,31574 58080,31545 58074,31516 58068,31487 58061,31459 58054,31430 58046,31402 58037,31374 58027,31346 58017,31319 58006,31292 57995,31265 57982,31238 57969,31212 57956,31186 57942,31160 57927,31134 57912,31109 57896,31085 57879,31061 57862,31037 57844,31013 57826,30990 57807,30968 57787,30946 57767,30925 57747,30904 57726,30883 57704,30863 57682,30844 57660,30825 57637,30806 57613,30789 57590,30771 57565,30755 57541,30739 57516,30723 57490,30709 57465,30694 57439,30681 57412,30668 57385,30656 57358,30644 57331,30633 57304,30623 57276,30613 57248,30605 57220,30596 57191,30589 57163,30582 57134,30576 57105,30571 57076,30566 57047,30562 57018,30559 56989,30556 56959,30555 56930,30553 56901,30553 56871,30553 56842,30555 56812,30556 56783,30559 56754,30562 56725,30566 56696,30571 56667,30576 56638,30582 56610,30589 56581,30596 56553,30605 56525,30613 56497,30623 56470,30633 56443,30644 56416,30656 56389,30668 56362,30681 56336,30694 56311,30709 56285,30723 56260,30739 56235,30755 56210,30771 56187,30789 56163,30806 56140,30825 56118,30844 56096,30863 56074,30883 56053,30904 56033,30925 56013,30946 55993,30968 55974,30990 55956,31013 55938,31037 55921,31061 55904,31085 55888,31109 55873,31134 55858,31160 55844,31186 55831,31212 55818,31238 55805,31265 55794,31292 55783,31319 55773,31346 55763,31374 55754,31402 55746,31430 55739,31459 55732,31487 55726,31516 55720,31545 55716,31574 55712,31603 55709,31632 55706,31662 55704,31691 55703,31720 55703,31749 55703,31779 55704,31808 55706,31838 55709,31867 55712,31896 55716,31925 55720,31954 55726,31983 55732,32012 55739,32040 55746,32069 55754,32097 55763,32125 55773,32153 55783,32180 55794,32207 55805,32234 55818,32261 55831,32287 55844,32315 55858,32340 55873,32366 55888,32391 55904,32415 55921,32439 55938,32463 55956,32487 55974,32510 55993,32532 56013,32554 56033,32576 56053,32597 56074,32617 56096,32637 56118,32656 56140,32675 56163,32694 56187,32712 56210,32729 56235,32745 56260,32761 56285,32777 56311,32792 56336,32806 56362,32819 56389,32832 56416,32844 56443,32856 56470,32867 56497,32877 56525,32887 56553,32896 56581,32904 56610,32911 56638,32918 56667,32924 56696,32929 56725,32934 56754,32938 56783,32941 56812,32944 56842,32946 56871,32947 56900,32947 56930,32947 56959,32946 56989,32944 57018,32941 57047,32938 57076,32934 57105,32929 57134,32924 57163,32918 57191,32911 57220,32904 57248,32896 57276,32887 57304,32877 57331,32867 57358,32856 57385,32844 57412,32832 57439,32819 57465,32806 57490,32792 57516,32777 57541,32761 57565,32745 57590,32729 57613,32712 57637,32694 57660,32675 57682,32656 57704,32637 57726,32617 57747,32597 57767,32576 57787,32554 57807,32532 57826,32510 57844,32487 57862,32463 57879,32439 57896,32415 57912,32391 57927,32366 57942,32340 57956,32315 57969,32287 57982,32261 57995,32234 58006,32207 58017,32180 58027,32153 58037,32125 58046,32097 58054,32069 58061,32040 58068,32012 58074,31983 58080,31954 58084,31925 58088,31896 58091,31867 58094,31838 58096,31808 58097,31779 58097,31750 Z"/>
   </g>
  </g>
  <g class="com.sun.star.drawing.PolyPolygonShape">
   <g id="id5">
    <rect class="BoundingBox" stroke="none" fill="none" x="55756" y="30607" width="2289" height="2287"/>
    <path fill="rgb(0,0,255)" stroke="none" d="M 58044,31751 L 58043,31723 58042,31694 58041,31666 58038,31639 58035,31611 58031,31583 58027,31555 58022,31528 58016,31500 58009,31473 58002,31446 57994,31419 57986,31392 57977,31366 57967,31339 57957,31313 57946,31287 57934,31262 57922,31237 57909,31212 57895,31187 57881,31163 57866,31139 57851,31116 57835,31092 57819,31070 57802,31047 57784,31026 57766,31004 57748,30983 57728,30963 57709,30942 57689,30923 57668,30904 57647,30885 57626,30867 57604,30850 57582,30832 57559,30815 57536,30799 57512,30784 57488,30769 57464,30755 57439,30742 57414,30729 57389,30716 57364,30705 57338,30694 57312,30683 57286,30673 57259,30664 57232,30656 57205,30648 57178,30641 57151,30635 57124,30629 57096,30624 57068,30619 57040,30615 57013,30612 56985,30610 56957,30608 56929,30607 56901,30607 56872,30607 56844,30608 56816,30610 56788,30612 56761,30615 56733,30619 56705,30624 56677,30629 56650,30635 56623,30641 56596,30648 56569,30656 56542,30664 56515,30673 56489,30683 56463,30694 56437,30705 56412,30716 56387,30729 56362,30742 56337,30755 56313,30769 56289,30784 56265,30799 56242,30815 56219,30832 56197,30850 56175,30867 56154,30885 56133,30904 56112,30923 56092,30942 56073,30963 56053,30983 56035,31004 56017,31026 55998,31047 55981,31070 55965,31092 55949,31116 55934,31139 55919,31163 55905,31187 55891,31212 55878,31237 55866,31262 55854,31287 55843,31313 55833,31339 55823,31366 55814,31392 55806,31419 55798,31446 55791,31473 55784,31500 55778,31528 55773,31555 55769,31583 55765,31611 55762,31639 55759,31666 55758,31694 55757,31723 55756,31750 55757,31779 55758,31807 55759,31835 55762,31863 55765,31890 55769,31918 55773,31946 55778,31973 55784,32001 55791,32028 55798,32055 55806,32082 55814,32109 55823,32135 55833,32162 55843,32188 55854,32214 55866,32239 55878,32264 55891,32289 55905,32314 55919,32338 55934,32362 55949,32385 55965,32409 55981,32431 55998,32454 56017,32475 56035,32497 56053,32518 56073,32539 56092,32559 56112,32578 56133,32597 56154,32616 56175,32634 56197,32652 56219,32668 56242,32685 56265,32701 56289,32716 56313,32731 56337,32745 56362,32758 56387,32771 56412,32784 56437,32795 56463,32806 56489,32817 56515,32827 56542,32836 56569,32844 56596,32852 56623,32859 56650,32866 56677,32871 56705,32877 56733,32881 56761,32885 56788,32888 56816,32890 56844,32892 56872,32893 56900,32893 56929,32893 56957,32892 56985,32890 57013,32888 57040,32885 57068,32881 57096,32877 57124,32871 57151,32866 57178,32859 57205,32852 57232,32844 57259,32836 57286,32827 57312,32817 57338,32806 57364,32795 57389,32784 57414,32771 57439,32758 57464,32745 57488,32731 57512,32716 57536,32701 57559,32685 57582,32668 57604,32652 57626,32634 57647,32616 57668,32597 57689,32578 57709,32559 57728,32539 57748,32518 57766,32497 57784,32475 57802,32454 57819,32431 57835,32409 57851,32385 57866,32362 57881,32338 57895,32314 57909,32289 57922,32264 57934,32239 57946,32214 57957,32188 57967,32162 57977,32135 57986,32109 57994,32082 58002,32055 58009,32028 58016,32001 58022,31973 58027,31946 58031,31918 58035,31890 58038,31863 58041,31835 58042,31807 58043,31779 58044,31751 Z"/>
   </g>
  </g>
  <g class="com.sun.star.drawing.PolyPolygonShape">
   <g id="id6">
    <rect class="BoundingBox" stroke="none" fill="none" x="56279" y="31162" width="1243" height="1175"/>
    <path fill="rgb(255,255,255)" stroke="none" d="M 56730,31538 L 56728,31542 56726,31546 56724,31550 56723,31555 56722,31556 56722,31558 56722,31559 56723,31561 56723,31562 56724,31564 56726,31565 56727,31565 56737,31568 56736,31561 56734,31553 56732,31545 56730,31538 Z M 56679,31511 L 56681,31515 56682,31518 56684,31521 56687,31524 56689,31527 56692,31530 56695,31532 56698,31534 56701,31536 56703,31536 56706,31537 56709,31537 56712,31537 56714,31536 56717,31535 56719,31533 56708,31554 56662,31519 56679,31511 Z M 56355,31645 L 56358,31639 56362,31634 56366,31629 56370,31624 56375,31619 56379,31614 56384,31610 56389,31606 56397,31598 56405,31590 56412,31581 56419,31573 56426,31563 56432,31554 56438,31545 56444,31535 56458,31545 56473,31556 56485,31568 56498,31581 56355,31645 Z M 56745,31573 L 56745,31565 56744,31558 56743,31551 56741,31544 56739,31538 56737,31533 56734,31529 56731,31524 56729,31521 56728,31518 56728,31515 56728,31512 56729,31509 56730,31506 56732,31503 56735,31501 56747,31515 56831,31469 56830,31481 56829,31493 56827,31505 56825,31517 56821,31529 56817,31540 56812,31551 56806,31562 56802,31569 56796,31576 56790,31583 56783,31589 56745,31573 Z M 57449,32291 L 57448,32291 57446,32292 57445,32294 57444,32295 57443,32301 57443,32307 57443,32313 57443,32319 57443,32335 57395,32335 57395,32327 57397,32320 57399,32313 57401,32305 57402,32300 57402,32296 57400,32291 57398,32286 57401,32278 57404,32268 57406,32259 57408,32249 57409,32240 57410,32231 57411,32221 57411,32212 57411,32199 57411,32185 57411,32172 57411,32159 57410,32151 57409,32143 57407,32135 57404,32128 57401,32120 57397,32114 57392,32107 57387,32101 57356,32070 57325,32040 57313,32028 57301,32014 57290,32001 57279,31986 57277,31996 57275,32007 57274,32018 57274,32028 57274,32033 57273,32038 57272,32043 57271,32048 57269,32053 57267,32057 57264,32062 57261,32066 57249,32079 57237,32092 57225,32105 57212,32117 57189,32138 57168,32159 57147,32182 57127,32205 57126,32222 57124,32225 57121,32227 57119,32228 57116,32230 57120,32234 57125,32239 57128,32245 57130,32251 57127,32255 57124,32259 57120,32263 57116,32265 57112,32268 57107,32270 57102,32272 57098,32273 57093,32269 57088,32265 57084,32261 57081,32254 57080,32251 57079,32247 57078,32243 57078,32240 57078,32236 57079,32232 57080,32228 57081,32225 57084,32215 57088,32205 57093,32196 57098,32187 57138,32124 57178,32061 57182,32053 57186,32045 57190,32037 57194,32029 57195,32025 57196,32022 57197,32018 57197,32015 57197,32011 57196,32008 57195,32004 57194,32001 57193,31995 57190,31989 57188,31983 57185,31977 57182,31972 57179,31967 57175,31962 57171,31956 57163,31945 57155,31933 57148,31920 57142,31907 57136,31894 57131,31881 57127,31867 57123,31853 57105,31862 57087,31870 57068,31877 57049,31883 57030,31888 57011,31892 56991,31896 56971,31898 56939,31902 56906,31904 56874,31906 56842,31907 56811,31930 56814,31944 56816,31958 56817,31972 56818,31987 56818,32001 56818,32015 56816,32030 56815,32044 56813,32056 56812,32069 56812,32082 56812,32095 56812,32102 56813,32109 56814,32116 56815,32124 56817,32131 56818,32138 56821,32145 56823,32152 56827,32165 56832,32178 56837,32192 56843,32205 56848,32218 56855,32231 56861,32243 56868,32256 56872,32263 56877,32269 56881,32275 56886,32280 56886,32283 56884,32286 56882,32289 56880,32292 56881,32294 56883,32296 56885,32297 56888,32298 56888,32307 56888,32316 56888,32325 56888,32335 56878,32336 56867,32336 56857,32336 56847,32335 56846,32332 56845,32329 56844,32326 56844,32323 56844,32320 56844,32317 56845,32314 56846,32312 56845,32306 56846,32300 56848,32294 56850,32289 56843,32273 56835,32256 56827,32241 56818,32226 56810,32211 56800,32196 56791,32182 56781,32168 56773,32158 56767,32148 56762,32138 56757,32127 56750,32104 56741,32080 56731,32057 56720,32035 56711,32017 56703,31999 56697,31980 56691,31960 56685,31962 56679,31964 56674,31967 56668,31970 56643,31986 56618,32001 56593,32015 56567,32030 56561,32033 56555,32037 56550,32041 56545,32046 56541,32051 56537,32057 56533,32063 56530,32069 56527,32075 56525,32082 56524,32088 56522,32095 56522,32102 56522,32109 56523,32115 56524,32122 56529,32145 56536,32169 56543,32191 56551,32214 56548,32214 56546,32216 56544,32217 56542,32219 56547,32226 56551,32234 56552,32237 56552,32240 56553,32243 56552,32247 56548,32251 56544,32255 56540,32259 56536,32263 56531,32266 56527,32268 56522,32271 56516,32273 56513,32267 56511,32261 56509,32253 56507,32247 56506,32240 56505,32234 56506,32227 56508,32220 56511,32206 56479,32096 56477,32087 56476,32078 56475,32070 56475,32061 56476,32052 56478,32043 56480,32034 56484,32026 56493,32011 56503,31996 56514,31982 56525,31968 56538,31955 56551,31943 56564,31931 56578,31920 56591,31911 56604,31901 56616,31890 56628,31880 56620,31870 56614,31861 56608,31851 56602,31840 56597,31829 56593,31819 56589,31807 56585,31796 56579,31769 56572,31741 56564,31714 56556,31687 56552,31673 56547,31660 56542,31648 56535,31635 56528,31623 56521,31611 56512,31600 56504,31589 56352,31656 56350,31657 56349,31658 56348,31660 56348,31662 56347,31666 56346,31670 56344,31671 56343,31673 56341,31674 56339,31674 56327,31674 56315,31674 56311,31669 56306,31669 56301,31669 56296,31668 56291,31667 56287,31665 56283,31663 56281,31661 56280,31659 56279,31656 56279,31653 56280,31639 56282,31624 56286,31610 56290,31596 56316,31513 56319,31503 56322,31493 56324,31482 56324,31472 56325,31467 56326,31463 56327,31459 56328,31455 56342,31420 56355,31385 56357,31378 56359,31370 56360,31362 56360,31354 56360,31347 56360,31339 56358,31331 56356,31323 56361,31327 56365,31330 56368,31334 56372,31338 56375,31342 56378,31347 56380,31352 56382,31357 56386,31348 56391,31339 56396,31331 56402,31323 56405,31321 56407,31319 56410,31318 56413,31317 56413,31331 56413,31346 56417,31355 56421,31363 56427,31371 56433,31378 56440,31383 56448,31388 56457,31392 56467,31395 56481,31398 56494,31403 56507,31409 56520,31416 56537,31427 56555,31438 56572,31449 56589,31461 56606,31473 56622,31486 56638,31499 56654,31513 56679,31500 56680,31496 56681,31492 56687,31489 56693,31487 56700,31485 56707,31484 56710,31483 56712,31481 56715,31479 56716,31477 56716,31468 56762,31447 56767,31444 56773,31440 56778,31436 56783,31432 56788,31427 56792,31422 56795,31417 56798,31411 56801,31405 56803,31399 56804,31392 56805,31386 56805,31379 56805,31373 56804,31367 56803,31360 56799,31353 56797,31345 56795,31337 56795,31328 56795,31320 56796,31312 56798,31304 56800,31296 56801,31294 56801,31291 56801,31289 56801,31287 56800,31284 56799,31282 56798,31280 56796,31278 56795,31277 56794,31276 56793,31276 56792,31277 56774,31280 56772,31280 56771,31280 56770,31279 56769,31278 56766,31272 56764,31265 56763,31259 56762,31252 56756,31252 56751,31250 56751,31249 56750,31248 56751,31235 56754,31221 56755,31213 56756,31205 56756,31200 56755,31196 56755,31195 56753,31193 56727,31193 56726,31191 56726,31189 56726,31187 56727,31186 56728,31184 56730,31183 56732,31182 56734,31181 56740,31181 56745,31180 56748,31180 56752,31179 56754,31177 56757,31176 56763,31171 56769,31167 56775,31165 56782,31163 56789,31162 56796,31162 56803,31163 56810,31165 56817,31168 56825,31170 56832,31172 56840,31174 56848,31175 56855,31176 56863,31177 56871,31178 56847,31245 56846,31248 56845,31251 56845,31255 56846,31259 56846,31260 56848,31261 56849,31261 56851,31260 56853,31258 56856,31256 56859,31255 56862,31255 56862,31273 56912,31328 56921,31337 56929,31347 56936,31357 56943,31368 56949,31379 56954,31390 56959,31402 56963,31414 56965,31421 56966,31428 56966,31436 56966,31443 56966,31451 56967,31458 56968,31466 56970,31473 56972,31480 56975,31487 56979,31493 56983,31500 56987,31504 56989,31509 56992,31515 56994,31520 56995,31526 56996,31531 56996,31537 56996,31543 56996,31545 56997,31547 56998,31549 56999,31551 57001,31551 57004,31550 57007,31548 57012,31544 57016,31540 57020,31536 57022,31531 57024,31528 57026,31526 57028,31524 57030,31523 57032,31521 57035,31520 57037,31520 57040,31520 57041,31520 57042,31520 57044,31521 57044,31522 57045,31527 57046,31532 57045,31537 57044,31542 57035,31561 57035,31562 57035,31564 57037,31565 57038,31565 57046,31564 57053,31564 57053,31566 57053,31569 57054,31571 57056,31573 57144,31562 57156,31560 57169,31559 57181,31558 57194,31558 57207,31557 57219,31558 57232,31558 57245,31559 57256,31560 57266,31562 57277,31565 57288,31569 57298,31574 57307,31579 57317,31585 57326,31591 57350,31596 57375,31600 57383,31601 57392,31603 57400,31605 57409,31609 57414,31611 57420,31614 57425,31618 57430,31622 57435,31627 57439,31632 57442,31637 57445,31643 57459,31679 57472,31715 57486,31751 57500,31786 57505,31795 57509,31805 57513,31814 57515,31824 57518,31834 57519,31844 57520,31854 57521,31864 57518,31866 57516,31868 57513,31869 57509,31870 57506,31870 57503,31870 57500,31870 57497,31869 57490,31866 57483,31865 57479,31867 57475,31869 57471,31871 57468,31874 57466,31875 57464,31876 57462,31877 57460,31876 57458,31876 57456,31874 57454,31873 57454,31871 57448,31859 57443,31847 57439,31835 57436,31823 57430,31800 57426,31778 57422,31755 57418,31733 57413,31679 57411,31670 57407,31662 57403,31654 57397,31647 57391,31641 57384,31635 57377,31630 57369,31626 57362,31624 57355,31621 57348,31619 57340,31617 57347,31627 57352,31637 57358,31648 57362,31659 57366,31670 57369,31682 57371,31693 57373,31705 57374,31714 57374,31723 57374,31733 57374,31742 57373,31751 57372,31760 57370,31769 57368,31778 57365,31790 57363,31803 57361,31815 57359,31827 57358,31840 57357,31852 57356,31865 57356,31878 57355,31886 57356,31894 57356,31902 57357,31910 57358,31919 57360,31927 57362,31935 57365,31943 57367,31950 57370,31958 57374,31965 57378,31973 57382,31980 57386,31987 57391,31994 57396,32000 57412,32018 57428,32036 57444,32053 57461,32070 57464,32073 57466,32076 57467,32080 57469,32083 57469,32087 57469,32091 57469,32094 57468,32098 57457,32156 57455,32167 57453,32179 57452,32190 57451,32201 57450,32212 57450,32224 57450,32235 57450,32246 57451,32257 57451,32269 57450,32280 57449,32291 Z"/>
   </g>
  </g>
 </g>
</svg>