<?xml version="1.0" encoding="UTF-8"?>
<!DOCTYPE svg PUBLIC "-//W3C//DTD SVG 1.1//EN" "http://www.w3.org/Graphics/SVG/1.1/DTD/svg11.dtd">
<svg version="1.2" width="25.03mm" height="25.02mm" viewBox="4049 30500 2503 2502" preserveAspectRatio="xMidYMid" fill-rule="evenodd" stroke-width="28.222" stroke-linejoin="round" xmlns="http://www.w3.org/2000/svg" xmlns:ooo="http://xml.openoffice.org/svg/export" xmlns:xlink="http://www.w3.org/1999/xlink" xmlns:presentation="http://sun.com/xmlns/staroffice/presentation" xmlns:smil="http://www.w3.org/2001/SMIL20/" xmlns:anim="urn:oasis:names:tc:opendocument:xmlns:animation:1.0" xml:space="preserve">
 <defs class="EmbeddedBulletChars">
  <g id="bullet-char-template-57356" transform="scale(0.00048828125,-0.00048828125)">
   <path d="M 580,1141 L 1163,571 580,0 -4,571 580,1141 Z"/>
  </g>
  <g id="bullet-char-template-57354" transform="scale(0.00048828125,-0.00048828125)">
   <path d="M 8,1128 L 1137,1128 1137,0 8,0 8,1128 Z"/>
  </g>
  <g id="bullet-char-template-10146" transform="scale(0.00048828125,-0.00048828125)">
   <path d="M 174,0 L 602,739 174,1481 1456,739 174,0 Z M 1358,739 L 309,1346 659,739 1358,739 Z"/>
  </g>
  <g id="bullet-char-template-10132" transform="scale(0.00048828125,-0.00048828125)">
   <path d="M 2015,739 L 1276,0 717,0 1260,543 174,543 174,936 1260,936 717,1481 1274,1481 2015,739 Z"/>
  </g>
  <g id="bullet-char-template-10007" transform="scale(0.00048828125,-0.00048828125)">
   <path d="M 0,-2 C -7,14 -16,27 -25,37 L 356,567 C 262,823 215,952 215,954 215,979 228,992 255,992 264,992 276,990 289,987 310,991 331,999 354,1012 L 381,999 492,748 772,1049 836,1024 860,1049 C 881,1039 901,1025 922,1006 886,937 835,863 770,784 769,783 710,716 594,584 L 774,223 C 774,196 753,168 711,139 L 727,119 C 717,90 699,76 672,76 641,76 570,178 457,381 L 164,-76 C 142,-110 111,-127 72,-127 30,-127 9,-110 8,-76 1,-67 -2,-52 -2,-32 -2,-23 -1,-13 0,-2 Z"/>
  </g>
  <g id="bullet-char-template-10004" transform="scale(0.00048828125,-0.00048828125)">
   <path d="M 285,-33 C 182,-33 111,30 74,156 52,228 41,333 41,471 41,549 55,616 82,672 116,743 169,778 240,778 293,778 328,747 346,684 L 369,508 C 377,444 397,411 428,410 L 1163,1116 C 1174,1127 1196,1133 1229,1133 1271,1133 1292,1118 1292,1087 L 1292,965 C 1292,929 1282,901 1262,881 L 442,47 C 390,-6 338,-33 285,-33 Z"/>
  </g>
  <g id="bullet-char-template-9679" transform="scale(0.00048828125,-0.00048828125)">
   <path d="M 813,0 C 632,0 489,54 383,161 276,268 223,411 223,592 223,773 276,916 383,1023 489,1130 632,1184 813,1184 992,1184 1136,1130 1245,1023 1353,916 1407,772 1407,592 1407,412 1353,268 1245,161 1136,54 992,0 813,0 Z"/>
  </g>
  <g id="bullet-char-template-8226" transform="scale(0.00048828125,-0.00048828125)">
   <path d="M 346,457 C 273,457 209,483 155,535 101,586 74,649 74,723 74,796 101,859 155,911 209,963 273,989 346,989 419,989 480,963 531,910 582,859 608,796 608,723 608,648 583,586 532,535 482,483 420,457 346,457 Z"/>
  </g>
  <g id="bullet-char-template-8211" transform="scale(0.00048828125,-0.00048828125)">
   <path d="M -4,459 L 1135,459 1135,606 -4,606 -4,459 Z"/>
  </g>
  <g id="bullet-char-template-61548" transform="scale(0.00048828125,-0.00048828125)">
   <path d="M 173,740 C 173,903 231,1043 346,1159 462,1274 601,1332 765,1332 928,1332 1067,1274 1183,1159 1299,1043 1357,903 1357,740 1357,577 1299,437 1183,322 1067,206 928,148 765,148 601,148 462,206 346,322 231,437 173,577 173,740 Z"/>
  </g>
 </defs>
 <g class="Page">
  <g class="com.sun.star.drawing.PolyPolygonShape">
   <g id="id3">
    <rect class="BoundingBox" stroke="none" fill="none" x="4049" y="30500" width="2503" height="2502"/>
    <path fill="rgb(0,0,255)" stroke="none" d="M 6551,31751 L 6551,31720 6549,31689 6548,31659 6545,31628 6541,31597 6537,31567 6532,31537 6527,31507 6520,31477 6513,31447 6505,31417 6497,31388 6488,31358 6478,31329 6467,31301 6456,31272 6444,31244 6431,31215 6417,31187 6403,31160 6388,31133 6373,31107 6357,31081 6340,31055 6323,31030 6305,31005 6286,30980 6267,30956 6246,30933 6226,30910 6205,30888 6184,30866 6162,30844 6139,30823 6116,30803 6093,30783 6069,30764 6044,30745 6019,30728 5994,30710 5968,30693 5942,30677 5916,30662 5889,30647 5862,30633 5834,30620 5806,30607 5778,30595 5749,30583 5721,30573 5692,30563 5662,30553 5633,30545 5603,30537 5573,30530 5543,30523 5513,30518 5483,30513 5453,30509 5422,30505 5392,30503 5361,30501 5330,30500 5300,30500 5269,30500 5238,30501 5207,30503 5177,30505 5146,30509 5116,30513 5086,30518 5056,30523 5026,30530 4996,30537 4966,30545 4937,30553 4907,30563 4878,30573 4850,30583 4821,30595 4793,30607 4765,30620 4737,30633 4710,30647 4683,30662 4657,30677 4631,30693 4605,30710 4579,30728 4555,30745 4530,30764 4506,30783 4483,30803 4460,30823 4437,30844 4415,30866 4394,30888 4373,30910 4353,30933 4333,30956 4314,30980 4295,31005 4277,31030 4260,31055 4243,31081 4227,31107 4212,31133 4197,31160 4183,31187 4169,31215 4156,31244 4144,31272 4133,31301 4122,31329 4112,31358 4103,31388 4094,31417 4087,31447 4080,31477 4073,31507 4068,31537 4063,31567 4059,31597 4055,31628 4052,31659 4051,31689 4049,31720 4049,31751 4049,31781 4051,31812 4052,31843 4055,31873 4059,31904 4063,31934 4068,31964 4073,31994 4080,32024 4087,32054 4094,32084 4103,32113 4112,32143 4122,32172 4133,32200 4144,32229 4156,32257 4169,32285 4183,32313 4197,32340 4212,32367 4227,32393 4243,32419 4260,32445 4277,32470 4295,32495 4314,32520 4333,32544 4353,32567 4373,32590 4394,32612 4415,32634 4437,32656 4460,32677 4483,32697 4506,32717 4530,32736 4555,32755 4579,32772 4605,32790 4631,32807 4657,32823 4683,32838 4710,32853 4737,32867 4765,32881 4793,32893 4821,32905 4850,32917 4878,32927 4907,32937 4937,32947 4966,32955 4996,32963 5026,32970 5056,32977 5086,32982 5116,32987 5146,32991 5177,32995 5207,32997 5238,32999 5269,33000 5299,33001 5330,33000 5361,32999 5392,32997 5422,32995 5453,32991 5483,32987 5513,32982 5543,32977 5573,32970 5603,32963 5633,32955 5662,32947 5692,32937 5721,32927 5749,32917 5778,32905 5806,32893 5834,32881 5862,32867 5889,32853 5916,32838 5942,32823 5968,32807 5994,32790 6019,32772 6044,32755 6069,32736 6093,32717 6116,32697 6139,32677 6162,32656 6184,32634 6205,32612 6226,32590 6246,32567 6267,32544 6286,32520 6305,32495 6323,32470 6340,32445 6357,32419 6373,32393 6388,32367 6403,32340 6417,32313 6431,32285 6444,32257 6456,32229 6467,32200 6478,32172 6488,32143 6497,32113 6505,32084 6513,32054 6520,32024 6527,31994 6532,31964 6537,31934 6541,31904 6545,31873 6548,31843 6549,31812 6551,31781 6551,31751 Z"/>
   </g>
  </g>
  <g class="com.sun.star.drawing.PolyPolygonShape">
   <g id="id4">
    <rect class="BoundingBox" stroke="none" fill="none" x="4112" y="30562" width="2377" height="2377"/>
    <path fill="rgb(255,255,255)" stroke="none" d="M 6488,31750 L 6488,31720 6487,31691 6485,31662 6483,31633 6479,31604 6475,31575 6471,31547 6466,31518 6460,31489 6453,31461 6445,31433 6437,31405 6428,31377 6419,31349 6409,31322 6398,31295 6386,31268 6374,31242 6361,31216 6348,31190 6334,31164 6319,31139 6304,31114 6288,31090 6272,31066 6255,31042 6237,31019 6219,30996 6200,30974 6181,30952 6161,30931 6140,30910 6120,30889 6098,30870 6076,30850 6054,30832 6031,30813 6008,30796 5984,30779 5960,30762 5935,30746 5910,30731 5885,30716 5859,30702 5834,30689 5807,30676 5781,30664 5754,30652 5727,30642 5700,30631 5672,30622 5644,30613 5616,30605 5588,30598 5560,30591 5531,30585 5503,30580 5474,30575 5445,30571 5416,30568 5387,30565 5358,30563 5329,30562 5300,30562 5270,30562 5241,30563 5212,30565 5183,30568 5154,30571 5125,30575 5096,30580 5068,30585 5039,30591 5011,30598 4983,30605 4955,30613 4927,30622 4899,30631 4872,30642 4845,30652 4818,30664 4792,30676 4765,30689 4740,30702 4714,30716 4689,30731 4664,30746 4640,30762 4616,30779 4592,30796 4569,30813 4546,30832 4524,30850 4502,30870 4480,30889 4460,30910 4439,30931 4419,30952 4400,30974 4381,30996 4363,31019 4345,31042 4328,31066 4312,31090 4296,31114 4281,31139 4266,31164 4252,31190 4238,31216 4226,31242 4214,31268 4202,31295 4191,31322 4181,31349 4172,31377 4163,31405 4155,31433 4147,31461 4140,31489 4134,31518 4129,31547 4125,31575 4121,31604 4117,31633 4115,31662 4113,31691 4112,31720 4112,31750 4112,31779 4113,31808 4115,31837 4117,31866 4121,31895 4125,31924 4129,31953 4134,31981 4140,32010 4147,32038 4155,32067 4163,32095 4172,32123 4181,32151 4191,32178 4202,32205 4214,32232 4226,32258 4238,32284 4252,32310 4266,32336 4281,32361 4296,32386 4312,32410 4328,32434 4345,32458 4363,32481 4381,32504 4400,32526 4419,32548 4439,32569 4460,32590 4480,32611 4502,32630 4524,32650 4546,32668 4569,32687 4592,32704 4616,32721 4640,32738 4664,32754 4689,32769 4714,32784 4740,32798 4765,32811 4792,32824 4818,32836 4845,32848 4872,32858 4899,32869 4927,32878 4955,32887 4983,32895 5011,32902 5039,32909 5068,32915 5096,32921 5125,32925 5154,32929 5183,32932 5212,32935 5241,32937 5270,32938 5299,32938 5329,32938 5358,32937 5387,32935 5416,32932 5445,32929 5474,32925 5503,32921 5531,32915 5560,32909 5588,32902 5616,32895 5644,32887 5672,32878 5700,32869 5727,32858 5754,32848 5781,32836 5807,32824 5834,32811 5859,32798 5885,32784 5910,32769 5935,32754 5960,32738 5984,32721 6008,32704 6031,32687 6054,32668 6076,32650 6098,32630 6120,32611 6140,32590 6161,32569 6181,32548 6200,32526 6219,32504 6237,32481 6255,32458 6272,32434 6288,32410 6304,32386 6319,32361 6334,32336 6348,32310 6361,32284 6374,32258 6386,32232 6398,32205 6409,32178 6419,32151 6428,32123 6437,32095 6445,32067 6453,32038 6460,32010 6466,31981 6471,31953 6475,31924 6479,31895 6483,31866 6485,31837 6487,31808 6488,31779 6488,31750 Z"/>
   </g>
  </g>
  <g class="com.sun.star.drawing.PolyPolygonShape">
   <g id="id5">
    <rect class="BoundingBox" stroke="none" fill="none" x="4188" y="30638" width="2225" height="2225"/>
    <path fill="rgb(0,0,255)" stroke="none" d="M 6412,31750 L 6412,31722 6411,31695 6409,31668 6407,31641 6404,31614 6400,31587 6396,31560 6391,31533 6385,31506 6379,31480 6372,31453 6364,31427 6356,31401 6347,31375 6338,31350 6327,31324 6317,31299 6305,31274 6293,31250 6281,31226 6268,31202 6254,31178 6239,31155 6225,31132 6209,31110 6193,31088 6177,31066 6160,31045 6142,31024 6124,31003 6105,30983 6086,30964 6067,30945 6047,30926 6026,30908 6005,30891 5984,30874 5963,30857 5940,30841 5918,30826 5895,30811 5872,30796 5848,30783 5824,30770 5800,30757 5776,30745 5751,30734 5726,30723 5701,30713 5675,30703 5649,30695 5623,30686 5597,30679 5571,30672 5543,30666 5516,30660 5490,30655 5463,30650 5435,30647 5408,30644 5381,30641 5354,30640 5327,30639 5299,30638 5272,30639 5245,30640 5218,30641 5191,30644 5164,30647 5136,30650 5109,30655 5083,30660 5056,30666 5029,30672 5003,30679 4977,30686 4951,30695 4925,30703 4899,30713 4874,30723 4849,30734 4824,30745 4800,30757 4776,30770 4752,30783 4728,30796 4705,30811 4682,30826 4660,30841 4637,30857 4616,30874 4594,30891 4574,30908 4553,30926 4533,30945 4514,30964 4495,30983 4476,31003 4458,31024 4440,31045 4423,31066 4407,31088 4391,31110 4375,31132 4361,31155 4346,31178 4332,31202 4319,31226 4307,31250 4295,31274 4283,31299 4273,31324 4262,31350 4253,31375 4244,31401 4236,31427 4228,31453 4221,31480 4215,31506 4209,31533 4204,31560 4200,31587 4196,31614 4193,31641 4191,31668 4189,31695 4188,31722 4188,31750 4188,31777 4189,31804 4191,31831 4193,31858 4196,31885 4200,31913 4204,31940 4209,31966 4215,31993 4221,32020 4228,32046 4236,32072 4244,32098 4253,32124 4262,32149 4273,32175 4283,32200 4295,32226 4307,32250 4319,32274 4332,32298 4346,32322 4361,32345 4375,32368 4391,32390 4407,32412 4423,32434 4440,32455 4458,32476 4476,32497 4495,32517 4514,32536 4533,32555 4553,32574 4574,32592 4594,32609 4616,32626 4637,32643 4660,32659 4682,32674 4705,32689 4728,32704 4752,32717 4776,32730 4800,32743 4824,32755 4849,32766 4874,32777 4899,32787 4925,32797 4951,32806 4977,32814 5003,32821 5029,32828 5056,32835 5083,32840 5109,32845 5136,32850 5164,32853 5191,32856 5218,32859 5245,32860 5272,32861 5299,32862 5327,32861 5354,32860 5381,32859 5408,32856 5435,32853 5463,32850 5490,32845 5516,32840 5543,32835 5571,32828 5597,32821 5623,32814 5649,32806 5675,32797 5701,32787 5726,32777 5751,32766 5776,32755 5800,32743 5824,32730 5848,32717 5872,32704 5895,32689 5918,32674 5940,32659 5963,32643 5984,32626 6005,32609 6026,32592 6047,32574 6067,32555 6086,32536 6105,32517 6124,32497 6142,32476 6160,32455 6177,32434 6193,32412 6209,32390 6225,32368 6239,32345 6254,32322 6268,32298 6281,32274 6293,32250 6305,32226 6317,32200 6327,32175 6338,32149 6347,32124 6356,32098 6364,32072 6372,32046 6379,32020 6385,31993 6391,31966 6396,31940 6400,31913 6404,31885 6407,31858 6409,31831 6411,31804 6412,31777 6412,31750 Z"/>
   </g>
  </g>
  <g class="com.sun.star.drawing.PolyPolygonShape">
   <g id="id6">
    <rect class="BoundingBox" stroke="none" fill="none" x="4410" y="30750" width="1782" height="2002"/>
    <path fill="rgb(255,255,255)" stroke="none" d="M 5300,30750 L 6190,31639 5523,31639 5523,32751 5078,32751 5078,31639 4410,31639 5300,30750 Z"/>
   </g>
  </g>
 </g>
</svg>