<?xml version="1.0" encoding="UTF-8"?>
<!DOCTYPE svg PUBLIC "-//W3C//DTD SVG 1.1//EN" "http://www.w3.org/Graphics/SVG/1.1/DTD/svg11.dtd">
<svg version="1.2" width="25.03mm" height="25.02mm" viewBox="13049 30500 2503 2502" preserveAspectRatio="xMidYMid" fill-rule="evenodd" stroke-width="28.222" stroke-linejoin="round" xmlns="http://www.w3.org/2000/svg" xmlns:ooo="http://xml.openoffice.org/svg/export" xmlns:xlink="http://www.w3.org/1999/xlink" xmlns:presentation="http://sun.com/xmlns/staroffice/presentation" xmlns:smil="http://www.w3.org/2001/SMIL20/" xmlns:anim="urn:oasis:names:tc:opendocument:xmlns:animation:1.0" xml:space="preserve">
 <defs class="EmbeddedBulletChars">
  <g id="bullet-char-template-57356" transform="scale(0.00048828125,-0.00048828125)">
   <path d="M 580,1141 L 1163,571 580,0 -4,571 580,1141 Z"/>
  </g>
  <g id="bullet-char-template-57354" transform="scale(0.00048828125,-0.00048828125)">
   <path d="M 8,1128 L 1137,1128 1137,0 8,0 8,1128 Z"/>
  </g>
  <g id="bullet-char-template-10146" transform="scale(0.00048828125,-0.00048828125)">
   <path d="M 174,0 L 602,739 174,1481 1456,739 174,0 Z M 1358,739 L 309,1346 659,739 1358,739 Z"/>
  </g>
  <g id="bullet-char-template-10132" transform="scale(0.00048828125,-0.00048828125)">
   <path d="M 2015,739 L 1276,0 717,0 1260,543 174,543 174,936 1260,936 717,1481 1274,1481 2015,739 Z"/>
  </g>
  <g id="bullet-char-template-10007" transform="scale(0.00048828125,-0.00048828125)">
   <path d="M 0,-2 C -7,14 -16,27 -25,37 L 356,567 C 262,823 215,952 215,954 215,979 228,992 255,992 264,992 276,990 289,987 310,991 331,999 354,1012 L 381,999 492,748 772,1049 836,1024 860,1049 C 881,1039 901,1025 922,1006 886,937 835,863 770,784 769,783 710,716 594,584 L 774,223 C 774,196 753,168 711,139 L 727,119 C 717,90 699,76 672,76 641,76 570,178 457,381 L 164,-76 C 142,-110 111,-127 72,-127 30,-127 9,-110 8,-76 1,-67 -2,-52 -2,-32 -2,-23 -1,-13 0,-2 Z"/>
  </g>
  <g id="bullet-char-template-10004" transform="scale(0.00048828125,-0.00048828125)">
   <path d="M 285,-33 C 182,-33 111,30 74,156 52,228 41,333 41,471 41,549 55,616 82,672 116,743 169,778 240,778 293,778 328,747 346,684 L 369,508 C 377,444 397,411 428,410 L 1163,1116 C 1174,1127 1196,1133 1229,1133 1271,1133 1292,1118 1292,1087 L 1292,965 C 1292,929 1282,901 1262,881 L 442,47 C 390,-6 338,-33 285,-33 Z"/>
  </g>
  <g id="bullet-char-template-9679" transform="scale(0.00048828125,-0.00048828125)">
   <path d="M 813,0 C 632,0 489,54 383,161 276,268 223,411 223,592 223,773 276,916 383,1023 489,1130 632,1184 813,1184 992,1184 1136,1130 1245,1023 1353,916 1407,772 1407,592 1407,412 1353,268 1245,161 1136,54 992,0 813,0 Z"/>
  </g>
  <g id="bullet-char-template-8226" transform="scale(0.00048828125,-0.00048828125)">
   <path d="M 346,457 C 273,457 209,483 155,535 101,586 74,649 74,723 74,796 101,859 155,911 209,963 273,989 346,989 419,989 480,963 531,910 582,859 608,796 608,723 608,648 583,586 532,535 482,483 420,457 346,457 Z"/>
  </g>
  <g id="bullet-char-template-8211" transform="scale(0.00048828125,-0.00048828125)">
   <path d="M -4,459 L 1135,459 1135,606 -4,606 -4,459 Z"/>
  </g>
  <g id="bullet-char-template-61548" transform="scale(0.00048828125,-0.00048828125)">
   <path d="M 173,740 C 173,903 231,1043 346,1159 462,1274 601,1332 765,1332 928,1332 1067,1274 1183,1159 1299,1043 1357,903 1357,740 1357,577 1299,437 1183,322 1067,206 928,148 765,148 601,148 462,206 346,322 231,437 173,577 173,740 Z"/>
  </g>
 </defs>
 <g class="Page">
  <g class="com.sun.star.drawing.PolyPolygonShape">
   <g id="id3">
    <rect class="BoundingBox" stroke="none" fill="none" x="13049" y="30500" width="2503" height="2502"/>
    <path fill="rgb(0,0,255)" stroke="none" d="M 15551,31751 L 15551,31720 15549,31689 15548,31659 15545,31628 15541,31597 15537,31567 15532,31537 15527,31507 15520,31477 15513,31447 15506,31417 15497,31388 15488,31358 15478,31329 15467,31301 15456,31272 15444,31244 15431,31215 15417,31187 15403,31160 15388,31133 15373,31107 15357,31081 15340,31055 15323,31030 15305,31005 15286,30980 15267,30956 15247,30933 15227,30910 15206,30888 15185,30866 15163,30844 15140,30823 15117,30803 15094,30783 15070,30764 15045,30745 15020,30728 14995,30710 14969,30693 14943,30677 14917,30662 14890,30647 14863,30633 14835,30620 14807,30607 14779,30595 14750,30583 14722,30573 14693,30563 14663,30553 14634,30545 14604,30537 14574,30530 14544,30523 14514,30518 14484,30513 14454,30509 14423,30505 14393,30503 14362,30501 14331,30500 14301,30500 14270,30500 14239,30501 14208,30503 14178,30505 14147,30509 14117,30513 14087,30518 14057,30523 14027,30530 13997,30537 13967,30545 13938,30553 13908,30563 13879,30573 13851,30583 13822,30595 13794,30607 13766,30620 13737,30633 13710,30647 13683,30662 13657,30677 13631,30693 13605,30710 13580,30728 13555,30745 13530,30764 13506,30783 13483,30803 13460,30823 13437,30844 13415,30866 13394,30888 13373,30910 13353,30933 13333,30956 13314,30980 13295,31005 13277,31030 13260,31055 13243,31081 13227,31107 13212,31133 13197,31160 13183,31187 13169,31215 13156,31244 13144,31272 13133,31301 13122,31329 13112,31358 13103,31388 13094,31417 13087,31447 13080,31477 13073,31507 13068,31537 13063,31567 13059,31597 13055,31628 13052,31659 13051,31689 13049,31720 13049,31751 13049,31781 13051,31812 13052,31843 13055,31873 13059,31904 13063,31934 13068,31964 13073,31994 13080,32024 13087,32054 13094,32084 13103,32113 13112,32143 13122,32172 13133,32200 13144,32229 13156,32257 13169,32285 13183,32313 13197,32340 13212,32367 13227,32393 13243,32419 13260,32445 13277,32470 13295,32495 13314,32520 13333,32544 13353,32567 13373,32590 13394,32612 13415,32634 13437,32656 13460,32677 13483,32697 13506,32717 13530,32736 13555,32755 13580,32772 13605,32790 13631,32807 13657,32823 13683,32838 13710,32853 13737,32867 13766,32881 13794,32893 13822,32905 13851,32917 13879,32927 13908,32937 13938,32947 13967,32955 13997,32963 14027,32970 14057,32977 14087,32982 14117,32987 14147,32991 14178,32995 14208,32997 14239,32999 14270,33000 14300,33001 14331,33000 14362,32999 14393,32997 14423,32995 14454,32991 14484,32987 14514,32982 14544,32977 14574,32970 14604,32963 14634,32955 14663,32947 14693,32937 14722,32927 14750,32917 14779,32905 14807,32893 14835,32881 14863,32867 14890,32853 14917,32838 14943,32823 14969,32807 14995,32790 15020,32772 15045,32755 15070,32736 15094,32717 15117,32697 15140,32677 15163,32656 15185,32634 15206,32612 15227,32590 15247,32567 15267,32544 15286,32520 15305,32495 15323,32470 15340,32445 15357,32419 15373,32393 15388,32367 15403,32340 15417,32313 15431,32285 15444,32257 15456,32229 15467,32200 15478,32172 15488,32143 15497,32113 15506,32084 15513,32054 15520,32024 15527,31994 15532,31964 15537,31934 15541,31904 15545,31873 15548,31843 15549,31812 15551,31781 15551,31751 Z"/>
   </g>
  </g>
  <g class="com.sun.star.drawing.PolyPolygonShape">
   <g id="id4">
    <rect class="BoundingBox" stroke="none" fill="none" x="13112" y="30562" width="2377" height="2377"/>
    <path fill="rgb(255,255,255)" stroke="none" d="M 15488,31750 L 15488,31720 15487,31691 15485,31662 15483,31633 15479,31604 15475,31575 15471,31547 15466,31518 15460,31489 15453,31461 15445,31433 15436,31405 15427,31377 15418,31349 15408,31322 15397,31295 15385,31268 15373,31242 15360,31216 15347,31190 15333,31164 15318,31139 15303,31114 15287,31090 15271,31066 15254,31042 15236,31019 15218,30996 15199,30974 15180,30952 15160,30931 15139,30910 15119,30889 15097,30870 15075,30850 15053,30832 15030,30813 15007,30796 14983,30779 14959,30762 14935,30746 14910,30731 14885,30716 14859,30702 14834,30689 14807,30676 14781,30664 14754,30652 14727,30642 14700,30631 14672,30622 14644,30613 14616,30605 14588,30598 14560,30591 14531,30585 14503,30580 14474,30575 14445,30571 14416,30568 14387,30565 14358,30563 14329,30562 14300,30562 14270,30562 14241,30563 14212,30565 14183,30568 14154,30571 14125,30575 14096,30580 14068,30585 14039,30591 14011,30598 13983,30605 13955,30613 13927,30622 13899,30631 13872,30642 13845,30652 13818,30664 13792,30676 13765,30689 13740,30702 13714,30716 13689,30731 13664,30746 13640,30762 13616,30779 13592,30796 13569,30813 13546,30832 13524,30850 13502,30870 13480,30889 13460,30910 13439,30931 13419,30952 13400,30974 13381,30996 13363,31019 13345,31042 13328,31066 13312,31090 13296,31114 13281,31139 13266,31164 13252,31190 13238,31216 13226,31242 13214,31268 13202,31295 13191,31322 13181,31349 13172,31377 13163,31405 13155,31433 13147,31461 13140,31489 13134,31518 13129,31547 13125,31575 13121,31604 13117,31633 13115,31662 13113,31691 13112,31720 13112,31750 13112,31779 13113,31808 13115,31837 13117,31866 13121,31895 13125,31924 13129,31953 13134,31981 13140,32010 13147,32038 13155,32067 13163,32095 13172,32123 13181,32151 13191,32178 13202,32205 13214,32232 13226,32258 13238,32284 13252,32310 13266,32336 13281,32361 13296,32386 13312,32410 13328,32434 13345,32458 13363,32481 13381,32504 13400,32526 13419,32548 13439,32569 13460,32590 13480,32611 13502,32630 13524,32650 13546,32668 13569,32687 13592,32704 13616,32721 13640,32738 13664,32754 13689,32769 13714,32784 13740,32798 13765,32811 13792,32824 13818,32836 13845,32848 13872,32858 13899,32869 13927,32878 13955,32887 13983,32895 14011,32902 14039,32909 14068,32915 14096,32921 14125,32925 14154,32929 14183,32932 14212,32935 14241,32937 14270,32938 14299,32938 14329,32938 14358,32937 14387,32935 14416,32932 14445,32929 14474,32925 14503,32921 14531,32915 14560,32909 14588,32902 14616,32895 14644,32887 14672,32878 14700,32869 14727,32858 14754,32848 14781,32836 14807,32824 14834,32811 14859,32798 14885,32784 14910,32769 14935,32754 14959,32738 14983,32721 15007,32704 15030,32687 15053,32668 15075,32650 15097,32630 15119,32611 15139,32590 15160,32569 15180,32548 15199,32526 15218,32504 15236,32481 15254,32458 15271,32434 15287,32410 15303,32386 15318,32361 15333,32336 15347,32310 15360,32284 15373,32258 15385,32232 15397,32205 15408,32178 15418,32151 15427,32123 15436,32095 15445,32067 15453,32038 15460,32010 15466,31981 15471,31953 15475,31924 15479,31895 15483,31866 15485,31837 15487,31808 15488,31779 15488,31750 Z"/>
   </g>
  </g>
  <g class="com.sun.star.drawing.PolyPolygonShape">
   <g id="id5">
    <rect class="BoundingBox" stroke="none" fill="none" x="13188" y="30638" width="2226" height="2225"/>
    <path fill="rgb(0,0,255)" stroke="none" d="M 15412,31750 L 15412,31722 15411,31695 15409,31668 15407,31641 15404,31614 15400,31587 15396,31560 15391,31533 15385,31506 15379,31480 15372,31453 15364,31427 15356,31401 15347,31375 15338,31350 15327,31324 15317,31299 15305,31274 15293,31250 15281,31226 15268,31202 15254,31178 15239,31155 15225,31132 15209,31110 15193,31088 15177,31066 15160,31045 15142,31024 15124,31003 15105,30983 15086,30964 15067,30945 15047,30926 15026,30908 15005,30891 14984,30874 14963,30857 14940,30841 14918,30826 14895,30811 14872,30796 14848,30783 14824,30770 14800,30757 14776,30745 14751,30734 14726,30723 14701,30713 14675,30703 14649,30695 14623,30686 14597,30679 14571,30672 14544,30666 14517,30660 14491,30655 14464,30650 14435,30647 14408,30644 14381,30641 14354,30640 14327,30639 14299,30638 14272,30639 14245,30640 14218,30641 14191,30644 14164,30647 14136,30650 14109,30655 14083,30660 14056,30666 14029,30672 14003,30679 13977,30686 13951,30695 13925,30703 13899,30713 13874,30723 13849,30734 13824,30745 13800,30757 13776,30770 13752,30783 13728,30796 13705,30811 13682,30826 13660,30841 13637,30857 13616,30874 13594,30891 13574,30908 13553,30926 13533,30945 13514,30964 13495,30983 13476,31003 13458,31024 13440,31045 13423,31066 13407,31088 13391,31110 13375,31132 13361,31155 13346,31178 13332,31202 13319,31226 13307,31250 13295,31274 13283,31299 13273,31324 13262,31350 13253,31375 13244,31401 13236,31427 13228,31453 13221,31480 13215,31506 13209,31533 13204,31560 13200,31587 13196,31614 13193,31641 13191,31668 13189,31695 13188,31722 13188,31750 13188,31777 13189,31804 13191,31831 13193,31858 13196,31885 13200,31913 13204,31940 13209,31966 13215,31993 13221,32020 13228,32046 13236,32072 13244,32098 13253,32124 13262,32149 13273,32175 13283,32200 13295,32226 13307,32250 13319,32274 13332,32298 13346,32322 13361,32345 13375,32368 13391,32390 13407,32412 13423,32434 13440,32455 13458,32476 13476,32497 13495,32517 13514,32536 13533,32555 13553,32574 13574,32592 13594,32609 13616,32626 13637,32643 13660,32659 13682,32674 13705,32689 13728,32704 13752,32717 13776,32730 13800,32743 13824,32755 13849,32766 13874,32777 13899,32787 13925,32797 13951,32806 13977,32814 14003,32821 14029,32828 14056,32835 14083,32840 14109,32845 14136,32850 14164,32853 14191,32856 14218,32859 14245,32860 14272,32861 14299,32862 14327,32861 14354,32860 14381,32859 14408,32856 14435,32853 14464,32850 14491,32845 14517,32840 14544,32835 14571,32828 14597,32821 14623,32814 14649,32806 14675,32797 14701,32787 14726,32777 14751,32766 14776,32755 14800,32743 14824,32730 14848,32717 14872,32704 14895,32689 14918,32674 14940,32659 14963,32643 14984,32626 15005,32609 15026,32592 15047,32574 15067,32555 15086,32536 15105,32517 15124,32497 15142,32476 15160,32455 15177,32434 15193,32412 15209,32390 15225,32368 15239,32345 15254,32322 15268,32298 15281,32274 15293,32250 15305,32226 15317,32200 15327,32175 15338,32149 15347,32124 15356,32098 15364,32072 15372,32046 15379,32020 15385,31993 15391,31966 15396,31940 15400,31913 15404,31885 15407,31858 15409,31831 15411,31804 15412,31777 15412,31750 Z"/>
   </g>
  </g>
  <g class="com.sun.star.drawing.PolyPolygonShape">
   <g id="id6">
    <rect class="BoundingBox" stroke="none" fill="none" x="13592" y="30885" width="1574" height="1574"/>
    <path fill="rgb(255,255,255)" stroke="none" d="M 13592,32458 L 13592,31200 14064,31671 14850,30885 15165,31200 14378,31985 14850,32458 13592,32458 Z"/>
   </g>
  </g>
 </g>
</svg>