<?xml version="1.0" encoding="UTF-8"?>
<!DOCTYPE svg PUBLIC "-//W3C//DTD SVG 1.1//EN" "http://www.w3.org/Graphics/SVG/1.1/DTD/svg11.dtd">
<svg version="1.2" width="25.03mm" height="25.02mm" viewBox="16049 30500 2503 2502" preserveAspectRatio="xMidYMid" fill-rule="evenodd" stroke-width="28.222" stroke-linejoin="round" xmlns="http://www.w3.org/2000/svg" xmlns:ooo="http://xml.openoffice.org/svg/export" xmlns:xlink="http://www.w3.org/1999/xlink" xmlns:presentation="http://sun.com/xmlns/staroffice/presentation" xmlns:smil="http://www.w3.org/2001/SMIL20/" xmlns:anim="urn:oasis:names:tc:opendocument:xmlns:animation:1.0" xml:space="preserve">
 <defs class="EmbeddedBulletChars">
  <g id="bullet-char-template-57356" transform="scale(0.00048828125,-0.00048828125)">
   <path d="M 580,1141 L 1163,571 580,0 -4,571 580,1141 Z"/>
  </g>
  <g id="bullet-char-template-57354" transform="scale(0.00048828125,-0.00048828125)">
   <path d="M 8,1128 L 1137,1128 1137,0 8,0 8,1128 Z"/>
  </g>
  <g id="bullet-char-template-10146" transform="scale(0.00048828125,-0.00048828125)">
   <path d="M 174,0 L 602,739 174,1481 1456,739 174,0 Z M 1358,739 L 309,1346 659,739 1358,739 Z"/>
  </g>
  <g id="bullet-char-template-10132" transform="scale(0.00048828125,-0.00048828125)">
   <path d="M 2015,739 L 1276,0 717,0 1260,543 174,543 174,936 1260,936 717,1481 1274,1481 2015,739 Z"/>
  </g>
  <g id="bullet-char-template-10007" transform="scale(0.00048828125,-0.00048828125)">
   <path d="M 0,-2 C -7,14 -16,27 -25,37 L 356,567 C 262,823 215,952 215,954 215,979 228,992 255,992 264,992 276,990 289,987 310,991 331,999 354,1012 L 381,999 492,748 772,1049 836,1024 860,1049 C 881,1039 901,1025 922,1006 886,937 835,863 770,784 769,783 710,716 594,584 L 774,223 C 774,196 753,168 711,139 L 727,119 C 717,90 699,76 672,76 641,76 570,178 457,381 L 164,-76 C 142,-110 111,-127 72,-127 30,-127 9,-110 8,-76 1,-67 -2,-52 -2,-32 -2,-23 -1,-13 0,-2 Z"/>
  </g>
  <g id="bullet-char-template-10004" transform="scale(0.00048828125,-0.00048828125)">
   <path d="M 285,-33 C 182,-33 111,30 74,156 52,228 41,333 41,471 41,549 55,616 82,672 116,743 169,778 240,778 293,778 328,747 346,684 L 369,508 C 377,444 397,411 428,410 L 1163,1116 C 1174,1127 1196,1133 1229,1133 1271,1133 1292,1118 1292,1087 L 1292,965 C 1292,929 1282,901 1262,881 L 442,47 C 390,-6 338,-33 285,-33 Z"/>
  </g>
  <g id="bullet-char-template-9679" transform="scale(0.00048828125,-0.00048828125)">
   <path d="M 813,0 C 632,0 489,54 383,161 276,268 223,411 223,592 223,773 276,916 383,1023 489,1130 632,1184 813,1184 992,1184 1136,1130 1245,1023 1353,916 1407,772 1407,592 1407,412 1353,268 1245,161 1136,54 992,0 813,0 Z"/>
  </g>
  <g id="bullet-char-template-8226" transform="scale(0.00048828125,-0.00048828125)">
   <path d="M 346,457 C 273,457 209,483 155,535 101,586 74,649 74,723 74,796 101,859 155,911 209,963 273,989 346,989 419,989 480,963 531,910 582,859 608,796 608,723 608,648 583,586 532,535 482,483 420,457 346,457 Z"/>
  </g>
  <g id="bullet-char-template-8211" transform="scale(0.00048828125,-0.00048828125)">
   <path d="M -4,459 L 1135,459 1135,606 -4,606 -4,459 Z"/>
  </g>
  <g id="bullet-char-template-61548" transform="scale(0.00048828125,-0.00048828125)">
   <path d="M 173,740 C 173,903 231,1043 346,1159 462,1274 601,1332 765,1332 928,1332 1067,1274 1183,1159 1299,1043 1357,903 1357,740 1357,577 1299,437 1183,322 1067,206 928,148 765,148 601,148 462,206 346,322 231,437 173,577 173,740 Z"/>
  </g>
 </defs>
 <g class="Page">
  <g class="com.sun.star.drawing.PolyPolygonShape">
   <g id="id3">
    <rect class="BoundingBox" stroke="none" fill="none" x="16049" y="30500" width="2503" height="2502"/>
    <path fill="rgb(0,0,255)" stroke="none" d="M 18551,31751 L 18551,31720 18549,31689 18548,31659 18545,31628 18541,31597 18537,31567 18532,31537 18527,31507 18521,31477 18513,31447 18506,31417 18497,31388 18488,31358 18478,31329 18467,31301 18456,31272 18444,31244 18431,31215 18417,31187 18403,31160 18388,31133 18373,31107 18357,31081 18340,31055 18323,31030 18305,31005 18286,30980 18267,30956 18247,30933 18227,30910 18206,30888 18185,30866 18163,30844 18140,30823 18117,30803 18094,30783 18070,30764 18045,30745 18020,30728 17995,30710 17969,30693 17943,30677 17917,30662 17890,30647 17863,30633 17835,30620 17807,30607 17779,30595 17750,30583 17722,30573 17693,30563 17663,30553 17634,30545 17604,30537 17574,30530 17544,30523 17514,30518 17484,30513 17454,30509 17423,30505 17393,30503 17362,30501 17331,30500 17301,30500 17270,30500 17239,30501 17208,30503 17178,30505 17147,30509 17117,30513 17087,30518 17057,30523 17027,30530 16997,30537 16967,30545 16938,30553 16908,30563 16879,30573 16851,30583 16822,30595 16794,30607 16766,30620 16738,30633 16711,30647 16684,30662 16658,30677 16632,30693 16606,30710 16581,30728 16556,30745 16531,30764 16507,30783 16484,30803 16461,30823 16438,30844 16416,30866 16395,30888 16374,30910 16354,30933 16334,30956 16315,30980 16296,31005 16278,31030 16261,31055 16243,31081 16227,31107 16212,31133 16197,31160 16183,31187 16169,31215 16156,31244 16144,31272 16133,31301 16122,31329 16112,31358 16103,31388 16094,31417 16087,31447 16080,31477 16073,31507 16068,31537 16063,31567 16059,31597 16055,31628 16052,31659 16051,31689 16049,31720 16049,31751 16049,31781 16051,31812 16052,31843 16055,31873 16059,31904 16063,31934 16068,31964 16073,31994 16080,32024 16087,32054 16094,32084 16103,32113 16112,32143 16122,32172 16133,32200 16144,32229 16156,32257 16169,32285 16183,32313 16197,32340 16212,32367 16227,32393 16243,32419 16261,32445 16278,32470 16296,32495 16315,32520 16334,32544 16354,32567 16374,32590 16395,32612 16416,32634 16438,32656 16461,32677 16484,32697 16507,32717 16531,32736 16556,32755 16581,32772 16606,32790 16632,32807 16658,32823 16684,32838 16711,32853 16738,32867 16766,32881 16794,32893 16822,32905 16851,32917 16879,32927 16908,32937 16938,32947 16967,32955 16997,32963 17027,32970 17057,32977 17087,32982 17117,32987 17147,32991 17178,32995 17208,32997 17239,32999 17270,33000 17300,33001 17331,33000 17362,32999 17393,32997 17423,32995 17454,32991 17484,32987 17514,32982 17544,32977 17574,32970 17604,32963 17634,32955 17663,32947 17693,32937 17722,32927 17750,32917 17779,32905 17807,32893 17835,32881 17863,32867 17890,32853 17917,32838 17943,32823 17969,32807 17995,32790 18020,32772 18045,32755 18070,32736 18094,32717 18117,32697 18140,32677 18163,32656 18185,32634 18206,32612 18227,32590 18247,32567 18267,32544 18286,32520 18305,32495 18323,32470 18340,32445 18357,32419 18373,32393 18388,32367 18403,32340 18417,32313 18431,32285 18444,32257 18456,32229 18467,32200 18478,32172 18488,32143 18497,32113 18506,32084 18513,32054 18521,32024 18527,31994 18532,31964 18537,31934 18541,31904 18545,31873 18548,31843 18549,31812 18551,31781 18551,31751 Z"/>
   </g>
  </g>
  <g class="com.sun.star.drawing.PolyPolygonShape">
   <g id="id4">
    <rect class="BoundingBox" stroke="none" fill="none" x="16112" y="30562" width="2377" height="2377"/>
    <path fill="rgb(255,255,255)" stroke="none" d="M 18488,31750 L 18488,31720 18487,31691 18485,31662 18483,31633 18479,31604 18475,31575 18471,31547 18466,31518 18460,31489 18453,31461 18445,31433 18437,31405 18428,31377 18419,31349 18409,31322 18398,31295 18386,31268 18374,31242 18361,31216 18348,31190 18334,31164 18319,31139 18304,31114 18288,31090 18272,31066 18255,31042 18237,31019 18219,30996 18200,30974 18181,30952 18161,30931 18140,30910 18120,30889 18098,30870 18076,30850 18054,30832 18031,30813 18008,30796 17984,30779 17960,30762 17936,30746 17911,30731 17886,30716 17860,30702 17835,30689 17807,30676 17781,30664 17754,30652 17727,30642 17700,30631 17672,30622 17644,30613 17616,30605 17588,30598 17560,30591 17531,30585 17503,30580 17474,30575 17445,30571 17416,30568 17387,30565 17358,30563 17329,30562 17300,30562 17270,30562 17241,30563 17212,30565 17183,30568 17154,30571 17125,30575 17096,30580 17068,30585 17039,30591 17011,30598 16983,30605 16955,30613 16927,30622 16899,30631 16872,30642 16845,30652 16818,30664 16792,30676 16765,30689 16740,30702 16714,30716 16689,30731 16664,30746 16640,30762 16616,30779 16592,30796 16569,30813 16546,30832 16524,30850 16502,30870 16480,30889 16460,30910 16439,30931 16419,30952 16400,30974 16381,30996 16363,31019 16345,31042 16328,31066 16312,31090 16296,31114 16281,31139 16266,31164 16252,31190 16238,31216 16226,31242 16214,31268 16202,31295 16191,31322 16181,31349 16172,31377 16163,31405 16155,31433 16147,31461 16140,31489 16134,31518 16129,31547 16125,31575 16121,31604 16117,31633 16115,31662 16113,31691 16112,31720 16112,31750 16112,31779 16113,31808 16115,31837 16117,31866 16121,31895 16125,31924 16129,31953 16134,31981 16140,32010 16147,32038 16155,32067 16163,32095 16172,32123 16181,32151 16191,32178 16202,32205 16214,32232 16226,32258 16238,32284 16252,32310 16266,32336 16281,32361 16296,32386 16312,32410 16328,32434 16345,32458 16363,32481 16381,32504 16400,32526 16419,32548 16439,32569 16460,32590 16480,32611 16502,32630 16524,32650 16546,32668 16569,32687 16592,32704 16616,32721 16640,32738 16664,32754 16689,32769 16714,32784 16740,32798 16765,32811 16792,32824 16818,32836 16845,32848 16872,32858 16899,32869 16927,32878 16955,32887 16983,32895 17011,32902 17039,32909 17068,32915 17096,32921 17125,32925 17154,32929 17183,32932 17212,32935 17241,32937 17270,32938 17299,32938 17329,32938 17358,32937 17387,32935 17416,32932 17445,32929 17474,32925 17503,32921 17531,32915 17560,32909 17588,32902 17616,32895 17644,32887 17672,32878 17700,32869 17727,32858 17754,32848 17781,32836 17807,32824 17835,32811 17860,32798 17886,32784 17911,32769 17936,32754 17960,32738 17984,32721 18008,32704 18031,32687 18054,32668 18076,32650 18098,32630 18120,32611 18140,32590 18161,32569 18181,32548 18200,32526 18219,32504 18237,32481 18255,32458 18272,32434 18288,32410 18304,32386 18319,32361 18334,32336 18348,32310 18361,32284 18374,32258 18386,32232 18398,32205 18409,32178 18419,32151 18428,32123 18437,32095 18445,32067 18453,32038 18460,32010 18466,31981 18471,31953 18475,31924 18479,31895 18483,31866 18485,31837 18487,31808 18488,31779 18488,31750 Z"/>
   </g>
  </g>
  <g class="com.sun.star.drawing.PolyPolygonShape">
   <g id="id5">
    <rect class="BoundingBox" stroke="none" fill="none" x="16188" y="30638" width="2225" height="2225"/>
    <path fill="rgb(0,0,255)" stroke="none" d="M 18412,31750 L 18412,31722 18411,31695 18409,31668 18407,31641 18404,31614 18400,31587 18396,31560 18391,31533 18385,31506 18379,31480 18372,31453 18364,31427 18356,31401 18347,31375 18338,31350 18327,31324 18317,31299 18305,31274 18293,31250 18281,31226 18268,31202 18254,31178 18239,31155 18225,31132 18209,31110 18193,31088 18177,31066 18160,31045 18142,31024 18124,31003 18105,30983 18086,30964 18067,30945 18047,30926 18026,30908 18005,30891 17984,30874 17963,30857 17940,30841 17918,30826 17895,30811 17872,30796 17848,30783 17824,30770 17800,30757 17776,30745 17751,30734 17726,30723 17701,30713 17675,30703 17649,30695 17623,30686 17597,30679 17571,30672 17544,30666 17517,30660 17491,30655 17464,30650 17437,30647 17409,30644 17382,30641 17355,30640 17328,30639 17300,30638 17273,30639 17246,30640 17219,30641 17192,30644 17165,30647 17137,30650 17110,30655 17084,30660 17057,30666 17030,30672 17004,30679 16978,30686 16952,30695 16926,30703 16900,30713 16875,30723 16850,30734 16825,30745 16801,30757 16777,30770 16753,30783 16729,30796 16706,30811 16683,30826 16660,30841 16637,30857 16616,30874 16594,30891 16574,30908 16553,30926 16533,30945 16514,30964 16495,30983 16476,31003 16458,31024 16440,31045 16423,31066 16407,31088 16391,31110 16375,31132 16361,31155 16346,31178 16332,31202 16319,31226 16307,31250 16295,31274 16283,31299 16273,31324 16262,31350 16253,31375 16244,31401 16236,31427 16228,31453 16221,31480 16215,31506 16209,31533 16204,31560 16200,31587 16196,31614 16193,31641 16191,31668 16189,31695 16188,31722 16188,31750 16188,31777 16189,31804 16191,31831 16193,31858 16196,31885 16200,31913 16204,31940 16209,31966 16215,31993 16221,32020 16228,32046 16236,32072 16244,32098 16253,32124 16262,32149 16273,32175 16283,32200 16295,32226 16307,32250 16319,32274 16332,32298 16346,32322 16361,32345 16375,32368 16391,32390 16407,32412 16423,32434 16440,32455 16458,32476 16476,32497 16495,32517 16514,32536 16533,32555 16553,32574 16574,32592 16594,32609 16616,32626 16637,32643 16660,32659 16683,32674 16706,32689 16729,32704 16753,32717 16777,32730 16801,32743 16825,32755 16850,32766 16875,32777 16900,32787 16926,32797 16952,32806 16978,32814 17004,32821 17030,32828 17057,32835 17084,32840 17110,32845 17137,32850 17165,32853 17192,32856 17219,32859 17246,32860 17273,32861 17300,32862 17328,32861 17355,32860 17382,32859 17409,32856 17437,32853 17464,32850 17491,32845 17517,32840 17544,32835 17571,32828 17597,32821 17623,32814 17649,32806 17675,32797 17701,32787 17726,32777 17751,32766 17776,32755 17800,32743 17824,32730 17848,32717 17872,32704 17895,32689 17918,32674 17940,32659 17963,32643 17984,32626 18005,32609 18026,32592 18047,32574 18067,32555 18086,32536 18105,32517 18124,32497 18142,32476 18160,32455 18177,32434 18193,32412 18209,32390 18225,32368 18239,32345 18254,32322 18268,32298 18281,32274 18293,32250 18305,32226 18317,32200 18327,32175 18338,32149 18347,32124 18356,32098 18364,32072 18372,32046 18379,32020 18385,31993 18391,31966 18396,31940 18400,31913 18404,31885 18407,31858 18409,31831 18411,31804 18412,31777 18412,31750 Z"/>
   </g>
  </g>
  <g class="com.sun.star.drawing.PolyPolygonShape">
   <g id="id6">
    <rect class="BoundingBox" stroke="none" fill="none" x="16435" y="30885" width="1574" height="1574"/>
    <path fill="rgb(255,255,255)" stroke="none" d="M 18008,32458 L 16750,32458 17222,31985 16435,31200 16750,30885 17536,31671 18008,31200 18008,32458 Z"/>
   </g>
  </g>
 </g>
</svg>