<?xml version="1.0" encoding="UTF-8"?>
<!DOCTYPE svg PUBLIC "-//W3C//DTD SVG 1.1//EN" "http://www.w3.org/Graphics/SVG/1.1/DTD/svg11.dtd">
<svg version="1.2" width="25.04mm" height="25.02mm" viewBox="19049 30500 2504 2502" preserveAspectRatio="xMidYMid" fill-rule="evenodd" stroke-width="28.222" stroke-linejoin="round" xmlns="http://www.w3.org/2000/svg" xmlns:ooo="http://xml.openoffice.org/svg/export" xmlns:xlink="http://www.w3.org/1999/xlink" xmlns:presentation="http://sun.com/xmlns/staroffice/presentation" xmlns:smil="http://www.w3.org/2001/SMIL20/" xmlns:anim="urn:oasis:names:tc:opendocument:xmlns:animation:1.0" xml:space="preserve">
 <defs class="EmbeddedBulletChars">
  <g id="bullet-char-template-57356" transform="scale(0.00048828125,-0.00048828125)">
   <path d="M 580,1141 L 1163,571 580,0 -4,571 580,1141 Z"/>
  </g>
  <g id="bullet-char-template-57354" transform="scale(0.00048828125,-0.00048828125)">
   <path d="M 8,1128 L 1137,1128 1137,0 8,0 8,1128 Z"/>
  </g>
  <g id="bullet-char-template-10146" transform="scale(0.00048828125,-0.00048828125)">
   <path d="M 174,0 L 602,739 174,1481 1456,739 174,0 Z M 1358,739 L 309,1346 659,739 1358,739 Z"/>
  </g>
  <g id="bullet-char-template-10132" transform="scale(0.00048828125,-0.00048828125)">
   <path d="M 2015,739 L 1276,0 717,0 1260,543 174,543 174,936 1260,936 717,1481 1274,1481 2015,739 Z"/>
  </g>
  <g id="bullet-char-template-10007" transform="scale(0.00048828125,-0.00048828125)">
   <path d="M 0,-2 C -7,14 -16,27 -25,37 L 356,567 C 262,823 215,952 215,954 215,979 228,992 255,992 264,992 276,990 289,987 310,991 331,999 354,1012 L 381,999 492,748 772,1049 836,1024 860,1049 C 881,1039 901,1025 922,1006 886,937 835,863 770,784 769,783 710,716 594,584 L 774,223 C 774,196 753,168 711,139 L 727,119 C 717,90 699,76 672,76 641,76 570,178 457,381 L 164,-76 C 142,-110 111,-127 72,-127 30,-127 9,-110 8,-76 1,-67 -2,-52 -2,-32 -2,-23 -1,-13 0,-2 Z"/>
  </g>
  <g id="bullet-char-template-10004" transform="scale(0.00048828125,-0.00048828125)">
   <path d="M 285,-33 C 182,-33 111,30 74,156 52,228 41,333 41,471 41,549 55,616 82,672 116,743 169,778 240,778 293,778 328,747 346,684 L 369,508 C 377,444 397,411 428,410 L 1163,1116 C 1174,1127 1196,1133 1229,1133 1271,1133 1292,1118 1292,1087 L 1292,965 C 1292,929 1282,901 1262,881 L 442,47 C 390,-6 338,-33 285,-33 Z"/>
  </g>
  <g id="bullet-char-template-9679" transform="scale(0.00048828125,-0.00048828125)">
   <path d="M 813,0 C 632,0 489,54 383,161 276,268 223,411 223,592 223,773 276,916 383,1023 489,1130 632,1184 813,1184 992,1184 1136,1130 1245,1023 1353,916 1407,772 1407,592 1407,412 1353,268 1245,161 1136,54 992,0 813,0 Z"/>
  </g>
  <g id="bullet-char-template-8226" transform="scale(0.00048828125,-0.00048828125)">
   <path d="M 346,457 C 273,457 209,483 155,535 101,586 74,649 74,723 74,796 101,859 155,911 209,963 273,989 346,989 419,989 480,963 531,910 582,859 608,796 608,723 608,648 583,586 532,535 482,483 420,457 346,457 Z"/>
  </g>
  <g id="bullet-char-template-8211" transform="scale(0.00048828125,-0.00048828125)">
   <path d="M -4,459 L 1135,459 1135,606 -4,606 -4,459 Z"/>
  </g>
  <g id="bullet-char-template-61548" transform="scale(0.00048828125,-0.00048828125)">
   <path d="M 173,740 C 173,903 231,1043 346,1159 462,1274 601,1332 765,1332 928,1332 1067,1274 1183,1159 1299,1043 1357,903 1357,740 1357,577 1299,437 1183,322 1067,206 928,148 765,148 601,148 462,206 346,322 231,437 173,577 173,740 Z"/>
  </g>
 </defs>
 <g class="Page">
  <g class="com.sun.star.drawing.PolyPolygonShape">
   <g id="id3">
    <rect class="BoundingBox" stroke="none" fill="none" x="19049" y="30500" width="2504" height="2502"/>
    <path fill="rgb(0,0,255)" stroke="none" d="M 21551,31751 L 21551,31720 21549,31689 21548,31659 21545,31628 21541,31597 21537,31567 21532,31537 21527,31507 21520,31477 21513,31447 21506,31417 21497,31388 21488,31358 21478,31329 21467,31301 21456,31272 21444,31244 21431,31215 21417,31187 21403,31160 21388,31133 21373,31107 21357,31081 21340,31055 21323,31030 21305,31005 21286,30980 21267,30956 21246,30933 21226,30910 21205,30888 21184,30866 21162,30844 21139,30823 21116,30803 21093,30783 21069,30764 21044,30745 21019,30728 20994,30710 20968,30693 20942,30677 20916,30662 20889,30647 20862,30633 20834,30620 20806,30607 20778,30595 20750,30583 20721,30573 20692,30563 20662,30553 20633,30545 20603,30537 20573,30530 20543,30523 20513,30518 20483,30513 20453,30509 20422,30505 20392,30503 20361,30501 20330,30500 20300,30500 20269,30500 20238,30501 20207,30503 20177,30505 20146,30509 20116,30513 20086,30518 20056,30523 20026,30530 19996,30537 19966,30545 19937,30553 19907,30563 19878,30573 19850,30583 19821,30595 19793,30607 19765,30620 19737,30633 19710,30647 19683,30662 19657,30677 19631,30693 19605,30710 19579,30728 19555,30745 19530,30764 19506,30783 19483,30803 19460,30823 19437,30844 19415,30866 19394,30888 19373,30910 19353,30933 19333,30956 19314,30980 19295,31005 19277,31030 19260,31055 19243,31081 19227,31107 19212,31133 19197,31160 19183,31187 19169,31215 19156,31244 19144,31272 19133,31301 19122,31329 19112,31358 19103,31388 19094,31417 19087,31447 19080,31477 19073,31507 19068,31537 19063,31567 19059,31597 19055,31628 19052,31659 19051,31689 19049,31720 19049,31751 19049,31781 19051,31812 19052,31843 19055,31873 19059,31904 19063,31934 19068,31964 19073,31994 19080,32024 19087,32054 19094,32084 19103,32113 19112,32143 19122,32172 19133,32200 19144,32229 19156,32257 19169,32285 19183,32313 19197,32340 19212,32367 19227,32393 19243,32419 19260,32445 19277,32470 19295,32495 19314,32520 19333,32544 19353,32567 19373,32590 19394,32612 19415,32634 19437,32656 19460,32677 19483,32697 19506,32717 19530,32736 19555,32755 19579,32772 19605,32790 19631,32807 19657,32823 19683,32838 19710,32853 19737,32867 19765,32881 19793,32893 19821,32905 19850,32917 19878,32927 19907,32937 19937,32947 19966,32955 19996,32963 20026,32970 20056,32977 20086,32982 20116,32987 20146,32991 20177,32995 20207,32997 20238,32999 20269,33000 20299,33001 20330,33000 20361,32999 20392,32997 20422,32995 20453,32991 20483,32987 20513,32982 20543,32977 20573,32970 20603,32963 20633,32955 20662,32947 20692,32937 20721,32927 20750,32917 20778,32905 20806,32893 20834,32881 20862,32867 20889,32853 20916,32838 20942,32823 20968,32807 20994,32790 21019,32772 21044,32755 21069,32736 21093,32717 21116,32697 21139,32677 21162,32656 21184,32634 21205,32612 21226,32590 21246,32567 21267,32544 21286,32520 21305,32495 21323,32470 21340,32445 21357,32419 21373,32393 21388,32367 21403,32340 21417,32313 21431,32285 21444,32257 21456,32229 21467,32200 21478,32172 21488,32143 21497,32113 21506,32084 21513,32054 21520,32024 21527,31994 21532,31964 21537,31934 21541,31904 21545,31873 21548,31843 21549,31812 21551,31781 21551,31751 Z"/>
   </g>
  </g>
  <g class="com.sun.star.drawing.PolyPolygonShape">
   <g id="id4">
    <rect class="BoundingBox" stroke="none" fill="none" x="19112" y="30562" width="2377" height="2377"/>
    <path fill="rgb(255,255,255)" stroke="none" d="M 21488,31750 L 21488,31720 21487,31691 21485,31662 21483,31633 21479,31604 21475,31575 21471,31547 21466,31518 21460,31489 21453,31461 21445,31433 21437,31405 21428,31377 21419,31349 21409,31322 21398,31295 21386,31268 21374,31242 21361,31216 21348,31190 21334,31164 21319,31139 21304,31114 21288,31090 21272,31066 21255,31042 21237,31019 21219,30996 21200,30974 21181,30952 21161,30931 21140,30910 21120,30889 21098,30870 21076,30850 21054,30832 21031,30813 21008,30796 20984,30779 20960,30762 20936,30746 20911,30731 20886,30716 20860,30702 20835,30689 20808,30676 20782,30664 20755,30652 20728,30642 20701,30631 20673,30622 20645,30613 20617,30605 20589,30598 20561,30591 20532,30585 20504,30580 20475,30575 20446,30571 20417,30568 20388,30565 20359,30563 20330,30562 20301,30562 20271,30562 20242,30563 20213,30565 20183,30568 20154,30571 20125,30575 20096,30580 20068,30585 20039,30591 20011,30598 19983,30605 19955,30613 19927,30622 19899,30631 19872,30642 19845,30652 19818,30664 19792,30676 19765,30689 19740,30702 19714,30716 19689,30731 19664,30746 19640,30762 19616,30779 19592,30796 19569,30813 19546,30832 19524,30850 19502,30870 19480,30889 19460,30910 19439,30931 19419,30952 19400,30974 19381,30996 19363,31019 19345,31042 19328,31066 19312,31090 19296,31114 19281,31139 19266,31164 19252,31190 19239,31216 19226,31242 19214,31268 19202,31295 19191,31322 19181,31349 19172,31377 19163,31405 19155,31433 19147,31461 19140,31489 19135,31518 19129,31547 19125,31575 19121,31604 19117,31633 19115,31662 19113,31691 19112,31720 19112,31750 19112,31779 19113,31808 19115,31837 19117,31866 19121,31895 19125,31924 19129,31953 19135,31981 19140,32010 19147,32038 19155,32067 19163,32095 19172,32123 19181,32151 19191,32178 19202,32205 19214,32232 19226,32258 19239,32284 19252,32310 19266,32336 19281,32361 19296,32386 19312,32410 19328,32434 19345,32458 19363,32481 19381,32504 19400,32526 19419,32548 19439,32569 19460,32590 19480,32611 19502,32630 19524,32650 19546,32668 19569,32687 19592,32704 19616,32721 19640,32738 19664,32754 19689,32769 19714,32784 19740,32798 19765,32811 19792,32824 19818,32836 19845,32848 19872,32858 19899,32869 19927,32878 19955,32887 19983,32895 20011,32902 20039,32909 20068,32915 20096,32921 20125,32925 20154,32929 20183,32932 20213,32935 20242,32937 20271,32938 20300,32938 20330,32938 20359,32937 20388,32935 20417,32932 20446,32929 20475,32925 20504,32921 20532,32915 20561,32909 20589,32902 20617,32895 20645,32887 20673,32878 20701,32869 20728,32858 20755,32848 20782,32836 20808,32824 20835,32811 20860,32798 20886,32784 20911,32769 20936,32754 20960,32738 20984,32721 21008,32704 21031,32687 21054,32668 21076,32650 21098,32630 21120,32611 21140,32590 21161,32569 21181,32548 21200,32526 21219,32504 21237,32481 21255,32458 21272,32434 21288,32410 21304,32386 21319,32361 21334,32336 21348,32310 21361,32284 21374,32258 21386,32232 21398,32205 21409,32178 21419,32151 21428,32123 21437,32095 21445,32067 21453,32038 21460,32010 21466,31981 21471,31953 21475,31924 21479,31895 21483,31866 21485,31837 21487,31808 21488,31779 21488,31750 Z"/>
   </g>
  </g>
  <g class="com.sun.star.drawing.PolyPolygonShape">
   <g id="id5">
    <rect class="BoundingBox" stroke="none" fill="none" x="19188" y="30638" width="2225" height="2225"/>
    <path fill="rgb(0,0,255)" stroke="none" d="M 21412,31750 L 21412,31722 21411,31695 21409,31668 21407,31641 21404,31614 21400,31587 21396,31560 21391,31533 21385,31506 21379,31480 21372,31453 21364,31427 21356,31401 21347,31375 21338,31350 21327,31324 21317,31299 21305,31274 21293,31250 21281,31226 21268,31202 21254,31178 21239,31155 21225,31132 21209,31110 21193,31088 21177,31066 21160,31045 21142,31024 21124,31003 21104,30983 21085,30964 21066,30945 21046,30926 21025,30908 21004,30891 20983,30874 20962,30857 20939,30841 20917,30826 20894,30811 20871,30796 20847,30783 20823,30770 20799,30757 20775,30745 20750,30734 20725,30723 20700,30713 20674,30703 20648,30695 20622,30686 20596,30679 20570,30672 20543,30666 20516,30660 20490,30655 20463,30650 20436,30647 20408,30644 20381,30641 20354,30640 20327,30639 20299,30638 20272,30639 20245,30640 20218,30641 20191,30644 20164,30647 20136,30650 20109,30655 20083,30660 20056,30666 20029,30672 20003,30679 19977,30686 19951,30695 19925,30703 19899,30713 19874,30723 19849,30734 19824,30745 19800,30757 19776,30770 19752,30783 19728,30796 19705,30811 19682,30826 19660,30841 19637,30857 19616,30874 19595,30891 19574,30908 19553,30926 19533,30945 19514,30964 19495,30983 19476,31003 19458,31024 19440,31045 19423,31066 19407,31088 19391,31110 19375,31132 19361,31155 19346,31178 19332,31202 19319,31226 19307,31250 19295,31274 19283,31299 19273,31324 19263,31350 19253,31375 19244,31401 19236,31427 19228,31453 19221,31480 19215,31506 19209,31533 19204,31560 19200,31587 19196,31614 19193,31641 19191,31668 19189,31695 19188,31722 19188,31750 19188,31777 19189,31804 19191,31831 19193,31858 19196,31885 19200,31913 19204,31940 19209,31966 19215,31993 19221,32020 19228,32046 19236,32072 19244,32098 19253,32124 19263,32149 19273,32175 19283,32200 19295,32226 19307,32250 19319,32274 19332,32298 19346,32322 19361,32345 19375,32368 19391,32390 19407,32412 19423,32434 19440,32455 19458,32476 19476,32497 19495,32517 19514,32536 19533,32555 19553,32574 19574,32592 19595,32609 19616,32626 19637,32643 19660,32659 19682,32674 19705,32689 19728,32704 19752,32717 19776,32730 19800,32743 19824,32755 19849,32766 19874,32777 19899,32787 19925,32797 19951,32806 19977,32814 20003,32821 20029,32828 20056,32835 20083,32840 20109,32845 20136,32850 20164,32853 20191,32856 20218,32859 20245,32860 20272,32861 20299,32862 20327,32861 20354,32860 20381,32859 20408,32856 20436,32853 20463,32850 20490,32845 20516,32840 20543,32835 20570,32828 20596,32821 20622,32814 20648,32806 20674,32797 20700,32787 20725,32777 20750,32766 20775,32755 20799,32743 20823,32730 20847,32717 20871,32704 20894,32689 20917,32674 20939,32659 20962,32643 20983,32626 21004,32609 21025,32592 21046,32574 21066,32555 21085,32536 21104,32517 21124,32497 21142,32476 21160,32455 21177,32434 21193,32412 21209,32390 21225,32368 21239,32345 21254,32322 21268,32298 21281,32274 21293,32250 21305,32226 21317,32200 21327,32175 21338,32149 21347,32124 21356,32098 21364,32072 21372,32046 21379,32020 21385,31993 21391,31966 21396,31940 21400,31913 21404,31885 21407,31858 21409,31831 21411,31804 21412,31777 21412,31750 Z"/>
   </g>
  </g>
  <g class="com.sun.star.drawing.PolyPolygonShape">
   <g id="id6">
    <rect class="BoundingBox" stroke="none" fill="none" x="19341" y="30845" width="1477" height="1737"/>
    <path fill="rgb(255,255,255)" stroke="none" d="M 20498,32581 L 20498,31841 20498,31832 20497,31822 20496,31812 20494,31803 20492,31793 20489,31784 20486,31775 20483,31766 20479,31757 20475,31748 20470,31740 20465,31732 20459,31724 20453,31716 20447,31709 20440,31702 20433,31695 20426,31689 20418,31683 20410,31677 20402,31672 20393,31667 20385,31663 20376,31659 20367,31656 20358,31653 20348,31650 20339,31648 20329,31646 20320,31645 20310,31644 20300,31644 19981,31644 19981,32124 19341,31484 19981,30845 19981,31325 20300,31325 20313,31325 20326,31325 20338,31326 20351,31327 20364,31328 20376,31330 20389,31332 20401,31334 20414,31337 20426,31340 20438,31343 20451,31347 20463,31351 20475,31355 20486,31359 20498,31364 20510,31369 20521,31374 20533,31380 20544,31386 20555,31392 20566,31398 20577,31405 20588,31412 20598,31419 20608,31426 20619,31434 20628,31442 20638,31450 20648,31458 20657,31467 20666,31476 20675,31485 20683,31494 20692,31504 20700,31513 20708,31523 20716,31533 20723,31544 20730,31554 20737,31565 20744,31576 20750,31587 20756,31598 20762,31609 20768,31620 20773,31632 20778,31643 20783,31655 20787,31667 20791,31679 20795,31691 20799,31703 20802,31716 20805,31728 20807,31740 20810,31753 20812,31765 20813,31778 20815,31791 20816,31803 20817,31816 20817,31829 20817,31841 20817,32581 20498,32581 Z"/>
   </g>
  </g>
 </g>
</svg>