<?xml version="1.0" encoding="UTF-8"?>
<!DOCTYPE svg PUBLIC "-//W3C//DTD SVG 1.1//EN" "http://www.w3.org/Graphics/SVG/1.1/DTD/svg11.dtd">
<svg version="1.2" width="25.03mm" height="25.02mm" viewBox="22049 30500 2503 2502" preserveAspectRatio="xMidYMid" fill-rule="evenodd" stroke-width="28.222" stroke-linejoin="round" xmlns="http://www.w3.org/2000/svg" xmlns:ooo="http://xml.openoffice.org/svg/export" xmlns:xlink="http://www.w3.org/1999/xlink" xmlns:presentation="http://sun.com/xmlns/staroffice/presentation" xmlns:smil="http://www.w3.org/2001/SMIL20/" xmlns:anim="urn:oasis:names:tc:opendocument:xmlns:animation:1.0" xml:space="preserve">
 <defs class="EmbeddedBulletChars">
  <g id="bullet-char-template-57356" transform="scale(0.00048828125,-0.00048828125)">
   <path d="M 580,1141 L 1163,571 580,0 -4,571 580,1141 Z"/>
  </g>
  <g id="bullet-char-template-57354" transform="scale(0.00048828125,-0.00048828125)">
   <path d="M 8,1128 L 1137,1128 1137,0 8,0 8,1128 Z"/>
  </g>
  <g id="bullet-char-template-10146" transform="scale(0.00048828125,-0.00048828125)">
   <path d="M 174,0 L 602,739 174,1481 1456,739 174,0 Z M 1358,739 L 309,1346 659,739 1358,739 Z"/>
  </g>
  <g id="bullet-char-template-10132" transform="scale(0.00048828125,-0.00048828125)">
   <path d="M 2015,739 L 1276,0 717,0 1260,543 174,543 174,936 1260,936 717,1481 1274,1481 2015,739 Z"/>
  </g>
  <g id="bullet-char-template-10007" transform="scale(0.00048828125,-0.00048828125)">
   <path d="M 0,-2 C -7,14 -16,27 -25,37 L 356,567 C 262,823 215,952 215,954 215,979 228,992 255,992 264,992 276,990 289,987 310,991 331,999 354,1012 L 381,999 492,748 772,1049 836,1024 860,1049 C 881,1039 901,1025 922,1006 886,937 835,863 770,784 769,783 710,716 594,584 L 774,223 C 774,196 753,168 711,139 L 727,119 C 717,90 699,76 672,76 641,76 570,178 457,381 L 164,-76 C 142,-110 111,-127 72,-127 30,-127 9,-110 8,-76 1,-67 -2,-52 -2,-32 -2,-23 -1,-13 0,-2 Z"/>
  </g>
  <g id="bullet-char-template-10004" transform="scale(0.00048828125,-0.00048828125)">
   <path d="M 285,-33 C 182,-33 111,30 74,156 52,228 41,333 41,471 41,549 55,616 82,672 116,743 169,778 240,778 293,778 328,747 346,684 L 369,508 C 377,444 397,411 428,410 L 1163,1116 C 1174,1127 1196,1133 1229,1133 1271,1133 1292,1118 1292,1087 L 1292,965 C 1292,929 1282,901 1262,881 L 442,47 C 390,-6 338,-33 285,-33 Z"/>
  </g>
  <g id="bullet-char-template-9679" transform="scale(0.00048828125,-0.00048828125)">
   <path d="M 813,0 C 632,0 489,54 383,161 276,268 223,411 223,592 223,773 276,916 383,1023 489,1130 632,1184 813,1184 992,1184 1136,1130 1245,1023 1353,916 1407,772 1407,592 1407,412 1353,268 1245,161 1136,54 992,0 813,0 Z"/>
  </g>
  <g id="bullet-char-template-8226" transform="scale(0.00048828125,-0.00048828125)">
   <path d="M 346,457 C 273,457 209,483 155,535 101,586 74,649 74,723 74,796 101,859 155,911 209,963 273,989 346,989 419,989 480,963 531,910 582,859 608,796 608,723 608,648 583,586 532,535 482,483 420,457 346,457 Z"/>
  </g>
  <g id="bullet-char-template-8211" transform="scale(0.00048828125,-0.00048828125)">
   <path d="M -4,459 L 1135,459 1135,606 -4,606 -4,459 Z"/>
  </g>
  <g id="bullet-char-template-61548" transform="scale(0.00048828125,-0.00048828125)">
   <path d="M 173,740 C 173,903 231,1043 346,1159 462,1274 601,1332 765,1332 928,1332 1067,1274 1183,1159 1299,1043 1357,903 1357,740 1357,577 1299,437 1183,322 1067,206 928,148 765,148 601,148 462,206 346,322 231,437 173,577 173,740 Z"/>
  </g>
 </defs>
 <g class="Page">
  <g class="com.sun.star.drawing.PolyPolygonShape">
   <g id="id3">
    <rect class="BoundingBox" stroke="none" fill="none" x="22049" y="30500" width="2503" height="2502"/>
    <path fill="rgb(0,0,255)" stroke="none" d="M 24551,31751 L 24551,31720 24549,31689 24548,31659 24545,31628 24541,31597 24537,31567 24532,31537 24527,31507 24520,31477 24513,31447 24506,31417 24497,31388 24488,31358 24478,31329 24467,31301 24456,31272 24444,31244 24431,31215 24417,31187 24403,31160 24388,31133 24373,31107 24357,31081 24340,31055 24323,31030 24305,31005 24286,30980 24267,30956 24247,30933 24227,30910 24206,30888 24185,30866 24163,30844 24140,30823 24117,30803 24094,30783 24070,30764 24045,30745 24020,30728 23995,30710 23969,30693 23943,30677 23917,30662 23890,30647 23863,30633 23835,30620 23807,30607 23779,30595 23749,30583 23721,30573 23692,30563 23662,30553 23633,30545 23603,30537 23573,30530 23543,30523 23513,30518 23483,30513 23453,30509 23422,30505 23392,30503 23361,30501 23330,30500 23300,30500 23269,30500 23238,30501 23207,30503 23177,30505 23146,30509 23116,30513 23086,30518 23056,30523 23026,30530 22996,30537 22966,30545 22937,30553 22907,30563 22878,30573 22850,30583 22821,30595 22793,30607 22765,30620 22737,30633 22710,30647 22683,30662 22657,30677 22631,30693 22605,30710 22580,30728 22555,30745 22530,30764 22506,30783 22483,30803 22460,30823 22437,30844 22415,30866 22394,30888 22373,30910 22353,30933 22333,30956 22314,30980 22295,31005 22277,31030 22260,31055 22243,31081 22227,31107 22212,31133 22197,31160 22183,31187 22169,31215 22156,31244 22144,31272 22133,31301 22122,31329 22112,31358 22103,31388 22094,31417 22087,31447 22080,31477 22073,31507 22068,31537 22063,31567 22059,31597 22055,31628 22052,31659 22051,31689 22049,31720 22049,31751 22049,31781 22051,31812 22052,31843 22055,31873 22059,31904 22063,31934 22068,31964 22073,31994 22080,32024 22087,32054 22094,32084 22103,32113 22112,32143 22122,32172 22133,32200 22144,32229 22156,32257 22169,32285 22183,32313 22197,32340 22212,32367 22227,32393 22243,32419 22260,32445 22277,32470 22295,32495 22314,32520 22333,32544 22353,32567 22373,32590 22394,32612 22415,32634 22437,32656 22460,32677 22483,32697 22506,32717 22530,32736 22555,32755 22580,32772 22605,32790 22631,32807 22657,32823 22683,32838 22710,32853 22737,32867 22765,32881 22793,32893 22821,32905 22850,32917 22878,32927 22907,32937 22937,32947 22966,32955 22996,32963 23026,32970 23056,32977 23086,32982 23116,32987 23146,32991 23177,32995 23207,32997 23238,32999 23269,33000 23299,33001 23330,33000 23361,32999 23392,32997 23422,32995 23453,32991 23483,32987 23513,32982 23543,32977 23573,32970 23603,32963 23633,32955 23662,32947 23692,32937 23721,32927 23749,32917 23779,32905 23807,32893 23835,32881 23863,32867 23890,32853 23917,32838 23943,32823 23969,32807 23995,32790 24020,32772 24045,32755 24070,32736 24094,32717 24117,32697 24140,32677 24163,32656 24185,32634 24206,32612 24227,32590 24247,32567 24267,32544 24286,32520 24305,32495 24323,32470 24340,32445 24357,32419 24373,32393 24388,32367 24403,32340 24417,32313 24431,32285 24444,32257 24456,32229 24467,32200 24478,32172 24488,32143 24497,32113 24506,32084 24513,32054 24520,32024 24527,31994 24532,31964 24537,31934 24541,31904 24545,31873 24548,31843 24549,31812 24551,31781 24551,31751 Z"/>
   </g>
  </g>
  <g class="com.sun.star.drawing.PolyPolygonShape">
   <g id="id4">
    <rect class="BoundingBox" stroke="none" fill="none" x="22112" y="30562" width="2377" height="2377"/>
    <path fill="rgb(255,255,255)" stroke="none" d="M 24488,31750 L 24488,31720 24487,31691 24485,31662 24483,31633 24479,31604 24475,31575 24471,31547 24466,31518 24460,31489 24453,31461 24445,31433 24437,31405 24428,31377 24419,31349 24409,31322 24398,31295 24386,31268 24374,31242 24361,31216 24348,31190 24334,31164 24319,31139 24304,31114 24288,31090 24272,31066 24255,31042 24237,31019 24219,30996 24200,30974 24181,30952 24161,30931 24140,30910 24120,30889 24098,30870 24076,30850 24054,30832 24031,30813 24008,30796 23984,30779 23960,30762 23936,30746 23911,30731 23886,30716 23860,30702 23835,30689 23808,30676 23782,30664 23755,30652 23728,30642 23701,30631 23673,30622 23645,30613 23617,30605 23589,30598 23561,30591 23532,30585 23504,30580 23475,30575 23446,30571 23417,30568 23388,30565 23359,30563 23330,30562 23301,30562 23271,30562 23242,30563 23213,30565 23184,30568 23155,30571 23126,30575 23097,30580 23069,30585 23040,30591 23012,30598 22984,30605 22956,30613 22928,30622 22900,30631 22873,30642 22846,30652 22819,30664 22793,30676 22766,30689 22741,30702 22715,30716 22690,30731 22665,30746 22641,30762 22617,30779 22593,30796 22570,30813 22546,30832 22524,30850 22502,30870 22480,30889 22460,30910 22439,30931 22419,30952 22400,30974 22381,30996 22363,31019 22345,31042 22328,31066 22312,31090 22296,31114 22281,31139 22266,31164 22252,31190 22238,31216 22226,31242 22214,31268 22202,31295 22191,31322 22181,31349 22172,31377 22163,31405 22155,31433 22147,31461 22140,31489 22134,31518 22129,31547 22125,31575 22121,31604 22117,31633 22115,31662 22113,31691 22112,31720 22112,31750 22112,31779 22113,31808 22115,31837 22117,31866 22121,31895 22125,31924 22129,31953 22134,31981 22140,32010 22147,32038 22155,32067 22163,32095 22172,32123 22181,32151 22191,32178 22202,32205 22214,32232 22226,32258 22238,32284 22252,32310 22266,32336 22281,32361 22296,32386 22312,32410 22328,32434 22345,32458 22363,32481 22381,32504 22400,32526 22419,32548 22439,32569 22460,32590 22480,32611 22502,32630 22524,32650 22546,32668 22570,32687 22593,32704 22617,32721 22641,32738 22665,32754 22690,32769 22715,32784 22741,32798 22766,32811 22793,32824 22819,32836 22846,32848 22873,32858 22900,32869 22928,32878 22956,32887 22984,32895 23012,32902 23040,32909 23069,32915 23097,32921 23126,32925 23155,32929 23184,32932 23213,32935 23242,32937 23271,32938 23300,32938 23330,32938 23359,32937 23388,32935 23417,32932 23446,32929 23475,32925 23504,32921 23532,32915 23561,32909 23589,32902 23617,32895 23645,32887 23673,32878 23701,32869 23728,32858 23755,32848 23782,32836 23808,32824 23835,32811 23860,32798 23886,32784 23911,32769 23936,32754 23960,32738 23984,32721 24008,32704 24031,32687 24054,32668 24076,32650 24098,32630 24120,32611 24140,32590 24161,32569 24181,32548 24200,32526 24219,32504 24237,32481 24255,32458 24272,32434 24288,32410 24304,32386 24319,32361 24334,32336 24348,32310 24361,32284 24374,32258 24386,32232 24398,32205 24409,32178 24419,32151 24428,32123 24437,32095 24445,32067 24453,32038 24460,32010 24466,31981 24471,31953 24475,31924 24479,31895 24483,31866 24485,31837 24487,31808 24488,31779 24488,31750 Z"/>
   </g>
  </g>
  <g class="com.sun.star.drawing.PolyPolygonShape">
   <g id="id5">
    <rect class="BoundingBox" stroke="none" fill="none" x="22188" y="30638" width="2225" height="2225"/>
    <path fill="rgb(0,0,255)" stroke="none" d="M 24412,31750 L 24412,31722 24411,31695 24409,31668 24407,31641 24404,31614 24400,31587 24396,31560 24391,31533 24385,31506 24379,31480 24372,31453 24364,31427 24356,31401 24347,31375 24338,31350 24327,31324 24317,31299 24305,31274 24293,31250 24281,31226 24268,31202 24254,31178 24239,31155 24225,31132 24209,31110 24193,31088 24177,31066 24160,31045 24142,31024 24124,31003 24105,30983 24086,30964 24067,30945 24047,30926 24026,30908 24005,30891 23984,30874 23963,30857 23940,30841 23918,30826 23895,30811 23872,30796 23848,30783 23824,30770 23800,30757 23776,30745 23751,30734 23726,30723 23701,30713 23675,30703 23649,30695 23623,30686 23597,30679 23571,30672 23544,30666 23517,30660 23491,30655 23464,30650 23437,30647 23409,30644 23382,30641 23355,30640 23327,30639 23299,30638 23272,30639 23245,30640 23218,30641 23191,30644 23164,30647 23136,30650 23109,30655 23083,30660 23056,30666 23029,30672 23003,30679 22977,30686 22951,30695 22925,30703 22899,30713 22874,30723 22849,30734 22824,30745 22800,30757 22776,30770 22752,30783 22728,30796 22705,30811 22682,30826 22660,30841 22637,30857 22616,30874 22594,30891 22574,30908 22553,30926 22533,30945 22514,30964 22495,30983 22476,31003 22458,31024 22440,31045 22423,31066 22407,31088 22391,31110 22375,31132 22361,31155 22346,31178 22332,31202 22319,31226 22307,31250 22295,31274 22283,31299 22273,31324 22262,31350 22253,31375 22244,31401 22236,31427 22228,31453 22221,31480 22215,31506 22209,31533 22204,31560 22200,31587 22196,31614 22193,31641 22191,31668 22189,31695 22188,31722 22188,31750 22188,31777 22189,31804 22191,31831 22193,31858 22196,31885 22200,31913 22204,31940 22209,31966 22215,31993 22221,32020 22228,32046 22236,32072 22244,32098 22253,32124 22262,32149 22273,32175 22283,32200 22295,32226 22307,32250 22319,32274 22332,32298 22346,32322 22361,32345 22375,32368 22391,32390 22407,32412 22423,32434 22440,32455 22458,32476 22476,32497 22495,32517 22514,32536 22533,32555 22553,32574 22574,32592 22594,32609 22616,32626 22637,32643 22660,32659 22682,32674 22705,32689 22728,32704 22752,32717 22776,32730 22800,32743 22824,32755 22849,32766 22874,32777 22899,32787 22925,32797 22951,32806 22977,32814 23003,32821 23029,32828 23056,32835 23083,32840 23109,32845 23136,32850 23164,32853 23191,32856 23218,32859 23245,32860 23272,32861 23299,32862 23327,32861 23355,32860 23382,32859 23409,32856 23437,32853 23464,32850 23491,32845 23517,32840 23544,32835 23571,32828 23597,32821 23623,32814 23649,32806 23675,32797 23701,32787 23726,32777 23751,32766 23776,32755 23800,32743 23824,32730 23848,32717 23872,32704 23895,32689 23918,32674 23940,32659 23963,32643 23984,32626 24005,32609 24026,32592 24047,32574 24067,32555 24086,32536 24105,32517 24124,32497 24142,32476 24160,32455 24177,32434 24193,32412 24209,32390 24225,32368 24239,32345 24254,32322 24268,32298 24281,32274 24293,32250 24305,32226 24317,32200 24327,32175 24338,32149 24347,32124 24356,32098 24364,32072 24372,32046 24379,32020 24385,31993 24391,31966 24396,31940 24400,31913 24404,31885 24407,31858 24409,31831 24411,31804 24412,31777 24412,31750 Z"/>
   </g>
  </g>
  <g class="com.sun.star.drawing.PolyPolygonShape">
   <g id="id6">
    <rect class="BoundingBox" stroke="none" fill="none" x="22783" y="30845" width="1477" height="1737"/>
    <path fill="rgb(255,255,255)" stroke="none" d="M 23103,32581 L 23103,31841 23103,31832 23104,31822 23105,31812 23107,31803 23109,31793 23112,31784 23115,31775 23118,31766 23122,31757 23126,31748 23131,31740 23136,31732 23142,31724 23148,31716 23154,31709 23161,31702 23168,31695 23175,31689 23183,31683 23191,31677 23199,31672 23208,31667 23216,31663 23225,31659 23234,31656 23243,31653 23253,31650 23262,31648 23272,31646 23281,31645 23291,31644 23300,31644 23620,31644 23620,32124 24259,31484 23620,30845 23620,31325 23300,31325 23288,31325 23275,31325 23263,31326 23250,31327 23237,31328 23225,31330 23212,31332 23200,31334 23187,31337 23175,31340 23163,31343 23150,31347 23138,31351 23126,31355 23115,31359 23103,31364 23091,31369 23080,31374 23068,31380 23057,31386 23046,31392 23035,31398 23024,31405 23013,31412 23003,31419 22993,31426 22982,31434 22973,31442 22963,31450 22953,31458 22944,31467 22935,31476 22926,31485 22918,31494 22909,31504 22901,31513 22893,31523 22885,31533 22878,31544 22871,31554 22864,31565 22856,31576 22850,31587 22844,31598 22838,31609 22832,31620 22827,31632 22822,31643 22817,31655 22813,31667 22809,31679 22805,31691 22801,31703 22798,31716 22795,31728 22793,31740 22790,31753 22788,31765 22787,31778 22785,31791 22784,31803 22783,31816 22783,31829 22783,31841 22783,32581 23103,32581 Z"/>
   </g>
  </g>
 </g>
</svg>