<?xml version="1.0" encoding="UTF-8"?>
<!DOCTYPE svg PUBLIC "-//W3C//DTD SVG 1.1//EN" "http://www.w3.org/Graphics/SVG/1.1/DTD/svg11.dtd">
<svg version="1.2" width="25.03mm" height="25.02mm" viewBox="25049 30500 2503 2502" preserveAspectRatio="xMidYMid" fill-rule="evenodd" stroke-width="28.222" stroke-linejoin="round" xmlns="http://www.w3.org/2000/svg" xmlns:ooo="http://xml.openoffice.org/svg/export" xmlns:xlink="http://www.w3.org/1999/xlink" xmlns:presentation="http://sun.com/xmlns/staroffice/presentation" xmlns:smil="http://www.w3.org/2001/SMIL20/" xmlns:anim="urn:oasis:names:tc:opendocument:xmlns:animation:1.0" xml:space="preserve">
 <defs class="EmbeddedBulletChars">
  <g id="bullet-char-template-57356" transform="scale(0.00048828125,-0.00048828125)">
   <path d="M 580,1141 L 1163,571 580,0 -4,571 580,1141 Z"/>
  </g>
  <g id="bullet-char-template-57354" transform="scale(0.00048828125,-0.00048828125)">
   <path d="M 8,1128 L 1137,1128 1137,0 8,0 8,1128 Z"/>
  </g>
  <g id="bullet-char-template-10146" transform="scale(0.00048828125,-0.00048828125)">
   <path d="M 174,0 L 602,739 174,1481 1456,739 174,0 Z M 1358,739 L 309,1346 659,739 1358,739 Z"/>
  </g>
  <g id="bullet-char-template-10132" transform="scale(0.00048828125,-0.00048828125)">
   <path d="M 2015,739 L 1276,0 717,0 1260,543 174,543 174,936 1260,936 717,1481 1274,1481 2015,739 Z"/>
  </g>
  <g id="bullet-char-template-10007" transform="scale(0.00048828125,-0.00048828125)">
   <path d="M 0,-2 C -7,14 -16,27 -25,37 L 356,567 C 262,823 215,952 215,954 215,979 228,992 255,992 264,992 276,990 289,987 310,991 331,999 354,1012 L 381,999 492,748 772,1049 836,1024 860,1049 C 881,1039 901,1025 922,1006 886,937 835,863 770,784 769,783 710,716 594,584 L 774,223 C 774,196 753,168 711,139 L 727,119 C 717,90 699,76 672,76 641,76 570,178 457,381 L 164,-76 C 142,-110 111,-127 72,-127 30,-127 9,-110 8,-76 1,-67 -2,-52 -2,-32 -2,-23 -1,-13 0,-2 Z"/>
  </g>
  <g id="bullet-char-template-10004" transform="scale(0.00048828125,-0.00048828125)">
   <path d="M 285,-33 C 182,-33 111,30 74,156 52,228 41,333 41,471 41,549 55,616 82,672 116,743 169,778 240,778 293,778 328,747 346,684 L 369,508 C 377,444 397,411 428,410 L 1163,1116 C 1174,1127 1196,1133 1229,1133 1271,1133 1292,1118 1292,1087 L 1292,965 C 1292,929 1282,901 1262,881 L 442,47 C 390,-6 338,-33 285,-33 Z"/>
  </g>
  <g id="bullet-char-template-9679" transform="scale(0.00048828125,-0.00048828125)">
   <path d="M 813,0 C 632,0 489,54 383,161 276,268 223,411 223,592 223,773 276,916 383,1023 489,1130 632,1184 813,1184 992,1184 1136,1130 1245,1023 1353,916 1407,772 1407,592 1407,412 1353,268 1245,161 1136,54 992,0 813,0 Z"/>
  </g>
  <g id="bullet-char-template-8226" transform="scale(0.00048828125,-0.00048828125)">
   <path d="M 346,457 C 273,457 209,483 155,535 101,586 74,649 74,723 74,796 101,859 155,911 209,963 273,989 346,989 419,989 480,963 531,910 582,859 608,796 608,723 608,648 583,586 532,535 482,483 420,457 346,457 Z"/>
  </g>
  <g id="bullet-char-template-8211" transform="scale(0.00048828125,-0.00048828125)">
   <path d="M -4,459 L 1135,459 1135,606 -4,606 -4,459 Z"/>
  </g>
  <g id="bullet-char-template-61548" transform="scale(0.00048828125,-0.00048828125)">
   <path d="M 173,740 C 173,903 231,1043 346,1159 462,1274 601,1332 765,1332 928,1332 1067,1274 1183,1159 1299,1043 1357,903 1357,740 1357,577 1299,437 1183,322 1067,206 928,148 765,148 601,148 462,206 346,322 231,437 173,577 173,740 Z"/>
  </g>
 </defs>
 <g class="Page">
  <g class="com.sun.star.drawing.PolyPolygonShape">
   <g id="id3">
    <rect class="BoundingBox" stroke="none" fill="none" x="25049" y="30500" width="2503" height="2502"/>
    <path fill="rgb(0,0,255)" stroke="none" d="M 27551,31751 L 27551,31720 27549,31689 27548,31659 27545,31628 27541,31597 27537,31567 27532,31537 27527,31507 27521,31477 27513,31447 27506,31417 27497,31388 27488,31358 27478,31329 27467,31301 27456,31272 27444,31244 27431,31215 27417,31187 27403,31160 27388,31133 27373,31107 27357,31081 27340,31055 27323,31030 27305,31005 27286,30980 27267,30956 27247,30933 27227,30910 27206,30888 27185,30866 27163,30844 27140,30823 27117,30803 27094,30783 27070,30764 27045,30745 27020,30728 26995,30710 26970,30693 26943,30677 26917,30662 26890,30647 26863,30633 26835,30620 26807,30607 26779,30595 26750,30583 26722,30573 26693,30563 26663,30553 26634,30545 26604,30537 26574,30530 26544,30523 26514,30518 26484,30513 26454,30509 26423,30505 26393,30503 26362,30501 26331,30500 26301,30500 26270,30500 26238,30501 26207,30503 26177,30505 26146,30509 26116,30513 26086,30518 26056,30523 26026,30530 25996,30537 25966,30545 25937,30553 25907,30563 25878,30573 25850,30583 25821,30595 25793,30607 25765,30620 25737,30633 25710,30647 25683,30662 25657,30677 25631,30693 25605,30710 25580,30728 25555,30745 25530,30764 25506,30783 25483,30803 25460,30823 25437,30844 25415,30866 25394,30888 25373,30910 25353,30933 25333,30956 25314,30980 25295,31005 25277,31030 25260,31055 25243,31081 25227,31107 25212,31133 25197,31160 25183,31187 25169,31215 25156,31244 25144,31272 25133,31301 25122,31329 25112,31358 25103,31388 25094,31417 25087,31447 25080,31477 25073,31507 25068,31537 25063,31567 25059,31597 25055,31628 25052,31659 25051,31689 25049,31720 25049,31751 25049,31781 25051,31812 25052,31843 25055,31873 25059,31904 25063,31934 25068,31964 25073,31994 25080,32024 25087,32054 25094,32084 25103,32113 25112,32143 25122,32172 25133,32200 25144,32229 25156,32257 25169,32285 25183,32313 25197,32340 25212,32367 25227,32393 25243,32419 25260,32445 25277,32470 25295,32495 25314,32520 25333,32544 25353,32567 25373,32590 25394,32612 25415,32634 25437,32656 25460,32677 25483,32697 25506,32717 25530,32736 25555,32755 25580,32772 25605,32790 25631,32807 25657,32823 25683,32838 25710,32853 25737,32867 25765,32881 25793,32893 25821,32905 25850,32917 25878,32927 25907,32937 25937,32947 25966,32955 25996,32963 26026,32970 26056,32977 26086,32982 26116,32987 26146,32991 26177,32995 26207,32997 26238,32999 26270,33000 26300,33001 26331,33000 26362,32999 26393,32997 26423,32995 26454,32991 26484,32987 26514,32982 26544,32977 26574,32970 26604,32963 26634,32955 26663,32947 26693,32937 26722,32927 26750,32917 26779,32905 26807,32893 26835,32881 26863,32867 26890,32853 26917,32838 26943,32823 26970,32807 26995,32790 27020,32772 27045,32755 27070,32736 27094,32717 27117,32697 27140,32677 27163,32656 27185,32634 27206,32612 27227,32590 27247,32567 27267,32544 27286,32520 27305,32495 27323,32470 27340,32445 27357,32419 27373,32393 27388,32367 27403,32340 27417,32313 27431,32285 27444,32257 27456,32229 27467,32200 27478,32172 27488,32143 27497,32113 27506,32084 27513,32054 27521,32024 27527,31994 27532,31964 27537,31934 27541,31904 27545,31873 27548,31843 27549,31812 27551,31781 27551,31751 Z"/>
   </g>
  </g>
  <g class="com.sun.star.drawing.PolyPolygonShape">
   <g id="id4">
    <rect class="BoundingBox" stroke="none" fill="none" x="25112" y="30562" width="2377" height="2377"/>
    <path fill="rgb(255,255,255)" stroke="none" d="M 27488,31750 L 27488,31720 27487,31691 27485,31662 27483,31633 27479,31604 27475,31575 27471,31547 27466,31518 27460,31489 27453,31461 27445,31433 27437,31405 27428,31377 27419,31349 27409,31322 27398,31295 27386,31268 27374,31242 27361,31216 27348,31190 27334,31164 27319,31139 27303,31114 27287,31090 27271,31066 27254,31042 27236,31019 27218,30996 27199,30974 27180,30952 27160,30931 27139,30910 27119,30889 27097,30870 27075,30850 27053,30832 27030,30813 27007,30796 26983,30779 26959,30762 26935,30746 26910,30731 26885,30716 26859,30702 26834,30689 26807,30676 26781,30664 26754,30652 26727,30642 26700,30631 26672,30622 26644,30613 26616,30605 26588,30598 26560,30591 26531,30585 26503,30580 26474,30575 26445,30571 26416,30568 26387,30565 26358,30563 26329,30562 26300,30562 26270,30562 26241,30563 26212,30565 26183,30568 26154,30571 26125,30575 26096,30580 26068,30585 26039,30591 26011,30598 25983,30605 25955,30613 25927,30622 25899,30631 25872,30642 25845,30652 25818,30664 25792,30676 25765,30689 25740,30702 25714,30716 25689,30731 25664,30746 25640,30762 25616,30779 25592,30796 25569,30813 25546,30832 25524,30850 25502,30870 25480,30889 25460,30910 25439,30931 25419,30952 25400,30974 25381,30996 25363,31019 25345,31042 25328,31066 25312,31090 25296,31114 25281,31139 25266,31164 25252,31190 25238,31216 25226,31242 25214,31268 25202,31295 25191,31322 25181,31349 25172,31377 25163,31405 25155,31433 25147,31461 25140,31489 25134,31518 25129,31547 25125,31575 25121,31604 25117,31633 25115,31662 25113,31691 25112,31720 25112,31750 25112,31779 25113,31808 25115,31837 25117,31866 25121,31895 25125,31924 25129,31953 25134,31981 25140,32010 25147,32038 25155,32067 25163,32095 25172,32123 25181,32151 25191,32178 25202,32205 25214,32232 25226,32258 25238,32284 25252,32310 25266,32336 25281,32361 25296,32386 25312,32410 25328,32434 25345,32458 25363,32481 25381,32504 25400,32526 25419,32548 25439,32569 25460,32590 25480,32611 25502,32630 25524,32650 25546,32668 25569,32687 25592,32704 25616,32721 25640,32738 25664,32754 25689,32769 25714,32784 25740,32798 25765,32811 25792,32824 25818,32836 25845,32848 25872,32858 25899,32869 25927,32878 25955,32887 25983,32895 26011,32902 26039,32909 26068,32915 26096,32921 26125,32925 26154,32929 26183,32932 26212,32935 26241,32937 26270,32938 26299,32938 26329,32938 26358,32937 26387,32935 26416,32932 26445,32929 26474,32925 26503,32921 26531,32915 26560,32909 26588,32902 26616,32895 26644,32887 26672,32878 26700,32869 26727,32858 26754,32848 26781,32836 26807,32824 26834,32811 26859,32798 26885,32784 26910,32769 26935,32754 26959,32738 26983,32721 27007,32704 27030,32687 27053,32668 27075,32650 27097,32630 27119,32611 27139,32590 27160,32569 27180,32548 27199,32526 27218,32504 27236,32481 27254,32458 27271,32434 27287,32410 27303,32386 27319,32361 27334,32336 27348,32310 27361,32284 27374,32258 27386,32232 27398,32205 27409,32178 27419,32151 27428,32123 27437,32095 27445,32067 27453,32038 27460,32010 27466,31981 27471,31953 27475,31924 27479,31895 27483,31866 27485,31837 27487,31808 27488,31779 27488,31750 Z"/>
   </g>
  </g>
  <g class="com.sun.star.drawing.PolyPolygonShape">
   <g id="id5">
    <rect class="BoundingBox" stroke="none" fill="none" x="25188" y="30638" width="2225" height="2225"/>
    <path fill="rgb(0,0,255)" stroke="none" d="M 27412,31750 L 27412,31722 27411,31695 27409,31668 27407,31641 27404,31614 27400,31587 27396,31560 27391,31533 27385,31506 27379,31480 27372,31453 27364,31427 27356,31401 27347,31375 27338,31350 27327,31324 27317,31299 27305,31274 27293,31250 27281,31226 27268,31202 27254,31178 27239,31155 27225,31132 27209,31110 27193,31088 27177,31066 27160,31045 27142,31024 27124,31003 27105,30983 27086,30964 27067,30945 27047,30926 27026,30908 27006,30891 26984,30874 26963,30857 26940,30841 26918,30826 26895,30811 26872,30796 26848,30783 26824,30770 26800,30757 26776,30745 26751,30734 26726,30723 26701,30713 26675,30703 26649,30695 26623,30686 26597,30679 26571,30672 26544,30666 26517,30660 26491,30655 26464,30650 26437,30647 26409,30644 26382,30641 26355,30640 26328,30639 26300,30638 26273,30639 26246,30640 26219,30641 26192,30644 26165,30647 26137,30650 26110,30655 26084,30660 26057,30666 26030,30672 26004,30679 25978,30686 25952,30695 25926,30703 25900,30713 25875,30723 25850,30734 25825,30745 25801,30757 25777,30770 25753,30783 25729,30796 25706,30811 25683,30826 25661,30841 25638,30857 25617,30874 25595,30891 25575,30908 25554,30926 25533,30945 25514,30964 25495,30983 25476,31003 25458,31024 25440,31045 25423,31066 25407,31088 25391,31110 25375,31132 25361,31155 25346,31178 25332,31202 25319,31226 25307,31250 25295,31274 25283,31299 25273,31324 25262,31350 25253,31375 25244,31401 25236,31427 25228,31453 25221,31480 25215,31506 25209,31533 25204,31560 25200,31587 25196,31614 25193,31641 25191,31668 25189,31695 25188,31722 25188,31750 25188,31777 25189,31804 25191,31831 25193,31858 25196,31885 25200,31913 25204,31940 25209,31966 25215,31993 25221,32020 25228,32046 25236,32072 25244,32098 25253,32124 25262,32149 25273,32175 25283,32200 25295,32226 25307,32250 25319,32274 25332,32298 25346,32322 25361,32345 25375,32368 25391,32390 25407,32412 25423,32434 25440,32455 25458,32476 25476,32497 25495,32517 25514,32536 25533,32555 25554,32574 25575,32592 25595,32609 25617,32626 25638,32643 25661,32659 25683,32674 25706,32689 25729,32704 25753,32717 25777,32730 25801,32743 25825,32755 25850,32766 25875,32777 25900,32787 25926,32797 25952,32806 25978,32814 26004,32821 26030,32828 26057,32835 26084,32840 26110,32845 26137,32850 26165,32853 26192,32856 26219,32859 26246,32860 26273,32861 26300,32862 26328,32861 26355,32860 26382,32859 26409,32856 26437,32853 26464,32850 26491,32845 26517,32840 26544,32835 26571,32828 26597,32821 26623,32814 26649,32806 26675,32797 26701,32787 26726,32777 26751,32766 26776,32755 26800,32743 26824,32730 26848,32717 26872,32704 26895,32689 26918,32674 26940,32659 26963,32643 26984,32626 27006,32609 27026,32592 27047,32574 27067,32555 27086,32536 27105,32517 27124,32497 27142,32476 27160,32455 27177,32434 27193,32412 27209,32390 27225,32368 27239,32345 27254,32322 27268,32298 27281,32274 27293,32250 27305,32226 27317,32200 27327,32175 27338,32149 27347,32124 27356,32098 27364,32072 27372,32046 27379,32020 27385,31993 27391,31966 27396,31940 27400,31913 27404,31885 27407,31858 27409,31831 27411,31804 27412,31777 27412,31750 Z"/>
   </g>
  </g>
  <g class="com.sun.star.drawing.PolyPolygonShape">
   <g id="id6">
    <rect class="BoundingBox" stroke="none" fill="none" x="25313" y="30805" width="1671" height="1863"/>
    <path fill="rgb(255,255,255)" stroke="none" d="M 25786,31343 L 25786,31697 26392,31697 26392,31277 26038,31277 26510,30805 26983,31277 26628,31277 26628,32667 26392,32667 26392,31933 25786,31933 25786,32287 25313,31815 25786,31343 Z"/>
   </g>
  </g>
 </g>
</svg>