<?xml version="1.0" encoding="UTF-8"?>
<!DOCTYPE svg PUBLIC "-//W3C//DTD SVG 1.1//EN" "http://www.w3.org/Graphics/SVG/1.1/DTD/svg11.dtd">
<svg version="1.2" width="25.03mm" height="25.02mm" viewBox="28049 30500 2503 2502" preserveAspectRatio="xMidYMid" fill-rule="evenodd" stroke-width="28.222" stroke-linejoin="round" xmlns="http://www.w3.org/2000/svg" xmlns:ooo="http://xml.openoffice.org/svg/export" xmlns:xlink="http://www.w3.org/1999/xlink" xmlns:presentation="http://sun.com/xmlns/staroffice/presentation" xmlns:smil="http://www.w3.org/2001/SMIL20/" xmlns:anim="urn:oasis:names:tc:opendocument:xmlns:animation:1.0" xml:space="preserve">
 <defs class="EmbeddedBulletChars">
  <g id="bullet-char-template-57356" transform="scale(0.00048828125,-0.00048828125)">
   <path d="M 580,1141 L 1163,571 580,0 -4,571 580,1141 Z"/>
  </g>
  <g id="bullet-char-template-57354" transform="scale(0.00048828125,-0.00048828125)">
   <path d="M 8,1128 L 1137,1128 1137,0 8,0 8,1128 Z"/>
  </g>
  <g id="bullet-char-template-10146" transform="scale(0.00048828125,-0.00048828125)">
   <path d="M 174,0 L 602,739 174,1481 1456,739 174,0 Z M 1358,739 L 309,1346 659,739 1358,739 Z"/>
  </g>
  <g id="bullet-char-template-10132" transform="scale(0.00048828125,-0.00048828125)">
   <path d="M 2015,739 L 1276,0 717,0 1260,543 174,543 174,936 1260,936 717,1481 1274,1481 2015,739 Z"/>
  </g>
  <g id="bullet-char-template-10007" transform="scale(0.00048828125,-0.00048828125)">
   <path d="M 0,-2 C -7,14 -16,27 -25,37 L 356,567 C 262,823 215,952 215,954 215,979 228,992 255,992 264,992 276,990 289,987 310,991 331,999 354,1012 L 381,999 492,748 772,1049 836,1024 860,1049 C 881,1039 901,1025 922,1006 886,937 835,863 770,784 769,783 710,716 594,584 L 774,223 C 774,196 753,168 711,139 L 727,119 C 717,90 699,76 672,76 641,76 570,178 457,381 L 164,-76 C 142,-110 111,-127 72,-127 30,-127 9,-110 8,-76 1,-67 -2,-52 -2,-32 -2,-23 -1,-13 0,-2 Z"/>
  </g>
  <g id="bullet-char-template-10004" transform="scale(0.00048828125,-0.00048828125)">
   <path d="M 285,-33 C 182,-33 111,30 74,156 52,228 41,333 41,471 41,549 55,616 82,672 116,743 169,778 240,778 293,778 328,747 346,684 L 369,508 C 377,444 397,411 428,410 L 1163,1116 C 1174,1127 1196,1133 1229,1133 1271,1133 1292,1118 1292,1087 L 1292,965 C 1292,929 1282,901 1262,881 L 442,47 C 390,-6 338,-33 285,-33 Z"/>
  </g>
  <g id="bullet-char-template-9679" transform="scale(0.00048828125,-0.00048828125)">
   <path d="M 813,0 C 632,0 489,54 383,161 276,268 223,411 223,592 223,773 276,916 383,1023 489,1130 632,1184 813,1184 992,1184 1136,1130 1245,1023 1353,916 1407,772 1407,592 1407,412 1353,268 1245,161 1136,54 992,0 813,0 Z"/>
  </g>
  <g id="bullet-char-template-8226" transform="scale(0.00048828125,-0.00048828125)">
   <path d="M 346,457 C 273,457 209,483 155,535 101,586 74,649 74,723 74,796 101,859 155,911 209,963 273,989 346,989 419,989 480,963 531,910 582,859 608,796 608,723 608,648 583,586 532,535 482,483 420,457 346,457 Z"/>
  </g>
  <g id="bullet-char-template-8211" transform="scale(0.00048828125,-0.00048828125)">
   <path d="M -4,459 L 1135,459 1135,606 -4,606 -4,459 Z"/>
  </g>
  <g id="bullet-char-template-61548" transform="scale(0.00048828125,-0.00048828125)">
   <path d="M 173,740 C 173,903 231,1043 346,1159 462,1274 601,1332 765,1332 928,1332 1067,1274 1183,1159 1299,1043 1357,903 1357,740 1357,577 1299,437 1183,322 1067,206 928,148 765,148 601,148 462,206 346,322 231,437 173,577 173,740 Z"/>
  </g>
 </defs>
 <g class="Page">
  <g class="com.sun.star.drawing.PolyPolygonShape">
   <g id="id3">
    <rect class="BoundingBox" stroke="none" fill="none" x="28049" y="30500" width="2503" height="2502"/>
    <path fill="rgb(0,0,255)" stroke="none" d="M 30551,31751 L 30551,31720 30549,31689 30548,31659 30545,31628 30541,31597 30537,31567 30532,31537 30527,31507 30520,31477 30513,31447 30505,31417 30497,31388 30488,31358 30478,31329 30467,31301 30456,31272 30444,31244 30431,31215 30417,31187 30403,31160 30388,31133 30373,31107 30357,31081 30340,31055 30323,31030 30305,31005 30286,30980 30267,30956 30247,30933 30227,30910 30206,30888 30185,30866 30163,30844 30140,30823 30117,30803 30094,30783 30070,30764 30045,30745 30020,30728 29995,30710 29969,30693 29943,30677 29917,30662 29890,30647 29863,30633 29835,30620 29807,30607 29779,30595 29750,30583 29722,30573 29693,30563 29663,30553 29634,30545 29604,30537 29574,30530 29544,30523 29514,30518 29484,30513 29454,30509 29423,30505 29393,30503 29362,30501 29331,30500 29301,30500 29270,30500 29239,30501 29208,30503 29178,30505 29147,30509 29117,30513 29087,30518 29057,30523 29027,30530 28997,30537 28967,30545 28938,30553 28908,30563 28879,30573 28851,30583 28822,30595 28794,30607 28766,30620 28737,30633 28710,30647 28683,30662 28657,30677 28631,30693 28605,30710 28579,30728 28555,30745 28530,30764 28506,30783 28483,30803 28460,30823 28437,30844 28415,30866 28394,30888 28373,30910 28353,30933 28333,30956 28314,30980 28295,31005 28277,31030 28260,31055 28243,31081 28227,31107 28212,31133 28197,31160 28183,31187 28169,31215 28156,31244 28144,31272 28133,31301 28122,31329 28112,31358 28103,31388 28094,31417 28087,31447 28080,31477 28073,31507 28068,31537 28063,31567 28059,31597 28055,31628 28052,31659 28051,31689 28049,31720 28049,31751 28049,31781 28051,31812 28052,31843 28055,31873 28059,31904 28063,31934 28068,31964 28073,31994 28080,32024 28087,32054 28094,32084 28103,32113 28112,32143 28122,32172 28133,32200 28144,32229 28156,32257 28169,32285 28183,32313 28197,32340 28212,32367 28227,32393 28243,32419 28260,32445 28277,32470 28295,32495 28314,32520 28333,32544 28353,32567 28373,32590 28394,32612 28415,32634 28437,32656 28460,32677 28483,32697 28506,32717 28530,32736 28555,32755 28579,32772 28605,32790 28631,32807 28657,32823 28683,32838 28710,32853 28737,32867 28766,32881 28794,32893 28822,32905 28851,32917 28879,32927 28908,32937 28938,32947 28967,32955 28997,32963 29027,32970 29057,32977 29087,32982 29117,32987 29147,32991 29178,32995 29208,32997 29239,32999 29270,33000 29300,33001 29331,33000 29362,32999 29393,32997 29423,32995 29454,32991 29484,32987 29514,32982 29544,32977 29574,32970 29604,32963 29634,32955 29663,32947 29693,32937 29722,32927 29750,32917 29779,32905 29807,32893 29835,32881 29863,32867 29890,32853 29917,32838 29943,32823 29969,32807 29995,32790 30020,32772 30045,32755 30070,32736 30094,32717 30117,32697 30140,32677 30163,32656 30185,32634 30206,32612 30227,32590 30247,32567 30267,32544 30286,32520 30305,32495 30323,32470 30340,32445 30357,32419 30373,32393 30388,32367 30403,32340 30417,32313 30431,32285 30444,32257 30456,32229 30467,32200 30478,32172 30488,32143 30497,32113 30505,32084 30513,32054 30520,32024 30527,31994 30532,31964 30537,31934 30541,31904 30545,31873 30548,31843 30549,31812 30551,31781 30551,31751 Z"/>
   </g>
  </g>
  <g class="com.sun.star.drawing.PolyPolygonShape">
   <g id="id4">
    <rect class="BoundingBox" stroke="none" fill="none" x="28111" y="30562" width="2378" height="2377"/>
    <path fill="rgb(255,255,255)" stroke="none" d="M 30488,31750 L 30488,31720 30487,31691 30485,31662 30483,31633 30479,31604 30475,31575 30471,31547 30466,31518 30460,31489 30453,31461 30445,31433 30437,31405 30428,31377 30419,31349 30409,31322 30398,31295 30386,31268 30374,31242 30361,31216 30348,31190 30334,31164 30319,31139 30304,31114 30288,31090 30272,31066 30255,31042 30237,31019 30219,30996 30200,30974 30181,30952 30161,30931 30140,30910 30120,30889 30098,30870 30076,30850 30054,30832 30031,30813 30008,30796 29984,30779 29960,30762 29936,30746 29911,30731 29886,30716 29860,30702 29835,30689 29808,30676 29782,30664 29755,30652 29728,30642 29701,30631 29672,30622 29644,30613 29616,30605 29588,30598 29560,30591 29531,30585 29503,30580 29474,30575 29445,30571 29416,30568 29387,30565 29358,30563 29329,30562 29300,30562 29270,30562 29241,30563 29212,30565 29183,30568 29154,30571 29125,30575 29096,30580 29068,30585 29039,30591 29011,30598 28983,30605 28955,30613 28927,30622 28899,30631 28872,30642 28845,30652 28818,30664 28792,30676 28765,30689 28740,30702 28714,30716 28689,30731 28664,30746 28640,30762 28616,30779 28592,30796 28569,30813 28546,30832 28524,30850 28502,30870 28480,30889 28460,30910 28439,30931 28419,30952 28400,30974 28381,30996 28363,31019 28345,31042 28328,31066 28312,31090 28296,31114 28281,31139 28266,31164 28252,31190 28238,31216 28226,31242 28214,31268 28202,31295 28191,31322 28181,31349 28172,31377 28163,31405 28155,31433 28147,31461 28140,31489 28134,31518 28129,31547 28125,31575 28121,31604 28117,31633 28115,31662 28113,31691 28112,31720 28112,31750 28112,31779 28113,31808 28115,31837 28117,31866 28121,31895 28125,31924 28129,31953 28134,31981 28140,32010 28147,32038 28155,32067 28163,32095 28172,32123 28181,32151 28191,32178 28202,32205 28214,32232 28226,32258 28238,32284 28252,32310 28266,32336 28281,32361 28296,32386 28312,32410 28328,32434 28345,32458 28363,32481 28381,32504 28400,32526 28419,32548 28439,32569 28460,32590 28480,32611 28502,32630 28524,32650 28546,32668 28569,32687 28592,32704 28616,32721 28640,32738 28664,32754 28689,32769 28714,32784 28740,32798 28765,32811 28792,32824 28818,32836 28845,32848 28872,32858 28899,32869 28927,32878 28955,32887 28983,32895 29011,32902 29039,32909 29068,32915 29096,32921 29125,32925 29154,32929 29183,32932 29212,32935 29241,32937 29270,32938 29299,32938 29329,32938 29358,32937 29387,32935 29416,32932 29445,32929 29474,32925 29503,32921 29531,32915 29560,32909 29588,32902 29616,32895 29644,32887 29672,32878 29701,32869 29728,32858 29755,32848 29782,32836 29808,32824 29835,32811 29860,32798 29886,32784 29911,32769 29936,32754 29960,32738 29984,32721 30008,32704 30031,32687 30054,32668 30076,32650 30098,32630 30120,32611 30140,32590 30161,32569 30181,32548 30200,32526 30219,32504 30237,32481 30255,32458 30272,32434 30288,32410 30304,32386 30319,32361 30334,32336 30348,32310 30361,32284 30374,32258 30386,32232 30398,32205 30409,32178 30419,32151 30428,32123 30437,32095 30445,32067 30453,32038 30460,32010 30466,31981 30471,31953 30475,31924 30479,31895 30483,31866 30485,31837 30487,31808 30488,31779 30488,31750 Z"/>
   </g>
  </g>
  <g class="com.sun.star.drawing.PolyPolygonShape">
   <g id="id5">
    <rect class="BoundingBox" stroke="none" fill="none" x="28188" y="30638" width="2225" height="2225"/>
    <path fill="rgb(0,0,255)" stroke="none" d="M 30412,31750 L 30412,31722 30411,31695 30409,31668 30407,31641 30404,31614 30400,31587 30396,31560 30391,31533 30385,31506 30379,31480 30372,31453 30364,31427 30356,31401 30347,31375 30338,31350 30327,31324 30317,31299 30305,31274 30293,31250 30281,31226 30268,31202 30254,31178 30239,31155 30225,31132 30209,31110 30193,31088 30177,31066 30160,31045 30142,31024 30124,31003 30105,30983 30086,30964 30067,30945 30047,30926 30026,30908 30005,30891 29983,30874 29962,30857 29939,30841 29917,30826 29894,30811 29871,30796 29847,30783 29823,30770 29799,30757 29775,30745 29750,30734 29725,30723 29700,30713 29674,30703 29648,30695 29622,30686 29596,30679 29570,30672 29543,30666 29516,30660 29490,30655 29463,30650 29435,30647 29408,30644 29381,30641 29354,30640 29327,30639 29299,30638 29272,30639 29245,30640 29218,30641 29191,30644 29164,30647 29136,30650 29109,30655 29083,30660 29056,30666 29029,30672 29003,30679 28977,30686 28951,30695 28925,30703 28899,30713 28874,30723 28849,30734 28824,30745 28800,30757 28776,30770 28752,30783 28728,30796 28705,30811 28682,30826 28660,30841 28637,30857 28616,30874 28594,30891 28574,30908 28553,30926 28533,30945 28514,30964 28495,30983 28476,31003 28458,31024 28440,31045 28423,31066 28407,31088 28391,31110 28375,31132 28361,31155 28346,31178 28332,31202 28319,31226 28307,31250 28295,31274 28283,31299 28273,31324 28262,31350 28253,31375 28244,31401 28236,31427 28228,31453 28221,31480 28215,31506 28209,31533 28204,31560 28200,31587 28196,31614 28193,31641 28191,31668 28189,31695 28188,31722 28188,31750 28188,31777 28189,31804 28191,31831 28193,31858 28196,31885 28200,31913 28204,31940 28209,31966 28215,31993 28221,32020 28228,32046 28236,32072 28244,32098 28253,32124 28262,32149 28273,32175 28283,32200 28295,32226 28307,32250 28319,32274 28332,32298 28346,32322 28361,32345 28375,32368 28391,32390 28407,32412 28423,32434 28440,32455 28458,32476 28476,32497 28495,32517 28514,32536 28533,32555 28553,32574 28574,32592 28594,32609 28616,32626 28637,32643 28660,32659 28682,32674 28705,32689 28728,32704 28752,32717 28776,32730 28800,32743 28824,32755 28849,32766 28874,32777 28899,32787 28925,32797 28951,32806 28977,32814 29003,32821 29029,32828 29056,32835 29083,32840 29109,32845 29136,32850 29164,32853 29191,32856 29218,32859 29245,32860 29272,32861 29299,32862 29327,32861 29354,32860 29381,32859 29408,32856 29435,32853 29463,32850 29490,32845 29516,32840 29543,32835 29570,32828 29596,32821 29622,32814 29648,32806 29674,32797 29700,32787 29725,32777 29750,32766 29775,32755 29799,32743 29823,32730 29847,32717 29871,32704 29894,32689 29917,32674 29939,32659 29962,32643 29983,32626 30005,32609 30026,32592 30047,32574 30067,32555 30086,32536 30105,32517 30124,32497 30142,32476 30160,32455 30177,32434 30193,32412 30209,32390 30225,32368 30239,32345 30254,32322 30268,32298 30281,32274 30293,32250 30305,32226 30317,32200 30327,32175 30338,32149 30347,32124 30356,32098 30364,32072 30372,32046 30379,32020 30385,31993 30391,31966 30396,31940 30400,31913 30404,31885 30407,31858 30409,31831 30411,31804 30412,31777 30412,31750 Z"/>
   </g>
  </g>
  <g class="com.sun.star.drawing.PolyPolygonShape">
   <g id="id6">
    <rect class="BoundingBox" stroke="none" fill="none" x="28617" y="30805" width="1671" height="1863"/>
    <path fill="rgb(255,255,255)" stroke="none" d="M 29814,31343 L 29814,31697 29209,31697 29209,31277 29563,31277 29090,30805 28617,31277 28972,31277 28972,32667 29209,32667 29209,31933 29814,31933 29814,32287 30287,31815 29814,31343 Z"/>
   </g>
  </g>
 </g>
</svg>