<?xml version="1.0" encoding="UTF-8"?>
<!DOCTYPE svg PUBLIC "-//W3C//DTD SVG 1.1//EN" "http://www.w3.org/Graphics/SVG/1.1/DTD/svg11.dtd">
<svg version="1.2" width="25.03mm" height="25.02mm" viewBox="37649 30500 2503 2502" preserveAspectRatio="xMidYMid" fill-rule="evenodd" stroke-width="28.222" stroke-linejoin="round" xmlns="http://www.w3.org/2000/svg" xmlns:ooo="http://xml.openoffice.org/svg/export" xmlns:xlink="http://www.w3.org/1999/xlink" xmlns:presentation="http://sun.com/xmlns/staroffice/presentation" xmlns:smil="http://www.w3.org/2001/SMIL20/" xmlns:anim="urn:oasis:names:tc:opendocument:xmlns:animation:1.0" xml:space="preserve">
 <defs class="EmbeddedBulletChars">
  <g id="bullet-char-template-57356" transform="scale(0.00048828125,-0.00048828125)">
   <path d="M 580,1141 L 1163,571 580,0 -4,571 580,1141 Z"/>
  </g>
  <g id="bullet-char-template-57354" transform="scale(0.00048828125,-0.00048828125)">
   <path d="M 8,1128 L 1137,1128 1137,0 8,0 8,1128 Z"/>
  </g>
  <g id="bullet-char-template-10146" transform="scale(0.00048828125,-0.00048828125)">
   <path d="M 174,0 L 602,739 174,1481 1456,739 174,0 Z M 1358,739 L 309,1346 659,739 1358,739 Z"/>
  </g>
  <g id="bullet-char-template-10132" transform="scale(0.00048828125,-0.00048828125)">
   <path d="M 2015,739 L 1276,0 717,0 1260,543 174,543 174,936 1260,936 717,1481 1274,1481 2015,739 Z"/>
  </g>
  <g id="bullet-char-template-10007" transform="scale(0.00048828125,-0.00048828125)">
   <path d="M 0,-2 C -7,14 -16,27 -25,37 L 356,567 C 262,823 215,952 215,954 215,979 228,992 255,992 264,992 276,990 289,987 310,991 331,999 354,1012 L 381,999 492,748 772,1049 836,1024 860,1049 C 881,1039 901,1025 922,1006 886,937 835,863 770,784 769,783 710,716 594,584 L 774,223 C 774,196 753,168 711,139 L 727,119 C 717,90 699,76 672,76 641,76 570,178 457,381 L 164,-76 C 142,-110 111,-127 72,-127 30,-127 9,-110 8,-76 1,-67 -2,-52 -2,-32 -2,-23 -1,-13 0,-2 Z"/>
  </g>
  <g id="bullet-char-template-10004" transform="scale(0.00048828125,-0.00048828125)">
   <path d="M 285,-33 C 182,-33 111,30 74,156 52,228 41,333 41,471 41,549 55,616 82,672 116,743 169,778 240,778 293,778 328,747 346,684 L 369,508 C 377,444 397,411 428,410 L 1163,1116 C 1174,1127 1196,1133 1229,1133 1271,1133 1292,1118 1292,1087 L 1292,965 C 1292,929 1282,901 1262,881 L 442,47 C 390,-6 338,-33 285,-33 Z"/>
  </g>
  <g id="bullet-char-template-9679" transform="scale(0.00048828125,-0.00048828125)">
   <path d="M 813,0 C 632,0 489,54 383,161 276,268 223,411 223,592 223,773 276,916 383,1023 489,1130 632,1184 813,1184 992,1184 1136,1130 1245,1023 1353,916 1407,772 1407,592 1407,412 1353,268 1245,161 1136,54 992,0 813,0 Z"/>
  </g>
  <g id="bullet-char-template-8226" transform="scale(0.00048828125,-0.00048828125)">
   <path d="M 346,457 C 273,457 209,483 155,535 101,586 74,649 74,723 74,796 101,859 155,911 209,963 273,989 346,989 419,989 480,963 531,910 582,859 608,796 608,723 608,648 583,586 532,535 482,483 420,457 346,457 Z"/>
  </g>
  <g id="bullet-char-template-8211" transform="scale(0.00048828125,-0.00048828125)">
   <path d="M -4,459 L 1135,459 1135,606 -4,606 -4,459 Z"/>
  </g>
  <g id="bullet-char-template-61548" transform="scale(0.00048828125,-0.00048828125)">
   <path d="M 173,740 C 173,903 231,1043 346,1159 462,1274 601,1332 765,1332 928,1332 1067,1274 1183,1159 1299,1043 1357,903 1357,740 1357,577 1299,437 1183,322 1067,206 928,148 765,148 601,148 462,206 346,322 231,437 173,577 173,740 Z"/>
  </g>
 </defs>
 <g class="Page">
  <g class="com.sun.star.drawing.PolyPolygonShape">
   <g id="id3">
    <rect class="BoundingBox" stroke="none" fill="none" x="37649" y="30500" width="2503" height="2502"/>
    <path fill="rgb(0,0,255)" stroke="none" d="M 40151,31751 L 40151,31720 40149,31689 40148,31659 40145,31628 40141,31597 40137,31567 40132,31537 40127,31507 40120,31477 40113,31447 40106,31417 40097,31388 40088,31358 40078,31329 40067,31301 40056,31272 40044,31244 40031,31215 40017,31187 40003,31160 39988,31133 39973,31107 39957,31081 39940,31055 39923,31030 39905,31005 39886,30980 39867,30956 39847,30933 39827,30910 39806,30888 39785,30866 39763,30844 39740,30823 39717,30803 39694,30783 39670,30764 39645,30745 39620,30728 39595,30710 39569,30693 39543,30677 39517,30662 39490,30647 39463,30633 39435,30620 39407,30607 39379,30595 39351,30583 39322,30573 39293,30563 39263,30553 39234,30545 39204,30537 39174,30530 39144,30523 39114,30518 39084,30513 39054,30509 39023,30505 38993,30503 38962,30501 38931,30500 38901,30500 38870,30500 38839,30501 38808,30503 38778,30505 38746,30509 38716,30513 38686,30518 38656,30523 38626,30530 38596,30537 38566,30545 38537,30553 38507,30563 38478,30573 38450,30583 38421,30595 38393,30607 38365,30620 38337,30633 38310,30647 38283,30662 38257,30677 38231,30693 38205,30710 38179,30728 38155,30745 38130,30764 38106,30783 38083,30803 38060,30823 38037,30844 38015,30866 37994,30888 37973,30910 37953,30933 37933,30956 37914,30980 37895,31005 37877,31030 37860,31055 37843,31081 37827,31107 37812,31133 37797,31160 37783,31187 37769,31215 37756,31244 37744,31272 37733,31301 37722,31329 37712,31358 37703,31388 37694,31417 37687,31447 37680,31477 37673,31507 37668,31537 37663,31567 37659,31597 37655,31628 37652,31659 37651,31689 37649,31720 37649,31751 37649,31781 37651,31812 37652,31843 37655,31873 37659,31904 37663,31934 37668,31964 37673,31994 37680,32024 37687,32054 37694,32084 37703,32113 37712,32143 37722,32172 37733,32200 37744,32229 37756,32257 37769,32285 37783,32313 37797,32340 37812,32367 37827,32393 37843,32419 37860,32445 37877,32470 37895,32495 37914,32520 37933,32544 37953,32567 37973,32590 37994,32612 38015,32634 38037,32656 38060,32677 38083,32697 38106,32717 38130,32736 38155,32755 38179,32772 38205,32790 38231,32807 38257,32823 38283,32838 38310,32853 38337,32867 38365,32881 38393,32893 38421,32905 38450,32917 38478,32927 38507,32937 38537,32947 38566,32955 38596,32963 38626,32970 38656,32977 38686,32982 38716,32987 38746,32991 38778,32995 38808,32997 38839,32999 38870,33000 38900,33001 38931,33000 38962,32999 38993,32997 39023,32995 39054,32991 39084,32987 39114,32982 39144,32977 39174,32970 39204,32963 39234,32955 39263,32947 39293,32937 39322,32927 39351,32917 39379,32905 39407,32893 39435,32881 39463,32867 39490,32853 39517,32838 39543,32823 39569,32807 39595,32790 39620,32772 39645,32755 39670,32736 39694,32717 39717,32697 39740,32677 39763,32656 39785,32634 39806,32612 39827,32590 39847,32567 39867,32544 39886,32520 39905,32495 39923,32470 39940,32445 39957,32419 39973,32393 39988,32367 40003,32340 40017,32313 40031,32285 40044,32257 40056,32229 40067,32200 40078,32172 40088,32143 40097,32113 40106,32084 40113,32054 40120,32024 40127,31994 40132,31964 40137,31934 40141,31904 40145,31873 40148,31843 40149,31812 40151,31781 40151,31751 Z"/>
   </g>
  </g>
  <g class="com.sun.star.drawing.PolyPolygonShape">
   <g id="id4">
    <rect class="BoundingBox" stroke="none" fill="none" x="37712" y="30562" width="2377" height="2377"/>
    <path fill="rgb(255,255,255)" stroke="none" d="M 40088,31750 L 40088,31720 40087,31691 40085,31662 40083,31633 40079,31604 40075,31575 40071,31547 40066,31518 40060,31489 40053,31461 40045,31433 40037,31405 40028,31377 40019,31349 40009,31322 39998,31295 39986,31268 39974,31242 39961,31216 39948,31190 39934,31164 39919,31139 39904,31114 39888,31090 39872,31066 39855,31042 39837,31019 39819,30996 39800,30974 39781,30952 39761,30931 39740,30910 39720,30889 39698,30870 39676,30850 39654,30832 39631,30813 39608,30796 39584,30779 39560,30762 39536,30746 39511,30731 39486,30716 39460,30702 39435,30689 39408,30676 39382,30664 39355,30652 39328,30642 39301,30631 39273,30622 39245,30613 39217,30605 39189,30598 39160,30591 39131,30585 39103,30580 39074,30575 39045,30571 39016,30568 38987,30565 38958,30563 38929,30562 38900,30562 38870,30562 38841,30563 38812,30565 38783,30568 38754,30571 38725,30575 38696,30580 38668,30585 38639,30591 38611,30598 38583,30605 38555,30613 38527,30622 38499,30631 38472,30642 38445,30652 38418,30664 38392,30676 38365,30689 38340,30702 38314,30716 38289,30731 38264,30746 38240,30762 38216,30779 38192,30796 38169,30813 38146,30832 38124,30850 38102,30870 38080,30889 38060,30910 38039,30931 38019,30952 38000,30974 37981,30996 37963,31019 37945,31042 37928,31066 37912,31090 37896,31114 37881,31139 37866,31164 37852,31190 37839,31216 37826,31242 37814,31268 37802,31295 37791,31322 37781,31349 37772,31377 37763,31405 37755,31433 37747,31461 37740,31489 37735,31518 37729,31547 37725,31575 37721,31604 37717,31633 37715,31662 37713,31691 37712,31720 37712,31750 37712,31779 37713,31808 37715,31837 37717,31866 37721,31895 37725,31924 37729,31953 37735,31981 37740,32010 37747,32038 37755,32067 37763,32095 37772,32123 37781,32151 37791,32178 37802,32205 37814,32232 37826,32258 37839,32284 37852,32310 37866,32336 37881,32361 37896,32386 37912,32410 37928,32434 37945,32458 37963,32481 37981,32504 38000,32526 38019,32548 38039,32569 38060,32590 38080,32611 38102,32630 38124,32650 38146,32668 38169,32687 38192,32704 38216,32721 38240,32738 38264,32754 38289,32769 38314,32784 38340,32798 38365,32811 38392,32824 38418,32836 38445,32848 38472,32858 38499,32869 38527,32878 38555,32887 38583,32895 38611,32902 38639,32909 38668,32915 38696,32921 38725,32925 38754,32929 38783,32932 38812,32935 38841,32937 38870,32938 38899,32938 38929,32938 38958,32937 38987,32935 39016,32932 39045,32929 39074,32925 39103,32921 39131,32915 39160,32909 39189,32902 39217,32895 39245,32887 39273,32878 39301,32869 39328,32858 39355,32848 39382,32836 39408,32824 39435,32811 39460,32798 39486,32784 39511,32769 39536,32754 39560,32738 39584,32721 39608,32704 39631,32687 39654,32668 39676,32650 39698,32630 39720,32611 39740,32590 39761,32569 39781,32548 39800,32526 39819,32504 39837,32481 39855,32458 39872,32434 39888,32410 39904,32386 39919,32361 39934,32336 39948,32310 39961,32284 39974,32258 39986,32232 39998,32205 40009,32178 40019,32151 40028,32123 40037,32095 40045,32067 40053,32038 40060,32010 40066,31981 40071,31953 40075,31924 40079,31895 40083,31866 40085,31837 40087,31808 40088,31779 40088,31750 Z"/>
   </g>
  </g>
  <g class="com.sun.star.drawing.PolyPolygonShape">
   <g id="id5">
    <rect class="BoundingBox" stroke="none" fill="none" x="37788" y="30638" width="2225" height="2225"/>
    <path fill="rgb(0,0,255)" stroke="none" d="M 40012,31750 L 40012,31722 40011,31695 40009,31668 40007,31641 40004,31614 40000,31587 39996,31560 39991,31533 39985,31506 39979,31480 39972,31453 39964,31427 39956,31401 39947,31375 39938,31350 39927,31324 39917,31299 39905,31274 39893,31250 39881,31226 39868,31202 39854,31178 39839,31155 39825,31132 39809,31110 39793,31088 39777,31066 39760,31045 39742,31024 39724,31003 39705,30983 39686,30964 39667,30945 39647,30926 39626,30908 39605,30891 39584,30874 39563,30857 39540,30841 39518,30826 39495,30811 39472,30796 39448,30783 39424,30770 39400,30757 39376,30745 39351,30734 39326,30723 39301,30713 39275,30703 39249,30695 39223,30686 39197,30679 39171,30672 39144,30666 39117,30660 39091,30655 39064,30650 39037,30647 39009,30644 38982,30641 38955,30640 38928,30639 38900,30638 38872,30639 38845,30640 38818,30641 38791,30644 38764,30647 38736,30650 38709,30655 38683,30660 38656,30666 38629,30672 38603,30679 38577,30686 38551,30695 38525,30703 38499,30713 38474,30723 38449,30734 38424,30745 38400,30757 38376,30770 38352,30783 38328,30796 38305,30811 38282,30826 38260,30841 38237,30857 38216,30874 38195,30891 38174,30908 38153,30926 38133,30945 38114,30964 38095,30983 38076,31003 38058,31024 38040,31045 38023,31066 38007,31088 37991,31110 37975,31132 37961,31155 37946,31178 37932,31202 37919,31226 37907,31250 37895,31274 37883,31299 37873,31324 37863,31350 37853,31375 37844,31401 37836,31427 37828,31453 37821,31480 37815,31506 37809,31533 37804,31560 37800,31587 37796,31614 37793,31641 37791,31668 37789,31695 37788,31722 37788,31750 37788,31777 37789,31804 37791,31831 37793,31858 37796,31885 37800,31913 37804,31940 37809,31966 37815,31993 37821,32020 37828,32046 37836,32072 37844,32098 37853,32124 37863,32149 37873,32175 37883,32200 37895,32226 37907,32250 37919,32274 37932,32298 37946,32322 37961,32345 37975,32368 37991,32390 38007,32412 38023,32434 38040,32455 38058,32476 38076,32497 38095,32517 38114,32536 38133,32555 38153,32574 38174,32592 38195,32609 38216,32626 38237,32643 38260,32659 38282,32674 38305,32689 38328,32704 38352,32717 38376,32730 38400,32743 38424,32755 38449,32766 38474,32777 38499,32787 38525,32797 38551,32806 38577,32814 38603,32821 38629,32828 38656,32835 38683,32840 38709,32845 38736,32850 38764,32853 38791,32856 38818,32859 38845,32860 38872,32861 38900,32862 38928,32861 38955,32860 38982,32859 39009,32856 39037,32853 39064,32850 39091,32845 39117,32840 39144,32835 39171,32828 39197,32821 39223,32814 39249,32806 39275,32797 39301,32787 39326,32777 39351,32766 39376,32755 39400,32743 39424,32730 39448,32717 39472,32704 39495,32689 39518,32674 39540,32659 39563,32643 39584,32626 39605,32609 39626,32592 39647,32574 39667,32555 39686,32536 39705,32517 39724,32497 39742,32476 39760,32455 39777,32434 39793,32412 39809,32390 39825,32368 39839,32345 39854,32322 39868,32298 39881,32274 39893,32250 39905,32226 39917,32200 39927,32175 39938,32149 39947,32124 39956,32098 39964,32072 39972,32046 39979,32020 39985,31993 39991,31966 39996,31940 40000,31913 40004,31885 40007,31858 40009,31831 40011,31804 40012,31777 40012,31750 Z"/>
   </g>
  </g>
  <g class="com.sun.star.drawing.PolyPolygonShape">
   <g id="id6">
    <rect class="BoundingBox" stroke="none" fill="none" x="38899" y="30836" width="781" height="1075"/>
    <path fill="rgb(255,255,255)" stroke="none" d="M 38899,30972 L 39202,30836 39145,31011 39161,31017 39178,31023 39194,31030 39211,31037 39227,31044 39243,31052 39259,31060 39274,31068 39291,31077 39306,31086 39321,31095 39336,31105 39350,31115 39365,31125 39379,31136 39393,31147 39406,31158 39420,31170 39432,31182 39445,31194 39458,31207 39470,31220 39482,31233 39494,31246 39505,31260 39516,31274 39527,31288 39537,31302 39547,31317 39557,31332 39566,31347 39575,31362 39584,31377 39592,31393 39600,31409 39607,31425 39615,31441 39621,31457 39628,31474 39634,31490 39640,31507 39645,31524 39650,31541 39655,31558 39659,31575 39663,31593 39666,31610 39669,31628 39671,31646 39674,31663 39675,31681 39677,31699 39678,31716 39678,31734 39679,31752 39678,31770 39678,31787 39677,31805 39675,31823 39673,31840 39671,31858 39668,31875 39665,31893 39662,31910 39542,31885 39545,31870 39547,31856 39550,31841 39551,31826 39553,31811 39554,31796 39555,31781 39556,31767 39556,31752 39556,31737 39555,31722 39554,31707 39553,31692 39552,31677 39550,31663 39548,31648 39545,31633 39542,31618 39539,31603 39536,31589 39532,31574 39528,31560 39523,31545 39519,31531 39513,31517 39508,31504 39502,31490 39496,31476 39490,31463 39483,31449 39476,31436 39469,31423 39461,31410 39453,31398 39445,31385 39437,31373 39428,31361 39419,31349 39410,31337 39400,31326 39391,31315 39381,31304 39370,31293 39360,31282 39349,31272 39338,31262 39327,31252 39316,31242 39304,31233 39292,31224 39279,31215 39267,31207 39254,31199 39242,31191 39229,31183 39216,31176 39203,31169 39189,31162 39176,31156 39162,31149 39149,31143 39135,31138 39121,31133 39107,31128 39050,31303 38899,30972 Z"/>
   </g>
  </g>
  <g class="com.sun.star.drawing.PolyPolygonShape">
   <g id="id7">
    <rect class="BoundingBox" stroke="none" fill="none" x="38381" y="32103" width="1194" height="426"/>
    <path fill="rgb(255,255,255)" stroke="none" d="M 39212,32103 L 39335,32240 39324,32249 39313,32259 39301,32268 39289,32277 39277,32286 39265,32294 39252,32302 39239,32310 39226,32318 39213,32325 39200,32332 39187,32339 39174,32345 39160,32351 39146,32357 39132,32362 39118,32367 39104,32372 39090,32377 39076,32381 39061,32385 39047,32388 39032,32391 39018,32394 39003,32397 38988,32399 38973,32401 38958,32402 38944,32403 38929,32404 38914,32405 38899,32405 38884,32404 38869,32404 38854,32403 38839,32402 38825,32400 38810,32398 38795,32396 38780,32394 38766,32391 38751,32387 38736,32384 38721,32380 38707,32376 38693,32371 38679,32366 38665,32361 38651,32356 38637,32350 38624,32344 38610,32337 38597,32331 38584,32324 38571,32316 38558,32309 38545,32301 38533,32293 38521,32284 38509,32275 38497,32266 38485,32257 38474,32247 38462,32238 38381,32329 38394,32341 38408,32352 38421,32363 38435,32374 38450,32384 38464,32394 38479,32404 38494,32413 38509,32422 38525,32431 38540,32441 38556,32448 38572,32456 38588,32463 38605,32470 38621,32477 38638,32483 38654,32489 38671,32494 38688,32499 38705,32504 38723,32508 38740,32512 38758,32515 38776,32518 38793,32521 38811,32523 38829,32525 38846,32526 38864,32527 38881,32528 38899,32528 38917,32528 38935,32528 38952,32527 38970,32525 38987,32523 39005,32521 39023,32519 39040,32516 39057,32512 39075,32509 39092,32504 39109,32500 39126,32495 39143,32490 39160,32484 39176,32478 39193,32471 39209,32465 39225,32457 39241,32450 39257,32442 39273,32433 39288,32424 39304,32415 39319,32405 39333,32396 39348,32386 39362,32375 39376,32365 39390,32354 39404,32342 39417,32331 39540,32469 39574,32138 39212,32103 Z"/>
   </g>
  </g>
  <g class="com.sun.star.drawing.PolyPolygonShape">
   <g id="id8">
    <rect class="BoundingBox" stroke="none" fill="none" x="37957" y="31011" width="741" height="1129"/>
    <path fill="rgb(255,255,255)" stroke="none" d="M 38138,31906 L 38134,31889 38131,31872 38129,31854 38126,31837 38125,31819 38123,31801 38122,31784 38122,31766 38121,31748 38122,31730 38122,31713 38123,31695 38125,31677 38127,31660 38129,31642 38132,31625 38135,31607 38138,31590 38142,31573 38146,31555 38151,31538 38156,31521 38161,31505 38167,31488 38173,31471 38179,31455 38186,31438 38194,31422 38201,31406 38209,31391 38218,31375 38226,31360 38235,31344 38245,31329 38255,31315 38265,31300 38275,31286 38286,31271 38297,31258 38308,31244 38320,31231 38332,31218 38344,31205 38357,31193 38369,31180 38382,31168 38396,31157 38410,31145 38423,31134 38437,31124 38452,31113 38466,31103 38481,31094 38496,31084 38512,31075 38527,31067 38543,31058 38559,31050 38574,31043 38591,31036 38607,31029 38623,31022 38640,31016 38657,31011 38696,31127 38681,31132 38667,31137 38653,31142 38639,31148 38626,31154 38612,31161 38599,31167 38586,31174 38573,31182 38560,31189 38547,31197 38535,31205 38523,31214 38510,31222 38499,31231 38487,31240 38475,31250 38464,31260 38453,31270 38442,31280 38432,31291 38421,31301 38411,31312 38402,31324 38392,31335 38383,31347 38374,31358 38365,31371 38357,31383 38348,31395 38340,31408 38333,31421 38325,31434 38318,31447 38312,31460 38305,31473 38299,31487 38293,31501 38288,31515 38283,31529 38278,31543 38273,31557 38269,31571 38265,31585 38262,31600 38258,31615 38255,31629 38253,31644 38251,31659 38249,31673 38247,31688 38246,31703 38245,31718 38244,31733 38244,31748 38244,31763 38245,31777 38246,31792 38247,31807 38248,31822 38250,31837 38252,31852 38255,31866 38257,31881 38437,31843 38226,32139 37957,31945 38138,31906 Z"/>
   </g>
  </g>
 </g>
</svg>