<?xml version="1.0" encoding="UTF-8"?>
<!DOCTYPE svg PUBLIC "-//W3C//DTD SVG 1.1//EN" "http://www.w3.org/Graphics/SVG/1.1/DTD/svg11.dtd">
<svg version="1.2" width="25.03mm" height="25.02mm" viewBox="40649 30500 2503 2502" preserveAspectRatio="xMidYMid" fill-rule="evenodd" stroke-width="28.222" stroke-linejoin="round" xmlns="http://www.w3.org/2000/svg" xmlns:ooo="http://xml.openoffice.org/svg/export" xmlns:xlink="http://www.w3.org/1999/xlink" xmlns:presentation="http://sun.com/xmlns/staroffice/presentation" xmlns:smil="http://www.w3.org/2001/SMIL20/" xmlns:anim="urn:oasis:names:tc:opendocument:xmlns:animation:1.0" xml:space="preserve">
 <defs class="EmbeddedBulletChars">
  <g id="bullet-char-template-57356" transform="scale(0.00048828125,-0.00048828125)">
   <path d="M 580,1141 L 1163,571 580,0 -4,571 580,1141 Z"/>
  </g>
  <g id="bullet-char-template-57354" transform="scale(0.00048828125,-0.00048828125)">
   <path d="M 8,1128 L 1137,1128 1137,0 8,0 8,1128 Z"/>
  </g>
  <g id="bullet-char-template-10146" transform="scale(0.00048828125,-0.00048828125)">
   <path d="M 174,0 L 602,739 174,1481 1456,739 174,0 Z M 1358,739 L 309,1346 659,739 1358,739 Z"/>
  </g>
  <g id="bullet-char-template-10132" transform="scale(0.00048828125,-0.00048828125)">
   <path d="M 2015,739 L 1276,0 717,0 1260,543 174,543 174,936 1260,936 717,1481 1274,1481 2015,739 Z"/>
  </g>
  <g id="bullet-char-template-10007" transform="scale(0.00048828125,-0.00048828125)">
   <path d="M 0,-2 C -7,14 -16,27 -25,37 L 356,567 C 262,823 215,952 215,954 215,979 228,992 255,992 264,992 276,990 289,987 310,991 331,999 354,1012 L 381,999 492,748 772,1049 836,1024 860,1049 C 881,1039 901,1025 922,1006 886,937 835,863 770,784 769,783 710,716 594,584 L 774,223 C 774,196 753,168 711,139 L 727,119 C 717,90 699,76 672,76 641,76 570,178 457,381 L 164,-76 C 142,-110 111,-127 72,-127 30,-127 9,-110 8,-76 1,-67 -2,-52 -2,-32 -2,-23 -1,-13 0,-2 Z"/>
  </g>
  <g id="bullet-char-template-10004" transform="scale(0.00048828125,-0.00048828125)">
   <path d="M 285,-33 C 182,-33 111,30 74,156 52,228 41,333 41,471 41,549 55,616 82,672 116,743 169,778 240,778 293,778 328,747 346,684 L 369,508 C 377,444 397,411 428,410 L 1163,1116 C 1174,1127 1196,1133 1229,1133 1271,1133 1292,1118 1292,1087 L 1292,965 C 1292,929 1282,901 1262,881 L 442,47 C 390,-6 338,-33 285,-33 Z"/>
  </g>
  <g id="bullet-char-template-9679" transform="scale(0.00048828125,-0.00048828125)">
   <path d="M 813,0 C 632,0 489,54 383,161 276,268 223,411 223,592 223,773 276,916 383,1023 489,1130 632,1184 813,1184 992,1184 1136,1130 1245,1023 1353,916 1407,772 1407,592 1407,412 1353,268 1245,161 1136,54 992,0 813,0 Z"/>
  </g>
  <g id="bullet-char-template-8226" transform="scale(0.00048828125,-0.00048828125)">
   <path d="M 346,457 C 273,457 209,483 155,535 101,586 74,649 74,723 74,796 101,859 155,911 209,963 273,989 346,989 419,989 480,963 531,910 582,859 608,796 608,723 608,648 583,586 532,535 482,483 420,457 346,457 Z"/>
  </g>
  <g id="bullet-char-template-8211" transform="scale(0.00048828125,-0.00048828125)">
   <path d="M -4,459 L 1135,459 1135,606 -4,606 -4,459 Z"/>
  </g>
  <g id="bullet-char-template-61548" transform="scale(0.00048828125,-0.00048828125)">
   <path d="M 173,740 C 173,903 231,1043 346,1159 462,1274 601,1332 765,1332 928,1332 1067,1274 1183,1159 1299,1043 1357,903 1357,740 1357,577 1299,437 1183,322 1067,206 928,148 765,148 601,148 462,206 346,322 231,437 173,577 173,740 Z"/>
  </g>
 </defs>
 <g class="Page">
  <g class="com.sun.star.drawing.PolyPolygonShape">
   <g id="id3">
    <rect class="BoundingBox" stroke="none" fill="none" x="40649" y="30500" width="2503" height="2502"/>
    <path fill="rgb(0,0,255)" stroke="none" d="M 43151,31751 L 43151,31720 43149,31689 43147,31659 43145,31628 43141,31597 43137,31567 43132,31537 43127,31507 43120,31477 43113,31447 43106,31417 43097,31388 43088,31358 43078,31329 43067,31301 43056,31272 43044,31244 43031,31215 43017,31187 43003,31160 42988,31133 42973,31107 42957,31081 42940,31055 42923,31030 42905,31005 42886,30980 42867,30956 42847,30933 42827,30910 42806,30888 42785,30866 42763,30844 42740,30823 42717,30803 42694,30783 42670,30764 42645,30745 42620,30728 42595,30710 42569,30693 42543,30677 42517,30662 42490,30647 42463,30633 42435,30620 42407,30607 42379,30595 42350,30583 42322,30573 42293,30563 42263,30553 42234,30545 42204,30537 42174,30530 42144,30523 42114,30518 42084,30513 42054,30509 42023,30505 41992,30503 41962,30501 41931,30500 41901,30500 41870,30500 41839,30501 41808,30503 41778,30505 41747,30509 41717,30513 41687,30518 41657,30523 41627,30530 41597,30537 41567,30545 41538,30553 41508,30563 41479,30573 41451,30583 41422,30595 41394,30607 41366,30620 41338,30633 41311,30647 41284,30662 41258,30677 41231,30693 41205,30710 41180,30728 41155,30745 41130,30764 41106,30783 41083,30803 41060,30823 41037,30844 41015,30866 40994,30888 40973,30910 40953,30933 40933,30956 40914,30980 40895,31005 40877,31030 40860,31055 40843,31081 40827,31107 40812,31133 40797,31160 40783,31187 40769,31215 40756,31244 40744,31272 40733,31301 40722,31329 40712,31358 40703,31388 40694,31417 40687,31447 40680,31477 40673,31507 40668,31537 40663,31567 40659,31597 40655,31628 40652,31659 40651,31689 40649,31720 40649,31750 40649,31781 40651,31812 40652,31842 40655,31873 40659,31904 40663,31934 40668,31964 40673,31994 40680,32024 40687,32054 40694,32084 40703,32113 40712,32143 40722,32172 40733,32200 40744,32229 40756,32257 40769,32285 40783,32313 40797,32340 40812,32367 40827,32393 40843,32419 40860,32445 40877,32470 40895,32495 40914,32520 40933,32544 40953,32567 40973,32590 40994,32612 41015,32634 41037,32656 41060,32677 41083,32697 41106,32717 41130,32736 41155,32755 41180,32772 41205,32790 41231,32807 41258,32823 41284,32838 41311,32853 41338,32867 41366,32881 41394,32893 41422,32905 41451,32917 41479,32927 41508,32937 41538,32947 41567,32955 41597,32963 41627,32970 41657,32977 41687,32982 41717,32987 41747,32991 41778,32995 41808,32997 41839,32999 41870,33000 41900,33001 41931,33000 41962,32999 41992,32997 42023,32995 42054,32991 42084,32987 42114,32982 42144,32977 42174,32970 42204,32963 42234,32955 42263,32947 42293,32937 42322,32927 42350,32917 42379,32905 42407,32893 42435,32881 42463,32867 42490,32853 42517,32838 42543,32823 42569,32807 42595,32790 42620,32772 42645,32755 42670,32736 42694,32717 42717,32697 42740,32677 42763,32656 42785,32634 42806,32612 42827,32590 42847,32567 42867,32544 42886,32520 42905,32495 42923,32470 42940,32445 42957,32419 42973,32393 42988,32367 43003,32340 43017,32313 43031,32285 43044,32257 43056,32229 43067,32200 43078,32172 43088,32143 43097,32113 43106,32084 43113,32054 43120,32024 43127,31994 43132,31964 43137,31934 43141,31904 43145,31873 43147,31842 43149,31812 43151,31781 43151,31751 Z"/>
   </g>
  </g>
  <g class="com.sun.star.drawing.PolyPolygonShape">
   <g id="id4">
    <rect class="BoundingBox" stroke="none" fill="none" x="40702" y="30553" width="2396" height="2395"/>
    <path fill="rgb(255,255,255)" stroke="none" d="M 43097,31750 L 43097,31720 43096,31691 43094,31661 43091,31632 43088,31603 43084,31574 43080,31545 43074,31516 43068,31487 43061,31459 43054,31430 43046,31402 43037,31374 43027,31346 43017,31319 43006,31292 42995,31265 42982,31238 42969,31212 42956,31185 42942,31160 42927,31134 42912,31109 42896,31085 42879,31061 42862,31037 42844,31013 42826,30990 42807,30968 42787,30946 42767,30925 42747,30903 42726,30883 42704,30863 42682,30844 42660,30825 42637,30806 42613,30789 42590,30771 42565,30755 42541,30739 42516,30723 42490,30709 42465,30694 42439,30681 42412,30668 42385,30656 42358,30644 42331,30633 42304,30623 42276,30613 42248,30605 42220,30596 42191,30589 42163,30582 42134,30576 42105,30571 42076,30566 42047,30562 42018,30559 41989,30556 41959,30554 41930,30553 41901,30553 41870,30553 41841,30554 41811,30556 41782,30559 41753,30562 41724,30566 41695,30571 41666,30576 41637,30582 41609,30589 41580,30596 41552,30605 41524,30613 41496,30623 41469,30633 41442,30644 41415,30656 41388,30668 41361,30681 41335,30694 41310,30709 41284,30723 41259,30739 41235,30755 41210,30771 41187,30789 41163,30806 41140,30825 41118,30844 41096,30863 41074,30883 41053,30903 41033,30925 41013,30946 40993,30968 40974,30990 40956,31013 40938,31037 40921,31061 40904,31085 40888,31109 40873,31134 40858,31160 40844,31185 40831,31212 40818,31238 40805,31265 40794,31292 40783,31319 40773,31346 40763,31374 40754,31402 40746,31430 40739,31459 40732,31487 40726,31516 40720,31545 40716,31574 40712,31603 40709,31632 40706,31661 40704,31691 40703,31720 40703,31749 40703,31779 40704,31808 40706,31838 40709,31867 40712,31896 40716,31925 40720,31954 40726,31983 40732,32012 40739,32040 40746,32069 40754,32097 40763,32125 40773,32153 40783,32180 40794,32207 40805,32234 40818,32261 40831,32287 40844,32315 40858,32340 40873,32366 40888,32391 40904,32415 40921,32439 40938,32463 40956,32487 40974,32510 40993,32532 41013,32554 41033,32575 41053,32597 41074,32617 41096,32637 41118,32656 41140,32675 41163,32694 41187,32712 41210,32729 41235,32745 41259,32761 41284,32777 41310,32792 41335,32806 41361,32819 41388,32832 41415,32844 41442,32856 41469,32867 41496,32877 41524,32887 41552,32895 41580,32904 41609,32911 41637,32918 41666,32924 41695,32929 41724,32934 41753,32938 41782,32941 41811,32944 41841,32946 41870,32947 41900,32947 41930,32947 41959,32946 41989,32944 42018,32941 42047,32938 42076,32934 42105,32929 42134,32924 42163,32918 42191,32911 42220,32904 42248,32895 42276,32887 42304,32877 42331,32867 42358,32856 42385,32844 42412,32832 42439,32819 42465,32806 42490,32792 42516,32777 42541,32761 42565,32745 42590,32729 42613,32712 42637,32694 42660,32675 42682,32656 42704,32637 42726,32617 42747,32597 42767,32575 42787,32554 42807,32532 42826,32510 42844,32487 42862,32463 42879,32439 42896,32415 42912,32391 42927,32366 42942,32340 42956,32315 42969,32287 42982,32261 42995,32234 43006,32207 43017,32180 43027,32153 43037,32125 43046,32097 43054,32069 43061,32040 43068,32012 43074,31983 43080,31954 43084,31925 43088,31896 43091,31867 43094,31838 43096,31808 43097,31779 43097,31750 Z"/>
   </g>
  </g>
  <g class="com.sun.star.drawing.PolyPolygonShape">
   <g id="id5">
    <rect class="BoundingBox" stroke="none" fill="none" x="40756" y="30607" width="2289" height="2287"/>
    <path fill="rgb(0,0,255)" stroke="none" d="M 43044,31751 L 43043,31723 43042,31694 43041,31666 43038,31639 43035,31611 43031,31583 43027,31555 43022,31528 43016,31500 43009,31473 43002,31446 42994,31419 42986,31392 42977,31366 42967,31339 42957,31313 42946,31287 42934,31262 42922,31237 42909,31212 42895,31187 42881,31163 42866,31139 42851,31116 42835,31092 42819,31070 42802,31047 42784,31026 42766,31004 42748,30983 42728,30962 42709,30942 42689,30923 42668,30904 42647,30885 42626,30867 42604,30850 42582,30832 42559,30815 42536,30799 42512,30784 42488,30769 42464,30755 42439,30742 42414,30729 42389,30716 42364,30705 42338,30694 42312,30683 42285,30673 42258,30664 42231,30656 42204,30648 42177,30641 42150,30634 42123,30629 42095,30623 42067,30619 42039,30615 42012,30612 41984,30610 41956,30608 41928,30607 41900,30607 41871,30607 41843,30608 41815,30610 41787,30612 41760,30615 41732,30619 41704,30623 41676,30629 41649,30634 41622,30641 41595,30648 41568,30656 41541,30664 41514,30673 41488,30683 41462,30694 41436,30705 41411,30716 41386,30729 41361,30742 41336,30755 41312,30769 41288,30784 41264,30799 41241,30815 41218,30832 41196,30850 41174,30867 41153,30885 41132,30904 41111,30923 41091,30942 41072,30962 41052,30983 41034,31004 41016,31026 40998,31047 40981,31070 40965,31092 40949,31116 40934,31139 40919,31163 40905,31187 40891,31212 40878,31237 40866,31262 40854,31287 40843,31313 40833,31339 40823,31366 40814,31392 40806,31419 40798,31446 40791,31473 40784,31500 40778,31528 40773,31555 40769,31583 40765,31611 40762,31639 40759,31666 40758,31694 40757,31723 40756,31750 40757,31779 40758,31807 40759,31835 40762,31863 40765,31890 40769,31918 40773,31946 40778,31973 40784,32001 40791,32028 40798,32055 40806,32082 40814,32109 40823,32135 40833,32162 40843,32188 40854,32214 40866,32239 40878,32264 40891,32289 40905,32314 40919,32338 40934,32362 40949,32385 40965,32409 40981,32431 40998,32454 41016,32475 41034,32497 41052,32518 41072,32539 41091,32559 41111,32578 41132,32597 41153,32616 41174,32634 41196,32652 41218,32668 41241,32685 41264,32701 41288,32716 41312,32731 41336,32745 41361,32758 41386,32771 41411,32784 41436,32795 41462,32806 41488,32817 41514,32827 41541,32836 41568,32844 41595,32852 41622,32859 41649,32866 41676,32871 41704,32877 41732,32881 41760,32885 41787,32888 41815,32890 41843,32892 41871,32893 41899,32893 41928,32893 41956,32892 41984,32890 42012,32888 42039,32885 42067,32881 42095,32877 42123,32871 42150,32866 42177,32859 42204,32852 42231,32844 42258,32836 42285,32827 42312,32817 42338,32806 42364,32795 42389,32784 42414,32771 42439,32758 42464,32745 42488,32731 42512,32716 42536,32701 42559,32685 42582,32668 42604,32652 42626,32634 42647,32616 42668,32597 42689,32578 42709,32559 42728,32539 42748,32518 42766,32497 42784,32475 42802,32454 42819,32431 42835,32409 42851,32385 42866,32362 42881,32338 42895,32314 42909,32289 42922,32264 42934,32239 42946,32214 42957,32188 42967,32162 42977,32135 42986,32109 42994,32082 43002,32055 43009,32028 43016,32001 43022,31973 43027,31946 43031,31918 43035,31890 43038,31863 43041,31835 43042,31807 43043,31779 43044,31751 Z"/>
   </g>
  </g>
  <g class="com.sun.star.drawing.PolyPolygonShape">
   <g id="id6">
    <rect class="BoundingBox" stroke="none" fill="none" x="41149" y="31301" width="1504" height="826"/>
    <path fill="rgb(255,255,255)" stroke="none" d="M 42619,31649 L 42603,31658 42596,31647 42588,31637 42580,31628 42572,31618 42563,31609 42553,31601 42544,31593 42534,31585 42523,31578 42513,31571 42502,31565 42490,31559 42479,31554 42467,31549 42455,31545 42443,31541 42431,31538 42419,31535 42406,31533 42394,31531 42381,31530 42368,31530 42356,31530 42343,31531 42330,31532 42318,31534 42305,31536 42293,31539 42281,31542 42269,31546 42257,31551 42246,31556 42237,31540 42250,31535 42262,31530 42275,31526 42288,31522 42301,31519 42314,31516 42328,31514 42341,31513 42355,31512 42368,31512 42382,31513 42395,31514 42408,31515 42422,31517 42435,31520 42448,31524 42461,31528 42474,31532 42486,31537 42498,31543 42510,31549 42522,31556 42533,31563 42545,31571 42555,31579 42565,31588 42575,31597 42585,31606 42594,31616 42603,31627 42611,31638 42619,31649 Z M 42223,31567 L 42208,31577 42193,31587 42179,31598 42166,31611 42153,31623 42142,31637 42131,31652 42121,31667 42112,31682 42104,31700 42097,31716 42091,31733 42087,31751 42083,31768 42081,31786 42079,31804 42062,31804 42063,31785 42065,31766 42069,31747 42074,31728 42080,31710 42088,31692 42096,31674 42106,31657 42116,31641 42128,31626 42140,31611 42154,31598 42168,31585 42183,31573 42199,31562 42215,31552 42223,31567 Z M 42259,31583 L 42270,31579 42280,31575 42291,31571 42302,31568 42313,31566 42324,31564 42335,31562 42346,31561 42357,31560 42368,31560 42380,31561 42391,31562 42402,31563 42413,31565 42424,31567 42435,31570 42446,31573 42456,31577 42467,31581 42477,31586 42487,31591 42496,31597 42506,31603 42515,31609 42524,31616 42533,31623 42541,31631 42549,31639 42557,31647 42564,31655 42571,31664 42577,31673 42408,31776 42402,31771 42396,31766 42388,31763 42381,31760 42373,31758 42365,31758 42358,31758 42350,31760 42259,31583 Z M 42237,31594 L 42224,31603 42211,31612 42198,31622 42187,31633 42175,31644 42165,31656 42156,31669 42147,31683 42139,31697 42132,31712 42126,31726 42121,31741 42117,31757 42113,31772 42111,31788 42110,31804 42307,31804 42309,31799 42310,31795 42312,31790 42315,31786 42317,31782 42320,31778 42324,31774 42327,31771 42237,31594 Z M 42590,31696 L 42596,31709 42602,31722 42607,31735 42611,31749 42615,31763 42617,31777 42619,31791 42620,31805 42620,31820 42620,31834 42618,31848 42616,31862 42613,31876 42609,31890 42605,31904 42600,31917 42594,31930 42587,31943 42580,31955 42572,31967 42563,31978 42554,31989 42544,31999 42533,32009 42522,32018 42511,32026 42499,32034 42486,32041 42473,32048 42460,32053 42447,32058 42433,32063 42419,32066 42405,32069 42391,32071 42377,32072 42363,32072 42348,32071 42334,32070 42320,32068 42306,32065 42292,32061 42278,32057 42265,32052 42252,32046 42239,32039 42227,32032 42215,32024 42204,32015 42193,32006 42183,31996 42173,31985 42164,31974 42155,31963 42148,31951 42140,31938 42134,31926 42128,31912 42123,31899 42119,31885 42115,31872 42113,31857 42111,31843 42110,31829 42307,31829 42309,31835 42311,31840 42314,31846 42317,31851 42321,31855 42325,31860 42330,31864 42334,31867 42340,31870 42345,31872 42351,31874 42357,31875 42363,31875 42369,31875 42375,31875 42381,31873 42386,31872 42392,31869 42397,31866 42402,31863 42406,31859 42410,31854 42414,31849 42417,31844 42419,31839 42421,31833 42423,31827 42424,31821 42424,31815 42423,31809 42422,31803 42421,31798 42590,31696 Z M 41739,31793 L 41721,31794 41720,31784 41719,31775 41717,31765 41715,31756 41713,31746 41711,31737 41708,31728 41704,31719 41701,31710 41697,31701 41693,31692 41689,31682 41684,31674 41679,31665 41674,31657 41668,31649 41663,31642 41657,31634 41650,31627 41644,31619 41637,31613 41630,31606 41623,31599 41615,31593 41608,31587 41600,31582 41592,31576 41584,31571 41575,31566 41567,31562 41558,31557 41549,31553 41554,31536 41563,31540 41573,31544 41582,31549 41591,31554 41600,31560 41608,31566 41617,31572 41625,31578 41633,31585 41641,31592 41649,31599 41656,31606 41663,31614 41670,31622 41676,31630 41683,31638 41688,31647 41694,31655 41699,31664 41704,31673 41709,31683 41713,31693 41718,31703 41721,31712 41725,31722 41728,31732 41730,31742 41733,31752 41735,31762 41737,31773 41738,31783 41739,31793 Z M 41470,31796 L 41471,31799 41473,31803 41692,31795 41690,31778 41687,31761 41683,31745 41678,31729 41671,31713 41664,31697 41655,31682 41646,31667 41636,31654 41625,31641 41613,31629 41600,31617 41586,31607 41572,31597 41557,31589 41542,31581 41508,31714 41505,31725 41502,31736 41498,31747 41494,31758 41489,31768 41483,31778 41477,31787 41470,31796 Z M 41451,31780 L 41445,31778 41439,31777 41433,31777 41427,31778 41422,31780 41416,31783 41412,31786 41407,31790 41404,31794 41401,31800 41398,31805 41397,31811 41397,31817 41397,31822 41399,31828 41401,31834 41404,31839 41407,31843 41412,31847 41417,31851 41422,31853 41428,31855 41433,31856 41439,31856 41445,31855 41451,31853 41456,31850 41461,31847 41465,31843 41469,31838 41472,31833 41474,31828 41693,31820 41693,31830 41692,31840 41691,31850 41689,31860 41688,31870 41685,31880 41683,31890 41680,31899 41676,31909 41672,31918 41668,31927 41664,31936 41659,31945 41653,31954 41648,31962 41642,31971 41636,31979 41629,31986 41623,31994 41615,32001 41608,32008 41600,32014 41593,32021 41584,32027 41576,32032 41568,32038 41559,32043 41550,32047 41541,32052 41531,32055 41522,32059 41512,32062 41503,32065 41493,32067 41483,32069 41473,32071 41463,32072 41453,32073 41443,32074 41433,32074 41423,32073 41412,32073 41403,32071 41392,32070 41383,32068 41373,32066 41363,32063 41353,32060 41344,32057 41335,32053 41325,32049 41316,32044 41308,32039 41299,32034 41290,32029 41282,32023 41274,32016 41266,32010 41259,32003 41252,31996 41244,31989 41237,31981 41231,31973 41225,31965 41219,31957 41214,31948 41209,31939 41204,31930 41200,31921 41196,31912 41193,31903 41189,31893 41187,31883 41184,31874 41182,31864 41181,31854 41179,31844 41178,31834 41178,31823 41178,31813 41178,31803 41179,31793 41180,31783 41181,31773 41183,31763 41186,31753 41188,31744 41191,31734 41195,31725 41199,31715 41203,31706 41207,31697 41212,31688 41217,31679 41223,31670 41229,31662 41235,31654 41241,31646 41248,31639 41256,31632 41264,31625 41271,31618 41279,31612 41287,31606 41296,31600 41304,31595 41313,31590 41322,31585 41331,31581 41341,31577 41350,31573 41360,31570 41369,31567 41379,31565 41389,31563 41399,31561 41409,31560 41419,31559 41429,31559 41439,31558 41449,31559 41459,31560 41469,31561 41479,31562 41489,31564 41499,31566 41509,31569 41518,31572 41483,31709 41481,31719 41478,31728 41475,31738 41471,31747 41467,31756 41462,31764 41457,31772 41451,31780 Z M 41988,31979 L 41988,32004 41920,32004 41920,31979 41943,31979 41943,31902 41938,31901 41933,31900 41927,31898 41922,31896 41917,31894 41912,31892 41908,31889 41903,31886 41899,31882 41895,31879 41891,31875 41887,31871 41884,31866 41881,31862 41878,31857 41876,31852 41874,31847 41872,31842 41871,31837 41870,31831 41869,31826 41868,31820 41868,31815 41869,31810 41869,31804 41870,31799 41872,31793 41873,31788 41875,31783 41877,31778 41880,31773 41883,31769 41568,31481 41556,31525 41568,31530 41580,31536 41591,31542 41602,31549 41613,31556 41624,31563 41634,31571 41644,31580 41653,31589 41663,31598 41671,31607 41680,31617 41688,31627 41695,31638 41702,31649 41709,31660 41715,31671 41721,31683 41726,31695 41731,31708 41735,31720 41739,31732 41742,31745 41745,31757 41747,31770 41749,31783 41750,31796 41750,31809 41750,31822 41750,31835 41749,31848 41747,31861 41737,31859 41738,31849 41739,31839 41739,31829 41740,31819 41722,31819 41721,31832 41721,31844 41719,31857 41717,31869 41714,31881 41711,31893 41708,31905 41704,31917 41699,31929 41694,31940 41688,31951 41682,31962 41675,31973 41668,31983 41661,31993 41653,32003 41644,32012 41635,32021 41626,32030 41617,32038 41607,32046 41597,32053 41586,32060 41575,32066 41564,32072 41553,32077 41541,32082 41530,32086 41518,32090 41506,32094 41493,32097 41481,32099 42320,32099 42308,32097 42296,32094 42284,32091 42272,32087 42261,32083 42250,32078 42239,32073 42228,32067 42217,32061 42207,32055 42197,32048 42187,32040 42178,32032 42169,32024 42160,32016 42152,32007 42144,31997 42136,31988 42129,31978 42122,31968 42116,31957 42110,31946 42105,31935 42100,31924 42096,31913 42092,31901 42089,31889 42086,31877 42083,31866 42082,31853 42080,31841 42079,31829 42062,31829 42062,31839 42063,31850 42064,31860 42066,31870 42055,31872 42054,31861 42052,31851 42051,31840 42051,31829 42039,31829 42038,31836 42036,31843 42033,31849 42031,31855 42027,31862 42023,31867 42019,31873 42014,31878 42009,31883 42003,31887 41998,31890 41991,31894 41985,31897 41978,31899 41972,31901 41965,31902 41965,31979 41988,31979 Z M 42210,31542 L 42202,31547 42193,31552 42185,31558 42177,31564 42169,31570 42161,31576 42154,31583 42146,31590 42139,31597 42133,31604 42126,31611 42120,31619 42113,31627 42108,31635 42102,31643 42097,31652 42091,31660 42087,31669 42082,31678 42078,31688 42074,31697 42070,31707 42067,31716 42064,31726 42061,31735 42059,31745 42057,31755 42055,31764 42053,31774 42052,31784 42051,31794 42051,31804 42039,31804 42037,31795 42034,31787 42031,31779 42027,31771 42021,31764 42016,31757 42009,31751 42002,31745 42152,31429 42210,31542 Z M 41920,31628 L 41988,31628 41988,31653 41965,31653 41965,31731 41972,31733 41979,31735 42127,31423 41583,31423 41575,31454 41900,31750 41905,31747 41910,31743 41915,31740 41920,31738 41926,31736 41932,31734 41937,31733 41943,31731 41943,31653 41920,31653 41920,31628 Z M 41670,31332 L 41680,31330 41691,31330 41702,31330 41712,31332 41716,31331 41720,31328 41722,31325 41724,31321 41724,31317 41724,31313 41722,31309 41719,31306 41715,31304 41710,31303 41705,31302 41701,31301 41696,31301 41691,31301 41686,31301 41681,31302 41670,31304 41658,31306 41646,31307 41635,31308 41623,31308 41611,31308 41599,31308 41587,31307 41533,31517 41522,31513 41511,31510 41500,31508 41489,31506 41477,31504 41466,31503 41455,31502 41443,31501 41432,31501 41420,31502 41409,31502 41398,31504 41386,31505 41375,31507 41364,31510 41353,31513 41356,31523 41367,31520 41377,31518 41388,31516 41399,31514 41410,31513 41421,31512 41432,31512 41443,31512 41454,31513 41465,31513 41476,31515 41487,31516 41498,31518 41509,31521 41520,31524 41530,31527 41526,31544 41512,31540 41497,31536 41483,31534 41468,31532 41453,31530 41439,31530 41424,31530 41409,31531 41395,31533 41380,31535 41366,31539 41352,31543 41337,31547 41324,31553 41310,31559 41297,31566 41285,31573 41272,31581 41261,31590 41248,31600 41237,31609 41227,31620 41217,31631 41208,31642 41199,31654 41191,31667 41184,31680 41177,31694 41171,31707 41166,31721 41161,31735 41157,31749 41154,31763 41152,31778 41150,31793 41149,31807 41149,31822 41150,31837 41151,31852 41154,31866 41157,31881 41160,31895 41165,31909 41170,31923 41176,31936 41182,31950 41189,31962 41197,31975 41206,31987 41215,31999 41224,32010 41235,32020 41245,32030 41258,32040 41269,32049 41282,32057 41294,32065 41307,32072 41321,32078 41334,32084 41348,32088 41362,32093 41377,32096 41391,32099 41185,32099 41185,32126 42615,32126 42615,32099 42410,32099 42427,32095 42443,32091 42460,32086 42475,32080 42491,32073 42506,32065 42521,32056 42535,32046 42548,32036 42561,32025 42573,32013 42584,32000 42595,31986 42604,31972 42613,31958 42621,31943 42628,31927 42635,31911 42640,31895 42644,31879 42647,31862 42649,31845 42651,31828 42651,31811 42650,31794 42648,31777 42645,31760 42641,31744 42636,31727 42631,31711 42624,31695 42616,31679 42631,31670 42637,31680 42641,31691 42651,31687 42644,31672 42637,31658 42629,31645 42620,31632 42611,31620 42601,31608 42590,31596 42579,31585 42567,31575 42555,31566 42543,31556 42530,31548 42516,31540 42503,31533 42489,31527 42474,31521 42460,31516 42445,31512 42429,31508 42414,31505 42399,31503 42383,31502 42368,31501 42352,31502 42337,31503 42321,31504 42306,31507 42291,31510 42276,31514 42261,31519 42247,31524 42232,31530 42166,31400 42181,31368 42183,31366 42185,31364 42187,31363 42190,31362 42194,31361 42198,31360 42201,31358 42204,31355 42206,31353 42207,31351 42208,31349 42208,31347 42209,31345 42209,31343 42208,31341 42208,31339 42207,31337 42206,31335 42204,31333 42203,31332 42201,31331 42199,31330 42197,31329 42195,31329 42178,31327 42161,31325 42145,31325 42128,31325 42111,31325 42095,31326 42078,31328 42062,31331 42060,31332 42058,31333 42056,31334 42055,31336 42053,31338 42053,31340 42052,31343 42052,31345 42053,31347 42053,31350 42055,31352 42056,31354 42058,31355 42060,31356 42062,31357 42064,31358 42137,31361 42140,31361 42143,31362 42146,31363 42148,31366 42149,31369 42150,31372 42149,31375 42148,31378 42139,31398 41590,31398 41605,31339 41613,31339 41621,31339 41629,31339 41638,31338 41646,31337 41654,31336 41662,31334 41670,31332 Z"/>
   </g>
  </g>
 </g>
</svg>