<?xml version="1.0" encoding="UTF-8"?>
<!DOCTYPE svg PUBLIC "-//W3C//DTD SVG 1.1//EN" "http://www.w3.org/Graphics/SVG/1.1/DTD/svg11.dtd">
<svg version="1.2" width="25.04mm" height="25.02mm" viewBox="43648 30500 2504 2502" preserveAspectRatio="xMidYMid" fill-rule="evenodd" stroke-width="28.222" stroke-linejoin="round" xmlns="http://www.w3.org/2000/svg" xmlns:ooo="http://xml.openoffice.org/svg/export" xmlns:xlink="http://www.w3.org/1999/xlink" xmlns:presentation="http://sun.com/xmlns/staroffice/presentation" xmlns:smil="http://www.w3.org/2001/SMIL20/" xmlns:anim="urn:oasis:names:tc:opendocument:xmlns:animation:1.0" xml:space="preserve">
 <defs class="EmbeddedBulletChars">
  <g id="bullet-char-template-57356" transform="scale(0.00048828125,-0.00048828125)">
   <path d="M 580,1141 L 1163,571 580,0 -4,571 580,1141 Z"/>
  </g>
  <g id="bullet-char-template-57354" transform="scale(0.00048828125,-0.00048828125)">
   <path d="M 8,1128 L 1137,1128 1137,0 8,0 8,1128 Z"/>
  </g>
  <g id="bullet-char-template-10146" transform="scale(0.00048828125,-0.00048828125)">
   <path d="M 174,0 L 602,739 174,1481 1456,739 174,0 Z M 1358,739 L 309,1346 659,739 1358,739 Z"/>
  </g>
  <g id="bullet-char-template-10132" transform="scale(0.00048828125,-0.00048828125)">
   <path d="M 2015,739 L 1276,0 717,0 1260,543 174,543 174,936 1260,936 717,1481 1274,1481 2015,739 Z"/>
  </g>
  <g id="bullet-char-template-10007" transform="scale(0.00048828125,-0.00048828125)">
   <path d="M 0,-2 C -7,14 -16,27 -25,37 L 356,567 C 262,823 215,952 215,954 215,979 228,992 255,992 264,992 276,990 289,987 310,991 331,999 354,1012 L 381,999 492,748 772,1049 836,1024 860,1049 C 881,1039 901,1025 922,1006 886,937 835,863 770,784 769,783 710,716 594,584 L 774,223 C 774,196 753,168 711,139 L 727,119 C 717,90 699,76 672,76 641,76 570,178 457,381 L 164,-76 C 142,-110 111,-127 72,-127 30,-127 9,-110 8,-76 1,-67 -2,-52 -2,-32 -2,-23 -1,-13 0,-2 Z"/>
  </g>
  <g id="bullet-char-template-10004" transform="scale(0.00048828125,-0.00048828125)">
   <path d="M 285,-33 C 182,-33 111,30 74,156 52,228 41,333 41,471 41,549 55,616 82,672 116,743 169,778 240,778 293,778 328,747 346,684 L 369,508 C 377,444 397,411 428,410 L 1163,1116 C 1174,1127 1196,1133 1229,1133 1271,1133 1292,1118 1292,1087 L 1292,965 C 1292,929 1282,901 1262,881 L 442,47 C 390,-6 338,-33 285,-33 Z"/>
  </g>
  <g id="bullet-char-template-9679" transform="scale(0.00048828125,-0.00048828125)">
   <path d="M 813,0 C 632,0 489,54 383,161 276,268 223,411 223,592 223,773 276,916 383,1023 489,1130 632,1184 813,1184 992,1184 1136,1130 1245,1023 1353,916 1407,772 1407,592 1407,412 1353,268 1245,161 1136,54 992,0 813,0 Z"/>
  </g>
  <g id="bullet-char-template-8226" transform="scale(0.00048828125,-0.00048828125)">
   <path d="M 346,457 C 273,457 209,483 155,535 101,586 74,649 74,723 74,796 101,859 155,911 209,963 273,989 346,989 419,989 480,963 531,910 582,859 608,796 608,723 608,648 583,586 532,535 482,483 420,457 346,457 Z"/>
  </g>
  <g id="bullet-char-template-8211" transform="scale(0.00048828125,-0.00048828125)">
   <path d="M -4,459 L 1135,459 1135,606 -4,606 -4,459 Z"/>
  </g>
  <g id="bullet-char-template-61548" transform="scale(0.00048828125,-0.00048828125)">
   <path d="M 173,740 C 173,903 231,1043 346,1159 462,1274 601,1332 765,1332 928,1332 1067,1274 1183,1159 1299,1043 1357,903 1357,740 1357,577 1299,437 1183,322 1067,206 928,148 765,148 601,148 462,206 346,322 231,437 173,577 173,740 Z"/>
  </g>
 </defs>
 <g class="Page">
  <g class="com.sun.star.drawing.PolyPolygonShape">
   <g id="id3">
    <rect class="BoundingBox" stroke="none" fill="none" x="43648" y="30500" width="2504" height="2502"/>
    <path fill="rgb(0,0,255)" stroke="none" d="M 46151,31751 L 46151,31720 46149,31689 46147,31659 46145,31628 46141,31597 46137,31567 46132,31537 46127,31507 46121,31477 46113,31447 46106,31417 46097,31388 46088,31358 46078,31329 46067,31301 46056,31272 46044,31244 46031,31215 46017,31187 46003,31160 45988,31133 45973,31107 45957,31081 45940,31055 45923,31030 45905,31005 45886,30980 45867,30956 45847,30933 45827,30910 45806,30888 45785,30866 45763,30844 45740,30823 45717,30803 45694,30783 45670,30764 45645,30745 45620,30728 45595,30710 45570,30693 45543,30677 45517,30662 45490,30647 45463,30633 45435,30620 45407,30607 45379,30595 45350,30583 45322,30573 45293,30563 45263,30553 45234,30545 45204,30537 45174,30530 45144,30523 45114,30518 45084,30513 45054,30509 45023,30505 44992,30503 44962,30501 44931,30500 44901,30500 44870,30500 44839,30501 44808,30503 44778,30505 44747,30509 44717,30513 44687,30518 44657,30523 44627,30530 44597,30537 44567,30545 44538,30553 44508,30563 44479,30573 44451,30583 44422,30595 44394,30607 44366,30620 44338,30633 44311,30647 44284,30662 44258,30677 44232,30693 44206,30710 44181,30728 44156,30745 44131,30764 44107,30783 44084,30803 44061,30823 44038,30844 44016,30866 43995,30888 43974,30910 43954,30933 43934,30956 43915,30980 43896,31005 43878,31030 43861,31055 43844,31081 43828,31107 43813,31133 43798,31160 43784,31187 43770,31215 43757,31244 43744,31272 43733,31301 43722,31329 43712,31358 43703,31388 43694,31417 43687,31447 43680,31477 43673,31507 43668,31537 43663,31567 43659,31597 43655,31628 43652,31659 43651,31689 43649,31720 43649,31750 43649,31781 43651,31812 43652,31843 43655,31873 43659,31904 43663,31934 43668,31964 43673,31994 43680,32024 43687,32054 43694,32084 43703,32113 43712,32143 43722,32172 43733,32200 43744,32229 43757,32257 43770,32285 43784,32313 43798,32340 43813,32367 43828,32393 43844,32419 43861,32445 43878,32470 43896,32495 43915,32520 43934,32544 43954,32567 43974,32590 43995,32612 44016,32634 44038,32656 44061,32677 44084,32697 44107,32717 44131,32736 44156,32755 44181,32772 44206,32790 44232,32807 44258,32823 44284,32838 44311,32853 44338,32867 44366,32881 44394,32893 44422,32905 44451,32917 44479,32927 44508,32937 44538,32947 44567,32955 44597,32963 44627,32970 44657,32977 44687,32982 44717,32987 44747,32991 44778,32995 44808,32997 44839,32999 44870,33000 44900,33001 44931,33000 44962,32999 44992,32997 45023,32995 45054,32991 45084,32987 45114,32982 45144,32977 45174,32970 45204,32963 45234,32955 45263,32947 45293,32937 45322,32927 45350,32917 45379,32905 45407,32893 45435,32881 45463,32867 45490,32853 45517,32838 45543,32823 45570,32807 45595,32790 45620,32772 45645,32755 45670,32736 45694,32717 45717,32697 45740,32677 45763,32656 45785,32634 45806,32612 45827,32590 45847,32567 45867,32544 45886,32520 45905,32495 45923,32470 45940,32445 45957,32419 45973,32393 45988,32367 46003,32340 46017,32313 46031,32285 46044,32257 46056,32229 46067,32200 46078,32172 46088,32143 46097,32113 46106,32084 46113,32054 46121,32024 46127,31994 46132,31964 46137,31934 46141,31904 46145,31873 46147,31843 46149,31812 46151,31781 46151,31751 Z"/>
   </g>
  </g>
  <g class="com.sun.star.drawing.PolyPolygonShape">
   <g id="id4">
    <rect class="BoundingBox" stroke="none" fill="none" x="43703" y="30553" width="2395" height="2395"/>
    <path fill="rgb(255,255,255)" stroke="none" d="M 46097,31750 L 46097,31720 46096,31691 46094,31662 46091,31632 46088,31603 46084,31574 46080,31545 46074,31516 46068,31487 46061,31459 46054,31430 46046,31402 46037,31374 46027,31346 46017,31319 46006,31292 45995,31265 45982,31238 45969,31212 45956,31186 45942,31160 45927,31134 45912,31109 45896,31085 45879,31061 45862,31037 45844,31013 45826,30990 45807,30968 45787,30946 45767,30925 45747,30904 45726,30883 45704,30863 45682,30844 45660,30825 45637,30806 45613,30789 45590,30771 45565,30755 45541,30739 45516,30723 45490,30709 45465,30694 45439,30681 45412,30668 45385,30656 45358,30644 45331,30633 45304,30623 45276,30613 45248,30605 45220,30596 45191,30589 45163,30582 45134,30576 45105,30571 45076,30566 45047,30562 45018,30559 44989,30556 44959,30555 44930,30553 44901,30553 44871,30553 44842,30555 44812,30556 44783,30559 44754,30562 44725,30566 44696,30571 44667,30576 44638,30582 44610,30589 44581,30596 44553,30605 44525,30613 44497,30623 44470,30633 44443,30644 44416,30656 44389,30668 44362,30681 44336,30694 44311,30709 44285,30723 44259,30739 44235,30755 44210,30771 44187,30789 44163,30806 44140,30825 44118,30844 44096,30863 44074,30883 44053,30904 44033,30925 44013,30946 43993,30968 43974,30990 43956,31013 43938,31037 43921,31061 43904,31085 43888,31109 43873,31134 43858,31160 43844,31186 43831,31212 43818,31238 43805,31265 43794,31292 43783,31319 43773,31346 43763,31374 43754,31402 43746,31430 43739,31459 43732,31487 43726,31516 43720,31545 43716,31574 43712,31603 43709,31632 43706,31662 43704,31691 43703,31720 43703,31749 43703,31779 43704,31808 43706,31838 43709,31867 43712,31896 43716,31925 43720,31954 43726,31983 43732,32012 43739,32040 43746,32069 43754,32097 43763,32125 43773,32153 43783,32180 43794,32207 43805,32234 43818,32261 43831,32287 43844,32315 43858,32340 43873,32366 43888,32391 43904,32415 43921,32439 43938,32463 43956,32487 43974,32510 43993,32532 44013,32554 44033,32576 44053,32597 44074,32617 44096,32637 44118,32656 44140,32675 44163,32694 44187,32712 44210,32729 44235,32745 44259,32761 44285,32777 44311,32792 44336,32806 44362,32819 44389,32832 44416,32844 44443,32856 44470,32867 44497,32877 44525,32887 44553,32896 44581,32904 44610,32911 44638,32918 44667,32924 44696,32929 44725,32934 44754,32938 44783,32941 44812,32944 44842,32946 44871,32947 44900,32947 44930,32947 44959,32946 44989,32944 45018,32941 45047,32938 45076,32934 45105,32929 45134,32924 45163,32918 45191,32911 45220,32904 45248,32896 45276,32887 45304,32877 45331,32867 45358,32856 45385,32844 45412,32832 45439,32819 45465,32806 45490,32792 45516,32777 45541,32761 45565,32745 45590,32729 45613,32712 45637,32694 45660,32675 45682,32656 45704,32637 45726,32617 45747,32597 45767,32576 45787,32554 45807,32532 45826,32510 45844,32487 45862,32463 45879,32439 45896,32415 45912,32391 45927,32366 45942,32340 45956,32315 45969,32287 45982,32261 45995,32234 46006,32207 46017,32180 46027,32153 46037,32125 46046,32097 46054,32069 46061,32040 46068,32012 46074,31983 46080,31954 46084,31925 46088,31896 46091,31867 46094,31838 46096,31808 46097,31779 46097,31750 Z"/>
   </g>
  </g>
  <g class="com.sun.star.drawing.PolyPolygonShape">
   <g id="id5">
    <rect class="BoundingBox" stroke="none" fill="none" x="43756" y="30607" width="1119" height="2287"/>
    <path fill="rgb(0,0,255)" stroke="none" d="M 44874,32893 L 44846,32892 44819,32890 44791,32888 44763,32885 44736,32881 44709,32877 44682,32872 44655,32867 44628,32860 44601,32853 44574,32846 44548,32838 44522,32829 44496,32819 44470,32809 44445,32799 44419,32787 44394,32775 44370,32763 44345,32750 44321,32736 44298,32722 44274,32707 44252,32691 44229,32676 44207,32659 44185,32642 44164,32624 44143,32606 44122,32588 44102,32569 44083,32549 44063,32529 44044,32509 44026,32488 44008,32466 43991,32445 43975,32423 43959,32400 43943,32377 43929,32354 43914,32330 43900,32306 43887,32282 43875,32257 43863,32232 43851,32207 43841,32182 43831,32156 43821,32130 43812,32104 43804,32077 43796,32051 43790,32024 43783,31997 43778,31970 43773,31943 43768,31916 43765,31888 43762,31861 43759,31833 43758,31806 43757,31778 43756,31751 43757,31723 43758,31695 43759,31668 43762,31640 43765,31613 43768,31585 43773,31558 43778,31531 43783,31504 43790,31477 43796,31450 43804,31424 43812,31397 43821,31371 43831,31345 43841,31319 43851,31294 43863,31269 43875,31244 43887,31219 43900,31195 43914,31171 43929,31147 43943,31124 43959,31101 43975,31079 43991,31056 44008,31035 44026,31013 44044,30992 44063,30972 44083,30952 44102,30932 44122,30913 44143,30895 44164,30877 44185,30859 44207,30841 44229,30825 44252,30809 44274,30793 44298,30778 44321,30764 44345,30750 44370,30737 44394,30725 44419,30713 44445,30702 44470,30691 44496,30681 44522,30671 44548,30662 44574,30654 44601,30647 44628,30640 44655,30633 44682,30628 44709,30623 44736,30619 44763,30615 44791,30612 44819,30610 44846,30608 44874,30607 44874,32893 Z"/>
   </g>
  </g>
  <g class="com.sun.star.drawing.PolyPolygonShape">
   <g id="id6">
    <rect class="BoundingBox" stroke="none" fill="none" x="44926" y="30607" width="1119" height="2287"/>
    <path fill="rgb(0,0,255)" stroke="none" d="M 44926,32893 L 44926,30607 44954,30608 44981,30610 45009,30612 45037,30615 45064,30619 45091,30623 45118,30628 45145,30633 45172,30640 45200,30647 45227,30654 45253,30662 45279,30671 45305,30681 45331,30691 45356,30702 45382,30713 45407,30725 45431,30737 45456,30750 45480,30764 45503,30778 45527,30793 45549,30809 45572,30825 45594,30841 45616,30859 45637,30877 45658,30895 45679,30913 45699,30932 45718,30952 45737,30972 45756,30992 45774,31013 45792,31035 45809,31056 45825,31079 45841,31101 45857,31124 45871,31147 45886,31171 45900,31195 45913,31219 45925,31244 45937,31269 45949,31294 45959,31319 45969,31345 45979,31371 45988,31397 45996,31424 46004,31450 46010,31477 46017,31504 46022,31531 46027,31558 46032,31585 46035,31613 46038,31640 46041,31668 46042,31695 46043,31723 46044,31751 46043,31778 46042,31806 46041,31833 46038,31861 46035,31888 46032,31916 46027,31943 46022,31970 46017,31997 46010,32024 46004,32051 45996,32077 45988,32104 45979,32130 45969,32156 45959,32182 45949,32207 45937,32232 45925,32257 45913,32282 45900,32306 45886,32330 45871,32354 45857,32377 45841,32400 45825,32423 45809,32445 45792,32466 45774,32488 45756,32509 45737,32529 45718,32549 45699,32569 45679,32588 45658,32606 45637,32624 45616,32642 45594,32659 45572,32676 45549,32691 45527,32707 45503,32722 45480,32736 45456,32750 45431,32763 45407,32775 45382,32787 45356,32799 45331,32809 45305,32819 45279,32829 45253,32838 45227,32846 45200,32853 45172,32860 45145,32867 45118,32872 45091,32877 45064,32881 45037,32885 45009,32888 44981,32890 44954,32892 44926,32893 Z"/>
   </g>
  </g>
  <g class="com.sun.star.drawing.PolyPolygonShape">
   <g id="id7">
    <rect class="BoundingBox" stroke="none" fill="none" x="43837" y="31503" width="987" height="552"/>
    <path fill="rgb(255,255,255)" stroke="none" d="M 44124,31608 L 44476,31608 44380,31809 44376,31808 44371,31807 44367,31807 44362,31807 44357,31757 44372,31755 44371,31745 44333,31749 44335,31759 44349,31758 44355,31807 44348,31809 44341,31812 44335,31815 44329,31819 44119,31628 44124,31608 Z M 44053,31869 L 44052,31873 44050,31876 44047,31879 44045,31882 44041,31884 44038,31886 44034,31887 44030,31887 44026,31887 44022,31886 44019,31885 44015,31883 44012,31881 44009,31878 44007,31875 44005,31872 44004,31868 44003,31864 44003,31860 44004,31856 44005,31852 44007,31849 44009,31846 44012,31843 44015,31841 44019,31839 44022,31837 44026,31837 44030,31837 44034,31837 44038,31838 44041,31840 44046,31831 44050,31822 44053,31812 44056,31803 44082,31704 44070,31701 44057,31698 44044,31696 44031,31695 44018,31696 44005,31697 43992,31700 43979,31703 43967,31707 43955,31713 43944,31719 43933,31726 43922,31734 43912,31743 43903,31752 43895,31762 43888,31773 43881,31785 43876,31796 43871,31808 43867,31821 43865,31834 43863,31847 43862,31860 43863,31873 43864,31886 43866,31899 43870,31911 43874,31924 43879,31936 43886,31947 43893,31958 43901,31968 43909,31978 43919,31987 43929,31995 43940,32003 43951,32009 43963,32015 43975,32020 43988,32023 44001,32026 44013,32028 44027,32028 44040,32028 44053,32027 44066,32024 44078,32021 44090,32017 44102,32011 44114,32005 44125,31998 44135,31990 44145,31981 44154,31972 44162,31962 44170,31951 44176,31940 44182,31928 44187,31916 44190,31903 44193,31890 44195,31877 44195,31864 44053,31869 Z M 44053,31853 L 44195,31848 44193,31837 44191,31826 44189,31816 44185,31805 44181,31795 44176,31785 44171,31775 44165,31766 44158,31757 44151,31749 44143,31741 44135,31734 44126,31727 44117,31721 44107,31715 44097,31710 44075,31795 44071,31807 44067,31819 44062,31830 44057,31841 44054,31845 44051,31849 44053,31853 Z M 44395,31816 L 44492,31611 44533,31690 44522,31697 44512,31704 44502,31712 44493,31720 44484,31729 44476,31739 44469,31749 44462,31759 44456,31770 44450,31781 44445,31793 44441,31805 44438,31817 44436,31829 44434,31841 44433,31854 44419,31854 44418,31848 44416,31843 44414,31837 44411,31832 44408,31828 44404,31823 44400,31819 44395,31816 Z M 44768,31770 L 44658,31836 44654,31832 44650,31829 44645,31827 44641,31825 44636,31824 44630,31824 44625,31824 44620,31825 44562,31711 44569,31708 44575,31706 44582,31704 44589,31702 44596,31700 44604,31699 44611,31698 44618,31697 44625,31697 44632,31697 44640,31697 44647,31697 44654,31698 44661,31700 44669,31701 44676,31703 44682,31705 44689,31708 44696,31710 44703,31713 44709,31717 44715,31720 44722,31724 44727,31728 44733,31733 44739,31737 44744,31742 44749,31747 44754,31753 44759,31758 44764,31764 44768,31770 Z M 44593,31870 L 44465,31870 44466,31879 44467,31888 44469,31897 44471,31907 44474,31915 44477,31924 44481,31933 44485,31941 44490,31949 44495,31957 44500,31964 44506,31971 44512,31978 44519,31984 44526,31990 44533,31996 44541,32001 44549,32006 44557,32010 44566,32014 44574,32017 44583,32020 44592,32023 44601,32025 44610,32026 44619,32027 44629,32027 44638,32027 44647,32026 44656,32025 44665,32023 44674,32021 44683,32019 44692,32015 44700,32012 44709,32007 44717,32003 44725,31998 44732,31992 44739,31986 44746,31980 44752,31974 44758,31966 44764,31959 44769,31952 44774,31944 44778,31935 44782,31927 44786,31918 44789,31910 44791,31901 44793,31892 44794,31882 44795,31873 44796,31864 44795,31855 44795,31845 44794,31836 44792,31827 44790,31818 44787,31809 44784,31801 44780,31792 44776,31784 44666,31850 44667,31853 44668,31857 44668,31861 44668,31865 44668,31869 44667,31873 44666,31876 44664,31880 44662,31883 44660,31886 44657,31889 44654,31892 44651,31894 44648,31896 44644,31897 44640,31899 44637,31900 44633,31900 44629,31900 44625,31900 44621,31899 44617,31898 44614,31896 44610,31895 44607,31892 44604,31890 44602,31887 44599,31884 44597,31881 44595,31877 44594,31874 44593,31870 Z M 44548,31719 L 44539,31724 44530,31730 44522,31737 44515,31744 44508,31751 44501,31759 44495,31767 44489,31776 44484,31785 44479,31794 44475,31804 44472,31813 44469,31823 44467,31833 44466,31844 44465,31854 44593,31854 44595,31848 44598,31842 44601,31837 44606,31832 44548,31719 Z M 44528,31555 L 44531,31554 44533,31553 44535,31551 44536,31549 44538,31545 44538,31542 44537,31540 44535,31537 44532,31536 44514,31534 44495,31532 44476,31532 44457,31533 44452,31533 44448,31534 44443,31536 44439,31539 44438,31541 44437,31544 44437,31546 44437,31549 44439,31551 44442,31553 44444,31554 44447,31553 44459,31553 44471,31554 44483,31555 44495,31556 44497,31556 44498,31558 44499,31560 44498,31561 44484,31591 44128,31591 44136,31562 44110,31545 44107,31543 44105,31541 44104,31538 44103,31536 44102,31533 44102,31530 44102,31527 44103,31524 44105,31522 44108,31520 44112,31519 44115,31519 44154,31519 44156,31519 44157,31518 44158,31518 44158,31516 44159,31513 44159,31509 44158,31507 44157,31505 44155,31504 44153,31503 44139,31503 44124,31503 44110,31504 44096,31506 44092,31507 44088,31508 44085,31511 44082,31514 44080,31518 44079,31522 44079,31526 44080,31530 44082,31536 44085,31541 44088,31546 44093,31550 44117,31567 44090,31675 44089,31675 44076,31671 44062,31668 44048,31666 44033,31665 44019,31665 44005,31666 43991,31669 43977,31672 43978,31677 43966,31681 43954,31685 43942,31691 43931,31697 43920,31704 43909,31712 43900,31720 43890,31729 43882,31739 43874,31749 43866,31759 43860,31771 43854,31782 43849,31794 43845,31806 43842,31819 43839,31831 43838,31844 43837,31857 43837,31870 43838,31883 43840,31896 43842,31908 43846,31921 43850,31933 43856,31945 43862,31956 43868,31967 43876,31978 43884,31988 43893,31997 43902,32006 43912,32014 43922,32022 43933,32028 43945,32035 43957,32040 43969,32044 43981,32048 43994,32051 44006,32053 44019,32054 44032,32054 44045,32053 44058,32052 44071,32049 44083,32046 44096,32042 44107,32037 44119,32031 44130,32025 44141,32018 44151,32010 44161,32001 44170,31992 44178,31982 44186,31972 44193,31961 44199,31950 44205,31938 44210,31926 44214,31914 44217,31901 44219,31889 44224,31889 44225,31881 44225,31873 44226,31865 44226,31857 44225,31849 44225,31841 44224,31833 44222,31825 44221,31817 44219,31809 44216,31802 44214,31794 44211,31786 44207,31779 44204,31772 44200,31765 44196,31758 44191,31751 44187,31744 44182,31738 44177,31732 44171,31726 44165,31720 44160,31715 44153,31709 44147,31705 44140,31700 44134,31695 44127,31691 44120,31687 44112,31684 44105,31680 44114,31645 44318,31831 44314,31838 44312,31845 44310,31852 44309,31859 44309,31867 44310,31875 44313,31882 44316,31889 44320,31895 44325,31901 44331,31906 44337,31910 44344,31913 44351,31916 44359,31917 44366,31917 44371,31967 44357,31969 44357,31978 44395,31975 44394,31965 44379,31966 44374,31917 44378,31916 44382,31914 44386,31913 44390,31911 44394,31909 44397,31906 44401,31904 44404,31901 44407,31897 44410,31894 44412,31890 44414,31886 44416,31883 44417,31879 44418,31874 44419,31870 44433,31870 44434,31883 44436,31897 44441,31896 44443,31906 44446,31916 44449,31925 44453,31935 44457,31944 44461,31953 44466,31962 44472,31971 44478,31979 44484,31987 44491,31994 44498,32001 44506,32008 44514,32015 44522,32021 44531,32026 44539,32031 44548,32036 44558,32040 44567,32043 44577,32046 44587,32049 44597,32051 44607,32052 44617,32054 44627,32054 44637,32054 44648,32053 44658,32052 44668,32050 44678,32048 44687,32045 44697,32042 44706,32038 44716,32034 44725,32029 44733,32024 44742,32018 44750,32012 44758,32005 44765,31999 44772,31991 44779,31984 44785,31976 44791,31967 44796,31959 44801,31950 44805,31940 44809,31931 44813,31921 44816,31912 44819,31902 44821,31892 44822,31882 44823,31872 44823,31861 44823,31851 44822,31841 44821,31831 44819,31821 44815,31811 44812,31801 44809,31792 44805,31783 44810,31780 44806,31772 44801,31763 44796,31755 44790,31747 44784,31739 44778,31732 44772,31724 44765,31718 44757,31711 44750,31705 44742,31699 44734,31694 44725,31689 44717,31685 44708,31681 44699,31677 44690,31674 44680,31671 44671,31669 44661,31667 44652,31666 44642,31665 44632,31665 44623,31665 44613,31665 44603,31667 44594,31668 44584,31670 44575,31673 44565,31676 44556,31679 44547,31683 44501,31593 44516,31560 44519,31558 44521,31556 44525,31555 44528,31555 Z"/>
   </g>
  </g>
  <g class="com.sun.star.drawing.PolyPolygonShape">
   <g id="id8">
    <rect class="BoundingBox" stroke="none" fill="none" x="45055" y="31236" width="782" height="1078"/>
    <path fill="rgb(255,255,255)" stroke="none" d="M 45531,31800 L 45526,31790 45524,31785 45523,31780 45523,31774 45523,31769 45521,31760 45518,31751 45380,31515 45368,31495 45355,31475 45338,31457 45318,31445 45299,31439 45279,31435 45269,31433 45261,31431 45257,31429 45255,31426 45254,31421 45254,31381 45259,31379 45264,31376 45268,31374 45273,31370 45277,31367 45280,31363 45284,31359 45287,31355 45290,31351 45292,31346 45295,31341 45296,31336 45298,31331 45299,31326 45299,31320 45300,31315 45300,31306 45299,31299 45298,31292 45296,31285 45294,31279 45291,31273 45288,31267 45284,31261 45279,31256 45274,31251 45268,31247 45262,31244 45256,31241 45250,31238 45243,31237 45236,31236 45229,31236 45222,31236 45216,31237 45209,31238 45202,31241 45196,31244 45190,31247 45185,31251 45179,31256 45175,31261 45171,31267 45167,31273 45164,31279 45162,31285 45160,31292 45159,31299 45159,31306 45159,31315 45159,31320 45160,31326 45161,31331 45162,31336 45164,31341 45166,31346 45169,31351 45171,31355 45174,31359 45178,31363 45182,31367 45186,31370 45190,31374 45195,31376 45199,31379 45204,31381 45204,31422 45204,31423 45204,31425 45204,31427 45203,31429 45201,31430 45200,31431 45198,31432 45196,31432 45187,31433 45177,31434 45168,31436 45159,31439 45150,31442 45141,31446 45132,31450 45124,31455 45116,31462 45109,31469 45103,31477 45096,31485 45090,31494 45085,31502 45079,31511 45075,31520 45071,31530 45067,31539 45064,31549 45061,31559 45059,31569 45057,31579 45056,31589 45055,31600 45055,31808 45056,31813 45057,31817 45059,31821 45062,31825 45066,31828 45070,31830 45074,31831 45079,31832 45083,31831 45088,31830 45092,31828 45095,31825 45098,31821 45100,31817 45102,31813 45102,31808 45102,31598 45102,31591 45104,31584 45106,31578 45109,31571 45111,31569 45113,31567 45116,31565 45118,31563 45121,31562 45124,31561 45128,31561 45131,31561 45134,31562 45137,31563 45139,31564 45141,31566 45143,31569 45144,31572 45145,31575 45144,31578 45144,32205 45144,32208 45145,32212 45146,32215 45147,32218 45148,32221 45150,32223 45152,32226 45154,32228 45156,32231 45159,32232 45162,32234 45165,32236 45168,32237 45171,32237 45174,32238 45177,32238 45180,32238 45183,32237 45187,32237 45190,32236 45192,32234 45195,32232 45198,32231 45200,32228 45202,32226 45204,32223 45206,32221 45207,32218 45208,32215 45209,32212 45210,32208 45210,32205 45210,31867 45210,31863 45212,31858 45214,31854 45216,31851 45220,31848 45224,31846 45228,31845 45232,31844 45237,31845 45241,31846 45245,31848 45249,31851 45251,31854 45254,31858 45255,31863 45255,31867 45255,32280 45255,32283 45256,32287 45257,32290 45258,32293 45259,32296 45261,32298 45263,32301 45265,32303 45267,32306 45270,32308 45273,32309 45275,32310 45278,32312 45282,32312 45285,32313 45288,32313 45291,32313 45295,32312 45298,32312 45301,32310 45304,32309 45306,32308 45309,32306 45311,32303 45313,32301 45315,32298 45317,32296 45318,32293 45319,32290 45320,32287 45321,32283 45321,32280 45321,31586 45322,31580 45323,31575 45325,31570 45328,31566 45332,31564 45336,31564 45341,31564 45345,31565 45349,31566 45352,31569 45356,31571 45358,31575 45476,31775 45480,31778 45484,31781 45488,31784 45492,31786 45498,31790 45502,31794 45507,31798 45510,31803 45513,31809 45516,31815 45517,31821 45518,31827 45519,31830 45520,31833 45521,31837 45523,31839 45525,31842 45527,31845 45529,31847 45532,31850 45535,31851 45537,31853 45540,31854 45544,31856 45547,31856 45550,31857 45554,31857 45557,31857 45653,31857 45593,32069 45644,32069 45644,32224 45644,32227 45645,32229 45646,32232 45648,32234 45650,32236 45653,32237 45655,32238 45658,32238 45661,32238 45663,32237 45666,32236 45668,32234 45670,32232 45671,32229 45672,32227 45672,32224 45672,32069 45683,32068 45694,32068 45705,32068 45716,32069 45716,32190 45716,32192 45717,32195 45718,32197 45720,32199 45722,32201 45724,32203 45727,32203 45730,32204 45733,32203 45735,32203 45738,32201 45740,32199 45741,32197 45743,32195 45744,32192 45744,32190 45744,32069 45800,32069 45734,31882 45734,31881 45734,31879 45735,31878 45736,31877 45738,31877 45739,31877 45741,31878 45742,31879 45815,31949 45816,31951 45818,31952 45820,31954 45822,31954 45825,31955 45827,31954 45829,31954 45832,31953 45833,31951 45835,31949 45836,31947 45836,31945 45836,31942 45836,31940 45835,31938 45834,31936 45742,31846 45739,31843 45736,31840 45733,31837 45729,31835 45725,31832 45721,31830 45717,31829 45712,31828 45710,31824 45707,31820 45705,31816 45704,31812 45703,31807 45703,31802 45704,31798 45705,31793 45709,31792 45713,31790 45717,31787 45721,31785 45724,31782 45727,31778 45730,31775 45733,31771 45735,31767 45737,31763 45738,31759 45739,31754 45740,31750 45740,31745 45740,31740 45740,31735 45739,31731 45737,31726 45736,31722 45734,31718 45731,31714 45729,31711 45726,31707 45722,31704 45719,31701 45715,31699 45711,31697 45707,31695 45703,31694 45698,31693 45694,31692 45689,31692 45684,31692 45680,31693 45676,31693 45671,31695 45667,31696 45663,31699 45659,31701 45656,31704 45652,31707 45649,31710 45646,31714 45644,31718 45642,31722 45640,31726 45639,31730 45638,31735 45637,31739 45637,31745 45637,31749 45638,31754 45639,31758 45640,31762 45642,31767 45644,31771 45647,31774 45650,31778 45653,31781 45656,31784 45660,31787 45664,31789 45668,31791 45672,31793 45675,31811 45676,31814 45676,31817 45675,31820 45674,31823 45673,31825 45671,31828 45669,31830 45667,31832 45567,31832 45564,31833 45561,31833 45558,31832 45555,31831 45552,31830 45550,31828 45548,31826 45546,31823 45546,31819 45545,31816 45544,31812 45542,31809 45540,31806 45537,31804 45534,31802 45531,31800 Z"/>
   </g>
  </g>
 </g>
</svg>