<?xml version="1.0" encoding="UTF-8"?>
<!DOCTYPE svg PUBLIC "-//W3C//DTD SVG 1.1//EN" "http://www.w3.org/Graphics/SVG/1.1/DTD/svg11.dtd">
<svg version="1.2" width="25.03mm" height="25.02mm" viewBox="46649 30500 2503 2502" preserveAspectRatio="xMidYMid" fill-rule="evenodd" stroke-width="28.222" stroke-linejoin="round" xmlns="http://www.w3.org/2000/svg" xmlns:ooo="http://xml.openoffice.org/svg/export" xmlns:xlink="http://www.w3.org/1999/xlink" xmlns:presentation="http://sun.com/xmlns/staroffice/presentation" xmlns:smil="http://www.w3.org/2001/SMIL20/" xmlns:anim="urn:oasis:names:tc:opendocument:xmlns:animation:1.0" xml:space="preserve">
 <defs class="EmbeddedBulletChars">
  <g id="bullet-char-template-57356" transform="scale(0.00048828125,-0.00048828125)">
   <path d="M 580,1141 L 1163,571 580,0 -4,571 580,1141 Z"/>
  </g>
  <g id="bullet-char-template-57354" transform="scale(0.00048828125,-0.00048828125)">
   <path d="M 8,1128 L 1137,1128 1137,0 8,0 8,1128 Z"/>
  </g>
  <g id="bullet-char-template-10146" transform="scale(0.00048828125,-0.00048828125)">
   <path d="M 174,0 L 602,739 174,1481 1456,739 174,0 Z M 1358,739 L 309,1346 659,739 1358,739 Z"/>
  </g>
  <g id="bullet-char-template-10132" transform="scale(0.00048828125,-0.00048828125)">
   <path d="M 2015,739 L 1276,0 717,0 1260,543 174,543 174,936 1260,936 717,1481 1274,1481 2015,739 Z"/>
  </g>
  <g id="bullet-char-template-10007" transform="scale(0.00048828125,-0.00048828125)">
   <path d="M 0,-2 C -7,14 -16,27 -25,37 L 356,567 C 262,823 215,952 215,954 215,979 228,992 255,992 264,992 276,990 289,987 310,991 331,999 354,1012 L 381,999 492,748 772,1049 836,1024 860,1049 C 881,1039 901,1025 922,1006 886,937 835,863 770,784 769,783 710,716 594,584 L 774,223 C 774,196 753,168 711,139 L 727,119 C 717,90 699,76 672,76 641,76 570,178 457,381 L 164,-76 C 142,-110 111,-127 72,-127 30,-127 9,-110 8,-76 1,-67 -2,-52 -2,-32 -2,-23 -1,-13 0,-2 Z"/>
  </g>
  <g id="bullet-char-template-10004" transform="scale(0.00048828125,-0.00048828125)">
   <path d="M 285,-33 C 182,-33 111,30 74,156 52,228 41,333 41,471 41,549 55,616 82,672 116,743 169,778 240,778 293,778 328,747 346,684 L 369,508 C 377,444 397,411 428,410 L 1163,1116 C 1174,1127 1196,1133 1229,1133 1271,1133 1292,1118 1292,1087 L 1292,965 C 1292,929 1282,901 1262,881 L 442,47 C 390,-6 338,-33 285,-33 Z"/>
  </g>
  <g id="bullet-char-template-9679" transform="scale(0.00048828125,-0.00048828125)">
   <path d="M 813,0 C 632,0 489,54 383,161 276,268 223,411 223,592 223,773 276,916 383,1023 489,1130 632,1184 813,1184 992,1184 1136,1130 1245,1023 1353,916 1407,772 1407,592 1407,412 1353,268 1245,161 1136,54 992,0 813,0 Z"/>
  </g>
  <g id="bullet-char-template-8226" transform="scale(0.00048828125,-0.00048828125)">
   <path d="M 346,457 C 273,457 209,483 155,535 101,586 74,649 74,723 74,796 101,859 155,911 209,963 273,989 346,989 419,989 480,963 531,910 582,859 608,796 608,723 608,648 583,586 532,535 482,483 420,457 346,457 Z"/>
  </g>
  <g id="bullet-char-template-8211" transform="scale(0.00048828125,-0.00048828125)">
   <path d="M -4,459 L 1135,459 1135,606 -4,606 -4,459 Z"/>
  </g>
  <g id="bullet-char-template-61548" transform="scale(0.00048828125,-0.00048828125)">
   <path d="M 173,740 C 173,903 231,1043 346,1159 462,1274 601,1332 765,1332 928,1332 1067,1274 1183,1159 1299,1043 1357,903 1357,740 1357,577 1299,437 1183,322 1067,206 928,148 765,148 601,148 462,206 346,322 231,437 173,577 173,740 Z"/>
  </g>
 </defs>
 <g class="Page">
  <g class="com.sun.star.drawing.PolyPolygonShape">
   <g id="id3">
    <rect class="BoundingBox" stroke="none" fill="none" x="46649" y="30500" width="2503" height="2502"/>
    <path fill="rgb(0,0,255)" stroke="none" d="M 49151,31751 L 49151,31720 49149,31689 49148,31659 49145,31628 49141,31597 49137,31567 49132,31537 49127,31507 49120,31477 49113,31447 49106,31417 49097,31388 49088,31358 49078,31329 49067,31301 49056,31272 49044,31244 49031,31215 49017,31187 49003,31160 48988,31133 48973,31107 48957,31081 48940,31055 48923,31030 48905,31005 48886,30980 48867,30956 48847,30933 48827,30910 48806,30888 48785,30866 48763,30844 48739,30823 48716,30803 48693,30783 48669,30764 48644,30745 48620,30728 48594,30710 48568,30693 48542,30677 48516,30662 48489,30647 48462,30633 48434,30620 48406,30607 48378,30595 48350,30583 48321,30573 48292,30563 48262,30553 48233,30545 48203,30537 48173,30530 48143,30523 48113,30518 48083,30513 48053,30509 48022,30505 47992,30503 47961,30501 47930,30500 47900,30500 47869,30500 47838,30501 47807,30503 47777,30505 47746,30509 47716,30513 47686,30518 47656,30523 47626,30530 47596,30537 47566,30545 47537,30553 47507,30563 47478,30573 47450,30583 47421,30595 47393,30607 47365,30620 47337,30633 47310,30647 47283,30662 47257,30677 47231,30693 47205,30710 47179,30728 47155,30745 47130,30764 47106,30783 47083,30803 47060,30823 47037,30844 47015,30866 46994,30888 46973,30910 46953,30933 46933,30956 46914,30980 46895,31005 46877,31030 46860,31055 46843,31081 46827,31107 46812,31133 46797,31160 46783,31187 46769,31215 46756,31244 46744,31272 46733,31301 46722,31329 46712,31358 46703,31388 46694,31417 46687,31447 46680,31477 46673,31507 46668,31537 46663,31567 46659,31597 46655,31628 46652,31659 46651,31689 46649,31720 46649,31750 46649,31781 46651,31812 46652,31843 46655,31873 46659,31904 46663,31934 46668,31964 46673,31994 46680,32024 46687,32054 46694,32084 46703,32113 46712,32143 46722,32172 46733,32200 46744,32229 46756,32257 46769,32285 46783,32313 46797,32340 46812,32367 46827,32393 46843,32419 46860,32445 46877,32470 46895,32495 46914,32520 46933,32544 46953,32567 46973,32590 46994,32612 47015,32634 47037,32656 47060,32677 47083,32697 47106,32717 47130,32736 47155,32755 47179,32772 47205,32790 47231,32807 47257,32823 47283,32838 47310,32853 47337,32867 47365,32881 47393,32893 47421,32905 47450,32917 47478,32927 47507,32937 47537,32947 47566,32955 47596,32963 47626,32970 47656,32977 47686,32982 47716,32987 47746,32991 47777,32995 47807,32997 47838,32999 47869,33000 47899,33001 47930,33000 47961,32999 47992,32997 48022,32995 48053,32991 48083,32987 48113,32982 48143,32977 48173,32970 48203,32963 48233,32955 48262,32947 48292,32937 48321,32927 48350,32917 48378,32905 48406,32893 48434,32881 48462,32867 48489,32853 48516,32838 48542,32823 48568,32807 48594,32790 48620,32772 48644,32755 48669,32736 48693,32717 48716,32697 48739,32677 48763,32656 48785,32634 48806,32612 48827,32590 48847,32567 48867,32544 48886,32520 48905,32495 48923,32470 48940,32445 48957,32419 48973,32393 48988,32367 49003,32340 49017,32313 49031,32285 49044,32257 49056,32229 49067,32200 49078,32172 49088,32143 49097,32113 49106,32084 49113,32054 49120,32024 49127,31994 49132,31964 49137,31934 49141,31904 49145,31873 49148,31843 49149,31812 49151,31781 49151,31751 Z"/>
   </g>
  </g>
  <g class="com.sun.star.drawing.PolyPolygonShape">
   <g id="id4">
    <rect class="BoundingBox" stroke="none" fill="none" x="46703" y="30553" width="2395" height="2395"/>
    <path fill="rgb(255,255,255)" stroke="none" d="M 49097,31750 L 49097,31720 49096,31691 49094,31662 49091,31632 49088,31603 49084,31574 49080,31545 49074,31516 49068,31487 49061,31459 49053,31430 49045,31402 49036,31374 49026,31346 49016,31319 49005,31292 48994,31265 48981,31238 48968,31212 48955,31186 48941,31160 48926,31134 48911,31109 48895,31085 48878,31061 48861,31037 48843,31013 48825,30990 48806,30968 48786,30946 48766,30925 48746,30904 48725,30883 48703,30863 48681,30844 48659,30825 48636,30806 48612,30789 48589,30771 48564,30755 48540,30739 48515,30723 48489,30709 48464,30694 48438,30681 48411,30668 48384,30656 48357,30644 48330,30633 48303,30623 48275,30613 48247,30605 48219,30596 48190,30589 48162,30582 48133,30576 48104,30571 48075,30566 48046,30562 48017,30559 47988,30556 47958,30555 47929,30553 47900,30553 47870,30553 47841,30555 47811,30556 47782,30559 47753,30562 47724,30566 47695,30571 47666,30576 47637,30582 47609,30589 47580,30596 47552,30605 47524,30613 47496,30623 47469,30633 47442,30644 47415,30656 47388,30668 47361,30681 47335,30694 47310,30709 47284,30723 47259,30739 47235,30755 47210,30771 47187,30789 47163,30806 47140,30825 47118,30844 47096,30863 47074,30883 47053,30904 47033,30925 47013,30946 46993,30968 46974,30990 46956,31013 46938,31037 46921,31061 46904,31085 46888,31109 46873,31134 46858,31160 46844,31186 46831,31212 46818,31238 46805,31265 46794,31292 46783,31319 46773,31346 46763,31374 46754,31402 46746,31430 46739,31459 46732,31487 46726,31516 46720,31545 46716,31574 46712,31603 46709,31632 46706,31662 46704,31691 46703,31720 46703,31749 46703,31779 46704,31808 46706,31838 46709,31867 46712,31896 46716,31925 46720,31954 46726,31983 46732,32012 46739,32040 46746,32069 46754,32097 46763,32125 46773,32153 46783,32180 46794,32207 46805,32234 46818,32261 46831,32287 46844,32315 46858,32340 46873,32366 46888,32391 46904,32415 46921,32439 46938,32463 46956,32487 46974,32510 46993,32532 47013,32554 47033,32576 47053,32597 47074,32617 47096,32637 47118,32656 47140,32675 47163,32694 47187,32712 47210,32729 47235,32745 47259,32761 47284,32777 47310,32792 47335,32806 47361,32819 47388,32832 47415,32844 47442,32856 47469,32867 47496,32877 47524,32887 47552,32896 47580,32904 47609,32911 47637,32918 47666,32924 47695,32929 47724,32934 47753,32938 47782,32941 47811,32944 47841,32946 47870,32947 47899,32947 47929,32947 47958,32946 47988,32944 48017,32941 48046,32938 48075,32934 48104,32929 48133,32924 48162,32918 48190,32911 48219,32904 48247,32896 48275,32887 48303,32877 48330,32867 48357,32856 48384,32844 48411,32832 48438,32819 48464,32806 48489,32792 48515,32777 48540,32761 48564,32745 48589,32729 48612,32712 48636,32694 48659,32675 48681,32656 48703,32637 48725,32617 48746,32597 48766,32576 48786,32554 48806,32532 48825,32510 48843,32487 48861,32463 48878,32439 48895,32415 48911,32391 48926,32366 48941,32340 48955,32315 48968,32287 48981,32261 48994,32234 49005,32207 49016,32180 49026,32153 49036,32125 49045,32097 49053,32069 49061,32040 49068,32012 49074,31983 49080,31954 49084,31925 49088,31896 49091,31867 49094,31838 49096,31808 49097,31779 49097,31750 Z"/>
   </g>
  </g>
  <g class="com.sun.star.drawing.PolyPolygonShape">
   <g id="id5">
    <rect class="BoundingBox" stroke="none" fill="none" x="47926" y="30607" width="1119" height="2287"/>
    <path fill="rgb(0,0,255)" stroke="none" d="M 47926,32893 L 47954,32892 47981,32890 48009,32888 48037,32885 48064,32881 48091,32877 48118,32872 48145,32867 48172,32860 48199,32853 48226,32846 48252,32838 48278,32829 48304,32819 48330,32809 48355,32799 48381,32787 48406,32775 48430,32763 48455,32750 48479,32736 48502,32722 48526,32707 48550,32691 48572,32676 48594,32659 48616,32642 48637,32624 48658,32606 48679,32588 48699,32569 48718,32549 48737,32529 48756,32509 48774,32488 48792,32466 48809,32445 48825,32423 48841,32400 48857,32377 48871,32354 48886,32330 48900,32306 48913,32282 48925,32257 48937,32232 48949,32207 48959,32182 48969,32156 48979,32130 48988,32104 48996,32077 49003,32051 49010,32024 49017,31997 49022,31970 49027,31943 49032,31916 49035,31888 49038,31861 49041,31833 49042,31806 49043,31778 49044,31751 49043,31723 49042,31695 49041,31668 49038,31640 49035,31613 49032,31585 49027,31558 49022,31531 49017,31504 49010,31477 49003,31450 48996,31424 48988,31397 48979,31371 48969,31345 48959,31319 48949,31294 48937,31269 48925,31244 48913,31219 48900,31195 48886,31171 48871,31147 48857,31124 48841,31101 48825,31079 48809,31056 48792,31035 48774,31013 48756,30992 48737,30972 48718,30952 48699,30932 48679,30913 48658,30895 48637,30877 48616,30859 48594,30841 48572,30825 48550,30809 48526,30793 48502,30778 48479,30764 48455,30750 48430,30737 48406,30725 48381,30713 48355,30702 48330,30691 48304,30681 48278,30671 48252,30662 48226,30654 48199,30647 48172,30640 48145,30633 48118,30628 48091,30623 48064,30619 48037,30615 48009,30612 47981,30610 47954,30608 47926,30607 47926,32893 Z"/>
   </g>
  </g>
  <g class="com.sun.star.drawing.PolyPolygonShape">
   <g id="id6">
    <rect class="BoundingBox" stroke="none" fill="none" x="46756" y="30607" width="1119" height="2287"/>
    <path fill="rgb(0,0,255)" stroke="none" d="M 47874,32893 L 47874,30607 47846,30608 47819,30610 47791,30612 47763,30615 47736,30619 47709,30623 47682,30628 47655,30633 47628,30640 47601,30647 47574,30654 47548,30662 47522,30671 47496,30681 47470,30691 47445,30702 47418,30713 47393,30725 47369,30737 47344,30750 47320,30764 47297,30778 47273,30793 47251,30809 47228,30825 47206,30841 47184,30859 47163,30877 47142,30895 47121,30913 47101,30932 47082,30952 47063,30972 47044,30992 47026,31013 47008,31035 46991,31056 46975,31079 46959,31101 46943,31124 46929,31147 46914,31171 46900,31195 46887,31219 46875,31244 46863,31269 46851,31294 46841,31319 46831,31345 46821,31371 46812,31397 46804,31424 46797,31450 46790,31477 46783,31504 46778,31531 46773,31558 46768,31585 46765,31613 46762,31640 46759,31668 46758,31695 46757,31723 46756,31751 46757,31778 46758,31806 46759,31833 46762,31861 46765,31888 46768,31916 46773,31943 46778,31970 46783,31997 46790,32024 46797,32051 46804,32077 46812,32104 46821,32130 46831,32156 46841,32182 46851,32207 46863,32232 46875,32257 46887,32282 46900,32306 46914,32330 46929,32354 46943,32377 46959,32400 46975,32423 46991,32445 47008,32466 47026,32488 47044,32509 47063,32529 47082,32549 47101,32569 47121,32588 47142,32606 47163,32624 47184,32642 47206,32659 47228,32676 47251,32691 47273,32707 47297,32722 47320,32736 47344,32750 47369,32763 47393,32775 47418,32787 47445,32799 47470,32809 47496,32819 47522,32829 47548,32838 47574,32846 47601,32853 47628,32860 47655,32867 47682,32872 47709,32877 47736,32881 47763,32885 47791,32888 47819,32890 47846,32892 47874,32893 Z"/>
   </g>
  </g>
  <g class="com.sun.star.drawing.PolyPolygonShape">
   <g id="id7">
    <rect class="BoundingBox" stroke="none" fill="none" x="47977" y="31503" width="987" height="552"/>
    <path fill="rgb(255,255,255)" stroke="none" d="M 48675,31608 L 48323,31608 48418,31809 48423,31808 48428,31807 48432,31807 48437,31807 48442,31757 48427,31755 48428,31745 48466,31749 48464,31759 48450,31758 48444,31807 48451,31809 48458,31812 48464,31815 48470,31819 48680,31628 48675,31608 Z M 48206,31870 L 48334,31870 48333,31879 48332,31888 48330,31897 48328,31907 48325,31915 48322,31924 48318,31933 48314,31941 48309,31949 48304,31957 48299,31964 48293,31971 48287,31978 48280,31984 48273,31990 48266,31996 48258,32001 48250,32006 48242,32010 48233,32014 48225,32017 48216,32020 48207,32023 48198,32025 48189,32026 48180,32027 48170,32027 48161,32027 48152,32026 48143,32025 48134,32023 48125,32021 48116,32019 48107,32015 48099,32012 48090,32007 48082,32003 48074,31998 48067,31992 48060,31986 48053,31980 48047,31974 48041,31966 48035,31959 48030,31952 48025,31944 48021,31935 48017,31927 48013,31918 48010,31910 48008,31901 48006,31892 48005,31882 48004,31873 48003,31864 48004,31855 48004,31845 48005,31836 48007,31827 48009,31818 48012,31809 48015,31801 48019,31792 48023,31784 48133,31850 48132,31853 48131,31857 48131,31861 48131,31865 48131,31869 48132,31873 48133,31876 48135,31880 48137,31883 48139,31886 48142,31889 48145,31892 48148,31894 48151,31896 48155,31897 48159,31899 48162,31900 48166,31900 48170,31900 48174,31900 48178,31899 48181,31898 48185,31896 48189,31895 48192,31892 48195,31890 48197,31887 48200,31884 48202,31881 48204,31877 48205,31874 48206,31870 Z M 48031,31770 L 48141,31836 48145,31832 48149,31829 48154,31827 48158,31825 48163,31824 48169,31824 48174,31824 48179,31825 48237,31711 48230,31708 48224,31706 48217,31704 48210,31702 48203,31700 48195,31699 48188,31698 48181,31697 48174,31697 48167,31697 48159,31697 48152,31697 48145,31698 48138,31700 48130,31701 48123,31703 48117,31705 48110,31708 48103,31710 48096,31713 48090,31717 48084,31720 48077,31724 48072,31728 48066,31733 48060,31737 48055,31742 48050,31747 48045,31753 48040,31758 48036,31764 48031,31770 Z M 48251,31719 L 48260,31724 48269,31730 48277,31737 48284,31744 48291,31751 48298,31759 48304,31767 48310,31776 48315,31785 48320,31794 48324,31804 48327,31813 48330,31823 48332,31833 48333,31844 48334,31854 48206,31854 48204,31848 48201,31842 48198,31837 48193,31832 48251,31719 Z M 48404,31816 L 48307,31611 48266,31690 48277,31697 48287,31704 48297,31712 48306,31720 48315,31729 48323,31739 48330,31749 48337,31759 48343,31770 48349,31781 48354,31793 48358,31805 48361,31817 48363,31829 48365,31841 48366,31854 48380,31854 48381,31848 48383,31843 48385,31837 48388,31832 48391,31828 48395,31823 48399,31819 48404,31816 Z M 48746,31869 L 48747,31873 48749,31876 48752,31879 48754,31882 48759,31884 48762,31886 48766,31887 48770,31887 48774,31887 48778,31886 48781,31885 48785,31883 48788,31881 48791,31878 48793,31875 48795,31872 48796,31868 48797,31864 48797,31860 48796,31856 48795,31852 48793,31849 48791,31846 48788,31843 48785,31841 48781,31839 48778,31837 48774,31837 48770,31837 48766,31837 48762,31838 48759,31840 48753,31831 48749,31822 48746,31812 48743,31803 48717,31704 48729,31701 48742,31698 48755,31696 48769,31695 48782,31696 48795,31697 48808,31700 48821,31703 48833,31707 48845,31713 48856,31719 48867,31726 48878,31734 48888,31743 48897,31752 48905,31762 48912,31773 48919,31785 48924,31796 48929,31808 48933,31821 48935,31834 48937,31847 48938,31860 48937,31873 48936,31886 48934,31899 48930,31911 48926,31924 48921,31936 48914,31947 48907,31958 48899,31968 48890,31978 48881,31987 48871,31995 48860,32003 48849,32009 48837,32015 48825,32020 48812,32023 48799,32026 48786,32028 48773,32028 48760,32028 48746,32027 48733,32024 48721,32021 48709,32017 48697,32011 48685,32005 48674,31998 48664,31990 48654,31981 48645,31972 48637,31962 48629,31951 48623,31940 48617,31928 48612,31916 48609,31903 48606,31890 48604,31877 48604,31864 48746,31869 Z M 48746,31853 L 48604,31848 48606,31837 48608,31826 48610,31816 48614,31805 48618,31795 48623,31785 48628,31775 48634,31766 48641,31757 48648,31749 48656,31741 48664,31734 48673,31727 48682,31721 48692,31715 48702,31710 48724,31795 48728,31807 48732,31819 48737,31830 48742,31841 48745,31845 48748,31849 48746,31853 Z M 48271,31555 L 48268,31554 48266,31553 48264,31551 48263,31549 48261,31545 48261,31542 48262,31540 48264,31537 48267,31536 48285,31534 48304,31532 48323,31532 48342,31533 48347,31533 48351,31534 48356,31536 48360,31539 48361,31541 48362,31544 48362,31546 48362,31549 48360,31551 48357,31553 48355,31554 48352,31553 48340,31553 48328,31554 48316,31555 48304,31556 48302,31556 48301,31558 48300,31560 48301,31561 48315,31591 48671,31591 48663,31562 48689,31545 48692,31543 48694,31541 48695,31538 48696,31536 48697,31533 48697,31530 48697,31527 48696,31524 48694,31522 48691,31520 48687,31519 48684,31519 48645,31519 48643,31519 48642,31518 48641,31518 48641,31516 48640,31513 48640,31509 48641,31507 48642,31505 48644,31504 48646,31503 48660,31503 48675,31503 48689,31504 48703,31506 48707,31507 48711,31508 48714,31511 48717,31514 48719,31518 48720,31522 48720,31526 48719,31530 48717,31536 48714,31541 48711,31546 48706,31550 48682,31567 48709,31675 48710,31675 48723,31671 48737,31668 48751,31666 48767,31665 48781,31665 48795,31666 48809,31669 48823,31672 48822,31677 48834,31681 48846,31685 48858,31691 48869,31697 48880,31704 48891,31712 48900,31720 48910,31729 48918,31739 48926,31749 48934,31759 48940,31771 48946,31782 48951,31794 48955,31806 48958,31819 48961,31831 48962,31844 48963,31857 48963,31870 48962,31883 48960,31896 48958,31908 48954,31921 48950,31933 48944,31945 48938,31956 48932,31967 48924,31978 48916,31988 48907,31997 48898,32006 48888,32014 48878,32022 48866,32028 48855,32035 48843,32040 48831,32044 48819,32048 48806,32051 48794,32053 48781,32054 48768,32054 48754,32053 48741,32052 48728,32049 48716,32046 48704,32042 48692,32037 48680,32031 48669,32025 48658,32018 48648,32010 48638,32001 48629,31992 48621,31982 48613,31972 48606,31961 48600,31950 48594,31938 48589,31926 48585,31914 48582,31901 48580,31889 48575,31889 48574,31881 48574,31873 48573,31865 48573,31857 48574,31849 48574,31841 48575,31833 48577,31825 48578,31817 48580,31809 48583,31802 48585,31794 48588,31786 48592,31779 48595,31772 48599,31765 48603,31758 48608,31751 48612,31744 48617,31738 48622,31732 48628,31726 48634,31720 48640,31715 48646,31709 48652,31705 48659,31700 48665,31695 48672,31691 48679,31687 48687,31684 48694,31680 48685,31645 48481,31831 48485,31838 48487,31845 48489,31852 48490,31859 48490,31867 48489,31875 48486,31882 48483,31889 48479,31895 48474,31901 48468,31906 48462,31910 48455,31913 48448,31916 48440,31917 48433,31917 48428,31967 48442,31969 48442,31978 48404,31975 48405,31965 48420,31966 48425,31917 48421,31916 48417,31914 48413,31913 48409,31911 48405,31909 48402,31906 48398,31904 48395,31901 48392,31897 48389,31894 48387,31890 48385,31886 48383,31883 48382,31879 48381,31874 48380,31870 48366,31870 48365,31883 48363,31897 48358,31896 48356,31906 48353,31916 48350,31925 48346,31935 48342,31944 48338,31953 48333,31962 48327,31971 48321,31979 48315,31987 48308,31994 48301,32001 48293,32008 48285,32015 48277,32021 48268,32026 48260,32031 48251,32036 48241,32040 48232,32043 48222,32046 48212,32049 48202,32051 48192,32052 48182,32054 48172,32054 48162,32054 48151,32053 48141,32052 48131,32050 48121,32048 48112,32045 48102,32042 48093,32038 48083,32034 48074,32029 48066,32024 48057,32018 48049,32012 48041,32005 48034,31999 48027,31991 48020,31984 48014,31976 48008,31967 48003,31959 47998,31950 47994,31940 47990,31931 47986,31921 47983,31912 47981,31902 47979,31892 47978,31882 47977,31872 47977,31861 47977,31851 47978,31841 47979,31831 47981,31821 47984,31811 47987,31801 47990,31792 47994,31783 47989,31780 47993,31772 47998,31763 48003,31755 48009,31747 48015,31739 48021,31732 48027,31724 48034,31718 48042,31711 48049,31705 48057,31699 48065,31694 48074,31689 48082,31685 48091,31681 48100,31677 48109,31674 48119,31671 48128,31669 48138,31667 48147,31666 48157,31665 48167,31665 48176,31665 48186,31665 48196,31667 48205,31668 48215,31670 48224,31673 48234,31676 48243,31679 48252,31683 48298,31593 48283,31560 48280,31558 48278,31556 48274,31555 48271,31555 Z"/>
   </g>
  </g>
  <g class="com.sun.star.drawing.PolyPolygonShape">
   <g id="id8">
    <rect class="BoundingBox" stroke="none" fill="none" x="46963" y="31236" width="783" height="1078"/>
    <path fill="rgb(255,255,255)" stroke="none" d="M 47269,31800 L 47274,31790 47276,31785 47277,31780 47277,31774 47277,31769 47279,31760 47282,31751 47420,31515 47432,31495 47445,31475 47462,31457 47481,31445 47501,31439 47521,31435 47531,31433 47539,31431 47543,31429 47545,31426 47546,31421 47546,31381 47541,31379 47536,31376 47532,31374 47527,31370 47523,31367 47520,31363 47516,31359 47513,31355 47510,31351 47507,31346 47505,31341 47504,31336 47502,31331 47501,31326 47501,31320 47500,31315 47500,31306 47501,31299 47502,31292 47504,31285 47506,31279 47509,31273 47512,31267 47516,31261 47521,31256 47526,31251 47532,31247 47538,31244 47544,31241 47550,31238 47557,31237 47564,31236 47571,31236 47578,31236 47584,31237 47591,31238 47598,31241 47604,31244 47610,31247 47615,31251 47620,31256 47625,31261 47629,31267 47633,31273 47636,31279 47638,31285 47640,31292 47641,31299 47641,31306 47641,31315 47641,31320 47640,31326 47639,31331 47638,31336 47636,31341 47634,31346 47631,31351 47629,31355 47626,31359 47622,31363 47618,31367 47614,31370 47610,31374 47605,31376 47601,31379 47596,31381 47596,31422 47596,31423 47596,31425 47596,31427 47597,31429 47599,31430 47600,31431 47602,31432 47604,31432 47613,31433 47623,31434 47632,31436 47641,31439 47650,31442 47659,31446 47668,31450 47676,31455 47684,31462 47691,31469 47698,31477 47704,31485 47710,31494 47715,31502 47721,31511 47725,31520 47729,31530 47733,31539 47736,31549 47739,31559 47741,31569 47743,31579 47744,31589 47745,31600 47745,31808 47744,31813 47743,31817 47741,31821 47738,31825 47734,31828 47730,31830 47726,31831 47721,31832 47717,31831 47712,31830 47708,31828 47705,31825 47702,31821 47700,31817 47698,31813 47698,31808 47698,31598 47698,31591 47696,31584 47694,31578 47691,31571 47689,31569 47687,31567 47684,31565 47682,31563 47679,31562 47675,31561 47672,31561 47669,31561 47666,31562 47663,31563 47661,31564 47659,31566 47657,31569 47656,31572 47655,31575 47656,31578 47656,32205 47656,32208 47655,32212 47654,32215 47653,32218 47652,32221 47650,32223 47648,32226 47646,32228 47644,32231 47641,32232 47638,32234 47635,32236 47632,32237 47629,32237 47626,32238 47623,32238 47620,32238 47617,32237 47613,32237 47610,32236 47608,32234 47605,32232 47602,32231 47600,32228 47598,32226 47596,32223 47594,32221 47593,32218 47591,32215 47591,32212 47590,32208 47590,32205 47590,31867 47590,31863 47588,31858 47586,31854 47584,31851 47580,31848 47576,31846 47572,31845 47568,31844 47563,31845 47559,31846 47555,31848 47551,31851 47549,31854 47546,31858 47545,31863 47545,31867 47545,32280 47545,32283 47544,32287 47543,32290 47542,32293 47541,32296 47539,32298 47537,32301 47535,32303 47533,32306 47530,32308 47527,32309 47525,32310 47522,32312 47518,32312 47515,32313 47512,32313 47509,32313 47505,32312 47502,32312 47499,32310 47496,32309 47494,32308 47491,32306 47489,32303 47487,32301 47485,32298 47483,32296 47482,32293 47481,32290 47480,32287 47479,32283 47479,32280 47479,31586 47478,31580 47477,31575 47475,31570 47472,31566 47468,31564 47464,31564 47459,31564 47455,31565 47451,31566 47448,31569 47444,31571 47442,31575 47324,31775 47320,31778 47316,31781 47312,31784 47308,31786 47302,31790 47298,31794 47293,31798 47290,31803 47287,31809 47284,31815 47283,31821 47282,31827 47281,31830 47280,31833 47279,31837 47277,31839 47275,31842 47273,31845 47271,31847 47268,31850 47265,31851 47263,31853 47259,31854 47256,31856 47253,31856 47250,31857 47246,31857 47243,31857 47147,31857 47207,32069 47156,32069 47156,32224 47156,32227 47155,32229 47154,32232 47152,32234 47150,32236 47147,32237 47145,32238 47142,32238 47139,32238 47137,32237 47134,32236 47132,32234 47130,32232 47129,32229 47128,32227 47128,32224 47128,32069 47117,32068 47106,32068 47095,32068 47084,32069 47084,32190 47084,32192 47083,32195 47082,32197 47080,32199 47078,32201 47076,32203 47073,32203 47070,32204 47067,32203 47065,32203 47062,32201 47060,32199 47059,32197 47057,32195 47056,32192 47056,32190 47056,32069 47000,32069 47066,31882 47066,31881 47066,31879 47065,31878 47064,31877 47062,31877 47061,31877 47059,31878 47058,31879 46985,31949 46984,31951 46982,31952 46980,31954 46978,31954 46975,31955 46973,31954 46971,31954 46968,31953 46967,31951 46965,31949 46964,31947 46964,31945 46964,31942 46964,31940 46965,31938 46966,31936 47058,31846 47061,31843 47064,31840 47067,31837 47071,31835 47075,31832 47079,31830 47083,31829 47088,31828 47091,31824 47093,31820 47095,31816 47096,31812 47097,31807 47097,31802 47096,31798 47095,31793 47091,31792 47087,31790 47083,31787 47079,31785 47076,31782 47073,31778 47070,31775 47067,31771 47065,31767 47063,31763 47062,31759 47061,31754 47060,31750 47060,31745 47060,31740 47060,31735 47061,31731 47063,31726 47064,31722 47066,31718 47069,31714 47071,31711 47074,31707 47078,31704 47081,31701 47085,31699 47089,31697 47093,31695 47098,31694 47102,31693 47106,31692 47111,31692 47116,31692 47120,31693 47124,31693 47129,31695 47133,31696 47137,31699 47141,31701 47144,31704 47148,31707 47151,31710 47154,31714 47156,31718 47158,31722 47160,31726 47161,31730 47162,31735 47163,31739 47163,31745 47163,31749 47162,31754 47161,31758 47160,31762 47158,31767 47156,31771 47153,31774 47150,31778 47147,31781 47144,31784 47140,31787 47136,31789 47132,31791 47128,31793 47125,31811 47124,31814 47124,31817 47125,31820 47126,31823 47127,31825 47129,31828 47131,31830 47133,31832 47233,31832 47236,31833 47239,31833 47242,31832 47245,31831 47248,31830 47250,31828 47252,31826 47254,31823 47254,31819 47255,31816 47256,31812 47258,31809 47260,31806 47263,31804 47266,31802 47269,31800 Z"/>
   </g>
  </g>
 </g>
</svg>