<?xml version="1.0" encoding="utf-8"?>
<!-- Generator: Adobe Illustrator 14.0.0, SVG Export Plug-In . SVG Version: 6.00 Build 43363)  -->
<!DOCTYPE svg PUBLIC "-//W3C//DTD SVG 1.1//EN" "http://www.w3.org/Graphics/SVG/1.1/DTD/svg11.dtd">
<svg version="1.1" id="Calque_1" xmlns="http://www.w3.org/2000/svg" xmlns:xlink="http://www.w3.org/1999/xlink" x="0px" y="0px"
	 width="22.74px" height="90.962px" viewBox="0 0 22.74 90.962" enable-background="new 0 0 22.74 90.962" xml:space="preserve">
<path fill="#FFFFFF" d="M0.1,6.098C0.1,2.819,2.798,0.1,6.053,0.1h10.636c3.254,0,5.952,2.72,5.952,5.998v78.767
	c0,3.278-2.698,5.998-5.952,5.998H6.053c-3.255,0-5.953-2.72-5.953-5.998V6.098z"/>
<path fill="none" stroke="#120C0E" stroke-width="0.199" stroke-miterlimit="3.863" d="M0.1,6.097C0.1,2.819,2.798,0.1,6.053,0.1
	h10.636c3.254,0,5.952,2.72,5.952,5.997v78.768c0,3.278-2.698,5.998-5.952,5.998H6.053c-3.255,0-5.953-2.72-5.953-5.998V6.097z"/>
<polygon fill="#120C0E" points="13.593,22.331 13.593,83.186 9.068,83.186 9.068,22.331 2.321,22.331 11.371,7.856 20.339,22.331 
	"/>
<polygon fill="none" stroke="#120C0E" stroke-width="0.199" stroke-miterlimit="3.863" points="13.593,22.331 13.593,83.186 
	9.068,83.186 9.068,22.331 2.321,22.331 11.371,7.856 20.339,22.331 "/>
</svg>
