<?xml version="1.0" encoding="utf-8"?>
<!-- Generator: Adobe Illustrator 14.0.0, SVG Export Plug-In . SVG Version: 6.00 Build 43363)  -->
<!DOCTYPE svg PUBLIC "-//W3C//DTD SVG 1.1//EN" "http://www.w3.org/Graphics/SVG/1.1/DTD/svg11.dtd">
<svg version="1.1" id="Calque_1" xmlns="http://www.w3.org/2000/svg" xmlns:xlink="http://www.w3.org/1999/xlink" x="0px" y="0px"
	 width="22.739px" height="90.962px" viewBox="0 0 22.739 90.962" enable-background="new 0 0 22.739 90.962" xml:space="preserve">
<path fill="#FFFFFF" d="M22.641,84.865c0,3.278-2.698,5.997-5.953,5.997H6.052c-3.255,0-5.953-2.719-5.953-5.997V6.097
	C0.1,2.818,2.797,0.1,6.052,0.1h10.635c3.255,0,5.953,2.719,5.953,5.997V84.865z"/>
<path fill="none" stroke="#120C0E" stroke-width="0.199" stroke-miterlimit="3.863" d="M22.641,84.865
	c0,3.278-2.698,5.997-5.953,5.997H6.052c-3.255,0-5.953-2.719-5.953-5.997V6.097C0.1,2.818,2.797,0.1,6.052,0.1h10.635
	c3.255,0,5.953,2.719,5.953,5.997V84.865z"/>
<polygon fill="#120C0E" points="9.147,68.631 9.147,7.776 13.672,7.776 13.672,68.631 20.418,68.631 11.371,83.105 2.401,68.631 "/>
<polygon fill="none" stroke="#120C0E" stroke-width="0.199" stroke-miterlimit="3.863" points="9.147,68.631 9.147,7.776 
	13.672,7.776 13.672,68.631 20.418,68.631 11.371,83.105 2.401,68.631 "/>
</svg>
