<?xml version="1.0" encoding="utf-8"?>
<!-- Generator: Adobe Illustrator 14.0.0, SVG Export Plug-In . SVG Version: 6.00 Build 43363)  -->
<!DOCTYPE svg PUBLIC "-//W3C//DTD SVG 1.1//EN" "http://www.w3.org/Graphics/SVG/1.1/DTD/svg11.dtd">
<svg version="1.1" id="Calque_1" xmlns="http://www.w3.org/2000/svg" xmlns:xlink="http://www.w3.org/1999/xlink" x="0px" y="0px"
	 width="22.74px" height="90.961px" viewBox="0 0 22.74 90.961" enable-background="new 0 0 22.74 90.961" xml:space="preserve">
<path fill="#FFFFFF" d="M0.1,6.097C0.1,2.819,2.798,0.1,6.053,0.1h10.636c3.254,0,5.952,2.719,5.952,5.997v78.768
	c0,3.278-2.698,5.998-5.952,5.998H6.053c-3.255,0-5.953-2.72-5.953-5.998V6.097z"/>
<path fill="none" stroke="#120C0E" stroke-width="0.199" stroke-miterlimit="3.863" d="M0.1,6.097C0.1,2.819,2.798,0.1,6.053,0.1
	h10.636c3.254,0,5.952,2.719,5.952,5.997v78.768c0,3.278-2.698,5.998-5.952,5.998H6.053c-3.255,0-5.953-2.72-5.953-5.998V6.097z"/>
<polygon fill="#120C0E" points="13.712,47.44 13.712,86.264 9.188,86.224 9.188,47.44 2.441,47.44 11.489,32.966 20.459,47.44 "/>
<polygon fill="none" stroke="#120C0E" stroke-width="0.199" stroke-miterlimit="3.863" points="13.712,47.44 13.712,86.264 
	9.188,86.224 9.188,47.44 2.441,47.44 11.489,32.966 20.459,47.44 "/>
<path fill-rule="evenodd" clip-rule="evenodd" fill="#120C0E" d="M5.576,20.611v7.677h1.905V23.97c0-1.919,1.15-2.039,1.707-1.759
	c0.356,0.16,0.595,0.559,0.595,1.359v4.718h1.945V23.97c0-1.919,1.19-2.039,1.666-1.759c0.396,0.16,0.676,0.559,0.676,1.359v4.718
	h1.904v-5.357c0-2.799-3.135-3.319-4.484-1.4c-0.873-1.599-3.215-1.519-4.088,0.081v-1H5.576z"/>
<path fill="none" stroke="#120C0E" stroke-width="0.199" stroke-miterlimit="3.863" d="M5.576,20.611v7.677h1.905V23.97
	c0-1.919,1.15-2.039,1.707-1.759c0.356,0.16,0.595,0.559,0.595,1.359v4.718h1.945V23.97c0-1.919,1.19-2.039,1.666-1.759
	c0.396,0.16,0.676,0.559,0.676,1.359v4.718h1.904v-5.357c0-2.799-3.135-3.319-4.484-1.4c-0.873-1.599-3.215-1.519-4.088,0.081v-1
	H5.576z"/>
<path fill="#120C0E" d="M3.036,8.336c0-2.079,1.628-3.758,3.731-3.758c2.063,0,3.69,1.679,3.69,3.758
	c0,1.04-0.396,1.959-1.071,2.639l-3.175,3.199h4.524v1.72h-7.54v-1.84l4.683-4.758c0.318-0.28,0.476-0.68,0.476-1.159
	c0-0.919-0.714-1.639-1.627-1.639S5.06,7.217,5.06,8.137v0.24H2.997L3.036,8.336z"/>
<path fill="none" stroke="#120C0E" stroke-width="0.199" stroke-miterlimit="3.863" d="M3.036,8.336
	c0-2.079,1.628-3.758,3.731-3.758c2.063,0,3.69,1.679,3.69,3.758c0,1.04-0.396,1.959-1.071,2.639l-3.175,3.199h4.524v1.72h-7.54
	v-1.84l4.683-4.758c0.318-0.28,0.476-0.68,0.476-1.16c0-0.919-0.714-1.639-1.627-1.639S5.06,7.217,5.06,8.136v0.24H2.997
	L3.036,8.336z"/>
<path fill="#120C0E" d="M19.585,12.455c0,2.04-1.627,3.679-3.651,3.679c-2.023,0-3.65-1.679-3.65-3.719V8.376
	c0-2.04,1.627-3.719,3.65-3.719c2.024,0,3.651,1.679,3.651,3.719V12.455z"/>
<path fill="none" stroke="#120C0E" stroke-width="0.199" stroke-miterlimit="3.863" d="M19.585,12.455
	c0,2.04-1.627,3.679-3.651,3.679c-2.023,0-3.65-1.679-3.65-3.719V8.376c0-2.04,1.627-3.719,3.65-3.719
	c2.024,0,3.651,1.679,3.651,3.719V12.455z"/>
<path fill="#FFFFFF" d="M14.148,12.535V8.217c0-1,0.794-1.8,1.785-1.8c0.992,0,1.786,0.8,1.786,1.8v4.318
	c0,1-0.794,1.799-1.786,1.799C14.942,14.333,14.148,13.535,14.148,12.535z"/>
<path fill="none" stroke="#120C0E" stroke-width="0.199" stroke-miterlimit="3.863" d="M14.148,12.535V8.217
	c0-1,0.794-1.8,1.785-1.8c0.992,0,1.786,0.8,1.786,1.8v4.318c0,1-0.794,1.799-1.786,1.799
	C14.942,14.333,14.148,13.535,14.148,12.535z"/>
</svg>
