<?xml version="1.0" encoding="utf-8"?>
<!-- Generator: Adobe Illustrator 14.0.0, SVG Export Plug-In . SVG Version: 6.00 Build 43363)  -->
<!DOCTYPE svg PUBLIC "-//W3C//DTD SVG 1.1//EN" "http://www.w3.org/Graphics/SVG/1.1/DTD/svg11.dtd">
<svg version="1.1" id="Calque_1" xmlns="http://www.w3.org/2000/svg" xmlns:xlink="http://www.w3.org/1999/xlink" x="0px" y="0px"
	 width="22.739px" height="90.961px" viewBox="0 0 22.739 90.961" enable-background="new 0 0 22.739 90.961" xml:space="preserve">
<path fill="#FFFFFF" d="M0.1,6.097C0.1,2.818,2.797,0.1,6.052,0.1h10.635c3.255,0,5.953,2.718,5.953,5.998v78.767
	c0,3.279-2.698,5.997-5.953,5.997H6.052c-3.255,0-5.953-2.718-5.953-5.997V6.097z"/>
<path fill="none" stroke="#120C0E" stroke-width="0.199" stroke-miterlimit="3.863" d="M0.1,6.097C0.1,2.818,2.797,0.1,6.052,0.1
	h10.635c3.255,0,5.953,2.718,5.953,5.998v78.767c0,3.279-2.698,5.997-5.953,5.997H6.052c-3.255,0-5.953-2.718-5.953-5.997V6.097z"/>
<polygon fill="#120C0E" points="13.632,22.291 13.632,69.711 9.108,68.671 9.108,22.291 2.361,22.291 11.409,7.816 20.379,22.291 
	"/>
<polygon fill="none" stroke="#120C0E" stroke-width="0.199" stroke-miterlimit="3.863" points="13.632,22.29 13.632,69.711 
	9.108,68.671 9.108,22.29 2.361,22.29 11.409,7.816 20.379,22.29 "/>
<polygon fill="#120C0E" points="13.632,68.671 13.632,22.291 9.108,22.21 9.108,68.671 2.361,68.671 11.409,83.145 20.379,68.671 
	"/>
<polygon fill="none" stroke="#120C0E" stroke-width="0.199" stroke-miterlimit="3.863" points="13.632,68.671 13.632,22.29 
	9.108,22.21 9.108,68.671 2.361,68.671 11.409,83.145 20.379,68.671 "/>
</svg>
