<?xml version="1.0" encoding="UTF-8"?>
<!DOCTYPE svg PUBLIC "-//W3C//DTD SVG 1.1//EN" "http://www.w3.org/Graphics/SVG/1.1/DTD/svg11.dtd">
<svg version="1.2" width="24.89mm" height="25.03mm" viewBox="90812 43499 2489 2503" preserveAspectRatio="xMidYMid" fill-rule="evenodd" stroke-width="28.222" stroke-linejoin="round" xmlns="http://www.w3.org/2000/svg" xmlns:ooo="http://xml.openoffice.org/svg/export" xmlns:xlink="http://www.w3.org/1999/xlink" xmlns:presentation="http://sun.com/xmlns/staroffice/presentation" xmlns:smil="http://www.w3.org/2001/SMIL20/" xmlns:anim="urn:oasis:names:tc:opendocument:xmlns:animation:1.0" xml:space="preserve">
 <defs class="EmbeddedBulletChars">
  <g id="bullet-char-template-57356" transform="scale(0.00048828125,-0.00048828125)">
   <path d="M 580,1141 L 1163,571 580,0 -4,571 580,1141 Z"/>
  </g>
  <g id="bullet-char-template-57354" transform="scale(0.00048828125,-0.00048828125)">
   <path d="M 8,1128 L 1137,1128 1137,0 8,0 8,1128 Z"/>
  </g>
  <g id="bullet-char-template-10146" transform="scale(0.00048828125,-0.00048828125)">
   <path d="M 174,0 L 602,739 174,1481 1456,739 174,0 Z M 1358,739 L 309,1346 659,739 1358,739 Z"/>
  </g>
  <g id="bullet-char-template-10132" transform="scale(0.00048828125,-0.00048828125)">
   <path d="M 2015,739 L 1276,0 717,0 1260,543 174,543 174,936 1260,936 717,1481 1274,1481 2015,739 Z"/>
  </g>
  <g id="bullet-char-template-10007" transform="scale(0.00048828125,-0.00048828125)">
   <path d="M 0,-2 C -7,14 -16,27 -25,37 L 356,567 C 262,823 215,952 215,954 215,979 228,992 255,992 264,992 276,990 289,987 310,991 331,999 354,1012 L 381,999 492,748 772,1049 836,1024 860,1049 C 881,1039 901,1025 922,1006 886,937 835,863 770,784 769,783 710,716 594,584 L 774,223 C 774,196 753,168 711,139 L 727,119 C 717,90 699,76 672,76 641,76 570,178 457,381 L 164,-76 C 142,-110 111,-127 72,-127 30,-127 9,-110 8,-76 1,-67 -2,-52 -2,-32 -2,-23 -1,-13 0,-2 Z"/>
  </g>
  <g id="bullet-char-template-10004" transform="scale(0.00048828125,-0.00048828125)">
   <path d="M 285,-33 C 182,-33 111,30 74,156 52,228 41,333 41,471 41,549 55,616 82,672 116,743 169,778 240,778 293,778 328,747 346,684 L 369,508 C 377,444 397,411 428,410 L 1163,1116 C 1174,1127 1196,1133 1229,1133 1271,1133 1292,1118 1292,1087 L 1292,965 C 1292,929 1282,901 1262,881 L 442,47 C 390,-6 338,-33 285,-33 Z"/>
  </g>
  <g id="bullet-char-template-9679" transform="scale(0.00048828125,-0.00048828125)">
   <path d="M 813,0 C 632,0 489,54 383,161 276,268 223,411 223,592 223,773 276,916 383,1023 489,1130 632,1184 813,1184 992,1184 1136,1130 1245,1023 1353,916 1407,772 1407,592 1407,412 1353,268 1245,161 1136,54 992,0 813,0 Z"/>
  </g>
  <g id="bullet-char-template-8226" transform="scale(0.00048828125,-0.00048828125)">
   <path d="M 346,457 C 273,457 209,483 155,535 101,586 74,649 74,723 74,796 101,859 155,911 209,963 273,989 346,989 419,989 480,963 531,910 582,859 608,796 608,723 608,648 583,586 532,535 482,483 420,457 346,457 Z"/>
  </g>
  <g id="bullet-char-template-8211" transform="scale(0.00048828125,-0.00048828125)">
   <path d="M -4,459 L 1135,459 1135,606 -4,606 -4,459 Z"/>
  </g>
  <g id="bullet-char-template-61548" transform="scale(0.00048828125,-0.00048828125)">
   <path d="M 173,740 C 173,903 231,1043 346,1159 462,1274 601,1332 765,1332 928,1332 1067,1274 1183,1159 1299,1043 1357,903 1357,740 1357,577 1299,437 1183,322 1067,206 928,148 765,148 601,148 462,206 346,322 231,437 173,577 173,740 Z"/>
  </g>
 </defs>
 <g class="Page">
  <g class="com.sun.star.drawing.PolyPolygonShape">
   <g id="id3">
    <rect class="BoundingBox" stroke="none" fill="none" x="90812" y="43499" width="2489" height="2503"/>
    <path fill="rgb(0,0,255)" stroke="none" d="M 90813,45768 L 90813,43732 90814,43709 90817,43687 90823,43664 90830,43643 90840,43622 90852,43603 90865,43585 90880,43568 90897,43552 90915,43539 90935,43527 90955,43517 90976,43510 90999,43504 91021,43501 91044,43500 93067,43500 93089,43501 93112,43504 93134,43510 93156,43517 93177,43527 93196,43539 93214,43552 93231,43568 93246,43585 93260,43603 93271,43622 93281,43643 93289,43664 93294,43687 93298,43709 93299,43732 93299,45768 93298,45791 93294,45814 93289,45836 93281,45857 93271,45878 93260,45897 93246,45916 93231,45932 93214,45948 93196,45961 93177,45973 93156,45983 93134,45991 93112,45996 93089,45999 93067,46000 91044,46000 91021,45999 90999,45996 90976,45991 90955,45983 90935,45973 90915,45961 90897,45948 90880,45932 90865,45916 90852,45897 90840,45878 90830,45857 90823,45836 90817,45814 90814,45791 90813,45768 Z"/>
    <path fill="none" stroke="rgb(0,0,255)" d="M 90813,45768 L 90813,43732 90814,43709 90817,43687 90823,43664 90830,43643 90840,43622 90852,43603 90865,43585 90880,43568 90897,43552 90915,43539 90935,43527 90955,43517 90976,43510 90999,43504 91021,43501 91044,43500 93067,43500 93089,43501 93112,43504 93134,43510 93156,43517 93177,43527 93196,43539 93214,43552 93231,43568 93246,43585 93260,43603 93271,43622 93281,43643 93289,43664 93294,43687 93298,43709 93299,43732 93299,45768 93298,45791 93294,45814 93289,45836 93281,45857 93271,45878 93260,45897 93246,45916 93231,45932 93214,45948 93196,45961 93177,45973 93156,45983 93134,45991 93112,45996 93089,45999 93067,46000 91044,46000 91021,45999 90999,45996 90976,45991 90955,45983 90935,45973 90915,45961 90897,45948 90880,45932 90865,45916 90852,45897 90840,45878 90830,45857 90823,45836 90817,45814 90814,45791 90813,45768 Z"/>
   </g>
  </g>
  <g class="com.sun.star.drawing.PolyPolygonShape">
   <g id="id4">
    <rect class="BoundingBox" stroke="none" fill="none" x="90865" y="43552" width="2382" height="2397"/>
    <path fill="rgb(255,255,255)" stroke="none" d="M 90866,45768 L 90866,43732 90867,43714 90869,43697 90874,43680 90880,43664 90887,43648 90896,43633 90906,43619 90918,43606 90931,43594 90945,43583 90960,43574 90976,43567 90992,43561 91009,43557 91026,43554 91044,43553 93068,43553 93085,43554 93103,43557 93119,43561 93136,43567 93152,43574 93166,43583 93180,43594 93193,43606 93205,43619 93215,43633 93224,43648 93232,43664 93238,43680 93242,43697 93244,43714 93245,43732 93245,45768 93244,45786 93242,45803 93238,45820 93232,45837 93224,45853 93215,45868 93205,45882 93193,45895 93180,45906 93166,45917 93152,45926 93136,45933 93119,45939 93103,45944 93085,45946 93068,45947 91044,45947 91026,45946 91009,45944 90992,45939 90976,45933 90960,45926 90945,45917 90931,45906 90918,45895 90906,45882 90896,45868 90887,45853 90880,45837 90874,45820 90869,45803 90867,45786 90866,45768 Z"/>
    <path fill="none" stroke="rgb(255,255,255)" d="M 90866,45768 L 90866,43732 90867,43714 90869,43697 90874,43680 90880,43664 90887,43648 90896,43633 90906,43619 90918,43606 90931,43594 90945,43583 90960,43574 90976,43567 90992,43561 91009,43557 91026,43554 91044,43553 93068,43553 93085,43554 93103,43557 93119,43561 93136,43567 93152,43574 93166,43583 93180,43594 93193,43606 93205,43619 93215,43633 93224,43648 93232,43664 93238,43680 93242,43697 93244,43714 93245,43732 93245,45768 93244,45786 93242,45803 93238,45820 93232,45837 93224,45853 93215,45868 93205,45882 93193,45895 93180,45906 93166,45917 93152,45926 93136,45933 93119,45939 93103,45944 93085,45946 93068,45947 91044,45947 91026,45946 91009,45944 90992,45939 90976,45933 90960,45926 90945,45917 90931,45906 90918,45895 90906,45882 90896,45868 90887,45853 90880,45837 90874,45820 90869,45803 90867,45786 90866,45768 Z"/>
   </g>
  </g>
  <g class="com.sun.star.drawing.PolyPolygonShape">
   <g id="id5">
    <rect class="BoundingBox" stroke="none" fill="none" x="92081" y="43606" width="1113" height="2289"/>
    <path fill="rgb(0,0,255)" stroke="none" d="M 92082,43607 L 93068,43607 93080,43608 93092,43609 93104,43612 93115,43616 93126,43622 93137,43628 93147,43635 93156,43644 93164,43652 93171,43662 93177,43673 93183,43684 93187,43696 93190,43707 93191,43720 93192,43732 93192,45768 93191,45781 93190,45793 93187,45805 93183,45816 93177,45827 93171,45838 93164,45848 93156,45857 93147,45865 93137,45872 93126,45879 93115,45884 93104,45888 93092,45891 93080,45893 93068,45893 92082,45893 92082,43607 Z"/>
    <path fill="none" stroke="rgb(0,0,255)" d="M 92082,43607 L 93068,43607 93080,43608 93092,43609 93104,43612 93115,43616 93126,43622 93137,43628 93147,43635 93156,43644 93164,43652 93171,43662 93177,43673 93183,43684 93187,43696 93190,43707 93191,43720 93192,43732 93192,45768 93191,45781 93190,45793 93187,45805 93183,45816 93177,45827 93171,45838 93164,45848 93156,45857 93147,45865 93137,45872 93126,45879 93115,45884 93104,45888 93092,45891 93080,45893 93068,45893 92082,45893 92082,43607 Z"/>
   </g>
  </g>
  <g class="com.sun.star.drawing.PolyPolygonShape">
   <g id="id6">
    <rect class="BoundingBox" stroke="none" fill="none" x="90918" y="43606" width="1113" height="2289"/>
    <path fill="rgb(0,0,255)" stroke="none" d="M 90919,45768 L 90919,43732 90920,43720 90922,43707 90925,43696 90929,43684 90934,43673 90940,43662 90948,43653 90956,43644 90965,43635 90975,43628 90985,43622 90996,43616 91008,43612 91019,43609 91031,43607 91044,43607 92029,43607 92029,45893 91044,45893 91031,45893 91019,45891 91008,45888 90996,45884 90985,45879 90975,45872 90965,45865 90956,45857 90948,45848 90940,45838 90934,45827 90929,45816 90925,45805 90922,45793 90920,45781 90919,45768 Z"/>
    <path fill="none" stroke="rgb(0,0,255)" d="M 90919,45768 L 90919,43732 90920,43720 90922,43707 90925,43696 90929,43684 90934,43673 90940,43662 90948,43653 90956,43644 90965,43635 90975,43628 90985,43622 90996,43616 91008,43612 91019,43609 91031,43607 91044,43607 92029,43607 92029,45893 91044,45893 91031,45893 91019,45891 91008,45888 90996,45884 90985,45879 90975,45872 90965,45865 90956,45857 90948,45848 90940,45838 90934,45827 90929,45816 90925,45805 90922,45793 90920,45781 90919,45768 Z"/>
   </g>
  </g>
  <g class="com.sun.star.drawing.PolyPolygonShape">
   <g id="id7">
    <rect class="BoundingBox" stroke="none" fill="none" x="92288" y="44266" width="699" height="969"/>
    <path fill="rgb(255,255,255)" stroke="none" d="M 92714,44772 L 92709,44763 92707,44754 92706,44745 92702,44728 92579,44518 92568,44500 92556,44482 92541,44466 92524,44455 92506,44450 92489,44446 92479,44445 92473,44443 92469,44441 92467,44438 92466,44434 92466,44398 92475,44394 92483,44388 92490,44382 92496,44375 92500,44366 92504,44358 92506,44348 92507,44339 92507,44330 92506,44318 92502,44306 92496,44296 92488,44286 92479,44278 92468,44272 92456,44269 92444,44267 92432,44269 92420,44272 92409,44278 92400,44286 92392,44296 92386,44306 92383,44318 92381,44330 92381,44339 92382,44348 92384,44358 92388,44366 92393,44375 92399,44382 92405,44388 92413,44394 92422,44398 92422,44434 92422,44438 92421,44441 92418,44443 92415,44444 92398,44446 92381,44450 92365,44456 92351,44464 92337,44477 92326,44491 92315,44507 92307,44523 92300,44540 92294,44557 92291,44575 92289,44594 92289,44780 92290,44784 92291,44788 92293,44791 92295,44795 92299,44797 92302,44799 92306,44800 92310,44801 92314,44800 92318,44799 92322,44797 92325,44795 92327,44791 92329,44788 92331,44784 92331,44780 92331,44592 92331,44586 92332,44580 92334,44574 92337,44568 92341,44564 92346,44561 92351,44560 92357,44559 92362,44561 92366,44564 92368,44569 92368,44574 92368,45136 92369,45142 92371,45147 92373,45153 92377,45157 92381,45161 92386,45163 92392,45165 92398,45166 92403,45165 92409,45163 92414,45161 92418,45157 92422,45153 92425,45147 92426,45142 92427,45136 92427,44833 92427,44829 92428,44824 92430,44821 92433,44818 92436,44815 92439,44814 92443,44812 92447,44812 92451,44812 92455,44814 92458,44815 92461,44818 92464,44821 92466,44824 92467,44829 92467,44833 92467,45203 92468,45209 92469,45215 92472,45220 92476,45224 92480,45228 92485,45231 92491,45232 92496,45233 92502,45232 92508,45231 92513,45228 92517,45224 92521,45220 92524,45215 92525,45209 92526,45203 92526,44581 92526,44577 92528,44572 92530,44567 92532,44564 92539,44562 92547,44562 92554,44566 92559,44571 92665,44750 92672,44756 92679,44760 92688,44767 92695,44775 92700,44785 92702,44796 92704,44802 92706,44808 92710,44813 92714,44817 92720,44820 92725,44822 92731,44823 92737,44823 92822,44823 92769,45014 92813,45014 92813,45153 92814,45158 92817,45162 92821,45165 92826,45166 92831,45165 92835,45162 92837,45158 92838,45153 92838,45014 92848,45013 92858,45013 92867,45013 92877,45014 92877,45122 92878,45127 92881,45131 92885,45134 92890,45135 92894,45134 92899,45131 92901,45127 92902,45122 92902,45014 92952,45014 92893,44847 92894,44844 92896,44842 92898,44842 92900,44844 92966,44907 92968,44910 92972,44912 92976,44912 92980,44910 92983,44907 92985,44903 92984,44899 92982,44895 92901,44814 92895,44808 92889,44803 92882,44800 92874,44797 92870,44790 92867,44783 92866,44774 92868,44766 92875,44763 92882,44759 92888,44753 92892,44746 92896,44739 92898,44731 92899,44723 92899,44715 92897,44707 92893,44700 92889,44693 92883,44687 92877,44683 92869,44679 92861,44677 92854,44676 92845,44677 92838,44679 92830,44682 92824,44687 92818,44693 92813,44699 92810,44707 92808,44715 92807,44723 92808,44731 92810,44739 92814,44746 92818,44753 92824,44758 92831,44763 92838,44766 92841,44782 92842,44788 92840,44793 92838,44797 92834,44801 92746,44801 92741,44802 92735,44800 92731,44797 92727,44793 92726,44787 92723,44781 92719,44776 92714,44772 Z"/>
    <path fill="none" stroke="rgb(255,255,255)" d="M 92714,44772 L 92709,44763 92707,44754 92706,44745 92702,44728 92579,44518 92568,44500 92556,44482 92541,44466 92524,44455 92506,44450 92489,44446 92479,44445 92473,44443 92469,44441 92467,44438 92466,44434 92466,44398 92475,44394 92483,44388 92490,44382 92496,44375 92500,44366 92504,44358 92506,44348 92507,44339 92507,44330 92506,44318 92502,44306 92496,44296 92488,44286 92479,44278 92468,44272 92456,44269 92444,44267 92432,44269 92420,44272 92409,44278 92400,44286 92392,44296 92386,44306 92383,44318 92381,44330 92381,44339 92382,44348 92384,44358 92388,44366 92393,44375 92399,44382 92405,44388 92413,44394 92422,44398 92422,44434 92422,44438 92421,44441 92418,44443 92415,44444 92398,44446 92381,44450 92365,44456 92351,44464 92337,44477 92326,44491 92315,44507 92307,44523 92300,44540 92294,44557 92291,44575 92289,44594 92289,44780 92290,44784 92291,44788 92293,44791 92295,44795 92299,44797 92302,44799 92306,44800 92310,44801 92314,44800 92318,44799 92322,44797 92325,44795 92327,44791 92329,44788 92331,44784 92331,44780 92331,44592 92331,44586 92332,44580 92334,44574 92337,44568 92341,44564 92346,44561 92351,44560 92357,44559 92362,44561 92366,44564 92368,44569 92368,44574 92368,45136 92369,45142 92371,45147 92373,45153 92377,45157 92381,45161 92386,45163 92392,45165 92398,45166 92403,45165 92409,45163 92414,45161 92418,45157 92422,45153 92425,45147 92426,45142 92427,45136 92427,44833 92427,44829 92428,44824 92430,44821 92433,44818 92436,44815 92439,44814 92443,44812 92447,44812 92451,44812 92455,44814 92458,44815 92461,44818 92464,44821 92466,44824 92467,44829 92467,44833 92467,45203 92468,45209 92469,45215 92472,45220 92476,45224 92480,45228 92485,45231 92491,45232 92496,45233 92502,45232 92508,45231 92513,45228 92517,45224 92521,45220 92524,45215 92525,45209 92526,45203 92526,44581 92526,44577 92528,44572 92530,44567 92532,44564 92539,44562 92547,44562 92554,44566 92559,44571 92665,44750 92672,44756 92679,44760 92688,44767 92695,44775 92700,44785 92702,44796 92704,44802 92706,44808 92710,44813 92714,44817 92720,44820 92725,44822 92731,44823 92737,44823 92822,44823 92769,45014 92813,45014 92813,45153 92814,45158 92817,45162 92821,45165 92826,45166 92831,45165 92835,45162 92837,45158 92838,45153 92838,45014 92848,45013 92858,45013 92867,45013 92877,45014 92877,45122 92878,45127 92881,45131 92885,45134 92890,45135 92894,45134 92899,45131 92901,45127 92902,45122 92902,45014 92952,45014 92893,44847 92894,44844 92896,44842 92898,44842 92900,44844 92966,44907 92968,44910 92972,44912 92976,44912 92980,44910 92983,44907 92985,44903 92984,44899 92982,44895 92901,44814 92895,44808 92889,44803 92882,44800 92874,44797 92870,44790 92867,44783 92866,44774 92868,44766 92875,44763 92882,44759 92888,44753 92892,44746 92896,44739 92898,44731 92899,44723 92899,44715 92897,44707 92893,44700 92889,44693 92883,44687 92877,44683 92869,44679 92861,44677 92854,44676 92845,44677 92838,44679 92830,44682 92824,44687 92818,44693 92813,44699 92810,44707 92808,44715 92807,44723 92808,44731 92810,44739 92814,44746 92818,44753 92824,44758 92831,44763 92838,44766 92841,44782 92842,44788 92840,44793 92838,44797 92834,44801 92746,44801 92741,44802 92735,44800 92731,44797 92727,44793 92726,44787 92723,44781 92719,44776 92714,44772 Z"/>
   </g>
  </g>
  <g class="com.sun.star.drawing.PolyPolygonShape">
   <g id="id8">
    <rect class="BoundingBox" stroke="none" fill="none" x="90988" y="44480" width="975" height="540"/>
    <path fill="rgb(255,255,255)" stroke="none" d="M 91674,44638 L 91663,44645 91653,44652 91643,44660 91633,44669 91624,44679 91616,44688 91608,44699 91601,44710 91594,44721 91589,44733 91584,44745 91580,44758 91576,44771 91574,44783 91572,44796 91571,44809 91563,44809 91561,44798 91556,44788 91548,44778 91540,44771 91637,44564 91674,44638 Z M 91683,44655 L 91673,44661 91663,44667 91654,44675 91646,44683 91637,44691 91630,44700 91623,44710 91617,44719 91611,44730 91606,44740 91601,44751 91598,44763 91594,44774 91592,44786 91591,44798 91590,44809 91578,44809 91579,44797 91581,44784 91583,44772 91587,44760 91590,44747 91595,44735 91601,44724 91607,44713 91613,44703 91621,44693 91629,44683 91638,44674 91647,44666 91657,44658 91667,44651 91678,44644 91683,44655 Z M 91692,44672 L 91675,44684 91659,44697 91645,44713 91633,44730 91624,44748 91617,44768 91612,44789 91609,44809 91737,44809 91739,44803 91742,44797 91746,44792 91750,44788 91692,44672 Z M 91921,44738 L 91929,44755 91935,44773 91939,44792 91941,44810 91940,44829 91938,44847 91934,44865 91928,44883 91919,44900 91909,44915 91897,44930 91884,44943 91870,44954 91854,44964 91837,44972 91820,44978 91802,44982 91783,44983 91765,44983 91745,44981 91727,44977 91710,44971 91693,44962 91678,44952 91663,44940 91650,44927 91639,44912 91629,44897 91621,44880 91615,44862 91611,44844 91609,44825 91737,44825 91740,44833 91743,44840 91749,44846 91755,44850 91763,44854 91770,44855 91778,44856 91786,44854 91793,44852 91799,44847 91805,44842 91809,44835 91812,44828 91814,44820 91813,44813 91812,44805 91921,44738 Z M 91940,44708 L 91930,44714 91920,44700 91909,44688 91897,44676 91885,44666 91871,44657 91857,44649 91842,44643 91826,44637 91810,44634 91794,44631 91778,44630 91761,44631 91744,44633 91728,44636 91712,44641 91697,44647 91692,44637 91708,44630 91725,44625 91742,44621 91759,44619 91778,44619 91795,44620 91812,44622 91829,44626 91846,44632 91862,44639 91877,44647 91892,44657 91905,44668 91918,44680 91929,44693 91940,44708 Z M 91706,44665 L 91720,44659 91734,44655 91748,44652 91763,44651 91778,44650 91792,44651 91807,44653 91821,44656 91834,44661 91848,44667 91861,44674 91873,44682 91884,44691 91895,44701 91904,44712 91913,44724 91803,44791 91795,44785 91786,44780 91776,44779 91766,44780 91706,44665 Z M 91183,44794 L 91175,44792 91168,44792 91161,44795 91155,44800 91150,44806 91148,44814 91148,44821 91150,44829 91155,44835 91161,44840 91168,44842 91175,44843 91183,44841 91189,44837 91194,44832 91198,44825 91340,44820 91339,44833 91337,44846 91335,44859 91331,44871 91326,44884 91321,44895 91314,44907 91307,44918 91299,44928 91289,44937 91280,44946 91269,44954 91258,44961 91247,44968 91235,44973 91223,44977 91210,44981 91197,44983 91184,44985 91171,44985 91158,44984 91145,44982 91132,44980 91120,44976 91108,44971 91096,44966 91085,44959 91074,44952 91064,44943 91054,44934 91045,44925 91037,44914 91030,44903 91024,44892 91019,44879 91014,44867 91011,44854 91008,44841 91007,44828 91007,44815 91008,44802 91009,44789 91012,44776 91016,44764 91020,44750 91026,44738 91032,44727 91040,44716 91048,44706 91057,44696 91067,44688 91077,44680 91088,44673 91100,44666 91111,44661 91124,44656 91136,44653 91149,44651 91162,44649 91175,44649 91188,44649 91201,44651 91214,44654 91227,44658 91204,44746 91201,44760 91196,44772 91190,44783 91183,44794 Z M 91369,44802 L 91358,44803 91356,44790 91354,44778 91351,44766 91347,44753 91342,44741 91337,44729 91331,44718 91324,44708 91316,44698 91308,44689 91299,44680 91289,44671 91279,44664 91269,44657 91258,44651 91246,44646 91250,44634 91262,44640 91273,44646 91285,44654 91296,44662 91306,44670 91316,44680 91324,44690 91333,44701 91340,44712 91347,44724 91353,44736 91358,44749 91362,44762 91365,44775 91368,44789 91369,44802 Z M 91195,44804 L 91197,44808 91339,44803 91338,44792 91336,44781 91333,44771 91330,44760 91326,44749 91321,44739 91315,44729 91309,44720 91303,44711 91295,44702 91288,44695 91279,44687 91270,44680 91261,44674 91252,44669 91242,44664 91220,44749 91216,44765 91211,44779 91204,44792 91195,44804 Z M 91487,44694 L 91530,44694 91530,44711 91516,44711 91516,44762 91525,44764 91621,44560 91268,44560 91263,44581 91473,44774 91480,44769 91487,44766 91494,44763 91502,44762 91502,44711 91487,44711 91487,44694 Z M 91530,44923 L 91530,44939 91487,44939 91487,44923 91502,44923 91502,44873 91495,44871 91488,44869 91482,44866 91476,44862 91470,44858 91465,44852 91461,44847 91458,44840 91456,44834 91454,44827 91453,44820 91453,44813 91454,44806 91456,44799 91459,44792 91463,44786 91259,44599 91251,44627 91266,44634 91281,44643 91295,44652 91308,44663 91320,44674 91331,44687 91341,44701 91350,44715 91358,44730 91364,44745 91369,44762 91373,44779 91376,44796 91377,44812 91377,44829 91375,44846 91368,44845 91369,44832 91370,44819 91358,44819 91357,44835 91355,44851 91351,44867 91346,44883 91340,44898 91332,44912 91324,44926 91314,44939 91302,44951 91290,44961 91277,44971 91264,44980 91249,44987 91234,44993 91218,44998 91202,45001 91745,45001 91730,44998 91715,44993 91700,44988 91686,44981 91672,44972 91659,44963 91647,44953 91636,44941 91626,44929 91617,44916 91610,44902 91603,44887 91598,44872 91594,44857 91591,44841 91590,44825 91578,44825 91579,44839 91581,44852 91574,44854 91572,44840 91571,44825 91563,44825 91561,44834 91558,44843 91553,44850 91547,44857 91540,44863 91533,44868 91524,44871 91516,44873 91516,44923 91530,44923 Z M 91325,44501 L 91331,44500 91338,44500 91345,44500 91352,44501 91355,44500 91357,44499 91359,44497 91360,44494 91360,44491 91360,44489 91358,44486 91357,44484 91351,44482 91345,44481 91338,44481 91332,44482 91317,44484 91302,44486 91287,44486 91271,44485 91236,44622 91222,44618 91207,44615 91193,44612 91178,44612 91163,44612 91148,44613 91134,44616 91119,44619 91121,44626 91135,44623 91149,44620 91164,44619 91178,44619 91192,44620 91206,44622 91220,44624 91234,44628 91231,44640 91213,44635 91194,44631 91175,44630 91156,44631 91137,44634 91119,44639 91101,44645 91083,44654 91067,44664 91052,44676 91039,44689 91026,44704 91016,44719 91006,44736 90999,44754 90994,44773 90990,44792 90989,44811 90989,44831 90991,44850 90995,44868 91001,44887 91010,44904 91019,44920 91031,44936 91044,44950 91058,44963 91073,44974 91090,44983 91107,44991 91126,44997 91144,45001 91012,45001 91012,45018 91937,45018 91937,45001 91805,45001 91826,44996 91847,44989 91867,44979 91885,44967 91902,44953 91917,44937 91931,44919 91941,44900 91950,44879 91956,44858 91960,44836 91960,44814 91959,44792 91954,44770 91947,44748 91938,44727 91948,44721 91954,44735 91961,44732 91952,44714 91941,44697 91928,44681 91914,44667 91899,44653 91882,44642 91865,44632 91846,44624 91827,44618 91807,44614 91787,44612 91767,44612 91746,44614 91727,44617 91707,44623 91689,44631 91645,44546 91655,44525 91658,44522 91661,44521 91666,44519 91671,44516 91672,44514 91673,44511 91673,44509 91673,44506 91671,44503 91669,44501 91667,44500 91664,44499 91643,44497 91621,44496 91600,44498 91578,44500 91576,44502 91574,44504 91572,44507 91572,44510 91573,44513 91575,44515 91577,44517 91580,44518 91627,44520 91631,44521 91634,44523 91635,44527 91634,44531 91628,44544 91273,44544 91283,44506 91293,44506 91304,44505 91314,44504 91325,44501 Z"/>
    <path fill="none" stroke="rgb(255,255,255)" d="M 91674,44638 L 91663,44645 91653,44652 91643,44660 91633,44669 91624,44679 91616,44688 91608,44699 91601,44710 91594,44721 91589,44733 91584,44745 91580,44758 91576,44771 91574,44783 91572,44796 91571,44809 91563,44809 91561,44798 91556,44788 91548,44778 91540,44771 91637,44564 91674,44638 Z"/>
    <path fill="none" stroke="rgb(255,255,255)" d="M 91683,44655 L 91673,44661 91663,44667 91654,44675 91646,44683 91637,44691 91630,44700 91623,44710 91617,44719 91611,44730 91606,44740 91601,44751 91598,44763 91594,44774 91592,44786 91591,44798 91590,44809 91578,44809 91579,44797 91581,44784 91583,44772 91587,44760 91590,44747 91595,44735 91601,44724 91607,44713 91613,44703 91621,44693 91629,44683 91638,44674 91647,44666 91657,44658 91667,44651 91678,44644 91683,44655 Z"/>
    <path fill="none" stroke="rgb(255,255,255)" d="M 91692,44672 L 91675,44684 91659,44697 91645,44713 91633,44730 91624,44748 91617,44768 91612,44789 91609,44809 91737,44809 91739,44803 91742,44797 91746,44792 91750,44788 91692,44672 Z"/>
    <path fill="none" stroke="rgb(255,255,255)" d="M 91921,44738 L 91929,44755 91935,44773 91939,44792 91941,44810 91940,44829 91938,44847 91934,44865 91928,44883 91919,44900 91909,44915 91897,44930 91884,44943 91870,44954 91854,44964 91837,44972 91820,44978 91802,44982 91783,44983 91765,44983 91745,44981 91727,44977 91710,44971 91693,44962 91678,44952 91663,44940 91650,44927 91639,44912 91629,44897 91621,44880 91615,44862 91611,44844 91609,44825 91737,44825 91740,44833 91743,44840 91749,44846 91755,44850 91763,44854 91770,44855 91778,44856 91786,44854 91793,44852 91799,44847 91805,44842 91809,44835 91812,44828 91814,44820 91813,44813 91812,44805 91921,44738 Z"/>
    <path fill="none" stroke="rgb(255,255,255)" d="M 91940,44708 L 91930,44714 91920,44700 91909,44688 91897,44676 91885,44666 91871,44657 91857,44649 91842,44643 91826,44637 91810,44634 91794,44631 91778,44630 91761,44631 91744,44633 91728,44636 91712,44641 91697,44647 91692,44637 91708,44630 91725,44625 91742,44621 91759,44619 91778,44619 91795,44620 91812,44622 91829,44626 91846,44632 91862,44639 91877,44647 91892,44657 91905,44668 91918,44680 91929,44693 91940,44708 Z"/>
    <path fill="none" stroke="rgb(255,255,255)" d="M 91706,44665 L 91720,44659 91734,44655 91748,44652 91763,44651 91778,44650 91792,44651 91807,44653 91821,44656 91834,44661 91848,44667 91861,44674 91873,44682 91884,44691 91895,44701 91904,44712 91913,44724 91803,44791 91795,44785 91786,44780 91776,44779 91766,44780 91706,44665 Z"/>
    <path fill="none" stroke="rgb(255,255,255)" d="M 91183,44794 L 91175,44792 91168,44792 91161,44795 91155,44800 91150,44806 91148,44814 91148,44821 91150,44829 91155,44835 91161,44840 91168,44842 91175,44843 91183,44841 91189,44837 91194,44832 91198,44825 91340,44820 91339,44833 91337,44846 91335,44859 91331,44871 91326,44884 91321,44895 91314,44907 91307,44918 91299,44928 91289,44937 91280,44946 91269,44954 91258,44961 91247,44968 91235,44973 91223,44977 91210,44981 91197,44983 91184,44985 91171,44985 91158,44984 91145,44982 91132,44980 91120,44976 91108,44971 91096,44966 91085,44959 91074,44952 91064,44943 91054,44934 91045,44925 91037,44914 91030,44903 91024,44892 91019,44879 91014,44867 91011,44854 91008,44841 91007,44828 91007,44815 91008,44802 91009,44789 91012,44776 91016,44764 91020,44750 91026,44738 91032,44727 91040,44716 91048,44706 91057,44696 91067,44688 91077,44680 91088,44673 91100,44666 91111,44661 91124,44656 91136,44653 91149,44651 91162,44649 91175,44649 91188,44649 91201,44651 91214,44654 91227,44658 91204,44746 91201,44760 91196,44772 91190,44783 91183,44794 Z"/>
    <path fill="none" stroke="rgb(255,255,255)" d="M 91369,44802 L 91358,44803 91356,44790 91354,44778 91351,44766 91347,44753 91342,44741 91337,44729 91331,44718 91324,44708 91316,44698 91308,44689 91299,44680 91289,44671 91279,44664 91269,44657 91258,44651 91246,44646 91250,44634 91262,44640 91273,44646 91285,44654 91296,44662 91306,44670 91316,44680 91324,44690 91333,44701 91340,44712 91347,44724 91353,44736 91358,44749 91362,44762 91365,44775 91368,44789 91369,44802 Z"/>
    <path fill="none" stroke="rgb(255,255,255)" d="M 91195,44804 L 91197,44808 91339,44803 91338,44792 91336,44781 91333,44771 91330,44760 91326,44749 91321,44739 91315,44729 91309,44720 91303,44711 91295,44702 91288,44695 91279,44687 91270,44680 91261,44674 91252,44669 91242,44664 91220,44749 91216,44765 91211,44779 91204,44792 91195,44804 Z"/>
    <path fill="none" stroke="rgb(255,255,255)" d="M 91487,44694 L 91530,44694 91530,44711 91516,44711 91516,44762 91525,44764 91621,44560 91268,44560 91263,44581 91473,44774 91480,44769 91487,44766 91494,44763 91502,44762 91502,44711 91487,44711 91487,44694 Z"/>
    <path fill="none" stroke="rgb(255,255,255)" d="M 91530,44923 L 91530,44939 91487,44939 91487,44923 91502,44923 91502,44873 91495,44871 91488,44869 91482,44866 91476,44862 91470,44858 91465,44852 91461,44847 91458,44840 91456,44834 91454,44827 91453,44820 91453,44813 91454,44806 91456,44799 91459,44792 91463,44786 91259,44599 91251,44627 91266,44634 91281,44643 91295,44652 91308,44663 91320,44674 91331,44687 91341,44701 91350,44715 91358,44730 91364,44745 91369,44762 91373,44779 91376,44796 91377,44812 91377,44829 91375,44846 91368,44845 91369,44832 91370,44819 91358,44819 91357,44835 91355,44851 91351,44867 91346,44883 91340,44898 91332,44912 91324,44926 91314,44939 91302,44951 91290,44961 91277,44971 91264,44980 91249,44987 91234,44993 91218,44998 91202,45001 91745,45001 91730,44998 91715,44993 91700,44988 91686,44981 91672,44972 91659,44963 91647,44953 91636,44941 91626,44929 91617,44916 91610,44902 91603,44887 91598,44872 91594,44857 91591,44841 91590,44825 91578,44825 91579,44839 91581,44852 91574,44854 91572,44840 91571,44825 91563,44825 91561,44834 91558,44843 91553,44850 91547,44857 91540,44863 91533,44868 91524,44871 91516,44873 91516,44923 91530,44923 Z"/>
    <path fill="none" stroke="rgb(255,255,255)" d="M 91325,44501 L 91331,44500 91338,44500 91345,44500 91352,44501 91355,44500 91357,44499 91359,44497 91360,44494 91360,44491 91360,44489 91358,44486 91357,44484 91351,44482 91345,44481 91338,44481 91332,44482 91317,44484 91302,44486 91287,44486 91271,44485 91236,44622 91222,44618 91207,44615 91193,44612 91178,44612 91163,44612 91148,44613 91134,44616 91119,44619 91121,44626 91135,44623 91149,44620 91164,44619 91178,44619 91192,44620 91206,44622 91220,44624 91234,44628 91231,44640 91213,44635 91194,44631 91175,44630 91156,44631 91137,44634 91119,44639 91101,44645 91083,44654 91067,44664 91052,44676 91039,44689 91026,44704 91016,44719 91006,44736 90999,44754 90994,44773 90990,44792 90989,44811 90989,44831 90991,44850 90995,44868 91001,44887 91010,44904 91019,44920 91031,44936 91044,44950 91058,44963 91073,44974 91090,44983 91107,44991 91126,44997 91144,45001 91012,45001 91012,45018 91937,45018 91937,45001 91805,45001 91826,44996 91847,44989 91867,44979 91885,44967 91902,44953 91917,44937 91931,44919 91941,44900 91950,44879 91956,44858 91960,44836 91960,44814 91959,44792 91954,44770 91947,44748 91938,44727 91948,44721 91954,44735 91961,44732 91952,44714 91941,44697 91928,44681 91914,44667 91899,44653 91882,44642 91865,44632 91846,44624 91827,44618 91807,44614 91787,44612 91767,44612 91746,44614 91727,44617 91707,44623 91689,44631 91645,44546 91655,44525 91658,44522 91661,44521 91666,44519 91671,44516 91672,44514 91673,44511 91673,44509 91673,44506 91671,44503 91669,44501 91667,44500 91664,44499 91643,44497 91621,44496 91600,44498 91578,44500 91576,44502 91574,44504 91572,44507 91572,44510 91573,44513 91575,44515 91577,44517 91580,44518 91627,44520 91631,44521 91634,44523 91635,44527 91634,44531 91628,44544 91273,44544 91283,44506 91293,44506 91304,44505 91314,44504 91325,44501 Z"/>
   </g>
  </g>
  <g class="com.sun.star.drawing.PolyPolygonShape">
   <g id="id9">
    <rect class="BoundingBox" stroke="none" fill="none" x="90918" y="43606" width="2276" height="2289"/>
    <path fill="rgb(255,0,0)" stroke="none" d="M 93192,43822 L 91133,45893 91044,45893 91031,45893 91019,45891 91008,45888 90996,45884 90985,45879 90975,45872 90965,45865 90956,45857 90947,45848 90940,45838 90934,45827 90929,45816 90925,45805 90922,45793 90920,45781 90919,45768 90919,45679 92979,43607 93068,43607 93080,43608 93092,43609 93104,43612 93115,43616 93126,43622 93137,43628 93147,43635 93156,43644 93164,43652 93171,43662 93177,43673 93183,43684 93187,43696 93190,43707 93191,43720 93192,43732 93192,43822 Z"/>
    <path fill="none" stroke="rgb(255,0,0)" d="M 93192,43822 L 91133,45893 91044,45893 91031,45893 91019,45891 91008,45888 90996,45884 90985,45879 90975,45872 90965,45865 90956,45857 90947,45848 90940,45838 90934,45827 90929,45816 90925,45805 90922,45793 90920,45781 90919,45768 90919,45679 92979,43607 93068,43607 93080,43608 93092,43609 93104,43612 93115,43616 93126,43622 93137,43628 93147,43635 93156,43644 93164,43652 93171,43662 93177,43673 93183,43684 93187,43696 93190,43707 93191,43720 93192,43732 93192,43822 Z"/>
   </g>
  </g>
  <g class="com.sun.star.drawing.PolyPolygonShape">
   <g id="id10">
    <rect class="BoundingBox" stroke="none" fill="none" x="90918" y="43606" width="2276" height="2289"/>
    <path fill="rgb(255,0,0)" stroke="none" d="M 93192,43822 L 91133,45893 91044,45893 91031,45893 91019,45891 91008,45888 90996,45884 90985,45879 90975,45872 90965,45865 90956,45857 90947,45848 90940,45838 90934,45827 90929,45816 90925,45805 90922,45793 90920,45781 90919,45768 90919,45679 92979,43607 93068,43607 93080,43608 93092,43609 93104,43612 93115,43616 93126,43622 93137,43628 93147,43635 93156,43644 93164,43652 93171,43662 93177,43673 93183,43684 93187,43696 93190,43707 93191,43720 93192,43732 93192,43822 Z"/>
    <path fill="none" stroke="rgb(255,0,0)" d="M 93192,43822 L 91133,45893 91044,45893 91031,45893 91019,45891 91008,45888 90996,45884 90985,45879 90975,45872 90965,45865 90956,45857 90947,45848 90940,45838 90934,45827 90929,45816 90925,45805 90922,45793 90920,45781 90919,45768 90919,45679 92979,43607 93068,43607 93080,43608 93092,43609 93104,43612 93115,43616 93126,43622 93137,43628 93147,43635 93156,43644 93164,43652 93171,43662 93177,43673 93183,43684 93187,43696 93190,43707 93191,43720 93192,43732 93192,43822 Z"/>
   </g>
  </g>
 </g>
</svg>