<?xml version="1.0" encoding="UTF-8"?>
<!DOCTYPE svg PUBLIC "-//W3C//DTD SVG 1.1//EN" "http://www.w3.org/Graphics/SVG/1.1/DTD/svg11.dtd">
<svg version="1.2" width="25.03mm" height="25.04mm" viewBox="41349 36498 2503 2504" preserveAspectRatio="xMidYMid" fill-rule="evenodd" stroke-width="28.222" stroke-linejoin="round" xmlns="http://www.w3.org/2000/svg" xmlns:ooo="http://xml.openoffice.org/svg/export" xmlns:xlink="http://www.w3.org/1999/xlink" xmlns:presentation="http://sun.com/xmlns/staroffice/presentation" xmlns:smil="http://www.w3.org/2001/SMIL20/" xmlns:anim="urn:oasis:names:tc:opendocument:xmlns:animation:1.0" xml:space="preserve">
 <defs class="EmbeddedBulletChars">
  <g id="bullet-char-template-57356" transform="scale(0.00048828125,-0.00048828125)">
   <path d="M 580,1141 L 1163,571 580,0 -4,571 580,1141 Z"/>
  </g>
  <g id="bullet-char-template-57354" transform="scale(0.00048828125,-0.00048828125)">
   <path d="M 8,1128 L 1137,1128 1137,0 8,0 8,1128 Z"/>
  </g>
  <g id="bullet-char-template-10146" transform="scale(0.00048828125,-0.00048828125)">
   <path d="M 174,0 L 602,739 174,1481 1456,739 174,0 Z M 1358,739 L 309,1346 659,739 1358,739 Z"/>
  </g>
  <g id="bullet-char-template-10132" transform="scale(0.00048828125,-0.00048828125)">
   <path d="M 2015,739 L 1276,0 717,0 1260,543 174,543 174,936 1260,936 717,1481 1274,1481 2015,739 Z"/>
  </g>
  <g id="bullet-char-template-10007" transform="scale(0.00048828125,-0.00048828125)">
   <path d="M 0,-2 C -7,14 -16,27 -25,37 L 356,567 C 262,823 215,952 215,954 215,979 228,992 255,992 264,992 276,990 289,987 310,991 331,999 354,1012 L 381,999 492,748 772,1049 836,1024 860,1049 C 881,1039 901,1025 922,1006 886,937 835,863 770,784 769,783 710,716 594,584 L 774,223 C 774,196 753,168 711,139 L 727,119 C 717,90 699,76 672,76 641,76 570,178 457,381 L 164,-76 C 142,-110 111,-127 72,-127 30,-127 9,-110 8,-76 1,-67 -2,-52 -2,-32 -2,-23 -1,-13 0,-2 Z"/>
  </g>
  <g id="bullet-char-template-10004" transform="scale(0.00048828125,-0.00048828125)">
   <path d="M 285,-33 C 182,-33 111,30 74,156 52,228 41,333 41,471 41,549 55,616 82,672 116,743 169,778 240,778 293,778 328,747 346,684 L 369,508 C 377,444 397,411 428,410 L 1163,1116 C 1174,1127 1196,1133 1229,1133 1271,1133 1292,1118 1292,1087 L 1292,965 C 1292,929 1282,901 1262,881 L 442,47 C 390,-6 338,-33 285,-33 Z"/>
  </g>
  <g id="bullet-char-template-9679" transform="scale(0.00048828125,-0.00048828125)">
   <path d="M 813,0 C 632,0 489,54 383,161 276,268 223,411 223,592 223,773 276,916 383,1023 489,1130 632,1184 813,1184 992,1184 1136,1130 1245,1023 1353,916 1407,772 1407,592 1407,412 1353,268 1245,161 1136,54 992,0 813,0 Z"/>
  </g>
  <g id="bullet-char-template-8226" transform="scale(0.00048828125,-0.00048828125)">
   <path d="M 346,457 C 273,457 209,483 155,535 101,586 74,649 74,723 74,796 101,859 155,911 209,963 273,989 346,989 419,989 480,963 531,910 582,859 608,796 608,723 608,648 583,586 532,535 482,483 420,457 346,457 Z"/>
  </g>
  <g id="bullet-char-template-8211" transform="scale(0.00048828125,-0.00048828125)">
   <path d="M -4,459 L 1135,459 1135,606 -4,606 -4,459 Z"/>
  </g>
  <g id="bullet-char-template-61548" transform="scale(0.00048828125,-0.00048828125)">
   <path d="M 173,740 C 173,903 231,1043 346,1159 462,1274 601,1332 765,1332 928,1332 1067,1274 1183,1159 1299,1043 1357,903 1357,740 1357,577 1299,437 1183,322 1067,206 928,148 765,148 601,148 462,206 346,322 231,437 173,577 173,740 Z"/>
  </g>
 </defs>
 <g class="Page">
  <g class="com.sun.star.drawing.PolyPolygonShape">
   <g id="id3">
    <rect class="BoundingBox" stroke="none" fill="none" x="41349" y="36498" width="2503" height="2504"/>
    <path fill="rgb(0,0,255)" stroke="none" d="M 41350,38820 L 41350,36680 41350,36662 41353,36645 41357,36628 41363,36611 41371,36595 41380,36580 41390,36565 41402,36552 41415,36540 41430,36530 41445,36521 41461,36513 41478,36507 41495,36503 41512,36500 41530,36499 43669,36499 43686,36500 43704,36503 43721,36507 43739,36513 43755,36521 43770,36530 43784,36540 43797,36552 43809,36565 43820,36580 43829,36595 43837,36611 43842,36628 43847,36645 43849,36662 43850,36680 43850,38820 43849,38837 43847,38855 43842,38872 43837,38889 43829,38905 43820,38920 43809,38934 43797,38948 43784,38959 43770,38970 43755,38979 43739,38987 43721,38993 43704,38997 43686,38999 43669,39000 41530,39000 41512,38999 41495,38997 41478,38993 41461,38987 41445,38979 41430,38970 41415,38959 41402,38948 41390,38934 41380,38920 41371,38905 41363,38889 41357,38872 41353,38855 41350,38837 41350,38820 Z"/>
    <path fill="none" stroke="rgb(0,0,255)" d="M 41350,38820 L 41350,36680 41350,36662 41353,36645 41357,36628 41363,36611 41371,36595 41380,36580 41390,36565 41402,36552 41415,36540 41430,36530 41445,36521 41461,36513 41478,36507 41495,36503 41512,36500 41530,36499 43669,36499 43686,36500 43704,36503 43721,36507 43739,36513 43755,36521 43770,36530 43784,36540 43797,36552 43809,36565 43820,36580 43829,36595 43837,36611 43842,36628 43847,36645 43849,36662 43850,36680 43850,38820 43849,38837 43847,38855 43842,38872 43837,38889 43829,38905 43820,38920 43809,38934 43797,38948 43784,38959 43770,38970 43755,38979 43739,38987 43721,38993 43704,38997 43686,38999 43669,39000 41530,39000 41512,38999 41495,38997 41478,38993 41461,38987 41445,38979 41430,38970 41415,38959 41402,38948 41390,38934 41380,38920 41371,38905 41363,38889 41357,38872 41353,38855 41350,38837 41350,38820 Z"/>
   </g>
  </g>
  <g class="com.sun.star.drawing.PolyPolygonShape">
   <g id="id4">
    <rect class="BoundingBox" stroke="none" fill="none" x="41390" y="36540" width="2421" height="2421"/>
    <path fill="rgb(255,255,255)" stroke="none" d="M 41391,38820 L 41391,36680 41392,36666 41394,36653 41397,36640 41402,36627 41408,36615 41415,36603 41423,36592 41432,36582 41442,36573 41453,36565 41465,36558 41477,36552 41490,36547 41503,36544 41516,36542 41530,36541 43670,36541 43683,36542 43697,36544 43710,36547 43723,36552 43735,36558 43747,36565 43758,36573 43768,36582 43777,36592 43785,36603 43792,36615 43798,36627 43803,36640 43806,36653 43808,36666 43809,36680 43809,38820 43808,38834 43806,38847 43803,38860 43798,38873 43792,38885 43785,38897 43777,38908 43768,38918 43758,38927 43747,38935 43735,38942 43723,38948 43710,38953 43697,38956 43683,38958 43670,38959 41530,38959 41516,38958 41503,38956 41490,38953 41477,38948 41465,38942 41453,38935 41442,38927 41432,38918 41423,38908 41415,38897 41408,38885 41402,38873 41397,38860 41394,38847 41392,38834 41391,38820 Z"/>
    <path fill="none" stroke="rgb(255,255,255)" d="M 41391,38820 L 41391,36680 41392,36666 41394,36653 41397,36640 41402,36627 41408,36615 41415,36603 41423,36592 41432,36582 41442,36573 41453,36565 41465,36558 41477,36552 41490,36547 41503,36544 41516,36542 41530,36541 43670,36541 43683,36542 43697,36544 43710,36547 43723,36552 43735,36558 43747,36565 43758,36573 43768,36582 43777,36592 43785,36603 43792,36615 43798,36627 43803,36640 43806,36653 43808,36666 43809,36680 43809,38820 43808,38834 43806,38847 43803,38860 43798,38873 43792,38885 43785,38897 43777,38908 43768,38918 43758,38927 43747,38935 43735,38942 43723,38948 43710,38953 43697,38956 43683,38958 43670,38959 41530,38959 41516,38958 41503,38956 41490,38953 41477,38948 41465,38942 41453,38935 41442,38927 41432,38918 41423,38908 41415,38897 41408,38885 41402,38873 41397,38860 41394,38847 41392,38834 41391,38820 Z"/>
   </g>
  </g>
  <g class="com.sun.star.drawing.PolyPolygonShape">
   <g id="id5">
    <rect class="BoundingBox" stroke="none" fill="none" x="41432" y="36582" width="2337" height="2337"/>
    <path fill="rgb(0,0,255)" stroke="none" d="M 41433,38820 L 41433,36680 41433,36670 41435,36661 41437,36652 41440,36643 41444,36634 41449,36626 41455,36618 41461,36611 41468,36605 41476,36599 41484,36594 41493,36590 41502,36587 41511,36585 41521,36583 41530,36583 43670,36583 43679,36583 43689,36585 43698,36587 43707,36590 43716,36594 43724,36599 43731,36605 43738,36611 43745,36618 43751,36626 43755,36634 43760,36643 43763,36652 43765,36661 43766,36670 43767,36680 43767,38820 43766,38829 43765,38839 43763,38848 43760,38857 43755,38866 43751,38874 43745,38881 43738,38889 43731,38895 43724,38901 43716,38906 43707,38910 43698,38913 43689,38915 43679,38917 43670,38917 41530,38917 41521,38917 41511,38915 41502,38913 41493,38910 41484,38906 41476,38901 41468,38895 41461,38889 41455,38881 41449,38874 41444,38866 41440,38857 41437,38848 41435,38839 41433,38829 41433,38820 Z"/>
    <path fill="none" stroke="rgb(0,0,255)" d="M 41433,38820 L 41433,36680 41433,36670 41435,36661 41437,36652 41440,36643 41444,36634 41449,36626 41455,36618 41461,36611 41468,36605 41476,36599 41484,36594 41493,36590 41502,36587 41511,36585 41521,36583 41530,36583 43670,36583 43679,36583 43689,36585 43698,36587 43707,36590 43716,36594 43724,36599 43731,36605 43738,36611 43745,36618 43751,36626 43755,36634 43760,36643 43763,36652 43765,36661 43766,36670 43767,36680 43767,38820 43766,38829 43765,38839 43763,38848 43760,38857 43755,38866 43751,38874 43745,38881 43738,38889 43731,38895 43724,38901 43716,38906 43707,38910 43698,38913 43689,38915 43679,38917 43670,38917 41530,38917 41521,38917 41511,38915 41502,38913 41493,38910 41484,38906 41476,38901 41468,38895 41461,38889 41455,38881 41449,38874 41444,38866 41440,38857 41437,38848 41435,38839 41433,38829 41433,38820 Z"/>
   </g>
  </g>
  <g class="com.sun.star.drawing.PolyPolygonShape">
   <g id="id6">
    <rect class="BoundingBox" stroke="none" fill="none" x="41432" y="36582" width="2337" height="2337"/>
    <path fill="rgb(255,0,0)" stroke="none" d="M 43531,36583 L 43670,36583 43679,36583 43689,36585 43698,36587 43707,36590 43716,36594 43724,36599 43731,36605 43739,36611 43745,36618 43751,36626 43755,36634 43760,36643 43763,36652 43765,36661 43766,36670 43767,36680 43767,36819 41669,38917 41530,38917 41521,38917 41511,38915 41502,38913 41493,38910 41484,38906 41476,38901 41468,38895 41461,38889 41455,38881 41449,38874 41444,38866 41440,38857 41437,38848 41435,38839 41433,38829 41433,38820 41433,38681 43531,36583 Z"/>
    <path fill="none" stroke="rgb(255,0,0)" d="M 43531,36583 L 43670,36583 43679,36583 43689,36585 43698,36587 43707,36590 43716,36594 43724,36599 43731,36605 43739,36611 43745,36618 43751,36626 43755,36634 43760,36643 43763,36652 43765,36661 43766,36670 43767,36680 43767,36819 41669,38917 41530,38917 41521,38917 41511,38915 41502,38913 41493,38910 41484,38906 41476,38901 41468,38895 41461,38889 41455,38881 41449,38874 41444,38866 41440,38857 41437,38848 41435,38839 41433,38829 41433,38820 41433,38681 43531,36583 Z"/>
   </g>
  </g>
  <g class="com.sun.star.drawing.PolyPolygonShape">
   <g id="id7">
    <rect class="BoundingBox" stroke="none" fill="none" x="41759" y="37141" width="1215" height="1114"/>
    <path fill="rgb(255,255,255)" stroke="none" d="M 42026,37811 L 42026,37803 42024,37794 42022,37787 42020,37779 42016,37771 42012,37764 42007,37758 42002,37752 41996,37746 41989,37741 41982,37737 41975,37734 41967,37731 41959,37729 41951,37728 41943,37727 41935,37728 41927,37729 41919,37731 41911,37734 41903,37737 41897,37741 41890,37746 41884,37752 41878,37758 41874,37764 41869,37771 41866,37779 41863,37787 41861,37794 41860,37803 41860,37811 41860,37819 41861,37827 41863,37835 41866,37843 41869,37850 41874,37857 41878,37863 41884,37869 41890,37875 41897,37880 41903,37884 41911,37888 41919,37890 41927,37892 41935,37893 41943,37894 41951,37893 41959,37892 41967,37890 41975,37888 41982,37884 41989,37880 41996,37875 42002,37869 42007,37863 42012,37857 42016,37850 42020,37843 42022,37835 42024,37827 42026,37819 42026,37811 Z M 42276,37838 L 42502,37612 42425,37613 42348,37616 42271,37619 42194,37623 42117,37628 42040,37634 41963,37641 41886,37649 42098,37207 42907,37207 42972,37142 42058,37142 41872,37543 41844,37606 41840,37616 41834,37626 41828,37634 41821,37643 41808,37657 41795,37671 41782,37684 41768,37697 41765,37701 41764,37706 41762,37763 41761,37819 41760,37876 41761,37932 41761,37949 41762,37965 41764,37981 41766,37997 41772,38020 41778,38043 41784,38065 41791,38087 41799,38109 41807,38131 41816,38153 41825,38174 41861,38174 41861,38253 42141,37973 41994,37973 41994,37951 42163,37951 42247,37867 42169,37867 42169,37838 42276,37838 Z"/>
    <path fill="none" stroke="rgb(255,255,255)" d="M 42026,37811 L 42026,37803 42024,37794 42022,37787 42020,37779 42016,37771 42012,37764 42007,37758 42002,37752 41996,37746 41989,37741 41982,37737 41975,37734 41967,37731 41959,37729 41951,37728 41943,37727 41935,37728 41927,37729 41919,37731 41911,37734 41903,37737 41897,37741 41890,37746 41884,37752 41878,37758 41874,37764 41869,37771 41866,37779 41863,37787 41861,37794 41860,37803 41860,37811 41860,37819 41861,37827 41863,37835 41866,37843 41869,37850 41874,37857 41878,37863 41884,37869 41890,37875 41897,37880 41903,37884 41911,37888 41919,37890 41927,37892 41935,37893 41943,37894 41951,37893 41959,37892 41967,37890 41975,37888 41982,37884 41989,37880 41996,37875 42002,37869 42007,37863 42012,37857 42016,37850 42020,37843 42022,37835 42024,37827 42026,37819 42026,37811 Z"/>
    <path fill="none" stroke="rgb(255,255,255)" d="M 42276,37838 L 42502,37612 42425,37613 42348,37616 42271,37619 42194,37623 42117,37628 42040,37634 41963,37641 41886,37649 42098,37207 42907,37207 42972,37142 42058,37142 41872,37543 41844,37606 41840,37616 41834,37626 41828,37634 41821,37643 41808,37657 41795,37671 41782,37684 41768,37697 41765,37701 41764,37706 41762,37763 41761,37819 41760,37876 41761,37932 41761,37949 41762,37965 41764,37981 41766,37997 41772,38020 41778,38043 41784,38065 41791,38087 41799,38109 41807,38131 41816,38153 41825,38174 41861,38174 41861,38253 42141,37973 41994,37973 41994,37951 42163,37951 42247,37867 42169,37867 42169,37838 42276,37838 Z"/>
   </g>
  </g>
  <g class="com.sun.star.drawing.PolyPolygonShape">
   <g id="id8">
    <rect class="BoundingBox" stroke="none" fill="none" x="42168" y="37347" width="1274" height="1072"/>
    <path fill="rgb(255,255,255)" stroke="none" d="M 43340,37812 L 43340,37804 43339,37796 43337,37788 43334,37780 43330,37773 43326,37766 43321,37760 43316,37753 43310,37748 43303,37743 43296,37739 43289,37735 43281,37733 43273,37731 43265,37729 43257,37729 43249,37729 43241,37731 43233,37733 43225,37735 43218,37739 43211,37743 43204,37748 43198,37753 43193,37760 43188,37766 43184,37773 43180,37780 43177,37788 43175,37796 43174,37804 43174,37812 43174,37820 43175,37829 43177,37837 43180,37844 43184,37852 43188,37859 43193,37865 43198,37871 43204,37877 43211,37882 43218,37886 43225,37889 43233,37892 43241,37894 43249,37895 43257,37896 43265,37895 43273,37894 43281,37892 43289,37889 43296,37886 43303,37882 43310,37877 43316,37871 43321,37865 43326,37859 43330,37852 43334,37844 43337,37837 43339,37829 43340,37820 43340,37812 Z M 43434,37997 L 43436,37981 43438,37965 43439,37949 43439,37932 43440,37875 43439,37818 43438,37762 43436,37705 43435,37700 43432,37696 43418,37683 43405,37670 43392,37656 43379,37642 43372,37633 43366,37625 43360,37615 43355,37605 43328,37542 43238,37348 43190,37396 43306,37648 43221,37639 43136,37632 43050,37626 42965,37620 42749,37837 43043,37837 43043,37866 42719,37866 42636,37951 43203,37951 43203,37973 42614,37973 42524,38061 43029,38061 43029,38086 42500,38086 42411,38174 43174,38174 43174,38383 42203,38383 42169,38417 43434,38417 43434,38383 43339,38383 43339,38174 43375,38174 43384,38153 43393,38131 43401,38109 43409,38087 43416,38065 43422,38043 43428,38020 43434,37997 Z"/>
    <path fill="none" stroke="rgb(255,255,255)" d="M 43340,37812 L 43340,37804 43339,37796 43337,37788 43334,37780 43330,37773 43326,37766 43321,37760 43316,37753 43310,37748 43303,37743 43296,37739 43289,37735 43281,37733 43273,37731 43265,37729 43257,37729 43249,37729 43241,37731 43233,37733 43225,37735 43218,37739 43211,37743 43204,37748 43198,37753 43193,37760 43188,37766 43184,37773 43180,37780 43177,37788 43175,37796 43174,37804 43174,37812 43174,37820 43175,37829 43177,37837 43180,37844 43184,37852 43188,37859 43193,37865 43198,37871 43204,37877 43211,37882 43218,37886 43225,37889 43233,37892 43241,37894 43249,37895 43257,37896 43265,37895 43273,37894 43281,37892 43289,37889 43296,37886 43303,37882 43310,37877 43316,37871 43321,37865 43326,37859 43330,37852 43334,37844 43337,37837 43339,37829 43340,37820 43340,37812 Z"/>
    <path fill="none" stroke="rgb(255,255,255)" d="M 43434,37997 L 43436,37981 43438,37965 43439,37949 43439,37932 43440,37875 43439,37818 43438,37762 43436,37705 43435,37700 43432,37696 43418,37683 43405,37670 43392,37656 43379,37642 43372,37633 43366,37625 43360,37615 43355,37605 43328,37542 43238,37348 43190,37396 43306,37648 43221,37639 43136,37632 43050,37626 42965,37620 42749,37837 43043,37837 43043,37866 42719,37866 42636,37951 43203,37951 43203,37973 42614,37973 42524,38061 43029,38061 43029,38086 42500,38086 42411,38174 43174,38174 43174,38383 42203,38383 42169,38417 43434,38417 43434,38383 43339,38383 43339,38174 43375,38174 43384,38153 43393,38131 43401,38109 43409,38087 43416,38065 43422,38043 43428,38020 43434,37997 Z"/>
   </g>
  </g>
  <g class="com.sun.star.drawing.PolyPolygonShape">
   <g id="id9">
    <rect class="BoundingBox" stroke="none" fill="none" x="42168" y="37347" width="1274" height="1072"/>
    <path fill="rgb(255,255,255)" stroke="none" d="M 43340,37812 L 43340,37804 43339,37796 43337,37788 43334,37780 43330,37773 43326,37766 43321,37760 43316,37753 43310,37748 43303,37743 43296,37739 43289,37735 43281,37733 43273,37731 43265,37729 43257,37729 43249,37729 43241,37731 43233,37733 43225,37735 43218,37739 43211,37743 43204,37748 43198,37753 43193,37760 43188,37766 43184,37773 43180,37780 43177,37788 43175,37796 43174,37804 43174,37812 43174,37820 43175,37829 43177,37837 43180,37844 43184,37852 43188,37859 43193,37865 43198,37871 43204,37877 43211,37882 43218,37886 43225,37889 43233,37892 43241,37894 43249,37895 43257,37896 43265,37895 43273,37894 43281,37892 43289,37889 43296,37886 43303,37882 43310,37877 43316,37871 43321,37865 43326,37859 43330,37852 43334,37844 43337,37837 43339,37829 43340,37820 43340,37812 Z M 43434,37997 L 43436,37981 43438,37965 43439,37949 43439,37932 43440,37875 43439,37818 43438,37762 43436,37705 43435,37700 43432,37696 43418,37683 43405,37670 43392,37656 43379,37642 43372,37633 43366,37625 43360,37615 43355,37605 43328,37542 43238,37348 43190,37396 43306,37648 43221,37639 43136,37632 43050,37626 42965,37620 42749,37837 43043,37837 43043,37866 42719,37866 42636,37951 43203,37951 43203,37973 42614,37973 42524,38061 43029,38061 43029,38086 42500,38086 42411,38174 43174,38174 43174,38383 42203,38383 42169,38417 43434,38417 43434,38383 43339,38383 43339,38174 43375,38174 43384,38153 43393,38131 43401,38109 43409,38087 43416,38065 43422,38043 43428,38020 43434,37997 Z"/>
    <path fill="none" stroke="rgb(255,255,255)" d="M 43340,37812 L 43340,37804 43339,37796 43337,37788 43334,37780 43330,37773 43326,37766 43321,37760 43316,37753 43310,37748 43303,37743 43296,37739 43289,37735 43281,37733 43273,37731 43265,37729 43257,37729 43249,37729 43241,37731 43233,37733 43225,37735 43218,37739 43211,37743 43204,37748 43198,37753 43193,37760 43188,37766 43184,37773 43180,37780 43177,37788 43175,37796 43174,37804 43174,37812 43174,37820 43175,37829 43177,37837 43180,37844 43184,37852 43188,37859 43193,37865 43198,37871 43204,37877 43211,37882 43218,37886 43225,37889 43233,37892 43241,37894 43249,37895 43257,37896 43265,37895 43273,37894 43281,37892 43289,37889 43296,37886 43303,37882 43310,37877 43316,37871 43321,37865 43326,37859 43330,37852 43334,37844 43337,37837 43339,37829 43340,37820 43340,37812 Z"/>
    <path fill="none" stroke="rgb(255,255,255)" d="M 43434,37997 L 43436,37981 43438,37965 43439,37949 43439,37932 43440,37875 43439,37818 43438,37762 43436,37705 43435,37700 43432,37696 43418,37683 43405,37670 43392,37656 43379,37642 43372,37633 43366,37625 43360,37615 43355,37605 43328,37542 43238,37348 43190,37396 43306,37648 43221,37639 43136,37632 43050,37626 42965,37620 42749,37837 43043,37837 43043,37866 42719,37866 42636,37951 43203,37951 43203,37973 42614,37973 42524,38061 43029,38061 43029,38086 42500,38086 42411,38174 43174,38174 43174,38383 42203,38383 42169,38417 43434,38417 43434,38383 43339,38383 43339,38174 43375,38174 43384,38153 43393,38131 43401,38109 43409,38087 43416,38065 43422,38043 43428,38020 43434,37997 Z"/>
   </g>
  </g>
 </g>
</svg>