<?xml version="1.0" encoding="UTF-8"?>
<!DOCTYPE svg PUBLIC "-//W3C//DTD SVG 1.1//EN" "http://www.w3.org/Graphics/SVG/1.1/DTD/svg11.dtd">
<svg version="1.2" width="37.45mm" height="25.03mm" viewBox="44328 36499 3745 2503" preserveAspectRatio="xMidYMid" fill-rule="evenodd" stroke-width="28.222" stroke-linejoin="round" xmlns="http://www.w3.org/2000/svg" xmlns:ooo="http://xml.openoffice.org/svg/export" xmlns:xlink="http://www.w3.org/1999/xlink" xmlns:presentation="http://sun.com/xmlns/staroffice/presentation" xmlns:smil="http://www.w3.org/2001/SMIL20/" xmlns:anim="urn:oasis:names:tc:opendocument:xmlns:animation:1.0" xml:space="preserve">
 <defs class="EmbeddedBulletChars">
  <g id="bullet-char-template-57356" transform="scale(0.00048828125,-0.00048828125)">
   <path d="M 580,1141 L 1163,571 580,0 -4,571 580,1141 Z"/>
  </g>
  <g id="bullet-char-template-57354" transform="scale(0.00048828125,-0.00048828125)">
   <path d="M 8,1128 L 1137,1128 1137,0 8,0 8,1128 Z"/>
  </g>
  <g id="bullet-char-template-10146" transform="scale(0.00048828125,-0.00048828125)">
   <path d="M 174,0 L 602,739 174,1481 1456,739 174,0 Z M 1358,739 L 309,1346 659,739 1358,739 Z"/>
  </g>
  <g id="bullet-char-template-10132" transform="scale(0.00048828125,-0.00048828125)">
   <path d="M 2015,739 L 1276,0 717,0 1260,543 174,543 174,936 1260,936 717,1481 1274,1481 2015,739 Z"/>
  </g>
  <g id="bullet-char-template-10007" transform="scale(0.00048828125,-0.00048828125)">
   <path d="M 0,-2 C -7,14 -16,27 -25,37 L 356,567 C 262,823 215,952 215,954 215,979 228,992 255,992 264,992 276,990 289,987 310,991 331,999 354,1012 L 381,999 492,748 772,1049 836,1024 860,1049 C 881,1039 901,1025 922,1006 886,937 835,863 770,784 769,783 710,716 594,584 L 774,223 C 774,196 753,168 711,139 L 727,119 C 717,90 699,76 672,76 641,76 570,178 457,381 L 164,-76 C 142,-110 111,-127 72,-127 30,-127 9,-110 8,-76 1,-67 -2,-52 -2,-32 -2,-23 -1,-13 0,-2 Z"/>
  </g>
  <g id="bullet-char-template-10004" transform="scale(0.00048828125,-0.00048828125)">
   <path d="M 285,-33 C 182,-33 111,30 74,156 52,228 41,333 41,471 41,549 55,616 82,672 116,743 169,778 240,778 293,778 328,747 346,684 L 369,508 C 377,444 397,411 428,410 L 1163,1116 C 1174,1127 1196,1133 1229,1133 1271,1133 1292,1118 1292,1087 L 1292,965 C 1292,929 1282,901 1262,881 L 442,47 C 390,-6 338,-33 285,-33 Z"/>
  </g>
  <g id="bullet-char-template-9679" transform="scale(0.00048828125,-0.00048828125)">
   <path d="M 813,0 C 632,0 489,54 383,161 276,268 223,411 223,592 223,773 276,916 383,1023 489,1130 632,1184 813,1184 992,1184 1136,1130 1245,1023 1353,916 1407,772 1407,592 1407,412 1353,268 1245,161 1136,54 992,0 813,0 Z"/>
  </g>
  <g id="bullet-char-template-8226" transform="scale(0.00048828125,-0.00048828125)">
   <path d="M 346,457 C 273,457 209,483 155,535 101,586 74,649 74,723 74,796 101,859 155,911 209,963 273,989 346,989 419,989 480,963 531,910 582,859 608,796 608,723 608,648 583,586 532,535 482,483 420,457 346,457 Z"/>
  </g>
  <g id="bullet-char-template-8211" transform="scale(0.00048828125,-0.00048828125)">
   <path d="M -4,459 L 1135,459 1135,606 -4,606 -4,459 Z"/>
  </g>
  <g id="bullet-char-template-61548" transform="scale(0.00048828125,-0.00048828125)">
   <path d="M 173,740 C 173,903 231,1043 346,1159 462,1274 601,1332 765,1332 928,1332 1067,1274 1183,1159 1299,1043 1357,903 1357,740 1357,577 1299,437 1183,322 1067,206 928,148 765,148 601,148 462,206 346,322 231,437 173,577 173,740 Z"/>
  </g>
 </defs>
 <g class="Page">
  <g class="com.sun.star.drawing.PolyPolygonShape">
   <g id="id3">
    <rect class="BoundingBox" stroke="none" fill="none" x="44328" y="36499" width="3745" height="2503"/>
    <path fill="rgb(255,255,255)" stroke="none" d="M 48071,36770 L 48071,38728 48069,38756 48065,38782 48059,38808 48050,38833 48039,38857 48025,38880 48010,38901 47992,38921 47972,38939 47951,38955 47928,38968 47904,38980 47879,38989 47853,38995 47827,38999 47800,39000 44599,39000 44573,38999 44546,38995 44521,38989 44496,38980 44472,38968 44449,38955 44428,38939 44408,38921 44390,38901 44374,38880 44361,38857 44350,38833 44341,38808 44334,38782 44330,38756 44329,38728 44329,36770 44330,36744 44334,36717 44341,36692 44350,36667 44361,36643 44374,36620 44390,36599 44408,36579 44428,36561 44449,36545 44472,36532 44496,36520 44521,36511 44546,36505 44573,36501 44599,36500 47800,36500 47827,36501 47853,36505 47879,36511 47904,36520 47928,36532 47951,36545 47972,36561 47992,36579 48010,36599 48025,36620 48039,36643 48050,36667 48059,36692 48065,36717 48069,36744 48071,36770 Z"/>
    <path fill="none" stroke="rgb(0,0,0)" d="M 48071,36770 L 48071,38728 48069,38756 48065,38782 48059,38808 48050,38833 48039,38857 48025,38880 48010,38901 47992,38921 47972,38939 47951,38955 47928,38968 47904,38980 47879,38989 47853,38995 47827,38999 47800,39000 44599,39000 44573,38999 44546,38995 44521,38989 44496,38980 44472,38968 44449,38955 44428,38939 44408,38921 44390,38901 44374,38880 44361,38857 44350,38833 44341,38808 44334,38782 44330,38756 44329,38728 44329,36770 44330,36744 44334,36717 44341,36692 44350,36667 44361,36643 44374,36620 44390,36599 44408,36579 44428,36561 44449,36545 44472,36532 44496,36520 44521,36511 44546,36505 44573,36501 44599,36500 47800,36500 47827,36501 47853,36505 47879,36511 47904,36520 47928,36532 47951,36545 47972,36561 47992,36579 48010,36599 48025,36620 48039,36643 48050,36667 48059,36692 48065,36717 48069,36744 48071,36770 Z"/>
   </g>
  </g>
  <g class="com.sun.star.drawing.PolyPolygonShape">
   <g id="id4">
    <rect class="BoundingBox" stroke="none" fill="none" x="44536" y="36707" width="3329" height="2087"/>
    <path fill="rgb(0,0,255)" stroke="none" d="M 47863,38792 L 44537,38792 44537,36708 47863,36708 47863,38792 Z"/>
    <path fill="none" stroke="rgb(0,0,255)" d="M 47863,38792 L 44537,38792 44537,36708 47863,36708 47863,38792 Z"/>
   </g>
  </g>
  <g class="com.sun.star.drawing.PolyPolygonShape">
   <g id="id5">
    <rect class="BoundingBox" stroke="none" fill="none" x="44649" y="37185" width="930" height="1395"/>
    <path fill="rgb(255,255,255)" stroke="none" d="M 45444,38446 L 45172,37902 45203,37584 45317,37815 45514,37877 45525,37877 45536,37874 45546,37870 45555,37865 45563,37857 45569,37848 45574,37838 45576,37828 45577,37817 45576,37806 45572,37796 45567,37786 45560,37778 45551,37771 45542,37766 45532,37763 45383,37726 45290,37527 45284,37514 45275,37502 45264,37492 45252,37485 45170,37460 45175,37395 45194,37394 45203,37393 45211,37392 45219,37389 45227,37385 45234,37379 45240,37373 45244,37365 45248,37357 45272,37252 45272,37243 45270,37233 45267,37224 45261,37216 45254,37208 45246,37203 45237,37199 45228,37197 45148,37187 45138,37186 45128,37188 45118,37192 45110,37197 45103,37204 45097,37213 45093,37222 45091,37232 45051,37407 45051,37416 45049,37424 45044,37432 45038,37438 45031,37443 45022,37446 45014,37446 45005,37445 44936,37445 44750,37661 44748,37867 44749,37878 44752,37890 44758,37900 44765,37909 44774,37916 44785,37921 44797,37924 44808,37924 44820,37921 44831,37917 44840,37910 44848,37901 44853,37890 44857,37879 44858,37867 44856,37856 44855,37696 44970,37573 44860,38145 44650,38500 44802,38575 44808,38577 44814,38578 44820,38578 44827,38577 44832,38575 44838,38571 44843,38567 44846,38562 44849,38556 44851,38550 44852,38544 44851,38537 44850,38531 44847,38525 44843,38520 44839,38516 44798,38494 44985,38222 45046,38019 45093,38081 45358,38570 45515,38486 45519,38482 45522,38478 45525,38473 45526,38467 45527,38462 45527,38456 45525,38451 45523,38446 45520,38441 45516,38437 45512,38434 45507,38431 45501,38429 45496,38429 45490,38429 45485,38431 45444,38446 Z"/>
    <path fill="none" stroke="rgb(255,255,255)" d="M 45444,38446 L 45172,37902 45203,37584 45317,37815 45514,37877 45525,37877 45536,37874 45546,37870 45555,37865 45563,37857 45569,37848 45574,37838 45576,37828 45577,37817 45576,37806 45572,37796 45567,37786 45560,37778 45551,37771 45542,37766 45532,37763 45383,37726 45290,37527 45284,37514 45275,37502 45264,37492 45252,37485 45170,37460 45175,37395 45194,37394 45203,37393 45211,37392 45219,37389 45227,37385 45234,37379 45240,37373 45244,37365 45248,37357 45272,37252 45272,37243 45270,37233 45267,37224 45261,37216 45254,37208 45246,37203 45237,37199 45228,37197 45148,37187 45138,37186 45128,37188 45118,37192 45110,37197 45103,37204 45097,37213 45093,37222 45091,37232 45051,37407 45051,37416 45049,37424 45044,37432 45038,37438 45031,37443 45022,37446 45014,37446 45005,37445 44936,37445 44750,37661 44748,37867 44749,37878 44752,37890 44758,37900 44765,37909 44774,37916 44785,37921 44797,37924 44808,37924 44820,37921 44831,37917 44840,37910 44848,37901 44853,37890 44857,37879 44858,37867 44856,37856 44855,37696 44970,37573 44860,38145 44650,38500 44802,38575 44808,38577 44814,38578 44820,38578 44827,38577 44832,38575 44838,38571 44843,38567 44846,38562 44849,38556 44851,38550 44852,38544 44851,38537 44850,38531 44847,38525 44843,38520 44839,38516 44798,38494 44985,38222 45046,38019 45093,38081 45358,38570 45515,38486 45519,38482 45522,38478 45525,38473 45526,38467 45527,38462 45527,38456 45525,38451 45523,38446 45520,38441 45516,38437 45512,38434 45507,38431 45501,38429 45496,38429 45490,38429 45485,38431 45444,38446 Z"/>
   </g>
  </g>
  <g class="com.sun.star.drawing.PolyPolygonShape">
   <g id="id6">
    <rect class="BoundingBox" stroke="none" fill="none" x="46939" y="36819" width="627" height="765"/>
    <path fill="rgb(255,255,255)" stroke="none" d="M 47340,37215 L 47175,37215 47175,37043 47340,37043 47340,37215 Z M 47340,37319 L 47175,37319 47175,37521 47000,37522 47000,37075 47269,36894 47503,37073 47503,37520 47340,37520 47340,37319 Z M 47564,37043 L 47564,37580 46940,37582 46940,37043 47271,36820 47376,36899 47376,36845 47455,36845 47455,36961 47564,37043 Z"/>
    <path fill="none" stroke="rgb(255,255,255)" d="M 47340,37215 L 47175,37215 47175,37043 47340,37043 47340,37215 Z"/>
    <path fill="none" stroke="rgb(255,255,255)" d="M 47340,37319 L 47175,37319 47175,37521 47000,37522 47000,37075 47269,36894 47503,37073 47503,37520 47340,37520 47340,37319 Z"/>
    <path fill="none" stroke="rgb(255,255,255)" d="M 47564,37043 L 47564,37580 46940,37582 46940,37043 47271,36820 47376,36899 47376,36845 47455,36845 47455,36961 47564,37043 Z"/>
   </g>
  </g>
  <g class="com.sun.star.drawing.PolyPolygonShape">
   <g id="id7">
    <rect class="BoundingBox" stroke="none" fill="none" x="45662" y="36833" width="691" height="561"/>
    <path fill="rgb(255,255,255)" stroke="none" d="M 46147,37123 L 45866,37123 45866,37138 46147,37138 46147,37123 Z M 46296,37045 L 46224,37040 46152,37037 46079,37035 46007,37034 45935,37034 45863,37035 45790,37037 45718,37040 45781,36861 46232,36861 46296,37045 Z M 45866,37232 L 46147,37232 46147,37217 45866,37217 45866,37232 Z M 46206,37171 L 45807,37171 45807,37187 46206,37187 46206,37171 Z M 46278,37126 L 46278,37120 46276,37115 46274,37110 46270,37106 46266,37102 46261,37100 46256,37098 46250,37097 46245,37098 46240,37100 46235,37102 46231,37106 46227,37110 46225,37115 46223,37120 46223,37126 46223,37131 46225,37136 46227,37141 46231,37145 46235,37149 46240,37152 46245,37153 46250,37154 46256,37153 46261,37152 46266,37149 46270,37145 46274,37141 46276,37136 46278,37131 46278,37126 Z M 45790,37126 L 45790,37120 45788,37115 45786,37110 45782,37106 45778,37102 45773,37100 45768,37098 45762,37097 45757,37098 45751,37100 45747,37102 45742,37106 45739,37110 45736,37115 45735,37120 45734,37126 45735,37131 45736,37136 45739,37141 45742,37145 45747,37149 45751,37152 45757,37153 45762,37154 45768,37153 45773,37152 45778,37149 45782,37145 45786,37141 45788,37136 45790,37131 45790,37126 Z M 45793,37281 L 45793,37392 45725,37392 45725,37281 45687,37281 45684,37240 45679,37199 45672,37158 45664,37117 45663,37109 45663,37100 45664,37091 45666,37083 45669,37074 45674,37067 45679,37060 45685,37053 45762,36834 46251,36834 46329,37053 46335,37060 46340,37067 46344,37074 46348,37083 46350,37091 46351,37100 46351,37109 46349,37117 46341,37158 46335,37199 46330,37240 46326,37281 46287,37281 46287,37392 46220,37392 46220,37281 45793,37281 Z"/>
    <path fill="none" stroke="rgb(255,255,255)" d="M 46147,37123 L 45866,37123 45866,37138 46147,37138 46147,37123 Z"/>
    <path fill="none" stroke="rgb(255,255,255)" d="M 46296,37045 L 46224,37040 46152,37037 46079,37035 46007,37034 45935,37034 45863,37035 45790,37037 45718,37040 45781,36861 46232,36861 46296,37045 Z"/>
    <path fill="none" stroke="rgb(255,255,255)" d="M 45866,37232 L 46147,37232 46147,37217 45866,37217 45866,37232 Z"/>
    <path fill="none" stroke="rgb(255,255,255)" d="M 46206,37171 L 45807,37171 45807,37187 46206,37187 46206,37171 Z"/>
    <path fill="none" stroke="rgb(255,255,255)" d="M 46278,37126 L 46278,37120 46276,37115 46274,37110 46270,37106 46266,37102 46261,37100 46256,37098 46250,37097 46245,37098 46240,37100 46235,37102 46231,37106 46227,37110 46225,37115 46223,37120 46223,37126 46223,37131 46225,37136 46227,37141 46231,37145 46235,37149 46240,37152 46245,37153 46250,37154 46256,37153 46261,37152 46266,37149 46270,37145 46274,37141 46276,37136 46278,37131 46278,37126 Z"/>
    <path fill="none" stroke="rgb(255,255,255)" d="M 45790,37126 L 45790,37120 45788,37115 45786,37110 45782,37106 45778,37102 45773,37100 45768,37098 45762,37097 45757,37098 45751,37100 45747,37102 45742,37106 45739,37110 45736,37115 45735,37120 45734,37126 45735,37131 45736,37136 45739,37141 45742,37145 45747,37149 45751,37152 45757,37153 45762,37154 45768,37153 45773,37152 45778,37149 45782,37145 45786,37141 45788,37136 45790,37131 45790,37126 Z"/>
    <path fill="none" stroke="rgb(255,255,255)" d="M 45793,37281 L 45793,37392 45725,37392 45725,37281 45687,37281 45684,37240 45679,37199 45672,37158 45664,37117 45663,37109 45663,37100 45664,37091 45666,37083 45669,37074 45674,37067 45679,37060 45685,37053 45762,36834 46251,36834 46329,37053 46335,37060 46340,37067 46344,37074 46348,37083 46350,37091 46351,37100 46351,37109 46349,37117 46341,37158 46335,37199 46330,37240 46326,37281 46287,37281 46287,37392 46220,37392 46220,37281 45793,37281 Z"/>
   </g>
  </g>
  <g class="com.sun.star.drawing.PolyPolygonShape">
   <g id="id8">
    <rect class="BoundingBox" stroke="none" fill="none" x="46439" y="37368" width="1258" height="392"/>
    <path fill="rgb(255,255,255)" stroke="none" d="M 47695,37697 L 46754,37696 46730,37698 46706,37698 46683,37695 46659,37690 46637,37682 46615,37672 46595,37659 46577,37644 46560,37628 46544,37610 46531,37590 46520,37569 46511,37547 46505,37524 46501,37500 46500,37476 46500,37369 46440,37369 46440,37476 46441,37506 46446,37536 46454,37565 46465,37593 46479,37619 46495,37644 46514,37667 46535,37688 46559,37707 46584,37723 46611,37736 46639,37746 46668,37753 46698,37758 46728,37758 46758,37756 47695,37757 47695,37697 Z"/>
    <path fill="none" stroke="rgb(255,255,255)" d="M 47695,37697 L 46754,37696 46730,37698 46706,37698 46683,37695 46659,37690 46637,37682 46615,37672 46595,37659 46577,37644 46560,37628 46544,37610 46531,37590 46520,37569 46511,37547 46505,37524 46501,37500 46500,37476 46500,37369 46440,37369 46440,37476 46441,37506 46446,37536 46454,37565 46465,37593 46479,37619 46495,37644 46514,37667 46535,37688 46559,37707 46584,37723 46611,37736 46639,37746 46668,37753 46698,37758 46728,37758 46758,37756 47695,37757 47695,37697 Z"/>
   </g>
  </g>
  <g class="com.sun.star.drawing.PolyPolygonShape">
   <g id="id9">
    <rect class="BoundingBox" stroke="none" fill="none" x="46073" y="37919" width="764" height="775"/>
    <path fill="rgb(255,255,255)" stroke="none" d="M 46368,38231 L 46110,38258 46103,38258 46096,38256 46090,38253 46085,38249 46080,38244 46077,38238 46075,38232 46074,38225 46074,38218 46076,38212 46079,38206 46083,38200 46089,38196 46095,38193 46101,38191 46108,38190 46381,38152 46379,38101 46365,38095 46352,38087 46341,38077 46331,38066 46323,38052 46318,38038 46315,38023 46314,38007 46316,37992 46321,37978 46328,37964 46337,37952 46347,37941 46360,37932 46374,37926 46389,37922 46404,37920 46419,37921 46434,37924 46448,37930 46461,37938 46473,37948 46482,37960 46490,37973 46495,37988 46498,38003 46498,38018 46496,38033 46491,38048 46484,38062 46475,38074 46464,38084 46464,38137 46608,38126 46707,37955 46712,37951 46717,37948 46723,37946 46729,37945 46736,37945 46743,37946 46749,37948 46754,37952 46759,37956 46763,37961 46766,37966 46768,37972 46769,37979 46768,37985 46767,37991 46765,37997 46660,38194 46517,38211 46534,38379 46629,38480 46782,38408 46832,38505 46835,38515 46835,38525 46831,38534 46825,38542 46817,38547 46807,38549 46797,38548 46788,38543 46761,38504 46596,38584 46461,38451 46306,38530 46196,38692 46108,38646 46104,38643 46100,38639 46098,38635 46096,38630 46095,38625 46095,38620 46096,38616 46097,38611 46100,38607 46103,38603 46107,38600 46111,38597 46116,38596 46121,38595 46126,38595 46130,38596 46157,38611 46240,38473 46386,38385 46368,38231 Z"/>
    <path fill="none" stroke="rgb(255,255,255)" d="M 46368,38231 L 46110,38258 46103,38258 46096,38256 46090,38253 46085,38249 46080,38244 46077,38238 46075,38232 46074,38225 46074,38218 46076,38212 46079,38206 46083,38200 46089,38196 46095,38193 46101,38191 46108,38190 46381,38152 46379,38101 46365,38095 46352,38087 46341,38077 46331,38066 46323,38052 46318,38038 46315,38023 46314,38007 46316,37992 46321,37978 46328,37964 46337,37952 46347,37941 46360,37932 46374,37926 46389,37922 46404,37920 46419,37921 46434,37924 46448,37930 46461,37938 46473,37948 46482,37960 46490,37973 46495,37988 46498,38003 46498,38018 46496,38033 46491,38048 46484,38062 46475,38074 46464,38084 46464,38137 46608,38126 46707,37955 46712,37951 46717,37948 46723,37946 46729,37945 46736,37945 46743,37946 46749,37948 46754,37952 46759,37956 46763,37961 46766,37966 46768,37972 46769,37979 46768,37985 46767,37991 46765,37997 46660,38194 46517,38211 46534,38379 46629,38480 46782,38408 46832,38505 46835,38515 46835,38525 46831,38534 46825,38542 46817,38547 46807,38549 46797,38548 46788,38543 46761,38504 46596,38584 46461,38451 46306,38530 46196,38692 46108,38646 46104,38643 46100,38639 46098,38635 46096,38630 46095,38625 46095,38620 46096,38616 46097,38611 46100,38607 46103,38603 46107,38600 46111,38597 46116,38596 46121,38595 46126,38595 46130,38596 46157,38611 46240,38473 46386,38385 46368,38231 Z"/>
   </g>
  </g>
  <g class="com.sun.star.drawing.PolyPolygonShape">
   <g id="id10">
    <rect class="BoundingBox" stroke="none" fill="none" x="45856" y="38337" width="231" height="232"/>
    <path fill="rgb(255,255,255)" stroke="none" d="M 46085,38453 L 46085,38442 46083,38431 46080,38420 46077,38408 46072,38398 46066,38388 46059,38379 46052,38371 46043,38364 46035,38357 46025,38351 46015,38346 46005,38343 45994,38340 45983,38338 45971,38338 45959,38338 45948,38340 45937,38343 45927,38346 45917,38351 45907,38357 45898,38364 45890,38371 45882,38379 45876,38388 45870,38398 45865,38408 45862,38420 45859,38431 45857,38442 45857,38453 45857,38464 45859,38475 45862,38486 45865,38497 45870,38507 45876,38516 45882,38525 45890,38533 45898,38541 45907,38548 45917,38553 45927,38558 45937,38562 45948,38565 45959,38566 45971,38567 45983,38566 45994,38565 46005,38562 46015,38558 46025,38553 46035,38548 46043,38541 46052,38533 46059,38525 46066,38516 46072,38507 46077,38497 46080,38486 46083,38475 46085,38464 46085,38453 Z"/>
    <path fill="none" stroke="rgb(255,255,255)" d="M 46085,38453 L 46085,38442 46083,38431 46080,38420 46077,38408 46072,38398 46066,38388 46059,38379 46052,38371 46043,38364 46035,38357 46025,38351 46015,38346 46005,38343 45994,38340 45983,38338 45971,38338 45959,38338 45948,38340 45937,38343 45927,38346 45917,38351 45907,38357 45898,38364 45890,38371 45882,38379 45876,38388 45870,38398 45865,38408 45862,38420 45859,38431 45857,38442 45857,38453 45857,38464 45859,38475 45862,38486 45865,38497 45870,38507 45876,38516 45882,38525 45890,38533 45898,38541 45907,38548 45917,38553 45927,38558 45937,38562 45948,38565 45959,38566 45971,38567 45983,38566 45994,38565 46005,38562 46015,38558 46025,38553 46035,38548 46043,38541 46052,38533 46059,38525 46066,38516 46072,38507 46077,38497 46080,38486 46083,38475 46085,38464 46085,38453 Z"/>
   </g>
  </g>
  <g class="com.sun.star.drawing.PolyPolygonShape">
   <g id="id11">
    <rect class="BoundingBox" stroke="none" fill="none" x="45856" y="38337" width="231" height="232"/>
    <path fill="rgb(255,255,255)" stroke="none" d="M 46085,38453 L 46085,38442 46083,38431 46080,38420 46077,38408 46072,38398 46066,38388 46059,38379 46052,38371 46043,38364 46035,38357 46025,38351 46015,38346 46005,38343 45994,38340 45983,38338 45971,38338 45959,38338 45948,38340 45937,38343 45927,38346 45917,38351 45907,38357 45898,38364 45890,38371 45882,38379 45876,38388 45870,38398 45865,38408 45862,38420 45859,38431 45857,38442 45857,38453 45857,38464 45859,38475 45862,38486 45865,38497 45870,38507 45876,38516 45882,38525 45890,38533 45898,38541 45907,38548 45917,38553 45927,38558 45937,38562 45948,38565 45959,38566 45971,38567 45983,38566 45994,38565 46005,38562 46015,38558 46025,38553 46035,38548 46043,38541 46052,38533 46059,38525 46066,38516 46072,38507 46077,38497 46080,38486 46083,38475 46085,38464 46085,38453 Z"/>
    <path fill="none" stroke="rgb(255,255,255)" d="M 46085,38453 L 46085,38442 46083,38431 46080,38420 46077,38408 46072,38398 46066,38388 46059,38379 46052,38371 46043,38364 46035,38357 46025,38351 46015,38346 46005,38343 45994,38340 45983,38338 45971,38338 45959,38338 45948,38340 45937,38343 45927,38346 45917,38351 45907,38357 45898,38364 45890,38371 45882,38379 45876,38388 45870,38398 45865,38408 45862,38420 45859,38431 45857,38442 45857,38453 45857,38464 45859,38475 45862,38486 45865,38497 45870,38507 45876,38516 45882,38525 45890,38533 45898,38541 45907,38548 45917,38553 45927,38558 45937,38562 45948,38565 45959,38566 45971,38567 45983,38566 45994,38565 46005,38562 46015,38558 46025,38553 46035,38548 46043,38541 46052,38533 46059,38525 46066,38516 46072,38507 46077,38497 46080,38486 46083,38475 46085,38464 46085,38453 Z"/>
   </g>
  </g>
 </g>
</svg>