<?xml version="1.0" encoding="UTF-8"?>
<!DOCTYPE svg PUBLIC "-//W3C//DTD SVG 1.1//EN" "http://www.w3.org/Graphics/SVG/1.1/DTD/svg11.dtd">
<svg version="1.2" width="37.58mm" height="25.03mm" viewBox="48521 36499 3758 2503" preserveAspectRatio="xMidYMid" fill-rule="evenodd" stroke-width="28.222" stroke-linejoin="round" xmlns="http://www.w3.org/2000/svg" xmlns:ooo="http://xml.openoffice.org/svg/export" xmlns:xlink="http://www.w3.org/1999/xlink" xmlns:presentation="http://sun.com/xmlns/staroffice/presentation" xmlns:smil="http://www.w3.org/2001/SMIL20/" xmlns:anim="urn:oasis:names:tc:opendocument:xmlns:animation:1.0" xml:space="preserve">
 <defs class="EmbeddedBulletChars">
  <g id="bullet-char-template-57356" transform="scale(0.00048828125,-0.00048828125)">
   <path d="M 580,1141 L 1163,571 580,0 -4,571 580,1141 Z"/>
  </g>
  <g id="bullet-char-template-57354" transform="scale(0.00048828125,-0.00048828125)">
   <path d="M 8,1128 L 1137,1128 1137,0 8,0 8,1128 Z"/>
  </g>
  <g id="bullet-char-template-10146" transform="scale(0.00048828125,-0.00048828125)">
   <path d="M 174,0 L 602,739 174,1481 1456,739 174,0 Z M 1358,739 L 309,1346 659,739 1358,739 Z"/>
  </g>
  <g id="bullet-char-template-10132" transform="scale(0.00048828125,-0.00048828125)">
   <path d="M 2015,739 L 1276,0 717,0 1260,543 174,543 174,936 1260,936 717,1481 1274,1481 2015,739 Z"/>
  </g>
  <g id="bullet-char-template-10007" transform="scale(0.00048828125,-0.00048828125)">
   <path d="M 0,-2 C -7,14 -16,27 -25,37 L 356,567 C 262,823 215,952 215,954 215,979 228,992 255,992 264,992 276,990 289,987 310,991 331,999 354,1012 L 381,999 492,748 772,1049 836,1024 860,1049 C 881,1039 901,1025 922,1006 886,937 835,863 770,784 769,783 710,716 594,584 L 774,223 C 774,196 753,168 711,139 L 727,119 C 717,90 699,76 672,76 641,76 570,178 457,381 L 164,-76 C 142,-110 111,-127 72,-127 30,-127 9,-110 8,-76 1,-67 -2,-52 -2,-32 -2,-23 -1,-13 0,-2 Z"/>
  </g>
  <g id="bullet-char-template-10004" transform="scale(0.00048828125,-0.00048828125)">
   <path d="M 285,-33 C 182,-33 111,30 74,156 52,228 41,333 41,471 41,549 55,616 82,672 116,743 169,778 240,778 293,778 328,747 346,684 L 369,508 C 377,444 397,411 428,410 L 1163,1116 C 1174,1127 1196,1133 1229,1133 1271,1133 1292,1118 1292,1087 L 1292,965 C 1292,929 1282,901 1262,881 L 442,47 C 390,-6 338,-33 285,-33 Z"/>
  </g>
  <g id="bullet-char-template-9679" transform="scale(0.00048828125,-0.00048828125)">
   <path d="M 813,0 C 632,0 489,54 383,161 276,268 223,411 223,592 223,773 276,916 383,1023 489,1130 632,1184 813,1184 992,1184 1136,1130 1245,1023 1353,916 1407,772 1407,592 1407,412 1353,268 1245,161 1136,54 992,0 813,0 Z"/>
  </g>
  <g id="bullet-char-template-8226" transform="scale(0.00048828125,-0.00048828125)">
   <path d="M 346,457 C 273,457 209,483 155,535 101,586 74,649 74,723 74,796 101,859 155,911 209,963 273,989 346,989 419,989 480,963 531,910 582,859 608,796 608,723 608,648 583,586 532,535 482,483 420,457 346,457 Z"/>
  </g>
  <g id="bullet-char-template-8211" transform="scale(0.00048828125,-0.00048828125)">
   <path d="M -4,459 L 1135,459 1135,606 -4,606 -4,459 Z"/>
  </g>
  <g id="bullet-char-template-61548" transform="scale(0.00048828125,-0.00048828125)">
   <path d="M 173,740 C 173,903 231,1043 346,1159 462,1274 601,1332 765,1332 928,1332 1067,1274 1183,1159 1299,1043 1357,903 1357,740 1357,577 1299,437 1183,322 1067,206 928,148 765,148 601,148 462,206 346,322 231,437 173,577 173,740 Z"/>
  </g>
 </defs>
 <g class="Page">
  <g class="com.sun.star.drawing.PolyPolygonShape">
   <g id="id3">
    <rect class="BoundingBox" stroke="none" fill="none" x="48521" y="36499" width="3758" height="2503"/>
    <path fill="rgb(255,255,255)" stroke="none" d="M 52277,36770 L 52277,38728 52276,38756 52272,38782 52266,38808 52257,38833 52245,38857 52232,38880 52216,38901 52198,38921 52178,38939 52157,38955 52134,38968 52110,38980 52085,38989 52059,38995 52033,38999 52006,39000 48794,39000 48767,38999 48741,38995 48715,38989 48690,38980 48666,38968 48643,38955 48621,38939 48602,38921 48584,38901 48568,38880 48554,38857 48543,38833 48534,38808 48528,38782 48524,38756 48522,38728 48522,36770 48524,36744 48528,36717 48534,36692 48543,36667 48554,36643 48568,36620 48584,36599 48602,36579 48621,36561 48643,36545 48666,36532 48690,36520 48715,36511 48741,36505 48767,36501 48794,36500 52006,36500 52033,36501 52059,36505 52085,36511 52110,36520 52134,36532 52157,36545 52178,36561 52198,36579 52216,36599 52232,36620 52245,36643 52257,36667 52266,36692 52272,36717 52276,36744 52277,36770 Z"/>
    <path fill="none" stroke="rgb(0,0,0)" d="M 52277,36770 L 52277,38728 52276,38756 52272,38782 52266,38808 52257,38833 52245,38857 52232,38880 52216,38901 52198,38921 52178,38939 52157,38955 52134,38968 52110,38980 52085,38989 52059,38995 52033,38999 52006,39000 48794,39000 48767,38999 48741,38995 48715,38989 48690,38980 48666,38968 48643,38955 48621,38939 48602,38921 48584,38901 48568,38880 48554,38857 48543,38833 48534,38808 48528,38782 48524,38756 48522,38728 48522,36770 48524,36744 48528,36717 48534,36692 48543,36667 48554,36643 48568,36620 48584,36599 48602,36579 48621,36561 48643,36545 48666,36532 48690,36520 48715,36511 48741,36505 48767,36501 48794,36500 52006,36500 52033,36501 52059,36505 52085,36511 52110,36520 52134,36532 52157,36545 52178,36561 52198,36579 52216,36599 52232,36620 52245,36643 52257,36667 52266,36692 52272,36717 52276,36744 52277,36770 Z"/>
   </g>
  </g>
  <g class="com.sun.star.drawing.PolyPolygonShape">
   <g id="id4">
    <rect class="BoundingBox" stroke="none" fill="none" x="48730" y="36707" width="3341" height="2087"/>
    <path fill="rgb(0,0,255)" stroke="none" d="M 52069,38792 L 48731,38792 48731,36708 52069,36708 52069,38792 Z"/>
    <path fill="none" stroke="rgb(0,0,255)" d="M 52069,38792 L 48731,38792 48731,36708 52069,36708 52069,38792 Z"/>
   </g>
  </g>
  <g class="com.sun.star.drawing.PolyPolygonShape">
   <g id="id5">
    <rect class="BoundingBox" stroke="none" fill="none" x="50272" y="37919" width="767" height="775"/>
    <path fill="rgb(255,255,255)" stroke="none" d="M 50568,38231 L 50310,38258 50303,38258 50296,38256 50290,38253 50284,38249 50280,38244 50276,38238 50274,38232 50273,38225 50274,38218 50276,38212 50279,38206 50283,38200 50288,38196 50294,38193 50301,38191 50308,38190 50582,38152 50580,38101 50566,38095 50553,38087 50541,38077 50531,38066 50523,38052 50518,38038 50515,38023 50515,38008 50517,37992 50521,37978 50528,37964 50537,37952 50548,37941 50561,37932 50575,37926 50589,37922 50605,37920 50620,37921 50635,37924 50649,37930 50662,37938 50675,37948 50684,37960 50692,37973 50697,37988 50700,38003 50700,38018 50698,38033 50694,38048 50686,38062 50677,38074 50665,38084 50665,38138 50810,38126 50910,37955 50914,37951 50920,37948 50926,37946 50932,37945 50939,37945 50945,37946 50951,37948 50956,37952 50961,37956 50965,37961 50968,37966 50970,37972 50971,37979 50970,37985 50969,37991 50967,37997 50863,38194 50719,38211 50736,38379 50831,38480 50984,38408 51034,38505 51037,38515 51037,38525 51034,38534 51027,38542 51019,38547 51009,38549 50999,38548 50990,38543 50963,38504 50798,38584 50662,38451 50506,38530 50396,38692 50307,38646 50303,38643 50300,38639 50297,38635 50295,38630 50294,38625 50294,38620 50295,38616 50297,38611 50299,38607 50303,38603 50306,38600 50311,38597 50316,38596 50320,38595 50325,38595 50330,38596 50357,38611 50440,38473 50587,38385 50568,38231 Z"/>
    <path fill="none" stroke="rgb(255,255,255)" d="M 50568,38231 L 50310,38258 50303,38258 50296,38256 50290,38253 50284,38249 50280,38244 50276,38238 50274,38232 50273,38225 50274,38218 50276,38212 50279,38206 50283,38200 50288,38196 50294,38193 50301,38191 50308,38190 50582,38152 50580,38101 50566,38095 50553,38087 50541,38077 50531,38066 50523,38052 50518,38038 50515,38023 50515,38008 50517,37992 50521,37978 50528,37964 50537,37952 50548,37941 50561,37932 50575,37926 50589,37922 50605,37920 50620,37921 50635,37924 50649,37930 50662,37938 50675,37948 50684,37960 50692,37973 50697,37988 50700,38003 50700,38018 50698,38033 50694,38048 50686,38062 50677,38074 50665,38084 50665,38138 50810,38126 50910,37955 50914,37951 50920,37948 50926,37946 50932,37945 50939,37945 50945,37946 50951,37948 50956,37952 50961,37956 50965,37961 50968,37966 50970,37972 50971,37979 50970,37985 50969,37991 50967,37997 50863,38194 50719,38211 50736,38379 50831,38480 50984,38408 51034,38505 51037,38515 51037,38525 51034,38534 51027,38542 51019,38547 51009,38549 50999,38548 50990,38543 50963,38504 50798,38584 50662,38451 50506,38530 50396,38692 50307,38646 50303,38643 50300,38639 50297,38635 50295,38630 50294,38625 50294,38620 50295,38616 50297,38611 50299,38607 50303,38603 50306,38600 50311,38597 50316,38596 50320,38595 50325,38595 50330,38596 50357,38611 50440,38473 50587,38385 50568,38231 Z"/>
   </g>
  </g>
  <g class="com.sun.star.drawing.PolyPolygonShape">
   <g id="id6">
    <rect class="BoundingBox" stroke="none" fill="none" x="50640" y="37368" width="1263" height="392"/>
    <path fill="rgb(255,255,255)" stroke="none" d="M 51900,37696 L 50956,37696 50932,37698 50908,37698 50884,37695 50861,37690 50839,37682 50817,37672 50797,37659 50778,37644 50761,37628 50745,37610 50732,37590 50721,37569 50712,37547 50706,37524 50702,37500 50701,37476 50701,37369 50641,37369 50641,37476 50642,37506 50647,37536 50655,37565 50666,37593 50680,37619 50696,37644 50715,37667 50737,37688 50760,37707 50786,37723 50813,37736 50841,37746 50870,37753 50900,37758 50930,37758 50960,37756 51901,37757 51900,37696 Z"/>
    <path fill="none" stroke="rgb(255,255,255)" d="M 51900,37696 L 50956,37696 50932,37698 50908,37698 50884,37695 50861,37690 50839,37682 50817,37672 50797,37659 50778,37644 50761,37628 50745,37610 50732,37590 50721,37569 50712,37547 50706,37524 50702,37500 50701,37476 50701,37369 50641,37369 50641,37476 50642,37506 50647,37536 50655,37565 50666,37593 50680,37619 50696,37644 50715,37667 50737,37688 50760,37707 50786,37723 50813,37736 50841,37746 50870,37753 50900,37758 50930,37758 50960,37756 51901,37757 51900,37696 Z"/>
   </g>
  </g>
  <g class="com.sun.star.drawing.PolyPolygonShape">
   <g id="id7">
    <rect class="BoundingBox" stroke="none" fill="none" x="49860" y="36833" width="693" height="561"/>
    <path fill="rgb(255,255,255)" stroke="none" d="M 50497,37045 L 50425,37040 50353,37037 50280,37035 50207,37034 50135,37034 50062,37035 49990,37037 49916,37040 49981,36861 50433,36861 50497,37045 Z M 50348,37123 L 50066,37123 50066,37138 50348,37138 50348,37123 Z M 50407,37171 L 50006,37171 50006,37187 50407,37187 50407,37171 Z M 50066,37232 L 50348,37232 50348,37217 50066,37217 50066,37232 Z M 50480,37126 L 50479,37120 50478,37115 50475,37110 50472,37106 50467,37102 50462,37100 50457,37098 50452,37097 50446,37098 50441,37100 50436,37102 50432,37106 50428,37110 50426,37115 50424,37120 50424,37126 50424,37131 50426,37136 50428,37141 50432,37145 50436,37149 50441,37152 50446,37153 50452,37154 50457,37153 50462,37152 50467,37149 50472,37145 50475,37141 50478,37136 50479,37131 50480,37126 Z M 49990,37126 L 49989,37120 49988,37115 49985,37110 49981,37106 49977,37102 49972,37100 49967,37098 49962,37097 49956,37098 49950,37100 49945,37102 49941,37106 49937,37110 49935,37115 49933,37120 49933,37126 49933,37131 49935,37136 49937,37141 49941,37145 49945,37149 49950,37152 49956,37153 49962,37154 49967,37153 49972,37152 49977,37149 49981,37145 49985,37141 49988,37136 49989,37131 49990,37126 Z M 49992,37281 L 49992,37392 49924,37392 49924,37281 49886,37281 49882,37240 49877,37199 49871,37158 49863,37117 49861,37109 49861,37100 49862,37091 49864,37083 49868,37074 49872,37067 49877,37060 49883,37053 49961,36834 50452,36834 50529,37053 50535,37060 50541,37067 50545,37074 50548,37083 50550,37091 50551,37100 50551,37109 50550,37117 50542,37158 50535,37199 50530,37240 50527,37281 50489,37281 50489,37392 50421,37392 50421,37281 49992,37281 Z"/>
    <path fill="none" stroke="rgb(255,255,255)" d="M 50497,37045 L 50425,37040 50353,37037 50280,37035 50207,37034 50135,37034 50062,37035 49990,37037 49916,37040 49981,36861 50433,36861 50497,37045 Z"/>
    <path fill="none" stroke="rgb(255,255,255)" d="M 50348,37123 L 50066,37123 50066,37138 50348,37138 50348,37123 Z"/>
    <path fill="none" stroke="rgb(255,255,255)" d="M 50407,37171 L 50006,37171 50006,37187 50407,37187 50407,37171 Z"/>
    <path fill="none" stroke="rgb(255,255,255)" d="M 50066,37232 L 50348,37232 50348,37217 50066,37217 50066,37232 Z"/>
    <path fill="none" stroke="rgb(255,255,255)" d="M 50480,37126 L 50479,37120 50478,37115 50475,37110 50472,37106 50467,37102 50462,37100 50457,37098 50452,37097 50446,37098 50441,37100 50436,37102 50432,37106 50428,37110 50426,37115 50424,37120 50424,37126 50424,37131 50426,37136 50428,37141 50432,37145 50436,37149 50441,37152 50446,37153 50452,37154 50457,37153 50462,37152 50467,37149 50472,37145 50475,37141 50478,37136 50479,37131 50480,37126 Z"/>
    <path fill="none" stroke="rgb(255,255,255)" d="M 49990,37126 L 49989,37120 49988,37115 49985,37110 49981,37106 49977,37102 49972,37100 49967,37098 49962,37097 49956,37098 49950,37100 49945,37102 49941,37106 49937,37110 49935,37115 49933,37120 49933,37126 49933,37131 49935,37136 49937,37141 49941,37145 49945,37149 49950,37152 49956,37153 49962,37154 49967,37153 49972,37152 49977,37149 49981,37145 49985,37141 49988,37136 49989,37131 49990,37126 Z"/>
    <path fill="none" stroke="rgb(255,255,255)" d="M 49992,37281 L 49992,37392 49924,37392 49924,37281 49886,37281 49882,37240 49877,37199 49871,37158 49863,37117 49861,37109 49861,37100 49862,37091 49864,37083 49868,37074 49872,37067 49877,37060 49883,37053 49961,36834 50452,36834 50529,37053 50535,37060 50541,37067 50545,37074 50548,37083 50550,37091 50551,37100 50551,37109 50550,37117 50542,37158 50535,37199 50530,37240 50527,37281 50489,37281 50489,37392 50421,37392 50421,37281 49992,37281 Z"/>
   </g>
  </g>
  <g class="com.sun.star.drawing.PolyPolygonShape">
   <g id="id8">
    <rect class="BoundingBox" stroke="none" fill="none" x="48844" y="37185" width="933" height="1395"/>
    <path fill="rgb(255,255,255)" stroke="none" d="M 49640,38446 L 49367,37902 49399,37584 49513,37815 49712,37877 49723,37877 49734,37875 49744,37870 49753,37865 49761,37857 49767,37848 49772,37838 49774,37828 49775,37817 49773,37806 49770,37796 49765,37786 49758,37778 49749,37771 49740,37766 49729,37763 49579,37726 49486,37527 49480,37514 49471,37502 49460,37492 49447,37485 49365,37460 49370,37396 49389,37394 49398,37393 49407,37392 49415,37389 49423,37385 49430,37379 49435,37373 49440,37365 49444,37357 49468,37252 49468,37243 49466,37233 49462,37224 49457,37216 49450,37208 49442,37203 49433,37199 49423,37197 49343,37187 49333,37186 49323,37188 49314,37192 49305,37197 49298,37204 49292,37213 49288,37222 49286,37232 49246,37407 49246,37416 49244,37424 49239,37432 49233,37438 49226,37443 49217,37446 49209,37446 49200,37445 49130,37445 48945,37661 48943,37867 48944,37878 48947,37890 48952,37900 48960,37909 48969,37916 48980,37921 48992,37924 49004,37924 49015,37921 49026,37917 49035,37910 49043,37901 49049,37890 49052,37879 49053,37867 49051,37856 49050,37696 49165,37573 49055,38145 48845,38500 48997,38575 49003,38577 49009,38578 49015,38578 49022,38577 49028,38575 49033,38571 49038,38567 49042,38562 49045,38556 49046,38550 49047,38544 49046,38537 49045,38531 49042,38525 49038,38520 49034,38516 48993,38494 49180,38222 49241,38019 49288,38081 49554,38570 49713,38486 49717,38482 49720,38478 49722,38473 49724,38467 49725,38462 49724,38456 49723,38451 49721,38446 49718,38441 49714,38437 49709,38434 49704,38431 49699,38429 49694,38429 49688,38429 49682,38431 49640,38446 Z"/>
    <path fill="none" stroke="rgb(255,255,255)" d="M 49640,38446 L 49367,37902 49399,37584 49513,37815 49712,37877 49723,37877 49734,37875 49744,37870 49753,37865 49761,37857 49767,37848 49772,37838 49774,37828 49775,37817 49773,37806 49770,37796 49765,37786 49758,37778 49749,37771 49740,37766 49729,37763 49579,37726 49486,37527 49480,37514 49471,37502 49460,37492 49447,37485 49365,37460 49370,37396 49389,37394 49398,37393 49407,37392 49415,37389 49423,37385 49430,37379 49435,37373 49440,37365 49444,37357 49468,37252 49468,37243 49466,37233 49462,37224 49457,37216 49450,37208 49442,37203 49433,37199 49423,37197 49343,37187 49333,37186 49323,37188 49314,37192 49305,37197 49298,37204 49292,37213 49288,37222 49286,37232 49246,37407 49246,37416 49244,37424 49239,37432 49233,37438 49226,37443 49217,37446 49209,37446 49200,37445 49130,37445 48945,37661 48943,37867 48944,37878 48947,37890 48952,37900 48960,37909 48969,37916 48980,37921 48992,37924 49004,37924 49015,37921 49026,37917 49035,37910 49043,37901 49049,37890 49052,37879 49053,37867 49051,37856 49050,37696 49165,37573 49055,38145 48845,38500 48997,38575 49003,38577 49009,38578 49015,38578 49022,38577 49028,38575 49033,38571 49038,38567 49042,38562 49045,38556 49046,38550 49047,38544 49046,38537 49045,38531 49042,38525 49038,38520 49034,38516 48993,38494 49180,38222 49241,38019 49288,38081 49554,38570 49713,38486 49717,38482 49720,38478 49722,38473 49724,38467 49725,38462 49724,38456 49723,38451 49721,38446 49718,38441 49714,38437 49709,38434 49704,38431 49699,38429 49694,38429 49688,38429 49682,38431 49640,38446 Z"/>
   </g>
  </g>
  <g class="com.sun.star.drawing.PolyPolygonShape">
   <g id="id9">
    <rect class="BoundingBox" stroke="none" fill="none" x="50054" y="38337" width="233" height="232"/>
    <path fill="rgb(255,255,255)" stroke="none" d="M 50285,38453 L 50284,38442 50283,38431 50280,38420 50276,38408 50270,38398 50265,38388 50258,38379 50250,38371 50242,38364 50233,38357 50223,38351 50213,38346 50203,38343 50192,38340 50181,38338 50170,38338 50159,38338 50147,38340 50137,38343 50126,38346 50116,38351 50106,38357 50097,38364 50089,38371 50081,38379 50075,38388 50069,38398 50064,38408 50060,38420 50058,38431 50056,38442 50055,38453 50056,38464 50058,38475 50060,38486 50064,38497 50069,38507 50075,38516 50081,38525 50089,38533 50097,38541 50106,38548 50116,38553 50126,38558 50137,38562 50147,38565 50159,38566 50170,38567 50181,38566 50192,38565 50203,38562 50213,38558 50223,38553 50233,38548 50242,38541 50250,38533 50258,38525 50265,38516 50270,38507 50276,38497 50280,38486 50283,38475 50284,38464 50285,38453 Z"/>
    <path fill="none" stroke="rgb(255,255,255)" d="M 50285,38453 L 50284,38442 50283,38431 50280,38420 50276,38408 50270,38398 50265,38388 50258,38379 50250,38371 50242,38364 50233,38357 50223,38351 50213,38346 50203,38343 50192,38340 50181,38338 50170,38338 50159,38338 50147,38340 50137,38343 50126,38346 50116,38351 50106,38357 50097,38364 50089,38371 50081,38379 50075,38388 50069,38398 50064,38408 50060,38420 50058,38431 50056,38442 50055,38453 50056,38464 50058,38475 50060,38486 50064,38497 50069,38507 50075,38516 50081,38525 50089,38533 50097,38541 50106,38548 50116,38553 50126,38558 50137,38562 50147,38565 50159,38566 50170,38567 50181,38566 50192,38565 50203,38562 50213,38558 50223,38553 50233,38548 50242,38541 50250,38533 50258,38525 50265,38516 50270,38507 50276,38497 50280,38486 50283,38475 50284,38464 50285,38453 Z"/>
   </g>
  </g>
  <g class="com.sun.star.drawing.PolyPolygonShape">
   <g id="id10">
    <rect class="BoundingBox" stroke="none" fill="none" x="51141" y="36819" width="630" height="765"/>
    <path fill="rgb(255,255,255)" stroke="none" d="M 51543,37215 L 51377,37215 51377,37043 51543,37043 51543,37215 Z M 51543,37319 L 51377,37319 51377,37521 51203,37522 51203,37075 51472,36895 51708,37073 51708,37520 51543,37520 51543,37319 Z M 51769,37042 L 51769,37580 51142,37582 51142,37042 51474,36820 51580,36900 51580,36845 51660,36845 51660,36961 51769,37042 Z"/>
    <path fill="none" stroke="rgb(255,255,255)" d="M 51543,37215 L 51377,37215 51377,37043 51543,37043 51543,37215 Z"/>
    <path fill="none" stroke="rgb(255,255,255)" d="M 51543,37319 L 51377,37319 51377,37521 51203,37522 51203,37075 51472,36895 51708,37073 51708,37520 51543,37520 51543,37319 Z"/>
    <path fill="none" stroke="rgb(255,255,255)" d="M 51769,37042 L 51769,37580 51142,37582 51142,37042 51474,36820 51580,36900 51580,36845 51660,36845 51660,36961 51769,37042 Z"/>
   </g>
  </g>
  <g class="com.sun.star.drawing.PolyPolygonShape">
   <g id="id11">
    <rect class="BoundingBox" stroke="none" fill="none" x="48543" y="36502" width="3715" height="2497"/>
    <path fill="rgb(255,0,0)" stroke="none" d="M 48753,38997 L 48736,38994 48719,38990 48703,38985 48687,38978 48671,38971 48656,38963 48641,38954 48627,38943 48614,38932 48601,38921 48590,38908 48579,38895 48569,38881 48559,38866 48551,38851 48544,38836 52047,36503 52064,36506 52081,36510 52097,36515 52113,36521 52129,36529 52144,36537 52158,36546 52172,36556 52186,36567 52198,36579 52210,36592 52221,36605 52231,36619 52240,36633 52248,36649 52256,36664 48753,38997 Z"/>
    <path fill="none" stroke="rgb(255,0,0)" d="M 48753,38997 L 48736,38994 48719,38990 48703,38985 48687,38978 48671,38971 48656,38963 48641,38954 48627,38943 48614,38932 48601,38921 48590,38908 48579,38895 48569,38881 48559,38866 48551,38851 48544,38836 52047,36503 52064,36506 52081,36510 52097,36515 52113,36521 52129,36529 52144,36537 52158,36546 52172,36556 52186,36567 52198,36579 52210,36592 52221,36605 52231,36619 52240,36633 52248,36649 52256,36664 48753,38997 Z"/>
   </g>
  </g>
  <g class="com.sun.star.drawing.PolyPolygonShape">
   <g id="id12">
    <rect class="BoundingBox" stroke="none" fill="none" x="48543" y="36502" width="3715" height="2497"/>
    <path fill="rgb(255,0,0)" stroke="none" d="M 48753,38997 L 48736,38994 48719,38990 48703,38985 48687,38978 48671,38971 48656,38963 48641,38954 48627,38943 48614,38932 48601,38921 48590,38908 48579,38895 48569,38881 48559,38866 48551,38851 48544,38836 52047,36503 52064,36506 52081,36510 52097,36515 52113,36521 52129,36529 52144,36537 52158,36546 52172,36556 52186,36567 52198,36579 52210,36592 52221,36605 52231,36619 52240,36633 52248,36649 52256,36664 48753,38997 Z"/>
    <path fill="none" stroke="rgb(255,0,0)" d="M 48753,38997 L 48736,38994 48719,38990 48703,38985 48687,38978 48671,38971 48656,38963 48641,38954 48627,38943 48614,38932 48601,38921 48590,38908 48579,38895 48569,38881 48559,38866 48551,38851 48544,38836 52047,36503 52064,36506 52081,36510 52097,36515 52113,36521 52129,36529 52144,36537 52158,36546 52172,36556 52186,36567 52198,36579 52210,36592 52221,36605 52231,36619 52240,36633 52248,36649 52256,36664 48753,38997 Z"/>
   </g>
  </g>
 </g>
</svg>