<?xml version="1.0" encoding="UTF-8"?>
<!DOCTYPE svg PUBLIC "-//W3C//DTD SVG 1.1//EN" "http://www.w3.org/Graphics/SVG/1.1/DTD/svg11.dtd">
<svg version="1.2" width="19.51mm" height="25.04mm" viewBox="52725 36498 1951 2504" preserveAspectRatio="xMidYMid" fill-rule="evenodd" stroke-width="28.222" stroke-linejoin="round" xmlns="http://www.w3.org/2000/svg" xmlns:ooo="http://xml.openoffice.org/svg/export" xmlns:xlink="http://www.w3.org/1999/xlink" xmlns:presentation="http://sun.com/xmlns/staroffice/presentation" xmlns:smil="http://www.w3.org/2001/SMIL20/" xmlns:anim="urn:oasis:names:tc:opendocument:xmlns:animation:1.0" xml:space="preserve">
 <defs class="EmbeddedBulletChars">
  <g id="bullet-char-template-57356" transform="scale(0.00048828125,-0.00048828125)">
   <path d="M 580,1141 L 1163,571 580,0 -4,571 580,1141 Z"/>
  </g>
  <g id="bullet-char-template-57354" transform="scale(0.00048828125,-0.00048828125)">
   <path d="M 8,1128 L 1137,1128 1137,0 8,0 8,1128 Z"/>
  </g>
  <g id="bullet-char-template-10146" transform="scale(0.00048828125,-0.00048828125)">
   <path d="M 174,0 L 602,739 174,1481 1456,739 174,0 Z M 1358,739 L 309,1346 659,739 1358,739 Z"/>
  </g>
  <g id="bullet-char-template-10132" transform="scale(0.00048828125,-0.00048828125)">
   <path d="M 2015,739 L 1276,0 717,0 1260,543 174,543 174,936 1260,936 717,1481 1274,1481 2015,739 Z"/>
  </g>
  <g id="bullet-char-template-10007" transform="scale(0.00048828125,-0.00048828125)">
   <path d="M 0,-2 C -7,14 -16,27 -25,37 L 356,567 C 262,823 215,952 215,954 215,979 228,992 255,992 264,992 276,990 289,987 310,991 331,999 354,1012 L 381,999 492,748 772,1049 836,1024 860,1049 C 881,1039 901,1025 922,1006 886,937 835,863 770,784 769,783 710,716 594,584 L 774,223 C 774,196 753,168 711,139 L 727,119 C 717,90 699,76 672,76 641,76 570,178 457,381 L 164,-76 C 142,-110 111,-127 72,-127 30,-127 9,-110 8,-76 1,-67 -2,-52 -2,-32 -2,-23 -1,-13 0,-2 Z"/>
  </g>
  <g id="bullet-char-template-10004" transform="scale(0.00048828125,-0.00048828125)">
   <path d="M 285,-33 C 182,-33 111,30 74,156 52,228 41,333 41,471 41,549 55,616 82,672 116,743 169,778 240,778 293,778 328,747 346,684 L 369,508 C 377,444 397,411 428,410 L 1163,1116 C 1174,1127 1196,1133 1229,1133 1271,1133 1292,1118 1292,1087 L 1292,965 C 1292,929 1282,901 1262,881 L 442,47 C 390,-6 338,-33 285,-33 Z"/>
  </g>
  <g id="bullet-char-template-9679" transform="scale(0.00048828125,-0.00048828125)">
   <path d="M 813,0 C 632,0 489,54 383,161 276,268 223,411 223,592 223,773 276,916 383,1023 489,1130 632,1184 813,1184 992,1184 1136,1130 1245,1023 1353,916 1407,772 1407,592 1407,412 1353,268 1245,161 1136,54 992,0 813,0 Z"/>
  </g>
  <g id="bullet-char-template-8226" transform="scale(0.00048828125,-0.00048828125)">
   <path d="M 346,457 C 273,457 209,483 155,535 101,586 74,649 74,723 74,796 101,859 155,911 209,963 273,989 346,989 419,989 480,963 531,910 582,859 608,796 608,723 608,648 583,586 532,535 482,483 420,457 346,457 Z"/>
  </g>
  <g id="bullet-char-template-8211" transform="scale(0.00048828125,-0.00048828125)">
   <path d="M -4,459 L 1135,459 1135,606 -4,606 -4,459 Z"/>
  </g>
  <g id="bullet-char-template-61548" transform="scale(0.00048828125,-0.00048828125)">
   <path d="M 173,740 C 173,903 231,1043 346,1159 462,1274 601,1332 765,1332 928,1332 1067,1274 1183,1159 1299,1043 1357,903 1357,740 1357,577 1299,437 1183,322 1067,206 928,148 765,148 601,148 462,206 346,322 231,437 173,577 173,740 Z"/>
  </g>
 </defs>
 <g class="Page">
  <g class="com.sun.star.drawing.PolyPolygonShape">
   <g id="id3">
    <rect class="BoundingBox" stroke="none" fill="none" x="52725" y="36498" width="1951" height="2504"/>
    <path fill="rgb(0,0,255)" stroke="none" d="M 52726,38820 L 52726,36680 52727,36662 52729,36645 52734,36628 52740,36611 52747,36595 52756,36580 52767,36565 52779,36552 52792,36540 52806,36530 52821,36521 52838,36513 52854,36507 52872,36503 52889,36500 52907,36499 54493,36499 54511,36500 54528,36503 54546,36507 54562,36513 54578,36521 54594,36530 54608,36540 54621,36552 54633,36565 54643,36580 54652,36595 54660,36611 54666,36628 54670,36645 54673,36662 54674,36680 54674,38820 54673,38837 54670,38855 54666,38872 54660,38889 54652,38905 54643,38920 54633,38934 54621,38948 54608,38959 54594,38970 54578,38979 54562,38987 54546,38993 54528,38997 54511,38999 54493,39000 52907,39000 52889,38999 52872,38997 52854,38993 52838,38987 52821,38979 52806,38970 52792,38959 52779,38948 52767,38934 52756,38920 52747,38905 52740,38889 52734,38872 52729,38855 52727,38837 52726,38820 Z"/>
    <path fill="none" stroke="rgb(0,0,255)" d="M 52726,38820 L 52726,36680 52727,36662 52729,36645 52734,36628 52740,36611 52747,36595 52756,36580 52767,36565 52779,36552 52792,36540 52806,36530 52821,36521 52838,36513 52854,36507 52872,36503 52889,36500 52907,36499 54493,36499 54511,36500 54528,36503 54546,36507 54562,36513 54578,36521 54594,36530 54608,36540 54621,36552 54633,36565 54643,36580 54652,36595 54660,36611 54666,36628 54670,36645 54673,36662 54674,36680 54674,38820 54673,38837 54670,38855 54666,38872 54660,38889 54652,38905 54643,38920 54633,38934 54621,38948 54608,38959 54594,38970 54578,38979 54562,38987 54546,38993 54528,38997 54511,38999 54493,39000 52907,39000 52889,38999 52872,38997 52854,38993 52838,38987 52821,38979 52806,38970 52792,38959 52779,38948 52767,38934 52756,38920 52747,38905 52740,38889 52734,38872 52729,38855 52727,38837 52726,38820 Z"/>
   </g>
  </g>
  <g class="com.sun.star.drawing.PolyPolygonShape">
   <g id="id4">
    <rect class="BoundingBox" stroke="none" fill="none" x="52767" y="36540" width="1867" height="2421"/>
    <path fill="rgb(255,255,255)" stroke="none" d="M 52768,38820 L 52768,36680 52768,36666 52770,36653 52774,36640 52778,36627 52784,36615 52791,36603 52799,36592 52808,36582 52819,36573 52829,36565 52841,36558 52854,36552 52866,36547 52880,36544 52893,36542 52907,36541 54493,36541 54507,36542 54520,36544 54533,36547 54546,36552 54559,36558 54570,36565 54581,36573 54591,36582 54601,36592 54609,36603 54616,36615 54622,36627 54626,36640 54629,36653 54631,36666 54632,36680 54632,38820 54631,38834 54629,38847 54626,38860 54622,38873 54616,38885 54609,38897 54601,38908 54591,38918 54581,38927 54570,38935 54559,38942 54546,38948 54533,38953 54520,38956 54507,38958 54493,38959 52907,38959 52893,38958 52880,38956 52866,38953 52854,38948 52841,38942 52829,38935 52819,38927 52808,38918 52799,38908 52791,38897 52784,38885 52778,38873 52774,38860 52770,38847 52768,38834 52768,38820 Z"/>
    <path fill="none" stroke="rgb(255,255,255)" d="M 52768,38820 L 52768,36680 52768,36666 52770,36653 52774,36640 52778,36627 52784,36615 52791,36603 52799,36592 52808,36582 52819,36573 52829,36565 52841,36558 52854,36552 52866,36547 52880,36544 52893,36542 52907,36541 54493,36541 54507,36542 54520,36544 54533,36547 54546,36552 54559,36558 54570,36565 54581,36573 54591,36582 54601,36592 54609,36603 54616,36615 54622,36627 54626,36640 54629,36653 54631,36666 54632,36680 54632,38820 54631,38834 54629,38847 54626,38860 54622,38873 54616,38885 54609,38897 54601,38908 54591,38918 54581,38927 54570,38935 54559,38942 54546,38948 54533,38953 54520,38956 54507,38958 54493,38959 52907,38959 52893,38958 52880,38956 52866,38953 52854,38948 52841,38942 52829,38935 52819,38927 52808,38918 52799,38908 52791,38897 52784,38885 52778,38873 52774,38860 52770,38847 52768,38834 52768,38820 Z"/>
   </g>
  </g>
  <g class="com.sun.star.drawing.PolyPolygonShape">
   <g id="id5">
    <rect class="BoundingBox" stroke="none" fill="none" x="52808" y="36582" width="1784" height="2337"/>
    <path fill="rgb(0,0,255)" stroke="none" d="M 52809,38820 L 52809,36680 52810,36670 52811,36661 52814,36652 52817,36643 52821,36634 52826,36626 52831,36618 52838,36611 52845,36605 52853,36599 52861,36594 52869,36590 52879,36587 52888,36585 52897,36583 52907,36583 54493,36583 54503,36583 54512,36585 54521,36587 54530,36590 54539,36594 54547,36599 54555,36605 54562,36611 54568,36618 54574,36626 54579,36634 54583,36643 54586,36652 54588,36661 54590,36670 54590,36680 54590,38820 54590,38829 54588,38839 54586,38848 54583,38857 54579,38866 54574,38874 54568,38881 54562,38889 54555,38895 54547,38901 54539,38906 54530,38910 54521,38913 54512,38915 54503,38917 54493,38917 52907,38917 52897,38917 52888,38915 52879,38913 52869,38910 52861,38906 52853,38901 52845,38895 52838,38889 52831,38881 52826,38874 52821,38866 52817,38857 52814,38848 52811,38839 52810,38829 52809,38820 Z"/>
    <path fill="none" stroke="rgb(0,0,255)" d="M 52809,38820 L 52809,36680 52810,36670 52811,36661 52814,36652 52817,36643 52821,36634 52826,36626 52831,36618 52838,36611 52845,36605 52853,36599 52861,36594 52869,36590 52879,36587 52888,36585 52897,36583 52907,36583 54493,36583 54503,36583 54512,36585 54521,36587 54530,36590 54539,36594 54547,36599 54555,36605 54562,36611 54568,36618 54574,36626 54579,36634 54583,36643 54586,36652 54588,36661 54590,36670 54590,36680 54590,38820 54590,38829 54588,38839 54586,38848 54583,38857 54579,38866 54574,38874 54568,38881 54562,38889 54555,38895 54547,38901 54539,38906 54530,38910 54521,38913 54512,38915 54503,38917 54493,38917 52907,38917 52897,38917 52888,38915 52879,38913 52869,38910 52861,38906 52853,38901 52845,38895 52838,38889 52831,38881 52826,38874 52821,38866 52817,38857 52814,38848 52811,38839 52810,38829 52809,38820 Z"/>
   </g>
  </g>
  <g class="com.sun.star.drawing.PolyPolygonShape">
   <g id="id6">
    <rect class="BoundingBox" stroke="none" fill="none" x="53671" y="36651" width="59" height="2199"/>
    <path fill="rgb(255,255,255)" stroke="none" d="M 53672,36652 L 53728,36652 53728,38848 53672,38848 53672,36652 Z"/>
    <path fill="none" stroke="rgb(255,255,255)" d="M 53672,36652 L 53728,36652 53728,38848 53672,38848 53672,36652 Z"/>
   </g>
  </g>
  <g class="com.sun.star.drawing.PolyPolygonShape">
   <g id="id7">
    <rect class="BoundingBox" stroke="none" fill="none" x="52947" y="36860" width="602" height="1781"/>
    <path fill="rgb(255,255,255)" stroke="none" d="M 53547,38639 L 53547,37360 53243,37057 53342,36959 52948,36861 53047,37253 53145,37155 53407,37417 53407,38639 53547,38639 Z"/>
    <path fill="none" stroke="rgb(255,255,255)" d="M 53547,38639 L 53547,37360 53243,37057 53342,36959 52948,36861 53047,37253 53145,37155 53407,37417 53407,38639 53547,38639 Z"/>
   </g>
  </g>
  <g class="com.sun.star.drawing.PolyPolygonShape">
   <g id="id8">
    <rect class="BoundingBox" stroke="none" fill="none" x="53796" y="36860" width="727" height="1781"/>
    <path fill="rgb(255,255,255)" stroke="none" d="M 54521,37397 L 54126,37495 54225,37593 54075,37743 54075,37208 54214,37208 54005,36861 53797,37208 53936,37208 53936,38639 54075,38639 54075,37939 54323,37691 54421,37790 54521,37397 Z"/>
    <path fill="none" stroke="rgb(255,255,255)" d="M 54521,37397 L 54126,37495 54225,37593 54075,37743 54075,37208 54214,37208 54005,36861 53797,37208 53936,37208 53936,38639 54075,38639 54075,37939 54323,37691 54421,37790 54521,37397 Z"/>
   </g>
  </g>
  <g class="com.sun.star.drawing.PolyPolygonShape">
   <g id="id9">
    <rect class="BoundingBox" stroke="none" fill="none" x="53796" y="36860" width="727" height="1781"/>
    <path fill="rgb(255,255,255)" stroke="none" d="M 54521,37397 L 54126,37495 54225,37593 54075,37743 54075,37208 54214,37208 54005,36861 53797,37208 53936,37208 53936,38639 54075,38639 54075,37939 54323,37691 54421,37790 54521,37397 Z"/>
    <path fill="none" stroke="rgb(255,255,255)" d="M 54521,37397 L 54126,37495 54225,37593 54075,37743 54075,37208 54214,37208 54005,36861 53797,37208 53936,37208 53936,38639 54075,38639 54075,37939 54323,37691 54421,37790 54521,37397 Z"/>
   </g>
  </g>
 </g>
</svg>