<?xml version="1.0" encoding="UTF-8"?>
<!DOCTYPE svg PUBLIC "-//W3C//DTD SVG 1.1//EN" "http://www.w3.org/Graphics/SVG/1.1/DTD/svg11.dtd">
<svg version="1.2" width="25.03mm" height="25.04mm" viewBox="55149 36498 2503 2504" preserveAspectRatio="xMidYMid" fill-rule="evenodd" stroke-width="28.222" stroke-linejoin="round" xmlns="http://www.w3.org/2000/svg" xmlns:ooo="http://xml.openoffice.org/svg/export" xmlns:xlink="http://www.w3.org/1999/xlink" xmlns:presentation="http://sun.com/xmlns/staroffice/presentation" xmlns:smil="http://www.w3.org/2001/SMIL20/" xmlns:anim="urn:oasis:names:tc:opendocument:xmlns:animation:1.0" xml:space="preserve">
 <defs class="EmbeddedBulletChars">
  <g id="bullet-char-template-57356" transform="scale(0.00048828125,-0.00048828125)">
   <path d="M 580,1141 L 1163,571 580,0 -4,571 580,1141 Z"/>
  </g>
  <g id="bullet-char-template-57354" transform="scale(0.00048828125,-0.00048828125)">
   <path d="M 8,1128 L 1137,1128 1137,0 8,0 8,1128 Z"/>
  </g>
  <g id="bullet-char-template-10146" transform="scale(0.00048828125,-0.00048828125)">
   <path d="M 174,0 L 602,739 174,1481 1456,739 174,0 Z M 1358,739 L 309,1346 659,739 1358,739 Z"/>
  </g>
  <g id="bullet-char-template-10132" transform="scale(0.00048828125,-0.00048828125)">
   <path d="M 2015,739 L 1276,0 717,0 1260,543 174,543 174,936 1260,936 717,1481 1274,1481 2015,739 Z"/>
  </g>
  <g id="bullet-char-template-10007" transform="scale(0.00048828125,-0.00048828125)">
   <path d="M 0,-2 C -7,14 -16,27 -25,37 L 356,567 C 262,823 215,952 215,954 215,979 228,992 255,992 264,992 276,990 289,987 310,991 331,999 354,1012 L 381,999 492,748 772,1049 836,1024 860,1049 C 881,1039 901,1025 922,1006 886,937 835,863 770,784 769,783 710,716 594,584 L 774,223 C 774,196 753,168 711,139 L 727,119 C 717,90 699,76 672,76 641,76 570,178 457,381 L 164,-76 C 142,-110 111,-127 72,-127 30,-127 9,-110 8,-76 1,-67 -2,-52 -2,-32 -2,-23 -1,-13 0,-2 Z"/>
  </g>
  <g id="bullet-char-template-10004" transform="scale(0.00048828125,-0.00048828125)">
   <path d="M 285,-33 C 182,-33 111,30 74,156 52,228 41,333 41,471 41,549 55,616 82,672 116,743 169,778 240,778 293,778 328,747 346,684 L 369,508 C 377,444 397,411 428,410 L 1163,1116 C 1174,1127 1196,1133 1229,1133 1271,1133 1292,1118 1292,1087 L 1292,965 C 1292,929 1282,901 1262,881 L 442,47 C 390,-6 338,-33 285,-33 Z"/>
  </g>
  <g id="bullet-char-template-9679" transform="scale(0.00048828125,-0.00048828125)">
   <path d="M 813,0 C 632,0 489,54 383,161 276,268 223,411 223,592 223,773 276,916 383,1023 489,1130 632,1184 813,1184 992,1184 1136,1130 1245,1023 1353,916 1407,772 1407,592 1407,412 1353,268 1245,161 1136,54 992,0 813,0 Z"/>
  </g>
  <g id="bullet-char-template-8226" transform="scale(0.00048828125,-0.00048828125)">
   <path d="M 346,457 C 273,457 209,483 155,535 101,586 74,649 74,723 74,796 101,859 155,911 209,963 273,989 346,989 419,989 480,963 531,910 582,859 608,796 608,723 608,648 583,586 532,535 482,483 420,457 346,457 Z"/>
  </g>
  <g id="bullet-char-template-8211" transform="scale(0.00048828125,-0.00048828125)">
   <path d="M -4,459 L 1135,459 1135,606 -4,606 -4,459 Z"/>
  </g>
  <g id="bullet-char-template-61548" transform="scale(0.00048828125,-0.00048828125)">
   <path d="M 173,740 C 173,903 231,1043 346,1159 462,1274 601,1332 765,1332 928,1332 1067,1274 1183,1159 1299,1043 1357,903 1357,740 1357,577 1299,437 1183,322 1067,206 928,148 765,148 601,148 462,206 346,322 231,437 173,577 173,740 Z"/>
  </g>
 </defs>
 <g class="Page">
  <g class="com.sun.star.drawing.PolyPolygonShape">
   <g id="id3">
    <rect class="BoundingBox" stroke="none" fill="none" x="55149" y="36498" width="2503" height="2504"/>
    <path fill="rgb(0,0,255)" stroke="none" d="M 57418,36499 L 55382,36499 55359,36501 55336,36504 55314,36509 55293,36517 55272,36527 55253,36539 55234,36552 55217,36567 55202,36584 55189,36603 55177,36622 55167,36643 55159,36664 55154,36686 55151,36709 55150,36732 55150,38768 55151,38791 55154,38814 55159,38836 55167,38857 55177,38878 55189,38897 55202,38915 55217,38932 55234,38948 55253,38961 55272,38973 55293,38983 55314,38990 55336,38996 55359,38999 55382,39000 57418,39000 57441,38999 57463,38996 57486,38990 57507,38983 57528,38973 57547,38961 57565,38948 57582,38932 57598,38915 57611,38897 57623,38878 57633,38857 57640,38836 57646,38814 57649,38791 57650,38768 57650,36732 57649,36709 57646,36686 57640,36664 57633,36643 57623,36622 57611,36603 57598,36584 57582,36567 57565,36552 57547,36539 57528,36527 57507,36517 57486,36509 57463,36504 57441,36501 57418,36499 Z"/>
    <path fill="none" stroke="rgb(0,0,255)" d="M 57418,36499 L 55382,36499 55359,36501 55336,36504 55314,36509 55293,36517 55272,36527 55253,36539 55234,36552 55217,36567 55202,36584 55189,36603 55177,36622 55167,36643 55159,36664 55154,36686 55151,36709 55150,36732 55150,38768 55151,38791 55154,38814 55159,38836 55167,38857 55177,38878 55189,38897 55202,38915 55217,38932 55234,38948 55253,38961 55272,38973 55293,38983 55314,38990 55336,38996 55359,38999 55382,39000 57418,39000 57441,38999 57463,38996 57486,38990 57507,38983 57528,38973 57547,38961 57565,38948 57582,38932 57598,38915 57611,38897 57623,38878 57633,38857 57640,38836 57646,38814 57649,38791 57650,38768 57650,36732 57649,36709 57646,36686 57640,36664 57633,36643 57623,36622 57611,36603 57598,36584 57582,36567 57565,36552 57547,36539 57528,36527 57507,36517 57486,36509 57463,36504 57441,36501 57418,36499 Z"/>
   </g>
  </g>
  <g class="com.sun.star.drawing.PolyPolygonShape">
   <g id="id4">
    <rect class="BoundingBox" stroke="none" fill="none" x="55202" y="36552" width="2397" height="2397"/>
    <path fill="rgb(255,255,255)" stroke="none" d="M 57418,36553 L 55382,36553 55364,36554 55347,36556 55330,36561 55313,36567 55297,36574 55282,36583 55268,36594 55255,36605 55244,36618 55233,36632 55224,36647 55217,36663 55211,36680 55206,36697 55204,36714 55203,36732 55203,38768 55204,38786 55206,38803 55211,38820 55217,38837 55224,38852 55233,38867 55244,38881 55255,38895 55268,38906 55282,38917 55297,38926 55313,38933 55330,38939 55347,38943 55364,38946 55382,38947 57418,38947 57436,38946 57453,38943 57470,38939 57486,38933 57502,38926 57517,38917 57531,38906 57544,38895 57556,38881 57567,38867 57576,38852 57583,38837 57589,38820 57593,38803 57596,38786 57597,38768 57597,36732 57596,36714 57593,36697 57589,36680 57583,36663 57576,36647 57567,36632 57556,36618 57544,36605 57531,36594 57517,36583 57502,36574 57486,36567 57470,36561 57453,36556 57436,36554 57418,36553 Z"/>
    <path fill="none" stroke="rgb(255,255,255)" d="M 57418,36553 L 55382,36553 55364,36554 55347,36556 55330,36561 55313,36567 55297,36574 55282,36583 55268,36594 55255,36605 55244,36618 55233,36632 55224,36647 55217,36663 55211,36680 55206,36697 55204,36714 55203,36732 55203,38768 55204,38786 55206,38803 55211,38820 55217,38837 55224,38852 55233,38867 55244,38881 55255,38895 55268,38906 55282,38917 55297,38926 55313,38933 55330,38939 55347,38943 55364,38946 55382,38947 57418,38947 57436,38946 57453,38943 57470,38939 57486,38933 57502,38926 57517,38917 57531,38906 57544,38895 57556,38881 57567,38867 57576,38852 57583,38837 57589,38820 57593,38803 57596,38786 57597,38768 57597,36732 57596,36714 57593,36697 57589,36680 57583,36663 57576,36647 57567,36632 57556,36618 57544,36605 57531,36594 57517,36583 57502,36574 57486,36567 57470,36561 57453,36556 57436,36554 57418,36553 Z"/>
   </g>
  </g>
  <g class="com.sun.star.drawing.PolyPolygonShape">
   <g id="id5">
    <rect class="BoundingBox" stroke="none" fill="none" x="55256" y="36606" width="2289" height="2289"/>
    <path fill="rgb(0,0,255)" stroke="none" d="M 57418,36607 L 55382,36607 55369,36607 55357,36609 55345,36612 55334,36616 55323,36621 55312,36628 55302,36635 55293,36643 55285,36652 55278,36662 55271,36673 55266,36684 55262,36695 55259,36707 55257,36719 55257,36732 55257,38768 55257,38781 55259,38793 55262,38804 55266,38816 55271,38827 55278,38838 55285,38848 55293,38857 55302,38865 55312,38872 55323,38879 55334,38884 55345,38888 55357,38891 55369,38893 55382,38893 57418,38893 57430,38893 57442,38891 57454,38888 57466,38884 57477,38879 57488,38872 57497,38865 57506,38857 57515,38848 57522,38838 57528,38827 57534,38816 57538,38804 57541,38793 57542,38781 57543,38768 57543,36732 57542,36719 57541,36707 57538,36695 57534,36684 57528,36673 57522,36662 57515,36652 57506,36643 57497,36635 57488,36628 57477,36621 57466,36616 57454,36612 57442,36609 57430,36607 57418,36607 Z"/>
    <path fill="none" stroke="rgb(0,0,255)" d="M 57418,36607 L 55382,36607 55369,36607 55357,36609 55345,36612 55334,36616 55323,36621 55312,36628 55302,36635 55293,36643 55285,36652 55278,36662 55271,36673 55266,36684 55262,36695 55259,36707 55257,36719 55257,36732 55257,38768 55257,38781 55259,38793 55262,38804 55266,38816 55271,38827 55278,38838 55285,38848 55293,38857 55302,38865 55312,38872 55323,38879 55334,38884 55345,38888 55357,38891 55369,38893 55382,38893 57418,38893 57430,38893 57442,38891 57454,38888 57466,38884 57477,38879 57488,38872 57497,38865 57506,38857 57515,38848 57522,38838 57528,38827 57534,38816 57538,38804 57541,38793 57542,38781 57543,38768 57543,36732 57542,36719 57541,36707 57538,36695 57534,36684 57528,36673 57522,36662 57515,36652 57506,36643 57497,36635 57488,36628 57477,36621 57466,36616 57454,36612 57442,36609 57430,36607 57418,36607 Z"/>
   </g>
  </g>
  <g class="com.sun.star.drawing.PolyPolygonShape">
   <g id="id6">
    <rect class="BoundingBox" stroke="none" fill="none" x="55563" y="36784" width="1804" height="1933"/>
    <path fill="rgb(255,255,255)" stroke="none" d="M 55599,38715 L 55599,37697 56911,37697 56911,37786 56940,37786 56940,37608 55599,37608 55599,37035 57122,37035 57122,38715 57157,38715 57157,36814 57365,36814 57365,36785 57122,36785 57122,36946 55564,36946 55564,38715 55599,38715 Z"/>
    <path fill="none" stroke="rgb(255,255,255)" d="M 55599,38715 L 55599,37697 56911,37697 56911,37786 56940,37786 56940,37608 55599,37608 55599,37035 57122,37035 57122,38715 57157,38715 57157,36814 57365,36814 57365,36785 57122,36785 57122,36946 55564,36946 55564,38715 55599,38715 Z"/>
   </g>
  </g>
  <g class="com.sun.star.drawing.PolyPolygonShape">
   <g id="id7">
    <rect class="BoundingBox" stroke="none" fill="none" x="57063" y="38391" width="32" height="183"/>
    <path fill="rgb(255,255,255)" stroke="none" d="M 57064,38392 L 57093,38392 57093,38572 57064,38572 57064,38392 Z"/>
    <path fill="none" stroke="rgb(255,255,255)" d="M 57064,38392 L 57093,38392 57093,38572 57064,38572 57064,38392 Z"/>
   </g>
  </g>
  <g class="com.sun.star.drawing.PolyPolygonShape">
   <g id="id8">
    <rect class="BoundingBox" stroke="none" fill="none" x="56909" y="38391" width="33" height="183"/>
    <path fill="rgb(255,255,255)" stroke="none" d="M 56910,38392 L 56940,38392 56940,38572 56910,38572 56910,38392 Z"/>
    <path fill="none" stroke="rgb(255,255,255)" d="M 56910,38392 L 56940,38392 56940,38572 56910,38572 56910,38392 Z"/>
   </g>
  </g>
  <g class="com.sun.star.drawing.PolyPolygonShape">
   <g id="id9">
    <rect class="BoundingBox" stroke="none" fill="none" x="56436" y="37731" width="271" height="986"/>
    <path fill="rgb(255,255,255)" stroke="none" d="M 56705,37955 L 56616,37955 56616,38715 56527,38715 56527,37955 56437,37955 56572,37732 56705,37955 Z"/>
    <path fill="none" stroke="rgb(255,255,255)" d="M 56705,37955 L 56616,37955 56616,38715 56527,38715 56527,37955 56437,37955 56572,37732 56705,37955 Z"/>
   </g>
  </g>
  <g class="com.sun.star.drawing.PolyPolygonShape">
   <g id="id10">
    <rect class="BoundingBox" stroke="none" fill="none" x="55707" y="37734" width="358" height="983"/>
    <path fill="rgb(255,255,255)" stroke="none" d="M 55708,37735 L 55771,37986 55834,37923 55974,38062 55974,38715 56063,38715 56063,38026 55897,37860 55961,37798 55708,37735 Z"/>
    <path fill="none" stroke="rgb(255,255,255)" d="M 55708,37735 L 55771,37986 55834,37923 55974,38062 55974,38715 56063,38715 56063,38026 55897,37860 55961,37798 55708,37735 Z"/>
   </g>
  </g>
  <g class="com.sun.star.drawing.PolyPolygonShape">
   <g id="id11">
    <rect class="BoundingBox" stroke="none" fill="none" x="56234" y="38516" width="40" height="201"/>
    <path fill="rgb(255,255,255)" stroke="none" d="M 56235,38517 L 56272,38517 56272,38715 56235,38715 56235,38517 Z"/>
    <path fill="none" stroke="rgb(255,255,255)" d="M 56235,38517 L 56272,38517 56272,38715 56235,38715 56235,38517 Z"/>
   </g>
  </g>
  <g class="com.sun.star.drawing.PolyPolygonShape">
   <g id="id12">
    <rect class="BoundingBox" stroke="none" fill="none" x="56234" y="37731" width="40" height="200"/>
    <path fill="rgb(255,255,255)" stroke="none" d="M 56235,37732 L 56272,37732 56272,37929 56235,37929 56235,37732 Z"/>
    <path fill="none" stroke="rgb(255,255,255)" d="M 56235,37732 L 56272,37732 56272,37929 56235,37929 56235,37732 Z"/>
   </g>
  </g>
  <g class="com.sun.star.drawing.PolyPolygonShape">
   <g id="id13">
    <rect class="BoundingBox" stroke="none" fill="none" x="56234" y="38123" width="40" height="201"/>
    <path fill="rgb(255,255,255)" stroke="none" d="M 56235,38124 L 56272,38124 56272,38322 56235,38322 56235,38124 Z"/>
    <path fill="none" stroke="rgb(255,255,255)" d="M 56235,38124 L 56272,38124 56272,38322 56235,38322 56235,38124 Z"/>
   </g>
  </g>
  <g class="com.sun.star.drawing.PolyPolygonShape">
   <g id="id14">
    <rect class="BoundingBox" stroke="none" fill="none" x="57063" y="37606" width="32" height="182"/>
    <path fill="rgb(255,255,255)" stroke="none" d="M 57064,37607 L 57093,37607 57093,37786 57064,37786 57064,37607 Z"/>
    <path fill="none" stroke="rgb(255,255,255)" d="M 57064,37607 L 57093,37607 57093,37786 57064,37786 57064,37607 Z"/>
   </g>
  </g>
  <g class="com.sun.star.drawing.PolyPolygonShape">
   <g id="id15">
    <rect class="BoundingBox" stroke="none" fill="none" x="57063" y="37998" width="32" height="183"/>
    <path fill="rgb(255,255,255)" stroke="none" d="M 57064,37999 L 57093,37999 57093,38179 57064,38179 57064,37999 Z"/>
    <path fill="none" stroke="rgb(255,255,255)" d="M 57064,37999 L 57093,37999 57093,38179 57064,38179 57064,37999 Z"/>
   </g>
  </g>
  <g class="com.sun.star.drawing.PolyPolygonShape">
   <g id="id16">
    <rect class="BoundingBox" stroke="none" fill="none" x="56909" y="37998" width="33" height="183"/>
    <path fill="rgb(255,255,255)" stroke="none" d="M 56910,37999 L 56940,37999 56940,38179 56910,38179 56910,37999 Z"/>
    <path fill="none" stroke="rgb(255,255,255)" d="M 56910,37999 L 56940,37999 56940,38179 56910,38179 56910,37999 Z"/>
   </g>
  </g>
  <g class="com.sun.star.drawing.PolyPolygonShape">
   <g id="id17">
    <rect class="BoundingBox" stroke="none" fill="none" x="55958" y="37153" width="671" height="360"/>
    <path fill="rgb(255,255,255)" stroke="none" d="M 56093,37367 L 56087,37366 56082,37366 56077,37368 56073,37371 56070,37375 56069,37380 56069,37386 56070,37391 56073,37395 56077,37398 56082,37400 56088,37400 56093,37399 56097,37397 56101,37393 56103,37388 56200,37385 56199,37403 56194,37420 56187,37436 56178,37451 56166,37466 56152,37477 56137,37487 56120,37493 56103,37497 56085,37498 56067,37497 56049,37492 56033,37485 56018,37476 56004,37464 55993,37449 55984,37434 55977,37417 55973,37399 55972,37382 55974,37364 55978,37346 55985,37330 55995,37315 56006,37301 56020,37290 56036,37281 56052,37274 56070,37270 56087,37269 56105,37270 56123,37275 56107,37335 56105,37344 56102,37352 56098,37360 56092,37367 56093,37367 Z M 56443,37285 L 56431,37293 56420,37302 56411,37312 56403,37324 56396,37336 56391,37350 56388,37363 56386,37377 56474,37377 56475,37373 56477,37369 56480,37366 56483,37363 56443,37285 Z M 56453,37280 L 56462,37276 56472,37273 56481,37271 56491,37270 56501,37270 56511,37270 56521,37272 56531,37274 56540,37277 56549,37281 56558,37286 56566,37291 56574,37297 56581,37304 56588,37312 56594,37320 56519,37365 56513,37361 56507,37358 56500,37357 56493,37358 56453,37280 Z M 56612,37309 L 56605,37313 56599,37304 56591,37295 56583,37288 56575,37281 56565,37274 56555,37269 56545,37265 56534,37261 56524,37258 56512,37257 56501,37256 56490,37256 56479,37258 56468,37260 56457,37263 56447,37268 56443,37261 56454,37256 56465,37253 56477,37250 56489,37249 56501,37248 56513,37249 56525,37251 56537,37253 56548,37257 56559,37262 56569,37268 56579,37274 56589,37282 56597,37290 56605,37299 56612,37309 Z M 56600,37329 L 56605,37341 56609,37353 56612,37365 56613,37378 56613,37391 56611,37403 56608,37416 56604,37428 56598,37439 56591,37450 56583,37461 56574,37469 56564,37477 56554,37484 56542,37489 56530,37493 56518,37496 56505,37497 56492,37497 56480,37496 56467,37493 56455,37488 56444,37483 56433,37476 56423,37468 56414,37459 56407,37448 56400,37437 56394,37426 56390,37414 56388,37401 56386,37389 56474,37389 56476,37394 56478,37398 56482,37402 56486,37405 56491,37408 56496,37409 56501,37409 56507,37408 56512,37406 56516,37403 56520,37400 56523,37395 56525,37390 56526,37385 56526,37380 56524,37375 56600,37329 Z M 56302,37300 L 56332,37300 56332,37311 56322,37311 56322,37345 56328,37347 56394,37208 56151,37208 56148,37222 56293,37354 56297,37350 56302,37348 56307,37346 56312,37345 56312,37311 56302,37311 56302,37300 Z M 56101,37374 L 56103,37377 56200,37373 56198,37359 56194,37344 56187,37330 56180,37317 56170,37305 56159,37295 56147,37286 56133,37279 56118,37337 56116,37347 56112,37357 56107,37366 56101,37374 Z M 56221,37373 L 56213,37373 56210,37356 56205,37339 56198,37324 56189,37309 56178,37296 56166,37284 56152,37274 56136,37266 56138,37259 56155,37267 56170,37277 56184,37290 56196,37304 56205,37320 56213,37337 56218,37354 56221,37373 Z M 56431,37261 L 56416,37271 56403,37283 56391,37296 56380,37310 56372,37326 56366,37343 56362,37360 56360,37377 56355,37377 56353,37370 56349,37363 56344,37356 56338,37351 56405,37211 56431,37261 Z M 56437,37273 L 56423,37282 56411,37292 56400,37304 56391,37317 56384,37331 56378,37346 56374,37362 56373,37377 56365,37377 56367,37361 56371,37344 56377,37328 56385,37313 56394,37299 56406,37286 56419,37275 56433,37266 56437,37273 Z M 56221,37384 L 56220,37402 56224,37403 56226,37391 56226,37380 56225,37368 56223,37357 56221,37346 56217,37335 56213,37324 56207,37314 56201,37304 56194,37295 56187,37286 56178,37278 56170,37271 56160,37265 56150,37259 56140,37254 56145,37234 56285,37362 56281,37370 56279,37380 56280,37390 56282,37399 56288,37407 56295,37414 56303,37418 56312,37421 56312,37456 56302,37456 56302,37467 56332,37467 56332,37456 56322,37456 56322,37421 56328,37420 56334,37417 56339,37414 56344,37410 56348,37406 56351,37400 56353,37395 56355,37389 56360,37389 56362,37408 56367,37407 56365,37389 56373,37389 56374,37403 56377,37417 56382,37430 56388,37443 56395,37456 56404,37467 56414,37478 56425,37487 56437,37494 56450,37501 56463,37506 56477,37509 56491,37511 56505,37511 56520,37509 56534,37506 56547,37502 56560,37496 56572,37488 56583,37479 56594,37469 56603,37458 56610,37445 56616,37433 56621,37419 56625,37405 56626,37391 56626,37377 56625,37363 56622,37349 56617,37335 56611,37323 56618,37318 56622,37327 56627,37325 56620,37313 56613,37301 56604,37291 56595,37281 56584,37272 56573,37264 56561,37257 56548,37252 56535,37248 56522,37245 56508,37244 56494,37243 56480,37245 56467,37247 56454,37251 56441,37256 56411,37198 56418,37184 56420,37182 56422,37181 56426,37180 56428,37178 56430,37175 56430,37171 56427,37168 56424,37167 56409,37165 56394,37165 56380,37166 56365,37168 56362,37170 56361,37174 56362,37178 56366,37180 56398,37181 56401,37181 56403,37183 56404,37186 56403,37189 56399,37197 56154,37197 56161,37171 56176,37171 56190,37168 56199,37167 56209,37168 56212,37167 56214,37163 56214,37160 56212,37157 56204,37154 56195,37155 56185,37157 56174,37157 56164,37157 56153,37157 56129,37250 56119,37247 56109,37245 56099,37244 56089,37243 56079,37244 56069,37245 56059,37246 56049,37248 56050,37253 56060,37251 56070,37249 56079,37248 56089,37248 56099,37249 56109,37250 56118,37252 56128,37255 56126,37262 56116,37260 56107,37258 56097,37257 56087,37256 56077,37256 56067,37258 56057,37259 56048,37262 56038,37266 56029,37270 56020,37274 56012,37280 56004,37286 55997,37293 55990,37300 55984,37308 55978,37316 55973,37325 55969,37334 55966,37343 55963,37353 55961,37362 55960,37372 55959,37382 55960,37392 55961,37402 55963,37412 55965,37421 55969,37431 55973,37440 55978,37449 55983,37458 55989,37466 55996,37473 56003,37480 56011,37486 56019,37492 56028,37497 56037,37501 56046,37504 56056,37507 56065,37509 56075,37511 56085,37511 56095,37511 56105,37510 56115,37508 56124,37505 56134,37502 56143,37498 56152,37493 56160,37487 56168,37481 56175,37474 56182,37467 56188,37460 56194,37450 56199,37442 56203,37433 56207,37423 56209,37414 56211,37404 56213,37394 56213,37384 56221,37384 Z"/>
    <path fill="none" stroke="rgb(255,255,255)" d="M 56093,37367 L 56087,37366 56082,37366 56077,37368 56073,37371 56070,37375 56069,37380 56069,37386 56070,37391 56073,37395 56077,37398 56082,37400 56088,37400 56093,37399 56097,37397 56101,37393 56103,37388 56200,37385 56199,37403 56194,37420 56187,37436 56178,37451 56166,37466 56152,37477 56137,37487 56120,37493 56103,37497 56085,37498 56067,37497 56049,37492 56033,37485 56018,37476 56004,37464 55993,37449 55984,37434 55977,37417 55973,37399 55972,37382 55974,37364 55978,37346 55985,37330 55995,37315 56006,37301 56020,37290 56036,37281 56052,37274 56070,37270 56087,37269 56105,37270 56123,37275 56107,37335 56105,37344 56102,37352 56098,37360 56092,37367 56093,37367 Z"/>
    <path fill="none" stroke="rgb(255,255,255)" d="M 56443,37285 L 56431,37293 56420,37302 56411,37312 56403,37324 56396,37336 56391,37350 56388,37363 56386,37377 56474,37377 56475,37373 56477,37369 56480,37366 56483,37363 56443,37285 Z"/>
    <path fill="none" stroke="rgb(255,255,255)" d="M 56453,37280 L 56462,37276 56472,37273 56481,37271 56491,37270 56501,37270 56511,37270 56521,37272 56531,37274 56540,37277 56549,37281 56558,37286 56566,37291 56574,37297 56581,37304 56588,37312 56594,37320 56519,37365 56513,37361 56507,37358 56500,37357 56493,37358 56453,37280 Z"/>
    <path fill="none" stroke="rgb(255,255,255)" d="M 56612,37309 L 56605,37313 56599,37304 56591,37295 56583,37288 56575,37281 56565,37274 56555,37269 56545,37265 56534,37261 56524,37258 56512,37257 56501,37256 56490,37256 56479,37258 56468,37260 56457,37263 56447,37268 56443,37261 56454,37256 56465,37253 56477,37250 56489,37249 56501,37248 56513,37249 56525,37251 56537,37253 56548,37257 56559,37262 56569,37268 56579,37274 56589,37282 56597,37290 56605,37299 56612,37309 Z"/>
    <path fill="none" stroke="rgb(255,255,255)" d="M 56600,37329 L 56605,37341 56609,37353 56612,37365 56613,37378 56613,37391 56611,37403 56608,37416 56604,37428 56598,37439 56591,37450 56583,37461 56574,37469 56564,37477 56554,37484 56542,37489 56530,37493 56518,37496 56505,37497 56492,37497 56480,37496 56467,37493 56455,37488 56444,37483 56433,37476 56423,37468 56414,37459 56407,37448 56400,37437 56394,37426 56390,37414 56388,37401 56386,37389 56474,37389 56476,37394 56478,37398 56482,37402 56486,37405 56491,37408 56496,37409 56501,37409 56507,37408 56512,37406 56516,37403 56520,37400 56523,37395 56525,37390 56526,37385 56526,37380 56524,37375 56600,37329 Z"/>
    <path fill="none" stroke="rgb(255,255,255)" d="M 56302,37300 L 56332,37300 56332,37311 56322,37311 56322,37345 56328,37347 56394,37208 56151,37208 56148,37222 56293,37354 56297,37350 56302,37348 56307,37346 56312,37345 56312,37311 56302,37311 56302,37300 Z"/>
    <path fill="none" stroke="rgb(255,255,255)" d="M 56101,37374 L 56103,37377 56200,37373 56198,37359 56194,37344 56187,37330 56180,37317 56170,37305 56159,37295 56147,37286 56133,37279 56118,37337 56116,37347 56112,37357 56107,37366 56101,37374 Z"/>
    <path fill="none" stroke="rgb(255,255,255)" d="M 56221,37373 L 56213,37373 56210,37356 56205,37339 56198,37324 56189,37309 56178,37296 56166,37284 56152,37274 56136,37266 56138,37259 56155,37267 56170,37277 56184,37290 56196,37304 56205,37320 56213,37337 56218,37354 56221,37373 Z"/>
    <path fill="none" stroke="rgb(255,255,255)" d="M 56431,37261 L 56416,37271 56403,37283 56391,37296 56380,37310 56372,37326 56366,37343 56362,37360 56360,37377 56355,37377 56353,37370 56349,37363 56344,37356 56338,37351 56405,37211 56431,37261 Z"/>
    <path fill="none" stroke="rgb(255,255,255)" d="M 56437,37273 L 56423,37282 56411,37292 56400,37304 56391,37317 56384,37331 56378,37346 56374,37362 56373,37377 56365,37377 56367,37361 56371,37344 56377,37328 56385,37313 56394,37299 56406,37286 56419,37275 56433,37266 56437,37273 Z"/>
    <path fill="none" stroke="rgb(255,255,255)" d="M 56221,37384 L 56220,37402 56224,37403 56226,37391 56226,37380 56225,37368 56223,37357 56221,37346 56217,37335 56213,37324 56207,37314 56201,37304 56194,37295 56187,37286 56178,37278 56170,37271 56160,37265 56150,37259 56140,37254 56145,37234 56285,37362 56281,37370 56279,37380 56280,37390 56282,37399 56288,37407 56295,37414 56303,37418 56312,37421 56312,37456 56302,37456 56302,37467 56332,37467 56332,37456 56322,37456 56322,37421 56328,37420 56334,37417 56339,37414 56344,37410 56348,37406 56351,37400 56353,37395 56355,37389 56360,37389 56362,37408 56367,37407 56365,37389 56373,37389 56374,37403 56377,37417 56382,37430 56388,37443 56395,37456 56404,37467 56414,37478 56425,37487 56437,37494 56450,37501 56463,37506 56477,37509 56491,37511 56505,37511 56520,37509 56534,37506 56547,37502 56560,37496 56572,37488 56583,37479 56594,37469 56603,37458 56610,37445 56616,37433 56621,37419 56625,37405 56626,37391 56626,37377 56625,37363 56622,37349 56617,37335 56611,37323 56618,37318 56622,37327 56627,37325 56620,37313 56613,37301 56604,37291 56595,37281 56584,37272 56573,37264 56561,37257 56548,37252 56535,37248 56522,37245 56508,37244 56494,37243 56480,37245 56467,37247 56454,37251 56441,37256 56411,37198 56418,37184 56420,37182 56422,37181 56426,37180 56428,37178 56430,37175 56430,37171 56427,37168 56424,37167 56409,37165 56394,37165 56380,37166 56365,37168 56362,37170 56361,37174 56362,37178 56366,37180 56398,37181 56401,37181 56403,37183 56404,37186 56403,37189 56399,37197 56154,37197 56161,37171 56176,37171 56190,37168 56199,37167 56209,37168 56212,37167 56214,37163 56214,37160 56212,37157 56204,37154 56195,37155 56185,37157 56174,37157 56164,37157 56153,37157 56129,37250 56119,37247 56109,37245 56099,37244 56089,37243 56079,37244 56069,37245 56059,37246 56049,37248 56050,37253 56060,37251 56070,37249 56079,37248 56089,37248 56099,37249 56109,37250 56118,37252 56128,37255 56126,37262 56116,37260 56107,37258 56097,37257 56087,37256 56077,37256 56067,37258 56057,37259 56048,37262 56038,37266 56029,37270 56020,37274 56012,37280 56004,37286 55997,37293 55990,37300 55984,37308 55978,37316 55973,37325 55969,37334 55966,37343 55963,37353 55961,37362 55960,37372 55959,37382 55960,37392 55961,37402 55963,37412 55965,37421 55969,37431 55973,37440 55978,37449 55983,37458 55989,37466 55996,37473 56003,37480 56011,37486 56019,37492 56028,37497 56037,37501 56046,37504 56056,37507 56065,37509 56075,37511 56085,37511 56095,37511 56105,37510 56115,37508 56124,37505 56134,37502 56143,37498 56152,37493 56160,37487 56168,37481 56175,37474 56182,37467 56188,37460 56194,37450 56199,37442 56203,37433 56207,37423 56209,37414 56211,37404 56213,37394 56213,37384 56221,37384 Z"/>
   </g>
  </g>
  <g class="com.sun.star.drawing.PolyPolygonShape">
   <g id="id18">
    <rect class="BoundingBox" stroke="none" fill="none" x="55958" y="37153" width="671" height="360"/>
    <path fill="rgb(255,255,255)" stroke="none" d="M 56093,37367 L 56087,37366 56082,37366 56077,37368 56073,37371 56070,37375 56069,37380 56069,37386 56070,37391 56073,37395 56077,37398 56082,37400 56088,37400 56093,37399 56097,37397 56101,37393 56103,37388 56200,37385 56199,37403 56194,37420 56187,37436 56178,37451 56166,37466 56152,37477 56137,37487 56120,37493 56103,37497 56085,37498 56067,37497 56049,37492 56033,37485 56018,37476 56004,37464 55993,37449 55984,37434 55977,37417 55973,37399 55972,37382 55974,37364 55978,37346 55985,37330 55995,37315 56006,37301 56020,37290 56036,37281 56052,37274 56070,37270 56087,37269 56105,37270 56123,37275 56107,37335 56105,37344 56102,37352 56098,37360 56092,37367 56093,37367 Z M 56443,37285 L 56431,37293 56420,37302 56411,37312 56403,37324 56396,37336 56391,37350 56388,37363 56386,37377 56474,37377 56475,37373 56477,37369 56480,37366 56483,37363 56443,37285 Z M 56453,37280 L 56462,37276 56472,37273 56481,37271 56491,37270 56501,37270 56511,37270 56521,37272 56531,37274 56540,37277 56549,37281 56558,37286 56566,37291 56574,37297 56581,37304 56588,37312 56594,37320 56519,37365 56513,37361 56507,37358 56500,37357 56493,37358 56453,37280 Z M 56612,37309 L 56605,37313 56599,37304 56591,37295 56583,37288 56575,37281 56565,37274 56555,37269 56545,37265 56534,37261 56524,37258 56512,37257 56501,37256 56490,37256 56479,37258 56468,37260 56457,37263 56447,37268 56443,37261 56454,37256 56465,37253 56477,37250 56489,37249 56501,37248 56513,37249 56525,37251 56537,37253 56548,37257 56559,37262 56569,37268 56579,37274 56589,37282 56597,37290 56605,37299 56612,37309 Z M 56600,37329 L 56605,37341 56609,37353 56612,37365 56613,37378 56613,37391 56611,37403 56608,37416 56604,37428 56598,37439 56591,37450 56583,37461 56574,37469 56564,37477 56554,37484 56542,37489 56530,37493 56518,37496 56505,37497 56492,37497 56480,37496 56467,37493 56455,37488 56444,37483 56433,37476 56423,37468 56414,37459 56407,37448 56400,37437 56394,37426 56390,37414 56388,37401 56386,37389 56474,37389 56476,37394 56478,37398 56482,37402 56486,37405 56491,37408 56496,37409 56501,37409 56507,37408 56512,37406 56516,37403 56520,37400 56523,37395 56525,37390 56526,37385 56526,37380 56524,37375 56600,37329 Z M 56302,37300 L 56332,37300 56332,37311 56322,37311 56322,37345 56328,37347 56394,37208 56151,37208 56148,37222 56293,37354 56297,37350 56302,37348 56307,37346 56312,37345 56312,37311 56302,37311 56302,37300 Z M 56101,37374 L 56103,37377 56200,37373 56198,37359 56194,37344 56187,37330 56180,37317 56170,37305 56159,37295 56147,37286 56133,37279 56118,37337 56116,37347 56112,37357 56107,37366 56101,37374 Z M 56221,37373 L 56213,37373 56210,37356 56205,37339 56198,37324 56189,37309 56178,37296 56166,37284 56152,37274 56136,37266 56138,37259 56155,37267 56170,37277 56184,37290 56196,37304 56205,37320 56213,37337 56218,37354 56221,37373 Z M 56431,37261 L 56416,37271 56403,37283 56391,37296 56380,37310 56372,37326 56366,37343 56362,37360 56360,37377 56355,37377 56353,37370 56349,37363 56344,37356 56338,37351 56405,37211 56431,37261 Z M 56437,37273 L 56423,37282 56411,37292 56400,37304 56391,37317 56384,37331 56378,37346 56374,37362 56373,37377 56365,37377 56367,37361 56371,37344 56377,37328 56385,37313 56394,37299 56406,37286 56419,37275 56433,37266 56437,37273 Z M 56221,37384 L 56220,37402 56224,37403 56226,37391 56226,37380 56225,37368 56223,37357 56221,37346 56217,37335 56213,37324 56207,37314 56201,37304 56194,37295 56187,37286 56178,37278 56170,37271 56160,37265 56150,37259 56140,37254 56145,37234 56285,37362 56281,37370 56279,37380 56280,37390 56282,37399 56288,37407 56295,37414 56303,37418 56312,37421 56312,37456 56302,37456 56302,37467 56332,37467 56332,37456 56322,37456 56322,37421 56328,37420 56334,37417 56339,37414 56344,37410 56348,37406 56351,37400 56353,37395 56355,37389 56360,37389 56362,37408 56367,37407 56365,37389 56373,37389 56374,37403 56377,37417 56382,37430 56388,37443 56395,37456 56404,37467 56414,37478 56425,37487 56437,37494 56450,37501 56463,37506 56477,37509 56491,37511 56505,37511 56520,37509 56534,37506 56547,37502 56560,37496 56572,37488 56583,37479 56594,37469 56603,37458 56610,37445 56616,37433 56621,37419 56625,37405 56626,37391 56626,37377 56625,37363 56622,37349 56617,37335 56611,37323 56618,37318 56622,37327 56627,37325 56620,37313 56613,37301 56604,37291 56595,37281 56584,37272 56573,37264 56561,37257 56548,37252 56535,37248 56522,37245 56508,37244 56494,37243 56480,37245 56467,37247 56454,37251 56441,37256 56411,37198 56418,37184 56420,37182 56422,37181 56426,37180 56428,37178 56430,37175 56430,37171 56427,37168 56424,37167 56409,37165 56394,37165 56380,37166 56365,37168 56362,37170 56361,37174 56362,37178 56366,37180 56398,37181 56401,37181 56403,37183 56404,37186 56403,37189 56399,37197 56154,37197 56161,37171 56176,37171 56190,37168 56199,37167 56209,37168 56212,37167 56214,37163 56214,37160 56212,37157 56204,37154 56195,37155 56185,37157 56174,37157 56164,37157 56153,37157 56129,37250 56119,37247 56109,37245 56099,37244 56089,37243 56079,37244 56069,37245 56059,37246 56049,37248 56050,37253 56060,37251 56070,37249 56079,37248 56089,37248 56099,37249 56109,37250 56118,37252 56128,37255 56126,37262 56116,37260 56107,37258 56097,37257 56087,37256 56077,37256 56067,37258 56057,37259 56048,37262 56038,37266 56029,37270 56020,37274 56012,37280 56004,37286 55997,37293 55990,37300 55984,37308 55978,37316 55973,37325 55969,37334 55966,37343 55963,37353 55961,37362 55960,37372 55959,37382 55960,37392 55961,37402 55963,37412 55965,37421 55969,37431 55973,37440 55978,37449 55983,37458 55989,37466 55996,37473 56003,37480 56011,37486 56019,37492 56028,37497 56037,37501 56046,37504 56056,37507 56065,37509 56075,37511 56085,37511 56095,37511 56105,37510 56115,37508 56124,37505 56134,37502 56143,37498 56152,37493 56160,37487 56168,37481 56175,37474 56182,37467 56188,37460 56194,37450 56199,37442 56203,37433 56207,37423 56209,37414 56211,37404 56213,37394 56213,37384 56221,37384 Z"/>
    <path fill="none" stroke="rgb(255,255,255)" d="M 56093,37367 L 56087,37366 56082,37366 56077,37368 56073,37371 56070,37375 56069,37380 56069,37386 56070,37391 56073,37395 56077,37398 56082,37400 56088,37400 56093,37399 56097,37397 56101,37393 56103,37388 56200,37385 56199,37403 56194,37420 56187,37436 56178,37451 56166,37466 56152,37477 56137,37487 56120,37493 56103,37497 56085,37498 56067,37497 56049,37492 56033,37485 56018,37476 56004,37464 55993,37449 55984,37434 55977,37417 55973,37399 55972,37382 55974,37364 55978,37346 55985,37330 55995,37315 56006,37301 56020,37290 56036,37281 56052,37274 56070,37270 56087,37269 56105,37270 56123,37275 56107,37335 56105,37344 56102,37352 56098,37360 56092,37367 56093,37367 Z"/>
    <path fill="none" stroke="rgb(255,255,255)" d="M 56443,37285 L 56431,37293 56420,37302 56411,37312 56403,37324 56396,37336 56391,37350 56388,37363 56386,37377 56474,37377 56475,37373 56477,37369 56480,37366 56483,37363 56443,37285 Z"/>
    <path fill="none" stroke="rgb(255,255,255)" d="M 56453,37280 L 56462,37276 56472,37273 56481,37271 56491,37270 56501,37270 56511,37270 56521,37272 56531,37274 56540,37277 56549,37281 56558,37286 56566,37291 56574,37297 56581,37304 56588,37312 56594,37320 56519,37365 56513,37361 56507,37358 56500,37357 56493,37358 56453,37280 Z"/>
    <path fill="none" stroke="rgb(255,255,255)" d="M 56612,37309 L 56605,37313 56599,37304 56591,37295 56583,37288 56575,37281 56565,37274 56555,37269 56545,37265 56534,37261 56524,37258 56512,37257 56501,37256 56490,37256 56479,37258 56468,37260 56457,37263 56447,37268 56443,37261 56454,37256 56465,37253 56477,37250 56489,37249 56501,37248 56513,37249 56525,37251 56537,37253 56548,37257 56559,37262 56569,37268 56579,37274 56589,37282 56597,37290 56605,37299 56612,37309 Z"/>
    <path fill="none" stroke="rgb(255,255,255)" d="M 56600,37329 L 56605,37341 56609,37353 56612,37365 56613,37378 56613,37391 56611,37403 56608,37416 56604,37428 56598,37439 56591,37450 56583,37461 56574,37469 56564,37477 56554,37484 56542,37489 56530,37493 56518,37496 56505,37497 56492,37497 56480,37496 56467,37493 56455,37488 56444,37483 56433,37476 56423,37468 56414,37459 56407,37448 56400,37437 56394,37426 56390,37414 56388,37401 56386,37389 56474,37389 56476,37394 56478,37398 56482,37402 56486,37405 56491,37408 56496,37409 56501,37409 56507,37408 56512,37406 56516,37403 56520,37400 56523,37395 56525,37390 56526,37385 56526,37380 56524,37375 56600,37329 Z"/>
    <path fill="none" stroke="rgb(255,255,255)" d="M 56302,37300 L 56332,37300 56332,37311 56322,37311 56322,37345 56328,37347 56394,37208 56151,37208 56148,37222 56293,37354 56297,37350 56302,37348 56307,37346 56312,37345 56312,37311 56302,37311 56302,37300 Z"/>
    <path fill="none" stroke="rgb(255,255,255)" d="M 56101,37374 L 56103,37377 56200,37373 56198,37359 56194,37344 56187,37330 56180,37317 56170,37305 56159,37295 56147,37286 56133,37279 56118,37337 56116,37347 56112,37357 56107,37366 56101,37374 Z"/>
    <path fill="none" stroke="rgb(255,255,255)" d="M 56221,37373 L 56213,37373 56210,37356 56205,37339 56198,37324 56189,37309 56178,37296 56166,37284 56152,37274 56136,37266 56138,37259 56155,37267 56170,37277 56184,37290 56196,37304 56205,37320 56213,37337 56218,37354 56221,37373 Z"/>
    <path fill="none" stroke="rgb(255,255,255)" d="M 56431,37261 L 56416,37271 56403,37283 56391,37296 56380,37310 56372,37326 56366,37343 56362,37360 56360,37377 56355,37377 56353,37370 56349,37363 56344,37356 56338,37351 56405,37211 56431,37261 Z"/>
    <path fill="none" stroke="rgb(255,255,255)" d="M 56437,37273 L 56423,37282 56411,37292 56400,37304 56391,37317 56384,37331 56378,37346 56374,37362 56373,37377 56365,37377 56367,37361 56371,37344 56377,37328 56385,37313 56394,37299 56406,37286 56419,37275 56433,37266 56437,37273 Z"/>
    <path fill="none" stroke="rgb(255,255,255)" d="M 56221,37384 L 56220,37402 56224,37403 56226,37391 56226,37380 56225,37368 56223,37357 56221,37346 56217,37335 56213,37324 56207,37314 56201,37304 56194,37295 56187,37286 56178,37278 56170,37271 56160,37265 56150,37259 56140,37254 56145,37234 56285,37362 56281,37370 56279,37380 56280,37390 56282,37399 56288,37407 56295,37414 56303,37418 56312,37421 56312,37456 56302,37456 56302,37467 56332,37467 56332,37456 56322,37456 56322,37421 56328,37420 56334,37417 56339,37414 56344,37410 56348,37406 56351,37400 56353,37395 56355,37389 56360,37389 56362,37408 56367,37407 56365,37389 56373,37389 56374,37403 56377,37417 56382,37430 56388,37443 56395,37456 56404,37467 56414,37478 56425,37487 56437,37494 56450,37501 56463,37506 56477,37509 56491,37511 56505,37511 56520,37509 56534,37506 56547,37502 56560,37496 56572,37488 56583,37479 56594,37469 56603,37458 56610,37445 56616,37433 56621,37419 56625,37405 56626,37391 56626,37377 56625,37363 56622,37349 56617,37335 56611,37323 56618,37318 56622,37327 56627,37325 56620,37313 56613,37301 56604,37291 56595,37281 56584,37272 56573,37264 56561,37257 56548,37252 56535,37248 56522,37245 56508,37244 56494,37243 56480,37245 56467,37247 56454,37251 56441,37256 56411,37198 56418,37184 56420,37182 56422,37181 56426,37180 56428,37178 56430,37175 56430,37171 56427,37168 56424,37167 56409,37165 56394,37165 56380,37166 56365,37168 56362,37170 56361,37174 56362,37178 56366,37180 56398,37181 56401,37181 56403,37183 56404,37186 56403,37189 56399,37197 56154,37197 56161,37171 56176,37171 56190,37168 56199,37167 56209,37168 56212,37167 56214,37163 56214,37160 56212,37157 56204,37154 56195,37155 56185,37157 56174,37157 56164,37157 56153,37157 56129,37250 56119,37247 56109,37245 56099,37244 56089,37243 56079,37244 56069,37245 56059,37246 56049,37248 56050,37253 56060,37251 56070,37249 56079,37248 56089,37248 56099,37249 56109,37250 56118,37252 56128,37255 56126,37262 56116,37260 56107,37258 56097,37257 56087,37256 56077,37256 56067,37258 56057,37259 56048,37262 56038,37266 56029,37270 56020,37274 56012,37280 56004,37286 55997,37293 55990,37300 55984,37308 55978,37316 55973,37325 55969,37334 55966,37343 55963,37353 55961,37362 55960,37372 55959,37382 55960,37392 55961,37402 55963,37412 55965,37421 55969,37431 55973,37440 55978,37449 55983,37458 55989,37466 55996,37473 56003,37480 56011,37486 56019,37492 56028,37497 56037,37501 56046,37504 56056,37507 56065,37509 56075,37511 56085,37511 56095,37511 56105,37510 56115,37508 56124,37505 56134,37502 56143,37498 56152,37493 56160,37487 56168,37481 56175,37474 56182,37467 56188,37460 56194,37450 56199,37442 56203,37433 56207,37423 56209,37414 56211,37404 56213,37394 56213,37384 56221,37384 Z"/>
   </g>
  </g>
 </g>
</svg>