<?xml version="1.0" encoding="UTF-8"?>
<!DOCTYPE svg PUBLIC "-//W3C//DTD SVG 1.1//EN" "http://www.w3.org/Graphics/SVG/1.1/DTD/svg11.dtd">
<svg version="1.2" width="78.57mm" height="25.04mm" viewBox="58172 36498 7857 2504" preserveAspectRatio="xMidYMid" fill-rule="evenodd" stroke-width="28.222" stroke-linejoin="round" xmlns="http://www.w3.org/2000/svg" xmlns:ooo="http://xml.openoffice.org/svg/export" xmlns:xlink="http://www.w3.org/1999/xlink" xmlns:presentation="http://sun.com/xmlns/staroffice/presentation" xmlns:smil="http://www.w3.org/2001/SMIL20/" xmlns:anim="urn:oasis:names:tc:opendocument:xmlns:animation:1.0" xml:space="preserve">
 <defs class="EmbeddedBulletChars">
  <g id="bullet-char-template-57356" transform="scale(0.00048828125,-0.00048828125)">
   <path d="M 580,1141 L 1163,571 580,0 -4,571 580,1141 Z"/>
  </g>
  <g id="bullet-char-template-57354" transform="scale(0.00048828125,-0.00048828125)">
   <path d="M 8,1128 L 1137,1128 1137,0 8,0 8,1128 Z"/>
  </g>
  <g id="bullet-char-template-10146" transform="scale(0.00048828125,-0.00048828125)">
   <path d="M 174,0 L 602,739 174,1481 1456,739 174,0 Z M 1358,739 L 309,1346 659,739 1358,739 Z"/>
  </g>
  <g id="bullet-char-template-10132" transform="scale(0.00048828125,-0.00048828125)">
   <path d="M 2015,739 L 1276,0 717,0 1260,543 174,543 174,936 1260,936 717,1481 1274,1481 2015,739 Z"/>
  </g>
  <g id="bullet-char-template-10007" transform="scale(0.00048828125,-0.00048828125)">
   <path d="M 0,-2 C -7,14 -16,27 -25,37 L 356,567 C 262,823 215,952 215,954 215,979 228,992 255,992 264,992 276,990 289,987 310,991 331,999 354,1012 L 381,999 492,748 772,1049 836,1024 860,1049 C 881,1039 901,1025 922,1006 886,937 835,863 770,784 769,783 710,716 594,584 L 774,223 C 774,196 753,168 711,139 L 727,119 C 717,90 699,76 672,76 641,76 570,178 457,381 L 164,-76 C 142,-110 111,-127 72,-127 30,-127 9,-110 8,-76 1,-67 -2,-52 -2,-32 -2,-23 -1,-13 0,-2 Z"/>
  </g>
  <g id="bullet-char-template-10004" transform="scale(0.00048828125,-0.00048828125)">
   <path d="M 285,-33 C 182,-33 111,30 74,156 52,228 41,333 41,471 41,549 55,616 82,672 116,743 169,778 240,778 293,778 328,747 346,684 L 369,508 C 377,444 397,411 428,410 L 1163,1116 C 1174,1127 1196,1133 1229,1133 1271,1133 1292,1118 1292,1087 L 1292,965 C 1292,929 1282,901 1262,881 L 442,47 C 390,-6 338,-33 285,-33 Z"/>
  </g>
  <g id="bullet-char-template-9679" transform="scale(0.00048828125,-0.00048828125)">
   <path d="M 813,0 C 632,0 489,54 383,161 276,268 223,411 223,592 223,773 276,916 383,1023 489,1130 632,1184 813,1184 992,1184 1136,1130 1245,1023 1353,916 1407,772 1407,592 1407,412 1353,268 1245,161 1136,54 992,0 813,0 Z"/>
  </g>
  <g id="bullet-char-template-8226" transform="scale(0.00048828125,-0.00048828125)">
   <path d="M 346,457 C 273,457 209,483 155,535 101,586 74,649 74,723 74,796 101,859 155,911 209,963 273,989 346,989 419,989 480,963 531,910 582,859 608,796 608,723 608,648 583,586 532,535 482,483 420,457 346,457 Z"/>
  </g>
  <g id="bullet-char-template-8211" transform="scale(0.00048828125,-0.00048828125)">
   <path d="M -4,459 L 1135,459 1135,606 -4,606 -4,459 Z"/>
  </g>
  <g id="bullet-char-template-61548" transform="scale(0.00048828125,-0.00048828125)">
   <path d="M 173,740 C 173,903 231,1043 346,1159 462,1274 601,1332 765,1332 928,1332 1067,1274 1183,1159 1299,1043 1357,903 1357,740 1357,577 1299,437 1183,322 1067,206 928,148 765,148 601,148 462,206 346,322 231,437 173,577 173,740 Z"/>
  </g>
 </defs>
 <g class="Page">
  <g class="com.sun.star.drawing.PolyPolygonShape">
   <g id="id3">
    <rect class="BoundingBox" stroke="none" fill="none" x="58172" y="36498" width="7857" height="2504"/>
    <path fill="rgb(0,0,255)" stroke="none" d="M 58266,39000 L 65934,39000 65938,39000 65943,39000 65947,38999 65952,38998 65956,38997 65961,38996 65965,38995 65970,38993 65973,38991 65978,38989 65982,38987 65985,38984 65989,38982 65993,38979 65996,38976 65999,38973 66003,38969 66006,38966 66008,38963 66011,38959 66013,38955 66016,38951 66018,38947 66019,38943 66021,38939 66023,38934 66024,38929 66025,38925 66026,38921 66026,38916 66027,38912 66027,38907 66027,36592 66027,36588 66026,36583 66026,36579 66025,36574 66024,36570 66023,36565 66021,36561 66019,36557 66018,36553 66016,36548 66013,36545 66011,36541 66008,36537 66006,36534 66003,36530 65999,36526 65996,36523 65993,36521 65989,36518 65985,36515 65982,36512 65978,36511 65973,36508 65970,36507 65965,36505 65961,36503 65956,36502 65952,36501 65947,36500 65943,36500 65938,36499 65934,36499 58266,36499 58261,36499 58257,36500 58252,36500 58248,36501 58243,36502 58239,36503 58234,36505 58230,36507 58226,36508 58222,36511 58218,36512 58214,36515 58210,36518 58207,36521 58204,36523 58200,36526 58197,36530 58194,36534 58191,36537 58189,36541 58186,36545 58184,36548 58182,36553 58180,36557 58178,36561 58177,36565 58176,36570 58175,36574 58174,36579 58173,36583 58173,36588 58173,36592 58173,38907 58173,38912 58173,38916 58174,38921 58175,38925 58176,38929 58177,38934 58178,38939 58180,38943 58182,38947 58184,38951 58186,38955 58189,38959 58191,38963 58194,38966 58197,38969 58200,38973 58204,38976 58207,38979 58210,38982 58214,38984 58218,38987 58222,38989 58226,38991 58230,38993 58234,38995 58239,38996 58243,38997 58248,38998 58252,38999 58257,39000 58261,39000 58266,39000 Z"/>
    <path fill="none" stroke="rgb(0,0,255)" d="M 58266,39000 L 65934,39000 65938,39000 65943,39000 65947,38999 65952,38998 65956,38997 65961,38996 65965,38995 65970,38993 65973,38991 65978,38989 65982,38987 65985,38984 65989,38982 65993,38979 65996,38976 65999,38973 66003,38969 66006,38966 66008,38963 66011,38959 66013,38955 66016,38951 66018,38947 66019,38943 66021,38939 66023,38934 66024,38929 66025,38925 66026,38921 66026,38916 66027,38912 66027,38907 66027,36592 66027,36588 66026,36583 66026,36579 66025,36574 66024,36570 66023,36565 66021,36561 66019,36557 66018,36553 66016,36548 66013,36545 66011,36541 66008,36537 66006,36534 66003,36530 65999,36526 65996,36523 65993,36521 65989,36518 65985,36515 65982,36512 65978,36511 65973,36508 65970,36507 65965,36505 65961,36503 65956,36502 65952,36501 65947,36500 65943,36500 65938,36499 65934,36499 58266,36499 58261,36499 58257,36500 58252,36500 58248,36501 58243,36502 58239,36503 58234,36505 58230,36507 58226,36508 58222,36511 58218,36512 58214,36515 58210,36518 58207,36521 58204,36523 58200,36526 58197,36530 58194,36534 58191,36537 58189,36541 58186,36545 58184,36548 58182,36553 58180,36557 58178,36561 58177,36565 58176,36570 58175,36574 58174,36579 58173,36583 58173,36588 58173,36592 58173,38907 58173,38912 58173,38916 58174,38921 58175,38925 58176,38929 58177,38934 58178,38939 58180,38943 58182,38947 58184,38951 58186,38955 58189,38959 58191,38963 58194,38966 58197,38969 58200,38973 58204,38976 58207,38979 58210,38982 58214,38984 58218,38987 58222,38989 58226,38991 58230,38993 58234,38995 58239,38996 58243,38997 58248,38998 58252,38999 58257,39000 58261,39000 58266,39000 Z"/>
   </g>
  </g>
  <g class="com.sun.star.drawing.PolyPolygonShape">
   <g id="id4">
    <rect class="BoundingBox" stroke="none" fill="none" x="58236" y="36563" width="7728" height="2375"/>
    <path fill="rgb(255,255,255)" stroke="none" d="M 58451,38936 L 65748,38936 65753,38936 65759,38935 65764,38935 65769,38935 65774,38934 65780,38933 65785,38932 65790,38931 65795,38930 65800,38929 65806,38928 65810,38927 65816,38925 65820,38923 65825,38921 65830,38919 65835,38917 65840,38915 65844,38913 65849,38910 65854,38908 65858,38905 65863,38903 65867,38900 65872,38897 65876,38894 65880,38891 65884,38887 65888,38884 65892,38880 65896,38877 65900,38873 65903,38869 65907,38865 65911,38861 65914,38858 65917,38853 65920,38849 65924,38845 65926,38841 65929,38836 65932,38832 65935,38827 65937,38823 65939,38818 65942,38813 65944,38808 65946,38803 65948,38799 65950,38794 65951,38789 65953,38784 65955,38779 65956,38774 65957,38768 65958,38764 65959,38758 65960,38753 65961,38748 65961,38742 65962,38737 65962,38732 65962,38727 65962,38721 65962,36779 65962,36773 65962,36768 65962,36763 65961,36758 65961,36753 65960,36748 65959,36742 65958,36737 65957,36731 65956,36726 65955,36721 65953,36716 65951,36711 65950,36706 65948,36701 65946,36696 65944,36691 65942,36686 65939,36682 65937,36677 65935,36672 65932,36668 65929,36663 65926,36659 65924,36654 65920,36650 65917,36646 65914,36642 65911,36638 65907,36634 65903,36630 65900,36627 65896,36623 65892,36619 65888,36616 65884,36612 65880,36609 65876,36606 65872,36603 65867,36600 65863,36597 65858,36594 65854,36592 65849,36589 65844,36586 65840,36584 65835,36582 65830,36580 65825,36578 65820,36576 65816,36574 65810,36573 65806,36571 65800,36570 65795,36569 65790,36568 65785,36567 65780,36566 65774,36565 65769,36565 65764,36564 65759,36564 65753,36564 65748,36564 58451,36564 58446,36564 58441,36564 58436,36564 58430,36565 58425,36565 58420,36566 58415,36567 58409,36568 58404,36569 58399,36570 58394,36571 58389,36573 58384,36574 58379,36576 58374,36578 58369,36580 58365,36582 58360,36584 58355,36586 58350,36589 58345,36592 58341,36594 58337,36597 58332,36600 58328,36603 58324,36606 58320,36609 58315,36612 58311,36616 58308,36619 58304,36623 58300,36627 58296,36630 58293,36634 58289,36638 58286,36642 58282,36646 58279,36650 58276,36654 58273,36659 58270,36663 58268,36668 58265,36672 58263,36677 58260,36682 58258,36686 58255,36691 58253,36696 58251,36701 58250,36706 58248,36711 58246,36716 58245,36721 58243,36726 58242,36731 58241,36737 58240,36742 58239,36748 58239,36753 58238,36758 58238,36763 58238,36768 58237,36773 58237,36779 58237,38721 58237,38727 58238,38732 58238,38737 58238,38742 58239,38748 58239,38753 58240,38758 58241,38764 58242,38768 58243,38774 58245,38779 58246,38784 58248,38789 58250,38794 58251,38799 58253,38803 58255,38808 58258,38813 58260,38818 58263,38823 58265,38827 58268,38832 58270,38836 58273,38841 58276,38845 58279,38849 58282,38853 58286,38858 58289,38861 58293,38865 58296,38869 58300,38873 58304,38877 58308,38880 58311,38884 58315,38887 58320,38891 58324,38894 58328,38897 58332,38900 58337,38903 58341,38905 58345,38908 58350,38910 58355,38913 58360,38915 58365,38917 58369,38919 58374,38921 58379,38923 58384,38925 58389,38927 58394,38928 58399,38929 58404,38930 58409,38931 58415,38932 58420,38933 58425,38934 58430,38935 58436,38935 58441,38935 58446,38936 58451,38936 Z"/>
    <path fill="none" stroke="rgb(255,255,255)" d="M 58451,38936 L 65748,38936 65753,38936 65759,38935 65764,38935 65769,38935 65774,38934 65780,38933 65785,38932 65790,38931 65795,38930 65800,38929 65806,38928 65810,38927 65816,38925 65820,38923 65825,38921 65830,38919 65835,38917 65840,38915 65844,38913 65849,38910 65854,38908 65858,38905 65863,38903 65867,38900 65872,38897 65876,38894 65880,38891 65884,38887 65888,38884 65892,38880 65896,38877 65900,38873 65903,38869 65907,38865 65911,38861 65914,38858 65917,38853 65920,38849 65924,38845 65926,38841 65929,38836 65932,38832 65935,38827 65937,38823 65939,38818 65942,38813 65944,38808 65946,38803 65948,38799 65950,38794 65951,38789 65953,38784 65955,38779 65956,38774 65957,38768 65958,38764 65959,38758 65960,38753 65961,38748 65961,38742 65962,38737 65962,38732 65962,38727 65962,38721 65962,36779 65962,36773 65962,36768 65962,36763 65961,36758 65961,36753 65960,36748 65959,36742 65958,36737 65957,36731 65956,36726 65955,36721 65953,36716 65951,36711 65950,36706 65948,36701 65946,36696 65944,36691 65942,36686 65939,36682 65937,36677 65935,36672 65932,36668 65929,36663 65926,36659 65924,36654 65920,36650 65917,36646 65914,36642 65911,36638 65907,36634 65903,36630 65900,36627 65896,36623 65892,36619 65888,36616 65884,36612 65880,36609 65876,36606 65872,36603 65867,36600 65863,36597 65858,36594 65854,36592 65849,36589 65844,36586 65840,36584 65835,36582 65830,36580 65825,36578 65820,36576 65816,36574 65810,36573 65806,36571 65800,36570 65795,36569 65790,36568 65785,36567 65780,36566 65774,36565 65769,36565 65764,36564 65759,36564 65753,36564 65748,36564 58451,36564 58446,36564 58441,36564 58436,36564 58430,36565 58425,36565 58420,36566 58415,36567 58409,36568 58404,36569 58399,36570 58394,36571 58389,36573 58384,36574 58379,36576 58374,36578 58369,36580 58365,36582 58360,36584 58355,36586 58350,36589 58345,36592 58341,36594 58337,36597 58332,36600 58328,36603 58324,36606 58320,36609 58315,36612 58311,36616 58308,36619 58304,36623 58300,36627 58296,36630 58293,36634 58289,36638 58286,36642 58282,36646 58279,36650 58276,36654 58273,36659 58270,36663 58268,36668 58265,36672 58263,36677 58260,36682 58258,36686 58255,36691 58253,36696 58251,36701 58250,36706 58248,36711 58246,36716 58245,36721 58243,36726 58242,36731 58241,36737 58240,36742 58239,36748 58239,36753 58238,36758 58238,36763 58238,36768 58237,36773 58237,36779 58237,38721 58237,38727 58238,38732 58238,38737 58238,38742 58239,38748 58239,38753 58240,38758 58241,38764 58242,38768 58243,38774 58245,38779 58246,38784 58248,38789 58250,38794 58251,38799 58253,38803 58255,38808 58258,38813 58260,38818 58263,38823 58265,38827 58268,38832 58270,38836 58273,38841 58276,38845 58279,38849 58282,38853 58286,38858 58289,38861 58293,38865 58296,38869 58300,38873 58304,38877 58308,38880 58311,38884 58315,38887 58320,38891 58324,38894 58328,38897 58332,38900 58337,38903 58341,38905 58345,38908 58350,38910 58355,38913 58360,38915 58365,38917 58369,38919 58374,38921 58379,38923 58384,38925 58389,38927 58394,38928 58399,38929 58404,38930 58409,38931 58415,38932 58420,38933 58425,38934 58430,38935 58436,38935 58441,38935 58446,38936 58451,38936 Z"/>
   </g>
  </g>
  <g class="com.sun.star.drawing.PolyPolygonShape">
   <g id="id5">
    <rect class="BoundingBox" stroke="none" fill="none" x="58300" y="36627" width="7600" height="2246"/>
    <path fill="rgb(0,0,255)" stroke="none" d="M 58451,38871 L 65748,38871 65756,38871 65763,38871 65770,38870 65777,38869 65784,38867 65792,38865 65799,38863 65806,38860 65812,38857 65819,38854 65825,38850 65831,38846 65838,38842 65843,38837 65849,38833 65854,38827 65859,38822 65864,38817 65869,38811 65873,38805 65877,38799 65880,38792 65884,38786 65887,38779 65889,38772 65892,38765 65894,38758 65895,38751 65897,38743 65898,38736 65898,38729 65898,38721 65898,36778 65898,36771 65898,36763 65897,36756 65895,36748 65894,36741 65892,36735 65889,36727 65887,36721 65884,36714 65880,36707 65877,36701 65873,36695 65869,36688 65864,36683 65859,36677 65854,36672 65849,36667 65843,36662 65838,36657 65831,36653 65825,36649 65819,36646 65812,36642 65806,36640 65799,36637 65792,36634 65784,36632 65777,36631 65770,36629 65763,36629 65756,36628 65748,36628 58451,36628 58444,36628 58437,36629 58429,36629 58422,36631 58415,36632 58408,36634 58401,36637 58394,36640 58387,36642 58380,36646 58374,36649 58368,36653 58362,36657 58356,36662 58351,36667 58345,36672 58340,36677 58335,36683 58331,36688 58327,36695 58322,36701 58319,36707 58316,36714 58313,36721 58310,36727 58308,36735 58306,36741 58304,36748 58303,36756 58302,36763 58301,36771 58301,36778 58301,38721 58301,38729 58302,38736 58303,38743 58304,38751 58306,38758 58308,38765 58310,38772 58313,38779 58316,38786 58319,38792 58322,38799 58327,38805 58331,38811 58335,38817 58340,38822 58345,38827 58351,38833 58356,38837 58362,38842 58368,38846 58374,38850 58380,38854 58387,38857 58394,38860 58401,38863 58408,38865 58415,38867 58422,38869 58429,38870 58437,38871 58444,38871 58451,38871 Z"/>
    <path fill="none" stroke="rgb(0,0,255)" d="M 58451,38871 L 65748,38871 65756,38871 65763,38871 65770,38870 65777,38869 65784,38867 65792,38865 65799,38863 65806,38860 65812,38857 65819,38854 65825,38850 65831,38846 65838,38842 65843,38837 65849,38833 65854,38827 65859,38822 65864,38817 65869,38811 65873,38805 65877,38799 65880,38792 65884,38786 65887,38779 65889,38772 65892,38765 65894,38758 65895,38751 65897,38743 65898,38736 65898,38729 65898,38721 65898,36778 65898,36771 65898,36763 65897,36756 65895,36748 65894,36741 65892,36735 65889,36727 65887,36721 65884,36714 65880,36707 65877,36701 65873,36695 65869,36688 65864,36683 65859,36677 65854,36672 65849,36667 65843,36662 65838,36657 65831,36653 65825,36649 65819,36646 65812,36642 65806,36640 65799,36637 65792,36634 65784,36632 65777,36631 65770,36629 65763,36629 65756,36628 65748,36628 58451,36628 58444,36628 58437,36629 58429,36629 58422,36631 58415,36632 58408,36634 58401,36637 58394,36640 58387,36642 58380,36646 58374,36649 58368,36653 58362,36657 58356,36662 58351,36667 58345,36672 58340,36677 58335,36683 58331,36688 58327,36695 58322,36701 58319,36707 58316,36714 58313,36721 58310,36727 58308,36735 58306,36741 58304,36748 58303,36756 58302,36763 58301,36771 58301,36778 58301,38721 58301,38729 58302,38736 58303,38743 58304,38751 58306,38758 58308,38765 58310,38772 58313,38779 58316,38786 58319,38792 58322,38799 58327,38805 58331,38811 58335,38817 58340,38822 58345,38827 58351,38833 58356,38837 58362,38842 58368,38846 58374,38850 58380,38854 58387,38857 58394,38860 58401,38863 58408,38865 58415,38867 58422,38869 58429,38870 58437,38871 58444,38871 58451,38871 Z"/>
   </g>
  </g>
  <g class="com.sun.star.drawing.PolyPolygonShape">
   <g id="id6">
    <rect class="BoundingBox" stroke="none" fill="none" x="58778" y="38112" width="1290" height="576"/>
    <path fill="rgb(255,255,255)" stroke="none" d="M 59622,38113 L 59222,38113 59222,38342 58779,38342 59422,38686 60066,38342 59622,38342 59622,38113 Z"/>
    <path fill="none" stroke="rgb(255,255,255)" d="M 59622,38113 L 59222,38113 59222,38342 58779,38342 59422,38686 60066,38342 59622,38342 59622,38113 Z"/>
   </g>
  </g>
  <g class="com.sun.star.drawing.PolyPolygonShape">
   <g id="id7">
    <rect class="BoundingBox" stroke="none" fill="none" x="64133" y="38112" width="1289" height="576"/>
    <path fill="rgb(255,255,255)" stroke="none" d="M 64977,38113 L 64576,38113 64576,38342 64134,38342 64776,38686 65420,38342 64977,38342 64977,38113 Z"/>
    <path fill="none" stroke="rgb(255,255,255)" d="M 64977,38113 L 64576,38113 64576,38342 64134,38342 64776,38686 65420,38342 64977,38342 64977,38113 Z"/>
   </g>
  </g>
 </g>
</svg>