<?xml version="1.0" encoding="UTF-8"?>
<!DOCTYPE svg PUBLIC "-//W3C//DTD SVG 1.1//EN" "http://www.w3.org/Graphics/SVG/1.1/DTD/svg11.dtd">
<svg version="1.2" width="25.03mm" height="25.04mm" viewBox="69549 36498 2503 2504" preserveAspectRatio="xMidYMid" fill-rule="evenodd" stroke-width="28.222" stroke-linejoin="round" xmlns="http://www.w3.org/2000/svg" xmlns:ooo="http://xml.openoffice.org/svg/export" xmlns:xlink="http://www.w3.org/1999/xlink" xmlns:presentation="http://sun.com/xmlns/staroffice/presentation" xmlns:smil="http://www.w3.org/2001/SMIL20/" xmlns:anim="urn:oasis:names:tc:opendocument:xmlns:animation:1.0" xml:space="preserve">
 <defs class="EmbeddedBulletChars">
  <g id="bullet-char-template-57356" transform="scale(0.00048828125,-0.00048828125)">
   <path d="M 580,1141 L 1163,571 580,0 -4,571 580,1141 Z"/>
  </g>
  <g id="bullet-char-template-57354" transform="scale(0.00048828125,-0.00048828125)">
   <path d="M 8,1128 L 1137,1128 1137,0 8,0 8,1128 Z"/>
  </g>
  <g id="bullet-char-template-10146" transform="scale(0.00048828125,-0.00048828125)">
   <path d="M 174,0 L 602,739 174,1481 1456,739 174,0 Z M 1358,739 L 309,1346 659,739 1358,739 Z"/>
  </g>
  <g id="bullet-char-template-10132" transform="scale(0.00048828125,-0.00048828125)">
   <path d="M 2015,739 L 1276,0 717,0 1260,543 174,543 174,936 1260,936 717,1481 1274,1481 2015,739 Z"/>
  </g>
  <g id="bullet-char-template-10007" transform="scale(0.00048828125,-0.00048828125)">
   <path d="M 0,-2 C -7,14 -16,27 -25,37 L 356,567 C 262,823 215,952 215,954 215,979 228,992 255,992 264,992 276,990 289,987 310,991 331,999 354,1012 L 381,999 492,748 772,1049 836,1024 860,1049 C 881,1039 901,1025 922,1006 886,937 835,863 770,784 769,783 710,716 594,584 L 774,223 C 774,196 753,168 711,139 L 727,119 C 717,90 699,76 672,76 641,76 570,178 457,381 L 164,-76 C 142,-110 111,-127 72,-127 30,-127 9,-110 8,-76 1,-67 -2,-52 -2,-32 -2,-23 -1,-13 0,-2 Z"/>
  </g>
  <g id="bullet-char-template-10004" transform="scale(0.00048828125,-0.00048828125)">
   <path d="M 285,-33 C 182,-33 111,30 74,156 52,228 41,333 41,471 41,549 55,616 82,672 116,743 169,778 240,778 293,778 328,747 346,684 L 369,508 C 377,444 397,411 428,410 L 1163,1116 C 1174,1127 1196,1133 1229,1133 1271,1133 1292,1118 1292,1087 L 1292,965 C 1292,929 1282,901 1262,881 L 442,47 C 390,-6 338,-33 285,-33 Z"/>
  </g>
  <g id="bullet-char-template-9679" transform="scale(0.00048828125,-0.00048828125)">
   <path d="M 813,0 C 632,0 489,54 383,161 276,268 223,411 223,592 223,773 276,916 383,1023 489,1130 632,1184 813,1184 992,1184 1136,1130 1245,1023 1353,916 1407,772 1407,592 1407,412 1353,268 1245,161 1136,54 992,0 813,0 Z"/>
  </g>
  <g id="bullet-char-template-8226" transform="scale(0.00048828125,-0.00048828125)">
   <path d="M 346,457 C 273,457 209,483 155,535 101,586 74,649 74,723 74,796 101,859 155,911 209,963 273,989 346,989 419,989 480,963 531,910 582,859 608,796 608,723 608,648 583,586 532,535 482,483 420,457 346,457 Z"/>
  </g>
  <g id="bullet-char-template-8211" transform="scale(0.00048828125,-0.00048828125)">
   <path d="M -4,459 L 1135,459 1135,606 -4,606 -4,459 Z"/>
  </g>
  <g id="bullet-char-template-61548" transform="scale(0.00048828125,-0.00048828125)">
   <path d="M 173,740 C 173,903 231,1043 346,1159 462,1274 601,1332 765,1332 928,1332 1067,1274 1183,1159 1299,1043 1357,903 1357,740 1357,577 1299,437 1183,322 1067,206 928,148 765,148 601,148 462,206 346,322 231,437 173,577 173,740 Z"/>
  </g>
 </defs>
 <g class="Page">
  <g class="com.sun.star.drawing.PolyPolygonShape">
   <g id="id3">
    <rect class="BoundingBox" stroke="none" fill="none" x="69549" y="36498" width="2503" height="2504"/>
    <path fill="rgb(0,0,255)" stroke="none" d="M 69550,38768 L 69550,36732 69551,36709 69554,36686 69559,36664 69567,36643 69577,36622 69589,36603 69602,36584 69618,36567 69635,36552 69653,36539 69672,36527 69693,36517 69714,36509 69736,36504 69759,36501 69782,36499 71818,36499 71841,36501 71863,36504 71885,36509 71907,36517 71927,36527 71947,36539 71965,36552 71982,36567 71997,36584 72011,36603 72023,36622 72032,36643 72040,36664 72046,36686 72049,36709 72050,36732 72050,38768 72049,38791 72046,38814 72040,38836 72032,38857 72023,38878 72011,38897 71997,38915 71982,38932 71965,38948 71947,38961 71927,38973 71907,38983 71885,38990 71863,38996 71841,38999 71818,39000 69782,39000 69759,38999 69736,38996 69714,38990 69693,38983 69672,38973 69653,38961 69635,38948 69618,38932 69602,38915 69589,38897 69577,38878 69567,38857 69559,38836 69554,38814 69551,38791 69550,38768 Z"/>
    <path fill="none" stroke="rgb(0,0,255)" d="M 69550,38768 L 69550,36732 69551,36709 69554,36686 69559,36664 69567,36643 69577,36622 69589,36603 69602,36584 69618,36567 69635,36552 69653,36539 69672,36527 69693,36517 69714,36509 69736,36504 69759,36501 69782,36499 71818,36499 71841,36501 71863,36504 71885,36509 71907,36517 71927,36527 71947,36539 71965,36552 71982,36567 71997,36584 72011,36603 72023,36622 72032,36643 72040,36664 72046,36686 72049,36709 72050,36732 72050,38768 72049,38791 72046,38814 72040,38836 72032,38857 72023,38878 72011,38897 71997,38915 71982,38932 71965,38948 71947,38961 71927,38973 71907,38983 71885,38990 71863,38996 71841,38999 71818,39000 69782,39000 69759,38999 69736,38996 69714,38990 69693,38983 69672,38973 69653,38961 69635,38948 69618,38932 69602,38915 69589,38897 69577,38878 69567,38857 69559,38836 69554,38814 69551,38791 69550,38768 Z"/>
   </g>
  </g>
  <g class="com.sun.star.drawing.PolyPolygonShape">
   <g id="id4">
    <rect class="BoundingBox" stroke="none" fill="none" x="69602" y="36552" width="2397" height="2397"/>
    <path fill="rgb(255,255,255)" stroke="none" d="M 69603,38768 L 69603,36732 69604,36714 69607,36697 69611,36680 69617,36663 69624,36647 69633,36632 69644,36618 69655,36605 69669,36594 69682,36583 69697,36574 69713,36567 69730,36561 69747,36556 69764,36554 69782,36553 71818,36553 71835,36554 71853,36556 71870,36561 71886,36567 71902,36574 71917,36583 71931,36594 71944,36605 71956,36618 71966,36632 71975,36647 71983,36663 71989,36680 71993,36697 71996,36714 71997,36732 71997,38768 71996,38786 71993,38803 71989,38820 71983,38837 71975,38852 71966,38867 71956,38881 71944,38895 71931,38906 71917,38917 71902,38926 71886,38933 71870,38939 71853,38943 71835,38946 71818,38947 69782,38947 69764,38946 69747,38943 69730,38939 69713,38933 69697,38926 69682,38917 69669,38906 69655,38895 69644,38881 69633,38867 69624,38852 69617,38837 69611,38820 69607,38803 69604,38786 69603,38768 Z"/>
    <path fill="none" stroke="rgb(255,255,255)" d="M 69603,38768 L 69603,36732 69604,36714 69607,36697 69611,36680 69617,36663 69624,36647 69633,36632 69644,36618 69655,36605 69669,36594 69682,36583 69697,36574 69713,36567 69730,36561 69747,36556 69764,36554 69782,36553 71818,36553 71835,36554 71853,36556 71870,36561 71886,36567 71902,36574 71917,36583 71931,36594 71944,36605 71956,36618 71966,36632 71975,36647 71983,36663 71989,36680 71993,36697 71996,36714 71997,36732 71997,38768 71996,38786 71993,38803 71989,38820 71983,38837 71975,38852 71966,38867 71956,38881 71944,38895 71931,38906 71917,38917 71902,38926 71886,38933 71870,38939 71853,38943 71835,38946 71818,38947 69782,38947 69764,38946 69747,38943 69730,38939 69713,38933 69697,38926 69682,38917 69669,38906 69655,38895 69644,38881 69633,38867 69624,38852 69617,38837 69611,38820 69607,38803 69604,38786 69603,38768 Z"/>
   </g>
  </g>
  <g class="com.sun.star.drawing.PolyPolygonShape">
   <g id="id5">
    <rect class="BoundingBox" stroke="none" fill="none" x="69656" y="36606" width="2289" height="2289"/>
    <path fill="rgb(0,0,255)" stroke="none" d="M 69657,38768 L 69657,36732 69657,36719 69659,36707 69662,36695 69666,36684 69671,36673 69678,36662 69685,36652 69694,36643 69703,36635 69713,36628 69724,36621 69735,36616 69746,36612 69758,36609 69770,36607 69783,36607 71818,36607 71830,36607 71842,36609 71854,36612 71866,36616 71877,36621 71887,36628 71897,36635 71906,36643 71915,36652 71922,36662 71928,36673 71933,36684 71938,36695 71940,36707 71942,36719 71943,36732 71943,38768 71942,38781 71940,38793 71938,38804 71933,38816 71928,38827 71922,38838 71915,38848 71906,38857 71897,38865 71887,38872 71877,38879 71866,38884 71854,38888 71842,38891 71830,38893 71818,38893 69783,38893 69770,38893 69758,38891 69746,38888 69735,38884 69724,38879 69713,38872 69703,38865 69694,38857 69685,38848 69678,38838 69671,38827 69666,38816 69662,38804 69659,38793 69657,38781 69657,38768 Z"/>
    <path fill="none" stroke="rgb(0,0,255)" d="M 69657,38768 L 69657,36732 69657,36719 69659,36707 69662,36695 69666,36684 69671,36673 69678,36662 69685,36652 69694,36643 69703,36635 69713,36628 69724,36621 69735,36616 69746,36612 69758,36609 69770,36607 69783,36607 71818,36607 71830,36607 71842,36609 71854,36612 71866,36616 71877,36621 71887,36628 71897,36635 71906,36643 71915,36652 71922,36662 71928,36673 71933,36684 71938,36695 71940,36707 71942,36719 71943,36732 71943,38768 71942,38781 71940,38793 71938,38804 71933,38816 71928,38827 71922,38838 71915,38848 71906,38857 71897,38865 71887,38872 71877,38879 71866,38884 71854,38888 71842,38891 71830,38893 71818,38893 69783,38893 69770,38893 69758,38891 69746,38888 69735,38884 69724,38879 69713,38872 69703,38865 69694,38857 69685,38848 69678,38838 69671,38827 69666,38816 69662,38804 69659,38793 69657,38781 69657,38768 Z"/>
   </g>
  </g>
  <g class="com.sun.star.drawing.PolyPolygonShape">
   <g id="id6">
    <rect class="BoundingBox" stroke="none" fill="none" x="71409" y="37481" width="371" height="550"/>
    <path fill="rgb(255,255,255)" stroke="none" d="M 71410,37482 L 71410,37844 71411,37862 71413,37880 71418,37898 71424,37914 71432,37931 71441,37946 71452,37962 71464,37975 71477,37987 71491,37998 71507,38007 71523,38015 71540,38021 71558,38025 71576,38028 71593,38029 71612,38028 71629,38025 71647,38021 71664,38015 71680,38007 71695,37998 71710,37987 71723,37975 71735,37962 71746,37946 71756,37931 71764,37914 71770,37898 71775,37880 71777,37862 71778,37844 71778,37482 71679,37482 71679,37853 71679,37862 71677,37870 71675,37878 71672,37886 71669,37893 71665,37901 71659,37907 71654,37914 71648,37919 71641,37924 71634,37929 71626,37932 71618,37935 71610,37937 71602,37938 71593,37939 71585,37938 71577,37937 71569,37935 71561,37932 71553,37929 71546,37924 71539,37919 71533,37914 71527,37907 71522,37901 71518,37893 71515,37886 71512,37878 71510,37870 71509,37862 71508,37853 71508,37482 71410,37482 Z"/>
    <path fill="none" stroke="rgb(255,255,255)" d="M 71410,37482 L 71410,37844 71411,37862 71413,37880 71418,37898 71424,37914 71432,37931 71441,37946 71452,37962 71464,37975 71477,37987 71491,37998 71507,38007 71523,38015 71540,38021 71558,38025 71576,38028 71593,38029 71612,38028 71629,38025 71647,38021 71664,38015 71680,38007 71695,37998 71710,37987 71723,37975 71735,37962 71746,37946 71756,37931 71764,37914 71770,37898 71775,37880 71777,37862 71778,37844 71778,37482 71679,37482 71679,37853 71679,37862 71677,37870 71675,37878 71672,37886 71669,37893 71665,37901 71659,37907 71654,37914 71648,37919 71641,37924 71634,37929 71626,37932 71618,37935 71610,37937 71602,37938 71593,37939 71585,37938 71577,37937 71569,37935 71561,37932 71553,37929 71546,37924 71539,37919 71533,37914 71527,37907 71522,37901 71518,37893 71515,37886 71512,37878 71510,37870 71509,37862 71508,37853 71508,37482 71410,37482 Z"/>
   </g>
  </g>
  <g class="com.sun.star.drawing.PolyPolygonShape">
   <g id="id7">
    <rect class="BoundingBox" stroke="none" fill="none" x="70370" y="37570" width="57" height="361"/>
    <path fill="rgb(255,255,255)" stroke="none" d="M 70371,37571 L 70425,37571 70425,37929 70371,37929 70371,37571 Z"/>
    <path fill="none" stroke="rgb(255,255,255)" d="M 70371,37571 L 70425,37571 70425,37929 70371,37929 70371,37571 Z"/>
   </g>
  </g>
  <g class="com.sun.star.drawing.PolyPolygonShape">
   <g id="id8">
    <rect class="BoundingBox" stroke="none" fill="none" x="71409" y="38240" width="371" height="561"/>
    <path fill="rgb(255,255,255)" stroke="none" d="M 71410,38651 L 71410,38632 71508,38632 71508,38651 71509,38657 71510,38664 71513,38670 71516,38676 71521,38681 71526,38685 71532,38689 71538,38692 71552,38695 71565,38698 71579,38700 71593,38700 71608,38700 71622,38698 71636,38695 71649,38691 71655,38689 71661,38686 71666,38682 71670,38677 71673,38672 71676,38666 71678,38660 71679,38653 71679,38647 71678,38641 71676,38635 71673,38629 71669,38624 71665,38619 71660,38615 71654,38612 71501,38501 71492,38496 71483,38491 71475,38485 71467,38479 71460,38471 71453,38463 71447,38455 71442,38446 71437,38437 71433,38428 71429,38418 71427,38408 71425,38398 71424,38388 71424,38377 71424,38367 71426,38357 71428,38347 71431,38337 71434,38327 71439,38318 71444,38309 71449,38300 71456,38292 71463,38285 71470,38278 71478,38271 71487,38266 71496,38260 71505,38256 71515,38252 71525,38250 71542,38246 71559,38243 71576,38241 71593,38241 71611,38241 71628,38243 71645,38246 71662,38249 71673,38253 71683,38257 71693,38262 71703,38267 71712,38274 71720,38281 71728,38289 71735,38297 71741,38306 71747,38316 71753,38326 71757,38336 71760,38347 71762,38357 71764,38368 71764,38380 71665,38380 71665,38374 71663,38368 71661,38362 71658,38357 71653,38353 71649,38349 71644,38346 71638,38345 71616,38340 71593,38339 71571,38340 71549,38345 71544,38346 71539,38349 71534,38352 71531,38356 71527,38361 71525,38366 71523,38371 71522,38376 71522,38382 71523,38387 71524,38393 71527,38397 71530,38402 71534,38406 71538,38409 71543,38412 71696,38523 71705,38528 71714,38533 71723,38539 71731,38546 71738,38553 71745,38561 71753,38570 71758,38579 71764,38588 71768,38598 71771,38607 71774,38618 71776,38628 71778,38639 71778,38649 71778,38660 71777,38670 71775,38681 71772,38691 71769,38701 71765,38710 71760,38721 71754,38730 71747,38739 71740,38747 71733,38754 71725,38761 71717,38767 71708,38773 71699,38778 71689,38783 71679,38786 71658,38792 71637,38796 71615,38799 71593,38799 71572,38799 71550,38796 71529,38792 71508,38786 71498,38782 71487,38778 71478,38772 71469,38766 71460,38759 71452,38752 71444,38744 71437,38735 71431,38726 71425,38716 71421,38705 71417,38695 71414,38684 71412,38673 71410,38662 71410,38651 Z"/>
    <path fill="none" stroke="rgb(255,255,255)" d="M 71410,38651 L 71410,38632 71508,38632 71508,38651 71509,38657 71510,38664 71513,38670 71516,38676 71521,38681 71526,38685 71532,38689 71538,38692 71552,38695 71565,38698 71579,38700 71593,38700 71608,38700 71622,38698 71636,38695 71649,38691 71655,38689 71661,38686 71666,38682 71670,38677 71673,38672 71676,38666 71678,38660 71679,38653 71679,38647 71678,38641 71676,38635 71673,38629 71669,38624 71665,38619 71660,38615 71654,38612 71501,38501 71492,38496 71483,38491 71475,38485 71467,38479 71460,38471 71453,38463 71447,38455 71442,38446 71437,38437 71433,38428 71429,38418 71427,38408 71425,38398 71424,38388 71424,38377 71424,38367 71426,38357 71428,38347 71431,38337 71434,38327 71439,38318 71444,38309 71449,38300 71456,38292 71463,38285 71470,38278 71478,38271 71487,38266 71496,38260 71505,38256 71515,38252 71525,38250 71542,38246 71559,38243 71576,38241 71593,38241 71611,38241 71628,38243 71645,38246 71662,38249 71673,38253 71683,38257 71693,38262 71703,38267 71712,38274 71720,38281 71728,38289 71735,38297 71741,38306 71747,38316 71753,38326 71757,38336 71760,38347 71762,38357 71764,38368 71764,38380 71665,38380 71665,38374 71663,38368 71661,38362 71658,38357 71653,38353 71649,38349 71644,38346 71638,38345 71616,38340 71593,38339 71571,38340 71549,38345 71544,38346 71539,38349 71534,38352 71531,38356 71527,38361 71525,38366 71523,38371 71522,38376 71522,38382 71523,38387 71524,38393 71527,38397 71530,38402 71534,38406 71538,38409 71543,38412 71696,38523 71705,38528 71714,38533 71723,38539 71731,38546 71738,38553 71745,38561 71753,38570 71758,38579 71764,38588 71768,38598 71771,38607 71774,38618 71776,38628 71778,38639 71778,38649 71778,38660 71777,38670 71775,38681 71772,38691 71769,38701 71765,38710 71760,38721 71754,38730 71747,38739 71740,38747 71733,38754 71725,38761 71717,38767 71708,38773 71699,38778 71689,38783 71679,38786 71658,38792 71637,38796 71615,38799 71593,38799 71572,38799 71550,38796 71529,38792 71508,38786 71498,38782 71487,38778 71478,38772 71469,38766 71460,38759 71452,38752 71444,38744 71437,38735 71431,38726 71425,38716 71421,38705 71417,38695 71414,38684 71412,38673 71410,38662 71410,38651 Z"/>
   </g>
  </g>
  <g class="com.sun.star.drawing.PolyPolygonShape">
   <g id="id9">
    <rect class="BoundingBox" stroke="none" fill="none" x="70370" y="38427" width="57" height="361"/>
    <path fill="rgb(255,255,255)" stroke="none" d="M 70371,38428 L 70425,38428 70425,38786 70371,38786 70371,38428 Z"/>
    <path fill="none" stroke="rgb(255,255,255)" d="M 70371,38428 L 70425,38428 70425,38786 70371,38786 70371,38428 Z"/>
   </g>
  </g>
  <g class="com.sun.star.drawing.PolyPolygonShape">
   <g id="id10">
    <rect class="BoundingBox" stroke="none" fill="none" x="71138" y="38498" width="111" height="290"/>
    <path fill="rgb(255,255,255)" stroke="none" d="M 71139,38499 L 71247,38499 71247,38786 71139,38786 71139,38499 Z"/>
    <path fill="none" stroke="rgb(255,255,255)" d="M 71139,38499 L 71247,38499 71247,38786 71139,38786 71139,38499 Z"/>
   </g>
  </g>
  <g class="com.sun.star.drawing.PolyPolygonShape">
   <g id="id11">
    <rect class="BoundingBox" stroke="none" fill="none" x="71138" y="38052" width="111" height="290"/>
    <path fill="rgb(255,255,255)" stroke="none" d="M 71139,38053 L 71247,38053 71247,38340 71139,38340 71139,38053 Z"/>
    <path fill="none" stroke="rgb(255,255,255)" d="M 71139,38053 L 71247,38053 71247,38340 71139,38340 71139,38053 Z"/>
   </g>
  </g>
  <g class="com.sun.star.drawing.PolyPolygonShape">
   <g id="id12">
    <rect class="BoundingBox" stroke="none" fill="none" x="71138" y="37606" width="111" height="289"/>
    <path fill="rgb(255,255,255)" stroke="none" d="M 71139,37607 L 71247,37607 71247,37893 71139,37893 71139,37607 Z"/>
    <path fill="none" stroke="rgb(255,255,255)" d="M 71139,37607 L 71247,37607 71247,37893 71139,37893 71139,37607 Z"/>
   </g>
  </g>
  <g class="com.sun.star.drawing.PolyPolygonShape">
   <g id="id13">
    <rect class="BoundingBox" stroke="none" fill="none" x="71404" y="36713" width="382" height="540"/>
    <path fill="rgb(255,255,255)" stroke="none" d="M 71503,36928 L 71620,36928 71630,36927 71642,36924 71651,36919 71659,36912 71666,36904 71671,36895 71674,36885 71675,36874 71675,36857 71674,36846 71671,36836 71666,36827 71659,36819 71651,36812 71642,36807 71630,36804 71620,36803 71503,36803 71503,36928 Z M 71503,37160 L 71632,37160 71642,37159 71652,37156 71662,37151 71670,37145 71676,37136 71681,37127 71684,37117 71685,37107 71685,37071 71684,37060 71681,37050 71676,37041 71670,37033 71662,37026 71652,37021 71642,37018 71632,37017 71503,37017 71503,37160 Z M 71405,37251 L 71641,37251 71655,37250 71669,37248 71682,37244 71695,37240 71708,37234 71720,37226 71731,37218 71742,37209 71751,37198 71759,37187 71766,37174 71773,37161 71777,37148 71781,37134 71783,37121 71784,37107 71784,37071 71782,37055 71779,37039 71772,37024 71764,37010 71754,36997 71742,36986 71728,36977 71713,36970 71726,36963 71738,36954 71748,36943 71757,36931 71764,36918 71769,36904 71772,36889 71773,36874 71773,36857 71772,36843 71770,36829 71766,36815 71762,36802 71756,36789 71749,36777 71740,36766 71731,36756 71721,36746 71709,36738 71697,36731 71685,36725 71671,36720 71658,36717 71644,36714 71629,36714 71405,36714 71405,37251 Z"/>
    <path fill="none" stroke="rgb(255,255,255)" d="M 71503,36928 L 71620,36928 71630,36927 71642,36924 71651,36919 71659,36912 71666,36904 71671,36895 71674,36885 71675,36874 71675,36857 71674,36846 71671,36836 71666,36827 71659,36819 71651,36812 71642,36807 71630,36804 71620,36803 71503,36803 71503,36928 Z"/>
    <path fill="none" stroke="rgb(255,255,255)" d="M 71503,37160 L 71632,37160 71642,37159 71652,37156 71662,37151 71670,37145 71676,37136 71681,37127 71684,37117 71685,37107 71685,37071 71684,37060 71681,37050 71676,37041 71670,37033 71662,37026 71652,37021 71642,37018 71632,37017 71503,37017 71503,37160 Z"/>
    <path fill="none" stroke="rgb(255,255,255)" d="M 71405,37251 L 71641,37251 71655,37250 71669,37248 71682,37244 71695,37240 71708,37234 71720,37226 71731,37218 71742,37209 71751,37198 71759,37187 71766,37174 71773,37161 71777,37148 71781,37134 71783,37121 71784,37107 71784,37071 71782,37055 71779,37039 71772,37024 71764,37010 71754,36997 71742,36986 71728,36977 71713,36970 71726,36963 71738,36954 71748,36943 71757,36931 71764,36918 71769,36904 71772,36889 71773,36874 71773,36857 71772,36843 71770,36829 71766,36815 71762,36802 71756,36789 71749,36777 71740,36766 71731,36756 71721,36746 71709,36738 71697,36731 71685,36725 71671,36720 71658,36717 71644,36714 71629,36714 71405,36714 71405,37251 Z"/>
   </g>
  </g>
  <g class="com.sun.star.drawing.PolyPolygonShape">
   <g id="id14">
    <rect class="BoundingBox" stroke="none" fill="none" x="70370" y="36713" width="57" height="361"/>
    <path fill="rgb(255,255,255)" stroke="none" d="M 70371,36714 L 70425,36714 70425,37072 70371,37072 70371,36714 Z"/>
    <path fill="none" stroke="rgb(255,255,255)" d="M 70371,36714 L 70425,36714 70425,37072 70371,37072 70371,36714 Z"/>
   </g>
  </g>
  <g class="com.sun.star.drawing.PolyPolygonShape">
   <g id="id15">
    <rect class="BoundingBox" stroke="none" fill="none" x="71138" y="36713" width="111" height="290"/>
    <path fill="rgb(255,255,255)" stroke="none" d="M 71139,36714 L 71247,36714 71247,37001 71139,37001 71139,36714 Z"/>
    <path fill="none" stroke="rgb(255,255,255)" d="M 71139,36714 L 71247,36714 71247,37001 71139,37001 71139,36714 Z"/>
   </g>
  </g>
  <g class="com.sun.star.drawing.PolyPolygonShape">
   <g id="id16">
    <rect class="BoundingBox" stroke="none" fill="none" x="71138" y="37159" width="111" height="290"/>
    <path fill="rgb(255,255,255)" stroke="none" d="M 71139,37160 L 71247,37160 71247,37447 71139,37447 71139,37160 Z"/>
    <path fill="none" stroke="rgb(255,255,255)" d="M 71139,37160 L 71247,37160 71247,37447 71139,37447 71139,37160 Z"/>
   </g>
  </g>
  <g class="com.sun.star.drawing.PolyPolygonShape">
   <g id="id17">
    <rect class="BoundingBox" stroke="none" fill="none" x="71138" y="37159" width="111" height="290"/>
    <path fill="rgb(255,255,255)" stroke="none" d="M 71139,37160 L 71247,37160 71247,37447 71139,37447 71139,37160 Z"/>
    <path fill="none" stroke="rgb(255,255,255)" d="M 71139,37160 L 71247,37160 71247,37447 71139,37447 71139,37160 Z"/>
   </g>
  </g>
 </g>
</svg>