<?xml version="1.0" encoding="UTF-8"?>
<!DOCTYPE svg PUBLIC "-//W3C//DTD SVG 1.1//EN" "http://www.w3.org/Graphics/SVG/1.1/DTD/svg11.dtd">
<svg version="1.2" width="37.47mm" height="25.04mm" viewBox="72527 36498 3747 2504" preserveAspectRatio="xMidYMid" fill-rule="evenodd" stroke-width="28.222" stroke-linejoin="round" xmlns="http://www.w3.org/2000/svg" xmlns:ooo="http://xml.openoffice.org/svg/export" xmlns:xlink="http://www.w3.org/1999/xlink" xmlns:presentation="http://sun.com/xmlns/staroffice/presentation" xmlns:smil="http://www.w3.org/2001/SMIL20/" xmlns:anim="urn:oasis:names:tc:opendocument:xmlns:animation:1.0" xml:space="preserve">
 <defs class="EmbeddedBulletChars">
  <g id="bullet-char-template-57356" transform="scale(0.00048828125,-0.00048828125)">
   <path d="M 580,1141 L 1163,571 580,0 -4,571 580,1141 Z"/>
  </g>
  <g id="bullet-char-template-57354" transform="scale(0.00048828125,-0.00048828125)">
   <path d="M 8,1128 L 1137,1128 1137,0 8,0 8,1128 Z"/>
  </g>
  <g id="bullet-char-template-10146" transform="scale(0.00048828125,-0.00048828125)">
   <path d="M 174,0 L 602,739 174,1481 1456,739 174,0 Z M 1358,739 L 309,1346 659,739 1358,739 Z"/>
  </g>
  <g id="bullet-char-template-10132" transform="scale(0.00048828125,-0.00048828125)">
   <path d="M 2015,739 L 1276,0 717,0 1260,543 174,543 174,936 1260,936 717,1481 1274,1481 2015,739 Z"/>
  </g>
  <g id="bullet-char-template-10007" transform="scale(0.00048828125,-0.00048828125)">
   <path d="M 0,-2 C -7,14 -16,27 -25,37 L 356,567 C 262,823 215,952 215,954 215,979 228,992 255,992 264,992 276,990 289,987 310,991 331,999 354,1012 L 381,999 492,748 772,1049 836,1024 860,1049 C 881,1039 901,1025 922,1006 886,937 835,863 770,784 769,783 710,716 594,584 L 774,223 C 774,196 753,168 711,139 L 727,119 C 717,90 699,76 672,76 641,76 570,178 457,381 L 164,-76 C 142,-110 111,-127 72,-127 30,-127 9,-110 8,-76 1,-67 -2,-52 -2,-32 -2,-23 -1,-13 0,-2 Z"/>
  </g>
  <g id="bullet-char-template-10004" transform="scale(0.00048828125,-0.00048828125)">
   <path d="M 285,-33 C 182,-33 111,30 74,156 52,228 41,333 41,471 41,549 55,616 82,672 116,743 169,778 240,778 293,778 328,747 346,684 L 369,508 C 377,444 397,411 428,410 L 1163,1116 C 1174,1127 1196,1133 1229,1133 1271,1133 1292,1118 1292,1087 L 1292,965 C 1292,929 1282,901 1262,881 L 442,47 C 390,-6 338,-33 285,-33 Z"/>
  </g>
  <g id="bullet-char-template-9679" transform="scale(0.00048828125,-0.00048828125)">
   <path d="M 813,0 C 632,0 489,54 383,161 276,268 223,411 223,592 223,773 276,916 383,1023 489,1130 632,1184 813,1184 992,1184 1136,1130 1245,1023 1353,916 1407,772 1407,592 1407,412 1353,268 1245,161 1136,54 992,0 813,0 Z"/>
  </g>
  <g id="bullet-char-template-8226" transform="scale(0.00048828125,-0.00048828125)">
   <path d="M 346,457 C 273,457 209,483 155,535 101,586 74,649 74,723 74,796 101,859 155,911 209,963 273,989 346,989 419,989 480,963 531,910 582,859 608,796 608,723 608,648 583,586 532,535 482,483 420,457 346,457 Z"/>
  </g>
  <g id="bullet-char-template-8211" transform="scale(0.00048828125,-0.00048828125)">
   <path d="M -4,459 L 1135,459 1135,606 -4,606 -4,459 Z"/>
  </g>
  <g id="bullet-char-template-61548" transform="scale(0.00048828125,-0.00048828125)">
   <path d="M 173,740 C 173,903 231,1043 346,1159 462,1274 601,1332 765,1332 928,1332 1067,1274 1183,1159 1299,1043 1357,903 1357,740 1357,577 1299,437 1183,322 1067,206 928,148 765,148 601,148 462,206 346,322 231,437 173,577 173,740 Z"/>
  </g>
 </defs>
 <g class="Page">
  <g class="com.sun.star.drawing.PolyPolygonShape">
   <g id="id3">
    <rect class="BoundingBox" stroke="none" fill="none" x="72527" y="36498" width="3747" height="2504"/>
    <path fill="rgb(0,0,255)" stroke="none" d="M 72809,39000 L 75991,39000 76019,38999 76046,38995 76073,38988 76099,38979 76124,38967 76147,38953 76169,38936 76190,38918 76208,38897 76225,38875 76239,38852 76251,38827 76260,38801 76266,38774 76271,38747 76272,38718 76272,36780 76271,36753 76266,36726 76260,36699 76251,36673 76239,36648 76225,36624 76208,36602 76190,36582 76169,36563 76147,36547 76124,36533 76099,36521 76073,36511 76046,36505 76019,36501 75991,36499 72809,36499 72781,36501 72754,36505 72727,36511 72701,36521 72676,36533 72653,36547 72630,36563 72610,36582 72592,36602 72575,36624 72561,36648 72549,36673 72540,36699 72533,36726 72529,36753 72528,36780 72528,38718 72529,38747 72533,38774 72540,38801 72549,38827 72561,38852 72575,38875 72592,38897 72610,38918 72630,38936 72653,38953 72676,38967 72701,38979 72727,38988 72754,38995 72781,38999 72809,39000 Z"/>
    <path fill="none" stroke="rgb(0,0,255)" d="M 72809,39000 L 75991,39000 76019,38999 76046,38995 76073,38988 76099,38979 76124,38967 76147,38953 76169,38936 76190,38918 76208,38897 76225,38875 76239,38852 76251,38827 76260,38801 76266,38774 76271,38747 76272,38718 76272,36780 76271,36753 76266,36726 76260,36699 76251,36673 76239,36648 76225,36624 76208,36602 76190,36582 76169,36563 76147,36547 76124,36533 76099,36521 76073,36511 76046,36505 76019,36501 75991,36499 72809,36499 72781,36501 72754,36505 72727,36511 72701,36521 72676,36533 72653,36547 72630,36563 72610,36582 72592,36602 72575,36624 72561,36648 72549,36673 72540,36699 72533,36726 72529,36753 72528,36780 72528,38718 72529,38747 72533,38774 72540,38801 72549,38827 72561,38852 72575,38875 72592,38897 72610,38918 72630,38936 72653,38953 72676,38967 72701,38979 72727,38988 72754,38995 72781,38999 72809,39000 Z"/>
   </g>
  </g>
  <g class="com.sun.star.drawing.PolyPolygonShape">
   <g id="id4">
    <rect class="BoundingBox" stroke="none" fill="none" x="72620" y="36592" width="3560" height="2317"/>
    <path fill="rgb(255,255,255)" stroke="none" d="M 72809,38907 L 75991,38907 76009,38906 76028,38903 76046,38898 76063,38892 76079,38884 76095,38875 76110,38864 76124,38852 76136,38838 76147,38823 76156,38807 76164,38791 76170,38774 76175,38756 76178,38737 76178,38719 76178,36781 76178,36762 76175,36744 76170,36726 76164,36709 76156,36692 76147,36677 76136,36662 76124,36648 76110,36636 76095,36625 76079,36615 76063,36607 76046,36601 76028,36597 76009,36594 75991,36593 72809,36593 72790,36594 72772,36597 72754,36601 72737,36607 72720,36615 72705,36625 72690,36636 72676,36648 72664,36662 72653,36677 72643,36692 72636,36709 72630,36726 72625,36744 72622,36762 72621,36781 72621,38719 72622,38737 72625,38756 72630,38774 72636,38791 72643,38807 72653,38823 72664,38838 72676,38852 72690,38864 72705,38875 72720,38884 72737,38892 72754,38898 72772,38903 72790,38906 72809,38907 Z"/>
    <path fill="none" stroke="rgb(255,255,255)" d="M 72809,38907 L 75991,38907 76009,38906 76028,38903 76046,38898 76063,38892 76079,38884 76095,38875 76110,38864 76124,38852 76136,38838 76147,38823 76156,38807 76164,38791 76170,38774 76175,38756 76178,38737 76178,38719 76178,36781 76178,36762 76175,36744 76170,36726 76164,36709 76156,36692 76147,36677 76136,36662 76124,36648 76110,36636 76095,36625 76079,36615 76063,36607 76046,36601 76028,36597 76009,36594 75991,36593 72809,36593 72790,36594 72772,36597 72754,36601 72737,36607 72720,36615 72705,36625 72690,36636 72676,36648 72664,36662 72653,36677 72643,36692 72636,36709 72630,36726 72625,36744 72622,36762 72621,36781 72621,38719 72622,38737 72625,38756 72630,38774 72636,38791 72643,38807 72653,38823 72664,38838 72676,38852 72690,38864 72705,38875 72720,38884 72737,38892 72754,38898 72772,38903 72790,38906 72809,38907 Z"/>
   </g>
  </g>
  <g class="com.sun.star.drawing.PolyPolygonShape">
   <g id="id5">
    <rect class="BoundingBox" stroke="none" fill="none" x="72714" y="36686" width="3373" height="2129"/>
    <path fill="rgb(0,0,255)" stroke="none" d="M 72809,38813 L 75991,38813 76009,38811 76027,38806 76043,38797 76057,38785 76069,38771 76078,38755 76083,38737 76085,38719 76085,36781 76083,36762 76078,36745 76069,36729 76057,36714 76043,36703 76027,36694 76009,36689 75991,36687 72809,36687 72790,36689 72773,36694 72757,36703 72742,36714 72731,36729 72722,36745 72717,36762 72715,36781 72715,38719 72717,38737 72722,38755 72731,38771 72742,38785 72757,38797 72773,38806 72790,38811 72809,38813 Z"/>
    <path fill="none" stroke="rgb(0,0,255)" d="M 72809,38813 L 75991,38813 76009,38811 76027,38806 76043,38797 76057,38785 76069,38771 76078,38755 76083,38737 76085,38719 76085,36781 76083,36762 76078,36745 76069,36729 76057,36714 76043,36703 76027,36694 76009,36689 75991,36687 72809,36687 72790,36689 72773,36694 72757,36703 72742,36714 72731,36729 72722,36745 72717,36762 72715,36781 72715,38719 72717,38737 72722,38755 72731,38771 72742,38785 72757,38797 72773,38806 72790,38811 72809,38813 Z"/>
   </g>
  </g>
  <g class="com.sun.star.drawing.PolyPolygonShape">
   <g id="id6">
    <rect class="BoundingBox" stroke="none" fill="none" x="73463" y="36779" width="97" height="1942"/>
    <path fill="rgb(255,255,255)" stroke="none" d="M 73464,36780 L 73558,36780 73558,38719 73464,38719 73464,36780 Z"/>
    <path fill="none" stroke="rgb(255,255,255)" d="M 73464,36780 L 73558,36780 73558,38719 73464,38719 73464,36780 Z"/>
   </g>
  </g>
  <g class="com.sun.star.drawing.PolyPolygonShape">
   <g id="id7">
    <rect class="BoundingBox" stroke="none" fill="none" x="75241" y="36779" width="97" height="1942"/>
    <path fill="rgb(255,255,255)" stroke="none" d="M 75242,36780 L 75336,36780 75336,38719 75242,38719 75242,36780 Z"/>
    <path fill="none" stroke="rgb(255,255,255)" d="M 75242,36780 L 75336,36780 75336,38719 75242,38719 75242,36780 Z"/>
   </g>
  </g>
  <g class="com.sun.star.drawing.PolyPolygonShape">
   <g id="id8">
    <rect class="BoundingBox" stroke="none" fill="none" x="73917" y="37033" width="299" height="422"/>
    <path fill="rgb(255,255,255)" stroke="none" d="M 73995,37201 L 74086,37201 74095,37201 74102,37198 74110,37194 74116,37189 74121,37183 74125,37175 74127,37168 74128,37159 74128,37145 74127,37137 74125,37129 74121,37122 74116,37116 74110,37111 74102,37107 74095,37104 74086,37104 73995,37104 73995,37201 Z M 73995,37383 L 74095,37383 74103,37382 74111,37380 74118,37376 74124,37370 74130,37364 74133,37357 74136,37349 74136,37341 74136,37313 74136,37305 74133,37297 74130,37290 74124,37283 74118,37278 74111,37274 74103,37272 74095,37271 73995,37271 73995,37383 Z M 73918,37453 L 74102,37453 74123,37451 74144,37445 74164,37435 74181,37421 74195,37403 74206,37383 74212,37363 74214,37341 74214,37313 74213,37300 74210,37288 74206,37276 74199,37265 74190,37255 74181,37247 74170,37240 74158,37234 74168,37228 74178,37221 74186,37213 74192,37204 74199,37193 74203,37182 74205,37171 74206,37159 74206,37145 74204,37124 74197,37103 74186,37083 74172,37067 74155,37053 74136,37042 74115,37036 74093,37034 73918,37034 73918,37453 Z"/>
    <path fill="none" stroke="rgb(255,255,255)" d="M 73995,37201 L 74086,37201 74095,37201 74102,37198 74110,37194 74116,37189 74121,37183 74125,37175 74127,37168 74128,37159 74128,37145 74127,37137 74125,37129 74121,37122 74116,37116 74110,37111 74102,37107 74095,37104 74086,37104 73995,37104 73995,37201 Z"/>
    <path fill="none" stroke="rgb(255,255,255)" d="M 73995,37383 L 74095,37383 74103,37382 74111,37380 74118,37376 74124,37370 74130,37364 74133,37357 74136,37349 74136,37341 74136,37313 74136,37305 74133,37297 74130,37290 74124,37283 74118,37278 74111,37274 74103,37272 74095,37271 73995,37271 73995,37383 Z"/>
    <path fill="none" stroke="rgb(255,255,255)" d="M 73918,37453 L 74102,37453 74123,37451 74144,37445 74164,37435 74181,37421 74195,37403 74206,37383 74212,37363 74214,37341 74214,37313 74213,37300 74210,37288 74206,37276 74199,37265 74190,37255 74181,37247 74170,37240 74158,37234 74168,37228 74178,37221 74186,37213 74192,37204 74199,37193 74203,37182 74205,37171 74206,37159 74206,37145 74204,37124 74197,37103 74186,37083 74172,37067 74155,37053 74136,37042 74115,37036 74093,37034 73918,37034 73918,37453 Z"/>
   </g>
  </g>
  <g class="com.sun.star.drawing.PolyPolygonShape">
   <g id="id9">
    <rect class="BoundingBox" stroke="none" fill="none" x="73921" y="37539" width="291" height="431"/>
    <path fill="rgb(255,255,255)" stroke="none" d="M 73922,37540 L 73922,37825 73923,37839 73925,37853 73928,37866 73934,37880 73940,37892 73947,37904 73956,37916 73965,37926 73976,37935 73987,37944 73999,37951 74012,37957 74025,37962 74039,37965 74053,37967 74067,37968 74081,37967 74095,37965 74108,37962 74121,37957 74134,37951 74146,37944 74158,37935 74168,37926 74177,37916 74186,37904 74193,37892 74199,37880 74204,37866 74207,37853 74209,37839 74210,37825 74210,37540 74133,37540 74133,37831 74132,37845 74128,37857 74122,37869 74114,37879 74104,37887 74092,37893 74080,37897 74067,37898 74053,37897 74041,37893 74030,37887 74019,37879 74011,37869 74005,37857 74001,37845 74000,37831 74000,37540 73922,37540 Z"/>
    <path fill="none" stroke="rgb(255,255,255)" d="M 73922,37540 L 73922,37825 73923,37839 73925,37853 73928,37866 73934,37880 73940,37892 73947,37904 73956,37916 73965,37926 73976,37935 73987,37944 73999,37951 74012,37957 74025,37962 74039,37965 74053,37967 74067,37968 74081,37967 74095,37965 74108,37962 74121,37957 74134,37951 74146,37944 74158,37935 74168,37926 74177,37916 74186,37904 74193,37892 74199,37880 74204,37866 74207,37853 74209,37839 74210,37825 74210,37540 74133,37540 74133,37831 74132,37845 74128,37857 74122,37869 74114,37879 74104,37887 74092,37893 74080,37897 74067,37898 74053,37897 74041,37893 74030,37887 74019,37879 74011,37869 74005,37857 74001,37845 74000,37831 74000,37540 73922,37540 Z"/>
   </g>
  </g>
  <g class="com.sun.star.drawing.PolyPolygonShape">
   <g id="id10">
    <rect class="BoundingBox" stroke="none" fill="none" x="73921" y="38038" width="291" height="440"/>
    <path fill="rgb(255,255,255)" stroke="none" d="M 73922,38361 L 73922,38346 74000,38346 74000,38361 74002,38371 74006,38381 74014,38388 74023,38393 74045,38398 74067,38400 74088,38398 74110,38393 74119,38388 74126,38382 74131,38373 74133,38363 74132,38353 74128,38344 74122,38336 74114,38331 73995,38244 73981,38236 73968,38226 73957,38214 73948,38201 73941,38187 73936,38171 73934,38155 73935,38139 73937,38123 73942,38108 73950,38094 73959,38081 73971,38069 73984,38059 73998,38052 74013,38046 74040,38041 74067,38039 74094,38041 74120,38046 74137,38052 74152,38060 74166,38072 74177,38084 74187,38099 74193,38115 74198,38132 74199,38149 74123,38149 74121,38140 74117,38132 74110,38125 74101,38122 74084,38118 74067,38117 74049,38118 74032,38122 74024,38125 74018,38131 74013,38138 74011,38146 74011,38155 74015,38163 74020,38170 74027,38174 74146,38261 74161,38269 74174,38279 74185,38291 74195,38305 74202,38320 74207,38335 74210,38351 74210,38368 74207,38384 74203,38400 74196,38415 74187,38429 74176,38441 74163,38451 74149,38460 74133,38466 74117,38470 74100,38474 74083,38476 74067,38476 74050,38476 74033,38474 74016,38470 74000,38466 73984,38459 73969,38451 73956,38439 73944,38426 73935,38411 73928,38395 73924,38378 73922,38361 Z"/>
    <path fill="none" stroke="rgb(255,255,255)" d="M 73922,38361 L 73922,38346 74000,38346 74000,38361 74002,38371 74006,38381 74014,38388 74023,38393 74045,38398 74067,38400 74088,38398 74110,38393 74119,38388 74126,38382 74131,38373 74133,38363 74132,38353 74128,38344 74122,38336 74114,38331 73995,38244 73981,38236 73968,38226 73957,38214 73948,38201 73941,38187 73936,38171 73934,38155 73935,38139 73937,38123 73942,38108 73950,38094 73959,38081 73971,38069 73984,38059 73998,38052 74013,38046 74040,38041 74067,38039 74094,38041 74120,38046 74137,38052 74152,38060 74166,38072 74177,38084 74187,38099 74193,38115 74198,38132 74199,38149 74123,38149 74121,38140 74117,38132 74110,38125 74101,38122 74084,38118 74067,38117 74049,38118 74032,38122 74024,38125 74018,38131 74013,38138 74011,38146 74011,38155 74015,38163 74020,38170 74027,38174 74146,38261 74161,38269 74174,38279 74185,38291 74195,38305 74202,38320 74207,38335 74210,38351 74210,38368 74207,38384 74203,38400 74196,38415 74187,38429 74176,38441 74163,38451 74149,38460 74133,38466 74117,38470 74100,38474 74083,38476 74067,38476 74050,38476 74033,38474 74016,38470 74000,38466 73984,38459 73969,38451 73956,38439 73944,38426 73935,38411 73928,38395 73924,38378 73922,38361 Z"/>
   </g>
  </g>
  <g class="com.sun.star.drawing.PolyPolygonShape">
   <g id="id11">
    <rect class="BoundingBox" stroke="none" fill="none" x="74589" y="36780" width="291" height="422"/>
    <path fill="rgb(255,255,255)" stroke="none" d="M 74695,37200 L 74772,37200 74772,36850 74878,36850 74878,36781 74590,36781 74590,36850 74695,36850 74695,37200 Z"/>
    <path fill="none" stroke="rgb(255,255,255)" d="M 74695,37200 L 74772,37200 74772,36850 74878,36850 74878,36781 74590,36781 74590,36850 74695,36850 74695,37200 Z"/>
   </g>
  </g>
  <g class="com.sun.star.drawing.PolyPolygonShape">
   <g id="id12">
    <rect class="BoundingBox" stroke="none" fill="none" x="74577" y="37286" width="315" height="423"/>
    <path fill="rgb(255,255,255)" stroke="none" d="M 74655,37455 L 74747,37455 74755,37455 74763,37452 74770,37448 74776,37443 74781,37437 74785,37430 74788,37422 74788,37414 74788,37399 74788,37390 74785,37383 74781,37375 74776,37369 74770,37364 74763,37360 74755,37357 74747,37357 74655,37357 74655,37455 Z M 74578,37707 L 74655,37707 74655,37525 74695,37525 74800,37707 74890,37707 74782,37521 74799,37515 74815,37507 74829,37495 74842,37482 74852,37466 74859,37450 74864,37432 74866,37414 74866,37399 74863,37377 74856,37356 74846,37337 74832,37320 74816,37306 74796,37295 74775,37289 74754,37287 74578,37287 74578,37707 Z"/>
    <path fill="none" stroke="rgb(255,255,255)" d="M 74655,37455 L 74747,37455 74755,37455 74763,37452 74770,37448 74776,37443 74781,37437 74785,37430 74788,37422 74788,37414 74788,37399 74788,37390 74785,37383 74781,37375 74776,37369 74770,37364 74763,37360 74755,37357 74747,37357 74655,37357 74655,37455 Z"/>
    <path fill="none" stroke="rgb(255,255,255)" d="M 74578,37707 L 74655,37707 74655,37525 74695,37525 74800,37707 74890,37707 74782,37521 74799,37515 74815,37507 74829,37495 74842,37482 74852,37466 74859,37450 74864,37432 74866,37414 74866,37399 74863,37377 74856,37356 74846,37337 74832,37320 74816,37306 74796,37295 74775,37289 74754,37287 74578,37287 74578,37707 Z"/>
   </g>
  </g>
  <g class="com.sun.star.drawing.PolyPolygonShape">
   <g id="id13">
    <rect class="BoundingBox" stroke="none" fill="none" x="74565" y="37792" width="339" height="423"/>
    <path fill="rgb(255,255,255)" stroke="none" d="M 74685,38083 L 74784,38083 74735,37914 74685,38083 Z M 74566,38213 L 74646,38213 74665,38153 74804,38153 74822,38213 74902,38213 74780,37793 74690,37793 74566,38213 Z"/>
    <path fill="none" stroke="rgb(255,255,255)" d="M 74685,38083 L 74784,38083 74735,37914 74685,38083 Z"/>
    <path fill="none" stroke="rgb(255,255,255)" d="M 74566,38213 L 74646,38213 74665,38153 74804,38153 74822,38213 74902,38213 74780,37793 74690,37793 74566,38213 Z"/>
   </g>
  </g>
  <g class="com.sun.star.drawing.PolyPolygonShape">
   <g id="id14">
    <rect class="BoundingBox" stroke="none" fill="none" x="74551" y="38298" width="367" height="423"/>
    <path fill="rgb(255,255,255)" stroke="none" d="M 74552,38719 L 74623,38719 74623,38463 74697,38719 74770,38719 74840,38479 74840,38719 74916,38719 74916,38299 74827,38299 74735,38614 74643,38299 74552,38299 74552,38719 Z"/>
    <path fill="none" stroke="rgb(255,255,255)" d="M 74552,38719 L 74623,38719 74623,38463 74697,38719 74770,38719 74840,38479 74840,38719 74916,38719 74916,38299 74827,38299 74735,38614 74643,38299 74552,38299 74552,38719 Z"/>
   </g>
  </g>
  <g class="com.sun.star.drawing.PolyPolygonShape">
   <g id="id15">
    <rect class="BoundingBox" stroke="none" fill="none" x="72948" y="37311" width="285" height="879"/>
    <path fill="rgb(255,255,255)" stroke="none" d="M 72949,37953 L 73089,38188 73231,37953 73136,37953 73136,37312 73043,37312 73043,37953 72949,37953 Z"/>
    <path fill="none" stroke="rgb(255,255,255)" d="M 72949,37953 L 73089,38188 73231,37953 73136,37953 73136,37312 73043,37312 73043,37953 72949,37953 Z"/>
   </g>
  </g>
  <g class="com.sun.star.drawing.PolyPolygonShape">
   <g id="id16">
    <rect class="BoundingBox" stroke="none" fill="none" x="75568" y="37311" width="285" height="879"/>
    <path fill="rgb(255,255,255)" stroke="none" d="M 75851,37546 L 75710,37312 75569,37546 75663,37546 75663,38188 75757,38188 75757,37546 75851,37546 Z"/>
    <path fill="none" stroke="rgb(255,255,255)" d="M 75851,37546 L 75710,37312 75569,37546 75663,37546 75663,38188 75757,38188 75757,37546 75851,37546 Z"/>
   </g>
  </g>
  <g class="com.sun.star.drawing.PolyPolygonShape">
   <g id="id17">
    <rect class="BoundingBox" stroke="none" fill="none" x="75568" y="37311" width="285" height="879"/>
    <path fill="rgb(255,255,255)" stroke="none" d="M 75851,37546 L 75710,37312 75569,37546 75663,37546 75663,38188 75757,38188 75757,37546 75851,37546 Z"/>
    <path fill="none" stroke="rgb(255,255,255)" d="M 75851,37546 L 75710,37312 75569,37546 75663,37546 75663,38188 75757,38188 75757,37546 75851,37546 Z"/>
   </g>
  </g>
 </g>
</svg>