<?xml version="1.0" encoding="UTF-8"?>
<!DOCTYPE svg PUBLIC "-//W3C//DTD SVG 1.1//EN" "http://www.w3.org/Graphics/SVG/1.1/DTD/svg11.dtd">
<svg version="1.2" width="25.04mm" height="25.04mm" viewBox="76748 36498 2504 2504" preserveAspectRatio="xMidYMid" fill-rule="evenodd" stroke-width="28.222" stroke-linejoin="round" xmlns="http://www.w3.org/2000/svg" xmlns:ooo="http://xml.openoffice.org/svg/export" xmlns:xlink="http://www.w3.org/1999/xlink" xmlns:presentation="http://sun.com/xmlns/staroffice/presentation" xmlns:smil="http://www.w3.org/2001/SMIL20/" xmlns:anim="urn:oasis:names:tc:opendocument:xmlns:animation:1.0" xml:space="preserve">
 <defs class="EmbeddedBulletChars">
  <g id="bullet-char-template-57356" transform="scale(0.00048828125,-0.00048828125)">
   <path d="M 580,1141 L 1163,571 580,0 -4,571 580,1141 Z"/>
  </g>
  <g id="bullet-char-template-57354" transform="scale(0.00048828125,-0.00048828125)">
   <path d="M 8,1128 L 1137,1128 1137,0 8,0 8,1128 Z"/>
  </g>
  <g id="bullet-char-template-10146" transform="scale(0.00048828125,-0.00048828125)">
   <path d="M 174,0 L 602,739 174,1481 1456,739 174,0 Z M 1358,739 L 309,1346 659,739 1358,739 Z"/>
  </g>
  <g id="bullet-char-template-10132" transform="scale(0.00048828125,-0.00048828125)">
   <path d="M 2015,739 L 1276,0 717,0 1260,543 174,543 174,936 1260,936 717,1481 1274,1481 2015,739 Z"/>
  </g>
  <g id="bullet-char-template-10007" transform="scale(0.00048828125,-0.00048828125)">
   <path d="M 0,-2 C -7,14 -16,27 -25,37 L 356,567 C 262,823 215,952 215,954 215,979 228,992 255,992 264,992 276,990 289,987 310,991 331,999 354,1012 L 381,999 492,748 772,1049 836,1024 860,1049 C 881,1039 901,1025 922,1006 886,937 835,863 770,784 769,783 710,716 594,584 L 774,223 C 774,196 753,168 711,139 L 727,119 C 717,90 699,76 672,76 641,76 570,178 457,381 L 164,-76 C 142,-110 111,-127 72,-127 30,-127 9,-110 8,-76 1,-67 -2,-52 -2,-32 -2,-23 -1,-13 0,-2 Z"/>
  </g>
  <g id="bullet-char-template-10004" transform="scale(0.00048828125,-0.00048828125)">
   <path d="M 285,-33 C 182,-33 111,30 74,156 52,228 41,333 41,471 41,549 55,616 82,672 116,743 169,778 240,778 293,778 328,747 346,684 L 369,508 C 377,444 397,411 428,410 L 1163,1116 C 1174,1127 1196,1133 1229,1133 1271,1133 1292,1118 1292,1087 L 1292,965 C 1292,929 1282,901 1262,881 L 442,47 C 390,-6 338,-33 285,-33 Z"/>
  </g>
  <g id="bullet-char-template-9679" transform="scale(0.00048828125,-0.00048828125)">
   <path d="M 813,0 C 632,0 489,54 383,161 276,268 223,411 223,592 223,773 276,916 383,1023 489,1130 632,1184 813,1184 992,1184 1136,1130 1245,1023 1353,916 1407,772 1407,592 1407,412 1353,268 1245,161 1136,54 992,0 813,0 Z"/>
  </g>
  <g id="bullet-char-template-8226" transform="scale(0.00048828125,-0.00048828125)">
   <path d="M 346,457 C 273,457 209,483 155,535 101,586 74,649 74,723 74,796 101,859 155,911 209,963 273,989 346,989 419,989 480,963 531,910 582,859 608,796 608,723 608,648 583,586 532,535 482,483 420,457 346,457 Z"/>
  </g>
  <g id="bullet-char-template-8211" transform="scale(0.00048828125,-0.00048828125)">
   <path d="M -4,459 L 1135,459 1135,606 -4,606 -4,459 Z"/>
  </g>
  <g id="bullet-char-template-61548" transform="scale(0.00048828125,-0.00048828125)">
   <path d="M 173,740 C 173,903 231,1043 346,1159 462,1274 601,1332 765,1332 928,1332 1067,1274 1183,1159 1299,1043 1357,903 1357,740 1357,577 1299,437 1183,322 1067,206 928,148 765,148 601,148 462,206 346,322 231,437 173,577 173,740 Z"/>
  </g>
 </defs>
 <g class="Page">
  <g class="com.sun.star.drawing.PolyPolygonShape">
   <g id="id3">
    <rect class="BoundingBox" stroke="none" fill="none" x="76748" y="36498" width="2504" height="2504"/>
    <path fill="rgb(0,0,255)" stroke="none" d="M 76749,38820 L 76749,36680 76750,36662 76753,36645 76757,36628 76763,36611 76771,36595 76780,36580 76790,36565 76802,36552 76815,36540 76830,36530 76845,36521 76861,36513 76878,36507 76895,36503 76912,36500 76930,36499 79070,36499 79087,36500 79105,36503 79122,36507 79139,36513 79155,36521 79170,36530 79184,36540 79197,36552 79209,36565 79220,36580 79229,36595 79236,36611 79242,36628 79247,36645 79249,36662 79250,36680 79250,38820 79249,38837 79247,38855 79242,38872 79236,38889 79229,38905 79220,38920 79209,38934 79197,38948 79184,38959 79170,38970 79155,38979 79139,38987 79122,38993 79105,38997 79087,38999 79070,39000 76930,39000 76912,38999 76895,38997 76878,38993 76861,38987 76845,38979 76830,38970 76815,38959 76802,38948 76790,38934 76780,38920 76771,38905 76763,38889 76757,38872 76753,38855 76750,38837 76749,38820 Z"/>
    <path fill="none" stroke="rgb(0,0,255)" d="M 76749,38820 L 76749,36680 76750,36662 76753,36645 76757,36628 76763,36611 76771,36595 76780,36580 76790,36565 76802,36552 76815,36540 76830,36530 76845,36521 76861,36513 76878,36507 76895,36503 76912,36500 76930,36499 79070,36499 79087,36500 79105,36503 79122,36507 79139,36513 79155,36521 79170,36530 79184,36540 79197,36552 79209,36565 79220,36580 79229,36595 79236,36611 79242,36628 79247,36645 79249,36662 79250,36680 79250,38820 79249,38837 79247,38855 79242,38872 79236,38889 79229,38905 79220,38920 79209,38934 79197,38948 79184,38959 79170,38970 79155,38979 79139,38987 79122,38993 79105,38997 79087,38999 79070,39000 76930,39000 76912,38999 76895,38997 76878,38993 76861,38987 76845,38979 76830,38970 76815,38959 76802,38948 76790,38934 76780,38920 76771,38905 76763,38889 76757,38872 76753,38855 76750,38837 76749,38820 Z"/>
   </g>
  </g>
  <g class="com.sun.star.drawing.PolyPolygonShape">
   <g id="id4">
    <rect class="BoundingBox" stroke="none" fill="none" x="76790" y="36540" width="2421" height="2421"/>
    <path fill="rgb(255,255,255)" stroke="none" d="M 76791,38820 L 76791,36680 76792,36666 76794,36653 76797,36640 76802,36627 76807,36615 76815,36603 76823,36592 76832,36582 76842,36573 76853,36565 76865,36558 76877,36552 76890,36547 76903,36544 76916,36542 76930,36541 79070,36541 79083,36542 79097,36544 79110,36547 79123,36552 79135,36558 79147,36565 79158,36573 79168,36582 79177,36592 79185,36603 79192,36615 79198,36627 79203,36640 79206,36653 79208,36666 79209,36680 79209,38820 79208,38834 79206,38847 79203,38860 79198,38873 79192,38885 79185,38897 79177,38908 79168,38918 79158,38927 79147,38935 79135,38942 79123,38948 79110,38953 79097,38956 79083,38958 79070,38959 76930,38959 76916,38958 76903,38956 76890,38953 76877,38948 76865,38942 76853,38935 76842,38927 76832,38918 76823,38908 76815,38897 76807,38885 76802,38873 76797,38860 76794,38847 76792,38834 76791,38820 Z"/>
    <path fill="none" stroke="rgb(255,255,255)" d="M 76791,38820 L 76791,36680 76792,36666 76794,36653 76797,36640 76802,36627 76807,36615 76815,36603 76823,36592 76832,36582 76842,36573 76853,36565 76865,36558 76877,36552 76890,36547 76903,36544 76916,36542 76930,36541 79070,36541 79083,36542 79097,36544 79110,36547 79123,36552 79135,36558 79147,36565 79158,36573 79168,36582 79177,36592 79185,36603 79192,36615 79198,36627 79203,36640 79206,36653 79208,36666 79209,36680 79209,38820 79208,38834 79206,38847 79203,38860 79198,38873 79192,38885 79185,38897 79177,38908 79168,38918 79158,38927 79147,38935 79135,38942 79123,38948 79110,38953 79097,38956 79083,38958 79070,38959 76930,38959 76916,38958 76903,38956 76890,38953 76877,38948 76865,38942 76853,38935 76842,38927 76832,38918 76823,38908 76815,38897 76807,38885 76802,38873 76797,38860 76794,38847 76792,38834 76791,38820 Z"/>
   </g>
  </g>
  <g class="com.sun.star.drawing.PolyPolygonShape">
   <g id="id5">
    <rect class="BoundingBox" stroke="none" fill="none" x="76832" y="36582" width="2337" height="2337"/>
    <path fill="rgb(0,0,255)" stroke="none" d="M 76833,38820 L 76833,36680 76833,36670 76835,36661 76837,36652 76840,36643 76844,36634 76849,36626 76855,36618 76861,36611 76868,36605 76876,36599 76884,36594 76893,36590 76902,36587 76911,36585 76920,36583 76930,36583 79070,36583 79079,36583 79089,36585 79098,36587 79107,36590 79116,36594 79124,36599 79131,36605 79138,36611 79145,36618 79151,36626 79155,36634 79159,36643 79163,36652 79165,36661 79166,36670 79167,36680 79167,38820 79166,38829 79165,38839 79163,38848 79159,38857 79155,38866 79151,38874 79145,38881 79138,38889 79131,38895 79124,38901 79116,38906 79107,38910 79098,38913 79089,38915 79079,38917 79070,38917 76930,38917 76920,38917 76911,38915 76902,38913 76893,38910 76884,38906 76876,38901 76868,38895 76861,38889 76855,38881 76849,38874 76844,38866 76840,38857 76837,38848 76835,38839 76833,38829 76833,38820 Z"/>
    <path fill="none" stroke="rgb(0,0,255)" d="M 76833,38820 L 76833,36680 76833,36670 76835,36661 76837,36652 76840,36643 76844,36634 76849,36626 76855,36618 76861,36611 76868,36605 76876,36599 76884,36594 76893,36590 76902,36587 76911,36585 76920,36583 76930,36583 79070,36583 79079,36583 79089,36585 79098,36587 79107,36590 79116,36594 79124,36599 79131,36605 79138,36611 79145,36618 79151,36626 79155,36634 79159,36643 79163,36652 79165,36661 79166,36670 79167,36680 79167,38820 79166,38829 79165,38839 79163,38848 79159,38857 79155,38866 79151,38874 79145,38881 79138,38889 79131,38895 79124,38901 79116,38906 79107,38910 79098,38913 79089,38915 79079,38917 79070,38917 76930,38917 76920,38917 76911,38915 76902,38913 76893,38910 76884,38906 76876,38901 76868,38895 76861,38889 76855,38881 76849,38874 76844,38866 76840,38857 76837,38848 76835,38839 76833,38829 76833,38820 Z"/>
   </g>
  </g>
  <g class="com.sun.star.drawing.PolyPolygonShape">
   <g id="id6">
    <rect class="BoundingBox" stroke="none" fill="none" x="77465" y="36801" width="1071" height="1899"/>
    <path fill="rgb(255,255,255)" stroke="none" d="M 77466,37337 L 77999,36802 78534,37337 78177,37337 78177,38698 77822,38698 77822,37337 77466,37337 Z"/>
    <path fill="none" stroke="rgb(255,255,255)" d="M 77466,37337 L 77999,36802 78534,37337 78177,37337 78177,38698 77822,38698 77822,37337 77466,37337 Z"/>
   </g>
  </g>
  <g class="com.sun.star.drawing.PolyPolygonShape">
   <g id="id7">
    <rect class="BoundingBox" stroke="none" fill="none" x="77465" y="36801" width="1071" height="1899"/>
    <path fill="rgb(255,255,255)" stroke="none" d="M 77466,37337 L 77999,36802 78534,37337 78177,37337 78177,38698 77822,38698 77822,37337 77466,37337 Z"/>
    <path fill="none" stroke="rgb(255,255,255)" d="M 77466,37337 L 77999,36802 78534,37337 78177,37337 78177,38698 77822,38698 77822,37337 77466,37337 Z"/>
   </g>
  </g>
 </g>
</svg>