<?xml version="1.0" encoding="utf-8"?>
<!-- Generator: Adobe Illustrator 14.0.0, SVG Export Plug-In . SVG Version: 6.00 Build 43363)  -->
<!DOCTYPE svg PUBLIC "-//W3C//DTD SVG 1.1//EN" "http://www.w3.org/Graphics/SVG/1.1/DTD/svg11.dtd">
<svg version="1.1"
	 id="svg2" inkscape:version="0.47 r22583" sodipodi:docname="Nouveau document 1" xmlns:dc="http://purl.org/dc/elements/1.1/" xmlns:cc="http://creativecommons.org/ns#" xmlns:rdf="http://www.w3.org/1999/02/22-rdf-syntax-ns#" xmlns:svg="http://www.w3.org/2000/svg" xmlns:sodipodi="http://sodipodi.sourceforge.net/DTD/sodipodi-0.dtd" xmlns:inkscape="http://www.inkscape.org/namespaces/inkscape"
	 xmlns="http://www.w3.org/2000/svg" xmlns:xlink="http://www.w3.org/1999/xlink" x="0px" y="0px" width="170.576px"
	 height="102.163px" viewBox="490.426 308.424 170.576 102.163" enable-background="new 490.426 308.424 170.576 102.163"
	 xml:space="preserve">
<defs>
	
	
		<inkscape:perspective  id="perspective10" inkscape:persp3d-origin="372.04724 : 350.78739 : 1" inkscape:vp_z="744.09448 : 526.18109 : 1" inkscape:vp_y="0 : 1000 : 0" inkscape:vp_x="0 : 526.18109 : 1" sodipodi:type="inkscape:persp3d">
		</inkscape:perspective>
	
		<inkscape:perspective  id="perspective2824" inkscape:persp3d-origin="0.5 : 0.33333333 : 1" inkscape:vp_z="1 : 0.5 : 1" inkscape:vp_y="0 : 1000 : 0" inkscape:vp_x="0 : 0.5 : 1" sodipodi:type="inkscape:persp3d">
		</inkscape:perspective>
	
		<inkscape:perspective  id="perspective9253" inkscape:persp3d-origin="85.288498 : 34.054001 : 1" inkscape:vp_z="170.577 : 51.081001 : 1" inkscape:vp_y="0 : 1000 : 0" inkscape:vp_x="0 : 51.081001 : 1" sodipodi:type="inkscape:persp3d">
		</inkscape:perspective>
</defs>
<sodipodi:namedview  id="base" inkscape:window-y="-8" inkscape:window-x="-8" inkscape:window-height="738" inkscape:window-width="1280" inkscape:current-layer="layer1" inkscape:document-units="px" inkscape:pageshadow="2" inkscape:pageopacity="0.0" inkscape:window-maximized="1" showgrid="false" inkscape:cy="697.91507" inkscape:cx="608.26921" inkscape:zoom="1.979899" borderopacity="1.0" bordercolor="#666666" pagecolor="#ffffff">
	</sodipodi:namedview>
<g id="layer1" inkscape:groupmode="layer" inkscape:label="Calque 1">
	<path id="path9185" d="M498.102,408.648h155.305c3.166,0,5.692-2.559,5.692-5.717v-86.772c0-3.158-2.526-5.756-5.692-5.756H498.102
		c-3.167,0-5.691,2.558-5.691,5.716v86.813C492.41,406.09,494.936,408.648,498.102,408.648L498.102,408.648z"/>
	<path id="path9187" fill="none" stroke="#000000" stroke-width="0.2" stroke-miterlimit="3.863" d="M498.102,408.648h155.305
		c3.166,0,5.692-2.559,5.692-5.717v-86.772c0-3.158-2.526-5.756-5.692-5.756H498.102c-3.167,0-5.691,2.558-5.691,5.716v86.813
		C492.41,406.09,494.936,408.648,498.102,408.648L498.102,408.648z"/>
	<path id="path9189" fill="#FFFFFF" d="M653.406,312.082H498.062c-2.204,0-3.969,1.878-3.969,4.077v86.813
		c0,2.198,1.725,3.957,3.929,3.957h155.464c2.205,0,3.89-1.719,3.89-3.918v-86.974C657.375,313.84,655.611,312.082,653.406,312.082z
		"/>
	<path id="path9191" fill="none" stroke="#000000" stroke-width="0.2" stroke-miterlimit="3.863" d="M653.406,312.082H498.062
		c-2.204,0-3.969,1.878-3.969,4.077v86.813c0,2.199,1.725,3.958,3.929,3.958h155.464c2.205,0,3.89-1.719,3.89-3.918v-86.974
		C657.375,313.84,655.611,312.082,653.406,312.082L653.406,312.082z"/>
	<path id="path9193" fill="none" stroke="#000000" stroke-width="0.2" stroke-miterlimit="3.863" d="M660.902,402.892v-86.813
		c0-4.198-3.325-7.555-7.534-7.555H498.062c-4.209,0-7.536,3.438-7.536,7.635v86.772c0,4.197,3.367,7.556,7.576,7.556h155.305
		C657.616,410.487,660.902,407.089,660.902,402.892L660.902,402.892z"/>
	<path id="path2830" d="M501.071,376.584c0-15.003,0.135-27.282,0.299-27.286s3.834,1.273,8.156,2.84l7.858,2.848v5.323
		c0,3.611,0.141,5.324,0.438,5.324c0.241,0,5.792-1.463,12.335-3.25l11.896-3.249l-0.054-6.01
		c-0.029-3.305-0.164-9.593-0.299-13.974l-0.244-7.965l6.473-8.661c3.56-4.764,6.553-8.662,6.652-8.662
		c0.099,0,3.318,3.757,7.154,8.349l6.976,8.349v20.021V370.6l6.126-6.122l6.126-6.122l5.219,7.819l5.218,7.819h4.173h4.173v1.395
		v1.394h4.178h4.178v7.965v7.964h2.387h2.388l0.012-9.259l0.012-9.259l12.807-6.77c7.044-3.724,15.633-8.26,19.087-10.08
		l6.279-3.309v24.913v24.913h-75h-75V376.584L501.071,376.584z"/>
</g>
</svg>
