<?xml version="1.0" encoding="utf-8"?>
<!-- Generator: Adobe Illustrator 14.0.0, SVG Export Plug-In . SVG Version: 6.00 Build 43363)  -->
<!DOCTYPE svg PUBLIC "-//W3C//DTD SVG 1.1//EN" "http://www.w3.org/Graphics/SVG/1.1/DTD/svg11.dtd">
<svg version="1.1"
	 id="svg2" inkscape:version="0.47 r22583" sodipodi:docname="Belgium board F01bv.svg" xmlns:dc="http://purl.org/dc/elements/1.1/" xmlns:cc="http://creativecommons.org/ns#" xmlns:rdf="http://www.w3.org/1999/02/22-rdf-syntax-ns#" xmlns:svg="http://www.w3.org/2000/svg" xmlns:sodipodi="http://sodipodi.sourceforge.net/DTD/sodipodi-0.dtd" xmlns:inkscape="http://www.inkscape.org/namespaces/inkscape"
	 xmlns="http://www.w3.org/2000/svg" xmlns:xlink="http://www.w3.org/1999/xlink" x="0px" y="0px" width="111.064px"
	 height="170.576px" viewBox="-0.105 0 111.064 170.576" enable-background="new -0.105 0 111.064 170.576" xml:space="preserve">
<defs>
	
	
		<inkscape:perspective  id="perspective10" inkscape:persp3d-origin="372.04724 : 350.78739 : 1" sodipodi:type="inkscape:persp3d" inkscape:vp_x="0 : 526.18109 : 1" inkscape:vp_y="0 : 1000 : 0" inkscape:vp_z="744.09448 : 526.18109 : 1">
		</inkscape:perspective>
	
		<inkscape:perspective  id="perspective2824" inkscape:persp3d-origin="0.5 : 0.33333333 : 1" sodipodi:type="inkscape:persp3d" inkscape:vp_x="0 : 0.5 : 1" inkscape:vp_y="0 : 1000 : 0" inkscape:vp_z="1 : 0.5 : 1">
		</inkscape:perspective>
	
		<inkscape:perspective  id="perspective9253" inkscape:persp3d-origin="85.288498 : 34.054001 : 1" sodipodi:type="inkscape:persp3d" inkscape:vp_x="0 : 51.081001 : 1" inkscape:vp_y="0 : 1000 : 0" inkscape:vp_z="170.577 : 51.081001 : 1">
		</inkscape:perspective>
	
		<inkscape:perspective  id="perspective2830" inkscape:persp3d-origin="0.5 : 0.33333333 : 1" sodipodi:type="inkscape:persp3d" inkscape:vp_x="0 : 0.5 : 1" inkscape:vp_y="0 : 1000 : 0" inkscape:vp_z="1 : 0.5 : 1">
		</inkscape:perspective>
	
		<inkscape:perspective  id="perspective2876" inkscape:persp3d-origin="0.5 : 0.33333333 : 1" sodipodi:type="inkscape:persp3d" inkscape:vp_x="0 : 0.5 : 1" inkscape:vp_y="0 : 1000 : 0" inkscape:vp_z="1 : 0.5 : 1">
		</inkscape:perspective>
</defs>
<sodipodi:namedview  id="base" inkscape:pageopacity="0.0" inkscape:pageshadow="2" inkscape:document-units="px" inkscape:current-layer="layer1" inkscape:window-width="1280" inkscape:window-height="738" inkscape:window-x="-8" inkscape:window-y="-8" inkscape:window-maximized="1" pagecolor="#ffffff" bordercolor="#666666" borderopacity="1.0" inkscape:zoom="1.979899" inkscape:cx="60.350819" inkscape:cy="68.597992" showgrid="false">
	</sodipodi:namedview>
<g id="layer1" transform="translate(-34.2065,34.2065)" inkscape:groupmode="layer" inkscape:label="Calque 1">
	<path id="path9185" d="M36.27-26.547V128.75c0,3.166,2.783,5.691,6.217,5.691h94.34c3.434,0,6.258-2.525,6.258-5.691V-26.547
		c0-3.166-2.781-5.691-6.215-5.691H42.485C39.052-32.239,36.27-29.713,36.27-26.547L36.27-26.547z"/>
	<path id="path9187" fill="none" stroke="#000000" stroke-width="0.2085" stroke-miterlimit="3.863" d="M36.27-26.547V128.75
		c0,3.166,2.783,5.691,6.217,5.691h94.34c3.434,0,6.258-2.525,6.258-5.691V-26.547c0-3.166-2.781-5.691-6.215-5.691H42.485
		C39.052-32.239,36.27-29.713,36.27-26.547L36.27-26.547z"/>
	<path id="path9189" fill="#FFFFFF" d="M141.216,128.75V-26.586c0-2.205-2.041-3.969-4.432-3.969H42.397
		c-2.389,0-4.301,1.725-4.301,3.928V128.83c0,2.205,1.869,3.889,4.26,3.889h94.561C139.304,132.718,141.216,130.955,141.216,128.75
		L141.216,128.75z"/>
	<path id="path9191" fill="none" stroke="#000000" stroke-width="0.2085" stroke-miterlimit="3.863" d="M141.216,128.75V-26.586
		c0-2.203-2.041-3.969-4.432-3.969H42.399c-2.391,0-4.305,1.725-4.305,3.928V128.83c0,2.205,1.869,3.891,4.26,3.891h94.561
		C139.306,132.718,141.216,130.955,141.216,128.75L141.216,128.75L141.216,128.75z"/>
	<path id="path9193" fill="none" stroke="#000000" stroke-width="0.2085" stroke-miterlimit="3.863" d="M42.464,136.265h94.385
		c4.564,0,8.213-3.324,8.213-7.533V-26.567c0-4.209-3.738-7.535-8.301-7.535h-94.34c-4.563,0-8.215,3.367-8.215,7.576v155.297
		C34.206,132.98,37.899,136.265,42.464,136.265L42.464,136.265L42.464,136.265z"/>
	<path id="path2830" d="M40.856,76.269c0-18.875,0.088-34.322,0.193-34.328c0.107-0.004,2.484,1.602,5.285,3.574l5.092,3.582v6.697
		c0,4.543,0.092,6.697,0.283,6.697c0.156,0,3.754-1.84,7.992-4.088l7.709-4.088l-0.035-7.561c-0.02-4.158-0.107-12.07-0.195-17.582
		l-0.158-10.02l4.195-10.896c2.307-5.994,4.246-10.898,4.311-10.898c0.063,0,2.148,4.727,4.635,10.504l4.52,10.504v25.189v25.186
		l3.969-7.703l3.969-7.701l3.383,9.836l3.381,9.838h2.703h2.703v1.756v1.752h2.707h2.707v10.021v10.02h1.547h1.549l0.008-11.648
		l0.008-11.648l8.297-8.518c4.564-4.686,10.129-10.393,12.367-12.682l4.068-4.162v31.342v31.344H89.454H40.858V76.269H40.856
		L40.856,76.269z"/>
</g>
</svg>
