<?xml version="1.0" encoding="UTF-8"?>
<!DOCTYPE svg PUBLIC "-//W3C//DTD SVG 1.1//EN" "http://www.w3.org/Graphics/SVG/1.1/DTD/svg11.dtd">
<svg version="1.2" width="37.45mm" height="25.03mm" viewBox="79728 36499 3745 2503" preserveAspectRatio="xMidYMid" fill-rule="evenodd" stroke-width="28.222" stroke-linejoin="round" xmlns="http://www.w3.org/2000/svg" xmlns:ooo="http://xml.openoffice.org/svg/export" xmlns:xlink="http://www.w3.org/1999/xlink" xmlns:presentation="http://sun.com/xmlns/staroffice/presentation" xmlns:smil="http://www.w3.org/2001/SMIL20/" xmlns:anim="urn:oasis:names:tc:opendocument:xmlns:animation:1.0" xml:space="preserve">
 <defs class="EmbeddedBulletChars">
  <g id="bullet-char-template-57356" transform="scale(0.00048828125,-0.00048828125)">
   <path d="M 580,1141 L 1163,571 580,0 -4,571 580,1141 Z"/>
  </g>
  <g id="bullet-char-template-57354" transform="scale(0.00048828125,-0.00048828125)">
   <path d="M 8,1128 L 1137,1128 1137,0 8,0 8,1128 Z"/>
  </g>
  <g id="bullet-char-template-10146" transform="scale(0.00048828125,-0.00048828125)">
   <path d="M 174,0 L 602,739 174,1481 1456,739 174,0 Z M 1358,739 L 309,1346 659,739 1358,739 Z"/>
  </g>
  <g id="bullet-char-template-10132" transform="scale(0.00048828125,-0.00048828125)">
   <path d="M 2015,739 L 1276,0 717,0 1260,543 174,543 174,936 1260,936 717,1481 1274,1481 2015,739 Z"/>
  </g>
  <g id="bullet-char-template-10007" transform="scale(0.00048828125,-0.00048828125)">
   <path d="M 0,-2 C -7,14 -16,27 -25,37 L 356,567 C 262,823 215,952 215,954 215,979 228,992 255,992 264,992 276,990 289,987 310,991 331,999 354,1012 L 381,999 492,748 772,1049 836,1024 860,1049 C 881,1039 901,1025 922,1006 886,937 835,863 770,784 769,783 710,716 594,584 L 774,223 C 774,196 753,168 711,139 L 727,119 C 717,90 699,76 672,76 641,76 570,178 457,381 L 164,-76 C 142,-110 111,-127 72,-127 30,-127 9,-110 8,-76 1,-67 -2,-52 -2,-32 -2,-23 -1,-13 0,-2 Z"/>
  </g>
  <g id="bullet-char-template-10004" transform="scale(0.00048828125,-0.00048828125)">
   <path d="M 285,-33 C 182,-33 111,30 74,156 52,228 41,333 41,471 41,549 55,616 82,672 116,743 169,778 240,778 293,778 328,747 346,684 L 369,508 C 377,444 397,411 428,410 L 1163,1116 C 1174,1127 1196,1133 1229,1133 1271,1133 1292,1118 1292,1087 L 1292,965 C 1292,929 1282,901 1262,881 L 442,47 C 390,-6 338,-33 285,-33 Z"/>
  </g>
  <g id="bullet-char-template-9679" transform="scale(0.00048828125,-0.00048828125)">
   <path d="M 813,0 C 632,0 489,54 383,161 276,268 223,411 223,592 223,773 276,916 383,1023 489,1130 632,1184 813,1184 992,1184 1136,1130 1245,1023 1353,916 1407,772 1407,592 1407,412 1353,268 1245,161 1136,54 992,0 813,0 Z"/>
  </g>
  <g id="bullet-char-template-8226" transform="scale(0.00048828125,-0.00048828125)">
   <path d="M 346,457 C 273,457 209,483 155,535 101,586 74,649 74,723 74,796 101,859 155,911 209,963 273,989 346,989 419,989 480,963 531,910 582,859 608,796 608,723 608,648 583,586 532,535 482,483 420,457 346,457 Z"/>
  </g>
  <g id="bullet-char-template-8211" transform="scale(0.00048828125,-0.00048828125)">
   <path d="M -4,459 L 1135,459 1135,606 -4,606 -4,459 Z"/>
  </g>
  <g id="bullet-char-template-61548" transform="scale(0.00048828125,-0.00048828125)">
   <path d="M 173,740 C 173,903 231,1043 346,1159 462,1274 601,1332 765,1332 928,1332 1067,1274 1183,1159 1299,1043 1357,903 1357,740 1357,577 1299,437 1183,322 1067,206 928,148 765,148 601,148 462,206 346,322 231,437 173,577 173,740 Z"/>
  </g>
 </defs>
 <g class="Page">
  <g class="com.sun.star.drawing.PolyPolygonShape">
   <g id="id3">
    <rect class="BoundingBox" stroke="none" fill="none" x="79728" y="36499" width="3745" height="2503"/>
    <path fill="rgb(0,0,255)" stroke="none" d="M 79729,38728 L 79729,36770 79730,36744 79734,36717 79741,36692 79749,36667 79761,36643 79774,36620 79790,36599 79808,36579 79828,36561 79849,36545 79872,36532 79896,36520 79921,36511 79946,36505 79973,36501 79999,36500 83201,36500 83227,36501 83253,36505 83279,36511 83304,36520 83328,36532 83351,36545 83372,36561 83392,36579 83410,36599 83425,36620 83439,36643 83450,36667 83459,36692 83465,36717 83469,36744 83471,36770 83471,38728 83469,38756 83465,38782 83459,38808 83450,38833 83439,38857 83425,38880 83410,38901 83392,38921 83372,38939 83351,38955 83328,38968 83304,38980 83279,38989 83253,38995 83227,38999 83201,39000 79999,39000 79973,38999 79946,38995 79921,38989 79896,38980 79872,38968 79849,38955 79828,38939 79808,38921 79790,38901 79774,38880 79761,38857 79749,38833 79741,38808 79734,38782 79730,38756 79729,38728 Z"/>
    <path fill="none" stroke="rgb(0,0,255)" d="M 79729,38728 L 79729,36770 79730,36744 79734,36717 79741,36692 79749,36667 79761,36643 79774,36620 79790,36599 79808,36579 79828,36561 79849,36545 79872,36532 79896,36520 79921,36511 79946,36505 79973,36501 79999,36500 83201,36500 83227,36501 83253,36505 83279,36511 83304,36520 83328,36532 83351,36545 83372,36561 83392,36579 83410,36599 83425,36620 83439,36643 83450,36667 83459,36692 83465,36717 83469,36744 83471,36770 83471,38728 83469,38756 83465,38782 83459,38808 83450,38833 83439,38857 83425,38880 83410,38901 83392,38921 83372,38939 83351,38955 83328,38968 83304,38980 83279,38989 83253,38995 83227,38999 83201,39000 79999,39000 79973,38999 79946,38995 79921,38989 79896,38980 79872,38968 79849,38955 79828,38939 79808,38921 79790,38901 79774,38880 79761,38857 79749,38833 79741,38808 79734,38782 79730,38756 79729,38728 Z"/>
   </g>
  </g>
  <g class="com.sun.star.drawing.PolyPolygonShape">
   <g id="id4">
    <rect class="BoundingBox" stroke="none" fill="none" x="79790" y="36561" width="3620" height="2379"/>
    <path fill="rgb(255,255,255)" stroke="none" d="M 79791,38729 L 79791,36770 79792,36750 79795,36730 79800,36710 79807,36691 79816,36672 79826,36655 79838,36638 79852,36623 79867,36609 79884,36597 79901,36587 79920,36578 79939,36571 79959,36566 79979,36563 79999,36562 83201,36562 83221,36563 83241,36566 83261,36571 83280,36578 83298,36587 83316,36597 83332,36609 83348,36623 83361,36638 83373,36655 83384,36672 83393,36691 83399,36710 83404,36730 83407,36750 83408,36770 83408,38729 83407,38750 83404,38770 83399,38790 83393,38809 83384,38828 83373,38845 83361,38862 83348,38877 83332,38891 83316,38903 83298,38913 83280,38922 83261,38929 83241,38934 83221,38937 83201,38938 79999,38938 79979,38937 79959,38934 79939,38929 79920,38922 79901,38913 79884,38903 79867,38891 79852,38877 79838,38862 79826,38845 79816,38828 79807,38809 79800,38790 79795,38770 79792,38750 79791,38729 Z"/>
    <path fill="none" stroke="rgb(255,255,255)" d="M 79791,38729 L 79791,36770 79792,36750 79795,36730 79800,36710 79807,36691 79816,36672 79826,36655 79838,36638 79852,36623 79867,36609 79884,36597 79901,36587 79920,36578 79939,36571 79959,36566 79979,36563 79999,36562 83201,36562 83221,36563 83241,36566 83261,36571 83280,36578 83298,36587 83316,36597 83332,36609 83348,36623 83361,36638 83373,36655 83384,36672 83393,36691 83399,36710 83404,36730 83407,36750 83408,36770 83408,38729 83407,38750 83404,38770 83399,38790 83393,38809 83384,38828 83373,38845 83361,38862 83348,38877 83332,38891 83316,38903 83298,38913 83280,38922 83261,38929 83241,38934 83221,38937 83201,38938 79999,38938 79979,38937 79959,38934 79939,38929 79920,38922 79901,38913 79884,38903 79867,38891 79852,38877 79838,38862 79826,38845 79816,38828 79807,38809 79800,38790 79795,38770 79792,38750 79791,38729 Z"/>
   </g>
  </g>
  <g class="com.sun.star.drawing.PolyPolygonShape">
   <g id="id5">
    <rect class="BoundingBox" stroke="none" fill="none" x="79853" y="36624" width="3495" height="2253"/>
    <path fill="rgb(0,0,255)" stroke="none" d="M 79854,38729 L 79854,36770 79854,36756 79856,36742 79860,36728 79865,36714 79871,36702 79878,36689 79887,36678 79896,36667 79907,36658 79918,36649 79930,36642 79943,36636 79957,36631 79971,36627 79985,36625 79999,36625 83201,36625 83215,36625 83229,36627 83243,36631 83256,36636 83269,36642 83281,36649 83293,36658 83303,36667 83313,36678 83321,36689 83329,36702 83335,36714 83340,36728 83343,36742 83345,36756 83346,36770 83346,38729 83345,38744 83343,38758 83340,38772 83335,38785 83329,38798 83321,38810 83313,38822 83303,38833 83293,38842 83281,38851 83269,38858 83256,38864 83243,38869 83229,38873 83215,38875 83201,38875 79999,38875 79985,38875 79971,38873 79957,38869 79943,38864 79930,38858 79918,38851 79907,38842 79896,38833 79887,38822 79878,38810 79871,38798 79865,38785 79860,38772 79856,38758 79854,38744 79854,38729 Z"/>
    <path fill="none" stroke="rgb(0,0,255)" d="M 79854,38729 L 79854,36770 79854,36756 79856,36742 79860,36728 79865,36714 79871,36702 79878,36689 79887,36678 79896,36667 79907,36658 79918,36649 79930,36642 79943,36636 79957,36631 79971,36627 79985,36625 79999,36625 83201,36625 83215,36625 83229,36627 83243,36631 83256,36636 83269,36642 83281,36649 83293,36658 83303,36667 83313,36678 83321,36689 83329,36702 83335,36714 83340,36728 83343,36742 83345,36756 83346,36770 83346,38729 83345,38744 83343,38758 83340,38772 83335,38785 83329,38798 83321,38810 83313,38822 83303,38833 83293,38842 83281,38851 83269,38858 83256,38864 83243,38869 83229,38873 83215,38875 83201,38875 79999,38875 79985,38875 79971,38873 79957,38869 79943,38864 79930,38858 79918,38851 79907,38842 79896,38833 79887,38822 79878,38810 79871,38798 79865,38785 79860,38772 79856,38758 79854,38744 79854,38729 Z"/>
   </g>
  </g>
  <g class="com.sun.star.drawing.PolyPolygonShape">
   <g id="id6">
    <rect class="BoundingBox" stroke="none" fill="none" x="80040" y="37186" width="3121" height="1129"/>
    <path fill="rgb(255,255,255)" stroke="none" d="M 80976,38313 L 80041,37750 80976,37187 80976,37562 82223,37562 82223,37187 83159,37750 82223,38313 82223,37938 80976,37938 80976,38313 Z"/>
    <path fill="none" stroke="rgb(255,255,255)" d="M 80976,38313 L 80041,37750 80976,37187 80976,37562 82223,37562 82223,37187 83159,37750 82223,38313 82223,37938 80976,37938 80976,38313 Z"/>
   </g>
  </g>
  <g class="com.sun.star.drawing.PolyPolygonShape">
   <g id="id7">
    <rect class="BoundingBox" stroke="none" fill="none" x="80040" y="37186" width="3121" height="1129"/>
    <path fill="rgb(255,255,255)" stroke="none" d="M 80976,38313 L 80041,37750 80976,37187 80976,37562 82223,37562 82223,37187 83159,37750 82223,38313 82223,37938 80976,37938 80976,38313 Z"/>
    <path fill="none" stroke="rgb(255,255,255)" d="M 80976,38313 L 80041,37750 80976,37187 80976,37562 82223,37562 82223,37187 83159,37750 82223,38313 82223,37938 80976,37938 80976,38313 Z"/>
   </g>
  </g>
 </g>
</svg>