<?xml version="1.0" encoding="UTF-8"?>
<!DOCTYPE svg PUBLIC "-//W3C//DTD SVG 1.1//EN" "http://www.w3.org/Graphics/SVG/1.1/DTD/svg11.dtd">
<svg version="1.2" width="13.53mm" height="9.03mm" viewBox="84024 36499 1353 903" preserveAspectRatio="xMidYMid" fill-rule="evenodd" stroke-width="28.222" stroke-linejoin="round" xmlns="http://www.w3.org/2000/svg" xmlns:ooo="http://xml.openoffice.org/svg/export" xmlns:xlink="http://www.w3.org/1999/xlink" xmlns:presentation="http://sun.com/xmlns/staroffice/presentation" xmlns:smil="http://www.w3.org/2001/SMIL20/" xmlns:anim="urn:oasis:names:tc:opendocument:xmlns:animation:1.0" xml:space="preserve">
 <defs class="EmbeddedBulletChars">
  <g id="bullet-char-template-57356" transform="scale(0.00048828125,-0.00048828125)">
   <path d="M 580,1141 L 1163,571 580,0 -4,571 580,1141 Z"/>
  </g>
  <g id="bullet-char-template-57354" transform="scale(0.00048828125,-0.00048828125)">
   <path d="M 8,1128 L 1137,1128 1137,0 8,0 8,1128 Z"/>
  </g>
  <g id="bullet-char-template-10146" transform="scale(0.00048828125,-0.00048828125)">
   <path d="M 174,0 L 602,739 174,1481 1456,739 174,0 Z M 1358,739 L 309,1346 659,739 1358,739 Z"/>
  </g>
  <g id="bullet-char-template-10132" transform="scale(0.00048828125,-0.00048828125)">
   <path d="M 2015,739 L 1276,0 717,0 1260,543 174,543 174,936 1260,936 717,1481 1274,1481 2015,739 Z"/>
  </g>
  <g id="bullet-char-template-10007" transform="scale(0.00048828125,-0.00048828125)">
   <path d="M 0,-2 C -7,14 -16,27 -25,37 L 356,567 C 262,823 215,952 215,954 215,979 228,992 255,992 264,992 276,990 289,987 310,991 331,999 354,1012 L 381,999 492,748 772,1049 836,1024 860,1049 C 881,1039 901,1025 922,1006 886,937 835,863 770,784 769,783 710,716 594,584 L 774,223 C 774,196 753,168 711,139 L 727,119 C 717,90 699,76 672,76 641,76 570,178 457,381 L 164,-76 C 142,-110 111,-127 72,-127 30,-127 9,-110 8,-76 1,-67 -2,-52 -2,-32 -2,-23 -1,-13 0,-2 Z"/>
  </g>
  <g id="bullet-char-template-10004" transform="scale(0.00048828125,-0.00048828125)">
   <path d="M 285,-33 C 182,-33 111,30 74,156 52,228 41,333 41,471 41,549 55,616 82,672 116,743 169,778 240,778 293,778 328,747 346,684 L 369,508 C 377,444 397,411 428,410 L 1163,1116 C 1174,1127 1196,1133 1229,1133 1271,1133 1292,1118 1292,1087 L 1292,965 C 1292,929 1282,901 1262,881 L 442,47 C 390,-6 338,-33 285,-33 Z"/>
  </g>
  <g id="bullet-char-template-9679" transform="scale(0.00048828125,-0.00048828125)">
   <path d="M 813,0 C 632,0 489,54 383,161 276,268 223,411 223,592 223,773 276,916 383,1023 489,1130 632,1184 813,1184 992,1184 1136,1130 1245,1023 1353,916 1407,772 1407,592 1407,412 1353,268 1245,161 1136,54 992,0 813,0 Z"/>
  </g>
  <g id="bullet-char-template-8226" transform="scale(0.00048828125,-0.00048828125)">
   <path d="M 346,457 C 273,457 209,483 155,535 101,586 74,649 74,723 74,796 101,859 155,911 209,963 273,989 346,989 419,989 480,963 531,910 582,859 608,796 608,723 608,648 583,586 532,535 482,483 420,457 346,457 Z"/>
  </g>
  <g id="bullet-char-template-8211" transform="scale(0.00048828125,-0.00048828125)">
   <path d="M -4,459 L 1135,459 1135,606 -4,606 -4,459 Z"/>
  </g>
  <g id="bullet-char-template-61548" transform="scale(0.00048828125,-0.00048828125)">
   <path d="M 173,740 C 173,903 231,1043 346,1159 462,1274 601,1332 765,1332 928,1332 1067,1274 1183,1159 1299,1043 1357,903 1357,740 1357,577 1299,437 1183,322 1067,206 928,148 765,148 601,148 462,206 346,322 231,437 173,577 173,740 Z"/>
  </g>
 </defs>
 <g class="Page">
  <g class="com.sun.star.drawing.PolyPolygonShape">
   <g id="id3">
    <rect class="BoundingBox" stroke="none" fill="none" x="84024" y="36499" width="1353" height="903"/>
    <path fill="rgb(0,0,255)" stroke="none" d="M 84160,37400 L 85240,37400 85242,37400 85244,37400 85245,37400 85247,37400 85249,37400 85250,37400 85252,37400 85254,37400 85255,37400 85257,37399 85259,37399 85260,37399 85262,37399 85263,37398 85265,37398 85267,37398 85268,37397 85270,37397 85272,37397 85273,37396 85275,37396 85276,37396 85278,37395 85280,37395 85281,37394 85283,37394 85284,37393 85286,37393 85287,37392 85289,37391 85291,37391 85292,37390 85294,37390 85295,37389 85297,37388 85298,37387 85300,37387 85301,37386 85303,37385 85304,37384 85305,37384 85307,37383 85308,37382 85310,37381 85311,37380 85313,37379 85314,37379 85315,37378 85317,37377 85318,37376 85320,37375 85321,37374 85322,37373 85323,37372 85325,37371 85326,37370 85327,37369 85329,37368 85330,37367 85331,37365 85332,37364 85334,37363 85335,37362 85336,37361 85337,37360 85338,37359 85339,37357 85340,37356 85341,37355 85343,37354 85344,37352 85345,37351 85346,37350 85347,37348 85348,37347 85349,37346 85350,37344 85351,37343 85352,37342 85353,37340 85354,37339 85354,37338 85355,37336 85356,37335 85357,37333 85358,37332 85359,37331 85359,37329 85360,37328 85361,37326 85362,37325 85362,37323 85363,37322 85364,37320 85364,37319 85365,37317 85366,37316 85366,37314 85367,37312 85367,37311 85368,37308 85369,37307 85369,37305 85370,37304 85370,37302 85370,37300 85371,37299 85371,37297 85372,37296 85372,37294 85372,37292 85373,37291 85373,37289 85373,37287 85374,37286 85374,37284 85374,37283 85374,37281 85375,37279 85375,37278 85375,37276 85375,37274 85375,37273 85375,37271 85375,37269 85375,37268 85375,37266 85375,37265 85375,36635 85375,36633 85375,36631 85375,36630 85375,36628 85375,36626 85375,36625 85375,36623 85375,36621 85375,36620 85374,36618 85374,36616 85374,36615 85374,36613 85373,36611 85373,36610 85373,36608 85372,36607 85372,36605 85372,36603 85371,36602 85371,36600 85370,36599 85370,36597 85370,36595 85369,36594 85369,36592 85368,36591 85367,36589 85367,36587 85366,36586 85366,36584 85365,36583 85364,36581 85364,36580 85363,36578 85362,36577 85362,36575 85361,36574 85360,36572 85359,36571 85359,36569 85358,36568 85357,36567 85356,36565 85355,36564 85354,36562 85354,36561 85353,36560 85352,36558 85351,36557 85350,36555 85349,36554 85348,36553 85347,36551 85346,36550 85345,36549 85344,36548 85343,36546 85341,36545 85340,36544 85339,36543 85338,36541 85337,36540 85336,36539 85335,36538 85334,36537 85332,36536 85331,36535 85330,36533 85329,36532 85327,36531 85326,36530 85325,36529 85323,36528 85322,36527 85321,36526 85320,36525 85318,36524 85317,36523 85315,36522 85314,36521 85313,36520 85311,36520 85310,36519 85308,36518 85307,36517 85305,36516 85304,36515 85303,36515 85301,36514 85300,36513 85298,36513 85297,36512 85295,36511 85294,36510 85292,36510 85291,36509 85289,36509 85287,36508 85286,36507 85284,36507 85283,36506 85281,36506 85280,36505 85278,36505 85276,36504 85275,36504 85273,36504 85272,36503 85270,36503 85268,36502 85267,36502 85265,36502 85263,36501 85262,36501 85260,36501 85259,36501 85257,36501 85255,36500 85254,36500 85252,36500 85250,36500 85249,36500 85247,36500 85245,36500 85244,36500 85242,36500 85240,36500 84160,36500 84158,36500 84156,36500 84155,36500 84153,36500 84151,36500 84150,36500 84148,36500 84146,36500 84145,36500 84143,36501 84141,36501 84140,36501 84138,36501 84137,36501 84135,36502 84133,36502 84132,36502 84130,36503 84128,36503 84127,36504 84125,36504 84124,36504 84122,36505 84120,36505 84119,36506 84117,36506 84116,36507 84114,36507 84112,36508 84111,36509 84109,36509 84108,36510 84106,36510 84105,36511 84103,36512 84102,36513 84100,36513 84099,36514 84097,36515 84096,36515 84094,36516 84093,36517 84092,36518 84090,36519 84089,36520 84087,36520 84086,36521 84085,36522 84083,36523 84082,36524 84080,36525 84079,36526 84078,36527 84076,36528 84075,36529 84074,36530 84073,36531 84071,36532 84070,36533 84069,36535 84068,36536 84066,36537 84065,36538 84064,36539 84063,36540 84062,36541 84061,36543 84059,36544 84058,36545 84057,36546 84056,36548 84055,36549 84054,36550 84053,36551 84052,36553 84051,36554 84050,36555 84049,36557 84048,36558 84047,36560 84046,36561 84046,36562 84045,36564 84044,36565 84043,36567 84042,36568 84041,36569 84040,36571 84040,36572 84039,36574 84038,36575 84038,36577 84037,36578 84036,36580 84035,36581 84035,36583 84034,36584 84034,36586 84033,36587 84032,36589 84032,36591 84031,36592 84031,36594 84030,36595 84030,36597 84029,36599 84029,36600 84029,36602 84028,36603 84028,36605 84028,36607 84027,36608 84027,36610 84027,36611 84026,36613 84026,36615 84026,36616 84026,36618 84025,36620 84025,36621 84025,36623 84025,36625 84025,36626 84025,36628 84025,36630 84025,36631 84025,36633 84025,36635 84025,37264 84025,37266 84025,37268 84025,37269 84025,37271 84025,37273 84025,37274 84025,37276 84025,37278 84025,37279 84026,37281 84026,37283 84026,37284 84026,37286 84027,37287 84027,37289 84027,37291 84028,37292 84028,37294 84028,37296 84029,37297 84029,37299 84029,37300 84030,37302 84030,37304 84031,37305 84031,37307 84032,37308 84032,37311 84033,37312 84034,37314 84034,37316 84035,37317 84035,37319 84036,37320 84037,37322 84038,37323 84038,37325 84039,37326 84040,37328 84040,37329 84041,37331 84042,37332 84043,37333 84044,37335 84045,37336 84046,37338 84046,37339 84047,37340 84048,37342 84049,37343 84050,37344 84051,37346 84052,37347 84053,37348 84054,37350 84055,37351 84056,37352 84057,37354 84058,37355 84059,37356 84061,37357 84062,37359 84063,37360 84064,37361 84065,37362 84066,37363 84068,37364 84069,37365 84070,37367 84071,37368 84073,37369 84074,37370 84075,37371 84076,37372 84078,37373 84079,37374 84080,37375 84082,37376 84083,37377 84085,37378 84086,37379 84087,37379 84089,37380 84090,37381 84092,37382 84093,37383 84094,37384 84096,37384 84097,37385 84099,37386 84100,37387 84102,37387 84103,37388 84105,37389 84106,37390 84108,37390 84109,37391 84111,37391 84112,37392 84114,37393 84116,37393 84117,37394 84119,37394 84120,37395 84122,37395 84124,37396 84125,37396 84127,37396 84128,37397 84130,37397 84132,37397 84133,37398 84135,37398 84137,37398 84138,37399 84140,37399 84141,37399 84143,37399 84145,37400 84146,37400 84148,37400 84150,37400 84151,37400 84153,37400 84155,37400 84156,37400 84158,37400 84160,37400 Z"/>
    <path fill="none" stroke="rgb(0,0,255)" d="M 84160,37400 L 85240,37400 85242,37400 85244,37400 85245,37400 85247,37400 85249,37400 85250,37400 85252,37400 85254,37400 85255,37400 85257,37399 85259,37399 85260,37399 85262,37399 85263,37398 85265,37398 85267,37398 85268,37397 85270,37397 85272,37397 85273,37396 85275,37396 85276,37396 85278,37395 85280,37395 85281,37394 85283,37394 85284,37393 85286,37393 85287,37392 85289,37391 85291,37391 85292,37390 85294,37390 85295,37389 85297,37388 85298,37387 85300,37387 85301,37386 85303,37385 85304,37384 85305,37384 85307,37383 85308,37382 85310,37381 85311,37380 85313,37379 85314,37379 85315,37378 85317,37377 85318,37376 85320,37375 85321,37374 85322,37373 85323,37372 85325,37371 85326,37370 85327,37369 85329,37368 85330,37367 85331,37365 85332,37364 85334,37363 85335,37362 85336,37361 85337,37360 85338,37359 85339,37357 85340,37356 85341,37355 85343,37354 85344,37352 85345,37351 85346,37350 85347,37348 85348,37347 85349,37346 85350,37344 85351,37343 85352,37342 85353,37340 85354,37339 85354,37338 85355,37336 85356,37335 85357,37333 85358,37332 85359,37331 85359,37329 85360,37328 85361,37326 85362,37325 85362,37323 85363,37322 85364,37320 85364,37319 85365,37317 85366,37316 85366,37314 85367,37312 85367,37311 85368,37308 85369,37307 85369,37305 85370,37304 85370,37302 85370,37300 85371,37299 85371,37297 85372,37296 85372,37294 85372,37292 85373,37291 85373,37289 85373,37287 85374,37286 85374,37284 85374,37283 85374,37281 85375,37279 85375,37278 85375,37276 85375,37274 85375,37273 85375,37271 85375,37269 85375,37268 85375,37266 85375,37265 85375,36635 85375,36633 85375,36631 85375,36630 85375,36628 85375,36626 85375,36625 85375,36623 85375,36621 85375,36620 85374,36618 85374,36616 85374,36615 85374,36613 85373,36611 85373,36610 85373,36608 85372,36607 85372,36605 85372,36603 85371,36602 85371,36600 85370,36599 85370,36597 85370,36595 85369,36594 85369,36592 85368,36591 85367,36589 85367,36587 85366,36586 85366,36584 85365,36583 85364,36581 85364,36580 85363,36578 85362,36577 85362,36575 85361,36574 85360,36572 85359,36571 85359,36569 85358,36568 85357,36567 85356,36565 85355,36564 85354,36562 85354,36561 85353,36560 85352,36558 85351,36557 85350,36555 85349,36554 85348,36553 85347,36551 85346,36550 85345,36549 85344,36548 85343,36546 85341,36545 85340,36544 85339,36543 85338,36541 85337,36540 85336,36539 85335,36538 85334,36537 85332,36536 85331,36535 85330,36533 85329,36532 85327,36531 85326,36530 85325,36529 85323,36528 85322,36527 85321,36526 85320,36525 85318,36524 85317,36523 85315,36522 85314,36521 85313,36520 85311,36520 85310,36519 85308,36518 85307,36517 85305,36516 85304,36515 85303,36515 85301,36514 85300,36513 85298,36513 85297,36512 85295,36511 85294,36510 85292,36510 85291,36509 85289,36509 85287,36508 85286,36507 85284,36507 85283,36506 85281,36506 85280,36505 85278,36505 85276,36504 85275,36504 85273,36504 85272,36503 85270,36503 85268,36502 85267,36502 85265,36502 85263,36501 85262,36501 85260,36501 85259,36501 85257,36501 85255,36500 85254,36500 85252,36500 85250,36500 85249,36500 85247,36500 85245,36500 85244,36500 85242,36500 85240,36500 84160,36500 84158,36500 84156,36500 84155,36500 84153,36500 84151,36500 84150,36500 84148,36500 84146,36500 84145,36500 84143,36501 84141,36501 84140,36501 84138,36501 84137,36501 84135,36502 84133,36502 84132,36502 84130,36503 84128,36503 84127,36504 84125,36504 84124,36504 84122,36505 84120,36505 84119,36506 84117,36506 84116,36507 84114,36507 84112,36508 84111,36509 84109,36509 84108,36510 84106,36510 84105,36511 84103,36512 84102,36513 84100,36513 84099,36514 84097,36515 84096,36515 84094,36516 84093,36517 84092,36518 84090,36519 84089,36520 84087,36520 84086,36521 84085,36522 84083,36523 84082,36524 84080,36525 84079,36526 84078,36527 84076,36528 84075,36529 84074,36530 84073,36531 84071,36532 84070,36533 84069,36535 84068,36536 84066,36537 84065,36538 84064,36539 84063,36540 84062,36541 84061,36543 84059,36544 84058,36545 84057,36546 84056,36548 84055,36549 84054,36550 84053,36551 84052,36553 84051,36554 84050,36555 84049,36557 84048,36558 84047,36560 84046,36561 84046,36562 84045,36564 84044,36565 84043,36567 84042,36568 84041,36569 84040,36571 84040,36572 84039,36574 84038,36575 84038,36577 84037,36578 84036,36580 84035,36581 84035,36583 84034,36584 84034,36586 84033,36587 84032,36589 84032,36591 84031,36592 84031,36594 84030,36595 84030,36597 84029,36599 84029,36600 84029,36602 84028,36603 84028,36605 84028,36607 84027,36608 84027,36610 84027,36611 84026,36613 84026,36615 84026,36616 84026,36618 84025,36620 84025,36621 84025,36623 84025,36625 84025,36626 84025,36628 84025,36630 84025,36631 84025,36633 84025,36635 84025,37264 84025,37266 84025,37268 84025,37269 84025,37271 84025,37273 84025,37274 84025,37276 84025,37278 84025,37279 84026,37281 84026,37283 84026,37284 84026,37286 84027,37287 84027,37289 84027,37291 84028,37292 84028,37294 84028,37296 84029,37297 84029,37299 84029,37300 84030,37302 84030,37304 84031,37305 84031,37307 84032,37308 84032,37311 84033,37312 84034,37314 84034,37316 84035,37317 84035,37319 84036,37320 84037,37322 84038,37323 84038,37325 84039,37326 84040,37328 84040,37329 84041,37331 84042,37332 84043,37333 84044,37335 84045,37336 84046,37338 84046,37339 84047,37340 84048,37342 84049,37343 84050,37344 84051,37346 84052,37347 84053,37348 84054,37350 84055,37351 84056,37352 84057,37354 84058,37355 84059,37356 84061,37357 84062,37359 84063,37360 84064,37361 84065,37362 84066,37363 84068,37364 84069,37365 84070,37367 84071,37368 84073,37369 84074,37370 84075,37371 84076,37372 84078,37373 84079,37374 84080,37375 84082,37376 84083,37377 84085,37378 84086,37379 84087,37379 84089,37380 84090,37381 84092,37382 84093,37383 84094,37384 84096,37384 84097,37385 84099,37386 84100,37387 84102,37387 84103,37388 84105,37389 84106,37390 84108,37390 84109,37391 84111,37391 84112,37392 84114,37393 84116,37393 84117,37394 84119,37394 84120,37395 84122,37395 84124,37396 84125,37396 84127,37396 84128,37397 84130,37397 84132,37397 84133,37398 84135,37398 84137,37398 84138,37399 84140,37399 84141,37399 84143,37399 84145,37400 84146,37400 84148,37400 84150,37400 84151,37400 84153,37400 84155,37400 84156,37400 84158,37400 84160,37400 Z"/>
   </g>
  </g>
  <g class="com.sun.star.drawing.PolyPolygonShape">
   <g id="id4">
    <rect class="BoundingBox" stroke="none" fill="none" x="84069" y="36544" width="1263" height="813"/>
    <path fill="rgb(255,255,255)" stroke="none" d="M 84160,37355 L 85240,37355 85243,37355 85245,37355 85247,37355 85249,37355 85251,37355 85254,37354 85256,37354 85258,37354 85260,37353 85262,37353 85264,37352 85266,37352 85269,37351 85271,37350 85273,37349 85275,37349 85277,37348 85279,37347 85281,37346 85283,37345 85285,37344 85287,37343 85289,37341 85290,37340 85292,37339 85294,37338 85296,37336 85297,37335 85299,37334 85301,37332 85302,37331 85304,37329 85306,37327 85307,37326 85309,37324 85310,37323 85311,37321 85313,37319 85314,37317 85315,37315 85316,37314 85318,37312 85319,37310 85320,37308 85321,37306 85322,37304 85323,37302 85324,37300 85324,37298 85325,37296 85326,37294 85326,37292 85327,37289 85328,37287 85328,37285 85329,37283 85329,37281 85329,37279 85330,37276 85330,37274 85330,37272 85330,37270 85330,37268 85330,37266 85330,36635 85330,36632 85330,36630 85330,36628 85330,36626 85330,36623 85329,36621 85329,36619 85329,36617 85328,36615 85328,36613 85327,36611 85326,36608 85326,36606 85325,36604 85324,36602 85324,36600 85323,36598 85322,36596 85321,36594 85320,36592 85319,36590 85318,36588 85316,36586 85315,36585 85314,36583 85313,36581 85311,36579 85310,36577 85309,36576 85307,36574 85306,36572 85304,36571 85302,36569 85301,36568 85299,36566 85297,36565 85296,36564 85294,36562 85292,36561 85290,36560 85289,36559 85287,36557 85285,36556 85283,36555 85281,36554 85279,36553 85277,36552 85275,36551 85273,36551 85271,36550 85269,36549 85266,36548 85264,36548 85262,36547 85260,36547 85258,36546 85256,36546 85254,36545 85251,36545 85249,36545 85247,36545 85245,36545 85243,36545 85240,36545 84160,36545 84157,36545 84155,36545 84153,36545 84151,36545 84149,36545 84146,36545 84144,36546 84142,36546 84140,36547 84138,36547 84135,36548 84133,36548 84131,36549 84129,36550 84127,36551 84125,36551 84123,36552 84121,36553 84119,36554 84117,36555 84115,36556 84113,36557 84111,36559 84110,36560 84108,36561 84106,36562 84104,36564 84102,36565 84101,36566 84099,36568 84098,36569 84096,36571 84094,36572 84093,36574 84091,36576 84090,36577 84089,36579 84087,36581 84086,36583 84085,36585 84083,36586 84082,36588 84081,36590 84080,36592 84079,36594 84078,36596 84077,36598 84076,36600 84076,36602 84075,36604 84074,36606 84073,36608 84073,36611 84072,36613 84072,36615 84071,36617 84071,36619 84071,36621 84070,36623 84070,36626 84070,36628 84070,36630 84070,36632 84070,36635 84070,37265 84070,37268 84070,37270 84070,37272 84070,37274 84070,37276 84071,37279 84071,37281 84071,37283 84072,37285 84072,37287 84073,37289 84073,37292 84074,37294 84075,37296 84076,37298 84076,37300 84077,37302 84078,37304 84079,37306 84080,37308 84081,37310 84082,37312 84083,37314 84085,37315 84086,37317 84087,37319 84089,37321 84090,37323 84091,37324 84093,37326 84094,37327 84096,37329 84098,37331 84099,37332 84101,37334 84102,37335 84104,37336 84106,37338 84108,37339 84110,37340 84111,37341 84113,37343 84115,37344 84117,37345 84119,37346 84121,37347 84123,37348 84125,37349 84127,37349 84129,37350 84131,37351 84133,37352 84135,37352 84138,37353 84140,37353 84142,37354 84144,37354 84146,37354 84149,37355 84151,37355 84153,37355 84155,37355 84157,37355 84160,37355 Z"/>
    <path fill="none" stroke="rgb(255,255,255)" d="M 84160,37355 L 85240,37355 85243,37355 85245,37355 85247,37355 85249,37355 85251,37355 85254,37354 85256,37354 85258,37354 85260,37353 85262,37353 85264,37352 85266,37352 85269,37351 85271,37350 85273,37349 85275,37349 85277,37348 85279,37347 85281,37346 85283,37345 85285,37344 85287,37343 85289,37341 85290,37340 85292,37339 85294,37338 85296,37336 85297,37335 85299,37334 85301,37332 85302,37331 85304,37329 85306,37327 85307,37326 85309,37324 85310,37323 85311,37321 85313,37319 85314,37317 85315,37315 85316,37314 85318,37312 85319,37310 85320,37308 85321,37306 85322,37304 85323,37302 85324,37300 85324,37298 85325,37296 85326,37294 85326,37292 85327,37289 85328,37287 85328,37285 85329,37283 85329,37281 85329,37279 85330,37276 85330,37274 85330,37272 85330,37270 85330,37268 85330,37266 85330,36635 85330,36632 85330,36630 85330,36628 85330,36626 85330,36623 85329,36621 85329,36619 85329,36617 85328,36615 85328,36613 85327,36611 85326,36608 85326,36606 85325,36604 85324,36602 85324,36600 85323,36598 85322,36596 85321,36594 85320,36592 85319,36590 85318,36588 85316,36586 85315,36585 85314,36583 85313,36581 85311,36579 85310,36577 85309,36576 85307,36574 85306,36572 85304,36571 85302,36569 85301,36568 85299,36566 85297,36565 85296,36564 85294,36562 85292,36561 85290,36560 85289,36559 85287,36557 85285,36556 85283,36555 85281,36554 85279,36553 85277,36552 85275,36551 85273,36551 85271,36550 85269,36549 85266,36548 85264,36548 85262,36547 85260,36547 85258,36546 85256,36546 85254,36545 85251,36545 85249,36545 85247,36545 85245,36545 85243,36545 85240,36545 84160,36545 84157,36545 84155,36545 84153,36545 84151,36545 84149,36545 84146,36545 84144,36546 84142,36546 84140,36547 84138,36547 84135,36548 84133,36548 84131,36549 84129,36550 84127,36551 84125,36551 84123,36552 84121,36553 84119,36554 84117,36555 84115,36556 84113,36557 84111,36559 84110,36560 84108,36561 84106,36562 84104,36564 84102,36565 84101,36566 84099,36568 84098,36569 84096,36571 84094,36572 84093,36574 84091,36576 84090,36577 84089,36579 84087,36581 84086,36583 84085,36585 84083,36586 84082,36588 84081,36590 84080,36592 84079,36594 84078,36596 84077,36598 84076,36600 84076,36602 84075,36604 84074,36606 84073,36608 84073,36611 84072,36613 84072,36615 84071,36617 84071,36619 84071,36621 84070,36623 84070,36626 84070,36628 84070,36630 84070,36632 84070,36635 84070,37265 84070,37268 84070,37270 84070,37272 84070,37274 84070,37276 84071,37279 84071,37281 84071,37283 84072,37285 84072,37287 84073,37289 84073,37292 84074,37294 84075,37296 84076,37298 84076,37300 84077,37302 84078,37304 84079,37306 84080,37308 84081,37310 84082,37312 84083,37314 84085,37315 84086,37317 84087,37319 84089,37321 84090,37323 84091,37324 84093,37326 84094,37327 84096,37329 84098,37331 84099,37332 84101,37334 84102,37335 84104,37336 84106,37338 84108,37339 84110,37340 84111,37341 84113,37343 84115,37344 84117,37345 84119,37346 84121,37347 84123,37348 84125,37349 84127,37349 84129,37350 84131,37351 84133,37352 84135,37352 84138,37353 84140,37353 84142,37354 84144,37354 84146,37354 84149,37355 84151,37355 84153,37355 84155,37355 84157,37355 84160,37355 Z"/>
   </g>
  </g>
  <g class="com.sun.star.drawing.PolyPolygonShape">
   <g id="id5">
    <rect class="BoundingBox" stroke="none" fill="none" x="84113" y="36589" width="1174" height="723"/>
    <path fill="rgb(0,0,255)" stroke="none" d="M 84160,37310 L 85240,37310 85241,37310 85243,37310 85244,37310 85245,37310 85246,37310 85247,37310 85248,37310 85249,37310 85250,37309 85251,37309 85252,37309 85253,37309 85254,37308 85256,37308 85257,37307 85258,37307 85259,37307 85260,37306 85261,37306 85262,37305 85263,37305 85264,37304 85265,37303 85266,37302 85267,37302 85268,37301 85269,37300 85270,37300 85271,37299 85271,37298 85272,37297 85273,37296 85274,37296 85274,37295 85275,37294 85276,37293 85276,37292 85277,37291 85278,37290 85279,37289 85280,37288 85280,37287 85281,37286 85281,37285 85282,37284 85282,37283 85282,37282 85283,37281 85283,37280 85284,37278 85284,37277 85284,37276 85284,37275 85285,37274 85285,37273 85285,37272 85285,37271 85285,37270 85285,37269 85285,37268 85285,37267 85285,37266 85285,36635 85285,36633 85285,36632 85285,36631 85285,36630 85285,36629 85285,36628 85285,36627 85285,36626 85284,36625 85284,36624 85284,36622 85284,36621 85283,36620 85283,36619 85282,36618 85282,36617 85282,36616 85281,36615 85281,36614 85280,36613 85280,36612 85279,36611 85278,36610 85277,36609 85276,36608 85276,36607 85275,36606 85274,36605 85274,36604 85273,36603 85272,36603 85271,36602 85271,36601 85270,36600 85269,36600 85268,36599 85267,36598 85266,36598 85265,36597 85264,36597 85264,36596 85263,36595 85262,36595 85261,36594 85260,36594 85259,36593 85258,36593 85257,36593 85256,36592 85254,36592 85253,36591 85252,36591 85251,36591 85250,36591 85249,36590 85248,36590 85247,36590 85246,36590 85245,36590 85244,36590 85243,36590 85241,36590 85240,36590 84160,36590 84158,36590 84157,36590 84156,36590 84155,36590 84154,36590 84153,36590 84152,36590 84151,36590 84150,36591 84149,36591 84148,36591 84146,36591 84145,36592 84144,36592 84143,36593 84142,36593 84141,36593 84140,36594 84139,36594 84138,36595 84137,36595 84136,36596 84135,36597 84134,36598 84133,36598 84132,36599 84131,36600 84130,36600 84129,36601 84129,36602 84128,36603 84127,36603 84126,36604 84125,36605 84125,36606 84124,36607 84123,36608 84123,36609 84122,36610 84121,36611 84120,36612 84120,36613 84119,36614 84119,36615 84118,36616 84118,36617 84118,36618 84117,36619 84117,36620 84116,36621 84116,36622 84116,36624 84116,36625 84115,36626 84115,36627 84115,36628 84115,36629 84115,36630 84115,36631 84114,36632 84114,36633 84114,36635 84114,37265 84114,37267 84114,37268 84115,37269 84115,37270 84115,37271 84115,37272 84115,37273 84115,37274 84116,37275 84116,37276 84116,37277 84116,37278 84117,37280 84117,37281 84118,37282 84118,37283 84118,37284 84119,37285 84119,37286 84120,37287 84120,37288 84121,37289 84122,37290 84123,37291 84123,37292 84124,37293 84125,37294 84125,37295 84126,37296 84127,37296 84128,37297 84129,37298 84129,37299 84130,37300 84131,37300 84132,37301 84133,37302 84134,37302 84135,37303 84135,37304 84136,37304 84137,37305 84138,37305 84139,37306 84140,37306 84141,37307 84142,37307 84143,37307 84144,37308 84145,37308 84146,37309 84148,37309 84149,37309 84150,37309 84151,37310 84152,37310 84153,37310 84154,37310 84155,37310 84156,37310 84157,37310 84158,37310 84160,37310 Z"/>
    <path fill="none" stroke="rgb(0,0,255)" d="M 84160,37310 L 85240,37310 85241,37310 85243,37310 85244,37310 85245,37310 85246,37310 85247,37310 85248,37310 85249,37310 85250,37309 85251,37309 85252,37309 85253,37309 85254,37308 85256,37308 85257,37307 85258,37307 85259,37307 85260,37306 85261,37306 85262,37305 85263,37305 85264,37304 85265,37303 85266,37302 85267,37302 85268,37301 85269,37300 85270,37300 85271,37299 85271,37298 85272,37297 85273,37296 85274,37296 85274,37295 85275,37294 85276,37293 85276,37292 85277,37291 85278,37290 85279,37289 85280,37288 85280,37287 85281,37286 85281,37285 85282,37284 85282,37283 85282,37282 85283,37281 85283,37280 85284,37278 85284,37277 85284,37276 85284,37275 85285,37274 85285,37273 85285,37272 85285,37271 85285,37270 85285,37269 85285,37268 85285,37267 85285,37266 85285,36635 85285,36633 85285,36632 85285,36631 85285,36630 85285,36629 85285,36628 85285,36627 85285,36626 85284,36625 85284,36624 85284,36622 85284,36621 85283,36620 85283,36619 85282,36618 85282,36617 85282,36616 85281,36615 85281,36614 85280,36613 85280,36612 85279,36611 85278,36610 85277,36609 85276,36608 85276,36607 85275,36606 85274,36605 85274,36604 85273,36603 85272,36603 85271,36602 85271,36601 85270,36600 85269,36600 85268,36599 85267,36598 85266,36598 85265,36597 85264,36597 85264,36596 85263,36595 85262,36595 85261,36594 85260,36594 85259,36593 85258,36593 85257,36593 85256,36592 85254,36592 85253,36591 85252,36591 85251,36591 85250,36591 85249,36590 85248,36590 85247,36590 85246,36590 85245,36590 85244,36590 85243,36590 85241,36590 85240,36590 84160,36590 84158,36590 84157,36590 84156,36590 84155,36590 84154,36590 84153,36590 84152,36590 84151,36590 84150,36591 84149,36591 84148,36591 84146,36591 84145,36592 84144,36592 84143,36593 84142,36593 84141,36593 84140,36594 84139,36594 84138,36595 84137,36595 84136,36596 84135,36597 84134,36598 84133,36598 84132,36599 84131,36600 84130,36600 84129,36601 84129,36602 84128,36603 84127,36603 84126,36604 84125,36605 84125,36606 84124,36607 84123,36608 84123,36609 84122,36610 84121,36611 84120,36612 84120,36613 84119,36614 84119,36615 84118,36616 84118,36617 84118,36618 84117,36619 84117,36620 84116,36621 84116,36622 84116,36624 84116,36625 84115,36626 84115,36627 84115,36628 84115,36629 84115,36630 84115,36631 84114,36632 84114,36633 84114,36635 84114,37265 84114,37267 84114,37268 84115,37269 84115,37270 84115,37271 84115,37272 84115,37273 84115,37274 84116,37275 84116,37276 84116,37277 84116,37278 84117,37280 84117,37281 84118,37282 84118,37283 84118,37284 84119,37285 84119,37286 84120,37287 84120,37288 84121,37289 84122,37290 84123,37291 84123,37292 84124,37293 84125,37294 84125,37295 84126,37296 84127,37296 84128,37297 84129,37298 84129,37299 84130,37300 84131,37300 84132,37301 84133,37302 84134,37302 84135,37303 84135,37304 84136,37304 84137,37305 84138,37305 84139,37306 84140,37306 84141,37307 84142,37307 84143,37307 84144,37308 84145,37308 84146,37309 84148,37309 84149,37309 84150,37309 84151,37310 84152,37310 84153,37310 84154,37310 84155,37310 84156,37310 84157,37310 84158,37310 84160,37310 Z"/>
   </g>
  </g>
  <g class="com.sun.star.drawing.PolyPolygonShape">
   <g id="id6">
    <rect class="BoundingBox" stroke="none" fill="none" x="84279" y="36679" width="282" height="543"/>
    <path fill="rgb(255,255,255)" stroke="none" d="M 84280,37220 L 84280,36680 84362,36680 84489,37028 84489,36680 84559,36680 84559,37220 84478,37220 84350,36872 84350,37220 84280,37220 Z"/>
    <path fill="none" stroke="rgb(255,255,255)" d="M 84280,37220 L 84280,36680 84362,36680 84489,37028 84489,36680 84559,36680 84559,37220 84478,37220 84350,36872 84350,37220 84280,37220 Z"/>
   </g>
  </g>
 </g>
</svg>