<?xml version="1.0" encoding="UTF-8"?>
<!DOCTYPE svg PUBLIC "-//W3C//DTD SVG 1.1//EN" "http://www.w3.org/Graphics/SVG/1.1/DTD/svg11.dtd">
<svg version="1.2" width="13.53mm" height="9.03mm" viewBox="85924 36499 1353 903" preserveAspectRatio="xMidYMid" fill-rule="evenodd" stroke-width="28.222" stroke-linejoin="round" xmlns="http://www.w3.org/2000/svg" xmlns:ooo="http://xml.openoffice.org/svg/export" xmlns:xlink="http://www.w3.org/1999/xlink" xmlns:presentation="http://sun.com/xmlns/staroffice/presentation" xmlns:smil="http://www.w3.org/2001/SMIL20/" xmlns:anim="urn:oasis:names:tc:opendocument:xmlns:animation:1.0" xml:space="preserve">
 <defs class="EmbeddedBulletChars">
  <g id="bullet-char-template-57356" transform="scale(0.00048828125,-0.00048828125)">
   <path d="M 580,1141 L 1163,571 580,0 -4,571 580,1141 Z"/>
  </g>
  <g id="bullet-char-template-57354" transform="scale(0.00048828125,-0.00048828125)">
   <path d="M 8,1128 L 1137,1128 1137,0 8,0 8,1128 Z"/>
  </g>
  <g id="bullet-char-template-10146" transform="scale(0.00048828125,-0.00048828125)">
   <path d="M 174,0 L 602,739 174,1481 1456,739 174,0 Z M 1358,739 L 309,1346 659,739 1358,739 Z"/>
  </g>
  <g id="bullet-char-template-10132" transform="scale(0.00048828125,-0.00048828125)">
   <path d="M 2015,739 L 1276,0 717,0 1260,543 174,543 174,936 1260,936 717,1481 1274,1481 2015,739 Z"/>
  </g>
  <g id="bullet-char-template-10007" transform="scale(0.00048828125,-0.00048828125)">
   <path d="M 0,-2 C -7,14 -16,27 -25,37 L 356,567 C 262,823 215,952 215,954 215,979 228,992 255,992 264,992 276,990 289,987 310,991 331,999 354,1012 L 381,999 492,748 772,1049 836,1024 860,1049 C 881,1039 901,1025 922,1006 886,937 835,863 770,784 769,783 710,716 594,584 L 774,223 C 774,196 753,168 711,139 L 727,119 C 717,90 699,76 672,76 641,76 570,178 457,381 L 164,-76 C 142,-110 111,-127 72,-127 30,-127 9,-110 8,-76 1,-67 -2,-52 -2,-32 -2,-23 -1,-13 0,-2 Z"/>
  </g>
  <g id="bullet-char-template-10004" transform="scale(0.00048828125,-0.00048828125)">
   <path d="M 285,-33 C 182,-33 111,30 74,156 52,228 41,333 41,471 41,549 55,616 82,672 116,743 169,778 240,778 293,778 328,747 346,684 L 369,508 C 377,444 397,411 428,410 L 1163,1116 C 1174,1127 1196,1133 1229,1133 1271,1133 1292,1118 1292,1087 L 1292,965 C 1292,929 1282,901 1262,881 L 442,47 C 390,-6 338,-33 285,-33 Z"/>
  </g>
  <g id="bullet-char-template-9679" transform="scale(0.00048828125,-0.00048828125)">
   <path d="M 813,0 C 632,0 489,54 383,161 276,268 223,411 223,592 223,773 276,916 383,1023 489,1130 632,1184 813,1184 992,1184 1136,1130 1245,1023 1353,916 1407,772 1407,592 1407,412 1353,268 1245,161 1136,54 992,0 813,0 Z"/>
  </g>
  <g id="bullet-char-template-8226" transform="scale(0.00048828125,-0.00048828125)">
   <path d="M 346,457 C 273,457 209,483 155,535 101,586 74,649 74,723 74,796 101,859 155,911 209,963 273,989 346,989 419,989 480,963 531,910 582,859 608,796 608,723 608,648 583,586 532,535 482,483 420,457 346,457 Z"/>
  </g>
  <g id="bullet-char-template-8211" transform="scale(0.00048828125,-0.00048828125)">
   <path d="M -4,459 L 1135,459 1135,606 -4,606 -4,459 Z"/>
  </g>
  <g id="bullet-char-template-61548" transform="scale(0.00048828125,-0.00048828125)">
   <path d="M 173,740 C 173,903 231,1043 346,1159 462,1274 601,1332 765,1332 928,1332 1067,1274 1183,1159 1299,1043 1357,903 1357,740 1357,577 1299,437 1183,322 1067,206 928,148 765,148 601,148 462,206 346,322 231,437 173,577 173,740 Z"/>
  </g>
 </defs>
 <g class="Page">
  <g class="com.sun.star.drawing.PolyPolygonShape">
   <g id="id3">
    <rect class="BoundingBox" stroke="none" fill="none" x="85924" y="36499" width="1353" height="903"/>
    <path fill="rgb(255,255,255)" stroke="none" d="M 86059,37400 L 87140,37400 87142,37400 87144,37400 87145,37400 87147,37400 87149,37400 87150,37400 87152,37400 87153,37400 87155,37400 87157,37399 87158,37399 87160,37399 87162,37399 87163,37398 87165,37398 87167,37398 87168,37397 87170,37397 87172,37397 87173,37396 87175,37396 87176,37396 87178,37395 87180,37395 87181,37394 87183,37394 87184,37393 87186,37393 87187,37392 87189,37391 87190,37391 87192,37390 87194,37390 87195,37389 87197,37388 87198,37387 87199,37387 87201,37386 87203,37385 87204,37384 87205,37384 87207,37383 87208,37382 87210,37381 87211,37380 87213,37379 87214,37379 87215,37378 87217,37377 87218,37376 87219,37375 87221,37374 87222,37373 87223,37372 87225,37371 87226,37370 87227,37369 87228,37368 87230,37367 87231,37365 87232,37364 87233,37363 87235,37362 87236,37361 87237,37360 87238,37359 87239,37357 87240,37356 87241,37355 87243,37354 87244,37352 87244,37351 87246,37350 87247,37348 87248,37347 87249,37346 87250,37344 87251,37343 87252,37342 87253,37340 87253,37339 87254,37338 87255,37336 87256,37335 87257,37333 87258,37332 87259,37331 87259,37329 87260,37328 87261,37326 87262,37325 87262,37323 87263,37322 87264,37320 87264,37319 87265,37317 87266,37316 87266,37314 87267,37312 87267,37311 87268,37308 87268,37307 87269,37305 87269,37304 87270,37302 87270,37300 87271,37299 87271,37297 87272,37296 87272,37294 87272,37292 87273,37291 87273,37289 87273,37287 87274,37286 87274,37284 87274,37283 87274,37281 87274,37279 87275,37278 87275,37276 87275,37274 87275,37273 87275,37271 87275,37269 87275,37268 87275,37266 87275,37265 87275,36635 87275,36633 87275,36631 87275,36630 87275,36628 87275,36626 87275,36625 87275,36623 87275,36621 87274,36620 87274,36618 87274,36616 87274,36615 87274,36613 87273,36611 87273,36610 87273,36608 87272,36607 87272,36605 87272,36603 87271,36602 87271,36600 87270,36599 87270,36597 87269,36595 87269,36594 87268,36592 87268,36591 87267,36589 87267,36587 87266,36586 87266,36584 87265,36583 87264,36581 87264,36580 87263,36578 87262,36577 87262,36575 87261,36574 87260,36572 87259,36571 87259,36569 87258,36568 87257,36567 87256,36565 87255,36564 87254,36562 87253,36561 87253,36560 87252,36558 87251,36557 87250,36555 87249,36554 87248,36553 87247,36551 87246,36550 87244,36549 87244,36548 87243,36546 87241,36545 87240,36544 87239,36543 87238,36541 87237,36540 87236,36539 87235,36538 87233,36537 87232,36536 87231,36535 87230,36533 87228,36532 87227,36531 87226,36530 87225,36529 87223,36528 87222,36527 87221,36526 87219,36525 87218,36524 87217,36523 87215,36522 87214,36521 87213,36520 87211,36520 87210,36519 87208,36518 87207,36517 87205,36516 87204,36515 87203,36515 87201,36514 87199,36513 87198,36513 87197,36512 87195,36511 87194,36510 87192,36510 87190,36509 87189,36509 87187,36508 87186,36507 87184,36507 87183,36506 87181,36506 87180,36505 87178,36505 87176,36504 87175,36504 87173,36504 87172,36503 87170,36503 87168,36502 87167,36502 87165,36502 87163,36501 87162,36501 87160,36501 87158,36501 87157,36501 87155,36500 87153,36500 87152,36500 87150,36500 87149,36500 87147,36500 87145,36500 87144,36500 87142,36500 87140,36500 86060,36500 86058,36500 86056,36500 86054,36500 86053,36500 86051,36500 86049,36500 86048,36500 86046,36500 86045,36500 86043,36501 86041,36501 86040,36501 86038,36501 86036,36501 86035,36502 86033,36502 86031,36502 86030,36503 86028,36503 86027,36504 86025,36504 86023,36504 86022,36505 86020,36505 86019,36506 86017,36506 86016,36507 86014,36507 86012,36508 86011,36509 86009,36509 86008,36510 86006,36510 86005,36511 86003,36512 86002,36513 86000,36513 85999,36514 85997,36515 85996,36515 85994,36516 85993,36517 85992,36518 85990,36519 85989,36520 85987,36520 85986,36521 85985,36522 85983,36523 85982,36524 85980,36525 85979,36526 85978,36527 85976,36528 85975,36529 85974,36530 85973,36531 85971,36532 85970,36533 85969,36535 85968,36536 85966,36537 85965,36538 85964,36539 85963,36540 85962,36541 85961,36543 85959,36544 85958,36545 85957,36546 85956,36548 85955,36549 85954,36550 85953,36551 85952,36553 85951,36554 85950,36555 85949,36557 85948,36558 85947,36560 85946,36561 85945,36562 85945,36564 85944,36565 85943,36567 85942,36568 85941,36569 85940,36571 85940,36572 85939,36574 85938,36575 85937,36577 85937,36578 85936,36580 85935,36581 85935,36583 85934,36584 85934,36586 85933,36587 85932,36589 85932,36591 85931,36592 85931,36594 85930,36595 85930,36597 85929,36599 85929,36600 85929,36602 85928,36603 85928,36605 85927,36607 85927,36608 85927,36610 85927,36611 85926,36613 85926,36615 85926,36616 85925,36618 85925,36620 85925,36621 85925,36623 85925,36625 85925,36626 85925,36628 85925,36630 85925,36631 85925,36633 85925,36635 85925,37264 85925,37266 85925,37268 85925,37269 85925,37271 85925,37273 85925,37274 85925,37276 85925,37278 85925,37279 85925,37281 85926,37283 85926,37284 85926,37286 85927,37287 85927,37289 85927,37291 85927,37292 85928,37294 85928,37296 85929,37297 85929,37299 85929,37300 85930,37302 85930,37304 85931,37305 85931,37307 85932,37308 85932,37311 85933,37312 85934,37314 85934,37316 85935,37317 85935,37319 85936,37320 85937,37322 85937,37323 85938,37325 85939,37326 85940,37328 85940,37329 85941,37331 85942,37332 85943,37333 85944,37335 85945,37336 85945,37338 85946,37339 85947,37340 85948,37342 85949,37343 85950,37344 85951,37346 85952,37347 85953,37348 85954,37350 85955,37351 85956,37352 85957,37354 85958,37355 85959,37356 85961,37357 85962,37359 85963,37360 85964,37361 85965,37362 85966,37363 85968,37364 85969,37365 85970,37367 85971,37368 85973,37369 85974,37370 85975,37371 85976,37372 85978,37373 85979,37374 85980,37375 85982,37376 85983,37377 85985,37378 85986,37379 85987,37379 85989,37380 85990,37381 85992,37382 85993,37383 85994,37384 85996,37384 85997,37385 85999,37386 86000,37387 86002,37387 86003,37388 86005,37389 86006,37390 86008,37390 86009,37391 86011,37391 86012,37392 86014,37393 86016,37393 86017,37394 86019,37394 86020,37395 86022,37395 86023,37396 86025,37396 86027,37396 86028,37397 86030,37397 86031,37397 86033,37398 86035,37398 86036,37398 86038,37399 86040,37399 86041,37399 86043,37399 86045,37400 86046,37400 86048,37400 86049,37400 86051,37400 86053,37400 86054,37400 86056,37400 86058,37400 86059,37400 Z"/>
    <path fill="none" stroke="rgb(0,0,0)" d="M 86059,37400 L 87140,37400 87142,37400 87144,37400 87145,37400 87147,37400 87149,37400 87150,37400 87152,37400 87153,37400 87155,37400 87157,37399 87158,37399 87160,37399 87162,37399 87163,37398 87165,37398 87167,37398 87168,37397 87170,37397 87172,37397 87173,37396 87175,37396 87176,37396 87178,37395 87180,37395 87181,37394 87183,37394 87184,37393 87186,37393 87187,37392 87189,37391 87190,37391 87192,37390 87194,37390 87195,37389 87197,37388 87198,37387 87199,37387 87201,37386 87203,37385 87204,37384 87205,37384 87207,37383 87208,37382 87210,37381 87211,37380 87213,37379 87214,37379 87215,37378 87217,37377 87218,37376 87219,37375 87221,37374 87222,37373 87223,37372 87225,37371 87226,37370 87227,37369 87228,37368 87230,37367 87231,37365 87232,37364 87233,37363 87235,37362 87236,37361 87237,37360 87238,37359 87239,37357 87240,37356 87241,37355 87243,37354 87244,37352 87244,37351 87246,37350 87247,37348 87248,37347 87249,37346 87250,37344 87251,37343 87252,37342 87253,37340 87253,37339 87254,37338 87255,37336 87256,37335 87257,37333 87258,37332 87259,37331 87259,37329 87260,37328 87261,37326 87262,37325 87262,37323 87263,37322 87264,37320 87264,37319 87265,37317 87266,37316 87266,37314 87267,37312 87267,37311 87268,37308 87268,37307 87269,37305 87269,37304 87270,37302 87270,37300 87271,37299 87271,37297 87272,37296 87272,37294 87272,37292 87273,37291 87273,37289 87273,37287 87274,37286 87274,37284 87274,37283 87274,37281 87274,37279 87275,37278 87275,37276 87275,37274 87275,37273 87275,37271 87275,37269 87275,37268 87275,37266 87275,37265 87275,36635 87275,36633 87275,36631 87275,36630 87275,36628 87275,36626 87275,36625 87275,36623 87275,36621 87274,36620 87274,36618 87274,36616 87274,36615 87274,36613 87273,36611 87273,36610 87273,36608 87272,36607 87272,36605 87272,36603 87271,36602 87271,36600 87270,36599 87270,36597 87269,36595 87269,36594 87268,36592 87268,36591 87267,36589 87267,36587 87266,36586 87266,36584 87265,36583 87264,36581 87264,36580 87263,36578 87262,36577 87262,36575 87261,36574 87260,36572 87259,36571 87259,36569 87258,36568 87257,36567 87256,36565 87255,36564 87254,36562 87253,36561 87253,36560 87252,36558 87251,36557 87250,36555 87249,36554 87248,36553 87247,36551 87246,36550 87244,36549 87244,36548 87243,36546 87241,36545 87240,36544 87239,36543 87238,36541 87237,36540 87236,36539 87235,36538 87233,36537 87232,36536 87231,36535 87230,36533 87228,36532 87227,36531 87226,36530 87225,36529 87223,36528 87222,36527 87221,36526 87219,36525 87218,36524 87217,36523 87215,36522 87214,36521 87213,36520 87211,36520 87210,36519 87208,36518 87207,36517 87205,36516 87204,36515 87203,36515 87201,36514 87199,36513 87198,36513 87197,36512 87195,36511 87194,36510 87192,36510 87190,36509 87189,36509 87187,36508 87186,36507 87184,36507 87183,36506 87181,36506 87180,36505 87178,36505 87176,36504 87175,36504 87173,36504 87172,36503 87170,36503 87168,36502 87167,36502 87165,36502 87163,36501 87162,36501 87160,36501 87158,36501 87157,36501 87155,36500 87153,36500 87152,36500 87150,36500 87149,36500 87147,36500 87145,36500 87144,36500 87142,36500 87140,36500 86060,36500 86058,36500 86056,36500 86054,36500 86053,36500 86051,36500 86049,36500 86048,36500 86046,36500 86045,36500 86043,36501 86041,36501 86040,36501 86038,36501 86036,36501 86035,36502 86033,36502 86031,36502 86030,36503 86028,36503 86027,36504 86025,36504 86023,36504 86022,36505 86020,36505 86019,36506 86017,36506 86016,36507 86014,36507 86012,36508 86011,36509 86009,36509 86008,36510 86006,36510 86005,36511 86003,36512 86002,36513 86000,36513 85999,36514 85997,36515 85996,36515 85994,36516 85993,36517 85992,36518 85990,36519 85989,36520 85987,36520 85986,36521 85985,36522 85983,36523 85982,36524 85980,36525 85979,36526 85978,36527 85976,36528 85975,36529 85974,36530 85973,36531 85971,36532 85970,36533 85969,36535 85968,36536 85966,36537 85965,36538 85964,36539 85963,36540 85962,36541 85961,36543 85959,36544 85958,36545 85957,36546 85956,36548 85955,36549 85954,36550 85953,36551 85952,36553 85951,36554 85950,36555 85949,36557 85948,36558 85947,36560 85946,36561 85945,36562 85945,36564 85944,36565 85943,36567 85942,36568 85941,36569 85940,36571 85940,36572 85939,36574 85938,36575 85937,36577 85937,36578 85936,36580 85935,36581 85935,36583 85934,36584 85934,36586 85933,36587 85932,36589 85932,36591 85931,36592 85931,36594 85930,36595 85930,36597 85929,36599 85929,36600 85929,36602 85928,36603 85928,36605 85927,36607 85927,36608 85927,36610 85927,36611 85926,36613 85926,36615 85926,36616 85925,36618 85925,36620 85925,36621 85925,36623 85925,36625 85925,36626 85925,36628 85925,36630 85925,36631 85925,36633 85925,36635 85925,37264 85925,37266 85925,37268 85925,37269 85925,37271 85925,37273 85925,37274 85925,37276 85925,37278 85925,37279 85925,37281 85926,37283 85926,37284 85926,37286 85927,37287 85927,37289 85927,37291 85927,37292 85928,37294 85928,37296 85929,37297 85929,37299 85929,37300 85930,37302 85930,37304 85931,37305 85931,37307 85932,37308 85932,37311 85933,37312 85934,37314 85934,37316 85935,37317 85935,37319 85936,37320 85937,37322 85937,37323 85938,37325 85939,37326 85940,37328 85940,37329 85941,37331 85942,37332 85943,37333 85944,37335 85945,37336 85945,37338 85946,37339 85947,37340 85948,37342 85949,37343 85950,37344 85951,37346 85952,37347 85953,37348 85954,37350 85955,37351 85956,37352 85957,37354 85958,37355 85959,37356 85961,37357 85962,37359 85963,37360 85964,37361 85965,37362 85966,37363 85968,37364 85969,37365 85970,37367 85971,37368 85973,37369 85974,37370 85975,37371 85976,37372 85978,37373 85979,37374 85980,37375 85982,37376 85983,37377 85985,37378 85986,37379 85987,37379 85989,37380 85990,37381 85992,37382 85993,37383 85994,37384 85996,37384 85997,37385 85999,37386 86000,37387 86002,37387 86003,37388 86005,37389 86006,37390 86008,37390 86009,37391 86011,37391 86012,37392 86014,37393 86016,37393 86017,37394 86019,37394 86020,37395 86022,37395 86023,37396 86025,37396 86027,37396 86028,37397 86030,37397 86031,37397 86033,37398 86035,37398 86036,37398 86038,37399 86040,37399 86041,37399 86043,37399 86045,37400 86046,37400 86048,37400 86049,37400 86051,37400 86053,37400 86054,37400 86056,37400 86058,37400 86059,37400 Z"/>
   </g>
  </g>
  <g class="com.sun.star.drawing.PolyPolygonShape">
   <g id="id4">
    <rect class="BoundingBox" stroke="none" fill="none" x="85968" y="36544" width="1264" height="813"/>
    <path fill="rgb(0,0,0)" stroke="none" d="M 86059,37355 L 87140,37355 87142,37355 87145,37355 87147,37355 87149,37355 87151,37355 87153,37354 87156,37354 87158,37354 87160,37353 87162,37353 87164,37352 87166,37352 87169,37351 87171,37350 87173,37349 87175,37349 87177,37348 87179,37347 87181,37346 87183,37345 87185,37344 87187,37343 87188,37341 87190,37340 87192,37339 87194,37338 87196,37336 87197,37335 87199,37334 87201,37332 87202,37331 87204,37329 87205,37327 87207,37326 87209,37324 87210,37323 87211,37321 87213,37319 87214,37317 87215,37315 87216,37314 87217,37312 87219,37310 87220,37308 87221,37306 87222,37304 87223,37302 87223,37300 87224,37298 87225,37296 87226,37294 87227,37292 87227,37289 87228,37287 87228,37285 87229,37283 87229,37281 87229,37279 87230,37276 87230,37274 87230,37272 87230,37270 87230,37268 87230,37266 87230,36635 87230,36632 87230,36630 87230,36628 87230,36626 87230,36623 87229,36621 87229,36619 87229,36617 87228,36615 87228,36613 87227,36611 87227,36608 87226,36606 87225,36604 87224,36602 87223,36600 87223,36598 87222,36596 87221,36594 87220,36592 87219,36590 87217,36588 87216,36586 87215,36585 87214,36583 87213,36581 87211,36579 87210,36577 87209,36576 87207,36574 87205,36572 87204,36571 87202,36569 87201,36568 87199,36566 87197,36565 87196,36564 87194,36562 87192,36561 87190,36560 87188,36559 87187,36557 87185,36556 87183,36555 87181,36554 87179,36553 87177,36552 87175,36551 87173,36551 87171,36550 87169,36549 87166,36548 87164,36548 87162,36547 87160,36547 87158,36546 87156,36546 87153,36545 87151,36545 87149,36545 87147,36545 87145,36545 87142,36545 87140,36545 86060,36545 86057,36545 86055,36545 86053,36545 86051,36545 86048,36545 86046,36545 86044,36546 86042,36546 86040,36547 86038,36547 86035,36548 86033,36548 86031,36549 86029,36550 86027,36551 86025,36551 86023,36552 86021,36553 86019,36554 86017,36555 86015,36556 86013,36557 86011,36559 86009,36560 86008,36561 86006,36562 86004,36564 86002,36565 86001,36566 85999,36568 85997,36569 85996,36571 85994,36572 85993,36574 85991,36576 85990,36577 85988,36579 85987,36581 85986,36583 85985,36585 85983,36586 85982,36588 85981,36590 85980,36592 85979,36594 85978,36596 85977,36598 85976,36600 85975,36602 85975,36604 85974,36606 85973,36608 85973,36611 85972,36613 85972,36615 85971,36617 85971,36619 85970,36621 85970,36623 85970,36626 85970,36628 85970,36630 85969,36632 85969,36635 85969,37265 85969,37268 85970,37270 85970,37272 85970,37274 85970,37276 85970,37279 85971,37281 85971,37283 85972,37285 85972,37287 85973,37289 85973,37292 85974,37294 85975,37296 85975,37298 85976,37300 85977,37302 85978,37304 85979,37306 85980,37308 85981,37310 85982,37312 85983,37314 85985,37315 85986,37317 85987,37319 85988,37321 85990,37323 85991,37324 85993,37326 85994,37327 85996,37329 85997,37331 85999,37332 86001,37334 86002,37335 86004,37336 86006,37338 86008,37339 86009,37340 86011,37341 86013,37343 86015,37344 86017,37345 86019,37346 86021,37347 86023,37348 86025,37349 86027,37349 86029,37350 86031,37351 86033,37352 86035,37352 86038,37353 86040,37353 86042,37354 86044,37354 86046,37354 86048,37355 86051,37355 86053,37355 86055,37355 86057,37355 86059,37355 Z"/>
    <path fill="none" stroke="rgb(0,0,0)" d="M 86059,37355 L 87140,37355 87142,37355 87145,37355 87147,37355 87149,37355 87151,37355 87153,37354 87156,37354 87158,37354 87160,37353 87162,37353 87164,37352 87166,37352 87169,37351 87171,37350 87173,37349 87175,37349 87177,37348 87179,37347 87181,37346 87183,37345 87185,37344 87187,37343 87188,37341 87190,37340 87192,37339 87194,37338 87196,37336 87197,37335 87199,37334 87201,37332 87202,37331 87204,37329 87205,37327 87207,37326 87209,37324 87210,37323 87211,37321 87213,37319 87214,37317 87215,37315 87216,37314 87217,37312 87219,37310 87220,37308 87221,37306 87222,37304 87223,37302 87223,37300 87224,37298 87225,37296 87226,37294 87227,37292 87227,37289 87228,37287 87228,37285 87229,37283 87229,37281 87229,37279 87230,37276 87230,37274 87230,37272 87230,37270 87230,37268 87230,37266 87230,36635 87230,36632 87230,36630 87230,36628 87230,36626 87230,36623 87229,36621 87229,36619 87229,36617 87228,36615 87228,36613 87227,36611 87227,36608 87226,36606 87225,36604 87224,36602 87223,36600 87223,36598 87222,36596 87221,36594 87220,36592 87219,36590 87217,36588 87216,36586 87215,36585 87214,36583 87213,36581 87211,36579 87210,36577 87209,36576 87207,36574 87205,36572 87204,36571 87202,36569 87201,36568 87199,36566 87197,36565 87196,36564 87194,36562 87192,36561 87190,36560 87188,36559 87187,36557 87185,36556 87183,36555 87181,36554 87179,36553 87177,36552 87175,36551 87173,36551 87171,36550 87169,36549 87166,36548 87164,36548 87162,36547 87160,36547 87158,36546 87156,36546 87153,36545 87151,36545 87149,36545 87147,36545 87145,36545 87142,36545 87140,36545 86060,36545 86057,36545 86055,36545 86053,36545 86051,36545 86048,36545 86046,36545 86044,36546 86042,36546 86040,36547 86038,36547 86035,36548 86033,36548 86031,36549 86029,36550 86027,36551 86025,36551 86023,36552 86021,36553 86019,36554 86017,36555 86015,36556 86013,36557 86011,36559 86009,36560 86008,36561 86006,36562 86004,36564 86002,36565 86001,36566 85999,36568 85997,36569 85996,36571 85994,36572 85993,36574 85991,36576 85990,36577 85988,36579 85987,36581 85986,36583 85985,36585 85983,36586 85982,36588 85981,36590 85980,36592 85979,36594 85978,36596 85977,36598 85976,36600 85975,36602 85975,36604 85974,36606 85973,36608 85973,36611 85972,36613 85972,36615 85971,36617 85971,36619 85970,36621 85970,36623 85970,36626 85970,36628 85970,36630 85969,36632 85969,36635 85969,37265 85969,37268 85970,37270 85970,37272 85970,37274 85970,37276 85970,37279 85971,37281 85971,37283 85972,37285 85972,37287 85973,37289 85973,37292 85974,37294 85975,37296 85975,37298 85976,37300 85977,37302 85978,37304 85979,37306 85980,37308 85981,37310 85982,37312 85983,37314 85985,37315 85986,37317 85987,37319 85988,37321 85990,37323 85991,37324 85993,37326 85994,37327 85996,37329 85997,37331 85999,37332 86001,37334 86002,37335 86004,37336 86006,37338 86008,37339 86009,37340 86011,37341 86013,37343 86015,37344 86017,37345 86019,37346 86021,37347 86023,37348 86025,37349 86027,37349 86029,37350 86031,37351 86033,37352 86035,37352 86038,37353 86040,37353 86042,37354 86044,37354 86046,37354 86048,37355 86051,37355 86053,37355 86055,37355 86057,37355 86059,37355 Z"/>
   </g>
  </g>
  <g class="com.sun.star.drawing.PolyPolygonShape">
   <g id="id5">
    <rect class="BoundingBox" stroke="none" fill="none" x="86013" y="36589" width="1174" height="723"/>
    <path fill="rgb(255,255,255)" stroke="none" d="M 86059,37310 L 87140,37310 87141,37310 87142,37310 87144,37310 87145,37310 87146,37310 87147,37310 87148,37310 87149,37310 87150,37309 87151,37309 87152,37309 87153,37309 87154,37308 87155,37308 87156,37307 87158,37307 87159,37307 87160,37306 87161,37306 87162,37305 87163,37304 87164,37304 87165,37303 87166,37302 87167,37302 87168,37301 87169,37300 87170,37300 87171,37299 87171,37298 87172,37297 87173,37296 87174,37296 87174,37295 87175,37294 87176,37293 87176,37292 87177,37291 87178,37290 87179,37289 87179,37288 87180,37287 87181,37286 87181,37285 87181,37284 87182,37283 87182,37282 87183,37281 87183,37280 87183,37278 87184,37277 87184,37276 87184,37275 87184,37274 87185,37273 87185,37272 87185,37271 87185,37270 87185,37269 87185,37268 87185,37267 87185,37266 87185,36635 87185,36633 87185,36632 87185,36631 87185,36630 87185,36629 87185,36628 87185,36627 87184,36626 87184,36625 87184,36624 87184,36622 87183,36621 87183,36620 87183,36619 87182,36618 87182,36617 87181,36616 87181,36615 87181,36614 87180,36613 87179,36612 87179,36611 87178,36610 87177,36609 87176,36608 87176,36607 87175,36606 87174,36605 87174,36604 87173,36603 87172,36603 87171,36602 87171,36601 87170,36600 87169,36600 87168,36599 87167,36598 87166,36598 87165,36597 87164,36597 87163,36596 87162,36595 87161,36594 87160,36594 87159,36593 87158,36593 87156,36593 87155,36592 87154,36592 87153,36591 87152,36591 87151,36591 87150,36591 87149,36590 87148,36590 87147,36590 87146,36590 87145,36590 87144,36590 87142,36590 87141,36590 87140,36590 86060,36590 86058,36590 86057,36590 86056,36590 86055,36590 86054,36590 86053,36590 86052,36590 86051,36590 86050,36591 86049,36591 86047,36591 86046,36591 86045,36592 86044,36592 86043,36593 86042,36593 86041,36593 86040,36594 86039,36594 86038,36595 86037,36595 86036,36596 86035,36597 86034,36597 86034,36598 86033,36598 86032,36599 86031,36600 86030,36600 86029,36601 86028,36602 86028,36603 86027,36603 86026,36604 86025,36605 86025,36606 86024,36607 86023,36608 86023,36609 86022,36610 86021,36610 86021,36611 86020,36612 86020,36613 86019,36614 86019,36615 86018,36616 86018,36617 86017,36618 86017,36619 86017,36620 86016,36621 86016,36622 86016,36624 86016,36625 86015,36626 86015,36627 86015,36628 86015,36629 86015,36630 86015,36631 86014,36632 86014,36633 86014,36635 86014,37265 86014,37267 86014,37268 86015,37269 86015,37270 86015,37271 86015,37272 86015,37273 86015,37274 86016,37275 86016,37276 86016,37277 86016,37278 86017,37280 86017,37281 86017,37282 86018,37283 86018,37284 86019,37285 86019,37286 86020,37287 86020,37288 86021,37289 86021,37290 86022,37290 86023,37291 86023,37292 86024,37293 86025,37294 86025,37295 86026,37296 86027,37296 86028,37297 86028,37298 86029,37299 86030,37300 86031,37300 86032,37301 86033,37302 86034,37302 86034,37303 86035,37304 86036,37304 86037,37305 86038,37305 86039,37306 86040,37306 86041,37307 86042,37307 86043,37307 86044,37308 86045,37308 86046,37309 86047,37309 86049,37309 86050,37309 86051,37310 86052,37310 86053,37310 86054,37310 86055,37310 86056,37310 86057,37310 86058,37310 86060,37310 86059,37310 Z"/>
    <path fill="none" stroke="rgb(255,255,255)" d="M 86059,37310 L 87140,37310 87141,37310 87142,37310 87144,37310 87145,37310 87146,37310 87147,37310 87148,37310 87149,37310 87150,37309 87151,37309 87152,37309 87153,37309 87154,37308 87155,37308 87156,37307 87158,37307 87159,37307 87160,37306 87161,37306 87162,37305 87163,37304 87164,37304 87165,37303 87166,37302 87167,37302 87168,37301 87169,37300 87170,37300 87171,37299 87171,37298 87172,37297 87173,37296 87174,37296 87174,37295 87175,37294 87176,37293 87176,37292 87177,37291 87178,37290 87179,37289 87179,37288 87180,37287 87181,37286 87181,37285 87181,37284 87182,37283 87182,37282 87183,37281 87183,37280 87183,37278 87184,37277 87184,37276 87184,37275 87184,37274 87185,37273 87185,37272 87185,37271 87185,37270 87185,37269 87185,37268 87185,37267 87185,37266 87185,36635 87185,36633 87185,36632 87185,36631 87185,36630 87185,36629 87185,36628 87185,36627 87184,36626 87184,36625 87184,36624 87184,36622 87183,36621 87183,36620 87183,36619 87182,36618 87182,36617 87181,36616 87181,36615 87181,36614 87180,36613 87179,36612 87179,36611 87178,36610 87177,36609 87176,36608 87176,36607 87175,36606 87174,36605 87174,36604 87173,36603 87172,36603 87171,36602 87171,36601 87170,36600 87169,36600 87168,36599 87167,36598 87166,36598 87165,36597 87164,36597 87163,36596 87162,36595 87161,36594 87160,36594 87159,36593 87158,36593 87156,36593 87155,36592 87154,36592 87153,36591 87152,36591 87151,36591 87150,36591 87149,36590 87148,36590 87147,36590 87146,36590 87145,36590 87144,36590 87142,36590 87141,36590 87140,36590 86060,36590 86058,36590 86057,36590 86056,36590 86055,36590 86054,36590 86053,36590 86052,36590 86051,36590 86050,36591 86049,36591 86047,36591 86046,36591 86045,36592 86044,36592 86043,36593 86042,36593 86041,36593 86040,36594 86039,36594 86038,36595 86037,36595 86036,36596 86035,36597 86034,36597 86034,36598 86033,36598 86032,36599 86031,36600 86030,36600 86029,36601 86028,36602 86028,36603 86027,36603 86026,36604 86025,36605 86025,36606 86024,36607 86023,36608 86023,36609 86022,36610 86021,36610 86021,36611 86020,36612 86020,36613 86019,36614 86019,36615 86018,36616 86018,36617 86017,36618 86017,36619 86017,36620 86016,36621 86016,36622 86016,36624 86016,36625 86015,36626 86015,36627 86015,36628 86015,36629 86015,36630 86015,36631 86014,36632 86014,36633 86014,36635 86014,37265 86014,37267 86014,37268 86015,37269 86015,37270 86015,37271 86015,37272 86015,37273 86015,37274 86016,37275 86016,37276 86016,37277 86016,37278 86017,37280 86017,37281 86017,37282 86018,37283 86018,37284 86019,37285 86019,37286 86020,37287 86020,37288 86021,37289 86021,37290 86022,37290 86023,37291 86023,37292 86024,37293 86025,37294 86025,37295 86026,37296 86027,37296 86028,37297 86028,37298 86029,37299 86030,37300 86031,37300 86032,37301 86033,37302 86034,37302 86034,37303 86035,37304 86036,37304 86037,37305 86038,37305 86039,37306 86040,37306 86041,37307 86042,37307 86043,37307 86044,37308 86045,37308 86046,37309 86047,37309 86049,37309 86050,37309 86051,37310 86052,37310 86053,37310 86054,37310 86055,37310 86056,37310 86057,37310 86058,37310 86060,37310 86059,37310 Z"/>
   </g>
  </g>
  <g class="com.sun.star.drawing.PolyPolygonShape">
   <g id="id6">
    <rect class="BoundingBox" stroke="none" fill="none" x="86156" y="36679" width="328" height="543"/>
    <path fill="rgb(0,0,0)" stroke="none" d="M 86265,37089 L 86373,37089 86319,36845 86265,37089 Z M 86157,37220 L 86236,37220 86249,37159 86388,37159 86402,37220 86482,37220 86361,36680 86276,36680 86157,37220 Z"/>
    <path fill="none" stroke="rgb(0,0,0)" d="M 86265,37089 L 86373,37089 86319,36845 86265,37089 Z"/>
    <path fill="none" stroke="rgb(0,0,0)" d="M 86157,37220 L 86236,37220 86249,37159 86388,37159 86402,37220 86482,37220 86361,36680 86276,36680 86157,37220 Z"/>
   </g>
  </g>
 </g>
</svg>