<?xml version="1.0" encoding="UTF-8"?>
<!DOCTYPE svg PUBLIC "-//W3C//DTD SVG 1.1//EN" "http://www.w3.org/Graphics/SVG/1.1/DTD/svg11.dtd">
<svg version="1.2" width="13.53mm" height="9.04mm" viewBox="84024 38098 1353 904" preserveAspectRatio="xMidYMid" fill-rule="evenodd" stroke-width="28.222" stroke-linejoin="round" xmlns="http://www.w3.org/2000/svg" xmlns:ooo="http://xml.openoffice.org/svg/export" xmlns:xlink="http://www.w3.org/1999/xlink" xmlns:presentation="http://sun.com/xmlns/staroffice/presentation" xmlns:smil="http://www.w3.org/2001/SMIL20/" xmlns:anim="urn:oasis:names:tc:opendocument:xmlns:animation:1.0" xml:space="preserve">
 <defs class="EmbeddedBulletChars">
  <g id="bullet-char-template-57356" transform="scale(0.00048828125,-0.00048828125)">
   <path d="M 580,1141 L 1163,571 580,0 -4,571 580,1141 Z"/>
  </g>
  <g id="bullet-char-template-57354" transform="scale(0.00048828125,-0.00048828125)">
   <path d="M 8,1128 L 1137,1128 1137,0 8,0 8,1128 Z"/>
  </g>
  <g id="bullet-char-template-10146" transform="scale(0.00048828125,-0.00048828125)">
   <path d="M 174,0 L 602,739 174,1481 1456,739 174,0 Z M 1358,739 L 309,1346 659,739 1358,739 Z"/>
  </g>
  <g id="bullet-char-template-10132" transform="scale(0.00048828125,-0.00048828125)">
   <path d="M 2015,739 L 1276,0 717,0 1260,543 174,543 174,936 1260,936 717,1481 1274,1481 2015,739 Z"/>
  </g>
  <g id="bullet-char-template-10007" transform="scale(0.00048828125,-0.00048828125)">
   <path d="M 0,-2 C -7,14 -16,27 -25,37 L 356,567 C 262,823 215,952 215,954 215,979 228,992 255,992 264,992 276,990 289,987 310,991 331,999 354,1012 L 381,999 492,748 772,1049 836,1024 860,1049 C 881,1039 901,1025 922,1006 886,937 835,863 770,784 769,783 710,716 594,584 L 774,223 C 774,196 753,168 711,139 L 727,119 C 717,90 699,76 672,76 641,76 570,178 457,381 L 164,-76 C 142,-110 111,-127 72,-127 30,-127 9,-110 8,-76 1,-67 -2,-52 -2,-32 -2,-23 -1,-13 0,-2 Z"/>
  </g>
  <g id="bullet-char-template-10004" transform="scale(0.00048828125,-0.00048828125)">
   <path d="M 285,-33 C 182,-33 111,30 74,156 52,228 41,333 41,471 41,549 55,616 82,672 116,743 169,778 240,778 293,778 328,747 346,684 L 369,508 C 377,444 397,411 428,410 L 1163,1116 C 1174,1127 1196,1133 1229,1133 1271,1133 1292,1118 1292,1087 L 1292,965 C 1292,929 1282,901 1262,881 L 442,47 C 390,-6 338,-33 285,-33 Z"/>
  </g>
  <g id="bullet-char-template-9679" transform="scale(0.00048828125,-0.00048828125)">
   <path d="M 813,0 C 632,0 489,54 383,161 276,268 223,411 223,592 223,773 276,916 383,1023 489,1130 632,1184 813,1184 992,1184 1136,1130 1245,1023 1353,916 1407,772 1407,592 1407,412 1353,268 1245,161 1136,54 992,0 813,0 Z"/>
  </g>
  <g id="bullet-char-template-8226" transform="scale(0.00048828125,-0.00048828125)">
   <path d="M 346,457 C 273,457 209,483 155,535 101,586 74,649 74,723 74,796 101,859 155,911 209,963 273,989 346,989 419,989 480,963 531,910 582,859 608,796 608,723 608,648 583,586 532,535 482,483 420,457 346,457 Z"/>
  </g>
  <g id="bullet-char-template-8211" transform="scale(0.00048828125,-0.00048828125)">
   <path d="M -4,459 L 1135,459 1135,606 -4,606 -4,459 Z"/>
  </g>
  <g id="bullet-char-template-61548" transform="scale(0.00048828125,-0.00048828125)">
   <path d="M 173,740 C 173,903 231,1043 346,1159 462,1274 601,1332 765,1332 928,1332 1067,1274 1183,1159 1299,1043 1357,903 1357,740 1357,577 1299,437 1183,322 1067,206 928,148 765,148 601,148 462,206 346,322 231,437 173,577 173,740 Z"/>
  </g>
 </defs>
 <g class="Page">
  <g class="com.sun.star.drawing.PolyPolygonShape">
   <g id="id3">
    <rect class="BoundingBox" stroke="none" fill="none" x="84024" y="38098" width="1353" height="904"/>
    <path fill="rgb(0,255,0)" stroke="none" d="M 84159,39000 L 85240,39000 85242,39000 85244,39000 85245,39000 85247,39000 85249,39000 85250,39000 85252,39000 85254,39000 85255,39000 85257,38999 85259,38999 85260,38999 85262,38999 85263,38998 85265,38998 85267,38998 85268,38997 85270,38997 85272,38997 85273,38996 85275,38996 85276,38996 85278,38995 85280,38995 85281,38994 85283,38994 85284,38993 85286,38993 85287,38992 85289,38991 85291,38991 85292,38990 85294,38990 85295,38989 85297,38988 85298,38987 85300,38987 85301,38986 85303,38985 85304,38985 85306,38984 85307,38983 85308,38982 85310,38981 85311,38980 85313,38979 85314,38979 85315,38978 85317,38977 85318,38976 85320,38975 85321,38974 85322,38973 85323,38972 85325,38971 85326,38970 85327,38969 85329,38968 85330,38967 85331,38965 85332,38964 85334,38963 85335,38962 85336,38961 85337,38960 85338,38959 85339,38957 85341,38956 85341,38955 85343,38954 85344,38952 85345,38951 85346,38950 85347,38949 85348,38947 85349,38946 85350,38945 85351,38943 85352,38942 85353,38940 85354,38939 85355,38938 85355,38936 85356,38935 85357,38933 85358,38932 85359,38931 85359,38929 85360,38928 85361,38926 85362,38925 85362,38923 85363,38922 85364,38920 85364,38919 85365,38917 85366,38916 85366,38914 85367,38912 85368,38911 85368,38909 85369,38908 85369,38906 85370,38905 85370,38903 85370,38901 85371,38900 85371,38898 85372,38897 85372,38895 85372,38893 85373,38892 85373,38890 85373,38889 85374,38887 85374,38885 85374,38884 85374,38882 85375,38880 85375,38879 85375,38877 85375,38875 85375,38874 85375,38872 85375,38870 85375,38869 85375,38867 85375,38866 85375,38236 85375,38234 85375,38232 85375,38231 85375,38229 85375,38227 85375,38226 85375,38224 85375,38222 85375,38221 85374,38219 85374,38217 85374,38216 85374,38214 85373,38212 85373,38211 85373,38209 85372,38207 85372,38205 85372,38203 85371,38202 85371,38200 85370,38199 85370,38197 85370,38195 85369,38194 85369,38192 85368,38191 85368,38189 85367,38187 85366,38186 85366,38184 85365,38183 85364,38181 85364,38180 85363,38178 85362,38177 85362,38175 85361,38174 85360,38172 85359,38171 85359,38169 85358,38168 85357,38167 85356,38165 85355,38164 85355,38162 85354,38161 85353,38159 85352,38158 85351,38157 85350,38155 85349,38154 85348,38153 85347,38151 85346,38150 85345,38149 85344,38148 85343,38146 85341,38145 85341,38144 85339,38143 85338,38141 85337,38140 85336,38139 85335,38138 85334,38137 85332,38136 85331,38135 85330,38133 85329,38132 85327,38131 85326,38130 85325,38129 85323,38128 85322,38127 85321,38126 85320,38125 85318,38124 85317,38123 85315,38122 85314,38121 85313,38120 85311,38120 85310,38119 85308,38118 85307,38117 85306,38116 85304,38115 85303,38115 85301,38114 85300,38113 85298,38112 85297,38112 85295,38111 85294,38110 85292,38110 85291,38109 85289,38109 85287,38108 85286,38107 85284,38107 85283,38106 85281,38106 85280,38105 85278,38105 85276,38104 85275,38104 85273,38104 85272,38103 85270,38103 85268,38102 85267,38102 85265,38102 85263,38101 85262,38101 85260,38101 85259,38101 85257,38101 85255,38100 85254,38100 85252,38100 85250,38100 85249,38100 85247,38100 85245,38100 85244,38100 85242,38099 85240,38099 84160,38099 84158,38099 84156,38100 84155,38100 84153,38100 84151,38100 84150,38100 84148,38100 84146,38100 84145,38100 84143,38101 84141,38101 84140,38101 84138,38101 84136,38101 84135,38102 84133,38102 84132,38102 84130,38103 84128,38103 84127,38104 84125,38104 84124,38104 84122,38105 84120,38105 84119,38106 84117,38106 84116,38107 84114,38107 84112,38108 84111,38109 84109,38109 84108,38110 84106,38110 84105,38111 84103,38112 84102,38112 84100,38113 84099,38114 84097,38115 84096,38115 84094,38116 84093,38117 84091,38118 84090,38119 84089,38120 84087,38120 84086,38121 84085,38122 84083,38123 84082,38124 84080,38125 84079,38126 84078,38127 84076,38128 84075,38129 84074,38130 84073,38131 84071,38132 84070,38133 84069,38135 84068,38136 84066,38137 84065,38138 84064,38139 84063,38140 84062,38141 84061,38143 84059,38144 84058,38145 84057,38146 84056,38148 84055,38149 84054,38150 84053,38151 84052,38153 84051,38154 84050,38155 84049,38157 84048,38158 84047,38159 84046,38161 84045,38162 84045,38164 84044,38165 84043,38167 84042,38168 84041,38169 84040,38171 84040,38172 84039,38174 84038,38175 84037,38177 84037,38178 84036,38180 84035,38181 84035,38183 84034,38184 84034,38186 84033,38187 84032,38189 84032,38191 84031,38192 84031,38194 84030,38195 84030,38197 84029,38199 84029,38200 84029,38202 84028,38203 84028,38205 84027,38207 84027,38209 84027,38211 84026,38212 84026,38214 84026,38216 84026,38217 84025,38219 84025,38221 84025,38222 84025,38224 84025,38226 84025,38227 84025,38229 84025,38231 84025,38232 84025,38234 84025,38236 84025,38865 84025,38867 84025,38869 84025,38870 84025,38872 84025,38874 84025,38875 84025,38877 84025,38879 84025,38880 84025,38882 84026,38884 84026,38885 84026,38887 84026,38889 84027,38890 84027,38892 84027,38893 84028,38895 84028,38897 84029,38898 84029,38900 84029,38901 84030,38903 84030,38905 84031,38906 84031,38908 84032,38909 84032,38911 84033,38912 84034,38914 84034,38916 84035,38917 84035,38919 84036,38920 84037,38922 84037,38923 84038,38925 84039,38926 84040,38928 84040,38929 84041,38931 84042,38932 84043,38933 84044,38935 84045,38936 84045,38938 84046,38939 84047,38940 84048,38942 84049,38943 84050,38945 84051,38946 84052,38947 84053,38949 84054,38950 84055,38951 84056,38952 84057,38954 84058,38955 84059,38956 84061,38957 84062,38959 84063,38960 84064,38961 84065,38962 84066,38963 84068,38964 84069,38965 84070,38967 84071,38968 84073,38969 84074,38970 84075,38971 84076,38972 84078,38973 84079,38974 84080,38975 84082,38976 84083,38977 84085,38978 84086,38979 84087,38979 84089,38980 84090,38981 84091,38982 84093,38983 84094,38984 84096,38985 84097,38985 84099,38986 84100,38987 84102,38987 84103,38988 84105,38989 84106,38990 84108,38990 84109,38991 84111,38991 84112,38992 84114,38993 84116,38993 84117,38994 84119,38994 84120,38995 84122,38995 84124,38996 84125,38996 84127,38996 84128,38997 84130,38997 84132,38997 84133,38998 84135,38998 84136,38998 84138,38999 84140,38999 84141,38999 84143,38999 84145,39000 84146,39000 84148,39000 84150,39000 84151,39000 84153,39000 84155,39000 84156,39000 84158,39000 84159,39000 Z"/>
    <path fill="none" stroke="rgb(0,255,0)" d="M 84159,39000 L 85240,39000 85242,39000 85244,39000 85245,39000 85247,39000 85249,39000 85250,39000 85252,39000 85254,39000 85255,39000 85257,38999 85259,38999 85260,38999 85262,38999 85263,38998 85265,38998 85267,38998 85268,38997 85270,38997 85272,38997 85273,38996 85275,38996 85276,38996 85278,38995 85280,38995 85281,38994 85283,38994 85284,38993 85286,38993 85287,38992 85289,38991 85291,38991 85292,38990 85294,38990 85295,38989 85297,38988 85298,38987 85300,38987 85301,38986 85303,38985 85304,38985 85306,38984 85307,38983 85308,38982 85310,38981 85311,38980 85313,38979 85314,38979 85315,38978 85317,38977 85318,38976 85320,38975 85321,38974 85322,38973 85323,38972 85325,38971 85326,38970 85327,38969 85329,38968 85330,38967 85331,38965 85332,38964 85334,38963 85335,38962 85336,38961 85337,38960 85338,38959 85339,38957 85341,38956 85341,38955 85343,38954 85344,38952 85345,38951 85346,38950 85347,38949 85348,38947 85349,38946 85350,38945 85351,38943 85352,38942 85353,38940 85354,38939 85355,38938 85355,38936 85356,38935 85357,38933 85358,38932 85359,38931 85359,38929 85360,38928 85361,38926 85362,38925 85362,38923 85363,38922 85364,38920 85364,38919 85365,38917 85366,38916 85366,38914 85367,38912 85368,38911 85368,38909 85369,38908 85369,38906 85370,38905 85370,38903 85370,38901 85371,38900 85371,38898 85372,38897 85372,38895 85372,38893 85373,38892 85373,38890 85373,38889 85374,38887 85374,38885 85374,38884 85374,38882 85375,38880 85375,38879 85375,38877 85375,38875 85375,38874 85375,38872 85375,38870 85375,38869 85375,38867 85375,38866 85375,38236 85375,38234 85375,38232 85375,38231 85375,38229 85375,38227 85375,38226 85375,38224 85375,38222 85375,38221 85374,38219 85374,38217 85374,38216 85374,38214 85373,38212 85373,38211 85373,38209 85372,38207 85372,38205 85372,38203 85371,38202 85371,38200 85370,38199 85370,38197 85370,38195 85369,38194 85369,38192 85368,38191 85368,38189 85367,38187 85366,38186 85366,38184 85365,38183 85364,38181 85364,38180 85363,38178 85362,38177 85362,38175 85361,38174 85360,38172 85359,38171 85359,38169 85358,38168 85357,38167 85356,38165 85355,38164 85355,38162 85354,38161 85353,38159 85352,38158 85351,38157 85350,38155 85349,38154 85348,38153 85347,38151 85346,38150 85345,38149 85344,38148 85343,38146 85341,38145 85341,38144 85339,38143 85338,38141 85337,38140 85336,38139 85335,38138 85334,38137 85332,38136 85331,38135 85330,38133 85329,38132 85327,38131 85326,38130 85325,38129 85323,38128 85322,38127 85321,38126 85320,38125 85318,38124 85317,38123 85315,38122 85314,38121 85313,38120 85311,38120 85310,38119 85308,38118 85307,38117 85306,38116 85304,38115 85303,38115 85301,38114 85300,38113 85298,38112 85297,38112 85295,38111 85294,38110 85292,38110 85291,38109 85289,38109 85287,38108 85286,38107 85284,38107 85283,38106 85281,38106 85280,38105 85278,38105 85276,38104 85275,38104 85273,38104 85272,38103 85270,38103 85268,38102 85267,38102 85265,38102 85263,38101 85262,38101 85260,38101 85259,38101 85257,38101 85255,38100 85254,38100 85252,38100 85250,38100 85249,38100 85247,38100 85245,38100 85244,38100 85242,38099 85240,38099 84160,38099 84158,38099 84156,38100 84155,38100 84153,38100 84151,38100 84150,38100 84148,38100 84146,38100 84145,38100 84143,38101 84141,38101 84140,38101 84138,38101 84136,38101 84135,38102 84133,38102 84132,38102 84130,38103 84128,38103 84127,38104 84125,38104 84124,38104 84122,38105 84120,38105 84119,38106 84117,38106 84116,38107 84114,38107 84112,38108 84111,38109 84109,38109 84108,38110 84106,38110 84105,38111 84103,38112 84102,38112 84100,38113 84099,38114 84097,38115 84096,38115 84094,38116 84093,38117 84091,38118 84090,38119 84089,38120 84087,38120 84086,38121 84085,38122 84083,38123 84082,38124 84080,38125 84079,38126 84078,38127 84076,38128 84075,38129 84074,38130 84073,38131 84071,38132 84070,38133 84069,38135 84068,38136 84066,38137 84065,38138 84064,38139 84063,38140 84062,38141 84061,38143 84059,38144 84058,38145 84057,38146 84056,38148 84055,38149 84054,38150 84053,38151 84052,38153 84051,38154 84050,38155 84049,38157 84048,38158 84047,38159 84046,38161 84045,38162 84045,38164 84044,38165 84043,38167 84042,38168 84041,38169 84040,38171 84040,38172 84039,38174 84038,38175 84037,38177 84037,38178 84036,38180 84035,38181 84035,38183 84034,38184 84034,38186 84033,38187 84032,38189 84032,38191 84031,38192 84031,38194 84030,38195 84030,38197 84029,38199 84029,38200 84029,38202 84028,38203 84028,38205 84027,38207 84027,38209 84027,38211 84026,38212 84026,38214 84026,38216 84026,38217 84025,38219 84025,38221 84025,38222 84025,38224 84025,38226 84025,38227 84025,38229 84025,38231 84025,38232 84025,38234 84025,38236 84025,38865 84025,38867 84025,38869 84025,38870 84025,38872 84025,38874 84025,38875 84025,38877 84025,38879 84025,38880 84025,38882 84026,38884 84026,38885 84026,38887 84026,38889 84027,38890 84027,38892 84027,38893 84028,38895 84028,38897 84029,38898 84029,38900 84029,38901 84030,38903 84030,38905 84031,38906 84031,38908 84032,38909 84032,38911 84033,38912 84034,38914 84034,38916 84035,38917 84035,38919 84036,38920 84037,38922 84037,38923 84038,38925 84039,38926 84040,38928 84040,38929 84041,38931 84042,38932 84043,38933 84044,38935 84045,38936 84045,38938 84046,38939 84047,38940 84048,38942 84049,38943 84050,38945 84051,38946 84052,38947 84053,38949 84054,38950 84055,38951 84056,38952 84057,38954 84058,38955 84059,38956 84061,38957 84062,38959 84063,38960 84064,38961 84065,38962 84066,38963 84068,38964 84069,38965 84070,38967 84071,38968 84073,38969 84074,38970 84075,38971 84076,38972 84078,38973 84079,38974 84080,38975 84082,38976 84083,38977 84085,38978 84086,38979 84087,38979 84089,38980 84090,38981 84091,38982 84093,38983 84094,38984 84096,38985 84097,38985 84099,38986 84100,38987 84102,38987 84103,38988 84105,38989 84106,38990 84108,38990 84109,38991 84111,38991 84112,38992 84114,38993 84116,38993 84117,38994 84119,38994 84120,38995 84122,38995 84124,38996 84125,38996 84127,38996 84128,38997 84130,38997 84132,38997 84133,38998 84135,38998 84136,38998 84138,38999 84140,38999 84141,38999 84143,38999 84145,39000 84146,39000 84148,39000 84150,39000 84151,39000 84153,39000 84155,39000 84156,39000 84158,39000 84159,39000 Z"/>
   </g>
  </g>
  <g class="com.sun.star.drawing.PolyPolygonShape">
   <g id="id4">
    <rect class="BoundingBox" stroke="none" fill="none" x="84069" y="38143" width="1263" height="814"/>
    <path fill="rgb(255,255,255)" stroke="none" d="M 84159,38955 L 85240,38955 85243,38955 85245,38955 85247,38955 85249,38955 85251,38955 85254,38954 85256,38954 85258,38954 85260,38953 85262,38953 85264,38952 85267,38952 85269,38951 85271,38950 85273,38949 85275,38949 85277,38948 85279,38947 85281,38946 85283,38945 85285,38944 85287,38943 85289,38941 85290,38940 85292,38939 85294,38938 85296,38936 85297,38935 85299,38934 85301,38932 85302,38931 85304,38929 85306,38927 85307,38926 85309,38924 85310,38923 85311,38921 85313,38919 85314,38917 85315,38915 85316,38914 85318,38912 85319,38910 85320,38908 85321,38906 85322,38904 85323,38902 85324,38900 85324,38898 85325,38896 85326,38894 85327,38892 85327,38890 85328,38887 85328,38885 85329,38883 85329,38881 85329,38879 85330,38876 85330,38874 85330,38872 85330,38870 85330,38868 85330,38865 85330,38235 85330,38232 85330,38230 85330,38228 85330,38226 85330,38223 85329,38221 85329,38219 85329,38217 85328,38215 85328,38213 85327,38211 85327,38208 85326,38206 85325,38204 85324,38202 85324,38200 85323,38198 85322,38196 85321,38194 85320,38192 85319,38190 85318,38188 85316,38186 85315,38184 85314,38183 85313,38181 85311,38179 85310,38177 85309,38176 85307,38174 85306,38172 85304,38171 85302,38169 85301,38168 85299,38166 85297,38165 85296,38164 85294,38162 85292,38161 85290,38160 85289,38158 85287,38157 85285,38156 85283,38155 85281,38154 85279,38153 85277,38152 85275,38151 85273,38151 85271,38150 85269,38149 85267,38148 85264,38148 85262,38147 85260,38147 85258,38146 85256,38146 85254,38145 85251,38145 85249,38145 85247,38145 85245,38145 85243,38144 85240,38144 84160,38144 84157,38144 84155,38145 84153,38145 84151,38145 84148,38145 84146,38145 84144,38146 84142,38146 84140,38147 84138,38147 84135,38148 84133,38148 84131,38149 84129,38150 84127,38151 84125,38151 84123,38152 84121,38153 84119,38154 84117,38155 84115,38156 84113,38157 84111,38158 84109,38160 84108,38161 84106,38162 84104,38164 84102,38165 84101,38166 84099,38168 84097,38169 84096,38171 84094,38172 84093,38174 84091,38176 84090,38177 84089,38179 84087,38181 84086,38183 84085,38184 84083,38186 84082,38188 84081,38190 84080,38192 84079,38194 84078,38196 84077,38198 84076,38200 84076,38202 84075,38204 84074,38206 84073,38208 84073,38211 84072,38213 84072,38215 84071,38217 84071,38219 84070,38221 84070,38223 84070,38226 84070,38228 84070,38230 84070,38232 84070,38235 84070,38865 84070,38868 84070,38870 84070,38872 84070,38874 84070,38876 84070,38879 84071,38881 84071,38883 84072,38885 84072,38887 84073,38890 84073,38892 84074,38894 84075,38896 84076,38898 84076,38900 84077,38902 84078,38904 84079,38906 84080,38908 84081,38910 84082,38912 84083,38914 84085,38915 84086,38917 84087,38919 84089,38921 84090,38923 84091,38924 84093,38926 84094,38927 84096,38929 84097,38931 84099,38932 84101,38934 84102,38935 84104,38936 84106,38938 84108,38939 84109,38940 84111,38941 84113,38943 84115,38944 84117,38945 84119,38946 84121,38947 84123,38948 84125,38949 84127,38949 84129,38950 84131,38951 84133,38952 84135,38952 84138,38953 84140,38953 84142,38954 84144,38954 84146,38954 84148,38955 84151,38955 84153,38955 84155,38955 84157,38955 84159,38955 Z"/>
    <path fill="none" stroke="rgb(255,255,255)" d="M 84159,38955 L 85240,38955 85243,38955 85245,38955 85247,38955 85249,38955 85251,38955 85254,38954 85256,38954 85258,38954 85260,38953 85262,38953 85264,38952 85267,38952 85269,38951 85271,38950 85273,38949 85275,38949 85277,38948 85279,38947 85281,38946 85283,38945 85285,38944 85287,38943 85289,38941 85290,38940 85292,38939 85294,38938 85296,38936 85297,38935 85299,38934 85301,38932 85302,38931 85304,38929 85306,38927 85307,38926 85309,38924 85310,38923 85311,38921 85313,38919 85314,38917 85315,38915 85316,38914 85318,38912 85319,38910 85320,38908 85321,38906 85322,38904 85323,38902 85324,38900 85324,38898 85325,38896 85326,38894 85327,38892 85327,38890 85328,38887 85328,38885 85329,38883 85329,38881 85329,38879 85330,38876 85330,38874 85330,38872 85330,38870 85330,38868 85330,38865 85330,38235 85330,38232 85330,38230 85330,38228 85330,38226 85330,38223 85329,38221 85329,38219 85329,38217 85328,38215 85328,38213 85327,38211 85327,38208 85326,38206 85325,38204 85324,38202 85324,38200 85323,38198 85322,38196 85321,38194 85320,38192 85319,38190 85318,38188 85316,38186 85315,38184 85314,38183 85313,38181 85311,38179 85310,38177 85309,38176 85307,38174 85306,38172 85304,38171 85302,38169 85301,38168 85299,38166 85297,38165 85296,38164 85294,38162 85292,38161 85290,38160 85289,38158 85287,38157 85285,38156 85283,38155 85281,38154 85279,38153 85277,38152 85275,38151 85273,38151 85271,38150 85269,38149 85267,38148 85264,38148 85262,38147 85260,38147 85258,38146 85256,38146 85254,38145 85251,38145 85249,38145 85247,38145 85245,38145 85243,38144 85240,38144 84160,38144 84157,38144 84155,38145 84153,38145 84151,38145 84148,38145 84146,38145 84144,38146 84142,38146 84140,38147 84138,38147 84135,38148 84133,38148 84131,38149 84129,38150 84127,38151 84125,38151 84123,38152 84121,38153 84119,38154 84117,38155 84115,38156 84113,38157 84111,38158 84109,38160 84108,38161 84106,38162 84104,38164 84102,38165 84101,38166 84099,38168 84097,38169 84096,38171 84094,38172 84093,38174 84091,38176 84090,38177 84089,38179 84087,38181 84086,38183 84085,38184 84083,38186 84082,38188 84081,38190 84080,38192 84079,38194 84078,38196 84077,38198 84076,38200 84076,38202 84075,38204 84074,38206 84073,38208 84073,38211 84072,38213 84072,38215 84071,38217 84071,38219 84070,38221 84070,38223 84070,38226 84070,38228 84070,38230 84070,38232 84070,38235 84070,38865 84070,38868 84070,38870 84070,38872 84070,38874 84070,38876 84070,38879 84071,38881 84071,38883 84072,38885 84072,38887 84073,38890 84073,38892 84074,38894 84075,38896 84076,38898 84076,38900 84077,38902 84078,38904 84079,38906 84080,38908 84081,38910 84082,38912 84083,38914 84085,38915 84086,38917 84087,38919 84089,38921 84090,38923 84091,38924 84093,38926 84094,38927 84096,38929 84097,38931 84099,38932 84101,38934 84102,38935 84104,38936 84106,38938 84108,38939 84109,38940 84111,38941 84113,38943 84115,38944 84117,38945 84119,38946 84121,38947 84123,38948 84125,38949 84127,38949 84129,38950 84131,38951 84133,38952 84135,38952 84138,38953 84140,38953 84142,38954 84144,38954 84146,38954 84148,38955 84151,38955 84153,38955 84155,38955 84157,38955 84159,38955 Z"/>
   </g>
  </g>
  <g class="com.sun.star.drawing.PolyPolygonShape">
   <g id="id5">
    <rect class="BoundingBox" stroke="none" fill="none" x="84113" y="38189" width="1174" height="723"/>
    <path fill="rgb(0,255,0)" stroke="none" d="M 84159,38910 L 85240,38910 85242,38910 85243,38910 85244,38910 85245,38910 85246,38910 85247,38910 85248,38910 85249,38910 85250,38909 85251,38909 85252,38909 85253,38909 85255,38908 85256,38908 85257,38907 85258,38907 85259,38907 85260,38906 85261,38906 85262,38905 85263,38905 85264,38904 85265,38904 85265,38903 85266,38902 85267,38902 85268,38901 85269,38900 85270,38900 85271,38899 85271,38898 85272,38897 85273,38896 85274,38896 85274,38895 85275,38894 85276,38893 85277,38892 85277,38891 85278,38890 85279,38889 85280,38888 85280,38887 85281,38886 85281,38885 85282,38884 85282,38883 85282,38882 85283,38881 85283,38880 85284,38879 85284,38877 85284,38876 85284,38875 85285,38874 85285,38873 85285,38872 85285,38871 85285,38870 85285,38869 85285,38868 85285,38867 85285,38866 85285,38235 85285,38233 85285,38232 85285,38231 85285,38230 85285,38229 85285,38228 85285,38227 85285,38226 85284,38225 85284,38224 85284,38222 85284,38221 85283,38220 85283,38219 85282,38218 85282,38217 85282,38216 85281,38215 85281,38214 85280,38213 85280,38212 85279,38211 85278,38210 85277,38209 85277,38208 85276,38207 85275,38206 85274,38205 85274,38204 85273,38203 85272,38203 85271,38202 85271,38201 85270,38200 85269,38200 85268,38199 85267,38198 85266,38198 85265,38197 85265,38196 85264,38196 85263,38195 85262,38195 85261,38194 85260,38194 85259,38193 85258,38193 85257,38193 85256,38192 85255,38192 85253,38191 85252,38191 85251,38191 85250,38191 85249,38190 85248,38190 85247,38190 85246,38190 85245,38190 85244,38190 85243,38190 85242,38190 85240,38190 84160,38190 84158,38190 84157,38190 84156,38190 84155,38190 84154,38190 84153,38190 84152,38190 84151,38190 84150,38191 84149,38191 84148,38191 84146,38191 84145,38192 84144,38192 84143,38193 84142,38193 84141,38193 84140,38194 84139,38194 84138,38195 84137,38195 84136,38196 84135,38196 84134,38197 84134,38198 84133,38198 84132,38199 84131,38200 84130,38200 84129,38201 84128,38202 84128,38203 84127,38203 84126,38204 84125,38205 84125,38206 84124,38207 84123,38208 84123,38209 84122,38210 84121,38210 84121,38211 84120,38212 84120,38213 84119,38214 84119,38215 84118,38216 84118,38217 84117,38218 84117,38219 84117,38220 84116,38221 84116,38222 84116,38224 84116,38225 84115,38226 84115,38227 84115,38228 84115,38229 84115,38230 84115,38231 84114,38232 84114,38233 84114,38235 84114,38865 84114,38867 84114,38868 84115,38869 84115,38870 84115,38871 84115,38872 84115,38873 84115,38874 84116,38875 84116,38876 84116,38877 84116,38879 84117,38880 84117,38881 84117,38882 84118,38883 84118,38884 84119,38885 84119,38886 84120,38887 84120,38888 84121,38889 84121,38890 84122,38890 84123,38891 84123,38892 84124,38893 84125,38894 84125,38895 84126,38896 84127,38896 84128,38897 84128,38898 84129,38899 84130,38900 84131,38900 84132,38901 84133,38902 84134,38902 84134,38903 84135,38904 84136,38904 84137,38905 84138,38905 84139,38906 84140,38906 84141,38907 84142,38907 84143,38907 84144,38908 84145,38908 84146,38909 84148,38909 84149,38909 84150,38909 84151,38910 84152,38910 84153,38910 84154,38910 84155,38910 84156,38910 84157,38910 84158,38910 84160,38910 84159,38910 Z"/>
    <path fill="none" stroke="rgb(0,255,0)" d="M 84159,38910 L 85240,38910 85242,38910 85243,38910 85244,38910 85245,38910 85246,38910 85247,38910 85248,38910 85249,38910 85250,38909 85251,38909 85252,38909 85253,38909 85255,38908 85256,38908 85257,38907 85258,38907 85259,38907 85260,38906 85261,38906 85262,38905 85263,38905 85264,38904 85265,38904 85265,38903 85266,38902 85267,38902 85268,38901 85269,38900 85270,38900 85271,38899 85271,38898 85272,38897 85273,38896 85274,38896 85274,38895 85275,38894 85276,38893 85277,38892 85277,38891 85278,38890 85279,38889 85280,38888 85280,38887 85281,38886 85281,38885 85282,38884 85282,38883 85282,38882 85283,38881 85283,38880 85284,38879 85284,38877 85284,38876 85284,38875 85285,38874 85285,38873 85285,38872 85285,38871 85285,38870 85285,38869 85285,38868 85285,38867 85285,38866 85285,38235 85285,38233 85285,38232 85285,38231 85285,38230 85285,38229 85285,38228 85285,38227 85285,38226 85284,38225 85284,38224 85284,38222 85284,38221 85283,38220 85283,38219 85282,38218 85282,38217 85282,38216 85281,38215 85281,38214 85280,38213 85280,38212 85279,38211 85278,38210 85277,38209 85277,38208 85276,38207 85275,38206 85274,38205 85274,38204 85273,38203 85272,38203 85271,38202 85271,38201 85270,38200 85269,38200 85268,38199 85267,38198 85266,38198 85265,38197 85265,38196 85264,38196 85263,38195 85262,38195 85261,38194 85260,38194 85259,38193 85258,38193 85257,38193 85256,38192 85255,38192 85253,38191 85252,38191 85251,38191 85250,38191 85249,38190 85248,38190 85247,38190 85246,38190 85245,38190 85244,38190 85243,38190 85242,38190 85240,38190 84160,38190 84158,38190 84157,38190 84156,38190 84155,38190 84154,38190 84153,38190 84152,38190 84151,38190 84150,38191 84149,38191 84148,38191 84146,38191 84145,38192 84144,38192 84143,38193 84142,38193 84141,38193 84140,38194 84139,38194 84138,38195 84137,38195 84136,38196 84135,38196 84134,38197 84134,38198 84133,38198 84132,38199 84131,38200 84130,38200 84129,38201 84128,38202 84128,38203 84127,38203 84126,38204 84125,38205 84125,38206 84124,38207 84123,38208 84123,38209 84122,38210 84121,38210 84121,38211 84120,38212 84120,38213 84119,38214 84119,38215 84118,38216 84118,38217 84117,38218 84117,38219 84117,38220 84116,38221 84116,38222 84116,38224 84116,38225 84115,38226 84115,38227 84115,38228 84115,38229 84115,38230 84115,38231 84114,38232 84114,38233 84114,38235 84114,38865 84114,38867 84114,38868 84115,38869 84115,38870 84115,38871 84115,38872 84115,38873 84115,38874 84116,38875 84116,38876 84116,38877 84116,38879 84117,38880 84117,38881 84117,38882 84118,38883 84118,38884 84119,38885 84119,38886 84120,38887 84120,38888 84121,38889 84121,38890 84122,38890 84123,38891 84123,38892 84124,38893 84125,38894 84125,38895 84126,38896 84127,38896 84128,38897 84128,38898 84129,38899 84130,38900 84131,38900 84132,38901 84133,38902 84134,38902 84134,38903 84135,38904 84136,38904 84137,38905 84138,38905 84139,38906 84140,38906 84141,38907 84142,38907 84143,38907 84144,38908 84145,38908 84146,38909 84148,38909 84149,38909 84150,38909 84151,38910 84152,38910 84153,38910 84154,38910 84155,38910 84156,38910 84157,38910 84158,38910 84160,38910 84159,38910 Z"/>
   </g>
  </g>
  <g class="com.sun.star.drawing.PolyPolygonShape">
   <g id="id6">
    <rect class="BoundingBox" stroke="none" fill="none" x="84290" y="38279" width="259" height="543"/>
    <path fill="rgb(255,255,255)" stroke="none" d="M 84291,38820 L 84291,38280 84547,38280 84547,38349 84369,38349 84369,38515 84485,38515 84485,38585 84369,38585 84369,38751 84547,38751 84547,38820 84291,38820 Z"/>
    <path fill="none" stroke="rgb(255,255,255)" d="M 84291,38820 L 84291,38280 84547,38280 84547,38349 84369,38349 84369,38515 84485,38515 84485,38585 84369,38585 84369,38751 84547,38751 84547,38820 84291,38820 Z"/>
   </g>
  </g>
 </g>
</svg>