<?xml version="1.0" encoding="UTF-8"?>
<!DOCTYPE svg PUBLIC "-//W3C//DTD SVG 1.1//EN" "http://www.w3.org/Graphics/SVG/1.1/DTD/svg11.dtd">
<svg version="1.2" width="13.53mm" height="9.04mm" viewBox="85924 38098 1353 904" preserveAspectRatio="xMidYMid" fill-rule="evenodd" stroke-width="28.222" stroke-linejoin="round" xmlns="http://www.w3.org/2000/svg" xmlns:ooo="http://xml.openoffice.org/svg/export" xmlns:xlink="http://www.w3.org/1999/xlink" xmlns:presentation="http://sun.com/xmlns/staroffice/presentation" xmlns:smil="http://www.w3.org/2001/SMIL20/" xmlns:anim="urn:oasis:names:tc:opendocument:xmlns:animation:1.0" xml:space="preserve">
 <defs class="EmbeddedBulletChars">
  <g id="bullet-char-template-57356" transform="scale(0.00048828125,-0.00048828125)">
   <path d="M 580,1141 L 1163,571 580,0 -4,571 580,1141 Z"/>
  </g>
  <g id="bullet-char-template-57354" transform="scale(0.00048828125,-0.00048828125)">
   <path d="M 8,1128 L 1137,1128 1137,0 8,0 8,1128 Z"/>
  </g>
  <g id="bullet-char-template-10146" transform="scale(0.00048828125,-0.00048828125)">
   <path d="M 174,0 L 602,739 174,1481 1456,739 174,0 Z M 1358,739 L 309,1346 659,739 1358,739 Z"/>
  </g>
  <g id="bullet-char-template-10132" transform="scale(0.00048828125,-0.00048828125)">
   <path d="M 2015,739 L 1276,0 717,0 1260,543 174,543 174,936 1260,936 717,1481 1274,1481 2015,739 Z"/>
  </g>
  <g id="bullet-char-template-10007" transform="scale(0.00048828125,-0.00048828125)">
   <path d="M 0,-2 C -7,14 -16,27 -25,37 L 356,567 C 262,823 215,952 215,954 215,979 228,992 255,992 264,992 276,990 289,987 310,991 331,999 354,1012 L 381,999 492,748 772,1049 836,1024 860,1049 C 881,1039 901,1025 922,1006 886,937 835,863 770,784 769,783 710,716 594,584 L 774,223 C 774,196 753,168 711,139 L 727,119 C 717,90 699,76 672,76 641,76 570,178 457,381 L 164,-76 C 142,-110 111,-127 72,-127 30,-127 9,-110 8,-76 1,-67 -2,-52 -2,-32 -2,-23 -1,-13 0,-2 Z"/>
  </g>
  <g id="bullet-char-template-10004" transform="scale(0.00048828125,-0.00048828125)">
   <path d="M 285,-33 C 182,-33 111,30 74,156 52,228 41,333 41,471 41,549 55,616 82,672 116,743 169,778 240,778 293,778 328,747 346,684 L 369,508 C 377,444 397,411 428,410 L 1163,1116 C 1174,1127 1196,1133 1229,1133 1271,1133 1292,1118 1292,1087 L 1292,965 C 1292,929 1282,901 1262,881 L 442,47 C 390,-6 338,-33 285,-33 Z"/>
  </g>
  <g id="bullet-char-template-9679" transform="scale(0.00048828125,-0.00048828125)">
   <path d="M 813,0 C 632,0 489,54 383,161 276,268 223,411 223,592 223,773 276,916 383,1023 489,1130 632,1184 813,1184 992,1184 1136,1130 1245,1023 1353,916 1407,772 1407,592 1407,412 1353,268 1245,161 1136,54 992,0 813,0 Z"/>
  </g>
  <g id="bullet-char-template-8226" transform="scale(0.00048828125,-0.00048828125)">
   <path d="M 346,457 C 273,457 209,483 155,535 101,586 74,649 74,723 74,796 101,859 155,911 209,963 273,989 346,989 419,989 480,963 531,910 582,859 608,796 608,723 608,648 583,586 532,535 482,483 420,457 346,457 Z"/>
  </g>
  <g id="bullet-char-template-8211" transform="scale(0.00048828125,-0.00048828125)">
   <path d="M -4,459 L 1135,459 1135,606 -4,606 -4,459 Z"/>
  </g>
  <g id="bullet-char-template-61548" transform="scale(0.00048828125,-0.00048828125)">
   <path d="M 173,740 C 173,903 231,1043 346,1159 462,1274 601,1332 765,1332 928,1332 1067,1274 1183,1159 1299,1043 1357,903 1357,740 1357,577 1299,437 1183,322 1067,206 928,148 765,148 601,148 462,206 346,322 231,437 173,577 173,740 Z"/>
  </g>
 </defs>
 <g class="Page">
  <g class="com.sun.star.drawing.PolyPolygonShape">
   <g id="id3">
    <rect class="BoundingBox" stroke="none" fill="none" x="85924" y="38098" width="1353" height="904"/>
    <path fill="rgb(255,255,255)" stroke="none" d="M 86059,39000 L 87140,39000 87142,39000 87144,39000 87145,39000 87147,39000 87149,39000 87150,39000 87152,39000 87154,39000 87155,39000 87157,38999 87159,38999 87160,38999 87162,38999 87163,38998 87165,38998 87167,38998 87168,38997 87170,38997 87172,38997 87173,38996 87175,38996 87176,38996 87178,38995 87180,38995 87181,38994 87183,38994 87184,38993 87186,38992 87187,38992 87189,38991 87191,38991 87192,38990 87194,38990 87195,38989 87197,38988 87198,38987 87200,38987 87201,38986 87203,38985 87204,38985 87206,38984 87207,38983 87208,38982 87210,38981 87211,38980 87213,38979 87214,38979 87215,38978 87217,38977 87218,38976 87220,38975 87221,38974 87222,38973 87223,38972 87225,38971 87226,38970 87227,38969 87229,38968 87230,38967 87231,38965 87232,38964 87234,38963 87235,38962 87236,38961 87237,38960 87238,38959 87239,38957 87240,38956 87242,38955 87243,38954 87244,38952 87245,38951 87246,38950 87247,38948 87248,38947 87249,38946 87250,38944 87251,38943 87252,38942 87253,38940 87254,38939 87255,38938 87255,38936 87256,38935 87257,38933 87258,38932 87259,38931 87259,38929 87260,38928 87261,38926 87262,38925 87262,38923 87263,38922 87264,38920 87265,38919 87265,38917 87266,38916 87266,38914 87267,38912 87268,38911 87268,38909 87269,38908 87269,38906 87270,38905 87270,38903 87271,38901 87271,38900 87271,38898 87272,38897 87272,38895 87273,38893 87273,38892 87273,38890 87273,38888 87274,38887 87274,38885 87274,38884 87274,38882 87275,38880 87275,38879 87275,38877 87275,38875 87275,38874 87275,38872 87275,38870 87275,38869 87275,38867 87275,38865 87275,38236 87275,38234 87275,38232 87275,38231 87275,38229 87275,38227 87275,38226 87275,38224 87275,38222 87275,38221 87274,38219 87274,38217 87274,38216 87274,38214 87273,38212 87273,38211 87273,38209 87273,38207 87272,38205 87272,38203 87271,38202 87271,38200 87271,38198 87270,38197 87270,38195 87269,38194 87269,38192 87268,38191 87268,38189 87267,38187 87266,38186 87266,38184 87265,38183 87265,38181 87264,38180 87263,38178 87262,38177 87262,38175 87261,38174 87260,38172 87259,38171 87259,38169 87258,38168 87257,38166 87256,38165 87255,38164 87255,38162 87254,38161 87253,38159 87252,38158 87251,38157 87250,38155 87249,38154 87248,38153 87247,38151 87246,38150 87245,38149 87244,38148 87243,38146 87242,38145 87240,38144 87239,38143 87238,38141 87237,38140 87236,38139 87235,38138 87234,38137 87232,38136 87231,38134 87230,38133 87229,38132 87227,38131 87226,38130 87225,38129 87223,38128 87222,38127 87221,38126 87220,38125 87218,38124 87217,38123 87215,38122 87214,38121 87213,38120 87211,38120 87210,38119 87208,38118 87207,38117 87206,38116 87204,38115 87203,38115 87201,38114 87200,38113 87198,38112 87197,38112 87195,38111 87194,38110 87192,38110 87191,38109 87189,38108 87187,38108 87186,38107 87184,38107 87183,38106 87181,38106 87180,38105 87178,38105 87176,38104 87175,38104 87173,38104 87172,38103 87170,38103 87168,38102 87167,38102 87165,38102 87163,38101 87162,38101 87160,38101 87159,38101 87157,38101 87155,38100 87154,38100 87152,38100 87150,38100 87149,38100 87147,38100 87145,38100 87144,38100 87142,38099 87140,38099 86060,38099 86058,38099 86056,38100 86054,38100 86053,38100 86051,38100 86050,38100 86048,38100 86046,38100 86045,38100 86043,38101 86041,38101 86040,38101 86038,38101 86036,38101 86035,38102 86033,38102 86031,38102 86030,38103 86028,38103 86027,38104 86025,38104 86023,38104 86022,38105 86020,38105 86019,38106 86017,38106 86016,38107 86014,38107 86012,38108 86011,38108 86009,38109 86008,38110 86006,38110 86005,38111 86003,38112 86002,38112 86000,38113 85999,38114 85997,38115 85996,38115 85994,38116 85993,38117 85992,38118 85990,38119 85989,38120 85987,38120 85986,38121 85985,38122 85983,38123 85982,38124 85980,38125 85979,38126 85978,38127 85976,38128 85975,38129 85974,38130 85973,38131 85971,38132 85970,38133 85969,38134 85968,38136 85966,38137 85965,38138 85964,38139 85963,38140 85962,38141 85961,38143 85959,38144 85958,38145 85957,38146 85956,38148 85955,38149 85954,38150 85953,38151 85952,38153 85951,38154 85950,38155 85949,38157 85948,38158 85947,38159 85946,38161 85946,38162 85945,38164 85944,38165 85943,38166 85942,38168 85941,38169 85940,38171 85940,38172 85939,38174 85938,38175 85937,38177 85937,38178 85936,38180 85935,38181 85935,38183 85934,38184 85934,38186 85933,38187 85932,38189 85932,38191 85931,38192 85931,38194 85930,38195 85930,38197 85929,38198 85929,38200 85929,38202 85928,38203 85928,38205 85928,38207 85927,38209 85927,38211 85927,38212 85926,38214 85926,38216 85926,38217 85925,38219 85925,38221 85925,38222 85925,38224 85925,38226 85925,38227 85925,38229 85925,38231 85925,38232 85925,38234 85925,38236 85925,38865 85925,38867 85925,38869 85925,38870 85925,38872 85925,38874 85925,38875 85925,38877 85925,38879 85925,38880 85925,38882 85926,38884 85926,38885 85926,38887 85927,38888 85927,38890 85927,38892 85928,38893 85928,38895 85928,38897 85929,38898 85929,38900 85929,38901 85930,38903 85930,38905 85931,38906 85931,38908 85932,38909 85932,38911 85933,38912 85934,38914 85934,38916 85935,38917 85935,38919 85936,38920 85937,38922 85937,38923 85938,38925 85939,38926 85940,38928 85940,38929 85941,38931 85942,38932 85943,38933 85944,38935 85945,38936 85946,38938 85946,38939 85947,38940 85948,38942 85949,38943 85950,38944 85951,38946 85952,38947 85953,38948 85954,38950 85955,38951 85956,38952 85957,38954 85958,38955 85959,38956 85961,38957 85962,38959 85963,38960 85964,38961 85965,38962 85966,38963 85968,38964 85969,38965 85970,38967 85971,38968 85973,38969 85974,38970 85975,38971 85976,38972 85978,38973 85979,38974 85980,38975 85982,38976 85983,38977 85985,38978 85986,38979 85987,38979 85989,38980 85990,38981 85992,38982 85993,38983 85994,38984 85996,38985 85997,38985 85999,38986 86000,38987 86002,38987 86003,38988 86005,38989 86006,38990 86008,38990 86009,38991 86011,38991 86012,38992 86014,38992 86016,38993 86017,38994 86019,38994 86020,38995 86022,38995 86023,38996 86025,38996 86027,38996 86028,38997 86030,38997 86031,38997 86033,38998 86035,38998 86036,38998 86038,38999 86040,38999 86041,38999 86043,38999 86045,39000 86046,39000 86048,39000 86050,39000 86051,39000 86053,39000 86054,39000 86056,39000 86058,39000 86059,39000 Z"/>
    <path fill="none" stroke="rgb(0,0,0)" d="M 86059,39000 L 87140,39000 87142,39000 87144,39000 87145,39000 87147,39000 87149,39000 87150,39000 87152,39000 87154,39000 87155,39000 87157,38999 87159,38999 87160,38999 87162,38999 87163,38998 87165,38998 87167,38998 87168,38997 87170,38997 87172,38997 87173,38996 87175,38996 87176,38996 87178,38995 87180,38995 87181,38994 87183,38994 87184,38993 87186,38992 87187,38992 87189,38991 87191,38991 87192,38990 87194,38990 87195,38989 87197,38988 87198,38987 87200,38987 87201,38986 87203,38985 87204,38985 87206,38984 87207,38983 87208,38982 87210,38981 87211,38980 87213,38979 87214,38979 87215,38978 87217,38977 87218,38976 87220,38975 87221,38974 87222,38973 87223,38972 87225,38971 87226,38970 87227,38969 87229,38968 87230,38967 87231,38965 87232,38964 87234,38963 87235,38962 87236,38961 87237,38960 87238,38959 87239,38957 87240,38956 87242,38955 87243,38954 87244,38952 87245,38951 87246,38950 87247,38948 87248,38947 87249,38946 87250,38944 87251,38943 87252,38942 87253,38940 87254,38939 87255,38938 87255,38936 87256,38935 87257,38933 87258,38932 87259,38931 87259,38929 87260,38928 87261,38926 87262,38925 87262,38923 87263,38922 87264,38920 87265,38919 87265,38917 87266,38916 87266,38914 87267,38912 87268,38911 87268,38909 87269,38908 87269,38906 87270,38905 87270,38903 87271,38901 87271,38900 87271,38898 87272,38897 87272,38895 87273,38893 87273,38892 87273,38890 87273,38888 87274,38887 87274,38885 87274,38884 87274,38882 87275,38880 87275,38879 87275,38877 87275,38875 87275,38874 87275,38872 87275,38870 87275,38869 87275,38867 87275,38865 87275,38236 87275,38234 87275,38232 87275,38231 87275,38229 87275,38227 87275,38226 87275,38224 87275,38222 87275,38221 87274,38219 87274,38217 87274,38216 87274,38214 87273,38212 87273,38211 87273,38209 87273,38207 87272,38205 87272,38203 87271,38202 87271,38200 87271,38198 87270,38197 87270,38195 87269,38194 87269,38192 87268,38191 87268,38189 87267,38187 87266,38186 87266,38184 87265,38183 87265,38181 87264,38180 87263,38178 87262,38177 87262,38175 87261,38174 87260,38172 87259,38171 87259,38169 87258,38168 87257,38166 87256,38165 87255,38164 87255,38162 87254,38161 87253,38159 87252,38158 87251,38157 87250,38155 87249,38154 87248,38153 87247,38151 87246,38150 87245,38149 87244,38148 87243,38146 87242,38145 87240,38144 87239,38143 87238,38141 87237,38140 87236,38139 87235,38138 87234,38137 87232,38136 87231,38134 87230,38133 87229,38132 87227,38131 87226,38130 87225,38129 87223,38128 87222,38127 87221,38126 87220,38125 87218,38124 87217,38123 87215,38122 87214,38121 87213,38120 87211,38120 87210,38119 87208,38118 87207,38117 87206,38116 87204,38115 87203,38115 87201,38114 87200,38113 87198,38112 87197,38112 87195,38111 87194,38110 87192,38110 87191,38109 87189,38108 87187,38108 87186,38107 87184,38107 87183,38106 87181,38106 87180,38105 87178,38105 87176,38104 87175,38104 87173,38104 87172,38103 87170,38103 87168,38102 87167,38102 87165,38102 87163,38101 87162,38101 87160,38101 87159,38101 87157,38101 87155,38100 87154,38100 87152,38100 87150,38100 87149,38100 87147,38100 87145,38100 87144,38100 87142,38099 87140,38099 86060,38099 86058,38099 86056,38100 86054,38100 86053,38100 86051,38100 86050,38100 86048,38100 86046,38100 86045,38100 86043,38101 86041,38101 86040,38101 86038,38101 86036,38101 86035,38102 86033,38102 86031,38102 86030,38103 86028,38103 86027,38104 86025,38104 86023,38104 86022,38105 86020,38105 86019,38106 86017,38106 86016,38107 86014,38107 86012,38108 86011,38108 86009,38109 86008,38110 86006,38110 86005,38111 86003,38112 86002,38112 86000,38113 85999,38114 85997,38115 85996,38115 85994,38116 85993,38117 85992,38118 85990,38119 85989,38120 85987,38120 85986,38121 85985,38122 85983,38123 85982,38124 85980,38125 85979,38126 85978,38127 85976,38128 85975,38129 85974,38130 85973,38131 85971,38132 85970,38133 85969,38134 85968,38136 85966,38137 85965,38138 85964,38139 85963,38140 85962,38141 85961,38143 85959,38144 85958,38145 85957,38146 85956,38148 85955,38149 85954,38150 85953,38151 85952,38153 85951,38154 85950,38155 85949,38157 85948,38158 85947,38159 85946,38161 85946,38162 85945,38164 85944,38165 85943,38166 85942,38168 85941,38169 85940,38171 85940,38172 85939,38174 85938,38175 85937,38177 85937,38178 85936,38180 85935,38181 85935,38183 85934,38184 85934,38186 85933,38187 85932,38189 85932,38191 85931,38192 85931,38194 85930,38195 85930,38197 85929,38198 85929,38200 85929,38202 85928,38203 85928,38205 85928,38207 85927,38209 85927,38211 85927,38212 85926,38214 85926,38216 85926,38217 85925,38219 85925,38221 85925,38222 85925,38224 85925,38226 85925,38227 85925,38229 85925,38231 85925,38232 85925,38234 85925,38236 85925,38865 85925,38867 85925,38869 85925,38870 85925,38872 85925,38874 85925,38875 85925,38877 85925,38879 85925,38880 85925,38882 85926,38884 85926,38885 85926,38887 85927,38888 85927,38890 85927,38892 85928,38893 85928,38895 85928,38897 85929,38898 85929,38900 85929,38901 85930,38903 85930,38905 85931,38906 85931,38908 85932,38909 85932,38911 85933,38912 85934,38914 85934,38916 85935,38917 85935,38919 85936,38920 85937,38922 85937,38923 85938,38925 85939,38926 85940,38928 85940,38929 85941,38931 85942,38932 85943,38933 85944,38935 85945,38936 85946,38938 85946,38939 85947,38940 85948,38942 85949,38943 85950,38944 85951,38946 85952,38947 85953,38948 85954,38950 85955,38951 85956,38952 85957,38954 85958,38955 85959,38956 85961,38957 85962,38959 85963,38960 85964,38961 85965,38962 85966,38963 85968,38964 85969,38965 85970,38967 85971,38968 85973,38969 85974,38970 85975,38971 85976,38972 85978,38973 85979,38974 85980,38975 85982,38976 85983,38977 85985,38978 85986,38979 85987,38979 85989,38980 85990,38981 85992,38982 85993,38983 85994,38984 85996,38985 85997,38985 85999,38986 86000,38987 86002,38987 86003,38988 86005,38989 86006,38990 86008,38990 86009,38991 86011,38991 86012,38992 86014,38992 86016,38993 86017,38994 86019,38994 86020,38995 86022,38995 86023,38996 86025,38996 86027,38996 86028,38997 86030,38997 86031,38997 86033,38998 86035,38998 86036,38998 86038,38999 86040,38999 86041,38999 86043,38999 86045,39000 86046,39000 86048,39000 86050,39000 86051,39000 86053,39000 86054,39000 86056,39000 86058,39000 86059,39000 Z"/>
   </g>
  </g>
  <g class="com.sun.star.drawing.PolyPolygonShape">
   <g id="id4">
    <rect class="BoundingBox" stroke="none" fill="none" x="85969" y="38143" width="1263" height="814"/>
    <path fill="rgb(0,0,0)" stroke="none" d="M 86059,38955 L 87140,38955 87143,38955 87145,38955 87147,38955 87149,38955 87151,38955 87154,38954 87156,38954 87158,38954 87160,38953 87162,38953 87164,38952 87167,38952 87169,38951 87171,38950 87173,38949 87175,38949 87177,38948 87179,38947 87181,38946 87183,38945 87185,38944 87187,38943 87189,38941 87190,38940 87192,38939 87194,38938 87196,38936 87197,38935 87199,38934 87201,38932 87202,38931 87204,38929 87206,38927 87207,38926 87209,38924 87210,38922 87211,38921 87213,38919 87214,38917 87215,38915 87216,38914 87218,38912 87219,38910 87220,38908 87221,38906 87222,38904 87223,38902 87224,38900 87224,38898 87225,38896 87226,38894 87227,38892 87227,38889 87228,38887 87228,38885 87229,38883 87229,38881 87229,38879 87230,38876 87230,38874 87230,38872 87230,38870 87230,38868 87230,38865 87230,38235 87230,38232 87230,38230 87230,38228 87230,38226 87230,38223 87229,38221 87229,38219 87229,38217 87228,38215 87228,38213 87227,38211 87227,38208 87226,38206 87225,38204 87224,38202 87224,38200 87223,38198 87222,38196 87221,38194 87220,38192 87219,38190 87218,38188 87216,38186 87215,38184 87214,38183 87213,38181 87211,38179 87210,38177 87209,38176 87207,38174 87206,38172 87204,38171 87202,38169 87201,38168 87199,38166 87197,38165 87196,38164 87194,38162 87192,38161 87190,38160 87189,38158 87187,38157 87185,38156 87183,38155 87181,38154 87179,38153 87177,38152 87175,38151 87173,38151 87171,38150 87169,38149 87167,38148 87164,38148 87162,38147 87160,38147 87158,38146 87156,38146 87154,38145 87151,38145 87149,38145 87147,38145 87145,38145 87143,38144 87140,38144 86060,38144 86057,38144 86055,38145 86053,38145 86051,38145 86048,38145 86046,38145 86044,38146 86042,38146 86040,38147 86038,38147 86035,38148 86033,38148 86031,38149 86029,38150 86027,38151 86025,38151 86023,38152 86021,38153 86019,38154 86017,38155 86015,38156 86013,38157 86011,38158 86010,38160 86008,38161 86006,38162 86004,38164 86002,38165 86001,38166 85999,38168 85997,38169 85996,38171 85994,38172 85993,38174 85991,38176 85990,38177 85989,38179 85987,38181 85986,38183 85985,38184 85983,38186 85982,38188 85981,38190 85980,38192 85979,38194 85978,38196 85977,38198 85976,38200 85976,38202 85975,38204 85974,38206 85973,38208 85973,38211 85972,38213 85972,38215 85971,38217 85971,38219 85971,38221 85970,38223 85970,38226 85970,38228 85970,38230 85970,38232 85970,38235 85970,38865 85970,38868 85970,38870 85970,38872 85970,38874 85970,38876 85971,38879 85971,38881 85971,38883 85972,38885 85972,38887 85973,38889 85973,38892 85974,38894 85975,38896 85976,38898 85976,38900 85977,38902 85978,38904 85979,38906 85980,38908 85981,38910 85982,38912 85983,38914 85985,38915 85986,38917 85987,38919 85989,38921 85990,38922 85991,38924 85993,38926 85994,38927 85996,38929 85997,38931 85999,38932 86001,38934 86002,38935 86004,38936 86006,38938 86008,38939 86010,38940 86011,38941 86013,38943 86015,38944 86017,38945 86019,38946 86021,38947 86023,38948 86025,38949 86027,38949 86029,38950 86031,38951 86033,38952 86035,38952 86038,38953 86040,38953 86042,38954 86044,38954 86046,38954 86048,38955 86051,38955 86053,38955 86055,38955 86057,38955 86059,38955 Z"/>
    <path fill="none" stroke="rgb(0,0,0)" d="M 86059,38955 L 87140,38955 87143,38955 87145,38955 87147,38955 87149,38955 87151,38955 87154,38954 87156,38954 87158,38954 87160,38953 87162,38953 87164,38952 87167,38952 87169,38951 87171,38950 87173,38949 87175,38949 87177,38948 87179,38947 87181,38946 87183,38945 87185,38944 87187,38943 87189,38941 87190,38940 87192,38939 87194,38938 87196,38936 87197,38935 87199,38934 87201,38932 87202,38931 87204,38929 87206,38927 87207,38926 87209,38924 87210,38922 87211,38921 87213,38919 87214,38917 87215,38915 87216,38914 87218,38912 87219,38910 87220,38908 87221,38906 87222,38904 87223,38902 87224,38900 87224,38898 87225,38896 87226,38894 87227,38892 87227,38889 87228,38887 87228,38885 87229,38883 87229,38881 87229,38879 87230,38876 87230,38874 87230,38872 87230,38870 87230,38868 87230,38865 87230,38235 87230,38232 87230,38230 87230,38228 87230,38226 87230,38223 87229,38221 87229,38219 87229,38217 87228,38215 87228,38213 87227,38211 87227,38208 87226,38206 87225,38204 87224,38202 87224,38200 87223,38198 87222,38196 87221,38194 87220,38192 87219,38190 87218,38188 87216,38186 87215,38184 87214,38183 87213,38181 87211,38179 87210,38177 87209,38176 87207,38174 87206,38172 87204,38171 87202,38169 87201,38168 87199,38166 87197,38165 87196,38164 87194,38162 87192,38161 87190,38160 87189,38158 87187,38157 87185,38156 87183,38155 87181,38154 87179,38153 87177,38152 87175,38151 87173,38151 87171,38150 87169,38149 87167,38148 87164,38148 87162,38147 87160,38147 87158,38146 87156,38146 87154,38145 87151,38145 87149,38145 87147,38145 87145,38145 87143,38144 87140,38144 86060,38144 86057,38144 86055,38145 86053,38145 86051,38145 86048,38145 86046,38145 86044,38146 86042,38146 86040,38147 86038,38147 86035,38148 86033,38148 86031,38149 86029,38150 86027,38151 86025,38151 86023,38152 86021,38153 86019,38154 86017,38155 86015,38156 86013,38157 86011,38158 86010,38160 86008,38161 86006,38162 86004,38164 86002,38165 86001,38166 85999,38168 85997,38169 85996,38171 85994,38172 85993,38174 85991,38176 85990,38177 85989,38179 85987,38181 85986,38183 85985,38184 85983,38186 85982,38188 85981,38190 85980,38192 85979,38194 85978,38196 85977,38198 85976,38200 85976,38202 85975,38204 85974,38206 85973,38208 85973,38211 85972,38213 85972,38215 85971,38217 85971,38219 85971,38221 85970,38223 85970,38226 85970,38228 85970,38230 85970,38232 85970,38235 85970,38865 85970,38868 85970,38870 85970,38872 85970,38874 85970,38876 85971,38879 85971,38881 85971,38883 85972,38885 85972,38887 85973,38889 85973,38892 85974,38894 85975,38896 85976,38898 85976,38900 85977,38902 85978,38904 85979,38906 85980,38908 85981,38910 85982,38912 85983,38914 85985,38915 85986,38917 85987,38919 85989,38921 85990,38922 85991,38924 85993,38926 85994,38927 85996,38929 85997,38931 85999,38932 86001,38934 86002,38935 86004,38936 86006,38938 86008,38939 86010,38940 86011,38941 86013,38943 86015,38944 86017,38945 86019,38946 86021,38947 86023,38948 86025,38949 86027,38949 86029,38950 86031,38951 86033,38952 86035,38952 86038,38953 86040,38953 86042,38954 86044,38954 86046,38954 86048,38955 86051,38955 86053,38955 86055,38955 86057,38955 86059,38955 Z"/>
   </g>
  </g>
  <g class="com.sun.star.drawing.PolyPolygonShape">
   <g id="id5">
    <rect class="BoundingBox" stroke="none" fill="none" x="86014" y="38188" width="1173" height="724"/>
    <path fill="rgb(255,255,255)" stroke="none" d="M 86059,38910 L 87140,38910 87142,38910 87143,38910 87144,38910 87145,38910 87146,38910 87147,38910 87148,38910 87149,38910 87150,38909 87151,38909 87152,38909 87154,38909 87155,38908 87156,38908 87157,38907 87158,38907 87159,38907 87160,38906 87161,38906 87162,38905 87163,38905 87164,38904 87165,38903 87166,38903 87166,38902 87167,38902 87168,38901 87169,38900 87170,38900 87171,38899 87172,38898 87172,38897 87173,38896 87174,38896 87174,38895 87175,38894 87176,38893 87177,38892 87177,38891 87178,38890 87179,38889 87180,38888 87180,38887 87181,38886 87181,38885 87182,38884 87182,38883 87182,38882 87183,38881 87183,38880 87184,38878 87184,38877 87184,38876 87184,38875 87185,38874 87185,38873 87185,38872 87185,38871 87185,38870 87185,38869 87185,38868 87185,38867 87185,38866 87185,38235 87185,38233 87185,38232 87185,38231 87185,38230 87185,38229 87185,38228 87185,38227 87185,38226 87184,38225 87184,38224 87184,38222 87184,38221 87183,38220 87183,38219 87182,38218 87182,38217 87182,38216 87181,38215 87181,38214 87180,38213 87180,38212 87179,38211 87178,38210 87178,38209 87177,38209 87177,38208 87176,38207 87175,38206 87174,38205 87174,38204 87173,38203 87172,38203 87172,38202 87171,38201 87170,38200 87169,38200 87168,38199 87167,38198 87166,38198 87166,38197 87165,38196 87164,38196 87163,38195 87162,38195 87161,38194 87160,38194 87159,38193 87158,38193 87157,38193 87156,38192 87155,38192 87154,38191 87152,38191 87151,38191 87150,38191 87149,38190 87148,38190 87147,38190 87146,38190 87145,38190 87144,38190 87143,38190 87142,38189 87140,38189 86060,38189 86058,38189 86057,38190 86056,38190 86055,38190 86054,38190 86053,38190 86052,38190 86051,38190 86050,38191 86049,38191 86048,38191 86046,38191 86045,38192 86044,38192 86043,38193 86042,38193 86041,38193 86040,38194 86039,38194 86038,38195 86037,38195 86036,38196 86035,38196 86035,38197 86034,38198 86033,38198 86032,38199 86031,38200 86030,38200 86029,38201 86028,38202 86028,38203 86027,38203 86026,38204 86025,38205 86025,38206 86024,38207 86023,38208 86023,38209 86022,38209 86022,38210 86021,38211 86020,38212 86020,38213 86019,38214 86019,38215 86018,38216 86018,38217 86018,38218 86017,38219 86017,38220 86016,38221 86016,38222 86016,38224 86016,38225 86015,38226 86015,38227 86015,38228 86015,38229 86015,38230 86015,38231 86015,38232 86015,38233 86015,38235 86015,38865 86015,38867 86015,38868 86015,38869 86015,38870 86015,38871 86015,38872 86015,38873 86015,38874 86016,38875 86016,38876 86016,38877 86016,38878 86017,38880 86017,38881 86018,38882 86018,38883 86018,38884 86019,38885 86019,38886 86020,38887 86020,38888 86021,38889 86022,38890 86023,38891 86023,38892 86024,38893 86025,38894 86025,38895 86026,38896 86027,38896 86028,38897 86028,38898 86029,38899 86030,38900 86031,38900 86032,38901 86033,38902 86034,38902 86035,38903 86036,38904 86037,38905 86038,38905 86039,38906 86040,38906 86041,38907 86042,38907 86043,38907 86044,38908 86045,38908 86046,38909 86048,38909 86049,38909 86050,38909 86051,38910 86052,38910 86053,38910 86054,38910 86055,38910 86056,38910 86057,38910 86058,38910 86060,38910 86059,38910 Z"/>
    <path fill="none" stroke="rgb(255,255,255)" d="M 86059,38910 L 87140,38910 87142,38910 87143,38910 87144,38910 87145,38910 87146,38910 87147,38910 87148,38910 87149,38910 87150,38909 87151,38909 87152,38909 87154,38909 87155,38908 87156,38908 87157,38907 87158,38907 87159,38907 87160,38906 87161,38906 87162,38905 87163,38905 87164,38904 87165,38903 87166,38903 87166,38902 87167,38902 87168,38901 87169,38900 87170,38900 87171,38899 87172,38898 87172,38897 87173,38896 87174,38896 87174,38895 87175,38894 87176,38893 87177,38892 87177,38891 87178,38890 87179,38889 87180,38888 87180,38887 87181,38886 87181,38885 87182,38884 87182,38883 87182,38882 87183,38881 87183,38880 87184,38878 87184,38877 87184,38876 87184,38875 87185,38874 87185,38873 87185,38872 87185,38871 87185,38870 87185,38869 87185,38868 87185,38867 87185,38866 87185,38235 87185,38233 87185,38232 87185,38231 87185,38230 87185,38229 87185,38228 87185,38227 87185,38226 87184,38225 87184,38224 87184,38222 87184,38221 87183,38220 87183,38219 87182,38218 87182,38217 87182,38216 87181,38215 87181,38214 87180,38213 87180,38212 87179,38211 87178,38210 87178,38209 87177,38209 87177,38208 87176,38207 87175,38206 87174,38205 87174,38204 87173,38203 87172,38203 87172,38202 87171,38201 87170,38200 87169,38200 87168,38199 87167,38198 87166,38198 87166,38197 87165,38196 87164,38196 87163,38195 87162,38195 87161,38194 87160,38194 87159,38193 87158,38193 87157,38193 87156,38192 87155,38192 87154,38191 87152,38191 87151,38191 87150,38191 87149,38190 87148,38190 87147,38190 87146,38190 87145,38190 87144,38190 87143,38190 87142,38189 87140,38189 86060,38189 86058,38189 86057,38190 86056,38190 86055,38190 86054,38190 86053,38190 86052,38190 86051,38190 86050,38191 86049,38191 86048,38191 86046,38191 86045,38192 86044,38192 86043,38193 86042,38193 86041,38193 86040,38194 86039,38194 86038,38195 86037,38195 86036,38196 86035,38196 86035,38197 86034,38198 86033,38198 86032,38199 86031,38200 86030,38200 86029,38201 86028,38202 86028,38203 86027,38203 86026,38204 86025,38205 86025,38206 86024,38207 86023,38208 86023,38209 86022,38209 86022,38210 86021,38211 86020,38212 86020,38213 86019,38214 86019,38215 86018,38216 86018,38217 86018,38218 86017,38219 86017,38220 86016,38221 86016,38222 86016,38224 86016,38225 86015,38226 86015,38227 86015,38228 86015,38229 86015,38230 86015,38231 86015,38232 86015,38233 86015,38235 86015,38865 86015,38867 86015,38868 86015,38869 86015,38870 86015,38871 86015,38872 86015,38873 86015,38874 86016,38875 86016,38876 86016,38877 86016,38878 86017,38880 86017,38881 86018,38882 86018,38883 86018,38884 86019,38885 86019,38886 86020,38887 86020,38888 86021,38889 86022,38890 86023,38891 86023,38892 86024,38893 86025,38894 86025,38895 86026,38896 86027,38896 86028,38897 86028,38898 86029,38899 86030,38900 86031,38900 86032,38901 86033,38902 86034,38902 86035,38903 86036,38904 86037,38905 86038,38905 86039,38906 86040,38906 86041,38907 86042,38907 86043,38907 86044,38908 86045,38908 86046,38909 86048,38909 86049,38909 86050,38909 86051,38910 86052,38910 86053,38910 86054,38910 86055,38910 86056,38910 86057,38910 86058,38910 86060,38910 86059,38910 Z"/>
   </g>
  </g>
  <g class="com.sun.star.drawing.PolyPolygonShape">
   <g id="id6">
    <rect class="BoundingBox" stroke="none" fill="none" x="86174" y="38279" width="292" height="543"/>
    <path fill="rgb(0,0,0)" stroke="none" d="M 86252,38349 L 86322,38349 86323,38349 86325,38349 86326,38349 86327,38349 86329,38349 86330,38350 86331,38350 86333,38350 86334,38350 86335,38351 86336,38351 86338,38351 86339,38352 86340,38352 86341,38353 86343,38353 86344,38354 86345,38354 86346,38355 86347,38355 86349,38356 86350,38357 86351,38357 86352,38358 86353,38359 86354,38360 86355,38360 86356,38361 86357,38362 86358,38363 86359,38364 86360,38365 86361,38366 86362,38367 86363,38368 86364,38369 86365,38370 86365,38371 86366,38372 86367,38373 86368,38374 86368,38375 86369,38376 86370,38377 86370,38379 86371,38380 86371,38381 86372,38382 86372,38383 86373,38385 86373,38386 86374,38387 86374,38389 86374,38390 86375,38391 86375,38392 86375,38394 86375,38395 86376,38396 86376,38398 86376,38399 86376,38400 86376,38402 86376,38403 86376,38457 86376,38458 86376,38460 86376,38461 86376,38462 86376,38464 86375,38465 86375,38466 86375,38467 86375,38469 86374,38470 86374,38471 86374,38473 86373,38474 86373,38475 86372,38476 86372,38478 86371,38479 86371,38480 86370,38481 86370,38482 86369,38484 86368,38485 86368,38486 86367,38487 86366,38488 86365,38489 86365,38490 86364,38491 86363,38492 86362,38493 86361,38494 86360,38495 86359,38496 86358,38497 86357,38498 86356,38499 86355,38499 86354,38500 86353,38501 86352,38502 86351,38503 86350,38503 86349,38504 86347,38504 86346,38505 86345,38506 86344,38506 86343,38507 86341,38507 86340,38508 86339,38508 86338,38509 86336,38509 86335,38509 86334,38510 86333,38510 86331,38510 86330,38510 86329,38511 86327,38511 86326,38511 86325,38511 86323,38511 86322,38511 86252,38511 86252,38349 Z M 86175,38820 L 86175,38280 86330,38280 86331,38280 86333,38280 86334,38280 86336,38280 86337,38280 86339,38280 86340,38280 86342,38280 86343,38280 86345,38280 86346,38281 86348,38281 86349,38281 86351,38281 86352,38282 86354,38282 86355,38282 86357,38282 86358,38283 86360,38283 86361,38284 86363,38284 86364,38284 86366,38285 86367,38285 86368,38286 86370,38286 86371,38287 86373,38287 86374,38288 86376,38288 86377,38289 86378,38289 86380,38290 86381,38291 86382,38291 86384,38292 86385,38293 86387,38293 86388,38294 86389,38295 86391,38296 86392,38296 86393,38297 86394,38298 86396,38299 86397,38300 86398,38300 86400,38301 86401,38302 86402,38303 86403,38304 86405,38305 86406,38306 86407,38307 86408,38308 86409,38308 86410,38309 86412,38310 86413,38311 86414,38313 86415,38314 86416,38315 86417,38316 86418,38317 86419,38318 86420,38319 86421,38320 86422,38321 86423,38322 86424,38323 86425,38325 86426,38326 86427,38327 86428,38328 86429,38329 86430,38331 86431,38332 86432,38333 86432,38334 86433,38336 86434,38337 86435,38338 86436,38339 86436,38341 86437,38342 86438,38343 86439,38345 86439,38346 86440,38347 86441,38349 86441,38350 86442,38351 86443,38353 86443,38354 86444,38356 86444,38357 86445,38358 86445,38360 86446,38361 86446,38363 86447,38364 86447,38366 86448,38367 86448,38369 86449,38370 86449,38371 86449,38373 86450,38374 86450,38376 86450,38377 86451,38379 86451,38380 86451,38382 86452,38383 86452,38385 86452,38386 86452,38388 86452,38389 86453,38391 86453,38392 86453,38394 86453,38395 86453,38397 86453,38398 86453,38400 86453,38401 86453,38403 86453,38457 86453,38460 86453,38462 86453,38465 86453,38468 86452,38470 86452,38473 86452,38475 86451,38478 86451,38481 86450,38483 86450,38486 86449,38488 86448,38491 86448,38494 86447,38496 86446,38499 86445,38501 86444,38504 86443,38506 86442,38509 86441,38511 86439,38513 86438,38516 86437,38518 86436,38520 86434,38523 86433,38525 86431,38527 86430,38529 86428,38531 86426,38534 86425,38536 86423,38538 86421,38541 86420,38543 86418,38544 86416,38546 86414,38548 86412,38550 86410,38552 86408,38553 86406,38555 86404,38557 86402,38558 86399,38560 86397,38561 86395,38563 86393,38564 86390,38565 86388,38567 86386,38568 86383,38569 86381,38570 86378,38571 86376,38572 86373,38573 86371,38574 86368,38575 86366,38576 86363,38577 86361,38577 86358,38578 86356,38579 86353,38579 86464,38820 86379,38820 86269,38581 86252,38581 86252,38820 86175,38820 Z"/>
    <path fill="none" stroke="rgb(0,0,0)" d="M 86252,38349 L 86322,38349 86323,38349 86325,38349 86326,38349 86327,38349 86329,38349 86330,38350 86331,38350 86333,38350 86334,38350 86335,38351 86336,38351 86338,38351 86339,38352 86340,38352 86341,38353 86343,38353 86344,38354 86345,38354 86346,38355 86347,38355 86349,38356 86350,38357 86351,38357 86352,38358 86353,38359 86354,38360 86355,38360 86356,38361 86357,38362 86358,38363 86359,38364 86360,38365 86361,38366 86362,38367 86363,38368 86364,38369 86365,38370 86365,38371 86366,38372 86367,38373 86368,38374 86368,38375 86369,38376 86370,38377 86370,38379 86371,38380 86371,38381 86372,38382 86372,38383 86373,38385 86373,38386 86374,38387 86374,38389 86374,38390 86375,38391 86375,38392 86375,38394 86375,38395 86376,38396 86376,38398 86376,38399 86376,38400 86376,38402 86376,38403 86376,38457 86376,38458 86376,38460 86376,38461 86376,38462 86376,38464 86375,38465 86375,38466 86375,38467 86375,38469 86374,38470 86374,38471 86374,38473 86373,38474 86373,38475 86372,38476 86372,38478 86371,38479 86371,38480 86370,38481 86370,38482 86369,38484 86368,38485 86368,38486 86367,38487 86366,38488 86365,38489 86365,38490 86364,38491 86363,38492 86362,38493 86361,38494 86360,38495 86359,38496 86358,38497 86357,38498 86356,38499 86355,38499 86354,38500 86353,38501 86352,38502 86351,38503 86350,38503 86349,38504 86347,38504 86346,38505 86345,38506 86344,38506 86343,38507 86341,38507 86340,38508 86339,38508 86338,38509 86336,38509 86335,38509 86334,38510 86333,38510 86331,38510 86330,38510 86329,38511 86327,38511 86326,38511 86325,38511 86323,38511 86322,38511 86252,38511 86252,38349 Z"/>
    <path fill="none" stroke="rgb(0,0,0)" d="M 86175,38820 L 86175,38280 86330,38280 86331,38280 86333,38280 86334,38280 86336,38280 86337,38280 86339,38280 86340,38280 86342,38280 86343,38280 86345,38280 86346,38281 86348,38281 86349,38281 86351,38281 86352,38282 86354,38282 86355,38282 86357,38282 86358,38283 86360,38283 86361,38284 86363,38284 86364,38284 86366,38285 86367,38285 86368,38286 86370,38286 86371,38287 86373,38287 86374,38288 86376,38288 86377,38289 86378,38289 86380,38290 86381,38291 86382,38291 86384,38292 86385,38293 86387,38293 86388,38294 86389,38295 86391,38296 86392,38296 86393,38297 86394,38298 86396,38299 86397,38300 86398,38300 86400,38301 86401,38302 86402,38303 86403,38304 86405,38305 86406,38306 86407,38307 86408,38308 86409,38308 86410,38309 86412,38310 86413,38311 86414,38313 86415,38314 86416,38315 86417,38316 86418,38317 86419,38318 86420,38319 86421,38320 86422,38321 86423,38322 86424,38323 86425,38325 86426,38326 86427,38327 86428,38328 86429,38329 86430,38331 86431,38332 86432,38333 86432,38334 86433,38336 86434,38337 86435,38338 86436,38339 86436,38341 86437,38342 86438,38343 86439,38345 86439,38346 86440,38347 86441,38349 86441,38350 86442,38351 86443,38353 86443,38354 86444,38356 86444,38357 86445,38358 86445,38360 86446,38361 86446,38363 86447,38364 86447,38366 86448,38367 86448,38369 86449,38370 86449,38371 86449,38373 86450,38374 86450,38376 86450,38377 86451,38379 86451,38380 86451,38382 86452,38383 86452,38385 86452,38386 86452,38388 86452,38389 86453,38391 86453,38392 86453,38394 86453,38395 86453,38397 86453,38398 86453,38400 86453,38401 86453,38403 86453,38457 86453,38460 86453,38462 86453,38465 86453,38468 86452,38470 86452,38473 86452,38475 86451,38478 86451,38481 86450,38483 86450,38486 86449,38488 86448,38491 86448,38494 86447,38496 86446,38499 86445,38501 86444,38504 86443,38506 86442,38509 86441,38511 86439,38513 86438,38516 86437,38518 86436,38520 86434,38523 86433,38525 86431,38527 86430,38529 86428,38531 86426,38534 86425,38536 86423,38538 86421,38541 86420,38543 86418,38544 86416,38546 86414,38548 86412,38550 86410,38552 86408,38553 86406,38555 86404,38557 86402,38558 86399,38560 86397,38561 86395,38563 86393,38564 86390,38565 86388,38567 86386,38568 86383,38569 86381,38570 86378,38571 86376,38572 86373,38573 86371,38574 86368,38575 86366,38576 86363,38577 86361,38577 86358,38578 86356,38579 86353,38579 86464,38820 86379,38820 86269,38581 86252,38581 86252,38820 86175,38820 Z"/>
   </g>
  </g>
 </g>
</svg>