<?xml version="1.0" encoding="UTF-8"?>
<!DOCTYPE svg PUBLIC "-//W3C//DTD SVG 1.1//EN" "http://www.w3.org/Graphics/SVG/1.1/DTD/svg11.dtd">
<svg version="1.2" width="18.78mm" height="25.03mm" viewBox="87861 36499 1878 2503" preserveAspectRatio="xMidYMid" fill-rule="evenodd" stroke-width="28.222" stroke-linejoin="round" xmlns="http://www.w3.org/2000/svg" xmlns:ooo="http://xml.openoffice.org/svg/export" xmlns:xlink="http://www.w3.org/1999/xlink" xmlns:presentation="http://sun.com/xmlns/staroffice/presentation" xmlns:smil="http://www.w3.org/2001/SMIL20/" xmlns:anim="urn:oasis:names:tc:opendocument:xmlns:animation:1.0" xml:space="preserve">
 <defs class="EmbeddedBulletChars">
  <g id="bullet-char-template-57356" transform="scale(0.00048828125,-0.00048828125)">
   <path d="M 580,1141 L 1163,571 580,0 -4,571 580,1141 Z"/>
  </g>
  <g id="bullet-char-template-57354" transform="scale(0.00048828125,-0.00048828125)">
   <path d="M 8,1128 L 1137,1128 1137,0 8,0 8,1128 Z"/>
  </g>
  <g id="bullet-char-template-10146" transform="scale(0.00048828125,-0.00048828125)">
   <path d="M 174,0 L 602,739 174,1481 1456,739 174,0 Z M 1358,739 L 309,1346 659,739 1358,739 Z"/>
  </g>
  <g id="bullet-char-template-10132" transform="scale(0.00048828125,-0.00048828125)">
   <path d="M 2015,739 L 1276,0 717,0 1260,543 174,543 174,936 1260,936 717,1481 1274,1481 2015,739 Z"/>
  </g>
  <g id="bullet-char-template-10007" transform="scale(0.00048828125,-0.00048828125)">
   <path d="M 0,-2 C -7,14 -16,27 -25,37 L 356,567 C 262,823 215,952 215,954 215,979 228,992 255,992 264,992 276,990 289,987 310,991 331,999 354,1012 L 381,999 492,748 772,1049 836,1024 860,1049 C 881,1039 901,1025 922,1006 886,937 835,863 770,784 769,783 710,716 594,584 L 774,223 C 774,196 753,168 711,139 L 727,119 C 717,90 699,76 672,76 641,76 570,178 457,381 L 164,-76 C 142,-110 111,-127 72,-127 30,-127 9,-110 8,-76 1,-67 -2,-52 -2,-32 -2,-23 -1,-13 0,-2 Z"/>
  </g>
  <g id="bullet-char-template-10004" transform="scale(0.00048828125,-0.00048828125)">
   <path d="M 285,-33 C 182,-33 111,30 74,156 52,228 41,333 41,471 41,549 55,616 82,672 116,743 169,778 240,778 293,778 328,747 346,684 L 369,508 C 377,444 397,411 428,410 L 1163,1116 C 1174,1127 1196,1133 1229,1133 1271,1133 1292,1118 1292,1087 L 1292,965 C 1292,929 1282,901 1262,881 L 442,47 C 390,-6 338,-33 285,-33 Z"/>
  </g>
  <g id="bullet-char-template-9679" transform="scale(0.00048828125,-0.00048828125)">
   <path d="M 813,0 C 632,0 489,54 383,161 276,268 223,411 223,592 223,773 276,916 383,1023 489,1130 632,1184 813,1184 992,1184 1136,1130 1245,1023 1353,916 1407,772 1407,592 1407,412 1353,268 1245,161 1136,54 992,0 813,0 Z"/>
  </g>
  <g id="bullet-char-template-8226" transform="scale(0.00048828125,-0.00048828125)">
   <path d="M 346,457 C 273,457 209,483 155,535 101,586 74,649 74,723 74,796 101,859 155,911 209,963 273,989 346,989 419,989 480,963 531,910 582,859 608,796 608,723 608,648 583,586 532,535 482,483 420,457 346,457 Z"/>
  </g>
  <g id="bullet-char-template-8211" transform="scale(0.00048828125,-0.00048828125)">
   <path d="M -4,459 L 1135,459 1135,606 -4,606 -4,459 Z"/>
  </g>
  <g id="bullet-char-template-61548" transform="scale(0.00048828125,-0.00048828125)">
   <path d="M 173,740 C 173,903 231,1043 346,1159 462,1274 601,1332 765,1332 928,1332 1067,1274 1183,1159 1299,1043 1357,903 1357,740 1357,577 1299,437 1183,322 1067,206 928,148 765,148 601,148 462,206 346,322 231,437 173,577 173,740 Z"/>
  </g>
 </defs>
 <g class="Page">
  <g class="com.sun.star.drawing.PolyPolygonShape">
   <g id="id3">
    <rect class="BoundingBox" stroke="none" fill="none" x="87861" y="36499" width="1878" height="2503"/>
    <path fill="rgb(0,0,255)" stroke="none" d="M 87903,39000 L 89697,39000 89699,39000 89701,39000 89703,39000 89705,39000 89707,38999 89709,38999 89711,38998 89712,38997 89714,38996 89716,38996 89718,38995 89719,38993 89721,38992 89723,38991 89724,38990 89726,38988 89727,38987 89728,38986 89730,38984 89731,38982 89732,38981 89733,38979 89734,38977 89734,38975 89735,38973 89736,38972 89736,38970 89737,38968 89737,38966 89737,38964 89737,38962 89737,38960 89737,36540 89737,36538 89737,36536 89737,36534 89737,36532 89736,36530 89736,36528 89735,36526 89734,36525 89734,36523 89733,36521 89732,36519 89731,36517 89730,36516 89728,36514 89727,36513 89726,36511 89724,36510 89723,36509 89721,36507 89719,36506 89718,36505 89716,36504 89714,36503 89712,36503 89711,36502 89709,36501 89707,36501 89705,36500 89703,36500 89701,36500 89699,36500 89697,36500 87903,36500 87901,36500 87899,36500 87897,36500 87895,36500 87893,36501 87891,36501 87889,36502 87887,36503 87886,36503 87884,36504 87882,36505 87880,36506 87879,36507 87877,36509 87876,36510 87874,36511 87873,36513 87871,36514 87870,36516 87869,36517 87868,36519 87867,36521 87866,36523 87865,36525 87865,36526 87864,36528 87864,36530 87863,36532 87863,36534 87862,36536 87862,36538 87862,36540 87862,38960 87862,38962 87862,38964 87863,38966 87863,38968 87864,38970 87864,38972 87865,38973 87865,38975 87866,38977 87867,38979 87868,38981 87869,38982 87870,38984 87871,38986 87873,38987 87874,38988 87876,38990 87877,38991 87879,38992 87880,38993 87882,38995 87884,38996 87886,38996 87887,38997 87889,38998 87891,38999 87893,38999 87895,39000 87897,39000 87899,39000 87901,39000 87903,39000 Z"/>
    <path fill="none" stroke="rgb(0,0,255)" d="M 87903,39000 L 89697,39000 89699,39000 89701,39000 89703,39000 89705,39000 89707,38999 89709,38999 89711,38998 89712,38997 89714,38996 89716,38996 89718,38995 89719,38993 89721,38992 89723,38991 89724,38990 89726,38988 89727,38987 89728,38986 89730,38984 89731,38982 89732,38981 89733,38979 89734,38977 89734,38975 89735,38973 89736,38972 89736,38970 89737,38968 89737,38966 89737,38964 89737,38962 89737,38960 89737,36540 89737,36538 89737,36536 89737,36534 89737,36532 89736,36530 89736,36528 89735,36526 89734,36525 89734,36523 89733,36521 89732,36519 89731,36517 89730,36516 89728,36514 89727,36513 89726,36511 89724,36510 89723,36509 89721,36507 89719,36506 89718,36505 89716,36504 89714,36503 89712,36503 89711,36502 89709,36501 89707,36501 89705,36500 89703,36500 89701,36500 89699,36500 89697,36500 87903,36500 87901,36500 87899,36500 87897,36500 87895,36500 87893,36501 87891,36501 87889,36502 87887,36503 87886,36503 87884,36504 87882,36505 87880,36506 87879,36507 87877,36509 87876,36510 87874,36511 87873,36513 87871,36514 87870,36516 87869,36517 87868,36519 87867,36521 87866,36523 87865,36525 87865,36526 87864,36528 87864,36530 87863,36532 87863,36534 87862,36536 87862,36538 87862,36540 87862,38960 87862,38962 87862,38964 87863,38966 87863,38968 87864,38970 87864,38972 87865,38973 87865,38975 87866,38977 87867,38979 87868,38981 87869,38982 87870,38984 87871,38986 87873,38987 87874,38988 87876,38990 87877,38991 87879,38992 87880,38993 87882,38995 87884,38996 87886,38996 87887,38997 87889,38998 87891,38999 87893,38999 87895,39000 87897,39000 87899,39000 87901,39000 87903,39000 Z"/>
   </g>
  </g>
  <g class="com.sun.star.drawing.PolyPolygonShape">
   <g id="id4">
    <rect class="BoundingBox" stroke="none" fill="none" x="87889" y="36527" width="1822" height="2447"/>
    <path fill="rgb(255,255,255)" stroke="none" d="M 87984,38972 L 89616,38972 89618,38972 89620,38972 89623,38972 89625,38972 89627,38972 89629,38971 89632,38971 89634,38970 89636,38970 89638,38969 89641,38969 89643,38968 89645,38968 89647,38967 89649,38966 89652,38965 89654,38964 89656,38963 89658,38962 89660,38961 89662,38960 89664,38959 89666,38958 89668,38956 89670,38955 89672,38954 89673,38952 89675,38951 89677,38949 89679,38948 89680,38946 89682,38945 89684,38943 89685,38941 89687,38940 89688,38938 89690,38936 89691,38934 89692,38932 89694,38931 89695,38929 89696,38927 89697,38925 89698,38923 89699,38921 89700,38919 89701,38917 89702,38914 89703,38912 89704,38910 89705,38908 89705,38906 89706,38903 89707,38901 89707,38899 89708,38897 89708,38895 89708,38892 89709,38890 89709,38888 89709,38885 89709,38883 89709,38881 89709,38879 89709,36621 89709,36619 89709,36617 89709,36614 89709,36612 89709,36610 89708,36608 89708,36605 89708,36603 89707,36601 89707,36599 89706,36596 89705,36594 89705,36592 89704,36590 89703,36588 89702,36585 89701,36583 89700,36581 89699,36579 89698,36577 89697,36575 89696,36573 89695,36571 89694,36569 89692,36567 89691,36565 89690,36564 89688,36562 89687,36560 89685,36558 89684,36557 89682,36555 89680,36554 89679,36552 89677,36550 89675,36549 89673,36547 89672,36546 89670,36545 89668,36543 89666,36542 89664,36541 89662,36540 89660,36539 89658,36538 89656,36537 89654,36536 89652,36535 89649,36534 89647,36533 89645,36532 89643,36532 89641,36531 89638,36530 89636,36530 89634,36529 89632,36529 89629,36529 89627,36528 89625,36528 89623,36528 89620,36528 89618,36528 89616,36528 87984,36528 87982,36528 87980,36528 87977,36528 87975,36528 87973,36528 87970,36529 87968,36529 87966,36529 87964,36530 87961,36530 87959,36531 87957,36532 87955,36532 87953,36533 87950,36534 87948,36535 87946,36536 87944,36537 87942,36538 87940,36539 87938,36540 87936,36541 87934,36542 87932,36543 87930,36545 87928,36546 87926,36547 87925,36549 87923,36550 87921,36552 87920,36554 87918,36555 87916,36557 87915,36558 87913,36560 87912,36562 87910,36564 87909,36565 87908,36567 87906,36569 87905,36571 87904,36573 87903,36575 87902,36577 87900,36579 87899,36581 87898,36583 87898,36585 87897,36588 87896,36590 87895,36592 87894,36594 87894,36596 87893,36599 87893,36601 87892,36603 87892,36605 87891,36608 87891,36610 87891,36612 87891,36614 87891,36617 87890,36619 87890,36621 87890,38879 87890,38881 87891,38883 87891,38885 87891,38888 87891,38890 87891,38892 87892,38895 87892,38897 87893,38899 87893,38901 87894,38903 87894,38906 87895,38908 87896,38910 87897,38912 87898,38914 87898,38917 87899,38919 87900,38921 87902,38923 87903,38925 87904,38927 87905,38929 87906,38931 87908,38932 87909,38934 87910,38936 87912,38938 87913,38940 87915,38941 87916,38943 87918,38945 87920,38946 87921,38948 87923,38949 87925,38951 87926,38952 87928,38954 87930,38955 87932,38956 87934,38958 87936,38959 87938,38960 87940,38961 87942,38962 87944,38963 87946,38964 87948,38965 87950,38966 87953,38967 87955,38968 87957,38968 87959,38969 87961,38969 87964,38970 87966,38970 87968,38971 87970,38971 87973,38972 87975,38972 87977,38972 87980,38972 87982,38972 87984,38972 Z"/>
    <path fill="none" stroke="rgb(255,255,255)" d="M 87984,38972 L 89616,38972 89618,38972 89620,38972 89623,38972 89625,38972 89627,38972 89629,38971 89632,38971 89634,38970 89636,38970 89638,38969 89641,38969 89643,38968 89645,38968 89647,38967 89649,38966 89652,38965 89654,38964 89656,38963 89658,38962 89660,38961 89662,38960 89664,38959 89666,38958 89668,38956 89670,38955 89672,38954 89673,38952 89675,38951 89677,38949 89679,38948 89680,38946 89682,38945 89684,38943 89685,38941 89687,38940 89688,38938 89690,38936 89691,38934 89692,38932 89694,38931 89695,38929 89696,38927 89697,38925 89698,38923 89699,38921 89700,38919 89701,38917 89702,38914 89703,38912 89704,38910 89705,38908 89705,38906 89706,38903 89707,38901 89707,38899 89708,38897 89708,38895 89708,38892 89709,38890 89709,38888 89709,38885 89709,38883 89709,38881 89709,38879 89709,36621 89709,36619 89709,36617 89709,36614 89709,36612 89709,36610 89708,36608 89708,36605 89708,36603 89707,36601 89707,36599 89706,36596 89705,36594 89705,36592 89704,36590 89703,36588 89702,36585 89701,36583 89700,36581 89699,36579 89698,36577 89697,36575 89696,36573 89695,36571 89694,36569 89692,36567 89691,36565 89690,36564 89688,36562 89687,36560 89685,36558 89684,36557 89682,36555 89680,36554 89679,36552 89677,36550 89675,36549 89673,36547 89672,36546 89670,36545 89668,36543 89666,36542 89664,36541 89662,36540 89660,36539 89658,36538 89656,36537 89654,36536 89652,36535 89649,36534 89647,36533 89645,36532 89643,36532 89641,36531 89638,36530 89636,36530 89634,36529 89632,36529 89629,36529 89627,36528 89625,36528 89623,36528 89620,36528 89618,36528 89616,36528 87984,36528 87982,36528 87980,36528 87977,36528 87975,36528 87973,36528 87970,36529 87968,36529 87966,36529 87964,36530 87961,36530 87959,36531 87957,36532 87955,36532 87953,36533 87950,36534 87948,36535 87946,36536 87944,36537 87942,36538 87940,36539 87938,36540 87936,36541 87934,36542 87932,36543 87930,36545 87928,36546 87926,36547 87925,36549 87923,36550 87921,36552 87920,36554 87918,36555 87916,36557 87915,36558 87913,36560 87912,36562 87910,36564 87909,36565 87908,36567 87906,36569 87905,36571 87904,36573 87903,36575 87902,36577 87900,36579 87899,36581 87898,36583 87898,36585 87897,36588 87896,36590 87895,36592 87894,36594 87894,36596 87893,36599 87893,36601 87892,36603 87892,36605 87891,36608 87891,36610 87891,36612 87891,36614 87891,36617 87890,36619 87890,36621 87890,38879 87890,38881 87891,38883 87891,38885 87891,38888 87891,38890 87891,38892 87892,38895 87892,38897 87893,38899 87893,38901 87894,38903 87894,38906 87895,38908 87896,38910 87897,38912 87898,38914 87898,38917 87899,38919 87900,38921 87902,38923 87903,38925 87904,38927 87905,38929 87906,38931 87908,38932 87909,38934 87910,38936 87912,38938 87913,38940 87915,38941 87916,38943 87918,38945 87920,38946 87921,38948 87923,38949 87925,38951 87926,38952 87928,38954 87930,38955 87932,38956 87934,38958 87936,38959 87938,38960 87940,38961 87942,38962 87944,38963 87946,38964 87948,38965 87950,38966 87953,38967 87955,38968 87957,38968 87959,38969 87961,38969 87964,38970 87966,38970 87968,38971 87970,38971 87973,38972 87975,38972 87977,38972 87980,38972 87982,38972 87984,38972 Z"/>
   </g>
  </g>
  <g class="com.sun.star.drawing.PolyPolygonShape">
   <g id="id5">
    <rect class="BoundingBox" stroke="none" fill="none" x="87917" y="36555" width="1766" height="2391"/>
    <path fill="rgb(0,0,255)" stroke="none" d="M 87984,38944 L 89616,38944 89617,38944 89619,38944 89621,38944 89622,38944 89624,38944 89625,38943 89627,38943 89628,38943 89630,38942 89632,38942 89633,38942 89635,38941 89636,38941 89638,38940 89639,38940 89641,38939 89642,38939 89644,38938 89645,38937 89647,38936 89648,38936 89649,38935 89651,38934 89652,38933 89653,38932 89655,38931 89656,38930 89657,38929 89659,38928 89660,38927 89661,38926 89662,38925 89663,38924 89664,38922 89665,38921 89666,38920 89667,38919 89668,38918 89669,38916 89670,38915 89671,38914 89672,38912 89673,38911 89673,38909 89674,38908 89675,38907 89676,38905 89676,38904 89677,38902 89677,38901 89678,38899 89678,38897 89679,38896 89679,38894 89680,38893 89680,38891 89680,38890 89681,38888 89681,38886 89681,38885 89681,38883 89681,38882 89681,38880 89681,38879 89681,36621 89681,36620 89681,36618 89681,36617 89681,36615 89681,36613 89681,36612 89680,36610 89680,36608 89680,36607 89679,36605 89679,36604 89678,36602 89678,36601 89677,36599 89677,36598 89676,36596 89676,36595 89675,36593 89674,36592 89673,36590 89673,36589 89672,36588 89671,36586 89670,36585 89669,36584 89668,36582 89667,36581 89666,36580 89665,36579 89664,36577 89663,36576 89662,36575 89661,36574 89660,36573 89659,36572 89657,36571 89656,36570 89655,36569 89653,36568 89652,36567 89651,36566 89649,36565 89648,36564 89647,36563 89645,36563 89644,36562 89642,36561 89641,36561 89639,36560 89638,36560 89636,36559 89635,36559 89633,36558 89632,36558 89630,36557 89628,36557 89627,36557 89625,36556 89624,36556 89622,36556 89621,36556 89619,36556 89617,36556 89616,36556 87984,36556 87983,36556 87981,36556 87979,36556 87978,36556 87976,36556 87975,36556 87973,36557 87971,36557 87970,36557 87968,36558 87967,36558 87965,36559 87963,36559 87962,36560 87961,36560 87959,36561 87958,36561 87956,36562 87955,36563 87953,36563 87952,36564 87950,36565 87949,36566 87948,36567 87946,36568 87945,36569 87944,36570 87943,36571 87941,36572 87940,36573 87939,36574 87938,36575 87937,36576 87936,36577 87935,36579 87933,36580 87932,36581 87931,36582 87931,36584 87930,36585 87929,36586 87928,36588 87927,36589 87926,36590 87926,36592 87925,36593 87924,36595 87923,36596 87923,36598 87922,36599 87922,36601 87921,36602 87921,36604 87920,36605 87920,36607 87920,36608 87920,36610 87919,36612 87919,36613 87919,36615 87919,36617 87919,36618 87919,36620 87918,36621 87918,38879 87919,38880 87919,38882 87919,38883 87919,38885 87919,38886 87919,38888 87920,38890 87920,38891 87920,38893 87920,38894 87921,38896 87921,38897 87922,38899 87922,38901 87923,38902 87923,38904 87924,38905 87925,38907 87926,38908 87926,38909 87927,38911 87928,38912 87929,38914 87930,38915 87931,38916 87931,38918 87932,38919 87933,38920 87935,38921 87936,38922 87937,38924 87938,38925 87939,38926 87940,38927 87941,38928 87943,38929 87944,38930 87945,38931 87946,38932 87948,38933 87949,38934 87950,38935 87952,38936 87953,38936 87955,38937 87956,38938 87958,38939 87959,38939 87961,38940 87962,38940 87963,38941 87965,38941 87967,38942 87968,38942 87970,38942 87971,38943 87973,38943 87975,38943 87976,38944 87978,38944 87979,38944 87981,38944 87983,38944 87984,38944 Z"/>
    <path fill="none" stroke="rgb(0,0,255)" d="M 87984,38944 L 89616,38944 89617,38944 89619,38944 89621,38944 89622,38944 89624,38944 89625,38943 89627,38943 89628,38943 89630,38942 89632,38942 89633,38942 89635,38941 89636,38941 89638,38940 89639,38940 89641,38939 89642,38939 89644,38938 89645,38937 89647,38936 89648,38936 89649,38935 89651,38934 89652,38933 89653,38932 89655,38931 89656,38930 89657,38929 89659,38928 89660,38927 89661,38926 89662,38925 89663,38924 89664,38922 89665,38921 89666,38920 89667,38919 89668,38918 89669,38916 89670,38915 89671,38914 89672,38912 89673,38911 89673,38909 89674,38908 89675,38907 89676,38905 89676,38904 89677,38902 89677,38901 89678,38899 89678,38897 89679,38896 89679,38894 89680,38893 89680,38891 89680,38890 89681,38888 89681,38886 89681,38885 89681,38883 89681,38882 89681,38880 89681,38879 89681,36621 89681,36620 89681,36618 89681,36617 89681,36615 89681,36613 89681,36612 89680,36610 89680,36608 89680,36607 89679,36605 89679,36604 89678,36602 89678,36601 89677,36599 89677,36598 89676,36596 89676,36595 89675,36593 89674,36592 89673,36590 89673,36589 89672,36588 89671,36586 89670,36585 89669,36584 89668,36582 89667,36581 89666,36580 89665,36579 89664,36577 89663,36576 89662,36575 89661,36574 89660,36573 89659,36572 89657,36571 89656,36570 89655,36569 89653,36568 89652,36567 89651,36566 89649,36565 89648,36564 89647,36563 89645,36563 89644,36562 89642,36561 89641,36561 89639,36560 89638,36560 89636,36559 89635,36559 89633,36558 89632,36558 89630,36557 89628,36557 89627,36557 89625,36556 89624,36556 89622,36556 89621,36556 89619,36556 89617,36556 89616,36556 87984,36556 87983,36556 87981,36556 87979,36556 87978,36556 87976,36556 87975,36556 87973,36557 87971,36557 87970,36557 87968,36558 87967,36558 87965,36559 87963,36559 87962,36560 87961,36560 87959,36561 87958,36561 87956,36562 87955,36563 87953,36563 87952,36564 87950,36565 87949,36566 87948,36567 87946,36568 87945,36569 87944,36570 87943,36571 87941,36572 87940,36573 87939,36574 87938,36575 87937,36576 87936,36577 87935,36579 87933,36580 87932,36581 87931,36582 87931,36584 87930,36585 87929,36586 87928,36588 87927,36589 87926,36590 87926,36592 87925,36593 87924,36595 87923,36596 87923,36598 87922,36599 87922,36601 87921,36602 87921,36604 87920,36605 87920,36607 87920,36608 87920,36610 87919,36612 87919,36613 87919,36615 87919,36617 87919,36618 87919,36620 87918,36621 87918,38879 87919,38880 87919,38882 87919,38883 87919,38885 87919,38886 87919,38888 87920,38890 87920,38891 87920,38893 87920,38894 87921,38896 87921,38897 87922,38899 87922,38901 87923,38902 87923,38904 87924,38905 87925,38907 87926,38908 87926,38909 87927,38911 87928,38912 87929,38914 87930,38915 87931,38916 87931,38918 87932,38919 87933,38920 87935,38921 87936,38922 87937,38924 87938,38925 87939,38926 87940,38927 87941,38928 87943,38929 87944,38930 87945,38931 87946,38932 87948,38933 87949,38934 87950,38935 87952,38936 87953,38936 87955,38937 87956,38938 87958,38939 87959,38939 87961,38940 87962,38940 87963,38941 87965,38941 87967,38942 87968,38942 87970,38942 87971,38943 87973,38943 87975,38943 87976,38944 87978,38944 87979,38944 87981,38944 87983,38944 87984,38944 Z"/>
   </g>
  </g>
  <g class="com.sun.star.drawing.PolyPolygonShape">
   <g id="id6">
    <rect class="BoundingBox" stroke="none" fill="none" x="88042" y="37055" width="454" height="1766"/>
    <path fill="rgb(255,255,255)" stroke="none" d="M 88212,38819 L 88326,38819 88326,37281 88494,37281 88269,37056 88043,37281 88212,37281 88212,38819 Z"/>
    <path fill="none" stroke="rgb(255,255,255)" d="M 88212,38819 L 88326,38819 88326,37281 88494,37281 88269,37056 88043,37281 88212,37281 88212,38819 Z"/>
   </g>
  </g>
  <g class="com.sun.star.drawing.PolyPolygonShape">
   <g id="id7">
    <rect class="BoundingBox" stroke="none" fill="none" x="88286" y="38202" width="719" height="494"/>
    <path fill="rgb(255,255,255)" stroke="none" d="M 88287,38629 L 88326,38694 88892,38366 88948,38464 89003,38258 88799,38203 88855,38301 88287,38629 Z"/>
    <path fill="none" stroke="rgb(255,255,255)" d="M 88287,38629 L 88326,38694 88892,38366 88948,38464 89003,38258 88799,38203 88855,38301 88287,38629 Z"/>
   </g>
  </g>
  <g class="com.sun.star.drawing.PolyPolygonShape">
   <g id="id8">
    <rect class="BoundingBox" stroke="none" fill="none" x="88423" y="38356" width="353" height="273"/>
    <path fill="rgb(255,255,255)" stroke="none" d="M 88449,38627 L 88749,38627 88750,38627 88752,38627 88753,38627 88754,38626 88755,38626 88756,38626 88758,38625 88759,38625 88760,38625 88761,38624 88762,38623 88763,38623 88764,38622 88765,38621 88766,38621 88767,38620 88768,38619 88768,38618 88769,38617 88770,38616 88771,38615 88771,38614 88772,38613 88772,38612 88773,38610 88773,38609 88773,38608 88774,38607 88774,38606 88774,38604 88774,38603 88774,38602 88774,38382 88774,38381 88774,38380 88774,38378 88774,38377 88773,38376 88773,38375 88773,38374 88772,38373 88772,38372 88771,38370 88771,38369 88770,38368 88769,38367 88768,38366 88768,38365 88767,38365 88766,38364 88765,38363 88764,38362 88763,38361 88762,38361 88761,38360 88760,38360 88759,38359 88758,38359 88756,38358 88755,38358 88754,38358 88753,38357 88752,38357 88750,38357 88749,38357 88449,38357 88448,38357 88447,38357 88445,38357 88444,38358 88443,38358 88442,38358 88441,38359 88440,38359 88438,38360 88437,38360 88436,38361 88435,38361 88434,38362 88433,38363 88432,38364 88431,38365 88430,38366 88429,38367 88428,38368 88428,38369 88427,38370 88426,38372 88426,38373 88426,38374 88425,38375 88425,38376 88425,38377 88424,38378 88424,38380 88424,38381 88424,38382 88424,38602 88424,38603 88424,38604 88424,38606 88425,38607 88425,38608 88425,38609 88426,38610 88426,38612 88426,38613 88427,38614 88428,38615 88428,38616 88429,38617 88430,38618 88431,38619 88431,38620 88432,38621 88433,38621 88434,38622 88435,38623 88436,38623 88437,38624 88438,38625 88440,38625 88441,38625 88442,38626 88443,38626 88444,38626 88445,38627 88447,38627 88448,38627 88449,38627 Z"/>
    <path fill="none" stroke="rgb(255,255,255)" d="M 88449,38627 L 88749,38627 88750,38627 88752,38627 88753,38627 88754,38626 88755,38626 88756,38626 88758,38625 88759,38625 88760,38625 88761,38624 88762,38623 88763,38623 88764,38622 88765,38621 88766,38621 88767,38620 88768,38619 88768,38618 88769,38617 88770,38616 88771,38615 88771,38614 88772,38613 88772,38612 88773,38610 88773,38609 88773,38608 88774,38607 88774,38606 88774,38604 88774,38603 88774,38602 88774,38382 88774,38381 88774,38380 88774,38378 88774,38377 88773,38376 88773,38375 88773,38374 88772,38373 88772,38372 88771,38370 88771,38369 88770,38368 88769,38367 88768,38366 88768,38365 88767,38365 88766,38364 88765,38363 88764,38362 88763,38361 88762,38361 88761,38360 88760,38360 88759,38359 88758,38359 88756,38358 88755,38358 88754,38358 88753,38357 88752,38357 88750,38357 88749,38357 88449,38357 88448,38357 88447,38357 88445,38357 88444,38358 88443,38358 88442,38358 88441,38359 88440,38359 88438,38360 88437,38360 88436,38361 88435,38361 88434,38362 88433,38363 88432,38364 88431,38365 88430,38366 88429,38367 88428,38368 88428,38369 88427,38370 88426,38372 88426,38373 88426,38374 88425,38375 88425,38376 88425,38377 88424,38378 88424,38380 88424,38381 88424,38382 88424,38602 88424,38603 88424,38604 88424,38606 88425,38607 88425,38608 88425,38609 88426,38610 88426,38612 88426,38613 88427,38614 88428,38615 88428,38616 88429,38617 88430,38618 88431,38619 88431,38620 88432,38621 88433,38621 88434,38622 88435,38623 88436,38623 88437,38624 88438,38625 88440,38625 88441,38625 88442,38626 88443,38626 88444,38626 88445,38627 88447,38627 88448,38627 88449,38627 Z"/>
   </g>
  </g>
  <g class="com.sun.star.drawing.PolyPolygonShape">
   <g id="id9">
    <rect class="BoundingBox" stroke="none" fill="none" x="88439" y="38372" width="321" height="241"/>
    <path fill="rgb(0,0,255)" stroke="none" d="M 88449,38611 L 88749,38611 88750,38611 88751,38611 88752,38611 88753,38611 88753,38610 88754,38610 88755,38609 88756,38609 88756,38608 88757,38607 88757,38606 88758,38606 88758,38605 88758,38604 88758,38603 88758,38602 88758,38382 88758,38381 88758,38380 88758,38379 88757,38378 88757,38377 88756,38376 88755,38375 88754,38374 88753,38374 88752,38373 88751,38373 88750,38373 88749,38373 88449,38373 88448,38373 88447,38373 88446,38373 88446,38374 88445,38374 88444,38374 88443,38375 88443,38376 88442,38376 88441,38377 88441,38378 88440,38379 88440,38380 88440,38381 88440,38382 88440,38602 88440,38603 88440,38604 88440,38605 88440,38606 88441,38606 88441,38607 88442,38608 88443,38609 88444,38610 88445,38610 88446,38611 88447,38611 88448,38611 88449,38611 Z"/>
    <path fill="none" stroke="rgb(0,0,255)" d="M 88449,38611 L 88749,38611 88750,38611 88751,38611 88752,38611 88753,38611 88753,38610 88754,38610 88755,38609 88756,38609 88756,38608 88757,38607 88757,38606 88758,38606 88758,38605 88758,38604 88758,38603 88758,38602 88758,38382 88758,38381 88758,38380 88758,38379 88757,38378 88757,38377 88756,38376 88755,38375 88754,38374 88753,38374 88752,38373 88751,38373 88750,38373 88749,38373 88449,38373 88448,38373 88447,38373 88446,38373 88446,38374 88445,38374 88444,38374 88443,38375 88443,38376 88442,38376 88441,38377 88441,38378 88440,38379 88440,38380 88440,38381 88440,38382 88440,38602 88440,38603 88440,38604 88440,38605 88440,38606 88441,38606 88441,38607 88442,38608 88443,38609 88444,38610 88445,38610 88446,38611 88447,38611 88448,38611 88449,38611 Z"/>
   </g>
  </g>
  <g class="com.sun.star.drawing.PolyPolygonShape">
   <g id="id10">
    <rect class="BoundingBox" stroke="none" fill="none" x="88093" y="37467" width="353" height="273"/>
    <path fill="rgb(255,255,255)" stroke="none" d="M 88119,37738 L 88419,37738 88420,37738 88421,37738 88423,37738 88424,37737 88425,37737 88426,37737 88427,37736 88428,37736 88430,37736 88431,37735 88432,37734 88433,37734 88434,37733 88435,37732 88436,37731 88437,37731 88437,37730 88438,37729 88439,37728 88440,37727 88440,37726 88441,37725 88442,37724 88442,37723 88442,37721 88443,37720 88443,37719 88443,37718 88444,37717 88444,37715 88444,37714 88444,37713 88444,37493 88444,37492 88444,37491 88444,37490 88443,37488 88443,37487 88443,37486 88442,37485 88442,37484 88442,37483 88441,37481 88440,37480 88440,37479 88439,37478 88438,37477 88437,37476 88437,37475 88436,37475 88435,37474 88434,37473 88433,37472 88432,37472 88431,37471 88430,37471 88428,37470 88427,37470 88426,37469 88425,37469 88424,37469 88423,37468 88421,37468 88420,37468 88419,37468 88119,37468 88118,37468 88116,37468 88115,37468 88114,37469 88113,37469 88112,37469 88110,37470 88109,37470 88108,37471 88107,37471 88106,37472 88105,37472 88104,37473 88103,37474 88102,37475 88101,37475 88100,37476 88100,37477 88099,37478 88098,37479 88097,37480 88097,37481 88096,37483 88096,37484 88095,37485 88095,37486 88095,37487 88094,37488 88094,37490 88094,37491 88094,37492 88094,37493 88094,37713 88094,37714 88094,37715 88094,37717 88094,37718 88095,37719 88095,37720 88095,37721 88096,37723 88096,37724 88097,37725 88097,37726 88098,37727 88099,37728 88100,37729 88100,37730 88101,37731 88102,37731 88103,37732 88104,37733 88105,37734 88106,37734 88107,37735 88108,37736 88109,37736 88110,37736 88112,37737 88113,37737 88114,37737 88115,37738 88116,37738 88118,37738 88119,37738 Z"/>
    <path fill="none" stroke="rgb(255,255,255)" d="M 88119,37738 L 88419,37738 88420,37738 88421,37738 88423,37738 88424,37737 88425,37737 88426,37737 88427,37736 88428,37736 88430,37736 88431,37735 88432,37734 88433,37734 88434,37733 88435,37732 88436,37731 88437,37731 88437,37730 88438,37729 88439,37728 88440,37727 88440,37726 88441,37725 88442,37724 88442,37723 88442,37721 88443,37720 88443,37719 88443,37718 88444,37717 88444,37715 88444,37714 88444,37713 88444,37493 88444,37492 88444,37491 88444,37490 88443,37488 88443,37487 88443,37486 88442,37485 88442,37484 88442,37483 88441,37481 88440,37480 88440,37479 88439,37478 88438,37477 88437,37476 88437,37475 88436,37475 88435,37474 88434,37473 88433,37472 88432,37472 88431,37471 88430,37471 88428,37470 88427,37470 88426,37469 88425,37469 88424,37469 88423,37468 88421,37468 88420,37468 88419,37468 88119,37468 88118,37468 88116,37468 88115,37468 88114,37469 88113,37469 88112,37469 88110,37470 88109,37470 88108,37471 88107,37471 88106,37472 88105,37472 88104,37473 88103,37474 88102,37475 88101,37475 88100,37476 88100,37477 88099,37478 88098,37479 88097,37480 88097,37481 88096,37483 88096,37484 88095,37485 88095,37486 88095,37487 88094,37488 88094,37490 88094,37491 88094,37492 88094,37493 88094,37713 88094,37714 88094,37715 88094,37717 88094,37718 88095,37719 88095,37720 88095,37721 88096,37723 88096,37724 88097,37725 88097,37726 88098,37727 88099,37728 88100,37729 88100,37730 88101,37731 88102,37731 88103,37732 88104,37733 88105,37734 88106,37734 88107,37735 88108,37736 88109,37736 88110,37736 88112,37737 88113,37737 88114,37737 88115,37738 88116,37738 88118,37738 88119,37738 Z"/>
   </g>
  </g>
  <g class="com.sun.star.drawing.PolyPolygonShape">
   <g id="id11">
    <rect class="BoundingBox" stroke="none" fill="none" x="88110" y="37484" width="319" height="239"/>
    <path fill="rgb(0,255,0)" stroke="none" d="M 88119,37722 L 88419,37722 88420,37722 88421,37722 88422,37722 88423,37721 88424,37721 88425,37720 88426,37720 88426,37719 88427,37718 88427,37717 88427,37716 88428,37716 88428,37715 88428,37714 88428,37713 88428,37493 88428,37492 88428,37491 88428,37490 88427,37490 88427,37489 88427,37488 88426,37487 88425,37486 88424,37485 88423,37485 88422,37485 88422,37484 88421,37484 88420,37484 88419,37484 88119,37484 88118,37484 88117,37484 88116,37484 88115,37485 88114,37485 88113,37486 88112,37487 88111,37488 88111,37489 88110,37490 88110,37491 88110,37492 88110,37493 88110,37713 88110,37714 88110,37715 88110,37716 88111,37717 88111,37718 88112,37719 88112,37720 88113,37720 88114,37721 88115,37722 88116,37722 88117,37722 88118,37722 88119,37722 Z"/>
   </g>
  </g>
  <g class="com.sun.star.drawing.PolyPolygonShape">
   <g id="id12">
    <rect class="BoundingBox" stroke="none" fill="none" x="88109" y="37483" width="321" height="241"/>
    <path fill="none" stroke="rgb(0,255,0)" d="M 88119,37722 L 88419,37722 88420,37722 88421,37722 88422,37722 88423,37721 88424,37721 88425,37720 88426,37720 88426,37719 88427,37718 88427,37717 88427,37716 88428,37716 88428,37715 88428,37714 88428,37713 88428,37493 88428,37492 88428,37491 88428,37490 88427,37490 88427,37489 88427,37488 88426,37487 88425,37486 88424,37485 88423,37485 88422,37485 88422,37484 88421,37484 88420,37484 88419,37484 88119,37484 88118,37484 88117,37484 88116,37484 88115,37485 88114,37485 88113,37486 88112,37487 88111,37488 88111,37489 88110,37490 88110,37491 88110,37492 88110,37493 88110,37713 88110,37714 88110,37715 88110,37716 88111,37717 88111,37718 88112,37719 88112,37720 88113,37720 88114,37721 88115,37722 88116,37722 88117,37722 88118,37722 88119,37722 Z"/>
   </g>
  </g>
 </g>
</svg>