<?xml version="1.0" encoding="UTF-8"?>
<!DOCTYPE svg PUBLIC "-//W3C//DTD SVG 1.1//EN" "http://www.w3.org/Graphics/SVG/1.1/DTD/svg11.dtd">
<svg version="1.2" width="25.03mm" height="25.03mm" viewBox="90249 36499 2503 2503" preserveAspectRatio="xMidYMid" fill-rule="evenodd" stroke-width="28.222" stroke-linejoin="round" xmlns="http://www.w3.org/2000/svg" xmlns:ooo="http://xml.openoffice.org/svg/export" xmlns:xlink="http://www.w3.org/1999/xlink" xmlns:presentation="http://sun.com/xmlns/staroffice/presentation" xmlns:smil="http://www.w3.org/2001/SMIL20/" xmlns:anim="urn:oasis:names:tc:opendocument:xmlns:animation:1.0" xml:space="preserve">
 <defs class="EmbeddedBulletChars">
  <g id="bullet-char-template-57356" transform="scale(0.00048828125,-0.00048828125)">
   <path d="M 580,1141 L 1163,571 580,0 -4,571 580,1141 Z"/>
  </g>
  <g id="bullet-char-template-57354" transform="scale(0.00048828125,-0.00048828125)">
   <path d="M 8,1128 L 1137,1128 1137,0 8,0 8,1128 Z"/>
  </g>
  <g id="bullet-char-template-10146" transform="scale(0.00048828125,-0.00048828125)">
   <path d="M 174,0 L 602,739 174,1481 1456,739 174,0 Z M 1358,739 L 309,1346 659,739 1358,739 Z"/>
  </g>
  <g id="bullet-char-template-10132" transform="scale(0.00048828125,-0.00048828125)">
   <path d="M 2015,739 L 1276,0 717,0 1260,543 174,543 174,936 1260,936 717,1481 1274,1481 2015,739 Z"/>
  </g>
  <g id="bullet-char-template-10007" transform="scale(0.00048828125,-0.00048828125)">
   <path d="M 0,-2 C -7,14 -16,27 -25,37 L 356,567 C 262,823 215,952 215,954 215,979 228,992 255,992 264,992 276,990 289,987 310,991 331,999 354,1012 L 381,999 492,748 772,1049 836,1024 860,1049 C 881,1039 901,1025 922,1006 886,937 835,863 770,784 769,783 710,716 594,584 L 774,223 C 774,196 753,168 711,139 L 727,119 C 717,90 699,76 672,76 641,76 570,178 457,381 L 164,-76 C 142,-110 111,-127 72,-127 30,-127 9,-110 8,-76 1,-67 -2,-52 -2,-32 -2,-23 -1,-13 0,-2 Z"/>
  </g>
  <g id="bullet-char-template-10004" transform="scale(0.00048828125,-0.00048828125)">
   <path d="M 285,-33 C 182,-33 111,30 74,156 52,228 41,333 41,471 41,549 55,616 82,672 116,743 169,778 240,778 293,778 328,747 346,684 L 369,508 C 377,444 397,411 428,410 L 1163,1116 C 1174,1127 1196,1133 1229,1133 1271,1133 1292,1118 1292,1087 L 1292,965 C 1292,929 1282,901 1262,881 L 442,47 C 390,-6 338,-33 285,-33 Z"/>
  </g>
  <g id="bullet-char-template-9679" transform="scale(0.00048828125,-0.00048828125)">
   <path d="M 813,0 C 632,0 489,54 383,161 276,268 223,411 223,592 223,773 276,916 383,1023 489,1130 632,1184 813,1184 992,1184 1136,1130 1245,1023 1353,916 1407,772 1407,592 1407,412 1353,268 1245,161 1136,54 992,0 813,0 Z"/>
  </g>
  <g id="bullet-char-template-8226" transform="scale(0.00048828125,-0.00048828125)">
   <path d="M 346,457 C 273,457 209,483 155,535 101,586 74,649 74,723 74,796 101,859 155,911 209,963 273,989 346,989 419,989 480,963 531,910 582,859 608,796 608,723 608,648 583,586 532,535 482,483 420,457 346,457 Z"/>
  </g>
  <g id="bullet-char-template-8211" transform="scale(0.00048828125,-0.00048828125)">
   <path d="M -4,459 L 1135,459 1135,606 -4,606 -4,459 Z"/>
  </g>
  <g id="bullet-char-template-61548" transform="scale(0.00048828125,-0.00048828125)">
   <path d="M 173,740 C 173,903 231,1043 346,1159 462,1274 601,1332 765,1332 928,1332 1067,1274 1183,1159 1299,1043 1357,903 1357,740 1357,577 1299,437 1183,322 1067,206 928,148 765,148 601,148 462,206 346,322 231,437 173,577 173,740 Z"/>
  </g>
 </defs>
 <g class="Page">
  <g class="com.sun.star.drawing.PolyPolygonShape">
   <g id="id3">
    <rect class="BoundingBox" stroke="none" fill="none" x="90249" y="36499" width="2503" height="2503"/>
    <path fill="rgb(0,0,255)" stroke="none" d="M 90331,39000 L 92669,39000 92671,39000 92673,39000 92675,39000 92677,39000 92679,39000 92681,38999 92683,38999 92685,38999 92687,38998 92689,38998 92691,38997 92693,38997 92695,38996 92696,38996 92698,38995 92700,38994 92702,38993 92704,38993 92706,38992 92707,38991 92709,38990 92711,38989 92713,38988 92714,38987 92716,38986 92717,38984 92719,38983 92721,38982 92722,38981 92724,38979 92725,38978 92726,38977 92728,38975 92729,38974 92731,38972 92732,38971 92733,38969 92734,38968 92735,38966 92737,38964 92738,38963 92739,38961 92740,38959 92741,38957 92742,38956 92743,38954 92743,38952 92744,38950 92745,38948 92746,38946 92746,38945 92747,38943 92747,38941 92748,38939 92748,38937 92749,38935 92749,38933 92749,38931 92750,38929 92750,38927 92750,38925 92750,38923 92750,38921 92750,38919 92750,36581 92750,36579 92750,36577 92750,36575 92750,36573 92750,36571 92749,36569 92749,36567 92749,36565 92748,36563 92748,36561 92747,36559 92747,36557 92746,36555 92746,36553 92745,36552 92744,36550 92743,36548 92743,36546 92742,36544 92741,36542 92740,36541 92739,36539 92738,36537 92737,36536 92735,36534 92734,36532 92733,36531 92732,36529 92731,36528 92729,36526 92728,36525 92726,36523 92725,36522 92724,36521 92722,36519 92721,36518 92719,36517 92717,36516 92716,36514 92714,36513 92713,36512 92711,36511 92709,36510 92707,36509 92706,36508 92704,36507 92702,36507 92700,36506 92698,36505 92696,36504 92695,36504 92693,36503 92691,36502 92689,36502 92687,36501 92685,36501 92683,36501 92681,36500 92679,36500 92677,36500 92675,36500 92673,36500 92671,36500 92669,36500 90331,36500 90329,36500 90327,36500 90325,36500 90323,36500 90321,36500 90319,36500 90317,36501 90315,36501 90313,36501 90311,36502 90309,36502 90307,36503 90305,36504 90303,36504 90302,36505 90300,36506 90298,36507 90296,36507 90294,36508 90292,36509 90291,36510 90289,36511 90287,36512 90286,36513 90284,36514 90282,36516 90281,36517 90279,36518 90278,36519 90276,36521 90275,36522 90273,36523 90272,36525 90271,36526 90269,36528 90268,36529 90267,36531 90266,36532 90264,36534 90263,36536 90262,36537 90261,36539 90260,36541 90259,36542 90258,36544 90257,36546 90257,36548 90256,36550 90255,36552 90254,36553 90254,36555 90253,36557 90252,36559 90252,36561 90252,36563 90251,36565 90251,36567 90250,36569 90250,36571 90250,36573 90250,36575 90250,36577 90250,36579 90250,36581 90250,38919 90250,38921 90250,38923 90250,38925 90250,38927 90250,38929 90250,38931 90251,38933 90251,38935 90252,38937 90252,38939 90252,38941 90253,38943 90254,38945 90254,38946 90255,38948 90256,38950 90257,38952 90257,38954 90258,38956 90259,38957 90260,38959 90261,38961 90262,38963 90263,38964 90264,38966 90266,38968 90267,38969 90268,38971 90269,38972 90271,38974 90272,38975 90273,38977 90275,38978 90276,38979 90278,38981 90279,38982 90281,38983 90282,38984 90284,38986 90286,38987 90287,38988 90289,38989 90291,38990 90292,38991 90294,38992 90296,38993 90298,38993 90300,38994 90302,38995 90303,38996 90305,38996 90307,38997 90309,38997 90311,38998 90313,38998 90315,38999 90317,38999 90319,38999 90321,39000 90323,39000 90325,39000 90327,39000 90329,39000 90331,39000 Z"/>
    <path fill="none" stroke="rgb(0,0,255)" d="M 90331,39000 L 92669,39000 92671,39000 92673,39000 92675,39000 92677,39000 92679,39000 92681,38999 92683,38999 92685,38999 92687,38998 92689,38998 92691,38997 92693,38997 92695,38996 92696,38996 92698,38995 92700,38994 92702,38993 92704,38993 92706,38992 92707,38991 92709,38990 92711,38989 92713,38988 92714,38987 92716,38986 92717,38984 92719,38983 92721,38982 92722,38981 92724,38979 92725,38978 92726,38977 92728,38975 92729,38974 92731,38972 92732,38971 92733,38969 92734,38968 92735,38966 92737,38964 92738,38963 92739,38961 92740,38959 92741,38957 92742,38956 92743,38954 92743,38952 92744,38950 92745,38948 92746,38946 92746,38945 92747,38943 92747,38941 92748,38939 92748,38937 92749,38935 92749,38933 92749,38931 92750,38929 92750,38927 92750,38925 92750,38923 92750,38921 92750,38919 92750,36581 92750,36579 92750,36577 92750,36575 92750,36573 92750,36571 92749,36569 92749,36567 92749,36565 92748,36563 92748,36561 92747,36559 92747,36557 92746,36555 92746,36553 92745,36552 92744,36550 92743,36548 92743,36546 92742,36544 92741,36542 92740,36541 92739,36539 92738,36537 92737,36536 92735,36534 92734,36532 92733,36531 92732,36529 92731,36528 92729,36526 92728,36525 92726,36523 92725,36522 92724,36521 92722,36519 92721,36518 92719,36517 92717,36516 92716,36514 92714,36513 92713,36512 92711,36511 92709,36510 92707,36509 92706,36508 92704,36507 92702,36507 92700,36506 92698,36505 92696,36504 92695,36504 92693,36503 92691,36502 92689,36502 92687,36501 92685,36501 92683,36501 92681,36500 92679,36500 92677,36500 92675,36500 92673,36500 92671,36500 92669,36500 90331,36500 90329,36500 90327,36500 90325,36500 90323,36500 90321,36500 90319,36500 90317,36501 90315,36501 90313,36501 90311,36502 90309,36502 90307,36503 90305,36504 90303,36504 90302,36505 90300,36506 90298,36507 90296,36507 90294,36508 90292,36509 90291,36510 90289,36511 90287,36512 90286,36513 90284,36514 90282,36516 90281,36517 90279,36518 90278,36519 90276,36521 90275,36522 90273,36523 90272,36525 90271,36526 90269,36528 90268,36529 90267,36531 90266,36532 90264,36534 90263,36536 90262,36537 90261,36539 90260,36541 90259,36542 90258,36544 90257,36546 90257,36548 90256,36550 90255,36552 90254,36553 90254,36555 90253,36557 90252,36559 90252,36561 90252,36563 90251,36565 90251,36567 90250,36569 90250,36571 90250,36573 90250,36575 90250,36577 90250,36579 90250,36581 90250,38919 90250,38921 90250,38923 90250,38925 90250,38927 90250,38929 90250,38931 90251,38933 90251,38935 90252,38937 90252,38939 90252,38941 90253,38943 90254,38945 90254,38946 90255,38948 90256,38950 90257,38952 90257,38954 90258,38956 90259,38957 90260,38959 90261,38961 90262,38963 90263,38964 90264,38966 90266,38968 90267,38969 90268,38971 90269,38972 90271,38974 90272,38975 90273,38977 90275,38978 90276,38979 90278,38981 90279,38982 90281,38983 90282,38984 90284,38986 90286,38987 90287,38988 90289,38989 90291,38990 90292,38991 90294,38992 90296,38993 90298,38993 90300,38994 90302,38995 90303,38996 90305,38996 90307,38997 90309,38997 90311,38998 90313,38998 90315,38999 90317,38999 90319,38999 90321,39000 90323,39000 90325,39000 90327,39000 90329,39000 90331,39000 Z"/>
   </g>
  </g>
  <g class="com.sun.star.drawing.PolyPolygonShape">
   <g id="id4">
    <rect class="BoundingBox" stroke="none" fill="none" x="90267" y="36517" width="2466" height="2467"/>
    <path fill="rgb(255,255,255)" stroke="none" d="M 90331,38982 L 92669,38982 92671,38982 92672,38982 92674,38981 92675,38981 92677,38981 92678,38981 92680,38981 92681,38980 92683,38980 92684,38980 92686,38979 92687,38979 92689,38979 92690,38978 92691,38977 92693,38977 92694,38976 92696,38976 92697,38975 92698,38974 92700,38974 92701,38973 92702,38972 92704,38971 92705,38970 92706,38969 92708,38968 92709,38967 92710,38966 92711,38965 92712,38964 92713,38963 92714,38962 92715,38961 92716,38960 92717,38959 92718,38958 92719,38956 92720,38955 92721,38954 92722,38953 92723,38951 92723,38950 92724,38949 92725,38947 92726,38946 92726,38944 92727,38943 92727,38942 92728,38940 92728,38939 92729,38937 92729,38936 92730,38934 92730,38933 92730,38931 92731,38930 92731,38928 92731,38927 92731,38925 92731,38924 92731,38922 92731,38921 92731,38919 92731,36581 92731,36579 92731,36578 92731,36576 92731,36575 92731,36573 92731,36572 92731,36570 92730,36569 92730,36567 92730,36566 92729,36564 92729,36563 92728,36561 92728,36560 92727,36558 92727,36557 92726,36555 92726,36554 92725,36553 92724,36551 92723,36550 92723,36549 92722,36547 92721,36546 92720,36545 92719,36543 92718,36542 92717,36541 92716,36540 92715,36539 92714,36538 92713,36537 92712,36536 92711,36534 92710,36533 92709,36532 92708,36531 92706,36530 92705,36530 92704,36529 92702,36528 92701,36527 92700,36526 92698,36526 92697,36525 92696,36524 92694,36524 92693,36523 92691,36522 92690,36522 92689,36521 92687,36521 92686,36521 92684,36520 92683,36520 92681,36519 92680,36519 92678,36519 92677,36519 92675,36519 92674,36518 92672,36518 92671,36518 92669,36518 90331,36518 90329,36518 90328,36518 90326,36518 90325,36519 90323,36519 90322,36519 90320,36519 90319,36519 90317,36520 90316,36520 90314,36521 90313,36521 90311,36521 90310,36522 90308,36522 90307,36523 90305,36524 90304,36524 90303,36525 90301,36526 90300,36526 90299,36527 90297,36528 90296,36529 90295,36530 90293,36530 90292,36531 90291,36532 90290,36533 90289,36534 90288,36536 90287,36537 90286,36538 90284,36539 90283,36540 90283,36541 90281,36542 90281,36543 90280,36545 90279,36546 90278,36547 90277,36549 90276,36550 90276,36551 90275,36553 90274,36554 90274,36555 90273,36557 90272,36558 90272,36560 90271,36561 90271,36563 90271,36564 90270,36566 90270,36567 90270,36569 90269,36570 90269,36572 90269,36573 90269,36575 90268,36576 90268,36578 90268,36579 90268,36581 90268,38919 90268,38921 90268,38922 90268,38924 90269,38925 90269,38927 90269,38928 90269,38930 90270,38931 90270,38933 90270,38934 90271,38936 90271,38937 90271,38939 90272,38940 90272,38942 90273,38943 90274,38944 90274,38946 90275,38947 90276,38949 90276,38950 90277,38951 90278,38953 90279,38954 90280,38955 90281,38956 90281,38958 90283,38959 90283,38960 90284,38961 90286,38962 90287,38963 90288,38964 90289,38965 90290,38966 90291,38967 90292,38968 90293,38969 90295,38970 90296,38971 90297,38972 90299,38973 90300,38974 90301,38974 90303,38975 90304,38976 90305,38976 90307,38977 90308,38977 90310,38978 90311,38979 90313,38979 90314,38979 90316,38980 90317,38980 90319,38980 90320,38981 90322,38981 90323,38981 90325,38981 90326,38981 90328,38982 90329,38982 90331,38982 Z"/>
    <path fill="none" stroke="rgb(255,255,255)" d="M 90331,38982 L 92669,38982 92671,38982 92672,38982 92674,38981 92675,38981 92677,38981 92678,38981 92680,38981 92681,38980 92683,38980 92684,38980 92686,38979 92687,38979 92689,38979 92690,38978 92691,38977 92693,38977 92694,38976 92696,38976 92697,38975 92698,38974 92700,38974 92701,38973 92702,38972 92704,38971 92705,38970 92706,38969 92708,38968 92709,38967 92710,38966 92711,38965 92712,38964 92713,38963 92714,38962 92715,38961 92716,38960 92717,38959 92718,38958 92719,38956 92720,38955 92721,38954 92722,38953 92723,38951 92723,38950 92724,38949 92725,38947 92726,38946 92726,38944 92727,38943 92727,38942 92728,38940 92728,38939 92729,38937 92729,38936 92730,38934 92730,38933 92730,38931 92731,38930 92731,38928 92731,38927 92731,38925 92731,38924 92731,38922 92731,38921 92731,38919 92731,36581 92731,36579 92731,36578 92731,36576 92731,36575 92731,36573 92731,36572 92731,36570 92730,36569 92730,36567 92730,36566 92729,36564 92729,36563 92728,36561 92728,36560 92727,36558 92727,36557 92726,36555 92726,36554 92725,36553 92724,36551 92723,36550 92723,36549 92722,36547 92721,36546 92720,36545 92719,36543 92718,36542 92717,36541 92716,36540 92715,36539 92714,36538 92713,36537 92712,36536 92711,36534 92710,36533 92709,36532 92708,36531 92706,36530 92705,36530 92704,36529 92702,36528 92701,36527 92700,36526 92698,36526 92697,36525 92696,36524 92694,36524 92693,36523 92691,36522 92690,36522 92689,36521 92687,36521 92686,36521 92684,36520 92683,36520 92681,36519 92680,36519 92678,36519 92677,36519 92675,36519 92674,36518 92672,36518 92671,36518 92669,36518 90331,36518 90329,36518 90328,36518 90326,36518 90325,36519 90323,36519 90322,36519 90320,36519 90319,36519 90317,36520 90316,36520 90314,36521 90313,36521 90311,36521 90310,36522 90308,36522 90307,36523 90305,36524 90304,36524 90303,36525 90301,36526 90300,36526 90299,36527 90297,36528 90296,36529 90295,36530 90293,36530 90292,36531 90291,36532 90290,36533 90289,36534 90288,36536 90287,36537 90286,36538 90284,36539 90283,36540 90283,36541 90281,36542 90281,36543 90280,36545 90279,36546 90278,36547 90277,36549 90276,36550 90276,36551 90275,36553 90274,36554 90274,36555 90273,36557 90272,36558 90272,36560 90271,36561 90271,36563 90271,36564 90270,36566 90270,36567 90270,36569 90269,36570 90269,36572 90269,36573 90269,36575 90268,36576 90268,36578 90268,36579 90268,36581 90268,38919 90268,38921 90268,38922 90268,38924 90269,38925 90269,38927 90269,38928 90269,38930 90270,38931 90270,38933 90270,38934 90271,38936 90271,38937 90271,38939 90272,38940 90272,38942 90273,38943 90274,38944 90274,38946 90275,38947 90276,38949 90276,38950 90277,38951 90278,38953 90279,38954 90280,38955 90281,38956 90281,38958 90283,38959 90283,38960 90284,38961 90286,38962 90287,38963 90288,38964 90289,38965 90290,38966 90291,38967 90292,38968 90293,38969 90295,38970 90296,38971 90297,38972 90299,38973 90300,38974 90301,38974 90303,38975 90304,38976 90305,38976 90307,38977 90308,38977 90310,38978 90311,38979 90313,38979 90314,38979 90316,38980 90317,38980 90319,38980 90320,38981 90322,38981 90323,38981 90325,38981 90326,38981 90328,38982 90329,38982 90331,38982 Z"/>
   </g>
  </g>
  <g class="com.sun.star.drawing.PolyPolygonShape">
   <g id="id5">
    <rect class="BoundingBox" stroke="none" fill="none" x="90286" y="36536" width="2429" height="2429"/>
    <path fill="rgb(0,0,255)" stroke="none" d="M 90331,38963 L 92669,38963 92671,38963 92673,38963 92675,38962 92678,38962 92680,38962 92682,38961 92684,38960 92686,38960 92688,38959 92690,38958 92691,38957 92693,38955 92695,38954 92697,38953 92698,38952 92700,38950 92701,38948 92703,38947 92704,38945 92705,38943 92707,38942 92708,38940 92709,38938 92709,38936 92710,38934 92711,38932 92711,38930 92712,38928 92712,38926 92713,38923 92713,38921 92713,38919 92713,36581 92713,36579 92713,36576 92712,36574 92712,36572 92711,36570 92711,36568 92710,36566 92709,36564 92709,36562 92708,36560 92707,36558 92705,36556 92704,36555 92703,36553 92701,36551 92700,36550 92698,36548 92697,36547 92695,36546 92693,36544 92691,36543 92690,36542 92688,36541 92686,36540 92684,36539 92682,36539 92680,36538 92678,36538 92675,36537 92673,36537 92671,36537 92669,36537 90331,36537 90329,36537 90326,36537 90324,36537 90322,36538 90320,36538 90318,36539 90316,36539 90314,36540 90312,36541 90310,36542 90308,36543 90307,36544 90305,36546 90303,36547 90301,36548 90300,36550 90298,36551 90297,36553 90296,36555 90294,36556 90293,36558 90292,36560 90291,36562 90290,36564 90290,36566 90289,36568 90288,36570 90288,36572 90288,36574 90287,36576 90287,36579 90287,36581 90287,38919 90287,38921 90287,38923 90288,38926 90288,38928 90288,38930 90289,38932 90290,38934 90290,38936 90291,38938 90292,38940 90293,38942 90294,38943 90296,38945 90297,38947 90298,38948 90300,38950 90301,38952 90303,38953 90305,38954 90307,38955 90308,38957 90310,38958 90312,38959 90314,38960 90316,38960 90318,38961 90320,38962 90322,38962 90324,38962 90326,38963 90329,38963 90331,38963 Z"/>
    <path fill="none" stroke="rgb(0,0,255)" d="M 90331,38963 L 92669,38963 92671,38963 92673,38963 92675,38962 92678,38962 92680,38962 92682,38961 92684,38960 92686,38960 92688,38959 92690,38958 92691,38957 92693,38955 92695,38954 92697,38953 92698,38952 92700,38950 92701,38948 92703,38947 92704,38945 92705,38943 92707,38942 92708,38940 92709,38938 92709,38936 92710,38934 92711,38932 92711,38930 92712,38928 92712,38926 92713,38923 92713,38921 92713,38919 92713,36581 92713,36579 92713,36576 92712,36574 92712,36572 92711,36570 92711,36568 92710,36566 92709,36564 92709,36562 92708,36560 92707,36558 92705,36556 92704,36555 92703,36553 92701,36551 92700,36550 92698,36548 92697,36547 92695,36546 92693,36544 92691,36543 92690,36542 92688,36541 92686,36540 92684,36539 92682,36539 92680,36538 92678,36538 92675,36537 92673,36537 92671,36537 92669,36537 90331,36537 90329,36537 90326,36537 90324,36537 90322,36538 90320,36538 90318,36539 90316,36539 90314,36540 90312,36541 90310,36542 90308,36543 90307,36544 90305,36546 90303,36547 90301,36548 90300,36550 90298,36551 90297,36553 90296,36555 90294,36556 90293,36558 90292,36560 90291,36562 90290,36564 90290,36566 90289,36568 90288,36570 90288,36572 90288,36574 90287,36576 90287,36579 90287,36581 90287,38919 90287,38921 90287,38923 90288,38926 90288,38928 90288,38930 90289,38932 90290,38934 90290,38936 90291,38938 90292,38940 90293,38942 90294,38943 90296,38945 90297,38947 90298,38948 90300,38950 90301,38952 90303,38953 90305,38954 90307,38955 90308,38957 90310,38958 90312,38959 90314,38960 90316,38960 90318,38961 90320,38962 90322,38962 90324,38962 90326,38963 90329,38963 90331,38963 Z"/>
   </g>
  </g>
  <g class="com.sun.star.drawing.PolyPolygonShape">
   <g id="id6">
    <rect class="BoundingBox" stroke="none" fill="none" x="90799" y="38148" width="1803" height="403"/>
    <path fill="rgb(255,255,255)" stroke="none" d="M 90799,38299 L 90799,38399 92400,38399 92400,38550 92600,38349 92400,38149 92400,38299 90799,38299 Z"/>
   </g>
  </g>
  <g class="com.sun.star.drawing.PolyPolygonShape">
   <g id="id7">
    <rect class="BoundingBox" stroke="none" fill="none" x="90798" y="38148" width="1804" height="404"/>
    <path fill="none" stroke="rgb(255,255,255)" d="M 90799,38299 L 90799,38399 92400,38399 92400,38550 92600,38349 92400,38149 92400,38299 90799,38299 Z"/>
   </g>
  </g>
  <g class="com.sun.star.drawing.PolyPolygonShape">
   <g id="id8">
    <rect class="BoundingBox" stroke="none" fill="none" x="90699" y="38298" width="103" height="554"/>
    <path fill="rgb(255,255,255)" stroke="none" d="M 90700,38850 L 90800,38850 90800,38299 90700,38299 90700,38850 Z"/>
    <path fill="none" stroke="rgb(255,255,255)" d="M 90700,38850 L 90800,38850 90800,38299 90700,38299 90700,38850 Z"/>
   </g>
  </g>
  <g class="com.sun.star.drawing.PolyPolygonShape">
   <g id="id9">
    <rect class="BoundingBox" stroke="none" fill="none" x="90548" y="36986" width="404" height="1316"/>
    <path fill="rgb(255,255,255)" stroke="none" d="M 90700,38300 L 90800,38300 90801,37187 90950,37187 90749,36987 90549,37187 90700,37187 90700,38300 Z"/>
    <path fill="none" stroke="rgb(255,255,255)" d="M 90700,38300 L 90800,38300 90801,37187 90950,37187 90749,36987 90549,37187 90700,37187 90700,38300 Z"/>
   </g>
  </g>
  <g class="com.sun.star.drawing.PolyPolygonShape">
   <g id="id10">
    <rect class="BoundingBox" stroke="none" fill="none" x="91381" y="38180" width="438" height="341"/>
    <path fill="rgb(255,255,255)" stroke="none" d="M 91420,38519 L 91780,38519 91782,38519 91783,38519 91785,38519 91787,38518 91789,38518 91791,38518 91793,38517 91794,38516 91796,38515 91798,38515 91799,38514 91801,38513 91802,38512 91804,38511 91805,38509 91806,38508 91808,38507 91809,38505 91810,38504 91811,38503 91812,38501 91813,38499 91814,38498 91814,38496 91815,38494 91816,38492 91816,38491 91817,38489 91817,38487 91817,38485 91817,38483 91817,38482 91817,38218 91817,38216 91817,38215 91817,38213 91817,38211 91816,38209 91816,38207 91815,38206 91814,38204 91814,38202 91813,38200 91812,38199 91811,38197 91810,38196 91809,38194 91808,38193 91806,38192 91805,38190 91804,38189 91802,38188 91801,38187 91799,38186 91798,38185 91796,38184 91794,38184 91793,38183 91791,38182 91789,38182 91787,38181 91785,38181 91783,38181 91782,38181 91780,38181 91420,38181 91418,38181 91416,38181 91414,38181 91413,38181 91411,38182 91409,38182 91407,38183 91406,38184 91404,38184 91402,38185 91401,38186 91399,38187 91398,38188 91396,38189 91395,38190 91393,38192 91392,38193 91391,38194 91390,38196 91389,38197 91388,38199 91387,38200 91386,38202 91385,38204 91385,38206 91384,38207 91384,38209 91383,38211 91383,38213 91383,38215 91383,38216 91382,38218 91382,38482 91383,38483 91383,38485 91383,38487 91383,38489 91384,38491 91384,38492 91385,38494 91385,38496 91386,38498 91387,38499 91388,38501 91389,38503 91390,38504 91391,38505 91392,38507 91393,38508 91395,38509 91396,38511 91398,38512 91399,38513 91401,38514 91402,38515 91404,38515 91406,38516 91407,38517 91409,38518 91411,38518 91413,38518 91414,38519 91416,38519 91418,38519 91420,38519 Z"/>
    <path fill="none" stroke="rgb(255,255,255)" d="M 91420,38519 L 91780,38519 91782,38519 91783,38519 91785,38519 91787,38518 91789,38518 91791,38518 91793,38517 91794,38516 91796,38515 91798,38515 91799,38514 91801,38513 91802,38512 91804,38511 91805,38509 91806,38508 91808,38507 91809,38505 91810,38504 91811,38503 91812,38501 91813,38499 91814,38498 91814,38496 91815,38494 91816,38492 91816,38491 91817,38489 91817,38487 91817,38485 91817,38483 91817,38482 91817,38218 91817,38216 91817,38215 91817,38213 91817,38211 91816,38209 91816,38207 91815,38206 91814,38204 91814,38202 91813,38200 91812,38199 91811,38197 91810,38196 91809,38194 91808,38193 91806,38192 91805,38190 91804,38189 91802,38188 91801,38187 91799,38186 91798,38185 91796,38184 91794,38184 91793,38183 91791,38182 91789,38182 91787,38181 91785,38181 91783,38181 91782,38181 91780,38181 91420,38181 91418,38181 91416,38181 91414,38181 91413,38181 91411,38182 91409,38182 91407,38183 91406,38184 91404,38184 91402,38185 91401,38186 91399,38187 91398,38188 91396,38189 91395,38190 91393,38192 91392,38193 91391,38194 91390,38196 91389,38197 91388,38199 91387,38200 91386,38202 91385,38204 91385,38206 91384,38207 91384,38209 91383,38211 91383,38213 91383,38215 91383,38216 91382,38218 91382,38482 91383,38483 91383,38485 91383,38487 91383,38489 91384,38491 91384,38492 91385,38494 91385,38496 91386,38498 91387,38499 91388,38501 91389,38503 91390,38504 91391,38505 91392,38507 91393,38508 91395,38509 91396,38511 91398,38512 91399,38513 91401,38514 91402,38515 91404,38515 91406,38516 91407,38517 91409,38518 91411,38518 91413,38518 91414,38519 91416,38519 91418,38519 91420,38519 Z"/>
   </g>
  </g>
  <g class="com.sun.star.drawing.PolyPolygonShape">
   <g id="id11">
    <rect class="BoundingBox" stroke="none" fill="none" x="91400" y="38198" width="401" height="304"/>
    <path fill="rgb(0,0,255)" stroke="none" d="M 91420,38500 L 91780,38500 91781,38500 91782,38500 91783,38500 91784,38500 91785,38500 91786,38499 91787,38499 91788,38499 91789,38498 91790,38497 91791,38497 91792,38496 91793,38495 91794,38494 91795,38493 91795,38492 91796,38491 91797,38490 91797,38489 91798,38488 91798,38487 91798,38486 91798,38485 91798,38484 91798,38483 91799,38483 91799,38482 91799,38218 91799,38217 91798,38216 91798,38215 91798,38214 91798,38213 91798,38212 91797,38211 91797,38210 91796,38209 91795,38208 91795,38207 91794,38206 91793,38205 91792,38204 91791,38203 91790,38203 91789,38202 91788,38201 91787,38201 91786,38200 91785,38200 91784,38200 91783,38200 91782,38200 91781,38199 91780,38199 91420,38199 91419,38199 91418,38200 91417,38200 91416,38200 91415,38200 91414,38200 91413,38201 91412,38201 91411,38202 91410,38202 91410,38203 91409,38203 91408,38204 91407,38204 91407,38205 91406,38206 91405,38206 91405,38207 91404,38208 91404,38209 91403,38209 91403,38210 91403,38211 91402,38212 91402,38213 91402,38214 91402,38215 91401,38215 91401,38216 91401,38217 91401,38218 91401,38482 91401,38483 91401,38484 91402,38485 91402,38486 91402,38487 91402,38488 91403,38489 91403,38490 91403,38491 91404,38491 91404,38492 91405,38493 91405,38494 91406,38494 91407,38495 91407,38496 91408,38496 91409,38497 91410,38497 91410,38498 91411,38498 91412,38499 91413,38499 91414,38499 91414,38500 91415,38500 91416,38500 91417,38500 91418,38500 91419,38500 91420,38500 Z"/>
    <path fill="none" stroke="rgb(0,0,255)" d="M 91420,38500 L 91780,38500 91781,38500 91782,38500 91783,38500 91784,38500 91785,38500 91786,38499 91787,38499 91788,38499 91789,38498 91790,38497 91791,38497 91792,38496 91793,38495 91794,38494 91795,38493 91795,38492 91796,38491 91797,38490 91797,38489 91798,38488 91798,38487 91798,38486 91798,38485 91798,38484 91798,38483 91799,38483 91799,38482 91799,38218 91799,38217 91798,38216 91798,38215 91798,38214 91798,38213 91798,38212 91797,38211 91797,38210 91796,38209 91795,38208 91795,38207 91794,38206 91793,38205 91792,38204 91791,38203 91790,38203 91789,38202 91788,38201 91787,38201 91786,38200 91785,38200 91784,38200 91783,38200 91782,38200 91781,38199 91780,38199 91420,38199 91419,38199 91418,38200 91417,38200 91416,38200 91415,38200 91414,38200 91413,38201 91412,38201 91411,38202 91410,38202 91410,38203 91409,38203 91408,38204 91407,38204 91407,38205 91406,38206 91405,38206 91405,38207 91404,38208 91404,38209 91403,38209 91403,38210 91403,38211 91402,38212 91402,38213 91402,38214 91402,38215 91401,38215 91401,38216 91401,38217 91401,38218 91401,38482 91401,38483 91401,38484 91402,38485 91402,38486 91402,38487 91402,38488 91403,38489 91403,38490 91403,38491 91404,38491 91404,38492 91405,38493 91405,38494 91406,38494 91407,38495 91407,38496 91408,38496 91409,38497 91410,38497 91410,38498 91411,38498 91412,38499 91413,38499 91414,38499 91414,38500 91415,38500 91416,38500 91417,38500 91418,38500 91419,38500 91420,38500 Z"/>
   </g>
  </g>
  <g class="com.sun.star.drawing.PolyPolygonShape">
   <g id="id12">
    <rect class="BoundingBox" stroke="none" fill="none" x="90532" y="37573" width="437" height="342"/>
    <path fill="rgb(255,255,255)" stroke="none" d="M 90570,37913 L 90930,37913 90932,37913 90934,37913 90936,37912 90937,37912 90939,37912 90941,37911 90943,37911 90944,37910 90946,37909 90948,37908 90949,37908 90951,37907 90952,37906 90954,37904 90955,37903 90956,37902 90958,37901 90959,37899 90960,37898 90961,37896 90962,37895 90963,37893 90964,37891 90965,37890 90965,37888 90966,37886 90966,37885 90967,37883 90967,37881 90967,37879 90967,37877 90967,37875 90967,37613 90967,37611 90967,37609 90967,37608 90967,37606 90966,37604 90966,37602 90965,37600 90965,37599 90964,37597 90963,37595 90962,37594 90961,37592 90960,37591 90959,37589 90958,37588 90956,37586 90955,37585 90954,37584 90952,37583 90951,37582 90949,37581 90948,37580 90946,37579 90944,37578 90943,37578 90941,37577 90939,37577 90937,37575 90936,37575 90934,37575 90932,37575 90930,37574 90570,37574 90568,37575 90566,37575 90564,37575 90563,37575 90561,37577 90559,37577 90557,37578 90556,37578 90554,37579 90552,37580 90551,37581 90549,37582 90548,37583 90546,37584 90545,37585 90544,37586 90542,37588 90541,37589 90540,37591 90539,37592 90538,37594 90537,37595 90536,37597 90535,37599 90535,37600 90534,37602 90534,37604 90533,37606 90533,37608 90533,37609 90533,37611 90533,37613 90533,37875 90533,37877 90533,37879 90533,37881 90533,37883 90534,37885 90534,37886 90535,37888 90535,37890 90536,37891 90537,37893 90538,37895 90539,37896 90540,37898 90541,37899 90542,37901 90544,37902 90545,37903 90546,37904 90548,37906 90549,37907 90551,37908 90552,37908 90554,37909 90556,37910 90557,37911 90559,37911 90561,37912 90563,37912 90564,37912 90566,37913 90568,37913 90570,37913 Z"/>
    <path fill="none" stroke="rgb(255,255,255)" d="M 90570,37913 L 90930,37913 90932,37913 90934,37913 90936,37912 90937,37912 90939,37912 90941,37911 90943,37911 90944,37910 90946,37909 90948,37908 90949,37908 90951,37907 90952,37906 90954,37904 90955,37903 90956,37902 90958,37901 90959,37899 90960,37898 90961,37896 90962,37895 90963,37893 90964,37891 90965,37890 90965,37888 90966,37886 90966,37885 90967,37883 90967,37881 90967,37879 90967,37877 90967,37875 90967,37613 90967,37611 90967,37609 90967,37608 90967,37606 90966,37604 90966,37602 90965,37600 90965,37599 90964,37597 90963,37595 90962,37594 90961,37592 90960,37591 90959,37589 90958,37588 90956,37586 90955,37585 90954,37584 90952,37583 90951,37582 90949,37581 90948,37580 90946,37579 90944,37578 90943,37578 90941,37577 90939,37577 90937,37575 90936,37575 90934,37575 90932,37575 90930,37574 90570,37574 90568,37575 90566,37575 90564,37575 90563,37575 90561,37577 90559,37577 90557,37578 90556,37578 90554,37579 90552,37580 90551,37581 90549,37582 90548,37583 90546,37584 90545,37585 90544,37586 90542,37588 90541,37589 90540,37591 90539,37592 90538,37594 90537,37595 90536,37597 90535,37599 90535,37600 90534,37602 90534,37604 90533,37606 90533,37608 90533,37609 90533,37611 90533,37613 90533,37875 90533,37877 90533,37879 90533,37881 90533,37883 90534,37885 90534,37886 90535,37888 90535,37890 90536,37891 90537,37893 90538,37895 90539,37896 90540,37898 90541,37899 90542,37901 90544,37902 90545,37903 90546,37904 90548,37906 90549,37907 90551,37908 90552,37908 90554,37909 90556,37910 90557,37911 90559,37911 90561,37912 90563,37912 90564,37912 90566,37913 90568,37913 90570,37913 Z"/>
   </g>
  </g>
  <g class="com.sun.star.drawing.PolyPolygonShape">
   <g id="id13">
    <rect class="BoundingBox" stroke="none" fill="none" x="90550" y="37592" width="401" height="304"/>
    <path fill="rgb(0,0,255)" stroke="none" d="M 90570,37894 L 90930,37894 90931,37894 90932,37894 90933,37894 90934,37894 90935,37893 90936,37893 90937,37893 90938,37892 90939,37892 90940,37892 90940,37891 90941,37890 90942,37890 90943,37889 90944,37888 90944,37887 90945,37887 90946,37886 90946,37885 90946,37884 90947,37883 90948,37882 90948,37881 90948,37880 90948,37879 90948,37878 90949,37877 90949,37876 90949,37875 90949,37612 90949,37611 90949,37610 90948,37609 90948,37608 90948,37607 90948,37606 90947,37605 90947,37604 90946,37603 90946,37602 90945,37601 90944,37600 90944,37599 90943,37599 90943,37598 90942,37597 90941,37597 90940,37596 90939,37596 90938,37595 90937,37595 90936,37594 90935,37594 90934,37594 90933,37593 90932,37593 90931,37593 90930,37593 90570,37593 90569,37593 90568,37593 90567,37593 90566,37594 90565,37594 90564,37594 90563,37595 90562,37595 90561,37596 90560,37596 90559,37597 90558,37597 90557,37598 90557,37599 90556,37599 90556,37600 90555,37601 90554,37602 90553,37603 90553,37604 90553,37605 90552,37606 90552,37607 90552,37608 90552,37609 90551,37610 90551,37611 90551,37612 90551,37875 90551,37876 90551,37877 90552,37878 90552,37879 90552,37880 90552,37881 90552,37882 90553,37883 90553,37884 90554,37885 90554,37886 90555,37887 90556,37887 90556,37888 90557,37889 90558,37890 90559,37890 90560,37891 90560,37892 90561,37892 90562,37892 90563,37893 90564,37893 90565,37893 90566,37894 90567,37894 90568,37894 90569,37894 90570,37894 Z"/>
    <path fill="none" stroke="rgb(0,0,255)" d="M 90570,37894 L 90930,37894 90931,37894 90932,37894 90933,37894 90934,37894 90935,37893 90936,37893 90937,37893 90938,37892 90939,37892 90940,37892 90940,37891 90941,37890 90942,37890 90943,37889 90944,37888 90944,37887 90945,37887 90946,37886 90946,37885 90946,37884 90947,37883 90948,37882 90948,37881 90948,37880 90948,37879 90948,37878 90949,37877 90949,37876 90949,37875 90949,37612 90949,37611 90949,37610 90948,37609 90948,37608 90948,37607 90948,37606 90947,37605 90947,37604 90946,37603 90946,37602 90945,37601 90944,37600 90944,37599 90943,37599 90943,37598 90942,37597 90941,37597 90940,37596 90939,37596 90938,37595 90937,37595 90936,37594 90935,37594 90934,37594 90933,37593 90932,37593 90931,37593 90930,37593 90570,37593 90569,37593 90568,37593 90567,37593 90566,37594 90565,37594 90564,37594 90563,37595 90562,37595 90561,37596 90560,37596 90559,37597 90558,37597 90557,37598 90557,37599 90556,37599 90556,37600 90555,37601 90554,37602 90553,37603 90553,37604 90553,37605 90552,37606 90552,37607 90552,37608 90552,37609 90551,37610 90551,37611 90551,37612 90551,37875 90551,37876 90551,37877 90552,37878 90552,37879 90552,37880 90552,37881 90552,37882 90553,37883 90553,37884 90554,37885 90554,37886 90555,37887 90556,37887 90556,37888 90557,37889 90558,37890 90559,37890 90560,37891 90560,37892 90561,37892 90562,37892 90563,37893 90564,37893 90565,37893 90566,37894 90567,37894 90568,37894 90569,37894 90570,37894 Z"/>
   </g>
  </g>
 </g>
</svg>