<?xml version="1.0" encoding="UTF-8"?>
<!DOCTYPE svg PUBLIC "-//W3C//DTD SVG 1.1//EN" "http://www.w3.org/Graphics/SVG/1.1/DTD/svg11.dtd">
<svg version="1.2" width="25.03mm" height="25.03mm" viewBox="93249 36499 2503 2503" preserveAspectRatio="xMidYMid" fill-rule="evenodd" stroke-width="28.222" stroke-linejoin="round" xmlns="http://www.w3.org/2000/svg" xmlns:ooo="http://xml.openoffice.org/svg/export" xmlns:xlink="http://www.w3.org/1999/xlink" xmlns:presentation="http://sun.com/xmlns/staroffice/presentation" xmlns:smil="http://www.w3.org/2001/SMIL20/" xmlns:anim="urn:oasis:names:tc:opendocument:xmlns:animation:1.0" xml:space="preserve">
 <defs class="EmbeddedBulletChars">
  <g id="bullet-char-template-57356" transform="scale(0.00048828125,-0.00048828125)">
   <path d="M 580,1141 L 1163,571 580,0 -4,571 580,1141 Z"/>
  </g>
  <g id="bullet-char-template-57354" transform="scale(0.00048828125,-0.00048828125)">
   <path d="M 8,1128 L 1137,1128 1137,0 8,0 8,1128 Z"/>
  </g>
  <g id="bullet-char-template-10146" transform="scale(0.00048828125,-0.00048828125)">
   <path d="M 174,0 L 602,739 174,1481 1456,739 174,0 Z M 1358,739 L 309,1346 659,739 1358,739 Z"/>
  </g>
  <g id="bullet-char-template-10132" transform="scale(0.00048828125,-0.00048828125)">
   <path d="M 2015,739 L 1276,0 717,0 1260,543 174,543 174,936 1260,936 717,1481 1274,1481 2015,739 Z"/>
  </g>
  <g id="bullet-char-template-10007" transform="scale(0.00048828125,-0.00048828125)">
   <path d="M 0,-2 C -7,14 -16,27 -25,37 L 356,567 C 262,823 215,952 215,954 215,979 228,992 255,992 264,992 276,990 289,987 310,991 331,999 354,1012 L 381,999 492,748 772,1049 836,1024 860,1049 C 881,1039 901,1025 922,1006 886,937 835,863 770,784 769,783 710,716 594,584 L 774,223 C 774,196 753,168 711,139 L 727,119 C 717,90 699,76 672,76 641,76 570,178 457,381 L 164,-76 C 142,-110 111,-127 72,-127 30,-127 9,-110 8,-76 1,-67 -2,-52 -2,-32 -2,-23 -1,-13 0,-2 Z"/>
  </g>
  <g id="bullet-char-template-10004" transform="scale(0.00048828125,-0.00048828125)">
   <path d="M 285,-33 C 182,-33 111,30 74,156 52,228 41,333 41,471 41,549 55,616 82,672 116,743 169,778 240,778 293,778 328,747 346,684 L 369,508 C 377,444 397,411 428,410 L 1163,1116 C 1174,1127 1196,1133 1229,1133 1271,1133 1292,1118 1292,1087 L 1292,965 C 1292,929 1282,901 1262,881 L 442,47 C 390,-6 338,-33 285,-33 Z"/>
  </g>
  <g id="bullet-char-template-9679" transform="scale(0.00048828125,-0.00048828125)">
   <path d="M 813,0 C 632,0 489,54 383,161 276,268 223,411 223,592 223,773 276,916 383,1023 489,1130 632,1184 813,1184 992,1184 1136,1130 1245,1023 1353,916 1407,772 1407,592 1407,412 1353,268 1245,161 1136,54 992,0 813,0 Z"/>
  </g>
  <g id="bullet-char-template-8226" transform="scale(0.00048828125,-0.00048828125)">
   <path d="M 346,457 C 273,457 209,483 155,535 101,586 74,649 74,723 74,796 101,859 155,911 209,963 273,989 346,989 419,989 480,963 531,910 582,859 608,796 608,723 608,648 583,586 532,535 482,483 420,457 346,457 Z"/>
  </g>
  <g id="bullet-char-template-8211" transform="scale(0.00048828125,-0.00048828125)">
   <path d="M -4,459 L 1135,459 1135,606 -4,606 -4,459 Z"/>
  </g>
  <g id="bullet-char-template-61548" transform="scale(0.00048828125,-0.00048828125)">
   <path d="M 173,740 C 173,903 231,1043 346,1159 462,1274 601,1332 765,1332 928,1332 1067,1274 1183,1159 1299,1043 1357,903 1357,740 1357,577 1299,437 1183,322 1067,206 928,148 765,148 601,148 462,206 346,322 231,437 173,577 173,740 Z"/>
  </g>
 </defs>
 <g class="Page">
  <g class="com.sun.star.drawing.PolyPolygonShape">
   <g id="id3">
    <rect class="BoundingBox" stroke="none" fill="none" x="93249" y="36499" width="2503" height="2503"/>
    <path fill="rgb(0,0,255)" stroke="none" d="M 93331,39000 L 95669,39000 95671,39000 95673,39000 95675,39000 95677,39000 95679,39000 95681,39000 95683,38999 95685,38999 95687,38998 95689,38998 95691,38998 95693,38997 95694,38996 95696,38996 95698,38995 95700,38994 95702,38993 95704,38993 95705,38992 95707,38991 95709,38990 95711,38989 95713,38988 95714,38987 95716,38986 95717,38984 95719,38983 95720,38982 95722,38981 95723,38979 95725,38978 95726,38977 95728,38975 95729,38974 95731,38972 95732,38971 95733,38969 95734,38968 95735,38966 95737,38964 95738,38963 95739,38961 95740,38959 95741,38958 95742,38956 95742,38954 95743,38952 95744,38950 95745,38948 95745,38947 95746,38945 95747,38943 95747,38941 95748,38939 95748,38937 95749,38935 95749,38933 95749,38931 95750,38929 95750,38927 95750,38925 95750,38923 95750,38921 95750,38919 95750,36581 95750,36579 95750,36577 95750,36575 95750,36573 95750,36571 95749,36569 95749,36567 95749,36565 95748,36563 95748,36561 95747,36559 95747,36557 95746,36555 95745,36553 95745,36552 95744,36550 95743,36548 95742,36546 95742,36544 95741,36542 95740,36541 95739,36539 95738,36537 95737,36536 95735,36534 95734,36532 95733,36531 95732,36529 95731,36528 95729,36526 95728,36525 95726,36523 95725,36522 95723,36521 95722,36519 95720,36518 95719,36517 95717,36516 95716,36514 95714,36513 95713,36512 95711,36511 95709,36510 95707,36509 95705,36508 95704,36507 95702,36507 95700,36506 95698,36505 95696,36504 95694,36504 95693,36503 95691,36503 95689,36502 95687,36502 95685,36501 95683,36501 95681,36500 95679,36500 95677,36500 95675,36500 95673,36500 95671,36500 95669,36500 93331,36500 93329,36500 93327,36500 93325,36500 93323,36500 93321,36500 93319,36500 93317,36501 93315,36501 93313,36502 93311,36502 93309,36503 93307,36503 93305,36504 93303,36504 93302,36505 93300,36506 93298,36507 93296,36507 93294,36508 93292,36509 93291,36510 93289,36511 93287,36512 93286,36513 93284,36514 93282,36516 93281,36517 93279,36518 93278,36519 93276,36521 93275,36522 93273,36523 93272,36525 93271,36526 93269,36528 93268,36529 93267,36531 93265,36532 93264,36534 93263,36536 93262,36537 93261,36539 93260,36541 93259,36542 93258,36544 93257,36546 93257,36548 93256,36550 93255,36552 93254,36553 93254,36555 93253,36557 93252,36559 93252,36561 93251,36563 93251,36565 93251,36567 93250,36569 93250,36571 93250,36573 93250,36575 93250,36577 93250,36579 93250,36581 93250,38919 93250,38921 93250,38923 93250,38925 93250,38927 93250,38929 93250,38931 93251,38933 93251,38935 93251,38937 93252,38939 93252,38941 93253,38943 93254,38945 93254,38947 93255,38948 93256,38950 93257,38952 93257,38954 93258,38956 93259,38958 93260,38959 93261,38961 93262,38963 93263,38964 93264,38966 93265,38968 93267,38969 93268,38971 93269,38972 93271,38974 93272,38975 93273,38977 93275,38978 93276,38979 93278,38981 93279,38982 93281,38983 93282,38984 93284,38986 93286,38987 93287,38988 93289,38989 93291,38990 93292,38991 93294,38992 93296,38993 93298,38993 93300,38994 93302,38995 93303,38996 93305,38996 93307,38997 93309,38998 93311,38998 93313,38998 93315,38999 93317,38999 93319,39000 93321,39000 93323,39000 93325,39000 93327,39000 93329,39000 93331,39000 Z"/>
    <path fill="none" stroke="rgb(0,0,255)" d="M 93331,39000 L 95669,39000 95671,39000 95673,39000 95675,39000 95677,39000 95679,39000 95681,39000 95683,38999 95685,38999 95687,38998 95689,38998 95691,38998 95693,38997 95694,38996 95696,38996 95698,38995 95700,38994 95702,38993 95704,38993 95705,38992 95707,38991 95709,38990 95711,38989 95713,38988 95714,38987 95716,38986 95717,38984 95719,38983 95720,38982 95722,38981 95723,38979 95725,38978 95726,38977 95728,38975 95729,38974 95731,38972 95732,38971 95733,38969 95734,38968 95735,38966 95737,38964 95738,38963 95739,38961 95740,38959 95741,38958 95742,38956 95742,38954 95743,38952 95744,38950 95745,38948 95745,38947 95746,38945 95747,38943 95747,38941 95748,38939 95748,38937 95749,38935 95749,38933 95749,38931 95750,38929 95750,38927 95750,38925 95750,38923 95750,38921 95750,38919 95750,36581 95750,36579 95750,36577 95750,36575 95750,36573 95750,36571 95749,36569 95749,36567 95749,36565 95748,36563 95748,36561 95747,36559 95747,36557 95746,36555 95745,36553 95745,36552 95744,36550 95743,36548 95742,36546 95742,36544 95741,36542 95740,36541 95739,36539 95738,36537 95737,36536 95735,36534 95734,36532 95733,36531 95732,36529 95731,36528 95729,36526 95728,36525 95726,36523 95725,36522 95723,36521 95722,36519 95720,36518 95719,36517 95717,36516 95716,36514 95714,36513 95713,36512 95711,36511 95709,36510 95707,36509 95705,36508 95704,36507 95702,36507 95700,36506 95698,36505 95696,36504 95694,36504 95693,36503 95691,36503 95689,36502 95687,36502 95685,36501 95683,36501 95681,36500 95679,36500 95677,36500 95675,36500 95673,36500 95671,36500 95669,36500 93331,36500 93329,36500 93327,36500 93325,36500 93323,36500 93321,36500 93319,36500 93317,36501 93315,36501 93313,36502 93311,36502 93309,36503 93307,36503 93305,36504 93303,36504 93302,36505 93300,36506 93298,36507 93296,36507 93294,36508 93292,36509 93291,36510 93289,36511 93287,36512 93286,36513 93284,36514 93282,36516 93281,36517 93279,36518 93278,36519 93276,36521 93275,36522 93273,36523 93272,36525 93271,36526 93269,36528 93268,36529 93267,36531 93265,36532 93264,36534 93263,36536 93262,36537 93261,36539 93260,36541 93259,36542 93258,36544 93257,36546 93257,36548 93256,36550 93255,36552 93254,36553 93254,36555 93253,36557 93252,36559 93252,36561 93251,36563 93251,36565 93251,36567 93250,36569 93250,36571 93250,36573 93250,36575 93250,36577 93250,36579 93250,36581 93250,38919 93250,38921 93250,38923 93250,38925 93250,38927 93250,38929 93250,38931 93251,38933 93251,38935 93251,38937 93252,38939 93252,38941 93253,38943 93254,38945 93254,38947 93255,38948 93256,38950 93257,38952 93257,38954 93258,38956 93259,38958 93260,38959 93261,38961 93262,38963 93263,38964 93264,38966 93265,38968 93267,38969 93268,38971 93269,38972 93271,38974 93272,38975 93273,38977 93275,38978 93276,38979 93278,38981 93279,38982 93281,38983 93282,38984 93284,38986 93286,38987 93287,38988 93289,38989 93291,38990 93292,38991 93294,38992 93296,38993 93298,38993 93300,38994 93302,38995 93303,38996 93305,38996 93307,38997 93309,38998 93311,38998 93313,38998 93315,38999 93317,38999 93319,39000 93321,39000 93323,39000 93325,39000 93327,39000 93329,39000 93331,39000 Z"/>
   </g>
  </g>
  <g class="com.sun.star.drawing.PolyPolygonShape">
   <g id="id4">
    <rect class="BoundingBox" stroke="none" fill="none" x="93267" y="36517" width="2466" height="2467"/>
    <path fill="rgb(255,255,255)" stroke="none" d="M 93331,38982 L 95669,38982 95670,38982 95672,38982 95674,38982 95675,38981 95677,38981 95678,38981 95680,38981 95681,38980 95683,38980 95684,38980 95686,38979 95687,38979 95689,38979 95690,38978 95691,38978 95693,38977 95694,38976 95696,38976 95697,38975 95698,38974 95700,38974 95701,38973 95702,38972 95704,38971 95705,38970 95706,38969 95708,38969 95709,38968 95710,38967 95711,38965 95712,38964 95713,38963 95714,38962 95715,38961 95716,38960 95717,38959 95718,38958 95719,38956 95720,38955 95721,38954 95722,38953 95723,38951 95723,38950 95724,38949 95725,38947 95725,38946 95726,38945 95727,38943 95727,38942 95728,38940 95728,38939 95729,38937 95729,38936 95730,38934 95730,38933 95730,38931 95731,38930 95731,38928 95731,38927 95731,38925 95731,38924 95731,38922 95731,38921 95731,38919 95731,36581 95731,36579 95731,36578 95731,36576 95731,36575 95731,36573 95731,36572 95731,36570 95730,36569 95730,36567 95730,36566 95729,36564 95729,36563 95728,36561 95728,36560 95727,36558 95727,36557 95726,36555 95725,36554 95725,36553 95724,36551 95723,36550 95723,36549 95722,36547 95721,36546 95720,36545 95719,36544 95718,36542 95717,36541 95716,36540 95715,36539 95714,36538 95713,36537 95712,36536 95711,36535 95710,36533 95709,36533 95708,36531 95706,36531 95705,36530 95704,36529 95702,36528 95701,36527 95700,36526 95698,36526 95697,36525 95696,36524 95694,36524 95693,36523 95691,36522 95690,36522 95689,36521 95687,36521 95686,36521 95684,36520 95683,36520 95681,36520 95680,36519 95678,36519 95677,36519 95675,36519 95674,36519 95672,36518 95670,36518 95669,36518 93331,36518 93329,36518 93328,36518 93326,36519 93325,36519 93323,36519 93322,36519 93320,36519 93318,36520 93317,36520 93316,36520 93314,36521 93313,36521 93311,36521 93310,36522 93308,36522 93307,36523 93305,36524 93304,36524 93303,36525 93301,36526 93300,36526 93299,36527 93297,36528 93296,36529 93295,36530 93293,36531 93292,36531 93291,36533 93290,36533 93289,36535 93288,36536 93287,36537 93285,36538 93284,36539 93283,36540 93282,36541 93281,36542 93280,36544 93280,36545 93279,36546 93278,36547 93277,36549 93276,36550 93276,36551 93275,36553 93274,36554 93274,36555 93273,36557 93272,36558 93272,36560 93271,36561 93271,36563 93271,36564 93270,36566 93270,36567 93270,36569 93269,36570 93269,36572 93269,36573 93269,36575 93268,36576 93268,36578 93268,36579 93268,36581 93268,38919 93268,38921 93268,38922 93268,38924 93269,38925 93269,38927 93269,38928 93269,38930 93270,38931 93270,38933 93270,38934 93271,38936 93271,38937 93271,38939 93272,38940 93272,38942 93273,38943 93274,38945 93274,38946 93275,38947 93276,38949 93276,38950 93277,38951 93278,38953 93279,38954 93280,38955 93280,38956 93281,38958 93282,38959 93283,38960 93284,38961 93285,38962 93287,38963 93288,38964 93289,38965 93290,38967 93291,38968 93292,38969 93293,38969 93295,38970 93296,38971 93297,38972 93299,38973 93300,38974 93301,38974 93303,38975 93304,38976 93305,38976 93307,38977 93308,38978 93310,38978 93311,38979 93313,38979 93314,38979 93316,38980 93317,38980 93318,38980 93320,38981 93322,38981 93323,38981 93325,38981 93326,38982 93328,38982 93329,38982 93331,38982 Z"/>
    <path fill="none" stroke="rgb(255,255,255)" d="M 93331,38982 L 95669,38982 95670,38982 95672,38982 95674,38982 95675,38981 95677,38981 95678,38981 95680,38981 95681,38980 95683,38980 95684,38980 95686,38979 95687,38979 95689,38979 95690,38978 95691,38978 95693,38977 95694,38976 95696,38976 95697,38975 95698,38974 95700,38974 95701,38973 95702,38972 95704,38971 95705,38970 95706,38969 95708,38969 95709,38968 95710,38967 95711,38965 95712,38964 95713,38963 95714,38962 95715,38961 95716,38960 95717,38959 95718,38958 95719,38956 95720,38955 95721,38954 95722,38953 95723,38951 95723,38950 95724,38949 95725,38947 95725,38946 95726,38945 95727,38943 95727,38942 95728,38940 95728,38939 95729,38937 95729,38936 95730,38934 95730,38933 95730,38931 95731,38930 95731,38928 95731,38927 95731,38925 95731,38924 95731,38922 95731,38921 95731,38919 95731,36581 95731,36579 95731,36578 95731,36576 95731,36575 95731,36573 95731,36572 95731,36570 95730,36569 95730,36567 95730,36566 95729,36564 95729,36563 95728,36561 95728,36560 95727,36558 95727,36557 95726,36555 95725,36554 95725,36553 95724,36551 95723,36550 95723,36549 95722,36547 95721,36546 95720,36545 95719,36544 95718,36542 95717,36541 95716,36540 95715,36539 95714,36538 95713,36537 95712,36536 95711,36535 95710,36533 95709,36533 95708,36531 95706,36531 95705,36530 95704,36529 95702,36528 95701,36527 95700,36526 95698,36526 95697,36525 95696,36524 95694,36524 95693,36523 95691,36522 95690,36522 95689,36521 95687,36521 95686,36521 95684,36520 95683,36520 95681,36520 95680,36519 95678,36519 95677,36519 95675,36519 95674,36519 95672,36518 95670,36518 95669,36518 93331,36518 93329,36518 93328,36518 93326,36519 93325,36519 93323,36519 93322,36519 93320,36519 93318,36520 93317,36520 93316,36520 93314,36521 93313,36521 93311,36521 93310,36522 93308,36522 93307,36523 93305,36524 93304,36524 93303,36525 93301,36526 93300,36526 93299,36527 93297,36528 93296,36529 93295,36530 93293,36531 93292,36531 93291,36533 93290,36533 93289,36535 93288,36536 93287,36537 93285,36538 93284,36539 93283,36540 93282,36541 93281,36542 93280,36544 93280,36545 93279,36546 93278,36547 93277,36549 93276,36550 93276,36551 93275,36553 93274,36554 93274,36555 93273,36557 93272,36558 93272,36560 93271,36561 93271,36563 93271,36564 93270,36566 93270,36567 93270,36569 93269,36570 93269,36572 93269,36573 93269,36575 93268,36576 93268,36578 93268,36579 93268,36581 93268,38919 93268,38921 93268,38922 93268,38924 93269,38925 93269,38927 93269,38928 93269,38930 93270,38931 93270,38933 93270,38934 93271,38936 93271,38937 93271,38939 93272,38940 93272,38942 93273,38943 93274,38945 93274,38946 93275,38947 93276,38949 93276,38950 93277,38951 93278,38953 93279,38954 93280,38955 93280,38956 93281,38958 93282,38959 93283,38960 93284,38961 93285,38962 93287,38963 93288,38964 93289,38965 93290,38967 93291,38968 93292,38969 93293,38969 93295,38970 93296,38971 93297,38972 93299,38973 93300,38974 93301,38974 93303,38975 93304,38976 93305,38976 93307,38977 93308,38978 93310,38978 93311,38979 93313,38979 93314,38979 93316,38980 93317,38980 93318,38980 93320,38981 93322,38981 93323,38981 93325,38981 93326,38982 93328,38982 93329,38982 93331,38982 Z"/>
   </g>
  </g>
  <g class="com.sun.star.drawing.PolyPolygonShape">
   <g id="id5">
    <rect class="BoundingBox" stroke="none" fill="none" x="93286" y="36536" width="2429" height="2429"/>
    <path fill="rgb(0,0,255)" stroke="none" d="M 93332,38963 L 95669,38963 95671,38963 95673,38963 95675,38962 95678,38962 95680,38962 95682,38961 95684,38960 95686,38960 95688,38959 95690,38958 95691,38957 95693,38956 95695,38954 95697,38953 95698,38952 95700,38950 95701,38949 95703,38947 95704,38945 95705,38944 95707,38942 95708,38940 95709,38938 95709,38936 95710,38934 95711,38932 95711,38930 95712,38928 95712,38926 95713,38924 95713,38921 95713,38919 95713,36581 95713,36579 95713,36577 95712,36574 95712,36572 95711,36570 95711,36568 95710,36566 95709,36564 95709,36562 95708,36560 95707,36558 95705,36557 95704,36555 95703,36553 95701,36552 95700,36550 95698,36548 95697,36547 95695,36546 95693,36545 95691,36543 95690,36542 95688,36541 95686,36540 95684,36540 95682,36539 95680,36538 95678,36538 95675,36538 95673,36537 95671,36537 95669,36537 93332,36537 93330,36537 93327,36537 93325,36538 93322,36538 93320,36538 93318,36539 93316,36540 93314,36540 93312,36541 93310,36542 93308,36543 93306,36545 93305,36546 93303,36547 93301,36548 93300,36550 93298,36552 93297,36553 93296,36555 93294,36557 93293,36558 93292,36560 93291,36562 93290,36564 93289,36566 93289,36568 93288,36570 93288,36572 93287,36574 93287,36577 93287,36579 93287,36581 93287,38919 93287,38921 93287,38924 93287,38926 93288,38928 93288,38930 93289,38932 93289,38934 93290,38936 93291,38938 93292,38940 93293,38942 93294,38944 93296,38945 93297,38947 93298,38949 93300,38950 93301,38952 93303,38953 93305,38954 93306,38956 93308,38957 93310,38958 93312,38959 93314,38960 93316,38960 93318,38961 93320,38962 93322,38962 93325,38962 93327,38963 93330,38963 93332,38963 Z"/>
    <path fill="none" stroke="rgb(0,0,255)" d="M 93332,38963 L 95669,38963 95671,38963 95673,38963 95675,38962 95678,38962 95680,38962 95682,38961 95684,38960 95686,38960 95688,38959 95690,38958 95691,38957 95693,38956 95695,38954 95697,38953 95698,38952 95700,38950 95701,38949 95703,38947 95704,38945 95705,38944 95707,38942 95708,38940 95709,38938 95709,38936 95710,38934 95711,38932 95711,38930 95712,38928 95712,38926 95713,38924 95713,38921 95713,38919 95713,36581 95713,36579 95713,36577 95712,36574 95712,36572 95711,36570 95711,36568 95710,36566 95709,36564 95709,36562 95708,36560 95707,36558 95705,36557 95704,36555 95703,36553 95701,36552 95700,36550 95698,36548 95697,36547 95695,36546 95693,36545 95691,36543 95690,36542 95688,36541 95686,36540 95684,36540 95682,36539 95680,36538 95678,36538 95675,36538 95673,36537 95671,36537 95669,36537 93332,36537 93330,36537 93327,36537 93325,36538 93322,36538 93320,36538 93318,36539 93316,36540 93314,36540 93312,36541 93310,36542 93308,36543 93306,36545 93305,36546 93303,36547 93301,36548 93300,36550 93298,36552 93297,36553 93296,36555 93294,36557 93293,36558 93292,36560 93291,36562 93290,36564 93289,36566 93289,36568 93288,36570 93288,36572 93287,36574 93287,36577 93287,36579 93287,36581 93287,38919 93287,38921 93287,38924 93287,38926 93288,38928 93288,38930 93289,38932 93289,38934 93290,38936 93291,38938 93292,38940 93293,38942 93294,38944 93296,38945 93297,38947 93298,38949 93300,38950 93301,38952 93303,38953 93305,38954 93306,38956 93308,38957 93310,38958 93312,38959 93314,38960 93316,38960 93318,38961 93320,38962 93322,38962 93325,38962 93327,38963 93330,38963 93332,38963 Z"/>
   </g>
  </g>
  <g class="com.sun.star.drawing.PolyPolygonShape">
   <g id="id6">
    <rect class="BoundingBox" stroke="none" fill="none" x="93380" y="37786" width="1160" height="304"/>
    <path fill="rgb(255,255,255)" stroke="none" d="M 94538,37975 L 94538,37899 93531,37899 93531,37787 93381,37937 93531,38088 93531,37975 94538,37975 Z"/>
    <path fill="none" stroke="rgb(255,255,255)" d="M 94538,37975 L 94538,37899 93531,37899 93531,37787 93381,37937 93531,38088 93531,37975 94538,37975 Z"/>
   </g>
  </g>
  <g class="com.sun.star.drawing.PolyPolygonShape">
   <g id="id7">
    <rect class="BoundingBox" stroke="none" fill="none" x="94461" y="37786" width="1160" height="304"/>
    <path fill="rgb(255,255,255)" stroke="none" d="M 94462,37899 L 94462,37975 95469,37975 95469,38088 95619,37937 95469,37787 95469,37899 94462,37899 Z"/>
    <path fill="none" stroke="rgb(255,255,255)" d="M 94462,37899 L 94462,37975 95469,37975 95469,38088 95619,37937 95469,37787 95469,37899 94462,37899 Z"/>
   </g>
  </g>
  <g class="com.sun.star.drawing.PolyPolygonShape">
   <g id="id8">
    <rect class="BoundingBox" stroke="none" fill="none" x="94348" y="36911" width="304" height="1029"/>
    <path fill="rgb(255,255,255)" stroke="none" d="M 94462,37938 L 94537,37938 94537,37062 94650,37062 94499,36912 94349,37062 94462,37062 94462,37938 Z"/>
    <path fill="none" stroke="rgb(255,255,255)" d="M 94462,37938 L 94537,37938 94537,37062 94650,37062 94499,36912 94349,37062 94462,37062 94462,37938 Z"/>
   </g>
  </g>
  <g class="com.sun.star.drawing.PolyPolygonShape">
   <g id="id9">
    <rect class="BoundingBox" stroke="none" fill="none" x="94461" y="37899" width="79" height="972"/>
    <path fill="rgb(255,255,255)" stroke="none" d="M 94538,37900 L 94462,37900 94462,38869 94538,38869 94538,37900 Z"/>
    <path fill="none" stroke="rgb(255,255,255)" d="M 94538,37900 L 94462,37900 94462,38869 94538,38869 94538,37900 Z"/>
   </g>
  </g>
  <g class="com.sun.star.drawing.PolyPolygonShape">
   <g id="id10">
    <rect class="BoundingBox" stroke="none" fill="none" x="94192" y="37630" width="617" height="616"/>
    <path fill="rgb(255,255,255)" stroke="none" d="M 94807,37938 L 94807,37934 94807,37930 94806,37927 94806,37923 94806,37919 94806,37915 94805,37912 94805,37908 94805,37904 94804,37901 94804,37897 94803,37893 94803,37889 94802,37886 94801,37882 94801,37878 94800,37875 94799,37871 94798,37867 94797,37864 94796,37860 94796,37856 94794,37853 94793,37849 94792,37846 94791,37842 94790,37838 94789,37835 94787,37831 94786,37828 94785,37824 94783,37821 94782,37817 94780,37814 94779,37810 94777,37807 94776,37804 94774,37800 94772,37797 94771,37794 94769,37790 94767,37787 94765,37784 94763,37781 94761,37777 94759,37774 94757,37771 94755,37768 94753,37765 94751,37762 94748,37759 94746,37756 94744,37753 94742,37750 94740,37747 94737,37744 94735,37741 94732,37738 94730,37735 94727,37732 94725,37730 94722,37727 94719,37724 94717,37721 94714,37719 94712,37716 94709,37714 94706,37711 94703,37709 94700,37706 94698,37704 94695,37701 94692,37699 94689,37697 94686,37694 94683,37692 94680,37690 94677,37688 94674,37686 94671,37683 94667,37681 94664,37679 94661,37677 94658,37675 94655,37674 94651,37672 94648,37670 94645,37668 94641,37666 94638,37665 94635,37663 94631,37661 94628,37660 94624,37658 94621,37657 94618,37655 94614,37654 94610,37652 94607,37651 94603,37650 94600,37649 94596,37647 94593,37646 94589,37645 94586,37644 94582,37643 94578,37642 94575,37641 94571,37640 94567,37639 94564,37637 94560,37637 94556,37636 94552,37635 94548,37635 94544,37634 94540,37634 94537,37633 94533,37633 94529,37632 94526,37632 94522,37632 94518,37631 94514,37631 94511,37631 94507,37631 94503,37631 94499,37631 94496,37631 94492,37631 94488,37631 94484,37631 94481,37631 94477,37632 94473,37632 94469,37632 94465,37633 94462,37633 94458,37634 94454,37634 94451,37635 94447,37635 94443,37636 94440,37637 94436,37637 94432,37639 94429,37640 94425,37641 94421,37642 94418,37643 94414,37644 94410,37645 94407,37646 94403,37647 94400,37649 94396,37650 94393,37651 94389,37652 94386,37654 94382,37655 94379,37657 94375,37658 94372,37660 94368,37661 94365,37663 94362,37665 94358,37666 94355,37668 94352,37670 94348,37672 94345,37674 94342,37675 94339,37677 94335,37679 94332,37681 94329,37683 94326,37686 94323,37688 94320,37690 94317,37692 94314,37694 94311,37697 94308,37699 94305,37701 94302,37704 94299,37706 94297,37709 94294,37711 94291,37714 94288,37716 94286,37719 94283,37721 94280,37724 94278,37727 94275,37730 94272,37732 94270,37735 94268,37738 94265,37741 94263,37744 94260,37747 94258,37750 94256,37753 94253,37756 94251,37759 94249,37762 94247,37765 94245,37768 94243,37771 94241,37774 94239,37777 94237,37781 94235,37784 94233,37787 94231,37790 94229,37794 94228,37797 94226,37800 94224,37804 94222,37807 94221,37810 94219,37814 94218,37817 94216,37821 94215,37824 94214,37828 94212,37831 94211,37835 94210,37838 94209,37842 94207,37846 94206,37849 94205,37853 94204,37856 94203,37860 94202,37864 94201,37867 94201,37871 94200,37875 94199,37878 94198,37882 94198,37886 94197,37889 94196,37893 94196,37897 94195,37901 94195,37904 94195,37908 94194,37912 94194,37915 94194,37919 94193,37923 94193,37927 94193,37930 94193,37934 94193,37938 94193,37942 94193,37946 94193,37949 94193,37953 94194,37957 94194,37961 94194,37964 94195,37968 94195,37972 94195,37975 94196,37979 94196,37983 94197,37987 94198,37990 94198,37994 94199,37998 94200,38001 94201,38005 94201,38009 94202,38012 94203,38016 94204,38020 94205,38023 94206,38027 94207,38030 94209,38034 94210,38038 94211,38041 94212,38045 94214,38048 94215,38052 94216,38055 94218,38059 94219,38062 94221,38066 94222,38069 94224,38072 94226,38076 94228,38079 94229,38082 94231,38086 94233,38089 94235,38092 94237,38095 94239,38099 94241,38102 94243,38105 94245,38108 94247,38111 94249,38114 94251,38117 94253,38121 94256,38123 94258,38127 94260,38129 94263,38132 94265,38135 94268,38138 94270,38141 94272,38144 94275,38146 94278,38149 94280,38152 94283,38155 94286,38157 94288,38160 94291,38162 94294,38165 94297,38167 94299,38170 94302,38172 94305,38175 94308,38177 94311,38179 94314,38182 94317,38184 94320,38186 94323,38188 94326,38191 94329,38193 94332,38195 94335,38197 94339,38199 94342,38201 94345,38203 94348,38205 94352,38206 94355,38208 94358,38210 94362,38211 94365,38213 94368,38215 94372,38216 94375,38218 94379,38219 94382,38221 94386,38222 94389,38224 94393,38225 94396,38226 94400,38228 94403,38229 94407,38230 94410,38231 94414,38232 94418,38233 94421,38234 94425,38235 94429,38236 94432,38237 94436,38238 94440,38238 94443,38239 94447,38240 94451,38240 94454,38241 94458,38241 94462,38242 94465,38242 94469,38243 94473,38243 94477,38243 94481,38244 94484,38244 94488,38244 94492,38244 94496,38244 94499,38244 94503,38244 94507,38244 94511,38244 94514,38244 94518,38244 94522,38243 94526,38243 94529,38243 94533,38242 94537,38242 94540,38241 94544,38241 94548,38240 94552,38240 94556,38239 94560,38238 94564,38238 94567,38237 94571,38236 94575,38235 94578,38234 94582,38233 94586,38232 94589,38231 94593,38230 94596,38229 94600,38228 94603,38226 94607,38225 94610,38224 94614,38222 94618,38221 94621,38219 94624,38218 94628,38216 94631,38215 94635,38213 94638,38211 94641,38210 94645,38208 94648,38206 94651,38205 94655,38203 94658,38201 94661,38199 94664,38197 94667,38195 94671,38193 94674,38191 94677,38188 94680,38186 94683,38184 94686,38182 94689,38179 94692,38177 94695,38175 94698,38172 94700,38170 94703,38167 94706,38165 94709,38162 94712,38160 94714,38157 94717,38155 94719,38152 94722,38149 94725,38146 94727,38144 94730,38141 94732,38138 94735,38135 94737,38132 94740,38129 94742,38127 94744,38123 94746,38121 94748,38117 94751,38114 94753,38111 94755,38108 94757,38105 94759,38102 94761,38099 94763,38095 94765,38092 94767,38089 94769,38086 94771,38082 94772,38079 94774,38076 94776,38072 94777,38069 94779,38066 94780,38062 94782,38059 94783,38055 94785,38052 94786,38048 94787,38045 94789,38041 94790,38038 94791,38034 94792,38030 94793,38027 94794,38023 94796,38020 94796,38016 94797,38012 94798,38009 94799,38005 94800,38001 94801,37998 94801,37994 94802,37990 94803,37987 94803,37983 94804,37979 94804,37975 94805,37972 94805,37968 94805,37964 94806,37961 94806,37957 94806,37953 94806,37949 94807,37946 94807,37942 94807,37938 Z"/>
    <path fill="none" stroke="rgb(255,255,255)" d="M 94807,37938 L 94807,37934 94807,37930 94806,37927 94806,37923 94806,37919 94806,37915 94805,37912 94805,37908 94805,37904 94804,37901 94804,37897 94803,37893 94803,37889 94802,37886 94801,37882 94801,37878 94800,37875 94799,37871 94798,37867 94797,37864 94796,37860 94796,37856 94794,37853 94793,37849 94792,37846 94791,37842 94790,37838 94789,37835 94787,37831 94786,37828 94785,37824 94783,37821 94782,37817 94780,37814 94779,37810 94777,37807 94776,37804 94774,37800 94772,37797 94771,37794 94769,37790 94767,37787 94765,37784 94763,37781 94761,37777 94759,37774 94757,37771 94755,37768 94753,37765 94751,37762 94748,37759 94746,37756 94744,37753 94742,37750 94740,37747 94737,37744 94735,37741 94732,37738 94730,37735 94727,37732 94725,37730 94722,37727 94719,37724 94717,37721 94714,37719 94712,37716 94709,37714 94706,37711 94703,37709 94700,37706 94698,37704 94695,37701 94692,37699 94689,37697 94686,37694 94683,37692 94680,37690 94677,37688 94674,37686 94671,37683 94667,37681 94664,37679 94661,37677 94658,37675 94655,37674 94651,37672 94648,37670 94645,37668 94641,37666 94638,37665 94635,37663 94631,37661 94628,37660 94624,37658 94621,37657 94618,37655 94614,37654 94610,37652 94607,37651 94603,37650 94600,37649 94596,37647 94593,37646 94589,37645 94586,37644 94582,37643 94578,37642 94575,37641 94571,37640 94567,37639 94564,37637 94560,37637 94556,37636 94552,37635 94548,37635 94544,37634 94540,37634 94537,37633 94533,37633 94529,37632 94526,37632 94522,37632 94518,37631 94514,37631 94511,37631 94507,37631 94503,37631 94499,37631 94496,37631 94492,37631 94488,37631 94484,37631 94481,37631 94477,37632 94473,37632 94469,37632 94465,37633 94462,37633 94458,37634 94454,37634 94451,37635 94447,37635 94443,37636 94440,37637 94436,37637 94432,37639 94429,37640 94425,37641 94421,37642 94418,37643 94414,37644 94410,37645 94407,37646 94403,37647 94400,37649 94396,37650 94393,37651 94389,37652 94386,37654 94382,37655 94379,37657 94375,37658 94372,37660 94368,37661 94365,37663 94362,37665 94358,37666 94355,37668 94352,37670 94348,37672 94345,37674 94342,37675 94339,37677 94335,37679 94332,37681 94329,37683 94326,37686 94323,37688 94320,37690 94317,37692 94314,37694 94311,37697 94308,37699 94305,37701 94302,37704 94299,37706 94297,37709 94294,37711 94291,37714 94288,37716 94286,37719 94283,37721 94280,37724 94278,37727 94275,37730 94272,37732 94270,37735 94268,37738 94265,37741 94263,37744 94260,37747 94258,37750 94256,37753 94253,37756 94251,37759 94249,37762 94247,37765 94245,37768 94243,37771 94241,37774 94239,37777 94237,37781 94235,37784 94233,37787 94231,37790 94229,37794 94228,37797 94226,37800 94224,37804 94222,37807 94221,37810 94219,37814 94218,37817 94216,37821 94215,37824 94214,37828 94212,37831 94211,37835 94210,37838 94209,37842 94207,37846 94206,37849 94205,37853 94204,37856 94203,37860 94202,37864 94201,37867 94201,37871 94200,37875 94199,37878 94198,37882 94198,37886 94197,37889 94196,37893 94196,37897 94195,37901 94195,37904 94195,37908 94194,37912 94194,37915 94194,37919 94193,37923 94193,37927 94193,37930 94193,37934 94193,37938 94193,37942 94193,37946 94193,37949 94193,37953 94194,37957 94194,37961 94194,37964 94195,37968 94195,37972 94195,37975 94196,37979 94196,37983 94197,37987 94198,37990 94198,37994 94199,37998 94200,38001 94201,38005 94201,38009 94202,38012 94203,38016 94204,38020 94205,38023 94206,38027 94207,38030 94209,38034 94210,38038 94211,38041 94212,38045 94214,38048 94215,38052 94216,38055 94218,38059 94219,38062 94221,38066 94222,38069 94224,38072 94226,38076 94228,38079 94229,38082 94231,38086 94233,38089 94235,38092 94237,38095 94239,38099 94241,38102 94243,38105 94245,38108 94247,38111 94249,38114 94251,38117 94253,38121 94256,38123 94258,38127 94260,38129 94263,38132 94265,38135 94268,38138 94270,38141 94272,38144 94275,38146 94278,38149 94280,38152 94283,38155 94286,38157 94288,38160 94291,38162 94294,38165 94297,38167 94299,38170 94302,38172 94305,38175 94308,38177 94311,38179 94314,38182 94317,38184 94320,38186 94323,38188 94326,38191 94329,38193 94332,38195 94335,38197 94339,38199 94342,38201 94345,38203 94348,38205 94352,38206 94355,38208 94358,38210 94362,38211 94365,38213 94368,38215 94372,38216 94375,38218 94379,38219 94382,38221 94386,38222 94389,38224 94393,38225 94396,38226 94400,38228 94403,38229 94407,38230 94410,38231 94414,38232 94418,38233 94421,38234 94425,38235 94429,38236 94432,38237 94436,38238 94440,38238 94443,38239 94447,38240 94451,38240 94454,38241 94458,38241 94462,38242 94465,38242 94469,38243 94473,38243 94477,38243 94481,38244 94484,38244 94488,38244 94492,38244 94496,38244 94499,38244 94503,38244 94507,38244 94511,38244 94514,38244 94518,38244 94522,38243 94526,38243 94529,38243 94533,38242 94537,38242 94540,38241 94544,38241 94548,38240 94552,38240 94556,38239 94560,38238 94564,38238 94567,38237 94571,38236 94575,38235 94578,38234 94582,38233 94586,38232 94589,38231 94593,38230 94596,38229 94600,38228 94603,38226 94607,38225 94610,38224 94614,38222 94618,38221 94621,38219 94624,38218 94628,38216 94631,38215 94635,38213 94638,38211 94641,38210 94645,38208 94648,38206 94651,38205 94655,38203 94658,38201 94661,38199 94664,38197 94667,38195 94671,38193 94674,38191 94677,38188 94680,38186 94683,38184 94686,38182 94689,38179 94692,38177 94695,38175 94698,38172 94700,38170 94703,38167 94706,38165 94709,38162 94712,38160 94714,38157 94717,38155 94719,38152 94722,38149 94725,38146 94727,38144 94730,38141 94732,38138 94735,38135 94737,38132 94740,38129 94742,38127 94744,38123 94746,38121 94748,38117 94751,38114 94753,38111 94755,38108 94757,38105 94759,38102 94761,38099 94763,38095 94765,38092 94767,38089 94769,38086 94771,38082 94772,38079 94774,38076 94776,38072 94777,38069 94779,38066 94780,38062 94782,38059 94783,38055 94785,38052 94786,38048 94787,38045 94789,38041 94790,38038 94791,38034 94792,38030 94793,38027 94794,38023 94796,38020 94796,38016 94797,38012 94798,38009 94799,38005 94800,38001 94801,37998 94801,37994 94802,37990 94803,37987 94803,37983 94804,37979 94804,37975 94805,37972 94805,37968 94805,37964 94806,37961 94806,37957 94806,37953 94806,37949 94807,37946 94807,37942 94807,37938 Z"/>
   </g>
  </g>
  <g class="com.sun.star.drawing.PolyPolygonShape">
   <g id="id11">
    <rect class="BoundingBox" stroke="none" fill="none" x="94267" y="37705" width="467" height="466"/>
    <path fill="rgb(0,0,255)" stroke="none" d="M 94732,37937 L 94732,37934 94732,37931 94731,37929 94731,37926 94731,37923 94731,37920 94731,37917 94731,37914 94730,37912 94730,37909 94729,37906 94729,37903 94729,37900 94728,37898 94728,37895 94727,37892 94727,37889 94726,37886 94725,37884 94725,37881 94724,37878 94723,37875 94722,37873 94722,37870 94721,37867 94720,37864 94719,37862 94718,37859 94717,37856 94716,37854 94715,37851 94714,37849 94713,37846 94712,37843 94711,37841 94709,37838 94708,37836 94707,37833 94706,37831 94704,37828 94703,37825 94701,37823 94700,37821 94699,37818 94697,37816 94696,37813 94694,37811 94693,37809 94691,37806 94689,37804 94688,37802 94686,37799 94684,37797 94683,37795 94681,37792 94679,37790 94677,37788 94675,37786 94674,37784 94672,37782 94670,37780 94668,37778 94666,37776 94664,37774 94662,37772 94660,37770 94658,37768 94656,37766 94654,37764 94651,37762 94649,37760 94647,37758 94645,37756 94643,37755 94640,37753 94638,37751 94636,37750 94634,37748 94631,37746 94629,37745 94626,37743 94624,37742 94622,37740 94619,37739 94617,37737 94614,37736 94612,37734 94609,37733 94607,37732 94604,37731 94602,37729 94599,37728 94597,37727 94594,37726 94591,37724 94589,37723 94586,37722 94584,37721 94581,37720 94578,37719 94575,37718 94573,37717 94570,37717 94567,37716 94565,37715 94562,37714 94559,37713 94557,37713 94554,37712 94551,37711 94548,37711 94545,37710 94543,37710 94540,37709 94537,37709 94534,37708 94531,37708 94529,37707 94526,37707 94523,37707 94520,37707 94517,37706 94514,37706 94512,37706 94509,37706 94506,37706 94503,37706 94500,37706 94497,37706 94495,37706 94492,37706 94489,37706 94486,37706 94483,37706 94481,37707 94477,37707 94474,37707 94471,37707 94468,37708 94465,37708 94463,37709 94460,37709 94457,37710 94454,37710 94452,37711 94449,37711 94446,37712 94443,37713 94440,37713 94438,37714 94435,37715 94432,37716 94430,37717 94427,37717 94424,37718 94421,37719 94419,37720 94416,37721 94413,37722 94411,37723 94408,37724 94406,37726 94403,37727 94401,37728 94398,37729 94395,37731 94393,37732 94390,37733 94388,37734 94385,37736 94383,37737 94380,37739 94378,37740 94376,37742 94373,37743 94371,37745 94369,37746 94366,37748 94364,37750 94362,37751 94359,37753 94357,37755 94355,37756 94353,37758 94350,37760 94348,37762 94346,37764 94344,37766 94342,37768 94340,37770 94338,37772 94336,37774 94334,37776 94332,37778 94330,37780 94328,37782 94326,37784 94324,37786 94322,37788 94321,37790 94319,37792 94317,37795 94315,37797 94314,37799 94312,37802 94310,37804 94309,37806 94307,37809 94306,37811 94304,37813 94302,37816 94301,37818 94300,37821 94298,37823 94297,37825 94295,37828 94294,37831 94293,37833 94291,37836 94290,37838 94289,37841 94288,37843 94287,37846 94286,37849 94285,37851 94284,37854 94283,37856 94282,37859 94281,37862 94280,37864 94279,37867 94278,37870 94277,37873 94277,37875 94276,37878 94275,37881 94274,37884 94274,37886 94273,37889 94273,37892 94272,37895 94271,37898 94271,37900 94271,37903 94270,37906 94270,37909 94270,37912 94269,37914 94269,37917 94269,37920 94269,37923 94268,37926 94268,37929 94268,37931 94268,37934 94268,37937 94268,37940 94268,37943 94268,37945 94268,37948 94269,37951 94269,37954 94269,37957 94269,37960 94270,37963 94270,37965 94270,37968 94271,37971 94271,37974 94271,37977 94272,37979 94273,37982 94273,37985 94274,37988 94274,37990 94275,37993 94276,37996 94277,37999 94277,38001 94278,38004 94279,38007 94280,38010 94281,38012 94282,38015 94283,38017 94284,38020 94285,38023 94286,38025 94287,38028 94288,38031 94289,38033 94290,38036 94291,38038 94293,38041 94294,38044 94295,38046 94297,38049 94298,38051 94300,38053 94301,38056 94302,38058 94304,38061 94306,38063 94307,38065 94309,38068 94310,38070 94312,38073 94314,38075 94315,38077 94317,38079 94319,38082 94321,38084 94322,38086 94324,38088 94326,38090 94328,38092 94330,38094 94332,38096 94334,38098 94336,38101 94338,38103 94340,38105 94342,38106 94344,38108 94346,38110 94348,38112 94350,38114 94353,38117 94355,38119 94357,38120 94359,38122 94362,38124 94364,38125 94366,38127 94369,38129 94371,38130 94373,38132 94376,38133 94378,38135 94380,38136 94383,38138 94385,38139 94388,38141 94390,38142 94393,38143 94395,38145 94398,38146 94401,38147 94403,38148 94406,38149 94408,38151 94411,38152 94413,38153 94416,38154 94419,38155 94421,38156 94424,38157 94427,38158 94430,38159 94432,38159 94435,38160 94438,38161 94440,38162 94443,38162 94446,38163 94449,38164 94452,38164 94454,38165 94457,38165 94460,38166 94463,38166 94465,38167 94468,38167 94471,38168 94474,38168 94477,38168 94481,38168 94483,38169 94486,38169 94489,38169 94492,38169 94495,38169 94497,38169 94500,38169 94503,38169 94506,38169 94509,38169 94512,38169 94514,38169 94517,38169 94520,38168 94523,38168 94526,38168 94529,38168 94531,38167 94534,38167 94537,38166 94540,38166 94543,38165 94545,38165 94548,38164 94551,38164 94554,38163 94557,38162 94559,38162 94562,38161 94565,38160 94567,38159 94570,38159 94573,38158 94575,38157 94578,38156 94581,38155 94584,38154 94586,38153 94589,38152 94591,38151 94594,38149 94597,38148 94599,38147 94602,38146 94604,38145 94607,38143 94609,38142 94612,38141 94614,38139 94617,38138 94619,38136 94622,38135 94624,38133 94626,38132 94629,38130 94631,38129 94634,38127 94636,38125 94638,38124 94640,38122 94643,38120 94645,38119 94647,38117 94649,38114 94651,38112 94654,38110 94656,38108 94658,38106 94660,38105 94662,38103 94664,38101 94666,38098 94668,38096 94670,38094 94672,38092 94674,38090 94675,38088 94677,38086 94679,38084 94681,38082 94683,38079 94684,38077 94686,38075 94688,38073 94689,38070 94691,38068 94693,38065 94694,38063 94696,38061 94697,38058 94699,38056 94700,38053 94701,38051 94703,38049 94704,38046 94706,38044 94707,38041 94708,38038 94709,38036 94711,38033 94712,38031 94713,38028 94714,38025 94715,38023 94716,38020 94717,38017 94718,38015 94719,38012 94720,38010 94721,38007 94722,38004 94722,38001 94723,37999 94724,37996 94725,37993 94725,37990 94726,37988 94727,37985 94727,37982 94728,37979 94728,37977 94729,37974 94729,37971 94729,37968 94730,37965 94730,37963 94731,37960 94731,37957 94731,37954 94731,37951 94731,37948 94731,37945 94732,37943 94732,37940 94732,37937 Z"/>
    <path fill="none" stroke="rgb(0,0,255)" d="M 94732,37937 L 94732,37934 94732,37931 94731,37929 94731,37926 94731,37923 94731,37920 94731,37917 94731,37914 94730,37912 94730,37909 94729,37906 94729,37903 94729,37900 94728,37898 94728,37895 94727,37892 94727,37889 94726,37886 94725,37884 94725,37881 94724,37878 94723,37875 94722,37873 94722,37870 94721,37867 94720,37864 94719,37862 94718,37859 94717,37856 94716,37854 94715,37851 94714,37849 94713,37846 94712,37843 94711,37841 94709,37838 94708,37836 94707,37833 94706,37831 94704,37828 94703,37825 94701,37823 94700,37821 94699,37818 94697,37816 94696,37813 94694,37811 94693,37809 94691,37806 94689,37804 94688,37802 94686,37799 94684,37797 94683,37795 94681,37792 94679,37790 94677,37788 94675,37786 94674,37784 94672,37782 94670,37780 94668,37778 94666,37776 94664,37774 94662,37772 94660,37770 94658,37768 94656,37766 94654,37764 94651,37762 94649,37760 94647,37758 94645,37756 94643,37755 94640,37753 94638,37751 94636,37750 94634,37748 94631,37746 94629,37745 94626,37743 94624,37742 94622,37740 94619,37739 94617,37737 94614,37736 94612,37734 94609,37733 94607,37732 94604,37731 94602,37729 94599,37728 94597,37727 94594,37726 94591,37724 94589,37723 94586,37722 94584,37721 94581,37720 94578,37719 94575,37718 94573,37717 94570,37717 94567,37716 94565,37715 94562,37714 94559,37713 94557,37713 94554,37712 94551,37711 94548,37711 94545,37710 94543,37710 94540,37709 94537,37709 94534,37708 94531,37708 94529,37707 94526,37707 94523,37707 94520,37707 94517,37706 94514,37706 94512,37706 94509,37706 94506,37706 94503,37706 94500,37706 94497,37706 94495,37706 94492,37706 94489,37706 94486,37706 94483,37706 94481,37707 94477,37707 94474,37707 94471,37707 94468,37708 94465,37708 94463,37709 94460,37709 94457,37710 94454,37710 94452,37711 94449,37711 94446,37712 94443,37713 94440,37713 94438,37714 94435,37715 94432,37716 94430,37717 94427,37717 94424,37718 94421,37719 94419,37720 94416,37721 94413,37722 94411,37723 94408,37724 94406,37726 94403,37727 94401,37728 94398,37729 94395,37731 94393,37732 94390,37733 94388,37734 94385,37736 94383,37737 94380,37739 94378,37740 94376,37742 94373,37743 94371,37745 94369,37746 94366,37748 94364,37750 94362,37751 94359,37753 94357,37755 94355,37756 94353,37758 94350,37760 94348,37762 94346,37764 94344,37766 94342,37768 94340,37770 94338,37772 94336,37774 94334,37776 94332,37778 94330,37780 94328,37782 94326,37784 94324,37786 94322,37788 94321,37790 94319,37792 94317,37795 94315,37797 94314,37799 94312,37802 94310,37804 94309,37806 94307,37809 94306,37811 94304,37813 94302,37816 94301,37818 94300,37821 94298,37823 94297,37825 94295,37828 94294,37831 94293,37833 94291,37836 94290,37838 94289,37841 94288,37843 94287,37846 94286,37849 94285,37851 94284,37854 94283,37856 94282,37859 94281,37862 94280,37864 94279,37867 94278,37870 94277,37873 94277,37875 94276,37878 94275,37881 94274,37884 94274,37886 94273,37889 94273,37892 94272,37895 94271,37898 94271,37900 94271,37903 94270,37906 94270,37909 94270,37912 94269,37914 94269,37917 94269,37920 94269,37923 94268,37926 94268,37929 94268,37931 94268,37934 94268,37937 94268,37940 94268,37943 94268,37945 94268,37948 94269,37951 94269,37954 94269,37957 94269,37960 94270,37963 94270,37965 94270,37968 94271,37971 94271,37974 94271,37977 94272,37979 94273,37982 94273,37985 94274,37988 94274,37990 94275,37993 94276,37996 94277,37999 94277,38001 94278,38004 94279,38007 94280,38010 94281,38012 94282,38015 94283,38017 94284,38020 94285,38023 94286,38025 94287,38028 94288,38031 94289,38033 94290,38036 94291,38038 94293,38041 94294,38044 94295,38046 94297,38049 94298,38051 94300,38053 94301,38056 94302,38058 94304,38061 94306,38063 94307,38065 94309,38068 94310,38070 94312,38073 94314,38075 94315,38077 94317,38079 94319,38082 94321,38084 94322,38086 94324,38088 94326,38090 94328,38092 94330,38094 94332,38096 94334,38098 94336,38101 94338,38103 94340,38105 94342,38106 94344,38108 94346,38110 94348,38112 94350,38114 94353,38117 94355,38119 94357,38120 94359,38122 94362,38124 94364,38125 94366,38127 94369,38129 94371,38130 94373,38132 94376,38133 94378,38135 94380,38136 94383,38138 94385,38139 94388,38141 94390,38142 94393,38143 94395,38145 94398,38146 94401,38147 94403,38148 94406,38149 94408,38151 94411,38152 94413,38153 94416,38154 94419,38155 94421,38156 94424,38157 94427,38158 94430,38159 94432,38159 94435,38160 94438,38161 94440,38162 94443,38162 94446,38163 94449,38164 94452,38164 94454,38165 94457,38165 94460,38166 94463,38166 94465,38167 94468,38167 94471,38168 94474,38168 94477,38168 94481,38168 94483,38169 94486,38169 94489,38169 94492,38169 94495,38169 94497,38169 94500,38169 94503,38169 94506,38169 94509,38169 94512,38169 94514,38169 94517,38169 94520,38168 94523,38168 94526,38168 94529,38168 94531,38167 94534,38167 94537,38166 94540,38166 94543,38165 94545,38165 94548,38164 94551,38164 94554,38163 94557,38162 94559,38162 94562,38161 94565,38160 94567,38159 94570,38159 94573,38158 94575,38157 94578,38156 94581,38155 94584,38154 94586,38153 94589,38152 94591,38151 94594,38149 94597,38148 94599,38147 94602,38146 94604,38145 94607,38143 94609,38142 94612,38141 94614,38139 94617,38138 94619,38136 94622,38135 94624,38133 94626,38132 94629,38130 94631,38129 94634,38127 94636,38125 94638,38124 94640,38122 94643,38120 94645,38119 94647,38117 94649,38114 94651,38112 94654,38110 94656,38108 94658,38106 94660,38105 94662,38103 94664,38101 94666,38098 94668,38096 94670,38094 94672,38092 94674,38090 94675,38088 94677,38086 94679,38084 94681,38082 94683,38079 94684,38077 94686,38075 94688,38073 94689,38070 94691,38068 94693,38065 94694,38063 94696,38061 94697,38058 94699,38056 94700,38053 94701,38051 94703,38049 94704,38046 94706,38044 94707,38041 94708,38038 94709,38036 94711,38033 94712,38031 94713,38028 94714,38025 94715,38023 94716,38020 94717,38017 94718,38015 94719,38012 94720,38010 94721,38007 94722,38004 94722,38001 94723,37999 94724,37996 94725,37993 94725,37990 94726,37988 94727,37985 94727,37982 94728,37979 94728,37977 94729,37974 94729,37971 94729,37968 94730,37965 94730,37963 94731,37960 94731,37957 94731,37954 94731,37951 94731,37948 94731,37945 94732,37943 94732,37940 94732,37937 Z"/>
   </g>
  </g>
  <g class="com.sun.star.drawing.PolyPolygonShape">
   <g id="id12">
    <rect class="BoundingBox" stroke="none" fill="none" x="94247" y="37202" width="506" height="291"/>
    <path fill="rgb(255,255,255)" stroke="none" d="M 94280,37491 L 94720,37491 94721,37491 94723,37491 94725,37491 94726,37491 94728,37490 94729,37490 94731,37489 94732,37489 94733,37488 94735,37487 94736,37487 94737,37486 94739,37485 94740,37484 94741,37483 94742,37482 94743,37481 94744,37480 94745,37479 94746,37477 94747,37476 94748,37475 94748,37473 94749,37472 94749,37470 94750,37469 94750,37468 94751,37466 94751,37465 94751,37463 94751,37461 94751,37460 94751,37234 94751,37232 94751,37231 94751,37229 94751,37228 94750,37226 94750,37225 94749,37223 94749,37222 94748,37221 94748,37219 94747,37218 94746,37217 94745,37215 94744,37214 94743,37213 94742,37212 94741,37211 94740,37210 94739,37209 94737,37208 94736,37207 94735,37206 94733,37206 94732,37205 94731,37204 94729,37204 94728,37204 94726,37203 94725,37203 94723,37203 94721,37203 94720,37203 94280,37203 94278,37203 94277,37203 94275,37203 94274,37203 94272,37204 94271,37204 94269,37204 94268,37205 94266,37206 94265,37206 94264,37207 94262,37208 94261,37209 94260,37210 94259,37211 94258,37212 94257,37213 94256,37214 94255,37215 94254,37217 94253,37218 94252,37219 94251,37221 94251,37222 94250,37223 94250,37225 94249,37226 94249,37228 94249,37229 94249,37231 94248,37232 94248,37234 94248,37460 94248,37461 94249,37463 94249,37465 94249,37466 94249,37468 94250,37469 94250,37470 94251,37472 94251,37473 94252,37475 94253,37476 94254,37477 94255,37479 94256,37480 94257,37481 94258,37482 94259,37483 94260,37484 94261,37485 94262,37486 94264,37487 94265,37487 94266,37488 94268,37489 94269,37489 94271,37490 94272,37490 94274,37491 94275,37491 94277,37491 94278,37491 94280,37491 Z"/>
    <path fill="none" stroke="rgb(255,255,255)" d="M 94280,37491 L 94720,37491 94721,37491 94723,37491 94725,37491 94726,37491 94728,37490 94729,37490 94731,37489 94732,37489 94733,37488 94735,37487 94736,37487 94737,37486 94739,37485 94740,37484 94741,37483 94742,37482 94743,37481 94744,37480 94745,37479 94746,37477 94747,37476 94748,37475 94748,37473 94749,37472 94749,37470 94750,37469 94750,37468 94751,37466 94751,37465 94751,37463 94751,37461 94751,37460 94751,37234 94751,37232 94751,37231 94751,37229 94751,37228 94750,37226 94750,37225 94749,37223 94749,37222 94748,37221 94748,37219 94747,37218 94746,37217 94745,37215 94744,37214 94743,37213 94742,37212 94741,37211 94740,37210 94739,37209 94737,37208 94736,37207 94735,37206 94733,37206 94732,37205 94731,37204 94729,37204 94728,37204 94726,37203 94725,37203 94723,37203 94721,37203 94720,37203 94280,37203 94278,37203 94277,37203 94275,37203 94274,37203 94272,37204 94271,37204 94269,37204 94268,37205 94266,37206 94265,37206 94264,37207 94262,37208 94261,37209 94260,37210 94259,37211 94258,37212 94257,37213 94256,37214 94255,37215 94254,37217 94253,37218 94252,37219 94251,37221 94251,37222 94250,37223 94250,37225 94249,37226 94249,37228 94249,37229 94249,37231 94248,37232 94248,37234 94248,37460 94248,37461 94249,37463 94249,37465 94249,37466 94249,37468 94250,37469 94250,37470 94251,37472 94251,37473 94252,37475 94253,37476 94254,37477 94255,37479 94256,37480 94257,37481 94258,37482 94259,37483 94260,37484 94261,37485 94262,37486 94264,37487 94265,37487 94266,37488 94268,37489 94269,37489 94271,37490 94272,37490 94274,37491 94275,37491 94277,37491 94278,37491 94280,37491 Z"/>
   </g>
  </g>
  <g class="com.sun.star.drawing.PolyPolygonShape">
   <g id="id13">
    <rect class="BoundingBox" stroke="none" fill="none" x="94266" y="37220" width="468" height="254"/>
    <path fill="rgb(0,0,255)" stroke="none" d="M 94280,37472 L 94720,37472 94721,37472 94722,37472 94724,37472 94725,37472 94726,37471 94727,37470 94728,37470 94729,37469 94730,37468 94730,37467 94731,37466 94732,37465 94732,37464 94732,37462 94732,37461 94732,37460 94732,37234 94732,37233 94732,37232 94732,37230 94732,37229 94731,37228 94730,37227 94730,37226 94729,37225 94728,37224 94727,37224 94726,37223 94725,37222 94724,37222 94722,37222 94721,37222 94720,37221 94280,37221 94279,37222 94277,37222 94276,37222 94275,37222 94274,37223 94273,37224 94272,37224 94271,37225 94270,37226 94269,37227 94269,37228 94268,37229 94268,37230 94268,37232 94267,37233 94267,37234 94267,37460 94267,37461 94268,37462 94268,37464 94268,37465 94269,37466 94269,37467 94270,37468 94271,37469 94272,37470 94273,37470 94274,37471 94275,37472 94276,37472 94277,37472 94279,37472 94280,37472 Z"/>
    <path fill="none" stroke="rgb(0,0,255)" d="M 94280,37472 L 94720,37472 94721,37472 94722,37472 94724,37472 94725,37472 94726,37471 94727,37470 94728,37470 94729,37469 94730,37468 94730,37467 94731,37466 94732,37465 94732,37464 94732,37462 94732,37461 94732,37460 94732,37234 94732,37233 94732,37232 94732,37230 94732,37229 94731,37228 94730,37227 94730,37226 94729,37225 94728,37224 94727,37224 94726,37223 94725,37222 94724,37222 94722,37222 94721,37222 94720,37221 94280,37221 94279,37222 94277,37222 94276,37222 94275,37222 94274,37223 94273,37224 94272,37224 94271,37225 94270,37226 94269,37227 94269,37228 94268,37229 94268,37230 94268,37232 94267,37233 94267,37234 94267,37460 94267,37461 94268,37462 94268,37464 94268,37465 94269,37466 94269,37467 94270,37468 94271,37469 94272,37470 94273,37470 94274,37471 94275,37472 94276,37472 94277,37472 94279,37472 94280,37472 Z"/>
   </g>
  </g>
  <g class="com.sun.star.drawing.PolyPolygonShape">
   <g id="id14">
    <rect class="BoundingBox" stroke="none" fill="none" x="94952" y="37792" width="372" height="292"/>
    <path fill="rgb(255,255,255)" stroke="none" d="M 94984,38082 L 95290,38082 95292,38082 95293,38082 95295,38081 95297,38081 95298,38081 95300,38080 95301,38080 95302,38079 95304,38079 95305,38078 95306,38077 95308,38077 95309,38076 95310,38075 95311,38074 95313,38073 95314,38072 95315,38070 95316,38069 95316,38068 95317,38067 95318,38065 95319,38064 95319,38063 95320,38061 95320,38060 95321,38058 95321,38057 95321,38055 95322,38054 95322,38052 95322,38050 95322,37825 95322,37823 95322,37822 95321,37820 95321,37818 95321,37817 95320,37815 95320,37814 95319,37812 95319,37811 95318,37810 95317,37809 95316,37807 95316,37806 95315,37805 95314,37803 95313,37802 95311,37801 95310,37800 95309,37799 95308,37799 95306,37798 95305,37797 95304,37796 95302,37796 95301,37795 95300,37795 95298,37794 95297,37794 95295,37794 95293,37793 95292,37793 95290,37793 94984,37793 94983,37793 94981,37793 94980,37794 94978,37794 94976,37794 94975,37795 94974,37795 94972,37796 94971,37796 94969,37797 94968,37798 94967,37799 94965,37799 94964,37800 94963,37801 94962,37802 94961,37803 94960,37805 94959,37806 94958,37807 94957,37809 94957,37810 94956,37811 94955,37812 94955,37814 94954,37815 94954,37817 94953,37818 94953,37820 94953,37822 94953,37823 94953,37825 94953,38051 94953,38052 94953,38054 94953,38055 94953,38057 94954,38058 94954,38060 94955,38061 94955,38063 94956,38064 94957,38065 94957,38067 94958,38068 94959,38069 94960,38070 94961,38072 94962,38073 94963,38074 94964,38075 94965,38076 94967,38077 94968,38077 94969,38078 94971,38079 94972,38079 94974,38080 94975,38080 94976,38081 94978,38081 94980,38081 94981,38082 94983,38082 94984,38082 Z"/>
    <path fill="none" stroke="rgb(255,255,255)" d="M 94984,38082 L 95290,38082 95292,38082 95293,38082 95295,38081 95297,38081 95298,38081 95300,38080 95301,38080 95302,38079 95304,38079 95305,38078 95306,38077 95308,38077 95309,38076 95310,38075 95311,38074 95313,38073 95314,38072 95315,38070 95316,38069 95316,38068 95317,38067 95318,38065 95319,38064 95319,38063 95320,38061 95320,38060 95321,38058 95321,38057 95321,38055 95322,38054 95322,38052 95322,38050 95322,37825 95322,37823 95322,37822 95321,37820 95321,37818 95321,37817 95320,37815 95320,37814 95319,37812 95319,37811 95318,37810 95317,37809 95316,37807 95316,37806 95315,37805 95314,37803 95313,37802 95311,37801 95310,37800 95309,37799 95308,37799 95306,37798 95305,37797 95304,37796 95302,37796 95301,37795 95300,37795 95298,37794 95297,37794 95295,37794 95293,37793 95292,37793 95290,37793 94984,37793 94983,37793 94981,37793 94980,37794 94978,37794 94976,37794 94975,37795 94974,37795 94972,37796 94971,37796 94969,37797 94968,37798 94967,37799 94965,37799 94964,37800 94963,37801 94962,37802 94961,37803 94960,37805 94959,37806 94958,37807 94957,37809 94957,37810 94956,37811 94955,37812 94955,37814 94954,37815 94954,37817 94953,37818 94953,37820 94953,37822 94953,37823 94953,37825 94953,38051 94953,38052 94953,38054 94953,38055 94953,38057 94954,38058 94954,38060 94955,38061 94955,38063 94956,38064 94957,38065 94957,38067 94958,38068 94959,38069 94960,38070 94961,38072 94962,38073 94963,38074 94964,38075 94965,38076 94967,38077 94968,38077 94969,38078 94971,38079 94972,38079 94974,38080 94975,38080 94976,38081 94978,38081 94980,38081 94981,38082 94983,38082 94984,38082 Z"/>
   </g>
  </g>
  <g class="com.sun.star.drawing.PolyPolygonShape">
   <g id="id15">
    <rect class="BoundingBox" stroke="none" fill="none" x="94971" y="37811" width="334" height="254"/>
    <path fill="rgb(0,0,255)" stroke="none" d="M 94984,38063 L 95290,38063 95292,38063 95293,38063 95294,38063 95295,38062 95296,38062 95297,38061 95298,38060 95299,38059 95300,38058 95301,38057 95301,38056 95302,38055 95302,38054 95303,38053 95303,38052 95303,38050 95303,37825 95303,37823 95303,37822 95302,37821 95302,37820 95301,37819 95301,37818 95300,37817 95299,37816 95298,37815 95297,37814 95296,37814 95295,37813 95294,37812 95293,37812 95292,37812 95290,37812 94984,37812 94983,37812 94982,37812 94980,37812 94979,37813 94978,37814 94977,37814 94976,37815 94975,37816 94975,37817 94974,37818 94973,37819 94973,37820 94972,37821 94972,37822 94972,37823 94972,37825 94972,38051 94972,38052 94972,38053 94972,38054 94973,38055 94973,38056 94974,38057 94975,38058 94975,38059 94976,38060 94977,38061 94978,38062 94979,38062 94980,38063 94982,38063 94983,38063 94984,38063 Z"/>
    <path fill="none" stroke="rgb(0,0,255)" d="M 94984,38063 L 95290,38063 95292,38063 95293,38063 95294,38063 95295,38062 95296,38062 95297,38061 95298,38060 95299,38059 95300,38058 95301,38057 95301,38056 95302,38055 95302,38054 95303,38053 95303,38052 95303,38050 95303,37825 95303,37823 95303,37822 95302,37821 95302,37820 95301,37819 95301,37818 95300,37817 95299,37816 95298,37815 95297,37814 95296,37814 95295,37813 95294,37812 95293,37812 95292,37812 95290,37812 94984,37812 94983,37812 94982,37812 94980,37812 94979,37813 94978,37814 94977,37814 94976,37815 94975,37816 94975,37817 94974,37818 94973,37819 94973,37820 94972,37821 94972,37822 94972,37823 94972,37825 94972,38051 94972,38052 94972,38053 94972,38054 94973,38055 94973,38056 94974,38057 94975,38058 94975,38059 94976,38060 94977,38061 94978,38062 94979,38062 94980,38063 94982,38063 94983,38063 94984,38063 Z"/>
   </g>
  </g>
  <g class="com.sun.star.drawing.PolyPolygonShape">
   <g id="id16">
    <rect class="BoundingBox" stroke="none" fill="none" x="93677" y="37792" width="372" height="292"/>
    <path fill="rgb(255,255,255)" stroke="none" d="M 93709,38082 L 94016,38082 94017,38082 94019,38082 94020,38081 94022,38081 94023,38081 94025,38080 94026,38080 94027,38079 94029,38079 94030,38078 94032,38077 94033,38077 94034,38076 94035,38075 94037,38074 94038,38073 94039,38072 94040,38070 94041,38069 94042,38068 94043,38067 94043,38065 94044,38064 94044,38063 94045,38061 94046,38060 94046,38058 94046,38057 94046,38055 94047,38054 94047,38052 94047,38050 94047,37825 94047,37823 94047,37822 94046,37820 94046,37818 94046,37817 94046,37815 94045,37814 94044,37812 94044,37811 94043,37810 94043,37809 94042,37807 94041,37806 94040,37805 94039,37803 94038,37802 94037,37801 94035,37800 94034,37799 94033,37799 94032,37798 94030,37797 94029,37796 94027,37796 94026,37795 94025,37795 94023,37794 94022,37794 94020,37794 94019,37793 94017,37793 94016,37793 93709,37793 93708,37793 93706,37793 93705,37794 93703,37794 93702,37794 93700,37795 93699,37795 93697,37796 93696,37796 93694,37797 93693,37798 93692,37799 93691,37799 93689,37800 93688,37801 93687,37802 93686,37803 93685,37805 93684,37806 93683,37807 93682,37809 93682,37810 93681,37811 93681,37812 93680,37814 93679,37815 93679,37817 93679,37818 93678,37820 93678,37822 93678,37823 93678,37825 93678,38051 93678,38052 93678,38054 93678,38055 93679,38057 93679,38058 93679,38060 93680,38061 93681,38063 93681,38064 93682,38065 93682,38067 93683,38068 93684,38069 93685,38070 93686,38072 93687,38073 93688,38074 93689,38075 93691,38076 93692,38077 93693,38077 93694,38078 93696,38079 93697,38079 93699,38080 93700,38080 93702,38081 93703,38081 93705,38081 93706,38082 93708,38082 93709,38082 Z"/>
    <path fill="none" stroke="rgb(255,255,255)" d="M 93709,38082 L 94016,38082 94017,38082 94019,38082 94020,38081 94022,38081 94023,38081 94025,38080 94026,38080 94027,38079 94029,38079 94030,38078 94032,38077 94033,38077 94034,38076 94035,38075 94037,38074 94038,38073 94039,38072 94040,38070 94041,38069 94042,38068 94043,38067 94043,38065 94044,38064 94044,38063 94045,38061 94046,38060 94046,38058 94046,38057 94046,38055 94047,38054 94047,38052 94047,38050 94047,37825 94047,37823 94047,37822 94046,37820 94046,37818 94046,37817 94046,37815 94045,37814 94044,37812 94044,37811 94043,37810 94043,37809 94042,37807 94041,37806 94040,37805 94039,37803 94038,37802 94037,37801 94035,37800 94034,37799 94033,37799 94032,37798 94030,37797 94029,37796 94027,37796 94026,37795 94025,37795 94023,37794 94022,37794 94020,37794 94019,37793 94017,37793 94016,37793 93709,37793 93708,37793 93706,37793 93705,37794 93703,37794 93702,37794 93700,37795 93699,37795 93697,37796 93696,37796 93694,37797 93693,37798 93692,37799 93691,37799 93689,37800 93688,37801 93687,37802 93686,37803 93685,37805 93684,37806 93683,37807 93682,37809 93682,37810 93681,37811 93681,37812 93680,37814 93679,37815 93679,37817 93679,37818 93678,37820 93678,37822 93678,37823 93678,37825 93678,38051 93678,38052 93678,38054 93678,38055 93679,38057 93679,38058 93679,38060 93680,38061 93681,38063 93681,38064 93682,38065 93682,38067 93683,38068 93684,38069 93685,38070 93686,38072 93687,38073 93688,38074 93689,38075 93691,38076 93692,38077 93693,38077 93694,38078 93696,38079 93697,38079 93699,38080 93700,38080 93702,38081 93703,38081 93705,38081 93706,38082 93708,38082 93709,38082 Z"/>
   </g>
  </g>
  <g class="com.sun.star.drawing.PolyPolygonShape">
   <g id="id17">
    <rect class="BoundingBox" stroke="none" fill="none" x="93696" y="37811" width="334" height="254"/>
    <path fill="rgb(0,0,255)" stroke="none" d="M 93709,38063 L 94016,38063 94017,38063 94018,38063 94019,38063 94020,38062 94022,38062 94022,38061 94024,38060 94024,38059 94025,38058 94026,38057 94027,38056 94027,38055 94027,38054 94028,38053 94028,38052 94028,38050 94028,37825 94028,37823 94028,37822 94027,37821 94027,37820 94027,37819 94026,37818 94025,37817 94024,37816 94024,37815 94022,37814 94020,37813 94019,37812 94018,37812 94017,37812 94016,37812 93709,37812 93708,37812 93707,37812 93706,37812 93705,37813 93703,37814 93702,37814 93701,37815 93700,37816 93700,37817 93699,37818 93698,37819 93698,37820 93697,37821 93697,37822 93697,37823 93697,37825 93697,38051 93697,38052 93697,38053 93697,38054 93698,38055 93698,38056 93699,38057 93700,38058 93700,38059 93701,38060 93702,38061 93703,38062 93705,38062 93706,38063 93707,38063 93708,38063 93709,38063 Z"/>
    <path fill="none" stroke="rgb(0,0,255)" d="M 93709,38063 L 94016,38063 94017,38063 94018,38063 94019,38063 94020,38062 94022,38062 94022,38061 94024,38060 94024,38059 94025,38058 94026,38057 94027,38056 94027,38055 94027,38054 94028,38053 94028,38052 94028,38050 94028,37825 94028,37823 94028,37822 94027,37821 94027,37820 94027,37819 94026,37818 94025,37817 94024,37816 94024,37815 94022,37814 94020,37813 94019,37812 94018,37812 94017,37812 94016,37812 93709,37812 93708,37812 93707,37812 93706,37812 93705,37813 93703,37814 93702,37814 93701,37815 93700,37816 93700,37817 93699,37818 93698,37819 93698,37820 93697,37821 93697,37822 93697,37823 93697,37825 93697,38051 93697,38052 93697,38053 93697,38054 93698,38055 93698,38056 93699,38057 93700,38058 93700,38059 93701,38060 93702,38061 93703,38062 93705,38062 93706,38063 93707,38063 93708,38063 93709,38063 Z"/>
   </g>
  </g>
 </g>
</svg>