<?xml version="1.0" encoding="UTF-8"?>
<!DOCTYPE svg PUBLIC "-//W3C//DTD SVG 1.1//EN" "http://www.w3.org/Graphics/SVG/1.1/DTD/svg11.dtd">
<svg version="1.2" width="32.17mm" height="25.03mm" viewBox="96292 36499 3217 2503" preserveAspectRatio="xMidYMid" fill-rule="evenodd" stroke-width="28.222" stroke-linejoin="round" xmlns="http://www.w3.org/2000/svg" xmlns:ooo="http://xml.openoffice.org/svg/export" xmlns:xlink="http://www.w3.org/1999/xlink" xmlns:presentation="http://sun.com/xmlns/staroffice/presentation" xmlns:smil="http://www.w3.org/2001/SMIL20/" xmlns:anim="urn:oasis:names:tc:opendocument:xmlns:animation:1.0" xml:space="preserve">
 <defs class="EmbeddedBulletChars">
  <g id="bullet-char-template-57356" transform="scale(0.00048828125,-0.00048828125)">
   <path d="M 580,1141 L 1163,571 580,0 -4,571 580,1141 Z"/>
  </g>
  <g id="bullet-char-template-57354" transform="scale(0.00048828125,-0.00048828125)">
   <path d="M 8,1128 L 1137,1128 1137,0 8,0 8,1128 Z"/>
  </g>
  <g id="bullet-char-template-10146" transform="scale(0.00048828125,-0.00048828125)">
   <path d="M 174,0 L 602,739 174,1481 1456,739 174,0 Z M 1358,739 L 309,1346 659,739 1358,739 Z"/>
  </g>
  <g id="bullet-char-template-10132" transform="scale(0.00048828125,-0.00048828125)">
   <path d="M 2015,739 L 1276,0 717,0 1260,543 174,543 174,936 1260,936 717,1481 1274,1481 2015,739 Z"/>
  </g>
  <g id="bullet-char-template-10007" transform="scale(0.00048828125,-0.00048828125)">
   <path d="M 0,-2 C -7,14 -16,27 -25,37 L 356,567 C 262,823 215,952 215,954 215,979 228,992 255,992 264,992 276,990 289,987 310,991 331,999 354,1012 L 381,999 492,748 772,1049 836,1024 860,1049 C 881,1039 901,1025 922,1006 886,937 835,863 770,784 769,783 710,716 594,584 L 774,223 C 774,196 753,168 711,139 L 727,119 C 717,90 699,76 672,76 641,76 570,178 457,381 L 164,-76 C 142,-110 111,-127 72,-127 30,-127 9,-110 8,-76 1,-67 -2,-52 -2,-32 -2,-23 -1,-13 0,-2 Z"/>
  </g>
  <g id="bullet-char-template-10004" transform="scale(0.00048828125,-0.00048828125)">
   <path d="M 285,-33 C 182,-33 111,30 74,156 52,228 41,333 41,471 41,549 55,616 82,672 116,743 169,778 240,778 293,778 328,747 346,684 L 369,508 C 377,444 397,411 428,410 L 1163,1116 C 1174,1127 1196,1133 1229,1133 1271,1133 1292,1118 1292,1087 L 1292,965 C 1292,929 1282,901 1262,881 L 442,47 C 390,-6 338,-33 285,-33 Z"/>
  </g>
  <g id="bullet-char-template-9679" transform="scale(0.00048828125,-0.00048828125)">
   <path d="M 813,0 C 632,0 489,54 383,161 276,268 223,411 223,592 223,773 276,916 383,1023 489,1130 632,1184 813,1184 992,1184 1136,1130 1245,1023 1353,916 1407,772 1407,592 1407,412 1353,268 1245,161 1136,54 992,0 813,0 Z"/>
  </g>
  <g id="bullet-char-template-8226" transform="scale(0.00048828125,-0.00048828125)">
   <path d="M 346,457 C 273,457 209,483 155,535 101,586 74,649 74,723 74,796 101,859 155,911 209,963 273,989 346,989 419,989 480,963 531,910 582,859 608,796 608,723 608,648 583,586 532,535 482,483 420,457 346,457 Z"/>
  </g>
  <g id="bullet-char-template-8211" transform="scale(0.00048828125,-0.00048828125)">
   <path d="M -4,459 L 1135,459 1135,606 -4,606 -4,459 Z"/>
  </g>
  <g id="bullet-char-template-61548" transform="scale(0.00048828125,-0.00048828125)">
   <path d="M 173,740 C 173,903 231,1043 346,1159 462,1274 601,1332 765,1332 928,1332 1067,1274 1183,1159 1299,1043 1357,903 1357,740 1357,577 1299,437 1183,322 1067,206 928,148 765,148 601,148 462,206 346,322 231,437 173,577 173,740 Z"/>
  </g>
 </defs>
 <g class="Page">
  <g class="com.sun.star.drawing.PolyPolygonShape">
   <g id="id3">
    <rect class="BoundingBox" stroke="none" fill="none" x="96292" y="36499" width="3217" height="2503"/>
    <path fill="rgb(0,0,255)" stroke="none" d="M 96386,39000 L 99414,39000 99416,39000 99419,39000 99421,39000 99423,39000 99425,39000 99428,38999 99430,38999 99432,38998 99434,38998 99437,38998 99439,38997 99441,38996 99443,38996 99445,38995 99447,38994 99450,38993 99452,38992 99454,38991 99456,38990 99458,38989 99460,38988 99462,38987 99464,38986 99466,38985 99467,38983 99469,38982 99471,38981 99473,38979 99475,38978 99476,38976 99478,38975 99480,38973 99481,38971 99483,38970 99484,38968 99486,38966 99487,38965 99489,38963 99490,38961 99491,38959 99493,38957 99494,38955 99495,38953 99496,38951 99497,38949 99498,38947 99499,38945 99500,38943 99501,38941 99501,38939 99502,38936 99503,38934 99504,38932 99504,38930 99505,38928 99505,38926 99505,38923 99506,38921 99506,38919 99507,38916 99507,38914 99507,38912 99507,38910 99507,38907 99507,36592 99507,36590 99507,36588 99507,36585 99507,36583 99506,36581 99506,36579 99505,36576 99505,36574 99505,36572 99504,36570 99504,36568 99503,36565 99502,36563 99501,36561 99501,36559 99500,36557 99499,36555 99498,36553 99497,36551 99496,36549 99495,36547 99494,36545 99493,36543 99491,36541 99490,36539 99489,36537 99487,36535 99486,36533 99484,36532 99483,36530 99481,36528 99480,36527 99478,36525 99476,36523 99475,36522 99473,36520 99471,36519 99469,36518 99467,36516 99466,36515 99464,36514 99462,36513 99460,36511 99458,36510 99456,36509 99454,36508 99452,36507 99450,36507 99447,36506 99445,36505 99443,36504 99441,36503 99439,36503 99437,36502 99434,36502 99432,36501 99430,36501 99428,36500 99425,36500 99423,36500 99421,36500 99419,36500 99416,36500 99414,36500 96386,36500 96383,36500 96381,36500 96379,36500 96377,36500 96374,36500 96372,36500 96370,36501 96368,36501 96365,36502 96363,36502 96361,36503 96359,36503 96357,36504 96354,36505 96352,36506 96350,36507 96348,36507 96346,36508 96344,36509 96342,36510 96340,36511 96338,36513 96336,36514 96334,36515 96332,36516 96330,36518 96329,36519 96327,36520 96325,36522 96323,36523 96322,36525 96320,36527 96318,36528 96317,36530 96315,36532 96314,36533 96312,36535 96311,36537 96310,36539 96309,36541 96307,36543 96306,36545 96305,36547 96304,36549 96303,36551 96302,36553 96301,36555 96300,36557 96299,36559 96298,36561 96298,36563 96297,36565 96296,36568 96296,36570 96295,36572 96295,36574 96294,36576 96294,36579 96294,36581 96293,36583 96293,36585 96293,36588 96293,36590 96293,36592 96293,38907 96293,38910 96293,38912 96293,38914 96293,38916 96294,38919 96294,38921 96294,38923 96295,38926 96295,38928 96296,38930 96296,38932 96297,38934 96298,38936 96298,38939 96299,38941 96300,38943 96301,38945 96302,38947 96303,38949 96304,38951 96305,38953 96306,38955 96307,38957 96309,38959 96310,38961 96311,38963 96312,38965 96314,38966 96315,38968 96317,38970 96318,38971 96320,38973 96322,38975 96323,38976 96325,38978 96327,38979 96329,38981 96330,38982 96332,38983 96334,38985 96336,38986 96338,38987 96340,38988 96342,38989 96344,38990 96346,38991 96348,38992 96350,38993 96352,38994 96354,38995 96357,38996 96359,38996 96361,38997 96363,38998 96365,38998 96368,38998 96370,38999 96372,38999 96374,39000 96377,39000 96379,39000 96381,39000 96383,39000 96386,39000 Z"/>
    <path fill="none" stroke="rgb(0,0,255)" d="M 96386,39000 L 99414,39000 99416,39000 99419,39000 99421,39000 99423,39000 99425,39000 99428,38999 99430,38999 99432,38998 99434,38998 99437,38998 99439,38997 99441,38996 99443,38996 99445,38995 99447,38994 99450,38993 99452,38992 99454,38991 99456,38990 99458,38989 99460,38988 99462,38987 99464,38986 99466,38985 99467,38983 99469,38982 99471,38981 99473,38979 99475,38978 99476,38976 99478,38975 99480,38973 99481,38971 99483,38970 99484,38968 99486,38966 99487,38965 99489,38963 99490,38961 99491,38959 99493,38957 99494,38955 99495,38953 99496,38951 99497,38949 99498,38947 99499,38945 99500,38943 99501,38941 99501,38939 99502,38936 99503,38934 99504,38932 99504,38930 99505,38928 99505,38926 99505,38923 99506,38921 99506,38919 99507,38916 99507,38914 99507,38912 99507,38910 99507,38907 99507,36592 99507,36590 99507,36588 99507,36585 99507,36583 99506,36581 99506,36579 99505,36576 99505,36574 99505,36572 99504,36570 99504,36568 99503,36565 99502,36563 99501,36561 99501,36559 99500,36557 99499,36555 99498,36553 99497,36551 99496,36549 99495,36547 99494,36545 99493,36543 99491,36541 99490,36539 99489,36537 99487,36535 99486,36533 99484,36532 99483,36530 99481,36528 99480,36527 99478,36525 99476,36523 99475,36522 99473,36520 99471,36519 99469,36518 99467,36516 99466,36515 99464,36514 99462,36513 99460,36511 99458,36510 99456,36509 99454,36508 99452,36507 99450,36507 99447,36506 99445,36505 99443,36504 99441,36503 99439,36503 99437,36502 99434,36502 99432,36501 99430,36501 99428,36500 99425,36500 99423,36500 99421,36500 99419,36500 99416,36500 99414,36500 96386,36500 96383,36500 96381,36500 96379,36500 96377,36500 96374,36500 96372,36500 96370,36501 96368,36501 96365,36502 96363,36502 96361,36503 96359,36503 96357,36504 96354,36505 96352,36506 96350,36507 96348,36507 96346,36508 96344,36509 96342,36510 96340,36511 96338,36513 96336,36514 96334,36515 96332,36516 96330,36518 96329,36519 96327,36520 96325,36522 96323,36523 96322,36525 96320,36527 96318,36528 96317,36530 96315,36532 96314,36533 96312,36535 96311,36537 96310,36539 96309,36541 96307,36543 96306,36545 96305,36547 96304,36549 96303,36551 96302,36553 96301,36555 96300,36557 96299,36559 96298,36561 96298,36563 96297,36565 96296,36568 96296,36570 96295,36572 96295,36574 96294,36576 96294,36579 96294,36581 96293,36583 96293,36585 96293,36588 96293,36590 96293,36592 96293,38907 96293,38910 96293,38912 96293,38914 96293,38916 96294,38919 96294,38921 96294,38923 96295,38926 96295,38928 96296,38930 96296,38932 96297,38934 96298,38936 96298,38939 96299,38941 96300,38943 96301,38945 96302,38947 96303,38949 96304,38951 96305,38953 96306,38955 96307,38957 96309,38959 96310,38961 96311,38963 96312,38965 96314,38966 96315,38968 96317,38970 96318,38971 96320,38973 96322,38975 96323,38976 96325,38978 96327,38979 96329,38981 96330,38982 96332,38983 96334,38985 96336,38986 96338,38987 96340,38988 96342,38989 96344,38990 96346,38991 96348,38992 96350,38993 96352,38994 96354,38995 96357,38996 96359,38996 96361,38997 96363,38998 96365,38998 96368,38998 96370,38999 96372,38999 96374,39000 96377,39000 96379,39000 96381,39000 96383,39000 96386,39000 Z"/>
   </g>
  </g>
  <g class="com.sun.star.drawing.PolyPolygonShape">
   <g id="id4">
    <rect class="BoundingBox" stroke="none" fill="none" x="96313" y="36520" width="3174" height="2461"/>
    <path fill="rgb(255,255,255)" stroke="none" d="M 96386,38979 L 99414,38979 99416,38979 99418,38979 99419,38979 99421,38979 99423,38978 99424,38978 99426,38978 99428,38978 99430,38977 99431,38977 99433,38976 99435,38976 99436,38975 99438,38975 99440,38974 99441,38973 99443,38973 99445,38972 99446,38971 99448,38970 99449,38970 99451,38969 99452,38968 99454,38967 99455,38966 99457,38965 99458,38964 99459,38963 99461,38961 99462,38960 99463,38959 99464,38958 99466,38957 99467,38955 99468,38954 99469,38953 99470,38951 99471,38950 99472,38948 99474,38947 99474,38946 99475,38944 99476,38943 99477,38941 99478,38940 99479,38938 99479,38936 99480,38935 99481,38933 99481,38932 99482,38930 99482,38928 99483,38927 99483,38925 99484,38923 99484,38921 99484,38920 99485,38918 99485,38916 99485,38915 99485,38913 99485,38911 99485,38909 99485,38907 99485,36592 99485,36591 99485,36589 99485,36587 99485,36585 99485,36583 99485,36582 99484,36580 99484,36578 99484,36577 99483,36575 99483,36573 99482,36571 99482,36570 99481,36568 99481,36567 99480,36565 99479,36563 99479,36562 99478,36560 99477,36559 99476,36557 99475,36556 99474,36554 99474,36553 99472,36551 99471,36550 99470,36548 99469,36547 99468,36546 99467,36544 99466,36543 99464,36542 99463,36540 99462,36539 99461,36538 99459,36537 99458,36536 99457,36535 99455,36534 99454,36533 99452,36532 99451,36531 99449,36530 99448,36529 99446,36529 99445,36528 99443,36527 99441,36526 99440,36526 99438,36525 99436,36524 99435,36524 99433,36523 99431,36523 99430,36523 99428,36522 99426,36522 99424,36522 99423,36521 99421,36521 99419,36521 99418,36521 99416,36521 99414,36521 96386,36521 96384,36521 96382,36521 96380,36521 96379,36521 96377,36521 96375,36522 96373,36522 96372,36522 96370,36523 96368,36523 96367,36523 96365,36524 96363,36524 96361,36525 96360,36526 96358,36526 96357,36527 96355,36528 96353,36529 96352,36529 96350,36530 96349,36531 96347,36532 96346,36533 96345,36534 96343,36535 96342,36536 96340,36537 96339,36538 96338,36539 96336,36540 96335,36542 96334,36543 96333,36544 96332,36546 96331,36547 96329,36548 96328,36550 96327,36551 96326,36553 96325,36554 96324,36556 96323,36557 96323,36559 96322,36560 96321,36562 96320,36563 96320,36565 96319,36567 96318,36568 96318,36570 96317,36571 96317,36573 96316,36575 96316,36577 96316,36578 96315,36580 96315,36582 96315,36583 96315,36585 96314,36587 96314,36589 96314,36591 96314,36592 96314,38907 96314,38909 96314,38911 96314,38913 96315,38915 96315,38916 96315,38918 96315,38920 96316,38921 96316,38923 96316,38925 96317,38927 96317,38928 96318,38930 96318,38932 96319,38933 96320,38935 96320,38936 96321,38938 96322,38940 96323,38941 96323,38943 96324,38944 96325,38946 96326,38947 96327,38948 96328,38950 96329,38951 96331,38953 96332,38954 96333,38955 96334,38957 96335,38958 96336,38959 96338,38960 96339,38961 96340,38963 96342,38964 96343,38965 96345,38966 96346,38967 96347,38968 96349,38969 96350,38970 96352,38970 96353,38971 96355,38972 96357,38973 96358,38973 96360,38974 96361,38975 96363,38975 96365,38976 96367,38976 96368,38977 96370,38977 96372,38978 96373,38978 96375,38978 96377,38978 96379,38979 96380,38979 96382,38979 96384,38979 96386,38979 Z"/>
    <path fill="none" stroke="rgb(255,255,255)" d="M 96386,38979 L 99414,38979 99416,38979 99418,38979 99419,38979 99421,38979 99423,38978 99424,38978 99426,38978 99428,38978 99430,38977 99431,38977 99433,38976 99435,38976 99436,38975 99438,38975 99440,38974 99441,38973 99443,38973 99445,38972 99446,38971 99448,38970 99449,38970 99451,38969 99452,38968 99454,38967 99455,38966 99457,38965 99458,38964 99459,38963 99461,38961 99462,38960 99463,38959 99464,38958 99466,38957 99467,38955 99468,38954 99469,38953 99470,38951 99471,38950 99472,38948 99474,38947 99474,38946 99475,38944 99476,38943 99477,38941 99478,38940 99479,38938 99479,38936 99480,38935 99481,38933 99481,38932 99482,38930 99482,38928 99483,38927 99483,38925 99484,38923 99484,38921 99484,38920 99485,38918 99485,38916 99485,38915 99485,38913 99485,38911 99485,38909 99485,38907 99485,36592 99485,36591 99485,36589 99485,36587 99485,36585 99485,36583 99485,36582 99484,36580 99484,36578 99484,36577 99483,36575 99483,36573 99482,36571 99482,36570 99481,36568 99481,36567 99480,36565 99479,36563 99479,36562 99478,36560 99477,36559 99476,36557 99475,36556 99474,36554 99474,36553 99472,36551 99471,36550 99470,36548 99469,36547 99468,36546 99467,36544 99466,36543 99464,36542 99463,36540 99462,36539 99461,36538 99459,36537 99458,36536 99457,36535 99455,36534 99454,36533 99452,36532 99451,36531 99449,36530 99448,36529 99446,36529 99445,36528 99443,36527 99441,36526 99440,36526 99438,36525 99436,36524 99435,36524 99433,36523 99431,36523 99430,36523 99428,36522 99426,36522 99424,36522 99423,36521 99421,36521 99419,36521 99418,36521 99416,36521 99414,36521 96386,36521 96384,36521 96382,36521 96380,36521 96379,36521 96377,36521 96375,36522 96373,36522 96372,36522 96370,36523 96368,36523 96367,36523 96365,36524 96363,36524 96361,36525 96360,36526 96358,36526 96357,36527 96355,36528 96353,36529 96352,36529 96350,36530 96349,36531 96347,36532 96346,36533 96345,36534 96343,36535 96342,36536 96340,36537 96339,36538 96338,36539 96336,36540 96335,36542 96334,36543 96333,36544 96332,36546 96331,36547 96329,36548 96328,36550 96327,36551 96326,36553 96325,36554 96324,36556 96323,36557 96323,36559 96322,36560 96321,36562 96320,36563 96320,36565 96319,36567 96318,36568 96318,36570 96317,36571 96317,36573 96316,36575 96316,36577 96316,36578 96315,36580 96315,36582 96315,36583 96315,36585 96314,36587 96314,36589 96314,36591 96314,36592 96314,38907 96314,38909 96314,38911 96314,38913 96315,38915 96315,38916 96315,38918 96315,38920 96316,38921 96316,38923 96316,38925 96317,38927 96317,38928 96318,38930 96318,38932 96319,38933 96320,38935 96320,38936 96321,38938 96322,38940 96323,38941 96323,38943 96324,38944 96325,38946 96326,38947 96327,38948 96328,38950 96329,38951 96331,38953 96332,38954 96333,38955 96334,38957 96335,38958 96336,38959 96338,38960 96339,38961 96340,38963 96342,38964 96343,38965 96345,38966 96346,38967 96347,38968 96349,38969 96350,38970 96352,38970 96353,38971 96355,38972 96357,38973 96358,38973 96360,38974 96361,38975 96363,38975 96365,38976 96367,38976 96368,38977 96370,38977 96372,38978 96373,38978 96375,38978 96377,38978 96379,38979 96380,38979 96382,38979 96384,38979 96386,38979 Z"/>
   </g>
  </g>
  <g class="com.sun.star.drawing.PolyPolygonShape">
   <g id="id5">
    <rect class="BoundingBox" stroke="none" fill="none" x="96335" y="38175" width="3131" height="785"/>
    <path fill="rgb(0,0,255)" stroke="none" d="M 96386,38958 L 99414,38958 99416,38957 99419,38957 99421,38957 99424,38957 99426,38956 99429,38955 99431,38955 99433,38954 99435,38953 99438,38952 99440,38950 99442,38949 99444,38948 99446,38946 99448,38945 99449,38943 99451,38941 99453,38939 99454,38937 99456,38935 99457,38933 99458,38931 99459,38929 99460,38926 99461,38924 99462,38922 99463,38920 99463,38917 99464,38915 99464,38912 99464,38910 99464,38907 99464,38226 99464,38223 99464,38221 99464,38218 99463,38216 99463,38213 99462,38211 99461,38209 99460,38206 99459,38204 99458,38202 99457,38200 99456,38198 99454,38196 99453,38194 99451,38192 99449,38190 99448,38188 99446,38187 99444,38185 99442,38184 99440,38183 99438,38181 99435,38180 99433,38179 99431,38178 99429,38178 99426,38177 99424,38176 99421,38176 99419,38176 99416,38176 99414,38176 96386,38176 96383,38176 96381,38176 96378,38176 96376,38176 96373,38177 96371,38178 96369,38178 96367,38179 96364,38180 96362,38181 96360,38183 96358,38184 96356,38185 96354,38187 96352,38188 96350,38190 96349,38192 96347,38194 96345,38196 96344,38198 96343,38200 96341,38202 96341,38204 96340,38206 96339,38209 96338,38211 96337,38213 96337,38216 96336,38218 96336,38221 96336,38223 96336,38226 96336,38907 96336,38910 96336,38912 96336,38915 96337,38917 96337,38920 96338,38922 96339,38924 96340,38926 96341,38929 96341,38931 96343,38933 96344,38935 96345,38937 96347,38939 96349,38941 96350,38943 96352,38945 96354,38946 96356,38948 96358,38949 96360,38950 96362,38952 96364,38953 96367,38954 96369,38955 96371,38955 96373,38956 96376,38957 96378,38957 96381,38957 96383,38957 96386,38958 Z"/>
    <path fill="none" stroke="rgb(0,0,255)" d="M 96386,38958 L 99414,38958 99416,38957 99419,38957 99421,38957 99424,38957 99426,38956 99429,38955 99431,38955 99433,38954 99435,38953 99438,38952 99440,38950 99442,38949 99444,38948 99446,38946 99448,38945 99449,38943 99451,38941 99453,38939 99454,38937 99456,38935 99457,38933 99458,38931 99459,38929 99460,38926 99461,38924 99462,38922 99463,38920 99463,38917 99464,38915 99464,38912 99464,38910 99464,38907 99464,38226 99464,38223 99464,38221 99464,38218 99463,38216 99463,38213 99462,38211 99461,38209 99460,38206 99459,38204 99458,38202 99457,38200 99456,38198 99454,38196 99453,38194 99451,38192 99449,38190 99448,38188 99446,38187 99444,38185 99442,38184 99440,38183 99438,38181 99435,38180 99433,38179 99431,38178 99429,38178 99426,38177 99424,38176 99421,38176 99419,38176 99416,38176 99414,38176 96386,38176 96383,38176 96381,38176 96378,38176 96376,38176 96373,38177 96371,38178 96369,38178 96367,38179 96364,38180 96362,38181 96360,38183 96358,38184 96356,38185 96354,38187 96352,38188 96350,38190 96349,38192 96347,38194 96345,38196 96344,38198 96343,38200 96341,38202 96341,38204 96340,38206 96339,38209 96338,38211 96337,38213 96337,38216 96336,38218 96336,38221 96336,38223 96336,38226 96336,38907 96336,38910 96336,38912 96336,38915 96337,38917 96337,38920 96338,38922 96339,38924 96340,38926 96341,38929 96341,38931 96343,38933 96344,38935 96345,38937 96347,38939 96349,38941 96350,38943 96352,38945 96354,38946 96356,38948 96358,38949 96360,38950 96362,38952 96364,38953 96367,38954 96369,38955 96371,38955 96373,38956 96376,38957 96378,38957 96381,38957 96383,38957 96386,38958 Z"/>
   </g>
  </g>
  <g class="com.sun.star.drawing.PolyPolygonShape">
   <g id="id6">
    <rect class="BoundingBox" stroke="none" fill="none" x="96335" y="37358" width="3131" height="785"/>
    <path fill="rgb(0,0,255)" stroke="none" d="M 96386,38141 L 99414,38141 99416,38141 99419,38141 99421,38140 99424,38140 99426,38139 99429,38139 99431,38138 99433,38137 99435,38136 99438,38135 99440,38134 99442,38132 99444,38131 99446,38129 99448,38128 99449,38126 99451,38124 99453,38123 99454,38121 99456,38119 99457,38116 99458,38115 99459,38112 99460,38110 99461,38108 99462,38105 99463,38103 99463,38101 99464,38098 99464,38096 99464,38093 99464,38091 99464,37409 99464,37407 99464,37404 99464,37402 99463,37399 99463,37397 99462,37394 99461,37392 99460,37390 99459,37387 99458,37385 99457,37383 99456,37381 99454,37379 99453,37377 99451,37375 99449,37373 99448,37372 99446,37370 99444,37369 99442,37367 99440,37366 99438,37365 99435,37364 99433,37363 99431,37362 99429,37361 99426,37360 99424,37360 99421,37359 99419,37359 99416,37359 99414,37359 96386,37359 96383,37359 96381,37359 96378,37359 96376,37360 96373,37360 96371,37361 96369,37362 96367,37363 96364,37364 96362,37365 96360,37366 96358,37367 96356,37369 96354,37370 96352,37372 96350,37373 96349,37375 96347,37377 96345,37379 96344,37381 96343,37383 96341,37385 96341,37387 96340,37390 96339,37392 96338,37394 96337,37397 96337,37399 96336,37402 96336,37404 96336,37407 96336,37409 96336,38091 96336,38093 96336,38096 96336,38098 96337,38101 96337,38103 96338,38105 96339,38108 96340,38110 96341,38112 96341,38115 96343,38116 96344,38119 96345,38121 96347,38123 96349,38124 96350,38126 96352,38128 96354,38129 96356,38131 96358,38132 96360,38134 96362,38135 96364,38136 96367,38137 96369,38138 96371,38139 96373,38139 96376,38140 96378,38140 96381,38141 96383,38141 96386,38141 Z"/>
    <path fill="none" stroke="rgb(0,0,255)" d="M 96386,38141 L 99414,38141 99416,38141 99419,38141 99421,38140 99424,38140 99426,38139 99429,38139 99431,38138 99433,38137 99435,38136 99438,38135 99440,38134 99442,38132 99444,38131 99446,38129 99448,38128 99449,38126 99451,38124 99453,38123 99454,38121 99456,38119 99457,38116 99458,38115 99459,38112 99460,38110 99461,38108 99462,38105 99463,38103 99463,38101 99464,38098 99464,38096 99464,38093 99464,38091 99464,37409 99464,37407 99464,37404 99464,37402 99463,37399 99463,37397 99462,37394 99461,37392 99460,37390 99459,37387 99458,37385 99457,37383 99456,37381 99454,37379 99453,37377 99451,37375 99449,37373 99448,37372 99446,37370 99444,37369 99442,37367 99440,37366 99438,37365 99435,37364 99433,37363 99431,37362 99429,37361 99426,37360 99424,37360 99421,37359 99419,37359 99416,37359 99414,37359 96386,37359 96383,37359 96381,37359 96378,37359 96376,37360 96373,37360 96371,37361 96369,37362 96367,37363 96364,37364 96362,37365 96360,37366 96358,37367 96356,37369 96354,37370 96352,37372 96350,37373 96349,37375 96347,37377 96345,37379 96344,37381 96343,37383 96341,37385 96341,37387 96340,37390 96339,37392 96338,37394 96337,37397 96337,37399 96336,37402 96336,37404 96336,37407 96336,37409 96336,38091 96336,38093 96336,38096 96336,38098 96337,38101 96337,38103 96338,38105 96339,38108 96340,38110 96341,38112 96341,38115 96343,38116 96344,38119 96345,38121 96347,38123 96349,38124 96350,38126 96352,38128 96354,38129 96356,38131 96358,38132 96360,38134 96362,38135 96364,38136 96367,38137 96369,38138 96371,38139 96373,38139 96376,38140 96378,38140 96381,38141 96383,38141 96386,38141 Z"/>
   </g>
  </g>
  <g class="com.sun.star.drawing.PolyPolygonShape">
   <g id="id7">
    <rect class="BoundingBox" stroke="none" fill="none" x="96335" y="36541" width="3131" height="785"/>
    <path fill="rgb(0,0,255)" stroke="none" d="M 96386,37324 L 99414,37324 99416,37324 99419,37324 99421,37324 99424,37323 99426,37323 99429,37322 99431,37321 99433,37320 99435,37319 99438,37318 99440,37317 99442,37316 99444,37314 99446,37313 99448,37311 99449,37310 99451,37308 99453,37306 99454,37304 99456,37302 99457,37300 99458,37298 99459,37296 99460,37293 99461,37291 99462,37289 99463,37286 99463,37284 99464,37281 99464,37279 99464,37277 99464,37274 99464,36592 99464,36590 99464,36587 99464,36585 99463,36582 99463,36580 99462,36578 99461,36575 99460,36573 99459,36571 99458,36569 99457,36567 99456,36564 99454,36562 99453,36560 99451,36559 99449,36557 99448,36555 99446,36554 99444,36552 99442,36551 99440,36549 99438,36548 99435,36547 99433,36546 99431,36545 99429,36544 99426,36544 99424,36543 99421,36543 99419,36542 99416,36542 99414,36542 96386,36542 96383,36542 96381,36542 96378,36543 96376,36543 96373,36544 96371,36544 96369,36545 96367,36546 96364,36547 96362,36548 96360,36549 96358,36551 96356,36552 96354,36554 96352,36555 96350,36557 96349,36559 96347,36560 96345,36562 96344,36564 96343,36567 96341,36569 96341,36571 96340,36573 96339,36575 96338,36578 96337,36580 96337,36582 96336,36585 96336,36587 96336,36590 96336,36592 96336,37274 96336,37277 96336,37279 96336,37281 96337,37284 96337,37286 96338,37289 96339,37291 96340,37293 96341,37296 96341,37298 96343,37300 96344,37302 96345,37304 96347,37306 96349,37308 96350,37310 96352,37311 96354,37313 96356,37314 96358,37316 96360,37317 96362,37318 96364,37319 96367,37320 96369,37321 96371,37322 96373,37323 96376,37323 96378,37324 96381,37324 96383,37324 96386,37324 Z"/>
    <path fill="none" stroke="rgb(0,0,255)" d="M 96386,37324 L 99414,37324 99416,37324 99419,37324 99421,37324 99424,37323 99426,37323 99429,37322 99431,37321 99433,37320 99435,37319 99438,37318 99440,37317 99442,37316 99444,37314 99446,37313 99448,37311 99449,37310 99451,37308 99453,37306 99454,37304 99456,37302 99457,37300 99458,37298 99459,37296 99460,37293 99461,37291 99462,37289 99463,37286 99463,37284 99464,37281 99464,37279 99464,37277 99464,37274 99464,36592 99464,36590 99464,36587 99464,36585 99463,36582 99463,36580 99462,36578 99461,36575 99460,36573 99459,36571 99458,36569 99457,36567 99456,36564 99454,36562 99453,36560 99451,36559 99449,36557 99448,36555 99446,36554 99444,36552 99442,36551 99440,36549 99438,36548 99435,36547 99433,36546 99431,36545 99429,36544 99426,36544 99424,36543 99421,36543 99419,36542 99416,36542 99414,36542 96386,36542 96383,36542 96381,36542 96378,36543 96376,36543 96373,36544 96371,36544 96369,36545 96367,36546 96364,36547 96362,36548 96360,36549 96358,36551 96356,36552 96354,36554 96352,36555 96350,36557 96349,36559 96347,36560 96345,36562 96344,36564 96343,36567 96341,36569 96341,36571 96340,36573 96339,36575 96338,36578 96337,36580 96337,36582 96336,36585 96336,36587 96336,36590 96336,36592 96336,37274 96336,37277 96336,37279 96336,37281 96337,37284 96337,37286 96338,37289 96339,37291 96340,37293 96341,37296 96341,37298 96343,37300 96344,37302 96345,37304 96347,37306 96349,37308 96350,37310 96352,37311 96354,37313 96356,37314 96358,37316 96360,37317 96362,37318 96364,37319 96367,37320 96369,37321 96371,37322 96373,37323 96376,37323 96378,37324 96381,37324 96383,37324 96386,37324 Z"/>
   </g>
  </g>
  <g class="com.sun.star.drawing.PolyPolygonShape">
   <g id="id8">
    <rect class="BoundingBox" stroke="none" fill="none" x="96511" y="36703" width="461" height="461"/>
    <path fill="rgb(255,255,255)" stroke="none" d="M 96683,37162 L 96798,37162 96798,36934 96970,36934 96741,36704 96512,36934 96683,36934 96683,37162 Z"/>
    <path fill="none" stroke="rgb(255,255,255)" d="M 96683,37162 L 96798,37162 96798,36934 96970,36934 96741,36704 96512,36934 96683,36934 96683,37162 Z"/>
   </g>
  </g>
  <g class="com.sun.star.drawing.PolyPolygonShape">
   <g id="id9">
    <rect class="BoundingBox" stroke="none" fill="none" x="96511" y="37520" width="461" height="461"/>
    <path fill="rgb(255,255,255)" stroke="none" d="M 96970,37807 L 96970,37693 96741,37693 96741,37521 96512,37750 96741,37979 96741,37807 96970,37807 Z"/>
    <path fill="none" stroke="rgb(255,255,255)" d="M 96970,37807 L 96970,37693 96741,37693 96741,37521 96512,37750 96741,37979 96741,37807 96970,37807 Z"/>
   </g>
  </g>
  <g class="com.sun.star.drawing.PolyPolygonShape">
   <g id="id10">
    <rect class="BoundingBox" stroke="none" fill="none" x="98829" y="38336" width="460" height="462"/>
    <path fill="rgb(255,255,255)" stroke="none" d="M 98830,38509 L 98830,38624 99058,38624 99058,38796 99287,38566 99058,38337 99058,38509 98830,38509 Z"/>
    <path fill="none" stroke="rgb(255,255,255)" d="M 98830,38509 L 98830,38624 99058,38624 99058,38796 99287,38566 99058,38337 99058,38509 98830,38509 Z"/>
   </g>
  </g>
  <g class="com.sun.star.drawing.PolyPolygonShape">
   <g id="id11">
    <rect class="BoundingBox" stroke="none" fill="none" x="98975" y="36740" width="314" height="388"/>
    <path fill="rgb(255,255,255)" stroke="none" d="M 99017,37127 L 99245,37127 99247,37127 99249,37126 99251,37126 99253,37126 99255,37125 99257,37125 99259,37124 99261,37123 99263,37122 99265,37121 99267,37121 99268,37119 99270,37118 99272,37117 99274,37115 99275,37114 99277,37112 99278,37111 99279,37109 99280,37108 99281,37106 99283,37104 99283,37102 99284,37100 99285,37098 99286,37096 99286,37094 99287,37092 99287,37090 99287,37088 99288,37086 99288,37084 99288,36784 99288,36782 99287,36780 99287,36777 99287,36775 99286,36773 99286,36771 99285,36769 99284,36766 99283,36764 99283,36762 99281,36761 99280,36759 99279,36757 99278,36756 99277,36754 99275,36752 99274,36751 99272,36750 99270,36748 99268,36747 99267,36746 99265,36745 99263,36744 99261,36743 99259,36742 99257,36742 99255,36741 99253,36741 99251,36740 99249,36740 99247,36740 99245,36740 99017,36740 99015,36740 99013,36740 99011,36740 99009,36741 99007,36741 99005,36742 99003,36742 99001,36743 98999,36744 98997,36745 98995,36746 98994,36747 98992,36748 98990,36750 98988,36751 98987,36752 98985,36754 98984,36756 98983,36757 98982,36759 98981,36761 98979,36762 98979,36764 98978,36766 98977,36769 98976,36771 98976,36773 98975,36775 98975,36777 98975,36780 98975,36782 98975,36784 98975,37084 98975,37086 98975,37088 98975,37090 98975,37092 98976,37094 98976,37096 98977,37098 98978,37100 98979,37102 98979,37104 98981,37106 98982,37108 98983,37109 98984,37111 98985,37112 98987,37114 98988,37115 98990,37117 98992,37118 98994,37119 98995,37121 98997,37121 98999,37122 99001,37123 99003,37124 99005,37125 99007,37125 99009,37126 99011,37126 99013,37126 99015,37127 99017,37127 Z"/>
   </g>
  </g>
  <g class="com.sun.star.drawing.PolyPolygonShape">
   <g id="id12">
    <rect class="BoundingBox" stroke="none" fill="none" x="98974" y="36739" width="316" height="390"/>
    <path fill="none" stroke="rgb(255,255,255)" d="M 99017,37127 L 99245,37127 99247,37127 99249,37126 99251,37126 99253,37126 99255,37125 99257,37125 99259,37124 99261,37123 99263,37122 99265,37121 99267,37121 99268,37119 99270,37118 99272,37117 99274,37115 99275,37114 99277,37112 99278,37111 99279,37109 99280,37108 99281,37106 99283,37104 99283,37102 99284,37100 99285,37098 99286,37096 99286,37094 99287,37092 99287,37090 99287,37088 99288,37086 99288,37084 99288,36784 99288,36782 99287,36780 99287,36777 99287,36775 99286,36773 99286,36771 99285,36769 99284,36766 99283,36764 99283,36762 99281,36761 99280,36759 99279,36757 99278,36756 99277,36754 99275,36752 99274,36751 99272,36750 99270,36748 99268,36747 99267,36746 99265,36745 99263,36744 99261,36743 99259,36742 99257,36742 99255,36741 99253,36741 99251,36740 99249,36740 99247,36740 99245,36740 99017,36740 99015,36740 99013,36740 99011,36740 99009,36741 99007,36741 99005,36742 99003,36742 99001,36743 98999,36744 98997,36745 98995,36746 98994,36747 98992,36748 98990,36750 98988,36751 98987,36752 98985,36754 98984,36756 98983,36757 98982,36759 98981,36761 98979,36762 98979,36764 98978,36766 98977,36769 98976,36771 98976,36773 98975,36775 98975,36777 98975,36780 98975,36782 98975,36784 98975,37084 98975,37086 98975,37088 98975,37090 98975,37092 98976,37094 98976,37096 98977,37098 98978,37100 98979,37102 98979,37104 98981,37106 98982,37108 98983,37109 98984,37111 98985,37112 98987,37114 98988,37115 98990,37117 98992,37118 98994,37119 98995,37121 98997,37121 98999,37122 99001,37123 99003,37124 99005,37125 99007,37125 99009,37126 99011,37126 99013,37126 99015,37127 99017,37127 Z"/>
   </g>
  </g>
  <g class="com.sun.star.drawing.PolyPolygonShape">
   <g id="id13">
    <rect class="BoundingBox" stroke="none" fill="none" x="98995" y="36760" width="273" height="347"/>
    <path fill="rgb(0,0,255)" stroke="none" d="M 99017,37105 L 99245,37105 99246,37105 99247,37105 99248,37105 99249,37105 99250,37105 99251,37104 99252,37104 99253,37103 99254,37103 99255,37103 99256,37102 99257,37101 99258,37101 99258,37100 99259,37100 99260,37099 99261,37098 99261,37097 99262,37097 99263,37096 99263,37095 99264,37094 99264,37093 99265,37092 99265,37091 99265,37090 99266,37089 99266,37088 99266,37087 99266,37086 99266,37085 99266,37084 99266,36784 99266,36783 99266,36782 99266,36781 99266,36780 99266,36779 99265,36778 99265,36777 99265,36776 99264,36775 99264,36774 99263,36773 99263,36772 99262,36771 99261,36770 99261,36769 99260,36769 99259,36768 99258,36767 99257,36766 99256,36764 99255,36764 99254,36763 99253,36763 99252,36763 99251,36762 99250,36762 99249,36762 99248,36761 99247,36761 99246,36761 99245,36761 99017,36761 99016,36761 99015,36761 99014,36761 99013,36762 99012,36762 99011,36762 99010,36763 99009,36763 99008,36763 99007,36764 99006,36764 99005,36766 99005,36767 99004,36767 99003,36768 99002,36769 99001,36769 99001,36770 99000,36771 98999,36772 98999,36773 98998,36774 98998,36775 98997,36776 98997,36777 98997,36778 98996,36779 98996,36780 98996,36781 98996,36782 98996,36783 98996,36784 98996,37084 98996,37085 98996,37086 98996,37087 98996,37088 98996,37089 98997,37090 98997,37091 98997,37092 98998,37093 98998,37094 98999,37095 98999,37096 99000,37097 99001,37097 99001,37098 99002,37099 99003,37100 99004,37100 99005,37101 99006,37102 99007,37103 99008,37103 99009,37103 99010,37104 99011,37104 99012,37105 99013,37105 99014,37105 99015,37105 99016,37105 99017,37105 Z"/>
    <path fill="none" stroke="rgb(0,0,255)" d="M 99017,37105 L 99245,37105 99246,37105 99247,37105 99248,37105 99249,37105 99250,37105 99251,37104 99252,37104 99253,37103 99254,37103 99255,37103 99256,37102 99257,37101 99258,37101 99258,37100 99259,37100 99260,37099 99261,37098 99261,37097 99262,37097 99263,37096 99263,37095 99264,37094 99264,37093 99265,37092 99265,37091 99265,37090 99266,37089 99266,37088 99266,37087 99266,37086 99266,37085 99266,37084 99266,36784 99266,36783 99266,36782 99266,36781 99266,36780 99266,36779 99265,36778 99265,36777 99265,36776 99264,36775 99264,36774 99263,36773 99263,36772 99262,36771 99261,36770 99261,36769 99260,36769 99259,36768 99258,36767 99257,36766 99256,36764 99255,36764 99254,36763 99253,36763 99252,36763 99251,36762 99250,36762 99249,36762 99248,36761 99247,36761 99246,36761 99245,36761 99017,36761 99016,36761 99015,36761 99014,36761 99013,36762 99012,36762 99011,36762 99010,36763 99009,36763 99008,36763 99007,36764 99006,36764 99005,36766 99005,36767 99004,36767 99003,36768 99002,36769 99001,36769 99001,36770 99000,36771 98999,36772 98999,36773 98998,36774 98998,36775 98997,36776 98997,36777 98997,36778 98996,36779 98996,36780 98996,36781 98996,36782 98996,36783 98996,36784 98996,37084 98996,37085 98996,37086 98996,37087 98996,37088 98996,37089 98997,37090 98997,37091 98997,37092 98998,37093 98998,37094 98999,37095 98999,37096 99000,37097 99001,37097 99001,37098 99002,37099 99003,37100 99004,37100 99005,37101 99006,37102 99007,37103 99008,37103 99009,37103 99010,37104 99011,37104 99012,37105 99013,37105 99014,37105 99015,37105 99016,37105 99017,37105 Z"/>
   </g>
  </g>
  <g class="com.sun.star.drawing.PolyPolygonShape">
   <g id="id14">
    <rect class="BoundingBox" stroke="none" fill="none" x="98790" y="37555" width="500" height="390"/>
    <path fill="rgb(255,255,255)" stroke="none" d="M 98834,37943 L 99244,37943 99246,37943 99249,37943 99251,37943 99253,37942 99255,37942 99257,37941 99259,37941 99261,37940 99263,37939 99265,37938 99267,37937 99268,37936 99270,37935 99272,37934 99274,37932 99275,37931 99277,37929 99278,37928 99279,37926 99280,37924 99281,37921 99283,37920 99283,37918 99284,37916 99285,37914 99286,37912 99286,37910 99287,37908 99287,37906 99287,37904 99288,37902 99288,37899 99288,37599 99288,37597 99287,37595 99287,37593 99287,37591 99286,37589 99286,37587 99285,37585 99284,37583 99283,37581 99283,37579 99281,37577 99280,37576 99279,37574 99278,37572 99277,37571 99275,37569 99274,37568 99272,37566 99270,37565 99268,37564 99267,37563 99265,37562 99263,37561 99261,37560 99259,37559 99257,37558 99255,37558 99253,37557 99251,37557 99249,37557 99246,37557 99244,37556 98834,37556 98832,37557 98830,37557 98827,37557 98825,37557 98823,37558 98821,37558 98819,37559 98817,37560 98815,37561 98813,37562 98812,37563 98810,37564 98808,37565 98807,37566 98805,37568 98803,37569 98802,37571 98801,37572 98799,37574 98798,37576 98797,37577 98796,37579 98795,37581 98794,37583 98793,37585 98793,37587 98792,37589 98792,37591 98791,37593 98791,37595 98791,37597 98791,37599 98791,37899 98791,37902 98791,37904 98791,37906 98792,37908 98792,37910 98793,37912 98793,37914 98794,37916 98795,37918 98796,37920 98797,37921 98798,37924 98799,37926 98801,37928 98802,37929 98803,37931 98805,37932 98807,37934 98808,37935 98810,37936 98812,37937 98813,37938 98815,37939 98817,37940 98819,37941 98821,37941 98823,37942 98825,37942 98827,37943 98830,37943 98832,37943 98834,37943 Z"/>
    <path fill="none" stroke="rgb(255,255,255)" d="M 98834,37943 L 99244,37943 99246,37943 99249,37943 99251,37943 99253,37942 99255,37942 99257,37941 99259,37941 99261,37940 99263,37939 99265,37938 99267,37937 99268,37936 99270,37935 99272,37934 99274,37932 99275,37931 99277,37929 99278,37928 99279,37926 99280,37924 99281,37921 99283,37920 99283,37918 99284,37916 99285,37914 99286,37912 99286,37910 99287,37908 99287,37906 99287,37904 99288,37902 99288,37899 99288,37599 99288,37597 99287,37595 99287,37593 99287,37591 99286,37589 99286,37587 99285,37585 99284,37583 99283,37581 99283,37579 99281,37577 99280,37576 99279,37574 99278,37572 99277,37571 99275,37569 99274,37568 99272,37566 99270,37565 99268,37564 99267,37563 99265,37562 99263,37561 99261,37560 99259,37559 99257,37558 99255,37558 99253,37557 99251,37557 99249,37557 99246,37557 99244,37556 98834,37556 98832,37557 98830,37557 98827,37557 98825,37557 98823,37558 98821,37558 98819,37559 98817,37560 98815,37561 98813,37562 98812,37563 98810,37564 98808,37565 98807,37566 98805,37568 98803,37569 98802,37571 98801,37572 98799,37574 98798,37576 98797,37577 98796,37579 98795,37581 98794,37583 98793,37585 98793,37587 98792,37589 98792,37591 98791,37593 98791,37595 98791,37597 98791,37599 98791,37899 98791,37902 98791,37904 98791,37906 98792,37908 98792,37910 98793,37912 98793,37914 98794,37916 98795,37918 98796,37920 98797,37921 98798,37924 98799,37926 98801,37928 98802,37929 98803,37931 98805,37932 98807,37934 98808,37935 98810,37936 98812,37937 98813,37938 98815,37939 98817,37940 98819,37941 98821,37941 98823,37942 98825,37942 98827,37943 98830,37943 98832,37943 98834,37943 Z"/>
   </g>
  </g>
  <g class="com.sun.star.drawing.PolyPolygonShape">
   <g id="id15">
    <rect class="BoundingBox" stroke="none" fill="none" x="98811" y="37577" width="457" height="347"/>
    <path fill="rgb(0,0,255)" stroke="none" d="M 98834,37922 L 99245,37922 99246,37922 99247,37922 99248,37922 99249,37921 99250,37921 99251,37921 99252,37921 99253,37920 99254,37920 99255,37919 99256,37919 99257,37918 99258,37918 99258,37917 99259,37916 99260,37915 99261,37915 99261,37914 99262,37913 99263,37912 99263,37911 99264,37911 99264,37910 99265,37909 99265,37908 99265,37907 99266,37906 99266,37904 99266,37903 99266,37902 99266,37901 99266,37900 99266,37600 99266,37598 99266,37597 99266,37596 99266,37595 99266,37594 99265,37593 99265,37592 99265,37591 99264,37590 99264,37589 99263,37588 99262,37587 99261,37586 99261,37585 99260,37584 99259,37584 99258,37583 99258,37582 99257,37582 99256,37581 99255,37581 99254,37580 99253,37580 99252,37579 99251,37579 99250,37579 99249,37578 99248,37578 99247,37578 99246,37578 99245,37578 98834,37578 98833,37578 98832,37578 98831,37578 98830,37578 98829,37579 98828,37579 98827,37579 98826,37580 98825,37580 98824,37581 98823,37581 98822,37582 98821,37582 98820,37583 98819,37584 98818,37585 98817,37586 98817,37587 98816,37588 98815,37588 98815,37589 98814,37590 98814,37591 98813,37592 98813,37593 98813,37594 98813,37595 98812,37596 98812,37597 98812,37598 98812,37600 98812,37900 98812,37901 98812,37902 98812,37903 98813,37904 98813,37906 98813,37907 98813,37908 98814,37909 98814,37910 98815,37911 98816,37912 98817,37913 98817,37914 98818,37915 98819,37915 98819,37916 98820,37917 98821,37918 98822,37918 98823,37919 98824,37919 98825,37920 98826,37920 98827,37921 98828,37921 98829,37921 98830,37921 98831,37922 98832,37922 98833,37922 98834,37922 Z"/>
    <path fill="none" stroke="rgb(0,0,255)" d="M 98834,37922 L 99245,37922 99246,37922 99247,37922 99248,37922 99249,37921 99250,37921 99251,37921 99252,37921 99253,37920 99254,37920 99255,37919 99256,37919 99257,37918 99258,37918 99258,37917 99259,37916 99260,37915 99261,37915 99261,37914 99262,37913 99263,37912 99263,37911 99264,37911 99264,37910 99265,37909 99265,37908 99265,37907 99266,37906 99266,37904 99266,37903 99266,37902 99266,37901 99266,37900 99266,37600 99266,37598 99266,37597 99266,37596 99266,37595 99266,37594 99265,37593 99265,37592 99265,37591 99264,37590 99264,37589 99263,37588 99262,37587 99261,37586 99261,37585 99260,37584 99259,37584 99258,37583 99258,37582 99257,37582 99256,37581 99255,37581 99254,37580 99253,37580 99252,37579 99251,37579 99250,37579 99249,37578 99248,37578 99247,37578 99246,37578 99245,37578 98834,37578 98833,37578 98832,37578 98831,37578 98830,37578 98829,37579 98828,37579 98827,37579 98826,37580 98825,37580 98824,37581 98823,37581 98822,37582 98821,37582 98820,37583 98819,37584 98818,37585 98817,37586 98817,37587 98816,37588 98815,37588 98815,37589 98814,37590 98814,37591 98813,37592 98813,37593 98813,37594 98813,37595 98812,37596 98812,37597 98812,37598 98812,37600 98812,37900 98812,37901 98812,37902 98812,37903 98813,37904 98813,37906 98813,37907 98813,37908 98814,37909 98814,37910 98815,37911 98816,37912 98817,37913 98817,37914 98818,37915 98819,37915 98819,37916 98820,37917 98821,37918 98822,37918 98823,37919 98824,37919 98825,37920 98826,37920 98827,37921 98828,37921 98829,37921 98830,37921 98831,37922 98832,37922 98833,37922 98834,37922 Z"/>
   </g>
  </g>
  <g class="com.sun.star.drawing.PolyPolygonShape">
   <g id="id16">
    <rect class="BoundingBox" stroke="none" fill="none" x="96511" y="38372" width="684" height="390"/>
    <path fill="rgb(255,255,255)" stroke="none" d="M 96555,38760 L 97149,38760 97152,38760 97154,38760 97156,38759 97158,38759 97160,38759 97162,38758 97164,38757 97166,38757 97168,38756 97170,38755 97172,38754 97173,38753 97175,38751 97177,38750 97178,38749 97180,38747 97181,38746 97183,38744 97184,38743 97185,38741 97186,38739 97187,38737 97188,38735 97189,38733 97190,38731 97190,38729 97191,38727 97192,38725 97192,38723 97192,38721 97192,38719 97193,38717 97193,38416 97192,38414 97192,38412 97192,38410 97192,38408 97191,38406 97190,38404 97190,38402 97189,38400 97188,38398 97187,38396 97186,38394 97185,38392 97184,38390 97183,38389 97181,38387 97180,38386 97178,38384 97177,38383 97175,38382 97173,38380 97172,38379 97170,38378 97168,38377 97166,38377 97164,38376 97162,38375 97160,38374 97158,38374 97156,38374 97154,38373 97152,38373 97149,38373 96555,38373 96553,38373 96551,38373 96549,38374 96546,38374 96545,38374 96543,38375 96540,38376 96538,38377 96537,38377 96535,38378 96533,38379 96531,38380 96529,38382 96528,38383 96526,38384 96525,38386 96523,38387 96522,38389 96521,38390 96519,38392 96518,38394 96517,38396 96516,38398 96515,38400 96515,38402 96514,38404 96513,38406 96513,38408 96513,38410 96512,38412 96512,38414 96512,38416 96512,38717 96512,38719 96512,38721 96513,38723 96513,38725 96513,38727 96514,38729 96515,38731 96515,38733 96516,38735 96517,38737 96518,38739 96519,38741 96521,38743 96522,38744 96523,38746 96525,38747 96526,38749 96528,38750 96529,38751 96531,38753 96533,38754 96535,38755 96537,38756 96538,38757 96540,38757 96543,38758 96545,38759 96546,38759 96549,38759 96551,38760 96553,38760 96555,38760 Z"/>
    <path fill="none" stroke="rgb(255,255,255)" d="M 96555,38760 L 97149,38760 97152,38760 97154,38760 97156,38759 97158,38759 97160,38759 97162,38758 97164,38757 97166,38757 97168,38756 97170,38755 97172,38754 97173,38753 97175,38751 97177,38750 97178,38749 97180,38747 97181,38746 97183,38744 97184,38743 97185,38741 97186,38739 97187,38737 97188,38735 97189,38733 97190,38731 97190,38729 97191,38727 97192,38725 97192,38723 97192,38721 97192,38719 97193,38717 97193,38416 97192,38414 97192,38412 97192,38410 97192,38408 97191,38406 97190,38404 97190,38402 97189,38400 97188,38398 97187,38396 97186,38394 97185,38392 97184,38390 97183,38389 97181,38387 97180,38386 97178,38384 97177,38383 97175,38382 97173,38380 97172,38379 97170,38378 97168,38377 97166,38377 97164,38376 97162,38375 97160,38374 97158,38374 97156,38374 97154,38373 97152,38373 97149,38373 96555,38373 96553,38373 96551,38373 96549,38374 96546,38374 96545,38374 96543,38375 96540,38376 96538,38377 96537,38377 96535,38378 96533,38379 96531,38380 96529,38382 96528,38383 96526,38384 96525,38386 96523,38387 96522,38389 96521,38390 96519,38392 96518,38394 96517,38396 96516,38398 96515,38400 96515,38402 96514,38404 96513,38406 96513,38408 96513,38410 96512,38412 96512,38414 96512,38416 96512,38717 96512,38719 96512,38721 96513,38723 96513,38725 96513,38727 96514,38729 96515,38731 96515,38733 96516,38735 96517,38737 96518,38739 96519,38741 96521,38743 96522,38744 96523,38746 96525,38747 96526,38749 96528,38750 96529,38751 96531,38753 96533,38754 96535,38755 96537,38756 96538,38757 96540,38757 96543,38758 96545,38759 96546,38759 96549,38759 96551,38760 96553,38760 96555,38760 Z"/>
   </g>
  </g>
  <g class="com.sun.star.drawing.PolyPolygonShape">
   <g id="id17">
    <rect class="BoundingBox" stroke="none" fill="none" x="96533" y="38394" width="640" height="346"/>
    <path fill="rgb(0,0,255)" stroke="none" d="M 96555,38738 L 97149,38738 97151,38738 97152,38738 97153,38738 97154,38738 97155,38738 97156,38737 97157,38737 97158,38737 97159,38736 97160,38736 97161,38735 97162,38734 97163,38734 97164,38733 97165,38732 97165,38731 97166,38731 97167,38730 97167,38729 97168,38728 97169,38727 97169,38726 97169,38725 97170,38724 97170,38723 97170,38722 97171,38721 97171,38720 97171,38719 97171,38718 97171,38717 97171,38416 97171,38415 97171,38414 97171,38413 97171,38412 97170,38411 97170,38410 97170,38409 97169,38408 97169,38407 97169,38406 97168,38405 97167,38404 97167,38403 97166,38402 97165,38402 97165,38401 97164,38400 97163,38399 97162,38399 97161,38398 97160,38397 97159,38397 97158,38396 97157,38396 97156,38396 97155,38395 97154,38395 97153,38395 97152,38395 97151,38395 97149,38395 96555,38395 96554,38395 96553,38395 96552,38395 96551,38395 96550,38395 96549,38396 96548,38396 96547,38396 96546,38397 96545,38397 96544,38398 96543,38398 96542,38399 96541,38399 96541,38400 96540,38401 96539,38402 96538,38402 96538,38403 96537,38404 96537,38405 96536,38406 96536,38407 96535,38408 96535,38409 96535,38410 96534,38411 96534,38412 96534,38413 96534,38414 96534,38415 96534,38416 96534,38717 96534,38718 96534,38719 96534,38720 96534,38721 96534,38722 96535,38723 96535,38724 96535,38725 96536,38726 96536,38727 96537,38728 96537,38729 96538,38730 96538,38731 96539,38731 96540,38732 96541,38733 96541,38734 96542,38734 96543,38735 96544,38735 96545,38736 96546,38736 96547,38737 96548,38737 96549,38737 96550,38738 96551,38738 96552,38738 96553,38738 96554,38738 96555,38738 Z"/>
    <path fill="none" stroke="rgb(0,0,255)" d="M 96555,38738 L 97149,38738 97151,38738 97152,38738 97153,38738 97154,38738 97155,38738 97156,38737 97157,38737 97158,38737 97159,38736 97160,38736 97161,38735 97162,38734 97163,38734 97164,38733 97165,38732 97165,38731 97166,38731 97167,38730 97167,38729 97168,38728 97169,38727 97169,38726 97169,38725 97170,38724 97170,38723 97170,38722 97171,38721 97171,38720 97171,38719 97171,38718 97171,38717 97171,38416 97171,38415 97171,38414 97171,38413 97171,38412 97170,38411 97170,38410 97170,38409 97169,38408 97169,38407 97169,38406 97168,38405 97167,38404 97167,38403 97166,38402 97165,38402 97165,38401 97164,38400 97163,38399 97162,38399 97161,38398 97160,38397 97159,38397 97158,38396 97157,38396 97156,38396 97155,38395 97154,38395 97153,38395 97152,38395 97151,38395 97149,38395 96555,38395 96554,38395 96553,38395 96552,38395 96551,38395 96550,38395 96549,38396 96548,38396 96547,38396 96546,38397 96545,38397 96544,38398 96543,38398 96542,38399 96541,38399 96541,38400 96540,38401 96539,38402 96538,38402 96538,38403 96537,38404 96537,38405 96536,38406 96536,38407 96535,38408 96535,38409 96535,38410 96534,38411 96534,38412 96534,38413 96534,38414 96534,38415 96534,38416 96534,38717 96534,38718 96534,38719 96534,38720 96534,38721 96534,38722 96535,38723 96535,38724 96535,38725 96536,38726 96536,38727 96537,38728 96537,38729 96538,38730 96538,38731 96539,38731 96540,38732 96541,38733 96541,38734 96542,38734 96543,38735 96544,38735 96545,38736 96546,38736 96547,38737 96548,38737 96549,38737 96550,38738 96551,38738 96552,38738 96553,38738 96554,38738 96555,38738 Z"/>
   </g>
  </g>
 </g>
</svg>