<?xml version="1.0" encoding="UTF-8"?>
<!DOCTYPE svg PUBLIC "-//W3C//DTD SVG 1.1//EN" "http://www.w3.org/Graphics/SVG/1.1/DTD/svg11.dtd">
<svg version="1.2" width="44.98mm" height="9.03mm" viewBox="3998 39999 4498 903" preserveAspectRatio="xMidYMid" fill-rule="evenodd" stroke-width="28.222" stroke-linejoin="round" xmlns="http://www.w3.org/2000/svg" xmlns:ooo="http://xml.openoffice.org/svg/export" xmlns:xlink="http://www.w3.org/1999/xlink" xmlns:presentation="http://sun.com/xmlns/staroffice/presentation" xmlns:smil="http://www.w3.org/2001/SMIL20/" xmlns:anim="urn:oasis:names:tc:opendocument:xmlns:animation:1.0" xml:space="preserve">
 <defs class="EmbeddedBulletChars">
  <g id="bullet-char-template-57356" transform="scale(0.00048828125,-0.00048828125)">
   <path d="M 580,1141 L 1163,571 580,0 -4,571 580,1141 Z"/>
  </g>
  <g id="bullet-char-template-57354" transform="scale(0.00048828125,-0.00048828125)">
   <path d="M 8,1128 L 1137,1128 1137,0 8,0 8,1128 Z"/>
  </g>
  <g id="bullet-char-template-10146" transform="scale(0.00048828125,-0.00048828125)">
   <path d="M 174,0 L 602,739 174,1481 1456,739 174,0 Z M 1358,739 L 309,1346 659,739 1358,739 Z"/>
  </g>
  <g id="bullet-char-template-10132" transform="scale(0.00048828125,-0.00048828125)">
   <path d="M 2015,739 L 1276,0 717,0 1260,543 174,543 174,936 1260,936 717,1481 1274,1481 2015,739 Z"/>
  </g>
  <g id="bullet-char-template-10007" transform="scale(0.00048828125,-0.00048828125)">
   <path d="M 0,-2 C -7,14 -16,27 -25,37 L 356,567 C 262,823 215,952 215,954 215,979 228,992 255,992 264,992 276,990 289,987 310,991 331,999 354,1012 L 381,999 492,748 772,1049 836,1024 860,1049 C 881,1039 901,1025 922,1006 886,937 835,863 770,784 769,783 710,716 594,584 L 774,223 C 774,196 753,168 711,139 L 727,119 C 717,90 699,76 672,76 641,76 570,178 457,381 L 164,-76 C 142,-110 111,-127 72,-127 30,-127 9,-110 8,-76 1,-67 -2,-52 -2,-32 -2,-23 -1,-13 0,-2 Z"/>
  </g>
  <g id="bullet-char-template-10004" transform="scale(0.00048828125,-0.00048828125)">
   <path d="M 285,-33 C 182,-33 111,30 74,156 52,228 41,333 41,471 41,549 55,616 82,672 116,743 169,778 240,778 293,778 328,747 346,684 L 369,508 C 377,444 397,411 428,410 L 1163,1116 C 1174,1127 1196,1133 1229,1133 1271,1133 1292,1118 1292,1087 L 1292,965 C 1292,929 1282,901 1262,881 L 442,47 C 390,-6 338,-33 285,-33 Z"/>
  </g>
  <g id="bullet-char-template-9679" transform="scale(0.00048828125,-0.00048828125)">
   <path d="M 813,0 C 632,0 489,54 383,161 276,268 223,411 223,592 223,773 276,916 383,1023 489,1130 632,1184 813,1184 992,1184 1136,1130 1245,1023 1353,916 1407,772 1407,592 1407,412 1353,268 1245,161 1136,54 992,0 813,0 Z"/>
  </g>
  <g id="bullet-char-template-8226" transform="scale(0.00048828125,-0.00048828125)">
   <path d="M 346,457 C 273,457 209,483 155,535 101,586 74,649 74,723 74,796 101,859 155,911 209,963 273,989 346,989 419,989 480,963 531,910 582,859 608,796 608,723 608,648 583,586 532,535 482,483 420,457 346,457 Z"/>
  </g>
  <g id="bullet-char-template-8211" transform="scale(0.00048828125,-0.00048828125)">
   <path d="M -4,459 L 1135,459 1135,606 -4,606 -4,459 Z"/>
  </g>
  <g id="bullet-char-template-61548" transform="scale(0.00048828125,-0.00048828125)">
   <path d="M 173,740 C 173,903 231,1043 346,1159 462,1274 601,1332 765,1332 928,1332 1067,1274 1183,1159 1299,1043 1357,903 1357,740 1357,577 1299,437 1183,322 1067,206 928,148 765,148 601,148 462,206 346,322 231,437 173,577 173,740 Z"/>
  </g>
 </defs>
 <g class="Page">
  <g class="com.sun.star.drawing.PolyPolygonShape">
   <g id="id3">
    <rect class="BoundingBox" stroke="none" fill="none" x="3998" y="39999" width="4498" height="903"/>
    <path fill="rgb(0,0,255)" stroke="none" d="M 8441,40542 L 8444,40540 8447,40538 8450,40536 8453,40534 8455,40532 8458,40530 8461,40527 8463,40525 8466,40523 8468,40520 8470,40517 8472,40515 8474,40512 8476,40509 8478,40506 8480,40503 8482,40500 8483,40497 8485,40494 8486,40491 8487,40488 8488,40484 8490,40481 8491,40478 8491,40474 8492,40471 8493,40468 8493,40464 8494,40461 8494,40457 8494,40454 8494,40451 8494,40447 8494,40443 8494,40440 8493,40437 8493,40433 8492,40430 8491,40426 8491,40423 8490,40420 8488,40416 8487,40413 8486,40410 8485,40407 8483,40404 8482,40400 8480,40397 8478,40395 8476,40392 8474,40389 8472,40386 8470,40383 8468,40381 8466,40378 8463,40376 8461,40373 8458,40371 8455,40369 8453,40367 8450,40365 8447,40363 8444,40361 8441,40359 7870,40034 7866,40032 7862,40030 7859,40028 7855,40026 7851,40024 7848,40023 7844,40021 7840,40019 7836,40018 7832,40016 7828,40015 7824,40014 7821,40012 7817,40011 7813,40010 7809,40009 7805,40008 7801,40007 7797,40005 7793,40004 7789,40004 7785,40003 7781,40002 7777,40002 7772,40001 7768,40001 7764,40000 7760,40000 7756,40000 7752,40000 7748,40000 7744,40000 4194,40000 4189,40000 4185,40000 4180,40000 4175,40000 4171,40001 4166,40002 4161,40002 4156,40003 4152,40004 4147,40005 4142,40008 4138,40009 4133,40010 4129,40012 4124,40014 4120,40015 4115,40017 4111,40019 4107,40021 4102,40024 4098,40026 4094,40028 4090,40031 4086,40033 4082,40036 4078,40039 4074,40042 4071,40045 4067,40048 4063,40051 4060,40054 4057,40058 4053,40061 4050,40064 4047,40068 4044,40072 4041,40076 4038,40079 4035,40083 4032,40087 4030,40091 4027,40095 4025,40099 4022,40103 4020,40108 4018,40112 4016,40116 4014,40121 4013,40125 4011,40130 4009,40134 4008,40139 4007,40143 4005,40148 4004,40153 4003,40157 4002,40162 4002,40167 4001,40172 4000,40176 4000,40181 4000,40186 3999,40191 3999,40196 3999,40705 3999,40710 4000,40715 4000,40720 4000,40724 4001,40729 4002,40734 4002,40739 4003,40743 4004,40748 4005,40753 4007,40757 4008,40762 4009,40766 4011,40771 4013,40776 4014,40780 4016,40784 4018,40789 4020,40793 4022,40797 4025,40801 4027,40806 4030,40810 4032,40814 4035,40818 4038,40821 4041,40825 4044,40829 4047,40833 4050,40836 4053,40840 4057,40843 4060,40846 4063,40850 4067,40853 4071,40856 4074,40859 4078,40862 4082,40865 4086,40867 4090,40870 4094,40873 4098,40875 4102,40877 4107,40879 4111,40882 4115,40884 4120,40886 4124,40887 4129,40889 4133,40890 4138,40892 4142,40893 4147,40894 4152,40896 4156,40896 4161,40898 4166,40898 4171,40899 4175,40899 4180,40900 4185,40900 4189,40900 4194,40900 7744,40900 7748,40900 7752,40900 7756,40900 7760,40900 7764,40899 7768,40899 7772,40899 7777,40898 7781,40898 7785,40897 7789,40896 7793,40896 7797,40895 7801,40894 7805,40893 7809,40892 7813,40891 7817,40890 7821,40889 7824,40887 7828,40886 7832,40884 7836,40883 7840,40881 7844,40880 7848,40878 7851,40876 7855,40875 7859,40873 7862,40871 7866,40869 7870,40867 8441,40542 Z"/>
    <path fill="none" stroke="rgb(0,0,255)" d="M 8441,40542 L 8444,40540 8447,40538 8450,40536 8453,40534 8455,40532 8458,40530 8461,40527 8463,40525 8466,40523 8468,40520 8470,40517 8472,40515 8474,40512 8476,40509 8478,40506 8480,40503 8482,40500 8483,40497 8485,40494 8486,40491 8487,40488 8488,40484 8490,40481 8491,40478 8491,40474 8492,40471 8493,40468 8493,40464 8494,40461 8494,40457 8494,40454 8494,40451 8494,40447 8494,40443 8494,40440 8493,40437 8493,40433 8492,40430 8491,40426 8491,40423 8490,40420 8488,40416 8487,40413 8486,40410 8485,40407 8483,40404 8482,40400 8480,40397 8478,40395 8476,40392 8474,40389 8472,40386 8470,40383 8468,40381 8466,40378 8463,40376 8461,40373 8458,40371 8455,40369 8453,40367 8450,40365 8447,40363 8444,40361 8441,40359 7870,40034 7866,40032 7862,40030 7859,40028 7855,40026 7851,40024 7848,40023 7844,40021 7840,40019 7836,40018 7832,40016 7828,40015 7824,40014 7821,40012 7817,40011 7813,40010 7809,40009 7805,40008 7801,40007 7797,40005 7793,40004 7789,40004 7785,40003 7781,40002 7777,40002 7772,40001 7768,40001 7764,40000 7760,40000 7756,40000 7752,40000 7748,40000 7744,40000 4194,40000 4189,40000 4185,40000 4180,40000 4175,40000 4171,40001 4166,40002 4161,40002 4156,40003 4152,40004 4147,40005 4142,40008 4138,40009 4133,40010 4129,40012 4124,40014 4120,40015 4115,40017 4111,40019 4107,40021 4102,40024 4098,40026 4094,40028 4090,40031 4086,40033 4082,40036 4078,40039 4074,40042 4071,40045 4067,40048 4063,40051 4060,40054 4057,40058 4053,40061 4050,40064 4047,40068 4044,40072 4041,40076 4038,40079 4035,40083 4032,40087 4030,40091 4027,40095 4025,40099 4022,40103 4020,40108 4018,40112 4016,40116 4014,40121 4013,40125 4011,40130 4009,40134 4008,40139 4007,40143 4005,40148 4004,40153 4003,40157 4002,40162 4002,40167 4001,40172 4000,40176 4000,40181 4000,40186 3999,40191 3999,40196 3999,40705 3999,40710 4000,40715 4000,40720 4000,40724 4001,40729 4002,40734 4002,40739 4003,40743 4004,40748 4005,40753 4007,40757 4008,40762 4009,40766 4011,40771 4013,40776 4014,40780 4016,40784 4018,40789 4020,40793 4022,40797 4025,40801 4027,40806 4030,40810 4032,40814 4035,40818 4038,40821 4041,40825 4044,40829 4047,40833 4050,40836 4053,40840 4057,40843 4060,40846 4063,40850 4067,40853 4071,40856 4074,40859 4078,40862 4082,40865 4086,40867 4090,40870 4094,40873 4098,40875 4102,40877 4107,40879 4111,40882 4115,40884 4120,40886 4124,40887 4129,40889 4133,40890 4138,40892 4142,40893 4147,40894 4152,40896 4156,40896 4161,40898 4166,40898 4171,40899 4175,40899 4180,40900 4185,40900 4189,40900 4194,40900 7744,40900 7748,40900 7752,40900 7756,40900 7760,40900 7764,40899 7768,40899 7772,40899 7777,40898 7781,40898 7785,40897 7789,40896 7793,40896 7797,40895 7801,40894 7805,40893 7809,40892 7813,40891 7817,40890 7821,40889 7824,40887 7828,40886 7832,40884 7836,40883 7840,40881 7844,40880 7848,40878 7851,40876 7855,40875 7859,40873 7862,40871 7866,40869 7870,40867 8441,40542 Z"/>
   </g>
  </g>
  <g class="com.sun.star.drawing.PolyPolygonShape">
   <g id="id4">
    <rect class="BoundingBox" stroke="none" fill="none" x="4043" y="40044" width="4408" height="813"/>
    <path fill="rgb(255,255,255)" stroke="none" d="M 8419,40502 L 8421,40502 8422,40500 8424,40499 8426,40498 8427,40497 8429,40496 8430,40494 8431,40493 8433,40492 8434,40490 8435,40489 8437,40487 8438,40485 8439,40484 8440,40482 8441,40480 8442,40479 8443,40477 8444,40475 8444,40474 8445,40472 8446,40470 8447,40468 8447,40466 8448,40464 8448,40462 8448,40460 8449,40458 8449,40456 8449,40454 8449,40452 8449,40451 8449,40448 8449,40446 8449,40444 8449,40443 8448,40441 8448,40439 8448,40437 8447,40435 8447,40433 8446,40431 8445,40429 8444,40427 8444,40425 8443,40424 8442,40422 8441,40420 8440,40419 8439,40417 8438,40415 8437,40414 8435,40412 8434,40411 8433,40409 8431,40408 8430,40406 8429,40405 8427,40404 8426,40403 8424,40401 8422,40400 8421,40399 8419,40398 7847,40073 7841,40070 7835,40067 7829,40064 7823,40061 7817,40059 7810,40056 7804,40054 7797,40052 7791,40051 7784,40049 7777,40048 7771,40047 7764,40045 7757,40045 7750,40045 7744,40045 4194,40045 4190,40045 4187,40045 4183,40045 4179,40045 4176,40047 4172,40047 4169,40048 4165,40048 4161,40049 4158,40050 4154,40051 4151,40052 4147,40053 4144,40054 4140,40055 4137,40057 4133,40058 4130,40060 4127,40061 4124,40063 4121,40065 4117,40067 4114,40069 4111,40071 4108,40073 4105,40075 4102,40077 4099,40080 4096,40082 4094,40084 4091,40087 4088,40089 4086,40092 4083,40095 4081,40097 4079,40100 4076,40103 4074,40106 4072,40109 4070,40112 4068,40115 4066,40118 4064,40122 4062,40125 4060,40128 4059,40131 4057,40135 4056,40138 4054,40141 4053,40145 4052,40148 4051,40152 4050,40155 4049,40159 4048,40163 4047,40166 4047,40170 4046,40173 4046,40177 4045,40181 4045,40184 4044,40188 4044,40192 4044,40196 4044,40705 4044,40709 4044,40713 4045,40717 4045,40720 4046,40724 4046,40727 4047,40731 4047,40735 4048,40738 4049,40742 4050,40745 4051,40749 4052,40753 4053,40756 4054,40759 4056,40763 4057,40766 4059,40770 4060,40773 4062,40776 4064,40779 4066,40782 4068,40785 4070,40789 4072,40792 4074,40795 4076,40798 4079,40801 4081,40803 4083,40806 4086,40809 4088,40811 4091,40814 4094,40817 4096,40819 4099,40821 4102,40824 4105,40826 4108,40828 4111,40830 4114,40832 4117,40834 4121,40836 4124,40838 4127,40839 4130,40841 4133,40842 4137,40844 4140,40845 4144,40846 4147,40848 4151,40849 4154,40850 4158,40851 4161,40852 4165,40853 4169,40853 4172,40854 4176,40854 4179,40855 4183,40855 4187,40855 4190,40855 4194,40855 7744,40855 7750,40855 7757,40855 7764,40854 7771,40854 7777,40853 7784,40851 7791,40850 7797,40848 7804,40846 7810,40845 7817,40842 7823,40840 7829,40837 7835,40834 7841,40831 7847,40828 8419,40502 Z"/>
    <path fill="none" stroke="rgb(255,255,255)" d="M 8419,40502 L 8421,40502 8422,40500 8424,40499 8426,40498 8427,40497 8429,40496 8430,40494 8431,40493 8433,40492 8434,40490 8435,40489 8437,40487 8438,40485 8439,40484 8440,40482 8441,40480 8442,40479 8443,40477 8444,40475 8444,40474 8445,40472 8446,40470 8447,40468 8447,40466 8448,40464 8448,40462 8448,40460 8449,40458 8449,40456 8449,40454 8449,40452 8449,40451 8449,40448 8449,40446 8449,40444 8449,40443 8448,40441 8448,40439 8448,40437 8447,40435 8447,40433 8446,40431 8445,40429 8444,40427 8444,40425 8443,40424 8442,40422 8441,40420 8440,40419 8439,40417 8438,40415 8437,40414 8435,40412 8434,40411 8433,40409 8431,40408 8430,40406 8429,40405 8427,40404 8426,40403 8424,40401 8422,40400 8421,40399 8419,40398 7847,40073 7841,40070 7835,40067 7829,40064 7823,40061 7817,40059 7810,40056 7804,40054 7797,40052 7791,40051 7784,40049 7777,40048 7771,40047 7764,40045 7757,40045 7750,40045 7744,40045 4194,40045 4190,40045 4187,40045 4183,40045 4179,40045 4176,40047 4172,40047 4169,40048 4165,40048 4161,40049 4158,40050 4154,40051 4151,40052 4147,40053 4144,40054 4140,40055 4137,40057 4133,40058 4130,40060 4127,40061 4124,40063 4121,40065 4117,40067 4114,40069 4111,40071 4108,40073 4105,40075 4102,40077 4099,40080 4096,40082 4094,40084 4091,40087 4088,40089 4086,40092 4083,40095 4081,40097 4079,40100 4076,40103 4074,40106 4072,40109 4070,40112 4068,40115 4066,40118 4064,40122 4062,40125 4060,40128 4059,40131 4057,40135 4056,40138 4054,40141 4053,40145 4052,40148 4051,40152 4050,40155 4049,40159 4048,40163 4047,40166 4047,40170 4046,40173 4046,40177 4045,40181 4045,40184 4044,40188 4044,40192 4044,40196 4044,40705 4044,40709 4044,40713 4045,40717 4045,40720 4046,40724 4046,40727 4047,40731 4047,40735 4048,40738 4049,40742 4050,40745 4051,40749 4052,40753 4053,40756 4054,40759 4056,40763 4057,40766 4059,40770 4060,40773 4062,40776 4064,40779 4066,40782 4068,40785 4070,40789 4072,40792 4074,40795 4076,40798 4079,40801 4081,40803 4083,40806 4086,40809 4088,40811 4091,40814 4094,40817 4096,40819 4099,40821 4102,40824 4105,40826 4108,40828 4111,40830 4114,40832 4117,40834 4121,40836 4124,40838 4127,40839 4130,40841 4133,40842 4137,40844 4140,40845 4144,40846 4147,40848 4151,40849 4154,40850 4158,40851 4161,40852 4165,40853 4169,40853 4172,40854 4176,40854 4179,40855 4183,40855 4187,40855 4190,40855 4194,40855 7744,40855 7750,40855 7757,40855 7764,40854 7771,40854 7777,40853 7784,40851 7791,40850 7797,40848 7804,40846 7810,40845 7817,40842 7823,40840 7829,40837 7835,40834 7841,40831 7847,40828 8419,40502 Z"/>
   </g>
  </g>
  <g class="com.sun.star.drawing.PolyPolygonShape">
   <g id="id5">
    <rect class="BoundingBox" stroke="none" fill="none" x="4088" y="40088" width="4020" height="725"/>
    <path fill="rgb(0,0,255)" stroke="none" d="M 8097,40474 L 8098,40473 8099,40472 8100,40470 8101,40469 8102,40467 8103,40466 8103,40464 8104,40462 8104,40461 8105,40459 8105,40458 8106,40456 8106,40454 8106,40453 8106,40451 8106,40450 8106,40448 8106,40446 8106,40444 8106,40443 8105,40441 8105,40439 8104,40438 8104,40436 8103,40435 8103,40433 8102,40432 8101,40430 8100,40429 8099,40427 8098,40426 8097,40424 7871,40150 7868,40146 7865,40143 7862,40139 7859,40136 7855,40133 7852,40130 7848,40127 7845,40124 7841,40121 7837,40119 7834,40116 7830,40114 7826,40112 7822,40109 7818,40107 7814,40105 7810,40103 7806,40102 7801,40100 7797,40098 7793,40097 7789,40096 7784,40095 7780,40093 7775,40093 7771,40092 7766,40091 7762,40090 7757,40090 7753,40090 7748,40090 7744,40089 4194,40089 4192,40090 4189,40090 4186,40090 4184,40090 4181,40090 4179,40091 4176,40091 4174,40092 4171,40092 4169,40093 4166,40093 4164,40094 4161,40095 4159,40096 4156,40096 4154,40098 4152,40098 4149,40099 4147,40101 4145,40102 4142,40103 4140,40104 4138,40106 4136,40107 4134,40109 4132,40110 4130,40112 4128,40113 4126,40115 4124,40116 4122,40118 4120,40120 4118,40122 4116,40124 4115,40126 4113,40128 4111,40130 4110,40132 4108,40134 4107,40136 4106,40138 4104,40140 4103,40143 4102,40145 4100,40147 4099,40150 4098,40152 4097,40154 4096,40157 4096,40159 4095,40162 4094,40164 4093,40167 4092,40169 4092,40171 4091,40174 4091,40176 4091,40179 4090,40182 4090,40184 4090,40187 4089,40189 4089,40192 4089,40194 4089,40705 4089,40708 4089,40710 4090,40713 4090,40716 4090,40718 4091,40721 4091,40723 4091,40726 4092,40728 4092,40731 4093,40733 4094,40736 4095,40738 4096,40741 4096,40743 4097,40746 4098,40748 4099,40750 4100,40753 4102,40755 4103,40757 4104,40759 4106,40762 4107,40764 4108,40766 4110,40768 4111,40770 4113,40772 4115,40774 4116,40776 4118,40778 4120,40780 4122,40781 4124,40783 4126,40785 4128,40787 4130,40788 4132,40790 4134,40791 4136,40793 4138,40794 4140,40795 4142,40797 4145,40798 4147,40799 4149,40800 4152,40801 4154,40802 4156,40803 4159,40804 4161,40805 4164,40806 4166,40807 4169,40807 4171,40808 4174,40808 4176,40809 4179,40809 4181,40810 4184,40810 4186,40810 4189,40810 4192,40810 4194,40811 7744,40810 7748,40810 7753,40810 7757,40810 7762,40809 7766,40809 7771,40808 7775,40807 7780,40806 7784,40805 7789,40804 7793,40803 7797,40801 7801,40800 7806,40798 7810,40796 7814,40795 7818,40793 7822,40790 7826,40788 7830,40786 7834,40784 7837,40781 7841,40778 7845,40776 7848,40773 7852,40770 7855,40767 7859,40764 7862,40760 7865,40757 7868,40754 7871,40750 8097,40474 Z"/>
    <path fill="none" stroke="rgb(0,0,255)" d="M 8097,40474 L 8098,40473 8099,40472 8100,40470 8101,40469 8102,40467 8103,40466 8103,40464 8104,40462 8104,40461 8105,40459 8105,40458 8106,40456 8106,40454 8106,40453 8106,40451 8106,40450 8106,40448 8106,40446 8106,40444 8106,40443 8105,40441 8105,40439 8104,40438 8104,40436 8103,40435 8103,40433 8102,40432 8101,40430 8100,40429 8099,40427 8098,40426 8097,40424 7871,40150 7868,40146 7865,40143 7862,40139 7859,40136 7855,40133 7852,40130 7848,40127 7845,40124 7841,40121 7837,40119 7834,40116 7830,40114 7826,40112 7822,40109 7818,40107 7814,40105 7810,40103 7806,40102 7801,40100 7797,40098 7793,40097 7789,40096 7784,40095 7780,40093 7775,40093 7771,40092 7766,40091 7762,40090 7757,40090 7753,40090 7748,40090 7744,40089 4194,40089 4192,40090 4189,40090 4186,40090 4184,40090 4181,40090 4179,40091 4176,40091 4174,40092 4171,40092 4169,40093 4166,40093 4164,40094 4161,40095 4159,40096 4156,40096 4154,40098 4152,40098 4149,40099 4147,40101 4145,40102 4142,40103 4140,40104 4138,40106 4136,40107 4134,40109 4132,40110 4130,40112 4128,40113 4126,40115 4124,40116 4122,40118 4120,40120 4118,40122 4116,40124 4115,40126 4113,40128 4111,40130 4110,40132 4108,40134 4107,40136 4106,40138 4104,40140 4103,40143 4102,40145 4100,40147 4099,40150 4098,40152 4097,40154 4096,40157 4096,40159 4095,40162 4094,40164 4093,40167 4092,40169 4092,40171 4091,40174 4091,40176 4091,40179 4090,40182 4090,40184 4090,40187 4089,40189 4089,40192 4089,40194 4089,40705 4089,40708 4089,40710 4090,40713 4090,40716 4090,40718 4091,40721 4091,40723 4091,40726 4092,40728 4092,40731 4093,40733 4094,40736 4095,40738 4096,40741 4096,40743 4097,40746 4098,40748 4099,40750 4100,40753 4102,40755 4103,40757 4104,40759 4106,40762 4107,40764 4108,40766 4110,40768 4111,40770 4113,40772 4115,40774 4116,40776 4118,40778 4120,40780 4122,40781 4124,40783 4126,40785 4128,40787 4130,40788 4132,40790 4134,40791 4136,40793 4138,40794 4140,40795 4142,40797 4145,40798 4147,40799 4149,40800 4152,40801 4154,40802 4156,40803 4159,40804 4161,40805 4164,40806 4166,40807 4169,40807 4171,40808 4174,40808 4176,40809 4179,40809 4181,40810 4184,40810 4186,40810 4189,40810 4192,40810 4194,40811 7744,40810 7748,40810 7753,40810 7757,40810 7762,40809 7766,40809 7771,40808 7775,40807 7780,40806 7784,40805 7789,40804 7793,40803 7797,40801 7801,40800 7806,40798 7810,40796 7814,40795 7818,40793 7822,40790 7826,40788 7830,40786 7834,40784 7837,40781 7841,40778 7845,40776 7848,40773 7852,40770 7855,40767 7859,40764 7862,40760 7865,40757 7868,40754 7871,40750 8097,40474 Z"/>
   </g>
  </g>
 </g>
</svg>