<?xml version="1.0" encoding="UTF-8"?>
<!DOCTYPE svg PUBLIC "-//W3C//DTD SVG 1.1//EN" "http://www.w3.org/Graphics/SVG/1.1/DTD/svg11.dtd">
<svg version="1.2" width="44.97mm" height="9.03mm" viewBox="3999 41599 4497 903" preserveAspectRatio="xMidYMid" fill-rule="evenodd" stroke-width="28.222" stroke-linejoin="round" xmlns="http://www.w3.org/2000/svg" xmlns:ooo="http://xml.openoffice.org/svg/export" xmlns:xlink="http://www.w3.org/1999/xlink" xmlns:presentation="http://sun.com/xmlns/staroffice/presentation" xmlns:smil="http://www.w3.org/2001/SMIL20/" xmlns:anim="urn:oasis:names:tc:opendocument:xmlns:animation:1.0" xml:space="preserve">
 <defs class="EmbeddedBulletChars">
  <g id="bullet-char-template-57356" transform="scale(0.00048828125,-0.00048828125)">
   <path d="M 580,1141 L 1163,571 580,0 -4,571 580,1141 Z"/>
  </g>
  <g id="bullet-char-template-57354" transform="scale(0.00048828125,-0.00048828125)">
   <path d="M 8,1128 L 1137,1128 1137,0 8,0 8,1128 Z"/>
  </g>
  <g id="bullet-char-template-10146" transform="scale(0.00048828125,-0.00048828125)">
   <path d="M 174,0 L 602,739 174,1481 1456,739 174,0 Z M 1358,739 L 309,1346 659,739 1358,739 Z"/>
  </g>
  <g id="bullet-char-template-10132" transform="scale(0.00048828125,-0.00048828125)">
   <path d="M 2015,739 L 1276,0 717,0 1260,543 174,543 174,936 1260,936 717,1481 1274,1481 2015,739 Z"/>
  </g>
  <g id="bullet-char-template-10007" transform="scale(0.00048828125,-0.00048828125)">
   <path d="M 0,-2 C -7,14 -16,27 -25,37 L 356,567 C 262,823 215,952 215,954 215,979 228,992 255,992 264,992 276,990 289,987 310,991 331,999 354,1012 L 381,999 492,748 772,1049 836,1024 860,1049 C 881,1039 901,1025 922,1006 886,937 835,863 770,784 769,783 710,716 594,584 L 774,223 C 774,196 753,168 711,139 L 727,119 C 717,90 699,76 672,76 641,76 570,178 457,381 L 164,-76 C 142,-110 111,-127 72,-127 30,-127 9,-110 8,-76 1,-67 -2,-52 -2,-32 -2,-23 -1,-13 0,-2 Z"/>
  </g>
  <g id="bullet-char-template-10004" transform="scale(0.00048828125,-0.00048828125)">
   <path d="M 285,-33 C 182,-33 111,30 74,156 52,228 41,333 41,471 41,549 55,616 82,672 116,743 169,778 240,778 293,778 328,747 346,684 L 369,508 C 377,444 397,411 428,410 L 1163,1116 C 1174,1127 1196,1133 1229,1133 1271,1133 1292,1118 1292,1087 L 1292,965 C 1292,929 1282,901 1262,881 L 442,47 C 390,-6 338,-33 285,-33 Z"/>
  </g>
  <g id="bullet-char-template-9679" transform="scale(0.00048828125,-0.00048828125)">
   <path d="M 813,0 C 632,0 489,54 383,161 276,268 223,411 223,592 223,773 276,916 383,1023 489,1130 632,1184 813,1184 992,1184 1136,1130 1245,1023 1353,916 1407,772 1407,592 1407,412 1353,268 1245,161 1136,54 992,0 813,0 Z"/>
  </g>
  <g id="bullet-char-template-8226" transform="scale(0.00048828125,-0.00048828125)">
   <path d="M 346,457 C 273,457 209,483 155,535 101,586 74,649 74,723 74,796 101,859 155,911 209,963 273,989 346,989 419,989 480,963 531,910 582,859 608,796 608,723 608,648 583,586 532,535 482,483 420,457 346,457 Z"/>
  </g>
  <g id="bullet-char-template-8211" transform="scale(0.00048828125,-0.00048828125)">
   <path d="M -4,459 L 1135,459 1135,606 -4,606 -4,459 Z"/>
  </g>
  <g id="bullet-char-template-61548" transform="scale(0.00048828125,-0.00048828125)">
   <path d="M 173,740 C 173,903 231,1043 346,1159 462,1274 601,1332 765,1332 928,1332 1067,1274 1183,1159 1299,1043 1357,903 1357,740 1357,577 1299,437 1183,322 1067,206 928,148 765,148 601,148 462,206 346,322 231,437 173,577 173,740 Z"/>
  </g>
 </defs>
 <g class="Page">
  <g class="com.sun.star.drawing.PolyPolygonShape">
   <g id="id3">
    <rect class="BoundingBox" stroke="none" fill="none" x="3999" y="41599" width="4497" height="903"/>
    <path fill="rgb(0,255,0)" stroke="none" d="M 8441,42142 L 8444,42140 8447,42138 8450,42136 8452,42134 8455,42132 8458,42130 8460,42127 8463,42125 8465,42122 8468,42120 8470,42117 8472,42115 8474,42112 8476,42109 8478,42106 8480,42103 8481,42100 8483,42097 8484,42094 8486,42091 8487,42088 8488,42084 8489,42081 8490,42078 8491,42074 8492,42071 8492,42068 8493,42064 8493,42061 8494,42057 8494,42054 8494,42051 8494,42047 8494,42043 8493,42040 8493,42037 8492,42033 8492,42030 8491,42026 8490,42023 8489,42020 8488,42016 8487,42013 8486,42010 8484,42007 8483,42004 8481,42001 8480,41998 8478,41995 8476,41992 8474,41989 8472,41986 8470,41984 8468,41981 8465,41978 8463,41976 8460,41973 8458,41971 8455,41969 8452,41967 8450,41965 8447,41963 8444,41961 8441,41959 7869,41633 7866,41631 7862,41629 7858,41627 7855,41625 7851,41623 7847,41622 7844,41620 7840,41618 7836,41617 7832,41616 7828,41614 7824,41613 7820,41611 7816,41610 7813,41609 7809,41608 7805,41607 7801,41606 7797,41605 7793,41604 7788,41604 7785,41603 7781,41602 7776,41602 7772,41601 7768,41601 7764,41600 7760,41600 7756,41600 7752,41600 7748,41600 7743,41600 4195,41600 4190,41600 4185,41600 4180,41600 4175,41600 4171,41601 4166,41602 4161,41602 4156,41603 4152,41604 4147,41605 4142,41607 4138,41608 4133,41609 4129,41611 4124,41613 4120,41614 4116,41616 4111,41618 4107,41620 4103,41623 4099,41625 4094,41627 4090,41630 4086,41633 4082,41635 4079,41638 4075,41641 4071,41644 4067,41647 4064,41650 4060,41653 4057,41657 4054,41660 4050,41664 4047,41667 4044,41671 4041,41674 4038,41678 4035,41682 4033,41686 4030,41690 4027,41694 4025,41698 4023,41703 4021,41707 4018,41711 4017,41715 4015,41720 4013,41724 4011,41729 4010,41733 4008,41738 4007,41742 4006,41747 4004,41752 4004,41756 4003,41761 4002,41766 4001,41771 4001,41775 4000,41780 4000,41785 4000,41790 4000,41795 4000,42305 4000,42310 4000,42315 4000,42320 4001,42324 4001,42329 4002,42334 4003,42339 4004,42343 4004,42348 4006,42353 4007,42357 4008,42362 4010,42366 4011,42371 4013,42376 4015,42380 4017,42384 4018,42389 4021,42393 4023,42397 4025,42401 4027,42405 4030,42410 4033,42414 4035,42418 4038,42421 4041,42425 4044,42429 4047,42433 4050,42436 4054,42440 4057,42443 4060,42446 4064,42450 4067,42453 4071,42456 4075,42459 4079,42462 4082,42465 4086,42467 4090,42470 4094,42472 4099,42475 4103,42477 4107,42479 4111,42482 4116,42484 4120,42485 4124,42487 4129,42489 4133,42490 4138,42492 4142,42493 4147,42494 4152,42496 4156,42496 4161,42497 4166,42498 4171,42499 4175,42499 4180,42500 4185,42500 4190,42500 4195,42500 7743,42500 7748,42500 7752,42500 7756,42500 7760,42500 7764,42499 7768,42499 7772,42499 7776,42498 7781,42497 7785,42497 7788,42496 7793,42496 7797,42495 7801,42494 7805,42493 7809,42492 7813,42491 7816,42489 7820,42488 7824,42487 7828,42486 7832,42484 7836,42483 7840,42481 7844,42480 7847,42478 7851,42476 7855,42475 7858,42473 7862,42471 7866,42469 7869,42467 8441,42142 Z"/>
    <path fill="none" stroke="rgb(0,255,0)" d="M 8441,42142 L 8444,42140 8447,42138 8450,42136 8452,42134 8455,42132 8458,42130 8460,42127 8463,42125 8465,42122 8468,42120 8470,42117 8472,42115 8474,42112 8476,42109 8478,42106 8480,42103 8481,42100 8483,42097 8484,42094 8486,42091 8487,42088 8488,42084 8489,42081 8490,42078 8491,42074 8492,42071 8492,42068 8493,42064 8493,42061 8494,42057 8494,42054 8494,42051 8494,42047 8494,42043 8493,42040 8493,42037 8492,42033 8492,42030 8491,42026 8490,42023 8489,42020 8488,42016 8487,42013 8486,42010 8484,42007 8483,42004 8481,42001 8480,41998 8478,41995 8476,41992 8474,41989 8472,41986 8470,41984 8468,41981 8465,41978 8463,41976 8460,41973 8458,41971 8455,41969 8452,41967 8450,41965 8447,41963 8444,41961 8441,41959 7869,41633 7866,41631 7862,41629 7858,41627 7855,41625 7851,41623 7847,41622 7844,41620 7840,41618 7836,41617 7832,41616 7828,41614 7824,41613 7820,41611 7816,41610 7813,41609 7809,41608 7805,41607 7801,41606 7797,41605 7793,41604 7788,41604 7785,41603 7781,41602 7776,41602 7772,41601 7768,41601 7764,41600 7760,41600 7756,41600 7752,41600 7748,41600 7743,41600 4195,41600 4190,41600 4185,41600 4180,41600 4175,41600 4171,41601 4166,41602 4161,41602 4156,41603 4152,41604 4147,41605 4142,41607 4138,41608 4133,41609 4129,41611 4124,41613 4120,41614 4116,41616 4111,41618 4107,41620 4103,41623 4099,41625 4094,41627 4090,41630 4086,41633 4082,41635 4079,41638 4075,41641 4071,41644 4067,41647 4064,41650 4060,41653 4057,41657 4054,41660 4050,41664 4047,41667 4044,41671 4041,41674 4038,41678 4035,41682 4033,41686 4030,41690 4027,41694 4025,41698 4023,41703 4021,41707 4018,41711 4017,41715 4015,41720 4013,41724 4011,41729 4010,41733 4008,41738 4007,41742 4006,41747 4004,41752 4004,41756 4003,41761 4002,41766 4001,41771 4001,41775 4000,41780 4000,41785 4000,41790 4000,41795 4000,42305 4000,42310 4000,42315 4000,42320 4001,42324 4001,42329 4002,42334 4003,42339 4004,42343 4004,42348 4006,42353 4007,42357 4008,42362 4010,42366 4011,42371 4013,42376 4015,42380 4017,42384 4018,42389 4021,42393 4023,42397 4025,42401 4027,42405 4030,42410 4033,42414 4035,42418 4038,42421 4041,42425 4044,42429 4047,42433 4050,42436 4054,42440 4057,42443 4060,42446 4064,42450 4067,42453 4071,42456 4075,42459 4079,42462 4082,42465 4086,42467 4090,42470 4094,42472 4099,42475 4103,42477 4107,42479 4111,42482 4116,42484 4120,42485 4124,42487 4129,42489 4133,42490 4138,42492 4142,42493 4147,42494 4152,42496 4156,42496 4161,42497 4166,42498 4171,42499 4175,42499 4180,42500 4185,42500 4190,42500 4195,42500 7743,42500 7748,42500 7752,42500 7756,42500 7760,42500 7764,42499 7768,42499 7772,42499 7776,42498 7781,42497 7785,42497 7788,42496 7793,42496 7797,42495 7801,42494 7805,42493 7809,42492 7813,42491 7816,42489 7820,42488 7824,42487 7828,42486 7832,42484 7836,42483 7840,42481 7844,42480 7847,42478 7851,42476 7855,42475 7858,42473 7862,42471 7866,42469 7869,42467 8441,42142 Z"/>
   </g>
  </g>
  <g class="com.sun.star.drawing.PolyPolygonShape">
   <g id="id4">
    <rect class="BoundingBox" stroke="none" fill="none" x="4044" y="41644" width="4407" height="813"/>
    <path fill="rgb(255,255,255)" stroke="none" d="M 8419,42102 L 8420,42102 8422,42100 8424,42099 8425,42098 8427,42097 8428,42096 8430,42094 8431,42093 8433,42092 8434,42090 8435,42089 8437,42087 8438,42085 8439,42084 8440,42082 8441,42081 8442,42079 8442,42077 8444,42075 8444,42074 8445,42072 8446,42070 8446,42068 8447,42066 8447,42064 8448,42062 8448,42060 8448,42058 8449,42056 8449,42054 8449,42052 8449,42051 8449,42048 8449,42046 8449,42045 8448,42043 8448,42041 8448,42039 8447,42037 8447,42035 8446,42033 8446,42031 8445,42029 8444,42027 8444,42026 8442,42024 8442,42022 8441,42020 8440,42019 8439,42017 8438,42015 8437,42014 8435,42012 8434,42011 8433,42009 8431,42008 8430,42006 8428,42005 8427,42004 8425,42003 8424,42001 8422,42000 8420,41999 8419,41998 7847,41673 7841,41670 7835,41667 7829,41663 7823,41660 7816,41658 7810,41655 7804,41653 7797,41652 7791,41650 7784,41648 7777,41647 7771,41646 7764,41645 7757,41645 7750,41645 7743,41645 4195,41645 4191,41645 4187,41645 4183,41645 4180,41645 4176,41646 4172,41646 4169,41647 4165,41647 4162,41648 4158,41649 4155,41650 4151,41651 4147,41652 4144,41653 4140,41654 4137,41656 4134,41657 4130,41659 4127,41661 4124,41662 4121,41665 4117,41667 4114,41669 4111,41671 4108,41673 4105,41675 4102,41677 4099,41680 4097,41682 4094,41684 4091,41687 4089,41690 4086,41692 4083,41695 4081,41698 4079,41700 4076,41703 4074,41706 4072,41709 4070,41712 4068,41715 4066,41718 4064,41722 4062,41725 4061,41728 4059,41731 4058,41735 4056,41738 4055,41742 4054,41745 4052,41748 4051,41752 4050,41755 4049,41759 4048,41763 4048,41766 4047,41770 4046,41773 4046,41777 4045,41781 4045,41784 4045,41788 4045,41792 4045,41796 4045,42305 4045,42309 4045,42313 4045,42316 4045,42320 4046,42324 4046,42327 4047,42331 4048,42335 4048,42338 4049,42342 4050,42345 4051,42349 4052,42352 4054,42356 4055,42359 4056,42363 4058,42366 4059,42370 4061,42373 4062,42376 4064,42379 4066,42382 4068,42385 4070,42389 4072,42392 4074,42395 4076,42397 4079,42401 4081,42403 4083,42406 4086,42409 4089,42411 4091,42414 4094,42416 4097,42419 4099,42421 4102,42424 4105,42426 4108,42428 4111,42430 4114,42432 4117,42434 4121,42436 4124,42438 4127,42439 4130,42441 4134,42442 4137,42444 4140,42445 4144,42446 4147,42448 4151,42449 4155,42450 4158,42451 4162,42452 4165,42452 4169,42453 4172,42454 4176,42454 4180,42455 4183,42455 4187,42455 4191,42455 4195,42455 7743,42455 7750,42455 7757,42455 7764,42454 7771,42454 7777,42452 7784,42451 7791,42450 7797,42448 7804,42446 7810,42444 7816,42442 7823,42440 7829,42437 7835,42434 7841,42431 7847,42428 8419,42102 Z"/>
    <path fill="none" stroke="rgb(255,255,255)" d="M 8419,42102 L 8420,42102 8422,42100 8424,42099 8425,42098 8427,42097 8428,42096 8430,42094 8431,42093 8433,42092 8434,42090 8435,42089 8437,42087 8438,42085 8439,42084 8440,42082 8441,42081 8442,42079 8442,42077 8444,42075 8444,42074 8445,42072 8446,42070 8446,42068 8447,42066 8447,42064 8448,42062 8448,42060 8448,42058 8449,42056 8449,42054 8449,42052 8449,42051 8449,42048 8449,42046 8449,42045 8448,42043 8448,42041 8448,42039 8447,42037 8447,42035 8446,42033 8446,42031 8445,42029 8444,42027 8444,42026 8442,42024 8442,42022 8441,42020 8440,42019 8439,42017 8438,42015 8437,42014 8435,42012 8434,42011 8433,42009 8431,42008 8430,42006 8428,42005 8427,42004 8425,42003 8424,42001 8422,42000 8420,41999 8419,41998 7847,41673 7841,41670 7835,41667 7829,41663 7823,41660 7816,41658 7810,41655 7804,41653 7797,41652 7791,41650 7784,41648 7777,41647 7771,41646 7764,41645 7757,41645 7750,41645 7743,41645 4195,41645 4191,41645 4187,41645 4183,41645 4180,41645 4176,41646 4172,41646 4169,41647 4165,41647 4162,41648 4158,41649 4155,41650 4151,41651 4147,41652 4144,41653 4140,41654 4137,41656 4134,41657 4130,41659 4127,41661 4124,41662 4121,41665 4117,41667 4114,41669 4111,41671 4108,41673 4105,41675 4102,41677 4099,41680 4097,41682 4094,41684 4091,41687 4089,41690 4086,41692 4083,41695 4081,41698 4079,41700 4076,41703 4074,41706 4072,41709 4070,41712 4068,41715 4066,41718 4064,41722 4062,41725 4061,41728 4059,41731 4058,41735 4056,41738 4055,41742 4054,41745 4052,41748 4051,41752 4050,41755 4049,41759 4048,41763 4048,41766 4047,41770 4046,41773 4046,41777 4045,41781 4045,41784 4045,41788 4045,41792 4045,41796 4045,42305 4045,42309 4045,42313 4045,42316 4045,42320 4046,42324 4046,42327 4047,42331 4048,42335 4048,42338 4049,42342 4050,42345 4051,42349 4052,42352 4054,42356 4055,42359 4056,42363 4058,42366 4059,42370 4061,42373 4062,42376 4064,42379 4066,42382 4068,42385 4070,42389 4072,42392 4074,42395 4076,42397 4079,42401 4081,42403 4083,42406 4086,42409 4089,42411 4091,42414 4094,42416 4097,42419 4099,42421 4102,42424 4105,42426 4108,42428 4111,42430 4114,42432 4117,42434 4121,42436 4124,42438 4127,42439 4130,42441 4134,42442 4137,42444 4140,42445 4144,42446 4147,42448 4151,42449 4155,42450 4158,42451 4162,42452 4165,42452 4169,42453 4172,42454 4176,42454 4180,42455 4183,42455 4187,42455 4191,42455 4195,42455 7743,42455 7750,42455 7757,42455 7764,42454 7771,42454 7777,42452 7784,42451 7791,42450 7797,42448 7804,42446 7810,42444 7816,42442 7823,42440 7829,42437 7835,42434 7841,42431 7847,42428 8419,42102 Z"/>
   </g>
  </g>
  <g class="com.sun.star.drawing.PolyPolygonShape">
   <g id="id5">
    <rect class="BoundingBox" stroke="none" fill="none" x="4088" y="41688" width="634" height="724"/>
    <path fill="rgb(0,255,0)" stroke="none" d="M 4720,42049 L 4720,41689 4195,41689 4192,41690 4189,41690 4187,41690 4184,41690 4182,41690 4179,41691 4177,41691 4174,41692 4172,41692 4169,41693 4167,41693 4164,41694 4162,41695 4159,41696 4157,41697 4154,41698 4152,41698 4150,41700 4147,41701 4145,41702 4143,41703 4140,41705 4138,41706 4136,41707 4134,41709 4132,41710 4130,41712 4128,41713 4126,41715 4124,41717 4122,41719 4120,41720 4119,41722 4117,41724 4115,41726 4113,41728 4112,41730 4110,41732 4109,41734 4107,41736 4106,41738 4105,41741 4103,41743 4102,41745 4101,41747 4100,41750 4099,41752 4098,41754 4097,41757 4096,41759 4095,41762 4094,41764 4093,41767 4093,41769 4092,41772 4092,41774 4091,41777 4091,41779 4090,41782 4090,41784 4090,41787 4090,41789 4090,41792 4089,41795 4090,42305 4090,42308 4090,42310 4090,42313 4090,42316 4090,42318 4091,42321 4091,42323 4092,42326 4092,42328 4093,42331 4093,42333 4094,42336 4095,42338 4096,42341 4097,42343 4098,42346 4099,42348 4100,42350 4101,42352 4102,42355 4103,42357 4105,42359 4106,42361 4107,42364 4109,42366 4110,42368 4112,42370 4113,42372 4115,42374 4117,42376 4119,42378 4120,42380 4122,42381 4124,42383 4126,42385 4128,42387 4130,42388 4132,42390 4134,42391 4136,42393 4138,42394 4140,42395 4143,42397 4145,42398 4147,42399 4150,42400 4152,42401 4154,42402 4157,42403 4159,42404 4162,42405 4164,42406 4167,42407 4169,42407 4172,42408 4174,42408 4177,42409 4179,42409 4182,42410 4184,42410 4187,42410 4189,42410 4192,42410 4195,42410 4720,42410 4720,42049 Z"/>
    <path fill="none" stroke="rgb(0,255,0)" d="M 4720,42049 L 4720,41689 4195,41689 4192,41690 4189,41690 4187,41690 4184,41690 4182,41690 4179,41691 4177,41691 4174,41692 4172,41692 4169,41693 4167,41693 4164,41694 4162,41695 4159,41696 4157,41697 4154,41698 4152,41698 4150,41700 4147,41701 4145,41702 4143,41703 4140,41705 4138,41706 4136,41707 4134,41709 4132,41710 4130,41712 4128,41713 4126,41715 4124,41717 4122,41719 4120,41720 4119,41722 4117,41724 4115,41726 4113,41728 4112,41730 4110,41732 4109,41734 4107,41736 4106,41738 4105,41741 4103,41743 4102,41745 4101,41747 4100,41750 4099,41752 4098,41754 4097,41757 4096,41759 4095,41762 4094,41764 4093,41767 4093,41769 4092,41772 4092,41774 4091,41777 4091,41779 4090,41782 4090,41784 4090,41787 4090,41789 4090,41792 4089,41795 4090,42305 4090,42308 4090,42310 4090,42313 4090,42316 4090,42318 4091,42321 4091,42323 4092,42326 4092,42328 4093,42331 4093,42333 4094,42336 4095,42338 4096,42341 4097,42343 4098,42346 4099,42348 4100,42350 4101,42352 4102,42355 4103,42357 4105,42359 4106,42361 4107,42364 4109,42366 4110,42368 4112,42370 4113,42372 4115,42374 4117,42376 4119,42378 4120,42380 4122,42381 4124,42383 4126,42385 4128,42387 4130,42388 4132,42390 4134,42391 4136,42393 4138,42394 4140,42395 4143,42397 4145,42398 4147,42399 4150,42400 4152,42401 4154,42402 4157,42403 4159,42404 4162,42405 4164,42406 4167,42407 4169,42407 4172,42408 4174,42408 4177,42409 4179,42409 4182,42410 4184,42410 4187,42410 4189,42410 4192,42410 4195,42410 4720,42410 4720,42049 Z"/>
   </g>
  </g>
  <g class="com.sun.star.drawing.PolyPolygonShape">
   <g id="id6">
    <rect class="BoundingBox" stroke="none" fill="none" x="4763" y="41688" width="3345" height="724"/>
    <path fill="rgb(0,255,0)" stroke="none" d="M 8097,42075 L 8098,42074 8099,42073 8100,42071 8101,42070 8102,42068 8102,42067 8103,42065 8104,42063 8104,42061 8105,42060 8105,42058 8105,42056 8106,42055 8106,42053 8106,42051 8106,42050 8106,42048 8106,42046 8106,42044 8105,42043 8105,42041 8105,42039 8104,42038 8104,42036 8103,42035 8102,42033 8102,42032 8101,42030 8100,42029 8099,42027 8098,42026 8097,42025 7871,41750 7868,41746 7865,41743 7862,41739 7858,41736 7855,41733 7852,41730 7848,41727 7845,41724 7841,41722 7837,41719 7834,41716 7830,41714 7826,41712 7822,41710 7818,41707 7814,41705 7810,41703 7805,41702 7801,41700 7797,41698 7793,41697 7788,41696 7784,41695 7780,41694 7775,41693 7771,41692 7766,41691 7761,41690 7757,41690 7752,41690 7748,41690 7743,41689 4764,41689 4764,42410 7743,42410 7748,42410 7752,42410 7757,42410 7761,42409 7766,42409 7771,42408 7775,42407 7780,42406 7784,42405 7788,42404 7793,42403 7797,42401 7801,42400 7805,42398 7810,42396 7814,42394 7818,42393 7822,42390 7826,42388 7830,42386 7834,42383 7837,42381 7841,42378 7845,42376 7848,42373 7852,42370 7855,42367 7858,42364 7862,42360 7865,42357 7868,42354 7871,42350 8097,42075 Z"/>
    <path fill="none" stroke="rgb(0,255,0)" d="M 8097,42075 L 8098,42074 8099,42073 8100,42071 8101,42070 8102,42068 8102,42067 8103,42065 8104,42063 8104,42061 8105,42060 8105,42058 8105,42056 8106,42055 8106,42053 8106,42051 8106,42050 8106,42048 8106,42046 8106,42044 8105,42043 8105,42041 8105,42039 8104,42038 8104,42036 8103,42035 8102,42033 8102,42032 8101,42030 8100,42029 8099,42027 8098,42026 8097,42025 7871,41750 7868,41746 7865,41743 7862,41739 7858,41736 7855,41733 7852,41730 7848,41727 7845,41724 7841,41722 7837,41719 7834,41716 7830,41714 7826,41712 7822,41710 7818,41707 7814,41705 7810,41703 7805,41702 7801,41700 7797,41698 7793,41697 7788,41696 7784,41695 7780,41694 7775,41693 7771,41692 7766,41691 7761,41690 7757,41690 7752,41690 7748,41690 7743,41689 4764,41689 4764,42410 7743,42410 7748,42410 7752,42410 7757,42410 7761,42409 7766,42409 7771,42408 7775,42407 7780,42406 7784,42405 7788,42404 7793,42403 7797,42401 7801,42400 7805,42398 7810,42396 7814,42394 7818,42393 7822,42390 7826,42388 7830,42386 7834,42383 7837,42381 7841,42378 7845,42376 7848,42373 7852,42370 7855,42367 7858,42364 7862,42360 7865,42357 7868,42354 7871,42350 8097,42075 Z"/>
   </g>
  </g>
  <g class="com.sun.star.drawing.PolyPolygonShape">
   <g id="id7">
    <rect class="BoundingBox" stroke="none" fill="none" x="4134" y="41733" width="543" height="634"/>
    <path fill="rgb(255,255,255)" stroke="none" d="M 4434,41954 L 4375,41954 4388,41734 4362,41734 4303,41954 4505,41954 4434,41954 Z M 4505,41954 L 4446,41734 4421,41734 4434,41954 4505,41954 Z M 4675,42006 L 4675,41983 4135,41983 4135,42006 4199,42006 4192,42064 4235,42064 4230,42006 4578,42006 4573,42064 4619,42064 4610,42006 4675,42006 Z M 4446,42365 L 4615,42365 4524,42028 4437,42028 4446,42365 Z M 4192,42365 L 4362,42365 4371,42028 4285,42028 4192,42365 Z"/>
    <path fill="none" stroke="rgb(255,255,255)" d="M 4434,41954 L 4375,41954 4388,41734 4362,41734 4303,41954 4505,41954 4434,41954 Z"/>
    <path fill="none" stroke="rgb(255,255,255)" d="M 4505,41954 L 4446,41734 4421,41734 4434,41954 4505,41954 Z"/>
    <path fill="none" stroke="rgb(255,255,255)" d="M 4675,42006 L 4675,41983 4135,41983 4135,42006 4199,42006 4192,42064 4235,42064 4230,42006 4578,42006 4573,42064 4619,42064 4610,42006 4675,42006 Z"/>
    <path fill="none" stroke="rgb(255,255,255)" d="M 4446,42365 L 4615,42365 4524,42028 4437,42028 4446,42365 Z"/>
    <path fill="none" stroke="rgb(255,255,255)" d="M 4192,42365 L 4362,42365 4371,42028 4285,42028 4192,42365 Z"/>
   </g>
  </g>
 </g>
</svg>