<?xml version="1.0" encoding="UTF-8"?>
<!DOCTYPE svg PUBLIC "-//W3C//DTD SVG 1.1//EN" "http://www.w3.org/Graphics/SVG/1.1/DTD/svg11.dtd">
<svg version="1.2" width="44.97mm" height="9.03mm" viewBox="8999 41599 4497 903" preserveAspectRatio="xMidYMid" fill-rule="evenodd" stroke-width="28.222" stroke-linejoin="round" xmlns="http://www.w3.org/2000/svg" xmlns:ooo="http://xml.openoffice.org/svg/export" xmlns:xlink="http://www.w3.org/1999/xlink" xmlns:presentation="http://sun.com/xmlns/staroffice/presentation" xmlns:smil="http://www.w3.org/2001/SMIL20/" xmlns:anim="urn:oasis:names:tc:opendocument:xmlns:animation:1.0" xml:space="preserve">
 <defs class="EmbeddedBulletChars">
  <g id="bullet-char-template-57356" transform="scale(0.00048828125,-0.00048828125)">
   <path d="M 580,1141 L 1163,571 580,0 -4,571 580,1141 Z"/>
  </g>
  <g id="bullet-char-template-57354" transform="scale(0.00048828125,-0.00048828125)">
   <path d="M 8,1128 L 1137,1128 1137,0 8,0 8,1128 Z"/>
  </g>
  <g id="bullet-char-template-10146" transform="scale(0.00048828125,-0.00048828125)">
   <path d="M 174,0 L 602,739 174,1481 1456,739 174,0 Z M 1358,739 L 309,1346 659,739 1358,739 Z"/>
  </g>
  <g id="bullet-char-template-10132" transform="scale(0.00048828125,-0.00048828125)">
   <path d="M 2015,739 L 1276,0 717,0 1260,543 174,543 174,936 1260,936 717,1481 1274,1481 2015,739 Z"/>
  </g>
  <g id="bullet-char-template-10007" transform="scale(0.00048828125,-0.00048828125)">
   <path d="M 0,-2 C -7,14 -16,27 -25,37 L 356,567 C 262,823 215,952 215,954 215,979 228,992 255,992 264,992 276,990 289,987 310,991 331,999 354,1012 L 381,999 492,748 772,1049 836,1024 860,1049 C 881,1039 901,1025 922,1006 886,937 835,863 770,784 769,783 710,716 594,584 L 774,223 C 774,196 753,168 711,139 L 727,119 C 717,90 699,76 672,76 641,76 570,178 457,381 L 164,-76 C 142,-110 111,-127 72,-127 30,-127 9,-110 8,-76 1,-67 -2,-52 -2,-32 -2,-23 -1,-13 0,-2 Z"/>
  </g>
  <g id="bullet-char-template-10004" transform="scale(0.00048828125,-0.00048828125)">
   <path d="M 285,-33 C 182,-33 111,30 74,156 52,228 41,333 41,471 41,549 55,616 82,672 116,743 169,778 240,778 293,778 328,747 346,684 L 369,508 C 377,444 397,411 428,410 L 1163,1116 C 1174,1127 1196,1133 1229,1133 1271,1133 1292,1118 1292,1087 L 1292,965 C 1292,929 1282,901 1262,881 L 442,47 C 390,-6 338,-33 285,-33 Z"/>
  </g>
  <g id="bullet-char-template-9679" transform="scale(0.00048828125,-0.00048828125)">
   <path d="M 813,0 C 632,0 489,54 383,161 276,268 223,411 223,592 223,773 276,916 383,1023 489,1130 632,1184 813,1184 992,1184 1136,1130 1245,1023 1353,916 1407,772 1407,592 1407,412 1353,268 1245,161 1136,54 992,0 813,0 Z"/>
  </g>
  <g id="bullet-char-template-8226" transform="scale(0.00048828125,-0.00048828125)">
   <path d="M 346,457 C 273,457 209,483 155,535 101,586 74,649 74,723 74,796 101,859 155,911 209,963 273,989 346,989 419,989 480,963 531,910 582,859 608,796 608,723 608,648 583,586 532,535 482,483 420,457 346,457 Z"/>
  </g>
  <g id="bullet-char-template-8211" transform="scale(0.00048828125,-0.00048828125)">
   <path d="M -4,459 L 1135,459 1135,606 -4,606 -4,459 Z"/>
  </g>
  <g id="bullet-char-template-61548" transform="scale(0.00048828125,-0.00048828125)">
   <path d="M 173,740 C 173,903 231,1043 346,1159 462,1274 601,1332 765,1332 928,1332 1067,1274 1183,1159 1299,1043 1357,903 1357,740 1357,577 1299,437 1183,322 1067,206 928,148 765,148 601,148 462,206 346,322 231,437 173,577 173,740 Z"/>
  </g>
 </defs>
 <g class="Page">
  <g class="com.sun.star.drawing.PolyPolygonShape">
   <g id="id3">
    <rect class="BoundingBox" stroke="none" fill="none" x="8999" y="41599" width="4497" height="903"/>
    <path fill="rgb(255,255,255)" stroke="none" d="M 13441,42142 L 13444,42140 13447,42138 13450,42136 13452,42134 13455,42132 13458,42130 13460,42128 13463,42125 13465,42123 13468,42120 13470,42117 13472,42115 13474,42112 13476,42109 13478,42106 13480,42103 13481,42100 13483,42097 13484,42094 13486,42091 13487,42088 13488,42084 13489,42081 13490,42078 13491,42074 13492,42071 13493,42068 13493,42064 13493,42061 13494,42057 13494,42054 13494,42051 13494,42047 13494,42043 13493,42040 13493,42037 13493,42033 13492,42030 13491,42026 13490,42023 13489,42020 13488,42017 13487,42013 13486,42010 13484,42007 13483,42004 13481,42001 13480,41998 13478,41995 13476,41992 13474,41989 13472,41986 13470,41984 13468,41981 13465,41978 13463,41976 13460,41973 13458,41971 13455,41969 13452,41967 13450,41965 13447,41963 13444,41961 13441,41959 12869,41633 12866,41631 12862,41629 12858,41627 12855,41625 12851,41623 12847,41622 12844,41620 12840,41619 12836,41617 12832,41616 12828,41614 12824,41613 12820,41611 12816,41610 12813,41609 12809,41608 12805,41607 12801,41606 12797,41605 12793,41604 12788,41604 12785,41603 12780,41602 12776,41602 12772,41601 12768,41601 12764,41600 12760,41600 12756,41600 12752,41600 12748,41600 12743,41600 9195,41600 9190,41600 9185,41600 9180,41600 9175,41600 9171,41601 9166,41602 9161,41602 9156,41603 9152,41604 9147,41605 9142,41607 9138,41608 9133,41609 9129,41611 9124,41613 9120,41614 9116,41616 9111,41618 9107,41620 9103,41623 9099,41625 9094,41627 9090,41630 9086,41633 9082,41635 9079,41638 9075,41641 9071,41644 9067,41647 9064,41650 9060,41653 9057,41657 9054,41660 9050,41664 9047,41667 9044,41671 9041,41675 9038,41678 9035,41682 9033,41686 9030,41690 9027,41694 9025,41698 9023,41703 9021,41707 9018,41711 9017,41715 9015,41720 9013,41724 9011,41729 9010,41733 9008,41738 9007,41742 9006,41747 9004,41752 9004,41756 9003,41761 9002,41766 9001,41771 9001,41775 9000,41780 9000,41785 9000,41790 9000,41795 9000,42305 9000,42310 9000,42315 9000,42320 9001,42324 9001,42329 9002,42334 9003,42339 9004,42344 9004,42348 9006,42353 9007,42357 9008,42362 9010,42367 9011,42371 9013,42376 9015,42380 9017,42384 9018,42389 9021,42393 9023,42397 9025,42401 9027,42405 9030,42410 9033,42414 9035,42418 9038,42421 9041,42425 9044,42429 9047,42433 9050,42436 9054,42440 9057,42443 9060,42446 9064,42450 9067,42453 9071,42456 9075,42459 9079,42462 9082,42465 9086,42467 9090,42470 9094,42473 9099,42475 9103,42477 9107,42479 9111,42482 9116,42484 9120,42485 9124,42487 9129,42489 9133,42490 9138,42492 9142,42493 9147,42495 9152,42496 9156,42496 9161,42498 9166,42498 9171,42499 9175,42499 9180,42500 9185,42500 9190,42500 9195,42500 12743,42500 12748,42500 12752,42500 12756,42500 12760,42500 12764,42499 12768,42499 12772,42499 12776,42498 12780,42498 12785,42497 12788,42496 12793,42496 12797,42495 12801,42494 12805,42493 12809,42492 12813,42491 12816,42490 12820,42488 12824,42487 12828,42486 12832,42484 12836,42483 12840,42481 12844,42480 12847,42478 12851,42476 12855,42475 12858,42473 12862,42471 12866,42469 12869,42467 13441,42142 Z"/>
    <path fill="none" stroke="rgb(0,0,0)" d="M 13441,42142 L 13444,42140 13447,42138 13450,42136 13452,42134 13455,42132 13458,42130 13460,42128 13463,42125 13465,42123 13468,42120 13470,42117 13472,42115 13474,42112 13476,42109 13478,42106 13480,42103 13481,42100 13483,42097 13484,42094 13486,42091 13487,42088 13488,42084 13489,42081 13490,42078 13491,42074 13492,42071 13493,42068 13493,42064 13493,42061 13494,42057 13494,42054 13494,42051 13494,42047 13494,42043 13493,42040 13493,42037 13493,42033 13492,42030 13491,42026 13490,42023 13489,42020 13488,42017 13487,42013 13486,42010 13484,42007 13483,42004 13481,42001 13480,41998 13478,41995 13476,41992 13474,41989 13472,41986 13470,41984 13468,41981 13465,41978 13463,41976 13460,41973 13458,41971 13455,41969 13452,41967 13450,41965 13447,41963 13444,41961 13441,41959 12869,41633 12866,41631 12862,41629 12858,41627 12855,41625 12851,41623 12847,41622 12844,41620 12840,41619 12836,41617 12832,41616 12828,41614 12824,41613 12820,41611 12816,41610 12813,41609 12809,41608 12805,41607 12801,41606 12797,41605 12793,41604 12788,41604 12785,41603 12780,41602 12776,41602 12772,41601 12768,41601 12764,41600 12760,41600 12756,41600 12752,41600 12748,41600 12743,41600 9195,41600 9190,41600 9185,41600 9180,41600 9175,41600 9171,41601 9166,41602 9161,41602 9156,41603 9152,41604 9147,41605 9142,41607 9138,41608 9133,41609 9129,41611 9124,41613 9120,41614 9116,41616 9111,41618 9107,41620 9103,41623 9099,41625 9094,41627 9090,41630 9086,41633 9082,41635 9079,41638 9075,41641 9071,41644 9067,41647 9064,41650 9060,41653 9057,41657 9054,41660 9050,41664 9047,41667 9044,41671 9041,41675 9038,41678 9035,41682 9033,41686 9030,41690 9027,41694 9025,41698 9023,41703 9021,41707 9018,41711 9017,41715 9015,41720 9013,41724 9011,41729 9010,41733 9008,41738 9007,41742 9006,41747 9004,41752 9004,41756 9003,41761 9002,41766 9001,41771 9001,41775 9000,41780 9000,41785 9000,41790 9000,41795 9000,42305 9000,42310 9000,42315 9000,42320 9001,42324 9001,42329 9002,42334 9003,42339 9004,42344 9004,42348 9006,42353 9007,42357 9008,42362 9010,42367 9011,42371 9013,42376 9015,42380 9017,42384 9018,42389 9021,42393 9023,42397 9025,42401 9027,42405 9030,42410 9033,42414 9035,42418 9038,42421 9041,42425 9044,42429 9047,42433 9050,42436 9054,42440 9057,42443 9060,42446 9064,42450 9067,42453 9071,42456 9075,42459 9079,42462 9082,42465 9086,42467 9090,42470 9094,42473 9099,42475 9103,42477 9107,42479 9111,42482 9116,42484 9120,42485 9124,42487 9129,42489 9133,42490 9138,42492 9142,42493 9147,42495 9152,42496 9156,42496 9161,42498 9166,42498 9171,42499 9175,42499 9180,42500 9185,42500 9190,42500 9195,42500 12743,42500 12748,42500 12752,42500 12756,42500 12760,42500 12764,42499 12768,42499 12772,42499 12776,42498 12780,42498 12785,42497 12788,42496 12793,42496 12797,42495 12801,42494 12805,42493 12809,42492 12813,42491 12816,42490 12820,42488 12824,42487 12828,42486 12832,42484 12836,42483 12840,42481 12844,42480 12847,42478 12851,42476 12855,42475 12858,42473 12862,42471 12866,42469 12869,42467 13441,42142 Z"/>
   </g>
  </g>
  <g class="com.sun.star.drawing.PolyPolygonShape">
   <g id="id4">
    <rect class="BoundingBox" stroke="none" fill="none" x="9044" y="41644" width="4407" height="813"/>
    <path fill="rgb(0,0,255)" stroke="none" d="M 13419,42103 L 13420,42102 13422,42101 13424,42100 13425,42098 13427,42097 13428,42096 13430,42095 13431,42093 13433,42092 13434,42090 13435,42089 13436,42087 13438,42085 13439,42084 13440,42082 13441,42081 13442,42079 13443,42077 13444,42075 13444,42074 13445,42072 13446,42070 13446,42068 13447,42066 13447,42064 13448,42062 13448,42060 13448,42058 13449,42056 13449,42054 13449,42053 13449,42051 13449,42048 13449,42047 13449,42045 13448,42043 13448,42041 13448,42039 13447,42037 13447,42035 13446,42033 13446,42031 13445,42029 13444,42027 13444,42026 13443,42024 13442,42022 13441,42020 13440,42019 13439,42017 13438,42015 13436,42014 13435,42012 13434,42011 13433,42009 13431,42008 13430,42006 13428,42005 13427,42004 13425,42003 13424,42001 13422,42000 13420,41999 13419,41998 12847,41673 12841,41670 12835,41667 12829,41663 12823,41660 12816,41658 12810,41655 12804,41653 12797,41652 12791,41650 12784,41648 12777,41647 12771,41646 12764,41645 12757,41645 12750,41645 12743,41645 9195,41645 9191,41645 9187,41645 9183,41645 9180,41645 9176,41646 9172,41646 9169,41647 9165,41647 9162,41648 9158,41649 9155,41650 9151,41651 9147,41652 9144,41653 9141,41655 9137,41656 9134,41658 9130,41659 9127,41661 9124,41662 9121,41665 9118,41667 9115,41669 9111,41671 9108,41673 9105,41675 9102,41677 9099,41680 9097,41682 9094,41684 9091,41687 9089,41690 9086,41692 9084,41695 9081,41698 9079,41700 9076,41703 9074,41706 9072,41709 9070,41712 9068,41715 9066,41718 9064,41722 9062,41725 9061,41728 9059,41731 9058,41735 9056,41738 9055,41742 9054,41745 9052,41748 9051,41752 9050,41756 9049,41759 9048,41763 9048,41766 9047,41770 9046,41773 9046,41777 9045,41781 9045,41784 9045,41788 9045,41792 9045,41796 9045,42305 9045,42309 9045,42313 9045,42317 9045,42320 9046,42324 9046,42328 9047,42331 9048,42335 9048,42338 9049,42342 9050,42345 9051,42349 9052,42352 9054,42356 9055,42359 9056,42363 9058,42366 9059,42370 9061,42373 9062,42376 9064,42379 9066,42382 9068,42385 9070,42389 9072,42392 9074,42395 9076,42398 9079,42401 9081,42403 9084,42406 9086,42409 9089,42411 9091,42414 9094,42416 9097,42419 9099,42421 9102,42424 9105,42426 9108,42428 9111,42430 9115,42432 9118,42434 9121,42436 9124,42438 9127,42439 9130,42441 9134,42442 9137,42444 9141,42445 9144,42446 9147,42448 9151,42449 9155,42450 9158,42451 9162,42452 9165,42453 9169,42453 9172,42454 9176,42454 9180,42455 9183,42455 9187,42455 9191,42455 9195,42455 12743,42455 12750,42455 12757,42455 12764,42454 12771,42454 12777,42453 12784,42451 12791,42450 12797,42448 12804,42446 12810,42445 12816,42442 12823,42440 12829,42437 12835,42434 12841,42431 12847,42428 13419,42103 Z"/>
    <path fill="none" stroke="rgb(0,0,255)" d="M 13419,42103 L 13420,42102 13422,42101 13424,42100 13425,42098 13427,42097 13428,42096 13430,42095 13431,42093 13433,42092 13434,42090 13435,42089 13436,42087 13438,42085 13439,42084 13440,42082 13441,42081 13442,42079 13443,42077 13444,42075 13444,42074 13445,42072 13446,42070 13446,42068 13447,42066 13447,42064 13448,42062 13448,42060 13448,42058 13449,42056 13449,42054 13449,42053 13449,42051 13449,42048 13449,42047 13449,42045 13448,42043 13448,42041 13448,42039 13447,42037 13447,42035 13446,42033 13446,42031 13445,42029 13444,42027 13444,42026 13443,42024 13442,42022 13441,42020 13440,42019 13439,42017 13438,42015 13436,42014 13435,42012 13434,42011 13433,42009 13431,42008 13430,42006 13428,42005 13427,42004 13425,42003 13424,42001 13422,42000 13420,41999 13419,41998 12847,41673 12841,41670 12835,41667 12829,41663 12823,41660 12816,41658 12810,41655 12804,41653 12797,41652 12791,41650 12784,41648 12777,41647 12771,41646 12764,41645 12757,41645 12750,41645 12743,41645 9195,41645 9191,41645 9187,41645 9183,41645 9180,41645 9176,41646 9172,41646 9169,41647 9165,41647 9162,41648 9158,41649 9155,41650 9151,41651 9147,41652 9144,41653 9141,41655 9137,41656 9134,41658 9130,41659 9127,41661 9124,41662 9121,41665 9118,41667 9115,41669 9111,41671 9108,41673 9105,41675 9102,41677 9099,41680 9097,41682 9094,41684 9091,41687 9089,41690 9086,41692 9084,41695 9081,41698 9079,41700 9076,41703 9074,41706 9072,41709 9070,41712 9068,41715 9066,41718 9064,41722 9062,41725 9061,41728 9059,41731 9058,41735 9056,41738 9055,41742 9054,41745 9052,41748 9051,41752 9050,41756 9049,41759 9048,41763 9048,41766 9047,41770 9046,41773 9046,41777 9045,41781 9045,41784 9045,41788 9045,41792 9045,41796 9045,42305 9045,42309 9045,42313 9045,42317 9045,42320 9046,42324 9046,42328 9047,42331 9048,42335 9048,42338 9049,42342 9050,42345 9051,42349 9052,42352 9054,42356 9055,42359 9056,42363 9058,42366 9059,42370 9061,42373 9062,42376 9064,42379 9066,42382 9068,42385 9070,42389 9072,42392 9074,42395 9076,42398 9079,42401 9081,42403 9084,42406 9086,42409 9089,42411 9091,42414 9094,42416 9097,42419 9099,42421 9102,42424 9105,42426 9108,42428 9111,42430 9115,42432 9118,42434 9121,42436 9124,42438 9127,42439 9130,42441 9134,42442 9137,42444 9141,42445 9144,42446 9147,42448 9151,42449 9155,42450 9158,42451 9162,42452 9165,42453 9169,42453 9172,42454 9176,42454 9180,42455 9183,42455 9187,42455 9191,42455 9195,42455 12743,42455 12750,42455 12757,42455 12764,42454 12771,42454 12777,42453 12784,42451 12791,42450 12797,42448 12804,42446 12810,42445 12816,42442 12823,42440 12829,42437 12835,42434 12841,42431 12847,42428 13419,42103 Z"/>
   </g>
  </g>
  <g class="com.sun.star.drawing.PolyPolygonShape">
   <g id="id5">
    <rect class="BoundingBox" stroke="none" fill="none" x="9088" y="41688" width="4020" height="724"/>
    <path fill="rgb(255,255,255)" stroke="none" d="M 13097,42074 L 13098,42073 13099,42072 13100,42070 13101,42069 13102,42067 13102,42066 13103,42064 13104,42063 13104,42061 13105,42060 13105,42058 13105,42056 13106,42055 13106,42053 13106,42051 13106,42050 13106,42048 13106,42046 13106,42044 13105,42043 13105,42041 13105,42039 13104,42038 13104,42036 13103,42035 13102,42033 13102,42032 13101,42030 13100,42029 13099,42027 13098,42026 13097,42025 12871,41750 12868,41746 12865,41743 12862,41739 12858,41736 12855,41733 12852,41730 12848,41727 12845,41724 12841,41722 12837,41719 12834,41716 12830,41714 12826,41712 12822,41710 12818,41707 12814,41705 12810,41703 12805,41702 12801,41700 12797,41699 12793,41697 12788,41696 12784,41695 12780,41694 12775,41693 12771,41692 12766,41691 12762,41691 12757,41690 12752,41690 12748,41690 12743,41689 9195,41689 9192,41690 9189,41690 9187,41690 9184,41690 9182,41690 9179,41691 9177,41691 9174,41692 9172,41692 9169,41693 9167,41693 9164,41694 9162,41695 9159,41696 9157,41697 9154,41698 9152,41699 9150,41700 9147,41701 9145,41702 9143,41703 9141,41705 9138,41706 9136,41707 9134,41709 9132,41710 9130,41712 9128,41713 9126,41715 9124,41717 9122,41719 9120,41720 9118,41722 9117,41724 9115,41726 9113,41728 9112,41730 9110,41732 9109,41734 9107,41736 9106,41738 9105,41741 9103,41743 9102,41745 9101,41747 9100,41750 9099,41752 9098,41754 9097,41757 9096,41759 9095,41762 9094,41764 9093,41767 9093,41769 9092,41772 9092,41774 9091,41777 9091,41779 9090,41782 9090,41784 9090,41787 9090,41790 9090,41792 9089,41795 9090,42305 9090,42308 9090,42310 9090,42313 9090,42316 9090,42318 9091,42321 9091,42323 9092,42326 9092,42328 9093,42331 9093,42333 9094,42336 9095,42338 9096,42341 9097,42343 9098,42346 9099,42348 9100,42350 9101,42352 9102,42355 9103,42357 9105,42359 9106,42362 9107,42364 9109,42366 9110,42368 9112,42370 9113,42372 9115,42374 9117,42376 9118,42378 9120,42380 9122,42381 9124,42383 9126,42385 9128,42387 9130,42388 9132,42390 9134,42391 9136,42393 9138,42394 9141,42395 9143,42397 9145,42398 9147,42399 9150,42400 9152,42401 9154,42402 9157,42403 9159,42404 9162,42405 9164,42406 9167,42407 9169,42407 9172,42408 9174,42408 9177,42409 9179,42409 9182,42410 9184,42410 9187,42410 9189,42410 9192,42410 9195,42410 12743,42410 12748,42410 12752,42410 12757,42410 12762,42409 12766,42409 12771,42408 12775,42407 12780,42406 12784,42405 12788,42404 12793,42403 12797,42401 12801,42400 12805,42398 12810,42396 12814,42395 12818,42393 12822,42390 12826,42388 12830,42386 12834,42384 12837,42381 12841,42378 12845,42376 12848,42373 12852,42370 12855,42367 12858,42364 12862,42361 12865,42357 12868,42354 12871,42350 13097,42074 Z"/>
    <path fill="none" stroke="rgb(255,255,255)" d="M 13097,42074 L 13098,42073 13099,42072 13100,42070 13101,42069 13102,42067 13102,42066 13103,42064 13104,42063 13104,42061 13105,42060 13105,42058 13105,42056 13106,42055 13106,42053 13106,42051 13106,42050 13106,42048 13106,42046 13106,42044 13105,42043 13105,42041 13105,42039 13104,42038 13104,42036 13103,42035 13102,42033 13102,42032 13101,42030 13100,42029 13099,42027 13098,42026 13097,42025 12871,41750 12868,41746 12865,41743 12862,41739 12858,41736 12855,41733 12852,41730 12848,41727 12845,41724 12841,41722 12837,41719 12834,41716 12830,41714 12826,41712 12822,41710 12818,41707 12814,41705 12810,41703 12805,41702 12801,41700 12797,41699 12793,41697 12788,41696 12784,41695 12780,41694 12775,41693 12771,41692 12766,41691 12762,41691 12757,41690 12752,41690 12748,41690 12743,41689 9195,41689 9192,41690 9189,41690 9187,41690 9184,41690 9182,41690 9179,41691 9177,41691 9174,41692 9172,41692 9169,41693 9167,41693 9164,41694 9162,41695 9159,41696 9157,41697 9154,41698 9152,41699 9150,41700 9147,41701 9145,41702 9143,41703 9141,41705 9138,41706 9136,41707 9134,41709 9132,41710 9130,41712 9128,41713 9126,41715 9124,41717 9122,41719 9120,41720 9118,41722 9117,41724 9115,41726 9113,41728 9112,41730 9110,41732 9109,41734 9107,41736 9106,41738 9105,41741 9103,41743 9102,41745 9101,41747 9100,41750 9099,41752 9098,41754 9097,41757 9096,41759 9095,41762 9094,41764 9093,41767 9093,41769 9092,41772 9092,41774 9091,41777 9091,41779 9090,41782 9090,41784 9090,41787 9090,41790 9090,41792 9089,41795 9090,42305 9090,42308 9090,42310 9090,42313 9090,42316 9090,42318 9091,42321 9091,42323 9092,42326 9092,42328 9093,42331 9093,42333 9094,42336 9095,42338 9096,42341 9097,42343 9098,42346 9099,42348 9100,42350 9101,42352 9102,42355 9103,42357 9105,42359 9106,42362 9107,42364 9109,42366 9110,42368 9112,42370 9113,42372 9115,42374 9117,42376 9118,42378 9120,42380 9122,42381 9124,42383 9126,42385 9128,42387 9130,42388 9132,42390 9134,42391 9136,42393 9138,42394 9141,42395 9143,42397 9145,42398 9147,42399 9150,42400 9152,42401 9154,42402 9157,42403 9159,42404 9162,42405 9164,42406 9167,42407 9169,42407 9172,42408 9174,42408 9177,42409 9179,42409 9182,42410 9184,42410 9187,42410 9189,42410 9192,42410 9195,42410 12743,42410 12748,42410 12752,42410 12757,42410 12762,42409 12766,42409 12771,42408 12775,42407 12780,42406 12784,42405 12788,42404 12793,42403 12797,42401 12801,42400 12805,42398 12810,42396 12814,42395 12818,42393 12822,42390 12826,42388 12830,42386 12834,42384 12837,42381 12841,42378 12845,42376 12848,42373 12852,42370 12855,42367 12858,42364 12862,42361 12865,42357 12868,42354 12871,42350 13097,42074 Z"/>
   </g>
  </g>
 </g>
</svg>