<?xml version="1.0" encoding="UTF-8"?>
<!DOCTYPE svg PUBLIC "-//W3C//DTD SVG 1.1//EN" "http://www.w3.org/Graphics/SVG/1.1/DTD/svg11.dtd">
<svg version="1.2" width="54.69mm" height="9.03mm" viewBox="19013 39999 5469 903" preserveAspectRatio="xMidYMid" fill-rule="evenodd" stroke-width="28.222" stroke-linejoin="round" xmlns="http://www.w3.org/2000/svg" xmlns:ooo="http://xml.openoffice.org/svg/export" xmlns:xlink="http://www.w3.org/1999/xlink" xmlns:presentation="http://sun.com/xmlns/staroffice/presentation" xmlns:smil="http://www.w3.org/2001/SMIL20/" xmlns:anim="urn:oasis:names:tc:opendocument:xmlns:animation:1.0" xml:space="preserve">
 <defs class="EmbeddedBulletChars">
  <g id="bullet-char-template-57356" transform="scale(0.00048828125,-0.00048828125)">
   <path d="M 580,1141 L 1163,571 580,0 -4,571 580,1141 Z"/>
  </g>
  <g id="bullet-char-template-57354" transform="scale(0.00048828125,-0.00048828125)">
   <path d="M 8,1128 L 1137,1128 1137,0 8,0 8,1128 Z"/>
  </g>
  <g id="bullet-char-template-10146" transform="scale(0.00048828125,-0.00048828125)">
   <path d="M 174,0 L 602,739 174,1481 1456,739 174,0 Z M 1358,739 L 309,1346 659,739 1358,739 Z"/>
  </g>
  <g id="bullet-char-template-10132" transform="scale(0.00048828125,-0.00048828125)">
   <path d="M 2015,739 L 1276,0 717,0 1260,543 174,543 174,936 1260,936 717,1481 1274,1481 2015,739 Z"/>
  </g>
  <g id="bullet-char-template-10007" transform="scale(0.00048828125,-0.00048828125)">
   <path d="M 0,-2 C -7,14 -16,27 -25,37 L 356,567 C 262,823 215,952 215,954 215,979 228,992 255,992 264,992 276,990 289,987 310,991 331,999 354,1012 L 381,999 492,748 772,1049 836,1024 860,1049 C 881,1039 901,1025 922,1006 886,937 835,863 770,784 769,783 710,716 594,584 L 774,223 C 774,196 753,168 711,139 L 727,119 C 717,90 699,76 672,76 641,76 570,178 457,381 L 164,-76 C 142,-110 111,-127 72,-127 30,-127 9,-110 8,-76 1,-67 -2,-52 -2,-32 -2,-23 -1,-13 0,-2 Z"/>
  </g>
  <g id="bullet-char-template-10004" transform="scale(0.00048828125,-0.00048828125)">
   <path d="M 285,-33 C 182,-33 111,30 74,156 52,228 41,333 41,471 41,549 55,616 82,672 116,743 169,778 240,778 293,778 328,747 346,684 L 369,508 C 377,444 397,411 428,410 L 1163,1116 C 1174,1127 1196,1133 1229,1133 1271,1133 1292,1118 1292,1087 L 1292,965 C 1292,929 1282,901 1262,881 L 442,47 C 390,-6 338,-33 285,-33 Z"/>
  </g>
  <g id="bullet-char-template-9679" transform="scale(0.00048828125,-0.00048828125)">
   <path d="M 813,0 C 632,0 489,54 383,161 276,268 223,411 223,592 223,773 276,916 383,1023 489,1130 632,1184 813,1184 992,1184 1136,1130 1245,1023 1353,916 1407,772 1407,592 1407,412 1353,268 1245,161 1136,54 992,0 813,0 Z"/>
  </g>
  <g id="bullet-char-template-8226" transform="scale(0.00048828125,-0.00048828125)">
   <path d="M 346,457 C 273,457 209,483 155,535 101,586 74,649 74,723 74,796 101,859 155,911 209,963 273,989 346,989 419,989 480,963 531,910 582,859 608,796 608,723 608,648 583,586 532,535 482,483 420,457 346,457 Z"/>
  </g>
  <g id="bullet-char-template-8211" transform="scale(0.00048828125,-0.00048828125)">
   <path d="M -4,459 L 1135,459 1135,606 -4,606 -4,459 Z"/>
  </g>
  <g id="bullet-char-template-61548" transform="scale(0.00048828125,-0.00048828125)">
   <path d="M 173,740 C 173,903 231,1043 346,1159 462,1274 601,1332 765,1332 928,1332 1067,1274 1183,1159 1299,1043 1357,903 1357,740 1357,577 1299,437 1183,322 1067,206 928,148 765,148 601,148 462,206 346,322 231,437 173,577 173,740 Z"/>
  </g>
 </defs>
 <g class="Page">
  <g class="com.sun.star.drawing.PolyPolygonShape">
   <g id="id3">
    <rect class="BoundingBox" stroke="none" fill="none" x="19013" y="39999" width="5469" height="903"/>
    <path fill="rgb(255,255,255)" stroke="none" d="M 24480,40450 L 24480,40270 24480,40264 24479,40257 24479,40250 24478,40244 24478,40237 24476,40230 24476,40224 24474,40218 24473,40211 24471,40205 24469,40198 24468,40192 24466,40186 24463,40179 24461,40173 24459,40167 24456,40161 24453,40155 24450,40149 24447,40143 24444,40137 24441,40132 24437,40126 24433,40120 24430,40115 24426,40110 24422,40104 24417,40099 24413,40094 24409,40089 24404,40084 24399,40080 24395,40075 24390,40070 24385,40066 24380,40062 24374,40057 24369,40053 24364,40050 24358,40046 24352,40042 24347,40039 24341,40035 24335,40032 24329,40029 24323,40026 24317,40024 24311,40021 24305,40019 24298,40016 24292,40014 24286,40012 24279,40010 24273,40008 24266,40007 24260,40005 24253,40003 24246,40002 24240,40001 24233,40001 24226,40000 24220,40000 24213,40000 24206,40000 19288,40000 19282,40000 19275,40000 19268,40000 19261,40001 19255,40001 19248,40002 19242,40003 19235,40005 19228,40007 19222,40008 19215,40010 19209,40012 19203,40014 19196,40016 19190,40019 19184,40021 19178,40024 19172,40026 19166,40029 19160,40032 19154,40035 19148,40039 19142,40042 19137,40046 19131,40050 19126,40053 19119,40057 19114,40062 19109,40066 19104,40070 19099,40075 19094,40080 19090,40084 19085,40089 19081,40094 19076,40099 19072,40104 19068,40110 19064,40115 19060,40120 19057,40126 19053,40132 19049,40137 19046,40143 19043,40149 19041,40155 19037,40161 19035,40167 19033,40173 19030,40179 19028,40186 19026,40192 19024,40198 19023,40205 19021,40211 19019,40218 19018,40224 19017,40230 19016,40237 19016,40244 19015,40250 19014,40257 19014,40264 19014,40270 19014,40630 19014,40637 19014,40643 19015,40650 19016,40657 19016,40663 19017,40670 19018,40676 19019,40683 19021,40690 19023,40696 19024,40702 19026,40709 19028,40715 19030,40721 19033,40727 19035,40734 19037,40740 19041,40746 19043,40752 19046,40758 19049,40763 19053,40769 19057,40775 19060,40780 19064,40786 19068,40791 19072,40796 19076,40802 19081,40807 19085,40812 19090,40817 19094,40821 19099,40826 19104,40830 19109,40835 19114,40839 19119,40843 19126,40847 19131,40851 19137,40855 19142,40858 19148,40862 19154,40865 19160,40868 19166,40872 19172,40874 19178,40877 19184,40880 19190,40882 19196,40884 19203,40887 19209,40889 19215,40890 19222,40892 19228,40894 19235,40895 19242,40896 19248,40897 19255,40898 19261,40899 19268,40900 19275,40900 19282,40900 19288,40900 24206,40900 24213,40900 24220,40900 24226,40900 24233,40899 24240,40898 24246,40897 24253,40896 24260,40895 24266,40894 24273,40892 24279,40890 24286,40889 24292,40887 24298,40884 24305,40882 24311,40880 24317,40877 24323,40874 24329,40872 24335,40868 24341,40865 24347,40862 24352,40858 24358,40855 24364,40851 24369,40847 24374,40843 24380,40839 24385,40835 24390,40830 24395,40826 24399,40821 24404,40817 24409,40812 24413,40807 24417,40802 24422,40796 24426,40791 24430,40786 24433,40780 24437,40775 24441,40769 24444,40763 24447,40758 24450,40752 24453,40746 24456,40740 24459,40734 24461,40727 24463,40721 24466,40715 24468,40709 24469,40702 24471,40696 24473,40690 24474,40683 24476,40676 24476,40670 24478,40663 24478,40657 24479,40650 24479,40643 24480,40637 24480,40630 24480,40450 Z"/>
    <path fill="none" stroke="rgb(0,0,0)" d="M 24480,40450 L 24480,40270 24480,40264 24479,40257 24479,40250 24478,40244 24478,40237 24476,40230 24476,40224 24474,40218 24473,40211 24471,40205 24469,40198 24468,40192 24466,40186 24463,40179 24461,40173 24459,40167 24456,40161 24453,40155 24450,40149 24447,40143 24444,40137 24441,40132 24437,40126 24433,40120 24430,40115 24426,40110 24422,40104 24417,40099 24413,40094 24409,40089 24404,40084 24399,40080 24395,40075 24390,40070 24385,40066 24380,40062 24374,40057 24369,40053 24364,40050 24358,40046 24352,40042 24347,40039 24341,40035 24335,40032 24329,40029 24323,40026 24317,40024 24311,40021 24305,40019 24298,40016 24292,40014 24286,40012 24279,40010 24273,40008 24266,40007 24260,40005 24253,40003 24246,40002 24240,40001 24233,40001 24226,40000 24220,40000 24213,40000 24206,40000 19288,40000 19282,40000 19275,40000 19268,40000 19261,40001 19255,40001 19248,40002 19242,40003 19235,40005 19228,40007 19222,40008 19215,40010 19209,40012 19203,40014 19196,40016 19190,40019 19184,40021 19178,40024 19172,40026 19166,40029 19160,40032 19154,40035 19148,40039 19142,40042 19137,40046 19131,40050 19126,40053 19119,40057 19114,40062 19109,40066 19104,40070 19099,40075 19094,40080 19090,40084 19085,40089 19081,40094 19076,40099 19072,40104 19068,40110 19064,40115 19060,40120 19057,40126 19053,40132 19049,40137 19046,40143 19043,40149 19041,40155 19037,40161 19035,40167 19033,40173 19030,40179 19028,40186 19026,40192 19024,40198 19023,40205 19021,40211 19019,40218 19018,40224 19017,40230 19016,40237 19016,40244 19015,40250 19014,40257 19014,40264 19014,40270 19014,40630 19014,40637 19014,40643 19015,40650 19016,40657 19016,40663 19017,40670 19018,40676 19019,40683 19021,40690 19023,40696 19024,40702 19026,40709 19028,40715 19030,40721 19033,40727 19035,40734 19037,40740 19041,40746 19043,40752 19046,40758 19049,40763 19053,40769 19057,40775 19060,40780 19064,40786 19068,40791 19072,40796 19076,40802 19081,40807 19085,40812 19090,40817 19094,40821 19099,40826 19104,40830 19109,40835 19114,40839 19119,40843 19126,40847 19131,40851 19137,40855 19142,40858 19148,40862 19154,40865 19160,40868 19166,40872 19172,40874 19178,40877 19184,40880 19190,40882 19196,40884 19203,40887 19209,40889 19215,40890 19222,40892 19228,40894 19235,40895 19242,40896 19248,40897 19255,40898 19261,40899 19268,40900 19275,40900 19282,40900 19288,40900 24206,40900 24213,40900 24220,40900 24226,40900 24233,40899 24240,40898 24246,40897 24253,40896 24260,40895 24266,40894 24273,40892 24279,40890 24286,40889 24292,40887 24298,40884 24305,40882 24311,40880 24317,40877 24323,40874 24329,40872 24335,40868 24341,40865 24347,40862 24352,40858 24358,40855 24364,40851 24369,40847 24374,40843 24380,40839 24385,40835 24390,40830 24395,40826 24399,40821 24404,40817 24409,40812 24413,40807 24417,40802 24422,40796 24426,40791 24430,40786 24433,40780 24437,40775 24441,40769 24444,40763 24447,40758 24450,40752 24453,40746 24456,40740 24459,40734 24461,40727 24463,40721 24466,40715 24468,40709 24469,40702 24471,40696 24473,40690 24474,40683 24476,40676 24476,40670 24478,40663 24478,40657 24479,40650 24479,40643 24480,40637 24480,40630 24480,40450 Z"/>
   </g>
  </g>
  <g class="com.sun.star.drawing.PolyPolygonShape">
   <g id="id4">
    <rect class="BoundingBox" stroke="none" fill="none" x="23719" y="40148" width="611" height="604"/>
    <path fill="rgb(0,0,0)" stroke="none" d="M 23720,40374 L 23720,40525 24024,40525 24024,40750 24328,40450 24024,40149 24024,40374 23720,40374 Z"/>
    <path fill="none" stroke="rgb(0,0,0)" d="M 23720,40374 L 23720,40525 24024,40525 24024,40750 24328,40450 24024,40149 24024,40374 23720,40374 Z"/>
   </g>
  </g>
  <g class="com.sun.star.drawing.PolyPolygonShape">
   <g id="id5">
    <rect class="BoundingBox" stroke="none" fill="none" x="19110" y="40684" width="419" height="68"/>
    <path fill="rgb(0,0,0)" stroke="none" d="M 19221,40685 L 19194,40685 19194,40707 19128,40707 19111,40750 19527,40750 19510,40707 19443,40707 19443,40685 19417,40685 19417,40707 19221,40707 19221,40685 Z"/>
    <path fill="none" stroke="rgb(0,0,0)" d="M 19221,40685 L 19194,40685 19194,40707 19128,40707 19111,40750 19527,40750 19510,40707 19443,40707 19443,40685 19417,40685 19417,40707 19221,40707 19221,40685 Z"/>
   </g>
  </g>
  <g class="com.sun.star.drawing.PolyPolygonShape">
   <g id="id6">
    <rect class="BoundingBox" stroke="none" fill="none" x="19104" y="40148" width="430" height="520"/>
    <path fill="rgb(0,0,0)" stroke="none" d="M 19346,40365 L 19346,40363 19345,40360 19344,40358 19343,40355 19343,40353 19341,40351 19340,40349 19337,40347 19335,40345 19333,40344 19330,40342 19328,40341 19326,40340 19323,40340 19321,40339 19318,40339 19315,40339 19313,40340 19310,40340 19308,40341 19306,40342 19303,40344 19301,40345 19299,40347 19298,40349 19296,40351 19295,40353 19294,40355 19293,40358 19292,40360 19292,40363 19292,40365 19292,40368 19292,40370 19293,40373 19294,40375 19295,40378 19296,40380 19298,40382 19299,40384 19301,40385 19303,40387 19306,40388 19308,40390 19310,40390 19313,40391 19315,40391 19318,40391 19321,40391 19323,40391 19326,40390 19328,40390 19330,40388 19333,40387 19335,40385 19337,40384 19340,40382 19341,40380 19343,40378 19343,40375 19344,40373 19345,40370 19346,40368 19346,40365 Z M 19213,40611 L 19213,40609 19212,40606 19212,40603 19211,40601 19210,40599 19208,40597 19207,40594 19205,40593 19203,40591 19201,40589 19199,40588 19196,40587 19194,40586 19191,40585 19189,40585 19186,40585 19183,40585 19181,40585 19178,40586 19176,40587 19173,40588 19171,40589 19169,40591 19167,40593 19165,40594 19164,40597 19163,40599 19161,40601 19160,40603 19160,40606 19159,40609 19159,40611 19159,40614 19160,40616 19160,40619 19161,40621 19163,40624 19164,40626 19165,40628 19167,40630 19169,40632 19171,40633 19173,40634 19176,40636 19178,40636 19181,40637 19183,40638 19186,40638 19189,40638 19191,40637 19194,40636 19196,40636 19199,40634 19201,40633 19203,40632 19205,40630 19207,40628 19208,40626 19210,40624 19211,40621 19212,40619 19212,40616 19213,40614 19213,40611 Z M 19478,40611 L 19478,40609 19477,40606 19477,40603 19476,40601 19475,40599 19473,40597 19472,40594 19470,40593 19468,40591 19466,40589 19464,40588 19461,40587 19459,40586 19456,40585 19454,40585 19451,40585 19448,40585 19446,40585 19443,40586 19441,40587 19439,40588 19436,40589 19434,40591 19432,40593 19430,40594 19429,40597 19427,40599 19426,40601 19426,40603 19425,40606 19425,40609 19424,40611 19425,40614 19425,40616 19426,40619 19426,40621 19427,40624 19429,40626 19430,40628 19432,40630 19434,40632 19436,40633 19439,40634 19441,40636 19443,40636 19446,40637 19448,40638 19451,40638 19454,40638 19456,40637 19459,40636 19461,40636 19464,40634 19466,40633 19468,40632 19470,40630 19472,40628 19473,40626 19475,40624 19476,40621 19477,40619 19477,40616 19478,40614 19478,40611 Z M 19184,40199 L 19183,40199 19181,40199 19180,40200 19179,40200 19178,40200 19176,40201 19175,40202 19174,40202 19173,40203 19172,40204 19171,40205 19170,40206 19170,40207 19169,40208 19168,40209 19168,40210 19138,40295 19137,40296 19137,40297 19137,40298 19137,40299 19137,40301 19138,40302 19138,40303 19139,40304 19140,40305 19141,40306 19142,40306 19143,40307 19144,40308 19145,40308 19146,40308 19147,40308 19296,40308 19297,40308 19298,40308 19299,40308 19300,40307 19301,40307 19302,40307 19303,40306 19304,40305 19305,40304 19305,40303 19306,40302 19306,40301 19306,40300 19307,40299 19307,40298 19307,40209 19307,40208 19306,40207 19306,40206 19306,40205 19305,40204 19304,40203 19304,40202 19303,40201 19302,40201 19301,40200 19300,40200 19299,40200 19298,40199 19297,40199 19296,40199 19184,40199 Z M 19341,40199 L 19340,40199 19339,40199 19337,40200 19336,40200 19335,40200 19334,40201 19333,40201 19333,40202 19332,40203 19331,40204 19330,40204 19330,40205 19330,40206 19329,40207 19329,40208 19329,40209 19329,40298 19329,40299 19329,40300 19330,40301 19330,40302 19330,40303 19331,40304 19332,40305 19333,40305 19333,40306 19334,40307 19335,40307 19336,40307 19337,40308 19339,40308 19340,40308 19341,40308 19490,40308 19491,40308 19492,40308 19493,40308 19494,40307 19495,40306 19496,40306 19497,40305 19498,40304 19499,40303 19499,40302 19500,40301 19500,40299 19500,40298 19500,40297 19500,40296 19499,40295 19469,40210 19469,40209 19468,40208 19468,40207 19467,40206 19466,40205 19465,40204 19464,40203 19463,40202 19462,40202 19461,40201 19460,40200 19458,40200 19457,40200 19456,40199 19454,40199 19453,40199 19341,40199 Z M 19429,40149 L 19208,40149 19206,40149 19203,40149 19201,40150 19199,40150 19197,40150 19194,40151 19192,40151 19190,40152 19188,40153 19186,40154 19183,40155 19181,40156 19179,40157 19177,40158 19175,40159 19173,40160 19172,40162 19170,40163 19168,40165 19166,40166 19165,40168 19163,40169 19162,40171 19160,40173 19159,40175 19158,40177 19156,40178 19155,40181 19154,40183 19153,40185 19152,40187 19151,40189 19109,40308 19108,40311 19107,40314 19107,40317 19106,40321 19106,40325 19105,40328 19105,40550 19127,40622 19128,40624 19128,40627 19129,40629 19130,40631 19132,40633 19133,40635 19134,40638 19135,40639 19137,40642 19138,40643 19140,40645 19142,40647 19143,40649 19145,40650 19147,40652 19149,40653 19151,40655 19153,40656 19155,40657 19158,40659 19160,40660 19162,40661 19164,40662 19167,40663 19169,40663 19171,40664 19174,40664 19176,40665 19179,40665 19181,40665 19184,40666 19186,40666 19451,40666 19454,40666 19456,40665 19459,40665 19461,40665 19463,40664 19466,40664 19468,40663 19471,40663 19473,40662 19475,40661 19477,40660 19480,40659 19482,40657 19484,40656 19486,40655 19488,40653 19490,40652 19492,40650 19494,40649 19495,40647 19497,40645 19499,40643 19500,40642 19502,40639 19503,40638 19504,40635 19506,40633 19507,40631 19508,40629 19509,40627 19510,40624 19510,40622 19532,40550 19532,40324 19531,40320 19530,40316 19530,40314 19529,40311 19528,40308 19486,40189 19485,40187 19484,40185 19483,40183 19482,40181 19481,40178 19480,40177 19478,40175 19477,40173 19476,40171 19474,40169 19473,40168 19471,40166 19469,40165 19467,40163 19466,40162 19464,40160 19462,40159 19460,40158 19458,40157 19456,40156 19454,40155 19452,40154 19449,40153 19447,40152 19445,40151 19443,40151 19441,40150 19438,40150 19436,40150 19434,40149 19431,40149 19429,40149 Z"/>
    <path fill="none" stroke="rgb(0,0,0)" d="M 19346,40365 L 19346,40363 19345,40360 19344,40358 19343,40355 19343,40353 19341,40351 19340,40349 19337,40347 19335,40345 19333,40344 19330,40342 19328,40341 19326,40340 19323,40340 19321,40339 19318,40339 19315,40339 19313,40340 19310,40340 19308,40341 19306,40342 19303,40344 19301,40345 19299,40347 19298,40349 19296,40351 19295,40353 19294,40355 19293,40358 19292,40360 19292,40363 19292,40365 19292,40368 19292,40370 19293,40373 19294,40375 19295,40378 19296,40380 19298,40382 19299,40384 19301,40385 19303,40387 19306,40388 19308,40390 19310,40390 19313,40391 19315,40391 19318,40391 19321,40391 19323,40391 19326,40390 19328,40390 19330,40388 19333,40387 19335,40385 19337,40384 19340,40382 19341,40380 19343,40378 19343,40375 19344,40373 19345,40370 19346,40368 19346,40365 Z"/>
    <path fill="none" stroke="rgb(0,0,0)" d="M 19213,40611 L 19213,40609 19212,40606 19212,40603 19211,40601 19210,40599 19208,40597 19207,40594 19205,40593 19203,40591 19201,40589 19199,40588 19196,40587 19194,40586 19191,40585 19189,40585 19186,40585 19183,40585 19181,40585 19178,40586 19176,40587 19173,40588 19171,40589 19169,40591 19167,40593 19165,40594 19164,40597 19163,40599 19161,40601 19160,40603 19160,40606 19159,40609 19159,40611 19159,40614 19160,40616 19160,40619 19161,40621 19163,40624 19164,40626 19165,40628 19167,40630 19169,40632 19171,40633 19173,40634 19176,40636 19178,40636 19181,40637 19183,40638 19186,40638 19189,40638 19191,40637 19194,40636 19196,40636 19199,40634 19201,40633 19203,40632 19205,40630 19207,40628 19208,40626 19210,40624 19211,40621 19212,40619 19212,40616 19213,40614 19213,40611 Z"/>
    <path fill="none" stroke="rgb(0,0,0)" d="M 19478,40611 L 19478,40609 19477,40606 19477,40603 19476,40601 19475,40599 19473,40597 19472,40594 19470,40593 19468,40591 19466,40589 19464,40588 19461,40587 19459,40586 19456,40585 19454,40585 19451,40585 19448,40585 19446,40585 19443,40586 19441,40587 19439,40588 19436,40589 19434,40591 19432,40593 19430,40594 19429,40597 19427,40599 19426,40601 19426,40603 19425,40606 19425,40609 19424,40611 19425,40614 19425,40616 19426,40619 19426,40621 19427,40624 19429,40626 19430,40628 19432,40630 19434,40632 19436,40633 19439,40634 19441,40636 19443,40636 19446,40637 19448,40638 19451,40638 19454,40638 19456,40637 19459,40636 19461,40636 19464,40634 19466,40633 19468,40632 19470,40630 19472,40628 19473,40626 19475,40624 19476,40621 19477,40619 19477,40616 19478,40614 19478,40611 Z"/>
    <path fill="none" stroke="rgb(0,0,0)" d="M 19184,40199 L 19183,40199 19181,40199 19180,40200 19179,40200 19178,40200 19176,40201 19175,40202 19174,40202 19173,40203 19172,40204 19171,40205 19170,40206 19170,40207 19169,40208 19168,40209 19168,40210 19138,40295 19137,40296 19137,40297 19137,40298 19137,40299 19137,40301 19138,40302 19138,40303 19139,40304 19140,40305 19141,40306 19142,40306 19143,40307 19144,40308 19145,40308 19146,40308 19147,40308 19296,40308 19297,40308 19298,40308 19299,40308 19300,40307 19301,40307 19302,40307 19303,40306 19304,40305 19305,40304 19305,40303 19306,40302 19306,40301 19306,40300 19307,40299 19307,40298 19307,40209 19307,40208 19306,40207 19306,40206 19306,40205 19305,40204 19304,40203 19304,40202 19303,40201 19302,40201 19301,40200 19300,40200 19299,40200 19298,40199 19297,40199 19296,40199 19184,40199 Z"/>
    <path fill="none" stroke="rgb(0,0,0)" d="M 19341,40199 L 19340,40199 19339,40199 19337,40200 19336,40200 19335,40200 19334,40201 19333,40201 19333,40202 19332,40203 19331,40204 19330,40204 19330,40205 19330,40206 19329,40207 19329,40208 19329,40209 19329,40298 19329,40299 19329,40300 19330,40301 19330,40302 19330,40303 19331,40304 19332,40305 19333,40305 19333,40306 19334,40307 19335,40307 19336,40307 19337,40308 19339,40308 19340,40308 19341,40308 19490,40308 19491,40308 19492,40308 19493,40308 19494,40307 19495,40306 19496,40306 19497,40305 19498,40304 19499,40303 19499,40302 19500,40301 19500,40299 19500,40298 19500,40297 19500,40296 19499,40295 19469,40210 19469,40209 19468,40208 19468,40207 19467,40206 19466,40205 19465,40204 19464,40203 19463,40202 19462,40202 19461,40201 19460,40200 19458,40200 19457,40200 19456,40199 19454,40199 19453,40199 19341,40199 Z"/>
    <path fill="none" stroke="rgb(0,0,0)" d="M 19429,40149 L 19208,40149 19206,40149 19203,40149 19201,40150 19199,40150 19197,40150 19194,40151 19192,40151 19190,40152 19188,40153 19186,40154 19183,40155 19181,40156 19179,40157 19177,40158 19175,40159 19173,40160 19172,40162 19170,40163 19168,40165 19166,40166 19165,40168 19163,40169 19162,40171 19160,40173 19159,40175 19158,40177 19156,40178 19155,40181 19154,40183 19153,40185 19152,40187 19151,40189 19109,40308 19108,40311 19107,40314 19107,40317 19106,40321 19106,40325 19105,40328 19105,40550 19127,40622 19128,40624 19128,40627 19129,40629 19130,40631 19132,40633 19133,40635 19134,40638 19135,40639 19137,40642 19138,40643 19140,40645 19142,40647 19143,40649 19145,40650 19147,40652 19149,40653 19151,40655 19153,40656 19155,40657 19158,40659 19160,40660 19162,40661 19164,40662 19167,40663 19169,40663 19171,40664 19174,40664 19176,40665 19179,40665 19181,40665 19184,40666 19186,40666 19451,40666 19454,40666 19456,40665 19459,40665 19461,40665 19463,40664 19466,40664 19468,40663 19471,40663 19473,40662 19475,40661 19477,40660 19480,40659 19482,40657 19484,40656 19486,40655 19488,40653 19490,40652 19492,40650 19494,40649 19495,40647 19497,40645 19499,40643 19500,40642 19502,40639 19503,40638 19504,40635 19506,40633 19507,40631 19508,40629 19509,40627 19510,40624 19510,40622 19532,40550 19532,40324 19531,40320 19530,40316 19530,40314 19529,40311 19528,40308 19486,40189 19485,40187 19484,40185 19483,40183 19482,40181 19481,40178 19480,40177 19478,40175 19477,40173 19476,40171 19474,40169 19473,40168 19471,40166 19469,40165 19467,40163 19466,40162 19464,40160 19462,40159 19460,40158 19458,40157 19456,40156 19454,40155 19452,40154 19449,40153 19447,40152 19445,40151 19443,40151 19441,40150 19438,40150 19436,40150 19434,40149 19431,40149 19429,40149 Z"/>
   </g>
  </g>
 </g>
</svg>