<?xml version="1.0" encoding="UTF-8"?>
<!DOCTYPE svg PUBLIC "-//W3C//DTD SVG 1.1//EN" "http://www.w3.org/Graphics/SVG/1.1/DTD/svg11.dtd">
<svg version="1.2" width="53.91mm" height="9.03mm" viewBox="19052 41599 5391 903" preserveAspectRatio="xMidYMid" fill-rule="evenodd" stroke-width="28.222" stroke-linejoin="round" xmlns="http://www.w3.org/2000/svg" xmlns:ooo="http://xml.openoffice.org/svg/export" xmlns:xlink="http://www.w3.org/1999/xlink" xmlns:presentation="http://sun.com/xmlns/staroffice/presentation" xmlns:smil="http://www.w3.org/2001/SMIL20/" xmlns:anim="urn:oasis:names:tc:opendocument:xmlns:animation:1.0" xml:space="preserve">
 <defs class="EmbeddedBulletChars">
  <g id="bullet-char-template-57356" transform="scale(0.00048828125,-0.00048828125)">
   <path d="M 580,1141 L 1163,571 580,0 -4,571 580,1141 Z"/>
  </g>
  <g id="bullet-char-template-57354" transform="scale(0.00048828125,-0.00048828125)">
   <path d="M 8,1128 L 1137,1128 1137,0 8,0 8,1128 Z"/>
  </g>
  <g id="bullet-char-template-10146" transform="scale(0.00048828125,-0.00048828125)">
   <path d="M 174,0 L 602,739 174,1481 1456,739 174,0 Z M 1358,739 L 309,1346 659,739 1358,739 Z"/>
  </g>
  <g id="bullet-char-template-10132" transform="scale(0.00048828125,-0.00048828125)">
   <path d="M 2015,739 L 1276,0 717,0 1260,543 174,543 174,936 1260,936 717,1481 1274,1481 2015,739 Z"/>
  </g>
  <g id="bullet-char-template-10007" transform="scale(0.00048828125,-0.00048828125)">
   <path d="M 0,-2 C -7,14 -16,27 -25,37 L 356,567 C 262,823 215,952 215,954 215,979 228,992 255,992 264,992 276,990 289,987 310,991 331,999 354,1012 L 381,999 492,748 772,1049 836,1024 860,1049 C 881,1039 901,1025 922,1006 886,937 835,863 770,784 769,783 710,716 594,584 L 774,223 C 774,196 753,168 711,139 L 727,119 C 717,90 699,76 672,76 641,76 570,178 457,381 L 164,-76 C 142,-110 111,-127 72,-127 30,-127 9,-110 8,-76 1,-67 -2,-52 -2,-32 -2,-23 -1,-13 0,-2 Z"/>
  </g>
  <g id="bullet-char-template-10004" transform="scale(0.00048828125,-0.00048828125)">
   <path d="M 285,-33 C 182,-33 111,30 74,156 52,228 41,333 41,471 41,549 55,616 82,672 116,743 169,778 240,778 293,778 328,747 346,684 L 369,508 C 377,444 397,411 428,410 L 1163,1116 C 1174,1127 1196,1133 1229,1133 1271,1133 1292,1118 1292,1087 L 1292,965 C 1292,929 1282,901 1262,881 L 442,47 C 390,-6 338,-33 285,-33 Z"/>
  </g>
  <g id="bullet-char-template-9679" transform="scale(0.00048828125,-0.00048828125)">
   <path d="M 813,0 C 632,0 489,54 383,161 276,268 223,411 223,592 223,773 276,916 383,1023 489,1130 632,1184 813,1184 992,1184 1136,1130 1245,1023 1353,916 1407,772 1407,592 1407,412 1353,268 1245,161 1136,54 992,0 813,0 Z"/>
  </g>
  <g id="bullet-char-template-8226" transform="scale(0.00048828125,-0.00048828125)">
   <path d="M 346,457 C 273,457 209,483 155,535 101,586 74,649 74,723 74,796 101,859 155,911 209,963 273,989 346,989 419,989 480,963 531,910 582,859 608,796 608,723 608,648 583,586 532,535 482,483 420,457 346,457 Z"/>
  </g>
  <g id="bullet-char-template-8211" transform="scale(0.00048828125,-0.00048828125)">
   <path d="M -4,459 L 1135,459 1135,606 -4,606 -4,459 Z"/>
  </g>
  <g id="bullet-char-template-61548" transform="scale(0.00048828125,-0.00048828125)">
   <path d="M 173,740 C 173,903 231,1043 346,1159 462,1274 601,1332 765,1332 928,1332 1067,1274 1183,1159 1299,1043 1357,903 1357,740 1357,577 1299,437 1183,322 1067,206 928,148 765,148 601,148 462,206 346,322 231,437 173,577 173,740 Z"/>
  </g>
 </defs>
 <g class="Page">
  <g class="com.sun.star.drawing.PolyPolygonShape">
   <g id="id3">
    <rect class="BoundingBox" stroke="none" fill="none" x="19052" y="41599" width="5391" height="903"/>
    <path fill="rgb(0,0,255)" stroke="none" d="M 24441,42050 L 24441,41871 24441,41864 24441,41857 24440,41850 24440,41844 24439,41837 24438,41831 24437,41824 24436,41818 24434,41811 24433,41805 24431,41797 24429,41791 24427,41785 24425,41779 24423,41772 24420,41766 24418,41760 24415,41754 24412,41748 24409,41742 24406,41736 24403,41731 24399,41725 24395,41720 24392,41714 24388,41709 24384,41703 24380,41698 24375,41693 24371,41688 24367,41683 24362,41679 24357,41674 24352,41669 24347,41665 24342,41661 24337,41657 24332,41653 24327,41649 24321,41645 24316,41641 24310,41638 24304,41634 24298,41632 24293,41628 24287,41625 24281,41623 24275,41620 24269,41618 24262,41615 24256,41613 24250,41611 24243,41609 24236,41607 24230,41606 24223,41605 24217,41604 24210,41603 24203,41602 24197,41601 24190,41600 24184,41600 24177,41600 24170,41600 19322,41600 19316,41600 19309,41600 19303,41600 19296,41601 19289,41602 19283,41603 19276,41604 19270,41605 19263,41606 19257,41607 19250,41609 19244,41611 19238,41613 19231,41615 19225,41618 19219,41620 19213,41623 19207,41625 19201,41628 19195,41632 19189,41634 19184,41638 19178,41641 19173,41645 19167,41649 19162,41653 19157,41657 19151,41661 19146,41665 19141,41669 19136,41674 19132,41679 19127,41683 19123,41688 19118,41693 19114,41698 19110,41703 19106,41709 19102,41714 19098,41720 19095,41725 19091,41731 19088,41736 19085,41742 19081,41748 19079,41754 19076,41760 19073,41766 19071,41772 19069,41779 19066,41785 19064,41791 19063,41797 19061,41805 19060,41811 19058,41818 19057,41824 19056,41831 19055,41837 19054,41844 19054,41850 19053,41857 19053,41864 19053,41871 19053,42230 19053,42237 19053,42243 19054,42250 19054,42257 19055,42263 19056,42270 19057,42276 19058,42283 19060,42290 19061,42296 19063,42302 19064,42309 19066,42315 19069,42321 19071,42328 19073,42334 19076,42340 19079,42346 19081,42352 19085,42357 19088,42363 19091,42369 19095,42375 19098,42380 19102,42386 19106,42391 19110,42396 19114,42402 19118,42407 19123,42412 19127,42417 19132,42421 19136,42426 19141,42430 19146,42435 19151,42439 19157,42443 19162,42447 19167,42451 19173,42455 19178,42458 19184,42462 19189,42465 19195,42468 19201,42472 19207,42474 19213,42477 19219,42480 19225,42482 19231,42484 19238,42487 19244,42489 19250,42490 19257,42492 19263,42494 19270,42495 19276,42496 19283,42497 19289,42498 19296,42499 19303,42500 19309,42500 19316,42500 19322,42500 24170,42500 24177,42500 24184,42500 24190,42500 24197,42499 24203,42498 24210,42497 24217,42496 24223,42495 24230,42494 24236,42492 24243,42490 24250,42489 24256,42487 24262,42484 24269,42482 24275,42480 24281,42477 24287,42474 24293,42472 24298,42468 24304,42465 24310,42462 24316,42458 24321,42455 24327,42451 24332,42447 24337,42443 24342,42439 24347,42435 24352,42430 24357,42426 24362,42421 24367,42417 24371,42412 24375,42407 24380,42402 24384,42396 24388,42391 24392,42386 24395,42380 24399,42375 24403,42369 24406,42363 24409,42357 24412,42352 24415,42346 24418,42340 24420,42334 24423,42328 24425,42321 24427,42315 24429,42309 24431,42302 24433,42296 24434,42290 24436,42283 24437,42276 24438,42270 24439,42263 24440,42257 24440,42250 24441,42243 24441,42237 24441,42230 24441,42050 Z"/>
    <path fill="none" stroke="rgb(0,0,255)" d="M 24441,42050 L 24441,41871 24441,41864 24441,41857 24440,41850 24440,41844 24439,41837 24438,41831 24437,41824 24436,41818 24434,41811 24433,41805 24431,41797 24429,41791 24427,41785 24425,41779 24423,41772 24420,41766 24418,41760 24415,41754 24412,41748 24409,41742 24406,41736 24403,41731 24399,41725 24395,41720 24392,41714 24388,41709 24384,41703 24380,41698 24375,41693 24371,41688 24367,41683 24362,41679 24357,41674 24352,41669 24347,41665 24342,41661 24337,41657 24332,41653 24327,41649 24321,41645 24316,41641 24310,41638 24304,41634 24298,41632 24293,41628 24287,41625 24281,41623 24275,41620 24269,41618 24262,41615 24256,41613 24250,41611 24243,41609 24236,41607 24230,41606 24223,41605 24217,41604 24210,41603 24203,41602 24197,41601 24190,41600 24184,41600 24177,41600 24170,41600 19322,41600 19316,41600 19309,41600 19303,41600 19296,41601 19289,41602 19283,41603 19276,41604 19270,41605 19263,41606 19257,41607 19250,41609 19244,41611 19238,41613 19231,41615 19225,41618 19219,41620 19213,41623 19207,41625 19201,41628 19195,41632 19189,41634 19184,41638 19178,41641 19173,41645 19167,41649 19162,41653 19157,41657 19151,41661 19146,41665 19141,41669 19136,41674 19132,41679 19127,41683 19123,41688 19118,41693 19114,41698 19110,41703 19106,41709 19102,41714 19098,41720 19095,41725 19091,41731 19088,41736 19085,41742 19081,41748 19079,41754 19076,41760 19073,41766 19071,41772 19069,41779 19066,41785 19064,41791 19063,41797 19061,41805 19060,41811 19058,41818 19057,41824 19056,41831 19055,41837 19054,41844 19054,41850 19053,41857 19053,41864 19053,41871 19053,42230 19053,42237 19053,42243 19054,42250 19054,42257 19055,42263 19056,42270 19057,42276 19058,42283 19060,42290 19061,42296 19063,42302 19064,42309 19066,42315 19069,42321 19071,42328 19073,42334 19076,42340 19079,42346 19081,42352 19085,42357 19088,42363 19091,42369 19095,42375 19098,42380 19102,42386 19106,42391 19110,42396 19114,42402 19118,42407 19123,42412 19127,42417 19132,42421 19136,42426 19141,42430 19146,42435 19151,42439 19157,42443 19162,42447 19167,42451 19173,42455 19178,42458 19184,42462 19189,42465 19195,42468 19201,42472 19207,42474 19213,42477 19219,42480 19225,42482 19231,42484 19238,42487 19244,42489 19250,42490 19257,42492 19263,42494 19270,42495 19276,42496 19283,42497 19289,42498 19296,42499 19303,42500 19309,42500 19316,42500 19322,42500 24170,42500 24177,42500 24184,42500 24190,42500 24197,42499 24203,42498 24210,42497 24217,42496 24223,42495 24230,42494 24236,42492 24243,42490 24250,42489 24256,42487 24262,42484 24269,42482 24275,42480 24281,42477 24287,42474 24293,42472 24298,42468 24304,42465 24310,42462 24316,42458 24321,42455 24327,42451 24332,42447 24337,42443 24342,42439 24347,42435 24352,42430 24357,42426 24362,42421 24367,42417 24371,42412 24375,42407 24380,42402 24384,42396 24388,42391 24392,42386 24395,42380 24399,42375 24403,42369 24406,42363 24409,42357 24412,42352 24415,42346 24418,42340 24420,42334 24423,42328 24425,42321 24427,42315 24429,42309 24431,42302 24433,42296 24434,42290 24436,42283 24437,42276 24438,42270 24439,42263 24440,42257 24440,42250 24441,42243 24441,42237 24441,42230 24441,42050 Z"/>
   </g>
  </g>
  <g class="com.sun.star.drawing.PolyPolygonShape">
   <g id="id4">
    <rect class="BoundingBox" stroke="none" fill="none" x="19112" y="41659" width="1305" height="783"/>
    <path fill="rgb(255,255,255)" stroke="none" d="M 20415,42050 L 20415,41660 19322,41660 19317,41660 19312,41660 19307,41660 19302,41661 19297,41661 19291,41662 19286,41663 19282,41664 19276,41665 19271,41666 19266,41667 19261,41668 19257,41670 19252,41672 19247,41673 19242,41675 19238,41678 19233,41681 19228,41683 19224,41685 19219,41688 19214,41690 19210,41693 19206,41696 19202,41699 19197,41702 19193,41705 19189,41708 19185,41711 19182,41715 19178,41718 19174,41722 19171,41726 19167,41729 19164,41733 19160,41737 19157,41741 19154,41745 19151,41750 19148,41754 19145,41758 19143,41762 19140,41767 19137,41771 19135,41776 19133,41781 19131,41786 19129,41790 19127,41795 19125,41800 19123,41805 19122,41810 19120,41815 19119,41819 19118,41824 19117,41829 19116,41835 19115,41840 19114,41845 19114,41850 19113,41855 19113,41860 19113,41865 19113,41871 19113,42230 19113,42235 19113,42240 19113,42246 19114,42251 19114,42256 19115,42261 19116,42266 19117,42271 19118,42276 19119,42281 19120,42286 19122,42291 19123,42296 19125,42301 19127,42306 19129,42311 19131,42315 19133,42320 19135,42325 19137,42329 19140,42334 19143,42338 19145,42343 19148,42347 19151,42351 19154,42356 19157,42359 19160,42363 19164,42367 19167,42371 19171,42375 19174,42379 19178,42382 19182,42386 19185,42389 19189,42393 19193,42396 19197,42399 19202,42402 19206,42405 19210,42408 19214,42410 19219,42413 19224,42416 19228,42418 19233,42420 19238,42422 19242,42424 19247,42426 19252,42428 19257,42430 19261,42431 19266,42433 19271,42434 19276,42435 19282,42436 19286,42437 19291,42438 19297,42439 19302,42439 19307,42440 19312,42440 19317,42440 19322,42440 20415,42440 20415,42050 Z"/>
    <path fill="none" stroke="rgb(255,255,255)" d="M 20415,42050 L 20415,41660 19322,41660 19317,41660 19312,41660 19307,41660 19302,41661 19297,41661 19291,41662 19286,41663 19282,41664 19276,41665 19271,41666 19266,41667 19261,41668 19257,41670 19252,41672 19247,41673 19242,41675 19238,41678 19233,41681 19228,41683 19224,41685 19219,41688 19214,41690 19210,41693 19206,41696 19202,41699 19197,41702 19193,41705 19189,41708 19185,41711 19182,41715 19178,41718 19174,41722 19171,41726 19167,41729 19164,41733 19160,41737 19157,41741 19154,41745 19151,41750 19148,41754 19145,41758 19143,41762 19140,41767 19137,41771 19135,41776 19133,41781 19131,41786 19129,41790 19127,41795 19125,41800 19123,41805 19122,41810 19120,41815 19119,41819 19118,41824 19117,41829 19116,41835 19115,41840 19114,41845 19114,41850 19113,41855 19113,41860 19113,41865 19113,41871 19113,42230 19113,42235 19113,42240 19113,42246 19114,42251 19114,42256 19115,42261 19116,42266 19117,42271 19118,42276 19119,42281 19120,42286 19122,42291 19123,42296 19125,42301 19127,42306 19129,42311 19131,42315 19133,42320 19135,42325 19137,42329 19140,42334 19143,42338 19145,42343 19148,42347 19151,42351 19154,42356 19157,42359 19160,42363 19164,42367 19167,42371 19171,42375 19174,42379 19178,42382 19182,42386 19185,42389 19189,42393 19193,42396 19197,42399 19202,42402 19206,42405 19210,42408 19214,42410 19219,42413 19224,42416 19228,42418 19233,42420 19238,42422 19242,42424 19247,42426 19252,42428 19257,42430 19261,42431 19266,42433 19271,42434 19276,42435 19282,42436 19286,42437 19291,42438 19297,42439 19302,42439 19307,42440 19312,42440 19317,42440 19322,42440 20415,42440 20415,42050 Z"/>
   </g>
  </g>
  <g class="com.sun.star.drawing.PolyPolygonShape">
   <g id="id5">
    <rect class="BoundingBox" stroke="none" fill="none" x="23691" y="41749" width="602" height="603"/>
    <path fill="rgb(255,255,255)" stroke="none" d="M 23692,41974 L 23692,42124 23991,42124 23991,42350 24291,42049 23991,41750 23991,41974 23692,41974 Z"/>
    <path fill="none" stroke="rgb(255,255,255)" d="M 23692,41974 L 23692,42124 23991,42124 23991,42350 24291,42049 23991,41750 23991,41974 23692,41974 Z"/>
   </g>
  </g>
  <g class="com.sun.star.drawing.PolyPolygonShape">
   <g id="id6">
    <rect class="BoundingBox" stroke="none" fill="none" x="19202" y="41749" width="1125" height="603"/>
    <path fill="rgb(0,0,0)" stroke="none" d="M 19886,42118 L 19899,42119 19900,42111 19900,42104 19902,42097 19903,42090 19905,42083 19907,42076 19909,42069 19911,42062 19914,42055 19916,42048 19920,42042 19923,42035 19926,42029 19930,42023 19934,42017 19938,42011 19942,42005 19947,41999 19952,41994 19957,41988 19962,41983 19967,41978 19972,41973 19978,41968 19984,41964 19989,41960 19995,41956 20002,41952 20008,41948 20014,41945 20021,41941 20027,41938 20024,41926 20020,41927 20017,41929 20013,41930 20010,41932 20006,41934 20003,41936 19999,41937 19996,41939 19993,41941 19989,41944 19986,41946 19983,41948 19980,41950 19977,41952 19974,41955 19970,41957 19967,41960 19965,41962 19962,41965 19959,41967 19956,41970 19953,41973 19950,41975 19948,41978 19945,41981 19942,41984 19940,41987 19937,41990 19935,41993 19932,41996 19930,41999 19928,42002 19925,42005 19923,42009 19921,42012 19919,42015 19917,42019 19915,42022 19913,42025 19911,42029 19910,42032 19908,42036 19906,42039 19905,42043 19903,42046 19901,42050 19900,42054 19899,42057 19897,42061 19896,42064 19895,42068 19894,42072 19893,42076 19892,42080 19891,42083 19890,42087 19889,42091 19888,42095 19888,42099 19887,42102 19887,42106 19886,42110 19886,42114 19886,42118 Z M 20087,42120 L 20085,42122 20084,42125 19920,42119 19921,42113 19922,42106 19923,42100 19924,42094 19926,42088 19927,42082 19929,42075 19931,42069 19934,42063 19936,42058 19939,42052 19942,42046 19944,42040 19948,42035 19951,42029 19955,42024 19959,42019 19963,42014 19967,42009 19971,42004 19975,41999 19980,41995 19985,41991 19989,41987 19994,41983 20000,41979 20005,41975 20010,41972 20016,41968 20021,41965 20027,41962 20033,41960 20058,42058 20059,42062 20060,42067 20061,42071 20063,42075 20064,42079 20065,42083 20067,42087 20068,42091 20070,42095 20072,42099 20074,42102 20077,42106 20079,42110 20081,42113 20084,42117 20087,42120 Z M 19750,41995 L 19699,41995 19699,42013 19716,42013 19716,42071 19714,42072 19711,42072 19709,42073 19706,42074 19594,41841 20002,41841 20008,41864 19765,42085 19764,42084 19761,42083 19760,42082 19758,42080 19756,42079 19754,42078 19752,42077 19750,42076 19748,42075 19746,42075 19744,42074 19741,42073 19739,42073 19737,42072 19735,42072 19733,42071 19733,42013 19750,42013 19750,41995 Z M 20101,42108 L 20103,42107 20105,42107 20107,42106 20110,42106 20112,42106 20114,42106 20116,42106 20118,42107 20120,42107 20122,42108 20124,42109 20126,42110 20128,42111 20130,42112 20132,42114 20133,42115 20135,42117 20136,42119 20137,42120 20138,42122 20139,42124 20140,42127 20141,42129 20141,42131 20141,42133 20141,42135 20141,42138 20141,42140 20141,42142 20140,42144 20139,42146 20138,42148 20137,42150 20136,42152 20135,42154 20133,42155 20132,42157 20130,42158 20128,42160 20126,42161 20124,42162 20122,42163 20120,42163 20118,42164 20116,42164 20114,42165 20112,42165 20110,42165 20107,42164 20105,42164 20103,42163 20101,42163 20099,42162 20097,42161 20095,42159 20094,42158 20092,42157 20090,42155 20089,42153 20088,42151 20086,42150 20085,42148 20084,42146 20084,42144 19919,42138 19920,42142 19920,42146 19920,42149 19920,42153 19921,42157 19921,42160 19922,42164 19922,42168 19923,42172 19924,42175 19925,42179 19926,42183 19926,42186 19928,42190 19929,42194 19930,42197 19931,42201 19932,42204 19934,42208 19935,42212 19937,42215 19939,42218 19940,42222 19942,42225 19943,42228 19945,42233 19947,42236 19949,42239 19951,42242 19953,42245 19956,42248 19958,42252 19960,42255 19963,42258 19965,42261 19967,42263 19970,42266 19972,42269 19975,42271 19978,42274 19981,42277 19983,42279 19986,42282 19989,42284 19992,42287 19995,42289 19998,42291 20001,42294 20004,42296 20007,42298 20010,42300 20014,42302 20017,42304 20020,42305 20023,42307 20027,42309 20030,42311 20034,42312 20037,42314 20040,42315 20044,42317 20048,42318 20051,42319 20055,42320 20059,42321 20062,42322 20066,42323 20069,42324 20073,42325 20077,42326 20081,42326 20084,42327 20088,42328 20092,42328 20095,42328 20099,42329 20103,42329 20107,42329 20111,42329 20115,42329 20118,42329 20122,42329 20126,42329 20129,42328 20133,42328 20137,42327 20141,42327 20144,42326 20148,42326 20152,42324 20156,42324 20159,42323 20163,42322 20166,42321 20170,42320 20174,42319 20177,42317 20181,42316 20184,42315 20188,42313 20191,42312 20194,42310 20198,42308 20201,42307 20205,42305 20208,42303 20211,42301 20215,42299 20218,42297 20221,42295 20224,42293 20227,42291 20230,42288 20233,42286 20236,42284 20239,42281 20242,42279 20244,42276 20247,42273 20249,42271 20252,42268 20255,42265 20257,42262 20260,42260 20262,42257 20264,42254 20267,42251 20269,42247 20271,42244 20273,42241 20275,42238 20277,42235 20279,42232 20281,42227 20283,42224 20284,42220 20286,42217 20288,42214 20289,42210 20291,42207 20292,42203 20293,42200 20294,42196 20295,42192 20296,42189 20297,42185 20298,42181 20299,42178 20300,42174 20301,42171 20301,42167 20302,42163 20303,42159 20303,42155 20303,42152 20304,42148 20304,42144 20304,42140 20304,42137 20304,42133 20304,42129 20304,42125 20304,42121 20303,42118 20303,42114 20302,42110 20302,42106 20301,42103 20301,42099 20300,42095 20299,42091 20298,42088 20297,42084 20296,42081 20295,42077 20294,42073 20293,42070 20292,42066 20290,42063 20288,42059 20287,42056 20286,42053 20284,42049 20282,42046 20280,42042 20278,42039 20276,42036 20274,42032 20272,42029 20270,42026 20268,42023 20266,42020 20264,42017 20261,42014 20259,42011 20257,42008 20254,42005 20251,42003 20249,42000 20246,41997 20243,41995 20241,41992 20238,41990 20235,41987 20232,41985 20229,41982 20226,41980 20223,41978 20220,41976 20217,41974 20214,41972 20210,41970 20207,41968 20204,41966 20200,41964 20197,41963 20194,41961 20190,41959 20187,41958 20183,41956 20180,41955 20176,41954 20173,41952 20169,41951 20166,41950 20162,41949 20158,41948 20154,41947 20151,41946 20147,41946 20143,41945 20140,41945 20136,41944 20132,41944 20128,41943 20125,41943 20121,41943 20117,41943 20113,41942 20110,41942 20106,41943 20102,41943 20098,41943 20094,41943 20091,41944 20087,41944 20083,41945 20080,41945 20076,41946 20072,41947 20068,41947 20065,41948 20061,41949 20058,41950 20054,41952 20050,41953 20077,42055 20077,42058 20078,42062 20079,42065 20080,42069 20081,42073 20083,42076 20084,42080 20086,42083 20087,42086 20089,42089 20091,42093 20092,42096 20094,42099 20096,42102 20099,42105 20101,42108 Z M 19495,41961 L 19491,41959 19487,41958 19484,41956 19480,41955 19476,41953 19472,41952 19468,41951 19464,41950 19459,41949 19456,41948 19451,41947 19447,41946 19443,41946 19439,41945 19435,41945 19431,41944 19427,41944 19422,41944 19418,41944 19414,41944 19410,41944 19406,41944 19401,41944 19397,41945 19393,41945 19389,41946 19385,41947 19381,41947 19376,41948 19372,41949 19368,41950 19364,41951 19360,41952 19356,41954 19352,41955 19348,41957 19344,41958 19341,41960 19337,41962 19333,41963 19329,41965 19325,41967 19322,41969 19318,41971 19314,41973 19311,41976 19308,41978 19304,41980 19301,41983 19298,41986 19294,41988 19291,41991 19288,41994 19285,41996 19282,41999 19279,42002 19276,42006 19273,42009 19270,42012 19268,42015 19265,42019 19263,42022 19260,42025 19258,42029 19385,42105 19386,42103 19389,42101 19391,42099 19394,42097 19396,42096 19399,42095 19402,42094 19405,42093 19407,42092 19410,42091 19413,42091 19416,42091 19419,42091 19422,42091 19425,42092 19428,42092 19495,41961 Z M 19227,42010 L 19238,42017 19241,42013 19244,42009 19247,42005 19250,42002 19253,41998 19256,41995 19259,41991 19262,41987 19265,41984 19269,41981 19272,41977 19276,41974 19279,41971 19283,41968 19286,41965 19290,41963 19294,41960 19298,41957 19302,41954 19306,41952 19310,41950 19314,41947 19318,41945 19323,41943 19327,41941 19331,41939 19336,41937 19340,41935 19344,41934 19349,41932 19354,41931 19358,41929 19362,41928 19367,41927 19372,41926 19376,41925 19381,41924 19386,41923 19390,41923 19395,41922 19400,41922 19405,41921 19409,41921 19414,41921 19419,41921 19423,41921 19428,41921 19433,41922 19437,41922 19442,41923 19447,41923 19452,41924 19456,41925 19461,41926 19465,41927 19470,41928 19475,41929 19479,41931 19484,41932 19488,41934 19493,41935 19497,41937 19501,41939 19506,41941 19512,41929 19507,41927 19503,41925 19498,41923 19493,41921 19488,41919 19484,41918 19479,41916 19474,41915 19469,41914 19464,41913 19459,41912 19454,41911 19449,41910 19444,41909 19439,41909 19434,41909 19429,41908 19424,41908 19419,41908 19414,41908 19409,41908 19404,41908 19399,41909 19394,41909 19389,41909 19384,41910 19379,41911 19374,41912 19369,41913 19364,41914 19359,41915 19354,41916 19350,41918 19345,41919 19340,41921 19335,41923 19331,41925 19326,41927 19321,41929 19317,41931 19312,41933 19308,41936 19303,41938 19299,41940 19295,41943 19290,41946 19286,41949 19282,41952 19278,41955 19274,41958 19270,41961 19266,41965 19263,41968 19259,41971 19256,41975 19252,41978 19249,41982 19245,41986 19242,41990 19239,41994 19236,41998 19233,42002 19230,42006 19227,42010 Z M 19532,41930 L 19538,41934 19545,41938 19551,41942 19557,41946 19563,41951 19569,41956 19574,41961 19580,41966 19585,41971 19590,41977 19595,41982 19600,41988 19605,41994 19609,42000 19613,42006 19617,42013 19622,42019 19625,42026 19629,42032 19632,42039 19635,42046 19638,42053 19640,42060 19642,42067 19644,42074 19646,42082 19648,42089 19649,42096 19650,42104 19651,42111 19652,42119 19652,42126 19661,42126 19662,42122 19663,42119 19663,42116 19665,42113 19666,42110 19667,42107 19669,42104 19670,42101 19672,42098 19674,42095 19676,42093 19679,42090 19681,42088 19684,42086 19686,42084 19689,42082 19576,41845 19532,41930 Z M 19522,41949 L 19528,41953 19534,41956 19540,41960 19545,41964 19550,41968 19555,41972 19561,41977 19565,41982 19570,41986 19575,41991 19579,41996 19584,42001 19587,42007 19591,42012 19595,42018 19599,42024 19602,42029 19606,42035 19609,42041 19612,42048 19614,42054 19616,42060 19620,42066 19622,42073 19624,42079 19625,42086 19627,42092 19628,42099 19629,42106 19630,42113 19631,42119 19631,42126 19644,42126 19644,42119 19643,42112 19642,42104 19641,42097 19640,42090 19638,42083 19637,42076 19635,42069 19633,42062 19630,42056 19628,42049 19625,42042 19622,42036 19617,42029 19614,42023 19610,42017 19607,42011 19602,42005 19598,41999 19594,41993 19589,41988 19585,41982 19580,41977 19574,41972 19569,41967 19564,41962 19558,41958 19553,41953 19547,41949 19541,41945 19535,41941 19529,41937 19522,41949 Z M 19512,41969 L 19517,41972 19522,41976 19527,41979 19532,41983 19536,41986 19541,41990 19545,41994 19550,41998 19554,42002 19558,42007 19562,42011 19566,42016 19569,42021 19573,42026 19576,42030 19580,42035 19583,42041 19585,42046 19588,42051 19590,42057 19593,42062 19595,42068 19597,42073 19599,42079 19601,42085 19602,42090 19604,42096 19605,42102 19606,42108 19606,42114 19607,42120 19607,42126 19459,42126 19459,42124 19459,42122 19458,42120 19458,42119 19457,42117 19456,42116 19455,42114 19454,42112 19453,42111 19452,42109 19451,42108 19450,42106 19449,42105 19447,42104 19446,42102 19444,42101 19512,41969 Z M 19248,42045 L 19246,42050 19243,42055 19241,42059 19239,42064 19237,42069 19236,42074 19234,42079 19233,42085 19231,42090 19230,42095 19229,42100 19228,42106 19227,42111 19227,42116 19226,42121 19226,42127 19226,42132 19226,42138 19226,42143 19226,42148 19227,42153 19227,42159 19228,42164 19229,42170 19230,42175 19231,42180 19232,42185 19234,42190 19235,42195 19237,42201 19239,42206 19241,42210 19243,42215 19245,42220 19248,42225 19250,42231 19253,42235 19256,42240 19259,42244 19262,42249 19265,42253 19268,42257 19272,42261 19276,42265 19279,42269 19283,42273 19287,42277 19291,42280 19295,42284 19299,42287 19303,42290 19308,42294 19312,42297 19317,42299 19321,42302 19326,42305 19331,42307 19336,42309 19341,42312 19345,42314 19350,42316 19355,42318 19361,42319 19365,42321 19371,42322 19376,42323 19381,42324 19386,42325 19392,42326 19397,42327 19402,42327 19408,42328 19413,42328 19418,42328 19424,42328 19429,42327 19434,42327 19440,42326 19445,42326 19450,42324 19456,42324 19461,42322 19466,42321 19471,42320 19476,42318 19481,42316 19486,42314 19491,42312 19496,42310 19501,42308 19506,42305 19510,42303 19515,42300 19519,42297 19524,42295 19528,42291 19533,42288 19537,42285 19541,42281 19545,42278 19549,42274 19553,42270 19556,42267 19560,42263 19563,42259 19567,42254 19570,42250 19573,42246 19576,42241 19579,42237 19582,42232 19584,42227 19587,42222 19589,42217 19591,42212 19593,42207 19595,42202 19597,42197 19599,42192 19600,42187 19602,42182 19603,42177 19604,42171 19605,42166 19606,42161 19607,42155 19607,42150 19607,42145 19459,42145 19459,42147 19459,42149 19458,42151 19457,42153 19456,42155 19455,42157 19454,42159 19452,42161 19451,42163 19450,42164 19448,42166 19446,42168 19445,42169 19443,42171 19441,42172 19439,42173 19437,42174 19436,42175 19433,42176 19431,42177 19429,42178 19427,42178 19425,42178 19423,42179 19420,42179 19418,42179 19416,42179 19413,42179 19411,42179 19409,42179 19407,42178 19405,42178 19403,42177 19401,42177 19398,42175 19396,42174 19394,42173 19392,42172 19391,42171 19389,42170 19387,42168 19386,42167 19384,42165 19383,42163 19381,42162 19380,42160 19379,42158 19378,42156 19377,42154 19376,42152 19375,42150 19374,42148 19374,42146 19373,42143 19373,42141 19373,42139 19372,42137 19372,42134 19373,42132 19373,42130 19373,42127 19374,42125 19374,42123 19375,42121 19248,42045 Z M 19885,42137 L 19885,42144 19886,42152 19886,42159 19887,42167 19879,42168 19879,42163 19878,42158 19878,42154 19877,42149 19877,42144 19877,42139 19877,42134 19877,42129 19877,42124 19877,42120 19878,42115 19878,42110 19879,42105 19879,42100 19880,42096 19881,42091 19882,42086 19883,42082 19884,42077 19886,42072 19887,42067 19888,42063 19890,42058 19891,42054 19893,42049 19895,42045 19897,42040 19899,42036 19901,42031 19903,42027 19905,42023 19908,42019 19910,42014 19913,42010 19915,42006 19918,42002 19921,41998 19924,41994 19927,41990 19930,41987 19933,41983 19936,41979 19939,41975 19942,41972 19946,41968 19949,41965 19953,41962 19957,41959 19960,41955 19964,41952 19968,41949 19971,41946 19975,41943 19979,41941 19983,41938 19988,41936 19991,41933 19996,41931 20000,41928 20004,41926 20009,41924 20013,41922 20017,41920 20022,41918 20013,41884 19778,42099 19780,42103 19782,42106 19784,42110 19785,42114 19786,42118 19787,42122 19788,42126 19789,42130 19789,42134 19789,42138 19789,42142 19788,42146 19787,42150 19786,42154 19785,42158 19783,42162 19781,42166 19779,42169 19777,42173 19774,42176 19772,42179 19769,42182 19766,42184 19763,42187 19759,42189 19756,42191 19752,42193 19748,42195 19744,42196 19741,42197 19737,42198 19733,42199 19733,42258 19750,42258 19750,42277 19699,42277 19699,42258 19716,42258 19716,42199 19714,42199 19712,42198 19709,42198 19707,42197 19704,42196 19702,42195 19699,42194 19697,42193 19694,42192 19692,42191 19690,42189 19688,42188 19686,42186 19684,42185 19682,42183 19680,42181 19678,42179 19676,42177 19675,42175 19673,42173 19671,42171 19670,42169 19669,42167 19667,42164 19666,42162 19665,42160 19665,42157 19663,42155 19663,42152 19662,42150 19661,42147 19661,42145 19652,42145 19652,42149 19652,42153 19652,42157 19651,42161 19651,42165 19650,42169 19649,42173 19649,42177 19641,42175 19642,42172 19642,42168 19643,42164 19643,42160 19643,42156 19644,42152 19644,42148 19644,42145 19631,42145 19631,42151 19630,42157 19629,42163 19629,42169 19628,42174 19626,42180 19625,42186 19623,42192 19622,42198 19620,42204 19617,42209 19615,42215 19612,42220 19610,42226 19608,42232 19605,42238 19602,42243 19599,42248 19595,42253 19592,42258 19589,42263 19585,42268 19581,42272 19577,42277 19573,42281 19569,42286 19565,42290 19561,42294 19556,42298 19552,42302 19547,42306 19542,42309 19537,42313 19532,42316 19527,42319 19522,42323 19517,42325 19511,42328 19506,42331 19500,42333 19495,42335 19489,42337 19484,42339 19478,42341 19472,42343 19466,42344 19461,42346 19455,42347 19449,42348 19443,42349 19437,42349 19431,42350 19425,42350 19419,42350 19413,42350 19407,42350 19401,42350 19395,42349 19389,42349 19383,42348 19377,42347 19371,42345 19365,42344 19360,42343 19354,42341 19348,42339 19342,42337 19337,42335 19331,42332 19326,42330 19320,42328 19315,42324 19310,42322 19305,42319 19300,42315 19295,42312 19290,42308 19285,42305 19280,42301 19276,42297 19271,42293 19267,42289 19263,42285 19259,42280 19255,42276 19251,42271 19247,42267 19243,42262 19240,42257 19237,42252 19234,42247 19231,42241 19228,42236 19225,42231 19222,42224 19220,42219 19218,42213 19215,42208 19213,42202 19212,42196 19210,42190 19208,42185 19208,42179 19206,42173 19205,42167 19205,42161 19204,42155 19203,42149 19203,42143 19203,42137 19203,42131 19203,42125 19204,42119 19204,42113 19205,42107 19206,42101 19207,42095 19208,42089 19209,42084 19211,42078 19212,42072 19214,42066 19216,42060 19219,42055 19221,42049 19223,42044 19226,42038 19229,42033 19217,42026 19215,42030 19213,42033 19212,42037 19210,42041 19203,42038 19205,42032 19208,42027 19211,42022 19213,42017 19216,42012 19219,42007 19222,42002 19226,41998 19229,41993 19233,41988 19236,41984 19240,41979 19244,41975 19248,41971 19252,41967 19257,41963 19261,41959 19265,41955 19270,41951 19274,41948 19279,41944 19283,41941 19288,41938 19293,41935 19298,41932 19303,41929 19309,41926 19314,41924 19319,41921 19324,41919 19330,41916 19335,41914 19341,41912 19346,41911 19351,41909 19357,41907 19362,41906 19368,41905 19374,41904 19380,41903 19386,41902 19391,41901 19397,41901 19403,41900 19409,41900 19414,41900 19420,41900 19426,41900 19432,41900 19437,41901 19443,41901 19449,41902 19455,41903 19461,41904 19466,41905 19472,41906 19477,41908 19483,41909 19488,41911 19494,41913 19499,41915 19505,41917 19510,41919 19515,41922 19565,41824 19554,41800 19554,41799 19553,41798 19552,41797 19551,41797 19550,41796 19549,41796 19548,41795 19547,41795 19546,41795 19544,41794 19543,41794 19541,41793 19540,41793 19539,41792 19538,41791 19536,41790 19535,41789 19535,41788 19534,41786 19534,41784 19533,41783 19533,41781 19534,41780 19534,41778 19535,41776 19535,41775 19536,41774 19538,41773 19539,41772 19541,41771 19542,41771 19544,41770 19550,41770 19556,41769 19563,41768 19569,41768 19575,41767 19581,41767 19587,41767 19593,41767 19600,41767 19606,41768 19612,41768 19619,41769 19626,41769 19632,41770 19638,41771 19644,41772 19645,41772 19646,41772 19646,41773 19647,41773 19648,41774 19648,41775 19649,41775 19650,41776 19650,41777 19650,41778 19651,41778 19651,41779 19651,41780 19651,41781 19651,41782 19651,41783 19651,41784 19651,41785 19650,41786 19650,41787 19650,41788 19649,41788 19649,41789 19648,41789 19647,41790 19646,41791 19645,41791 19644,41792 19643,41792 19642,41792 19587,41794 19586,41794 19585,41794 19584,41795 19582,41795 19581,41796 19580,41796 19580,41797 19579,41798 19578,41799 19578,41800 19578,41801 19577,41803 19577,41804 19578,41805 19578,41806 19578,41807 19585,41822 19997,41822 19986,41778 19979,41778 19973,41778 19967,41778 19961,41777 19955,41777 19949,41776 19943,41774 19937,41773 19933,41772 19929,41771 19925,41771 19921,41771 19917,41771 19913,41771 19909,41772 19905,41773 19904,41772 19902,41772 19901,41771 19900,41770 19899,41769 19898,41767 19897,41766 19896,41765 19896,41763 19896,41761 19896,41760 19897,41759 19897,41757 19898,41756 19899,41754 19900,41753 19904,41752 19907,41751 19911,41750 19914,41750 19918,41750 19921,41750 19925,41750 19928,41750 19933,41751 19937,41752 19942,41753 19946,41753 19950,41754 19955,41754 19959,41755 19963,41755 19968,41755 19972,41755 19977,41755 19981,41755 19986,41755 19990,41755 19994,41754 19999,41754 20040,41911 20043,41910 20048,41909 20052,41907 20056,41906 20060,41906 20064,41905 20068,41904 20073,41903 20077,41902 20081,41902 20085,41901 20089,41901 20094,41901 20098,41900 20102,41900 20107,41900 20111,41900 20115,41900 20119,41900 20124,41900 20128,41900 20132,41901 20136,41901 20141,41902 20145,41902 20149,41903 20153,41904 20157,41904 20162,41905 20166,41906 20170,41907 20174,41908 20172,41916 20168,41915 20164,41914 20160,41913 20156,41912 20152,41911 20148,41910 20143,41910 20140,41909 20135,41909 20131,41909 20127,41908 20123,41908 20119,41908 20115,41908 20111,41908 20107,41908 20102,41908 20098,41908 20094,41909 20090,41909 20086,41909 20082,41910 20078,41910 20074,41911 20069,41912 20066,41912 20062,41913 20057,41914 20053,41915 20049,41916 20045,41918 20041,41919 20045,41932 20049,41931 20053,41930 20057,41928 20061,41927 20065,41926 20069,41926 20073,41925 20077,41924 20082,41923 20086,41923 20090,41922 20094,41922 20098,41922 20102,41921 20107,41921 20111,41921 20115,41921 20119,41921 20123,41921 20128,41922 20132,41922 20136,41923 20140,41923 20144,41924 20148,41924 20152,41925 20157,41926 20161,41927 20165,41928 20169,41929 20173,41930 20177,41931 20181,41933 20185,41934 20189,41936 20193,41937 20196,41938 20200,41940 20204,41942 20208,41944 20212,41946 20215,41948 20219,41950 20222,41952 20226,41954 20230,41957 20233,41959 20237,41961 20240,41964 20243,41967 20246,41969 20250,41972 20253,41974 20256,41977 20259,41980 20262,41983 20265,41986 20268,41989 20271,41992 20273,41995 20276,41998 20279,42002 20281,42005 20284,42008 20286,42012 20289,42015 20291,42019 20293,42022 20295,42026 20298,42029 20300,42033 20302,42037 20303,42041 20305,42044 20307,42048 20309,42052 20310,42056 20312,42060 20313,42064 20315,42068 20316,42072 20317,42076 20318,42080 20319,42084 20320,42088 20321,42092 20322,42096 20323,42100 20323,42105 20324,42109 20324,42113 20325,42117 20325,42121 20325,42125 20325,42130 20325,42134 20325,42138 20325,42142 20325,42146 20325,42151 20324,42155 20324,42159 20324,42163 20323,42167 20322,42172 20322,42175 20321,42180 20320,42184 20319,42188 20318,42192 20316,42196 20316,42200 20314,42204 20313,42208 20311,42212 20310,42216 20308,42220 20306,42224 20305,42227 20303,42232 20301,42236 20299,42239 20297,42243 20295,42247 20292,42250 20290,42254 20288,42257 20286,42261 20283,42264 20281,42267 20278,42271 20275,42274 20272,42277 20270,42280 20267,42284 20264,42287 20261,42290 20258,42293 20255,42295 20252,42298 20248,42301 20245,42303 20242,42306 20239,42308 20235,42311 20232,42313 20228,42316 20225,42318 20221,42320 20218,42322 20214,42324 20210,42326 20206,42328 20203,42330 20199,42332 20195,42333 20191,42335 20187,42336 20183,42338 20179,42339 20175,42341 20171,42342 20167,42343 20163,42344 20159,42345 20155,42346 20151,42347 20147,42347 20143,42348 20139,42349 20134,42349 20130,42350 20126,42350 20122,42350 20118,42350 20113,42350 20109,42350 20105,42350 20101,42350 20097,42350 20092,42349 20088,42349 20084,42349 20080,42348 20076,42347 20072,42347 20068,42346 20063,42345 20060,42344 20055,42343 20051,42342 20047,42340 20043,42339 20040,42338 20036,42336 20032,42335 20028,42333 20024,42331 20020,42329 20016,42328 20013,42326 20009,42324 20005,42322 20002,42320 19998,42317 19994,42315 19991,42313 19988,42310 19984,42308 19981,42305 19978,42303 19974,42300 19971,42297 19968,42295 19965,42292 19962,42289 19959,42286 19956,42283 19953,42280 19951,42277 19948,42273 19945,42270 19942,42267 19940,42264 19938,42260 19935,42257 19933,42253 19931,42250 19928,42246 19926,42242 19924,42239 19922,42235 19920,42231 19919,42227 19917,42223 19915,42219 19914,42215 19912,42211 19911,42207 19909,42203 19908,42199 19907,42195 19906,42191 19905,42187 19904,42183 19903,42179 19902,42174 19901,42171 19900,42166 19900,42162 19899,42158 19899,42154 19899,42150 19898,42146 19898,42141 19898,42137 19885,42137 Z"/>
    <path fill="none" stroke="rgb(0,0,0)" d="M 19886,42118 L 19899,42119 19900,42111 19900,42104 19902,42097 19903,42090 19905,42083 19907,42076 19909,42069 19911,42062 19914,42055 19916,42048 19920,42042 19923,42035 19926,42029 19930,42023 19934,42017 19938,42011 19942,42005 19947,41999 19952,41994 19957,41988 19962,41983 19967,41978 19972,41973 19978,41968 19984,41964 19989,41960 19995,41956 20002,41952 20008,41948 20014,41945 20021,41941 20027,41938 20024,41926 20020,41927 20017,41929 20013,41930 20010,41932 20006,41934 20003,41936 19999,41937 19996,41939 19993,41941 19989,41944 19986,41946 19983,41948 19980,41950 19977,41952 19974,41955 19970,41957 19967,41960 19965,41962 19962,41965 19959,41967 19956,41970 19953,41973 19950,41975 19948,41978 19945,41981 19942,41984 19940,41987 19937,41990 19935,41993 19932,41996 19930,41999 19928,42002 19925,42005 19923,42009 19921,42012 19919,42015 19917,42019 19915,42022 19913,42025 19911,42029 19910,42032 19908,42036 19906,42039 19905,42043 19903,42046 19901,42050 19900,42054 19899,42057 19897,42061 19896,42064 19895,42068 19894,42072 19893,42076 19892,42080 19891,42083 19890,42087 19889,42091 19888,42095 19888,42099 19887,42102 19887,42106 19886,42110 19886,42114 19886,42118 Z"/>
    <path fill="none" stroke="rgb(0,0,0)" d="M 20087,42120 L 20085,42122 20084,42125 19920,42119 19921,42113 19922,42106 19923,42100 19924,42094 19926,42088 19927,42082 19929,42075 19931,42069 19934,42063 19936,42058 19939,42052 19942,42046 19944,42040 19948,42035 19951,42029 19955,42024 19959,42019 19963,42014 19967,42009 19971,42004 19975,41999 19980,41995 19985,41991 19989,41987 19994,41983 20000,41979 20005,41975 20010,41972 20016,41968 20021,41965 20027,41962 20033,41960 20058,42058 20059,42062 20060,42067 20061,42071 20063,42075 20064,42079 20065,42083 20067,42087 20068,42091 20070,42095 20072,42099 20074,42102 20077,42106 20079,42110 20081,42113 20084,42117 20087,42120 Z"/>
    <path fill="none" stroke="rgb(0,0,0)" d="M 19750,41995 L 19699,41995 19699,42013 19716,42013 19716,42071 19714,42072 19711,42072 19709,42073 19706,42074 19594,41841 20002,41841 20008,41864 19765,42085 19764,42084 19761,42083 19760,42082 19758,42080 19756,42079 19754,42078 19752,42077 19750,42076 19748,42075 19746,42075 19744,42074 19741,42073 19739,42073 19737,42072 19735,42072 19733,42071 19733,42013 19750,42013 19750,41995 Z"/>
    <path fill="none" stroke="rgb(0,0,0)" d="M 20101,42108 L 20103,42107 20105,42107 20107,42106 20110,42106 20112,42106 20114,42106 20116,42106 20118,42107 20120,42107 20122,42108 20124,42109 20126,42110 20128,42111 20130,42112 20132,42114 20133,42115 20135,42117 20136,42119 20137,42120 20138,42122 20139,42124 20140,42127 20141,42129 20141,42131 20141,42133 20141,42135 20141,42138 20141,42140 20141,42142 20140,42144 20139,42146 20138,42148 20137,42150 20136,42152 20135,42154 20133,42155 20132,42157 20130,42158 20128,42160 20126,42161 20124,42162 20122,42163 20120,42163 20118,42164 20116,42164 20114,42165 20112,42165 20110,42165 20107,42164 20105,42164 20103,42163 20101,42163 20099,42162 20097,42161 20095,42159 20094,42158 20092,42157 20090,42155 20089,42153 20088,42151 20086,42150 20085,42148 20084,42146 20084,42144 19919,42138 19920,42142 19920,42146 19920,42149 19920,42153 19921,42157 19921,42160 19922,42164 19922,42168 19923,42172 19924,42175 19925,42179 19926,42183 19926,42186 19928,42190 19929,42194 19930,42197 19931,42201 19932,42204 19934,42208 19935,42212 19937,42215 19939,42218 19940,42222 19942,42225 19943,42228 19945,42233 19947,42236 19949,42239 19951,42242 19953,42245 19956,42248 19958,42252 19960,42255 19963,42258 19965,42261 19967,42263 19970,42266 19972,42269 19975,42271 19978,42274 19981,42277 19983,42279 19986,42282 19989,42284 19992,42287 19995,42289 19998,42291 20001,42294 20004,42296 20007,42298 20010,42300 20014,42302 20017,42304 20020,42305 20023,42307 20027,42309 20030,42311 20034,42312 20037,42314 20040,42315 20044,42317 20048,42318 20051,42319 20055,42320 20059,42321 20062,42322 20066,42323 20069,42324 20073,42325 20077,42326 20081,42326 20084,42327 20088,42328 20092,42328 20095,42328 20099,42329 20103,42329 20107,42329 20111,42329 20115,42329 20118,42329 20122,42329 20126,42329 20129,42328 20133,42328 20137,42327 20141,42327 20144,42326 20148,42326 20152,42324 20156,42324 20159,42323 20163,42322 20166,42321 20170,42320 20174,42319 20177,42317 20181,42316 20184,42315 20188,42313 20191,42312 20194,42310 20198,42308 20201,42307 20205,42305 20208,42303 20211,42301 20215,42299 20218,42297 20221,42295 20224,42293 20227,42291 20230,42288 20233,42286 20236,42284 20239,42281 20242,42279 20244,42276 20247,42273 20249,42271 20252,42268 20255,42265 20257,42262 20260,42260 20262,42257 20264,42254 20267,42251 20269,42247 20271,42244 20273,42241 20275,42238 20277,42235 20279,42232 20281,42227 20283,42224 20284,42220 20286,42217 20288,42214 20289,42210 20291,42207 20292,42203 20293,42200 20294,42196 20295,42192 20296,42189 20297,42185 20298,42181 20299,42178 20300,42174 20301,42171 20301,42167 20302,42163 20303,42159 20303,42155 20303,42152 20304,42148 20304,42144 20304,42140 20304,42137 20304,42133 20304,42129 20304,42125 20304,42121 20303,42118 20303,42114 20302,42110 20302,42106 20301,42103 20301,42099 20300,42095 20299,42091 20298,42088 20297,42084 20296,42081 20295,42077 20294,42073 20293,42070 20292,42066 20290,42063 20288,42059 20287,42056 20286,42053 20284,42049 20282,42046 20280,42042 20278,42039 20276,42036 20274,42032 20272,42029 20270,42026 20268,42023 20266,42020 20264,42017 20261,42014 20259,42011 20257,42008 20254,42005 20251,42003 20249,42000 20246,41997 20243,41995 20241,41992 20238,41990 20235,41987 20232,41985 20229,41982 20226,41980 20223,41978 20220,41976 20217,41974 20214,41972 20210,41970 20207,41968 20204,41966 20200,41964 20197,41963 20194,41961 20190,41959 20187,41958 20183,41956 20180,41955 20176,41954 20173,41952 20169,41951 20166,41950 20162,41949 20158,41948 20154,41947 20151,41946 20147,41946 20143,41945 20140,41945 20136,41944 20132,41944 20128,41943 20125,41943 20121,41943 20117,41943 20113,41942 20110,41942 20106,41943 20102,41943 20098,41943 20094,41943 20091,41944 20087,41944 20083,41945 20080,41945 20076,41946 20072,41947 20068,41947 20065,41948 20061,41949 20058,41950 20054,41952 20050,41953 20077,42055 20077,42058 20078,42062 20079,42065 20080,42069 20081,42073 20083,42076 20084,42080 20086,42083 20087,42086 20089,42089 20091,42093 20092,42096 20094,42099 20096,42102 20099,42105 20101,42108 Z"/>
    <path fill="none" stroke="rgb(0,0,0)" d="M 19495,41961 L 19491,41959 19487,41958 19484,41956 19480,41955 19476,41953 19472,41952 19468,41951 19464,41950 19459,41949 19456,41948 19451,41947 19447,41946 19443,41946 19439,41945 19435,41945 19431,41944 19427,41944 19422,41944 19418,41944 19414,41944 19410,41944 19406,41944 19401,41944 19397,41945 19393,41945 19389,41946 19385,41947 19381,41947 19376,41948 19372,41949 19368,41950 19364,41951 19360,41952 19356,41954 19352,41955 19348,41957 19344,41958 19341,41960 19337,41962 19333,41963 19329,41965 19325,41967 19322,41969 19318,41971 19314,41973 19311,41976 19308,41978 19304,41980 19301,41983 19298,41986 19294,41988 19291,41991 19288,41994 19285,41996 19282,41999 19279,42002 19276,42006 19273,42009 19270,42012 19268,42015 19265,42019 19263,42022 19260,42025 19258,42029 19385,42105 19386,42103 19389,42101 19391,42099 19394,42097 19396,42096 19399,42095 19402,42094 19405,42093 19407,42092 19410,42091 19413,42091 19416,42091 19419,42091 19422,42091 19425,42092 19428,42092 19495,41961 Z"/>
    <path fill="none" stroke="rgb(0,0,0)" d="M 19227,42010 L 19238,42017 19241,42013 19244,42009 19247,42005 19250,42002 19253,41998 19256,41995 19259,41991 19262,41987 19265,41984 19269,41981 19272,41977 19276,41974 19279,41971 19283,41968 19286,41965 19290,41963 19294,41960 19298,41957 19302,41954 19306,41952 19310,41950 19314,41947 19318,41945 19323,41943 19327,41941 19331,41939 19336,41937 19340,41935 19344,41934 19349,41932 19354,41931 19358,41929 19362,41928 19367,41927 19372,41926 19376,41925 19381,41924 19386,41923 19390,41923 19395,41922 19400,41922 19405,41921 19409,41921 19414,41921 19419,41921 19423,41921 19428,41921 19433,41922 19437,41922 19442,41923 19447,41923 19452,41924 19456,41925 19461,41926 19465,41927 19470,41928 19475,41929 19479,41931 19484,41932 19488,41934 19493,41935 19497,41937 19501,41939 19506,41941 19512,41929 19507,41927 19503,41925 19498,41923 19493,41921 19488,41919 19484,41918 19479,41916 19474,41915 19469,41914 19464,41913 19459,41912 19454,41911 19449,41910 19444,41909 19439,41909 19434,41909 19429,41908 19424,41908 19419,41908 19414,41908 19409,41908 19404,41908 19399,41909 19394,41909 19389,41909 19384,41910 19379,41911 19374,41912 19369,41913 19364,41914 19359,41915 19354,41916 19350,41918 19345,41919 19340,41921 19335,41923 19331,41925 19326,41927 19321,41929 19317,41931 19312,41933 19308,41936 19303,41938 19299,41940 19295,41943 19290,41946 19286,41949 19282,41952 19278,41955 19274,41958 19270,41961 19266,41965 19263,41968 19259,41971 19256,41975 19252,41978 19249,41982 19245,41986 19242,41990 19239,41994 19236,41998 19233,42002 19230,42006 19227,42010 Z"/>
    <path fill="none" stroke="rgb(0,0,0)" d="M 19532,41930 L 19538,41934 19545,41938 19551,41942 19557,41946 19563,41951 19569,41956 19574,41961 19580,41966 19585,41971 19590,41977 19595,41982 19600,41988 19605,41994 19609,42000 19613,42006 19617,42013 19622,42019 19625,42026 19629,42032 19632,42039 19635,42046 19638,42053 19640,42060 19642,42067 19644,42074 19646,42082 19648,42089 19649,42096 19650,42104 19651,42111 19652,42119 19652,42126 19661,42126 19662,42122 19663,42119 19663,42116 19665,42113 19666,42110 19667,42107 19669,42104 19670,42101 19672,42098 19674,42095 19676,42093 19679,42090 19681,42088 19684,42086 19686,42084 19689,42082 19576,41845 19532,41930 Z"/>
    <path fill="none" stroke="rgb(0,0,0)" d="M 19522,41949 L 19528,41953 19534,41956 19540,41960 19545,41964 19550,41968 19555,41972 19561,41977 19565,41982 19570,41986 19575,41991 19579,41996 19584,42001 19587,42007 19591,42012 19595,42018 19599,42024 19602,42029 19606,42035 19609,42041 19612,42048 19614,42054 19616,42060 19620,42066 19622,42073 19624,42079 19625,42086 19627,42092 19628,42099 19629,42106 19630,42113 19631,42119 19631,42126 19644,42126 19644,42119 19643,42112 19642,42104 19641,42097 19640,42090 19638,42083 19637,42076 19635,42069 19633,42062 19630,42056 19628,42049 19625,42042 19622,42036 19617,42029 19614,42023 19610,42017 19607,42011 19602,42005 19598,41999 19594,41993 19589,41988 19585,41982 19580,41977 19574,41972 19569,41967 19564,41962 19558,41958 19553,41953 19547,41949 19541,41945 19535,41941 19529,41937 19522,41949 Z"/>
    <path fill="none" stroke="rgb(0,0,0)" d="M 19512,41969 L 19517,41972 19522,41976 19527,41979 19532,41983 19536,41986 19541,41990 19545,41994 19550,41998 19554,42002 19558,42007 19562,42011 19566,42016 19569,42021 19573,42026 19576,42030 19580,42035 19583,42041 19585,42046 19588,42051 19590,42057 19593,42062 19595,42068 19597,42073 19599,42079 19601,42085 19602,42090 19604,42096 19605,42102 19606,42108 19606,42114 19607,42120 19607,42126 19459,42126 19459,42124 19459,42122 19458,42120 19458,42119 19457,42117 19456,42116 19455,42114 19454,42112 19453,42111 19452,42109 19451,42108 19450,42106 19449,42105 19447,42104 19446,42102 19444,42101 19512,41969 Z"/>
    <path fill="none" stroke="rgb(0,0,0)" d="M 19248,42045 L 19246,42050 19243,42055 19241,42059 19239,42064 19237,42069 19236,42074 19234,42079 19233,42085 19231,42090 19230,42095 19229,42100 19228,42106 19227,42111 19227,42116 19226,42121 19226,42127 19226,42132 19226,42138 19226,42143 19226,42148 19227,42153 19227,42159 19228,42164 19229,42170 19230,42175 19231,42180 19232,42185 19234,42190 19235,42195 19237,42201 19239,42206 19241,42210 19243,42215 19245,42220 19248,42225 19250,42231 19253,42235 19256,42240 19259,42244 19262,42249 19265,42253 19268,42257 19272,42261 19276,42265 19279,42269 19283,42273 19287,42277 19291,42280 19295,42284 19299,42287 19303,42290 19308,42294 19312,42297 19317,42299 19321,42302 19326,42305 19331,42307 19336,42309 19341,42312 19345,42314 19350,42316 19355,42318 19361,42319 19365,42321 19371,42322 19376,42323 19381,42324 19386,42325 19392,42326 19397,42327 19402,42327 19408,42328 19413,42328 19418,42328 19424,42328 19429,42327 19434,42327 19440,42326 19445,42326 19450,42324 19456,42324 19461,42322 19466,42321 19471,42320 19476,42318 19481,42316 19486,42314 19491,42312 19496,42310 19501,42308 19506,42305 19510,42303 19515,42300 19519,42297 19524,42295 19528,42291 19533,42288 19537,42285 19541,42281 19545,42278 19549,42274 19553,42270 19556,42267 19560,42263 19563,42259 19567,42254 19570,42250 19573,42246 19576,42241 19579,42237 19582,42232 19584,42227 19587,42222 19589,42217 19591,42212 19593,42207 19595,42202 19597,42197 19599,42192 19600,42187 19602,42182 19603,42177 19604,42171 19605,42166 19606,42161 19607,42155 19607,42150 19607,42145 19459,42145 19459,42147 19459,42149 19458,42151 19457,42153 19456,42155 19455,42157 19454,42159 19452,42161 19451,42163 19450,42164 19448,42166 19446,42168 19445,42169 19443,42171 19441,42172 19439,42173 19437,42174 19436,42175 19433,42176 19431,42177 19429,42178 19427,42178 19425,42178 19423,42179 19420,42179 19418,42179 19416,42179 19413,42179 19411,42179 19409,42179 19407,42178 19405,42178 19403,42177 19401,42177 19398,42175 19396,42174 19394,42173 19392,42172 19391,42171 19389,42170 19387,42168 19386,42167 19384,42165 19383,42163 19381,42162 19380,42160 19379,42158 19378,42156 19377,42154 19376,42152 19375,42150 19374,42148 19374,42146 19373,42143 19373,42141 19373,42139 19372,42137 19372,42134 19373,42132 19373,42130 19373,42127 19374,42125 19374,42123 19375,42121 19248,42045 Z"/>
    <path fill="none" stroke="rgb(0,0,0)" d="M 19885,42137 L 19885,42144 19886,42152 19886,42159 19887,42167 19879,42168 19879,42163 19878,42158 19878,42154 19877,42149 19877,42144 19877,42139 19877,42134 19877,42129 19877,42124 19877,42120 19878,42115 19878,42110 19879,42105 19879,42100 19880,42096 19881,42091 19882,42086 19883,42082 19884,42077 19886,42072 19887,42067 19888,42063 19890,42058 19891,42054 19893,42049 19895,42045 19897,42040 19899,42036 19901,42031 19903,42027 19905,42023 19908,42019 19910,42014 19913,42010 19915,42006 19918,42002 19921,41998 19924,41994 19927,41990 19930,41987 19933,41983 19936,41979 19939,41975 19942,41972 19946,41968 19949,41965 19953,41962 19957,41959 19960,41955 19964,41952 19968,41949 19971,41946 19975,41943 19979,41941 19983,41938 19988,41936 19991,41933 19996,41931 20000,41928 20004,41926 20009,41924 20013,41922 20017,41920 20022,41918 20013,41884 19778,42099 19780,42103 19782,42106 19784,42110 19785,42114 19786,42118 19787,42122 19788,42126 19789,42130 19789,42134 19789,42138 19789,42142 19788,42146 19787,42150 19786,42154 19785,42158 19783,42162 19781,42166 19779,42169 19777,42173 19774,42176 19772,42179 19769,42182 19766,42184 19763,42187 19759,42189 19756,42191 19752,42193 19748,42195 19744,42196 19741,42197 19737,42198 19733,42199 19733,42258 19750,42258 19750,42277 19699,42277 19699,42258 19716,42258 19716,42199 19714,42199 19712,42198 19709,42198 19707,42197 19704,42196 19702,42195 19699,42194 19697,42193 19694,42192 19692,42191 19690,42189 19688,42188 19686,42186 19684,42185 19682,42183 19680,42181 19678,42179 19676,42177 19675,42175 19673,42173 19671,42171 19670,42169 19669,42167 19667,42164 19666,42162 19665,42160 19665,42157 19663,42155 19663,42152 19662,42150 19661,42147 19661,42145 19652,42145 19652,42149 19652,42153 19652,42157 19651,42161 19651,42165 19650,42169 19649,42173 19649,42177 19641,42175 19642,42172 19642,42168 19643,42164 19643,42160 19643,42156 19644,42152 19644,42148 19644,42145 19631,42145 19631,42151 19630,42157 19629,42163 19629,42169 19628,42174 19626,42180 19625,42186 19623,42192 19622,42198 19620,42204 19617,42209 19615,42215 19612,42220 19610,42226 19608,42232 19605,42238 19602,42243 19599,42248 19595,42253 19592,42258 19589,42263 19585,42268 19581,42272 19577,42277 19573,42281 19569,42286 19565,42290 19561,42294 19556,42298 19552,42302 19547,42306 19542,42309 19537,42313 19532,42316 19527,42319 19522,42323 19517,42325 19511,42328 19506,42331 19500,42333 19495,42335 19489,42337 19484,42339 19478,42341 19472,42343 19466,42344 19461,42346 19455,42347 19449,42348 19443,42349 19437,42349 19431,42350 19425,42350 19419,42350 19413,42350 19407,42350 19401,42350 19395,42349 19389,42349 19383,42348 19377,42347 19371,42345 19365,42344 19360,42343 19354,42341 19348,42339 19342,42337 19337,42335 19331,42332 19326,42330 19320,42328 19315,42324 19310,42322 19305,42319 19300,42315 19295,42312 19290,42308 19285,42305 19280,42301 19276,42297 19271,42293 19267,42289 19263,42285 19259,42280 19255,42276 19251,42271 19247,42267 19243,42262 19240,42257 19237,42252 19234,42247 19231,42241 19228,42236 19225,42231 19222,42224 19220,42219 19218,42213 19215,42208 19213,42202 19212,42196 19210,42190 19208,42185 19208,42179 19206,42173 19205,42167 19205,42161 19204,42155 19203,42149 19203,42143 19203,42137 19203,42131 19203,42125 19204,42119 19204,42113 19205,42107 19206,42101 19207,42095 19208,42089 19209,42084 19211,42078 19212,42072 19214,42066 19216,42060 19219,42055 19221,42049 19223,42044 19226,42038 19229,42033 19217,42026 19215,42030 19213,42033 19212,42037 19210,42041 19203,42038 19205,42032 19208,42027 19211,42022 19213,42017 19216,42012 19219,42007 19222,42002 19226,41998 19229,41993 19233,41988 19236,41984 19240,41979 19244,41975 19248,41971 19252,41967 19257,41963 19261,41959 19265,41955 19270,41951 19274,41948 19279,41944 19283,41941 19288,41938 19293,41935 19298,41932 19303,41929 19309,41926 19314,41924 19319,41921 19324,41919 19330,41916 19335,41914 19341,41912 19346,41911 19351,41909 19357,41907 19362,41906 19368,41905 19374,41904 19380,41903 19386,41902 19391,41901 19397,41901 19403,41900 19409,41900 19414,41900 19420,41900 19426,41900 19432,41900 19437,41901 19443,41901 19449,41902 19455,41903 19461,41904 19466,41905 19472,41906 19477,41908 19483,41909 19488,41911 19494,41913 19499,41915 19505,41917 19510,41919 19515,41922 19565,41824 19554,41800 19554,41799 19553,41798 19552,41797 19551,41797 19550,41796 19549,41796 19548,41795 19547,41795 19546,41795 19544,41794 19543,41794 19541,41793 19540,41793 19539,41792 19538,41791 19536,41790 19535,41789 19535,41788 19534,41786 19534,41784 19533,41783 19533,41781 19534,41780 19534,41778 19535,41776 19535,41775 19536,41774 19538,41773 19539,41772 19541,41771 19542,41771 19544,41770 19550,41770 19556,41769 19563,41768 19569,41768 19575,41767 19581,41767 19587,41767 19593,41767 19600,41767 19606,41768 19612,41768 19619,41769 19626,41769 19632,41770 19638,41771 19644,41772 19645,41772 19646,41772 19646,41773 19647,41773 19648,41774 19648,41775 19649,41775 19650,41776 19650,41777 19650,41778 19651,41778 19651,41779 19651,41780 19651,41781 19651,41782 19651,41783 19651,41784 19651,41785 19650,41786 19650,41787 19650,41788 19649,41788 19649,41789 19648,41789 19647,41790 19646,41791 19645,41791 19644,41792 19643,41792 19642,41792 19587,41794 19586,41794 19585,41794 19584,41795 19582,41795 19581,41796 19580,41796 19580,41797 19579,41798 19578,41799 19578,41800 19578,41801 19577,41803 19577,41804 19578,41805 19578,41806 19578,41807 19585,41822 19997,41822 19986,41778 19979,41778 19973,41778 19967,41778 19961,41777 19955,41777 19949,41776 19943,41774 19937,41773 19933,41772 19929,41771 19925,41771 19921,41771 19917,41771 19913,41771 19909,41772 19905,41773 19904,41772 19902,41772 19901,41771 19900,41770 19899,41769 19898,41767 19897,41766 19896,41765 19896,41763 19896,41761 19896,41760 19897,41759 19897,41757 19898,41756 19899,41754 19900,41753 19904,41752 19907,41751 19911,41750 19914,41750 19918,41750 19921,41750 19925,41750 19928,41750 19933,41751 19937,41752 19942,41753 19946,41753 19950,41754 19955,41754 19959,41755 19963,41755 19968,41755 19972,41755 19977,41755 19981,41755 19986,41755 19990,41755 19994,41754 19999,41754 20040,41911 20043,41910 20048,41909 20052,41907 20056,41906 20060,41906 20064,41905 20068,41904 20073,41903 20077,41902 20081,41902 20085,41901 20089,41901 20094,41901 20098,41900 20102,41900 20107,41900 20111,41900 20115,41900 20119,41900 20124,41900 20128,41900 20132,41901 20136,41901 20141,41902 20145,41902 20149,41903 20153,41904 20157,41904 20162,41905 20166,41906 20170,41907 20174,41908 20172,41916 20168,41915 20164,41914 20160,41913 20156,41912 20152,41911 20148,41910 20143,41910 20140,41909 20135,41909 20131,41909 20127,41908 20123,41908 20119,41908 20115,41908 20111,41908 20107,41908 20102,41908 20098,41908 20094,41909 20090,41909 20086,41909 20082,41910 20078,41910 20074,41911 20069,41912 20066,41912 20062,41913 20057,41914 20053,41915 20049,41916 20045,41918 20041,41919 20045,41932 20049,41931 20053,41930 20057,41928 20061,41927 20065,41926 20069,41926 20073,41925 20077,41924 20082,41923 20086,41923 20090,41922 20094,41922 20098,41922 20102,41921 20107,41921 20111,41921 20115,41921 20119,41921 20123,41921 20128,41922 20132,41922 20136,41923 20140,41923 20144,41924 20148,41924 20152,41925 20157,41926 20161,41927 20165,41928 20169,41929 20173,41930 20177,41931 20181,41933 20185,41934 20189,41936 20193,41937 20196,41938 20200,41940 20204,41942 20208,41944 20212,41946 20215,41948 20219,41950 20222,41952 20226,41954 20230,41957 20233,41959 20237,41961 20240,41964 20243,41967 20246,41969 20250,41972 20253,41974 20256,41977 20259,41980 20262,41983 20265,41986 20268,41989 20271,41992 20273,41995 20276,41998 20279,42002 20281,42005 20284,42008 20286,42012 20289,42015 20291,42019 20293,42022 20295,42026 20298,42029 20300,42033 20302,42037 20303,42041 20305,42044 20307,42048 20309,42052 20310,42056 20312,42060 20313,42064 20315,42068 20316,42072 20317,42076 20318,42080 20319,42084 20320,42088 20321,42092 20322,42096 20323,42100 20323,42105 20324,42109 20324,42113 20325,42117 20325,42121 20325,42125 20325,42130 20325,42134 20325,42138 20325,42142 20325,42146 20325,42151 20324,42155 20324,42159 20324,42163 20323,42167 20322,42172 20322,42175 20321,42180 20320,42184 20319,42188 20318,42192 20316,42196 20316,42200 20314,42204 20313,42208 20311,42212 20310,42216 20308,42220 20306,42224 20305,42227 20303,42232 20301,42236 20299,42239 20297,42243 20295,42247 20292,42250 20290,42254 20288,42257 20286,42261 20283,42264 20281,42267 20278,42271 20275,42274 20272,42277 20270,42280 20267,42284 20264,42287 20261,42290 20258,42293 20255,42295 20252,42298 20248,42301 20245,42303 20242,42306 20239,42308 20235,42311 20232,42313 20228,42316 20225,42318 20221,42320 20218,42322 20214,42324 20210,42326 20206,42328 20203,42330 20199,42332 20195,42333 20191,42335 20187,42336 20183,42338 20179,42339 20175,42341 20171,42342 20167,42343 20163,42344 20159,42345 20155,42346 20151,42347 20147,42347 20143,42348 20139,42349 20134,42349 20130,42350 20126,42350 20122,42350 20118,42350 20113,42350 20109,42350 20105,42350 20101,42350 20097,42350 20092,42349 20088,42349 20084,42349 20080,42348 20076,42347 20072,42347 20068,42346 20063,42345 20060,42344 20055,42343 20051,42342 20047,42340 20043,42339 20040,42338 20036,42336 20032,42335 20028,42333 20024,42331 20020,42329 20016,42328 20013,42326 20009,42324 20005,42322 20002,42320 19998,42317 19994,42315 19991,42313 19988,42310 19984,42308 19981,42305 19978,42303 19974,42300 19971,42297 19968,42295 19965,42292 19962,42289 19959,42286 19956,42283 19953,42280 19951,42277 19948,42273 19945,42270 19942,42267 19940,42264 19938,42260 19935,42257 19933,42253 19931,42250 19928,42246 19926,42242 19924,42239 19922,42235 19920,42231 19919,42227 19917,42223 19915,42219 19914,42215 19912,42211 19911,42207 19909,42203 19908,42199 19907,42195 19906,42191 19905,42187 19904,42183 19903,42179 19902,42174 19901,42171 19900,42166 19900,42162 19899,42158 19899,42154 19899,42150 19898,42146 19898,42141 19898,42137 19885,42137 Z"/>
   </g>
  </g>
 </g>
</svg>