<?xml version="1.0" encoding="UTF-8"?>
<!DOCTYPE svg PUBLIC "-//W3C//DTD SVG 1.1//EN" "http://www.w3.org/Graphics/SVG/1.1/DTD/svg11.dtd">
<svg version="1.2" width="16.74mm" height="25.04mm" viewBox="30957 39998 1674 2504" preserveAspectRatio="xMidYMid" fill-rule="evenodd" stroke-width="28.222" stroke-linejoin="round" xmlns="http://www.w3.org/2000/svg" xmlns:ooo="http://xml.openoffice.org/svg/export" xmlns:xlink="http://www.w3.org/1999/xlink" xmlns:presentation="http://sun.com/xmlns/staroffice/presentation" xmlns:smil="http://www.w3.org/2001/SMIL20/" xmlns:anim="urn:oasis:names:tc:opendocument:xmlns:animation:1.0" xml:space="preserve">
 <defs class="EmbeddedBulletChars">
  <g id="bullet-char-template-57356" transform="scale(0.00048828125,-0.00048828125)">
   <path d="M 580,1141 L 1163,571 580,0 -4,571 580,1141 Z"/>
  </g>
  <g id="bullet-char-template-57354" transform="scale(0.00048828125,-0.00048828125)">
   <path d="M 8,1128 L 1137,1128 1137,0 8,0 8,1128 Z"/>
  </g>
  <g id="bullet-char-template-10146" transform="scale(0.00048828125,-0.00048828125)">
   <path d="M 174,0 L 602,739 174,1481 1456,739 174,0 Z M 1358,739 L 309,1346 659,739 1358,739 Z"/>
  </g>
  <g id="bullet-char-template-10132" transform="scale(0.00048828125,-0.00048828125)">
   <path d="M 2015,739 L 1276,0 717,0 1260,543 174,543 174,936 1260,936 717,1481 1274,1481 2015,739 Z"/>
  </g>
  <g id="bullet-char-template-10007" transform="scale(0.00048828125,-0.00048828125)">
   <path d="M 0,-2 C -7,14 -16,27 -25,37 L 356,567 C 262,823 215,952 215,954 215,979 228,992 255,992 264,992 276,990 289,987 310,991 331,999 354,1012 L 381,999 492,748 772,1049 836,1024 860,1049 C 881,1039 901,1025 922,1006 886,937 835,863 770,784 769,783 710,716 594,584 L 774,223 C 774,196 753,168 711,139 L 727,119 C 717,90 699,76 672,76 641,76 570,178 457,381 L 164,-76 C 142,-110 111,-127 72,-127 30,-127 9,-110 8,-76 1,-67 -2,-52 -2,-32 -2,-23 -1,-13 0,-2 Z"/>
  </g>
  <g id="bullet-char-template-10004" transform="scale(0.00048828125,-0.00048828125)">
   <path d="M 285,-33 C 182,-33 111,30 74,156 52,228 41,333 41,471 41,549 55,616 82,672 116,743 169,778 240,778 293,778 328,747 346,684 L 369,508 C 377,444 397,411 428,410 L 1163,1116 C 1174,1127 1196,1133 1229,1133 1271,1133 1292,1118 1292,1087 L 1292,965 C 1292,929 1282,901 1262,881 L 442,47 C 390,-6 338,-33 285,-33 Z"/>
  </g>
  <g id="bullet-char-template-9679" transform="scale(0.00048828125,-0.00048828125)">
   <path d="M 813,0 C 632,0 489,54 383,161 276,268 223,411 223,592 223,773 276,916 383,1023 489,1130 632,1184 813,1184 992,1184 1136,1130 1245,1023 1353,916 1407,772 1407,592 1407,412 1353,268 1245,161 1136,54 992,0 813,0 Z"/>
  </g>
  <g id="bullet-char-template-8226" transform="scale(0.00048828125,-0.00048828125)">
   <path d="M 346,457 C 273,457 209,483 155,535 101,586 74,649 74,723 74,796 101,859 155,911 209,963 273,989 346,989 419,989 480,963 531,910 582,859 608,796 608,723 608,648 583,586 532,535 482,483 420,457 346,457 Z"/>
  </g>
  <g id="bullet-char-template-8211" transform="scale(0.00048828125,-0.00048828125)">
   <path d="M -4,459 L 1135,459 1135,606 -4,606 -4,459 Z"/>
  </g>
  <g id="bullet-char-template-61548" transform="scale(0.00048828125,-0.00048828125)">
   <path d="M 173,740 C 173,903 231,1043 346,1159 462,1274 601,1332 765,1332 928,1332 1067,1274 1183,1159 1299,1043 1357,903 1357,740 1357,577 1299,437 1183,322 1067,206 928,148 765,148 601,148 462,206 346,322 231,437 173,577 173,740 Z"/>
  </g>
 </defs>
 <g class="Page">
  <g class="com.sun.star.drawing.PolyPolygonShape">
   <g id="id3">
    <rect class="BoundingBox" stroke="none" fill="none" x="30957" y="39998" width="1674" height="2504"/>
    <path fill="rgb(0,0,255)" stroke="none" d="M 31146,42500 L 32440,42500 32445,42500 32449,42500 32454,42500 32458,42499 32463,42499 32468,42498 32472,42498 32477,42497 32481,42496 32486,42495 32490,42494 32494,42492 32499,42491 32503,42489 32508,42488 32512,42486 32516,42484 32520,42482 32524,42480 32529,42478 32533,42476 32537,42474 32541,42471 32544,42469 32549,42466 32553,42463 32556,42461 32560,42458 32564,42455 32567,42452 32570,42449 32574,42445 32577,42442 32580,42439 32583,42435 32586,42432 32589,42428 32592,42425 32595,42421 32597,42417 32600,42413 32602,42409 32604,42405 32607,42401 32609,42397 32611,42393 32613,42389 32614,42385 32616,42380 32618,42376 32619,42372 32621,42367 32622,42363 32623,42358 32624,42354 32625,42349 32626,42345 32627,42340 32627,42336 32628,42331 32628,42327 32629,42322 32629,42317 32629,42313 32629,40187 32629,40182 32629,40178 32628,40173 32628,40169 32627,40164 32627,40159 32626,40155 32625,40150 32624,40146 32623,40141 32622,40137 32621,40133 32619,40128 32618,40124 32616,40119 32614,40115 32613,40111 32611,40107 32609,40103 32607,40099 32604,40095 32602,40091 32600,40087 32597,40083 32595,40079 32592,40075 32589,40072 32586,40068 32583,40065 32580,40061 32577,40058 32574,40054 32570,40051 32567,40048 32564,40045 32560,40042 32556,40039 32553,40036 32549,40034 32544,40031 32541,40029 32537,40026 32533,40024 32529,40022 32524,40020 32520,40018 32516,40015 32512,40014 32508,40012 32503,40011 32499,40009 32494,40008 32490,40006 32486,40005 32481,40004 32477,40003 32472,40002 32468,40001 32463,40001 32458,40000 32454,40000 32449,40000 32445,39999 32440,39999 31146,39999 31142,39999 31137,40000 31132,40000 31128,40000 31123,40001 31119,40001 31114,40002 31110,40003 31105,40004 31101,40005 31096,40006 31092,40008 31087,40009 31083,40011 31079,40012 31074,40014 31070,40015 31066,40018 31062,40020 31058,40022 31054,40024 31050,40026 31046,40029 31042,40031 31038,40034 31034,40036 31031,40039 31027,40042 31023,40045 31020,40048 31017,40051 31013,40054 31010,40058 31007,40061 31004,40065 31001,40068 30998,40072 30995,40075 30993,40079 30990,40083 30988,40087 30985,40091 30983,40095 30981,40099 30978,40103 30976,40107 30974,40111 30973,40115 30971,40119 30969,40124 30968,40128 30966,40133 30965,40137 30964,40141 30963,40146 30962,40150 30961,40155 30960,40159 30960,40164 30959,40169 30959,40173 30959,40178 30958,40182 30958,40187 30958,42313 30958,42317 30959,42322 30959,42327 30959,42331 30960,42336 30960,42340 30961,42345 30962,42349 30963,42354 30964,42358 30965,42363 30966,42367 30968,42372 30969,42376 30971,42380 30973,42385 30974,42389 30976,42393 30978,42397 30981,42401 30983,42405 30985,42409 30988,42413 30990,42417 30993,42421 30995,42425 30998,42428 31001,42432 31004,42435 31007,42439 31010,42442 31013,42445 31017,42449 31020,42452 31023,42455 31027,42458 31031,42461 31034,42463 31038,42466 31042,42469 31046,42471 31050,42474 31054,42476 31058,42478 31062,42480 31066,42482 31070,42484 31074,42486 31079,42488 31083,42489 31087,42491 31092,42492 31096,42494 31101,42495 31105,42496 31110,42497 31114,42498 31119,42498 31123,42499 31128,42499 31132,42500 31137,42500 31142,42500 31146,42500 Z"/>
    <path fill="none" stroke="rgb(0,0,255)" d="M 31146,42500 L 32440,42500 32445,42500 32449,42500 32454,42500 32458,42499 32463,42499 32468,42498 32472,42498 32477,42497 32481,42496 32486,42495 32490,42494 32494,42492 32499,42491 32503,42489 32508,42488 32512,42486 32516,42484 32520,42482 32524,42480 32529,42478 32533,42476 32537,42474 32541,42471 32544,42469 32549,42466 32553,42463 32556,42461 32560,42458 32564,42455 32567,42452 32570,42449 32574,42445 32577,42442 32580,42439 32583,42435 32586,42432 32589,42428 32592,42425 32595,42421 32597,42417 32600,42413 32602,42409 32604,42405 32607,42401 32609,42397 32611,42393 32613,42389 32614,42385 32616,42380 32618,42376 32619,42372 32621,42367 32622,42363 32623,42358 32624,42354 32625,42349 32626,42345 32627,42340 32627,42336 32628,42331 32628,42327 32629,42322 32629,42317 32629,42313 32629,40187 32629,40182 32629,40178 32628,40173 32628,40169 32627,40164 32627,40159 32626,40155 32625,40150 32624,40146 32623,40141 32622,40137 32621,40133 32619,40128 32618,40124 32616,40119 32614,40115 32613,40111 32611,40107 32609,40103 32607,40099 32604,40095 32602,40091 32600,40087 32597,40083 32595,40079 32592,40075 32589,40072 32586,40068 32583,40065 32580,40061 32577,40058 32574,40054 32570,40051 32567,40048 32564,40045 32560,40042 32556,40039 32553,40036 32549,40034 32544,40031 32541,40029 32537,40026 32533,40024 32529,40022 32524,40020 32520,40018 32516,40015 32512,40014 32508,40012 32503,40011 32499,40009 32494,40008 32490,40006 32486,40005 32481,40004 32477,40003 32472,40002 32468,40001 32463,40001 32458,40000 32454,40000 32449,40000 32445,39999 32440,39999 31146,39999 31142,39999 31137,40000 31132,40000 31128,40000 31123,40001 31119,40001 31114,40002 31110,40003 31105,40004 31101,40005 31096,40006 31092,40008 31087,40009 31083,40011 31079,40012 31074,40014 31070,40015 31066,40018 31062,40020 31058,40022 31054,40024 31050,40026 31046,40029 31042,40031 31038,40034 31034,40036 31031,40039 31027,40042 31023,40045 31020,40048 31017,40051 31013,40054 31010,40058 31007,40061 31004,40065 31001,40068 30998,40072 30995,40075 30993,40079 30990,40083 30988,40087 30985,40091 30983,40095 30981,40099 30978,40103 30976,40107 30974,40111 30973,40115 30971,40119 30969,40124 30968,40128 30966,40133 30965,40137 30964,40141 30963,40146 30962,40150 30961,40155 30960,40159 30960,40164 30959,40169 30959,40173 30959,40178 30958,40182 30958,40187 30958,42313 30958,42317 30959,42322 30959,42327 30959,42331 30960,42336 30960,42340 30961,42345 30962,42349 30963,42354 30964,42358 30965,42363 30966,42367 30968,42372 30969,42376 30971,42380 30973,42385 30974,42389 30976,42393 30978,42397 30981,42401 30983,42405 30985,42409 30988,42413 30990,42417 30993,42421 30995,42425 30998,42428 31001,42432 31004,42435 31007,42439 31010,42442 31013,42445 31017,42449 31020,42452 31023,42455 31027,42458 31031,42461 31034,42463 31038,42466 31042,42469 31046,42471 31050,42474 31054,42476 31058,42478 31062,42480 31066,42482 31070,42484 31074,42486 31079,42488 31083,42489 31087,42491 31092,42492 31096,42494 31101,42495 31105,42496 31110,42497 31114,42498 31119,42498 31123,42499 31128,42499 31132,42500 31137,42500 31142,42500 31146,42500 Z"/>
   </g>
  </g>
  <g class="com.sun.star.drawing.PolyPolygonShape">
   <g id="id4">
    <rect class="BoundingBox" stroke="none" fill="none" x="31020" y="40061" width="1548" height="2379"/>
    <path fill="rgb(255,255,255)" stroke="none" d="M 31146,42438 L 32441,42438 32444,42438 32447,42438 32450,42438 32453,42437 32456,42437 32459,42437 32462,42436 32465,42435 32468,42435 32471,42434 32474,42433 32477,42432 32480,42432 32483,42431 32486,42430 32489,42428 32492,42427 32495,42426 32497,42424 32500,42423 32503,42422 32505,42420 32508,42419 32510,42417 32513,42415 32516,42413 32518,42411 32520,42410 32523,42408 32525,42406 32527,42403 32530,42401 32532,42399 32534,42397 32536,42395 32538,42392 32540,42390 32542,42387 32543,42385 32545,42382 32547,42380 32548,42377 32550,42374 32551,42372 32553,42369 32554,42366 32555,42364 32557,42361 32558,42358 32559,42355 32560,42352 32561,42349 32562,42346 32562,42343 32563,42340 32564,42337 32564,42334 32565,42331 32565,42328 32566,42325 32566,42322 32566,42319 32566,42316 32566,42313 32566,40187 32566,40184 32566,40181 32566,40178 32566,40175 32565,40172 32565,40169 32564,40166 32564,40163 32563,40160 32562,40157 32562,40154 32561,40151 32560,40148 32559,40145 32558,40142 32557,40139 32555,40136 32554,40134 32553,40131 32551,40128 32550,40125 32548,40123 32547,40120 32545,40117 32543,40115 32542,40112 32540,40110 32538,40108 32536,40105 32534,40103 32532,40101 32530,40099 32527,40096 32525,40094 32523,40092 32520,40090 32518,40088 32516,40087 32513,40085 32510,40083 32508,40081 32505,40080 32503,40078 32500,40077 32497,40075 32495,40074 32492,40073 32489,40072 32486,40070 32483,40069 32480,40068 32477,40067 32474,40066 32471,40066 32468,40065 32465,40064 32462,40064 32459,40063 32456,40063 32453,40063 32450,40062 32447,40062 32444,40062 32441,40062 31146,40062 31143,40062 31140,40062 31137,40062 31134,40063 31131,40063 31128,40063 31125,40064 31122,40064 31119,40065 31116,40066 31113,40066 31110,40067 31107,40068 31104,40069 31101,40070 31098,40072 31095,40073 31093,40074 31090,40075 31087,40077 31085,40078 31082,40080 31079,40081 31077,40083 31074,40085 31072,40087 31069,40088 31067,40090 31064,40092 31062,40094 31060,40096 31058,40099 31055,40101 31053,40103 31051,40105 31049,40108 31048,40110 31046,40112 31044,40115 31042,40117 31040,40120 31039,40123 31037,40125 31036,40128 31034,40131 31033,40134 31032,40136 31031,40139 31029,40142 31028,40145 31027,40148 31026,40151 31026,40154 31025,40157 31024,40160 31023,40163 31023,40166 31022,40169 31022,40172 31022,40175 31021,40178 31021,40181 31021,40184 31021,40187 31021,42313 31021,42316 31021,42319 31021,42322 31022,42325 31022,42328 31022,42331 31023,42334 31023,42337 31024,42340 31025,42343 31026,42346 31026,42349 31027,42352 31028,42355 31029,42358 31031,42361 31032,42364 31033,42366 31034,42369 31036,42372 31037,42374 31039,42377 31040,42380 31042,42382 31044,42385 31046,42387 31048,42390 31049,42392 31051,42395 31053,42397 31055,42399 31058,42401 31060,42403 31062,42406 31064,42408 31067,42410 31069,42411 31072,42413 31074,42415 31077,42417 31079,42419 31082,42420 31085,42422 31087,42423 31090,42424 31093,42426 31095,42427 31098,42428 31101,42430 31104,42431 31107,42432 31110,42432 31113,42433 31116,42434 31119,42435 31122,42435 31125,42436 31128,42437 31131,42437 31134,42437 31137,42438 31140,42438 31143,42438 31146,42438 Z"/>
    <path fill="none" stroke="rgb(255,255,255)" d="M 31146,42438 L 32441,42438 32444,42438 32447,42438 32450,42438 32453,42437 32456,42437 32459,42437 32462,42436 32465,42435 32468,42435 32471,42434 32474,42433 32477,42432 32480,42432 32483,42431 32486,42430 32489,42428 32492,42427 32495,42426 32497,42424 32500,42423 32503,42422 32505,42420 32508,42419 32510,42417 32513,42415 32516,42413 32518,42411 32520,42410 32523,42408 32525,42406 32527,42403 32530,42401 32532,42399 32534,42397 32536,42395 32538,42392 32540,42390 32542,42387 32543,42385 32545,42382 32547,42380 32548,42377 32550,42374 32551,42372 32553,42369 32554,42366 32555,42364 32557,42361 32558,42358 32559,42355 32560,42352 32561,42349 32562,42346 32562,42343 32563,42340 32564,42337 32564,42334 32565,42331 32565,42328 32566,42325 32566,42322 32566,42319 32566,42316 32566,42313 32566,40187 32566,40184 32566,40181 32566,40178 32566,40175 32565,40172 32565,40169 32564,40166 32564,40163 32563,40160 32562,40157 32562,40154 32561,40151 32560,40148 32559,40145 32558,40142 32557,40139 32555,40136 32554,40134 32553,40131 32551,40128 32550,40125 32548,40123 32547,40120 32545,40117 32543,40115 32542,40112 32540,40110 32538,40108 32536,40105 32534,40103 32532,40101 32530,40099 32527,40096 32525,40094 32523,40092 32520,40090 32518,40088 32516,40087 32513,40085 32510,40083 32508,40081 32505,40080 32503,40078 32500,40077 32497,40075 32495,40074 32492,40073 32489,40072 32486,40070 32483,40069 32480,40068 32477,40067 32474,40066 32471,40066 32468,40065 32465,40064 32462,40064 32459,40063 32456,40063 32453,40063 32450,40062 32447,40062 32444,40062 32441,40062 31146,40062 31143,40062 31140,40062 31137,40062 31134,40063 31131,40063 31128,40063 31125,40064 31122,40064 31119,40065 31116,40066 31113,40066 31110,40067 31107,40068 31104,40069 31101,40070 31098,40072 31095,40073 31093,40074 31090,40075 31087,40077 31085,40078 31082,40080 31079,40081 31077,40083 31074,40085 31072,40087 31069,40088 31067,40090 31064,40092 31062,40094 31060,40096 31058,40099 31055,40101 31053,40103 31051,40105 31049,40108 31048,40110 31046,40112 31044,40115 31042,40117 31040,40120 31039,40123 31037,40125 31036,40128 31034,40131 31033,40134 31032,40136 31031,40139 31029,40142 31028,40145 31027,40148 31026,40151 31026,40154 31025,40157 31024,40160 31023,40163 31023,40166 31022,40169 31022,40172 31022,40175 31021,40178 31021,40181 31021,40184 31021,40187 31021,42313 31021,42316 31021,42319 31021,42322 31022,42325 31022,42328 31022,42331 31023,42334 31023,42337 31024,42340 31025,42343 31026,42346 31026,42349 31027,42352 31028,42355 31029,42358 31031,42361 31032,42364 31033,42366 31034,42369 31036,42372 31037,42374 31039,42377 31040,42380 31042,42382 31044,42385 31046,42387 31048,42390 31049,42392 31051,42395 31053,42397 31055,42399 31058,42401 31060,42403 31062,42406 31064,42408 31067,42410 31069,42411 31072,42413 31074,42415 31077,42417 31079,42419 31082,42420 31085,42422 31087,42423 31090,42424 31093,42426 31095,42427 31098,42428 31101,42430 31104,42431 31107,42432 31110,42432 31113,42433 31116,42434 31119,42435 31122,42435 31125,42436 31128,42437 31131,42437 31134,42437 31137,42438 31140,42438 31143,42438 31146,42438 Z"/>
   </g>
  </g>
  <g class="com.sun.star.drawing.PolyPolygonShape">
   <g id="id5">
    <rect class="BoundingBox" stroke="none" fill="none" x="31083" y="40124" width="1423" height="2253"/>
    <path fill="rgb(0,0,255)" stroke="none" d="M 31146,42375 L 32441,42375 32443,42375 32444,42375 32446,42375 32447,42375 32449,42375 32450,42375 32452,42374 32453,42374 32455,42374 32456,42373 32458,42373 32459,42373 32461,42372 32462,42372 32464,42371 32465,42371 32466,42370 32468,42369 32469,42369 32471,42368 32472,42367 32473,42366 32475,42366 32476,42365 32477,42364 32478,42363 32479,42362 32481,42361 32482,42360 32483,42359 32484,42358 32485,42357 32486,42356 32487,42355 32488,42354 32489,42353 32490,42351 32491,42350 32492,42349 32493,42348 32494,42346 32495,42345 32495,42344 32496,42342 32497,42341 32498,42340 32498,42338 32499,42337 32499,42335 32500,42334 32500,42332 32501,42331 32501,42330 32502,42328 32502,42327 32502,42325 32503,42324 32503,42322 32503,42321 32503,42319 32503,42317 32503,42316 32504,42314 32504,42313 32504,40187 32504,40185 32503,40184 32503,40182 32503,40181 32503,40179 32503,40178 32503,40176 32502,40175 32502,40173 32502,40172 32501,40170 32501,40169 32500,40167 32500,40166 32499,40165 32499,40163 32498,40162 32498,40160 32497,40159 32496,40158 32495,40156 32495,40155 32494,40153 32493,40152 32492,40151 32491,40150 32490,40149 32489,40147 32488,40146 32487,40145 32486,40144 32485,40143 32484,40142 32483,40141 32482,40140 32481,40139 32479,40138 32478,40137 32477,40136 32476,40135 32475,40134 32473,40133 32472,40133 32471,40132 32469,40131 32468,40130 32466,40130 32465,40129 32464,40129 32462,40128 32461,40128 32459,40127 32458,40127 32456,40126 32455,40126 32453,40126 32452,40125 32450,40125 32449,40125 32447,40125 32446,40125 32444,40125 32443,40125 32441,40125 31146,40125 31145,40125 31143,40125 31142,40125 31140,40125 31139,40125 31137,40125 31135,40125 31134,40126 31132,40126 31131,40126 31129,40127 31128,40127 31127,40128 31125,40128 31124,40129 31122,40129 31121,40130 31119,40130 31118,40131 31117,40132 31115,40133 31114,40133 31113,40134 31111,40135 31110,40136 31109,40137 31108,40138 31106,40139 31105,40140 31104,40141 31103,40142 31102,40143 31101,40144 31100,40145 31099,40146 31098,40147 31097,40149 31096,40150 31095,40151 31094,40152 31093,40153 31092,40155 31092,40156 31091,40158 31090,40159 31090,40160 31089,40162 31088,40163 31088,40165 31087,40166 31087,40167 31086,40169 31086,40170 31085,40172 31085,40173 31085,40175 31085,40176 31084,40178 31084,40179 31084,40181 31084,40182 31084,40184 31084,40185 31084,40187 31084,42313 31084,42314 31084,42316 31084,42317 31084,42319 31084,42321 31084,42322 31085,42324 31085,42325 31085,42327 31085,42328 31086,42330 31086,42331 31087,42332 31087,42334 31088,42335 31088,42337 31089,42338 31090,42340 31090,42341 31091,42342 31092,42344 31092,42345 31093,42346 31094,42348 31095,42349 31096,42350 31097,42351 31098,42353 31099,42354 31100,42355 31101,42356 31102,42357 31103,42358 31104,42359 31105,42360 31106,42361 31108,42362 31109,42363 31110,42364 31111,42365 31113,42366 31114,42366 31115,42367 31117,42368 31118,42369 31119,42369 31121,42370 31122,42371 31124,42371 31125,42372 31127,42372 31128,42373 31129,42373 31131,42373 31132,42374 31134,42374 31135,42374 31137,42375 31139,42375 31140,42375 31142,42375 31143,42375 31145,42375 31146,42375 Z"/>
    <path fill="none" stroke="rgb(0,0,255)" d="M 31146,42375 L 32441,42375 32443,42375 32444,42375 32446,42375 32447,42375 32449,42375 32450,42375 32452,42374 32453,42374 32455,42374 32456,42373 32458,42373 32459,42373 32461,42372 32462,42372 32464,42371 32465,42371 32466,42370 32468,42369 32469,42369 32471,42368 32472,42367 32473,42366 32475,42366 32476,42365 32477,42364 32478,42363 32479,42362 32481,42361 32482,42360 32483,42359 32484,42358 32485,42357 32486,42356 32487,42355 32488,42354 32489,42353 32490,42351 32491,42350 32492,42349 32493,42348 32494,42346 32495,42345 32495,42344 32496,42342 32497,42341 32498,42340 32498,42338 32499,42337 32499,42335 32500,42334 32500,42332 32501,42331 32501,42330 32502,42328 32502,42327 32502,42325 32503,42324 32503,42322 32503,42321 32503,42319 32503,42317 32503,42316 32504,42314 32504,42313 32504,40187 32504,40185 32503,40184 32503,40182 32503,40181 32503,40179 32503,40178 32503,40176 32502,40175 32502,40173 32502,40172 32501,40170 32501,40169 32500,40167 32500,40166 32499,40165 32499,40163 32498,40162 32498,40160 32497,40159 32496,40158 32495,40156 32495,40155 32494,40153 32493,40152 32492,40151 32491,40150 32490,40149 32489,40147 32488,40146 32487,40145 32486,40144 32485,40143 32484,40142 32483,40141 32482,40140 32481,40139 32479,40138 32478,40137 32477,40136 32476,40135 32475,40134 32473,40133 32472,40133 32471,40132 32469,40131 32468,40130 32466,40130 32465,40129 32464,40129 32462,40128 32461,40128 32459,40127 32458,40127 32456,40126 32455,40126 32453,40126 32452,40125 32450,40125 32449,40125 32447,40125 32446,40125 32444,40125 32443,40125 32441,40125 31146,40125 31145,40125 31143,40125 31142,40125 31140,40125 31139,40125 31137,40125 31135,40125 31134,40126 31132,40126 31131,40126 31129,40127 31128,40127 31127,40128 31125,40128 31124,40129 31122,40129 31121,40130 31119,40130 31118,40131 31117,40132 31115,40133 31114,40133 31113,40134 31111,40135 31110,40136 31109,40137 31108,40138 31106,40139 31105,40140 31104,40141 31103,40142 31102,40143 31101,40144 31100,40145 31099,40146 31098,40147 31097,40149 31096,40150 31095,40151 31094,40152 31093,40153 31092,40155 31092,40156 31091,40158 31090,40159 31090,40160 31089,40162 31088,40163 31088,40165 31087,40166 31087,40167 31086,40169 31086,40170 31085,40172 31085,40173 31085,40175 31085,40176 31084,40178 31084,40179 31084,40181 31084,40182 31084,40184 31084,40185 31084,40187 31084,42313 31084,42314 31084,42316 31084,42317 31084,42319 31084,42321 31084,42322 31085,42324 31085,42325 31085,42327 31085,42328 31086,42330 31086,42331 31087,42332 31087,42334 31088,42335 31088,42337 31089,42338 31090,42340 31090,42341 31091,42342 31092,42344 31092,42345 31093,42346 31094,42348 31095,42349 31096,42350 31097,42351 31098,42353 31099,42354 31100,42355 31101,42356 31102,42357 31103,42358 31104,42359 31105,42360 31106,42361 31108,42362 31109,42363 31110,42364 31111,42365 31113,42366 31114,42366 31115,42367 31117,42368 31118,42369 31119,42369 31121,42370 31122,42371 31124,42371 31125,42372 31127,42372 31128,42373 31129,42373 31131,42373 31132,42374 31134,42374 31135,42374 31137,42375 31139,42375 31140,42375 31142,42375 31143,42375 31145,42375 31146,42375 Z"/>
   </g>
  </g>
  <g class="com.sun.star.drawing.PolyPolygonShape">
   <g id="id6">
    <rect class="BoundingBox" stroke="none" fill="none" x="31270" y="40309" width="1047" height="631"/>
    <path fill="rgb(255,255,255)" stroke="none" d="M 31271,40938 L 32315,40938 32315,40310 31271,40310 31271,40938 Z"/>
    <path fill="none" stroke="rgb(255,255,255)" d="M 31271,40938 L 32315,40938 32315,40310 31271,40310 31271,40938 Z"/>
   </g>
  </g>
  <g class="com.sun.star.drawing.PolyPolygonShape">
   <g id="id7">
    <rect class="BoundingBox" stroke="none" fill="none" x="31165" y="41686" width="1256" height="504"/>
    <path fill="rgb(255,255,255)" stroke="none" d="M 32419,41855 L 32419,42021 31583,42021 31583,42188 31166,41938 31583,41687 31583,41855 32419,41855 Z"/>
    <path fill="none" stroke="rgb(255,255,255)" d="M 32419,41855 L 32419,42021 31583,42021 31583,42188 31166,41938 31583,41687 31583,41855 32419,41855 Z"/>
   </g>
  </g>
  <g class="com.sun.star.drawing.PolyPolygonShape">
   <g id="id8">
    <rect class="BoundingBox" stroke="none" fill="none" x="31332" y="40378" width="922" height="493"/>
    <path fill="rgb(0,0,0)" stroke="none" d="M 32232,40592 L 32223,40597 32221,40594 32219,40591 32216,40588 32214,40585 32212,40582 32209,40579 32206,40576 32204,40573 32201,40570 32198,40568 32196,40565 32193,40563 32190,40560 32187,40557 32184,40555 32181,40553 32177,40551 32174,40548 32171,40546 32168,40544 32164,40542 32161,40540 32158,40539 32154,40537 32151,40535 32147,40534 32144,40532 32140,40531 32136,40529 32133,40528 32129,40527 32125,40526 32122,40525 32118,40524 32114,40523 32110,40522 32106,40522 32103,40521 32099,40520 32095,40520 32091,40520 32087,40519 32083,40519 32080,40519 32076,40519 32072,40519 32068,40519 32064,40520 32060,40520 32056,40520 32052,40521 32049,40521 32045,40522 32041,40523 32037,40524 32033,40525 32030,40526 32026,40527 32022,40528 32019,40529 32015,40531 32011,40532 32008,40534 32004,40535 31999,40525 32003,40524 32007,40522 32011,40521 32015,40519 32019,40518 32023,40517 32026,40515 32030,40514 32034,40513 32038,40512 32043,40512 32047,40511 32051,40510 32055,40510 32059,40509 32063,40509 32067,40508 32071,40508 32075,40508 32079,40508 32084,40508 32088,40508 32092,40509 32096,40509 32100,40510 32104,40510 32108,40511 32112,40512 32116,40512 32120,40513 32124,40514 32128,40515 32132,40516 32136,40518 32140,40519 32144,40521 32148,40522 32152,40524 32155,40525 32159,40527 32163,40529 32166,40531 32170,40533 32174,40535 32177,40537 32180,40539 32184,40542 32187,40544 32191,40547 32194,40549 32197,40552 32200,40554 32203,40557 32206,40560 32209,40563 32212,40566 32215,40569 32218,40572 32220,40575 32223,40578 32225,40582 32228,40585 32230,40588 32232,40592 Z M 31805,40579 L 31847,40579 31847,40594 31833,40594 31833,40642 31835,40642 31837,40642 31839,40643 31841,40644 31932,40454 31598,40454 31593,40473 31793,40653 31794,40652 31796,40651 31797,40650 31799,40649 31800,40648 31802,40647 31804,40646 31805,40646 31807,40645 31809,40644 31811,40644 31812,40643 31814,40643 31816,40642 31818,40642 31820,40642 31820,40594 31805,40594 31805,40579 Z M 31529,40681 L 31529,40682 31530,40683 31530,40684 31531,40685 31665,40681 31665,40678 31664,40675 31664,40673 31664,40670 31663,40668 31663,40665 31662,40663 31662,40660 31661,40657 31661,40655 31660,40652 31659,40650 31658,40647 31658,40645 31657,40642 31656,40640 31655,40637 31654,40635 31653,40633 31652,40630 31651,40628 31650,40625 31649,40623 31648,40621 31646,40619 31645,40616 31644,40614 31642,40612 31641,40610 31640,40607 31638,40605 31637,40603 31635,40601 31634,40599 31632,40597 31630,40595 31629,40593 31627,40591 31625,40589 31623,40587 31622,40585 31620,40583 31618,40581 31616,40579 31614,40578 31612,40576 31610,40574 31608,40572 31606,40571 31604,40569 31602,40568 31600,40566 31598,40565 31596,40563 31593,40562 31591,40560 31589,40559 31587,40558 31585,40556 31582,40555 31580,40554 31578,40553 31575,40552 31573,40550 31552,40631 31551,40634 31550,40638 31550,40641 31549,40644 31548,40648 31546,40651 31545,40654 31544,40658 31542,40661 31541,40664 31539,40667 31537,40670 31535,40673 31533,40676 31531,40679 31529,40681 Z M 31517,40671 L 31516,40671 31515,40671 31514,40670 31513,40670 31512,40670 31511,40670 31510,40670 31509,40670 31508,40670 31507,40670 31506,40670 31505,40670 31504,40670 31503,40670 31502,40670 31501,40671 31500,40671 31499,40671 31499,40672 31498,40672 31497,40672 31496,40673 31495,40673 31495,40674 31494,40674 31493,40675 31493,40676 31492,40676 31491,40677 31490,40678 31489,40679 31488,40680 31488,40681 31487,40682 31486,40683 31486,40684 31486,40685 31486,40686 31485,40687 31485,40688 31485,40689 31484,40690 31484,40691 31484,40692 31484,40693 31484,40694 31484,40695 31484,40696 31484,40697 31485,40698 31485,40699 31485,40700 31485,40701 31486,40702 31486,40703 31487,40704 31487,40705 31487,40706 31488,40706 31488,40707 31489,40708 31489,40709 31490,40709 31491,40710 31491,40711 31492,40711 31493,40712 31494,40713 31495,40713 31495,40714 31496,40715 31497,40715 31498,40715 31499,40716 31500,40716 31501,40717 31502,40717 31503,40717 31504,40717 31505,40717 31506,40717 31506,40718 31507,40718 31508,40718 31509,40718 31510,40718 31511,40717 31512,40717 31513,40717 31514,40717 31515,40717 31516,40716 31517,40716 31518,40716 31519,40715 31520,40715 31520,40714 31521,40714 31522,40713 31523,40713 31523,40712 31524,40712 31525,40711 31525,40710 31526,40710 31526,40709 31527,40708 31528,40708 31528,40707 31529,40706 31529,40705 31530,40705 31530,40704 31530,40703 31531,40702 31531,40701 31665,40696 31665,40699 31665,40702 31665,40705 31665,40708 31665,40711 31664,40714 31664,40717 31663,40720 31663,40723 31662,40726 31661,40729 31661,40732 31660,40735 31659,40738 31658,40741 31657,40744 31656,40747 31655,40751 31654,40754 31653,40757 31651,40760 31650,40762 31649,40765 31647,40768 31646,40771 31644,40773 31643,40776 31641,40778 31640,40781 31638,40784 31636,40786 31634,40789 31632,40791 31630,40794 31628,40796 31626,40798 31624,40801 31622,40803 31620,40805 31618,40807 31616,40809 31613,40811 31611,40813 31609,40815 31606,40817 31604,40819 31601,40821 31599,40823 31596,40825 31594,40826 31591,40828 31589,40830 31586,40831 31583,40833 31580,40834 31578,40836 31575,40837 31572,40838 31569,40839 31566,40841 31563,40842 31561,40843 31558,40844 31555,40845 31552,40846 31549,40846 31546,40847 31543,40848 31540,40848 31537,40849 31534,40850 31531,40850 31528,40851 31525,40851 31521,40851 31518,40851 31515,40852 31512,40852 31509,40852 31506,40852 31503,40852 31500,40852 31497,40851 31494,40851 31491,40851 31488,40850 31485,40850 31482,40849 31478,40849 31475,40848 31472,40848 31469,40847 31466,40846 31463,40845 31461,40844 31458,40843 31455,40842 31452,40841 31449,40840 31446,40839 31443,40838 31440,40836 31438,40835 31435,40834 31432,40832 31430,40831 31427,40829 31424,40827 31422,40826 31419,40824 31417,40822 31414,40821 31412,40819 31409,40817 31407,40815 31404,40813 31402,40811 31400,40809 31398,40807 31395,40804 31393,40802 31391,40800 31389,40798 31387,40795 31385,40793 31383,40790 31382,40788 31380,40785 31378,40783 31376,40780 31375,40778 31373,40775 31371,40772 31370,40770 31369,40767 31367,40764 31366,40761 31364,40759 31363,40756 31362,40753 31361,40750 31360,40746 31359,40743 31358,40740 31357,40737 31356,40734 31355,40731 31355,40728 31354,40725 31354,40722 31353,40719 31352,40716 31352,40713 31352,40710 31351,40707 31351,40704 31351,40701 31351,40698 31351,40695 31351,40692 31351,40689 31351,40686 31351,40682 31351,40679 31352,40676 31352,40673 31353,40670 31353,40667 31354,40664 31354,40661 31355,40658 31356,40655 31356,40652 31357,40649 31358,40646 31359,40643 31360,40640 31361,40637 31362,40635 31363,40632 31365,40629 31366,40626 31367,40623 31369,40621 31370,40618 31372,40615 31373,40613 31375,40610 31377,40607 31378,40605 31380,40602 31382,40600 31384,40597 31386,40595 31388,40593 31390,40590 31392,40588 31394,40586 31396,40583 31398,40581 31400,40579 31403,40577 31405,40575 31408,40573 31410,40571 31412,40569 31415,40567 31417,40565 31420,40564 31422,40562 31425,40560 31428,40559 31430,40557 31433,40556 31436,40554 31438,40553 31441,40552 31444,40550 31447,40549 31450,40548 31453,40547 31456,40546 31458,40545 31461,40544 31464,40543 31467,40542 31470,40541 31473,40541 31476,40540 31479,40539 31482,40539 31485,40538 31488,40538 31491,40537 31495,40537 31498,40537 31501,40537 31504,40537 31507,40537 31510,40537 31513,40537 31516,40537 31519,40537 31522,40537 31525,40537 31528,40538 31532,40538 31535,40539 31538,40539 31541,40540 31544,40541 31547,40541 31550,40542 31553,40543 31556,40544 31559,40545 31537,40628 31536,40631 31536,40634 31535,40637 31534,40640 31533,40643 31532,40645 31531,40648 31530,40651 31528,40654 31527,40656 31526,40659 31524,40662 31522,40664 31521,40667 31519,40669 31517,40671 Z M 31694,40680 L 31683,40680 31683,40677 31683,40674 31683,40671 31682,40668 31682,40665 31681,40662 31681,40659 31680,40657 31679,40654 31679,40651 31678,40648 31677,40645 31676,40642 31675,40639 31674,40637 31673,40634 31672,40631 31670,40628 31669,40626 31668,40623 31667,40620 31665,40617 31664,40615 31663,40612 31661,40610 31660,40607 31658,40604 31657,40602 31655,40599 31654,40597 31652,40594 31650,40592 31649,40590 31647,40587 31645,40585 31643,40583 31641,40580 31639,40578 31637,40576 31635,40574 31633,40572 31631,40570 31629,40568 31627,40565 31625,40563 31622,40562 31620,40560 31618,40558 31616,40556 31613,40554 31611,40552 31608,40551 31606,40549 31603,40547 31601,40546 31598,40544 31596,40543 31593,40541 31591,40540 31588,40538 31585,40537 31583,40536 31580,40535 31577,40533 31580,40523 31583,40524 31586,40525 31589,40527 31592,40528 31595,40530 31597,40531 31600,40533 31603,40534 31606,40536 31608,40537 31611,40539 31614,40541 31616,40543 31619,40545 31621,40547 31624,40548 31626,40551 31629,40553 31631,40555 31634,40557 31636,40559 31638,40561 31640,40563 31643,40566 31645,40568 31647,40570 31649,40573 31651,40575 31653,40578 31655,40580 31657,40583 31659,40585 31661,40588 31662,40590 31664,40593 31666,40596 31668,40599 31669,40601 31672,40604 31673,40607 31675,40610 31676,40612 31677,40615 31679,40618 31680,40621 31681,40624 31683,40627 31684,40630 31685,40633 31686,40636 31687,40639 31688,40642 31689,40645 31689,40648 31690,40651 31691,40654 31691,40657 31692,40661 31692,40664 31693,40667 31693,40670 31694,40673 31694,40676 31694,40680 Z M 32013,40552 L 32016,40550 32019,40549 32022,40548 32026,40546 32029,40545 32032,40544 32035,40543 32039,40543 32042,40542 32045,40541 32049,40540 32052,40540 32055,40539 32059,40539 32062,40538 32066,40538 32069,40538 32073,40538 32076,40538 32080,40538 32083,40538 32086,40538 32090,40538 32093,40539 32097,40539 32100,40539 32103,40540 32107,40541 32110,40541 32114,40542 32117,40543 32120,40544 32123,40545 32127,40546 32130,40547 32133,40548 32136,40549 32140,40551 32143,40552 32146,40553 32149,40555 32152,40557 32155,40558 32158,40560 32161,40562 32164,40564 32167,40566 32169,40568 32172,40570 32175,40572 32177,40574 32180,40576 32183,40578 32185,40581 32188,40583 32190,40586 32192,40588 32195,40591 32197,40593 32199,40596 32201,40599 32203,40601 32205,40604 32207,40607 32104,40669 32103,40668 32102,40667 32101,40666 32100,40666 32099,40665 32098,40664 32097,40664 32096,40663 32095,40662 32094,40662 32093,40661 32092,40661 32091,40660 32090,40660 32088,40659 32087,40659 32086,40659 32085,40658 32084,40658 32082,40658 32081,40658 32080,40658 32079,40658 32078,40658 32076,40658 32075,40658 32074,40658 32073,40658 32072,40658 32071,40658 32069,40659 32068,40659 32013,40552 Z M 31983,40526 L 31980,40528 31978,40530 31975,40531 31972,40533 31970,40535 31967,40536 31965,40538 31962,40540 31960,40542 31957,40544 31955,40545 31953,40547 31950,40549 31948,40552 31946,40553 31944,40556 31942,40558 31939,40560 31937,40562 31935,40564 31933,40567 31931,40569 31929,40571 31927,40574 31925,40576 31924,40579 31922,40581 31920,40583 31918,40586 31917,40588 31915,40591 31913,40594 31912,40596 31910,40599 31909,40602 31907,40604 31906,40607 31904,40610 31903,40612 31902,40615 31901,40618 31899,40621 31898,40624 31897,40627 31896,40629 31895,40632 31894,40635 31893,40638 31893,40641 31892,40644 31891,40647 31890,40650 31889,40653 31889,40656 31888,40659 31888,40662 31887,40665 31887,40668 31886,40671 31886,40674 31886,40677 31886,40680 31885,40683 31885,40686 31878,40686 31878,40685 31877,40683 31877,40682 31877,40681 31876,40679 31876,40678 31876,40677 31875,40676 31875,40674 31874,40673 31874,40672 31873,40670 31872,40669 31872,40668 31871,40667 31870,40666 31870,40664 31869,40663 31868,40662 31867,40661 31866,40660 31865,40659 31865,40658 31864,40657 31863,40656 31862,40655 31861,40654 31860,40653 31859,40653 31858,40652 31856,40651 31855,40650 31947,40457 31983,40526 Z M 31991,40542 L 31988,40543 31986,40545 31984,40546 31981,40548 31979,40549 31977,40551 31975,40552 31972,40554 31970,40556 31968,40557 31966,40559 31964,40561 31962,40563 31960,40565 31958,40566 31956,40568 31954,40570 31952,40572 31950,40574 31948,40576 31946,40578 31944,40581 31942,40582 31941,40585 31939,40587 31937,40589 31936,40591 31934,40594 31933,40596 31931,40598 31930,40600 31928,40603 31927,40605 31925,40607 31924,40610 31923,40612 31921,40615 31920,40617 31919,40620 31918,40622 31917,40625 31916,40627 31915,40630 31914,40632 31913,40635 31912,40637 31911,40640 31910,40643 31909,40645 31909,40648 31908,40651 31907,40653 31907,40656 31906,40659 31906,40661 31905,40664 31905,40667 31904,40670 31904,40672 31904,40675 31903,40678 31903,40681 31903,40683 31903,40686 31892,40686 31892,40683 31892,40680 31892,40677 31893,40674 31893,40671 31893,40668 31894,40666 31894,40663 31895,40660 31895,40657 31896,40654 31897,40651 31897,40648 31898,40645 31899,40643 31900,40640 31900,40637 31901,40634 31902,40631 31903,40629 31904,40626 31906,40623 31907,40621 31908,40618 31909,40615 31910,40612 31912,40610 31913,40607 31914,40605 31916,40602 31917,40600 31919,40597 31920,40595 31922,40592 31924,40590 31925,40587 31927,40585 31929,40582 31931,40580 31932,40578 31934,40575 31936,40573 31938,40571 31940,40569 31942,40567 31944,40565 31946,40563 31948,40560 31950,40558 31952,40556 31955,40554 31957,40553 31959,40551 31961,40549 31964,40547 31966,40545 31969,40543 31971,40542 31973,40540 31976,40538 31978,40537 31981,40535 31983,40534 31986,40532 31991,40542 Z M 31999,40559 L 31997,40560 31995,40561 31993,40562 31991,40564 31989,40565 31987,40566 31985,40568 31983,40569 31981,40571 31979,40572 31977,40574 31975,40575 31974,40577 31972,40579 31970,40580 31968,40582 31966,40584 31965,40585 31963,40587 31961,40589 31960,40591 31958,40593 31957,40595 31955,40596 31954,40598 31952,40600 31951,40602 31949,40604 31948,40606 31947,40608 31945,40610 31944,40612 31943,40614 31942,40617 31940,40619 31939,40621 31938,40623 31937,40625 31936,40627 31935,40630 31934,40632 31933,40634 31932,40636 31931,40639 31930,40641 31930,40643 31929,40645 31928,40648 31927,40650 31927,40652 31926,40655 31925,40657 31925,40660 31924,40662 31924,40664 31923,40667 31923,40669 31923,40672 31922,40674 31922,40676 31922,40679 31922,40681 31921,40684 31921,40686 32042,40686 32043,40684 32043,40683 32043,40682 32044,40680 32044,40679 32045,40677 32046,40676 32047,40675 32047,40674 32048,40672 32049,40671 32050,40670 32051,40669 32052,40668 32053,40667 32054,40666 31999,40559 Z M 32215,40620 L 32216,40622 32217,40624 32218,40626 32219,40628 32220,40630 32221,40632 32222,40634 32223,40636 32223,40638 32224,40640 32225,40642 32225,40644 32226,40646 32227,40648 32227,40650 32228,40652 32229,40654 32229,40657 32230,40659 32230,40661 32231,40663 32231,40665 32231,40667 32232,40669 32232,40672 32232,40674 32233,40676 32233,40678 32233,40680 32233,40682 32233,40685 32233,40687 32233,40689 32234,40691 32234,40693 32234,40695 32233,40698 32233,40700 32233,40702 32233,40704 32233,40706 32233,40709 32233,40711 32232,40713 32232,40715 32232,40717 32232,40719 32231,40722 32231,40724 32230,40726 32230,40728 32229,40730 32229,40732 32228,40734 32228,40736 32227,40739 32226,40741 32226,40743 32225,40745 32224,40747 32223,40750 32223,40752 32222,40754 32221,40756 32220,40758 32219,40760 32218,40762 32217,40764 32216,40766 32215,40768 32214,40770 32213,40772 32212,40774 32211,40775 32210,40777 32209,40779 32208,40781 32206,40783 32205,40785 32204,40786 32203,40788 32201,40790 32200,40792 32198,40793 32197,40795 32196,40797 32194,40798 32193,40800 32191,40801 32190,40803 32188,40805 32187,40806 32185,40808 32184,40809 32182,40811 32180,40812 32179,40813 32177,40815 32175,40816 32174,40818 32172,40819 32170,40820 32168,40822 32166,40823 32165,40824 32163,40825 32161,40826 32159,40828 32157,40829 32155,40830 32154,40831 32152,40832 32150,40833 32148,40834 32146,40835 32144,40836 32142,40837 32140,40838 32138,40839 32136,40839 32134,40840 32132,40841 32130,40842 32128,40842 32125,40843 32123,40844 32121,40844 32119,40845 32117,40845 32115,40846 32113,40847 32111,40847 32108,40847 32106,40848 32104,40848 32102,40849 32100,40849 32098,40849 32096,40850 32093,40850 32091,40850 32089,40850 32087,40850 32085,40851 32082,40851 32080,40851 32078,40851 32076,40851 32074,40851 32072,40851 32069,40851 32067,40850 32065,40850 32063,40850 32061,40850 32058,40849 32056,40849 32054,40849 32052,40848 32050,40848 32048,40848 32045,40847 32043,40847 32041,40846 32039,40846 32037,40845 32035,40845 32033,40844 32031,40843 32029,40843 32026,40842 32024,40841 32022,40841 32020,40840 32018,40839 32016,40838 32014,40837 32012,40836 32010,40836 32008,40835 32006,40834 32004,40833 32002,40832 32001,40830 31999,40829 31997,40828 31995,40827 31993,40826 31991,40825 31989,40824 31988,40822 31986,40821 31984,40820 31982,40818 31981,40817 31979,40816 31977,40814 31976,40813 31974,40812 31972,40810 31971,40809 31969,40807 31968,40806 31966,40804 31964,40802 31963,40801 31961,40799 31960,40798 31959,40796 31957,40794 31956,40793 31954,40791 31953,40789 31952,40787 31950,40786 31949,40784 31948,40782 31947,40780 31946,40778 31944,40777 31943,40775 31942,40773 31941,40771 31940,40769 31939,40767 31938,40765 31937,40763 31936,40761 31935,40759 31934,40757 31933,40755 31933,40753 31932,40751 31931,40749 31930,40746 31930,40744 31929,40742 31928,40740 31928,40738 31927,40736 31926,40734 31926,40731 31925,40729 31925,40727 31924,40725 31924,40723 31924,40721 31923,40719 31923,40717 31923,40714 31922,40712 31922,40710 31922,40708 31922,40706 31921,40703 31921,40701 32042,40701 32043,40703 32043,40705 32044,40707 32044,40708 32045,40710 32046,40711 32047,40713 32048,40715 32049,40716 32050,40717 32052,40719 32053,40720 32054,40721 32056,40722 32057,40723 32059,40725 32060,40725 32062,40726 32064,40727 32065,40728 32067,40728 32069,40729 32071,40729 32073,40729 32074,40730 32076,40730 32078,40730 32080,40730 32082,40729 32084,40729 32085,40729 32087,40728 32089,40728 32091,40727 32092,40726 32094,40726 32095,40725 32097,40724 32098,40723 32100,40722 32101,40721 32103,40719 32104,40718 32105,40717 32106,40715 32107,40714 32108,40712 32109,40710 32110,40709 32111,40707 32111,40705 32112,40704 32112,40702 32113,40700 32113,40698 32113,40697 32114,40695 32114,40693 32113,40691 32113,40689 32113,40687 32113,40686 32112,40684 32111,40682 32215,40620 Z M 31695,40695 L 31695,40698 31695,40701 31695,40704 31694,40707 31694,40710 31694,40713 31694,40716 31693,40720 31700,40721 31700,40717 31701,40713 31701,40709 31701,40705 31701,40701 31701,40697 31701,40693 31701,40689 31701,40685 31701,40681 31701,40677 31700,40673 31700,40669 31699,40665 31699,40661 31698,40657 31697,40654 31696,40650 31695,40646 31694,40642 31693,40638 31692,40635 31691,40631 31690,40627 31688,40623 31687,40620 31685,40616 31683,40612 31682,40609 31680,40605 31678,40602 31676,40598 31674,40595 31672,40592 31669,40588 31667,40585 31664,40582 31662,40579 31660,40575 31657,40572 31655,40569 31652,40566 31649,40563 31647,40561 31644,40558 31641,40555 31638,40552 31635,40550 31632,40547 31629,40545 31626,40542 31623,40540 31620,40537 31617,40535 31613,40533 31610,40531 31607,40529 31603,40527 31600,40525 31596,40523 31593,40521 31589,40519 31585,40518 31582,40516 31589,40489 31783,40664 31782,40666 31781,40667 31780,40669 31779,40670 31778,40672 31778,40673 31777,40675 31777,40676 31776,40678 31776,40679 31775,40681 31775,40683 31774,40684 31774,40686 31774,40688 31774,40689 31774,40691 31774,40693 31774,40694 31774,40696 31774,40698 31774,40699 31774,40701 31774,40703 31775,40704 31775,40706 31776,40708 31776,40709 31776,40711 31777,40712 31778,40714 31778,40715 31779,40717 31780,40718 31781,40720 31781,40721 31782,40723 31783,40724 31784,40725 31785,40727 31786,40728 31787,40729 31789,40730 31790,40731 31791,40733 31792,40734 31794,40735 31795,40736 31796,40737 31798,40738 31799,40739 31801,40739 31802,40740 31804,40741 31805,40742 31807,40742 31808,40743 31810,40743 31811,40744 31813,40744 31815,40745 31816,40745 31818,40745 31820,40746 31820,40794 31805,40794 31805,40809 31847,40809 31847,40794 31833,40794 31833,40746 31835,40745 31837,40745 31839,40745 31841,40744 31843,40743 31845,40742 31847,40742 31849,40741 31851,40740 31853,40739 31854,40738 31856,40737 31858,40735 31860,40734 31861,40733 31863,40731 31864,40730 31866,40728 31867,40726 31868,40725 31870,40723 31871,40721 31872,40719 31873,40717 31874,40716 31875,40713 31875,40711 31876,40710 31877,40708 31877,40705 31877,40703 31878,40701 31885,40701 31885,40705 31886,40708 31886,40711 31886,40715 31887,40718 31887,40721 31888,40724 31888,40728 31895,40726 31894,40723 31894,40720 31893,40717 31893,40714 31892,40711 31892,40708 31892,40705 31892,40701 31903,40701 31903,40704 31903,40706 31903,40709 31903,40711 31904,40713 31904,40716 31904,40718 31905,40721 31905,40723 31906,40726 31906,40728 31906,40730 31907,40733 31908,40735 31908,40738 31909,40740 31909,40742 31910,40745 31911,40747 31912,40750 31913,40753 31913,40755 31914,40757 31915,40760 31916,40762 31917,40764 31918,40766 31919,40769 31920,40771 31921,40773 31922,40775 31923,40777 31925,40779 31926,40782 31927,40784 31928,40786 31930,40788 31931,40790 31932,40792 31934,40794 31935,40796 31937,40798 31938,40800 31939,40802 31941,40804 31942,40806 31944,40808 31946,40809 31947,40811 31949,40813 31951,40815 31952,40817 31954,40818 31956,40820 31958,40822 31960,40824 31961,40825 31963,40827 31965,40828 31967,40830 31969,40831 31971,40833 31973,40834 31975,40836 31977,40837 31979,40839 31981,40840 31983,40841 31985,40843 31987,40844 31989,40845 31991,40847 31993,40848 31995,40849 31998,40850 32000,40851 32002,40852 32004,40853 32006,40854 32009,40855 32011,40856 32013,40857 32016,40858 32018,40859 32020,40860 32023,40860 32025,40861 32027,40862 32030,40863 32032,40863 32034,40864 32037,40864 32039,40865 32041,40865 32044,40866 32046,40866 32049,40867 32051,40867 32054,40868 32056,40868 32058,40868 32061,40868 32063,40869 32066,40869 32068,40869 32071,40869 32073,40869 32076,40869 32078,40869 32080,40869 32083,40869 32085,40869 32088,40869 32090,40869 32093,40869 32095,40868 32098,40868 32100,40868 32102,40867 32105,40867 32107,40867 32110,40866 32112,40866 32115,40865 32117,40865 32119,40864 32122,40863 32124,40863 32126,40862 32129,40862 32131,40861 32133,40860 32136,40859 32138,40858 32140,40857 32143,40857 32145,40856 32147,40855 32149,40854 32152,40853 32154,40852 32156,40851 32158,40849 32160,40848 32163,40847 32165,40846 32167,40845 32169,40843 32171,40842 32173,40841 32175,40839 32177,40838 32179,40836 32181,40835 32183,40834 32185,40832 32187,40831 32189,40829 32191,40827 32193,40826 32195,40824 32196,40823 32198,40821 32200,40819 32202,40818 32203,40816 32205,40814 32207,40812 32208,40810 32210,40809 32211,40807 32213,40805 32215,40803 32216,40801 32218,40799 32219,40797 32221,40795 32222,40793 32223,40791 32225,40789 32226,40787 32227,40785 32228,40783 32230,40780 32231,40778 32232,40776 32233,40774 32234,40772 32235,40770 32236,40767 32237,40765 32238,40763 32239,40761 32240,40758 32241,40756 32242,40754 32243,40751 32243,40749 32244,40746 32245,40743 32246,40741 32246,40739 32247,40736 32247,40734 32248,40731 32249,40729 32249,40727 32249,40724 32250,40722 32250,40719 32251,40717 32251,40715 32251,40712 32251,40710 32252,40707 32252,40705 32252,40703 32252,40700 32252,40697 32252,40695 32252,40693 32252,40690 32252,40688 32252,40685 32252,40683 32252,40680 32251,40678 32251,40676 32251,40673 32251,40671 32250,40668 32250,40666 32250,40663 32249,40661 32249,40659 32248,40656 32248,40654 32247,40651 32246,40649 32246,40647 32245,40644 32244,40642 32244,40640 32243,40637 32242,40635 32241,40633 32240,40630 32239,40628 32238,40626 32238,40624 32236,40621 32236,40619 32234,40617 32233,40615 32232,40613 32231,40610 32240,40605 32242,40608 32244,40611 32245,40614 32246,40617 32252,40614 32251,40610 32248,40606 32246,40602 32244,40597 32241,40593 32239,40589 32236,40585 32233,40581 32231,40578 32228,40574 32225,40570 32222,40567 32218,40563 32215,40560 32212,40556 32208,40553 32205,40550 32201,40547 32198,40544 32194,40541 32190,40538 32186,40535 32182,40533 32178,40530 32174,40528 32170,40525 32166,40523 32162,40521 32157,40519 32153,40517 32149,40515 32144,40514 32140,40512 32135,40511 32131,40509 32126,40508 32121,40507 32117,40506 32112,40505 32108,40504 32103,40503 32098,40503 32093,40502 32089,40502 32084,40502 32079,40502 32074,40502 32070,40502 32065,40502 32060,40502 32055,40503 32051,40504 32046,40504 32041,40505 32037,40506 32032,40507 32028,40508 32023,40510 32019,40511 32014,40512 32009,40514 32005,40516 32001,40518 31996,40519 31955,40440 31965,40420 31965,40419 31966,40419 31966,40418 31967,40418 31968,40417 31969,40417 31970,40417 31971,40417 31972,40416 31973,40416 31974,40416 31975,40415 31976,40414 31977,40414 31978,40413 31979,40412 31980,40412 31980,40411 31981,40410 31981,40409 31981,40408 31982,40408 31982,40407 31982,40406 31982,40405 31982,40404 31981,40403 31981,40402 31981,40401 31980,40401 31980,40400 31980,40399 31979,40399 31978,40398 31977,40397 31976,40397 31975,40397 31974,40396 31973,40396 31968,40396 31963,40395 31958,40395 31953,40394 31948,40394 31943,40394 31938,40394 31932,40394 31927,40394 31922,40394 31917,40394 31912,40395 31907,40395 31902,40396 31897,40397 31892,40397 31891,40398 31890,40398 31889,40399 31888,40400 31888,40401 31887,40401 31887,40402 31887,40403 31886,40403 31886,40404 31886,40405 31886,40406 31886,40407 31886,40408 31887,40408 31887,40409 31887,40410 31888,40410 31888,40411 31889,40412 31890,40413 31891,40413 31892,40414 31893,40414 31938,40416 31939,40416 31940,40416 31941,40416 31942,40416 31942,40417 31943,40417 31944,40418 31944,40419 31945,40419 31945,40420 31945,40421 31946,40421 31946,40422 31946,40423 31946,40424 31946,40425 31945,40425 31945,40426 31939,40438 31602,40438 31612,40402 31614,40403 31617,40403 31619,40403 31621,40403 31624,40403 31627,40402 31629,40402 31632,40402 31634,40402 31636,40401 31639,40401 31641,40400 31644,40400 31646,40399 31649,40399 31651,40398 31653,40398 31654,40397 31656,40397 31658,40397 31659,40397 31661,40397 31662,40397 31664,40397 31666,40397 31667,40397 31669,40397 31672,40397 31673,40397 31675,40397 31676,40398 31678,40398 31679,40398 31680,40398 31681,40397 31682,40397 31682,40396 31683,40396 31684,40395 31684,40394 31685,40393 31685,40392 31685,40391 31686,40390 31686,40389 31686,40388 31685,40388 31685,40387 31685,40386 31685,40385 31684,40385 31684,40384 31683,40383 31682,40382 31681,40382 31680,40381 31678,40381 31677,40380 31675,40380 31674,40380 31672,40380 31670,40379 31669,40379 31667,40379 31665,40379 31664,40379 31663,40379 31661,40379 31660,40380 31658,40380 31655,40381 31651,40381 31648,40382 31644,40382 31640,40383 31637,40383 31633,40383 31630,40383 31626,40384 31622,40384 31619,40384 31615,40384 31612,40383 31608,40383 31604,40383 31601,40383 31567,40511 31564,40510 31561,40509 31557,40508 31554,40507 31550,40506 31547,40506 31544,40505 31540,40504 31537,40504 31533,40503 31530,40503 31526,40503 31523,40502 31519,40502 31516,40502 31513,40502 31509,40502 31506,40502 31502,40502 31499,40502 31495,40502 31492,40502 31488,40503 31485,40503 31481,40504 31478,40504 31474,40505 31471,40505 31467,40506 31464,40507 31461,40508 31457,40508 31459,40515 31462,40514 31466,40513 31469,40512 31472,40512 31476,40511 31479,40511 31482,40510 31486,40510 31489,40509 31492,40509 31496,40509 31499,40508 31502,40508 31506,40508 31509,40508 31513,40508 31516,40508 31519,40509 31523,40509 31526,40509 31529,40509 31533,40510 31536,40510 31539,40511 31543,40512 31546,40512 31549,40513 31553,40514 31556,40514 31559,40515 31562,40516 31566,40517 31563,40528 31560,40527 31556,40526 31553,40525 31550,40524 31546,40523 31543,40523 31540,40522 31536,40521 31533,40521 31530,40520 31526,40520 31523,40520 31519,40519 31516,40519 31512,40519 31509,40519 31506,40519 31502,40519 31499,40519 31495,40520 31492,40520 31488,40520 31485,40521 31482,40521 31478,40522 31475,40522 31472,40523 31468,40524 31465,40525 31462,40525 31458,40526 31455,40527 31452,40528 31448,40530 31445,40531 31442,40532 31439,40533 31436,40535 31433,40536 31430,40538 31427,40539 31424,40541 31420,40543 31418,40544 31415,40546 31412,40548 31409,40550 31406,40552 31403,40554 31401,40556 31398,40558 31395,40560 31393,40563 31390,40565 31388,40567 31385,40570 31383,40572 31380,40574 31378,40577 31376,40580 31374,40582 31371,40585 31369,40588 31367,40590 31365,40593 31363,40596 31361,40599 31360,40602 31358,40604 31356,40608 31354,40610 31353,40614 31351,40617 31350,40620 31348,40623 31347,40626 31346,40629 31344,40632 31343,40635 31342,40639 31341,40642 31340,40645 31339,40649 31338,40652 31338,40655 31337,40659 31336,40662 31336,40665 31335,40669 31335,40672 31334,40676 31334,40679 31334,40682 31334,40686 31333,40689 31333,40693 31333,40696 31334,40699 31334,40703 31334,40706 31334,40710 31334,40713 31335,40717 31335,40720 31336,40723 31336,40727 31337,40730 31338,40733 31339,40737 31340,40740 31341,40743 31342,40746 31343,40751 31344,40754 31345,40757 31346,40760 31348,40764 31349,40767 31350,40770 31352,40773 31353,40776 31355,40779 31357,40782 31358,40785 31360,40788 31362,40791 31364,40793 31366,40796 31368,40799 31370,40802 31372,40804 31374,40807 31377,40810 31379,40812 31381,40815 31384,40817 31386,40820 31389,40822 31391,40824 31394,40827 31396,40829 31399,40831 31402,40833 31404,40835 31407,40837 31410,40839 31413,40841 31416,40843 31419,40845 31422,40846 31425,40848 31428,40850 31431,40851 31434,40853 31437,40854 31440,40855 31443,40857 31447,40858 31450,40859 31453,40860 31456,40861 31460,40862 31463,40863 31466,40864 31469,40865 31473,40866 31476,40866 31480,40867 31483,40867 31486,40868 31490,40868 31493,40869 31497,40869 31500,40869 31503,40869 31507,40869 31510,40869 31514,40869 31517,40869 31521,40869 31524,40869 31527,40868 31531,40868 31534,40867 31537,40867 31541,40866 31544,40865 31548,40865 31551,40864 31554,40863 31558,40862 31561,40861 31564,40860 31567,40859 31571,40858 31574,40856 31577,40855 31580,40854 31583,40852 31586,40851 31589,40849 31592,40848 31595,40846 31598,40844 31601,40842 31604,40841 31607,40839 31610,40837 31613,40835 31615,40833 31618,40830 31621,40828 31623,40826 31626,40824 31628,40822 31631,40819 31633,40817 31636,40814 31638,40812 31640,40809 31642,40807 31645,40804 31647,40801 31649,40798 31651,40796 31653,40793 31655,40790 31656,40787 31658,40784 31660,40781 31662,40778 31663,40775 31665,40772 31666,40769 31668,40766 31669,40763 31670,40760 31673,40756 31674,40753 31675,40750 31676,40746 31677,40742 31678,40739 31679,40736 31680,40733 31680,40729 31681,40726 31682,40722 31682,40719 31683,40716 31683,40712 31683,40709 31684,40705 31684,40702 31684,40699 31684,40695 31695,40695 Z"/>
    <path fill="none" stroke="rgb(0,0,0)" d="M 32232,40592 L 32223,40597 32221,40594 32219,40591 32216,40588 32214,40585 32212,40582 32209,40579 32206,40576 32204,40573 32201,40570 32198,40568 32196,40565 32193,40563 32190,40560 32187,40557 32184,40555 32181,40553 32177,40551 32174,40548 32171,40546 32168,40544 32164,40542 32161,40540 32158,40539 32154,40537 32151,40535 32147,40534 32144,40532 32140,40531 32136,40529 32133,40528 32129,40527 32125,40526 32122,40525 32118,40524 32114,40523 32110,40522 32106,40522 32103,40521 32099,40520 32095,40520 32091,40520 32087,40519 32083,40519 32080,40519 32076,40519 32072,40519 32068,40519 32064,40520 32060,40520 32056,40520 32052,40521 32049,40521 32045,40522 32041,40523 32037,40524 32033,40525 32030,40526 32026,40527 32022,40528 32019,40529 32015,40531 32011,40532 32008,40534 32004,40535 31999,40525 32003,40524 32007,40522 32011,40521 32015,40519 32019,40518 32023,40517 32026,40515 32030,40514 32034,40513 32038,40512 32043,40512 32047,40511 32051,40510 32055,40510 32059,40509 32063,40509 32067,40508 32071,40508 32075,40508 32079,40508 32084,40508 32088,40508 32092,40509 32096,40509 32100,40510 32104,40510 32108,40511 32112,40512 32116,40512 32120,40513 32124,40514 32128,40515 32132,40516 32136,40518 32140,40519 32144,40521 32148,40522 32152,40524 32155,40525 32159,40527 32163,40529 32166,40531 32170,40533 32174,40535 32177,40537 32180,40539 32184,40542 32187,40544 32191,40547 32194,40549 32197,40552 32200,40554 32203,40557 32206,40560 32209,40563 32212,40566 32215,40569 32218,40572 32220,40575 32223,40578 32225,40582 32228,40585 32230,40588 32232,40592 Z"/>
    <path fill="none" stroke="rgb(0,0,0)" d="M 31805,40579 L 31847,40579 31847,40594 31833,40594 31833,40642 31835,40642 31837,40642 31839,40643 31841,40644 31932,40454 31598,40454 31593,40473 31793,40653 31794,40652 31796,40651 31797,40650 31799,40649 31800,40648 31802,40647 31804,40646 31805,40646 31807,40645 31809,40644 31811,40644 31812,40643 31814,40643 31816,40642 31818,40642 31820,40642 31820,40594 31805,40594 31805,40579 Z"/>
    <path fill="none" stroke="rgb(0,0,0)" d="M 31529,40681 L 31529,40682 31530,40683 31530,40684 31531,40685 31665,40681 31665,40678 31664,40675 31664,40673 31664,40670 31663,40668 31663,40665 31662,40663 31662,40660 31661,40657 31661,40655 31660,40652 31659,40650 31658,40647 31658,40645 31657,40642 31656,40640 31655,40637 31654,40635 31653,40633 31652,40630 31651,40628 31650,40625 31649,40623 31648,40621 31646,40619 31645,40616 31644,40614 31642,40612 31641,40610 31640,40607 31638,40605 31637,40603 31635,40601 31634,40599 31632,40597 31630,40595 31629,40593 31627,40591 31625,40589 31623,40587 31622,40585 31620,40583 31618,40581 31616,40579 31614,40578 31612,40576 31610,40574 31608,40572 31606,40571 31604,40569 31602,40568 31600,40566 31598,40565 31596,40563 31593,40562 31591,40560 31589,40559 31587,40558 31585,40556 31582,40555 31580,40554 31578,40553 31575,40552 31573,40550 31552,40631 31551,40634 31550,40638 31550,40641 31549,40644 31548,40648 31546,40651 31545,40654 31544,40658 31542,40661 31541,40664 31539,40667 31537,40670 31535,40673 31533,40676 31531,40679 31529,40681 Z"/>
    <path fill="none" stroke="rgb(0,0,0)" d="M 31517,40671 L 31516,40671 31515,40671 31514,40670 31513,40670 31512,40670 31511,40670 31510,40670 31509,40670 31508,40670 31507,40670 31506,40670 31505,40670 31504,40670 31503,40670 31502,40670 31501,40671 31500,40671 31499,40671 31499,40672 31498,40672 31497,40672 31496,40673 31495,40673 31495,40674 31494,40674 31493,40675 31493,40676 31492,40676 31491,40677 31490,40678 31489,40679 31488,40680 31488,40681 31487,40682 31486,40683 31486,40684 31486,40685 31486,40686 31485,40687 31485,40688 31485,40689 31484,40690 31484,40691 31484,40692 31484,40693 31484,40694 31484,40695 31484,40696 31484,40697 31485,40698 31485,40699 31485,40700 31485,40701 31486,40702 31486,40703 31487,40704 31487,40705 31487,40706 31488,40706 31488,40707 31489,40708 31489,40709 31490,40709 31491,40710 31491,40711 31492,40711 31493,40712 31494,40713 31495,40713 31495,40714 31496,40715 31497,40715 31498,40715 31499,40716 31500,40716 31501,40717 31502,40717 31503,40717 31504,40717 31505,40717 31506,40717 31506,40718 31507,40718 31508,40718 31509,40718 31510,40718 31511,40717 31512,40717 31513,40717 31514,40717 31515,40717 31516,40716 31517,40716 31518,40716 31519,40715 31520,40715 31520,40714 31521,40714 31522,40713 31523,40713 31523,40712 31524,40712 31525,40711 31525,40710 31526,40710 31526,40709 31527,40708 31528,40708 31528,40707 31529,40706 31529,40705 31530,40705 31530,40704 31530,40703 31531,40702 31531,40701 31665,40696 31665,40699 31665,40702 31665,40705 31665,40708 31665,40711 31664,40714 31664,40717 31663,40720 31663,40723 31662,40726 31661,40729 31661,40732 31660,40735 31659,40738 31658,40741 31657,40744 31656,40747 31655,40751 31654,40754 31653,40757 31651,40760 31650,40762 31649,40765 31647,40768 31646,40771 31644,40773 31643,40776 31641,40778 31640,40781 31638,40784 31636,40786 31634,40789 31632,40791 31630,40794 31628,40796 31626,40798 31624,40801 31622,40803 31620,40805 31618,40807 31616,40809 31613,40811 31611,40813 31609,40815 31606,40817 31604,40819 31601,40821 31599,40823 31596,40825 31594,40826 31591,40828 31589,40830 31586,40831 31583,40833 31580,40834 31578,40836 31575,40837 31572,40838 31569,40839 31566,40841 31563,40842 31561,40843 31558,40844 31555,40845 31552,40846 31549,40846 31546,40847 31543,40848 31540,40848 31537,40849 31534,40850 31531,40850 31528,40851 31525,40851 31521,40851 31518,40851 31515,40852 31512,40852 31509,40852 31506,40852 31503,40852 31500,40852 31497,40851 31494,40851 31491,40851 31488,40850 31485,40850 31482,40849 31478,40849 31475,40848 31472,40848 31469,40847 31466,40846 31463,40845 31461,40844 31458,40843 31455,40842 31452,40841 31449,40840 31446,40839 31443,40838 31440,40836 31438,40835 31435,40834 31432,40832 31430,40831 31427,40829 31424,40827 31422,40826 31419,40824 31417,40822 31414,40821 31412,40819 31409,40817 31407,40815 31404,40813 31402,40811 31400,40809 31398,40807 31395,40804 31393,40802 31391,40800 31389,40798 31387,40795 31385,40793 31383,40790 31382,40788 31380,40785 31378,40783 31376,40780 31375,40778 31373,40775 31371,40772 31370,40770 31369,40767 31367,40764 31366,40761 31364,40759 31363,40756 31362,40753 31361,40750 31360,40746 31359,40743 31358,40740 31357,40737 31356,40734 31355,40731 31355,40728 31354,40725 31354,40722 31353,40719 31352,40716 31352,40713 31352,40710 31351,40707 31351,40704 31351,40701 31351,40698 31351,40695 31351,40692 31351,40689 31351,40686 31351,40682 31351,40679 31352,40676 31352,40673 31353,40670 31353,40667 31354,40664 31354,40661 31355,40658 31356,40655 31356,40652 31357,40649 31358,40646 31359,40643 31360,40640 31361,40637 31362,40635 31363,40632 31365,40629 31366,40626 31367,40623 31369,40621 31370,40618 31372,40615 31373,40613 31375,40610 31377,40607 31378,40605 31380,40602 31382,40600 31384,40597 31386,40595 31388,40593 31390,40590 31392,40588 31394,40586 31396,40583 31398,40581 31400,40579 31403,40577 31405,40575 31408,40573 31410,40571 31412,40569 31415,40567 31417,40565 31420,40564 31422,40562 31425,40560 31428,40559 31430,40557 31433,40556 31436,40554 31438,40553 31441,40552 31444,40550 31447,40549 31450,40548 31453,40547 31456,40546 31458,40545 31461,40544 31464,40543 31467,40542 31470,40541 31473,40541 31476,40540 31479,40539 31482,40539 31485,40538 31488,40538 31491,40537 31495,40537 31498,40537 31501,40537 31504,40537 31507,40537 31510,40537 31513,40537 31516,40537 31519,40537 31522,40537 31525,40537 31528,40538 31532,40538 31535,40539 31538,40539 31541,40540 31544,40541 31547,40541 31550,40542 31553,40543 31556,40544 31559,40545 31537,40628 31536,40631 31536,40634 31535,40637 31534,40640 31533,40643 31532,40645 31531,40648 31530,40651 31528,40654 31527,40656 31526,40659 31524,40662 31522,40664 31521,40667 31519,40669 31517,40671 Z"/>
    <path fill="none" stroke="rgb(0,0,0)" d="M 31694,40680 L 31683,40680 31683,40677 31683,40674 31683,40671 31682,40668 31682,40665 31681,40662 31681,40659 31680,40657 31679,40654 31679,40651 31678,40648 31677,40645 31676,40642 31675,40639 31674,40637 31673,40634 31672,40631 31670,40628 31669,40626 31668,40623 31667,40620 31665,40617 31664,40615 31663,40612 31661,40610 31660,40607 31658,40604 31657,40602 31655,40599 31654,40597 31652,40594 31650,40592 31649,40590 31647,40587 31645,40585 31643,40583 31641,40580 31639,40578 31637,40576 31635,40574 31633,40572 31631,40570 31629,40568 31627,40565 31625,40563 31622,40562 31620,40560 31618,40558 31616,40556 31613,40554 31611,40552 31608,40551 31606,40549 31603,40547 31601,40546 31598,40544 31596,40543 31593,40541 31591,40540 31588,40538 31585,40537 31583,40536 31580,40535 31577,40533 31580,40523 31583,40524 31586,40525 31589,40527 31592,40528 31595,40530 31597,40531 31600,40533 31603,40534 31606,40536 31608,40537 31611,40539 31614,40541 31616,40543 31619,40545 31621,40547 31624,40548 31626,40551 31629,40553 31631,40555 31634,40557 31636,40559 31638,40561 31640,40563 31643,40566 31645,40568 31647,40570 31649,40573 31651,40575 31653,40578 31655,40580 31657,40583 31659,40585 31661,40588 31662,40590 31664,40593 31666,40596 31668,40599 31669,40601 31672,40604 31673,40607 31675,40610 31676,40612 31677,40615 31679,40618 31680,40621 31681,40624 31683,40627 31684,40630 31685,40633 31686,40636 31687,40639 31688,40642 31689,40645 31689,40648 31690,40651 31691,40654 31691,40657 31692,40661 31692,40664 31693,40667 31693,40670 31694,40673 31694,40676 31694,40680 Z"/>
    <path fill="none" stroke="rgb(0,0,0)" d="M 32013,40552 L 32016,40550 32019,40549 32022,40548 32026,40546 32029,40545 32032,40544 32035,40543 32039,40543 32042,40542 32045,40541 32049,40540 32052,40540 32055,40539 32059,40539 32062,40538 32066,40538 32069,40538 32073,40538 32076,40538 32080,40538 32083,40538 32086,40538 32090,40538 32093,40539 32097,40539 32100,40539 32103,40540 32107,40541 32110,40541 32114,40542 32117,40543 32120,40544 32123,40545 32127,40546 32130,40547 32133,40548 32136,40549 32140,40551 32143,40552 32146,40553 32149,40555 32152,40557 32155,40558 32158,40560 32161,40562 32164,40564 32167,40566 32169,40568 32172,40570 32175,40572 32177,40574 32180,40576 32183,40578 32185,40581 32188,40583 32190,40586 32192,40588 32195,40591 32197,40593 32199,40596 32201,40599 32203,40601 32205,40604 32207,40607 32104,40669 32103,40668 32102,40667 32101,40666 32100,40666 32099,40665 32098,40664 32097,40664 32096,40663 32095,40662 32094,40662 32093,40661 32092,40661 32091,40660 32090,40660 32088,40659 32087,40659 32086,40659 32085,40658 32084,40658 32082,40658 32081,40658 32080,40658 32079,40658 32078,40658 32076,40658 32075,40658 32074,40658 32073,40658 32072,40658 32071,40658 32069,40659 32068,40659 32013,40552 Z"/>
    <path fill="none" stroke="rgb(0,0,0)" d="M 31983,40526 L 31980,40528 31978,40530 31975,40531 31972,40533 31970,40535 31967,40536 31965,40538 31962,40540 31960,40542 31957,40544 31955,40545 31953,40547 31950,40549 31948,40552 31946,40553 31944,40556 31942,40558 31939,40560 31937,40562 31935,40564 31933,40567 31931,40569 31929,40571 31927,40574 31925,40576 31924,40579 31922,40581 31920,40583 31918,40586 31917,40588 31915,40591 31913,40594 31912,40596 31910,40599 31909,40602 31907,40604 31906,40607 31904,40610 31903,40612 31902,40615 31901,40618 31899,40621 31898,40624 31897,40627 31896,40629 31895,40632 31894,40635 31893,40638 31893,40641 31892,40644 31891,40647 31890,40650 31889,40653 31889,40656 31888,40659 31888,40662 31887,40665 31887,40668 31886,40671 31886,40674 31886,40677 31886,40680 31885,40683 31885,40686 31878,40686 31878,40685 31877,40683 31877,40682 31877,40681 31876,40679 31876,40678 31876,40677 31875,40676 31875,40674 31874,40673 31874,40672 31873,40670 31872,40669 31872,40668 31871,40667 31870,40666 31870,40664 31869,40663 31868,40662 31867,40661 31866,40660 31865,40659 31865,40658 31864,40657 31863,40656 31862,40655 31861,40654 31860,40653 31859,40653 31858,40652 31856,40651 31855,40650 31947,40457 31983,40526 Z"/>
    <path fill="none" stroke="rgb(0,0,0)" d="M 31991,40542 L 31988,40543 31986,40545 31984,40546 31981,40548 31979,40549 31977,40551 31975,40552 31972,40554 31970,40556 31968,40557 31966,40559 31964,40561 31962,40563 31960,40565 31958,40566 31956,40568 31954,40570 31952,40572 31950,40574 31948,40576 31946,40578 31944,40581 31942,40582 31941,40585 31939,40587 31937,40589 31936,40591 31934,40594 31933,40596 31931,40598 31930,40600 31928,40603 31927,40605 31925,40607 31924,40610 31923,40612 31921,40615 31920,40617 31919,40620 31918,40622 31917,40625 31916,40627 31915,40630 31914,40632 31913,40635 31912,40637 31911,40640 31910,40643 31909,40645 31909,40648 31908,40651 31907,40653 31907,40656 31906,40659 31906,40661 31905,40664 31905,40667 31904,40670 31904,40672 31904,40675 31903,40678 31903,40681 31903,40683 31903,40686 31892,40686 31892,40683 31892,40680 31892,40677 31893,40674 31893,40671 31893,40668 31894,40666 31894,40663 31895,40660 31895,40657 31896,40654 31897,40651 31897,40648 31898,40645 31899,40643 31900,40640 31900,40637 31901,40634 31902,40631 31903,40629 31904,40626 31906,40623 31907,40621 31908,40618 31909,40615 31910,40612 31912,40610 31913,40607 31914,40605 31916,40602 31917,40600 31919,40597 31920,40595 31922,40592 31924,40590 31925,40587 31927,40585 31929,40582 31931,40580 31932,40578 31934,40575 31936,40573 31938,40571 31940,40569 31942,40567 31944,40565 31946,40563 31948,40560 31950,40558 31952,40556 31955,40554 31957,40553 31959,40551 31961,40549 31964,40547 31966,40545 31969,40543 31971,40542 31973,40540 31976,40538 31978,40537 31981,40535 31983,40534 31986,40532 31991,40542 Z"/>
    <path fill="none" stroke="rgb(0,0,0)" d="M 31999,40559 L 31997,40560 31995,40561 31993,40562 31991,40564 31989,40565 31987,40566 31985,40568 31983,40569 31981,40571 31979,40572 31977,40574 31975,40575 31974,40577 31972,40579 31970,40580 31968,40582 31966,40584 31965,40585 31963,40587 31961,40589 31960,40591 31958,40593 31957,40595 31955,40596 31954,40598 31952,40600 31951,40602 31949,40604 31948,40606 31947,40608 31945,40610 31944,40612 31943,40614 31942,40617 31940,40619 31939,40621 31938,40623 31937,40625 31936,40627 31935,40630 31934,40632 31933,40634 31932,40636 31931,40639 31930,40641 31930,40643 31929,40645 31928,40648 31927,40650 31927,40652 31926,40655 31925,40657 31925,40660 31924,40662 31924,40664 31923,40667 31923,40669 31923,40672 31922,40674 31922,40676 31922,40679 31922,40681 31921,40684 31921,40686 32042,40686 32043,40684 32043,40683 32043,40682 32044,40680 32044,40679 32045,40677 32046,40676 32047,40675 32047,40674 32048,40672 32049,40671 32050,40670 32051,40669 32052,40668 32053,40667 32054,40666 31999,40559 Z"/>
    <path fill="none" stroke="rgb(0,0,0)" d="M 32215,40620 L 32216,40622 32217,40624 32218,40626 32219,40628 32220,40630 32221,40632 32222,40634 32223,40636 32223,40638 32224,40640 32225,40642 32225,40644 32226,40646 32227,40648 32227,40650 32228,40652 32229,40654 32229,40657 32230,40659 32230,40661 32231,40663 32231,40665 32231,40667 32232,40669 32232,40672 32232,40674 32233,40676 32233,40678 32233,40680 32233,40682 32233,40685 32233,40687 32233,40689 32234,40691 32234,40693 32234,40695 32233,40698 32233,40700 32233,40702 32233,40704 32233,40706 32233,40709 32233,40711 32232,40713 32232,40715 32232,40717 32232,40719 32231,40722 32231,40724 32230,40726 32230,40728 32229,40730 32229,40732 32228,40734 32228,40736 32227,40739 32226,40741 32226,40743 32225,40745 32224,40747 32223,40750 32223,40752 32222,40754 32221,40756 32220,40758 32219,40760 32218,40762 32217,40764 32216,40766 32215,40768 32214,40770 32213,40772 32212,40774 32211,40775 32210,40777 32209,40779 32208,40781 32206,40783 32205,40785 32204,40786 32203,40788 32201,40790 32200,40792 32198,40793 32197,40795 32196,40797 32194,40798 32193,40800 32191,40801 32190,40803 32188,40805 32187,40806 32185,40808 32184,40809 32182,40811 32180,40812 32179,40813 32177,40815 32175,40816 32174,40818 32172,40819 32170,40820 32168,40822 32166,40823 32165,40824 32163,40825 32161,40826 32159,40828 32157,40829 32155,40830 32154,40831 32152,40832 32150,40833 32148,40834 32146,40835 32144,40836 32142,40837 32140,40838 32138,40839 32136,40839 32134,40840 32132,40841 32130,40842 32128,40842 32125,40843 32123,40844 32121,40844 32119,40845 32117,40845 32115,40846 32113,40847 32111,40847 32108,40847 32106,40848 32104,40848 32102,40849 32100,40849 32098,40849 32096,40850 32093,40850 32091,40850 32089,40850 32087,40850 32085,40851 32082,40851 32080,40851 32078,40851 32076,40851 32074,40851 32072,40851 32069,40851 32067,40850 32065,40850 32063,40850 32061,40850 32058,40849 32056,40849 32054,40849 32052,40848 32050,40848 32048,40848 32045,40847 32043,40847 32041,40846 32039,40846 32037,40845 32035,40845 32033,40844 32031,40843 32029,40843 32026,40842 32024,40841 32022,40841 32020,40840 32018,40839 32016,40838 32014,40837 32012,40836 32010,40836 32008,40835 32006,40834 32004,40833 32002,40832 32001,40830 31999,40829 31997,40828 31995,40827 31993,40826 31991,40825 31989,40824 31988,40822 31986,40821 31984,40820 31982,40818 31981,40817 31979,40816 31977,40814 31976,40813 31974,40812 31972,40810 31971,40809 31969,40807 31968,40806 31966,40804 31964,40802 31963,40801 31961,40799 31960,40798 31959,40796 31957,40794 31956,40793 31954,40791 31953,40789 31952,40787 31950,40786 31949,40784 31948,40782 31947,40780 31946,40778 31944,40777 31943,40775 31942,40773 31941,40771 31940,40769 31939,40767 31938,40765 31937,40763 31936,40761 31935,40759 31934,40757 31933,40755 31933,40753 31932,40751 31931,40749 31930,40746 31930,40744 31929,40742 31928,40740 31928,40738 31927,40736 31926,40734 31926,40731 31925,40729 31925,40727 31924,40725 31924,40723 31924,40721 31923,40719 31923,40717 31923,40714 31922,40712 31922,40710 31922,40708 31922,40706 31921,40703 31921,40701 32042,40701 32043,40703 32043,40705 32044,40707 32044,40708 32045,40710 32046,40711 32047,40713 32048,40715 32049,40716 32050,40717 32052,40719 32053,40720 32054,40721 32056,40722 32057,40723 32059,40725 32060,40725 32062,40726 32064,40727 32065,40728 32067,40728 32069,40729 32071,40729 32073,40729 32074,40730 32076,40730 32078,40730 32080,40730 32082,40729 32084,40729 32085,40729 32087,40728 32089,40728 32091,40727 32092,40726 32094,40726 32095,40725 32097,40724 32098,40723 32100,40722 32101,40721 32103,40719 32104,40718 32105,40717 32106,40715 32107,40714 32108,40712 32109,40710 32110,40709 32111,40707 32111,40705 32112,40704 32112,40702 32113,40700 32113,40698 32113,40697 32114,40695 32114,40693 32113,40691 32113,40689 32113,40687 32113,40686 32112,40684 32111,40682 32215,40620 Z"/>
    <path fill="none" stroke="rgb(0,0,0)" d="M 31695,40695 L 31695,40698 31695,40701 31695,40704 31694,40707 31694,40710 31694,40713 31694,40716 31693,40720 31700,40721 31700,40717 31701,40713 31701,40709 31701,40705 31701,40701 31701,40697 31701,40693 31701,40689 31701,40685 31701,40681 31701,40677 31700,40673 31700,40669 31699,40665 31699,40661 31698,40657 31697,40654 31696,40650 31695,40646 31694,40642 31693,40638 31692,40635 31691,40631 31690,40627 31688,40623 31687,40620 31685,40616 31683,40612 31682,40609 31680,40605 31678,40602 31676,40598 31674,40595 31672,40592 31669,40588 31667,40585 31664,40582 31662,40579 31660,40575 31657,40572 31655,40569 31652,40566 31649,40563 31647,40561 31644,40558 31641,40555 31638,40552 31635,40550 31632,40547 31629,40545 31626,40542 31623,40540 31620,40537 31617,40535 31613,40533 31610,40531 31607,40529 31603,40527 31600,40525 31596,40523 31593,40521 31589,40519 31585,40518 31582,40516 31589,40489 31783,40664 31782,40666 31781,40667 31780,40669 31779,40670 31778,40672 31778,40673 31777,40675 31777,40676 31776,40678 31776,40679 31775,40681 31775,40683 31774,40684 31774,40686 31774,40688 31774,40689 31774,40691 31774,40693 31774,40694 31774,40696 31774,40698 31774,40699 31774,40701 31774,40703 31775,40704 31775,40706 31776,40708 31776,40709 31776,40711 31777,40712 31778,40714 31778,40715 31779,40717 31780,40718 31781,40720 31781,40721 31782,40723 31783,40724 31784,40725 31785,40727 31786,40728 31787,40729 31789,40730 31790,40731 31791,40733 31792,40734 31794,40735 31795,40736 31796,40737 31798,40738 31799,40739 31801,40739 31802,40740 31804,40741 31805,40742 31807,40742 31808,40743 31810,40743 31811,40744 31813,40744 31815,40745 31816,40745 31818,40745 31820,40746 31820,40794 31805,40794 31805,40809 31847,40809 31847,40794 31833,40794 31833,40746 31835,40745 31837,40745 31839,40745 31841,40744 31843,40743 31845,40742 31847,40742 31849,40741 31851,40740 31853,40739 31854,40738 31856,40737 31858,40735 31860,40734 31861,40733 31863,40731 31864,40730 31866,40728 31867,40726 31868,40725 31870,40723 31871,40721 31872,40719 31873,40717 31874,40716 31875,40713 31875,40711 31876,40710 31877,40708 31877,40705 31877,40703 31878,40701 31885,40701 31885,40705 31886,40708 31886,40711 31886,40715 31887,40718 31887,40721 31888,40724 31888,40728 31895,40726 31894,40723 31894,40720 31893,40717 31893,40714 31892,40711 31892,40708 31892,40705 31892,40701 31903,40701 31903,40704 31903,40706 31903,40709 31903,40711 31904,40713 31904,40716 31904,40718 31905,40721 31905,40723 31906,40726 31906,40728 31906,40730 31907,40733 31908,40735 31908,40738 31909,40740 31909,40742 31910,40745 31911,40747 31912,40750 31913,40753 31913,40755 31914,40757 31915,40760 31916,40762 31917,40764 31918,40766 31919,40769 31920,40771 31921,40773 31922,40775 31923,40777 31925,40779 31926,40782 31927,40784 31928,40786 31930,40788 31931,40790 31932,40792 31934,40794 31935,40796 31937,40798 31938,40800 31939,40802 31941,40804 31942,40806 31944,40808 31946,40809 31947,40811 31949,40813 31951,40815 31952,40817 31954,40818 31956,40820 31958,40822 31960,40824 31961,40825 31963,40827 31965,40828 31967,40830 31969,40831 31971,40833 31973,40834 31975,40836 31977,40837 31979,40839 31981,40840 31983,40841 31985,40843 31987,40844 31989,40845 31991,40847 31993,40848 31995,40849 31998,40850 32000,40851 32002,40852 32004,40853 32006,40854 32009,40855 32011,40856 32013,40857 32016,40858 32018,40859 32020,40860 32023,40860 32025,40861 32027,40862 32030,40863 32032,40863 32034,40864 32037,40864 32039,40865 32041,40865 32044,40866 32046,40866 32049,40867 32051,40867 32054,40868 32056,40868 32058,40868 32061,40868 32063,40869 32066,40869 32068,40869 32071,40869 32073,40869 32076,40869 32078,40869 32080,40869 32083,40869 32085,40869 32088,40869 32090,40869 32093,40869 32095,40868 32098,40868 32100,40868 32102,40867 32105,40867 32107,40867 32110,40866 32112,40866 32115,40865 32117,40865 32119,40864 32122,40863 32124,40863 32126,40862 32129,40862 32131,40861 32133,40860 32136,40859 32138,40858 32140,40857 32143,40857 32145,40856 32147,40855 32149,40854 32152,40853 32154,40852 32156,40851 32158,40849 32160,40848 32163,40847 32165,40846 32167,40845 32169,40843 32171,40842 32173,40841 32175,40839 32177,40838 32179,40836 32181,40835 32183,40834 32185,40832 32187,40831 32189,40829 32191,40827 32193,40826 32195,40824 32196,40823 32198,40821 32200,40819 32202,40818 32203,40816 32205,40814 32207,40812 32208,40810 32210,40809 32211,40807 32213,40805 32215,40803 32216,40801 32218,40799 32219,40797 32221,40795 32222,40793 32223,40791 32225,40789 32226,40787 32227,40785 32228,40783 32230,40780 32231,40778 32232,40776 32233,40774 32234,40772 32235,40770 32236,40767 32237,40765 32238,40763 32239,40761 32240,40758 32241,40756 32242,40754 32243,40751 32243,40749 32244,40746 32245,40743 32246,40741 32246,40739 32247,40736 32247,40734 32248,40731 32249,40729 32249,40727 32249,40724 32250,40722 32250,40719 32251,40717 32251,40715 32251,40712 32251,40710 32252,40707 32252,40705 32252,40703 32252,40700 32252,40697 32252,40695 32252,40693 32252,40690 32252,40688 32252,40685 32252,40683 32252,40680 32251,40678 32251,40676 32251,40673 32251,40671 32250,40668 32250,40666 32250,40663 32249,40661 32249,40659 32248,40656 32248,40654 32247,40651 32246,40649 32246,40647 32245,40644 32244,40642 32244,40640 32243,40637 32242,40635 32241,40633 32240,40630 32239,40628 32238,40626 32238,40624 32236,40621 32236,40619 32234,40617 32233,40615 32232,40613 32231,40610 32240,40605 32242,40608 32244,40611 32245,40614 32246,40617 32252,40614 32251,40610 32248,40606 32246,40602 32244,40597 32241,40593 32239,40589 32236,40585 32233,40581 32231,40578 32228,40574 32225,40570 32222,40567 32218,40563 32215,40560 32212,40556 32208,40553 32205,40550 32201,40547 32198,40544 32194,40541 32190,40538 32186,40535 32182,40533 32178,40530 32174,40528 32170,40525 32166,40523 32162,40521 32157,40519 32153,40517 32149,40515 32144,40514 32140,40512 32135,40511 32131,40509 32126,40508 32121,40507 32117,40506 32112,40505 32108,40504 32103,40503 32098,40503 32093,40502 32089,40502 32084,40502 32079,40502 32074,40502 32070,40502 32065,40502 32060,40502 32055,40503 32051,40504 32046,40504 32041,40505 32037,40506 32032,40507 32028,40508 32023,40510 32019,40511 32014,40512 32009,40514 32005,40516 32001,40518 31996,40519 31955,40440 31965,40420 31965,40419 31966,40419 31966,40418 31967,40418 31968,40417 31969,40417 31970,40417 31971,40417 31972,40416 31973,40416 31974,40416 31975,40415 31976,40414 31977,40414 31978,40413 31979,40412 31980,40412 31980,40411 31981,40410 31981,40409 31981,40408 31982,40408 31982,40407 31982,40406 31982,40405 31982,40404 31981,40403 31981,40402 31981,40401 31980,40401 31980,40400 31980,40399 31979,40399 31978,40398 31977,40397 31976,40397 31975,40397 31974,40396 31973,40396 31968,40396 31963,40395 31958,40395 31953,40394 31948,40394 31943,40394 31938,40394 31932,40394 31927,40394 31922,40394 31917,40394 31912,40395 31907,40395 31902,40396 31897,40397 31892,40397 31891,40398 31890,40398 31889,40399 31888,40400 31888,40401 31887,40401 31887,40402 31887,40403 31886,40403 31886,40404 31886,40405 31886,40406 31886,40407 31886,40408 31887,40408 31887,40409 31887,40410 31888,40410 31888,40411 31889,40412 31890,40413 31891,40413 31892,40414 31893,40414 31938,40416 31939,40416 31940,40416 31941,40416 31942,40416 31942,40417 31943,40417 31944,40418 31944,40419 31945,40419 31945,40420 31945,40421 31946,40421 31946,40422 31946,40423 31946,40424 31946,40425 31945,40425 31945,40426 31939,40438 31602,40438 31612,40402 31614,40403 31617,40403 31619,40403 31621,40403 31624,40403 31627,40402 31629,40402 31632,40402 31634,40402 31636,40401 31639,40401 31641,40400 31644,40400 31646,40399 31649,40399 31651,40398 31653,40398 31654,40397 31656,40397 31658,40397 31659,40397 31661,40397 31662,40397 31664,40397 31666,40397 31667,40397 31669,40397 31672,40397 31673,40397 31675,40397 31676,40398 31678,40398 31679,40398 31680,40398 31681,40397 31682,40397 31682,40396 31683,40396 31684,40395 31684,40394 31685,40393 31685,40392 31685,40391 31686,40390 31686,40389 31686,40388 31685,40388 31685,40387 31685,40386 31685,40385 31684,40385 31684,40384 31683,40383 31682,40382 31681,40382 31680,40381 31678,40381 31677,40380 31675,40380 31674,40380 31672,40380 31670,40379 31669,40379 31667,40379 31665,40379 31664,40379 31663,40379 31661,40379 31660,40380 31658,40380 31655,40381 31651,40381 31648,40382 31644,40382 31640,40383 31637,40383 31633,40383 31630,40383 31626,40384 31622,40384 31619,40384 31615,40384 31612,40383 31608,40383 31604,40383 31601,40383 31567,40511 31564,40510 31561,40509 31557,40508 31554,40507 31550,40506 31547,40506 31544,40505 31540,40504 31537,40504 31533,40503 31530,40503 31526,40503 31523,40502 31519,40502 31516,40502 31513,40502 31509,40502 31506,40502 31502,40502 31499,40502 31495,40502 31492,40502 31488,40503 31485,40503 31481,40504 31478,40504 31474,40505 31471,40505 31467,40506 31464,40507 31461,40508 31457,40508 31459,40515 31462,40514 31466,40513 31469,40512 31472,40512 31476,40511 31479,40511 31482,40510 31486,40510 31489,40509 31492,40509 31496,40509 31499,40508 31502,40508 31506,40508 31509,40508 31513,40508 31516,40508 31519,40509 31523,40509 31526,40509 31529,40509 31533,40510 31536,40510 31539,40511 31543,40512 31546,40512 31549,40513 31553,40514 31556,40514 31559,40515 31562,40516 31566,40517 31563,40528 31560,40527 31556,40526 31553,40525 31550,40524 31546,40523 31543,40523 31540,40522 31536,40521 31533,40521 31530,40520 31526,40520 31523,40520 31519,40519 31516,40519 31512,40519 31509,40519 31506,40519 31502,40519 31499,40519 31495,40520 31492,40520 31488,40520 31485,40521 31482,40521 31478,40522 31475,40522 31472,40523 31468,40524 31465,40525 31462,40525 31458,40526 31455,40527 31452,40528 31448,40530 31445,40531 31442,40532 31439,40533 31436,40535 31433,40536 31430,40538 31427,40539 31424,40541 31420,40543 31418,40544 31415,40546 31412,40548 31409,40550 31406,40552 31403,40554 31401,40556 31398,40558 31395,40560 31393,40563 31390,40565 31388,40567 31385,40570 31383,40572 31380,40574 31378,40577 31376,40580 31374,40582 31371,40585 31369,40588 31367,40590 31365,40593 31363,40596 31361,40599 31360,40602 31358,40604 31356,40608 31354,40610 31353,40614 31351,40617 31350,40620 31348,40623 31347,40626 31346,40629 31344,40632 31343,40635 31342,40639 31341,40642 31340,40645 31339,40649 31338,40652 31338,40655 31337,40659 31336,40662 31336,40665 31335,40669 31335,40672 31334,40676 31334,40679 31334,40682 31334,40686 31333,40689 31333,40693 31333,40696 31334,40699 31334,40703 31334,40706 31334,40710 31334,40713 31335,40717 31335,40720 31336,40723 31336,40727 31337,40730 31338,40733 31339,40737 31340,40740 31341,40743 31342,40746 31343,40751 31344,40754 31345,40757 31346,40760 31348,40764 31349,40767 31350,40770 31352,40773 31353,40776 31355,40779 31357,40782 31358,40785 31360,40788 31362,40791 31364,40793 31366,40796 31368,40799 31370,40802 31372,40804 31374,40807 31377,40810 31379,40812 31381,40815 31384,40817 31386,40820 31389,40822 31391,40824 31394,40827 31396,40829 31399,40831 31402,40833 31404,40835 31407,40837 31410,40839 31413,40841 31416,40843 31419,40845 31422,40846 31425,40848 31428,40850 31431,40851 31434,40853 31437,40854 31440,40855 31443,40857 31447,40858 31450,40859 31453,40860 31456,40861 31460,40862 31463,40863 31466,40864 31469,40865 31473,40866 31476,40866 31480,40867 31483,40867 31486,40868 31490,40868 31493,40869 31497,40869 31500,40869 31503,40869 31507,40869 31510,40869 31514,40869 31517,40869 31521,40869 31524,40869 31527,40868 31531,40868 31534,40867 31537,40867 31541,40866 31544,40865 31548,40865 31551,40864 31554,40863 31558,40862 31561,40861 31564,40860 31567,40859 31571,40858 31574,40856 31577,40855 31580,40854 31583,40852 31586,40851 31589,40849 31592,40848 31595,40846 31598,40844 31601,40842 31604,40841 31607,40839 31610,40837 31613,40835 31615,40833 31618,40830 31621,40828 31623,40826 31626,40824 31628,40822 31631,40819 31633,40817 31636,40814 31638,40812 31640,40809 31642,40807 31645,40804 31647,40801 31649,40798 31651,40796 31653,40793 31655,40790 31656,40787 31658,40784 31660,40781 31662,40778 31663,40775 31665,40772 31666,40769 31668,40766 31669,40763 31670,40760 31673,40756 31674,40753 31675,40750 31676,40746 31677,40742 31678,40739 31679,40736 31680,40733 31680,40729 31681,40726 31682,40722 31682,40719 31683,40716 31683,40712 31683,40709 31684,40705 31684,40702 31684,40699 31684,40695 31695,40695 Z"/>
   </g>
  </g>
 </g>
</svg>