<?xml version="1.0" encoding="UTF-8"?>
<!DOCTYPE svg PUBLIC "-//W3C//DTD SVG 1.1//EN" "http://www.w3.org/Graphics/SVG/1.1/DTD/svg11.dtd">
<svg version="1.2" width="53.91mm" height="9.03mm" viewBox="24999 39999 5391 903" preserveAspectRatio="xMidYMid" fill-rule="evenodd" stroke-width="28.222" stroke-linejoin="round" xmlns="http://www.w3.org/2000/svg" xmlns:ooo="http://xml.openoffice.org/svg/export" xmlns:xlink="http://www.w3.org/1999/xlink" xmlns:presentation="http://sun.com/xmlns/staroffice/presentation" xmlns:smil="http://www.w3.org/2001/SMIL20/" xmlns:anim="urn:oasis:names:tc:opendocument:xmlns:animation:1.0" xml:space="preserve">
 <defs class="EmbeddedBulletChars">
  <g id="bullet-char-template-57356" transform="scale(0.00048828125,-0.00048828125)">
   <path d="M 580,1141 L 1163,571 580,0 -4,571 580,1141 Z"/>
  </g>
  <g id="bullet-char-template-57354" transform="scale(0.00048828125,-0.00048828125)">
   <path d="M 8,1128 L 1137,1128 1137,0 8,0 8,1128 Z"/>
  </g>
  <g id="bullet-char-template-10146" transform="scale(0.00048828125,-0.00048828125)">
   <path d="M 174,0 L 602,739 174,1481 1456,739 174,0 Z M 1358,739 L 309,1346 659,739 1358,739 Z"/>
  </g>
  <g id="bullet-char-template-10132" transform="scale(0.00048828125,-0.00048828125)">
   <path d="M 2015,739 L 1276,0 717,0 1260,543 174,543 174,936 1260,936 717,1481 1274,1481 2015,739 Z"/>
  </g>
  <g id="bullet-char-template-10007" transform="scale(0.00048828125,-0.00048828125)">
   <path d="M 0,-2 C -7,14 -16,27 -25,37 L 356,567 C 262,823 215,952 215,954 215,979 228,992 255,992 264,992 276,990 289,987 310,991 331,999 354,1012 L 381,999 492,748 772,1049 836,1024 860,1049 C 881,1039 901,1025 922,1006 886,937 835,863 770,784 769,783 710,716 594,584 L 774,223 C 774,196 753,168 711,139 L 727,119 C 717,90 699,76 672,76 641,76 570,178 457,381 L 164,-76 C 142,-110 111,-127 72,-127 30,-127 9,-110 8,-76 1,-67 -2,-52 -2,-32 -2,-23 -1,-13 0,-2 Z"/>
  </g>
  <g id="bullet-char-template-10004" transform="scale(0.00048828125,-0.00048828125)">
   <path d="M 285,-33 C 182,-33 111,30 74,156 52,228 41,333 41,471 41,549 55,616 82,672 116,743 169,778 240,778 293,778 328,747 346,684 L 369,508 C 377,444 397,411 428,410 L 1163,1116 C 1174,1127 1196,1133 1229,1133 1271,1133 1292,1118 1292,1087 L 1292,965 C 1292,929 1282,901 1262,881 L 442,47 C 390,-6 338,-33 285,-33 Z"/>
  </g>
  <g id="bullet-char-template-9679" transform="scale(0.00048828125,-0.00048828125)">
   <path d="M 813,0 C 632,0 489,54 383,161 276,268 223,411 223,592 223,773 276,916 383,1023 489,1130 632,1184 813,1184 992,1184 1136,1130 1245,1023 1353,916 1407,772 1407,592 1407,412 1353,268 1245,161 1136,54 992,0 813,0 Z"/>
  </g>
  <g id="bullet-char-template-8226" transform="scale(0.00048828125,-0.00048828125)">
   <path d="M 346,457 C 273,457 209,483 155,535 101,586 74,649 74,723 74,796 101,859 155,911 209,963 273,989 346,989 419,989 480,963 531,910 582,859 608,796 608,723 608,648 583,586 532,535 482,483 420,457 346,457 Z"/>
  </g>
  <g id="bullet-char-template-8211" transform="scale(0.00048828125,-0.00048828125)">
   <path d="M -4,459 L 1135,459 1135,606 -4,606 -4,459 Z"/>
  </g>
  <g id="bullet-char-template-61548" transform="scale(0.00048828125,-0.00048828125)">
   <path d="M 173,740 C 173,903 231,1043 346,1159 462,1274 601,1332 765,1332 928,1332 1067,1274 1183,1159 1299,1043 1357,903 1357,740 1357,577 1299,437 1183,322 1067,206 928,148 765,148 601,148 462,206 346,322 231,437 173,577 173,740 Z"/>
  </g>
 </defs>
 <g class="Page">
  <g class="com.sun.star.drawing.PolyPolygonShape">
   <g id="id3">
    <rect class="BoundingBox" stroke="none" fill="none" x="24999" y="39999" width="5391" height="903"/>
    <path fill="rgb(150,0,0)" stroke="none" d="M 30388,40450 L 30388,40270 30388,40264 30387,40257 30387,40250 30386,40244 30386,40237 30385,40231 30384,40224 30382,40218 30381,40211 30379,40205 30378,40198 30376,40192 30374,40186 30372,40179 30369,40173 30367,40167 30365,40161 30362,40155 30359,40149 30356,40143 30353,40137 30349,40132 30346,40126 30342,40120 30339,40115 30335,40110 30331,40104 30326,40099 30322,40094 30318,40089 30313,40084 30309,40080 30304,40075 30299,40070 30294,40066 30289,40062 30284,40057 30279,40054 30273,40050 30268,40046 30262,40042 30257,40039 30251,40035 30245,40032 30239,40029 30233,40026 30227,40024 30221,40021 30215,40019 30209,40016 30203,40014 30196,40012 30190,40010 30184,40008 30177,40007 30171,40005 30164,40003 30158,40002 30151,40001 30145,40001 30138,40000 30131,40000 30125,40000 30118,40000 25269,40000 25262,40000 25256,40000 25249,40000 25242,40001 25236,40001 25229,40002 25223,40003 25216,40005 25210,40007 25203,40008 25197,40010 25191,40012 25184,40014 25178,40016 25172,40019 25166,40021 25160,40024 25154,40026 25148,40029 25142,40032 25136,40035 25130,40039 25125,40042 25119,40046 25114,40050 25108,40054 25103,40057 25098,40062 25093,40066 25088,40070 25083,40075 25078,40080 25074,40084 25069,40089 25065,40094 25061,40099 25056,40104 25052,40110 25049,40115 25045,40120 25041,40126 25038,40132 25034,40137 25031,40143 25028,40149 25026,40155 25023,40161 25020,40167 25018,40173 25015,40179 25013,40186 25011,40192 25009,40198 25008,40205 25006,40211 25005,40218 25003,40224 25002,40231 25001,40237 25001,40244 25000,40250 25000,40257 25000,40264 25000,40270 25000,40630 25000,40637 25000,40643 25000,40650 25001,40657 25001,40663 25002,40670 25003,40676 25005,40683 25006,40690 25008,40696 25009,40702 25011,40709 25013,40715 25015,40721 25018,40727 25020,40734 25023,40740 25026,40746 25028,40751 25031,40757 25034,40763 25038,40769 25041,40775 25045,40780 25049,40786 25052,40791 25056,40796 25061,40802 25065,40807 25069,40811 25074,40816 25078,40821 25083,40826 25088,40830 25093,40835 25098,40839 25103,40843 25108,40847 25114,40851 25119,40855 25125,40858 25130,40862 25136,40865 25142,40868 25148,40872 25154,40874 25160,40877 25166,40880 25172,40882 25178,40884 25184,40887 25191,40889 25197,40890 25203,40892 25210,40894 25216,40895 25223,40896 25229,40897 25236,40898 25242,40899 25249,40899 25256,40900 25262,40900 25269,40900 30118,40900 30125,40900 30131,40900 30138,40899 30145,40899 30151,40898 30158,40897 30164,40896 30171,40895 30177,40894 30184,40892 30190,40890 30196,40889 30203,40887 30209,40884 30215,40882 30221,40880 30227,40877 30233,40874 30239,40872 30245,40868 30251,40865 30257,40862 30262,40858 30268,40855 30273,40851 30279,40847 30284,40843 30289,40839 30294,40835 30299,40830 30304,40826 30309,40821 30313,40816 30318,40811 30322,40807 30326,40802 30331,40796 30335,40791 30339,40786 30342,40780 30346,40775 30349,40769 30353,40763 30356,40757 30359,40751 30362,40746 30365,40740 30367,40734 30369,40727 30372,40721 30374,40715 30376,40709 30378,40702 30379,40696 30381,40690 30382,40683 30384,40676 30385,40670 30386,40663 30386,40657 30387,40650 30387,40643 30388,40637 30388,40630 30388,40450 Z"/>
    <path fill="none" stroke="rgb(150,0,0)" d="M 30388,40450 L 30388,40270 30388,40264 30387,40257 30387,40250 30386,40244 30386,40237 30385,40231 30384,40224 30382,40218 30381,40211 30379,40205 30378,40198 30376,40192 30374,40186 30372,40179 30369,40173 30367,40167 30365,40161 30362,40155 30359,40149 30356,40143 30353,40137 30349,40132 30346,40126 30342,40120 30339,40115 30335,40110 30331,40104 30326,40099 30322,40094 30318,40089 30313,40084 30309,40080 30304,40075 30299,40070 30294,40066 30289,40062 30284,40057 30279,40054 30273,40050 30268,40046 30262,40042 30257,40039 30251,40035 30245,40032 30239,40029 30233,40026 30227,40024 30221,40021 30215,40019 30209,40016 30203,40014 30196,40012 30190,40010 30184,40008 30177,40007 30171,40005 30164,40003 30158,40002 30151,40001 30145,40001 30138,40000 30131,40000 30125,40000 30118,40000 25269,40000 25262,40000 25256,40000 25249,40000 25242,40001 25236,40001 25229,40002 25223,40003 25216,40005 25210,40007 25203,40008 25197,40010 25191,40012 25184,40014 25178,40016 25172,40019 25166,40021 25160,40024 25154,40026 25148,40029 25142,40032 25136,40035 25130,40039 25125,40042 25119,40046 25114,40050 25108,40054 25103,40057 25098,40062 25093,40066 25088,40070 25083,40075 25078,40080 25074,40084 25069,40089 25065,40094 25061,40099 25056,40104 25052,40110 25049,40115 25045,40120 25041,40126 25038,40132 25034,40137 25031,40143 25028,40149 25026,40155 25023,40161 25020,40167 25018,40173 25015,40179 25013,40186 25011,40192 25009,40198 25008,40205 25006,40211 25005,40218 25003,40224 25002,40231 25001,40237 25001,40244 25000,40250 25000,40257 25000,40264 25000,40270 25000,40630 25000,40637 25000,40643 25000,40650 25001,40657 25001,40663 25002,40670 25003,40676 25005,40683 25006,40690 25008,40696 25009,40702 25011,40709 25013,40715 25015,40721 25018,40727 25020,40734 25023,40740 25026,40746 25028,40751 25031,40757 25034,40763 25038,40769 25041,40775 25045,40780 25049,40786 25052,40791 25056,40796 25061,40802 25065,40807 25069,40811 25074,40816 25078,40821 25083,40826 25088,40830 25093,40835 25098,40839 25103,40843 25108,40847 25114,40851 25119,40855 25125,40858 25130,40862 25136,40865 25142,40868 25148,40872 25154,40874 25160,40877 25166,40880 25172,40882 25178,40884 25184,40887 25191,40889 25197,40890 25203,40892 25210,40894 25216,40895 25223,40896 25229,40897 25236,40898 25242,40899 25249,40899 25256,40900 25262,40900 25269,40900 30118,40900 30125,40900 30131,40900 30138,40899 30145,40899 30151,40898 30158,40897 30164,40896 30171,40895 30177,40894 30184,40892 30190,40890 30196,40889 30203,40887 30209,40884 30215,40882 30221,40880 30227,40877 30233,40874 30239,40872 30245,40868 30251,40865 30257,40862 30262,40858 30268,40855 30273,40851 30279,40847 30284,40843 30289,40839 30294,40835 30299,40830 30304,40826 30309,40821 30313,40816 30318,40811 30322,40807 30326,40802 30331,40796 30335,40791 30339,40786 30342,40780 30346,40775 30349,40769 30353,40763 30356,40757 30359,40751 30362,40746 30365,40740 30367,40734 30369,40727 30372,40721 30374,40715 30376,40709 30378,40702 30379,40696 30381,40690 30382,40683 30384,40676 30385,40670 30386,40663 30386,40657 30387,40650 30387,40643 30388,40637 30388,40630 30388,40450 Z"/>
   </g>
  </g>
  <g class="com.sun.star.drawing.PolyPolygonShape">
   <g id="id4">
    <rect class="BoundingBox" stroke="none" fill="none" x="25058" y="40058" width="1306" height="784"/>
    <path fill="rgb(255,255,255)" stroke="none" d="M 26362,40450 L 26362,40059 25269,40059 25264,40059 25259,40060 25253,40060 25248,40060 25243,40061 25238,40062 25233,40062 25228,40063 25223,40064 25218,40066 25213,40067 25208,40068 25203,40070 25198,40072 25194,40073 25189,40075 25184,40077 25179,40080 25175,40082 25170,40084 25166,40087 25161,40089 25157,40092 25153,40095 25148,40098 25144,40101 25140,40104 25136,40107 25132,40110 25128,40114 25125,40117 25121,40122 25117,40125 25114,40129 25110,40133 25107,40137 25104,40141 25100,40145 25098,40150 25095,40154 25092,40158 25089,40162 25087,40167 25084,40171 25082,40176 25079,40180 25078,40185 25075,40190 25074,40195 25072,40200 25070,40205 25068,40209 25067,40214 25066,40219 25064,40224 25063,40229 25062,40235 25062,40239 25061,40245 25060,40250 25060,40255 25060,40260 25059,40265 25059,40270 25059,40630 25059,40635 25060,40640 25060,40646 25060,40651 25061,40656 25062,40661 25062,40666 25063,40671 25064,40676 25066,40681 25067,40686 25068,40691 25070,40696 25072,40701 25074,40706 25075,40711 25078,40715 25079,40720 25082,40725 25084,40729 25087,40734 25089,40738 25092,40743 25095,40747 25098,40751 25100,40755 25104,40759 25107,40763 25110,40767 25114,40771 25117,40775 25121,40779 25125,40782 25128,40786 25132,40789 25136,40793 25140,40796 25144,40799 25148,40802 25153,40805 25157,40808 25161,40810 25166,40813 25170,40815 25175,40818 25179,40820 25184,40822 25189,40824 25194,40826 25198,40828 25203,40830 25208,40831 25213,40833 25218,40834 25223,40835 25228,40836 25233,40837 25238,40838 25243,40839 25248,40839 25253,40840 25259,40840 25264,40840 25269,40840 26362,40840 26362,40450 Z"/>
    <path fill="none" stroke="rgb(255,255,255)" d="M 26362,40450 L 26362,40059 25269,40059 25264,40059 25259,40060 25253,40060 25248,40060 25243,40061 25238,40062 25233,40062 25228,40063 25223,40064 25218,40066 25213,40067 25208,40068 25203,40070 25198,40072 25194,40073 25189,40075 25184,40077 25179,40080 25175,40082 25170,40084 25166,40087 25161,40089 25157,40092 25153,40095 25148,40098 25144,40101 25140,40104 25136,40107 25132,40110 25128,40114 25125,40117 25121,40122 25117,40125 25114,40129 25110,40133 25107,40137 25104,40141 25100,40145 25098,40150 25095,40154 25092,40158 25089,40162 25087,40167 25084,40171 25082,40176 25079,40180 25078,40185 25075,40190 25074,40195 25072,40200 25070,40205 25068,40209 25067,40214 25066,40219 25064,40224 25063,40229 25062,40235 25062,40239 25061,40245 25060,40250 25060,40255 25060,40260 25059,40265 25059,40270 25059,40630 25059,40635 25060,40640 25060,40646 25060,40651 25061,40656 25062,40661 25062,40666 25063,40671 25064,40676 25066,40681 25067,40686 25068,40691 25070,40696 25072,40701 25074,40706 25075,40711 25078,40715 25079,40720 25082,40725 25084,40729 25087,40734 25089,40738 25092,40743 25095,40747 25098,40751 25100,40755 25104,40759 25107,40763 25110,40767 25114,40771 25117,40775 25121,40779 25125,40782 25128,40786 25132,40789 25136,40793 25140,40796 25144,40799 25148,40802 25153,40805 25157,40808 25161,40810 25166,40813 25170,40815 25175,40818 25179,40820 25184,40822 25189,40824 25194,40826 25198,40828 25203,40830 25208,40831 25213,40833 25218,40834 25223,40835 25228,40836 25233,40837 25238,40838 25243,40839 25248,40839 25253,40840 25259,40840 25264,40840 25269,40840 26362,40840 26362,40450 Z"/>
   </g>
  </g>
  <g class="com.sun.star.drawing.PolyPolygonShape">
   <g id="id5">
    <rect class="BoundingBox" stroke="none" fill="none" x="29637" y="40148" width="603" height="604"/>
    <path fill="rgb(255,255,255)" stroke="none" d="M 29638,40374 L 29638,40525 29938,40525 29938,40750 30238,40450 29938,40149 29938,40374 29638,40374 Z"/>
    <path fill="none" stroke="rgb(255,255,255)" d="M 29638,40374 L 29638,40525 29938,40525 29938,40750 30238,40450 29938,40149 29938,40374 29638,40374 Z"/>
   </g>
  </g>
  <g class="com.sun.star.drawing.PolyPolygonShape">
   <g id="id6">
    <rect class="BoundingBox" stroke="none" fill="none" x="25148" y="40148" width="1126" height="604"/>
    <path fill="rgb(0,0,0)" stroke="none" d="M 25832,40519 L 25846,40519 25846,40512 25847,40505 25848,40498 25850,40491 25851,40483 25853,40477 25856,40470 25858,40463 25860,40456 25863,40449 25866,40443 25870,40436 25873,40429 25877,40422 25881,40417 25885,40411 25889,40405 25894,40399 25898,40393 25903,40388 25908,40383 25913,40378 25919,40373 25924,40368 25930,40364 25936,40360 25942,40356 25948,40352 25955,40348 25961,40345 25967,40341 25974,40338 25971,40326 25967,40327 25963,40329 25960,40330 25957,40332 25953,40334 25950,40336 25946,40337 25943,40339 25939,40341 25936,40344 25933,40346 25930,40348 25927,40350 25923,40352 25920,40355 25917,40357 25914,40359 25911,40362 25908,40365 25905,40367 25903,40370 25900,40373 25897,40375 25894,40378 25891,40381 25889,40384 25886,40387 25884,40390 25882,40393 25879,40396 25877,40399 25874,40402 25872,40405 25870,40409 25868,40412 25866,40415 25864,40418 25862,40422 25860,40425 25858,40429 25856,40432 25855,40437 25853,40440 25851,40444 25850,40447 25848,40451 25847,40454 25845,40458 25844,40462 25843,40465 25842,40469 25840,40473 25839,40477 25838,40480 25837,40484 25837,40488 25836,40492 25835,40496 25834,40500 25834,40503 25833,40507 25833,40511 25833,40515 25832,40519 Z M 26033,40521 L 26032,40523 26031,40526 25867,40520 25867,40514 25868,40507 25869,40501 25871,40495 25872,40488 25874,40482 25876,40476 25878,40470 25880,40464 25883,40458 25885,40452 25888,40447 25891,40441 25894,40436 25898,40429 25902,40424 25905,40419 25909,40414 25913,40409 25918,40404 25922,40399 25927,40395 25931,40391 25936,40386 25941,40383 25946,40379 25952,40375 25957,40372 25962,40368 25968,40365 25974,40362 25979,40359 26005,40459 26006,40463 26007,40468 26008,40472 26009,40476 26011,40480 26012,40484 26013,40488 26015,40492 26017,40496 26019,40500 26021,40503 26023,40507 26026,40510 26028,40514 26031,40517 26033,40521 Z M 25697,40394 L 25646,40394 25646,40413 25663,40413 25663,40472 25660,40473 25658,40473 25655,40474 25653,40475 25542,40241 25949,40241 25955,40264 25712,40486 25710,40485 25708,40484 25706,40482 25705,40481 25703,40480 25701,40479 25699,40478 25697,40477 25694,40476 25692,40476 25690,40475 25688,40474 25686,40474 25684,40473 25682,40473 25679,40472 25679,40413 25697,40413 25697,40394 Z M 26048,40509 L 26050,40508 26052,40508 26054,40507 26056,40507 26058,40507 26060,40507 26063,40507 26065,40508 26067,40508 26069,40509 26071,40509 26073,40510 26075,40512 26077,40513 26079,40514 26080,40516 26082,40518 26083,40519 26084,40521 26085,40523 26086,40525 26086,40528 26087,40530 26087,40532 26088,40534 26088,40536 26088,40539 26087,40540 26087,40543 26086,40545 26086,40547 26085,40549 26084,40551 26083,40553 26082,40555 26080,40556 26078,40558 26077,40559 26075,40561 26073,40562 26071,40563 26069,40564 26067,40564 26065,40565 26063,40565 26060,40566 26058,40566 26056,40566 26054,40565 26052,40565 26050,40564 26048,40564 26045,40563 26044,40562 26042,40560 26040,40559 26038,40558 26037,40556 26035,40554 26034,40552 26033,40551 26032,40549 26031,40547 26030,40544 25866,40539 25866,40542 25866,40546 25867,40550 25867,40554 25867,40558 25868,40561 25868,40565 25869,40569 25870,40572 25870,40576 25871,40580 25872,40584 25873,40587 25874,40591 25875,40594 25877,40598 25878,40602 25879,40605 25881,40609 25882,40612 25884,40616 25885,40619 25887,40623 25888,40626 25890,40629 25892,40632 25894,40636 25896,40639 25898,40642 25900,40645 25902,40648 25905,40652 25907,40655 25909,40658 25911,40660 25914,40663 25916,40666 25919,40669 25922,40671 25924,40674 25927,40677 25930,40679 25933,40682 25935,40684 25938,40687 25941,40689 25944,40691 25948,40693 25951,40696 25954,40698 25957,40700 25960,40702 25963,40704 25967,40705 25970,40707 25974,40709 25977,40711 25980,40712 25984,40714 25987,40715 25991,40717 25994,40718 25998,40719 26002,40720 26005,40721 26009,40722 26012,40723 26016,40724 26020,40725 26023,40725 26027,40726 26031,40727 26034,40727 26038,40728 26042,40728 26046,40728 26050,40729 26054,40729 26057,40729 26061,40729 26065,40729 26068,40728 26072,40728 26076,40728 26080,40728 26084,40727 26087,40727 26091,40726 26095,40725 26098,40724 26102,40724 26106,40723 26110,40722 26113,40721 26117,40720 26120,40719 26124,40717 26127,40716 26131,40715 26134,40713 26138,40712 26141,40710 26145,40708 26148,40707 26151,40705 26155,40703 26158,40701 26161,40699 26164,40697 26167,40695 26170,40693 26173,40690 26177,40688 26180,40686 26182,40684 26185,40681 26188,40679 26191,40676 26193,40673 26196,40671 26199,40668 26201,40665 26204,40662 26206,40660 26208,40657 26211,40654 26213,40651 26215,40647 26218,40644 26220,40641 26222,40638 26224,40635 26226,40631 26227,40628 26229,40625 26231,40621 26233,40618 26234,40615 26236,40611 26237,40608 26238,40604 26240,40600 26241,40597 26242,40593 26243,40590 26244,40586 26245,40582 26246,40579 26247,40575 26247,40572 26248,40568 26249,40564 26249,40560 26250,40556 26250,40553 26250,40549 26251,40545 26251,40541 26251,40537 26251,40534 26251,40530 26250,40526 26250,40522 26250,40519 26250,40515 26249,40511 26249,40507 26248,40504 26247,40500 26247,40496 26246,40492 26245,40489 26244,40485 26243,40481 26242,40478 26240,40474 26239,40471 26238,40467 26237,40464 26235,40460 26234,40457 26232,40453 26230,40450 26229,40447 26227,40443 26225,40440 26223,40437 26221,40432 26219,40429 26217,40426 26215,40423 26212,40420 26210,40417 26208,40414 26206,40411 26203,40408 26201,40405 26198,40403 26195,40400 26193,40397 26190,40395 26187,40392 26185,40389 26182,40387 26179,40385 26176,40382 26173,40380 26170,40378 26166,40376 26163,40374 26160,40372 26157,40370 26154,40368 26150,40366 26147,40364 26144,40362 26140,40361 26137,40359 26133,40358 26130,40356 26126,40355 26123,40354 26119,40352 26116,40351 26112,40350 26109,40349 26105,40348 26101,40347 26097,40346 26094,40346 26090,40345 26086,40345 26083,40344 26079,40344 26075,40343 26071,40343 26067,40343 26064,40343 26060,40342 26056,40342 26052,40343 26049,40343 26045,40343 26041,40343 26037,40344 26033,40344 26030,40345 26026,40345 26022,40346 26019,40347 26015,40347 26011,40348 26008,40349 26004,40350 26001,40352 25997,40353 26023,40455 26024,40459 26025,40463 26026,40466 26027,40470 26028,40474 26029,40477 26031,40480 26032,40484 26034,40487 26035,40490 26037,40494 26039,40497 26041,40500 26043,40503 26045,40506 26048,40509 Z M 25443,40361 L 25439,40359 25435,40357 25431,40356 25428,40355 25424,40353 25419,40352 25415,40351 25411,40350 25407,40349 25403,40348 25399,40347 25395,40346 25391,40346 25387,40345 25382,40345 25378,40344 25374,40344 25370,40344 25366,40344 25361,40344 25357,40344 25353,40344 25349,40344 25345,40345 25341,40345 25336,40346 25332,40347 25328,40347 25324,40348 25320,40349 25316,40350 25312,40351 25308,40352 25304,40354 25300,40355 25296,40357 25292,40358 25288,40359 25284,40361 25280,40363 25277,40365 25273,40367 25269,40369 25266,40371 25262,40373 25259,40376 25255,40378 25252,40380 25249,40383 25245,40385 25242,40388 25239,40391 25235,40394 25232,40396 25229,40399 25227,40402 25224,40406 25220,40409 25217,40412 25214,40415 25212,40418 25209,40422 25207,40425 25204,40429 25332,40506 25334,40504 25336,40502 25339,40500 25341,40498 25344,40497 25347,40496 25349,40495 25352,40494 25355,40493 25358,40492 25361,40492 25364,40492 25367,40492 25370,40492 25373,40493 25376,40493 25443,40361 Z M 25174,40410 L 25185,40417 25188,40413 25190,40409 25193,40405 25196,40402 25199,40398 25202,40394 25205,40391 25209,40387 25212,40384 25215,40381 25219,40377 25222,40374 25227,40371 25230,40368 25234,40365 25238,40362 25242,40359 25246,40357 25250,40354 25254,40352 25258,40350 25262,40347 25266,40345 25270,40343 25275,40341 25279,40339 25283,40337 25288,40335 25292,40333 25297,40332 25301,40330 25305,40329 25310,40328 25315,40327 25319,40326 25324,40325 25329,40324 25333,40323 25338,40323 25343,40322 25348,40322 25352,40321 25357,40321 25362,40321 25366,40321 25371,40321 25376,40321 25380,40322 25385,40322 25390,40323 25395,40323 25399,40324 25404,40325 25408,40326 25413,40327 25418,40328 25422,40329 25427,40330 25431,40332 25436,40333 25440,40335 25445,40337 25449,40339 25453,40341 25459,40329 25455,40327 25450,40325 25446,40323 25441,40321 25436,40319 25431,40318 25427,40316 25422,40315 25417,40314 25412,40313 25407,40312 25402,40311 25397,40310 25392,40309 25387,40309 25382,40308 25377,40308 25372,40308 25367,40308 25362,40308 25356,40308 25352,40308 25347,40308 25342,40309 25336,40309 25331,40310 25327,40311 25322,40312 25317,40313 25312,40314 25307,40315 25302,40316 25297,40318 25292,40319 25288,40321 25283,40323 25278,40325 25274,40327 25269,40329 25264,40331 25260,40333 25255,40335 25251,40338 25247,40340 25242,40343 25238,40346 25234,40349 25230,40352 25226,40355 25221,40358 25217,40361 25213,40364 25209,40368 25206,40371 25202,40375 25199,40378 25195,40382 25192,40386 25189,40390 25185,40394 25182,40398 25179,40402 25177,40406 25174,40410 Z M 25480,40330 L 25486,40334 25493,40338 25499,40342 25505,40346 25511,40351 25516,40356 25522,40361 25528,40366 25533,40371 25538,40377 25543,40382 25548,40388 25552,40394 25556,40400 25561,40406 25565,40413 25568,40419 25572,40425 25576,40432 25579,40440 25582,40447 25584,40454 25587,40461 25589,40468 25591,40475 25593,40482 25595,40490 25596,40497 25597,40505 25598,40512 25599,40519 25599,40527 25608,40527 25608,40523 25609,40520 25610,40517 25611,40514 25612,40511 25614,40508 25615,40505 25617,40502 25619,40499 25621,40496 25623,40494 25625,40491 25628,40489 25630,40487 25633,40485 25635,40483 25523,40245 25480,40330 Z M 25470,40349 L 25476,40353 25481,40356 25487,40360 25492,40364 25498,40368 25503,40372 25508,40377 25513,40382 25518,40386 25522,40391 25527,40396 25531,40401 25535,40407 25539,40412 25543,40418 25547,40423 25550,40429 25553,40436 25556,40442 25559,40449 25562,40455 25564,40461 25566,40467 25568,40474 25570,40480 25572,40487 25574,40493 25575,40500 25576,40507 25577,40513 25577,40520 25578,40527 25591,40527 25591,40520 25590,40512 25589,40505 25588,40498 25587,40491 25585,40484 25583,40477 25582,40470 25579,40463 25577,40456 25574,40450 25571,40443 25568,40437 25565,40429 25561,40423 25558,40417 25554,40411 25550,40405 25546,40399 25541,40393 25537,40388 25532,40382 25527,40377 25522,40372 25517,40367 25511,40362 25506,40357 25500,40353 25494,40349 25488,40345 25482,40341 25476,40337 25470,40349 Z M 25459,40369 L 25465,40372 25470,40376 25475,40379 25480,40383 25484,40386 25489,40390 25493,40394 25498,40398 25502,40402 25506,40407 25510,40411 25513,40416 25517,40420 25521,40425 25524,40430 25527,40436 25530,40442 25533,40447 25536,40452 25538,40457 25541,40463 25543,40469 25545,40474 25547,40480 25548,40485 25550,40491 25551,40497 25552,40503 25553,40509 25554,40515 25555,40521 25555,40527 25407,40527 25407,40525 25406,40523 25406,40521 25405,40520 25404,40518 25404,40516 25403,40515 25402,40513 25401,40511 25400,40510 25399,40508 25397,40507 25396,40506 25395,40505 25394,40503 25392,40502 25460,40369 25459,40369 Z M 25195,40446 L 25192,40450 25190,40455 25188,40460 25186,40465 25184,40470 25182,40475 25180,40480 25179,40485 25178,40491 25177,40496 25176,40501 25175,40507 25174,40512 25173,40517 25173,40522 25172,40528 25172,40533 25172,40539 25172,40544 25173,40549 25173,40554 25174,40560 25175,40565 25175,40570 25176,40576 25178,40581 25179,40586 25180,40591 25182,40596 25184,40601 25185,40606 25188,40611 25190,40616 25192,40621 25195,40626 25197,40631 25200,40635 25203,40640 25205,40644 25209,40649 25212,40653 25215,40657 25219,40661 25222,40665 25227,40669 25230,40673 25234,40677 25238,40680 25243,40684 25247,40687 25251,40690 25255,40693 25260,40696 25264,40699 25269,40702 25274,40705 25278,40707 25283,40709 25288,40712 25293,40714 25298,40716 25303,40718 25308,40719 25313,40721 25318,40722 25324,40723 25329,40724 25334,40725 25339,40726 25345,40726 25350,40727 25355,40727 25361,40727 25366,40727 25371,40727 25377,40727 25382,40727 25387,40726 25393,40725 25398,40724 25403,40723 25408,40722 25413,40721 25419,40719 25424,40718 25429,40716 25434,40714 25439,40712 25444,40710 25449,40708 25453,40705 25458,40703 25463,40700 25467,40697 25472,40694 25476,40691 25480,40688 25484,40685 25488,40681 25493,40678 25497,40674 25500,40670 25504,40666 25507,40663 25511,40658 25514,40654 25518,40650 25521,40646 25524,40641 25527,40637 25530,40632 25532,40628 25534,40623 25537,40618 25539,40613 25541,40608 25543,40603 25545,40598 25547,40593 25548,40588 25549,40583 25551,40577 25552,40572 25553,40567 25554,40562 25554,40556 25555,40551 25555,40545 25407,40545 25407,40548 25406,40550 25405,40552 25404,40554 25404,40556 25403,40558 25401,40560 25400,40562 25399,40564 25397,40565 25396,40567 25394,40569 25392,40570 25391,40572 25389,40573 25387,40574 25385,40575 25383,40576 25381,40577 25379,40578 25377,40578 25375,40579 25372,40579 25370,40580 25368,40580 25366,40580 25363,40580 25361,40580 25359,40580 25357,40580 25354,40579 25353,40579 25350,40578 25348,40577 25346,40576 25344,40575 25342,40574 25340,40573 25338,40572 25336,40570 25335,40569 25333,40568 25331,40566 25330,40564 25329,40563 25328,40561 25326,40559 25325,40557 25324,40555 25323,40553 25323,40551 25322,40548 25321,40546 25321,40544 25321,40542 25320,40540 25320,40537 25320,40535 25320,40533 25320,40531 25321,40528 25321,40526 25322,40524 25323,40522 25195,40446 Z M 25831,40537 L 25831,40545 25832,40553 25833,40560 25834,40568 25826,40569 25825,40564 25825,40559 25824,40555 25824,40550 25824,40545 25824,40540 25824,40535 25824,40530 25824,40525 25824,40521 25824,40516 25825,40511 25825,40506 25826,40501 25827,40497 25828,40492 25829,40487 25830,40482 25831,40477 25832,40473 25833,40468 25835,40464 25836,40459 25838,40454 25840,40450 25842,40446 25843,40441 25846,40437 25848,40431 25850,40427 25852,40422 25855,40418 25857,40414 25859,40410 25862,40406 25865,40402 25867,40398 25870,40394 25873,40390 25876,40386 25879,40383 25883,40379 25886,40375 25889,40372 25892,40368 25896,40365 25900,40362 25903,40358 25907,40355 25911,40352 25914,40349 25918,40346 25922,40343 25926,40341 25930,40338 25934,40335 25938,40333 25942,40330 25947,40328 25951,40326 25955,40324 25959,40322 25964,40320 25968,40318 25960,40284 25724,40500 25727,40504 25729,40507 25730,40511 25732,40515 25733,40519 25734,40523 25735,40527 25735,40531 25735,40535 25735,40539 25735,40543 25734,40547 25733,40551 25732,40555 25731,40559 25730,40563 25728,40567 25726,40570 25724,40574 25721,40577 25718,40580 25715,40583 25712,40585 25709,40588 25706,40590 25703,40592 25699,40594 25695,40596 25691,40597 25687,40598 25683,40599 25679,40600 25679,40658 25697,40658 25697,40677 25646,40677 25646,40658 25663,40658 25663,40600 25661,40599 25658,40599 25656,40599 25653,40598 25651,40597 25648,40596 25646,40595 25643,40594 25641,40593 25639,40592 25636,40590 25634,40589 25632,40587 25630,40586 25628,40584 25627,40582 25625,40580 25623,40578 25621,40576 25620,40574 25618,40572 25617,40570 25615,40568 25614,40565 25613,40563 25612,40561 25611,40558 25610,40556 25609,40553 25609,40551 25608,40548 25608,40545 25599,40545 25599,40550 25599,40554 25598,40558 25598,40562 25597,40566 25597,40570 25596,40574 25595,40578 25587,40576 25588,40572 25589,40569 25589,40565 25590,40561 25590,40557 25590,40553 25591,40549 25591,40545 25578,40545 25577,40551 25577,40558 25576,40564 25575,40569 25574,40575 25573,40581 25572,40587 25570,40593 25568,40599 25567,40604 25565,40610 25562,40616 25560,40621 25558,40627 25555,40632 25552,40637 25549,40643 25546,40648 25543,40653 25540,40658 25536,40663 25533,40668 25529,40672 25525,40677 25521,40681 25517,40686 25513,40690 25508,40694 25504,40698 25499,40702 25495,40706 25490,40709 25485,40713 25480,40716 25475,40719 25470,40722 25464,40725 25459,40728 25454,40731 25448,40733 25442,40735 25437,40737 25431,40739 25426,40741 25420,40743 25414,40744 25408,40746 25402,40747 25396,40748 25390,40749 25384,40749 25378,40750 25372,40750 25366,40750 25360,40750 25354,40750 25348,40749 25342,40749 25336,40749 25330,40747 25325,40746 25319,40745 25313,40744 25307,40743 25301,40741 25296,40739 25290,40737 25284,40735 25279,40732 25273,40730 25268,40727 25263,40724 25257,40721 25252,40719 25247,40715 25242,40712 25237,40708 25232,40705 25228,40701 25222,40697 25218,40693 25213,40689 25209,40685 25205,40680 25201,40676 25197,40671 25194,40666 25190,40661 25187,40657 25183,40652 25180,40647 25177,40641 25174,40636 25172,40631 25169,40625 25167,40620 25164,40614 25162,40609 25160,40603 25158,40597 25157,40591 25155,40586 25154,40580 25153,40574 25152,40568 25151,40562 25151,40556 25150,40550 25150,40544 25150,40538 25150,40532 25150,40526 25150,40520 25151,40514 25151,40508 25152,40502 25153,40496 25154,40490 25156,40484 25157,40479 25159,40473 25161,40467 25163,40461 25165,40456 25168,40450 25170,40445 25173,40439 25176,40434 25164,40426 25162,40430 25160,40434 25158,40438 25156,40442 25149,40439 25151,40432 25154,40427 25157,40422 25160,40417 25163,40412 25166,40407 25169,40402 25173,40398 25176,40393 25179,40388 25183,40384 25187,40379 25191,40375 25195,40371 25199,40367 25203,40363 25207,40359 25212,40355 25216,40351 25221,40348 25227,40344 25231,40341 25236,40338 25241,40335 25246,40332 25251,40329 25256,40326 25261,40324 25266,40321 25272,40319 25277,40316 25282,40314 25288,40312 25294,40311 25299,40309 25304,40307 25310,40306 25316,40305 25322,40303 25327,40302 25333,40302 25339,40301 25345,40300 25350,40300 25356,40300 25362,40299 25368,40300 25374,40300 25379,40300 25385,40300 25391,40301 25397,40302 25402,40303 25408,40304 25414,40305 25419,40306 25425,40308 25430,40309 25436,40311 25442,40313 25447,40315 25453,40317 25458,40319 25463,40322 25513,40224 25502,40200 25501,40199 25501,40198 25500,40197 25499,40197 25498,40196 25497,40196 25496,40195 25495,40195 25493,40195 25492,40194 25490,40194 25489,40193 25488,40193 25486,40192 25485,40191 25484,40190 25483,40189 25482,40187 25481,40186 25481,40184 25481,40182 25481,40181 25481,40180 25481,40178 25482,40176 25483,40175 25484,40174 25485,40173 25487,40172 25488,40171 25490,40171 25491,40170 25498,40170 25504,40169 25510,40168 25516,40168 25523,40167 25529,40167 25535,40167 25541,40167 25547,40167 25554,40168 25560,40168 25566,40169 25572,40169 25579,40170 25584,40171 25591,40172 25592,40172 25593,40173 25594,40173 25594,40174 25595,40175 25596,40175 25596,40176 25597,40177 25597,40178 25598,40179 25598,40180 25598,40181 25598,40182 25598,40183 25598,40184 25597,40185 25597,40186 25597,40187 25596,40187 25596,40188 25595,40189 25594,40190 25593,40191 25592,40191 25591,40192 25590,40192 25589,40192 25535,40194 25533,40194 25532,40194 25531,40195 25530,40195 25529,40196 25528,40196 25527,40197 25527,40198 25526,40199 25525,40200 25525,40201 25525,40203 25525,40204 25525,40205 25526,40206 25526,40207 25533,40222 25944,40222 25932,40178 25926,40178 25920,40178 25914,40178 25908,40177 25902,40177 25896,40176 25890,40174 25884,40173 25880,40172 25876,40171 25872,40171 25868,40171 25864,40171 25860,40171 25856,40172 25852,40173 25851,40172 25849,40172 25848,40171 25846,40170 25845,40169 25844,40167 25844,40166 25843,40165 25843,40163 25843,40161 25843,40160 25843,40158 25844,40157 25845,40155 25846,40154 25847,40153 25850,40152 25854,40151 25857,40150 25861,40149 25864,40149 25868,40149 25871,40150 25875,40150 25879,40151 25884,40152 25888,40152 25892,40153 25897,40153 25901,40154 25906,40154 25910,40155 25914,40155 25919,40155 25923,40155 25928,40155 25932,40155 25936,40154 25941,40154 25945,40154 25986,40311 25990,40310 25994,40309 25998,40307 26003,40306 26006,40305 26011,40304 26015,40304 26019,40303 26023,40302 26028,40302 26032,40301 26036,40301 26040,40300 26045,40300 26049,40300 26053,40300 26058,40299 26062,40300 26066,40300 26070,40300 26074,40300 26079,40300 26083,40301 26087,40301 26091,40302 26096,40302 26100,40303 26104,40304 26108,40305 26112,40306 26116,40307 26121,40308 26119,40316 26114,40315 26111,40314 26107,40313 26103,40312 26098,40311 26094,40310 26090,40310 26086,40309 26082,40309 26078,40308 26074,40308 26070,40308 26065,40308 26061,40308 26057,40308 26053,40308 26049,40308 26045,40308 26041,40308 26036,40309 26033,40309 26028,40310 26024,40310 26020,40311 26016,40312 26012,40312 26008,40313 26004,40314 26000,40315 25996,40316 25992,40318 25988,40319 25991,40332 25995,40330 26000,40329 26004,40328 26008,40327 26012,40326 26016,40326 26020,40325 26024,40324 26028,40323 26032,40323 26036,40322 26041,40322 26045,40322 26049,40321 26053,40321 26058,40321 26061,40321 26066,40321 26070,40321 26074,40322 26078,40322 26083,40323 26087,40323 26091,40324 26095,40324 26099,40325 26103,40326 26107,40327 26111,40328 26115,40329 26119,40330 26123,40331 26127,40332 26131,40334 26135,40335 26139,40337 26143,40338 26147,40340 26151,40342 26155,40344 26158,40346 26162,40348 26165,40350 26169,40352 26173,40354 26176,40357 26180,40359 26183,40361 26186,40364 26190,40366 26193,40369 26196,40372 26200,40374 26203,40377 26206,40380 26208,40383 26211,40386 26214,40389 26217,40392 26220,40395 26223,40398 26226,40402 26228,40405 26231,40408 26233,40412 26236,40415 26238,40419 26240,40422 26242,40426 26244,40429 26246,40434 26248,40438 26250,40442 26252,40445 26254,40449 26255,40453 26257,40457 26259,40461 26260,40465 26261,40469 26262,40473 26264,40477 26265,40481 26266,40485 26267,40489 26268,40493 26268,40497 26269,40501 26270,40506 26270,40509 26271,40514 26271,40518 26272,40522 26272,40526 26272,40531 26272,40535 26272,40539 26272,40543 26272,40547 26272,40552 26271,40556 26271,40560 26270,40564 26270,40568 26269,40572 26268,40576 26267,40581 26266,40585 26265,40589 26264,40593 26263,40597 26262,40601 26261,40605 26260,40609 26258,40613 26256,40617 26255,40621 26253,40625 26251,40628 26249,40632 26248,40636 26246,40639 26243,40643 26241,40647 26239,40650 26237,40654 26234,40657 26232,40661 26230,40664 26227,40667 26225,40671 26222,40674 26219,40677 26216,40680 26213,40684 26211,40687 26208,40690 26205,40692 26202,40695 26198,40698 26195,40701 26192,40703 26188,40706 26185,40708 26182,40711 26178,40713 26175,40716 26171,40718 26168,40720 26164,40722 26160,40724 26157,40726 26153,40728 26149,40730 26145,40732 26142,40733 26138,40735 26134,40736 26130,40738 26126,40739 26122,40741 26118,40741 26114,40743 26110,40744 26106,40745 26102,40746 26098,40746 26093,40747 26089,40748 26085,40749 26081,40749 26077,40749 26073,40750 26068,40750 26064,40750 26060,40750 26056,40750 26052,40750 26048,40750 26043,40750 26039,40749 26035,40749 26031,40749 26027,40748 26023,40747 26018,40746 26014,40746 26010,40744 26006,40744 26002,40743 25998,40741 25994,40740 25990,40739 25986,40738 25982,40736 25978,40735 25974,40733 25971,40731 25967,40729 25963,40728 25959,40726 25956,40724 25952,40722 25948,40719 25945,40717 25941,40715 25938,40713 25934,40710 25931,40708 25928,40705 25924,40703 25921,40700 25918,40697 25915,40694 25912,40692 25908,40689 25906,40686 25903,40683 25900,40680 25897,40677 25894,40673 25892,40670 25889,40667 25887,40663 25884,40660 25882,40657 25880,40653 25877,40650 25875,40646 25873,40642 25871,40639 25869,40635 25867,40631 25865,40628 25863,40624 25862,40620 25860,40616 25859,40612 25857,40608 25856,40604 25855,40600 25853,40596 25852,40592 25851,40588 25850,40584 25849,40580 25849,40575 25848,40572 25847,40567 25847,40563 25846,40559 25846,40555 25845,40551 25845,40546 25845,40542 25845,40538 25831,40537 Z"/>
    <path fill="none" stroke="rgb(0,0,0)" d="M 25832,40519 L 25846,40519 25846,40512 25847,40505 25848,40498 25850,40491 25851,40483 25853,40477 25856,40470 25858,40463 25860,40456 25863,40449 25866,40443 25870,40436 25873,40429 25877,40422 25881,40417 25885,40411 25889,40405 25894,40399 25898,40393 25903,40388 25908,40383 25913,40378 25919,40373 25924,40368 25930,40364 25936,40360 25942,40356 25948,40352 25955,40348 25961,40345 25967,40341 25974,40338 25971,40326 25967,40327 25963,40329 25960,40330 25957,40332 25953,40334 25950,40336 25946,40337 25943,40339 25939,40341 25936,40344 25933,40346 25930,40348 25927,40350 25923,40352 25920,40355 25917,40357 25914,40359 25911,40362 25908,40365 25905,40367 25903,40370 25900,40373 25897,40375 25894,40378 25891,40381 25889,40384 25886,40387 25884,40390 25882,40393 25879,40396 25877,40399 25874,40402 25872,40405 25870,40409 25868,40412 25866,40415 25864,40418 25862,40422 25860,40425 25858,40429 25856,40432 25855,40437 25853,40440 25851,40444 25850,40447 25848,40451 25847,40454 25845,40458 25844,40462 25843,40465 25842,40469 25840,40473 25839,40477 25838,40480 25837,40484 25837,40488 25836,40492 25835,40496 25834,40500 25834,40503 25833,40507 25833,40511 25833,40515 25832,40519 Z"/>
    <path fill="none" stroke="rgb(0,0,0)" d="M 26033,40521 L 26032,40523 26031,40526 25867,40520 25867,40514 25868,40507 25869,40501 25871,40495 25872,40488 25874,40482 25876,40476 25878,40470 25880,40464 25883,40458 25885,40452 25888,40447 25891,40441 25894,40436 25898,40429 25902,40424 25905,40419 25909,40414 25913,40409 25918,40404 25922,40399 25927,40395 25931,40391 25936,40386 25941,40383 25946,40379 25952,40375 25957,40372 25962,40368 25968,40365 25974,40362 25979,40359 26005,40459 26006,40463 26007,40468 26008,40472 26009,40476 26011,40480 26012,40484 26013,40488 26015,40492 26017,40496 26019,40500 26021,40503 26023,40507 26026,40510 26028,40514 26031,40517 26033,40521 Z"/>
    <path fill="none" stroke="rgb(0,0,0)" d="M 25697,40394 L 25646,40394 25646,40413 25663,40413 25663,40472 25660,40473 25658,40473 25655,40474 25653,40475 25542,40241 25949,40241 25955,40264 25712,40486 25710,40485 25708,40484 25706,40482 25705,40481 25703,40480 25701,40479 25699,40478 25697,40477 25694,40476 25692,40476 25690,40475 25688,40474 25686,40474 25684,40473 25682,40473 25679,40472 25679,40413 25697,40413 25697,40394 Z"/>
    <path fill="none" stroke="rgb(0,0,0)" d="M 26048,40509 L 26050,40508 26052,40508 26054,40507 26056,40507 26058,40507 26060,40507 26063,40507 26065,40508 26067,40508 26069,40509 26071,40509 26073,40510 26075,40512 26077,40513 26079,40514 26080,40516 26082,40518 26083,40519 26084,40521 26085,40523 26086,40525 26086,40528 26087,40530 26087,40532 26088,40534 26088,40536 26088,40539 26087,40540 26087,40543 26086,40545 26086,40547 26085,40549 26084,40551 26083,40553 26082,40555 26080,40556 26078,40558 26077,40559 26075,40561 26073,40562 26071,40563 26069,40564 26067,40564 26065,40565 26063,40565 26060,40566 26058,40566 26056,40566 26054,40565 26052,40565 26050,40564 26048,40564 26045,40563 26044,40562 26042,40560 26040,40559 26038,40558 26037,40556 26035,40554 26034,40552 26033,40551 26032,40549 26031,40547 26030,40544 25866,40539 25866,40542 25866,40546 25867,40550 25867,40554 25867,40558 25868,40561 25868,40565 25869,40569 25870,40572 25870,40576 25871,40580 25872,40584 25873,40587 25874,40591 25875,40594 25877,40598 25878,40602 25879,40605 25881,40609 25882,40612 25884,40616 25885,40619 25887,40623 25888,40626 25890,40629 25892,40632 25894,40636 25896,40639 25898,40642 25900,40645 25902,40648 25905,40652 25907,40655 25909,40658 25911,40660 25914,40663 25916,40666 25919,40669 25922,40671 25924,40674 25927,40677 25930,40679 25933,40682 25935,40684 25938,40687 25941,40689 25944,40691 25948,40693 25951,40696 25954,40698 25957,40700 25960,40702 25963,40704 25967,40705 25970,40707 25974,40709 25977,40711 25980,40712 25984,40714 25987,40715 25991,40717 25994,40718 25998,40719 26002,40720 26005,40721 26009,40722 26012,40723 26016,40724 26020,40725 26023,40725 26027,40726 26031,40727 26034,40727 26038,40728 26042,40728 26046,40728 26050,40729 26054,40729 26057,40729 26061,40729 26065,40729 26068,40728 26072,40728 26076,40728 26080,40728 26084,40727 26087,40727 26091,40726 26095,40725 26098,40724 26102,40724 26106,40723 26110,40722 26113,40721 26117,40720 26120,40719 26124,40717 26127,40716 26131,40715 26134,40713 26138,40712 26141,40710 26145,40708 26148,40707 26151,40705 26155,40703 26158,40701 26161,40699 26164,40697 26167,40695 26170,40693 26173,40690 26177,40688 26180,40686 26182,40684 26185,40681 26188,40679 26191,40676 26193,40673 26196,40671 26199,40668 26201,40665 26204,40662 26206,40660 26208,40657 26211,40654 26213,40651 26215,40647 26218,40644 26220,40641 26222,40638 26224,40635 26226,40631 26227,40628 26229,40625 26231,40621 26233,40618 26234,40615 26236,40611 26237,40608 26238,40604 26240,40600 26241,40597 26242,40593 26243,40590 26244,40586 26245,40582 26246,40579 26247,40575 26247,40572 26248,40568 26249,40564 26249,40560 26250,40556 26250,40553 26250,40549 26251,40545 26251,40541 26251,40537 26251,40534 26251,40530 26250,40526 26250,40522 26250,40519 26250,40515 26249,40511 26249,40507 26248,40504 26247,40500 26247,40496 26246,40492 26245,40489 26244,40485 26243,40481 26242,40478 26240,40474 26239,40471 26238,40467 26237,40464 26235,40460 26234,40457 26232,40453 26230,40450 26229,40447 26227,40443 26225,40440 26223,40437 26221,40432 26219,40429 26217,40426 26215,40423 26212,40420 26210,40417 26208,40414 26206,40411 26203,40408 26201,40405 26198,40403 26195,40400 26193,40397 26190,40395 26187,40392 26185,40389 26182,40387 26179,40385 26176,40382 26173,40380 26170,40378 26166,40376 26163,40374 26160,40372 26157,40370 26154,40368 26150,40366 26147,40364 26144,40362 26140,40361 26137,40359 26133,40358 26130,40356 26126,40355 26123,40354 26119,40352 26116,40351 26112,40350 26109,40349 26105,40348 26101,40347 26097,40346 26094,40346 26090,40345 26086,40345 26083,40344 26079,40344 26075,40343 26071,40343 26067,40343 26064,40343 26060,40342 26056,40342 26052,40343 26049,40343 26045,40343 26041,40343 26037,40344 26033,40344 26030,40345 26026,40345 26022,40346 26019,40347 26015,40347 26011,40348 26008,40349 26004,40350 26001,40352 25997,40353 26023,40455 26024,40459 26025,40463 26026,40466 26027,40470 26028,40474 26029,40477 26031,40480 26032,40484 26034,40487 26035,40490 26037,40494 26039,40497 26041,40500 26043,40503 26045,40506 26048,40509 Z"/>
    <path fill="none" stroke="rgb(0,0,0)" d="M 25443,40361 L 25439,40359 25435,40357 25431,40356 25428,40355 25424,40353 25419,40352 25415,40351 25411,40350 25407,40349 25403,40348 25399,40347 25395,40346 25391,40346 25387,40345 25382,40345 25378,40344 25374,40344 25370,40344 25366,40344 25361,40344 25357,40344 25353,40344 25349,40344 25345,40345 25341,40345 25336,40346 25332,40347 25328,40347 25324,40348 25320,40349 25316,40350 25312,40351 25308,40352 25304,40354 25300,40355 25296,40357 25292,40358 25288,40359 25284,40361 25280,40363 25277,40365 25273,40367 25269,40369 25266,40371 25262,40373 25259,40376 25255,40378 25252,40380 25249,40383 25245,40385 25242,40388 25239,40391 25235,40394 25232,40396 25229,40399 25227,40402 25224,40406 25220,40409 25217,40412 25214,40415 25212,40418 25209,40422 25207,40425 25204,40429 25332,40506 25334,40504 25336,40502 25339,40500 25341,40498 25344,40497 25347,40496 25349,40495 25352,40494 25355,40493 25358,40492 25361,40492 25364,40492 25367,40492 25370,40492 25373,40493 25376,40493 25443,40361 Z"/>
    <path fill="none" stroke="rgb(0,0,0)" d="M 25174,40410 L 25185,40417 25188,40413 25190,40409 25193,40405 25196,40402 25199,40398 25202,40394 25205,40391 25209,40387 25212,40384 25215,40381 25219,40377 25222,40374 25227,40371 25230,40368 25234,40365 25238,40362 25242,40359 25246,40357 25250,40354 25254,40352 25258,40350 25262,40347 25266,40345 25270,40343 25275,40341 25279,40339 25283,40337 25288,40335 25292,40333 25297,40332 25301,40330 25305,40329 25310,40328 25315,40327 25319,40326 25324,40325 25329,40324 25333,40323 25338,40323 25343,40322 25348,40322 25352,40321 25357,40321 25362,40321 25366,40321 25371,40321 25376,40321 25380,40322 25385,40322 25390,40323 25395,40323 25399,40324 25404,40325 25408,40326 25413,40327 25418,40328 25422,40329 25427,40330 25431,40332 25436,40333 25440,40335 25445,40337 25449,40339 25453,40341 25459,40329 25455,40327 25450,40325 25446,40323 25441,40321 25436,40319 25431,40318 25427,40316 25422,40315 25417,40314 25412,40313 25407,40312 25402,40311 25397,40310 25392,40309 25387,40309 25382,40308 25377,40308 25372,40308 25367,40308 25362,40308 25356,40308 25352,40308 25347,40308 25342,40309 25336,40309 25331,40310 25327,40311 25322,40312 25317,40313 25312,40314 25307,40315 25302,40316 25297,40318 25292,40319 25288,40321 25283,40323 25278,40325 25274,40327 25269,40329 25264,40331 25260,40333 25255,40335 25251,40338 25247,40340 25242,40343 25238,40346 25234,40349 25230,40352 25226,40355 25221,40358 25217,40361 25213,40364 25209,40368 25206,40371 25202,40375 25199,40378 25195,40382 25192,40386 25189,40390 25185,40394 25182,40398 25179,40402 25177,40406 25174,40410 Z"/>
    <path fill="none" stroke="rgb(0,0,0)" d="M 25480,40330 L 25486,40334 25493,40338 25499,40342 25505,40346 25511,40351 25516,40356 25522,40361 25528,40366 25533,40371 25538,40377 25543,40382 25548,40388 25552,40394 25556,40400 25561,40406 25565,40413 25568,40419 25572,40425 25576,40432 25579,40440 25582,40447 25584,40454 25587,40461 25589,40468 25591,40475 25593,40482 25595,40490 25596,40497 25597,40505 25598,40512 25599,40519 25599,40527 25608,40527 25608,40523 25609,40520 25610,40517 25611,40514 25612,40511 25614,40508 25615,40505 25617,40502 25619,40499 25621,40496 25623,40494 25625,40491 25628,40489 25630,40487 25633,40485 25635,40483 25523,40245 25480,40330 Z"/>
    <path fill="none" stroke="rgb(0,0,0)" d="M 25470,40349 L 25476,40353 25481,40356 25487,40360 25492,40364 25498,40368 25503,40372 25508,40377 25513,40382 25518,40386 25522,40391 25527,40396 25531,40401 25535,40407 25539,40412 25543,40418 25547,40423 25550,40429 25553,40436 25556,40442 25559,40449 25562,40455 25564,40461 25566,40467 25568,40474 25570,40480 25572,40487 25574,40493 25575,40500 25576,40507 25577,40513 25577,40520 25578,40527 25591,40527 25591,40520 25590,40512 25589,40505 25588,40498 25587,40491 25585,40484 25583,40477 25582,40470 25579,40463 25577,40456 25574,40450 25571,40443 25568,40437 25565,40429 25561,40423 25558,40417 25554,40411 25550,40405 25546,40399 25541,40393 25537,40388 25532,40382 25527,40377 25522,40372 25517,40367 25511,40362 25506,40357 25500,40353 25494,40349 25488,40345 25482,40341 25476,40337 25470,40349 Z"/>
    <path fill="none" stroke="rgb(0,0,0)" d="M 25459,40369 L 25465,40372 25470,40376 25475,40379 25480,40383 25484,40386 25489,40390 25493,40394 25498,40398 25502,40402 25506,40407 25510,40411 25513,40416 25517,40420 25521,40425 25524,40430 25527,40436 25530,40442 25533,40447 25536,40452 25538,40457 25541,40463 25543,40469 25545,40474 25547,40480 25548,40485 25550,40491 25551,40497 25552,40503 25553,40509 25554,40515 25555,40521 25555,40527 25407,40527 25407,40525 25406,40523 25406,40521 25405,40520 25404,40518 25404,40516 25403,40515 25402,40513 25401,40511 25400,40510 25399,40508 25397,40507 25396,40506 25395,40505 25394,40503 25392,40502 25460,40369 25459,40369 Z"/>
    <path fill="none" stroke="rgb(0,0,0)" d="M 25195,40446 L 25192,40450 25190,40455 25188,40460 25186,40465 25184,40470 25182,40475 25180,40480 25179,40485 25178,40491 25177,40496 25176,40501 25175,40507 25174,40512 25173,40517 25173,40522 25172,40528 25172,40533 25172,40539 25172,40544 25173,40549 25173,40554 25174,40560 25175,40565 25175,40570 25176,40576 25178,40581 25179,40586 25180,40591 25182,40596 25184,40601 25185,40606 25188,40611 25190,40616 25192,40621 25195,40626 25197,40631 25200,40635 25203,40640 25205,40644 25209,40649 25212,40653 25215,40657 25219,40661 25222,40665 25227,40669 25230,40673 25234,40677 25238,40680 25243,40684 25247,40687 25251,40690 25255,40693 25260,40696 25264,40699 25269,40702 25274,40705 25278,40707 25283,40709 25288,40712 25293,40714 25298,40716 25303,40718 25308,40719 25313,40721 25318,40722 25324,40723 25329,40724 25334,40725 25339,40726 25345,40726 25350,40727 25355,40727 25361,40727 25366,40727 25371,40727 25377,40727 25382,40727 25387,40726 25393,40725 25398,40724 25403,40723 25408,40722 25413,40721 25419,40719 25424,40718 25429,40716 25434,40714 25439,40712 25444,40710 25449,40708 25453,40705 25458,40703 25463,40700 25467,40697 25472,40694 25476,40691 25480,40688 25484,40685 25488,40681 25493,40678 25497,40674 25500,40670 25504,40666 25507,40663 25511,40658 25514,40654 25518,40650 25521,40646 25524,40641 25527,40637 25530,40632 25532,40628 25534,40623 25537,40618 25539,40613 25541,40608 25543,40603 25545,40598 25547,40593 25548,40588 25549,40583 25551,40577 25552,40572 25553,40567 25554,40562 25554,40556 25555,40551 25555,40545 25407,40545 25407,40548 25406,40550 25405,40552 25404,40554 25404,40556 25403,40558 25401,40560 25400,40562 25399,40564 25397,40565 25396,40567 25394,40569 25392,40570 25391,40572 25389,40573 25387,40574 25385,40575 25383,40576 25381,40577 25379,40578 25377,40578 25375,40579 25372,40579 25370,40580 25368,40580 25366,40580 25363,40580 25361,40580 25359,40580 25357,40580 25354,40579 25353,40579 25350,40578 25348,40577 25346,40576 25344,40575 25342,40574 25340,40573 25338,40572 25336,40570 25335,40569 25333,40568 25331,40566 25330,40564 25329,40563 25328,40561 25326,40559 25325,40557 25324,40555 25323,40553 25323,40551 25322,40548 25321,40546 25321,40544 25321,40542 25320,40540 25320,40537 25320,40535 25320,40533 25320,40531 25321,40528 25321,40526 25322,40524 25323,40522 25195,40446 Z"/>
    <path fill="none" stroke="rgb(0,0,0)" d="M 25831,40537 L 25831,40545 25832,40553 25833,40560 25834,40568 25826,40569 25825,40564 25825,40559 25824,40555 25824,40550 25824,40545 25824,40540 25824,40535 25824,40530 25824,40525 25824,40521 25824,40516 25825,40511 25825,40506 25826,40501 25827,40497 25828,40492 25829,40487 25830,40482 25831,40477 25832,40473 25833,40468 25835,40464 25836,40459 25838,40454 25840,40450 25842,40446 25843,40441 25846,40437 25848,40431 25850,40427 25852,40422 25855,40418 25857,40414 25859,40410 25862,40406 25865,40402 25867,40398 25870,40394 25873,40390 25876,40386 25879,40383 25883,40379 25886,40375 25889,40372 25892,40368 25896,40365 25900,40362 25903,40358 25907,40355 25911,40352 25914,40349 25918,40346 25922,40343 25926,40341 25930,40338 25934,40335 25938,40333 25942,40330 25947,40328 25951,40326 25955,40324 25959,40322 25964,40320 25968,40318 25960,40284 25724,40500 25727,40504 25729,40507 25730,40511 25732,40515 25733,40519 25734,40523 25735,40527 25735,40531 25735,40535 25735,40539 25735,40543 25734,40547 25733,40551 25732,40555 25731,40559 25730,40563 25728,40567 25726,40570 25724,40574 25721,40577 25718,40580 25715,40583 25712,40585 25709,40588 25706,40590 25703,40592 25699,40594 25695,40596 25691,40597 25687,40598 25683,40599 25679,40600 25679,40658 25697,40658 25697,40677 25646,40677 25646,40658 25663,40658 25663,40600 25661,40599 25658,40599 25656,40599 25653,40598 25651,40597 25648,40596 25646,40595 25643,40594 25641,40593 25639,40592 25636,40590 25634,40589 25632,40587 25630,40586 25628,40584 25627,40582 25625,40580 25623,40578 25621,40576 25620,40574 25618,40572 25617,40570 25615,40568 25614,40565 25613,40563 25612,40561 25611,40558 25610,40556 25609,40553 25609,40551 25608,40548 25608,40545 25599,40545 25599,40550 25599,40554 25598,40558 25598,40562 25597,40566 25597,40570 25596,40574 25595,40578 25587,40576 25588,40572 25589,40569 25589,40565 25590,40561 25590,40557 25590,40553 25591,40549 25591,40545 25578,40545 25577,40551 25577,40558 25576,40564 25575,40569 25574,40575 25573,40581 25572,40587 25570,40593 25568,40599 25567,40604 25565,40610 25562,40616 25560,40621 25558,40627 25555,40632 25552,40637 25549,40643 25546,40648 25543,40653 25540,40658 25536,40663 25533,40668 25529,40672 25525,40677 25521,40681 25517,40686 25513,40690 25508,40694 25504,40698 25499,40702 25495,40706 25490,40709 25485,40713 25480,40716 25475,40719 25470,40722 25464,40725 25459,40728 25454,40731 25448,40733 25442,40735 25437,40737 25431,40739 25426,40741 25420,40743 25414,40744 25408,40746 25402,40747 25396,40748 25390,40749 25384,40749 25378,40750 25372,40750 25366,40750 25360,40750 25354,40750 25348,40749 25342,40749 25336,40749 25330,40747 25325,40746 25319,40745 25313,40744 25307,40743 25301,40741 25296,40739 25290,40737 25284,40735 25279,40732 25273,40730 25268,40727 25263,40724 25257,40721 25252,40719 25247,40715 25242,40712 25237,40708 25232,40705 25228,40701 25222,40697 25218,40693 25213,40689 25209,40685 25205,40680 25201,40676 25197,40671 25194,40666 25190,40661 25187,40657 25183,40652 25180,40647 25177,40641 25174,40636 25172,40631 25169,40625 25167,40620 25164,40614 25162,40609 25160,40603 25158,40597 25157,40591 25155,40586 25154,40580 25153,40574 25152,40568 25151,40562 25151,40556 25150,40550 25150,40544 25150,40538 25150,40532 25150,40526 25150,40520 25151,40514 25151,40508 25152,40502 25153,40496 25154,40490 25156,40484 25157,40479 25159,40473 25161,40467 25163,40461 25165,40456 25168,40450 25170,40445 25173,40439 25176,40434 25164,40426 25162,40430 25160,40434 25158,40438 25156,40442 25149,40439 25151,40432 25154,40427 25157,40422 25160,40417 25163,40412 25166,40407 25169,40402 25173,40398 25176,40393 25179,40388 25183,40384 25187,40379 25191,40375 25195,40371 25199,40367 25203,40363 25207,40359 25212,40355 25216,40351 25221,40348 25227,40344 25231,40341 25236,40338 25241,40335 25246,40332 25251,40329 25256,40326 25261,40324 25266,40321 25272,40319 25277,40316 25282,40314 25288,40312 25294,40311 25299,40309 25304,40307 25310,40306 25316,40305 25322,40303 25327,40302 25333,40302 25339,40301 25345,40300 25350,40300 25356,40300 25362,40299 25368,40300 25374,40300 25379,40300 25385,40300 25391,40301 25397,40302 25402,40303 25408,40304 25414,40305 25419,40306 25425,40308 25430,40309 25436,40311 25442,40313 25447,40315 25453,40317 25458,40319 25463,40322 25513,40224 25502,40200 25501,40199 25501,40198 25500,40197 25499,40197 25498,40196 25497,40196 25496,40195 25495,40195 25493,40195 25492,40194 25490,40194 25489,40193 25488,40193 25486,40192 25485,40191 25484,40190 25483,40189 25482,40187 25481,40186 25481,40184 25481,40182 25481,40181 25481,40180 25481,40178 25482,40176 25483,40175 25484,40174 25485,40173 25487,40172 25488,40171 25490,40171 25491,40170 25498,40170 25504,40169 25510,40168 25516,40168 25523,40167 25529,40167 25535,40167 25541,40167 25547,40167 25554,40168 25560,40168 25566,40169 25572,40169 25579,40170 25584,40171 25591,40172 25592,40172 25593,40173 25594,40173 25594,40174 25595,40175 25596,40175 25596,40176 25597,40177 25597,40178 25598,40179 25598,40180 25598,40181 25598,40182 25598,40183 25598,40184 25597,40185 25597,40186 25597,40187 25596,40187 25596,40188 25595,40189 25594,40190 25593,40191 25592,40191 25591,40192 25590,40192 25589,40192 25535,40194 25533,40194 25532,40194 25531,40195 25530,40195 25529,40196 25528,40196 25527,40197 25527,40198 25526,40199 25525,40200 25525,40201 25525,40203 25525,40204 25525,40205 25526,40206 25526,40207 25533,40222 25944,40222 25932,40178 25926,40178 25920,40178 25914,40178 25908,40177 25902,40177 25896,40176 25890,40174 25884,40173 25880,40172 25876,40171 25872,40171 25868,40171 25864,40171 25860,40171 25856,40172 25852,40173 25851,40172 25849,40172 25848,40171 25846,40170 25845,40169 25844,40167 25844,40166 25843,40165 25843,40163 25843,40161 25843,40160 25843,40158 25844,40157 25845,40155 25846,40154 25847,40153 25850,40152 25854,40151 25857,40150 25861,40149 25864,40149 25868,40149 25871,40150 25875,40150 25879,40151 25884,40152 25888,40152 25892,40153 25897,40153 25901,40154 25906,40154 25910,40155 25914,40155 25919,40155 25923,40155 25928,40155 25932,40155 25936,40154 25941,40154 25945,40154 25986,40311 25990,40310 25994,40309 25998,40307 26003,40306 26006,40305 26011,40304 26015,40304 26019,40303 26023,40302 26028,40302 26032,40301 26036,40301 26040,40300 26045,40300 26049,40300 26053,40300 26058,40299 26062,40300 26066,40300 26070,40300 26074,40300 26079,40300 26083,40301 26087,40301 26091,40302 26096,40302 26100,40303 26104,40304 26108,40305 26112,40306 26116,40307 26121,40308 26119,40316 26114,40315 26111,40314 26107,40313 26103,40312 26098,40311 26094,40310 26090,40310 26086,40309 26082,40309 26078,40308 26074,40308 26070,40308 26065,40308 26061,40308 26057,40308 26053,40308 26049,40308 26045,40308 26041,40308 26036,40309 26033,40309 26028,40310 26024,40310 26020,40311 26016,40312 26012,40312 26008,40313 26004,40314 26000,40315 25996,40316 25992,40318 25988,40319 25991,40332 25995,40330 26000,40329 26004,40328 26008,40327 26012,40326 26016,40326 26020,40325 26024,40324 26028,40323 26032,40323 26036,40322 26041,40322 26045,40322 26049,40321 26053,40321 26058,40321 26061,40321 26066,40321 26070,40321 26074,40322 26078,40322 26083,40323 26087,40323 26091,40324 26095,40324 26099,40325 26103,40326 26107,40327 26111,40328 26115,40329 26119,40330 26123,40331 26127,40332 26131,40334 26135,40335 26139,40337 26143,40338 26147,40340 26151,40342 26155,40344 26158,40346 26162,40348 26165,40350 26169,40352 26173,40354 26176,40357 26180,40359 26183,40361 26186,40364 26190,40366 26193,40369 26196,40372 26200,40374 26203,40377 26206,40380 26208,40383 26211,40386 26214,40389 26217,40392 26220,40395 26223,40398 26226,40402 26228,40405 26231,40408 26233,40412 26236,40415 26238,40419 26240,40422 26242,40426 26244,40429 26246,40434 26248,40438 26250,40442 26252,40445 26254,40449 26255,40453 26257,40457 26259,40461 26260,40465 26261,40469 26262,40473 26264,40477 26265,40481 26266,40485 26267,40489 26268,40493 26268,40497 26269,40501 26270,40506 26270,40509 26271,40514 26271,40518 26272,40522 26272,40526 26272,40531 26272,40535 26272,40539 26272,40543 26272,40547 26272,40552 26271,40556 26271,40560 26270,40564 26270,40568 26269,40572 26268,40576 26267,40581 26266,40585 26265,40589 26264,40593 26263,40597 26262,40601 26261,40605 26260,40609 26258,40613 26256,40617 26255,40621 26253,40625 26251,40628 26249,40632 26248,40636 26246,40639 26243,40643 26241,40647 26239,40650 26237,40654 26234,40657 26232,40661 26230,40664 26227,40667 26225,40671 26222,40674 26219,40677 26216,40680 26213,40684 26211,40687 26208,40690 26205,40692 26202,40695 26198,40698 26195,40701 26192,40703 26188,40706 26185,40708 26182,40711 26178,40713 26175,40716 26171,40718 26168,40720 26164,40722 26160,40724 26157,40726 26153,40728 26149,40730 26145,40732 26142,40733 26138,40735 26134,40736 26130,40738 26126,40739 26122,40741 26118,40741 26114,40743 26110,40744 26106,40745 26102,40746 26098,40746 26093,40747 26089,40748 26085,40749 26081,40749 26077,40749 26073,40750 26068,40750 26064,40750 26060,40750 26056,40750 26052,40750 26048,40750 26043,40750 26039,40749 26035,40749 26031,40749 26027,40748 26023,40747 26018,40746 26014,40746 26010,40744 26006,40744 26002,40743 25998,40741 25994,40740 25990,40739 25986,40738 25982,40736 25978,40735 25974,40733 25971,40731 25967,40729 25963,40728 25959,40726 25956,40724 25952,40722 25948,40719 25945,40717 25941,40715 25938,40713 25934,40710 25931,40708 25928,40705 25924,40703 25921,40700 25918,40697 25915,40694 25912,40692 25908,40689 25906,40686 25903,40683 25900,40680 25897,40677 25894,40673 25892,40670 25889,40667 25887,40663 25884,40660 25882,40657 25880,40653 25877,40650 25875,40646 25873,40642 25871,40639 25869,40635 25867,40631 25865,40628 25863,40624 25862,40620 25860,40616 25859,40612 25857,40608 25856,40604 25855,40600 25853,40596 25852,40592 25851,40588 25850,40584 25849,40580 25849,40575 25848,40572 25847,40567 25847,40563 25846,40559 25846,40555 25845,40551 25845,40546 25845,40542 25845,40538 25831,40537 Z"/>
   </g>
  </g>
 </g>
</svg>