<?xml version="1.0" encoding="UTF-8"?>
<!DOCTYPE svg PUBLIC "-//W3C//DTD SVG 1.1//EN" "http://www.w3.org/Graphics/SVG/1.1/DTD/svg11.dtd">
<svg version="1.2" width="16.68mm" height="25.04mm" viewBox="33260 39998 1668 2504" preserveAspectRatio="xMidYMid" fill-rule="evenodd" stroke-width="28.222" stroke-linejoin="round" xmlns="http://www.w3.org/2000/svg" xmlns:ooo="http://xml.openoffice.org/svg/export" xmlns:xlink="http://www.w3.org/1999/xlink" xmlns:presentation="http://sun.com/xmlns/staroffice/presentation" xmlns:smil="http://www.w3.org/2001/SMIL20/" xmlns:anim="urn:oasis:names:tc:opendocument:xmlns:animation:1.0" xml:space="preserve">
 <defs class="EmbeddedBulletChars">
  <g id="bullet-char-template-57356" transform="scale(0.00048828125,-0.00048828125)">
   <path d="M 580,1141 L 1163,571 580,0 -4,571 580,1141 Z"/>
  </g>
  <g id="bullet-char-template-57354" transform="scale(0.00048828125,-0.00048828125)">
   <path d="M 8,1128 L 1137,1128 1137,0 8,0 8,1128 Z"/>
  </g>
  <g id="bullet-char-template-10146" transform="scale(0.00048828125,-0.00048828125)">
   <path d="M 174,0 L 602,739 174,1481 1456,739 174,0 Z M 1358,739 L 309,1346 659,739 1358,739 Z"/>
  </g>
  <g id="bullet-char-template-10132" transform="scale(0.00048828125,-0.00048828125)">
   <path d="M 2015,739 L 1276,0 717,0 1260,543 174,543 174,936 1260,936 717,1481 1274,1481 2015,739 Z"/>
  </g>
  <g id="bullet-char-template-10007" transform="scale(0.00048828125,-0.00048828125)">
   <path d="M 0,-2 C -7,14 -16,27 -25,37 L 356,567 C 262,823 215,952 215,954 215,979 228,992 255,992 264,992 276,990 289,987 310,991 331,999 354,1012 L 381,999 492,748 772,1049 836,1024 860,1049 C 881,1039 901,1025 922,1006 886,937 835,863 770,784 769,783 710,716 594,584 L 774,223 C 774,196 753,168 711,139 L 727,119 C 717,90 699,76 672,76 641,76 570,178 457,381 L 164,-76 C 142,-110 111,-127 72,-127 30,-127 9,-110 8,-76 1,-67 -2,-52 -2,-32 -2,-23 -1,-13 0,-2 Z"/>
  </g>
  <g id="bullet-char-template-10004" transform="scale(0.00048828125,-0.00048828125)">
   <path d="M 285,-33 C 182,-33 111,30 74,156 52,228 41,333 41,471 41,549 55,616 82,672 116,743 169,778 240,778 293,778 328,747 346,684 L 369,508 C 377,444 397,411 428,410 L 1163,1116 C 1174,1127 1196,1133 1229,1133 1271,1133 1292,1118 1292,1087 L 1292,965 C 1292,929 1282,901 1262,881 L 442,47 C 390,-6 338,-33 285,-33 Z"/>
  </g>
  <g id="bullet-char-template-9679" transform="scale(0.00048828125,-0.00048828125)">
   <path d="M 813,0 C 632,0 489,54 383,161 276,268 223,411 223,592 223,773 276,916 383,1023 489,1130 632,1184 813,1184 992,1184 1136,1130 1245,1023 1353,916 1407,772 1407,592 1407,412 1353,268 1245,161 1136,54 992,0 813,0 Z"/>
  </g>
  <g id="bullet-char-template-8226" transform="scale(0.00048828125,-0.00048828125)">
   <path d="M 346,457 C 273,457 209,483 155,535 101,586 74,649 74,723 74,796 101,859 155,911 209,963 273,989 346,989 419,989 480,963 531,910 582,859 608,796 608,723 608,648 583,586 532,535 482,483 420,457 346,457 Z"/>
  </g>
  <g id="bullet-char-template-8211" transform="scale(0.00048828125,-0.00048828125)">
   <path d="M -4,459 L 1135,459 1135,606 -4,606 -4,459 Z"/>
  </g>
  <g id="bullet-char-template-61548" transform="scale(0.00048828125,-0.00048828125)">
   <path d="M 173,740 C 173,903 231,1043 346,1159 462,1274 601,1332 765,1332 928,1332 1067,1274 1183,1159 1299,1043 1357,903 1357,740 1357,577 1299,437 1183,322 1067,206 928,148 765,148 601,148 462,206 346,322 231,437 173,577 173,740 Z"/>
  </g>
 </defs>
 <g class="Page">
  <g class="com.sun.star.drawing.PolyPolygonShape">
   <g id="id3">
    <rect class="BoundingBox" stroke="none" fill="none" x="33260" y="39998" width="1668" height="2504"/>
    <path fill="rgb(150,0,0)" stroke="none" d="M 33448,42500 L 34739,42500 34743,42500 34748,42500 34752,42500 34757,42499 34762,42499 34766,42498 34771,42498 34775,42497 34780,42496 34784,42495 34789,42494 34793,42492 34797,42491 34802,42489 34806,42488 34810,42486 34814,42484 34819,42482 34823,42480 34827,42478 34831,42476 34835,42474 34839,42471 34843,42469 34847,42466 34850,42463 34854,42461 34857,42458 34861,42455 34864,42452 34868,42449 34871,42445 34874,42442 34877,42439 34880,42435 34883,42432 34886,42428 34889,42425 34892,42421 34894,42417 34897,42413 34899,42409 34902,42405 34904,42401 34906,42397 34908,42393 34910,42389 34912,42385 34913,42380 34915,42376 34916,42372 34918,42367 34919,42363 34920,42358 34921,42354 34922,42349 34923,42345 34924,42340 34924,42336 34925,42331 34925,42327 34926,42322 34926,42317 34926,42313 34926,40187 34926,40182 34926,40178 34925,40173 34925,40169 34924,40164 34924,40159 34923,40155 34922,40150 34921,40146 34920,40141 34919,40137 34918,40133 34916,40128 34915,40124 34913,40120 34912,40115 34910,40111 34908,40107 34906,40103 34904,40099 34902,40095 34899,40091 34897,40087 34894,40083 34892,40079 34889,40075 34886,40072 34883,40068 34880,40065 34877,40061 34874,40058 34871,40054 34868,40051 34864,40048 34861,40045 34857,40042 34854,40039 34850,40036 34847,40034 34843,40031 34839,40029 34835,40026 34831,40024 34827,40022 34823,40020 34819,40018 34814,40016 34810,40014 34806,40012 34802,40011 34797,40009 34793,40008 34789,40006 34784,40005 34780,40004 34775,40003 34771,40002 34766,40001 34762,40001 34757,40000 34752,40000 34748,40000 34743,39999 34739,39999 33448,39999 33444,39999 33439,40000 33435,40000 33430,40000 33426,40001 33421,40001 33416,40002 33412,40003 33407,40004 33403,40005 33399,40006 33394,40008 33390,40009 33385,40011 33381,40012 33377,40014 33373,40016 33368,40018 33364,40020 33360,40022 33356,40024 33352,40026 33348,40029 33345,40031 33341,40034 33337,40036 33333,40039 33330,40042 33326,40045 33323,40048 33319,40051 33316,40054 33313,40058 33310,40061 33307,40065 33304,40068 33301,40072 33298,40075 33295,40079 33293,40083 33290,40087 33288,40091 33286,40095 33283,40099 33281,40103 33279,40107 33277,40111 33276,40115 33274,40120 33272,40124 33271,40128 33269,40133 33268,40137 33267,40141 33266,40146 33265,40150 33264,40155 33263,40159 33263,40164 33262,40169 33262,40173 33261,40178 33261,40182 33261,40187 33261,42313 33261,42317 33261,42322 33262,42327 33262,42331 33263,42336 33263,42340 33264,42345 33265,42349 33266,42354 33267,42358 33268,42363 33269,42367 33271,42372 33272,42376 33274,42380 33276,42385 33277,42389 33279,42393 33281,42397 33283,42401 33286,42405 33288,42409 33290,42413 33293,42417 33295,42421 33298,42425 33301,42428 33304,42432 33307,42435 33310,42439 33313,42442 33316,42445 33319,42449 33323,42452 33326,42455 33330,42458 33333,42461 33337,42463 33341,42466 33345,42469 33348,42471 33352,42474 33356,42476 33360,42478 33364,42480 33368,42482 33373,42484 33377,42486 33381,42488 33385,42489 33390,42491 33394,42492 33399,42494 33403,42495 33407,42496 33412,42497 33416,42498 33421,42498 33426,42499 33430,42499 33435,42500 33439,42500 33444,42500 33448,42500 Z"/>
    <path fill="none" stroke="rgb(150,0,0)" d="M 33448,42500 L 34739,42500 34743,42500 34748,42500 34752,42500 34757,42499 34762,42499 34766,42498 34771,42498 34775,42497 34780,42496 34784,42495 34789,42494 34793,42492 34797,42491 34802,42489 34806,42488 34810,42486 34814,42484 34819,42482 34823,42480 34827,42478 34831,42476 34835,42474 34839,42471 34843,42469 34847,42466 34850,42463 34854,42461 34857,42458 34861,42455 34864,42452 34868,42449 34871,42445 34874,42442 34877,42439 34880,42435 34883,42432 34886,42428 34889,42425 34892,42421 34894,42417 34897,42413 34899,42409 34902,42405 34904,42401 34906,42397 34908,42393 34910,42389 34912,42385 34913,42380 34915,42376 34916,42372 34918,42367 34919,42363 34920,42358 34921,42354 34922,42349 34923,42345 34924,42340 34924,42336 34925,42331 34925,42327 34926,42322 34926,42317 34926,42313 34926,40187 34926,40182 34926,40178 34925,40173 34925,40169 34924,40164 34924,40159 34923,40155 34922,40150 34921,40146 34920,40141 34919,40137 34918,40133 34916,40128 34915,40124 34913,40120 34912,40115 34910,40111 34908,40107 34906,40103 34904,40099 34902,40095 34899,40091 34897,40087 34894,40083 34892,40079 34889,40075 34886,40072 34883,40068 34880,40065 34877,40061 34874,40058 34871,40054 34868,40051 34864,40048 34861,40045 34857,40042 34854,40039 34850,40036 34847,40034 34843,40031 34839,40029 34835,40026 34831,40024 34827,40022 34823,40020 34819,40018 34814,40016 34810,40014 34806,40012 34802,40011 34797,40009 34793,40008 34789,40006 34784,40005 34780,40004 34775,40003 34771,40002 34766,40001 34762,40001 34757,40000 34752,40000 34748,40000 34743,39999 34739,39999 33448,39999 33444,39999 33439,40000 33435,40000 33430,40000 33426,40001 33421,40001 33416,40002 33412,40003 33407,40004 33403,40005 33399,40006 33394,40008 33390,40009 33385,40011 33381,40012 33377,40014 33373,40016 33368,40018 33364,40020 33360,40022 33356,40024 33352,40026 33348,40029 33345,40031 33341,40034 33337,40036 33333,40039 33330,40042 33326,40045 33323,40048 33319,40051 33316,40054 33313,40058 33310,40061 33307,40065 33304,40068 33301,40072 33298,40075 33295,40079 33293,40083 33290,40087 33288,40091 33286,40095 33283,40099 33281,40103 33279,40107 33277,40111 33276,40115 33274,40120 33272,40124 33271,40128 33269,40133 33268,40137 33267,40141 33266,40146 33265,40150 33264,40155 33263,40159 33263,40164 33262,40169 33262,40173 33261,40178 33261,40182 33261,40187 33261,42313 33261,42317 33261,42322 33262,42327 33262,42331 33263,42336 33263,42340 33264,42345 33265,42349 33266,42354 33267,42358 33268,42363 33269,42367 33271,42372 33272,42376 33274,42380 33276,42385 33277,42389 33279,42393 33281,42397 33283,42401 33286,42405 33288,42409 33290,42413 33293,42417 33295,42421 33298,42425 33301,42428 33304,42432 33307,42435 33310,42439 33313,42442 33316,42445 33319,42449 33323,42452 33326,42455 33330,42458 33333,42461 33337,42463 33341,42466 33345,42469 33348,42471 33352,42474 33356,42476 33360,42478 33364,42480 33368,42482 33373,42484 33377,42486 33381,42488 33385,42489 33390,42491 33394,42492 33399,42494 33403,42495 33407,42496 33412,42497 33416,42498 33421,42498 33426,42499 33430,42499 33435,42500 33439,42500 33444,42500 33448,42500 Z"/>
   </g>
  </g>
  <g class="com.sun.star.drawing.PolyPolygonShape">
   <g id="id4">
    <rect class="BoundingBox" stroke="none" fill="none" x="33323" y="40061" width="1542" height="2379"/>
    <path fill="rgb(255,255,255)" stroke="none" d="M 33448,42438 L 34739,42438 34742,42438 34745,42438 34748,42438 34751,42437 34754,42437 34757,42437 34760,42436 34763,42436 34766,42435 34769,42434 34772,42433 34775,42432 34778,42432 34781,42431 34784,42430 34786,42428 34789,42427 34792,42426 34795,42425 34797,42423 34800,42422 34803,42420 34806,42418 34808,42417 34811,42415 34813,42413 34815,42411 34818,42410 34820,42408 34822,42406 34825,42403 34827,42401 34829,42399 34831,42397 34833,42395 34835,42392 34837,42390 34839,42387 34841,42385 34842,42382 34844,42380 34846,42377 34847,42374 34849,42372 34850,42369 34852,42366 34853,42364 34854,42361 34855,42358 34856,42355 34857,42352 34858,42349 34859,42346 34860,42343 34860,42340 34861,42337 34862,42334 34862,42331 34863,42328 34863,42325 34863,42322 34863,42319 34863,42316 34863,42313 34863,40187 34863,40184 34863,40181 34863,40178 34863,40175 34863,40172 34862,40169 34862,40166 34861,40163 34860,40160 34860,40157 34859,40154 34858,40151 34857,40148 34856,40145 34855,40142 34854,40139 34853,40136 34852,40134 34850,40131 34849,40128 34847,40125 34846,40123 34844,40120 34842,40117 34841,40115 34839,40112 34837,40110 34835,40108 34833,40105 34831,40103 34829,40101 34827,40099 34825,40096 34822,40094 34820,40092 34818,40090 34815,40088 34813,40087 34811,40085 34808,40083 34806,40081 34803,40080 34800,40078 34797,40077 34795,40075 34792,40074 34789,40073 34786,40072 34784,40070 34781,40069 34778,40068 34775,40067 34772,40067 34769,40066 34766,40065 34763,40064 34760,40064 34757,40063 34754,40063 34751,40063 34748,40062 34745,40062 34742,40062 34739,40062 33448,40062 33445,40062 33442,40062 33439,40062 33436,40063 33433,40063 33430,40063 33427,40064 33424,40064 33421,40065 33418,40066 33415,40067 33412,40067 33409,40068 33406,40069 33404,40070 33401,40072 33398,40073 33395,40074 33392,40075 33390,40077 33387,40078 33384,40080 33382,40081 33379,40083 33377,40085 33374,40087 33372,40088 33369,40090 33367,40092 33365,40094 33362,40096 33360,40099 33358,40101 33356,40103 33354,40105 33352,40108 33350,40110 33348,40112 33346,40115 33345,40117 33343,40120 33342,40123 33340,40125 33338,40128 33337,40131 33336,40134 33334,40136 33333,40139 33332,40142 33331,40145 33330,40148 33329,40151 33328,40154 33327,40157 33327,40160 33326,40163 33325,40166 33325,40169 33325,40172 33324,40175 33324,40178 33324,40181 33324,40184 33324,40187 33324,42313 33324,42316 33324,42319 33324,42322 33324,42325 33325,42328 33325,42331 33325,42334 33326,42337 33327,42340 33327,42343 33328,42346 33329,42349 33330,42352 33331,42355 33332,42358 33333,42361 33334,42364 33336,42366 33337,42369 33338,42372 33340,42374 33342,42377 33343,42380 33345,42382 33346,42385 33348,42387 33350,42390 33352,42392 33354,42395 33356,42397 33358,42399 33360,42401 33362,42403 33365,42406 33367,42408 33369,42410 33372,42411 33374,42413 33377,42415 33379,42417 33382,42418 33384,42420 33387,42422 33390,42423 33392,42425 33395,42426 33398,42427 33401,42428 33404,42430 33406,42431 33409,42432 33412,42432 33415,42433 33418,42434 33421,42435 33424,42436 33427,42436 33430,42437 33433,42437 33436,42437 33439,42438 33442,42438 33445,42438 33448,42438 Z"/>
    <path fill="none" stroke="rgb(255,255,255)" d="M 33448,42438 L 34739,42438 34742,42438 34745,42438 34748,42438 34751,42437 34754,42437 34757,42437 34760,42436 34763,42436 34766,42435 34769,42434 34772,42433 34775,42432 34778,42432 34781,42431 34784,42430 34786,42428 34789,42427 34792,42426 34795,42425 34797,42423 34800,42422 34803,42420 34806,42418 34808,42417 34811,42415 34813,42413 34815,42411 34818,42410 34820,42408 34822,42406 34825,42403 34827,42401 34829,42399 34831,42397 34833,42395 34835,42392 34837,42390 34839,42387 34841,42385 34842,42382 34844,42380 34846,42377 34847,42374 34849,42372 34850,42369 34852,42366 34853,42364 34854,42361 34855,42358 34856,42355 34857,42352 34858,42349 34859,42346 34860,42343 34860,42340 34861,42337 34862,42334 34862,42331 34863,42328 34863,42325 34863,42322 34863,42319 34863,42316 34863,42313 34863,40187 34863,40184 34863,40181 34863,40178 34863,40175 34863,40172 34862,40169 34862,40166 34861,40163 34860,40160 34860,40157 34859,40154 34858,40151 34857,40148 34856,40145 34855,40142 34854,40139 34853,40136 34852,40134 34850,40131 34849,40128 34847,40125 34846,40123 34844,40120 34842,40117 34841,40115 34839,40112 34837,40110 34835,40108 34833,40105 34831,40103 34829,40101 34827,40099 34825,40096 34822,40094 34820,40092 34818,40090 34815,40088 34813,40087 34811,40085 34808,40083 34806,40081 34803,40080 34800,40078 34797,40077 34795,40075 34792,40074 34789,40073 34786,40072 34784,40070 34781,40069 34778,40068 34775,40067 34772,40067 34769,40066 34766,40065 34763,40064 34760,40064 34757,40063 34754,40063 34751,40063 34748,40062 34745,40062 34742,40062 34739,40062 33448,40062 33445,40062 33442,40062 33439,40062 33436,40063 33433,40063 33430,40063 33427,40064 33424,40064 33421,40065 33418,40066 33415,40067 33412,40067 33409,40068 33406,40069 33404,40070 33401,40072 33398,40073 33395,40074 33392,40075 33390,40077 33387,40078 33384,40080 33382,40081 33379,40083 33377,40085 33374,40087 33372,40088 33369,40090 33367,40092 33365,40094 33362,40096 33360,40099 33358,40101 33356,40103 33354,40105 33352,40108 33350,40110 33348,40112 33346,40115 33345,40117 33343,40120 33342,40123 33340,40125 33338,40128 33337,40131 33336,40134 33334,40136 33333,40139 33332,40142 33331,40145 33330,40148 33329,40151 33328,40154 33327,40157 33327,40160 33326,40163 33325,40166 33325,40169 33325,40172 33324,40175 33324,40178 33324,40181 33324,40184 33324,40187 33324,42313 33324,42316 33324,42319 33324,42322 33324,42325 33325,42328 33325,42331 33325,42334 33326,42337 33327,42340 33327,42343 33328,42346 33329,42349 33330,42352 33331,42355 33332,42358 33333,42361 33334,42364 33336,42366 33337,42369 33338,42372 33340,42374 33342,42377 33343,42380 33345,42382 33346,42385 33348,42387 33350,42390 33352,42392 33354,42395 33356,42397 33358,42399 33360,42401 33362,42403 33365,42406 33367,42408 33369,42410 33372,42411 33374,42413 33377,42415 33379,42417 33382,42418 33384,42420 33387,42422 33390,42423 33392,42425 33395,42426 33398,42427 33401,42428 33404,42430 33406,42431 33409,42432 33412,42432 33415,42433 33418,42434 33421,42435 33424,42436 33427,42436 33430,42437 33433,42437 33436,42437 33439,42438 33442,42438 33445,42438 33448,42438 Z"/>
   </g>
  </g>
  <g class="com.sun.star.drawing.PolyPolygonShape">
   <g id="id5">
    <rect class="BoundingBox" stroke="none" fill="none" x="33385" y="40124" width="1418" height="2253"/>
    <path fill="rgb(150,0,0)" stroke="none" d="M 33448,42375 L 34739,42375 34740,42375 34742,42375 34743,42375 34745,42375 34746,42375 34748,42375 34749,42374 34751,42374 34752,42374 34754,42373 34755,42373 34757,42373 34758,42372 34760,42372 34761,42371 34763,42371 34764,42370 34765,42369 34767,42369 34768,42368 34769,42367 34771,42367 34772,42366 34773,42365 34775,42364 34776,42363 34777,42362 34778,42361 34779,42360 34781,42359 34782,42358 34783,42357 34784,42356 34785,42355 34786,42354 34787,42353 34788,42351 34789,42350 34790,42349 34791,42348 34791,42346 34792,42345 34793,42344 34794,42342 34794,42341 34795,42340 34796,42338 34796,42337 34797,42335 34797,42334 34798,42332 34798,42331 34799,42330 34799,42328 34800,42327 34800,42325 34800,42324 34800,42322 34801,42321 34801,42319 34801,42317 34801,42316 34801,42314 34801,42313 34801,40187 34801,40185 34801,40184 34801,40182 34801,40181 34801,40179 34800,40178 34800,40176 34800,40175 34800,40173 34799,40172 34799,40170 34798,40169 34798,40167 34797,40166 34797,40165 34796,40163 34796,40162 34795,40160 34794,40159 34794,40158 34793,40156 34792,40155 34791,40154 34791,40152 34790,40151 34789,40150 34788,40149 34787,40147 34786,40146 34785,40145 34784,40144 34783,40143 34782,40142 34781,40141 34779,40140 34778,40139 34777,40138 34776,40137 34775,40136 34773,40135 34772,40134 34771,40133 34769,40133 34768,40132 34767,40131 34765,40130 34764,40130 34763,40129 34761,40129 34760,40128 34758,40128 34757,40127 34755,40127 34754,40126 34752,40126 34751,40126 34749,40125 34748,40125 34746,40125 34745,40125 34743,40125 34742,40125 34740,40125 34739,40125 33448,40125 33447,40125 33445,40125 33444,40125 33442,40125 33441,40125 33439,40125 33438,40125 33436,40126 33435,40126 33433,40126 33432,40127 33430,40127 33429,40128 33427,40128 33426,40129 33425,40129 33423,40130 33422,40130 33420,40131 33419,40132 33418,40133 33416,40133 33415,40134 33414,40135 33412,40136 33411,40137 33410,40138 33409,40139 33408,40140 33407,40141 33405,40142 33404,40143 33403,40144 33402,40145 33401,40146 33400,40147 33399,40149 33398,40150 33397,40151 33397,40152 33396,40154 33395,40155 33394,40156 33393,40158 33393,40159 33392,40160 33391,40162 33391,40163 33390,40165 33390,40166 33389,40167 33389,40169 33388,40170 33388,40172 33388,40173 33387,40175 33387,40176 33387,40178 33387,40179 33386,40181 33386,40182 33386,40184 33386,40185 33386,40187 33386,42313 33386,42314 33386,42316 33386,42317 33386,42319 33387,42321 33387,42322 33387,42324 33387,42325 33388,42327 33388,42328 33388,42330 33389,42331 33389,42332 33390,42334 33390,42335 33391,42337 33391,42338 33392,42340 33393,42341 33393,42342 33394,42344 33395,42345 33396,42346 33397,42348 33397,42349 33398,42350 33399,42351 33400,42353 33401,42354 33402,42355 33403,42356 33404,42357 33405,42358 33407,42359 33408,42360 33409,42361 33410,42362 33411,42363 33412,42364 33414,42365 33415,42366 33416,42367 33418,42367 33419,42368 33420,42369 33422,42369 33423,42370 33425,42371 33426,42371 33427,42372 33429,42372 33430,42373 33432,42373 33433,42373 33435,42374 33436,42374 33438,42374 33439,42375 33441,42375 33442,42375 33444,42375 33445,42375 33447,42375 33448,42375 Z"/>
    <path fill="none" stroke="rgb(150,0,0)" d="M 33448,42375 L 34739,42375 34740,42375 34742,42375 34743,42375 34745,42375 34746,42375 34748,42375 34749,42374 34751,42374 34752,42374 34754,42373 34755,42373 34757,42373 34758,42372 34760,42372 34761,42371 34763,42371 34764,42370 34765,42369 34767,42369 34768,42368 34769,42367 34771,42367 34772,42366 34773,42365 34775,42364 34776,42363 34777,42362 34778,42361 34779,42360 34781,42359 34782,42358 34783,42357 34784,42356 34785,42355 34786,42354 34787,42353 34788,42351 34789,42350 34790,42349 34791,42348 34791,42346 34792,42345 34793,42344 34794,42342 34794,42341 34795,42340 34796,42338 34796,42337 34797,42335 34797,42334 34798,42332 34798,42331 34799,42330 34799,42328 34800,42327 34800,42325 34800,42324 34800,42322 34801,42321 34801,42319 34801,42317 34801,42316 34801,42314 34801,42313 34801,40187 34801,40185 34801,40184 34801,40182 34801,40181 34801,40179 34800,40178 34800,40176 34800,40175 34800,40173 34799,40172 34799,40170 34798,40169 34798,40167 34797,40166 34797,40165 34796,40163 34796,40162 34795,40160 34794,40159 34794,40158 34793,40156 34792,40155 34791,40154 34791,40152 34790,40151 34789,40150 34788,40149 34787,40147 34786,40146 34785,40145 34784,40144 34783,40143 34782,40142 34781,40141 34779,40140 34778,40139 34777,40138 34776,40137 34775,40136 34773,40135 34772,40134 34771,40133 34769,40133 34768,40132 34767,40131 34765,40130 34764,40130 34763,40129 34761,40129 34760,40128 34758,40128 34757,40127 34755,40127 34754,40126 34752,40126 34751,40126 34749,40125 34748,40125 34746,40125 34745,40125 34743,40125 34742,40125 34740,40125 34739,40125 33448,40125 33447,40125 33445,40125 33444,40125 33442,40125 33441,40125 33439,40125 33438,40125 33436,40126 33435,40126 33433,40126 33432,40127 33430,40127 33429,40128 33427,40128 33426,40129 33425,40129 33423,40130 33422,40130 33420,40131 33419,40132 33418,40133 33416,40133 33415,40134 33414,40135 33412,40136 33411,40137 33410,40138 33409,40139 33408,40140 33407,40141 33405,40142 33404,40143 33403,40144 33402,40145 33401,40146 33400,40147 33399,40149 33398,40150 33397,40151 33397,40152 33396,40154 33395,40155 33394,40156 33393,40158 33393,40159 33392,40160 33391,40162 33391,40163 33390,40165 33390,40166 33389,40167 33389,40169 33388,40170 33388,40172 33388,40173 33387,40175 33387,40176 33387,40178 33387,40179 33386,40181 33386,40182 33386,40184 33386,40185 33386,40187 33386,42313 33386,42314 33386,42316 33386,42317 33386,42319 33387,42321 33387,42322 33387,42324 33387,42325 33388,42327 33388,42328 33388,42330 33389,42331 33389,42332 33390,42334 33390,42335 33391,42337 33391,42338 33392,42340 33393,42341 33393,42342 33394,42344 33395,42345 33396,42346 33397,42348 33397,42349 33398,42350 33399,42351 33400,42353 33401,42354 33402,42355 33403,42356 33404,42357 33405,42358 33407,42359 33408,42360 33409,42361 33410,42362 33411,42363 33412,42364 33414,42365 33415,42366 33416,42367 33418,42367 33419,42368 33420,42369 33422,42369 33423,42370 33425,42371 33426,42371 33427,42372 33429,42372 33430,42373 33432,42373 33433,42373 33435,42374 33436,42374 33438,42374 33439,42375 33441,42375 33442,42375 33444,42375 33445,42375 33447,42375 33448,42375 Z"/>
   </g>
  </g>
  <g class="com.sun.star.drawing.PolyPolygonShape">
   <g id="id6">
    <rect class="BoundingBox" stroke="none" fill="none" x="33467" y="41686" width="1252" height="504"/>
    <path fill="rgb(255,255,255)" stroke="none" d="M 34717,41855 L 34717,42021 33884,42021 33884,42188 33468,41938 33884,41687 33884,41855 34717,41855 Z"/>
    <path fill="none" stroke="rgb(255,255,255)" d="M 34717,41855 L 34717,42021 33884,42021 33884,42188 33468,41938 33884,41687 33884,41855 34717,41855 Z"/>
   </g>
  </g>
  <g class="com.sun.star.drawing.PolyPolygonShape">
   <g id="id7">
    <rect class="BoundingBox" stroke="none" fill="none" x="33571" y="40309" width="1044" height="631"/>
    <path fill="rgb(255,255,255)" stroke="none" d="M 33572,40938 L 34613,40938 34613,40310 33572,40310 33572,40938 Z"/>
    <path fill="none" stroke="rgb(255,255,255)" d="M 33572,40938 L 34613,40938 34613,40310 33572,40310 33572,40938 Z"/>
   </g>
  </g>
  <g class="com.sun.star.drawing.PolyPolygonShape">
   <g id="id8">
    <rect class="BoundingBox" stroke="none" fill="none" x="33634" y="40378" width="919" height="493"/>
    <path fill="rgb(0,0,0)" stroke="none" d="M 34104,40579 L 34146,40579 34146,40594 34131,40594 34131,40642 34134,40642 34136,40643 34138,40643 34140,40644 34231,40454 33899,40454 33894,40473 34092,40653 34093,40652 34095,40651 34096,40650 34098,40649 34099,40648 34101,40647 34103,40646 34104,40646 34106,40645 34108,40644 34109,40644 34111,40643 34113,40643 34115,40642 34117,40642 34118,40642 34118,40594 34104,40594 34104,40579 Z M 34299,40559 L 34296,40560 34294,40561 34292,40562 34290,40564 34288,40565 34286,40566 34284,40568 34282,40569 34280,40571 34279,40572 34277,40574 34274,40575 34272,40577 34270,40579 34268,40580 34267,40582 34265,40584 34263,40585 34262,40587 34260,40589 34258,40591 34257,40593 34255,40595 34254,40596 34252,40598 34251,40600 34249,40602 34248,40604 34246,40606 34245,40608 34244,40610 34243,40612 34241,40614 34240,40617 34239,40619 34238,40621 34237,40623 34236,40625 34234,40627 34233,40630 34232,40632 34232,40634 34231,40636 34230,40639 34229,40641 34228,40643 34227,40645 34227,40648 34226,40650 34225,40652 34225,40655 34224,40657 34223,40660 34223,40662 34222,40664 34222,40667 34222,40669 34221,40672 34221,40674 34221,40676 34220,40679 34220,40681 34220,40684 34220,40686 34341,40686 34342,40684 34342,40683 34343,40682 34343,40680 34344,40679 34344,40677 34345,40676 34346,40675 34347,40674 34347,40672 34348,40671 34349,40670 34350,40669 34351,40668 34353,40667 34354,40666 34299,40559 Z M 34290,40542 L 34288,40543 34285,40545 34283,40546 34281,40548 34278,40549 34276,40551 34273,40552 34271,40554 34269,40556 34266,40557 34264,40559 34262,40561 34260,40563 34258,40565 34256,40566 34254,40568 34252,40570 34250,40572 34248,40574 34246,40576 34245,40578 34243,40581 34241,40583 34239,40585 34238,40587 34236,40589 34234,40591 34233,40593 34231,40596 34230,40598 34228,40600 34227,40603 34225,40605 34224,40607 34223,40610 34221,40612 34220,40615 34219,40617 34218,40620 34216,40622 34215,40625 34214,40627 34213,40630 34212,40632 34211,40635 34210,40637 34210,40640 34209,40643 34208,40645 34207,40648 34207,40651 34206,40653 34205,40656 34205,40659 34204,40661 34204,40664 34203,40667 34203,40670 34202,40672 34202,40675 34202,40678 34202,40681 34202,40683 34201,40686 34190,40686 34191,40683 34191,40680 34191,40677 34191,40674 34192,40671 34192,40668 34192,40666 34193,40663 34193,40660 34194,40657 34195,40654 34195,40651 34196,40648 34197,40645 34197,40643 34198,40640 34199,40637 34200,40634 34201,40631 34202,40629 34203,40626 34204,40623 34205,40621 34206,40618 34208,40615 34209,40612 34210,40610 34212,40607 34213,40605 34214,40602 34216,40600 34217,40597 34219,40595 34221,40592 34222,40590 34224,40587 34225,40585 34227,40583 34229,40580 34231,40578 34233,40575 34235,40573 34237,40571 34238,40569 34240,40567 34243,40565 34245,40562 34247,40560 34249,40558 34251,40556 34253,40554 34255,40553 34258,40551 34260,40549 34262,40547 34264,40545 34267,40543 34269,40542 34272,40540 34274,40538 34278,40537 34280,40535 34283,40534 34285,40532 34290,40542 Z M 34282,40526 L 34279,40528 34277,40530 34273,40531 34271,40533 34268,40535 34266,40536 34263,40538 34261,40540 34258,40542 34256,40544 34254,40545 34251,40547 34249,40549 34247,40552 34244,40553 34242,40556 34240,40558 34238,40560 34236,40562 34234,40564 34232,40567 34230,40569 34228,40571 34226,40574 34224,40576 34222,40579 34220,40581 34218,40583 34217,40586 34215,40588 34213,40591 34212,40594 34210,40596 34209,40599 34207,40602 34206,40604 34204,40607 34203,40610 34202,40612 34200,40615 34199,40618 34198,40621 34197,40624 34196,40626 34195,40629 34194,40632 34193,40635 34192,40638 34191,40641 34190,40644 34189,40647 34189,40650 34188,40653 34188,40656 34187,40659 34186,40662 34186,40665 34186,40668 34185,40671 34185,40674 34184,40677 34184,40680 34184,40683 34184,40686 34177,40686 34176,40685 34176,40683 34176,40682 34176,40681 34175,40679 34175,40678 34174,40677 34174,40675 34173,40674 34173,40673 34172,40672 34172,40670 34171,40669 34171,40668 34170,40667 34169,40666 34168,40664 34168,40663 34167,40662 34166,40661 34165,40660 34164,40659 34163,40658 34162,40657 34161,40656 34160,40655 34159,40654 34158,40653 34157,40653 34156,40652 34155,40651 34154,40650 34246,40457 34282,40526 Z M 33994,40680 L 33983,40680 33983,40677 33982,40674 33982,40671 33981,40668 33981,40665 33981,40662 33980,40659 33979,40657 33979,40654 33978,40651 33977,40648 33976,40645 33976,40642 33975,40639 33974,40637 33973,40634 33972,40631 33971,40628 33970,40626 33968,40623 33967,40620 33966,40617 33965,40615 33963,40612 33962,40610 33960,40607 33959,40605 33957,40602 33956,40599 33954,40597 33953,40594 33951,40592 33949,40590 33947,40587 33946,40585 33944,40583 33942,40580 33940,40578 33938,40576 33936,40574 33934,40572 33932,40570 33930,40568 33927,40565 33925,40563 33923,40562 33921,40560 33918,40558 33916,40556 33914,40554 33911,40552 33909,40551 33907,40549 33904,40547 33902,40546 33899,40544 33897,40543 33894,40541 33891,40540 33889,40538 33886,40537 33884,40536 33881,40535 33878,40533 33881,40523 33884,40524 33887,40525 33890,40527 33892,40528 33895,40530 33898,40531 33901,40533 33904,40534 33906,40536 33909,40537 33912,40539 33914,40541 33917,40543 33919,40545 33922,40547 33924,40548 33927,40551 33929,40553 33932,40555 33934,40557 33936,40559 33939,40561 33941,40563 33943,40566 33945,40568 33947,40570 33949,40573 33952,40575 33954,40578 33956,40580 33957,40583 33959,40585 33961,40588 33963,40590 33965,40593 33966,40596 33968,40599 33970,40601 33971,40604 33973,40607 33974,40610 33976,40612 33977,40615 33978,40618 33980,40621 33981,40624 33982,40627 33983,40630 33984,40633 33985,40636 33986,40639 33987,40642 33988,40645 33989,40648 33989,40651 33990,40654 33991,40657 33991,40661 33992,40664 33992,40667 33993,40670 33993,40673 33994,40676 33994,40680 Z M 33818,40671 L 33817,40671 33816,40671 33815,40670 33814,40670 33813,40670 33812,40670 33811,40670 33810,40670 33809,40670 33808,40670 33807,40670 33806,40670 33805,40670 33804,40670 33803,40670 33802,40671 33801,40671 33800,40672 33799,40672 33798,40672 33797,40673 33796,40673 33796,40674 33795,40674 33794,40675 33793,40676 33792,40677 33791,40678 33790,40679 33789,40680 33789,40681 33788,40682 33788,40683 33787,40683 33787,40684 33787,40685 33787,40686 33786,40687 33786,40688 33786,40689 33786,40690 33785,40691 33785,40692 33785,40693 33785,40694 33785,40695 33785,40696 33786,40697 33786,40698 33786,40699 33786,40700 33786,40701 33787,40702 33787,40703 33788,40704 33788,40705 33788,40706 33789,40706 33789,40707 33790,40708 33791,40709 33792,40710 33792,40711 33793,40711 33794,40712 33795,40713 33796,40713 33796,40714 33797,40715 33798,40715 33799,40715 33800,40716 33801,40716 33802,40717 33803,40717 33804,40717 33805,40717 33806,40717 33807,40717 33807,40718 33808,40718 33809,40718 33810,40718 33811,40718 33812,40717 33813,40717 33814,40717 33815,40717 33816,40717 33817,40716 33818,40716 33819,40716 33820,40715 33821,40715 33821,40714 33822,40714 33823,40713 33824,40713 33824,40712 33825,40712 33826,40711 33826,40710 33827,40710 33827,40709 33828,40708 33829,40708 33829,40707 33830,40706 33830,40705 33831,40704 33831,40703 33832,40702 33832,40701 33832,40700 33966,40696 33966,40699 33966,40702 33965,40705 33965,40708 33965,40711 33965,40714 33964,40717 33964,40720 33963,40723 33962,40726 33962,40729 33961,40732 33960,40735 33960,40738 33959,40741 33958,40744 33957,40747 33956,40751 33954,40754 33953,40757 33952,40760 33951,40762 33949,40765 33948,40768 33946,40771 33945,40773 33943,40776 33942,40778 33940,40781 33938,40784 33937,40786 33935,40789 33933,40791 33931,40794 33929,40796 33927,40798 33925,40801 33923,40803 33921,40805 33919,40807 33916,40809 33914,40811 33912,40813 33909,40815 33907,40817 33905,40819 33902,40821 33900,40823 33897,40825 33895,40826 33892,40828 33889,40830 33887,40831 33884,40833 33881,40834 33878,40836 33876,40837 33873,40838 33870,40839 33867,40841 33864,40842 33861,40843 33859,40844 33856,40845 33853,40846 33850,40846 33847,40847 33844,40848 33841,40849 33838,40849 33835,40850 33832,40850 33829,40851 33826,40851 33822,40851 33819,40851 33816,40852 33813,40852 33810,40852 33807,40852 33804,40852 33801,40852 33798,40851 33795,40851 33792,40851 33789,40850 33786,40850 33783,40849 33780,40849 33777,40848 33774,40848 33771,40847 33768,40846 33765,40845 33762,40844 33759,40843 33756,40842 33753,40841 33750,40840 33747,40839 33745,40838 33742,40837 33739,40835 33736,40834 33733,40832 33731,40831 33728,40829 33726,40827 33723,40826 33720,40824 33718,40822 33715,40821 33713,40819 33711,40817 33708,40815 33706,40813 33704,40811 33701,40809 33699,40807 33697,40804 33695,40802 33693,40800 33691,40798 33689,40795 33687,40793 33685,40790 33683,40788 33681,40785 33679,40783 33678,40780 33676,40778 33674,40775 33673,40772 33671,40770 33670,40767 33669,40764 33667,40761 33666,40759 33665,40756 33664,40753 33662,40750 33661,40746 33660,40743 33659,40740 33659,40737 33658,40734 33657,40731 33656,40728 33656,40725 33655,40722 33654,40719 33654,40716 33654,40713 33653,40710 33653,40707 33653,40704 33653,40701 33653,40698 33652,40695 33652,40692 33653,40689 33653,40686 33653,40683 33653,40679 33653,40676 33654,40673 33654,40670 33655,40667 33655,40664 33656,40661 33656,40658 33657,40655 33658,40652 33659,40649 33660,40646 33661,40643 33662,40640 33663,40637 33664,40635 33665,40632 33666,40629 33668,40626 33669,40623 33670,40621 33672,40618 33673,40615 33675,40613 33677,40610 33678,40607 33680,40605 33682,40602 33683,40600 33685,40597 33687,40595 33689,40593 33691,40590 33693,40588 33695,40586 33697,40583 33700,40581 33702,40579 33704,40577 33706,40575 33709,40573 33711,40571 33714,40569 33716,40567 33719,40565 33721,40564 33724,40562 33726,40560 33729,40559 33732,40557 33734,40556 33737,40554 33740,40553 33742,40552 33745,40550 33748,40549 33751,40548 33754,40547 33757,40546 33760,40545 33763,40544 33765,40543 33768,40542 33771,40541 33774,40541 33777,40540 33780,40539 33783,40539 33786,40538 33789,40538 33793,40537 33796,40537 33799,40537 33802,40537 33805,40537 33808,40537 33811,40537 33814,40537 33817,40537 33820,40537 33823,40537 33826,40537 33829,40538 33832,40538 33835,40539 33839,40539 33842,40540 33845,40541 33848,40541 33851,40542 33853,40543 33856,40544 33859,40545 33838,40628 33837,40631 33837,40634 33836,40637 33835,40640 33834,40643 33833,40645 33832,40648 33831,40651 33829,40654 33828,40656 33827,40659 33825,40662 33823,40664 33822,40667 33820,40669 33818,40671 Z M 33830,40681 L 33830,40682 33831,40683 33831,40684 33832,40685 33965,40681 33965,40678 33965,40675 33965,40673 33964,40670 33964,40668 33963,40665 33963,40663 33962,40660 33962,40657 33961,40655 33960,40652 33960,40650 33959,40647 33958,40645 33957,40642 33956,40640 33956,40637 33955,40635 33954,40633 33953,40630 33951,40628 33950,40625 33949,40623 33948,40621 33947,40619 33946,40616 33944,40614 33943,40612 33942,40610 33940,40607 33939,40605 33937,40603 33936,40601 33934,40599 33933,40597 33931,40595 33929,40593 33928,40591 33926,40589 33924,40587 33922,40585 33921,40583 33919,40581 33917,40579 33915,40578 33913,40576 33911,40574 33909,40572 33907,40571 33905,40569 33903,40568 33901,40566 33899,40565 33896,40563 33894,40562 33892,40560 33890,40559 33888,40558 33885,40556 33883,40555 33881,40554 33878,40553 33876,40552 33874,40550 33853,40631 33852,40634 33851,40638 33850,40641 33850,40645 33848,40648 33847,40651 33846,40654 33844,40658 33843,40661 33841,40664 33840,40667 33838,40670 33836,40673 33834,40676 33832,40679 33830,40681 Z M 34514,40620 L 34515,40622 34516,40624 34517,40626 34517,40628 34518,40630 34519,40632 34520,40634 34521,40636 34522,40638 34523,40640 34523,40642 34524,40644 34525,40646 34525,40648 34526,40650 34526,40652 34527,40654 34528,40657 34528,40659 34529,40661 34529,40663 34529,40665 34530,40667 34530,40669 34530,40672 34531,40674 34531,40676 34531,40678 34532,40680 34532,40682 34532,40685 34532,40687 34532,40689 34532,40691 34532,40693 34532,40695 34532,40698 34532,40700 34532,40702 34532,40704 34532,40706 34531,40709 34531,40711 34531,40713 34531,40715 34530,40717 34530,40719 34530,40722 34529,40724 34529,40726 34528,40728 34528,40730 34527,40732 34527,40734 34526,40736 34525,40739 34525,40741 34524,40743 34523,40745 34523,40747 34522,40750 34521,40752 34520,40754 34519,40756 34519,40758 34518,40760 34517,40762 34516,40764 34515,40766 34514,40768 34513,40770 34512,40772 34511,40774 34510,40775 34509,40777 34507,40779 34506,40781 34505,40783 34504,40785 34502,40786 34501,40788 34500,40790 34498,40792 34497,40793 34496,40795 34494,40797 34493,40798 34491,40800 34490,40802 34488,40803 34487,40805 34485,40806 34484,40808 34482,40809 34480,40811 34479,40812 34477,40813 34476,40815 34474,40816 34472,40818 34470,40819 34469,40820 34467,40822 34465,40823 34463,40824 34462,40825 34460,40826 34458,40828 34456,40829 34454,40830 34452,40831 34450,40832 34448,40833 34447,40834 34444,40835 34443,40836 34441,40837 34439,40838 34437,40839 34434,40839 34432,40840 34431,40841 34428,40842 34426,40842 34424,40843 34422,40844 34420,40844 34418,40845 34416,40845 34414,40846 34412,40847 34409,40847 34407,40847 34405,40848 34403,40848 34401,40849 34399,40849 34397,40849 34395,40850 34392,40850 34390,40850 34388,40850 34386,40850 34384,40851 34381,40851 34379,40851 34377,40851 34375,40851 34373,40851 34371,40851 34368,40851 34366,40850 34364,40850 34362,40850 34360,40850 34358,40849 34355,40849 34353,40849 34351,40849 34349,40848 34347,40848 34345,40847 34342,40847 34340,40846 34338,40846 34336,40845 34334,40845 34332,40844 34330,40843 34328,40843 34326,40842 34324,40841 34322,40841 34320,40840 34318,40839 34316,40838 34313,40837 34311,40837 34310,40836 34307,40835 34306,40834 34304,40833 34302,40832 34300,40831 34298,40829 34296,40828 34294,40827 34292,40826 34291,40825 34289,40824 34287,40822 34285,40821 34283,40820 34282,40818 34280,40817 34278,40816 34277,40814 34274,40813 34272,40812 34271,40810 34269,40809 34268,40807 34266,40806 34264,40804 34263,40802 34261,40801 34260,40799 34258,40798 34257,40796 34256,40794 34254,40793 34253,40791 34251,40789 34250,40787 34249,40786 34248,40784 34246,40782 34245,40780 34244,40778 34243,40777 34242,40775 34241,40773 34240,40771 34239,40769 34238,40767 34236,40765 34236,40763 34235,40761 34234,40759 34233,40757 34232,40755 34231,40753 34230,40751 34230,40749 34229,40746 34228,40744 34227,40742 34227,40740 34226,40738 34225,40736 34225,40734 34224,40731 34224,40729 34223,40727 34223,40725 34222,40723 34222,40721 34222,40719 34221,40717 34221,40714 34221,40712 34221,40710 34220,40708 34220,40706 34220,40703 34220,40701 34341,40701 34342,40703 34342,40705 34343,40707 34343,40708 34344,40710 34345,40712 34346,40713 34347,40715 34348,40716 34349,40717 34351,40719 34352,40720 34353,40721 34355,40722 34356,40723 34358,40724 34359,40725 34361,40726 34363,40727 34364,40728 34366,40728 34368,40729 34370,40729 34372,40729 34373,40730 34375,40730 34377,40730 34379,40730 34381,40729 34383,40729 34384,40729 34386,40728 34388,40728 34390,40727 34391,40726 34393,40726 34394,40725 34396,40724 34397,40723 34399,40722 34400,40721 34402,40719 34403,40718 34404,40717 34405,40715 34406,40714 34407,40712 34408,40710 34409,40709 34410,40707 34410,40705 34411,40704 34411,40702 34412,40700 34412,40698 34412,40697 34412,40695 34412,40693 34412,40691 34412,40689 34412,40687 34411,40686 34411,40684 34410,40682 34514,40620 Z M 34312,40552 L 34315,40550 34318,40549 34322,40548 34325,40546 34328,40545 34331,40544 34335,40543 34338,40543 34341,40542 34345,40541 34348,40540 34351,40540 34355,40539 34358,40539 34361,40538 34365,40538 34368,40538 34372,40538 34375,40538 34379,40538 34382,40538 34385,40538 34389,40538 34392,40539 34396,40539 34399,40539 34402,40540 34406,40541 34409,40541 34412,40542 34416,40543 34419,40544 34422,40545 34426,40546 34429,40547 34432,40548 34435,40549 34438,40551 34441,40552 34444,40553 34448,40555 34451,40557 34454,40558 34457,40560 34459,40562 34462,40564 34465,40566 34468,40568 34471,40570 34473,40572 34476,40574 34479,40576 34481,40578 34484,40581 34486,40583 34489,40586 34491,40588 34493,40591 34495,40593 34498,40596 34500,40599 34502,40601 34504,40604 34506,40607 34403,40669 34402,40668 34401,40667 34400,40666 34399,40666 34398,40665 34397,40664 34396,40664 34395,40663 34394,40662 34393,40662 34392,40661 34391,40661 34390,40660 34389,40660 34387,40659 34386,40659 34385,40659 34384,40658 34383,40658 34381,40658 34380,40658 34379,40658 34378,40658 34377,40658 34376,40658 34374,40658 34373,40658 34372,40658 34371,40658 34370,40658 34368,40659 34367,40659 34312,40552 Z M 34531,40592 L 34522,40597 34519,40594 34517,40591 34515,40588 34513,40585 34510,40582 34508,40579 34505,40576 34502,40573 34500,40570 34497,40568 34494,40565 34491,40562 34488,40560 34485,40557 34482,40555 34479,40553 34476,40551 34473,40548 34470,40546 34466,40544 34463,40542 34460,40540 34456,40539 34453,40537 34449,40535 34446,40534 34442,40532 34439,40531 34435,40529 34431,40528 34428,40527 34424,40526 34420,40525 34417,40524 34413,40523 34409,40522 34405,40522 34402,40521 34398,40520 34394,40520 34390,40520 34386,40519 34382,40519 34379,40519 34375,40519 34371,40519 34367,40519 34363,40520 34359,40520 34355,40520 34352,40521 34348,40521 34344,40522 34340,40523 34336,40524 34333,40525 34329,40526 34325,40527 34322,40528 34318,40529 34314,40531 34311,40532 34307,40533 34304,40535 34299,40525 34302,40524 34306,40522 34310,40521 34314,40519 34318,40518 34322,40517 34326,40515 34330,40514 34334,40513 34338,40512 34342,40512 34346,40511 34350,40510 34354,40510 34358,40509 34362,40509 34366,40508 34370,40508 34374,40508 34378,40508 34383,40508 34387,40508 34391,40509 34395,40509 34399,40510 34403,40510 34407,40511 34411,40512 34415,40512 34419,40513 34423,40514 34427,40515 34431,40516 34435,40518 34439,40519 34443,40521 34447,40522 34450,40524 34454,40525 34458,40527 34461,40529 34465,40531 34469,40533 34472,40535 34476,40537 34479,40539 34483,40542 34486,40544 34489,40547 34492,40549 34496,40552 34499,40554 34502,40557 34505,40560 34508,40563 34511,40566 34513,40569 34516,40572 34519,40575 34521,40578 34524,40582 34526,40585 34529,40588 34531,40592 Z M 33994,40695 L 33994,40698 33994,40701 33994,40704 33994,40707 33994,40710 33993,40713 33993,40716 33992,40720 33999,40721 33999,40717 34000,40713 34000,40709 34001,40705 34001,40701 34001,40697 34001,40693 34001,40689 34001,40685 34000,40681 34000,40677 34000,40673 33999,40669 33999,40665 33998,40661 33997,40657 33997,40654 33996,40650 33995,40646 33994,40642 33993,40638 33992,40635 33990,40631 33989,40627 33987,40623 33986,40620 33985,40616 33983,40612 33981,40609 33979,40605 33978,40602 33976,40598 33974,40595 33972,40592 33969,40588 33967,40585 33965,40582 33963,40579 33960,40575 33958,40572 33955,40569 33953,40566 33950,40563 33947,40561 33944,40558 33942,40555 33939,40552 33936,40550 33933,40547 33930,40545 33927,40542 33924,40540 33920,40537 33917,40535 33914,40533 33911,40531 33907,40529 33904,40527 33900,40525 33897,40523 33893,40521 33890,40519 33886,40518 33883,40516 33890,40489 34082,40664 34081,40666 34080,40667 34079,40669 34078,40670 34078,40672 34077,40673 34076,40675 34076,40676 34075,40678 34075,40679 34074,40681 34074,40683 34074,40684 34073,40686 34073,40688 34073,40689 34073,40691 34073,40693 34073,40694 34073,40696 34073,40698 34073,40699 34073,40701 34073,40703 34074,40704 34074,40706 34075,40708 34075,40709 34075,40711 34076,40712 34077,40714 34077,40715 34078,40717 34079,40718 34080,40720 34081,40721 34081,40723 34082,40724 34083,40725 34084,40727 34085,40728 34086,40729 34088,40730 34089,40731 34090,40733 34091,40734 34093,40735 34094,40736 34095,40737 34097,40738 34098,40739 34100,40739 34101,40740 34102,40741 34104,40742 34106,40742 34107,40743 34109,40743 34110,40744 34112,40744 34113,40745 34115,40745 34117,40745 34118,40746 34118,40794 34104,40794 34104,40809 34146,40809 34146,40794 34131,40794 34131,40746 34134,40745 34136,40745 34138,40744 34140,40744 34142,40743 34144,40743 34146,40742 34148,40741 34150,40740 34151,40739 34153,40738 34155,40737 34157,40735 34158,40734 34160,40733 34161,40731 34163,40730 34164,40728 34166,40726 34167,40725 34168,40723 34169,40721 34170,40719 34172,40717 34172,40715 34173,40713 34174,40712 34175,40710 34175,40708 34176,40705 34176,40703 34177,40701 34184,40701 34184,40705 34184,40708 34185,40711 34185,40715 34185,40718 34186,40721 34186,40724 34187,40728 34193,40726 34193,40723 34192,40720 34192,40717 34191,40714 34191,40711 34191,40708 34191,40704 34190,40701 34201,40701 34202,40704 34202,40706 34202,40709 34202,40711 34202,40713 34203,40716 34203,40718 34203,40721 34204,40723 34204,40726 34205,40728 34205,40730 34206,40733 34206,40735 34207,40738 34208,40740 34208,40742 34209,40745 34209,40747 34210,40750 34211,40753 34212,40755 34213,40757 34214,40760 34215,40762 34216,40764 34216,40766 34218,40769 34219,40771 34220,40773 34221,40775 34222,40777 34223,40779 34224,40782 34226,40784 34227,40786 34228,40788 34229,40790 34231,40792 34232,40794 34234,40796 34235,40798 34236,40800 34238,40802 34239,40804 34241,40806 34243,40808 34244,40809 34246,40811 34247,40813 34249,40815 34251,40817 34253,40818 34254,40820 34256,40822 34258,40823 34260,40825 34262,40827 34263,40828 34265,40830 34267,40831 34269,40833 34271,40834 34273,40836 34276,40837 34278,40839 34280,40840 34282,40841 34284,40843 34286,40844 34288,40845 34290,40847 34293,40848 34295,40849 34297,40850 34299,40851 34301,40852 34304,40853 34306,40854 34308,40855 34310,40856 34313,40857 34315,40858 34317,40859 34319,40860 34322,40860 34324,40861 34326,40862 34329,40863 34331,40863 34333,40864 34336,40864 34338,40865 34341,40866 34343,40866 34345,40866 34348,40867 34350,40867 34353,40868 34355,40868 34358,40868 34360,40868 34362,40869 34365,40869 34367,40869 34370,40869 34372,40869 34375,40869 34377,40869 34379,40869 34382,40869 34384,40869 34387,40869 34389,40869 34392,40869 34394,40868 34396,40868 34399,40868 34401,40867 34404,40867 34406,40867 34409,40866 34411,40866 34413,40865 34416,40865 34418,40864 34421,40863 34423,40863 34425,40862 34428,40862 34430,40861 34432,40860 34435,40859 34437,40858 34439,40857 34441,40857 34444,40856 34446,40855 34448,40854 34450,40853 34453,40852 34455,40851 34457,40849 34459,40848 34461,40847 34463,40846 34466,40845 34468,40843 34470,40842 34472,40841 34474,40839 34476,40838 34478,40837 34480,40835 34482,40834 34484,40832 34486,40831 34487,40829 34489,40827 34491,40826 34493,40824 34495,40823 34497,40821 34498,40819 34500,40818 34502,40816 34504,40814 34505,40812 34507,40810 34509,40809 34510,40807 34512,40805 34513,40803 34515,40801 34516,40799 34517,40797 34519,40795 34520,40793 34522,40791 34523,40789 34524,40787 34526,40785 34527,40783 34528,40780 34529,40778 34530,40776 34532,40774 34533,40772 34534,40770 34535,40767 34536,40765 34537,40763 34538,40761 34539,40758 34540,40756 34540,40754 34541,40751 34542,40749 34543,40746 34543,40743 34544,40741 34545,40739 34545,40736 34546,40734 34546,40731 34547,40729 34547,40727 34548,40724 34548,40722 34549,40719 34549,40717 34549,40715 34550,40712 34550,40710 34550,40707 34550,40705 34550,40703 34550,40700 34551,40697 34551,40695 34551,40693 34551,40690 34550,40688 34550,40685 34550,40683 34550,40680 34550,40678 34550,40675 34549,40673 34549,40671 34549,40668 34548,40666 34548,40663 34547,40661 34547,40659 34546,40656 34546,40654 34545,40651 34545,40649 34544,40647 34543,40644 34543,40642 34542,40640 34541,40637 34541,40635 34540,40633 34539,40630 34538,40628 34537,40626 34536,40624 34535,40621 34534,40619 34533,40617 34532,40615 34531,40613 34530,40610 34539,40605 34540,40608 34542,40611 34543,40614 34545,40617 34551,40614 34549,40610 34547,40606 34544,40602 34542,40597 34540,40593 34537,40589 34535,40585 34532,40581 34529,40578 34526,40574 34523,40570 34520,40567 34517,40563 34514,40560 34510,40556 34507,40553 34504,40550 34500,40547 34496,40544 34493,40541 34489,40538 34485,40535 34481,40533 34477,40530 34473,40528 34469,40525 34465,40523 34460,40521 34456,40519 34452,40517 34447,40515 34443,40514 34439,40512 34434,40511 34429,40509 34425,40508 34420,40507 34416,40506 34411,40505 34406,40504 34402,40503 34397,40503 34392,40502 34388,40502 34383,40502 34378,40502 34373,40502 34369,40502 34364,40502 34359,40502 34355,40503 34350,40504 34345,40504 34341,40505 34336,40506 34331,40507 34327,40508 34322,40510 34318,40511 34313,40512 34309,40514 34304,40516 34300,40518 34296,40519 34254,40440 34263,40420 34264,40419 34265,40418 34266,40418 34266,40417 34267,40417 34268,40417 34269,40417 34270,40416 34271,40416 34272,40415 34274,40415 34274,40414 34277,40414 34278,40413 34278,40412 34279,40412 34279,40411 34280,40411 34280,40410 34281,40409 34281,40408 34281,40407 34281,40406 34281,40405 34281,40404 34281,40403 34281,40402 34280,40402 34280,40401 34279,40400 34279,40399 34278,40399 34277,40398 34276,40397 34274,40397 34273,40396 34272,40396 34271,40396 34266,40396 34261,40395 34256,40395 34251,40394 34246,40394 34241,40394 34236,40394 34231,40394 34226,40394 34221,40394 34216,40394 34211,40395 34206,40395 34201,40396 34196,40397 34191,40397 34190,40398 34189,40398 34188,40399 34187,40400 34186,40401 34186,40402 34185,40403 34185,40404 34185,40405 34185,40406 34185,40407 34185,40408 34186,40409 34186,40410 34187,40411 34188,40412 34189,40413 34190,40413 34191,40414 34192,40414 34236,40416 34237,40416 34238,40416 34239,40416 34240,40416 34241,40417 34242,40417 34242,40418 34243,40419 34243,40420 34244,40420 34244,40421 34244,40422 34244,40423 34244,40424 34244,40425 34244,40426 34243,40426 34238,40438 33903,40438 33912,40402 33915,40403 33917,40403 33920,40403 33922,40403 33925,40403 33927,40402 33930,40402 33932,40402 33935,40402 33937,40401 33939,40401 33942,40400 33944,40400 33947,40399 33949,40399 33952,40398 33953,40398 33955,40397 33956,40397 33958,40397 33960,40397 33961,40397 33963,40397 33965,40397 33966,40397 33968,40397 33969,40397 33971,40397 33973,40397 33974,40397 33976,40398 33978,40398 33979,40398 33980,40397 33981,40397 33982,40396 33983,40396 33983,40395 33983,40394 33984,40394 33984,40393 33985,40392 33985,40391 33985,40390 33985,40389 33985,40388 33985,40387 33985,40386 33984,40386 33984,40385 33983,40384 33983,40383 33982,40383 33982,40382 33980,40382 33979,40381 33978,40381 33976,40380 33975,40380 33973,40380 33972,40380 33970,40379 33969,40379 33967,40379 33966,40379 33965,40379 33963,40379 33962,40379 33960,40380 33959,40380 33955,40381 33952,40381 33948,40382 33945,40382 33941,40383 33937,40383 33934,40383 33930,40383 33927,40384 33923,40384 33919,40384 33916,40384 33912,40383 33909,40383 33905,40383 33902,40383 33868,40511 33865,40510 33862,40509 33858,40508 33855,40507 33851,40506 33848,40506 33845,40505 33841,40504 33838,40504 33834,40503 33831,40503 33827,40503 33824,40502 33820,40502 33817,40502 33814,40502 33810,40502 33807,40502 33803,40502 33800,40502 33796,40502 33793,40502 33789,40503 33786,40503 33782,40504 33779,40504 33775,40505 33772,40505 33769,40506 33765,40507 33762,40508 33758,40508 33760,40515 33763,40514 33767,40513 33770,40512 33773,40512 33777,40511 33780,40511 33783,40510 33787,40510 33790,40509 33793,40509 33797,40509 33800,40508 33803,40508 33807,40508 33810,40508 33814,40508 33817,40508 33820,40509 33824,40509 33827,40509 33830,40509 33834,40510 33837,40510 33840,40511 33844,40512 33847,40512 33850,40513 33853,40514 33857,40514 33860,40515 33863,40516 33867,40517 33864,40528 33861,40527 33857,40526 33854,40525 33851,40524 33847,40523 33844,40523 33841,40522 33837,40521 33834,40521 33830,40520 33827,40520 33824,40520 33820,40519 33817,40519 33813,40519 33810,40519 33807,40519 33803,40519 33800,40519 33796,40520 33793,40520 33789,40520 33786,40521 33783,40521 33779,40522 33776,40522 33773,40523 33769,40524 33766,40524 33763,40525 33759,40526 33756,40527 33753,40528 33750,40530 33747,40531 33743,40532 33740,40533 33737,40535 33734,40536 33731,40538 33728,40539 33725,40541 33722,40543 33719,40544 33716,40546 33713,40548 33710,40550 33708,40552 33705,40554 33702,40556 33699,40558 33697,40560 33694,40562 33692,40565 33689,40567 33687,40570 33684,40572 33682,40574 33680,40577 33677,40580 33675,40582 33673,40585 33671,40588 33669,40590 33667,40593 33665,40596 33663,40599 33661,40602 33659,40605 33658,40608 33656,40610 33654,40614 33653,40617 33651,40620 33650,40623 33649,40626 33647,40629 33646,40632 33645,40636 33644,40639 33643,40642 33642,40645 33641,40649 33640,40652 33639,40655 33638,40659 33638,40662 33637,40665 33637,40669 33636,40672 33636,40675 33636,40679 33635,40682 33635,40686 33635,40689 33635,40693 33635,40696 33635,40699 33635,40703 33635,40706 33636,40710 33636,40713 33636,40717 33637,40720 33637,40723 33638,40727 33639,40730 33640,40733 33640,40737 33641,40740 33642,40743 33643,40746 33644,40751 33645,40754 33647,40757 33648,40760 33649,40764 33650,40767 33652,40770 33653,40773 33655,40776 33657,40779 33658,40782 33660,40785 33662,40788 33664,40791 33666,40793 33668,40796 33670,40799 33672,40802 33674,40804 33676,40807 33678,40810 33680,40812 33683,40815 33685,40817 33688,40820 33690,40822 33693,40824 33695,40827 33698,40829 33700,40831 33703,40833 33706,40835 33709,40837 33711,40839 33714,40841 33717,40843 33720,40845 33723,40846 33726,40848 33729,40850 33732,40851 33735,40853 33738,40854 33741,40855 33745,40857 33748,40858 33751,40859 33754,40860 33757,40861 33761,40862 33764,40863 33767,40864 33771,40865 33774,40866 33777,40866 33781,40867 33784,40867 33787,40868 33791,40868 33794,40869 33798,40869 33801,40869 33804,40869 33808,40869 33811,40869 33815,40869 33818,40869 33821,40869 33825,40869 33828,40868 33832,40868 33835,40867 33838,40867 33842,40866 33845,40866 33848,40865 33852,40864 33855,40863 33858,40862 33862,40861 33865,40860 33868,40859 33871,40858 33875,40856 33878,40855 33881,40854 33884,40852 33887,40851 33890,40849 33893,40848 33896,40846 33899,40844 33902,40842 33905,40841 33908,40839 33910,40837 33913,40835 33916,40833 33919,40831 33921,40828 33924,40826 33926,40824 33929,40822 33931,40819 33934,40817 33936,40814 33938,40812 33941,40809 33943,40807 33945,40804 33947,40801 33949,40798 33951,40796 33953,40793 33955,40790 33957,40787 33959,40784 33960,40781 33962,40778 33964,40775 33965,40772 33967,40769 33968,40766 33970,40763 33971,40760 33972,40756 33973,40753 33974,40750 33975,40746 33976,40743 33977,40739 33978,40736 33979,40733 33980,40729 33980,40726 33981,40722 33981,40719 33982,40716 33982,40712 33983,40709 33983,40705 33983,40702 33983,40699 33983,40695 33994,40695 Z"/>
    <path fill="none" stroke="rgb(0,0,0)" d="M 34104,40579 L 34146,40579 34146,40594 34131,40594 34131,40642 34134,40642 34136,40643 34138,40643 34140,40644 34231,40454 33899,40454 33894,40473 34092,40653 34093,40652 34095,40651 34096,40650 34098,40649 34099,40648 34101,40647 34103,40646 34104,40646 34106,40645 34108,40644 34109,40644 34111,40643 34113,40643 34115,40642 34117,40642 34118,40642 34118,40594 34104,40594 34104,40579 Z"/>
    <path fill="none" stroke="rgb(0,0,0)" d="M 34299,40559 L 34296,40560 34294,40561 34292,40562 34290,40564 34288,40565 34286,40566 34284,40568 34282,40569 34280,40571 34279,40572 34277,40574 34274,40575 34272,40577 34270,40579 34268,40580 34267,40582 34265,40584 34263,40585 34262,40587 34260,40589 34258,40591 34257,40593 34255,40595 34254,40596 34252,40598 34251,40600 34249,40602 34248,40604 34246,40606 34245,40608 34244,40610 34243,40612 34241,40614 34240,40617 34239,40619 34238,40621 34237,40623 34236,40625 34234,40627 34233,40630 34232,40632 34232,40634 34231,40636 34230,40639 34229,40641 34228,40643 34227,40645 34227,40648 34226,40650 34225,40652 34225,40655 34224,40657 34223,40660 34223,40662 34222,40664 34222,40667 34222,40669 34221,40672 34221,40674 34221,40676 34220,40679 34220,40681 34220,40684 34220,40686 34341,40686 34342,40684 34342,40683 34343,40682 34343,40680 34344,40679 34344,40677 34345,40676 34346,40675 34347,40674 34347,40672 34348,40671 34349,40670 34350,40669 34351,40668 34353,40667 34354,40666 34299,40559 Z"/>
    <path fill="none" stroke="rgb(0,0,0)" d="M 34290,40542 L 34288,40543 34285,40545 34283,40546 34281,40548 34278,40549 34276,40551 34273,40552 34271,40554 34269,40556 34266,40557 34264,40559 34262,40561 34260,40563 34258,40565 34256,40566 34254,40568 34252,40570 34250,40572 34248,40574 34246,40576 34245,40578 34243,40581 34241,40583 34239,40585 34238,40587 34236,40589 34234,40591 34233,40593 34231,40596 34230,40598 34228,40600 34227,40603 34225,40605 34224,40607 34223,40610 34221,40612 34220,40615 34219,40617 34218,40620 34216,40622 34215,40625 34214,40627 34213,40630 34212,40632 34211,40635 34210,40637 34210,40640 34209,40643 34208,40645 34207,40648 34207,40651 34206,40653 34205,40656 34205,40659 34204,40661 34204,40664 34203,40667 34203,40670 34202,40672 34202,40675 34202,40678 34202,40681 34202,40683 34201,40686 34190,40686 34191,40683 34191,40680 34191,40677 34191,40674 34192,40671 34192,40668 34192,40666 34193,40663 34193,40660 34194,40657 34195,40654 34195,40651 34196,40648 34197,40645 34197,40643 34198,40640 34199,40637 34200,40634 34201,40631 34202,40629 34203,40626 34204,40623 34205,40621 34206,40618 34208,40615 34209,40612 34210,40610 34212,40607 34213,40605 34214,40602 34216,40600 34217,40597 34219,40595 34221,40592 34222,40590 34224,40587 34225,40585 34227,40583 34229,40580 34231,40578 34233,40575 34235,40573 34237,40571 34238,40569 34240,40567 34243,40565 34245,40562 34247,40560 34249,40558 34251,40556 34253,40554 34255,40553 34258,40551 34260,40549 34262,40547 34264,40545 34267,40543 34269,40542 34272,40540 34274,40538 34278,40537 34280,40535 34283,40534 34285,40532 34290,40542 Z"/>
    <path fill="none" stroke="rgb(0,0,0)" d="M 34282,40526 L 34279,40528 34277,40530 34273,40531 34271,40533 34268,40535 34266,40536 34263,40538 34261,40540 34258,40542 34256,40544 34254,40545 34251,40547 34249,40549 34247,40552 34244,40553 34242,40556 34240,40558 34238,40560 34236,40562 34234,40564 34232,40567 34230,40569 34228,40571 34226,40574 34224,40576 34222,40579 34220,40581 34218,40583 34217,40586 34215,40588 34213,40591 34212,40594 34210,40596 34209,40599 34207,40602 34206,40604 34204,40607 34203,40610 34202,40612 34200,40615 34199,40618 34198,40621 34197,40624 34196,40626 34195,40629 34194,40632 34193,40635 34192,40638 34191,40641 34190,40644 34189,40647 34189,40650 34188,40653 34188,40656 34187,40659 34186,40662 34186,40665 34186,40668 34185,40671 34185,40674 34184,40677 34184,40680 34184,40683 34184,40686 34177,40686 34176,40685 34176,40683 34176,40682 34176,40681 34175,40679 34175,40678 34174,40677 34174,40675 34173,40674 34173,40673 34172,40672 34172,40670 34171,40669 34171,40668 34170,40667 34169,40666 34168,40664 34168,40663 34167,40662 34166,40661 34165,40660 34164,40659 34163,40658 34162,40657 34161,40656 34160,40655 34159,40654 34158,40653 34157,40653 34156,40652 34155,40651 34154,40650 34246,40457 34282,40526 Z"/>
    <path fill="none" stroke="rgb(0,0,0)" d="M 33994,40680 L 33983,40680 33983,40677 33982,40674 33982,40671 33981,40668 33981,40665 33981,40662 33980,40659 33979,40657 33979,40654 33978,40651 33977,40648 33976,40645 33976,40642 33975,40639 33974,40637 33973,40634 33972,40631 33971,40628 33970,40626 33968,40623 33967,40620 33966,40617 33965,40615 33963,40612 33962,40610 33960,40607 33959,40605 33957,40602 33956,40599 33954,40597 33953,40594 33951,40592 33949,40590 33947,40587 33946,40585 33944,40583 33942,40580 33940,40578 33938,40576 33936,40574 33934,40572 33932,40570 33930,40568 33927,40565 33925,40563 33923,40562 33921,40560 33918,40558 33916,40556 33914,40554 33911,40552 33909,40551 33907,40549 33904,40547 33902,40546 33899,40544 33897,40543 33894,40541 33891,40540 33889,40538 33886,40537 33884,40536 33881,40535 33878,40533 33881,40523 33884,40524 33887,40525 33890,40527 33892,40528 33895,40530 33898,40531 33901,40533 33904,40534 33906,40536 33909,40537 33912,40539 33914,40541 33917,40543 33919,40545 33922,40547 33924,40548 33927,40551 33929,40553 33932,40555 33934,40557 33936,40559 33939,40561 33941,40563 33943,40566 33945,40568 33947,40570 33949,40573 33952,40575 33954,40578 33956,40580 33957,40583 33959,40585 33961,40588 33963,40590 33965,40593 33966,40596 33968,40599 33970,40601 33971,40604 33973,40607 33974,40610 33976,40612 33977,40615 33978,40618 33980,40621 33981,40624 33982,40627 33983,40630 33984,40633 33985,40636 33986,40639 33987,40642 33988,40645 33989,40648 33989,40651 33990,40654 33991,40657 33991,40661 33992,40664 33992,40667 33993,40670 33993,40673 33994,40676 33994,40680 Z"/>
    <path fill="none" stroke="rgb(0,0,0)" d="M 33818,40671 L 33817,40671 33816,40671 33815,40670 33814,40670 33813,40670 33812,40670 33811,40670 33810,40670 33809,40670 33808,40670 33807,40670 33806,40670 33805,40670 33804,40670 33803,40670 33802,40671 33801,40671 33800,40672 33799,40672 33798,40672 33797,40673 33796,40673 33796,40674 33795,40674 33794,40675 33793,40676 33792,40677 33791,40678 33790,40679 33789,40680 33789,40681 33788,40682 33788,40683 33787,40683 33787,40684 33787,40685 33787,40686 33786,40687 33786,40688 33786,40689 33786,40690 33785,40691 33785,40692 33785,40693 33785,40694 33785,40695 33785,40696 33786,40697 33786,40698 33786,40699 33786,40700 33786,40701 33787,40702 33787,40703 33788,40704 33788,40705 33788,40706 33789,40706 33789,40707 33790,40708 33791,40709 33792,40710 33792,40711 33793,40711 33794,40712 33795,40713 33796,40713 33796,40714 33797,40715 33798,40715 33799,40715 33800,40716 33801,40716 33802,40717 33803,40717 33804,40717 33805,40717 33806,40717 33807,40717 33807,40718 33808,40718 33809,40718 33810,40718 33811,40718 33812,40717 33813,40717 33814,40717 33815,40717 33816,40717 33817,40716 33818,40716 33819,40716 33820,40715 33821,40715 33821,40714 33822,40714 33823,40713 33824,40713 33824,40712 33825,40712 33826,40711 33826,40710 33827,40710 33827,40709 33828,40708 33829,40708 33829,40707 33830,40706 33830,40705 33831,40704 33831,40703 33832,40702 33832,40701 33832,40700 33966,40696 33966,40699 33966,40702 33965,40705 33965,40708 33965,40711 33965,40714 33964,40717 33964,40720 33963,40723 33962,40726 33962,40729 33961,40732 33960,40735 33960,40738 33959,40741 33958,40744 33957,40747 33956,40751 33954,40754 33953,40757 33952,40760 33951,40762 33949,40765 33948,40768 33946,40771 33945,40773 33943,40776 33942,40778 33940,40781 33938,40784 33937,40786 33935,40789 33933,40791 33931,40794 33929,40796 33927,40798 33925,40801 33923,40803 33921,40805 33919,40807 33916,40809 33914,40811 33912,40813 33909,40815 33907,40817 33905,40819 33902,40821 33900,40823 33897,40825 33895,40826 33892,40828 33889,40830 33887,40831 33884,40833 33881,40834 33878,40836 33876,40837 33873,40838 33870,40839 33867,40841 33864,40842 33861,40843 33859,40844 33856,40845 33853,40846 33850,40846 33847,40847 33844,40848 33841,40849 33838,40849 33835,40850 33832,40850 33829,40851 33826,40851 33822,40851 33819,40851 33816,40852 33813,40852 33810,40852 33807,40852 33804,40852 33801,40852 33798,40851 33795,40851 33792,40851 33789,40850 33786,40850 33783,40849 33780,40849 33777,40848 33774,40848 33771,40847 33768,40846 33765,40845 33762,40844 33759,40843 33756,40842 33753,40841 33750,40840 33747,40839 33745,40838 33742,40837 33739,40835 33736,40834 33733,40832 33731,40831 33728,40829 33726,40827 33723,40826 33720,40824 33718,40822 33715,40821 33713,40819 33711,40817 33708,40815 33706,40813 33704,40811 33701,40809 33699,40807 33697,40804 33695,40802 33693,40800 33691,40798 33689,40795 33687,40793 33685,40790 33683,40788 33681,40785 33679,40783 33678,40780 33676,40778 33674,40775 33673,40772 33671,40770 33670,40767 33669,40764 33667,40761 33666,40759 33665,40756 33664,40753 33662,40750 33661,40746 33660,40743 33659,40740 33659,40737 33658,40734 33657,40731 33656,40728 33656,40725 33655,40722 33654,40719 33654,40716 33654,40713 33653,40710 33653,40707 33653,40704 33653,40701 33653,40698 33652,40695 33652,40692 33653,40689 33653,40686 33653,40683 33653,40679 33653,40676 33654,40673 33654,40670 33655,40667 33655,40664 33656,40661 33656,40658 33657,40655 33658,40652 33659,40649 33660,40646 33661,40643 33662,40640 33663,40637 33664,40635 33665,40632 33666,40629 33668,40626 33669,40623 33670,40621 33672,40618 33673,40615 33675,40613 33677,40610 33678,40607 33680,40605 33682,40602 33683,40600 33685,40597 33687,40595 33689,40593 33691,40590 33693,40588 33695,40586 33697,40583 33700,40581 33702,40579 33704,40577 33706,40575 33709,40573 33711,40571 33714,40569 33716,40567 33719,40565 33721,40564 33724,40562 33726,40560 33729,40559 33732,40557 33734,40556 33737,40554 33740,40553 33742,40552 33745,40550 33748,40549 33751,40548 33754,40547 33757,40546 33760,40545 33763,40544 33765,40543 33768,40542 33771,40541 33774,40541 33777,40540 33780,40539 33783,40539 33786,40538 33789,40538 33793,40537 33796,40537 33799,40537 33802,40537 33805,40537 33808,40537 33811,40537 33814,40537 33817,40537 33820,40537 33823,40537 33826,40537 33829,40538 33832,40538 33835,40539 33839,40539 33842,40540 33845,40541 33848,40541 33851,40542 33853,40543 33856,40544 33859,40545 33838,40628 33837,40631 33837,40634 33836,40637 33835,40640 33834,40643 33833,40645 33832,40648 33831,40651 33829,40654 33828,40656 33827,40659 33825,40662 33823,40664 33822,40667 33820,40669 33818,40671 Z"/>
    <path fill="none" stroke="rgb(0,0,0)" d="M 33830,40681 L 33830,40682 33831,40683 33831,40684 33832,40685 33965,40681 33965,40678 33965,40675 33965,40673 33964,40670 33964,40668 33963,40665 33963,40663 33962,40660 33962,40657 33961,40655 33960,40652 33960,40650 33959,40647 33958,40645 33957,40642 33956,40640 33956,40637 33955,40635 33954,40633 33953,40630 33951,40628 33950,40625 33949,40623 33948,40621 33947,40619 33946,40616 33944,40614 33943,40612 33942,40610 33940,40607 33939,40605 33937,40603 33936,40601 33934,40599 33933,40597 33931,40595 33929,40593 33928,40591 33926,40589 33924,40587 33922,40585 33921,40583 33919,40581 33917,40579 33915,40578 33913,40576 33911,40574 33909,40572 33907,40571 33905,40569 33903,40568 33901,40566 33899,40565 33896,40563 33894,40562 33892,40560 33890,40559 33888,40558 33885,40556 33883,40555 33881,40554 33878,40553 33876,40552 33874,40550 33853,40631 33852,40634 33851,40638 33850,40641 33850,40645 33848,40648 33847,40651 33846,40654 33844,40658 33843,40661 33841,40664 33840,40667 33838,40670 33836,40673 33834,40676 33832,40679 33830,40681 Z"/>
    <path fill="none" stroke="rgb(0,0,0)" d="M 34514,40620 L 34515,40622 34516,40624 34517,40626 34517,40628 34518,40630 34519,40632 34520,40634 34521,40636 34522,40638 34523,40640 34523,40642 34524,40644 34525,40646 34525,40648 34526,40650 34526,40652 34527,40654 34528,40657 34528,40659 34529,40661 34529,40663 34529,40665 34530,40667 34530,40669 34530,40672 34531,40674 34531,40676 34531,40678 34532,40680 34532,40682 34532,40685 34532,40687 34532,40689 34532,40691 34532,40693 34532,40695 34532,40698 34532,40700 34532,40702 34532,40704 34532,40706 34531,40709 34531,40711 34531,40713 34531,40715 34530,40717 34530,40719 34530,40722 34529,40724 34529,40726 34528,40728 34528,40730 34527,40732 34527,40734 34526,40736 34525,40739 34525,40741 34524,40743 34523,40745 34523,40747 34522,40750 34521,40752 34520,40754 34519,40756 34519,40758 34518,40760 34517,40762 34516,40764 34515,40766 34514,40768 34513,40770 34512,40772 34511,40774 34510,40775 34509,40777 34507,40779 34506,40781 34505,40783 34504,40785 34502,40786 34501,40788 34500,40790 34498,40792 34497,40793 34496,40795 34494,40797 34493,40798 34491,40800 34490,40802 34488,40803 34487,40805 34485,40806 34484,40808 34482,40809 34480,40811 34479,40812 34477,40813 34476,40815 34474,40816 34472,40818 34470,40819 34469,40820 34467,40822 34465,40823 34463,40824 34462,40825 34460,40826 34458,40828 34456,40829 34454,40830 34452,40831 34450,40832 34448,40833 34447,40834 34444,40835 34443,40836 34441,40837 34439,40838 34437,40839 34434,40839 34432,40840 34431,40841 34428,40842 34426,40842 34424,40843 34422,40844 34420,40844 34418,40845 34416,40845 34414,40846 34412,40847 34409,40847 34407,40847 34405,40848 34403,40848 34401,40849 34399,40849 34397,40849 34395,40850 34392,40850 34390,40850 34388,40850 34386,40850 34384,40851 34381,40851 34379,40851 34377,40851 34375,40851 34373,40851 34371,40851 34368,40851 34366,40850 34364,40850 34362,40850 34360,40850 34358,40849 34355,40849 34353,40849 34351,40849 34349,40848 34347,40848 34345,40847 34342,40847 34340,40846 34338,40846 34336,40845 34334,40845 34332,40844 34330,40843 34328,40843 34326,40842 34324,40841 34322,40841 34320,40840 34318,40839 34316,40838 34313,40837 34311,40837 34310,40836 34307,40835 34306,40834 34304,40833 34302,40832 34300,40831 34298,40829 34296,40828 34294,40827 34292,40826 34291,40825 34289,40824 34287,40822 34285,40821 34283,40820 34282,40818 34280,40817 34278,40816 34277,40814 34274,40813 34272,40812 34271,40810 34269,40809 34268,40807 34266,40806 34264,40804 34263,40802 34261,40801 34260,40799 34258,40798 34257,40796 34256,40794 34254,40793 34253,40791 34251,40789 34250,40787 34249,40786 34248,40784 34246,40782 34245,40780 34244,40778 34243,40777 34242,40775 34241,40773 34240,40771 34239,40769 34238,40767 34236,40765 34236,40763 34235,40761 34234,40759 34233,40757 34232,40755 34231,40753 34230,40751 34230,40749 34229,40746 34228,40744 34227,40742 34227,40740 34226,40738 34225,40736 34225,40734 34224,40731 34224,40729 34223,40727 34223,40725 34222,40723 34222,40721 34222,40719 34221,40717 34221,40714 34221,40712 34221,40710 34220,40708 34220,40706 34220,40703 34220,40701 34341,40701 34342,40703 34342,40705 34343,40707 34343,40708 34344,40710 34345,40712 34346,40713 34347,40715 34348,40716 34349,40717 34351,40719 34352,40720 34353,40721 34355,40722 34356,40723 34358,40724 34359,40725 34361,40726 34363,40727 34364,40728 34366,40728 34368,40729 34370,40729 34372,40729 34373,40730 34375,40730 34377,40730 34379,40730 34381,40729 34383,40729 34384,40729 34386,40728 34388,40728 34390,40727 34391,40726 34393,40726 34394,40725 34396,40724 34397,40723 34399,40722 34400,40721 34402,40719 34403,40718 34404,40717 34405,40715 34406,40714 34407,40712 34408,40710 34409,40709 34410,40707 34410,40705 34411,40704 34411,40702 34412,40700 34412,40698 34412,40697 34412,40695 34412,40693 34412,40691 34412,40689 34412,40687 34411,40686 34411,40684 34410,40682 34514,40620 Z"/>
    <path fill="none" stroke="rgb(0,0,0)" d="M 34312,40552 L 34315,40550 34318,40549 34322,40548 34325,40546 34328,40545 34331,40544 34335,40543 34338,40543 34341,40542 34345,40541 34348,40540 34351,40540 34355,40539 34358,40539 34361,40538 34365,40538 34368,40538 34372,40538 34375,40538 34379,40538 34382,40538 34385,40538 34389,40538 34392,40539 34396,40539 34399,40539 34402,40540 34406,40541 34409,40541 34412,40542 34416,40543 34419,40544 34422,40545 34426,40546 34429,40547 34432,40548 34435,40549 34438,40551 34441,40552 34444,40553 34448,40555 34451,40557 34454,40558 34457,40560 34459,40562 34462,40564 34465,40566 34468,40568 34471,40570 34473,40572 34476,40574 34479,40576 34481,40578 34484,40581 34486,40583 34489,40586 34491,40588 34493,40591 34495,40593 34498,40596 34500,40599 34502,40601 34504,40604 34506,40607 34403,40669 34402,40668 34401,40667 34400,40666 34399,40666 34398,40665 34397,40664 34396,40664 34395,40663 34394,40662 34393,40662 34392,40661 34391,40661 34390,40660 34389,40660 34387,40659 34386,40659 34385,40659 34384,40658 34383,40658 34381,40658 34380,40658 34379,40658 34378,40658 34377,40658 34376,40658 34374,40658 34373,40658 34372,40658 34371,40658 34370,40658 34368,40659 34367,40659 34312,40552 Z"/>
    <path fill="none" stroke="rgb(0,0,0)" d="M 34531,40592 L 34522,40597 34519,40594 34517,40591 34515,40588 34513,40585 34510,40582 34508,40579 34505,40576 34502,40573 34500,40570 34497,40568 34494,40565 34491,40562 34488,40560 34485,40557 34482,40555 34479,40553 34476,40551 34473,40548 34470,40546 34466,40544 34463,40542 34460,40540 34456,40539 34453,40537 34449,40535 34446,40534 34442,40532 34439,40531 34435,40529 34431,40528 34428,40527 34424,40526 34420,40525 34417,40524 34413,40523 34409,40522 34405,40522 34402,40521 34398,40520 34394,40520 34390,40520 34386,40519 34382,40519 34379,40519 34375,40519 34371,40519 34367,40519 34363,40520 34359,40520 34355,40520 34352,40521 34348,40521 34344,40522 34340,40523 34336,40524 34333,40525 34329,40526 34325,40527 34322,40528 34318,40529 34314,40531 34311,40532 34307,40533 34304,40535 34299,40525 34302,40524 34306,40522 34310,40521 34314,40519 34318,40518 34322,40517 34326,40515 34330,40514 34334,40513 34338,40512 34342,40512 34346,40511 34350,40510 34354,40510 34358,40509 34362,40509 34366,40508 34370,40508 34374,40508 34378,40508 34383,40508 34387,40508 34391,40509 34395,40509 34399,40510 34403,40510 34407,40511 34411,40512 34415,40512 34419,40513 34423,40514 34427,40515 34431,40516 34435,40518 34439,40519 34443,40521 34447,40522 34450,40524 34454,40525 34458,40527 34461,40529 34465,40531 34469,40533 34472,40535 34476,40537 34479,40539 34483,40542 34486,40544 34489,40547 34492,40549 34496,40552 34499,40554 34502,40557 34505,40560 34508,40563 34511,40566 34513,40569 34516,40572 34519,40575 34521,40578 34524,40582 34526,40585 34529,40588 34531,40592 Z"/>
    <path fill="none" stroke="rgb(0,0,0)" d="M 33994,40695 L 33994,40698 33994,40701 33994,40704 33994,40707 33994,40710 33993,40713 33993,40716 33992,40720 33999,40721 33999,40717 34000,40713 34000,40709 34001,40705 34001,40701 34001,40697 34001,40693 34001,40689 34001,40685 34000,40681 34000,40677 34000,40673 33999,40669 33999,40665 33998,40661 33997,40657 33997,40654 33996,40650 33995,40646 33994,40642 33993,40638 33992,40635 33990,40631 33989,40627 33987,40623 33986,40620 33985,40616 33983,40612 33981,40609 33979,40605 33978,40602 33976,40598 33974,40595 33972,40592 33969,40588 33967,40585 33965,40582 33963,40579 33960,40575 33958,40572 33955,40569 33953,40566 33950,40563 33947,40561 33944,40558 33942,40555 33939,40552 33936,40550 33933,40547 33930,40545 33927,40542 33924,40540 33920,40537 33917,40535 33914,40533 33911,40531 33907,40529 33904,40527 33900,40525 33897,40523 33893,40521 33890,40519 33886,40518 33883,40516 33890,40489 34082,40664 34081,40666 34080,40667 34079,40669 34078,40670 34078,40672 34077,40673 34076,40675 34076,40676 34075,40678 34075,40679 34074,40681 34074,40683 34074,40684 34073,40686 34073,40688 34073,40689 34073,40691 34073,40693 34073,40694 34073,40696 34073,40698 34073,40699 34073,40701 34073,40703 34074,40704 34074,40706 34075,40708 34075,40709 34075,40711 34076,40712 34077,40714 34077,40715 34078,40717 34079,40718 34080,40720 34081,40721 34081,40723 34082,40724 34083,40725 34084,40727 34085,40728 34086,40729 34088,40730 34089,40731 34090,40733 34091,40734 34093,40735 34094,40736 34095,40737 34097,40738 34098,40739 34100,40739 34101,40740 34102,40741 34104,40742 34106,40742 34107,40743 34109,40743 34110,40744 34112,40744 34113,40745 34115,40745 34117,40745 34118,40746 34118,40794 34104,40794 34104,40809 34146,40809 34146,40794 34131,40794 34131,40746 34134,40745 34136,40745 34138,40744 34140,40744 34142,40743 34144,40743 34146,40742 34148,40741 34150,40740 34151,40739 34153,40738 34155,40737 34157,40735 34158,40734 34160,40733 34161,40731 34163,40730 34164,40728 34166,40726 34167,40725 34168,40723 34169,40721 34170,40719 34172,40717 34172,40715 34173,40713 34174,40712 34175,40710 34175,40708 34176,40705 34176,40703 34177,40701 34184,40701 34184,40705 34184,40708 34185,40711 34185,40715 34185,40718 34186,40721 34186,40724 34187,40728 34193,40726 34193,40723 34192,40720 34192,40717 34191,40714 34191,40711 34191,40708 34191,40704 34190,40701 34201,40701 34202,40704 34202,40706 34202,40709 34202,40711 34202,40713 34203,40716 34203,40718 34203,40721 34204,40723 34204,40726 34205,40728 34205,40730 34206,40733 34206,40735 34207,40738 34208,40740 34208,40742 34209,40745 34209,40747 34210,40750 34211,40753 34212,40755 34213,40757 34214,40760 34215,40762 34216,40764 34216,40766 34218,40769 34219,40771 34220,40773 34221,40775 34222,40777 34223,40779 34224,40782 34226,40784 34227,40786 34228,40788 34229,40790 34231,40792 34232,40794 34234,40796 34235,40798 34236,40800 34238,40802 34239,40804 34241,40806 34243,40808 34244,40809 34246,40811 34247,40813 34249,40815 34251,40817 34253,40818 34254,40820 34256,40822 34258,40823 34260,40825 34262,40827 34263,40828 34265,40830 34267,40831 34269,40833 34271,40834 34273,40836 34276,40837 34278,40839 34280,40840 34282,40841 34284,40843 34286,40844 34288,40845 34290,40847 34293,40848 34295,40849 34297,40850 34299,40851 34301,40852 34304,40853 34306,40854 34308,40855 34310,40856 34313,40857 34315,40858 34317,40859 34319,40860 34322,40860 34324,40861 34326,40862 34329,40863 34331,40863 34333,40864 34336,40864 34338,40865 34341,40866 34343,40866 34345,40866 34348,40867 34350,40867 34353,40868 34355,40868 34358,40868 34360,40868 34362,40869 34365,40869 34367,40869 34370,40869 34372,40869 34375,40869 34377,40869 34379,40869 34382,40869 34384,40869 34387,40869 34389,40869 34392,40869 34394,40868 34396,40868 34399,40868 34401,40867 34404,40867 34406,40867 34409,40866 34411,40866 34413,40865 34416,40865 34418,40864 34421,40863 34423,40863 34425,40862 34428,40862 34430,40861 34432,40860 34435,40859 34437,40858 34439,40857 34441,40857 34444,40856 34446,40855 34448,40854 34450,40853 34453,40852 34455,40851 34457,40849 34459,40848 34461,40847 34463,40846 34466,40845 34468,40843 34470,40842 34472,40841 34474,40839 34476,40838 34478,40837 34480,40835 34482,40834 34484,40832 34486,40831 34487,40829 34489,40827 34491,40826 34493,40824 34495,40823 34497,40821 34498,40819 34500,40818 34502,40816 34504,40814 34505,40812 34507,40810 34509,40809 34510,40807 34512,40805 34513,40803 34515,40801 34516,40799 34517,40797 34519,40795 34520,40793 34522,40791 34523,40789 34524,40787 34526,40785 34527,40783 34528,40780 34529,40778 34530,40776 34532,40774 34533,40772 34534,40770 34535,40767 34536,40765 34537,40763 34538,40761 34539,40758 34540,40756 34540,40754 34541,40751 34542,40749 34543,40746 34543,40743 34544,40741 34545,40739 34545,40736 34546,40734 34546,40731 34547,40729 34547,40727 34548,40724 34548,40722 34549,40719 34549,40717 34549,40715 34550,40712 34550,40710 34550,40707 34550,40705 34550,40703 34550,40700 34551,40697 34551,40695 34551,40693 34551,40690 34550,40688 34550,40685 34550,40683 34550,40680 34550,40678 34550,40675 34549,40673 34549,40671 34549,40668 34548,40666 34548,40663 34547,40661 34547,40659 34546,40656 34546,40654 34545,40651 34545,40649 34544,40647 34543,40644 34543,40642 34542,40640 34541,40637 34541,40635 34540,40633 34539,40630 34538,40628 34537,40626 34536,40624 34535,40621 34534,40619 34533,40617 34532,40615 34531,40613 34530,40610 34539,40605 34540,40608 34542,40611 34543,40614 34545,40617 34551,40614 34549,40610 34547,40606 34544,40602 34542,40597 34540,40593 34537,40589 34535,40585 34532,40581 34529,40578 34526,40574 34523,40570 34520,40567 34517,40563 34514,40560 34510,40556 34507,40553 34504,40550 34500,40547 34496,40544 34493,40541 34489,40538 34485,40535 34481,40533 34477,40530 34473,40528 34469,40525 34465,40523 34460,40521 34456,40519 34452,40517 34447,40515 34443,40514 34439,40512 34434,40511 34429,40509 34425,40508 34420,40507 34416,40506 34411,40505 34406,40504 34402,40503 34397,40503 34392,40502 34388,40502 34383,40502 34378,40502 34373,40502 34369,40502 34364,40502 34359,40502 34355,40503 34350,40504 34345,40504 34341,40505 34336,40506 34331,40507 34327,40508 34322,40510 34318,40511 34313,40512 34309,40514 34304,40516 34300,40518 34296,40519 34254,40440 34263,40420 34264,40419 34265,40418 34266,40418 34266,40417 34267,40417 34268,40417 34269,40417 34270,40416 34271,40416 34272,40415 34274,40415 34274,40414 34277,40414 34278,40413 34278,40412 34279,40412 34279,40411 34280,40411 34280,40410 34281,40409 34281,40408 34281,40407 34281,40406 34281,40405 34281,40404 34281,40403 34281,40402 34280,40402 34280,40401 34279,40400 34279,40399 34278,40399 34277,40398 34276,40397 34274,40397 34273,40396 34272,40396 34271,40396 34266,40396 34261,40395 34256,40395 34251,40394 34246,40394 34241,40394 34236,40394 34231,40394 34226,40394 34221,40394 34216,40394 34211,40395 34206,40395 34201,40396 34196,40397 34191,40397 34190,40398 34189,40398 34188,40399 34187,40400 34186,40401 34186,40402 34185,40403 34185,40404 34185,40405 34185,40406 34185,40407 34185,40408 34186,40409 34186,40410 34187,40411 34188,40412 34189,40413 34190,40413 34191,40414 34192,40414 34236,40416 34237,40416 34238,40416 34239,40416 34240,40416 34241,40417 34242,40417 34242,40418 34243,40419 34243,40420 34244,40420 34244,40421 34244,40422 34244,40423 34244,40424 34244,40425 34244,40426 34243,40426 34238,40438 33903,40438 33912,40402 33915,40403 33917,40403 33920,40403 33922,40403 33925,40403 33927,40402 33930,40402 33932,40402 33935,40402 33937,40401 33939,40401 33942,40400 33944,40400 33947,40399 33949,40399 33952,40398 33953,40398 33955,40397 33956,40397 33958,40397 33960,40397 33961,40397 33963,40397 33965,40397 33966,40397 33968,40397 33969,40397 33971,40397 33973,40397 33974,40397 33976,40398 33978,40398 33979,40398 33980,40397 33981,40397 33982,40396 33983,40396 33983,40395 33983,40394 33984,40394 33984,40393 33985,40392 33985,40391 33985,40390 33985,40389 33985,40388 33985,40387 33985,40386 33984,40386 33984,40385 33983,40384 33983,40383 33982,40383 33982,40382 33980,40382 33979,40381 33978,40381 33976,40380 33975,40380 33973,40380 33972,40380 33970,40379 33969,40379 33967,40379 33966,40379 33965,40379 33963,40379 33962,40379 33960,40380 33959,40380 33955,40381 33952,40381 33948,40382 33945,40382 33941,40383 33937,40383 33934,40383 33930,40383 33927,40384 33923,40384 33919,40384 33916,40384 33912,40383 33909,40383 33905,40383 33902,40383 33868,40511 33865,40510 33862,40509 33858,40508 33855,40507 33851,40506 33848,40506 33845,40505 33841,40504 33838,40504 33834,40503 33831,40503 33827,40503 33824,40502 33820,40502 33817,40502 33814,40502 33810,40502 33807,40502 33803,40502 33800,40502 33796,40502 33793,40502 33789,40503 33786,40503 33782,40504 33779,40504 33775,40505 33772,40505 33769,40506 33765,40507 33762,40508 33758,40508 33760,40515 33763,40514 33767,40513 33770,40512 33773,40512 33777,40511 33780,40511 33783,40510 33787,40510 33790,40509 33793,40509 33797,40509 33800,40508 33803,40508 33807,40508 33810,40508 33814,40508 33817,40508 33820,40509 33824,40509 33827,40509 33830,40509 33834,40510 33837,40510 33840,40511 33844,40512 33847,40512 33850,40513 33853,40514 33857,40514 33860,40515 33863,40516 33867,40517 33864,40528 33861,40527 33857,40526 33854,40525 33851,40524 33847,40523 33844,40523 33841,40522 33837,40521 33834,40521 33830,40520 33827,40520 33824,40520 33820,40519 33817,40519 33813,40519 33810,40519 33807,40519 33803,40519 33800,40519 33796,40520 33793,40520 33789,40520 33786,40521 33783,40521 33779,40522 33776,40522 33773,40523 33769,40524 33766,40524 33763,40525 33759,40526 33756,40527 33753,40528 33750,40530 33747,40531 33743,40532 33740,40533 33737,40535 33734,40536 33731,40538 33728,40539 33725,40541 33722,40543 33719,40544 33716,40546 33713,40548 33710,40550 33708,40552 33705,40554 33702,40556 33699,40558 33697,40560 33694,40562 33692,40565 33689,40567 33687,40570 33684,40572 33682,40574 33680,40577 33677,40580 33675,40582 33673,40585 33671,40588 33669,40590 33667,40593 33665,40596 33663,40599 33661,40602 33659,40605 33658,40608 33656,40610 33654,40614 33653,40617 33651,40620 33650,40623 33649,40626 33647,40629 33646,40632 33645,40636 33644,40639 33643,40642 33642,40645 33641,40649 33640,40652 33639,40655 33638,40659 33638,40662 33637,40665 33637,40669 33636,40672 33636,40675 33636,40679 33635,40682 33635,40686 33635,40689 33635,40693 33635,40696 33635,40699 33635,40703 33635,40706 33636,40710 33636,40713 33636,40717 33637,40720 33637,40723 33638,40727 33639,40730 33640,40733 33640,40737 33641,40740 33642,40743 33643,40746 33644,40751 33645,40754 33647,40757 33648,40760 33649,40764 33650,40767 33652,40770 33653,40773 33655,40776 33657,40779 33658,40782 33660,40785 33662,40788 33664,40791 33666,40793 33668,40796 33670,40799 33672,40802 33674,40804 33676,40807 33678,40810 33680,40812 33683,40815 33685,40817 33688,40820 33690,40822 33693,40824 33695,40827 33698,40829 33700,40831 33703,40833 33706,40835 33709,40837 33711,40839 33714,40841 33717,40843 33720,40845 33723,40846 33726,40848 33729,40850 33732,40851 33735,40853 33738,40854 33741,40855 33745,40857 33748,40858 33751,40859 33754,40860 33757,40861 33761,40862 33764,40863 33767,40864 33771,40865 33774,40866 33777,40866 33781,40867 33784,40867 33787,40868 33791,40868 33794,40869 33798,40869 33801,40869 33804,40869 33808,40869 33811,40869 33815,40869 33818,40869 33821,40869 33825,40869 33828,40868 33832,40868 33835,40867 33838,40867 33842,40866 33845,40866 33848,40865 33852,40864 33855,40863 33858,40862 33862,40861 33865,40860 33868,40859 33871,40858 33875,40856 33878,40855 33881,40854 33884,40852 33887,40851 33890,40849 33893,40848 33896,40846 33899,40844 33902,40842 33905,40841 33908,40839 33910,40837 33913,40835 33916,40833 33919,40831 33921,40828 33924,40826 33926,40824 33929,40822 33931,40819 33934,40817 33936,40814 33938,40812 33941,40809 33943,40807 33945,40804 33947,40801 33949,40798 33951,40796 33953,40793 33955,40790 33957,40787 33959,40784 33960,40781 33962,40778 33964,40775 33965,40772 33967,40769 33968,40766 33970,40763 33971,40760 33972,40756 33973,40753 33974,40750 33975,40746 33976,40743 33977,40739 33978,40736 33979,40733 33980,40729 33980,40726 33981,40722 33981,40719 33982,40716 33982,40712 33983,40709 33983,40705 33983,40702 33983,40699 33983,40695 33994,40695 Z"/>
   </g>
  </g>
 </g>
</svg>