<?xml version="1.0" encoding="UTF-8"?>
<!DOCTYPE svg PUBLIC "-//W3C//DTD SVG 1.1//EN" "http://www.w3.org/Graphics/SVG/1.1/DTD/svg11.dtd">
<svg version="1.2" width="53.91mm" height="9.03mm" viewBox="35499 39999 5391 903" preserveAspectRatio="xMidYMid" fill-rule="evenodd" stroke-width="28.222" stroke-linejoin="round" xmlns="http://www.w3.org/2000/svg" xmlns:ooo="http://xml.openoffice.org/svg/export" xmlns:xlink="http://www.w3.org/1999/xlink" xmlns:presentation="http://sun.com/xmlns/staroffice/presentation" xmlns:smil="http://www.w3.org/2001/SMIL20/" xmlns:anim="urn:oasis:names:tc:opendocument:xmlns:animation:1.0" xml:space="preserve">
 <defs class="EmbeddedBulletChars">
  <g id="bullet-char-template-57356" transform="scale(0.00048828125,-0.00048828125)">
   <path d="M 580,1141 L 1163,571 580,0 -4,571 580,1141 Z"/>
  </g>
  <g id="bullet-char-template-57354" transform="scale(0.00048828125,-0.00048828125)">
   <path d="M 8,1128 L 1137,1128 1137,0 8,0 8,1128 Z"/>
  </g>
  <g id="bullet-char-template-10146" transform="scale(0.00048828125,-0.00048828125)">
   <path d="M 174,0 L 602,739 174,1481 1456,739 174,0 Z M 1358,739 L 309,1346 659,739 1358,739 Z"/>
  </g>
  <g id="bullet-char-template-10132" transform="scale(0.00048828125,-0.00048828125)">
   <path d="M 2015,739 L 1276,0 717,0 1260,543 174,543 174,936 1260,936 717,1481 1274,1481 2015,739 Z"/>
  </g>
  <g id="bullet-char-template-10007" transform="scale(0.00048828125,-0.00048828125)">
   <path d="M 0,-2 C -7,14 -16,27 -25,37 L 356,567 C 262,823 215,952 215,954 215,979 228,992 255,992 264,992 276,990 289,987 310,991 331,999 354,1012 L 381,999 492,748 772,1049 836,1024 860,1049 C 881,1039 901,1025 922,1006 886,937 835,863 770,784 769,783 710,716 594,584 L 774,223 C 774,196 753,168 711,139 L 727,119 C 717,90 699,76 672,76 641,76 570,178 457,381 L 164,-76 C 142,-110 111,-127 72,-127 30,-127 9,-110 8,-76 1,-67 -2,-52 -2,-32 -2,-23 -1,-13 0,-2 Z"/>
  </g>
  <g id="bullet-char-template-10004" transform="scale(0.00048828125,-0.00048828125)">
   <path d="M 285,-33 C 182,-33 111,30 74,156 52,228 41,333 41,471 41,549 55,616 82,672 116,743 169,778 240,778 293,778 328,747 346,684 L 369,508 C 377,444 397,411 428,410 L 1163,1116 C 1174,1127 1196,1133 1229,1133 1271,1133 1292,1118 1292,1087 L 1292,965 C 1292,929 1282,901 1262,881 L 442,47 C 390,-6 338,-33 285,-33 Z"/>
  </g>
  <g id="bullet-char-template-9679" transform="scale(0.00048828125,-0.00048828125)">
   <path d="M 813,0 C 632,0 489,54 383,161 276,268 223,411 223,592 223,773 276,916 383,1023 489,1130 632,1184 813,1184 992,1184 1136,1130 1245,1023 1353,916 1407,772 1407,592 1407,412 1353,268 1245,161 1136,54 992,0 813,0 Z"/>
  </g>
  <g id="bullet-char-template-8226" transform="scale(0.00048828125,-0.00048828125)">
   <path d="M 346,457 C 273,457 209,483 155,535 101,586 74,649 74,723 74,796 101,859 155,911 209,963 273,989 346,989 419,989 480,963 531,910 582,859 608,796 608,723 608,648 583,586 532,535 482,483 420,457 346,457 Z"/>
  </g>
  <g id="bullet-char-template-8211" transform="scale(0.00048828125,-0.00048828125)">
   <path d="M -4,459 L 1135,459 1135,606 -4,606 -4,459 Z"/>
  </g>
  <g id="bullet-char-template-61548" transform="scale(0.00048828125,-0.00048828125)">
   <path d="M 173,740 C 173,903 231,1043 346,1159 462,1274 601,1332 765,1332 928,1332 1067,1274 1183,1159 1299,1043 1357,903 1357,740 1357,577 1299,437 1183,322 1067,206 928,148 765,148 601,148 462,206 346,322 231,437 173,577 173,740 Z"/>
  </g>
 </defs>
 <g class="Page">
  <g class="com.sun.star.drawing.PolyPolygonShape">
   <g id="id3">
    <rect class="BoundingBox" stroke="none" fill="none" x="35499" y="39999" width="5391" height="903"/>
    <path fill="rgb(150,0,0)" stroke="none" d="M 40888,40450 L 40888,40271 40888,40264 40887,40257 40887,40250 40886,40244 40886,40237 40885,40231 40884,40224 40882,40218 40881,40211 40879,40205 40878,40198 40876,40192 40874,40186 40872,40179 40869,40173 40867,40167 40865,40161 40862,40155 40859,40149 40856,40143 40853,40137 40849,40132 40846,40126 40842,40120 40838,40115 40834,40110 40831,40104 40826,40099 40822,40094 40818,40089 40813,40084 40809,40080 40804,40075 40799,40070 40794,40066 40789,40062 40784,40057 40779,40054 40773,40050 40768,40046 40762,40042 40757,40039 40751,40035 40745,40032 40739,40029 40733,40026 40727,40024 40721,40021 40715,40019 40709,40016 40703,40014 40696,40012 40690,40010 40684,40008 40677,40007 40671,40005 40664,40003 40658,40002 40651,40001 40645,40001 40638,40000 40631,40000 40625,40000 40618,40000 35769,40000 35762,40000 35756,40000 35749,40000 35742,40001 35736,40001 35730,40002 35723,40003 35716,40005 35710,40007 35704,40008 35697,40010 35691,40012 35684,40014 35678,40016 35672,40019 35666,40021 35660,40024 35654,40026 35648,40029 35642,40032 35636,40035 35631,40039 35625,40042 35619,40046 35614,40050 35608,40054 35603,40057 35598,40062 35593,40066 35588,40070 35583,40075 35579,40080 35574,40084 35569,40089 35565,40094 35561,40099 35557,40104 35553,40110 35549,40115 35545,40120 35541,40126 35538,40132 35534,40137 35531,40143 35528,40149 35526,40155 35523,40161 35520,40167 35518,40173 35515,40179 35513,40186 35511,40192 35509,40198 35508,40205 35506,40211 35505,40218 35504,40224 35502,40231 35502,40237 35501,40244 35500,40250 35500,40257 35500,40264 35500,40271 35500,40630 35500,40637 35500,40643 35500,40650 35501,40657 35502,40663 35502,40670 35504,40676 35505,40683 35506,40690 35508,40696 35509,40702 35511,40709 35513,40715 35515,40721 35518,40727 35520,40734 35523,40740 35526,40746 35528,40751 35531,40757 35534,40763 35538,40769 35541,40775 35545,40780 35549,40786 35553,40791 35557,40796 35561,40802 35565,40807 35569,40811 35574,40816 35579,40821 35583,40826 35588,40830 35593,40835 35598,40839 35603,40843 35608,40847 35614,40851 35619,40855 35625,40858 35631,40862 35636,40865 35642,40868 35648,40871 35654,40874 35660,40877 35666,40880 35672,40882 35678,40884 35684,40887 35691,40889 35697,40890 35704,40892 35710,40894 35716,40895 35723,40896 35730,40897 35736,40898 35742,40899 35749,40899 35756,40900 35762,40900 35769,40900 40618,40900 40625,40900 40631,40900 40638,40899 40645,40899 40651,40898 40658,40897 40664,40896 40671,40895 40677,40894 40684,40892 40690,40890 40696,40889 40703,40887 40709,40884 40715,40882 40721,40880 40727,40877 40733,40874 40739,40871 40745,40868 40751,40865 40757,40862 40762,40858 40768,40855 40773,40851 40779,40847 40784,40843 40789,40839 40794,40835 40799,40830 40804,40826 40809,40821 40813,40816 40818,40811 40822,40807 40826,40802 40831,40796 40834,40791 40838,40786 40842,40780 40846,40775 40849,40769 40853,40763 40856,40757 40859,40751 40862,40746 40865,40740 40867,40734 40869,40727 40872,40721 40874,40715 40876,40709 40878,40702 40879,40696 40881,40690 40882,40683 40884,40676 40885,40670 40886,40663 40886,40657 40887,40650 40887,40643 40888,40637 40888,40630 40888,40450 Z"/>
    <path fill="none" stroke="rgb(150,0,0)" d="M 40888,40450 L 40888,40271 40888,40264 40887,40257 40887,40250 40886,40244 40886,40237 40885,40231 40884,40224 40882,40218 40881,40211 40879,40205 40878,40198 40876,40192 40874,40186 40872,40179 40869,40173 40867,40167 40865,40161 40862,40155 40859,40149 40856,40143 40853,40137 40849,40132 40846,40126 40842,40120 40838,40115 40834,40110 40831,40104 40826,40099 40822,40094 40818,40089 40813,40084 40809,40080 40804,40075 40799,40070 40794,40066 40789,40062 40784,40057 40779,40054 40773,40050 40768,40046 40762,40042 40757,40039 40751,40035 40745,40032 40739,40029 40733,40026 40727,40024 40721,40021 40715,40019 40709,40016 40703,40014 40696,40012 40690,40010 40684,40008 40677,40007 40671,40005 40664,40003 40658,40002 40651,40001 40645,40001 40638,40000 40631,40000 40625,40000 40618,40000 35769,40000 35762,40000 35756,40000 35749,40000 35742,40001 35736,40001 35730,40002 35723,40003 35716,40005 35710,40007 35704,40008 35697,40010 35691,40012 35684,40014 35678,40016 35672,40019 35666,40021 35660,40024 35654,40026 35648,40029 35642,40032 35636,40035 35631,40039 35625,40042 35619,40046 35614,40050 35608,40054 35603,40057 35598,40062 35593,40066 35588,40070 35583,40075 35579,40080 35574,40084 35569,40089 35565,40094 35561,40099 35557,40104 35553,40110 35549,40115 35545,40120 35541,40126 35538,40132 35534,40137 35531,40143 35528,40149 35526,40155 35523,40161 35520,40167 35518,40173 35515,40179 35513,40186 35511,40192 35509,40198 35508,40205 35506,40211 35505,40218 35504,40224 35502,40231 35502,40237 35501,40244 35500,40250 35500,40257 35500,40264 35500,40271 35500,40630 35500,40637 35500,40643 35500,40650 35501,40657 35502,40663 35502,40670 35504,40676 35505,40683 35506,40690 35508,40696 35509,40702 35511,40709 35513,40715 35515,40721 35518,40727 35520,40734 35523,40740 35526,40746 35528,40751 35531,40757 35534,40763 35538,40769 35541,40775 35545,40780 35549,40786 35553,40791 35557,40796 35561,40802 35565,40807 35569,40811 35574,40816 35579,40821 35583,40826 35588,40830 35593,40835 35598,40839 35603,40843 35608,40847 35614,40851 35619,40855 35625,40858 35631,40862 35636,40865 35642,40868 35648,40871 35654,40874 35660,40877 35666,40880 35672,40882 35678,40884 35684,40887 35691,40889 35697,40890 35704,40892 35710,40894 35716,40895 35723,40896 35730,40897 35736,40898 35742,40899 35749,40899 35756,40900 35762,40900 35769,40900 40618,40900 40625,40900 40631,40900 40638,40899 40645,40899 40651,40898 40658,40897 40664,40896 40671,40895 40677,40894 40684,40892 40690,40890 40696,40889 40703,40887 40709,40884 40715,40882 40721,40880 40727,40877 40733,40874 40739,40871 40745,40868 40751,40865 40757,40862 40762,40858 40768,40855 40773,40851 40779,40847 40784,40843 40789,40839 40794,40835 40799,40830 40804,40826 40809,40821 40813,40816 40818,40811 40822,40807 40826,40802 40831,40796 40834,40791 40838,40786 40842,40780 40846,40775 40849,40769 40853,40763 40856,40757 40859,40751 40862,40746 40865,40740 40867,40734 40869,40727 40872,40721 40874,40715 40876,40709 40878,40702 40879,40696 40881,40690 40882,40683 40884,40676 40885,40670 40886,40663 40886,40657 40887,40650 40887,40643 40888,40637 40888,40630 40888,40450 Z"/>
   </g>
  </g>
  <g class="com.sun.star.drawing.PolyPolygonShape">
   <g id="id4">
    <rect class="BoundingBox" stroke="none" fill="none" x="35558" y="40058" width="1145" height="784"/>
    <path fill="rgb(255,255,255)" stroke="none" d="M 36701,40450 L 36701,40059 35769,40059 35764,40059 35759,40060 35754,40060 35748,40060 35743,40061 35738,40062 35733,40062 35728,40063 35723,40064 35718,40066 35713,40067 35708,40068 35703,40070 35698,40072 35694,40073 35689,40075 35684,40077 35679,40080 35675,40082 35670,40084 35666,40087 35661,40089 35657,40092 35653,40095 35648,40098 35644,40101 35640,40104 35636,40107 35632,40110 35628,40114 35625,40117 35621,40122 35617,40125 35614,40129 35610,40133 35607,40137 35604,40141 35601,40145 35598,40150 35595,40154 35592,40158 35589,40162 35587,40167 35584,40171 35582,40176 35579,40180 35578,40185 35575,40190 35574,40195 35572,40200 35570,40205 35568,40209 35567,40214 35566,40219 35564,40224 35563,40229 35562,40235 35562,40240 35561,40245 35560,40250 35560,40255 35560,40260 35559,40265 35559,40271 35559,40630 35559,40635 35560,40640 35560,40646 35560,40651 35561,40656 35562,40661 35562,40666 35563,40671 35564,40676 35566,40681 35567,40686 35568,40691 35570,40696 35572,40701 35574,40706 35575,40711 35578,40715 35579,40720 35582,40725 35584,40729 35587,40734 35589,40738 35592,40743 35595,40747 35598,40751 35601,40755 35604,40759 35607,40763 35610,40767 35614,40771 35617,40775 35621,40779 35625,40782 35628,40786 35632,40789 35636,40793 35640,40796 35644,40799 35648,40802 35653,40805 35657,40808 35661,40810 35666,40813 35670,40815 35675,40818 35679,40820 35684,40822 35689,40824 35694,40826 35698,40828 35703,40830 35708,40831 35713,40833 35718,40834 35723,40835 35728,40836 35733,40837 35738,40838 35743,40839 35748,40839 35754,40840 35759,40840 35764,40840 35769,40840 36701,40840 36701,40450 Z"/>
    <path fill="none" stroke="rgb(255,255,255)" d="M 36701,40450 L 36701,40059 35769,40059 35764,40059 35759,40060 35754,40060 35748,40060 35743,40061 35738,40062 35733,40062 35728,40063 35723,40064 35718,40066 35713,40067 35708,40068 35703,40070 35698,40072 35694,40073 35689,40075 35684,40077 35679,40080 35675,40082 35670,40084 35666,40087 35661,40089 35657,40092 35653,40095 35648,40098 35644,40101 35640,40104 35636,40107 35632,40110 35628,40114 35625,40117 35621,40122 35617,40125 35614,40129 35610,40133 35607,40137 35604,40141 35601,40145 35598,40150 35595,40154 35592,40158 35589,40162 35587,40167 35584,40171 35582,40176 35579,40180 35578,40185 35575,40190 35574,40195 35572,40200 35570,40205 35568,40209 35567,40214 35566,40219 35564,40224 35563,40229 35562,40235 35562,40240 35561,40245 35560,40250 35560,40255 35560,40260 35559,40265 35559,40271 35559,40630 35559,40635 35560,40640 35560,40646 35560,40651 35561,40656 35562,40661 35562,40666 35563,40671 35564,40676 35566,40681 35567,40686 35568,40691 35570,40696 35572,40701 35574,40706 35575,40711 35578,40715 35579,40720 35582,40725 35584,40729 35587,40734 35589,40738 35592,40743 35595,40747 35598,40751 35601,40755 35604,40759 35607,40763 35610,40767 35614,40771 35617,40775 35621,40779 35625,40782 35628,40786 35632,40789 35636,40793 35640,40796 35644,40799 35648,40802 35653,40805 35657,40808 35661,40810 35666,40813 35670,40815 35675,40818 35679,40820 35684,40822 35689,40824 35694,40826 35698,40828 35703,40830 35708,40831 35713,40833 35718,40834 35723,40835 35728,40836 35733,40837 35738,40838 35743,40839 35748,40839 35754,40840 35759,40840 35764,40840 35769,40840 36701,40840 36701,40450 Z"/>
   </g>
  </g>
  <g class="com.sun.star.drawing.PolyPolygonShape">
   <g id="id5">
    <rect class="BoundingBox" stroke="none" fill="none" x="40137" y="40149" width="603" height="603"/>
    <path fill="rgb(255,255,255)" stroke="none" d="M 40138,40374 L 40138,40525 40438,40525 40438,40750 40738,40450 40438,40150 40438,40374 40138,40374 Z"/>
    <path fill="none" stroke="rgb(255,255,255)" d="M 40138,40374 L 40138,40525 40438,40525 40438,40750 40738,40450 40438,40150 40438,40374 40138,40374 Z"/>
   </g>
  </g>
  <g class="com.sun.star.drawing.PolyPolygonShape">
   <g id="id6">
    <rect class="BoundingBox" stroke="none" fill="none" x="35648" y="40149" width="965" height="603"/>
    <path fill="rgb(0,0,0)" stroke="none" d="M 36095,40311 L 36096,40310 36098,40308 36099,40306 36100,40304 36100,40302 36101,40300 36102,40299 36102,40297 36103,40294 36103,40293 36104,40291 36105,40289 36106,40287 36107,40285 36108,40283 36109,40281 36111,40280 36112,40279 36114,40278 36116,40277 36118,40277 36119,40277 36121,40277 36123,40277 36126,40278 36128,40278 36131,40279 36133,40280 36135,40280 36137,40280 36139,40280 36141,40280 36143,40279 36145,40279 36147,40278 36148,40278 36152,40276 36155,40275 36157,40273 36160,40271 36163,40269 36165,40267 36168,40264 36170,40261 36169,40264 36169,40266 36169,40268 36169,40271 36169,40273 36169,40276 36169,40278 36170,40280 36171,40282 36171,40284 36171,40286 36171,40288 36171,40290 36171,40292 36170,40293 36169,40295 36168,40297 36166,40300 36165,40302 36163,40304 36161,40306 36159,40308 36157,40310 36155,40311 36095,40311 Z M 36053,40311 L 36054,40310 36055,40308 36056,40307 36057,40305 36058,40303 36059,40301 36059,40300 36060,40298 36060,40296 36060,40294 36060,40292 36059,40290 36059,40288 36058,40286 36058,40285 36057,40283 36056,40282 36056,40281 36055,40280 36054,40279 36053,40278 36052,40277 36051,40277 36050,40276 36049,40275 36048,40275 36047,40275 36046,40274 36044,40274 36043,40274 36042,40274 36041,40274 36041,40271 36041,40270 36041,40268 36042,40268 36042,40267 36043,40267 36043,40266 36044,40266 36047,40265 36048,40264 36050,40264 36051,40264 36052,40264 36054,40265 36055,40265 36056,40266 36057,40266 36061,40268 36065,40270 36068,40270 36072,40270 36076,40271 36079,40271 36083,40271 36086,40271 36090,40272 36089,40273 36087,40274 36086,40276 36084,40277 36083,40279 36082,40281 36081,40282 36080,40284 36079,40285 36079,40286 36078,40287 36078,40288 36078,40289 36078,40290 36078,40291 36078,40292 36078,40293 36078,40294 36078,40295 36079,40296 36079,40297 36080,40297 36080,40299 36081,40299 36081,40300 36082,40301 36082,40302 36082,40303 36082,40304 36081,40305 36081,40306 36081,40307 36080,40308 36079,40309 36079,40310 36078,40310 36077,40311 36076,40311 36075,40311 36074,40311 36053,40311 Z M 36173,40311 L 36176,40308 36178,40304 36180,40301 36182,40297 36183,40294 36185,40290 36186,40286 36188,40283 36189,40280 36190,40278 36190,40277 36191,40277 36191,40276 36192,40276 36193,40277 36193,40278 36194,40279 36194,40280 36195,40281 36195,40283 36196,40284 36197,40284 36198,40285 36199,40285 36197,40288 36196,40290 36195,40293 36195,40296 36194,40299 36194,40302 36194,40304 36194,40307 36196,40305 36197,40302 36199,40300 36201,40298 36203,40296 36205,40294 36207,40292 36209,40290 36212,40291 36215,40292 36217,40292 36218,40293 36220,40294 36221,40294 36222,40296 36223,40297 36224,40299 36224,40300 36225,40301 36225,40302 36224,40303 36224,40304 36224,40305 36223,40306 36221,40307 36220,40309 36220,40310 36219,40311 36173,40311 Z M 36219,40239 L 36220,40238 36222,40236 36223,40235 36224,40234 36226,40233 36228,40232 36230,40231 36231,40231 36232,40231 36233,40231 36234,40231 36235,40231 36235,40232 36236,40232 36237,40233 36238,40234 36238,40235 36239,40236 36240,40238 36240,40239 36240,40240 36240,40241 36240,40242 36240,40243 36240,40244 36240,40245 36239,40246 36239,40247 36238,40248 36235,40252 36232,40256 36230,40260 36226,40264 36225,40265 36224,40266 36223,40267 36222,40267 36221,40268 36220,40268 36219,40268 36219,40239 Z M 36023,40311 L 36022,40310 36020,40308 36019,40306 36018,40304 36017,40302 36016,40300 36016,40298 36015,40296 36015,40294 36016,40292 36016,40290 36017,40288 36017,40286 36018,40284 36020,40282 36021,40280 36020,40280 36019,40279 36018,40279 36018,40278 36017,40278 36016,40277 36015,40277 36015,40276 36014,40275 36014,40274 36013,40273 36013,40272 36013,40271 36013,40270 36013,40268 36013,40267 36013,40265 36014,40263 36015,40261 36017,40259 36020,40258 36022,40256 36025,40255 36028,40254 36030,40254 36033,40253 36036,40253 36042,40253 36043,40253 36044,40253 36045,40253 36046,40252 36047,40252 36048,40251 36048,40250 36049,40249 36049,40248 36049,40247 36048,40246 36048,40245 36047,40244 36046,40243 36046,40242 36046,40241 36045,40240 36045,40239 36045,40238 36045,40237 36045,40236 36045,40235 36046,40234 36046,40233 36046,40232 36047,40231 36047,40230 36048,40230 36047,40229 36045,40229 36044,40228 36043,40228 36042,40227 36041,40226 36040,40226 36039,40225 36037,40224 36036,40223 36035,40222 36035,40220 36034,40219 36033,40218 36033,40217 36033,40216 36035,40213 36036,40212 36036,40211 36036,40210 36036,40209 36037,40209 36037,40208 36036,40207 36036,40206 36036,40205 36035,40204 36035,40202 36035,40201 36035,40200 36035,40198 36035,40197 36036,40196 36036,40195 36037,40193 36037,40192 36039,40191 36040,40190 36040,40188 36040,40186 36040,40184 36040,40183 36040,40181 36039,40180 36039,40177 36039,40176 36039,40175 36040,40174 36040,40173 36040,40172 36041,40171 36041,40170 36043,40168 36044,40166 36045,40164 36047,40163 36048,40161 36050,40159 36052,40158 36053,40156 36055,40155 36056,40153 36058,40152 36059,40150 36060,40150 36061,40150 36062,40150 36063,40150 36064,40150 36065,40150 36068,40153 36072,40155 36072,40156 36073,40156 36074,40157 36075,40157 36076,40157 36077,40157 36078,40157 36079,40157 36080,40157 36081,40157 36082,40157 36083,40157 36083,40158 36084,40158 36085,40159 36085,40160 36086,40160 36086,40161 36087,40161 36088,40161 36089,40162 36090,40162 36090,40161 36096,40161 36097,40161 36098,40162 36099,40162 36100,40163 36100,40164 36101,40164 36101,40165 36101,40166 36102,40168 36102,40169 36101,40170 36101,40171 36101,40172 36101,40173 36102,40174 36102,40175 36103,40175 36103,40176 36104,40176 36106,40177 36107,40177 36107,40178 36108,40179 36108,40180 36108,40184 36108,40185 36108,40186 36109,40186 36110,40187 36112,40187 36113,40187 36114,40187 36115,40187 36116,40188 36117,40188 36118,40189 36118,40190 36119,40190 36119,40191 36119,40193 36119,40196 36120,40198 36121,40200 36121,40201 36122,40202 36122,40203 36122,40204 36122,40205 36122,40206 36122,40207 36123,40207 36123,40208 36124,40208 36125,40208 36126,40208 36126,40209 36127,40209 36128,40210 36128,40211 36129,40211 36130,40212 36131,40212 36133,40213 36134,40213 36135,40213 36136,40213 36138,40213 36140,40212 36142,40212 36145,40212 36147,40211 36149,40211 36151,40210 36153,40209 36156,40208 36157,40207 36160,40206 36162,40206 36164,40205 36167,40205 36169,40205 36172,40205 36174,40205 36178,40205 36182,40206 36185,40206 36189,40207 36193,40208 36196,40210 36200,40212 36203,40214 36206,40216 36209,40218 36212,40220 36215,40222 36217,40221 36219,40219 36222,40218 36224,40217 36227,40217 36229,40216 36232,40216 36235,40216 36236,40216 36237,40216 36239,40217 36240,40217 36241,40218 36242,40218 36243,40219 36245,40220 36246,40220 36247,40221 36247,40222 36248,40224 36249,40225 36250,40226 36250,40227 36251,40229 36251,40230 36251,40232 36252,40234 36252,40236 36252,40238 36252,40240 36251,40242 36251,40244 36251,40246 36250,40248 36249,40250 36248,40252 36247,40253 36246,40255 36245,40257 36244,40258 36240,40264 36235,40268 36231,40273 36227,40278 36229,40279 36232,40280 36234,40282 36236,40283 36238,40285 36240,40287 36242,40289 36244,40291 36244,40292 36244,40293 36244,40294 36243,40297 36242,40299 36241,40301 36239,40303 36238,40305 36237,40307 36236,40309 36235,40311 36241,40311 36241,40359 36611,40750 35649,40750 36019,40359 36019,40311 36023,40311 Z"/>
    <path fill="none" stroke="rgb(0,0,0)" d="M 36095,40311 L 36096,40310 36098,40308 36099,40306 36100,40304 36100,40302 36101,40300 36102,40299 36102,40297 36103,40294 36103,40293 36104,40291 36105,40289 36106,40287 36107,40285 36108,40283 36109,40281 36111,40280 36112,40279 36114,40278 36116,40277 36118,40277 36119,40277 36121,40277 36123,40277 36126,40278 36128,40278 36131,40279 36133,40280 36135,40280 36137,40280 36139,40280 36141,40280 36143,40279 36145,40279 36147,40278 36148,40278 36152,40276 36155,40275 36157,40273 36160,40271 36163,40269 36165,40267 36168,40264 36170,40261 36169,40264 36169,40266 36169,40268 36169,40271 36169,40273 36169,40276 36169,40278 36170,40280 36171,40282 36171,40284 36171,40286 36171,40288 36171,40290 36171,40292 36170,40293 36169,40295 36168,40297 36166,40300 36165,40302 36163,40304 36161,40306 36159,40308 36157,40310 36155,40311 36095,40311 Z"/>
    <path fill="none" stroke="rgb(0,0,0)" d="M 36053,40311 L 36054,40310 36055,40308 36056,40307 36057,40305 36058,40303 36059,40301 36059,40300 36060,40298 36060,40296 36060,40294 36060,40292 36059,40290 36059,40288 36058,40286 36058,40285 36057,40283 36056,40282 36056,40281 36055,40280 36054,40279 36053,40278 36052,40277 36051,40277 36050,40276 36049,40275 36048,40275 36047,40275 36046,40274 36044,40274 36043,40274 36042,40274 36041,40274 36041,40271 36041,40270 36041,40268 36042,40268 36042,40267 36043,40267 36043,40266 36044,40266 36047,40265 36048,40264 36050,40264 36051,40264 36052,40264 36054,40265 36055,40265 36056,40266 36057,40266 36061,40268 36065,40270 36068,40270 36072,40270 36076,40271 36079,40271 36083,40271 36086,40271 36090,40272 36089,40273 36087,40274 36086,40276 36084,40277 36083,40279 36082,40281 36081,40282 36080,40284 36079,40285 36079,40286 36078,40287 36078,40288 36078,40289 36078,40290 36078,40291 36078,40292 36078,40293 36078,40294 36078,40295 36079,40296 36079,40297 36080,40297 36080,40299 36081,40299 36081,40300 36082,40301 36082,40302 36082,40303 36082,40304 36081,40305 36081,40306 36081,40307 36080,40308 36079,40309 36079,40310 36078,40310 36077,40311 36076,40311 36075,40311 36074,40311 36053,40311 Z"/>
    <path fill="none" stroke="rgb(0,0,0)" d="M 36173,40311 L 36176,40308 36178,40304 36180,40301 36182,40297 36183,40294 36185,40290 36186,40286 36188,40283 36189,40280 36190,40278 36190,40277 36191,40277 36191,40276 36192,40276 36193,40277 36193,40278 36194,40279 36194,40280 36195,40281 36195,40283 36196,40284 36197,40284 36198,40285 36199,40285 36197,40288 36196,40290 36195,40293 36195,40296 36194,40299 36194,40302 36194,40304 36194,40307 36196,40305 36197,40302 36199,40300 36201,40298 36203,40296 36205,40294 36207,40292 36209,40290 36212,40291 36215,40292 36217,40292 36218,40293 36220,40294 36221,40294 36222,40296 36223,40297 36224,40299 36224,40300 36225,40301 36225,40302 36224,40303 36224,40304 36224,40305 36223,40306 36221,40307 36220,40309 36220,40310 36219,40311 36173,40311 Z"/>
    <path fill="none" stroke="rgb(0,0,0)" d="M 36219,40239 L 36220,40238 36222,40236 36223,40235 36224,40234 36226,40233 36228,40232 36230,40231 36231,40231 36232,40231 36233,40231 36234,40231 36235,40231 36235,40232 36236,40232 36237,40233 36238,40234 36238,40235 36239,40236 36240,40238 36240,40239 36240,40240 36240,40241 36240,40242 36240,40243 36240,40244 36240,40245 36239,40246 36239,40247 36238,40248 36235,40252 36232,40256 36230,40260 36226,40264 36225,40265 36224,40266 36223,40267 36222,40267 36221,40268 36220,40268 36219,40268 36219,40239 Z"/>
    <path fill="none" stroke="rgb(0,0,0)" d="M 36023,40311 L 36022,40310 36020,40308 36019,40306 36018,40304 36017,40302 36016,40300 36016,40298 36015,40296 36015,40294 36016,40292 36016,40290 36017,40288 36017,40286 36018,40284 36020,40282 36021,40280 36020,40280 36019,40279 36018,40279 36018,40278 36017,40278 36016,40277 36015,40277 36015,40276 36014,40275 36014,40274 36013,40273 36013,40272 36013,40271 36013,40270 36013,40268 36013,40267 36013,40265 36014,40263 36015,40261 36017,40259 36020,40258 36022,40256 36025,40255 36028,40254 36030,40254 36033,40253 36036,40253 36042,40253 36043,40253 36044,40253 36045,40253 36046,40252 36047,40252 36048,40251 36048,40250 36049,40249 36049,40248 36049,40247 36048,40246 36048,40245 36047,40244 36046,40243 36046,40242 36046,40241 36045,40240 36045,40239 36045,40238 36045,40237 36045,40236 36045,40235 36046,40234 36046,40233 36046,40232 36047,40231 36047,40230 36048,40230 36047,40229 36045,40229 36044,40228 36043,40228 36042,40227 36041,40226 36040,40226 36039,40225 36037,40224 36036,40223 36035,40222 36035,40220 36034,40219 36033,40218 36033,40217 36033,40216 36035,40213 36036,40212 36036,40211 36036,40210 36036,40209 36037,40209 36037,40208 36036,40207 36036,40206 36036,40205 36035,40204 36035,40202 36035,40201 36035,40200 36035,40198 36035,40197 36036,40196 36036,40195 36037,40193 36037,40192 36039,40191 36040,40190 36040,40188 36040,40186 36040,40184 36040,40183 36040,40181 36039,40180 36039,40177 36039,40176 36039,40175 36040,40174 36040,40173 36040,40172 36041,40171 36041,40170 36043,40168 36044,40166 36045,40164 36047,40163 36048,40161 36050,40159 36052,40158 36053,40156 36055,40155 36056,40153 36058,40152 36059,40150 36060,40150 36061,40150 36062,40150 36063,40150 36064,40150 36065,40150 36068,40153 36072,40155 36072,40156 36073,40156 36074,40157 36075,40157 36076,40157 36077,40157 36078,40157 36079,40157 36080,40157 36081,40157 36082,40157 36083,40157 36083,40158 36084,40158 36085,40159 36085,40160 36086,40160 36086,40161 36087,40161 36088,40161 36089,40162 36090,40162 36090,40161 36096,40161 36097,40161 36098,40162 36099,40162 36100,40163 36100,40164 36101,40164 36101,40165 36101,40166 36102,40168 36102,40169 36101,40170 36101,40171 36101,40172 36101,40173 36102,40174 36102,40175 36103,40175 36103,40176 36104,40176 36106,40177 36107,40177 36107,40178 36108,40179 36108,40180 36108,40184 36108,40185 36108,40186 36109,40186 36110,40187 36112,40187 36113,40187 36114,40187 36115,40187 36116,40188 36117,40188 36118,40189 36118,40190 36119,40190 36119,40191 36119,40193 36119,40196 36120,40198 36121,40200 36121,40201 36122,40202 36122,40203 36122,40204 36122,40205 36122,40206 36122,40207 36123,40207 36123,40208 36124,40208 36125,40208 36126,40208 36126,40209 36127,40209 36128,40210 36128,40211 36129,40211 36130,40212 36131,40212 36133,40213 36134,40213 36135,40213 36136,40213 36138,40213 36140,40212 36142,40212 36145,40212 36147,40211 36149,40211 36151,40210 36153,40209 36156,40208 36157,40207 36160,40206 36162,40206 36164,40205 36167,40205 36169,40205 36172,40205 36174,40205 36178,40205 36182,40206 36185,40206 36189,40207 36193,40208 36196,40210 36200,40212 36203,40214 36206,40216 36209,40218 36212,40220 36215,40222 36217,40221 36219,40219 36222,40218 36224,40217 36227,40217 36229,40216 36232,40216 36235,40216 36236,40216 36237,40216 36239,40217 36240,40217 36241,40218 36242,40218 36243,40219 36245,40220 36246,40220 36247,40221 36247,40222 36248,40224 36249,40225 36250,40226 36250,40227 36251,40229 36251,40230 36251,40232 36252,40234 36252,40236 36252,40238 36252,40240 36251,40242 36251,40244 36251,40246 36250,40248 36249,40250 36248,40252 36247,40253 36246,40255 36245,40257 36244,40258 36240,40264 36235,40268 36231,40273 36227,40278 36229,40279 36232,40280 36234,40282 36236,40283 36238,40285 36240,40287 36242,40289 36244,40291 36244,40292 36244,40293 36244,40294 36243,40297 36242,40299 36241,40301 36239,40303 36238,40305 36237,40307 36236,40309 36235,40311 36241,40311 36241,40359 36611,40750 35649,40750 36019,40359 36019,40311 36023,40311 Z"/>
   </g>
  </g>
 </g>
</svg>