<?xml version="1.0" encoding="UTF-8"?>
<!DOCTYPE svg PUBLIC "-//W3C//DTD SVG 1.1//EN" "http://www.w3.org/Graphics/SVG/1.1/DTD/svg11.dtd">
<svg version="1.2" width="53.91mm" height="9.03mm" viewBox="35499 41599 5391 903" preserveAspectRatio="xMidYMid" fill-rule="evenodd" stroke-width="28.222" stroke-linejoin="round" xmlns="http://www.w3.org/2000/svg" xmlns:ooo="http://xml.openoffice.org/svg/export" xmlns:xlink="http://www.w3.org/1999/xlink" xmlns:presentation="http://sun.com/xmlns/staroffice/presentation" xmlns:smil="http://www.w3.org/2001/SMIL20/" xmlns:anim="urn:oasis:names:tc:opendocument:xmlns:animation:1.0" xml:space="preserve">
 <defs class="EmbeddedBulletChars">
  <g id="bullet-char-template-57356" transform="scale(0.00048828125,-0.00048828125)">
   <path d="M 580,1141 L 1163,571 580,0 -4,571 580,1141 Z"/>
  </g>
  <g id="bullet-char-template-57354" transform="scale(0.00048828125,-0.00048828125)">
   <path d="M 8,1128 L 1137,1128 1137,0 8,0 8,1128 Z"/>
  </g>
  <g id="bullet-char-template-10146" transform="scale(0.00048828125,-0.00048828125)">
   <path d="M 174,0 L 602,739 174,1481 1456,739 174,0 Z M 1358,739 L 309,1346 659,739 1358,739 Z"/>
  </g>
  <g id="bullet-char-template-10132" transform="scale(0.00048828125,-0.00048828125)">
   <path d="M 2015,739 L 1276,0 717,0 1260,543 174,543 174,936 1260,936 717,1481 1274,1481 2015,739 Z"/>
  </g>
  <g id="bullet-char-template-10007" transform="scale(0.00048828125,-0.00048828125)">
   <path d="M 0,-2 C -7,14 -16,27 -25,37 L 356,567 C 262,823 215,952 215,954 215,979 228,992 255,992 264,992 276,990 289,987 310,991 331,999 354,1012 L 381,999 492,748 772,1049 836,1024 860,1049 C 881,1039 901,1025 922,1006 886,937 835,863 770,784 769,783 710,716 594,584 L 774,223 C 774,196 753,168 711,139 L 727,119 C 717,90 699,76 672,76 641,76 570,178 457,381 L 164,-76 C 142,-110 111,-127 72,-127 30,-127 9,-110 8,-76 1,-67 -2,-52 -2,-32 -2,-23 -1,-13 0,-2 Z"/>
  </g>
  <g id="bullet-char-template-10004" transform="scale(0.00048828125,-0.00048828125)">
   <path d="M 285,-33 C 182,-33 111,30 74,156 52,228 41,333 41,471 41,549 55,616 82,672 116,743 169,778 240,778 293,778 328,747 346,684 L 369,508 C 377,444 397,411 428,410 L 1163,1116 C 1174,1127 1196,1133 1229,1133 1271,1133 1292,1118 1292,1087 L 1292,965 C 1292,929 1282,901 1262,881 L 442,47 C 390,-6 338,-33 285,-33 Z"/>
  </g>
  <g id="bullet-char-template-9679" transform="scale(0.00048828125,-0.00048828125)">
   <path d="M 813,0 C 632,0 489,54 383,161 276,268 223,411 223,592 223,773 276,916 383,1023 489,1130 632,1184 813,1184 992,1184 1136,1130 1245,1023 1353,916 1407,772 1407,592 1407,412 1353,268 1245,161 1136,54 992,0 813,0 Z"/>
  </g>
  <g id="bullet-char-template-8226" transform="scale(0.00048828125,-0.00048828125)">
   <path d="M 346,457 C 273,457 209,483 155,535 101,586 74,649 74,723 74,796 101,859 155,911 209,963 273,989 346,989 419,989 480,963 531,910 582,859 608,796 608,723 608,648 583,586 532,535 482,483 420,457 346,457 Z"/>
  </g>
  <g id="bullet-char-template-8211" transform="scale(0.00048828125,-0.00048828125)">
   <path d="M -4,459 L 1135,459 1135,606 -4,606 -4,459 Z"/>
  </g>
  <g id="bullet-char-template-61548" transform="scale(0.00048828125,-0.00048828125)">
   <path d="M 173,740 C 173,903 231,1043 346,1159 462,1274 601,1332 765,1332 928,1332 1067,1274 1183,1159 1299,1043 1357,903 1357,740 1357,577 1299,437 1183,322 1067,206 928,148 765,148 601,148 462,206 346,322 231,437 173,577 173,740 Z"/>
  </g>
 </defs>
 <g class="Page">
  <g class="com.sun.star.drawing.PolyPolygonShape">
   <g id="id3">
    <rect class="BoundingBox" stroke="none" fill="none" x="35499" y="41599" width="5391" height="903"/>
    <path fill="rgb(255,255,0)" stroke="none" d="M 40888,42050 L 40888,41871 40888,41864 40887,41857 40887,41850 40886,41844 40886,41837 40885,41831 40884,41824 40882,41818 40881,41811 40879,41805 40878,41797 40876,41791 40874,41785 40872,41779 40869,41772 40867,41766 40865,41760 40862,41754 40859,41748 40856,41742 40853,41736 40849,41731 40846,41725 40842,41719 40838,41714 40834,41709 40831,41703 40826,41698 40822,41693 40818,41688 40813,41683 40809,41679 40804,41674 40799,41669 40794,41665 40789,41661 40784,41656 40779,41653 40773,41649 40768,41645 40762,41641 40757,41638 40751,41634 40745,41631 40739,41628 40733,41625 40727,41623 40721,41620 40715,41618 40709,41615 40703,41613 40696,41611 40690,41609 40684,41607 40677,41606 40671,41605 40664,41603 40658,41602 40651,41601 40645,41601 40638,41600 40631,41600 40625,41600 40618,41600 35769,41600 35762,41600 35756,41600 35749,41600 35742,41601 35736,41601 35730,41602 35723,41603 35716,41605 35710,41606 35704,41607 35697,41609 35691,41611 35684,41613 35678,41615 35672,41618 35666,41620 35660,41623 35654,41625 35648,41628 35642,41631 35636,41634 35631,41638 35625,41641 35619,41645 35614,41649 35608,41653 35603,41656 35598,41661 35593,41665 35588,41669 35583,41674 35579,41679 35574,41683 35569,41688 35565,41693 35561,41698 35557,41703 35553,41709 35549,41714 35545,41719 35541,41725 35538,41731 35534,41736 35531,41742 35528,41748 35526,41754 35523,41760 35520,41766 35518,41772 35515,41779 35513,41785 35511,41791 35509,41797 35508,41805 35506,41811 35505,41818 35504,41824 35502,41831 35502,41837 35501,41844 35500,41850 35500,41857 35500,41864 35500,41871 35500,42230 35500,42237 35500,42243 35500,42250 35501,42257 35502,42263 35502,42270 35504,42276 35505,42283 35506,42290 35508,42296 35509,42302 35511,42309 35513,42315 35515,42321 35518,42327 35520,42334 35523,42340 35526,42346 35528,42351 35531,42357 35534,42363 35538,42369 35541,42375 35545,42380 35549,42386 35553,42391 35557,42396 35561,42402 35565,42407 35569,42412 35574,42416 35579,42421 35583,42426 35588,42430 35593,42435 35598,42439 35603,42443 35608,42447 35614,42451 35619,42455 35625,42458 35631,42462 35636,42465 35642,42468 35648,42472 35654,42474 35660,42477 35666,42480 35672,42482 35678,42484 35684,42487 35691,42489 35697,42490 35704,42492 35710,42494 35716,42495 35723,42496 35730,42497 35736,42498 35742,42499 35749,42500 35756,42500 35762,42500 35769,42500 40618,42500 40625,42500 40631,42500 40638,42500 40645,42499 40651,42498 40658,42497 40664,42496 40671,42495 40677,42494 40684,42492 40690,42490 40696,42489 40703,42487 40709,42484 40715,42482 40721,42480 40727,42477 40733,42474 40739,42472 40745,42468 40751,42465 40757,42462 40762,42458 40768,42455 40773,42451 40779,42447 40784,42443 40789,42439 40794,42435 40799,42430 40804,42426 40809,42421 40813,42416 40818,42412 40822,42407 40826,42402 40831,42396 40834,42391 40838,42386 40842,42380 40846,42375 40849,42369 40853,42363 40856,42357 40859,42351 40862,42346 40865,42340 40867,42334 40869,42327 40872,42321 40874,42315 40876,42309 40878,42302 40879,42296 40881,42290 40882,42283 40884,42276 40885,42270 40886,42263 40886,42257 40887,42250 40887,42243 40888,42237 40888,42230 40888,42050 Z"/>
    <path fill="none" stroke="rgb(255,255,0)" d="M 40888,42050 L 40888,41871 40888,41864 40887,41857 40887,41850 40886,41844 40886,41837 40885,41831 40884,41824 40882,41818 40881,41811 40879,41805 40878,41797 40876,41791 40874,41785 40872,41779 40869,41772 40867,41766 40865,41760 40862,41754 40859,41748 40856,41742 40853,41736 40849,41731 40846,41725 40842,41719 40838,41714 40834,41709 40831,41703 40826,41698 40822,41693 40818,41688 40813,41683 40809,41679 40804,41674 40799,41669 40794,41665 40789,41661 40784,41656 40779,41653 40773,41649 40768,41645 40762,41641 40757,41638 40751,41634 40745,41631 40739,41628 40733,41625 40727,41623 40721,41620 40715,41618 40709,41615 40703,41613 40696,41611 40690,41609 40684,41607 40677,41606 40671,41605 40664,41603 40658,41602 40651,41601 40645,41601 40638,41600 40631,41600 40625,41600 40618,41600 35769,41600 35762,41600 35756,41600 35749,41600 35742,41601 35736,41601 35730,41602 35723,41603 35716,41605 35710,41606 35704,41607 35697,41609 35691,41611 35684,41613 35678,41615 35672,41618 35666,41620 35660,41623 35654,41625 35648,41628 35642,41631 35636,41634 35631,41638 35625,41641 35619,41645 35614,41649 35608,41653 35603,41656 35598,41661 35593,41665 35588,41669 35583,41674 35579,41679 35574,41683 35569,41688 35565,41693 35561,41698 35557,41703 35553,41709 35549,41714 35545,41719 35541,41725 35538,41731 35534,41736 35531,41742 35528,41748 35526,41754 35523,41760 35520,41766 35518,41772 35515,41779 35513,41785 35511,41791 35509,41797 35508,41805 35506,41811 35505,41818 35504,41824 35502,41831 35502,41837 35501,41844 35500,41850 35500,41857 35500,41864 35500,41871 35500,42230 35500,42237 35500,42243 35500,42250 35501,42257 35502,42263 35502,42270 35504,42276 35505,42283 35506,42290 35508,42296 35509,42302 35511,42309 35513,42315 35515,42321 35518,42327 35520,42334 35523,42340 35526,42346 35528,42351 35531,42357 35534,42363 35538,42369 35541,42375 35545,42380 35549,42386 35553,42391 35557,42396 35561,42402 35565,42407 35569,42412 35574,42416 35579,42421 35583,42426 35588,42430 35593,42435 35598,42439 35603,42443 35608,42447 35614,42451 35619,42455 35625,42458 35631,42462 35636,42465 35642,42468 35648,42472 35654,42474 35660,42477 35666,42480 35672,42482 35678,42484 35684,42487 35691,42489 35697,42490 35704,42492 35710,42494 35716,42495 35723,42496 35730,42497 35736,42498 35742,42499 35749,42500 35756,42500 35762,42500 35769,42500 40618,42500 40625,42500 40631,42500 40638,42500 40645,42499 40651,42498 40658,42497 40664,42496 40671,42495 40677,42494 40684,42492 40690,42490 40696,42489 40703,42487 40709,42484 40715,42482 40721,42480 40727,42477 40733,42474 40739,42472 40745,42468 40751,42465 40757,42462 40762,42458 40768,42455 40773,42451 40779,42447 40784,42443 40789,42439 40794,42435 40799,42430 40804,42426 40809,42421 40813,42416 40818,42412 40822,42407 40826,42402 40831,42396 40834,42391 40838,42386 40842,42380 40846,42375 40849,42369 40853,42363 40856,42357 40859,42351 40862,42346 40865,42340 40867,42334 40869,42327 40872,42321 40874,42315 40876,42309 40878,42302 40879,42296 40881,42290 40882,42283 40884,42276 40885,42270 40886,42263 40886,42257 40887,42250 40887,42243 40888,42237 40888,42230 40888,42050 Z"/>
   </g>
  </g>
  <g class="com.sun.star.drawing.PolyPolygonShape">
   <g id="id4">
    <rect class="BoundingBox" stroke="none" fill="none" x="35558" y="41659" width="779" height="783"/>
    <path fill="rgb(255,255,255)" stroke="none" d="M 36335,42050 L 36335,41660 35769,41660 35764,41660 35759,41660 35754,41660 35748,41660 35743,41661 35738,41662 35733,41662 35728,41663 35723,41664 35718,41666 35713,41667 35708,41668 35703,41670 35698,41672 35694,41673 35689,41675 35684,41678 35679,41681 35675,41683 35670,41685 35666,41688 35661,41690 35657,41693 35653,41696 35648,41699 35644,41702 35640,41705 35636,41708 35632,41711 35628,41715 35625,41718 35621,41722 35617,41725 35614,41729 35610,41733 35607,41737 35604,41741 35601,41745 35598,41750 35595,41754 35592,41758 35589,41762 35587,41767 35584,41771 35582,41776 35579,41781 35578,41785 35575,41790 35574,41795 35572,41800 35570,41805 35568,41810 35567,41814 35566,41819 35564,41824 35563,41829 35562,41835 35562,41840 35561,41845 35560,41850 35560,41855 35560,41860 35559,41865 35559,41871 35559,42230 35559,42235 35560,42240 35560,42246 35560,42251 35561,42256 35562,42261 35562,42266 35563,42271 35564,42276 35566,42281 35567,42286 35568,42291 35570,42296 35572,42301 35574,42306 35575,42311 35578,42315 35579,42320 35582,42325 35584,42329 35587,42334 35589,42338 35592,42343 35595,42347 35598,42351 35601,42356 35604,42359 35607,42363 35610,42367 35614,42371 35617,42375 35621,42379 35625,42382 35628,42386 35632,42389 35636,42393 35640,42396 35644,42399 35648,42402 35653,42405 35657,42408 35661,42410 35666,42413 35670,42415 35675,42418 35679,42420 35684,42422 35689,42424 35694,42426 35698,42428 35703,42430 35708,42431 35713,42433 35718,42434 35723,42435 35728,42436 35733,42437 35738,42438 35743,42439 35748,42439 35754,42440 35759,42440 35764,42440 35769,42440 36335,42440 36335,42050 Z"/>
    <path fill="none" stroke="rgb(255,255,255)" d="M 36335,42050 L 36335,41660 35769,41660 35764,41660 35759,41660 35754,41660 35748,41660 35743,41661 35738,41662 35733,41662 35728,41663 35723,41664 35718,41666 35713,41667 35708,41668 35703,41670 35698,41672 35694,41673 35689,41675 35684,41678 35679,41681 35675,41683 35670,41685 35666,41688 35661,41690 35657,41693 35653,41696 35648,41699 35644,41702 35640,41705 35636,41708 35632,41711 35628,41715 35625,41718 35621,41722 35617,41725 35614,41729 35610,41733 35607,41737 35604,41741 35601,41745 35598,41750 35595,41754 35592,41758 35589,41762 35587,41767 35584,41771 35582,41776 35579,41781 35578,41785 35575,41790 35574,41795 35572,41800 35570,41805 35568,41810 35567,41814 35566,41819 35564,41824 35563,41829 35562,41835 35562,41840 35561,41845 35560,41850 35560,41855 35560,41860 35559,41865 35559,41871 35559,42230 35559,42235 35560,42240 35560,42246 35560,42251 35561,42256 35562,42261 35562,42266 35563,42271 35564,42276 35566,42281 35567,42286 35568,42291 35570,42296 35572,42301 35574,42306 35575,42311 35578,42315 35579,42320 35582,42325 35584,42329 35587,42334 35589,42338 35592,42343 35595,42347 35598,42351 35601,42356 35604,42359 35607,42363 35610,42367 35614,42371 35617,42375 35621,42379 35625,42382 35628,42386 35632,42389 35636,42393 35640,42396 35644,42399 35648,42402 35653,42405 35657,42408 35661,42410 35666,42413 35670,42415 35675,42418 35679,42420 35684,42422 35689,42424 35694,42426 35698,42428 35703,42430 35708,42431 35713,42433 35718,42434 35723,42435 35728,42436 35733,42437 35738,42438 35743,42439 35748,42439 35754,42440 35759,42440 35764,42440 35769,42440 36335,42440 36335,42050 Z"/>
   </g>
  </g>
  <g class="com.sun.star.drawing.PolyPolygonShape">
   <g id="id5">
    <rect class="BoundingBox" stroke="none" fill="none" x="40137" y="41749" width="603" height="603"/>
    <path fill="rgb(150,0,0)" stroke="none" d="M 40138,41974 L 40138,42124 40438,42124 40438,42350 40738,42049 40438,41750 40438,41974 40138,41974 Z"/>
    <path fill="none" stroke="rgb(150,0,0)" d="M 40138,41974 L 40138,42124 40438,42124 40438,42350 40738,42049 40438,41750 40438,41974 40138,41974 Z"/>
   </g>
  </g>
  <g class="com.sun.star.drawing.PolyPolygonShape">
   <g id="id6">
    <rect class="BoundingBox" stroke="none" fill="none" x="35648" y="41749" width="599" height="603"/>
    <path fill="rgb(0,0,0)" stroke="none" d="M 36081,41878 L 36170,41786 36158,41774 36067,41866 36054,41852 36146,41761 36133,41750 36038,41843 36035,41846 36032,41849 36029,41853 36026,41857 36024,41860 36021,41864 36019,41868 36017,41872 36015,41875 36014,41878 36013,41881 36012,41885 36011,41888 36011,41891 36010,41895 36010,41898 36010,41902 36010,41906 36009,41911 36009,41915 36009,41919 36008,41923 36007,41927 36006,41932 36006,41934 36005,41937 36004,41939 36003,41942 36001,41944 36000,41946 35999,41948 35997,41951 35991,41958 35985,41964 35978,41971 35972,41978 35965,41984 35958,41991 35952,41997 35944,42003 35938,41997 35930,41991 35925,41984 35919,41978 35913,41971 35907,41964 35902,41957 35897,41950 35894,41946 35892,41942 35890,41938 35888,41934 35886,41930 35884,41926 35883,41921 35881,41917 35881,41913 35880,41908 35879,41904 35878,41900 35878,41895 35877,41890 35877,41886 35877,41881 35878,41877 35878,41873 35877,41869 35877,41865 35877,41861 35876,41857 35876,41853 35875,41849 35874,41845 35873,41841 35872,41838 35870,41834 35869,41830 35867,41827 35866,41823 35864,41819 35862,41816 35860,41812 35858,41809 35855,41806 35853,41802 35851,41799 35848,41796 35845,41793 35843,41790 35840,41787 35837,41784 35834,41782 35831,41780 35828,41777 35824,41775 35821,41772 35818,41770 35814,41769 35811,41767 35807,41765 35804,41763 35801,41762 35797,41760 35793,41759 35790,41757 35786,41756 35782,41755 35779,41754 35775,41753 35771,41752 35767,41751 35764,41750 35760,41750 35756,41750 35753,41750 35749,41750 35745,41750 35742,41750 35738,41750 35734,41751 35731,41752 35727,41753 35724,41754 35720,41755 35717,41757 35714,41759 35710,41760 35707,41762 35704,41764 35701,41767 35699,41769 35696,41772 35693,41774 35691,41777 35688,41780 35686,41783 35684,41786 35682,41789 35680,41792 35679,41796 35678,41799 35676,41803 35675,41806 35674,41809 35674,41813 35673,41816 35672,41819 35672,41822 35672,41825 35671,41829 35671,41832 35671,41835 35671,41838 35671,41841 35671,41845 35672,41848 35672,41851 35672,41854 35673,41858 35674,41861 35674,41864 35675,41867 35676,41870 35677,41873 35678,41876 35680,41879 35680,41882 35682,41885 35683,41888 35685,41891 35686,41894 35688,41896 35690,41899 35692,41901 35694,41904 35696,41907 35699,41910 35702,41914 35705,41917 35708,41921 35711,41924 35715,41927 35718,41930 35722,41934 35725,41937 35729,41940 35733,41942 35736,41945 35740,41948 35744,41950 35749,41953 35753,41955 35757,41958 35762,41960 35767,41962 35772,41964 35777,41965 35782,41967 35788,41968 35793,41969 35801,41970 35808,41972 35815,41973 35823,41975 35830,41976 35838,41978 35845,41980 35853,41982 35855,41982 35857,41983 35859,41984 35862,41985 35864,41986 35866,41987 35868,41989 35870,41990 35883,42001 35896,42012 35898,42015 35901,42017 35903,42020 35906,42022 35907,42025 35909,42028 35911,42031 35913,42034 35658,42300 35655,42302 35654,42304 35653,42307 35652,42309 35651,42311 35650,42314 35650,42316 35649,42319 35649,42322 35649,42324 35650,42327 35651,42329 35651,42331 35652,42334 35653,42336 35655,42338 35657,42340 35658,42342 35660,42344 35663,42345 35665,42347 35667,42348 35670,42349 35672,42349 35675,42350 35677,42350 35680,42350 35682,42350 35685,42349 35687,42349 35690,42348 35692,42347 35944,42068 36188,42339 36189,42341 36190,42342 36191,42343 36192,42344 36194,42345 36195,42346 36196,42346 36198,42347 36199,42348 36201,42348 36202,42349 36204,42349 36205,42350 36207,42350 36208,42350 36210,42350 36211,42350 36213,42350 36215,42350 36216,42350 36218,42350 36219,42350 36221,42349 36222,42349 36224,42348 36225,42348 36227,42347 36228,42346 36230,42345 36231,42344 36232,42343 36233,42342 36234,42341 36235,42340 36236,42339 36238,42338 36238,42337 36239,42335 36240,42334 36241,42333 36242,42331 36242,42330 36243,42328 36243,42327 36244,42325 36244,42324 36244,42322 36245,42321 36245,42319 36245,42317 36245,42316 36245,42314 36244,42313 36244,42311 36244,42310 36243,42308 36243,42307 36242,42305 36242,42304 36241,42302 36240,42301 36239,42299 36238,42298 36237,42297 35974,42031 36018,41983 36021,41980 36024,41977 36027,41975 36030,41973 36033,41971 36036,41969 36039,41967 36043,41965 36046,41964 36050,41962 36053,41961 36057,41960 36061,41959 36064,41959 36068,41959 36072,41959 36074,41958 36077,41958 36079,41958 36082,41957 36084,41957 36086,41956 36088,41956 36090,41955 36093,41954 36095,41953 36097,41952 36099,41951 36101,41950 36103,41949 36105,41947 36107,41946 36223,41837 36211,41825 36116,41915 36106,41904 36196,41812 36184,41800 36092,41889 36081,41878 Z"/>
    <path fill="none" stroke="rgb(0,0,0)" d="M 36081,41878 L 36170,41786 36158,41774 36067,41866 36054,41852 36146,41761 36133,41750 36038,41843 36035,41846 36032,41849 36029,41853 36026,41857 36024,41860 36021,41864 36019,41868 36017,41872 36015,41875 36014,41878 36013,41881 36012,41885 36011,41888 36011,41891 36010,41895 36010,41898 36010,41902 36010,41906 36009,41911 36009,41915 36009,41919 36008,41923 36007,41927 36006,41932 36006,41934 36005,41937 36004,41939 36003,41942 36001,41944 36000,41946 35999,41948 35997,41951 35991,41958 35985,41964 35978,41971 35972,41978 35965,41984 35958,41991 35952,41997 35944,42003 35938,41997 35930,41991 35925,41984 35919,41978 35913,41971 35907,41964 35902,41957 35897,41950 35894,41946 35892,41942 35890,41938 35888,41934 35886,41930 35884,41926 35883,41921 35881,41917 35881,41913 35880,41908 35879,41904 35878,41900 35878,41895 35877,41890 35877,41886 35877,41881 35878,41877 35878,41873 35877,41869 35877,41865 35877,41861 35876,41857 35876,41853 35875,41849 35874,41845 35873,41841 35872,41838 35870,41834 35869,41830 35867,41827 35866,41823 35864,41819 35862,41816 35860,41812 35858,41809 35855,41806 35853,41802 35851,41799 35848,41796 35845,41793 35843,41790 35840,41787 35837,41784 35834,41782 35831,41780 35828,41777 35824,41775 35821,41772 35818,41770 35814,41769 35811,41767 35807,41765 35804,41763 35801,41762 35797,41760 35793,41759 35790,41757 35786,41756 35782,41755 35779,41754 35775,41753 35771,41752 35767,41751 35764,41750 35760,41750 35756,41750 35753,41750 35749,41750 35745,41750 35742,41750 35738,41750 35734,41751 35731,41752 35727,41753 35724,41754 35720,41755 35717,41757 35714,41759 35710,41760 35707,41762 35704,41764 35701,41767 35699,41769 35696,41772 35693,41774 35691,41777 35688,41780 35686,41783 35684,41786 35682,41789 35680,41792 35679,41796 35678,41799 35676,41803 35675,41806 35674,41809 35674,41813 35673,41816 35672,41819 35672,41822 35672,41825 35671,41829 35671,41832 35671,41835 35671,41838 35671,41841 35671,41845 35672,41848 35672,41851 35672,41854 35673,41858 35674,41861 35674,41864 35675,41867 35676,41870 35677,41873 35678,41876 35680,41879 35680,41882 35682,41885 35683,41888 35685,41891 35686,41894 35688,41896 35690,41899 35692,41901 35694,41904 35696,41907 35699,41910 35702,41914 35705,41917 35708,41921 35711,41924 35715,41927 35718,41930 35722,41934 35725,41937 35729,41940 35733,41942 35736,41945 35740,41948 35744,41950 35749,41953 35753,41955 35757,41958 35762,41960 35767,41962 35772,41964 35777,41965 35782,41967 35788,41968 35793,41969 35801,41970 35808,41972 35815,41973 35823,41975 35830,41976 35838,41978 35845,41980 35853,41982 35855,41982 35857,41983 35859,41984 35862,41985 35864,41986 35866,41987 35868,41989 35870,41990 35883,42001 35896,42012 35898,42015 35901,42017 35903,42020 35906,42022 35907,42025 35909,42028 35911,42031 35913,42034 35658,42300 35655,42302 35654,42304 35653,42307 35652,42309 35651,42311 35650,42314 35650,42316 35649,42319 35649,42322 35649,42324 35650,42327 35651,42329 35651,42331 35652,42334 35653,42336 35655,42338 35657,42340 35658,42342 35660,42344 35663,42345 35665,42347 35667,42348 35670,42349 35672,42349 35675,42350 35677,42350 35680,42350 35682,42350 35685,42349 35687,42349 35690,42348 35692,42347 35944,42068 36188,42339 36189,42341 36190,42342 36191,42343 36192,42344 36194,42345 36195,42346 36196,42346 36198,42347 36199,42348 36201,42348 36202,42349 36204,42349 36205,42350 36207,42350 36208,42350 36210,42350 36211,42350 36213,42350 36215,42350 36216,42350 36218,42350 36219,42350 36221,42349 36222,42349 36224,42348 36225,42348 36227,42347 36228,42346 36230,42345 36231,42344 36232,42343 36233,42342 36234,42341 36235,42340 36236,42339 36238,42338 36238,42337 36239,42335 36240,42334 36241,42333 36242,42331 36242,42330 36243,42328 36243,42327 36244,42325 36244,42324 36244,42322 36245,42321 36245,42319 36245,42317 36245,42316 36245,42314 36244,42313 36244,42311 36244,42310 36243,42308 36243,42307 36242,42305 36242,42304 36241,42302 36240,42301 36239,42299 36238,42298 36237,42297 35974,42031 36018,41983 36021,41980 36024,41977 36027,41975 36030,41973 36033,41971 36036,41969 36039,41967 36043,41965 36046,41964 36050,41962 36053,41961 36057,41960 36061,41959 36064,41959 36068,41959 36072,41959 36074,41958 36077,41958 36079,41958 36082,41957 36084,41957 36086,41956 36088,41956 36090,41955 36093,41954 36095,41953 36097,41952 36099,41951 36101,41950 36103,41949 36105,41947 36107,41946 36223,41837 36211,41825 36116,41915 36106,41904 36196,41812 36184,41800 36092,41889 36081,41878 Z"/>
   </g>
  </g>
 </g>
</svg>