<?xml version="1.0" encoding="UTF-8"?>
<!DOCTYPE svg PUBLIC "-//W3C//DTD SVG 1.1//EN" "http://www.w3.org/Graphics/SVG/1.1/DTD/svg11.dtd">
<svg version="1.2" width="25.04mm" height="25.03mm" viewBox="41448 39999 2504 2503" preserveAspectRatio="xMidYMid" fill-rule="evenodd" stroke-width="28.222" stroke-linejoin="round" xmlns="http://www.w3.org/2000/svg" xmlns:ooo="http://xml.openoffice.org/svg/export" xmlns:xlink="http://www.w3.org/1999/xlink" xmlns:presentation="http://sun.com/xmlns/staroffice/presentation" xmlns:smil="http://www.w3.org/2001/SMIL20/" xmlns:anim="urn:oasis:names:tc:opendocument:xmlns:animation:1.0" xml:space="preserve">
 <defs class="EmbeddedBulletChars">
  <g id="bullet-char-template-57356" transform="scale(0.00048828125,-0.00048828125)">
   <path d="M 580,1141 L 1163,571 580,0 -4,571 580,1141 Z"/>
  </g>
  <g id="bullet-char-template-57354" transform="scale(0.00048828125,-0.00048828125)">
   <path d="M 8,1128 L 1137,1128 1137,0 8,0 8,1128 Z"/>
  </g>
  <g id="bullet-char-template-10146" transform="scale(0.00048828125,-0.00048828125)">
   <path d="M 174,0 L 602,739 174,1481 1456,739 174,0 Z M 1358,739 L 309,1346 659,739 1358,739 Z"/>
  </g>
  <g id="bullet-char-template-10132" transform="scale(0.00048828125,-0.00048828125)">
   <path d="M 2015,739 L 1276,0 717,0 1260,543 174,543 174,936 1260,936 717,1481 1274,1481 2015,739 Z"/>
  </g>
  <g id="bullet-char-template-10007" transform="scale(0.00048828125,-0.00048828125)">
   <path d="M 0,-2 C -7,14 -16,27 -25,37 L 356,567 C 262,823 215,952 215,954 215,979 228,992 255,992 264,992 276,990 289,987 310,991 331,999 354,1012 L 381,999 492,748 772,1049 836,1024 860,1049 C 881,1039 901,1025 922,1006 886,937 835,863 770,784 769,783 710,716 594,584 L 774,223 C 774,196 753,168 711,139 L 727,119 C 717,90 699,76 672,76 641,76 570,178 457,381 L 164,-76 C 142,-110 111,-127 72,-127 30,-127 9,-110 8,-76 1,-67 -2,-52 -2,-32 -2,-23 -1,-13 0,-2 Z"/>
  </g>
  <g id="bullet-char-template-10004" transform="scale(0.00048828125,-0.00048828125)">
   <path d="M 285,-33 C 182,-33 111,30 74,156 52,228 41,333 41,471 41,549 55,616 82,672 116,743 169,778 240,778 293,778 328,747 346,684 L 369,508 C 377,444 397,411 428,410 L 1163,1116 C 1174,1127 1196,1133 1229,1133 1271,1133 1292,1118 1292,1087 L 1292,965 C 1292,929 1282,901 1262,881 L 442,47 C 390,-6 338,-33 285,-33 Z"/>
  </g>
  <g id="bullet-char-template-9679" transform="scale(0.00048828125,-0.00048828125)">
   <path d="M 813,0 C 632,0 489,54 383,161 276,268 223,411 223,592 223,773 276,916 383,1023 489,1130 632,1184 813,1184 992,1184 1136,1130 1245,1023 1353,916 1407,772 1407,592 1407,412 1353,268 1245,161 1136,54 992,0 813,0 Z"/>
  </g>
  <g id="bullet-char-template-8226" transform="scale(0.00048828125,-0.00048828125)">
   <path d="M 346,457 C 273,457 209,483 155,535 101,586 74,649 74,723 74,796 101,859 155,911 209,963 273,989 346,989 419,989 480,963 531,910 582,859 608,796 608,723 608,648 583,586 532,535 482,483 420,457 346,457 Z"/>
  </g>
  <g id="bullet-char-template-8211" transform="scale(0.00048828125,-0.00048828125)">
   <path d="M -4,459 L 1135,459 1135,606 -4,606 -4,459 Z"/>
  </g>
  <g id="bullet-char-template-61548" transform="scale(0.00048828125,-0.00048828125)">
   <path d="M 173,740 C 173,903 231,1043 346,1159 462,1274 601,1332 765,1332 928,1332 1067,1274 1183,1159 1299,1043 1357,903 1357,740 1357,577 1299,437 1183,322 1067,206 928,148 765,148 601,148 462,206 346,322 231,437 173,577 173,740 Z"/>
  </g>
 </defs>
 <g class="Page">
  <g class="com.sun.star.drawing.PolyPolygonShape">
   <g id="id3">
    <rect class="BoundingBox" stroke="none" fill="none" x="41448" y="39999" width="2504" height="2503"/>
    <path fill="rgb(255,129,0)" stroke="none" d="M 41531,42500 L 43869,42500 43871,42500 43873,42500 43875,42500 43877,42500 43879,42500 43881,42499 43883,42499 43885,42499 43887,42498 43889,42498 43891,42498 43893,42497 43895,42496 43896,42496 43898,42495 43900,42494 43902,42493 43904,42493 43906,42492 43907,42491 43909,42490 43911,42489 43913,42488 43914,42487 43916,42486 43918,42484 43919,42483 43921,42482 43922,42481 43924,42479 43925,42478 43927,42477 43928,42475 43929,42474 43931,42472 43932,42471 43933,42469 43934,42468 43936,42466 43937,42464 43938,42463 43939,42461 43940,42459 43941,42457 43942,42456 43943,42454 43943,42452 43944,42450 43945,42448 43946,42446 43946,42445 43947,42443 43947,42441 43948,42439 43948,42437 43949,42435 43949,42433 43949,42431 43950,42429 43950,42427 43950,42425 43950,42423 43950,42421 43950,42419 43950,40081 43950,40079 43950,40077 43950,40075 43950,40073 43950,40071 43949,40069 43949,40067 43949,40065 43948,40063 43948,40061 43947,40059 43947,40057 43946,40055 43946,40053 43945,40052 43944,40050 43943,40048 43943,40046 43942,40044 43941,40042 43940,40041 43939,40039 43938,40037 43937,40036 43936,40034 43934,40032 43933,40031 43932,40029 43931,40028 43929,40026 43928,40025 43927,40023 43925,40022 43924,40021 43922,40019 43921,40018 43919,40017 43918,40016 43916,40014 43914,40013 43913,40012 43911,40011 43909,40010 43907,40009 43906,40008 43904,40007 43902,40007 43900,40006 43898,40005 43896,40004 43895,40004 43893,40003 43891,40002 43889,40002 43887,40001 43885,40001 43883,40001 43881,40000 43879,40000 43877,40000 43875,40000 43873,40000 43871,40000 43869,40000 41531,40000 41529,40000 41527,40000 41525,40000 41523,40000 41521,40000 41519,40000 41517,40001 41515,40001 41513,40001 41511,40002 41509,40002 41507,40003 41505,40004 41503,40004 41502,40005 41500,40006 41498,40007 41496,40007 41494,40008 41492,40009 41491,40010 41489,40011 41487,40012 41486,40013 41484,40014 41482,40016 41481,40017 41479,40018 41478,40019 41476,40021 41475,40022 41473,40023 41472,40025 41471,40026 41469,40028 41468,40029 41467,40031 41466,40032 41464,40034 41463,40036 41462,40037 41461,40039 41460,40041 41459,40042 41458,40044 41457,40046 41457,40048 41456,40050 41455,40052 41454,40053 41454,40055 41453,40057 41452,40059 41452,40061 41451,40063 41451,40065 41451,40067 41450,40069 41450,40071 41450,40073 41450,40075 41450,40077 41449,40079 41449,40081 41449,42419 41449,42421 41450,42423 41450,42425 41450,42427 41450,42429 41450,42431 41451,42433 41451,42435 41451,42437 41452,42439 41452,42441 41453,42443 41454,42445 41454,42446 41455,42448 41456,42450 41457,42452 41457,42454 41458,42456 41459,42457 41460,42459 41461,42461 41462,42463 41463,42464 41464,42466 41466,42468 41467,42469 41468,42471 41469,42472 41471,42474 41472,42475 41473,42477 41475,42478 41476,42479 41478,42481 41479,42482 41481,42483 41482,42484 41484,42486 41486,42487 41487,42488 41489,42489 41491,42490 41492,42491 41494,42492 41496,42493 41498,42493 41500,42494 41502,42495 41503,42496 41505,42496 41507,42497 41509,42498 41511,42498 41513,42498 41515,42499 41517,42499 41519,42499 41521,42500 41523,42500 41525,42500 41527,42500 41529,42500 41531,42500 Z"/>
    <path fill="none" stroke="rgb(255,129,0)" d="M 41531,42500 L 43869,42500 43871,42500 43873,42500 43875,42500 43877,42500 43879,42500 43881,42499 43883,42499 43885,42499 43887,42498 43889,42498 43891,42498 43893,42497 43895,42496 43896,42496 43898,42495 43900,42494 43902,42493 43904,42493 43906,42492 43907,42491 43909,42490 43911,42489 43913,42488 43914,42487 43916,42486 43918,42484 43919,42483 43921,42482 43922,42481 43924,42479 43925,42478 43927,42477 43928,42475 43929,42474 43931,42472 43932,42471 43933,42469 43934,42468 43936,42466 43937,42464 43938,42463 43939,42461 43940,42459 43941,42457 43942,42456 43943,42454 43943,42452 43944,42450 43945,42448 43946,42446 43946,42445 43947,42443 43947,42441 43948,42439 43948,42437 43949,42435 43949,42433 43949,42431 43950,42429 43950,42427 43950,42425 43950,42423 43950,42421 43950,42419 43950,40081 43950,40079 43950,40077 43950,40075 43950,40073 43950,40071 43949,40069 43949,40067 43949,40065 43948,40063 43948,40061 43947,40059 43947,40057 43946,40055 43946,40053 43945,40052 43944,40050 43943,40048 43943,40046 43942,40044 43941,40042 43940,40041 43939,40039 43938,40037 43937,40036 43936,40034 43934,40032 43933,40031 43932,40029 43931,40028 43929,40026 43928,40025 43927,40023 43925,40022 43924,40021 43922,40019 43921,40018 43919,40017 43918,40016 43916,40014 43914,40013 43913,40012 43911,40011 43909,40010 43907,40009 43906,40008 43904,40007 43902,40007 43900,40006 43898,40005 43896,40004 43895,40004 43893,40003 43891,40002 43889,40002 43887,40001 43885,40001 43883,40001 43881,40000 43879,40000 43877,40000 43875,40000 43873,40000 43871,40000 43869,40000 41531,40000 41529,40000 41527,40000 41525,40000 41523,40000 41521,40000 41519,40000 41517,40001 41515,40001 41513,40001 41511,40002 41509,40002 41507,40003 41505,40004 41503,40004 41502,40005 41500,40006 41498,40007 41496,40007 41494,40008 41492,40009 41491,40010 41489,40011 41487,40012 41486,40013 41484,40014 41482,40016 41481,40017 41479,40018 41478,40019 41476,40021 41475,40022 41473,40023 41472,40025 41471,40026 41469,40028 41468,40029 41467,40031 41466,40032 41464,40034 41463,40036 41462,40037 41461,40039 41460,40041 41459,40042 41458,40044 41457,40046 41457,40048 41456,40050 41455,40052 41454,40053 41454,40055 41453,40057 41452,40059 41452,40061 41451,40063 41451,40065 41451,40067 41450,40069 41450,40071 41450,40073 41450,40075 41450,40077 41449,40079 41449,40081 41449,42419 41449,42421 41450,42423 41450,42425 41450,42427 41450,42429 41450,42431 41451,42433 41451,42435 41451,42437 41452,42439 41452,42441 41453,42443 41454,42445 41454,42446 41455,42448 41456,42450 41457,42452 41457,42454 41458,42456 41459,42457 41460,42459 41461,42461 41462,42463 41463,42464 41464,42466 41466,42468 41467,42469 41468,42471 41469,42472 41471,42474 41472,42475 41473,42477 41475,42478 41476,42479 41478,42481 41479,42482 41481,42483 41482,42484 41484,42486 41486,42487 41487,42488 41489,42489 41491,42490 41492,42491 41494,42492 41496,42493 41498,42493 41500,42494 41502,42495 41503,42496 41505,42496 41507,42497 41509,42498 41511,42498 41513,42498 41515,42499 41517,42499 41519,42499 41521,42500 41523,42500 41525,42500 41527,42500 41529,42500 41531,42500 Z"/>
   </g>
  </g>
  <g class="com.sun.star.drawing.PolyPolygonShape">
   <g id="id4">
    <rect class="BoundingBox" stroke="none" fill="none" x="41467" y="40017" width="2467" height="2467"/>
    <path fill="rgb(0,0,0)" stroke="none" d="M 41531,42482 L 43869,42482 43871,42482 43872,42482 43874,42481 43875,42481 43877,42481 43878,42481 43880,42481 43881,42480 43883,42480 43884,42480 43886,42479 43887,42479 43889,42479 43890,42478 43892,42477 43893,42477 43894,42476 43896,42476 43897,42475 43899,42474 43900,42473 43901,42473 43903,42472 43904,42471 43905,42470 43906,42469 43908,42468 43909,42467 43910,42467 43911,42465 43912,42464 43913,42463 43914,42462 43915,42461 43916,42460 43917,42459 43918,42458 43919,42456 43920,42455 43921,42454 43922,42453 43923,42451 43923,42450 43924,42449 43925,42447 43926,42446 43926,42445 43927,42443 43927,42442 43928,42440 43929,42439 43929,42437 43929,42436 43930,42434 43930,42433 43930,42431 43931,42430 43931,42428 43931,42427 43931,42425 43931,42424 43932,42422 43932,42421 43932,42419 43932,40081 43932,40079 43932,40078 43931,40076 43931,40075 43931,40073 43931,40072 43931,40070 43930,40068 43930,40067 43930,40066 43929,40064 43929,40063 43929,40061 43928,40060 43927,40058 43927,40057 43926,40055 43926,40054 43925,40053 43924,40051 43923,40050 43923,40049 43922,40047 43921,40046 43920,40045 43919,40043 43918,40042 43917,40041 43916,40040 43915,40039 43914,40038 43913,40037 43912,40036 43911,40034 43910,40033 43909,40032 43908,40031 43906,40030 43905,40030 43904,40029 43903,40028 43901,40027 43900,40026 43899,40026 43897,40025 43896,40024 43894,40024 43893,40023 43892,40022 43890,40022 43889,40021 43887,40021 43886,40021 43884,40020 43883,40020 43881,40019 43880,40019 43878,40019 43877,40019 43875,40019 43874,40018 43872,40018 43871,40018 43869,40018 41531,40018 41529,40018 41528,40018 41526,40018 41525,40019 41523,40019 41522,40019 41520,40019 41518,40019 41517,40020 41516,40020 41514,40021 41513,40021 41511,40021 41510,40022 41508,40022 41507,40023 41505,40024 41504,40024 41503,40025 41501,40026 41500,40026 41499,40027 41497,40028 41496,40029 41495,40030 41493,40030 41492,40031 41491,40032 41490,40033 41489,40034 41488,40036 41487,40037 41486,40038 41484,40039 41483,40040 41482,40041 41481,40042 41480,40043 41480,40045 41479,40046 41478,40047 41477,40049 41476,40050 41476,40051 41475,40053 41474,40054 41474,40055 41473,40057 41472,40058 41472,40060 41471,40061 41471,40063 41471,40064 41470,40066 41470,40067 41469,40068 41469,40070 41469,40072 41469,40073 41469,40075 41468,40076 41468,40078 41468,40079 41468,40081 41468,42419 41468,42421 41468,42422 41468,42424 41469,42425 41469,42427 41469,42428 41469,42430 41469,42431 41470,42433 41470,42434 41471,42436 41471,42437 41471,42439 41472,42440 41472,42442 41473,42443 41474,42445 41474,42446 41475,42447 41476,42449 41476,42450 41477,42451 41478,42453 41479,42454 41480,42455 41480,42456 41481,42458 41482,42459 41483,42460 41484,42461 41486,42462 41487,42463 41488,42464 41489,42465 41490,42467 41491,42467 41492,42468 41493,42469 41495,42470 41496,42471 41497,42472 41499,42473 41500,42473 41501,42474 41503,42475 41504,42476 41505,42476 41507,42477 41508,42477 41510,42478 41511,42479 41513,42479 41514,42479 41516,42480 41517,42480 41518,42480 41520,42481 41522,42481 41523,42481 41525,42481 41526,42481 41528,42482 41529,42482 41531,42482 Z"/>
    <path fill="none" stroke="rgb(0,0,0)" d="M 41531,42482 L 43869,42482 43871,42482 43872,42482 43874,42481 43875,42481 43877,42481 43878,42481 43880,42481 43881,42480 43883,42480 43884,42480 43886,42479 43887,42479 43889,42479 43890,42478 43892,42477 43893,42477 43894,42476 43896,42476 43897,42475 43899,42474 43900,42473 43901,42473 43903,42472 43904,42471 43905,42470 43906,42469 43908,42468 43909,42467 43910,42467 43911,42465 43912,42464 43913,42463 43914,42462 43915,42461 43916,42460 43917,42459 43918,42458 43919,42456 43920,42455 43921,42454 43922,42453 43923,42451 43923,42450 43924,42449 43925,42447 43926,42446 43926,42445 43927,42443 43927,42442 43928,42440 43929,42439 43929,42437 43929,42436 43930,42434 43930,42433 43930,42431 43931,42430 43931,42428 43931,42427 43931,42425 43931,42424 43932,42422 43932,42421 43932,42419 43932,40081 43932,40079 43932,40078 43931,40076 43931,40075 43931,40073 43931,40072 43931,40070 43930,40068 43930,40067 43930,40066 43929,40064 43929,40063 43929,40061 43928,40060 43927,40058 43927,40057 43926,40055 43926,40054 43925,40053 43924,40051 43923,40050 43923,40049 43922,40047 43921,40046 43920,40045 43919,40043 43918,40042 43917,40041 43916,40040 43915,40039 43914,40038 43913,40037 43912,40036 43911,40034 43910,40033 43909,40032 43908,40031 43906,40030 43905,40030 43904,40029 43903,40028 43901,40027 43900,40026 43899,40026 43897,40025 43896,40024 43894,40024 43893,40023 43892,40022 43890,40022 43889,40021 43887,40021 43886,40021 43884,40020 43883,40020 43881,40019 43880,40019 43878,40019 43877,40019 43875,40019 43874,40018 43872,40018 43871,40018 43869,40018 41531,40018 41529,40018 41528,40018 41526,40018 41525,40019 41523,40019 41522,40019 41520,40019 41518,40019 41517,40020 41516,40020 41514,40021 41513,40021 41511,40021 41510,40022 41508,40022 41507,40023 41505,40024 41504,40024 41503,40025 41501,40026 41500,40026 41499,40027 41497,40028 41496,40029 41495,40030 41493,40030 41492,40031 41491,40032 41490,40033 41489,40034 41488,40036 41487,40037 41486,40038 41484,40039 41483,40040 41482,40041 41481,40042 41480,40043 41480,40045 41479,40046 41478,40047 41477,40049 41476,40050 41476,40051 41475,40053 41474,40054 41474,40055 41473,40057 41472,40058 41472,40060 41471,40061 41471,40063 41471,40064 41470,40066 41470,40067 41469,40068 41469,40070 41469,40072 41469,40073 41469,40075 41468,40076 41468,40078 41468,40079 41468,40081 41468,42419 41468,42421 41468,42422 41468,42424 41469,42425 41469,42427 41469,42428 41469,42430 41469,42431 41470,42433 41470,42434 41471,42436 41471,42437 41471,42439 41472,42440 41472,42442 41473,42443 41474,42445 41474,42446 41475,42447 41476,42449 41476,42450 41477,42451 41478,42453 41479,42454 41480,42455 41480,42456 41481,42458 41482,42459 41483,42460 41484,42461 41486,42462 41487,42463 41488,42464 41489,42465 41490,42467 41491,42467 41492,42468 41493,42469 41495,42470 41496,42471 41497,42472 41499,42473 41500,42473 41501,42474 41503,42475 41504,42476 41505,42476 41507,42477 41508,42477 41510,42478 41511,42479 41513,42479 41514,42479 41516,42480 41517,42480 41518,42480 41520,42481 41522,42481 41523,42481 41525,42481 41526,42481 41528,42482 41529,42482 41531,42482 Z"/>
   </g>
  </g>
  <g class="com.sun.star.drawing.PolyPolygonShape">
   <g id="id5">
    <rect class="BoundingBox" stroke="none" fill="none" x="41486" y="40036" width="2429" height="2429"/>
    <path fill="rgb(255,129,0)" stroke="none" d="M 41531,42463 L 43869,42463 43871,42463 43873,42463 43876,42462 43878,42462 43880,42462 43882,42461 43884,42460 43886,42460 43888,42459 43890,42458 43892,42457 43893,42455 43895,42454 43897,42453 43898,42452 43900,42450 43902,42448 43903,42447 43904,42445 43905,42443 43907,42442 43908,42440 43909,42438 43910,42436 43910,42434 43911,42432 43912,42430 43912,42428 43912,42426 43913,42423 43913,42421 43913,42418 43913,40081 43913,40079 43913,40076 43912,40074 43912,40072 43912,40070 43911,40068 43910,40066 43910,40064 43909,40062 43908,40060 43907,40058 43905,40056 43904,40055 43903,40053 43902,40051 43900,40050 43898,40048 43897,40047 43895,40046 43893,40044 43892,40043 43890,40042 43888,40041 43886,40040 43884,40039 43882,40039 43880,40038 43878,40038 43876,40038 43873,40037 43871,40037 43869,40037 41531,40037 41529,40037 41526,40037 41524,40038 41522,40038 41520,40038 41518,40039 41516,40039 41514,40040 41512,40041 41510,40042 41508,40043 41506,40044 41505,40046 41503,40047 41501,40048 41500,40050 41498,40051 41497,40053 41496,40055 41494,40056 41493,40058 41492,40060 41491,40062 41490,40064 41489,40066 41489,40068 41488,40070 41488,40072 41487,40074 41487,40076 41487,40079 41487,40081 41487,42418 41487,42421 41487,42423 41487,42426 41488,42428 41488,42430 41489,42432 41489,42434 41490,42436 41491,42438 41492,42440 41493,42442 41494,42443 41496,42445 41497,42447 41498,42448 41500,42450 41501,42452 41503,42453 41505,42454 41506,42455 41508,42457 41510,42458 41512,42459 41514,42460 41516,42460 41518,42461 41520,42462 41522,42462 41524,42462 41526,42463 41529,42463 41531,42463 Z"/>
    <path fill="none" stroke="rgb(255,129,0)" d="M 41531,42463 L 43869,42463 43871,42463 43873,42463 43876,42462 43878,42462 43880,42462 43882,42461 43884,42460 43886,42460 43888,42459 43890,42458 43892,42457 43893,42455 43895,42454 43897,42453 43898,42452 43900,42450 43902,42448 43903,42447 43904,42445 43905,42443 43907,42442 43908,42440 43909,42438 43910,42436 43910,42434 43911,42432 43912,42430 43912,42428 43912,42426 43913,42423 43913,42421 43913,42418 43913,40081 43913,40079 43913,40076 43912,40074 43912,40072 43912,40070 43911,40068 43910,40066 43910,40064 43909,40062 43908,40060 43907,40058 43905,40056 43904,40055 43903,40053 43902,40051 43900,40050 43898,40048 43897,40047 43895,40046 43893,40044 43892,40043 43890,40042 43888,40041 43886,40040 43884,40039 43882,40039 43880,40038 43878,40038 43876,40038 43873,40037 43871,40037 43869,40037 41531,40037 41529,40037 41526,40037 41524,40038 41522,40038 41520,40038 41518,40039 41516,40039 41514,40040 41512,40041 41510,40042 41508,40043 41506,40044 41505,40046 41503,40047 41501,40048 41500,40050 41498,40051 41497,40053 41496,40055 41494,40056 41493,40058 41492,40060 41491,40062 41490,40064 41489,40066 41489,40068 41488,40070 41488,40072 41487,40074 41487,40076 41487,40079 41487,40081 41487,42418 41487,42421 41487,42423 41487,42426 41488,42428 41488,42430 41489,42432 41489,42434 41490,42436 41491,42438 41492,42440 41493,42442 41494,42443 41496,42445 41497,42447 41498,42448 41500,42450 41501,42452 41503,42453 41505,42454 41506,42455 41508,42457 41510,42458 41512,42459 41514,42460 41516,42460 41518,42461 41520,42462 41522,42462 41524,42462 41526,42463 41529,42463 41531,42463 Z"/>
   </g>
  </g>
  <g class="com.sun.star.drawing.PolyPolygonShape">
   <g id="id6">
    <rect class="BoundingBox" stroke="none" fill="none" x="41830" y="41742" width="1247" height="129"/>
    <path fill="rgb(0,0,0)" stroke="none" d="M 43075,41743 L 41831,41743 41831,41869 43075,41869 43075,41743 Z"/>
    <path fill="none" stroke="rgb(0,0,0)" d="M 43075,41743 L 41831,41743 41831,41869 43075,41869 43075,41743 Z"/>
   </g>
  </g>
  <g class="com.sun.star.drawing.PolyPolygonShape">
   <g id="id7">
    <rect class="BoundingBox" stroke="none" fill="none" x="41642" y="41555" width="192" height="504"/>
    <path fill="rgb(255,0,0)" stroke="none" d="M 41832,41556 L 41643,41556 41643,42057 41832,42057 41832,41556 Z"/>
    <path fill="none" stroke="rgb(255,0,0)" d="M 41832,41556 L 41643,41556 41643,42057 41832,42057 41832,41556 Z"/>
   </g>
  </g>
  <g class="com.sun.star.drawing.PolyPolygonShape">
   <g id="id8">
    <rect class="BoundingBox" stroke="none" fill="none" x="43073" y="41742" width="129" height="567"/>
    <path fill="rgb(0,0,0)" stroke="none" d="M 43074,42307 L 43200,42307 43200,41743 43074,41743 43074,42307 Z"/>
    <path fill="none" stroke="rgb(0,0,0)" d="M 43074,42307 L 43200,42307 43200,41743 43074,41743 43074,42307 Z"/>
   </g>
  </g>
  <g class="com.sun.star.drawing.PolyPolygonShape">
   <g id="id9">
    <rect class="BoundingBox" stroke="none" fill="none" x="42886" y="40661" width="504" height="1085"/>
    <path fill="rgb(0,0,0)" stroke="none" d="M 43074,41744 L 43200,41744 43200,40912 43388,40912 43137,40662 42887,40912 43074,40912 43074,41744 Z"/>
    <path fill="none" stroke="rgb(0,0,0)" d="M 43074,41744 L 43200,41744 43200,40912 43388,40912 43137,40662 42887,40912 43074,40912 43074,41744 Z"/>
   </g>
  </g>
 </g>
</svg>