<?xml version="1.0" encoding="UTF-8" standalone="no"?>
<!-- Generator: Adobe Illustrator 14.0.0, SVG Export Plug-In . SVG Version: 6.00 Build 43363)  -->

<svg
   xmlns:dc="http://purl.org/dc/elements/1.1/"
   xmlns:cc="http://creativecommons.org/ns#"
   xmlns:rdf="http://www.w3.org/1999/02/22-rdf-syntax-ns#"
   xmlns:svg="http://www.w3.org/2000/svg"
   xmlns="http://www.w3.org/2000/svg"
   xmlns:sodipodi="http://sodipodi.sourceforge.net/DTD/sodipodi-0.dtd"
   xmlns:inkscape="http://www.inkscape.org/namespaces/inkscape"
   version="1.1"
   id="Calque_1"
   x="0px"
   y="0px"
   width="170.142px"
   height="102.427px"
   viewBox="0 0 170.142 102.427"
   enable-background="new 0 0 170.142 102.427"
   xml:space="preserve"
   inkscape:version="0.47 r22583"
   sodipodi:docname="Belgium board F03.svg"><metadata
   id="metadata73"><rdf:RDF><cc:Work
       rdf:about=""><dc:format>image/svg+xml</dc:format><dc:type
         rdf:resource="http://purl.org/dc/dcmitype/StillImage" /><dc:title></dc:title></cc:Work></rdf:RDF></metadata><defs
   id="defs71"><inkscape:perspective
   sodipodi:type="inkscape:persp3d"
   inkscape:vp_x="0 : 51.213501 : 1"
   inkscape:vp_y="0 : 1000 : 0"
   inkscape:vp_z="170.142 : 51.213501 : 1"
   inkscape:persp3d-origin="85.070999 : 34.142334 : 1"
   id="perspective75" />
<inkscape:perspective
   sodipodi:type="inkscape:persp3d"
   inkscape:vp_x="0 : 51.081001 : 1"
   inkscape:vp_y="0 : 1000 : 0"
   inkscape:vp_z="170.577 : 51.081001 : 1"
   inkscape:persp3d-origin="85.288498 : 34.054001 : 1"
   id="perspective9253">
		</inkscape:perspective>
	
		<inkscape:perspective
   sodipodi:type="inkscape:persp3d"
   inkscape:vp_x="0 : 0.5 : 1"
   inkscape:vp_y="0 : 1000 : 0"
   inkscape:vp_z="1 : 0.5 : 1"
   inkscape:persp3d-origin="0.5 : 0.33333333 : 1"
   id="perspective2824">
		</inkscape:perspective>
	
		<inkscape:perspective
   sodipodi:type="inkscape:persp3d"
   inkscape:vp_x="0 : 526.18109 : 1"
   inkscape:vp_y="0 : 1000 : 0"
   inkscape:vp_z="744.09448 : 526.18109 : 1"
   inkscape:persp3d-origin="372.04724 : 350.78739 : 1"
   id="perspective10">
		</inkscape:perspective>
	
	
		
	
	
	
	
	
	
</defs><sodipodi:namedview
   pagecolor="#ffffff"
   bordercolor="#666666"
   borderopacity="1"
   objecttolerance="10"
   gridtolerance="10"
   guidetolerance="10"
   inkscape:pageopacity="0"
   inkscape:pageshadow="2"
   inkscape:window-width="640"
   inkscape:window-height="483"
   id="namedview69"
   showgrid="false"
   inkscape:zoom="2.3040799"
   inkscape:cx="85.070999"
   inkscape:cy="51.213501"
   inkscape:window-x="0"
   inkscape:window-y="0"
   inkscape:window-maximized="0"
   inkscape:current-layer="Calque_1" />
<path
   d="M7.658,100.485h154.907c3.158,0,5.678-2.564,5.678-5.73v-87c0-3.166-2.52-5.771-5.678-5.771H7.658  c-3.159,0-5.678,2.565-5.678,5.731v87.04C1.98,97.92,4.499,100.485,7.658,100.485z"
   id="path3" />
<path
   fill="none"
   stroke="#000000"
   stroke-width="0.2"
   stroke-miterlimit="3.863"
   d="M7.658,100.485h154.907  c3.158,0,5.678-2.564,5.678-5.73v-87c0-3.166-2.52-5.771-5.678-5.771H7.658c-3.159,0-5.678,2.565-5.678,5.731v87.04  C1.98,97.92,4.499,100.485,7.658,100.485z"
   id="path5" />
<path
   fill="#FFFFFF"
   d="M162.565,3.667H7.618c-2.2,0-3.959,1.884-3.959,4.088v87.04c0,2.204,1.719,3.967,3.919,3.967h155.067  c2.199,0,3.879-1.723,3.879-3.927v-87.2C166.524,5.43,164.765,3.667,162.565,3.667z"
   id="path7" />
<path
   fill="none"
   stroke="#000000"
   stroke-width="0.2"
   stroke-miterlimit="3.863"
   d="M162.565,3.667H7.618  c-2.2,0-3.959,1.884-3.959,4.088v87.04c0,2.204,1.719,3.967,3.919,3.967h155.067c2.199,0,3.879-1.723,3.879-3.927v-87.2  C166.524,5.43,164.765,3.667,162.565,3.667z"
   id="path9" />
<path
   fill="none"
   stroke="#000000"
   stroke-width="0.2"
   stroke-miterlimit="3.863"
   d="M33.369,75.438l4.158,7.454 M170.042,94.714  V7.674c0-4.208-3.318-7.574-7.517-7.574H7.618C3.419,0.1,0.1,3.546,0.1,7.754v87c0,4.208,3.359,7.573,7.558,7.573h154.907  C166.763,102.328,170.042,98.922,170.042,94.714z"
   id="path11" />


























<path
   id="path2830"
   d="m 10.428,68.292 c 0,-15.003 0.135,-27.282 0.299,-27.286 0.164,-0.004 3.834,1.273 8.156,2.84 l 7.858,2.848 v 5.323 c 0,3.611 0.141,5.324 0.438,5.324 0.241,0 5.792,-1.463 12.335,-3.25 L 51.41,50.842 51.356,44.832 C 51.327,41.527 51.192,35.239 51.057,30.858 l -0.244,-7.965 6.473,-8.661 c 3.56,-4.764 6.553,-8.662 6.652,-8.662 0.099,0 3.318,3.757 7.154,8.349 l 6.976,8.349 v 20.021 20.019 l 6.126,-6.122 6.126,-6.122 5.219,7.819 5.218,7.819 h 4.173 4.173 v 1.395 1.394 h 4.178 4.178 v 7.965 7.964 h 2.387 2.388 l 0.012,-9.259 0.012,-9.259 12.807,-6.77 c 7.044,-3.724 15.633,-8.26 19.087,-10.08 l 6.279,-3.309 v 24.913 24.913 h -75 -75 V 68.292 l -0.003,0 z" /><path
   fill="#ED1C24"
   d="M166.444,10.118V7.594c0-2.205-1.721-3.968-3.919-3.968h-2.199L3.619,92.269v2.525  c0,2.204,1.719,3.967,3.919,3.967h2.199L166.444,10.118z"
   id="path65" />
<path
   fill="none"
   stroke="#ED1C24"
   stroke-width="0"
   stroke-miterlimit="3.863"
   d="M166.444,10.118V7.594  c0-2.205-1.721-3.968-3.919-3.968h-2.199L3.619,92.269v2.525c0,2.204,1.719,3.967,3.919,3.967h2.199L166.444,10.118z"
   id="path67" />
<path
   style="fill:none;stroke:#000000;stroke-width:0.2;stroke-miterlimit:3.86299992"
   id="path9187"
   stroke-miterlimit="3.863"
   d="m 7.459,100.356 h 155.305 c 3.166,0 5.692,-2.559 5.692,-5.717 V 7.867 c 0,-3.158 -2.526,-5.756 -5.692,-5.756 H 7.459 c -3.167,0 -5.691,2.558 -5.691,5.716 V 94.64 c -0.001,3.158 2.525,5.716 5.691,5.716 l 0,0 z" /><path
   style="fill:none;stroke:#000000;stroke-width:0.2;stroke-miterlimit:3.86299992"
   id="path9191"
   stroke-miterlimit="3.863"
   d="M 162.763,3.79 H 7.419 C 5.215,3.79 3.45,5.668 3.45,7.867 V 94.68 c 0,2.199 1.725,3.958 3.929,3.958 h 155.464 c 2.205,0 3.89,-1.719 3.89,-3.918 V 7.746 C 166.732,5.548 164.968,3.79 162.763,3.79 l 0,0 z" /><path
   style="fill:none;stroke:#000000;stroke-width:0.2;stroke-miterlimit:3.86299992"
   id="path9193"
   stroke-miterlimit="3.863"
   d="M 170.259,94.6 V 7.787 c 0,-4.198 -3.325,-7.555 -7.534,-7.555 H 7.419 c -4.209,0 -7.536,3.438 -7.536,7.635 v 86.772 c 0,4.197 3.367,7.556 7.576,7.556 h 155.305 c 4.209,0 7.495,-3.398 7.495,-7.595 l 0,0 z" /></svg>