<?xml version="1.0" encoding="UTF-8"?>
<!DOCTYPE svg PUBLIC "-//W3C//DTD SVG 1.1//EN" "http://www.w3.org/Graphics/SVG/1.1/DTD/svg11.dtd">
<svg version="1.2" width="44.97mm" height="9.03mm" viewBox="44452 39999 4497 903" preserveAspectRatio="xMidYMid" fill-rule="evenodd" stroke-width="28.222" stroke-linejoin="round" xmlns="http://www.w3.org/2000/svg" xmlns:ooo="http://xml.openoffice.org/svg/export" xmlns:xlink="http://www.w3.org/1999/xlink" xmlns:presentation="http://sun.com/xmlns/staroffice/presentation" xmlns:smil="http://www.w3.org/2001/SMIL20/" xmlns:anim="urn:oasis:names:tc:opendocument:xmlns:animation:1.0" xml:space="preserve">
 <defs class="EmbeddedBulletChars">
  <g id="bullet-char-template-57356" transform="scale(0.00048828125,-0.00048828125)">
   <path d="M 580,1141 L 1163,571 580,0 -4,571 580,1141 Z"/>
  </g>
  <g id="bullet-char-template-57354" transform="scale(0.00048828125,-0.00048828125)">
   <path d="M 8,1128 L 1137,1128 1137,0 8,0 8,1128 Z"/>
  </g>
  <g id="bullet-char-template-10146" transform="scale(0.00048828125,-0.00048828125)">
   <path d="M 174,0 L 602,739 174,1481 1456,739 174,0 Z M 1358,739 L 309,1346 659,739 1358,739 Z"/>
  </g>
  <g id="bullet-char-template-10132" transform="scale(0.00048828125,-0.00048828125)">
   <path d="M 2015,739 L 1276,0 717,0 1260,543 174,543 174,936 1260,936 717,1481 1274,1481 2015,739 Z"/>
  </g>
  <g id="bullet-char-template-10007" transform="scale(0.00048828125,-0.00048828125)">
   <path d="M 0,-2 C -7,14 -16,27 -25,37 L 356,567 C 262,823 215,952 215,954 215,979 228,992 255,992 264,992 276,990 289,987 310,991 331,999 354,1012 L 381,999 492,748 772,1049 836,1024 860,1049 C 881,1039 901,1025 922,1006 886,937 835,863 770,784 769,783 710,716 594,584 L 774,223 C 774,196 753,168 711,139 L 727,119 C 717,90 699,76 672,76 641,76 570,178 457,381 L 164,-76 C 142,-110 111,-127 72,-127 30,-127 9,-110 8,-76 1,-67 -2,-52 -2,-32 -2,-23 -1,-13 0,-2 Z"/>
  </g>
  <g id="bullet-char-template-10004" transform="scale(0.00048828125,-0.00048828125)">
   <path d="M 285,-33 C 182,-33 111,30 74,156 52,228 41,333 41,471 41,549 55,616 82,672 116,743 169,778 240,778 293,778 328,747 346,684 L 369,508 C 377,444 397,411 428,410 L 1163,1116 C 1174,1127 1196,1133 1229,1133 1271,1133 1292,1118 1292,1087 L 1292,965 C 1292,929 1282,901 1262,881 L 442,47 C 390,-6 338,-33 285,-33 Z"/>
  </g>
  <g id="bullet-char-template-9679" transform="scale(0.00048828125,-0.00048828125)">
   <path d="M 813,0 C 632,0 489,54 383,161 276,268 223,411 223,592 223,773 276,916 383,1023 489,1130 632,1184 813,1184 992,1184 1136,1130 1245,1023 1353,916 1407,772 1407,592 1407,412 1353,268 1245,161 1136,54 992,0 813,0 Z"/>
  </g>
  <g id="bullet-char-template-8226" transform="scale(0.00048828125,-0.00048828125)">
   <path d="M 346,457 C 273,457 209,483 155,535 101,586 74,649 74,723 74,796 101,859 155,911 209,963 273,989 346,989 419,989 480,963 531,910 582,859 608,796 608,723 608,648 583,586 532,535 482,483 420,457 346,457 Z"/>
  </g>
  <g id="bullet-char-template-8211" transform="scale(0.00048828125,-0.00048828125)">
   <path d="M -4,459 L 1135,459 1135,606 -4,606 -4,459 Z"/>
  </g>
  <g id="bullet-char-template-61548" transform="scale(0.00048828125,-0.00048828125)">
   <path d="M 173,740 C 173,903 231,1043 346,1159 462,1274 601,1332 765,1332 928,1332 1067,1274 1183,1159 1299,1043 1357,903 1357,740 1357,577 1299,437 1183,322 1067,206 928,148 765,148 601,148 462,206 346,322 231,437 173,577 173,740 Z"/>
  </g>
 </defs>
 <g class="Page">
  <g class="com.sun.star.drawing.PolyPolygonShape">
   <g id="id3">
    <rect class="BoundingBox" stroke="none" fill="none" x="44452" y="39999" width="4497" height="903"/>
    <path fill="rgb(255,129,0)" stroke="none" d="M 48894,40542 L 48897,40540 48900,40538 48903,40536 48905,40534 48908,40532 48911,40530 48913,40527 48916,40525 48918,40522 48921,40520 48923,40517 48925,40514 48927,40512 48929,40509 48931,40506 48933,40503 48934,40500 48936,40497 48938,40494 48939,40491 48940,40488 48941,40484 48942,40481 48943,40478 48944,40474 48945,40471 48946,40468 48946,40464 48946,40461 48947,40457 48947,40454 48947,40451 48947,40447 48947,40443 48946,40440 48946,40437 48946,40433 48945,40430 48944,40426 48943,40423 48942,40420 48941,40416 48940,40413 48939,40410 48938,40407 48936,40404 48934,40400 48933,40398 48931,40395 48929,40392 48927,40389 48925,40386 48923,40384 48921,40381 48918,40378 48916,40376 48913,40373 48911,40371 48908,40369 48905,40367 48903,40365 48900,40363 48897,40361 48894,40359 48322,40034 48319,40032 48315,40030 48311,40028 48308,40026 48304,40024 48300,40023 48297,40021 48293,40019 48289,40018 48285,40016 48281,40015 48277,40014 48274,40012 48269,40011 48266,40010 48262,40009 48258,40008 48254,40007 48250,40005 48246,40004 48241,40004 48238,40003 48234,40002 48229,40002 48225,40001 48221,40001 48217,40000 48213,40000 48209,40000 48205,40000 48201,40000 48197,40000 44648,40000 44643,40000 44638,40000 44633,40000 44628,40000 44624,40001 44619,40002 44614,40002 44609,40003 44605,40004 44600,40005 44596,40008 44591,40009 44586,40010 44582,40012 44577,40014 44573,40015 44569,40017 44564,40019 44560,40021 44556,40024 44552,40026 44547,40028 44543,40031 44539,40034 44535,40036 44532,40039 44528,40042 44524,40045 44520,40048 44517,40051 44513,40054 44510,40058 44507,40061 44503,40065 44500,40068 44497,40072 44494,40076 44491,40079 44488,40083 44486,40087 44483,40091 44481,40095 44478,40099 44476,40104 44474,40108 44471,40112 44470,40116 44468,40121 44466,40125 44464,40130 44463,40134 44461,40139 44460,40143 44459,40148 44458,40153 44457,40157 44456,40162 44455,40167 44454,40172 44454,40176 44453,40181 44453,40186 44453,40191 44453,40196 44453,40705 44453,40710 44453,40715 44453,40720 44454,40724 44454,40729 44455,40734 44456,40739 44457,40743 44458,40748 44459,40753 44460,40757 44461,40762 44463,40766 44464,40771 44466,40775 44468,40780 44470,40784 44471,40789 44474,40793 44476,40797 44478,40801 44481,40805 44483,40809 44486,40814 44488,40818 44491,40821 44494,40825 44497,40829 44500,40833 44503,40836 44507,40840 44510,40843 44513,40846 44517,40850 44520,40853 44524,40856 44528,40859 44532,40862 44535,40865 44539,40867 44543,40870 44547,40872 44552,40875 44556,40877 44560,40879 44564,40882 44569,40884 44573,40885 44577,40887 44582,40889 44586,40890 44591,40892 44596,40893 44600,40894 44605,40896 44609,40896 44614,40897 44619,40898 44624,40899 44628,40899 44633,40900 44638,40900 44643,40900 44648,40900 48197,40900 48201,40900 48205,40900 48209,40900 48213,40900 48217,40899 48221,40899 48225,40898 48229,40898 48234,40897 48238,40897 48241,40896 48246,40896 48250,40895 48254,40894 48258,40893 48262,40892 48266,40891 48269,40889 48274,40888 48277,40887 48281,40886 48285,40884 48289,40883 48293,40881 48297,40880 48300,40878 48304,40876 48308,40875 48311,40873 48315,40871 48319,40869 48322,40867 48894,40542 Z"/>
    <path fill="none" stroke="rgb(255,129,0)" d="M 48894,40542 L 48897,40540 48900,40538 48903,40536 48905,40534 48908,40532 48911,40530 48913,40527 48916,40525 48918,40522 48921,40520 48923,40517 48925,40514 48927,40512 48929,40509 48931,40506 48933,40503 48934,40500 48936,40497 48938,40494 48939,40491 48940,40488 48941,40484 48942,40481 48943,40478 48944,40474 48945,40471 48946,40468 48946,40464 48946,40461 48947,40457 48947,40454 48947,40451 48947,40447 48947,40443 48946,40440 48946,40437 48946,40433 48945,40430 48944,40426 48943,40423 48942,40420 48941,40416 48940,40413 48939,40410 48938,40407 48936,40404 48934,40400 48933,40398 48931,40395 48929,40392 48927,40389 48925,40386 48923,40384 48921,40381 48918,40378 48916,40376 48913,40373 48911,40371 48908,40369 48905,40367 48903,40365 48900,40363 48897,40361 48894,40359 48322,40034 48319,40032 48315,40030 48311,40028 48308,40026 48304,40024 48300,40023 48297,40021 48293,40019 48289,40018 48285,40016 48281,40015 48277,40014 48274,40012 48269,40011 48266,40010 48262,40009 48258,40008 48254,40007 48250,40005 48246,40004 48241,40004 48238,40003 48234,40002 48229,40002 48225,40001 48221,40001 48217,40000 48213,40000 48209,40000 48205,40000 48201,40000 48197,40000 44648,40000 44643,40000 44638,40000 44633,40000 44628,40000 44624,40001 44619,40002 44614,40002 44609,40003 44605,40004 44600,40005 44596,40008 44591,40009 44586,40010 44582,40012 44577,40014 44573,40015 44569,40017 44564,40019 44560,40021 44556,40024 44552,40026 44547,40028 44543,40031 44539,40034 44535,40036 44532,40039 44528,40042 44524,40045 44520,40048 44517,40051 44513,40054 44510,40058 44507,40061 44503,40065 44500,40068 44497,40072 44494,40076 44491,40079 44488,40083 44486,40087 44483,40091 44481,40095 44478,40099 44476,40104 44474,40108 44471,40112 44470,40116 44468,40121 44466,40125 44464,40130 44463,40134 44461,40139 44460,40143 44459,40148 44458,40153 44457,40157 44456,40162 44455,40167 44454,40172 44454,40176 44453,40181 44453,40186 44453,40191 44453,40196 44453,40705 44453,40710 44453,40715 44453,40720 44454,40724 44454,40729 44455,40734 44456,40739 44457,40743 44458,40748 44459,40753 44460,40757 44461,40762 44463,40766 44464,40771 44466,40775 44468,40780 44470,40784 44471,40789 44474,40793 44476,40797 44478,40801 44481,40805 44483,40809 44486,40814 44488,40818 44491,40821 44494,40825 44497,40829 44500,40833 44503,40836 44507,40840 44510,40843 44513,40846 44517,40850 44520,40853 44524,40856 44528,40859 44532,40862 44535,40865 44539,40867 44543,40870 44547,40872 44552,40875 44556,40877 44560,40879 44564,40882 44569,40884 44573,40885 44577,40887 44582,40889 44586,40890 44591,40892 44596,40893 44600,40894 44605,40896 44609,40896 44614,40897 44619,40898 44624,40899 44628,40899 44633,40900 44638,40900 44643,40900 44648,40900 48197,40900 48201,40900 48205,40900 48209,40900 48213,40900 48217,40899 48221,40899 48225,40898 48229,40898 48234,40897 48238,40897 48241,40896 48246,40896 48250,40895 48254,40894 48258,40893 48262,40892 48266,40891 48269,40889 48274,40888 48277,40887 48281,40886 48285,40884 48289,40883 48293,40881 48297,40880 48300,40878 48304,40876 48308,40875 48311,40873 48315,40871 48319,40869 48322,40867 48894,40542 Z"/>
   </g>
  </g>
  <g class="com.sun.star.drawing.PolyPolygonShape">
   <g id="id4">
    <rect class="BoundingBox" stroke="none" fill="none" x="44497" y="40044" width="4407" height="813"/>
    <path fill="rgb(0,0,0)" stroke="none" d="M 48872,40502 L 48873,40502 48875,40500 48877,40499 48878,40498 48880,40497 48881,40496 48883,40494 48884,40493 48886,40492 48887,40490 48888,40489 48890,40487 48891,40485 48892,40484 48893,40482 48894,40480 48895,40479 48896,40477 48897,40475 48897,40474 48898,40472 48899,40470 48899,40468 48900,40466 48900,40464 48901,40462 48901,40460 48901,40458 48902,40456 48902,40454 48902,40452 48902,40451 48902,40448 48902,40446 48902,40444 48901,40442 48901,40441 48901,40439 48900,40437 48900,40435 48899,40433 48899,40431 48898,40429 48897,40427 48897,40425 48896,40424 48895,40422 48894,40420 48893,40419 48892,40417 48891,40415 48890,40414 48888,40412 48887,40411 48886,40409 48884,40408 48883,40406 48881,40405 48880,40404 48878,40403 48877,40401 48875,40400 48873,40399 48872,40398 48300,40073 48294,40070 48288,40067 48282,40064 48276,40061 48269,40059 48263,40056 48257,40054 48250,40052 48244,40051 48237,40049 48230,40048 48224,40047 48217,40045 48210,40045 48203,40045 48196,40045 44648,40045 44644,40045 44640,40045 44636,40045 44633,40045 44629,40047 44625,40047 44622,40048 44618,40048 44615,40049 44611,40050 44608,40051 44604,40052 44600,40053 44597,40054 44594,40055 44590,40057 44587,40058 44583,40060 44580,40062 44577,40063 44574,40065 44571,40067 44568,40069 44564,40071 44561,40073 44558,40075 44555,40077 44552,40080 44550,40082 44547,40084 44544,40087 44542,40089 44539,40092 44537,40095 44534,40098 44532,40100 44529,40103 44527,40106 44525,40109 44523,40112 44521,40115 44519,40118 44517,40122 44515,40125 44514,40128 44512,40131 44511,40135 44509,40138 44508,40142 44507,40145 44505,40148 44504,40152 44503,40155 44502,40159 44501,40163 44501,40166 44500,40170 44499,40173 44499,40177 44498,40181 44498,40184 44498,40188 44498,40192 44498,40196 44498,40705 44498,40709 44498,40713 44498,40716 44498,40720 44499,40724 44499,40727 44500,40731 44501,40735 44501,40738 44502,40742 44503,40745 44504,40749 44505,40752 44507,40756 44508,40759 44509,40763 44511,40766 44512,40769 44514,40773 44515,40776 44517,40779 44519,40782 44521,40785 44523,40789 44525,40792 44527,40795 44529,40797 44532,40801 44534,40803 44537,40806 44539,40809 44542,40811 44544,40814 44547,40816 44550,40819 44552,40821 44555,40824 44558,40826 44561,40828 44564,40830 44568,40832 44571,40834 44574,40836 44577,40838 44580,40839 44583,40841 44587,40842 44590,40844 44594,40845 44597,40846 44600,40848 44604,40849 44608,40850 44611,40851 44615,40852 44618,40852 44622,40853 44625,40854 44629,40854 44633,40855 44636,40855 44640,40855 44644,40855 44648,40855 48196,40855 48203,40855 48210,40855 48217,40854 48224,40854 48230,40852 48237,40851 48244,40850 48250,40848 48257,40846 48263,40844 48269,40842 48276,40840 48282,40837 48288,40834 48294,40831 48300,40828 48872,40502 Z"/>
    <path fill="none" stroke="rgb(0,0,0)" d="M 48872,40502 L 48873,40502 48875,40500 48877,40499 48878,40498 48880,40497 48881,40496 48883,40494 48884,40493 48886,40492 48887,40490 48888,40489 48890,40487 48891,40485 48892,40484 48893,40482 48894,40480 48895,40479 48896,40477 48897,40475 48897,40474 48898,40472 48899,40470 48899,40468 48900,40466 48900,40464 48901,40462 48901,40460 48901,40458 48902,40456 48902,40454 48902,40452 48902,40451 48902,40448 48902,40446 48902,40444 48901,40442 48901,40441 48901,40439 48900,40437 48900,40435 48899,40433 48899,40431 48898,40429 48897,40427 48897,40425 48896,40424 48895,40422 48894,40420 48893,40419 48892,40417 48891,40415 48890,40414 48888,40412 48887,40411 48886,40409 48884,40408 48883,40406 48881,40405 48880,40404 48878,40403 48877,40401 48875,40400 48873,40399 48872,40398 48300,40073 48294,40070 48288,40067 48282,40064 48276,40061 48269,40059 48263,40056 48257,40054 48250,40052 48244,40051 48237,40049 48230,40048 48224,40047 48217,40045 48210,40045 48203,40045 48196,40045 44648,40045 44644,40045 44640,40045 44636,40045 44633,40045 44629,40047 44625,40047 44622,40048 44618,40048 44615,40049 44611,40050 44608,40051 44604,40052 44600,40053 44597,40054 44594,40055 44590,40057 44587,40058 44583,40060 44580,40062 44577,40063 44574,40065 44571,40067 44568,40069 44564,40071 44561,40073 44558,40075 44555,40077 44552,40080 44550,40082 44547,40084 44544,40087 44542,40089 44539,40092 44537,40095 44534,40098 44532,40100 44529,40103 44527,40106 44525,40109 44523,40112 44521,40115 44519,40118 44517,40122 44515,40125 44514,40128 44512,40131 44511,40135 44509,40138 44508,40142 44507,40145 44505,40148 44504,40152 44503,40155 44502,40159 44501,40163 44501,40166 44500,40170 44499,40173 44499,40177 44498,40181 44498,40184 44498,40188 44498,40192 44498,40196 44498,40705 44498,40709 44498,40713 44498,40716 44498,40720 44499,40724 44499,40727 44500,40731 44501,40735 44501,40738 44502,40742 44503,40745 44504,40749 44505,40752 44507,40756 44508,40759 44509,40763 44511,40766 44512,40769 44514,40773 44515,40776 44517,40779 44519,40782 44521,40785 44523,40789 44525,40792 44527,40795 44529,40797 44532,40801 44534,40803 44537,40806 44539,40809 44542,40811 44544,40814 44547,40816 44550,40819 44552,40821 44555,40824 44558,40826 44561,40828 44564,40830 44568,40832 44571,40834 44574,40836 44577,40838 44580,40839 44583,40841 44587,40842 44590,40844 44594,40845 44597,40846 44600,40848 44604,40849 44608,40850 44611,40851 44615,40852 44618,40852 44622,40853 44625,40854 44629,40854 44633,40855 44636,40855 44640,40855 44644,40855 44648,40855 48196,40855 48203,40855 48210,40855 48217,40854 48224,40854 48230,40852 48237,40851 48244,40850 48250,40848 48257,40846 48263,40844 48269,40842 48276,40840 48282,40837 48288,40834 48294,40831 48300,40828 48872,40502 Z"/>
   </g>
  </g>
  <g class="com.sun.star.drawing.PolyPolygonShape">
   <g id="id5">
    <rect class="BoundingBox" stroke="none" fill="none" x="44542" y="40088" width="4019" height="724"/>
    <path fill="rgb(255,129,0)" stroke="none" d="M 48550,40474 L 48551,40473 48552,40471 48553,40470 48554,40469 48555,40467 48555,40466 48556,40464 48557,40462 48557,40461 48558,40459 48558,40458 48558,40456 48559,40454 48559,40453 48559,40451 48559,40450 48559,40448 48559,40446 48559,40444 48558,40443 48558,40441 48558,40439 48557,40438 48557,40436 48556,40435 48555,40433 48555,40432 48554,40430 48553,40429 48552,40427 48551,40426 48550,40424 48324,40150 48321,40146 48318,40143 48315,40139 48311,40136 48308,40133 48305,40130 48301,40127 48298,40124 48294,40121 48290,40119 48287,40116 48283,40114 48279,40112 48275,40109 48271,40107 48267,40105 48263,40103 48258,40102 48254,40100 48250,40098 48246,40097 48241,40096 48237,40095 48233,40093 48228,40093 48224,40092 48219,40091 48215,40090 48210,40090 48205,40090 48201,40090 48197,40089 44648,40089 44645,40090 44642,40090 44640,40090 44637,40090 44635,40090 44632,40091 44630,40091 44627,40092 44625,40092 44622,40093 44620,40093 44617,40094 44615,40095 44612,40096 44610,40097 44607,40098 44605,40098 44603,40100 44600,40101 44598,40102 44596,40103 44594,40104 44591,40106 44589,40107 44587,40109 44585,40110 44583,40112 44581,40113 44579,40115 44577,40117 44575,40119 44573,40120 44572,40122 44570,40124 44568,40126 44566,40128 44565,40130 44563,40132 44562,40134 44560,40136 44559,40138 44558,40141 44556,40143 44555,40145 44554,40147 44553,40150 44552,40152 44551,40154 44550,40157 44549,40159 44548,40162 44547,40164 44546,40167 44546,40169 44545,40172 44545,40174 44544,40176 44544,40179 44543,40182 44543,40184 44543,40187 44543,40189 44543,40192 44543,40195 44543,40705 44543,40708 44543,40710 44543,40713 44543,40716 44543,40718 44544,40721 44544,40723 44545,40726 44545,40728 44546,40731 44546,40733 44547,40736 44548,40738 44549,40741 44550,40743 44551,40746 44552,40748 44553,40750 44554,40752 44555,40755 44556,40757 44558,40759 44559,40761 44560,40764 44562,40766 44563,40768 44565,40770 44566,40772 44568,40774 44570,40776 44572,40778 44573,40780 44575,40781 44577,40783 44579,40785 44581,40786 44583,40788 44585,40789 44587,40791 44589,40792 44591,40794 44594,40795 44596,40797 44598,40798 44600,40799 44603,40800 44605,40801 44607,40802 44610,40803 44612,40804 44615,40805 44617,40806 44620,40807 44622,40807 44625,40808 44627,40808 44630,40809 44632,40809 44635,40809 44637,40810 44640,40810 44642,40810 44645,40810 44648,40810 48197,40810 48201,40810 48205,40810 48210,40809 48215,40809 48219,40809 48224,40808 48228,40807 48233,40806 48237,40805 48241,40804 48246,40803 48250,40801 48254,40800 48258,40798 48263,40796 48267,40794 48271,40792 48275,40790 48279,40788 48283,40786 48287,40783 48290,40781 48294,40778 48298,40775 48301,40773 48305,40770 48308,40767 48311,40764 48315,40760 48318,40757 48321,40754 48324,40750 48550,40474 Z"/>
    <path fill="none" stroke="rgb(255,129,0)" d="M 48550,40474 L 48551,40473 48552,40471 48553,40470 48554,40469 48555,40467 48555,40466 48556,40464 48557,40462 48557,40461 48558,40459 48558,40458 48558,40456 48559,40454 48559,40453 48559,40451 48559,40450 48559,40448 48559,40446 48559,40444 48558,40443 48558,40441 48558,40439 48557,40438 48557,40436 48556,40435 48555,40433 48555,40432 48554,40430 48553,40429 48552,40427 48551,40426 48550,40424 48324,40150 48321,40146 48318,40143 48315,40139 48311,40136 48308,40133 48305,40130 48301,40127 48298,40124 48294,40121 48290,40119 48287,40116 48283,40114 48279,40112 48275,40109 48271,40107 48267,40105 48263,40103 48258,40102 48254,40100 48250,40098 48246,40097 48241,40096 48237,40095 48233,40093 48228,40093 48224,40092 48219,40091 48215,40090 48210,40090 48205,40090 48201,40090 48197,40089 44648,40089 44645,40090 44642,40090 44640,40090 44637,40090 44635,40090 44632,40091 44630,40091 44627,40092 44625,40092 44622,40093 44620,40093 44617,40094 44615,40095 44612,40096 44610,40097 44607,40098 44605,40098 44603,40100 44600,40101 44598,40102 44596,40103 44594,40104 44591,40106 44589,40107 44587,40109 44585,40110 44583,40112 44581,40113 44579,40115 44577,40117 44575,40119 44573,40120 44572,40122 44570,40124 44568,40126 44566,40128 44565,40130 44563,40132 44562,40134 44560,40136 44559,40138 44558,40141 44556,40143 44555,40145 44554,40147 44553,40150 44552,40152 44551,40154 44550,40157 44549,40159 44548,40162 44547,40164 44546,40167 44546,40169 44545,40172 44545,40174 44544,40176 44544,40179 44543,40182 44543,40184 44543,40187 44543,40189 44543,40192 44543,40195 44543,40705 44543,40708 44543,40710 44543,40713 44543,40716 44543,40718 44544,40721 44544,40723 44545,40726 44545,40728 44546,40731 44546,40733 44547,40736 44548,40738 44549,40741 44550,40743 44551,40746 44552,40748 44553,40750 44554,40752 44555,40755 44556,40757 44558,40759 44559,40761 44560,40764 44562,40766 44563,40768 44565,40770 44566,40772 44568,40774 44570,40776 44572,40778 44573,40780 44575,40781 44577,40783 44579,40785 44581,40786 44583,40788 44585,40789 44587,40791 44589,40792 44591,40794 44594,40795 44596,40797 44598,40798 44600,40799 44603,40800 44605,40801 44607,40802 44610,40803 44612,40804 44615,40805 44617,40806 44620,40807 44622,40807 44625,40808 44627,40808 44630,40809 44632,40809 44635,40809 44637,40810 44640,40810 44642,40810 44645,40810 44648,40810 48197,40810 48201,40810 48205,40810 48210,40809 48215,40809 48219,40809 48224,40808 48228,40807 48233,40806 48237,40805 48241,40804 48246,40803 48250,40801 48254,40800 48258,40798 48263,40796 48267,40794 48271,40792 48275,40790 48279,40788 48283,40786 48287,40783 48290,40781 48294,40778 48298,40775 48301,40773 48305,40770 48308,40767 48311,40764 48315,40760 48318,40757 48321,40754 48324,40750 48550,40474 Z"/>
   </g>
  </g>
 </g>
</svg>