<?xml version="1.0" encoding="UTF-8"?>
<!DOCTYPE svg PUBLIC "-//W3C//DTD SVG 1.1//EN" "http://www.w3.org/Graphics/SVG/1.1/DTD/svg11.dtd">
<svg version="1.2" width="32.7mm" height="9.03mm" viewBox="45065 41599 3270 903" preserveAspectRatio="xMidYMid" fill-rule="evenodd" stroke-width="28.222" stroke-linejoin="round" xmlns="http://www.w3.org/2000/svg" xmlns:ooo="http://xml.openoffice.org/svg/export" xmlns:xlink="http://www.w3.org/1999/xlink" xmlns:presentation="http://sun.com/xmlns/staroffice/presentation" xmlns:smil="http://www.w3.org/2001/SMIL20/" xmlns:anim="urn:oasis:names:tc:opendocument:xmlns:animation:1.0" xml:space="preserve">
 <defs class="EmbeddedBulletChars">
  <g id="bullet-char-template-57356" transform="scale(0.00048828125,-0.00048828125)">
   <path d="M 580,1141 L 1163,571 580,0 -4,571 580,1141 Z"/>
  </g>
  <g id="bullet-char-template-57354" transform="scale(0.00048828125,-0.00048828125)">
   <path d="M 8,1128 L 1137,1128 1137,0 8,0 8,1128 Z"/>
  </g>
  <g id="bullet-char-template-10146" transform="scale(0.00048828125,-0.00048828125)">
   <path d="M 174,0 L 602,739 174,1481 1456,739 174,0 Z M 1358,739 L 309,1346 659,739 1358,739 Z"/>
  </g>
  <g id="bullet-char-template-10132" transform="scale(0.00048828125,-0.00048828125)">
   <path d="M 2015,739 L 1276,0 717,0 1260,543 174,543 174,936 1260,936 717,1481 1274,1481 2015,739 Z"/>
  </g>
  <g id="bullet-char-template-10007" transform="scale(0.00048828125,-0.00048828125)">
   <path d="M 0,-2 C -7,14 -16,27 -25,37 L 356,567 C 262,823 215,952 215,954 215,979 228,992 255,992 264,992 276,990 289,987 310,991 331,999 354,1012 L 381,999 492,748 772,1049 836,1024 860,1049 C 881,1039 901,1025 922,1006 886,937 835,863 770,784 769,783 710,716 594,584 L 774,223 C 774,196 753,168 711,139 L 727,119 C 717,90 699,76 672,76 641,76 570,178 457,381 L 164,-76 C 142,-110 111,-127 72,-127 30,-127 9,-110 8,-76 1,-67 -2,-52 -2,-32 -2,-23 -1,-13 0,-2 Z"/>
  </g>
  <g id="bullet-char-template-10004" transform="scale(0.00048828125,-0.00048828125)">
   <path d="M 285,-33 C 182,-33 111,30 74,156 52,228 41,333 41,471 41,549 55,616 82,672 116,743 169,778 240,778 293,778 328,747 346,684 L 369,508 C 377,444 397,411 428,410 L 1163,1116 C 1174,1127 1196,1133 1229,1133 1271,1133 1292,1118 1292,1087 L 1292,965 C 1292,929 1282,901 1262,881 L 442,47 C 390,-6 338,-33 285,-33 Z"/>
  </g>
  <g id="bullet-char-template-9679" transform="scale(0.00048828125,-0.00048828125)">
   <path d="M 813,0 C 632,0 489,54 383,161 276,268 223,411 223,592 223,773 276,916 383,1023 489,1130 632,1184 813,1184 992,1184 1136,1130 1245,1023 1353,916 1407,772 1407,592 1407,412 1353,268 1245,161 1136,54 992,0 813,0 Z"/>
  </g>
  <g id="bullet-char-template-8226" transform="scale(0.00048828125,-0.00048828125)">
   <path d="M 346,457 C 273,457 209,483 155,535 101,586 74,649 74,723 74,796 101,859 155,911 209,963 273,989 346,989 419,989 480,963 531,910 582,859 608,796 608,723 608,648 583,586 532,535 482,483 420,457 346,457 Z"/>
  </g>
  <g id="bullet-char-template-8211" transform="scale(0.00048828125,-0.00048828125)">
   <path d="M -4,459 L 1135,459 1135,606 -4,606 -4,459 Z"/>
  </g>
  <g id="bullet-char-template-61548" transform="scale(0.00048828125,-0.00048828125)">
   <path d="M 173,740 C 173,903 231,1043 346,1159 462,1274 601,1332 765,1332 928,1332 1067,1274 1183,1159 1299,1043 1357,903 1357,740 1357,577 1299,437 1183,322 1067,206 928,148 765,148 601,148 462,206 346,322 231,437 173,577 173,740 Z"/>
  </g>
 </defs>
 <g class="Page">
  <g class="com.sun.star.drawing.PolyPolygonShape">
   <g id="id3">
    <rect class="BoundingBox" stroke="none" fill="none" x="45065" y="41599" width="3270" height="903"/>
    <path fill="rgb(255,0,0)" stroke="none" d="M 45259,42500 L 48140,42500 48145,42500 48150,42500 48155,42500 48159,42499 48164,42499 48169,42498 48173,42497 48178,42497 48183,42495 48187,42494 48192,42493 48196,42492 48201,42490 48205,42489 48210,42487 48214,42485 48219,42484 48223,42482 48227,42480 48232,42477 48235,42475 48240,42473 48244,42470 48248,42467 48252,42465 48255,42462 48259,42459 48263,42456 48266,42453 48270,42450 48274,42446 48277,42443 48280,42440 48283,42436 48287,42433 48290,42429 48293,42425 48296,42422 48298,42418 48301,42414 48304,42410 48306,42406 48308,42401 48311,42397 48313,42393 48315,42389 48317,42384 48319,42380 48320,42376 48322,42371 48324,42367 48325,42362 48326,42357 48328,42353 48329,42348 48330,42343 48331,42339 48331,42334 48332,42329 48332,42324 48333,42320 48333,42315 48333,42310 48333,42305 48333,41795 48333,41790 48333,41785 48333,41780 48332,41775 48332,41771 48331,41766 48331,41761 48330,41756 48329,41752 48328,41747 48326,41743 48325,41738 48324,41733 48322,41729 48320,41724 48319,41720 48317,41716 48315,41711 48313,41707 48311,41703 48308,41698 48306,41694 48304,41690 48301,41686 48298,41682 48296,41678 48293,41674 48290,41671 48287,41667 48283,41664 48280,41660 48277,41657 48274,41653 48270,41650 48266,41647 48263,41644 48259,41641 48255,41638 48252,41635 48248,41632 48244,41630 48240,41627 48235,41625 48232,41622 48227,41620 48223,41618 48219,41616 48214,41614 48210,41613 48205,41611 48201,41609 48196,41608 48192,41607 48187,41605 48183,41604 48178,41603 48173,41602 48169,41602 48164,41601 48159,41601 48155,41600 48150,41600 48145,41600 48140,41600 45259,41600 45255,41600 45250,41600 45245,41600 45240,41601 45236,41601 45231,41602 45226,41602 45222,41603 45217,41604 45213,41605 45208,41607 45203,41608 45199,41609 45194,41611 45190,41613 45185,41614 45181,41616 45177,41618 45173,41620 45168,41622 45164,41625 45160,41627 45156,41630 45152,41632 45148,41635 45144,41638 45141,41641 45137,41644 45133,41647 45130,41650 45126,41653 45123,41657 45120,41660 45116,41664 45113,41667 45110,41671 45107,41674 45104,41678 45102,41682 45099,41686 45096,41690 45094,41694 45091,41698 45089,41703 45087,41707 45085,41711 45083,41716 45081,41720 45079,41724 45078,41729 45076,41733 45075,41738 45073,41743 45072,41747 45071,41752 45070,41756 45069,41761 45068,41766 45068,41771 45067,41775 45067,41780 45067,41785 45066,41790 45066,41795 45066,42305 45066,42310 45067,42315 45067,42320 45067,42324 45068,42329 45068,42334 45069,42339 45070,42343 45071,42348 45072,42353 45073,42357 45075,42362 45076,42367 45078,42371 45079,42376 45081,42380 45083,42384 45085,42389 45087,42393 45089,42397 45091,42401 45094,42406 45096,42410 45099,42414 45102,42418 45104,42422 45107,42425 45110,42429 45113,42433 45116,42436 45120,42440 45123,42443 45126,42446 45130,42450 45133,42453 45137,42456 45141,42459 45144,42462 45148,42465 45152,42467 45156,42470 45160,42473 45164,42475 45168,42477 45173,42480 45177,42482 45181,42484 45185,42485 45190,42487 45194,42489 45199,42490 45203,42492 45208,42493 45213,42494 45217,42495 45222,42497 45226,42497 45231,42498 45236,42499 45240,42499 45245,42500 45250,42500 45255,42500 45259,42500 Z"/>
    <path fill="none" stroke="rgb(255,0,0)" d="M 45259,42500 L 48140,42500 48145,42500 48150,42500 48155,42500 48159,42499 48164,42499 48169,42498 48173,42497 48178,42497 48183,42495 48187,42494 48192,42493 48196,42492 48201,42490 48205,42489 48210,42487 48214,42485 48219,42484 48223,42482 48227,42480 48232,42477 48235,42475 48240,42473 48244,42470 48248,42467 48252,42465 48255,42462 48259,42459 48263,42456 48266,42453 48270,42450 48274,42446 48277,42443 48280,42440 48283,42436 48287,42433 48290,42429 48293,42425 48296,42422 48298,42418 48301,42414 48304,42410 48306,42406 48308,42401 48311,42397 48313,42393 48315,42389 48317,42384 48319,42380 48320,42376 48322,42371 48324,42367 48325,42362 48326,42357 48328,42353 48329,42348 48330,42343 48331,42339 48331,42334 48332,42329 48332,42324 48333,42320 48333,42315 48333,42310 48333,42305 48333,41795 48333,41790 48333,41785 48333,41780 48332,41775 48332,41771 48331,41766 48331,41761 48330,41756 48329,41752 48328,41747 48326,41743 48325,41738 48324,41733 48322,41729 48320,41724 48319,41720 48317,41716 48315,41711 48313,41707 48311,41703 48308,41698 48306,41694 48304,41690 48301,41686 48298,41682 48296,41678 48293,41674 48290,41671 48287,41667 48283,41664 48280,41660 48277,41657 48274,41653 48270,41650 48266,41647 48263,41644 48259,41641 48255,41638 48252,41635 48248,41632 48244,41630 48240,41627 48235,41625 48232,41622 48227,41620 48223,41618 48219,41616 48214,41614 48210,41613 48205,41611 48201,41609 48196,41608 48192,41607 48187,41605 48183,41604 48178,41603 48173,41602 48169,41602 48164,41601 48159,41601 48155,41600 48150,41600 48145,41600 48140,41600 45259,41600 45255,41600 45250,41600 45245,41600 45240,41601 45236,41601 45231,41602 45226,41602 45222,41603 45217,41604 45213,41605 45208,41607 45203,41608 45199,41609 45194,41611 45190,41613 45185,41614 45181,41616 45177,41618 45173,41620 45168,41622 45164,41625 45160,41627 45156,41630 45152,41632 45148,41635 45144,41638 45141,41641 45137,41644 45133,41647 45130,41650 45126,41653 45123,41657 45120,41660 45116,41664 45113,41667 45110,41671 45107,41674 45104,41678 45102,41682 45099,41686 45096,41690 45094,41694 45091,41698 45089,41703 45087,41707 45085,41711 45083,41716 45081,41720 45079,41724 45078,41729 45076,41733 45075,41738 45073,41743 45072,41747 45071,41752 45070,41756 45069,41761 45068,41766 45068,41771 45067,41775 45067,41780 45067,41785 45066,41790 45066,41795 45066,42305 45066,42310 45067,42315 45067,42320 45067,42324 45068,42329 45068,42334 45069,42339 45070,42343 45071,42348 45072,42353 45073,42357 45075,42362 45076,42367 45078,42371 45079,42376 45081,42380 45083,42384 45085,42389 45087,42393 45089,42397 45091,42401 45094,42406 45096,42410 45099,42414 45102,42418 45104,42422 45107,42425 45110,42429 45113,42433 45116,42436 45120,42440 45123,42443 45126,42446 45130,42450 45133,42453 45137,42456 45141,42459 45144,42462 45148,42465 45152,42467 45156,42470 45160,42473 45164,42475 45168,42477 45173,42480 45177,42482 45181,42484 45185,42485 45190,42487 45194,42489 45199,42490 45203,42492 45208,42493 45213,42494 45217,42495 45222,42497 45226,42497 45231,42498 45236,42499 45240,42499 45245,42500 45250,42500 45255,42500 45259,42500 Z"/>
   </g>
  </g>
  <g class="com.sun.star.drawing.PolyPolygonShape">
   <g id="id4">
    <rect class="BoundingBox" stroke="none" fill="none" x="45169" y="41703" width="3063" height="694"/>
    <path fill="rgb(255,255,0)" stroke="none" d="M 45259,42395 L 48140,42395 48143,42395 48145,42395 48147,42395 48149,42395 48151,42395 48154,42394 48156,42394 48158,42394 48160,42393 48162,42393 48164,42392 48166,42392 48168,42391 48170,42390 48172,42389 48174,42389 48176,42388 48178,42387 48180,42386 48182,42385 48184,42384 48186,42382 48188,42381 48190,42380 48192,42379 48193,42378 48195,42376 48197,42375 48199,42373 48200,42371 48202,42370 48203,42368 48205,42366 48206,42365 48208,42363 48209,42361 48211,42360 48212,42358 48213,42356 48215,42354 48216,42352 48217,42351 48218,42349 48219,42347 48220,42345 48221,42343 48222,42341 48223,42339 48224,42337 48224,42335 48225,42332 48226,42330 48226,42328 48227,42326 48227,42324 48228,42322 48228,42320 48229,42318 48229,42315 48229,42313 48229,42311 48229,42309 48230,42307 48230,42304 48230,41795 48230,41792 48229,41790 48229,41788 48229,41786 48229,41783 48229,41781 48228,41779 48228,41777 48227,41775 48227,41773 48226,41771 48226,41768 48225,41766 48224,41764 48224,41762 48223,41760 48222,41758 48221,41756 48220,41754 48219,41752 48218,41750 48217,41748 48216,41746 48215,41745 48213,41743 48212,41741 48211,41739 48209,41737 48208,41736 48206,41734 48205,41733 48203,41731 48202,41729 48200,41728 48199,41726 48197,41725 48195,41724 48193,41722 48192,41721 48190,41720 48188,41718 48186,41717 48184,41716 48182,41715 48180,41714 48178,41713 48176,41712 48174,41711 48172,41711 48170,41710 48168,41709 48166,41708 48164,41708 48162,41707 48160,41707 48158,41706 48156,41706 48154,41705 48151,41705 48149,41705 48147,41705 48145,41705 48143,41704 48140,41704 45259,41704 45257,41704 45255,41705 45253,41705 45251,41705 45248,41705 45246,41705 45244,41706 45242,41706 45240,41707 45238,41707 45236,41708 45234,41708 45232,41709 45229,41710 45227,41711 45225,41711 45223,41712 45221,41713 45219,41714 45217,41715 45215,41716 45214,41717 45212,41718 45210,41720 45208,41721 45206,41722 45205,41724 45203,41725 45201,41726 45200,41728 45198,41729 45196,41731 45195,41733 45193,41734 45192,41736 45190,41737 45189,41739 45188,41741 45186,41743 45185,41745 45184,41746 45183,41748 45182,41750 45181,41752 45180,41754 45179,41756 45178,41758 45177,41760 45176,41762 45175,41764 45175,41766 45174,41768 45173,41771 45173,41773 45172,41775 45172,41777 45172,41779 45171,41781 45171,41783 45171,41786 45170,41788 45170,41790 45170,41792 45170,41795 45170,42304 45170,42307 45170,42309 45170,42311 45171,42313 45171,42315 45171,42318 45172,42320 45172,42322 45172,42324 45173,42326 45173,42328 45174,42330 45175,42332 45175,42335 45176,42337 45177,42339 45178,42341 45179,42343 45180,42345 45181,42347 45182,42349 45183,42351 45184,42352 45185,42354 45186,42356 45188,42358 45189,42360 45190,42361 45192,42363 45193,42365 45195,42366 45196,42368 45198,42370 45200,42371 45201,42373 45203,42375 45205,42376 45206,42378 45208,42379 45210,42380 45212,42381 45214,42382 45215,42384 45217,42385 45219,42386 45221,42387 45223,42388 45225,42389 45227,42389 45229,42390 45232,42391 45234,42392 45236,42392 45238,42393 45240,42393 45242,42394 45244,42394 45246,42394 45248,42395 45251,42395 45253,42395 45255,42395 45257,42395 45259,42395 Z"/>
    <path fill="none" stroke="rgb(255,255,0)" d="M 45259,42395 L 48140,42395 48143,42395 48145,42395 48147,42395 48149,42395 48151,42395 48154,42394 48156,42394 48158,42394 48160,42393 48162,42393 48164,42392 48166,42392 48168,42391 48170,42390 48172,42389 48174,42389 48176,42388 48178,42387 48180,42386 48182,42385 48184,42384 48186,42382 48188,42381 48190,42380 48192,42379 48193,42378 48195,42376 48197,42375 48199,42373 48200,42371 48202,42370 48203,42368 48205,42366 48206,42365 48208,42363 48209,42361 48211,42360 48212,42358 48213,42356 48215,42354 48216,42352 48217,42351 48218,42349 48219,42347 48220,42345 48221,42343 48222,42341 48223,42339 48224,42337 48224,42335 48225,42332 48226,42330 48226,42328 48227,42326 48227,42324 48228,42322 48228,42320 48229,42318 48229,42315 48229,42313 48229,42311 48229,42309 48230,42307 48230,42304 48230,41795 48230,41792 48229,41790 48229,41788 48229,41786 48229,41783 48229,41781 48228,41779 48228,41777 48227,41775 48227,41773 48226,41771 48226,41768 48225,41766 48224,41764 48224,41762 48223,41760 48222,41758 48221,41756 48220,41754 48219,41752 48218,41750 48217,41748 48216,41746 48215,41745 48213,41743 48212,41741 48211,41739 48209,41737 48208,41736 48206,41734 48205,41733 48203,41731 48202,41729 48200,41728 48199,41726 48197,41725 48195,41724 48193,41722 48192,41721 48190,41720 48188,41718 48186,41717 48184,41716 48182,41715 48180,41714 48178,41713 48176,41712 48174,41711 48172,41711 48170,41710 48168,41709 48166,41708 48164,41708 48162,41707 48160,41707 48158,41706 48156,41706 48154,41705 48151,41705 48149,41705 48147,41705 48145,41705 48143,41704 48140,41704 45259,41704 45257,41704 45255,41705 45253,41705 45251,41705 45248,41705 45246,41705 45244,41706 45242,41706 45240,41707 45238,41707 45236,41708 45234,41708 45232,41709 45229,41710 45227,41711 45225,41711 45223,41712 45221,41713 45219,41714 45217,41715 45215,41716 45214,41717 45212,41718 45210,41720 45208,41721 45206,41722 45205,41724 45203,41725 45201,41726 45200,41728 45198,41729 45196,41731 45195,41733 45193,41734 45192,41736 45190,41737 45189,41739 45188,41741 45186,41743 45185,41745 45184,41746 45183,41748 45182,41750 45181,41752 45180,41754 45179,41756 45178,41758 45177,41760 45176,41762 45175,41764 45175,41766 45174,41768 45173,41771 45173,41773 45172,41775 45172,41777 45172,41779 45171,41781 45171,41783 45171,41786 45170,41788 45170,41790 45170,41792 45170,41795 45170,42304 45170,42307 45170,42309 45170,42311 45171,42313 45171,42315 45171,42318 45172,42320 45172,42322 45172,42324 45173,42326 45173,42328 45174,42330 45175,42332 45175,42335 45176,42337 45177,42339 45178,42341 45179,42343 45180,42345 45181,42347 45182,42349 45183,42351 45184,42352 45185,42354 45186,42356 45188,42358 45189,42360 45190,42361 45192,42363 45193,42365 45195,42366 45196,42368 45198,42370 45200,42371 45201,42373 45203,42375 45205,42376 45206,42378 45208,42379 45210,42380 45212,42381 45214,42382 45215,42384 45217,42385 45219,42386 45221,42387 45223,42388 45225,42389 45227,42389 45229,42390 45232,42391 45234,42392 45236,42392 45238,42393 45240,42393 45242,42394 45244,42394 45246,42394 45248,42395 45251,42395 45253,42395 45255,42395 45257,42395 45259,42395 Z"/>
   </g>
  </g>
 </g>
</svg>