<?xml version="1.0" encoding="UTF-8"?>
<!DOCTYPE svg PUBLIC "-//W3C//DTD SVG 1.1//EN" "http://www.w3.org/Graphics/SVG/1.1/DTD/svg11.dtd">
<svg version="1.2" width="16.68mm" height="25.03mm" viewBox="49460 39999 1668 2503" preserveAspectRatio="xMidYMid" fill-rule="evenodd" stroke-width="28.222" stroke-linejoin="round" xmlns="http://www.w3.org/2000/svg" xmlns:ooo="http://xml.openoffice.org/svg/export" xmlns:xlink="http://www.w3.org/1999/xlink" xmlns:presentation="http://sun.com/xmlns/staroffice/presentation" xmlns:smil="http://www.w3.org/2001/SMIL20/" xmlns:anim="urn:oasis:names:tc:opendocument:xmlns:animation:1.0" xml:space="preserve">
 <defs class="EmbeddedBulletChars">
  <g id="bullet-char-template-57356" transform="scale(0.00048828125,-0.00048828125)">
   <path d="M 580,1141 L 1163,571 580,0 -4,571 580,1141 Z"/>
  </g>
  <g id="bullet-char-template-57354" transform="scale(0.00048828125,-0.00048828125)">
   <path d="M 8,1128 L 1137,1128 1137,0 8,0 8,1128 Z"/>
  </g>
  <g id="bullet-char-template-10146" transform="scale(0.00048828125,-0.00048828125)">
   <path d="M 174,0 L 602,739 174,1481 1456,739 174,0 Z M 1358,739 L 309,1346 659,739 1358,739 Z"/>
  </g>
  <g id="bullet-char-template-10132" transform="scale(0.00048828125,-0.00048828125)">
   <path d="M 2015,739 L 1276,0 717,0 1260,543 174,543 174,936 1260,936 717,1481 1274,1481 2015,739 Z"/>
  </g>
  <g id="bullet-char-template-10007" transform="scale(0.00048828125,-0.00048828125)">
   <path d="M 0,-2 C -7,14 -16,27 -25,37 L 356,567 C 262,823 215,952 215,954 215,979 228,992 255,992 264,992 276,990 289,987 310,991 331,999 354,1012 L 381,999 492,748 772,1049 836,1024 860,1049 C 881,1039 901,1025 922,1006 886,937 835,863 770,784 769,783 710,716 594,584 L 774,223 C 774,196 753,168 711,139 L 727,119 C 717,90 699,76 672,76 641,76 570,178 457,381 L 164,-76 C 142,-110 111,-127 72,-127 30,-127 9,-110 8,-76 1,-67 -2,-52 -2,-32 -2,-23 -1,-13 0,-2 Z"/>
  </g>
  <g id="bullet-char-template-10004" transform="scale(0.00048828125,-0.00048828125)">
   <path d="M 285,-33 C 182,-33 111,30 74,156 52,228 41,333 41,471 41,549 55,616 82,672 116,743 169,778 240,778 293,778 328,747 346,684 L 369,508 C 377,444 397,411 428,410 L 1163,1116 C 1174,1127 1196,1133 1229,1133 1271,1133 1292,1118 1292,1087 L 1292,965 C 1292,929 1282,901 1262,881 L 442,47 C 390,-6 338,-33 285,-33 Z"/>
  </g>
  <g id="bullet-char-template-9679" transform="scale(0.00048828125,-0.00048828125)">
   <path d="M 813,0 C 632,0 489,54 383,161 276,268 223,411 223,592 223,773 276,916 383,1023 489,1130 632,1184 813,1184 992,1184 1136,1130 1245,1023 1353,916 1407,772 1407,592 1407,412 1353,268 1245,161 1136,54 992,0 813,0 Z"/>
  </g>
  <g id="bullet-char-template-8226" transform="scale(0.00048828125,-0.00048828125)">
   <path d="M 346,457 C 273,457 209,483 155,535 101,586 74,649 74,723 74,796 101,859 155,911 209,963 273,989 346,989 419,989 480,963 531,910 582,859 608,796 608,723 608,648 583,586 532,535 482,483 420,457 346,457 Z"/>
  </g>
  <g id="bullet-char-template-8211" transform="scale(0.00048828125,-0.00048828125)">
   <path d="M -4,459 L 1135,459 1135,606 -4,606 -4,459 Z"/>
  </g>
  <g id="bullet-char-template-61548" transform="scale(0.00048828125,-0.00048828125)">
   <path d="M 173,740 C 173,903 231,1043 346,1159 462,1274 601,1332 765,1332 928,1332 1067,1274 1183,1159 1299,1043 1357,903 1357,740 1357,577 1299,437 1183,322 1067,206 928,148 765,148 601,148 462,206 346,322 231,437 173,577 173,740 Z"/>
  </g>
 </defs>
 <g class="Page">
  <g class="com.sun.star.drawing.PolyPolygonShape">
   <g id="id3">
    <rect class="BoundingBox" stroke="none" fill="none" x="49460" y="39999" width="1668" height="2503"/>
    <path fill="rgb(0,0,255)" stroke="none" d="M 49461,42313 L 49461,40187 49462,40169 49465,40150 49469,40133 49475,40115 49483,40099 49493,40083 49504,40068 49516,40054 49530,40042 49545,40031 49560,40022 49577,40014 49594,40008 49612,40003 49630,40000 49648,40000 50939,40000 50957,40000 50975,40003 50993,40008 51010,40014 51027,40022 51043,40031 51057,40042 51071,40054 51083,40068 51094,40083 51104,40099 51112,40115 51118,40133 51122,40150 51125,40169 51126,40187 51126,42313 51125,42331 51122,42349 51118,42367 51112,42385 51104,42401 51094,42417 51083,42432 51071,42445 51057,42458 51043,42469 51027,42478 51010,42486 50993,42492 50975,42497 50957,42499 50939,42500 49648,42500 49630,42499 49612,42497 49594,42492 49577,42486 49560,42478 49545,42469 49530,42458 49516,42445 49504,42432 49493,42417 49483,42401 49475,42385 49469,42367 49465,42349 49462,42331 49461,42313 Z"/>
    <path fill="none" stroke="rgb(0,0,255)" d="M 49461,42313 L 49461,40187 49462,40169 49465,40150 49469,40133 49475,40115 49483,40099 49493,40083 49504,40068 49516,40054 49530,40042 49545,40031 49560,40022 49577,40014 49594,40008 49612,40003 49630,40000 49648,40000 50939,40000 50957,40000 50975,40003 50993,40008 51010,40014 51027,40022 51043,40031 51057,40042 51071,40054 51083,40068 51094,40083 51104,40099 51112,40115 51118,40133 51122,40150 51125,40169 51126,40187 51126,42313 51125,42331 51122,42349 51118,42367 51112,42385 51104,42401 51094,42417 51083,42432 51071,42445 51057,42458 51043,42469 51027,42478 51010,42486 50993,42492 50975,42497 50957,42499 50939,42500 49648,42500 49630,42499 49612,42497 49594,42492 49577,42486 49560,42478 49545,42469 49530,42458 49516,42445 49504,42432 49493,42417 49483,42401 49475,42385 49469,42367 49465,42349 49462,42331 49461,42313 Z"/>
   </g>
  </g>
  <g class="com.sun.star.drawing.PolyPolygonShape">
   <g id="id4">
    <rect class="BoundingBox" stroke="none" fill="none" x="49523" y="40061" width="1542" height="2379"/>
    <path fill="rgb(255,255,255)" stroke="none" d="M 49524,42313 L 49524,40187 49524,40175 49526,40163 49529,40151 49533,40139 49538,40128 49545,40117 49552,40108 49560,40099 49569,40090 49579,40083 49590,40077 49601,40072 49612,40067 49624,40064 49636,40063 49648,40062 50939,40062 50951,40063 50963,40064 50975,40067 50986,40072 50997,40077 51008,40083 51018,40090 51027,40099 51035,40108 51042,40117 51049,40128 51054,40139 51058,40151 51061,40163 51063,40175 51063,40187 51063,42313 51063,42325 51061,42337 51058,42349 51054,42361 51049,42372 51042,42382 51035,42392 51027,42401 51018,42410 51008,42417 50997,42423 50986,42428 50975,42432 50963,42436 50951,42437 50939,42438 49648,42438 49636,42437 49624,42436 49612,42432 49601,42428 49590,42423 49579,42417 49569,42410 49560,42401 49552,42392 49545,42382 49538,42372 49533,42361 49529,42349 49526,42337 49524,42325 49524,42313 Z"/>
    <path fill="none" stroke="rgb(255,255,255)" d="M 49524,42313 L 49524,40187 49524,40175 49526,40163 49529,40151 49533,40139 49538,40128 49545,40117 49552,40108 49560,40099 49569,40090 49579,40083 49590,40077 49601,40072 49612,40067 49624,40064 49636,40063 49648,40062 50939,40062 50951,40063 50963,40064 50975,40067 50986,40072 50997,40077 51008,40083 51018,40090 51027,40099 51035,40108 51042,40117 51049,40128 51054,40139 51058,40151 51061,40163 51063,40175 51063,40187 51063,42313 51063,42325 51061,42337 51058,42349 51054,42361 51049,42372 51042,42382 51035,42392 51027,42401 51018,42410 51008,42417 50997,42423 50986,42428 50975,42432 50963,42436 50951,42437 50939,42438 49648,42438 49636,42437 49624,42436 49612,42432 49601,42428 49590,42423 49579,42417 49569,42410 49560,42401 49552,42392 49545,42382 49538,42372 49533,42361 49529,42349 49526,42337 49524,42325 49524,42313 Z"/>
   </g>
  </g>
  <g class="com.sun.star.drawing.PolyPolygonShape">
   <g id="id5">
    <rect class="BoundingBox" stroke="none" fill="none" x="49585" y="40124" width="1418" height="2253"/>
    <path fill="rgb(0,0,255)" stroke="none" d="M 49586,42313 L 49586,40187 49587,40175 49591,40163 49597,40152 49604,40143 49614,40135 49624,40129 49636,40126 49648,40125 50939,40125 50951,40126 50963,40129 50973,40135 50983,40143 50991,40152 50996,40163 51000,40175 51001,40187 51001,42313 51000,42325 50996,42337 50991,42348 50983,42357 50973,42365 50963,42371 50951,42374 50939,42375 49648,42375 49636,42374 49624,42371 49614,42365 49604,42357 49597,42348 49591,42337 49587,42325 49586,42313 Z"/>
    <path fill="none" stroke="rgb(0,0,255)" d="M 49586,42313 L 49586,40187 49587,40175 49591,40163 49597,40152 49604,40143 49614,40135 49624,40129 49636,40126 49648,40125 50939,40125 50951,40126 50963,40129 50973,40135 50983,40143 50991,40152 50996,40163 51000,40175 51001,40187 51001,42313 51000,42325 50996,42337 50991,42348 50983,42357 50973,42365 50963,42371 50951,42374 50939,42375 49648,42375 49636,42374 49624,42371 49614,42365 49604,42357 49597,42348 49591,42337 49587,42325 49586,42313 Z"/>
   </g>
  </g>
  <g class="com.sun.star.drawing.PolyPolygonShape">
   <g id="id6">
    <rect class="BoundingBox" stroke="none" fill="none" x="50043" y="40707" width="503" height="170"/>
    <path fill="rgb(255,0,0)" stroke="none" d="M 50544,40875 L 50044,40875 50044,40708 50544,40708 50544,40875 Z"/>
    <path fill="none" stroke="rgb(255,0,0)" d="M 50544,40875 L 50044,40875 50044,40708 50544,40708 50544,40875 Z"/>
   </g>
  </g>
  <g class="com.sun.star.drawing.PolyPolygonShape">
   <g id="id7">
    <rect class="BoundingBox" stroke="none" fill="none" x="50188" y="40873" width="212" height="1254"/>
    <path fill="rgb(255,255,255)" stroke="none" d="M 50398,42125 L 50189,42125 50189,40874 50398,40874 50398,42125 Z"/>
    <path fill="none" stroke="rgb(255,255,255)" d="M 50398,42125 L 50189,42125 50189,40874 50398,40874 50398,42125 Z"/>
   </g>
  </g>
  <g class="com.sun.star.drawing.PolyPolygonShape">
   <g id="id8">
    <rect class="BoundingBox" stroke="none" fill="none" x="50188" y="40873" width="212" height="1254"/>
    <path fill="rgb(255,255,255)" stroke="none" d="M 50398,42125 L 50189,42125 50189,40874 50398,40874 50398,42125 Z"/>
    <path fill="none" stroke="rgb(255,255,255)" d="M 50398,42125 L 50189,42125 50189,40874 50398,40874 50398,42125 Z"/>
   </g>
  </g>
 </g>
</svg>