<?xml version="1.0" encoding="UTF-8"?>
<!DOCTYPE svg PUBLIC "-//W3C//DTD SVG 1.1//EN" "http://www.w3.org/Graphics/SVG/1.1/DTD/svg11.dtd">
<svg version="1.2" width="17.15mm" height="25.03mm" viewBox="56137 39999 1715 2503" preserveAspectRatio="xMidYMid" fill-rule="evenodd" stroke-width="28.222" stroke-linejoin="round" xmlns="http://www.w3.org/2000/svg" xmlns:ooo="http://xml.openoffice.org/svg/export" xmlns:xlink="http://www.w3.org/1999/xlink" xmlns:presentation="http://sun.com/xmlns/staroffice/presentation" xmlns:smil="http://www.w3.org/2001/SMIL20/" xmlns:anim="urn:oasis:names:tc:opendocument:xmlns:animation:1.0" xml:space="preserve">
 <defs class="EmbeddedBulletChars">
  <g id="bullet-char-template-57356" transform="scale(0.00048828125,-0.00048828125)">
   <path d="M 580,1141 L 1163,571 580,0 -4,571 580,1141 Z"/>
  </g>
  <g id="bullet-char-template-57354" transform="scale(0.00048828125,-0.00048828125)">
   <path d="M 8,1128 L 1137,1128 1137,0 8,0 8,1128 Z"/>
  </g>
  <g id="bullet-char-template-10146" transform="scale(0.00048828125,-0.00048828125)">
   <path d="M 174,0 L 602,739 174,1481 1456,739 174,0 Z M 1358,739 L 309,1346 659,739 1358,739 Z"/>
  </g>
  <g id="bullet-char-template-10132" transform="scale(0.00048828125,-0.00048828125)">
   <path d="M 2015,739 L 1276,0 717,0 1260,543 174,543 174,936 1260,936 717,1481 1274,1481 2015,739 Z"/>
  </g>
  <g id="bullet-char-template-10007" transform="scale(0.00048828125,-0.00048828125)">
   <path d="M 0,-2 C -7,14 -16,27 -25,37 L 356,567 C 262,823 215,952 215,954 215,979 228,992 255,992 264,992 276,990 289,987 310,991 331,999 354,1012 L 381,999 492,748 772,1049 836,1024 860,1049 C 881,1039 901,1025 922,1006 886,937 835,863 770,784 769,783 710,716 594,584 L 774,223 C 774,196 753,168 711,139 L 727,119 C 717,90 699,76 672,76 641,76 570,178 457,381 L 164,-76 C 142,-110 111,-127 72,-127 30,-127 9,-110 8,-76 1,-67 -2,-52 -2,-32 -2,-23 -1,-13 0,-2 Z"/>
  </g>
  <g id="bullet-char-template-10004" transform="scale(0.00048828125,-0.00048828125)">
   <path d="M 285,-33 C 182,-33 111,30 74,156 52,228 41,333 41,471 41,549 55,616 82,672 116,743 169,778 240,778 293,778 328,747 346,684 L 369,508 C 377,444 397,411 428,410 L 1163,1116 C 1174,1127 1196,1133 1229,1133 1271,1133 1292,1118 1292,1087 L 1292,965 C 1292,929 1282,901 1262,881 L 442,47 C 390,-6 338,-33 285,-33 Z"/>
  </g>
  <g id="bullet-char-template-9679" transform="scale(0.00048828125,-0.00048828125)">
   <path d="M 813,0 C 632,0 489,54 383,161 276,268 223,411 223,592 223,773 276,916 383,1023 489,1130 632,1184 813,1184 992,1184 1136,1130 1245,1023 1353,916 1407,772 1407,592 1407,412 1353,268 1245,161 1136,54 992,0 813,0 Z"/>
  </g>
  <g id="bullet-char-template-8226" transform="scale(0.00048828125,-0.00048828125)">
   <path d="M 346,457 C 273,457 209,483 155,535 101,586 74,649 74,723 74,796 101,859 155,911 209,963 273,989 346,989 419,989 480,963 531,910 582,859 608,796 608,723 608,648 583,586 532,535 482,483 420,457 346,457 Z"/>
  </g>
  <g id="bullet-char-template-8211" transform="scale(0.00048828125,-0.00048828125)">
   <path d="M -4,459 L 1135,459 1135,606 -4,606 -4,459 Z"/>
  </g>
  <g id="bullet-char-template-61548" transform="scale(0.00048828125,-0.00048828125)">
   <path d="M 173,740 C 173,903 231,1043 346,1159 462,1274 601,1332 765,1332 928,1332 1067,1274 1183,1159 1299,1043 1357,903 1357,740 1357,577 1299,437 1183,322 1067,206 928,148 765,148 601,148 462,206 346,322 231,437 173,577 173,740 Z"/>
  </g>
 </defs>
 <g class="Page">
  <g class="com.sun.star.drawing.PolyPolygonShape">
   <g id="id3">
    <rect class="BoundingBox" stroke="none" fill="none" x="56137" y="39999" width="1715" height="2503"/>
    <path fill="rgb(0,0,255)" stroke="none" d="M 56138,42313 L 56138,40187 56138,40182 56138,40178 56138,40173 56139,40169 56139,40164 56140,40160 56141,40155 56141,40150 56142,40146 56143,40141 56145,40137 56146,40133 56147,40128 56149,40124 56151,40119 56152,40115 56154,40111 56156,40107 56158,40103 56160,40099 56163,40095 56165,40091 56168,40087 56170,40083 56173,40079 56176,40075 56178,40072 56181,40068 56184,40065 56188,40061 56191,40058 56194,40054 56197,40051 56201,40048 56204,40045 56208,40042 56212,40039 56216,40036 56219,40034 56223,40031 56227,40029 56231,40026 56235,40024 56239,40022 56244,40019 56248,40017 56252,40016 56257,40014 56261,40012 56265,40010 56270,40009 56274,40008 56279,40006 56283,40005 56288,40004 56293,40003 56297,40002 56302,40001 56307,40001 56311,40000 56316,40000 56321,40000 56325,40000 56330,40000 57657,40000 57662,40000 57667,40000 57671,40000 57676,40000 57681,40001 57685,40001 57690,40002 57695,40003 57699,40004 57704,40005 57708,40006 57713,40008 57717,40009 57722,40010 57726,40012 57731,40014 57735,40016 57739,40017 57744,40019 57748,40022 57752,40024 57756,40026 57760,40029 57764,40031 57768,40034 57772,40036 57775,40039 57779,40042 57783,40045 57786,40048 57790,40051 57793,40054 57796,40058 57800,40061 57803,40065 57806,40068 57809,40072 57812,40075 57814,40079 57817,40083 57820,40087 57822,40091 57824,40095 57827,40099 57829,40103 57831,40107 57833,40111 57835,40115 57837,40119 57838,40124 57840,40128 57841,40133 57843,40137 57844,40141 57845,40146 57846,40150 57847,40155 57847,40160 57848,40164 57849,40169 57849,40173 57849,40178 57849,40182 57850,40187 57850,42313 57849,42317 57849,42322 57849,42327 57849,42331 57848,42336 57847,42340 57847,42345 57846,42349 57845,42354 57844,42358 57843,42363 57841,42367 57840,42372 57838,42376 57837,42380 57835,42385 57833,42389 57831,42393 57829,42397 57827,42401 57824,42405 57822,42409 57820,42413 57817,42417 57814,42421 57812,42424 57809,42428 57806,42432 57803,42435 57800,42439 57796,42442 57793,42445 57790,42449 57786,42452 57783,42455 57779,42458 57775,42461 57772,42464 57768,42466 57764,42469 57760,42471 57756,42474 57752,42476 57748,42478 57744,42480 57739,42482 57735,42484 57731,42486 57726,42488 57722,42489 57717,42491 57713,42492 57708,42494 57704,42495 57699,42496 57695,42497 57690,42498 57685,42498 57681,42499 57676,42499 57671,42500 57667,42500 57662,42500 57657,42500 56330,42500 56325,42500 56321,42500 56316,42500 56311,42499 56307,42499 56302,42498 56297,42498 56293,42497 56288,42496 56283,42495 56279,42494 56274,42492 56270,42491 56265,42489 56261,42488 56257,42486 56252,42484 56248,42482 56244,42480 56239,42478 56235,42476 56231,42474 56227,42471 56223,42469 56219,42466 56216,42464 56212,42461 56208,42458 56204,42455 56201,42452 56197,42449 56194,42445 56191,42442 56188,42439 56184,42435 56181,42432 56178,42428 56176,42424 56173,42421 56170,42417 56168,42413 56165,42409 56163,42405 56160,42401 56158,42397 56156,42393 56154,42389 56152,42385 56151,42380 56149,42376 56147,42372 56146,42367 56145,42363 56143,42358 56142,42354 56141,42349 56141,42345 56140,42340 56139,42336 56139,42331 56138,42327 56138,42322 56138,42317 56138,42313 Z"/>
    <path fill="none" stroke="rgb(0,0,255)" d="M 56138,42313 L 56138,40187 56138,40182 56138,40178 56138,40173 56139,40169 56139,40164 56140,40160 56141,40155 56141,40150 56142,40146 56143,40141 56145,40137 56146,40133 56147,40128 56149,40124 56151,40119 56152,40115 56154,40111 56156,40107 56158,40103 56160,40099 56163,40095 56165,40091 56168,40087 56170,40083 56173,40079 56176,40075 56178,40072 56181,40068 56184,40065 56188,40061 56191,40058 56194,40054 56197,40051 56201,40048 56204,40045 56208,40042 56212,40039 56216,40036 56219,40034 56223,40031 56227,40029 56231,40026 56235,40024 56239,40022 56244,40019 56248,40017 56252,40016 56257,40014 56261,40012 56265,40010 56270,40009 56274,40008 56279,40006 56283,40005 56288,40004 56293,40003 56297,40002 56302,40001 56307,40001 56311,40000 56316,40000 56321,40000 56325,40000 56330,40000 57657,40000 57662,40000 57667,40000 57671,40000 57676,40000 57681,40001 57685,40001 57690,40002 57695,40003 57699,40004 57704,40005 57708,40006 57713,40008 57717,40009 57722,40010 57726,40012 57731,40014 57735,40016 57739,40017 57744,40019 57748,40022 57752,40024 57756,40026 57760,40029 57764,40031 57768,40034 57772,40036 57775,40039 57779,40042 57783,40045 57786,40048 57790,40051 57793,40054 57796,40058 57800,40061 57803,40065 57806,40068 57809,40072 57812,40075 57814,40079 57817,40083 57820,40087 57822,40091 57824,40095 57827,40099 57829,40103 57831,40107 57833,40111 57835,40115 57837,40119 57838,40124 57840,40128 57841,40133 57843,40137 57844,40141 57845,40146 57846,40150 57847,40155 57847,40160 57848,40164 57849,40169 57849,40173 57849,40178 57849,40182 57850,40187 57850,42313 57849,42317 57849,42322 57849,42327 57849,42331 57848,42336 57847,42340 57847,42345 57846,42349 57845,42354 57844,42358 57843,42363 57841,42367 57840,42372 57838,42376 57837,42380 57835,42385 57833,42389 57831,42393 57829,42397 57827,42401 57824,42405 57822,42409 57820,42413 57817,42417 57814,42421 57812,42424 57809,42428 57806,42432 57803,42435 57800,42439 57796,42442 57793,42445 57790,42449 57786,42452 57783,42455 57779,42458 57775,42461 57772,42464 57768,42466 57764,42469 57760,42471 57756,42474 57752,42476 57748,42478 57744,42480 57739,42482 57735,42484 57731,42486 57726,42488 57722,42489 57717,42491 57713,42492 57708,42494 57704,42495 57699,42496 57695,42497 57690,42498 57685,42498 57681,42499 57676,42499 57671,42500 57667,42500 57662,42500 57657,42500 56330,42500 56325,42500 56321,42500 56316,42500 56311,42499 56307,42499 56302,42498 56297,42498 56293,42497 56288,42496 56283,42495 56279,42494 56274,42492 56270,42491 56265,42489 56261,42488 56257,42486 56252,42484 56248,42482 56244,42480 56239,42478 56235,42476 56231,42474 56227,42471 56223,42469 56219,42466 56216,42464 56212,42461 56208,42458 56204,42455 56201,42452 56197,42449 56194,42445 56191,42442 56188,42439 56184,42435 56181,42432 56178,42428 56176,42424 56173,42421 56170,42417 56168,42413 56165,42409 56163,42405 56160,42401 56158,42397 56156,42393 56154,42389 56152,42385 56151,42380 56149,42376 56147,42372 56146,42367 56145,42363 56143,42358 56142,42354 56141,42349 56141,42345 56140,42340 56139,42336 56139,42331 56138,42327 56138,42322 56138,42317 56138,42313 Z"/>
   </g>
  </g>
  <g class="com.sun.star.drawing.PolyPolygonShape">
   <g id="id4">
    <rect class="BoundingBox" stroke="none" fill="none" x="56201" y="40061" width="1586" height="2379"/>
    <path fill="rgb(255,255,255)" stroke="none" d="M 56202,42313 L 56202,40187 56202,40184 56202,40181 56202,40178 56202,40175 56203,40172 56203,40169 56204,40166 56204,40163 56205,40160 56206,40157 56207,40154 56207,40151 56208,40148 56209,40145 56210,40142 56212,40139 56213,40136 56214,40134 56216,40131 56217,40128 56219,40125 56220,40123 56222,40120 56223,40117 56225,40115 56227,40112 56229,40110 56231,40108 56233,40105 56235,40103 56237,40101 56239,40099 56242,40096 56244,40094 56246,40092 56249,40090 56251,40088 56254,40087 56256,40085 56259,40083 56262,40081 56264,40080 56267,40078 56270,40077 56272,40075 56275,40074 56278,40073 56281,40072 56284,40070 56287,40069 56290,40068 56293,40067 56296,40067 56299,40066 56302,40065 56305,40064 56308,40064 56311,40063 56314,40063 56318,40063 56321,40062 56324,40062 56327,40062 56330,40062 57656,40062 57659,40062 57662,40062 57666,40062 57669,40063 57672,40063 57675,40063 57678,40064 57681,40064 57684,40065 57687,40066 57690,40067 57693,40067 57696,40068 57699,40069 57702,40070 57705,40072 57708,40073 57711,40074 57714,40075 57717,40077 57719,40078 57722,40080 57725,40081 57727,40083 57730,40085 57732,40087 57735,40088 57737,40090 57740,40092 57742,40094 57746,40096 57748,40099 57750,40101 57752,40103 57754,40105 57756,40108 57758,40110 57760,40112 57762,40115 57764,40117 57765,40120 57767,40123 57769,40125 57770,40128 57772,40131 57773,40134 57774,40136 57776,40139 57777,40142 57778,40145 57779,40148 57780,40151 57781,40154 57782,40157 57782,40160 57783,40163 57783,40166 57784,40169 57784,40172 57785,40175 57785,40178 57785,40181 57785,40184 57785,40187 57785,42313 57785,42316 57785,42319 57785,42322 57785,42325 57784,42328 57784,42331 57783,42334 57783,42337 57782,42340 57782,42343 57781,42346 57780,42349 57779,42352 57778,42355 57777,42358 57776,42361 57774,42364 57773,42366 57772,42369 57770,42372 57769,42374 57767,42377 57765,42380 57764,42382 57762,42385 57760,42387 57758,42390 57756,42392 57754,42395 57752,42397 57750,42399 57748,42401 57746,42403 57742,42406 57740,42408 57737,42410 57735,42411 57732,42413 57730,42415 57727,42417 57725,42419 57722,42420 57719,42422 57717,42423 57714,42424 57711,42426 57708,42427 57705,42428 57702,42430 57699,42431 57696,42432 57693,42432 57690,42433 57687,42434 57684,42435 57681,42436 57678,42436 57675,42437 57672,42437 57669,42437 57666,42438 57662,42438 57659,42438 57656,42438 56330,42438 56327,42438 56324,42438 56321,42438 56318,42437 56314,42437 56311,42437 56308,42436 56305,42436 56302,42435 56299,42434 56296,42433 56293,42432 56290,42432 56287,42431 56284,42430 56281,42428 56278,42427 56275,42426 56272,42424 56270,42423 56267,42422 56264,42420 56262,42419 56259,42417 56256,42415 56254,42413 56251,42411 56249,42410 56246,42408 56244,42406 56242,42403 56239,42401 56237,42399 56235,42397 56233,42395 56231,42392 56229,42390 56227,42387 56225,42385 56223,42382 56222,42380 56220,42377 56219,42374 56217,42372 56216,42369 56214,42366 56213,42364 56212,42361 56210,42358 56209,42355 56208,42352 56207,42349 56207,42346 56206,42343 56205,42340 56204,42337 56204,42334 56203,42331 56203,42328 56202,42325 56202,42322 56202,42319 56202,42316 56202,42313 Z"/>
    <path fill="none" stroke="rgb(255,255,255)" d="M 56202,42313 L 56202,40187 56202,40184 56202,40181 56202,40178 56202,40175 56203,40172 56203,40169 56204,40166 56204,40163 56205,40160 56206,40157 56207,40154 56207,40151 56208,40148 56209,40145 56210,40142 56212,40139 56213,40136 56214,40134 56216,40131 56217,40128 56219,40125 56220,40123 56222,40120 56223,40117 56225,40115 56227,40112 56229,40110 56231,40108 56233,40105 56235,40103 56237,40101 56239,40099 56242,40096 56244,40094 56246,40092 56249,40090 56251,40088 56254,40087 56256,40085 56259,40083 56262,40081 56264,40080 56267,40078 56270,40077 56272,40075 56275,40074 56278,40073 56281,40072 56284,40070 56287,40069 56290,40068 56293,40067 56296,40067 56299,40066 56302,40065 56305,40064 56308,40064 56311,40063 56314,40063 56318,40063 56321,40062 56324,40062 56327,40062 56330,40062 57656,40062 57659,40062 57662,40062 57666,40062 57669,40063 57672,40063 57675,40063 57678,40064 57681,40064 57684,40065 57687,40066 57690,40067 57693,40067 57696,40068 57699,40069 57702,40070 57705,40072 57708,40073 57711,40074 57714,40075 57717,40077 57719,40078 57722,40080 57725,40081 57727,40083 57730,40085 57732,40087 57735,40088 57737,40090 57740,40092 57742,40094 57746,40096 57748,40099 57750,40101 57752,40103 57754,40105 57756,40108 57758,40110 57760,40112 57762,40115 57764,40117 57765,40120 57767,40123 57769,40125 57770,40128 57772,40131 57773,40134 57774,40136 57776,40139 57777,40142 57778,40145 57779,40148 57780,40151 57781,40154 57782,40157 57782,40160 57783,40163 57783,40166 57784,40169 57784,40172 57785,40175 57785,40178 57785,40181 57785,40184 57785,40187 57785,42313 57785,42316 57785,42319 57785,42322 57785,42325 57784,42328 57784,42331 57783,42334 57783,42337 57782,42340 57782,42343 57781,42346 57780,42349 57779,42352 57778,42355 57777,42358 57776,42361 57774,42364 57773,42366 57772,42369 57770,42372 57769,42374 57767,42377 57765,42380 57764,42382 57762,42385 57760,42387 57758,42390 57756,42392 57754,42395 57752,42397 57750,42399 57748,42401 57746,42403 57742,42406 57740,42408 57737,42410 57735,42411 57732,42413 57730,42415 57727,42417 57725,42419 57722,42420 57719,42422 57717,42423 57714,42424 57711,42426 57708,42427 57705,42428 57702,42430 57699,42431 57696,42432 57693,42432 57690,42433 57687,42434 57684,42435 57681,42436 57678,42436 57675,42437 57672,42437 57669,42437 57666,42438 57662,42438 57659,42438 57656,42438 56330,42438 56327,42438 56324,42438 56321,42438 56318,42437 56314,42437 56311,42437 56308,42436 56305,42436 56302,42435 56299,42434 56296,42433 56293,42432 56290,42432 56287,42431 56284,42430 56281,42428 56278,42427 56275,42426 56272,42424 56270,42423 56267,42422 56264,42420 56262,42419 56259,42417 56256,42415 56254,42413 56251,42411 56249,42410 56246,42408 56244,42406 56242,42403 56239,42401 56237,42399 56235,42397 56233,42395 56231,42392 56229,42390 56227,42387 56225,42385 56223,42382 56222,42380 56220,42377 56219,42374 56217,42372 56216,42369 56214,42366 56213,42364 56212,42361 56210,42358 56209,42355 56208,42352 56207,42349 56207,42346 56206,42343 56205,42340 56204,42337 56204,42334 56203,42331 56203,42328 56202,42325 56202,42322 56202,42319 56202,42316 56202,42313 Z"/>
   </g>
  </g>
  <g class="com.sun.star.drawing.PolyPolygonShape">
   <g id="id5">
    <rect class="BoundingBox" stroke="none" fill="none" x="56265" y="40124" width="1458" height="2253"/>
    <path fill="rgb(0,0,255)" stroke="none" d="M 56266,42313 L 56266,40187 56266,40185 56266,40184 56266,40182 56266,40181 56267,40179 56267,40178 56267,40176 56267,40175 56268,40173 56268,40172 56268,40170 56269,40169 56269,40167 56270,40166 56270,40165 56271,40163 56272,40162 56272,40160 56273,40159 56274,40157 56274,40156 56275,40155 56276,40154 56277,40152 56278,40151 56279,40150 56280,40148 56281,40147 56282,40146 56283,40145 56284,40144 56285,40143 56286,40142 56287,40141 56288,40140 56289,40139 56291,40138 56292,40137 56293,40136 56295,40135 56296,40134 56297,40133 56298,40133 56300,40132 56301,40131 56303,40131 56304,40130 56306,40129 56307,40129 56309,40128 56310,40128 56311,40127 56313,40127 56315,40126 56316,40126 56318,40126 56319,40125 56321,40125 56322,40125 56324,40125 56325,40125 56327,40125 56329,40125 56330,40125 57657,40125 57659,40125 57660,40125 57662,40125 57663,40125 57665,40125 57667,40125 57668,40125 57670,40126 57671,40126 57673,40126 57674,40127 57676,40127 57677,40128 57679,40128 57680,40129 57682,40129 57683,40130 57685,40131 57686,40131 57687,40132 57689,40133 57690,40133 57691,40134 57693,40135 57694,40136 57695,40137 57697,40138 57698,40139 57699,40140 57700,40141 57701,40142 57702,40143 57704,40144 57705,40145 57706,40146 57707,40147 57708,40148 57709,40150 57710,40151 57710,40152 57711,40154 57712,40155 57713,40156 57714,40157 57714,40159 57715,40160 57716,40162 57716,40163 57717,40165 57717,40166 57718,40167 57718,40169 57719,40170 57719,40172 57720,40173 57720,40175 57720,40176 57720,40178 57721,40179 57721,40181 57721,40182 57721,40184 57721,40185 57721,40187 57721,42313 57721,42314 57721,42316 57721,42317 57721,42319 57721,42321 57720,42322 57720,42324 57720,42325 57720,42327 57719,42328 57719,42330 57718,42331 57718,42332 57717,42334 57717,42335 57716,42337 57716,42338 57715,42340 57714,42341 57714,42342 57713,42344 57712,42345 57711,42346 57710,42348 57710,42349 57709,42350 57708,42351 57707,42353 57706,42354 57705,42355 57704,42356 57702,42357 57701,42358 57700,42359 57699,42360 57698,42361 57697,42362 57695,42363 57694,42364 57693,42365 57691,42366 57690,42366 57689,42367 57687,42368 57686,42369 57685,42369 57683,42370 57682,42371 57680,42371 57679,42372 57677,42372 57676,42373 57674,42373 57673,42374 57671,42374 57670,42374 57668,42374 57667,42375 57665,42375 57663,42375 57662,42375 57660,42375 57659,42375 57657,42375 56330,42375 56329,42375 56327,42375 56325,42375 56324,42375 56322,42375 56321,42375 56319,42374 56318,42374 56316,42374 56315,42374 56313,42373 56311,42373 56310,42372 56309,42372 56307,42371 56306,42371 56304,42370 56303,42369 56301,42369 56300,42368 56298,42367 56297,42366 56296,42366 56295,42365 56293,42364 56292,42363 56291,42362 56289,42361 56288,42360 56287,42359 56286,42358 56285,42357 56284,42356 56283,42355 56282,42354 56281,42353 56280,42351 56279,42350 56278,42349 56277,42348 56276,42346 56275,42345 56274,42344 56274,42342 56273,42341 56272,42340 56272,42338 56271,42337 56270,42335 56270,42334 56269,42332 56269,42331 56268,42330 56268,42328 56268,42327 56267,42325 56267,42324 56267,42322 56267,42321 56266,42319 56266,42317 56266,42316 56266,42314 56266,42313 Z"/>
    <path fill="none" stroke="rgb(0,0,255)" d="M 56266,42313 L 56266,40187 56266,40185 56266,40184 56266,40182 56266,40181 56267,40179 56267,40178 56267,40176 56267,40175 56268,40173 56268,40172 56268,40170 56269,40169 56269,40167 56270,40166 56270,40165 56271,40163 56272,40162 56272,40160 56273,40159 56274,40157 56274,40156 56275,40155 56276,40154 56277,40152 56278,40151 56279,40150 56280,40148 56281,40147 56282,40146 56283,40145 56284,40144 56285,40143 56286,40142 56287,40141 56288,40140 56289,40139 56291,40138 56292,40137 56293,40136 56295,40135 56296,40134 56297,40133 56298,40133 56300,40132 56301,40131 56303,40131 56304,40130 56306,40129 56307,40129 56309,40128 56310,40128 56311,40127 56313,40127 56315,40126 56316,40126 56318,40126 56319,40125 56321,40125 56322,40125 56324,40125 56325,40125 56327,40125 56329,40125 56330,40125 57657,40125 57659,40125 57660,40125 57662,40125 57663,40125 57665,40125 57667,40125 57668,40125 57670,40126 57671,40126 57673,40126 57674,40127 57676,40127 57677,40128 57679,40128 57680,40129 57682,40129 57683,40130 57685,40131 57686,40131 57687,40132 57689,40133 57690,40133 57691,40134 57693,40135 57694,40136 57695,40137 57697,40138 57698,40139 57699,40140 57700,40141 57701,40142 57702,40143 57704,40144 57705,40145 57706,40146 57707,40147 57708,40148 57709,40150 57710,40151 57710,40152 57711,40154 57712,40155 57713,40156 57714,40157 57714,40159 57715,40160 57716,40162 57716,40163 57717,40165 57717,40166 57718,40167 57718,40169 57719,40170 57719,40172 57720,40173 57720,40175 57720,40176 57720,40178 57721,40179 57721,40181 57721,40182 57721,40184 57721,40185 57721,40187 57721,42313 57721,42314 57721,42316 57721,42317 57721,42319 57721,42321 57720,42322 57720,42324 57720,42325 57720,42327 57719,42328 57719,42330 57718,42331 57718,42332 57717,42334 57717,42335 57716,42337 57716,42338 57715,42340 57714,42341 57714,42342 57713,42344 57712,42345 57711,42346 57710,42348 57710,42349 57709,42350 57708,42351 57707,42353 57706,42354 57705,42355 57704,42356 57702,42357 57701,42358 57700,42359 57699,42360 57698,42361 57697,42362 57695,42363 57694,42364 57693,42365 57691,42366 57690,42366 57689,42367 57687,42368 57686,42369 57685,42369 57683,42370 57682,42371 57680,42371 57679,42372 57677,42372 57676,42373 57674,42373 57673,42374 57671,42374 57670,42374 57668,42374 57667,42375 57665,42375 57663,42375 57662,42375 57660,42375 57659,42375 57657,42375 56330,42375 56329,42375 56327,42375 56325,42375 56324,42375 56322,42375 56321,42375 56319,42374 56318,42374 56316,42374 56315,42374 56313,42373 56311,42373 56310,42372 56309,42372 56307,42371 56306,42371 56304,42370 56303,42369 56301,42369 56300,42368 56298,42367 56297,42366 56296,42366 56295,42365 56293,42364 56292,42363 56291,42362 56289,42361 56288,42360 56287,42359 56286,42358 56285,42357 56284,42356 56283,42355 56282,42354 56281,42353 56280,42351 56279,42350 56278,42349 56277,42348 56276,42346 56275,42345 56274,42344 56274,42342 56273,42341 56272,42340 56272,42338 56271,42337 56270,42335 56270,42334 56269,42332 56269,42331 56268,42330 56268,42328 56268,42327 56267,42325 56267,42324 56267,42322 56267,42321 56266,42319 56266,42317 56266,42316 56266,42314 56266,42313 Z"/>
   </g>
  </g>
  <g class="com.sun.star.drawing.PolyPolygonShape">
   <g id="id6">
    <rect class="BoundingBox" stroke="none" fill="none" x="57158" y="40336" width="153" height="316"/>
    <path fill="rgb(255,255,255)" stroke="none" d="M 57262,40647 L 57256,40624 57255,40624 57255,40623 57254,40623 57253,40623 57252,40621 57251,40620 57250,40618 57249,40616 57248,40614 57248,40612 57247,40610 57246,40608 57246,40607 57245,40605 57245,40603 57244,40601 57244,40599 57244,40597 57243,40595 57243,40593 57242,40592 57241,40591 57240,40590 57239,40589 57238,40588 57238,40587 57237,40586 57236,40585 57235,40584 57234,40583 57234,40582 57233,40581 57232,40580 57231,40578 57231,40577 57230,40576 57230,40575 57229,40574 57229,40573 57228,40571 57228,40570 57227,40569 57227,40568 57226,40566 57226,40565 57226,40564 57225,40562 57225,40561 57225,40560 57225,40559 57225,40557 57225,40556 57224,40559 57223,40562 57222,40564 57221,40567 57220,40570 57219,40572 57218,40575 57216,40578 57215,40580 57214,40583 57212,40585 57211,40588 57209,40590 57208,40593 57206,40595 57204,40597 57201,40607 57199,40617 57193,40624 57194,40626 57192,40630 57192,40631 57192,40632 57192,40633 57193,40634 57193,40635 57194,40636 57195,40637 57197,40637 57198,40638 57199,40638 57200,40639 57202,40639 57203,40640 57204,40640 57206,40640 57206,40641 57207,40641 57208,40642 57208,40643 57209,40643 57209,40644 57209,40645 57209,40646 57210,40647 57210,40649 57208,40649 57206,40650 57204,40650 57202,40650 57200,40650 57197,40650 57195,40650 57193,40650 57192,40650 57190,40649 57189,40649 57187,40649 57186,40649 57185,40648 57183,40648 57182,40647 57181,40647 57179,40646 57178,40646 57177,40645 57176,40644 57175,40643 57173,40642 57172,40641 57170,40644 57160,40640 57160,40637 57159,40636 57168,40621 57168,40618 57170,40612 57172,40607 57174,40601 57176,40596 57178,40590 57180,40585 57182,40579 57184,40574 57185,40568 57187,40562 57189,40557 57191,40551 57192,40545 57194,40540 57195,40534 57196,40528 57196,40520 57194,40520 57193,40520 57193,40519 57192,40519 57191,40519 57191,40518 57191,40517 57190,40512 57188,40512 57188,40507 57187,40502 57187,40498 57187,40493 57186,40488 57186,40484 57186,40479 57187,40474 57187,40469 57187,40464 57188,40460 57188,40455 57189,40450 57190,40446 57191,40441 57192,40436 57192,40433 57193,40430 57194,40427 57194,40423 57195,40420 57196,40417 57197,40414 57198,40411 57200,40408 57201,40403 57202,40401 57204,40397 57205,40395 57207,40392 57209,40389 57211,40386 57209,40384 57212,40379 57215,40380 57215,40379 57215,40378 57216,40378 57216,40377 57216,40376 57216,40375 57216,40374 57216,40373 57216,40372 57216,40371 57216,40370 57216,40369 57216,40368 57215,40365 57214,40361 57213,40357 57212,40353 57212,40352 57212,40351 57212,40350 57212,40349 57213,40348 57213,40347 57213,40346 57214,40345 57214,40344 57215,40343 57215,40342 57216,40341 57217,40341 57218,40340 57219,40340 57220,40339 57220,40338 57221,40338 57222,40337 57223,40337 57224,40337 57225,40337 57226,40337 57228,40337 57229,40337 57230,40337 57231,40337 57232,40337 57233,40337 57234,40337 57235,40337 57237,40337 57238,40338 57239,40338 57240,40339 57241,40339 57242,40340 57243,40341 57244,40341 57245,40342 57246,40342 57247,40342 57247,40343 57248,40343 57248,40344 57247,40344 57247,40345 57247,40346 57247,40347 57247,40348 57248,40350 57248,40352 57247,40353 57247,40355 57247,40356 57247,40357 57247,40359 57248,40360 57248,40361 57248,40362 57249,40363 57249,40364 57249,40365 57249,40366 57248,40367 57247,40367 57246,40367 57245,40377 57245,40378 57244,40379 57243,40379 57243,40380 57242,40380 57241,40380 57240,40380 57239,40380 57238,40381 57237,40381 57237,40382 57236,40382 57236,40383 57235,40383 57235,40384 57235,40385 57235,40386 57235,40387 57235,40388 57236,40390 57237,40391 57238,40393 57239,40394 57240,40396 57241,40397 57242,40399 57243,40401 57244,40402 57244,40405 57245,40406 57246,40408 57246,40409 57247,40411 57247,40413 57248,40414 57249,40416 57249,40418 57250,40419 57250,40421 57250,40423 57251,40424 57251,40426 57251,40428 57252,40430 57252,40431 57252,40433 57252,40435 57252,40437 57252,40438 57252,40440 57252,40442 57253,40442 57253,40443 57253,40444 57254,40445 57255,40446 57256,40447 57258,40448 57261,40449 57263,40451 57265,40452 57267,40454 57269,40455 57272,40457 57274,40458 57276,40460 57278,40462 57280,40464 57282,40465 57283,40467 57285,40469 57287,40471 57289,40473 57288,40475 57289,40475 57290,40475 57292,40475 57293,40475 57294,40476 57295,40476 57296,40476 57297,40477 57298,40478 57299,40478 57300,40479 57301,40479 57301,40480 57302,40481 57302,40482 57302,40483 57302,40484 57302,40485 57302,40486 57302,40487 57302,40488 57301,40489 57301,40490 57301,40491 57300,40492 57300,40493 57299,40493 57297,40493 57296,40493 57295,40493 57294,40493 57293,40493 57292,40493 57290,40492 57290,40491 57290,40490 57289,40489 57289,40488 57289,40487 57288,40487 57287,40487 57287,40486 57286,40486 57285,40486 57284,40486 57283,40486 57282,40486 57281,40486 57281,40487 57280,40487 57280,40488 57279,40488 57279,40489 57276,40487 57273,40485 57270,40483 57267,40481 57264,40480 57261,40478 57258,40477 57255,40475 57264,40513 57264,40514 57264,40515 57264,40516 57264,40517 57263,40517 57263,40518 57262,40518 57262,40519 57261,40519 57260,40520 57259,40520 57257,40520 57256,40520 57255,40520 57254,40520 57253,40522 57253,40523 57253,40525 57253,40526 57253,40528 57253,40529 57253,40531 57253,40533 57253,40534 57253,40536 57254,40537 57254,40539 57254,40540 57254,40542 57255,40543 57255,40545 57255,40546 57256,40548 57256,40549 57257,40551 57257,40553 57258,40554 57258,40555 57259,40557 57260,40558 57260,40560 57261,40561 57262,40563 57263,40564 57263,40565 57264,40567 57265,40568 57265,40572 57266,40575 57266,40579 57267,40583 57268,40586 57268,40590 57269,40594 57270,40597 57271,40601 57272,40604 57274,40608 57275,40611 57276,40615 57278,40618 57279,40622 57281,40625 57283,40625 57284,40626 57284,40627 57285,40627 57286,40628 57286,40629 57287,40629 57288,40630 57289,40630 57290,40630 57292,40630 57293,40630 57294,40630 57296,40629 57297,40629 57299,40629 57300,40629 57301,40629 57302,40629 57303,40629 57304,40630 57305,40630 57306,40631 57307,40631 57308,40632 57308,40633 57309,40634 57309,40635 57305,40639 57304,40640 57302,40641 57300,40642 57298,40643 57297,40644 57295,40644 57293,40645 57290,40645 57288,40646 57286,40646 57284,40646 57282,40646 57280,40646 57278,40646 57277,40645 57275,40645 57275,40649 57264,40650 57263,40647 57262,40647 Z"/>
    <path fill="none" stroke="rgb(255,255,255)" d="M 57262,40647 L 57256,40624 57255,40624 57255,40623 57254,40623 57253,40623 57252,40621 57251,40620 57250,40618 57249,40616 57248,40614 57248,40612 57247,40610 57246,40608 57246,40607 57245,40605 57245,40603 57244,40601 57244,40599 57244,40597 57243,40595 57243,40593 57242,40592 57241,40591 57240,40590 57239,40589 57238,40588 57238,40587 57237,40586 57236,40585 57235,40584 57234,40583 57234,40582 57233,40581 57232,40580 57231,40578 57231,40577 57230,40576 57230,40575 57229,40574 57229,40573 57228,40571 57228,40570 57227,40569 57227,40568 57226,40566 57226,40565 57226,40564 57225,40562 57225,40561 57225,40560 57225,40559 57225,40557 57225,40556 57224,40559 57223,40562 57222,40564 57221,40567 57220,40570 57219,40572 57218,40575 57216,40578 57215,40580 57214,40583 57212,40585 57211,40588 57209,40590 57208,40593 57206,40595 57204,40597 57201,40607 57199,40617 57193,40624 57194,40626 57192,40630 57192,40631 57192,40632 57192,40633 57193,40634 57193,40635 57194,40636 57195,40637 57197,40637 57198,40638 57199,40638 57200,40639 57202,40639 57203,40640 57204,40640 57206,40640 57206,40641 57207,40641 57208,40642 57208,40643 57209,40643 57209,40644 57209,40645 57209,40646 57210,40647 57210,40649 57208,40649 57206,40650 57204,40650 57202,40650 57200,40650 57197,40650 57195,40650 57193,40650 57192,40650 57190,40649 57189,40649 57187,40649 57186,40649 57185,40648 57183,40648 57182,40647 57181,40647 57179,40646 57178,40646 57177,40645 57176,40644 57175,40643 57173,40642 57172,40641 57170,40644 57160,40640 57160,40637 57159,40636 57168,40621 57168,40618 57170,40612 57172,40607 57174,40601 57176,40596 57178,40590 57180,40585 57182,40579 57184,40574 57185,40568 57187,40562 57189,40557 57191,40551 57192,40545 57194,40540 57195,40534 57196,40528 57196,40520 57194,40520 57193,40520 57193,40519 57192,40519 57191,40519 57191,40518 57191,40517 57190,40512 57188,40512 57188,40507 57187,40502 57187,40498 57187,40493 57186,40488 57186,40484 57186,40479 57187,40474 57187,40469 57187,40464 57188,40460 57188,40455 57189,40450 57190,40446 57191,40441 57192,40436 57192,40433 57193,40430 57194,40427 57194,40423 57195,40420 57196,40417 57197,40414 57198,40411 57200,40408 57201,40403 57202,40401 57204,40397 57205,40395 57207,40392 57209,40389 57211,40386 57209,40384 57212,40379 57215,40380 57215,40379 57215,40378 57216,40378 57216,40377 57216,40376 57216,40375 57216,40374 57216,40373 57216,40372 57216,40371 57216,40370 57216,40369 57216,40368 57215,40365 57214,40361 57213,40357 57212,40353 57212,40352 57212,40351 57212,40350 57212,40349 57213,40348 57213,40347 57213,40346 57214,40345 57214,40344 57215,40343 57215,40342 57216,40341 57217,40341 57218,40340 57219,40340 57220,40339 57220,40338 57221,40338 57222,40337 57223,40337 57224,40337 57225,40337 57226,40337 57228,40337 57229,40337 57230,40337 57231,40337 57232,40337 57233,40337 57234,40337 57235,40337 57237,40337 57238,40338 57239,40338 57240,40339 57241,40339 57242,40340 57243,40341 57244,40341 57245,40342 57246,40342 57247,40342 57247,40343 57248,40343 57248,40344 57247,40344 57247,40345 57247,40346 57247,40347 57247,40348 57248,40350 57248,40352 57247,40353 57247,40355 57247,40356 57247,40357 57247,40359 57248,40360 57248,40361 57248,40362 57249,40363 57249,40364 57249,40365 57249,40366 57248,40367 57247,40367 57246,40367 57245,40377 57245,40378 57244,40379 57243,40379 57243,40380 57242,40380 57241,40380 57240,40380 57239,40380 57238,40381 57237,40381 57237,40382 57236,40382 57236,40383 57235,40383 57235,40384 57235,40385 57235,40386 57235,40387 57235,40388 57236,40390 57237,40391 57238,40393 57239,40394 57240,40396 57241,40397 57242,40399 57243,40401 57244,40402 57244,40405 57245,40406 57246,40408 57246,40409 57247,40411 57247,40413 57248,40414 57249,40416 57249,40418 57250,40419 57250,40421 57250,40423 57251,40424 57251,40426 57251,40428 57252,40430 57252,40431 57252,40433 57252,40435 57252,40437 57252,40438 57252,40440 57252,40442 57253,40442 57253,40443 57253,40444 57254,40445 57255,40446 57256,40447 57258,40448 57261,40449 57263,40451 57265,40452 57267,40454 57269,40455 57272,40457 57274,40458 57276,40460 57278,40462 57280,40464 57282,40465 57283,40467 57285,40469 57287,40471 57289,40473 57288,40475 57289,40475 57290,40475 57292,40475 57293,40475 57294,40476 57295,40476 57296,40476 57297,40477 57298,40478 57299,40478 57300,40479 57301,40479 57301,40480 57302,40481 57302,40482 57302,40483 57302,40484 57302,40485 57302,40486 57302,40487 57302,40488 57301,40489 57301,40490 57301,40491 57300,40492 57300,40493 57299,40493 57297,40493 57296,40493 57295,40493 57294,40493 57293,40493 57292,40493 57290,40492 57290,40491 57290,40490 57289,40489 57289,40488 57289,40487 57288,40487 57287,40487 57287,40486 57286,40486 57285,40486 57284,40486 57283,40486 57282,40486 57281,40486 57281,40487 57280,40487 57280,40488 57279,40488 57279,40489 57276,40487 57273,40485 57270,40483 57267,40481 57264,40480 57261,40478 57258,40477 57255,40475 57264,40513 57264,40514 57264,40515 57264,40516 57264,40517 57263,40517 57263,40518 57262,40518 57262,40519 57261,40519 57260,40520 57259,40520 57257,40520 57256,40520 57255,40520 57254,40520 57253,40522 57253,40523 57253,40525 57253,40526 57253,40528 57253,40529 57253,40531 57253,40533 57253,40534 57253,40536 57254,40537 57254,40539 57254,40540 57254,40542 57255,40543 57255,40545 57255,40546 57256,40548 57256,40549 57257,40551 57257,40553 57258,40554 57258,40555 57259,40557 57260,40558 57260,40560 57261,40561 57262,40563 57263,40564 57263,40565 57264,40567 57265,40568 57265,40572 57266,40575 57266,40579 57267,40583 57268,40586 57268,40590 57269,40594 57270,40597 57271,40601 57272,40604 57274,40608 57275,40611 57276,40615 57278,40618 57279,40622 57281,40625 57283,40625 57284,40626 57284,40627 57285,40627 57286,40628 57286,40629 57287,40629 57288,40630 57289,40630 57290,40630 57292,40630 57293,40630 57294,40630 57296,40629 57297,40629 57299,40629 57300,40629 57301,40629 57302,40629 57303,40629 57304,40630 57305,40630 57306,40631 57307,40631 57308,40632 57308,40633 57309,40634 57309,40635 57305,40639 57304,40640 57302,40641 57300,40642 57298,40643 57297,40644 57295,40644 57293,40645 57290,40645 57288,40646 57286,40646 57284,40646 57282,40646 57280,40646 57278,40646 57277,40645 57275,40645 57275,40649 57264,40650 57263,40647 57262,40647 Z"/>
   </g>
  </g>
  <g class="com.sun.star.drawing.PolyPolygonShape">
   <g id="id7">
    <rect class="BoundingBox" stroke="none" fill="none" x="56493" y="40425" width="393" height="206"/>
    <path fill="rgb(255,255,255)" stroke="none" d="M 56572,40548 L 56571,40548 56570,40547 56569,40547 56568,40547 56567,40547 56566,40547 56565,40548 56564,40548 56563,40549 56562,40549 56561,40550 56560,40551 56560,40552 56559,40552 56559,40553 56559,40554 56558,40554 56558,40555 56558,40556 56558,40557 56558,40558 56558,40559 56558,40560 56559,40561 56559,40562 56560,40563 56561,40564 56562,40565 56563,40566 56564,40566 56565,40567 56566,40567 56567,40567 56568,40567 56569,40567 56570,40567 56571,40567 56572,40566 56573,40566 56574,40565 56575,40565 56575,40564 56576,40564 56576,40563 56577,40563 56577,40562 56577,40561 56578,40561 56578,40560 56635,40558 56635,40561 56634,40563 56634,40566 56634,40568 56633,40571 56633,40573 56632,40576 56631,40578 56630,40580 56629,40583 56628,40585 56627,40587 56626,40590 56624,40592 56623,40594 56621,40596 56620,40598 56618,40600 56616,40602 56614,40604 56613,40605 56611,40607 56609,40609 56606,40610 56604,40612 56602,40613 56600,40614 56598,40615 56595,40616 56593,40617 56590,40618 56588,40619 56585,40620 56583,40620 56580,40621 56578,40621 56575,40622 56572,40622 56570,40622 56567,40622 56565,40622 56562,40622 56559,40622 56557,40621 56554,40621 56552,40620 56549,40619 56547,40619 56544,40618 56542,40617 56539,40616 56537,40615 56535,40613 56533,40612 56530,40611 56528,40609 56526,40608 56524,40606 56522,40604 56520,40602 56519,40601 56517,40599 56515,40597 56514,40595 56512,40593 56511,40590 56510,40588 56508,40586 56507,40584 56506,40581 56505,40579 56504,40577 56504,40574 56503,40571 56503,40569 56502,40567 56502,40564 56502,40561 56501,40559 56501,40556 56502,40554 56502,40551 56502,40549 56502,40546 56503,40544 56503,40541 56504,40539 56505,40536 56506,40534 56507,40532 56508,40529 56509,40527 56510,40525 56512,40523 56513,40520 56515,40518 56516,40516 56518,40515 56520,40513 56521,40511 56523,40509 56525,40507 56527,40506 56530,40504 56532,40503 56534,40500 56536,40499 56539,40498 56541,40497 56543,40496 56546,40495 56548,40494 56551,40494 56553,40493 56556,40492 56559,40492 56561,40492 56564,40491 56566,40491 56569,40491 56572,40491 56574,40492 56577,40492 56579,40492 56582,40493 56584,40493 56587,40494 56589,40495 56580,40530 56580,40531 56580,40533 56579,40534 56579,40535 56579,40536 56578,40537 56578,40538 56577,40540 56577,40541 56576,40542 56575,40543 56575,40544 56574,40545 56573,40546 56573,40547 56572,40548 Z M 56868,40527 L 56869,40528 56869,40530 56870,40532 56871,40533 56872,40535 56872,40537 56873,40538 56873,40540 56874,40542 56874,40544 56875,40545 56875,40547 56875,40549 56875,40551 56876,40553 56876,40554 56876,40556 56876,40558 56876,40560 56876,40562 56875,40563 56875,40565 56875,40567 56875,40569 56874,40571 56874,40572 56873,40574 56873,40576 56872,40577 56872,40579 56871,40581 56870,40582 56870,40584 56869,40586 56868,40587 56867,40589 56866,40591 56865,40592 56864,40594 56863,40595 56862,40597 56861,40598 56860,40599 56858,40601 56857,40602 56856,40603 56854,40604 56853,40606 56852,40607 56850,40608 56849,40609 56847,40610 56846,40611 56844,40612 56843,40613 56840,40614 56838,40615 56837,40615 56835,40616 56833,40617 56832,40618 56830,40618 56828,40619 56826,40619 56824,40620 56823,40620 56821,40620 56819,40621 56817,40621 56815,40621 56813,40621 56812,40622 56810,40622 56808,40622 56806,40622 56804,40621 56802,40621 56801,40621 56799,40621 56797,40621 56795,40620 56793,40620 56792,40619 56790,40619 56788,40618 56786,40618 56785,40617 56783,40616 56781,40616 56779,40615 56778,40614 56776,40613 56774,40612 56773,40611 56771,40610 56770,40609 56768,40608 56767,40607 56766,40606 56764,40605 56763,40604 56761,40602 56760,40601 56759,40600 56758,40598 56757,40597 56756,40595 56754,40594 56753,40593 56752,40591 56751,40589 56750,40588 56750,40586 56749,40585 56748,40583 56747,40581 56747,40580 56746,40578 56745,40576 56745,40574 56744,40573 56744,40571 56744,40569 56743,40568 56743,40566 56743,40564 56743,40562 56743,40560 56794,40560 56794,40561 56794,40562 56795,40563 56795,40564 56795,40565 56796,40565 56796,40566 56797,40566 56797,40567 56798,40568 56799,40569 56800,40569 56801,40570 56802,40571 56803,40571 56804,40571 56805,40572 56806,40572 56807,40572 56808,40572 56809,40572 56810,40572 56811,40572 56812,40572 56813,40571 56814,40571 56815,40571 56816,40570 56817,40570 56818,40569 56819,40568 56820,40567 56821,40566 56821,40565 56822,40565 56822,40564 56823,40563 56823,40562 56823,40561 56824,40561 56824,40560 56824,40559 56824,40558 56824,40557 56824,40556 56824,40555 56824,40554 56823,40553 56823,40552 56868,40527 Z M 56693,40510 L 56711,40510 56711,40516 56705,40516 56705,40536 56706,40536 56707,40536 56708,40536 56709,40537 56747,40457 56606,40457 56604,40465 56688,40540 56689,40540 56691,40539 56692,40538 56693,40537 56695,40537 56696,40536 56698,40536 56699,40536 56699,40516 56693,40516 56693,40510 Z M 56646,40551 L 56642,40551 56642,40549 56641,40547 56641,40544 56640,40542 56640,40539 56639,40537 56638,40535 56638,40533 56637,40530 56636,40528 56635,40526 56634,40524 56632,40521 56631,40519 56630,40517 56628,40515 56627,40513 56625,40511 56624,40509 56622,40508 56620,40506 56618,40504 56616,40503 56614,40500 56613,40499 56611,40497 56608,40496 56606,40494 56604,40493 56602,40492 56600,40491 56597,40490 56598,40486 56601,40487 56603,40488 56606,40489 56608,40490 56610,40492 56613,40493 56615,40495 56617,40496 56619,40498 56621,40500 56623,40502 56625,40504 56627,40506 56629,40508 56630,40510 56632,40512 56633,40515 56635,40517 56636,40519 56638,40521 56639,40524 56640,40526 56641,40528 56642,40531 56643,40533 56644,40536 56644,40538 56645,40541 56645,40544 56646,40546 56646,40549 56646,40551 Z M 56577,40552 L 56577,40553 56578,40554 56635,40552 56634,40550 56634,40547 56634,40545 56633,40543 56633,40541 56632,40539 56631,40537 56631,40535 56630,40533 56629,40531 56628,40529 56627,40527 56626,40525 56625,40523 56624,40522 56622,40520 56621,40518 56620,40516 56618,40515 56617,40513 56615,40511 56614,40510 56612,40509 56610,40507 56609,40506 56607,40504 56605,40503 56603,40502 56601,40500 56599,40499 56598,40498 56595,40497 56587,40531 56586,40533 56586,40534 56586,40535 56585,40537 56585,40538 56584,40540 56584,40541 56583,40542 56583,40544 56582,40545 56581,40546 56580,40547 56580,40549 56579,40550 56578,40551 56577,40552 Z M 56875,40515 L 56871,40517 56870,40516 56869,40515 56868,40513 56868,40512 56866,40511 56865,40510 56864,40509 56863,40507 56862,40506 56861,40505 56860,40504 56858,40503 56857,40502 56856,40500 56855,40499 56853,40498 56852,40497 56851,40496 56849,40495 56848,40494 56846,40494 56845,40493 56843,40492 56841,40491 56840,40491 56838,40490 56837,40489 56835,40489 56834,40488 56832,40488 56830,40487 56829,40487 56827,40487 56826,40486 56824,40486 56822,40485 56821,40485 56819,40485 56818,40485 56816,40484 56814,40484 56813,40484 56811,40484 56809,40484 56808,40484 56806,40484 56805,40484 56803,40484 56801,40484 56800,40485 56798,40485 56796,40485 56795,40485 56793,40486 56792,40486 56790,40486 56788,40487 56787,40487 56785,40488 56784,40488 56782,40489 56781,40489 56779,40490 56778,40491 56776,40487 56777,40486 56779,40485 56780,40485 56782,40484 56784,40484 56785,40483 56787,40483 56789,40482 56790,40482 56792,40481 56794,40481 56795,40481 56797,40480 56799,40480 56801,40480 56803,40480 56804,40480 56806,40480 56808,40480 56809,40480 56811,40480 56813,40480 56815,40480 56816,40480 56818,40480 56820,40480 56822,40481 56823,40481 56825,40481 56827,40482 56828,40482 56830,40483 56832,40483 56833,40484 56835,40484 56837,40485 56838,40485 56840,40486 56843,40487 56844,40487 56846,40488 56847,40489 56849,40490 56850,40491 56852,40492 56853,40492 56855,40494 56856,40494 56857,40495 56859,40497 56860,40498 56862,40499 56863,40500 56864,40502 56865,40503 56867,40504 56868,40506 56869,40507 56870,40508 56871,40509 56872,40511 56873,40512 56874,40514 56875,40515 Z M 56769,40487 L 56766,40488 56764,40490 56762,40491 56760,40493 56758,40494 56756,40496 56754,40498 56752,40499 56750,40502 56748,40504 56747,40506 56745,40508 56743,40510 56742,40512 56740,40514 56739,40516 56738,40518 56737,40520 56735,40522 56734,40525 56733,40527 56732,40529 56732,40532 56731,40534 56730,40537 56729,40539 56729,40542 56728,40544 56728,40546 56728,40549 56727,40551 56727,40554 56724,40554 56724,40553 56724,40552 56723,40551 56723,40550 56723,40549 56722,40548 56721,40547 56721,40546 56720,40545 56720,40544 56719,40543 56718,40542 56717,40541 56716,40540 56715,40539 56753,40459 56769,40487 Z M 56772,40494 L 56770,40495 56768,40496 56766,40497 56764,40499 56762,40500 56761,40502 56759,40504 56757,40506 56755,40507 56754,40509 56752,40510 56751,40512 56749,40514 56748,40516 56747,40518 56745,40520 56744,40522 56743,40524 56742,40526 56741,40528 56740,40530 56739,40532 56739,40534 56738,40536 56737,40538 56737,40540 56736,40543 56736,40545 56735,40547 56735,40549 56735,40552 56735,40554 56730,40554 56730,40552 56730,40549 56731,40547 56731,40544 56732,40542 56732,40540 56733,40537 56733,40535 56734,40533 56735,40530 56736,40528 56737,40526 56738,40524 56739,40522 56740,40519 56742,40517 56743,40515 56744,40513 56746,40511 56747,40509 56749,40508 56750,40506 56752,40504 56754,40502 56756,40499 56758,40498 56760,40496 56761,40495 56764,40494 56766,40492 56768,40491 56770,40490 56772,40494 Z M 56776,40500 L 56774,40502 56772,40504 56770,40505 56769,40506 56767,40507 56765,40508 56764,40510 56762,40511 56761,40513 56760,40514 56758,40515 56757,40517 56756,40519 56754,40520 56753,40522 56752,40524 56751,40525 56750,40527 56749,40529 56748,40531 56747,40533 56747,40534 56746,40536 56745,40538 56745,40540 56744,40542 56744,40544 56743,40546 56743,40548 56743,40550 56743,40552 56743,40554 56794,40554 56794,40553 56794,40552 56795,40551 56796,40549 56796,40548 56797,40547 56798,40547 56799,40546 56776,40500 Z M 56781,40498 L 56783,40497 56784,40496 56785,40496 56787,40495 56788,40495 56790,40495 56791,40494 56792,40494 56794,40493 56795,40493 56797,40493 56798,40493 56799,40492 56801,40492 56802,40492 56804,40492 56805,40492 56807,40492 56808,40492 56810,40492 56811,40492 56812,40492 56814,40492 56815,40492 56817,40492 56818,40492 56820,40493 56821,40493 56822,40493 56824,40494 56825,40494 56827,40494 56828,40495 56829,40495 56831,40495 56832,40496 56834,40497 56835,40497 56836,40498 56837,40498 56839,40499 56840,40500 56841,40500 56844,40502 56845,40503 56846,40504 56847,40504 56848,40505 56850,40506 56851,40507 56852,40508 56853,40509 56854,40510 56855,40511 56856,40511 56857,40513 56858,40514 56859,40515 56860,40516 56861,40517 56862,40518 56863,40519 56864,40520 56865,40521 56820,40547 56819,40546 56818,40546 56817,40545 56816,40544 56815,40544 56814,40543 56813,40543 56812,40543 56811,40542 56810,40542 56809,40542 56808,40542 56807,40542 56806,40543 56805,40543 56781,40498 Z M 56647,40558 L 56647,40560 56646,40563 56646,40565 56646,40568 56649,40568 56649,40567 56649,40565 56649,40563 56649,40562 56649,40560 56649,40558 56649,40557 56649,40555 56649,40554 56649,40552 56649,40550 56649,40549 56649,40547 56649,40545 56648,40544 56648,40542 56648,40541 56647,40539 56647,40537 56646,40536 56646,40534 56645,40533 56645,40531 56644,40530 56644,40528 56643,40527 56643,40525 56642,40524 56641,40522 56640,40521 56640,40519 56639,40518 56638,40516 56637,40515 56636,40514 56635,40512 56634,40511 56633,40510 56632,40508 56631,40507 56630,40506 56629,40505 56628,40503 56627,40502 56626,40500 56624,40499 56623,40498 56622,40497 56621,40496 56619,40495 56618,40494 56617,40493 56615,40492 56614,40491 56613,40490 56611,40489 56610,40488 56608,40487 56607,40487 56605,40486 56604,40485 56602,40484 56601,40484 56599,40483 56602,40472 56684,40545 56683,40546 56682,40547 56682,40549 56681,40550 56681,40551 56680,40553 56680,40554 56680,40555 56680,40557 56680,40558 56680,40560 56680,40561 56681,40562 56681,40564 56682,40565 56682,40566 56683,40567 56683,40569 56684,40570 56685,40571 56686,40572 56687,40573 56688,40574 56689,40574 56690,40575 56691,40576 56693,40577 56694,40577 56695,40578 56697,40578 56698,40578 56699,40579 56699,40598 56693,40598 56693,40604 56711,40604 56711,40598 56705,40598 56705,40579 56706,40578 56707,40578 56708,40578 56709,40578 56710,40577 56711,40577 56712,40577 56713,40576 56714,40576 56714,40575 56715,40575 56716,40574 56717,40574 56717,40573 56718,40573 56718,40572 56719,40571 56720,40571 56720,40570 56721,40569 56721,40568 56722,40567 56722,40566 56723,40565 56723,40564 56724,40563 56724,40562 56724,40561 56724,40560 56727,40560 56727,40563 56728,40566 56728,40569 56729,40571 56731,40571 56731,40568 56730,40565 56730,40563 56730,40560 56735,40560 56735,40562 56735,40564 56735,40566 56735,40568 56736,40570 56736,40572 56737,40574 56737,40576 56738,40578 56738,40580 56739,40582 56740,40584 56741,40586 56742,40588 56743,40589 56743,40591 56744,40593 56745,40595 56747,40597 56748,40598 56749,40600 56750,40602 56751,40603 56753,40605 56754,40606 56756,40607 56757,40609 56759,40610 56760,40612 56762,40613 56764,40614 56765,40615 56767,40617 56769,40618 56770,40619 56772,40620 56774,40621 56776,40622 56778,40623 56780,40624 56782,40624 56783,40625 56785,40626 56787,40626 56789,40627 56791,40627 56793,40628 56795,40628 56797,40628 56800,40629 56802,40629 56804,40629 56806,40629 56808,40629 56810,40629 56812,40629 56814,40629 56816,40629 56818,40629 56820,40628 56822,40628 56824,40628 56826,40627 56828,40627 56830,40626 56832,40626 56834,40625 56836,40624 56838,40623 56840,40622 56843,40622 56845,40621 56847,40620 56848,40619 56850,40617 56852,40616 56853,40615 56855,40614 56857,40613 56858,40611 56860,40610 56861,40609 56863,40607 56864,40606 56866,40604 56867,40603 56868,40601 56869,40599 56871,40598 56872,40596 56873,40594 56874,40593 56875,40591 56876,40589 56877,40587 56878,40585 56878,40584 56879,40582 56880,40580 56880,40578 56881,40576 56882,40574 56882,40572 56882,40570 56883,40568 56883,40566 56883,40564 56883,40562 56884,40560 56884,40558 56884,40556 56883,40554 56883,40552 56883,40550 56883,40548 56883,40546 56882,40544 56882,40542 56881,40540 56881,40538 56880,40536 56880,40534 56879,40532 56878,40530 56877,40528 56877,40526 56876,40525 56875,40523 56879,40520 56880,40523 56881,40525 56884,40524 56883,40523 56882,40521 56881,40519 56880,40517 56879,40516 56878,40514 56877,40513 56876,40511 56875,40509 56873,40508 56872,40506 56871,40505 56869,40503 56868,40502 56867,40499 56865,40498 56864,40497 56862,40495 56860,40494 56859,40493 56857,40492 56856,40491 56854,40490 56852,40489 56851,40488 56849,40487 56847,40486 56845,40485 56843,40484 56841,40483 56839,40483 56837,40482 56835,40481 56833,40481 56831,40480 56829,40479 56827,40479 56825,40479 56823,40478 56821,40478 56819,40478 56817,40477 56815,40477 56813,40477 56811,40477 56809,40477 56807,40477 56805,40477 56803,40477 56801,40477 56799,40477 56797,40478 56795,40478 56793,40478 56791,40479 56790,40479 56787,40480 56786,40480 56784,40481 56782,40481 56780,40482 56778,40483 56776,40483 56774,40484 56757,40451 56761,40443 56762,40442 56763,40442 56764,40442 56764,40441 56765,40441 56766,40441 56767,40440 56767,40439 56768,40439 56768,40438 56768,40437 56768,40436 56768,40435 56767,40435 56767,40434 56766,40434 56765,40433 56764,40433 56762,40433 56760,40433 56758,40433 56756,40432 56754,40432 56752,40432 56749,40432 56747,40432 56745,40432 56743,40432 56741,40433 56739,40433 56737,40433 56734,40433 56732,40434 56730,40434 56729,40434 56729,40435 56728,40435 56728,40436 56728,40437 56728,40438 56728,40439 56729,40440 56730,40440 56730,40441 56731,40441 56750,40441 56751,40442 56752,40442 56752,40443 56753,40443 56753,40444 56753,40445 56753,40446 56750,40451 56608,40451 56612,40436 56614,40436 56616,40436 56618,40436 56620,40436 56622,40436 56624,40435 56627,40435 56629,40434 56630,40434 56631,40434 56633,40434 56634,40434 56635,40434 56637,40434 56638,40434 56640,40434 56641,40434 56642,40433 56642,40432 56643,40432 56643,40431 56643,40430 56643,40429 56642,40429 56642,40428 56641,40428 56640,40427 56639,40427 56638,40426 56637,40426 56635,40426 56634,40426 56633,40426 56632,40427 56629,40427 56626,40428 56623,40428 56619,40428 56616,40428 56613,40428 56610,40428 56607,40428 56593,40481 56590,40480 56588,40479 56585,40479 56582,40478 56579,40478 56576,40477 56573,40477 56570,40477 56567,40477 56564,40477 56561,40477 56558,40478 56555,40478 56552,40478 56549,40479 56547,40480 56547,40482 56550,40482 56553,40481 56556,40481 56559,40480 56561,40480 56564,40480 56567,40480 56570,40480 56573,40480 56576,40480 56579,40480 56581,40481 56584,40481 56587,40482 56590,40483 56593,40483 56591,40488 56588,40487 56586,40486 56583,40486 56580,40485 56577,40485 56574,40484 56571,40484 56568,40484 56566,40484 56563,40484 56560,40484 56557,40485 56554,40485 56551,40486 56548,40487 56546,40488 56543,40488 56540,40489 56538,40491 56535,40492 56532,40493 56530,40495 56527,40496 56525,40498 56523,40499 56520,40502 56518,40504 56516,40506 56514,40508 56512,40510 56510,40512 56508,40515 56507,40517 56505,40519 56504,40522 56502,40524 56501,40527 56500,40529 56499,40532 56498,40535 56497,40537 56496,40540 56496,40543 56495,40545 56495,40548 56494,40551 56494,40554 56494,40557 56494,40560 56494,40562 56495,40565 56495,40568 56495,40571 56496,40574 56497,40576 56498,40579 56498,40582 56500,40584 56501,40587 56502,40589 56503,40592 56505,40594 56506,40597 56508,40599 56510,40601 56511,40604 56513,40606 56515,40608 56517,40610 56520,40612 56522,40613 56524,40615 56527,40617 56529,40618 56531,40620 56534,40621 56537,40622 56539,40624 56542,40625 56545,40626 56548,40626 56550,40627 56553,40628 56556,40628 56559,40629 56562,40629 56565,40629 56568,40629 56570,40629 56573,40629 56576,40629 56579,40628 56582,40628 56585,40627 56588,40627 56590,40626 56593,40625 56596,40624 56598,40623 56601,40622 56604,40620 56606,40619 56609,40617 56611,40616 56613,40614 56616,40612 56618,40611 56620,40609 56622,40607 56624,40604 56626,40602 56628,40600 56629,40598 56631,40595 56632,40593 56634,40590 56635,40588 56636,40585 56637,40583 56638,40580 56639,40577 56640,40575 56640,40572 56641,40569 56641,40566 56642,40564 56642,40561 56642,40558 56647,40558 Z"/>
    <path fill="none" stroke="rgb(255,255,255)" d="M 56572,40548 L 56571,40548 56570,40547 56569,40547 56568,40547 56567,40547 56566,40547 56565,40548 56564,40548 56563,40549 56562,40549 56561,40550 56560,40551 56560,40552 56559,40552 56559,40553 56559,40554 56558,40554 56558,40555 56558,40556 56558,40557 56558,40558 56558,40559 56558,40560 56559,40561 56559,40562 56560,40563 56561,40564 56562,40565 56563,40566 56564,40566 56565,40567 56566,40567 56567,40567 56568,40567 56569,40567 56570,40567 56571,40567 56572,40566 56573,40566 56574,40565 56575,40565 56575,40564 56576,40564 56576,40563 56577,40563 56577,40562 56577,40561 56578,40561 56578,40560 56635,40558 56635,40561 56634,40563 56634,40566 56634,40568 56633,40571 56633,40573 56632,40576 56631,40578 56630,40580 56629,40583 56628,40585 56627,40587 56626,40590 56624,40592 56623,40594 56621,40596 56620,40598 56618,40600 56616,40602 56614,40604 56613,40605 56611,40607 56609,40609 56606,40610 56604,40612 56602,40613 56600,40614 56598,40615 56595,40616 56593,40617 56590,40618 56588,40619 56585,40620 56583,40620 56580,40621 56578,40621 56575,40622 56572,40622 56570,40622 56567,40622 56565,40622 56562,40622 56559,40622 56557,40621 56554,40621 56552,40620 56549,40619 56547,40619 56544,40618 56542,40617 56539,40616 56537,40615 56535,40613 56533,40612 56530,40611 56528,40609 56526,40608 56524,40606 56522,40604 56520,40602 56519,40601 56517,40599 56515,40597 56514,40595 56512,40593 56511,40590 56510,40588 56508,40586 56507,40584 56506,40581 56505,40579 56504,40577 56504,40574 56503,40571 56503,40569 56502,40567 56502,40564 56502,40561 56501,40559 56501,40556 56502,40554 56502,40551 56502,40549 56502,40546 56503,40544 56503,40541 56504,40539 56505,40536 56506,40534 56507,40532 56508,40529 56509,40527 56510,40525 56512,40523 56513,40520 56515,40518 56516,40516 56518,40515 56520,40513 56521,40511 56523,40509 56525,40507 56527,40506 56530,40504 56532,40503 56534,40500 56536,40499 56539,40498 56541,40497 56543,40496 56546,40495 56548,40494 56551,40494 56553,40493 56556,40492 56559,40492 56561,40492 56564,40491 56566,40491 56569,40491 56572,40491 56574,40492 56577,40492 56579,40492 56582,40493 56584,40493 56587,40494 56589,40495 56580,40530 56580,40531 56580,40533 56579,40534 56579,40535 56579,40536 56578,40537 56578,40538 56577,40540 56577,40541 56576,40542 56575,40543 56575,40544 56574,40545 56573,40546 56573,40547 56572,40548 Z"/>
    <path fill="none" stroke="rgb(255,255,255)" d="M 56868,40527 L 56869,40528 56869,40530 56870,40532 56871,40533 56872,40535 56872,40537 56873,40538 56873,40540 56874,40542 56874,40544 56875,40545 56875,40547 56875,40549 56875,40551 56876,40553 56876,40554 56876,40556 56876,40558 56876,40560 56876,40562 56875,40563 56875,40565 56875,40567 56875,40569 56874,40571 56874,40572 56873,40574 56873,40576 56872,40577 56872,40579 56871,40581 56870,40582 56870,40584 56869,40586 56868,40587 56867,40589 56866,40591 56865,40592 56864,40594 56863,40595 56862,40597 56861,40598 56860,40599 56858,40601 56857,40602 56856,40603 56854,40604 56853,40606 56852,40607 56850,40608 56849,40609 56847,40610 56846,40611 56844,40612 56843,40613 56840,40614 56838,40615 56837,40615 56835,40616 56833,40617 56832,40618 56830,40618 56828,40619 56826,40619 56824,40620 56823,40620 56821,40620 56819,40621 56817,40621 56815,40621 56813,40621 56812,40622 56810,40622 56808,40622 56806,40622 56804,40621 56802,40621 56801,40621 56799,40621 56797,40621 56795,40620 56793,40620 56792,40619 56790,40619 56788,40618 56786,40618 56785,40617 56783,40616 56781,40616 56779,40615 56778,40614 56776,40613 56774,40612 56773,40611 56771,40610 56770,40609 56768,40608 56767,40607 56766,40606 56764,40605 56763,40604 56761,40602 56760,40601 56759,40600 56758,40598 56757,40597 56756,40595 56754,40594 56753,40593 56752,40591 56751,40589 56750,40588 56750,40586 56749,40585 56748,40583 56747,40581 56747,40580 56746,40578 56745,40576 56745,40574 56744,40573 56744,40571 56744,40569 56743,40568 56743,40566 56743,40564 56743,40562 56743,40560 56794,40560 56794,40561 56794,40562 56795,40563 56795,40564 56795,40565 56796,40565 56796,40566 56797,40566 56797,40567 56798,40568 56799,40569 56800,40569 56801,40570 56802,40571 56803,40571 56804,40571 56805,40572 56806,40572 56807,40572 56808,40572 56809,40572 56810,40572 56811,40572 56812,40572 56813,40571 56814,40571 56815,40571 56816,40570 56817,40570 56818,40569 56819,40568 56820,40567 56821,40566 56821,40565 56822,40565 56822,40564 56823,40563 56823,40562 56823,40561 56824,40561 56824,40560 56824,40559 56824,40558 56824,40557 56824,40556 56824,40555 56824,40554 56823,40553 56823,40552 56868,40527 Z"/>
    <path fill="none" stroke="rgb(255,255,255)" d="M 56693,40510 L 56711,40510 56711,40516 56705,40516 56705,40536 56706,40536 56707,40536 56708,40536 56709,40537 56747,40457 56606,40457 56604,40465 56688,40540 56689,40540 56691,40539 56692,40538 56693,40537 56695,40537 56696,40536 56698,40536 56699,40536 56699,40516 56693,40516 56693,40510 Z"/>
    <path fill="none" stroke="rgb(255,255,255)" d="M 56646,40551 L 56642,40551 56642,40549 56641,40547 56641,40544 56640,40542 56640,40539 56639,40537 56638,40535 56638,40533 56637,40530 56636,40528 56635,40526 56634,40524 56632,40521 56631,40519 56630,40517 56628,40515 56627,40513 56625,40511 56624,40509 56622,40508 56620,40506 56618,40504 56616,40503 56614,40500 56613,40499 56611,40497 56608,40496 56606,40494 56604,40493 56602,40492 56600,40491 56597,40490 56598,40486 56601,40487 56603,40488 56606,40489 56608,40490 56610,40492 56613,40493 56615,40495 56617,40496 56619,40498 56621,40500 56623,40502 56625,40504 56627,40506 56629,40508 56630,40510 56632,40512 56633,40515 56635,40517 56636,40519 56638,40521 56639,40524 56640,40526 56641,40528 56642,40531 56643,40533 56644,40536 56644,40538 56645,40541 56645,40544 56646,40546 56646,40549 56646,40551 Z"/>
    <path fill="none" stroke="rgb(255,255,255)" d="M 56577,40552 L 56577,40553 56578,40554 56635,40552 56634,40550 56634,40547 56634,40545 56633,40543 56633,40541 56632,40539 56631,40537 56631,40535 56630,40533 56629,40531 56628,40529 56627,40527 56626,40525 56625,40523 56624,40522 56622,40520 56621,40518 56620,40516 56618,40515 56617,40513 56615,40511 56614,40510 56612,40509 56610,40507 56609,40506 56607,40504 56605,40503 56603,40502 56601,40500 56599,40499 56598,40498 56595,40497 56587,40531 56586,40533 56586,40534 56586,40535 56585,40537 56585,40538 56584,40540 56584,40541 56583,40542 56583,40544 56582,40545 56581,40546 56580,40547 56580,40549 56579,40550 56578,40551 56577,40552 Z"/>
    <path fill="none" stroke="rgb(255,255,255)" d="M 56875,40515 L 56871,40517 56870,40516 56869,40515 56868,40513 56868,40512 56866,40511 56865,40510 56864,40509 56863,40507 56862,40506 56861,40505 56860,40504 56858,40503 56857,40502 56856,40500 56855,40499 56853,40498 56852,40497 56851,40496 56849,40495 56848,40494 56846,40494 56845,40493 56843,40492 56841,40491 56840,40491 56838,40490 56837,40489 56835,40489 56834,40488 56832,40488 56830,40487 56829,40487 56827,40487 56826,40486 56824,40486 56822,40485 56821,40485 56819,40485 56818,40485 56816,40484 56814,40484 56813,40484 56811,40484 56809,40484 56808,40484 56806,40484 56805,40484 56803,40484 56801,40484 56800,40485 56798,40485 56796,40485 56795,40485 56793,40486 56792,40486 56790,40486 56788,40487 56787,40487 56785,40488 56784,40488 56782,40489 56781,40489 56779,40490 56778,40491 56776,40487 56777,40486 56779,40485 56780,40485 56782,40484 56784,40484 56785,40483 56787,40483 56789,40482 56790,40482 56792,40481 56794,40481 56795,40481 56797,40480 56799,40480 56801,40480 56803,40480 56804,40480 56806,40480 56808,40480 56809,40480 56811,40480 56813,40480 56815,40480 56816,40480 56818,40480 56820,40480 56822,40481 56823,40481 56825,40481 56827,40482 56828,40482 56830,40483 56832,40483 56833,40484 56835,40484 56837,40485 56838,40485 56840,40486 56843,40487 56844,40487 56846,40488 56847,40489 56849,40490 56850,40491 56852,40492 56853,40492 56855,40494 56856,40494 56857,40495 56859,40497 56860,40498 56862,40499 56863,40500 56864,40502 56865,40503 56867,40504 56868,40506 56869,40507 56870,40508 56871,40509 56872,40511 56873,40512 56874,40514 56875,40515 Z"/>
    <path fill="none" stroke="rgb(255,255,255)" d="M 56769,40487 L 56766,40488 56764,40490 56762,40491 56760,40493 56758,40494 56756,40496 56754,40498 56752,40499 56750,40502 56748,40504 56747,40506 56745,40508 56743,40510 56742,40512 56740,40514 56739,40516 56738,40518 56737,40520 56735,40522 56734,40525 56733,40527 56732,40529 56732,40532 56731,40534 56730,40537 56729,40539 56729,40542 56728,40544 56728,40546 56728,40549 56727,40551 56727,40554 56724,40554 56724,40553 56724,40552 56723,40551 56723,40550 56723,40549 56722,40548 56721,40547 56721,40546 56720,40545 56720,40544 56719,40543 56718,40542 56717,40541 56716,40540 56715,40539 56753,40459 56769,40487 Z"/>
    <path fill="none" stroke="rgb(255,255,255)" d="M 56772,40494 L 56770,40495 56768,40496 56766,40497 56764,40499 56762,40500 56761,40502 56759,40504 56757,40506 56755,40507 56754,40509 56752,40510 56751,40512 56749,40514 56748,40516 56747,40518 56745,40520 56744,40522 56743,40524 56742,40526 56741,40528 56740,40530 56739,40532 56739,40534 56738,40536 56737,40538 56737,40540 56736,40543 56736,40545 56735,40547 56735,40549 56735,40552 56735,40554 56730,40554 56730,40552 56730,40549 56731,40547 56731,40544 56732,40542 56732,40540 56733,40537 56733,40535 56734,40533 56735,40530 56736,40528 56737,40526 56738,40524 56739,40522 56740,40519 56742,40517 56743,40515 56744,40513 56746,40511 56747,40509 56749,40508 56750,40506 56752,40504 56754,40502 56756,40499 56758,40498 56760,40496 56761,40495 56764,40494 56766,40492 56768,40491 56770,40490 56772,40494 Z"/>
    <path fill="none" stroke="rgb(255,255,255)" d="M 56776,40500 L 56774,40502 56772,40504 56770,40505 56769,40506 56767,40507 56765,40508 56764,40510 56762,40511 56761,40513 56760,40514 56758,40515 56757,40517 56756,40519 56754,40520 56753,40522 56752,40524 56751,40525 56750,40527 56749,40529 56748,40531 56747,40533 56747,40534 56746,40536 56745,40538 56745,40540 56744,40542 56744,40544 56743,40546 56743,40548 56743,40550 56743,40552 56743,40554 56794,40554 56794,40553 56794,40552 56795,40551 56796,40549 56796,40548 56797,40547 56798,40547 56799,40546 56776,40500 Z"/>
    <path fill="none" stroke="rgb(255,255,255)" d="M 56781,40498 L 56783,40497 56784,40496 56785,40496 56787,40495 56788,40495 56790,40495 56791,40494 56792,40494 56794,40493 56795,40493 56797,40493 56798,40493 56799,40492 56801,40492 56802,40492 56804,40492 56805,40492 56807,40492 56808,40492 56810,40492 56811,40492 56812,40492 56814,40492 56815,40492 56817,40492 56818,40492 56820,40493 56821,40493 56822,40493 56824,40494 56825,40494 56827,40494 56828,40495 56829,40495 56831,40495 56832,40496 56834,40497 56835,40497 56836,40498 56837,40498 56839,40499 56840,40500 56841,40500 56844,40502 56845,40503 56846,40504 56847,40504 56848,40505 56850,40506 56851,40507 56852,40508 56853,40509 56854,40510 56855,40511 56856,40511 56857,40513 56858,40514 56859,40515 56860,40516 56861,40517 56862,40518 56863,40519 56864,40520 56865,40521 56820,40547 56819,40546 56818,40546 56817,40545 56816,40544 56815,40544 56814,40543 56813,40543 56812,40543 56811,40542 56810,40542 56809,40542 56808,40542 56807,40542 56806,40543 56805,40543 56781,40498 Z"/>
    <path fill="none" stroke="rgb(255,255,255)" d="M 56647,40558 L 56647,40560 56646,40563 56646,40565 56646,40568 56649,40568 56649,40567 56649,40565 56649,40563 56649,40562 56649,40560 56649,40558 56649,40557 56649,40555 56649,40554 56649,40552 56649,40550 56649,40549 56649,40547 56649,40545 56648,40544 56648,40542 56648,40541 56647,40539 56647,40537 56646,40536 56646,40534 56645,40533 56645,40531 56644,40530 56644,40528 56643,40527 56643,40525 56642,40524 56641,40522 56640,40521 56640,40519 56639,40518 56638,40516 56637,40515 56636,40514 56635,40512 56634,40511 56633,40510 56632,40508 56631,40507 56630,40506 56629,40505 56628,40503 56627,40502 56626,40500 56624,40499 56623,40498 56622,40497 56621,40496 56619,40495 56618,40494 56617,40493 56615,40492 56614,40491 56613,40490 56611,40489 56610,40488 56608,40487 56607,40487 56605,40486 56604,40485 56602,40484 56601,40484 56599,40483 56602,40472 56684,40545 56683,40546 56682,40547 56682,40549 56681,40550 56681,40551 56680,40553 56680,40554 56680,40555 56680,40557 56680,40558 56680,40560 56680,40561 56681,40562 56681,40564 56682,40565 56682,40566 56683,40567 56683,40569 56684,40570 56685,40571 56686,40572 56687,40573 56688,40574 56689,40574 56690,40575 56691,40576 56693,40577 56694,40577 56695,40578 56697,40578 56698,40578 56699,40579 56699,40598 56693,40598 56693,40604 56711,40604 56711,40598 56705,40598 56705,40579 56706,40578 56707,40578 56708,40578 56709,40578 56710,40577 56711,40577 56712,40577 56713,40576 56714,40576 56714,40575 56715,40575 56716,40574 56717,40574 56717,40573 56718,40573 56718,40572 56719,40571 56720,40571 56720,40570 56721,40569 56721,40568 56722,40567 56722,40566 56723,40565 56723,40564 56724,40563 56724,40562 56724,40561 56724,40560 56727,40560 56727,40563 56728,40566 56728,40569 56729,40571 56731,40571 56731,40568 56730,40565 56730,40563 56730,40560 56735,40560 56735,40562 56735,40564 56735,40566 56735,40568 56736,40570 56736,40572 56737,40574 56737,40576 56738,40578 56738,40580 56739,40582 56740,40584 56741,40586 56742,40588 56743,40589 56743,40591 56744,40593 56745,40595 56747,40597 56748,40598 56749,40600 56750,40602 56751,40603 56753,40605 56754,40606 56756,40607 56757,40609 56759,40610 56760,40612 56762,40613 56764,40614 56765,40615 56767,40617 56769,40618 56770,40619 56772,40620 56774,40621 56776,40622 56778,40623 56780,40624 56782,40624 56783,40625 56785,40626 56787,40626 56789,40627 56791,40627 56793,40628 56795,40628 56797,40628 56800,40629 56802,40629 56804,40629 56806,40629 56808,40629 56810,40629 56812,40629 56814,40629 56816,40629 56818,40629 56820,40628 56822,40628 56824,40628 56826,40627 56828,40627 56830,40626 56832,40626 56834,40625 56836,40624 56838,40623 56840,40622 56843,40622 56845,40621 56847,40620 56848,40619 56850,40617 56852,40616 56853,40615 56855,40614 56857,40613 56858,40611 56860,40610 56861,40609 56863,40607 56864,40606 56866,40604 56867,40603 56868,40601 56869,40599 56871,40598 56872,40596 56873,40594 56874,40593 56875,40591 56876,40589 56877,40587 56878,40585 56878,40584 56879,40582 56880,40580 56880,40578 56881,40576 56882,40574 56882,40572 56882,40570 56883,40568 56883,40566 56883,40564 56883,40562 56884,40560 56884,40558 56884,40556 56883,40554 56883,40552 56883,40550 56883,40548 56883,40546 56882,40544 56882,40542 56881,40540 56881,40538 56880,40536 56880,40534 56879,40532 56878,40530 56877,40528 56877,40526 56876,40525 56875,40523 56879,40520 56880,40523 56881,40525 56884,40524 56883,40523 56882,40521 56881,40519 56880,40517 56879,40516 56878,40514 56877,40513 56876,40511 56875,40509 56873,40508 56872,40506 56871,40505 56869,40503 56868,40502 56867,40499 56865,40498 56864,40497 56862,40495 56860,40494 56859,40493 56857,40492 56856,40491 56854,40490 56852,40489 56851,40488 56849,40487 56847,40486 56845,40485 56843,40484 56841,40483 56839,40483 56837,40482 56835,40481 56833,40481 56831,40480 56829,40479 56827,40479 56825,40479 56823,40478 56821,40478 56819,40478 56817,40477 56815,40477 56813,40477 56811,40477 56809,40477 56807,40477 56805,40477 56803,40477 56801,40477 56799,40477 56797,40478 56795,40478 56793,40478 56791,40479 56790,40479 56787,40480 56786,40480 56784,40481 56782,40481 56780,40482 56778,40483 56776,40483 56774,40484 56757,40451 56761,40443 56762,40442 56763,40442 56764,40442 56764,40441 56765,40441 56766,40441 56767,40440 56767,40439 56768,40439 56768,40438 56768,40437 56768,40436 56768,40435 56767,40435 56767,40434 56766,40434 56765,40433 56764,40433 56762,40433 56760,40433 56758,40433 56756,40432 56754,40432 56752,40432 56749,40432 56747,40432 56745,40432 56743,40432 56741,40433 56739,40433 56737,40433 56734,40433 56732,40434 56730,40434 56729,40434 56729,40435 56728,40435 56728,40436 56728,40437 56728,40438 56728,40439 56729,40440 56730,40440 56730,40441 56731,40441 56750,40441 56751,40442 56752,40442 56752,40443 56753,40443 56753,40444 56753,40445 56753,40446 56750,40451 56608,40451 56612,40436 56614,40436 56616,40436 56618,40436 56620,40436 56622,40436 56624,40435 56627,40435 56629,40434 56630,40434 56631,40434 56633,40434 56634,40434 56635,40434 56637,40434 56638,40434 56640,40434 56641,40434 56642,40433 56642,40432 56643,40432 56643,40431 56643,40430 56643,40429 56642,40429 56642,40428 56641,40428 56640,40427 56639,40427 56638,40426 56637,40426 56635,40426 56634,40426 56633,40426 56632,40427 56629,40427 56626,40428 56623,40428 56619,40428 56616,40428 56613,40428 56610,40428 56607,40428 56593,40481 56590,40480 56588,40479 56585,40479 56582,40478 56579,40478 56576,40477 56573,40477 56570,40477 56567,40477 56564,40477 56561,40477 56558,40478 56555,40478 56552,40478 56549,40479 56547,40480 56547,40482 56550,40482 56553,40481 56556,40481 56559,40480 56561,40480 56564,40480 56567,40480 56570,40480 56573,40480 56576,40480 56579,40480 56581,40481 56584,40481 56587,40482 56590,40483 56593,40483 56591,40488 56588,40487 56586,40486 56583,40486 56580,40485 56577,40485 56574,40484 56571,40484 56568,40484 56566,40484 56563,40484 56560,40484 56557,40485 56554,40485 56551,40486 56548,40487 56546,40488 56543,40488 56540,40489 56538,40491 56535,40492 56532,40493 56530,40495 56527,40496 56525,40498 56523,40499 56520,40502 56518,40504 56516,40506 56514,40508 56512,40510 56510,40512 56508,40515 56507,40517 56505,40519 56504,40522 56502,40524 56501,40527 56500,40529 56499,40532 56498,40535 56497,40537 56496,40540 56496,40543 56495,40545 56495,40548 56494,40551 56494,40554 56494,40557 56494,40560 56494,40562 56495,40565 56495,40568 56495,40571 56496,40574 56497,40576 56498,40579 56498,40582 56500,40584 56501,40587 56502,40589 56503,40592 56505,40594 56506,40597 56508,40599 56510,40601 56511,40604 56513,40606 56515,40608 56517,40610 56520,40612 56522,40613 56524,40615 56527,40617 56529,40618 56531,40620 56534,40621 56537,40622 56539,40624 56542,40625 56545,40626 56548,40626 56550,40627 56553,40628 56556,40628 56559,40629 56562,40629 56565,40629 56568,40629 56570,40629 56573,40629 56576,40629 56579,40628 56582,40628 56585,40627 56588,40627 56590,40626 56593,40625 56596,40624 56598,40623 56601,40622 56604,40620 56606,40619 56609,40617 56611,40616 56613,40614 56616,40612 56618,40611 56620,40609 56622,40607 56624,40604 56626,40602 56628,40600 56629,40598 56631,40595 56632,40593 56634,40590 56635,40588 56636,40585 56637,40583 56638,40580 56639,40577 56640,40575 56640,40572 56641,40569 56641,40566 56642,40564 56642,40561 56642,40558 56647,40558 Z"/>
   </g>
  </g>
  <g class="com.sun.star.drawing.PolyPolygonShape">
   <g id="id8">
    <rect class="BoundingBox" stroke="none" fill="none" x="56965" y="40290" width="58" height="421"/>
    <path fill="rgb(255,255,255)" stroke="none" d="M 57021,40291 L 56966,40291 56966,40709 57021,40709 57021,40291 Z"/>
    <path fill="none" stroke="rgb(255,255,255)" d="M 57021,40291 L 56966,40291 56966,40709 57021,40709 57021,40291 Z"/>
   </g>
  </g>
  <g class="com.sun.star.drawing.PolyPolygonShape">
   <g id="id9">
    <rect class="BoundingBox" stroke="none" fill="none" x="56736" y="40707" width="517" height="170"/>
    <path fill="rgb(255,0,0)" stroke="none" d="M 56737,40875 L 57251,40875 57251,40708 56737,40708 56737,40875 Z"/>
    <path fill="none" stroke="rgb(255,0,0)" d="M 56737,40875 L 57251,40875 57251,40708 56737,40708 56737,40875 Z"/>
   </g>
  </g>
  <g class="com.sun.star.drawing.PolyPolygonShape">
   <g id="id10">
    <rect class="BoundingBox" stroke="none" fill="none" x="56885" y="40873" width="218" height="1254"/>
    <path fill="rgb(255,255,255)" stroke="none" d="M 57101,40874 L 56886,40874 56886,42125 57101,42125 57101,40874 Z"/>
    <path fill="none" stroke="rgb(255,255,255)" d="M 57101,40874 L 56886,40874 56886,42125 57101,42125 57101,40874 Z"/>
   </g>
  </g>
 </g>
</svg>