<?xml version="1.0" encoding="UTF-8"?>
<!DOCTYPE svg PUBLIC "-//W3C//DTD SVG 1.1//EN" "http://www.w3.org/Graphics/SVG/1.1/DTD/svg11.dtd">
<svg version="1.2" width="16.68mm" height="25.04mm" viewBox="58360 39998 1668 2504" preserveAspectRatio="xMidYMid" fill-rule="evenodd" stroke-width="28.222" stroke-linejoin="round" xmlns="http://www.w3.org/2000/svg" xmlns:ooo="http://xml.openoffice.org/svg/export" xmlns:xlink="http://www.w3.org/1999/xlink" xmlns:presentation="http://sun.com/xmlns/staroffice/presentation" xmlns:smil="http://www.w3.org/2001/SMIL20/" xmlns:anim="urn:oasis:names:tc:opendocument:xmlns:animation:1.0" xml:space="preserve">
 <defs class="EmbeddedBulletChars">
  <g id="bullet-char-template-57356" transform="scale(0.00048828125,-0.00048828125)">
   <path d="M 580,1141 L 1163,571 580,0 -4,571 580,1141 Z"/>
  </g>
  <g id="bullet-char-template-57354" transform="scale(0.00048828125,-0.00048828125)">
   <path d="M 8,1128 L 1137,1128 1137,0 8,0 8,1128 Z"/>
  </g>
  <g id="bullet-char-template-10146" transform="scale(0.00048828125,-0.00048828125)">
   <path d="M 174,0 L 602,739 174,1481 1456,739 174,0 Z M 1358,739 L 309,1346 659,739 1358,739 Z"/>
  </g>
  <g id="bullet-char-template-10132" transform="scale(0.00048828125,-0.00048828125)">
   <path d="M 2015,739 L 1276,0 717,0 1260,543 174,543 174,936 1260,936 717,1481 1274,1481 2015,739 Z"/>
  </g>
  <g id="bullet-char-template-10007" transform="scale(0.00048828125,-0.00048828125)">
   <path d="M 0,-2 C -7,14 -16,27 -25,37 L 356,567 C 262,823 215,952 215,954 215,979 228,992 255,992 264,992 276,990 289,987 310,991 331,999 354,1012 L 381,999 492,748 772,1049 836,1024 860,1049 C 881,1039 901,1025 922,1006 886,937 835,863 770,784 769,783 710,716 594,584 L 774,223 C 774,196 753,168 711,139 L 727,119 C 717,90 699,76 672,76 641,76 570,178 457,381 L 164,-76 C 142,-110 111,-127 72,-127 30,-127 9,-110 8,-76 1,-67 -2,-52 -2,-32 -2,-23 -1,-13 0,-2 Z"/>
  </g>
  <g id="bullet-char-template-10004" transform="scale(0.00048828125,-0.00048828125)">
   <path d="M 285,-33 C 182,-33 111,30 74,156 52,228 41,333 41,471 41,549 55,616 82,672 116,743 169,778 240,778 293,778 328,747 346,684 L 369,508 C 377,444 397,411 428,410 L 1163,1116 C 1174,1127 1196,1133 1229,1133 1271,1133 1292,1118 1292,1087 L 1292,965 C 1292,929 1282,901 1262,881 L 442,47 C 390,-6 338,-33 285,-33 Z"/>
  </g>
  <g id="bullet-char-template-9679" transform="scale(0.00048828125,-0.00048828125)">
   <path d="M 813,0 C 632,0 489,54 383,161 276,268 223,411 223,592 223,773 276,916 383,1023 489,1130 632,1184 813,1184 992,1184 1136,1130 1245,1023 1353,916 1407,772 1407,592 1407,412 1353,268 1245,161 1136,54 992,0 813,0 Z"/>
  </g>
  <g id="bullet-char-template-8226" transform="scale(0.00048828125,-0.00048828125)">
   <path d="M 346,457 C 273,457 209,483 155,535 101,586 74,649 74,723 74,796 101,859 155,911 209,963 273,989 346,989 419,989 480,963 531,910 582,859 608,796 608,723 608,648 583,586 532,535 482,483 420,457 346,457 Z"/>
  </g>
  <g id="bullet-char-template-8211" transform="scale(0.00048828125,-0.00048828125)">
   <path d="M -4,459 L 1135,459 1135,606 -4,606 -4,459 Z"/>
  </g>
  <g id="bullet-char-template-61548" transform="scale(0.00048828125,-0.00048828125)">
   <path d="M 173,740 C 173,903 231,1043 346,1159 462,1274 601,1332 765,1332 928,1332 1067,1274 1183,1159 1299,1043 1357,903 1357,740 1357,577 1299,437 1183,322 1067,206 928,148 765,148 601,148 462,206 346,322 231,437 173,577 173,740 Z"/>
  </g>
 </defs>
 <g class="Page">
  <g class="com.sun.star.drawing.PolyPolygonShape">
   <g id="id3">
    <rect class="BoundingBox" stroke="none" fill="none" x="58360" y="39998" width="1668" height="2504"/>
    <path fill="rgb(0,0,255)" stroke="none" d="M 58361,42320 L 58361,40180 58362,40162 58364,40145 58369,40128 58375,40111 58382,40095 58391,40080 58402,40065 58414,40052 58427,40040 58441,40030 58456,40021 58472,40013 58489,40007 58506,40003 58524,40000 58541,39999 59846,39999 59864,40000 59881,40003 59898,40007 59915,40013 59931,40021 59946,40030 59960,40040 59974,40052 59985,40065 59996,40080 60005,40095 60013,40111 60019,40128 60023,40145 60026,40162 60026,40180 60026,42320 60026,42337 60023,42355 60019,42372 60013,42389 60005,42405 59996,42420 59985,42434 59974,42448 59960,42459 59946,42470 59931,42479 59915,42487 59898,42493 59881,42497 59864,42500 59846,42500 58541,42500 58524,42500 58506,42497 58489,42493 58472,42487 58456,42479 58441,42470 58427,42459 58414,42448 58402,42434 58391,42420 58382,42405 58375,42389 58369,42372 58364,42355 58362,42337 58361,42320 Z"/>
    <path fill="none" stroke="rgb(0,0,255)" d="M 58361,42320 L 58361,40180 58362,40162 58364,40145 58369,40128 58375,40111 58382,40095 58391,40080 58402,40065 58414,40052 58427,40040 58441,40030 58456,40021 58472,40013 58489,40007 58506,40003 58524,40000 58541,39999 59846,39999 59864,40000 59881,40003 59898,40007 59915,40013 59931,40021 59946,40030 59960,40040 59974,40052 59985,40065 59996,40080 60005,40095 60013,40111 60019,40128 60023,40145 60026,40162 60026,40180 60026,42320 60026,42337 60023,42355 60019,42372 60013,42389 60005,42405 59996,42420 59985,42434 59974,42448 59960,42459 59946,42470 59931,42479 59915,42487 59898,42493 59881,42497 59864,42500 59846,42500 58541,42500 58524,42500 58506,42497 58489,42493 58472,42487 58456,42479 58441,42470 58427,42459 58414,42448 58402,42434 58391,42420 58382,42405 58375,42389 58369,42372 58364,42355 58362,42337 58361,42320 Z"/>
   </g>
  </g>
  <g class="com.sun.star.drawing.PolyPolygonShape">
   <g id="id4">
    <rect class="BoundingBox" stroke="none" fill="none" x="58402" y="40040" width="1585" height="2421"/>
    <path fill="rgb(255,255,255)" stroke="none" d="M 58403,42320 L 58403,40180 58403,40166 58405,40153 58408,40140 58413,40127 58419,40115 58426,40103 58434,40092 58443,40082 58453,40073 58464,40065 58476,40058 58488,40052 58501,40047 58514,40044 58528,40042 58541,40041 59846,40041 59860,40042 59873,40044 59886,40047 59899,40052 59912,40058 59923,40065 59934,40073 59944,40082 59953,40092 59961,40103 59968,40115 59974,40127 59979,40140 59982,40153 59984,40166 59985,40180 59985,42320 59984,42334 59982,42347 59979,42360 59974,42373 59968,42385 59961,42397 59953,42408 59944,42418 59934,42427 59923,42435 59912,42442 59899,42448 59886,42453 59873,42456 59860,42458 59846,42459 58541,42459 58528,42458 58514,42456 58501,42453 58488,42448 58476,42442 58464,42435 58453,42427 58443,42418 58434,42408 58426,42397 58419,42385 58413,42373 58408,42360 58405,42347 58403,42334 58403,42320 Z"/>
    <path fill="none" stroke="rgb(255,255,255)" d="M 58403,42320 L 58403,40180 58403,40166 58405,40153 58408,40140 58413,40127 58419,40115 58426,40103 58434,40092 58443,40082 58453,40073 58464,40065 58476,40058 58488,40052 58501,40047 58514,40044 58528,40042 58541,40041 59846,40041 59860,40042 59873,40044 59886,40047 59899,40052 59912,40058 59923,40065 59934,40073 59944,40082 59953,40092 59961,40103 59968,40115 59974,40127 59979,40140 59982,40153 59984,40166 59985,40180 59985,42320 59984,42334 59982,42347 59979,42360 59974,42373 59968,42385 59961,42397 59953,42408 59944,42418 59934,42427 59923,42435 59912,42442 59899,42448 59886,42453 59873,42456 59860,42458 59846,42459 58541,42459 58528,42458 58514,42456 58501,42453 58488,42448 58476,42442 58464,42435 58453,42427 58443,42418 58434,42408 58426,42397 58419,42385 58413,42373 58408,42360 58405,42347 58403,42334 58403,42320 Z"/>
   </g>
  </g>
  <g class="com.sun.star.drawing.PolyPolygonShape">
   <g id="id5">
    <rect class="BoundingBox" stroke="none" fill="none" x="58443" y="40082" width="1502" height="2337"/>
    <path fill="rgb(0,0,255)" stroke="none" d="M 58444,42320 L 58444,40180 58445,40170 58446,40161 58448,40152 58451,40143 58456,40134 58460,40126 58466,40118 58473,40111 58480,40105 58487,40099 58495,40094 58504,40090 58513,40087 58522,40085 58532,40083 58541,40083 59846,40083 59856,40083 59865,40085 59874,40087 59883,40090 59892,40094 59900,40099 59908,40105 59915,40111 59921,40118 59927,40126 59932,40134 59936,40143 59939,40152 59941,40161 59943,40170 59943,40180 59943,42320 59943,42329 59941,42339 59939,42348 59936,42357 59932,42366 59927,42374 59921,42381 59915,42389 59908,42395 59900,42401 59892,42406 59883,42410 59874,42413 59865,42415 59856,42417 59846,42417 58541,42417 58532,42417 58522,42415 58513,42413 58504,42410 58495,42406 58487,42401 58480,42395 58473,42389 58466,42381 58460,42374 58456,42366 58451,42357 58448,42348 58446,42339 58445,42329 58444,42320 Z"/>
    <path fill="none" stroke="rgb(0,0,255)" d="M 58444,42320 L 58444,40180 58445,40170 58446,40161 58448,40152 58451,40143 58456,40134 58460,40126 58466,40118 58473,40111 58480,40105 58487,40099 58495,40094 58504,40090 58513,40087 58522,40085 58532,40083 58541,40083 59846,40083 59856,40083 59865,40085 59874,40087 59883,40090 59892,40094 59900,40099 59908,40105 59915,40111 59921,40118 59927,40126 59932,40134 59936,40143 59939,40152 59941,40161 59943,40170 59943,40180 59943,42320 59943,42329 59941,42339 59939,42348 59936,42357 59932,42366 59927,42374 59921,42381 59915,42389 59908,42395 59900,42401 59892,42406 59883,42410 59874,42413 59865,42415 59856,42417 59846,42417 58541,42417 58532,42417 58522,42415 58513,42413 58504,42410 58495,42406 58487,42401 58480,42395 58473,42389 58466,42381 58460,42374 58456,42366 58451,42357 58448,42348 58446,42339 58445,42329 58444,42320 Z"/>
   </g>
  </g>
  <g class="com.sun.star.drawing.PolyPolygonShape">
   <g id="id6">
    <rect class="BoundingBox" stroke="none" fill="none" x="58443" y="40372" width="1502" height="1762"/>
    <path fill="rgb(255,0,0)" stroke="none" d="M 58444,41805 L 58444,42132 59943,40699 59943,40373 58444,41805 Z"/>
    <path fill="none" stroke="rgb(255,0,0)" d="M 58444,41805 L 58444,42132 59943,40699 59943,40373 58444,41805 Z"/>
   </g>
  </g>
  <g class="com.sun.star.drawing.PolyPolygonShape">
   <g id="id7">
    <rect class="BoundingBox" stroke="none" fill="none" x="58595" y="41299" width="1260" height="689"/>
    <path fill="rgb(255,255,255)" stroke="none" d="M 59588,41678 L 59581,41679 59575,41681 59569,41683 59563,41687 59557,41691 59552,41695 59548,41700 59544,41706 59525,41727 59507,41749 59491,41772 59477,41797 59461,41806 59445,41817 59430,41828 59415,41839 59410,41843 59405,41847 59399,41849 59392,41850 59389,41850 59385,41850 59382,41851 59379,41853 59376,41855 59374,41858 59372,41861 59371,41864 59366,41867 59363,41870 59361,41874 59359,41879 59356,41884 59352,41888 59347,41892 59341,41894 59338,41897 59334,41900 59332,41905 59332,41909 59327,41911 59322,41912 59316,41912 59311,41911 59301,41909 59291,41908 59295,41905 59298,41901 59300,41896 59301,41892 59302,41890 59301,41887 59291,41880 59281,41873 59273,41864 59264,41855 59257,41845 59250,41834 59245,41823 59240,41812 59238,41803 59235,41795 59231,41787 59227,41780 59217,41783 59184,41755 59195,41752 59205,41749 59215,41744 59224,41739 59356,41500 59362,41488 59366,41475 59368,41462 59368,41449 59367,41434 59364,41422 59359,41409 59352,41398 59339,41369 59339,41366 59340,41362 59344,41360 59347,41360 59626,41491 59634,41501 59643,41511 59654,41519 59665,41526 59678,41531 59690,41534 59704,41536 59717,41536 59708,41543 59699,41550 59690,41559 59682,41567 59675,41577 59669,41586 59663,41597 59658,41607 59651,41617 59643,41627 59635,41637 59627,41646 59618,41655 59608,41663 59598,41671 59588,41678 Z M 58889,41777 L 58893,41768 58895,41758 58895,41747 58892,41737 58892,41729 58893,41720 58897,41712 58901,41705 58904,41701 58906,41697 58908,41692 58909,41687 58755,41834 58757,41843 58752,41849 58749,41855 58748,41862 58749,41869 58749,41897 58689,41898 58596,41986 59853,41986 59853,41413 59737,41512 59724,41515 59710,41516 59696,41515 59683,41511 59670,41505 59659,41498 59649,41489 59640,41478 59392,41363 59356,41341 59321,41317 59314,41300 59146,41461 59155,41469 59138,41500 59122,41533 59108,41566 59096,41600 59086,41635 59077,41670 59071,41706 59067,41742 59059,41747 59051,41752 59044,41758 59038,41765 59031,41772 59026,41779 59021,41787 59016,41795 59067,41846 59087,41829 59092,41839 59098,41850 59104,41860 59111,41869 59119,41878 59127,41887 59135,41895 59144,41903 58926,41903 58945,41849 58947,41844 58947,41840 58947,41835 58945,41831 58942,41827 58939,41823 58935,41821 58930,41820 58918,41821 58905,41821 58893,41819 58881,41816 58880,41806 58881,41796 58885,41786 58889,41777 Z"/>
    <path fill="none" stroke="rgb(255,255,255)" d="M 59588,41678 L 59581,41679 59575,41681 59569,41683 59563,41687 59557,41691 59552,41695 59548,41700 59544,41706 59525,41727 59507,41749 59491,41772 59477,41797 59461,41806 59445,41817 59430,41828 59415,41839 59410,41843 59405,41847 59399,41849 59392,41850 59389,41850 59385,41850 59382,41851 59379,41853 59376,41855 59374,41858 59372,41861 59371,41864 59366,41867 59363,41870 59361,41874 59359,41879 59356,41884 59352,41888 59347,41892 59341,41894 59338,41897 59334,41900 59332,41905 59332,41909 59327,41911 59322,41912 59316,41912 59311,41911 59301,41909 59291,41908 59295,41905 59298,41901 59300,41896 59301,41892 59302,41890 59301,41887 59291,41880 59281,41873 59273,41864 59264,41855 59257,41845 59250,41834 59245,41823 59240,41812 59238,41803 59235,41795 59231,41787 59227,41780 59217,41783 59184,41755 59195,41752 59205,41749 59215,41744 59224,41739 59356,41500 59362,41488 59366,41475 59368,41462 59368,41449 59367,41434 59364,41422 59359,41409 59352,41398 59339,41369 59339,41366 59340,41362 59344,41360 59347,41360 59626,41491 59634,41501 59643,41511 59654,41519 59665,41526 59678,41531 59690,41534 59704,41536 59717,41536 59708,41543 59699,41550 59690,41559 59682,41567 59675,41577 59669,41586 59663,41597 59658,41607 59651,41617 59643,41627 59635,41637 59627,41646 59618,41655 59608,41663 59598,41671 59588,41678 Z"/>
    <path fill="none" stroke="rgb(255,255,255)" d="M 58889,41777 L 58893,41768 58895,41758 58895,41747 58892,41737 58892,41729 58893,41720 58897,41712 58901,41705 58904,41701 58906,41697 58908,41692 58909,41687 58755,41834 58757,41843 58752,41849 58749,41855 58748,41862 58749,41869 58749,41897 58689,41898 58596,41986 59853,41986 59853,41413 59737,41512 59724,41515 59710,41516 59696,41515 59683,41511 59670,41505 59659,41498 59649,41489 59640,41478 59392,41363 59356,41341 59321,41317 59314,41300 59146,41461 59155,41469 59138,41500 59122,41533 59108,41566 59096,41600 59086,41635 59077,41670 59071,41706 59067,41742 59059,41747 59051,41752 59044,41758 59038,41765 59031,41772 59026,41779 59021,41787 59016,41795 59067,41846 59087,41829 59092,41839 59098,41850 59104,41860 59111,41869 59119,41878 59127,41887 59135,41895 59144,41903 58926,41903 58945,41849 58947,41844 58947,41840 58947,41835 58945,41831 58942,41827 58939,41823 58935,41821 58930,41820 58918,41821 58905,41821 58893,41819 58881,41816 58880,41806 58881,41796 58885,41786 58889,41777 Z"/>
   </g>
  </g>
  <g class="com.sun.star.drawing.PolyPolygonShape">
   <g id="id8">
    <rect class="BoundingBox" stroke="none" fill="none" x="58692" y="40503" width="739" height="1004"/>
    <path fill="rgb(255,255,255)" stroke="none" d="M 58804,41031 L 58811,41015 58816,40999 58821,40983 58824,40966 58827,40949 58829,40932 58830,40916 58830,40898 58861,40888 58891,40875 58920,40862 58949,40848 58936,40874 58922,40901 58908,40926 58893,40952 58878,40977 58862,41002 58846,41027 58829,41051 58828,41047 58827,41043 58824,41039 58821,41036 58817,41033 58813,41032 58809,41031 58804,41031 Z M 59152,41129 L 59340,40949 59344,40939 59349,40929 59353,40917 59354,40906 59354,40894 59352,40883 59348,40872 59342,40862 59335,40853 59288,40792 59285,40787 59284,40780 59285,40774 59288,40769 59292,40764 59298,40762 59304,40761 59310,40763 59317,40763 59323,40762 59329,40759 59334,40754 59344,40744 59401,40689 59403,40693 59406,40696 59410,40699 59414,40702 59417,40702 59420,40702 59422,40701 59424,40698 59425,40695 59425,40692 59424,40689 59422,40687 59419,40681 59417,40674 59417,40668 59417,40661 59418,40654 59420,40648 59423,40642 59426,40636 59429,40628 59429,40620 59428,40611 59424,40604 59411,40586 59396,40570 59380,40556 59363,40543 59345,40531 59325,40521 59305,40513 59285,40507 59278,40505 59271,40504 59264,40504 59257,40506 59250,40508 59244,40512 59239,40517 59235,40522 59230,40530 59227,40538 59224,40547 59221,40556 59220,40565 59219,40574 59219,40583 59220,40592 59221,40604 59219,40615 59216,40626 59212,40637 59205,40646 59197,40654 59187,40661 59177,40666 59145,40646 59127,40656 59109,40664 59090,40670 59070,40675 59050,40678 59030,40680 59010,40679 58990,40677 58983,40679 58976,40681 58968,40684 58962,40688 58955,40692 58949,40697 58944,40702 58939,40708 58926,40717 58913,40726 58899,40734 58885,40740 58870,40746 58855,40750 58840,40753 58824,40755 58821,40760 58817,40764 58813,40769 58809,40772 58804,40776 58799,40778 58793,40780 58787,40782 58777,40783 58768,40786 58760,40791 58753,40798 58748,40806 58744,40816 58743,40825 58744,40835 58744,40841 58745,40846 58744,40852 58743,40857 58741,40862 58739,40867 58737,40872 58733,40877 58721,40914 58710,40951 58701,40989 58693,41027 58697,41029 58700,41030 58704,41031 58707,41030 58704,41050 58701,41070 58701,41075 58701,41081 58702,41086 58704,41091 58707,41095 58710,41100 58714,41103 58718,41107 58777,41140 58770,41153 58764,41166 58759,41180 58754,41194 58750,41209 58747,41223 58745,41238 58743,41253 58743,41268 58743,41283 58744,41297 58746,41312 58748,41327 58752,41341 58756,41355 58761,41369 58755,41387 58750,41405 58747,41423 58744,41441 58749,41456 58753,41473 58756,41489 58759,41505 59118,41161 59113,41151 59109,41140 59106,41130 59104,41119 59104,41108 59104,41096 59105,41085 59108,41074 59111,41064 59116,41053 59122,41044 59128,41035 59136,41026 59144,41018 59153,41012 59162,41006 59157,41036 59154,41067 59152,41098 59152,41129 Z"/>
    <path fill="none" stroke="rgb(255,255,255)" d="M 58804,41031 L 58811,41015 58816,40999 58821,40983 58824,40966 58827,40949 58829,40932 58830,40916 58830,40898 58861,40888 58891,40875 58920,40862 58949,40848 58936,40874 58922,40901 58908,40926 58893,40952 58878,40977 58862,41002 58846,41027 58829,41051 58828,41047 58827,41043 58824,41039 58821,41036 58817,41033 58813,41032 58809,41031 58804,41031 Z"/>
    <path fill="none" stroke="rgb(255,255,255)" d="M 59152,41129 L 59340,40949 59344,40939 59349,40929 59353,40917 59354,40906 59354,40894 59352,40883 59348,40872 59342,40862 59335,40853 59288,40792 59285,40787 59284,40780 59285,40774 59288,40769 59292,40764 59298,40762 59304,40761 59310,40763 59317,40763 59323,40762 59329,40759 59334,40754 59344,40744 59401,40689 59403,40693 59406,40696 59410,40699 59414,40702 59417,40702 59420,40702 59422,40701 59424,40698 59425,40695 59425,40692 59424,40689 59422,40687 59419,40681 59417,40674 59417,40668 59417,40661 59418,40654 59420,40648 59423,40642 59426,40636 59429,40628 59429,40620 59428,40611 59424,40604 59411,40586 59396,40570 59380,40556 59363,40543 59345,40531 59325,40521 59305,40513 59285,40507 59278,40505 59271,40504 59264,40504 59257,40506 59250,40508 59244,40512 59239,40517 59235,40522 59230,40530 59227,40538 59224,40547 59221,40556 59220,40565 59219,40574 59219,40583 59220,40592 59221,40604 59219,40615 59216,40626 59212,40637 59205,40646 59197,40654 59187,40661 59177,40666 59145,40646 59127,40656 59109,40664 59090,40670 59070,40675 59050,40678 59030,40680 59010,40679 58990,40677 58983,40679 58976,40681 58968,40684 58962,40688 58955,40692 58949,40697 58944,40702 58939,40708 58926,40717 58913,40726 58899,40734 58885,40740 58870,40746 58855,40750 58840,40753 58824,40755 58821,40760 58817,40764 58813,40769 58809,40772 58804,40776 58799,40778 58793,40780 58787,40782 58777,40783 58768,40786 58760,40791 58753,40798 58748,40806 58744,40816 58743,40825 58744,40835 58744,40841 58745,40846 58744,40852 58743,40857 58741,40862 58739,40867 58737,40872 58733,40877 58721,40914 58710,40951 58701,40989 58693,41027 58697,41029 58700,41030 58704,41031 58707,41030 58704,41050 58701,41070 58701,41075 58701,41081 58702,41086 58704,41091 58707,41095 58710,41100 58714,41103 58718,41107 58777,41140 58770,41153 58764,41166 58759,41180 58754,41194 58750,41209 58747,41223 58745,41238 58743,41253 58743,41268 58743,41283 58744,41297 58746,41312 58748,41327 58752,41341 58756,41355 58761,41369 58755,41387 58750,41405 58747,41423 58744,41441 58749,41456 58753,41473 58756,41489 58759,41505 59118,41161 59113,41151 59109,41140 59106,41130 59104,41119 59104,41108 59104,41096 59105,41085 59108,41074 59111,41064 59116,41053 59122,41044 59128,41035 59136,41026 59144,41018 59153,41012 59162,41006 59157,41036 59154,41067 59152,41098 59152,41129 Z"/>
   </g>
  </g>
  <g class="com.sun.star.drawing.PolyPolygonShape">
   <g id="id9">
    <rect class="BoundingBox" stroke="none" fill="none" x="58692" y="40503" width="739" height="1004"/>
    <path fill="rgb(255,255,255)" stroke="none" d="M 58804,41031 L 58811,41015 58816,40999 58821,40983 58824,40966 58827,40949 58829,40932 58830,40916 58830,40898 58861,40888 58891,40875 58920,40862 58949,40848 58936,40874 58922,40901 58908,40926 58893,40952 58878,40977 58862,41002 58846,41027 58829,41051 58828,41047 58827,41043 58824,41039 58821,41036 58817,41033 58813,41032 58809,41031 58804,41031 Z M 59152,41129 L 59340,40949 59344,40939 59349,40929 59353,40917 59354,40906 59354,40894 59352,40883 59348,40872 59342,40862 59335,40853 59288,40792 59285,40787 59284,40780 59285,40774 59288,40769 59292,40764 59298,40762 59304,40761 59310,40763 59317,40763 59323,40762 59329,40759 59334,40754 59344,40744 59401,40689 59403,40693 59406,40696 59410,40699 59414,40702 59417,40702 59420,40702 59422,40701 59424,40698 59425,40695 59425,40692 59424,40689 59422,40687 59419,40681 59417,40674 59417,40668 59417,40661 59418,40654 59420,40648 59423,40642 59426,40636 59429,40628 59429,40620 59428,40611 59424,40604 59411,40586 59396,40570 59380,40556 59363,40543 59345,40531 59325,40521 59305,40513 59285,40507 59278,40505 59271,40504 59264,40504 59257,40506 59250,40508 59244,40512 59239,40517 59235,40522 59230,40530 59227,40538 59224,40547 59221,40556 59220,40565 59219,40574 59219,40583 59220,40592 59221,40604 59219,40615 59216,40626 59212,40637 59205,40646 59197,40654 59187,40661 59177,40666 59145,40646 59127,40656 59109,40664 59090,40670 59070,40675 59050,40678 59030,40680 59010,40679 58990,40677 58983,40679 58976,40681 58968,40684 58962,40688 58955,40692 58949,40697 58944,40702 58939,40708 58926,40717 58913,40726 58899,40734 58885,40740 58870,40746 58855,40750 58840,40753 58824,40755 58821,40760 58817,40764 58813,40769 58809,40772 58804,40776 58799,40778 58793,40780 58787,40782 58777,40783 58768,40786 58760,40791 58753,40798 58748,40806 58744,40816 58743,40825 58744,40835 58744,40841 58745,40846 58744,40852 58743,40857 58741,40862 58739,40867 58737,40872 58733,40877 58721,40914 58710,40951 58701,40989 58693,41027 58697,41029 58700,41030 58704,41031 58707,41030 58704,41050 58701,41070 58701,41075 58701,41081 58702,41086 58704,41091 58707,41095 58710,41100 58714,41103 58718,41107 58777,41140 58770,41153 58764,41166 58759,41180 58754,41194 58750,41209 58747,41223 58745,41238 58743,41253 58743,41268 58743,41283 58744,41297 58746,41312 58748,41327 58752,41341 58756,41355 58761,41369 58755,41387 58750,41405 58747,41423 58744,41441 58749,41456 58753,41473 58756,41489 58759,41505 59118,41161 59113,41151 59109,41140 59106,41130 59104,41119 59104,41108 59104,41096 59105,41085 59108,41074 59111,41064 59116,41053 59122,41044 59128,41035 59136,41026 59144,41018 59153,41012 59162,41006 59157,41036 59154,41067 59152,41098 59152,41129 Z"/>
    <path fill="none" stroke="rgb(255,255,255)" d="M 58804,41031 L 58811,41015 58816,40999 58821,40983 58824,40966 58827,40949 58829,40932 58830,40916 58830,40898 58861,40888 58891,40875 58920,40862 58949,40848 58936,40874 58922,40901 58908,40926 58893,40952 58878,40977 58862,41002 58846,41027 58829,41051 58828,41047 58827,41043 58824,41039 58821,41036 58817,41033 58813,41032 58809,41031 58804,41031 Z"/>
    <path fill="none" stroke="rgb(255,255,255)" d="M 59152,41129 L 59340,40949 59344,40939 59349,40929 59353,40917 59354,40906 59354,40894 59352,40883 59348,40872 59342,40862 59335,40853 59288,40792 59285,40787 59284,40780 59285,40774 59288,40769 59292,40764 59298,40762 59304,40761 59310,40763 59317,40763 59323,40762 59329,40759 59334,40754 59344,40744 59401,40689 59403,40693 59406,40696 59410,40699 59414,40702 59417,40702 59420,40702 59422,40701 59424,40698 59425,40695 59425,40692 59424,40689 59422,40687 59419,40681 59417,40674 59417,40668 59417,40661 59418,40654 59420,40648 59423,40642 59426,40636 59429,40628 59429,40620 59428,40611 59424,40604 59411,40586 59396,40570 59380,40556 59363,40543 59345,40531 59325,40521 59305,40513 59285,40507 59278,40505 59271,40504 59264,40504 59257,40506 59250,40508 59244,40512 59239,40517 59235,40522 59230,40530 59227,40538 59224,40547 59221,40556 59220,40565 59219,40574 59219,40583 59220,40592 59221,40604 59219,40615 59216,40626 59212,40637 59205,40646 59197,40654 59187,40661 59177,40666 59145,40646 59127,40656 59109,40664 59090,40670 59070,40675 59050,40678 59030,40680 59010,40679 58990,40677 58983,40679 58976,40681 58968,40684 58962,40688 58955,40692 58949,40697 58944,40702 58939,40708 58926,40717 58913,40726 58899,40734 58885,40740 58870,40746 58855,40750 58840,40753 58824,40755 58821,40760 58817,40764 58813,40769 58809,40772 58804,40776 58799,40778 58793,40780 58787,40782 58777,40783 58768,40786 58760,40791 58753,40798 58748,40806 58744,40816 58743,40825 58744,40835 58744,40841 58745,40846 58744,40852 58743,40857 58741,40862 58739,40867 58737,40872 58733,40877 58721,40914 58710,40951 58701,40989 58693,41027 58697,41029 58700,41030 58704,41031 58707,41030 58704,41050 58701,41070 58701,41075 58701,41081 58702,41086 58704,41091 58707,41095 58710,41100 58714,41103 58718,41107 58777,41140 58770,41153 58764,41166 58759,41180 58754,41194 58750,41209 58747,41223 58745,41238 58743,41253 58743,41268 58743,41283 58744,41297 58746,41312 58748,41327 58752,41341 58756,41355 58761,41369 58755,41387 58750,41405 58747,41423 58744,41441 58749,41456 58753,41473 58756,41489 58759,41505 59118,41161 59113,41151 59109,41140 59106,41130 59104,41119 59104,41108 59104,41096 59105,41085 59108,41074 59111,41064 59116,41053 59122,41044 59128,41035 59136,41026 59144,41018 59153,41012 59162,41006 59157,41036 59154,41067 59152,41098 59152,41129 Z"/>
   </g>
  </g>
 </g>
</svg>