<?xml version="1.0" encoding="UTF-8"?>
<!DOCTYPE svg PUBLIC "-//W3C//DTD SVG 1.1//EN" "http://www.w3.org/Graphics/SVG/1.1/DTD/svg11.dtd">
<svg version="1.2" width="100.03mm" height="149.73mm" viewBox="29566 36499 10003 14973" preserveAspectRatio="xMidYMid" fill-rule="evenodd" stroke-width="28.222" stroke-linejoin="round" xmlns="http://www.w3.org/2000/svg" xmlns:ooo="http://xml.openoffice.org/svg/export" xmlns:xlink="http://www.w3.org/1999/xlink" xmlns:presentation="http://sun.com/xmlns/staroffice/presentation" xmlns:smil="http://www.w3.org/2001/SMIL20/" xmlns:anim="urn:oasis:names:tc:opendocument:xmlns:animation:1.0" xml:space="preserve">
 <defs class="EmbeddedBulletChars">
  <g id="bullet-char-template-57356" transform="scale(0.00048828125,-0.00048828125)">
   <path d="M 580,1141 L 1163,571 580,0 -4,571 580,1141 Z"/>
  </g>
  <g id="bullet-char-template-57354" transform="scale(0.00048828125,-0.00048828125)">
   <path d="M 8,1128 L 1137,1128 1137,0 8,0 8,1128 Z"/>
  </g>
  <g id="bullet-char-template-10146" transform="scale(0.00048828125,-0.00048828125)">
   <path d="M 174,0 L 602,739 174,1481 1456,739 174,0 Z M 1358,739 L 309,1346 659,739 1358,739 Z"/>
  </g>
  <g id="bullet-char-template-10132" transform="scale(0.00048828125,-0.00048828125)">
   <path d="M 2015,739 L 1276,0 717,0 1260,543 174,543 174,936 1260,936 717,1481 1274,1481 2015,739 Z"/>
  </g>
  <g id="bullet-char-template-10007" transform="scale(0.00048828125,-0.00048828125)">
   <path d="M 0,-2 C -7,14 -16,27 -25,37 L 356,567 C 262,823 215,952 215,954 215,979 228,992 255,992 264,992 276,990 289,987 310,991 331,999 354,1012 L 381,999 492,748 772,1049 836,1024 860,1049 C 881,1039 901,1025 922,1006 886,937 835,863 770,784 769,783 710,716 594,584 L 774,223 C 774,196 753,168 711,139 L 727,119 C 717,90 699,76 672,76 641,76 570,178 457,381 L 164,-76 C 142,-110 111,-127 72,-127 30,-127 9,-110 8,-76 1,-67 -2,-52 -2,-32 -2,-23 -1,-13 0,-2 Z"/>
  </g>
  <g id="bullet-char-template-10004" transform="scale(0.00048828125,-0.00048828125)">
   <path d="M 285,-33 C 182,-33 111,30 74,156 52,228 41,333 41,471 41,549 55,616 82,672 116,743 169,778 240,778 293,778 328,747 346,684 L 369,508 C 377,444 397,411 428,410 L 1163,1116 C 1174,1127 1196,1133 1229,1133 1271,1133 1292,1118 1292,1087 L 1292,965 C 1292,929 1282,901 1262,881 L 442,47 C 390,-6 338,-33 285,-33 Z"/>
  </g>
  <g id="bullet-char-template-9679" transform="scale(0.00048828125,-0.00048828125)">
   <path d="M 813,0 C 632,0 489,54 383,161 276,268 223,411 223,592 223,773 276,916 383,1023 489,1130 632,1184 813,1184 992,1184 1136,1130 1245,1023 1353,916 1407,772 1407,592 1407,412 1353,268 1245,161 1136,54 992,0 813,0 Z"/>
  </g>
  <g id="bullet-char-template-8226" transform="scale(0.00048828125,-0.00048828125)">
   <path d="M 346,457 C 273,457 209,483 155,535 101,586 74,649 74,723 74,796 101,859 155,911 209,963 273,989 346,989 419,989 480,963 531,910 582,859 608,796 608,723 608,648 583,586 532,535 482,483 420,457 346,457 Z"/>
  </g>
  <g id="bullet-char-template-8211" transform="scale(0.00048828125,-0.00048828125)">
   <path d="M -4,459 L 1135,459 1135,606 -4,606 -4,459 Z"/>
  </g>
  <g id="bullet-char-template-61548" transform="scale(0.00048828125,-0.00048828125)">
   <path d="M 173,740 C 173,903 231,1043 346,1159 462,1274 601,1332 765,1332 928,1332 1067,1274 1183,1159 1299,1043 1357,903 1357,740 1357,577 1299,437 1183,322 1067,206 928,148 765,148 601,148 462,206 346,322 231,437 173,577 173,740 Z"/>
  </g>
 </defs>
 <g class="Page">
  <g class="Group">
   <g class="com.sun.star.drawing.ClosedBezierShape">
    <g id="id3">
     <rect class="BoundingBox" stroke="none" fill="none" x="29566" y="36499" width="10003" height="14973"/>
     <path fill="rgb(255,255,255)" stroke="none" d="M 30647,51470 C 33258,51470 35870,51470 38481,51470 38517,51468 38553,51466 38589,51464 38623,51460 38657,51456 38691,51452 38727,51444 38763,51436 38799,51428 38831,51416 38863,51404 38895,51392 38927,51376 38959,51360 38991,51344 39021,51326 39051,51308 39081,51290 39111,51268 39141,51246 39171,51224 39197,51203 39223,51181 39249,51159 39273,51131 39297,51103 39321,51075 39341,51047 39361,51019 39381,50991 39399,50961 39417,50931 39435,50901 39451,50869 39467,50837 39483,50805 39495,50771 39507,50737 39519,50704 39527,50670 39535,50636 39543,50602 39549,50566 39555,50530 39561,50494 39563,50460 39565,50426 39567,50392 39567,46121 39567,41849 39567,37578 39565,37542 39563,37506 39561,37470 39555,37436 39549,37402 39543,37368 39535,37334 39527,37300 39519,37266 39507,37233 39495,37199 39483,37165 39467,37133 39451,37101 39435,37069 39417,37039 39399,37009 39381,36979 39361,36949 39341,36919 39321,36889 39297,36863 39273,36837 39249,36811 39223,36787 39197,36763 39171,36740 39141,36720 39111,36700 39081,36680 39051,36662 39021,36644 38991,36626 38959,36610 38927,36594 38895,36578 38863,36566 38831,36554 38799,36542 38763,36534 38727,36526 38691,36518 38657,36512 38623,36506 38589,36500 38553,36500 38517,36500 38481,36500 35870,36500 33258,36500 30647,36500 30613,36500 30579,36500 30545,36500 30509,36506 30473,36512 30437,36518 30403,36526 30369,36534 30335,36542 30301,36554 30267,36566 30233,36578 30201,36594 30169,36610 30137,36626 30107,36644 30077,36662 30047,36680 30019,36700 29991,36720 29963,36740 29937,36763 29911,36787 29885,36811 29861,36837 29837,36863 29813,36889 29793,36919 29773,36949 29753,36979 29733,37009 29713,37039 29693,37069 29679,37101 29665,37133 29651,37165 29639,37199 29627,37233 29615,37266 29607,37300 29599,37334 29591,37368 29585,37402 29579,37436 29573,37470 29571,37506 29569,37542 29567,37578 29567,41849 29567,46121 29567,50392 29569,50426 29571,50460 29573,50494 29579,50530 29585,50566 29591,50602 29599,50636 29607,50670 29615,50704 29627,50737 29639,50771 29651,50805 29665,50837 29679,50869 29693,50901 29713,50931 29733,50961 29753,50991 29773,51019 29793,51047 29813,51075 29837,51103 29861,51131 29885,51159 29911,51181 29937,51203 29963,51224 29991,51246 30019,51268 30047,51290 30077,51308 30107,51326 30137,51344 30169,51360 30201,51376 30233,51392 30267,51404 30301,51416 30335,51428 30369,51436 30403,51444 30437,51452 30473,51456 30509,51460 30545,51464 30579,51466 30613,51468 30647,51470 Z"/>
     <path fill="none" stroke="rgb(0,0,0)" d="M 30647,51470 L 38481,51470 38589,51464 38691,51452 38799,51428 38895,51392 38991,51344 39081,51290 39171,51224 39249,51159 39321,51075 39381,50991 39435,50901 39483,50805 39519,50704 39543,50602 39561,50494 39567,50392 39567,37578 39561,37470 39543,37368 39519,37266 39483,37165 39435,37069 39381,36979 39321,36889 39249,36811 39171,36740 39081,36680 38991,36626 38895,36578 38799,36542 38691,36518 38589,36500 38481,36500 30647,36500 30545,36500 30437,36518 30335,36542 30233,36578 30137,36626 30047,36680 29963,36740 29885,36811 29813,36889 29753,36979 29693,37069 29651,37165 29615,37266 29591,37368 29573,37470 29567,37578 29567,50392 29573,50494 29591,50602 29615,50704 29651,50805 29693,50901 29753,50991 29813,51075 29885,51159 29963,51224 30047,51290 30137,51344 30233,51392 30335,51428 30437,51452 30545,51464 30647,51470 Z"/>
    </g>
   </g>
   <g class="com.sun.star.drawing.ClosedBezierShape">
    <g id="id4">
     <rect class="BoundingBox" stroke="none" fill="none" x="29818" y="36745" width="9499" height="14481"/>
     <path fill="rgb(0,0,0)" stroke="none" d="M 30647,51224 C 33258,51224 35870,51224 38481,51224 38509,51222 38537,51221 38565,51219 38591,51215 38617,51211 38643,51207 38669,51201 38695,51195 38721,51189 38747,51179 38773,51169 38799,51159 38825,51147 38851,51135 38877,51123 38899,51109 38921,51095 38943,51081 38965,51065 38987,51049 39009,51033 39029,51015 39049,50997 39069,50979 39087,50959 39105,50939 39123,50919 39141,50897 39159,50875 39177,50853 39191,50829 39205,50805 39219,50781 39229,50757 39239,50733 39249,50710 39259,50684 39269,50658 39279,50632 39285,50606 39291,50580 39297,50554 39301,50528 39305,50502 39309,50476 39311,50448 39313,50420 39315,50392 39315,46121 39315,41849 39315,37578 39313,37550 39311,37522 39309,37494 39305,37468 39301,37442 39297,37416 39291,37390 39285,37364 39279,37338 39269,37312 39259,37286 39249,37260 39239,37237 39229,37213 39219,37189 39205,37165 39191,37141 39177,37117 39159,37095 39141,37073 39123,37051 39105,37031 39087,37011 39069,36991 39049,36973 39029,36955 39009,36937 38987,36921 38965,36905 38943,36889 38921,36875 38899,36861 38877,36847 38851,36835 38825,36823 38799,36811 38773,36801 38747,36791 38721,36781 38695,36775 38669,36769 38643,36763 38617,36759 38591,36755 38565,36751 38537,36749 38509,36748 38481,36746 35870,36746 33258,36746 30647,36746 30621,36748 30595,36749 30569,36751 30541,36755 30513,36759 30485,36763 30459,36769 30433,36775 30407,36781 30381,36791 30355,36801 30329,36811 30305,36823 30281,36835 30257,36847 30233,36861 30209,36875 30185,36889 30165,36905 30145,36921 30125,36937 30103,36955 30081,36973 30059,36991 30041,37011 30023,37031 30005,37051 29989,37073 29973,37095 29957,37117 29943,37141 29929,37165 29915,37189 29903,37213 29891,37237 29879,37260 29871,37286 29863,37312 29855,37338 29847,37364 29839,37390 29831,37416 29827,37442 29823,37468 29819,37494 29819,37522 29819,37550 29819,37578 29819,41849 29819,46121 29819,50392 29819,50420 29819,50448 29819,50476 29823,50502 29827,50528 29831,50554 29839,50580 29847,50606 29855,50632 29863,50658 29871,50684 29879,50710 29891,50733 29903,50757 29915,50781 29929,50805 29943,50829 29957,50853 29973,50875 29989,50897 30005,50919 30023,50939 30041,50959 30059,50979 30081,50997 30103,51015 30125,51033 30145,51049 30165,51065 30185,51081 30209,51095 30233,51109 30257,51123 30281,51135 30305,51147 30329,51159 30355,51169 30381,51179 30407,51189 30433,51195 30459,51201 30485,51207 30513,51211 30541,51215 30569,51219 30595,51221 30621,51222 30647,51224 Z"/>
     <path fill="none" stroke="rgb(0,0,0)" d="M 30647,51224 L 38481,51224 38565,51219 38643,51207 38721,51189 38799,51159 38877,51123 38943,51081 39009,51033 39069,50979 39123,50919 39177,50853 39219,50781 39249,50710 39279,50632 39297,50554 39309,50476 39315,50392 39315,37578 39309,37494 39297,37416 39279,37338 39249,37260 39219,37189 39177,37117 39123,37051 39069,36991 39009,36937 38943,36889 38877,36847 38799,36811 38721,36781 38643,36763 38565,36751 38481,36746 30647,36746 30569,36751 30485,36763 30407,36781 30329,36811 30257,36847 30185,36889 30125,36937 30059,36991 30005,37051 29957,37117 29915,37189 29879,37260 29855,37338 29831,37416 29819,37494 29819,37578 29819,50392 29819,50476 29831,50554 29855,50632 29879,50710 29915,50781 29957,50853 30005,50919 30059,50979 30125,51033 30185,51081 30257,51123 30329,51159 30407,51189 30485,51207 30569,51219 30647,51224 Z"/>
    </g>
   </g>
   <g class="com.sun.star.drawing.ClosedBezierShape">
    <g id="id5">
     <rect class="BoundingBox" stroke="none" fill="none" x="30424" y="37996" width="8641" height="12979"/>
     <path fill="rgb(255,255,255)" stroke="none" d="M 32178,46817 C 33541,44777 34903,42737 36266,40698 36216,40672 36166,40646 36116,40620 36064,40598 36012,40576 35960,40554 35906,40534 35852,40514 35797,40494 35745,40476 35693,40458 35641,40440 35587,40424 35533,40408 35479,40392 35423,40380 35367,40368 35311,40356 35255,40346 35199,40336 35143,40326 35089,40318 35035,40310 34981,40302 34925,40298 34869,40294 34813,40290 34755,40288 34697,40286 34639,40284 34583,40284 34527,40284 34471,40284 34415,40286 34359,40288 34303,40290 34247,40296 34191,40302 34135,40308 34079,40314 34023,40320 33967,40326 33911,40338 33855,40350 33799,40362 33745,40374 33691,40386 33637,40398 33583,40414 33529,40430 33475,40446 33421,40464 33367,40482 33312,40500 33260,40520 33208,40540 33156,40560 33104,40582 33052,40604 33000,40626 32950,40650 32900,40674 32850,40698 32800,40726 32750,40753 32700,40781 32652,40811 32604,40841 32556,40871 32510,40903 32464,40935 32418,40967 32372,40999 32326,41031 32280,41063 32238,41099 32196,41135 32154,41171 32112,41209 32070,41246 32028,41284 31988,41324 31948,41364 31908,41404 31870,41446 31832,41488 31794,41530 31756,41572 31718,41614 31680,41656 31646,41700 31612,41743 31578,41787 31546,41833 31514,41879 31482,41925 31452,41973 31422,42021 31392,42069 31364,42119 31336,42169 31308,42219 31282,42268 31256,42318 31230,42368 31206,42420 31182,42472 31158,42524 31138,42576 31118,42628 31098,42680 31078,42732 31058,42783 31038,42835 31022,42889 31006,42943 30990,42997 30978,43053 30966,43109 30954,43165 30942,43219 30930,43272 30918,43326 30908,43382 30898,43438 30888,43494 30882,43550 30876,43606 30870,43662 30868,43718 30866,43773 30864,43829 30862,43885 30860,43941 30858,43997 30860,44055 30862,44113 30864,44171 30868,44227 30872,44282 30876,44338 30882,44394 30888,44450 30894,44506 30904,44560 30914,44614 30924,44668 30936,44724 30948,44779 30960,44835 30974,44891 30988,44947 31002,45003 31018,45057 31034,45111 31050,45165 31070,45219 31090,45272 31110,45326 31132,45378 31154,45430 31176,45482 31200,45532 31224,45582 31248,45632 31274,45682 31300,45731 31326,45781 31354,45831 31382,45881 31410,45931 31440,45977 31470,46023 31500,46069 31534,46115 31568,46161 31602,46207 31636,46250 31670,46294 31704,46338 31740,46382 31776,46426 31812,46470 31852,46510 31892,46550 31932,46590 31972,46630 32012,46670 32052,46710 32094,46745 32136,46781 32178,46817 Z M 32862,47278 C 34225,45236 35587,43195 36950,41153 36992,41191 37034,41229 37076,41266 37116,41304 37156,41342 37196,41380 37236,41422 37276,41464 37316,41506 37352,41548 37388,41590 37424,41632 37458,41676 37492,41720 37526,41763 37560,41809 37594,41855 37628,41901 37660,41949 37692,41997 37724,42045 37752,42093 37780,42141 37808,42189 37834,42238 37860,42288 37886,42338 37910,42390 37934,42442 37958,42494 37980,42544 38002,42594 38024,42644 38044,42698 38064,42751 38084,42805 38100,42859 38116,42913 38132,42967 38146,43021 38160,43075 38174,43129 38186,43185 38198,43240 38210,43296 38218,43352 38226,43408 38234,43464 38242,43518 38250,43572 38258,43626 38262,43684 38266,43741 38270,43799 38272,43855 38274,43911 38276,43967 38274,44023 38272,44079 38270,44135 38266,44191 38262,44246 38258,44302 38252,44358 38246,44414 38240,44470 38232,44526 38224,44582 38216,44638 38204,44692 38192,44745 38180,44799 38166,44857 38152,44915 38138,44973 38122,45027 38106,45081 38090,45135 38072,45187 38054,45238 38036,45290 38014,45342 37992,45394 37970,45446 37948,45498 37926,45550 37904,45602 37878,45652 37852,45702 37826,45751 37798,45801 37770,45851 37742,45901 37710,45947 37678,45993 37646,46039 37614,46085 37582,46131 37550,46177 37516,46223 37482,46268 37448,46314 37410,46356 37372,46398 37334,46440 37296,46482 37258,46524 37220,46566 37180,46606 37140,46646 37100,46686 37058,46724 37016,46761 36974,46799 36930,46833 36886,46867 36842,46901 36798,46935 36754,46969 36710,47003 36664,47035 36618,47067 36572,47099 36524,47129 36476,47159 36428,47189 36378,47215 36328,47240 36278,47266 36228,47292 36178,47318 36128,47344 36076,47366 36024,47388 35972,47410 35920,47430 35868,47450 35815,47470 35761,47488 35707,47506 35653,47524 35599,47540 35545,47556 35491,47572 35437,47584 35383,47596 35329,47608 35273,47618 35217,47628 35161,47638 35105,47646 35049,47654 34993,47662 34937,47668 34881,47674 34825,47680 34769,47682 34713,47684 34657,47686 34601,47686 34545,47686 34489,47686 34433,47684 34377,47682 34321,47680 34265,47676 34209,47672 34153,47668 34097,47660 34041,47652 33985,47644 33929,47634 33873,47624 33817,47614 33763,47602 33709,47590 33655,47578 33601,47562 33547,47546 33493,47530 33439,47512 33385,47494 33331,47476 33278,47456 33226,47436 33174,47416 33122,47394 33070,47372 33018,47350 32966,47326 32914,47302 32862,47278 Z M 30647,50973 C 30629,50973 30611,50973 30593,50973 30573,50969 30553,50965 30533,50961 30515,50957 30497,50953 30479,50949 30461,50943 30443,50937 30425,50931 31224,49735 32022,48540 32820,47344 32872,47370 32924,47396 32976,47422 33028,47446 33080,47470 33132,47494 33186,47514 33240,47534 33294,47554 33349,47572 33403,47590 33457,47608 33513,47624 33569,47640 33625,47656 33681,47668 33737,47680 33793,47692 33849,47702 33905,47712 33961,47722 34019,47729 34077,47737 34135,47745 34193,47751 34251,47757 34309,47763 34365,47765 34421,47767 34477,47769 34535,47769 34593,47769 34651,47769 34709,47767 34767,47765 34825,47763 34883,47757 34941,47751 34999,47745 35055,47737 35111,47729 35167,47722 35225,47712 35283,47702 35341,47692 35397,47678 35453,47664 35509,47650 35563,47636 35617,47622 35671,47608 35727,47588 35783,47568 35840,47548 35894,47528 35948,47508 36002,47488 36054,47466 36106,47444 36158,47422 36210,47396 36262,47370 36314,47344 36364,47316 36414,47288 36464,47260 36514,47230 36564,47201 36614,47171 36662,47139 36710,47107 36758,47075 36804,47041 36850,47007 36896,46973 36940,46935 36984,46897 37028,46859 37072,46821 37116,46783 37160,46745 37200,46706 37240,46666 37280,46626 37320,46584 37360,46542 37400,46500 37436,46456 37472,46412 37508,46368 37544,46322 37580,46276 37616,46231 37650,46183 37684,46135 37718,46087 37750,46039 37782,45991 37814,45943 37842,45893 37870,45843 37898,45793 37924,45741 37950,45690 37976,45638 38000,45586 38024,45534 38048,45482 38070,45428 38092,45374 38114,45320 38134,45266 38154,45213 38174,45159 38190,45103 38206,45047 38222,44991 38236,44933 38250,44875 38264,44817 38276,44761 38288,44706 38300,44650 38308,44592 38316,44534 38325,44476 38331,44420 38337,44364 38343,44308 38347,44250 38351,44193 38355,44135 38355,44077 38355,44019 38355,43961 38355,43903 38355,43845 38355,43787 38349,43730 38343,43672 38337,43614 38331,43558 38325,43502 38319,43446 38308,43388 38298,43330 38288,43272 38276,43217 38264,43161 38252,43105 38238,43049 38224,42993 38210,42937 38192,42883 38174,42829 38156,42775 38138,42722 38120,42668 38102,42614 38080,42560 38058,42506 38036,42452 38010,42400 37984,42348 37958,42296 37932,42244 37906,42193 37880,42141 37850,42091 37820,42041 37790,41991 37760,41943 37730,41895 37700,41847 37664,41801 37628,41755 37592,41710 37556,41664 37520,41618 37484,41572 37446,41528 37408,41484 37370,41440 37330,41398 37290,41356 37250,41314 37210,41274 37170,41235 37130,41195 37086,41157 37042,41119 36998,41081 37686,40053 38375,39025 39063,37997 39063,42129 39063,46260 39063,50392 39063,50410 39063,50428 39063,50446 39061,50466 39059,50486 39057,50506 39051,50524 39045,50542 39039,50560 39033,50578 39027,50596 39021,50614 39013,50632 39005,50650 38997,50668 38987,50684 38977,50700 38967,50716 38955,50729 38943,50743 38931,50757 38919,50773 38907,50789 38895,50805 38881,50817 38867,50829 38853,50841 38837,50853 38821,50865 38805,50877 38789,50887 38773,50897 38757,50907 38739,50915 38721,50923 38703,50931 38685,50937 38667,50943 38649,50949 38631,50953 38613,50957 38595,50961 38577,50965 38559,50969 38541,50973 38521,50973 38501,50973 38481,50973 35870,50973 33258,50973 30647,50973 Z"/>
     <path fill="none" stroke="rgb(255,255,255)" d="M 32178,46817 L 36266,40698 36116,40620 35960,40554 35797,40494 35641,40440 35479,40392 35311,40356 35143,40326 34981,40302 34813,40290 34639,40284 34471,40284 34303,40290 34135,40308 33967,40326 33799,40362 33637,40398 33475,40446 33312,40500 33156,40560 33000,40626 32850,40698 32700,40781 32556,40871 32418,40967 32280,41063 32154,41171 32028,41284 31908,41404 31794,41530 31680,41656 31578,41787 31482,41925 31392,42069 31308,42219 31230,42368 31158,42524 31098,42680 31038,42835 30990,42997 30954,43165 30918,43326 30888,43494 30870,43662 30864,43829 30858,43997 30864,44171 30876,44338 30894,44506 30924,44668 30960,44835 31002,45003 31050,45165 31110,45326 31176,45482 31248,45632 31326,45781 31410,45931 31500,46069 31602,46207 31704,46338 31812,46470 31932,46590 32052,46710 32178,46817 Z"/>
     <path fill="none" stroke="rgb(255,255,255)" d="M 32862,47278 L 36950,41153 37076,41266 37196,41380 37316,41506 37424,41632 37526,41763 37628,41901 37724,42045 37808,42189 37886,42338 37958,42494 38024,42644 38084,42805 38132,42967 38174,43129 38210,43296 38234,43464 38258,43626 38270,43799 38276,43967 38270,44135 38258,44302 38240,44470 38216,44638 38180,44799 38138,44973 38090,45135 38036,45290 37970,45446 37904,45602 37826,45751 37742,45901 37646,46039 37550,46177 37448,46314 37334,46440 37220,46566 37100,46686 36974,46799 36842,46901 36710,47003 36572,47099 36428,47189 36278,47266 36128,47344 35972,47410 35815,47470 35653,47524 35491,47572 35329,47608 35161,47638 34993,47662 34825,47680 34657,47686 34489,47686 34321,47680 34153,47668 33985,47644 33817,47614 33655,47578 33493,47530 33331,47476 33174,47416 33018,47350 32862,47278 Z"/>
     <path fill="none" stroke="rgb(255,255,255)" d="M 30647,50973 L 30593,50973 30533,50961 30479,50949 30425,50931 32820,47344 32976,47422 33132,47494 33294,47554 33457,47608 33625,47656 33793,47692 33961,47722 34135,47745 34309,47763 34477,47769 34651,47769 34825,47763 34999,47745 35167,47722 35341,47692 35509,47650 35671,47608 35840,47548 36002,47488 36158,47422 36314,47344 36464,47260 36614,47171 36758,47075 36896,46973 37028,46859 37160,46745 37280,46626 37400,46500 37508,46368 37616,46231 37718,46087 37814,45943 37898,45793 37976,45638 38048,45482 38114,45320 38174,45159 38222,44991 38264,44817 38300,44650 38325,44476 38343,44308 38355,44135 38355,43961 38355,43787 38337,43614 38319,43446 38288,43272 38252,43105 38210,42937 38156,42775 38102,42614 38036,42452 37958,42296 37880,42141 37790,41991 37700,41847 37592,41710 37484,41572 37370,41440 37250,41314 37130,41195 36998,41081 39063,37997 39063,50392 39063,50446 39057,50506 39039,50560 39021,50614 38997,50668 38967,50716 38931,50757 38895,50805 38853,50841 38805,50877 38757,50907 38703,50931 38649,50949 38595,50961 38541,50973 38481,50973 30647,50973 Z"/>
    </g>
   </g>
   <g class="com.sun.star.drawing.ClosedBezierShape">
    <g id="id6">
     <rect class="BoundingBox" stroke="none" fill="none" x="30064" y="36996" width="8647" height="12991"/>
     <path fill="rgb(255,255,255)" stroke="none" d="M 38709,37045 C 38691,37037 38673,37029 38655,37021 38637,37017 38619,37013 38601,37009 38581,37005 38561,37001 38541,36997 38521,36997 38501,36997 38481,36997 35870,36997 33258,36997 30647,36997 30629,36997 30611,36997 30593,36997 30573,37001 30553,37005 30533,37009 30515,37013 30497,37017 30479,37021 30461,37027 30443,37033 30425,37039 30409,37047 30393,37055 30377,37063 30361,37073 30345,37083 30329,37093 30313,37105 30297,37117 30281,37129 30267,37141 30253,37153 30239,37165 30225,37179 30211,37193 30197,37207 30187,37223 30177,37239 30167,37254 30157,37270 30147,37286 30137,37302 30129,37320 30121,37338 30113,37356 30107,37374 30101,37392 30095,37410 30089,37428 30083,37446 30077,37464 30075,37482 30073,37500 30071,37518 30069,37538 30067,37558 30065,37578 30065,41714 30065,45849 30065,49985 30753,48953 31442,47921 32130,46889 32088,46851 32046,46813 32004,46775 31962,46735 31920,46696 31878,46656 31838,46614 31798,46572 31758,46530 31720,46486 31682,46442 31644,46398 31608,46354 31572,46310 31536,46266 31502,46219 31468,46171 31434,46123 31404,46075 31374,46027 31344,45979 31314,45929 31284,45879 31254,45829 31228,45779 31202,45730 31176,45680 31150,45626 31124,45572 31098,45518 31076,45466 31054,45414 31032,45362 31014,45308 30996,45254 30978,45201 30960,45145 30942,45089 30924,45033 30908,44975 30892,44917 30876,44859 30866,44803 30856,44747 30846,44692 30836,44634 30826,44576 30815,44518 30807,44462 30799,44406 30791,44350 30787,44292 30783,44234 30779,44177 30777,44119 30775,44061 30773,44003 30775,43945 30777,43887 30779,43829 30783,43771 30787,43714 30791,43656 30797,43600 30803,43544 30809,43488 30818,43430 30826,43372 30834,43314 30846,43258 30858,43203 30870,43147 30884,43091 30898,43035 30912,42979 30928,42923 30944,42867 30960,42811 30980,42757 31000,42704 31020,42650 31040,42596 31060,42542 31080,42488 31104,42436 31128,42384 31152,42332 31180,42280 31208,42229 31236,42177 31264,42127 31292,42077 31320,42027 31350,41979 31380,41931 31410,41883 31444,41835 31478,41787 31512,41740 31548,41694 31584,41648 31620,41602 31656,41558 31692,41514 31728,41470 31768,41428 31808,41386 31848,41344 31888,41304 31928,41264 31968,41225 32012,41187 32056,41149 32100,41111 32144,41073 32188,41035 32232,40997 32278,40963 32324,40929 32370,40895 32418,40863 32466,40831 32514,40799 32564,40769 32614,40740 32664,40710 32714,40682 32764,40654 32814,40626 32866,40600 32918,40574 32970,40548 33022,40526 33074,40504 33126,40482 33180,40460 33234,40438 33288,40416 33345,40398 33401,40380 33457,40362 33511,40346 33565,40330 33619,40314 33675,40302 33731,40290 33787,40278 33845,40268 33903,40258 33961,40248 34017,40241 34073,40233 34129,40225 34187,40219 34245,40213 34303,40207 34361,40205 34419,40203 34477,40201 34535,40201 34593,40201 34651,40201 34709,40203 34767,40205 34825,40207 34881,40213 34937,40219 34993,40225 35051,40233 35109,40241 35167,40248 35223,40258 35279,40268 35335,40278 35391,40290 35447,40302 35503,40314 35559,40330 35615,40346 35671,40362 35725,40380 35779,40398 35834,40416 35888,40438 35942,40460 35996,40482 36050,40504 36104,40526 36158,40548 36210,40574 36262,40600 36314,40626 37112,39432 37910,38239 38709,37045 Z"/>
     <path fill="none" stroke="rgb(255,255,255)" d="M 38709,37045 L 38655,37021 38601,37009 38541,36997 38481,36997 30647,36997 30593,36997 30533,37009 30479,37021 30425,37039 30377,37063 30329,37093 30281,37129 30239,37165 30197,37207 30167,37254 30137,37302 30113,37356 30095,37410 30077,37464 30071,37518 30065,37578 30065,49985 32130,46889 32004,46775 31878,46656 31758,46530 31644,46398 31536,46266 31434,46123 31344,45979 31254,45829 31176,45680 31098,45518 31032,45362 30978,45201 30924,45033 30876,44859 30846,44692 30815,44518 30791,44350 30779,44177 30773,44003 30779,43829 30791,43656 30809,43488 30834,43314 30870,43147 30912,42979 30960,42811 31020,42650 31080,42488 31152,42332 31236,42177 31320,42027 31410,41883 31512,41740 31620,41602 31728,41470 31848,41344 31968,41225 32100,41111 32232,40997 32370,40895 32514,40799 32664,40710 32814,40626 32970,40548 33126,40482 33288,40416 33457,40362 33619,40314 33787,40278 33961,40248 34129,40225 34303,40207 34477,40201 34651,40201 34825,40207 34993,40225 35167,40248 35335,40278 35503,40314 35671,40362 35834,40416 35996,40482 36158,40548 36314,40626 38709,37045 Z"/>
    </g>
   </g>
   <g class="com.sun.star.drawing.ClosedBezierShape">
    <g id="id7">
     <rect class="BoundingBox" stroke="none" fill="none" x="36139" y="37828" width="927" height="1506"/>
     <path fill="rgb(180,180,180)" stroke="none" d="M 36140,39332 C 36448,39332 36756,39332 37064,39332 37064,39248 37064,39165 37064,39081 36848,39081 36632,39081 36416,39081 36416,38947 36416,38813 36416,38680 36560,38680 36704,38680 36848,38680 36848,38598 36848,38516 36848,38434 36704,38434 36560,38434 36416,38434 36416,38316 36416,38199 36416,38081 36632,38081 36848,38081 37064,38081 37064,37997 37064,37913 37064,37829 36756,37829 36448,37829 36140,37829 36140,38330 36140,38831 36140,39332 Z"/>
     <path fill="none" stroke="rgb(180,180,180)" d="M 36140,39332 L 37064,39332 37064,39081 36416,39081 36416,38680 36848,38680 36848,38434 36416,38434 36416,38081 37064,38081 37064,37829 36140,37829 36140,39332 Z"/>
    </g>
   </g>
   <g class="com.sun.star.drawing.ClosedBezierShape">
    <g id="id8">
     <rect class="BoundingBox" stroke="none" fill="none" x="33378" y="37798" width="1035" height="1566"/>
     <path fill="rgb(180,180,180)" stroke="none" d="M 33655,38290 C 33655,38484 33655,38678 33655,38871 33655,38887 33655,38903 33655,38919 33661,38933 33667,38947 33673,38961 33679,38975 33685,38989 33691,39003 33701,39015 33711,39027 33721,39039 33733,39049 33745,39059 33757,39069 33771,39077 33785,39085 33799,39093 33815,39097 33831,39101 33847,39105 33863,39107 33879,39109 33895,39111 33909,39109 33923,39107 33937,39105 33953,39101 33969,39097 33985,39093 33999,39085 34013,39077 34027,39069 34039,39059 34051,39049 34063,39039 34073,39027 34083,39015 34093,39003 34099,38989 34105,38975 34111,38961 34117,38947 34123,38933 34129,38919 34129,38903 34129,38887 34129,38871 34129,38678 34129,38484 34129,38290 34129,38274 34129,38258 34129,38243 34123,38227 34117,38211 34111,38195 34105,38181 34099,38167 34093,38153 34083,38141 34073,38129 34063,38117 34051,38107 34039,38097 34027,38087 34013,38079 33999,38071 33985,38063 33969,38059 33953,38055 33937,38051 33923,38049 33909,38047 33895,38045 33879,38047 33863,38049 33847,38051 33831,38055 33815,38059 33799,38063 33785,38071 33771,38079 33757,38087 33745,38097 33733,38107 33721,38117 33711,38129 33701,38141 33691,38153 33685,38167 33679,38181 33673,38195 33667,38211 33661,38227 33655,38243 33655,38258 33655,38274 33655,38290 Z M 33379,38314 C 33379,38492 33379,38670 33379,38847 33379,38863 33379,38879 33379,38895 33383,38913 33387,38931 33391,38949 33395,38965 33399,38981 33403,38997 33407,39013 33411,39029 33415,39045 33423,39059 33431,39073 33439,39087 33447,39103 33455,39119 33463,39135 33473,39147 33483,39159 33493,39171 33505,39185 33517,39199 33529,39213 33541,39223 33553,39233 33565,39243 33579,39252 33593,39262 33607,39272 33621,39282 33635,39292 33649,39302 33665,39308 33681,39314 33697,39320 33713,39326 33729,39332 33745,39338 33761,39342 33777,39346 33793,39350 33809,39352 33825,39354 33841,39356 33859,39358 33877,39360 33895,39362 33911,39360 33927,39358 33943,39356 33959,39354 33975,39352 33991,39350 34007,39346 34023,39342 34039,39338 34055,39332 34071,39326 34087,39320 34103,39314 34119,39308 34135,39302 34149,39292 34163,39282 34177,39272 34191,39262 34205,39252 34219,39243 34231,39233 34243,39223 34255,39213 34269,39199 34283,39185 34297,39171 34307,39159 34317,39147 34327,39135 34335,39119 34343,39103 34351,39087 34359,39073 34367,39059 34375,39045 34379,39029 34383,39013 34387,38997 34391,38981 34395,38965 34399,38949 34403,38931 34407,38913 34411,38895 34411,38879 34411,38863 34411,38847 34411,38670 34411,38492 34411,38314 34411,38298 34411,38282 34411,38266 34407,38248 34403,38231 34399,38213 34395,38195 34391,38177 34387,38159 34383,38145 34379,38131 34375,38117 34367,38101 34359,38085 34351,38069 34343,38055 34335,38041 34327,38027 34317,38013 34307,37999 34297,37985 34283,37973 34269,37961 34255,37949 34243,37937 34231,37925 34219,37913 34205,37903 34191,37893 34177,37883 34163,37875 34149,37867 34135,37859 34119,37851 34103,37843 34087,37835 34071,37829 34055,37823 34039,37817 34023,37813 34007,37809 33991,37805 33975,37803 33959,37801 33943,37799 33927,37799 33911,37799 33895,37799 33877,37799 33859,37799 33841,37799 33825,37801 33809,37803 33793,37805 33777,37809 33761,37813 33745,37817 33729,37823 33713,37829 33697,37835 33681,37843 33665,37851 33649,37859 33635,37867 33621,37875 33607,37883 33593,37893 33579,37903 33565,37913 33553,37925 33541,37937 33529,37949 33517,37961 33505,37973 33493,37985 33483,37999 33473,38013 33463,38027 33455,38041 33447,38055 33439,38069 33431,38085 33423,38101 33415,38117 33411,38131 33407,38145 33403,38159 33399,38177 33395,38195 33391,38213 33387,38231 33383,38248 33379,38266 33379,38282 33379,38298 33379,38314 Z"/>
     <path fill="none" stroke="rgb(180,180,180)" d="M 33655,38290 L 33655,38871 33655,38919 33673,38961 33691,39003 33721,39039 33757,39069 33799,39093 33847,39105 33895,39111 33937,39105 33985,39093 34027,39069 34063,39039 34093,39003 34111,38961 34129,38919 34129,38871 34129,38290 34129,38243 34111,38195 34093,38153 34063,38117 34027,38087 33985,38063 33937,38051 33895,38045 33847,38051 33799,38063 33757,38087 33721,38117 33691,38153 33673,38195 33655,38243 33655,38290 Z"/>
     <path fill="none" stroke="rgb(180,180,180)" d="M 33379,38314 L 33379,38847 33379,38895 33391,38949 33403,38997 33415,39045 33439,39087 33463,39135 33493,39171 33529,39213 33565,39243 33607,39272 33649,39302 33697,39320 33745,39338 33793,39350 33841,39356 33895,39362 33943,39356 33991,39350 34039,39338 34087,39320 34135,39302 34177,39272 34219,39243 34255,39213 34297,39171 34327,39135 34351,39087 34375,39045 34387,38997 34399,38949 34411,38895 34411,38847 34411,38314 34411,38266 34399,38213 34387,38159 34375,38117 34351,38069 34327,38027 34297,37985 34255,37949 34219,37913 34177,37883 34135,37859 34087,37835 34039,37817 33991,37805 33943,37799 33895,37799 33841,37799 33793,37805 33745,37817 33697,37835 33649,37859 33607,37883 33565,37913 33529,37949 33493,37985 33463,38027 33439,38069 33415,38117 33403,38159 33391,38213 33379,38266 33379,38314 Z"/>
    </g>
   </g>
   <g class="com.sun.star.drawing.ClosedBezierShape">
    <g id="id9">
     <rect class="BoundingBox" stroke="none" fill="none" x="32063" y="37828" width="1035" height="1506"/>
     <path fill="rgb(180,180,180)" stroke="none" d="M 32064,39332 C 32408,39332 32752,39332 33096,39332 33096,39248 33096,39165 33096,39081 32860,39081 32624,39081 32388,39081 32614,38747 32840,38414 33066,38081 33066,37997 33066,37913 33066,37829 32742,37829 32418,37829 32094,37829 32094,37913 32094,37997 32094,38081 32314,38081 32534,38081 32754,38081 32524,38414 32294,38747 32064,39081 32064,39165 32064,39248 32064,39332 Z"/>
     <path fill="none" stroke="rgb(180,180,180)" d="M 32064,39332 L 33096,39332 33096,39081 32388,39081 33066,38081 33066,37829 32094,37829 32094,38081 32754,38081 32064,39081 32064,39332 Z"/>
    </g>
   </g>
   <g class="com.sun.star.drawing.ClosedBezierShape">
    <g id="id10">
     <rect class="BoundingBox" stroke="none" fill="none" x="34734" y="37828" width="1035" height="1506"/>
     <path fill="rgb(180,180,180)" stroke="none" d="M 34735,39332 C 34819,39332 34903,39332 34987,39332 34987,39001 34987,38670 34987,38338 35141,38670 35295,39001 35449,39332 35555,39332 35661,39332 35767,39332 35767,38831 35767,38330 35767,37829 35685,37829 35603,37829 35521,37829 35521,38163 35521,38496 35521,38829 35365,38496 35209,38163 35053,37829 34947,37829 34841,37829 34735,37829 34735,38330 34735,38831 34735,39332 Z"/>
     <path fill="none" stroke="rgb(180,180,180)" d="M 34735,39332 L 34987,39332 34987,38338 35449,39332 35767,39332 35767,37829 35521,37829 35521,38829 35053,37829 34735,37829 34735,39332 Z"/>
    </g>
   </g>
   <g class="com.sun.star.drawing.ClosedBezierShape">
    <g id="id11">
     <rect class="BoundingBox" stroke="none" fill="none" x="34794" y="42134" width="2434" height="3649"/>
     <path fill="rgb(180,180,180)" stroke="none" d="M 35924,42698 C 35944,42696 35964,42694 35984,42692 36004,42692 36024,42692 36044,42692 36064,42694 36084,42696 36104,42698 36124,42702 36144,42706 36164,42710 36184,42718 36204,42726 36224,42734 36242,42741 36260,42749 36278,42757 36296,42767 36314,42777 36332,42787 36348,42799 36364,42811 36380,42823 36394,42837 36408,42851 36422,42865 36436,42881 36450,42897 36464,42913 36474,42931 36484,42949 36494,42967 36504,42985 36514,43003 36524,43021 36532,43039 36540,43057 36548,43075 36554,43095 36560,43115 36566,43135 36568,43155 36570,43175 36572,43195 36574,43215 36576,43235 36578,43254 36578,43712 36578,44169 36578,44626 36576,44644 36574,44662 36572,44680 36570,44698 36568,44716 36566,44734 36562,44751 36558,44769 36554,44787 36548,44805 36542,44823 36536,44841 36528,44857 36520,44873 36512,44889 36502,44905 36492,44921 36482,44937 36470,44951 36458,44965 36446,44979 36434,44993 36422,45007 36410,45021 36396,45033 36382,45045 36368,45057 36354,45069 36340,45081 36326,45093 36310,45105 36294,45117 36278,45129 36262,45137 36246,45145 36230,45153 36212,45159 36194,45165 36176,45171 36158,45175 36140,45179 36122,45183 36104,45185 36086,45187 36068,45189 36050,45191 36032,45193 36014,45195 35994,45193 35974,45191 35954,45189 35936,45187 35918,45185 35900,45183 35882,45179 35864,45175 35846,45171 35830,45165 35813,45159 35797,45153 35779,45145 35761,45137 35743,45129 35727,45117 35711,45105 35695,45093 35681,45081 35667,45069 35653,45057 35639,45045 35625,45033 35611,45021 35599,45007 35587,44993 35575,44979 35563,44965 35551,44951 35539,44937 35531,44921 35523,44905 35515,44889 35507,44873 35499,44857 35491,44841 35485,44823 35479,44805 35473,44787 35469,44769 35465,44751 35461,44734 35457,44716 35453,44698 35449,44680 35449,44662 35449,44644 35449,44626 35449,44221 35449,43815 35449,43410 35231,43734 35013,44057 34795,44380 34795,44442 34795,44504 34795,44566 34797,44606 34799,44646 34801,44686 34807,44724 34813,44761 34819,44799 34827,44839 34835,44879 34843,44919 34857,44955 34871,44991 34885,45027 34903,45065 34921,45103 34939,45141 34959,45175 34979,45209 34999,45242 35023,45274 35047,45306 35071,45338 35097,45368 35123,45398 35149,45428 35181,45454 35213,45480 35245,45506 35277,45530 35309,45554 35341,45578 35373,45598 35405,45618 35437,45638 35473,45656 35509,45674 35545,45692 35583,45704 35621,45716 35659,45728 35697,45737 35735,45747 35773,45757 35813,45763 35854,45769 35894,45775 35934,45777 35974,45779 36014,45781 36054,45779 36094,45777 36134,45775 36172,45769 36210,45763 36248,45757 36286,45747 36324,45737 36362,45728 36400,45716 36438,45704 36476,45692 36512,45674 36548,45656 36584,45638 36618,45618 36652,45598 36686,45578 36718,45554 36750,45530 36782,45506 36812,45480 36842,45454 36872,45428 36898,45398 36924,45368 36950,45338 36974,45306 36998,45274 37022,45242 37042,45209 37062,45175 37082,45141 37098,45103 37114,45065 37130,45027 37144,44991 37158,44955 37172,44919 37182,44879 37192,44839 37202,44799 37208,44761 37214,44724 37220,44686 37222,44646 37224,44606 37226,44566 37226,44149 37226,43732 37226,43314 37224,43280 37222,43246 37220,43213 37216,43179 37212,43145 37208,43111 37200,43079 37192,43047 37184,43015 37176,42983 37168,42951 37160,42919 37148,42887 37136,42855 37124,42823 37108,42793 37092,42763 37076,42734 37058,42706 37040,42678 37022,42650 37004,42622 36986,42594 36968,42566 36946,42540 36924,42514 36902,42488 36878,42464 36854,42440 36830,42416 36804,42394 36778,42372 36752,42350 36724,42332 36696,42314 36668,42296 36640,42278 36612,42260 36584,42242 36552,42229 36520,42215 36488,42201 36458,42189 36428,42177 36398,42165 36366,42155 36334,42145 36302,42135 36176,42322 36050,42510 35924,42698 Z"/>
     <path fill="none" stroke="rgb(180,180,180)" d="M 35924,42698 L 35984,42692 36044,42692 36104,42698 36164,42710 36224,42734 36278,42757 36332,42787 36380,42823 36422,42865 36464,42913 36494,42967 36524,43021 36548,43075 36566,43135 36572,43195 36578,43254 36578,44626 36572,44680 36566,44734 36554,44787 36536,44841 36512,44889 36482,44937 36446,44979 36410,45021 36368,45057 36326,45093 36278,45129 36230,45153 36176,45171 36122,45183 36068,45189 36014,45195 35954,45189 35900,45183 35846,45171 35797,45153 35743,45129 35695,45093 35653,45057 35611,45021 35575,44979 35539,44937 35515,44889 35491,44841 35473,44787 35461,44734 35449,44680 35449,44626 35449,43410 34795,44380 34795,44566 34801,44686 34819,44799 34843,44919 34885,45027 34939,45141 34999,45242 35071,45338 35149,45428 35245,45506 35341,45578 35437,45638 35545,45692 35659,45728 35773,45757 35894,45775 36014,45781 36134,45775 36248,45757 36362,45728 36476,45692 36584,45638 36686,45578 36782,45506 36872,45428 36950,45338 37022,45242 37082,45141 37130,45027 37172,44919 37202,44799 37220,44686 37226,44566 37226,43314 37220,43213 37208,43111 37184,43015 37160,42919 37124,42823 37076,42734 37022,42650 36968,42566 36902,42488 36830,42416 36752,42350 36668,42296 36584,42242 36488,42201 36398,42165 36302,42135 35924,42698 Z"/>
    </g>
   </g>
   <g class="com.sun.star.drawing.ClosedBezierShape">
    <g id="id12">
     <rect class="BoundingBox" stroke="none" fill="none" x="31997" y="42074" width="2296" height="2470"/>
     <path fill="rgb(180,180,180)" stroke="none" d="M 33709,44542 C 33705,44528 33701,44514 33697,44500 33695,44488 33693,44476 33691,44464 33685,44452 33679,44440 33673,44428 33667,44416 33661,44404 33655,44392 33649,44382 33643,44372 33637,44362 33629,44350 33621,44338 33613,44326 33605,44316 33597,44306 33589,44296 33579,44288 33569,44280 33559,44272 33549,44264 33539,44256 33529,44248 33517,44240 33505,44233 33493,44225 33483,44219 33473,44213 33463,44207 33449,44203 33435,44199 33421,44195 33407,44191 33393,44187 33379,44183 33367,44179 33355,44175 33343,44171 33331,44171 33319,44171 33306,44171 33292,44169 33278,44167 33264,44165 33134,44165 33004,44165 32874,44165 32874,43969 32874,43773 32874,43578 32982,43578 33090,43578 33198,43578 33212,43578 33226,43578 33240,43578 33254,43576 33268,43574 33282,43572 33296,43568 33310,43564 33325,43560 33339,43554 33353,43548 33367,43542 33381,43536 33395,43530 33409,43524 33423,43518 33437,43512 33451,43506 33463,43496 33475,43486 33487,43476 33497,43466 33507,43456 33517,43446 33527,43436 33537,43426 33547,43416 33555,43404 33563,43392 33571,43380 33579,43368 33587,43356 33595,43344 33601,43332 33607,43320 33613,43308 33617,43294 33621,43280 33625,43266 33629,43252 33633,43238 33637,43225 33639,43209 33641,43193 33643,43177 33643,43163 33643,43149 33643,43135 33643,43119 33643,43103 33643,43087 33641,43073 33639,43059 33637,43045 33633,43029 33629,43013 33625,42997 33621,42983 33617,42969 33613,42955 33605,42941 33597,42927 33589,42913 33583,42899 33577,42885 33571,42871 33561,42857 33551,42843 33541,42829 33531,42819 33521,42809 33511,42799 33501,42787 33491,42775 33481,42763 33469,42753 33457,42743 33445,42734 33429,42726 33413,42718 33397,42710 33383,42702 33369,42694 33355,42686 33341,42680 33327,42674 33312,42668 33296,42664 33280,42660 33264,42656 33250,42652 33236,42648 33222,42644 33206,42642 33190,42640 33174,42638 33158,42638 33142,42638 33126,42638 33110,42640 33094,42642 33078,42644 33064,42646 33050,42648 33036,42650 33020,42654 33004,42658 32988,42662 32974,42668 32960,42674 32946,42680 32932,42686 32918,42692 32904,42698 32890,42706 32876,42714 32862,42722 32850,42732 32838,42741 32826,42751 32814,42761 32802,42771 32790,42781 32780,42793 32770,42805 32760,42817 32750,42829 32740,42841 32730,42853 32722,42867 32714,42881 32706,42895 32700,42909 32694,42923 32688,42937 32682,42951 32676,42965 32670,42979 32666,42995 32662,43011 32658,43027 32654,43041 32650,43055 32646,43069 32430,43069 32214,43069 31998,43069 32000,43043 32002,43017 32004,42991 32006,42967 32008,42943 32010,42919 32016,42893 32022,42867 32028,42841 32034,42817 32040,42793 32046,42769 32056,42745 32066,42722 32076,42698 32088,42674 32100,42650 32112,42626 32124,42602 32136,42578 32148,42554 32162,42532 32176,42510 32190,42488 32206,42468 32222,42448 32238,42428 32256,42410 32274,42392 32292,42374 32312,42356 32332,42338 32352,42320 32372,42304 32392,42288 32412,42272 32434,42260 32456,42248 32478,42237 32500,42225 32522,42213 32544,42201 32568,42189 32592,42177 32616,42165 32640,42157 32664,42149 32688,42141 32726,42131 32764,42121 32802,42111 32838,42105 32874,42099 32910,42093 32948,42089 32986,42085 33024,42081 33064,42079 33104,42077 33144,42075 33182,42077 33220,42079 33258,42081 33296,42085 33335,42089 33373,42093 33413,42099 33453,42105 33493,42111 33529,42121 33565,42131 33601,42141 33623,42149 33645,42157 33667,42165 33689,42173 33711,42181 33733,42189 33753,42199 33773,42209 33793,42219 33813,42231 33833,42242 33853,42254 33871,42268 33889,42282 33907,42296 33925,42310 33943,42324 33961,42338 33977,42354 33993,42370 34009,42386 34025,42402 34041,42418 34057,42434 34071,42452 34085,42470 34099,42488 34113,42508 34127,42528 34141,42548 34151,42570 34161,42592 34171,42614 34183,42634 34195,42654 34207,42674 34215,42694 34223,42714 34231,42734 34237,42755 34243,42777 34249,42799 34255,42821 34261,42843 34267,42865 34271,42889 34275,42913 34279,42937 34281,42959 34283,42981 34285,43003 34287,43025 34289,43047 34291,43069 34289,43093 34287,43117 34285,43141 34283,43163 34281,43185 34279,43207 34275,43229 34271,43250 34267,43272 34261,43296 34255,43320 34249,43344 34243,43364 34237,43384 34231,43404 34221,43426 34211,43448 34201,43470 34191,43490 34181,43510 34171,43530 34159,43550 34147,43570 34135,43590 34123,43608 34111,43626 34099,43644 34085,43662 34071,43680 34057,43698 34041,43716 34025,43734 34009,43751 33993,43767 33977,43783 33961,43799 33943,43813 33925,43827 33907,43841 33887,43853 33867,43865 33847,43877 33865,43889 33883,43901 33901,43913 33919,43925 33937,43937 33955,43949 33971,43961 33987,43973 34003,43985 34019,43999 34035,44013 34051,44027 33937,44199 33823,44370 33709,44542 Z"/>
     <path fill="none" stroke="rgb(180,180,180)" d="M 33709,44542 L 33697,44500 33691,44464 33673,44428 33655,44392 33637,44362 33613,44326 33589,44296 33559,44272 33529,44248 33493,44225 33463,44207 33421,44195 33379,44183 33343,44171 33306,44171 33264,44165 32874,44165 32874,43578 33198,43578 33240,43578 33282,43572 33325,43560 33367,43542 33409,43524 33451,43506 33487,43476 33517,43446 33547,43416 33571,43380 33595,43344 33613,43308 33625,43266 33637,43225 33643,43177 33643,43135 33643,43087 33637,43045 33625,42997 33613,42955 33589,42913 33571,42871 33541,42829 33511,42799 33481,42763 33445,42734 33397,42710 33355,42686 33312,42668 33264,42656 33222,42644 33174,42638 33126,42638 33078,42644 33036,42650 32988,42662 32946,42680 32904,42698 32862,42722 32826,42751 32790,42781 32760,42817 32730,42853 32706,42895 32688,42937 32670,42979 32658,43027 32646,43069 31998,43069 32004,42991 32010,42919 32028,42841 32046,42769 32076,42698 32112,42626 32148,42554 32190,42488 32238,42428 32292,42374 32352,42320 32412,42272 32478,42237 32544,42201 32616,42165 32688,42141 32802,42111 32910,42093 33024,42081 33144,42075 33258,42081 33373,42093 33493,42111 33601,42141 33667,42165 33733,42189 33793,42219 33853,42254 33907,42296 33961,42338 34009,42386 34057,42434 34099,42488 34141,42548 34171,42614 34207,42674 34231,42734 34249,42799 34267,42865 34279,42937 34285,43003 34291,43069 34285,43141 34279,43207 34267,43272 34249,43344 34231,43404 34201,43470 34171,43530 34135,43590 34099,43644 34057,43698 34009,43751 33961,43799 33907,43841 33847,43877 33901,43913 33955,43949 34003,43985 34051,44027 33709,44542 Z"/>
    </g>
   </g>
   <g class="com.sun.star.drawing.ClosedBezierShape">
    <g id="id13">
     <rect class="BoundingBox" stroke="none" fill="none" x="31931" y="44738" width="1371" height="1027"/>
     <path fill="rgb(180,180,180)" stroke="none" d="M 32892,45763 C 32866,45757 32840,45751 32814,45745 32788,45739 32762,45733 32736,45728 32710,45720 32684,45712 32658,45704 32632,45696 32606,45688 32580,45680 32556,45670 32532,45660 32508,45650 32486,45640 32464,45630 32442,45620 32420,45606 32398,45592 32376,45578 32356,45564 32336,45550 32316,45536 32296,45520 32276,45504 32256,45488 32238,45470 32220,45452 32202,45434 32186,45414 32170,45394 32154,45374 32138,45354 32122,45334 32106,45314 32094,45294 32082,45274 32070,45254 32058,45231 32046,45207 32034,45183 32022,45159 32010,45135 31998,45111 31990,45087 31982,45063 31974,45039 31968,45015 31962,44991 31956,44967 31950,44943 31944,44919 31938,44895 31936,44869 31934,44843 31932,44817 31932,44791 31932,44765 31932,44739 32152,44739 32372,44739 32592,44739 32598,44757 32604,44775 32610,44793 32620,44809 32630,44825 32640,44841 32648,44859 32656,44877 32664,44895 32674,44909 32684,44923 32694,44937 32706,44953 32718,44969 32730,44985 32744,44997 32758,45009 32772,45021 32788,45033 32804,45045 32820,45057 32834,45067 32848,45077 32862,45087 32880,45097 32898,45107 32916,45117 32932,45125 32948,45133 32964,45141 32982,45147 33000,45153 33018,45159 33038,45161 33058,45163 33078,45165 33096,45167 33114,45169 33132,45171 33150,45171 33168,45171 33186,45171 33206,45169 33226,45167 33246,45165 33264,45161 33282,45157 33300,45153 33164,45356 33028,45560 32892,45763 Z"/>
     <path fill="none" stroke="rgb(180,180,180)" d="M 32892,45763 L 32814,45745 32736,45728 32658,45704 32580,45680 32508,45650 32442,45620 32376,45578 32316,45536 32256,45488 32202,45434 32154,45374 32106,45314 32070,45254 32034,45183 31998,45111 31974,45039 31956,44967 31938,44895 31932,44817 31932,44739 32592,44739 32610,44793 32640,44841 32664,44895 32694,44937 32730,44985 32772,45021 32820,45057 32862,45087 32916,45117 32964,45141 33018,45159 33078,45165 33132,45171 33186,45171 33246,45165 33300,45153 32892,45763 Z"/>
    </g>
   </g>
   <g class="com.sun.star.drawing.ClosedBezierShape">
    <g id="id14">
     <rect class="BoundingBox" stroke="none" fill="none" x="31931" y="44738" width="1371" height="1027"/>
     <path fill="rgb(180,180,180)" stroke="none" d="M 32892,45763 C 32866,45757 32840,45751 32814,45745 32788,45739 32762,45733 32736,45728 32710,45720 32684,45712 32658,45704 32632,45696 32606,45688 32580,45680 32556,45670 32532,45660 32508,45650 32486,45640 32464,45630 32442,45620 32420,45606 32398,45592 32376,45578 32356,45564 32336,45550 32316,45536 32296,45520 32276,45504 32256,45488 32238,45470 32220,45452 32202,45434 32186,45414 32170,45394 32154,45374 32138,45354 32122,45334 32106,45314 32094,45294 32082,45274 32070,45254 32058,45231 32046,45207 32034,45183 32022,45159 32010,45135 31998,45111 31990,45087 31982,45063 31974,45039 31968,45015 31962,44991 31956,44967 31950,44943 31944,44919 31938,44895 31936,44869 31934,44843 31932,44817 31932,44791 31932,44765 31932,44739 32152,44739 32372,44739 32592,44739 32598,44757 32604,44775 32610,44793 32620,44809 32630,44825 32640,44841 32648,44859 32656,44877 32664,44895 32674,44909 32684,44923 32694,44937 32706,44953 32718,44969 32730,44985 32744,44997 32758,45009 32772,45021 32788,45033 32804,45045 32820,45057 32834,45067 32848,45077 32862,45087 32880,45097 32898,45107 32916,45117 32932,45125 32948,45133 32964,45141 32982,45147 33000,45153 33018,45159 33038,45161 33058,45163 33078,45165 33096,45167 33114,45169 33132,45171 33150,45171 33168,45171 33186,45171 33206,45169 33226,45167 33246,45165 33264,45161 33282,45157 33300,45153 33164,45356 33028,45560 32892,45763 Z"/>
     <path fill="none" stroke="rgb(180,180,180)" d="M 32892,45763 L 32814,45745 32736,45728 32658,45704 32580,45680 32508,45650 32442,45620 32376,45578 32316,45536 32256,45488 32202,45434 32154,45374 32106,45314 32070,45254 32034,45183 31998,45111 31974,45039 31956,44967 31938,44895 31932,44817 31932,44739 32592,44739 32610,44793 32640,44841 32664,44895 32694,44937 32730,44985 32772,45021 32820,45057 32862,45087 32916,45117 32964,45141 33018,45159 33078,45165 33132,45171 33186,45171 33246,45165 33300,45153 32892,45763 Z"/>
    </g>
   </g>
  </g>
 </g>
</svg>