<?xml version="1.0" encoding="UTF-8"?>
<!DOCTYPE svg PUBLIC "-//W3C//DTD SVG 1.1//EN" "http://www.w3.org/Graphics/SVG/1.1/DTD/svg11.dtd">
<svg version="1.2" width="17.31mm" height="25.03mm" viewBox="31735 36499 1731 2503" preserveAspectRatio="xMidYMid" fill-rule="evenodd" stroke-width="28.222" stroke-linejoin="round" xmlns="http://www.w3.org/2000/svg" xmlns:ooo="http://xml.openoffice.org/svg/export" xmlns:xlink="http://www.w3.org/1999/xlink" xmlns:presentation="http://sun.com/xmlns/staroffice/presentation" xmlns:smil="http://www.w3.org/2001/SMIL20/" xmlns:anim="urn:oasis:names:tc:opendocument:xmlns:animation:1.0" xml:space="preserve">
 <defs class="EmbeddedBulletChars">
  <g id="bullet-char-template-57356" transform="scale(0.00048828125,-0.00048828125)">
   <path d="M 580,1141 L 1163,571 580,0 -4,571 580,1141 Z"/>
  </g>
  <g id="bullet-char-template-57354" transform="scale(0.00048828125,-0.00048828125)">
   <path d="M 8,1128 L 1137,1128 1137,0 8,0 8,1128 Z"/>
  </g>
  <g id="bullet-char-template-10146" transform="scale(0.00048828125,-0.00048828125)">
   <path d="M 174,0 L 602,739 174,1481 1456,739 174,0 Z M 1358,739 L 309,1346 659,739 1358,739 Z"/>
  </g>
  <g id="bullet-char-template-10132" transform="scale(0.00048828125,-0.00048828125)">
   <path d="M 2015,739 L 1276,0 717,0 1260,543 174,543 174,936 1260,936 717,1481 1274,1481 2015,739 Z"/>
  </g>
  <g id="bullet-char-template-10007" transform="scale(0.00048828125,-0.00048828125)">
   <path d="M 0,-2 C -7,14 -16,27 -25,37 L 356,567 C 262,823 215,952 215,954 215,979 228,992 255,992 264,992 276,990 289,987 310,991 331,999 354,1012 L 381,999 492,748 772,1049 836,1024 860,1049 C 881,1039 901,1025 922,1006 886,937 835,863 770,784 769,783 710,716 594,584 L 774,223 C 774,196 753,168 711,139 L 727,119 C 717,90 699,76 672,76 641,76 570,178 457,381 L 164,-76 C 142,-110 111,-127 72,-127 30,-127 9,-110 8,-76 1,-67 -2,-52 -2,-32 -2,-23 -1,-13 0,-2 Z"/>
  </g>
  <g id="bullet-char-template-10004" transform="scale(0.00048828125,-0.00048828125)">
   <path d="M 285,-33 C 182,-33 111,30 74,156 52,228 41,333 41,471 41,549 55,616 82,672 116,743 169,778 240,778 293,778 328,747 346,684 L 369,508 C 377,444 397,411 428,410 L 1163,1116 C 1174,1127 1196,1133 1229,1133 1271,1133 1292,1118 1292,1087 L 1292,965 C 1292,929 1282,901 1262,881 L 442,47 C 390,-6 338,-33 285,-33 Z"/>
  </g>
  <g id="bullet-char-template-9679" transform="scale(0.00048828125,-0.00048828125)">
   <path d="M 813,0 C 632,0 489,54 383,161 276,268 223,411 223,592 223,773 276,916 383,1023 489,1130 632,1184 813,1184 992,1184 1136,1130 1245,1023 1353,916 1407,772 1407,592 1407,412 1353,268 1245,161 1136,54 992,0 813,0 Z"/>
  </g>
  <g id="bullet-char-template-8226" transform="scale(0.00048828125,-0.00048828125)">
   <path d="M 346,457 C 273,457 209,483 155,535 101,586 74,649 74,723 74,796 101,859 155,911 209,963 273,989 346,989 419,989 480,963 531,910 582,859 608,796 608,723 608,648 583,586 532,535 482,483 420,457 346,457 Z"/>
  </g>
  <g id="bullet-char-template-8211" transform="scale(0.00048828125,-0.00048828125)">
   <path d="M -4,459 L 1135,459 1135,606 -4,606 -4,459 Z"/>
  </g>
  <g id="bullet-char-template-61548" transform="scale(0.00048828125,-0.00048828125)">
   <path d="M 173,740 C 173,903 231,1043 346,1159 462,1274 601,1332 765,1332 928,1332 1067,1274 1183,1159 1299,1043 1357,903 1357,740 1357,577 1299,437 1183,322 1067,206 928,148 765,148 601,148 462,206 346,322 231,437 173,577 173,740 Z"/>
  </g>
 </defs>
 <g class="Page">
  <g class="com.sun.star.drawing.PolyPolygonShape">
   <g id="id3">
    <rect class="BoundingBox" stroke="none" fill="none" x="31735" y="36499" width="1731" height="2503"/>
    <path fill="rgb(0,0,255)" stroke="none" d="M 31736,38813 L 31736,36687 31736,36678 31737,36669 31738,36659 31739,36650 31741,36641 31744,36633 31747,36624 31750,36615 31754,36607 31758,36599 31762,36591 31767,36583 31773,36575 31778,36568 31784,36561 31791,36554 31797,36548 31804,36542 31811,36536 31819,36531 31827,36526 31835,36522 31843,36517 31851,36514 31860,36510 31869,36508 31877,36505 31886,36503 31895,36501 31904,36500 31914,36500 31923,36500 33277,36500 33286,36500 33295,36500 33304,36501 33313,36503 33322,36505 33331,36508 33340,36510 33348,36514 33357,36517 33365,36522 33373,36526 33381,36531 33388,36536 33396,36542 33403,36548 33409,36554 33415,36561 33422,36568 33427,36575 33433,36583 33437,36591 33442,36599 33446,36607 33450,36615 33453,36624 33456,36633 33458,36641 33460,36650 33462,36659 33463,36669 33464,36678 33464,36687 33464,38813 33464,38822 33463,38831 33462,38840 33460,38849 33458,38858 33456,38867 33453,38876 33450,38885 33446,38893 33442,38901 33437,38909 33433,38917 33427,38924 33422,38932 33415,38939 33409,38945 33403,38952 33396,38958 33388,38963 33381,38969 33373,38974 33365,38978 33357,38982 33348,38986 33340,38989 33331,38992 33322,38995 33313,38997 33304,38998 33295,38999 33286,39000 33277,39000 31923,39000 31914,39000 31904,38999 31895,38998 31886,38997 31877,38995 31869,38992 31860,38989 31851,38986 31843,38982 31835,38978 31827,38974 31819,38969 31811,38963 31804,38958 31797,38952 31791,38945 31784,38939 31778,38932 31773,38924 31767,38917 31762,38909 31758,38901 31754,38893 31750,38885 31747,38876 31744,38867 31741,38858 31739,38849 31738,38840 31737,38831 31736,38822 31736,38813 Z"/>
    <path fill="none" stroke="rgb(0,0,255)" d="M 31736,38813 L 31736,36687 31736,36678 31737,36669 31738,36659 31739,36650 31741,36641 31744,36633 31747,36624 31750,36615 31754,36607 31758,36599 31762,36591 31767,36583 31773,36575 31778,36568 31784,36561 31791,36554 31797,36548 31804,36542 31811,36536 31819,36531 31827,36526 31835,36522 31843,36517 31851,36514 31860,36510 31869,36508 31877,36505 31886,36503 31895,36501 31904,36500 31914,36500 31923,36500 33277,36500 33286,36500 33295,36500 33304,36501 33313,36503 33322,36505 33331,36508 33340,36510 33348,36514 33357,36517 33365,36522 33373,36526 33381,36531 33388,36536 33396,36542 33403,36548 33409,36554 33415,36561 33422,36568 33427,36575 33433,36583 33437,36591 33442,36599 33446,36607 33450,36615 33453,36624 33456,36633 33458,36641 33460,36650 33462,36659 33463,36669 33464,36678 33464,36687 33464,38813 33464,38822 33463,38831 33462,38840 33460,38849 33458,38858 33456,38867 33453,38876 33450,38885 33446,38893 33442,38901 33437,38909 33433,38917 33427,38924 33422,38932 33415,38939 33409,38945 33403,38952 33396,38958 33388,38963 33381,38969 33373,38974 33365,38978 33357,38982 33348,38986 33340,38989 33331,38992 33322,38995 33313,38997 33304,38998 33295,38999 33286,39000 33277,39000 31923,39000 31914,39000 31904,38999 31895,38998 31886,38997 31877,38995 31869,38992 31860,38989 31851,38986 31843,38982 31835,38978 31827,38974 31819,38969 31811,38963 31804,38958 31797,38952 31791,38945 31784,38939 31778,38932 31773,38924 31767,38917 31762,38909 31758,38901 31754,38893 31750,38885 31747,38876 31744,38867 31741,38858 31739,38849 31738,38840 31737,38831 31736,38822 31736,38813 Z"/>
   </g>
  </g>
  <g class="com.sun.star.drawing.PolyPolygonShape">
   <g id="id4">
    <rect class="BoundingBox" stroke="none" fill="none" x="31778" y="36542" width="1645" height="2417"/>
    <path fill="rgb(255,255,255)" stroke="none" d="M 31779,38813 L 31779,36687 31780,36673 31782,36659 31785,36645 31790,36632 31796,36619 31803,36607 31812,36595 31821,36585 31831,36575 31843,36567 31855,36560 31868,36554 31881,36549 31895,36546 31909,36543 31923,36543 33277,36543 33291,36543 33305,36546 33319,36549 33332,36554 33345,36560 33357,36567 33368,36575 33379,36585 33388,36595 33397,36607 33404,36619 33410,36632 33415,36645 33418,36659 33420,36673 33421,36687 33421,38813 33420,38827 33418,38841 33415,38855 33410,38868 33404,38881 33397,38893 33388,38904 33379,38915 33368,38924 33357,38933 33345,38940 33332,38946 33319,38951 33305,38954 33291,38956 33277,38957 31923,38957 31909,38956 31895,38954 31881,38951 31868,38946 31855,38940 31843,38933 31831,38924 31821,38915 31812,38904 31803,38893 31796,38881 31790,38868 31785,38855 31782,38841 31780,38827 31779,38813 Z"/>
    <path fill="none" stroke="rgb(255,255,255)" d="M 31779,38813 L 31779,36687 31780,36673 31782,36659 31785,36645 31790,36632 31796,36619 31803,36607 31812,36595 31821,36585 31831,36575 31843,36567 31855,36560 31868,36554 31881,36549 31895,36546 31909,36543 31923,36543 33277,36543 33291,36543 33305,36546 33319,36549 33332,36554 33345,36560 33357,36567 33368,36575 33379,36585 33388,36595 33397,36607 33404,36619 33410,36632 33415,36645 33418,36659 33420,36673 33421,36687 33421,38813 33420,38827 33418,38841 33415,38855 33410,38868 33404,38881 33397,38893 33388,38904 33379,38915 33368,38924 33357,38933 33345,38940 33332,38946 33319,38951 33305,38954 33291,38956 33277,38957 31923,38957 31909,38956 31895,38954 31881,38951 31868,38946 31855,38940 31843,38933 31831,38924 31821,38915 31812,38904 31803,38893 31796,38881 31790,38868 31785,38855 31782,38841 31780,38827 31779,38813 Z"/>
   </g>
  </g>
  <g class="com.sun.star.drawing.PolyPolygonShape">
   <g id="id5">
    <rect class="BoundingBox" stroke="none" fill="none" x="31821" y="36585" width="1559" height="2331"/>
    <path fill="rgb(0,0,255)" stroke="none" d="M 31822,38813 L 31822,36687 31823,36677 31824,36667 31826,36658 31830,36648 31834,36639 31839,36631 31845,36623 31852,36616 31860,36609 31868,36603 31876,36598 31885,36594 31894,36590 31904,36588 31914,36587 31924,36586 33277,36586 33287,36587 33296,36588 33306,36590 33315,36594 33324,36598 33333,36603 33341,36609 33348,36616 33355,36623 33361,36631 33366,36639 33370,36648 33373,36658 33376,36667 33377,36677 33378,36687 33378,38813 33377,38823 33376,38833 33373,38842 33370,38852 33366,38861 33361,38869 33355,38877 33348,38884 33341,38891 33333,38897 33324,38902 33315,38906 33306,38910 33296,38912 33287,38913 33277,38914 31924,38914 31914,38913 31904,38912 31894,38910 31885,38906 31876,38902 31868,38897 31860,38891 31852,38884 31845,38877 31839,38869 31834,38861 31830,38852 31826,38842 31824,38833 31823,38823 31822,38813 Z"/>
    <path fill="none" stroke="rgb(0,0,255)" d="M 31822,38813 L 31822,36687 31823,36677 31824,36667 31826,36658 31830,36648 31834,36639 31839,36631 31845,36623 31852,36616 31860,36609 31868,36603 31876,36598 31885,36594 31894,36590 31904,36588 31914,36587 31924,36586 33277,36586 33287,36587 33296,36588 33306,36590 33315,36594 33324,36598 33333,36603 33341,36609 33348,36616 33355,36623 33361,36631 33366,36639 33370,36648 33373,36658 33376,36667 33377,36677 33378,36687 33378,38813 33377,38823 33376,38833 33373,38842 33370,38852 33366,38861 33361,38869 33355,38877 33348,38884 33341,38891 33333,38897 33324,38902 33315,38906 33306,38910 33296,38912 33287,38913 33277,38914 31924,38914 31914,38913 31904,38912 31894,38910 31885,38906 31876,38902 31868,38897 31860,38891 31852,38884 31845,38877 31839,38869 31834,38861 31830,38852 31826,38842 31824,38833 31823,38823 31822,38813 Z"/>
   </g>
  </g>
  <g class="com.sun.star.drawing.PolyPolygonShape">
   <g id="id6">
    <rect class="BoundingBox" stroke="none" fill="none" x="31879" y="37349" width="1443" height="538"/>
    <path fill="rgb(255,255,255)" stroke="none" d="M 32139,37523 L 32167,37885 31937,37885 31966,37523 31880,37523 31880,37350 33320,37350 33320,37523 33234,37523 33262,37885 33032,37885 33061,37523 32139,37523 Z"/>
    <path fill="none" stroke="rgb(255,255,255)" d="M 32139,37523 L 32167,37885 31937,37885 31966,37523 31880,37523 31880,37350 33320,37350 33320,37523 33234,37523 33262,37885 33032,37885 33061,37523 32139,37523 Z"/>
   </g>
  </g>
  <g class="com.sun.star.drawing.PolyPolygonShape">
   <g id="id7">
    <rect class="BoundingBox" stroke="none" fill="none" x="32680" y="37609" width="383" height="1220"/>
    <path fill="rgb(255,255,255)" stroke="none" d="M 32716,38827 L 32681,37610 32893,37610 33061,38827 32716,38827 Z"/>
    <path fill="none" stroke="rgb(255,255,255)" d="M 32716,38827 L 32681,37610 32893,37610 33061,38827 32716,38827 Z"/>
   </g>
  </g>
  <g class="com.sun.star.drawing.PolyPolygonShape">
   <g id="id8">
    <rect class="BoundingBox" stroke="none" fill="none" x="32138" y="37609" width="383" height="1220"/>
    <path fill="rgb(255,255,255)" stroke="none" d="M 32485,38827 L 32139,38827 32307,37610 32519,37610 32485,38827 Z"/>
    <path fill="none" stroke="rgb(255,255,255)" d="M 32485,38827 L 32139,38827 32307,37610 32519,37610 32485,38827 Z"/>
   </g>
  </g>
  <g class="com.sun.star.drawing.PolyPolygonShape">
   <g id="id9">
    <rect class="BoundingBox" stroke="none" fill="none" x="32656" y="36672" width="198" height="624"/>
    <path fill="rgb(255,255,255)" stroke="none" d="M 32657,36673 L 32673,37294 32852,37294 32773,36673 32657,36673 Z"/>
    <path fill="none" stroke="rgb(255,255,255)" d="M 32657,36673 L 32673,37294 32852,37294 32773,36673 32657,36673 Z"/>
   </g>
  </g>
  <g class="com.sun.star.drawing.PolyPolygonShape">
   <g id="id10">
    <rect class="BoundingBox" stroke="none" fill="none" x="32346" y="36672" width="199" height="624"/>
    <path fill="rgb(255,255,255)" stroke="none" d="M 32427,36673 L 32347,37294 32527,37294 32543,36673 32427,36673 Z"/>
    <path fill="none" stroke="rgb(255,255,255)" d="M 32427,36673 L 32347,37294 32527,37294 32543,36673 32427,36673 Z"/>
   </g>
  </g>
  <g class="com.sun.star.drawing.PolyPolygonShape">
   <g id="id11">
    <rect class="BoundingBox" stroke="none" fill="none" x="32346" y="36672" width="199" height="624"/>
    <path fill="rgb(255,255,255)" stroke="none" d="M 32427,36673 L 32347,37294 32527,37294 32543,36673 32427,36673 Z"/>
    <path fill="none" stroke="rgb(255,255,255)" d="M 32427,36673 L 32347,37294 32527,37294 32543,36673 32427,36673 Z"/>
   </g>
  </g>
 </g>
</svg>