<?xml version="1.0" encoding="UTF-8"?>
<!DOCTYPE svg PUBLIC "-//W3C//DTD SVG 1.1//EN" "http://www.w3.org/Graphics/SVG/1.1/DTD/svg11.dtd">
<svg version="1.2" width="24.99mm" height="25.03mm" viewBox="63551 39999 2499 2503" preserveAspectRatio="xMidYMid" fill-rule="evenodd" stroke-width="28.222" stroke-linejoin="round" xmlns="http://www.w3.org/2000/svg" xmlns:ooo="http://xml.openoffice.org/svg/export" xmlns:xlink="http://www.w3.org/1999/xlink" xmlns:presentation="http://sun.com/xmlns/staroffice/presentation" xmlns:smil="http://www.w3.org/2001/SMIL20/" xmlns:anim="urn:oasis:names:tc:opendocument:xmlns:animation:1.0" xml:space="preserve">
 <defs class="EmbeddedBulletChars">
  <g id="bullet-char-template-57356" transform="scale(0.00048828125,-0.00048828125)">
   <path d="M 580,1141 L 1163,571 580,0 -4,571 580,1141 Z"/>
  </g>
  <g id="bullet-char-template-57354" transform="scale(0.00048828125,-0.00048828125)">
   <path d="M 8,1128 L 1137,1128 1137,0 8,0 8,1128 Z"/>
  </g>
  <g id="bullet-char-template-10146" transform="scale(0.00048828125,-0.00048828125)">
   <path d="M 174,0 L 602,739 174,1481 1456,739 174,0 Z M 1358,739 L 309,1346 659,739 1358,739 Z"/>
  </g>
  <g id="bullet-char-template-10132" transform="scale(0.00048828125,-0.00048828125)">
   <path d="M 2015,739 L 1276,0 717,0 1260,543 174,543 174,936 1260,936 717,1481 1274,1481 2015,739 Z"/>
  </g>
  <g id="bullet-char-template-10007" transform="scale(0.00048828125,-0.00048828125)">
   <path d="M 0,-2 C -7,14 -16,27 -25,37 L 356,567 C 262,823 215,952 215,954 215,979 228,992 255,992 264,992 276,990 289,987 310,991 331,999 354,1012 L 381,999 492,748 772,1049 836,1024 860,1049 C 881,1039 901,1025 922,1006 886,937 835,863 770,784 769,783 710,716 594,584 L 774,223 C 774,196 753,168 711,139 L 727,119 C 717,90 699,76 672,76 641,76 570,178 457,381 L 164,-76 C 142,-110 111,-127 72,-127 30,-127 9,-110 8,-76 1,-67 -2,-52 -2,-32 -2,-23 -1,-13 0,-2 Z"/>
  </g>
  <g id="bullet-char-template-10004" transform="scale(0.00048828125,-0.00048828125)">
   <path d="M 285,-33 C 182,-33 111,30 74,156 52,228 41,333 41,471 41,549 55,616 82,672 116,743 169,778 240,778 293,778 328,747 346,684 L 369,508 C 377,444 397,411 428,410 L 1163,1116 C 1174,1127 1196,1133 1229,1133 1271,1133 1292,1118 1292,1087 L 1292,965 C 1292,929 1282,901 1262,881 L 442,47 C 390,-6 338,-33 285,-33 Z"/>
  </g>
  <g id="bullet-char-template-9679" transform="scale(0.00048828125,-0.00048828125)">
   <path d="M 813,0 C 632,0 489,54 383,161 276,268 223,411 223,592 223,773 276,916 383,1023 489,1130 632,1184 813,1184 992,1184 1136,1130 1245,1023 1353,916 1407,772 1407,592 1407,412 1353,268 1245,161 1136,54 992,0 813,0 Z"/>
  </g>
  <g id="bullet-char-template-8226" transform="scale(0.00048828125,-0.00048828125)">
   <path d="M 346,457 C 273,457 209,483 155,535 101,586 74,649 74,723 74,796 101,859 155,911 209,963 273,989 346,989 419,989 480,963 531,910 582,859 608,796 608,723 608,648 583,586 532,535 482,483 420,457 346,457 Z"/>
  </g>
  <g id="bullet-char-template-8211" transform="scale(0.00048828125,-0.00048828125)">
   <path d="M -4,459 L 1135,459 1135,606 -4,606 -4,459 Z"/>
  </g>
  <g id="bullet-char-template-61548" transform="scale(0.00048828125,-0.00048828125)">
   <path d="M 173,740 C 173,903 231,1043 346,1159 462,1274 601,1332 765,1332 928,1332 1067,1274 1183,1159 1299,1043 1357,903 1357,740 1357,577 1299,437 1183,322 1067,206 928,148 765,148 601,148 462,206 346,322 231,437 173,577 173,740 Z"/>
  </g>
 </defs>
 <g class="Page">
  <g class="com.sun.star.drawing.PolyPolygonShape">
   <g id="id3">
    <rect class="BoundingBox" stroke="none" fill="none" x="63551" y="39999" width="2499" height="2503"/>
    <path fill="rgb(0,0,255)" stroke="none" d="M 63552,42353 L 63552,40147 63553,40133 63555,40118 63558,40104 63563,40091 63569,40078 63577,40065 63585,40054 63595,40043 63607,40033 63618,40024 63631,40017 63644,40011 63658,40006 63672,40002 63686,40000 63700,40000 65900,40000 65915,40000 65929,40002 65943,40006 65957,40011 65970,40017 65982,40024 65994,40033 66005,40043 66014,40054 66023,40065 66030,40078 66037,40091 66041,40104 66045,40118 66047,40133 66048,40147 66048,42353 66047,42367 66045,42381 66041,42395 66037,42409 66030,42422 66023,42435 66014,42446 66005,42457 65994,42467 65982,42475 65970,42483 65957,42489 65943,42494 65929,42498 65915,42500 65900,42500 63700,42500 63686,42500 63672,42498 63658,42494 63644,42489 63631,42483 63618,42475 63607,42467 63595,42457 63585,42446 63577,42435 63569,42422 63563,42409 63558,42395 63555,42381 63553,42367 63552,42353 Z"/>
    <path fill="none" stroke="rgb(0,0,255)" d="M 63552,42353 L 63552,40147 63553,40133 63555,40118 63558,40104 63563,40091 63569,40078 63577,40065 63585,40054 63595,40043 63607,40033 63618,40024 63631,40017 63644,40011 63658,40006 63672,40002 63686,40000 63700,40000 65900,40000 65915,40000 65929,40002 65943,40006 65957,40011 65970,40017 65982,40024 65994,40033 66005,40043 66014,40054 66023,40065 66030,40078 66037,40091 66041,40104 66045,40118 66047,40133 66048,40147 66048,42353 66047,42367 66045,42381 66041,42395 66037,42409 66030,42422 66023,42435 66014,42446 66005,42457 65994,42467 65982,42475 65970,42483 65957,42489 65943,42494 65929,42498 65915,42500 65900,42500 63700,42500 63686,42500 63672,42498 63658,42494 63644,42489 63631,42483 63618,42475 63607,42467 63595,42457 63585,42446 63577,42435 63569,42422 63563,42409 63558,42395 63555,42381 63553,42367 63552,42353 Z"/>
   </g>
  </g>
  <g class="com.sun.star.drawing.PolyPolygonShape">
   <g id="id4">
    <rect class="BoundingBox" stroke="none" fill="none" x="63585" y="40033" width="2431" height="2435"/>
    <path fill="rgb(255,255,255)" stroke="none" d="M 63586,42353 L 63586,40148 63587,40137 63588,40126 63591,40115 63595,40104 63599,40094 63605,40084 63612,40075 63619,40067 63627,40059 63636,40053 63646,40047 63656,40042 63667,40039 63677,40036 63688,40034 63699,40034 65900,40034 65912,40034 65923,40036 65933,40039 65944,40042 65954,40047 65963,40053 65972,40059 65981,40067 65988,40075 65995,40084 66001,40094 66005,40104 66009,40115 66012,40126 66013,40137 66014,40148 66014,42353 66013,42364 66012,42375 66009,42386 66005,42396 66001,42406 65995,42416 65988,42425 65981,42433 65972,42441 65963,42447 65954,42453 65944,42458 65933,42461 65923,42464 65912,42466 65900,42466 63699,42466 63688,42466 63677,42464 63667,42461 63656,42458 63646,42453 63636,42447 63627,42441 63619,42433 63612,42425 63605,42416 63599,42406 63595,42396 63591,42386 63588,42375 63587,42364 63586,42353 Z"/>
    <path fill="none" stroke="rgb(255,255,255)" d="M 63586,42353 L 63586,40148 63587,40137 63588,40126 63591,40115 63595,40104 63599,40094 63605,40084 63612,40075 63619,40067 63627,40059 63636,40053 63646,40047 63656,40042 63667,40039 63677,40036 63688,40034 63699,40034 65900,40034 65912,40034 65923,40036 65933,40039 65944,40042 65954,40047 65963,40053 65972,40059 65981,40067 65988,40075 65995,40084 66001,40094 66005,40104 66009,40115 66012,40126 66013,40137 66014,40148 66014,42353 66013,42364 66012,42375 66009,42386 66005,42396 66001,42406 65995,42416 65988,42425 65981,42433 65972,42441 65963,42447 65954,42453 65944,42458 65933,42461 65923,42464 65912,42466 65900,42466 63699,42466 63688,42466 63677,42464 63667,42461 63656,42458 63646,42453 63636,42447 63627,42441 63619,42433 63612,42425 63605,42416 63599,42406 63595,42396 63591,42386 63588,42375 63587,42364 63586,42353 Z"/>
   </g>
  </g>
  <g class="com.sun.star.drawing.PolyPolygonShape">
   <g id="id5">
    <rect class="BoundingBox" stroke="none" fill="none" x="63619" y="40067" width="2363" height="2367"/>
    <path fill="rgb(0,0,255)" stroke="none" d="M 63620,42353 L 63620,40147 63620,40140 63622,40132 63623,40124 63626,40117 63629,40110 63633,40103 63638,40097 63643,40091 63649,40086 63655,40081 63662,40077 63669,40074 63676,40071 63684,40069 63692,40068 63699,40068 65900,40068 65908,40068 65916,40069 65924,40071 65931,40074 65938,40077 65945,40081 65951,40086 65957,40091 65962,40097 65966,40103 65971,40110 65974,40117 65976,40124 65978,40132 65979,40140 65980,40147 65980,42353 65979,42360 65978,42368 65976,42376 65974,42383 65971,42390 65966,42397 65962,42403 65957,42409 65951,42414 65945,42419 65938,42423 65931,42426 65924,42429 65916,42431 65908,42432 65900,42432 63699,42432 63692,42432 63684,42431 63676,42429 63669,42426 63662,42423 63655,42419 63649,42414 63643,42409 63638,42403 63633,42397 63629,42390 63626,42383 63623,42376 63622,42368 63620,42360 63620,42353 Z"/>
    <path fill="none" stroke="rgb(0,0,255)" d="M 63620,42353 L 63620,40147 63620,40140 63622,40132 63623,40124 63626,40117 63629,40110 63633,40103 63638,40097 63643,40091 63649,40086 63655,40081 63662,40077 63669,40074 63676,40071 63684,40069 63692,40068 63699,40068 65900,40068 65908,40068 65916,40069 65924,40071 65931,40074 65938,40077 65945,40081 65951,40086 65957,40091 65962,40097 65966,40103 65971,40110 65974,40117 65976,40124 65978,40132 65979,40140 65980,40147 65980,42353 65979,42360 65978,42368 65976,42376 65974,42383 65971,42390 65966,42397 65962,42403 65957,42409 65951,42414 65945,42419 65938,42423 65931,42426 65924,42429 65916,42431 65908,42432 65900,42432 63699,42432 63692,42432 63684,42431 63676,42429 63669,42426 63662,42423 63655,42419 63649,42414 63643,42409 63638,42403 63633,42397 63629,42390 63626,42383 63623,42376 63622,42368 63620,42360 63620,42353 Z"/>
   </g>
  </g>
  <g class="com.sun.star.drawing.PolyPolygonShape">
   <g id="id6">
    <rect class="BoundingBox" stroke="none" fill="none" x="63829" y="40412" width="1943" height="1682"/>
    <path fill="rgb(255,255,255)" stroke="none" d="M 63830,42092 L 64799,40413 65770,42092 63830,42092 Z"/>
    <path fill="none" stroke="rgb(255,255,255)" d="M 63830,42092 L 64799,40413 65770,42092 63830,42092 Z"/>
   </g>
  </g>
  <g class="com.sun.star.drawing.PolyPolygonShape">
   <g id="id7">
    <rect class="BoundingBox" stroke="none" fill="none" x="64156" y="40798" width="1270" height="1232"/>
    <path fill="rgb(0,0,0)" stroke="none" d="M 64801,41458 L 64767,41512 64746,41487 64801,41458 Z M 65024,41418 L 65039,41389 65007,41418 65024,41418 Z M 64842,41319 L 64846,41317 64848,41314 64851,41311 64852,41308 64854,41303 64855,41302 64862,41297 64867,41292 64870,41289 64872,41285 64876,41274 64878,41270 64879,41266 64879,41261 64879,41257 64876,41250 64875,41243 64874,41235 64874,41228 64873,41235 64871,41240 64868,41246 64863,41251 64781,41321 64774,41328 64766,41334 64758,41338 64749,41342 64734,41346 64719,41349 64719,41341 64701,41343 64695,41360 64675,41353 64672,41360 64669,41362 64667,41362 64664,41361 64662,41359 64663,41361 64663,41363 64662,41364 64661,41366 64659,41367 64657,41368 64655,41368 64653,41367 64647,41364 64641,41362 64627,41362 64613,41362 64599,41361 64586,41358 64567,41420 64634,41420 64842,41319 Z M 65394,41653 L 65383,41659 65372,41642 65359,41627 65345,41613 65329,41599 65313,41588 65296,41578 65277,41569 65259,41562 65239,41556 65219,41553 65199,41551 65179,41550 65159,41552 65138,41555 65119,41560 65100,41566 65095,41555 65105,41552 65115,41549 65125,41546 65136,41543 65146,41541 65157,41540 65168,41539 65179,41539 65189,41539 65200,41539 65210,41540 65221,41541 65231,41543 65242,41545 65252,41548 65262,41551 65272,41554 65282,41558 65292,41563 65301,41567 65310,41573 65319,41578 65328,41584 65337,41590 65345,41597 65353,41604 65360,41611 65368,41619 65375,41627 65381,41635 65388,41644 65394,41653 Z M 64927,41781 L 64901,41782 64900,41774 64898,41766 64896,41759 64892,41752 64888,41746 64883,41740 64878,41734 64872,41730 65028,41442 65076,41553 65060,41561 65044,41570 65030,41581 65016,41592 65003,41604 64990,41617 64979,41631 64969,41646 64960,41661 64951,41677 64944,41694 64939,41711 64934,41728 64931,41746 64928,41764 64927,41781 Z M 64854,41639 L 64853,41630 64852,41621 64853,41611 64855,41602 64858,41593 64861,41584 64865,41576 64870,41568 64996,41432 65017,41431 64858,41724 64854,41639 Z M 64755,41643 L 64621,41480 64617,41475 64615,41470 64613,41464 64612,41458 64612,41452 64613,41446 64615,41440 64617,41435 64562,41435 64549,41476 64755,41688 64755,41643 Z M 64410,41761 L 64428,41743 64436,41734 64444,41724 64451,41713 64458,41702 64464,41691 64470,41680 64475,41668 64479,41656 64495,41603 64480,41596 64463,41589 64447,41584 64430,41580 64412,41578 64395,41577 64377,41578 64360,41580 64343,41583 64326,41587 64310,41594 64294,41601 64279,41610 64264,41619 64251,41631 64238,41643 64227,41656 64216,41669 64207,41684 64199,41700 64192,41716 64186,41732 64182,41749 64179,41767 64178,41784 64178,41801 64179,41819 64182,41836 64186,41853 64192,41870 64199,41886 64207,41901 64217,41916 64227,41930 64239,41943 64252,41955 64265,41966 64280,41975 64295,41984 64311,41991 64327,41997 64344,42002 64361,42005 64379,42007 64396,42007 64414,42006 64431,42004 64448,42000 64464,41995 64481,41988 64496,41980 64511,41971 64525,41961 64538,41950 64551,41937 64562,41924 64572,41910 64581,41895 64589,41879 64595,41863 64600,41846 64604,41829 64606,41812 64607,41794 64428,41794 64427,41800 64426,41805 64423,41811 64420,41815 64416,41819 64411,41823 64406,41825 64400,41827 64395,41828 64389,41828 64383,41827 64378,41825 64373,41822 64368,41819 64364,41814 64361,41809 64359,41804 64357,41798 64357,41793 64357,41787 64358,41781 64360,41776 64363,41771 64367,41766 64372,41763 64377,41760 64382,41758 64388,41756 64393,41756 64399,41757 64405,41758 64410,41761 Z M 64639,41782 L 64628,41782 64627,41768 64625,41754 64622,41739 64618,41725 64614,41711 64608,41698 64602,41685 64595,41672 64587,41660 64579,41648 64570,41637 64560,41626 64549,41616 64538,41607 64526,41598 64514,41590 64518,41579 64531,41587 64543,41596 64555,41606 64567,41616 64577,41628 64587,41639 64596,41652 64604,41665 64612,41679 64619,41692 64624,41707 64629,41722 64633,41736 64636,41752 64638,41767 64639,41782 Z M 64421,41770 L 64424,41776 64427,41782 64607,41782 64606,41770 64604,41757 64602,41744 64599,41732 64595,41720 64590,41707 64584,41696 64578,41685 64572,41674 64564,41663 64556,41653 64547,41643 64538,41634 64529,41626 64519,41618 64508,41611 64493,41660 64488,41673 64483,41686 64477,41698 64471,41710 64464,41721 64456,41732 64447,41743 64438,41753 64421,41770 Z M 65365,41669 L 65223,41755 65218,41750 65213,41746 65207,41743 65201,41740 65194,41738 65188,41738 65181,41738 65174,41739 65108,41585 65125,41580 65143,41575 65162,41572 65180,41571 65198,41572 65216,41574 65234,41577 65252,41582 65269,41588 65286,41596 65301,41605 65316,41616 65330,41628 65343,41641 65355,41655 65365,41669 Z M 65136,41791 L 65137,41796 65138,41802 65140,41807 65142,41811 65145,41816 65150,41820 65153,41823 65157,41827 65162,41829 65167,41832 65172,41833 65177,41834 65182,41835 65187,41835 65193,41835 65198,41834 65203,41832 65207,41830 65212,41827 65216,41824 65220,41820 65224,41816 65227,41812 65229,41807 65231,41803 65233,41798 65234,41792 65234,41787 65234,41782 65233,41777 65232,41772 65230,41766 65373,41682 65379,41693 65384,41704 65388,41716 65392,41727 65395,41739 65397,41751 65399,41763 65400,41775 65400,41787 65400,41799 65399,41811 65397,41823 65394,41835 65391,41847 65387,41859 65383,41870 65378,41881 65372,41892 65366,41902 65359,41912 65352,41922 65344,41931 65336,41940 65327,41948 65317,41956 65308,41963 65297,41970 65287,41976 65276,41981 65265,41986 65254,41990 65242,41994 65230,41997 65218,41999 65206,42000 65194,42001 65182,42001 65170,42001 65158,42000 65145,41998 65133,41995 65121,41992 65110,41988 65099,41984 65088,41979 65077,41973 65067,41966 65057,41960 65047,41952 65038,41944 65029,41936 65021,41927 65014,41917 65007,41907 65000,41897 64994,41886 64989,41875 64984,41864 64980,41853 64977,41841 64974,41829 64972,41817 64970,41805 64970,41793 65136,41791 Z M 65080,41562 L 65084,41573 65070,41580 65056,41589 65042,41598 65030,41608 65018,41619 65006,41632 64996,41644 64987,41658 64978,41672 64971,41686 64964,41701 64959,41717 64955,41733 64952,41749 64950,41765 64949,41781 64937,41781 64938,41764 64940,41747 64943,41730 64948,41714 64954,41697 64960,41681 64968,41666 64977,41651 64987,41637 64998,41624 65009,41611 65022,41599 65035,41589 65049,41579 65064,41570 65080,41562 Z M 65159,41745 L 65092,41592 65079,41599 65067,41606 65054,41615 65043,41624 65032,41634 65022,41645 65013,41657 65004,41669 64996,41682 64990,41695 64984,41709 64979,41723 64975,41737 64972,41752 64970,41766 64970,41781 65136,41781 65137,41775 65138,41770 65140,41765 65143,41760 65146,41756 65151,41752 65155,41748 65159,41745 Z M 64521,41569 L 64544,41494 64755,41710 64755,41853 64802,41853 64802,41857 64802,41861 64801,41864 64799,41868 64796,41871 64793,41873 64790,41875 64786,41876 64748,41883 64745,41884 64742,41885 64741,41888 64739,41891 64738,41903 64790,41903 64794,41903 64798,41902 64802,41900 64806,41899 64806,41909 64831,41909 64831,41905 64860,41905 64861,41900 64861,41895 64861,41890 64860,41885 64856,41879 64854,41872 64854,41865 64855,41859 64857,41851 64865,41847 64873,41842 64881,41836 64887,41829 64892,41821 64896,41812 64899,41803 64901,41794 64927,41794 64928,41809 64938,41809 64937,41794 64949,41793 64949,41807 64951,41820 64953,41833 64956,41846 64960,41859 64964,41872 64970,41884 64975,41896 64982,41907 64989,41919 64997,41930 65005,41940 65014,41950 65024,41959 65034,41968 65044,41976 65055,41984 65066,41991 65078,41997 65090,42003 65103,42008 65115,42012 65128,42016 65141,42018 65155,42021 65168,42022 65182,42022 65195,42022 65208,42021 65222,42020 65235,42017 65248,42014 65260,42010 65273,42005 65285,42000 65297,41994 65309,41987 65320,41980 65330,41972 65341,41964 65351,41955 65360,41945 65368,41935 65376,41924 65384,41913 65391,41902 65397,41890 65402,41878 65407,41865 65411,41853 65415,41840 65417,41827 65419,41813 65420,41800 65421,41787 65420,41774 65419,41760 65418,41747 65415,41734 65412,41721 65407,41708 65403,41696 65397,41684 65391,41672 65401,41666 65409,41681 65415,41696 65424,41690 65419,41679 65413,41668 65407,41657 65401,41646 65394,41636 65386,41626 65378,41616 65369,41607 65360,41598 65351,41590 65341,41582 65331,41574 65321,41568 65310,41561 65299,41555 65287,41550 65276,41545 65264,41541 65252,41538 65240,41535 65228,41532 65215,41531 65203,41529 65190,41529 65178,41529 65165,41530 65153,41531 65139,41533 65127,41535 65115,41538 65103,41542 65091,41546 65038,41423 65057,41387 65059,41384 65061,41382 65064,41381 65067,41380 65082,41379 65086,41377 65088,41373 65089,41370 65088,41365 65086,41362 65083,41360 65079,41358 65075,41359 65078,41353 65080,41347 65080,41341 65080,41334 65075,41313 65070,41291 65064,41270 65057,41249 65050,41228 65042,41207 65033,41186 65024,41166 65017,41148 65009,41130 65000,41113 64991,41096 64981,41080 64971,41064 64960,41048 64948,41033 64937,41018 64924,41003 64911,40989 64898,40976 64884,40963 64870,40950 64855,40938 64840,40926 64850,40925 64847,40917 64843,40910 64839,40903 64833,40897 64834,40886 64832,40874 64830,40863 64827,40853 64822,40842 64817,40832 64810,40823 64802,40815 64798,40811 64793,40808 64788,40805 64783,40802 64777,40800 64771,40799 64765,40799 64760,40799 64753,40799 64747,40801 64741,40804 64736,40808 64723,40822 64710,40837 64698,40852 64687,40868 64686,40871 64685,40875 64685,40878 64686,40882 64687,40885 64688,40888 64691,40891 64693,40893 64698,40895 64702,40898 64706,40904 64710,40908 64714,40913 64719,40916 64719,40923 64718,40930 64719,40937 64719,40944 64721,40946 64723,40947 64726,40948 64728,40947 64731,40945 64737,40955 64745,40955 64745,40964 64750,40966 64754,40971 64757,40976 64759,40981 64758,40983 64759,40985 64760,40986 64762,40987 64763,40987 64766,40985 64767,40984 64782,40968 64785,40966 64789,40966 64792,40968 64794,40970 64796,40973 64795,40977 64794,40980 64792,40982 64775,41002 64774,41026 64774,41049 64776,41073 64779,41097 64784,41120 64790,41144 64797,41167 64805,41189 64796,41205 64785,41220 64774,41234 64762,41248 64750,41262 64737,41274 64724,41287 64710,41298 64707,41301 64703,41301 64680,41300 64673,41300 64666,41301 64659,41304 64654,41309 64642,41321 64629,41333 64629,41337 64630,41341 64603,41340 64577,41338 64508,41562 64494,41556 64479,41550 64464,41545 64449,41541 64434,41538 64419,41536 64403,41535 64388,41535 64372,41536 64357,41537 64341,41540 64326,41543 64311,41548 64297,41553 64283,41560 64269,41567 64274,41575 64288,41568 64301,41562 64315,41557 64330,41553 64344,41549 64359,41547 64374,41545 64389,41545 64404,41545 64419,41546 64434,41548 64449,41551 64463,41555 64477,41560 64491,41565 64505,41572 64501,41583 64484,41575 64466,41568 64448,41563 64429,41559 64410,41557 64391,41556 64372,41557 64353,41559 64334,41563 64316,41569 64298,41576 64281,41584 64265,41594 64249,41605 64234,41617 64221,41630 64208,41645 64197,41660 64187,41676 64178,41693 64171,41711 64165,41729 64161,41748 64158,41767 64157,41786 64157,41805 64159,41824 64162,41843 64167,41861 64173,41879 64181,41897 64190,41914 64201,41930 64213,41945 64226,41959 64240,41972 64254,41984 64270,41994 64287,42003 64305,42011 64323,42018 64341,42023 64360,42026 64379,42028 64398,42028 64417,42027 64436,42024 64454,42020 64473,42014 64490,42007 64507,41998 64524,41988 64539,41977 64553,41965 64567,41951 64579,41936 64590,41921 64600,41904 64608,41887 64615,41869 64621,41851 64625,41832 64627,41813 64628,41794 64639,41794 64639,41806 64649,41806 64649,41789 64648,41771 64646,41753 64643,41736 64639,41719 64633,41702 64626,41686 64618,41670 64609,41654 64599,41640 64588,41626 64576,41613 64564,41600 64550,41589 64536,41579 64521,41569 Z"/>
    <path fill="none" stroke="rgb(0,0,0)" d="M 64801,41458 L 64767,41512 64746,41487 64801,41458 Z"/>
    <path fill="none" stroke="rgb(0,0,0)" d="M 65024,41418 L 65039,41389 65007,41418 65024,41418 Z"/>
    <path fill="none" stroke="rgb(0,0,0)" d="M 64842,41319 L 64846,41317 64848,41314 64851,41311 64852,41308 64854,41303 64855,41302 64862,41297 64867,41292 64870,41289 64872,41285 64876,41274 64878,41270 64879,41266 64879,41261 64879,41257 64876,41250 64875,41243 64874,41235 64874,41228 64873,41235 64871,41240 64868,41246 64863,41251 64781,41321 64774,41328 64766,41334 64758,41338 64749,41342 64734,41346 64719,41349 64719,41341 64701,41343 64695,41360 64675,41353 64672,41360 64669,41362 64667,41362 64664,41361 64662,41359 64663,41361 64663,41363 64662,41364 64661,41366 64659,41367 64657,41368 64655,41368 64653,41367 64647,41364 64641,41362 64627,41362 64613,41362 64599,41361 64586,41358 64567,41420 64634,41420 64842,41319 Z"/>
    <path fill="none" stroke="rgb(0,0,0)" d="M 65394,41653 L 65383,41659 65372,41642 65359,41627 65345,41613 65329,41599 65313,41588 65296,41578 65277,41569 65259,41562 65239,41556 65219,41553 65199,41551 65179,41550 65159,41552 65138,41555 65119,41560 65100,41566 65095,41555 65105,41552 65115,41549 65125,41546 65136,41543 65146,41541 65157,41540 65168,41539 65179,41539 65189,41539 65200,41539 65210,41540 65221,41541 65231,41543 65242,41545 65252,41548 65262,41551 65272,41554 65282,41558 65292,41563 65301,41567 65310,41573 65319,41578 65328,41584 65337,41590 65345,41597 65353,41604 65360,41611 65368,41619 65375,41627 65381,41635 65388,41644 65394,41653 Z"/>
    <path fill="none" stroke="rgb(0,0,0)" d="M 64927,41781 L 64901,41782 64900,41774 64898,41766 64896,41759 64892,41752 64888,41746 64883,41740 64878,41734 64872,41730 65028,41442 65076,41553 65060,41561 65044,41570 65030,41581 65016,41592 65003,41604 64990,41617 64979,41631 64969,41646 64960,41661 64951,41677 64944,41694 64939,41711 64934,41728 64931,41746 64928,41764 64927,41781 Z"/>
    <path fill="none" stroke="rgb(0,0,0)" d="M 64854,41639 L 64853,41630 64852,41621 64853,41611 64855,41602 64858,41593 64861,41584 64865,41576 64870,41568 64996,41432 65017,41431 64858,41724 64854,41639 Z"/>
    <path fill="none" stroke="rgb(0,0,0)" d="M 64755,41643 L 64621,41480 64617,41475 64615,41470 64613,41464 64612,41458 64612,41452 64613,41446 64615,41440 64617,41435 64562,41435 64549,41476 64755,41688 64755,41643 Z"/>
    <path fill="none" stroke="rgb(0,0,0)" d="M 64410,41761 L 64428,41743 64436,41734 64444,41724 64451,41713 64458,41702 64464,41691 64470,41680 64475,41668 64479,41656 64495,41603 64480,41596 64463,41589 64447,41584 64430,41580 64412,41578 64395,41577 64377,41578 64360,41580 64343,41583 64326,41587 64310,41594 64294,41601 64279,41610 64264,41619 64251,41631 64238,41643 64227,41656 64216,41669 64207,41684 64199,41700 64192,41716 64186,41732 64182,41749 64179,41767 64178,41784 64178,41801 64179,41819 64182,41836 64186,41853 64192,41870 64199,41886 64207,41901 64217,41916 64227,41930 64239,41943 64252,41955 64265,41966 64280,41975 64295,41984 64311,41991 64327,41997 64344,42002 64361,42005 64379,42007 64396,42007 64414,42006 64431,42004 64448,42000 64464,41995 64481,41988 64496,41980 64511,41971 64525,41961 64538,41950 64551,41937 64562,41924 64572,41910 64581,41895 64589,41879 64595,41863 64600,41846 64604,41829 64606,41812 64607,41794 64428,41794 64427,41800 64426,41805 64423,41811 64420,41815 64416,41819 64411,41823 64406,41825 64400,41827 64395,41828 64389,41828 64383,41827 64378,41825 64373,41822 64368,41819 64364,41814 64361,41809 64359,41804 64357,41798 64357,41793 64357,41787 64358,41781 64360,41776 64363,41771 64367,41766 64372,41763 64377,41760 64382,41758 64388,41756 64393,41756 64399,41757 64405,41758 64410,41761 Z"/>
    <path fill="none" stroke="rgb(0,0,0)" d="M 64639,41782 L 64628,41782 64627,41768 64625,41754 64622,41739 64618,41725 64614,41711 64608,41698 64602,41685 64595,41672 64587,41660 64579,41648 64570,41637 64560,41626 64549,41616 64538,41607 64526,41598 64514,41590 64518,41579 64531,41587 64543,41596 64555,41606 64567,41616 64577,41628 64587,41639 64596,41652 64604,41665 64612,41679 64619,41692 64624,41707 64629,41722 64633,41736 64636,41752 64638,41767 64639,41782 Z"/>
    <path fill="none" stroke="rgb(0,0,0)" d="M 64421,41770 L 64424,41776 64427,41782 64607,41782 64606,41770 64604,41757 64602,41744 64599,41732 64595,41720 64590,41707 64584,41696 64578,41685 64572,41674 64564,41663 64556,41653 64547,41643 64538,41634 64529,41626 64519,41618 64508,41611 64493,41660 64488,41673 64483,41686 64477,41698 64471,41710 64464,41721 64456,41732 64447,41743 64438,41753 64421,41770 Z"/>
    <path fill="none" stroke="rgb(0,0,0)" d="M 65365,41669 L 65223,41755 65218,41750 65213,41746 65207,41743 65201,41740 65194,41738 65188,41738 65181,41738 65174,41739 65108,41585 65125,41580 65143,41575 65162,41572 65180,41571 65198,41572 65216,41574 65234,41577 65252,41582 65269,41588 65286,41596 65301,41605 65316,41616 65330,41628 65343,41641 65355,41655 65365,41669 Z"/>
    <path fill="none" stroke="rgb(0,0,0)" d="M 65136,41791 L 65137,41796 65138,41802 65140,41807 65142,41811 65145,41816 65150,41820 65153,41823 65157,41827 65162,41829 65167,41832 65172,41833 65177,41834 65182,41835 65187,41835 65193,41835 65198,41834 65203,41832 65207,41830 65212,41827 65216,41824 65220,41820 65224,41816 65227,41812 65229,41807 65231,41803 65233,41798 65234,41792 65234,41787 65234,41782 65233,41777 65232,41772 65230,41766 65373,41682 65379,41693 65384,41704 65388,41716 65392,41727 65395,41739 65397,41751 65399,41763 65400,41775 65400,41787 65400,41799 65399,41811 65397,41823 65394,41835 65391,41847 65387,41859 65383,41870 65378,41881 65372,41892 65366,41902 65359,41912 65352,41922 65344,41931 65336,41940 65327,41948 65317,41956 65308,41963 65297,41970 65287,41976 65276,41981 65265,41986 65254,41990 65242,41994 65230,41997 65218,41999 65206,42000 65194,42001 65182,42001 65170,42001 65158,42000 65145,41998 65133,41995 65121,41992 65110,41988 65099,41984 65088,41979 65077,41973 65067,41966 65057,41960 65047,41952 65038,41944 65029,41936 65021,41927 65014,41917 65007,41907 65000,41897 64994,41886 64989,41875 64984,41864 64980,41853 64977,41841 64974,41829 64972,41817 64970,41805 64970,41793 65136,41791 Z"/>
    <path fill="none" stroke="rgb(0,0,0)" d="M 65080,41562 L 65084,41573 65070,41580 65056,41589 65042,41598 65030,41608 65018,41619 65006,41632 64996,41644 64987,41658 64978,41672 64971,41686 64964,41701 64959,41717 64955,41733 64952,41749 64950,41765 64949,41781 64937,41781 64938,41764 64940,41747 64943,41730 64948,41714 64954,41697 64960,41681 64968,41666 64977,41651 64987,41637 64998,41624 65009,41611 65022,41599 65035,41589 65049,41579 65064,41570 65080,41562 Z"/>
    <path fill="none" stroke="rgb(0,0,0)" d="M 65159,41745 L 65092,41592 65079,41599 65067,41606 65054,41615 65043,41624 65032,41634 65022,41645 65013,41657 65004,41669 64996,41682 64990,41695 64984,41709 64979,41723 64975,41737 64972,41752 64970,41766 64970,41781 65136,41781 65137,41775 65138,41770 65140,41765 65143,41760 65146,41756 65151,41752 65155,41748 65159,41745 Z"/>
    <path fill="none" stroke="rgb(0,0,0)" d="M 64521,41569 L 64544,41494 64755,41710 64755,41853 64802,41853 64802,41857 64802,41861 64801,41864 64799,41868 64796,41871 64793,41873 64790,41875 64786,41876 64748,41883 64745,41884 64742,41885 64741,41888 64739,41891 64738,41903 64790,41903 64794,41903 64798,41902 64802,41900 64806,41899 64806,41909 64831,41909 64831,41905 64860,41905 64861,41900 64861,41895 64861,41890 64860,41885 64856,41879 64854,41872 64854,41865 64855,41859 64857,41851 64865,41847 64873,41842 64881,41836 64887,41829 64892,41821 64896,41812 64899,41803 64901,41794 64927,41794 64928,41809 64938,41809 64937,41794 64949,41793 64949,41807 64951,41820 64953,41833 64956,41846 64960,41859 64964,41872 64970,41884 64975,41896 64982,41907 64989,41919 64997,41930 65005,41940 65014,41950 65024,41959 65034,41968 65044,41976 65055,41984 65066,41991 65078,41997 65090,42003 65103,42008 65115,42012 65128,42016 65141,42018 65155,42021 65168,42022 65182,42022 65195,42022 65208,42021 65222,42020 65235,42017 65248,42014 65260,42010 65273,42005 65285,42000 65297,41994 65309,41987 65320,41980 65330,41972 65341,41964 65351,41955 65360,41945 65368,41935 65376,41924 65384,41913 65391,41902 65397,41890 65402,41878 65407,41865 65411,41853 65415,41840 65417,41827 65419,41813 65420,41800 65421,41787 65420,41774 65419,41760 65418,41747 65415,41734 65412,41721 65407,41708 65403,41696 65397,41684 65391,41672 65401,41666 65409,41681 65415,41696 65424,41690 65419,41679 65413,41668 65407,41657 65401,41646 65394,41636 65386,41626 65378,41616 65369,41607 65360,41598 65351,41590 65341,41582 65331,41574 65321,41568 65310,41561 65299,41555 65287,41550 65276,41545 65264,41541 65252,41538 65240,41535 65228,41532 65215,41531 65203,41529 65190,41529 65178,41529 65165,41530 65153,41531 65139,41533 65127,41535 65115,41538 65103,41542 65091,41546 65038,41423 65057,41387 65059,41384 65061,41382 65064,41381 65067,41380 65082,41379 65086,41377 65088,41373 65089,41370 65088,41365 65086,41362 65083,41360 65079,41358 65075,41359 65078,41353 65080,41347 65080,41341 65080,41334 65075,41313 65070,41291 65064,41270 65057,41249 65050,41228 65042,41207 65033,41186 65024,41166 65017,41148 65009,41130 65000,41113 64991,41096 64981,41080 64971,41064 64960,41048 64948,41033 64937,41018 64924,41003 64911,40989 64898,40976 64884,40963 64870,40950 64855,40938 64840,40926 64850,40925 64847,40917 64843,40910 64839,40903 64833,40897 64834,40886 64832,40874 64830,40863 64827,40853 64822,40842 64817,40832 64810,40823 64802,40815 64798,40811 64793,40808 64788,40805 64783,40802 64777,40800 64771,40799 64765,40799 64760,40799 64753,40799 64747,40801 64741,40804 64736,40808 64723,40822 64710,40837 64698,40852 64687,40868 64686,40871 64685,40875 64685,40878 64686,40882 64687,40885 64688,40888 64691,40891 64693,40893 64698,40895 64702,40898 64706,40904 64710,40908 64714,40913 64719,40916 64719,40923 64718,40930 64719,40937 64719,40944 64721,40946 64723,40947 64726,40948 64728,40947 64731,40945 64737,40955 64745,40955 64745,40964 64750,40966 64754,40971 64757,40976 64759,40981 64758,40983 64759,40985 64760,40986 64762,40987 64763,40987 64766,40985 64767,40984 64782,40968 64785,40966 64789,40966 64792,40968 64794,40970 64796,40973 64795,40977 64794,40980 64792,40982 64775,41002 64774,41026 64774,41049 64776,41073 64779,41097 64784,41120 64790,41144 64797,41167 64805,41189 64796,41205 64785,41220 64774,41234 64762,41248 64750,41262 64737,41274 64724,41287 64710,41298 64707,41301 64703,41301 64680,41300 64673,41300 64666,41301 64659,41304 64654,41309 64642,41321 64629,41333 64629,41337 64630,41341 64603,41340 64577,41338 64508,41562 64494,41556 64479,41550 64464,41545 64449,41541 64434,41538 64419,41536 64403,41535 64388,41535 64372,41536 64357,41537 64341,41540 64326,41543 64311,41548 64297,41553 64283,41560 64269,41567 64274,41575 64288,41568 64301,41562 64315,41557 64330,41553 64344,41549 64359,41547 64374,41545 64389,41545 64404,41545 64419,41546 64434,41548 64449,41551 64463,41555 64477,41560 64491,41565 64505,41572 64501,41583 64484,41575 64466,41568 64448,41563 64429,41559 64410,41557 64391,41556 64372,41557 64353,41559 64334,41563 64316,41569 64298,41576 64281,41584 64265,41594 64249,41605 64234,41617 64221,41630 64208,41645 64197,41660 64187,41676 64178,41693 64171,41711 64165,41729 64161,41748 64158,41767 64157,41786 64157,41805 64159,41824 64162,41843 64167,41861 64173,41879 64181,41897 64190,41914 64201,41930 64213,41945 64226,41959 64240,41972 64254,41984 64270,41994 64287,42003 64305,42011 64323,42018 64341,42023 64360,42026 64379,42028 64398,42028 64417,42027 64436,42024 64454,42020 64473,42014 64490,42007 64507,41998 64524,41988 64539,41977 64553,41965 64567,41951 64579,41936 64590,41921 64600,41904 64608,41887 64615,41869 64621,41851 64625,41832 64627,41813 64628,41794 64639,41794 64639,41806 64649,41806 64649,41789 64648,41771 64646,41753 64643,41736 64639,41719 64633,41702 64626,41686 64618,41670 64609,41654 64599,41640 64588,41626 64576,41613 64564,41600 64550,41589 64536,41579 64521,41569 Z"/>
   </g>
  </g>
  <g class="com.sun.star.drawing.PolyPolygonShape">
   <g id="id8">
    <rect class="BoundingBox" stroke="none" fill="none" x="64156" y="40798" width="1270" height="1232"/>
    <path fill="rgb(0,0,0)" stroke="none" d="M 64801,41458 L 64767,41512 64746,41487 64801,41458 Z M 65024,41418 L 65039,41389 65007,41418 65024,41418 Z M 64842,41319 L 64846,41317 64848,41314 64851,41311 64852,41308 64854,41303 64855,41302 64862,41297 64867,41292 64870,41289 64872,41285 64876,41274 64878,41270 64879,41266 64879,41261 64879,41257 64876,41250 64875,41243 64874,41235 64874,41228 64873,41235 64871,41240 64868,41246 64863,41251 64781,41321 64774,41328 64766,41334 64758,41338 64749,41342 64734,41346 64719,41349 64719,41341 64701,41343 64695,41360 64675,41353 64672,41360 64669,41362 64667,41362 64664,41361 64662,41359 64663,41361 64663,41363 64662,41364 64661,41366 64659,41367 64657,41368 64655,41368 64653,41367 64647,41364 64641,41362 64627,41362 64613,41362 64599,41361 64586,41358 64567,41420 64634,41420 64842,41319 Z M 65394,41653 L 65383,41659 65372,41642 65359,41627 65345,41613 65329,41599 65313,41588 65296,41578 65277,41569 65259,41562 65239,41556 65219,41553 65199,41551 65179,41550 65159,41552 65138,41555 65119,41560 65100,41566 65095,41555 65105,41552 65115,41549 65125,41546 65136,41543 65146,41541 65157,41540 65168,41539 65179,41539 65189,41539 65200,41539 65210,41540 65221,41541 65231,41543 65242,41545 65252,41548 65262,41551 65272,41554 65282,41558 65292,41563 65301,41567 65310,41573 65319,41578 65328,41584 65337,41590 65345,41597 65353,41604 65360,41611 65368,41619 65375,41627 65381,41635 65388,41644 65394,41653 Z M 64927,41781 L 64901,41782 64900,41774 64898,41766 64896,41759 64892,41752 64888,41746 64883,41740 64878,41734 64872,41730 65028,41442 65076,41553 65060,41561 65044,41570 65030,41581 65016,41592 65003,41604 64990,41617 64979,41631 64969,41646 64960,41661 64951,41677 64944,41694 64939,41711 64934,41728 64931,41746 64928,41764 64927,41781 Z M 64854,41639 L 64853,41630 64852,41621 64853,41611 64855,41602 64858,41593 64861,41584 64865,41576 64870,41568 64996,41432 65017,41431 64858,41724 64854,41639 Z M 64755,41643 L 64621,41480 64617,41475 64615,41470 64613,41464 64612,41458 64612,41452 64613,41446 64615,41440 64617,41435 64562,41435 64549,41476 64755,41688 64755,41643 Z M 64410,41761 L 64428,41743 64436,41734 64444,41724 64451,41713 64458,41702 64464,41691 64470,41680 64475,41668 64479,41656 64495,41603 64480,41596 64463,41589 64447,41584 64430,41580 64412,41578 64395,41577 64377,41578 64360,41580 64343,41583 64326,41587 64310,41594 64294,41601 64279,41610 64264,41619 64251,41631 64238,41643 64227,41656 64216,41669 64207,41684 64199,41700 64192,41716 64186,41732 64182,41749 64179,41767 64178,41784 64178,41801 64179,41819 64182,41836 64186,41853 64192,41870 64199,41886 64207,41901 64217,41916 64227,41930 64239,41943 64252,41955 64265,41966 64280,41975 64295,41984 64311,41991 64327,41997 64344,42002 64361,42005 64379,42007 64396,42007 64414,42006 64431,42004 64448,42000 64464,41995 64481,41988 64496,41980 64511,41971 64525,41961 64538,41950 64551,41937 64562,41924 64572,41910 64581,41895 64589,41879 64595,41863 64600,41846 64604,41829 64606,41812 64607,41794 64428,41794 64427,41800 64426,41805 64423,41811 64420,41815 64416,41819 64411,41823 64406,41825 64400,41827 64395,41828 64389,41828 64383,41827 64378,41825 64373,41822 64368,41819 64364,41814 64361,41809 64359,41804 64357,41798 64357,41793 64357,41787 64358,41781 64360,41776 64363,41771 64367,41766 64372,41763 64377,41760 64382,41758 64388,41756 64393,41756 64399,41757 64405,41758 64410,41761 Z M 64639,41782 L 64628,41782 64627,41768 64625,41754 64622,41739 64618,41725 64614,41711 64608,41698 64602,41685 64595,41672 64587,41660 64579,41648 64570,41637 64560,41626 64549,41616 64538,41607 64526,41598 64514,41590 64518,41579 64531,41587 64543,41596 64555,41606 64567,41616 64577,41628 64587,41639 64596,41652 64604,41665 64612,41679 64619,41692 64624,41707 64629,41722 64633,41736 64636,41752 64638,41767 64639,41782 Z M 64421,41770 L 64424,41776 64427,41782 64607,41782 64606,41770 64604,41757 64602,41744 64599,41732 64595,41720 64590,41707 64584,41696 64578,41685 64572,41674 64564,41663 64556,41653 64547,41643 64538,41634 64529,41626 64519,41618 64508,41611 64493,41660 64488,41673 64483,41686 64477,41698 64471,41710 64464,41721 64456,41732 64447,41743 64438,41753 64421,41770 Z M 65365,41669 L 65223,41755 65218,41750 65213,41746 65207,41743 65201,41740 65194,41738 65188,41738 65181,41738 65174,41739 65108,41585 65125,41580 65143,41575 65162,41572 65180,41571 65198,41572 65216,41574 65234,41577 65252,41582 65269,41588 65286,41596 65301,41605 65316,41616 65330,41628 65343,41641 65355,41655 65365,41669 Z M 65136,41791 L 65137,41796 65138,41802 65140,41807 65142,41811 65145,41816 65150,41820 65153,41823 65157,41827 65162,41829 65167,41832 65172,41833 65177,41834 65182,41835 65187,41835 65193,41835 65198,41834 65203,41832 65207,41830 65212,41827 65216,41824 65220,41820 65224,41816 65227,41812 65229,41807 65231,41803 65233,41798 65234,41792 65234,41787 65234,41782 65233,41777 65232,41772 65230,41766 65373,41682 65379,41693 65384,41704 65388,41716 65392,41727 65395,41739 65397,41751 65399,41763 65400,41775 65400,41787 65400,41799 65399,41811 65397,41823 65394,41835 65391,41847 65387,41859 65383,41870 65378,41881 65372,41892 65366,41902 65359,41912 65352,41922 65344,41931 65336,41940 65327,41948 65317,41956 65308,41963 65297,41970 65287,41976 65276,41981 65265,41986 65254,41990 65242,41994 65230,41997 65218,41999 65206,42000 65194,42001 65182,42001 65170,42001 65158,42000 65145,41998 65133,41995 65121,41992 65110,41988 65099,41984 65088,41979 65077,41973 65067,41966 65057,41960 65047,41952 65038,41944 65029,41936 65021,41927 65014,41917 65007,41907 65000,41897 64994,41886 64989,41875 64984,41864 64980,41853 64977,41841 64974,41829 64972,41817 64970,41805 64970,41793 65136,41791 Z M 65080,41562 L 65084,41573 65070,41580 65056,41589 65042,41598 65030,41608 65018,41619 65006,41632 64996,41644 64987,41658 64978,41672 64971,41686 64964,41701 64959,41717 64955,41733 64952,41749 64950,41765 64949,41781 64937,41781 64938,41764 64940,41747 64943,41730 64948,41714 64954,41697 64960,41681 64968,41666 64977,41651 64987,41637 64998,41624 65009,41611 65022,41599 65035,41589 65049,41579 65064,41570 65080,41562 Z M 65159,41745 L 65092,41592 65079,41599 65067,41606 65054,41615 65043,41624 65032,41634 65022,41645 65013,41657 65004,41669 64996,41682 64990,41695 64984,41709 64979,41723 64975,41737 64972,41752 64970,41766 64970,41781 65136,41781 65137,41775 65138,41770 65140,41765 65143,41760 65146,41756 65151,41752 65155,41748 65159,41745 Z M 64521,41569 L 64544,41494 64755,41710 64755,41853 64802,41853 64802,41857 64802,41861 64801,41864 64799,41868 64796,41871 64793,41873 64790,41875 64786,41876 64748,41883 64745,41884 64742,41885 64741,41888 64739,41891 64738,41903 64790,41903 64794,41903 64798,41902 64802,41900 64806,41899 64806,41909 64831,41909 64831,41905 64860,41905 64861,41900 64861,41895 64861,41890 64860,41885 64856,41879 64854,41872 64854,41865 64855,41859 64857,41851 64865,41847 64873,41842 64881,41836 64887,41829 64892,41821 64896,41812 64899,41803 64901,41794 64927,41794 64928,41809 64938,41809 64937,41794 64949,41793 64949,41807 64951,41820 64953,41833 64956,41846 64960,41859 64964,41872 64970,41884 64975,41896 64982,41907 64989,41919 64997,41930 65005,41940 65014,41950 65024,41959 65034,41968 65044,41976 65055,41984 65066,41991 65078,41997 65090,42003 65103,42008 65115,42012 65128,42016 65141,42018 65155,42021 65168,42022 65182,42022 65195,42022 65208,42021 65222,42020 65235,42017 65248,42014 65260,42010 65273,42005 65285,42000 65297,41994 65309,41987 65320,41980 65330,41972 65341,41964 65351,41955 65360,41945 65368,41935 65376,41924 65384,41913 65391,41902 65397,41890 65402,41878 65407,41865 65411,41853 65415,41840 65417,41827 65419,41813 65420,41800 65421,41787 65420,41774 65419,41760 65418,41747 65415,41734 65412,41721 65407,41708 65403,41696 65397,41684 65391,41672 65401,41666 65409,41681 65415,41696 65424,41690 65419,41679 65413,41668 65407,41657 65401,41646 65394,41636 65386,41626 65378,41616 65369,41607 65360,41598 65351,41590 65341,41582 65331,41574 65321,41568 65310,41561 65299,41555 65287,41550 65276,41545 65264,41541 65252,41538 65240,41535 65228,41532 65215,41531 65203,41529 65190,41529 65178,41529 65165,41530 65153,41531 65139,41533 65127,41535 65115,41538 65103,41542 65091,41546 65038,41423 65057,41387 65059,41384 65061,41382 65064,41381 65067,41380 65082,41379 65086,41377 65088,41373 65089,41370 65088,41365 65086,41362 65083,41360 65079,41358 65075,41359 65078,41353 65080,41347 65080,41341 65080,41334 65075,41313 65070,41291 65064,41270 65057,41249 65050,41228 65042,41207 65033,41186 65024,41166 65017,41148 65009,41130 65000,41113 64991,41096 64981,41080 64971,41064 64960,41048 64948,41033 64937,41018 64924,41003 64911,40989 64898,40976 64884,40963 64870,40950 64855,40938 64840,40926 64850,40925 64847,40917 64843,40910 64839,40903 64833,40897 64834,40886 64832,40874 64830,40863 64827,40853 64822,40842 64817,40832 64810,40823 64802,40815 64798,40811 64793,40808 64788,40805 64783,40802 64777,40800 64771,40799 64765,40799 64760,40799 64753,40799 64747,40801 64741,40804 64736,40808 64723,40822 64710,40837 64698,40852 64687,40868 64686,40871 64685,40875 64685,40878 64686,40882 64687,40885 64688,40888 64691,40891 64693,40893 64698,40895 64702,40898 64706,40904 64710,40908 64714,40913 64719,40916 64719,40923 64718,40930 64719,40937 64719,40944 64721,40946 64723,40947 64726,40948 64728,40947 64731,40945 64737,40955 64745,40955 64745,40964 64750,40966 64754,40971 64757,40976 64759,40981 64758,40983 64759,40985 64760,40986 64762,40987 64763,40987 64766,40985 64767,40984 64782,40968 64785,40966 64789,40966 64792,40968 64794,40970 64796,40973 64795,40977 64794,40980 64792,40982 64775,41002 64774,41026 64774,41049 64776,41073 64779,41097 64784,41120 64790,41144 64797,41167 64805,41189 64796,41205 64785,41220 64774,41234 64762,41248 64750,41262 64737,41274 64724,41287 64710,41298 64707,41301 64703,41301 64680,41300 64673,41300 64666,41301 64659,41304 64654,41309 64642,41321 64629,41333 64629,41337 64630,41341 64603,41340 64577,41338 64508,41562 64494,41556 64479,41550 64464,41545 64449,41541 64434,41538 64419,41536 64403,41535 64388,41535 64372,41536 64357,41537 64341,41540 64326,41543 64311,41548 64297,41553 64283,41560 64269,41567 64274,41575 64288,41568 64301,41562 64315,41557 64330,41553 64344,41549 64359,41547 64374,41545 64389,41545 64404,41545 64419,41546 64434,41548 64449,41551 64463,41555 64477,41560 64491,41565 64505,41572 64501,41583 64484,41575 64466,41568 64448,41563 64429,41559 64410,41557 64391,41556 64372,41557 64353,41559 64334,41563 64316,41569 64298,41576 64281,41584 64265,41594 64249,41605 64234,41617 64221,41630 64208,41645 64197,41660 64187,41676 64178,41693 64171,41711 64165,41729 64161,41748 64158,41767 64157,41786 64157,41805 64159,41824 64162,41843 64167,41861 64173,41879 64181,41897 64190,41914 64201,41930 64213,41945 64226,41959 64240,41972 64254,41984 64270,41994 64287,42003 64305,42011 64323,42018 64341,42023 64360,42026 64379,42028 64398,42028 64417,42027 64436,42024 64454,42020 64473,42014 64490,42007 64507,41998 64524,41988 64539,41977 64553,41965 64567,41951 64579,41936 64590,41921 64600,41904 64608,41887 64615,41869 64621,41851 64625,41832 64627,41813 64628,41794 64639,41794 64639,41806 64649,41806 64649,41789 64648,41771 64646,41753 64643,41736 64639,41719 64633,41702 64626,41686 64618,41670 64609,41654 64599,41640 64588,41626 64576,41613 64564,41600 64550,41589 64536,41579 64521,41569 Z"/>
    <path fill="none" stroke="rgb(0,0,0)" d="M 64801,41458 L 64767,41512 64746,41487 64801,41458 Z"/>
    <path fill="none" stroke="rgb(0,0,0)" d="M 65024,41418 L 65039,41389 65007,41418 65024,41418 Z"/>
    <path fill="none" stroke="rgb(0,0,0)" d="M 64842,41319 L 64846,41317 64848,41314 64851,41311 64852,41308 64854,41303 64855,41302 64862,41297 64867,41292 64870,41289 64872,41285 64876,41274 64878,41270 64879,41266 64879,41261 64879,41257 64876,41250 64875,41243 64874,41235 64874,41228 64873,41235 64871,41240 64868,41246 64863,41251 64781,41321 64774,41328 64766,41334 64758,41338 64749,41342 64734,41346 64719,41349 64719,41341 64701,41343 64695,41360 64675,41353 64672,41360 64669,41362 64667,41362 64664,41361 64662,41359 64663,41361 64663,41363 64662,41364 64661,41366 64659,41367 64657,41368 64655,41368 64653,41367 64647,41364 64641,41362 64627,41362 64613,41362 64599,41361 64586,41358 64567,41420 64634,41420 64842,41319 Z"/>
    <path fill="none" stroke="rgb(0,0,0)" d="M 65394,41653 L 65383,41659 65372,41642 65359,41627 65345,41613 65329,41599 65313,41588 65296,41578 65277,41569 65259,41562 65239,41556 65219,41553 65199,41551 65179,41550 65159,41552 65138,41555 65119,41560 65100,41566 65095,41555 65105,41552 65115,41549 65125,41546 65136,41543 65146,41541 65157,41540 65168,41539 65179,41539 65189,41539 65200,41539 65210,41540 65221,41541 65231,41543 65242,41545 65252,41548 65262,41551 65272,41554 65282,41558 65292,41563 65301,41567 65310,41573 65319,41578 65328,41584 65337,41590 65345,41597 65353,41604 65360,41611 65368,41619 65375,41627 65381,41635 65388,41644 65394,41653 Z"/>
    <path fill="none" stroke="rgb(0,0,0)" d="M 64927,41781 L 64901,41782 64900,41774 64898,41766 64896,41759 64892,41752 64888,41746 64883,41740 64878,41734 64872,41730 65028,41442 65076,41553 65060,41561 65044,41570 65030,41581 65016,41592 65003,41604 64990,41617 64979,41631 64969,41646 64960,41661 64951,41677 64944,41694 64939,41711 64934,41728 64931,41746 64928,41764 64927,41781 Z"/>
    <path fill="none" stroke="rgb(0,0,0)" d="M 64854,41639 L 64853,41630 64852,41621 64853,41611 64855,41602 64858,41593 64861,41584 64865,41576 64870,41568 64996,41432 65017,41431 64858,41724 64854,41639 Z"/>
    <path fill="none" stroke="rgb(0,0,0)" d="M 64755,41643 L 64621,41480 64617,41475 64615,41470 64613,41464 64612,41458 64612,41452 64613,41446 64615,41440 64617,41435 64562,41435 64549,41476 64755,41688 64755,41643 Z"/>
    <path fill="none" stroke="rgb(0,0,0)" d="M 64410,41761 L 64428,41743 64436,41734 64444,41724 64451,41713 64458,41702 64464,41691 64470,41680 64475,41668 64479,41656 64495,41603 64480,41596 64463,41589 64447,41584 64430,41580 64412,41578 64395,41577 64377,41578 64360,41580 64343,41583 64326,41587 64310,41594 64294,41601 64279,41610 64264,41619 64251,41631 64238,41643 64227,41656 64216,41669 64207,41684 64199,41700 64192,41716 64186,41732 64182,41749 64179,41767 64178,41784 64178,41801 64179,41819 64182,41836 64186,41853 64192,41870 64199,41886 64207,41901 64217,41916 64227,41930 64239,41943 64252,41955 64265,41966 64280,41975 64295,41984 64311,41991 64327,41997 64344,42002 64361,42005 64379,42007 64396,42007 64414,42006 64431,42004 64448,42000 64464,41995 64481,41988 64496,41980 64511,41971 64525,41961 64538,41950 64551,41937 64562,41924 64572,41910 64581,41895 64589,41879 64595,41863 64600,41846 64604,41829 64606,41812 64607,41794 64428,41794 64427,41800 64426,41805 64423,41811 64420,41815 64416,41819 64411,41823 64406,41825 64400,41827 64395,41828 64389,41828 64383,41827 64378,41825 64373,41822 64368,41819 64364,41814 64361,41809 64359,41804 64357,41798 64357,41793 64357,41787 64358,41781 64360,41776 64363,41771 64367,41766 64372,41763 64377,41760 64382,41758 64388,41756 64393,41756 64399,41757 64405,41758 64410,41761 Z"/>
    <path fill="none" stroke="rgb(0,0,0)" d="M 64639,41782 L 64628,41782 64627,41768 64625,41754 64622,41739 64618,41725 64614,41711 64608,41698 64602,41685 64595,41672 64587,41660 64579,41648 64570,41637 64560,41626 64549,41616 64538,41607 64526,41598 64514,41590 64518,41579 64531,41587 64543,41596 64555,41606 64567,41616 64577,41628 64587,41639 64596,41652 64604,41665 64612,41679 64619,41692 64624,41707 64629,41722 64633,41736 64636,41752 64638,41767 64639,41782 Z"/>
    <path fill="none" stroke="rgb(0,0,0)" d="M 64421,41770 L 64424,41776 64427,41782 64607,41782 64606,41770 64604,41757 64602,41744 64599,41732 64595,41720 64590,41707 64584,41696 64578,41685 64572,41674 64564,41663 64556,41653 64547,41643 64538,41634 64529,41626 64519,41618 64508,41611 64493,41660 64488,41673 64483,41686 64477,41698 64471,41710 64464,41721 64456,41732 64447,41743 64438,41753 64421,41770 Z"/>
    <path fill="none" stroke="rgb(0,0,0)" d="M 65365,41669 L 65223,41755 65218,41750 65213,41746 65207,41743 65201,41740 65194,41738 65188,41738 65181,41738 65174,41739 65108,41585 65125,41580 65143,41575 65162,41572 65180,41571 65198,41572 65216,41574 65234,41577 65252,41582 65269,41588 65286,41596 65301,41605 65316,41616 65330,41628 65343,41641 65355,41655 65365,41669 Z"/>
    <path fill="none" stroke="rgb(0,0,0)" d="M 65136,41791 L 65137,41796 65138,41802 65140,41807 65142,41811 65145,41816 65150,41820 65153,41823 65157,41827 65162,41829 65167,41832 65172,41833 65177,41834 65182,41835 65187,41835 65193,41835 65198,41834 65203,41832 65207,41830 65212,41827 65216,41824 65220,41820 65224,41816 65227,41812 65229,41807 65231,41803 65233,41798 65234,41792 65234,41787 65234,41782 65233,41777 65232,41772 65230,41766 65373,41682 65379,41693 65384,41704 65388,41716 65392,41727 65395,41739 65397,41751 65399,41763 65400,41775 65400,41787 65400,41799 65399,41811 65397,41823 65394,41835 65391,41847 65387,41859 65383,41870 65378,41881 65372,41892 65366,41902 65359,41912 65352,41922 65344,41931 65336,41940 65327,41948 65317,41956 65308,41963 65297,41970 65287,41976 65276,41981 65265,41986 65254,41990 65242,41994 65230,41997 65218,41999 65206,42000 65194,42001 65182,42001 65170,42001 65158,42000 65145,41998 65133,41995 65121,41992 65110,41988 65099,41984 65088,41979 65077,41973 65067,41966 65057,41960 65047,41952 65038,41944 65029,41936 65021,41927 65014,41917 65007,41907 65000,41897 64994,41886 64989,41875 64984,41864 64980,41853 64977,41841 64974,41829 64972,41817 64970,41805 64970,41793 65136,41791 Z"/>
    <path fill="none" stroke="rgb(0,0,0)" d="M 65080,41562 L 65084,41573 65070,41580 65056,41589 65042,41598 65030,41608 65018,41619 65006,41632 64996,41644 64987,41658 64978,41672 64971,41686 64964,41701 64959,41717 64955,41733 64952,41749 64950,41765 64949,41781 64937,41781 64938,41764 64940,41747 64943,41730 64948,41714 64954,41697 64960,41681 64968,41666 64977,41651 64987,41637 64998,41624 65009,41611 65022,41599 65035,41589 65049,41579 65064,41570 65080,41562 Z"/>
    <path fill="none" stroke="rgb(0,0,0)" d="M 65159,41745 L 65092,41592 65079,41599 65067,41606 65054,41615 65043,41624 65032,41634 65022,41645 65013,41657 65004,41669 64996,41682 64990,41695 64984,41709 64979,41723 64975,41737 64972,41752 64970,41766 64970,41781 65136,41781 65137,41775 65138,41770 65140,41765 65143,41760 65146,41756 65151,41752 65155,41748 65159,41745 Z"/>
    <path fill="none" stroke="rgb(0,0,0)" d="M 64521,41569 L 64544,41494 64755,41710 64755,41853 64802,41853 64802,41857 64802,41861 64801,41864 64799,41868 64796,41871 64793,41873 64790,41875 64786,41876 64748,41883 64745,41884 64742,41885 64741,41888 64739,41891 64738,41903 64790,41903 64794,41903 64798,41902 64802,41900 64806,41899 64806,41909 64831,41909 64831,41905 64860,41905 64861,41900 64861,41895 64861,41890 64860,41885 64856,41879 64854,41872 64854,41865 64855,41859 64857,41851 64865,41847 64873,41842 64881,41836 64887,41829 64892,41821 64896,41812 64899,41803 64901,41794 64927,41794 64928,41809 64938,41809 64937,41794 64949,41793 64949,41807 64951,41820 64953,41833 64956,41846 64960,41859 64964,41872 64970,41884 64975,41896 64982,41907 64989,41919 64997,41930 65005,41940 65014,41950 65024,41959 65034,41968 65044,41976 65055,41984 65066,41991 65078,41997 65090,42003 65103,42008 65115,42012 65128,42016 65141,42018 65155,42021 65168,42022 65182,42022 65195,42022 65208,42021 65222,42020 65235,42017 65248,42014 65260,42010 65273,42005 65285,42000 65297,41994 65309,41987 65320,41980 65330,41972 65341,41964 65351,41955 65360,41945 65368,41935 65376,41924 65384,41913 65391,41902 65397,41890 65402,41878 65407,41865 65411,41853 65415,41840 65417,41827 65419,41813 65420,41800 65421,41787 65420,41774 65419,41760 65418,41747 65415,41734 65412,41721 65407,41708 65403,41696 65397,41684 65391,41672 65401,41666 65409,41681 65415,41696 65424,41690 65419,41679 65413,41668 65407,41657 65401,41646 65394,41636 65386,41626 65378,41616 65369,41607 65360,41598 65351,41590 65341,41582 65331,41574 65321,41568 65310,41561 65299,41555 65287,41550 65276,41545 65264,41541 65252,41538 65240,41535 65228,41532 65215,41531 65203,41529 65190,41529 65178,41529 65165,41530 65153,41531 65139,41533 65127,41535 65115,41538 65103,41542 65091,41546 65038,41423 65057,41387 65059,41384 65061,41382 65064,41381 65067,41380 65082,41379 65086,41377 65088,41373 65089,41370 65088,41365 65086,41362 65083,41360 65079,41358 65075,41359 65078,41353 65080,41347 65080,41341 65080,41334 65075,41313 65070,41291 65064,41270 65057,41249 65050,41228 65042,41207 65033,41186 65024,41166 65017,41148 65009,41130 65000,41113 64991,41096 64981,41080 64971,41064 64960,41048 64948,41033 64937,41018 64924,41003 64911,40989 64898,40976 64884,40963 64870,40950 64855,40938 64840,40926 64850,40925 64847,40917 64843,40910 64839,40903 64833,40897 64834,40886 64832,40874 64830,40863 64827,40853 64822,40842 64817,40832 64810,40823 64802,40815 64798,40811 64793,40808 64788,40805 64783,40802 64777,40800 64771,40799 64765,40799 64760,40799 64753,40799 64747,40801 64741,40804 64736,40808 64723,40822 64710,40837 64698,40852 64687,40868 64686,40871 64685,40875 64685,40878 64686,40882 64687,40885 64688,40888 64691,40891 64693,40893 64698,40895 64702,40898 64706,40904 64710,40908 64714,40913 64719,40916 64719,40923 64718,40930 64719,40937 64719,40944 64721,40946 64723,40947 64726,40948 64728,40947 64731,40945 64737,40955 64745,40955 64745,40964 64750,40966 64754,40971 64757,40976 64759,40981 64758,40983 64759,40985 64760,40986 64762,40987 64763,40987 64766,40985 64767,40984 64782,40968 64785,40966 64789,40966 64792,40968 64794,40970 64796,40973 64795,40977 64794,40980 64792,40982 64775,41002 64774,41026 64774,41049 64776,41073 64779,41097 64784,41120 64790,41144 64797,41167 64805,41189 64796,41205 64785,41220 64774,41234 64762,41248 64750,41262 64737,41274 64724,41287 64710,41298 64707,41301 64703,41301 64680,41300 64673,41300 64666,41301 64659,41304 64654,41309 64642,41321 64629,41333 64629,41337 64630,41341 64603,41340 64577,41338 64508,41562 64494,41556 64479,41550 64464,41545 64449,41541 64434,41538 64419,41536 64403,41535 64388,41535 64372,41536 64357,41537 64341,41540 64326,41543 64311,41548 64297,41553 64283,41560 64269,41567 64274,41575 64288,41568 64301,41562 64315,41557 64330,41553 64344,41549 64359,41547 64374,41545 64389,41545 64404,41545 64419,41546 64434,41548 64449,41551 64463,41555 64477,41560 64491,41565 64505,41572 64501,41583 64484,41575 64466,41568 64448,41563 64429,41559 64410,41557 64391,41556 64372,41557 64353,41559 64334,41563 64316,41569 64298,41576 64281,41584 64265,41594 64249,41605 64234,41617 64221,41630 64208,41645 64197,41660 64187,41676 64178,41693 64171,41711 64165,41729 64161,41748 64158,41767 64157,41786 64157,41805 64159,41824 64162,41843 64167,41861 64173,41879 64181,41897 64190,41914 64201,41930 64213,41945 64226,41959 64240,41972 64254,41984 64270,41994 64287,42003 64305,42011 64323,42018 64341,42023 64360,42026 64379,42028 64398,42028 64417,42027 64436,42024 64454,42020 64473,42014 64490,42007 64507,41998 64524,41988 64539,41977 64553,41965 64567,41951 64579,41936 64590,41921 64600,41904 64608,41887 64615,41869 64621,41851 64625,41832 64627,41813 64628,41794 64639,41794 64639,41806 64649,41806 64649,41789 64648,41771 64646,41753 64643,41736 64639,41719 64633,41702 64626,41686 64618,41670 64609,41654 64599,41640 64588,41626 64576,41613 64564,41600 64550,41589 64536,41579 64521,41569 Z"/>
   </g>
  </g>
 </g>
</svg>