<?xml version="1.0" encoding="utf-8"?>
<!-- Generator: Adobe Illustrator 14.0.0, SVG Export Plug-In . SVG Version: 6.00 Build 43363)  -->
<!DOCTYPE svg PUBLIC "-//W3C//DTD SVG 1.1//EN" "http://www.w3.org/Graphics/SVG/1.1/DTD/svg11.dtd">
<svg version="1.1" id="Calque_1" xmlns="http://www.w3.org/2000/svg" xmlns:xlink="http://www.w3.org/1999/xlink" x="0px" y="0px"
	 width="136.659px" height="91.559px" viewBox="0 0 136.659 91.559" enable-background="new 0 0 136.659 91.559"
	 xml:space="preserve">
<path fill="#0071B3" d="M11.275,0h114.909c5.758,0,10.475,4.73,10.475,10.503v70.552c0,5.773-4.717,10.504-10.475,10.504H10.476
	C4.718,91.559,0,86.828,0,81.055V9.942C0,4.169,5.518,0,11.275,0z"/>
<path fill="none" stroke="#0071B3" stroke-width="0" stroke-miterlimit="3.863" d="M11.275,0h114.909
	c5.758,0,10.475,4.73,10.475,10.503v70.552c0,5.773-4.717,10.504-10.475,10.504H10.476C4.718,91.559,0,86.828,0,81.055V9.942
	C0,4.169,5.518,0,11.275,0z"/>
<path fill="#FFFFFF" d="M12.234,3.688h112.191c5.518,0,8.556,3.047,8.556,8.338v67.828c0,5.29-3.438,7.936-8.955,7.936H12.315
	c-5.518,0-8.557-3.206-8.557-8.498V11.064C3.758,5.853,6.797,3.688,12.234,3.688z"/>
<path fill="none" stroke="#FFFFFF" stroke-width="0" stroke-miterlimit="3.863" d="M12.234,3.688h112.191
	c5.518,0,8.556,3.047,8.556,8.338v67.828c0,5.29-3.438,7.936-8.955,7.936H12.315c-5.518,0-8.557-3.206-8.557-8.498V11.064
	C3.758,5.853,6.797,3.688,12.234,3.688z"/>
<path fill="#0071B3" d="M13.354,7.135h109.871c5.197,0,6.317,1.685,6.317,6.575v64.618c0,4.891-2.399,6.095-7.597,6.095H14.714
	c-5.198,0-7.597-1.604-7.597-6.415V12.187C7.117,7.376,8.236,7.135,13.354,7.135z"/>
<path fill="none" stroke="#0071B3" stroke-width="0" stroke-miterlimit="3.863" d="M13.354,7.135h109.871
	c5.197,0,6.317,1.685,6.317,6.575v64.618c0,4.891-2.399,6.095-7.597,6.095H14.714c-5.198,0-7.597-1.604-7.597-6.415V12.187
	C7.117,7.375,8.236,7.135,13.354,7.135z"/>
<path fill="#FFFFFF" d="M66.451,37.641v-8.538H54.736c-19.432,0-35.184,15.754-35.144,35.236l0.04,13.067h-5.717V64.339
	c0-22.608,18.232-40.888,40.782-40.888h11.755v-8.538l11.315,11.385L66.451,37.641z"/>
<path fill="none" stroke="#FFFFFF" stroke-width="0" stroke-miterlimit="3.863" d="M66.451,37.641v-8.538H54.736
	c-19.432,0-35.184,15.754-35.144,35.236l0.04,13.067h-5.717V64.339c0-22.608,18.232-40.888,40.782-40.888h11.755v-8.538
	l11.315,11.385L66.451,37.641z"/>
<path fill="#ED1C24" d="M93.838,19.162c-0.6-0.962-1.639-1.524-2.799-1.524c-1.199,0-1.719,0.562-2.318,1.443L59.494,68.428
	c-1,1.323-0.76,3.447,0.439,4.69c0.72,0.681,1.52,0.962,2.4,0.962h57.894c0.64,0,1.318-0.441,1.879-0.962
	c0.96-1.003,1.199-2.485,0.68-3.769L93.838,19.162z"/>
<path fill="none" stroke="#ED1C24" stroke-width="0" stroke-miterlimit="3.863" d="M93.838,19.162
	c-0.6-0.962-1.639-1.524-2.799-1.524c-1.199,0-1.719,0.562-2.318,1.443L59.494,68.428c-1,1.322-0.76,3.447,0.439,4.69
	c0.72,0.681,1.52,0.962,2.4,0.962h57.894c0.64,0,1.318-0.441,1.879-0.962c0.96-1.003,1.199-2.485,0.68-3.769L93.838,19.162z"/>
<polygon fill-rule="evenodd" clip-rule="evenodd" fill="#FFFFFF" points="113.27,66.824 91,28.021 68.69,66.824 "/>
<polygon fill="none" stroke="#ED1C24" stroke-width="0" stroke-miterlimit="3.863" points="113.27,66.824 91,28.021 68.69,66.824 
	"/>
<path fill-rule="evenodd" clip-rule="evenodd" fill="#120C0E" d="M97.756,63.658c-3.078,0-4.997-3.367-3.479-6.053
	c1.56-2.727,5.398-2.727,6.957,0C102.754,60.291,100.836,63.658,97.756,63.658z"/>
<path fill="none" stroke="#120C0E" stroke-width="0" stroke-miterlimit="3.863" d="M97.756,63.658c-3.078,0-4.997-3.367-3.479-6.053
	c1.56-2.727,5.398-2.727,6.957,0C102.754,60.291,100.836,63.658,97.756,63.658z"/>
<path fill-rule="evenodd" clip-rule="evenodd" fill="#FFFFFF" d="M97.797,63.217c-2.799,0-4.559-3.047-3.159-5.451
	c1.399-2.445,4.878-2.445,6.277,0C102.315,60.17,100.555,63.217,97.797,63.217z"/>
<path fill="none" stroke="#120C0E" stroke-width="0" stroke-miterlimit="3.863" d="M97.797,63.217c-2.799,0-4.559-3.047-3.159-5.451
	c1.399-2.445,4.878-2.445,6.277,0C102.315,60.17,100.555,63.217,97.797,63.217z"/>
<path fill-rule="evenodd" clip-rule="evenodd" fill="#120C0E" d="M97.797,60.41c-0.681,0-1.08-0.682-0.761-1.242
	c0.321-0.521,1.159-0.521,1.48,0C98.836,59.729,98.437,60.41,97.797,60.41z"/>
<path fill="none" stroke="#120C0E" stroke-width="0" stroke-miterlimit="3.863" d="M97.797,60.41c-0.681,0-1.08-0.682-0.761-1.242
	c0.321-0.521,1.159-0.521,1.48,0C98.836,59.729,98.437,60.41,97.797,60.41z"/>
<path fill-rule="evenodd" clip-rule="evenodd" fill="#120C0E" d="M84.243,63.578c-3.078,0-4.998-3.367-3.479-6.055
	c1.56-2.686,5.398-2.686,6.957,0C89.241,60.211,87.321,63.578,84.243,63.578z"/>
<path fill="none" stroke="#120C0E" stroke-width="0" stroke-miterlimit="3.863" d="M84.243,63.578c-3.078,0-4.998-3.367-3.479-6.055
	c1.56-2.686,5.398-2.686,6.957,0C89.241,60.211,87.321,63.578,84.243,63.578z"/>
<path fill-rule="evenodd" clip-rule="evenodd" fill="#FFFFFF" d="M84.282,63.176c-2.798,0-4.558-3.045-3.157-5.451
	c1.399-2.445,4.878-2.445,6.276,0C88.8,60.131,87.042,63.176,84.282,63.176z"/>
<path fill="none" stroke="#120C0E" stroke-width="0" stroke-miterlimit="3.863" d="M84.282,63.176c-2.798,0-4.558-3.045-3.157-5.451
	c1.399-2.445,4.878-2.445,6.276,0C88.801,60.131,87.042,63.176,84.282,63.176z"/>
<path fill-rule="evenodd" clip-rule="evenodd" fill="#120C0E" d="M84.243,60.17c-0.479,0-0.799-0.521-0.56-0.922
	c0.239-0.44,0.88-0.44,1.12,0C85.042,59.648,84.723,60.17,84.243,60.17z"/>
<path fill="none" stroke="#120C0E" stroke-width="0" stroke-miterlimit="3.863" d="M84.243,60.17c-0.479,0-0.799-0.521-0.56-0.922
	c0.239-0.44,0.88-0.44,1.12,0C85.042,59.648,84.723,60.17,84.243,60.17z"/>
<path fill="none" stroke="#120C0E" stroke-width="0.2" stroke-miterlimit="3.863" d="M93.479,60.211c0-0.16,0-0.362,0-0.522
	c0-2.364,1.879-4.329,4.238-4.329c1.84,0,3.358,1.163,4.037,2.686 M82.723,55.52c0.439-0.16,0.92-0.281,1.52-0.281
	c2.398,0,4.278,2.006,4.278,4.37c0,0.08,0,0.24-0.04,0.321"/>
<path fill="#120C0E" d="M92,44.897c0.2,0.24,0.399,0.44,0.681,0.641c0.758,0.562,1.238,1.323,1.678,1.965
	c0.48,0.641,1.6,3.447,1.721,4.489c-0.082,0-0.121,0.281-0.161,0.32c0.12,0,0.2,0.041,0.24,0.16c0,0-0.079,0.041-0.04,0.08
	c-0.039,0.041-0.08,0.041-0.121,0.08c-0.119,0-0.318-0.039-0.398,0.041l-0.32,0.682l2.319,5.532l-0.239,0.12l-2.24-5.412
	l-2.679,5.011c0.161,0.16,0.521,0.481,0.44,0.882h4.157v0.12h-4.157c0.119,0.481-0.44,0.962-0.801,1.122c0,0.08,0,0.201,0,0.281
	c0.041,0.161,0.2,0.281,0.16,0.481H91.76l-0.041,0.08H91.36l-0.041-0.16l-0.119,0.16l-1.08-0.08c0-0.08,0-0.2,0.121-0.24
	c0.319,0,0.6-0.04,0.959-0.282c-0.04-0.039,0.039-0.08,0.039-0.119v-0.16L90.56,60.65l-0.159-2.484l-3.52-3.648l-0.6,1.965
	c-0.279,0.842-0.639,1.844-0.92,2.084c-0.479,0.722-0.879,0.682-0.719,0.842c-0.08-0.08-0.16-0.08-0.16-0.16
	c0-0.12,0.12-0.08,0.359-0.481c0.16-0.24,0.84-1.081,0.96-1.724c0.12-0.32,0.16-0.521,0.2-0.802l1.398-4.368
	c0.28-0.162,0.48,0.119,0.92,0.039c-0.039-0.039,0.041,0,0,0c0-0.08-0.039-0.201-0.039-0.24c0.359,0,0.359-0.722,1.359-0.361
	c0.079-0.04,0.159-0.28,0.239-0.28c0.079-0.2,0.36-0.16,0.44-0.44c0.52-0.321,0.998-0.922,1.08-1.283
	c-0.121-0.48-0.162-0.842-0.321-1.363c-0.399-0.841-0.239-1.242-0.239-1.803c0.239-0.121,0.439-0.402,0.398-0.563
	c0-0.08-0.079-0.08-0.079-0.08c-0.08,0-0.16,0.04-0.319,0.04c-0.08,0.16,0,0.281-0.24,0.281c-0.119,0-0.119-0.201-0.119-0.281
	c0,0-0.041-0.04-0.08-0.04c-0.041,0-0.08-0.04-0.08-0.08c0,0-0.04-0.04-0.08-0.04c-0.041,0-0.081-0.04-0.081-0.08
	c0-0.08,0.081,0,0,0c-0.079-0.04,0.081,0,0,0c-0.359,0.04-0.239-0.48-0.319-0.562c-0.04-0.12-0.24-0.4-0.32-0.44
	c-0.079,0.04-0.159-0.04-0.239-0.04c-0.04-0.161-0.04-0.441,0.2-0.481c-0.04-0.04,0-0.08,0-0.12c0.039,0,0.08-0.04,0.119-0.04
	c0.48-1.002,1.399-1.163,2.119-0.161c0.28,1.444,0.28,1.002,0.439,1.364c-0.039,0-0.08,0.04-0.08,0.04
	C92,44.817,91.919,44.857,92,44.897z"/>
<path fill="none" stroke="#120C0E" stroke-width="0" stroke-miterlimit="3.863" d="M92,44.897c0.2,0.24,0.399,0.44,0.681,0.641
	c0.758,0.562,1.238,1.323,1.678,1.965c0.48,0.641,1.6,3.447,1.721,4.489c-0.082,0-0.121,0.281-0.161,0.32
	c0.12,0,0.2,0.041,0.24,0.16c0,0-0.079,0.041-0.04,0.08c-0.039,0.041-0.08,0.041-0.121,0.08c-0.119,0-0.318-0.039-0.398,0.041
	l-0.32,0.682l2.319,5.532l-0.239,0.12l-2.24-5.412l-2.679,5.011c0.161,0.16,0.521,0.481,0.44,0.882h4.157v0.12h-4.157
	c0.119,0.481-0.44,0.962-0.801,1.122c0,0.08,0,0.201,0,0.281c0.041,0.161,0.2,0.281,0.16,0.481H91.76l-0.041,0.08H91.36l-0.041-0.16
	l-0.119,0.16l-1.08-0.08c0-0.08,0-0.2,0.121-0.24c0.319,0,0.6-0.04,0.959-0.282c-0.04-0.039,0.039-0.08,0.039-0.119v-0.16
	L90.56,60.65l-0.159-2.484l-3.52-3.648l-0.6,1.965c-0.279,0.842-0.639,1.844-0.92,2.084c-0.479,0.722-0.879,0.682-0.719,0.842
	c-0.08-0.08-0.16-0.08-0.16-0.16c0-0.12,0.12-0.08,0.359-0.481c0.16-0.24,0.84-1.081,0.96-1.724c0.12-0.32,0.16-0.521,0.2-0.802
	l1.398-4.368c0.28-0.162,0.48,0.119,0.92,0.039c-0.039-0.039,0.041,0,0,0c0-0.08-0.039-0.201-0.039-0.24
	c0.359,0,0.359-0.722,1.359-0.361c0.079-0.04,0.159-0.28,0.239-0.28c0.079-0.2,0.36-0.16,0.44-0.44
	c0.52-0.321,0.998-0.922,1.08-1.283c-0.121-0.48-0.162-0.842-0.321-1.363c-0.399-0.841-0.239-1.242-0.239-1.803
	c0.239-0.121,0.439-0.402,0.398-0.563c0-0.08-0.079-0.08-0.079-0.08c-0.08,0-0.16,0.04-0.319,0.04c-0.08,0.16,0,0.281-0.24,0.281
	c-0.119,0-0.119-0.201-0.119-0.281c0,0-0.041-0.04-0.08-0.04c-0.041,0-0.08-0.04-0.08-0.08c0,0-0.04-0.04-0.08-0.04
	c-0.041,0-0.081-0.04-0.081-0.08c0-0.08,0.081,0,0,0c-0.079-0.04,0.081,0,0,0c-0.359,0.04-0.239-0.48-0.319-0.562
	c-0.04-0.12-0.24-0.4-0.32-0.44c-0.079,0.04-0.159-0.041-0.239-0.041c-0.04-0.16-0.04-0.44,0.2-0.48c-0.04-0.04,0-0.08,0-0.12
	c0.039,0,0.08-0.04,0.119-0.04c0.48-1.002,1.399-1.163,2.119-0.161c0.28,1.444,0.28,1.002,0.439,1.364c-0.039,0-0.08,0.04-0.08,0.04
	C92,44.817,91.919,44.857,92,44.897z"/>
<path fill="#FFFFFF" d="M92.2,58.446l2.719-4.931h-0.4l-2,2.085c-0.279,0.28-0.398,0.721-0.398,1.162L92.2,58.446z"/>
<path fill="none" stroke="#120C0E" stroke-width="0" stroke-miterlimit="3.863" d="M92.2,58.445l2.719-4.93h-0.4l-2,2.085
	c-0.279,0.28-0.398,0.721-0.398,1.162L92.2,58.445z"/>
<path fill="#FFFFFF" d="M86.961,54.238l0.28-0.803h0.96c-0.2,0.16-0.24,0.44-0.16,0.722c0.12,0.04,0.12,0.241,0.24,0.241
	l2.119,2.766v0.682L86.961,54.238z"/>
<path fill="none" stroke="#000000" stroke-width="0" stroke-miterlimit="3.863" d="M86.961,54.237l0.28-0.802h0.96
	c-0.2,0.16-0.24,0.44-0.16,0.722c0.12,0.04,0.12,0.241,0.24,0.241l2.119,2.766v0.682L86.961,54.237z"/>
<polygon fill="#FFFFFF" points="90.281,54.479 90.6,54.879 91.319,53.916 "/>
<polygon fill="none" stroke="#000000" stroke-width="0" stroke-miterlimit="3.863" points="90.281,54.479 90.6,54.879 
	91.319,53.916 "/>
<polygon fill="#FFFFFF" points="94.758,53.275 94.999,53.275 95.318,52.674 "/>
<polygon fill="none" stroke="#000000" stroke-width="0" stroke-miterlimit="3.863" points="94.758,53.275 94.999,53.275 
	95.318,52.674 "/>
<path fill="#FFFFFF" d="M87.282,53.235h1.119l3.639-1.685l0.199-0.36l0.12-0.08l0.04-0.16l0.201-0.24l0.039-0.201l-0.121-0.24
	l0.041-0.4l-0.16,0.32l-0.68,0.722l-0.64,0.521l-0.52,0.4l-0.68,0.281c-0.16-0.402-0.04-0.121-0.399-0.121
	c0,0.602-0.32-0.16-0.32,0.08c0,0.16,0.12,0,0,0c-0.16,0.041,0.08,0.24-0.24,0.16c0.16,0.361-0.639-0.16-1.319-0.16L87.282,53.235z"
	/>
<path fill="none" stroke="#120C0E" stroke-width="0" stroke-miterlimit="3.863" d="M87.282,53.235h1.119l3.639-1.685l0.199-0.36
	l0.12-0.08l0.04-0.16l0.201-0.24l0.039-0.201l-0.121-0.24l0.041-0.4l-0.16,0.32l-0.68,0.722l-0.64,0.521l-0.52,0.4l-0.68,0.281
	c-0.16-0.402-0.04-0.121-0.399-0.121c0,0.602-0.32-0.16-0.32,0.08c0,0.16,0.12,0,0,0c-0.16,0.041,0.08,0.24-0.24,0.16
	c0.16,0.361-0.639-0.16-1.319-0.16L87.282,53.235z"/>
<polygon fill="#120C0E" points="98.276,59.168 100.916,57.645 101.076,57.766 98.357,59.408 "/>
<polygon fill="none" stroke="#120C0E" stroke-width="0" stroke-miterlimit="3.863" points="98.276,59.168 100.916,57.645 
	101.076,57.766 98.357,59.408 "/>
</svg>
