<?xml version="1.0" encoding="UTF-8"?>
<!DOCTYPE svg PUBLIC "-//W3C//DTD SVG 1.1//EN" "http://www.w3.org/Graphics/SVG/1.1/DTD/svg11.dtd">
<svg version="1.2" width="16.67mm" height="25.03mm" viewBox="80567 39999 1667 2503" preserveAspectRatio="xMidYMid" fill-rule="evenodd" stroke-width="28.222" stroke-linejoin="round" xmlns="http://www.w3.org/2000/svg" xmlns:ooo="http://xml.openoffice.org/svg/export" xmlns:xlink="http://www.w3.org/1999/xlink" xmlns:presentation="http://sun.com/xmlns/staroffice/presentation" xmlns:smil="http://www.w3.org/2001/SMIL20/" xmlns:anim="urn:oasis:names:tc:opendocument:xmlns:animation:1.0" xml:space="preserve">
 <defs class="EmbeddedBulletChars">
  <g id="bullet-char-template-57356" transform="scale(0.00048828125,-0.00048828125)">
   <path d="M 580,1141 L 1163,571 580,0 -4,571 580,1141 Z"/>
  </g>
  <g id="bullet-char-template-57354" transform="scale(0.00048828125,-0.00048828125)">
   <path d="M 8,1128 L 1137,1128 1137,0 8,0 8,1128 Z"/>
  </g>
  <g id="bullet-char-template-10146" transform="scale(0.00048828125,-0.00048828125)">
   <path d="M 174,0 L 602,739 174,1481 1456,739 174,0 Z M 1358,739 L 309,1346 659,739 1358,739 Z"/>
  </g>
  <g id="bullet-char-template-10132" transform="scale(0.00048828125,-0.00048828125)">
   <path d="M 2015,739 L 1276,0 717,0 1260,543 174,543 174,936 1260,936 717,1481 1274,1481 2015,739 Z"/>
  </g>
  <g id="bullet-char-template-10007" transform="scale(0.00048828125,-0.00048828125)">
   <path d="M 0,-2 C -7,14 -16,27 -25,37 L 356,567 C 262,823 215,952 215,954 215,979 228,992 255,992 264,992 276,990 289,987 310,991 331,999 354,1012 L 381,999 492,748 772,1049 836,1024 860,1049 C 881,1039 901,1025 922,1006 886,937 835,863 770,784 769,783 710,716 594,584 L 774,223 C 774,196 753,168 711,139 L 727,119 C 717,90 699,76 672,76 641,76 570,178 457,381 L 164,-76 C 142,-110 111,-127 72,-127 30,-127 9,-110 8,-76 1,-67 -2,-52 -2,-32 -2,-23 -1,-13 0,-2 Z"/>
  </g>
  <g id="bullet-char-template-10004" transform="scale(0.00048828125,-0.00048828125)">
   <path d="M 285,-33 C 182,-33 111,30 74,156 52,228 41,333 41,471 41,549 55,616 82,672 116,743 169,778 240,778 293,778 328,747 346,684 L 369,508 C 377,444 397,411 428,410 L 1163,1116 C 1174,1127 1196,1133 1229,1133 1271,1133 1292,1118 1292,1087 L 1292,965 C 1292,929 1282,901 1262,881 L 442,47 C 390,-6 338,-33 285,-33 Z"/>
  </g>
  <g id="bullet-char-template-9679" transform="scale(0.00048828125,-0.00048828125)">
   <path d="M 813,0 C 632,0 489,54 383,161 276,268 223,411 223,592 223,773 276,916 383,1023 489,1130 632,1184 813,1184 992,1184 1136,1130 1245,1023 1353,916 1407,772 1407,592 1407,412 1353,268 1245,161 1136,54 992,0 813,0 Z"/>
  </g>
  <g id="bullet-char-template-8226" transform="scale(0.00048828125,-0.00048828125)">
   <path d="M 346,457 C 273,457 209,483 155,535 101,586 74,649 74,723 74,796 101,859 155,911 209,963 273,989 346,989 419,989 480,963 531,910 582,859 608,796 608,723 608,648 583,586 532,535 482,483 420,457 346,457 Z"/>
  </g>
  <g id="bullet-char-template-8211" transform="scale(0.00048828125,-0.00048828125)">
   <path d="M -4,459 L 1135,459 1135,606 -4,606 -4,459 Z"/>
  </g>
  <g id="bullet-char-template-61548" transform="scale(0.00048828125,-0.00048828125)">
   <path d="M 173,740 C 173,903 231,1043 346,1159 462,1274 601,1332 765,1332 928,1332 1067,1274 1183,1159 1299,1043 1357,903 1357,740 1357,577 1299,437 1183,322 1067,206 928,148 765,148 601,148 462,206 346,322 231,437 173,577 173,740 Z"/>
  </g>
 </defs>
 <g class="Page">
  <g class="com.sun.star.drawing.PolyPolygonShape">
   <g id="id3">
    <rect class="BoundingBox" stroke="none" fill="none" x="80567" y="39999" width="1667" height="2503"/>
    <path fill="rgb(0,0,255)" stroke="none" d="M 80756,42500 L 82045,42500 82063,42499 82081,42497 82099,42492 82117,42486 82133,42478 82149,42469 82164,42458 82177,42445 82190,42432 82201,42417 82210,42401 82218,42385 82224,42367 82229,42349 82231,42331 82232,42313 82232,40187 82231,40169 82229,40151 82224,40133 82218,40115 82210,40099 82201,40083 82190,40068 82177,40054 82164,40042 82149,40031 82133,40022 82117,40014 82099,40008 82081,40003 82063,40000 82045,40000 80756,40000 80737,40000 80719,40003 80702,40008 80684,40014 80668,40022 80651,40031 80636,40042 80623,40054 80610,40068 80599,40083 80590,40099 80582,40115 80576,40133 80571,40151 80569,40169 80568,40187 80568,42313 80569,42331 80571,42349 80576,42367 80582,42385 80590,42401 80599,42417 80610,42432 80623,42445 80636,42458 80651,42469 80668,42478 80684,42486 80702,42492 80719,42497 80737,42499 80756,42500 Z"/>
    <path fill="none" stroke="rgb(0,0,255)" d="M 80756,42500 L 82045,42500 82063,42499 82081,42497 82099,42492 82117,42486 82133,42478 82149,42469 82164,42458 82177,42445 82190,42432 82201,42417 82210,42401 82218,42385 82224,42367 82229,42349 82231,42331 82232,42313 82232,40187 82231,40169 82229,40151 82224,40133 82218,40115 82210,40099 82201,40083 82190,40068 82177,40054 82164,40042 82149,40031 82133,40022 82117,40014 82099,40008 82081,40003 82063,40000 82045,40000 80756,40000 80737,40000 80719,40003 80702,40008 80684,40014 80668,40022 80651,40031 80636,40042 80623,40054 80610,40068 80599,40083 80590,40099 80582,40115 80576,40133 80571,40151 80569,40169 80568,40187 80568,42313 80569,42331 80571,42349 80576,42367 80582,42385 80590,42401 80599,42417 80610,42432 80623,42445 80636,42458 80651,42469 80668,42478 80684,42486 80702,42492 80719,42497 80737,42499 80756,42500 Z"/>
   </g>
  </g>
  <g class="com.sun.star.drawing.PolyPolygonShape">
   <g id="id4">
    <rect class="BoundingBox" stroke="none" fill="none" x="80629" y="40061" width="1543" height="2379"/>
    <path fill="rgb(255,255,255)" stroke="none" d="M 80756,42438 L 82045,42438 82057,42437 82069,42436 82081,42432 82093,42428 82104,42423 82114,42417 82124,42410 82133,42401 82141,42392 82149,42382 82155,42372 82160,42361 82164,42349 82167,42337 82169,42325 82170,42313 82170,40187 82169,40175 82167,40163 82164,40151 82160,40139 82155,40128 82149,40118 82141,40108 82133,40099 82124,40090 82114,40083 82104,40077 82093,40072 82081,40067 82069,40064 82057,40063 82045,40062 80756,40062 80743,40063 80730,40064 80719,40067 80707,40072 80696,40077 80685,40083 80676,40090 80667,40099 80658,40108 80651,40118 80645,40128 80640,40139 80635,40151 80632,40163 80631,40175 80630,40187 80630,42313 80631,42325 80632,42337 80635,42349 80640,42361 80645,42372 80651,42382 80658,42392 80667,42401 80676,42410 80685,42417 80696,42423 80707,42428 80719,42432 80730,42436 80743,42437 80756,42438 Z"/>
    <path fill="none" stroke="rgb(255,255,255)" d="M 80756,42438 L 82045,42438 82057,42437 82069,42436 82081,42432 82093,42428 82104,42423 82114,42417 82124,42410 82133,42401 82141,42392 82149,42382 82155,42372 82160,42361 82164,42349 82167,42337 82169,42325 82170,42313 82170,40187 82169,40175 82167,40163 82164,40151 82160,40139 82155,40128 82149,40118 82141,40108 82133,40099 82124,40090 82114,40083 82104,40077 82093,40072 82081,40067 82069,40064 82057,40063 82045,40062 80756,40062 80743,40063 80730,40064 80719,40067 80707,40072 80696,40077 80685,40083 80676,40090 80667,40099 80658,40108 80651,40118 80645,40128 80640,40139 80635,40151 80632,40163 80631,40175 80630,40187 80630,42313 80631,42325 80632,42337 80635,42349 80640,42361 80645,42372 80651,42382 80658,42392 80667,42401 80676,42410 80685,42417 80696,42423 80707,42428 80719,42432 80730,42436 80743,42437 80756,42438 Z"/>
   </g>
  </g>
  <g class="com.sun.star.drawing.PolyPolygonShape">
   <g id="id5">
    <rect class="BoundingBox" stroke="none" fill="none" x="80691" y="40124" width="1418" height="2253"/>
    <path fill="rgb(0,0,255)" stroke="none" d="M 80755,42375 L 82045,42375 82057,42374 82069,42371 82080,42365 82089,42357 82097,42348 82103,42337 82106,42325 82107,42313 82107,40187 82106,40175 82103,40163 82097,40152 82089,40143 82080,40135 82069,40129 82057,40126 82045,40125 80755,40125 80743,40126 80731,40129 80720,40135 80711,40143 80703,40152 80697,40163 80694,40175 80692,40187 80692,42313 80694,42325 80697,42337 80703,42348 80711,42357 80720,42365 80731,42371 80743,42374 80755,42375 Z"/>
    <path fill="none" stroke="rgb(0,0,255)" d="M 80755,42375 L 82045,42375 82057,42374 82069,42371 82080,42365 82089,42357 82097,42348 82103,42337 82106,42325 82107,42313 82107,40187 82106,40175 82103,40163 82097,40152 82089,40143 82080,40135 82069,40129 82057,40126 82045,40125 80755,40125 80743,40126 80731,40129 80720,40135 80711,40143 80703,40152 80697,40163 80694,40175 80692,40187 80692,42313 80694,42325 80697,42337 80703,42348 80711,42357 80720,42365 80731,42371 80743,42374 80755,42375 Z"/>
   </g>
  </g>
  <g class="com.sun.star.drawing.PolyPolygonShape">
   <g id="id6">
    <rect class="BoundingBox" stroke="none" fill="none" x="80879" y="40222" width="1043" height="1196"/>
    <path fill="rgb(255,255,255)" stroke="none" d="M 81441,41118 L 81426,41119 81430,41132 81432,41144 81433,41156 81432,41169 81412,41175 81408,41172 81404,41170 81399,41169 81394,41169 81389,41170 81384,41171 81380,41174 81376,41178 81467,41178 81467,41097 81464,41095 81464,41091 81465,41089 81467,41087 81484,41085 81491,41084 81498,41082 81499,41071 81503,41060 81510,41051 81519,41044 81512,41038 81499,41046 81428,40978 81441,41118 Z M 81328,40223 L 81308,40256 81306,40260 81302,40264 81298,40267 81293,40269 81282,40271 81280,40272 81279,40274 81279,40277 81282,40279 81297,40285 81299,40287 81300,40290 81301,40302 81301,40314 81297,40321 81293,40327 81293,40328 81298,40332 81300,40339 81300,40346 81298,40359 81298,40363 81299,40368 81302,40371 81305,40373 81324,40374 81343,40377 81347,40380 81349,40384 81350,40389 81347,40393 81287,40429 81277,40568 81180,40686 81221,40722 81329,40609 81327,40740 81349,40740 81323,40863 81340,40879 81366,41126 81389,41123 81381,41145 81378,41150 81374,41155 81370,41159 81365,41162 81360,41165 81355,41167 81349,41168 81343,41168 81325,41167 81322,41167 81320,41169 81319,41172 81320,41175 81321,41176 81324,41178 81319,41178 81319,41257 81171,41257 81171,41337 80880,41337 80880,41416 81243,41416 81243,41337 81397,41337 81397,41257 81545,41257 81545,41178 81694,41178 81694,41097 81920,41097 81920,41018 81621,41018 81621,41098 81518,41098 81533,41070 81535,41067 81539,41064 81543,41063 81546,41063 81549,41065 81552,41068 81578,41042 81430,40859 81488,40733 81507,40732 81486,40521 81517,40550 81535,40687 81586,40679 81566,40515 81469,40400 81416,40396 81411,40393 81407,40390 81403,40386 81400,40381 81397,40376 81396,40371 81395,40365 81396,40360 81418,40301 81422,40294 81436,40294 81440,40293 81443,40290 81442,40287 81439,40284 81431,40281 81424,40277 81421,40274 81419,40270 81427,40231 81328,40223 Z"/>
    <path fill="none" stroke="rgb(255,255,255)" d="M 81441,41118 L 81426,41119 81430,41132 81432,41144 81433,41156 81432,41169 81412,41175 81408,41172 81404,41170 81399,41169 81394,41169 81389,41170 81384,41171 81380,41174 81376,41178 81467,41178 81467,41097 81464,41095 81464,41091 81465,41089 81467,41087 81484,41085 81491,41084 81498,41082 81499,41071 81503,41060 81510,41051 81519,41044 81512,41038 81499,41046 81428,40978 81441,41118 Z"/>
    <path fill="none" stroke="rgb(255,255,255)" d="M 81328,40223 L 81308,40256 81306,40260 81302,40264 81298,40267 81293,40269 81282,40271 81280,40272 81279,40274 81279,40277 81282,40279 81297,40285 81299,40287 81300,40290 81301,40302 81301,40314 81297,40321 81293,40327 81293,40328 81298,40332 81300,40339 81300,40346 81298,40359 81298,40363 81299,40368 81302,40371 81305,40373 81324,40374 81343,40377 81347,40380 81349,40384 81350,40389 81347,40393 81287,40429 81277,40568 81180,40686 81221,40722 81329,40609 81327,40740 81349,40740 81323,40863 81340,40879 81366,41126 81389,41123 81381,41145 81378,41150 81374,41155 81370,41159 81365,41162 81360,41165 81355,41167 81349,41168 81343,41168 81325,41167 81322,41167 81320,41169 81319,41172 81320,41175 81321,41176 81324,41178 81319,41178 81319,41257 81171,41257 81171,41337 80880,41337 80880,41416 81243,41416 81243,41337 81397,41337 81397,41257 81545,41257 81545,41178 81694,41178 81694,41097 81920,41097 81920,41018 81621,41018 81621,41098 81518,41098 81533,41070 81535,41067 81539,41064 81543,41063 81546,41063 81549,41065 81552,41068 81578,41042 81430,40859 81488,40733 81507,40732 81486,40521 81517,40550 81535,40687 81586,40679 81566,40515 81469,40400 81416,40396 81411,40393 81407,40390 81403,40386 81400,40381 81397,40376 81396,40371 81395,40365 81396,40360 81418,40301 81422,40294 81436,40294 81440,40293 81443,40290 81442,40287 81439,40284 81431,40281 81424,40277 81421,40274 81419,40270 81427,40231 81328,40223 Z"/>
   </g>
  </g>
  <g class="com.sun.star.drawing.PolyPolygonShape">
   <g id="id7">
    <rect class="BoundingBox" stroke="none" fill="none" x="80858" y="41998" width="86" height="296"/>
    <path fill="rgb(255,255,255)" stroke="none" d="M 80859,42084 L 80888,42084 80888,42292 80942,42292 80942,41999 80888,41999 80859,42055 80859,42084 Z"/>
    <path fill="none" stroke="rgb(255,255,255)" d="M 80859,42084 L 80888,42084 80888,42292 80942,42292 80942,41999 80888,41999 80859,42055 80859,42084 Z"/>
   </g>
  </g>
  <g class="com.sun.star.drawing.PolyPolygonShape">
   <g id="id8">
    <rect class="BoundingBox" stroke="none" fill="none" x="80858" y="41998" width="86" height="296"/>
    <path fill="rgb(255,255,255)" stroke="none" d="M 80859,42084 L 80888,42084 80888,42292 80942,42292 80942,41999 80888,41999 80859,42055 80859,42084 Z"/>
    <path fill="none" stroke="rgb(255,255,255)" d="M 80859,42084 L 80888,42084 80888,42292 80942,42292 80942,41999 80888,41999 80859,42055 80859,42084 Z"/>
   </g>
  </g>
  <g class="com.sun.star.drawing.PolyPolygonShape">
   <g id="id9">
    <rect class="BoundingBox" stroke="none" fill="none" x="80858" y="41998" width="86" height="296"/>
    <path fill="rgb(255,255,255)" stroke="none" d="M 80859,42084 L 80888,42084 80888,42292 80942,42292 80942,41999 80888,41999 80859,42055 80859,42084 Z"/>
    <path fill="none" stroke="rgb(255,255,255)" d="M 80859,42084 L 80888,42084 80888,42292 80942,42292 80942,41999 80888,41999 80859,42055 80859,42084 Z"/>
   </g>
  </g>
  <g class="com.sun.star.drawing.PolyPolygonShape">
   <g id="id10">
    <rect class="BoundingBox" stroke="none" fill="none" x="81016" y="41993" width="204" height="307"/>
    <path fill="rgb(255,255,255)" stroke="none" d="M 81070,42089 L 81070,42202 81071,42211 81074,42220 81078,42228 81084,42235 81091,42240 81100,42245 81109,42247 81118,42248 81127,42247 81136,42245 81144,42240 81151,42235 81156,42228 81161,42220 81163,42211 81164,42202 81164,42089 81163,42079 81161,42071 81156,42063 81151,42056 81144,42050 81136,42046 81127,42043 81118,42042 81109,42043 81100,42046 81091,42050 81084,42056 81078,42063 81074,42071 81071,42079 81070,42089 Z M 81017,42094 L 81017,42197 81017,42207 81019,42216 81021,42226 81024,42235 81029,42244 81034,42253 81040,42260 81046,42268 81053,42275 81061,42281 81070,42286 81079,42290 81088,42294 81098,42296 81108,42297 81118,42298 81128,42297 81137,42296 81147,42294 81156,42290 81165,42286 81173,42281 81181,42275 81188,42268 81195,42260 81201,42253 81206,42244 81210,42235 81213,42226 81216,42216 81217,42207 81218,42197 81218,42094 81217,42084 81216,42074 81213,42065 81210,42055 81206,42046 81201,42038 81195,42030 81188,42023 81181,42016 81173,42010 81165,42005 81156,42001 81147,41998 81137,41995 81128,41994 81118,41994 81108,41994 81098,41995 81088,41998 81079,42001 81070,42005 81061,42010 81053,42016 81046,42023 81040,42030 81034,42038 81029,42046 81024,42055 81021,42065 81019,42074 81017,42084 81017,42094 Z"/>
    <path fill="none" stroke="rgb(255,255,255)" d="M 81070,42089 L 81070,42202 81071,42211 81074,42220 81078,42228 81084,42235 81091,42240 81100,42245 81109,42247 81118,42248 81127,42247 81136,42245 81144,42240 81151,42235 81156,42228 81161,42220 81163,42211 81164,42202 81164,42089 81163,42079 81161,42071 81156,42063 81151,42056 81144,42050 81136,42046 81127,42043 81118,42042 81109,42043 81100,42046 81091,42050 81084,42056 81078,42063 81074,42071 81071,42079 81070,42089 Z"/>
    <path fill="none" stroke="rgb(255,255,255)" d="M 81017,42094 L 81017,42197 81017,42207 81019,42216 81021,42226 81024,42235 81029,42244 81034,42253 81040,42260 81046,42268 81053,42275 81061,42281 81070,42286 81079,42290 81088,42294 81098,42296 81108,42297 81118,42298 81128,42297 81137,42296 81147,42294 81156,42290 81165,42286 81173,42281 81181,42275 81188,42268 81195,42260 81201,42253 81206,42244 81210,42235 81213,42226 81216,42216 81217,42207 81218,42197 81218,42094 81217,42084 81216,42074 81213,42065 81210,42055 81206,42046 81201,42038 81195,42030 81188,42023 81181,42016 81173,42010 81165,42005 81156,42001 81147,41998 81137,41995 81128,41994 81118,41994 81108,41994 81098,41995 81088,41998 81079,42001 81070,42005 81061,42010 81053,42016 81046,42023 81040,42030 81034,42038 81029,42046 81024,42055 81021,42065 81019,42074 81017,42084 81017,42094 Z"/>
   </g>
  </g>
  <g class="com.sun.star.drawing.PolyPolygonShape">
   <g id="id11">
    <rect class="BoundingBox" stroke="none" fill="none" x="81016" y="41993" width="204" height="307"/>
    <path fill="rgb(255,255,255)" stroke="none" d="M 81070,42089 L 81070,42202 81071,42211 81074,42220 81078,42228 81084,42235 81091,42240 81100,42245 81109,42247 81118,42248 81127,42247 81136,42245 81144,42240 81151,42235 81156,42228 81161,42220 81163,42211 81164,42202 81164,42089 81163,42079 81161,42071 81156,42063 81151,42056 81144,42050 81136,42046 81127,42043 81118,42042 81109,42043 81100,42046 81091,42050 81084,42056 81078,42063 81074,42071 81071,42079 81070,42089 Z M 81017,42094 L 81017,42197 81017,42207 81019,42216 81021,42226 81024,42235 81029,42244 81034,42253 81040,42260 81046,42268 81053,42275 81061,42281 81070,42286 81079,42290 81088,42294 81098,42296 81108,42297 81118,42298 81128,42297 81137,42296 81147,42294 81156,42290 81165,42286 81173,42281 81181,42275 81188,42268 81195,42260 81201,42253 81206,42244 81210,42235 81213,42226 81216,42216 81217,42207 81218,42197 81218,42094 81217,42084 81216,42074 81213,42065 81210,42055 81206,42046 81201,42038 81195,42030 81188,42023 81181,42016 81173,42010 81165,42005 81156,42001 81147,41998 81137,41995 81128,41994 81118,41994 81108,41994 81098,41995 81088,41998 81079,42001 81070,42005 81061,42010 81053,42016 81046,42023 81040,42030 81034,42038 81029,42046 81024,42055 81021,42065 81019,42074 81017,42084 81017,42094 Z"/>
    <path fill="none" stroke="rgb(255,255,255)" d="M 81070,42089 L 81070,42202 81071,42211 81074,42220 81078,42228 81084,42235 81091,42240 81100,42245 81109,42247 81118,42248 81127,42247 81136,42245 81144,42240 81151,42235 81156,42228 81161,42220 81163,42211 81164,42202 81164,42089 81163,42079 81161,42071 81156,42063 81151,42056 81144,42050 81136,42046 81127,42043 81118,42042 81109,42043 81100,42046 81091,42050 81084,42056 81078,42063 81074,42071 81071,42079 81070,42089 Z"/>
    <path fill="none" stroke="rgb(255,255,255)" d="M 81017,42094 L 81017,42197 81017,42207 81019,42216 81021,42226 81024,42235 81029,42244 81034,42253 81040,42260 81046,42268 81053,42275 81061,42281 81070,42286 81079,42290 81088,42294 81098,42296 81108,42297 81118,42298 81128,42297 81137,42296 81147,42294 81156,42290 81165,42286 81173,42281 81181,42275 81188,42268 81195,42260 81201,42253 81206,42244 81210,42235 81213,42226 81216,42216 81217,42207 81218,42197 81218,42094 81217,42084 81216,42074 81213,42065 81210,42055 81206,42046 81201,42038 81195,42030 81188,42023 81181,42016 81173,42010 81165,42005 81156,42001 81147,41998 81137,41995 81128,41994 81118,41994 81108,41994 81098,41995 81088,41998 81079,42001 81070,42005 81061,42010 81053,42016 81046,42023 81040,42030 81034,42038 81029,42046 81024,42055 81021,42065 81019,42074 81017,42084 81017,42094 Z"/>
   </g>
  </g>
  <g class="com.sun.star.drawing.PolyPolygonShape">
   <g id="id12">
    <rect class="BoundingBox" stroke="none" fill="none" x="81016" y="41993" width="204" height="307"/>
    <path fill="rgb(255,255,255)" stroke="none" d="M 81070,42089 L 81070,42202 81071,42211 81074,42220 81078,42228 81084,42235 81091,42240 81100,42245 81109,42247 81118,42248 81127,42247 81136,42245 81144,42240 81151,42235 81156,42228 81161,42220 81163,42211 81164,42202 81164,42089 81163,42079 81161,42071 81156,42063 81151,42056 81144,42050 81136,42046 81127,42043 81118,42042 81109,42043 81100,42046 81091,42050 81084,42056 81078,42063 81074,42071 81071,42079 81070,42089 Z M 81017,42094 L 81017,42197 81017,42207 81019,42216 81021,42226 81024,42235 81029,42244 81034,42253 81040,42260 81046,42268 81053,42275 81061,42281 81070,42286 81079,42290 81088,42294 81098,42296 81108,42297 81118,42298 81128,42297 81137,42296 81147,42294 81156,42290 81165,42286 81173,42281 81181,42275 81188,42268 81195,42260 81201,42253 81206,42244 81210,42235 81213,42226 81216,42216 81217,42207 81218,42197 81218,42094 81217,42084 81216,42074 81213,42065 81210,42055 81206,42046 81201,42038 81195,42030 81188,42023 81181,42016 81173,42010 81165,42005 81156,42001 81147,41998 81137,41995 81128,41994 81118,41994 81108,41994 81098,41995 81088,41998 81079,42001 81070,42005 81061,42010 81053,42016 81046,42023 81040,42030 81034,42038 81029,42046 81024,42055 81021,42065 81019,42074 81017,42084 81017,42094 Z"/>
    <path fill="none" stroke="rgb(255,255,255)" d="M 81070,42089 L 81070,42202 81071,42211 81074,42220 81078,42228 81084,42235 81091,42240 81100,42245 81109,42247 81118,42248 81127,42247 81136,42245 81144,42240 81151,42235 81156,42228 81161,42220 81163,42211 81164,42202 81164,42089 81163,42079 81161,42071 81156,42063 81151,42056 81144,42050 81136,42046 81127,42043 81118,42042 81109,42043 81100,42046 81091,42050 81084,42056 81078,42063 81074,42071 81071,42079 81070,42089 Z"/>
    <path fill="none" stroke="rgb(255,255,255)" d="M 81017,42094 L 81017,42197 81017,42207 81019,42216 81021,42226 81024,42235 81029,42244 81034,42253 81040,42260 81046,42268 81053,42275 81061,42281 81070,42286 81079,42290 81088,42294 81098,42296 81108,42297 81118,42298 81128,42297 81137,42296 81147,42294 81156,42290 81165,42286 81173,42281 81181,42275 81188,42268 81195,42260 81201,42253 81206,42244 81210,42235 81213,42226 81216,42216 81217,42207 81218,42197 81218,42094 81217,42084 81216,42074 81213,42065 81210,42055 81206,42046 81201,42038 81195,42030 81188,42023 81181,42016 81173,42010 81165,42005 81156,42001 81147,41998 81137,41995 81128,41994 81118,41994 81108,41994 81098,41995 81088,41998 81079,42001 81070,42005 81061,42010 81053,42016 81046,42023 81040,42030 81034,42038 81029,42046 81024,42055 81021,42065 81019,42074 81017,42084 81017,42094 Z"/>
   </g>
  </g>
  <g class="com.sun.star.drawing.PolyPolygonShape">
   <g id="id13">
    <rect class="BoundingBox" stroke="none" fill="none" x="81288" y="41993" width="204" height="307"/>
    <path fill="rgb(255,255,255)" stroke="none" d="M 81344,42089 L 81344,42202 81345,42211 81347,42220 81351,42228 81357,42235 81364,42240 81372,42245 81381,42247 81390,42248 81399,42247 81408,42245 81416,42240 81423,42235 81429,42228 81433,42220 81436,42211 81437,42202 81437,42089 81436,42079 81433,42071 81429,42063 81423,42056 81416,42050 81408,42046 81399,42043 81390,42042 81381,42043 81372,42046 81364,42050 81357,42056 81351,42063 81347,42071 81345,42079 81344,42089 Z M 81289,42094 L 81289,42197 81290,42207 81291,42216 81295,42226 81298,42235 81302,42244 81307,42253 81313,42260 81320,42268 81327,42275 81335,42281 81343,42286 81352,42290 81361,42294 81371,42296 81380,42297 81390,42298 81400,42297 81410,42296 81419,42294 81428,42290 81437,42286 81446,42281 81453,42275 81461,42268 81467,42260 81473,42253 81478,42244 81482,42235 81486,42226 81488,42216 81489,42207 81490,42197 81490,42094 81489,42084 81488,42074 81486,42065 81482,42055 81478,42046 81473,42038 81467,42030 81461,42023 81453,42016 81446,42010 81437,42005 81428,42001 81419,41998 81410,41995 81400,41994 81390,41994 81380,41994 81371,41995 81361,41998 81352,42001 81343,42005 81335,42010 81327,42016 81320,42023 81313,42030 81307,42038 81302,42046 81298,42055 81295,42065 81291,42074 81290,42084 81289,42094 Z"/>
    <path fill="none" stroke="rgb(255,255,255)" d="M 81344,42089 L 81344,42202 81345,42211 81347,42220 81351,42228 81357,42235 81364,42240 81372,42245 81381,42247 81390,42248 81399,42247 81408,42245 81416,42240 81423,42235 81429,42228 81433,42220 81436,42211 81437,42202 81437,42089 81436,42079 81433,42071 81429,42063 81423,42056 81416,42050 81408,42046 81399,42043 81390,42042 81381,42043 81372,42046 81364,42050 81357,42056 81351,42063 81347,42071 81345,42079 81344,42089 Z"/>
    <path fill="none" stroke="rgb(255,255,255)" d="M 81289,42094 L 81289,42197 81290,42207 81291,42216 81295,42226 81298,42235 81302,42244 81307,42253 81313,42260 81320,42268 81327,42275 81335,42281 81343,42286 81352,42290 81361,42294 81371,42296 81380,42297 81390,42298 81400,42297 81410,42296 81419,42294 81428,42290 81437,42286 81446,42281 81453,42275 81461,42268 81467,42260 81473,42253 81478,42244 81482,42235 81486,42226 81488,42216 81489,42207 81490,42197 81490,42094 81489,42084 81488,42074 81486,42065 81482,42055 81478,42046 81473,42038 81467,42030 81461,42023 81453,42016 81446,42010 81437,42005 81428,42001 81419,41998 81410,41995 81400,41994 81390,41994 81380,41994 81371,41995 81361,41998 81352,42001 81343,42005 81335,42010 81327,42016 81320,42023 81313,42030 81307,42038 81302,42046 81298,42055 81295,42065 81291,42074 81290,42084 81289,42094 Z"/>
   </g>
  </g>
  <g class="com.sun.star.drawing.PolyPolygonShape">
   <g id="id14">
    <rect class="BoundingBox" stroke="none" fill="none" x="81288" y="41993" width="204" height="307"/>
    <path fill="rgb(255,255,255)" stroke="none" d="M 81344,42089 L 81344,42202 81345,42211 81347,42220 81351,42228 81357,42235 81364,42240 81372,42245 81381,42247 81390,42248 81399,42247 81408,42245 81416,42240 81423,42235 81429,42228 81433,42220 81436,42211 81437,42202 81437,42089 81436,42079 81433,42071 81429,42063 81423,42056 81416,42050 81408,42046 81399,42043 81390,42042 81381,42043 81372,42046 81364,42050 81357,42056 81351,42063 81347,42071 81345,42079 81344,42089 Z M 81289,42094 L 81289,42197 81290,42207 81291,42216 81295,42226 81298,42235 81302,42244 81307,42253 81313,42260 81320,42268 81327,42275 81335,42281 81343,42286 81352,42290 81361,42294 81371,42296 81380,42297 81390,42298 81400,42297 81410,42296 81419,42294 81428,42290 81437,42286 81446,42281 81453,42275 81461,42268 81467,42260 81473,42253 81478,42244 81482,42235 81486,42226 81488,42216 81489,42207 81490,42197 81490,42094 81489,42084 81488,42074 81486,42065 81482,42055 81478,42046 81473,42038 81467,42030 81461,42023 81453,42016 81446,42010 81437,42005 81428,42001 81419,41998 81410,41995 81400,41994 81390,41994 81380,41994 81371,41995 81361,41998 81352,42001 81343,42005 81335,42010 81327,42016 81320,42023 81313,42030 81307,42038 81302,42046 81298,42055 81295,42065 81291,42074 81290,42084 81289,42094 Z"/>
    <path fill="none" stroke="rgb(255,255,255)" d="M 81344,42089 L 81344,42202 81345,42211 81347,42220 81351,42228 81357,42235 81364,42240 81372,42245 81381,42247 81390,42248 81399,42247 81408,42245 81416,42240 81423,42235 81429,42228 81433,42220 81436,42211 81437,42202 81437,42089 81436,42079 81433,42071 81429,42063 81423,42056 81416,42050 81408,42046 81399,42043 81390,42042 81381,42043 81372,42046 81364,42050 81357,42056 81351,42063 81347,42071 81345,42079 81344,42089 Z"/>
    <path fill="none" stroke="rgb(255,255,255)" d="M 81289,42094 L 81289,42197 81290,42207 81291,42216 81295,42226 81298,42235 81302,42244 81307,42253 81313,42260 81320,42268 81327,42275 81335,42281 81343,42286 81352,42290 81361,42294 81371,42296 81380,42297 81390,42298 81400,42297 81410,42296 81419,42294 81428,42290 81437,42286 81446,42281 81453,42275 81461,42268 81467,42260 81473,42253 81478,42244 81482,42235 81486,42226 81488,42216 81489,42207 81490,42197 81490,42094 81489,42084 81488,42074 81486,42065 81482,42055 81478,42046 81473,42038 81467,42030 81461,42023 81453,42016 81446,42010 81437,42005 81428,42001 81419,41998 81410,41995 81400,41994 81390,41994 81380,41994 81371,41995 81361,41998 81352,42001 81343,42005 81335,42010 81327,42016 81320,42023 81313,42030 81307,42038 81302,42046 81298,42055 81295,42065 81291,42074 81290,42084 81289,42094 Z"/>
   </g>
  </g>
  <g class="com.sun.star.drawing.PolyPolygonShape">
   <g id="id15">
    <rect class="BoundingBox" stroke="none" fill="none" x="81288" y="41993" width="204" height="307"/>
    <path fill="rgb(255,255,255)" stroke="none" d="M 81344,42089 L 81344,42202 81345,42211 81347,42220 81351,42228 81357,42235 81364,42240 81372,42245 81381,42247 81390,42248 81399,42247 81408,42245 81416,42240 81423,42235 81429,42228 81433,42220 81436,42211 81437,42202 81437,42089 81436,42079 81433,42071 81429,42063 81423,42056 81416,42050 81408,42046 81399,42043 81390,42042 81381,42043 81372,42046 81364,42050 81357,42056 81351,42063 81347,42071 81345,42079 81344,42089 Z M 81289,42094 L 81289,42197 81290,42207 81291,42216 81295,42226 81298,42235 81302,42244 81307,42253 81313,42260 81320,42268 81327,42275 81335,42281 81343,42286 81352,42290 81361,42294 81371,42296 81380,42297 81390,42298 81400,42297 81410,42296 81419,42294 81428,42290 81437,42286 81446,42281 81453,42275 81461,42268 81467,42260 81473,42253 81478,42244 81482,42235 81486,42226 81488,42216 81489,42207 81490,42197 81490,42094 81489,42084 81488,42074 81486,42065 81482,42055 81478,42046 81473,42038 81467,42030 81461,42023 81453,42016 81446,42010 81437,42005 81428,42001 81419,41998 81410,41995 81400,41994 81390,41994 81380,41994 81371,41995 81361,41998 81352,42001 81343,42005 81335,42010 81327,42016 81320,42023 81313,42030 81307,42038 81302,42046 81298,42055 81295,42065 81291,42074 81290,42084 81289,42094 Z"/>
    <path fill="none" stroke="rgb(255,255,255)" d="M 81344,42089 L 81344,42202 81345,42211 81347,42220 81351,42228 81357,42235 81364,42240 81372,42245 81381,42247 81390,42248 81399,42247 81408,42245 81416,42240 81423,42235 81429,42228 81433,42220 81436,42211 81437,42202 81437,42089 81436,42079 81433,42071 81429,42063 81423,42056 81416,42050 81408,42046 81399,42043 81390,42042 81381,42043 81372,42046 81364,42050 81357,42056 81351,42063 81347,42071 81345,42079 81344,42089 Z"/>
    <path fill="none" stroke="rgb(255,255,255)" d="M 81289,42094 L 81289,42197 81290,42207 81291,42216 81295,42226 81298,42235 81302,42244 81307,42253 81313,42260 81320,42268 81327,42275 81335,42281 81343,42286 81352,42290 81361,42294 81371,42296 81380,42297 81390,42298 81400,42297 81410,42296 81419,42294 81428,42290 81437,42286 81446,42281 81453,42275 81461,42268 81467,42260 81473,42253 81478,42244 81482,42235 81486,42226 81488,42216 81489,42207 81490,42197 81490,42094 81489,42084 81488,42074 81486,42065 81482,42055 81478,42046 81473,42038 81467,42030 81461,42023 81453,42016 81446,42010 81437,42005 81428,42001 81419,41998 81410,41995 81400,41994 81390,41994 81380,41994 81371,41995 81361,41998 81352,42001 81343,42005 81335,42010 81327,42016 81320,42023 81313,42030 81307,42038 81302,42046 81298,42055 81295,42065 81291,42074 81290,42084 81289,42094 Z"/>
   </g>
  </g>
  <g class="com.sun.star.drawing.PolyPolygonShape">
   <g id="id16">
    <rect class="BoundingBox" stroke="none" fill="none" x="81654" y="42076" width="288" height="218"/>
    <path fill="rgb(255,255,255)" stroke="none" d="M 81655,42292 L 81704,42292 81704,42153 81704,42147 81706,42140 81710,42134 81714,42129 81719,42124 81725,42121 81732,42119 81738,42119 81745,42119 81752,42121 81758,42124 81763,42129 81767,42134 81770,42140 81772,42147 81773,42153 81773,42292 81822,42292 81822,42153 81822,42147 81824,42140 81828,42134 81832,42129 81837,42124 81843,42121 81850,42119 81856,42119 81863,42119 81870,42121 81876,42124 81881,42129 81885,42134 81888,42140 81890,42147 81891,42153 81891,42292 81940,42292 81940,42146 81939,42134 81937,42124 81931,42113 81925,42104 81918,42096 81909,42089 81900,42083 81889,42079 81878,42077 81867,42077 81856,42079 81845,42082 81835,42087 81826,42093 81819,42101 81812,42111 81808,42104 81803,42098 81797,42093 81790,42088 81784,42084 81776,42081 81769,42079 81761,42077 81753,42077 81745,42077 81738,42079 81730,42081 81723,42084 81716,42088 81710,42092 81704,42098 81704,42083 81655,42083 81655,42292 Z"/>
    <path fill="none" stroke="rgb(255,255,255)" d="M 81655,42292 L 81704,42292 81704,42153 81704,42147 81706,42140 81710,42134 81714,42129 81719,42124 81725,42121 81732,42119 81738,42119 81745,42119 81752,42121 81758,42124 81763,42129 81767,42134 81770,42140 81772,42147 81773,42153 81773,42292 81822,42292 81822,42153 81822,42147 81824,42140 81828,42134 81832,42129 81837,42124 81843,42121 81850,42119 81856,42119 81863,42119 81870,42121 81876,42124 81881,42129 81885,42134 81888,42140 81890,42147 81891,42153 81891,42292 81940,42292 81940,42146 81939,42134 81937,42124 81931,42113 81925,42104 81918,42096 81909,42089 81900,42083 81889,42079 81878,42077 81867,42077 81856,42079 81845,42082 81835,42087 81826,42093 81819,42101 81812,42111 81808,42104 81803,42098 81797,42093 81790,42088 81784,42084 81776,42081 81769,42079 81761,42077 81753,42077 81745,42077 81738,42079 81730,42081 81723,42084 81716,42088 81710,42092 81704,42098 81704,42083 81655,42083 81655,42292 Z"/>
   </g>
  </g>
  <g class="com.sun.star.drawing.PolyPolygonShape">
   <g id="id17">
    <rect class="BoundingBox" stroke="none" fill="none" x="81654" y="42076" width="288" height="218"/>
    <path fill="rgb(255,255,255)" stroke="none" d="M 81655,42292 L 81704,42292 81704,42153 81704,42147 81706,42140 81710,42134 81714,42129 81719,42124 81725,42121 81732,42119 81738,42119 81745,42119 81752,42121 81758,42124 81763,42129 81767,42134 81770,42140 81772,42147 81773,42153 81773,42292 81822,42292 81822,42153 81822,42147 81824,42140 81828,42134 81832,42129 81837,42124 81843,42121 81850,42119 81856,42119 81863,42119 81870,42121 81876,42124 81881,42129 81885,42134 81888,42140 81890,42147 81891,42153 81891,42292 81940,42292 81940,42146 81939,42134 81937,42124 81931,42113 81925,42104 81918,42096 81909,42089 81900,42083 81889,42079 81878,42077 81867,42077 81856,42079 81845,42082 81835,42087 81826,42093 81819,42101 81812,42111 81808,42104 81803,42098 81797,42093 81790,42088 81784,42084 81776,42081 81769,42079 81761,42077 81753,42077 81745,42077 81738,42079 81730,42081 81723,42084 81716,42088 81710,42092 81704,42098 81704,42083 81655,42083 81655,42292 Z"/>
    <path fill="none" stroke="rgb(255,255,255)" d="M 81655,42292 L 81704,42292 81704,42153 81704,42147 81706,42140 81710,42134 81714,42129 81719,42124 81725,42121 81732,42119 81738,42119 81745,42119 81752,42121 81758,42124 81763,42129 81767,42134 81770,42140 81772,42147 81773,42153 81773,42292 81822,42292 81822,42153 81822,42147 81824,42140 81828,42134 81832,42129 81837,42124 81843,42121 81850,42119 81856,42119 81863,42119 81870,42121 81876,42124 81881,42129 81885,42134 81888,42140 81890,42147 81891,42153 81891,42292 81940,42292 81940,42146 81939,42134 81937,42124 81931,42113 81925,42104 81918,42096 81909,42089 81900,42083 81889,42079 81878,42077 81867,42077 81856,42079 81845,42082 81835,42087 81826,42093 81819,42101 81812,42111 81808,42104 81803,42098 81797,42093 81790,42088 81784,42084 81776,42081 81769,42079 81761,42077 81753,42077 81745,42077 81738,42079 81730,42081 81723,42084 81716,42088 81710,42092 81704,42098 81704,42083 81655,42083 81655,42292 Z"/>
   </g>
  </g>
  <g class="com.sun.star.drawing.PolyPolygonShape">
   <g id="id18">
    <rect class="BoundingBox" stroke="none" fill="none" x="81654" y="42076" width="288" height="218"/>
    <path fill="rgb(255,255,255)" stroke="none" d="M 81655,42292 L 81704,42292 81704,42153 81704,42147 81706,42140 81710,42134 81714,42129 81719,42124 81725,42121 81732,42119 81738,42119 81745,42119 81752,42121 81758,42124 81763,42129 81767,42134 81770,42140 81772,42147 81773,42153 81773,42292 81822,42292 81822,42153 81822,42147 81824,42140 81828,42134 81832,42129 81837,42124 81843,42121 81850,42119 81856,42119 81863,42119 81870,42121 81876,42124 81881,42129 81885,42134 81888,42140 81890,42147 81891,42153 81891,42292 81940,42292 81940,42146 81939,42134 81937,42124 81931,42113 81925,42104 81918,42096 81909,42089 81900,42083 81889,42079 81878,42077 81867,42077 81856,42079 81845,42082 81835,42087 81826,42093 81819,42101 81812,42111 81808,42104 81803,42098 81797,42093 81790,42088 81784,42084 81776,42081 81769,42079 81761,42077 81753,42077 81745,42077 81738,42079 81730,42081 81723,42084 81716,42088 81710,42092 81704,42098 81704,42083 81655,42083 81655,42292 Z"/>
    <path fill="none" stroke="rgb(255,255,255)" d="M 81655,42292 L 81704,42292 81704,42153 81704,42147 81706,42140 81710,42134 81714,42129 81719,42124 81725,42121 81732,42119 81738,42119 81745,42119 81752,42121 81758,42124 81763,42129 81767,42134 81770,42140 81772,42147 81773,42153 81773,42292 81822,42292 81822,42153 81822,42147 81824,42140 81828,42134 81832,42129 81837,42124 81843,42121 81850,42119 81856,42119 81863,42119 81870,42121 81876,42124 81881,42129 81885,42134 81888,42140 81890,42147 81891,42153 81891,42292 81940,42292 81940,42146 81939,42134 81937,42124 81931,42113 81925,42104 81918,42096 81909,42089 81900,42083 81889,42079 81878,42077 81867,42077 81856,42079 81845,42082 81835,42087 81826,42093 81819,42101 81812,42111 81808,42104 81803,42098 81797,42093 81790,42088 81784,42084 81776,42081 81769,42079 81761,42077 81753,42077 81745,42077 81738,42079 81730,42081 81723,42084 81716,42088 81710,42092 81704,42098 81704,42083 81655,42083 81655,42292 Z"/>
   </g>
  </g>
  <g class="com.sun.star.drawing.PolyPolygonShape">
   <g id="id19">
    <rect class="BoundingBox" stroke="none" fill="none" x="80816" y="41482" width="1169" height="420"/>
    <path fill="rgb(255,255,255)" stroke="none" d="M 81983,41618 L 81168,41618 81168,41483 80817,41691 81168,41900 81168,41764 81983,41764 81983,41618 Z"/>
    <path fill="none" stroke="rgb(255,255,255)" d="M 81983,41618 L 81168,41618 81168,41483 80817,41691 81168,41900 81168,41764 81983,41764 81983,41618 Z"/>
   </g>
  </g>
  <g class="com.sun.star.drawing.PolyPolygonShape">
   <g id="id20">
    <rect class="BoundingBox" stroke="none" fill="none" x="80816" y="41482" width="1169" height="420"/>
    <path fill="rgb(255,255,255)" stroke="none" d="M 81983,41618 L 81168,41618 81168,41483 80817,41691 81168,41900 81168,41764 81983,41764 81983,41618 Z"/>
    <path fill="none" stroke="rgb(255,255,255)" d="M 81983,41618 L 81168,41618 81168,41483 80817,41691 81168,41900 81168,41764 81983,41764 81983,41618 Z"/>
   </g>
  </g>
 </g>
</svg>