<?xml version="1.0" encoding="UTF-8"?>
<!DOCTYPE svg PUBLIC "-//W3C//DTD SVG 1.1//EN" "http://www.w3.org/Graphics/SVG/1.1/DTD/svg11.dtd">
<svg version="1.2" width="16.61mm" height="25.03mm" viewBox="82770 39999 1661 2503" preserveAspectRatio="xMidYMid" fill-rule="evenodd" stroke-width="28.222" stroke-linejoin="round" xmlns="http://www.w3.org/2000/svg" xmlns:ooo="http://xml.openoffice.org/svg/export" xmlns:xlink="http://www.w3.org/1999/xlink" xmlns:presentation="http://sun.com/xmlns/staroffice/presentation" xmlns:smil="http://www.w3.org/2001/SMIL20/" xmlns:anim="urn:oasis:names:tc:opendocument:xmlns:animation:1.0" xml:space="preserve">
 <defs class="EmbeddedBulletChars">
  <g id="bullet-char-template-57356" transform="scale(0.00048828125,-0.00048828125)">
   <path d="M 580,1141 L 1163,571 580,0 -4,571 580,1141 Z"/>
  </g>
  <g id="bullet-char-template-57354" transform="scale(0.00048828125,-0.00048828125)">
   <path d="M 8,1128 L 1137,1128 1137,0 8,0 8,1128 Z"/>
  </g>
  <g id="bullet-char-template-10146" transform="scale(0.00048828125,-0.00048828125)">
   <path d="M 174,0 L 602,739 174,1481 1456,739 174,0 Z M 1358,739 L 309,1346 659,739 1358,739 Z"/>
  </g>
  <g id="bullet-char-template-10132" transform="scale(0.00048828125,-0.00048828125)">
   <path d="M 2015,739 L 1276,0 717,0 1260,543 174,543 174,936 1260,936 717,1481 1274,1481 2015,739 Z"/>
  </g>
  <g id="bullet-char-template-10007" transform="scale(0.00048828125,-0.00048828125)">
   <path d="M 0,-2 C -7,14 -16,27 -25,37 L 356,567 C 262,823 215,952 215,954 215,979 228,992 255,992 264,992 276,990 289,987 310,991 331,999 354,1012 L 381,999 492,748 772,1049 836,1024 860,1049 C 881,1039 901,1025 922,1006 886,937 835,863 770,784 769,783 710,716 594,584 L 774,223 C 774,196 753,168 711,139 L 727,119 C 717,90 699,76 672,76 641,76 570,178 457,381 L 164,-76 C 142,-110 111,-127 72,-127 30,-127 9,-110 8,-76 1,-67 -2,-52 -2,-32 -2,-23 -1,-13 0,-2 Z"/>
  </g>
  <g id="bullet-char-template-10004" transform="scale(0.00048828125,-0.00048828125)">
   <path d="M 285,-33 C 182,-33 111,30 74,156 52,228 41,333 41,471 41,549 55,616 82,672 116,743 169,778 240,778 293,778 328,747 346,684 L 369,508 C 377,444 397,411 428,410 L 1163,1116 C 1174,1127 1196,1133 1229,1133 1271,1133 1292,1118 1292,1087 L 1292,965 C 1292,929 1282,901 1262,881 L 442,47 C 390,-6 338,-33 285,-33 Z"/>
  </g>
  <g id="bullet-char-template-9679" transform="scale(0.00048828125,-0.00048828125)">
   <path d="M 813,0 C 632,0 489,54 383,161 276,268 223,411 223,592 223,773 276,916 383,1023 489,1130 632,1184 813,1184 992,1184 1136,1130 1245,1023 1353,916 1407,772 1407,592 1407,412 1353,268 1245,161 1136,54 992,0 813,0 Z"/>
  </g>
  <g id="bullet-char-template-8226" transform="scale(0.00048828125,-0.00048828125)">
   <path d="M 346,457 C 273,457 209,483 155,535 101,586 74,649 74,723 74,796 101,859 155,911 209,963 273,989 346,989 419,989 480,963 531,910 582,859 608,796 608,723 608,648 583,586 532,535 482,483 420,457 346,457 Z"/>
  </g>
  <g id="bullet-char-template-8211" transform="scale(0.00048828125,-0.00048828125)">
   <path d="M -4,459 L 1135,459 1135,606 -4,606 -4,459 Z"/>
  </g>
  <g id="bullet-char-template-61548" transform="scale(0.00048828125,-0.00048828125)">
   <path d="M 173,740 C 173,903 231,1043 346,1159 462,1274 601,1332 765,1332 928,1332 1067,1274 1183,1159 1299,1043 1357,903 1357,740 1357,577 1299,437 1183,322 1067,206 928,148 765,148 601,148 462,206 346,322 231,437 173,577 173,740 Z"/>
  </g>
 </defs>
 <g class="Page">
  <g class="com.sun.star.drawing.PolyPolygonShape">
   <g id="id3">
    <rect class="BoundingBox" stroke="none" fill="none" x="82770" y="39999" width="1661" height="2503"/>
    <path fill="rgb(0,0,255)" stroke="none" d="M 82957,42500 L 84243,42500 84261,42499 84279,42497 84297,42492 84314,42486 84331,42478 84346,42469 84361,42458 84375,42445 84387,42432 84398,42417 84407,42401 84415,42385 84421,42367 84426,42349 84428,42331 84429,42313 84429,40187 84428,40169 84426,40151 84421,40133 84415,40115 84407,40099 84398,40083 84387,40068 84375,40054 84361,40042 84346,40031 84331,40022 84314,40014 84297,40008 84279,40003 84261,40000 84243,40000 82957,40000 82939,40000 82921,40003 82903,40008 82886,40014 82869,40022 82854,40031 82839,40042 82825,40054 82813,40068 82802,40083 82793,40099 82785,40115 82779,40133 82774,40151 82771,40169 82771,40187 82771,42313 82771,42331 82774,42349 82779,42367 82785,42385 82793,42401 82802,42417 82813,42432 82825,42445 82839,42458 82854,42469 82869,42478 82886,42486 82903,42492 82921,42497 82939,42499 82957,42500 Z"/>
    <path fill="none" stroke="rgb(0,0,255)" d="M 82957,42500 L 84243,42500 84261,42499 84279,42497 84297,42492 84314,42486 84331,42478 84346,42469 84361,42458 84375,42445 84387,42432 84398,42417 84407,42401 84415,42385 84421,42367 84426,42349 84428,42331 84429,42313 84429,40187 84428,40169 84426,40151 84421,40133 84415,40115 84407,40099 84398,40083 84387,40068 84375,40054 84361,40042 84346,40031 84331,40022 84314,40014 84297,40008 84279,40003 84261,40000 84243,40000 82957,40000 82939,40000 82921,40003 82903,40008 82886,40014 82869,40022 82854,40031 82839,40042 82825,40054 82813,40068 82802,40083 82793,40099 82785,40115 82779,40133 82774,40151 82771,40169 82771,40187 82771,42313 82771,42331 82774,42349 82779,42367 82785,42385 82793,42401 82802,42417 82813,42432 82825,42445 82839,42458 82854,42469 82869,42478 82886,42486 82903,42492 82921,42497 82939,42499 82957,42500 Z"/>
   </g>
  </g>
  <g class="com.sun.star.drawing.PolyPolygonShape">
   <g id="id4">
    <rect class="BoundingBox" stroke="none" fill="none" x="82832" y="40061" width="1537" height="2379"/>
    <path fill="rgb(255,255,255)" stroke="none" d="M 82957,42438 L 84243,42438 84255,42437 84267,42436 84279,42432 84290,42428 84301,42423 84312,42417 84322,42410 84331,42401 84339,42392 84346,42382 84352,42372 84358,42361 84362,42349 84365,42337 84366,42325 84367,42313 84367,40187 84366,40175 84365,40163 84362,40151 84358,40139 84352,40128 84346,40118 84339,40108 84331,40099 84322,40090 84312,40083 84301,40077 84290,40072 84279,40067 84267,40064 84255,40063 84243,40062 82957,40062 82945,40063 82933,40064 82921,40067 82909,40072 82898,40077 82888,40083 82878,40090 82869,40099 82861,40108 82854,40118 82847,40128 82842,40139 82838,40151 82835,40163 82833,40175 82833,40187 82833,42313 82833,42325 82835,42337 82838,42349 82842,42361 82847,42372 82854,42382 82861,42392 82869,42401 82878,42410 82888,42417 82898,42423 82909,42428 82921,42432 82933,42436 82945,42437 82957,42438 Z"/>
    <path fill="none" stroke="rgb(255,255,255)" d="M 82957,42438 L 84243,42438 84255,42437 84267,42436 84279,42432 84290,42428 84301,42423 84312,42417 84322,42410 84331,42401 84339,42392 84346,42382 84352,42372 84358,42361 84362,42349 84365,42337 84366,42325 84367,42313 84367,40187 84366,40175 84365,40163 84362,40151 84358,40139 84352,40128 84346,40118 84339,40108 84331,40099 84322,40090 84312,40083 84301,40077 84290,40072 84279,40067 84267,40064 84255,40063 84243,40062 82957,40062 82945,40063 82933,40064 82921,40067 82909,40072 82898,40077 82888,40083 82878,40090 82869,40099 82861,40108 82854,40118 82847,40128 82842,40139 82838,40151 82835,40163 82833,40175 82833,40187 82833,42313 82833,42325 82835,42337 82838,42349 82842,42361 82847,42372 82854,42382 82861,42392 82869,42401 82878,42410 82888,42417 82898,42423 82909,42428 82921,42432 82933,42436 82945,42437 82957,42438 Z"/>
   </g>
  </g>
  <g class="com.sun.star.drawing.PolyPolygonShape">
   <g id="id5">
    <rect class="BoundingBox" stroke="none" fill="none" x="82894" y="40124" width="1413" height="2253"/>
    <path fill="rgb(0,0,255)" stroke="none" d="M 82957,42375 L 84243,42375 84255,42374 84267,42371 84277,42365 84287,42357 84294,42348 84300,42337 84304,42325 84305,42313 84305,40187 84304,40175 84300,40163 84294,40152 84287,40143 84277,40135 84267,40129 84255,40126 84243,40125 82957,40125 82945,40126 82933,40129 82923,40135 82913,40143 82905,40152 82900,40163 82896,40175 82895,40187 82895,42313 82896,42325 82900,42337 82905,42348 82913,42357 82923,42365 82933,42371 82945,42374 82957,42375 Z"/>
    <path fill="none" stroke="rgb(0,0,255)" d="M 82957,42375 L 84243,42375 84255,42374 84267,42371 84277,42365 84287,42357 84294,42348 84300,42337 84304,42325 84305,42313 84305,40187 84304,40175 84300,40163 84294,40152 84287,40143 84277,40135 84267,40129 84255,40126 84243,40125 82957,40125 82945,40126 82933,40129 82923,40135 82913,40143 82905,40152 82900,40163 82896,40175 82895,40187 82895,42313 82896,42325 82900,42337 82905,42348 82913,42357 82923,42365 82933,42371 82945,42374 82957,42375 Z"/>
   </g>
  </g>
  <g class="com.sun.star.drawing.PolyPolygonShape">
   <g id="id6">
    <rect class="BoundingBox" stroke="none" fill="none" x="83080" y="40316" width="1040" height="1102"/>
    <path fill="rgb(255,255,255)" stroke="none" d="M 83455,41197 L 83431,41204 83434,41211 83438,41218 83443,41224 83449,41228 83457,41232 83464,41236 83472,41238 83480,41239 83484,41239 83487,41241 83490,41243 83492,41246 83493,41249 83493,41253 83491,41255 83488,41257 83520,41257 83520,41178 83581,41178 83572,41171 83563,41166 83559,41165 83554,41164 83549,41165 83545,41166 83533,41154 83533,41146 83534,41136 83537,41127 83541,41119 83528,41111 83527,40966 83473,40908 83455,41197 Z M 83462,40326 L 83462,40364 83462,40367 83460,40370 83454,40375 83448,40377 83445,40378 83442,40380 83441,40383 83440,40386 83446,40388 83453,40388 83457,40388 83460,40389 83463,40392 83464,40395 83486,40454 83487,40460 83487,40466 83485,40471 83482,40476 83478,40480 83473,40482 83467,40484 83461,40484 83452,40483 83443,40483 83434,40484 83425,40487 83335,40612 83287,40771 83328,40782 83367,40652 83382,40635 83370,40822 83384,40827 83383,41200 83397,41207 83394,41219 83392,41232 83392,41245 83395,41257 83372,41257 83372,41336 83081,41336 83081,41416 83445,41416 83445,41336 83598,41336 83598,41257 83746,41257 83746,41178 83893,41178 83893,41097 84118,41097 84118,41018 83820,41018 83820,41097 83668,41097 83668,41178 83631,41178 83633,41175 83635,41172 83636,41169 83635,41167 83633,41165 83630,41165 83620,41164 83611,41162 83602,41157 83594,41151 83587,41145 83581,41136 83576,41127 83572,41118 83591,41116 83601,40920 83519,40823 83541,40823 83548,40616 83577,40694 83655,40798 83687,40774 83626,40681 83585,40523 83536,40488 83532,40484 83532,40479 83534,40474 83539,40472 83558,40469 83576,40468 83580,40465 83582,40462 83584,40458 83584,40454 83582,40438 83581,40434 83582,40430 83584,40427 83587,40425 83589,40423 83589,40421 83584,40414 83581,40406 83580,40395 83582,40384 83583,40382 83585,40380 83599,40374 83601,40372 83603,40368 83601,40366 83598,40365 83592,40364 83588,40363 83584,40361 83580,40359 83577,40356 83553,40317 83462,40326 Z"/>
    <path fill="none" stroke="rgb(255,255,255)" d="M 83455,41197 L 83431,41204 83434,41211 83438,41218 83443,41224 83449,41228 83457,41232 83464,41236 83472,41238 83480,41239 83484,41239 83487,41241 83490,41243 83492,41246 83493,41249 83493,41253 83491,41255 83488,41257 83520,41257 83520,41178 83581,41178 83572,41171 83563,41166 83559,41165 83554,41164 83549,41165 83545,41166 83533,41154 83533,41146 83534,41136 83537,41127 83541,41119 83528,41111 83527,40966 83473,40908 83455,41197 Z"/>
    <path fill="none" stroke="rgb(255,255,255)" d="M 83462,40326 L 83462,40364 83462,40367 83460,40370 83454,40375 83448,40377 83445,40378 83442,40380 83441,40383 83440,40386 83446,40388 83453,40388 83457,40388 83460,40389 83463,40392 83464,40395 83486,40454 83487,40460 83487,40466 83485,40471 83482,40476 83478,40480 83473,40482 83467,40484 83461,40484 83452,40483 83443,40483 83434,40484 83425,40487 83335,40612 83287,40771 83328,40782 83367,40652 83382,40635 83370,40822 83384,40827 83383,41200 83397,41207 83394,41219 83392,41232 83392,41245 83395,41257 83372,41257 83372,41336 83081,41336 83081,41416 83445,41416 83445,41336 83598,41336 83598,41257 83746,41257 83746,41178 83893,41178 83893,41097 84118,41097 84118,41018 83820,41018 83820,41097 83668,41097 83668,41178 83631,41178 83633,41175 83635,41172 83636,41169 83635,41167 83633,41165 83630,41165 83620,41164 83611,41162 83602,41157 83594,41151 83587,41145 83581,41136 83576,41127 83572,41118 83591,41116 83601,40920 83519,40823 83541,40823 83548,40616 83577,40694 83655,40798 83687,40774 83626,40681 83585,40523 83536,40488 83532,40484 83532,40479 83534,40474 83539,40472 83558,40469 83576,40468 83580,40465 83582,40462 83584,40458 83584,40454 83582,40438 83581,40434 83582,40430 83584,40427 83587,40425 83589,40423 83589,40421 83584,40414 83581,40406 83580,40395 83582,40384 83583,40382 83585,40380 83599,40374 83601,40372 83603,40368 83601,40366 83598,40365 83592,40364 83588,40363 83584,40361 83580,40359 83577,40356 83553,40317 83462,40326 Z"/>
   </g>
  </g>
  <g class="com.sun.star.drawing.PolyPolygonShape">
   <g id="id7">
    <rect class="BoundingBox" stroke="none" fill="none" x="83060" y="41998" width="86" height="296"/>
    <path fill="rgb(255,255,255)" stroke="none" d="M 83061,42084 L 83090,42084 83090,42292 83144,42292 83144,41999 83090,41999 83061,42055 83061,42084 Z"/>
    <path fill="none" stroke="rgb(255,255,255)" d="M 83061,42084 L 83090,42084 83090,42292 83144,42292 83144,41999 83090,41999 83061,42055 83061,42084 Z"/>
   </g>
  </g>
  <g class="com.sun.star.drawing.PolyPolygonShape">
   <g id="id8">
    <rect class="BoundingBox" stroke="none" fill="none" x="83060" y="41998" width="86" height="296"/>
    <path fill="rgb(255,255,255)" stroke="none" d="M 83061,42084 L 83090,42084 83090,42292 83144,42292 83144,41999 83090,41999 83061,42055 83061,42084 Z"/>
    <path fill="none" stroke="rgb(255,255,255)" d="M 83061,42084 L 83090,42084 83090,42292 83144,42292 83144,41999 83090,41999 83061,42055 83061,42084 Z"/>
   </g>
  </g>
  <g class="com.sun.star.drawing.PolyPolygonShape">
   <g id="id9">
    <rect class="BoundingBox" stroke="none" fill="none" x="83060" y="41998" width="86" height="296"/>
    <path fill="rgb(255,255,255)" stroke="none" d="M 83061,42084 L 83090,42084 83090,42292 83144,42292 83144,41999 83090,41999 83061,42055 83061,42084 Z"/>
    <path fill="none" stroke="rgb(255,255,255)" d="M 83061,42084 L 83090,42084 83090,42292 83144,42292 83144,41999 83090,41999 83061,42055 83061,42084 Z"/>
   </g>
  </g>
  <g class="com.sun.star.drawing.PolyPolygonShape">
   <g id="id10">
    <rect class="BoundingBox" stroke="none" fill="none" x="83217" y="41993" width="203" height="307"/>
    <path fill="rgb(255,255,255)" stroke="none" d="M 83271,42089 L 83271,42202 83272,42211 83275,42220 83279,42228 83286,42235 83293,42240 83301,42245 83310,42248 83319,42248 83328,42248 83336,42245 83344,42240 83352,42235 83357,42228 83361,42220 83364,42211 83365,42202 83365,42089 83364,42079 83361,42071 83357,42063 83352,42056 83344,42050 83336,42046 83328,42043 83319,42042 83310,42043 83301,42046 83293,42050 83286,42056 83279,42063 83275,42071 83272,42079 83271,42089 Z M 83218,42094 L 83218,42197 83219,42207 83220,42216 83223,42226 83226,42235 83230,42244 83235,42252 83241,42260 83247,42268 83255,42275 83262,42281 83271,42286 83280,42290 83290,42293 83299,42296 83309,42297 83319,42298 83329,42297 83338,42296 83348,42293 83357,42290 83366,42286 83374,42281 83382,42275 83389,42268 83396,42260 83401,42252 83407,42244 83411,42235 83414,42226 83416,42216 83418,42207 83418,42197 83418,42094 83418,42084 83416,42074 83414,42065 83411,42055 83407,42046 83401,42038 83396,42030 83389,42023 83382,42016 83374,42010 83366,42005 83357,42001 83348,41998 83338,41995 83329,41994 83319,41994 83309,41994 83299,41995 83290,41998 83280,42001 83271,42005 83262,42010 83255,42016 83247,42023 83241,42030 83235,42038 83230,42046 83226,42055 83223,42065 83220,42074 83219,42084 83218,42094 Z"/>
    <path fill="none" stroke="rgb(255,255,255)" d="M 83271,42089 L 83271,42202 83272,42211 83275,42220 83279,42228 83286,42235 83293,42240 83301,42245 83310,42248 83319,42248 83328,42248 83336,42245 83344,42240 83352,42235 83357,42228 83361,42220 83364,42211 83365,42202 83365,42089 83364,42079 83361,42071 83357,42063 83352,42056 83344,42050 83336,42046 83328,42043 83319,42042 83310,42043 83301,42046 83293,42050 83286,42056 83279,42063 83275,42071 83272,42079 83271,42089 Z"/>
    <path fill="none" stroke="rgb(255,255,255)" d="M 83218,42094 L 83218,42197 83219,42207 83220,42216 83223,42226 83226,42235 83230,42244 83235,42252 83241,42260 83247,42268 83255,42275 83262,42281 83271,42286 83280,42290 83290,42293 83299,42296 83309,42297 83319,42298 83329,42297 83338,42296 83348,42293 83357,42290 83366,42286 83374,42281 83382,42275 83389,42268 83396,42260 83401,42252 83407,42244 83411,42235 83414,42226 83416,42216 83418,42207 83418,42197 83418,42094 83418,42084 83416,42074 83414,42065 83411,42055 83407,42046 83401,42038 83396,42030 83389,42023 83382,42016 83374,42010 83366,42005 83357,42001 83348,41998 83338,41995 83329,41994 83319,41994 83309,41994 83299,41995 83290,41998 83280,42001 83271,42005 83262,42010 83255,42016 83247,42023 83241,42030 83235,42038 83230,42046 83226,42055 83223,42065 83220,42074 83219,42084 83218,42094 Z"/>
   </g>
  </g>
  <g class="com.sun.star.drawing.PolyPolygonShape">
   <g id="id11">
    <rect class="BoundingBox" stroke="none" fill="none" x="83217" y="41993" width="203" height="307"/>
    <path fill="rgb(255,255,255)" stroke="none" d="M 83271,42089 L 83271,42202 83272,42211 83275,42220 83279,42228 83286,42235 83293,42240 83301,42245 83310,42248 83319,42248 83328,42248 83336,42245 83344,42240 83352,42235 83357,42228 83361,42220 83364,42211 83365,42202 83365,42089 83364,42079 83361,42071 83357,42063 83352,42056 83344,42050 83336,42046 83328,42043 83319,42042 83310,42043 83301,42046 83293,42050 83286,42056 83279,42063 83275,42071 83272,42079 83271,42089 Z M 83218,42094 L 83218,42197 83219,42207 83220,42216 83223,42226 83226,42235 83230,42244 83235,42252 83241,42260 83247,42268 83255,42275 83262,42281 83271,42286 83280,42290 83290,42293 83299,42296 83309,42297 83319,42298 83329,42297 83338,42296 83348,42293 83357,42290 83366,42286 83374,42281 83382,42275 83389,42268 83396,42260 83401,42252 83407,42244 83411,42235 83414,42226 83416,42216 83418,42207 83418,42197 83418,42094 83418,42084 83416,42074 83414,42065 83411,42055 83407,42046 83401,42038 83396,42030 83389,42023 83382,42016 83374,42010 83366,42005 83357,42001 83348,41998 83338,41995 83329,41994 83319,41994 83309,41994 83299,41995 83290,41998 83280,42001 83271,42005 83262,42010 83255,42016 83247,42023 83241,42030 83235,42038 83230,42046 83226,42055 83223,42065 83220,42074 83219,42084 83218,42094 Z"/>
    <path fill="none" stroke="rgb(255,255,255)" d="M 83271,42089 L 83271,42202 83272,42211 83275,42220 83279,42228 83286,42235 83293,42240 83301,42245 83310,42248 83319,42248 83328,42248 83336,42245 83344,42240 83352,42235 83357,42228 83361,42220 83364,42211 83365,42202 83365,42089 83364,42079 83361,42071 83357,42063 83352,42056 83344,42050 83336,42046 83328,42043 83319,42042 83310,42043 83301,42046 83293,42050 83286,42056 83279,42063 83275,42071 83272,42079 83271,42089 Z"/>
    <path fill="none" stroke="rgb(255,255,255)" d="M 83218,42094 L 83218,42197 83219,42207 83220,42216 83223,42226 83226,42235 83230,42244 83235,42252 83241,42260 83247,42268 83255,42275 83262,42281 83271,42286 83280,42290 83290,42293 83299,42296 83309,42297 83319,42298 83329,42297 83338,42296 83348,42293 83357,42290 83366,42286 83374,42281 83382,42275 83389,42268 83396,42260 83401,42252 83407,42244 83411,42235 83414,42226 83416,42216 83418,42207 83418,42197 83418,42094 83418,42084 83416,42074 83414,42065 83411,42055 83407,42046 83401,42038 83396,42030 83389,42023 83382,42016 83374,42010 83366,42005 83357,42001 83348,41998 83338,41995 83329,41994 83319,41994 83309,41994 83299,41995 83290,41998 83280,42001 83271,42005 83262,42010 83255,42016 83247,42023 83241,42030 83235,42038 83230,42046 83226,42055 83223,42065 83220,42074 83219,42084 83218,42094 Z"/>
   </g>
  </g>
  <g class="com.sun.star.drawing.PolyPolygonShape">
   <g id="id12">
    <rect class="BoundingBox" stroke="none" fill="none" x="83217" y="41993" width="203" height="307"/>
    <path fill="rgb(255,255,255)" stroke="none" d="M 83271,42089 L 83271,42202 83272,42211 83275,42220 83279,42228 83286,42235 83293,42240 83301,42245 83310,42248 83319,42248 83328,42248 83336,42245 83344,42240 83352,42235 83357,42228 83361,42220 83364,42211 83365,42202 83365,42089 83364,42079 83361,42071 83357,42063 83352,42056 83344,42050 83336,42046 83328,42043 83319,42042 83310,42043 83301,42046 83293,42050 83286,42056 83279,42063 83275,42071 83272,42079 83271,42089 Z M 83218,42094 L 83218,42197 83219,42207 83220,42216 83223,42226 83226,42235 83230,42244 83235,42252 83241,42260 83247,42268 83255,42275 83262,42281 83271,42286 83280,42290 83290,42293 83299,42296 83309,42297 83319,42298 83329,42297 83338,42296 83348,42293 83357,42290 83366,42286 83374,42281 83382,42275 83389,42268 83396,42260 83401,42252 83407,42244 83411,42235 83414,42226 83416,42216 83418,42207 83418,42197 83418,42094 83418,42084 83416,42074 83414,42065 83411,42055 83407,42046 83401,42038 83396,42030 83389,42023 83382,42016 83374,42010 83366,42005 83357,42001 83348,41998 83338,41995 83329,41994 83319,41994 83309,41994 83299,41995 83290,41998 83280,42001 83271,42005 83262,42010 83255,42016 83247,42023 83241,42030 83235,42038 83230,42046 83226,42055 83223,42065 83220,42074 83219,42084 83218,42094 Z"/>
    <path fill="none" stroke="rgb(255,255,255)" d="M 83271,42089 L 83271,42202 83272,42211 83275,42220 83279,42228 83286,42235 83293,42240 83301,42245 83310,42248 83319,42248 83328,42248 83336,42245 83344,42240 83352,42235 83357,42228 83361,42220 83364,42211 83365,42202 83365,42089 83364,42079 83361,42071 83357,42063 83352,42056 83344,42050 83336,42046 83328,42043 83319,42042 83310,42043 83301,42046 83293,42050 83286,42056 83279,42063 83275,42071 83272,42079 83271,42089 Z"/>
    <path fill="none" stroke="rgb(255,255,255)" d="M 83218,42094 L 83218,42197 83219,42207 83220,42216 83223,42226 83226,42235 83230,42244 83235,42252 83241,42260 83247,42268 83255,42275 83262,42281 83271,42286 83280,42290 83290,42293 83299,42296 83309,42297 83319,42298 83329,42297 83338,42296 83348,42293 83357,42290 83366,42286 83374,42281 83382,42275 83389,42268 83396,42260 83401,42252 83407,42244 83411,42235 83414,42226 83416,42216 83418,42207 83418,42197 83418,42094 83418,42084 83416,42074 83414,42065 83411,42055 83407,42046 83401,42038 83396,42030 83389,42023 83382,42016 83374,42010 83366,42005 83357,42001 83348,41998 83338,41995 83329,41994 83319,41994 83309,41994 83299,41995 83290,41998 83280,42001 83271,42005 83262,42010 83255,42016 83247,42023 83241,42030 83235,42038 83230,42046 83226,42055 83223,42065 83220,42074 83219,42084 83218,42094 Z"/>
   </g>
  </g>
  <g class="com.sun.star.drawing.PolyPolygonShape">
   <g id="id13">
    <rect class="BoundingBox" stroke="none" fill="none" x="83489" y="41993" width="203" height="307"/>
    <path fill="rgb(255,255,255)" stroke="none" d="M 83543,42089 L 83543,42202 83544,42211 83546,42220 83551,42228 83556,42235 83564,42240 83571,42245 83580,42248 83589,42248 83598,42248 83607,42245 83615,42240 83622,42235 83628,42228 83632,42220 83635,42211 83635,42202 83635,42089 83635,42079 83632,42071 83628,42063 83622,42056 83615,42050 83607,42046 83598,42043 83589,42042 83580,42043 83571,42046 83564,42050 83556,42056 83551,42063 83546,42071 83544,42079 83543,42089 Z M 83490,42094 L 83490,42197 83490,42207 83492,42216 83494,42226 83497,42235 83501,42244 83506,42252 83512,42260 83519,42268 83526,42275 83534,42281 83542,42286 83551,42290 83560,42293 83570,42296 83580,42297 83589,42298 83599,42297 83609,42296 83618,42293 83627,42290 83636,42286 83644,42281 83652,42275 83659,42268 83666,42260 83672,42252 83677,42244 83682,42235 83685,42226 83688,42216 83689,42207 83690,42197 83690,42094 83689,42084 83688,42074 83685,42065 83682,42055 83677,42046 83672,42038 83666,42030 83659,42023 83652,42016 83644,42010 83636,42005 83627,42001 83618,41998 83609,41995 83599,41994 83589,41994 83580,41994 83570,41995 83560,41998 83551,42001 83542,42005 83534,42010 83526,42016 83519,42023 83512,42030 83506,42038 83501,42046 83497,42055 83494,42065 83492,42074 83490,42084 83490,42094 Z"/>
    <path fill="none" stroke="rgb(255,255,255)" d="M 83543,42089 L 83543,42202 83544,42211 83546,42220 83551,42228 83556,42235 83564,42240 83571,42245 83580,42248 83589,42248 83598,42248 83607,42245 83615,42240 83622,42235 83628,42228 83632,42220 83635,42211 83635,42202 83635,42089 83635,42079 83632,42071 83628,42063 83622,42056 83615,42050 83607,42046 83598,42043 83589,42042 83580,42043 83571,42046 83564,42050 83556,42056 83551,42063 83546,42071 83544,42079 83543,42089 Z"/>
    <path fill="none" stroke="rgb(255,255,255)" d="M 83490,42094 L 83490,42197 83490,42207 83492,42216 83494,42226 83497,42235 83501,42244 83506,42252 83512,42260 83519,42268 83526,42275 83534,42281 83542,42286 83551,42290 83560,42293 83570,42296 83580,42297 83589,42298 83599,42297 83609,42296 83618,42293 83627,42290 83636,42286 83644,42281 83652,42275 83659,42268 83666,42260 83672,42252 83677,42244 83682,42235 83685,42226 83688,42216 83689,42207 83690,42197 83690,42094 83689,42084 83688,42074 83685,42065 83682,42055 83677,42046 83672,42038 83666,42030 83659,42023 83652,42016 83644,42010 83636,42005 83627,42001 83618,41998 83609,41995 83599,41994 83589,41994 83580,41994 83570,41995 83560,41998 83551,42001 83542,42005 83534,42010 83526,42016 83519,42023 83512,42030 83506,42038 83501,42046 83497,42055 83494,42065 83492,42074 83490,42084 83490,42094 Z"/>
   </g>
  </g>
  <g class="com.sun.star.drawing.PolyPolygonShape">
   <g id="id14">
    <rect class="BoundingBox" stroke="none" fill="none" x="83489" y="41993" width="203" height="307"/>
    <path fill="rgb(255,255,255)" stroke="none" d="M 83543,42089 L 83543,42202 83544,42211 83546,42220 83551,42228 83556,42235 83564,42240 83571,42245 83580,42248 83589,42248 83598,42248 83607,42245 83615,42240 83622,42235 83628,42228 83632,42220 83635,42211 83635,42202 83635,42089 83635,42079 83632,42071 83628,42063 83622,42056 83615,42050 83607,42046 83598,42043 83589,42042 83580,42043 83571,42046 83564,42050 83556,42056 83551,42063 83546,42071 83544,42079 83543,42089 Z M 83490,42094 L 83490,42197 83490,42207 83492,42216 83494,42226 83497,42235 83501,42244 83506,42252 83512,42260 83519,42268 83526,42275 83534,42281 83542,42286 83551,42290 83560,42293 83570,42296 83580,42297 83589,42298 83599,42297 83609,42296 83618,42293 83627,42290 83636,42286 83644,42281 83652,42275 83659,42268 83666,42260 83672,42252 83677,42244 83682,42235 83685,42226 83688,42216 83689,42207 83690,42197 83690,42094 83689,42084 83688,42074 83685,42065 83682,42055 83677,42046 83672,42038 83666,42030 83659,42023 83652,42016 83644,42010 83636,42005 83627,42001 83618,41998 83609,41995 83599,41994 83589,41994 83580,41994 83570,41995 83560,41998 83551,42001 83542,42005 83534,42010 83526,42016 83519,42023 83512,42030 83506,42038 83501,42046 83497,42055 83494,42065 83492,42074 83490,42084 83490,42094 Z"/>
    <path fill="none" stroke="rgb(255,255,255)" d="M 83543,42089 L 83543,42202 83544,42211 83546,42220 83551,42228 83556,42235 83564,42240 83571,42245 83580,42248 83589,42248 83598,42248 83607,42245 83615,42240 83622,42235 83628,42228 83632,42220 83635,42211 83635,42202 83635,42089 83635,42079 83632,42071 83628,42063 83622,42056 83615,42050 83607,42046 83598,42043 83589,42042 83580,42043 83571,42046 83564,42050 83556,42056 83551,42063 83546,42071 83544,42079 83543,42089 Z"/>
    <path fill="none" stroke="rgb(255,255,255)" d="M 83490,42094 L 83490,42197 83490,42207 83492,42216 83494,42226 83497,42235 83501,42244 83506,42252 83512,42260 83519,42268 83526,42275 83534,42281 83542,42286 83551,42290 83560,42293 83570,42296 83580,42297 83589,42298 83599,42297 83609,42296 83618,42293 83627,42290 83636,42286 83644,42281 83652,42275 83659,42268 83666,42260 83672,42252 83677,42244 83682,42235 83685,42226 83688,42216 83689,42207 83690,42197 83690,42094 83689,42084 83688,42074 83685,42065 83682,42055 83677,42046 83672,42038 83666,42030 83659,42023 83652,42016 83644,42010 83636,42005 83627,42001 83618,41998 83609,41995 83599,41994 83589,41994 83580,41994 83570,41995 83560,41998 83551,42001 83542,42005 83534,42010 83526,42016 83519,42023 83512,42030 83506,42038 83501,42046 83497,42055 83494,42065 83492,42074 83490,42084 83490,42094 Z"/>
   </g>
  </g>
  <g class="com.sun.star.drawing.PolyPolygonShape">
   <g id="id15">
    <rect class="BoundingBox" stroke="none" fill="none" x="83489" y="41993" width="203" height="307"/>
    <path fill="rgb(255,255,255)" stroke="none" d="M 83543,42089 L 83543,42202 83544,42211 83546,42220 83551,42228 83556,42235 83564,42240 83571,42245 83580,42248 83589,42248 83598,42248 83607,42245 83615,42240 83622,42235 83628,42228 83632,42220 83635,42211 83635,42202 83635,42089 83635,42079 83632,42071 83628,42063 83622,42056 83615,42050 83607,42046 83598,42043 83589,42042 83580,42043 83571,42046 83564,42050 83556,42056 83551,42063 83546,42071 83544,42079 83543,42089 Z M 83490,42094 L 83490,42197 83490,42207 83492,42216 83494,42226 83497,42235 83501,42244 83506,42252 83512,42260 83519,42268 83526,42275 83534,42281 83542,42286 83551,42290 83560,42293 83570,42296 83580,42297 83589,42298 83599,42297 83609,42296 83618,42293 83627,42290 83636,42286 83644,42281 83652,42275 83659,42268 83666,42260 83672,42252 83677,42244 83682,42235 83685,42226 83688,42216 83689,42207 83690,42197 83690,42094 83689,42084 83688,42074 83685,42065 83682,42055 83677,42046 83672,42038 83666,42030 83659,42023 83652,42016 83644,42010 83636,42005 83627,42001 83618,41998 83609,41995 83599,41994 83589,41994 83580,41994 83570,41995 83560,41998 83551,42001 83542,42005 83534,42010 83526,42016 83519,42023 83512,42030 83506,42038 83501,42046 83497,42055 83494,42065 83492,42074 83490,42084 83490,42094 Z"/>
    <path fill="none" stroke="rgb(255,255,255)" d="M 83543,42089 L 83543,42202 83544,42211 83546,42220 83551,42228 83556,42235 83564,42240 83571,42245 83580,42248 83589,42248 83598,42248 83607,42245 83615,42240 83622,42235 83628,42228 83632,42220 83635,42211 83635,42202 83635,42089 83635,42079 83632,42071 83628,42063 83622,42056 83615,42050 83607,42046 83598,42043 83589,42042 83580,42043 83571,42046 83564,42050 83556,42056 83551,42063 83546,42071 83544,42079 83543,42089 Z"/>
    <path fill="none" stroke="rgb(255,255,255)" d="M 83490,42094 L 83490,42197 83490,42207 83492,42216 83494,42226 83497,42235 83501,42244 83506,42252 83512,42260 83519,42268 83526,42275 83534,42281 83542,42286 83551,42290 83560,42293 83570,42296 83580,42297 83589,42298 83599,42297 83609,42296 83618,42293 83627,42290 83636,42286 83644,42281 83652,42275 83659,42268 83666,42260 83672,42252 83677,42244 83682,42235 83685,42226 83688,42216 83689,42207 83690,42197 83690,42094 83689,42084 83688,42074 83685,42065 83682,42055 83677,42046 83672,42038 83666,42030 83659,42023 83652,42016 83644,42010 83636,42005 83627,42001 83618,41998 83609,41995 83599,41994 83589,41994 83580,41994 83570,41995 83560,41998 83551,42001 83542,42005 83534,42010 83526,42016 83519,42023 83512,42030 83506,42038 83501,42046 83497,42055 83494,42065 83492,42074 83490,42084 83490,42094 Z"/>
   </g>
  </g>
  <g class="com.sun.star.drawing.PolyPolygonShape">
   <g id="id16">
    <rect class="BoundingBox" stroke="none" fill="none" x="83854" y="42076" width="287" height="218"/>
    <path fill="rgb(255,255,255)" stroke="none" d="M 83855,42292 L 83904,42292 83904,42153 83904,42147 83906,42140 83910,42134 83914,42129 83919,42124 83925,42121 83932,42119 83938,42119 83945,42119 83951,42121 83958,42124 83963,42129 83967,42134 83970,42140 83972,42147 83973,42153 83973,42292 84021,42292 84021,42153 84022,42147 84024,42140 84027,42134 84031,42129 84036,42124 84043,42121 84049,42119 84056,42119 84062,42119 84069,42121 84075,42124 84080,42129 84084,42134 84088,42140 84090,42147 84090,42153 84090,42292 84139,42292 84139,42145 84138,42134 84135,42123 84131,42113 84125,42104 84117,42096 84108,42089 84099,42083 84088,42079 84078,42077 84066,42077 84055,42079 84045,42082 84035,42087 84026,42093 84018,42101 84012,42111 84007,42104 84002,42098 83996,42093 83990,42088 83983,42084 83976,42081 83969,42079 83961,42077 83953,42077 83945,42077 83937,42079 83930,42081 83923,42084 83916,42088 83910,42092 83904,42098 83904,42083 83855,42083 83855,42292 Z"/>
    <path fill="none" stroke="rgb(255,255,255)" d="M 83855,42292 L 83904,42292 83904,42153 83904,42147 83906,42140 83910,42134 83914,42129 83919,42124 83925,42121 83932,42119 83938,42119 83945,42119 83951,42121 83958,42124 83963,42129 83967,42134 83970,42140 83972,42147 83973,42153 83973,42292 84021,42292 84021,42153 84022,42147 84024,42140 84027,42134 84031,42129 84036,42124 84043,42121 84049,42119 84056,42119 84062,42119 84069,42121 84075,42124 84080,42129 84084,42134 84088,42140 84090,42147 84090,42153 84090,42292 84139,42292 84139,42145 84138,42134 84135,42123 84131,42113 84125,42104 84117,42096 84108,42089 84099,42083 84088,42079 84078,42077 84066,42077 84055,42079 84045,42082 84035,42087 84026,42093 84018,42101 84012,42111 84007,42104 84002,42098 83996,42093 83990,42088 83983,42084 83976,42081 83969,42079 83961,42077 83953,42077 83945,42077 83937,42079 83930,42081 83923,42084 83916,42088 83910,42092 83904,42098 83904,42083 83855,42083 83855,42292 Z"/>
   </g>
  </g>
  <g class="com.sun.star.drawing.PolyPolygonShape">
   <g id="id17">
    <rect class="BoundingBox" stroke="none" fill="none" x="83854" y="42076" width="287" height="218"/>
    <path fill="rgb(255,255,255)" stroke="none" d="M 83855,42292 L 83904,42292 83904,42153 83904,42147 83906,42140 83910,42134 83914,42129 83919,42124 83925,42121 83932,42119 83938,42119 83945,42119 83951,42121 83958,42124 83963,42129 83967,42134 83970,42140 83972,42147 83973,42153 83973,42292 84021,42292 84021,42153 84022,42147 84024,42140 84027,42134 84031,42129 84036,42124 84043,42121 84049,42119 84056,42119 84062,42119 84069,42121 84075,42124 84080,42129 84084,42134 84088,42140 84090,42147 84090,42153 84090,42292 84139,42292 84139,42145 84138,42134 84135,42123 84131,42113 84125,42104 84117,42096 84108,42089 84099,42083 84088,42079 84078,42077 84066,42077 84055,42079 84045,42082 84035,42087 84026,42093 84018,42101 84012,42111 84007,42104 84002,42098 83996,42093 83990,42088 83983,42084 83976,42081 83969,42079 83961,42077 83953,42077 83945,42077 83937,42079 83930,42081 83923,42084 83916,42088 83910,42092 83904,42098 83904,42083 83855,42083 83855,42292 Z"/>
    <path fill="none" stroke="rgb(255,255,255)" d="M 83855,42292 L 83904,42292 83904,42153 83904,42147 83906,42140 83910,42134 83914,42129 83919,42124 83925,42121 83932,42119 83938,42119 83945,42119 83951,42121 83958,42124 83963,42129 83967,42134 83970,42140 83972,42147 83973,42153 83973,42292 84021,42292 84021,42153 84022,42147 84024,42140 84027,42134 84031,42129 84036,42124 84043,42121 84049,42119 84056,42119 84062,42119 84069,42121 84075,42124 84080,42129 84084,42134 84088,42140 84090,42147 84090,42153 84090,42292 84139,42292 84139,42145 84138,42134 84135,42123 84131,42113 84125,42104 84117,42096 84108,42089 84099,42083 84088,42079 84078,42077 84066,42077 84055,42079 84045,42082 84035,42087 84026,42093 84018,42101 84012,42111 84007,42104 84002,42098 83996,42093 83990,42088 83983,42084 83976,42081 83969,42079 83961,42077 83953,42077 83945,42077 83937,42079 83930,42081 83923,42084 83916,42088 83910,42092 83904,42098 83904,42083 83855,42083 83855,42292 Z"/>
   </g>
  </g>
  <g class="com.sun.star.drawing.PolyPolygonShape">
   <g id="id18">
    <rect class="BoundingBox" stroke="none" fill="none" x="83854" y="42076" width="287" height="218"/>
    <path fill="rgb(255,255,255)" stroke="none" d="M 83855,42292 L 83904,42292 83904,42153 83904,42147 83906,42140 83910,42134 83914,42129 83919,42124 83925,42121 83932,42119 83938,42119 83945,42119 83951,42121 83958,42124 83963,42129 83967,42134 83970,42140 83972,42147 83973,42153 83973,42292 84021,42292 84021,42153 84022,42147 84024,42140 84027,42134 84031,42129 84036,42124 84043,42121 84049,42119 84056,42119 84062,42119 84069,42121 84075,42124 84080,42129 84084,42134 84088,42140 84090,42147 84090,42153 84090,42292 84139,42292 84139,42145 84138,42134 84135,42123 84131,42113 84125,42104 84117,42096 84108,42089 84099,42083 84088,42079 84078,42077 84066,42077 84055,42079 84045,42082 84035,42087 84026,42093 84018,42101 84012,42111 84007,42104 84002,42098 83996,42093 83990,42088 83983,42084 83976,42081 83969,42079 83961,42077 83953,42077 83945,42077 83937,42079 83930,42081 83923,42084 83916,42088 83910,42092 83904,42098 83904,42083 83855,42083 83855,42292 Z"/>
    <path fill="none" stroke="rgb(255,255,255)" d="M 83855,42292 L 83904,42292 83904,42153 83904,42147 83906,42140 83910,42134 83914,42129 83919,42124 83925,42121 83932,42119 83938,42119 83945,42119 83951,42121 83958,42124 83963,42129 83967,42134 83970,42140 83972,42147 83973,42153 83973,42292 84021,42292 84021,42153 84022,42147 84024,42140 84027,42134 84031,42129 84036,42124 84043,42121 84049,42119 84056,42119 84062,42119 84069,42121 84075,42124 84080,42129 84084,42134 84088,42140 84090,42147 84090,42153 84090,42292 84139,42292 84139,42145 84138,42134 84135,42123 84131,42113 84125,42104 84117,42096 84108,42089 84099,42083 84088,42079 84078,42077 84066,42077 84055,42079 84045,42082 84035,42087 84026,42093 84018,42101 84012,42111 84007,42104 84002,42098 83996,42093 83990,42088 83983,42084 83976,42081 83969,42079 83961,42077 83953,42077 83945,42077 83937,42079 83930,42081 83923,42084 83916,42088 83910,42092 83904,42098 83904,42083 83855,42083 83855,42292 Z"/>
   </g>
  </g>
  <g class="com.sun.star.drawing.PolyPolygonShape">
   <g id="id19">
    <rect class="BoundingBox" stroke="none" fill="none" x="83018" y="41482" width="1165" height="420"/>
    <path fill="rgb(255,255,255)" stroke="none" d="M 84181,41618 L 83367,41618 83367,41483 83019,41691 83367,41900 83367,41764 84181,41764 84181,41618 Z"/>
    <path fill="none" stroke="rgb(255,255,255)" d="M 84181,41618 L 83367,41618 83367,41483 83019,41691 83367,41900 83367,41764 84181,41764 84181,41618 Z"/>
   </g>
  </g>
  <g class="com.sun.star.drawing.PolyPolygonShape">
   <g id="id20">
    <rect class="BoundingBox" stroke="none" fill="none" x="83018" y="41482" width="1165" height="420"/>
    <path fill="rgb(255,255,255)" stroke="none" d="M 84181,41618 L 83367,41618 83367,41483 83019,41691 83367,41900 83367,41764 84181,41764 84181,41618 Z"/>
    <path fill="none" stroke="rgb(255,255,255)" d="M 84181,41618 L 83367,41618 83367,41483 83019,41691 83367,41900 83367,41764 84181,41764 84181,41618 Z"/>
   </g>
  </g>
 </g>
</svg>