<?xml version="1.0" encoding="UTF-8" standalone="no"?>
<!-- Created with Inkscape (http://www.inkscape.org/) -->

<svg
   xmlns:dc="http://purl.org/dc/elements/1.1/"
   xmlns:cc="http://creativecommons.org/ns#"
   xmlns:rdf="http://www.w3.org/1999/02/22-rdf-syntax-ns#"
   xmlns:svg="http://www.w3.org/2000/svg"
   xmlns="http://www.w3.org/2000/svg"
   xmlns:sodipodi="http://sodipodi.sourceforge.net/DTD/sodipodi-0.dtd"
   xmlns:inkscape="http://www.inkscape.org/namespaces/inkscape"
   width="68.599289"
   height="68.599289"
   id="svg3304"
   version="1.1"
   inkscape:version="0.47 r22583"
   sodipodi:docname="Belgian road sign F51a.svg">
  <defs
     id="defs3306">
    <inkscape:perspective
       sodipodi:type="inkscape:persp3d"
       inkscape:vp_x="0 : 526.18109 : 1"
       inkscape:vp_y="0 : 1000 : 0"
       inkscape:vp_z="744.09448 : 526.18109 : 1"
       inkscape:persp3d-origin="372.04724 : 350.78739 : 1"
       id="perspective3312" />
    <inkscape:perspective
       id="perspective3322"
       inkscape:persp3d-origin="0.5 : 0.33333333 : 1"
       inkscape:vp_z="1 : 0.5 : 1"
       inkscape:vp_y="0 : 1000 : 0"
       inkscape:vp_x="0 : 0.5 : 1"
       sodipodi:type="inkscape:persp3d" />
    <clipPath
       clipPathUnits="userSpaceOnUse"
       id="clipPath2942">
      <path
         d="m 731,5156.67 564,0 0,-841 -564,0"
         id="path2944" />
    </clipPath>
    <inkscape:perspective
       id="perspective3521"
       inkscape:persp3d-origin="34.303001 : 34.112999 : 1"
       inkscape:vp_z="68.606003 : 51.169498 : 1"
       inkscape:vp_y="0 : 1000 : 0"
       inkscape:vp_x="0 : 51.169498 : 1"
       sodipodi:type="inkscape:persp3d" />
    <inkscape:perspective
       id="perspective3678"
       inkscape:persp3d-origin="0.5 : 0.33333333 : 1"
       inkscape:vp_z="1 : 0.5 : 1"
       inkscape:vp_y="0 : 1000 : 0"
       inkscape:vp_x="0 : 0.5 : 1"
       sodipodi:type="inkscape:persp3d" />
  </defs>
  <sodipodi:namedview
     id="base"
     pagecolor="#ffffff"
     bordercolor="#666666"
     borderopacity="1.0"
     inkscape:pageopacity="0.0"
     inkscape:pageshadow="2"
     inkscape:zoom="3.3414062"
     inkscape:cx="121.67252"
     inkscape:cy="-19.734501"
     inkscape:document-units="px"
     inkscape:current-layer="layer1"
     showgrid="false"
     inkscape:window-width="1600"
     inkscape:window-height="838"
     inkscape:window-x="-8"
     inkscape:window-y="-8"
     inkscape:window-maximized="1" />
  <metadata
     id="metadata3309">
    <rdf:RDF>
      <cc:Work
         rdf:about="">
        <dc:format>image/svg+xml</dc:format>
        <dc:type
           rdf:resource="http://purl.org/dc/dcmitype/StillImage" />
        <dc:title></dc:title>
      </cc:Work>
    </rdf:RDF>
  </metadata>
  <g
     inkscape:label="Livello 1"
     inkscape:groupmode="layer"
     id="layer1"
     transform="translate(-64.430544,-572.23016)">


























<path
   id="path3032"
   style="fill:#00ff00;fill-opacity:1;fill-rule:nonzero;stroke:none"
   d="m 69.592988,572.30516 58.274392,0 1.04061,0.11562 0.92499,0.23125 0.92499,0.57812 0.69374,0.57813 0.57813,0.69374 0.46249,0.92499 0.34688,0.92499 0.11562,1.04061 0,58.39001 -0.11562,0.92499 -0.34688,0.92499 -0.46249,0.92499 -0.57813,0.69375 -0.69374,0.69374 -0.92499,0.34688 -0.92499,0.34686 -0.92499,0.11563 -58.505631,0 -0.924989,-0.11563 -1.040619,-0.34686 -0.809361,-0.34688 -0.693742,-0.69374 -0.693743,-0.69375 -0.462495,-0.92499 -0.231247,-0.80936 -0.115629,-1.04062 0,-58.39001 0.115629,-1.04061 0.231247,-0.92499 0.462495,-0.92499 0.693743,-0.69374 0.693742,-0.57813 0.809361,-0.46249 1.040619,-0.34688 0.924989,-0.11562" />
<path
   id="path3034"
   style="fill:#00ff00;fill-opacity:1;fill-rule:nonzero;stroke:none"
   d="m 69.592988,572.30516 58.274392,0 1.04061,0.11562 0.92499,0.34688 0.80937,0.46249 0.80936,0.69375 0.57813,0.69374 0.46249,0.80937 0.23125,0.92499 0.11563,1.04061 0,58.39001 -0.11563,0.92499 -0.23125,0.92499 -0.46249,0.80938 -0.57813,0.80936 -0.80936,0.57812 -0.80937,0.4625 -0.92499,0.23124 -0.92499,0.11562 -58.505631,0 -0.924989,-0.11562 -1.040619,-0.23124 -0.809361,-0.4625 -0.693742,-0.57812 -0.578124,-0.80936 -0.462495,-0.80938 -0.346866,-0.80936 -0.115629,-1.04062 0,-58.39001 0.115629,-1.04061 0.346866,-0.92499 0.462495,-0.80937 0.578124,-0.69374 0.693742,-0.69375 0.809361,-0.46249 1.040619,-0.23125 0.924989,-0.11563 0,-0.11562 -0.924989,0.11562 -1.040619,0.23125 -0.809361,0.46249 -0.693742,0.69376 -0.693743,0.69374 -0.462495,0.92499 -0.231247,0.92499 -0.115629,1.04061 0,58.39001 0.115629,1.04062 0.231247,0.92499 0.462495,0.80936 0.693743,0.80938 0.693742,0.57811 0.809361,0.46249 1.040619,0.23125 0.924989,0.11563 58.505631,0 0.92499,-0.11563 0.92499,-0.23125 0.92499,-0.46249 0.80937,-0.57811 0.57813,-0.80938 0.46249,-0.92499 0.23125,-0.92499 0.11562,-0.92499 0,-58.39001 -0.11562,-1.04061 -0.23125,-0.92499 -0.46249,-0.92499 -0.69376,-0.69374 -0.69374,-0.69376 -0.80936,-0.46249 -1.04062,-0.23125 -1.04061,-0.11562 -58.274392,0" />
<path
   id="path3036"
   style="fill:none;stroke:#00ff00;stroke-width:0.14999999;stroke-linecap:butt;stroke-linejoin:miter;stroke-miterlimit:10;stroke-opacity:1;stroke-dasharray:none"
   d="m 69.592988,572.30516 58.274392,0 1.04061,0.11563 0.92499,0.34687 0.80937,0.46249 0.80936,0.69375 0.57813,0.69374 0.46249,0.80937 0.23125,0.92499 0.11563,1.04062 0,58.39002 -0.11563,0.92499 -0.23125,0.92499 -0.46249,0.80936 -0.57813,0.80937 -0.80936,0.57811 -0.80937,0.4625 -0.92499,0.23124 -0.92499,0.11563 -58.505631,0 -0.924989,-0.11563 -1.040619,-0.23124 -0.809361,-0.4625 -0.693742,-0.57811 -0.578124,-0.80937 -0.462495,-0.80936 -0.346876,-0.80938 -0.115619,-1.0406 0,-58.39002 0.115619,-1.04062 0.346876,-0.92499 0.462495,-0.80937 0.578124,-0.69374 0.693742,-0.69375 0.809361,-0.46249 1.040619,-0.23125 0.924989,-0.11562 0,-0.11563 -0.924989,0.11563 -1.040619,0.23125 -0.809361,0.4625 -0.693742,0.69374 -0.693743,0.69374 -0.462495,0.92499 -0.231257,0.92499 -0.115619,1.04062 0,58.39002 0.115619,1.0406 0.231257,0.92499 0.462495,0.80938 0.693743,0.80936 0.693742,0.57812 0.809361,0.4625 1.040619,0.23124 0.924989,0.11562 58.505631,0 0.92499,-0.11562 0.92499,-0.23124 0.92499,-0.4625 0.80937,-0.57812 0.57812,-0.80936 0.4625,-0.92499 0.23125,-0.92499 0.11562,-0.92499 0,-58.39002 -0.11562,-1.04062 -0.23125,-0.92499 -0.4625,-0.92499 -0.69375,-0.69374 -0.69374,-0.69374 -0.80936,-0.4625 -1.04062,-0.23125 -1.04061,-0.11563 -58.274392,0 z" />
<path
   id="path3038"
   style="fill:#ffffff;fill-opacity:1;fill-rule:nonzero;stroke:none"
   d="m 69.477369,573.57703 58.390011,0 0.80936,0.11562 0.69375,0.23125 1.15623,0.80937 0.80937,1.15623 0.23125,0.69375 0.11562,0.80936 0,58.39001 -0.11562,0.80938 -0.23125,0.69374 -0.80937,1.15624 -1.15623,0.80936 -0.69375,0.23124 -0.80936,0.11563 -58.621258,-0.11563 -0.693742,-0.11561 -0.693743,-0.23125 -1.040618,-0.69374 -0.462495,-0.57813 -0.231248,-0.57811 -0.346866,-1.38749 -0.115629,-58.62126 0.115629,-0.69374 0.231248,-0.69375 0.809361,-1.15623 0.578123,-0.57813 0.693743,-0.23124 0.693742,-0.34687 0.693742,0" />
<path
   id="path3040"
   style="fill:#ffffff;fill-opacity:1;fill-rule:nonzero;stroke:none"
   d="m 68.783627,573.57703 0,0.11562 0.693742,-0.11562 58.390011,0 0.80936,0.11562 0.57813,0.23125 1.27185,0.80937 0.80937,1.15623 0.23125,0.69375 0.11562,0.80936 0,58.39001 -0.11562,0.80938 -0.23125,0.57811 -0.80937,1.27187 -1.27185,0.80936 -0.57813,0.23124 -0.80936,0 -58.621258,-0.11561 -0.693742,0 -0.578124,-0.23125 -1.156237,-0.69374 -0.462495,-0.57813 -0.231248,-0.57811 -0.346866,-1.38749 0,-59.315 0.346866,-0.69375 0.809371,-1.15623 0.462495,-0.4625 0.693743,-0.34687 0.693742,-0.23125 0.693742,-0.11562 58.390011,0 0,0 -58.390011,-0.11563 -0.693742,0.11563 -0.693742,0.23125 -0.693743,0.34686 -0.578123,0.4625 -0.809361,1.27186 -0.231248,0.69375 -0.115629,0.69374 0.115629,58.62126 0.231248,1.38749 0.346866,0.69374 0.346876,0.4625 1.156237,0.80936 0.693743,0.11563 0.693742,0.11561 58.621258,0.11563 0.80936,-0.11563 0.69375,-0.23124 1.27186,-0.80936 0.80936,-1.15624 0.23125,-0.69374 0,-60.00875 -0.23125,-0.69375 -0.80936,-1.15623 -1.27186,-0.92499 -0.69375,-0.23125 -0.80936,0 -58.390011,-0.11563 -0.693742,0.11563" />
<path
   id="path3042"
   style="fill:none;stroke:#ffffff;stroke-width:0.14999999;stroke-linecap:butt;stroke-linejoin:miter;stroke-miterlimit:10;stroke-opacity:1;stroke-dasharray:none"
   d="m 68.783627,573.57703 0,0.11562 0.693742,-0.11562 58.390011,0 0.80936,0.11562 0.57813,0.23125 1.27185,0.80937 0.80937,1.15624 0.23125,0.69374 0.11562,0.80937 0,58.39002 -0.11562,0.80936 -0.23125,0.57812 -0.80937,1.27186 -1.27185,0.80937 -0.57813,0.23125 -0.80936,0 -58.621258,-0.11563 -0.693742,0 -0.578124,-0.23125 -1.156237,-0.69374 -0.462495,-0.57812 -0.231248,-0.57812 -0.346866,-1.38749 0,-59.315 0.346866,-0.69374 0.809372,-1.15624 0.462494,-0.4625 0.693743,-0.34687 0.693742,-0.23125 0.693742,-0.11562 58.390011,0 0,0 -58.390011,-0.11563 -0.693742,0.11563 -0.693742,0.23125 -0.693743,0.34686 -0.578123,0.4625 -0.809361,1.27187 -0.231248,0.69374 -0.115629,0.69374 0.115629,58.62126 0.231248,1.38749 0.346866,0.69374 0.346876,0.4625 1.156237,0.80937 0.693743,0.11562 0.693742,0.11563 58.621258,0.11561 0.80936,-0.11561 0.69375,-0.23125 1.27186,-0.80937 0.80936,-1.15624 0.23125,-0.69374 0,-60.00875 -0.23125,-0.69374 -0.80936,-1.15624 -1.27186,-0.92499 -0.69375,-0.23125 -0.80936,0 -58.390011,-0.11563 -0.693742,0.11563 z" />
<path
   id="path3044"
   style="fill:#00ff00;fill-opacity:1;fill-rule:nonzero;stroke:none"
   d="m 69.477369,574.73327 58.968131,0 0.46249,0.23124 0.92499,0.57812 0.57812,0.80937 0.11562,1.04061 0,58.39001 -0.11562,1.04062 -0.57812,0.80936 -0.92499,0.57813 -1.04061,0.23125 -58.390011,0 -0.924989,-0.23125 -0.92499,-0.57813 -0.578124,-0.80936 -0.115619,-0.46249 0,-59.54626 0.115619,-0.46249 0.578124,-0.92499 0.92499,-0.57812 0.462494,-0.11562 0.462495,0" />
<path
   id="path3046"
   style="fill:#00ff00;fill-opacity:1;fill-rule:nonzero;stroke:none"
   d="m 69.014874,574.73327 58.852506,0 0.57812,0.11562 0.46249,0.11562 0.80937,0.57812 0.57812,0.80937 0.23124,1.04061 0,58.39001 -0.23124,1.04062 -0.57812,0.80936 -0.80937,0.57813 -1.04061,0.23125 -58.390011,0 -0.924989,-0.23125 -0.809372,-0.57813 -0.578113,-0.80936 -0.231248,-0.46249 0,-59.54626 0.231248,-0.46249 0.578113,-0.80937 0.809372,-0.57812 0.462494,-0.23124 58.852506,0 0,0 -58.390011,-0.11563 -0.462495,0.11563 -0.578123,0.11562 -0.809361,0.57812 -0.578124,0.80936 -0.115619,0.57812 -0.115628,0.4625 0,58.50563 0.115628,0.57813 0.115619,0.46249 0.578124,0.92499 0.809361,0.57812 1.040618,0.11563 58.390011,0 1.15624,-0.11563 0.80936,-0.57812 0.57812,-0.92499 0.23125,-1.04062 0,-58.39001 -0.23125,-1.04061 -0.57812,-0.92499 -0.80936,-0.57812 -0.57812,-0.11562 -0.57812,0 -58.390011,-0.11563 -0.462495,0.11563" />
<path
   id="path3048"
   style="fill:none;stroke:#00ff00;stroke-width:0.14999999;stroke-linecap:butt;stroke-linejoin:miter;stroke-miterlimit:10;stroke-opacity:1;stroke-dasharray:none"
   d="m 69.014875,574.73327 58.852505,0 0.57812,0.11562 0.46249,0.11563 0.80937,0.57811 0.57812,0.80937 0.23124,1.04062 0,58.39002 -0.23124,1.0406 -0.57812,0.80938 -0.80937,0.57811 -1.04061,0.23125 -58.390011,0 -0.924989,-0.23125 -0.809372,-0.57811 -0.578113,-0.80938 -0.231247,-0.46249 0,-59.54625 0.231247,-0.4625 0.578113,-0.80937 0.809372,-0.57811 0.462495,-0.23125 58.852505,0 0,0 -58.390011,-0.11563 -0.462494,0.11563 -0.578124,0.11562 -0.809361,0.57812 -0.578124,0.80937 -0.115618,0.57812 -0.115629,0.46249 0,58.50565 0.115629,0.57811 0.115618,0.46249 0.578124,0.92499 0.809361,0.57813 1.040618,0.11562 58.390011,0 1.15624,-0.11562 0.80936,-0.57813 0.57812,-0.92499 0.23125,-1.0406 0,-58.39002 -0.23125,-1.04062 -0.57812,-0.92499 -0.80936,-0.57812 -0.57812,-0.11562 -0.57812,0 -58.390011,-0.11563 -0.462494,0.11563 z" />
<path
   id="path3050"
   style="fill:#ffffff;fill-opacity:1;fill-rule:evenodd;stroke:none"
   d="m 104.28012,592.30808 -0.92499,-0.11563 -0.80936,-0.23124 -0.69374,-0.34687 -0.69374,-0.57812 -0.46249,-0.57812 -0.4625,-0.80937 -0.23125,-0.69374 -0.115626,-0.92499 0.115626,-0.80937 0.23125,-0.80936 0.4625,-0.80937 0.46249,-0.57812 0.69374,-0.57812 0.69374,-0.34687 0.80936,-0.23124 0.92499,-0.11563 0.80937,0.11563 0.80936,0.23124 0.69375,0.34687 0.69375,0.57812 0.46249,0.57812 0.4625,0.80937 0.23125,0.80936 0.11561,0.80937 -0.11561,0.92499 -0.23125,0.69374 -0.4625,0.80937 -0.46249,0.57812 -0.69375,0.57812 -0.69375,0.34687 -0.80936,0.23124 -0.80937,0.11563" />
<path
   id="path3052"
   style="fill:#ffffff;fill-opacity:1;fill-rule:nonzero;stroke:none"
   d="m 104.39575,592.8862 15.0311,0 3.81557,6.93743 0.23125,0.80936 -0.11562,0.80937 -0.34687,0.69375 -0.57812,0.46249 -0.80937,0.34687 -0.80936,0 -0.69374,-0.34687 -0.57813,-0.69374 -2.42809,-4.74058 -4.39371,0 2.65935,6.12806 0.57812,1.50311 1.38749,10.52176 7.63116,-0.11562 0.34688,0.11562 0.80936,0.34688 0.57813,0.46249 0.34686,0.69374 0,0.80937 -0.11562,0.69375 -0.46249,0.69374 -0.57813,0.46249 -0.92499,0.11562 -9.13428,-0.11562 -0.57811,-0.11562 -0.4625,-0.23125 -0.92499,-0.69374 -0.80936,-1.04061 -0.57813,-1.27187 -1.5031,-5.89681 -4.16246,7.39992 -2.77498,10.05927 -0.11561,0.4625 -0.4625,0.69374 -0.57812,0.4625 -0.80936,0.11561 -0.69375,-0.11561 -0.69373,-0.23125 -0.57813,-0.4625 -0.346864,-0.57812 0,-0.69374 2.196844,-10.29052 0.34687,-1.15624 0.34687,-0.92499 4.85621,-9.48115 -3.58434,-5.78119 -3.81559,3.81559 -0.809359,0.80936 -0.578124,0.34688 -0.809371,0.11562 -3.931207,0.11562 -0.924989,-0.23124 -0.809361,-0.4625 -0.346877,-0.69374 -0.115618,-0.80937 0.115618,-0.80936 0.346877,-0.69374 0.809361,-0.57813 0.924989,-0.23125 3.815588,0 6.590553,-7.51554" />
<path
   id="path3054"
   style="fill:none;stroke:#ffffff;stroke-width:0.14999999;stroke-linecap:butt;stroke-linejoin:miter;stroke-miterlimit:10;stroke-opacity:1;stroke-dasharray:none"
   d="m 104.39575,592.88621 15.0311,0 3.81557,6.93742 0.23125,0.80936 -0.11562,0.80937 -0.34687,0.69375 -0.57812,0.46249 -0.80937,0.34688 -0.80936,0 -0.69374,-0.34688 -0.57813,-0.69374 -2.42809,-4.74058 -4.39371,0 2.65935,6.12806 0.57812,1.50312 1.38749,10.52176 7.63116,-0.11563 0.34688,0.11563 0.80936,0.34687 0.57813,0.46249 0.34686,0.69374 0,0.80938 -0.11562,0.69374 -0.46249,0.69374 -0.57813,0.4625 -0.92499,0.11562 -9.13428,-0.11562 -0.57812,-0.11562 -0.46249,-0.23125 -0.92499,-0.69374 -0.80936,-1.04062 -0.57813,-1.27187 -1.5031,-5.8968 -4.16247,7.39992 -2.77497,10.05927 -0.11561,0.46249 -0.4625,0.69374 -0.57812,0.4625 -0.80936,0.11563 -0.69375,-0.11563 -0.69373,-0.23125 -0.57813,-0.46249 -0.346864,-0.57812 0,-0.69374 2.196844,-10.29053 0.34687,-1.15624 0.34687,-0.92498 4.85621,-9.48115 -3.58434,-5.7812 -3.81559,3.81559 -0.809359,0.80937 -0.578124,0.34687 -0.809371,0.11563 -3.931206,0.11562 -0.92499,-0.23125 -0.809361,-0.4625 -0.346877,-0.69374 -0.115618,-0.80936 0.115618,-0.80937 0.346877,-0.69374 0.809361,-0.57813 0.92499,-0.23124 3.815588,0 6.590552,-7.51554 z" />
<path
   id="path3056"
   style="fill:#ffffff;fill-opacity:1;fill-rule:evenodd;stroke:none"
   d="m 70.402359,632.19828 17.112322,0 0,-51.22133 -17.112322,0 0,51.22133 z" />
<path
   id="path3058"
   style="fill:none;stroke:#ffffff;stroke-width:0.14999999;stroke-linecap:butt;stroke-linejoin:miter;stroke-miterlimit:10;stroke-opacity:1;stroke-dasharray:none"
   d="m 70.402359,632.1983 17.112322,0 0,-51.22135 -17.112322,0 0,51.22135 z" />
</g>
</svg>
