<?xml version="1.0" encoding="UTF-8"?>
<!DOCTYPE svg PUBLIC "-//W3C//DTD SVG 1.1//EN" "http://www.w3.org/Graphics/SVG/1.1/DTD/svg11.dtd">
<svg version="1.2" width="24.92mm" height="25.03mm" viewBox="84954 39999 2492 2503" preserveAspectRatio="xMidYMid" fill-rule="evenodd" stroke-width="28.222" stroke-linejoin="round" xmlns="http://www.w3.org/2000/svg" xmlns:ooo="http://xml.openoffice.org/svg/export" xmlns:xlink="http://www.w3.org/1999/xlink" xmlns:presentation="http://sun.com/xmlns/staroffice/presentation" xmlns:smil="http://www.w3.org/2001/SMIL20/" xmlns:anim="urn:oasis:names:tc:opendocument:xmlns:animation:1.0" xml:space="preserve">
 <defs class="EmbeddedBulletChars">
  <g id="bullet-char-template-57356" transform="scale(0.00048828125,-0.00048828125)">
   <path d="M 580,1141 L 1163,571 580,0 -4,571 580,1141 Z"/>
  </g>
  <g id="bullet-char-template-57354" transform="scale(0.00048828125,-0.00048828125)">
   <path d="M 8,1128 L 1137,1128 1137,0 8,0 8,1128 Z"/>
  </g>
  <g id="bullet-char-template-10146" transform="scale(0.00048828125,-0.00048828125)">
   <path d="M 174,0 L 602,739 174,1481 1456,739 174,0 Z M 1358,739 L 309,1346 659,739 1358,739 Z"/>
  </g>
  <g id="bullet-char-template-10132" transform="scale(0.00048828125,-0.00048828125)">
   <path d="M 2015,739 L 1276,0 717,0 1260,543 174,543 174,936 1260,936 717,1481 1274,1481 2015,739 Z"/>
  </g>
  <g id="bullet-char-template-10007" transform="scale(0.00048828125,-0.00048828125)">
   <path d="M 0,-2 C -7,14 -16,27 -25,37 L 356,567 C 262,823 215,952 215,954 215,979 228,992 255,992 264,992 276,990 289,987 310,991 331,999 354,1012 L 381,999 492,748 772,1049 836,1024 860,1049 C 881,1039 901,1025 922,1006 886,937 835,863 770,784 769,783 710,716 594,584 L 774,223 C 774,196 753,168 711,139 L 727,119 C 717,90 699,76 672,76 641,76 570,178 457,381 L 164,-76 C 142,-110 111,-127 72,-127 30,-127 9,-110 8,-76 1,-67 -2,-52 -2,-32 -2,-23 -1,-13 0,-2 Z"/>
  </g>
  <g id="bullet-char-template-10004" transform="scale(0.00048828125,-0.00048828125)">
   <path d="M 285,-33 C 182,-33 111,30 74,156 52,228 41,333 41,471 41,549 55,616 82,672 116,743 169,778 240,778 293,778 328,747 346,684 L 369,508 C 377,444 397,411 428,410 L 1163,1116 C 1174,1127 1196,1133 1229,1133 1271,1133 1292,1118 1292,1087 L 1292,965 C 1292,929 1282,901 1262,881 L 442,47 C 390,-6 338,-33 285,-33 Z"/>
  </g>
  <g id="bullet-char-template-9679" transform="scale(0.00048828125,-0.00048828125)">
   <path d="M 813,0 C 632,0 489,54 383,161 276,268 223,411 223,592 223,773 276,916 383,1023 489,1130 632,1184 813,1184 992,1184 1136,1130 1245,1023 1353,916 1407,772 1407,592 1407,412 1353,268 1245,161 1136,54 992,0 813,0 Z"/>
  </g>
  <g id="bullet-char-template-8226" transform="scale(0.00048828125,-0.00048828125)">
   <path d="M 346,457 C 273,457 209,483 155,535 101,586 74,649 74,723 74,796 101,859 155,911 209,963 273,989 346,989 419,989 480,963 531,910 582,859 608,796 608,723 608,648 583,586 532,535 482,483 420,457 346,457 Z"/>
  </g>
  <g id="bullet-char-template-8211" transform="scale(0.00048828125,-0.00048828125)">
   <path d="M -4,459 L 1135,459 1135,606 -4,606 -4,459 Z"/>
  </g>
  <g id="bullet-char-template-61548" transform="scale(0.00048828125,-0.00048828125)">
   <path d="M 173,740 C 173,903 231,1043 346,1159 462,1274 601,1332 765,1332 928,1332 1067,1274 1183,1159 1299,1043 1357,903 1357,740 1357,577 1299,437 1183,322 1067,206 928,148 765,148 601,148 462,206 346,322 231,437 173,577 173,740 Z"/>
  </g>
 </defs>
 <g class="Page">
  <g class="com.sun.star.drawing.PolyPolygonShape">
   <g id="id3">
    <rect class="BoundingBox" stroke="none" fill="none" x="84954" y="39999" width="2492" height="2503"/>
    <path fill="rgb(0,255,0)" stroke="none" d="M 85135,42500 L 87265,42500 87282,42499 87300,42497 87317,42493 87334,42487 87350,42479 87365,42470 87379,42460 87392,42448 87404,42434 87414,42420 87423,42405 87431,42389 87437,42372 87441,42355 87444,42338 87444,42320 87444,40180 87444,40162 87441,40145 87437,40128 87431,40111 87423,40095 87414,40080 87404,40066 87392,40052 87379,40040 87365,40030 87350,40021 87334,40013 87317,40007 87300,40003 87282,40000 87265,40000 85135,40000 85118,40000 85100,40003 85083,40007 85066,40013 85050,40021 85035,40030 85021,40040 85008,40052 84996,40066 84986,40080 84977,40095 84969,40111 84963,40128 84959,40145 84956,40162 84955,40180 84955,42320 84956,42338 84959,42355 84963,42372 84969,42389 84977,42405 84986,42420 84996,42434 85008,42448 85021,42460 85035,42470 85050,42479 85066,42487 85083,42493 85100,42497 85118,42499 85135,42500 Z"/>
    <path fill="none" stroke="rgb(0,255,0)" d="M 85135,42500 L 87265,42500 87282,42499 87300,42497 87317,42493 87334,42487 87350,42479 87365,42470 87379,42460 87392,42448 87404,42434 87414,42420 87423,42405 87431,42389 87437,42372 87441,42355 87444,42338 87444,42320 87444,40180 87444,40162 87441,40145 87437,40128 87431,40111 87423,40095 87414,40080 87404,40066 87392,40052 87379,40040 87365,40030 87350,40021 87334,40013 87317,40007 87300,40003 87282,40000 87265,40000 85135,40000 85118,40000 85100,40003 85083,40007 85066,40013 85050,40021 85035,40030 85021,40040 85008,40052 84996,40066 84986,40080 84977,40095 84969,40111 84963,40128 84959,40145 84956,40162 84955,40180 84955,42320 84956,42338 84959,42355 84963,42372 84969,42389 84977,42405 84986,42420 84996,42434 85008,42448 85021,42460 85035,42470 85050,42479 85066,42487 85083,42493 85100,42497 85118,42499 85135,42500 Z"/>
   </g>
  </g>
  <g class="com.sun.star.drawing.PolyPolygonShape">
   <g id="id4">
    <rect class="BoundingBox" stroke="none" fill="none" x="84996" y="40040" width="2409" height="2421"/>
    <path fill="rgb(255,255,255)" stroke="none" d="M 85135,42459 L 87265,42459 87278,42458 87292,42456 87305,42453 87318,42448 87330,42442 87342,42435 87352,42427 87363,42418 87372,42408 87380,42397 87387,42385 87392,42373 87397,42360 87400,42347 87402,42333 87403,42320 87403,40180 87402,40166 87400,40153 87397,40140 87392,40127 87387,40115 87380,40103 87372,40092 87363,40082 87352,40073 87342,40065 87330,40058 87318,40052 87305,40047 87292,40044 87278,40042 87265,40041 85135,40041 85121,40042 85108,40044 85095,40047 85082,40052 85070,40058 85058,40065 85047,40073 85037,40082 85028,40092 85020,40103 85013,40115 85007,40127 85003,40140 84999,40153 84998,40166 84997,40180 84997,42320 84998,42333 84999,42347 85003,42360 85007,42373 85013,42385 85020,42397 85028,42408 85037,42418 85047,42427 85058,42435 85070,42442 85082,42448 85095,42453 85108,42456 85121,42458 85135,42459 Z"/>
    <path fill="none" stroke="rgb(255,255,255)" d="M 85135,42459 L 87265,42459 87278,42458 87292,42456 87305,42453 87318,42448 87330,42442 87342,42435 87352,42427 87363,42418 87372,42408 87380,42397 87387,42385 87392,42373 87397,42360 87400,42347 87402,42333 87403,42320 87403,40180 87402,40166 87400,40153 87397,40140 87392,40127 87387,40115 87380,40103 87372,40092 87363,40082 87352,40073 87342,40065 87330,40058 87318,40052 87305,40047 87292,40044 87278,40042 87265,40041 85135,40041 85121,40042 85108,40044 85095,40047 85082,40052 85070,40058 85058,40065 85047,40073 85037,40082 85028,40092 85020,40103 85013,40115 85007,40127 85003,40140 84999,40153 84998,40166 84997,40180 84997,42320 84998,42333 84999,42347 85003,42360 85007,42373 85013,42385 85020,42397 85028,42408 85037,42418 85047,42427 85058,42435 85070,42442 85082,42448 85095,42453 85108,42456 85121,42458 85135,42459 Z"/>
   </g>
  </g>
  <g class="com.sun.star.drawing.PolyPolygonShape">
   <g id="id5">
    <rect class="BoundingBox" stroke="none" fill="none" x="85037" y="40082" width="2327" height="2337"/>
    <path fill="rgb(0,255,0)" stroke="none" d="M 85135,42417 L 87265,42417 87274,42417 87284,42415 87293,42413 87302,42410 87310,42406 87319,42401 87326,42395 87333,42389 87340,42381 87345,42374 87350,42366 87354,42357 87357,42348 87360,42339 87361,42329 87362,42320 87362,40180 87361,40171 87360,40161 87357,40152 87354,40143 87350,40134 87345,40126 87340,40118 87333,40111 87326,40105 87319,40099 87310,40094 87302,40090 87293,40087 87284,40085 87274,40083 87265,40083 85135,40083 85126,40083 85116,40085 85107,40087 85098,40090 85089,40094 85081,40099 85074,40105 85067,40111 85060,40118 85055,40126 85050,40134 85046,40143 85043,40152 85040,40161 85039,40171 85038,40180 85038,42320 85039,42329 85040,42339 85043,42348 85046,42357 85050,42366 85055,42374 85060,42381 85067,42389 85074,42395 85081,42401 85089,42406 85098,42410 85107,42413 85116,42415 85126,42417 85135,42417 Z"/>
    <path fill="none" stroke="rgb(0,255,0)" d="M 85135,42417 L 87265,42417 87274,42417 87284,42415 87293,42413 87302,42410 87310,42406 87319,42401 87326,42395 87333,42389 87340,42381 87345,42374 87350,42366 87354,42357 87357,42348 87360,42339 87361,42329 87362,42320 87362,40180 87361,40171 87360,40161 87357,40152 87354,40143 87350,40134 87345,40126 87340,40118 87333,40111 87326,40105 87319,40099 87310,40094 87302,40090 87293,40087 87284,40085 87274,40083 87265,40083 85135,40083 85126,40083 85116,40085 85107,40087 85098,40090 85089,40094 85081,40099 85074,40105 85067,40111 85060,40118 85055,40126 85050,40134 85046,40143 85043,40152 85040,40161 85039,40171 85038,40180 85038,42320 85039,42329 85040,42339 85043,42348 85046,42357 85050,42366 85055,42374 85060,42381 85067,42389 85074,42395 85081,42401 85089,42406 85098,42410 85107,42413 85116,42415 85126,42417 85135,42417 Z"/>
   </g>
  </g>
  <g class="com.sun.star.drawing.PolyPolygonShape">
   <g id="id6">
    <rect class="BoundingBox" stroke="none" fill="none" x="85168" y="40320" width="608" height="1861"/>
    <path fill="rgb(255,255,255)" stroke="none" d="M 85774,40321 L 85169,40321 85169,42179 85774,42179 85774,40321 Z"/>
    <path fill="none" stroke="rgb(255,255,255)" d="M 85774,40321 L 85169,40321 85169,42179 85774,42179 85774,40321 Z"/>
   </g>
  </g>
  <g class="com.sun.star.drawing.PolyPolygonShape">
   <g id="id7">
    <rect class="BoundingBox" stroke="none" fill="none" x="86208" y="40356" width="308" height="309"/>
    <path fill="rgb(255,255,255)" stroke="none" d="M 86514,40511 L 86513,40496 86511,40481 86508,40466 86503,40452 86496,40439 86487,40426 86479,40414 86469,40402 86458,40391 86445,40382 86433,40375 86419,40368 86405,40363 86391,40360 86376,40357 86361,40357 86346,40357 86331,40360 86317,40363 86303,40368 86289,40375 86276,40382 86264,40391 86253,40402 86243,40414 86234,40426 86227,40439 86220,40452 86215,40466 86212,40481 86210,40496 86209,40511 86210,40526 86212,40540 86215,40555 86220,40569 86227,40583 86234,40595 86243,40608 86253,40619 86264,40629 86276,40638 86289,40645 86303,40652 86317,40657 86331,40661 86346,40663 86361,40663 86376,40663 86391,40661 86405,40657 86419,40652 86433,40645 86445,40638 86458,40629 86469,40619 86479,40608 86487,40595 86496,40583 86503,40569 86508,40555 86511,40540 86513,40526 86514,40511 Z"/>
    <path fill="none" stroke="rgb(255,255,255)" d="M 86514,40511 L 86513,40496 86511,40481 86508,40466 86503,40452 86496,40439 86487,40426 86479,40414 86469,40402 86458,40391 86445,40382 86433,40375 86419,40368 86405,40363 86391,40360 86376,40357 86361,40357 86346,40357 86331,40360 86317,40363 86303,40368 86289,40375 86276,40382 86264,40391 86253,40402 86243,40414 86234,40426 86227,40439 86220,40452 86215,40466 86212,40481 86210,40496 86209,40511 86210,40526 86212,40540 86215,40555 86220,40569 86227,40583 86234,40595 86243,40608 86253,40619 86264,40629 86276,40638 86289,40645 86303,40652 86317,40657 86331,40661 86346,40663 86361,40663 86376,40663 86391,40661 86405,40657 86419,40652 86433,40645 86445,40638 86458,40629 86469,40619 86479,40608 86487,40595 86496,40583 86503,40569 86508,40555 86511,40540 86513,40526 86514,40511 Z"/>
   </g>
  </g>
  <g class="com.sun.star.drawing.PolyPolygonShape">
   <g id="id8">
    <rect class="BoundingBox" stroke="none" fill="none" x="85855" y="40690" width="1394" height="1455"/>
    <path fill="rgb(255,255,255)" stroke="none" d="M 86257,41788 L 86268,41748 86279,41707 86292,41668 86305,41628 86318,41589 86333,41550 86348,41511 86365,41472 86380,41439 86396,41406 86412,41373 86430,41340 86448,41308 86468,41276 86488,41246 86509,41215 86372,41033 86211,41214 85943,41214 85935,41213 85926,41212 85918,41210 85910,41207 85902,41203 85895,41199 85888,41194 85882,41188 85876,41181 85871,41175 85866,41167 85863,41159 85860,41151 85858,41143 85857,41135 85856,41126 85857,41117 85858,41109 85860,41101 85863,41092 85866,41085 85871,41077 85876,41070 85882,41064 85888,41058 85895,41053 85902,41049 85910,41045 85918,41042 85926,41040 85935,41039 85943,41038 86128,41038 86409,40732 86417,40725 86425,40717 86434,40711 86444,40705 86453,40701 86464,40697 86474,40694 86485,40691 86791,40691 86807,40692 86823,40693 86838,40695 86853,40698 86867,40702 86881,40707 86896,40712 86909,40719 86923,40726 86936,40734 86948,40743 86960,40752 86972,40762 86983,40772 86993,40784 87002,40796 87103,40927 87108,40934 87112,40942 87116,40950 87118,40959 87120,40967 87121,40976 87121,40985 87121,40994 87119,41002 87117,41011 87114,41019 87109,41027 87105,41034 87099,41041 87093,41047 87086,41053 87079,41058 87072,41062 87064,41066 87055,41068 87047,41070 87038,41071 87029,41072 87020,41071 87012,41069 87003,41067 86995,41064 86987,41060 86980,41055 86973,41049 86967,41043 86961,41036 86841,40880 86833,40870 86825,40862 86815,40855 86803,40849 86792,40844 86780,40841 86768,40839 86756,40838 86703,40838 86790,41042 86797,41061 86805,41081 86811,41101 86818,41121 86823,41141 86828,41161 86832,41181 86835,41202 86865,41502 86867,41513 86871,41524 86877,41534 86885,41543 86894,41550 86904,41555 86916,41558 86927,41559 87158,41559 87167,41560 87176,41561 87184,41563 87192,41566 87200,41570 87208,41574 87215,41579 87221,41585 87227,41592 87232,41599 87237,41606 87240,41614 87243,41622 87245,41631 87247,41639 87247,41648 87247,41657 87245,41665 87243,41674 87240,41682 87237,41690 87232,41698 87227,41705 87221,41711 87215,41717 87208,41722 87200,41727 87192,41730 87184,41733 87176,41736 87167,41737 87158,41737 86855,41737 86840,41736 86826,41735 86810,41731 86796,41727 86783,41721 86770,41714 86757,41706 86746,41697 86735,41687 86725,41676 86717,41664 86709,41651 86702,41638 86697,41624 86693,41610 86690,41595 86660,41394 86530,41578 86521,41591 86513,41605 86506,41618 86499,41632 86493,41647 86487,41662 86482,41677 86478,41692 86386,42071 86384,42080 86380,42088 86376,42097 86370,42104 86365,42112 86358,42118 86351,42124 86343,42129 86335,42134 86327,42137 86318,42140 86308,42142 86299,42143 86290,42143 86281,42142 86272,42141 86263,42138 86254,42134 86246,42130 86238,42125 86231,42119 86224,42112 86218,42105 86213,42097 86209,42089 86205,42081 86202,42072 86200,42063 86199,42053 86199,42044 86200,42035 86202,42025 86230,41907 86257,41788 Z"/>
    <path fill="none" stroke="rgb(255,255,255)" d="M 86257,41788 L 86268,41748 86279,41707 86292,41668 86305,41628 86318,41589 86333,41550 86348,41511 86365,41472 86380,41439 86396,41406 86412,41373 86430,41340 86448,41308 86468,41276 86488,41246 86509,41215 86372,41033 86211,41214 85943,41214 85935,41213 85926,41212 85918,41210 85910,41207 85902,41203 85895,41199 85888,41194 85882,41188 85876,41181 85871,41175 85866,41167 85863,41159 85860,41151 85858,41143 85857,41135 85856,41126 85857,41117 85858,41109 85860,41101 85863,41092 85866,41085 85871,41077 85876,41070 85882,41064 85888,41058 85895,41053 85902,41049 85910,41045 85918,41042 85926,41040 85935,41039 85943,41038 86128,41038 86409,40732 86417,40725 86425,40717 86434,40711 86444,40705 86453,40701 86464,40697 86474,40694 86485,40691 86791,40691 86807,40692 86823,40693 86838,40695 86853,40698 86867,40702 86881,40707 86896,40712 86909,40719 86923,40726 86936,40734 86948,40743 86960,40752 86972,40762 86983,40772 86993,40784 87002,40796 87103,40927 87108,40934 87112,40942 87116,40950 87118,40959 87120,40967 87121,40976 87121,40985 87121,40994 87119,41002 87117,41011 87114,41019 87109,41027 87105,41034 87099,41041 87093,41047 87086,41053 87079,41058 87072,41062 87064,41066 87055,41068 87047,41070 87038,41071 87029,41072 87020,41071 87012,41069 87003,41067 86995,41064 86987,41060 86980,41055 86973,41049 86967,41043 86961,41036 86841,40880 86833,40870 86825,40862 86815,40855 86803,40849 86792,40844 86780,40841 86768,40839 86756,40838 86703,40838 86790,41042 86797,41061 86805,41081 86811,41101 86818,41121 86823,41141 86828,41161 86832,41181 86835,41202 86865,41502 86867,41513 86871,41524 86877,41534 86885,41543 86894,41550 86904,41555 86916,41558 86927,41559 87158,41559 87167,41560 87176,41561 87184,41563 87192,41566 87200,41570 87208,41574 87215,41579 87221,41585 87227,41592 87232,41599 87237,41606 87240,41614 87243,41622 87245,41631 87247,41639 87247,41648 87247,41657 87245,41665 87243,41674 87240,41682 87237,41690 87232,41698 87227,41705 87221,41711 87215,41717 87208,41722 87200,41727 87192,41730 87184,41733 87176,41736 87167,41737 87158,41737 86855,41737 86840,41736 86826,41735 86810,41731 86796,41727 86783,41721 86770,41714 86757,41706 86746,41697 86735,41687 86725,41676 86717,41664 86709,41651 86702,41638 86697,41624 86693,41610 86690,41595 86660,41394 86530,41578 86521,41591 86513,41605 86506,41618 86499,41632 86493,41647 86487,41662 86482,41677 86478,41692 86386,42071 86384,42080 86380,42088 86376,42097 86370,42104 86365,42112 86358,42118 86351,42124 86343,42129 86335,42134 86327,42137 86318,42140 86308,42142 86299,42143 86290,42143 86281,42142 86272,42141 86263,42138 86254,42134 86246,42130 86238,42125 86231,42119 86224,42112 86218,42105 86213,42097 86209,42089 86205,42081 86202,42072 86200,42063 86199,42053 86199,42044 86200,42035 86202,42025 86230,41907 86257,41788 Z"/>
   </g>
  </g>
  <g class="com.sun.star.drawing.PolyPolygonShape">
   <g id="id9">
    <rect class="BoundingBox" stroke="none" fill="none" x="85855" y="40690" width="1394" height="1455"/>
    <path fill="rgb(255,255,255)" stroke="none" d="M 86257,41788 L 86268,41748 86279,41707 86292,41668 86305,41628 86318,41589 86333,41550 86348,41511 86365,41472 86380,41439 86396,41406 86412,41373 86430,41340 86448,41308 86468,41276 86488,41246 86509,41215 86372,41033 86211,41214 85943,41214 85935,41213 85926,41212 85918,41210 85910,41207 85902,41203 85895,41199 85888,41194 85882,41188 85876,41181 85871,41175 85866,41167 85863,41159 85860,41151 85858,41143 85857,41135 85856,41126 85857,41117 85858,41109 85860,41101 85863,41092 85866,41085 85871,41077 85876,41070 85882,41064 85888,41058 85895,41053 85902,41049 85910,41045 85918,41042 85926,41040 85935,41039 85943,41038 86128,41038 86409,40732 86417,40725 86425,40717 86434,40711 86444,40705 86453,40701 86464,40697 86474,40694 86485,40691 86791,40691 86807,40692 86823,40693 86838,40695 86853,40698 86867,40702 86881,40707 86896,40712 86909,40719 86923,40726 86936,40734 86948,40743 86960,40752 86972,40762 86983,40772 86993,40784 87002,40796 87103,40927 87108,40934 87112,40942 87116,40950 87118,40959 87120,40967 87121,40976 87121,40985 87121,40994 87119,41002 87117,41011 87114,41019 87109,41027 87105,41034 87099,41041 87093,41047 87086,41053 87079,41058 87072,41062 87064,41066 87055,41068 87047,41070 87038,41071 87029,41072 87020,41071 87012,41069 87003,41067 86995,41064 86987,41060 86980,41055 86973,41049 86967,41043 86961,41036 86841,40880 86833,40870 86825,40862 86815,40855 86803,40849 86792,40844 86780,40841 86768,40839 86756,40838 86703,40838 86790,41042 86797,41061 86805,41081 86811,41101 86818,41121 86823,41141 86828,41161 86832,41181 86835,41202 86865,41502 86867,41513 86871,41524 86877,41534 86885,41543 86894,41550 86904,41555 86916,41558 86927,41559 87158,41559 87167,41560 87176,41561 87184,41563 87192,41566 87200,41570 87208,41574 87215,41579 87221,41585 87227,41592 87232,41599 87237,41606 87240,41614 87243,41622 87245,41631 87247,41639 87247,41648 87247,41657 87245,41665 87243,41674 87240,41682 87237,41690 87232,41698 87227,41705 87221,41711 87215,41717 87208,41722 87200,41727 87192,41730 87184,41733 87176,41736 87167,41737 87158,41737 86855,41737 86840,41736 86826,41735 86810,41731 86796,41727 86783,41721 86770,41714 86757,41706 86746,41697 86735,41687 86725,41676 86717,41664 86709,41651 86702,41638 86697,41624 86693,41610 86690,41595 86660,41394 86530,41578 86521,41591 86513,41605 86506,41618 86499,41632 86493,41647 86487,41662 86482,41677 86478,41692 86386,42071 86384,42080 86380,42088 86376,42097 86370,42104 86365,42112 86358,42118 86351,42124 86343,42129 86335,42134 86327,42137 86318,42140 86308,42142 86299,42143 86290,42143 86281,42142 86272,42141 86263,42138 86254,42134 86246,42130 86238,42125 86231,42119 86224,42112 86218,42105 86213,42097 86209,42089 86205,42081 86202,42072 86200,42063 86199,42053 86199,42044 86200,42035 86202,42025 86230,41907 86257,41788 Z"/>
    <path fill="none" stroke="rgb(255,255,255)" d="M 86257,41788 L 86268,41748 86279,41707 86292,41668 86305,41628 86318,41589 86333,41550 86348,41511 86365,41472 86380,41439 86396,41406 86412,41373 86430,41340 86448,41308 86468,41276 86488,41246 86509,41215 86372,41033 86211,41214 85943,41214 85935,41213 85926,41212 85918,41210 85910,41207 85902,41203 85895,41199 85888,41194 85882,41188 85876,41181 85871,41175 85866,41167 85863,41159 85860,41151 85858,41143 85857,41135 85856,41126 85857,41117 85858,41109 85860,41101 85863,41092 85866,41085 85871,41077 85876,41070 85882,41064 85888,41058 85895,41053 85902,41049 85910,41045 85918,41042 85926,41040 85935,41039 85943,41038 86128,41038 86409,40732 86417,40725 86425,40717 86434,40711 86444,40705 86453,40701 86464,40697 86474,40694 86485,40691 86791,40691 86807,40692 86823,40693 86838,40695 86853,40698 86867,40702 86881,40707 86896,40712 86909,40719 86923,40726 86936,40734 86948,40743 86960,40752 86972,40762 86983,40772 86993,40784 87002,40796 87103,40927 87108,40934 87112,40942 87116,40950 87118,40959 87120,40967 87121,40976 87121,40985 87121,40994 87119,41002 87117,41011 87114,41019 87109,41027 87105,41034 87099,41041 87093,41047 87086,41053 87079,41058 87072,41062 87064,41066 87055,41068 87047,41070 87038,41071 87029,41072 87020,41071 87012,41069 87003,41067 86995,41064 86987,41060 86980,41055 86973,41049 86967,41043 86961,41036 86841,40880 86833,40870 86825,40862 86815,40855 86803,40849 86792,40844 86780,40841 86768,40839 86756,40838 86703,40838 86790,41042 86797,41061 86805,41081 86811,41101 86818,41121 86823,41141 86828,41161 86832,41181 86835,41202 86865,41502 86867,41513 86871,41524 86877,41534 86885,41543 86894,41550 86904,41555 86916,41558 86927,41559 87158,41559 87167,41560 87176,41561 87184,41563 87192,41566 87200,41570 87208,41574 87215,41579 87221,41585 87227,41592 87232,41599 87237,41606 87240,41614 87243,41622 87245,41631 87247,41639 87247,41648 87247,41657 87245,41665 87243,41674 87240,41682 87237,41690 87232,41698 87227,41705 87221,41711 87215,41717 87208,41722 87200,41727 87192,41730 87184,41733 87176,41736 87167,41737 87158,41737 86855,41737 86840,41736 86826,41735 86810,41731 86796,41727 86783,41721 86770,41714 86757,41706 86746,41697 86735,41687 86725,41676 86717,41664 86709,41651 86702,41638 86697,41624 86693,41610 86690,41595 86660,41394 86530,41578 86521,41591 86513,41605 86506,41618 86499,41632 86493,41647 86487,41662 86482,41677 86478,41692 86386,42071 86384,42080 86380,42088 86376,42097 86370,42104 86365,42112 86358,42118 86351,42124 86343,42129 86335,42134 86327,42137 86318,42140 86308,42142 86299,42143 86290,42143 86281,42142 86272,42141 86263,42138 86254,42134 86246,42130 86238,42125 86231,42119 86224,42112 86218,42105 86213,42097 86209,42089 86205,42081 86202,42072 86200,42063 86199,42053 86199,42044 86200,42035 86202,42025 86230,41907 86257,41788 Z"/>
   </g>
  </g>
 </g>
</svg>