<?xml version="1.0" encoding="UTF-8"?>
<!DOCTYPE svg PUBLIC "-//W3C//DTD SVG 1.1//EN" "http://www.w3.org/Graphics/SVG/1.1/DTD/svg11.dtd">
<svg version="1.2" width="31.73mm" height="9.03mm" viewBox="91014 39999 3173 903" preserveAspectRatio="xMidYMid" fill-rule="evenodd" stroke-width="28.222" stroke-linejoin="round" xmlns="http://www.w3.org/2000/svg" xmlns:ooo="http://xml.openoffice.org/svg/export" xmlns:xlink="http://www.w3.org/1999/xlink" xmlns:presentation="http://sun.com/xmlns/staroffice/presentation" xmlns:smil="http://www.w3.org/2001/SMIL20/" xmlns:anim="urn:oasis:names:tc:opendocument:xmlns:animation:1.0" xml:space="preserve">
 <defs class="EmbeddedBulletChars">
  <g id="bullet-char-template-57356" transform="scale(0.00048828125,-0.00048828125)">
   <path d="M 580,1141 L 1163,571 580,0 -4,571 580,1141 Z"/>
  </g>
  <g id="bullet-char-template-57354" transform="scale(0.00048828125,-0.00048828125)">
   <path d="M 8,1128 L 1137,1128 1137,0 8,0 8,1128 Z"/>
  </g>
  <g id="bullet-char-template-10146" transform="scale(0.00048828125,-0.00048828125)">
   <path d="M 174,0 L 602,739 174,1481 1456,739 174,0 Z M 1358,739 L 309,1346 659,739 1358,739 Z"/>
  </g>
  <g id="bullet-char-template-10132" transform="scale(0.00048828125,-0.00048828125)">
   <path d="M 2015,739 L 1276,0 717,0 1260,543 174,543 174,936 1260,936 717,1481 1274,1481 2015,739 Z"/>
  </g>
  <g id="bullet-char-template-10007" transform="scale(0.00048828125,-0.00048828125)">
   <path d="M 0,-2 C -7,14 -16,27 -25,37 L 356,567 C 262,823 215,952 215,954 215,979 228,992 255,992 264,992 276,990 289,987 310,991 331,999 354,1012 L 381,999 492,748 772,1049 836,1024 860,1049 C 881,1039 901,1025 922,1006 886,937 835,863 770,784 769,783 710,716 594,584 L 774,223 C 774,196 753,168 711,139 L 727,119 C 717,90 699,76 672,76 641,76 570,178 457,381 L 164,-76 C 142,-110 111,-127 72,-127 30,-127 9,-110 8,-76 1,-67 -2,-52 -2,-32 -2,-23 -1,-13 0,-2 Z"/>
  </g>
  <g id="bullet-char-template-10004" transform="scale(0.00048828125,-0.00048828125)">
   <path d="M 285,-33 C 182,-33 111,30 74,156 52,228 41,333 41,471 41,549 55,616 82,672 116,743 169,778 240,778 293,778 328,747 346,684 L 369,508 C 377,444 397,411 428,410 L 1163,1116 C 1174,1127 1196,1133 1229,1133 1271,1133 1292,1118 1292,1087 L 1292,965 C 1292,929 1282,901 1262,881 L 442,47 C 390,-6 338,-33 285,-33 Z"/>
  </g>
  <g id="bullet-char-template-9679" transform="scale(0.00048828125,-0.00048828125)">
   <path d="M 813,0 C 632,0 489,54 383,161 276,268 223,411 223,592 223,773 276,916 383,1023 489,1130 632,1184 813,1184 992,1184 1136,1130 1245,1023 1353,916 1407,772 1407,592 1407,412 1353,268 1245,161 1136,54 992,0 813,0 Z"/>
  </g>
  <g id="bullet-char-template-8226" transform="scale(0.00048828125,-0.00048828125)">
   <path d="M 346,457 C 273,457 209,483 155,535 101,586 74,649 74,723 74,796 101,859 155,911 209,963 273,989 346,989 419,989 480,963 531,910 582,859 608,796 608,723 608,648 583,586 532,535 482,483 420,457 346,457 Z"/>
  </g>
  <g id="bullet-char-template-8211" transform="scale(0.00048828125,-0.00048828125)">
   <path d="M -4,459 L 1135,459 1135,606 -4,606 -4,459 Z"/>
  </g>
  <g id="bullet-char-template-61548" transform="scale(0.00048828125,-0.00048828125)">
   <path d="M 173,740 C 173,903 231,1043 346,1159 462,1274 601,1332 765,1332 928,1332 1067,1274 1183,1159 1299,1043 1357,903 1357,740 1357,577 1299,437 1183,322 1067,206 928,148 765,148 601,148 462,206 346,322 231,437 173,577 173,740 Z"/>
  </g>
 </defs>
 <g class="Page">
  <g class="com.sun.star.drawing.PolyPolygonShape">
   <g id="id3">
    <rect class="BoundingBox" stroke="none" fill="none" x="91014" y="39999" width="3173" height="903"/>
    <path fill="rgb(0,255,0)" stroke="none" d="M 91128,40900 L 94072,40900 94075,40900 94077,40900 94080,40900 94083,40900 94086,40900 94088,40899 94091,40899 94094,40898 94096,40898 94099,40897 94102,40896 94105,40895 94107,40895 94110,40894 94113,40893 94115,40892 94117,40891 94120,40890 94123,40888 94125,40887 94127,40886 94130,40884 94132,40883 94134,40881 94137,40880 94139,40878 94141,40876 94143,40875 94145,40873 94148,40871 94150,40869 94152,40867 94154,40865 94156,40863 94157,40861 94159,40859 94161,40857 94163,40855 94164,40853 94166,40850 94167,40848 94169,40846 94170,40843 94171,40841 94173,40838 94174,40836 94175,40833 94176,40831 94177,40828 94178,40826 94179,40823 94180,40820 94181,40818 94181,40815 94182,40812 94183,40810 94183,40807 94184,40804 94184,40802 94184,40799 94185,40796 94185,40793 94185,40791 94185,40788 94185,40113 94185,40110 94185,40108 94185,40105 94184,40102 94184,40099 94184,40096 94183,40094 94183,40091 94182,40088 94181,40086 94181,40083 94180,40080 94179,40078 94178,40075 94177,40073 94176,40070 94175,40067 94174,40065 94173,40062 94171,40060 94170,40058 94169,40055 94167,40053 94166,40050 94164,40048 94163,40046 94161,40044 94159,40042 94157,40040 94156,40038 94154,40035 94152,40034 94150,40032 94148,40030 94145,40028 94143,40026 94141,40024 94139,40023 94137,40021 94134,40020 94132,40018 94130,40017 94127,40015 94125,40014 94123,40013 94120,40011 94117,40010 94115,40009 94113,40008 94110,40007 94107,40005 94105,40005 94102,40004 94099,40003 94096,40002 94094,40002 94091,40001 94088,40001 94086,40000 94083,40000 94080,40000 94077,40000 94075,40000 94072,40000 91128,40000 91125,40000 91123,40000 91120,40000 91117,40000 91114,40000 91112,40001 91109,40001 91106,40002 91103,40002 91101,40003 91098,40004 91095,40005 91093,40005 91090,40007 91087,40008 91085,40009 91082,40010 91080,40011 91077,40013 91075,40014 91072,40015 91070,40017 91068,40018 91065,40020 91063,40021 91061,40023 91059,40024 91056,40026 91054,40028 91052,40030 91050,40032 91048,40034 91046,40035 91044,40038 91042,40040 91041,40042 91039,40044 91037,40046 91036,40048 91034,40050 91033,40053 91031,40055 91030,40058 91028,40060 91027,40062 91026,40065 91025,40067 91024,40070 91023,40073 91022,40075 91021,40078 91020,40080 91019,40083 91019,40086 91018,40088 91017,40091 91017,40094 91016,40096 91016,40099 91016,40102 91015,40105 91015,40108 91015,40110 91015,40113 91015,40788 91015,40791 91015,40793 91015,40796 91016,40799 91016,40802 91016,40804 91017,40807 91017,40810 91018,40812 91019,40815 91019,40818 91020,40820 91021,40823 91022,40826 91023,40828 91024,40831 91025,40833 91026,40836 91027,40838 91028,40841 91030,40843 91031,40846 91033,40848 91034,40850 91036,40853 91037,40855 91039,40857 91041,40859 91042,40861 91044,40863 91046,40865 91048,40867 91050,40869 91052,40871 91054,40873 91056,40875 91059,40876 91061,40878 91063,40880 91065,40881 91068,40883 91070,40884 91072,40886 91075,40887 91077,40888 91080,40890 91082,40891 91085,40892 91087,40893 91090,40894 91093,40895 91095,40895 91098,40896 91101,40897 91103,40898 91106,40898 91109,40899 91112,40899 91114,40900 91117,40900 91120,40900 91123,40900 91125,40900 91128,40900 Z"/>
    <path fill="none" stroke="rgb(0,255,0)" d="M 91128,40900 L 94072,40900 94075,40900 94077,40900 94080,40900 94083,40900 94086,40900 94088,40899 94091,40899 94094,40898 94096,40898 94099,40897 94102,40896 94105,40895 94107,40895 94110,40894 94113,40893 94115,40892 94117,40891 94120,40890 94123,40888 94125,40887 94127,40886 94130,40884 94132,40883 94134,40881 94137,40880 94139,40878 94141,40876 94143,40875 94145,40873 94148,40871 94150,40869 94152,40867 94154,40865 94156,40863 94157,40861 94159,40859 94161,40857 94163,40855 94164,40853 94166,40850 94167,40848 94169,40846 94170,40843 94171,40841 94173,40838 94174,40836 94175,40833 94176,40831 94177,40828 94178,40826 94179,40823 94180,40820 94181,40818 94181,40815 94182,40812 94183,40810 94183,40807 94184,40804 94184,40802 94184,40799 94185,40796 94185,40793 94185,40791 94185,40788 94185,40113 94185,40110 94185,40108 94185,40105 94184,40102 94184,40099 94184,40096 94183,40094 94183,40091 94182,40088 94181,40086 94181,40083 94180,40080 94179,40078 94178,40075 94177,40073 94176,40070 94175,40067 94174,40065 94173,40062 94171,40060 94170,40058 94169,40055 94167,40053 94166,40050 94164,40048 94163,40046 94161,40044 94159,40042 94157,40040 94156,40038 94154,40035 94152,40034 94150,40032 94148,40030 94145,40028 94143,40026 94141,40024 94139,40023 94137,40021 94134,40020 94132,40018 94130,40017 94127,40015 94125,40014 94123,40013 94120,40011 94117,40010 94115,40009 94113,40008 94110,40007 94107,40005 94105,40005 94102,40004 94099,40003 94096,40002 94094,40002 94091,40001 94088,40001 94086,40000 94083,40000 94080,40000 94077,40000 94075,40000 94072,40000 91128,40000 91125,40000 91123,40000 91120,40000 91117,40000 91114,40000 91112,40001 91109,40001 91106,40002 91103,40002 91101,40003 91098,40004 91095,40005 91093,40005 91090,40007 91087,40008 91085,40009 91082,40010 91080,40011 91077,40013 91075,40014 91072,40015 91070,40017 91068,40018 91065,40020 91063,40021 91061,40023 91059,40024 91056,40026 91054,40028 91052,40030 91050,40032 91048,40034 91046,40035 91044,40038 91042,40040 91041,40042 91039,40044 91037,40046 91036,40048 91034,40050 91033,40053 91031,40055 91030,40058 91028,40060 91027,40062 91026,40065 91025,40067 91024,40070 91023,40073 91022,40075 91021,40078 91020,40080 91019,40083 91019,40086 91018,40088 91017,40091 91017,40094 91016,40096 91016,40099 91016,40102 91015,40105 91015,40108 91015,40110 91015,40113 91015,40788 91015,40791 91015,40793 91015,40796 91016,40799 91016,40802 91016,40804 91017,40807 91017,40810 91018,40812 91019,40815 91019,40818 91020,40820 91021,40823 91022,40826 91023,40828 91024,40831 91025,40833 91026,40836 91027,40838 91028,40841 91030,40843 91031,40846 91033,40848 91034,40850 91036,40853 91037,40855 91039,40857 91041,40859 91042,40861 91044,40863 91046,40865 91048,40867 91050,40869 91052,40871 91054,40873 91056,40875 91059,40876 91061,40878 91063,40880 91065,40881 91068,40883 91070,40884 91072,40886 91075,40887 91077,40888 91080,40890 91082,40891 91085,40892 91087,40893 91090,40894 91093,40895 91095,40895 91098,40896 91101,40897 91103,40898 91106,40898 91109,40899 91112,40899 91114,40900 91117,40900 91120,40900 91123,40900 91125,40900 91128,40900 Z"/>
   </g>
  </g>
  <g class="com.sun.star.drawing.PolyPolygonShape">
   <g id="id4">
    <rect class="BoundingBox" stroke="none" fill="none" x="92171" y="40561" width="81" height="274"/>
    <path fill="rgb(255,255,255)" stroke="none" d="M 92172,40639 L 92199,40639 92199,40833 92250,40833 92250,40562 92199,40562 92172,40612 92172,40639 Z"/>
    <path fill="none" stroke="rgb(255,255,255)" d="M 92172,40639 L 92199,40639 92199,40833 92250,40833 92250,40562 92199,40562 92172,40612 92172,40639 Z"/>
   </g>
  </g>
  <g class="com.sun.star.drawing.PolyPolygonShape">
   <g id="id5">
    <rect class="BoundingBox" stroke="none" fill="none" x="92319" y="40555" width="190" height="285"/>
    <path fill="rgb(255,255,255)" stroke="none" d="M 92371,40644 L 92371,40750 92371,40752 92371,40754 92371,40756 92371,40759 92372,40761 92373,40763 92373,40765 92374,40767 92375,40769 92376,40770 92377,40772 92378,40774 92379,40776 92381,40777 92382,40779 92383,40781 92385,40782 92386,40783 92388,40785 92390,40786 92392,40787 92394,40788 92395,40789 92397,40790 92399,40791 92401,40791 92403,40792 92406,40792 92408,40793 92410,40793 92412,40793 92414,40793 92416,40793 92418,40793 92420,40793 92422,40792 92425,40792 92426,40791 92429,40791 92431,40790 92433,40789 92434,40788 92436,40787 92438,40786 92440,40785 92441,40783 92443,40782 92445,40781 92446,40779 92447,40777 92449,40776 92450,40774 92451,40772 92452,40770 92453,40769 92454,40767 92455,40765 92455,40763 92456,40761 92457,40759 92457,40756 92457,40754 92457,40752 92457,40750 92457,40644 92457,40642 92457,40640 92457,40638 92457,40636 92456,40634 92455,40632 92455,40630 92454,40628 92453,40626 92452,40624 92451,40622 92450,40621 92449,40619 92447,40617 92446,40616 92445,40614 92443,40613 92441,40611 92440,40610 92438,40609 92436,40608 92434,40607 92433,40606 92431,40605 92429,40604 92426,40603 92425,40603 92422,40602 92420,40602 92418,40602 92416,40602 92414,40601 92412,40602 92410,40602 92408,40602 92406,40602 92403,40603 92401,40603 92399,40604 92397,40605 92395,40606 92394,40607 92392,40608 92390,40609 92388,40610 92386,40611 92385,40613 92383,40614 92382,40616 92381,40617 92379,40619 92378,40621 92377,40622 92376,40624 92375,40626 92374,40628 92373,40630 92373,40632 92372,40634 92371,40636 92371,40638 92371,40640 92371,40642 92371,40644 Z M 92320,40649 L 92320,40746 92320,40748 92320,40750 92320,40752 92320,40755 92321,40757 92321,40759 92321,40761 92322,40764 92322,40766 92323,40768 92323,40770 92324,40773 92325,40775 92325,40777 92326,40779 92327,40781 92328,40783 92329,40785 92330,40787 92331,40789 92332,40791 92333,40793 92334,40795 92336,40797 92337,40799 92338,40801 92340,40803 92341,40804 92343,40806 92344,40808 92346,40809 92347,40811 92350,40813 92351,40814 92353,40816 92355,40817 92357,40819 92359,40820 92360,40821 92362,40823 92364,40824 92366,40825 92368,40826 92370,40827 92372,40828 92374,40829 92376,40830 92378,40831 92381,40832 92383,40833 92385,40834 92387,40834 92389,40835 92391,40835 92394,40836 92396,40836 92398,40837 92400,40837 92402,40838 92405,40838 92407,40838 92409,40838 92412,40838 92414,40838 92416,40838 92419,40838 92421,40838 92423,40838 92425,40838 92428,40837 92430,40837 92432,40836 92434,40836 92437,40835 92439,40835 92441,40834 92443,40834 92445,40833 92447,40832 92450,40831 92452,40830 92454,40829 92456,40828 92458,40827 92460,40826 92462,40825 92464,40824 92466,40823 92468,40821 92469,40820 92471,40819 92473,40817 92475,40816 92477,40814 92478,40813 92480,40811 92481,40809 92483,40808 92485,40806 92486,40804 92487,40803 92489,40801 92490,40799 92491,40797 92493,40795 92494,40793 92495,40791 92496,40789 92497,40787 92498,40785 92499,40783 92500,40781 92501,40779 92502,40777 92502,40775 92503,40773 92504,40770 92504,40768 92505,40766 92505,40764 92506,40761 92506,40759 92506,40757 92507,40755 92507,40752 92507,40750 92507,40748 92507,40746 92507,40649 92507,40647 92507,40644 92507,40642 92507,40640 92506,40638 92506,40635 92506,40633 92505,40631 92505,40629 92504,40627 92504,40624 92503,40622 92502,40620 92502,40618 92501,40616 92500,40614 92499,40612 92498,40610 92497,40607 92496,40605 92495,40603 92494,40601 92493,40599 92491,40598 92490,40596 92489,40594 92487,40592 92486,40590 92485,40589 92483,40587 92481,40585 92480,40584 92478,40582 92477,40580 92475,40579 92473,40578 92471,40576 92469,40575 92468,40573 92466,40572 92464,40571 92462,40570 92460,40569 92458,40567 92456,40566 92454,40565 92452,40564 92450,40564 92447,40563 92445,40562 92443,40561 92441,40560 92439,40560 92437,40559 92434,40559 92432,40558 92430,40558 92428,40558 92425,40557 92423,40557 92421,40557 92419,40557 92416,40557 92414,40556 92412,40557 92409,40557 92407,40557 92405,40557 92402,40557 92400,40558 92398,40558 92396,40558 92394,40559 92391,40559 92389,40560 92387,40560 92385,40561 92383,40562 92381,40563 92378,40564 92376,40564 92374,40565 92372,40566 92370,40567 92368,40569 92366,40570 92364,40571 92362,40572 92360,40573 92359,40575 92357,40576 92355,40578 92353,40579 92351,40580 92350,40582 92347,40584 92346,40585 92344,40587 92343,40589 92341,40590 92340,40592 92338,40594 92337,40596 92336,40598 92334,40599 92333,40601 92332,40603 92331,40605 92330,40607 92329,40610 92328,40612 92327,40614 92326,40616 92325,40618 92325,40620 92324,40622 92323,40624 92323,40627 92322,40629 92322,40631 92321,40633 92321,40635 92321,40638 92320,40640 92320,40642 92320,40644 92320,40647 92320,40649 Z"/>
    <path fill="none" stroke="rgb(255,255,255)" d="M 92371,40644 L 92371,40750 92371,40752 92371,40754 92371,40756 92371,40759 92372,40761 92373,40763 92373,40765 92374,40767 92375,40769 92376,40770 92377,40772 92378,40774 92379,40776 92381,40777 92382,40779 92383,40781 92385,40782 92386,40783 92388,40785 92390,40786 92392,40787 92394,40788 92395,40789 92397,40790 92399,40791 92401,40791 92403,40792 92406,40792 92408,40793 92410,40793 92412,40793 92414,40793 92416,40793 92418,40793 92420,40793 92422,40792 92425,40792 92426,40791 92429,40791 92431,40790 92433,40789 92434,40788 92436,40787 92438,40786 92440,40785 92441,40783 92443,40782 92445,40781 92446,40779 92447,40777 92449,40776 92450,40774 92451,40772 92452,40770 92453,40769 92454,40767 92455,40765 92455,40763 92456,40761 92457,40759 92457,40756 92457,40754 92457,40752 92457,40750 92457,40644 92457,40642 92457,40640 92457,40638 92457,40636 92456,40634 92455,40632 92455,40630 92454,40628 92453,40626 92452,40624 92451,40622 92450,40621 92449,40619 92447,40617 92446,40616 92445,40614 92443,40613 92441,40611 92440,40610 92438,40609 92436,40608 92434,40607 92433,40606 92431,40605 92429,40604 92426,40603 92425,40603 92422,40602 92420,40602 92418,40602 92416,40602 92414,40601 92412,40602 92410,40602 92408,40602 92406,40602 92403,40603 92401,40603 92399,40604 92397,40605 92395,40606 92394,40607 92392,40608 92390,40609 92388,40610 92386,40611 92385,40613 92383,40614 92382,40616 92381,40617 92379,40619 92378,40621 92377,40622 92376,40624 92375,40626 92374,40628 92373,40630 92373,40632 92372,40634 92371,40636 92371,40638 92371,40640 92371,40642 92371,40644 Z"/>
    <path fill="none" stroke="rgb(255,255,255)" d="M 92320,40649 L 92320,40746 92320,40748 92320,40750 92320,40752 92320,40755 92321,40757 92321,40759 92321,40761 92322,40764 92322,40766 92323,40768 92323,40770 92324,40773 92325,40775 92325,40777 92326,40779 92327,40781 92328,40783 92329,40785 92330,40787 92331,40789 92332,40791 92333,40793 92334,40795 92336,40797 92337,40799 92338,40801 92340,40803 92341,40804 92343,40806 92344,40808 92346,40809 92347,40811 92350,40813 92351,40814 92353,40816 92355,40817 92357,40819 92359,40820 92360,40821 92362,40823 92364,40824 92366,40825 92368,40826 92370,40827 92372,40828 92374,40829 92376,40830 92378,40831 92381,40832 92383,40833 92385,40834 92387,40834 92389,40835 92391,40835 92394,40836 92396,40836 92398,40837 92400,40837 92402,40838 92405,40838 92407,40838 92409,40838 92412,40838 92414,40838 92416,40838 92419,40838 92421,40838 92423,40838 92425,40838 92428,40837 92430,40837 92432,40836 92434,40836 92437,40835 92439,40835 92441,40834 92443,40834 92445,40833 92447,40832 92450,40831 92452,40830 92454,40829 92456,40828 92458,40827 92460,40826 92462,40825 92464,40824 92466,40823 92468,40821 92469,40820 92471,40819 92473,40817 92475,40816 92477,40814 92478,40813 92480,40811 92481,40809 92483,40808 92485,40806 92486,40804 92487,40803 92489,40801 92490,40799 92491,40797 92493,40795 92494,40793 92495,40791 92496,40789 92497,40787 92498,40785 92499,40783 92500,40781 92501,40779 92502,40777 92502,40775 92503,40773 92504,40770 92504,40768 92505,40766 92505,40764 92506,40761 92506,40759 92506,40757 92507,40755 92507,40752 92507,40750 92507,40748 92507,40746 92507,40649 92507,40647 92507,40644 92507,40642 92507,40640 92506,40638 92506,40635 92506,40633 92505,40631 92505,40629 92504,40627 92504,40624 92503,40622 92502,40620 92502,40618 92501,40616 92500,40614 92499,40612 92498,40610 92497,40607 92496,40605 92495,40603 92494,40601 92493,40599 92491,40598 92490,40596 92489,40594 92487,40592 92486,40590 92485,40589 92483,40587 92481,40585 92480,40584 92478,40582 92477,40580 92475,40579 92473,40578 92471,40576 92469,40575 92468,40573 92466,40572 92464,40571 92462,40570 92460,40569 92458,40567 92456,40566 92454,40565 92452,40564 92450,40564 92447,40563 92445,40562 92443,40561 92441,40560 92439,40560 92437,40559 92434,40559 92432,40558 92430,40558 92428,40558 92425,40557 92423,40557 92421,40557 92419,40557 92416,40557 92414,40556 92412,40557 92409,40557 92407,40557 92405,40557 92402,40557 92400,40558 92398,40558 92396,40558 92394,40559 92391,40559 92389,40560 92387,40560 92385,40561 92383,40562 92381,40563 92378,40564 92376,40564 92374,40565 92372,40566 92370,40567 92368,40569 92366,40570 92364,40571 92362,40572 92360,40573 92359,40575 92357,40576 92355,40578 92353,40579 92351,40580 92350,40582 92347,40584 92346,40585 92344,40587 92343,40589 92341,40590 92340,40592 92338,40594 92337,40596 92336,40598 92334,40599 92333,40601 92332,40603 92331,40605 92330,40607 92329,40610 92328,40612 92327,40614 92326,40616 92325,40618 92325,40620 92324,40622 92323,40624 92323,40627 92322,40629 92322,40631 92321,40633 92321,40635 92321,40638 92320,40640 92320,40642 92320,40644 92320,40647 92320,40649 Z"/>
   </g>
  </g>
  <g class="com.sun.star.drawing.PolyPolygonShape">
   <g id="id6">
    <rect class="BoundingBox" stroke="none" fill="none" x="92573" y="40555" width="190" height="285"/>
    <path fill="rgb(255,255,255)" stroke="none" d="M 92624,40644 L 92624,40750 92624,40752 92624,40754 92624,40756 92625,40759 92625,40761 92626,40763 92626,40765 92627,40767 92628,40769 92629,40770 92630,40772 92631,40774 92632,40776 92634,40777 92635,40779 92636,40781 92638,40782 92640,40783 92641,40785 92643,40786 92645,40787 92647,40788 92649,40789 92651,40790 92653,40791 92655,40791 92657,40792 92659,40792 92661,40793 92663,40793 92665,40793 92667,40793 92669,40793 92671,40793 92674,40793 92676,40792 92678,40792 92680,40791 92682,40791 92684,40790 92686,40789 92688,40788 92689,40787 92691,40786 92693,40785 92695,40783 92696,40782 92698,40781 92699,40779 92701,40777 92702,40776 92703,40774 92704,40772 92705,40770 92706,40769 92707,40767 92708,40765 92709,40763 92709,40761 92710,40759 92710,40756 92710,40754 92710,40752 92711,40750 92711,40644 92710,40642 92710,40640 92710,40638 92710,40636 92709,40634 92709,40632 92708,40630 92707,40628 92706,40626 92705,40624 92704,40622 92703,40621 92702,40619 92701,40617 92699,40616 92698,40614 92696,40613 92695,40611 92693,40610 92691,40609 92689,40608 92688,40607 92686,40606 92684,40605 92682,40604 92680,40603 92678,40603 92676,40602 92674,40602 92671,40602 92669,40602 92667,40601 92665,40602 92663,40602 92661,40602 92659,40602 92657,40603 92655,40603 92653,40604 92651,40605 92649,40606 92647,40607 92645,40608 92643,40609 92641,40610 92640,40611 92638,40613 92636,40614 92635,40616 92634,40617 92632,40619 92631,40621 92630,40622 92629,40624 92628,40626 92627,40628 92626,40630 92626,40632 92625,40634 92625,40636 92624,40638 92624,40640 92624,40642 92624,40644 Z M 92574,40649 L 92574,40746 92574,40748 92574,40750 92574,40752 92575,40755 92575,40757 92575,40759 92576,40761 92576,40764 92576,40766 92577,40768 92577,40770 92578,40773 92579,40775 92580,40777 92580,40779 92581,40781 92582,40783 92583,40785 92584,40787 92585,40789 92586,40791 92587,40793 92589,40795 92590,40797 92591,40799 92592,40801 92594,40803 92595,40804 92597,40806 92598,40808 92600,40809 92601,40811 92603,40813 92605,40814 92606,40816 92608,40817 92610,40819 92612,40820 92614,40821 92615,40823 92617,40824 92619,40825 92621,40826 92623,40827 92625,40828 92627,40829 92630,40830 92632,40831 92634,40832 92636,40833 92638,40834 92640,40834 92642,40835 92645,40835 92647,40836 92649,40836 92651,40837 92653,40837 92656,40838 92658,40838 92660,40838 92663,40838 92665,40838 92667,40838 92670,40838 92672,40838 92674,40838 92676,40838 92679,40838 92681,40837 92683,40837 92685,40836 92688,40836 92690,40835 92692,40835 92694,40834 92696,40834 92699,40833 92701,40832 92703,40831 92705,40830 92707,40829 92709,40828 92711,40827 92713,40826 92715,40825 92717,40824 92719,40823 92722,40821 92724,40820 92726,40819 92727,40817 92729,40816 92731,40814 92732,40813 92734,40811 92736,40809 92737,40808 92739,40806 92740,40804 92742,40803 92743,40801 92744,40799 92746,40797 92747,40795 92748,40793 92749,40791 92750,40789 92752,40787 92752,40785 92753,40783 92754,40781 92755,40779 92756,40777 92757,40775 92757,40773 92758,40770 92758,40768 92759,40766 92760,40764 92760,40761 92760,40759 92761,40757 92761,40755 92761,40752 92761,40750 92761,40748 92761,40746 92761,40649 92761,40647 92761,40644 92761,40642 92761,40640 92761,40638 92760,40635 92760,40633 92760,40631 92759,40629 92758,40627 92758,40624 92757,40622 92757,40620 92756,40618 92755,40616 92754,40614 92753,40612 92752,40610 92752,40607 92750,40605 92749,40603 92748,40601 92747,40599 92746,40598 92744,40596 92743,40594 92742,40592 92740,40590 92739,40589 92737,40587 92736,40585 92734,40584 92732,40582 92731,40580 92729,40579 92727,40578 92726,40576 92724,40575 92722,40573 92719,40572 92717,40571 92715,40570 92713,40569 92711,40567 92709,40566 92707,40565 92705,40564 92703,40564 92701,40563 92699,40562 92696,40561 92694,40560 92692,40560 92690,40559 92688,40559 92685,40558 92683,40558 92681,40558 92679,40557 92676,40557 92674,40557 92672,40557 92670,40557 92667,40556 92665,40557 92663,40557 92660,40557 92658,40557 92656,40557 92653,40558 92651,40558 92649,40558 92647,40559 92645,40559 92642,40560 92640,40560 92638,40561 92636,40562 92634,40563 92632,40564 92630,40564 92627,40565 92625,40566 92623,40567 92621,40569 92619,40570 92617,40571 92615,40572 92614,40573 92612,40575 92610,40576 92608,40578 92606,40579 92605,40580 92603,40582 92601,40584 92600,40585 92598,40587 92597,40589 92595,40590 92594,40592 92592,40594 92591,40596 92590,40598 92589,40599 92587,40601 92586,40603 92585,40605 92584,40607 92583,40610 92582,40612 92581,40614 92580,40616 92580,40618 92579,40620 92578,40622 92577,40624 92577,40627 92576,40629 92576,40631 92576,40633 92575,40635 92575,40638 92575,40640 92574,40642 92574,40644 92574,40647 92574,40649 Z"/>
    <path fill="none" stroke="rgb(255,255,255)" d="M 92624,40644 L 92624,40750 92624,40752 92624,40754 92624,40756 92625,40759 92625,40761 92626,40763 92626,40765 92627,40767 92628,40769 92629,40770 92630,40772 92631,40774 92632,40776 92634,40777 92635,40779 92636,40781 92638,40782 92640,40783 92641,40785 92643,40786 92645,40787 92647,40788 92649,40789 92651,40790 92653,40791 92655,40791 92657,40792 92659,40792 92661,40793 92663,40793 92665,40793 92667,40793 92669,40793 92671,40793 92674,40793 92676,40792 92678,40792 92680,40791 92682,40791 92684,40790 92686,40789 92688,40788 92689,40787 92691,40786 92693,40785 92695,40783 92696,40782 92698,40781 92699,40779 92701,40777 92702,40776 92703,40774 92704,40772 92705,40770 92706,40769 92707,40767 92708,40765 92709,40763 92709,40761 92710,40759 92710,40756 92710,40754 92710,40752 92711,40750 92711,40644 92710,40642 92710,40640 92710,40638 92710,40636 92709,40634 92709,40632 92708,40630 92707,40628 92706,40626 92705,40624 92704,40622 92703,40621 92702,40619 92701,40617 92699,40616 92698,40614 92696,40613 92695,40611 92693,40610 92691,40609 92689,40608 92688,40607 92686,40606 92684,40605 92682,40604 92680,40603 92678,40603 92676,40602 92674,40602 92671,40602 92669,40602 92667,40601 92665,40602 92663,40602 92661,40602 92659,40602 92657,40603 92655,40603 92653,40604 92651,40605 92649,40606 92647,40607 92645,40608 92643,40609 92641,40610 92640,40611 92638,40613 92636,40614 92635,40616 92634,40617 92632,40619 92631,40621 92630,40622 92629,40624 92628,40626 92627,40628 92626,40630 92626,40632 92625,40634 92625,40636 92624,40638 92624,40640 92624,40642 92624,40644 Z"/>
    <path fill="none" stroke="rgb(255,255,255)" d="M 92574,40649 L 92574,40746 92574,40748 92574,40750 92574,40752 92575,40755 92575,40757 92575,40759 92576,40761 92576,40764 92576,40766 92577,40768 92577,40770 92578,40773 92579,40775 92580,40777 92580,40779 92581,40781 92582,40783 92583,40785 92584,40787 92585,40789 92586,40791 92587,40793 92589,40795 92590,40797 92591,40799 92592,40801 92594,40803 92595,40804 92597,40806 92598,40808 92600,40809 92601,40811 92603,40813 92605,40814 92606,40816 92608,40817 92610,40819 92612,40820 92614,40821 92615,40823 92617,40824 92619,40825 92621,40826 92623,40827 92625,40828 92627,40829 92630,40830 92632,40831 92634,40832 92636,40833 92638,40834 92640,40834 92642,40835 92645,40835 92647,40836 92649,40836 92651,40837 92653,40837 92656,40838 92658,40838 92660,40838 92663,40838 92665,40838 92667,40838 92670,40838 92672,40838 92674,40838 92676,40838 92679,40838 92681,40837 92683,40837 92685,40836 92688,40836 92690,40835 92692,40835 92694,40834 92696,40834 92699,40833 92701,40832 92703,40831 92705,40830 92707,40829 92709,40828 92711,40827 92713,40826 92715,40825 92717,40824 92719,40823 92722,40821 92724,40820 92726,40819 92727,40817 92729,40816 92731,40814 92732,40813 92734,40811 92736,40809 92737,40808 92739,40806 92740,40804 92742,40803 92743,40801 92744,40799 92746,40797 92747,40795 92748,40793 92749,40791 92750,40789 92752,40787 92752,40785 92753,40783 92754,40781 92755,40779 92756,40777 92757,40775 92757,40773 92758,40770 92758,40768 92759,40766 92760,40764 92760,40761 92760,40759 92761,40757 92761,40755 92761,40752 92761,40750 92761,40748 92761,40746 92761,40649 92761,40647 92761,40644 92761,40642 92761,40640 92761,40638 92760,40635 92760,40633 92760,40631 92759,40629 92758,40627 92758,40624 92757,40622 92757,40620 92756,40618 92755,40616 92754,40614 92753,40612 92752,40610 92752,40607 92750,40605 92749,40603 92748,40601 92747,40599 92746,40598 92744,40596 92743,40594 92742,40592 92740,40590 92739,40589 92737,40587 92736,40585 92734,40584 92732,40582 92731,40580 92729,40579 92727,40578 92726,40576 92724,40575 92722,40573 92719,40572 92717,40571 92715,40570 92713,40569 92711,40567 92709,40566 92707,40565 92705,40564 92703,40564 92701,40563 92699,40562 92696,40561 92694,40560 92692,40560 92690,40559 92688,40559 92685,40558 92683,40558 92681,40558 92679,40557 92676,40557 92674,40557 92672,40557 92670,40557 92667,40556 92665,40557 92663,40557 92660,40557 92658,40557 92656,40557 92653,40558 92651,40558 92649,40558 92647,40559 92645,40559 92642,40560 92640,40560 92638,40561 92636,40562 92634,40563 92632,40564 92630,40564 92627,40565 92625,40566 92623,40567 92621,40569 92619,40570 92617,40571 92615,40572 92614,40573 92612,40575 92610,40576 92608,40578 92606,40579 92605,40580 92603,40582 92601,40584 92600,40585 92598,40587 92597,40589 92595,40590 92594,40592 92592,40594 92591,40596 92590,40598 92589,40599 92587,40601 92586,40603 92585,40605 92584,40607 92583,40610 92582,40612 92581,40614 92580,40616 92580,40618 92579,40620 92578,40622 92577,40624 92577,40627 92576,40629 92576,40631 92576,40633 92575,40635 92575,40638 92575,40640 92574,40642 92574,40644 92574,40647 92574,40649 Z"/>
   </g>
  </g>
  <g class="com.sun.star.drawing.PolyPolygonShape">
   <g id="id7">
    <rect class="BoundingBox" stroke="none" fill="none" x="92828" y="40633" width="269" height="202"/>
    <path fill="rgb(255,255,255)" stroke="none" d="M 92829,40833 L 92874,40833 92874,40705 92875,40704 92875,40702 92875,40701 92875,40699 92875,40698 92876,40696 92876,40694 92877,40693 92877,40692 92878,40690 92879,40688 92880,40686 92881,40685 92882,40684 92884,40683 92885,40682 92886,40680 92887,40679 92888,40679 92890,40678 92891,40677 92892,40676 92894,40675 92895,40675 92897,40674 92898,40674 92900,40673 92901,40673 92903,40673 92905,40672 92906,40672 92908,40672 92909,40672 92911,40672 92912,40673 92914,40673 92916,40673 92917,40674 92919,40674 92920,40675 92922,40675 92923,40676 92924,40677 92926,40678 92927,40679 92928,40679 92929,40680 92931,40682 92932,40683 92933,40684 92934,40685 92934,40686 92936,40688 92936,40690 92937,40692 92938,40693 92938,40694 92939,40696 92939,40698 92939,40699 92940,40701 92940,40702 92940,40704 92940,40705 92940,40833 92985,40833 92985,40705 92985,40704 92985,40702 92986,40701 92986,40699 92986,40698 92987,40696 92987,40694 92988,40693 92988,40692 92989,40690 92990,40688 92991,40686 92992,40685 92993,40684 92994,40683 92995,40682 92996,40680 92997,40679 92998,40679 93000,40678 93001,40677 93002,40676 93004,40675 93005,40675 93007,40674 93008,40674 93010,40673 93011,40673 93013,40673 93014,40672 93016,40672 93018,40672 93019,40672 93021,40672 93022,40673 93024,40673 93026,40673 93027,40674 93029,40674 93030,40675 93032,40675 93033,40676 93034,40677 93036,40678 93037,40679 93038,40679 93039,40680 93040,40682 93042,40683 93043,40684 93044,40685 93044,40686 93045,40688 93046,40690 93047,40692 93047,40693 93048,40694 93048,40696 93049,40698 93049,40699 93050,40701 93050,40702 93050,40704 93050,40705 93050,40833 93095,40833 93095,40698 93095,40696 93095,40693 93095,40690 93094,40687 93094,40684 93093,40682 93093,40679 93092,40677 93091,40674 93090,40672 93089,40669 93088,40667 93086,40665 93085,40663 93084,40661 93082,40659 93081,40657 93079,40655 93077,40653 93075,40651 93073,40649 93071,40648 93069,40646 93067,40644 93065,40643 93063,40642 93060,40640 93058,40639 93056,40638 93053,40637 93051,40637 93048,40636 93046,40635 93043,40635 93040,40634 93038,40634 93035,40634 93033,40634 93030,40634 93028,40634 93025,40634 93022,40634 93020,40635 93017,40635 93015,40636 93012,40636 93010,40637 93008,40638 93005,40639 93003,40640 93000,40642 92998,40643 92996,40644 92994,40646 92992,40647 92990,40649 92988,40651 92986,40653 92984,40654 92982,40656 92981,40658 92979,40660 92978,40663 92976,40665 92975,40663 92974,40662 92973,40660 92972,40659 92971,40657 92970,40656 92969,40654 92967,40653 92966,40652 92965,40651 92964,40649 92962,40648 92961,40647 92959,40646 92958,40645 92956,40644 92955,40643 92953,40642 92951,40641 92950,40640 92948,40640 92946,40639 92945,40638 92943,40637 92941,40637 92940,40636 92938,40636 92936,40635 92934,40635 92932,40635 92931,40634 92929,40634 92927,40634 92925,40634 92923,40634 92921,40634 92920,40634 92918,40634 92916,40634 92914,40634 92912,40634 92910,40635 92909,40635 92907,40635 92905,40636 92903,40636 92902,40637 92900,40637 92898,40638 92896,40639 92895,40640 92893,40640 92891,40641 92890,40642 92888,40643 92887,40644 92885,40645 92884,40646 92881,40647 92880,40648 92878,40649 92877,40650 92876,40652 92874,40653 92874,40639 92829,40639 92829,40833 Z"/>
    <path fill="none" stroke="rgb(255,255,255)" d="M 92829,40833 L 92874,40833 92874,40705 92875,40704 92875,40702 92875,40701 92875,40699 92875,40698 92876,40696 92876,40694 92877,40693 92877,40692 92878,40690 92879,40688 92880,40686 92881,40685 92882,40684 92884,40683 92885,40682 92886,40680 92887,40679 92888,40679 92890,40678 92891,40677 92892,40676 92894,40675 92895,40675 92897,40674 92898,40674 92900,40673 92901,40673 92903,40673 92905,40672 92906,40672 92908,40672 92909,40672 92911,40672 92912,40673 92914,40673 92916,40673 92917,40674 92919,40674 92920,40675 92922,40675 92923,40676 92924,40677 92926,40678 92927,40679 92928,40679 92929,40680 92931,40682 92932,40683 92933,40684 92934,40685 92934,40686 92936,40688 92936,40690 92937,40692 92938,40693 92938,40694 92939,40696 92939,40698 92939,40699 92940,40701 92940,40702 92940,40704 92940,40705 92940,40833 92985,40833 92985,40705 92985,40704 92985,40702 92986,40701 92986,40699 92986,40698 92987,40696 92987,40694 92988,40693 92988,40692 92989,40690 92990,40688 92991,40686 92992,40685 92993,40684 92994,40683 92995,40682 92996,40680 92997,40679 92998,40679 93000,40678 93001,40677 93002,40676 93004,40675 93005,40675 93007,40674 93008,40674 93010,40673 93011,40673 93013,40673 93014,40672 93016,40672 93018,40672 93019,40672 93021,40672 93022,40673 93024,40673 93026,40673 93027,40674 93029,40674 93030,40675 93032,40675 93033,40676 93034,40677 93036,40678 93037,40679 93038,40679 93039,40680 93040,40682 93042,40683 93043,40684 93044,40685 93044,40686 93045,40688 93046,40690 93047,40692 93047,40693 93048,40694 93048,40696 93049,40698 93049,40699 93050,40701 93050,40702 93050,40704 93050,40705 93050,40833 93095,40833 93095,40698 93095,40696 93095,40693 93095,40690 93094,40687 93094,40684 93093,40682 93093,40679 93092,40677 93091,40674 93090,40672 93089,40669 93088,40667 93086,40665 93085,40663 93084,40661 93082,40659 93081,40657 93079,40655 93077,40653 93075,40651 93073,40649 93071,40648 93069,40646 93067,40644 93065,40643 93063,40642 93060,40640 93058,40639 93056,40638 93053,40637 93051,40637 93048,40636 93046,40635 93043,40635 93040,40634 93038,40634 93035,40634 93033,40634 93030,40634 93028,40634 93025,40634 93022,40634 93020,40635 93017,40635 93015,40636 93012,40636 93010,40637 93008,40638 93005,40639 93003,40640 93000,40642 92998,40643 92996,40644 92994,40646 92992,40647 92990,40649 92988,40651 92986,40653 92984,40654 92982,40656 92981,40658 92979,40660 92978,40663 92976,40665 92975,40663 92974,40662 92973,40660 92972,40659 92971,40657 92970,40656 92969,40654 92967,40653 92966,40652 92965,40651 92964,40649 92962,40648 92961,40647 92959,40646 92958,40645 92956,40644 92955,40643 92953,40642 92951,40641 92950,40640 92948,40640 92946,40639 92945,40638 92943,40637 92941,40637 92940,40636 92938,40636 92936,40635 92934,40635 92932,40635 92931,40634 92929,40634 92927,40634 92925,40634 92923,40634 92921,40634 92920,40634 92918,40634 92916,40634 92914,40634 92912,40634 92910,40635 92909,40635 92907,40635 92905,40636 92903,40636 92902,40637 92900,40637 92898,40638 92896,40639 92895,40640 92893,40640 92891,40641 92890,40642 92888,40643 92887,40644 92885,40645 92884,40646 92881,40647 92880,40648 92878,40649 92877,40650 92876,40652 92874,40653 92874,40639 92829,40639 92829,40833 Z"/>
   </g>
  </g>
  <g class="com.sun.star.drawing.PolyPolygonShape">
   <g id="id8">
    <rect class="BoundingBox" stroke="none" fill="none" x="91772" y="40089" width="1362" height="453"/>
    <path fill="rgb(255,255,255)" stroke="none" d="M 93132,40237 L 92135,40237 92135,40090 91773,40315 92135,40540 92135,40394 93132,40394 93132,40237 Z"/>
    <path fill="none" stroke="rgb(255,255,255)" d="M 93132,40237 L 92135,40237 92135,40090 91773,40315 92135,40540 92135,40394 93132,40394 93132,40237 Z"/>
   </g>
  </g>
  <g class="com.sun.star.drawing.PolyPolygonShape">
   <g id="id9">
    <rect class="BoundingBox" stroke="none" fill="none" x="91331" y="40089" width="275" height="723"/>
    <path fill="rgb(255,255,255)" stroke="none" d="M 91332,40810 L 91604,40810 91604,40090 91332,40090 91332,40810 Z"/>
    <path fill="none" stroke="rgb(255,255,255)" d="M 91332,40810 L 91604,40810 91604,40090 91332,40090 91332,40810 Z"/>
   </g>
  </g>
  <g class="com.sun.star.drawing.PolyPolygonShape">
   <g id="id10">
    <rect class="BoundingBox" stroke="none" fill="none" x="93444" y="40088" width="128" height="128"/>
    <path fill="rgb(255,255,255)" stroke="none" d="M 93570,40151 L 93569,40148 93569,40145 93569,40142 93568,40139 93568,40136 93567,40133 93566,40130 93565,40128 93564,40125 93562,40122 93561,40120 93559,40117 93556,40115 93555,40112 93553,40110 93550,40108 93548,40105 93546,40103 93543,40102 93541,40100 93538,40098 93536,40097 93533,40095 93530,40094 93527,40093 93525,40092 93522,40091 93519,40091 93516,40090 93513,40090 93510,40090 93507,40089 93504,40090 93501,40090 93497,40090 93495,40091 93492,40091 93489,40092 93486,40093 93483,40094 93480,40095 93477,40097 93475,40098 93472,40100 93470,40102 93467,40103 93465,40105 93463,40108 93461,40110 93459,40112 93457,40115 93455,40117 93453,40120 93452,40122 93451,40125 93449,40128 93448,40130 93447,40133 93447,40136 93446,40139 93445,40142 93445,40145 93445,40148 93445,40151 93445,40154 93445,40157 93445,40161 93446,40164 93447,40167 93447,40170 93448,40173 93449,40176 93451,40178 93452,40181 93453,40184 93455,40186 93457,40189 93459,40191 93461,40194 93463,40196 93465,40198 93467,40200 93470,40202 93472,40203 93475,40205 93477,40206 93480,40208 93483,40209 93486,40210 93489,40211 93492,40212 93495,40213 93497,40213 93501,40213 93504,40214 93507,40214 93510,40214 93513,40213 93516,40213 93519,40213 93522,40212 93525,40211 93527,40210 93530,40209 93533,40208 93536,40206 93538,40205 93541,40203 93543,40202 93546,40200 93548,40198 93550,40196 93553,40194 93555,40191 93556,40189 93559,40186 93561,40184 93562,40181 93564,40178 93565,40176 93566,40173 93567,40170 93568,40167 93568,40164 93569,40161 93569,40157 93569,40154 93570,40151 Z"/>
    <path fill="none" stroke="rgb(255,255,255)" d="M 93570,40151 L 93569,40148 93569,40145 93569,40142 93568,40139 93568,40136 93567,40133 93566,40130 93565,40128 93564,40125 93562,40122 93561,40120 93559,40117 93556,40115 93555,40112 93553,40110 93550,40108 93548,40105 93546,40103 93543,40102 93541,40100 93538,40098 93536,40097 93533,40095 93530,40094 93527,40093 93525,40092 93522,40091 93519,40091 93516,40090 93513,40090 93510,40090 93507,40089 93504,40090 93501,40090 93497,40090 93495,40091 93492,40091 93489,40092 93486,40093 93483,40094 93480,40095 93477,40097 93475,40098 93472,40100 93470,40102 93467,40103 93465,40105 93463,40108 93461,40110 93459,40112 93457,40115 93455,40117 93453,40120 93452,40122 93451,40125 93449,40128 93448,40130 93447,40133 93447,40136 93446,40139 93445,40142 93445,40145 93445,40148 93445,40151 93445,40154 93445,40157 93445,40161 93446,40164 93447,40167 93447,40170 93448,40173 93449,40176 93451,40178 93452,40181 93453,40184 93455,40186 93457,40189 93459,40191 93461,40194 93463,40196 93465,40198 93467,40200 93470,40202 93472,40203 93475,40205 93477,40206 93480,40208 93483,40209 93486,40210 93489,40211 93492,40212 93495,40213 93497,40213 93501,40213 93504,40214 93507,40214 93510,40214 93513,40213 93516,40213 93519,40213 93522,40212 93525,40211 93527,40210 93530,40209 93533,40208 93536,40206 93538,40205 93541,40203 93543,40202 93546,40200 93548,40198 93550,40196 93553,40194 93555,40191 93556,40189 93559,40186 93561,40184 93562,40181 93564,40178 93565,40176 93566,40173 93567,40170 93568,40167 93568,40164 93569,40161 93569,40157 93569,40154 93570,40151 Z"/>
   </g>
  </g>
  <g class="com.sun.star.drawing.PolyPolygonShape">
   <g id="id11">
    <rect class="BoundingBox" stroke="none" fill="none" x="93300" y="40223" width="570" height="589"/>
    <path fill="rgb(255,255,255)" stroke="none" d="M 93464,40667 L 93466,40659 93469,40650 93471,40642 93473,40634 93476,40626 93478,40618 93481,40610 93484,40602 93486,40594 93489,40585 93492,40578 93495,40570 93498,40562 93501,40554 93505,40546 93508,40539 93511,40532 93514,40525 93517,40518 93521,40512 93524,40505 93527,40498 93531,40492 93535,40485 93538,40479 93542,40473 93546,40466 93550,40460 93554,40454 93558,40448 93562,40441 93567,40435 93511,40362 93446,40435 93336,40435 93335,40435 93333,40435 93331,40434 93330,40434 93328,40434 93326,40433 93325,40433 93323,40432 93321,40431 93320,40430 93318,40430 93317,40429 93315,40428 93314,40427 93313,40425 93311,40424 93310,40423 93309,40422 93308,40420 93307,40419 93306,40418 93305,40416 93305,40414 93304,40413 93303,40411 93303,40410 93302,40408 93302,40406 93301,40405 93301,40403 93301,40401 93301,40399 93301,40398 93301,40396 93301,40394 93302,40393 93302,40391 93303,40389 93303,40388 93304,40386 93305,40384 93305,40383 93306,40381 93307,40380 93308,40378 93309,40377 93310,40376 93311,40375 93313,40373 93314,40372 93315,40371 93317,40370 93318,40369 93320,40368 93321,40368 93323,40367 93325,40366 93326,40366 93328,40365 93330,40365 93331,40364 93333,40364 93335,40364 93336,40364 93412,40364 93526,40241 93528,40239 93529,40238 93531,40236 93533,40235 93535,40234 93536,40232 93538,40231 93540,40230 93542,40229 93544,40228 93546,40227 93548,40226 93550,40226 93553,40225 93555,40225 93557,40224 93683,40224 93686,40224 93689,40224 93692,40225 93695,40225 93698,40225 93701,40226 93704,40227 93707,40227 93710,40228 93713,40229 93716,40230 93719,40231 93722,40232 93725,40233 93728,40234 93730,40236 93733,40237 93736,40238 93739,40240 93741,40241 93744,40243 93746,40245 93749,40247 93751,40249 93754,40251 93756,40253 93758,40255 93760,40257 93762,40259 93764,40262 93766,40264 93768,40266 93809,40319 93810,40321 93811,40322 93812,40324 93813,40325 93814,40327 93814,40329 93815,40330 93816,40332 93816,40334 93816,40335 93817,40337 93817,40339 93817,40341 93817,40343 93817,40344 93817,40346 93816,40348 93816,40349 93815,40351 93815,40353 93814,40355 93814,40356 93813,40358 93812,40360 93811,40361 93810,40362 93809,40364 93808,40365 93807,40366 93805,40368 93804,40369 93803,40370 93801,40371 93800,40372 93798,40373 93797,40374 93795,40375 93793,40375 93792,40376 93790,40376 93788,40377 93786,40377 93785,40377 93783,40377 93781,40378 93779,40378 93777,40377 93776,40377 93774,40377 93772,40377 93770,40376 93769,40376 93767,40375 93765,40374 93764,40374 93762,40373 93761,40372 93759,40371 93758,40370 93756,40369 93755,40367 93754,40366 93753,40365 93752,40363 93703,40300 93701,40298 93699,40296 93698,40295 93696,40293 93694,40292 93692,40290 93690,40289 93688,40288 93685,40287 93683,40286 93681,40285 93678,40285 93676,40284 93674,40284 93670,40284 93668,40284 93646,40284 93682,40366 93684,40369 93685,40373 93687,40377 93688,40381 93690,40385 93691,40389 93692,40393 93693,40397 93694,40401 93695,40405 93696,40409 93697,40414 93698,40418 93699,40422 93699,40426 93700,40430 93712,40550 93712,40552 93712,40553 93713,40554 93713,40555 93713,40556 93714,40557 93714,40558 93715,40559 93715,40560 93716,40561 93717,40563 93718,40564 93719,40565 93720,40566 93721,40567 93721,40568 93722,40568 93723,40569 93724,40570 93725,40570 93726,40571 93727,40571 93729,40572 93730,40572 93731,40573 93732,40573 93733,40573 93734,40573 93735,40573 93736,40574 93738,40574 93832,40574 93834,40574 93835,40574 93837,40574 93839,40574 93841,40575 93842,40575 93844,40575 93846,40576 93847,40577 93849,40578 93850,40578 93852,40579 93853,40580 93855,40582 93856,40583 93857,40584 93859,40585 93860,40587 93861,40589 93862,40590 93863,40592 93864,40593 93865,40595 93865,40597 93866,40598 93866,40600 93867,40602 93867,40603 93868,40605 93868,40607 93868,40609 93868,40610 93868,40612 93868,40614 93868,40615 93867,40617 93867,40619 93866,40621 93866,40622 93865,40624 93865,40626 93864,40627 93863,40629 93862,40630 93861,40632 93860,40633 93859,40634 93857,40636 93856,40637 93855,40638 93853,40639 93852,40640 93850,40641 93849,40642 93847,40643 93846,40644 93844,40644 93842,40645 93841,40645 93839,40645 93837,40646 93835,40646 93834,40646 93832,40646 93708,40646 93705,40646 93702,40646 93699,40646 93696,40645 93693,40645 93691,40644 93688,40643 93685,40642 93682,40641 93679,40640 93677,40638 93674,40637 93670,40635 93668,40634 93666,40632 93663,40630 93661,40628 93659,40626 93657,40624 93655,40621 93653,40619 93652,40617 93650,40614 93648,40611 93647,40609 93646,40606 93645,40603 93643,40601 93643,40598 93642,40595 93641,40592 93641,40589 93628,40507 93575,40581 93574,40584 93572,40586 93570,40590 93569,40593 93567,40595 93566,40598 93564,40601 93563,40604 93561,40607 93560,40610 93559,40613 93558,40616 93557,40619 93556,40622 93555,40625 93554,40628 93517,40781 93516,40782 93516,40784 93515,40786 93514,40788 93513,40789 93513,40791 93512,40793 93511,40794 93509,40796 93508,40797 93507,40798 93505,40800 93504,40801 93502,40802 93501,40803 93499,40804 93498,40805 93496,40806 93494,40807 93493,40807 93491,40808 93489,40809 93487,40809 93485,40809 93483,40809 93482,40810 93480,40810 93478,40810 93476,40809 93474,40809 93472,40809 93470,40809 93468,40808 93466,40808 93465,40807 93463,40806 93461,40805 93460,40804 93458,40803 93457,40802 93455,40801 93453,40800 93452,40799 93451,40797 93450,40796 93448,40795 93447,40793 93446,40791 93445,40790 93445,40788 93444,40786 93443,40784 93442,40783 93442,40781 93441,40779 93441,40777 93441,40775 93441,40774 93441,40772 93441,40770 93441,40768 93441,40766 93441,40764 93442,40762 93448,40738 93453,40715 93459,40691 93464,40667 Z"/>
    <path fill="none" stroke="rgb(255,255,255)" d="M 93464,40667 L 93466,40659 93469,40650 93471,40642 93473,40634 93476,40626 93478,40618 93481,40610 93484,40602 93486,40594 93489,40585 93492,40578 93495,40570 93498,40562 93501,40554 93505,40546 93508,40539 93511,40532 93514,40525 93517,40518 93521,40512 93524,40505 93527,40498 93531,40492 93535,40485 93538,40479 93542,40473 93546,40466 93550,40460 93554,40454 93558,40448 93562,40441 93567,40435 93511,40362 93446,40435 93336,40435 93335,40435 93333,40435 93331,40434 93330,40434 93328,40434 93326,40433 93325,40433 93323,40432 93321,40431 93320,40430 93318,40430 93317,40429 93315,40428 93314,40427 93313,40425 93311,40424 93310,40423 93309,40422 93308,40420 93307,40419 93306,40418 93305,40416 93305,40414 93304,40413 93303,40411 93303,40410 93302,40408 93302,40406 93301,40405 93301,40403 93301,40401 93301,40399 93301,40398 93301,40396 93301,40394 93302,40393 93302,40391 93303,40389 93303,40388 93304,40386 93305,40384 93305,40383 93306,40381 93307,40380 93308,40378 93309,40377 93310,40376 93311,40375 93313,40373 93314,40372 93315,40371 93317,40370 93318,40369 93320,40368 93321,40368 93323,40367 93325,40366 93326,40366 93328,40365 93330,40365 93331,40364 93333,40364 93335,40364 93336,40364 93412,40364 93526,40241 93528,40239 93529,40238 93531,40236 93533,40235 93535,40234 93536,40232 93538,40231 93540,40230 93542,40229 93544,40228 93546,40227 93548,40226 93550,40226 93553,40225 93555,40225 93557,40224 93683,40224 93686,40224 93689,40224 93692,40225 93695,40225 93698,40225 93701,40226 93704,40227 93707,40227 93710,40228 93713,40229 93716,40230 93719,40231 93722,40232 93725,40233 93728,40234 93730,40236 93733,40237 93736,40238 93739,40240 93741,40241 93744,40243 93746,40245 93749,40247 93751,40249 93754,40251 93756,40253 93758,40255 93760,40257 93762,40259 93764,40262 93766,40264 93768,40266 93809,40319 93810,40321 93811,40322 93812,40324 93813,40325 93814,40327 93814,40329 93815,40330 93816,40332 93816,40334 93816,40335 93817,40337 93817,40339 93817,40341 93817,40343 93817,40344 93817,40346 93816,40348 93816,40349 93815,40351 93815,40353 93814,40355 93814,40356 93813,40358 93812,40360 93811,40361 93810,40362 93809,40364 93808,40365 93807,40366 93805,40368 93804,40369 93803,40370 93801,40371 93800,40372 93798,40373 93797,40374 93795,40375 93793,40375 93792,40376 93790,40376 93788,40377 93786,40377 93785,40377 93783,40377 93781,40378 93779,40378 93777,40377 93776,40377 93774,40377 93772,40377 93770,40376 93769,40376 93767,40375 93765,40374 93764,40374 93762,40373 93761,40372 93759,40371 93758,40370 93756,40369 93755,40367 93754,40366 93753,40365 93752,40363 93703,40300 93701,40298 93699,40296 93698,40295 93696,40293 93694,40292 93692,40290 93690,40289 93688,40288 93685,40287 93683,40286 93681,40285 93678,40285 93676,40284 93674,40284 93670,40284 93668,40284 93646,40284 93682,40366 93684,40369 93685,40373 93687,40377 93688,40381 93690,40385 93691,40389 93692,40393 93693,40397 93694,40401 93695,40405 93696,40409 93697,40414 93698,40418 93699,40422 93699,40426 93700,40430 93712,40550 93712,40552 93712,40553 93713,40554 93713,40555 93713,40556 93714,40557 93714,40558 93715,40559 93715,40560 93716,40561 93717,40563 93718,40564 93719,40565 93720,40566 93721,40567 93721,40568 93722,40568 93723,40569 93724,40570 93725,40570 93726,40571 93727,40571 93729,40572 93730,40572 93731,40573 93732,40573 93733,40573 93734,40573 93735,40573 93736,40574 93738,40574 93832,40574 93834,40574 93835,40574 93837,40574 93839,40574 93841,40575 93842,40575 93844,40575 93846,40576 93847,40577 93849,40578 93850,40578 93852,40579 93853,40580 93855,40582 93856,40583 93857,40584 93859,40585 93860,40587 93861,40589 93862,40590 93863,40592 93864,40593 93865,40595 93865,40597 93866,40598 93866,40600 93867,40602 93867,40603 93868,40605 93868,40607 93868,40609 93868,40610 93868,40612 93868,40614 93868,40615 93867,40617 93867,40619 93866,40621 93866,40622 93865,40624 93865,40626 93864,40627 93863,40629 93862,40630 93861,40632 93860,40633 93859,40634 93857,40636 93856,40637 93855,40638 93853,40639 93852,40640 93850,40641 93849,40642 93847,40643 93846,40644 93844,40644 93842,40645 93841,40645 93839,40645 93837,40646 93835,40646 93834,40646 93832,40646 93708,40646 93705,40646 93702,40646 93699,40646 93696,40645 93693,40645 93691,40644 93688,40643 93685,40642 93682,40641 93679,40640 93677,40638 93674,40637 93670,40635 93668,40634 93666,40632 93663,40630 93661,40628 93659,40626 93657,40624 93655,40621 93653,40619 93652,40617 93650,40614 93648,40611 93647,40609 93646,40606 93645,40603 93643,40601 93643,40598 93642,40595 93641,40592 93641,40589 93628,40507 93575,40581 93574,40584 93572,40586 93570,40590 93569,40593 93567,40595 93566,40598 93564,40601 93563,40604 93561,40607 93560,40610 93559,40613 93558,40616 93557,40619 93556,40622 93555,40625 93554,40628 93517,40781 93516,40782 93516,40784 93515,40786 93514,40788 93513,40789 93513,40791 93512,40793 93511,40794 93509,40796 93508,40797 93507,40798 93505,40800 93504,40801 93502,40802 93501,40803 93499,40804 93498,40805 93496,40806 93494,40807 93493,40807 93491,40808 93489,40809 93487,40809 93485,40809 93483,40809 93482,40810 93480,40810 93478,40810 93476,40809 93474,40809 93472,40809 93470,40809 93468,40808 93466,40808 93465,40807 93463,40806 93461,40805 93460,40804 93458,40803 93457,40802 93455,40801 93453,40800 93452,40799 93451,40797 93450,40796 93448,40795 93447,40793 93446,40791 93445,40790 93445,40788 93444,40786 93443,40784 93442,40783 93442,40781 93441,40779 93441,40777 93441,40775 93441,40774 93441,40772 93441,40770 93441,40768 93441,40766 93441,40764 93442,40762 93448,40738 93453,40715 93459,40691 93464,40667 Z"/>
   </g>
  </g>
 </g>
</svg>