<?xml version="1.0" encoding="UTF-8"?>
<!DOCTYPE svg PUBLIC "-//W3C//DTD SVG 1.1//EN" "http://www.w3.org/Graphics/SVG/1.1/DTD/svg11.dtd">
<svg version="1.2" width="24.93mm" height="25.03mm" viewBox="87954 39999 2493 2503" preserveAspectRatio="xMidYMid" fill-rule="evenodd" stroke-width="28.222" stroke-linejoin="round" xmlns="http://www.w3.org/2000/svg" xmlns:ooo="http://xml.openoffice.org/svg/export" xmlns:xlink="http://www.w3.org/1999/xlink" xmlns:presentation="http://sun.com/xmlns/staroffice/presentation" xmlns:smil="http://www.w3.org/2001/SMIL20/" xmlns:anim="urn:oasis:names:tc:opendocument:xmlns:animation:1.0" xml:space="preserve">
 <defs class="EmbeddedBulletChars">
  <g id="bullet-char-template-57356" transform="scale(0.00048828125,-0.00048828125)">
   <path d="M 580,1141 L 1163,571 580,0 -4,571 580,1141 Z"/>
  </g>
  <g id="bullet-char-template-57354" transform="scale(0.00048828125,-0.00048828125)">
   <path d="M 8,1128 L 1137,1128 1137,0 8,0 8,1128 Z"/>
  </g>
  <g id="bullet-char-template-10146" transform="scale(0.00048828125,-0.00048828125)">
   <path d="M 174,0 L 602,739 174,1481 1456,739 174,0 Z M 1358,739 L 309,1346 659,739 1358,739 Z"/>
  </g>
  <g id="bullet-char-template-10132" transform="scale(0.00048828125,-0.00048828125)">
   <path d="M 2015,739 L 1276,0 717,0 1260,543 174,543 174,936 1260,936 717,1481 1274,1481 2015,739 Z"/>
  </g>
  <g id="bullet-char-template-10007" transform="scale(0.00048828125,-0.00048828125)">
   <path d="M 0,-2 C -7,14 -16,27 -25,37 L 356,567 C 262,823 215,952 215,954 215,979 228,992 255,992 264,992 276,990 289,987 310,991 331,999 354,1012 L 381,999 492,748 772,1049 836,1024 860,1049 C 881,1039 901,1025 922,1006 886,937 835,863 770,784 769,783 710,716 594,584 L 774,223 C 774,196 753,168 711,139 L 727,119 C 717,90 699,76 672,76 641,76 570,178 457,381 L 164,-76 C 142,-110 111,-127 72,-127 30,-127 9,-110 8,-76 1,-67 -2,-52 -2,-32 -2,-23 -1,-13 0,-2 Z"/>
  </g>
  <g id="bullet-char-template-10004" transform="scale(0.00048828125,-0.00048828125)">
   <path d="M 285,-33 C 182,-33 111,30 74,156 52,228 41,333 41,471 41,549 55,616 82,672 116,743 169,778 240,778 293,778 328,747 346,684 L 369,508 C 377,444 397,411 428,410 L 1163,1116 C 1174,1127 1196,1133 1229,1133 1271,1133 1292,1118 1292,1087 L 1292,965 C 1292,929 1282,901 1262,881 L 442,47 C 390,-6 338,-33 285,-33 Z"/>
  </g>
  <g id="bullet-char-template-9679" transform="scale(0.00048828125,-0.00048828125)">
   <path d="M 813,0 C 632,0 489,54 383,161 276,268 223,411 223,592 223,773 276,916 383,1023 489,1130 632,1184 813,1184 992,1184 1136,1130 1245,1023 1353,916 1407,772 1407,592 1407,412 1353,268 1245,161 1136,54 992,0 813,0 Z"/>
  </g>
  <g id="bullet-char-template-8226" transform="scale(0.00048828125,-0.00048828125)">
   <path d="M 346,457 C 273,457 209,483 155,535 101,586 74,649 74,723 74,796 101,859 155,911 209,963 273,989 346,989 419,989 480,963 531,910 582,859 608,796 608,723 608,648 583,586 532,535 482,483 420,457 346,457 Z"/>
  </g>
  <g id="bullet-char-template-8211" transform="scale(0.00048828125,-0.00048828125)">
   <path d="M -4,459 L 1135,459 1135,606 -4,606 -4,459 Z"/>
  </g>
  <g id="bullet-char-template-61548" transform="scale(0.00048828125,-0.00048828125)">
   <path d="M 173,740 C 173,903 231,1043 346,1159 462,1274 601,1332 765,1332 928,1332 1067,1274 1183,1159 1299,1043 1357,903 1357,740 1357,577 1299,437 1183,322 1067,206 928,148 765,148 601,148 462,206 346,322 231,437 173,577 173,740 Z"/>
  </g>
 </defs>
 <g class="Page">
  <g class="com.sun.star.drawing.PolyPolygonShape">
   <g id="id3">
    <rect class="BoundingBox" stroke="none" fill="none" x="87954" y="39999" width="2493" height="2503"/>
    <path fill="rgb(0,255,0)" stroke="none" d="M 90265,42500 L 88135,42500 88118,42499 88100,42497 88083,42493 88066,42487 88050,42479 88035,42470 88021,42460 88008,42448 87996,42434 87986,42420 87977,42405 87969,42389 87963,42372 87959,42355 87956,42338 87955,42320 87955,40180 87956,40162 87959,40145 87963,40128 87969,40111 87977,40095 87986,40080 87996,40066 88008,40052 88021,40040 88035,40030 88050,40021 88066,40013 88083,40007 88100,40003 88118,40000 88135,40000 90265,40000 90282,40000 90300,40003 90317,40007 90334,40013 90350,40021 90365,40030 90379,40040 90392,40052 90404,40066 90414,40080 90423,40095 90431,40111 90437,40128 90441,40145 90444,40162 90445,40180 90445,42320 90444,42338 90441,42355 90437,42372 90431,42389 90423,42405 90414,42420 90404,42434 90392,42448 90379,42460 90365,42470 90350,42479 90334,42487 90317,42493 90300,42497 90282,42499 90265,42500 Z"/>
    <path fill="none" stroke="rgb(0,255,0)" d="M 90265,42500 L 88135,42500 88118,42499 88100,42497 88083,42493 88066,42487 88050,42479 88035,42470 88021,42460 88008,42448 87996,42434 87986,42420 87977,42405 87969,42389 87963,42372 87959,42355 87956,42338 87955,42320 87955,40180 87956,40162 87959,40145 87963,40128 87969,40111 87977,40095 87986,40080 87996,40066 88008,40052 88021,40040 88035,40030 88050,40021 88066,40013 88083,40007 88100,40003 88118,40000 88135,40000 90265,40000 90282,40000 90300,40003 90317,40007 90334,40013 90350,40021 90365,40030 90379,40040 90392,40052 90404,40066 90414,40080 90423,40095 90431,40111 90437,40128 90441,40145 90444,40162 90445,40180 90445,42320 90444,42338 90441,42355 90437,42372 90431,42389 90423,42405 90414,42420 90404,42434 90392,42448 90379,42460 90365,42470 90350,42479 90334,42487 90317,42493 90300,42497 90282,42499 90265,42500 Z"/>
   </g>
  </g>
  <g class="com.sun.star.drawing.PolyPolygonShape">
   <g id="id4">
    <rect class="BoundingBox" stroke="none" fill="none" x="87996" y="40040" width="2409" height="2421"/>
    <path fill="rgb(255,255,255)" stroke="none" d="M 90265,42459 L 88135,42459 88122,42458 88108,42456 88095,42453 88082,42448 88070,42442 88058,42435 88048,42427 88037,42418 88028,42408 88020,42397 88013,42385 88007,42373 88003,42360 88000,42347 87998,42333 87997,42320 87997,40180 87998,40166 88000,40153 88003,40140 88007,40127 88013,40115 88020,40103 88028,40092 88037,40082 88048,40073 88058,40065 88070,40058 88082,40052 88095,40047 88108,40044 88122,40042 88135,40041 90265,40041 90278,40042 90292,40044 90305,40047 90318,40052 90330,40058 90342,40065 90353,40073 90363,40082 90372,40092 90380,40103 90387,40115 90393,40127 90397,40140 90401,40153 90402,40166 90403,40180 90403,42320 90402,42333 90401,42347 90397,42360 90393,42373 90387,42385 90380,42397 90372,42408 90363,42418 90353,42427 90342,42435 90330,42442 90318,42448 90305,42453 90292,42456 90278,42458 90265,42459 Z"/>
    <path fill="none" stroke="rgb(255,255,255)" d="M 90265,42459 L 88135,42459 88122,42458 88108,42456 88095,42453 88082,42448 88070,42442 88058,42435 88048,42427 88037,42418 88028,42408 88020,42397 88013,42385 88007,42373 88003,42360 88000,42347 87998,42333 87997,42320 87997,40180 87998,40166 88000,40153 88003,40140 88007,40127 88013,40115 88020,40103 88028,40092 88037,40082 88048,40073 88058,40065 88070,40058 88082,40052 88095,40047 88108,40044 88122,40042 88135,40041 90265,40041 90278,40042 90292,40044 90305,40047 90318,40052 90330,40058 90342,40065 90353,40073 90363,40082 90372,40092 90380,40103 90387,40115 90393,40127 90397,40140 90401,40153 90402,40166 90403,40180 90403,42320 90402,42333 90401,42347 90397,42360 90393,42373 90387,42385 90380,42397 90372,42408 90363,42418 90353,42427 90342,42435 90330,42442 90318,42448 90305,42453 90292,42456 90278,42458 90265,42459 Z"/>
   </g>
  </g>
  <g class="com.sun.star.drawing.PolyPolygonShape">
   <g id="id5">
    <rect class="BoundingBox" stroke="none" fill="none" x="88037" y="40082" width="2327" height="2337"/>
    <path fill="rgb(0,255,0)" stroke="none" d="M 90265,42417 L 88135,42417 88126,42417 88116,42415 88107,42413 88098,42410 88090,42406 88082,42401 88074,42395 88067,42389 88060,42381 88055,42374 88050,42366 88046,42357 88043,42348 88040,42339 88039,42329 88038,42320 88038,40180 88039,40171 88040,40161 88043,40152 88046,40143 88050,40134 88055,40126 88060,40118 88067,40111 88074,40105 88082,40099 88090,40094 88098,40090 88107,40087 88116,40085 88126,40083 88135,40083 90265,40083 90274,40083 90284,40085 90293,40087 90302,40090 90311,40094 90319,40099 90326,40105 90333,40111 90340,40118 90345,40126 90350,40134 90354,40143 90357,40152 90360,40161 90361,40171 90362,40180 90362,42320 90361,42329 90360,42339 90357,42348 90354,42357 90350,42366 90345,42374 90340,42381 90333,42389 90326,42395 90319,42401 90311,42406 90302,42410 90293,42413 90284,42415 90274,42417 90265,42417 Z"/>
    <path fill="none" stroke="rgb(0,255,0)" d="M 90265,42417 L 88135,42417 88126,42417 88116,42415 88107,42413 88098,42410 88090,42406 88082,42401 88074,42395 88067,42389 88060,42381 88055,42374 88050,42366 88046,42357 88043,42348 88040,42339 88039,42329 88038,42320 88038,40180 88039,40171 88040,40161 88043,40152 88046,40143 88050,40134 88055,40126 88060,40118 88067,40111 88074,40105 88082,40099 88090,40094 88098,40090 88107,40087 88116,40085 88126,40083 88135,40083 90265,40083 90274,40083 90284,40085 90293,40087 90302,40090 90311,40094 90319,40099 90326,40105 90333,40111 90340,40118 90345,40126 90350,40134 90354,40143 90357,40152 90360,40161 90361,40171 90362,40180 90362,42320 90361,42329 90360,42339 90357,42348 90354,42357 90350,42366 90345,42374 90340,42381 90333,42389 90326,42395 90319,42401 90311,42406 90302,42410 90293,42413 90284,42415 90274,42417 90265,42417 Z"/>
   </g>
  </g>
  <g class="com.sun.star.drawing.PolyPolygonShape">
   <g id="id6">
    <rect class="BoundingBox" stroke="none" fill="none" x="89625" y="40320" width="608" height="1861"/>
    <path fill="rgb(255,255,255)" stroke="none" d="M 89626,40321 L 90231,40321 90231,42179 89626,42179 89626,40321 Z"/>
    <path fill="none" stroke="rgb(255,255,255)" d="M 89626,40321 L 90231,40321 90231,42179 89626,42179 89626,40321 Z"/>
   </g>
  </g>
  <g class="com.sun.star.drawing.PolyPolygonShape">
   <g id="id7">
    <rect class="BoundingBox" stroke="none" fill="none" x="88885" y="40356" width="308" height="309"/>
    <path fill="rgb(255,255,255)" stroke="none" d="M 88886,40511 L 88887,40496 88889,40481 88892,40466 88897,40452 88904,40439 88912,40426 88921,40414 88931,40402 88942,40391 88954,40382 88967,40375 88981,40368 88995,40363 89009,40360 89024,40357 89039,40357 89054,40357 89069,40360 89083,40363 89097,40368 89111,40375 89124,40382 89136,40391 89147,40402 89157,40414 89165,40426 89173,40439 89180,40452 89185,40466 89188,40481 89190,40496 89191,40511 89190,40526 89188,40540 89185,40555 89180,40569 89173,40583 89165,40595 89157,40608 89147,40619 89136,40629 89124,40638 89111,40645 89097,40652 89083,40657 89069,40661 89054,40663 89039,40663 89024,40663 89009,40661 88995,40657 88981,40652 88967,40645 88954,40638 88942,40629 88931,40619 88921,40608 88912,40595 88904,40583 88897,40569 88892,40555 88889,40540 88887,40526 88886,40511 Z"/>
    <path fill="none" stroke="rgb(255,255,255)" d="M 88886,40511 L 88887,40496 88889,40481 88892,40466 88897,40452 88904,40439 88912,40426 88921,40414 88931,40402 88942,40391 88954,40382 88967,40375 88981,40368 88995,40363 89009,40360 89024,40357 89039,40357 89054,40357 89069,40360 89083,40363 89097,40368 89111,40375 89124,40382 89136,40391 89147,40402 89157,40414 89165,40426 89173,40439 89180,40452 89185,40466 89188,40481 89190,40496 89191,40511 89190,40526 89188,40540 89185,40555 89180,40569 89173,40583 89165,40595 89157,40608 89147,40619 89136,40629 89124,40638 89111,40645 89097,40652 89083,40657 89069,40661 89054,40663 89039,40663 89024,40663 89009,40661 88995,40657 88981,40652 88967,40645 88954,40638 88942,40629 88931,40619 88921,40608 88912,40595 88904,40583 88897,40569 88892,40555 88889,40540 88887,40526 88886,40511 Z"/>
   </g>
  </g>
  <g class="com.sun.star.drawing.PolyPolygonShape">
   <g id="id8">
    <rect class="BoundingBox" stroke="none" fill="none" x="88152" y="40690" width="1394" height="1455"/>
    <path fill="rgb(255,255,255)" stroke="none" d="M 89143,41788 L 89132,41748 89121,41707 89108,41668 89095,41628 89082,41589 89067,41550 89052,41511 89035,41472 89020,41439 89004,41406 88988,41373 88970,41340 88952,41308 88932,41276 88912,41246 88891,41215 89028,41033 89189,41214 89457,41214 89465,41213 89474,41212 89482,41210 89490,41207 89498,41203 89505,41199 89512,41194 89518,41188 89524,41181 89529,41175 89534,41167 89537,41159 89540,41151 89542,41143 89543,41135 89544,41126 89543,41117 89542,41109 89540,41101 89537,41092 89534,41085 89529,41077 89524,41070 89518,41064 89512,41058 89505,41053 89498,41049 89490,41045 89482,41042 89474,41040 89465,41039 89457,41038 89272,41038 88991,40732 88983,40725 88975,40717 88966,40711 88956,40705 88947,40701 88936,40697 88926,40694 88915,40691 88609,40691 88593,40692 88578,40693 88563,40695 88548,40698 88534,40702 88519,40707 88505,40712 88492,40719 88478,40726 88465,40734 88453,40743 88441,40752 88429,40762 88418,40772 88408,40784 88398,40796 88298,40927 88293,40934 88289,40942 88285,40950 88283,40959 88281,40967 88280,40976 88280,40985 88280,40994 88282,41002 88284,41011 88287,41019 88292,41027 88296,41034 88302,41041 88308,41047 88314,41053 88322,41058 88329,41062 88337,41066 88346,41068 88354,41070 88363,41071 88372,41072 88381,41071 88389,41069 88398,41067 88406,41064 88414,41060 88421,41055 88428,41049 88434,41043 88440,41036 88560,40880 88568,40870 88576,40862 88586,40855 88597,40849 88608,40844 88620,40841 88632,40839 88644,40838 88697,40838 88610,41042 88603,41061 88595,41081 88589,41101 88583,41121 88578,41141 88573,41161 88569,41181 88566,41202 88536,41502 88534,41513 88530,41524 88524,41534 88516,41543 88507,41550 88497,41555 88485,41558 88474,41559 88243,41559 88234,41560 88225,41561 88217,41563 88209,41566 88200,41570 88192,41574 88185,41579 88179,41585 88173,41592 88168,41599 88163,41606 88160,41614 88157,41622 88155,41631 88153,41639 88153,41648 88153,41657 88155,41665 88157,41674 88160,41682 88163,41690 88168,41698 88173,41705 88179,41711 88185,41717 88192,41722 88200,41727 88209,41730 88217,41733 88225,41736 88234,41737 88243,41737 88546,41737 88561,41736 88575,41735 88590,41731 88604,41727 88617,41721 88630,41714 88643,41706 88654,41697 88665,41687 88675,41676 88683,41664 88691,41651 88698,41638 88703,41624 88707,41610 88710,41595 88740,41394 88870,41578 88879,41591 88887,41605 88894,41618 88901,41632 88907,41647 88913,41662 88918,41677 88922,41692 89014,42071 89016,42080 89020,42088 89024,42097 89030,42104 89035,42112 89042,42118 89049,42124 89057,42129 89065,42134 89073,42137 89082,42140 89092,42142 89101,42143 89110,42143 89119,42142 89128,42141 89137,42138 89146,42134 89154,42130 89162,42125 89169,42119 89176,42112 89182,42105 89187,42097 89191,42089 89195,42081 89198,42072 89200,42063 89201,42053 89201,42044 89200,42035 89198,42025 89170,41907 89143,41788 Z"/>
    <path fill="none" stroke="rgb(255,255,255)" d="M 89143,41788 L 89132,41748 89121,41707 89108,41668 89095,41628 89082,41589 89067,41550 89052,41511 89035,41472 89020,41439 89004,41406 88988,41373 88970,41340 88952,41308 88932,41276 88912,41246 88891,41215 89028,41033 89189,41214 89457,41214 89465,41213 89474,41212 89482,41210 89490,41207 89498,41203 89505,41199 89512,41194 89518,41188 89524,41181 89529,41175 89534,41167 89537,41159 89540,41151 89542,41143 89543,41135 89544,41126 89543,41117 89542,41109 89540,41101 89537,41092 89534,41085 89529,41077 89524,41070 89518,41064 89512,41058 89505,41053 89498,41049 89490,41045 89482,41042 89474,41040 89465,41039 89457,41038 89272,41038 88991,40732 88983,40725 88975,40717 88966,40711 88956,40705 88947,40701 88936,40697 88926,40694 88915,40691 88609,40691 88593,40692 88578,40693 88563,40695 88548,40698 88534,40702 88519,40707 88505,40712 88492,40719 88478,40726 88465,40734 88453,40743 88441,40752 88429,40762 88418,40772 88408,40784 88398,40796 88298,40927 88293,40934 88289,40942 88285,40950 88283,40959 88281,40967 88280,40976 88280,40985 88280,40994 88282,41002 88284,41011 88287,41019 88292,41027 88296,41034 88302,41041 88308,41047 88314,41053 88322,41058 88329,41062 88337,41066 88346,41068 88354,41070 88363,41071 88372,41072 88381,41071 88389,41069 88398,41067 88406,41064 88414,41060 88421,41055 88428,41049 88434,41043 88440,41036 88560,40880 88568,40870 88576,40862 88586,40855 88597,40849 88608,40844 88620,40841 88632,40839 88644,40838 88697,40838 88610,41042 88603,41061 88595,41081 88589,41101 88583,41121 88578,41141 88573,41161 88569,41181 88566,41202 88536,41502 88534,41513 88530,41524 88524,41534 88516,41543 88507,41550 88497,41555 88485,41558 88474,41559 88243,41559 88234,41560 88225,41561 88217,41563 88209,41566 88200,41570 88192,41574 88185,41579 88179,41585 88173,41592 88168,41599 88163,41606 88160,41614 88157,41622 88155,41631 88153,41639 88153,41648 88153,41657 88155,41665 88157,41674 88160,41682 88163,41690 88168,41698 88173,41705 88179,41711 88185,41717 88192,41722 88200,41727 88209,41730 88217,41733 88225,41736 88234,41737 88243,41737 88546,41737 88561,41736 88575,41735 88590,41731 88604,41727 88617,41721 88630,41714 88643,41706 88654,41697 88665,41687 88675,41676 88683,41664 88691,41651 88698,41638 88703,41624 88707,41610 88710,41595 88740,41394 88870,41578 88879,41591 88887,41605 88894,41618 88901,41632 88907,41647 88913,41662 88918,41677 88922,41692 89014,42071 89016,42080 89020,42088 89024,42097 89030,42104 89035,42112 89042,42118 89049,42124 89057,42129 89065,42134 89073,42137 89082,42140 89092,42142 89101,42143 89110,42143 89119,42142 89128,42141 89137,42138 89146,42134 89154,42130 89162,42125 89169,42119 89176,42112 89182,42105 89187,42097 89191,42089 89195,42081 89198,42072 89200,42063 89201,42053 89201,42044 89200,42035 89198,42025 89170,41907 89143,41788 Z"/>
   </g>
  </g>
  <g class="com.sun.star.drawing.PolyPolygonShape">
   <g id="id9">
    <rect class="BoundingBox" stroke="none" fill="none" x="88152" y="40690" width="1394" height="1455"/>
    <path fill="rgb(255,255,255)" stroke="none" d="M 89143,41788 L 89132,41748 89121,41707 89108,41668 89095,41628 89082,41589 89067,41550 89052,41511 89035,41472 89020,41439 89004,41406 88988,41373 88970,41340 88952,41308 88932,41276 88912,41246 88891,41215 89028,41033 89189,41214 89457,41214 89465,41213 89474,41212 89482,41210 89490,41207 89498,41203 89505,41199 89512,41194 89518,41188 89524,41181 89529,41175 89534,41167 89537,41159 89540,41151 89542,41143 89543,41135 89544,41126 89543,41117 89542,41109 89540,41101 89537,41092 89534,41085 89529,41077 89524,41070 89518,41064 89512,41058 89505,41053 89498,41049 89490,41045 89482,41042 89474,41040 89465,41039 89457,41038 89272,41038 88991,40732 88983,40725 88975,40717 88966,40711 88956,40705 88947,40701 88936,40697 88926,40694 88915,40691 88609,40691 88593,40692 88578,40693 88563,40695 88548,40698 88534,40702 88519,40707 88505,40712 88492,40719 88478,40726 88465,40734 88453,40743 88441,40752 88429,40762 88418,40772 88408,40784 88398,40796 88298,40927 88293,40934 88289,40942 88285,40950 88283,40959 88281,40967 88280,40976 88280,40985 88280,40994 88282,41002 88284,41011 88287,41019 88292,41027 88296,41034 88302,41041 88308,41047 88314,41053 88322,41058 88329,41062 88337,41066 88346,41068 88354,41070 88363,41071 88372,41072 88381,41071 88389,41069 88398,41067 88406,41064 88414,41060 88421,41055 88428,41049 88434,41043 88440,41036 88560,40880 88568,40870 88576,40862 88586,40855 88597,40849 88608,40844 88620,40841 88632,40839 88644,40838 88697,40838 88610,41042 88603,41061 88595,41081 88589,41101 88583,41121 88578,41141 88573,41161 88569,41181 88566,41202 88536,41502 88534,41513 88530,41524 88524,41534 88516,41543 88507,41550 88497,41555 88485,41558 88474,41559 88243,41559 88234,41560 88225,41561 88217,41563 88209,41566 88200,41570 88192,41574 88185,41579 88179,41585 88173,41592 88168,41599 88163,41606 88160,41614 88157,41622 88155,41631 88153,41639 88153,41648 88153,41657 88155,41665 88157,41674 88160,41682 88163,41690 88168,41698 88173,41705 88179,41711 88185,41717 88192,41722 88200,41727 88209,41730 88217,41733 88225,41736 88234,41737 88243,41737 88546,41737 88561,41736 88575,41735 88590,41731 88604,41727 88617,41721 88630,41714 88643,41706 88654,41697 88665,41687 88675,41676 88683,41664 88691,41651 88698,41638 88703,41624 88707,41610 88710,41595 88740,41394 88870,41578 88879,41591 88887,41605 88894,41618 88901,41632 88907,41647 88913,41662 88918,41677 88922,41692 89014,42071 89016,42080 89020,42088 89024,42097 89030,42104 89035,42112 89042,42118 89049,42124 89057,42129 89065,42134 89073,42137 89082,42140 89092,42142 89101,42143 89110,42143 89119,42142 89128,42141 89137,42138 89146,42134 89154,42130 89162,42125 89169,42119 89176,42112 89182,42105 89187,42097 89191,42089 89195,42081 89198,42072 89200,42063 89201,42053 89201,42044 89200,42035 89198,42025 89170,41907 89143,41788 Z"/>
    <path fill="none" stroke="rgb(255,255,255)" d="M 89143,41788 L 89132,41748 89121,41707 89108,41668 89095,41628 89082,41589 89067,41550 89052,41511 89035,41472 89020,41439 89004,41406 88988,41373 88970,41340 88952,41308 88932,41276 88912,41246 88891,41215 89028,41033 89189,41214 89457,41214 89465,41213 89474,41212 89482,41210 89490,41207 89498,41203 89505,41199 89512,41194 89518,41188 89524,41181 89529,41175 89534,41167 89537,41159 89540,41151 89542,41143 89543,41135 89544,41126 89543,41117 89542,41109 89540,41101 89537,41092 89534,41085 89529,41077 89524,41070 89518,41064 89512,41058 89505,41053 89498,41049 89490,41045 89482,41042 89474,41040 89465,41039 89457,41038 89272,41038 88991,40732 88983,40725 88975,40717 88966,40711 88956,40705 88947,40701 88936,40697 88926,40694 88915,40691 88609,40691 88593,40692 88578,40693 88563,40695 88548,40698 88534,40702 88519,40707 88505,40712 88492,40719 88478,40726 88465,40734 88453,40743 88441,40752 88429,40762 88418,40772 88408,40784 88398,40796 88298,40927 88293,40934 88289,40942 88285,40950 88283,40959 88281,40967 88280,40976 88280,40985 88280,40994 88282,41002 88284,41011 88287,41019 88292,41027 88296,41034 88302,41041 88308,41047 88314,41053 88322,41058 88329,41062 88337,41066 88346,41068 88354,41070 88363,41071 88372,41072 88381,41071 88389,41069 88398,41067 88406,41064 88414,41060 88421,41055 88428,41049 88434,41043 88440,41036 88560,40880 88568,40870 88576,40862 88586,40855 88597,40849 88608,40844 88620,40841 88632,40839 88644,40838 88697,40838 88610,41042 88603,41061 88595,41081 88589,41101 88583,41121 88578,41141 88573,41161 88569,41181 88566,41202 88536,41502 88534,41513 88530,41524 88524,41534 88516,41543 88507,41550 88497,41555 88485,41558 88474,41559 88243,41559 88234,41560 88225,41561 88217,41563 88209,41566 88200,41570 88192,41574 88185,41579 88179,41585 88173,41592 88168,41599 88163,41606 88160,41614 88157,41622 88155,41631 88153,41639 88153,41648 88153,41657 88155,41665 88157,41674 88160,41682 88163,41690 88168,41698 88173,41705 88179,41711 88185,41717 88192,41722 88200,41727 88209,41730 88217,41733 88225,41736 88234,41737 88243,41737 88546,41737 88561,41736 88575,41735 88590,41731 88604,41727 88617,41721 88630,41714 88643,41706 88654,41697 88665,41687 88675,41676 88683,41664 88691,41651 88698,41638 88703,41624 88707,41610 88710,41595 88740,41394 88870,41578 88879,41591 88887,41605 88894,41618 88901,41632 88907,41647 88913,41662 88918,41677 88922,41692 89014,42071 89016,42080 89020,42088 89024,42097 89030,42104 89035,42112 89042,42118 89049,42124 89057,42129 89065,42134 89073,42137 89082,42140 89092,42142 89101,42143 89110,42143 89119,42142 89128,42141 89137,42138 89146,42134 89154,42130 89162,42125 89169,42119 89176,42112 89182,42105 89187,42097 89191,42089 89195,42081 89198,42072 89200,42063 89201,42053 89201,42044 89200,42035 89198,42025 89170,41907 89143,41788 Z"/>
   </g>
  </g>
 </g>
</svg>