<?xml version="1.0" encoding="UTF-8" standalone="no"?>
<!-- Created with Inkscape (http://www.inkscape.org/) -->

<svg
   xmlns:dc="http://purl.org/dc/elements/1.1/"
   xmlns:cc="http://creativecommons.org/ns#"
   xmlns:rdf="http://www.w3.org/1999/02/22-rdf-syntax-ns#"
   xmlns:svg="http://www.w3.org/2000/svg"
   xmlns="http://www.w3.org/2000/svg"
   xmlns:sodipodi="http://sodipodi.sourceforge.net/DTD/sodipodi-0.dtd"
   xmlns:inkscape="http://www.inkscape.org/namespaces/inkscape"
   width="136.27214"
   height="45.169571"
   id="svg3304"
   version="1.1"
   inkscape:version="0.47 r22583"
   sodipodi:docname="Belgian road sign F52a.svg">
  <defs
     id="defs3306">
    <inkscape:perspective
       sodipodi:type="inkscape:persp3d"
       inkscape:vp_x="0 : 526.18109 : 1"
       inkscape:vp_y="0 : 1000 : 0"
       inkscape:vp_z="744.09448 : 526.18109 : 1"
       inkscape:persp3d-origin="372.04724 : 350.78739 : 1"
       id="perspective3312" />
    <inkscape:perspective
       id="perspective3322"
       inkscape:persp3d-origin="0.5 : 0.33333333 : 1"
       inkscape:vp_z="1 : 0.5 : 1"
       inkscape:vp_y="0 : 1000 : 0"
       inkscape:vp_x="0 : 0.5 : 1"
       sodipodi:type="inkscape:persp3d" />
    <clipPath
       clipPathUnits="userSpaceOnUse"
       id="clipPath2942">
      <path
         d="m 731,5156.67 564,0 0,-841 -564,0"
         id="path2944" />
    </clipPath>
    <inkscape:perspective
       id="perspective3521"
       inkscape:persp3d-origin="34.303001 : 34.112999 : 1"
       inkscape:vp_z="68.606003 : 51.169498 : 1"
       inkscape:vp_y="0 : 1000 : 0"
       inkscape:vp_x="0 : 51.169498 : 1"
       sodipodi:type="inkscape:persp3d" />
    <inkscape:perspective
       id="perspective3678"
       inkscape:persp3d-origin="0.5 : 0.33333333 : 1"
       inkscape:vp_z="1 : 0.5 : 1"
       inkscape:vp_y="0 : 1000 : 0"
       inkscape:vp_x="0 : 0.5 : 1"
       sodipodi:type="inkscape:persp3d" />
    <inkscape:perspective
       id="perspective3774"
       inkscape:persp3d-origin="0.5 : 0.33333333 : 1"
       inkscape:vp_z="1 : 0.5 : 1"
       inkscape:vp_y="0 : 1000 : 0"
       inkscape:vp_x="0 : 0.5 : 1"
       sodipodi:type="inkscape:persp3d" />
  </defs>
  <sodipodi:namedview
     id="base"
     pagecolor="#ffffff"
     bordercolor="#666666"
     borderopacity="1.0"
     inkscape:pageopacity="0.0"
     inkscape:pageshadow="2"
     inkscape:zoom="3.3414062"
     inkscape:cx="125.08379"
     inkscape:cy="35.02237"
     inkscape:document-units="px"
     inkscape:current-layer="layer1"
     showgrid="false"
     inkscape:window-width="1600"
     inkscape:window-height="838"
     inkscape:window-x="-8"
     inkscape:window-y="-8"
     inkscape:window-maximized="1" />
  <metadata
     id="metadata3309">
    <rdf:RDF>
      <cc:Work
         rdf:about="">
        <dc:format>image/svg+xml</dc:format>
        <dc:type
           rdf:resource="http://purl.org/dc/dcmitype/StillImage" />
        <dc:title></dc:title>
      </cc:Work>
    </rdf:RDF>
  </metadata>
  <g
     inkscape:label="Livello 1"
     inkscape:groupmode="layer"
     id="layer1"
     transform="translate(-61.01927,-650.41675)">


























<path
   id="path3106"
   style="fill:#00ff00;fill-opacity:1;fill-rule:evenodd;stroke:none"
   d="m 61.09427,690.04284 0,-34.71848 0.254434,-0.89022 1.144952,-1.90761 0.890519,-0.76304 0.890519,-0.76304 1.272169,-0.38153 1.27217,-0.12717 124.927047,0 2.03547,0.38152 1.65382,1.14457 1.27217,1.90761 0.25443,1.27174 0.25444,1.27173 0,33.31957 -0.25444,1.39892 -0.38165,1.14456 -1.5266,1.78044 -1.78104,1.01739 -1.65382,0.38152 -124.927044,0 -1.27217,-0.12717 -1.144952,-0.38153 -0.890519,-0.50869 -0.890519,-0.76304 -1.017735,-1.78044 -0.381651,-1.90761" />
<path
   id="path3108"
   style="fill:none;stroke:#00ff00;stroke-width:0.14999999;stroke-linecap:butt;stroke-linejoin:miter;stroke-miterlimit:10;stroke-opacity:1;stroke-dasharray:none"
   d="m 61.09427,690.04284 0,-34.71848 0.254434,-0.89022 1.144952,-1.90761 0.890519,-0.76304 0.890519,-0.76305 1.272169,-0.38152 1.27217,-0.12717 124.927047,0 2.03547,0.38152 1.65382,1.14457 1.27217,1.9076 0.25443,1.27174 0.25444,1.27174 0,33.31957 -0.25444,1.39892 -0.38165,1.14456 -1.5266,1.78044 -1.78104,1.01739 -1.65382,0.38152 -124.927044,0 -1.27217,-0.12718 -1.144952,-0.38152 -0.890519,-0.50869 -0.890519,-0.76305 -1.017735,-1.78043 -0.381651,-1.90761 z" />
<path
   id="path3110"
   style="fill:#ffffff;fill-opacity:1;fill-rule:evenodd;stroke:none"
   d="m 81.576199,662.4461 1.27217,-0.25435 1.017735,-0.63587 0.636085,-1.01739 0.254434,-1.27174 -0.254434,-1.27174 -0.636085,-1.01739 -1.017735,-0.76304 -1.27217,-0.25435 -1.272169,0.25435 -1.017736,0.76304 -0.763302,1.01739 -0.254433,1.27174 0.254433,1.27174 0.763302,1.01739 1.017736,0.63587 1.272169,0.25435" />
<path
   id="path3112"
   style="fill:#ffffff;fill-opacity:1;fill-rule:nonzero;stroke:none"
   d="m 81.448982,662.82762 -11.195091,0 -2.92599,5.08696 -0.127217,0.63587 0.127217,0.76304 0.763301,0.76304 1.144953,0.25435 0.508868,-0.25435 0.381651,-0.50869 1.781037,-3.56087 3.307641,0 -2.035472,4.57826 -0.38165,1.27174 -1.017736,7.63044 -5.979197,0 -0.636085,0.25434 -0.508867,0.38152 -0.127217,1.14457 0.381651,1.01739 0.508867,0.38152 7.505801,0 0.763301,-0.25434 0.763302,-0.5087 1.017736,-1.78044 1.144952,-4.45108 3.053207,5.59565 2.035471,7.37609 0.127217,0.50869 0.381651,0.5087 0.381651,0.38152 1.144952,0 0.890519,-0.63587 0.254434,-0.50869 0,-0.38153 -1.65382,-7.75761 -0.127217,-0.76304 -0.381651,-0.63587 -3.562075,-7.12174 2.544339,-4.32391 2.92599,2.925 0.636085,0.50869 1.017736,0.38153 2.925989,0.12717 0.763302,-0.25435 0.508868,-0.25435 0.381651,-1.27174 -0.381651,-1.01739 -0.508868,-0.50869 -0.763302,-0.12718 -2.925989,0 -4.834245,-5.59565" />
<path
   id="path3114"
   style="fill:none;stroke:#ffffff;stroke-width:0.14999999;stroke-linecap:butt;stroke-linejoin:miter;stroke-miterlimit:10;stroke-opacity:1;stroke-dasharray:none"
   d="m 81.448982,662.82762 -11.195092,0 -2.92599,5.08696 -0.127217,0.63587 0.127217,0.76304 0.763302,0.76304 1.144953,0.25435 0.508868,-0.25435 0.38165,-0.50869 1.781038,-3.56087 3.30764,0 -2.035471,4.57826 -0.381651,1.27174 -1.017735,7.63043 -5.979197,0 -0.636085,0.25435 -0.508868,0.38152 -0.127216,1.14457 0.38165,1.01739 0.508868,0.38152 7.5058,0 0.763302,-0.25435 0.763302,-0.50869 1.017735,-1.78044 1.144953,-4.45108 3.053207,5.59565 2.035471,7.37609 0.127217,0.50869 0.381651,0.5087 0.381651,0.38152 1.144952,0 0.890519,-0.63587 0.254434,-0.5087 0,-0.38152 -1.653821,-7.75761 -0.127217,-0.76304 -0.38165,-0.63587 -3.562075,-7.12174 2.544339,-4.32391 2.92599,2.925 0.636085,0.50869 1.017735,0.38152 2.92599,0.12718 0.763302,-0.25435 0.508868,-0.25435 0.38165,-1.27174 -0.38165,-1.01739 -0.508868,-0.50869 -0.763302,-0.12718 -2.92599,0 -4.834244,-5.59565 z" />
<path
   id="path3116"
   style="fill:#ffffff;fill-opacity:1;fill-rule:evenodd;stroke:none"
   d="m 170.8825,692.58632 12.72169,0 0,-38.15218 -12.72169,0 0,38.15218 z" />
<path
   id="path3118"
   style="fill:none;stroke:#ffffff;stroke-width:0.14999999;stroke-linecap:butt;stroke-linejoin:miter;stroke-miterlimit:10;stroke-opacity:1;stroke-dasharray:none"
   d="m 170.8825,692.58632 12.72169,0 0,-38.15218 -12.72169,0 0,38.15218 z" />
<path
   id="path3120"
   style="fill:#ffffff;fill-opacity:1;fill-rule:nonzero;stroke:none"
   d="m 142.76755,668.42327 0,6.99457 18.57368,-11.31848 -18.57368,-11.31848 0,7.63044 -46.306967,0 0,7.88478 46.306967,0 0,0.12717" />
<path
   id="path3122"
   style="fill:none;stroke:#ffffff;stroke-width:0.14999999;stroke-linecap:butt;stroke-linejoin:miter;stroke-miterlimit:10;stroke-opacity:1;stroke-dasharray:none"
   d="m 142.76755,668.42327 0,6.99457 18.57368,-11.31848 -18.57368,-11.31848 0,7.63044 -46.306968,0 0,7.88478 46.306968,0 0,0.12717 z" />
<path
   id="path3124"
   style="fill:#ffffff;fill-opacity:1;fill-rule:evenodd;stroke:none"
   d="m 137.67888,682.9211 0,10.68261 2.67155,0 0,-5.97717 0.25444,-1.52609 0.63608,-0.89022 0.7633,-0.25435 0.63609,0.12718 0.63608,0.63587 0.25443,1.27174 0,6.61304 2.67156,0 0,-5.97717 0.25443,-1.52609 0.63609,-0.89022 0.7633,-0.25435 0.63609,0.12718 0.7633,0.63587 0.25443,1.27174 0,6.61304 2.67156,0 0,-7.50326 -0.12722,-1.27174 -0.63608,-1.01739 -0.76331,-0.63587 -0.89051,-0.5087 -1.14496,0 -1.01773,0.25435 -0.89052,0.38152 -0.89052,0.89022 -0.63608,-0.63587 -0.63609,-0.63587 -0.7633,-0.25435 -0.7633,0 -1.65382,0.38153 -1.27217,1.27173 0,-1.39891 -2.41712,0" />
<path
   id="path3126"
   style="fill:none;stroke:#ffffff;stroke-width:0.14999999;stroke-linecap:butt;stroke-linejoin:miter;stroke-miterlimit:10;stroke-opacity:1;stroke-dasharray:none"
   d="m 137.67887,682.9211 0,10.68261 2.67156,0 0,-5.97717 0.25443,-1.52609 0.63609,-0.89022 0.7633,-0.25435 0.63609,0.12718 0.63608,0.63587 0.25443,1.27174 0,6.61304 2.67156,0 0,-5.97717 0.25443,-1.52609 0.63609,-0.89022 0.7633,-0.25435 0.63609,0.12718 0.7633,0.63587 0.25443,1.27174 0,6.61304 2.67156,0 0,-7.50326 -0.12722,-1.27174 -0.63608,-1.01739 -0.76331,-0.63587 -0.89051,-0.5087 -1.14496,0 -1.01773,0.25435 -0.89052,0.38152 -0.89052,0.89022 -0.63609,-0.63587 -0.63608,-0.63587 -0.7633,-0.25435 -0.7633,0 -1.65382,0.38152 -1.27217,1.27174 0,-1.39891 -2.41713,0 z" />
<path
   id="path3128"
   style="fill:#ffffff;fill-opacity:1;fill-rule:nonzero;stroke:none"
   d="m 114.90704,688.51675 -0.38165,1.90761 -1.01774,1.65326 -1.78103,1.14457 -1.90826,0.38152 -2.03547,-0.38152 -1.65382,-1.14457 -1.14495,-1.65326 -0.38165,-0.89021 0,-7.63044 0.38165,-0.89022 1.14495,-1.65326 1.65382,-1.14456 0.89052,-0.38153 2.16269,0 0.89052,0.38153 1.78103,1.14456 1.01774,1.65326 0.38165,1.90761 0,5.59565" />
<path
   id="path3130"
   style="fill:none;stroke:#ffffff;stroke-width:0.14999999;stroke-linecap:butt;stroke-linejoin:miter;stroke-miterlimit:10;stroke-opacity:1;stroke-dasharray:none"
   d="m 114.90704,688.51675 -0.38165,1.90761 -1.01774,1.65326 -1.78103,1.14457 -1.90826,0.38152 -2.03547,-0.38152 -1.65382,-1.14457 -1.14495,-1.65326 -0.38165,-0.89022 0,-7.63043 0.38165,-0.89022 1.14495,-1.65326 1.65382,-1.14457 0.89052,-0.38152 2.16269,0 0.89052,0.38152 1.78103,1.14457 1.01774,1.65326 0.38165,1.90761 0,5.59565 z" />
<path
   id="path3132"
   style="fill:#00ff00;fill-opacity:1;fill-rule:nonzero;stroke:none"
   d="m 107.27402,688.64393 0,-5.97718 0.12722,-1.01739 0.50887,-0.76304 0.7633,-0.5087 1.14495,-0.25435 0.89052,0.25435 0.89052,0.5087 0.50887,0.76304 0.12721,1.01739 0,5.97718 -0.12721,0.89022 -0.50887,0.89021 -0.89052,0.5087 -0.89052,0.12717 -1.14495,-0.12717 -0.7633,-0.5087 -0.50887,-0.89021 -0.12722,-0.89022" />
<path
   id="path3134"
   style="fill:none;stroke:#00ff00;stroke-width:0.14999999;stroke-linecap:butt;stroke-linejoin:miter;stroke-miterlimit:10;stroke-opacity:1;stroke-dasharray:none"
   d="m 107.27402,688.64393 0,-5.97718 0.12722,-1.01739 0.50887,-0.76304 0.7633,-0.5087 1.14495,-0.25435 0.89052,0.25435 0.89052,0.5087 0.50887,0.76304 0.12721,1.01739 0,5.97718 -0.12721,0.89021 -0.50887,0.89022 -0.89052,0.5087 -0.89052,0.12717 -1.14495,-0.12717 -0.7633,-0.5087 -0.50887,-0.89022 -0.12722,-0.89021 z" />
<path
   id="path3136"
   style="fill:#ffffff;fill-opacity:1;fill-rule:nonzero;stroke:none"
   d="m 100.65874,693.60371 0,-15.76957 -2.544337,0 -1.65382,2.67066 0,1.52608 1.399386,0 0,11.57283 2.798771,0" />
<path
   id="path3138"
   style="fill:none;stroke:#ffffff;stroke-width:0.14999999;stroke-linecap:butt;stroke-linejoin:miter;stroke-miterlimit:10;stroke-opacity:1;stroke-dasharray:none"
   d="m 100.65874,693.60371 0,-15.76957 -2.544337,0 -1.653821,2.67066 0,1.52608 1.399387,0 0,11.57283 2.798771,0 z" />
<path
   id="path3140"
   style="fill:#ffffff;fill-opacity:1;fill-rule:nonzero;stroke:none"
   d="m 129.15534,688.51675 -0.38165,1.90761 -1.14495,1.65326 -1.65382,1.14457 -1.90826,0.38152 -1.14495,0 -1.01774,-0.38152 -1.5266,-1.14457 -1.14495,-1.65326 -0.38165,-1.90761 0,-5.59565 0.38165,-1.90761 1.14495,-1.65326 1.5266,-1.14456 1.01774,-0.38153 2.16269,0 0.89052,0.38153 1.65382,1.14456 1.14495,1.65326 0.38165,1.90761 0,5.59565" />
<path
   id="path3142"
   style="fill:none;stroke:#ffffff;stroke-width:0.14999999;stroke-linecap:butt;stroke-linejoin:miter;stroke-miterlimit:10;stroke-opacity:1;stroke-dasharray:none"
   d="m 129.15534,688.51675 -0.38165,1.90761 -1.14495,1.65326 -1.65382,1.14457 -1.90826,0.38152 -1.14495,0 -1.01774,-0.38152 -1.5266,-1.14457 -1.14495,-1.65326 -0.38165,-1.90761 0,-5.59565 0.38165,-1.90761 1.14495,-1.65326 1.5266,-1.14457 1.01774,-0.38152 2.16269,0 0.89052,0.38152 1.65382,1.14457 1.14495,1.65326 0.38165,1.90761 0,5.59565 z" />
<path
   id="path3144"
   style="fill:#00ff00;fill-opacity:1;fill-rule:nonzero;stroke:none"
   d="m 121.52232,688.64393 0,-5.97718 0.12722,-1.01739 0.50887,-0.76304 0.7633,-0.5087 1.14495,-0.25435 0.89052,0.25435 0.7633,0.5087 0.63609,0.76304 0.12721,1.01739 0,5.97718 -0.12721,0.89022 -0.63609,0.89021 -0.7633,0.5087 -0.89052,0.12717 -1.14495,-0.12717 -0.7633,-0.5087 -0.50887,-0.89021 -0.12722,-0.89022" />
<path
   id="path3146"
   style="fill:none;stroke:#00ff00;stroke-width:0.14999999;stroke-linecap:butt;stroke-linejoin:miter;stroke-miterlimit:10;stroke-opacity:1;stroke-dasharray:none"
   d="m 121.52232,688.64393 0,-5.97718 0.12722,-1.01739 0.50887,-0.76304 0.7633,-0.5087 1.14495,-0.25435 0.89052,0.25435 0.7633,0.5087 0.63609,0.76304 0.12721,1.01739 0,5.97718 -0.12721,0.89021 -0.63609,0.89022 -0.7633,0.5087 -0.89052,0.12717 -1.14495,-0.12717 -0.7633,-0.5087 -0.50887,-0.89022 -0.12722,-0.89021 z" />
</g>
</svg>
