<?xml version="1.0" encoding="UTF-8"?>
<!DOCTYPE svg PUBLIC "-//W3C//DTD SVG 1.1//EN" "http://www.w3.org/Graphics/SVG/1.1/DTD/svg11.dtd">
<svg version="1.2" width="31.39mm" height="9.03mm" viewBox="91031 41599 3139 903" preserveAspectRatio="xMidYMid" fill-rule="evenodd" stroke-width="28.222" stroke-linejoin="round" xmlns="http://www.w3.org/2000/svg" xmlns:ooo="http://xml.openoffice.org/svg/export" xmlns:xlink="http://www.w3.org/1999/xlink" xmlns:presentation="http://sun.com/xmlns/staroffice/presentation" xmlns:smil="http://www.w3.org/2001/SMIL20/" xmlns:anim="urn:oasis:names:tc:opendocument:xmlns:animation:1.0" xml:space="preserve">
 <defs class="EmbeddedBulletChars">
  <g id="bullet-char-template-57356" transform="scale(0.00048828125,-0.00048828125)">
   <path d="M 580,1141 L 1163,571 580,0 -4,571 580,1141 Z"/>
  </g>
  <g id="bullet-char-template-57354" transform="scale(0.00048828125,-0.00048828125)">
   <path d="M 8,1128 L 1137,1128 1137,0 8,0 8,1128 Z"/>
  </g>
  <g id="bullet-char-template-10146" transform="scale(0.00048828125,-0.00048828125)">
   <path d="M 174,0 L 602,739 174,1481 1456,739 174,0 Z M 1358,739 L 309,1346 659,739 1358,739 Z"/>
  </g>
  <g id="bullet-char-template-10132" transform="scale(0.00048828125,-0.00048828125)">
   <path d="M 2015,739 L 1276,0 717,0 1260,543 174,543 174,936 1260,936 717,1481 1274,1481 2015,739 Z"/>
  </g>
  <g id="bullet-char-template-10007" transform="scale(0.00048828125,-0.00048828125)">
   <path d="M 0,-2 C -7,14 -16,27 -25,37 L 356,567 C 262,823 215,952 215,954 215,979 228,992 255,992 264,992 276,990 289,987 310,991 331,999 354,1012 L 381,999 492,748 772,1049 836,1024 860,1049 C 881,1039 901,1025 922,1006 886,937 835,863 770,784 769,783 710,716 594,584 L 774,223 C 774,196 753,168 711,139 L 727,119 C 717,90 699,76 672,76 641,76 570,178 457,381 L 164,-76 C 142,-110 111,-127 72,-127 30,-127 9,-110 8,-76 1,-67 -2,-52 -2,-32 -2,-23 -1,-13 0,-2 Z"/>
  </g>
  <g id="bullet-char-template-10004" transform="scale(0.00048828125,-0.00048828125)">
   <path d="M 285,-33 C 182,-33 111,30 74,156 52,228 41,333 41,471 41,549 55,616 82,672 116,743 169,778 240,778 293,778 328,747 346,684 L 369,508 C 377,444 397,411 428,410 L 1163,1116 C 1174,1127 1196,1133 1229,1133 1271,1133 1292,1118 1292,1087 L 1292,965 C 1292,929 1282,901 1262,881 L 442,47 C 390,-6 338,-33 285,-33 Z"/>
  </g>
  <g id="bullet-char-template-9679" transform="scale(0.00048828125,-0.00048828125)">
   <path d="M 813,0 C 632,0 489,54 383,161 276,268 223,411 223,592 223,773 276,916 383,1023 489,1130 632,1184 813,1184 992,1184 1136,1130 1245,1023 1353,916 1407,772 1407,592 1407,412 1353,268 1245,161 1136,54 992,0 813,0 Z"/>
  </g>
  <g id="bullet-char-template-8226" transform="scale(0.00048828125,-0.00048828125)">
   <path d="M 346,457 C 273,457 209,483 155,535 101,586 74,649 74,723 74,796 101,859 155,911 209,963 273,989 346,989 419,989 480,963 531,910 582,859 608,796 608,723 608,648 583,586 532,535 482,483 420,457 346,457 Z"/>
  </g>
  <g id="bullet-char-template-8211" transform="scale(0.00048828125,-0.00048828125)">
   <path d="M -4,459 L 1135,459 1135,606 -4,606 -4,459 Z"/>
  </g>
  <g id="bullet-char-template-61548" transform="scale(0.00048828125,-0.00048828125)">
   <path d="M 173,740 C 173,903 231,1043 346,1159 462,1274 601,1332 765,1332 928,1332 1067,1274 1183,1159 1299,1043 1357,903 1357,740 1357,577 1299,437 1183,322 1067,206 928,148 765,148 601,148 462,206 346,322 231,437 173,577 173,740 Z"/>
  </g>
 </defs>
 <g class="Page">
  <g class="com.sun.star.drawing.PolyPolygonShape">
   <g id="id3">
    <rect class="BoundingBox" stroke="none" fill="none" x="91031" y="41599" width="3139" height="903"/>
    <path fill="rgb(0,255,0)" stroke="none" d="M 94056,42500 L 91144,42500 91133,42500 91122,42498 91111,42496 91101,42492 91091,42487 91081,42481 91073,42475 91064,42467 91057,42459 91051,42450 91045,42441 91040,42431 91037,42420 91034,42410 91032,42399 91032,42388 91032,41712 91032,41701 91034,41690 91037,41679 91040,41669 91045,41659 91051,41650 91057,41641 91064,41633 91073,41625 91081,41619 91091,41613 91101,41608 91111,41604 91122,41602 91133,41600 91144,41600 94056,41600 94067,41600 94078,41602 94089,41604 94099,41608 94109,41613 94118,41619 94127,41625 94135,41633 94143,41641 94149,41650 94155,41659 94160,41669 94163,41679 94166,41690 94168,41701 94168,41712 94168,42388 94168,42399 94166,42410 94163,42420 94160,42431 94155,42441 94149,42450 94143,42459 94135,42467 94127,42475 94118,42481 94109,42487 94099,42492 94089,42496 94078,42498 94067,42500 94056,42500 Z"/>
    <path fill="none" stroke="rgb(0,255,0)" d="M 94056,42500 L 91144,42500 91133,42500 91122,42498 91111,42496 91101,42492 91091,42487 91081,42481 91073,42475 91064,42467 91057,42459 91051,42450 91045,42441 91040,42431 91037,42420 91034,42410 91032,42399 91032,42388 91032,41712 91032,41701 91034,41690 91037,41679 91040,41669 91045,41659 91051,41650 91057,41641 91064,41633 91073,41625 91081,41619 91091,41613 91101,41608 91111,41604 91122,41602 91133,41600 91144,41600 94056,41600 94067,41600 94078,41602 94089,41604 94099,41608 94109,41613 94118,41619 94127,41625 94135,41633 94143,41641 94149,41650 94155,41659 94160,41669 94163,41679 94166,41690 94168,41701 94168,41712 94168,42388 94168,42399 94166,42410 94163,42420 94160,42431 94155,42441 94149,42450 94143,42459 94135,42467 94127,42475 94118,42481 94109,42487 94099,42492 94089,42496 94078,42498 94067,42500 94056,42500 Z"/>
   </g>
  </g>
  <g class="com.sun.star.drawing.PolyPolygonShape">
   <g id="id4">
    <rect class="BoundingBox" stroke="none" fill="none" x="92109" y="42161" width="80" height="274"/>
    <path fill="rgb(255,255,255)" stroke="none" d="M 92110,42239 L 92137,42239 92137,42433 92187,42433 92187,42162 92137,42162 92110,42212 92110,42239 Z"/>
    <path fill="none" stroke="rgb(255,255,255)" d="M 92110,42239 L 92137,42239 92137,42433 92187,42433 92187,42162 92137,42162 92110,42212 92110,42239 Z"/>
   </g>
  </g>
  <g class="com.sun.star.drawing.PolyPolygonShape">
   <g id="id5">
    <rect class="BoundingBox" stroke="none" fill="none" x="92109" y="42161" width="80" height="274"/>
    <path fill="rgb(255,255,255)" stroke="none" d="M 92110,42239 L 92137,42239 92137,42433 92187,42433 92187,42162 92137,42162 92110,42212 92110,42239 Z"/>
    <path fill="none" stroke="rgb(255,255,255)" d="M 92110,42239 L 92137,42239 92137,42433 92187,42433 92187,42162 92137,42162 92110,42212 92110,42239 Z"/>
   </g>
  </g>
  <g class="com.sun.star.drawing.PolyPolygonShape">
   <g id="id6">
    <rect class="BoundingBox" stroke="none" fill="none" x="92109" y="42161" width="80" height="274"/>
    <path fill="rgb(255,255,255)" stroke="none" d="M 92110,42239 L 92137,42239 92137,42433 92187,42433 92187,42162 92137,42162 92110,42212 92110,42239 Z"/>
    <path fill="none" stroke="rgb(255,255,255)" d="M 92110,42239 L 92137,42239 92137,42433 92187,42433 92187,42162 92137,42162 92110,42212 92110,42239 Z"/>
   </g>
  </g>
  <g class="com.sun.star.drawing.PolyPolygonShape">
   <g id="id7">
    <rect class="BoundingBox" stroke="none" fill="none" x="92255" y="42155" width="188" height="285"/>
    <path fill="rgb(255,255,255)" stroke="none" d="M 92306,42244 L 92306,42349 92307,42358 92309,42366 92313,42373 92319,42380 92325,42385 92333,42389 92341,42391 92349,42392 92357,42391 92365,42389 92373,42385 92379,42380 92385,42373 92389,42366 92391,42358 92392,42349 92392,42244 92391,42236 92389,42228 92385,42221 92379,42214 92373,42209 92365,42205 92357,42202 92349,42201 92341,42202 92333,42205 92325,42209 92319,42214 92313,42221 92309,42228 92307,42236 92306,42244 Z M 92256,42249 L 92256,42345 92258,42363 92263,42380 92271,42396 92284,42410 92298,42423 92314,42431 92331,42436 92349,42438 92367,42436 92384,42431 92400,42423 92414,42410 92426,42396 92434,42380 92439,42363 92441,42345 92441,42249 92439,42231 92434,42214 92426,42198 92414,42183 92400,42172 92384,42164 92367,42158 92349,42156 92331,42158 92314,42164 92298,42172 92284,42183 92271,42198 92263,42214 92258,42231 92256,42249 Z"/>
    <path fill="none" stroke="rgb(255,255,255)" d="M 92306,42244 L 92306,42349 92307,42358 92309,42366 92313,42373 92319,42380 92325,42385 92333,42389 92341,42391 92349,42392 92357,42391 92365,42389 92373,42385 92379,42380 92385,42373 92389,42366 92391,42358 92392,42349 92392,42244 92391,42236 92389,42228 92385,42221 92379,42214 92373,42209 92365,42205 92357,42202 92349,42201 92341,42202 92333,42205 92325,42209 92319,42214 92313,42221 92309,42228 92307,42236 92306,42244 Z"/>
    <path fill="none" stroke="rgb(255,255,255)" d="M 92256,42249 L 92256,42345 92258,42363 92263,42380 92271,42396 92284,42410 92298,42423 92314,42431 92331,42436 92349,42438 92367,42436 92384,42431 92400,42423 92414,42410 92426,42396 92434,42380 92439,42363 92441,42345 92441,42249 92439,42231 92434,42214 92426,42198 92414,42183 92400,42172 92384,42164 92367,42158 92349,42156 92331,42158 92314,42164 92298,42172 92284,42183 92271,42198 92263,42214 92258,42231 92256,42249 Z"/>
   </g>
  </g>
  <g class="com.sun.star.drawing.PolyPolygonShape">
   <g id="id8">
    <rect class="BoundingBox" stroke="none" fill="none" x="92255" y="42155" width="188" height="285"/>
    <path fill="rgb(255,255,255)" stroke="none" d="M 92306,42244 L 92306,42349 92307,42358 92309,42366 92313,42373 92319,42380 92325,42385 92333,42389 92341,42391 92349,42392 92357,42391 92365,42389 92373,42385 92379,42380 92385,42373 92389,42366 92391,42358 92392,42349 92392,42244 92391,42236 92389,42228 92385,42221 92379,42214 92373,42209 92365,42205 92357,42202 92349,42201 92341,42202 92333,42205 92325,42209 92319,42214 92313,42221 92309,42228 92307,42236 92306,42244 Z M 92256,42249 L 92256,42345 92258,42363 92263,42380 92271,42396 92284,42410 92298,42423 92314,42431 92331,42436 92349,42438 92367,42436 92384,42431 92400,42423 92414,42410 92426,42396 92434,42380 92439,42363 92441,42345 92441,42249 92439,42231 92434,42214 92426,42198 92414,42183 92400,42172 92384,42164 92367,42158 92349,42156 92331,42158 92314,42164 92298,42172 92284,42183 92271,42198 92263,42214 92258,42231 92256,42249 Z"/>
    <path fill="none" stroke="rgb(255,255,255)" d="M 92306,42244 L 92306,42349 92307,42358 92309,42366 92313,42373 92319,42380 92325,42385 92333,42389 92341,42391 92349,42392 92357,42391 92365,42389 92373,42385 92379,42380 92385,42373 92389,42366 92391,42358 92392,42349 92392,42244 92391,42236 92389,42228 92385,42221 92379,42214 92373,42209 92365,42205 92357,42202 92349,42201 92341,42202 92333,42205 92325,42209 92319,42214 92313,42221 92309,42228 92307,42236 92306,42244 Z"/>
    <path fill="none" stroke="rgb(255,255,255)" d="M 92256,42249 L 92256,42345 92258,42363 92263,42380 92271,42396 92284,42410 92298,42423 92314,42431 92331,42436 92349,42438 92367,42436 92384,42431 92400,42423 92414,42410 92426,42396 92434,42380 92439,42363 92441,42345 92441,42249 92439,42231 92434,42214 92426,42198 92414,42183 92400,42172 92384,42164 92367,42158 92349,42156 92331,42158 92314,42164 92298,42172 92284,42183 92271,42198 92263,42214 92258,42231 92256,42249 Z"/>
   </g>
  </g>
  <g class="com.sun.star.drawing.PolyPolygonShape">
   <g id="id9">
    <rect class="BoundingBox" stroke="none" fill="none" x="92255" y="42155" width="188" height="285"/>
    <path fill="rgb(255,255,255)" stroke="none" d="M 92306,42244 L 92306,42349 92307,42358 92309,42366 92313,42373 92319,42380 92325,42385 92333,42389 92341,42391 92349,42392 92357,42391 92365,42389 92373,42385 92379,42380 92385,42373 92389,42366 92391,42358 92392,42349 92392,42244 92391,42236 92389,42228 92385,42221 92379,42214 92373,42209 92365,42205 92357,42202 92349,42201 92341,42202 92333,42205 92325,42209 92319,42214 92313,42221 92309,42228 92307,42236 92306,42244 Z M 92256,42249 L 92256,42345 92258,42363 92263,42380 92271,42396 92284,42410 92298,42423 92314,42431 92331,42436 92349,42438 92367,42436 92384,42431 92400,42423 92414,42410 92426,42396 92434,42380 92439,42363 92441,42345 92441,42249 92439,42231 92434,42214 92426,42198 92414,42183 92400,42172 92384,42164 92367,42158 92349,42156 92331,42158 92314,42164 92298,42172 92284,42183 92271,42198 92263,42214 92258,42231 92256,42249 Z"/>
    <path fill="none" stroke="rgb(255,255,255)" d="M 92306,42244 L 92306,42349 92307,42358 92309,42366 92313,42373 92319,42380 92325,42385 92333,42389 92341,42391 92349,42392 92357,42391 92365,42389 92373,42385 92379,42380 92385,42373 92389,42366 92391,42358 92392,42349 92392,42244 92391,42236 92389,42228 92385,42221 92379,42214 92373,42209 92365,42205 92357,42202 92349,42201 92341,42202 92333,42205 92325,42209 92319,42214 92313,42221 92309,42228 92307,42236 92306,42244 Z"/>
    <path fill="none" stroke="rgb(255,255,255)" d="M 92256,42249 L 92256,42345 92258,42363 92263,42380 92271,42396 92284,42410 92298,42423 92314,42431 92331,42436 92349,42438 92367,42436 92384,42431 92400,42423 92414,42410 92426,42396 92434,42380 92439,42363 92441,42345 92441,42249 92439,42231 92434,42214 92426,42198 92414,42183 92400,42172 92384,42164 92367,42158 92349,42156 92331,42158 92314,42164 92298,42172 92284,42183 92271,42198 92263,42214 92258,42231 92256,42249 Z"/>
   </g>
  </g>
  <g class="com.sun.star.drawing.PolyPolygonShape">
   <g id="id10">
    <rect class="BoundingBox" stroke="none" fill="none" x="92506" y="42155" width="189" height="285"/>
    <path fill="rgb(255,255,255)" stroke="none" d="M 92557,42244 L 92557,42349 92557,42358 92560,42366 92564,42373 92569,42380 92576,42385 92583,42389 92591,42391 92599,42392 92608,42391 92616,42389 92623,42385 92630,42380 92635,42373 92639,42366 92641,42358 92642,42349 92642,42244 92641,42236 92639,42228 92635,42221 92630,42214 92623,42209 92616,42205 92608,42202 92599,42201 92591,42202 92583,42205 92576,42209 92569,42214 92564,42221 92560,42228 92557,42236 92557,42244 Z M 92507,42249 L 92507,42345 92509,42363 92514,42380 92523,42396 92534,42410 92548,42423 92564,42431 92581,42436 92599,42438 92617,42436 92635,42431 92652,42423 92666,42410 92677,42396 92685,42380 92691,42363 92693,42345 92693,42249 92691,42231 92685,42214 92677,42198 92666,42183 92652,42172 92635,42164 92617,42158 92599,42156 92581,42158 92564,42164 92548,42172 92534,42183 92523,42198 92514,42214 92509,42231 92507,42249 Z"/>
    <path fill="none" stroke="rgb(255,255,255)" d="M 92557,42244 L 92557,42349 92557,42358 92560,42366 92564,42373 92569,42380 92576,42385 92583,42389 92591,42391 92599,42392 92608,42391 92616,42389 92623,42385 92630,42380 92635,42373 92639,42366 92641,42358 92642,42349 92642,42244 92641,42236 92639,42228 92635,42221 92630,42214 92623,42209 92616,42205 92608,42202 92599,42201 92591,42202 92583,42205 92576,42209 92569,42214 92564,42221 92560,42228 92557,42236 92557,42244 Z"/>
    <path fill="none" stroke="rgb(255,255,255)" d="M 92507,42249 L 92507,42345 92509,42363 92514,42380 92523,42396 92534,42410 92548,42423 92564,42431 92581,42436 92599,42438 92617,42436 92635,42431 92652,42423 92666,42410 92677,42396 92685,42380 92691,42363 92693,42345 92693,42249 92691,42231 92685,42214 92677,42198 92666,42183 92652,42172 92635,42164 92617,42158 92599,42156 92581,42158 92564,42164 92548,42172 92534,42183 92523,42198 92514,42214 92509,42231 92507,42249 Z"/>
   </g>
  </g>
  <g class="com.sun.star.drawing.PolyPolygonShape">
   <g id="id11">
    <rect class="BoundingBox" stroke="none" fill="none" x="92506" y="42155" width="189" height="285"/>
    <path fill="rgb(255,255,255)" stroke="none" d="M 92557,42244 L 92557,42349 92557,42358 92560,42366 92564,42373 92569,42380 92576,42385 92583,42389 92591,42391 92599,42392 92608,42391 92616,42389 92623,42385 92630,42380 92635,42373 92639,42366 92641,42358 92642,42349 92642,42244 92641,42236 92639,42228 92635,42221 92630,42214 92623,42209 92616,42205 92608,42202 92599,42201 92591,42202 92583,42205 92576,42209 92569,42214 92564,42221 92560,42228 92557,42236 92557,42244 Z M 92507,42249 L 92507,42345 92509,42363 92514,42380 92523,42396 92534,42410 92548,42423 92564,42431 92581,42436 92599,42438 92617,42436 92635,42431 92652,42423 92666,42410 92677,42396 92685,42380 92691,42363 92693,42345 92693,42249 92691,42231 92685,42214 92677,42198 92666,42183 92652,42172 92635,42164 92617,42158 92599,42156 92581,42158 92564,42164 92548,42172 92534,42183 92523,42198 92514,42214 92509,42231 92507,42249 Z"/>
    <path fill="none" stroke="rgb(255,255,255)" d="M 92557,42244 L 92557,42349 92557,42358 92560,42366 92564,42373 92569,42380 92576,42385 92583,42389 92591,42391 92599,42392 92608,42391 92616,42389 92623,42385 92630,42380 92635,42373 92639,42366 92641,42358 92642,42349 92642,42244 92641,42236 92639,42228 92635,42221 92630,42214 92623,42209 92616,42205 92608,42202 92599,42201 92591,42202 92583,42205 92576,42209 92569,42214 92564,42221 92560,42228 92557,42236 92557,42244 Z"/>
    <path fill="none" stroke="rgb(255,255,255)" d="M 92507,42249 L 92507,42345 92509,42363 92514,42380 92523,42396 92534,42410 92548,42423 92564,42431 92581,42436 92599,42438 92617,42436 92635,42431 92652,42423 92666,42410 92677,42396 92685,42380 92691,42363 92693,42345 92693,42249 92691,42231 92685,42214 92677,42198 92666,42183 92652,42172 92635,42164 92617,42158 92599,42156 92581,42158 92564,42164 92548,42172 92534,42183 92523,42198 92514,42214 92509,42231 92507,42249 Z"/>
   </g>
  </g>
  <g class="com.sun.star.drawing.PolyPolygonShape">
   <g id="id12">
    <rect class="BoundingBox" stroke="none" fill="none" x="92506" y="42155" width="189" height="285"/>
    <path fill="rgb(255,255,255)" stroke="none" d="M 92557,42244 L 92557,42349 92557,42358 92560,42366 92564,42373 92569,42380 92576,42385 92583,42389 92591,42391 92599,42392 92608,42391 92616,42389 92623,42385 92630,42380 92635,42373 92639,42366 92641,42358 92642,42349 92642,42244 92641,42236 92639,42228 92635,42221 92630,42214 92623,42209 92616,42205 92608,42202 92599,42201 92591,42202 92583,42205 92576,42209 92569,42214 92564,42221 92560,42228 92557,42236 92557,42244 Z M 92507,42249 L 92507,42345 92509,42363 92514,42380 92523,42396 92534,42410 92548,42423 92564,42431 92581,42436 92599,42438 92617,42436 92635,42431 92652,42423 92666,42410 92677,42396 92685,42380 92691,42363 92693,42345 92693,42249 92691,42231 92685,42214 92677,42198 92666,42183 92652,42172 92635,42164 92617,42158 92599,42156 92581,42158 92564,42164 92548,42172 92534,42183 92523,42198 92514,42214 92509,42231 92507,42249 Z"/>
    <path fill="none" stroke="rgb(255,255,255)" d="M 92557,42244 L 92557,42349 92557,42358 92560,42366 92564,42373 92569,42380 92576,42385 92583,42389 92591,42391 92599,42392 92608,42391 92616,42389 92623,42385 92630,42380 92635,42373 92639,42366 92641,42358 92642,42349 92642,42244 92641,42236 92639,42228 92635,42221 92630,42214 92623,42209 92616,42205 92608,42202 92599,42201 92591,42202 92583,42205 92576,42209 92569,42214 92564,42221 92560,42228 92557,42236 92557,42244 Z"/>
    <path fill="none" stroke="rgb(255,255,255)" d="M 92507,42249 L 92507,42345 92509,42363 92514,42380 92523,42396 92534,42410 92548,42423 92564,42431 92581,42436 92599,42438 92617,42436 92635,42431 92652,42423 92666,42410 92677,42396 92685,42380 92691,42363 92693,42345 92693,42249 92691,42231 92685,42214 92677,42198 92666,42183 92652,42172 92635,42164 92617,42158 92599,42156 92581,42158 92564,42164 92548,42172 92534,42183 92523,42198 92514,42214 92509,42231 92507,42249 Z"/>
   </g>
  </g>
  <g class="com.sun.star.drawing.PolyPolygonShape">
   <g id="id13">
    <rect class="BoundingBox" stroke="none" fill="none" x="92759" y="42233" width="266" height="202"/>
    <path fill="rgb(255,255,255)" stroke="none" d="M 92760,42433 L 92804,42433 92804,42305 92805,42299 92807,42293 92810,42287 92814,42283 92819,42279 92824,42276 92830,42274 92836,42272 92843,42274 92849,42276 92854,42279 92859,42283 92863,42287 92866,42293 92868,42299 92868,42305 92868,42433 92914,42433 92914,42305 92915,42299 92917,42293 92920,42287 92923,42283 92929,42279 92934,42276 92940,42274 92946,42272 92952,42274 92958,42276 92964,42279 92969,42283 92973,42287 92976,42293 92978,42299 92978,42305 92978,42433 93023,42433 93023,42298 93022,42288 93020,42278 93016,42267 93010,42259 93003,42251 92995,42244 92986,42239 92976,42236 92966,42234 92956,42234 92946,42235 92936,42238 92927,42243 92919,42249 92911,42256 92905,42265 92896,42253 92885,42244 92871,42237 92857,42234 92843,42234 92829,42237 92816,42244 92804,42253 92804,42239 92760,42239 92760,42433 Z"/>
    <path fill="none" stroke="rgb(255,255,255)" d="M 92760,42433 L 92804,42433 92804,42305 92805,42299 92807,42293 92810,42287 92814,42283 92819,42279 92824,42276 92830,42274 92836,42272 92843,42274 92849,42276 92854,42279 92859,42283 92863,42287 92866,42293 92868,42299 92868,42305 92868,42433 92914,42433 92914,42305 92915,42299 92917,42293 92920,42287 92923,42283 92929,42279 92934,42276 92940,42274 92946,42272 92952,42274 92958,42276 92964,42279 92969,42283 92973,42287 92976,42293 92978,42299 92978,42305 92978,42433 93023,42433 93023,42298 93022,42288 93020,42278 93016,42267 93010,42259 93003,42251 92995,42244 92986,42239 92976,42236 92966,42234 92956,42234 92946,42235 92936,42238 92927,42243 92919,42249 92911,42256 92905,42265 92896,42253 92885,42244 92871,42237 92857,42234 92843,42234 92829,42237 92816,42244 92804,42253 92804,42239 92760,42239 92760,42433 Z"/>
   </g>
  </g>
  <g class="com.sun.star.drawing.PolyPolygonShape">
   <g id="id14">
    <rect class="BoundingBox" stroke="none" fill="none" x="92759" y="42233" width="266" height="202"/>
    <path fill="rgb(255,255,255)" stroke="none" d="M 92760,42433 L 92804,42433 92804,42305 92805,42299 92807,42293 92810,42287 92814,42283 92819,42279 92824,42276 92830,42274 92836,42272 92843,42274 92849,42276 92854,42279 92859,42283 92863,42287 92866,42293 92868,42299 92868,42305 92868,42433 92914,42433 92914,42305 92915,42299 92917,42293 92920,42287 92923,42283 92929,42279 92934,42276 92940,42274 92946,42272 92952,42274 92958,42276 92964,42279 92969,42283 92973,42287 92976,42293 92978,42299 92978,42305 92978,42433 93023,42433 93023,42298 93022,42288 93020,42278 93016,42267 93010,42259 93003,42251 92995,42244 92986,42239 92976,42236 92966,42234 92956,42234 92946,42235 92936,42238 92927,42243 92919,42249 92911,42256 92905,42265 92896,42253 92885,42244 92871,42237 92857,42234 92843,42234 92829,42237 92816,42244 92804,42253 92804,42239 92760,42239 92760,42433 Z"/>
    <path fill="none" stroke="rgb(255,255,255)" d="M 92760,42433 L 92804,42433 92804,42305 92805,42299 92807,42293 92810,42287 92814,42283 92819,42279 92824,42276 92830,42274 92836,42272 92843,42274 92849,42276 92854,42279 92859,42283 92863,42287 92866,42293 92868,42299 92868,42305 92868,42433 92914,42433 92914,42305 92915,42299 92917,42293 92920,42287 92923,42283 92929,42279 92934,42276 92940,42274 92946,42272 92952,42274 92958,42276 92964,42279 92969,42283 92973,42287 92976,42293 92978,42299 92978,42305 92978,42433 93023,42433 93023,42298 93022,42288 93020,42278 93016,42267 93010,42259 93003,42251 92995,42244 92986,42239 92976,42236 92966,42234 92956,42234 92946,42235 92936,42238 92927,42243 92919,42249 92911,42256 92905,42265 92896,42253 92885,42244 92871,42237 92857,42234 92843,42234 92829,42237 92816,42244 92804,42253 92804,42239 92760,42239 92760,42433 Z"/>
   </g>
  </g>
  <g class="com.sun.star.drawing.PolyPolygonShape">
   <g id="id15">
    <rect class="BoundingBox" stroke="none" fill="none" x="92759" y="42233" width="266" height="202"/>
    <path fill="rgb(255,255,255)" stroke="none" d="M 92760,42433 L 92804,42433 92804,42305 92805,42299 92807,42293 92810,42287 92814,42283 92819,42279 92824,42276 92830,42274 92836,42272 92843,42274 92849,42276 92854,42279 92859,42283 92863,42287 92866,42293 92868,42299 92868,42305 92868,42433 92914,42433 92914,42305 92915,42299 92917,42293 92920,42287 92923,42283 92929,42279 92934,42276 92940,42274 92946,42272 92952,42274 92958,42276 92964,42279 92969,42283 92973,42287 92976,42293 92978,42299 92978,42305 92978,42433 93023,42433 93023,42298 93022,42288 93020,42278 93016,42267 93010,42259 93003,42251 92995,42244 92986,42239 92976,42236 92966,42234 92956,42234 92946,42235 92936,42238 92927,42243 92919,42249 92911,42256 92905,42265 92896,42253 92885,42244 92871,42237 92857,42234 92843,42234 92829,42237 92816,42244 92804,42253 92804,42239 92760,42239 92760,42433 Z"/>
    <path fill="none" stroke="rgb(255,255,255)" d="M 92760,42433 L 92804,42433 92804,42305 92805,42299 92807,42293 92810,42287 92814,42283 92819,42279 92824,42276 92830,42274 92836,42272 92843,42274 92849,42276 92854,42279 92859,42283 92863,42287 92866,42293 92868,42299 92868,42305 92868,42433 92914,42433 92914,42305 92915,42299 92917,42293 92920,42287 92923,42283 92929,42279 92934,42276 92940,42274 92946,42272 92952,42274 92958,42276 92964,42279 92969,42283 92973,42287 92976,42293 92978,42299 92978,42305 92978,42433 93023,42433 93023,42298 93022,42288 93020,42278 93016,42267 93010,42259 93003,42251 92995,42244 92986,42239 92976,42236 92966,42234 92956,42234 92946,42235 92936,42238 92927,42243 92919,42249 92911,42256 92905,42265 92896,42253 92885,42244 92871,42237 92857,42234 92843,42234 92829,42237 92816,42244 92804,42253 92804,42239 92760,42239 92760,42433 Z"/>
   </g>
  </g>
  <g class="com.sun.star.drawing.PolyPolygonShape">
   <g id="id16">
    <rect class="BoundingBox" stroke="none" fill="none" x="91344" y="41823" width="564" height="589"/>
    <path fill="rgb(255,255,255)" stroke="none" d="M 91745,42266 L 91736,42233 91725,42201 91714,42170 91701,42139 91689,42112 91675,42085 91660,42060 91643,42035 91698,41962 91763,42035 91871,42035 91878,42034 91885,42032 91891,42029 91896,42024 91900,42019 91903,42013 91905,42006 91906,42000 91905,41993 91903,41986 91900,41980 91896,41974 91891,41970 91885,41967 91878,41965 91871,41964 91797,41964 91684,41841 91677,41835 91670,41830 91662,41826 91653,41824 91528,41824 91516,41825 91504,41827 91492,41831 91481,41835 91471,41841 91461,41849 91452,41857 91444,41866 91403,41919 91400,41925 91397,41932 91396,41939 91396,41946 91398,41953 91401,41960 91405,41965 91410,41970 91416,41974 91422,41976 91429,41977 91436,41977 91443,41976 91450,41973 91456,41969 91460,41963 91509,41900 91515,41893 91524,41888 91533,41884 91543,41884 91565,41884 91529,41966 91523,41981 91518,41997 91514,42014 91511,42030 91499,42150 91497,42160 91491,42167 91483,42172 91474,42174 91381,42174 91374,42174 91367,42176 91361,42180 91356,42184 91351,42189 91348,42196 91346,42202 91345,42209 91346,42216 91348,42223 91351,42229 91356,42235 91361,42239 91367,42243 91374,42244 91381,42245 91503,42245 91515,42244 91526,42241 91537,42236 91547,42229 91555,42220 91562,42211 91567,42200 91570,42188 91582,42107 91635,42181 91641,42192 91647,42203 91652,42215 91656,42227 91693,42381 91695,42388 91699,42394 91704,42400 91710,42404 91717,42407 91724,42409 91731,42410 91739,42409 91746,42406 91752,42402 91758,42397 91762,42391 91766,42385 91768,42377 91768,42370 91767,42362 91745,42266 Z"/>
    <path fill="none" stroke="rgb(255,255,255)" d="M 91745,42266 L 91736,42233 91725,42201 91714,42170 91701,42139 91689,42112 91675,42085 91660,42060 91643,42035 91698,41962 91763,42035 91871,42035 91878,42034 91885,42032 91891,42029 91896,42024 91900,42019 91903,42013 91905,42006 91906,42000 91905,41993 91903,41986 91900,41980 91896,41974 91891,41970 91885,41967 91878,41965 91871,41964 91797,41964 91684,41841 91677,41835 91670,41830 91662,41826 91653,41824 91528,41824 91516,41825 91504,41827 91492,41831 91481,41835 91471,41841 91461,41849 91452,41857 91444,41866 91403,41919 91400,41925 91397,41932 91396,41939 91396,41946 91398,41953 91401,41960 91405,41965 91410,41970 91416,41974 91422,41976 91429,41977 91436,41977 91443,41976 91450,41973 91456,41969 91460,41963 91509,41900 91515,41893 91524,41888 91533,41884 91543,41884 91565,41884 91529,41966 91523,41981 91518,41997 91514,42014 91511,42030 91499,42150 91497,42160 91491,42167 91483,42172 91474,42174 91381,42174 91374,42174 91367,42176 91361,42180 91356,42184 91351,42189 91348,42196 91346,42202 91345,42209 91346,42216 91348,42223 91351,42229 91356,42235 91361,42239 91367,42243 91374,42244 91381,42245 91503,42245 91515,42244 91526,42241 91537,42236 91547,42229 91555,42220 91562,42211 91567,42200 91570,42188 91582,42107 91635,42181 91641,42192 91647,42203 91652,42215 91656,42227 91693,42381 91695,42388 91699,42394 91704,42400 91710,42404 91717,42407 91724,42409 91731,42410 91739,42409 91746,42406 91752,42402 91758,42397 91762,42391 91766,42385 91768,42377 91768,42370 91767,42362 91745,42266 Z"/>
   </g>
  </g>
  <g class="com.sun.star.drawing.PolyPolygonShape">
   <g id="id17">
    <rect class="BoundingBox" stroke="none" fill="none" x="91639" y="41688" width="127" height="128"/>
    <path fill="rgb(255,255,255)" stroke="none" d="M 91764,41751 L 91763,41739 91759,41728 91754,41717 91746,41708 91737,41700 91726,41694 91715,41691 91703,41689 91691,41691 91678,41694 91668,41700 91658,41708 91651,41717 91645,41728 91642,41739 91640,41751 91642,41764 91645,41776 91651,41786 91658,41796 91668,41803 91678,41809 91691,41813 91703,41814 91715,41813 91726,41809 91737,41803 91746,41796 91754,41786 91759,41776 91763,41764 91764,41751 Z"/>
    <path fill="none" stroke="rgb(255,255,255)" d="M 91764,41751 L 91763,41739 91759,41728 91754,41717 91746,41708 91737,41700 91726,41694 91715,41691 91703,41689 91691,41691 91678,41694 91668,41700 91658,41708 91651,41717 91645,41728 91642,41739 91640,41751 91642,41764 91645,41776 91651,41786 91658,41796 91668,41803 91678,41809 91691,41813 91703,41814 91715,41813 91726,41809 91737,41803 91746,41796 91754,41786 91759,41776 91763,41764 91764,41751 Z"/>
   </g>
  </g>
  <g class="com.sun.star.drawing.PolyPolygonShape">
   <g id="id18">
    <rect class="BoundingBox" stroke="none" fill="none" x="93584" y="41688" width="273" height="724"/>
    <path fill="rgb(255,255,255)" stroke="none" d="M 93855,42410 L 93585,42410 93585,41689 93855,41689 93855,42410 Z"/>
    <path fill="none" stroke="rgb(255,255,255)" d="M 93855,42410 L 93585,42410 93585,41689 93855,41689 93855,42410 Z"/>
   </g>
  </g>
  <g class="com.sun.star.drawing.PolyPolygonShape">
   <g id="id19">
    <rect class="BoundingBox" stroke="none" fill="none" x="92072" y="41689" width="1348" height="453"/>
    <path fill="rgb(255,255,255)" stroke="none" d="M 92073,41836 L 93059,41836 93059,41690 93418,41914 93059,42140 93059,41994 92073,41994 92073,41836 Z"/>
    <path fill="none" stroke="rgb(255,255,255)" d="M 92073,41836 L 93059,41836 93059,41690 93418,41914 93059,42140 93059,41994 92073,41994 92073,41836 Z"/>
   </g>
  </g>
  <g class="com.sun.star.drawing.PolyPolygonShape">
   <g id="id20">
    <rect class="BoundingBox" stroke="none" fill="none" x="92072" y="41689" width="1348" height="453"/>
    <path fill="rgb(255,255,255)" stroke="none" d="M 92073,41836 L 93059,41836 93059,41690 93418,41914 93059,42140 93059,41994 92073,41994 92073,41836 Z"/>
    <path fill="none" stroke="rgb(255,255,255)" d="M 92073,41836 L 93059,41836 93059,41690 93418,41914 93059,42140 93059,41994 92073,41994 92073,41836 Z"/>
   </g>
  </g>
 </g>
</svg>