<?xml version="1.0" encoding="UTF-8"?>
<!DOCTYPE svg PUBLIC "-//W3C//DTD SVG 1.1//EN" "http://www.w3.org/Graphics/SVG/1.1/DTD/svg11.dtd">
<svg version="1.2" width="16.67mm" height="25.03mm" viewBox="94667 39999 1667 2503" preserveAspectRatio="xMidYMid" fill-rule="evenodd" stroke-width="28.222" stroke-linejoin="round" xmlns="http://www.w3.org/2000/svg" xmlns:ooo="http://xml.openoffice.org/svg/export" xmlns:xlink="http://www.w3.org/1999/xlink" xmlns:presentation="http://sun.com/xmlns/staroffice/presentation" xmlns:smil="http://www.w3.org/2001/SMIL20/" xmlns:anim="urn:oasis:names:tc:opendocument:xmlns:animation:1.0" xml:space="preserve">
 <defs class="EmbeddedBulletChars">
  <g id="bullet-char-template-57356" transform="scale(0.00048828125,-0.00048828125)">
   <path d="M 580,1141 L 1163,571 580,0 -4,571 580,1141 Z"/>
  </g>
  <g id="bullet-char-template-57354" transform="scale(0.00048828125,-0.00048828125)">
   <path d="M 8,1128 L 1137,1128 1137,0 8,0 8,1128 Z"/>
  </g>
  <g id="bullet-char-template-10146" transform="scale(0.00048828125,-0.00048828125)">
   <path d="M 174,0 L 602,739 174,1481 1456,739 174,0 Z M 1358,739 L 309,1346 659,739 1358,739 Z"/>
  </g>
  <g id="bullet-char-template-10132" transform="scale(0.00048828125,-0.00048828125)">
   <path d="M 2015,739 L 1276,0 717,0 1260,543 174,543 174,936 1260,936 717,1481 1274,1481 2015,739 Z"/>
  </g>
  <g id="bullet-char-template-10007" transform="scale(0.00048828125,-0.00048828125)">
   <path d="M 0,-2 C -7,14 -16,27 -25,37 L 356,567 C 262,823 215,952 215,954 215,979 228,992 255,992 264,992 276,990 289,987 310,991 331,999 354,1012 L 381,999 492,748 772,1049 836,1024 860,1049 C 881,1039 901,1025 922,1006 886,937 835,863 770,784 769,783 710,716 594,584 L 774,223 C 774,196 753,168 711,139 L 727,119 C 717,90 699,76 672,76 641,76 570,178 457,381 L 164,-76 C 142,-110 111,-127 72,-127 30,-127 9,-110 8,-76 1,-67 -2,-52 -2,-32 -2,-23 -1,-13 0,-2 Z"/>
  </g>
  <g id="bullet-char-template-10004" transform="scale(0.00048828125,-0.00048828125)">
   <path d="M 285,-33 C 182,-33 111,30 74,156 52,228 41,333 41,471 41,549 55,616 82,672 116,743 169,778 240,778 293,778 328,747 346,684 L 369,508 C 377,444 397,411 428,410 L 1163,1116 C 1174,1127 1196,1133 1229,1133 1271,1133 1292,1118 1292,1087 L 1292,965 C 1292,929 1282,901 1262,881 L 442,47 C 390,-6 338,-33 285,-33 Z"/>
  </g>
  <g id="bullet-char-template-9679" transform="scale(0.00048828125,-0.00048828125)">
   <path d="M 813,0 C 632,0 489,54 383,161 276,268 223,411 223,592 223,773 276,916 383,1023 489,1130 632,1184 813,1184 992,1184 1136,1130 1245,1023 1353,916 1407,772 1407,592 1407,412 1353,268 1245,161 1136,54 992,0 813,0 Z"/>
  </g>
  <g id="bullet-char-template-8226" transform="scale(0.00048828125,-0.00048828125)">
   <path d="M 346,457 C 273,457 209,483 155,535 101,586 74,649 74,723 74,796 101,859 155,911 209,963 273,989 346,989 419,989 480,963 531,910 582,859 608,796 608,723 608,648 583,586 532,535 482,483 420,457 346,457 Z"/>
  </g>
  <g id="bullet-char-template-8211" transform="scale(0.00048828125,-0.00048828125)">
   <path d="M -4,459 L 1135,459 1135,606 -4,606 -4,459 Z"/>
  </g>
  <g id="bullet-char-template-61548" transform="scale(0.00048828125,-0.00048828125)">
   <path d="M 173,740 C 173,903 231,1043 346,1159 462,1274 601,1332 765,1332 928,1332 1067,1274 1183,1159 1299,1043 1357,903 1357,740 1357,577 1299,437 1183,322 1067,206 928,148 765,148 601,148 462,206 346,322 231,437 173,577 173,740 Z"/>
  </g>
 </defs>
 <g class="Page">
  <g class="com.sun.star.drawing.PolyPolygonShape">
   <g id="id3">
    <rect class="BoundingBox" stroke="none" fill="none" x="94667" y="39999" width="1667" height="2503"/>
    <path fill="rgb(0,0,255)" stroke="none" d="M 94855,42500 L 96145,42500 96163,42499 96181,42497 96199,42492 96217,42486 96233,42478 96249,42469 96264,42458 96277,42445 96290,42432 96301,42417 96310,42401 96318,42385 96324,42367 96329,42349 96331,42331 96332,42313 96332,40187 96331,40169 96329,40151 96324,40133 96318,40115 96310,40099 96301,40083 96290,40068 96277,40054 96264,40042 96249,40031 96233,40022 96217,40014 96199,40008 96181,40003 96163,40000 96145,40000 94855,40000 94836,40000 94818,40003 94801,40008 94783,40014 94767,40022 94751,40031 94736,40042 94723,40054 94710,40068 94699,40083 94690,40099 94682,40115 94676,40133 94671,40151 94669,40169 94668,40187 94668,42313 94669,42331 94671,42349 94676,42367 94682,42385 94690,42401 94699,42417 94710,42432 94723,42445 94736,42458 94751,42469 94767,42478 94783,42486 94801,42492 94818,42497 94836,42499 94855,42500 Z"/>
    <path fill="none" stroke="rgb(0,0,255)" d="M 94855,42500 L 96145,42500 96163,42499 96181,42497 96199,42492 96217,42486 96233,42478 96249,42469 96264,42458 96277,42445 96290,42432 96301,42417 96310,42401 96318,42385 96324,42367 96329,42349 96331,42331 96332,42313 96332,40187 96331,40169 96329,40151 96324,40133 96318,40115 96310,40099 96301,40083 96290,40068 96277,40054 96264,40042 96249,40031 96233,40022 96217,40014 96199,40008 96181,40003 96163,40000 96145,40000 94855,40000 94836,40000 94818,40003 94801,40008 94783,40014 94767,40022 94751,40031 94736,40042 94723,40054 94710,40068 94699,40083 94690,40099 94682,40115 94676,40133 94671,40151 94669,40169 94668,40187 94668,42313 94669,42331 94671,42349 94676,42367 94682,42385 94690,42401 94699,42417 94710,42432 94723,42445 94736,42458 94751,42469 94767,42478 94783,42486 94801,42492 94818,42497 94836,42499 94855,42500 Z"/>
   </g>
  </g>
  <g class="com.sun.star.drawing.PolyPolygonShape">
   <g id="id4">
    <rect class="BoundingBox" stroke="none" fill="none" x="94729" y="40061" width="1543" height="2379"/>
    <path fill="rgb(255,255,255)" stroke="none" d="M 94855,42438 L 96145,42438 96157,42437 96169,42436 96181,42432 96193,42428 96204,42423 96214,42417 96224,42410 96233,42401 96241,42392 96249,42382 96255,42372 96260,42361 96264,42349 96267,42337 96269,42325 96270,42313 96270,40187 96269,40175 96267,40163 96264,40151 96260,40139 96255,40128 96249,40118 96241,40108 96233,40099 96224,40090 96214,40083 96204,40077 96193,40072 96181,40067 96169,40064 96157,40063 96145,40062 94855,40062 94843,40063 94830,40064 94818,40067 94807,40072 94796,40077 94785,40083 94776,40090 94767,40099 94758,40108 94751,40118 94745,40128 94740,40139 94735,40151 94732,40163 94731,40175 94730,40187 94730,42313 94731,42325 94732,42337 94735,42349 94740,42361 94745,42372 94751,42382 94758,42392 94767,42401 94776,42410 94785,42417 94796,42423 94807,42428 94818,42432 94830,42436 94843,42437 94855,42438 Z"/>
    <path fill="none" stroke="rgb(255,255,255)" d="M 94855,42438 L 96145,42438 96157,42437 96169,42436 96181,42432 96193,42428 96204,42423 96214,42417 96224,42410 96233,42401 96241,42392 96249,42382 96255,42372 96260,42361 96264,42349 96267,42337 96269,42325 96270,42313 96270,40187 96269,40175 96267,40163 96264,40151 96260,40139 96255,40128 96249,40118 96241,40108 96233,40099 96224,40090 96214,40083 96204,40077 96193,40072 96181,40067 96169,40064 96157,40063 96145,40062 94855,40062 94843,40063 94830,40064 94818,40067 94807,40072 94796,40077 94785,40083 94776,40090 94767,40099 94758,40108 94751,40118 94745,40128 94740,40139 94735,40151 94732,40163 94731,40175 94730,40187 94730,42313 94731,42325 94732,42337 94735,42349 94740,42361 94745,42372 94751,42382 94758,42392 94767,42401 94776,42410 94785,42417 94796,42423 94807,42428 94818,42432 94830,42436 94843,42437 94855,42438 Z"/>
   </g>
  </g>
  <g class="com.sun.star.drawing.PolyPolygonShape">
   <g id="id5">
    <rect class="BoundingBox" stroke="none" fill="none" x="94791" y="40124" width="1418" height="2253"/>
    <path fill="rgb(0,0,255)" stroke="none" d="M 94855,42375 L 96145,42375 96157,42374 96169,42371 96180,42365 96189,42357 96197,42348 96203,42337 96206,42325 96207,42313 96207,40187 96206,40175 96203,40163 96197,40152 96189,40143 96180,40135 96169,40129 96157,40126 96145,40125 94855,40125 94843,40126 94831,40129 94820,40135 94811,40143 94803,40152 94797,40163 94794,40175 94792,40187 94792,42313 94794,42325 94797,42337 94803,42348 94811,42357 94820,42365 94831,42371 94843,42374 94855,42375 Z"/>
    <path fill="none" stroke="rgb(0,0,255)" d="M 94855,42375 L 96145,42375 96157,42374 96169,42371 96180,42365 96189,42357 96197,42348 96203,42337 96206,42325 96207,42313 96207,40187 96206,40175 96203,40163 96197,40152 96189,40143 96180,40135 96169,40129 96157,40126 96145,40125 94855,40125 94843,40126 94831,40129 94820,40135 94811,40143 94803,40152 94797,40163 94794,40175 94792,40187 94792,42313 94794,42325 94797,42337 94803,42348 94811,42357 94820,42365 94831,42371 94843,42374 94855,42375 Z"/>
   </g>
  </g>
  <g class="com.sun.star.drawing.PolyPolygonShape">
   <g id="id6">
    <rect class="BoundingBox" stroke="none" fill="none" x="95071" y="40415" width="859" height="1671"/>
    <path fill="rgb(255,255,255)" stroke="none" d="M 95072,42084 L 95072,40416 95309,40416 95309,41131 95691,41131 95691,40416 95928,40416 95928,42084 95691,42084 95691,41346 95309,41346 95309,42084 95072,42084 Z"/>
    <path fill="none" stroke="rgb(255,255,255)" d="M 95072,42084 L 95072,40416 95309,40416 95309,41131 95691,41131 95691,40416 95928,40416 95928,42084 95691,42084 95691,41346 95309,41346 95309,42084 95072,42084 Z"/>
   </g>
  </g>
  <g class="com.sun.star.drawing.PolyPolygonShape">
   <g id="id7">
    <rect class="BoundingBox" stroke="none" fill="none" x="95071" y="40415" width="859" height="1671"/>
    <path fill="rgb(255,255,255)" stroke="none" d="M 95072,42084 L 95072,40416 95309,40416 95309,41131 95691,41131 95691,40416 95928,40416 95928,42084 95691,42084 95691,41346 95309,41346 95309,42084 95072,42084 Z"/>
    <path fill="none" stroke="rgb(255,255,255)" d="M 95072,42084 L 95072,40416 95309,40416 95309,41131 95691,41131 95691,40416 95928,40416 95928,42084 95691,42084 95691,41346 95309,41346 95309,42084 95072,42084 Z"/>
   </g>
  </g>
 </g>
</svg>