<?xml version="1.0" encoding="UTF-8"?>
<!DOCTYPE svg PUBLIC "-//W3C//DTD SVG 1.1//EN" "http://www.w3.org/Graphics/SVG/1.1/DTD/svg11.dtd">
<svg version="1.2" width="16.61mm" height="25.03mm" viewBox="96870 39999 1661 2503" preserveAspectRatio="xMidYMid" fill-rule="evenodd" stroke-width="28.222" stroke-linejoin="round" xmlns="http://www.w3.org/2000/svg" xmlns:ooo="http://xml.openoffice.org/svg/export" xmlns:xlink="http://www.w3.org/1999/xlink" xmlns:presentation="http://sun.com/xmlns/staroffice/presentation" xmlns:smil="http://www.w3.org/2001/SMIL20/" xmlns:anim="urn:oasis:names:tc:opendocument:xmlns:animation:1.0" xml:space="preserve">
 <defs class="EmbeddedBulletChars">
  <g id="bullet-char-template-57356" transform="scale(0.00048828125,-0.00048828125)">
   <path d="M 580,1141 L 1163,571 580,0 -4,571 580,1141 Z"/>
  </g>
  <g id="bullet-char-template-57354" transform="scale(0.00048828125,-0.00048828125)">
   <path d="M 8,1128 L 1137,1128 1137,0 8,0 8,1128 Z"/>
  </g>
  <g id="bullet-char-template-10146" transform="scale(0.00048828125,-0.00048828125)">
   <path d="M 174,0 L 602,739 174,1481 1456,739 174,0 Z M 1358,739 L 309,1346 659,739 1358,739 Z"/>
  </g>
  <g id="bullet-char-template-10132" transform="scale(0.00048828125,-0.00048828125)">
   <path d="M 2015,739 L 1276,0 717,0 1260,543 174,543 174,936 1260,936 717,1481 1274,1481 2015,739 Z"/>
  </g>
  <g id="bullet-char-template-10007" transform="scale(0.00048828125,-0.00048828125)">
   <path d="M 0,-2 C -7,14 -16,27 -25,37 L 356,567 C 262,823 215,952 215,954 215,979 228,992 255,992 264,992 276,990 289,987 310,991 331,999 354,1012 L 381,999 492,748 772,1049 836,1024 860,1049 C 881,1039 901,1025 922,1006 886,937 835,863 770,784 769,783 710,716 594,584 L 774,223 C 774,196 753,168 711,139 L 727,119 C 717,90 699,76 672,76 641,76 570,178 457,381 L 164,-76 C 142,-110 111,-127 72,-127 30,-127 9,-110 8,-76 1,-67 -2,-52 -2,-32 -2,-23 -1,-13 0,-2 Z"/>
  </g>
  <g id="bullet-char-template-10004" transform="scale(0.00048828125,-0.00048828125)">
   <path d="M 285,-33 C 182,-33 111,30 74,156 52,228 41,333 41,471 41,549 55,616 82,672 116,743 169,778 240,778 293,778 328,747 346,684 L 369,508 C 377,444 397,411 428,410 L 1163,1116 C 1174,1127 1196,1133 1229,1133 1271,1133 1292,1118 1292,1087 L 1292,965 C 1292,929 1282,901 1262,881 L 442,47 C 390,-6 338,-33 285,-33 Z"/>
  </g>
  <g id="bullet-char-template-9679" transform="scale(0.00048828125,-0.00048828125)">
   <path d="M 813,0 C 632,0 489,54 383,161 276,268 223,411 223,592 223,773 276,916 383,1023 489,1130 632,1184 813,1184 992,1184 1136,1130 1245,1023 1353,916 1407,772 1407,592 1407,412 1353,268 1245,161 1136,54 992,0 813,0 Z"/>
  </g>
  <g id="bullet-char-template-8226" transform="scale(0.00048828125,-0.00048828125)">
   <path d="M 346,457 C 273,457 209,483 155,535 101,586 74,649 74,723 74,796 101,859 155,911 209,963 273,989 346,989 419,989 480,963 531,910 582,859 608,796 608,723 608,648 583,586 532,535 482,483 420,457 346,457 Z"/>
  </g>
  <g id="bullet-char-template-8211" transform="scale(0.00048828125,-0.00048828125)">
   <path d="M -4,459 L 1135,459 1135,606 -4,606 -4,459 Z"/>
  </g>
  <g id="bullet-char-template-61548" transform="scale(0.00048828125,-0.00048828125)">
   <path d="M 173,740 C 173,903 231,1043 346,1159 462,1274 601,1332 765,1332 928,1332 1067,1274 1183,1159 1299,1043 1357,903 1357,740 1357,577 1299,437 1183,322 1067,206 928,148 765,148 601,148 462,206 346,322 231,437 173,577 173,740 Z"/>
  </g>
 </defs>
 <g class="Page">
  <g class="com.sun.star.drawing.PolyPolygonShape">
   <g id="id3">
    <rect class="BoundingBox" stroke="none" fill="none" x="96870" y="39999" width="1661" height="2503"/>
    <path fill="rgb(0,0,255)" stroke="none" d="M 97058,42500 L 98343,42500 98361,42499 98379,42497 98397,42492 98414,42486 98431,42478 98446,42469 98461,42458 98475,42445 98487,42432 98498,42417 98507,42401 98515,42385 98521,42367 98526,42349 98528,42331 98529,42313 98529,40187 98528,40169 98526,40151 98521,40133 98515,40115 98507,40099 98498,40083 98487,40068 98475,40054 98461,40042 98446,40031 98431,40022 98414,40014 98397,40008 98379,40003 98361,40000 98343,40000 97058,40000 97040,40000 97022,40003 97004,40008 96987,40014 96970,40022 96954,40031 96940,40042 96925,40054 96913,40068 96902,40083 96893,40099 96885,40115 96879,40133 96874,40151 96871,40169 96871,40187 96871,42313 96871,42331 96874,42349 96879,42367 96885,42385 96893,42401 96902,42417 96913,42432 96925,42445 96940,42458 96954,42469 96970,42478 96987,42486 97004,42492 97022,42497 97040,42499 97058,42500 Z"/>
    <path fill="none" stroke="rgb(0,0,255)" d="M 97058,42500 L 98343,42500 98361,42499 98379,42497 98397,42492 98414,42486 98431,42478 98446,42469 98461,42458 98475,42445 98487,42432 98498,42417 98507,42401 98515,42385 98521,42367 98526,42349 98528,42331 98529,42313 98529,40187 98528,40169 98526,40151 98521,40133 98515,40115 98507,40099 98498,40083 98487,40068 98475,40054 98461,40042 98446,40031 98431,40022 98414,40014 98397,40008 98379,40003 98361,40000 98343,40000 97058,40000 97040,40000 97022,40003 97004,40008 96987,40014 96970,40022 96954,40031 96940,40042 96925,40054 96913,40068 96902,40083 96893,40099 96885,40115 96879,40133 96874,40151 96871,40169 96871,40187 96871,42313 96871,42331 96874,42349 96879,42367 96885,42385 96893,42401 96902,42417 96913,42432 96925,42445 96940,42458 96954,42469 96970,42478 96987,42486 97004,42492 97022,42497 97040,42499 97058,42500 Z"/>
   </g>
  </g>
  <g class="com.sun.star.drawing.PolyPolygonShape">
   <g id="id4">
    <rect class="BoundingBox" stroke="none" fill="none" x="96932" y="40061" width="1537" height="2379"/>
    <path fill="rgb(255,255,255)" stroke="none" d="M 97057,42438 L 98343,42438 98355,42437 98367,42436 98379,42432 98390,42428 98401,42423 98412,42417 98422,42410 98431,42401 98439,42392 98446,42382 98452,42372 98458,42361 98462,42349 98465,42337 98466,42325 98467,42313 98467,40187 98466,40175 98465,40163 98462,40151 98458,40139 98452,40128 98446,40118 98439,40108 98431,40099 98422,40090 98412,40083 98401,40077 98390,40072 98379,40067 98367,40064 98355,40063 98343,40062 97057,40062 97045,40063 97033,40064 97021,40067 97010,40072 96998,40077 96988,40083 96978,40090 96969,40099 96961,40108 96954,40118 96947,40128 96942,40139 96938,40151 96935,40163 96933,40175 96933,40187 96933,42313 96933,42325 96935,42337 96938,42349 96942,42361 96947,42372 96954,42382 96961,42392 96969,42401 96978,42410 96988,42417 96998,42423 97010,42428 97021,42432 97033,42436 97045,42437 97057,42438 Z"/>
    <path fill="none" stroke="rgb(255,255,255)" d="M 97057,42438 L 98343,42438 98355,42437 98367,42436 98379,42432 98390,42428 98401,42423 98412,42417 98422,42410 98431,42401 98439,42392 98446,42382 98452,42372 98458,42361 98462,42349 98465,42337 98466,42325 98467,42313 98467,40187 98466,40175 98465,40163 98462,40151 98458,40139 98452,40128 98446,40118 98439,40108 98431,40099 98422,40090 98412,40083 98401,40077 98390,40072 98379,40067 98367,40064 98355,40063 98343,40062 97057,40062 97045,40063 97033,40064 97021,40067 97010,40072 96998,40077 96988,40083 96978,40090 96969,40099 96961,40108 96954,40118 96947,40128 96942,40139 96938,40151 96935,40163 96933,40175 96933,40187 96933,42313 96933,42325 96935,42337 96938,42349 96942,42361 96947,42372 96954,42382 96961,42392 96969,42401 96978,42410 96988,42417 96998,42423 97010,42428 97021,42432 97033,42436 97045,42437 97057,42438 Z"/>
   </g>
  </g>
  <g class="com.sun.star.drawing.PolyPolygonShape">
   <g id="id5">
    <rect class="BoundingBox" stroke="none" fill="none" x="96994" y="40124" width="1413" height="2253"/>
    <path fill="rgb(0,0,255)" stroke="none" d="M 97057,42375 L 98343,42375 98355,42374 98366,42371 98377,42365 98387,42357 98394,42348 98400,42337 98404,42325 98405,42313 98405,40187 98404,40175 98400,40163 98394,40152 98387,40143 98377,40135 98366,40129 98355,40126 98343,40125 97057,40125 97045,40126 97033,40129 97023,40135 97013,40143 97005,40152 97000,40163 96996,40175 96995,40187 96995,42313 96996,42325 97000,42337 97005,42348 97013,42357 97023,42365 97033,42371 97045,42374 97057,42375 Z"/>
    <path fill="none" stroke="rgb(0,0,255)" d="M 97057,42375 L 98343,42375 98355,42374 98366,42371 98377,42365 98387,42357 98394,42348 98400,42337 98404,42325 98405,42313 98405,40187 98404,40175 98400,40163 98394,40152 98387,40143 98377,40135 98366,40129 98355,40126 98343,40125 97057,40125 97045,40126 97033,40129 97023,40135 97013,40143 97005,40152 97000,40163 96996,40175 96995,40187 96995,42313 96996,42325 97000,42337 97005,42348 97013,42357 97023,42365 97033,42371 97045,42374 97057,42375 Z"/>
   </g>
  </g>
  <g class="com.sun.star.drawing.PolyPolygonShape">
   <g id="id6">
    <rect class="BoundingBox" stroke="none" fill="none" x="97098" y="40644" width="1205" height="1213"/>
    <path fill="rgb(255,255,255)" stroke="none" d="M 97099,40645 L 98301,40645 98301,41855 97099,41855 97099,40645 Z"/>
    <path fill="none" stroke="rgb(255,255,255)" d="M 97099,40645 L 98301,40645 98301,41855 97099,41855 97099,40645 Z"/>
   </g>
  </g>
  <g class="com.sun.star.drawing.PolyPolygonShape">
   <g id="id7">
    <rect class="BoundingBox" stroke="none" fill="none" x="97201" y="40748" width="999" height="1004"/>
    <path fill="rgb(255,0,0)" stroke="none" d="M 97534,40749 L 97534,41083 97202,41083 97202,41416 97534,41416 97534,41750 97865,41750 97865,41416 98198,41416 98198,41083 97865,41083 97865,40749 97534,40749 Z"/>
    <path fill="none" stroke="rgb(255,0,0)" d="M 97534,40749 L 97534,41083 97202,41083 97202,41416 97534,41416 97534,41750 97865,41750 97865,41416 98198,41416 98198,41083 97865,41083 97865,40749 97534,40749 Z"/>
   </g>
  </g>
  <g class="com.sun.star.drawing.PolyPolygonShape">
   <g id="id8">
    <rect class="BoundingBox" stroke="none" fill="none" x="97201" y="40748" width="999" height="1004"/>
    <path fill="rgb(255,0,0)" stroke="none" d="M 97534,40749 L 97534,41083 97202,41083 97202,41416 97534,41416 97534,41750 97865,41750 97865,41416 98198,41416 98198,41083 97865,41083 97865,40749 97534,40749 Z"/>
    <path fill="none" stroke="rgb(255,0,0)" d="M 97534,40749 L 97534,41083 97202,41083 97202,41416 97534,41416 97534,41750 97865,41750 97865,41416 98198,41416 98198,41083 97865,41083 97865,40749 97534,40749 Z"/>
   </g>
  </g>
 </g>
</svg>