<?xml version="1.0" encoding="UTF-8"?>
<!DOCTYPE svg PUBLIC "-//W3C//DTD SVG 1.1//EN" "http://www.w3.org/Graphics/SVG/1.1/DTD/svg11.dtd">
<svg version="1.2" width="16.61mm" height="25.03mm" viewBox="99070 39999 1661 2503" preserveAspectRatio="xMidYMid" fill-rule="evenodd" stroke-width="28.222" stroke-linejoin="round" xmlns="http://www.w3.org/2000/svg" xmlns:ooo="http://xml.openoffice.org/svg/export" xmlns:xlink="http://www.w3.org/1999/xlink" xmlns:presentation="http://sun.com/xmlns/staroffice/presentation" xmlns:smil="http://www.w3.org/2001/SMIL20/" xmlns:anim="urn:oasis:names:tc:opendocument:xmlns:animation:1.0" xml:space="preserve">
 <defs class="EmbeddedBulletChars">
  <g id="bullet-char-template-57356" transform="scale(0.00048828125,-0.00048828125)">
   <path d="M 580,1141 L 1163,571 580,0 -4,571 580,1141 Z"/>
  </g>
  <g id="bullet-char-template-57354" transform="scale(0.00048828125,-0.00048828125)">
   <path d="M 8,1128 L 1137,1128 1137,0 8,0 8,1128 Z"/>
  </g>
  <g id="bullet-char-template-10146" transform="scale(0.00048828125,-0.00048828125)">
   <path d="M 174,0 L 602,739 174,1481 1456,739 174,0 Z M 1358,739 L 309,1346 659,739 1358,739 Z"/>
  </g>
  <g id="bullet-char-template-10132" transform="scale(0.00048828125,-0.00048828125)">
   <path d="M 2015,739 L 1276,0 717,0 1260,543 174,543 174,936 1260,936 717,1481 1274,1481 2015,739 Z"/>
  </g>
  <g id="bullet-char-template-10007" transform="scale(0.00048828125,-0.00048828125)">
   <path d="M 0,-2 C -7,14 -16,27 -25,37 L 356,567 C 262,823 215,952 215,954 215,979 228,992 255,992 264,992 276,990 289,987 310,991 331,999 354,1012 L 381,999 492,748 772,1049 836,1024 860,1049 C 881,1039 901,1025 922,1006 886,937 835,863 770,784 769,783 710,716 594,584 L 774,223 C 774,196 753,168 711,139 L 727,119 C 717,90 699,76 672,76 641,76 570,178 457,381 L 164,-76 C 142,-110 111,-127 72,-127 30,-127 9,-110 8,-76 1,-67 -2,-52 -2,-32 -2,-23 -1,-13 0,-2 Z"/>
  </g>
  <g id="bullet-char-template-10004" transform="scale(0.00048828125,-0.00048828125)">
   <path d="M 285,-33 C 182,-33 111,30 74,156 52,228 41,333 41,471 41,549 55,616 82,672 116,743 169,778 240,778 293,778 328,747 346,684 L 369,508 C 377,444 397,411 428,410 L 1163,1116 C 1174,1127 1196,1133 1229,1133 1271,1133 1292,1118 1292,1087 L 1292,965 C 1292,929 1282,901 1262,881 L 442,47 C 390,-6 338,-33 285,-33 Z"/>
  </g>
  <g id="bullet-char-template-9679" transform="scale(0.00048828125,-0.00048828125)">
   <path d="M 813,0 C 632,0 489,54 383,161 276,268 223,411 223,592 223,773 276,916 383,1023 489,1130 632,1184 813,1184 992,1184 1136,1130 1245,1023 1353,916 1407,772 1407,592 1407,412 1353,268 1245,161 1136,54 992,0 813,0 Z"/>
  </g>
  <g id="bullet-char-template-8226" transform="scale(0.00048828125,-0.00048828125)">
   <path d="M 346,457 C 273,457 209,483 155,535 101,586 74,649 74,723 74,796 101,859 155,911 209,963 273,989 346,989 419,989 480,963 531,910 582,859 608,796 608,723 608,648 583,586 532,535 482,483 420,457 346,457 Z"/>
  </g>
  <g id="bullet-char-template-8211" transform="scale(0.00048828125,-0.00048828125)">
   <path d="M -4,459 L 1135,459 1135,606 -4,606 -4,459 Z"/>
  </g>
  <g id="bullet-char-template-61548" transform="scale(0.00048828125,-0.00048828125)">
   <path d="M 173,740 C 173,903 231,1043 346,1159 462,1274 601,1332 765,1332 928,1332 1067,1274 1183,1159 1299,1043 1357,903 1357,740 1357,577 1299,437 1183,322 1067,206 928,148 765,148 601,148 462,206 346,322 231,437 173,577 173,740 Z"/>
  </g>
 </defs>
 <g class="Page">
  <g class="com.sun.star.drawing.PolyPolygonShape">
   <g id="id3">
    <rect class="BoundingBox" stroke="none" fill="none" x="99070" y="39999" width="1661" height="2503"/>
    <path fill="rgb(0,0,255)" stroke="none" d="M 99251,42500 L 100549,42500 100567,42499 100584,42497 100601,42493 100618,42487 100634,42479 100649,42470 100663,42460 100676,42448 100688,42434 100699,42420 100708,42405 100715,42389 100721,42372 100725,42355 100728,42338 100729,42320 100729,40180 100728,40162 100725,40145 100721,40128 100715,40111 100708,40095 100699,40080 100688,40066 100676,40052 100663,40040 100649,40030 100634,40021 100618,40013 100601,40007 100584,40003 100567,40000 100549,40000 99251,40000 99233,40000 99216,40003 99198,40007 99182,40013 99166,40021 99151,40030 99137,40040 99124,40052 99112,40066 99101,40080 99092,40095 99085,40111 99079,40128 99075,40145 99072,40162 99071,40180 99071,42320 99072,42338 99075,42355 99079,42372 99085,42389 99092,42405 99101,42420 99112,42434 99124,42448 99137,42460 99151,42470 99166,42479 99182,42487 99198,42493 99216,42497 99233,42499 99251,42500 Z"/>
    <path fill="none" stroke="rgb(0,0,255)" d="M 99251,42500 L 100549,42500 100567,42499 100584,42497 100601,42493 100618,42487 100634,42479 100649,42470 100663,42460 100676,42448 100688,42434 100699,42420 100708,42405 100715,42389 100721,42372 100725,42355 100728,42338 100729,42320 100729,40180 100728,40162 100725,40145 100721,40128 100715,40111 100708,40095 100699,40080 100688,40066 100676,40052 100663,40040 100649,40030 100634,40021 100618,40013 100601,40007 100584,40003 100567,40000 100549,40000 99251,40000 99233,40000 99216,40003 99198,40007 99182,40013 99166,40021 99151,40030 99137,40040 99124,40052 99112,40066 99101,40080 99092,40095 99085,40111 99079,40128 99075,40145 99072,40162 99071,40180 99071,42320 99072,42338 99075,42355 99079,42372 99085,42389 99092,42405 99101,42420 99112,42434 99124,42448 99137,42460 99151,42470 99166,42479 99182,42487 99198,42493 99216,42497 99233,42499 99251,42500 Z"/>
   </g>
  </g>
  <g class="com.sun.star.drawing.PolyPolygonShape">
   <g id="id4">
    <rect class="BoundingBox" stroke="none" fill="none" x="99112" y="40040" width="1577" height="2421"/>
    <path fill="rgb(255,255,255)" stroke="none" d="M 99251,42459 L 100549,42459 100563,42458 100576,42456 100589,42453 100602,42448 100614,42442 100626,42435 100637,42427 100647,42418 100656,42408 100664,42397 100671,42385 100677,42373 100681,42360 100685,42347 100687,42333 100687,42320 100687,40180 100687,40166 100685,40153 100681,40140 100677,40127 100671,40115 100664,40103 100656,40092 100647,40082 100637,40073 100626,40065 100614,40058 100602,40052 100589,40047 100576,40044 100563,40042 100549,40041 99251,40041 99237,40042 99224,40044 99211,40047 99198,40052 99186,40058 99174,40065 99163,40073 99153,40082 99144,40092 99136,40103 99129,40115 99123,40127 99118,40140 99115,40153 99113,40166 99113,40180 99113,42320 99113,42333 99115,42347 99118,42360 99123,42373 99129,42385 99136,42397 99144,42408 99153,42418 99163,42427 99174,42435 99186,42442 99198,42448 99211,42453 99224,42456 99237,42458 99251,42459 Z"/>
    <path fill="none" stroke="rgb(255,255,255)" d="M 99251,42459 L 100549,42459 100563,42458 100576,42456 100589,42453 100602,42448 100614,42442 100626,42435 100637,42427 100647,42418 100656,42408 100664,42397 100671,42385 100677,42373 100681,42360 100685,42347 100687,42333 100687,42320 100687,40180 100687,40166 100685,40153 100681,40140 100677,40127 100671,40115 100664,40103 100656,40092 100647,40082 100637,40073 100626,40065 100614,40058 100602,40052 100589,40047 100576,40044 100563,40042 100549,40041 99251,40041 99237,40042 99224,40044 99211,40047 99198,40052 99186,40058 99174,40065 99163,40073 99153,40082 99144,40092 99136,40103 99129,40115 99123,40127 99118,40140 99115,40153 99113,40166 99113,40180 99113,42320 99113,42333 99115,42347 99118,42360 99123,42373 99129,42385 99136,42397 99144,42408 99153,42418 99163,42427 99174,42435 99186,42442 99198,42448 99211,42453 99224,42456 99237,42458 99251,42459 Z"/>
   </g>
  </g>
  <g class="com.sun.star.drawing.PolyPolygonShape">
   <g id="id5">
    <rect class="BoundingBox" stroke="none" fill="none" x="99153" y="40082" width="1495" height="2337"/>
    <path fill="rgb(0,0,255)" stroke="none" d="M 99251,42417 L 100548,42417 100558,42417 100567,42415 100576,42413 100585,42410 100594,42406 100602,42401 100610,42395 100617,42389 100623,42381 100629,42374 100634,42366 100638,42357 100641,42348 100644,42339 100646,42329 100646,42320 100646,40180 100646,40171 100644,40161 100641,40152 100638,40143 100634,40134 100629,40126 100623,40118 100617,40111 100610,40105 100602,40099 100594,40094 100585,40090 100576,40087 100567,40085 100558,40083 100548,40083 99251,40083 99241,40083 99232,40085 99223,40087 99214,40090 99205,40094 99197,40099 99189,40105 99182,40111 99176,40118 99170,40126 99165,40134 99161,40143 99158,40152 99156,40161 99154,40171 99154,40180 99154,42320 99154,42329 99156,42339 99158,42348 99161,42357 99165,42366 99170,42374 99176,42381 99182,42389 99189,42395 99197,42401 99205,42406 99214,42410 99223,42413 99232,42415 99241,42417 99251,42417 Z"/>
    <path fill="none" stroke="rgb(0,0,255)" d="M 99251,42417 L 100548,42417 100558,42417 100567,42415 100576,42413 100585,42410 100594,42406 100602,42401 100610,42395 100617,42389 100623,42381 100629,42374 100634,42366 100638,42357 100641,42348 100644,42339 100646,42329 100646,42320 100646,40180 100646,40171 100644,40161 100641,40152 100638,40143 100634,40134 100629,40126 100623,40118 100617,40111 100610,40105 100602,40099 100594,40094 100585,40090 100576,40087 100567,40085 100558,40083 100548,40083 99251,40083 99241,40083 99232,40085 99223,40087 99214,40090 99205,40094 99197,40099 99189,40105 99182,40111 99176,40118 99170,40126 99165,40134 99161,40143 99158,40152 99156,40161 99154,40171 99154,40180 99154,42320 99154,42329 99156,42339 99158,42348 99161,42357 99165,42366 99170,42374 99176,42381 99182,42389 99189,42395 99197,42401 99205,42406 99214,42410 99223,42413 99232,42415 99241,42417 99251,42417 Z"/>
   </g>
  </g>
  <g class="com.sun.star.drawing.PolyPolygonShape">
   <g id="id6">
    <rect class="BoundingBox" stroke="none" fill="none" x="99491" y="40568" width="819" height="1365"/>
    <path fill="rgb(255,255,255)" stroke="none" d="M 99492,40569 L 100308,40569 100308,41931 99492,41931 99492,40569 Z"/>
    <path fill="none" stroke="rgb(255,255,255)" d="M 99492,40569 L 100308,40569 100308,41931 99492,41931 99492,40569 Z"/>
   </g>
  </g>
  <g class="com.sun.star.drawing.PolyPolygonShape">
   <g id="id7">
    <rect class="BoundingBox" stroke="none" fill="none" x="99613" y="40651" width="622" height="1165"/>
    <path fill="rgb(255,0,0)" stroke="none" d="M 100110,40766 L 100110,40778 100027,40778 100027,40857 100037,40862 100045,40868 100054,40874 100062,40881 100069,40888 100076,40896 100082,40904 100088,40913 100093,40922 100097,40932 100101,40942 100104,40952 100107,40962 100109,40972 100110,40983 100110,40993 100110,41814 99779,41814 99779,40993 99780,40983 99781,40972 99783,40962 99785,40952 99788,40942 99792,40932 99797,40922 99802,40913 99808,40904 99814,40896 99821,40888 99828,40881 99836,40874 99844,40867 99853,40862 99862,40857 99862,40777 99836,40784 99810,40792 99785,40803 99761,40815 99750,40822 99739,40830 99729,40838 99719,40847 99709,40858 99701,40870 99695,40883 99690,40897 99673,40974 99614,40965 99633,40881 99637,40867 99642,40854 99649,40841 99656,40829 99669,40811 99683,40793 99698,40776 99714,40760 99724,40750 99735,40741 99747,40733 99759,40726 99772,40719 99785,40713 99799,40708 99812,40704 99837,40698 99861,40693 99861,40652 100009,40652 100015,40692 100110,40692 100110,40706 100233,40706 100233,40766 100110,40766 Z"/>
    <path fill="none" stroke="rgb(255,0,0)" d="M 100110,40766 L 100110,40778 100027,40778 100027,40857 100037,40862 100045,40868 100054,40874 100062,40881 100069,40888 100076,40896 100082,40904 100088,40913 100093,40922 100097,40932 100101,40942 100104,40952 100107,40962 100109,40972 100110,40983 100110,40993 100110,41814 99779,41814 99779,40993 99780,40983 99781,40972 99783,40962 99785,40952 99788,40942 99792,40932 99797,40922 99802,40913 99808,40904 99814,40896 99821,40888 99828,40881 99836,40874 99844,40867 99853,40862 99862,40857 99862,40777 99836,40784 99810,40792 99785,40803 99761,40815 99750,40822 99739,40830 99729,40838 99719,40847 99709,40858 99701,40870 99695,40883 99690,40897 99673,40974 99614,40965 99633,40881 99637,40867 99642,40854 99649,40841 99656,40829 99669,40811 99683,40793 99698,40776 99714,40760 99724,40750 99735,40741 99747,40733 99759,40726 99772,40719 99785,40713 99799,40708 99812,40704 99837,40698 99861,40693 99861,40652 100009,40652 100015,40692 100110,40692 100110,40706 100233,40706 100233,40766 100110,40766 Z"/>
   </g>
  </g>
  <g class="com.sun.star.drawing.PolyPolygonShape">
   <g id="id8">
    <rect class="BoundingBox" stroke="none" fill="none" x="99613" y="40651" width="622" height="1165"/>
    <path fill="rgb(255,0,0)" stroke="none" d="M 100110,40766 L 100110,40778 100027,40778 100027,40857 100037,40862 100045,40868 100054,40874 100062,40881 100069,40888 100076,40896 100082,40904 100088,40913 100093,40922 100097,40932 100101,40942 100104,40952 100107,40962 100109,40972 100110,40983 100110,40993 100110,41814 99779,41814 99779,40993 99780,40983 99781,40972 99783,40962 99785,40952 99788,40942 99792,40932 99797,40922 99802,40913 99808,40904 99814,40896 99821,40888 99828,40881 99836,40874 99844,40867 99853,40862 99862,40857 99862,40777 99836,40784 99810,40792 99785,40803 99761,40815 99750,40822 99739,40830 99729,40838 99719,40847 99709,40858 99701,40870 99695,40883 99690,40897 99673,40974 99614,40965 99633,40881 99637,40867 99642,40854 99649,40841 99656,40829 99669,40811 99683,40793 99698,40776 99714,40760 99724,40750 99735,40741 99747,40733 99759,40726 99772,40719 99785,40713 99799,40708 99812,40704 99837,40698 99861,40693 99861,40652 100009,40652 100015,40692 100110,40692 100110,40706 100233,40706 100233,40766 100110,40766 Z"/>
    <path fill="none" stroke="rgb(255,0,0)" d="M 100110,40766 L 100110,40778 100027,40778 100027,40857 100037,40862 100045,40868 100054,40874 100062,40881 100069,40888 100076,40896 100082,40904 100088,40913 100093,40922 100097,40932 100101,40942 100104,40952 100107,40962 100109,40972 100110,40983 100110,40993 100110,41814 99779,41814 99779,40993 99780,40983 99781,40972 99783,40962 99785,40952 99788,40942 99792,40932 99797,40922 99802,40913 99808,40904 99814,40896 99821,40888 99828,40881 99836,40874 99844,40867 99853,40862 99862,40857 99862,40777 99836,40784 99810,40792 99785,40803 99761,40815 99750,40822 99739,40830 99729,40838 99719,40847 99709,40858 99701,40870 99695,40883 99690,40897 99673,40974 99614,40965 99633,40881 99637,40867 99642,40854 99649,40841 99656,40829 99669,40811 99683,40793 99698,40776 99714,40760 99724,40750 99735,40741 99747,40733 99759,40726 99772,40719 99785,40713 99799,40708 99812,40704 99837,40698 99861,40693 99861,40652 100009,40652 100015,40692 100110,40692 100110,40706 100233,40706 100233,40766 100110,40766 Z"/>
   </g>
  </g>
 </g>
</svg>