<?xml version="1.0" encoding="UTF-8"?>
<!DOCTYPE svg PUBLIC "-//W3C//DTD SVG 1.1//EN" "http://www.w3.org/Graphics/SVG/1.1/DTD/svg11.dtd">
<svg version="1.2" width="65.05mm" height="9.03mm" viewBox="101248 39999 6505 903" preserveAspectRatio="xMidYMid" fill-rule="evenodd" stroke-width="28.222" stroke-linejoin="round" xmlns="http://www.w3.org/2000/svg" xmlns:ooo="http://xml.openoffice.org/svg/export" xmlns:xlink="http://www.w3.org/1999/xlink" xmlns:presentation="http://sun.com/xmlns/staroffice/presentation" xmlns:smil="http://www.w3.org/2001/SMIL20/" xmlns:anim="urn:oasis:names:tc:opendocument:xmlns:animation:1.0" xml:space="preserve">
 <defs class="EmbeddedBulletChars">
  <g id="bullet-char-template-57356" transform="scale(0.00048828125,-0.00048828125)">
   <path d="M 580,1141 L 1163,571 580,0 -4,571 580,1141 Z"/>
  </g>
  <g id="bullet-char-template-57354" transform="scale(0.00048828125,-0.00048828125)">
   <path d="M 8,1128 L 1137,1128 1137,0 8,0 8,1128 Z"/>
  </g>
  <g id="bullet-char-template-10146" transform="scale(0.00048828125,-0.00048828125)">
   <path d="M 174,0 L 602,739 174,1481 1456,739 174,0 Z M 1358,739 L 309,1346 659,739 1358,739 Z"/>
  </g>
  <g id="bullet-char-template-10132" transform="scale(0.00048828125,-0.00048828125)">
   <path d="M 2015,739 L 1276,0 717,0 1260,543 174,543 174,936 1260,936 717,1481 1274,1481 2015,739 Z"/>
  </g>
  <g id="bullet-char-template-10007" transform="scale(0.00048828125,-0.00048828125)">
   <path d="M 0,-2 C -7,14 -16,27 -25,37 L 356,567 C 262,823 215,952 215,954 215,979 228,992 255,992 264,992 276,990 289,987 310,991 331,999 354,1012 L 381,999 492,748 772,1049 836,1024 860,1049 C 881,1039 901,1025 922,1006 886,937 835,863 770,784 769,783 710,716 594,584 L 774,223 C 774,196 753,168 711,139 L 727,119 C 717,90 699,76 672,76 641,76 570,178 457,381 L 164,-76 C 142,-110 111,-127 72,-127 30,-127 9,-110 8,-76 1,-67 -2,-52 -2,-32 -2,-23 -1,-13 0,-2 Z"/>
  </g>
  <g id="bullet-char-template-10004" transform="scale(0.00048828125,-0.00048828125)">
   <path d="M 285,-33 C 182,-33 111,30 74,156 52,228 41,333 41,471 41,549 55,616 82,672 116,743 169,778 240,778 293,778 328,747 346,684 L 369,508 C 377,444 397,411 428,410 L 1163,1116 C 1174,1127 1196,1133 1229,1133 1271,1133 1292,1118 1292,1087 L 1292,965 C 1292,929 1282,901 1262,881 L 442,47 C 390,-6 338,-33 285,-33 Z"/>
  </g>
  <g id="bullet-char-template-9679" transform="scale(0.00048828125,-0.00048828125)">
   <path d="M 813,0 C 632,0 489,54 383,161 276,268 223,411 223,592 223,773 276,916 383,1023 489,1130 632,1184 813,1184 992,1184 1136,1130 1245,1023 1353,916 1407,772 1407,592 1407,412 1353,268 1245,161 1136,54 992,0 813,0 Z"/>
  </g>
  <g id="bullet-char-template-8226" transform="scale(0.00048828125,-0.00048828125)">
   <path d="M 346,457 C 273,457 209,483 155,535 101,586 74,649 74,723 74,796 101,859 155,911 209,963 273,989 346,989 419,989 480,963 531,910 582,859 608,796 608,723 608,648 583,586 532,535 482,483 420,457 346,457 Z"/>
  </g>
  <g id="bullet-char-template-8211" transform="scale(0.00048828125,-0.00048828125)">
   <path d="M -4,459 L 1135,459 1135,606 -4,606 -4,459 Z"/>
  </g>
  <g id="bullet-char-template-61548" transform="scale(0.00048828125,-0.00048828125)">
   <path d="M 173,740 C 173,903 231,1043 346,1159 462,1274 601,1332 765,1332 928,1332 1067,1274 1183,1159 1299,1043 1357,903 1357,740 1357,577 1299,437 1183,322 1067,206 928,148 765,148 601,148 462,206 346,322 231,437 173,577 173,740 Z"/>
  </g>
 </defs>
 <g class="Page">
  <g class="com.sun.star.drawing.PolyPolygonShape">
   <g id="id3">
    <rect class="BoundingBox" stroke="none" fill="none" x="101248" y="39999" width="6505" height="903"/>
    <path fill="rgb(255,255,255)" stroke="none" d="M 107751,40450 L 107751,40226 107751,40220 107751,40214 107750,40209 107750,40203 107749,40198 107749,40192 107748,40187 107747,40181 107745,40176 107744,40171 107742,40165 107741,40160 107739,40155 107738,40150 107736,40145 107734,40139 107731,40134 107729,40129 107727,40124 107724,40119 107721,40114 107719,40110 107716,40105 107713,40101 107710,40096 107706,40091 107703,40087 107700,40083 107696,40078 107693,40074 107689,40070 107685,40066 107681,40062 107677,40059 107673,40055 107669,40051 107664,40048 107660,40045 107656,40041 107651,40038 107646,40035 107642,40032 107637,40030 107632,40027 107627,40024 107622,40022 107617,40020 107612,40018 107607,40016 107602,40014 107596,40012 107591,40010 107586,40008 107581,40007 107575,40005 107570,40004 107564,40003 107559,40002 107553,40001 107548,40000 107542,40000 107537,40000 107531,40000 107526,40000 101474,40000 101468,40000 101463,40000 101457,40000 101452,40000 101446,40001 101441,40002 101435,40003 101430,40004 101425,40005 101419,40007 101414,40008 101408,40010 101403,40012 101398,40014 101393,40016 101388,40018 101383,40020 101378,40022 101373,40024 101368,40027 101363,40030 101358,40032 101354,40035 101349,40038 101344,40041 101340,40045 101336,40048 101331,40051 101327,40055 101323,40059 101319,40062 101315,40066 101311,40070 101307,40074 101304,40078 101300,40083 101297,40087 101293,40091 101290,40096 101287,40101 101284,40105 101281,40110 101278,40114 101276,40119 101273,40124 101270,40129 101268,40134 101266,40139 101264,40145 101262,40150 101260,40155 101258,40160 101257,40165 101256,40171 101254,40176 101253,40181 101252,40187 101251,40192 101251,40198 101250,40203 101250,40209 101249,40214 101249,40220 101249,40226 101249,40675 101249,40681 101249,40686 101250,40692 101250,40697 101251,40703 101251,40708 101252,40714 101253,40719 101254,40724 101256,40730 101257,40735 101258,40741 101260,40746 101262,40751 101264,40756 101266,40761 101268,40766 101270,40772 101273,40776 101276,40781 101278,40786 101281,40791 101284,40795 101287,40800 101290,40805 101293,40809 101297,40814 101300,40818 101304,40822 101307,40826 101311,40830 101315,40834 101319,40838 101323,40842 101327,40845 101331,40849 101336,40853 101340,40856 101344,40859 101349,40862 101354,40865 101358,40868 101363,40871 101368,40874 101373,40876 101378,40879 101383,40881 101388,40883 101393,40885 101398,40887 101403,40889 101408,40891 101414,40892 101419,40893 101425,40895 101430,40896 101435,40897 101441,40898 101446,40899 101452,40899 101457,40899 101463,40900 101468,40900 101474,40900 107526,40900 107531,40900 107537,40900 107542,40899 107548,40899 107553,40899 107559,40898 107564,40897 107570,40896 107575,40895 107581,40893 107586,40892 107591,40891 107596,40889 107602,40887 107607,40885 107612,40883 107617,40881 107622,40879 107627,40876 107632,40874 107637,40871 107642,40868 107646,40865 107651,40862 107656,40859 107660,40856 107664,40853 107669,40849 107673,40845 107677,40842 107681,40838 107685,40834 107689,40830 107693,40826 107696,40822 107700,40818 107703,40814 107706,40809 107710,40805 107713,40800 107716,40795 107719,40791 107721,40786 107724,40781 107727,40776 107729,40772 107731,40766 107734,40761 107736,40756 107738,40751 107739,40746 107741,40741 107742,40735 107744,40730 107745,40724 107747,40719 107748,40714 107749,40708 107749,40703 107750,40697 107750,40692 107751,40686 107751,40681 107751,40675 107751,40450 Z"/>
    <path fill="none" stroke="rgb(0,0,0)" d="M 107751,40450 L 107751,40226 107751,40220 107751,40214 107750,40209 107750,40203 107749,40198 107749,40192 107748,40187 107747,40181 107745,40176 107744,40171 107742,40165 107741,40160 107739,40155 107738,40150 107736,40145 107734,40139 107731,40134 107729,40129 107727,40124 107724,40119 107721,40114 107719,40110 107716,40105 107713,40101 107710,40096 107706,40091 107703,40087 107700,40083 107696,40078 107693,40074 107689,40070 107685,40066 107681,40062 107677,40059 107673,40055 107669,40051 107664,40048 107660,40045 107656,40041 107651,40038 107646,40035 107642,40032 107637,40030 107632,40027 107627,40024 107622,40022 107617,40020 107612,40018 107607,40016 107602,40014 107596,40012 107591,40010 107586,40008 107581,40007 107575,40005 107570,40004 107564,40003 107559,40002 107553,40001 107548,40000 107542,40000 107537,40000 107531,40000 107526,40000 101474,40000 101468,40000 101463,40000 101457,40000 101452,40000 101446,40001 101441,40002 101435,40003 101430,40004 101425,40005 101419,40007 101414,40008 101408,40010 101403,40012 101398,40014 101393,40016 101388,40018 101383,40020 101378,40022 101373,40024 101368,40027 101363,40030 101358,40032 101354,40035 101349,40038 101344,40041 101340,40045 101336,40048 101331,40051 101327,40055 101323,40059 101319,40062 101315,40066 101311,40070 101307,40074 101304,40078 101300,40083 101297,40087 101293,40091 101290,40096 101287,40101 101284,40105 101281,40110 101278,40114 101276,40119 101273,40124 101270,40129 101268,40134 101266,40139 101264,40145 101262,40150 101260,40155 101258,40160 101257,40165 101256,40171 101254,40176 101253,40181 101252,40187 101251,40192 101251,40198 101250,40203 101250,40209 101249,40214 101249,40220 101249,40226 101249,40675 101249,40681 101249,40686 101250,40692 101250,40697 101251,40703 101251,40708 101252,40714 101253,40719 101254,40724 101256,40730 101257,40735 101258,40741 101260,40746 101262,40751 101264,40756 101266,40761 101268,40766 101270,40772 101273,40776 101276,40781 101278,40786 101281,40791 101284,40795 101287,40800 101290,40805 101293,40809 101297,40814 101300,40818 101304,40822 101307,40826 101311,40830 101315,40834 101319,40838 101323,40842 101327,40845 101331,40849 101336,40853 101340,40856 101344,40859 101349,40862 101354,40865 101358,40868 101363,40871 101368,40874 101373,40876 101378,40879 101383,40881 101388,40883 101393,40885 101398,40887 101403,40889 101408,40891 101414,40892 101419,40893 101425,40895 101430,40896 101435,40897 101441,40898 101446,40899 101452,40899 101457,40899 101463,40900 101468,40900 101474,40900 107526,40900 107531,40900 107537,40900 107542,40899 107548,40899 107553,40899 107559,40898 107564,40897 107570,40896 107575,40895 107581,40893 107586,40892 107591,40891 107596,40889 107602,40887 107607,40885 107612,40883 107617,40881 107622,40879 107627,40876 107632,40874 107637,40871 107642,40868 107646,40865 107651,40862 107656,40859 107660,40856 107664,40853 107669,40849 107673,40845 107677,40842 107681,40838 107685,40834 107689,40830 107693,40826 107696,40822 107700,40818 107703,40814 107706,40809 107710,40805 107713,40800 107716,40795 107719,40791 107721,40786 107724,40781 107727,40776 107729,40772 107731,40766 107734,40761 107736,40756 107738,40751 107739,40746 107741,40741 107742,40735 107744,40730 107745,40724 107747,40719 107748,40714 107749,40708 107749,40703 107750,40697 107750,40692 107751,40686 107751,40681 107751,40675 107751,40450 Z"/>
   </g>
  </g>
  <g class="com.sun.star.drawing.PolyPolygonShape">
   <g id="id4">
    <rect class="BoundingBox" stroke="none" fill="none" x="101298" y="40199" width="1540" height="254"/>
    <path fill="rgb(0,0,255)" stroke="none" d="M 101299,40273 L 101299,40385 101308,40388 101316,40390 101325,40392 101333,40395 101342,40397 101351,40399 101360,40400 101369,40402 101378,40404 101386,40405 101395,40406 101404,40408 101413,40409 101422,40410 101431,40412 101439,40412 101447,40413 101455,40414 101462,40414 101470,40414 101478,40414 101485,40413 101493,40412 101501,40412 101508,40410 101516,40409 101523,40407 101531,40405 101538,40403 101545,40401 101553,40398 101560,40395 101636,40355 101642,40352 101647,40350 101653,40347 101659,40344 101665,40342 101671,40339 101677,40337 101683,40335 101689,40333 101695,40330 101701,40329 101707,40327 101713,40325 101719,40323 101725,40322 101732,40321 101738,40319 101744,40318 101750,40317 101757,40316 101763,40315 101769,40314 101775,40313 101782,40313 101788,40312 101794,40311 101801,40311 101807,40311 101813,40311 101820,40311 101826,40311 101832,40311 101839,40311 101845,40312 101852,40312 101858,40313 101864,40313 101871,40314 101877,40315 101883,40316 101889,40317 101896,40318 101902,40319 101908,40321 101914,40322 101920,40324 101927,40325 101933,40327 101939,40329 101945,40331 101951,40333 101957,40335 101963,40338 101969,40340 101975,40342 101981,40345 101986,40347 101992,40350 101998,40353 102003,40355 102009,40359 102015,40362 102020,40365 102025,40368 102067,40396 102072,40399 102077,40402 102083,40405 102088,40408 102093,40410 102098,40413 102104,40416 102109,40418 102114,40421 102119,40423 102125,40426 102130,40428 102135,40429 102141,40431 102146,40433 102152,40435 102157,40437 102163,40439 102168,40440 102174,40441 102180,40443 102185,40444 102191,40445 102197,40446 102202,40447 102208,40448 102214,40449 102219,40449 102225,40450 102231,40450 102237,40451 102243,40451 102248,40451 102254,40451 102260,40451 102266,40451 102272,40451 102277,40451 102283,40450 102289,40449 102295,40449 102300,40448 102306,40447 102312,40446 102317,40445 102323,40444 102329,40443 102335,40442 102340,40440 102346,40439 102352,40437 102357,40435 102362,40434 102368,40432 102373,40430 102379,40428 102384,40426 102390,40424 102395,40421 102400,40419 102405,40416 102410,40414 102416,40411 102421,40408 102464,40384 102469,40381 102475,40379 102480,40376 102486,40372 102491,40370 102496,40367 102502,40365 102508,40363 102514,40360 102519,40358 102525,40356 102531,40354 102537,40352 102542,40351 102548,40349 102554,40348 102560,40346 102566,40345 102572,40344 102578,40342 102584,40341 102590,40340 102596,40340 102602,40339 102608,40338 102614,40337 102620,40337 102626,40336 102632,40336 102638,40336 102644,40336 102650,40336 102656,40336 102662,40336 102668,40336 102674,40337 102680,40338 102686,40338 102693,40339 102699,40340 102705,40340 102710,40341 102716,40342 102722,40344 102728,40345 102734,40346 102740,40348 102746,40349 102752,40351 102758,40353 102763,40354 102769,40356 102775,40358 102781,40360 102786,40363 102792,40365 102797,40367 102803,40370 102809,40372 102814,40376 102819,40379 102825,40381 102830,40384 102836,40387 102835,40275 102830,40272 102825,40269 102819,40266 102814,40263 102809,40261 102803,40258 102797,40256 102792,40253 102786,40251 102781,40249 102775,40247 102769,40245 102763,40243 102758,40241 102752,40239 102746,40238 102740,40236 102734,40235 102728,40233 102722,40232 102716,40231 102710,40230 102705,40229 102699,40228 102693,40227 102686,40227 102680,40226 102674,40225 102668,40225 102662,40225 102656,40225 102650,40225 102644,40225 102638,40225 102632,40225 102626,40225 102620,40225 102614,40226 102608,40227 102602,40227 102596,40228 102590,40229 102584,40230 102578,40231 102572,40232 102566,40233 102560,40235 102554,40236 102548,40238 102542,40239 102537,40241 102531,40243 102525,40245 102519,40247 102514,40249 102508,40251 102502,40253 102496,40256 102491,40258 102486,40261 102480,40263 102475,40266 102469,40269 102464,40272 102421,40296 102416,40298 102410,40301 102405,40304 102400,40306 102395,40309 102390,40311 102384,40313 102379,40315 102373,40317 102368,40319 102362,40321 102357,40323 102352,40325 102346,40326 102340,40328 102335,40329 102329,40330 102323,40332 102317,40333 102312,40334 102306,40335 102300,40336 102295,40336 102289,40337 102283,40338 102277,40338 102272,40338 102266,40338 102260,40338 102254,40339 102248,40338 102243,40338 102237,40338 102231,40338 102225,40337 102219,40337 102214,40336 102208,40336 102202,40334 102197,40334 102191,40333 102185,40332 102180,40330 102174,40329 102168,40328 102163,40326 102157,40325 102152,40323 102146,40321 102141,40319 102135,40317 102130,40315 102125,40313 102119,40311 102114,40308 102109,40306 102104,40303 102098,40301 102093,40298 102088,40296 102083,40292 102077,40290 102072,40286 102067,40283 102025,40257 102020,40253 102015,40250 102009,40247 102003,40244 101998,40241 101992,40238 101986,40236 101981,40233 101975,40231 101969,40228 101963,40226 101957,40224 101951,40222 101945,40219 101939,40217 101933,40216 101927,40214 101920,40212 101914,40211 101908,40209 101902,40208 101896,40207 101889,40205 101883,40204 101877,40203 101871,40203 101864,40202 101858,40201 101852,40201 101845,40200 101839,40200 101832,40200 101826,40200 101820,40200 101813,40200 101807,40200 101801,40200 101794,40200 101788,40201 101782,40201 101775,40202 101769,40202 101763,40203 101757,40204 101750,40205 101744,40206 101738,40208 101732,40209 101725,40211 101719,40212 101713,40214 101707,40215 101701,40217 101695,40219 101689,40221 101683,40223 101677,40225 101671,40228 101665,40230 101659,40233 101653,40235 101647,40238 101642,40241 101636,40244 101560,40283 101553,40286 101545,40288 101538,40290 101531,40293 101523,40295 101516,40296 101508,40298 101501,40299 101493,40300 101485,40301 101478,40301 101470,40302 101462,40302 101455,40301 101447,40301 101439,40300 101431,40299 101422,40298 101413,40297 101404,40296 101395,40294 101386,40293 101378,40291 101369,40290 101360,40288 101351,40286 101342,40284 101333,40282 101325,40280 101316,40278 101308,40275 101299,40273 Z"/>
    <path fill="none" stroke="rgb(0,0,255)" d="M 101299,40273 L 101299,40385 101308,40388 101316,40390 101325,40392 101333,40395 101342,40397 101351,40399 101360,40400 101369,40402 101378,40404 101386,40405 101395,40406 101404,40408 101413,40409 101422,40410 101431,40412 101439,40412 101447,40413 101455,40414 101462,40414 101470,40414 101478,40414 101485,40413 101493,40412 101501,40412 101508,40410 101516,40409 101523,40407 101531,40405 101538,40403 101545,40401 101553,40398 101560,40395 101636,40355 101642,40352 101647,40350 101653,40347 101659,40344 101665,40342 101671,40339 101677,40337 101683,40335 101689,40333 101695,40330 101701,40329 101707,40327 101713,40325 101719,40323 101725,40322 101732,40321 101738,40319 101744,40318 101750,40317 101757,40316 101763,40315 101769,40314 101775,40313 101782,40313 101788,40312 101794,40311 101801,40311 101807,40311 101813,40311 101820,40311 101826,40311 101832,40311 101839,40311 101845,40312 101852,40312 101858,40313 101864,40313 101871,40314 101877,40315 101883,40316 101889,40317 101896,40318 101902,40319 101908,40321 101914,40322 101920,40324 101927,40325 101933,40327 101939,40329 101945,40331 101951,40333 101957,40335 101963,40338 101969,40340 101975,40342 101981,40345 101986,40347 101992,40350 101998,40353 102003,40355 102009,40359 102015,40362 102020,40365 102025,40368 102067,40396 102072,40399 102077,40402 102083,40405 102088,40408 102093,40410 102098,40413 102104,40416 102109,40418 102114,40421 102119,40423 102125,40426 102130,40428 102135,40429 102141,40431 102146,40433 102152,40435 102157,40437 102163,40439 102168,40440 102174,40441 102180,40443 102185,40444 102191,40445 102197,40446 102202,40447 102208,40448 102214,40449 102219,40449 102225,40450 102231,40450 102237,40451 102243,40451 102248,40451 102254,40451 102260,40451 102266,40451 102272,40451 102277,40451 102283,40450 102289,40449 102295,40449 102300,40448 102306,40447 102312,40446 102317,40445 102323,40444 102329,40443 102335,40442 102340,40440 102346,40439 102352,40437 102357,40435 102362,40434 102368,40432 102373,40430 102379,40428 102384,40426 102390,40424 102395,40421 102400,40419 102405,40416 102410,40414 102416,40411 102421,40408 102464,40384 102469,40381 102475,40379 102480,40376 102486,40372 102491,40370 102496,40367 102502,40365 102508,40363 102514,40360 102519,40358 102525,40356 102531,40354 102537,40352 102542,40351 102548,40349 102554,40348 102560,40346 102566,40345 102572,40344 102578,40342 102584,40341 102590,40340 102596,40340 102602,40339 102608,40338 102614,40337 102620,40337 102626,40336 102632,40336 102638,40336 102644,40336 102650,40336 102656,40336 102662,40336 102668,40336 102674,40337 102680,40338 102686,40338 102693,40339 102699,40340 102705,40340 102710,40341 102716,40342 102722,40344 102728,40345 102734,40346 102740,40348 102746,40349 102752,40351 102758,40353 102763,40354 102769,40356 102775,40358 102781,40360 102786,40363 102792,40365 102797,40367 102803,40370 102809,40372 102814,40376 102819,40379 102825,40381 102830,40384 102836,40387 102835,40275 102830,40272 102825,40269 102819,40266 102814,40263 102809,40261 102803,40258 102797,40256 102792,40253 102786,40251 102781,40249 102775,40247 102769,40245 102763,40243 102758,40241 102752,40239 102746,40238 102740,40236 102734,40235 102728,40233 102722,40232 102716,40231 102710,40230 102705,40229 102699,40228 102693,40227 102686,40227 102680,40226 102674,40225 102668,40225 102662,40225 102656,40225 102650,40225 102644,40225 102638,40225 102632,40225 102626,40225 102620,40225 102614,40226 102608,40227 102602,40227 102596,40228 102590,40229 102584,40230 102578,40231 102572,40232 102566,40233 102560,40235 102554,40236 102548,40238 102542,40239 102537,40241 102531,40243 102525,40245 102519,40247 102514,40249 102508,40251 102502,40253 102496,40256 102491,40258 102486,40261 102480,40263 102475,40266 102469,40269 102464,40272 102421,40296 102416,40298 102410,40301 102405,40304 102400,40306 102395,40309 102390,40311 102384,40313 102379,40315 102373,40317 102368,40319 102362,40321 102357,40323 102352,40325 102346,40326 102340,40328 102335,40329 102329,40330 102323,40332 102317,40333 102312,40334 102306,40335 102300,40336 102295,40336 102289,40337 102283,40338 102277,40338 102272,40338 102266,40338 102260,40338 102254,40339 102248,40338 102243,40338 102237,40338 102231,40338 102225,40337 102219,40337 102214,40336 102208,40336 102202,40334 102197,40334 102191,40333 102185,40332 102180,40330 102174,40329 102168,40328 102163,40326 102157,40325 102152,40323 102146,40321 102141,40319 102135,40317 102130,40315 102125,40313 102119,40311 102114,40308 102109,40306 102104,40303 102098,40301 102093,40298 102088,40296 102083,40292 102077,40290 102072,40286 102067,40283 102025,40257 102020,40253 102015,40250 102009,40247 102003,40244 101998,40241 101992,40238 101986,40236 101981,40233 101975,40231 101969,40228 101963,40226 101957,40224 101951,40222 101945,40219 101939,40217 101933,40216 101927,40214 101920,40212 101914,40211 101908,40209 101902,40208 101896,40207 101889,40205 101883,40204 101877,40203 101871,40203 101864,40202 101858,40201 101852,40201 101845,40200 101839,40200 101832,40200 101826,40200 101820,40200 101813,40200 101807,40200 101801,40200 101794,40200 101788,40201 101782,40201 101775,40202 101769,40202 101763,40203 101757,40204 101750,40205 101744,40206 101738,40208 101732,40209 101725,40211 101719,40212 101713,40214 101707,40215 101701,40217 101695,40219 101689,40221 101683,40223 101677,40225 101671,40228 101665,40230 101659,40233 101653,40235 101647,40238 101642,40241 101636,40244 101560,40283 101553,40286 101545,40288 101538,40290 101531,40293 101523,40295 101516,40296 101508,40298 101501,40299 101493,40300 101485,40301 101478,40301 101470,40302 101462,40302 101455,40301 101447,40301 101439,40300 101431,40299 101422,40298 101413,40297 101404,40296 101395,40294 101386,40293 101378,40291 101369,40290 101360,40288 101351,40286 101342,40284 101333,40282 101325,40280 101316,40278 101308,40275 101299,40273 Z"/>
   </g>
  </g>
  <g class="com.sun.star.drawing.PolyPolygonShape">
   <g id="id5">
    <rect class="BoundingBox" stroke="none" fill="none" x="101298" y="40447" width="1540" height="255"/>
    <path fill="rgb(0,0,255)" stroke="none" d="M 101299,40522 L 101299,40635 101308,40637 101316,40639 101325,40641 101333,40643 101342,40645 101351,40647 101360,40649 101369,40651 101378,40653 101386,40654 101395,40656 101404,40657 101413,40658 101422,40660 101431,40661 101439,40662 101447,40662 101455,40663 101462,40663 101470,40663 101478,40663 101485,40662 101493,40662 101501,40660 101508,40659 101516,40658 101523,40656 101531,40654 101538,40652 101545,40650 101553,40647 101560,40644 101636,40604 101642,40601 101647,40598 101653,40596 101659,40593 101665,40591 101671,40588 101677,40586 101683,40584 101689,40582 101695,40580 101701,40578 101707,40576 101713,40574 101719,40573 101725,40571 101732,40570 101738,40568 101744,40567 101750,40566 101757,40565 101763,40564 101769,40563 101775,40562 101782,40562 101788,40561 101794,40561 101801,40560 101807,40560 101813,40560 101820,40560 101826,40560 101832,40560 101839,40560 101845,40561 101852,40561 101858,40562 101864,40562 101871,40563 101877,40564 101883,40565 101889,40566 101896,40567 101902,40569 101908,40570 101914,40571 101920,40573 101927,40575 101933,40576 101939,40578 101945,40580 101951,40582 101957,40584 101963,40586 101969,40589 101975,40591 101981,40594 101986,40596 101992,40599 101998,40602 102003,40605 102009,40607 102015,40611 102020,40614 102025,40617 102067,40645 102072,40648 102077,40651 102083,40654 102088,40657 102093,40660 102098,40662 102104,40665 102109,40668 102114,40670 102119,40672 102125,40674 102130,40677 102135,40679 102141,40681 102146,40683 102152,40684 102157,40686 102163,40688 102168,40689 102174,40691 102180,40692 102185,40693 102191,40694 102197,40695 102202,40696 102208,40697 102214,40698 102219,40699 102225,40699 102231,40699 102237,40700 102243,40700 102248,40700 102254,40700 102260,40700 102266,40700 102272,40700 102277,40699 102283,40699 102289,40699 102295,40698 102300,40697 102306,40696 102312,40695 102317,40694 102323,40693 102329,40692 102335,40691 102340,40689 102346,40688 102352,40686 102357,40685 102362,40683 102368,40681 102373,40679 102379,40677 102384,40675 102390,40672 102395,40670 102400,40668 102405,40665 102410,40663 102416,40660 102421,40657 102464,40633 102469,40630 102475,40628 102480,40624 102486,40621 102491,40619 102496,40616 102502,40614 102508,40611 102514,40609 102519,40607 102525,40605 102531,40604 102537,40602 102542,40600 102548,40598 102554,40597 102560,40595 102566,40594 102572,40593 102578,40592 102584,40590 102590,40589 102596,40588 102602,40588 102608,40587 102614,40586 102620,40586 102626,40586 102632,40585 102638,40585 102644,40585 102650,40585 102656,40585 102662,40585 102668,40586 102674,40586 102680,40586 102686,40587 102693,40588 102699,40588 102705,40590 102710,40590 102716,40592 102722,40593 102728,40594 102734,40595 102740,40597 102746,40598 102752,40600 102758,40602 102763,40604 102769,40605 102775,40607 102781,40609 102786,40611 102792,40614 102797,40616 102803,40619 102809,40621 102814,40624 102819,40628 102825,40630 102830,40633 102836,40636 102835,40524 102830,40521 102825,40518 102819,40515 102814,40513 102809,40510 102803,40507 102797,40505 102792,40502 102786,40500 102781,40498 102775,40496 102769,40494 102763,40492 102758,40490 102752,40488 102746,40487 102740,40485 102734,40484 102728,40482 102722,40481 102716,40480 102710,40479 102705,40478 102699,40477 102693,40476 102686,40476 102680,40475 102674,40475 102668,40474 102662,40474 102656,40474 102650,40474 102644,40474 102638,40474 102632,40474 102626,40474 102620,40475 102614,40475 102608,40476 102602,40476 102596,40477 102590,40478 102584,40479 102578,40480 102572,40481 102566,40482 102560,40484 102554,40485 102548,40487 102542,40488 102537,40490 102531,40492 102525,40494 102519,40496 102514,40498 102508,40500 102502,40502 102496,40505 102491,40507 102486,40510 102480,40512 102475,40515 102469,40518 102464,40521 102421,40545 102416,40547 102410,40550 102405,40553 102400,40556 102395,40558 102390,40560 102384,40562 102379,40565 102373,40567 102368,40569 102362,40570 102357,40572 102352,40574 102346,40575 102340,40577 102335,40578 102329,40580 102323,40581 102317,40582 102312,40583 102306,40584 102300,40585 102295,40585 102289,40586 102283,40586 102277,40587 102272,40587 102266,40588 102260,40588 102254,40588 102248,40588 102243,40588 102237,40587 102231,40587 102225,40586 102219,40586 102214,40585 102208,40584 102202,40584 102197,40583 102191,40582 102185,40581 102180,40579 102174,40578 102168,40577 102163,40575 102157,40574 102152,40572 102146,40570 102141,40568 102135,40566 102130,40564 102125,40562 102119,40560 102114,40557 102109,40555 102104,40553 102098,40550 102093,40547 102088,40544 102083,40542 102077,40539 102072,40536 102067,40532 102025,40505 102020,40502 102015,40499 102009,40496 102003,40493 101998,40490 101992,40488 101986,40485 101981,40482 101975,40480 101969,40477 101963,40475 101957,40473 101951,40471 101945,40469 101939,40467 101933,40465 101927,40463 101920,40461 101914,40460 101908,40458 101902,40457 101896,40456 101889,40455 101883,40453 101877,40453 101871,40452 101864,40451 101858,40450 101852,40450 101845,40449 101839,40449 101832,40449 101826,40448 101820,40448 101813,40448 101807,40449 101801,40449 101794,40449 101788,40449 101782,40450 101775,40451 101769,40452 101763,40452 101757,40453 101750,40454 101744,40455 101738,40457 101732,40458 101725,40459 101719,40461 101713,40463 101707,40465 101701,40466 101695,40468 101689,40470 101683,40472 101677,40475 101671,40477 101665,40479 101659,40482 101653,40484 101647,40487 101642,40490 101636,40493 101560,40532 101553,40534 101545,40537 101538,40540 101531,40542 101523,40544 101516,40546 101508,40547 101501,40548 101493,40549 101485,40550 101478,40550 101470,40551 101462,40551 101455,40550 101447,40550 101439,40549 101431,40548 101422,40547 101413,40546 101404,40545 101395,40543 101386,40542 101378,40540 101369,40538 101360,40537 101351,40535 101342,40533 101333,40531 101325,40529 101316,40526 101308,40524 101299,40522 Z"/>
    <path fill="none" stroke="rgb(0,0,255)" d="M 101299,40522 L 101299,40635 101308,40637 101316,40639 101325,40641 101333,40643 101342,40645 101351,40647 101360,40649 101369,40651 101378,40653 101386,40654 101395,40656 101404,40657 101413,40658 101422,40660 101431,40661 101439,40662 101447,40662 101455,40663 101462,40663 101470,40663 101478,40663 101485,40662 101493,40662 101501,40660 101508,40659 101516,40658 101523,40656 101531,40654 101538,40652 101545,40650 101553,40647 101560,40644 101636,40604 101642,40601 101647,40598 101653,40596 101659,40593 101665,40591 101671,40588 101677,40586 101683,40584 101689,40582 101695,40580 101701,40578 101707,40576 101713,40574 101719,40573 101725,40571 101732,40570 101738,40568 101744,40567 101750,40566 101757,40565 101763,40564 101769,40563 101775,40562 101782,40562 101788,40561 101794,40561 101801,40560 101807,40560 101813,40560 101820,40560 101826,40560 101832,40560 101839,40560 101845,40561 101852,40561 101858,40562 101864,40562 101871,40563 101877,40564 101883,40565 101889,40566 101896,40567 101902,40569 101908,40570 101914,40571 101920,40573 101927,40575 101933,40576 101939,40578 101945,40580 101951,40582 101957,40584 101963,40586 101969,40589 101975,40591 101981,40594 101986,40596 101992,40599 101998,40602 102003,40605 102009,40607 102015,40611 102020,40614 102025,40617 102067,40645 102072,40648 102077,40651 102083,40654 102088,40657 102093,40660 102098,40662 102104,40665 102109,40668 102114,40670 102119,40672 102125,40674 102130,40677 102135,40679 102141,40681 102146,40683 102152,40684 102157,40686 102163,40688 102168,40689 102174,40691 102180,40692 102185,40693 102191,40694 102197,40695 102202,40696 102208,40697 102214,40698 102219,40699 102225,40699 102231,40699 102237,40700 102243,40700 102248,40700 102254,40700 102260,40700 102266,40700 102272,40700 102277,40699 102283,40699 102289,40699 102295,40698 102300,40697 102306,40696 102312,40695 102317,40694 102323,40693 102329,40692 102335,40691 102340,40689 102346,40688 102352,40686 102357,40685 102362,40683 102368,40681 102373,40679 102379,40677 102384,40675 102390,40672 102395,40670 102400,40668 102405,40665 102410,40663 102416,40660 102421,40657 102464,40633 102469,40630 102475,40628 102480,40624 102486,40621 102491,40619 102496,40616 102502,40614 102508,40611 102514,40609 102519,40607 102525,40605 102531,40604 102537,40602 102542,40600 102548,40598 102554,40597 102560,40595 102566,40594 102572,40593 102578,40592 102584,40590 102590,40589 102596,40588 102602,40588 102608,40587 102614,40586 102620,40586 102626,40586 102632,40585 102638,40585 102644,40585 102650,40585 102656,40585 102662,40585 102668,40586 102674,40586 102680,40586 102686,40587 102693,40588 102699,40588 102705,40590 102710,40590 102716,40592 102722,40593 102728,40594 102734,40595 102740,40597 102746,40598 102752,40600 102758,40602 102763,40604 102769,40605 102775,40607 102781,40609 102786,40611 102792,40614 102797,40616 102803,40619 102809,40621 102814,40624 102819,40628 102825,40630 102830,40633 102836,40636 102835,40524 102830,40521 102825,40518 102819,40515 102814,40513 102809,40510 102803,40507 102797,40505 102792,40502 102786,40500 102781,40498 102775,40496 102769,40494 102763,40492 102758,40490 102752,40488 102746,40487 102740,40485 102734,40484 102728,40482 102722,40481 102716,40480 102710,40479 102705,40478 102699,40477 102693,40476 102686,40476 102680,40475 102674,40475 102668,40474 102662,40474 102656,40474 102650,40474 102644,40474 102638,40474 102632,40474 102626,40474 102620,40475 102614,40475 102608,40476 102602,40476 102596,40477 102590,40478 102584,40479 102578,40480 102572,40481 102566,40482 102560,40484 102554,40485 102548,40487 102542,40488 102537,40490 102531,40492 102525,40494 102519,40496 102514,40498 102508,40500 102502,40502 102496,40505 102491,40507 102486,40510 102480,40512 102475,40515 102469,40518 102464,40521 102421,40545 102416,40547 102410,40550 102405,40553 102400,40556 102395,40558 102390,40560 102384,40562 102379,40565 102373,40567 102368,40569 102362,40570 102357,40572 102352,40574 102346,40575 102340,40577 102335,40578 102329,40580 102323,40581 102317,40582 102312,40583 102306,40584 102300,40585 102295,40585 102289,40586 102283,40586 102277,40587 102272,40587 102266,40588 102260,40588 102254,40588 102248,40588 102243,40588 102237,40587 102231,40587 102225,40586 102219,40586 102214,40585 102208,40584 102202,40584 102197,40583 102191,40582 102185,40581 102180,40579 102174,40578 102168,40577 102163,40575 102157,40574 102152,40572 102146,40570 102141,40568 102135,40566 102130,40564 102125,40562 102119,40560 102114,40557 102109,40555 102104,40553 102098,40550 102093,40547 102088,40544 102083,40542 102077,40539 102072,40536 102067,40532 102025,40505 102020,40502 102015,40499 102009,40496 102003,40493 101998,40490 101992,40488 101986,40485 101981,40482 101975,40480 101969,40477 101963,40475 101957,40473 101951,40471 101945,40469 101939,40467 101933,40465 101927,40463 101920,40461 101914,40460 101908,40458 101902,40457 101896,40456 101889,40455 101883,40453 101877,40453 101871,40452 101864,40451 101858,40450 101852,40450 101845,40449 101839,40449 101832,40449 101826,40448 101820,40448 101813,40448 101807,40449 101801,40449 101794,40449 101788,40449 101782,40450 101775,40451 101769,40452 101763,40452 101757,40453 101750,40454 101744,40455 101738,40457 101732,40458 101725,40459 101719,40461 101713,40463 101707,40465 101701,40466 101695,40468 101689,40470 101683,40472 101677,40475 101671,40477 101665,40479 101659,40482 101653,40484 101647,40487 101642,40490 101636,40493 101560,40532 101553,40534 101545,40537 101538,40540 101531,40542 101523,40544 101516,40546 101508,40547 101501,40548 101493,40549 101485,40550 101478,40550 101470,40551 101462,40551 101455,40550 101447,40550 101439,40549 101431,40548 101422,40547 101413,40546 101404,40545 101395,40543 101386,40542 101378,40540 101369,40538 101360,40537 101351,40535 101342,40533 101333,40531 101325,40529 101316,40526 101308,40524 101299,40522 Z"/>
   </g>
  </g>
  <g class="com.sun.star.drawing.PolyPolygonShape">
   <g id="id6">
    <rect class="BoundingBox" stroke="none" fill="none" x="103815" y="40133" width="453" height="634"/>
    <path fill="rgb(0,0,255)" stroke="none" d="M 104170,40720 L 104173,40717 104176,40715 104179,40713 104181,40710 104184,40708 104187,40705 104189,40702 104192,40700 104194,40697 104196,40694 104198,40691 104201,40689 104203,40685 104205,40682 104206,40679 104208,40676 104211,40671 104213,40666 104215,40662 104218,40657 104219,40652 104221,40647 104223,40642 104225,40637 104226,40632 104228,40627 104229,40622 104230,40617 104231,40612 104233,40607 104233,40602 104234,40597 104235,40591 104235,40586 104236,40581 104236,40576 104237,40569 104237,40564 104237,40559 104237,40554 104236,40548 104236,40543 104235,40538 104235,40533 104234,40527 104233,40522 104233,40517 104231,40512 104230,40506 104229,40500 104227,40494 104224,40489 104222,40483 104219,40478 104216,40473 104213,40467 104210,40462 104206,40457 104202,40453 104198,40448 104193,40444 104189,40440 104184,40436 104179,40432 104175,40430 104171,40427 104166,40424 104162,40421 104156,40419 104151,40417 104147,40414 104142,40412 104133,40408 104124,40405 104115,40401 104105,40398 104095,40395 104086,40392 104076,40390 104066,40387 104063,40386 104059,40386 104055,40384 104051,40383 104047,40382 104043,40380 104040,40379 104036,40378 104032,40376 104029,40375 104025,40373 104022,40371 104018,40369 104014,40367 104011,40365 104008,40363 104004,40360 104001,40357 103997,40354 103994,40351 103991,40347 103989,40344 103986,40340 103984,40336 103983,40332 103981,40327 103980,40323 103979,40319 103978,40314 103978,40309 103978,40305 103978,40301 103979,40296 103980,40292 103981,40287 103983,40283 103985,40279 103987,40275 103989,40271 103992,40268 103995,40264 103998,40261 104001,40258 104005,40255 104009,40253 104012,40250 104017,40248 104021,40247 104026,40245 104031,40243 104036,40242 104041,40241 104047,40240 104052,40239 104057,40238 104062,40238 104068,40238 104073,40238 104078,40238 104084,40239 104089,40239 104094,40240 104099,40241 104104,40242 104107,40243 104110,40244 104112,40245 104115,40246 104117,40247 104120,40248 104122,40250 104124,40251 104127,40253 104129,40254 104131,40256 104134,40257 104136,40259 104138,40261 104139,40263 104141,40265 104143,40267 104145,40270 104146,40272 104148,40274 104149,40277 104150,40279 104151,40282 104153,40284 104154,40287 104155,40289 104155,40292 104156,40295 104157,40297 104157,40300 104158,40303 104158,40305 104159,40317 104159,40329 104266,40329 104266,40322 104266,40315 104266,40308 104266,40301 104265,40294 104264,40287 104263,40280 104261,40274 104260,40267 104258,40260 104256,40254 104254,40247 104252,40241 104249,40234 104246,40228 104243,40222 104241,40217 104238,40212 104235,40207 104232,40203 104228,40198 104225,40194 104221,40190 104218,40186 104214,40182 104209,40178 104205,40175 104200,40171 104196,40168 104191,40165 104187,40162 104181,40159 104174,40156 104167,40153 104159,40150 104151,40147 104143,40144 104136,40142 104128,40140 104120,40138 104112,40137 104104,40136 104096,40135 104088,40134 104080,40134 104072,40134 104064,40134 104056,40135 104047,40136 104039,40136 104031,40138 104024,40139 104016,40141 104008,40143 104001,40146 103993,40148 103985,40151 103978,40154 103970,40158 103963,40161 103957,40165 103949,40169 103942,40174 103936,40178 103933,40180 103930,40182 103928,40185 103925,40187 103923,40190 103920,40192 103917,40194 103915,40197 103913,40200 103911,40202 103908,40205 103907,40207 103904,40211 103903,40213 103901,40216 103899,40219 103896,40224 103894,40229 103891,40234 103889,40239 103887,40244 103885,40249 103883,40254 103881,40259 103880,40264 103878,40269 103877,40275 103876,40280 103875,40286 103874,40291 103873,40296 103873,40302 103872,40307 103872,40313 103872,40318 103872,40323 103872,40329 103872,40334 103873,40340 103873,40345 103874,40350 103875,40356 103876,40361 103877,40367 103878,40372 103880,40377 103881,40382 103883,40387 103885,40391 103886,40395 103888,40399 103890,40403 103892,40406 103894,40410 103896,40413 103898,40417 103901,40421 103903,40424 103906,40427 103909,40430 103912,40433 103915,40436 103918,40438 103921,40441 103926,40444 103931,40448 103935,40451 103940,40454 103945,40457 103949,40460 103954,40463 103959,40465 103964,40468 103969,40471 103974,40473 103979,40475 103985,40477 103990,40479 103995,40481 104001,40483 104024,40490 104048,40498 104064,40505 104080,40511 104083,40513 104087,40514 104090,40516 104093,40518 104097,40520 104100,40522 104103,40524 104106,40526 104108,40528 104109,40530 104111,40531 104113,40533 104115,40535 104116,40537 104117,40539 104119,40541 104120,40543 104121,40545 104122,40547 104124,40549 104124,40552 104125,40554 104126,40556 104127,40558 104128,40561 104128,40563 104129,40565 104129,40568 104130,40570 104130,40574 104130,40576 104130,40578 104130,40581 104130,40583 104130,40585 104130,40588 104129,40590 104129,40593 104128,40595 104128,40597 104126,40601 104126,40604 104124,40607 104123,40610 104122,40613 104120,40616 104118,40619 104116,40622 104115,40624 104112,40627 104111,40630 104108,40632 104106,40635 104104,40637 104101,40639 104099,40641 104096,40644 104093,40646 104091,40647 104088,40649 104085,40651 104082,40653 104079,40654 104076,40655 104073,40656 104070,40658 104066,40658 104063,40659 104060,40660 104056,40660 104053,40661 104050,40661 104045,40662 104039,40662 104034,40662 104029,40662 104024,40662 104019,40661 104014,40661 104009,40660 104003,40659 103998,40658 103993,40657 103988,40656 103983,40654 103978,40653 103974,40651 103969,40649 103966,40649 103964,40647 103962,40646 103960,40645 103958,40644 103956,40642 103953,40641 103952,40639 103950,40637 103948,40636 103946,40634 103945,40632 103943,40630 103941,40628 103940,40626 103939,40624 103937,40620 103935,40616 103933,40611 103931,40607 103929,40603 103928,40598 103926,40593 103925,40589 103924,40584 103924,40580 103923,40575 103923,40569 103922,40565 103922,40560 103923,40555 103923,40550 103816,40550 103817,40562 103818,40575 103819,40587 103820,40599 103822,40610 103824,40622 103827,40633 103829,40645 103831,40650 103832,40654 103834,40659 103835,40664 103837,40668 103840,40673 103842,40677 103844,40681 103847,40685 103850,40690 103852,40694 103856,40697 103859,40701 103862,40705 103866,40708 103869,40712 103874,40716 103879,40720 103883,40724 103889,40727 103894,40731 103899,40734 103904,40737 103910,40740 103915,40743 103921,40745 103927,40748 103933,40750 103938,40752 103944,40754 103950,40756 103956,40757 103965,40759 103974,40760 103983,40762 103992,40763 104001,40764 104010,40764 104019,40765 104028,40765 104033,40764 104037,40764 104042,40764 104047,40764 104051,40763 104056,40763 104061,40762 104066,40762 104070,40761 104075,40760 104079,40759 104084,40758 104088,40757 104093,40755 104097,40754 104102,40753 104107,40751 104111,40750 104115,40748 104120,40747 104124,40745 104128,40743 104132,40741 104137,40739 104141,40737 104145,40734 104149,40732 104153,40729 104157,40727 104162,40725 104166,40722 104170,40720 Z"/>
    <path fill="none" stroke="rgb(0,0,255)" d="M 104170,40720 L 104173,40717 104176,40715 104179,40713 104181,40710 104184,40708 104187,40705 104189,40702 104192,40700 104194,40697 104196,40694 104198,40691 104201,40689 104203,40685 104205,40682 104206,40679 104208,40676 104211,40671 104213,40666 104215,40662 104218,40657 104219,40652 104221,40647 104223,40642 104225,40637 104226,40632 104228,40627 104229,40622 104230,40617 104231,40612 104233,40607 104233,40602 104234,40597 104235,40591 104235,40586 104236,40581 104236,40576 104237,40569 104237,40564 104237,40559 104237,40554 104236,40548 104236,40543 104235,40538 104235,40533 104234,40527 104233,40522 104233,40517 104231,40512 104230,40506 104229,40500 104227,40494 104224,40489 104222,40483 104219,40478 104216,40473 104213,40467 104210,40462 104206,40457 104202,40453 104198,40448 104193,40444 104189,40440 104184,40436 104179,40432 104175,40430 104171,40427 104166,40424 104162,40421 104156,40419 104151,40417 104147,40414 104142,40412 104133,40408 104124,40405 104115,40401 104105,40398 104095,40395 104086,40392 104076,40390 104066,40387 104063,40386 104059,40386 104055,40384 104051,40383 104047,40382 104043,40380 104040,40379 104036,40378 104032,40376 104029,40375 104025,40373 104022,40371 104018,40369 104014,40367 104011,40365 104008,40363 104004,40360 104001,40357 103997,40354 103994,40351 103991,40347 103989,40344 103986,40340 103984,40336 103983,40332 103981,40327 103980,40323 103979,40319 103978,40314 103978,40309 103978,40305 103978,40301 103979,40296 103980,40292 103981,40287 103983,40283 103985,40279 103987,40275 103989,40271 103992,40268 103995,40264 103998,40261 104001,40258 104005,40255 104009,40253 104012,40250 104017,40248 104021,40247 104026,40245 104031,40243 104036,40242 104041,40241 104047,40240 104052,40239 104057,40238 104062,40238 104068,40238 104073,40238 104078,40238 104084,40239 104089,40239 104094,40240 104099,40241 104104,40242 104107,40243 104110,40244 104112,40245 104115,40246 104117,40247 104120,40248 104122,40250 104124,40251 104127,40253 104129,40254 104131,40256 104134,40257 104136,40259 104138,40261 104139,40263 104141,40265 104143,40267 104145,40270 104146,40272 104148,40274 104149,40277 104150,40279 104151,40282 104153,40284 104154,40287 104155,40289 104155,40292 104156,40295 104157,40297 104157,40300 104158,40303 104158,40305 104159,40317 104159,40329 104266,40329 104266,40322 104266,40315 104266,40308 104266,40301 104265,40294 104264,40287 104263,40280 104261,40274 104260,40267 104258,40260 104256,40254 104254,40247 104252,40241 104249,40234 104246,40228 104243,40222 104241,40217 104238,40212 104235,40207 104232,40203 104228,40198 104225,40194 104221,40190 104218,40186 104214,40182 104209,40178 104205,40175 104200,40171 104196,40168 104191,40165 104187,40162 104181,40159 104174,40156 104167,40153 104159,40150 104151,40147 104143,40144 104136,40142 104128,40140 104120,40138 104112,40137 104104,40136 104096,40135 104088,40134 104080,40134 104072,40134 104064,40134 104056,40135 104047,40136 104039,40136 104031,40138 104024,40139 104016,40141 104008,40143 104001,40146 103993,40148 103985,40151 103978,40154 103970,40158 103963,40161 103957,40165 103949,40169 103942,40174 103936,40178 103933,40180 103930,40182 103928,40185 103925,40187 103923,40190 103920,40192 103917,40194 103915,40197 103913,40200 103911,40202 103908,40205 103907,40207 103904,40211 103903,40213 103901,40216 103899,40219 103896,40224 103894,40229 103891,40234 103889,40239 103887,40244 103885,40249 103883,40254 103881,40259 103880,40264 103878,40269 103877,40275 103876,40280 103875,40286 103874,40291 103873,40296 103873,40302 103872,40307 103872,40313 103872,40318 103872,40323 103872,40329 103872,40334 103873,40340 103873,40345 103874,40350 103875,40356 103876,40361 103877,40367 103878,40372 103880,40377 103881,40382 103883,40387 103885,40391 103886,40395 103888,40399 103890,40403 103892,40406 103894,40410 103896,40413 103898,40417 103901,40421 103903,40424 103906,40427 103909,40430 103912,40433 103915,40436 103918,40438 103921,40441 103926,40444 103931,40448 103935,40451 103940,40454 103945,40457 103949,40460 103954,40463 103959,40465 103964,40468 103969,40471 103974,40473 103979,40475 103985,40477 103990,40479 103995,40481 104001,40483 104024,40490 104048,40498 104064,40505 104080,40511 104083,40513 104087,40514 104090,40516 104093,40518 104097,40520 104100,40522 104103,40524 104106,40526 104108,40528 104109,40530 104111,40531 104113,40533 104115,40535 104116,40537 104117,40539 104119,40541 104120,40543 104121,40545 104122,40547 104124,40549 104124,40552 104125,40554 104126,40556 104127,40558 104128,40561 104128,40563 104129,40565 104129,40568 104130,40570 104130,40574 104130,40576 104130,40578 104130,40581 104130,40583 104130,40585 104130,40588 104129,40590 104129,40593 104128,40595 104128,40597 104126,40601 104126,40604 104124,40607 104123,40610 104122,40613 104120,40616 104118,40619 104116,40622 104115,40624 104112,40627 104111,40630 104108,40632 104106,40635 104104,40637 104101,40639 104099,40641 104096,40644 104093,40646 104091,40647 104088,40649 104085,40651 104082,40653 104079,40654 104076,40655 104073,40656 104070,40658 104066,40658 104063,40659 104060,40660 104056,40660 104053,40661 104050,40661 104045,40662 104039,40662 104034,40662 104029,40662 104024,40662 104019,40661 104014,40661 104009,40660 104003,40659 103998,40658 103993,40657 103988,40656 103983,40654 103978,40653 103974,40651 103969,40649 103966,40649 103964,40647 103962,40646 103960,40645 103958,40644 103956,40642 103953,40641 103952,40639 103950,40637 103948,40636 103946,40634 103945,40632 103943,40630 103941,40628 103940,40626 103939,40624 103937,40620 103935,40616 103933,40611 103931,40607 103929,40603 103928,40598 103926,40593 103925,40589 103924,40584 103924,40580 103923,40575 103923,40569 103922,40565 103922,40560 103923,40555 103923,40550 103816,40550 103817,40562 103818,40575 103819,40587 103820,40599 103822,40610 103824,40622 103827,40633 103829,40645 103831,40650 103832,40654 103834,40659 103835,40664 103837,40668 103840,40673 103842,40677 103844,40681 103847,40685 103850,40690 103852,40694 103856,40697 103859,40701 103862,40705 103866,40708 103869,40712 103874,40716 103879,40720 103883,40724 103889,40727 103894,40731 103899,40734 103904,40737 103910,40740 103915,40743 103921,40745 103927,40748 103933,40750 103938,40752 103944,40754 103950,40756 103956,40757 103965,40759 103974,40760 103983,40762 103992,40763 104001,40764 104010,40764 104019,40765 104028,40765 104033,40764 104037,40764 104042,40764 104047,40764 104051,40763 104056,40763 104061,40762 104066,40762 104070,40761 104075,40760 104079,40759 104084,40758 104088,40757 104093,40755 104097,40754 104102,40753 104107,40751 104111,40750 104115,40748 104120,40747 104124,40745 104128,40743 104132,40741 104137,40739 104141,40737 104145,40734 104149,40732 104153,40729 104157,40727 104162,40725 104166,40722 104170,40720 Z"/>
   </g>
  </g>
  <g class="com.sun.star.drawing.PolyPolygonShape">
   <g id="id7">
    <rect class="BoundingBox" stroke="none" fill="none" x="104359" y="40303" width="380" height="463"/>
    <path fill="rgb(0,0,255)" stroke="none" d="M 104617,40590 L 104717,40590 104716,40596 104714,40602 104712,40608 104710,40613 104708,40619 104706,40626 104704,40631 104701,40637 104699,40643 104696,40648 104694,40653 104691,40658 104688,40664 104685,40669 104682,40674 104679,40679 104675,40684 104672,40689 104668,40694 104664,40699 104660,40704 104656,40708 104652,40712 104647,40716 104643,40721 104638,40724 104633,40728 104628,40732 104623,40735 104618,40738 104613,40741 104607,40744 104603,40746 104598,40748 104594,40750 104589,40752 104585,40754 104580,40755 104576,40757 104571,40758 104566,40759 104562,40760 104557,40761 104552,40762 104547,40762 104543,40763 104538,40763 104533,40764 104528,40764 104523,40764 104518,40764 104514,40764 104509,40763 104504,40763 104499,40762 104495,40761 104490,40760 104485,40760 104480,40758 104476,40757 104471,40756 104466,40755 104462,40753 104457,40751 104454,40749 104450,40748 104446,40746 104443,40744 104439,40742 104435,40740 104431,40738 104428,40736 104425,40733 104421,40731 104418,40728 104415,40726 104412,40723 104409,40720 104406,40717 104404,40714 104401,40711 104398,40708 104396,40705 104394,40702 104391,40699 104389,40695 104387,40691 104385,40688 104383,40684 104381,40681 104379,40677 104378,40674 104376,40670 104375,40666 104373,40662 104372,40658 104370,40649 104367,40639 104366,40630 104364,40619 104363,40610 104361,40600 104361,40591 104360,40581 104360,40571 104360,40562 104360,40552 104361,40542 104361,40533 104363,40523 104364,40514 104366,40504 104368,40495 104370,40485 104372,40476 104376,40467 104379,40458 104382,40449 104386,40440 104390,40431 104394,40422 104398,40414 104403,40405 104408,40397 104413,40389 104418,40381 104424,40373 104430,40365 104434,40360 104440,40355 104445,40350 104450,40345 104455,40341 104461,40336 104466,40332 104472,40329 104478,40325 104484,40322 104490,40319 104497,40317 104503,40314 104510,40312 104517,40310 104524,40309 104528,40308 104534,40307 104538,40307 104543,40306 104549,40305 104553,40305 104558,40305 104564,40304 104569,40304 104574,40304 104579,40304 104584,40304 104589,40304 104594,40305 104599,40305 104604,40305 104608,40306 104612,40306 104615,40307 104619,40308 104623,40309 104626,40309 104630,40311 104634,40312 104638,40313 104641,40314 104645,40315 104648,40317 104651,40319 104655,40320 104658,40322 104662,40324 104665,40326 104668,40328 104671,40330 104674,40332 104678,40334 104680,40336 104684,40339 104686,40341 104689,40344 104692,40346 104695,40349 104697,40352 104700,40355 104702,40357 104705,40361 104707,40363 104709,40367 104712,40371 104714,40374 104716,40378 104718,40381 104720,40385 104722,40389 104724,40393 104725,40396 104726,40400 104728,40404 104729,40409 104730,40413 104731,40417 104732,40421 104732,40425 104734,40435 104735,40445 104736,40455 104737,40465 104635,40465 104635,40461 104635,40457 104635,40452 104634,40448 104634,40444 104633,40440 104632,40436 104631,40432 104630,40429 104629,40426 104628,40423 104626,40420 104624,40417 104622,40415 104620,40412 104619,40410 104616,40407 104614,40405 104611,40403 104609,40402 104606,40400 104603,40399 104600,40398 104597,40397 104594,40396 104590,40395 104587,40394 104584,40394 104580,40394 104577,40394 104573,40393 104570,40393 104566,40394 104563,40394 104560,40394 104557,40395 104553,40396 104550,40396 104547,40397 104543,40398 104540,40400 104537,40401 104534,40402 104531,40404 104528,40405 104525,40407 104522,40409 104520,40411 104517,40413 104514,40416 104512,40418 104510,40421 104507,40423 104505,40425 104503,40428 104501,40431 104498,40436 104495,40440 104492,40446 104489,40451 104487,40456 104484,40461 104482,40466 104480,40472 104478,40477 104476,40482 104474,40488 104473,40494 104472,40499 104471,40505 104470,40511 104469,40516 104468,40531 104466,40546 104465,40562 104464,40577 104464,40581 104464,40586 104464,40590 104464,40594 104465,40598 104465,40603 104466,40607 104467,40611 104468,40615 104469,40619 104470,40625 104472,40629 104474,40633 104475,40637 104477,40641 104479,40644 104481,40647 104482,40649 104484,40652 104486,40654 104488,40656 104490,40658 104492,40660 104495,40661 104497,40663 104499,40664 104502,40666 104505,40667 104507,40668 104510,40669 104513,40670 104516,40670 104518,40670 104521,40671 104524,40671 104527,40671 104530,40671 104533,40671 104536,40671 104539,40670 104541,40670 104544,40670 104547,40669 104550,40668 104553,40668 104556,40667 104558,40666 104561,40665 104564,40664 104566,40662 104569,40661 104572,40659 104574,40658 104576,40656 104579,40654 104581,40653 104583,40651 104586,40649 104588,40647 104589,40645 104591,40643 104594,40641 104595,40638 104597,40636 104600,40631 104603,40626 104606,40619 104609,40614 104611,40608 104613,40602 104615,40596 104617,40590 Z"/>
    <path fill="none" stroke="rgb(0,0,255)" d="M 104617,40590 L 104717,40590 104716,40596 104714,40602 104712,40608 104710,40613 104708,40619 104706,40626 104704,40631 104701,40637 104699,40643 104696,40648 104694,40653 104691,40658 104688,40664 104685,40669 104682,40674 104679,40679 104675,40684 104672,40689 104668,40694 104664,40699 104660,40704 104656,40708 104652,40712 104647,40716 104643,40721 104638,40724 104633,40728 104628,40732 104623,40735 104618,40738 104613,40741 104607,40744 104603,40746 104598,40748 104594,40750 104589,40752 104585,40754 104580,40755 104576,40757 104571,40758 104566,40759 104562,40760 104557,40761 104552,40762 104547,40762 104543,40763 104538,40763 104533,40764 104528,40764 104523,40764 104518,40764 104514,40764 104509,40763 104504,40763 104499,40762 104495,40761 104490,40760 104485,40760 104480,40758 104476,40757 104471,40756 104466,40755 104462,40753 104457,40751 104454,40749 104450,40748 104446,40746 104443,40744 104439,40742 104435,40740 104431,40738 104428,40736 104425,40733 104421,40731 104418,40728 104415,40726 104412,40723 104409,40720 104406,40717 104404,40714 104401,40711 104398,40708 104396,40705 104394,40702 104391,40699 104389,40695 104387,40691 104385,40688 104383,40684 104381,40681 104379,40677 104378,40674 104376,40670 104375,40666 104373,40662 104372,40658 104370,40649 104367,40639 104366,40630 104364,40619 104363,40610 104361,40600 104361,40591 104360,40581 104360,40571 104360,40562 104360,40552 104361,40542 104361,40533 104363,40523 104364,40514 104366,40504 104368,40495 104370,40485 104372,40476 104376,40467 104379,40458 104382,40449 104386,40440 104390,40431 104394,40422 104398,40414 104403,40405 104408,40397 104413,40389 104418,40381 104424,40373 104430,40365 104434,40360 104440,40355 104445,40350 104450,40345 104455,40341 104461,40336 104466,40332 104472,40329 104478,40325 104484,40322 104490,40319 104497,40317 104503,40314 104510,40312 104517,40310 104524,40309 104528,40308 104534,40307 104538,40307 104543,40306 104549,40305 104553,40305 104558,40305 104564,40304 104569,40304 104574,40304 104579,40304 104584,40304 104589,40304 104594,40305 104599,40305 104604,40305 104608,40306 104612,40306 104615,40307 104619,40308 104623,40309 104626,40309 104630,40311 104634,40312 104638,40313 104641,40314 104645,40315 104648,40317 104651,40319 104655,40320 104658,40322 104662,40324 104665,40326 104668,40328 104671,40330 104674,40332 104678,40334 104680,40336 104684,40339 104686,40341 104689,40344 104692,40346 104695,40349 104697,40352 104700,40355 104702,40357 104705,40361 104707,40363 104709,40367 104712,40371 104714,40374 104716,40378 104718,40381 104720,40385 104722,40389 104724,40393 104725,40396 104726,40400 104728,40404 104729,40409 104730,40413 104731,40417 104732,40421 104732,40425 104734,40435 104735,40445 104736,40455 104737,40465 104635,40465 104635,40461 104635,40457 104635,40452 104634,40448 104634,40444 104633,40440 104632,40436 104631,40432 104630,40429 104629,40426 104628,40423 104626,40420 104624,40417 104622,40415 104620,40412 104619,40410 104616,40407 104614,40405 104611,40403 104609,40402 104606,40400 104603,40399 104600,40398 104597,40397 104594,40396 104590,40395 104587,40394 104584,40394 104580,40394 104577,40394 104573,40393 104570,40393 104566,40394 104563,40394 104560,40394 104557,40395 104553,40396 104550,40396 104547,40397 104543,40398 104540,40400 104537,40401 104534,40402 104531,40404 104528,40405 104525,40407 104522,40409 104520,40411 104517,40413 104514,40416 104512,40418 104510,40421 104507,40423 104505,40425 104503,40428 104501,40431 104498,40436 104495,40440 104492,40446 104489,40451 104487,40456 104484,40461 104482,40466 104480,40472 104478,40477 104476,40482 104474,40488 104473,40494 104472,40499 104471,40505 104470,40511 104469,40516 104468,40531 104466,40546 104465,40562 104464,40577 104464,40581 104464,40586 104464,40590 104464,40594 104465,40598 104465,40603 104466,40607 104467,40611 104468,40615 104469,40619 104470,40625 104472,40629 104474,40633 104475,40637 104477,40641 104479,40644 104481,40647 104482,40649 104484,40652 104486,40654 104488,40656 104490,40658 104492,40660 104495,40661 104497,40663 104499,40664 104502,40666 104505,40667 104507,40668 104510,40669 104513,40670 104516,40670 104518,40670 104521,40671 104524,40671 104527,40671 104530,40671 104533,40671 104536,40671 104539,40670 104541,40670 104544,40670 104547,40669 104550,40668 104553,40668 104556,40667 104558,40666 104561,40665 104564,40664 104566,40662 104569,40661 104572,40659 104574,40658 104576,40656 104579,40654 104581,40653 104583,40651 104586,40649 104588,40647 104589,40645 104591,40643 104594,40641 104595,40638 104597,40636 104600,40631 104603,40626 104606,40619 104609,40614 104611,40608 104613,40602 104615,40596 104617,40590 Z"/>
   </g>
  </g>
  <g class="com.sun.star.drawing.PolyPolygonShape">
   <g id="id8">
    <rect class="BoundingBox" stroke="none" fill="none" x="104799" y="40149" width="407" height="603"/>
    <path fill="rgb(0,0,255)" stroke="none" d="M 104800,40750 L 104907,40150 105009,40150 104971,40365 104974,40362 104976,40359 104979,40355 104982,40352 104985,40349 104988,40346 104991,40343 104994,40340 104997,40337 105001,40334 105004,40332 105007,40329 105011,40327 105014,40325 105018,40322 105022,40320 105025,40318 105028,40317 105032,40315 105035,40313 105039,40312 105042,40311 105046,40310 105049,40309 105055,40308 105061,40307 105066,40305 105072,40305 105077,40304 105083,40303 105089,40303 105094,40303 105099,40303 105103,40303 105107,40303 105111,40303 105116,40304 105120,40305 105125,40306 105129,40307 105133,40308 105137,40309 105141,40311 105145,40312 105149,40314 105153,40316 105157,40318 105161,40320 105163,40321 105165,40323 105167,40324 105169,40326 105171,40328 105173,40329 105175,40331 105176,40333 105178,40335 105179,40337 105181,40339 105183,40341 105184,40343 105185,40345 105187,40348 105187,40350 105189,40354 105191,40358 105193,40362 105194,40367 105196,40371 105197,40375 105198,40380 105199,40384 105200,40388 105201,40393 105202,40397 105202,40402 105203,40406 105203,40411 105203,40415 105204,40420 105204,40425 105203,40430 105203,40435 105202,40440 105202,40445 105201,40450 105200,40454 105199,40459 105147,40750 105044,40750 105091,40484 105092,40479 105093,40474 105094,40469 105094,40464 105095,40458 105095,40453 105095,40448 105096,40443 105096,40441 105096,40439 105095,40438 105095,40436 105095,40434 105095,40432 105094,40430 105093,40428 105093,40426 105092,40425 105091,40423 105091,40422 105089,40421 105089,40419 105088,40418 105086,40417 105084,40413 105080,40411 105077,40408 105074,40406 105070,40404 105066,40402 105063,40400 105059,40399 105054,40398 105050,40398 105046,40397 105042,40397 105038,40397 105034,40398 105030,40398 105026,40400 105022,40400 105018,40402 105014,40403 105011,40405 105008,40407 105004,40409 105001,40411 104998,40413 104995,40415 104992,40417 104989,40420 104986,40423 104983,40425 104981,40428 104978,40431 104976,40435 104973,40440 104970,40445 104967,40449 104964,40454 104962,40459 104960,40464 104958,40470 104956,40475 104954,40480 104952,40485 104951,40491 104949,40497 104947,40502 104946,40508 104945,40513 104943,40519 104902,40750 104800,40750 Z"/>
    <path fill="none" stroke="rgb(0,0,255)" d="M 104800,40750 L 104907,40150 105009,40150 104971,40365 104974,40362 104976,40359 104979,40355 104982,40352 104985,40349 104988,40346 104991,40343 104994,40340 104997,40337 105001,40334 105004,40332 105007,40329 105011,40327 105014,40325 105018,40322 105022,40320 105025,40318 105028,40317 105032,40315 105035,40313 105039,40312 105042,40311 105046,40310 105049,40309 105055,40308 105061,40307 105066,40305 105072,40305 105077,40304 105083,40303 105089,40303 105094,40303 105099,40303 105103,40303 105107,40303 105111,40303 105116,40304 105120,40305 105125,40306 105129,40307 105133,40308 105137,40309 105141,40311 105145,40312 105149,40314 105153,40316 105157,40318 105161,40320 105163,40321 105165,40323 105167,40324 105169,40326 105171,40328 105173,40329 105175,40331 105176,40333 105178,40335 105179,40337 105181,40339 105183,40341 105184,40343 105185,40345 105187,40348 105187,40350 105189,40354 105191,40358 105193,40362 105194,40367 105196,40371 105197,40375 105198,40380 105199,40384 105200,40388 105201,40393 105202,40397 105202,40402 105203,40406 105203,40411 105203,40415 105204,40420 105204,40425 105203,40430 105203,40435 105202,40440 105202,40445 105201,40450 105200,40454 105199,40459 105147,40750 105044,40750 105091,40484 105092,40479 105093,40474 105094,40469 105094,40464 105095,40458 105095,40453 105095,40448 105096,40443 105096,40441 105096,40439 105095,40438 105095,40436 105095,40434 105095,40432 105094,40430 105093,40428 105093,40426 105092,40425 105091,40423 105091,40422 105089,40421 105089,40419 105088,40418 105086,40417 105084,40413 105080,40411 105077,40408 105074,40406 105070,40404 105066,40402 105063,40400 105059,40399 105054,40398 105050,40398 105046,40397 105042,40397 105038,40397 105034,40398 105030,40398 105026,40400 105022,40400 105018,40402 105014,40403 105011,40405 105008,40407 105004,40409 105001,40411 104998,40413 104995,40415 104992,40417 104989,40420 104986,40423 104983,40425 104981,40428 104978,40431 104976,40435 104973,40440 104970,40445 104967,40449 104964,40454 104962,40459 104960,40464 104958,40470 104956,40475 104954,40480 104952,40485 104951,40491 104949,40497 104947,40502 104946,40508 104945,40513 104943,40519 104902,40750 104800,40750 Z"/>
   </g>
  </g>
  <g class="com.sun.star.drawing.PolyPolygonShape">
   <g id="id9">
    <rect class="BoundingBox" stroke="none" fill="none" x="105281" y="40302" width="380" height="463"/>
    <path fill="rgb(0,0,255)" stroke="none" d="M 105391,40486 L 105393,40479 105396,40472 105398,40466 105401,40459 105404,40453 105407,40447 105411,40440 105414,40434 105417,40431 105419,40427 105422,40423 105425,40420 105428,40417 105431,40414 105435,40411 105438,40409 105442,40406 105446,40404 105450,40401 105454,40400 105458,40398 105462,40397 105467,40395 105471,40394 105475,40394 105478,40393 105481,40393 105485,40392 105489,40392 105492,40392 105496,40393 105500,40393 105503,40394 105506,40394 105510,40395 105514,40396 105517,40397 105520,40398 105523,40400 105527,40401 105529,40402 105530,40403 105532,40404 105533,40405 105535,40406 105537,40407 105538,40409 105539,40410 105541,40411 105542,40413 105543,40414 105544,40416 105545,40417 105546,40419 105547,40421 105548,40423 105550,40428 105552,40433 105554,40439 105556,40445 105557,40451 105558,40457 105559,40463 105560,40469 105560,40486 105391,40486 Z M 105536,40612 L 105639,40612 105636,40620 105633,40629 105630,40637 105626,40645 105622,40653 105619,40661 105615,40669 105611,40677 105607,40683 105603,40688 105600,40694 105596,40699 105591,40704 105587,40709 105582,40714 105578,40718 105572,40723 105567,40727 105561,40731 105555,40734 105550,40738 105544,40741 105538,40744 105532,40747 105527,40749 105523,40751 105518,40752 105514,40754 105509,40755 105504,40756 105499,40758 105494,40759 105490,40760 105485,40760 105480,40761 105475,40762 105470,40762 105465,40763 105461,40763 105456,40763 105451,40763 105446,40763 105441,40763 105436,40763 105431,40762 105426,40762 105421,40761 105417,40760 105412,40760 105407,40758 105402,40757 105398,40756 105393,40755 105388,40753 105383,40752 105379,40750 105375,40749 105372,40747 105369,40746 105365,40745 105362,40743 105360,40741 105356,40739 105353,40737 105350,40735 105347,40733 105344,40731 105342,40729 105339,40726 105336,40724 105333,40722 105331,40719 105329,40716 105326,40714 105324,40711 105321,40708 105319,40705 105317,40702 105315,40700 105313,40697 105311,40693 105309,40691 105307,40687 105306,40684 105305,40681 105303,40677 105301,40674 105300,40671 105299,40666 105297,40661 105295,40656 105294,40651 105292,40645 105291,40640 105290,40635 105289,40630 105288,40624 105287,40619 105286,40614 105285,40609 105284,40603 105284,40598 105283,40593 105283,40587 105282,40582 105282,40577 105282,40572 105282,40566 105282,40561 105282,40555 105282,40550 105282,40545 105283,40539 105284,40534 105284,40528 105285,40523 105286,40517 105286,40512 105287,40507 105288,40501 105290,40496 105291,40491 105292,40486 105294,40480 105295,40475 105296,40470 105298,40465 105300,40460 105302,40455 105303,40450 105306,40445 105308,40440 105310,40436 105312,40431 105315,40426 105317,40421 105319,40416 105322,40412 105325,40407 105328,40402 105331,40398 105333,40394 105336,40389 105339,40384 105342,40380 105346,40376 105349,40372 105352,40368 105356,40363 105359,40359 105363,40356 105367,40351 105371,40347 105376,40342 105382,40338 105387,40333 105392,40330 105398,40326 105404,40323 105410,40319 105417,40317 105423,40314 105429,40311 105436,40309 105443,40308 105449,40307 105456,40305 105463,40305 105468,40304 105473,40304 105477,40304 105482,40303 105487,40303 105492,40304 105497,40304 105502,40304 105506,40305 105511,40305 105516,40305 105521,40306 105525,40307 105530,40308 105535,40309 105540,40310 105543,40311 105547,40311 105550,40313 105554,40314 105557,40315 105561,40316 105565,40318 105568,40319 105572,40321 105575,40322 105578,40324 105581,40326 105584,40328 105588,40330 105590,40332 105593,40334 105596,40336 105599,40338 105602,40341 105605,40343 105607,40346 105610,40348 105612,40351 105615,40353 105617,40356 105619,40359 105622,40362 105624,40365 105626,40368 105628,40371 105630,40374 105632,40377 105634,40382 105637,40388 105640,40394 105642,40399 105645,40405 105647,40411 105649,40416 105650,40422 105652,40428 105653,40434 105655,40440 105656,40446 105657,40452 105657,40458 105658,40464 105658,40470 105659,40482 105659,40493 105659,40504 105658,40515 105657,40527 105656,40539 105655,40550 105653,40562 105380,40562 105380,40567 105380,40572 105379,40578 105379,40583 105380,40589 105380,40594 105381,40600 105381,40605 105381,40608 105382,40611 105383,40614 105383,40617 105384,40620 105385,40623 105386,40626 105387,40628 105388,40631 105390,40634 105391,40636 105393,40639 105394,40641 105396,40644 105398,40646 105400,40649 105402,40651 105405,40654 105408,40656 105411,40659 105414,40661 105417,40663 105421,40664 105425,40666 105427,40667 105431,40668 105434,40668 105437,40669 105440,40670 105443,40670 105446,40671 105450,40671 105453,40671 105456,40672 105459,40672 105462,40671 105466,40671 105469,40671 105472,40670 105475,40670 105479,40670 105481,40669 105485,40668 105487,40667 105490,40666 105493,40664 105496,40662 105499,40661 105501,40659 105504,40657 105506,40655 105508,40653 105511,40651 105513,40649 105515,40646 105517,40643 105522,40636 105527,40628 105532,40620 105536,40612 Z"/>
    <path fill="none" stroke="rgb(0,0,255)" d="M 105391,40486 L 105393,40479 105396,40472 105398,40466 105401,40459 105404,40453 105407,40447 105411,40440 105414,40434 105417,40431 105419,40427 105422,40423 105425,40420 105428,40417 105431,40414 105435,40411 105438,40409 105442,40406 105446,40404 105450,40401 105454,40400 105458,40398 105462,40397 105467,40395 105471,40394 105475,40394 105478,40393 105481,40393 105485,40392 105489,40392 105492,40392 105496,40393 105500,40393 105503,40394 105506,40394 105510,40395 105514,40396 105517,40397 105520,40398 105523,40400 105527,40401 105529,40402 105530,40403 105532,40404 105533,40405 105535,40406 105537,40407 105538,40409 105539,40410 105541,40411 105542,40413 105543,40414 105544,40416 105545,40417 105546,40419 105547,40421 105548,40423 105550,40428 105552,40433 105554,40439 105556,40445 105557,40451 105558,40457 105559,40463 105560,40469 105560,40486 105391,40486 Z"/>
    <path fill="none" stroke="rgb(0,0,255)" d="M 105536,40612 L 105639,40612 105636,40620 105633,40629 105630,40637 105626,40645 105622,40653 105619,40661 105615,40669 105611,40677 105607,40683 105603,40688 105600,40694 105596,40699 105591,40704 105587,40709 105582,40714 105578,40718 105572,40723 105567,40727 105561,40731 105555,40734 105550,40738 105544,40741 105538,40744 105532,40747 105527,40749 105523,40751 105518,40752 105514,40754 105509,40755 105504,40756 105499,40758 105494,40759 105490,40760 105485,40760 105480,40761 105475,40762 105470,40762 105465,40763 105461,40763 105456,40763 105451,40763 105446,40763 105441,40763 105436,40763 105431,40762 105426,40762 105421,40761 105417,40760 105412,40760 105407,40758 105402,40757 105398,40756 105393,40755 105388,40753 105383,40752 105379,40750 105375,40749 105372,40747 105369,40746 105365,40745 105362,40743 105360,40741 105356,40739 105353,40737 105350,40735 105347,40733 105344,40731 105342,40729 105339,40726 105336,40724 105333,40722 105331,40719 105329,40716 105326,40714 105324,40711 105321,40708 105319,40705 105317,40702 105315,40700 105313,40697 105311,40693 105309,40691 105307,40687 105306,40684 105305,40681 105303,40677 105301,40674 105300,40671 105299,40666 105297,40661 105295,40656 105294,40651 105292,40645 105291,40640 105290,40635 105289,40630 105288,40624 105287,40619 105286,40614 105285,40609 105284,40603 105284,40598 105283,40593 105283,40587 105282,40582 105282,40577 105282,40572 105282,40566 105282,40561 105282,40555 105282,40550 105282,40545 105283,40539 105284,40534 105284,40528 105285,40523 105286,40517 105286,40512 105287,40507 105288,40501 105290,40496 105291,40491 105292,40486 105294,40480 105295,40475 105296,40470 105298,40465 105300,40460 105302,40455 105303,40450 105306,40445 105308,40440 105310,40436 105312,40431 105315,40426 105317,40421 105319,40416 105322,40412 105325,40407 105328,40402 105331,40398 105333,40394 105336,40389 105339,40384 105342,40380 105346,40376 105349,40372 105352,40368 105356,40363 105359,40359 105363,40356 105367,40351 105371,40347 105376,40342 105382,40338 105387,40333 105392,40330 105398,40326 105404,40323 105410,40319 105417,40317 105423,40314 105429,40311 105436,40309 105443,40308 105449,40307 105456,40305 105463,40305 105468,40304 105473,40304 105477,40304 105482,40303 105487,40303 105492,40304 105497,40304 105502,40304 105506,40305 105511,40305 105516,40305 105521,40306 105525,40307 105530,40308 105535,40309 105540,40310 105543,40311 105547,40311 105550,40313 105554,40314 105557,40315 105561,40316 105565,40318 105568,40319 105572,40321 105575,40322 105578,40324 105581,40326 105584,40328 105588,40330 105590,40332 105593,40334 105596,40336 105599,40338 105602,40341 105605,40343 105607,40346 105610,40348 105612,40351 105615,40353 105617,40356 105619,40359 105622,40362 105624,40365 105626,40368 105628,40371 105630,40374 105632,40377 105634,40382 105637,40388 105640,40394 105642,40399 105645,40405 105647,40411 105649,40416 105650,40422 105652,40428 105653,40434 105655,40440 105656,40446 105657,40452 105657,40458 105658,40464 105658,40470 105659,40482 105659,40493 105659,40504 105658,40515 105657,40527 105656,40539 105655,40550 105653,40562 105380,40562 105380,40567 105380,40572 105379,40578 105379,40583 105380,40589 105380,40594 105381,40600 105381,40605 105381,40608 105382,40611 105383,40614 105383,40617 105384,40620 105385,40623 105386,40626 105387,40628 105388,40631 105390,40634 105391,40636 105393,40639 105394,40641 105396,40644 105398,40646 105400,40649 105402,40651 105405,40654 105408,40656 105411,40659 105414,40661 105417,40663 105421,40664 105425,40666 105427,40667 105431,40668 105434,40668 105437,40669 105440,40670 105443,40670 105446,40671 105450,40671 105453,40671 105456,40672 105459,40672 105462,40671 105466,40671 105469,40671 105472,40670 105475,40670 105479,40670 105481,40669 105485,40668 105487,40667 105490,40666 105493,40664 105496,40662 105499,40661 105501,40659 105504,40657 105506,40655 105508,40653 105511,40651 105513,40649 105515,40646 105517,40643 105522,40636 105527,40628 105532,40620 105536,40612 Z"/>
   </g>
  </g>
  <g class="com.sun.star.drawing.PolyPolygonShape">
   <g id="id10">
    <rect class="BoundingBox" stroke="none" fill="none" x="105729" y="40149" width="214" height="603"/>
    <path fill="rgb(0,0,255)" stroke="none" d="M 105730,40750 L 105840,40150 105941,40150 105833,40750 105730,40750 Z"/>
    <path fill="none" stroke="rgb(0,0,255)" d="M 105730,40750 L 105840,40150 105941,40150 105833,40750 105730,40750 Z"/>
   </g>
  </g>
  <g class="com.sun.star.drawing.PolyPolygonShape">
   <g id="id11">
    <rect class="BoundingBox" stroke="none" fill="none" x="105983" y="40149" width="453" height="614"/>
    <path fill="rgb(0,0,255)" stroke="none" d="M 106267,40450 L 106267,40448 106266,40444 106265,40441 106264,40438 106263,40436 106262,40433 106260,40430 106259,40427 106258,40425 106255,40422 106254,40419 106252,40417 106250,40415 106248,40413 106246,40410 106243,40408 106241,40406 106238,40405 106236,40403 106233,40401 106230,40400 106228,40398 106225,40397 106222,40396 106219,40395 106216,40394 106213,40393 106210,40393 106207,40392 106204,40392 106201,40392 106198,40392 106196,40392 106193,40392 106190,40392 106188,40392 106185,40392 106182,40393 106180,40394 106178,40394 106175,40395 106173,40396 106170,40396 106168,40397 106165,40398 106163,40399 106161,40400 106158,40401 106156,40403 106154,40404 106151,40406 106149,40407 106147,40409 106145,40410 106144,40412 106142,40414 106140,40416 106138,40417 106136,40419 106134,40421 106133,40423 106131,40426 106130,40428 106128,40430 106126,40434 106123,40438 106121,40442 106119,40447 106117,40451 106114,40455 106112,40460 106110,40464 106108,40469 106107,40473 106105,40478 106103,40482 106101,40487 106100,40492 106099,40496 106097,40501 106096,40506 106095,40511 106094,40515 106093,40520 106092,40525 106091,40530 106090,40534 106090,40540 106089,40544 106089,40549 106088,40554 106088,40559 106088,40564 106088,40570 106088,40574 106088,40580 106088,40585 106088,40590 106088,40595 106088,40601 106090,40606 106091,40611 106092,40616 106094,40621 106096,40626 106099,40631 106101,40635 106104,40639 106107,40644 106111,40648 106115,40652 106118,40655 106121,40657 106123,40659 106125,40660 106128,40662 106130,40664 106133,40665 106136,40666 106138,40667 106142,40668 106144,40669 106147,40670 106150,40670 106153,40670 106156,40671 106159,40671 106162,40671 106167,40670 106172,40670 106177,40669 106182,40668 106186,40666 106191,40664 106196,40662 106200,40660 106205,40657 106209,40654 106213,40651 106217,40648 106221,40645 106224,40641 106227,40637 106230,40633 106233,40628 106236,40623 106239,40618 106242,40612 106244,40607 106247,40602 106250,40597 106251,40591 106254,40585 106256,40580 106258,40574 106260,40569 106261,40562 106263,40556 106264,40550 106266,40545 106266,40539 106267,40533 106268,40527 106269,40521 106269,40515 106270,40509 106270,40503 106271,40497 106271,40492 106271,40486 106270,40480 106270,40474 106269,40468 106269,40462 106268,40456 106267,40450 Z M 106227,40750 L 106236,40695 106233,40701 106229,40706 106225,40712 106221,40717 106217,40722 106213,40727 106208,40732 106203,40737 106200,40739 106198,40741 106196,40742 106193,40744 106190,40746 106188,40747 106185,40749 106182,40750 106179,40751 106176,40753 106173,40754 106171,40755 106167,40756 106165,40756 106161,40757 106159,40758 106154,40758 106150,40759 106146,40760 106142,40760 106138,40760 106134,40761 106130,40761 106126,40761 106122,40761 106118,40761 106114,40761 106110,40760 106106,40760 106102,40760 106098,40759 106094,40759 106091,40758 106088,40758 106084,40757 106082,40756 106078,40755 106075,40754 106072,40753 106070,40752 106066,40751 106064,40749 106061,40748 106058,40747 106055,40745 106053,40743 106050,40742 106047,40740 106045,40738 106042,40736 106040,40734 106037,40732 106035,40730 106033,40728 106030,40726 106028,40724 106026,40721 106024,40719 106022,40716 106020,40714 106018,40711 106016,40708 106015,40706 106013,40703 106010,40697 106007,40690 106003,40683 106000,40677 105998,40670 105995,40663 105993,40656 105991,40649 105990,40642 105988,40635 105987,40627 105986,40620 105985,40613 105984,40605 105984,40598 105984,40591 105985,40581 105985,40571 105986,40560 105986,40551 105988,40541 105989,40531 105990,40521 105992,40512 105994,40502 105996,40492 105998,40483 106000,40473 106003,40464 106006,40455 106009,40445 106012,40436 106014,40430 106016,40425 106018,40420 106021,40415 106023,40409 106026,40405 106029,40400 106032,40395 106035,40390 106038,40385 106042,40380 106045,40376 106049,40371 106053,40367 106057,40363 106061,40359 106065,40355 106069,40351 106073,40347 106078,40343 106082,40340 106087,40336 106092,40333 106097,40330 106101,40327 106107,40324 106112,40321 106117,40319 106122,40316 106127,40314 106133,40312 106138,40310 106142,40309 106145,40307 106148,40307 106152,40306 106155,40305 106159,40304 106162,40304 106166,40303 106169,40303 106173,40303 106176,40302 106180,40302 106183,40302 106187,40302 106190,40303 106194,40303 106198,40303 106201,40304 106205,40304 106208,40305 106211,40306 106215,40307 106219,40307 106222,40309 106225,40309 106228,40311 106232,40312 106235,40313 106238,40315 106242,40317 106244,40318 106248,40320 106251,40322 106255,40325 106258,40327 106262,40330 106265,40333 106268,40336 106271,40339 106273,40342 106276,40346 106279,40350 106281,40353 106283,40357 106285,40361 106286,40365 106288,40369 106289,40373 106332,40150 106434,40150 106325,40750 106227,40750 Z"/>
    <path fill="none" stroke="rgb(0,0,255)" d="M 106267,40450 L 106267,40448 106266,40444 106265,40441 106264,40438 106263,40436 106262,40433 106260,40430 106259,40427 106258,40425 106255,40422 106254,40419 106252,40417 106250,40415 106248,40413 106246,40410 106243,40408 106241,40406 106238,40405 106236,40403 106233,40401 106230,40400 106228,40398 106225,40397 106222,40396 106219,40395 106216,40394 106213,40393 106210,40393 106207,40392 106204,40392 106201,40392 106198,40392 106196,40392 106193,40392 106190,40392 106188,40392 106185,40392 106182,40393 106180,40394 106178,40394 106175,40395 106173,40396 106170,40396 106168,40397 106165,40398 106163,40399 106161,40400 106158,40401 106156,40403 106154,40404 106151,40406 106149,40407 106147,40409 106145,40410 106144,40412 106142,40414 106140,40416 106138,40417 106136,40419 106134,40421 106133,40423 106131,40426 106130,40428 106128,40430 106126,40434 106123,40438 106121,40442 106119,40447 106117,40451 106114,40455 106112,40460 106110,40464 106108,40469 106107,40473 106105,40478 106103,40482 106101,40487 106100,40492 106099,40496 106097,40501 106096,40506 106095,40511 106094,40515 106093,40520 106092,40525 106091,40530 106090,40534 106090,40540 106089,40544 106089,40549 106088,40554 106088,40559 106088,40564 106088,40570 106088,40574 106088,40580 106088,40585 106088,40590 106088,40595 106088,40601 106090,40606 106091,40611 106092,40616 106094,40621 106096,40626 106099,40631 106101,40635 106104,40639 106107,40644 106111,40648 106115,40652 106118,40655 106121,40657 106123,40659 106125,40660 106128,40662 106130,40664 106133,40665 106136,40666 106138,40667 106142,40668 106144,40669 106147,40670 106150,40670 106153,40670 106156,40671 106159,40671 106162,40671 106167,40670 106172,40670 106177,40669 106182,40668 106186,40666 106191,40664 106196,40662 106200,40660 106205,40657 106209,40654 106213,40651 106217,40648 106221,40645 106224,40641 106227,40637 106230,40633 106233,40628 106236,40623 106239,40618 106242,40612 106244,40607 106247,40602 106250,40597 106251,40591 106254,40585 106256,40580 106258,40574 106260,40569 106261,40562 106263,40556 106264,40550 106266,40545 106266,40539 106267,40533 106268,40527 106269,40521 106269,40515 106270,40509 106270,40503 106271,40497 106271,40492 106271,40486 106270,40480 106270,40474 106269,40468 106269,40462 106268,40456 106267,40450 Z"/>
    <path fill="none" stroke="rgb(0,0,255)" d="M 106227,40750 L 106236,40695 106233,40701 106229,40706 106225,40712 106221,40717 106217,40722 106213,40727 106208,40732 106203,40737 106200,40739 106198,40741 106196,40742 106193,40744 106190,40746 106188,40747 106185,40749 106182,40750 106179,40751 106176,40753 106173,40754 106171,40755 106167,40756 106165,40756 106161,40757 106159,40758 106154,40758 106150,40759 106146,40760 106142,40760 106138,40760 106134,40761 106130,40761 106126,40761 106122,40761 106118,40761 106114,40761 106110,40760 106106,40760 106102,40760 106098,40759 106094,40759 106091,40758 106088,40758 106084,40757 106082,40756 106078,40755 106075,40754 106072,40753 106070,40752 106066,40751 106064,40749 106061,40748 106058,40747 106055,40745 106053,40743 106050,40742 106047,40740 106045,40738 106042,40736 106040,40734 106037,40732 106035,40730 106033,40728 106030,40726 106028,40724 106026,40721 106024,40719 106022,40716 106020,40714 106018,40711 106016,40708 106015,40706 106013,40703 106010,40697 106007,40690 106003,40683 106000,40677 105998,40670 105995,40663 105993,40656 105991,40649 105990,40642 105988,40635 105987,40627 105986,40620 105985,40613 105984,40605 105984,40598 105984,40591 105985,40581 105985,40571 105986,40560 105986,40551 105988,40541 105989,40531 105990,40521 105992,40512 105994,40502 105996,40492 105998,40483 106000,40473 106003,40464 106006,40455 106009,40445 106012,40436 106014,40430 106016,40425 106018,40420 106021,40415 106023,40409 106026,40405 106029,40400 106032,40395 106035,40390 106038,40385 106042,40380 106045,40376 106049,40371 106053,40367 106057,40363 106061,40359 106065,40355 106069,40351 106073,40347 106078,40343 106082,40340 106087,40336 106092,40333 106097,40330 106101,40327 106107,40324 106112,40321 106117,40319 106122,40316 106127,40314 106133,40312 106138,40310 106142,40309 106145,40307 106148,40307 106152,40306 106155,40305 106159,40304 106162,40304 106166,40303 106169,40303 106173,40303 106176,40302 106180,40302 106183,40302 106187,40302 106190,40303 106194,40303 106198,40303 106201,40304 106205,40304 106208,40305 106211,40306 106215,40307 106219,40307 106222,40309 106225,40309 106228,40311 106232,40312 106235,40313 106238,40315 106242,40317 106244,40318 106248,40320 106251,40322 106255,40325 106258,40327 106262,40330 106265,40333 106268,40336 106271,40339 106273,40342 106276,40346 106279,40350 106281,40353 106283,40357 106285,40361 106286,40365 106288,40369 106289,40373 106332,40150 106434,40150 106325,40750 106227,40750 Z"/>
   </g>
  </g>
  <g class="com.sun.star.drawing.PolyPolygonShape">
   <g id="id12">
    <rect class="BoundingBox" stroke="none" fill="none" x="106472" y="40302" width="380" height="463"/>
    <path fill="rgb(0,0,255)" stroke="none" d="M 106582,40486 L 106584,40479 106587,40472 106589,40466 106592,40459 106595,40453 106599,40447 106602,40440 106605,40434 106608,40431 106610,40427 106613,40423 106616,40420 106619,40417 106623,40414 106626,40411 106630,40409 106633,40406 106637,40404 106641,40401 106645,40400 106649,40398 106653,40397 106658,40395 106662,40394 106666,40394 106669,40393 106673,40393 106676,40392 106680,40392 106683,40392 106687,40393 106692,40393 106695,40394 106699,40394 106702,40395 106705,40396 106709,40397 106712,40398 106715,40400 106719,40401 106721,40402 106722,40403 106724,40404 106725,40405 106727,40406 106729,40407 106730,40409 106731,40410 106733,40411 106734,40413 106735,40414 106736,40416 106737,40417 106738,40419 106739,40421 106740,40423 106742,40428 106744,40433 106746,40439 106748,40445 106749,40451 106750,40457 106751,40463 106752,40469 106752,40486 106582,40486 Z M 106728,40612 L 106830,40612 106827,40620 106824,40629 106821,40637 106818,40645 106814,40653 106810,40661 106806,40669 106802,40677 106798,40683 106795,40688 106791,40694 106787,40699 106783,40704 106778,40709 106773,40714 106769,40718 106763,40723 106758,40727 106753,40731 106748,40734 106742,40738 106736,40741 106730,40744 106724,40747 106719,40749 106715,40751 106710,40752 106705,40754 106701,40755 106696,40756 106691,40758 106685,40759 106681,40760 106676,40760 106671,40761 106666,40762 106661,40762 106656,40763 106652,40763 106647,40763 106642,40763 106637,40763 106632,40763 106627,40763 106622,40762 106617,40762 106612,40761 106608,40760 106603,40760 106598,40758 106593,40757 106589,40756 106584,40755 106579,40753 106574,40752 106570,40750 106566,40749 106563,40747 106560,40746 106557,40745 106554,40743 106550,40741 106547,40739 106544,40737 106541,40735 106538,40733 106535,40731 106533,40729 106530,40726 106527,40724 106525,40722 106522,40719 106519,40716 106517,40714 106515,40711 106512,40708 106510,40705 106508,40702 106506,40700 106504,40697 106502,40693 106500,40691 106499,40687 106497,40684 106496,40681 106494,40677 106493,40674 106491,40671 106490,40666 106488,40661 106487,40656 106485,40651 106483,40645 106482,40640 106481,40635 106480,40630 106479,40624 106478,40619 106477,40614 106476,40609 106475,40603 106475,40598 106474,40593 106474,40587 106473,40582 106473,40577 106473,40572 106473,40566 106473,40561 106473,40555 106473,40550 106473,40545 106474,40539 106475,40534 106475,40528 106476,40523 106477,40517 106477,40512 106478,40507 106479,40501 106481,40496 106482,40491 106483,40486 106485,40480 106486,40475 106488,40470 106489,40465 106491,40460 106493,40455 106495,40450 106497,40445 106499,40440 106501,40436 106503,40431 106506,40426 106508,40421 106510,40416 106513,40412 106516,40407 106519,40402 106521,40398 106524,40394 106527,40389 106530,40384 106533,40380 106537,40376 106540,40372 106543,40368 106547,40363 106550,40359 106554,40356 106558,40351 106562,40347 106568,40342 106573,40338 106578,40333 106584,40330 106589,40326 106595,40323 106601,40319 106608,40317 106614,40314 106620,40311 106627,40309 106634,40308 106641,40307 106647,40305 106654,40305 106659,40304 106664,40304 106668,40304 106673,40303 106678,40303 106683,40304 106689,40304 106694,40304 106698,40305 106703,40305 106708,40305 106713,40306 106718,40307 106723,40308 106727,40309 106732,40310 106735,40311 106739,40311 106742,40313 106746,40314 106749,40315 106753,40316 106756,40318 106760,40319 106763,40321 106766,40322 106769,40324 106772,40326 106775,40328 106779,40330 106781,40332 106785,40334 106787,40336 106790,40338 106793,40341 106796,40343 106798,40346 106801,40348 106803,40351 106806,40353 106808,40356 106810,40359 106813,40362 106815,40365 106817,40368 106819,40371 106821,40374 106823,40377 106825,40382 106828,40388 106831,40394 106833,40399 106836,40405 106838,40411 106840,40416 106842,40422 106843,40428 106845,40434 106846,40440 106847,40446 106848,40452 106848,40458 106849,40464 106850,40470 106850,40482 106850,40493 106850,40504 106849,40515 106848,40527 106847,40539 106846,40550 106845,40562 106571,40562 106571,40567 106571,40572 106570,40578 106570,40583 106571,40589 106571,40594 106571,40600 106572,40605 106572,40608 106573,40611 106573,40614 106574,40617 106575,40620 106576,40623 106577,40626 106578,40628 106579,40631 106581,40634 106582,40636 106584,40639 106585,40641 106587,40644 106589,40646 106591,40649 106593,40651 106596,40654 106599,40656 106602,40659 106605,40661 106608,40663 106612,40664 106616,40666 106619,40667 106622,40668 106625,40668 106628,40669 106631,40670 106634,40670 106637,40671 106641,40671 106644,40671 106647,40672 106651,40672 106654,40671 106657,40671 106660,40671 106663,40670 106666,40670 106670,40670 106672,40669 106676,40668 106678,40667 106681,40666 106684,40664 106687,40662 106691,40661 106693,40659 106696,40657 106698,40655 106701,40653 106703,40651 106705,40649 106707,40646 106709,40643 106714,40636 106719,40628 106724,40620 106728,40612 Z"/>
    <path fill="none" stroke="rgb(0,0,255)" d="M 106582,40486 L 106584,40479 106587,40472 106589,40466 106592,40459 106595,40453 106599,40447 106602,40440 106605,40434 106608,40431 106610,40427 106613,40423 106616,40420 106619,40417 106623,40414 106626,40411 106630,40409 106633,40406 106637,40404 106641,40401 106645,40400 106649,40398 106653,40397 106658,40395 106662,40394 106666,40394 106669,40393 106673,40393 106676,40392 106680,40392 106683,40392 106687,40393 106692,40393 106695,40394 106699,40394 106702,40395 106705,40396 106709,40397 106712,40398 106715,40400 106719,40401 106721,40402 106722,40403 106724,40404 106725,40405 106727,40406 106729,40407 106730,40409 106731,40410 106733,40411 106734,40413 106735,40414 106736,40416 106737,40417 106738,40419 106739,40421 106740,40423 106742,40428 106744,40433 106746,40439 106748,40445 106749,40451 106750,40457 106751,40463 106752,40469 106752,40486 106582,40486 Z"/>
    <path fill="none" stroke="rgb(0,0,255)" d="M 106728,40612 L 106830,40612 106827,40620 106824,40629 106821,40637 106818,40645 106814,40653 106810,40661 106806,40669 106802,40677 106798,40683 106795,40688 106791,40694 106787,40699 106783,40704 106778,40709 106773,40714 106769,40718 106763,40723 106758,40727 106753,40731 106748,40734 106742,40738 106736,40741 106730,40744 106724,40747 106719,40749 106715,40751 106710,40752 106705,40754 106701,40755 106696,40756 106691,40758 106685,40759 106681,40760 106676,40760 106671,40761 106666,40762 106661,40762 106656,40763 106652,40763 106647,40763 106642,40763 106637,40763 106632,40763 106627,40763 106622,40762 106617,40762 106612,40761 106608,40760 106603,40760 106598,40758 106593,40757 106589,40756 106584,40755 106579,40753 106574,40752 106570,40750 106566,40749 106563,40747 106560,40746 106557,40745 106554,40743 106550,40741 106547,40739 106544,40737 106541,40735 106538,40733 106535,40731 106533,40729 106530,40726 106527,40724 106525,40722 106522,40719 106519,40716 106517,40714 106515,40711 106512,40708 106510,40705 106508,40702 106506,40700 106504,40697 106502,40693 106500,40691 106499,40687 106497,40684 106496,40681 106494,40677 106493,40674 106491,40671 106490,40666 106488,40661 106487,40656 106485,40651 106483,40645 106482,40640 106481,40635 106480,40630 106479,40624 106478,40619 106477,40614 106476,40609 106475,40603 106475,40598 106474,40593 106474,40587 106473,40582 106473,40577 106473,40572 106473,40566 106473,40561 106473,40555 106473,40550 106473,40545 106474,40539 106475,40534 106475,40528 106476,40523 106477,40517 106477,40512 106478,40507 106479,40501 106481,40496 106482,40491 106483,40486 106485,40480 106486,40475 106488,40470 106489,40465 106491,40460 106493,40455 106495,40450 106497,40445 106499,40440 106501,40436 106503,40431 106506,40426 106508,40421 106510,40416 106513,40412 106516,40407 106519,40402 106521,40398 106524,40394 106527,40389 106530,40384 106533,40380 106537,40376 106540,40372 106543,40368 106547,40363 106550,40359 106554,40356 106558,40351 106562,40347 106568,40342 106573,40338 106578,40333 106584,40330 106589,40326 106595,40323 106601,40319 106608,40317 106614,40314 106620,40311 106627,40309 106634,40308 106641,40307 106647,40305 106654,40305 106659,40304 106664,40304 106668,40304 106673,40303 106678,40303 106683,40304 106689,40304 106694,40304 106698,40305 106703,40305 106708,40305 106713,40306 106718,40307 106723,40308 106727,40309 106732,40310 106735,40311 106739,40311 106742,40313 106746,40314 106749,40315 106753,40316 106756,40318 106760,40319 106763,40321 106766,40322 106769,40324 106772,40326 106775,40328 106779,40330 106781,40332 106785,40334 106787,40336 106790,40338 106793,40341 106796,40343 106798,40346 106801,40348 106803,40351 106806,40353 106808,40356 106810,40359 106813,40362 106815,40365 106817,40368 106819,40371 106821,40374 106823,40377 106825,40382 106828,40388 106831,40394 106833,40399 106836,40405 106838,40411 106840,40416 106842,40422 106843,40428 106845,40434 106846,40440 106847,40446 106848,40452 106848,40458 106849,40464 106850,40470 106850,40482 106850,40493 106850,40504 106849,40515 106848,40527 106847,40539 106846,40550 106845,40562 106571,40562 106571,40567 106571,40572 106570,40578 106570,40583 106571,40589 106571,40594 106571,40600 106572,40605 106572,40608 106573,40611 106573,40614 106574,40617 106575,40620 106576,40623 106577,40626 106578,40628 106579,40631 106581,40634 106582,40636 106584,40639 106585,40641 106587,40644 106589,40646 106591,40649 106593,40651 106596,40654 106599,40656 106602,40659 106605,40661 106608,40663 106612,40664 106616,40666 106619,40667 106622,40668 106625,40668 106628,40669 106631,40670 106634,40670 106637,40671 106641,40671 106644,40671 106647,40672 106651,40672 106654,40671 106657,40671 106660,40671 106663,40670 106666,40670 106670,40670 106672,40669 106676,40668 106678,40667 106681,40666 106684,40664 106687,40662 106691,40661 106693,40659 106696,40657 106698,40655 106701,40653 106703,40651 106705,40649 106707,40646 106709,40643 106714,40636 106719,40628 106724,40620 106728,40612 Z"/>
   </g>
  </g>
 </g>
</svg>