<?xml version="1.0" encoding="UTF-8"?>
<!DOCTYPE svg PUBLIC "-//W3C//DTD SVG 1.1//EN" "http://www.w3.org/Graphics/SVG/1.1/DTD/svg11.dtd">
<svg version="1.2" width="16.56mm" height="25.03mm" viewBox="3999 43499 1656 2503" preserveAspectRatio="xMidYMid" fill-rule="evenodd" stroke-width="28.222" stroke-linejoin="round" xmlns="http://www.w3.org/2000/svg" xmlns:ooo="http://xml.openoffice.org/svg/export" xmlns:xlink="http://www.w3.org/1999/xlink" xmlns:presentation="http://sun.com/xmlns/staroffice/presentation" xmlns:smil="http://www.w3.org/2001/SMIL20/" xmlns:anim="urn:oasis:names:tc:opendocument:xmlns:animation:1.0" xml:space="preserve">
 <defs class="EmbeddedBulletChars">
  <g id="bullet-char-template-57356" transform="scale(0.00048828125,-0.00048828125)">
   <path d="M 580,1141 L 1163,571 580,0 -4,571 580,1141 Z"/>
  </g>
  <g id="bullet-char-template-57354" transform="scale(0.00048828125,-0.00048828125)">
   <path d="M 8,1128 L 1137,1128 1137,0 8,0 8,1128 Z"/>
  </g>
  <g id="bullet-char-template-10146" transform="scale(0.00048828125,-0.00048828125)">
   <path d="M 174,0 L 602,739 174,1481 1456,739 174,0 Z M 1358,739 L 309,1346 659,739 1358,739 Z"/>
  </g>
  <g id="bullet-char-template-10132" transform="scale(0.00048828125,-0.00048828125)">
   <path d="M 2015,739 L 1276,0 717,0 1260,543 174,543 174,936 1260,936 717,1481 1274,1481 2015,739 Z"/>
  </g>
  <g id="bullet-char-template-10007" transform="scale(0.00048828125,-0.00048828125)">
   <path d="M 0,-2 C -7,14 -16,27 -25,37 L 356,567 C 262,823 215,952 215,954 215,979 228,992 255,992 264,992 276,990 289,987 310,991 331,999 354,1012 L 381,999 492,748 772,1049 836,1024 860,1049 C 881,1039 901,1025 922,1006 886,937 835,863 770,784 769,783 710,716 594,584 L 774,223 C 774,196 753,168 711,139 L 727,119 C 717,90 699,76 672,76 641,76 570,178 457,381 L 164,-76 C 142,-110 111,-127 72,-127 30,-127 9,-110 8,-76 1,-67 -2,-52 -2,-32 -2,-23 -1,-13 0,-2 Z"/>
  </g>
  <g id="bullet-char-template-10004" transform="scale(0.00048828125,-0.00048828125)">
   <path d="M 285,-33 C 182,-33 111,30 74,156 52,228 41,333 41,471 41,549 55,616 82,672 116,743 169,778 240,778 293,778 328,747 346,684 L 369,508 C 377,444 397,411 428,410 L 1163,1116 C 1174,1127 1196,1133 1229,1133 1271,1133 1292,1118 1292,1087 L 1292,965 C 1292,929 1282,901 1262,881 L 442,47 C 390,-6 338,-33 285,-33 Z"/>
  </g>
  <g id="bullet-char-template-9679" transform="scale(0.00048828125,-0.00048828125)">
   <path d="M 813,0 C 632,0 489,54 383,161 276,268 223,411 223,592 223,773 276,916 383,1023 489,1130 632,1184 813,1184 992,1184 1136,1130 1245,1023 1353,916 1407,772 1407,592 1407,412 1353,268 1245,161 1136,54 992,0 813,0 Z"/>
  </g>
  <g id="bullet-char-template-8226" transform="scale(0.00048828125,-0.00048828125)">
   <path d="M 346,457 C 273,457 209,483 155,535 101,586 74,649 74,723 74,796 101,859 155,911 209,963 273,989 346,989 419,989 480,963 531,910 582,859 608,796 608,723 608,648 583,586 532,535 482,483 420,457 346,457 Z"/>
  </g>
  <g id="bullet-char-template-8211" transform="scale(0.00048828125,-0.00048828125)">
   <path d="M -4,459 L 1135,459 1135,606 -4,606 -4,459 Z"/>
  </g>
  <g id="bullet-char-template-61548" transform="scale(0.00048828125,-0.00048828125)">
   <path d="M 173,740 C 173,903 231,1043 346,1159 462,1274 601,1332 765,1332 928,1332 1067,1274 1183,1159 1299,1043 1357,903 1357,740 1357,577 1299,437 1183,322 1067,206 928,148 765,148 601,148 462,206 346,322 231,437 173,577 173,740 Z"/>
  </g>
 </defs>
 <g class="Page">
  <g class="com.sun.star.drawing.PolyPolygonShape">
   <g id="id3">
    <rect class="BoundingBox" stroke="none" fill="none" x="3999" y="43499" width="1656" height="2503"/>
    <path fill="rgb(0,0,255)" stroke="none" d="M 4180,46000 L 5474,46000 5479,46000 5483,46000 5487,46000 5492,46000 5496,45999 5500,45998 5505,45998 5509,45997 5513,45996 5518,45995 5522,45994 5526,45993 5530,45991 5534,45990 5539,45988 5543,45987 5547,45985 5551,45983 5555,45981 5559,45979 5562,45977 5566,45975 5570,45972 5574,45970 5577,45967 5581,45965 5584,45962 5588,45960 5591,45957 5594,45954 5598,45951 5601,45948 5604,45944 5607,45941 5610,45938 5613,45934 5615,45931 5618,45927 5621,45924 5623,45920 5625,45916 5628,45913 5630,45909 5632,45905 5634,45901 5636,45897 5638,45893 5640,45889 5641,45885 5643,45881 5644,45876 5646,45872 5647,45868 5648,45864 5649,45859 5650,45855 5650,45851 5651,45846 5652,45842 5652,45838 5653,45833 5653,45829 5653,45824 5653,45820 5653,43680 5653,43676 5653,43671 5653,43667 5652,43662 5652,43658 5651,43654 5650,43649 5650,43645 5649,43641 5648,43636 5647,43632 5646,43628 5644,43623 5643,43619 5641,43615 5640,43611 5638,43607 5636,43603 5634,43599 5632,43595 5630,43591 5628,43587 5625,43584 5623,43580 5621,43576 5618,43573 5615,43569 5613,43565 5610,43562 5607,43559 5604,43556 5601,43552 5598,43549 5594,43546 5591,43543 5588,43540 5584,43538 5581,43535 5577,43533 5574,43530 5570,43527 5566,43525 5562,43523 5559,43521 5555,43519 5551,43517 5547,43515 5543,43513 5539,43512 5534,43510 5530,43509 5526,43507 5522,43506 5518,43505 5513,43504 5509,43503 5505,43502 5500,43502 5496,43501 5492,43500 5487,43500 5483,43500 5479,43500 5474,43500 4180,43500 4175,43500 4171,43500 4166,43500 4162,43500 4158,43501 4153,43502 4149,43502 4145,43503 4140,43504 4136,43505 4132,43506 4127,43507 4122,43509 4118,43510 4114,43512 4110,43513 4106,43515 4102,43517 4098,43519 4094,43521 4090,43523 4087,43525 4083,43527 4079,43530 4075,43533 4072,43535 4068,43538 4065,43540 4062,43543 4058,43546 4055,43549 4052,43552 4049,43556 4046,43559 4043,43562 4040,43565 4037,43569 4035,43573 4032,43576 4030,43580 4027,43584 4025,43587 4023,43591 4021,43595 4019,43599 4017,43603 4015,43607 4013,43611 4011,43615 4010,43619 4009,43623 4007,43628 4006,43632 4005,43636 4004,43641 4003,43645 4002,43649 4001,43654 4001,43658 4000,43662 4000,43667 4000,43671 4000,43676 4000,43680 4000,45820 4000,45824 4000,45829 4000,45833 4000,45838 4001,45842 4001,45846 4002,45851 4003,45855 4004,45859 4005,45864 4006,45868 4007,45872 4009,45876 4010,45881 4011,45885 4013,45889 4015,45893 4017,45897 4019,45901 4021,45905 4023,45909 4025,45913 4027,45916 4030,45920 4032,45924 4035,45927 4037,45931 4040,45934 4043,45938 4046,45941 4049,45944 4052,45948 4055,45951 4058,45954 4062,45957 4065,45960 4068,45962 4072,45965 4075,45967 4079,45970 4083,45972 4087,45975 4090,45977 4094,45979 4098,45981 4102,45983 4106,45985 4110,45987 4114,45988 4118,45990 4122,45991 4127,45993 4132,45994 4136,45995 4140,45996 4145,45997 4149,45998 4153,45998 4158,45999 4162,46000 4166,46000 4171,46000 4175,46000 4180,46000 Z"/>
    <path fill="none" stroke="rgb(0,0,255)" d="M 4180,46000 L 5474,46000 5479,46000 5483,46000 5487,46000 5492,46000 5496,45999 5500,45998 5505,45998 5509,45997 5513,45996 5518,45995 5522,45994 5526,45993 5530,45991 5534,45990 5539,45988 5543,45987 5547,45985 5551,45983 5555,45981 5559,45979 5562,45977 5566,45975 5570,45972 5574,45970 5577,45967 5581,45965 5584,45962 5588,45960 5591,45957 5594,45954 5598,45951 5601,45948 5604,45944 5607,45941 5610,45938 5613,45934 5615,45931 5618,45927 5621,45924 5623,45920 5625,45916 5628,45913 5630,45909 5632,45905 5634,45901 5636,45897 5638,45893 5640,45889 5641,45885 5643,45881 5644,45876 5646,45872 5647,45868 5648,45864 5649,45859 5650,45855 5650,45851 5651,45846 5652,45842 5652,45838 5653,45833 5653,45829 5653,45824 5653,45820 5653,43680 5653,43676 5653,43671 5653,43667 5652,43662 5652,43658 5651,43654 5650,43649 5650,43645 5649,43641 5648,43636 5647,43632 5646,43628 5644,43623 5643,43619 5641,43615 5640,43611 5638,43607 5636,43603 5634,43599 5632,43595 5630,43591 5628,43587 5625,43584 5623,43580 5621,43576 5618,43573 5615,43569 5613,43565 5610,43562 5607,43559 5604,43556 5601,43552 5598,43549 5594,43546 5591,43543 5588,43540 5584,43538 5581,43535 5577,43533 5574,43530 5570,43527 5566,43525 5562,43523 5559,43521 5555,43519 5551,43517 5547,43515 5543,43513 5539,43512 5534,43510 5530,43509 5526,43507 5522,43506 5518,43505 5513,43504 5509,43503 5505,43502 5500,43502 5496,43501 5492,43500 5487,43500 5483,43500 5479,43500 5474,43500 4180,43500 4175,43500 4171,43500 4166,43500 4162,43500 4158,43501 4153,43502 4149,43502 4145,43503 4140,43504 4136,43505 4132,43506 4127,43507 4122,43509 4118,43510 4114,43512 4110,43513 4106,43515 4102,43517 4098,43519 4094,43521 4090,43523 4087,43525 4083,43527 4079,43530 4075,43533 4072,43535 4068,43538 4065,43540 4062,43543 4058,43546 4055,43549 4052,43552 4049,43556 4046,43559 4043,43562 4040,43565 4037,43569 4035,43573 4032,43576 4030,43580 4027,43584 4025,43587 4023,43591 4021,43595 4019,43599 4017,43603 4015,43607 4013,43611 4011,43615 4010,43619 4009,43623 4007,43628 4006,43632 4005,43636 4004,43641 4003,43645 4002,43649 4001,43654 4001,43658 4000,43662 4000,43667 4000,43671 4000,43676 4000,43680 4000,45820 4000,45824 4000,45829 4000,45833 4000,45838 4001,45842 4001,45846 4002,45851 4003,45855 4004,45859 4005,45864 4006,45868 4007,45872 4009,45876 4010,45881 4011,45885 4013,45889 4015,45893 4017,45897 4019,45901 4021,45905 4023,45909 4025,45913 4027,45916 4030,45920 4032,45924 4035,45927 4037,45931 4040,45934 4043,45938 4046,45941 4049,45944 4052,45948 4055,45951 4058,45954 4062,45957 4065,45960 4068,45962 4072,45965 4075,45967 4079,45970 4083,45972 4087,45975 4090,45977 4094,45979 4098,45981 4102,45983 4106,45985 4110,45987 4114,45988 4118,45990 4122,45991 4127,45993 4132,45994 4136,45995 4140,45996 4145,45997 4149,45998 4153,45998 4158,45999 4162,46000 4166,46000 4171,46000 4175,46000 4180,46000 Z"/>
   </g>
  </g>
  <g class="com.sun.star.drawing.PolyPolygonShape">
   <g id="id4">
    <rect class="BoundingBox" stroke="none" fill="none" x="4040" y="43540" width="1574" height="2421"/>
    <path fill="rgb(255,255,255)" stroke="none" d="M 4179,45959 L 5473,45959 5476,45959 5480,45959 5483,45958 5487,45958 5490,45958 5493,45957 5498,45957 5501,45956 5504,45955 5508,45955 5511,45954 5514,45953 5517,45952 5521,45951 5524,45949 5527,45948 5530,45947 5533,45945 5536,45944 5539,45942 5542,45941 5545,45939 5548,45937 5551,45935 5553,45933 5556,45931 5559,45929 5561,45927 5564,45925 5567,45923 5569,45920 5571,45918 5574,45916 5576,45913 5578,45911 5581,45908 5583,45905 5585,45903 5587,45900 5589,45897 5591,45894 5592,45891 5594,45888 5596,45885 5597,45882 5599,45879 5600,45876 5601,45873 5603,45870 5604,45867 5605,45863 5606,45860 5607,45857 5608,45854 5609,45850 5609,45847 5610,45844 5610,45840 5611,45837 5611,45834 5611,45830 5612,45827 5612,45823 5612,45820 5612,43680 5612,43677 5612,43673 5611,43670 5611,43666 5611,43663 5610,43660 5610,43656 5609,43653 5609,43650 5608,43646 5607,43643 5606,43640 5605,43636 5604,43633 5603,43630 5601,43627 5600,43624 5599,43621 5597,43618 5596,43615 5594,43612 5592,43609 5591,43606 5589,43603 5587,43600 5585,43597 5583,43595 5581,43592 5578,43589 5576,43587 5574,43584 5571,43582 5569,43580 5567,43577 5564,43575 5561,43573 5559,43571 5556,43569 5553,43567 5551,43565 5548,43563 5545,43561 5542,43559 5539,43558 5536,43556 5533,43554 5530,43553 5527,43552 5524,43551 5521,43549 5517,43548 5514,43547 5511,43546 5508,43545 5504,43545 5501,43544 5498,43543 5493,43543 5490,43542 5487,43542 5483,43542 5480,43541 5476,43541 5473,43541 4179,43541 4175,43541 4172,43541 4168,43542 4165,43542 4162,43542 4158,43543 4155,43543 4152,43544 4148,43545 4145,43545 4142,43546 4139,43547 4135,43548 4132,43549 4129,43551 4126,43552 4123,43553 4120,43554 4117,43556 4114,43558 4111,43559 4108,43561 4105,43563 4102,43565 4099,43567 4097,43569 4094,43571 4091,43573 4089,43575 4086,43577 4083,43580 4081,43582 4079,43584 4077,43587 4074,43589 4072,43592 4070,43595 4068,43597 4066,43600 4064,43603 4062,43606 4060,43609 4059,43612 4057,43615 4055,43618 4054,43621 4053,43624 4051,43627 4050,43630 4049,43633 4048,43636 4047,43640 4046,43643 4045,43646 4044,43650 4043,43653 4043,43656 4042,43660 4042,43663 4041,43666 4041,43670 4041,43673 4041,43677 4041,43680 4041,45820 4041,45823 4041,45827 4041,45830 4041,45834 4042,45837 4042,45840 4043,45844 4043,45847 4044,45850 4045,45854 4046,45857 4047,45860 4048,45863 4049,45867 4050,45870 4051,45873 4053,45876 4054,45879 4055,45882 4057,45885 4059,45888 4060,45891 4062,45894 4064,45897 4066,45900 4068,45903 4070,45905 4072,45908 4074,45911 4077,45913 4079,45916 4081,45918 4083,45920 4086,45923 4089,45925 4091,45927 4094,45929 4097,45931 4099,45933 4102,45935 4105,45937 4108,45939 4111,45941 4114,45942 4117,45944 4120,45945 4123,45947 4126,45948 4129,45949 4132,45951 4135,45952 4139,45953 4142,45954 4145,45955 4148,45955 4152,45956 4155,45957 4158,45957 4162,45958 4165,45958 4168,45958 4172,45959 4175,45959 4179,45959 Z"/>
    <path fill="none" stroke="rgb(255,255,255)" d="M 4179,45959 L 5473,45959 5476,45959 5480,45959 5483,45958 5487,45958 5490,45958 5493,45957 5498,45957 5501,45956 5504,45955 5508,45955 5511,45954 5514,45953 5517,45952 5521,45951 5524,45949 5527,45948 5530,45947 5533,45945 5536,45944 5539,45942 5542,45941 5545,45939 5548,45937 5551,45935 5553,45933 5556,45931 5559,45929 5561,45927 5564,45925 5567,45923 5569,45920 5571,45918 5574,45916 5576,45913 5578,45911 5581,45908 5583,45905 5585,45903 5587,45900 5589,45897 5591,45894 5592,45891 5594,45888 5596,45885 5597,45882 5599,45879 5600,45876 5601,45873 5603,45870 5604,45867 5605,45863 5606,45860 5607,45857 5608,45854 5609,45850 5609,45847 5610,45844 5610,45840 5611,45837 5611,45834 5611,45830 5612,45827 5612,45823 5612,45820 5612,43680 5612,43677 5612,43673 5611,43670 5611,43666 5611,43663 5610,43660 5610,43656 5609,43653 5609,43650 5608,43646 5607,43643 5606,43640 5605,43636 5604,43633 5603,43630 5601,43627 5600,43624 5599,43621 5597,43618 5596,43615 5594,43612 5592,43609 5591,43606 5589,43603 5587,43600 5585,43597 5583,43595 5581,43592 5578,43589 5576,43587 5574,43584 5571,43582 5569,43580 5567,43577 5564,43575 5561,43573 5559,43571 5556,43569 5553,43567 5551,43565 5548,43563 5545,43561 5542,43559 5539,43558 5536,43556 5533,43554 5530,43553 5527,43552 5524,43551 5521,43549 5517,43548 5514,43547 5511,43546 5508,43545 5504,43545 5501,43544 5498,43543 5493,43543 5490,43542 5487,43542 5483,43542 5480,43541 5476,43541 5473,43541 4179,43541 4175,43541 4172,43541 4168,43542 4165,43542 4162,43542 4158,43543 4155,43543 4152,43544 4148,43545 4145,43545 4142,43546 4139,43547 4135,43548 4132,43549 4129,43551 4126,43552 4123,43553 4120,43554 4117,43556 4114,43558 4111,43559 4108,43561 4105,43563 4102,43565 4099,43567 4097,43569 4094,43571 4091,43573 4089,43575 4086,43577 4083,43580 4081,43582 4079,43584 4077,43587 4074,43589 4072,43592 4070,43595 4068,43597 4066,43600 4064,43603 4062,43606 4060,43609 4059,43612 4057,43615 4055,43618 4054,43621 4053,43624 4051,43627 4050,43630 4049,43633 4048,43636 4047,43640 4046,43643 4045,43646 4044,43650 4043,43653 4043,43656 4042,43660 4042,43663 4041,43666 4041,43670 4041,43673 4041,43677 4041,43680 4041,45820 4041,45823 4041,45827 4041,45830 4041,45834 4042,45837 4042,45840 4043,45844 4043,45847 4044,45850 4045,45854 4046,45857 4047,45860 4048,45863 4049,45867 4050,45870 4051,45873 4053,45876 4054,45879 4055,45882 4057,45885 4059,45888 4060,45891 4062,45894 4064,45897 4066,45900 4068,45903 4070,45905 4072,45908 4074,45911 4077,45913 4079,45916 4081,45918 4083,45920 4086,45923 4089,45925 4091,45927 4094,45929 4097,45931 4099,45933 4102,45935 4105,45937 4108,45939 4111,45941 4114,45942 4117,45944 4120,45945 4123,45947 4126,45948 4129,45949 4132,45951 4135,45952 4139,45953 4142,45954 4145,45955 4148,45955 4152,45956 4155,45957 4158,45957 4162,45958 4165,45958 4168,45958 4172,45959 4175,45959 4179,45959 Z"/>
   </g>
  </g>
  <g class="com.sun.star.drawing.PolyPolygonShape">
   <g id="id5">
    <rect class="BoundingBox" stroke="none" fill="none" x="4081" y="43582" width="1492" height="2337"/>
    <path fill="rgb(0,0,255)" stroke="none" d="M 4179,45917 L 5474,45917 5477,45917 5479,45917 5481,45917 5484,45917 5486,45916 5488,45916 5491,45916 5493,45915 5495,45915 5498,45914 5500,45914 5502,45913 5504,45912 5507,45911 5509,45910 5511,45910 5513,45909 5515,45908 5517,45907 5520,45906 5522,45904 5524,45903 5526,45902 5528,45901 5530,45899 5531,45898 5533,45896 5535,45895 5537,45894 5539,45892 5541,45890 5542,45889 5544,45887 5546,45885 5547,45883 5549,45882 5550,45880 5552,45878 5553,45876 5554,45874 5556,45872 5557,45870 5558,45868 5559,45866 5560,45864 5561,45861 5562,45859 5563,45857 5564,45855 5565,45853 5566,45850 5566,45848 5567,45846 5568,45843 5568,45841 5569,45839 5569,45836 5570,45834 5570,45832 5570,45829 5570,45827 5570,45825 5571,45822 5571,45820 5571,43680 5571,43678 5570,43675 5570,43673 5570,43671 5570,43668 5570,43666 5569,43663 5569,43661 5568,43659 5568,43656 5567,43654 5566,43652 5566,43650 5565,43647 5564,43645 5563,43643 5562,43641 5561,43638 5560,43636 5559,43634 5558,43632 5557,43630 5556,43628 5554,43626 5553,43624 5552,43622 5550,43620 5549,43618 5547,43617 5546,43615 5544,43613 5542,43611 5541,43610 5539,43608 5537,43606 5535,43605 5533,43603 5531,43602 5530,43601 5528,43599 5526,43598 5524,43597 5522,43596 5520,43594 5517,43593 5515,43592 5513,43591 5511,43590 5509,43589 5507,43589 5504,43588 5502,43587 5500,43586 5498,43586 5495,43585 5493,43585 5491,43584 5488,43584 5486,43584 5484,43583 5481,43583 5479,43583 5477,43583 5474,43583 4179,43583 4176,43583 4174,43583 4171,43583 4169,43583 4167,43584 4164,43584 4162,43584 4160,43585 4157,43585 4155,43586 4153,43586 4151,43587 4148,43588 4146,43589 4144,43589 4142,43590 4140,43591 4137,43592 4135,43593 4133,43594 4131,43596 4129,43597 4127,43598 4125,43599 4123,43601 4121,43602 4119,43603 4117,43605 4116,43606 4114,43608 4112,43610 4110,43611 4109,43613 4107,43615 4105,43617 4104,43618 4103,43620 4101,43622 4100,43624 4098,43626 4097,43628 4096,43630 4095,43632 4093,43634 4092,43636 4091,43638 4090,43641 4089,43643 4089,43645 4088,43647 4087,43650 4086,43652 4086,43654 4085,43656 4084,43659 4084,43661 4083,43663 4083,43666 4083,43668 4083,43671 4082,43673 4082,43675 4082,43678 4082,43680 4082,45820 4082,45822 4082,45825 4082,45827 4083,45829 4083,45832 4083,45834 4083,45836 4084,45839 4084,45841 4085,45843 4086,45846 4086,45848 4087,45850 4088,45853 4089,45855 4089,45857 4090,45859 4091,45861 4092,45864 4093,45866 4095,45868 4096,45870 4097,45872 4098,45874 4100,45876 4101,45878 4103,45880 4104,45882 4105,45883 4107,45885 4109,45887 4110,45889 4112,45890 4114,45892 4116,45894 4117,45895 4119,45896 4121,45898 4123,45899 4125,45901 4127,45902 4129,45903 4131,45904 4133,45906 4135,45907 4137,45908 4140,45909 4142,45910 4144,45910 4146,45911 4148,45912 4151,45913 4153,45914 4155,45914 4157,45915 4160,45915 4162,45916 4164,45916 4167,45916 4169,45917 4171,45917 4174,45917 4176,45917 4179,45917 Z"/>
    <path fill="none" stroke="rgb(0,0,255)" d="M 4179,45917 L 5474,45917 5477,45917 5479,45917 5481,45917 5484,45917 5486,45916 5488,45916 5491,45916 5493,45915 5495,45915 5498,45914 5500,45914 5502,45913 5504,45912 5507,45911 5509,45910 5511,45910 5513,45909 5515,45908 5517,45907 5520,45906 5522,45904 5524,45903 5526,45902 5528,45901 5530,45899 5531,45898 5533,45896 5535,45895 5537,45894 5539,45892 5541,45890 5542,45889 5544,45887 5546,45885 5547,45883 5549,45882 5550,45880 5552,45878 5553,45876 5554,45874 5556,45872 5557,45870 5558,45868 5559,45866 5560,45864 5561,45861 5562,45859 5563,45857 5564,45855 5565,45853 5566,45850 5566,45848 5567,45846 5568,45843 5568,45841 5569,45839 5569,45836 5570,45834 5570,45832 5570,45829 5570,45827 5570,45825 5571,45822 5571,45820 5571,43680 5571,43678 5570,43675 5570,43673 5570,43671 5570,43668 5570,43666 5569,43663 5569,43661 5568,43659 5568,43656 5567,43654 5566,43652 5566,43650 5565,43647 5564,43645 5563,43643 5562,43641 5561,43638 5560,43636 5559,43634 5558,43632 5557,43630 5556,43628 5554,43626 5553,43624 5552,43622 5550,43620 5549,43618 5547,43617 5546,43615 5544,43613 5542,43611 5541,43610 5539,43608 5537,43606 5535,43605 5533,43603 5531,43602 5530,43601 5528,43599 5526,43598 5524,43597 5522,43596 5520,43594 5517,43593 5515,43592 5513,43591 5511,43590 5509,43589 5507,43589 5504,43588 5502,43587 5500,43586 5498,43586 5495,43585 5493,43585 5491,43584 5488,43584 5486,43584 5484,43583 5481,43583 5479,43583 5477,43583 5474,43583 4179,43583 4176,43583 4174,43583 4171,43583 4169,43583 4167,43584 4164,43584 4162,43584 4160,43585 4157,43585 4155,43586 4153,43586 4151,43587 4148,43588 4146,43589 4144,43589 4142,43590 4140,43591 4137,43592 4135,43593 4133,43594 4131,43596 4129,43597 4127,43598 4125,43599 4123,43601 4121,43602 4119,43603 4117,43605 4116,43606 4114,43608 4112,43610 4110,43611 4109,43613 4107,43615 4105,43617 4104,43618 4103,43620 4101,43622 4100,43624 4098,43626 4097,43628 4096,43630 4095,43632 4093,43634 4092,43636 4091,43638 4090,43641 4089,43643 4089,43645 4088,43647 4087,43650 4086,43652 4086,43654 4085,43656 4084,43659 4084,43661 4083,43663 4083,43666 4083,43668 4083,43671 4082,43673 4082,43675 4082,43678 4082,43680 4082,45820 4082,45822 4082,45825 4082,45827 4083,45829 4083,45832 4083,45834 4083,45836 4084,45839 4084,45841 4085,45843 4086,45846 4086,45848 4087,45850 4088,45853 4089,45855 4089,45857 4090,45859 4091,45861 4092,45864 4093,45866 4095,45868 4096,45870 4097,45872 4098,45874 4100,45876 4101,45878 4103,45880 4104,45882 4105,45883 4107,45885 4109,45887 4110,45889 4112,45890 4114,45892 4116,45894 4117,45895 4119,45896 4121,45898 4123,45899 4125,45901 4127,45902 4129,45903 4131,45904 4133,45906 4135,45907 4137,45908 4140,45909 4142,45910 4144,45910 4146,45911 4148,45912 4151,45913 4153,45914 4155,45914 4157,45915 4160,45915 4162,45916 4164,45916 4167,45916 4169,45917 4171,45917 4174,45917 4176,45917 4179,45917 Z"/>
   </g>
  </g>
  <g class="com.sun.star.drawing.PolyPolygonShape">
   <g id="id6">
    <rect class="BoundingBox" stroke="none" fill="none" x="4205" y="45249" width="1244" height="503"/>
    <path fill="rgb(255,255,255)" stroke="none" d="M 5447,45499 L 5033,45750 5033,45583 4206,45583 4206,45416 5033,45416 5033,45250 5447,45499 Z"/>
    <path fill="none" stroke="rgb(255,255,255)" d="M 5447,45499 L 5033,45750 5033,45583 4206,45583 4206,45416 5033,45416 5033,45250 5447,45499 Z"/>
   </g>
  </g>
  <g class="com.sun.star.drawing.PolyPolygonShape">
   <g id="id7">
    <rect class="BoundingBox" stroke="none" fill="none" x="4205" y="43749" width="1244" height="1337"/>
    <path fill="rgb(255,255,255)" stroke="none" d="M 4289,45084 L 5365,45084 5367,45084 5369,45084 5371,45083 5373,45083 5375,45083 5377,45083 5379,45083 5381,45082 5383,45082 5385,45081 5387,45081 5389,45080 5391,45080 5393,45079 5395,45078 5396,45077 5398,45077 5400,45076 5402,45075 5404,45074 5406,45073 5407,45072 5409,45071 5411,45070 5412,45069 5414,45067 5416,45066 5417,45065 5419,45064 5420,45062 5422,45061 5423,45059 5425,45058 5426,45056 5427,45055 5429,45053 5430,45052 5431,45050 5432,45048 5433,45047 5435,45045 5436,45043 5437,45042 5438,45040 5439,45038 5439,45036 5440,45034 5441,45032 5442,45030 5443,45029 5443,45027 5444,45025 5444,45023 5445,45021 5445,45019 5446,45017 5446,45015 5446,45013 5447,45011 5447,45009 5447,45007 5447,45005 5447,45002 5447,45000 5447,43833 5447,43831 5447,43829 5447,43827 5447,43825 5447,43823 5446,43821 5446,43819 5446,43817 5445,43815 5445,43813 5444,43811 5444,43809 5443,43807 5443,43805 5442,43803 5441,43801 5440,43799 5439,43797 5439,43795 5438,43794 5437,43792 5436,43790 5435,43788 5433,43787 5432,43785 5431,43783 5430,43782 5429,43780 5427,43778 5426,43777 5425,43775 5423,43774 5422,43772 5420,43771 5419,43770 5417,43768 5416,43767 5414,43766 5412,43765 5411,43764 5409,43762 5407,43761 5406,43760 5404,43759 5402,43758 5400,43758 5398,43757 5396,43756 5395,43755 5393,43754 5391,43754 5389,43753 5387,43753 5385,43752 5383,43752 5381,43751 5379,43751 5377,43750 5375,43750 5373,43750 5371,43750 5369,43750 5367,43750 5365,43750 4289,43750 4287,43750 4285,43750 4283,43750 4281,43750 4279,43750 4277,43750 4275,43751 4273,43751 4271,43752 4269,43752 4267,43753 4265,43753 4263,43754 4261,43754 4259,43755 4257,43756 4255,43757 4253,43758 4252,43758 4250,43759 4248,43760 4246,43761 4244,43762 4243,43764 4241,43765 4239,43766 4238,43767 4236,43768 4235,43770 4233,43771 4232,43772 4230,43774 4229,43775 4227,43777 4226,43778 4225,43780 4223,43782 4222,43783 4221,43785 4220,43787 4219,43788 4218,43790 4217,43792 4216,43794 4215,43795 4214,43797 4213,43799 4212,43801 4211,43803 4211,43805 4210,43807 4210,43809 4209,43811 4209,43813 4208,43815 4208,43817 4207,43819 4207,43821 4207,43823 4206,43825 4206,43827 4206,43829 4206,43831 4206,43833 4206,45000 4206,45002 4206,45005 4206,45007 4206,45009 4207,45011 4207,45013 4207,45015 4208,45017 4208,45019 4209,45021 4209,45023 4210,45025 4210,45027 4211,45029 4211,45030 4212,45032 4213,45034 4214,45036 4215,45038 4216,45040 4217,45042 4218,45043 4219,45045 4220,45047 4221,45048 4222,45050 4223,45052 4225,45053 4226,45055 4227,45056 4229,45058 4230,45059 4232,45061 4233,45062 4235,45064 4236,45065 4238,45066 4239,45067 4241,45069 4243,45070 4244,45071 4246,45072 4248,45073 4250,45074 4252,45075 4253,45076 4255,45077 4257,45077 4259,45078 4261,45079 4263,45080 4265,45080 4267,45081 4269,45081 4271,45082 4273,45082 4275,45083 4277,45083 4279,45083 4281,45083 4283,45083 4285,45084 4287,45084 4289,45084 Z"/>
    <path fill="none" stroke="rgb(255,255,255)" d="M 4289,45084 L 5365,45084 5367,45084 5369,45084 5371,45083 5373,45083 5375,45083 5377,45083 5379,45083 5381,45082 5383,45082 5385,45081 5387,45081 5389,45080 5391,45080 5393,45079 5395,45078 5396,45077 5398,45077 5400,45076 5402,45075 5404,45074 5406,45073 5407,45072 5409,45071 5411,45070 5412,45069 5414,45067 5416,45066 5417,45065 5419,45064 5420,45062 5422,45061 5423,45059 5425,45058 5426,45056 5427,45055 5429,45053 5430,45052 5431,45050 5432,45048 5433,45047 5435,45045 5436,45043 5437,45042 5438,45040 5439,45038 5439,45036 5440,45034 5441,45032 5442,45030 5443,45029 5443,45027 5444,45025 5444,45023 5445,45021 5445,45019 5446,45017 5446,45015 5446,45013 5447,45011 5447,45009 5447,45007 5447,45005 5447,45002 5447,45000 5447,43833 5447,43831 5447,43829 5447,43827 5447,43825 5447,43823 5446,43821 5446,43819 5446,43817 5445,43815 5445,43813 5444,43811 5444,43809 5443,43807 5443,43805 5442,43803 5441,43801 5440,43799 5439,43797 5439,43795 5438,43794 5437,43792 5436,43790 5435,43788 5433,43787 5432,43785 5431,43783 5430,43782 5429,43780 5427,43778 5426,43777 5425,43775 5423,43774 5422,43772 5420,43771 5419,43770 5417,43768 5416,43767 5414,43766 5412,43765 5411,43764 5409,43762 5407,43761 5406,43760 5404,43759 5402,43758 5400,43758 5398,43757 5396,43756 5395,43755 5393,43754 5391,43754 5389,43753 5387,43753 5385,43752 5383,43752 5381,43751 5379,43751 5377,43750 5375,43750 5373,43750 5371,43750 5369,43750 5367,43750 5365,43750 4289,43750 4287,43750 4285,43750 4283,43750 4281,43750 4279,43750 4277,43750 4275,43751 4273,43751 4271,43752 4269,43752 4267,43753 4265,43753 4263,43754 4261,43754 4259,43755 4257,43756 4255,43757 4253,43758 4252,43758 4250,43759 4248,43760 4246,43761 4244,43762 4243,43764 4241,43765 4239,43766 4238,43767 4236,43768 4235,43770 4233,43771 4232,43772 4230,43774 4229,43775 4227,43777 4226,43778 4225,43780 4223,43782 4222,43783 4221,43785 4220,43787 4219,43788 4218,43790 4217,43792 4216,43794 4215,43795 4214,43797 4213,43799 4212,43801 4211,43803 4211,43805 4210,43807 4210,43809 4209,43811 4209,43813 4208,43815 4208,43817 4207,43819 4207,43821 4207,43823 4206,43825 4206,43827 4206,43829 4206,43831 4206,43833 4206,45000 4206,45002 4206,45005 4206,45007 4206,45009 4207,45011 4207,45013 4207,45015 4208,45017 4208,45019 4209,45021 4209,45023 4210,45025 4210,45027 4211,45029 4211,45030 4212,45032 4213,45034 4214,45036 4215,45038 4216,45040 4217,45042 4218,45043 4219,45045 4220,45047 4221,45048 4222,45050 4223,45052 4225,45053 4226,45055 4227,45056 4229,45058 4230,45059 4232,45061 4233,45062 4235,45064 4236,45065 4238,45066 4239,45067 4241,45069 4243,45070 4244,45071 4246,45072 4248,45073 4250,45074 4252,45075 4253,45076 4255,45077 4257,45077 4259,45078 4261,45079 4263,45080 4265,45080 4267,45081 4269,45081 4271,45082 4273,45082 4275,45083 4277,45083 4279,45083 4281,45083 4283,45083 4285,45084 4287,45084 4289,45084 Z"/>
   </g>
  </g>
  <g class="com.sun.star.drawing.PolyPolygonShape">
   <g id="id8">
    <rect class="BoundingBox" stroke="none" fill="none" x="4448" y="43860" width="759" height="1115"/>
    <path fill="rgb(0,0,0)" stroke="none" d="M 4650,44306 L 4892,44306 4895,44306 4897,44306 4900,44306 4903,44306 4905,44305 4909,44305 4912,44304 4914,44304 4917,44303 4920,44303 4922,44302 4925,44301 4927,44300 4930,44300 4932,44299 4935,44298 4937,44297 4940,44295 4942,44294 4945,44293 4947,44292 4949,44290 4952,44289 4954,44287 4956,44286 4959,44284 4961,44283 4963,44281 4965,44279 4967,44277 4969,44275 4971,44273 4973,44271 4974,44270 4976,44268 4978,44265 4980,44263 4981,44261 4983,44259 4984,44257 4986,44254 4987,44252 4989,44250 4990,44247 4991,44245 4992,44242 4993,44240 4995,44237 4996,44235 4997,44232 4997,44230 4998,44227 4999,44225 5000,44222 5000,44219 5001,44217 5001,44214 5002,44211 5002,44209 5002,44206 5003,44203 5003,44200 5003,44198 5003,44195 5003,44158 5003,44155 5003,44152 5003,44150 5002,44147 5002,44144 5002,44142 5001,44139 5001,44136 5000,44134 5000,44131 4999,44128 4998,44126 4997,44123 4997,44121 4996,44118 4995,44115 4993,44113 4992,44110 4991,44108 4990,44106 4989,44103 4987,44101 4986,44099 4984,44096 4983,44094 4981,44092 4980,44089 4978,44087 4976,44085 4974,44083 4973,44081 4971,44079 4969,44077 4967,44076 4965,44074 4963,44072 4961,44070 4959,44069 4956,44067 4954,44066 4952,44064 4949,44063 4947,44061 4945,44060 4942,44059 4940,44057 4937,44056 4935,44055 4932,44054 4930,44053 4927,44052 4925,44052 4922,44051 4920,44050 4917,44049 4914,44049 4912,44048 4909,44048 4905,44048 4903,44047 4900,44047 4897,44047 4895,44047 4892,44047 4650,44047 4650,44306 Z M 4449,44973 L 4650,44973 4650,44491 4911,44491 4915,44491 4918,44491 4922,44491 4926,44491 4929,44491 4933,44490 4936,44490 4940,44490 4943,44490 4947,44489 4951,44489 4954,44488 4958,44488 4961,44487 4965,44486 4968,44486 4972,44485 4976,44484 4979,44483 4983,44482 4986,44481 4990,44480 4993,44480 4997,44479 5000,44477 5003,44476 5007,44475 5010,44474 5014,44473 5017,44471 5020,44470 5024,44469 5027,44467 5030,44466 5034,44464 5037,44463 5040,44461 5043,44460 5046,44458 5050,44456 5053,44455 5056,44453 5059,44451 5062,44449 5065,44447 5068,44445 5071,44443 5074,44441 5077,44439 5080,44437 5083,44435 5086,44433 5089,44431 5092,44429 5095,44426 5098,44424 5100,44422 5103,44419 5106,44417 5109,44415 5111,44412 5114,44410 5116,44407 5119,44404 5122,44402 5124,44399 5126,44397 5129,44394 5131,44391 5134,44388 5136,44386 5138,44383 5141,44380 5143,44377 5145,44374 5147,44371 5149,44369 5151,44366 5153,44363 5155,44360 5157,44357 5159,44353 5161,44350 5163,44347 5165,44344 5167,44341 5169,44338 5170,44335 5172,44331 5174,44328 5175,44325 5177,44322 5178,44318 5180,44315 5181,44312 5183,44308 5184,44305 5185,44302 5187,44298 5188,44295 5189,44291 5190,44288 5191,44284 5192,44281 5193,44277 5194,44274 5195,44270 5196,44267 5197,44263 5198,44260 5199,44256 5199,44253 5200,44249 5201,44246 5201,44242 5202,44238 5202,44235 5203,44231 5203,44228 5204,44224 5204,44220 5204,44217 5204,44213 5205,44210 5205,44206 5205,44202 5205,44199 5205,44195 5205,44158 5205,44154 5205,44151 5205,44147 5205,44143 5204,44140 5204,44136 5204,44133 5204,44129 5203,44125 5203,44122 5202,44118 5202,44114 5201,44111 5201,44107 5200,44104 5199,44100 5199,44097 5198,44093 5197,44089 5196,44086 5195,44082 5194,44079 5193,44075 5192,44072 5191,44068 5190,44065 5189,44062 5188,44058 5187,44055 5185,44051 5184,44048 5183,44044 5181,44041 5180,44038 5178,44035 5177,44031 5175,44028 5174,44025 5172,44021 5170,44018 5169,44015 5167,44012 5165,44009 5163,44006 5161,44002 5159,43999 5157,43996 5155,43993 5153,43990 5151,43987 5149,43984 5147,43981 5145,43979 5143,43976 5141,43973 5138,43970 5136,43967 5134,43964 5131,43962 5129,43959 5126,43956 5124,43954 5122,43951 5119,43948 5116,43946 5114,43943 5111,43941 5109,43938 5106,43936 5103,43933 5100,43931 5098,43929 5095,43927 5092,43924 5089,43922 5086,43920 5083,43918 5080,43916 5077,43914 5074,43911 5071,43910 5068,43908 5065,43906 5062,43904 5059,43902 5056,43900 5053,43898 5050,43897 5046,43895 5043,43893 5040,43892 5037,43890 5034,43889 5030,43887 5027,43886 5024,43883 5020,43882 5017,43880 5014,43879 5010,43878 5007,43877 5003,43876 5000,43875 4997,43873 4993,43872 4990,43871 4986,43870 4983,43869 4979,43869 4976,43868 4972,43867 4968,43866 4965,43866 4961,43865 4958,43864 4954,43864 4951,43863 4947,43863 4943,43862 4940,43862 4936,43862 4933,43862 4929,43861 4926,43861 4922,43861 4918,43861 4915,43861 4911,43861 4449,43861 4449,44973 Z"/>
    <path fill="none" stroke="rgb(0,0,0)" d="M 4650,44306 L 4892,44306 4895,44306 4897,44306 4900,44306 4903,44306 4905,44305 4909,44305 4912,44304 4914,44304 4917,44303 4920,44303 4922,44302 4925,44301 4927,44300 4930,44300 4932,44299 4935,44298 4937,44297 4940,44295 4942,44294 4945,44293 4947,44292 4949,44290 4952,44289 4954,44287 4956,44286 4959,44284 4961,44283 4963,44281 4965,44279 4967,44277 4969,44275 4971,44273 4973,44271 4974,44270 4976,44268 4978,44265 4980,44263 4981,44261 4983,44259 4984,44257 4986,44254 4987,44252 4989,44250 4990,44247 4991,44245 4992,44242 4993,44240 4995,44237 4996,44235 4997,44232 4997,44230 4998,44227 4999,44225 5000,44222 5000,44219 5001,44217 5001,44214 5002,44211 5002,44209 5002,44206 5003,44203 5003,44200 5003,44198 5003,44195 5003,44158 5003,44155 5003,44152 5003,44150 5002,44147 5002,44144 5002,44142 5001,44139 5001,44136 5000,44134 5000,44131 4999,44128 4998,44126 4997,44123 4997,44121 4996,44118 4995,44115 4993,44113 4992,44110 4991,44108 4990,44106 4989,44103 4987,44101 4986,44099 4984,44096 4983,44094 4981,44092 4980,44089 4978,44087 4976,44085 4974,44083 4973,44081 4971,44079 4969,44077 4967,44076 4965,44074 4963,44072 4961,44070 4959,44069 4956,44067 4954,44066 4952,44064 4949,44063 4947,44061 4945,44060 4942,44059 4940,44057 4937,44056 4935,44055 4932,44054 4930,44053 4927,44052 4925,44052 4922,44051 4920,44050 4917,44049 4914,44049 4912,44048 4909,44048 4905,44048 4903,44047 4900,44047 4897,44047 4895,44047 4892,44047 4650,44047 4650,44306 Z"/>
    <path fill="none" stroke="rgb(0,0,0)" d="M 4449,44973 L 4650,44973 4650,44491 4911,44491 4915,44491 4918,44491 4922,44491 4926,44491 4929,44491 4933,44490 4936,44490 4940,44490 4943,44490 4947,44489 4951,44489 4954,44488 4958,44488 4961,44487 4965,44486 4968,44486 4972,44485 4976,44484 4979,44483 4983,44482 4986,44481 4990,44480 4993,44480 4997,44479 5000,44477 5003,44476 5007,44475 5010,44474 5014,44473 5017,44471 5020,44470 5024,44469 5027,44467 5030,44466 5034,44464 5037,44463 5040,44461 5043,44460 5046,44458 5050,44456 5053,44455 5056,44453 5059,44451 5062,44449 5065,44447 5068,44445 5071,44443 5074,44441 5077,44439 5080,44437 5083,44435 5086,44433 5089,44431 5092,44429 5095,44426 5098,44424 5100,44422 5103,44419 5106,44417 5109,44415 5111,44412 5114,44410 5116,44407 5119,44404 5122,44402 5124,44399 5126,44397 5129,44394 5131,44391 5134,44388 5136,44386 5138,44383 5141,44380 5143,44377 5145,44374 5147,44371 5149,44369 5151,44366 5153,44363 5155,44360 5157,44357 5159,44353 5161,44350 5163,44347 5165,44344 5167,44341 5169,44338 5170,44335 5172,44331 5174,44328 5175,44325 5177,44322 5178,44318 5180,44315 5181,44312 5183,44308 5184,44305 5185,44302 5187,44298 5188,44295 5189,44291 5190,44288 5191,44284 5192,44281 5193,44277 5194,44274 5195,44270 5196,44267 5197,44263 5198,44260 5199,44256 5199,44253 5200,44249 5201,44246 5201,44242 5202,44238 5202,44235 5203,44231 5203,44228 5204,44224 5204,44220 5204,44217 5204,44213 5205,44210 5205,44206 5205,44202 5205,44199 5205,44195 5205,44158 5205,44154 5205,44151 5205,44147 5205,44143 5204,44140 5204,44136 5204,44133 5204,44129 5203,44125 5203,44122 5202,44118 5202,44114 5201,44111 5201,44107 5200,44104 5199,44100 5199,44097 5198,44093 5197,44089 5196,44086 5195,44082 5194,44079 5193,44075 5192,44072 5191,44068 5190,44065 5189,44062 5188,44058 5187,44055 5185,44051 5184,44048 5183,44044 5181,44041 5180,44038 5178,44035 5177,44031 5175,44028 5174,44025 5172,44021 5170,44018 5169,44015 5167,44012 5165,44009 5163,44006 5161,44002 5159,43999 5157,43996 5155,43993 5153,43990 5151,43987 5149,43984 5147,43981 5145,43979 5143,43976 5141,43973 5138,43970 5136,43967 5134,43964 5131,43962 5129,43959 5126,43956 5124,43954 5122,43951 5119,43948 5116,43946 5114,43943 5111,43941 5109,43938 5106,43936 5103,43933 5100,43931 5098,43929 5095,43927 5092,43924 5089,43922 5086,43920 5083,43918 5080,43916 5077,43914 5074,43911 5071,43910 5068,43908 5065,43906 5062,43904 5059,43902 5056,43900 5053,43898 5050,43897 5046,43895 5043,43893 5040,43892 5037,43890 5034,43889 5030,43887 5027,43886 5024,43883 5020,43882 5017,43880 5014,43879 5010,43878 5007,43877 5003,43876 5000,43875 4997,43873 4993,43872 4990,43871 4986,43870 4983,43869 4979,43869 4976,43868 4972,43867 4968,43866 4965,43866 4961,43865 4958,43864 4954,43864 4951,43863 4947,43863 4943,43862 4940,43862 4936,43862 4933,43862 4929,43861 4926,43861 4922,43861 4918,43861 4915,43861 4911,43861 4449,43861 4449,44973 Z"/>
   </g>
  </g>
 </g>
</svg>