<?xml version="1.0" encoding="UTF-8"?>
<!DOCTYPE svg PUBLIC "-//W3C//DTD SVG 1.1//EN" "http://www.w3.org/Graphics/SVG/1.1/DTD/svg11.dtd">
<svg version="1.2" width="16.57mm" height="25.03mm" viewBox="6198 43499 1657 2503" preserveAspectRatio="xMidYMid" fill-rule="evenodd" stroke-width="28.222" stroke-linejoin="round" xmlns="http://www.w3.org/2000/svg" xmlns:ooo="http://xml.openoffice.org/svg/export" xmlns:xlink="http://www.w3.org/1999/xlink" xmlns:presentation="http://sun.com/xmlns/staroffice/presentation" xmlns:smil="http://www.w3.org/2001/SMIL20/" xmlns:anim="urn:oasis:names:tc:opendocument:xmlns:animation:1.0" xml:space="preserve">
 <defs class="EmbeddedBulletChars">
  <g id="bullet-char-template-57356" transform="scale(0.00048828125,-0.00048828125)">
   <path d="M 580,1141 L 1163,571 580,0 -4,571 580,1141 Z"/>
  </g>
  <g id="bullet-char-template-57354" transform="scale(0.00048828125,-0.00048828125)">
   <path d="M 8,1128 L 1137,1128 1137,0 8,0 8,1128 Z"/>
  </g>
  <g id="bullet-char-template-10146" transform="scale(0.00048828125,-0.00048828125)">
   <path d="M 174,0 L 602,739 174,1481 1456,739 174,0 Z M 1358,739 L 309,1346 659,739 1358,739 Z"/>
  </g>
  <g id="bullet-char-template-10132" transform="scale(0.00048828125,-0.00048828125)">
   <path d="M 2015,739 L 1276,0 717,0 1260,543 174,543 174,936 1260,936 717,1481 1274,1481 2015,739 Z"/>
  </g>
  <g id="bullet-char-template-10007" transform="scale(0.00048828125,-0.00048828125)">
   <path d="M 0,-2 C -7,14 -16,27 -25,37 L 356,567 C 262,823 215,952 215,954 215,979 228,992 255,992 264,992 276,990 289,987 310,991 331,999 354,1012 L 381,999 492,748 772,1049 836,1024 860,1049 C 881,1039 901,1025 922,1006 886,937 835,863 770,784 769,783 710,716 594,584 L 774,223 C 774,196 753,168 711,139 L 727,119 C 717,90 699,76 672,76 641,76 570,178 457,381 L 164,-76 C 142,-110 111,-127 72,-127 30,-127 9,-110 8,-76 1,-67 -2,-52 -2,-32 -2,-23 -1,-13 0,-2 Z"/>
  </g>
  <g id="bullet-char-template-10004" transform="scale(0.00048828125,-0.00048828125)">
   <path d="M 285,-33 C 182,-33 111,30 74,156 52,228 41,333 41,471 41,549 55,616 82,672 116,743 169,778 240,778 293,778 328,747 346,684 L 369,508 C 377,444 397,411 428,410 L 1163,1116 C 1174,1127 1196,1133 1229,1133 1271,1133 1292,1118 1292,1087 L 1292,965 C 1292,929 1282,901 1262,881 L 442,47 C 390,-6 338,-33 285,-33 Z"/>
  </g>
  <g id="bullet-char-template-9679" transform="scale(0.00048828125,-0.00048828125)">
   <path d="M 813,0 C 632,0 489,54 383,161 276,268 223,411 223,592 223,773 276,916 383,1023 489,1130 632,1184 813,1184 992,1184 1136,1130 1245,1023 1353,916 1407,772 1407,592 1407,412 1353,268 1245,161 1136,54 992,0 813,0 Z"/>
  </g>
  <g id="bullet-char-template-8226" transform="scale(0.00048828125,-0.00048828125)">
   <path d="M 346,457 C 273,457 209,483 155,535 101,586 74,649 74,723 74,796 101,859 155,911 209,963 273,989 346,989 419,989 480,963 531,910 582,859 608,796 608,723 608,648 583,586 532,535 482,483 420,457 346,457 Z"/>
  </g>
  <g id="bullet-char-template-8211" transform="scale(0.00048828125,-0.00048828125)">
   <path d="M -4,459 L 1135,459 1135,606 -4,606 -4,459 Z"/>
  </g>
  <g id="bullet-char-template-61548" transform="scale(0.00048828125,-0.00048828125)">
   <path d="M 173,740 C 173,903 231,1043 346,1159 462,1274 601,1332 765,1332 928,1332 1067,1274 1183,1159 1299,1043 1357,903 1357,740 1357,577 1299,437 1183,322 1067,206 928,148 765,148 601,148 462,206 346,322 231,437 173,577 173,740 Z"/>
  </g>
 </defs>
 <g class="Page">
  <g class="com.sun.star.drawing.PolyPolygonShape">
   <g id="id3">
    <rect class="BoundingBox" stroke="none" fill="none" x="6198" y="43499" width="1657" height="2503"/>
    <path fill="rgb(0,0,255)" stroke="none" d="M 6379,46000 L 7674,46000 7679,46000 7683,46000 7687,46000 7692,46000 7696,45999 7701,45998 7705,45998 7709,45997 7713,45996 7718,45995 7722,45994 7726,45993 7730,45991 7734,45990 7739,45988 7743,45987 7747,45985 7751,45983 7755,45981 7759,45979 7762,45977 7766,45975 7770,45972 7774,45970 7777,45967 7781,45965 7784,45962 7788,45960 7791,45957 7794,45954 7798,45951 7801,45948 7804,45944 7807,45941 7810,45938 7813,45934 7815,45931 7818,45927 7821,45924 7823,45920 7825,45916 7828,45913 7830,45909 7832,45905 7834,45901 7836,45897 7838,45893 7840,45889 7841,45885 7843,45881 7844,45876 7846,45872 7847,45868 7848,45864 7849,45859 7850,45855 7851,45851 7851,45846 7852,45842 7852,45838 7853,45833 7853,45829 7853,45824 7853,45820 7853,43680 7853,43676 7853,43671 7853,43667 7852,43662 7852,43658 7851,43654 7851,43649 7850,43645 7849,43641 7848,43636 7847,43632 7846,43628 7844,43623 7843,43619 7841,43615 7840,43611 7838,43607 7836,43603 7834,43599 7832,43595 7830,43591 7828,43587 7825,43584 7823,43580 7821,43576 7818,43573 7815,43569 7813,43565 7810,43562 7807,43559 7804,43556 7801,43552 7798,43549 7794,43546 7791,43543 7788,43540 7784,43538 7781,43535 7777,43533 7774,43530 7770,43527 7766,43525 7762,43523 7759,43521 7755,43519 7751,43517 7747,43515 7743,43513 7739,43512 7734,43510 7730,43509 7726,43507 7722,43506 7718,43505 7713,43504 7709,43503 7705,43502 7701,43502 7696,43501 7692,43500 7687,43500 7683,43500 7679,43500 7674,43500 6379,43500 6374,43500 6370,43500 6365,43500 6361,43500 6357,43501 6352,43502 6348,43502 6344,43503 6339,43504 6335,43505 6331,43506 6327,43507 6322,43509 6318,43510 6314,43512 6310,43513 6306,43515 6302,43517 6298,43519 6294,43521 6290,43523 6287,43525 6283,43527 6279,43530 6276,43533 6272,43535 6268,43538 6265,43540 6262,43543 6258,43546 6255,43549 6252,43552 6249,43556 6246,43559 6243,43562 6240,43565 6237,43569 6235,43573 6232,43576 6230,43580 6227,43584 6225,43587 6223,43591 6221,43595 6219,43599 6217,43603 6215,43607 6213,43611 6211,43615 6210,43619 6209,43623 6207,43628 6206,43632 6205,43636 6204,43641 6203,43645 6202,43649 6201,43654 6201,43658 6200,43662 6200,43667 6200,43671 6199,43676 6199,43680 6199,45820 6199,45824 6200,45829 6200,45833 6200,45838 6201,45842 6201,45846 6202,45851 6203,45855 6204,45859 6205,45864 6206,45868 6207,45872 6209,45876 6210,45881 6211,45885 6213,45889 6215,45893 6217,45897 6219,45901 6221,45905 6223,45909 6225,45913 6227,45916 6230,45920 6232,45924 6235,45927 6237,45931 6240,45934 6243,45938 6246,45941 6249,45944 6252,45948 6255,45951 6258,45954 6262,45957 6265,45960 6268,45962 6272,45965 6276,45967 6279,45970 6283,45972 6287,45975 6290,45977 6294,45979 6298,45981 6302,45983 6306,45985 6310,45987 6314,45988 6318,45990 6322,45991 6327,45993 6331,45994 6335,45995 6339,45996 6344,45997 6348,45998 6352,45998 6357,45999 6361,46000 6365,46000 6370,46000 6374,46000 6379,46000 Z"/>
    <path fill="none" stroke="rgb(0,0,255)" d="M 6379,46000 L 7674,46000 7679,46000 7683,46000 7687,46000 7692,46000 7696,45999 7701,45998 7705,45998 7709,45997 7713,45996 7718,45995 7722,45994 7726,45993 7730,45991 7734,45990 7739,45988 7743,45987 7747,45985 7751,45983 7755,45981 7759,45979 7762,45977 7766,45975 7770,45972 7774,45970 7777,45967 7781,45965 7784,45962 7788,45960 7791,45957 7794,45954 7798,45951 7801,45948 7804,45944 7807,45941 7810,45938 7813,45934 7815,45931 7818,45927 7821,45924 7823,45920 7825,45916 7828,45913 7830,45909 7832,45905 7834,45901 7836,45897 7838,45893 7840,45889 7841,45885 7843,45881 7844,45876 7846,45872 7847,45868 7848,45864 7849,45859 7850,45855 7851,45851 7851,45846 7852,45842 7852,45838 7853,45833 7853,45829 7853,45824 7853,45820 7853,43680 7853,43676 7853,43671 7853,43667 7852,43662 7852,43658 7851,43654 7851,43649 7850,43645 7849,43641 7848,43636 7847,43632 7846,43628 7844,43623 7843,43619 7841,43615 7840,43611 7838,43607 7836,43603 7834,43599 7832,43595 7830,43591 7828,43587 7825,43584 7823,43580 7821,43576 7818,43573 7815,43569 7813,43565 7810,43562 7807,43559 7804,43556 7801,43552 7798,43549 7794,43546 7791,43543 7788,43540 7784,43538 7781,43535 7777,43533 7774,43530 7770,43527 7766,43525 7762,43523 7759,43521 7755,43519 7751,43517 7747,43515 7743,43513 7739,43512 7734,43510 7730,43509 7726,43507 7722,43506 7718,43505 7713,43504 7709,43503 7705,43502 7701,43502 7696,43501 7692,43500 7687,43500 7683,43500 7679,43500 7674,43500 6379,43500 6374,43500 6370,43500 6365,43500 6361,43500 6357,43501 6352,43502 6348,43502 6344,43503 6339,43504 6335,43505 6331,43506 6327,43507 6322,43509 6318,43510 6314,43512 6310,43513 6306,43515 6302,43517 6298,43519 6294,43521 6290,43523 6287,43525 6283,43527 6279,43530 6276,43533 6272,43535 6268,43538 6265,43540 6262,43543 6258,43546 6255,43549 6252,43552 6249,43556 6246,43559 6243,43562 6240,43565 6237,43569 6235,43573 6232,43576 6230,43580 6227,43584 6225,43587 6223,43591 6221,43595 6219,43599 6217,43603 6215,43607 6213,43611 6211,43615 6210,43619 6209,43623 6207,43628 6206,43632 6205,43636 6204,43641 6203,43645 6202,43649 6201,43654 6201,43658 6200,43662 6200,43667 6200,43671 6199,43676 6199,43680 6199,45820 6199,45824 6200,45829 6200,45833 6200,45838 6201,45842 6201,45846 6202,45851 6203,45855 6204,45859 6205,45864 6206,45868 6207,45872 6209,45876 6210,45881 6211,45885 6213,45889 6215,45893 6217,45897 6219,45901 6221,45905 6223,45909 6225,45913 6227,45916 6230,45920 6232,45924 6235,45927 6237,45931 6240,45934 6243,45938 6246,45941 6249,45944 6252,45948 6255,45951 6258,45954 6262,45957 6265,45960 6268,45962 6272,45965 6276,45967 6279,45970 6283,45972 6287,45975 6290,45977 6294,45979 6298,45981 6302,45983 6306,45985 6310,45987 6314,45988 6318,45990 6322,45991 6327,45993 6331,45994 6335,45995 6339,45996 6344,45997 6348,45998 6352,45998 6357,45999 6361,46000 6365,46000 6370,46000 6374,46000 6379,46000 Z"/>
   </g>
  </g>
  <g class="com.sun.star.drawing.PolyPolygonShape">
   <g id="id4">
    <rect class="BoundingBox" stroke="none" fill="none" x="6240" y="43540" width="1574" height="2421"/>
    <path fill="rgb(255,255,255)" stroke="none" d="M 6379,45959 L 7674,45959 7678,45959 7681,45959 7684,45958 7688,45958 7691,45958 7694,45957 7698,45957 7701,45956 7704,45955 7708,45955 7711,45954 7714,45953 7717,45952 7721,45951 7724,45949 7727,45948 7730,45947 7733,45945 7736,45944 7739,45942 7742,45941 7745,45939 7748,45937 7751,45935 7754,45933 7756,45931 7759,45929 7762,45927 7764,45925 7767,45923 7769,45920 7771,45918 7774,45916 7776,45913 7779,45911 7781,45908 7783,45905 7785,45903 7787,45900 7789,45897 7791,45894 7792,45891 7794,45888 7796,45885 7797,45882 7799,45879 7800,45876 7801,45873 7803,45870 7804,45867 7805,45863 7806,45860 7807,45857 7808,45854 7809,45850 7809,45847 7810,45844 7810,45840 7811,45837 7811,45834 7811,45830 7812,45827 7812,45823 7812,45820 7812,43680 7812,43677 7812,43673 7811,43670 7811,43666 7811,43663 7810,43660 7810,43656 7809,43653 7809,43650 7808,43646 7807,43643 7806,43640 7805,43636 7804,43633 7803,43630 7801,43627 7800,43624 7799,43621 7797,43618 7796,43615 7794,43612 7792,43609 7791,43606 7789,43603 7787,43600 7785,43597 7783,43595 7781,43592 7779,43589 7776,43587 7774,43584 7771,43582 7769,43580 7767,43577 7764,43575 7762,43573 7759,43571 7756,43569 7754,43567 7751,43565 7748,43563 7745,43561 7742,43559 7739,43558 7736,43556 7733,43554 7730,43553 7727,43552 7724,43551 7721,43549 7717,43548 7714,43547 7711,43546 7708,43545 7704,43545 7701,43544 7698,43543 7694,43543 7691,43542 7688,43542 7684,43542 7681,43541 7678,43541 7674,43541 6379,43541 6375,43541 6372,43541 6368,43542 6365,43542 6362,43542 6358,43543 6355,43543 6352,43544 6348,43545 6345,43545 6342,43546 6339,43547 6335,43548 6332,43549 6329,43551 6326,43552 6323,43553 6320,43554 6317,43556 6314,43558 6311,43559 6308,43561 6305,43563 6302,43565 6299,43567 6297,43569 6294,43571 6291,43573 6289,43575 6286,43577 6284,43580 6281,43582 6279,43584 6277,43587 6274,43589 6272,43592 6270,43595 6268,43597 6266,43600 6264,43603 6262,43606 6260,43609 6259,43612 6257,43615 6255,43618 6254,43621 6253,43624 6251,43627 6250,43630 6249,43633 6248,43636 6247,43640 6246,43643 6245,43646 6244,43650 6243,43653 6243,43656 6242,43660 6242,43663 6241,43666 6241,43670 6241,43673 6241,43677 6241,43680 6241,45820 6241,45823 6241,45827 6241,45830 6241,45834 6242,45837 6242,45840 6243,45844 6243,45847 6244,45850 6245,45854 6246,45857 6247,45860 6248,45863 6249,45867 6250,45870 6251,45873 6253,45876 6254,45879 6255,45882 6257,45885 6259,45888 6260,45891 6262,45894 6264,45897 6266,45900 6268,45903 6270,45905 6272,45908 6274,45911 6277,45913 6279,45916 6281,45918 6284,45920 6286,45923 6289,45925 6291,45927 6294,45929 6297,45931 6299,45933 6302,45935 6305,45937 6308,45939 6311,45941 6314,45942 6317,45944 6320,45945 6323,45947 6326,45948 6329,45949 6332,45951 6335,45952 6339,45953 6342,45954 6345,45955 6348,45955 6352,45956 6355,45957 6358,45957 6362,45958 6365,45958 6368,45958 6372,45959 6375,45959 6379,45959 Z"/>
    <path fill="none" stroke="rgb(255,255,255)" d="M 6379,45959 L 7674,45959 7678,45959 7681,45959 7684,45958 7688,45958 7691,45958 7694,45957 7698,45957 7701,45956 7704,45955 7708,45955 7711,45954 7714,45953 7717,45952 7721,45951 7724,45949 7727,45948 7730,45947 7733,45945 7736,45944 7739,45942 7742,45941 7745,45939 7748,45937 7751,45935 7754,45933 7756,45931 7759,45929 7762,45927 7764,45925 7767,45923 7769,45920 7771,45918 7774,45916 7776,45913 7779,45911 7781,45908 7783,45905 7785,45903 7787,45900 7789,45897 7791,45894 7792,45891 7794,45888 7796,45885 7797,45882 7799,45879 7800,45876 7801,45873 7803,45870 7804,45867 7805,45863 7806,45860 7807,45857 7808,45854 7809,45850 7809,45847 7810,45844 7810,45840 7811,45837 7811,45834 7811,45830 7812,45827 7812,45823 7812,45820 7812,43680 7812,43677 7812,43673 7811,43670 7811,43666 7811,43663 7810,43660 7810,43656 7809,43653 7809,43650 7808,43646 7807,43643 7806,43640 7805,43636 7804,43633 7803,43630 7801,43627 7800,43624 7799,43621 7797,43618 7796,43615 7794,43612 7792,43609 7791,43606 7789,43603 7787,43600 7785,43597 7783,43595 7781,43592 7779,43589 7776,43587 7774,43584 7771,43582 7769,43580 7767,43577 7764,43575 7762,43573 7759,43571 7756,43569 7754,43567 7751,43565 7748,43563 7745,43561 7742,43559 7739,43558 7736,43556 7733,43554 7730,43553 7727,43552 7724,43551 7721,43549 7717,43548 7714,43547 7711,43546 7708,43545 7704,43545 7701,43544 7698,43543 7694,43543 7691,43542 7688,43542 7684,43542 7681,43541 7678,43541 7674,43541 6379,43541 6375,43541 6372,43541 6368,43542 6365,43542 6362,43542 6358,43543 6355,43543 6352,43544 6348,43545 6345,43545 6342,43546 6339,43547 6335,43548 6332,43549 6329,43551 6326,43552 6323,43553 6320,43554 6317,43556 6314,43558 6311,43559 6308,43561 6305,43563 6302,43565 6299,43567 6297,43569 6294,43571 6291,43573 6289,43575 6286,43577 6284,43580 6281,43582 6279,43584 6277,43587 6274,43589 6272,43592 6270,43595 6268,43597 6266,43600 6264,43603 6262,43606 6260,43609 6259,43612 6257,43615 6255,43618 6254,43621 6253,43624 6251,43627 6250,43630 6249,43633 6248,43636 6247,43640 6246,43643 6245,43646 6244,43650 6243,43653 6243,43656 6242,43660 6242,43663 6241,43666 6241,43670 6241,43673 6241,43677 6241,43680 6241,45820 6241,45823 6241,45827 6241,45830 6241,45834 6242,45837 6242,45840 6243,45844 6243,45847 6244,45850 6245,45854 6246,45857 6247,45860 6248,45863 6249,45867 6250,45870 6251,45873 6253,45876 6254,45879 6255,45882 6257,45885 6259,45888 6260,45891 6262,45894 6264,45897 6266,45900 6268,45903 6270,45905 6272,45908 6274,45911 6277,45913 6279,45916 6281,45918 6284,45920 6286,45923 6289,45925 6291,45927 6294,45929 6297,45931 6299,45933 6302,45935 6305,45937 6308,45939 6311,45941 6314,45942 6317,45944 6320,45945 6323,45947 6326,45948 6329,45949 6332,45951 6335,45952 6339,45953 6342,45954 6345,45955 6348,45955 6352,45956 6355,45957 6358,45957 6362,45958 6365,45958 6368,45958 6372,45959 6375,45959 6379,45959 Z"/>
   </g>
  </g>
  <g class="com.sun.star.drawing.PolyPolygonShape">
   <g id="id5">
    <rect class="BoundingBox" stroke="none" fill="none" x="6281" y="43582" width="1492" height="2337"/>
    <path fill="rgb(0,0,255)" stroke="none" d="M 6379,45917 L 7674,45917 7677,45917 7679,45917 7681,45917 7684,45917 7686,45916 7688,45916 7691,45916 7693,45915 7695,45915 7698,45914 7700,45914 7702,45913 7704,45912 7707,45911 7709,45910 7711,45910 7713,45909 7715,45908 7717,45907 7720,45906 7722,45904 7724,45903 7726,45902 7728,45901 7730,45899 7732,45898 7733,45896 7735,45895 7737,45894 7739,45892 7741,45890 7742,45889 7744,45887 7746,45885 7747,45883 7749,45882 7750,45880 7752,45878 7753,45876 7754,45874 7756,45872 7757,45870 7758,45868 7759,45866 7760,45864 7761,45861 7762,45859 7763,45857 7764,45855 7765,45853 7766,45850 7766,45848 7767,45846 7768,45843 7768,45841 7769,45839 7769,45836 7770,45834 7770,45832 7770,45829 7770,45827 7770,45825 7771,45822 7771,45820 7771,43680 7771,43678 7770,43675 7770,43673 7770,43671 7770,43668 7770,43666 7769,43663 7769,43661 7768,43659 7768,43656 7767,43654 7766,43652 7766,43650 7765,43647 7764,43645 7763,43643 7762,43641 7761,43638 7760,43636 7759,43634 7758,43632 7757,43630 7756,43628 7754,43626 7753,43624 7752,43622 7750,43620 7749,43618 7747,43617 7746,43615 7744,43613 7742,43611 7741,43610 7739,43608 7737,43606 7735,43605 7733,43603 7732,43602 7730,43601 7728,43599 7726,43598 7724,43597 7722,43596 7720,43594 7717,43593 7715,43592 7713,43591 7711,43590 7709,43589 7707,43589 7704,43588 7702,43587 7700,43586 7698,43586 7695,43585 7693,43585 7691,43584 7688,43584 7686,43584 7684,43583 7681,43583 7679,43583 7677,43583 7674,43583 6379,43583 6376,43583 6374,43583 6371,43583 6369,43583 6367,43584 6364,43584 6362,43584 6360,43585 6357,43585 6355,43586 6353,43586 6351,43587 6348,43588 6346,43589 6344,43589 6342,43590 6339,43591 6337,43592 6335,43593 6333,43594 6331,43596 6329,43597 6327,43598 6325,43599 6323,43601 6321,43602 6319,43603 6317,43605 6316,43606 6314,43608 6312,43610 6310,43611 6309,43613 6307,43615 6305,43617 6304,43618 6303,43620 6301,43622 6300,43624 6298,43626 6297,43628 6296,43630 6295,43632 6294,43634 6292,43636 6291,43638 6290,43641 6289,43643 6289,43645 6288,43647 6287,43650 6286,43652 6286,43654 6285,43656 6284,43659 6284,43661 6284,43663 6283,43666 6283,43668 6283,43671 6282,43673 6282,43675 6282,43678 6282,43680 6282,45820 6282,45822 6282,45825 6282,45827 6283,45829 6283,45832 6283,45834 6284,45836 6284,45839 6284,45841 6285,45843 6286,45846 6286,45848 6287,45850 6288,45853 6289,45855 6289,45857 6290,45859 6291,45861 6292,45864 6294,45866 6295,45868 6296,45870 6297,45872 6298,45874 6300,45876 6301,45878 6303,45880 6304,45882 6305,45883 6307,45885 6309,45887 6310,45889 6312,45890 6314,45892 6316,45894 6317,45895 6319,45896 6321,45898 6323,45899 6325,45901 6327,45902 6329,45903 6331,45904 6333,45906 6335,45907 6337,45908 6339,45909 6342,45910 6344,45910 6346,45911 6348,45912 6351,45913 6353,45914 6355,45914 6357,45915 6360,45915 6362,45916 6364,45916 6367,45916 6369,45917 6371,45917 6374,45917 6376,45917 6379,45917 Z"/>
    <path fill="none" stroke="rgb(0,0,255)" d="M 6379,45917 L 7674,45917 7677,45917 7679,45917 7681,45917 7684,45917 7686,45916 7688,45916 7691,45916 7693,45915 7695,45915 7698,45914 7700,45914 7702,45913 7704,45912 7707,45911 7709,45910 7711,45910 7713,45909 7715,45908 7717,45907 7720,45906 7722,45904 7724,45903 7726,45902 7728,45901 7730,45899 7732,45898 7733,45896 7735,45895 7737,45894 7739,45892 7741,45890 7742,45889 7744,45887 7746,45885 7747,45883 7749,45882 7750,45880 7752,45878 7753,45876 7754,45874 7756,45872 7757,45870 7758,45868 7759,45866 7760,45864 7761,45861 7762,45859 7763,45857 7764,45855 7765,45853 7766,45850 7766,45848 7767,45846 7768,45843 7768,45841 7769,45839 7769,45836 7770,45834 7770,45832 7770,45829 7770,45827 7770,45825 7771,45822 7771,45820 7771,43680 7771,43678 7770,43675 7770,43673 7770,43671 7770,43668 7770,43666 7769,43663 7769,43661 7768,43659 7768,43656 7767,43654 7766,43652 7766,43650 7765,43647 7764,43645 7763,43643 7762,43641 7761,43638 7760,43636 7759,43634 7758,43632 7757,43630 7756,43628 7754,43626 7753,43624 7752,43622 7750,43620 7749,43618 7747,43617 7746,43615 7744,43613 7742,43611 7741,43610 7739,43608 7737,43606 7735,43605 7733,43603 7732,43602 7730,43601 7728,43599 7726,43598 7724,43597 7722,43596 7720,43594 7717,43593 7715,43592 7713,43591 7711,43590 7709,43589 7707,43589 7704,43588 7702,43587 7700,43586 7698,43586 7695,43585 7693,43585 7691,43584 7688,43584 7686,43584 7684,43583 7681,43583 7679,43583 7677,43583 7674,43583 6379,43583 6376,43583 6374,43583 6371,43583 6369,43583 6367,43584 6364,43584 6362,43584 6360,43585 6357,43585 6355,43586 6353,43586 6351,43587 6348,43588 6346,43589 6344,43589 6342,43590 6339,43591 6337,43592 6335,43593 6333,43594 6331,43596 6329,43597 6327,43598 6325,43599 6323,43601 6321,43602 6319,43603 6317,43605 6316,43606 6314,43608 6312,43610 6310,43611 6309,43613 6307,43615 6305,43617 6304,43618 6303,43620 6301,43622 6300,43624 6298,43626 6297,43628 6296,43630 6295,43632 6294,43634 6292,43636 6291,43638 6290,43641 6289,43643 6289,43645 6288,43647 6287,43650 6286,43652 6286,43654 6285,43656 6284,43659 6284,43661 6284,43663 6283,43666 6283,43668 6283,43671 6282,43673 6282,43675 6282,43678 6282,43680 6282,45820 6282,45822 6282,45825 6282,45827 6283,45829 6283,45832 6283,45834 6284,45836 6284,45839 6284,45841 6285,45843 6286,45846 6286,45848 6287,45850 6288,45853 6289,45855 6289,45857 6290,45859 6291,45861 6292,45864 6294,45866 6295,45868 6296,45870 6297,45872 6298,45874 6300,45876 6301,45878 6303,45880 6304,45882 6305,45883 6307,45885 6309,45887 6310,45889 6312,45890 6314,45892 6316,45894 6317,45895 6319,45896 6321,45898 6323,45899 6325,45901 6327,45902 6329,45903 6331,45904 6333,45906 6335,45907 6337,45908 6339,45909 6342,45910 6344,45910 6346,45911 6348,45912 6351,45913 6353,45914 6355,45914 6357,45915 6360,45915 6362,45916 6364,45916 6367,45916 6369,45917 6371,45917 6374,45917 6376,45917 6379,45917 Z"/>
   </g>
  </g>
  <g class="com.sun.star.drawing.PolyPolygonShape">
   <g id="id6">
    <rect class="BoundingBox" stroke="none" fill="none" x="6452" y="45290" width="97" height="421"/>
    <path fill="rgb(255,255,255)" stroke="none" d="M 6488,45709 L 6488,45388 6453,45388 6453,45354 6488,45291 6547,45291 6547,45709 6488,45709 Z"/>
    <path fill="none" stroke="rgb(255,255,255)" d="M 6488,45709 L 6488,45388 6453,45388 6453,45354 6488,45291 6547,45291 6547,45709 6488,45709 Z"/>
   </g>
  </g>
  <g class="com.sun.star.drawing.PolyPolygonShape">
   <g id="id7">
    <rect class="BoundingBox" stroke="none" fill="none" x="6622" y="45284" width="216" height="433"/>
    <path fill="rgb(255,255,255)" stroke="none" d="M 6683,45614 L 6683,45386 6683,45384 6683,45382 6683,45379 6684,45377 6684,45375 6685,45373 6686,45370 6687,45368 6687,45366 6688,45364 6690,45362 6691,45360 6692,45358 6694,45356 6695,45354 6697,45353 6698,45351 6700,45350 6702,45348 6704,45347 6706,45346 6708,45344 6710,45343 6712,45342 6714,45342 6716,45341 6719,45340 6721,45340 6723,45339 6725,45339 6728,45339 6730,45339 6732,45339 6735,45339 6737,45339 6739,45340 6742,45340 6744,45341 6746,45342 6748,45342 6750,45343 6752,45344 6754,45346 6756,45347 6758,45348 6760,45350 6762,45351 6764,45353 6765,45354 6767,45356 6768,45358 6769,45360 6771,45362 6772,45364 6773,45366 6774,45368 6775,45370 6775,45373 6776,45375 6776,45377 6777,45379 6777,45382 6777,45384 6777,45386 6777,45614 6777,45616 6777,45618 6777,45620 6776,45623 6776,45625 6775,45627 6775,45630 6774,45632 6773,45634 6772,45636 6771,45638 6769,45640 6768,45642 6767,45644 6765,45645 6764,45647 6762,45649 6760,45650 6758,45652 6756,45653 6754,45654 6752,45656 6750,45657 6748,45658 6746,45658 6744,45659 6742,45660 6739,45660 6737,45661 6735,45661 6732,45661 6730,45661 6728,45661 6725,45661 6723,45661 6721,45660 6719,45660 6716,45659 6714,45658 6712,45658 6710,45657 6708,45656 6706,45654 6704,45653 6702,45652 6700,45650 6698,45649 6697,45647 6695,45645 6694,45644 6692,45642 6691,45640 6690,45638 6688,45636 6687,45634 6687,45632 6686,45630 6685,45627 6684,45625 6684,45623 6683,45620 6683,45618 6683,45616 6683,45614 Z M 6623,45608 L 6623,45392 6623,45390 6623,45387 6623,45384 6623,45382 6624,45379 6624,45377 6624,45374 6625,45371 6626,45369 6626,45366 6627,45364 6627,45361 6628,45359 6629,45356 6630,45354 6631,45351 6632,45349 6633,45346 6634,45344 6635,45342 6637,45339 6638,45337 6639,45335 6641,45333 6642,45331 6644,45328 6645,45326 6647,45324 6649,45322 6650,45320 6652,45318 6654,45317 6656,45315 6658,45313 6660,45311 6662,45310 6664,45308 6666,45306 6668,45305 6670,45303 6672,45302 6674,45300 6677,45299 6680,45298 6682,45297 6685,45295 6687,45294 6689,45293 6692,45292 6694,45291 6697,45291 6699,45290 6702,45289 6704,45288 6707,45288 6709,45287 6712,45287 6714,45286 6717,45286 6720,45286 6722,45285 6725,45285 6728,45285 6730,45285 6733,45285 6735,45285 6738,45285 6741,45286 6743,45286 6746,45286 6748,45287 6751,45287 6753,45288 6756,45288 6758,45289 6761,45290 6763,45291 6766,45291 6768,45292 6771,45293 6773,45294 6776,45295 6778,45297 6780,45298 6782,45299 6785,45300 6787,45302 6789,45303 6791,45305 6793,45306 6795,45308 6797,45310 6800,45311 6802,45313 6803,45315 6805,45317 6807,45318 6809,45320 6811,45322 6812,45324 6814,45326 6815,45328 6817,45331 6819,45333 6820,45335 6821,45337 6823,45339 6824,45342 6825,45344 6826,45346 6827,45349 6828,45351 6829,45354 6830,45356 6831,45359 6832,45361 6833,45364 6833,45366 6834,45369 6834,45371 6835,45374 6835,45377 6836,45379 6836,45382 6836,45384 6836,45387 6836,45390 6836,45392 6836,45608 6836,45610 6836,45613 6836,45615 6836,45618 6836,45621 6835,45623 6835,45626 6834,45629 6834,45631 6833,45634 6833,45636 6832,45639 6831,45641 6830,45644 6829,45646 6828,45649 6827,45651 6826,45653 6825,45656 6824,45658 6823,45660 6821,45663 6820,45665 6819,45667 6817,45669 6815,45671 6814,45674 6812,45676 6811,45678 6809,45680 6807,45682 6805,45683 6803,45685 6802,45687 6800,45689 6797,45690 6795,45692 6793,45694 6791,45695 6789,45697 6787,45698 6785,45700 6782,45701 6780,45702 6778,45703 6776,45704 6773,45705 6771,45707 6768,45707 6766,45708 6763,45709 6761,45710 6758,45711 6756,45711 6753,45712 6751,45713 6748,45713 6746,45714 6743,45714 6741,45714 6738,45715 6735,45715 6733,45715 6730,45715 6728,45715 6725,45715 6722,45715 6720,45714 6717,45714 6714,45714 6712,45713 6709,45713 6707,45712 6704,45711 6702,45711 6699,45710 6697,45709 6694,45708 6692,45707 6689,45707 6687,45705 6685,45704 6682,45703 6680,45702 6677,45701 6674,45700 6672,45698 6670,45697 6668,45695 6666,45694 6664,45692 6662,45690 6660,45689 6658,45687 6656,45685 6654,45683 6652,45682 6650,45680 6649,45678 6647,45676 6645,45674 6644,45671 6642,45669 6641,45667 6639,45665 6638,45663 6637,45660 6635,45658 6634,45656 6633,45653 6632,45651 6631,45649 6630,45646 6629,45644 6628,45641 6627,45639 6627,45636 6626,45634 6626,45631 6625,45629 6624,45626 6624,45623 6624,45621 6623,45618 6623,45615 6623,45613 6623,45610 6623,45608 Z"/>
    <path fill="none" stroke="rgb(255,255,255)" d="M 6683,45614 L 6683,45386 6683,45384 6683,45382 6683,45379 6684,45377 6684,45375 6685,45373 6686,45370 6687,45368 6687,45366 6688,45364 6690,45362 6691,45360 6692,45358 6694,45356 6695,45354 6697,45353 6698,45351 6700,45350 6702,45348 6704,45347 6706,45346 6708,45344 6710,45343 6712,45342 6714,45342 6716,45341 6719,45340 6721,45340 6723,45339 6725,45339 6728,45339 6730,45339 6732,45339 6735,45339 6737,45339 6739,45340 6742,45340 6744,45341 6746,45342 6748,45342 6750,45343 6752,45344 6754,45346 6756,45347 6758,45348 6760,45350 6762,45351 6764,45353 6765,45354 6767,45356 6768,45358 6769,45360 6771,45362 6772,45364 6773,45366 6774,45368 6775,45370 6775,45373 6776,45375 6776,45377 6777,45379 6777,45382 6777,45384 6777,45386 6777,45614 6777,45616 6777,45618 6777,45620 6776,45623 6776,45625 6775,45627 6775,45630 6774,45632 6773,45634 6772,45636 6771,45638 6769,45640 6768,45642 6767,45644 6765,45645 6764,45647 6762,45649 6760,45650 6758,45652 6756,45653 6754,45654 6752,45656 6750,45657 6748,45658 6746,45658 6744,45659 6742,45660 6739,45660 6737,45661 6735,45661 6732,45661 6730,45661 6728,45661 6725,45661 6723,45661 6721,45660 6719,45660 6716,45659 6714,45658 6712,45658 6710,45657 6708,45656 6706,45654 6704,45653 6702,45652 6700,45650 6698,45649 6697,45647 6695,45645 6694,45644 6692,45642 6691,45640 6690,45638 6688,45636 6687,45634 6687,45632 6686,45630 6685,45627 6684,45625 6684,45623 6683,45620 6683,45618 6683,45616 6683,45614 Z"/>
    <path fill="none" stroke="rgb(255,255,255)" d="M 6623,45608 L 6623,45392 6623,45390 6623,45387 6623,45384 6623,45382 6624,45379 6624,45377 6624,45374 6625,45371 6626,45369 6626,45366 6627,45364 6627,45361 6628,45359 6629,45356 6630,45354 6631,45351 6632,45349 6633,45346 6634,45344 6635,45342 6637,45339 6638,45337 6639,45335 6641,45333 6642,45331 6644,45328 6645,45326 6647,45324 6649,45322 6650,45320 6652,45318 6654,45317 6656,45315 6658,45313 6660,45311 6662,45310 6664,45308 6666,45306 6668,45305 6670,45303 6672,45302 6674,45300 6677,45299 6680,45298 6682,45297 6685,45295 6687,45294 6689,45293 6692,45292 6694,45291 6697,45291 6699,45290 6702,45289 6704,45288 6707,45288 6709,45287 6712,45287 6714,45286 6717,45286 6720,45286 6722,45285 6725,45285 6728,45285 6730,45285 6733,45285 6735,45285 6738,45285 6741,45286 6743,45286 6746,45286 6748,45287 6751,45287 6753,45288 6756,45288 6758,45289 6761,45290 6763,45291 6766,45291 6768,45292 6771,45293 6773,45294 6776,45295 6778,45297 6780,45298 6782,45299 6785,45300 6787,45302 6789,45303 6791,45305 6793,45306 6795,45308 6797,45310 6800,45311 6802,45313 6803,45315 6805,45317 6807,45318 6809,45320 6811,45322 6812,45324 6814,45326 6815,45328 6817,45331 6819,45333 6820,45335 6821,45337 6823,45339 6824,45342 6825,45344 6826,45346 6827,45349 6828,45351 6829,45354 6830,45356 6831,45359 6832,45361 6833,45364 6833,45366 6834,45369 6834,45371 6835,45374 6835,45377 6836,45379 6836,45382 6836,45384 6836,45387 6836,45390 6836,45392 6836,45608 6836,45610 6836,45613 6836,45615 6836,45618 6836,45621 6835,45623 6835,45626 6834,45629 6834,45631 6833,45634 6833,45636 6832,45639 6831,45641 6830,45644 6829,45646 6828,45649 6827,45651 6826,45653 6825,45656 6824,45658 6823,45660 6821,45663 6820,45665 6819,45667 6817,45669 6815,45671 6814,45674 6812,45676 6811,45678 6809,45680 6807,45682 6805,45683 6803,45685 6802,45687 6800,45689 6797,45690 6795,45692 6793,45694 6791,45695 6789,45697 6787,45698 6785,45700 6782,45701 6780,45702 6778,45703 6776,45704 6773,45705 6771,45707 6768,45707 6766,45708 6763,45709 6761,45710 6758,45711 6756,45711 6753,45712 6751,45713 6748,45713 6746,45714 6743,45714 6741,45714 6738,45715 6735,45715 6733,45715 6730,45715 6728,45715 6725,45715 6722,45715 6720,45714 6717,45714 6714,45714 6712,45713 6709,45713 6707,45712 6704,45711 6702,45711 6699,45710 6697,45709 6694,45708 6692,45707 6689,45707 6687,45705 6685,45704 6682,45703 6680,45702 6677,45701 6674,45700 6672,45698 6670,45697 6668,45695 6666,45694 6664,45692 6662,45690 6660,45689 6658,45687 6656,45685 6654,45683 6652,45682 6650,45680 6649,45678 6647,45676 6645,45674 6644,45671 6642,45669 6641,45667 6639,45665 6638,45663 6637,45660 6635,45658 6634,45656 6633,45653 6632,45651 6631,45649 6630,45646 6629,45644 6628,45641 6627,45639 6627,45636 6626,45634 6626,45631 6625,45629 6624,45626 6624,45623 6624,45621 6623,45618 6623,45615 6623,45613 6623,45610 6623,45608 Z"/>
   </g>
  </g>
  <g class="com.sun.star.drawing.PolyPolygonShape">
   <g id="id8">
    <rect class="BoundingBox" stroke="none" fill="none" x="6908" y="45284" width="217" height="433"/>
    <path fill="rgb(255,255,255)" stroke="none" d="M 6968,45614 L 6968,45386 6968,45384 6969,45382 6969,45379 6969,45377 6970,45375 6970,45373 6971,45370 6972,45368 6973,45366 6974,45364 6975,45362 6976,45360 6978,45358 6979,45356 6981,45354 6982,45353 6984,45351 6986,45350 6987,45348 6989,45347 6991,45346 6993,45344 6995,45343 6997,45342 7000,45342 7002,45341 7004,45340 7006,45340 7009,45339 7011,45339 7013,45339 7015,45339 7018,45339 7020,45339 7022,45339 7025,45340 7027,45340 7029,45341 7032,45342 7034,45342 7036,45343 7038,45344 7040,45346 7042,45347 7044,45348 7045,45350 7047,45351 7049,45353 7051,45354 7052,45356 7053,45358 7055,45360 7056,45362 7057,45364 7058,45366 7059,45368 7060,45370 7061,45373 7061,45375 7062,45377 7062,45379 7063,45382 7063,45384 7063,45386 7063,45614 7063,45616 7063,45618 7062,45620 7062,45623 7061,45625 7061,45627 7060,45630 7059,45632 7058,45634 7057,45636 7056,45638 7055,45640 7053,45642 7052,45644 7051,45645 7049,45647 7047,45649 7045,45650 7044,45652 7042,45653 7040,45654 7038,45656 7036,45657 7034,45658 7032,45658 7029,45659 7027,45660 7025,45660 7022,45661 7020,45661 7018,45661 7015,45661 7013,45661 7011,45661 7009,45661 7006,45660 7004,45660 7002,45659 7000,45658 6997,45658 6995,45657 6993,45656 6991,45654 6989,45653 6987,45652 6986,45650 6984,45649 6982,45647 6981,45645 6979,45644 6978,45642 6976,45640 6975,45638 6974,45636 6973,45634 6972,45632 6971,45630 6970,45627 6970,45625 6969,45623 6969,45620 6969,45618 6968,45616 6968,45614 Z M 6909,45608 L 6909,45392 6909,45390 6909,45387 6910,45384 6910,45382 6910,45379 6910,45377 6911,45374 6911,45371 6912,45369 6913,45366 6913,45364 6914,45361 6915,45359 6916,45356 6916,45354 6917,45351 6918,45349 6919,45346 6921,45344 6922,45342 6923,45339 6925,45337 6926,45335 6927,45333 6929,45331 6930,45328 6932,45326 6933,45324 6935,45322 6937,45320 6939,45318 6940,45317 6942,45315 6944,45313 6946,45311 6948,45310 6950,45308 6952,45306 6954,45305 6957,45303 6959,45302 6961,45300 6963,45299 6966,45298 6968,45297 6970,45295 6972,45294 6975,45293 6977,45292 6980,45291 6982,45291 6985,45290 6987,45289 6990,45288 6992,45288 6995,45287 6997,45287 7000,45286 7003,45286 7005,45286 7008,45285 7010,45285 7013,45285 7015,45285 7018,45285 7021,45285 7023,45285 7026,45286 7028,45286 7031,45286 7034,45287 7036,45287 7039,45288 7041,45288 7044,45289 7046,45290 7049,45291 7051,45291 7054,45292 7056,45293 7059,45294 7061,45295 7063,45297 7066,45298 7068,45299 7070,45300 7072,45302 7075,45303 7077,45305 7079,45306 7081,45308 7083,45310 7085,45311 7087,45313 7089,45315 7091,45317 7093,45318 7094,45320 7096,45322 7098,45324 7099,45326 7101,45328 7103,45331 7105,45333 7106,45335 7108,45337 7109,45339 7110,45342 7111,45344 7113,45346 7114,45349 7115,45351 7116,45354 7117,45356 7117,45359 7118,45361 7119,45364 7120,45366 7120,45369 7121,45371 7121,45374 7122,45377 7122,45379 7122,45382 7122,45384 7123,45387 7123,45390 7123,45392 7123,45608 7123,45610 7123,45613 7122,45615 7122,45618 7122,45621 7122,45623 7121,45626 7121,45629 7120,45631 7120,45634 7119,45636 7118,45639 7117,45641 7117,45644 7116,45646 7115,45649 7114,45651 7113,45653 7111,45656 7110,45658 7109,45660 7108,45663 7106,45665 7105,45667 7103,45669 7101,45671 7099,45674 7098,45676 7096,45678 7094,45680 7093,45682 7091,45683 7089,45685 7087,45687 7085,45689 7083,45690 7081,45692 7079,45694 7077,45695 7075,45697 7072,45698 7070,45700 7068,45701 7066,45702 7063,45703 7061,45704 7059,45705 7056,45707 7054,45707 7051,45708 7049,45709 7046,45710 7044,45711 7041,45711 7039,45712 7036,45713 7034,45713 7031,45714 7028,45714 7026,45714 7023,45715 7021,45715 7018,45715 7015,45715 7013,45715 7010,45715 7008,45715 7005,45714 7003,45714 7000,45714 6997,45713 6995,45713 6992,45712 6990,45711 6987,45711 6985,45710 6982,45709 6980,45708 6977,45707 6975,45707 6972,45705 6970,45704 6968,45703 6966,45702 6963,45701 6961,45700 6959,45698 6957,45697 6954,45695 6952,45694 6950,45692 6948,45690 6946,45689 6944,45687 6942,45685 6940,45683 6939,45682 6937,45680 6935,45678 6933,45676 6932,45674 6930,45671 6929,45669 6927,45667 6926,45665 6925,45663 6923,45660 6922,45658 6921,45656 6919,45653 6918,45651 6917,45649 6916,45646 6916,45644 6915,45641 6914,45639 6913,45636 6913,45634 6912,45631 6911,45629 6911,45626 6910,45623 6910,45621 6910,45618 6910,45615 6909,45613 6909,45610 6909,45608 Z"/>
    <path fill="none" stroke="rgb(255,255,255)" d="M 6968,45614 L 6968,45386 6968,45384 6969,45382 6969,45379 6969,45377 6970,45375 6970,45373 6971,45370 6972,45368 6973,45366 6974,45364 6975,45362 6976,45360 6978,45358 6979,45356 6981,45354 6982,45353 6984,45351 6986,45350 6987,45348 6989,45347 6991,45346 6993,45344 6995,45343 6997,45342 7000,45342 7002,45341 7004,45340 7006,45340 7009,45339 7011,45339 7013,45339 7015,45339 7018,45339 7020,45339 7022,45339 7025,45340 7027,45340 7029,45341 7032,45342 7034,45342 7036,45343 7038,45344 7040,45346 7042,45347 7044,45348 7045,45350 7047,45351 7049,45353 7051,45354 7052,45356 7053,45358 7055,45360 7056,45362 7057,45364 7058,45366 7059,45368 7060,45370 7061,45373 7061,45375 7062,45377 7062,45379 7063,45382 7063,45384 7063,45386 7063,45614 7063,45616 7063,45618 7062,45620 7062,45623 7061,45625 7061,45627 7060,45630 7059,45632 7058,45634 7057,45636 7056,45638 7055,45640 7053,45642 7052,45644 7051,45645 7049,45647 7047,45649 7045,45650 7044,45652 7042,45653 7040,45654 7038,45656 7036,45657 7034,45658 7032,45658 7029,45659 7027,45660 7025,45660 7022,45661 7020,45661 7018,45661 7015,45661 7013,45661 7011,45661 7009,45661 7006,45660 7004,45660 7002,45659 7000,45658 6997,45658 6995,45657 6993,45656 6991,45654 6989,45653 6987,45652 6986,45650 6984,45649 6982,45647 6981,45645 6979,45644 6978,45642 6976,45640 6975,45638 6974,45636 6973,45634 6972,45632 6971,45630 6970,45627 6970,45625 6969,45623 6969,45620 6969,45618 6968,45616 6968,45614 Z"/>
    <path fill="none" stroke="rgb(255,255,255)" d="M 6909,45608 L 6909,45392 6909,45390 6909,45387 6910,45384 6910,45382 6910,45379 6910,45377 6911,45374 6911,45371 6912,45369 6913,45366 6913,45364 6914,45361 6915,45359 6916,45356 6916,45354 6917,45351 6918,45349 6919,45346 6921,45344 6922,45342 6923,45339 6925,45337 6926,45335 6927,45333 6929,45331 6930,45328 6932,45326 6933,45324 6935,45322 6937,45320 6939,45318 6940,45317 6942,45315 6944,45313 6946,45311 6948,45310 6950,45308 6952,45306 6954,45305 6957,45303 6959,45302 6961,45300 6963,45299 6966,45298 6968,45297 6970,45295 6972,45294 6975,45293 6977,45292 6980,45291 6982,45291 6985,45290 6987,45289 6990,45288 6992,45288 6995,45287 6997,45287 7000,45286 7003,45286 7005,45286 7008,45285 7010,45285 7013,45285 7015,45285 7018,45285 7021,45285 7023,45285 7026,45286 7028,45286 7031,45286 7034,45287 7036,45287 7039,45288 7041,45288 7044,45289 7046,45290 7049,45291 7051,45291 7054,45292 7056,45293 7059,45294 7061,45295 7063,45297 7066,45298 7068,45299 7070,45300 7072,45302 7075,45303 7077,45305 7079,45306 7081,45308 7083,45310 7085,45311 7087,45313 7089,45315 7091,45317 7093,45318 7094,45320 7096,45322 7098,45324 7099,45326 7101,45328 7103,45331 7105,45333 7106,45335 7108,45337 7109,45339 7110,45342 7111,45344 7113,45346 7114,45349 7115,45351 7116,45354 7117,45356 7117,45359 7118,45361 7119,45364 7120,45366 7120,45369 7121,45371 7121,45374 7122,45377 7122,45379 7122,45382 7122,45384 7123,45387 7123,45390 7123,45392 7123,45608 7123,45610 7123,45613 7122,45615 7122,45618 7122,45621 7122,45623 7121,45626 7121,45629 7120,45631 7120,45634 7119,45636 7118,45639 7117,45641 7117,45644 7116,45646 7115,45649 7114,45651 7113,45653 7111,45656 7110,45658 7109,45660 7108,45663 7106,45665 7105,45667 7103,45669 7101,45671 7099,45674 7098,45676 7096,45678 7094,45680 7093,45682 7091,45683 7089,45685 7087,45687 7085,45689 7083,45690 7081,45692 7079,45694 7077,45695 7075,45697 7072,45698 7070,45700 7068,45701 7066,45702 7063,45703 7061,45704 7059,45705 7056,45707 7054,45707 7051,45708 7049,45709 7046,45710 7044,45711 7041,45711 7039,45712 7036,45713 7034,45713 7031,45714 7028,45714 7026,45714 7023,45715 7021,45715 7018,45715 7015,45715 7013,45715 7010,45715 7008,45715 7005,45714 7003,45714 7000,45714 6997,45713 6995,45713 6992,45712 6990,45711 6987,45711 6985,45710 6982,45709 6980,45708 6977,45707 6975,45707 6972,45705 6970,45704 6968,45703 6966,45702 6963,45701 6961,45700 6959,45698 6957,45697 6954,45695 6952,45694 6950,45692 6948,45690 6946,45689 6944,45687 6942,45685 6940,45683 6939,45682 6937,45680 6935,45678 6933,45676 6932,45674 6930,45671 6929,45669 6927,45667 6926,45665 6925,45663 6923,45660 6922,45658 6921,45656 6919,45653 6918,45651 6917,45649 6916,45646 6916,45644 6915,45641 6914,45639 6913,45636 6913,45634 6912,45631 6911,45629 6911,45626 6910,45623 6910,45621 6910,45618 6910,45615 6909,45613 6909,45610 6909,45608 Z"/>
   </g>
  </g>
  <g class="com.sun.star.drawing.PolyPolygonShape">
   <g id="id9">
    <rect class="BoundingBox" stroke="none" fill="none" x="7298" y="45403" width="305" height="308"/>
    <path fill="rgb(255,255,255)" stroke="none" d="M 7299,45709 L 7353,45709 7353,45488 7353,45486 7353,45484 7353,45482 7354,45481 7354,45479 7355,45477 7355,45475 7356,45474 7356,45472 7357,45471 7358,45469 7359,45468 7360,45466 7361,45465 7362,45464 7363,45462 7365,45461 7366,45460 7367,45459 7369,45458 7370,45457 7372,45456 7373,45455 7375,45455 7377,45454 7378,45453 7380,45453 7382,45452 7383,45452 7385,45452 7387,45452 7388,45452 7390,45452 7392,45452 7394,45452 7395,45452 7397,45453 7399,45453 7400,45454 7402,45455 7404,45455 7405,45456 7407,45457 7408,45458 7409,45459 7411,45460 7412,45461 7413,45462 7415,45464 7416,45465 7417,45466 7418,45468 7419,45469 7420,45471 7420,45472 7421,45474 7422,45475 7422,45477 7423,45479 7423,45481 7423,45482 7424,45484 7424,45486 7424,45488 7424,45709 7477,45709 7477,45488 7477,45486 7477,45484 7477,45482 7478,45481 7478,45479 7479,45477 7479,45475 7480,45474 7480,45472 7481,45471 7482,45469 7483,45468 7484,45466 7485,45465 7486,45464 7487,45462 7489,45461 7490,45460 7491,45459 7493,45458 7494,45457 7496,45456 7497,45455 7499,45455 7501,45454 7502,45453 7504,45453 7505,45452 7507,45452 7509,45452 7511,45452 7512,45452 7514,45452 7516,45452 7518,45452 7519,45452 7521,45453 7523,45453 7524,45454 7526,45455 7528,45455 7529,45456 7531,45457 7532,45458 7534,45459 7535,45460 7536,45461 7537,45462 7539,45464 7540,45465 7541,45466 7542,45468 7543,45469 7544,45471 7544,45472 7545,45474 7546,45475 7546,45477 7547,45479 7547,45481 7548,45482 7548,45484 7548,45486 7548,45488 7548,45709 7601,45709 7601,45478 7601,45475 7601,45472 7600,45469 7600,45466 7599,45463 7599,45460 7598,45458 7597,45455 7596,45452 7595,45449 7594,45446 7593,45444 7591,45441 7590,45439 7588,45436 7586,45434 7584,45432 7582,45429 7580,45427 7578,45425 7576,45423 7574,45421 7572,45419 7569,45417 7567,45416 7564,45414 7562,45413 7559,45411 7556,45410 7554,45409 7551,45408 7548,45407 7545,45406 7542,45406 7539,45405 7536,45405 7534,45404 7530,45404 7528,45404 7525,45404 7522,45404 7519,45405 7516,45405 7513,45406 7510,45406 7507,45407 7504,45408 7502,45409 7499,45410 7496,45411 7494,45413 7491,45414 7488,45416 7486,45417 7484,45419 7481,45421 7479,45423 7477,45425 7475,45427 7473,45429 7471,45431 7469,45434 7467,45436 7466,45438 7464,45437 7463,45435 7462,45433 7461,45432 7459,45430 7458,45429 7457,45427 7455,45426 7454,45424 7453,45423 7451,45422 7449,45420 7448,45419 7446,45418 7445,45417 7443,45416 7441,45415 7439,45414 7438,45413 7436,45412 7434,45411 7432,45410 7430,45409 7428,45409 7426,45408 7424,45407 7423,45407 7421,45406 7419,45406 7417,45405 7415,45405 7413,45405 7411,45404 7408,45404 7407,45404 7405,45404 7402,45404 7400,45404 7398,45404 7396,45405 7394,45405 7392,45405 7390,45405 7388,45406 7387,45406 7385,45407 7383,45407 7381,45408 7379,45409 7377,45409 7375,45410 7373,45411 7371,45412 7369,45413 7368,45414 7366,45415 7364,45416 7362,45417 7361,45418 7359,45419 7358,45421 7356,45422 7355,45423 7353,45424 7353,45410 7299,45410 7299,45709 Z"/>
    <path fill="none" stroke="rgb(255,255,255)" d="M 7299,45709 L 7353,45709 7353,45488 7353,45486 7353,45484 7353,45482 7354,45481 7354,45479 7355,45477 7355,45475 7356,45474 7356,45472 7357,45471 7358,45469 7359,45468 7360,45466 7361,45465 7362,45464 7363,45462 7365,45461 7366,45460 7367,45459 7369,45458 7370,45457 7372,45456 7373,45455 7375,45455 7377,45454 7378,45453 7380,45453 7382,45452 7383,45452 7385,45452 7387,45452 7388,45452 7390,45452 7392,45452 7394,45452 7395,45452 7397,45453 7399,45453 7400,45454 7402,45455 7404,45455 7405,45456 7407,45457 7408,45458 7409,45459 7411,45460 7412,45461 7413,45462 7415,45464 7416,45465 7417,45466 7418,45468 7419,45469 7420,45471 7420,45472 7421,45474 7422,45475 7422,45477 7423,45479 7423,45481 7423,45482 7424,45484 7424,45486 7424,45488 7424,45709 7477,45709 7477,45488 7477,45486 7477,45484 7477,45482 7478,45481 7478,45479 7479,45477 7479,45475 7480,45474 7480,45472 7481,45471 7482,45469 7483,45468 7484,45466 7485,45465 7486,45464 7487,45462 7489,45461 7490,45460 7491,45459 7493,45458 7494,45457 7496,45456 7497,45455 7499,45455 7501,45454 7502,45453 7504,45453 7505,45452 7507,45452 7509,45452 7511,45452 7512,45452 7514,45452 7516,45452 7518,45452 7519,45452 7521,45453 7523,45453 7524,45454 7526,45455 7528,45455 7529,45456 7531,45457 7532,45458 7534,45459 7535,45460 7536,45461 7537,45462 7539,45464 7540,45465 7541,45466 7542,45468 7543,45469 7544,45471 7544,45472 7545,45474 7546,45475 7546,45477 7547,45479 7547,45481 7548,45482 7548,45484 7548,45486 7548,45488 7548,45709 7601,45709 7601,45478 7601,45475 7601,45472 7600,45469 7600,45466 7599,45463 7599,45460 7598,45458 7597,45455 7596,45452 7595,45449 7594,45446 7593,45444 7591,45441 7590,45439 7588,45436 7586,45434 7584,45432 7582,45429 7580,45427 7578,45425 7576,45423 7574,45421 7572,45419 7569,45417 7567,45416 7564,45414 7562,45413 7559,45411 7556,45410 7554,45409 7551,45408 7548,45407 7545,45406 7542,45406 7539,45405 7536,45405 7534,45404 7530,45404 7528,45404 7525,45404 7522,45404 7519,45405 7516,45405 7513,45406 7510,45406 7507,45407 7504,45408 7502,45409 7499,45410 7496,45411 7494,45413 7491,45414 7488,45416 7486,45417 7484,45419 7481,45421 7479,45423 7477,45425 7475,45427 7473,45429 7471,45431 7469,45434 7467,45436 7466,45438 7464,45437 7463,45435 7462,45433 7461,45432 7459,45430 7458,45429 7457,45427 7455,45426 7454,45424 7453,45423 7451,45422 7449,45420 7448,45419 7446,45418 7445,45417 7443,45416 7441,45415 7439,45414 7438,45413 7436,45412 7434,45411 7432,45410 7430,45409 7428,45409 7426,45408 7424,45407 7423,45407 7421,45406 7419,45406 7417,45405 7415,45405 7413,45405 7411,45404 7408,45404 7407,45404 7405,45404 7402,45404 7400,45404 7398,45404 7396,45405 7394,45405 7392,45405 7390,45405 7388,45406 7387,45406 7385,45407 7383,45407 7381,45408 7379,45409 7377,45409 7375,45410 7373,45411 7371,45412 7369,45413 7368,45414 7366,45415 7364,45416 7362,45417 7361,45418 7359,45419 7358,45421 7356,45422 7355,45423 7353,45424 7353,45410 7299,45410 7299,45709 Z"/>
   </g>
  </g>
  <g class="com.sun.star.drawing.PolyPolygonShape">
   <g id="id10">
    <rect class="BoundingBox" stroke="none" fill="none" x="6405" y="43749" width="1244" height="1337"/>
    <path fill="rgb(255,255,255)" stroke="none" d="M 6489,45084 L 7565,45084 7567,45084 7569,45084 7571,45083 7573,45083 7575,45083 7577,45083 7579,45083 7581,45082 7583,45082 7585,45081 7587,45081 7589,45080 7591,45080 7593,45079 7595,45078 7596,45077 7598,45077 7600,45076 7602,45075 7604,45074 7606,45073 7607,45072 7609,45071 7611,45070 7612,45069 7614,45067 7616,45066 7617,45065 7619,45064 7620,45062 7622,45061 7623,45059 7625,45058 7626,45056 7627,45055 7629,45053 7630,45052 7631,45050 7632,45048 7633,45047 7635,45045 7636,45043 7637,45042 7638,45040 7639,45038 7639,45036 7640,45034 7641,45032 7642,45030 7643,45029 7643,45027 7644,45025 7644,45023 7645,45021 7645,45019 7646,45017 7646,45015 7646,45013 7647,45011 7647,45009 7647,45007 7647,45005 7647,45002 7647,45000 7647,43833 7647,43831 7647,43829 7647,43827 7647,43825 7647,43823 7646,43821 7646,43819 7646,43817 7645,43815 7645,43813 7644,43811 7644,43809 7643,43807 7643,43805 7642,43803 7641,43801 7640,43799 7639,43797 7639,43795 7638,43794 7637,43792 7636,43790 7635,43788 7633,43787 7632,43785 7631,43783 7630,43782 7629,43780 7627,43778 7626,43777 7625,43775 7623,43774 7622,43772 7620,43771 7619,43770 7617,43768 7616,43767 7614,43766 7612,43765 7611,43764 7609,43762 7607,43761 7606,43760 7604,43759 7602,43758 7600,43758 7598,43757 7596,43756 7595,43755 7593,43754 7591,43754 7589,43753 7587,43753 7585,43752 7583,43752 7581,43751 7579,43751 7577,43750 7575,43750 7573,43750 7571,43750 7569,43750 7567,43750 7565,43750 6489,43750 6487,43750 6485,43750 6483,43750 6481,43750 6479,43750 6477,43750 6475,43751 6473,43751 6471,43752 6469,43752 6467,43753 6465,43753 6463,43754 6461,43754 6459,43755 6457,43756 6455,43757 6453,43758 6452,43758 6450,43759 6448,43760 6446,43761 6444,43762 6443,43764 6441,43765 6439,43766 6438,43767 6436,43768 6435,43770 6433,43771 6432,43772 6430,43774 6429,43775 6427,43777 6426,43778 6425,43780 6424,43782 6422,43783 6421,43785 6420,43787 6419,43788 6418,43790 6417,43792 6416,43794 6415,43795 6414,43797 6413,43799 6412,43801 6412,43803 6411,43805 6410,43807 6410,43809 6409,43811 6409,43813 6408,43815 6408,43817 6407,43819 6407,43821 6407,43823 6406,43825 6406,43827 6406,43829 6406,43831 6406,43833 6406,45000 6406,45002 6406,45005 6406,45007 6406,45009 6407,45011 6407,45013 6407,45015 6408,45017 6408,45019 6409,45021 6409,45023 6410,45025 6410,45027 6411,45029 6412,45030 6412,45032 6413,45034 6414,45036 6415,45038 6416,45040 6417,45042 6418,45043 6419,45045 6420,45047 6421,45048 6422,45050 6424,45052 6425,45053 6426,45055 6427,45056 6429,45058 6430,45059 6432,45061 6433,45062 6435,45064 6436,45065 6438,45066 6439,45067 6441,45069 6443,45070 6444,45071 6446,45072 6448,45073 6450,45074 6452,45075 6453,45076 6455,45077 6457,45077 6459,45078 6461,45079 6463,45080 6465,45080 6467,45081 6469,45081 6471,45082 6473,45082 6475,45083 6477,45083 6479,45083 6481,45083 6483,45083 6485,45084 6487,45084 6489,45084 Z"/>
    <path fill="none" stroke="rgb(255,255,255)" d="M 6489,45084 L 7565,45084 7567,45084 7569,45084 7571,45083 7573,45083 7575,45083 7577,45083 7579,45083 7581,45082 7583,45082 7585,45081 7587,45081 7589,45080 7591,45080 7593,45079 7595,45078 7596,45077 7598,45077 7600,45076 7602,45075 7604,45074 7606,45073 7607,45072 7609,45071 7611,45070 7612,45069 7614,45067 7616,45066 7617,45065 7619,45064 7620,45062 7622,45061 7623,45059 7625,45058 7626,45056 7627,45055 7629,45053 7630,45052 7631,45050 7632,45048 7633,45047 7635,45045 7636,45043 7637,45042 7638,45040 7639,45038 7639,45036 7640,45034 7641,45032 7642,45030 7643,45029 7643,45027 7644,45025 7644,45023 7645,45021 7645,45019 7646,45017 7646,45015 7646,45013 7647,45011 7647,45009 7647,45007 7647,45005 7647,45002 7647,45000 7647,43833 7647,43831 7647,43829 7647,43827 7647,43825 7647,43823 7646,43821 7646,43819 7646,43817 7645,43815 7645,43813 7644,43811 7644,43809 7643,43807 7643,43805 7642,43803 7641,43801 7640,43799 7639,43797 7639,43795 7638,43794 7637,43792 7636,43790 7635,43788 7633,43787 7632,43785 7631,43783 7630,43782 7629,43780 7627,43778 7626,43777 7625,43775 7623,43774 7622,43772 7620,43771 7619,43770 7617,43768 7616,43767 7614,43766 7612,43765 7611,43764 7609,43762 7607,43761 7606,43760 7604,43759 7602,43758 7600,43758 7598,43757 7596,43756 7595,43755 7593,43754 7591,43754 7589,43753 7587,43753 7585,43752 7583,43752 7581,43751 7579,43751 7577,43750 7575,43750 7573,43750 7571,43750 7569,43750 7567,43750 7565,43750 6489,43750 6487,43750 6485,43750 6483,43750 6481,43750 6479,43750 6477,43750 6475,43751 6473,43751 6471,43752 6469,43752 6467,43753 6465,43753 6463,43754 6461,43754 6459,43755 6457,43756 6455,43757 6453,43758 6452,43758 6450,43759 6448,43760 6446,43761 6444,43762 6443,43764 6441,43765 6439,43766 6438,43767 6436,43768 6435,43770 6433,43771 6432,43772 6430,43774 6429,43775 6427,43777 6426,43778 6425,43780 6424,43782 6422,43783 6421,43785 6420,43787 6419,43788 6418,43790 6417,43792 6416,43794 6415,43795 6414,43797 6413,43799 6412,43801 6412,43803 6411,43805 6410,43807 6410,43809 6409,43811 6409,43813 6408,43815 6408,43817 6407,43819 6407,43821 6407,43823 6406,43825 6406,43827 6406,43829 6406,43831 6406,43833 6406,45000 6406,45002 6406,45005 6406,45007 6406,45009 6407,45011 6407,45013 6407,45015 6408,45017 6408,45019 6409,45021 6409,45023 6410,45025 6410,45027 6411,45029 6412,45030 6412,45032 6413,45034 6414,45036 6415,45038 6416,45040 6417,45042 6418,45043 6419,45045 6420,45047 6421,45048 6422,45050 6424,45052 6425,45053 6426,45055 6427,45056 6429,45058 6430,45059 6432,45061 6433,45062 6435,45064 6436,45065 6438,45066 6439,45067 6441,45069 6443,45070 6444,45071 6446,45072 6448,45073 6450,45074 6452,45075 6453,45076 6455,45077 6457,45077 6459,45078 6461,45079 6463,45080 6465,45080 6467,45081 6469,45081 6471,45082 6473,45082 6475,45083 6477,45083 6479,45083 6481,45083 6483,45083 6485,45084 6487,45084 6489,45084 Z"/>
   </g>
  </g>
  <g class="com.sun.star.drawing.PolyPolygonShape">
   <g id="id11">
    <rect class="BoundingBox" stroke="none" fill="none" x="6647" y="43860" width="760" height="1115"/>
    <path fill="rgb(0,0,0)" stroke="none" d="M 6850,44306 L 7092,44306 7095,44306 7097,44306 7100,44306 7103,44306 7105,44305 7108,44305 7111,44304 7113,44304 7116,44303 7119,44303 7121,44302 7124,44301 7126,44300 7129,44300 7132,44299 7134,44298 7136,44297 7139,44295 7141,44294 7144,44293 7146,44292 7148,44290 7151,44289 7153,44287 7155,44286 7158,44284 7160,44283 7162,44281 7164,44279 7166,44277 7168,44275 7170,44273 7172,44271 7174,44270 7176,44268 7178,44265 7180,44263 7181,44261 7183,44259 7184,44257 7186,44254 7187,44252 7189,44250 7190,44247 7191,44245 7192,44242 7193,44240 7195,44237 7196,44235 7197,44232 7197,44230 7198,44227 7199,44225 7200,44222 7200,44219 7201,44217 7201,44214 7202,44211 7202,44209 7202,44206 7203,44203 7203,44200 7203,44198 7203,44195 7203,44158 7203,44155 7203,44152 7203,44150 7202,44147 7202,44144 7202,44142 7201,44139 7201,44136 7200,44134 7200,44131 7199,44128 7198,44126 7197,44123 7197,44121 7196,44118 7195,44115 7193,44113 7192,44110 7191,44108 7190,44106 7189,44103 7187,44101 7186,44099 7184,44096 7183,44094 7181,44092 7180,44089 7178,44087 7176,44085 7174,44083 7172,44081 7170,44079 7168,44077 7166,44076 7164,44074 7162,44072 7160,44070 7158,44069 7155,44067 7153,44066 7151,44064 7148,44063 7146,44061 7144,44060 7141,44059 7139,44057 7136,44056 7134,44055 7132,44054 7129,44053 7126,44052 7124,44052 7121,44051 7119,44050 7116,44049 7113,44049 7111,44048 7108,44048 7105,44048 7103,44047 7100,44047 7097,44047 7095,44047 7092,44047 6850,44047 6850,44306 Z M 6648,44973 L 6850,44973 6850,44491 7110,44491 7114,44491 7117,44491 7121,44491 7125,44491 7128,44491 7132,44490 7135,44490 7139,44490 7143,44490 7146,44489 7150,44489 7153,44488 7157,44488 7160,44487 7164,44486 7168,44486 7171,44485 7176,44484 7179,44483 7183,44482 7186,44481 7190,44480 7193,44480 7197,44479 7200,44477 7203,44476 7207,44475 7210,44474 7214,44473 7217,44471 7220,44470 7224,44469 7227,44467 7230,44466 7234,44464 7237,44463 7240,44461 7243,44460 7246,44458 7250,44456 7253,44455 7256,44453 7259,44451 7262,44449 7265,44447 7268,44445 7271,44443 7274,44441 7277,44439 7280,44437 7283,44435 7286,44433 7289,44431 7292,44429 7295,44426 7298,44424 7300,44422 7303,44419 7306,44417 7309,44415 7311,44412 7314,44410 7316,44407 7319,44404 7322,44402 7324,44399 7326,44397 7329,44394 7331,44391 7334,44388 7336,44386 7338,44383 7341,44380 7343,44377 7345,44374 7347,44371 7349,44369 7351,44366 7353,44363 7355,44360 7357,44357 7359,44353 7361,44350 7363,44347 7365,44344 7367,44341 7369,44338 7370,44335 7372,44331 7374,44328 7375,44325 7377,44322 7378,44318 7380,44315 7381,44312 7383,44308 7384,44305 7385,44302 7387,44298 7388,44295 7389,44291 7390,44288 7391,44284 7392,44281 7393,44277 7394,44274 7395,44270 7396,44267 7397,44263 7398,44260 7399,44256 7399,44253 7400,44249 7401,44246 7401,44242 7402,44238 7402,44235 7403,44231 7403,44228 7404,44224 7404,44220 7404,44217 7405,44213 7405,44210 7405,44206 7405,44202 7405,44199 7405,44195 7405,44158 7405,44154 7405,44151 7405,44147 7405,44143 7405,44140 7404,44136 7404,44133 7404,44129 7403,44125 7403,44122 7402,44118 7402,44114 7401,44111 7401,44107 7400,44104 7399,44100 7399,44097 7398,44093 7397,44089 7396,44086 7395,44082 7394,44079 7393,44075 7392,44072 7391,44068 7390,44065 7389,44062 7388,44058 7387,44055 7385,44051 7384,44048 7383,44044 7381,44041 7380,44038 7378,44035 7377,44031 7375,44028 7374,44025 7372,44021 7370,44018 7369,44015 7367,44012 7365,44009 7363,44006 7361,44002 7359,43999 7357,43996 7355,43993 7353,43990 7351,43987 7349,43984 7347,43981 7345,43979 7343,43976 7341,43973 7338,43970 7336,43967 7334,43964 7331,43962 7329,43959 7326,43956 7324,43954 7322,43951 7319,43948 7316,43946 7314,43943 7311,43941 7309,43938 7306,43936 7303,43933 7300,43931 7298,43929 7295,43927 7292,43924 7289,43922 7286,43920 7283,43918 7280,43916 7277,43914 7274,43911 7271,43910 7268,43908 7265,43906 7262,43904 7259,43902 7256,43900 7253,43898 7250,43897 7246,43895 7243,43893 7240,43892 7237,43890 7234,43889 7230,43887 7227,43886 7224,43883 7220,43882 7217,43880 7214,43879 7210,43878 7207,43877 7203,43876 7200,43875 7197,43873 7193,43872 7190,43871 7186,43870 7183,43869 7179,43869 7176,43868 7171,43867 7168,43866 7164,43866 7160,43865 7157,43864 7153,43864 7150,43863 7146,43863 7143,43862 7139,43862 7135,43862 7132,43862 7128,43861 7125,43861 7121,43861 7117,43861 7114,43861 7110,43861 6648,43861 6648,44973 Z"/>
    <path fill="none" stroke="rgb(0,0,0)" d="M 6850,44306 L 7092,44306 7095,44306 7097,44306 7100,44306 7103,44306 7105,44305 7108,44305 7111,44304 7113,44304 7116,44303 7119,44303 7121,44302 7124,44301 7126,44300 7129,44300 7132,44299 7134,44298 7136,44297 7139,44295 7141,44294 7144,44293 7146,44292 7148,44290 7151,44289 7153,44287 7155,44286 7158,44284 7160,44283 7162,44281 7164,44279 7166,44277 7168,44275 7170,44273 7172,44271 7174,44270 7176,44268 7178,44265 7180,44263 7181,44261 7183,44259 7184,44257 7186,44254 7187,44252 7189,44250 7190,44247 7191,44245 7192,44242 7193,44240 7195,44237 7196,44235 7197,44232 7197,44230 7198,44227 7199,44225 7200,44222 7200,44219 7201,44217 7201,44214 7202,44211 7202,44209 7202,44206 7203,44203 7203,44200 7203,44198 7203,44195 7203,44158 7203,44155 7203,44152 7203,44150 7202,44147 7202,44144 7202,44142 7201,44139 7201,44136 7200,44134 7200,44131 7199,44128 7198,44126 7197,44123 7197,44121 7196,44118 7195,44115 7193,44113 7192,44110 7191,44108 7190,44106 7189,44103 7187,44101 7186,44099 7184,44096 7183,44094 7181,44092 7180,44089 7178,44087 7176,44085 7174,44083 7172,44081 7170,44079 7168,44077 7166,44076 7164,44074 7162,44072 7160,44070 7158,44069 7155,44067 7153,44066 7151,44064 7148,44063 7146,44061 7144,44060 7141,44059 7139,44057 7136,44056 7134,44055 7132,44054 7129,44053 7126,44052 7124,44052 7121,44051 7119,44050 7116,44049 7113,44049 7111,44048 7108,44048 7105,44048 7103,44047 7100,44047 7097,44047 7095,44047 7092,44047 6850,44047 6850,44306 Z"/>
    <path fill="none" stroke="rgb(0,0,0)" d="M 6648,44973 L 6850,44973 6850,44491 7110,44491 7114,44491 7117,44491 7121,44491 7125,44491 7128,44491 7132,44490 7135,44490 7139,44490 7143,44490 7146,44489 7150,44489 7153,44488 7157,44488 7160,44487 7164,44486 7168,44486 7171,44485 7176,44484 7179,44483 7183,44482 7186,44481 7190,44480 7193,44480 7197,44479 7200,44477 7203,44476 7207,44475 7210,44474 7214,44473 7217,44471 7220,44470 7224,44469 7227,44467 7230,44466 7234,44464 7237,44463 7240,44461 7243,44460 7246,44458 7250,44456 7253,44455 7256,44453 7259,44451 7262,44449 7265,44447 7268,44445 7271,44443 7274,44441 7277,44439 7280,44437 7283,44435 7286,44433 7289,44431 7292,44429 7295,44426 7298,44424 7300,44422 7303,44419 7306,44417 7309,44415 7311,44412 7314,44410 7316,44407 7319,44404 7322,44402 7324,44399 7326,44397 7329,44394 7331,44391 7334,44388 7336,44386 7338,44383 7341,44380 7343,44377 7345,44374 7347,44371 7349,44369 7351,44366 7353,44363 7355,44360 7357,44357 7359,44353 7361,44350 7363,44347 7365,44344 7367,44341 7369,44338 7370,44335 7372,44331 7374,44328 7375,44325 7377,44322 7378,44318 7380,44315 7381,44312 7383,44308 7384,44305 7385,44302 7387,44298 7388,44295 7389,44291 7390,44288 7391,44284 7392,44281 7393,44277 7394,44274 7395,44270 7396,44267 7397,44263 7398,44260 7399,44256 7399,44253 7400,44249 7401,44246 7401,44242 7402,44238 7402,44235 7403,44231 7403,44228 7404,44224 7404,44220 7404,44217 7405,44213 7405,44210 7405,44206 7405,44202 7405,44199 7405,44195 7405,44158 7405,44154 7405,44151 7405,44147 7405,44143 7405,44140 7404,44136 7404,44133 7404,44129 7403,44125 7403,44122 7402,44118 7402,44114 7401,44111 7401,44107 7400,44104 7399,44100 7399,44097 7398,44093 7397,44089 7396,44086 7395,44082 7394,44079 7393,44075 7392,44072 7391,44068 7390,44065 7389,44062 7388,44058 7387,44055 7385,44051 7384,44048 7383,44044 7381,44041 7380,44038 7378,44035 7377,44031 7375,44028 7374,44025 7372,44021 7370,44018 7369,44015 7367,44012 7365,44009 7363,44006 7361,44002 7359,43999 7357,43996 7355,43993 7353,43990 7351,43987 7349,43984 7347,43981 7345,43979 7343,43976 7341,43973 7338,43970 7336,43967 7334,43964 7331,43962 7329,43959 7326,43956 7324,43954 7322,43951 7319,43948 7316,43946 7314,43943 7311,43941 7309,43938 7306,43936 7303,43933 7300,43931 7298,43929 7295,43927 7292,43924 7289,43922 7286,43920 7283,43918 7280,43916 7277,43914 7274,43911 7271,43910 7268,43908 7265,43906 7262,43904 7259,43902 7256,43900 7253,43898 7250,43897 7246,43895 7243,43893 7240,43892 7237,43890 7234,43889 7230,43887 7227,43886 7224,43883 7220,43882 7217,43880 7214,43879 7210,43878 7207,43877 7203,43876 7200,43875 7197,43873 7193,43872 7190,43871 7186,43870 7183,43869 7179,43869 7176,43868 7171,43867 7168,43866 7164,43866 7160,43865 7157,43864 7153,43864 7150,43863 7146,43863 7143,43862 7139,43862 7135,43862 7132,43862 7128,43861 7125,43861 7121,43861 7117,43861 7114,43861 7110,43861 6648,43861 6648,44973 Z"/>
   </g>
  </g>
 </g>
</svg>