<?xml version="1.0" encoding="UTF-8"?>
<!DOCTYPE svg PUBLIC "-//W3C//DTD SVG 1.1//EN" "http://www.w3.org/Graphics/SVG/1.1/DTD/svg11.dtd">
<svg version="1.2" width="16.57mm" height="25.03mm" viewBox="8398 43499 1657 2503" preserveAspectRatio="xMidYMid" fill-rule="evenodd" stroke-width="28.222" stroke-linejoin="round" xmlns="http://www.w3.org/2000/svg" xmlns:ooo="http://xml.openoffice.org/svg/export" xmlns:xlink="http://www.w3.org/1999/xlink" xmlns:presentation="http://sun.com/xmlns/staroffice/presentation" xmlns:smil="http://www.w3.org/2001/SMIL20/" xmlns:anim="urn:oasis:names:tc:opendocument:xmlns:animation:1.0" xml:space="preserve">
 <defs class="EmbeddedBulletChars">
  <g id="bullet-char-template-57356" transform="scale(0.00048828125,-0.00048828125)">
   <path d="M 580,1141 L 1163,571 580,0 -4,571 580,1141 Z"/>
  </g>
  <g id="bullet-char-template-57354" transform="scale(0.00048828125,-0.00048828125)">
   <path d="M 8,1128 L 1137,1128 1137,0 8,0 8,1128 Z"/>
  </g>
  <g id="bullet-char-template-10146" transform="scale(0.00048828125,-0.00048828125)">
   <path d="M 174,0 L 602,739 174,1481 1456,739 174,0 Z M 1358,739 L 309,1346 659,739 1358,739 Z"/>
  </g>
  <g id="bullet-char-template-10132" transform="scale(0.00048828125,-0.00048828125)">
   <path d="M 2015,739 L 1276,0 717,0 1260,543 174,543 174,936 1260,936 717,1481 1274,1481 2015,739 Z"/>
  </g>
  <g id="bullet-char-template-10007" transform="scale(0.00048828125,-0.00048828125)">
   <path d="M 0,-2 C -7,14 -16,27 -25,37 L 356,567 C 262,823 215,952 215,954 215,979 228,992 255,992 264,992 276,990 289,987 310,991 331,999 354,1012 L 381,999 492,748 772,1049 836,1024 860,1049 C 881,1039 901,1025 922,1006 886,937 835,863 770,784 769,783 710,716 594,584 L 774,223 C 774,196 753,168 711,139 L 727,119 C 717,90 699,76 672,76 641,76 570,178 457,381 L 164,-76 C 142,-110 111,-127 72,-127 30,-127 9,-110 8,-76 1,-67 -2,-52 -2,-32 -2,-23 -1,-13 0,-2 Z"/>
  </g>
  <g id="bullet-char-template-10004" transform="scale(0.00048828125,-0.00048828125)">
   <path d="M 285,-33 C 182,-33 111,30 74,156 52,228 41,333 41,471 41,549 55,616 82,672 116,743 169,778 240,778 293,778 328,747 346,684 L 369,508 C 377,444 397,411 428,410 L 1163,1116 C 1174,1127 1196,1133 1229,1133 1271,1133 1292,1118 1292,1087 L 1292,965 C 1292,929 1282,901 1262,881 L 442,47 C 390,-6 338,-33 285,-33 Z"/>
  </g>
  <g id="bullet-char-template-9679" transform="scale(0.00048828125,-0.00048828125)">
   <path d="M 813,0 C 632,0 489,54 383,161 276,268 223,411 223,592 223,773 276,916 383,1023 489,1130 632,1184 813,1184 992,1184 1136,1130 1245,1023 1353,916 1407,772 1407,592 1407,412 1353,268 1245,161 1136,54 992,0 813,0 Z"/>
  </g>
  <g id="bullet-char-template-8226" transform="scale(0.00048828125,-0.00048828125)">
   <path d="M 346,457 C 273,457 209,483 155,535 101,586 74,649 74,723 74,796 101,859 155,911 209,963 273,989 346,989 419,989 480,963 531,910 582,859 608,796 608,723 608,648 583,586 532,535 482,483 420,457 346,457 Z"/>
  </g>
  <g id="bullet-char-template-8211" transform="scale(0.00048828125,-0.00048828125)">
   <path d="M -4,459 L 1135,459 1135,606 -4,606 -4,459 Z"/>
  </g>
  <g id="bullet-char-template-61548" transform="scale(0.00048828125,-0.00048828125)">
   <path d="M 173,740 C 173,903 231,1043 346,1159 462,1274 601,1332 765,1332 928,1332 1067,1274 1183,1159 1299,1043 1357,903 1357,740 1357,577 1299,437 1183,322 1067,206 928,148 765,148 601,148 462,206 346,322 231,437 173,577 173,740 Z"/>
  </g>
 </defs>
 <g class="Page">
  <g class="com.sun.star.drawing.PolyPolygonShape">
   <g id="id3">
    <rect class="BoundingBox" stroke="none" fill="none" x="8398" y="43499" width="1657" height="2503"/>
    <path fill="rgb(0,0,255)" stroke="none" d="M 8579,46000 L 9874,46000 9879,46000 9883,46000 9887,46000 9892,46000 9896,45999 9900,45998 9905,45998 9909,45997 9913,45996 9918,45995 9922,45994 9926,45993 9930,45991 9934,45990 9939,45988 9943,45987 9947,45985 9951,45983 9955,45981 9959,45979 9962,45977 9966,45975 9970,45972 9974,45970 9977,45967 9981,45965 9984,45962 9988,45960 9991,45957 9994,45954 9998,45951 10001,45948 10004,45944 10007,45941 10010,45938 10013,45934 10015,45931 10018,45927 10021,45924 10023,45920 10025,45916 10028,45913 10030,45909 10032,45905 10034,45901 10036,45897 10038,45893 10040,45889 10041,45885 10043,45881 10044,45876 10046,45872 10047,45868 10048,45864 10049,45859 10050,45855 10050,45851 10051,45846 10052,45842 10052,45838 10053,45833 10053,45829 10053,45824 10053,45820 10053,43680 10053,43676 10053,43671 10053,43667 10052,43662 10052,43658 10051,43654 10050,43649 10050,43645 10049,43641 10048,43636 10047,43632 10046,43628 10044,43623 10043,43619 10041,43615 10040,43611 10038,43607 10036,43603 10034,43599 10032,43595 10030,43591 10028,43587 10025,43584 10023,43580 10021,43576 10018,43573 10015,43569 10013,43565 10010,43562 10007,43559 10004,43556 10001,43552 9998,43549 9994,43546 9991,43543 9988,43540 9984,43538 9981,43535 9977,43533 9974,43530 9970,43527 9966,43525 9962,43523 9959,43521 9955,43519 9951,43517 9947,43515 9943,43513 9939,43512 9934,43510 9930,43509 9926,43507 9922,43506 9918,43505 9913,43504 9909,43503 9905,43502 9900,43502 9896,43501 9892,43500 9887,43500 9883,43500 9879,43500 9874,43500 8579,43500 8574,43500 8570,43500 8565,43500 8561,43500 8557,43501 8552,43502 8548,43502 8544,43503 8539,43504 8535,43505 8531,43506 8526,43507 8522,43509 8518,43510 8514,43512 8510,43513 8506,43515 8502,43517 8498,43519 8494,43521 8490,43523 8486,43525 8483,43527 8479,43530 8476,43533 8472,43535 8468,43538 8465,43540 8462,43543 8458,43546 8455,43549 8452,43552 8449,43556 8446,43559 8443,43562 8440,43565 8437,43569 8435,43573 8432,43576 8430,43580 8427,43584 8425,43587 8423,43591 8421,43595 8419,43599 8417,43603 8415,43607 8413,43611 8411,43615 8410,43619 8409,43623 8407,43628 8406,43632 8405,43636 8404,43641 8403,43645 8402,43649 8401,43654 8401,43658 8400,43662 8400,43667 8400,43671 8399,43676 8399,43680 8399,45820 8399,45824 8400,45829 8400,45833 8400,45838 8401,45842 8401,45846 8402,45851 8403,45855 8404,45859 8405,45864 8406,45868 8407,45872 8409,45876 8410,45881 8411,45885 8413,45889 8415,45893 8417,45897 8419,45901 8421,45905 8423,45909 8425,45913 8427,45916 8430,45920 8432,45924 8435,45927 8437,45931 8440,45934 8443,45938 8446,45941 8449,45944 8452,45948 8455,45951 8458,45954 8462,45957 8465,45960 8468,45962 8472,45965 8476,45967 8479,45970 8483,45972 8486,45975 8490,45977 8494,45979 8498,45981 8502,45983 8506,45985 8510,45987 8514,45988 8518,45990 8522,45991 8526,45993 8531,45994 8535,45995 8539,45996 8544,45997 8548,45998 8552,45998 8557,45999 8561,46000 8565,46000 8570,46000 8574,46000 8579,46000 Z"/>
    <path fill="none" stroke="rgb(0,0,255)" d="M 8579,46000 L 9874,46000 9879,46000 9883,46000 9887,46000 9892,46000 9896,45999 9900,45998 9905,45998 9909,45997 9913,45996 9918,45995 9922,45994 9926,45993 9930,45991 9934,45990 9939,45988 9943,45987 9947,45985 9951,45983 9955,45981 9959,45979 9962,45977 9966,45975 9970,45972 9974,45970 9977,45967 9981,45965 9984,45962 9988,45960 9991,45957 9994,45954 9998,45951 10001,45948 10004,45944 10007,45941 10010,45938 10013,45934 10015,45931 10018,45927 10021,45924 10023,45920 10025,45916 10028,45913 10030,45909 10032,45905 10034,45901 10036,45897 10038,45893 10040,45889 10041,45885 10043,45881 10044,45876 10046,45872 10047,45868 10048,45864 10049,45859 10050,45855 10050,45851 10051,45846 10052,45842 10052,45838 10053,45833 10053,45829 10053,45824 10053,45820 10053,43680 10053,43676 10053,43671 10053,43667 10052,43662 10052,43658 10051,43654 10050,43649 10050,43645 10049,43641 10048,43636 10047,43632 10046,43628 10044,43623 10043,43619 10041,43615 10040,43611 10038,43607 10036,43603 10034,43599 10032,43595 10030,43591 10028,43587 10025,43584 10023,43580 10021,43576 10018,43573 10015,43569 10013,43565 10010,43562 10007,43559 10004,43556 10001,43552 9998,43549 9994,43546 9991,43543 9988,43540 9984,43538 9981,43535 9977,43533 9974,43530 9970,43527 9966,43525 9962,43523 9959,43521 9955,43519 9951,43517 9947,43515 9943,43513 9939,43512 9934,43510 9930,43509 9926,43507 9922,43506 9918,43505 9913,43504 9909,43503 9905,43502 9900,43502 9896,43501 9892,43500 9887,43500 9883,43500 9879,43500 9874,43500 8579,43500 8574,43500 8570,43500 8565,43500 8561,43500 8557,43501 8552,43502 8548,43502 8544,43503 8539,43504 8535,43505 8531,43506 8526,43507 8522,43509 8518,43510 8514,43512 8510,43513 8506,43515 8502,43517 8498,43519 8494,43521 8490,43523 8486,43525 8483,43527 8479,43530 8476,43533 8472,43535 8468,43538 8465,43540 8462,43543 8458,43546 8455,43549 8452,43552 8449,43556 8446,43559 8443,43562 8440,43565 8437,43569 8435,43573 8432,43576 8430,43580 8427,43584 8425,43587 8423,43591 8421,43595 8419,43599 8417,43603 8415,43607 8413,43611 8411,43615 8410,43619 8409,43623 8407,43628 8406,43632 8405,43636 8404,43641 8403,43645 8402,43649 8401,43654 8401,43658 8400,43662 8400,43667 8400,43671 8399,43676 8399,43680 8399,45820 8399,45824 8400,45829 8400,45833 8400,45838 8401,45842 8401,45846 8402,45851 8403,45855 8404,45859 8405,45864 8406,45868 8407,45872 8409,45876 8410,45881 8411,45885 8413,45889 8415,45893 8417,45897 8419,45901 8421,45905 8423,45909 8425,45913 8427,45916 8430,45920 8432,45924 8435,45927 8437,45931 8440,45934 8443,45938 8446,45941 8449,45944 8452,45948 8455,45951 8458,45954 8462,45957 8465,45960 8468,45962 8472,45965 8476,45967 8479,45970 8483,45972 8486,45975 8490,45977 8494,45979 8498,45981 8502,45983 8506,45985 8510,45987 8514,45988 8518,45990 8522,45991 8526,45993 8531,45994 8535,45995 8539,45996 8544,45997 8548,45998 8552,45998 8557,45999 8561,46000 8565,46000 8570,46000 8574,46000 8579,46000 Z"/>
   </g>
  </g>
  <g class="com.sun.star.drawing.PolyPolygonShape">
   <g id="id4">
    <rect class="BoundingBox" stroke="none" fill="none" x="8440" y="43540" width="1574" height="2421"/>
    <path fill="rgb(255,255,255)" stroke="none" d="M 8579,45959 L 9874,45959 9877,45959 9881,45959 9884,45958 9888,45958 9891,45958 9894,45957 9898,45957 9901,45956 9904,45955 9908,45955 9911,45954 9914,45953 9917,45952 9921,45951 9924,45949 9927,45948 9930,45947 9933,45945 9936,45944 9939,45942 9942,45941 9945,45939 9948,45937 9951,45935 9953,45933 9956,45931 9959,45929 9961,45927 9964,45925 9967,45923 9969,45920 9971,45918 9974,45916 9976,45913 9978,45911 9981,45908 9983,45905 9985,45903 9987,45900 9989,45897 9991,45894 9992,45891 9994,45888 9996,45885 9997,45882 9999,45879 10000,45876 10001,45873 10003,45870 10004,45867 10005,45863 10006,45860 10007,45857 10008,45854 10009,45850 10009,45847 10010,45844 10010,45840 10011,45837 10011,45834 10011,45830 10012,45827 10012,45823 10012,45820 10012,43680 10012,43677 10012,43673 10011,43670 10011,43666 10011,43663 10010,43660 10010,43656 10009,43653 10009,43650 10008,43646 10007,43643 10006,43640 10005,43636 10004,43633 10003,43630 10001,43627 10000,43624 9999,43621 9997,43618 9996,43615 9994,43612 9992,43609 9991,43606 9989,43603 9987,43600 9985,43597 9983,43595 9981,43592 9978,43589 9976,43587 9974,43584 9971,43582 9969,43580 9967,43577 9964,43575 9961,43573 9959,43571 9956,43569 9953,43567 9951,43565 9948,43563 9945,43561 9942,43559 9939,43558 9936,43556 9933,43554 9930,43553 9927,43552 9924,43551 9921,43549 9917,43548 9914,43547 9911,43546 9908,43545 9904,43545 9901,43544 9898,43543 9894,43543 9891,43542 9888,43542 9884,43542 9881,43541 9877,43541 9874,43541 8579,43541 8575,43541 8572,43541 8568,43542 8565,43542 8562,43542 8558,43543 8555,43543 8552,43544 8548,43545 8545,43545 8542,43546 8539,43547 8535,43548 8532,43549 8529,43551 8526,43552 8523,43553 8520,43554 8517,43556 8514,43558 8511,43559 8508,43561 8505,43563 8502,43565 8499,43567 8497,43569 8494,43571 8491,43573 8489,43575 8486,43577 8484,43580 8481,43582 8479,43584 8477,43587 8474,43589 8472,43592 8470,43595 8468,43597 8466,43600 8464,43603 8462,43606 8460,43609 8459,43612 8457,43615 8455,43618 8454,43621 8453,43624 8451,43627 8450,43630 8449,43633 8448,43636 8447,43640 8446,43643 8445,43646 8444,43650 8443,43653 8443,43656 8442,43660 8442,43663 8441,43666 8441,43670 8441,43673 8441,43677 8441,43680 8441,45820 8441,45823 8441,45827 8441,45830 8441,45834 8442,45837 8442,45840 8443,45844 8443,45847 8444,45850 8445,45854 8446,45857 8447,45860 8448,45863 8449,45867 8450,45870 8451,45873 8453,45876 8454,45879 8455,45882 8457,45885 8459,45888 8460,45891 8462,45894 8464,45897 8466,45900 8468,45903 8470,45905 8472,45908 8474,45911 8477,45913 8479,45916 8481,45918 8484,45920 8486,45923 8489,45925 8491,45927 8494,45929 8497,45931 8499,45933 8502,45935 8505,45937 8508,45939 8511,45941 8514,45942 8517,45944 8520,45945 8523,45947 8526,45948 8529,45949 8532,45951 8535,45952 8539,45953 8542,45954 8545,45955 8548,45955 8552,45956 8555,45957 8558,45957 8562,45958 8565,45958 8568,45958 8572,45959 8575,45959 8579,45959 Z"/>
    <path fill="none" stroke="rgb(255,255,255)" d="M 8579,45959 L 9874,45959 9877,45959 9881,45959 9884,45958 9888,45958 9891,45958 9894,45957 9898,45957 9901,45956 9904,45955 9908,45955 9911,45954 9914,45953 9917,45952 9921,45951 9924,45949 9927,45948 9930,45947 9933,45945 9936,45944 9939,45942 9942,45941 9945,45939 9948,45937 9951,45935 9953,45933 9956,45931 9959,45929 9961,45927 9964,45925 9967,45923 9969,45920 9971,45918 9974,45916 9976,45913 9978,45911 9981,45908 9983,45905 9985,45903 9987,45900 9989,45897 9991,45894 9992,45891 9994,45888 9996,45885 9997,45882 9999,45879 10000,45876 10001,45873 10003,45870 10004,45867 10005,45863 10006,45860 10007,45857 10008,45854 10009,45850 10009,45847 10010,45844 10010,45840 10011,45837 10011,45834 10011,45830 10012,45827 10012,45823 10012,45820 10012,43680 10012,43677 10012,43673 10011,43670 10011,43666 10011,43663 10010,43660 10010,43656 10009,43653 10009,43650 10008,43646 10007,43643 10006,43640 10005,43636 10004,43633 10003,43630 10001,43627 10000,43624 9999,43621 9997,43618 9996,43615 9994,43612 9992,43609 9991,43606 9989,43603 9987,43600 9985,43597 9983,43595 9981,43592 9978,43589 9976,43587 9974,43584 9971,43582 9969,43580 9967,43577 9964,43575 9961,43573 9959,43571 9956,43569 9953,43567 9951,43565 9948,43563 9945,43561 9942,43559 9939,43558 9936,43556 9933,43554 9930,43553 9927,43552 9924,43551 9921,43549 9917,43548 9914,43547 9911,43546 9908,43545 9904,43545 9901,43544 9898,43543 9894,43543 9891,43542 9888,43542 9884,43542 9881,43541 9877,43541 9874,43541 8579,43541 8575,43541 8572,43541 8568,43542 8565,43542 8562,43542 8558,43543 8555,43543 8552,43544 8548,43545 8545,43545 8542,43546 8539,43547 8535,43548 8532,43549 8529,43551 8526,43552 8523,43553 8520,43554 8517,43556 8514,43558 8511,43559 8508,43561 8505,43563 8502,43565 8499,43567 8497,43569 8494,43571 8491,43573 8489,43575 8486,43577 8484,43580 8481,43582 8479,43584 8477,43587 8474,43589 8472,43592 8470,43595 8468,43597 8466,43600 8464,43603 8462,43606 8460,43609 8459,43612 8457,43615 8455,43618 8454,43621 8453,43624 8451,43627 8450,43630 8449,43633 8448,43636 8447,43640 8446,43643 8445,43646 8444,43650 8443,43653 8443,43656 8442,43660 8442,43663 8441,43666 8441,43670 8441,43673 8441,43677 8441,43680 8441,45820 8441,45823 8441,45827 8441,45830 8441,45834 8442,45837 8442,45840 8443,45844 8443,45847 8444,45850 8445,45854 8446,45857 8447,45860 8448,45863 8449,45867 8450,45870 8451,45873 8453,45876 8454,45879 8455,45882 8457,45885 8459,45888 8460,45891 8462,45894 8464,45897 8466,45900 8468,45903 8470,45905 8472,45908 8474,45911 8477,45913 8479,45916 8481,45918 8484,45920 8486,45923 8489,45925 8491,45927 8494,45929 8497,45931 8499,45933 8502,45935 8505,45937 8508,45939 8511,45941 8514,45942 8517,45944 8520,45945 8523,45947 8526,45948 8529,45949 8532,45951 8535,45952 8539,45953 8542,45954 8545,45955 8548,45955 8552,45956 8555,45957 8558,45957 8562,45958 8565,45958 8568,45958 8572,45959 8575,45959 8579,45959 Z"/>
   </g>
  </g>
  <g class="com.sun.star.drawing.PolyPolygonShape">
   <g id="id5">
    <rect class="BoundingBox" stroke="none" fill="none" x="8481" y="43582" width="1492" height="2337"/>
    <path fill="rgb(0,0,255)" stroke="none" d="M 8579,45917 L 9874,45917 9877,45917 9879,45917 9881,45917 9884,45917 9886,45916 9888,45916 9891,45916 9893,45915 9895,45915 9898,45914 9900,45914 9902,45913 9904,45912 9907,45911 9909,45910 9911,45910 9913,45909 9915,45908 9917,45907 9920,45906 9922,45904 9924,45903 9926,45902 9928,45901 9930,45899 9931,45898 9933,45896 9935,45895 9937,45894 9939,45892 9941,45890 9942,45889 9944,45887 9946,45885 9947,45883 9949,45882 9950,45880 9952,45878 9953,45876 9954,45874 9956,45872 9957,45870 9958,45868 9959,45866 9960,45864 9961,45861 9962,45859 9963,45857 9964,45855 9965,45853 9966,45850 9966,45848 9967,45846 9968,45843 9968,45841 9969,45839 9969,45836 9970,45834 9970,45832 9970,45829 9970,45827 9970,45825 9971,45822 9971,45820 9971,43680 9971,43678 9970,43675 9970,43673 9970,43671 9970,43668 9970,43666 9969,43663 9969,43661 9968,43659 9968,43656 9967,43654 9966,43652 9966,43650 9965,43647 9964,43645 9963,43643 9962,43641 9961,43638 9960,43636 9959,43634 9958,43632 9957,43630 9956,43628 9954,43626 9953,43624 9952,43622 9950,43620 9949,43618 9947,43617 9946,43615 9944,43613 9942,43611 9941,43610 9939,43608 9937,43606 9935,43605 9933,43603 9931,43602 9930,43601 9928,43599 9926,43598 9924,43597 9922,43596 9920,43594 9917,43593 9915,43592 9913,43591 9911,43590 9909,43589 9907,43589 9904,43588 9902,43587 9900,43586 9898,43586 9895,43585 9893,43585 9891,43584 9888,43584 9886,43584 9884,43583 9881,43583 9879,43583 9877,43583 9874,43583 8579,43583 8576,43583 8574,43583 8571,43583 8569,43583 8567,43584 8564,43584 8562,43584 8560,43585 8557,43585 8555,43586 8553,43586 8551,43587 8548,43588 8546,43589 8544,43589 8542,43590 8539,43591 8537,43592 8535,43593 8533,43594 8531,43596 8529,43597 8527,43598 8525,43599 8523,43601 8521,43602 8519,43603 8517,43605 8516,43606 8514,43608 8512,43610 8510,43611 8509,43613 8507,43615 8505,43617 8504,43618 8503,43620 8501,43622 8500,43624 8498,43626 8497,43628 8496,43630 8495,43632 8493,43634 8492,43636 8491,43638 8490,43641 8489,43643 8489,43645 8488,43647 8487,43650 8486,43652 8486,43654 8485,43656 8484,43659 8484,43661 8484,43663 8483,43666 8483,43668 8483,43671 8482,43673 8482,43675 8482,43678 8482,43680 8482,45820 8482,45822 8482,45825 8482,45827 8483,45829 8483,45832 8483,45834 8484,45836 8484,45839 8484,45841 8485,45843 8486,45846 8486,45848 8487,45850 8488,45853 8489,45855 8489,45857 8490,45859 8491,45861 8492,45864 8493,45866 8495,45868 8496,45870 8497,45872 8498,45874 8500,45876 8501,45878 8503,45880 8504,45882 8505,45883 8507,45885 8509,45887 8510,45889 8512,45890 8514,45892 8516,45894 8517,45895 8519,45896 8521,45898 8523,45899 8525,45901 8527,45902 8529,45903 8531,45904 8533,45906 8535,45907 8537,45908 8539,45909 8542,45910 8544,45910 8546,45911 8548,45912 8551,45913 8553,45914 8555,45914 8557,45915 8560,45915 8562,45916 8564,45916 8567,45916 8569,45917 8571,45917 8574,45917 8576,45917 8579,45917 Z"/>
    <path fill="none" stroke="rgb(0,0,255)" d="M 8579,45917 L 9874,45917 9877,45917 9879,45917 9881,45917 9884,45917 9886,45916 9888,45916 9891,45916 9893,45915 9895,45915 9898,45914 9900,45914 9902,45913 9904,45912 9907,45911 9909,45910 9911,45910 9913,45909 9915,45908 9917,45907 9920,45906 9922,45904 9924,45903 9926,45902 9928,45901 9930,45899 9931,45898 9933,45896 9935,45895 9937,45894 9939,45892 9941,45890 9942,45889 9944,45887 9946,45885 9947,45883 9949,45882 9950,45880 9952,45878 9953,45876 9954,45874 9956,45872 9957,45870 9958,45868 9959,45866 9960,45864 9961,45861 9962,45859 9963,45857 9964,45855 9965,45853 9966,45850 9966,45848 9967,45846 9968,45843 9968,45841 9969,45839 9969,45836 9970,45834 9970,45832 9970,45829 9970,45827 9970,45825 9971,45822 9971,45820 9971,43680 9971,43678 9970,43675 9970,43673 9970,43671 9970,43668 9970,43666 9969,43663 9969,43661 9968,43659 9968,43656 9967,43654 9966,43652 9966,43650 9965,43647 9964,43645 9963,43643 9962,43641 9961,43638 9960,43636 9959,43634 9958,43632 9957,43630 9956,43628 9954,43626 9953,43624 9952,43622 9950,43620 9949,43618 9947,43617 9946,43615 9944,43613 9942,43611 9941,43610 9939,43608 9937,43606 9935,43605 9933,43603 9931,43602 9930,43601 9928,43599 9926,43598 9924,43597 9922,43596 9920,43594 9917,43593 9915,43592 9913,43591 9911,43590 9909,43589 9907,43589 9904,43588 9902,43587 9900,43586 9898,43586 9895,43585 9893,43585 9891,43584 9888,43584 9886,43584 9884,43583 9881,43583 9879,43583 9877,43583 9874,43583 8579,43583 8576,43583 8574,43583 8571,43583 8569,43583 8567,43584 8564,43584 8562,43584 8560,43585 8557,43585 8555,43586 8553,43586 8551,43587 8548,43588 8546,43589 8544,43589 8542,43590 8539,43591 8537,43592 8535,43593 8533,43594 8531,43596 8529,43597 8527,43598 8525,43599 8523,43601 8521,43602 8519,43603 8517,43605 8516,43606 8514,43608 8512,43610 8510,43611 8509,43613 8507,43615 8505,43617 8504,43618 8503,43620 8501,43622 8500,43624 8498,43626 8497,43628 8496,43630 8495,43632 8493,43634 8492,43636 8491,43638 8490,43641 8489,43643 8489,43645 8488,43647 8487,43650 8486,43652 8486,43654 8485,43656 8484,43659 8484,43661 8484,43663 8483,43666 8483,43668 8483,43671 8482,43673 8482,43675 8482,43678 8482,43680 8482,45820 8482,45822 8482,45825 8482,45827 8483,45829 8483,45832 8483,45834 8484,45836 8484,45839 8484,45841 8485,45843 8486,45846 8486,45848 8487,45850 8488,45853 8489,45855 8489,45857 8490,45859 8491,45861 8492,45864 8493,45866 8495,45868 8496,45870 8497,45872 8498,45874 8500,45876 8501,45878 8503,45880 8504,45882 8505,45883 8507,45885 8509,45887 8510,45889 8512,45890 8514,45892 8516,45894 8517,45895 8519,45896 8521,45898 8523,45899 8525,45901 8527,45902 8529,45903 8531,45904 8533,45906 8535,45907 8537,45908 8539,45909 8542,45910 8544,45910 8546,45911 8548,45912 8551,45913 8553,45914 8555,45914 8557,45915 8560,45915 8562,45916 8564,45916 8567,45916 8569,45917 8571,45917 8574,45917 8576,45917 8579,45917 Z"/>
   </g>
  </g>
  <g class="com.sun.star.drawing.PolyPolygonShape">
   <g id="id6">
    <rect class="BoundingBox" stroke="none" fill="none" x="8605" y="43749" width="1244" height="1337"/>
    <path fill="rgb(255,255,255)" stroke="none" d="M 8689,45084 L 9765,45084 9767,45084 9769,45084 9771,45083 9773,45083 9775,45083 9777,45083 9779,45083 9781,45082 9783,45082 9785,45081 9787,45081 9789,45080 9791,45080 9793,45079 9795,45078 9796,45077 9798,45077 9800,45076 9802,45075 9804,45074 9806,45073 9807,45072 9809,45071 9811,45070 9812,45069 9814,45067 9816,45066 9817,45065 9819,45064 9820,45062 9822,45061 9823,45059 9825,45058 9826,45056 9827,45055 9829,45053 9830,45052 9831,45050 9832,45048 9833,45047 9835,45045 9836,45043 9837,45042 9838,45040 9839,45038 9839,45036 9840,45034 9841,45032 9842,45030 9842,45029 9843,45027 9844,45025 9844,45023 9845,45021 9845,45019 9846,45017 9846,45015 9846,45013 9847,45011 9847,45009 9847,45007 9847,45005 9847,45002 9847,45000 9847,43833 9847,43831 9847,43829 9847,43827 9847,43825 9847,43823 9846,43821 9846,43819 9846,43817 9845,43815 9845,43813 9844,43811 9844,43809 9843,43807 9842,43805 9842,43803 9841,43801 9840,43799 9839,43797 9839,43795 9838,43794 9837,43792 9836,43790 9835,43788 9833,43787 9832,43785 9831,43783 9830,43782 9829,43780 9827,43778 9826,43777 9825,43775 9823,43774 9822,43772 9820,43771 9819,43770 9817,43768 9816,43767 9814,43766 9812,43765 9811,43764 9809,43762 9807,43761 9806,43760 9804,43759 9802,43758 9800,43758 9798,43757 9796,43756 9795,43755 9793,43754 9791,43754 9789,43753 9787,43753 9785,43752 9783,43752 9781,43751 9779,43751 9777,43750 9775,43750 9773,43750 9771,43750 9769,43750 9767,43750 9765,43750 8689,43750 8687,43750 8685,43750 8683,43750 8681,43750 8679,43750 8677,43750 8675,43751 8673,43751 8671,43752 8669,43752 8667,43753 8665,43753 8663,43754 8661,43754 8659,43755 8657,43756 8655,43757 8653,43758 8652,43758 8650,43759 8648,43760 8646,43761 8644,43762 8643,43764 8641,43765 8639,43766 8638,43767 8636,43768 8635,43770 8633,43771 8632,43772 8630,43774 8629,43775 8627,43777 8626,43778 8625,43780 8623,43782 8622,43783 8621,43785 8620,43787 8619,43788 8618,43790 8617,43792 8616,43794 8615,43795 8614,43797 8613,43799 8612,43801 8612,43803 8611,43805 8610,43807 8610,43809 8609,43811 8609,43813 8608,43815 8608,43817 8607,43819 8607,43821 8607,43823 8606,43825 8606,43827 8606,43829 8606,43831 8606,43833 8606,45000 8606,45002 8606,45005 8606,45007 8606,45009 8607,45011 8607,45013 8607,45015 8608,45017 8608,45019 8609,45021 8609,45023 8610,45025 8610,45027 8611,45029 8612,45030 8612,45032 8613,45034 8614,45036 8615,45038 8616,45040 8617,45042 8618,45043 8619,45045 8620,45047 8621,45048 8622,45050 8623,45052 8625,45053 8626,45055 8627,45056 8629,45058 8630,45059 8632,45061 8633,45062 8635,45064 8636,45065 8638,45066 8639,45067 8641,45069 8643,45070 8644,45071 8646,45072 8648,45073 8650,45074 8652,45075 8653,45076 8655,45077 8657,45077 8659,45078 8661,45079 8663,45080 8665,45080 8667,45081 8669,45081 8671,45082 8673,45082 8675,45083 8677,45083 8679,45083 8681,45083 8683,45083 8685,45084 8687,45084 8689,45084 Z"/>
    <path fill="none" stroke="rgb(255,255,255)" d="M 8689,45084 L 9765,45084 9767,45084 9769,45084 9771,45083 9773,45083 9775,45083 9777,45083 9779,45083 9781,45082 9783,45082 9785,45081 9787,45081 9789,45080 9791,45080 9793,45079 9795,45078 9796,45077 9798,45077 9800,45076 9802,45075 9804,45074 9806,45073 9807,45072 9809,45071 9811,45070 9812,45069 9814,45067 9816,45066 9817,45065 9819,45064 9820,45062 9822,45061 9823,45059 9825,45058 9826,45056 9827,45055 9829,45053 9830,45052 9831,45050 9832,45048 9833,45047 9835,45045 9836,45043 9837,45042 9838,45040 9839,45038 9839,45036 9840,45034 9841,45032 9842,45030 9842,45029 9843,45027 9844,45025 9844,45023 9845,45021 9845,45019 9846,45017 9846,45015 9846,45013 9847,45011 9847,45009 9847,45007 9847,45005 9847,45002 9847,45000 9847,43833 9847,43831 9847,43829 9847,43827 9847,43825 9847,43823 9846,43821 9846,43819 9846,43817 9845,43815 9845,43813 9844,43811 9844,43809 9843,43807 9842,43805 9842,43803 9841,43801 9840,43799 9839,43797 9839,43795 9838,43794 9837,43792 9836,43790 9835,43788 9833,43787 9832,43785 9831,43783 9830,43782 9829,43780 9827,43778 9826,43777 9825,43775 9823,43774 9822,43772 9820,43771 9819,43770 9817,43768 9816,43767 9814,43766 9812,43765 9811,43764 9809,43762 9807,43761 9806,43760 9804,43759 9802,43758 9800,43758 9798,43757 9796,43756 9795,43755 9793,43754 9791,43754 9789,43753 9787,43753 9785,43752 9783,43752 9781,43751 9779,43751 9777,43750 9775,43750 9773,43750 9771,43750 9769,43750 9767,43750 9765,43750 8689,43750 8687,43750 8685,43750 8683,43750 8681,43750 8679,43750 8677,43750 8675,43751 8673,43751 8671,43752 8669,43752 8667,43753 8665,43753 8663,43754 8661,43754 8659,43755 8657,43756 8655,43757 8653,43758 8652,43758 8650,43759 8648,43760 8646,43761 8644,43762 8643,43764 8641,43765 8639,43766 8638,43767 8636,43768 8635,43770 8633,43771 8632,43772 8630,43774 8629,43775 8627,43777 8626,43778 8625,43780 8623,43782 8622,43783 8621,43785 8620,43787 8619,43788 8618,43790 8617,43792 8616,43794 8615,43795 8614,43797 8613,43799 8612,43801 8612,43803 8611,43805 8610,43807 8610,43809 8609,43811 8609,43813 8608,43815 8608,43817 8607,43819 8607,43821 8607,43823 8606,43825 8606,43827 8606,43829 8606,43831 8606,43833 8606,45000 8606,45002 8606,45005 8606,45007 8606,45009 8607,45011 8607,45013 8607,45015 8608,45017 8608,45019 8609,45021 8609,45023 8610,45025 8610,45027 8611,45029 8612,45030 8612,45032 8613,45034 8614,45036 8615,45038 8616,45040 8617,45042 8618,45043 8619,45045 8620,45047 8621,45048 8622,45050 8623,45052 8625,45053 8626,45055 8627,45056 8629,45058 8630,45059 8632,45061 8633,45062 8635,45064 8636,45065 8638,45066 8639,45067 8641,45069 8643,45070 8644,45071 8646,45072 8648,45073 8650,45074 8652,45075 8653,45076 8655,45077 8657,45077 8659,45078 8661,45079 8663,45080 8665,45080 8667,45081 8669,45081 8671,45082 8673,45082 8675,45083 8677,45083 8679,45083 8681,45083 8683,45083 8685,45084 8687,45084 8689,45084 Z"/>
   </g>
  </g>
  <g class="com.sun.star.drawing.PolyPolygonShape">
   <g id="id7">
    <rect class="BoundingBox" stroke="none" fill="none" x="8605" y="45249" width="1244" height="503"/>
    <path fill="rgb(255,255,255)" stroke="none" d="M 8606,45499 L 9019,45750 9019,45583 9847,45583 9847,45416 9019,45416 9019,45250 8606,45499 Z"/>
    <path fill="none" stroke="rgb(255,255,255)" d="M 8606,45499 L 9019,45750 9019,45583 9847,45583 9847,45416 9019,45416 9019,45250 8606,45499 Z"/>
   </g>
  </g>
  <g class="com.sun.star.drawing.PolyPolygonShape">
   <g id="id8">
    <rect class="BoundingBox" stroke="none" fill="none" x="8847" y="43860" width="760" height="1115"/>
    <path fill="rgb(0,0,0)" stroke="none" d="M 9050,44306 L 9292,44306 9294,44306 9297,44306 9300,44306 9303,44306 9305,44305 9308,44305 9311,44304 9313,44304 9316,44303 9319,44303 9321,44302 9324,44301 9326,44300 9329,44300 9331,44299 9334,44298 9336,44297 9339,44295 9341,44294 9344,44293 9346,44292 9348,44290 9351,44289 9353,44287 9355,44286 9358,44284 9360,44283 9362,44281 9364,44279 9366,44277 9368,44275 9370,44273 9372,44271 9373,44270 9375,44268 9377,44265 9379,44263 9380,44261 9382,44259 9383,44257 9385,44254 9386,44252 9388,44250 9389,44247 9390,44245 9391,44242 9392,44240 9394,44237 9395,44235 9395,44232 9396,44230 9397,44227 9398,44225 9399,44222 9399,44219 9400,44217 9400,44214 9401,44211 9401,44209 9401,44206 9402,44203 9402,44200 9402,44198 9402,44195 9402,44158 9402,44155 9402,44152 9402,44150 9401,44147 9401,44144 9401,44142 9400,44139 9400,44136 9399,44134 9399,44131 9398,44128 9397,44126 9396,44123 9395,44121 9395,44118 9394,44115 9392,44113 9391,44110 9390,44108 9389,44106 9388,44103 9386,44101 9385,44099 9383,44096 9382,44094 9380,44092 9379,44089 9377,44087 9375,44085 9373,44083 9372,44081 9370,44079 9368,44077 9366,44076 9364,44074 9362,44072 9360,44070 9358,44069 9355,44067 9353,44066 9351,44064 9348,44063 9346,44061 9344,44060 9341,44059 9339,44057 9336,44056 9334,44055 9331,44054 9329,44053 9326,44052 9324,44052 9321,44051 9319,44050 9316,44049 9313,44049 9311,44048 9308,44048 9305,44048 9303,44047 9300,44047 9297,44047 9294,44047 9292,44047 9050,44047 9050,44306 Z M 8848,44973 L 9050,44973 9050,44491 9310,44491 9314,44491 9317,44491 9321,44491 9325,44491 9328,44491 9332,44490 9335,44490 9339,44490 9342,44490 9346,44489 9350,44489 9353,44488 9357,44488 9360,44487 9364,44486 9367,44486 9371,44485 9375,44484 9378,44483 9382,44482 9385,44481 9389,44480 9392,44480 9395,44479 9399,44477 9402,44476 9406,44475 9409,44474 9413,44473 9416,44471 9419,44470 9423,44469 9426,44467 9429,44466 9433,44464 9436,44463 9440,44461 9443,44460 9446,44458 9450,44456 9453,44455 9456,44453 9459,44451 9462,44449 9465,44447 9468,44445 9471,44443 9474,44441 9477,44439 9480,44437 9483,44435 9486,44433 9489,44431 9492,44429 9495,44426 9498,44424 9500,44422 9503,44419 9506,44417 9509,44415 9511,44412 9514,44410 9516,44407 9519,44404 9522,44402 9524,44399 9526,44397 9529,44394 9531,44391 9534,44388 9536,44386 9538,44383 9541,44380 9543,44377 9545,44374 9547,44371 9549,44369 9551,44366 9553,44363 9555,44360 9557,44357 9559,44353 9561,44350 9563,44347 9565,44344 9567,44341 9569,44338 9570,44335 9572,44331 9574,44328 9575,44325 9577,44322 9578,44318 9580,44315 9581,44312 9583,44308 9584,44305 9585,44302 9587,44298 9588,44295 9589,44291 9590,44288 9591,44284 9592,44281 9593,44277 9594,44274 9595,44270 9596,44267 9597,44263 9598,44260 9599,44256 9599,44253 9600,44249 9601,44246 9601,44242 9602,44238 9602,44235 9603,44231 9603,44228 9604,44224 9604,44220 9604,44217 9605,44213 9605,44210 9605,44206 9605,44202 9605,44199 9605,44195 9605,44158 9605,44154 9605,44151 9605,44147 9605,44143 9605,44140 9604,44136 9604,44133 9604,44129 9603,44125 9603,44122 9602,44118 9602,44114 9601,44111 9601,44107 9600,44104 9599,44100 9599,44097 9598,44093 9597,44089 9596,44086 9595,44082 9594,44079 9593,44075 9592,44072 9591,44068 9590,44065 9589,44062 9588,44058 9587,44055 9585,44051 9584,44048 9583,44044 9581,44041 9580,44038 9578,44035 9577,44031 9575,44028 9574,44025 9572,44021 9570,44018 9569,44015 9567,44012 9565,44009 9563,44006 9561,44002 9559,43999 9557,43996 9555,43993 9553,43990 9551,43987 9549,43984 9547,43981 9545,43979 9543,43976 9541,43973 9538,43970 9536,43967 9534,43964 9531,43962 9529,43959 9526,43956 9524,43954 9522,43951 9519,43948 9516,43946 9514,43943 9511,43941 9509,43938 9506,43936 9503,43933 9500,43931 9498,43929 9495,43927 9492,43924 9489,43922 9486,43920 9483,43918 9480,43916 9477,43914 9474,43911 9471,43910 9468,43908 9465,43906 9462,43904 9459,43902 9456,43900 9453,43898 9450,43897 9446,43895 9443,43893 9440,43892 9436,43890 9433,43889 9429,43887 9426,43886 9423,43883 9419,43882 9416,43880 9413,43879 9409,43878 9406,43877 9402,43876 9399,43875 9395,43873 9392,43872 9389,43871 9385,43870 9382,43869 9378,43869 9375,43868 9371,43867 9367,43866 9364,43866 9360,43865 9357,43864 9353,43864 9350,43863 9346,43863 9342,43862 9339,43862 9335,43862 9332,43862 9328,43861 9325,43861 9321,43861 9317,43861 9314,43861 9310,43861 8848,43861 8848,44973 Z"/>
    <path fill="none" stroke="rgb(0,0,0)" d="M 9050,44306 L 9292,44306 9294,44306 9297,44306 9300,44306 9303,44306 9305,44305 9308,44305 9311,44304 9313,44304 9316,44303 9319,44303 9321,44302 9324,44301 9326,44300 9329,44300 9331,44299 9334,44298 9336,44297 9339,44295 9341,44294 9344,44293 9346,44292 9348,44290 9351,44289 9353,44287 9355,44286 9358,44284 9360,44283 9362,44281 9364,44279 9366,44277 9368,44275 9370,44273 9372,44271 9373,44270 9375,44268 9377,44265 9379,44263 9380,44261 9382,44259 9383,44257 9385,44254 9386,44252 9388,44250 9389,44247 9390,44245 9391,44242 9392,44240 9394,44237 9395,44235 9395,44232 9396,44230 9397,44227 9398,44225 9399,44222 9399,44219 9400,44217 9400,44214 9401,44211 9401,44209 9401,44206 9402,44203 9402,44200 9402,44198 9402,44195 9402,44158 9402,44155 9402,44152 9402,44150 9401,44147 9401,44144 9401,44142 9400,44139 9400,44136 9399,44134 9399,44131 9398,44128 9397,44126 9396,44123 9395,44121 9395,44118 9394,44115 9392,44113 9391,44110 9390,44108 9389,44106 9388,44103 9386,44101 9385,44099 9383,44096 9382,44094 9380,44092 9379,44089 9377,44087 9375,44085 9373,44083 9372,44081 9370,44079 9368,44077 9366,44076 9364,44074 9362,44072 9360,44070 9358,44069 9355,44067 9353,44066 9351,44064 9348,44063 9346,44061 9344,44060 9341,44059 9339,44057 9336,44056 9334,44055 9331,44054 9329,44053 9326,44052 9324,44052 9321,44051 9319,44050 9316,44049 9313,44049 9311,44048 9308,44048 9305,44048 9303,44047 9300,44047 9297,44047 9294,44047 9292,44047 9050,44047 9050,44306 Z"/>
    <path fill="none" stroke="rgb(0,0,0)" d="M 8848,44973 L 9050,44973 9050,44491 9310,44491 9314,44491 9317,44491 9321,44491 9325,44491 9328,44491 9332,44490 9335,44490 9339,44490 9342,44490 9346,44489 9350,44489 9353,44488 9357,44488 9360,44487 9364,44486 9367,44486 9371,44485 9375,44484 9378,44483 9382,44482 9385,44481 9389,44480 9392,44480 9395,44479 9399,44477 9402,44476 9406,44475 9409,44474 9413,44473 9416,44471 9419,44470 9423,44469 9426,44467 9429,44466 9433,44464 9436,44463 9440,44461 9443,44460 9446,44458 9450,44456 9453,44455 9456,44453 9459,44451 9462,44449 9465,44447 9468,44445 9471,44443 9474,44441 9477,44439 9480,44437 9483,44435 9486,44433 9489,44431 9492,44429 9495,44426 9498,44424 9500,44422 9503,44419 9506,44417 9509,44415 9511,44412 9514,44410 9516,44407 9519,44404 9522,44402 9524,44399 9526,44397 9529,44394 9531,44391 9534,44388 9536,44386 9538,44383 9541,44380 9543,44377 9545,44374 9547,44371 9549,44369 9551,44366 9553,44363 9555,44360 9557,44357 9559,44353 9561,44350 9563,44347 9565,44344 9567,44341 9569,44338 9570,44335 9572,44331 9574,44328 9575,44325 9577,44322 9578,44318 9580,44315 9581,44312 9583,44308 9584,44305 9585,44302 9587,44298 9588,44295 9589,44291 9590,44288 9591,44284 9592,44281 9593,44277 9594,44274 9595,44270 9596,44267 9597,44263 9598,44260 9599,44256 9599,44253 9600,44249 9601,44246 9601,44242 9602,44238 9602,44235 9603,44231 9603,44228 9604,44224 9604,44220 9604,44217 9605,44213 9605,44210 9605,44206 9605,44202 9605,44199 9605,44195 9605,44158 9605,44154 9605,44151 9605,44147 9605,44143 9605,44140 9604,44136 9604,44133 9604,44129 9603,44125 9603,44122 9602,44118 9602,44114 9601,44111 9601,44107 9600,44104 9599,44100 9599,44097 9598,44093 9597,44089 9596,44086 9595,44082 9594,44079 9593,44075 9592,44072 9591,44068 9590,44065 9589,44062 9588,44058 9587,44055 9585,44051 9584,44048 9583,44044 9581,44041 9580,44038 9578,44035 9577,44031 9575,44028 9574,44025 9572,44021 9570,44018 9569,44015 9567,44012 9565,44009 9563,44006 9561,44002 9559,43999 9557,43996 9555,43993 9553,43990 9551,43987 9549,43984 9547,43981 9545,43979 9543,43976 9541,43973 9538,43970 9536,43967 9534,43964 9531,43962 9529,43959 9526,43956 9524,43954 9522,43951 9519,43948 9516,43946 9514,43943 9511,43941 9509,43938 9506,43936 9503,43933 9500,43931 9498,43929 9495,43927 9492,43924 9489,43922 9486,43920 9483,43918 9480,43916 9477,43914 9474,43911 9471,43910 9468,43908 9465,43906 9462,43904 9459,43902 9456,43900 9453,43898 9450,43897 9446,43895 9443,43893 9440,43892 9436,43890 9433,43889 9429,43887 9426,43886 9423,43883 9419,43882 9416,43880 9413,43879 9409,43878 9406,43877 9402,43876 9399,43875 9395,43873 9392,43872 9389,43871 9385,43870 9382,43869 9378,43869 9375,43868 9371,43867 9367,43866 9364,43866 9360,43865 9357,43864 9353,43864 9350,43863 9346,43863 9342,43862 9339,43862 9335,43862 9332,43862 9328,43861 9325,43861 9321,43861 9317,43861 9314,43861 9310,43861 8848,43861 8848,44973 Z"/>
   </g>
  </g>
  <g class="com.sun.star.drawing.PolyPolygonShape">
   <g id="id9">
    <rect class="BoundingBox" stroke="none" fill="none" x="9088" y="44582" width="727" height="393"/>
    <path fill="rgb(0,0,0)" stroke="none" d="M 9612,44726 L 9609,44728 9606,44730 9603,44732 9600,44734 9597,44737 9594,44739 9591,44742 9588,44744 9585,44747 9583,44750 9580,44753 9578,44756 9576,44759 9573,44762 9571,44765 9569,44768 9567,44772 9565,44775 9563,44779 9562,44782 9560,44786 9559,44789 9558,44793 9556,44797 9555,44800 9554,44804 9554,44808 9553,44812 9552,44816 9552,44820 9551,44824 9551,44828 9646,44828 9646,44827 9647,44826 9647,44824 9648,44823 9648,44822 9649,44821 9649,44820 9650,44819 9650,44818 9651,44817 9652,44816 9653,44815 9653,44813 9654,44812 9655,44812 9656,44811 9612,44726 Z M 9599,44700 L 9597,44701 9595,44703 9593,44704 9591,44705 9589,44706 9587,44708 9585,44709 9583,44711 9581,44712 9580,44714 9578,44715 9576,44717 9574,44718 9572,44720 9571,44722 9569,44723 9567,44725 9565,44727 9564,44728 9562,44730 9560,44732 9559,44734 9557,44736 9556,44738 9554,44740 9553,44741 9551,44743 9550,44745 9549,44747 9547,44749 9546,44751 9545,44754 9544,44756 9542,44758 9541,44760 9540,44762 9539,44764 9538,44766 9537,44768 9536,44771 9535,44773 9534,44775 9533,44777 9532,44780 9531,44782 9531,44784 9530,44786 9529,44789 9528,44791 9528,44793 9527,44796 9527,44798 9526,44801 9525,44803 9525,44805 9525,44808 9524,44810 9524,44812 9524,44816 9523,44818 9523,44821 9523,44823 9523,44826 9523,44828 9517,44828 9517,44826 9516,44824 9516,44822 9515,44820 9514,44818 9513,44816 9512,44813 9511,44811 9510,44809 9509,44807 9507,44806 9506,44804 9504,44802 9503,44801 9501,44800 9499,44798 9571,44645 9599,44700 Z M 9606,44712 L 9604,44714 9602,44715 9600,44716 9598,44717 9597,44718 9595,44720 9593,44721 9591,44722 9590,44723 9588,44725 9586,44726 9585,44728 9583,44729 9581,44730 9580,44732 9578,44733 9577,44735 9575,44737 9574,44738 9572,44740 9571,44741 9569,44743 9568,44745 9566,44746 9565,44748 9564,44750 9563,44752 9561,44753 9560,44755 9559,44757 9558,44759 9557,44761 9555,44763 9554,44765 9553,44766 9552,44768 9551,44770 9550,44772 9549,44774 9548,44776 9548,44778 9547,44780 9546,44782 9545,44784 9544,44786 9544,44788 9543,44790 9542,44792 9542,44795 9541,44797 9541,44799 9540,44801 9540,44803 9539,44805 9539,44807 9538,44810 9538,44812 9538,44815 9537,44817 9537,44819 9537,44821 9537,44824 9537,44826 9536,44828 9528,44828 9528,44826 9528,44823 9528,44821 9529,44819 9529,44816 9529,44813 9529,44811 9530,44808 9530,44806 9531,44804 9531,44801 9532,44799 9532,44797 9533,44795 9533,44792 9534,44790 9535,44788 9535,44786 9536,44783 9537,44781 9538,44779 9539,44777 9540,44775 9541,44773 9542,44771 9543,44769 9544,44766 9545,44764 9546,44762 9547,44760 9548,44758 9549,44756 9550,44754 9552,44752 9553,44750 9554,44748 9556,44746 9557,44745 9558,44743 9560,44741 9561,44739 9563,44737 9564,44735 9566,44734 9567,44732 9569,44730 9571,44729 9572,44727 9574,44725 9576,44724 9577,44722 9579,44721 9581,44719 9583,44718 9585,44716 9586,44715 9588,44714 9590,44712 9592,44711 9594,44710 9596,44708 9598,44707 9600,44706 9602,44705 9606,44712 Z M 9460,44742 L 9493,44742 9493,44754 9481,44754 9481,44792 9483,44792 9485,44792 9487,44793 9488,44793 9559,44642 9298,44642 9294,44657 9450,44801 9451,44800 9452,44799 9453,44798 9455,44797 9456,44797 9457,44796 9459,44795 9460,44795 9461,44794 9463,44794 9464,44793 9465,44793 9467,44792 9468,44792 9470,44792 9471,44792 9471,44754 9460,44754 9460,44742 Z M 9243,44824 L 9243,44825 9244,44826 9245,44827 9350,44824 9350,44822 9350,44819 9350,44817 9349,44815 9349,44812 9349,44810 9348,44808 9348,44806 9347,44804 9347,44802 9346,44800 9346,44798 9345,44796 9344,44794 9344,44792 9343,44790 9343,44788 9342,44786 9341,44784 9340,44783 9339,44781 9338,44779 9337,44777 9337,44775 9336,44773 9335,44771 9334,44770 9332,44768 9331,44766 9330,44764 9329,44763 9328,44761 9327,44759 9326,44757 9324,44756 9323,44754 9322,44753 9320,44751 9319,44750 9318,44748 9316,44746 9315,44745 9313,44744 9312,44742 9310,44741 9309,44739 9307,44738 9306,44737 9304,44735 9302,44734 9301,44733 9299,44732 9297,44730 9296,44729 9294,44728 9292,44727 9291,44726 9289,44725 9287,44724 9285,44723 9283,44722 9281,44721 9280,44720 9278,44719 9261,44783 9261,44786 9260,44788 9260,44791 9259,44794 9258,44797 9257,44799 9256,44802 9255,44804 9254,44807 9252,44809 9251,44812 9250,44815 9248,44817 9246,44820 9245,44822 9243,44824 Z M 9373,44823 L 9364,44823 9364,44821 9363,44818 9363,44816 9363,44813 9363,44810 9362,44808 9362,44806 9361,44803 9361,44801 9360,44799 9360,44797 9359,44794 9358,44792 9358,44790 9357,44788 9356,44785 9355,44783 9355,44781 9354,44779 9353,44777 9352,44775 9351,44772 9350,44770 9349,44768 9347,44766 9346,44764 9345,44762 9344,44760 9343,44758 9341,44756 9340,44754 9339,44752 9337,44750 9336,44748 9334,44747 9333,44745 9331,44743 9330,44741 9328,44740 9327,44738 9325,44736 9324,44734 9322,44733 9320,44731 9318,44730 9317,44728 9315,44726 9313,44725 9311,44723 9309,44722 9307,44721 9306,44719 9304,44718 9302,44717 9300,44715 9298,44714 9296,44713 9294,44712 9292,44711 9290,44710 9288,44708 9286,44708 9283,44706 9281,44706 9283,44697 9286,44698 9288,44699 9290,44700 9293,44701 9295,44703 9297,44704 9299,44705 9301,44706 9303,44707 9306,44709 9308,44710 9310,44712 9312,44713 9314,44715 9316,44716 9318,44718 9320,44719 9322,44721 9324,44723 9325,44724 9327,44726 9329,44728 9331,44729 9333,44731 9334,44733 9336,44735 9338,44737 9339,44739 9341,44741 9342,44743 9344,44745 9345,44747 9347,44749 9348,44751 9350,44753 9351,44755 9352,44757 9354,44759 9355,44762 9356,44764 9357,44766 9358,44769 9359,44771 9360,44773 9361,44775 9362,44778 9363,44780 9364,44782 9365,44785 9366,44787 9367,44790 9367,44792 9368,44794 9369,44797 9369,44799 9370,44802 9370,44804 9371,44807 9371,44809 9371,44812 9372,44815 9372,44818 9372,44820 9373,44823 Z M 9234,44816 L 9232,44816 9231,44815 9230,44815 9228,44815 9227,44815 9225,44815 9224,44815 9223,44815 9221,44816 9220,44816 9219,44817 9217,44817 9216,44818 9215,44819 9214,44820 9213,44821 9212,44822 9211,44823 9210,44824 9210,44826 9209,44827 9209,44828 9208,44830 9208,44831 9208,44833 9208,44834 9208,44835 9208,44837 9208,44838 9209,44840 9209,44841 9210,44842 9210,44843 9211,44845 9212,44846 9213,44847 9214,44848 9215,44849 9216,44850 9217,44851 9219,44851 9220,44852 9221,44852 9223,44853 9224,44853 9225,44853 9227,44853 9228,44853 9230,44853 9231,44853 9233,44852 9234,44852 9235,44851 9236,44850 9238,44850 9239,44849 9240,44848 9241,44847 9242,44846 9243,44845 9243,44843 9244,44842 9245,44841 9245,44839 9351,44836 9350,44838 9350,44841 9350,44843 9350,44846 9350,44848 9350,44850 9349,44853 9349,44855 9348,44858 9348,44860 9347,44862 9347,44865 9346,44867 9346,44869 9345,44872 9344,44874 9343,44877 9342,44879 9342,44881 9341,44883 9340,44885 9338,44888 9337,44890 9336,44892 9335,44894 9334,44896 9333,44898 9332,44901 9330,44903 9329,44905 9328,44907 9326,44909 9324,44911 9323,44913 9321,44915 9320,44916 9318,44918 9317,44920 9315,44922 9313,44923 9311,44925 9310,44927 9308,44928 9306,44930 9304,44932 9302,44933 9300,44935 9298,44936 9296,44937 9294,44939 9292,44940 9290,44941 9288,44942 9286,44944 9284,44945 9282,44946 9279,44947 9277,44948 9275,44949 9273,44950 9270,44951 9268,44952 9266,44952 9263,44953 9261,44954 9259,44955 9257,44955 9254,44956 9252,44956 9249,44957 9247,44957 9245,44958 9242,44958 9240,44958 9237,44958 9235,44959 9232,44959 9230,44959 9228,44959 9225,44959 9223,44959 9220,44959 9218,44958 9215,44958 9213,44958 9211,44958 9208,44957 9206,44957 9204,44957 9201,44956 9199,44956 9196,44955 9194,44954 9192,44954 9189,44953 9187,44952 9185,44951 9182,44951 9180,44950 9178,44949 9176,44948 9174,44947 9171,44946 9169,44944 9167,44943 9165,44942 9163,44941 9161,44940 9159,44938 9157,44937 9155,44935 9153,44934 9151,44933 9149,44931 9147,44929 9145,44928 9143,44926 9142,44925 9140,44923 9138,44921 9136,44919 9135,44918 9133,44916 9132,44914 9130,44912 9129,44910 9127,44908 9126,44906 9124,44904 9123,44902 9122,44900 9120,44898 9119,44896 9118,44894 9117,44891 9116,44889 9115,44887 9114,44885 9113,44883 9112,44880 9111,44878 9110,44876 9109,44873 9109,44871 9108,44869 9107,44866 9107,44864 9106,44862 9106,44859 9105,44857 9105,44854 9104,44852 9104,44849 9104,44847 9103,44845 9103,44842 9103,44840 9103,44837 9103,44835 9103,44832 9103,44830 9103,44827 9103,44825 9104,44823 9104,44820 9104,44818 9104,44815 9105,44812 9105,44810 9106,44807 9106,44805 9107,44802 9107,44800 9108,44798 9109,44795 9109,44793 9110,44791 9111,44788 9112,44786 9113,44784 9114,44781 9115,44779 9116,44777 9117,44775 9118,44773 9119,44771 9121,44769 9122,44766 9123,44764 9125,44762 9126,44760 9128,44758 9129,44756 9131,44754 9132,44753 9134,44751 9135,44749 9137,44747 9139,44745 9140,44744 9142,44742 9144,44740 9146,44739 9148,44737 9150,44735 9151,44734 9153,44732 9155,44731 9157,44730 9159,44728 9161,44727 9163,44726 9165,44725 9168,44723 9170,44722 9172,44721 9174,44720 9176,44719 9179,44718 9181,44717 9183,44716 9185,44715 9188,44715 9190,44714 9192,44713 9195,44712 9197,44712 9199,44711 9202,44711 9204,44710 9207,44710 9209,44709 9211,44709 9214,44709 9216,44709 9219,44708 9221,44708 9224,44708 9226,44708 9228,44708 9231,44708 9233,44708 9236,44708 9238,44709 9240,44709 9243,44709 9245,44710 9248,44710 9250,44710 9252,44711 9255,44711 9257,44712 9260,44713 9262,44713 9264,44714 9266,44715 9249,44781 9249,44783 9249,44785 9248,44788 9247,44790 9247,44792 9246,44795 9245,44797 9244,44799 9243,44801 9242,44803 9241,44805 9239,44807 9238,44810 9237,44811 9235,44813 9234,44816 Z M 9623,44720 L 9626,44719 9628,44718 9631,44717 9633,44716 9636,44715 9638,44714 9641,44714 9643,44713 9646,44712 9649,44712 9652,44711 9654,44711 9657,44710 9660,44710 9662,44710 9665,44709 9668,44709 9670,44709 9673,44709 9676,44709 9678,44709 9681,44709 9684,44709 9686,44710 9689,44710 9692,44710 9695,44711 9697,44711 9700,44712 9702,44712 9705,44713 9708,44714 9710,44714 9713,44715 9715,44716 9718,44717 9720,44718 9723,44719 9725,44720 9728,44721 9730,44723 9733,44724 9735,44725 9737,44727 9740,44728 9742,44730 9744,44731 9746,44733 9749,44734 9752,44736 9754,44738 9756,44740 9758,44741 9760,44743 9762,44745 9764,44747 9765,44749 9767,44751 9769,44753 9771,44755 9772,44757 9774,44759 9776,44762 9777,44764 9695,44813 9694,44813 9693,44812 9693,44811 9692,44811 9691,44810 9690,44810 9690,44809 9689,44808 9688,44808 9687,44808 9686,44807 9685,44807 9684,44806 9683,44806 9682,44805 9681,44805 9680,44805 9679,44805 9678,44805 9677,44805 9676,44805 9675,44804 9674,44804 9673,44804 9672,44804 9671,44805 9670,44805 9669,44805 9668,44805 9667,44805 9623,44720 Z M 9783,44774 L 9785,44778 9786,44781 9788,44784 9789,44787 9790,44790 9792,44794 9793,44797 9793,44800 9794,44803 9795,44807 9796,44810 9796,44815 9797,44818 9797,44822 9797,44825 9798,44829 9798,44832 9798,44835 9798,44839 9798,44842 9797,44846 9797,44849 9796,44853 9796,44856 9795,44860 9795,44863 9794,44866 9793,44870 9792,44873 9791,44876 9789,44880 9788,44883 9787,44886 9785,44889 9784,44892 9782,44895 9780,44898 9778,44901 9776,44904 9774,44907 9772,44910 9770,44912 9768,44915 9766,44918 9763,44920 9761,44923 9758,44925 9756,44927 9753,44929 9751,44932 9748,44934 9744,44936 9741,44938 9738,44940 9735,44941 9732,44943 9729,44945 9726,44946 9723,44948 9720,44949 9717,44950 9713,44951 9710,44952 9707,44953 9703,44954 9700,44955 9697,44956 9693,44956 9690,44957 9686,44957 9683,44958 9680,44958 9676,44958 9673,44958 9669,44958 9666,44958 9662,44957 9659,44957 9656,44957 9652,44956 9649,44955 9645,44955 9642,44954 9639,44953 9636,44952 9632,44951 9629,44949 9626,44948 9623,44947 9620,44945 9617,44944 9613,44942 9611,44940 9608,44938 9605,44936 9602,44935 9599,44932 9596,44930 9594,44928 9591,44926 9589,44923 9586,44921 9584,44918 9582,44916 9579,44913 9577,44911 9575,44908 9573,44905 9571,44902 9569,44899 9567,44896 9566,44893 9564,44890 9563,44887 9561,44884 9560,44880 9559,44877 9558,44874 9557,44871 9555,44867 9555,44864 9554,44861 9553,44857 9553,44854 9552,44850 9552,44847 9551,44843 9551,44840 9646,44840 9646,44841 9647,44843 9647,44844 9648,44846 9649,44847 9649,44848 9650,44849 9651,44851 9652,44852 9653,44853 9654,44854 9655,44855 9656,44856 9657,44857 9658,44858 9659,44859 9661,44859 9662,44860 9663,44860 9665,44861 9666,44861 9667,44862 9669,44862 9670,44862 9672,44862 9673,44863 9674,44863 9676,44862 9677,44862 9679,44862 9680,44862 9681,44862 9683,44861 9684,44861 9686,44860 9687,44859 9688,44859 9689,44858 9691,44857 9692,44856 9693,44855 9694,44854 9695,44853 9696,44852 9697,44851 9698,44850 9698,44849 9699,44847 9700,44846 9700,44845 9701,44843 9701,44842 9702,44841 9702,44839 9702,44838 9702,44836 9702,44835 9702,44833 9702,44832 9702,44830 9702,44829 9702,44827 9701,44826 9701,44825 9783,44774 Z M 9797,44752 L 9790,44756 9788,44754 9786,44751 9784,44749 9782,44746 9781,44744 9779,44742 9776,44740 9775,44737 9772,44735 9770,44733 9768,44731 9766,44729 9763,44727 9761,44725 9759,44723 9756,44721 9754,44719 9751,44717 9749,44716 9745,44714 9742,44713 9740,44711 9737,44710 9734,44708 9732,44707 9729,44706 9726,44704 9723,44703 9720,44702 9717,44701 9714,44700 9712,44700 9709,44699 9706,44698 9703,44697 9700,44697 9697,44696 9694,44696 9691,44695 9688,44695 9685,44695 9682,44694 9679,44694 9676,44694 9673,44694 9669,44694 9666,44694 9663,44695 9660,44695 9657,44695 9654,44696 9651,44696 9648,44697 9645,44697 9642,44698 9639,44699 9637,44699 9633,44700 9631,44701 9628,44702 9625,44703 9622,44704 9619,44706 9617,44707 9613,44699 9615,44698 9618,44697 9621,44695 9625,44694 9628,44693 9631,44692 9634,44691 9637,44690 9640,44690 9643,44689 9646,44688 9650,44688 9653,44687 9656,44687 9659,44686 9663,44686 9666,44686 9669,44686 9672,44686 9676,44686 9679,44686 9682,44686 9685,44686 9688,44686 9692,44687 9695,44687 9698,44688 9701,44688 9704,44689 9708,44690 9711,44690 9714,44691 9717,44692 9720,44693 9723,44694 9726,44695 9729,44697 9732,44698 9735,44699 9738,44701 9741,44702 9744,44704 9748,44705 9751,44707 9753,44709 9756,44710 9759,44712 9761,44714 9764,44716 9766,44718 9769,44720 9771,44722 9774,44725 9776,44727 9779,44729 9781,44731 9783,44734 9785,44736 9787,44739 9789,44741 9791,44744 9793,44746 9795,44749 9797,44752 Z M 9373,44835 L 9373,44837 9373,44840 9373,44842 9373,44845 9372,44847 9372,44850 9372,44852 9372,44855 9377,44855 9377,44852 9377,44849 9378,44846 9378,44843 9378,44840 9378,44836 9378,44833 9378,44830 9378,44827 9378,44824 9378,44821 9377,44818 9377,44813 9377,44810 9376,44807 9375,44804 9375,44801 9374,44798 9373,44795 9373,44792 9372,44789 9371,44786 9370,44783 9369,44780 9368,44777 9367,44774 9365,44771 9364,44769 9363,44766 9361,44763 9360,44760 9358,44757 9357,44755 9355,44752 9353,44749 9352,44747 9350,44744 9348,44741 9346,44739 9344,44737 9342,44734 9340,44732 9338,44729 9336,44727 9334,44725 9331,44723 9329,44721 9327,44719 9324,44716 9322,44714 9320,44712 9317,44711 9315,44709 9312,44707 9309,44705 9307,44703 9304,44702 9302,44700 9299,44699 9296,44697 9293,44696 9291,44695 9288,44693 9285,44692 9290,44670 9442,44810 9441,44811 9441,44812 9440,44813 9439,44815 9439,44817 9438,44818 9438,44819 9437,44820 9437,44821 9437,44823 9436,44824 9436,44825 9436,44827 9435,44828 9435,44829 9435,44831 9435,44832 9435,44833 9435,44835 9435,44836 9435,44837 9435,44838 9435,44840 9435,44841 9436,44842 9436,44844 9436,44845 9437,44846 9437,44848 9438,44849 9438,44850 9439,44851 9439,44852 9440,44854 9440,44855 9441,44856 9442,44857 9443,44858 9443,44859 9444,44860 9445,44861 9446,44862 9447,44863 9448,44864 9449,44865 9450,44866 9451,44867 9452,44867 9453,44868 9454,44869 9455,44870 9456,44870 9457,44871 9458,44872 9460,44872 9461,44873 9462,44873 9463,44873 9465,44874 9466,44874 9467,44875 9468,44875 9470,44875 9471,44875 9471,44913 9460,44913 9460,44925 9493,44925 9493,44913 9481,44913 9481,44875 9483,44875 9485,44875 9486,44874 9488,44874 9490,44873 9491,44873 9493,44872 9494,44871 9496,44871 9497,44870 9499,44869 9500,44868 9501,44867 9503,44866 9504,44865 9505,44864 9506,44862 9507,44861 9508,44860 9510,44859 9510,44857 9511,44856 9512,44854 9513,44853 9514,44851 9514,44850 9515,44848 9516,44847 9516,44845 9516,44843 9517,44842 9517,44840 9523,44840 9523,44843 9523,44845 9523,44848 9524,44851 9524,44853 9524,44856 9524,44858 9525,44861 9530,44860 9530,44858 9529,44855 9529,44853 9529,44850 9528,44848 9528,44845 9528,44843 9528,44840 9536,44840 9537,44844 9537,44848 9537,44852 9538,44856 9539,44859 9539,44863 9540,44867 9541,44871 9542,44875 9544,44878 9545,44882 9546,44885 9548,44889 9549,44893 9551,44896 9553,44900 9555,44903 9557,44906 9559,44910 9561,44913 9563,44916 9565,44919 9568,44922 9570,44925 9573,44928 9576,44931 9578,44934 9581,44936 9584,44939 9587,44941 9590,44944 9593,44946 9596,44948 9599,44951 9603,44953 9606,44955 9609,44957 9613,44958 9616,44960 9620,44962 9623,44963 9627,44964 9631,44966 9634,44967 9638,44968 9642,44969 9646,44970 9650,44971 9653,44971 9657,44972 9661,44972 9665,44972 9669,44973 9673,44973 9676,44973 9680,44973 9684,44972 9688,44972 9692,44971 9696,44971 9699,44970 9703,44969 9707,44969 9711,44968 9714,44967 9718,44965 9722,44964 9725,44963 9729,44961 9732,44960 9736,44958 9739,44956 9743,44954 9746,44952 9750,44950 9753,44948 9757,44946 9760,44943 9763,44941 9766,44938 9769,44936 9771,44933 9774,44930 9777,44927 9779,44924 9782,44921 9784,44918 9786,44915 9789,44912 9791,44909 9793,44906 9795,44902 9797,44899 9798,44895 9800,44892 9802,44888 9803,44885 9804,44881 9806,44877 9807,44873 9808,44870 9809,44866 9810,44862 9810,44858 9811,44855 9811,44851 9812,44847 9812,44843 9812,44839 9813,44835 9813,44831 9812,44827 9812,44823 9812,44820 9811,44816 9811,44811 9810,44807 9809,44803 9808,44799 9807,44796 9806,44792 9805,44788 9804,44784 9802,44781 9801,44777 9799,44774 9798,44770 9796,44767 9803,44762 9805,44765 9806,44767 9807,44770 9808,44772 9813,44770 9811,44766 9809,44763 9808,44760 9806,44756 9804,44753 9802,44750 9800,44747 9798,44744 9796,44741 9793,44738 9791,44735 9788,44732 9786,44729 9783,44726 9781,44724 9778,44721 9775,44719 9772,44716 9770,44714 9767,44712 9764,44709 9761,44707 9757,44705 9754,44703 9751,44701 9748,44699 9744,44697 9740,44696 9737,44694 9733,44693 9730,44691 9726,44690 9723,44689 9719,44687 9716,44686 9712,44685 9709,44684 9705,44684 9701,44683 9698,44682 9694,44682 9690,44681 9686,44681 9683,44681 9679,44680 9675,44680 9672,44680 9668,44681 9664,44681 9660,44681 9657,44681 9653,44682 9649,44682 9646,44683 9642,44684 9638,44685 9635,44686 9631,44687 9628,44688 9624,44689 9620,44690 9617,44692 9614,44693 9610,44695 9578,44631 9585,44616 9586,44615 9587,44614 9588,44613 9589,44613 9590,44613 9591,44612 9592,44612 9593,44612 9594,44612 9594,44611 9595,44610 9596,44610 9597,44609 9598,44608 9598,44607 9599,44606 9599,44605 9599,44604 9599,44603 9599,44602 9598,44601 9598,44600 9597,44600 9597,44599 9596,44598 9595,44598 9595,44597 9594,44597 9593,44597 9592,44597 9588,44596 9584,44596 9580,44595 9576,44595 9572,44595 9568,44595 9564,44594 9560,44595 9556,44595 9552,44595 9548,44595 9544,44595 9540,44596 9536,44596 9532,44597 9528,44597 9528,44598 9527,44598 9526,44598 9526,44599 9525,44599 9525,44600 9524,44600 9524,44601 9524,44602 9524,44603 9523,44603 9523,44604 9523,44605 9524,44606 9524,44607 9524,44608 9525,44608 9525,44609 9526,44609 9526,44610 9527,44610 9528,44610 9529,44611 9564,44612 9565,44612 9566,44612 9567,44613 9568,44613 9568,44614 9569,44614 9569,44615 9570,44615 9570,44616 9570,44617 9570,44618 9570,44619 9570,44620 9565,44630 9301,44630 9308,44601 9310,44602 9312,44602 9314,44602 9316,44602 9318,44602 9320,44601 9322,44601 9324,44601 9326,44601 9328,44601 9330,44600 9332,44600 9334,44599 9336,44599 9337,44599 9339,44598 9341,44598 9342,44598 9343,44597 9344,44597 9346,44597 9347,44597 9348,44597 9350,44597 9351,44597 9352,44597 9353,44597 9355,44597 9356,44597 9357,44598 9359,44598 9360,44598 9361,44598 9362,44597 9363,44597 9363,44596 9364,44596 9364,44595 9365,44595 9365,44594 9365,44593 9366,44593 9366,44592 9366,44591 9366,44590 9366,44589 9365,44589 9365,44588 9365,44587 9364,44587 9364,44586 9363,44586 9363,44585 9362,44585 9361,44585 9360,44584 9359,44584 9358,44584 9356,44584 9355,44583 9354,44583 9353,44583 9352,44583 9351,44583 9350,44583 9348,44583 9347,44583 9346,44583 9345,44584 9342,44584 9339,44585 9337,44585 9334,44585 9331,44586 9328,44586 9325,44586 9322,44586 9320,44587 9317,44587 9314,44587 9311,44587 9308,44587 9305,44586 9303,44586 9300,44586 9273,44688 9271,44687 9268,44686 9266,44685 9263,44685 9260,44684 9258,44684 9255,44683 9252,44682 9249,44682 9247,44682 9244,44681 9241,44681 9238,44681 9236,44681 9233,44681 9230,44680 9228,44680 9225,44680 9222,44680 9219,44681 9217,44681 9214,44681 9211,44681 9208,44681 9206,44682 9203,44682 9200,44683 9197,44683 9195,44684 9192,44684 9189,44685 9187,44686 9188,44691 9191,44690 9193,44690 9196,44689 9199,44688 9201,44688 9204,44687 9206,44687 9209,44687 9212,44686 9214,44686 9217,44686 9220,44686 9222,44686 9225,44686 9228,44686 9230,44686 9233,44686 9236,44686 9238,44686 9241,44686 9244,44687 9246,44687 9249,44687 9251,44688 9254,44688 9257,44689 9259,44689 9262,44690 9265,44691 9267,44691 9270,44692 9272,44693 9270,44701 9267,44700 9265,44700 9262,44699 9260,44698 9257,44698 9254,44697 9252,44697 9249,44696 9246,44696 9244,44695 9241,44695 9238,44695 9236,44695 9233,44694 9230,44694 9228,44694 9225,44694 9222,44694 9219,44694 9217,44695 9214,44695 9211,44695 9209,44696 9206,44696 9203,44696 9201,44697 9198,44697 9195,44698 9193,44699 9190,44699 9188,44700 9185,44701 9182,44702 9180,44703 9177,44704 9175,44704 9172,44706 9170,44707 9167,44708 9165,44709 9163,44710 9160,44712 9158,44713 9156,44714 9153,44716 9151,44717 9149,44719 9147,44720 9144,44722 9142,44724 9140,44725 9138,44727 9136,44729 9134,44731 9132,44732 9130,44734 9128,44736 9126,44738 9124,44740 9123,44742 9121,44744 9119,44746 9118,44749 9116,44751 9115,44753 9113,44755 9111,44757 9110,44760 9109,44762 9107,44765 9106,44767 9105,44769 9103,44772 9102,44774 9101,44777 9100,44779 9099,44782 9098,44784 9097,44787 9096,44789 9095,44792 9095,44795 9094,44797 9093,44800 9093,44802 9092,44805 9092,44808 9091,44810 9091,44813 9090,44817 9090,44820 9090,44822 9089,44825 9089,44828 9089,44830 9089,44833 9089,44836 9089,44838 9089,44841 9090,44844 9090,44847 9090,44849 9090,44852 9091,44855 9091,44857 9092,44860 9092,44863 9093,44865 9093,44868 9094,44871 9095,44873 9096,44876 9097,44879 9097,44881 9098,44884 9099,44886 9100,44889 9101,44891 9103,44894 9104,44896 9105,44898 9106,44901 9108,44903 9109,44906 9110,44908 9112,44910 9113,44913 9115,44915 9117,44917 9118,44919 9120,44921 9122,44923 9123,44925 9125,44927 9127,44929 9129,44931 9131,44933 9133,44935 9135,44937 9137,44939 9139,44941 9141,44942 9143,44944 9145,44946 9147,44947 9150,44949 9152,44950 9154,44952 9156,44953 9159,44955 9161,44956 9164,44957 9166,44958 9168,44960 9171,44961 9173,44962 9176,44963 9178,44964 9181,44965 9183,44966 9186,44966 9189,44967 9191,44968 9194,44969 9196,44969 9199,44970 9202,44970 9204,44971 9207,44971 9210,44972 9212,44972 9215,44972 9218,44972 9220,44973 9223,44973 9226,44973 9228,44973 9231,44973 9234,44973 9237,44972 9239,44972 9242,44972 9245,44971 9247,44971 9250,44971 9253,44970 9255,44970 9258,44969 9261,44968 9263,44968 9266,44967 9268,44966 9271,44965 9273,44964 9276,44964 9278,44963 9281,44962 9283,44960 9286,44959 9288,44958 9291,44957 9293,44956 9295,44954 9298,44953 9300,44951 9302,44950 9305,44948 9307,44947 9309,44945 9311,44944 9313,44942 9315,44940 9317,44939 9319,44937 9321,44935 9323,44933 9325,44931 9327,44929 9329,44927 9331,44925 9332,44923 9334,44921 9336,44919 9337,44917 9339,44914 9341,44912 9342,44910 9344,44907 9345,44905 9346,44903 9348,44900 9349,44898 9350,44896 9351,44893 9352,44891 9354,44888 9355,44886 9356,44883 9356,44880 9357,44878 9358,44875 9359,44873 9360,44870 9360,44867 9361,44865 9362,44862 9362,44860 9362,44857 9363,44854 9363,44851 9364,44849 9364,44846 9364,44843 9364,44841 9364,44838 9364,44835 9373,44835 Z"/>
    <path fill="none" stroke="rgb(0,0,0)" d="M 9612,44726 L 9609,44728 9606,44730 9603,44732 9600,44734 9597,44737 9594,44739 9591,44742 9588,44744 9585,44747 9583,44750 9580,44753 9578,44756 9576,44759 9573,44762 9571,44765 9569,44768 9567,44772 9565,44775 9563,44779 9562,44782 9560,44786 9559,44789 9558,44793 9556,44797 9555,44800 9554,44804 9554,44808 9553,44812 9552,44816 9552,44820 9551,44824 9551,44828 9646,44828 9646,44827 9647,44826 9647,44824 9648,44823 9648,44822 9649,44821 9649,44820 9650,44819 9650,44818 9651,44817 9652,44816 9653,44815 9653,44813 9654,44812 9655,44812 9656,44811 9612,44726 Z"/>
    <path fill="none" stroke="rgb(0,0,0)" d="M 9599,44700 L 9597,44701 9595,44703 9593,44704 9591,44705 9589,44706 9587,44708 9585,44709 9583,44711 9581,44712 9580,44714 9578,44715 9576,44717 9574,44718 9572,44720 9571,44722 9569,44723 9567,44725 9565,44727 9564,44728 9562,44730 9560,44732 9559,44734 9557,44736 9556,44738 9554,44740 9553,44741 9551,44743 9550,44745 9549,44747 9547,44749 9546,44751 9545,44754 9544,44756 9542,44758 9541,44760 9540,44762 9539,44764 9538,44766 9537,44768 9536,44771 9535,44773 9534,44775 9533,44777 9532,44780 9531,44782 9531,44784 9530,44786 9529,44789 9528,44791 9528,44793 9527,44796 9527,44798 9526,44801 9525,44803 9525,44805 9525,44808 9524,44810 9524,44812 9524,44816 9523,44818 9523,44821 9523,44823 9523,44826 9523,44828 9517,44828 9517,44826 9516,44824 9516,44822 9515,44820 9514,44818 9513,44816 9512,44813 9511,44811 9510,44809 9509,44807 9507,44806 9506,44804 9504,44802 9503,44801 9501,44800 9499,44798 9571,44645 9599,44700 Z"/>
    <path fill="none" stroke="rgb(0,0,0)" d="M 9606,44712 L 9604,44714 9602,44715 9600,44716 9598,44717 9597,44718 9595,44720 9593,44721 9591,44722 9590,44723 9588,44725 9586,44726 9585,44728 9583,44729 9581,44730 9580,44732 9578,44733 9577,44735 9575,44737 9574,44738 9572,44740 9571,44741 9569,44743 9568,44745 9566,44746 9565,44748 9564,44750 9563,44752 9561,44753 9560,44755 9559,44757 9558,44759 9557,44761 9555,44763 9554,44765 9553,44766 9552,44768 9551,44770 9550,44772 9549,44774 9548,44776 9548,44778 9547,44780 9546,44782 9545,44784 9544,44786 9544,44788 9543,44790 9542,44792 9542,44795 9541,44797 9541,44799 9540,44801 9540,44803 9539,44805 9539,44807 9538,44810 9538,44812 9538,44815 9537,44817 9537,44819 9537,44821 9537,44824 9537,44826 9536,44828 9528,44828 9528,44826 9528,44823 9528,44821 9529,44819 9529,44816 9529,44813 9529,44811 9530,44808 9530,44806 9531,44804 9531,44801 9532,44799 9532,44797 9533,44795 9533,44792 9534,44790 9535,44788 9535,44786 9536,44783 9537,44781 9538,44779 9539,44777 9540,44775 9541,44773 9542,44771 9543,44769 9544,44766 9545,44764 9546,44762 9547,44760 9548,44758 9549,44756 9550,44754 9552,44752 9553,44750 9554,44748 9556,44746 9557,44745 9558,44743 9560,44741 9561,44739 9563,44737 9564,44735 9566,44734 9567,44732 9569,44730 9571,44729 9572,44727 9574,44725 9576,44724 9577,44722 9579,44721 9581,44719 9583,44718 9585,44716 9586,44715 9588,44714 9590,44712 9592,44711 9594,44710 9596,44708 9598,44707 9600,44706 9602,44705 9606,44712 Z"/>
    <path fill="none" stroke="rgb(0,0,0)" d="M 9460,44742 L 9493,44742 9493,44754 9481,44754 9481,44792 9483,44792 9485,44792 9487,44793 9488,44793 9559,44642 9298,44642 9294,44657 9450,44801 9451,44800 9452,44799 9453,44798 9455,44797 9456,44797 9457,44796 9459,44795 9460,44795 9461,44794 9463,44794 9464,44793 9465,44793 9467,44792 9468,44792 9470,44792 9471,44792 9471,44754 9460,44754 9460,44742 Z"/>
    <path fill="none" stroke="rgb(0,0,0)" d="M 9243,44824 L 9243,44825 9244,44826 9245,44827 9350,44824 9350,44822 9350,44819 9350,44817 9349,44815 9349,44812 9349,44810 9348,44808 9348,44806 9347,44804 9347,44802 9346,44800 9346,44798 9345,44796 9344,44794 9344,44792 9343,44790 9343,44788 9342,44786 9341,44784 9340,44783 9339,44781 9338,44779 9337,44777 9337,44775 9336,44773 9335,44771 9334,44770 9332,44768 9331,44766 9330,44764 9329,44763 9328,44761 9327,44759 9326,44757 9324,44756 9323,44754 9322,44753 9320,44751 9319,44750 9318,44748 9316,44746 9315,44745 9313,44744 9312,44742 9310,44741 9309,44739 9307,44738 9306,44737 9304,44735 9302,44734 9301,44733 9299,44732 9297,44730 9296,44729 9294,44728 9292,44727 9291,44726 9289,44725 9287,44724 9285,44723 9283,44722 9281,44721 9280,44720 9278,44719 9261,44783 9261,44786 9260,44788 9260,44791 9259,44794 9258,44797 9257,44799 9256,44802 9255,44804 9254,44807 9252,44809 9251,44812 9250,44815 9248,44817 9246,44820 9245,44822 9243,44824 Z"/>
    <path fill="none" stroke="rgb(0,0,0)" d="M 9373,44823 L 9364,44823 9364,44821 9363,44818 9363,44816 9363,44813 9363,44810 9362,44808 9362,44806 9361,44803 9361,44801 9360,44799 9360,44797 9359,44794 9358,44792 9358,44790 9357,44788 9356,44785 9355,44783 9355,44781 9354,44779 9353,44777 9352,44775 9351,44772 9350,44770 9349,44768 9347,44766 9346,44764 9345,44762 9344,44760 9343,44758 9341,44756 9340,44754 9339,44752 9337,44750 9336,44748 9334,44747 9333,44745 9331,44743 9330,44741 9328,44740 9327,44738 9325,44736 9324,44734 9322,44733 9320,44731 9318,44730 9317,44728 9315,44726 9313,44725 9311,44723 9309,44722 9307,44721 9306,44719 9304,44718 9302,44717 9300,44715 9298,44714 9296,44713 9294,44712 9292,44711 9290,44710 9288,44708 9286,44708 9283,44706 9281,44706 9283,44697 9286,44698 9288,44699 9290,44700 9293,44701 9295,44703 9297,44704 9299,44705 9301,44706 9303,44707 9306,44709 9308,44710 9310,44712 9312,44713 9314,44715 9316,44716 9318,44718 9320,44719 9322,44721 9324,44723 9325,44724 9327,44726 9329,44728 9331,44729 9333,44731 9334,44733 9336,44735 9338,44737 9339,44739 9341,44741 9342,44743 9344,44745 9345,44747 9347,44749 9348,44751 9350,44753 9351,44755 9352,44757 9354,44759 9355,44762 9356,44764 9357,44766 9358,44769 9359,44771 9360,44773 9361,44775 9362,44778 9363,44780 9364,44782 9365,44785 9366,44787 9367,44790 9367,44792 9368,44794 9369,44797 9369,44799 9370,44802 9370,44804 9371,44807 9371,44809 9371,44812 9372,44815 9372,44818 9372,44820 9373,44823 Z"/>
    <path fill="none" stroke="rgb(0,0,0)" d="M 9234,44816 L 9232,44816 9231,44815 9230,44815 9228,44815 9227,44815 9225,44815 9224,44815 9223,44815 9221,44816 9220,44816 9219,44817 9217,44817 9216,44818 9215,44819 9214,44820 9213,44821 9212,44822 9211,44823 9210,44824 9210,44826 9209,44827 9209,44828 9208,44830 9208,44831 9208,44833 9208,44834 9208,44835 9208,44837 9208,44838 9209,44840 9209,44841 9210,44842 9210,44843 9211,44845 9212,44846 9213,44847 9214,44848 9215,44849 9216,44850 9217,44851 9219,44851 9220,44852 9221,44852 9223,44853 9224,44853 9225,44853 9227,44853 9228,44853 9230,44853 9231,44853 9233,44852 9234,44852 9235,44851 9236,44850 9238,44850 9239,44849 9240,44848 9241,44847 9242,44846 9243,44845 9243,44843 9244,44842 9245,44841 9245,44839 9351,44836 9350,44838 9350,44841 9350,44843 9350,44846 9350,44848 9350,44850 9349,44853 9349,44855 9348,44858 9348,44860 9347,44862 9347,44865 9346,44867 9346,44869 9345,44872 9344,44874 9343,44877 9342,44879 9342,44881 9341,44883 9340,44885 9338,44888 9337,44890 9336,44892 9335,44894 9334,44896 9333,44898 9332,44901 9330,44903 9329,44905 9328,44907 9326,44909 9324,44911 9323,44913 9321,44915 9320,44916 9318,44918 9317,44920 9315,44922 9313,44923 9311,44925 9310,44927 9308,44928 9306,44930 9304,44932 9302,44933 9300,44935 9298,44936 9296,44937 9294,44939 9292,44940 9290,44941 9288,44942 9286,44944 9284,44945 9282,44946 9279,44947 9277,44948 9275,44949 9273,44950 9270,44951 9268,44952 9266,44952 9263,44953 9261,44954 9259,44955 9257,44955 9254,44956 9252,44956 9249,44957 9247,44957 9245,44958 9242,44958 9240,44958 9237,44958 9235,44959 9232,44959 9230,44959 9228,44959 9225,44959 9223,44959 9220,44959 9218,44958 9215,44958 9213,44958 9211,44958 9208,44957 9206,44957 9204,44957 9201,44956 9199,44956 9196,44955 9194,44954 9192,44954 9189,44953 9187,44952 9185,44951 9182,44951 9180,44950 9178,44949 9176,44948 9174,44947 9171,44946 9169,44944 9167,44943 9165,44942 9163,44941 9161,44940 9159,44938 9157,44937 9155,44935 9153,44934 9151,44933 9149,44931 9147,44929 9145,44928 9143,44926 9142,44925 9140,44923 9138,44921 9136,44919 9135,44918 9133,44916 9132,44914 9130,44912 9129,44910 9127,44908 9126,44906 9124,44904 9123,44902 9122,44900 9120,44898 9119,44896 9118,44894 9117,44891 9116,44889 9115,44887 9114,44885 9113,44883 9112,44880 9111,44878 9110,44876 9109,44873 9109,44871 9108,44869 9107,44866 9107,44864 9106,44862 9106,44859 9105,44857 9105,44854 9104,44852 9104,44849 9104,44847 9103,44845 9103,44842 9103,44840 9103,44837 9103,44835 9103,44832 9103,44830 9103,44827 9103,44825 9104,44823 9104,44820 9104,44818 9104,44815 9105,44812 9105,44810 9106,44807 9106,44805 9107,44802 9107,44800 9108,44798 9109,44795 9109,44793 9110,44791 9111,44788 9112,44786 9113,44784 9114,44781 9115,44779 9116,44777 9117,44775 9118,44773 9119,44771 9121,44769 9122,44766 9123,44764 9125,44762 9126,44760 9128,44758 9129,44756 9131,44754 9132,44753 9134,44751 9135,44749 9137,44747 9139,44745 9140,44744 9142,44742 9144,44740 9146,44739 9148,44737 9150,44735 9151,44734 9153,44732 9155,44731 9157,44730 9159,44728 9161,44727 9163,44726 9165,44725 9168,44723 9170,44722 9172,44721 9174,44720 9176,44719 9179,44718 9181,44717 9183,44716 9185,44715 9188,44715 9190,44714 9192,44713 9195,44712 9197,44712 9199,44711 9202,44711 9204,44710 9207,44710 9209,44709 9211,44709 9214,44709 9216,44709 9219,44708 9221,44708 9224,44708 9226,44708 9228,44708 9231,44708 9233,44708 9236,44708 9238,44709 9240,44709 9243,44709 9245,44710 9248,44710 9250,44710 9252,44711 9255,44711 9257,44712 9260,44713 9262,44713 9264,44714 9266,44715 9249,44781 9249,44783 9249,44785 9248,44788 9247,44790 9247,44792 9246,44795 9245,44797 9244,44799 9243,44801 9242,44803 9241,44805 9239,44807 9238,44810 9237,44811 9235,44813 9234,44816 Z"/>
    <path fill="none" stroke="rgb(0,0,0)" d="M 9623,44720 L 9626,44719 9628,44718 9631,44717 9633,44716 9636,44715 9638,44714 9641,44714 9643,44713 9646,44712 9649,44712 9652,44711 9654,44711 9657,44710 9660,44710 9662,44710 9665,44709 9668,44709 9670,44709 9673,44709 9676,44709 9678,44709 9681,44709 9684,44709 9686,44710 9689,44710 9692,44710 9695,44711 9697,44711 9700,44712 9702,44712 9705,44713 9708,44714 9710,44714 9713,44715 9715,44716 9718,44717 9720,44718 9723,44719 9725,44720 9728,44721 9730,44723 9733,44724 9735,44725 9737,44727 9740,44728 9742,44730 9744,44731 9746,44733 9749,44734 9752,44736 9754,44738 9756,44740 9758,44741 9760,44743 9762,44745 9764,44747 9765,44749 9767,44751 9769,44753 9771,44755 9772,44757 9774,44759 9776,44762 9777,44764 9695,44813 9694,44813 9693,44812 9693,44811 9692,44811 9691,44810 9690,44810 9690,44809 9689,44808 9688,44808 9687,44808 9686,44807 9685,44807 9684,44806 9683,44806 9682,44805 9681,44805 9680,44805 9679,44805 9678,44805 9677,44805 9676,44805 9675,44804 9674,44804 9673,44804 9672,44804 9671,44805 9670,44805 9669,44805 9668,44805 9667,44805 9623,44720 Z"/>
    <path fill="none" stroke="rgb(0,0,0)" d="M 9783,44774 L 9785,44778 9786,44781 9788,44784 9789,44787 9790,44790 9792,44794 9793,44797 9793,44800 9794,44803 9795,44807 9796,44810 9796,44815 9797,44818 9797,44822 9797,44825 9798,44829 9798,44832 9798,44835 9798,44839 9798,44842 9797,44846 9797,44849 9796,44853 9796,44856 9795,44860 9795,44863 9794,44866 9793,44870 9792,44873 9791,44876 9789,44880 9788,44883 9787,44886 9785,44889 9784,44892 9782,44895 9780,44898 9778,44901 9776,44904 9774,44907 9772,44910 9770,44912 9768,44915 9766,44918 9763,44920 9761,44923 9758,44925 9756,44927 9753,44929 9751,44932 9748,44934 9744,44936 9741,44938 9738,44940 9735,44941 9732,44943 9729,44945 9726,44946 9723,44948 9720,44949 9717,44950 9713,44951 9710,44952 9707,44953 9703,44954 9700,44955 9697,44956 9693,44956 9690,44957 9686,44957 9683,44958 9680,44958 9676,44958 9673,44958 9669,44958 9666,44958 9662,44957 9659,44957 9656,44957 9652,44956 9649,44955 9645,44955 9642,44954 9639,44953 9636,44952 9632,44951 9629,44949 9626,44948 9623,44947 9620,44945 9617,44944 9613,44942 9611,44940 9608,44938 9605,44936 9602,44935 9599,44932 9596,44930 9594,44928 9591,44926 9589,44923 9586,44921 9584,44918 9582,44916 9579,44913 9577,44911 9575,44908 9573,44905 9571,44902 9569,44899 9567,44896 9566,44893 9564,44890 9563,44887 9561,44884 9560,44880 9559,44877 9558,44874 9557,44871 9555,44867 9555,44864 9554,44861 9553,44857 9553,44854 9552,44850 9552,44847 9551,44843 9551,44840 9646,44840 9646,44841 9647,44843 9647,44844 9648,44846 9649,44847 9649,44848 9650,44849 9651,44851 9652,44852 9653,44853 9654,44854 9655,44855 9656,44856 9657,44857 9658,44858 9659,44859 9661,44859 9662,44860 9663,44860 9665,44861 9666,44861 9667,44862 9669,44862 9670,44862 9672,44862 9673,44863 9674,44863 9676,44862 9677,44862 9679,44862 9680,44862 9681,44862 9683,44861 9684,44861 9686,44860 9687,44859 9688,44859 9689,44858 9691,44857 9692,44856 9693,44855 9694,44854 9695,44853 9696,44852 9697,44851 9698,44850 9698,44849 9699,44847 9700,44846 9700,44845 9701,44843 9701,44842 9702,44841 9702,44839 9702,44838 9702,44836 9702,44835 9702,44833 9702,44832 9702,44830 9702,44829 9702,44827 9701,44826 9701,44825 9783,44774 Z"/>
    <path fill="none" stroke="rgb(0,0,0)" d="M 9797,44752 L 9790,44756 9788,44754 9786,44751 9784,44749 9782,44746 9781,44744 9779,44742 9776,44740 9775,44737 9772,44735 9770,44733 9768,44731 9766,44729 9763,44727 9761,44725 9759,44723 9756,44721 9754,44719 9751,44717 9749,44716 9745,44714 9742,44713 9740,44711 9737,44710 9734,44708 9732,44707 9729,44706 9726,44704 9723,44703 9720,44702 9717,44701 9714,44700 9712,44700 9709,44699 9706,44698 9703,44697 9700,44697 9697,44696 9694,44696 9691,44695 9688,44695 9685,44695 9682,44694 9679,44694 9676,44694 9673,44694 9669,44694 9666,44694 9663,44695 9660,44695 9657,44695 9654,44696 9651,44696 9648,44697 9645,44697 9642,44698 9639,44699 9637,44699 9633,44700 9631,44701 9628,44702 9625,44703 9622,44704 9619,44706 9617,44707 9613,44699 9615,44698 9618,44697 9621,44695 9625,44694 9628,44693 9631,44692 9634,44691 9637,44690 9640,44690 9643,44689 9646,44688 9650,44688 9653,44687 9656,44687 9659,44686 9663,44686 9666,44686 9669,44686 9672,44686 9676,44686 9679,44686 9682,44686 9685,44686 9688,44686 9692,44687 9695,44687 9698,44688 9701,44688 9704,44689 9708,44690 9711,44690 9714,44691 9717,44692 9720,44693 9723,44694 9726,44695 9729,44697 9732,44698 9735,44699 9738,44701 9741,44702 9744,44704 9748,44705 9751,44707 9753,44709 9756,44710 9759,44712 9761,44714 9764,44716 9766,44718 9769,44720 9771,44722 9774,44725 9776,44727 9779,44729 9781,44731 9783,44734 9785,44736 9787,44739 9789,44741 9791,44744 9793,44746 9795,44749 9797,44752 Z"/>
    <path fill="none" stroke="rgb(0,0,0)" d="M 9373,44835 L 9373,44837 9373,44840 9373,44842 9373,44845 9372,44847 9372,44850 9372,44852 9372,44855 9377,44855 9377,44852 9377,44849 9378,44846 9378,44843 9378,44840 9378,44836 9378,44833 9378,44830 9378,44827 9378,44824 9378,44821 9377,44818 9377,44813 9377,44810 9376,44807 9375,44804 9375,44801 9374,44798 9373,44795 9373,44792 9372,44789 9371,44786 9370,44783 9369,44780 9368,44777 9367,44774 9365,44771 9364,44769 9363,44766 9361,44763 9360,44760 9358,44757 9357,44755 9355,44752 9353,44749 9352,44747 9350,44744 9348,44741 9346,44739 9344,44737 9342,44734 9340,44732 9338,44729 9336,44727 9334,44725 9331,44723 9329,44721 9327,44719 9324,44716 9322,44714 9320,44712 9317,44711 9315,44709 9312,44707 9309,44705 9307,44703 9304,44702 9302,44700 9299,44699 9296,44697 9293,44696 9291,44695 9288,44693 9285,44692 9290,44670 9442,44810 9441,44811 9441,44812 9440,44813 9439,44815 9439,44817 9438,44818 9438,44819 9437,44820 9437,44821 9437,44823 9436,44824 9436,44825 9436,44827 9435,44828 9435,44829 9435,44831 9435,44832 9435,44833 9435,44835 9435,44836 9435,44837 9435,44838 9435,44840 9435,44841 9436,44842 9436,44844 9436,44845 9437,44846 9437,44848 9438,44849 9438,44850 9439,44851 9439,44852 9440,44854 9440,44855 9441,44856 9442,44857 9443,44858 9443,44859 9444,44860 9445,44861 9446,44862 9447,44863 9448,44864 9449,44865 9450,44866 9451,44867 9452,44867 9453,44868 9454,44869 9455,44870 9456,44870 9457,44871 9458,44872 9460,44872 9461,44873 9462,44873 9463,44873 9465,44874 9466,44874 9467,44875 9468,44875 9470,44875 9471,44875 9471,44913 9460,44913 9460,44925 9493,44925 9493,44913 9481,44913 9481,44875 9483,44875 9485,44875 9486,44874 9488,44874 9490,44873 9491,44873 9493,44872 9494,44871 9496,44871 9497,44870 9499,44869 9500,44868 9501,44867 9503,44866 9504,44865 9505,44864 9506,44862 9507,44861 9508,44860 9510,44859 9510,44857 9511,44856 9512,44854 9513,44853 9514,44851 9514,44850 9515,44848 9516,44847 9516,44845 9516,44843 9517,44842 9517,44840 9523,44840 9523,44843 9523,44845 9523,44848 9524,44851 9524,44853 9524,44856 9524,44858 9525,44861 9530,44860 9530,44858 9529,44855 9529,44853 9529,44850 9528,44848 9528,44845 9528,44843 9528,44840 9536,44840 9537,44844 9537,44848 9537,44852 9538,44856 9539,44859 9539,44863 9540,44867 9541,44871 9542,44875 9544,44878 9545,44882 9546,44885 9548,44889 9549,44893 9551,44896 9553,44900 9555,44903 9557,44906 9559,44910 9561,44913 9563,44916 9565,44919 9568,44922 9570,44925 9573,44928 9576,44931 9578,44934 9581,44936 9584,44939 9587,44941 9590,44944 9593,44946 9596,44948 9599,44951 9603,44953 9606,44955 9609,44957 9613,44958 9616,44960 9620,44962 9623,44963 9627,44964 9631,44966 9634,44967 9638,44968 9642,44969 9646,44970 9650,44971 9653,44971 9657,44972 9661,44972 9665,44972 9669,44973 9673,44973 9676,44973 9680,44973 9684,44972 9688,44972 9692,44971 9696,44971 9699,44970 9703,44969 9707,44969 9711,44968 9714,44967 9718,44965 9722,44964 9725,44963 9729,44961 9732,44960 9736,44958 9739,44956 9743,44954 9746,44952 9750,44950 9753,44948 9757,44946 9760,44943 9763,44941 9766,44938 9769,44936 9771,44933 9774,44930 9777,44927 9779,44924 9782,44921 9784,44918 9786,44915 9789,44912 9791,44909 9793,44906 9795,44902 9797,44899 9798,44895 9800,44892 9802,44888 9803,44885 9804,44881 9806,44877 9807,44873 9808,44870 9809,44866 9810,44862 9810,44858 9811,44855 9811,44851 9812,44847 9812,44843 9812,44839 9813,44835 9813,44831 9812,44827 9812,44823 9812,44820 9811,44816 9811,44811 9810,44807 9809,44803 9808,44799 9807,44796 9806,44792 9805,44788 9804,44784 9802,44781 9801,44777 9799,44774 9798,44770 9796,44767 9803,44762 9805,44765 9806,44767 9807,44770 9808,44772 9813,44770 9811,44766 9809,44763 9808,44760 9806,44756 9804,44753 9802,44750 9800,44747 9798,44744 9796,44741 9793,44738 9791,44735 9788,44732 9786,44729 9783,44726 9781,44724 9778,44721 9775,44719 9772,44716 9770,44714 9767,44712 9764,44709 9761,44707 9757,44705 9754,44703 9751,44701 9748,44699 9744,44697 9740,44696 9737,44694 9733,44693 9730,44691 9726,44690 9723,44689 9719,44687 9716,44686 9712,44685 9709,44684 9705,44684 9701,44683 9698,44682 9694,44682 9690,44681 9686,44681 9683,44681 9679,44680 9675,44680 9672,44680 9668,44681 9664,44681 9660,44681 9657,44681 9653,44682 9649,44682 9646,44683 9642,44684 9638,44685 9635,44686 9631,44687 9628,44688 9624,44689 9620,44690 9617,44692 9614,44693 9610,44695 9578,44631 9585,44616 9586,44615 9587,44614 9588,44613 9589,44613 9590,44613 9591,44612 9592,44612 9593,44612 9594,44612 9594,44611 9595,44610 9596,44610 9597,44609 9598,44608 9598,44607 9599,44606 9599,44605 9599,44604 9599,44603 9599,44602 9598,44601 9598,44600 9597,44600 9597,44599 9596,44598 9595,44598 9595,44597 9594,44597 9593,44597 9592,44597 9588,44596 9584,44596 9580,44595 9576,44595 9572,44595 9568,44595 9564,44594 9560,44595 9556,44595 9552,44595 9548,44595 9544,44595 9540,44596 9536,44596 9532,44597 9528,44597 9528,44598 9527,44598 9526,44598 9526,44599 9525,44599 9525,44600 9524,44600 9524,44601 9524,44602 9524,44603 9523,44603 9523,44604 9523,44605 9524,44606 9524,44607 9524,44608 9525,44608 9525,44609 9526,44609 9526,44610 9527,44610 9528,44610 9529,44611 9564,44612 9565,44612 9566,44612 9567,44613 9568,44613 9568,44614 9569,44614 9569,44615 9570,44615 9570,44616 9570,44617 9570,44618 9570,44619 9570,44620 9565,44630 9301,44630 9308,44601 9310,44602 9312,44602 9314,44602 9316,44602 9318,44602 9320,44601 9322,44601 9324,44601 9326,44601 9328,44601 9330,44600 9332,44600 9334,44599 9336,44599 9337,44599 9339,44598 9341,44598 9342,44598 9343,44597 9344,44597 9346,44597 9347,44597 9348,44597 9350,44597 9351,44597 9352,44597 9353,44597 9355,44597 9356,44597 9357,44598 9359,44598 9360,44598 9361,44598 9362,44597 9363,44597 9363,44596 9364,44596 9364,44595 9365,44595 9365,44594 9365,44593 9366,44593 9366,44592 9366,44591 9366,44590 9366,44589 9365,44589 9365,44588 9365,44587 9364,44587 9364,44586 9363,44586 9363,44585 9362,44585 9361,44585 9360,44584 9359,44584 9358,44584 9356,44584 9355,44583 9354,44583 9353,44583 9352,44583 9351,44583 9350,44583 9348,44583 9347,44583 9346,44583 9345,44584 9342,44584 9339,44585 9337,44585 9334,44585 9331,44586 9328,44586 9325,44586 9322,44586 9320,44587 9317,44587 9314,44587 9311,44587 9308,44587 9305,44586 9303,44586 9300,44586 9273,44688 9271,44687 9268,44686 9266,44685 9263,44685 9260,44684 9258,44684 9255,44683 9252,44682 9249,44682 9247,44682 9244,44681 9241,44681 9238,44681 9236,44681 9233,44681 9230,44680 9228,44680 9225,44680 9222,44680 9219,44681 9217,44681 9214,44681 9211,44681 9208,44681 9206,44682 9203,44682 9200,44683 9197,44683 9195,44684 9192,44684 9189,44685 9187,44686 9188,44691 9191,44690 9193,44690 9196,44689 9199,44688 9201,44688 9204,44687 9206,44687 9209,44687 9212,44686 9214,44686 9217,44686 9220,44686 9222,44686 9225,44686 9228,44686 9230,44686 9233,44686 9236,44686 9238,44686 9241,44686 9244,44687 9246,44687 9249,44687 9251,44688 9254,44688 9257,44689 9259,44689 9262,44690 9265,44691 9267,44691 9270,44692 9272,44693 9270,44701 9267,44700 9265,44700 9262,44699 9260,44698 9257,44698 9254,44697 9252,44697 9249,44696 9246,44696 9244,44695 9241,44695 9238,44695 9236,44695 9233,44694 9230,44694 9228,44694 9225,44694 9222,44694 9219,44694 9217,44695 9214,44695 9211,44695 9209,44696 9206,44696 9203,44696 9201,44697 9198,44697 9195,44698 9193,44699 9190,44699 9188,44700 9185,44701 9182,44702 9180,44703 9177,44704 9175,44704 9172,44706 9170,44707 9167,44708 9165,44709 9163,44710 9160,44712 9158,44713 9156,44714 9153,44716 9151,44717 9149,44719 9147,44720 9144,44722 9142,44724 9140,44725 9138,44727 9136,44729 9134,44731 9132,44732 9130,44734 9128,44736 9126,44738 9124,44740 9123,44742 9121,44744 9119,44746 9118,44749 9116,44751 9115,44753 9113,44755 9111,44757 9110,44760 9109,44762 9107,44765 9106,44767 9105,44769 9103,44772 9102,44774 9101,44777 9100,44779 9099,44782 9098,44784 9097,44787 9096,44789 9095,44792 9095,44795 9094,44797 9093,44800 9093,44802 9092,44805 9092,44808 9091,44810 9091,44813 9090,44817 9090,44820 9090,44822 9089,44825 9089,44828 9089,44830 9089,44833 9089,44836 9089,44838 9089,44841 9090,44844 9090,44847 9090,44849 9090,44852 9091,44855 9091,44857 9092,44860 9092,44863 9093,44865 9093,44868 9094,44871 9095,44873 9096,44876 9097,44879 9097,44881 9098,44884 9099,44886 9100,44889 9101,44891 9103,44894 9104,44896 9105,44898 9106,44901 9108,44903 9109,44906 9110,44908 9112,44910 9113,44913 9115,44915 9117,44917 9118,44919 9120,44921 9122,44923 9123,44925 9125,44927 9127,44929 9129,44931 9131,44933 9133,44935 9135,44937 9137,44939 9139,44941 9141,44942 9143,44944 9145,44946 9147,44947 9150,44949 9152,44950 9154,44952 9156,44953 9159,44955 9161,44956 9164,44957 9166,44958 9168,44960 9171,44961 9173,44962 9176,44963 9178,44964 9181,44965 9183,44966 9186,44966 9189,44967 9191,44968 9194,44969 9196,44969 9199,44970 9202,44970 9204,44971 9207,44971 9210,44972 9212,44972 9215,44972 9218,44972 9220,44973 9223,44973 9226,44973 9228,44973 9231,44973 9234,44973 9237,44972 9239,44972 9242,44972 9245,44971 9247,44971 9250,44971 9253,44970 9255,44970 9258,44969 9261,44968 9263,44968 9266,44967 9268,44966 9271,44965 9273,44964 9276,44964 9278,44963 9281,44962 9283,44960 9286,44959 9288,44958 9291,44957 9293,44956 9295,44954 9298,44953 9300,44951 9302,44950 9305,44948 9307,44947 9309,44945 9311,44944 9313,44942 9315,44940 9317,44939 9319,44937 9321,44935 9323,44933 9325,44931 9327,44929 9329,44927 9331,44925 9332,44923 9334,44921 9336,44919 9337,44917 9339,44914 9341,44912 9342,44910 9344,44907 9345,44905 9346,44903 9348,44900 9349,44898 9350,44896 9351,44893 9352,44891 9354,44888 9355,44886 9356,44883 9356,44880 9357,44878 9358,44875 9359,44873 9360,44870 9360,44867 9361,44865 9362,44862 9362,44860 9362,44857 9363,44854 9363,44851 9364,44849 9364,44846 9364,44843 9364,44841 9364,44838 9364,44835 9373,44835 Z"/>
   </g>
  </g>
 </g>
</svg>