<?xml version="1.0" encoding="UTF-8"?>
<!DOCTYPE svg PUBLIC "-//W3C//DTD SVG 1.1//EN" "http://www.w3.org/Graphics/SVG/1.1/DTD/svg11.dtd">
<svg version="1.2" width="16.6mm" height="25.03mm" viewBox="10597 43499 1660 2503" preserveAspectRatio="xMidYMid" fill-rule="evenodd" stroke-width="28.222" stroke-linejoin="round" xmlns="http://www.w3.org/2000/svg" xmlns:ooo="http://xml.openoffice.org/svg/export" xmlns:xlink="http://www.w3.org/1999/xlink" xmlns:presentation="http://sun.com/xmlns/staroffice/presentation" xmlns:smil="http://www.w3.org/2001/SMIL20/" xmlns:anim="urn:oasis:names:tc:opendocument:xmlns:animation:1.0" xml:space="preserve">
 <defs class="EmbeddedBulletChars">
  <g id="bullet-char-template-57356" transform="scale(0.00048828125,-0.00048828125)">
   <path d="M 580,1141 L 1163,571 580,0 -4,571 580,1141 Z"/>
  </g>
  <g id="bullet-char-template-57354" transform="scale(0.00048828125,-0.00048828125)">
   <path d="M 8,1128 L 1137,1128 1137,0 8,0 8,1128 Z"/>
  </g>
  <g id="bullet-char-template-10146" transform="scale(0.00048828125,-0.00048828125)">
   <path d="M 174,0 L 602,739 174,1481 1456,739 174,0 Z M 1358,739 L 309,1346 659,739 1358,739 Z"/>
  </g>
  <g id="bullet-char-template-10132" transform="scale(0.00048828125,-0.00048828125)">
   <path d="M 2015,739 L 1276,0 717,0 1260,543 174,543 174,936 1260,936 717,1481 1274,1481 2015,739 Z"/>
  </g>
  <g id="bullet-char-template-10007" transform="scale(0.00048828125,-0.00048828125)">
   <path d="M 0,-2 C -7,14 -16,27 -25,37 L 356,567 C 262,823 215,952 215,954 215,979 228,992 255,992 264,992 276,990 289,987 310,991 331,999 354,1012 L 381,999 492,748 772,1049 836,1024 860,1049 C 881,1039 901,1025 922,1006 886,937 835,863 770,784 769,783 710,716 594,584 L 774,223 C 774,196 753,168 711,139 L 727,119 C 717,90 699,76 672,76 641,76 570,178 457,381 L 164,-76 C 142,-110 111,-127 72,-127 30,-127 9,-110 8,-76 1,-67 -2,-52 -2,-32 -2,-23 -1,-13 0,-2 Z"/>
  </g>
  <g id="bullet-char-template-10004" transform="scale(0.00048828125,-0.00048828125)">
   <path d="M 285,-33 C 182,-33 111,30 74,156 52,228 41,333 41,471 41,549 55,616 82,672 116,743 169,778 240,778 293,778 328,747 346,684 L 369,508 C 377,444 397,411 428,410 L 1163,1116 C 1174,1127 1196,1133 1229,1133 1271,1133 1292,1118 1292,1087 L 1292,965 C 1292,929 1282,901 1262,881 L 442,47 C 390,-6 338,-33 285,-33 Z"/>
  </g>
  <g id="bullet-char-template-9679" transform="scale(0.00048828125,-0.00048828125)">
   <path d="M 813,0 C 632,0 489,54 383,161 276,268 223,411 223,592 223,773 276,916 383,1023 489,1130 632,1184 813,1184 992,1184 1136,1130 1245,1023 1353,916 1407,772 1407,592 1407,412 1353,268 1245,161 1136,54 992,0 813,0 Z"/>
  </g>
  <g id="bullet-char-template-8226" transform="scale(0.00048828125,-0.00048828125)">
   <path d="M 346,457 C 273,457 209,483 155,535 101,586 74,649 74,723 74,796 101,859 155,911 209,963 273,989 346,989 419,989 480,963 531,910 582,859 608,796 608,723 608,648 583,586 532,535 482,483 420,457 346,457 Z"/>
  </g>
  <g id="bullet-char-template-8211" transform="scale(0.00048828125,-0.00048828125)">
   <path d="M -4,459 L 1135,459 1135,606 -4,606 -4,459 Z"/>
  </g>
  <g id="bullet-char-template-61548" transform="scale(0.00048828125,-0.00048828125)">
   <path d="M 173,740 C 173,903 231,1043 346,1159 462,1274 601,1332 765,1332 928,1332 1067,1274 1183,1159 1299,1043 1357,903 1357,740 1357,577 1299,437 1183,322 1067,206 928,148 765,148 601,148 462,206 346,322 231,437 173,577 173,740 Z"/>
  </g>
 </defs>
 <g class="Page">
  <g class="com.sun.star.drawing.PolyPolygonShape">
   <g id="id3">
    <rect class="BoundingBox" stroke="none" fill="none" x="10597" y="43499" width="1660" height="2503"/>
    <path fill="rgb(0,0,255)" stroke="none" d="M 10778,46000 L 12076,46000 12093,46000 12111,45997 12128,45993 12145,45987 12160,45979 12175,45970 12190,45960 12203,45948 12215,45934 12225,45920 12234,45905 12242,45889 12248,45872 12252,45855 12254,45838 12255,45820 12255,43680 12254,43662 12252,43645 12248,43628 12242,43611 12234,43595 12225,43580 12215,43566 12203,43552 12190,43540 12175,43530 12160,43521 12145,43513 12128,43507 12111,43503 12093,43500 12076,43500 10778,43500 10760,43500 10742,43503 10725,43507 10708,43513 10692,43521 10677,43530 10663,43540 10650,43552 10638,43566 10628,43580 10619,43595 10611,43611 10605,43628 10601,43645 10598,43662 10598,43680 10598,45820 10598,45838 10601,45855 10605,45872 10611,45889 10619,45905 10628,45920 10638,45934 10650,45948 10663,45960 10677,45970 10692,45979 10708,45987 10725,45993 10742,45997 10760,46000 10778,46000 Z"/>
    <path fill="none" stroke="rgb(0,0,255)" d="M 10778,46000 L 12076,46000 12093,46000 12111,45997 12128,45993 12145,45987 12160,45979 12175,45970 12190,45960 12203,45948 12215,45934 12225,45920 12234,45905 12242,45889 12248,45872 12252,45855 12254,45838 12255,45820 12255,43680 12254,43662 12252,43645 12248,43628 12242,43611 12234,43595 12225,43580 12215,43566 12203,43552 12190,43540 12175,43530 12160,43521 12145,43513 12128,43507 12111,43503 12093,43500 12076,43500 10778,43500 10760,43500 10742,43503 10725,43507 10708,43513 10692,43521 10677,43530 10663,43540 10650,43552 10638,43566 10628,43580 10619,43595 10611,43611 10605,43628 10601,43645 10598,43662 10598,43680 10598,45820 10598,45838 10601,45855 10605,45872 10611,45889 10619,45905 10628,45920 10638,45934 10650,45948 10663,45960 10677,45970 10692,45979 10708,45987 10725,45993 10742,45997 10760,46000 10778,46000 Z"/>
   </g>
  </g>
  <g class="com.sun.star.drawing.PolyPolygonShape">
   <g id="id4">
    <rect class="BoundingBox" stroke="none" fill="none" x="10638" y="43540" width="1578" height="2421"/>
    <path fill="rgb(255,255,255)" stroke="none" d="M 10777,45959 L 12076,45959 12089,45958 12103,45956 12116,45953 12129,45948 12141,45942 12152,45935 12163,45927 12173,45918 12182,45908 12191,45897 12198,45885 12203,45873 12208,45860 12211,45847 12213,45834 12214,45820 12214,43680 12213,43666 12211,43653 12208,43640 12203,43627 12198,43615 12191,43603 12182,43592 12173,43582 12163,43573 12152,43565 12141,43558 12129,43552 12116,43547 12103,43544 12089,43542 12076,43541 10777,43541 10763,43542 10750,43544 10737,43547 10724,43552 10712,43558 10700,43565 10690,43573 10679,43582 10670,43592 10662,43603 10655,43615 10649,43627 10645,43640 10642,43653 10640,43666 10639,43680 10639,45820 10640,45834 10642,45847 10645,45860 10649,45873 10655,45885 10662,45897 10670,45908 10679,45918 10690,45927 10700,45935 10712,45942 10724,45948 10737,45953 10750,45956 10763,45958 10777,45959 Z"/>
    <path fill="none" stroke="rgb(255,255,255)" d="M 10777,45959 L 12076,45959 12089,45958 12103,45956 12116,45953 12129,45948 12141,45942 12152,45935 12163,45927 12173,45918 12182,45908 12191,45897 12198,45885 12203,45873 12208,45860 12211,45847 12213,45834 12214,45820 12214,43680 12213,43666 12211,43653 12208,43640 12203,43627 12198,43615 12191,43603 12182,43592 12173,43582 12163,43573 12152,43565 12141,43558 12129,43552 12116,43547 12103,43544 12089,43542 12076,43541 10777,43541 10763,43542 10750,43544 10737,43547 10724,43552 10712,43558 10700,43565 10690,43573 10679,43582 10670,43592 10662,43603 10655,43615 10649,43627 10645,43640 10642,43653 10640,43666 10639,43680 10639,45820 10640,45834 10642,45847 10645,45860 10649,45873 10655,45885 10662,45897 10670,45908 10679,45918 10690,45927 10700,45935 10712,45942 10724,45948 10737,45953 10750,45956 10763,45958 10777,45959 Z"/>
   </g>
  </g>
  <g class="com.sun.star.drawing.PolyPolygonShape">
   <g id="id5">
    <rect class="BoundingBox" stroke="none" fill="none" x="10679" y="43582" width="1495" height="2337"/>
    <path fill="rgb(0,0,255)" stroke="none" d="M 10777,45917 L 12076,45917 12085,45917 12095,45915 12104,45913 12113,45910 12121,45906 12130,45901 12137,45895 12144,45889 12150,45881 12156,45874 12161,45866 12165,45857 12168,45848 12171,45839 12172,45829 12172,45820 12172,43680 12172,43671 12171,43661 12168,43652 12165,43643 12161,43634 12156,43626 12150,43618 12144,43611 12137,43605 12130,43599 12121,43594 12113,43590 12104,43587 12095,43585 12085,43583 12076,43583 10777,43583 10768,43583 10758,43585 10749,43587 10740,43590 10731,43594 10723,43599 10716,43605 10709,43611 10702,43618 10697,43626 10692,43634 10688,43643 10684,43652 10682,43661 10681,43671 10680,43680 10680,45820 10681,45829 10682,45839 10684,45848 10688,45857 10692,45866 10697,45874 10702,45881 10709,45889 10716,45895 10723,45901 10731,45906 10740,45910 10749,45913 10758,45915 10768,45917 10777,45917 Z"/>
    <path fill="none" stroke="rgb(0,0,255)" d="M 10777,45917 L 12076,45917 12085,45917 12095,45915 12104,45913 12113,45910 12121,45906 12130,45901 12137,45895 12144,45889 12150,45881 12156,45874 12161,45866 12165,45857 12168,45848 12171,45839 12172,45829 12172,45820 12172,43680 12172,43671 12171,43661 12168,43652 12165,43643 12161,43634 12156,43626 12150,43618 12144,43611 12137,43605 12130,43599 12121,43594 12113,43590 12104,43587 12095,43585 12085,43583 12076,43583 10777,43583 10768,43583 10758,43585 10749,43587 10740,43590 10731,43594 10723,43599 10716,43605 10709,43611 10702,43618 10697,43626 10692,43634 10688,43643 10684,43652 10682,43661 10681,43671 10680,43680 10680,45820 10681,45829 10682,45839 10684,45848 10688,45857 10692,45866 10697,45874 10702,45881 10709,45889 10716,45895 10723,45901 10731,45906 10740,45910 10749,45913 10758,45915 10768,45917 10777,45917 Z"/>
   </g>
  </g>
  <g class="com.sun.star.drawing.PolyPolygonShape">
   <g id="id6">
    <rect class="BoundingBox" stroke="none" fill="none" x="10830" y="44165" width="1194" height="1254"/>
    <path fill="rgb(255,255,255)" stroke="none" d="M 11960,45417 L 10893,45417 10887,45417 10881,45416 10875,45415 10869,45412 10863,45410 10858,45407 10853,45403 10849,45399 10845,45394 10841,45389 10838,45384 10835,45378 10833,45373 10832,45367 10831,45361 10831,45355 10831,44229 10831,44223 10832,44216 10833,44210 10835,44205 10838,44199 10841,44194 10845,44189 10849,44185 10853,44180 10858,44177 10863,44174 10869,44171 10875,44169 10881,44167 10887,44167 10893,44166 11960,44166 11966,44167 11972,44167 11978,44169 11984,44171 11989,44174 11995,44177 12000,44180 12004,44185 12008,44189 12012,44194 12015,44199 12018,44205 12020,44210 12021,44216 12022,44223 12022,44229 12022,45355 12022,45361 12021,45367 12020,45373 12018,45378 12015,45384 12012,45389 12008,45394 12004,45399 12000,45403 11995,45407 11989,45410 11984,45412 11978,45415 11972,45416 11966,45417 11960,45417 Z"/>
    <path fill="none" stroke="rgb(255,255,255)" d="M 11960,45417 L 10893,45417 10887,45417 10881,45416 10875,45415 10869,45412 10863,45410 10858,45407 10853,45403 10849,45399 10845,45394 10841,45389 10838,45384 10835,45378 10833,45373 10832,45367 10831,45361 10831,45355 10831,44229 10831,44223 10832,44216 10833,44210 10835,44205 10838,44199 10841,44194 10845,44189 10849,44185 10853,44180 10858,44177 10863,44174 10869,44171 10875,44169 10881,44167 10887,44167 10893,44166 11960,44166 11966,44167 11972,44167 11978,44169 11984,44171 11989,44174 11995,44177 12000,44180 12004,44185 12008,44189 12012,44194 12015,44199 12018,44205 12020,44210 12021,44216 12022,44223 12022,44229 12022,45355 12022,45361 12021,45367 12020,45373 12018,45378 12015,45384 12012,45389 12008,45394 12004,45399 12000,45403 11995,45407 11989,45410 11984,45412 11978,45415 11972,45416 11966,45417 11960,45417 Z"/>
   </g>
  </g>
  <g class="com.sun.star.drawing.PolyPolygonShape">
   <g id="id7">
    <rect class="BoundingBox" stroke="none" fill="none" x="10894" y="44207" width="1066" height="474"/>
    <path fill="rgb(0,0,0)" stroke="none" d="M 10998,44679 L 10895,44679 10895,44459 11427,44208 11958,44459 11958,44679 11854,44679 11854,44525 11427,44324 10998,44525 10998,44679 Z"/>
    <path fill="none" stroke="rgb(0,0,0)" d="M 10998,44679 L 10895,44679 10895,44459 11427,44208 11958,44459 11958,44679 11854,44679 11854,44525 11427,44324 10998,44525 10998,44679 Z"/>
   </g>
  </g>
  <g class="com.sun.star.drawing.PolyPolygonShape">
   <g id="id8">
    <rect class="BoundingBox" stroke="none" fill="none" x="11180" y="44509" width="558" height="816"/>
    <path fill="rgb(0,0,0)" stroke="none" d="M 11329,44835 L 11508,44835 11515,44834 11523,44833 11531,44831 11538,44829 11546,44825 11552,44821 11559,44816 11564,44811 11570,44805 11575,44799 11579,44792 11582,44785 11585,44777 11587,44770 11588,44762 11588,44754 11588,44727 11588,44719 11587,44711 11585,44703 11582,44696 11579,44688 11575,44681 11570,44675 11564,44669 11559,44664 11552,44659 11546,44655 11538,44652 11531,44649 11523,44647 11515,44646 11508,44645 11329,44645 11329,44835 Z M 11181,45323 L 11329,45323 11329,44970 11521,44970 11542,44969 11563,44966 11583,44961 11603,44954 11622,44945 11641,44934 11658,44921 11673,44907 11687,44891 11700,44874 11711,44856 11720,44837 11727,44817 11732,44796 11735,44775 11736,44754 11736,44727 11735,44705 11732,44684 11727,44664 11720,44644 11711,44624 11700,44606 11687,44589 11673,44573 11658,44559 11641,44546 11622,44536 11603,44526 11583,44519 11563,44514 11542,44511 11521,44510 11181,44510 11181,45323 Z"/>
    <path fill="none" stroke="rgb(0,0,0)" d="M 11329,44835 L 11508,44835 11515,44834 11523,44833 11531,44831 11538,44829 11546,44825 11552,44821 11559,44816 11564,44811 11570,44805 11575,44799 11579,44792 11582,44785 11585,44777 11587,44770 11588,44762 11588,44754 11588,44727 11588,44719 11587,44711 11585,44703 11582,44696 11579,44688 11575,44681 11570,44675 11564,44669 11559,44664 11552,44659 11546,44655 11538,44652 11531,44649 11523,44647 11515,44646 11508,44645 11329,44645 11329,44835 Z"/>
    <path fill="none" stroke="rgb(0,0,0)" d="M 11181,45323 L 11329,45323 11329,44970 11521,44970 11542,44969 11563,44966 11583,44961 11603,44954 11622,44945 11641,44934 11658,44921 11673,44907 11687,44891 11700,44874 11711,44856 11720,44837 11727,44817 11732,44796 11735,44775 11736,44754 11736,44727 11735,44705 11732,44684 11727,44664 11720,44644 11711,44624 11700,44606 11687,44589 11673,44573 11658,44559 11641,44546 11622,44536 11603,44526 11583,44519 11563,44514 11542,44511 11521,44510 11181,44510 11181,45323 Z"/>
   </g>
  </g>
  <g class="com.sun.star.drawing.PolyPolygonShape">
   <g id="id9">
    <rect class="BoundingBox" stroke="none" fill="none" x="11180" y="44509" width="558" height="816"/>
    <path fill="rgb(0,0,0)" stroke="none" d="M 11329,44835 L 11508,44835 11515,44834 11523,44833 11531,44831 11538,44829 11546,44825 11552,44821 11559,44816 11564,44811 11570,44805 11575,44799 11579,44792 11582,44785 11585,44777 11587,44770 11588,44762 11588,44754 11588,44727 11588,44719 11587,44711 11585,44703 11582,44696 11579,44688 11575,44681 11570,44675 11564,44669 11559,44664 11552,44659 11546,44655 11538,44652 11531,44649 11523,44647 11515,44646 11508,44645 11329,44645 11329,44835 Z M 11181,45323 L 11329,45323 11329,44970 11521,44970 11542,44969 11563,44966 11583,44961 11603,44954 11622,44945 11641,44934 11658,44921 11673,44907 11687,44891 11700,44874 11711,44856 11720,44837 11727,44817 11732,44796 11735,44775 11736,44754 11736,44727 11735,44705 11732,44684 11727,44664 11720,44644 11711,44624 11700,44606 11687,44589 11673,44573 11658,44559 11641,44546 11622,44536 11603,44526 11583,44519 11563,44514 11542,44511 11521,44510 11181,44510 11181,45323 Z"/>
    <path fill="none" stroke="rgb(0,0,0)" d="M 11329,44835 L 11508,44835 11515,44834 11523,44833 11531,44831 11538,44829 11546,44825 11552,44821 11559,44816 11564,44811 11570,44805 11575,44799 11579,44792 11582,44785 11585,44777 11587,44770 11588,44762 11588,44754 11588,44727 11588,44719 11587,44711 11585,44703 11582,44696 11579,44688 11575,44681 11570,44675 11564,44669 11559,44664 11552,44659 11546,44655 11538,44652 11531,44649 11523,44647 11515,44646 11508,44645 11329,44645 11329,44835 Z"/>
    <path fill="none" stroke="rgb(0,0,0)" d="M 11181,45323 L 11329,45323 11329,44970 11521,44970 11542,44969 11563,44966 11583,44961 11603,44954 11622,44945 11641,44934 11658,44921 11673,44907 11687,44891 11700,44874 11711,44856 11720,44837 11727,44817 11732,44796 11735,44775 11736,44754 11736,44727 11735,44705 11732,44684 11727,44664 11720,44644 11711,44624 11700,44606 11687,44589 11673,44573 11658,44559 11641,44546 11622,44536 11603,44526 11583,44519 11563,44514 11542,44511 11521,44510 11181,44510 11181,45323 Z"/>
   </g>
  </g>
 </g>
</svg>