<?xml version="1.0" encoding="UTF-8"?>
<!DOCTYPE svg PUBLIC "-//W3C//DTD SVG 1.1//EN" "http://www.w3.org/Graphics/SVG/1.1/DTD/svg11.dtd">
<svg version="1.2" width="16.62mm" height="25.03mm" viewBox="12796 43499 1662 2503" preserveAspectRatio="xMidYMid" fill-rule="evenodd" stroke-width="28.222" stroke-linejoin="round" xmlns="http://www.w3.org/2000/svg" xmlns:ooo="http://xml.openoffice.org/svg/export" xmlns:xlink="http://www.w3.org/1999/xlink" xmlns:presentation="http://sun.com/xmlns/staroffice/presentation" xmlns:smil="http://www.w3.org/2001/SMIL20/" xmlns:anim="urn:oasis:names:tc:opendocument:xmlns:animation:1.0" xml:space="preserve">
 <defs class="EmbeddedBulletChars">
  <g id="bullet-char-template-57356" transform="scale(0.00048828125,-0.00048828125)">
   <path d="M 580,1141 L 1163,571 580,0 -4,571 580,1141 Z"/>
  </g>
  <g id="bullet-char-template-57354" transform="scale(0.00048828125,-0.00048828125)">
   <path d="M 8,1128 L 1137,1128 1137,0 8,0 8,1128 Z"/>
  </g>
  <g id="bullet-char-template-10146" transform="scale(0.00048828125,-0.00048828125)">
   <path d="M 174,0 L 602,739 174,1481 1456,739 174,0 Z M 1358,739 L 309,1346 659,739 1358,739 Z"/>
  </g>
  <g id="bullet-char-template-10132" transform="scale(0.00048828125,-0.00048828125)">
   <path d="M 2015,739 L 1276,0 717,0 1260,543 174,543 174,936 1260,936 717,1481 1274,1481 2015,739 Z"/>
  </g>
  <g id="bullet-char-template-10007" transform="scale(0.00048828125,-0.00048828125)">
   <path d="M 0,-2 C -7,14 -16,27 -25,37 L 356,567 C 262,823 215,952 215,954 215,979 228,992 255,992 264,992 276,990 289,987 310,991 331,999 354,1012 L 381,999 492,748 772,1049 836,1024 860,1049 C 881,1039 901,1025 922,1006 886,937 835,863 770,784 769,783 710,716 594,584 L 774,223 C 774,196 753,168 711,139 L 727,119 C 717,90 699,76 672,76 641,76 570,178 457,381 L 164,-76 C 142,-110 111,-127 72,-127 30,-127 9,-110 8,-76 1,-67 -2,-52 -2,-32 -2,-23 -1,-13 0,-2 Z"/>
  </g>
  <g id="bullet-char-template-10004" transform="scale(0.00048828125,-0.00048828125)">
   <path d="M 285,-33 C 182,-33 111,30 74,156 52,228 41,333 41,471 41,549 55,616 82,672 116,743 169,778 240,778 293,778 328,747 346,684 L 369,508 C 377,444 397,411 428,410 L 1163,1116 C 1174,1127 1196,1133 1229,1133 1271,1133 1292,1118 1292,1087 L 1292,965 C 1292,929 1282,901 1262,881 L 442,47 C 390,-6 338,-33 285,-33 Z"/>
  </g>
  <g id="bullet-char-template-9679" transform="scale(0.00048828125,-0.00048828125)">
   <path d="M 813,0 C 632,0 489,54 383,161 276,268 223,411 223,592 223,773 276,916 383,1023 489,1130 632,1184 813,1184 992,1184 1136,1130 1245,1023 1353,916 1407,772 1407,592 1407,412 1353,268 1245,161 1136,54 992,0 813,0 Z"/>
  </g>
  <g id="bullet-char-template-8226" transform="scale(0.00048828125,-0.00048828125)">
   <path d="M 346,457 C 273,457 209,483 155,535 101,586 74,649 74,723 74,796 101,859 155,911 209,963 273,989 346,989 419,989 480,963 531,910 582,859 608,796 608,723 608,648 583,586 532,535 482,483 420,457 346,457 Z"/>
  </g>
  <g id="bullet-char-template-8211" transform="scale(0.00048828125,-0.00048828125)">
   <path d="M -4,459 L 1135,459 1135,606 -4,606 -4,459 Z"/>
  </g>
  <g id="bullet-char-template-61548" transform="scale(0.00048828125,-0.00048828125)">
   <path d="M 173,740 C 173,903 231,1043 346,1159 462,1274 601,1332 765,1332 928,1332 1067,1274 1183,1159 1299,1043 1357,903 1357,740 1357,577 1299,437 1183,322 1067,206 928,148 765,148 601,148 462,206 346,322 231,437 173,577 173,740 Z"/>
  </g>
 </defs>
 <g class="Page">
  <g class="com.sun.star.drawing.PolyPolygonShape">
   <g id="id3">
    <rect class="BoundingBox" stroke="none" fill="none" x="12796" y="43499" width="1662" height="2503"/>
    <path fill="rgb(0,0,255)" stroke="none" d="M 12797,45813 L 12797,43687 12798,43669 12801,43651 12805,43633 12811,43615 12819,43599 12828,43583 12839,43568 12852,43554 12865,43542 12880,43531 12896,43522 12912,43514 12929,43508 12947,43503 12965,43500 12983,43500 14269,43500 14287,43500 14306,43503 14323,43508 14341,43514 14357,43522 14373,43531 14388,43542 14401,43554 14413,43568 14424,43583 14434,43599 14441,43615 14448,43633 14452,43651 14455,43669 14456,43687 14456,45813 14455,45831 14452,45849 14448,45867 14441,45885 14434,45901 14424,45917 14413,45932 14401,45945 14388,45958 14373,45969 14357,45978 14341,45986 14323,45992 14306,45997 14287,46000 14269,46000 12983,46000 12965,46000 12947,45997 12929,45992 12912,45986 12896,45978 12880,45969 12865,45958 12852,45945 12839,45932 12828,45917 12819,45901 12811,45885 12805,45867 12801,45849 12798,45831 12797,45813 Z"/>
    <path fill="none" stroke="rgb(0,0,255)" d="M 12797,45813 L 12797,43687 12798,43669 12801,43651 12805,43633 12811,43615 12819,43599 12828,43583 12839,43568 12852,43554 12865,43542 12880,43531 12896,43522 12912,43514 12929,43508 12947,43503 12965,43500 12983,43500 14269,43500 14287,43500 14306,43503 14323,43508 14341,43514 14357,43522 14373,43531 14388,43542 14401,43554 14413,43568 14424,43583 14434,43599 14441,43615 14448,43633 14452,43651 14455,43669 14456,43687 14456,45813 14455,45831 14452,45849 14448,45867 14441,45885 14434,45901 14424,45917 14413,45932 14401,45945 14388,45958 14373,45969 14357,45978 14341,45986 14323,45992 14306,45997 14287,46000 14269,46000 12983,46000 12965,46000 12947,45997 12929,45992 12912,45986 12896,45978 12880,45969 12865,45958 12852,45945 12839,45932 12828,45917 12819,45901 12811,45885 12805,45867 12801,45849 12798,45831 12797,45813 Z"/>
   </g>
  </g>
  <g class="com.sun.star.drawing.PolyPolygonShape">
   <g id="id4">
    <rect class="BoundingBox" stroke="none" fill="none" x="12858" y="43561" width="1538" height="2379"/>
    <path fill="rgb(255,255,255)" stroke="none" d="M 12859,45813 L 12859,43687 12860,43675 12862,43663 12865,43651 12869,43639 12874,43628 12880,43618 12887,43608 12896,43599 12905,43590 12914,43583 12925,43577 12936,43572 12947,43567 12959,43564 12971,43563 12983,43562 14269,43562 14281,43563 14293,43564 14305,43567 14317,43572 14328,43577 14338,43583 14348,43590 14357,43599 14365,43608 14373,43618 14379,43628 14384,43639 14388,43651 14391,43663 14393,43675 14394,43687 14394,45813 14393,45825 14391,45837 14388,45849 14384,45861 14379,45872 14373,45882 14365,45892 14357,45901 14348,45910 14338,45917 14328,45923 14317,45928 14305,45932 14293,45936 14281,45937 14269,45938 12983,45938 12971,45937 12959,45936 12947,45932 12936,45928 12925,45923 12914,45917 12905,45910 12896,45901 12887,45892 12880,45882 12874,45872 12869,45861 12865,45849 12862,45837 12860,45825 12859,45813 Z"/>
    <path fill="none" stroke="rgb(255,255,255)" d="M 12859,45813 L 12859,43687 12860,43675 12862,43663 12865,43651 12869,43639 12874,43628 12880,43618 12887,43608 12896,43599 12905,43590 12914,43583 12925,43577 12936,43572 12947,43567 12959,43564 12971,43563 12983,43562 14269,43562 14281,43563 14293,43564 14305,43567 14317,43572 14328,43577 14338,43583 14348,43590 14357,43599 14365,43608 14373,43618 14379,43628 14384,43639 14388,43651 14391,43663 14393,43675 14394,43687 14394,45813 14393,45825 14391,45837 14388,45849 14384,45861 14379,45872 14373,45882 14365,45892 14357,45901 14348,45910 14338,45917 14328,45923 14317,45928 14305,45932 14293,45936 14281,45937 14269,45938 12983,45938 12971,45937 12959,45936 12947,45932 12936,45928 12925,45923 12914,45917 12905,45910 12896,45901 12887,45892 12880,45882 12874,45872 12869,45861 12865,45849 12862,45837 12860,45825 12859,45813 Z"/>
   </g>
  </g>
  <g class="com.sun.star.drawing.PolyPolygonShape">
   <g id="id5">
    <rect class="BoundingBox" stroke="none" fill="none" x="12920" y="43624" width="1413" height="2253"/>
    <path fill="rgb(0,0,255)" stroke="none" d="M 12921,45813 L 12921,43687 12923,43675 12926,43663 12932,43652 12940,43643 12949,43635 12960,43629 12971,43626 12983,43625 14269,43625 14281,43626 14293,43629 14304,43635 14313,43643 14321,43652 14327,43663 14330,43675 14331,43687 14331,45813 14330,45825 14327,45837 14321,45848 14313,45857 14304,45865 14293,45871 14281,45874 14269,45875 12983,45875 12971,45874 12960,45871 12949,45865 12940,45857 12932,45848 12926,45837 12923,45825 12921,45813 Z"/>
    <path fill="none" stroke="rgb(0,0,255)" d="M 12921,45813 L 12921,43687 12923,43675 12926,43663 12932,43652 12940,43643 12949,43635 12960,43629 12971,43626 12983,43625 14269,43625 14281,43626 14293,43629 14304,43635 14313,43643 14321,43652 14327,43663 14330,43675 14331,43687 14331,45813 14330,45825 14327,45837 14321,45848 14313,45857 14304,45865 14293,45871 14281,45874 14269,45875 12983,45875 12971,45874 12960,45871 12949,45865 12940,45857 12932,45848 12926,45837 12923,45825 12921,45813 Z"/>
   </g>
  </g>
  <g class="com.sun.star.drawing.PolyPolygonShape">
   <g id="id6">
    <rect class="BoundingBox" stroke="none" fill="none" x="13210" y="44082" width="833" height="1378"/>
    <path fill="rgb(255,255,255)" stroke="none" d="M 14041,44083 L 13211,44083 13211,45458 14041,45458 14041,44083 Z"/>
    <path fill="none" stroke="rgb(255,255,255)" d="M 14041,44083 L 13211,44083 13211,45458 14041,45458 14041,44083 Z"/>
   </g>
  </g>
  <g class="com.sun.star.drawing.PolyPolygonShape">
   <g id="id7">
    <rect class="BoundingBox" stroke="none" fill="none" x="13408" y="44129" width="530" height="1270"/>
    <path fill="rgb(0,0,0)" stroke="none" d="M 13633,44327 L 13663,44329 13677,44341 13691,44343 13691,44358 13659,44358 13650,44340 13635,44341 13633,44327 Z M 13496,44297 L 13505,44284 13516,44273 13527,44263 13540,44254 13548,44265 13539,44271 13530,44279 13522,44287 13515,44296 13509,44305 13503,44315 13499,44326 13496,44337 13496,44297 Z M 13644,45249 L 13666,45239 13688,45227 13680,45237 13671,45246 13661,45255 13650,45262 13644,45249 Z M 13576,45098 L 13584,45125 13575,45138 13570,45132 13566,45124 13563,45117 13562,45109 13576,45098 Z M 13624,45254 L 13627,45271 13616,45272 13605,45272 13595,45270 13584,45267 13624,45254 Z M 13608,45117 L 13602,45109 13597,45100 13593,45090 13590,45081 13601,45077 13603,45086 13606,45095 13611,45103 13617,45110 13608,45117 Z M 13482,44494 L 13479,44560 13478,44626 13478,44692 13478,44758 13480,44824 13483,44890 13487,44957 13492,45023 13482,44957 13474,44890 13469,44824 13467,44758 13467,44692 13469,44626 13475,44560 13482,44494 Z M 13562,45042 L 13558,45024 13608,44982 13613,44996 13628,44980 13633,44976 13638,44975 13643,44976 13648,44979 13811,45195 13814,45198 13816,45203 13817,45207 13817,45212 13816,45217 13814,45221 13811,45225 13808,45228 13786,45247 13762,45265 13738,45281 13713,45296 13711,45313 13650,45331 13649,45320 13638,45325 13625,45329 13613,45331 13600,45332 13588,45332 13575,45330 13563,45327 13551,45323 13553,45330 13556,45338 13560,45345 13565,45352 13571,45358 13578,45363 13585,45367 13593,45370 13614,45372 13635,45371 13656,45367 13676,45361 13721,45346 13744,45339 13768,45333 13792,45330 13816,45329 13840,45331 13864,45334 13888,45340 13910,45349 13918,45352 13924,45356 13931,45361 13936,45367 13921,45385 13910,45376 13898,45369 13885,45362 13871,45357 13857,45353 13843,45351 13829,45351 13814,45352 13783,45355 13753,45361 13723,45369 13695,45381 13678,45386 13660,45390 13643,45394 13625,45396 13613,45397 13600,45397 13587,45395 13575,45390 13563,45384 13553,45376 13544,45366 13537,45355 13533,45347 13531,45337 13530,45328 13530,45318 13513,45303 13498,45286 13485,45266 13475,45245 13464,45212 13454,45178 13445,45144 13437,45109 13431,45075 13426,45040 13423,45005 13421,44969 13417,44925 13414,44882 13411,44838 13409,44795 13409,44752 13410,44708 13411,44665 13414,44621 13417,44578 13421,44535 13426,44492 13432,44449 13438,44406 13445,44363 13454,44320 13463,44278 13467,44260 13472,44242 13479,44226 13488,44210 13499,44195 13511,44181 13524,44169 13539,44159 13551,44152 13563,44147 13575,44142 13588,44139 13601,44136 13614,44134 13627,44134 13640,44134 13667,44137 13693,44141 13693,44130 13755,44133 13759,44171 13760,44209 13758,44247 13754,44285 13747,44322 13737,44359 13725,44395 13710,44430 13646,44411 13641,44399 13632,44406 13622,44412 13611,44416 13600,44418 13588,44418 13577,44416 13566,44412 13556,44406 13534,44390 13536,44455 13544,44477 13551,44500 13557,44522 13563,44546 13567,44569 13570,44592 13573,44615 13575,44639 13575,44687 13574,44734 13572,44782 13567,44829 13561,44876 13553,44923 13544,44971 13533,45017 13529,45072 13562,45042 Z"/>
    <path fill="none" stroke="rgb(0,0,0)" d="M 13633,44327 L 13663,44329 13677,44341 13691,44343 13691,44358 13659,44358 13650,44340 13635,44341 13633,44327 Z"/>
    <path fill="none" stroke="rgb(0,0,0)" d="M 13496,44297 L 13505,44284 13516,44273 13527,44263 13540,44254 13548,44265 13539,44271 13530,44279 13522,44287 13515,44296 13509,44305 13503,44315 13499,44326 13496,44337 13496,44297 Z"/>
    <path fill="none" stroke="rgb(0,0,0)" d="M 13644,45249 L 13666,45239 13688,45227 13680,45237 13671,45246 13661,45255 13650,45262 13644,45249 Z"/>
    <path fill="none" stroke="rgb(0,0,0)" d="M 13576,45098 L 13584,45125 13575,45138 13570,45132 13566,45124 13563,45117 13562,45109 13576,45098 Z"/>
    <path fill="none" stroke="rgb(0,0,0)" d="M 13624,45254 L 13627,45271 13616,45272 13605,45272 13595,45270 13584,45267 13624,45254 Z"/>
    <path fill="none" stroke="rgb(0,0,0)" d="M 13608,45117 L 13602,45109 13597,45100 13593,45090 13590,45081 13601,45077 13603,45086 13606,45095 13611,45103 13617,45110 13608,45117 Z"/>
    <path fill="none" stroke="rgb(0,0,0)" d="M 13482,44494 L 13479,44560 13478,44626 13478,44692 13478,44758 13480,44824 13483,44890 13487,44957 13492,45023 13482,44957 13474,44890 13469,44824 13467,44758 13467,44692 13469,44626 13475,44560 13482,44494 Z"/>
    <path fill="none" stroke="rgb(0,0,0)" d="M 13562,45042 L 13558,45024 13608,44982 13613,44996 13628,44980 13633,44976 13638,44975 13643,44976 13648,44979 13811,45195 13814,45198 13816,45203 13817,45207 13817,45212 13816,45217 13814,45221 13811,45225 13808,45228 13786,45247 13762,45265 13738,45281 13713,45296 13711,45313 13650,45331 13649,45320 13638,45325 13625,45329 13613,45331 13600,45332 13588,45332 13575,45330 13563,45327 13551,45323 13553,45330 13556,45338 13560,45345 13565,45352 13571,45358 13578,45363 13585,45367 13593,45370 13614,45372 13635,45371 13656,45367 13676,45361 13721,45346 13744,45339 13768,45333 13792,45330 13816,45329 13840,45331 13864,45334 13888,45340 13910,45349 13918,45352 13924,45356 13931,45361 13936,45367 13921,45385 13910,45376 13898,45369 13885,45362 13871,45357 13857,45353 13843,45351 13829,45351 13814,45352 13783,45355 13753,45361 13723,45369 13695,45381 13678,45386 13660,45390 13643,45394 13625,45396 13613,45397 13600,45397 13587,45395 13575,45390 13563,45384 13553,45376 13544,45366 13537,45355 13533,45347 13531,45337 13530,45328 13530,45318 13513,45303 13498,45286 13485,45266 13475,45245 13464,45212 13454,45178 13445,45144 13437,45109 13431,45075 13426,45040 13423,45005 13421,44969 13417,44925 13414,44882 13411,44838 13409,44795 13409,44752 13410,44708 13411,44665 13414,44621 13417,44578 13421,44535 13426,44492 13432,44449 13438,44406 13445,44363 13454,44320 13463,44278 13467,44260 13472,44242 13479,44226 13488,44210 13499,44195 13511,44181 13524,44169 13539,44159 13551,44152 13563,44147 13575,44142 13588,44139 13601,44136 13614,44134 13627,44134 13640,44134 13667,44137 13693,44141 13693,44130 13755,44133 13759,44171 13760,44209 13758,44247 13754,44285 13747,44322 13737,44359 13725,44395 13710,44430 13646,44411 13641,44399 13632,44406 13622,44412 13611,44416 13600,44418 13588,44418 13577,44416 13566,44412 13556,44406 13534,44390 13536,44455 13544,44477 13551,44500 13557,44522 13563,44546 13567,44569 13570,44592 13573,44615 13575,44639 13575,44687 13574,44734 13572,44782 13567,44829 13561,44876 13553,44923 13544,44971 13533,45017 13529,45072 13562,45042 Z"/>
   </g>
  </g>
  <g class="com.sun.star.drawing.PolyPolygonShape">
   <g id="id8">
    <rect class="BoundingBox" stroke="none" fill="none" x="13408" y="44129" width="530" height="1270"/>
    <path fill="rgb(0,0,0)" stroke="none" d="M 13633,44327 L 13663,44329 13677,44341 13691,44343 13691,44358 13659,44358 13650,44340 13635,44341 13633,44327 Z M 13496,44297 L 13505,44284 13516,44273 13527,44263 13540,44254 13548,44265 13539,44271 13530,44279 13522,44287 13515,44296 13509,44305 13503,44315 13499,44326 13496,44337 13496,44297 Z M 13644,45249 L 13666,45239 13688,45227 13680,45237 13671,45246 13661,45255 13650,45262 13644,45249 Z M 13576,45098 L 13584,45125 13575,45138 13570,45132 13566,45124 13563,45117 13562,45109 13576,45098 Z M 13624,45254 L 13627,45271 13616,45272 13605,45272 13595,45270 13584,45267 13624,45254 Z M 13608,45117 L 13602,45109 13597,45100 13593,45090 13590,45081 13601,45077 13603,45086 13606,45095 13611,45103 13617,45110 13608,45117 Z M 13482,44494 L 13479,44560 13478,44626 13478,44692 13478,44758 13480,44824 13483,44890 13487,44957 13492,45023 13482,44957 13474,44890 13469,44824 13467,44758 13467,44692 13469,44626 13475,44560 13482,44494 Z M 13562,45042 L 13558,45024 13608,44982 13613,44996 13628,44980 13633,44976 13638,44975 13643,44976 13648,44979 13811,45195 13814,45198 13816,45203 13817,45207 13817,45212 13816,45217 13814,45221 13811,45225 13808,45228 13786,45247 13762,45265 13738,45281 13713,45296 13711,45313 13650,45331 13649,45320 13638,45325 13625,45329 13613,45331 13600,45332 13588,45332 13575,45330 13563,45327 13551,45323 13553,45330 13556,45338 13560,45345 13565,45352 13571,45358 13578,45363 13585,45367 13593,45370 13614,45372 13635,45371 13656,45367 13676,45361 13721,45346 13744,45339 13768,45333 13792,45330 13816,45329 13840,45331 13864,45334 13888,45340 13910,45349 13918,45352 13924,45356 13931,45361 13936,45367 13921,45385 13910,45376 13898,45369 13885,45362 13871,45357 13857,45353 13843,45351 13829,45351 13814,45352 13783,45355 13753,45361 13723,45369 13695,45381 13678,45386 13660,45390 13643,45394 13625,45396 13613,45397 13600,45397 13587,45395 13575,45390 13563,45384 13553,45376 13544,45366 13537,45355 13533,45347 13531,45337 13530,45328 13530,45318 13513,45303 13498,45286 13485,45266 13475,45245 13464,45212 13454,45178 13445,45144 13437,45109 13431,45075 13426,45040 13423,45005 13421,44969 13417,44925 13414,44882 13411,44838 13409,44795 13409,44752 13410,44708 13411,44665 13414,44621 13417,44578 13421,44535 13426,44492 13432,44449 13438,44406 13445,44363 13454,44320 13463,44278 13467,44260 13472,44242 13479,44226 13488,44210 13499,44195 13511,44181 13524,44169 13539,44159 13551,44152 13563,44147 13575,44142 13588,44139 13601,44136 13614,44134 13627,44134 13640,44134 13667,44137 13693,44141 13693,44130 13755,44133 13759,44171 13760,44209 13758,44247 13754,44285 13747,44322 13737,44359 13725,44395 13710,44430 13646,44411 13641,44399 13632,44406 13622,44412 13611,44416 13600,44418 13588,44418 13577,44416 13566,44412 13556,44406 13534,44390 13536,44455 13544,44477 13551,44500 13557,44522 13563,44546 13567,44569 13570,44592 13573,44615 13575,44639 13575,44687 13574,44734 13572,44782 13567,44829 13561,44876 13553,44923 13544,44971 13533,45017 13529,45072 13562,45042 Z"/>
    <path fill="none" stroke="rgb(0,0,0)" d="M 13633,44327 L 13663,44329 13677,44341 13691,44343 13691,44358 13659,44358 13650,44340 13635,44341 13633,44327 Z"/>
    <path fill="none" stroke="rgb(0,0,0)" d="M 13496,44297 L 13505,44284 13516,44273 13527,44263 13540,44254 13548,44265 13539,44271 13530,44279 13522,44287 13515,44296 13509,44305 13503,44315 13499,44326 13496,44337 13496,44297 Z"/>
    <path fill="none" stroke="rgb(0,0,0)" d="M 13644,45249 L 13666,45239 13688,45227 13680,45237 13671,45246 13661,45255 13650,45262 13644,45249 Z"/>
    <path fill="none" stroke="rgb(0,0,0)" d="M 13576,45098 L 13584,45125 13575,45138 13570,45132 13566,45124 13563,45117 13562,45109 13576,45098 Z"/>
    <path fill="none" stroke="rgb(0,0,0)" d="M 13624,45254 L 13627,45271 13616,45272 13605,45272 13595,45270 13584,45267 13624,45254 Z"/>
    <path fill="none" stroke="rgb(0,0,0)" d="M 13608,45117 L 13602,45109 13597,45100 13593,45090 13590,45081 13601,45077 13603,45086 13606,45095 13611,45103 13617,45110 13608,45117 Z"/>
    <path fill="none" stroke="rgb(0,0,0)" d="M 13482,44494 L 13479,44560 13478,44626 13478,44692 13478,44758 13480,44824 13483,44890 13487,44957 13492,45023 13482,44957 13474,44890 13469,44824 13467,44758 13467,44692 13469,44626 13475,44560 13482,44494 Z"/>
    <path fill="none" stroke="rgb(0,0,0)" d="M 13562,45042 L 13558,45024 13608,44982 13613,44996 13628,44980 13633,44976 13638,44975 13643,44976 13648,44979 13811,45195 13814,45198 13816,45203 13817,45207 13817,45212 13816,45217 13814,45221 13811,45225 13808,45228 13786,45247 13762,45265 13738,45281 13713,45296 13711,45313 13650,45331 13649,45320 13638,45325 13625,45329 13613,45331 13600,45332 13588,45332 13575,45330 13563,45327 13551,45323 13553,45330 13556,45338 13560,45345 13565,45352 13571,45358 13578,45363 13585,45367 13593,45370 13614,45372 13635,45371 13656,45367 13676,45361 13721,45346 13744,45339 13768,45333 13792,45330 13816,45329 13840,45331 13864,45334 13888,45340 13910,45349 13918,45352 13924,45356 13931,45361 13936,45367 13921,45385 13910,45376 13898,45369 13885,45362 13871,45357 13857,45353 13843,45351 13829,45351 13814,45352 13783,45355 13753,45361 13723,45369 13695,45381 13678,45386 13660,45390 13643,45394 13625,45396 13613,45397 13600,45397 13587,45395 13575,45390 13563,45384 13553,45376 13544,45366 13537,45355 13533,45347 13531,45337 13530,45328 13530,45318 13513,45303 13498,45286 13485,45266 13475,45245 13464,45212 13454,45178 13445,45144 13437,45109 13431,45075 13426,45040 13423,45005 13421,44969 13417,44925 13414,44882 13411,44838 13409,44795 13409,44752 13410,44708 13411,44665 13414,44621 13417,44578 13421,44535 13426,44492 13432,44449 13438,44406 13445,44363 13454,44320 13463,44278 13467,44260 13472,44242 13479,44226 13488,44210 13499,44195 13511,44181 13524,44169 13539,44159 13551,44152 13563,44147 13575,44142 13588,44139 13601,44136 13614,44134 13627,44134 13640,44134 13667,44137 13693,44141 13693,44130 13755,44133 13759,44171 13760,44209 13758,44247 13754,44285 13747,44322 13737,44359 13725,44395 13710,44430 13646,44411 13641,44399 13632,44406 13622,44412 13611,44416 13600,44418 13588,44418 13577,44416 13566,44412 13556,44406 13534,44390 13536,44455 13544,44477 13551,44500 13557,44522 13563,44546 13567,44569 13570,44592 13573,44615 13575,44639 13575,44687 13574,44734 13572,44782 13567,44829 13561,44876 13553,44923 13544,44971 13533,45017 13529,45072 13562,45042 Z"/>
   </g>
  </g>
 </g>
</svg>