<?xml version="1.0" encoding="UTF-8"?>
<!DOCTYPE svg PUBLIC "-//W3C//DTD SVG 1.1//EN" "http://www.w3.org/Graphics/SVG/1.1/DTD/svg11.dtd">
<svg version="1.2" width="16.68mm" height="25.03mm" viewBox="14993 43499 1668 2503" preserveAspectRatio="xMidYMid" fill-rule="evenodd" stroke-width="28.222" stroke-linejoin="round" xmlns="http://www.w3.org/2000/svg" xmlns:ooo="http://xml.openoffice.org/svg/export" xmlns:xlink="http://www.w3.org/1999/xlink" xmlns:presentation="http://sun.com/xmlns/staroffice/presentation" xmlns:smil="http://www.w3.org/2001/SMIL20/" xmlns:anim="urn:oasis:names:tc:opendocument:xmlns:animation:1.0" xml:space="preserve">
 <defs class="EmbeddedBulletChars">
  <g id="bullet-char-template-57356" transform="scale(0.00048828125,-0.00048828125)">
   <path d="M 580,1141 L 1163,571 580,0 -4,571 580,1141 Z"/>
  </g>
  <g id="bullet-char-template-57354" transform="scale(0.00048828125,-0.00048828125)">
   <path d="M 8,1128 L 1137,1128 1137,0 8,0 8,1128 Z"/>
  </g>
  <g id="bullet-char-template-10146" transform="scale(0.00048828125,-0.00048828125)">
   <path d="M 174,0 L 602,739 174,1481 1456,739 174,0 Z M 1358,739 L 309,1346 659,739 1358,739 Z"/>
  </g>
  <g id="bullet-char-template-10132" transform="scale(0.00048828125,-0.00048828125)">
   <path d="M 2015,739 L 1276,0 717,0 1260,543 174,543 174,936 1260,936 717,1481 1274,1481 2015,739 Z"/>
  </g>
  <g id="bullet-char-template-10007" transform="scale(0.00048828125,-0.00048828125)">
   <path d="M 0,-2 C -7,14 -16,27 -25,37 L 356,567 C 262,823 215,952 215,954 215,979 228,992 255,992 264,992 276,990 289,987 310,991 331,999 354,1012 L 381,999 492,748 772,1049 836,1024 860,1049 C 881,1039 901,1025 922,1006 886,937 835,863 770,784 769,783 710,716 594,584 L 774,223 C 774,196 753,168 711,139 L 727,119 C 717,90 699,76 672,76 641,76 570,178 457,381 L 164,-76 C 142,-110 111,-127 72,-127 30,-127 9,-110 8,-76 1,-67 -2,-52 -2,-32 -2,-23 -1,-13 0,-2 Z"/>
  </g>
  <g id="bullet-char-template-10004" transform="scale(0.00048828125,-0.00048828125)">
   <path d="M 285,-33 C 182,-33 111,30 74,156 52,228 41,333 41,471 41,549 55,616 82,672 116,743 169,778 240,778 293,778 328,747 346,684 L 369,508 C 377,444 397,411 428,410 L 1163,1116 C 1174,1127 1196,1133 1229,1133 1271,1133 1292,1118 1292,1087 L 1292,965 C 1292,929 1282,901 1262,881 L 442,47 C 390,-6 338,-33 285,-33 Z"/>
  </g>
  <g id="bullet-char-template-9679" transform="scale(0.00048828125,-0.00048828125)">
   <path d="M 813,0 C 632,0 489,54 383,161 276,268 223,411 223,592 223,773 276,916 383,1023 489,1130 632,1184 813,1184 992,1184 1136,1130 1245,1023 1353,916 1407,772 1407,592 1407,412 1353,268 1245,161 1136,54 992,0 813,0 Z"/>
  </g>
  <g id="bullet-char-template-8226" transform="scale(0.00048828125,-0.00048828125)">
   <path d="M 346,457 C 273,457 209,483 155,535 101,586 74,649 74,723 74,796 101,859 155,911 209,963 273,989 346,989 419,989 480,963 531,910 582,859 608,796 608,723 608,648 583,586 532,535 482,483 420,457 346,457 Z"/>
  </g>
  <g id="bullet-char-template-8211" transform="scale(0.00048828125,-0.00048828125)">
   <path d="M -4,459 L 1135,459 1135,606 -4,606 -4,459 Z"/>
  </g>
  <g id="bullet-char-template-61548" transform="scale(0.00048828125,-0.00048828125)">
   <path d="M 173,740 C 173,903 231,1043 346,1159 462,1274 601,1332 765,1332 928,1332 1067,1274 1183,1159 1299,1043 1357,903 1357,740 1357,577 1299,437 1183,322 1067,206 928,148 765,148 601,148 462,206 346,322 231,437 173,577 173,740 Z"/>
  </g>
 </defs>
 <g class="Page">
  <g class="com.sun.star.drawing.PolyPolygonShape">
   <g id="id3">
    <rect class="BoundingBox" stroke="none" fill="none" x="14993" y="43499" width="1668" height="2503"/>
    <path fill="rgb(0,0,255)" stroke="none" d="M 14994,45813 L 14994,43687 14994,43682 14994,43678 14994,43673 14994,43669 14995,43664 14996,43660 14996,43655 14997,43651 14998,43646 14999,43642 15000,43637 15002,43633 15003,43628 15005,43624 15006,43620 15008,43615 15010,43611 15012,43607 15014,43603 15016,43599 15018,43595 15020,43591 15023,43587 15025,43583 15028,43579 15031,43575 15033,43572 15036,43568 15039,43565 15042,43561 15045,43558 15049,43555 15052,43551 15055,43548 15059,43545 15062,43542 15066,43539 15069,43536 15073,43534 15077,43531 15081,43529 15085,43526 15089,43524 15093,43522 15097,43520 15101,43518 15105,43516 15109,43514 15113,43512 15118,43511 15122,43509 15127,43508 15131,43506 15135,43505 15140,43504 15144,43503 15149,43502 15153,43502 15158,43501 15163,43500 15167,43500 15172,43500 15176,43500 15181,43500 16472,43500 16476,43500 16481,43500 16486,43500 16490,43500 16495,43501 16499,43502 16504,43502 16508,43503 16513,43504 16517,43505 16522,43506 16526,43508 16531,43509 16535,43511 16539,43512 16544,43514 16548,43516 16552,43518 16556,43520 16560,43522 16564,43524 16568,43526 16572,43529 16576,43531 16580,43534 16583,43536 16587,43539 16591,43542 16594,43545 16598,43548 16601,43551 16604,43555 16607,43558 16611,43561 16614,43565 16617,43568 16620,43572 16622,43575 16625,43579 16628,43583 16630,43587 16632,43591 16635,43595 16637,43599 16639,43603 16641,43607 16643,43611 16645,43615 16647,43620 16648,43624 16650,43628 16651,43633 16652,43637 16653,43642 16655,43646 16656,43651 16656,43655 16657,43660 16658,43664 16658,43669 16659,43673 16659,43678 16659,43682 16659,43687 16659,45813 16659,45818 16659,45822 16659,45827 16658,45831 16658,45836 16657,45840 16656,45845 16656,45849 16655,45854 16653,45858 16652,45863 16651,45867 16650,45872 16648,45876 16647,45880 16645,45885 16643,45889 16641,45893 16639,45897 16637,45901 16635,45905 16632,45909 16630,45913 16628,45917 16625,45921 16622,45925 16620,45928 16617,45932 16614,45935 16611,45939 16607,45942 16604,45945 16601,45949 16598,45952 16594,45955 16591,45958 16587,45961 16583,45963 16580,45966 16576,45969 16572,45971 16568,45974 16564,45976 16560,45978 16556,45980 16552,45982 16548,45984 16544,45986 16539,45988 16535,45989 16531,45991 16526,45992 16522,45994 16517,45995 16513,45996 16508,45997 16504,45998 16499,45998 16495,45999 16490,45999 16486,46000 16481,46000 16476,46000 16472,46000 15181,46000 15176,46000 15172,46000 15167,46000 15163,45999 15158,45999 15153,45998 15149,45998 15144,45997 15140,45996 15135,45995 15131,45994 15127,45992 15122,45991 15118,45989 15113,45988 15109,45986 15105,45984 15101,45982 15097,45980 15093,45978 15089,45976 15085,45974 15081,45971 15077,45969 15073,45966 15069,45963 15066,45961 15062,45958 15059,45955 15055,45952 15052,45949 15049,45945 15045,45942 15042,45939 15039,45935 15036,45932 15033,45928 15031,45925 15028,45921 15025,45917 15023,45913 15020,45909 15018,45905 15016,45901 15014,45897 15012,45893 15010,45889 15008,45885 15006,45880 15005,45876 15003,45872 15002,45867 15000,45863 14999,45858 14998,45854 14997,45849 14996,45845 14996,45840 14995,45836 14994,45831 14994,45827 14994,45822 14994,45818 14994,45813 Z"/>
    <path fill="none" stroke="rgb(0,0,255)" d="M 14994,45813 L 14994,43687 14994,43682 14994,43678 14994,43673 14994,43669 14995,43664 14996,43660 14996,43655 14997,43651 14998,43646 14999,43642 15000,43637 15002,43633 15003,43628 15005,43624 15006,43620 15008,43615 15010,43611 15012,43607 15014,43603 15016,43599 15018,43595 15020,43591 15023,43587 15025,43583 15028,43579 15031,43575 15033,43572 15036,43568 15039,43565 15042,43561 15045,43558 15049,43555 15052,43551 15055,43548 15059,43545 15062,43542 15066,43539 15069,43536 15073,43534 15077,43531 15081,43529 15085,43526 15089,43524 15093,43522 15097,43520 15101,43518 15105,43516 15109,43514 15113,43512 15118,43511 15122,43509 15127,43508 15131,43506 15135,43505 15140,43504 15144,43503 15149,43502 15153,43502 15158,43501 15163,43500 15167,43500 15172,43500 15176,43500 15181,43500 16472,43500 16476,43500 16481,43500 16486,43500 16490,43500 16495,43501 16499,43502 16504,43502 16508,43503 16513,43504 16517,43505 16522,43506 16526,43508 16531,43509 16535,43511 16539,43512 16544,43514 16548,43516 16552,43518 16556,43520 16560,43522 16564,43524 16568,43526 16572,43529 16576,43531 16580,43534 16583,43536 16587,43539 16591,43542 16594,43545 16598,43548 16601,43551 16604,43555 16607,43558 16611,43561 16614,43565 16617,43568 16620,43572 16622,43575 16625,43579 16628,43583 16630,43587 16632,43591 16635,43595 16637,43599 16639,43603 16641,43607 16643,43611 16645,43615 16647,43620 16648,43624 16650,43628 16651,43633 16652,43637 16653,43642 16655,43646 16656,43651 16656,43655 16657,43660 16658,43664 16658,43669 16659,43673 16659,43678 16659,43682 16659,43687 16659,45813 16659,45818 16659,45822 16659,45827 16658,45831 16658,45836 16657,45840 16656,45845 16656,45849 16655,45854 16653,45858 16652,45863 16651,45867 16650,45872 16648,45876 16647,45880 16645,45885 16643,45889 16641,45893 16639,45897 16637,45901 16635,45905 16632,45909 16630,45913 16628,45917 16625,45921 16622,45925 16620,45928 16617,45932 16614,45935 16611,45939 16607,45942 16604,45945 16601,45949 16598,45952 16594,45955 16591,45958 16587,45961 16583,45963 16580,45966 16576,45969 16572,45971 16568,45974 16564,45976 16560,45978 16556,45980 16552,45982 16548,45984 16544,45986 16539,45988 16535,45989 16531,45991 16526,45992 16522,45994 16517,45995 16513,45996 16508,45997 16504,45998 16499,45998 16495,45999 16490,45999 16486,46000 16481,46000 16476,46000 16472,46000 15181,46000 15176,46000 15172,46000 15167,46000 15163,45999 15158,45999 15153,45998 15149,45998 15144,45997 15140,45996 15135,45995 15131,45994 15127,45992 15122,45991 15118,45989 15113,45988 15109,45986 15105,45984 15101,45982 15097,45980 15093,45978 15089,45976 15085,45974 15081,45971 15077,45969 15073,45966 15069,45963 15066,45961 15062,45958 15059,45955 15055,45952 15052,45949 15049,45945 15045,45942 15042,45939 15039,45935 15036,45932 15033,45928 15031,45925 15028,45921 15025,45917 15023,45913 15020,45909 15018,45905 15016,45901 15014,45897 15012,45893 15010,45889 15008,45885 15006,45880 15005,45876 15003,45872 15002,45867 15000,45863 14999,45858 14998,45854 14997,45849 14996,45845 14996,45840 14995,45836 14994,45831 14994,45827 14994,45822 14994,45818 14994,45813 Z"/>
   </g>
  </g>
  <g class="com.sun.star.drawing.PolyPolygonShape">
   <g id="id4">
    <rect class="BoundingBox" stroke="none" fill="none" x="15055" y="43561" width="1544" height="2379"/>
    <path fill="rgb(255,255,255)" stroke="none" d="M 15056,45813 L 15056,43687 15056,43684 15056,43681 15056,43678 15057,43675 15057,43672 15057,43669 15058,43666 15058,43663 15059,43660 15060,43657 15061,43654 15061,43651 15062,43648 15063,43645 15064,43642 15066,43639 15067,43636 15068,43634 15069,43631 15071,43628 15072,43626 15074,43623 15075,43620 15077,43618 15079,43615 15081,43612 15082,43610 15084,43608 15086,43605 15088,43603 15090,43601 15093,43599 15095,43597 15097,43594 15099,43592 15102,43590 15104,43589 15106,43587 15109,43585 15111,43583 15114,43581 15117,43580 15119,43578 15122,43577 15125,43575 15127,43574 15130,43573 15133,43572 15136,43570 15139,43569 15142,43568 15145,43568 15148,43567 15150,43566 15154,43565 15156,43564 15159,43564 15163,43563 15166,43563 15169,43563 15172,43562 15175,43562 15178,43562 15181,43562 16472,43562 16475,43562 16478,43562 16481,43562 16484,43563 16487,43563 16490,43563 16493,43564 16496,43564 16499,43565 16502,43566 16505,43567 16508,43568 16511,43568 16514,43569 16517,43570 16520,43572 16522,43573 16525,43574 16528,43575 16531,43577 16533,43578 16536,43580 16539,43581 16541,43583 16544,43585 16546,43587 16549,43589 16551,43590 16553,43592 16556,43594 16558,43597 16560,43599 16562,43601 16564,43603 16566,43605 16568,43608 16570,43610 16572,43612 16574,43615 16576,43618 16577,43620 16579,43623 16581,43626 16582,43628 16583,43631 16585,43634 16586,43636 16587,43639 16588,43642 16589,43645 16590,43648 16591,43651 16592,43654 16593,43657 16594,43660 16594,43663 16595,43666 16595,43669 16596,43672 16596,43675 16596,43678 16597,43681 16597,43684 16597,43687 16597,45813 16597,45816 16597,45819 16596,45822 16596,45825 16596,45828 16595,45831 16595,45834 16594,45837 16594,45840 16593,45843 16592,45846 16591,45849 16590,45852 16589,45855 16588,45858 16587,45861 16586,45864 16585,45866 16583,45869 16582,45872 16581,45875 16579,45877 16577,45880 16576,45882 16574,45885 16572,45887 16570,45890 16568,45892 16566,45895 16564,45897 16562,45899 16560,45901 16558,45904 16556,45906 16553,45908 16551,45910 16549,45911 16546,45913 16544,45915 16541,45917 16539,45919 16536,45920 16533,45922 16531,45923 16528,45925 16525,45926 16522,45927 16520,45928 16517,45930 16514,45931 16511,45932 16508,45932 16505,45933 16502,45934 16499,45935 16496,45936 16493,45936 16490,45937 16487,45937 16484,45937 16481,45938 16478,45938 16475,45938 16472,45938 15181,45938 15178,45938 15175,45938 15172,45938 15169,45937 15166,45937 15163,45937 15159,45936 15156,45936 15154,45935 15150,45934 15148,45933 15145,45932 15142,45932 15139,45931 15136,45930 15133,45928 15130,45927 15127,45926 15125,45925 15122,45923 15119,45922 15117,45920 15114,45919 15111,45917 15109,45915 15106,45913 15104,45911 15102,45910 15099,45908 15097,45906 15095,45904 15093,45901 15090,45899 15088,45897 15086,45895 15084,45892 15082,45890 15081,45887 15079,45885 15077,45882 15075,45880 15074,45877 15072,45875 15071,45872 15069,45869 15068,45866 15067,45864 15066,45861 15064,45858 15063,45855 15062,45852 15061,45849 15061,45846 15060,45843 15059,45840 15058,45837 15058,45834 15057,45831 15057,45828 15057,45825 15056,45822 15056,45819 15056,45816 15056,45813 Z"/>
    <path fill="none" stroke="rgb(255,255,255)" d="M 15056,45813 L 15056,43687 15056,43684 15056,43681 15056,43678 15057,43675 15057,43672 15057,43669 15058,43666 15058,43663 15059,43660 15060,43657 15061,43654 15061,43651 15062,43648 15063,43645 15064,43642 15066,43639 15067,43636 15068,43634 15069,43631 15071,43628 15072,43626 15074,43623 15075,43620 15077,43618 15079,43615 15081,43612 15082,43610 15084,43608 15086,43605 15088,43603 15090,43601 15093,43599 15095,43597 15097,43594 15099,43592 15102,43590 15104,43589 15106,43587 15109,43585 15111,43583 15114,43581 15117,43580 15119,43578 15122,43577 15125,43575 15127,43574 15130,43573 15133,43572 15136,43570 15139,43569 15142,43568 15145,43568 15148,43567 15150,43566 15154,43565 15156,43564 15159,43564 15163,43563 15166,43563 15169,43563 15172,43562 15175,43562 15178,43562 15181,43562 16472,43562 16475,43562 16478,43562 16481,43562 16484,43563 16487,43563 16490,43563 16493,43564 16496,43564 16499,43565 16502,43566 16505,43567 16508,43568 16511,43568 16514,43569 16517,43570 16520,43572 16522,43573 16525,43574 16528,43575 16531,43577 16533,43578 16536,43580 16539,43581 16541,43583 16544,43585 16546,43587 16549,43589 16551,43590 16553,43592 16556,43594 16558,43597 16560,43599 16562,43601 16564,43603 16566,43605 16568,43608 16570,43610 16572,43612 16574,43615 16576,43618 16577,43620 16579,43623 16581,43626 16582,43628 16583,43631 16585,43634 16586,43636 16587,43639 16588,43642 16589,43645 16590,43648 16591,43651 16592,43654 16593,43657 16594,43660 16594,43663 16595,43666 16595,43669 16596,43672 16596,43675 16596,43678 16597,43681 16597,43684 16597,43687 16597,45813 16597,45816 16597,45819 16596,45822 16596,45825 16596,45828 16595,45831 16595,45834 16594,45837 16594,45840 16593,45843 16592,45846 16591,45849 16590,45852 16589,45855 16588,45858 16587,45861 16586,45864 16585,45866 16583,45869 16582,45872 16581,45875 16579,45877 16577,45880 16576,45882 16574,45885 16572,45887 16570,45890 16568,45892 16566,45895 16564,45897 16562,45899 16560,45901 16558,45904 16556,45906 16553,45908 16551,45910 16549,45911 16546,45913 16544,45915 16541,45917 16539,45919 16536,45920 16533,45922 16531,45923 16528,45925 16525,45926 16522,45927 16520,45928 16517,45930 16514,45931 16511,45932 16508,45932 16505,45933 16502,45934 16499,45935 16496,45936 16493,45936 16490,45937 16487,45937 16484,45937 16481,45938 16478,45938 16475,45938 16472,45938 15181,45938 15178,45938 15175,45938 15172,45938 15169,45937 15166,45937 15163,45937 15159,45936 15156,45936 15154,45935 15150,45934 15148,45933 15145,45932 15142,45932 15139,45931 15136,45930 15133,45928 15130,45927 15127,45926 15125,45925 15122,45923 15119,45922 15117,45920 15114,45919 15111,45917 15109,45915 15106,45913 15104,45911 15102,45910 15099,45908 15097,45906 15095,45904 15093,45901 15090,45899 15088,45897 15086,45895 15084,45892 15082,45890 15081,45887 15079,45885 15077,45882 15075,45880 15074,45877 15072,45875 15071,45872 15069,45869 15068,45866 15067,45864 15066,45861 15064,45858 15063,45855 15062,45852 15061,45849 15061,45846 15060,45843 15059,45840 15058,45837 15058,45834 15057,45831 15057,45828 15057,45825 15056,45822 15056,45819 15056,45816 15056,45813 Z"/>
   </g>
  </g>
  <g class="com.sun.star.drawing.PolyPolygonShape">
   <g id="id5">
    <rect class="BoundingBox" stroke="none" fill="none" x="15118" y="43624" width="1418" height="2253"/>
    <path fill="rgb(0,0,255)" stroke="none" d="M 15119,45813 L 15119,43687 15119,43686 15119,43684 15119,43682 15119,43681 15119,43679 15119,43678 15119,43676 15120,43675 15120,43673 15120,43672 15121,43670 15121,43669 15122,43668 15122,43666 15123,43665 15123,43663 15124,43662 15124,43660 15125,43659 15126,43658 15127,43656 15127,43655 15128,43654 15129,43652 15130,43651 15131,43650 15132,43649 15133,43647 15134,43646 15135,43645 15136,43644 15137,43643 15138,43642 15139,43641 15140,43640 15141,43639 15142,43638 15144,43637 15145,43636 15146,43635 15147,43634 15149,43633 15150,43633 15151,43632 15153,43631 15154,43631 15156,43630 15157,43629 15158,43629 15160,43628 15161,43628 15163,43627 15164,43627 15166,43626 15167,43626 15169,43626 15170,43626 15172,43625 15173,43625 15175,43625 15176,43625 15178,43625 15179,43625 15181,43625 16472,43625 16473,43625 16475,43625 16476,43625 16478,43625 16480,43625 16481,43625 16483,43626 16484,43626 16485,43626 16487,43626 16489,43627 16490,43627 16491,43628 16493,43628 16494,43629 16496,43629 16497,43630 16499,43631 16500,43631 16501,43632 16503,43633 16504,43633 16505,43634 16506,43635 16508,43636 16509,43637 16510,43638 16511,43639 16513,43640 16514,43641 16515,43642 16516,43643 16517,43644 16518,43645 16519,43646 16520,43647 16521,43649 16522,43650 16523,43651 16524,43652 16525,43654 16525,43655 16526,43656 16527,43658 16528,43659 16528,43660 16529,43662 16530,43663 16530,43665 16531,43666 16531,43668 16532,43669 16532,43670 16532,43672 16533,43673 16533,43675 16533,43676 16534,43678 16534,43679 16534,43681 16534,43682 16534,43684 16534,43686 16534,43687 16534,45813 16534,45815 16534,45816 16534,45818 16534,45819 16534,45821 16534,45822 16533,45824 16533,45825 16533,45827 16532,45828 16532,45830 16532,45831 16531,45832 16531,45834 16530,45835 16530,45837 16529,45838 16528,45840 16528,45841 16527,45842 16526,45844 16525,45845 16525,45846 16524,45848 16523,45849 16522,45850 16521,45851 16520,45853 16519,45854 16518,45855 16517,45856 16516,45857 16515,45858 16514,45859 16513,45860 16511,45861 16510,45862 16509,45863 16508,45864 16506,45865 16505,45866 16504,45867 16503,45867 16501,45868 16500,45869 16499,45869 16497,45870 16496,45871 16494,45871 16493,45872 16491,45872 16490,45873 16489,45873 16487,45874 16485,45874 16484,45874 16483,45875 16481,45875 16480,45875 16478,45875 16476,45875 16475,45875 16473,45875 16472,45875 15181,45875 15179,45875 15178,45875 15176,45875 15175,45875 15173,45875 15172,45875 15170,45875 15169,45874 15167,45874 15166,45874 15164,45873 15163,45873 15161,45872 15160,45872 15158,45871 15157,45871 15156,45870 15154,45869 15153,45869 15151,45868 15150,45867 15149,45867 15147,45866 15146,45865 15145,45864 15144,45863 15142,45862 15141,45861 15140,45860 15139,45859 15138,45858 15137,45857 15136,45856 15135,45855 15134,45854 15133,45853 15132,45851 15131,45850 15130,45849 15129,45848 15128,45846 15127,45845 15127,45844 15126,45842 15125,45841 15124,45840 15124,45838 15123,45837 15123,45835 15122,45834 15122,45832 15121,45831 15121,45830 15120,45828 15120,45827 15120,45825 15119,45824 15119,45822 15119,45821 15119,45819 15119,45818 15119,45816 15119,45815 15119,45813 Z"/>
    <path fill="none" stroke="rgb(0,0,255)" d="M 15119,45813 L 15119,43687 15119,43686 15119,43684 15119,43682 15119,43681 15119,43679 15119,43678 15119,43676 15120,43675 15120,43673 15120,43672 15121,43670 15121,43669 15122,43668 15122,43666 15123,43665 15123,43663 15124,43662 15124,43660 15125,43659 15126,43658 15127,43656 15127,43655 15128,43654 15129,43652 15130,43651 15131,43650 15132,43649 15133,43647 15134,43646 15135,43645 15136,43644 15137,43643 15138,43642 15139,43641 15140,43640 15141,43639 15142,43638 15144,43637 15145,43636 15146,43635 15147,43634 15149,43633 15150,43633 15151,43632 15153,43631 15154,43631 15156,43630 15157,43629 15158,43629 15160,43628 15161,43628 15163,43627 15164,43627 15166,43626 15167,43626 15169,43626 15170,43626 15172,43625 15173,43625 15175,43625 15176,43625 15178,43625 15179,43625 15181,43625 16472,43625 16473,43625 16475,43625 16476,43625 16478,43625 16480,43625 16481,43625 16483,43626 16484,43626 16485,43626 16487,43626 16489,43627 16490,43627 16491,43628 16493,43628 16494,43629 16496,43629 16497,43630 16499,43631 16500,43631 16501,43632 16503,43633 16504,43633 16505,43634 16506,43635 16508,43636 16509,43637 16510,43638 16511,43639 16513,43640 16514,43641 16515,43642 16516,43643 16517,43644 16518,43645 16519,43646 16520,43647 16521,43649 16522,43650 16523,43651 16524,43652 16525,43654 16525,43655 16526,43656 16527,43658 16528,43659 16528,43660 16529,43662 16530,43663 16530,43665 16531,43666 16531,43668 16532,43669 16532,43670 16532,43672 16533,43673 16533,43675 16533,43676 16534,43678 16534,43679 16534,43681 16534,43682 16534,43684 16534,43686 16534,43687 16534,45813 16534,45815 16534,45816 16534,45818 16534,45819 16534,45821 16534,45822 16533,45824 16533,45825 16533,45827 16532,45828 16532,45830 16532,45831 16531,45832 16531,45834 16530,45835 16530,45837 16529,45838 16528,45840 16528,45841 16527,45842 16526,45844 16525,45845 16525,45846 16524,45848 16523,45849 16522,45850 16521,45851 16520,45853 16519,45854 16518,45855 16517,45856 16516,45857 16515,45858 16514,45859 16513,45860 16511,45861 16510,45862 16509,45863 16508,45864 16506,45865 16505,45866 16504,45867 16503,45867 16501,45868 16500,45869 16499,45869 16497,45870 16496,45871 16494,45871 16493,45872 16491,45872 16490,45873 16489,45873 16487,45874 16485,45874 16484,45874 16483,45875 16481,45875 16480,45875 16478,45875 16476,45875 16475,45875 16473,45875 16472,45875 15181,45875 15179,45875 15178,45875 15176,45875 15175,45875 15173,45875 15172,45875 15170,45875 15169,45874 15167,45874 15166,45874 15164,45873 15163,45873 15161,45872 15160,45872 15158,45871 15157,45871 15156,45870 15154,45869 15153,45869 15151,45868 15150,45867 15149,45867 15147,45866 15146,45865 15145,45864 15144,45863 15142,45862 15141,45861 15140,45860 15139,45859 15138,45858 15137,45857 15136,45856 15135,45855 15134,45854 15133,45853 15132,45851 15131,45850 15130,45849 15129,45848 15128,45846 15127,45845 15127,45844 15126,45842 15125,45841 15124,45840 15124,45838 15123,45837 15123,45835 15122,45834 15122,45832 15121,45831 15121,45830 15120,45828 15120,45827 15120,45825 15119,45824 15119,45822 15119,45821 15119,45819 15119,45818 15119,45816 15119,45815 15119,45813 Z"/>
   </g>
  </g>
  <g class="com.sun.star.drawing.PolyPolygonShape">
   <g id="id6">
    <rect class="BoundingBox" stroke="none" fill="none" x="15409" y="44082" width="836" height="1378"/>
    <path fill="rgb(255,255,255)" stroke="none" d="M 16243,44083 L 15410,44083 15410,45458 16243,45458 16243,44083 Z"/>
    <path fill="none" stroke="rgb(255,255,255)" d="M 16243,44083 L 15410,44083 15410,45458 16243,45458 16243,44083 Z"/>
   </g>
  </g>
  <g class="com.sun.star.drawing.PolyPolygonShape">
   <g id="id7">
    <rect class="BoundingBox" stroke="none" fill="none" x="15948" y="44896" width="214" height="322"/>
    <path fill="rgb(0,0,0)" stroke="none" d="M 15949,45132 L 15949,45121 16006,45121 16006,45132 16006,45133 16007,45134 16007,45135 16007,45136 16007,45137 16007,45138 16008,45139 16008,45140 16008,45141 16009,45142 16009,45143 16010,45144 16010,45145 16011,45146 16012,45147 16012,45148 16013,45148 16014,45149 16014,45150 16015,45150 16016,45151 16017,45152 16018,45153 16019,45153 16020,45154 16021,45154 16022,45155 16023,45155 16025,45156 16027,45156 16029,45157 16031,45157 16033,45158 16035,45158 16037,45158 16039,45159 16041,45159 16043,45159 16045,45160 16047,45160 16049,45160 16051,45160 16053,45160 16055,45160 16057,45160 16059,45160 16061,45160 16063,45160 16065,45160 16067,45159 16069,45159 16071,45159 16073,45158 16075,45158 16077,45158 16079,45157 16081,45157 16083,45156 16085,45156 16087,45155 16088,45155 16089,45155 16089,45154 16090,45154 16091,45153 16092,45153 16093,45152 16094,45151 16095,45151 16095,45150 16096,45150 16097,45149 16097,45148 16098,45148 16099,45147 16099,45146 16100,45145 16101,45144 16101,45143 16102,45142 16102,45141 16102,45140 16103,45139 16103,45138 16103,45137 16103,45136 16104,45135 16104,45134 16104,45133 16104,45132 16104,45131 16104,45130 16104,45129 16104,45128 16103,45127 16103,45126 16103,45125 16103,45124 16102,45123 16102,45122 16101,45121 16101,45120 16100,45119 16100,45118 16099,45118 16099,45117 16098,45116 16097,45115 16097,45114 16096,45114 16095,45113 16094,45113 16094,45112 16093,45111 16092,45111 16091,45110 16090,45110 16003,45047 16000,45045 15997,45044 15995,45042 15992,45041 15990,45039 15987,45037 15984,45035 15982,45034 15980,45031 15978,45029 15976,45027 15974,45025 15972,45023 15971,45020 15969,45018 15968,45015 15966,45013 15965,45010 15964,45007 15963,45005 15961,45002 15961,44999 15960,44995 15959,44992 15959,44990 15958,44987 15958,44984 15958,44981 15957,44978 15957,44975 15958,44972 15958,44969 15958,44966 15958,44963 15959,44960 15960,44957 15960,44955 15961,44952 15962,44949 15964,44946 15965,44944 15966,44941 15967,44938 15969,44936 15970,44933 15972,44931 15974,44929 15976,44927 15978,44924 15980,44922 15982,44920 15984,44918 15986,44916 15988,44914 15992,44913 15994,44911 15997,44910 16000,44908 16002,44907 16005,44906 16008,44905 16010,44904 16013,44903 16016,44902 16018,44901 16021,44901 16023,44900 16026,44900 16028,44899 16030,44899 16033,44899 16035,44898 16038,44898 16040,44898 16043,44898 16045,44897 16048,44897 16050,44897 16053,44897 16055,44897 16058,44897 16060,44897 16063,44897 16065,44897 16068,44898 16070,44898 16072,44898 16075,44898 16077,44899 16080,44899 16082,44899 16085,44900 16087,44900 16089,44901 16092,44901 16094,44902 16096,44902 16097,44903 16099,44903 16100,44904 16102,44904 16103,44905 16105,44905 16106,44906 16108,44907 16109,44907 16111,44908 16112,44909 16113,44910 16115,44910 16116,44911 16117,44912 16119,44913 16120,44914 16121,44915 16122,44916 16124,44917 16125,44918 16126,44919 16127,44920 16128,44921 16129,44922 16131,44923 16132,44924 16133,44926 16134,44927 16135,44928 16136,44929 16137,44930 16138,44932 16139,44933 16139,44934 16140,44936 16141,44937 16142,44938 16143,44940 16143,44941 16144,44943 16145,44944 16145,44945 16146,44947 16147,44948 16147,44950 16148,44951 16148,44953 16149,44954 16149,44956 16149,44957 16150,44959 16150,44960 16150,44962 16151,44964 16151,44965 16151,44967 16151,44968 16152,44970 16152,44971 16152,44973 16152,44975 16152,44976 16096,44976 16096,44975 16096,44974 16096,44973 16095,44972 16095,44971 16095,44970 16095,44969 16094,44968 16094,44967 16093,44966 16093,44965 16092,44964 16092,44963 16091,44963 16090,44962 16089,44961 16089,44960 16088,44960 16087,44959 16086,44958 16085,44958 16084,44958 16084,44957 16083,44957 16082,44957 16081,44956 16080,44956 16077,44955 16074,44955 16071,44954 16068,44954 16065,44953 16061,44953 16058,44953 16055,44953 16052,44953 16049,44953 16046,44953 16042,44954 16039,44954 16036,44955 16033,44955 16030,44956 16028,44957 16027,44957 16025,44958 16024,44959 16023,44959 16022,44961 16020,44962 16019,44963 16018,44964 16017,44965 16017,44967 16016,44968 16015,44970 16015,44971 16015,44973 16014,44974 16014,44976 16014,44977 16014,44979 16015,44981 16015,44982 16016,44984 16016,44985 16017,44986 16018,44988 16019,44989 16020,44990 16021,44991 16022,44992 16023,44993 16025,44994 16026,44995 16113,45059 16116,45060 16119,45062 16121,45063 16124,45065 16126,45066 16129,45068 16131,45070 16133,45072 16136,45074 16138,45076 16140,45079 16142,45081 16143,45083 16145,45086 16147,45088 16148,45091 16150,45093 16151,45096 16153,45099 16154,45102 16155,45104 16156,45107 16157,45110 16158,45113 16158,45116 16159,45119 16159,45122 16160,45125 16160,45128 16160,45131 16160,45134 16160,45137 16159,45140 16159,45143 16159,45146 16158,45149 16157,45152 16156,45155 16155,45158 16154,45160 16153,45163 16152,45166 16151,45169 16149,45171 16148,45174 16146,45176 16145,45179 16143,45181 16141,45184 16139,45186 16137,45188 16135,45190 16132,45192 16130,45194 16128,45196 16125,45198 16123,45200 16120,45201 16118,45203 16115,45204 16112,45205 16109,45206 16107,45207 16104,45208 16101,45209 16098,45210 16095,45211 16092,45212 16089,45212 16086,45213 16083,45214 16080,45214 16077,45214 16074,45215 16071,45215 16067,45216 16064,45216 16061,45216 16058,45216 16055,45216 16052,45216 16049,45216 16046,45216 16043,45216 16040,45215 16037,45215 16034,45215 16031,45214 16027,45214 16024,45213 16021,45212 16018,45212 16015,45211 16012,45210 16009,45209 16006,45208 16005,45208 16003,45207 16002,45207 16000,45206 15999,45206 15998,45205 15996,45204 15995,45204 15993,45203 15992,45202 15991,45201 15988,45201 15987,45200 15985,45199 15984,45198 15983,45197 15982,45196 15980,45195 15979,45194 15978,45193 15977,45192 15976,45191 15974,45190 15973,45189 15972,45188 15971,45187 15970,45185 15969,45184 15968,45183 15967,45182 15966,45181 15965,45179 15964,45178 15963,45177 15962,45175 15961,45174 15961,45173 15960,45171 15959,45170 15958,45168 15958,45167 15957,45166 15956,45164 15956,45163 15955,45161 15955,45160 15954,45158 15953,45157 15953,45155 15952,45154 15952,45152 15952,45151 15951,45149 15951,45147 15951,45146 15950,45144 15950,45143 15950,45141 15950,45140 15950,45138 15950,45137 15950,45135 15949,45133 15949,45132 Z"/>
    <path fill="none" stroke="rgb(0,0,0)" d="M 15949,45132 L 15949,45121 16006,45121 16006,45132 16006,45133 16007,45134 16007,45135 16007,45136 16007,45137 16007,45138 16008,45139 16008,45140 16008,45141 16009,45142 16009,45143 16010,45144 16010,45145 16011,45146 16012,45147 16012,45148 16013,45148 16014,45149 16014,45150 16015,45150 16016,45151 16017,45152 16018,45153 16019,45153 16020,45154 16021,45154 16022,45155 16023,45155 16025,45156 16027,45156 16029,45157 16031,45157 16033,45158 16035,45158 16037,45158 16039,45159 16041,45159 16043,45159 16045,45160 16047,45160 16049,45160 16051,45160 16053,45160 16055,45160 16057,45160 16059,45160 16061,45160 16063,45160 16065,45160 16067,45159 16069,45159 16071,45159 16073,45158 16075,45158 16077,45158 16079,45157 16081,45157 16083,45156 16085,45156 16087,45155 16088,45155 16089,45155 16089,45154 16090,45154 16091,45153 16092,45153 16093,45152 16094,45151 16095,45151 16095,45150 16096,45150 16097,45149 16097,45148 16098,45148 16099,45147 16099,45146 16100,45145 16101,45144 16101,45143 16102,45142 16102,45141 16102,45140 16103,45139 16103,45138 16103,45137 16103,45136 16104,45135 16104,45134 16104,45133 16104,45132 16104,45131 16104,45130 16104,45129 16104,45128 16103,45127 16103,45126 16103,45125 16103,45124 16102,45123 16102,45122 16101,45121 16101,45120 16100,45119 16100,45118 16099,45118 16099,45117 16098,45116 16097,45115 16097,45114 16096,45114 16095,45113 16094,45113 16094,45112 16093,45111 16092,45111 16091,45110 16090,45110 16003,45047 16000,45045 15997,45044 15995,45042 15992,45041 15990,45039 15987,45037 15984,45035 15982,45034 15980,45031 15978,45029 15976,45027 15974,45025 15972,45023 15971,45020 15969,45018 15968,45015 15966,45013 15965,45010 15964,45007 15963,45005 15961,45002 15961,44999 15960,44995 15959,44992 15959,44990 15958,44987 15958,44984 15958,44981 15957,44978 15957,44975 15958,44972 15958,44969 15958,44966 15958,44963 15959,44960 15960,44957 15960,44955 15961,44952 15962,44949 15964,44946 15965,44944 15966,44941 15967,44938 15969,44936 15970,44933 15972,44931 15974,44929 15976,44927 15978,44924 15980,44922 15982,44920 15984,44918 15986,44916 15988,44914 15992,44913 15994,44911 15997,44910 16000,44908 16002,44907 16005,44906 16008,44905 16010,44904 16013,44903 16016,44902 16018,44901 16021,44901 16023,44900 16026,44900 16028,44899 16030,44899 16033,44899 16035,44898 16038,44898 16040,44898 16043,44898 16045,44897 16048,44897 16050,44897 16053,44897 16055,44897 16058,44897 16060,44897 16063,44897 16065,44897 16068,44898 16070,44898 16072,44898 16075,44898 16077,44899 16080,44899 16082,44899 16085,44900 16087,44900 16089,44901 16092,44901 16094,44902 16096,44902 16097,44903 16099,44903 16100,44904 16102,44904 16103,44905 16105,44905 16106,44906 16108,44907 16109,44907 16111,44908 16112,44909 16113,44910 16115,44910 16116,44911 16117,44912 16119,44913 16120,44914 16121,44915 16122,44916 16124,44917 16125,44918 16126,44919 16127,44920 16128,44921 16129,44922 16131,44923 16132,44924 16133,44926 16134,44927 16135,44928 16136,44929 16137,44930 16138,44932 16139,44933 16139,44934 16140,44936 16141,44937 16142,44938 16143,44940 16143,44941 16144,44943 16145,44944 16145,44945 16146,44947 16147,44948 16147,44950 16148,44951 16148,44953 16149,44954 16149,44956 16149,44957 16150,44959 16150,44960 16150,44962 16151,44964 16151,44965 16151,44967 16151,44968 16152,44970 16152,44971 16152,44973 16152,44975 16152,44976 16096,44976 16096,44975 16096,44974 16096,44973 16095,44972 16095,44971 16095,44970 16095,44969 16094,44968 16094,44967 16093,44966 16093,44965 16092,44964 16092,44963 16091,44963 16090,44962 16089,44961 16089,44960 16088,44960 16087,44959 16086,44958 16085,44958 16084,44958 16084,44957 16083,44957 16082,44957 16081,44956 16080,44956 16077,44955 16074,44955 16071,44954 16068,44954 16065,44953 16061,44953 16058,44953 16055,44953 16052,44953 16049,44953 16046,44953 16042,44954 16039,44954 16036,44955 16033,44955 16030,44956 16028,44957 16027,44957 16025,44958 16024,44959 16023,44959 16022,44961 16020,44962 16019,44963 16018,44964 16017,44965 16017,44967 16016,44968 16015,44970 16015,44971 16015,44973 16014,44974 16014,44976 16014,44977 16014,44979 16015,44981 16015,44982 16016,44984 16016,44985 16017,44986 16018,44988 16019,44989 16020,44990 16021,44991 16022,44992 16023,44993 16025,44994 16026,44995 16113,45059 16116,45060 16119,45062 16121,45063 16124,45065 16126,45066 16129,45068 16131,45070 16133,45072 16136,45074 16138,45076 16140,45079 16142,45081 16143,45083 16145,45086 16147,45088 16148,45091 16150,45093 16151,45096 16153,45099 16154,45102 16155,45104 16156,45107 16157,45110 16158,45113 16158,45116 16159,45119 16159,45122 16160,45125 16160,45128 16160,45131 16160,45134 16160,45137 16159,45140 16159,45143 16159,45146 16158,45149 16157,45152 16156,45155 16155,45158 16154,45160 16153,45163 16152,45166 16151,45169 16149,45171 16148,45174 16146,45176 16145,45179 16143,45181 16141,45184 16139,45186 16137,45188 16135,45190 16132,45192 16130,45194 16128,45196 16125,45198 16123,45200 16120,45201 16118,45203 16115,45204 16112,45205 16109,45206 16107,45207 16104,45208 16101,45209 16098,45210 16095,45211 16092,45212 16089,45212 16086,45213 16083,45214 16080,45214 16077,45214 16074,45215 16071,45215 16067,45216 16064,45216 16061,45216 16058,45216 16055,45216 16052,45216 16049,45216 16046,45216 16043,45216 16040,45215 16037,45215 16034,45215 16031,45214 16027,45214 16024,45213 16021,45212 16018,45212 16015,45211 16012,45210 16009,45209 16006,45208 16005,45208 16003,45207 16002,45207 16000,45206 15999,45206 15998,45205 15996,45204 15995,45204 15993,45203 15992,45202 15991,45201 15988,45201 15987,45200 15985,45199 15984,45198 15983,45197 15982,45196 15980,45195 15979,45194 15978,45193 15977,45192 15976,45191 15974,45190 15973,45189 15972,45188 15971,45187 15970,45185 15969,45184 15968,45183 15967,45182 15966,45181 15965,45179 15964,45178 15963,45177 15962,45175 15961,45174 15961,45173 15960,45171 15959,45170 15958,45168 15958,45167 15957,45166 15956,45164 15956,45163 15955,45161 15955,45160 15954,45158 15953,45157 15953,45155 15952,45154 15952,45152 15952,45151 15951,45149 15951,45147 15951,45146 15950,45144 15950,45143 15950,45141 15950,45140 15950,45138 15950,45137 15950,45135 15949,45133 15949,45132 Z"/>
   </g>
  </g>
  <g class="com.sun.star.drawing.PolyPolygonShape">
   <g id="id8">
    <rect class="BoundingBox" stroke="none" fill="none" x="15948" y="44520" width="214" height="322"/>
    <path fill="rgb(0,0,0)" stroke="none" d="M 16006,44622 L 16006,44740 16006,44742 16007,44745 16007,44747 16007,44749 16008,44752 16009,44754 16009,44756 16010,44759 16011,44761 16012,44763 16013,44765 16015,44767 16016,44769 16017,44771 16019,44773 16021,44774 16022,44776 16024,44778 16026,44779 16028,44780 16030,44782 16032,44783 16034,44784 16036,44785 16039,44786 16041,44787 16043,44787 16046,44788 16048,44788 16050,44788 16053,44789 16055,44789 16058,44789 16060,44788 16062,44788 16065,44788 16067,44787 16069,44787 16072,44786 16074,44785 16076,44784 16078,44783 16080,44782 16082,44780 16084,44779 16086,44778 16088,44776 16089,44774 16091,44773 16093,44771 16094,44769 16096,44767 16097,44765 16098,44763 16099,44761 16100,44759 16101,44756 16102,44754 16102,44752 16103,44749 16103,44747 16104,44745 16104,44742 16104,44740 16104,44622 16104,44619 16104,44617 16103,44614 16103,44612 16102,44610 16102,44607 16101,44605 16100,44603 16099,44601 16098,44599 16097,44596 16096,44594 16094,44592 16093,44591 16091,44589 16089,44587 16088,44585 16086,44584 16084,44582 16082,44581 16080,44580 16078,44578 16076,44577 16074,44577 16072,44576 16069,44575 16067,44574 16065,44574 16062,44573 16060,44573 16058,44573 16055,44573 16053,44573 16050,44573 16048,44573 16046,44574 16043,44574 16041,44575 16039,44576 16036,44577 16034,44577 16032,44578 16030,44580 16028,44581 16026,44582 16024,44584 16022,44585 16021,44587 16019,44589 16017,44591 16016,44592 16015,44594 16013,44596 16012,44599 16011,44601 16010,44603 16009,44605 16009,44607 16008,44610 16008,44612 16007,44614 16007,44617 16007,44619 16006,44622 Z M 15949,44627 L 15949,44735 15949,44737 15950,44740 15950,44743 15950,44745 15950,44748 15951,44750 15951,44753 15951,44755 15952,44758 15953,44760 15953,44763 15954,44765 15955,44768 15956,44770 15956,44772 15958,44775 15958,44777 15960,44780 15961,44782 15962,44784 15963,44786 15964,44789 15966,44791 15967,44793 15969,44795 15970,44797 15972,44799 15973,44801 15975,44803 15977,44805 15978,44807 15980,44809 15982,44811 15984,44813 15986,44814 15988,44816 15991,44817 15993,44819 15995,44820 15997,44822 15999,44823 16001,44825 16004,44826 16006,44827 16008,44828 16010,44829 16013,44831 16015,44832 16017,44833 16020,44833 16022,44834 16025,44835 16027,44836 16030,44837 16032,44837 16035,44838 16037,44838 16040,44838 16042,44839 16045,44839 16047,44839 16050,44840 16053,44840 16055,44840 16058,44840 16060,44840 16063,44839 16065,44839 16068,44839 16070,44838 16073,44838 16075,44838 16078,44837 16081,44837 16083,44836 16086,44835 16088,44834 16090,44833 16093,44833 16095,44832 16098,44831 16100,44829 16102,44828 16104,44827 16107,44826 16109,44825 16111,44823 16113,44822 16115,44820 16117,44819 16120,44817 16121,44816 16124,44814 16125,44813 16127,44811 16129,44809 16131,44807 16133,44805 16134,44803 16136,44801 16138,44799 16139,44797 16141,44795 16142,44793 16143,44791 16145,44789 16146,44786 16147,44784 16149,44782 16150,44780 16151,44777 16152,44775 16153,44772 16154,44770 16154,44768 16155,44765 16156,44763 16157,44760 16157,44758 16158,44755 16158,44753 16159,44750 16159,44748 16159,44745 16160,44743 16160,44740 16160,44737 16160,44735 16160,44627 16160,44624 16160,44621 16160,44619 16159,44616 16159,44614 16159,44611 16158,44609 16158,44606 16157,44604 16157,44601 16156,44599 16155,44596 16154,44594 16154,44591 16153,44589 16152,44586 16151,44584 16150,44582 16148,44579 16147,44577 16146,44575 16145,44573 16143,44571 16142,44568 16141,44566 16139,44564 16138,44562 16136,44560 16134,44558 16133,44556 16131,44554 16129,44553 16127,44551 16125,44549 16124,44547 16121,44546 16119,44544 16117,44542 16115,44541 16113,44538 16111,44537 16109,44536 16107,44534 16104,44533 16102,44532 16100,44531 16097,44530 16095,44529 16093,44528 16090,44527 16088,44526 16086,44525 16083,44525 16081,44524 16078,44523 16075,44523 16073,44522 16070,44522 16068,44522 16065,44521 16063,44521 16060,44521 16058,44521 16055,44521 16053,44521 16050,44521 16047,44521 16045,44521 16042,44522 16040,44522 16037,44522 16035,44523 16032,44523 16030,44524 16027,44525 16025,44525 16022,44526 16020,44527 16017,44528 16015,44529 16013,44530 16010,44531 16008,44532 16006,44533 16004,44534 16001,44536 15999,44537 15997,44538 15995,44541 15993,44542 15991,44544 15988,44546 15986,44547 15984,44549 15982,44551 15980,44553 15978,44554 15977,44556 15975,44558 15973,44560 15972,44562 15970,44564 15969,44566 15967,44568 15966,44571 15964,44573 15963,44575 15962,44577 15961,44579 15960,44582 15958,44584 15957,44586 15956,44589 15956,44591 15955,44594 15954,44596 15953,44599 15953,44601 15952,44604 15951,44606 15951,44609 15951,44611 15950,44614 15950,44616 15950,44619 15950,44621 15949,44624 15949,44627 Z"/>
    <path fill="none" stroke="rgb(0,0,0)" d="M 16006,44622 L 16006,44740 16006,44742 16007,44745 16007,44747 16007,44749 16008,44752 16009,44754 16009,44756 16010,44759 16011,44761 16012,44763 16013,44765 16015,44767 16016,44769 16017,44771 16019,44773 16021,44774 16022,44776 16024,44778 16026,44779 16028,44780 16030,44782 16032,44783 16034,44784 16036,44785 16039,44786 16041,44787 16043,44787 16046,44788 16048,44788 16050,44788 16053,44789 16055,44789 16058,44789 16060,44788 16062,44788 16065,44788 16067,44787 16069,44787 16072,44786 16074,44785 16076,44784 16078,44783 16080,44782 16082,44780 16084,44779 16086,44778 16088,44776 16089,44774 16091,44773 16093,44771 16094,44769 16096,44767 16097,44765 16098,44763 16099,44761 16100,44759 16101,44756 16102,44754 16102,44752 16103,44749 16103,44747 16104,44745 16104,44742 16104,44740 16104,44622 16104,44619 16104,44617 16103,44614 16103,44612 16102,44610 16102,44607 16101,44605 16100,44603 16099,44601 16098,44599 16097,44596 16096,44594 16094,44592 16093,44591 16091,44589 16089,44587 16088,44585 16086,44584 16084,44582 16082,44581 16080,44580 16078,44578 16076,44577 16074,44577 16072,44576 16069,44575 16067,44574 16065,44574 16062,44573 16060,44573 16058,44573 16055,44573 16053,44573 16050,44573 16048,44573 16046,44574 16043,44574 16041,44575 16039,44576 16036,44577 16034,44577 16032,44578 16030,44580 16028,44581 16026,44582 16024,44584 16022,44585 16021,44587 16019,44589 16017,44591 16016,44592 16015,44594 16013,44596 16012,44599 16011,44601 16010,44603 16009,44605 16009,44607 16008,44610 16008,44612 16007,44614 16007,44617 16007,44619 16006,44622 Z"/>
    <path fill="none" stroke="rgb(0,0,0)" d="M 15949,44627 L 15949,44735 15949,44737 15950,44740 15950,44743 15950,44745 15950,44748 15951,44750 15951,44753 15951,44755 15952,44758 15953,44760 15953,44763 15954,44765 15955,44768 15956,44770 15956,44772 15958,44775 15958,44777 15960,44780 15961,44782 15962,44784 15963,44786 15964,44789 15966,44791 15967,44793 15969,44795 15970,44797 15972,44799 15973,44801 15975,44803 15977,44805 15978,44807 15980,44809 15982,44811 15984,44813 15986,44814 15988,44816 15991,44817 15993,44819 15995,44820 15997,44822 15999,44823 16001,44825 16004,44826 16006,44827 16008,44828 16010,44829 16013,44831 16015,44832 16017,44833 16020,44833 16022,44834 16025,44835 16027,44836 16030,44837 16032,44837 16035,44838 16037,44838 16040,44838 16042,44839 16045,44839 16047,44839 16050,44840 16053,44840 16055,44840 16058,44840 16060,44840 16063,44839 16065,44839 16068,44839 16070,44838 16073,44838 16075,44838 16078,44837 16081,44837 16083,44836 16086,44835 16088,44834 16090,44833 16093,44833 16095,44832 16098,44831 16100,44829 16102,44828 16104,44827 16107,44826 16109,44825 16111,44823 16113,44822 16115,44820 16117,44819 16120,44817 16121,44816 16124,44814 16125,44813 16127,44811 16129,44809 16131,44807 16133,44805 16134,44803 16136,44801 16138,44799 16139,44797 16141,44795 16142,44793 16143,44791 16145,44789 16146,44786 16147,44784 16149,44782 16150,44780 16151,44777 16152,44775 16153,44772 16154,44770 16154,44768 16155,44765 16156,44763 16157,44760 16157,44758 16158,44755 16158,44753 16159,44750 16159,44748 16159,44745 16160,44743 16160,44740 16160,44737 16160,44735 16160,44627 16160,44624 16160,44621 16160,44619 16159,44616 16159,44614 16159,44611 16158,44609 16158,44606 16157,44604 16157,44601 16156,44599 16155,44596 16154,44594 16154,44591 16153,44589 16152,44586 16151,44584 16150,44582 16148,44579 16147,44577 16146,44575 16145,44573 16143,44571 16142,44568 16141,44566 16139,44564 16138,44562 16136,44560 16134,44558 16133,44556 16131,44554 16129,44553 16127,44551 16125,44549 16124,44547 16121,44546 16119,44544 16117,44542 16115,44541 16113,44538 16111,44537 16109,44536 16107,44534 16104,44533 16102,44532 16100,44531 16097,44530 16095,44529 16093,44528 16090,44527 16088,44526 16086,44525 16083,44525 16081,44524 16078,44523 16075,44523 16073,44522 16070,44522 16068,44522 16065,44521 16063,44521 16060,44521 16058,44521 16055,44521 16053,44521 16050,44521 16047,44521 16045,44521 16042,44522 16040,44522 16037,44522 16035,44523 16032,44523 16030,44524 16027,44525 16025,44525 16022,44526 16020,44527 16017,44528 16015,44529 16013,44530 16010,44531 16008,44532 16006,44533 16004,44534 16001,44536 15999,44537 15997,44538 15995,44541 15993,44542 15991,44544 15988,44546 15986,44547 15984,44549 15982,44551 15980,44553 15978,44554 15977,44556 15975,44558 15973,44560 15972,44562 15970,44564 15969,44566 15967,44568 15966,44571 15964,44573 15963,44575 15962,44577 15961,44579 15960,44582 15958,44584 15957,44586 15956,44589 15956,44591 15955,44594 15954,44596 15953,44599 15953,44601 15952,44604 15951,44606 15951,44609 15951,44611 15950,44614 15950,44616 15950,44619 15950,44621 15949,44624 15949,44627 Z"/>
   </g>
  </g>
  <g class="com.sun.star.drawing.PolyPolygonShape">
   <g id="id9">
    <rect class="BoundingBox" stroke="none" fill="none" x="15948" y="44146" width="214" height="322"/>
    <path fill="rgb(0,0,0)" stroke="none" d="M 15949,44382 L 15949,44371 16006,44371 16006,44382 16006,44383 16007,44384 16007,44385 16007,44386 16007,44387 16007,44388 16008,44389 16008,44390 16008,44391 16009,44392 16009,44393 16010,44394 16010,44395 16011,44395 16011,44396 16012,44397 16012,44398 16013,44399 16014,44399 16014,44400 16015,44400 16016,44401 16017,44402 16018,44403 16019,44403 16020,44404 16021,44404 16022,44405 16023,44405 16025,44406 16027,44406 16029,44407 16031,44407 16033,44408 16035,44408 16037,44408 16039,44409 16041,44409 16043,44409 16045,44410 16047,44410 16049,44410 16051,44410 16053,44410 16055,44410 16057,44410 16059,44410 16061,44410 16063,44410 16065,44410 16067,44409 16069,44409 16071,44409 16073,44409 16075,44408 16077,44408 16079,44407 16081,44407 16083,44406 16085,44406 16087,44405 16088,44405 16089,44405 16089,44404 16090,44404 16091,44403 16092,44403 16093,44402 16094,44401 16095,44401 16095,44400 16096,44400 16097,44399 16097,44398 16098,44398 16099,44397 16099,44396 16100,44395 16101,44394 16101,44393 16102,44392 16102,44391 16102,44390 16103,44389 16103,44388 16103,44387 16103,44386 16104,44385 16104,44384 16104,44383 16104,44382 16104,44381 16104,44380 16104,44379 16104,44378 16103,44377 16103,44376 16103,44375 16103,44374 16102,44373 16102,44372 16101,44371 16101,44370 16100,44369 16099,44368 16099,44367 16098,44366 16097,44365 16097,44364 16096,44364 16095,44363 16094,44362 16093,44360 16092,44360 16091,44360 16091,44359 16090,44359 16003,44296 16000,44294 15997,44293 15995,44291 15992,44290 15990,44288 15987,44286 15984,44285 15982,44283 15980,44281 15978,44278 15976,44276 15974,44274 15972,44272 15971,44269 15969,44267 15968,44264 15966,44262 15965,44259 15964,44256 15963,44254 15961,44251 15961,44248 15960,44245 15959,44242 15959,44239 15958,44237 15958,44234 15958,44231 15957,44228 15957,44225 15958,44222 15958,44219 15958,44216 15958,44213 15959,44210 15960,44207 15960,44205 15961,44202 15962,44199 15964,44196 15965,44194 15966,44191 15967,44189 15969,44186 15970,44183 15972,44181 15974,44179 15976,44176 15978,44174 15980,44172 15982,44170 15984,44168 15986,44166 15988,44165 15992,44163 15994,44161 15997,44160 16000,44158 16002,44157 16005,44156 16008,44155 16010,44154 16013,44153 16016,44152 16018,44151 16021,44151 16023,44150 16026,44150 16028,44149 16030,44149 16033,44149 16035,44148 16038,44148 16040,44148 16043,44147 16045,44147 16048,44147 16050,44147 16053,44147 16055,44147 16058,44147 16060,44147 16063,44147 16065,44147 16068,44147 16070,44148 16072,44148 16075,44148 16077,44149 16080,44149 16082,44149 16085,44150 16087,44150 16089,44151 16092,44151 16094,44152 16096,44152 16097,44153 16099,44153 16100,44154 16102,44154 16103,44155 16105,44156 16106,44156 16108,44157 16109,44157 16111,44158 16112,44159 16113,44160 16115,44160 16116,44161 16117,44162 16119,44163 16120,44164 16121,44165 16122,44166 16124,44167 16125,44168 16126,44169 16127,44170 16128,44171 16129,44172 16131,44173 16132,44174 16133,44176 16134,44177 16135,44178 16136,44179 16137,44180 16138,44182 16139,44183 16139,44184 16140,44186 16141,44187 16142,44188 16143,44190 16143,44191 16144,44193 16145,44194 16145,44195 16146,44197 16147,44198 16147,44200 16148,44201 16148,44203 16149,44204 16149,44206 16149,44207 16150,44209 16150,44211 16150,44212 16151,44214 16151,44215 16151,44217 16151,44218 16152,44220 16152,44221 16152,44223 16152,44225 16152,44226 16096,44226 16096,44225 16096,44224 16096,44223 16095,44222 16095,44221 16095,44220 16095,44219 16094,44218 16094,44217 16093,44216 16093,44215 16092,44214 16091,44213 16090,44212 16089,44211 16088,44210 16087,44209 16086,44209 16085,44208 16084,44208 16084,44207 16083,44207 16082,44207 16081,44206 16080,44206 16077,44205 16074,44205 16071,44204 16068,44204 16065,44203 16061,44203 16058,44203 16055,44203 16052,44203 16049,44203 16046,44203 16042,44204 16039,44204 16036,44205 16033,44205 16030,44206 16028,44207 16027,44207 16025,44208 16024,44209 16023,44210 16022,44211 16020,44212 16019,44213 16018,44214 16017,44215 16017,44217 16016,44218 16015,44220 16015,44221 16015,44223 16014,44224 16014,44226 16014,44227 16014,44229 16015,44230 16015,44232 16016,44234 16016,44235 16017,44236 16018,44238 16019,44239 16020,44240 16021,44241 16022,44242 16023,44243 16025,44244 16026,44245 16113,44308 16116,44309 16119,44311 16121,44312 16124,44314 16126,44316 16129,44317 16131,44319 16133,44321 16136,44323 16138,44325 16140,44328 16142,44330 16143,44332 16145,44335 16147,44337 16148,44340 16150,44342 16151,44345 16153,44348 16154,44351 16155,44353 16156,44356 16157,44359 16158,44363 16158,44366 16159,44369 16159,44372 16160,44375 16160,44378 16160,44381 16160,44384 16160,44387 16159,44390 16159,44393 16159,44396 16158,44399 16157,44402 16156,44405 16155,44408 16154,44410 16153,44413 16152,44416 16151,44419 16149,44421 16148,44424 16146,44426 16145,44429 16143,44431 16141,44434 16139,44436 16137,44438 16135,44440 16132,44442 16130,44444 16128,44446 16125,44448 16123,44449 16120,44451 16118,44453 16115,44454 16112,44455 16109,44457 16107,44458 16104,44459 16101,44459 16098,44460 16095,44461 16092,44462 16089,44463 16086,44463 16083,44464 16080,44464 16077,44465 16074,44465 16071,44465 16067,44466 16064,44466 16061,44466 16058,44466 16055,44466 16052,44466 16049,44466 16046,44466 16043,44466 16040,44465 16037,44465 16034,44465 16031,44464 16027,44464 16024,44463 16021,44463 16018,44462 16015,44461 16012,44460 16009,44459 16006,44459 16005,44458 16003,44457 16002,44457 16000,44456 15999,44456 15998,44455 15996,44454 15995,44454 15993,44453 15992,44452 15991,44451 15988,44451 15987,44450 15985,44449 15984,44448 15983,44447 15982,44446 15980,44445 15979,44444 15978,44443 15977,44442 15976,44441 15974,44440 15973,44439 15972,44438 15971,44437 15970,44435 15969,44434 15968,44433 15967,44432 15966,44431 15965,44429 15964,44428 15963,44427 15962,44425 15961,44424 15961,44423 15960,44421 15959,44420 15958,44419 15958,44417 15957,44416 15956,44414 15956,44413 15955,44411 15955,44410 15954,44408 15953,44407 15953,44405 15952,44404 15952,44402 15952,44401 15951,44399 15951,44398 15951,44396 15950,44394 15950,44393 15950,44391 15950,44390 15950,44388 15950,44387 15950,44385 15949,44383 15949,44382 Z"/>
    <path fill="none" stroke="rgb(0,0,0)" d="M 15949,44382 L 15949,44371 16006,44371 16006,44382 16006,44383 16007,44384 16007,44385 16007,44386 16007,44387 16007,44388 16008,44389 16008,44390 16008,44391 16009,44392 16009,44393 16010,44394 16010,44395 16011,44395 16011,44396 16012,44397 16012,44398 16013,44399 16014,44399 16014,44400 16015,44400 16016,44401 16017,44402 16018,44403 16019,44403 16020,44404 16021,44404 16022,44405 16023,44405 16025,44406 16027,44406 16029,44407 16031,44407 16033,44408 16035,44408 16037,44408 16039,44409 16041,44409 16043,44409 16045,44410 16047,44410 16049,44410 16051,44410 16053,44410 16055,44410 16057,44410 16059,44410 16061,44410 16063,44410 16065,44410 16067,44409 16069,44409 16071,44409 16073,44409 16075,44408 16077,44408 16079,44407 16081,44407 16083,44406 16085,44406 16087,44405 16088,44405 16089,44405 16089,44404 16090,44404 16091,44403 16092,44403 16093,44402 16094,44401 16095,44401 16095,44400 16096,44400 16097,44399 16097,44398 16098,44398 16099,44397 16099,44396 16100,44395 16101,44394 16101,44393 16102,44392 16102,44391 16102,44390 16103,44389 16103,44388 16103,44387 16103,44386 16104,44385 16104,44384 16104,44383 16104,44382 16104,44381 16104,44380 16104,44379 16104,44378 16103,44377 16103,44376 16103,44375 16103,44374 16102,44373 16102,44372 16101,44371 16101,44370 16100,44369 16099,44368 16099,44367 16098,44366 16097,44365 16097,44364 16096,44364 16095,44363 16094,44362 16093,44360 16092,44360 16091,44360 16091,44359 16090,44359 16003,44296 16000,44294 15997,44293 15995,44291 15992,44290 15990,44288 15987,44286 15984,44285 15982,44283 15980,44281 15978,44278 15976,44276 15974,44274 15972,44272 15971,44269 15969,44267 15968,44264 15966,44262 15965,44259 15964,44256 15963,44254 15961,44251 15961,44248 15960,44245 15959,44242 15959,44239 15958,44237 15958,44234 15958,44231 15957,44228 15957,44225 15958,44222 15958,44219 15958,44216 15958,44213 15959,44210 15960,44207 15960,44205 15961,44202 15962,44199 15964,44196 15965,44194 15966,44191 15967,44189 15969,44186 15970,44183 15972,44181 15974,44179 15976,44176 15978,44174 15980,44172 15982,44170 15984,44168 15986,44166 15988,44165 15992,44163 15994,44161 15997,44160 16000,44158 16002,44157 16005,44156 16008,44155 16010,44154 16013,44153 16016,44152 16018,44151 16021,44151 16023,44150 16026,44150 16028,44149 16030,44149 16033,44149 16035,44148 16038,44148 16040,44148 16043,44147 16045,44147 16048,44147 16050,44147 16053,44147 16055,44147 16058,44147 16060,44147 16063,44147 16065,44147 16068,44147 16070,44148 16072,44148 16075,44148 16077,44149 16080,44149 16082,44149 16085,44150 16087,44150 16089,44151 16092,44151 16094,44152 16096,44152 16097,44153 16099,44153 16100,44154 16102,44154 16103,44155 16105,44156 16106,44156 16108,44157 16109,44157 16111,44158 16112,44159 16113,44160 16115,44160 16116,44161 16117,44162 16119,44163 16120,44164 16121,44165 16122,44166 16124,44167 16125,44168 16126,44169 16127,44170 16128,44171 16129,44172 16131,44173 16132,44174 16133,44176 16134,44177 16135,44178 16136,44179 16137,44180 16138,44182 16139,44183 16139,44184 16140,44186 16141,44187 16142,44188 16143,44190 16143,44191 16144,44193 16145,44194 16145,44195 16146,44197 16147,44198 16147,44200 16148,44201 16148,44203 16149,44204 16149,44206 16149,44207 16150,44209 16150,44211 16150,44212 16151,44214 16151,44215 16151,44217 16151,44218 16152,44220 16152,44221 16152,44223 16152,44225 16152,44226 16096,44226 16096,44225 16096,44224 16096,44223 16095,44222 16095,44221 16095,44220 16095,44219 16094,44218 16094,44217 16093,44216 16093,44215 16092,44214 16091,44213 16090,44212 16089,44211 16088,44210 16087,44209 16086,44209 16085,44208 16084,44208 16084,44207 16083,44207 16082,44207 16081,44206 16080,44206 16077,44205 16074,44205 16071,44204 16068,44204 16065,44203 16061,44203 16058,44203 16055,44203 16052,44203 16049,44203 16046,44203 16042,44204 16039,44204 16036,44205 16033,44205 16030,44206 16028,44207 16027,44207 16025,44208 16024,44209 16023,44210 16022,44211 16020,44212 16019,44213 16018,44214 16017,44215 16017,44217 16016,44218 16015,44220 16015,44221 16015,44223 16014,44224 16014,44226 16014,44227 16014,44229 16015,44230 16015,44232 16016,44234 16016,44235 16017,44236 16018,44238 16019,44239 16020,44240 16021,44241 16022,44242 16023,44243 16025,44244 16026,44245 16113,44308 16116,44309 16119,44311 16121,44312 16124,44314 16126,44316 16129,44317 16131,44319 16133,44321 16136,44323 16138,44325 16140,44328 16142,44330 16143,44332 16145,44335 16147,44337 16148,44340 16150,44342 16151,44345 16153,44348 16154,44351 16155,44353 16156,44356 16157,44359 16158,44363 16158,44366 16159,44369 16159,44372 16160,44375 16160,44378 16160,44381 16160,44384 16160,44387 16159,44390 16159,44393 16159,44396 16158,44399 16157,44402 16156,44405 16155,44408 16154,44410 16153,44413 16152,44416 16151,44419 16149,44421 16148,44424 16146,44426 16145,44429 16143,44431 16141,44434 16139,44436 16137,44438 16135,44440 16132,44442 16130,44444 16128,44446 16125,44448 16123,44449 16120,44451 16118,44453 16115,44454 16112,44455 16109,44457 16107,44458 16104,44459 16101,44459 16098,44460 16095,44461 16092,44462 16089,44463 16086,44463 16083,44464 16080,44464 16077,44465 16074,44465 16071,44465 16067,44466 16064,44466 16061,44466 16058,44466 16055,44466 16052,44466 16049,44466 16046,44466 16043,44466 16040,44465 16037,44465 16034,44465 16031,44464 16027,44464 16024,44463 16021,44463 16018,44462 16015,44461 16012,44460 16009,44459 16006,44459 16005,44458 16003,44457 16002,44457 16000,44456 15999,44456 15998,44455 15996,44454 15995,44454 15993,44453 15992,44452 15991,44451 15988,44451 15987,44450 15985,44449 15984,44448 15983,44447 15982,44446 15980,44445 15979,44444 15978,44443 15977,44442 15976,44441 15974,44440 15973,44439 15972,44438 15971,44437 15970,44435 15969,44434 15968,44433 15967,44432 15966,44431 15965,44429 15964,44428 15963,44427 15962,44425 15961,44424 15961,44423 15960,44421 15959,44420 15958,44419 15958,44417 15957,44416 15956,44414 15956,44413 15955,44411 15955,44410 15954,44408 15953,44407 15953,44405 15952,44404 15952,44402 15952,44401 15951,44399 15951,44398 15951,44396 15950,44394 15950,44393 15950,44391 15950,44390 15950,44388 15950,44387 15950,44385 15949,44383 15949,44382 Z"/>
   </g>
  </g>
  <g class="com.sun.star.drawing.PolyPolygonShape">
   <g id="id10">
    <rect class="BoundingBox" stroke="none" fill="none" x="15486" y="44129" width="533" height="1271"/>
    <path fill="rgb(0,0,0)" stroke="none" d="M 15560,44494 L 15559,44511 15558,44527 15558,44543 15557,44560 15557,44576 15556,44593 15556,44609 15556,44626 15555,44642 15555,44659 15555,44675 15555,44692 15555,44709 15555,44725 15556,44741 15556,44758 15556,44774 15557,44791 15557,44807 15558,44824 15558,44840 15559,44857 15560,44873 15561,44890 15561,44906 15562,44923 15563,44939 15564,44957 15565,44973 15567,44990 15568,45006 15569,45023 15568,45015 15567,45006 15565,44998 15564,44990 15563,44982 15562,44974 15561,44965 15559,44957 15558,44949 15557,44940 15556,44931 15555,44923 15554,44915 15553,44907 15553,44899 15552,44890 15551,44882 15550,44874 15550,44866 15549,44857 15548,44849 15548,44841 15547,44833 15547,44824 15546,44816 15546,44808 15546,44799 15545,44791 15545,44783 15545,44775 15544,44767 15544,44758 15544,44750 15544,44742 15544,44733 15544,44725 15544,44717 15544,44709 15544,44700 15544,44692 15544,44684 15545,44675 15545,44667 15545,44659 15546,44651 15546,44642 15546,44634 15547,44626 15547,44618 15548,44609 15549,44601 15549,44593 15550,44585 15551,44576 15551,44568 15552,44560 15553,44552 15554,44543 15555,44535 15555,44527 15557,44519 15557,44510 15559,44502 15560,44494 Z M 15687,45117 L 15685,45115 15684,45113 15682,45111 15681,45109 15680,45107 15678,45104 15677,45102 15676,45100 15675,45098 15674,45095 15673,45093 15672,45091 15671,45088 15670,45086 15669,45083 15669,45081 15680,45077 15680,45079 15681,45081 15681,45084 15682,45086 15683,45088 15684,45090 15685,45092 15686,45095 15687,45097 15688,45099 15689,45101 15691,45103 15692,45105 15693,45107 15695,45108 15697,45110 15687,45117 Z M 15703,45254 L 15706,45271 15704,45272 15701,45272 15698,45272 15695,45272 15693,45272 15690,45272 15687,45272 15685,45272 15682,45272 15679,45271 15676,45271 15674,45270 15671,45269 15669,45269 15666,45268 15663,45267 15703,45254 Z M 15655,45098 L 15663,45125 15654,45138 15652,45136 15651,45135 15650,45133 15649,45132 15648,45130 15646,45128 15645,45126 15645,45124 15644,45123 15643,45121 15643,45119 15642,45117 15642,45115 15641,45113 15641,45111 15641,45109 15655,45098 Z M 15723,45249 L 15726,45248 15729,45247 15732,45246 15735,45244 15737,45243 15740,45242 15743,45241 15746,45239 15749,45238 15751,45236 15754,45235 15757,45233 15759,45232 15762,45230 15765,45228 15767,45227 15765,45230 15764,45232 15762,45235 15760,45237 15758,45240 15755,45242 15753,45244 15751,45247 15748,45249 15746,45251 15743,45253 15741,45255 15738,45256 15735,45258 15733,45260 15730,45262 15723,45249 Z M 15573,44297 L 15577,44294 15579,44290 15582,44287 15584,44285 15587,44282 15589,44279 15592,44276 15595,44273 15597,44271 15600,44268 15603,44265 15606,44263 15609,44261 15613,44258 15616,44256 15619,44254 15627,44265 15625,44266 15622,44268 15620,44270 15618,44271 15615,44273 15613,44275 15611,44277 15609,44279 15607,44281 15605,44283 15603,44285 15601,44287 15599,44289 15597,44291 15595,44293 15594,44296 15592,44298 15590,44300 15589,44303 15587,44305 15586,44308 15585,44310 15583,44313 15582,44315 15581,44318 15580,44321 15579,44323 15578,44326 15577,44329 15575,44332 15574,44334 15573,44337 15573,44297 Z M 15712,44327 L 15742,44329 15756,44341 15770,44343 15770,44358 15738,44358 15730,44340 15715,44341 15712,44327 Z M 15641,45042 L 15637,45024 15687,44982 15692,44996 15708,44979 15709,44979 15709,44978 15710,44978 15710,44977 15711,44977 15712,44976 15713,44976 15714,44976 15715,44975 15716,44975 15717,44975 15718,44975 15719,44975 15720,44975 15721,44975 15721,44976 15722,44976 15723,44976 15724,44977 15725,44977 15726,44978 15727,44978 15727,44979 15891,45195 15892,45196 15892,45197 15893,45197 15894,45198 15894,45200 15895,45201 15895,45202 15896,45203 15896,45204 15896,45205 15897,45206 15897,45207 15897,45209 15897,45210 15897,45211 15897,45212 15897,45213 15897,45214 15896,45216 15896,45217 15896,45218 15895,45219 15895,45220 15894,45221 15894,45222 15893,45223 15892,45224 15891,45225 15891,45226 15890,45226 15889,45227 15888,45228 15882,45233 15877,45238 15871,45243 15866,45247 15860,45252 15854,45256 15848,45261 15842,45265 15836,45269 15830,45273 15824,45277 15818,45281 15811,45285 15805,45289 15799,45292 15792,45296 15791,45313 15730,45331 15728,45320 15726,45321 15723,45322 15720,45324 15717,45325 15714,45326 15711,45327 15708,45328 15705,45329 15702,45329 15698,45330 15695,45331 15692,45331 15689,45331 15686,45332 15683,45332 15680,45332 15676,45332 15673,45332 15670,45332 15667,45332 15664,45331 15660,45331 15657,45331 15654,45330 15651,45329 15648,45329 15645,45328 15642,45327 15639,45326 15636,45325 15633,45324 15630,45323 15630,45325 15631,45327 15631,45329 15632,45331 15633,45333 15633,45335 15634,45336 15635,45338 15636,45340 15637,45342 15638,45344 15639,45346 15640,45347 15642,45349 15643,45350 15644,45352 15646,45354 15647,45355 15649,45356 15650,45358 15652,45359 15653,45360 15655,45362 15657,45363 15658,45364 15660,45365 15662,45366 15664,45367 15666,45368 15668,45368 15670,45369 15672,45370 15674,45370 15677,45370 15680,45371 15682,45371 15685,45371 15688,45372 15690,45372 15693,45372 15696,45372 15698,45372 15701,45372 15704,45372 15706,45372 15709,45372 15712,45371 15714,45371 15717,45371 15719,45370 15722,45370 15725,45370 15727,45369 15730,45369 15733,45368 15735,45367 15738,45367 15740,45366 15743,45365 15746,45364 15748,45364 15751,45363 15753,45362 15755,45361 15801,45346 15803,45345 15806,45344 15809,45343 15812,45342 15815,45341 15818,45340 15821,45339 15824,45339 15827,45338 15830,45337 15833,45336 15835,45336 15839,45335 15841,45335 15845,45334 15847,45333 15850,45333 15853,45332 15856,45332 15859,45331 15862,45331 15866,45331 15869,45331 15872,45330 15874,45330 15878,45330 15881,45330 15884,45329 15887,45329 15890,45329 15893,45329 15896,45329 15899,45329 15902,45329 15905,45330 15908,45330 15911,45330 15914,45330 15917,45331 15920,45331 15923,45331 15926,45332 15929,45332 15932,45332 15935,45333 15938,45334 15941,45334 15944,45335 15947,45335 15950,45336 15953,45336 15956,45337 15959,45338 15962,45339 15965,45339 15968,45340 15971,45341 15974,45342 15977,45343 15979,45344 15982,45345 15985,45346 15988,45347 15991,45349 15993,45349 15994,45350 15996,45351 15998,45352 16000,45353 16002,45354 16003,45355 16005,45356 16007,45357 16008,45359 16010,45360 16011,45361 16013,45363 16014,45364 16016,45365 16017,45367 16002,45385 15999,45383 15996,45381 15993,45378 15990,45376 15987,45374 15984,45372 15981,45370 15978,45369 15975,45367 15971,45365 15968,45364 15965,45362 15962,45361 15958,45359 15955,45358 15951,45357 15948,45356 15944,45355 15941,45354 15937,45354 15934,45353 15930,45352 15927,45352 15923,45351 15920,45351 15916,45351 15912,45351 15909,45351 15905,45351 15901,45351 15898,45351 15894,45352 15890,45352 15886,45352 15883,45353 15879,45353 15875,45353 15871,45354 15867,45354 15863,45355 15859,45355 15856,45356 15852,45356 15848,45357 15844,45358 15840,45359 15837,45360 15833,45361 15829,45362 15825,45363 15821,45364 15818,45365 15814,45366 15810,45367 15807,45368 15803,45369 15799,45371 15796,45372 15792,45373 15789,45375 15785,45376 15781,45378 15778,45379 15774,45381 15770,45382 15766,45384 15761,45385 15757,45386 15753,45387 15749,45388 15744,45389 15740,45390 15735,45391 15731,45392 15727,45393 15722,45394 15718,45394 15714,45395 15709,45395 15705,45396 15703,45396 15702,45397 15700,45397 15698,45397 15697,45397 15695,45397 15693,45397 15692,45398 15690,45398 15689,45398 15687,45398 15685,45398 15684,45398 15682,45397 15680,45397 15679,45397 15677,45397 15676,45397 15674,45396 15672,45396 15671,45396 15669,45395 15667,45395 15666,45394 15664,45394 15663,45394 15661,45393 15660,45393 15658,45392 15657,45391 15655,45391 15654,45390 15652,45389 15651,45389 15649,45388 15648,45387 15646,45386 15645,45385 15644,45385 15642,45384 15641,45383 15640,45382 15638,45381 15637,45380 15636,45379 15635,45378 15633,45377 15632,45376 15631,45374 15630,45373 15629,45372 15627,45371 15626,45370 15625,45369 15624,45367 15623,45366 15622,45365 15621,45364 15620,45362 15619,45361 15618,45360 15618,45358 15617,45357 15616,45355 15615,45353 15614,45351 15613,45349 15612,45347 15611,45344 15610,45342 15610,45340 15609,45337 15609,45335 15609,45333 15609,45330 15608,45328 15608,45326 15609,45323 15609,45321 15609,45318 15607,45317 15605,45315 15602,45313 15600,45311 15598,45309 15596,45307 15594,45305 15592,45303 15590,45301 15588,45299 15586,45297 15584,45294 15582,45292 15580,45290 15578,45288 15577,45285 15574,45283 15572,45281 15570,45278 15569,45276 15567,45273 15566,45271 15564,45269 15563,45266 15561,45263 15560,45261 15559,45258 15557,45256 15556,45253 15555,45250 15554,45248 15553,45245 15550,45237 15547,45228 15544,45220 15541,45212 15539,45203 15536,45195 15533,45186 15531,45178 15529,45169 15526,45161 15524,45152 15522,45144 15520,45135 15518,45127 15516,45118 15515,45109 15513,45101 15511,45092 15510,45083 15508,45075 15507,45066 15506,45057 15505,45048 15504,45040 15503,45031 15502,45022 15501,45013 15500,45005 15500,44996 15499,44987 15499,44978 15498,44969 15497,44958 15496,44948 15495,44936 15494,44925 15493,44914 15493,44903 15492,44893 15491,44882 15491,44871 15490,44860 15490,44849 15489,44838 15489,44828 15488,44817 15488,44806 15488,44795 15488,44784 15487,44773 15487,44762 15487,44752 15487,44741 15487,44730 15488,44719 15488,44708 15488,44697 15488,44686 15489,44676 15489,44665 15490,44654 15490,44643 15491,44632 15491,44621 15492,44610 15493,44600 15494,44589 15494,44578 15495,44567 15496,44556 15497,44546 15498,44535 15500,44524 15501,44513 15502,44502 15503,44492 15505,44481 15506,44470 15508,44459 15509,44448 15511,44438 15512,44427 15514,44416 15516,44406 15517,44395 15519,44384 15521,44374 15523,44363 15525,44352 15527,44341 15529,44331 15531,44320 15534,44310 15536,44299 15538,44288 15541,44278 15541,44273 15542,44269 15543,44264 15544,44260 15545,44256 15547,44251 15548,44247 15550,44242 15551,44238 15553,44234 15555,44230 15557,44226 15559,44222 15561,44218 15564,44214 15566,44210 15568,44206 15571,44202 15574,44199 15577,44195 15580,44192 15583,44188 15587,44185 15590,44182 15593,44178 15596,44175 15600,44172 15603,44169 15607,44167 15610,44164 15614,44161 15618,44159 15621,44157 15624,44155 15627,44154 15630,44152 15632,44151 15635,44149 15638,44148 15642,44147 15645,44145 15648,44144 15651,44143 15654,44142 15657,44141 15660,44140 15663,44139 15667,44139 15670,44138 15673,44137 15676,44136 15680,44136 15683,44135 15686,44135 15689,44135 15693,44134 15696,44134 15699,44134 15703,44134 15706,44134 15709,44134 15713,44134 15716,44134 15719,44134 15726,44135 15733,44135 15739,44136 15746,44137 15753,44138 15760,44139 15766,44140 15773,44141 15773,44130 15835,44133 15836,44138 15836,44142 15837,44147 15837,44152 15838,44157 15838,44161 15839,44166 15839,44171 15839,44176 15839,44180 15839,44185 15840,44190 15840,44195 15840,44199 15840,44204 15840,44209 15840,44214 15840,44218 15839,44223 15839,44228 15839,44233 15839,44238 15838,44242 15838,44247 15838,44252 15837,44256 15837,44261 15836,44266 15835,44271 15835,44275 15834,44280 15834,44285 15833,44289 15832,44294 15831,44299 15830,44304 15829,44308 15828,44313 15827,44318 15826,44322 15825,44327 15824,44331 15823,44336 15822,44341 15821,44345 15819,44350 15818,44355 15817,44359 15815,44363 15814,44368 15812,44373 15811,44377 15809,44382 15808,44386 15806,44390 15804,44395 15803,44399 15801,44404 15799,44408 15797,44413 15795,44417 15793,44421 15791,44426 15789,44430 15726,44411 15720,44399 15718,44401 15716,44403 15714,44405 15711,44407 15709,44408 15706,44410 15704,44411 15701,44412 15698,44413 15696,44414 15693,44415 15690,44416 15687,44416 15685,44417 15682,44417 15679,44418 15676,44418 15673,44418 15670,44418 15667,44418 15664,44417 15662,44417 15659,44416 15656,44416 15653,44415 15651,44414 15648,44413 15645,44412 15643,44411 15640,44410 15637,44408 15635,44407 15613,44390 15615,44455 15617,44461 15619,44466 15621,44472 15623,44477 15625,44483 15626,44489 15628,44494 15630,44500 15632,44505 15633,44511 15635,44517 15636,44523 15638,44528 15639,44534 15640,44540 15642,44546 15643,44551 15644,44557 15645,44563 15646,44569 15647,44575 15648,44580 15649,44586 15649,44592 15650,44598 15651,44604 15651,44610 15652,44616 15653,44621 15653,44627 15653,44633 15654,44639 15654,44651 15654,44663 15654,44675 15654,44687 15654,44699 15654,44710 15654,44722 15653,44734 15653,44746 15652,44758 15651,44770 15651,44782 15650,44794 15649,44805 15647,44817 15646,44829 15645,44841 15643,44853 15642,44865 15640,44876 15638,44888 15636,44900 15634,44912 15632,44923 15630,44935 15628,44948 15626,44959 15623,44971 15620,44982 15618,44994 15615,45006 15612,45017 15608,45073 15641,45042 Z"/>
    <path fill="none" stroke="rgb(0,0,0)" d="M 15560,44494 L 15559,44511 15558,44527 15558,44543 15557,44560 15557,44576 15556,44593 15556,44609 15556,44626 15555,44642 15555,44659 15555,44675 15555,44692 15555,44709 15555,44725 15556,44741 15556,44758 15556,44774 15557,44791 15557,44807 15558,44824 15558,44840 15559,44857 15560,44873 15561,44890 15561,44906 15562,44923 15563,44939 15564,44957 15565,44973 15567,44990 15568,45006 15569,45023 15568,45015 15567,45006 15565,44998 15564,44990 15563,44982 15562,44974 15561,44965 15559,44957 15558,44949 15557,44940 15556,44931 15555,44923 15554,44915 15553,44907 15553,44899 15552,44890 15551,44882 15550,44874 15550,44866 15549,44857 15548,44849 15548,44841 15547,44833 15547,44824 15546,44816 15546,44808 15546,44799 15545,44791 15545,44783 15545,44775 15544,44767 15544,44758 15544,44750 15544,44742 15544,44733 15544,44725 15544,44717 15544,44709 15544,44700 15544,44692 15544,44684 15545,44675 15545,44667 15545,44659 15546,44651 15546,44642 15546,44634 15547,44626 15547,44618 15548,44609 15549,44601 15549,44593 15550,44585 15551,44576 15551,44568 15552,44560 15553,44552 15554,44543 15555,44535 15555,44527 15557,44519 15557,44510 15559,44502 15560,44494 Z"/>
    <path fill="none" stroke="rgb(0,0,0)" d="M 15687,45117 L 15685,45115 15684,45113 15682,45111 15681,45109 15680,45107 15678,45104 15677,45102 15676,45100 15675,45098 15674,45095 15673,45093 15672,45091 15671,45088 15670,45086 15669,45083 15669,45081 15680,45077 15680,45079 15681,45081 15681,45084 15682,45086 15683,45088 15684,45090 15685,45092 15686,45095 15687,45097 15688,45099 15689,45101 15691,45103 15692,45105 15693,45107 15695,45108 15697,45110 15687,45117 Z"/>
    <path fill="none" stroke="rgb(0,0,0)" d="M 15703,45254 L 15706,45271 15704,45272 15701,45272 15698,45272 15695,45272 15693,45272 15690,45272 15687,45272 15685,45272 15682,45272 15679,45271 15676,45271 15674,45270 15671,45269 15669,45269 15666,45268 15663,45267 15703,45254 Z"/>
    <path fill="none" stroke="rgb(0,0,0)" d="M 15655,45098 L 15663,45125 15654,45138 15652,45136 15651,45135 15650,45133 15649,45132 15648,45130 15646,45128 15645,45126 15645,45124 15644,45123 15643,45121 15643,45119 15642,45117 15642,45115 15641,45113 15641,45111 15641,45109 15655,45098 Z"/>
    <path fill="none" stroke="rgb(0,0,0)" d="M 15723,45249 L 15726,45248 15729,45247 15732,45246 15735,45244 15737,45243 15740,45242 15743,45241 15746,45239 15749,45238 15751,45236 15754,45235 15757,45233 15759,45232 15762,45230 15765,45228 15767,45227 15765,45230 15764,45232 15762,45235 15760,45237 15758,45240 15755,45242 15753,45244 15751,45247 15748,45249 15746,45251 15743,45253 15741,45255 15738,45256 15735,45258 15733,45260 15730,45262 15723,45249 Z"/>
    <path fill="none" stroke="rgb(0,0,0)" d="M 15573,44297 L 15577,44294 15579,44290 15582,44287 15584,44285 15587,44282 15589,44279 15592,44276 15595,44273 15597,44271 15600,44268 15603,44265 15606,44263 15609,44261 15613,44258 15616,44256 15619,44254 15627,44265 15625,44266 15622,44268 15620,44270 15618,44271 15615,44273 15613,44275 15611,44277 15609,44279 15607,44281 15605,44283 15603,44285 15601,44287 15599,44289 15597,44291 15595,44293 15594,44296 15592,44298 15590,44300 15589,44303 15587,44305 15586,44308 15585,44310 15583,44313 15582,44315 15581,44318 15580,44321 15579,44323 15578,44326 15577,44329 15575,44332 15574,44334 15573,44337 15573,44297 Z"/>
    <path fill="none" stroke="rgb(0,0,0)" d="M 15712,44327 L 15742,44329 15756,44341 15770,44343 15770,44358 15738,44358 15730,44340 15715,44341 15712,44327 Z"/>
    <path fill="none" stroke="rgb(0,0,0)" d="M 15641,45042 L 15637,45024 15687,44982 15692,44996 15708,44979 15709,44979 15709,44978 15710,44978 15710,44977 15711,44977 15712,44976 15713,44976 15714,44976 15715,44975 15716,44975 15717,44975 15718,44975 15719,44975 15720,44975 15721,44975 15721,44976 15722,44976 15723,44976 15724,44977 15725,44977 15726,44978 15727,44978 15727,44979 15891,45195 15892,45196 15892,45197 15893,45197 15894,45198 15894,45200 15895,45201 15895,45202 15896,45203 15896,45204 15896,45205 15897,45206 15897,45207 15897,45209 15897,45210 15897,45211 15897,45212 15897,45213 15897,45214 15896,45216 15896,45217 15896,45218 15895,45219 15895,45220 15894,45221 15894,45222 15893,45223 15892,45224 15891,45225 15891,45226 15890,45226 15889,45227 15888,45228 15882,45233 15877,45238 15871,45243 15866,45247 15860,45252 15854,45256 15848,45261 15842,45265 15836,45269 15830,45273 15824,45277 15818,45281 15811,45285 15805,45289 15799,45292 15792,45296 15791,45313 15730,45331 15728,45320 15726,45321 15723,45322 15720,45324 15717,45325 15714,45326 15711,45327 15708,45328 15705,45329 15702,45329 15698,45330 15695,45331 15692,45331 15689,45331 15686,45332 15683,45332 15680,45332 15676,45332 15673,45332 15670,45332 15667,45332 15664,45331 15660,45331 15657,45331 15654,45330 15651,45329 15648,45329 15645,45328 15642,45327 15639,45326 15636,45325 15633,45324 15630,45323 15630,45325 15631,45327 15631,45329 15632,45331 15633,45333 15633,45335 15634,45336 15635,45338 15636,45340 15637,45342 15638,45344 15639,45346 15640,45347 15642,45349 15643,45350 15644,45352 15646,45354 15647,45355 15649,45356 15650,45358 15652,45359 15653,45360 15655,45362 15657,45363 15658,45364 15660,45365 15662,45366 15664,45367 15666,45368 15668,45368 15670,45369 15672,45370 15674,45370 15677,45370 15680,45371 15682,45371 15685,45371 15688,45372 15690,45372 15693,45372 15696,45372 15698,45372 15701,45372 15704,45372 15706,45372 15709,45372 15712,45371 15714,45371 15717,45371 15719,45370 15722,45370 15725,45370 15727,45369 15730,45369 15733,45368 15735,45367 15738,45367 15740,45366 15743,45365 15746,45364 15748,45364 15751,45363 15753,45362 15755,45361 15801,45346 15803,45345 15806,45344 15809,45343 15812,45342 15815,45341 15818,45340 15821,45339 15824,45339 15827,45338 15830,45337 15833,45336 15835,45336 15839,45335 15841,45335 15845,45334 15847,45333 15850,45333 15853,45332 15856,45332 15859,45331 15862,45331 15866,45331 15869,45331 15872,45330 15874,45330 15878,45330 15881,45330 15884,45329 15887,45329 15890,45329 15893,45329 15896,45329 15899,45329 15902,45329 15905,45330 15908,45330 15911,45330 15914,45330 15917,45331 15920,45331 15923,45331 15926,45332 15929,45332 15932,45332 15935,45333 15938,45334 15941,45334 15944,45335 15947,45335 15950,45336 15953,45336 15956,45337 15959,45338 15962,45339 15965,45339 15968,45340 15971,45341 15974,45342 15977,45343 15979,45344 15982,45345 15985,45346 15988,45347 15991,45349 15993,45349 15994,45350 15996,45351 15998,45352 16000,45353 16002,45354 16003,45355 16005,45356 16007,45357 16008,45359 16010,45360 16011,45361 16013,45363 16014,45364 16016,45365 16017,45367 16002,45385 15999,45383 15996,45381 15993,45378 15990,45376 15987,45374 15984,45372 15981,45370 15978,45369 15975,45367 15971,45365 15968,45364 15965,45362 15962,45361 15958,45359 15955,45358 15951,45357 15948,45356 15944,45355 15941,45354 15937,45354 15934,45353 15930,45352 15927,45352 15923,45351 15920,45351 15916,45351 15912,45351 15909,45351 15905,45351 15901,45351 15898,45351 15894,45352 15890,45352 15886,45352 15883,45353 15879,45353 15875,45353 15871,45354 15867,45354 15863,45355 15859,45355 15856,45356 15852,45356 15848,45357 15844,45358 15840,45359 15837,45360 15833,45361 15829,45362 15825,45363 15821,45364 15818,45365 15814,45366 15810,45367 15807,45368 15803,45369 15799,45371 15796,45372 15792,45373 15789,45375 15785,45376 15781,45378 15778,45379 15774,45381 15770,45382 15766,45384 15761,45385 15757,45386 15753,45387 15749,45388 15744,45389 15740,45390 15735,45391 15731,45392 15727,45393 15722,45394 15718,45394 15714,45395 15709,45395 15705,45396 15703,45396 15702,45397 15700,45397 15698,45397 15697,45397 15695,45397 15693,45397 15692,45398 15690,45398 15689,45398 15687,45398 15685,45398 15684,45398 15682,45397 15680,45397 15679,45397 15677,45397 15676,45397 15674,45396 15672,45396 15671,45396 15669,45395 15667,45395 15666,45394 15664,45394 15663,45394 15661,45393 15660,45393 15658,45392 15657,45391 15655,45391 15654,45390 15652,45389 15651,45389 15649,45388 15648,45387 15646,45386 15645,45385 15644,45385 15642,45384 15641,45383 15640,45382 15638,45381 15637,45380 15636,45379 15635,45378 15633,45377 15632,45376 15631,45374 15630,45373 15629,45372 15627,45371 15626,45370 15625,45369 15624,45367 15623,45366 15622,45365 15621,45364 15620,45362 15619,45361 15618,45360 15618,45358 15617,45357 15616,45355 15615,45353 15614,45351 15613,45349 15612,45347 15611,45344 15610,45342 15610,45340 15609,45337 15609,45335 15609,45333 15609,45330 15608,45328 15608,45326 15609,45323 15609,45321 15609,45318 15607,45317 15605,45315 15602,45313 15600,45311 15598,45309 15596,45307 15594,45305 15592,45303 15590,45301 15588,45299 15586,45297 15584,45294 15582,45292 15580,45290 15578,45288 15577,45285 15574,45283 15572,45281 15570,45278 15569,45276 15567,45273 15566,45271 15564,45269 15563,45266 15561,45263 15560,45261 15559,45258 15557,45256 15556,45253 15555,45250 15554,45248 15553,45245 15550,45237 15547,45228 15544,45220 15541,45212 15539,45203 15536,45195 15533,45186 15531,45178 15529,45169 15526,45161 15524,45152 15522,45144 15520,45135 15518,45127 15516,45118 15515,45109 15513,45101 15511,45092 15510,45083 15508,45075 15507,45066 15506,45057 15505,45048 15504,45040 15503,45031 15502,45022 15501,45013 15500,45005 15500,44996 15499,44987 15499,44978 15498,44969 15497,44958 15496,44948 15495,44936 15494,44925 15493,44914 15493,44903 15492,44893 15491,44882 15491,44871 15490,44860 15490,44849 15489,44838 15489,44828 15488,44817 15488,44806 15488,44795 15488,44784 15487,44773 15487,44762 15487,44752 15487,44741 15487,44730 15488,44719 15488,44708 15488,44697 15488,44686 15489,44676 15489,44665 15490,44654 15490,44643 15491,44632 15491,44621 15492,44610 15493,44600 15494,44589 15494,44578 15495,44567 15496,44556 15497,44546 15498,44535 15500,44524 15501,44513 15502,44502 15503,44492 15505,44481 15506,44470 15508,44459 15509,44448 15511,44438 15512,44427 15514,44416 15516,44406 15517,44395 15519,44384 15521,44374 15523,44363 15525,44352 15527,44341 15529,44331 15531,44320 15534,44310 15536,44299 15538,44288 15541,44278 15541,44273 15542,44269 15543,44264 15544,44260 15545,44256 15547,44251 15548,44247 15550,44242 15551,44238 15553,44234 15555,44230 15557,44226 15559,44222 15561,44218 15564,44214 15566,44210 15568,44206 15571,44202 15574,44199 15577,44195 15580,44192 15583,44188 15587,44185 15590,44182 15593,44178 15596,44175 15600,44172 15603,44169 15607,44167 15610,44164 15614,44161 15618,44159 15621,44157 15624,44155 15627,44154 15630,44152 15632,44151 15635,44149 15638,44148 15642,44147 15645,44145 15648,44144 15651,44143 15654,44142 15657,44141 15660,44140 15663,44139 15667,44139 15670,44138 15673,44137 15676,44136 15680,44136 15683,44135 15686,44135 15689,44135 15693,44134 15696,44134 15699,44134 15703,44134 15706,44134 15709,44134 15713,44134 15716,44134 15719,44134 15726,44135 15733,44135 15739,44136 15746,44137 15753,44138 15760,44139 15766,44140 15773,44141 15773,44130 15835,44133 15836,44138 15836,44142 15837,44147 15837,44152 15838,44157 15838,44161 15839,44166 15839,44171 15839,44176 15839,44180 15839,44185 15840,44190 15840,44195 15840,44199 15840,44204 15840,44209 15840,44214 15840,44218 15839,44223 15839,44228 15839,44233 15839,44238 15838,44242 15838,44247 15838,44252 15837,44256 15837,44261 15836,44266 15835,44271 15835,44275 15834,44280 15834,44285 15833,44289 15832,44294 15831,44299 15830,44304 15829,44308 15828,44313 15827,44318 15826,44322 15825,44327 15824,44331 15823,44336 15822,44341 15821,44345 15819,44350 15818,44355 15817,44359 15815,44363 15814,44368 15812,44373 15811,44377 15809,44382 15808,44386 15806,44390 15804,44395 15803,44399 15801,44404 15799,44408 15797,44413 15795,44417 15793,44421 15791,44426 15789,44430 15726,44411 15720,44399 15718,44401 15716,44403 15714,44405 15711,44407 15709,44408 15706,44410 15704,44411 15701,44412 15698,44413 15696,44414 15693,44415 15690,44416 15687,44416 15685,44417 15682,44417 15679,44418 15676,44418 15673,44418 15670,44418 15667,44418 15664,44417 15662,44417 15659,44416 15656,44416 15653,44415 15651,44414 15648,44413 15645,44412 15643,44411 15640,44410 15637,44408 15635,44407 15613,44390 15615,44455 15617,44461 15619,44466 15621,44472 15623,44477 15625,44483 15626,44489 15628,44494 15630,44500 15632,44505 15633,44511 15635,44517 15636,44523 15638,44528 15639,44534 15640,44540 15642,44546 15643,44551 15644,44557 15645,44563 15646,44569 15647,44575 15648,44580 15649,44586 15649,44592 15650,44598 15651,44604 15651,44610 15652,44616 15653,44621 15653,44627 15653,44633 15654,44639 15654,44651 15654,44663 15654,44675 15654,44687 15654,44699 15654,44710 15654,44722 15653,44734 15653,44746 15652,44758 15651,44770 15651,44782 15650,44794 15649,44805 15647,44817 15646,44829 15645,44841 15643,44853 15642,44865 15640,44876 15638,44888 15636,44900 15634,44912 15632,44923 15630,44935 15628,44948 15626,44959 15623,44971 15620,44982 15618,44994 15615,45006 15612,45017 15608,45073 15641,45042 Z"/>
   </g>
  </g>
 </g>
</svg>