<?xml version="1.0" encoding="UTF-8"?>
<!DOCTYPE svg PUBLIC "-//W3C//DTD SVG 1.1//EN" "http://www.w3.org/Graphics/SVG/1.1/DTD/svg11.dtd">
<svg version="1.2" width="17.14mm" height="24.95mm" viewBox="17170 43507 1714 2495" preserveAspectRatio="xMidYMid" fill-rule="evenodd" stroke-width="28.222" stroke-linejoin="round" xmlns="http://www.w3.org/2000/svg" xmlns:ooo="http://xml.openoffice.org/svg/export" xmlns:xlink="http://www.w3.org/1999/xlink" xmlns:presentation="http://sun.com/xmlns/staroffice/presentation" xmlns:smil="http://www.w3.org/2001/SMIL20/" xmlns:anim="urn:oasis:names:tc:opendocument:xmlns:animation:1.0" xml:space="preserve">
 <defs class="EmbeddedBulletChars">
  <g id="bullet-char-template-57356" transform="scale(0.00048828125,-0.00048828125)">
   <path d="M 580,1141 L 1163,571 580,0 -4,571 580,1141 Z"/>
  </g>
  <g id="bullet-char-template-57354" transform="scale(0.00048828125,-0.00048828125)">
   <path d="M 8,1128 L 1137,1128 1137,0 8,0 8,1128 Z"/>
  </g>
  <g id="bullet-char-template-10146" transform="scale(0.00048828125,-0.00048828125)">
   <path d="M 174,0 L 602,739 174,1481 1456,739 174,0 Z M 1358,739 L 309,1346 659,739 1358,739 Z"/>
  </g>
  <g id="bullet-char-template-10132" transform="scale(0.00048828125,-0.00048828125)">
   <path d="M 2015,739 L 1276,0 717,0 1260,543 174,543 174,936 1260,936 717,1481 1274,1481 2015,739 Z"/>
  </g>
  <g id="bullet-char-template-10007" transform="scale(0.00048828125,-0.00048828125)">
   <path d="M 0,-2 C -7,14 -16,27 -25,37 L 356,567 C 262,823 215,952 215,954 215,979 228,992 255,992 264,992 276,990 289,987 310,991 331,999 354,1012 L 381,999 492,748 772,1049 836,1024 860,1049 C 881,1039 901,1025 922,1006 886,937 835,863 770,784 769,783 710,716 594,584 L 774,223 C 774,196 753,168 711,139 L 727,119 C 717,90 699,76 672,76 641,76 570,178 457,381 L 164,-76 C 142,-110 111,-127 72,-127 30,-127 9,-110 8,-76 1,-67 -2,-52 -2,-32 -2,-23 -1,-13 0,-2 Z"/>
  </g>
  <g id="bullet-char-template-10004" transform="scale(0.00048828125,-0.00048828125)">
   <path d="M 285,-33 C 182,-33 111,30 74,156 52,228 41,333 41,471 41,549 55,616 82,672 116,743 169,778 240,778 293,778 328,747 346,684 L 369,508 C 377,444 397,411 428,410 L 1163,1116 C 1174,1127 1196,1133 1229,1133 1271,1133 1292,1118 1292,1087 L 1292,965 C 1292,929 1282,901 1262,881 L 442,47 C 390,-6 338,-33 285,-33 Z"/>
  </g>
  <g id="bullet-char-template-9679" transform="scale(0.00048828125,-0.00048828125)">
   <path d="M 813,0 C 632,0 489,54 383,161 276,268 223,411 223,592 223,773 276,916 383,1023 489,1130 632,1184 813,1184 992,1184 1136,1130 1245,1023 1353,916 1407,772 1407,592 1407,412 1353,268 1245,161 1136,54 992,0 813,0 Z"/>
  </g>
  <g id="bullet-char-template-8226" transform="scale(0.00048828125,-0.00048828125)">
   <path d="M 346,457 C 273,457 209,483 155,535 101,586 74,649 74,723 74,796 101,859 155,911 209,963 273,989 346,989 419,989 480,963 531,910 582,859 608,796 608,723 608,648 583,586 532,535 482,483 420,457 346,457 Z"/>
  </g>
  <g id="bullet-char-template-8211" transform="scale(0.00048828125,-0.00048828125)">
   <path d="M -4,459 L 1135,459 1135,606 -4,606 -4,459 Z"/>
  </g>
  <g id="bullet-char-template-61548" transform="scale(0.00048828125,-0.00048828125)">
   <path d="M 173,740 C 173,903 231,1043 346,1159 462,1274 601,1332 765,1332 928,1332 1067,1274 1183,1159 1299,1043 1357,903 1357,740 1357,577 1299,437 1183,322 1067,206 928,148 765,148 601,148 462,206 346,322 231,437 173,577 173,740 Z"/>
  </g>
 </defs>
 <g class="Page">
  <g class="com.sun.star.drawing.PolyPolygonShape">
   <g id="id3">
    <rect class="BoundingBox" stroke="none" fill="none" x="17170" y="43507" width="1714" height="2495"/>
    <path fill="rgb(0,0,255)" stroke="none" d="M 17171,45814 L 17171,43696 17171,43692 17171,43687 17171,43683 17171,43678 17172,43673 17173,43669 17173,43664 17174,43660 17175,43655 17176,43651 17177,43646 17179,43642 17180,43638 17182,43633 17183,43629 17185,43625 17187,43620 17189,43616 17191,43612 17193,43608 17196,43604 17198,43600 17200,43596 17203,43591 17206,43588 17208,43584 17211,43580 17214,43577 17217,43573 17220,43570 17224,43566 17227,43563 17230,43560 17234,43557 17237,43554 17241,43551 17245,43548 17248,43545 17252,43542 17256,43540 17260,43537 17264,43535 17268,43533 17272,43530 17276,43528 17281,43526 17285,43524 17289,43523 17294,43521 17298,43519 17303,43518 17307,43516 17312,43515 17316,43514 17321,43513 17326,43512 17330,43511 17335,43510 17339,43510 17344,43509 17349,43509 17354,43509 17358,43508 17363,43508 18690,43508 18695,43508 18699,43509 18704,43509 18709,43509 18713,43510 18718,43510 18723,43511 18727,43512 18732,43513 18737,43514 18741,43515 18746,43516 18750,43518 18755,43519 18759,43521 18764,43523 18768,43524 18772,43526 18776,43528 18780,43530 18785,43533 18789,43535 18793,43537 18797,43540 18801,43542 18804,43545 18808,43548 18812,43551 18816,43554 18819,43557 18823,43560 18826,43563 18829,43566 18833,43570 18835,43573 18839,43577 18842,43580 18844,43584 18847,43588 18850,43591 18852,43596 18855,43600 18857,43604 18860,43608 18862,43612 18864,43616 18866,43620 18868,43625 18869,43629 18871,43633 18873,43638 18874,43642 18875,43646 18877,43651 18878,43655 18879,43660 18880,43664 18880,43669 18881,43673 18881,43678 18882,43683 18882,43687 18882,43692 18882,43696 18882,45814 18882,45818 18882,45823 18882,45827 18881,45832 18881,45836 18880,45841 18880,45846 18879,45850 18878,45855 18877,45859 18875,45863 18874,45868 18873,45872 18871,45877 18869,45881 18868,45885 18866,45889 18864,45893 18862,45898 18860,45902 18857,45906 18855,45910 18852,45914 18850,45917 18847,45921 18844,45925 18842,45928 18839,45932 18835,45936 18833,45939 18829,45942 18826,45946 18823,45949 18819,45952 18816,45955 18812,45958 18808,45961 18804,45964 18801,45966 18797,45969 18793,45971 18789,45974 18785,45976 18780,45978 18776,45980 18772,45982 18768,45984 18764,45986 18759,45988 18755,45990 18750,45991 18746,45992 18741,45994 18737,45995 18732,45996 18727,45997 18723,45998 18718,45998 18713,45999 18709,46000 18704,46000 18699,46000 18695,46000 18690,46000 17363,46000 17358,46000 17354,46000 17349,46000 17344,46000 17339,45999 17335,45998 17330,45998 17326,45997 17321,45996 17316,45995 17312,45994 17307,45992 17303,45991 17298,45990 17294,45988 17289,45986 17285,45984 17281,45982 17276,45980 17272,45978 17268,45976 17264,45974 17260,45971 17256,45969 17252,45966 17248,45964 17245,45961 17241,45958 17237,45955 17234,45952 17230,45949 17227,45946 17224,45942 17220,45939 17217,45936 17214,45932 17211,45928 17208,45925 17206,45921 17203,45917 17200,45914 17198,45910 17196,45906 17193,45902 17191,45898 17189,45893 17187,45889 17185,45885 17183,45881 17182,45877 17180,45872 17179,45868 17177,45863 17176,45859 17175,45855 17174,45850 17173,45846 17173,45841 17172,45836 17171,45832 17171,45827 17171,45823 17171,45818 17171,45814 Z"/>
    <path fill="none" stroke="rgb(0,0,255)" d="M 17171,45814 L 17171,43696 17171,43692 17171,43687 17171,43683 17171,43678 17172,43673 17173,43669 17173,43664 17174,43660 17175,43655 17176,43651 17177,43646 17179,43642 17180,43638 17182,43633 17183,43629 17185,43625 17187,43620 17189,43616 17191,43612 17193,43608 17196,43604 17198,43600 17200,43596 17203,43591 17206,43588 17208,43584 17211,43580 17214,43577 17217,43573 17220,43570 17224,43566 17227,43563 17230,43560 17234,43557 17237,43554 17241,43551 17245,43548 17248,43545 17252,43542 17256,43540 17260,43537 17264,43535 17268,43533 17272,43530 17276,43528 17281,43526 17285,43524 17289,43523 17294,43521 17298,43519 17303,43518 17307,43516 17312,43515 17316,43514 17321,43513 17326,43512 17330,43511 17335,43510 17339,43510 17344,43509 17349,43509 17354,43509 17358,43508 17363,43508 18690,43508 18695,43508 18699,43509 18704,43509 18709,43509 18713,43510 18718,43510 18723,43511 18727,43512 18732,43513 18737,43514 18741,43515 18746,43516 18750,43518 18755,43519 18759,43521 18764,43523 18768,43524 18772,43526 18776,43528 18780,43530 18785,43533 18789,43535 18793,43537 18797,43540 18801,43542 18804,43545 18808,43548 18812,43551 18816,43554 18819,43557 18823,43560 18826,43563 18829,43566 18833,43570 18835,43573 18839,43577 18842,43580 18844,43584 18847,43588 18850,43591 18852,43596 18855,43600 18857,43604 18860,43608 18862,43612 18864,43616 18866,43620 18868,43625 18869,43629 18871,43633 18873,43638 18874,43642 18875,43646 18877,43651 18878,43655 18879,43660 18880,43664 18880,43669 18881,43673 18881,43678 18882,43683 18882,43687 18882,43692 18882,43696 18882,45814 18882,45818 18882,45823 18882,45827 18881,45832 18881,45836 18880,45841 18880,45846 18879,45850 18878,45855 18877,45859 18875,45863 18874,45868 18873,45872 18871,45877 18869,45881 18868,45885 18866,45889 18864,45893 18862,45898 18860,45902 18857,45906 18855,45910 18852,45914 18850,45917 18847,45921 18844,45925 18842,45928 18839,45932 18835,45936 18833,45939 18829,45942 18826,45946 18823,45949 18819,45952 18816,45955 18812,45958 18808,45961 18804,45964 18801,45966 18797,45969 18793,45971 18789,45974 18785,45976 18780,45978 18776,45980 18772,45982 18768,45984 18764,45986 18759,45988 18755,45990 18750,45991 18746,45992 18741,45994 18737,45995 18732,45996 18727,45997 18723,45998 18718,45998 18713,45999 18709,46000 18704,46000 18699,46000 18695,46000 18690,46000 17363,46000 17358,46000 17354,46000 17349,46000 17344,46000 17339,45999 17335,45998 17330,45998 17326,45997 17321,45996 17316,45995 17312,45994 17307,45992 17303,45991 17298,45990 17294,45988 17289,45986 17285,45984 17281,45982 17276,45980 17272,45978 17268,45976 17264,45974 17260,45971 17256,45969 17252,45966 17248,45964 17245,45961 17241,45958 17237,45955 17234,45952 17230,45949 17227,45946 17224,45942 17220,45939 17217,45936 17214,45932 17211,45928 17208,45925 17206,45921 17203,45917 17200,45914 17198,45910 17196,45906 17193,45902 17191,45898 17189,45893 17187,45889 17185,45885 17183,45881 17182,45877 17180,45872 17179,45868 17177,45863 17176,45859 17175,45855 17174,45850 17173,45846 17173,45841 17172,45836 17171,45832 17171,45827 17171,45823 17171,45818 17171,45814 Z"/>
   </g>
  </g>
  <g class="com.sun.star.drawing.PolyPolygonShape">
   <g id="id4">
    <rect class="BoundingBox" stroke="none" fill="none" x="17234" y="43570" width="1586" height="2370"/>
    <path fill="rgb(255,255,255)" stroke="none" d="M 17235,45814 L 17235,43695 17235,43692 17235,43689 17235,43686 17235,43683 17236,43680 17236,43677 17237,43674 17237,43671 17238,43668 17239,43665 17239,43662 17240,43659 17241,43656 17242,43653 17243,43650 17244,43648 17246,43645 17247,43642 17248,43639 17250,43636 17251,43634 17253,43631 17255,43629 17256,43626 17258,43624 17260,43621 17262,43619 17264,43616 17266,43614 17268,43612 17270,43609 17272,43607 17275,43605 17277,43603 17279,43601 17282,43599 17284,43597 17286,43595 17289,43593 17292,43592 17294,43590 17297,43588 17300,43587 17302,43585 17305,43584 17308,43583 17311,43581 17314,43580 17317,43579 17320,43578 17323,43577 17326,43576 17329,43575 17332,43574 17335,43574 17338,43573 17341,43572 17344,43572 17347,43572 17350,43571 17354,43571 17357,43571 17360,43571 17363,43571 18690,43571 18693,43571 18696,43571 18699,43571 18702,43571 18706,43572 18709,43572 18712,43572 18715,43573 18718,43574 18721,43574 18724,43575 18727,43576 18730,43577 18733,43578 18736,43579 18739,43580 18742,43581 18745,43583 18748,43584 18750,43585 18753,43587 18756,43588 18759,43590 18761,43592 18764,43593 18766,43595 18769,43597 18771,43599 18774,43601 18776,43603 18778,43605 18781,43607 18783,43609 18785,43612 18787,43614 18789,43616 18791,43619 18793,43621 18795,43624 18797,43626 18798,43629 18800,43631 18802,43634 18803,43636 18804,43639 18806,43642 18807,43645 18808,43648 18810,43650 18811,43653 18812,43656 18813,43659 18814,43662 18814,43665 18815,43668 18816,43671 18816,43674 18817,43677 18817,43680 18818,43683 18818,43686 18818,43689 18818,43692 18818,43695 18818,45814 18818,45817 18818,45820 18818,45823 18818,45826 18817,45829 18817,45832 18816,45835 18816,45838 18815,45841 18814,45844 18814,45847 18813,45850 18812,45853 18811,45856 18810,45858 18808,45861 18807,45864 18806,45867 18804,45870 18803,45872 18802,45875 18800,45878 18798,45880 18797,45883 18795,45885 18793,45888 18791,45890 18789,45893 18787,45895 18785,45897 18783,45899 18781,45902 18778,45904 18776,45906 18774,45908 18771,45910 18769,45912 18766,45914 18764,45915 18761,45917 18759,45919 18756,45920 18753,45922 18750,45923 18748,45925 18745,45926 18742,45927 18739,45929 18736,45930 18733,45931 18730,45932 18727,45933 18724,45934 18721,45934 18718,45935 18715,45936 18712,45936 18709,45937 18706,45937 18702,45938 18699,45938 18696,45938 18693,45938 18690,45938 17363,45938 17360,45938 17357,45938 17354,45938 17350,45938 17347,45937 17344,45937 17341,45936 17338,45936 17335,45935 17332,45934 17329,45934 17326,45933 17323,45932 17320,45931 17317,45930 17314,45929 17311,45927 17308,45926 17305,45925 17302,45923 17300,45922 17297,45920 17294,45919 17292,45917 17289,45915 17286,45914 17284,45912 17282,45910 17279,45908 17277,45906 17275,45904 17272,45902 17270,45899 17268,45897 17266,45895 17264,45893 17262,45890 17260,45888 17258,45885 17256,45883 17255,45880 17253,45878 17251,45875 17250,45872 17248,45870 17247,45867 17246,45864 17244,45861 17243,45858 17242,45856 17241,45853 17240,45850 17239,45847 17239,45844 17238,45841 17237,45838 17237,45835 17236,45832 17236,45829 17235,45826 17235,45823 17235,45820 17235,45817 17235,45814 Z"/>
    <path fill="none" stroke="rgb(255,255,255)" d="M 17235,45814 L 17235,43695 17235,43692 17235,43689 17235,43686 17235,43683 17236,43680 17236,43677 17237,43674 17237,43671 17238,43668 17239,43665 17239,43662 17240,43659 17241,43656 17242,43653 17243,43650 17244,43648 17246,43645 17247,43642 17248,43639 17250,43636 17251,43634 17253,43631 17255,43629 17256,43626 17258,43624 17260,43621 17262,43619 17264,43616 17266,43614 17268,43612 17270,43609 17272,43607 17275,43605 17277,43603 17279,43601 17282,43599 17284,43597 17286,43595 17289,43593 17292,43592 17294,43590 17297,43588 17300,43587 17302,43585 17305,43584 17308,43583 17311,43581 17314,43580 17317,43579 17320,43578 17323,43577 17326,43576 17329,43575 17332,43574 17335,43574 17338,43573 17341,43572 17344,43572 17347,43572 17350,43571 17354,43571 17357,43571 17360,43571 17363,43571 18690,43571 18693,43571 18696,43571 18699,43571 18702,43571 18706,43572 18709,43572 18712,43572 18715,43573 18718,43574 18721,43574 18724,43575 18727,43576 18730,43577 18733,43578 18736,43579 18739,43580 18742,43581 18745,43583 18748,43584 18750,43585 18753,43587 18756,43588 18759,43590 18761,43592 18764,43593 18766,43595 18769,43597 18771,43599 18774,43601 18776,43603 18778,43605 18781,43607 18783,43609 18785,43612 18787,43614 18789,43616 18791,43619 18793,43621 18795,43624 18797,43626 18798,43629 18800,43631 18802,43634 18803,43636 18804,43639 18806,43642 18807,43645 18808,43648 18810,43650 18811,43653 18812,43656 18813,43659 18814,43662 18814,43665 18815,43668 18816,43671 18816,43674 18817,43677 18817,43680 18818,43683 18818,43686 18818,43689 18818,43692 18818,43695 18818,45814 18818,45817 18818,45820 18818,45823 18818,45826 18817,45829 18817,45832 18816,45835 18816,45838 18815,45841 18814,45844 18814,45847 18813,45850 18812,45853 18811,45856 18810,45858 18808,45861 18807,45864 18806,45867 18804,45870 18803,45872 18802,45875 18800,45878 18798,45880 18797,45883 18795,45885 18793,45888 18791,45890 18789,45893 18787,45895 18785,45897 18783,45899 18781,45902 18778,45904 18776,45906 18774,45908 18771,45910 18769,45912 18766,45914 18764,45915 18761,45917 18759,45919 18756,45920 18753,45922 18750,45923 18748,45925 18745,45926 18742,45927 18739,45929 18736,45930 18733,45931 18730,45932 18727,45933 18724,45934 18721,45934 18718,45935 18715,45936 18712,45936 18709,45937 18706,45937 18702,45938 18699,45938 18696,45938 18693,45938 18690,45938 17363,45938 17360,45938 17357,45938 17354,45938 17350,45938 17347,45937 17344,45937 17341,45936 17338,45936 17335,45935 17332,45934 17329,45934 17326,45933 17323,45932 17320,45931 17317,45930 17314,45929 17311,45927 17308,45926 17305,45925 17302,45923 17300,45922 17297,45920 17294,45919 17292,45917 17289,45915 17286,45914 17284,45912 17282,45910 17279,45908 17277,45906 17275,45904 17272,45902 17270,45899 17268,45897 17266,45895 17264,45893 17262,45890 17260,45888 17258,45885 17256,45883 17255,45880 17253,45878 17251,45875 17250,45872 17248,45870 17247,45867 17246,45864 17244,45861 17243,45858 17242,45856 17241,45853 17240,45850 17239,45847 17239,45844 17238,45841 17237,45838 17237,45835 17236,45832 17236,45829 17235,45826 17235,45823 17235,45820 17235,45817 17235,45814 Z"/>
   </g>
  </g>
  <g class="com.sun.star.drawing.PolyPolygonShape">
   <g id="id5">
    <rect class="BoundingBox" stroke="none" fill="none" x="17298" y="43632" width="1458" height="2246"/>
    <path fill="rgb(0,0,255)" stroke="none" d="M 17299,45814 L 17299,43695 17299,43694 17299,43692 17299,43691 17299,43689 17299,43688 17300,43686 17300,43685 17300,43683 17300,43682 17301,43680 17301,43679 17302,43677 17302,43676 17303,43674 17303,43673 17304,43671 17304,43670 17305,43669 17306,43667 17306,43666 17307,43665 17308,43663 17309,43662 17310,43661 17310,43659 17311,43658 17312,43657 17313,43656 17314,43655 17315,43653 17317,43652 17318,43651 17319,43650 17320,43649 17321,43648 17322,43647 17324,43646 17325,43645 17326,43644 17327,43644 17329,43643 17330,43642 17331,43641 17333,43640 17334,43640 17336,43639 17337,43638 17338,43638 17340,43637 17341,43637 17343,43636 17344,43636 17346,43635 17348,43635 17349,43634 17350,43634 17352,43634 17354,43634 17355,43633 17357,43633 17358,43633 17360,43633 17361,43633 17363,43633 18690,43633 18691,43633 18693,43633 18695,43633 18696,43633 18698,43633 18699,43634 18701,43634 18702,43634 18704,43634 18705,43635 18707,43635 18708,43636 18710,43636 18711,43637 18713,43637 18714,43638 18716,43638 18717,43639 18719,43640 18720,43640 18721,43641 18723,43642 18724,43643 18726,43644 18727,43644 18728,43645 18729,43646 18731,43647 18732,43648 18733,43649 18734,43650 18735,43651 18736,43652 18737,43653 18739,43655 18739,43656 18740,43657 18741,43658 18742,43659 18743,43661 18744,43662 18745,43663 18746,43665 18747,43666 18747,43667 18748,43669 18749,43670 18749,43671 18750,43673 18750,43674 18751,43676 18751,43677 18752,43679 18752,43680 18752,43682 18753,43683 18753,43685 18753,43686 18754,43688 18754,43689 18754,43691 18754,43692 18754,43694 18754,43695 18754,45814 18754,45815 18754,45817 18754,45818 18754,45820 18754,45821 18753,45823 18753,45824 18753,45826 18752,45827 18752,45829 18752,45830 18751,45832 18751,45833 18750,45835 18750,45836 18749,45837 18749,45839 18748,45840 18747,45842 18747,45843 18746,45844 18745,45846 18744,45847 18743,45848 18742,45850 18741,45851 18740,45852 18739,45853 18739,45854 18737,45855 18736,45857 18735,45858 18734,45859 18733,45860 18732,45861 18731,45862 18729,45863 18728,45864 18727,45865 18726,45865 18724,45866 18723,45867 18721,45868 18720,45869 18719,45869 18717,45870 18716,45871 18714,45871 18713,45872 18711,45872 18710,45873 18708,45873 18707,45874 18705,45874 18704,45874 18702,45875 18701,45875 18699,45875 18698,45875 18696,45876 18695,45876 18693,45876 18691,45876 18690,45876 17363,45876 17361,45876 17360,45876 17358,45876 17357,45876 17355,45875 17354,45875 17352,45875 17350,45875 17349,45874 17348,45874 17346,45874 17344,45873 17343,45873 17341,45872 17340,45872 17338,45871 17337,45871 17336,45870 17334,45869 17333,45869 17331,45868 17330,45867 17329,45866 17327,45865 17326,45865 17325,45864 17324,45863 17322,45862 17321,45861 17320,45860 17319,45859 17318,45858 17317,45857 17315,45855 17314,45854 17313,45853 17312,45852 17311,45851 17310,45850 17310,45848 17309,45847 17308,45846 17307,45844 17306,45843 17306,45842 17305,45840 17304,45839 17304,45837 17303,45836 17303,45835 17302,45833 17302,45832 17301,45830 17301,45829 17300,45827 17300,45826 17300,45824 17300,45823 17299,45821 17299,45820 17299,45818 17299,45817 17299,45815 17299,45814 Z"/>
    <path fill="none" stroke="rgb(0,0,255)" d="M 17299,45814 L 17299,43695 17299,43694 17299,43692 17299,43691 17299,43689 17299,43688 17300,43686 17300,43685 17300,43683 17300,43682 17301,43680 17301,43679 17302,43677 17302,43676 17303,43674 17303,43673 17304,43671 17304,43670 17305,43669 17306,43667 17306,43666 17307,43665 17308,43663 17309,43662 17310,43661 17310,43659 17311,43658 17312,43657 17313,43656 17314,43655 17315,43653 17317,43652 17318,43651 17319,43650 17320,43649 17321,43648 17322,43647 17324,43646 17325,43645 17326,43644 17327,43644 17329,43643 17330,43642 17331,43641 17333,43640 17334,43640 17336,43639 17337,43638 17338,43638 17340,43637 17341,43637 17343,43636 17344,43636 17346,43635 17348,43635 17349,43634 17350,43634 17352,43634 17354,43634 17355,43633 17357,43633 17358,43633 17360,43633 17361,43633 17363,43633 18690,43633 18691,43633 18693,43633 18695,43633 18696,43633 18698,43633 18699,43634 18701,43634 18702,43634 18704,43634 18705,43635 18707,43635 18708,43636 18710,43636 18711,43637 18713,43637 18714,43638 18716,43638 18717,43639 18719,43640 18720,43640 18721,43641 18723,43642 18724,43643 18726,43644 18727,43644 18728,43645 18729,43646 18731,43647 18732,43648 18733,43649 18734,43650 18735,43651 18736,43652 18737,43653 18739,43655 18739,43656 18740,43657 18741,43658 18742,43659 18743,43661 18744,43662 18745,43663 18746,43665 18747,43666 18747,43667 18748,43669 18749,43670 18749,43671 18750,43673 18750,43674 18751,43676 18751,43677 18752,43679 18752,43680 18752,43682 18753,43683 18753,43685 18753,43686 18754,43688 18754,43689 18754,43691 18754,43692 18754,43694 18754,43695 18754,45814 18754,45815 18754,45817 18754,45818 18754,45820 18754,45821 18753,45823 18753,45824 18753,45826 18752,45827 18752,45829 18752,45830 18751,45832 18751,45833 18750,45835 18750,45836 18749,45837 18749,45839 18748,45840 18747,45842 18747,45843 18746,45844 18745,45846 18744,45847 18743,45848 18742,45850 18741,45851 18740,45852 18739,45853 18739,45854 18737,45855 18736,45857 18735,45858 18734,45859 18733,45860 18732,45861 18731,45862 18729,45863 18728,45864 18727,45865 18726,45865 18724,45866 18723,45867 18721,45868 18720,45869 18719,45869 18717,45870 18716,45871 18714,45871 18713,45872 18711,45872 18710,45873 18708,45873 18707,45874 18705,45874 18704,45874 18702,45875 18701,45875 18699,45875 18698,45875 18696,45876 18695,45876 18693,45876 18691,45876 18690,45876 17363,45876 17361,45876 17360,45876 17358,45876 17357,45876 17355,45875 17354,45875 17352,45875 17350,45875 17349,45874 17348,45874 17346,45874 17344,45873 17343,45873 17341,45872 17340,45872 17338,45871 17337,45871 17336,45870 17334,45869 17333,45869 17331,45868 17330,45867 17329,45866 17327,45865 17326,45865 17325,45864 17324,45863 17322,45862 17321,45861 17320,45860 17319,45859 17318,45858 17317,45857 17315,45855 17314,45854 17313,45853 17312,45852 17311,45851 17310,45850 17310,45848 17309,45847 17308,45846 17307,45844 17306,45843 17306,45842 17305,45840 17304,45839 17304,45837 17303,45836 17303,45835 17302,45833 17302,45832 17301,45830 17301,45829 17300,45827 17300,45826 17300,45824 17300,45823 17299,45821 17299,45820 17299,45818 17299,45817 17299,45815 17299,45814 Z"/>
   </g>
  </g>
  <g class="com.sun.star.drawing.PolyPolygonShape">
   <g id="id6">
    <rect class="BoundingBox" stroke="none" fill="none" x="17407" y="44149" width="1239" height="1211"/>
    <path fill="rgb(255,255,255)" stroke="none" d="M 18644,45358 L 17408,45358 17408,44150 18644,44150 18644,45358 Z"/>
    <path fill="none" stroke="rgb(255,255,255)" d="M 18644,45358 L 17408,45358 17408,44150 18644,44150 18644,45358 Z"/>
   </g>
  </g>
  <g class="com.sun.star.drawing.PolyPolygonShape">
   <g id="id7">
    <rect class="BoundingBox" stroke="none" fill="none" x="17557" y="44274" width="940" height="962"/>
    <path fill="rgb(0,0,0)" stroke="none" d="M 17803,44727 L 17796,44728 17794,44734 17791,44741 17789,44748 17787,44755 17784,44761 17782,44768 17779,44775 17777,44781 17774,44788 17771,44794 17769,44801 17766,44807 17763,44814 17760,44820 17757,44826 17754,44833 17750,44839 17747,44846 17744,44852 17741,44858 17737,44864 17734,44870 17730,44877 17726,44883 17723,44889 17719,44895 17715,44901 17711,44907 17707,44913 17703,44919 17699,44924 17695,44930 17662,44974 17659,44978 17657,44981 17655,44984 17652,44988 17650,44991 17648,44994 17646,44998 17644,45001 17641,45005 17639,45008 17637,45012 17635,45015 17633,45019 17632,45023 17630,45026 17628,45030 17626,45034 17624,45038 17622,45042 17621,45047 17619,45051 17618,45055 17616,45060 17615,45064 17614,45068 17613,45073 17612,45077 17611,45082 17610,45086 17609,45091 17609,45095 17608,45100 17608,45102 17608,45104 17608,45106 17608,45108 17608,45110 17608,45112 17609,45115 17609,45117 17609,45119 17610,45121 17610,45123 17611,45125 17611,45127 17612,45129 17613,45131 17613,45133 17614,45135 17615,45137 17616,45139 17617,45141 17618,45143 17619,45145 17621,45147 17622,45149 17623,45150 17625,45152 17626,45154 17628,45155 17629,45157 17630,45158 17632,45160 17634,45161 17636,45163 17638,45164 17639,45166 17641,45167 17643,45168 17645,45170 17647,45171 17650,45172 17652,45173 17654,45174 17656,45175 17658,45176 17660,45177 17662,45178 17665,45179 17667,45180 17669,45180 17672,45181 17674,45182 17676,45182 17679,45183 17681,45183 17683,45184 17686,45184 17688,45184 17690,45184 17693,45185 17695,45185 17698,45185 17700,45185 17703,45185 17705,45185 17708,45184 17711,45184 17714,45184 17716,45183 17719,45183 17722,45182 17725,45182 17728,45181 17730,45180 17733,45180 17736,45179 17738,45178 17741,45177 17744,45176 17746,45175 17749,45174 17752,45173 17754,45172 17757,45170 17759,45169 17762,45168 17764,45166 17767,45165 17769,45163 17771,45162 17774,45160 17776,45159 17778,45157 17780,45155 17783,45153 17785,45151 17787,45150 17788,45148 17790,45146 17791,45145 17792,45143 17794,45141 17795,45139 17796,45138 17796,45136 17797,45134 17798,45132 17798,45129 17799,45128 17799,45125 17800,45123 17800,45121 17800,45119 17803,44727 Z M 18495,45168 L 18495,44316 18495,44315 18495,44312 18494,44310 18494,44308 18494,44306 18493,44304 18492,44302 18492,44301 18491,44299 18490,44297 18489,44295 18488,44293 18486,44292 18485,44290 18484,44289 18482,44287 18481,44286 18479,44284 18477,44283 18476,44282 18474,44281 18472,44280 18470,44279 18468,44278 18466,44277 18464,44277 18462,44276 18460,44276 18458,44275 18456,44275 18454,44275 18452,44275 17939,44275 17937,44275 17934,44275 17932,44275 17930,44276 17928,44276 17926,44277 17924,44277 17922,44278 17920,44279 17919,44280 17917,44281 17915,44282 17913,44283 17912,44284 17910,44286 17909,44287 17907,44289 17906,44290 17904,44292 17903,44293 17902,44295 17901,44297 17900,44299 17899,44301 17898,44302 17898,44304 17897,44306 17897,44308 17896,44310 17896,44312 17896,44315 17896,44316 17896,44358 17893,44358 17890,44359 17888,44359 17885,44360 17882,44360 17880,44361 17877,44361 17874,44362 17872,44363 17869,44364 17867,44365 17864,44366 17861,44367 17859,44368 17856,44369 17854,44371 17852,44372 17849,44373 17847,44375 17845,44376 17843,44378 17840,44380 17838,44381 17836,44383 17834,44385 17832,44387 17830,44389 17828,44391 17826,44393 17825,44395 17823,44397 17821,44399 17820,44400 17819,44402 17818,44403 17817,44405 17817,44407 17816,44408 17815,44410 17815,44411 17814,44413 17814,44415 17813,44417 17813,44418 17813,44420 17812,44422 17812,44424 17812,44425 17795,44567 17795,44571 17794,44575 17794,44579 17793,44583 17792,44587 17791,44591 17791,44596 17790,44600 17789,44604 17788,44608 17788,44612 17787,44616 17786,44620 17785,44624 17784,44628 17783,44632 17782,44636 17780,44640 17779,44644 17778,44648 17777,44652 17776,44656 17775,44660 17773,44664 17772,44668 17771,44672 17769,44676 17768,44680 17766,44683 17765,44687 17763,44691 17762,44695 17757,44705 17753,44715 17749,44725 17744,44735 17740,44745 17735,44755 17731,44765 17726,44775 17721,44785 17716,44795 17711,44805 17706,44814 17701,44824 17696,44834 17691,44843 17685,44853 17684,44856 17682,44859 17680,44862 17678,44865 17676,44868 17674,44871 17672,44874 17670,44877 17668,44880 17666,44883 17664,44886 17662,44889 17660,44892 17658,44895 17655,44898 17653,44900 17605,44970 17603,44974 17601,44978 17598,44981 17596,44985 17594,44989 17592,44992 17590,44996 17588,45000 17586,45004 17584,45007 17582,45011 17580,45015 17579,45019 17577,45023 17575,45027 17574,45031 17573,45035 17571,45039 17570,45043 17569,45047 17567,45051 17566,45056 17565,45060 17564,45064 17563,45068 17562,45072 17562,45076 17561,45081 17560,45085 17560,45089 17559,45093 17559,45097 17558,45100 17558,45102 17558,45105 17558,45107 17558,45109 17558,45112 17558,45114 17558,45116 17558,45119 17559,45121 17559,45123 17559,45126 17560,45128 17560,45131 17561,45133 17561,45135 17562,45137 17562,45140 17563,45142 17564,45144 17564,45147 17565,45149 17566,45151 17567,45153 17568,45156 17569,45158 17570,45160 17571,45162 17572,45164 17573,45166 17574,45168 17575,45170 17577,45172 17578,45174 17579,45176 17581,45178 17582,45180 17584,45182 17585,45184 17587,45186 17588,45188 17590,45189 17591,45191 17593,45193 17595,45195 17596,45196 17598,45198 17600,45200 17602,45201 17604,45202 17606,45204 17608,45205 17610,45207 17612,45208 17614,45210 17616,45211 17618,45212 17620,45213 17622,45214 17624,45215 17626,45217 17629,45218 17631,45219 17633,45220 17636,45221 17639,45222 17642,45223 17645,45224 17648,45225 17652,45226 17654,45227 17658,45228 17661,45229 17664,45229 17667,45230 17670,45230 17674,45231 17677,45232 17680,45232 17683,45232 17686,45233 17690,45233 17693,45233 17696,45233 17699,45233 17703,45233 17706,45233 17709,45233 17712,45233 17716,45233 17719,45233 17722,45232 17725,45232 17729,45231 17732,45231 17735,45230 17738,45230 17741,45229 17744,45228 17748,45227 17751,45227 17754,45226 17757,45225 17760,45224 17763,45223 17766,45221 17769,45220 17772,45219 17775,45218 17778,45216 17781,45215 17784,45213 17787,45212 17790,45210 17792,45209 17795,45207 17798,45205 17801,45204 17803,45202 17806,45200 17808,45198 17811,45196 17813,45194 17816,45192 17818,45190 17821,45188 17823,45186 17825,45184 17827,45182 17829,45180 17830,45179 17831,45177 17833,45175 17834,45174 17835,45172 17837,45170 17838,45168 17839,45167 17840,45165 17841,45163 17843,45161 17843,45159 17844,45157 17845,45155 17846,45153 17847,45151 17848,45149 17849,45147 17849,45145 17850,45143 17850,45140 17851,45138 17851,45136 17852,45134 17852,45132 17852,45130 17852,45128 17853,45125 17853,45123 17853,45121 17852,44566 17897,44566 17896,45168 17947,45168 17947,45234 18444,45234 18444,45168 18495,45168 Z"/>
    <path fill="none" stroke="rgb(0,0,0)" d="M 17803,44727 L 17796,44728 17794,44734 17791,44741 17789,44748 17787,44755 17784,44761 17782,44768 17779,44775 17777,44781 17774,44788 17771,44794 17769,44801 17766,44807 17763,44814 17760,44820 17757,44826 17754,44833 17750,44839 17747,44846 17744,44852 17741,44858 17737,44864 17734,44870 17730,44877 17726,44883 17723,44889 17719,44895 17715,44901 17711,44907 17707,44913 17703,44919 17699,44924 17695,44930 17662,44974 17659,44978 17657,44981 17655,44984 17652,44988 17650,44991 17648,44994 17646,44998 17644,45001 17641,45005 17639,45008 17637,45012 17635,45015 17633,45019 17632,45023 17630,45026 17628,45030 17626,45034 17624,45038 17622,45042 17621,45047 17619,45051 17618,45055 17616,45060 17615,45064 17614,45068 17613,45073 17612,45077 17611,45082 17610,45086 17609,45091 17609,45095 17608,45100 17608,45102 17608,45104 17608,45106 17608,45108 17608,45110 17608,45112 17609,45115 17609,45117 17609,45119 17610,45121 17610,45123 17611,45125 17611,45127 17612,45129 17613,45131 17613,45133 17614,45135 17615,45137 17616,45139 17617,45141 17618,45143 17619,45145 17621,45147 17622,45149 17623,45150 17625,45152 17626,45154 17628,45155 17629,45157 17630,45158 17632,45160 17634,45161 17636,45163 17638,45164 17639,45166 17641,45167 17643,45168 17645,45170 17647,45171 17650,45172 17652,45173 17654,45174 17656,45175 17658,45176 17660,45177 17662,45178 17665,45179 17667,45180 17669,45180 17672,45181 17674,45182 17676,45182 17679,45183 17681,45183 17683,45184 17686,45184 17688,45184 17690,45184 17693,45185 17695,45185 17698,45185 17700,45185 17703,45185 17705,45185 17708,45184 17711,45184 17714,45184 17716,45183 17719,45183 17722,45182 17725,45182 17728,45181 17730,45180 17733,45180 17736,45179 17738,45178 17741,45177 17744,45176 17746,45175 17749,45174 17752,45173 17754,45172 17757,45170 17759,45169 17762,45168 17764,45166 17767,45165 17769,45163 17771,45162 17774,45160 17776,45159 17778,45157 17780,45155 17783,45153 17785,45151 17787,45150 17788,45148 17790,45146 17791,45145 17792,45143 17794,45141 17795,45139 17796,45138 17796,45136 17797,45134 17798,45132 17798,45129 17799,45128 17799,45125 17800,45123 17800,45121 17800,45119 17803,44727 Z"/>
    <path fill="none" stroke="rgb(0,0,0)" d="M 18495,45168 L 18495,44316 18495,44315 18495,44312 18494,44310 18494,44308 18494,44306 18493,44304 18492,44302 18492,44301 18491,44299 18490,44297 18489,44295 18488,44293 18486,44292 18485,44290 18484,44289 18482,44287 18481,44286 18479,44284 18477,44283 18476,44282 18474,44281 18472,44280 18470,44279 18468,44278 18466,44277 18464,44277 18462,44276 18460,44276 18458,44275 18456,44275 18454,44275 18452,44275 17939,44275 17937,44275 17934,44275 17932,44275 17930,44276 17928,44276 17926,44277 17924,44277 17922,44278 17920,44279 17919,44280 17917,44281 17915,44282 17913,44283 17912,44284 17910,44286 17909,44287 17907,44289 17906,44290 17904,44292 17903,44293 17902,44295 17901,44297 17900,44299 17899,44301 17898,44302 17898,44304 17897,44306 17897,44308 17896,44310 17896,44312 17896,44315 17896,44316 17896,44358 17893,44358 17890,44359 17888,44359 17885,44360 17882,44360 17880,44361 17877,44361 17874,44362 17872,44363 17869,44364 17867,44365 17864,44366 17861,44367 17859,44368 17856,44369 17854,44371 17852,44372 17849,44373 17847,44375 17845,44376 17843,44378 17840,44380 17838,44381 17836,44383 17834,44385 17832,44387 17830,44389 17828,44391 17826,44393 17825,44395 17823,44397 17821,44399 17820,44400 17819,44402 17818,44403 17817,44405 17817,44407 17816,44408 17815,44410 17815,44411 17814,44413 17814,44415 17813,44417 17813,44418 17813,44420 17812,44422 17812,44424 17812,44425 17795,44567 17795,44571 17794,44575 17794,44579 17793,44583 17792,44587 17791,44591 17791,44596 17790,44600 17789,44604 17788,44608 17788,44612 17787,44616 17786,44620 17785,44624 17784,44628 17783,44632 17782,44636 17780,44640 17779,44644 17778,44648 17777,44652 17776,44656 17775,44660 17773,44664 17772,44668 17771,44672 17769,44676 17768,44680 17766,44683 17765,44687 17763,44691 17762,44695 17757,44705 17753,44715 17749,44725 17744,44735 17740,44745 17735,44755 17731,44765 17726,44775 17721,44785 17716,44795 17711,44805 17706,44814 17701,44824 17696,44834 17691,44843 17685,44853 17684,44856 17682,44859 17680,44862 17678,44865 17676,44868 17674,44871 17672,44874 17670,44877 17668,44880 17666,44883 17664,44886 17662,44889 17660,44892 17658,44895 17655,44898 17653,44900 17605,44970 17603,44974 17601,44978 17598,44981 17596,44985 17594,44989 17592,44992 17590,44996 17588,45000 17586,45004 17584,45007 17582,45011 17580,45015 17579,45019 17577,45023 17575,45027 17574,45031 17573,45035 17571,45039 17570,45043 17569,45047 17567,45051 17566,45056 17565,45060 17564,45064 17563,45068 17562,45072 17562,45076 17561,45081 17560,45085 17560,45089 17559,45093 17559,45097 17558,45100 17558,45102 17558,45105 17558,45107 17558,45109 17558,45112 17558,45114 17558,45116 17558,45119 17559,45121 17559,45123 17559,45126 17560,45128 17560,45131 17561,45133 17561,45135 17562,45137 17562,45140 17563,45142 17564,45144 17564,45147 17565,45149 17566,45151 17567,45153 17568,45156 17569,45158 17570,45160 17571,45162 17572,45164 17573,45166 17574,45168 17575,45170 17577,45172 17578,45174 17579,45176 17581,45178 17582,45180 17584,45182 17585,45184 17587,45186 17588,45188 17590,45189 17591,45191 17593,45193 17595,45195 17596,45196 17598,45198 17600,45200 17602,45201 17604,45202 17606,45204 17608,45205 17610,45207 17612,45208 17614,45210 17616,45211 17618,45212 17620,45213 17622,45214 17624,45215 17626,45217 17629,45218 17631,45219 17633,45220 17636,45221 17639,45222 17642,45223 17645,45224 17648,45225 17652,45226 17654,45227 17658,45228 17661,45229 17664,45229 17667,45230 17670,45230 17674,45231 17677,45232 17680,45232 17683,45232 17686,45233 17690,45233 17693,45233 17696,45233 17699,45233 17703,45233 17706,45233 17709,45233 17712,45233 17716,45233 17719,45233 17722,45232 17725,45232 17729,45231 17732,45231 17735,45230 17738,45230 17741,45229 17744,45228 17748,45227 17751,45227 17754,45226 17757,45225 17760,45224 17763,45223 17766,45221 17769,45220 17772,45219 17775,45218 17778,45216 17781,45215 17784,45213 17787,45212 17790,45210 17792,45209 17795,45207 17798,45205 17801,45204 17803,45202 17806,45200 17808,45198 17811,45196 17813,45194 17816,45192 17818,45190 17821,45188 17823,45186 17825,45184 17827,45182 17829,45180 17830,45179 17831,45177 17833,45175 17834,45174 17835,45172 17837,45170 17838,45168 17839,45167 17840,45165 17841,45163 17843,45161 17843,45159 17844,45157 17845,45155 17846,45153 17847,45151 17848,45149 17849,45147 17849,45145 17850,45143 17850,45140 17851,45138 17851,45136 17852,45134 17852,45132 17852,45130 17852,45128 17853,45125 17853,45123 17853,45121 17852,44566 17897,44566 17896,45168 17947,45168 17947,45234 18444,45234 18444,45168 18495,45168 Z"/>
   </g>
  </g>
  <g class="com.sun.star.drawing.PolyPolygonShape">
   <g id="id8">
    <rect class="BoundingBox" stroke="none" fill="none" x="17993" y="44356" width="406" height="285"/>
    <path fill="rgb(255,255,255)" stroke="none" d="M 18354,44357 L 18036,44357 18034,44357 18032,44357 18030,44358 18028,44358 18026,44358 18024,44359 18022,44360 18020,44360 18018,44361 18016,44362 18014,44363 18013,44364 18011,44365 18009,44367 18008,44368 18006,44369 18005,44371 18003,44372 18002,44374 18001,44376 18000,44377 17999,44379 17998,44381 17997,44383 17996,44385 17995,44387 17995,44389 17994,44391 17994,44393 17994,44395 17994,44397 17994,44399 17994,44598 17994,44600 17994,44602 17994,44604 17994,44606 17995,44608 17995,44610 17996,44612 17997,44614 17998,44616 17999,44617 18000,44619 18001,44621 18002,44623 18003,44624 18005,44626 18006,44627 18008,44629 18009,44630 18011,44631 18013,44632 18014,44633 18016,44634 18018,44635 18020,44636 18022,44637 18024,44638 18026,44638 18028,44639 18030,44639 18032,44639 18034,44639 18036,44639 18354,44639 18356,44639 18359,44639 18361,44639 18363,44639 18365,44638 18367,44638 18369,44637 18371,44636 18373,44635 18374,44634 18376,44633 18378,44632 18380,44631 18382,44630 18383,44629 18385,44627 18386,44626 18387,44624 18389,44623 18390,44621 18391,44619 18392,44617 18393,44616 18394,44614 18395,44612 18395,44610 18396,44608 18396,44606 18397,44604 18397,44602 18397,44600 18397,44598 18397,44399 18397,44397 18397,44395 18397,44393 18396,44391 18396,44389 18395,44387 18395,44385 18394,44383 18393,44381 18392,44379 18391,44377 18390,44376 18389,44374 18387,44372 18386,44371 18385,44369 18383,44368 18382,44367 18380,44365 18378,44364 18376,44363 18374,44362 18373,44361 18371,44360 18369,44360 18367,44359 18365,44358 18363,44358 18361,44358 18359,44357 18356,44357 18354,44357 Z"/>
    <path fill="none" stroke="rgb(255,255,255)" d="M 18354,44357 L 18036,44357 18034,44357 18032,44357 18030,44358 18028,44358 18026,44358 18024,44359 18022,44360 18020,44360 18018,44361 18016,44362 18014,44363 18013,44364 18011,44365 18009,44367 18008,44368 18006,44369 18005,44371 18003,44372 18002,44374 18001,44376 18000,44377 17999,44379 17998,44381 17997,44383 17996,44385 17995,44387 17995,44389 17994,44391 17994,44393 17994,44395 17994,44397 17994,44399 17994,44598 17994,44600 17994,44602 17994,44604 17994,44606 17995,44608 17995,44610 17996,44612 17997,44614 17998,44616 17999,44617 18000,44619 18001,44621 18002,44623 18003,44624 18005,44626 18006,44627 18008,44629 18009,44630 18011,44631 18013,44632 18014,44633 18016,44634 18018,44635 18020,44636 18022,44637 18024,44638 18026,44638 18028,44639 18030,44639 18032,44639 18034,44639 18036,44639 18354,44639 18356,44639 18359,44639 18361,44639 18363,44639 18365,44638 18367,44638 18369,44637 18371,44636 18373,44635 18374,44634 18376,44633 18378,44632 18380,44631 18382,44630 18383,44629 18385,44627 18386,44626 18387,44624 18389,44623 18390,44621 18391,44619 18392,44617 18393,44616 18394,44614 18395,44612 18395,44610 18396,44608 18396,44606 18397,44604 18397,44602 18397,44600 18397,44598 18397,44399 18397,44397 18397,44395 18397,44393 18396,44391 18396,44389 18395,44387 18395,44385 18394,44383 18393,44381 18392,44379 18391,44377 18390,44376 18389,44374 18387,44372 18386,44371 18385,44369 18383,44368 18382,44367 18380,44365 18378,44364 18376,44363 18374,44362 18373,44361 18371,44360 18369,44360 18367,44359 18365,44358 18363,44358 18361,44358 18359,44357 18356,44357 18354,44357 Z"/>
   </g>
  </g>
 </g>
</svg>