<?xml version="1.0" encoding="UTF-8"?>
<!DOCTYPE svg PUBLIC "-//W3C//DTD SVG 1.1//EN" "http://www.w3.org/Graphics/SVG/1.1/DTD/svg11.dtd">
<svg version="1.2" width="16.62mm" height="24.96mm" viewBox="30725 43507 1662 2496" preserveAspectRatio="xMidYMid" fill-rule="evenodd" stroke-width="28.222" stroke-linejoin="round" xmlns="http://www.w3.org/2000/svg" xmlns:ooo="http://xml.openoffice.org/svg/export" xmlns:xlink="http://www.w3.org/1999/xlink" xmlns:presentation="http://sun.com/xmlns/staroffice/presentation" xmlns:smil="http://www.w3.org/2001/SMIL20/" xmlns:anim="urn:oasis:names:tc:opendocument:xmlns:animation:1.0" xml:space="preserve">
 <defs class="EmbeddedBulletChars">
  <g id="bullet-char-template-57356" transform="scale(0.00048828125,-0.00048828125)">
   <path d="M 580,1141 L 1163,571 580,0 -4,571 580,1141 Z"/>
  </g>
  <g id="bullet-char-template-57354" transform="scale(0.00048828125,-0.00048828125)">
   <path d="M 8,1128 L 1137,1128 1137,0 8,0 8,1128 Z"/>
  </g>
  <g id="bullet-char-template-10146" transform="scale(0.00048828125,-0.00048828125)">
   <path d="M 174,0 L 602,739 174,1481 1456,739 174,0 Z M 1358,739 L 309,1346 659,739 1358,739 Z"/>
  </g>
  <g id="bullet-char-template-10132" transform="scale(0.00048828125,-0.00048828125)">
   <path d="M 2015,739 L 1276,0 717,0 1260,543 174,543 174,936 1260,936 717,1481 1274,1481 2015,739 Z"/>
  </g>
  <g id="bullet-char-template-10007" transform="scale(0.00048828125,-0.00048828125)">
   <path d="M 0,-2 C -7,14 -16,27 -25,37 L 356,567 C 262,823 215,952 215,954 215,979 228,992 255,992 264,992 276,990 289,987 310,991 331,999 354,1012 L 381,999 492,748 772,1049 836,1024 860,1049 C 881,1039 901,1025 922,1006 886,937 835,863 770,784 769,783 710,716 594,584 L 774,223 C 774,196 753,168 711,139 L 727,119 C 717,90 699,76 672,76 641,76 570,178 457,381 L 164,-76 C 142,-110 111,-127 72,-127 30,-127 9,-110 8,-76 1,-67 -2,-52 -2,-32 -2,-23 -1,-13 0,-2 Z"/>
  </g>
  <g id="bullet-char-template-10004" transform="scale(0.00048828125,-0.00048828125)">
   <path d="M 285,-33 C 182,-33 111,30 74,156 52,228 41,333 41,471 41,549 55,616 82,672 116,743 169,778 240,778 293,778 328,747 346,684 L 369,508 C 377,444 397,411 428,410 L 1163,1116 C 1174,1127 1196,1133 1229,1133 1271,1133 1292,1118 1292,1087 L 1292,965 C 1292,929 1282,901 1262,881 L 442,47 C 390,-6 338,-33 285,-33 Z"/>
  </g>
  <g id="bullet-char-template-9679" transform="scale(0.00048828125,-0.00048828125)">
   <path d="M 813,0 C 632,0 489,54 383,161 276,268 223,411 223,592 223,773 276,916 383,1023 489,1130 632,1184 813,1184 992,1184 1136,1130 1245,1023 1353,916 1407,772 1407,592 1407,412 1353,268 1245,161 1136,54 992,0 813,0 Z"/>
  </g>
  <g id="bullet-char-template-8226" transform="scale(0.00048828125,-0.00048828125)">
   <path d="M 346,457 C 273,457 209,483 155,535 101,586 74,649 74,723 74,796 101,859 155,911 209,963 273,989 346,989 419,989 480,963 531,910 582,859 608,796 608,723 608,648 583,586 532,535 482,483 420,457 346,457 Z"/>
  </g>
  <g id="bullet-char-template-8211" transform="scale(0.00048828125,-0.00048828125)">
   <path d="M -4,459 L 1135,459 1135,606 -4,606 -4,459 Z"/>
  </g>
  <g id="bullet-char-template-61548" transform="scale(0.00048828125,-0.00048828125)">
   <path d="M 173,740 C 173,903 231,1043 346,1159 462,1274 601,1332 765,1332 928,1332 1067,1274 1183,1159 1299,1043 1357,903 1357,740 1357,577 1299,437 1183,322 1067,206 928,148 765,148 601,148 462,206 346,322 231,437 173,577 173,740 Z"/>
  </g>
 </defs>
 <g class="Page">
  <g class="com.sun.star.drawing.PolyPolygonShape">
   <g id="id3">
    <rect class="BoundingBox" stroke="none" fill="none" x="30725" y="43507" width="1662" height="2496"/>
    <path fill="rgb(0,0,255)" stroke="none" d="M 30913,46001 L 32197,46001 32216,46000 32234,45997 32251,45992 32269,45986 32285,45978 32301,45969 32317,45958 32330,45946 32342,45932 32353,45917 32363,45902 32371,45885 32377,45868 32381,45850 32384,45832 32385,45814 32385,43696 32384,43678 32381,43660 32377,43642 32371,43625 32363,43608 32353,43591 32342,43577 32330,43563 32317,43551 32301,43540 32285,43530 32269,43523 32251,43516 32234,43512 32216,43509 32197,43508 30913,43508 30894,43509 30876,43512 30859,43516 30841,43523 30825,43530 30809,43540 30794,43551 30781,43563 30768,43577 30758,43591 30748,43608 30740,43625 30734,43642 30730,43660 30727,43678 30726,43696 30726,45814 30727,45832 30730,45850 30734,45868 30740,45885 30748,45902 30758,45917 30768,45932 30781,45946 30794,45958 30809,45969 30825,45978 30841,45986 30859,45992 30876,45997 30894,46000 30913,46001 Z"/>
    <path fill="none" stroke="rgb(0,0,255)" d="M 30913,46001 L 32197,46001 32216,46000 32234,45997 32251,45992 32269,45986 32285,45978 32301,45969 32317,45958 32330,45946 32342,45932 32353,45917 32363,45902 32371,45885 32377,45868 32381,45850 32384,45832 32385,45814 32385,43696 32384,43678 32381,43660 32377,43642 32371,43625 32363,43608 32353,43591 32342,43577 32330,43563 32317,43551 32301,43540 32285,43530 32269,43523 32251,43516 32234,43512 32216,43509 32197,43508 30913,43508 30894,43509 30876,43512 30859,43516 30841,43523 30825,43530 30809,43540 30794,43551 30781,43563 30768,43577 30758,43591 30748,43608 30740,43625 30734,43642 30730,43660 30727,43678 30726,43696 30726,45814 30727,45832 30730,45850 30734,45868 30740,45885 30748,45902 30758,45917 30768,45932 30781,45946 30794,45958 30809,45969 30825,45978 30841,45986 30859,45992 30876,45997 30894,46000 30913,46001 Z"/>
   </g>
  </g>
  <g class="com.sun.star.drawing.PolyPolygonShape">
   <g id="id4">
    <rect class="BoundingBox" stroke="none" fill="none" x="30787" y="43570" width="1538" height="2370"/>
    <path fill="rgb(255,255,255)" stroke="none" d="M 30913,45938 L 32198,45938 32210,45938 32222,45936 32234,45933 32246,45929 32257,45923 32267,45917 32277,45910 32286,45902 32294,45893 32302,45883 32308,45872 32313,45861 32317,45850 32320,45838 32322,45826 32323,45814 32323,43695 32322,43683 32320,43671 32317,43659 32313,43648 32308,43637 32302,43626 32294,43616 32286,43607 32277,43599 32267,43592 32257,43585 32246,43580 32234,43576 32222,43573 32210,43571 32198,43571 30913,43571 30900,43571 30888,43573 30876,43576 30865,43580 30854,43585 30843,43592 30834,43599 30825,43607 30816,43616 30809,43626 30803,43637 30798,43648 30794,43659 30791,43671 30789,43683 30788,43695 30788,45814 30789,45826 30791,45838 30794,45850 30798,45861 30803,45872 30809,45883 30816,45893 30825,45902 30834,45910 30843,45917 30854,45923 30865,45929 30876,45933 30888,45936 30900,45938 30913,45938 Z"/>
    <path fill="none" stroke="rgb(255,255,255)" d="M 30913,45938 L 32198,45938 32210,45938 32222,45936 32234,45933 32246,45929 32257,45923 32267,45917 32277,45910 32286,45902 32294,45893 32302,45883 32308,45872 32313,45861 32317,45850 32320,45838 32322,45826 32323,45814 32323,43695 32322,43683 32320,43671 32317,43659 32313,43648 32308,43637 32302,43626 32294,43616 32286,43607 32277,43599 32267,43592 32257,43585 32246,43580 32234,43576 32222,43573 32210,43571 32198,43571 30913,43571 30900,43571 30888,43573 30876,43576 30865,43580 30854,43585 30843,43592 30834,43599 30825,43607 30816,43616 30809,43626 30803,43637 30798,43648 30794,43659 30791,43671 30789,43683 30788,43695 30788,45814 30789,45826 30791,45838 30794,45850 30798,45861 30803,45872 30809,45883 30816,45893 30825,45902 30834,45910 30843,45917 30854,45923 30865,45929 30876,45933 30888,45936 30900,45938 30913,45938 Z"/>
   </g>
  </g>
  <g class="com.sun.star.drawing.PolyPolygonShape">
   <g id="id5">
    <rect class="BoundingBox" stroke="none" fill="none" x="30849" y="43632" width="1413" height="2246"/>
    <path fill="rgb(0,0,255)" stroke="none" d="M 30913,45876 L 32198,45876 32210,45875 32222,45871 32233,45865 32242,45858 32250,45848 32256,45837 32259,45826 32260,45814 32260,43695 32259,43683 32256,43671 32250,43661 32242,43651 32233,43643 32222,43638 32210,43634 32198,43633 30913,43633 30900,43634 30889,43638 30878,43643 30869,43651 30861,43661 30855,43671 30852,43683 30850,43695 30850,45814 30852,45826 30855,45837 30861,45848 30869,45858 30878,45865 30889,45871 30900,45875 30913,45876 Z"/>
    <path fill="none" stroke="rgb(0,0,255)" d="M 30913,45876 L 32198,45876 32210,45875 32222,45871 32233,45865 32242,45858 32250,45848 32256,45837 32259,45826 32260,45814 32260,43695 32259,43683 32256,43671 32250,43661 32242,43651 32233,43643 32222,43638 32210,43634 32198,43633 30913,43633 30900,43634 30889,43638 30878,43643 30869,43651 30861,43661 30855,43671 30852,43683 30850,43695 30850,45814 30852,45826 30855,45837 30861,45848 30869,45858 30878,45865 30889,45871 30900,45875 30913,45876 Z"/>
   </g>
  </g>
  <g class="com.sun.star.drawing.PolyPolygonShape">
   <g id="id6">
    <rect class="BoundingBox" stroke="none" fill="none" x="30932" y="44130" width="1248" height="1250"/>
    <path fill="rgb(255,255,255)" stroke="none" d="M 32095,45378 L 32111,45376 32126,45371 32141,45364 32153,45353 32164,45341 32171,45326 32176,45311 32178,45295 32178,44215 32176,44199 32171,44182 32164,44168 32153,44156 32141,44145 32126,44137 32111,44133 32095,44131 31016,44131 31000,44133 30985,44137 30970,44145 30958,44156 30947,44168 30940,44182 30935,44199 30933,44215 30933,45295 30935,45311 30940,45326 30947,45341 30958,45353 30970,45364 30985,45371 31000,45376 31016,45378 32095,45378 Z"/>
    <path fill="none" stroke="rgb(255,255,255)" d="M 32095,45378 L 32111,45376 32126,45371 32141,45364 32153,45353 32164,45341 32171,45326 32176,45311 32178,45295 32178,44215 32176,44199 32171,44182 32164,44168 32153,44156 32141,44145 32126,44137 32111,44133 32095,44131 31016,44131 31000,44133 30985,44137 30970,44145 30958,44156 30947,44168 30940,44182 30935,44199 30933,44215 30933,45295 30935,45311 30940,45326 30947,45341 30958,45353 30970,45364 30985,45371 31000,45376 31016,45378 32095,45378 Z"/>
   </g>
  </g>
  <g class="com.sun.star.drawing.PolyPolygonShape">
   <g id="id7">
    <rect class="BoundingBox" stroke="none" fill="none" x="31026" y="44412" width="1096" height="685"/>
    <path fill="rgb(0,0,0)" stroke="none" d="M 31118,44684 L 31107,44677 31098,44667 31091,44656 31087,44643 31086,44630 31088,44618 31093,44606 31101,44595 31109,44588 31118,44582 31150,44565 31182,44548 31215,44532 31248,44519 31271,44510 31295,44503 31319,44498 31343,44493 31346,44492 31348,44491 31350,44488 31351,44485 31350,44479 31350,44476 31349,44473 31347,44471 31344,44469 31337,44467 31330,44467 31304,44472 31271,44480 31238,44491 31207,44504 31177,44520 31140,44543 31104,44566 31097,44572 31090,44578 31085,44586 31081,44594 31078,44602 31076,44611 31075,44620 31075,44629 31077,44638 31080,44646 31084,44655 31089,44662 31095,44669 31102,44675 31109,44680 31118,44684 Z M 31834,44824 L 31824,44831 31815,44839 31807,44848 31800,44859 31795,44870 31791,44881 31788,44893 31788,44906 31788,44964 31164,44703 31156,44700 31149,44696 31142,44691 31137,44685 31132,44678 31128,44671 31125,44663 31123,44655 31121,44647 31123,44639 31125,44631 31127,44623 31131,44616 31136,44609 31142,44603 31148,44598 31175,44587 31201,44577 31228,44568 31255,44559 31282,44552 31309,44545 31337,44538 31365,44533 31949,44759 31834,44824 Z M 31812,45080 L 31812,45048 32065,44894 32065,44903 32096,44913 32120,44896 32120,44741 32119,44729 32114,44718 32107,44708 32097,44701 32086,44696 32074,44694 32062,44696 32051,44701 31957,44754 31380,44531 31380,44459 31378,44448 31374,44438 31368,44428 31359,44421 31349,44415 31338,44413 31326,44413 31315,44416 31085,44511 31072,44518 31061,44526 31051,44535 31043,44547 31036,44559 31031,44572 31028,44585 31027,44599 31027,44729 31027,44762 31053,44775 31072,44762 31072,44749 31756,45049 31756,45081 31788,45095 31812,45080 Z"/>
    <path fill="none" stroke="rgb(0,0,0)" d="M 31118,44684 L 31107,44677 31098,44667 31091,44656 31087,44643 31086,44630 31088,44618 31093,44606 31101,44595 31109,44588 31118,44582 31150,44565 31182,44548 31215,44532 31248,44519 31271,44510 31295,44503 31319,44498 31343,44493 31346,44492 31348,44491 31350,44488 31351,44485 31350,44479 31350,44476 31349,44473 31347,44471 31344,44469 31337,44467 31330,44467 31304,44472 31271,44480 31238,44491 31207,44504 31177,44520 31140,44543 31104,44566 31097,44572 31090,44578 31085,44586 31081,44594 31078,44602 31076,44611 31075,44620 31075,44629 31077,44638 31080,44646 31084,44655 31089,44662 31095,44669 31102,44675 31109,44680 31118,44684 Z"/>
    <path fill="none" stroke="rgb(0,0,0)" d="M 31834,44824 L 31824,44831 31815,44839 31807,44848 31800,44859 31795,44870 31791,44881 31788,44893 31788,44906 31788,44964 31164,44703 31156,44700 31149,44696 31142,44691 31137,44685 31132,44678 31128,44671 31125,44663 31123,44655 31121,44647 31123,44639 31125,44631 31127,44623 31131,44616 31136,44609 31142,44603 31148,44598 31175,44587 31201,44577 31228,44568 31255,44559 31282,44552 31309,44545 31337,44538 31365,44533 31949,44759 31834,44824 Z"/>
    <path fill="none" stroke="rgb(0,0,0)" d="M 31812,45080 L 31812,45048 32065,44894 32065,44903 32096,44913 32120,44896 32120,44741 32119,44729 32114,44718 32107,44708 32097,44701 32086,44696 32074,44694 32062,44696 32051,44701 31957,44754 31380,44531 31380,44459 31378,44448 31374,44438 31368,44428 31359,44421 31349,44415 31338,44413 31326,44413 31315,44416 31085,44511 31072,44518 31061,44526 31051,44535 31043,44547 31036,44559 31031,44572 31028,44585 31027,44599 31027,44729 31027,44762 31053,44775 31072,44762 31072,44749 31756,45049 31756,45081 31788,45095 31812,45080 Z"/>
   </g>
  </g>
  <g class="com.sun.star.drawing.PolyPolygonShape">
   <g id="id8">
    <rect class="BoundingBox" stroke="none" fill="none" x="31026" y="44412" width="1096" height="685"/>
    <path fill="rgb(0,0,0)" stroke="none" d="M 31118,44684 L 31107,44677 31098,44667 31091,44656 31087,44643 31086,44630 31088,44618 31093,44606 31101,44595 31109,44588 31118,44582 31150,44565 31182,44548 31215,44532 31248,44519 31271,44510 31295,44503 31319,44498 31343,44493 31346,44492 31348,44491 31350,44488 31351,44485 31350,44479 31350,44476 31349,44473 31347,44471 31344,44469 31337,44467 31330,44467 31304,44472 31271,44480 31238,44491 31207,44504 31177,44520 31140,44543 31104,44566 31097,44572 31090,44578 31085,44586 31081,44594 31078,44602 31076,44611 31075,44620 31075,44629 31077,44638 31080,44646 31084,44655 31089,44662 31095,44669 31102,44675 31109,44680 31118,44684 Z M 31834,44824 L 31824,44831 31815,44839 31807,44848 31800,44859 31795,44870 31791,44881 31788,44893 31788,44906 31788,44964 31164,44703 31156,44700 31149,44696 31142,44691 31137,44685 31132,44678 31128,44671 31125,44663 31123,44655 31121,44647 31123,44639 31125,44631 31127,44623 31131,44616 31136,44609 31142,44603 31148,44598 31175,44587 31201,44577 31228,44568 31255,44559 31282,44552 31309,44545 31337,44538 31365,44533 31949,44759 31834,44824 Z M 31812,45080 L 31812,45048 32065,44894 32065,44903 32096,44913 32120,44896 32120,44741 32119,44729 32114,44718 32107,44708 32097,44701 32086,44696 32074,44694 32062,44696 32051,44701 31957,44754 31380,44531 31380,44459 31378,44448 31374,44438 31368,44428 31359,44421 31349,44415 31338,44413 31326,44413 31315,44416 31085,44511 31072,44518 31061,44526 31051,44535 31043,44547 31036,44559 31031,44572 31028,44585 31027,44599 31027,44729 31027,44762 31053,44775 31072,44762 31072,44749 31756,45049 31756,45081 31788,45095 31812,45080 Z"/>
    <path fill="none" stroke="rgb(0,0,0)" d="M 31118,44684 L 31107,44677 31098,44667 31091,44656 31087,44643 31086,44630 31088,44618 31093,44606 31101,44595 31109,44588 31118,44582 31150,44565 31182,44548 31215,44532 31248,44519 31271,44510 31295,44503 31319,44498 31343,44493 31346,44492 31348,44491 31350,44488 31351,44485 31350,44479 31350,44476 31349,44473 31347,44471 31344,44469 31337,44467 31330,44467 31304,44472 31271,44480 31238,44491 31207,44504 31177,44520 31140,44543 31104,44566 31097,44572 31090,44578 31085,44586 31081,44594 31078,44602 31076,44611 31075,44620 31075,44629 31077,44638 31080,44646 31084,44655 31089,44662 31095,44669 31102,44675 31109,44680 31118,44684 Z"/>
    <path fill="none" stroke="rgb(0,0,0)" d="M 31834,44824 L 31824,44831 31815,44839 31807,44848 31800,44859 31795,44870 31791,44881 31788,44893 31788,44906 31788,44964 31164,44703 31156,44700 31149,44696 31142,44691 31137,44685 31132,44678 31128,44671 31125,44663 31123,44655 31121,44647 31123,44639 31125,44631 31127,44623 31131,44616 31136,44609 31142,44603 31148,44598 31175,44587 31201,44577 31228,44568 31255,44559 31282,44552 31309,44545 31337,44538 31365,44533 31949,44759 31834,44824 Z"/>
    <path fill="none" stroke="rgb(0,0,0)" d="M 31812,45080 L 31812,45048 32065,44894 32065,44903 32096,44913 32120,44896 32120,44741 32119,44729 32114,44718 32107,44708 32097,44701 32086,44696 32074,44694 32062,44696 32051,44701 31957,44754 31380,44531 31380,44459 31378,44448 31374,44438 31368,44428 31359,44421 31349,44415 31338,44413 31326,44413 31315,44416 31085,44511 31072,44518 31061,44526 31051,44535 31043,44547 31036,44559 31031,44572 31028,44585 31027,44599 31027,44729 31027,44762 31053,44775 31072,44762 31072,44749 31756,45049 31756,45081 31788,45095 31812,45080 Z"/>
   </g>
  </g>
 </g>
</svg>