<?xml version="1.0" encoding="UTF-8"?>
<!DOCTYPE svg PUBLIC "-//W3C//DTD SVG 1.1//EN" "http://www.w3.org/Graphics/SVG/1.1/DTD/svg11.dtd">
<svg version="1.2" width="16.62mm" height="24.96mm" viewBox="32925 43507 1662 2496" preserveAspectRatio="xMidYMid" fill-rule="evenodd" stroke-width="28.222" stroke-linejoin="round" xmlns="http://www.w3.org/2000/svg" xmlns:ooo="http://xml.openoffice.org/svg/export" xmlns:xlink="http://www.w3.org/1999/xlink" xmlns:presentation="http://sun.com/xmlns/staroffice/presentation" xmlns:smil="http://www.w3.org/2001/SMIL20/" xmlns:anim="urn:oasis:names:tc:opendocument:xmlns:animation:1.0" xml:space="preserve">
 <defs class="EmbeddedBulletChars">
  <g id="bullet-char-template-57356" transform="scale(0.00048828125,-0.00048828125)">
   <path d="M 580,1141 L 1163,571 580,0 -4,571 580,1141 Z"/>
  </g>
  <g id="bullet-char-template-57354" transform="scale(0.00048828125,-0.00048828125)">
   <path d="M 8,1128 L 1137,1128 1137,0 8,0 8,1128 Z"/>
  </g>
  <g id="bullet-char-template-10146" transform="scale(0.00048828125,-0.00048828125)">
   <path d="M 174,0 L 602,739 174,1481 1456,739 174,0 Z M 1358,739 L 309,1346 659,739 1358,739 Z"/>
  </g>
  <g id="bullet-char-template-10132" transform="scale(0.00048828125,-0.00048828125)">
   <path d="M 2015,739 L 1276,0 717,0 1260,543 174,543 174,936 1260,936 717,1481 1274,1481 2015,739 Z"/>
  </g>
  <g id="bullet-char-template-10007" transform="scale(0.00048828125,-0.00048828125)">
   <path d="M 0,-2 C -7,14 -16,27 -25,37 L 356,567 C 262,823 215,952 215,954 215,979 228,992 255,992 264,992 276,990 289,987 310,991 331,999 354,1012 L 381,999 492,748 772,1049 836,1024 860,1049 C 881,1039 901,1025 922,1006 886,937 835,863 770,784 769,783 710,716 594,584 L 774,223 C 774,196 753,168 711,139 L 727,119 C 717,90 699,76 672,76 641,76 570,178 457,381 L 164,-76 C 142,-110 111,-127 72,-127 30,-127 9,-110 8,-76 1,-67 -2,-52 -2,-32 -2,-23 -1,-13 0,-2 Z"/>
  </g>
  <g id="bullet-char-template-10004" transform="scale(0.00048828125,-0.00048828125)">
   <path d="M 285,-33 C 182,-33 111,30 74,156 52,228 41,333 41,471 41,549 55,616 82,672 116,743 169,778 240,778 293,778 328,747 346,684 L 369,508 C 377,444 397,411 428,410 L 1163,1116 C 1174,1127 1196,1133 1229,1133 1271,1133 1292,1118 1292,1087 L 1292,965 C 1292,929 1282,901 1262,881 L 442,47 C 390,-6 338,-33 285,-33 Z"/>
  </g>
  <g id="bullet-char-template-9679" transform="scale(0.00048828125,-0.00048828125)">
   <path d="M 813,0 C 632,0 489,54 383,161 276,268 223,411 223,592 223,773 276,916 383,1023 489,1130 632,1184 813,1184 992,1184 1136,1130 1245,1023 1353,916 1407,772 1407,592 1407,412 1353,268 1245,161 1136,54 992,0 813,0 Z"/>
  </g>
  <g id="bullet-char-template-8226" transform="scale(0.00048828125,-0.00048828125)">
   <path d="M 346,457 C 273,457 209,483 155,535 101,586 74,649 74,723 74,796 101,859 155,911 209,963 273,989 346,989 419,989 480,963 531,910 582,859 608,796 608,723 608,648 583,586 532,535 482,483 420,457 346,457 Z"/>
  </g>
  <g id="bullet-char-template-8211" transform="scale(0.00048828125,-0.00048828125)">
   <path d="M -4,459 L 1135,459 1135,606 -4,606 -4,459 Z"/>
  </g>
  <g id="bullet-char-template-61548" transform="scale(0.00048828125,-0.00048828125)">
   <path d="M 173,740 C 173,903 231,1043 346,1159 462,1274 601,1332 765,1332 928,1332 1067,1274 1183,1159 1299,1043 1357,903 1357,740 1357,577 1299,437 1183,322 1067,206 928,148 765,148 601,148 462,206 346,322 231,437 173,577 173,740 Z"/>
  </g>
 </defs>
 <g class="Page">
  <g class="com.sun.star.drawing.PolyPolygonShape">
   <g id="id3">
    <rect class="BoundingBox" stroke="none" fill="none" x="32925" y="43507" width="1662" height="2496"/>
    <path fill="rgb(0,0,255)" stroke="none" d="M 33113,46001 L 34398,46001 34417,46000 34435,45997 34452,45992 34470,45986 34486,45978 34502,45969 34517,45958 34530,45946 34542,45932 34553,45917 34563,45902 34570,45885 34577,45868 34581,45850 34584,45832 34585,45814 34585,43696 34584,43678 34581,43660 34577,43642 34570,43625 34563,43608 34553,43591 34542,43577 34530,43563 34517,43551 34502,43540 34486,43530 34470,43523 34452,43516 34435,43512 34417,43509 34398,43508 33113,43508 33094,43509 33076,43512 33059,43516 33041,43523 33025,43530 33009,43540 32994,43551 32981,43563 32968,43577 32958,43591 32948,43608 32940,43625 32934,43642 32930,43660 32927,43678 32926,43696 32926,45814 32927,45832 32930,45850 32934,45868 32940,45885 32948,45902 32958,45917 32968,45932 32981,45946 32994,45958 33009,45969 33025,45978 33041,45986 33059,45992 33076,45997 33094,46000 33113,46001 Z"/>
    <path fill="none" stroke="rgb(0,0,255)" d="M 33113,46001 L 34398,46001 34417,46000 34435,45997 34452,45992 34470,45986 34486,45978 34502,45969 34517,45958 34530,45946 34542,45932 34553,45917 34563,45902 34570,45885 34577,45868 34581,45850 34584,45832 34585,45814 34585,43696 34584,43678 34581,43660 34577,43642 34570,43625 34563,43608 34553,43591 34542,43577 34530,43563 34517,43551 34502,43540 34486,43530 34470,43523 34452,43516 34435,43512 34417,43509 34398,43508 33113,43508 33094,43509 33076,43512 33059,43516 33041,43523 33025,43530 33009,43540 32994,43551 32981,43563 32968,43577 32958,43591 32948,43608 32940,43625 32934,43642 32930,43660 32927,43678 32926,43696 32926,45814 32927,45832 32930,45850 32934,45868 32940,45885 32948,45902 32958,45917 32968,45932 32981,45946 32994,45958 33009,45969 33025,45978 33041,45986 33059,45992 33076,45997 33094,46000 33113,46001 Z"/>
   </g>
  </g>
  <g class="com.sun.star.drawing.PolyPolygonShape">
   <g id="id4">
    <rect class="BoundingBox" stroke="none" fill="none" x="32987" y="43570" width="1538" height="2370"/>
    <path fill="rgb(255,255,255)" stroke="none" d="M 33113,45938 L 34397,45938 34409,45938 34421,45936 34433,45933 34445,45929 34456,45923 34466,45917 34476,45910 34485,45902 34494,45893 34502,45883 34508,45872 34513,45861 34517,45850 34520,45838 34522,45826 34523,45814 34523,43695 34522,43683 34520,43671 34517,43659 34513,43648 34508,43637 34502,43626 34494,43616 34485,43607 34476,43599 34466,43592 34456,43585 34445,43580 34433,43576 34421,43573 34409,43571 34397,43571 33113,43571 33100,43571 33088,43573 33076,43576 33065,43580 33054,43585 33043,43592 33034,43599 33025,43607 33016,43616 33009,43626 33003,43637 32998,43648 32994,43659 32991,43671 32989,43683 32988,43695 32988,45814 32989,45826 32991,45838 32994,45850 32998,45861 33003,45872 33009,45883 33016,45893 33025,45902 33034,45910 33043,45917 33054,45923 33065,45929 33076,45933 33088,45936 33100,45938 33113,45938 Z"/>
    <path fill="none" stroke="rgb(255,255,255)" d="M 33113,45938 L 34397,45938 34409,45938 34421,45936 34433,45933 34445,45929 34456,45923 34466,45917 34476,45910 34485,45902 34494,45893 34502,45883 34508,45872 34513,45861 34517,45850 34520,45838 34522,45826 34523,45814 34523,43695 34522,43683 34520,43671 34517,43659 34513,43648 34508,43637 34502,43626 34494,43616 34485,43607 34476,43599 34466,43592 34456,43585 34445,43580 34433,43576 34421,43573 34409,43571 34397,43571 33113,43571 33100,43571 33088,43573 33076,43576 33065,43580 33054,43585 33043,43592 33034,43599 33025,43607 33016,43616 33009,43626 33003,43637 32998,43648 32994,43659 32991,43671 32989,43683 32988,43695 32988,45814 32989,45826 32991,45838 32994,45850 32998,45861 33003,45872 33009,45883 33016,45893 33025,45902 33034,45910 33043,45917 33054,45923 33065,45929 33076,45933 33088,45936 33100,45938 33113,45938 Z"/>
   </g>
  </g>
  <g class="com.sun.star.drawing.PolyPolygonShape">
   <g id="id5">
    <rect class="BoundingBox" stroke="none" fill="none" x="33049" y="43632" width="1413" height="2246"/>
    <path fill="rgb(0,0,255)" stroke="none" d="M 33114,45876 L 34398,45876 34410,45875 34422,45871 34433,45865 34442,45858 34450,45848 34456,45837 34459,45826 34460,45814 34460,43695 34459,43683 34456,43671 34450,43661 34442,43651 34433,43643 34422,43638 34410,43634 34398,43633 33114,43633 33101,43634 33090,43638 33078,43643 33069,43651 33061,43661 33055,43671 33052,43683 33050,43695 33050,45814 33052,45826 33055,45837 33061,45848 33069,45858 33078,45865 33090,45871 33101,45875 33114,45876 Z"/>
    <path fill="none" stroke="rgb(0,0,255)" d="M 33114,45876 L 34398,45876 34410,45875 34422,45871 34433,45865 34442,45858 34450,45848 34456,45837 34459,45826 34460,45814 34460,43695 34459,43683 34456,43671 34450,43661 34442,43651 34433,43643 34422,43638 34410,43634 34398,43633 33114,43633 33101,43634 33090,43638 33078,43643 33069,43651 33061,43661 33055,43671 33052,43683 33050,43695 33050,45814 33052,45826 33055,45837 33061,45848 33069,45858 33078,45865 33090,45871 33101,45875 33114,45876 Z"/>
   </g>
  </g>
  <g class="com.sun.star.drawing.PolyPolygonShape">
   <g id="id6">
    <rect class="BoundingBox" stroke="none" fill="none" x="33132" y="44130" width="1248" height="1250"/>
    <path fill="rgb(255,255,255)" stroke="none" d="M 34295,45378 L 34311,45376 34326,45371 34341,45364 34353,45353 34364,45341 34371,45326 34376,45311 34378,45295 34378,44215 34376,44199 34371,44182 34364,44168 34353,44156 34341,44145 34326,44137 34311,44133 34295,44131 33216,44131 33200,44133 33185,44137 33170,44145 33158,44156 33147,44168 33140,44182 33135,44199 33133,44215 33133,45295 33135,45311 33140,45326 33147,45341 33158,45353 33170,45364 33185,45371 33200,45376 33216,45378 34295,45378 Z"/>
    <path fill="none" stroke="rgb(255,255,255)" d="M 34295,45378 L 34311,45376 34326,45371 34341,45364 34353,45353 34364,45341 34371,45326 34376,45311 34378,45295 34378,44215 34376,44199 34371,44182 34364,44168 34353,44156 34341,44145 34326,44137 34311,44133 34295,44131 33216,44131 33200,44133 33185,44137 33170,44145 33158,44156 33147,44168 33140,44182 33135,44199 33133,44215 33133,45295 33135,45311 33140,45326 33147,45341 33158,45353 33170,45364 33185,45371 33200,45376 33216,45378 34295,45378 Z"/>
   </g>
  </g>
  <g class="com.sun.star.drawing.PolyPolygonShape">
   <g id="id7">
    <rect class="BoundingBox" stroke="none" fill="none" x="33217" y="44206" width="1083" height="1092"/>
    <path fill="rgb(0,0,0)" stroke="none" d="M 34001,44441 L 34163,44274 34141,44251 33976,44419 33950,44394 34118,44229 34096,44209 33922,44377 33911,44389 33900,44402 33891,44416 33883,44430 33878,44441 33875,44453 33873,44464 33872,44476 33870,44508 33864,44538 33861,44547 33858,44556 33853,44565 33847,44572 33825,44598 33802,44622 33778,44645 33752,44667 33729,44645 33707,44621 33687,44596 33667,44570 33659,44557 33651,44542 33645,44527 33640,44511 33636,44496 33633,44480 33632,44463 33632,44447 33632,44432 33632,44418 33630,44403 33627,44389 33624,44375 33619,44361 33614,44347 33608,44334 33600,44321 33592,44309 33584,44297 33574,44287 33564,44276 33553,44266 33542,44257 33530,44249 33505,44235 33480,44224 33453,44215 33426,44209 33413,44208 33399,44207 33386,44208 33373,44210 33360,44214 33347,44218 33335,44224 33324,44231 33313,44239 33303,44248 33294,44257 33285,44268 33278,44279 33272,44291 33267,44304 33263,44317 33259,44339 33258,44363 33259,44386 33262,44409 33269,44432 33278,44453 33289,44474 33302,44493 33313,44506 33325,44519 33337,44530 33350,44542 33363,44552 33377,44563 33391,44572 33406,44581 33423,44589 33441,44596 33460,44602 33479,44606 33533,44616 33588,44628 33596,44631 33604,44634 33611,44639 33618,44644 33666,44684 33675,44693 33683,44702 33690,44712 33696,44723 33233,45206 33227,45213 33223,45221 33220,45230 33218,45239 33219,45249 33221,45258 33224,45267 33229,45275 33235,45281 33243,45287 33251,45292 33260,45294 33269,45295 33278,45295 33287,45293 33296,45289 33752,44785 34195,45277 34203,45284 34213,45290 34223,45294 34235,45296 34246,45296 34257,45293 34268,45289 34277,45282 34285,45274 34291,45264 34296,45254 34298,45242 34298,45231 34296,45220 34291,45209 34285,45200 33805,44718 33886,44631 33896,44621 33907,44613 33918,44605 33930,44599 33943,44594 33956,44590 33971,44587 33985,44586 34002,44585 34018,44580 34034,44573 34048,44564 34258,44366 34236,44345 34065,44508 34046,44489 34210,44321 34188,44299 34021,44461 34001,44441 Z"/>
    <path fill="none" stroke="rgb(0,0,0)" d="M 34001,44441 L 34163,44274 34141,44251 33976,44419 33950,44394 34118,44229 34096,44209 33922,44377 33911,44389 33900,44402 33891,44416 33883,44430 33878,44441 33875,44453 33873,44464 33872,44476 33870,44508 33864,44538 33861,44547 33858,44556 33853,44565 33847,44572 33825,44598 33802,44622 33778,44645 33752,44667 33729,44645 33707,44621 33687,44596 33667,44570 33659,44557 33651,44542 33645,44527 33640,44511 33636,44496 33633,44480 33632,44463 33632,44447 33632,44432 33632,44418 33630,44403 33627,44389 33624,44375 33619,44361 33614,44347 33608,44334 33600,44321 33592,44309 33584,44297 33574,44287 33564,44276 33553,44266 33542,44257 33530,44249 33505,44235 33480,44224 33453,44215 33426,44209 33413,44208 33399,44207 33386,44208 33373,44210 33360,44214 33347,44218 33335,44224 33324,44231 33313,44239 33303,44248 33294,44257 33285,44268 33278,44279 33272,44291 33267,44304 33263,44317 33259,44339 33258,44363 33259,44386 33262,44409 33269,44432 33278,44453 33289,44474 33302,44493 33313,44506 33325,44519 33337,44530 33350,44542 33363,44552 33377,44563 33391,44572 33406,44581 33423,44589 33441,44596 33460,44602 33479,44606 33533,44616 33588,44628 33596,44631 33604,44634 33611,44639 33618,44644 33666,44684 33675,44693 33683,44702 33690,44712 33696,44723 33233,45206 33227,45213 33223,45221 33220,45230 33218,45239 33219,45249 33221,45258 33224,45267 33229,45275 33235,45281 33243,45287 33251,45292 33260,45294 33269,45295 33278,45295 33287,45293 33296,45289 33752,44785 34195,45277 34203,45284 34213,45290 34223,45294 34235,45296 34246,45296 34257,45293 34268,45289 34277,45282 34285,45274 34291,45264 34296,45254 34298,45242 34298,45231 34296,45220 34291,45209 34285,45200 33805,44718 33886,44631 33896,44621 33907,44613 33918,44605 33930,44599 33943,44594 33956,44590 33971,44587 33985,44586 34002,44585 34018,44580 34034,44573 34048,44564 34258,44366 34236,44345 34065,44508 34046,44489 34210,44321 34188,44299 34021,44461 34001,44441 Z"/>
   </g>
  </g>
  <g class="com.sun.star.drawing.PolyPolygonShape">
   <g id="id8">
    <rect class="BoundingBox" stroke="none" fill="none" x="33217" y="44206" width="1083" height="1092"/>
    <path fill="rgb(0,0,0)" stroke="none" d="M 34001,44441 L 34163,44274 34141,44251 33976,44419 33950,44394 34118,44229 34096,44209 33922,44377 33911,44389 33900,44402 33891,44416 33883,44430 33878,44441 33875,44453 33873,44464 33872,44476 33870,44508 33864,44538 33861,44547 33858,44556 33853,44565 33847,44572 33825,44598 33802,44622 33778,44645 33752,44667 33729,44645 33707,44621 33687,44596 33667,44570 33659,44557 33651,44542 33645,44527 33640,44511 33636,44496 33633,44480 33632,44463 33632,44447 33632,44432 33632,44418 33630,44403 33627,44389 33624,44375 33619,44361 33614,44347 33608,44334 33600,44321 33592,44309 33584,44297 33574,44287 33564,44276 33553,44266 33542,44257 33530,44249 33505,44235 33480,44224 33453,44215 33426,44209 33413,44208 33399,44207 33386,44208 33373,44210 33360,44214 33347,44218 33335,44224 33324,44231 33313,44239 33303,44248 33294,44257 33285,44268 33278,44279 33272,44291 33267,44304 33263,44317 33259,44339 33258,44363 33259,44386 33262,44409 33269,44432 33278,44453 33289,44474 33302,44493 33313,44506 33325,44519 33337,44530 33350,44542 33363,44552 33377,44563 33391,44572 33406,44581 33423,44589 33441,44596 33460,44602 33479,44606 33533,44616 33588,44628 33596,44631 33604,44634 33611,44639 33618,44644 33666,44684 33675,44693 33683,44702 33690,44712 33696,44723 33233,45206 33227,45213 33223,45221 33220,45230 33218,45239 33219,45249 33221,45258 33224,45267 33229,45275 33235,45281 33243,45287 33251,45292 33260,45294 33269,45295 33278,45295 33287,45293 33296,45289 33752,44785 34195,45277 34203,45284 34213,45290 34223,45294 34235,45296 34246,45296 34257,45293 34268,45289 34277,45282 34285,45274 34291,45264 34296,45254 34298,45242 34298,45231 34296,45220 34291,45209 34285,45200 33805,44718 33886,44631 33896,44621 33907,44613 33918,44605 33930,44599 33943,44594 33956,44590 33971,44587 33985,44586 34002,44585 34018,44580 34034,44573 34048,44564 34258,44366 34236,44345 34065,44508 34046,44489 34210,44321 34188,44299 34021,44461 34001,44441 Z"/>
    <path fill="none" stroke="rgb(0,0,0)" d="M 34001,44441 L 34163,44274 34141,44251 33976,44419 33950,44394 34118,44229 34096,44209 33922,44377 33911,44389 33900,44402 33891,44416 33883,44430 33878,44441 33875,44453 33873,44464 33872,44476 33870,44508 33864,44538 33861,44547 33858,44556 33853,44565 33847,44572 33825,44598 33802,44622 33778,44645 33752,44667 33729,44645 33707,44621 33687,44596 33667,44570 33659,44557 33651,44542 33645,44527 33640,44511 33636,44496 33633,44480 33632,44463 33632,44447 33632,44432 33632,44418 33630,44403 33627,44389 33624,44375 33619,44361 33614,44347 33608,44334 33600,44321 33592,44309 33584,44297 33574,44287 33564,44276 33553,44266 33542,44257 33530,44249 33505,44235 33480,44224 33453,44215 33426,44209 33413,44208 33399,44207 33386,44208 33373,44210 33360,44214 33347,44218 33335,44224 33324,44231 33313,44239 33303,44248 33294,44257 33285,44268 33278,44279 33272,44291 33267,44304 33263,44317 33259,44339 33258,44363 33259,44386 33262,44409 33269,44432 33278,44453 33289,44474 33302,44493 33313,44506 33325,44519 33337,44530 33350,44542 33363,44552 33377,44563 33391,44572 33406,44581 33423,44589 33441,44596 33460,44602 33479,44606 33533,44616 33588,44628 33596,44631 33604,44634 33611,44639 33618,44644 33666,44684 33675,44693 33683,44702 33690,44712 33696,44723 33233,45206 33227,45213 33223,45221 33220,45230 33218,45239 33219,45249 33221,45258 33224,45267 33229,45275 33235,45281 33243,45287 33251,45292 33260,45294 33269,45295 33278,45295 33287,45293 33296,45289 33752,44785 34195,45277 34203,45284 34213,45290 34223,45294 34235,45296 34246,45296 34257,45293 34268,45289 34277,45282 34285,45274 34291,45264 34296,45254 34298,45242 34298,45231 34296,45220 34291,45209 34285,45200 33805,44718 33886,44631 33896,44621 33907,44613 33918,44605 33930,44599 33943,44594 33956,44590 33971,44587 33985,44586 34002,44585 34018,44580 34034,44573 34048,44564 34258,44366 34236,44345 34065,44508 34046,44489 34210,44321 34188,44299 34021,44461 34001,44441 Z"/>
   </g>
  </g>
 </g>
</svg>