<?xml version="1.0" encoding="UTF-8"?>
<!DOCTYPE svg PUBLIC "-//W3C//DTD SVG 1.1//EN" "http://www.w3.org/Graphics/SVG/1.1/DTD/svg11.dtd">
<svg version="1.2" width="16.62mm" height="24.96mm" viewBox="35125 43507 1662 2496" preserveAspectRatio="xMidYMid" fill-rule="evenodd" stroke-width="28.222" stroke-linejoin="round" xmlns="http://www.w3.org/2000/svg" xmlns:ooo="http://xml.openoffice.org/svg/export" xmlns:xlink="http://www.w3.org/1999/xlink" xmlns:presentation="http://sun.com/xmlns/staroffice/presentation" xmlns:smil="http://www.w3.org/2001/SMIL20/" xmlns:anim="urn:oasis:names:tc:opendocument:xmlns:animation:1.0" xml:space="preserve">
 <defs class="EmbeddedBulletChars">
  <g id="bullet-char-template-57356" transform="scale(0.00048828125,-0.00048828125)">
   <path d="M 580,1141 L 1163,571 580,0 -4,571 580,1141 Z"/>
  </g>
  <g id="bullet-char-template-57354" transform="scale(0.00048828125,-0.00048828125)">
   <path d="M 8,1128 L 1137,1128 1137,0 8,0 8,1128 Z"/>
  </g>
  <g id="bullet-char-template-10146" transform="scale(0.00048828125,-0.00048828125)">
   <path d="M 174,0 L 602,739 174,1481 1456,739 174,0 Z M 1358,739 L 309,1346 659,739 1358,739 Z"/>
  </g>
  <g id="bullet-char-template-10132" transform="scale(0.00048828125,-0.00048828125)">
   <path d="M 2015,739 L 1276,0 717,0 1260,543 174,543 174,936 1260,936 717,1481 1274,1481 2015,739 Z"/>
  </g>
  <g id="bullet-char-template-10007" transform="scale(0.00048828125,-0.00048828125)">
   <path d="M 0,-2 C -7,14 -16,27 -25,37 L 356,567 C 262,823 215,952 215,954 215,979 228,992 255,992 264,992 276,990 289,987 310,991 331,999 354,1012 L 381,999 492,748 772,1049 836,1024 860,1049 C 881,1039 901,1025 922,1006 886,937 835,863 770,784 769,783 710,716 594,584 L 774,223 C 774,196 753,168 711,139 L 727,119 C 717,90 699,76 672,76 641,76 570,178 457,381 L 164,-76 C 142,-110 111,-127 72,-127 30,-127 9,-110 8,-76 1,-67 -2,-52 -2,-32 -2,-23 -1,-13 0,-2 Z"/>
  </g>
  <g id="bullet-char-template-10004" transform="scale(0.00048828125,-0.00048828125)">
   <path d="M 285,-33 C 182,-33 111,30 74,156 52,228 41,333 41,471 41,549 55,616 82,672 116,743 169,778 240,778 293,778 328,747 346,684 L 369,508 C 377,444 397,411 428,410 L 1163,1116 C 1174,1127 1196,1133 1229,1133 1271,1133 1292,1118 1292,1087 L 1292,965 C 1292,929 1282,901 1262,881 L 442,47 C 390,-6 338,-33 285,-33 Z"/>
  </g>
  <g id="bullet-char-template-9679" transform="scale(0.00048828125,-0.00048828125)">
   <path d="M 813,0 C 632,0 489,54 383,161 276,268 223,411 223,592 223,773 276,916 383,1023 489,1130 632,1184 813,1184 992,1184 1136,1130 1245,1023 1353,916 1407,772 1407,592 1407,412 1353,268 1245,161 1136,54 992,0 813,0 Z"/>
  </g>
  <g id="bullet-char-template-8226" transform="scale(0.00048828125,-0.00048828125)">
   <path d="M 346,457 C 273,457 209,483 155,535 101,586 74,649 74,723 74,796 101,859 155,911 209,963 273,989 346,989 419,989 480,963 531,910 582,859 608,796 608,723 608,648 583,586 532,535 482,483 420,457 346,457 Z"/>
  </g>
  <g id="bullet-char-template-8211" transform="scale(0.00048828125,-0.00048828125)">
   <path d="M -4,459 L 1135,459 1135,606 -4,606 -4,459 Z"/>
  </g>
  <g id="bullet-char-template-61548" transform="scale(0.00048828125,-0.00048828125)">
   <path d="M 173,740 C 173,903 231,1043 346,1159 462,1274 601,1332 765,1332 928,1332 1067,1274 1183,1159 1299,1043 1357,903 1357,740 1357,577 1299,437 1183,322 1067,206 928,148 765,148 601,148 462,206 346,322 231,437 173,577 173,740 Z"/>
  </g>
 </defs>
 <g class="Page">
  <g class="com.sun.star.drawing.PolyPolygonShape">
   <g id="id3">
    <rect class="BoundingBox" stroke="none" fill="none" x="35125" y="43507" width="1662" height="2496"/>
    <path fill="rgb(0,0,255)" stroke="none" d="M 35313,46001 L 36598,46001 36617,46000 36635,45997 36652,45992 36670,45986 36686,45978 36702,45969 36717,45958 36730,45946 36742,45932 36753,45917 36763,45902 36770,45885 36777,45868 36781,45850 36784,45832 36785,45814 36785,43696 36784,43678 36781,43660 36777,43642 36770,43625 36763,43608 36753,43591 36742,43577 36730,43563 36717,43551 36702,43540 36686,43530 36670,43523 36652,43516 36635,43512 36617,43509 36598,43508 35313,43508 35294,43509 35276,43512 35259,43516 35241,43523 35225,43530 35209,43540 35194,43551 35181,43563 35168,43577 35158,43591 35148,43608 35140,43625 35134,43642 35130,43660 35127,43678 35126,43696 35126,45814 35127,45832 35130,45850 35134,45868 35140,45885 35148,45902 35158,45917 35168,45932 35181,45946 35194,45958 35209,45969 35225,45978 35241,45986 35259,45992 35276,45997 35294,46000 35313,46001 Z"/>
    <path fill="none" stroke="rgb(0,0,255)" d="M 35313,46001 L 36598,46001 36617,46000 36635,45997 36652,45992 36670,45986 36686,45978 36702,45969 36717,45958 36730,45946 36742,45932 36753,45917 36763,45902 36770,45885 36777,45868 36781,45850 36784,45832 36785,45814 36785,43696 36784,43678 36781,43660 36777,43642 36770,43625 36763,43608 36753,43591 36742,43577 36730,43563 36717,43551 36702,43540 36686,43530 36670,43523 36652,43516 36635,43512 36617,43509 36598,43508 35313,43508 35294,43509 35276,43512 35259,43516 35241,43523 35225,43530 35209,43540 35194,43551 35181,43563 35168,43577 35158,43591 35148,43608 35140,43625 35134,43642 35130,43660 35127,43678 35126,43696 35126,45814 35127,45832 35130,45850 35134,45868 35140,45885 35148,45902 35158,45917 35168,45932 35181,45946 35194,45958 35209,45969 35225,45978 35241,45986 35259,45992 35276,45997 35294,46000 35313,46001 Z"/>
   </g>
  </g>
  <g class="com.sun.star.drawing.PolyPolygonShape">
   <g id="id4">
    <rect class="BoundingBox" stroke="none" fill="none" x="35187" y="43570" width="1538" height="2370"/>
    <path fill="rgb(255,255,255)" stroke="none" d="M 35313,45938 L 36598,45938 36610,45938 36622,45936 36634,45933 36646,45929 36657,45923 36667,45917 36677,45910 36686,45902 36694,45893 36702,45883 36708,45872 36713,45861 36717,45850 36720,45838 36722,45826 36723,45814 36723,43695 36722,43683 36720,43671 36717,43659 36713,43648 36708,43637 36702,43626 36694,43616 36686,43607 36677,43599 36667,43592 36657,43585 36646,43580 36634,43576 36622,43573 36610,43571 36598,43571 35313,43571 35300,43571 35288,43573 35276,43576 35265,43580 35254,43585 35243,43592 35234,43599 35225,43607 35216,43616 35209,43626 35203,43637 35198,43648 35194,43659 35191,43671 35189,43683 35188,43695 35188,45814 35189,45826 35191,45838 35194,45850 35198,45861 35203,45872 35209,45883 35216,45893 35225,45902 35234,45910 35243,45917 35254,45923 35265,45929 35276,45933 35288,45936 35300,45938 35313,45938 Z"/>
    <path fill="none" stroke="rgb(255,255,255)" d="M 35313,45938 L 36598,45938 36610,45938 36622,45936 36634,45933 36646,45929 36657,45923 36667,45917 36677,45910 36686,45902 36694,45893 36702,45883 36708,45872 36713,45861 36717,45850 36720,45838 36722,45826 36723,45814 36723,43695 36722,43683 36720,43671 36717,43659 36713,43648 36708,43637 36702,43626 36694,43616 36686,43607 36677,43599 36667,43592 36657,43585 36646,43580 36634,43576 36622,43573 36610,43571 36598,43571 35313,43571 35300,43571 35288,43573 35276,43576 35265,43580 35254,43585 35243,43592 35234,43599 35225,43607 35216,43616 35209,43626 35203,43637 35198,43648 35194,43659 35191,43671 35189,43683 35188,43695 35188,45814 35189,45826 35191,45838 35194,45850 35198,45861 35203,45872 35209,45883 35216,45893 35225,45902 35234,45910 35243,45917 35254,45923 35265,45929 35276,45933 35288,45936 35300,45938 35313,45938 Z"/>
   </g>
  </g>
  <g class="com.sun.star.drawing.PolyPolygonShape">
   <g id="id5">
    <rect class="BoundingBox" stroke="none" fill="none" x="35249" y="43632" width="1413" height="2246"/>
    <path fill="rgb(0,0,255)" stroke="none" d="M 35313,45876 L 36598,45876 36610,45875 36622,45871 36633,45865 36642,45858 36650,45848 36656,45837 36659,45826 36660,45814 36660,43695 36659,43683 36656,43671 36650,43661 36642,43651 36633,43643 36622,43638 36610,43634 36598,43633 35313,43633 35300,43634 35289,43638 35278,43643 35269,43651 35261,43661 35255,43671 35252,43683 35250,43695 35250,45814 35252,45826 35255,45837 35261,45848 35269,45858 35278,45865 35289,45871 35300,45875 35313,45876 Z"/>
    <path fill="none" stroke="rgb(0,0,255)" d="M 35313,45876 L 36598,45876 36610,45875 36622,45871 36633,45865 36642,45858 36650,45848 36656,45837 36659,45826 36660,45814 36660,43695 36659,43683 36656,43671 36650,43661 36642,43651 36633,43643 36622,43638 36610,43634 36598,43633 35313,43633 35300,43634 35289,43638 35278,43643 35269,43651 35261,43661 35255,43671 35252,43683 35250,43695 35250,45814 35252,45826 35255,45837 35261,45848 35269,45858 35278,45865 35289,45871 35300,45875 35313,45876 Z"/>
   </g>
  </g>
  <g class="com.sun.star.drawing.PolyPolygonShape">
   <g id="id6">
    <rect class="BoundingBox" stroke="none" fill="none" x="35332" y="44130" width="1248" height="1250"/>
    <path fill="rgb(255,255,255)" stroke="none" d="M 35416,44131 L 35400,44133 35385,44137 35370,44145 35358,44156 35347,44168 35340,44182 35335,44199 35333,44215 35333,45295 35335,45311 35340,45326 35347,45341 35358,45353 35370,45364 35385,45371 35400,45376 35416,45378 36495,45378 36511,45376 36526,45371 36541,45364 36553,45353 36564,45341 36571,45326 36576,45311 36578,45295 36578,44215 36576,44199 36571,44182 36564,44168 36553,44156 36541,44145 36526,44137 36511,44133 36495,44131 35416,44131 Z"/>
    <path fill="none" stroke="rgb(255,255,255)" d="M 35416,44131 L 35400,44133 35385,44137 35370,44145 35358,44156 35347,44168 35340,44182 35335,44199 35333,44215 35333,45295 35335,45311 35340,45326 35347,45341 35358,45353 35370,45364 35385,45371 35400,45376 35416,45378 36495,45378 36511,45376 36526,45371 36541,45364 36553,45353 36564,45341 36571,45326 36576,45311 36578,45295 36578,44215 36576,44199 36571,44182 36564,44168 36553,44156 36541,44145 36526,44137 36511,44133 36495,44131 35416,44131 Z"/>
   </g>
  </g>
  <g class="com.sun.star.drawing.PolyPolygonShape">
   <g id="id7">
    <rect class="BoundingBox" stroke="none" fill="none" x="35396" y="44379" width="1117" height="728"/>
    <path fill="rgb(0,0,0)" stroke="none" d="M 36317,44543 L 36313,44583 36308,44622 36302,44661 36295,44701 36288,44740 36279,44779 36269,44817 36259,44855 36279,44841 36299,44826 36317,44810 36335,44793 36351,44775 36366,44755 36380,44735 36393,44714 36409,44690 36423,44665 36436,44639 36446,44612 36450,44601 36451,44589 36450,44577 36445,44566 36437,44556 36428,44549 36417,44544 36405,44543 36317,44543 Z M 36241,44911 L 36231,44936 36221,44961 36210,44985 36199,45009 36354,45003 36510,44992 36511,45002 36511,45011 36509,45020 36505,45028 36497,45041 36488,45054 36478,45065 36466,45075 36454,45085 36441,45092 36427,45099 36413,45105 35485,45102 35464,45091 35444,45077 35426,45060 35410,45042 35403,45031 35398,45019 35397,45006 35398,44992 35553,45003 35709,45009 35691,44972 35675,44935 35661,44897 35649,44858 35633,44799 35620,44740 35608,44681 35599,44621 35591,44561 35585,44500 35582,44440 35581,44380 36327,44380 36325,44442 36321,44505 36407,44504 36418,44505 36429,44508 36439,44513 36449,44518 36458,44525 36466,44534 36473,44543 36479,44552 36484,44563 36487,44574 36489,44585 36489,44596 36488,44607 36486,44618 36482,44629 36477,44639 36461,44675 36442,44710 36420,44744 36396,44775 36381,44796 36364,44817 36346,44836 36327,44854 36307,44870 36286,44885 36264,44899 36241,44911 Z"/>
    <path fill="none" stroke="rgb(0,0,0)" d="M 36317,44543 L 36313,44583 36308,44622 36302,44661 36295,44701 36288,44740 36279,44779 36269,44817 36259,44855 36279,44841 36299,44826 36317,44810 36335,44793 36351,44775 36366,44755 36380,44735 36393,44714 36409,44690 36423,44665 36436,44639 36446,44612 36450,44601 36451,44589 36450,44577 36445,44566 36437,44556 36428,44549 36417,44544 36405,44543 36317,44543 Z"/>
    <path fill="none" stroke="rgb(0,0,0)" d="M 36241,44911 L 36231,44936 36221,44961 36210,44985 36199,45009 36354,45003 36510,44992 36511,45002 36511,45011 36509,45020 36505,45028 36497,45041 36488,45054 36478,45065 36466,45075 36454,45085 36441,45092 36427,45099 36413,45105 35485,45102 35464,45091 35444,45077 35426,45060 35410,45042 35403,45031 35398,45019 35397,45006 35398,44992 35553,45003 35709,45009 35691,44972 35675,44935 35661,44897 35649,44858 35633,44799 35620,44740 35608,44681 35599,44621 35591,44561 35585,44500 35582,44440 35581,44380 36327,44380 36325,44442 36321,44505 36407,44504 36418,44505 36429,44508 36439,44513 36449,44518 36458,44525 36466,44534 36473,44543 36479,44552 36484,44563 36487,44574 36489,44585 36489,44596 36488,44607 36486,44618 36482,44629 36477,44639 36461,44675 36442,44710 36420,44744 36396,44775 36381,44796 36364,44817 36346,44836 36327,44854 36307,44870 36286,44885 36264,44899 36241,44911 Z"/>
   </g>
  </g>
  <g class="com.sun.star.drawing.PolyPolygonShape">
   <g id="id8">
    <rect class="BoundingBox" stroke="none" fill="none" x="35396" y="44379" width="1117" height="728"/>
    <path fill="rgb(0,0,0)" stroke="none" d="M 36317,44543 L 36313,44583 36308,44622 36302,44661 36295,44701 36288,44740 36279,44779 36269,44817 36259,44855 36279,44841 36299,44826 36317,44810 36335,44793 36351,44775 36366,44755 36380,44735 36393,44714 36409,44690 36423,44665 36436,44639 36446,44612 36450,44601 36451,44589 36450,44577 36445,44566 36437,44556 36428,44549 36417,44544 36405,44543 36317,44543 Z M 36241,44911 L 36231,44936 36221,44961 36210,44985 36199,45009 36354,45003 36510,44992 36511,45002 36511,45011 36509,45020 36505,45028 36497,45041 36488,45054 36478,45065 36466,45075 36454,45085 36441,45092 36427,45099 36413,45105 35485,45102 35464,45091 35444,45077 35426,45060 35410,45042 35403,45031 35398,45019 35397,45006 35398,44992 35553,45003 35709,45009 35691,44972 35675,44935 35661,44897 35649,44858 35633,44799 35620,44740 35608,44681 35599,44621 35591,44561 35585,44500 35582,44440 35581,44380 36327,44380 36325,44442 36321,44505 36407,44504 36418,44505 36429,44508 36439,44513 36449,44518 36458,44525 36466,44534 36473,44543 36479,44552 36484,44563 36487,44574 36489,44585 36489,44596 36488,44607 36486,44618 36482,44629 36477,44639 36461,44675 36442,44710 36420,44744 36396,44775 36381,44796 36364,44817 36346,44836 36327,44854 36307,44870 36286,44885 36264,44899 36241,44911 Z"/>
    <path fill="none" stroke="rgb(0,0,0)" d="M 36317,44543 L 36313,44583 36308,44622 36302,44661 36295,44701 36288,44740 36279,44779 36269,44817 36259,44855 36279,44841 36299,44826 36317,44810 36335,44793 36351,44775 36366,44755 36380,44735 36393,44714 36409,44690 36423,44665 36436,44639 36446,44612 36450,44601 36451,44589 36450,44577 36445,44566 36437,44556 36428,44549 36417,44544 36405,44543 36317,44543 Z"/>
    <path fill="none" stroke="rgb(0,0,0)" d="M 36241,44911 L 36231,44936 36221,44961 36210,44985 36199,45009 36354,45003 36510,44992 36511,45002 36511,45011 36509,45020 36505,45028 36497,45041 36488,45054 36478,45065 36466,45075 36454,45085 36441,45092 36427,45099 36413,45105 35485,45102 35464,45091 35444,45077 35426,45060 35410,45042 35403,45031 35398,45019 35397,45006 35398,44992 35553,45003 35709,45009 35691,44972 35675,44935 35661,44897 35649,44858 35633,44799 35620,44740 35608,44681 35599,44621 35591,44561 35585,44500 35582,44440 35581,44380 36327,44380 36325,44442 36321,44505 36407,44504 36418,44505 36429,44508 36439,44513 36449,44518 36458,44525 36466,44534 36473,44543 36479,44552 36484,44563 36487,44574 36489,44585 36489,44596 36488,44607 36486,44618 36482,44629 36477,44639 36461,44675 36442,44710 36420,44744 36396,44775 36381,44796 36364,44817 36346,44836 36327,44854 36307,44870 36286,44885 36264,44899 36241,44911 Z"/>
   </g>
  </g>
 </g>
</svg>