<?xml version="1.0" encoding="UTF-8"?>
<!DOCTYPE svg PUBLIC "-//W3C//DTD SVG 1.1//EN" "http://www.w3.org/Graphics/SVG/1.1/DTD/svg11.dtd">
<svg version="1.2" width="17.35mm" height="25.03mm" viewBox="33933 36499 1735 2503" preserveAspectRatio="xMidYMid" fill-rule="evenodd" stroke-width="28.222" stroke-linejoin="round" xmlns="http://www.w3.org/2000/svg" xmlns:ooo="http://xml.openoffice.org/svg/export" xmlns:xlink="http://www.w3.org/1999/xlink" xmlns:presentation="http://sun.com/xmlns/staroffice/presentation" xmlns:smil="http://www.w3.org/2001/SMIL20/" xmlns:anim="urn:oasis:names:tc:opendocument:xmlns:animation:1.0" xml:space="preserve">
 <defs class="EmbeddedBulletChars">
  <g id="bullet-char-template-57356" transform="scale(0.00048828125,-0.00048828125)">
   <path d="M 580,1141 L 1163,571 580,0 -4,571 580,1141 Z"/>
  </g>
  <g id="bullet-char-template-57354" transform="scale(0.00048828125,-0.00048828125)">
   <path d="M 8,1128 L 1137,1128 1137,0 8,0 8,1128 Z"/>
  </g>
  <g id="bullet-char-template-10146" transform="scale(0.00048828125,-0.00048828125)">
   <path d="M 174,0 L 602,739 174,1481 1456,739 174,0 Z M 1358,739 L 309,1346 659,739 1358,739 Z"/>
  </g>
  <g id="bullet-char-template-10132" transform="scale(0.00048828125,-0.00048828125)">
   <path d="M 2015,739 L 1276,0 717,0 1260,543 174,543 174,936 1260,936 717,1481 1274,1481 2015,739 Z"/>
  </g>
  <g id="bullet-char-template-10007" transform="scale(0.00048828125,-0.00048828125)">
   <path d="M 0,-2 C -7,14 -16,27 -25,37 L 356,567 C 262,823 215,952 215,954 215,979 228,992 255,992 264,992 276,990 289,987 310,991 331,999 354,1012 L 381,999 492,748 772,1049 836,1024 860,1049 C 881,1039 901,1025 922,1006 886,937 835,863 770,784 769,783 710,716 594,584 L 774,223 C 774,196 753,168 711,139 L 727,119 C 717,90 699,76 672,76 641,76 570,178 457,381 L 164,-76 C 142,-110 111,-127 72,-127 30,-127 9,-110 8,-76 1,-67 -2,-52 -2,-32 -2,-23 -1,-13 0,-2 Z"/>
  </g>
  <g id="bullet-char-template-10004" transform="scale(0.00048828125,-0.00048828125)">
   <path d="M 285,-33 C 182,-33 111,30 74,156 52,228 41,333 41,471 41,549 55,616 82,672 116,743 169,778 240,778 293,778 328,747 346,684 L 369,508 C 377,444 397,411 428,410 L 1163,1116 C 1174,1127 1196,1133 1229,1133 1271,1133 1292,1118 1292,1087 L 1292,965 C 1292,929 1282,901 1262,881 L 442,47 C 390,-6 338,-33 285,-33 Z"/>
  </g>
  <g id="bullet-char-template-9679" transform="scale(0.00048828125,-0.00048828125)">
   <path d="M 813,0 C 632,0 489,54 383,161 276,268 223,411 223,592 223,773 276,916 383,1023 489,1130 632,1184 813,1184 992,1184 1136,1130 1245,1023 1353,916 1407,772 1407,592 1407,412 1353,268 1245,161 1136,54 992,0 813,0 Z"/>
  </g>
  <g id="bullet-char-template-8226" transform="scale(0.00048828125,-0.00048828125)">
   <path d="M 346,457 C 273,457 209,483 155,535 101,586 74,649 74,723 74,796 101,859 155,911 209,963 273,989 346,989 419,989 480,963 531,910 582,859 608,796 608,723 608,648 583,586 532,535 482,483 420,457 346,457 Z"/>
  </g>
  <g id="bullet-char-template-8211" transform="scale(0.00048828125,-0.00048828125)">
   <path d="M -4,459 L 1135,459 1135,606 -4,606 -4,459 Z"/>
  </g>
  <g id="bullet-char-template-61548" transform="scale(0.00048828125,-0.00048828125)">
   <path d="M 173,740 C 173,903 231,1043 346,1159 462,1274 601,1332 765,1332 928,1332 1067,1274 1183,1159 1299,1043 1357,903 1357,740 1357,577 1299,437 1183,322 1067,206 928,148 765,148 601,148 462,206 346,322 231,437 173,577 173,740 Z"/>
  </g>
 </defs>
 <g class="Page">
  <g class="com.sun.star.drawing.PolyPolygonShape">
   <g id="id3">
    <rect class="BoundingBox" stroke="none" fill="none" x="33933" y="36499" width="1735" height="2503"/>
    <path fill="rgb(0,0,255)" stroke="none" d="M 33934,38813 L 33934,36687 33934,36678 33935,36669 33936,36659 33938,36650 33940,36641 33942,36633 33945,36624 33948,36615 33952,36607 33956,36599 33961,36591 33966,36583 33971,36575 33977,36568 33983,36561 33989,36554 33996,36548 34003,36542 34010,36536 34018,36531 34025,36526 34033,36522 34042,36517 34050,36514 34058,36510 34067,36508 34076,36505 34085,36503 34094,36501 34103,36500 34113,36500 34122,36500 35478,36500 35487,36500 35496,36500 35506,36501 35515,36503 35524,36505 35532,36508 35541,36510 35550,36514 35558,36517 35566,36522 35574,36526 35582,36531 35590,36536 35597,36542 35604,36548 35611,36554 35617,36561 35623,36568 35629,36575 35634,36583 35639,36591 35643,36599 35647,36607 35651,36615 35655,36624 35657,36633 35660,36641 35662,36650 35663,36659 35665,36669 35665,36678 35666,36687 35666,38813 35665,38822 35665,38831 35663,38840 35662,38849 35660,38858 35657,38867 35655,38876 35651,38885 35647,38893 35643,38901 35639,38909 35634,38917 35629,38924 35623,38932 35617,38939 35611,38945 35604,38952 35597,38958 35590,38963 35582,38969 35574,38974 35566,38978 35558,38982 35550,38986 35541,38989 35532,38992 35524,38995 35515,38997 35506,38998 35496,38999 35487,39000 35478,39000 34122,39000 34113,39000 34103,38999 34094,38998 34085,38997 34076,38995 34067,38992 34058,38989 34050,38986 34042,38982 34033,38978 34025,38974 34018,38969 34010,38963 34003,38958 33996,38952 33989,38945 33983,38939 33977,38932 33971,38924 33966,38917 33961,38909 33956,38901 33952,38893 33948,38885 33945,38876 33942,38867 33940,38858 33938,38849 33936,38840 33935,38831 33934,38822 33934,38813 Z"/>
    <path fill="none" stroke="rgb(0,0,255)" d="M 33934,38813 L 33934,36687 33934,36678 33935,36669 33936,36659 33938,36650 33940,36641 33942,36633 33945,36624 33948,36615 33952,36607 33956,36599 33961,36591 33966,36583 33971,36575 33977,36568 33983,36561 33989,36554 33996,36548 34003,36542 34010,36536 34018,36531 34025,36526 34033,36522 34042,36517 34050,36514 34058,36510 34067,36508 34076,36505 34085,36503 34094,36501 34103,36500 34113,36500 34122,36500 35478,36500 35487,36500 35496,36500 35506,36501 35515,36503 35524,36505 35532,36508 35541,36510 35550,36514 35558,36517 35566,36522 35574,36526 35582,36531 35590,36536 35597,36542 35604,36548 35611,36554 35617,36561 35623,36568 35629,36575 35634,36583 35639,36591 35643,36599 35647,36607 35651,36615 35655,36624 35657,36633 35660,36641 35662,36650 35663,36659 35665,36669 35665,36678 35666,36687 35666,38813 35665,38822 35665,38831 35663,38840 35662,38849 35660,38858 35657,38867 35655,38876 35651,38885 35647,38893 35643,38901 35639,38909 35634,38917 35629,38924 35623,38932 35617,38939 35611,38945 35604,38952 35597,38958 35590,38963 35582,38969 35574,38974 35566,38978 35558,38982 35550,38986 35541,38989 35532,38992 35524,38995 35515,38997 35506,38998 35496,38999 35487,39000 35478,39000 34122,39000 34113,39000 34103,38999 34094,38998 34085,38997 34076,38995 34067,38992 34058,38989 34050,38986 34042,38982 34033,38978 34025,38974 34018,38969 34010,38963 34003,38958 33996,38952 33989,38945 33983,38939 33977,38932 33971,38924 33966,38917 33961,38909 33956,38901 33952,38893 33948,38885 33945,38876 33942,38867 33940,38858 33938,38849 33936,38840 33935,38831 33934,38822 33934,38813 Z"/>
   </g>
  </g>
  <g class="com.sun.star.drawing.PolyPolygonShape">
   <g id="id4">
    <rect class="BoundingBox" stroke="none" fill="none" x="33976" y="36542" width="1648" height="2417"/>
    <path fill="rgb(255,255,255)" stroke="none" d="M 33977,38813 L 33977,36687 33978,36673 33980,36659 33984,36645 33988,36632 33995,36619 34002,36607 34010,36595 34020,36585 34030,36576 34042,36567 34054,36560 34067,36554 34080,36549 34094,36546 34108,36543 34122,36543 35478,36543 35492,36543 35506,36546 35520,36549 35533,36554 35546,36560 35558,36567 35570,36576 35580,36585 35590,36595 35598,36607 35605,36619 35611,36632 35616,36645 35619,36659 35622,36673 35622,36687 35622,38813 35622,38827 35619,38841 35616,38855 35611,38868 35605,38881 35598,38893 35590,38904 35580,38915 35570,38924 35558,38933 35546,38940 35533,38946 35520,38951 35506,38954 35492,38956 35478,38957 34122,38957 34108,38956 34094,38954 34080,38951 34067,38946 34054,38940 34042,38933 34030,38924 34020,38915 34010,38904 34002,38893 33995,38881 33988,38868 33984,38855 33980,38841 33978,38827 33977,38813 Z"/>
    <path fill="none" stroke="rgb(255,255,255)" d="M 33977,38813 L 33977,36687 33978,36673 33980,36659 33984,36645 33988,36632 33995,36619 34002,36607 34010,36595 34020,36585 34030,36576 34042,36567 34054,36560 34067,36554 34080,36549 34094,36546 34108,36543 34122,36543 35478,36543 35492,36543 35506,36546 35520,36549 35533,36554 35546,36560 35558,36567 35570,36576 35580,36585 35590,36595 35598,36607 35605,36619 35611,36632 35616,36645 35619,36659 35622,36673 35622,36687 35622,38813 35622,38827 35619,38841 35616,38855 35611,38868 35605,38881 35598,38893 35590,38904 35580,38915 35570,38924 35558,38933 35546,38940 35533,38946 35520,38951 35506,38954 35492,38956 35478,38957 34122,38957 34108,38956 34094,38954 34080,38951 34067,38946 34054,38940 34042,38933 34030,38924 34020,38915 34010,38904 34002,38893 33995,38881 33988,38868 33984,38855 33980,38841 33978,38827 33977,38813 Z"/>
   </g>
  </g>
  <g class="com.sun.star.drawing.PolyPolygonShape">
   <g id="id5">
    <rect class="BoundingBox" stroke="none" fill="none" x="34020" y="36585" width="1561" height="2331"/>
    <path fill="rgb(0,0,255)" stroke="none" d="M 34021,38813 L 34021,36687 34021,36677 34023,36667 34025,36658 34028,36648 34033,36639 34038,36631 34044,36623 34050,36616 34058,36609 34066,36603 34074,36598 34083,36594 34092,36590 34102,36588 34112,36586 34122,36586 35478,36586 35488,36586 35498,36588 35507,36590 35517,36594 35526,36598 35534,36603 35542,36609 35549,36616 35556,36623 35562,36631 35567,36639 35571,36648 35575,36658 35577,36667 35578,36677 35579,36687 35579,38813 35578,38823 35577,38833 35575,38842 35571,38852 35567,38861 35562,38869 35556,38877 35549,38884 35542,38891 35534,38897 35526,38902 35517,38906 35507,38910 35498,38912 35488,38913 35478,38914 34122,38914 34112,38913 34102,38912 34092,38910 34083,38906 34074,38902 34066,38897 34058,38891 34050,38884 34044,38877 34038,38869 34033,38861 34028,38852 34025,38842 34023,38833 34021,38823 34021,38813 Z"/>
    <path fill="none" stroke="rgb(0,0,255)" d="M 34021,38813 L 34021,36687 34021,36677 34023,36667 34025,36658 34028,36648 34033,36639 34038,36631 34044,36623 34050,36616 34058,36609 34066,36603 34074,36598 34083,36594 34092,36590 34102,36588 34112,36586 34122,36586 35478,36586 35488,36586 35498,36588 35507,36590 35517,36594 35526,36598 35534,36603 35542,36609 35549,36616 35556,36623 35562,36631 35567,36639 35571,36648 35575,36658 35577,36667 35578,36677 35579,36687 35579,38813 35578,38823 35577,38833 35575,38842 35571,38852 35567,38861 35562,38869 35556,38877 35549,38884 35542,38891 35534,38897 35526,38902 35517,38906 35507,38910 35498,38912 35488,38913 35478,38914 34122,38914 34112,38913 34102,38912 34092,38910 34083,38906 34074,38902 34066,38897 34058,38891 34050,38884 34044,38877 34038,38869 34033,38861 34028,38852 34025,38842 34023,38833 34021,38823 34021,38813 Z"/>
   </g>
  </g>
  <g class="com.sun.star.drawing.PolyPolygonShape">
   <g id="id6">
    <rect class="BoundingBox" stroke="none" fill="none" x="34020" y="36585" width="1561" height="2331"/>
    <path fill="rgb(255,0,0)" stroke="none" d="M 34021,38813 L 34021,38637 35452,36586 35478,36586 35488,36586 35498,36588 35507,36590 35517,36594 35526,36598 35534,36603 35542,36609 35549,36616 35556,36623 35562,36631 35567,36639 35571,36648 35575,36658 35577,36667 35578,36677 35579,36687 35579,36863 34148,38914 34122,38914 34112,38913 34102,38912 34092,38910 34083,38906 34074,38902 34066,38897 34058,38891 34050,38884 34044,38877 34038,38869 34033,38861 34028,38852 34025,38842 34023,38833 34021,38823 34021,38813 Z"/>
    <path fill="none" stroke="rgb(255,0,0)" d="M 34021,38813 L 34021,38637 35452,36586 35478,36586 35488,36586 35498,36588 35507,36590 35517,36594 35526,36598 35534,36603 35542,36609 35549,36616 35556,36623 35562,36631 35567,36639 35571,36648 35575,36658 35577,36667 35578,36677 35579,36687 35579,36863 34148,38914 34122,38914 34112,38913 34102,38912 34092,38910 34083,38906 34074,38902 34066,38897 34058,38891 34050,38884 34044,38877 34038,38869 34033,38861 34028,38852 34025,38842 34023,38833 34021,38823 34021,38813 Z"/>
   </g>
  </g>
  <g class="com.sun.star.drawing.PolyPolygonShape">
   <g id="id7">
    <rect class="BoundingBox" stroke="none" fill="none" x="34078" y="37349" width="842" height="538"/>
    <path fill="rgb(255,255,255)" stroke="none" d="M 34798,37523 L 34338,37523 34367,37885 34136,37885 34165,37523 34079,37523 34079,37350 34918,37350 34798,37523 Z"/>
    <path fill="none" stroke="rgb(255,255,255)" d="M 34798,37523 L 34338,37523 34367,37885 34136,37885 34165,37523 34079,37523 34079,37350 34918,37350 34798,37523 Z"/>
   </g>
  </g>
  <g class="com.sun.star.drawing.PolyPolygonShape">
   <g id="id8">
    <rect class="BoundingBox" stroke="none" fill="none" x="34857" y="36673" width="182" height="622"/>
    <path fill="rgb(255,255,255)" stroke="none" d="M 35038,37180 L 34972,36673 34857,36673 34873,37294 34958,37294 35038,37180 Z"/>
   </g>
  </g>
  <g class="com.sun.star.drawing.PolyPolygonShape">
   <g id="id9">
    <rect class="BoundingBox" stroke="none" fill="none" x="34856" y="36672" width="184" height="624"/>
    <path fill="none" stroke="rgb(255,255,255)" d="M 35038,37180 L 34972,36673 34857,36673 34873,37294 34958,37294 35038,37180 Z"/>
   </g>
  </g>
  <g class="com.sun.star.drawing.PolyPolygonShape">
   <g id="id10">
    <rect class="BoundingBox" stroke="none" fill="none" x="34453" y="37609" width="268" height="408"/>
    <path fill="rgb(255,255,255)" stroke="none" d="M 34454,38015 L 34506,37610 34719,37610 34718,37638 34454,38015 Z"/>
    <path fill="none" stroke="rgb(255,255,255)" d="M 34454,38015 L 34506,37610 34719,37610 34718,37638 34454,38015 Z"/>
   </g>
  </g>
  <g class="com.sun.star.drawing.PolyPolygonShape">
   <g id="id11">
    <rect class="BoundingBox" stroke="none" fill="none" x="34546" y="36672" width="199" height="624"/>
    <path fill="rgb(255,255,255)" stroke="none" d="M 34626,36673 L 34547,37294 34727,37294 34743,36673 34626,36673 Z"/>
    <path fill="none" stroke="rgb(255,255,255)" d="M 34626,36673 L 34547,37294 34727,37294 34743,36673 34626,36673 Z"/>
   </g>
  </g>
  <g class="com.sun.star.drawing.PolyPolygonShape">
   <g id="id12">
    <rect class="BoundingBox" stroke="none" fill="none" x="35116" y="37349" width="407" height="538"/>
    <path fill="rgb(255,255,255)" stroke="none" d="M 35521,37523 L 35435,37523 35464,37885 35233,37885 35262,37523 35117,37523 35239,37350 35521,37350 35521,37523 Z"/>
    <path fill="none" stroke="rgb(255,255,255)" d="M 35521,37523 L 35435,37523 35464,37885 35233,37885 35262,37523 35117,37523 35239,37350 35521,37350 35521,37523 Z"/>
   </g>
  </g>
  <g class="com.sun.star.drawing.PolyPolygonShape">
   <g id="id13">
    <rect class="BoundingBox" stroke="none" fill="none" x="34886" y="37609" width="378" height="1220"/>
    <path fill="rgb(255,255,255)" stroke="none" d="M 35057,37610 L 35092,37610 35262,38827 34915,38827 34887,37853 35057,37610 Z"/>
    <path fill="none" stroke="rgb(255,255,255)" d="M 35057,37610 L 35092,37610 35262,38827 34915,38827 34887,37853 35057,37610 Z"/>
   </g>
  </g>
  <g class="com.sun.star.drawing.PolyPolygonShape">
   <g id="id14">
    <rect class="BoundingBox" stroke="none" fill="none" x="34337" y="38114" width="371" height="715"/>
    <path fill="rgb(255,255,255)" stroke="none" d="M 34394,38560 L 34706,38115 34685,38827 34338,38827 34394,38560 Z"/>
    <path fill="none" stroke="rgb(255,255,255)" d="M 34394,38560 L 34706,38115 34685,38827 34338,38827 34394,38560 Z"/>
   </g>
  </g>
  <g class="com.sun.star.drawing.PolyPolygonShape">
   <g id="id15">
    <rect class="BoundingBox" stroke="none" fill="none" x="34337" y="38114" width="371" height="715"/>
    <path fill="rgb(255,255,255)" stroke="none" d="M 34394,38560 L 34706,38115 34685,38827 34338,38827 34394,38560 Z"/>
    <path fill="none" stroke="rgb(255,255,255)" d="M 34394,38560 L 34706,38115 34685,38827 34338,38827 34394,38560 Z"/>
   </g>
  </g>
 </g>
</svg>