<?xml version="1.0" encoding="UTF-8"?>
<!DOCTYPE svg PUBLIC "-//W3C//DTD SVG 1.1//EN" "http://www.w3.org/Graphics/SVG/1.1/DTD/svg11.dtd">
<svg version="1.2" width="16.62mm" height="25.03mm" viewBox="37325 43499 1662 2503" preserveAspectRatio="xMidYMid" fill-rule="evenodd" stroke-width="28.222" stroke-linejoin="round" xmlns="http://www.w3.org/2000/svg" xmlns:ooo="http://xml.openoffice.org/svg/export" xmlns:xlink="http://www.w3.org/1999/xlink" xmlns:presentation="http://sun.com/xmlns/staroffice/presentation" xmlns:smil="http://www.w3.org/2001/SMIL20/" xmlns:anim="urn:oasis:names:tc:opendocument:xmlns:animation:1.0" xml:space="preserve">
 <defs class="EmbeddedBulletChars">
  <g id="bullet-char-template-57356" transform="scale(0.00048828125,-0.00048828125)">
   <path d="M 580,1141 L 1163,571 580,0 -4,571 580,1141 Z"/>
  </g>
  <g id="bullet-char-template-57354" transform="scale(0.00048828125,-0.00048828125)">
   <path d="M 8,1128 L 1137,1128 1137,0 8,0 8,1128 Z"/>
  </g>
  <g id="bullet-char-template-10146" transform="scale(0.00048828125,-0.00048828125)">
   <path d="M 174,0 L 602,739 174,1481 1456,739 174,0 Z M 1358,739 L 309,1346 659,739 1358,739 Z"/>
  </g>
  <g id="bullet-char-template-10132" transform="scale(0.00048828125,-0.00048828125)">
   <path d="M 2015,739 L 1276,0 717,0 1260,543 174,543 174,936 1260,936 717,1481 1274,1481 2015,739 Z"/>
  </g>
  <g id="bullet-char-template-10007" transform="scale(0.00048828125,-0.00048828125)">
   <path d="M 0,-2 C -7,14 -16,27 -25,37 L 356,567 C 262,823 215,952 215,954 215,979 228,992 255,992 264,992 276,990 289,987 310,991 331,999 354,1012 L 381,999 492,748 772,1049 836,1024 860,1049 C 881,1039 901,1025 922,1006 886,937 835,863 770,784 769,783 710,716 594,584 L 774,223 C 774,196 753,168 711,139 L 727,119 C 717,90 699,76 672,76 641,76 570,178 457,381 L 164,-76 C 142,-110 111,-127 72,-127 30,-127 9,-110 8,-76 1,-67 -2,-52 -2,-32 -2,-23 -1,-13 0,-2 Z"/>
  </g>
  <g id="bullet-char-template-10004" transform="scale(0.00048828125,-0.00048828125)">
   <path d="M 285,-33 C 182,-33 111,30 74,156 52,228 41,333 41,471 41,549 55,616 82,672 116,743 169,778 240,778 293,778 328,747 346,684 L 369,508 C 377,444 397,411 428,410 L 1163,1116 C 1174,1127 1196,1133 1229,1133 1271,1133 1292,1118 1292,1087 L 1292,965 C 1292,929 1282,901 1262,881 L 442,47 C 390,-6 338,-33 285,-33 Z"/>
  </g>
  <g id="bullet-char-template-9679" transform="scale(0.00048828125,-0.00048828125)">
   <path d="M 813,0 C 632,0 489,54 383,161 276,268 223,411 223,592 223,773 276,916 383,1023 489,1130 632,1184 813,1184 992,1184 1136,1130 1245,1023 1353,916 1407,772 1407,592 1407,412 1353,268 1245,161 1136,54 992,0 813,0 Z"/>
  </g>
  <g id="bullet-char-template-8226" transform="scale(0.00048828125,-0.00048828125)">
   <path d="M 346,457 C 273,457 209,483 155,535 101,586 74,649 74,723 74,796 101,859 155,911 209,963 273,989 346,989 419,989 480,963 531,910 582,859 608,796 608,723 608,648 583,586 532,535 482,483 420,457 346,457 Z"/>
  </g>
  <g id="bullet-char-template-8211" transform="scale(0.00048828125,-0.00048828125)">
   <path d="M -4,459 L 1135,459 1135,606 -4,606 -4,459 Z"/>
  </g>
  <g id="bullet-char-template-61548" transform="scale(0.00048828125,-0.00048828125)">
   <path d="M 173,740 C 173,903 231,1043 346,1159 462,1274 601,1332 765,1332 928,1332 1067,1274 1183,1159 1299,1043 1357,903 1357,740 1357,577 1299,437 1183,322 1067,206 928,148 765,148 601,148 462,206 346,322 231,437 173,577 173,740 Z"/>
  </g>
 </defs>
 <g class="Page">
  <g class="com.sun.star.drawing.PolyPolygonShape">
   <g id="id3">
    <rect class="BoundingBox" stroke="none" fill="none" x="37325" y="43499" width="1662" height="2503"/>
    <path fill="rgb(0,0,255)" stroke="none" d="M 37513,46000 L 38797,46000 38816,45999 38834,45997 38851,45992 38869,45986 38885,45978 38901,45969 38916,45958 38929,45946 38942,45932 38953,45917 38963,45901 38970,45885 38977,45867 38981,45849 38984,45831 38985,45813 38985,43687 38984,43669 38981,43651 38977,43633 38970,43615 38963,43599 38953,43583 38942,43568 38929,43555 38916,43542 38901,43531 38885,43522 38869,43514 38851,43508 38834,43503 38816,43500 38797,43500 37513,43500 37494,43500 37476,43503 37458,43508 37441,43514 37425,43522 37409,43531 37394,43542 37381,43555 37368,43568 37357,43583 37348,43599 37340,43615 37334,43633 37330,43651 37327,43669 37326,43687 37326,45813 37327,45831 37330,45849 37334,45867 37340,45885 37348,45901 37357,45917 37368,45932 37381,45946 37394,45958 37409,45969 37425,45978 37441,45986 37458,45992 37476,45997 37494,45999 37513,46000 Z"/>
    <path fill="none" stroke="rgb(0,0,255)" d="M 37513,46000 L 38797,46000 38816,45999 38834,45997 38851,45992 38869,45986 38885,45978 38901,45969 38916,45958 38929,45946 38942,45932 38953,45917 38963,45901 38970,45885 38977,45867 38981,45849 38984,45831 38985,45813 38985,43687 38984,43669 38981,43651 38977,43633 38970,43615 38963,43599 38953,43583 38942,43568 38929,43555 38916,43542 38901,43531 38885,43522 38869,43514 38851,43508 38834,43503 38816,43500 38797,43500 37513,43500 37494,43500 37476,43503 37458,43508 37441,43514 37425,43522 37409,43531 37394,43542 37381,43555 37368,43568 37357,43583 37348,43599 37340,43615 37334,43633 37330,43651 37327,43669 37326,43687 37326,45813 37327,45831 37330,45849 37334,45867 37340,45885 37348,45901 37357,45917 37368,45932 37381,45946 37394,45958 37409,45969 37425,45978 37441,45986 37458,45992 37476,45997 37494,45999 37513,46000 Z"/>
   </g>
  </g>
  <g class="com.sun.star.drawing.PolyPolygonShape">
   <g id="id4">
    <rect class="BoundingBox" stroke="none" fill="none" x="37387" y="43561" width="1537" height="2379"/>
    <path fill="rgb(255,255,255)" stroke="none" d="M 37513,45938 L 38798,45938 38810,45937 38822,45936 38834,45933 38846,45928 38857,45923 38867,45917 38877,45910 38886,45901 38894,45892 38902,45882 38908,45872 38913,45861 38917,45849 38920,45837 38922,45825 38922,45813 38922,43687 38922,43675 38920,43663 38917,43651 38913,43639 38908,43628 38902,43618 38894,43608 38886,43599 38877,43590 38867,43583 38857,43577 38846,43572 38834,43568 38822,43564 38810,43563 38798,43562 37513,43562 37500,43563 37488,43564 37476,43568 37465,43572 37454,43577 37443,43583 37434,43590 37425,43599 37416,43608 37409,43618 37403,43628 37398,43639 37394,43651 37391,43663 37389,43675 37388,43687 37388,45813 37389,45825 37391,45837 37394,45849 37398,45861 37403,45872 37409,45882 37416,45892 37425,45901 37434,45910 37443,45917 37454,45923 37465,45928 37476,45933 37488,45936 37500,45937 37513,45938 Z"/>
    <path fill="none" stroke="rgb(255,255,255)" d="M 37513,45938 L 38798,45938 38810,45937 38822,45936 38834,45933 38846,45928 38857,45923 38867,45917 38877,45910 38886,45901 38894,45892 38902,45882 38908,45872 38913,45861 38917,45849 38920,45837 38922,45825 38922,45813 38922,43687 38922,43675 38920,43663 38917,43651 38913,43639 38908,43628 38902,43618 38894,43608 38886,43599 38877,43590 38867,43583 38857,43577 38846,43572 38834,43568 38822,43564 38810,43563 38798,43562 37513,43562 37500,43563 37488,43564 37476,43568 37465,43572 37454,43577 37443,43583 37434,43590 37425,43599 37416,43608 37409,43618 37403,43628 37398,43639 37394,43651 37391,43663 37389,43675 37388,43687 37388,45813 37389,45825 37391,45837 37394,45849 37398,45861 37403,45872 37409,45882 37416,45892 37425,45901 37434,45910 37443,45917 37454,45923 37465,45928 37476,45933 37488,45936 37500,45937 37513,45938 Z"/>
   </g>
  </g>
  <g class="com.sun.star.drawing.PolyPolygonShape">
   <g id="id5">
    <rect class="BoundingBox" stroke="none" fill="none" x="37449" y="43624" width="1413" height="2253"/>
    <path fill="rgb(0,0,255)" stroke="none" d="M 37513,45875 L 38798,45875 38810,45874 38822,45871 38833,45865 38842,45857 38850,45848 38856,45837 38859,45825 38860,45813 38860,43687 38859,43675 38856,43663 38850,43652 38842,43643 38833,43635 38822,43629 38810,43626 38798,43625 37513,43625 37500,43626 37489,43629 37478,43635 37469,43643 37461,43652 37455,43663 37452,43675 37450,43687 37450,45813 37452,45825 37455,45837 37461,45848 37469,45857 37478,45865 37489,45871 37500,45874 37513,45875 Z"/>
    <path fill="none" stroke="rgb(0,0,255)" d="M 37513,45875 L 38798,45875 38810,45874 38822,45871 38833,45865 38842,45857 38850,45848 38856,45837 38859,45825 38860,45813 38860,43687 38859,43675 38856,43663 38850,43652 38842,43643 38833,43635 38822,43629 38810,43626 38798,43625 37513,43625 37500,43626 37489,43629 37478,43635 37469,43643 37461,43652 37455,43663 37452,43675 37450,43687 37450,45813 37452,45825 37455,45837 37461,45848 37469,45857 37478,45865 37489,45871 37500,45874 37513,45875 Z"/>
   </g>
  </g>
  <g class="com.sun.star.drawing.PolyPolygonShape">
   <g id="id6">
    <rect class="BoundingBox" stroke="none" fill="none" x="37532" y="44061" width="1248" height="1379"/>
    <path fill="rgb(255,255,255)" stroke="none" d="M 37533,44062 L 38778,44062 38778,45438 37533,45438 37533,44062 Z"/>
    <path fill="none" stroke="rgb(255,255,255)" d="M 37533,44062 L 38778,44062 38778,45438 37533,45438 37533,44062 Z"/>
   </g>
  </g>
  <g class="com.sun.star.drawing.PolyPolygonShape">
   <g id="id7">
    <rect class="BoundingBox" stroke="none" fill="none" x="37636" y="44332" width="1040" height="837"/>
    <path fill="rgb(0,0,0)" stroke="none" d="M 37957,45063 L 38156,44780 38355,45063 37957,45063 Z M 38156,44500 L 38033,44333 37919,44333 38099,44578 37740,45063 37637,45063 37637,45167 38674,45167 38674,45063 38570,45063 38213,44578 38393,44333 38279,44333 38156,44500 Z"/>
    <path fill="none" stroke="rgb(0,0,0)" d="M 37957,45063 L 38156,44780 38355,45063 37957,45063 Z"/>
    <path fill="none" stroke="rgb(0,0,0)" d="M 38156,44500 L 38033,44333 37919,44333 38099,44578 37740,45063 37637,45063 37637,45167 38674,45167 38674,45063 38570,45063 38213,44578 38393,44333 38279,44333 38156,44500 Z"/>
   </g>
  </g>
  <g class="com.sun.star.drawing.PolyPolygonShape">
   <g id="id8">
    <rect class="BoundingBox" stroke="none" fill="none" x="37636" y="44332" width="1040" height="837"/>
    <path fill="rgb(0,0,0)" stroke="none" d="M 37957,45063 L 38156,44780 38355,45063 37957,45063 Z M 38156,44500 L 38033,44333 37919,44333 38099,44578 37740,45063 37637,45063 37637,45167 38674,45167 38674,45063 38570,45063 38213,44578 38393,44333 38279,44333 38156,44500 Z"/>
    <path fill="none" stroke="rgb(0,0,0)" d="M 37957,45063 L 38156,44780 38355,45063 37957,45063 Z"/>
    <path fill="none" stroke="rgb(0,0,0)" d="M 38156,44500 L 38033,44333 37919,44333 38099,44578 37740,45063 37637,45063 37637,45167 38674,45167 38674,45063 38570,45063 38213,44578 38393,44333 38279,44333 38156,44500 Z"/>
   </g>
  </g>
 </g>
</svg>