<?xml version="1.0" encoding="UTF-8"?>
<!DOCTYPE svg PUBLIC "-//W3C//DTD SVG 1.1//EN" "http://www.w3.org/Graphics/SVG/1.1/DTD/svg11.dtd">
<svg version="1.2" width="16.62mm" height="25.03mm" viewBox="39525 43499 1662 2503" preserveAspectRatio="xMidYMid" fill-rule="evenodd" stroke-width="28.222" stroke-linejoin="round" xmlns="http://www.w3.org/2000/svg" xmlns:ooo="http://xml.openoffice.org/svg/export" xmlns:xlink="http://www.w3.org/1999/xlink" xmlns:presentation="http://sun.com/xmlns/staroffice/presentation" xmlns:smil="http://www.w3.org/2001/SMIL20/" xmlns:anim="urn:oasis:names:tc:opendocument:xmlns:animation:1.0" xml:space="preserve">
 <defs class="EmbeddedBulletChars">
  <g id="bullet-char-template-57356" transform="scale(0.00048828125,-0.00048828125)">
   <path d="M 580,1141 L 1163,571 580,0 -4,571 580,1141 Z"/>
  </g>
  <g id="bullet-char-template-57354" transform="scale(0.00048828125,-0.00048828125)">
   <path d="M 8,1128 L 1137,1128 1137,0 8,0 8,1128 Z"/>
  </g>
  <g id="bullet-char-template-10146" transform="scale(0.00048828125,-0.00048828125)">
   <path d="M 174,0 L 602,739 174,1481 1456,739 174,0 Z M 1358,739 L 309,1346 659,739 1358,739 Z"/>
  </g>
  <g id="bullet-char-template-10132" transform="scale(0.00048828125,-0.00048828125)">
   <path d="M 2015,739 L 1276,0 717,0 1260,543 174,543 174,936 1260,936 717,1481 1274,1481 2015,739 Z"/>
  </g>
  <g id="bullet-char-template-10007" transform="scale(0.00048828125,-0.00048828125)">
   <path d="M 0,-2 C -7,14 -16,27 -25,37 L 356,567 C 262,823 215,952 215,954 215,979 228,992 255,992 264,992 276,990 289,987 310,991 331,999 354,1012 L 381,999 492,748 772,1049 836,1024 860,1049 C 881,1039 901,1025 922,1006 886,937 835,863 770,784 769,783 710,716 594,584 L 774,223 C 774,196 753,168 711,139 L 727,119 C 717,90 699,76 672,76 641,76 570,178 457,381 L 164,-76 C 142,-110 111,-127 72,-127 30,-127 9,-110 8,-76 1,-67 -2,-52 -2,-32 -2,-23 -1,-13 0,-2 Z"/>
  </g>
  <g id="bullet-char-template-10004" transform="scale(0.00048828125,-0.00048828125)">
   <path d="M 285,-33 C 182,-33 111,30 74,156 52,228 41,333 41,471 41,549 55,616 82,672 116,743 169,778 240,778 293,778 328,747 346,684 L 369,508 C 377,444 397,411 428,410 L 1163,1116 C 1174,1127 1196,1133 1229,1133 1271,1133 1292,1118 1292,1087 L 1292,965 C 1292,929 1282,901 1262,881 L 442,47 C 390,-6 338,-33 285,-33 Z"/>
  </g>
  <g id="bullet-char-template-9679" transform="scale(0.00048828125,-0.00048828125)">
   <path d="M 813,0 C 632,0 489,54 383,161 276,268 223,411 223,592 223,773 276,916 383,1023 489,1130 632,1184 813,1184 992,1184 1136,1130 1245,1023 1353,916 1407,772 1407,592 1407,412 1353,268 1245,161 1136,54 992,0 813,0 Z"/>
  </g>
  <g id="bullet-char-template-8226" transform="scale(0.00048828125,-0.00048828125)">
   <path d="M 346,457 C 273,457 209,483 155,535 101,586 74,649 74,723 74,796 101,859 155,911 209,963 273,989 346,989 419,989 480,963 531,910 582,859 608,796 608,723 608,648 583,586 532,535 482,483 420,457 346,457 Z"/>
  </g>
  <g id="bullet-char-template-8211" transform="scale(0.00048828125,-0.00048828125)">
   <path d="M -4,459 L 1135,459 1135,606 -4,606 -4,459 Z"/>
  </g>
  <g id="bullet-char-template-61548" transform="scale(0.00048828125,-0.00048828125)">
   <path d="M 173,740 C 173,903 231,1043 346,1159 462,1274 601,1332 765,1332 928,1332 1067,1274 1183,1159 1299,1043 1357,903 1357,740 1357,577 1299,437 1183,322 1067,206 928,148 765,148 601,148 462,206 346,322 231,437 173,577 173,740 Z"/>
  </g>
 </defs>
 <g class="Page">
  <g class="com.sun.star.drawing.PolyPolygonShape">
   <g id="id3">
    <rect class="BoundingBox" stroke="none" fill="none" x="39525" y="43499" width="1662" height="2503"/>
    <path fill="rgb(0,0,255)" stroke="none" d="M 39712,46000 L 40998,46000 41017,45999 41035,45997 41052,45992 41070,45986 41086,45978 41102,45969 41117,45958 41130,45945 41142,45932 41153,45917 41163,45901 41170,45885 41177,45867 41181,45849 41184,45831 41185,45813 41185,43687 41184,43669 41181,43651 41177,43633 41170,43615 41163,43599 41153,43583 41142,43568 41130,43555 41117,43542 41102,43531 41086,43522 41070,43514 41052,43508 41035,43503 41017,43500 40998,43500 39712,43500 39694,43500 39676,43503 39658,43508 39641,43514 39625,43522 39609,43531 39594,43542 39581,43555 39568,43568 39557,43583 39548,43599 39540,43615 39534,43633 39530,43651 39527,43669 39526,43687 39526,45813 39527,45831 39530,45849 39534,45867 39540,45885 39548,45901 39557,45917 39568,45932 39581,45945 39594,45958 39609,45969 39625,45978 39641,45986 39658,45992 39676,45997 39694,45999 39712,46000 Z"/>
    <path fill="none" stroke="rgb(0,0,255)" d="M 39712,46000 L 40998,46000 41017,45999 41035,45997 41052,45992 41070,45986 41086,45978 41102,45969 41117,45958 41130,45945 41142,45932 41153,45917 41163,45901 41170,45885 41177,45867 41181,45849 41184,45831 41185,45813 41185,43687 41184,43669 41181,43651 41177,43633 41170,43615 41163,43599 41153,43583 41142,43568 41130,43555 41117,43542 41102,43531 41086,43522 41070,43514 41052,43508 41035,43503 41017,43500 40998,43500 39712,43500 39694,43500 39676,43503 39658,43508 39641,43514 39625,43522 39609,43531 39594,43542 39581,43555 39568,43568 39557,43583 39548,43599 39540,43615 39534,43633 39530,43651 39527,43669 39526,43687 39526,45813 39527,45831 39530,45849 39534,45867 39540,45885 39548,45901 39557,45917 39568,45932 39581,45945 39594,45958 39609,45969 39625,45978 39641,45986 39658,45992 39676,45997 39694,45999 39712,46000 Z"/>
   </g>
  </g>
  <g class="com.sun.star.drawing.PolyPolygonShape">
   <g id="id4">
    <rect class="BoundingBox" stroke="none" fill="none" x="39587" y="43561" width="1537" height="2379"/>
    <path fill="rgb(255,255,255)" stroke="none" d="M 39712,45938 L 40998,45938 41010,45937 41022,45935 41034,45933 41046,45928 41057,45923 41067,45917 41077,45909 41086,45901 41094,45892 41101,45882 41108,45872 41113,45861 41117,45849 41120,45837 41122,45825 41122,45813 41122,43687 41122,43675 41120,43663 41117,43651 41113,43639 41108,43628 41101,43618 41094,43608 41086,43599 41077,43590 41067,43583 41057,43577 41046,43572 41034,43568 41022,43564 41010,43563 40998,43562 39712,43562 39700,43563 39688,43564 39676,43568 39665,43572 39654,43577 39643,43583 39634,43590 39625,43599 39616,43608 39609,43618 39603,43628 39598,43639 39594,43651 39591,43663 39589,43675 39588,43687 39588,45813 39589,45825 39591,45837 39594,45849 39598,45861 39603,45872 39609,45882 39616,45892 39625,45901 39634,45909 39643,45917 39654,45923 39665,45928 39676,45933 39688,45935 39700,45937 39712,45938 Z"/>
    <path fill="none" stroke="rgb(255,255,255)" d="M 39712,45938 L 40998,45938 41010,45937 41022,45935 41034,45933 41046,45928 41057,45923 41067,45917 41077,45909 41086,45901 41094,45892 41101,45882 41108,45872 41113,45861 41117,45849 41120,45837 41122,45825 41122,45813 41122,43687 41122,43675 41120,43663 41117,43651 41113,43639 41108,43628 41101,43618 41094,43608 41086,43599 41077,43590 41067,43583 41057,43577 41046,43572 41034,43568 41022,43564 41010,43563 40998,43562 39712,43562 39700,43563 39688,43564 39676,43568 39665,43572 39654,43577 39643,43583 39634,43590 39625,43599 39616,43608 39609,43618 39603,43628 39598,43639 39594,43651 39591,43663 39589,43675 39588,43687 39588,45813 39589,45825 39591,45837 39594,45849 39598,45861 39603,45872 39609,45882 39616,45892 39625,45901 39634,45909 39643,45917 39654,45923 39665,45928 39676,45933 39688,45935 39700,45937 39712,45938 Z"/>
   </g>
  </g>
  <g class="com.sun.star.drawing.PolyPolygonShape">
   <g id="id5">
    <rect class="BoundingBox" stroke="none" fill="none" x="39649" y="43624" width="1413" height="2253"/>
    <path fill="rgb(0,0,255)" stroke="none" d="M 39712,45875 L 40998,45875 41010,45874 41022,45871 41033,45865 41042,45857 41050,45848 41056,45837 41059,45825 41060,45813 41060,43687 41059,43675 41056,43663 41050,43652 41042,43643 41033,43635 41022,43629 41010,43626 40998,43625 39712,43625 39700,43626 39689,43629 39678,43635 39669,43643 39661,43652 39655,43663 39652,43675 39650,43687 39650,45813 39652,45825 39655,45837 39661,45848 39669,45857 39678,45865 39689,45871 39700,45874 39712,45875 Z"/>
    <path fill="none" stroke="rgb(0,0,255)" d="M 39712,45875 L 40998,45875 41010,45874 41022,45871 41033,45865 41042,45857 41050,45848 41056,45837 41059,45825 41060,45813 41060,43687 41059,43675 41056,43663 41050,43652 41042,43643 41033,43635 41022,43629 41010,43626 40998,43625 39712,43625 39700,43626 39689,43629 39678,43635 39669,43643 39661,43652 39655,43663 39652,43675 39650,43687 39650,45813 39652,45825 39655,45837 39661,45848 39669,45857 39678,45865 39689,45871 39700,45874 39712,45875 Z"/>
   </g>
  </g>
  <g class="com.sun.star.drawing.PolyPolygonShape">
   <g id="id6">
    <rect class="BoundingBox" stroke="none" fill="none" x="39732" y="44061" width="1248" height="1379"/>
    <path fill="rgb(255,255,255)" stroke="none" d="M 39733,44062 L 40978,44062 40978,45438 39733,45438 39733,44062 Z"/>
    <path fill="none" stroke="rgb(255,255,255)" d="M 39733,44062 L 40978,44062 40978,45438 39733,45438 39733,44062 Z"/>
   </g>
  </g>
  <g class="com.sun.star.drawing.PolyPolygonShape">
   <g id="id7">
    <rect class="BoundingBox" stroke="none" fill="none" x="39815" y="44314" width="1040" height="872"/>
    <path fill="rgb(0,0,0)" stroke="none" d="M 40197,44532 L 40190,44533 40184,44535 40178,44538 40173,44542 40168,44547 40165,44553 40163,44560 40162,44567 40162,44671 40163,44677 40165,44684 40168,44690 40173,44695 40178,44700 40184,44704 40190,44706 40197,44706 40301,44707 40307,44706 40314,44704 40320,44700 40325,44695 40329,44690 40333,44684 40335,44677 40335,44671 40335,44567 40335,44560 40333,44553 40329,44547 40325,44542 40320,44538 40314,44535 40307,44533 40301,44532 40197,44532 Z M 39955,44532 L 39949,44533 39942,44535 39936,44538 39931,44542 39927,44547 39923,44553 39921,44560 39921,44567 39921,44671 39921,44677 39923,44684 39927,44690 39931,44695 39936,44700 39942,44704 39949,44706 39955,44706 40059,44707 40066,44706 40072,44704 40078,44700 40083,44695 40088,44690 40091,44684 40093,44677 40093,44671 40093,44567 40093,44560 40091,44553 40088,44547 40083,44542 40078,44538 40072,44535 40066,44533 40059,44532 39955,44532 Z M 40222,45054 L 40252,44970 40419,44970 40448,45054 40646,45054 40646,45168 40024,45168 40024,45054 40222,45054 Z M 40646,44488 L 40645,44480 40643,44472 40639,44464 40633,44458 40627,44452 40619,44448 40611,44446 40603,44445 40482,44445 40474,44446 40465,44448 40458,44452 40451,44458 40446,44464 40442,44472 40440,44480 40439,44488 40439,44988 40440,44997 40442,45005 40446,45013 40451,45019 40458,45025 40465,45029 40474,45031 40482,45032 40603,45032 40611,45031 40619,45029 40627,45025 40633,45019 40639,45013 40643,45005 40645,44997 40646,44988 40646,44488 Z M 40831,44504 L 40824,44487 40814,44470 40806,44460 40797,44450 40788,44440 40777,44432 40764,44424 40750,44418 40722,44403 40693,44390 40665,44377 40635,44365 40606,44355 40576,44345 40545,44337 40515,44329 40491,44325 40467,44321 40443,44318 40419,44315 40394,44315 40310,44315 40267,44316 40231,44318 40195,44321 40159,44327 40123,44334 40093,44342 40064,44351 40035,44361 40007,44372 39978,44384 39951,44397 39923,44412 39897,44426 39884,44435 39873,44445 39864,44456 39855,44468 39847,44481 39841,44494 39835,44507 39831,44522 39830,44527 39824,44550 39820,44572 39817,44595 39816,44619 39816,44870 39819,44894 39824,44920 39832,44946 39841,44970 39852,44994 39859,45007 39868,45019 39879,45029 39891,45038 39904,45044 39918,45049 39932,45052 39947,45054 40009,45054 40009,45168 39816,45168 39816,45184 40853,45184 40853,45168 40661,45168 40661,45054 40724,45054 40738,45052 40753,45049 40766,45044 40779,45037 40791,45028 40802,45018 40810,45006 40818,44993 40829,44969 40838,44945 40845,44919 40851,44893 40853,44874 40853,44619 40852,44591 40848,44564 40842,44537 40833,44510 40831,44504 Z"/>
    <path fill="none" stroke="rgb(0,0,0)" d="M 40197,44532 L 40190,44533 40184,44535 40178,44538 40173,44542 40168,44547 40165,44553 40163,44560 40162,44567 40162,44671 40163,44677 40165,44684 40168,44690 40173,44695 40178,44700 40184,44704 40190,44706 40197,44706 40301,44707 40307,44706 40314,44704 40320,44700 40325,44695 40329,44690 40333,44684 40335,44677 40335,44671 40335,44567 40335,44560 40333,44553 40329,44547 40325,44542 40320,44538 40314,44535 40307,44533 40301,44532 40197,44532 Z"/>
    <path fill="none" stroke="rgb(0,0,0)" d="M 39955,44532 L 39949,44533 39942,44535 39936,44538 39931,44542 39927,44547 39923,44553 39921,44560 39921,44567 39921,44671 39921,44677 39923,44684 39927,44690 39931,44695 39936,44700 39942,44704 39949,44706 39955,44706 40059,44707 40066,44706 40072,44704 40078,44700 40083,44695 40088,44690 40091,44684 40093,44677 40093,44671 40093,44567 40093,44560 40091,44553 40088,44547 40083,44542 40078,44538 40072,44535 40066,44533 40059,44532 39955,44532 Z"/>
    <path fill="none" stroke="rgb(0,0,0)" d="M 40222,45054 L 40252,44970 40419,44970 40448,45054 40646,45054 40646,45168 40024,45168 40024,45054 40222,45054 Z"/>
    <path fill="none" stroke="rgb(0,0,0)" d="M 40646,44488 L 40645,44480 40643,44472 40639,44464 40633,44458 40627,44452 40619,44448 40611,44446 40603,44445 40482,44445 40474,44446 40465,44448 40458,44452 40451,44458 40446,44464 40442,44472 40440,44480 40439,44488 40439,44988 40440,44997 40442,45005 40446,45013 40451,45019 40458,45025 40465,45029 40474,45031 40482,45032 40603,45032 40611,45031 40619,45029 40627,45025 40633,45019 40639,45013 40643,45005 40645,44997 40646,44988 40646,44488 Z"/>
    <path fill="none" stroke="rgb(0,0,0)" d="M 40831,44504 L 40824,44487 40814,44470 40806,44460 40797,44450 40788,44440 40777,44432 40764,44424 40750,44418 40722,44403 40693,44390 40665,44377 40635,44365 40606,44355 40576,44345 40545,44337 40515,44329 40491,44325 40467,44321 40443,44318 40419,44315 40394,44315 40310,44315 40267,44316 40231,44318 40195,44321 40159,44327 40123,44334 40093,44342 40064,44351 40035,44361 40007,44372 39978,44384 39951,44397 39923,44412 39897,44426 39884,44435 39873,44445 39864,44456 39855,44468 39847,44481 39841,44494 39835,44507 39831,44522 39830,44527 39824,44550 39820,44572 39817,44595 39816,44619 39816,44870 39819,44894 39824,44920 39832,44946 39841,44970 39852,44994 39859,45007 39868,45019 39879,45029 39891,45038 39904,45044 39918,45049 39932,45052 39947,45054 40009,45054 40009,45168 39816,45168 39816,45184 40853,45184 40853,45168 40661,45168 40661,45054 40724,45054 40738,45052 40753,45049 40766,45044 40779,45037 40791,45028 40802,45018 40810,45006 40818,44993 40829,44969 40838,44945 40845,44919 40851,44893 40853,44874 40853,44619 40852,44591 40848,44564 40842,44537 40833,44510 40831,44504 Z"/>
   </g>
  </g>
  <g class="com.sun.star.drawing.PolyPolygonShape">
   <g id="id8">
    <rect class="BoundingBox" stroke="none" fill="none" x="40230" y="44978" width="211" height="192"/>
    <path fill="rgb(0,0,0)" stroke="none" d="M 40257,44979 L 40231,45054 40231,45064 40231,45075 40233,45086 40236,45097 40240,45107 40245,45116 40250,45125 40257,45134 40266,45142 40274,45148 40284,45154 40293,45159 40303,45163 40314,45166 40324,45168 40335,45168 40346,45168 40357,45166 40367,45163 40377,45159 40387,45154 40396,45148 40404,45142 40412,45134 40419,45125 40425,45116 40430,45107 40434,45097 40436,45086 40438,45075 40439,45064 40438,45054 40412,44979 40257,44979 Z"/>
    <path fill="none" stroke="rgb(0,0,0)" d="M 40257,44979 L 40231,45054 40231,45064 40231,45075 40233,45086 40236,45097 40240,45107 40245,45116 40250,45125 40257,45134 40266,45142 40274,45148 40284,45154 40293,45159 40303,45163 40314,45166 40324,45168 40335,45168 40346,45168 40357,45166 40367,45163 40377,45159 40387,45154 40396,45148 40404,45142 40412,45134 40419,45125 40425,45116 40430,45107 40434,45097 40436,45086 40438,45075 40439,45064 40438,45054 40412,44979 40257,44979 Z"/>
   </g>
  </g>
  <g class="com.sun.star.drawing.PolyPolygonShape">
   <g id="id9">
    <rect class="BoundingBox" stroke="none" fill="none" x="40446" y="44454" width="192" height="570"/>
    <path fill="rgb(0,0,0)" stroke="none" d="M 40636,44488 L 40636,44482 40634,44475 40631,44470 40627,44464 40621,44460 40616,44457 40609,44455 40603,44455 40481,44455 40474,44455 40468,44457 40462,44460 40457,44464 40453,44470 40450,44475 40448,44482 40447,44488 40447,44987 40448,44994 40450,45001 40453,45007 40457,45012 40462,45017 40468,45020 40474,45022 40481,45022 40603,45022 40609,45022 40616,45020 40621,45017 40627,45012 40631,45007 40634,45001 40636,44994 40636,44987 40636,44488 Z"/>
    <path fill="none" stroke="rgb(0,0,0)" d="M 40636,44488 L 40636,44482 40634,44475 40631,44470 40627,44464 40621,44460 40616,44457 40609,44455 40603,44455 40481,44455 40474,44455 40468,44457 40462,44460 40457,44464 40453,44470 40450,44475 40448,44482 40447,44488 40447,44987 40448,44994 40450,45001 40453,45007 40457,45012 40462,45017 40468,45020 40474,45022 40481,45022 40603,45022 40609,45022 40616,45020 40621,45017 40627,45012 40631,45007 40634,45001 40636,44994 40636,44987 40636,44488 Z"/>
   </g>
  </g>
  <g class="com.sun.star.drawing.PolyPolygonShape">
   <g id="id10">
    <rect class="BoundingBox" stroke="none" fill="none" x="40446" y="44454" width="192" height="570"/>
    <path fill="rgb(0,0,0)" stroke="none" d="M 40636,44488 L 40636,44482 40634,44475 40631,44470 40627,44464 40621,44460 40616,44457 40609,44455 40603,44455 40481,44455 40474,44455 40468,44457 40462,44460 40457,44464 40453,44470 40450,44475 40448,44482 40447,44488 40447,44987 40448,44994 40450,45001 40453,45007 40457,45012 40462,45017 40468,45020 40474,45022 40481,45022 40603,45022 40609,45022 40616,45020 40621,45017 40627,45012 40631,45007 40634,45001 40636,44994 40636,44987 40636,44488 Z"/>
    <path fill="none" stroke="rgb(0,0,0)" d="M 40636,44488 L 40636,44482 40634,44475 40631,44470 40627,44464 40621,44460 40616,44457 40609,44455 40603,44455 40481,44455 40474,44455 40468,44457 40462,44460 40457,44464 40453,44470 40450,44475 40448,44482 40447,44488 40447,44987 40448,44994 40450,45001 40453,45007 40457,45012 40462,45017 40468,45020 40474,45022 40481,45022 40603,45022 40609,45022 40616,45020 40621,45017 40627,45012 40631,45007 40634,45001 40636,44994 40636,44987 40636,44488 Z"/>
   </g>
  </g>
 </g>
</svg>