<?xml version="1.0" encoding="UTF-8"?>
<!DOCTYPE svg PUBLIC "-//W3C//DTD SVG 1.1//EN" "http://www.w3.org/Graphics/SVG/1.1/DTD/svg11.dtd">
<svg version="1.2" width="16.62mm" height="25.03mm" viewBox="41725 43499 1662 2503" preserveAspectRatio="xMidYMid" fill-rule="evenodd" stroke-width="28.222" stroke-linejoin="round" xmlns="http://www.w3.org/2000/svg" xmlns:ooo="http://xml.openoffice.org/svg/export" xmlns:xlink="http://www.w3.org/1999/xlink" xmlns:presentation="http://sun.com/xmlns/staroffice/presentation" xmlns:smil="http://www.w3.org/2001/SMIL20/" xmlns:anim="urn:oasis:names:tc:opendocument:xmlns:animation:1.0" xml:space="preserve">
 <defs class="EmbeddedBulletChars">
  <g id="bullet-char-template-57356" transform="scale(0.00048828125,-0.00048828125)">
   <path d="M 580,1141 L 1163,571 580,0 -4,571 580,1141 Z"/>
  </g>
  <g id="bullet-char-template-57354" transform="scale(0.00048828125,-0.00048828125)">
   <path d="M 8,1128 L 1137,1128 1137,0 8,0 8,1128 Z"/>
  </g>
  <g id="bullet-char-template-10146" transform="scale(0.00048828125,-0.00048828125)">
   <path d="M 174,0 L 602,739 174,1481 1456,739 174,0 Z M 1358,739 L 309,1346 659,739 1358,739 Z"/>
  </g>
  <g id="bullet-char-template-10132" transform="scale(0.00048828125,-0.00048828125)">
   <path d="M 2015,739 L 1276,0 717,0 1260,543 174,543 174,936 1260,936 717,1481 1274,1481 2015,739 Z"/>
  </g>
  <g id="bullet-char-template-10007" transform="scale(0.00048828125,-0.00048828125)">
   <path d="M 0,-2 C -7,14 -16,27 -25,37 L 356,567 C 262,823 215,952 215,954 215,979 228,992 255,992 264,992 276,990 289,987 310,991 331,999 354,1012 L 381,999 492,748 772,1049 836,1024 860,1049 C 881,1039 901,1025 922,1006 886,937 835,863 770,784 769,783 710,716 594,584 L 774,223 C 774,196 753,168 711,139 L 727,119 C 717,90 699,76 672,76 641,76 570,178 457,381 L 164,-76 C 142,-110 111,-127 72,-127 30,-127 9,-110 8,-76 1,-67 -2,-52 -2,-32 -2,-23 -1,-13 0,-2 Z"/>
  </g>
  <g id="bullet-char-template-10004" transform="scale(0.00048828125,-0.00048828125)">
   <path d="M 285,-33 C 182,-33 111,30 74,156 52,228 41,333 41,471 41,549 55,616 82,672 116,743 169,778 240,778 293,778 328,747 346,684 L 369,508 C 377,444 397,411 428,410 L 1163,1116 C 1174,1127 1196,1133 1229,1133 1271,1133 1292,1118 1292,1087 L 1292,965 C 1292,929 1282,901 1262,881 L 442,47 C 390,-6 338,-33 285,-33 Z"/>
  </g>
  <g id="bullet-char-template-9679" transform="scale(0.00048828125,-0.00048828125)">
   <path d="M 813,0 C 632,0 489,54 383,161 276,268 223,411 223,592 223,773 276,916 383,1023 489,1130 632,1184 813,1184 992,1184 1136,1130 1245,1023 1353,916 1407,772 1407,592 1407,412 1353,268 1245,161 1136,54 992,0 813,0 Z"/>
  </g>
  <g id="bullet-char-template-8226" transform="scale(0.00048828125,-0.00048828125)">
   <path d="M 346,457 C 273,457 209,483 155,535 101,586 74,649 74,723 74,796 101,859 155,911 209,963 273,989 346,989 419,989 480,963 531,910 582,859 608,796 608,723 608,648 583,586 532,535 482,483 420,457 346,457 Z"/>
  </g>
  <g id="bullet-char-template-8211" transform="scale(0.00048828125,-0.00048828125)">
   <path d="M -4,459 L 1135,459 1135,606 -4,606 -4,459 Z"/>
  </g>
  <g id="bullet-char-template-61548" transform="scale(0.00048828125,-0.00048828125)">
   <path d="M 173,740 C 173,903 231,1043 346,1159 462,1274 601,1332 765,1332 928,1332 1067,1274 1183,1159 1299,1043 1357,903 1357,740 1357,577 1299,437 1183,322 1067,206 928,148 765,148 601,148 462,206 346,322 231,437 173,577 173,740 Z"/>
  </g>
 </defs>
 <g class="Page">
  <g class="com.sun.star.drawing.PolyPolygonShape">
   <g id="id3">
    <rect class="BoundingBox" stroke="none" fill="none" x="41725" y="43499" width="1662" height="2503"/>
    <path fill="rgb(0,0,255)" stroke="none" d="M 41913,46000 L 43198,46000 43217,45999 43235,45997 43252,45992 43270,45986 43286,45978 43302,45969 43317,45958 43330,45945 43342,45932 43353,45917 43363,45901 43371,45885 43377,45867 43381,45849 43384,45831 43385,45813 43385,43687 43384,43669 43381,43651 43377,43633 43371,43615 43363,43599 43353,43583 43342,43568 43330,43555 43317,43542 43302,43531 43286,43522 43270,43514 43252,43508 43235,43503 43217,43500 43198,43500 41913,43500 41894,43500 41876,43503 41858,43508 41841,43514 41825,43522 41809,43531 41794,43542 41781,43555 41768,43568 41757,43583 41748,43599 41740,43615 41734,43633 41730,43651 41727,43669 41726,43687 41726,45813 41727,45831 41730,45849 41734,45867 41740,45885 41748,45901 41757,45917 41768,45932 41781,45945 41794,45958 41809,45969 41825,45978 41841,45986 41858,45992 41876,45997 41894,45999 41913,46000 Z"/>
    <path fill="none" stroke="rgb(0,0,255)" d="M 41913,46000 L 43198,46000 43217,45999 43235,45997 43252,45992 43270,45986 43286,45978 43302,45969 43317,45958 43330,45945 43342,45932 43353,45917 43363,45901 43371,45885 43377,45867 43381,45849 43384,45831 43385,45813 43385,43687 43384,43669 43381,43651 43377,43633 43371,43615 43363,43599 43353,43583 43342,43568 43330,43555 43317,43542 43302,43531 43286,43522 43270,43514 43252,43508 43235,43503 43217,43500 43198,43500 41913,43500 41894,43500 41876,43503 41858,43508 41841,43514 41825,43522 41809,43531 41794,43542 41781,43555 41768,43568 41757,43583 41748,43599 41740,43615 41734,43633 41730,43651 41727,43669 41726,43687 41726,45813 41727,45831 41730,45849 41734,45867 41740,45885 41748,45901 41757,45917 41768,45932 41781,45945 41794,45958 41809,45969 41825,45978 41841,45986 41858,45992 41876,45997 41894,45999 41913,46000 Z"/>
   </g>
  </g>
  <g class="com.sun.star.drawing.PolyPolygonShape">
   <g id="id4">
    <rect class="BoundingBox" stroke="none" fill="none" x="41787" y="43561" width="1537" height="2379"/>
    <path fill="rgb(255,255,255)" stroke="none" d="M 41913,45938 L 43198,45938 43210,45937 43222,45935 43234,45933 43246,45928 43257,45923 43267,45917 43277,45909 43286,45901 43294,45892 43302,45882 43308,45872 43313,45861 43317,45849 43320,45837 43322,45825 43322,45813 43322,43687 43322,43675 43320,43663 43317,43651 43313,43639 43308,43628 43302,43618 43294,43608 43286,43599 43277,43590 43267,43583 43257,43577 43246,43572 43234,43568 43222,43564 43210,43563 43198,43562 41913,43562 41900,43563 41888,43564 41876,43568 41865,43572 41854,43577 41843,43583 41834,43590 41825,43599 41816,43608 41809,43618 41803,43628 41798,43639 41794,43651 41791,43663 41789,43675 41788,43687 41788,45813 41789,45825 41791,45837 41794,45849 41798,45861 41803,45872 41809,45882 41816,45892 41825,45901 41834,45909 41843,45917 41854,45923 41865,45928 41876,45933 41888,45935 41900,45937 41913,45938 Z"/>
    <path fill="none" stroke="rgb(255,255,255)" d="M 41913,45938 L 43198,45938 43210,45937 43222,45935 43234,45933 43246,45928 43257,45923 43267,45917 43277,45909 43286,45901 43294,45892 43302,45882 43308,45872 43313,45861 43317,45849 43320,45837 43322,45825 43322,45813 43322,43687 43322,43675 43320,43663 43317,43651 43313,43639 43308,43628 43302,43618 43294,43608 43286,43599 43277,43590 43267,43583 43257,43577 43246,43572 43234,43568 43222,43564 43210,43563 43198,43562 41913,43562 41900,43563 41888,43564 41876,43568 41865,43572 41854,43577 41843,43583 41834,43590 41825,43599 41816,43608 41809,43618 41803,43628 41798,43639 41794,43651 41791,43663 41789,43675 41788,43687 41788,45813 41789,45825 41791,45837 41794,45849 41798,45861 41803,45872 41809,45882 41816,45892 41825,45901 41834,45909 41843,45917 41854,45923 41865,45928 41876,45933 41888,45935 41900,45937 41913,45938 Z"/>
   </g>
  </g>
  <g class="com.sun.star.drawing.PolyPolygonShape">
   <g id="id5">
    <rect class="BoundingBox" stroke="none" fill="none" x="41849" y="43624" width="1413" height="2253"/>
    <path fill="rgb(0,0,255)" stroke="none" d="M 41913,45875 L 43198,45875 43210,45874 43222,45871 43233,45865 43242,45857 43250,45848 43256,45837 43259,45825 43260,45813 43260,43687 43259,43675 43256,43663 43250,43652 43242,43643 43233,43635 43222,43629 43210,43626 43198,43625 41913,43625 41900,43626 41889,43629 41878,43635 41869,43643 41861,43652 41855,43663 41852,43675 41850,43687 41850,45813 41852,45825 41855,45837 41861,45848 41869,45857 41878,45865 41889,45871 41900,45874 41913,45875 Z"/>
    <path fill="none" stroke="rgb(0,0,255)" d="M 41913,45875 L 43198,45875 43210,45874 43222,45871 43233,45865 43242,45857 43250,45848 43256,45837 43259,45825 43260,45813 43260,43687 43259,43675 43256,43663 43250,43652 43242,43643 43233,43635 43222,43629 43210,43626 43198,43625 41913,43625 41900,43626 41889,43629 41878,43635 41869,43643 41861,43652 41855,43663 41852,43675 41850,43687 41850,45813 41852,45825 41855,45837 41861,45848 41869,45857 41878,45865 41889,45871 41900,45874 41913,45875 Z"/>
   </g>
  </g>
  <g class="com.sun.star.drawing.PolyPolygonShape">
   <g id="id6">
    <rect class="BoundingBox" stroke="none" fill="none" x="41932" y="44124" width="1248" height="1253"/>
    <path fill="rgb(255,255,255)" stroke="none" d="M 41933,45375 L 43178,45375 43178,44125 41933,44125 41933,45375 Z"/>
    <path fill="none" stroke="rgb(255,255,255)" d="M 41933,45375 L 43178,45375 43178,44125 41933,44125 41933,45375 Z"/>
   </g>
  </g>
  <g class="com.sun.star.drawing.PolyPolygonShape">
   <g id="id7">
    <rect class="BoundingBox" stroke="none" fill="none" x="41994" y="44284" width="1124" height="921"/>
    <path fill="rgb(0,0,0)" stroke="none" d="M 42642,44867 L 42836,44867 42836,45178 42642,45178 42642,44867 Z M 41995,45203 L 41995,45178 42191,45178 42191,45026 42153,45026 42115,45029 42058,45036 42002,45045 42023,44994 42045,44943 42067,44893 42091,44843 42072,44853 42054,44861 42080,44780 42108,44699 42138,44619 42169,44540 42133,44559 42203,44285 42239,44421 42274,44559 42238,44540 42269,44619 42298,44699 42327,44780 42353,44861 42333,44853 42314,44842 42338,44892 42362,44942 42384,44993 42405,45045 42372,45039 42340,45034 42308,45030 42275,45027 42245,45026 42216,45026 42216,45178 42409,45178 42409,44672 43069,44672 43069,45178 43116,45178 43116,45203 41995,45203 Z"/>
    <path fill="none" stroke="rgb(0,0,0)" d="M 42642,44867 L 42836,44867 42836,45178 42642,45178 42642,44867 Z"/>
    <path fill="none" stroke="rgb(0,0,0)" d="M 41995,45203 L 41995,45178 42191,45178 42191,45026 42153,45026 42115,45029 42058,45036 42002,45045 42023,44994 42045,44943 42067,44893 42091,44843 42072,44853 42054,44861 42080,44780 42108,44699 42138,44619 42169,44540 42133,44559 42203,44285 42239,44421 42274,44559 42238,44540 42269,44619 42298,44699 42327,44780 42353,44861 42333,44853 42314,44842 42338,44892 42362,44942 42384,44993 42405,45045 42372,45039 42340,45034 42308,45030 42275,45027 42245,45026 42216,45026 42216,45178 42409,45178 42409,44672 43069,44672 43069,45178 43116,45178 43116,45203 41995,45203 Z"/>
   </g>
  </g>
  <g class="com.sun.star.drawing.PolyPolygonShape">
   <g id="id8">
    <rect class="BoundingBox" stroke="none" fill="none" x="42361" y="44281" width="758" height="374"/>
    <path fill="rgb(0,0,0)" stroke="none" d="M 42362,44653 L 42740,44282 43117,44653 42362,44653 Z"/>
    <path fill="none" stroke="rgb(0,0,0)" d="M 42362,44653 L 42740,44282 43117,44653 42362,44653 Z"/>
   </g>
  </g>
  <g class="com.sun.star.drawing.PolyPolygonShape">
   <g id="id9">
    <rect class="BoundingBox" stroke="none" fill="none" x="42361" y="44281" width="758" height="374"/>
    <path fill="rgb(0,0,0)" stroke="none" d="M 42362,44653 L 42740,44282 43117,44653 42362,44653 Z"/>
    <path fill="none" stroke="rgb(0,0,0)" d="M 42362,44653 L 42740,44282 43117,44653 42362,44653 Z"/>
   </g>
  </g>
 </g>
</svg>