<?xml version="1.0" encoding="UTF-8"?>
<!DOCTYPE svg PUBLIC "-//W3C//DTD SVG 1.1//EN" "http://www.w3.org/Graphics/SVG/1.1/DTD/svg11.dtd">
<svg version="1.2" width="16.62mm" height="25.03mm" viewBox="43925 43499 1662 2503" preserveAspectRatio="xMidYMid" fill-rule="evenodd" stroke-width="28.222" stroke-linejoin="round" xmlns="http://www.w3.org/2000/svg" xmlns:ooo="http://xml.openoffice.org/svg/export" xmlns:xlink="http://www.w3.org/1999/xlink" xmlns:presentation="http://sun.com/xmlns/staroffice/presentation" xmlns:smil="http://www.w3.org/2001/SMIL20/" xmlns:anim="urn:oasis:names:tc:opendocument:xmlns:animation:1.0" xml:space="preserve">
 <defs class="EmbeddedBulletChars">
  <g id="bullet-char-template-57356" transform="scale(0.00048828125,-0.00048828125)">
   <path d="M 580,1141 L 1163,571 580,0 -4,571 580,1141 Z"/>
  </g>
  <g id="bullet-char-template-57354" transform="scale(0.00048828125,-0.00048828125)">
   <path d="M 8,1128 L 1137,1128 1137,0 8,0 8,1128 Z"/>
  </g>
  <g id="bullet-char-template-10146" transform="scale(0.00048828125,-0.00048828125)">
   <path d="M 174,0 L 602,739 174,1481 1456,739 174,0 Z M 1358,739 L 309,1346 659,739 1358,739 Z"/>
  </g>
  <g id="bullet-char-template-10132" transform="scale(0.00048828125,-0.00048828125)">
   <path d="M 2015,739 L 1276,0 717,0 1260,543 174,543 174,936 1260,936 717,1481 1274,1481 2015,739 Z"/>
  </g>
  <g id="bullet-char-template-10007" transform="scale(0.00048828125,-0.00048828125)">
   <path d="M 0,-2 C -7,14 -16,27 -25,37 L 356,567 C 262,823 215,952 215,954 215,979 228,992 255,992 264,992 276,990 289,987 310,991 331,999 354,1012 L 381,999 492,748 772,1049 836,1024 860,1049 C 881,1039 901,1025 922,1006 886,937 835,863 770,784 769,783 710,716 594,584 L 774,223 C 774,196 753,168 711,139 L 727,119 C 717,90 699,76 672,76 641,76 570,178 457,381 L 164,-76 C 142,-110 111,-127 72,-127 30,-127 9,-110 8,-76 1,-67 -2,-52 -2,-32 -2,-23 -1,-13 0,-2 Z"/>
  </g>
  <g id="bullet-char-template-10004" transform="scale(0.00048828125,-0.00048828125)">
   <path d="M 285,-33 C 182,-33 111,30 74,156 52,228 41,333 41,471 41,549 55,616 82,672 116,743 169,778 240,778 293,778 328,747 346,684 L 369,508 C 377,444 397,411 428,410 L 1163,1116 C 1174,1127 1196,1133 1229,1133 1271,1133 1292,1118 1292,1087 L 1292,965 C 1292,929 1282,901 1262,881 L 442,47 C 390,-6 338,-33 285,-33 Z"/>
  </g>
  <g id="bullet-char-template-9679" transform="scale(0.00048828125,-0.00048828125)">
   <path d="M 813,0 C 632,0 489,54 383,161 276,268 223,411 223,592 223,773 276,916 383,1023 489,1130 632,1184 813,1184 992,1184 1136,1130 1245,1023 1353,916 1407,772 1407,592 1407,412 1353,268 1245,161 1136,54 992,0 813,0 Z"/>
  </g>
  <g id="bullet-char-template-8226" transform="scale(0.00048828125,-0.00048828125)">
   <path d="M 346,457 C 273,457 209,483 155,535 101,586 74,649 74,723 74,796 101,859 155,911 209,963 273,989 346,989 419,989 480,963 531,910 582,859 608,796 608,723 608,648 583,586 532,535 482,483 420,457 346,457 Z"/>
  </g>
  <g id="bullet-char-template-8211" transform="scale(0.00048828125,-0.00048828125)">
   <path d="M -4,459 L 1135,459 1135,606 -4,606 -4,459 Z"/>
  </g>
  <g id="bullet-char-template-61548" transform="scale(0.00048828125,-0.00048828125)">
   <path d="M 173,740 C 173,903 231,1043 346,1159 462,1274 601,1332 765,1332 928,1332 1067,1274 1183,1159 1299,1043 1357,903 1357,740 1357,577 1299,437 1183,322 1067,206 928,148 765,148 601,148 462,206 346,322 231,437 173,577 173,740 Z"/>
  </g>
 </defs>
 <g class="Page">
  <g class="com.sun.star.drawing.PolyPolygonShape">
   <g id="id3">
    <rect class="BoundingBox" stroke="none" fill="none" x="43925" y="43499" width="1662" height="2503"/>
    <path fill="rgb(0,0,255)" stroke="none" d="M 44113,46000 L 45397,46000 45415,45999 45434,45997 45451,45992 45469,45986 45485,45978 45501,45969 45516,45958 45529,45945 45541,45932 45552,45917 45562,45901 45570,45885 45577,45867 45581,45849 45584,45831 45585,45813 45585,43687 45584,43669 45581,43651 45577,43633 45570,43615 45562,43599 45552,43583 45541,43568 45529,43555 45516,43542 45501,43531 45485,43522 45469,43514 45451,43508 45434,43503 45415,43500 45397,43500 44113,43500 44094,43500 44076,43503 44058,43508 44041,43514 44025,43522 44009,43531 43994,43542 43981,43555 43968,43568 43957,43583 43948,43599 43940,43615 43934,43633 43930,43651 43927,43669 43926,43687 43926,45813 43927,45831 43930,45849 43934,45867 43940,45885 43948,45901 43957,45917 43968,45932 43981,45945 43994,45958 44009,45969 44025,45978 44041,45986 44058,45992 44076,45997 44094,45999 44113,46000 Z"/>
    <path fill="none" stroke="rgb(0,0,255)" d="M 44113,46000 L 45397,46000 45415,45999 45434,45997 45451,45992 45469,45986 45485,45978 45501,45969 45516,45958 45529,45945 45541,45932 45552,45917 45562,45901 45570,45885 45577,45867 45581,45849 45584,45831 45585,45813 45585,43687 45584,43669 45581,43651 45577,43633 45570,43615 45562,43599 45552,43583 45541,43568 45529,43555 45516,43542 45501,43531 45485,43522 45469,43514 45451,43508 45434,43503 45415,43500 45397,43500 44113,43500 44094,43500 44076,43503 44058,43508 44041,43514 44025,43522 44009,43531 43994,43542 43981,43555 43968,43568 43957,43583 43948,43599 43940,43615 43934,43633 43930,43651 43927,43669 43926,43687 43926,45813 43927,45831 43930,45849 43934,45867 43940,45885 43948,45901 43957,45917 43968,45932 43981,45945 43994,45958 44009,45969 44025,45978 44041,45986 44058,45992 44076,45997 44094,45999 44113,46000 Z"/>
   </g>
  </g>
  <g class="com.sun.star.drawing.PolyPolygonShape">
   <g id="id4">
    <rect class="BoundingBox" stroke="none" fill="none" x="43987" y="43561" width="1537" height="2379"/>
    <path fill="rgb(255,255,255)" stroke="none" d="M 44113,45938 L 45398,45938 45410,45937 45422,45935 45434,45933 45446,45928 45457,45923 45467,45917 45477,45909 45486,45901 45494,45892 45502,45882 45508,45872 45513,45861 45517,45849 45520,45837 45522,45825 45522,45813 45522,43687 45522,43675 45520,43663 45517,43651 45513,43639 45508,43628 45502,43618 45494,43608 45486,43599 45477,43590 45467,43583 45457,43577 45446,43572 45434,43568 45422,43564 45410,43563 45398,43562 44113,43562 44100,43563 44088,43564 44076,43568 44065,43572 44054,43577 44043,43583 44034,43590 44025,43599 44016,43608 44009,43618 44003,43628 43998,43639 43994,43651 43991,43663 43989,43675 43988,43687 43988,45813 43989,45825 43991,45837 43994,45849 43998,45861 44003,45872 44009,45882 44016,45892 44025,45901 44034,45909 44043,45917 44054,45923 44065,45928 44076,45933 44088,45935 44100,45937 44113,45938 Z"/>
    <path fill="none" stroke="rgb(255,255,255)" d="M 44113,45938 L 45398,45938 45410,45937 45422,45935 45434,45933 45446,45928 45457,45923 45467,45917 45477,45909 45486,45901 45494,45892 45502,45882 45508,45872 45513,45861 45517,45849 45520,45837 45522,45825 45522,45813 45522,43687 45522,43675 45520,43663 45517,43651 45513,43639 45508,43628 45502,43618 45494,43608 45486,43599 45477,43590 45467,43583 45457,43577 45446,43572 45434,43568 45422,43564 45410,43563 45398,43562 44113,43562 44100,43563 44088,43564 44076,43568 44065,43572 44054,43577 44043,43583 44034,43590 44025,43599 44016,43608 44009,43618 44003,43628 43998,43639 43994,43651 43991,43663 43989,43675 43988,43687 43988,45813 43989,45825 43991,45837 43994,45849 43998,45861 44003,45872 44009,45882 44016,45892 44025,45901 44034,45909 44043,45917 44054,45923 44065,45928 44076,45933 44088,45935 44100,45937 44113,45938 Z"/>
   </g>
  </g>
  <g class="com.sun.star.drawing.PolyPolygonShape">
   <g id="id5">
    <rect class="BoundingBox" stroke="none" fill="none" x="44049" y="43624" width="1413" height="2253"/>
    <path fill="rgb(0,0,255)" stroke="none" d="M 44113,45875 L 45398,45875 45410,45874 45422,45871 45433,45865 45442,45857 45450,45848 45456,45837 45459,45825 45460,45813 45460,43687 45459,43675 45456,43663 45450,43652 45442,43643 45433,43635 45422,43629 45410,43626 45398,43625 44113,43625 44100,43626 44089,43629 44078,43635 44069,43643 44061,43652 44055,43663 44052,43675 44050,43687 44050,45813 44052,45825 44055,45837 44061,45848 44069,45857 44078,45865 44089,45871 44100,45874 44113,45875 Z"/>
    <path fill="none" stroke="rgb(0,0,255)" d="M 44113,45875 L 45398,45875 45410,45874 45422,45871 45433,45865 45442,45857 45450,45848 45456,45837 45459,45825 45460,45813 45460,43687 45459,43675 45456,43663 45450,43652 45442,43643 45433,43635 45422,43629 45410,43626 45398,43625 44113,43625 44100,43626 44089,43629 44078,43635 44069,43643 44061,43652 44055,43663 44052,43675 44050,43687 44050,45813 44052,45825 44055,45837 44061,45848 44069,45857 44078,45865 44089,45871 44100,45874 44113,45875 Z"/>
   </g>
  </g>
  <g class="com.sun.star.drawing.PolyPolygonShape">
   <g id="id6">
    <rect class="BoundingBox" stroke="none" fill="none" x="44340" y="44061" width="832" height="1379"/>
    <path fill="rgb(255,255,255)" stroke="none" d="M 44341,44062 L 45170,44062 45170,45438 44341,45438 44341,44062 Z"/>
    <path fill="none" stroke="rgb(255,255,255)" d="M 44341,44062 L 45170,44062 45170,45438 44341,45438 44341,44062 Z"/>
   </g>
  </g>
  <g class="com.sun.star.drawing.PolyPolygonShape">
   <g id="id7">
    <rect class="BoundingBox" stroke="none" fill="none" x="44454" y="44473" width="602" height="889"/>
    <path fill="rgb(0,0,0)" stroke="none" d="M 44455,44511 L 44455,44474 44877,44474 44877,45241 44878,45256 44880,45271 44885,45285 44892,45298 44897,45304 44903,45310 44910,45314 44917,45318 44924,45320 44932,45322 44940,45323 44947,45323 45054,45323 45054,45360 44455,45360 44455,45323 44574,45323 44582,45322 44590,45321 44598,45318 44606,45314 44612,45310 44619,45304 44624,45297 44628,45290 44633,45278 44636,45265 44638,45252 44638,45239 44638,44592 44638,44583 44638,44574 44636,44565 44633,44556 44630,44548 44625,44540 44620,44532 44614,44525 44604,44519 44592,44514 44581,44512 44568,44511 44455,44511 Z"/>
    <path fill="none" stroke="rgb(0,0,0)" d="M 44455,44511 L 44455,44474 44877,44474 44877,45241 44878,45256 44880,45271 44885,45285 44892,45298 44897,45304 44903,45310 44910,45314 44917,45318 44924,45320 44932,45322 44940,45323 44947,45323 45054,45323 45054,45360 44455,45360 44455,45323 44574,45323 44582,45322 44590,45321 44598,45318 44606,45314 44612,45310 44619,45304 44624,45297 44628,45290 44633,45278 44636,45265 44638,45252 44638,45239 44638,44592 44638,44583 44638,44574 44636,44565 44633,44556 44630,44548 44625,44540 44620,44532 44614,44525 44604,44519 44592,44514 44581,44512 44568,44511 44455,44511 Z"/>
   </g>
  </g>
  <g class="com.sun.star.drawing.PolyPolygonShape">
   <g id="id8">
    <rect class="BoundingBox" stroke="none" fill="none" x="44625" y="44141" width="264" height="265"/>
    <path fill="rgb(0,0,0)" stroke="none" d="M 44887,44273 L 44886,44261 44884,44248 44881,44234 44877,44222 44872,44211 44865,44200 44858,44189 44849,44180 44839,44171 44829,44164 44818,44157 44807,44152 44795,44147 44782,44144 44770,44142 44757,44142 44744,44142 44732,44144 44719,44147 44707,44152 44696,44157 44685,44164 44674,44171 44664,44180 44656,44189 44648,44200 44642,44211 44636,44222 44632,44234 44629,44248 44627,44261 44626,44273 44627,44286 44629,44299 44632,44311 44636,44323 44642,44335 44648,44346 44656,44356 44664,44366 44674,44374 44685,44382 44696,44388 44707,44394 44719,44398 44732,44402 44744,44403 44757,44404 44770,44403 44782,44402 44795,44398 44807,44394 44818,44388 44829,44382 44839,44374 44849,44366 44858,44356 44865,44346 44872,44335 44877,44323 44881,44311 44884,44299 44886,44286 44887,44273 Z"/>
    <path fill="none" stroke="rgb(0,0,0)" d="M 44887,44273 L 44886,44261 44884,44248 44881,44234 44877,44222 44872,44211 44865,44200 44858,44189 44849,44180 44839,44171 44829,44164 44818,44157 44807,44152 44795,44147 44782,44144 44770,44142 44757,44142 44744,44142 44732,44144 44719,44147 44707,44152 44696,44157 44685,44164 44674,44171 44664,44180 44656,44189 44648,44200 44642,44211 44636,44222 44632,44234 44629,44248 44627,44261 44626,44273 44627,44286 44629,44299 44632,44311 44636,44323 44642,44335 44648,44346 44656,44356 44664,44366 44674,44374 44685,44382 44696,44388 44707,44394 44719,44398 44732,44402 44744,44403 44757,44404 44770,44403 44782,44402 44795,44398 44807,44394 44818,44388 44829,44382 44839,44374 44849,44366 44858,44356 44865,44346 44872,44335 44877,44323 44881,44311 44884,44299 44886,44286 44887,44273 Z"/>
   </g>
  </g>
  <g class="com.sun.star.drawing.PolyPolygonShape">
   <g id="id9">
    <rect class="BoundingBox" stroke="none" fill="none" x="44625" y="44141" width="264" height="265"/>
    <path fill="rgb(0,0,0)" stroke="none" d="M 44887,44273 L 44886,44261 44884,44248 44881,44234 44877,44222 44872,44211 44865,44200 44858,44189 44849,44180 44839,44171 44829,44164 44818,44157 44807,44152 44795,44147 44782,44144 44770,44142 44757,44142 44744,44142 44732,44144 44719,44147 44707,44152 44696,44157 44685,44164 44674,44171 44664,44180 44656,44189 44648,44200 44642,44211 44636,44222 44632,44234 44629,44248 44627,44261 44626,44273 44627,44286 44629,44299 44632,44311 44636,44323 44642,44335 44648,44346 44656,44356 44664,44366 44674,44374 44685,44382 44696,44388 44707,44394 44719,44398 44732,44402 44744,44403 44757,44404 44770,44403 44782,44402 44795,44398 44807,44394 44818,44388 44829,44382 44839,44374 44849,44366 44858,44356 44865,44346 44872,44335 44877,44323 44881,44311 44884,44299 44886,44286 44887,44273 Z"/>
    <path fill="none" stroke="rgb(0,0,0)" d="M 44887,44273 L 44886,44261 44884,44248 44881,44234 44877,44222 44872,44211 44865,44200 44858,44189 44849,44180 44839,44171 44829,44164 44818,44157 44807,44152 44795,44147 44782,44144 44770,44142 44757,44142 44744,44142 44732,44144 44719,44147 44707,44152 44696,44157 44685,44164 44674,44171 44664,44180 44656,44189 44648,44200 44642,44211 44636,44222 44632,44234 44629,44248 44627,44261 44626,44273 44627,44286 44629,44299 44632,44311 44636,44323 44642,44335 44648,44346 44656,44356 44664,44366 44674,44374 44685,44382 44696,44388 44707,44394 44719,44398 44732,44402 44744,44403 44757,44404 44770,44403 44782,44402 44795,44398 44807,44394 44818,44388 44829,44382 44839,44374 44849,44366 44858,44356 44865,44346 44872,44335 44877,44323 44881,44311 44884,44299 44886,44286 44887,44273 Z"/>
   </g>
  </g>
 </g>
</svg>