<?xml version="1.0" encoding="UTF-8"?>
<!DOCTYPE svg PUBLIC "-//W3C//DTD SVG 1.1//EN" "http://www.w3.org/Graphics/SVG/1.1/DTD/svg11.dtd">
<svg version="1.2" width="20.04mm" height="25.04mm" viewBox="46154 43499 2004 2504" preserveAspectRatio="xMidYMid" fill-rule="evenodd" stroke-width="28.222" stroke-linejoin="round" xmlns="http://www.w3.org/2000/svg" xmlns:ooo="http://xml.openoffice.org/svg/export" xmlns:xlink="http://www.w3.org/1999/xlink" xmlns:presentation="http://sun.com/xmlns/staroffice/presentation" xmlns:smil="http://www.w3.org/2001/SMIL20/" xmlns:anim="urn:oasis:names:tc:opendocument:xmlns:animation:1.0" xml:space="preserve">
 <defs class="EmbeddedBulletChars">
  <g id="bullet-char-template-57356" transform="scale(0.00048828125,-0.00048828125)">
   <path d="M 580,1141 L 1163,571 580,0 -4,571 580,1141 Z"/>
  </g>
  <g id="bullet-char-template-57354" transform="scale(0.00048828125,-0.00048828125)">
   <path d="M 8,1128 L 1137,1128 1137,0 8,0 8,1128 Z"/>
  </g>
  <g id="bullet-char-template-10146" transform="scale(0.00048828125,-0.00048828125)">
   <path d="M 174,0 L 602,739 174,1481 1456,739 174,0 Z M 1358,739 L 309,1346 659,739 1358,739 Z"/>
  </g>
  <g id="bullet-char-template-10132" transform="scale(0.00048828125,-0.00048828125)">
   <path d="M 2015,739 L 1276,0 717,0 1260,543 174,543 174,936 1260,936 717,1481 1274,1481 2015,739 Z"/>
  </g>
  <g id="bullet-char-template-10007" transform="scale(0.00048828125,-0.00048828125)">
   <path d="M 0,-2 C -7,14 -16,27 -25,37 L 356,567 C 262,823 215,952 215,954 215,979 228,992 255,992 264,992 276,990 289,987 310,991 331,999 354,1012 L 381,999 492,748 772,1049 836,1024 860,1049 C 881,1039 901,1025 922,1006 886,937 835,863 770,784 769,783 710,716 594,584 L 774,223 C 774,196 753,168 711,139 L 727,119 C 717,90 699,76 672,76 641,76 570,178 457,381 L 164,-76 C 142,-110 111,-127 72,-127 30,-127 9,-110 8,-76 1,-67 -2,-52 -2,-32 -2,-23 -1,-13 0,-2 Z"/>
  </g>
  <g id="bullet-char-template-10004" transform="scale(0.00048828125,-0.00048828125)">
   <path d="M 285,-33 C 182,-33 111,30 74,156 52,228 41,333 41,471 41,549 55,616 82,672 116,743 169,778 240,778 293,778 328,747 346,684 L 369,508 C 377,444 397,411 428,410 L 1163,1116 C 1174,1127 1196,1133 1229,1133 1271,1133 1292,1118 1292,1087 L 1292,965 C 1292,929 1282,901 1262,881 L 442,47 C 390,-6 338,-33 285,-33 Z"/>
  </g>
  <g id="bullet-char-template-9679" transform="scale(0.00048828125,-0.00048828125)">
   <path d="M 813,0 C 632,0 489,54 383,161 276,268 223,411 223,592 223,773 276,916 383,1023 489,1130 632,1184 813,1184 992,1184 1136,1130 1245,1023 1353,916 1407,772 1407,592 1407,412 1353,268 1245,161 1136,54 992,0 813,0 Z"/>
  </g>
  <g id="bullet-char-template-8226" transform="scale(0.00048828125,-0.00048828125)">
   <path d="M 346,457 C 273,457 209,483 155,535 101,586 74,649 74,723 74,796 101,859 155,911 209,963 273,989 346,989 419,989 480,963 531,910 582,859 608,796 608,723 608,648 583,586 532,535 482,483 420,457 346,457 Z"/>
  </g>
  <g id="bullet-char-template-8211" transform="scale(0.00048828125,-0.00048828125)">
   <path d="M -4,459 L 1135,459 1135,606 -4,606 -4,459 Z"/>
  </g>
  <g id="bullet-char-template-61548" transform="scale(0.00048828125,-0.00048828125)">
   <path d="M 173,740 C 173,903 231,1043 346,1159 462,1274 601,1332 765,1332 928,1332 1067,1274 1183,1159 1299,1043 1357,903 1357,740 1357,577 1299,437 1183,322 1067,206 928,148 765,148 601,148 462,206 346,322 231,437 173,577 173,740 Z"/>
  </g>
 </defs>
 <g class="Page">
  <g class="com.sun.star.drawing.PolyPolygonShape">
   <g id="id3">
    <rect class="BoundingBox" stroke="none" fill="none" x="46154" y="43499" width="2004" height="2504"/>
    <path fill="rgb(255,129,0)" stroke="none" d="M 46220,46001 L 48091,46001 48097,46000 48104,45999 48110,45998 48116,45996 48122,45993 48127,45989 48132,45986 48137,45981 48141,45977 48145,45972 48148,45966 48151,45960 48153,45954 48155,45948 48156,45942 48156,45935 48156,43565 48156,43558 48155,43552 48153,43546 48151,43540 48148,43534 48145,43528 48141,43523 48137,43519 48132,43515 48127,43511 48122,43507 48116,43505 48110,43502 48104,43501 48097,43500 48091,43500 46220,43500 46213,43500 46207,43501 46201,43502 46195,43505 46189,43507 46184,43511 46179,43515 46174,43519 46170,43523 46166,43528 46162,43534 46160,43540 46157,43546 46156,43552 46155,43558 46155,43565 46155,45935 46155,45942 46156,45948 46157,45954 46160,45960 46162,45966 46166,45972 46170,45977 46174,45981 46179,45986 46184,45989 46189,45993 46195,45996 46201,45998 46207,45999 46213,46000 46220,46001 Z"/>
    <path fill="none" stroke="rgb(255,129,0)" d="M 46220,46001 L 48091,46001 48097,46000 48104,45999 48110,45998 48116,45996 48122,45993 48127,45989 48132,45986 48137,45981 48141,45977 48145,45972 48148,45966 48151,45960 48153,45954 48155,45948 48156,45942 48156,45935 48156,43565 48156,43558 48155,43552 48153,43546 48151,43540 48148,43534 48145,43528 48141,43523 48137,43519 48132,43515 48127,43511 48122,43507 48116,43505 48110,43502 48104,43501 48097,43500 48091,43500 46220,43500 46213,43500 46207,43501 46201,43502 46195,43505 46189,43507 46184,43511 46179,43515 46174,43519 46170,43523 46166,43528 46162,43534 46160,43540 46157,43546 46156,43552 46155,43558 46155,43565 46155,45935 46155,45942 46156,45948 46157,45954 46160,45960 46162,45966 46166,45972 46170,45977 46174,45981 46179,45986 46184,45989 46189,45993 46195,45996 46201,45998 46207,45999 46213,46000 46220,46001 Z"/>
   </g>
  </g>
  <g class="com.sun.star.drawing.PolyPolygonShape">
   <g id="id4">
    <rect class="BoundingBox" stroke="none" fill="none" x="46169" y="43514" width="1974" height="2474"/>
    <path fill="rgb(0,0,0)" stroke="none" d="M 46220,45986 L 48091,45986 48096,45985 48101,45984 48105,45983 48110,45982 48115,45980 48119,45977 48123,45974 48126,45971 48130,45967 48133,45963 48135,45959 48137,45955 48139,45950 48140,45945 48141,45940 48141,45935 48141,43565 48141,43560 48140,43555 48139,43550 48137,43545 48135,43541 48133,43537 48130,43533 48126,43529 48123,43526 48119,43523 48115,43521 48110,43518 48105,43517 48101,43516 48096,43515 48091,43515 46220,43515 46215,43515 46210,43516 46205,43517 46201,43518 46196,43521 46192,43523 46188,43526 46184,43529 46181,43533 46178,43537 46176,43541 46174,43545 46172,43550 46171,43555 46170,43560 46170,43565 46170,45935 46170,45940 46171,45945 46172,45950 46174,45955 46176,45959 46178,45963 46181,45967 46184,45971 46188,45974 46192,45977 46196,45980 46201,45982 46205,45983 46210,45984 46215,45985 46220,45986 Z"/>
    <path fill="none" stroke="rgb(0,0,0)" d="M 46220,45986 L 48091,45986 48096,45985 48101,45984 48105,45983 48110,45982 48115,45980 48119,45977 48123,45974 48126,45971 48130,45967 48133,45963 48135,45959 48137,45955 48139,45950 48140,45945 48141,45940 48141,45935 48141,43565 48141,43560 48140,43555 48139,43550 48137,43545 48135,43541 48133,43537 48130,43533 48126,43529 48123,43526 48119,43523 48115,43521 48110,43518 48105,43517 48101,43516 48096,43515 48091,43515 46220,43515 46215,43515 46210,43516 46205,43517 46201,43518 46196,43521 46192,43523 46188,43526 46184,43529 46181,43533 46178,43537 46176,43541 46174,43545 46172,43550 46171,43555 46170,43560 46170,43565 46170,45935 46170,45940 46171,45945 46172,45950 46174,45955 46176,45959 46178,45963 46181,45967 46184,45971 46188,45974 46192,45977 46196,45980 46201,45982 46205,45983 46210,45984 46215,45985 46220,45986 Z"/>
   </g>
  </g>
  <g class="com.sun.star.drawing.PolyPolygonShape">
   <g id="id5">
    <rect class="BoundingBox" stroke="none" fill="none" x="46184" y="45518" width="1944" height="455"/>
    <path fill="rgb(255,129,0)" stroke="none" d="M 46220,45971 L 48091,45971 48094,45970 48098,45970 48101,45969 48104,45968 48107,45966 48111,45965 48113,45962 48116,45960 48118,45958 48120,45955 48122,45952 48123,45949 48125,45946 48125,45942 48126,45939 48126,45935 48126,45554 48126,45551 48125,45548 48125,45544 48123,45541 48122,45538 48120,45535 48118,45532 48116,45530 48113,45527 48111,45525 48107,45524 48104,45522 48101,45521 48098,45520 48094,45520 48091,45519 46220,45519 46216,45520 46213,45520 46210,45521 46206,45522 46203,45524 46200,45525 46197,45527 46195,45530 46193,45532 46191,45535 46189,45538 46187,45541 46186,45544 46185,45548 46185,45551 46185,45554 46185,45935 46185,45939 46185,45942 46186,45946 46187,45949 46189,45952 46191,45955 46193,45958 46195,45960 46197,45962 46200,45965 46203,45966 46206,45968 46210,45969 46213,45970 46216,45970 46220,45970 46220,45971 Z"/>
    <path fill="none" stroke="rgb(255,129,0)" d="M 46220,45971 L 48091,45971 48094,45970 48098,45970 48101,45969 48104,45968 48107,45966 48111,45965 48113,45962 48116,45960 48118,45958 48120,45955 48122,45952 48123,45949 48125,45946 48125,45942 48126,45939 48126,45935 48126,45554 48126,45551 48125,45548 48125,45544 48123,45541 48122,45538 48120,45535 48118,45532 48116,45530 48113,45527 48111,45525 48107,45524 48104,45522 48101,45521 48098,45520 48094,45520 48091,45519 46220,45519 46216,45520 46213,45520 46210,45521 46206,45522 46203,45524 46200,45525 46197,45527 46195,45530 46193,45532 46191,45535 46189,45538 46187,45541 46186,45544 46185,45548 46185,45551 46185,45554 46185,45935 46185,45939 46185,45942 46186,45946 46187,45949 46189,45952 46191,45955 46193,45958 46195,45960 46197,45962 46200,45965 46203,45966 46206,45968 46210,45969 46213,45970 46216,45970 46220,45970 46220,45971 Z"/>
   </g>
  </g>
  <g class="com.sun.star.drawing.PolyPolygonShape">
   <g id="id6">
    <rect class="BoundingBox" stroke="none" fill="none" x="46184" y="43529" width="1944" height="1973"/>
    <path fill="rgb(255,129,0)" stroke="none" d="M 46220,45500 L 48091,45500 48094,45500 48098,45500 48101,45499 48104,45498 48107,45496 48111,45495 48113,45493 48116,45490 48118,45488 48120,45485 48122,45482 48123,45479 48125,45476 48125,45472 48126,45469 48126,45466 48126,43565 48126,43561 48125,43558 48125,43554 48123,43551 48122,43548 48120,43545 48118,43542 48116,43540 48113,43538 48111,43535 48107,43534 48104,43532 48101,43531 48098,43530 48094,43530 48091,43530 46220,43530 46216,43530 46213,43530 46210,43531 46206,43532 46203,43534 46200,43535 46197,43538 46195,43540 46193,43542 46191,43545 46189,43548 46187,43551 46186,43554 46185,43558 46185,43561 46185,43565 46185,45466 46185,45469 46185,45472 46186,45476 46187,45479 46189,45482 46191,45485 46193,45488 46195,45490 46197,45493 46200,45495 46203,45496 46206,45498 46210,45499 46213,45500 46216,45500 46220,45500 Z"/>
    <path fill="none" stroke="rgb(255,129,0)" d="M 46220,45500 L 48091,45500 48094,45500 48098,45500 48101,45499 48104,45498 48107,45496 48111,45495 48113,45493 48116,45490 48118,45488 48120,45485 48122,45482 48123,45479 48125,45476 48125,45472 48126,45469 48126,45466 48126,43565 48126,43561 48125,43558 48125,43554 48123,43551 48122,43548 48120,43545 48118,43542 48116,43540 48113,43538 48111,43535 48107,43534 48104,43532 48101,43531 48098,43530 48094,43530 48091,43530 46220,43530 46216,43530 46213,43530 46210,43531 46206,43532 46203,43534 46200,43535 46197,43538 46195,43540 46193,43542 46191,43545 46189,43548 46187,43551 46186,43554 46185,43558 46185,43561 46185,43565 46185,45466 46185,45469 46185,45472 46186,45476 46187,45479 46189,45482 46191,45485 46193,45488 46195,45490 46197,45493 46200,45495 46203,45496 46206,45498 46210,45499 46213,45500 46216,45500 46220,45500 Z"/>
   </g>
  </g>
  <g class="com.sun.star.drawing.PolyPolygonShape">
   <g id="id7">
    <rect class="BoundingBox" stroke="none" fill="none" x="47024" y="43589" width="844" height="1854"/>
    <path fill="rgb(0,0,0)" stroke="none" d="M 47325,43840 L 47225,43840 47225,44300 47866,44940 47866,45441 47766,45441 47766,44981 47225,44441 47225,45441 47125,45441 47125,43840 47025,43840 47175,43590 47325,43840 Z"/>
    <path fill="none" stroke="rgb(0,0,0)" d="M 47325,43840 L 47225,43840 47225,44300 47866,44940 47866,45441 47766,45441 47766,44981 47225,44441 47225,45441 47125,45441 47125,43840 47025,43840 47175,43590 47325,43840 Z"/>
   </g>
  </g>
  <g class="com.sun.star.drawing.PolyPolygonShape">
   <g id="id8">
    <rect class="BoundingBox" stroke="none" fill="none" x="46414" y="43589" width="304" height="1854"/>
    <path fill="rgb(0,0,0)" stroke="none" d="M 46565,43590 L 46716,43840 46615,43840 46615,45441 46515,45441 46515,43840 46415,43840 46565,43590 Z"/>
    <path fill="none" stroke="rgb(0,0,0)" d="M 46565,43590 L 46716,43840 46615,43840 46615,45441 46515,45441 46515,43840 46415,43840 46565,43590 Z"/>
   </g>
  </g>
  <g class="com.sun.star.drawing.PolyPolygonShape">
   <g id="id9">
    <rect class="BoundingBox" stroke="none" fill="none" x="47524" y="43569" width="564" height="1334"/>
    <path fill="rgb(0,0,0)" stroke="none" d="M 47555,44327 L 47555,44228 48056,44729 48056,44828 47555,44327 Z M 47555,44044 L 47555,43945 48056,44446 48056,44545 47555,44044 Z M 47555,44186 L 47555,44087 48056,44588 48056,44687 47555,44186 Z M 47917,43600 L 48056,43738 48056,43837 47817,43600 47917,43600 Z M 47775,43600 L 48056,43880 48056,43979 47676,43600 47775,43600 Z M 47555,43620 L 47555,43600 47633,43600 48056,44021 48056,44120 47555,43620 Z M 48056,43600 L 47960,43600 48056,43696 48056,43600 Z M 47555,43804 L 48056,44304 48056,44403 47555,43903 47555,43804 Z M 47555,43761 L 47555,43663 48056,44163 48056,44261 47555,43761 Z M 47525,44340 L 48086,44901 48086,43570 47525,43570 47525,44340 Z"/>
    <path fill="none" stroke="rgb(0,0,0)" d="M 47555,44327 L 47555,44228 48056,44729 48056,44828 47555,44327 Z"/>
    <path fill="none" stroke="rgb(0,0,0)" d="M 47555,44044 L 47555,43945 48056,44446 48056,44545 47555,44044 Z"/>
    <path fill="none" stroke="rgb(0,0,0)" d="M 47555,44186 L 47555,44087 48056,44588 48056,44687 47555,44186 Z"/>
    <path fill="none" stroke="rgb(0,0,0)" d="M 47917,43600 L 48056,43738 48056,43837 47817,43600 47917,43600 Z"/>
    <path fill="none" stroke="rgb(0,0,0)" d="M 47775,43600 L 48056,43880 48056,43979 47676,43600 47775,43600 Z"/>
    <path fill="none" stroke="rgb(0,0,0)" d="M 47555,43620 L 47555,43600 47633,43600 48056,44021 48056,44120 47555,43620 Z"/>
    <path fill="none" stroke="rgb(0,0,0)" d="M 48056,43600 L 47960,43600 48056,43696 48056,43600 Z"/>
    <path fill="none" stroke="rgb(0,0,0)" d="M 47555,43804 L 48056,44304 48056,44403 47555,43903 47555,43804 Z"/>
    <path fill="none" stroke="rgb(0,0,0)" d="M 47555,43761 L 47555,43663 48056,44163 48056,44261 47555,43761 Z"/>
    <path fill="none" stroke="rgb(0,0,0)" d="M 47525,44340 L 48086,44901 48086,43570 47525,43570 47525,44340 Z"/>
   </g>
  </g>
  <g class="com.sun.star.drawing.PolyPolygonShape">
   <g id="id10">
    <rect class="BoundingBox" stroke="none" fill="none" x="46418" y="45593" width="89" height="304"/>
    <path fill="rgb(0,0,0)" stroke="none" d="M 46419,45681 L 46449,45681 46449,45895 46505,45895 46505,45594 46449,45594 46419,45651 46419,45681 Z"/>
    <path fill="none" stroke="rgb(0,0,0)" d="M 46419,45681 L 46449,45681 46449,45895 46505,45895 46505,45594 46449,45594 46419,45651 46419,45681 Z"/>
   </g>
  </g>
  <g class="com.sun.star.drawing.PolyPolygonShape">
   <g id="id11">
    <rect class="BoundingBox" stroke="none" fill="none" x="46418" y="45593" width="89" height="304"/>
    <path fill="rgb(0,0,0)" stroke="none" d="M 46419,45681 L 46449,45681 46449,45895 46505,45895 46505,45594 46449,45594 46419,45651 46419,45681 Z"/>
    <path fill="none" stroke="rgb(0,0,0)" d="M 46419,45681 L 46449,45681 46449,45895 46505,45895 46505,45594 46449,45594 46419,45651 46419,45681 Z"/>
   </g>
  </g>
  <g class="com.sun.star.drawing.PolyPolygonShape">
   <g id="id12">
    <rect class="BoundingBox" stroke="none" fill="none" x="46418" y="45593" width="89" height="304"/>
    <path fill="rgb(0,0,0)" stroke="none" d="M 46419,45681 L 46449,45681 46449,45895 46505,45895 46505,45594 46449,45594 46419,45651 46419,45681 Z"/>
    <path fill="none" stroke="rgb(0,0,0)" d="M 46419,45681 L 46449,45681 46449,45895 46505,45895 46505,45594 46449,45594 46419,45651 46419,45681 Z"/>
   </g>
  </g>
  <g class="com.sun.star.drawing.PolyPolygonShape">
   <g id="id13">
    <rect class="BoundingBox" stroke="none" fill="none" x="46610" y="45594" width="208" height="309"/>
    <path fill="rgb(0,0,0)" stroke="none" d="M 46618,45767 L 46671,45767 46673,45764 46675,45761 46678,45757 46680,45755 46683,45752 46687,45750 46690,45748 46694,45746 46697,45745 46701,45744 46705,45743 46709,45743 46713,45743 46717,45743 46720,45743 46724,45744 46728,45745 46732,45747 46735,45749 46739,45751 46742,45753 46745,45755 46748,45758 46750,45761 46752,45764 46754,45768 46756,45771 46757,45775 46759,45779 46759,45783 46760,45787 46760,45791 46760,45806 46760,45810 46759,45814 46758,45818 46757,45822 46755,45826 46753,45830 46751,45834 46748,45837 46745,45840 46742,45843 46739,45845 46735,45848 46731,45849 46727,45851 46723,45852 46719,45853 46714,45853 46710,45853 46706,45853 46702,45852 46697,45851 46693,45849 46690,45848 46686,45846 46682,45843 46679,45840 46676,45837 46674,45834 46671,45830 46669,45826 46668,45822 46666,45818 46611,45818 46613,45826 46616,45833 46619,45841 46622,45848 46626,45854 46631,45861 46636,45867 46641,45873 46647,45878 46654,45883 46660,45887 46667,45891 46674,45894 46682,45896 46689,45898 46697,45900 46705,45901 46713,45901 46721,45900 46729,45900 46736,45898 46744,45896 46751,45893 46759,45890 46766,45886 46772,45882 46778,45877 46784,45871 46790,45866 46796,45860 46800,45853 46804,45846 46807,45839 46810,45832 46813,45824 46814,45817 46816,45809 46816,45801 46816,45793 46815,45785 46814,45778 46812,45770 46810,45762 46807,45755 46803,45748 46799,45741 46794,45735 46788,45729 46783,45723 46777,45718 46771,45713 46764,45709 46757,45705 46750,45702 46742,45700 46735,45698 46727,45696 46719,45695 46711,45695 46703,45695 46696,45697 46688,45698 46680,45700 46673,45703 46673,45646 46795,45646 46795,45595 46618,45595 46618,45767 Z"/>
    <path fill="none" stroke="rgb(0,0,0)" d="M 46618,45767 L 46671,45767 46673,45764 46675,45761 46678,45757 46680,45755 46683,45752 46687,45750 46690,45748 46694,45746 46697,45745 46701,45744 46705,45743 46709,45743 46713,45743 46717,45743 46720,45743 46724,45744 46728,45745 46732,45747 46735,45749 46739,45751 46742,45753 46745,45755 46748,45758 46750,45761 46752,45764 46754,45768 46756,45771 46757,45775 46759,45779 46759,45783 46760,45787 46760,45791 46760,45806 46760,45810 46759,45814 46758,45818 46757,45822 46755,45826 46753,45830 46751,45834 46748,45837 46745,45840 46742,45843 46739,45845 46735,45848 46731,45849 46727,45851 46723,45852 46719,45853 46714,45853 46710,45853 46706,45853 46702,45852 46697,45851 46693,45849 46690,45848 46686,45846 46682,45843 46679,45840 46676,45837 46674,45834 46671,45830 46669,45826 46668,45822 46666,45818 46611,45818 46613,45826 46616,45833 46619,45841 46622,45848 46626,45854 46631,45861 46636,45867 46641,45873 46647,45878 46654,45883 46660,45887 46667,45891 46674,45894 46682,45896 46689,45898 46697,45900 46705,45901 46713,45901 46721,45900 46729,45900 46736,45898 46744,45896 46751,45893 46759,45890 46766,45886 46772,45882 46778,45877 46784,45871 46790,45866 46796,45860 46800,45853 46804,45846 46807,45839 46810,45832 46813,45824 46814,45817 46816,45809 46816,45801 46816,45793 46815,45785 46814,45778 46812,45770 46810,45762 46807,45755 46803,45748 46799,45741 46794,45735 46788,45729 46783,45723 46777,45718 46771,45713 46764,45709 46757,45705 46750,45702 46742,45700 46735,45698 46727,45696 46719,45695 46711,45695 46703,45695 46696,45697 46688,45698 46680,45700 46673,45703 46673,45646 46795,45646 46795,45595 46618,45595 46618,45767 Z"/>
   </g>
  </g>
  <g class="com.sun.star.drawing.PolyPolygonShape">
   <g id="id14">
    <rect class="BoundingBox" stroke="none" fill="none" x="46610" y="45594" width="208" height="309"/>
    <path fill="rgb(0,0,0)" stroke="none" d="M 46618,45767 L 46671,45767 46673,45764 46675,45761 46678,45757 46680,45755 46683,45752 46687,45750 46690,45748 46694,45746 46697,45745 46701,45744 46705,45743 46709,45743 46713,45743 46717,45743 46720,45743 46724,45744 46728,45745 46732,45747 46735,45749 46739,45751 46742,45753 46745,45755 46748,45758 46750,45761 46752,45764 46754,45768 46756,45771 46757,45775 46759,45779 46759,45783 46760,45787 46760,45791 46760,45806 46760,45810 46759,45814 46758,45818 46757,45822 46755,45826 46753,45830 46751,45834 46748,45837 46745,45840 46742,45843 46739,45845 46735,45848 46731,45849 46727,45851 46723,45852 46719,45853 46714,45853 46710,45853 46706,45853 46702,45852 46697,45851 46693,45849 46690,45848 46686,45846 46682,45843 46679,45840 46676,45837 46674,45834 46671,45830 46669,45826 46668,45822 46666,45818 46611,45818 46613,45826 46616,45833 46619,45841 46622,45848 46626,45854 46631,45861 46636,45867 46641,45873 46647,45878 46654,45883 46660,45887 46667,45891 46674,45894 46682,45896 46689,45898 46697,45900 46705,45901 46713,45901 46721,45900 46729,45900 46736,45898 46744,45896 46751,45893 46759,45890 46766,45886 46772,45882 46778,45877 46784,45871 46790,45866 46796,45860 46800,45853 46804,45846 46807,45839 46810,45832 46813,45824 46814,45817 46816,45809 46816,45801 46816,45793 46815,45785 46814,45778 46812,45770 46810,45762 46807,45755 46803,45748 46799,45741 46794,45735 46788,45729 46783,45723 46777,45718 46771,45713 46764,45709 46757,45705 46750,45702 46742,45700 46735,45698 46727,45696 46719,45695 46711,45695 46703,45695 46696,45697 46688,45698 46680,45700 46673,45703 46673,45646 46795,45646 46795,45595 46618,45595 46618,45767 Z"/>
    <path fill="none" stroke="rgb(0,0,0)" d="M 46618,45767 L 46671,45767 46673,45764 46675,45761 46678,45757 46680,45755 46683,45752 46687,45750 46690,45748 46694,45746 46697,45745 46701,45744 46705,45743 46709,45743 46713,45743 46717,45743 46720,45743 46724,45744 46728,45745 46732,45747 46735,45749 46739,45751 46742,45753 46745,45755 46748,45758 46750,45761 46752,45764 46754,45768 46756,45771 46757,45775 46759,45779 46759,45783 46760,45787 46760,45791 46760,45806 46760,45810 46759,45814 46758,45818 46757,45822 46755,45826 46753,45830 46751,45834 46748,45837 46745,45840 46742,45843 46739,45845 46735,45848 46731,45849 46727,45851 46723,45852 46719,45853 46714,45853 46710,45853 46706,45853 46702,45852 46697,45851 46693,45849 46690,45848 46686,45846 46682,45843 46679,45840 46676,45837 46674,45834 46671,45830 46669,45826 46668,45822 46666,45818 46611,45818 46613,45826 46616,45833 46619,45841 46622,45848 46626,45854 46631,45861 46636,45867 46641,45873 46647,45878 46654,45883 46660,45887 46667,45891 46674,45894 46682,45896 46689,45898 46697,45900 46705,45901 46713,45901 46721,45900 46729,45900 46736,45898 46744,45896 46751,45893 46759,45890 46766,45886 46772,45882 46778,45877 46784,45871 46790,45866 46796,45860 46800,45853 46804,45846 46807,45839 46810,45832 46813,45824 46814,45817 46816,45809 46816,45801 46816,45793 46815,45785 46814,45778 46812,45770 46810,45762 46807,45755 46803,45748 46799,45741 46794,45735 46788,45729 46783,45723 46777,45718 46771,45713 46764,45709 46757,45705 46750,45702 46742,45700 46735,45698 46727,45696 46719,45695 46711,45695 46703,45695 46696,45697 46688,45698 46680,45700 46673,45703 46673,45646 46795,45646 46795,45595 46618,45595 46618,45767 Z"/>
   </g>
  </g>
  <g class="com.sun.star.drawing.PolyPolygonShape">
   <g id="id15">
    <rect class="BoundingBox" stroke="none" fill="none" x="46610" y="45594" width="208" height="309"/>
    <path fill="rgb(0,0,0)" stroke="none" d="M 46618,45767 L 46671,45767 46673,45764 46675,45761 46678,45757 46680,45755 46683,45752 46687,45750 46690,45748 46694,45746 46697,45745 46701,45744 46705,45743 46709,45743 46713,45743 46717,45743 46720,45743 46724,45744 46728,45745 46732,45747 46735,45749 46739,45751 46742,45753 46745,45755 46748,45758 46750,45761 46752,45764 46754,45768 46756,45771 46757,45775 46759,45779 46759,45783 46760,45787 46760,45791 46760,45806 46760,45810 46759,45814 46758,45818 46757,45822 46755,45826 46753,45830 46751,45834 46748,45837 46745,45840 46742,45843 46739,45845 46735,45848 46731,45849 46727,45851 46723,45852 46719,45853 46714,45853 46710,45853 46706,45853 46702,45852 46697,45851 46693,45849 46690,45848 46686,45846 46682,45843 46679,45840 46676,45837 46674,45834 46671,45830 46669,45826 46668,45822 46666,45818 46611,45818 46613,45826 46616,45833 46619,45841 46622,45848 46626,45854 46631,45861 46636,45867 46641,45873 46647,45878 46654,45883 46660,45887 46667,45891 46674,45894 46682,45896 46689,45898 46697,45900 46705,45901 46713,45901 46721,45900 46729,45900 46736,45898 46744,45896 46751,45893 46759,45890 46766,45886 46772,45882 46778,45877 46784,45871 46790,45866 46796,45860 46800,45853 46804,45846 46807,45839 46810,45832 46813,45824 46814,45817 46816,45809 46816,45801 46816,45793 46815,45785 46814,45778 46812,45770 46810,45762 46807,45755 46803,45748 46799,45741 46794,45735 46788,45729 46783,45723 46777,45718 46771,45713 46764,45709 46757,45705 46750,45702 46742,45700 46735,45698 46727,45696 46719,45695 46711,45695 46703,45695 46696,45697 46688,45698 46680,45700 46673,45703 46673,45646 46795,45646 46795,45595 46618,45595 46618,45767 Z"/>
    <path fill="none" stroke="rgb(0,0,0)" d="M 46618,45767 L 46671,45767 46673,45764 46675,45761 46678,45757 46680,45755 46683,45752 46687,45750 46690,45748 46694,45746 46697,45745 46701,45744 46705,45743 46709,45743 46713,45743 46717,45743 46720,45743 46724,45744 46728,45745 46732,45747 46735,45749 46739,45751 46742,45753 46745,45755 46748,45758 46750,45761 46752,45764 46754,45768 46756,45771 46757,45775 46759,45779 46759,45783 46760,45787 46760,45791 46760,45806 46760,45810 46759,45814 46758,45818 46757,45822 46755,45826 46753,45830 46751,45834 46748,45837 46745,45840 46742,45843 46739,45845 46735,45848 46731,45849 46727,45851 46723,45852 46719,45853 46714,45853 46710,45853 46706,45853 46702,45852 46697,45851 46693,45849 46690,45848 46686,45846 46682,45843 46679,45840 46676,45837 46674,45834 46671,45830 46669,45826 46668,45822 46666,45818 46611,45818 46613,45826 46616,45833 46619,45841 46622,45848 46626,45854 46631,45861 46636,45867 46641,45873 46647,45878 46654,45883 46660,45887 46667,45891 46674,45894 46682,45896 46689,45898 46697,45900 46705,45901 46713,45901 46721,45900 46729,45900 46736,45898 46744,45896 46751,45893 46759,45890 46766,45886 46772,45882 46778,45877 46784,45871 46790,45866 46796,45860 46800,45853 46804,45846 46807,45839 46810,45832 46813,45824 46814,45817 46816,45809 46816,45801 46816,45793 46815,45785 46814,45778 46812,45770 46810,45762 46807,45755 46803,45748 46799,45741 46794,45735 46788,45729 46783,45723 46777,45718 46771,45713 46764,45709 46757,45705 46750,45702 46742,45700 46735,45698 46727,45696 46719,45695 46711,45695 46703,45695 46696,45697 46688,45698 46680,45700 46673,45703 46673,45646 46795,45646 46795,45595 46618,45595 46618,45767 Z"/>
   </g>
  </g>
  <g class="com.sun.star.drawing.PolyPolygonShape">
   <g id="id16">
    <rect class="BoundingBox" stroke="none" fill="none" x="46909" y="45588" width="209" height="316"/>
    <path fill="rgb(0,0,0)" stroke="none" d="M 46965,45686 L 46965,45804 46965,45808 46966,45813 46967,45818 46968,45822 46970,45826 46973,45830 46975,45834 46979,45837 46982,45841 46986,45843 46990,45846 46994,45848 46999,45849 47003,45851 47008,45851 47013,45851 47017,45851 47022,45851 47026,45849 47031,45848 47035,45846 47039,45843 47043,45841 47046,45837 47051,45834 47053,45830 47056,45826 47058,45822 47059,45818 47060,45813 47061,45808 47061,45804 47061,45686 47061,45682 47060,45677 47059,45672 47058,45668 47056,45664 47053,45660 47051,45656 47046,45653 47043,45649 47039,45647 47035,45644 47031,45642 47026,45641 47022,45639 47017,45639 47013,45638 47008,45639 47003,45639 46999,45641 46994,45642 46990,45644 46986,45647 46982,45649 46979,45653 46975,45656 46973,45660 46970,45664 46968,45668 46967,45672 46966,45677 46965,45682 46965,45686 Z M 46910,45691 L 46910,45799 46910,45804 46910,45809 46911,45814 46912,45819 46913,45824 46914,45828 46916,45833 46917,45838 46919,45843 46922,45847 46924,45851 46927,45856 46930,45860 46933,45864 46936,45868 46940,45871 46943,45875 46947,45878 46951,45881 46955,45884 46960,45887 46964,45889 46968,45892 46973,45894 46978,45895 46983,45897 46988,45898 46992,45900 46997,45900 47003,45901 47007,45901 47013,45902 47018,45901 47023,45901 47028,45900 47033,45900 47037,45898 47042,45897 47047,45895 47053,45894 47058,45892 47062,45889 47066,45887 47071,45884 47075,45881 47079,45878 47083,45875 47086,45871 47090,45868 47093,45864 47096,45860 47099,45856 47102,45851 47104,45847 47107,45843 47109,45838 47110,45833 47112,45828 47113,45824 47114,45819 47115,45814 47116,45809 47116,45804 47116,45799 47116,45691 47116,45686 47116,45681 47115,45676 47114,45671 47113,45666 47112,45661 47110,45657 47109,45652 47107,45647 47104,45643 47102,45638 47099,45634 47096,45630 47093,45626 47090,45622 47086,45619 47083,45615 47079,45612 47075,45609 47071,45606 47066,45603 47062,45601 47058,45598 47053,45596 47047,45594 47042,45593 47037,45592 47033,45590 47028,45590 47023,45589 47018,45589 47013,45589 47007,45589 47003,45589 46997,45590 46992,45590 46988,45592 46983,45593 46978,45594 46973,45596 46968,45598 46964,45601 46960,45603 46955,45606 46951,45609 46947,45612 46943,45615 46940,45619 46936,45622 46933,45626 46930,45630 46927,45634 46924,45638 46922,45643 46919,45647 46917,45652 46916,45657 46914,45661 46913,45666 46912,45671 46911,45676 46910,45681 46910,45686 46910,45691 Z"/>
    <path fill="none" stroke="rgb(0,0,0)" d="M 46965,45686 L 46965,45804 46965,45808 46966,45813 46967,45818 46968,45822 46970,45826 46973,45830 46975,45834 46979,45837 46982,45841 46986,45843 46990,45846 46994,45848 46999,45849 47003,45851 47008,45851 47013,45851 47017,45851 47022,45851 47026,45849 47031,45848 47035,45846 47039,45843 47043,45841 47046,45837 47051,45834 47053,45830 47056,45826 47058,45822 47059,45818 47060,45813 47061,45808 47061,45804 47061,45686 47061,45682 47060,45677 47059,45672 47058,45668 47056,45664 47053,45660 47051,45656 47046,45653 47043,45649 47039,45647 47035,45644 47031,45642 47026,45641 47022,45639 47017,45639 47013,45638 47008,45639 47003,45639 46999,45641 46994,45642 46990,45644 46986,45647 46982,45649 46979,45653 46975,45656 46973,45660 46970,45664 46968,45668 46967,45672 46966,45677 46965,45682 46965,45686 Z"/>
    <path fill="none" stroke="rgb(0,0,0)" d="M 46910,45691 L 46910,45799 46910,45804 46910,45809 46911,45814 46912,45819 46913,45824 46914,45828 46916,45833 46917,45838 46919,45843 46922,45847 46924,45851 46927,45856 46930,45860 46933,45864 46936,45868 46940,45871 46943,45875 46947,45878 46951,45881 46955,45884 46960,45887 46964,45889 46968,45892 46973,45894 46978,45895 46983,45897 46988,45898 46992,45900 46997,45900 47003,45901 47007,45901 47013,45902 47018,45901 47023,45901 47028,45900 47033,45900 47037,45898 47042,45897 47047,45895 47053,45894 47058,45892 47062,45889 47066,45887 47071,45884 47075,45881 47079,45878 47083,45875 47086,45871 47090,45868 47093,45864 47096,45860 47099,45856 47102,45851 47104,45847 47107,45843 47109,45838 47110,45833 47112,45828 47113,45824 47114,45819 47115,45814 47116,45809 47116,45804 47116,45799 47116,45691 47116,45686 47116,45681 47115,45676 47114,45671 47113,45666 47112,45661 47110,45657 47109,45652 47107,45647 47104,45643 47102,45638 47099,45634 47096,45630 47093,45626 47090,45622 47086,45619 47083,45615 47079,45612 47075,45609 47071,45606 47066,45603 47062,45601 47058,45598 47053,45596 47047,45594 47042,45593 47037,45592 47033,45590 47028,45590 47023,45589 47018,45589 47013,45589 47007,45589 47003,45589 46997,45590 46992,45590 46988,45592 46983,45593 46978,45594 46973,45596 46968,45598 46964,45601 46960,45603 46955,45606 46951,45609 46947,45612 46943,45615 46940,45619 46936,45622 46933,45626 46930,45630 46927,45634 46924,45638 46922,45643 46919,45647 46917,45652 46916,45657 46914,45661 46913,45666 46912,45671 46911,45676 46910,45681 46910,45686 46910,45691 Z"/>
   </g>
  </g>
  <g class="com.sun.star.drawing.PolyPolygonShape">
   <g id="id17">
    <rect class="BoundingBox" stroke="none" fill="none" x="46909" y="45588" width="209" height="316"/>
    <path fill="rgb(0,0,0)" stroke="none" d="M 46965,45686 L 46965,45804 46965,45808 46966,45813 46967,45818 46968,45822 46970,45826 46973,45830 46975,45834 46979,45837 46982,45841 46986,45843 46990,45846 46994,45848 46999,45849 47003,45851 47008,45851 47013,45851 47017,45851 47022,45851 47026,45849 47031,45848 47035,45846 47039,45843 47043,45841 47046,45837 47051,45834 47053,45830 47056,45826 47058,45822 47059,45818 47060,45813 47061,45808 47061,45804 47061,45686 47061,45682 47060,45677 47059,45672 47058,45668 47056,45664 47053,45660 47051,45656 47046,45653 47043,45649 47039,45647 47035,45644 47031,45642 47026,45641 47022,45639 47017,45639 47013,45638 47008,45639 47003,45639 46999,45641 46994,45642 46990,45644 46986,45647 46982,45649 46979,45653 46975,45656 46973,45660 46970,45664 46968,45668 46967,45672 46966,45677 46965,45682 46965,45686 Z M 46910,45691 L 46910,45799 46910,45804 46910,45809 46911,45814 46912,45819 46913,45824 46914,45828 46916,45833 46917,45838 46919,45843 46922,45847 46924,45851 46927,45856 46930,45860 46933,45864 46936,45868 46940,45871 46943,45875 46947,45878 46951,45881 46955,45884 46960,45887 46964,45889 46968,45892 46973,45894 46978,45895 46983,45897 46988,45898 46992,45900 46997,45900 47003,45901 47007,45901 47013,45902 47018,45901 47023,45901 47028,45900 47033,45900 47037,45898 47042,45897 47047,45895 47053,45894 47058,45892 47062,45889 47066,45887 47071,45884 47075,45881 47079,45878 47083,45875 47086,45871 47090,45868 47093,45864 47096,45860 47099,45856 47102,45851 47104,45847 47107,45843 47109,45838 47110,45833 47112,45828 47113,45824 47114,45819 47115,45814 47116,45809 47116,45804 47116,45799 47116,45691 47116,45686 47116,45681 47115,45676 47114,45671 47113,45666 47112,45661 47110,45657 47109,45652 47107,45647 47104,45643 47102,45638 47099,45634 47096,45630 47093,45626 47090,45622 47086,45619 47083,45615 47079,45612 47075,45609 47071,45606 47066,45603 47062,45601 47058,45598 47053,45596 47047,45594 47042,45593 47037,45592 47033,45590 47028,45590 47023,45589 47018,45589 47013,45589 47007,45589 47003,45589 46997,45590 46992,45590 46988,45592 46983,45593 46978,45594 46973,45596 46968,45598 46964,45601 46960,45603 46955,45606 46951,45609 46947,45612 46943,45615 46940,45619 46936,45622 46933,45626 46930,45630 46927,45634 46924,45638 46922,45643 46919,45647 46917,45652 46916,45657 46914,45661 46913,45666 46912,45671 46911,45676 46910,45681 46910,45686 46910,45691 Z"/>
    <path fill="none" stroke="rgb(0,0,0)" d="M 46965,45686 L 46965,45804 46965,45808 46966,45813 46967,45818 46968,45822 46970,45826 46973,45830 46975,45834 46979,45837 46982,45841 46986,45843 46990,45846 46994,45848 46999,45849 47003,45851 47008,45851 47013,45851 47017,45851 47022,45851 47026,45849 47031,45848 47035,45846 47039,45843 47043,45841 47046,45837 47051,45834 47053,45830 47056,45826 47058,45822 47059,45818 47060,45813 47061,45808 47061,45804 47061,45686 47061,45682 47060,45677 47059,45672 47058,45668 47056,45664 47053,45660 47051,45656 47046,45653 47043,45649 47039,45647 47035,45644 47031,45642 47026,45641 47022,45639 47017,45639 47013,45638 47008,45639 47003,45639 46999,45641 46994,45642 46990,45644 46986,45647 46982,45649 46979,45653 46975,45656 46973,45660 46970,45664 46968,45668 46967,45672 46966,45677 46965,45682 46965,45686 Z"/>
    <path fill="none" stroke="rgb(0,0,0)" d="M 46910,45691 L 46910,45799 46910,45804 46910,45809 46911,45814 46912,45819 46913,45824 46914,45828 46916,45833 46917,45838 46919,45843 46922,45847 46924,45851 46927,45856 46930,45860 46933,45864 46936,45868 46940,45871 46943,45875 46947,45878 46951,45881 46955,45884 46960,45887 46964,45889 46968,45892 46973,45894 46978,45895 46983,45897 46988,45898 46992,45900 46997,45900 47003,45901 47007,45901 47013,45902 47018,45901 47023,45901 47028,45900 47033,45900 47037,45898 47042,45897 47047,45895 47053,45894 47058,45892 47062,45889 47066,45887 47071,45884 47075,45881 47079,45878 47083,45875 47086,45871 47090,45868 47093,45864 47096,45860 47099,45856 47102,45851 47104,45847 47107,45843 47109,45838 47110,45833 47112,45828 47113,45824 47114,45819 47115,45814 47116,45809 47116,45804 47116,45799 47116,45691 47116,45686 47116,45681 47115,45676 47114,45671 47113,45666 47112,45661 47110,45657 47109,45652 47107,45647 47104,45643 47102,45638 47099,45634 47096,45630 47093,45626 47090,45622 47086,45619 47083,45615 47079,45612 47075,45609 47071,45606 47066,45603 47062,45601 47058,45598 47053,45596 47047,45594 47042,45593 47037,45592 47033,45590 47028,45590 47023,45589 47018,45589 47013,45589 47007,45589 47003,45589 46997,45590 46992,45590 46988,45592 46983,45593 46978,45594 46973,45596 46968,45598 46964,45601 46960,45603 46955,45606 46951,45609 46947,45612 46943,45615 46940,45619 46936,45622 46933,45626 46930,45630 46927,45634 46924,45638 46922,45643 46919,45647 46917,45652 46916,45657 46914,45661 46913,45666 46912,45671 46911,45676 46910,45681 46910,45686 46910,45691 Z"/>
   </g>
  </g>
  <g class="com.sun.star.drawing.PolyPolygonShape">
   <g id="id18">
    <rect class="BoundingBox" stroke="none" fill="none" x="46909" y="45588" width="209" height="316"/>
    <path fill="rgb(0,0,0)" stroke="none" d="M 46965,45686 L 46965,45804 46965,45808 46966,45813 46967,45818 46968,45822 46970,45826 46973,45830 46975,45834 46979,45837 46982,45841 46986,45843 46990,45846 46994,45848 46999,45849 47003,45851 47008,45851 47013,45851 47017,45851 47022,45851 47026,45849 47031,45848 47035,45846 47039,45843 47043,45841 47046,45837 47051,45834 47053,45830 47056,45826 47058,45822 47059,45818 47060,45813 47061,45808 47061,45804 47061,45686 47061,45682 47060,45677 47059,45672 47058,45668 47056,45664 47053,45660 47051,45656 47046,45653 47043,45649 47039,45647 47035,45644 47031,45642 47026,45641 47022,45639 47017,45639 47013,45638 47008,45639 47003,45639 46999,45641 46994,45642 46990,45644 46986,45647 46982,45649 46979,45653 46975,45656 46973,45660 46970,45664 46968,45668 46967,45672 46966,45677 46965,45682 46965,45686 Z M 46910,45691 L 46910,45799 46910,45804 46910,45809 46911,45814 46912,45819 46913,45824 46914,45828 46916,45833 46917,45838 46919,45843 46922,45847 46924,45851 46927,45856 46930,45860 46933,45864 46936,45868 46940,45871 46943,45875 46947,45878 46951,45881 46955,45884 46960,45887 46964,45889 46968,45892 46973,45894 46978,45895 46983,45897 46988,45898 46992,45900 46997,45900 47003,45901 47007,45901 47013,45902 47018,45901 47023,45901 47028,45900 47033,45900 47037,45898 47042,45897 47047,45895 47053,45894 47058,45892 47062,45889 47066,45887 47071,45884 47075,45881 47079,45878 47083,45875 47086,45871 47090,45868 47093,45864 47096,45860 47099,45856 47102,45851 47104,45847 47107,45843 47109,45838 47110,45833 47112,45828 47113,45824 47114,45819 47115,45814 47116,45809 47116,45804 47116,45799 47116,45691 47116,45686 47116,45681 47115,45676 47114,45671 47113,45666 47112,45661 47110,45657 47109,45652 47107,45647 47104,45643 47102,45638 47099,45634 47096,45630 47093,45626 47090,45622 47086,45619 47083,45615 47079,45612 47075,45609 47071,45606 47066,45603 47062,45601 47058,45598 47053,45596 47047,45594 47042,45593 47037,45592 47033,45590 47028,45590 47023,45589 47018,45589 47013,45589 47007,45589 47003,45589 46997,45590 46992,45590 46988,45592 46983,45593 46978,45594 46973,45596 46968,45598 46964,45601 46960,45603 46955,45606 46951,45609 46947,45612 46943,45615 46940,45619 46936,45622 46933,45626 46930,45630 46927,45634 46924,45638 46922,45643 46919,45647 46917,45652 46916,45657 46914,45661 46913,45666 46912,45671 46911,45676 46910,45681 46910,45686 46910,45691 Z"/>
    <path fill="none" stroke="rgb(0,0,0)" d="M 46965,45686 L 46965,45804 46965,45808 46966,45813 46967,45818 46968,45822 46970,45826 46973,45830 46975,45834 46979,45837 46982,45841 46986,45843 46990,45846 46994,45848 46999,45849 47003,45851 47008,45851 47013,45851 47017,45851 47022,45851 47026,45849 47031,45848 47035,45846 47039,45843 47043,45841 47046,45837 47051,45834 47053,45830 47056,45826 47058,45822 47059,45818 47060,45813 47061,45808 47061,45804 47061,45686 47061,45682 47060,45677 47059,45672 47058,45668 47056,45664 47053,45660 47051,45656 47046,45653 47043,45649 47039,45647 47035,45644 47031,45642 47026,45641 47022,45639 47017,45639 47013,45638 47008,45639 47003,45639 46999,45641 46994,45642 46990,45644 46986,45647 46982,45649 46979,45653 46975,45656 46973,45660 46970,45664 46968,45668 46967,45672 46966,45677 46965,45682 46965,45686 Z"/>
    <path fill="none" stroke="rgb(0,0,0)" d="M 46910,45691 L 46910,45799 46910,45804 46910,45809 46911,45814 46912,45819 46913,45824 46914,45828 46916,45833 46917,45838 46919,45843 46922,45847 46924,45851 46927,45856 46930,45860 46933,45864 46936,45868 46940,45871 46943,45875 46947,45878 46951,45881 46955,45884 46960,45887 46964,45889 46968,45892 46973,45894 46978,45895 46983,45897 46988,45898 46992,45900 46997,45900 47003,45901 47007,45901 47013,45902 47018,45901 47023,45901 47028,45900 47033,45900 47037,45898 47042,45897 47047,45895 47053,45894 47058,45892 47062,45889 47066,45887 47071,45884 47075,45881 47079,45878 47083,45875 47086,45871 47090,45868 47093,45864 47096,45860 47099,45856 47102,45851 47104,45847 47107,45843 47109,45838 47110,45833 47112,45828 47113,45824 47114,45819 47115,45814 47116,45809 47116,45804 47116,45799 47116,45691 47116,45686 47116,45681 47115,45676 47114,45671 47113,45666 47112,45661 47110,45657 47109,45652 47107,45647 47104,45643 47102,45638 47099,45634 47096,45630 47093,45626 47090,45622 47086,45619 47083,45615 47079,45612 47075,45609 47071,45606 47066,45603 47062,45601 47058,45598 47053,45596 47047,45594 47042,45593 47037,45592 47033,45590 47028,45590 47023,45589 47018,45589 47013,45589 47007,45589 47003,45589 46997,45590 46992,45590 46988,45592 46983,45593 46978,45594 46973,45596 46968,45598 46964,45601 46960,45603 46955,45606 46951,45609 46947,45612 46943,45615 46940,45619 46936,45622 46933,45626 46930,45630 46927,45634 46924,45638 46922,45643 46919,45647 46917,45652 46916,45657 46914,45661 46913,45666 46912,45671 46911,45676 46910,45681 46910,45686 46910,45691 Z"/>
   </g>
  </g>
  <g class="com.sun.star.drawing.PolyPolygonShape">
   <g id="id19">
    <rect class="BoundingBox" stroke="none" fill="none" x="47219" y="45588" width="210" height="316"/>
    <path fill="rgb(0,0,0)" stroke="none" d="M 47276,45686 L 47276,45804 47277,45808 47277,45813 47279,45818 47280,45822 47282,45826 47284,45830 47287,45834 47290,45837 47294,45841 47298,45843 47302,45846 47306,45848 47310,45849 47315,45851 47320,45851 47324,45851 47329,45851 47334,45851 47338,45849 47343,45848 47347,45846 47351,45843 47355,45841 47358,45837 47361,45834 47364,45830 47366,45826 47368,45822 47370,45818 47371,45813 47372,45808 47372,45804 47372,45686 47372,45682 47371,45677 47370,45672 47368,45668 47366,45664 47364,45660 47361,45656 47358,45653 47355,45649 47351,45647 47347,45644 47343,45642 47338,45641 47334,45639 47329,45639 47324,45638 47320,45639 47315,45639 47310,45641 47306,45642 47302,45644 47298,45647 47294,45649 47290,45653 47287,45656 47284,45660 47282,45664 47280,45668 47279,45672 47277,45677 47277,45682 47276,45686 Z M 47220,45691 L 47220,45799 47221,45804 47221,45809 47221,45814 47222,45819 47223,45824 47225,45828 47226,45833 47228,45838 47230,45843 47233,45847 47235,45851 47238,45856 47241,45860 47244,45864 47247,45868 47250,45871 47255,45875 47259,45878 47263,45881 47267,45884 47271,45887 47276,45889 47280,45892 47285,45894 47290,45895 47294,45897 47299,45898 47304,45900 47309,45900 47314,45901 47319,45901 47324,45902 47329,45901 47334,45901 47339,45900 47344,45900 47349,45898 47354,45897 47359,45895 47364,45894 47368,45892 47373,45889 47377,45887 47381,45884 47386,45881 47390,45878 47393,45875 47397,45871 47401,45868 47404,45864 47407,45860 47410,45856 47413,45851 47415,45847 47417,45843 47419,45838 47421,45833 47423,45828 47424,45824 47425,45819 47426,45814 47427,45809 47427,45804 47427,45799 47427,45691 47427,45686 47427,45681 47426,45676 47425,45671 47424,45666 47423,45661 47421,45657 47419,45652 47417,45647 47415,45643 47413,45638 47410,45634 47407,45630 47404,45626 47401,45622 47397,45619 47393,45615 47390,45612 47386,45609 47381,45606 47377,45603 47373,45601 47368,45598 47364,45596 47359,45594 47354,45593 47349,45592 47344,45590 47339,45590 47334,45589 47329,45589 47324,45589 47319,45589 47314,45589 47309,45590 47304,45590 47299,45592 47294,45593 47290,45594 47285,45596 47280,45598 47276,45601 47271,45603 47267,45606 47263,45609 47259,45612 47255,45615 47250,45619 47247,45622 47244,45626 47241,45630 47238,45634 47235,45638 47233,45643 47230,45647 47228,45652 47226,45657 47225,45661 47223,45666 47222,45671 47221,45676 47221,45681 47221,45686 47220,45691 Z"/>
    <path fill="none" stroke="rgb(0,0,0)" d="M 47276,45686 L 47276,45804 47277,45808 47277,45813 47279,45818 47280,45822 47282,45826 47284,45830 47287,45834 47290,45837 47294,45841 47298,45843 47302,45846 47306,45848 47310,45849 47315,45851 47320,45851 47324,45851 47329,45851 47334,45851 47338,45849 47343,45848 47347,45846 47351,45843 47355,45841 47358,45837 47361,45834 47364,45830 47366,45826 47368,45822 47370,45818 47371,45813 47372,45808 47372,45804 47372,45686 47372,45682 47371,45677 47370,45672 47368,45668 47366,45664 47364,45660 47361,45656 47358,45653 47355,45649 47351,45647 47347,45644 47343,45642 47338,45641 47334,45639 47329,45639 47324,45638 47320,45639 47315,45639 47310,45641 47306,45642 47302,45644 47298,45647 47294,45649 47290,45653 47287,45656 47284,45660 47282,45664 47280,45668 47279,45672 47277,45677 47277,45682 47276,45686 Z"/>
    <path fill="none" stroke="rgb(0,0,0)" d="M 47220,45691 L 47220,45799 47221,45804 47221,45809 47221,45814 47222,45819 47223,45824 47225,45828 47226,45833 47228,45838 47230,45843 47233,45847 47235,45851 47238,45856 47241,45860 47244,45864 47247,45868 47250,45871 47255,45875 47259,45878 47263,45881 47267,45884 47271,45887 47276,45889 47280,45892 47285,45894 47290,45895 47294,45897 47299,45898 47304,45900 47309,45900 47314,45901 47319,45901 47324,45902 47329,45901 47334,45901 47339,45900 47344,45900 47349,45898 47354,45897 47359,45895 47364,45894 47368,45892 47373,45889 47377,45887 47381,45884 47386,45881 47390,45878 47393,45875 47397,45871 47401,45868 47404,45864 47407,45860 47410,45856 47413,45851 47415,45847 47417,45843 47419,45838 47421,45833 47423,45828 47424,45824 47425,45819 47426,45814 47427,45809 47427,45804 47427,45799 47427,45691 47427,45686 47427,45681 47426,45676 47425,45671 47424,45666 47423,45661 47421,45657 47419,45652 47417,45647 47415,45643 47413,45638 47410,45634 47407,45630 47404,45626 47401,45622 47397,45619 47393,45615 47390,45612 47386,45609 47381,45606 47377,45603 47373,45601 47368,45598 47364,45596 47359,45594 47354,45593 47349,45592 47344,45590 47339,45590 47334,45589 47329,45589 47324,45589 47319,45589 47314,45589 47309,45590 47304,45590 47299,45592 47294,45593 47290,45594 47285,45596 47280,45598 47276,45601 47271,45603 47267,45606 47263,45609 47259,45612 47255,45615 47250,45619 47247,45622 47244,45626 47241,45630 47238,45634 47235,45638 47233,45643 47230,45647 47228,45652 47226,45657 47225,45661 47223,45666 47222,45671 47221,45676 47221,45681 47221,45686 47220,45691 Z"/>
   </g>
  </g>
  <g class="com.sun.star.drawing.PolyPolygonShape">
   <g id="id20">
    <rect class="BoundingBox" stroke="none" fill="none" x="47219" y="45588" width="210" height="316"/>
    <path fill="rgb(0,0,0)" stroke="none" d="M 47276,45686 L 47276,45804 47277,45808 47277,45813 47279,45818 47280,45822 47282,45826 47284,45830 47287,45834 47290,45837 47294,45841 47298,45843 47302,45846 47306,45848 47310,45849 47315,45851 47320,45851 47324,45851 47329,45851 47334,45851 47338,45849 47343,45848 47347,45846 47351,45843 47355,45841 47358,45837 47361,45834 47364,45830 47366,45826 47368,45822 47370,45818 47371,45813 47372,45808 47372,45804 47372,45686 47372,45682 47371,45677 47370,45672 47368,45668 47366,45664 47364,45660 47361,45656 47358,45653 47355,45649 47351,45647 47347,45644 47343,45642 47338,45641 47334,45639 47329,45639 47324,45638 47320,45639 47315,45639 47310,45641 47306,45642 47302,45644 47298,45647 47294,45649 47290,45653 47287,45656 47284,45660 47282,45664 47280,45668 47279,45672 47277,45677 47277,45682 47276,45686 Z M 47220,45691 L 47220,45799 47221,45804 47221,45809 47221,45814 47222,45819 47223,45824 47225,45828 47226,45833 47228,45838 47230,45843 47233,45847 47235,45851 47238,45856 47241,45860 47244,45864 47247,45868 47250,45871 47255,45875 47259,45878 47263,45881 47267,45884 47271,45887 47276,45889 47280,45892 47285,45894 47290,45895 47294,45897 47299,45898 47304,45900 47309,45900 47314,45901 47319,45901 47324,45902 47329,45901 47334,45901 47339,45900 47344,45900 47349,45898 47354,45897 47359,45895 47364,45894 47368,45892 47373,45889 47377,45887 47381,45884 47386,45881 47390,45878 47393,45875 47397,45871 47401,45868 47404,45864 47407,45860 47410,45856 47413,45851 47415,45847 47417,45843 47419,45838 47421,45833 47423,45828 47424,45824 47425,45819 47426,45814 47427,45809 47427,45804 47427,45799 47427,45691 47427,45686 47427,45681 47426,45676 47425,45671 47424,45666 47423,45661 47421,45657 47419,45652 47417,45647 47415,45643 47413,45638 47410,45634 47407,45630 47404,45626 47401,45622 47397,45619 47393,45615 47390,45612 47386,45609 47381,45606 47377,45603 47373,45601 47368,45598 47364,45596 47359,45594 47354,45593 47349,45592 47344,45590 47339,45590 47334,45589 47329,45589 47324,45589 47319,45589 47314,45589 47309,45590 47304,45590 47299,45592 47294,45593 47290,45594 47285,45596 47280,45598 47276,45601 47271,45603 47267,45606 47263,45609 47259,45612 47255,45615 47250,45619 47247,45622 47244,45626 47241,45630 47238,45634 47235,45638 47233,45643 47230,45647 47228,45652 47226,45657 47225,45661 47223,45666 47222,45671 47221,45676 47221,45681 47221,45686 47220,45691 Z"/>
    <path fill="none" stroke="rgb(0,0,0)" d="M 47276,45686 L 47276,45804 47277,45808 47277,45813 47279,45818 47280,45822 47282,45826 47284,45830 47287,45834 47290,45837 47294,45841 47298,45843 47302,45846 47306,45848 47310,45849 47315,45851 47320,45851 47324,45851 47329,45851 47334,45851 47338,45849 47343,45848 47347,45846 47351,45843 47355,45841 47358,45837 47361,45834 47364,45830 47366,45826 47368,45822 47370,45818 47371,45813 47372,45808 47372,45804 47372,45686 47372,45682 47371,45677 47370,45672 47368,45668 47366,45664 47364,45660 47361,45656 47358,45653 47355,45649 47351,45647 47347,45644 47343,45642 47338,45641 47334,45639 47329,45639 47324,45638 47320,45639 47315,45639 47310,45641 47306,45642 47302,45644 47298,45647 47294,45649 47290,45653 47287,45656 47284,45660 47282,45664 47280,45668 47279,45672 47277,45677 47277,45682 47276,45686 Z"/>
    <path fill="none" stroke="rgb(0,0,0)" d="M 47220,45691 L 47220,45799 47221,45804 47221,45809 47221,45814 47222,45819 47223,45824 47225,45828 47226,45833 47228,45838 47230,45843 47233,45847 47235,45851 47238,45856 47241,45860 47244,45864 47247,45868 47250,45871 47255,45875 47259,45878 47263,45881 47267,45884 47271,45887 47276,45889 47280,45892 47285,45894 47290,45895 47294,45897 47299,45898 47304,45900 47309,45900 47314,45901 47319,45901 47324,45902 47329,45901 47334,45901 47339,45900 47344,45900 47349,45898 47354,45897 47359,45895 47364,45894 47368,45892 47373,45889 47377,45887 47381,45884 47386,45881 47390,45878 47393,45875 47397,45871 47401,45868 47404,45864 47407,45860 47410,45856 47413,45851 47415,45847 47417,45843 47419,45838 47421,45833 47423,45828 47424,45824 47425,45819 47426,45814 47427,45809 47427,45804 47427,45799 47427,45691 47427,45686 47427,45681 47426,45676 47425,45671 47424,45666 47423,45661 47421,45657 47419,45652 47417,45647 47415,45643 47413,45638 47410,45634 47407,45630 47404,45626 47401,45622 47397,45619 47393,45615 47390,45612 47386,45609 47381,45606 47377,45603 47373,45601 47368,45598 47364,45596 47359,45594 47354,45593 47349,45592 47344,45590 47339,45590 47334,45589 47329,45589 47324,45589 47319,45589 47314,45589 47309,45590 47304,45590 47299,45592 47294,45593 47290,45594 47285,45596 47280,45598 47276,45601 47271,45603 47267,45606 47263,45609 47259,45612 47255,45615 47250,45619 47247,45622 47244,45626 47241,45630 47238,45634 47235,45638 47233,45643 47230,45647 47228,45652 47226,45657 47225,45661 47223,45666 47222,45671 47221,45676 47221,45681 47221,45686 47220,45691 Z"/>
   </g>
  </g>
  <g class="com.sun.star.drawing.PolyPolygonShape">
   <g id="id21">
    <rect class="BoundingBox" stroke="none" fill="none" x="47219" y="45588" width="210" height="316"/>
    <path fill="rgb(0,0,0)" stroke="none" d="M 47276,45686 L 47276,45804 47277,45808 47277,45813 47279,45818 47280,45822 47282,45826 47284,45830 47287,45834 47290,45837 47294,45841 47298,45843 47302,45846 47306,45848 47310,45849 47315,45851 47320,45851 47324,45851 47329,45851 47334,45851 47338,45849 47343,45848 47347,45846 47351,45843 47355,45841 47358,45837 47361,45834 47364,45830 47366,45826 47368,45822 47370,45818 47371,45813 47372,45808 47372,45804 47372,45686 47372,45682 47371,45677 47370,45672 47368,45668 47366,45664 47364,45660 47361,45656 47358,45653 47355,45649 47351,45647 47347,45644 47343,45642 47338,45641 47334,45639 47329,45639 47324,45638 47320,45639 47315,45639 47310,45641 47306,45642 47302,45644 47298,45647 47294,45649 47290,45653 47287,45656 47284,45660 47282,45664 47280,45668 47279,45672 47277,45677 47277,45682 47276,45686 Z M 47220,45691 L 47220,45799 47221,45804 47221,45809 47221,45814 47222,45819 47223,45824 47225,45828 47226,45833 47228,45838 47230,45843 47233,45847 47235,45851 47238,45856 47241,45860 47244,45864 47247,45868 47250,45871 47255,45875 47259,45878 47263,45881 47267,45884 47271,45887 47276,45889 47280,45892 47285,45894 47290,45895 47294,45897 47299,45898 47304,45900 47309,45900 47314,45901 47319,45901 47324,45902 47329,45901 47334,45901 47339,45900 47344,45900 47349,45898 47354,45897 47359,45895 47364,45894 47368,45892 47373,45889 47377,45887 47381,45884 47386,45881 47390,45878 47393,45875 47397,45871 47401,45868 47404,45864 47407,45860 47410,45856 47413,45851 47415,45847 47417,45843 47419,45838 47421,45833 47423,45828 47424,45824 47425,45819 47426,45814 47427,45809 47427,45804 47427,45799 47427,45691 47427,45686 47427,45681 47426,45676 47425,45671 47424,45666 47423,45661 47421,45657 47419,45652 47417,45647 47415,45643 47413,45638 47410,45634 47407,45630 47404,45626 47401,45622 47397,45619 47393,45615 47390,45612 47386,45609 47381,45606 47377,45603 47373,45601 47368,45598 47364,45596 47359,45594 47354,45593 47349,45592 47344,45590 47339,45590 47334,45589 47329,45589 47324,45589 47319,45589 47314,45589 47309,45590 47304,45590 47299,45592 47294,45593 47290,45594 47285,45596 47280,45598 47276,45601 47271,45603 47267,45606 47263,45609 47259,45612 47255,45615 47250,45619 47247,45622 47244,45626 47241,45630 47238,45634 47235,45638 47233,45643 47230,45647 47228,45652 47226,45657 47225,45661 47223,45666 47222,45671 47221,45676 47221,45681 47221,45686 47220,45691 Z"/>
    <path fill="none" stroke="rgb(0,0,0)" d="M 47276,45686 L 47276,45804 47277,45808 47277,45813 47279,45818 47280,45822 47282,45826 47284,45830 47287,45834 47290,45837 47294,45841 47298,45843 47302,45846 47306,45848 47310,45849 47315,45851 47320,45851 47324,45851 47329,45851 47334,45851 47338,45849 47343,45848 47347,45846 47351,45843 47355,45841 47358,45837 47361,45834 47364,45830 47366,45826 47368,45822 47370,45818 47371,45813 47372,45808 47372,45804 47372,45686 47372,45682 47371,45677 47370,45672 47368,45668 47366,45664 47364,45660 47361,45656 47358,45653 47355,45649 47351,45647 47347,45644 47343,45642 47338,45641 47334,45639 47329,45639 47324,45638 47320,45639 47315,45639 47310,45641 47306,45642 47302,45644 47298,45647 47294,45649 47290,45653 47287,45656 47284,45660 47282,45664 47280,45668 47279,45672 47277,45677 47277,45682 47276,45686 Z"/>
    <path fill="none" stroke="rgb(0,0,0)" d="M 47220,45691 L 47220,45799 47221,45804 47221,45809 47221,45814 47222,45819 47223,45824 47225,45828 47226,45833 47228,45838 47230,45843 47233,45847 47235,45851 47238,45856 47241,45860 47244,45864 47247,45868 47250,45871 47255,45875 47259,45878 47263,45881 47267,45884 47271,45887 47276,45889 47280,45892 47285,45894 47290,45895 47294,45897 47299,45898 47304,45900 47309,45900 47314,45901 47319,45901 47324,45902 47329,45901 47334,45901 47339,45900 47344,45900 47349,45898 47354,45897 47359,45895 47364,45894 47368,45892 47373,45889 47377,45887 47381,45884 47386,45881 47390,45878 47393,45875 47397,45871 47401,45868 47404,45864 47407,45860 47410,45856 47413,45851 47415,45847 47417,45843 47419,45838 47421,45833 47423,45828 47424,45824 47425,45819 47426,45814 47427,45809 47427,45804 47427,45799 47427,45691 47427,45686 47427,45681 47426,45676 47425,45671 47424,45666 47423,45661 47421,45657 47419,45652 47417,45647 47415,45643 47413,45638 47410,45634 47407,45630 47404,45626 47401,45622 47397,45619 47393,45615 47390,45612 47386,45609 47381,45606 47377,45603 47373,45601 47368,45598 47364,45596 47359,45594 47354,45593 47349,45592 47344,45590 47339,45590 47334,45589 47329,45589 47324,45589 47319,45589 47314,45589 47309,45590 47304,45590 47299,45592 47294,45593 47290,45594 47285,45596 47280,45598 47276,45601 47271,45603 47267,45606 47263,45609 47259,45612 47255,45615 47250,45619 47247,45622 47244,45626 47241,45630 47238,45634 47235,45638 47233,45643 47230,45647 47228,45652 47226,45657 47225,45661 47223,45666 47222,45671 47221,45676 47221,45681 47221,45686 47220,45691 Z"/>
   </g>
  </g>
  <g class="com.sun.star.drawing.PolyPolygonShape">
   <g id="id22">
    <rect class="BoundingBox" stroke="none" fill="none" x="47597" y="45673" width="297" height="224"/>
    <path fill="rgb(0,0,0)" stroke="none" d="M 47598,45895 L 47649,45895 47649,45753 47649,45749 47649,45746 47650,45742 47651,45739 47653,45736 47655,45733 47657,45730 47659,45728 47662,45725 47664,45723 47667,45721 47671,45720 47674,45719 47677,45718 47681,45717 47684,45717 47688,45717 47691,45718 47695,45719 47698,45720 47701,45721 47704,45723 47707,45725 47710,45728 47712,45730 47714,45733 47716,45736 47717,45739 47719,45742 47719,45746 47720,45749 47720,45753 47720,45895 47770,45895 47770,45753 47770,45749 47771,45746 47772,45742 47773,45739 47774,45736 47776,45733 47778,45730 47781,45728 47783,45725 47786,45723 47789,45721 47792,45720 47795,45719 47799,45718 47802,45717 47806,45717 47809,45717 47813,45718 47816,45719 47820,45720 47823,45721 47826,45723 47828,45725 47831,45728 47833,45730 47836,45733 47837,45736 47839,45739 47840,45742 47841,45746 47841,45749 47841,45753 47841,45895 47892,45895 47892,45745 47891,45739 47890,45733 47889,45728 47888,45722 47886,45717 47883,45712 47880,45707 47877,45702 47873,45698 47869,45693 47865,45690 47860,45686 47856,45683 47850,45681 47845,45678 47840,45677 47834,45675 47828,45675 47823,45674 47817,45674 47811,45675 47805,45676 47800,45677 47794,45679 47789,45682 47784,45685 47780,45688 47775,45691 47771,45695 47767,45700 47763,45704 47760,45709 47758,45705 47756,45702 47753,45699 47750,45696 47748,45693 47745,45690 47741,45688 47738,45686 47734,45683 47731,45682 47727,45680 47723,45678 47719,45677 47716,45676 47712,45675 47708,45675 47704,45674 47699,45674 47696,45674 47691,45675 47687,45675 47683,45676 47679,45677 47676,45678 47672,45680 47668,45682 47664,45683 47661,45686 47658,45688 47655,45690 47652,45693 47649,45696 47649,45680 47598,45680 47598,45895 Z"/>
    <path fill="none" stroke="rgb(0,0,0)" d="M 47598,45895 L 47649,45895 47649,45753 47649,45749 47649,45746 47650,45742 47651,45739 47653,45736 47655,45733 47657,45730 47659,45728 47662,45725 47664,45723 47667,45721 47671,45720 47674,45719 47677,45718 47681,45717 47684,45717 47688,45717 47691,45718 47695,45719 47698,45720 47701,45721 47704,45723 47707,45725 47710,45728 47712,45730 47714,45733 47716,45736 47717,45739 47719,45742 47719,45746 47720,45749 47720,45753 47720,45895 47770,45895 47770,45753 47770,45749 47771,45746 47772,45742 47773,45739 47774,45736 47776,45733 47778,45730 47781,45728 47783,45725 47786,45723 47789,45721 47792,45720 47795,45719 47799,45718 47802,45717 47806,45717 47809,45717 47813,45718 47816,45719 47820,45720 47823,45721 47826,45723 47828,45725 47831,45728 47833,45730 47836,45733 47837,45736 47839,45739 47840,45742 47841,45746 47841,45749 47841,45753 47841,45895 47892,45895 47892,45745 47891,45739 47890,45733 47889,45728 47888,45722 47886,45717 47883,45712 47880,45707 47877,45702 47873,45698 47869,45693 47865,45690 47860,45686 47856,45683 47850,45681 47845,45678 47840,45677 47834,45675 47828,45675 47823,45674 47817,45674 47811,45675 47805,45676 47800,45677 47794,45679 47789,45682 47784,45685 47780,45688 47775,45691 47771,45695 47767,45700 47763,45704 47760,45709 47758,45705 47756,45702 47753,45699 47750,45696 47748,45693 47745,45690 47741,45688 47738,45686 47734,45683 47731,45682 47727,45680 47723,45678 47719,45677 47716,45676 47712,45675 47708,45675 47704,45674 47699,45674 47696,45674 47691,45675 47687,45675 47683,45676 47679,45677 47676,45678 47672,45680 47668,45682 47664,45683 47661,45686 47658,45688 47655,45690 47652,45693 47649,45696 47649,45680 47598,45680 47598,45895 Z"/>
   </g>
  </g>
  <g class="com.sun.star.drawing.PolyPolygonShape">
   <g id="id23">
    <rect class="BoundingBox" stroke="none" fill="none" x="47597" y="45673" width="297" height="224"/>
    <path fill="rgb(0,0,0)" stroke="none" d="M 47598,45895 L 47649,45895 47649,45753 47649,45749 47649,45746 47650,45742 47651,45739 47653,45736 47655,45733 47657,45730 47659,45728 47662,45725 47664,45723 47667,45721 47671,45720 47674,45719 47677,45718 47681,45717 47684,45717 47688,45717 47691,45718 47695,45719 47698,45720 47701,45721 47704,45723 47707,45725 47710,45728 47712,45730 47714,45733 47716,45736 47717,45739 47719,45742 47719,45746 47720,45749 47720,45753 47720,45895 47770,45895 47770,45753 47770,45749 47771,45746 47772,45742 47773,45739 47774,45736 47776,45733 47778,45730 47781,45728 47783,45725 47786,45723 47789,45721 47792,45720 47795,45719 47799,45718 47802,45717 47806,45717 47809,45717 47813,45718 47816,45719 47820,45720 47823,45721 47826,45723 47828,45725 47831,45728 47833,45730 47836,45733 47837,45736 47839,45739 47840,45742 47841,45746 47841,45749 47841,45753 47841,45895 47892,45895 47892,45745 47891,45739 47890,45733 47889,45728 47888,45722 47886,45717 47883,45712 47880,45707 47877,45702 47873,45698 47869,45693 47865,45690 47860,45686 47856,45683 47850,45681 47845,45678 47840,45677 47834,45675 47828,45675 47823,45674 47817,45674 47811,45675 47805,45676 47800,45677 47794,45679 47789,45682 47784,45685 47780,45688 47775,45691 47771,45695 47767,45700 47763,45704 47760,45709 47758,45705 47756,45702 47753,45699 47750,45696 47748,45693 47745,45690 47741,45688 47738,45686 47734,45683 47731,45682 47727,45680 47723,45678 47719,45677 47716,45676 47712,45675 47708,45675 47704,45674 47699,45674 47696,45674 47691,45675 47687,45675 47683,45676 47679,45677 47676,45678 47672,45680 47668,45682 47664,45683 47661,45686 47658,45688 47655,45690 47652,45693 47649,45696 47649,45680 47598,45680 47598,45895 Z"/>
    <path fill="none" stroke="rgb(0,0,0)" d="M 47598,45895 L 47649,45895 47649,45753 47649,45749 47649,45746 47650,45742 47651,45739 47653,45736 47655,45733 47657,45730 47659,45728 47662,45725 47664,45723 47667,45721 47671,45720 47674,45719 47677,45718 47681,45717 47684,45717 47688,45717 47691,45718 47695,45719 47698,45720 47701,45721 47704,45723 47707,45725 47710,45728 47712,45730 47714,45733 47716,45736 47717,45739 47719,45742 47719,45746 47720,45749 47720,45753 47720,45895 47770,45895 47770,45753 47770,45749 47771,45746 47772,45742 47773,45739 47774,45736 47776,45733 47778,45730 47781,45728 47783,45725 47786,45723 47789,45721 47792,45720 47795,45719 47799,45718 47802,45717 47806,45717 47809,45717 47813,45718 47816,45719 47820,45720 47823,45721 47826,45723 47828,45725 47831,45728 47833,45730 47836,45733 47837,45736 47839,45739 47840,45742 47841,45746 47841,45749 47841,45753 47841,45895 47892,45895 47892,45745 47891,45739 47890,45733 47889,45728 47888,45722 47886,45717 47883,45712 47880,45707 47877,45702 47873,45698 47869,45693 47865,45690 47860,45686 47856,45683 47850,45681 47845,45678 47840,45677 47834,45675 47828,45675 47823,45674 47817,45674 47811,45675 47805,45676 47800,45677 47794,45679 47789,45682 47784,45685 47780,45688 47775,45691 47771,45695 47767,45700 47763,45704 47760,45709 47758,45705 47756,45702 47753,45699 47750,45696 47748,45693 47745,45690 47741,45688 47738,45686 47734,45683 47731,45682 47727,45680 47723,45678 47719,45677 47716,45676 47712,45675 47708,45675 47704,45674 47699,45674 47696,45674 47691,45675 47687,45675 47683,45676 47679,45677 47676,45678 47672,45680 47668,45682 47664,45683 47661,45686 47658,45688 47655,45690 47652,45693 47649,45696 47649,45680 47598,45680 47598,45895 Z"/>
   </g>
  </g>
  <g class="com.sun.star.drawing.PolyPolygonShape">
   <g id="id24">
    <rect class="BoundingBox" stroke="none" fill="none" x="47597" y="45673" width="297" height="224"/>
    <path fill="rgb(0,0,0)" stroke="none" d="M 47598,45895 L 47649,45895 47649,45753 47649,45749 47649,45746 47650,45742 47651,45739 47653,45736 47655,45733 47657,45730 47659,45728 47662,45725 47664,45723 47667,45721 47671,45720 47674,45719 47677,45718 47681,45717 47684,45717 47688,45717 47691,45718 47695,45719 47698,45720 47701,45721 47704,45723 47707,45725 47710,45728 47712,45730 47714,45733 47716,45736 47717,45739 47719,45742 47719,45746 47720,45749 47720,45753 47720,45895 47770,45895 47770,45753 47770,45749 47771,45746 47772,45742 47773,45739 47774,45736 47776,45733 47778,45730 47781,45728 47783,45725 47786,45723 47789,45721 47792,45720 47795,45719 47799,45718 47802,45717 47806,45717 47809,45717 47813,45718 47816,45719 47820,45720 47823,45721 47826,45723 47828,45725 47831,45728 47833,45730 47836,45733 47837,45736 47839,45739 47840,45742 47841,45746 47841,45749 47841,45753 47841,45895 47892,45895 47892,45745 47891,45739 47890,45733 47889,45728 47888,45722 47886,45717 47883,45712 47880,45707 47877,45702 47873,45698 47869,45693 47865,45690 47860,45686 47856,45683 47850,45681 47845,45678 47840,45677 47834,45675 47828,45675 47823,45674 47817,45674 47811,45675 47805,45676 47800,45677 47794,45679 47789,45682 47784,45685 47780,45688 47775,45691 47771,45695 47767,45700 47763,45704 47760,45709 47758,45705 47756,45702 47753,45699 47750,45696 47748,45693 47745,45690 47741,45688 47738,45686 47734,45683 47731,45682 47727,45680 47723,45678 47719,45677 47716,45676 47712,45675 47708,45675 47704,45674 47699,45674 47696,45674 47691,45675 47687,45675 47683,45676 47679,45677 47676,45678 47672,45680 47668,45682 47664,45683 47661,45686 47658,45688 47655,45690 47652,45693 47649,45696 47649,45680 47598,45680 47598,45895 Z"/>
    <path fill="none" stroke="rgb(0,0,0)" d="M 47598,45895 L 47649,45895 47649,45753 47649,45749 47649,45746 47650,45742 47651,45739 47653,45736 47655,45733 47657,45730 47659,45728 47662,45725 47664,45723 47667,45721 47671,45720 47674,45719 47677,45718 47681,45717 47684,45717 47688,45717 47691,45718 47695,45719 47698,45720 47701,45721 47704,45723 47707,45725 47710,45728 47712,45730 47714,45733 47716,45736 47717,45739 47719,45742 47719,45746 47720,45749 47720,45753 47720,45895 47770,45895 47770,45753 47770,45749 47771,45746 47772,45742 47773,45739 47774,45736 47776,45733 47778,45730 47781,45728 47783,45725 47786,45723 47789,45721 47792,45720 47795,45719 47799,45718 47802,45717 47806,45717 47809,45717 47813,45718 47816,45719 47820,45720 47823,45721 47826,45723 47828,45725 47831,45728 47833,45730 47836,45733 47837,45736 47839,45739 47840,45742 47841,45746 47841,45749 47841,45753 47841,45895 47892,45895 47892,45745 47891,45739 47890,45733 47889,45728 47888,45722 47886,45717 47883,45712 47880,45707 47877,45702 47873,45698 47869,45693 47865,45690 47860,45686 47856,45683 47850,45681 47845,45678 47840,45677 47834,45675 47828,45675 47823,45674 47817,45674 47811,45675 47805,45676 47800,45677 47794,45679 47789,45682 47784,45685 47780,45688 47775,45691 47771,45695 47767,45700 47763,45704 47760,45709 47758,45705 47756,45702 47753,45699 47750,45696 47748,45693 47745,45690 47741,45688 47738,45686 47734,45683 47731,45682 47727,45680 47723,45678 47719,45677 47716,45676 47712,45675 47708,45675 47704,45674 47699,45674 47696,45674 47691,45675 47687,45675 47683,45676 47679,45677 47676,45678 47672,45680 47668,45682 47664,45683 47661,45686 47658,45688 47655,45690 47652,45693 47649,45696 47649,45680 47598,45680 47598,45895 Z"/>
   </g>
  </g>
  <g class="com.sun.star.drawing.PolyPolygonShape">
   <g id="id25">
    <rect class="BoundingBox" stroke="none" fill="none" x="47597" y="45673" width="297" height="224"/>
    <path fill="rgb(0,0,0)" stroke="none" d="M 47598,45895 L 47649,45895 47649,45753 47649,45749 47649,45746 47650,45742 47651,45739 47653,45736 47655,45733 47657,45730 47659,45728 47662,45725 47664,45723 47667,45721 47671,45720 47674,45719 47677,45718 47681,45717 47684,45717 47688,45717 47691,45718 47695,45719 47698,45720 47701,45721 47704,45723 47707,45725 47710,45728 47712,45730 47714,45733 47716,45736 47717,45739 47719,45742 47719,45746 47720,45749 47720,45753 47720,45895 47770,45895 47770,45753 47770,45749 47771,45746 47772,45742 47773,45739 47774,45736 47776,45733 47778,45730 47781,45728 47783,45725 47786,45723 47789,45721 47792,45720 47795,45719 47799,45718 47802,45717 47806,45717 47809,45717 47813,45718 47816,45719 47820,45720 47823,45721 47826,45723 47828,45725 47831,45728 47833,45730 47836,45733 47837,45736 47839,45739 47840,45742 47841,45746 47841,45749 47841,45753 47841,45895 47892,45895 47892,45745 47891,45739 47890,45733 47889,45728 47888,45722 47886,45717 47883,45712 47880,45707 47877,45702 47873,45698 47869,45693 47865,45690 47860,45686 47856,45683 47850,45681 47845,45678 47840,45677 47834,45675 47828,45675 47823,45674 47817,45674 47811,45675 47805,45676 47800,45677 47794,45679 47789,45682 47784,45685 47780,45688 47775,45691 47771,45695 47767,45700 47763,45704 47760,45709 47758,45705 47756,45702 47753,45699 47750,45696 47748,45693 47745,45690 47741,45688 47738,45686 47734,45683 47731,45682 47727,45680 47723,45678 47719,45677 47716,45676 47712,45675 47708,45675 47704,45674 47699,45674 47696,45674 47691,45675 47687,45675 47683,45676 47679,45677 47676,45678 47672,45680 47668,45682 47664,45683 47661,45686 47658,45688 47655,45690 47652,45693 47649,45696 47649,45680 47598,45680 47598,45895 Z"/>
    <path fill="none" stroke="rgb(0,0,0)" d="M 47598,45895 L 47649,45895 47649,45753 47649,45749 47649,45746 47650,45742 47651,45739 47653,45736 47655,45733 47657,45730 47659,45728 47662,45725 47664,45723 47667,45721 47671,45720 47674,45719 47677,45718 47681,45717 47684,45717 47688,45717 47691,45718 47695,45719 47698,45720 47701,45721 47704,45723 47707,45725 47710,45728 47712,45730 47714,45733 47716,45736 47717,45739 47719,45742 47719,45746 47720,45749 47720,45753 47720,45895 47770,45895 47770,45753 47770,45749 47771,45746 47772,45742 47773,45739 47774,45736 47776,45733 47778,45730 47781,45728 47783,45725 47786,45723 47789,45721 47792,45720 47795,45719 47799,45718 47802,45717 47806,45717 47809,45717 47813,45718 47816,45719 47820,45720 47823,45721 47826,45723 47828,45725 47831,45728 47833,45730 47836,45733 47837,45736 47839,45739 47840,45742 47841,45746 47841,45749 47841,45753 47841,45895 47892,45895 47892,45745 47891,45739 47890,45733 47889,45728 47888,45722 47886,45717 47883,45712 47880,45707 47877,45702 47873,45698 47869,45693 47865,45690 47860,45686 47856,45683 47850,45681 47845,45678 47840,45677 47834,45675 47828,45675 47823,45674 47817,45674 47811,45675 47805,45676 47800,45677 47794,45679 47789,45682 47784,45685 47780,45688 47775,45691 47771,45695 47767,45700 47763,45704 47760,45709 47758,45705 47756,45702 47753,45699 47750,45696 47748,45693 47745,45690 47741,45688 47738,45686 47734,45683 47731,45682 47727,45680 47723,45678 47719,45677 47716,45676 47712,45675 47708,45675 47704,45674 47699,45674 47696,45674 47691,45675 47687,45675 47683,45676 47679,45677 47676,45678 47672,45680 47668,45682 47664,45683 47661,45686 47658,45688 47655,45690 47652,45693 47649,45696 47649,45680 47598,45680 47598,45895 Z"/>
   </g>
  </g>
 </g>
</svg>