<?xml version="1.0" encoding="UTF-8"?>
<!DOCTYPE svg PUBLIC "-//W3C//DTD SVG 1.1//EN" "http://www.w3.org/Graphics/SVG/1.1/DTD/svg11.dtd">
<svg version="1.2" width="15.98mm" height="25.04mm" viewBox="36201 36498 1598 2504" preserveAspectRatio="xMidYMid" fill-rule="evenodd" stroke-width="28.222" stroke-linejoin="round" xmlns="http://www.w3.org/2000/svg" xmlns:ooo="http://xml.openoffice.org/svg/export" xmlns:xlink="http://www.w3.org/1999/xlink" xmlns:presentation="http://sun.com/xmlns/staroffice/presentation" xmlns:smil="http://www.w3.org/2001/SMIL20/" xmlns:anim="urn:oasis:names:tc:opendocument:xmlns:animation:1.0" xml:space="preserve">
 <defs class="EmbeddedBulletChars">
  <g id="bullet-char-template-57356" transform="scale(0.00048828125,-0.00048828125)">
   <path d="M 580,1141 L 1163,571 580,0 -4,571 580,1141 Z"/>
  </g>
  <g id="bullet-char-template-57354" transform="scale(0.00048828125,-0.00048828125)">
   <path d="M 8,1128 L 1137,1128 1137,0 8,0 8,1128 Z"/>
  </g>
  <g id="bullet-char-template-10146" transform="scale(0.00048828125,-0.00048828125)">
   <path d="M 174,0 L 602,739 174,1481 1456,739 174,0 Z M 1358,739 L 309,1346 659,739 1358,739 Z"/>
  </g>
  <g id="bullet-char-template-10132" transform="scale(0.00048828125,-0.00048828125)">
   <path d="M 2015,739 L 1276,0 717,0 1260,543 174,543 174,936 1260,936 717,1481 1274,1481 2015,739 Z"/>
  </g>
  <g id="bullet-char-template-10007" transform="scale(0.00048828125,-0.00048828125)">
   <path d="M 0,-2 C -7,14 -16,27 -25,37 L 356,567 C 262,823 215,952 215,954 215,979 228,992 255,992 264,992 276,990 289,987 310,991 331,999 354,1012 L 381,999 492,748 772,1049 836,1024 860,1049 C 881,1039 901,1025 922,1006 886,937 835,863 770,784 769,783 710,716 594,584 L 774,223 C 774,196 753,168 711,139 L 727,119 C 717,90 699,76 672,76 641,76 570,178 457,381 L 164,-76 C 142,-110 111,-127 72,-127 30,-127 9,-110 8,-76 1,-67 -2,-52 -2,-32 -2,-23 -1,-13 0,-2 Z"/>
  </g>
  <g id="bullet-char-template-10004" transform="scale(0.00048828125,-0.00048828125)">
   <path d="M 285,-33 C 182,-33 111,30 74,156 52,228 41,333 41,471 41,549 55,616 82,672 116,743 169,778 240,778 293,778 328,747 346,684 L 369,508 C 377,444 397,411 428,410 L 1163,1116 C 1174,1127 1196,1133 1229,1133 1271,1133 1292,1118 1292,1087 L 1292,965 C 1292,929 1282,901 1262,881 L 442,47 C 390,-6 338,-33 285,-33 Z"/>
  </g>
  <g id="bullet-char-template-9679" transform="scale(0.00048828125,-0.00048828125)">
   <path d="M 813,0 C 632,0 489,54 383,161 276,268 223,411 223,592 223,773 276,916 383,1023 489,1130 632,1184 813,1184 992,1184 1136,1130 1245,1023 1353,916 1407,772 1407,592 1407,412 1353,268 1245,161 1136,54 992,0 813,0 Z"/>
  </g>
  <g id="bullet-char-template-8226" transform="scale(0.00048828125,-0.00048828125)">
   <path d="M 346,457 C 273,457 209,483 155,535 101,586 74,649 74,723 74,796 101,859 155,911 209,963 273,989 346,989 419,989 480,963 531,910 582,859 608,796 608,723 608,648 583,586 532,535 482,483 420,457 346,457 Z"/>
  </g>
  <g id="bullet-char-template-8211" transform="scale(0.00048828125,-0.00048828125)">
   <path d="M -4,459 L 1135,459 1135,606 -4,606 -4,459 Z"/>
  </g>
  <g id="bullet-char-template-61548" transform="scale(0.00048828125,-0.00048828125)">
   <path d="M 173,740 C 173,903 231,1043 346,1159 462,1274 601,1332 765,1332 928,1332 1067,1274 1183,1159 1299,1043 1357,903 1357,740 1357,577 1299,437 1183,322 1067,206 928,148 765,148 601,148 462,206 346,322 231,437 173,577 173,740 Z"/>
  </g>
 </defs>
 <g class="Page">
  <g class="com.sun.star.drawing.PolyPolygonShape">
   <g id="id3">
    <rect class="BoundingBox" stroke="none" fill="none" x="36201" y="36498" width="1598" height="2504"/>
    <path fill="rgb(0,0,255)" stroke="none" d="M 36350,36499 L 37650,36499 37664,36500 37678,36502 37693,36506 37706,36511 37719,36517 37732,36524 37743,36533 37754,36543 37764,36554 37773,36565 37780,36577 37786,36591 37791,36604 37795,36618 37797,36633 37797,36647 37797,38853 37797,38867 37795,38881 37791,38895 37786,38909 37780,38922 37773,38935 37764,38946 37754,38957 37743,38967 37732,38975 37719,38983 37706,38989 37693,38994 37678,38997 37664,39000 37650,39000 36350,39000 36336,39000 36321,38997 36307,38994 36294,38989 36280,38983 36268,38975 36256,38967 36246,38957 36236,38946 36227,38935 36220,38922 36214,38909 36209,38895 36205,38881 36203,38867 36202,38853 36202,36647 36203,36633 36205,36618 36209,36604 36214,36591 36220,36577 36227,36565 36236,36554 36246,36543 36256,36533 36268,36524 36280,36517 36294,36511 36307,36506 36321,36502 36336,36500 36350,36499 Z"/>
    <path fill="none" stroke="rgb(0,0,255)" d="M 36350,36499 L 37650,36499 37664,36500 37678,36502 37693,36506 37706,36511 37719,36517 37732,36524 37743,36533 37754,36543 37764,36554 37773,36565 37780,36577 37786,36591 37791,36604 37795,36618 37797,36633 37797,36647 37797,38853 37797,38867 37795,38881 37791,38895 37786,38909 37780,38922 37773,38935 37764,38946 37754,38957 37743,38967 37732,38975 37719,38983 37706,38989 37693,38994 37678,38997 37664,39000 37650,39000 36350,39000 36336,39000 36321,38997 36307,38994 36294,38989 36280,38983 36268,38975 36256,38967 36246,38957 36236,38946 36227,38935 36220,38922 36214,38909 36209,38895 36205,38881 36203,38867 36202,38853 36202,36647 36203,36633 36205,36618 36209,36604 36214,36591 36220,36577 36227,36565 36236,36554 36246,36543 36256,36533 36268,36524 36280,36517 36294,36511 36307,36506 36321,36502 36336,36500 36350,36499 Z"/>
   </g>
  </g>
  <g class="com.sun.star.drawing.PolyPolygonShape">
   <g id="id4">
    <rect class="BoundingBox" stroke="none" fill="none" x="36235" y="36532" width="1530" height="2436"/>
    <path fill="rgb(255,255,255)" stroke="none" d="M 36350,36533 L 37650,36533 37661,36534 37672,36536 37683,36538 37693,36542 37703,36547 37713,36553 37722,36559 37730,36567 37738,36575 37744,36584 37750,36594 37755,36604 37758,36614 37761,36625 37763,36636 37763,36647 37763,38853 37763,38864 37761,38875 37758,38886 37755,38896 37750,38906 37744,38916 37738,38925 37730,38933 37722,38941 37713,38947 37703,38953 37693,38958 37683,38961 37672,38964 37661,38966 37650,38966 36350,38966 36339,38966 36328,38964 36317,38961 36307,38958 36297,38953 36287,38947 36278,38941 36270,38933 36262,38925 36256,38916 36250,38906 36245,38896 36241,38886 36239,38875 36237,38864 36236,38853 36236,36647 36237,36636 36239,36625 36241,36614 36245,36604 36250,36594 36256,36584 36262,36575 36270,36567 36278,36559 36287,36553 36297,36547 36307,36542 36317,36538 36328,36536 36339,36534 36350,36533 Z"/>
    <path fill="none" stroke="rgb(255,255,255)" d="M 36350,36533 L 37650,36533 37661,36534 37672,36536 37683,36538 37693,36542 37703,36547 37713,36553 37722,36559 37730,36567 37738,36575 37744,36584 37750,36594 37755,36604 37758,36614 37761,36625 37763,36636 37763,36647 37763,38853 37763,38864 37761,38875 37758,38886 37755,38896 37750,38906 37744,38916 37738,38925 37730,38933 37722,38941 37713,38947 37703,38953 37693,38958 37683,38961 37672,38964 37661,38966 37650,38966 36350,38966 36339,38966 36328,38964 36317,38961 36307,38958 36297,38953 36287,38947 36278,38941 36270,38933 36262,38925 36256,38916 36250,38906 36245,38896 36241,38886 36239,38875 36237,38864 36236,38853 36236,36647 36237,36636 36239,36625 36241,36614 36245,36604 36250,36594 36256,36584 36262,36575 36270,36567 36278,36559 36287,36553 36297,36547 36307,36542 36317,36538 36328,36536 36339,36534 36350,36533 Z"/>
   </g>
  </g>
  <g class="com.sun.star.drawing.PolyPolygonShape">
   <g id="id5">
    <rect class="BoundingBox" stroke="none" fill="none" x="36270" y="36567" width="1461" height="2367"/>
    <path fill="rgb(0,0,255)" stroke="none" d="M 36350,36568 L 37650,36568 37657,36568 37665,36569 37673,36571 37680,36574 37687,36577 37694,36581 37700,36586 37706,36591 37711,36597 37716,36603 37720,36610 37723,36617 37726,36624 37728,36633 37729,36640 37729,36648 37729,38853 37729,38860 37728,38868 37726,38876 37723,38883 37720,38890 37716,38897 37711,38903 37706,38909 37700,38914 37694,38919 37687,38923 37680,38926 37673,38929 37665,38931 37657,38932 37650,38932 36350,38932 36343,38932 36335,38931 36327,38929 36320,38926 36313,38923 36306,38919 36300,38914 36294,38909 36289,38903 36284,38897 36280,38890 36277,38883 36274,38876 36272,38868 36271,38860 36271,38853 36271,36648 36271,36640 36272,36633 36274,36624 36277,36617 36280,36610 36284,36603 36289,36597 36294,36591 36300,36586 36306,36581 36313,36577 36320,36574 36327,36571 36335,36569 36343,36568 36350,36568 Z"/>
    <path fill="none" stroke="rgb(0,0,255)" d="M 36350,36568 L 37650,36568 37657,36568 37665,36569 37673,36571 37680,36574 37687,36577 37694,36581 37700,36586 37706,36591 37711,36597 37716,36603 37720,36610 37723,36617 37726,36624 37728,36633 37729,36640 37729,36648 37729,38853 37729,38860 37728,38868 37726,38876 37723,38883 37720,38890 37716,38897 37711,38903 37706,38909 37700,38914 37694,38919 37687,38923 37680,38926 37673,38929 37665,38931 37657,38932 37650,38932 36350,38932 36343,38932 36335,38931 36327,38929 36320,38926 36313,38923 36306,38919 36300,38914 36294,38909 36289,38903 36284,38897 36280,38890 36277,38883 36274,38876 36272,38868 36271,38860 36271,38853 36271,36648 36271,36640 36272,36633 36274,36624 36277,36617 36280,36610 36284,36603 36289,36597 36294,36591 36300,36586 36306,36581 36313,36577 36320,36574 36327,36571 36335,36569 36343,36568 36350,36568 Z"/>
   </g>
  </g>
  <g class="com.sun.star.drawing.PolyPolygonShape">
   <g id="id6">
    <rect class="BoundingBox" stroke="none" fill="none" x="36429" y="37180" width="1143" height="1141"/>
    <path fill="rgb(255,255,255)" stroke="none" d="M 36430,37181 L 37570,37181 37570,38319 36430,38319 36430,37181 Z"/>
    <path fill="none" stroke="rgb(255,255,255)" d="M 36430,37181 L 37570,37181 37570,38319 36430,38319 36430,37181 Z"/>
   </g>
  </g>
  <g class="com.sun.star.drawing.PolyPolygonShape">
   <g id="id7">
    <rect class="BoundingBox" stroke="none" fill="none" x="36566" y="37421" width="869" height="722"/>
    <path fill="rgb(0,0,0)" stroke="none" d="M 37000,38141 L 36567,38141 36567,37626 36742,37422 37000,37422 37258,37422 37433,37626 37433,38141 37000,38141 Z"/>
    <path fill="none" stroke="rgb(0,0,0)" d="M 37000,38141 L 36567,38141 36567,37626 36742,37422 37000,37422 37258,37422 37433,37626 37433,38141 37000,38141 Z"/>
   </g>
  </g>
  <g class="com.sun.star.drawing.PolyPolygonShape">
   <g id="id8">
    <rect class="BoundingBox" stroke="none" fill="none" x="37226" y="37577" width="176" height="166"/>
    <path fill="rgb(255,255,255)" stroke="none" d="M 37345,37578 L 37227,37702 37239,37722 37249,37741 37400,37642 37345,37578 Z"/>
    <path fill="none" stroke="rgb(255,255,255)" d="M 37345,37578 L 37227,37702 37239,37722 37249,37741 37400,37642 37345,37578 Z"/>
   </g>
  </g>
  <g class="com.sun.star.drawing.PolyPolygonShape">
   <g id="id9">
    <rect class="BoundingBox" stroke="none" fill="none" x="37148" y="37484" width="171" height="192"/>
    <path fill="rgb(255,255,255)" stroke="none" d="M 37205,37674 L 37317,37546 37266,37485 37149,37628 37165,37638 37180,37649 37193,37661 37205,37674 Z"/>
    <path fill="none" stroke="rgb(255,255,255)" d="M 37205,37674 L 37317,37546 37266,37485 37149,37628 37165,37638 37180,37649 37193,37661 37205,37674 Z"/>
   </g>
  </g>
  <g class="com.sun.star.drawing.PolyPolygonShape">
   <g id="id10">
    <rect class="BoundingBox" stroke="none" fill="none" x="36599" y="37577" width="176" height="166"/>
    <path fill="rgb(255,255,255)" stroke="none" d="M 36654,37578 L 36773,37702 36761,37722 36751,37741 36600,37642 36654,37578 Z"/>
    <path fill="none" stroke="rgb(255,255,255)" d="M 36654,37578 L 36773,37702 36761,37722 36751,37741 36600,37642 36654,37578 Z"/>
   </g>
  </g>
  <g class="com.sun.star.drawing.PolyPolygonShape">
   <g id="id11">
    <rect class="BoundingBox" stroke="none" fill="none" x="36682" y="37484" width="171" height="192"/>
    <path fill="rgb(255,255,255)" stroke="none" d="M 36794,37674 L 36683,37546 36734,37485 36851,37628 36836,37638 36820,37649 36807,37661 36794,37674 Z"/>
    <path fill="none" stroke="rgb(255,255,255)" d="M 36794,37674 L 36683,37546 36734,37485 36851,37628 36836,37638 36820,37649 36807,37661 36794,37674 Z"/>
   </g>
  </g>
  <g class="com.sun.star.drawing.PolyPolygonShape">
   <g id="id12">
    <rect class="BoundingBox" stroke="none" fill="none" x="37072" y="37456" width="173" height="157"/>
    <path fill="rgb(255,255,255)" stroke="none" d="M 37118,37611 L 37243,37457 37119,37457 37073,37594 37085,37598 37096,37602 37107,37606 37118,37611 Z"/>
    <path fill="none" stroke="rgb(255,255,255)" d="M 37118,37611 L 37243,37457 37119,37457 37073,37594 37085,37598 37096,37602 37107,37606 37118,37611 Z"/>
   </g>
  </g>
  <g class="com.sun.star.drawing.PolyPolygonShape">
   <g id="id13">
    <rect class="BoundingBox" stroke="none" fill="none" x="37266" y="37683" width="134" height="152"/>
    <path fill="rgb(255,255,255)" stroke="none" d="M 37267,37833 L 37398,37833 37398,37684 37267,37771 37267,37833 Z"/>
    <path fill="none" stroke="rgb(255,255,255)" d="M 37267,37833 L 37398,37833 37398,37684 37267,37771 37267,37833 Z"/>
   </g>
  </g>
  <g class="com.sun.star.drawing.PolyPolygonShape">
   <g id="id14">
    <rect class="BoundingBox" stroke="none" fill="none" x="37266" y="37866" width="134" height="59"/>
    <path fill="rgb(255,255,255)" stroke="none" d="M 37398,37867 L 37267,37867 37267,37923 37398,37923 37398,37867 Z"/>
    <path fill="none" stroke="rgb(255,255,255)" d="M 37398,37867 L 37267,37867 37267,37923 37398,37923 37398,37867 Z"/>
   </g>
  </g>
  <g class="com.sun.star.drawing.PolyPolygonShape">
   <g id="id15">
    <rect class="BoundingBox" stroke="none" fill="none" x="37266" y="37956" width="134" height="59"/>
    <path fill="rgb(255,255,255)" stroke="none" d="M 37398,37957 L 37267,37957 37267,38013 37398,38013 37398,37957 Z"/>
    <path fill="none" stroke="rgb(255,255,255)" d="M 37398,37957 L 37267,37957 37267,38013 37398,38013 37398,37957 Z"/>
   </g>
  </g>
  <g class="com.sun.star.drawing.PolyPolygonShape">
   <g id="id16">
    <rect class="BoundingBox" stroke="none" fill="none" x="37266" y="38047" width="134" height="59"/>
    <path fill="rgb(255,255,255)" stroke="none" d="M 37398,38048 L 37267,38048 37267,38104 37398,38104 37398,38048 Z"/>
    <path fill="none" stroke="rgb(255,255,255)" d="M 37398,38048 L 37267,38048 37267,38104 37398,38104 37398,38048 Z"/>
   </g>
  </g>
  <g class="com.sun.star.drawing.PolyPolygonShape">
   <g id="id17">
    <rect class="BoundingBox" stroke="none" fill="none" x="36916" y="37456" width="169" height="133"/>
    <path fill="rgb(255,255,255)" stroke="none" d="M 37000,37585 L 37020,37585 37040,37587 37083,37457 37000,37457 36917,37457 36960,37587 36980,37585 37000,37585 Z"/>
    <path fill="none" stroke="rgb(255,255,255)" d="M 37000,37585 L 37020,37585 37040,37587 37083,37457 37000,37457 36917,37457 36960,37587 36980,37585 37000,37585 Z"/>
   </g>
  </g>
  <g class="com.sun.star.drawing.PolyPolygonShape">
   <g id="id18">
    <rect class="BoundingBox" stroke="none" fill="none" x="36756" y="37456" width="173" height="157"/>
    <path fill="rgb(255,255,255)" stroke="none" d="M 36882,37611 L 36757,37457 36881,37457 36927,37594 36915,37598 36904,37602 36893,37606 36882,37611 Z"/>
    <path fill="none" stroke="rgb(255,255,255)" d="M 36882,37611 L 36757,37457 36881,37457 36927,37594 36915,37598 36904,37602 36893,37606 36882,37611 Z"/>
   </g>
  </g>
  <g class="com.sun.star.drawing.PolyPolygonShape">
   <g id="id19">
    <rect class="BoundingBox" stroke="none" fill="none" x="36601" y="37683" width="134" height="152"/>
    <path fill="rgb(255,255,255)" stroke="none" d="M 36733,37833 L 36602,37833 36602,37684 36733,37771 36733,37833 Z"/>
    <path fill="none" stroke="rgb(255,255,255)" d="M 36733,37833 L 36602,37833 36602,37684 36733,37771 36733,37833 Z"/>
   </g>
  </g>
  <g class="com.sun.star.drawing.PolyPolygonShape">
   <g id="id20">
    <rect class="BoundingBox" stroke="none" fill="none" x="36601" y="37866" width="134" height="59"/>
    <path fill="rgb(255,255,255)" stroke="none" d="M 36602,37867 L 36733,37867 36733,37923 36602,37923 36602,37867 Z"/>
    <path fill="none" stroke="rgb(255,255,255)" d="M 36602,37867 L 36733,37867 36733,37923 36602,37923 36602,37867 Z"/>
   </g>
  </g>
  <g class="com.sun.star.drawing.PolyPolygonShape">
   <g id="id21">
    <rect class="BoundingBox" stroke="none" fill="none" x="36601" y="37956" width="134" height="59"/>
    <path fill="rgb(255,255,255)" stroke="none" d="M 36602,37957 L 36733,37957 36733,38013 36602,38013 36602,37957 Z"/>
    <path fill="none" stroke="rgb(255,255,255)" d="M 36602,37957 L 36733,37957 36733,38013 36602,38013 36602,37957 Z"/>
   </g>
  </g>
  <g class="com.sun.star.drawing.PolyPolygonShape">
   <g id="id22">
    <rect class="BoundingBox" stroke="none" fill="none" x="36601" y="38047" width="134" height="59"/>
    <path fill="rgb(255,255,255)" stroke="none" d="M 36602,38048 L 36733,38048 36733,38104 36602,38104 36602,38048 Z"/>
    <path fill="none" stroke="rgb(255,255,255)" d="M 36602,38048 L 36733,38048 36733,38104 36602,38104 36602,38048 Z"/>
   </g>
  </g>
  <g class="com.sun.star.drawing.PolyPolygonShape">
   <g id="id23">
    <rect class="BoundingBox" stroke="none" fill="none" x="36601" y="38047" width="134" height="59"/>
    <path fill="rgb(255,255,255)" stroke="none" d="M 36602,38048 L 36733,38048 36733,38104 36602,38104 36602,38048 Z"/>
    <path fill="none" stroke="rgb(255,255,255)" d="M 36602,38048 L 36733,38048 36733,38104 36602,38104 36602,38048 Z"/>
   </g>
  </g>
 </g>
</svg>