<?xml version="1.0" encoding="UTF-8"?>
<!DOCTYPE svg PUBLIC "-//W3C//DTD SVG 1.1//EN" "http://www.w3.org/Graphics/SVG/1.1/DTD/svg11.dtd">
<svg version="1.2" width="20.04mm" height="25.04mm" viewBox="48654 43499 2004 2504" preserveAspectRatio="xMidYMid" fill-rule="evenodd" stroke-width="28.222" stroke-linejoin="round" xmlns="http://www.w3.org/2000/svg" xmlns:ooo="http://xml.openoffice.org/svg/export" xmlns:xlink="http://www.w3.org/1999/xlink" xmlns:presentation="http://sun.com/xmlns/staroffice/presentation" xmlns:smil="http://www.w3.org/2001/SMIL20/" xmlns:anim="urn:oasis:names:tc:opendocument:xmlns:animation:1.0" xml:space="preserve">
 <defs class="EmbeddedBulletChars">
  <g id="bullet-char-template-57356" transform="scale(0.00048828125,-0.00048828125)">
   <path d="M 580,1141 L 1163,571 580,0 -4,571 580,1141 Z"/>
  </g>
  <g id="bullet-char-template-57354" transform="scale(0.00048828125,-0.00048828125)">
   <path d="M 8,1128 L 1137,1128 1137,0 8,0 8,1128 Z"/>
  </g>
  <g id="bullet-char-template-10146" transform="scale(0.00048828125,-0.00048828125)">
   <path d="M 174,0 L 602,739 174,1481 1456,739 174,0 Z M 1358,739 L 309,1346 659,739 1358,739 Z"/>
  </g>
  <g id="bullet-char-template-10132" transform="scale(0.00048828125,-0.00048828125)">
   <path d="M 2015,739 L 1276,0 717,0 1260,543 174,543 174,936 1260,936 717,1481 1274,1481 2015,739 Z"/>
  </g>
  <g id="bullet-char-template-10007" transform="scale(0.00048828125,-0.00048828125)">
   <path d="M 0,-2 C -7,14 -16,27 -25,37 L 356,567 C 262,823 215,952 215,954 215,979 228,992 255,992 264,992 276,990 289,987 310,991 331,999 354,1012 L 381,999 492,748 772,1049 836,1024 860,1049 C 881,1039 901,1025 922,1006 886,937 835,863 770,784 769,783 710,716 594,584 L 774,223 C 774,196 753,168 711,139 L 727,119 C 717,90 699,76 672,76 641,76 570,178 457,381 L 164,-76 C 142,-110 111,-127 72,-127 30,-127 9,-110 8,-76 1,-67 -2,-52 -2,-32 -2,-23 -1,-13 0,-2 Z"/>
  </g>
  <g id="bullet-char-template-10004" transform="scale(0.00048828125,-0.00048828125)">
   <path d="M 285,-33 C 182,-33 111,30 74,156 52,228 41,333 41,471 41,549 55,616 82,672 116,743 169,778 240,778 293,778 328,747 346,684 L 369,508 C 377,444 397,411 428,410 L 1163,1116 C 1174,1127 1196,1133 1229,1133 1271,1133 1292,1118 1292,1087 L 1292,965 C 1292,929 1282,901 1262,881 L 442,47 C 390,-6 338,-33 285,-33 Z"/>
  </g>
  <g id="bullet-char-template-9679" transform="scale(0.00048828125,-0.00048828125)">
   <path d="M 813,0 C 632,0 489,54 383,161 276,268 223,411 223,592 223,773 276,916 383,1023 489,1130 632,1184 813,1184 992,1184 1136,1130 1245,1023 1353,916 1407,772 1407,592 1407,412 1353,268 1245,161 1136,54 992,0 813,0 Z"/>
  </g>
  <g id="bullet-char-template-8226" transform="scale(0.00048828125,-0.00048828125)">
   <path d="M 346,457 C 273,457 209,483 155,535 101,586 74,649 74,723 74,796 101,859 155,911 209,963 273,989 346,989 419,989 480,963 531,910 582,859 608,796 608,723 608,648 583,586 532,535 482,483 420,457 346,457 Z"/>
  </g>
  <g id="bullet-char-template-8211" transform="scale(0.00048828125,-0.00048828125)">
   <path d="M -4,459 L 1135,459 1135,606 -4,606 -4,459 Z"/>
  </g>
  <g id="bullet-char-template-61548" transform="scale(0.00048828125,-0.00048828125)">
   <path d="M 173,740 C 173,903 231,1043 346,1159 462,1274 601,1332 765,1332 928,1332 1067,1274 1183,1159 1299,1043 1357,903 1357,740 1357,577 1299,437 1183,322 1067,206 928,148 765,148 601,148 462,206 346,322 231,437 173,577 173,740 Z"/>
  </g>
 </defs>
 <g class="Page">
  <g class="com.sun.star.drawing.PolyPolygonShape">
   <g id="id3">
    <rect class="BoundingBox" stroke="none" fill="none" x="48654" y="43499" width="2004" height="2504"/>
    <path fill="rgb(255,129,0)" stroke="none" d="M 50591,46001 L 48720,46001 48713,46000 48707,45999 48701,45998 48695,45996 48689,45993 48684,45989 48679,45986 48674,45981 48670,45977 48666,45972 48662,45966 48660,45960 48658,45954 48656,45948 48655,45942 48655,45935 48655,43565 48655,43558 48656,43552 48658,43546 48660,43540 48662,43534 48666,43528 48670,43523 48674,43519 48679,43515 48684,43511 48689,43507 48695,43505 48701,43502 48707,43501 48713,43500 48720,43500 50591,43500 50597,43500 50604,43501 50610,43502 50616,43505 50622,43507 50627,43511 50632,43515 50637,43519 50641,43523 50645,43528 50648,43534 50651,43540 50653,43546 50655,43552 50656,43558 50656,43565 50656,45935 50656,45942 50655,45948 50653,45954 50651,45960 50648,45966 50645,45972 50641,45977 50637,45981 50632,45986 50627,45989 50622,45993 50616,45996 50610,45998 50604,45999 50597,46000 50591,46001 Z"/>
    <path fill="none" stroke="rgb(255,129,0)" d="M 50591,46001 L 48720,46001 48713,46000 48707,45999 48701,45998 48695,45996 48689,45993 48684,45989 48679,45986 48674,45981 48670,45977 48666,45972 48662,45966 48660,45960 48658,45954 48656,45948 48655,45942 48655,45935 48655,43565 48655,43558 48656,43552 48658,43546 48660,43540 48662,43534 48666,43528 48670,43523 48674,43519 48679,43515 48684,43511 48689,43507 48695,43505 48701,43502 48707,43501 48713,43500 48720,43500 50591,43500 50597,43500 50604,43501 50610,43502 50616,43505 50622,43507 50627,43511 50632,43515 50637,43519 50641,43523 50645,43528 50648,43534 50651,43540 50653,43546 50655,43552 50656,43558 50656,43565 50656,45935 50656,45942 50655,45948 50653,45954 50651,45960 50648,45966 50645,45972 50641,45977 50637,45981 50632,45986 50627,45989 50622,45993 50616,45996 50610,45998 50604,45999 50597,46000 50591,46001 Z"/>
   </g>
  </g>
  <g class="com.sun.star.drawing.PolyPolygonShape">
   <g id="id4">
    <rect class="BoundingBox" stroke="none" fill="none" x="48669" y="43514" width="1974" height="2474"/>
    <path fill="rgb(0,0,0)" stroke="none" d="M 50591,45986 L 48720,45986 48715,45985 48710,45984 48705,45983 48701,45982 48696,45980 48692,45977 48688,45974 48684,45971 48681,45967 48678,45963 48676,45959 48674,45955 48672,45950 48671,45945 48670,45940 48670,45935 48670,43565 48670,43560 48671,43555 48672,43550 48674,43545 48676,43541 48678,43537 48681,43533 48684,43529 48688,43526 48692,43523 48696,43521 48701,43518 48705,43517 48710,43516 48715,43515 48720,43515 50591,43515 50596,43515 50601,43516 50605,43517 50610,43518 50615,43521 50619,43523 50623,43526 50626,43529 50630,43533 50633,43537 50635,43541 50637,43545 50639,43550 50640,43555 50641,43560 50641,43565 50641,45935 50641,45940 50640,45945 50639,45950 50637,45955 50635,45959 50633,45963 50630,45967 50626,45971 50623,45974 50619,45977 50615,45980 50610,45982 50605,45983 50601,45984 50596,45985 50591,45986 Z"/>
    <path fill="none" stroke="rgb(0,0,0)" d="M 50591,45986 L 48720,45986 48715,45985 48710,45984 48705,45983 48701,45982 48696,45980 48692,45977 48688,45974 48684,45971 48681,45967 48678,45963 48676,45959 48674,45955 48672,45950 48671,45945 48670,45940 48670,45935 48670,43565 48670,43560 48671,43555 48672,43550 48674,43545 48676,43541 48678,43537 48681,43533 48684,43529 48688,43526 48692,43523 48696,43521 48701,43518 48705,43517 48710,43516 48715,43515 48720,43515 50591,43515 50596,43515 50601,43516 50605,43517 50610,43518 50615,43521 50619,43523 50623,43526 50626,43529 50630,43533 50633,43537 50635,43541 50637,43545 50639,43550 50640,43555 50641,43560 50641,43565 50641,45935 50641,45940 50640,45945 50639,45950 50637,45955 50635,45959 50633,45963 50630,45967 50626,45971 50623,45974 50619,45977 50615,45980 50610,45982 50605,45983 50601,45984 50596,45985 50591,45986 Z"/>
   </g>
  </g>
  <g class="com.sun.star.drawing.PolyPolygonShape">
   <g id="id5">
    <rect class="BoundingBox" stroke="none" fill="none" x="48684" y="45518" width="1944" height="455"/>
    <path fill="rgb(255,129,0)" stroke="none" d="M 50591,45971 L 48720,45971 48716,45970 48713,45970 48710,45969 48706,45968 48703,45966 48700,45965 48697,45962 48695,45960 48693,45958 48691,45955 48689,45952 48687,45949 48686,45946 48685,45942 48685,45939 48685,45935 48685,45554 48685,45551 48685,45548 48686,45544 48687,45541 48689,45538 48691,45535 48693,45532 48695,45530 48697,45527 48700,45525 48703,45524 48706,45522 48710,45521 48713,45520 48716,45520 48720,45519 50591,45519 50594,45520 50598,45520 50601,45521 50604,45522 50607,45524 50611,45525 50613,45527 50616,45530 50618,45532 50620,45535 50622,45538 50623,45541 50625,45544 50625,45548 50626,45551 50626,45554 50626,45935 50626,45939 50625,45942 50625,45946 50623,45949 50622,45952 50620,45955 50618,45958 50616,45960 50613,45962 50611,45965 50607,45966 50604,45968 50601,45969 50598,45970 50594,45970 50591,45970 50591,45971 Z"/>
    <path fill="none" stroke="rgb(255,129,0)" d="M 50591,45971 L 48720,45971 48716,45970 48713,45970 48710,45969 48706,45968 48703,45966 48700,45965 48697,45962 48695,45960 48693,45958 48691,45955 48689,45952 48687,45949 48686,45946 48685,45942 48685,45939 48685,45935 48685,45554 48685,45551 48685,45548 48686,45544 48687,45541 48689,45538 48691,45535 48693,45532 48695,45530 48697,45527 48700,45525 48703,45524 48706,45522 48710,45521 48713,45520 48716,45520 48720,45519 50591,45519 50594,45520 50598,45520 50601,45521 50604,45522 50607,45524 50611,45525 50613,45527 50616,45530 50618,45532 50620,45535 50622,45538 50623,45541 50625,45544 50625,45548 50626,45551 50626,45554 50626,45935 50626,45939 50625,45942 50625,45946 50623,45949 50622,45952 50620,45955 50618,45958 50616,45960 50613,45962 50611,45965 50607,45966 50604,45968 50601,45969 50598,45970 50594,45970 50591,45970 50591,45971 Z"/>
   </g>
  </g>
  <g class="com.sun.star.drawing.PolyPolygonShape">
   <g id="id6">
    <rect class="BoundingBox" stroke="none" fill="none" x="48684" y="43529" width="1944" height="1973"/>
    <path fill="rgb(255,129,0)" stroke="none" d="M 50591,45500 L 48720,45500 48716,45500 48713,45500 48710,45499 48706,45498 48703,45496 48700,45495 48697,45493 48695,45490 48693,45488 48691,45485 48689,45482 48687,45479 48686,45476 48685,45472 48685,45469 48685,45466 48685,43565 48685,43561 48685,43558 48686,43554 48687,43551 48689,43548 48691,43545 48693,43542 48695,43540 48697,43538 48700,43535 48703,43534 48706,43532 48710,43531 48713,43530 48716,43530 48720,43530 50591,43530 50594,43530 50598,43530 50601,43531 50604,43532 50607,43534 50611,43535 50613,43538 50616,43540 50618,43542 50620,43545 50622,43548 50623,43551 50625,43554 50625,43558 50626,43561 50626,43565 50626,45466 50626,45469 50625,45472 50625,45476 50623,45479 50622,45482 50620,45485 50618,45488 50616,45490 50613,45493 50611,45495 50607,45496 50604,45498 50601,45499 50598,45500 50594,45500 50591,45500 Z"/>
    <path fill="none" stroke="rgb(255,129,0)" d="M 50591,45500 L 48720,45500 48716,45500 48713,45500 48710,45499 48706,45498 48703,45496 48700,45495 48697,45493 48695,45490 48693,45488 48691,45485 48689,45482 48687,45479 48686,45476 48685,45472 48685,45469 48685,45466 48685,43565 48685,43561 48685,43558 48686,43554 48687,43551 48689,43548 48691,43545 48693,43542 48695,43540 48697,43538 48700,43535 48703,43534 48706,43532 48710,43531 48713,43530 48716,43530 48720,43530 50591,43530 50594,43530 50598,43530 50601,43531 50604,43532 50607,43534 50611,43535 50613,43538 50616,43540 50618,43542 50620,43545 50622,43548 50623,43551 50625,43554 50625,43558 50626,43561 50626,43565 50626,45466 50626,45469 50625,45472 50625,45476 50623,45479 50622,45482 50620,45485 50618,45488 50616,45490 50613,45493 50611,45495 50607,45496 50604,45498 50601,45499 50598,45500 50594,45500 50591,45500 Z"/>
   </g>
  </g>
  <g class="com.sun.star.drawing.PolyPolygonShape">
   <g id="id7">
    <rect class="BoundingBox" stroke="none" fill="none" x="48845" y="43589" width="943" height="1854"/>
    <path fill="rgb(0,0,0)" stroke="none" d="M 48946,45021 L 49686,44282 49686,43840 49786,43840 49636,43590 49486,43840 49586,43840 49586,44241 48846,44980 48846,45441 48946,45441 48946,45021 Z"/>
    <path fill="none" stroke="rgb(0,0,0)" d="M 48946,45021 L 49686,44282 49686,43840 49786,43840 49636,43590 49486,43840 49586,43840 49586,44241 48846,44980 48846,45441 48946,45441 48946,45021 Z"/>
   </g>
  </g>
  <g class="com.sun.star.drawing.PolyPolygonShape">
   <g id="id8">
    <rect class="BoundingBox" stroke="none" fill="none" x="49455" y="43589" width="943" height="1854"/>
    <path fill="rgb(0,0,0)" stroke="none" d="M 49556,45021 L 50296,44282 50296,43840 50396,43840 50246,43590 50095,43840 50196,43840 50196,44241 49456,44980 49456,45441 49556,45441 49556,45021 Z"/>
    <path fill="none" stroke="rgb(0,0,0)" d="M 49556,45021 L 50296,44282 50296,43840 50396,43840 50246,43590 50095,43840 50196,43840 50196,44241 49456,44980 49456,45441 49556,45441 49556,45021 Z"/>
   </g>
  </g>
  <g class="com.sun.star.drawing.PolyPolygonShape">
   <g id="id9">
    <rect class="BoundingBox" stroke="none" fill="none" x="48724" y="43569" width="564" height="1334"/>
    <path fill="rgb(0,0,0)" stroke="none" d="M 49036,43600 L 48755,43880 48755,43979 49135,43600 49036,43600 Z M 48893,43600 L 48755,43738 48755,43837 48992,43600 48893,43600 Z M 48755,43600 L 48851,43600 48755,43696 48755,43600 Z M 49256,43761 L 49256,43663 48755,44163 48755,44261 49256,43761 Z M 49256,43620 L 49256,43600 49177,43600 48755,44021 48755,44120 49256,43620 Z M 49256,44327 L 49256,44228 48755,44729 48755,44828 49256,44327 Z M 49256,44186 L 49256,44087 48755,44588 48755,44687 49256,44186 Z M 49256,44044 L 49256,43945 48755,44446 48755,44545 49256,44044 Z M 49256,43804 L 48755,44304 48755,44403 49256,43903 49256,43804 Z M 49286,44340 L 48725,44901 48725,43570 49286,43570 49286,44340 Z"/>
    <path fill="none" stroke="rgb(0,0,0)" d="M 49036,43600 L 48755,43880 48755,43979 49135,43600 49036,43600 Z"/>
    <path fill="none" stroke="rgb(0,0,0)" d="M 48893,43600 L 48755,43738 48755,43837 48992,43600 48893,43600 Z"/>
    <path fill="none" stroke="rgb(0,0,0)" d="M 48755,43600 L 48851,43600 48755,43696 48755,43600 Z"/>
    <path fill="none" stroke="rgb(0,0,0)" d="M 49256,43761 L 49256,43663 48755,44163 48755,44261 49256,43761 Z"/>
    <path fill="none" stroke="rgb(0,0,0)" d="M 49256,43620 L 49256,43600 49177,43600 48755,44021 48755,44120 49256,43620 Z"/>
    <path fill="none" stroke="rgb(0,0,0)" d="M 49256,44327 L 49256,44228 48755,44729 48755,44828 49256,44327 Z"/>
    <path fill="none" stroke="rgb(0,0,0)" d="M 49256,44186 L 49256,44087 48755,44588 48755,44687 49256,44186 Z"/>
    <path fill="none" stroke="rgb(0,0,0)" d="M 49256,44044 L 49256,43945 48755,44446 48755,44545 49256,44044 Z"/>
    <path fill="none" stroke="rgb(0,0,0)" d="M 49256,43804 L 48755,44304 48755,44403 49256,43903 49256,43804 Z"/>
    <path fill="none" stroke="rgb(0,0,0)" d="M 49286,44340 L 48725,44901 48725,43570 49286,43570 49286,44340 Z"/>
   </g>
  </g>
  <g class="com.sun.star.drawing.PolyPolygonShape">
   <g id="id10">
    <rect class="BoundingBox" stroke="none" fill="none" x="48918" y="45593" width="89" height="304"/>
    <path fill="rgb(0,0,0)" stroke="none" d="M 48919,45681 L 48949,45681 48949,45895 49005,45895 49005,45594 48949,45594 48919,45651 48919,45681 Z"/>
    <path fill="none" stroke="rgb(0,0,0)" d="M 48919,45681 L 48949,45681 48949,45895 49005,45895 49005,45594 48949,45594 48919,45651 48919,45681 Z"/>
   </g>
  </g>
  <g class="com.sun.star.drawing.PolyPolygonShape">
   <g id="id11">
    <rect class="BoundingBox" stroke="none" fill="none" x="48918" y="45593" width="89" height="304"/>
    <path fill="rgb(0,0,0)" stroke="none" d="M 48919,45681 L 48949,45681 48949,45895 49005,45895 49005,45594 48949,45594 48919,45651 48919,45681 Z"/>
    <path fill="none" stroke="rgb(0,0,0)" d="M 48919,45681 L 48949,45681 48949,45895 49005,45895 49005,45594 48949,45594 48919,45651 48919,45681 Z"/>
   </g>
  </g>
  <g class="com.sun.star.drawing.PolyPolygonShape">
   <g id="id12">
    <rect class="BoundingBox" stroke="none" fill="none" x="48918" y="45593" width="89" height="304"/>
    <path fill="rgb(0,0,0)" stroke="none" d="M 48919,45681 L 48949,45681 48949,45895 49005,45895 49005,45594 48949,45594 48919,45651 48919,45681 Z"/>
    <path fill="none" stroke="rgb(0,0,0)" d="M 48919,45681 L 48949,45681 48949,45895 49005,45895 49005,45594 48949,45594 48919,45651 48919,45681 Z"/>
   </g>
  </g>
  <g class="com.sun.star.drawing.PolyPolygonShape">
   <g id="id13">
    <rect class="BoundingBox" stroke="none" fill="none" x="49110" y="45594" width="208" height="309"/>
    <path fill="rgb(0,0,0)" stroke="none" d="M 49118,45767 L 49171,45767 49173,45764 49175,45761 49178,45757 49180,45755 49183,45752 49187,45750 49190,45748 49194,45746 49197,45745 49201,45744 49205,45743 49209,45743 49213,45743 49217,45743 49220,45743 49224,45744 49229,45745 49233,45747 49236,45749 49240,45751 49243,45753 49246,45755 49249,45758 49251,45761 49253,45764 49255,45768 49257,45771 49258,45775 49260,45779 49260,45783 49261,45787 49261,45791 49261,45806 49261,45810 49260,45814 49259,45818 49258,45822 49256,45826 49254,45830 49252,45834 49249,45837 49246,45840 49243,45843 49240,45845 49236,45848 49232,45849 49227,45851 49223,45852 49219,45853 49214,45853 49210,45853 49206,45853 49202,45852 49197,45851 49193,45849 49190,45848 49186,45846 49182,45843 49179,45840 49176,45837 49174,45834 49171,45830 49169,45826 49168,45822 49166,45818 49111,45818 49113,45826 49116,45833 49119,45841 49122,45848 49126,45854 49131,45861 49136,45867 49141,45873 49147,45878 49154,45883 49160,45887 49167,45891 49174,45894 49182,45896 49189,45898 49197,45900 49205,45901 49213,45901 49221,45900 49230,45900 49237,45898 49245,45896 49252,45893 49260,45890 49267,45886 49273,45882 49279,45877 49285,45871 49291,45866 49296,45860 49300,45853 49304,45846 49307,45839 49310,45832 49313,45824 49314,45817 49316,45809 49316,45801 49316,45793 49315,45785 49314,45778 49312,45770 49310,45762 49307,45755 49303,45748 49299,45741 49294,45735 49289,45729 49284,45723 49278,45718 49272,45713 49265,45709 49258,45705 49251,45702 49243,45700 49236,45698 49227,45696 49219,45695 49211,45695 49203,45695 49196,45697 49188,45698 49180,45700 49173,45703 49173,45646 49295,45646 49295,45595 49118,45595 49118,45767 Z"/>
    <path fill="none" stroke="rgb(0,0,0)" d="M 49118,45767 L 49171,45767 49173,45764 49175,45761 49178,45757 49180,45755 49183,45752 49187,45750 49190,45748 49194,45746 49197,45745 49201,45744 49205,45743 49209,45743 49213,45743 49217,45743 49220,45743 49224,45744 49229,45745 49233,45747 49236,45749 49240,45751 49243,45753 49246,45755 49249,45758 49251,45761 49253,45764 49255,45768 49257,45771 49258,45775 49260,45779 49260,45783 49261,45787 49261,45791 49261,45806 49261,45810 49260,45814 49259,45818 49258,45822 49256,45826 49254,45830 49252,45834 49249,45837 49246,45840 49243,45843 49240,45845 49236,45848 49232,45849 49227,45851 49223,45852 49219,45853 49214,45853 49210,45853 49206,45853 49202,45852 49197,45851 49193,45849 49190,45848 49186,45846 49182,45843 49179,45840 49176,45837 49174,45834 49171,45830 49169,45826 49168,45822 49166,45818 49111,45818 49113,45826 49116,45833 49119,45841 49122,45848 49126,45854 49131,45861 49136,45867 49141,45873 49147,45878 49154,45883 49160,45887 49167,45891 49174,45894 49182,45896 49189,45898 49197,45900 49205,45901 49213,45901 49221,45900 49230,45900 49237,45898 49245,45896 49252,45893 49260,45890 49267,45886 49273,45882 49279,45877 49285,45871 49291,45866 49296,45860 49300,45853 49304,45846 49307,45839 49310,45832 49313,45824 49314,45817 49316,45809 49316,45801 49316,45793 49315,45785 49314,45778 49312,45770 49310,45762 49307,45755 49303,45748 49299,45741 49294,45735 49289,45729 49284,45723 49278,45718 49272,45713 49265,45709 49258,45705 49251,45702 49243,45700 49236,45698 49227,45696 49219,45695 49211,45695 49203,45695 49196,45697 49188,45698 49180,45700 49173,45703 49173,45646 49295,45646 49295,45595 49118,45595 49118,45767 Z"/>
   </g>
  </g>
  <g class="com.sun.star.drawing.PolyPolygonShape">
   <g id="id14">
    <rect class="BoundingBox" stroke="none" fill="none" x="49110" y="45594" width="208" height="309"/>
    <path fill="rgb(0,0,0)" stroke="none" d="M 49118,45767 L 49171,45767 49173,45764 49175,45761 49178,45757 49180,45755 49183,45752 49187,45750 49190,45748 49194,45746 49197,45745 49201,45744 49205,45743 49209,45743 49213,45743 49217,45743 49220,45743 49224,45744 49229,45745 49233,45747 49236,45749 49240,45751 49243,45753 49246,45755 49249,45758 49251,45761 49253,45764 49255,45768 49257,45771 49258,45775 49260,45779 49260,45783 49261,45787 49261,45791 49261,45806 49261,45810 49260,45814 49259,45818 49258,45822 49256,45826 49254,45830 49252,45834 49249,45837 49246,45840 49243,45843 49240,45845 49236,45848 49232,45849 49227,45851 49223,45852 49219,45853 49214,45853 49210,45853 49206,45853 49202,45852 49197,45851 49193,45849 49190,45848 49186,45846 49182,45843 49179,45840 49176,45837 49174,45834 49171,45830 49169,45826 49168,45822 49166,45818 49111,45818 49113,45826 49116,45833 49119,45841 49122,45848 49126,45854 49131,45861 49136,45867 49141,45873 49147,45878 49154,45883 49160,45887 49167,45891 49174,45894 49182,45896 49189,45898 49197,45900 49205,45901 49213,45901 49221,45900 49230,45900 49237,45898 49245,45896 49252,45893 49260,45890 49267,45886 49273,45882 49279,45877 49285,45871 49291,45866 49296,45860 49300,45853 49304,45846 49307,45839 49310,45832 49313,45824 49314,45817 49316,45809 49316,45801 49316,45793 49315,45785 49314,45778 49312,45770 49310,45762 49307,45755 49303,45748 49299,45741 49294,45735 49289,45729 49284,45723 49278,45718 49272,45713 49265,45709 49258,45705 49251,45702 49243,45700 49236,45698 49227,45696 49219,45695 49211,45695 49203,45695 49196,45697 49188,45698 49180,45700 49173,45703 49173,45646 49295,45646 49295,45595 49118,45595 49118,45767 Z"/>
    <path fill="none" stroke="rgb(0,0,0)" d="M 49118,45767 L 49171,45767 49173,45764 49175,45761 49178,45757 49180,45755 49183,45752 49187,45750 49190,45748 49194,45746 49197,45745 49201,45744 49205,45743 49209,45743 49213,45743 49217,45743 49220,45743 49224,45744 49229,45745 49233,45747 49236,45749 49240,45751 49243,45753 49246,45755 49249,45758 49251,45761 49253,45764 49255,45768 49257,45771 49258,45775 49260,45779 49260,45783 49261,45787 49261,45791 49261,45806 49261,45810 49260,45814 49259,45818 49258,45822 49256,45826 49254,45830 49252,45834 49249,45837 49246,45840 49243,45843 49240,45845 49236,45848 49232,45849 49227,45851 49223,45852 49219,45853 49214,45853 49210,45853 49206,45853 49202,45852 49197,45851 49193,45849 49190,45848 49186,45846 49182,45843 49179,45840 49176,45837 49174,45834 49171,45830 49169,45826 49168,45822 49166,45818 49111,45818 49113,45826 49116,45833 49119,45841 49122,45848 49126,45854 49131,45861 49136,45867 49141,45873 49147,45878 49154,45883 49160,45887 49167,45891 49174,45894 49182,45896 49189,45898 49197,45900 49205,45901 49213,45901 49221,45900 49230,45900 49237,45898 49245,45896 49252,45893 49260,45890 49267,45886 49273,45882 49279,45877 49285,45871 49291,45866 49296,45860 49300,45853 49304,45846 49307,45839 49310,45832 49313,45824 49314,45817 49316,45809 49316,45801 49316,45793 49315,45785 49314,45778 49312,45770 49310,45762 49307,45755 49303,45748 49299,45741 49294,45735 49289,45729 49284,45723 49278,45718 49272,45713 49265,45709 49258,45705 49251,45702 49243,45700 49236,45698 49227,45696 49219,45695 49211,45695 49203,45695 49196,45697 49188,45698 49180,45700 49173,45703 49173,45646 49295,45646 49295,45595 49118,45595 49118,45767 Z"/>
   </g>
  </g>
  <g class="com.sun.star.drawing.PolyPolygonShape">
   <g id="id15">
    <rect class="BoundingBox" stroke="none" fill="none" x="49110" y="45594" width="208" height="309"/>
    <path fill="rgb(0,0,0)" stroke="none" d="M 49118,45767 L 49171,45767 49173,45764 49175,45761 49178,45757 49180,45755 49183,45752 49187,45750 49190,45748 49194,45746 49197,45745 49201,45744 49205,45743 49209,45743 49213,45743 49217,45743 49220,45743 49224,45744 49229,45745 49233,45747 49236,45749 49240,45751 49243,45753 49246,45755 49249,45758 49251,45761 49253,45764 49255,45768 49257,45771 49258,45775 49260,45779 49260,45783 49261,45787 49261,45791 49261,45806 49261,45810 49260,45814 49259,45818 49258,45822 49256,45826 49254,45830 49252,45834 49249,45837 49246,45840 49243,45843 49240,45845 49236,45848 49232,45849 49227,45851 49223,45852 49219,45853 49214,45853 49210,45853 49206,45853 49202,45852 49197,45851 49193,45849 49190,45848 49186,45846 49182,45843 49179,45840 49176,45837 49174,45834 49171,45830 49169,45826 49168,45822 49166,45818 49111,45818 49113,45826 49116,45833 49119,45841 49122,45848 49126,45854 49131,45861 49136,45867 49141,45873 49147,45878 49154,45883 49160,45887 49167,45891 49174,45894 49182,45896 49189,45898 49197,45900 49205,45901 49213,45901 49221,45900 49230,45900 49237,45898 49245,45896 49252,45893 49260,45890 49267,45886 49273,45882 49279,45877 49285,45871 49291,45866 49296,45860 49300,45853 49304,45846 49307,45839 49310,45832 49313,45824 49314,45817 49316,45809 49316,45801 49316,45793 49315,45785 49314,45778 49312,45770 49310,45762 49307,45755 49303,45748 49299,45741 49294,45735 49289,45729 49284,45723 49278,45718 49272,45713 49265,45709 49258,45705 49251,45702 49243,45700 49236,45698 49227,45696 49219,45695 49211,45695 49203,45695 49196,45697 49188,45698 49180,45700 49173,45703 49173,45646 49295,45646 49295,45595 49118,45595 49118,45767 Z"/>
    <path fill="none" stroke="rgb(0,0,0)" d="M 49118,45767 L 49171,45767 49173,45764 49175,45761 49178,45757 49180,45755 49183,45752 49187,45750 49190,45748 49194,45746 49197,45745 49201,45744 49205,45743 49209,45743 49213,45743 49217,45743 49220,45743 49224,45744 49229,45745 49233,45747 49236,45749 49240,45751 49243,45753 49246,45755 49249,45758 49251,45761 49253,45764 49255,45768 49257,45771 49258,45775 49260,45779 49260,45783 49261,45787 49261,45791 49261,45806 49261,45810 49260,45814 49259,45818 49258,45822 49256,45826 49254,45830 49252,45834 49249,45837 49246,45840 49243,45843 49240,45845 49236,45848 49232,45849 49227,45851 49223,45852 49219,45853 49214,45853 49210,45853 49206,45853 49202,45852 49197,45851 49193,45849 49190,45848 49186,45846 49182,45843 49179,45840 49176,45837 49174,45834 49171,45830 49169,45826 49168,45822 49166,45818 49111,45818 49113,45826 49116,45833 49119,45841 49122,45848 49126,45854 49131,45861 49136,45867 49141,45873 49147,45878 49154,45883 49160,45887 49167,45891 49174,45894 49182,45896 49189,45898 49197,45900 49205,45901 49213,45901 49221,45900 49230,45900 49237,45898 49245,45896 49252,45893 49260,45890 49267,45886 49273,45882 49279,45877 49285,45871 49291,45866 49296,45860 49300,45853 49304,45846 49307,45839 49310,45832 49313,45824 49314,45817 49316,45809 49316,45801 49316,45793 49315,45785 49314,45778 49312,45770 49310,45762 49307,45755 49303,45748 49299,45741 49294,45735 49289,45729 49284,45723 49278,45718 49272,45713 49265,45709 49258,45705 49251,45702 49243,45700 49236,45698 49227,45696 49219,45695 49211,45695 49203,45695 49196,45697 49188,45698 49180,45700 49173,45703 49173,45646 49295,45646 49295,45595 49118,45595 49118,45767 Z"/>
   </g>
  </g>
  <g class="com.sun.star.drawing.PolyPolygonShape">
   <g id="id16">
    <rect class="BoundingBox" stroke="none" fill="none" x="49409" y="45588" width="209" height="316"/>
    <path fill="rgb(0,0,0)" stroke="none" d="M 49465,45686 L 49465,45804 49465,45808 49466,45813 49467,45818 49468,45822 49470,45826 49473,45830 49475,45834 49479,45837 49482,45841 49486,45843 49490,45846 49494,45848 49499,45849 49503,45851 49509,45851 49514,45851 49518,45851 49523,45851 49527,45849 49532,45848 49536,45846 49540,45843 49544,45841 49547,45837 49551,45834 49553,45830 49556,45826 49558,45822 49559,45818 49560,45813 49561,45808 49561,45804 49561,45686 49561,45682 49560,45677 49559,45672 49558,45668 49556,45664 49553,45660 49551,45656 49547,45653 49544,45649 49540,45647 49536,45644 49532,45642 49527,45641 49523,45639 49518,45639 49514,45638 49509,45639 49503,45639 49499,45641 49494,45642 49490,45644 49486,45647 49482,45649 49479,45653 49475,45656 49473,45660 49470,45664 49468,45668 49467,45672 49466,45677 49465,45682 49465,45686 Z M 49410,45691 L 49410,45799 49410,45804 49410,45809 49411,45814 49412,45819 49413,45824 49414,45828 49416,45833 49417,45838 49419,45843 49422,45847 49424,45851 49427,45856 49430,45860 49433,45864 49436,45868 49440,45871 49443,45875 49447,45878 49451,45881 49455,45884 49460,45887 49464,45889 49468,45892 49473,45894 49478,45895 49483,45897 49488,45898 49492,45900 49497,45900 49503,45901 49507,45901 49514,45902 49519,45901 49524,45901 49529,45900 49534,45900 49538,45898 49543,45897 49548,45895 49553,45894 49558,45892 49562,45889 49566,45887 49571,45884 49575,45881 49579,45878 49583,45875 49586,45871 49590,45868 49593,45864 49596,45860 49599,45856 49602,45851 49604,45847 49607,45843 49609,45838 49610,45833 49612,45828 49613,45824 49614,45819 49615,45814 49616,45809 49616,45804 49616,45799 49616,45691 49616,45686 49616,45681 49615,45676 49614,45671 49613,45666 49612,45661 49610,45657 49609,45652 49607,45647 49604,45643 49602,45638 49599,45634 49596,45630 49593,45626 49590,45622 49586,45619 49583,45615 49579,45612 49575,45609 49571,45606 49566,45603 49562,45601 49558,45598 49553,45596 49548,45594 49543,45593 49538,45592 49534,45590 49529,45590 49524,45589 49519,45589 49514,45589 49507,45589 49503,45589 49497,45590 49492,45590 49488,45592 49483,45593 49478,45594 49473,45596 49468,45598 49464,45601 49460,45603 49455,45606 49451,45609 49447,45612 49443,45615 49440,45619 49436,45622 49433,45626 49430,45630 49427,45634 49424,45638 49422,45643 49419,45647 49417,45652 49416,45657 49414,45661 49413,45666 49412,45671 49411,45676 49410,45681 49410,45686 49410,45691 Z"/>
    <path fill="none" stroke="rgb(0,0,0)" d="M 49465,45686 L 49465,45804 49465,45808 49466,45813 49467,45818 49468,45822 49470,45826 49473,45830 49475,45834 49479,45837 49482,45841 49486,45843 49490,45846 49494,45848 49499,45849 49503,45851 49509,45851 49514,45851 49518,45851 49523,45851 49527,45849 49532,45848 49536,45846 49540,45843 49544,45841 49547,45837 49551,45834 49553,45830 49556,45826 49558,45822 49559,45818 49560,45813 49561,45808 49561,45804 49561,45686 49561,45682 49560,45677 49559,45672 49558,45668 49556,45664 49553,45660 49551,45656 49547,45653 49544,45649 49540,45647 49536,45644 49532,45642 49527,45641 49523,45639 49518,45639 49514,45638 49509,45639 49503,45639 49499,45641 49494,45642 49490,45644 49486,45647 49482,45649 49479,45653 49475,45656 49473,45660 49470,45664 49468,45668 49467,45672 49466,45677 49465,45682 49465,45686 Z"/>
    <path fill="none" stroke="rgb(0,0,0)" d="M 49410,45691 L 49410,45799 49410,45804 49410,45809 49411,45814 49412,45819 49413,45824 49414,45828 49416,45833 49417,45838 49419,45843 49422,45847 49424,45851 49427,45856 49430,45860 49433,45864 49436,45868 49440,45871 49443,45875 49447,45878 49451,45881 49455,45884 49460,45887 49464,45889 49468,45892 49473,45894 49478,45895 49483,45897 49488,45898 49492,45900 49497,45900 49503,45901 49507,45901 49514,45902 49519,45901 49524,45901 49529,45900 49534,45900 49538,45898 49543,45897 49548,45895 49553,45894 49558,45892 49562,45889 49566,45887 49571,45884 49575,45881 49579,45878 49583,45875 49586,45871 49590,45868 49593,45864 49596,45860 49599,45856 49602,45851 49604,45847 49607,45843 49609,45838 49610,45833 49612,45828 49613,45824 49614,45819 49615,45814 49616,45809 49616,45804 49616,45799 49616,45691 49616,45686 49616,45681 49615,45676 49614,45671 49613,45666 49612,45661 49610,45657 49609,45652 49607,45647 49604,45643 49602,45638 49599,45634 49596,45630 49593,45626 49590,45622 49586,45619 49583,45615 49579,45612 49575,45609 49571,45606 49566,45603 49562,45601 49558,45598 49553,45596 49548,45594 49543,45593 49538,45592 49534,45590 49529,45590 49524,45589 49519,45589 49514,45589 49507,45589 49503,45589 49497,45590 49492,45590 49488,45592 49483,45593 49478,45594 49473,45596 49468,45598 49464,45601 49460,45603 49455,45606 49451,45609 49447,45612 49443,45615 49440,45619 49436,45622 49433,45626 49430,45630 49427,45634 49424,45638 49422,45643 49419,45647 49417,45652 49416,45657 49414,45661 49413,45666 49412,45671 49411,45676 49410,45681 49410,45686 49410,45691 Z"/>
   </g>
  </g>
  <g class="com.sun.star.drawing.PolyPolygonShape">
   <g id="id17">
    <rect class="BoundingBox" stroke="none" fill="none" x="49409" y="45588" width="209" height="316"/>
    <path fill="rgb(0,0,0)" stroke="none" d="M 49465,45686 L 49465,45804 49465,45808 49466,45813 49467,45818 49468,45822 49470,45826 49473,45830 49475,45834 49479,45837 49482,45841 49486,45843 49490,45846 49494,45848 49499,45849 49503,45851 49509,45851 49514,45851 49518,45851 49523,45851 49527,45849 49532,45848 49536,45846 49540,45843 49544,45841 49547,45837 49551,45834 49553,45830 49556,45826 49558,45822 49559,45818 49560,45813 49561,45808 49561,45804 49561,45686 49561,45682 49560,45677 49559,45672 49558,45668 49556,45664 49553,45660 49551,45656 49547,45653 49544,45649 49540,45647 49536,45644 49532,45642 49527,45641 49523,45639 49518,45639 49514,45638 49509,45639 49503,45639 49499,45641 49494,45642 49490,45644 49486,45647 49482,45649 49479,45653 49475,45656 49473,45660 49470,45664 49468,45668 49467,45672 49466,45677 49465,45682 49465,45686 Z M 49410,45691 L 49410,45799 49410,45804 49410,45809 49411,45814 49412,45819 49413,45824 49414,45828 49416,45833 49417,45838 49419,45843 49422,45847 49424,45851 49427,45856 49430,45860 49433,45864 49436,45868 49440,45871 49443,45875 49447,45878 49451,45881 49455,45884 49460,45887 49464,45889 49468,45892 49473,45894 49478,45895 49483,45897 49488,45898 49492,45900 49497,45900 49503,45901 49507,45901 49514,45902 49519,45901 49524,45901 49529,45900 49534,45900 49538,45898 49543,45897 49548,45895 49553,45894 49558,45892 49562,45889 49566,45887 49571,45884 49575,45881 49579,45878 49583,45875 49586,45871 49590,45868 49593,45864 49596,45860 49599,45856 49602,45851 49604,45847 49607,45843 49609,45838 49610,45833 49612,45828 49613,45824 49614,45819 49615,45814 49616,45809 49616,45804 49616,45799 49616,45691 49616,45686 49616,45681 49615,45676 49614,45671 49613,45666 49612,45661 49610,45657 49609,45652 49607,45647 49604,45643 49602,45638 49599,45634 49596,45630 49593,45626 49590,45622 49586,45619 49583,45615 49579,45612 49575,45609 49571,45606 49566,45603 49562,45601 49558,45598 49553,45596 49548,45594 49543,45593 49538,45592 49534,45590 49529,45590 49524,45589 49519,45589 49514,45589 49507,45589 49503,45589 49497,45590 49492,45590 49488,45592 49483,45593 49478,45594 49473,45596 49468,45598 49464,45601 49460,45603 49455,45606 49451,45609 49447,45612 49443,45615 49440,45619 49436,45622 49433,45626 49430,45630 49427,45634 49424,45638 49422,45643 49419,45647 49417,45652 49416,45657 49414,45661 49413,45666 49412,45671 49411,45676 49410,45681 49410,45686 49410,45691 Z"/>
    <path fill="none" stroke="rgb(0,0,0)" d="M 49465,45686 L 49465,45804 49465,45808 49466,45813 49467,45818 49468,45822 49470,45826 49473,45830 49475,45834 49479,45837 49482,45841 49486,45843 49490,45846 49494,45848 49499,45849 49503,45851 49509,45851 49514,45851 49518,45851 49523,45851 49527,45849 49532,45848 49536,45846 49540,45843 49544,45841 49547,45837 49551,45834 49553,45830 49556,45826 49558,45822 49559,45818 49560,45813 49561,45808 49561,45804 49561,45686 49561,45682 49560,45677 49559,45672 49558,45668 49556,45664 49553,45660 49551,45656 49547,45653 49544,45649 49540,45647 49536,45644 49532,45642 49527,45641 49523,45639 49518,45639 49514,45638 49509,45639 49503,45639 49499,45641 49494,45642 49490,45644 49486,45647 49482,45649 49479,45653 49475,45656 49473,45660 49470,45664 49468,45668 49467,45672 49466,45677 49465,45682 49465,45686 Z"/>
    <path fill="none" stroke="rgb(0,0,0)" d="M 49410,45691 L 49410,45799 49410,45804 49410,45809 49411,45814 49412,45819 49413,45824 49414,45828 49416,45833 49417,45838 49419,45843 49422,45847 49424,45851 49427,45856 49430,45860 49433,45864 49436,45868 49440,45871 49443,45875 49447,45878 49451,45881 49455,45884 49460,45887 49464,45889 49468,45892 49473,45894 49478,45895 49483,45897 49488,45898 49492,45900 49497,45900 49503,45901 49507,45901 49514,45902 49519,45901 49524,45901 49529,45900 49534,45900 49538,45898 49543,45897 49548,45895 49553,45894 49558,45892 49562,45889 49566,45887 49571,45884 49575,45881 49579,45878 49583,45875 49586,45871 49590,45868 49593,45864 49596,45860 49599,45856 49602,45851 49604,45847 49607,45843 49609,45838 49610,45833 49612,45828 49613,45824 49614,45819 49615,45814 49616,45809 49616,45804 49616,45799 49616,45691 49616,45686 49616,45681 49615,45676 49614,45671 49613,45666 49612,45661 49610,45657 49609,45652 49607,45647 49604,45643 49602,45638 49599,45634 49596,45630 49593,45626 49590,45622 49586,45619 49583,45615 49579,45612 49575,45609 49571,45606 49566,45603 49562,45601 49558,45598 49553,45596 49548,45594 49543,45593 49538,45592 49534,45590 49529,45590 49524,45589 49519,45589 49514,45589 49507,45589 49503,45589 49497,45590 49492,45590 49488,45592 49483,45593 49478,45594 49473,45596 49468,45598 49464,45601 49460,45603 49455,45606 49451,45609 49447,45612 49443,45615 49440,45619 49436,45622 49433,45626 49430,45630 49427,45634 49424,45638 49422,45643 49419,45647 49417,45652 49416,45657 49414,45661 49413,45666 49412,45671 49411,45676 49410,45681 49410,45686 49410,45691 Z"/>
   </g>
  </g>
  <g class="com.sun.star.drawing.PolyPolygonShape">
   <g id="id18">
    <rect class="BoundingBox" stroke="none" fill="none" x="49409" y="45588" width="209" height="316"/>
    <path fill="rgb(0,0,0)" stroke="none" d="M 49465,45686 L 49465,45804 49465,45808 49466,45813 49467,45818 49468,45822 49470,45826 49473,45830 49475,45834 49479,45837 49482,45841 49486,45843 49490,45846 49494,45848 49499,45849 49503,45851 49509,45851 49514,45851 49518,45851 49523,45851 49527,45849 49532,45848 49536,45846 49540,45843 49544,45841 49547,45837 49551,45834 49553,45830 49556,45826 49558,45822 49559,45818 49560,45813 49561,45808 49561,45804 49561,45686 49561,45682 49560,45677 49559,45672 49558,45668 49556,45664 49553,45660 49551,45656 49547,45653 49544,45649 49540,45647 49536,45644 49532,45642 49527,45641 49523,45639 49518,45639 49514,45638 49509,45639 49503,45639 49499,45641 49494,45642 49490,45644 49486,45647 49482,45649 49479,45653 49475,45656 49473,45660 49470,45664 49468,45668 49467,45672 49466,45677 49465,45682 49465,45686 Z M 49410,45691 L 49410,45799 49410,45804 49410,45809 49411,45814 49412,45819 49413,45824 49414,45828 49416,45833 49417,45838 49419,45843 49422,45847 49424,45851 49427,45856 49430,45860 49433,45864 49436,45868 49440,45871 49443,45875 49447,45878 49451,45881 49455,45884 49460,45887 49464,45889 49468,45892 49473,45894 49478,45895 49483,45897 49488,45898 49492,45900 49497,45900 49503,45901 49507,45901 49514,45902 49519,45901 49524,45901 49529,45900 49534,45900 49538,45898 49543,45897 49548,45895 49553,45894 49558,45892 49562,45889 49566,45887 49571,45884 49575,45881 49579,45878 49583,45875 49586,45871 49590,45868 49593,45864 49596,45860 49599,45856 49602,45851 49604,45847 49607,45843 49609,45838 49610,45833 49612,45828 49613,45824 49614,45819 49615,45814 49616,45809 49616,45804 49616,45799 49616,45691 49616,45686 49616,45681 49615,45676 49614,45671 49613,45666 49612,45661 49610,45657 49609,45652 49607,45647 49604,45643 49602,45638 49599,45634 49596,45630 49593,45626 49590,45622 49586,45619 49583,45615 49579,45612 49575,45609 49571,45606 49566,45603 49562,45601 49558,45598 49553,45596 49548,45594 49543,45593 49538,45592 49534,45590 49529,45590 49524,45589 49519,45589 49514,45589 49507,45589 49503,45589 49497,45590 49492,45590 49488,45592 49483,45593 49478,45594 49473,45596 49468,45598 49464,45601 49460,45603 49455,45606 49451,45609 49447,45612 49443,45615 49440,45619 49436,45622 49433,45626 49430,45630 49427,45634 49424,45638 49422,45643 49419,45647 49417,45652 49416,45657 49414,45661 49413,45666 49412,45671 49411,45676 49410,45681 49410,45686 49410,45691 Z"/>
    <path fill="none" stroke="rgb(0,0,0)" d="M 49465,45686 L 49465,45804 49465,45808 49466,45813 49467,45818 49468,45822 49470,45826 49473,45830 49475,45834 49479,45837 49482,45841 49486,45843 49490,45846 49494,45848 49499,45849 49503,45851 49509,45851 49514,45851 49518,45851 49523,45851 49527,45849 49532,45848 49536,45846 49540,45843 49544,45841 49547,45837 49551,45834 49553,45830 49556,45826 49558,45822 49559,45818 49560,45813 49561,45808 49561,45804 49561,45686 49561,45682 49560,45677 49559,45672 49558,45668 49556,45664 49553,45660 49551,45656 49547,45653 49544,45649 49540,45647 49536,45644 49532,45642 49527,45641 49523,45639 49518,45639 49514,45638 49509,45639 49503,45639 49499,45641 49494,45642 49490,45644 49486,45647 49482,45649 49479,45653 49475,45656 49473,45660 49470,45664 49468,45668 49467,45672 49466,45677 49465,45682 49465,45686 Z"/>
    <path fill="none" stroke="rgb(0,0,0)" d="M 49410,45691 L 49410,45799 49410,45804 49410,45809 49411,45814 49412,45819 49413,45824 49414,45828 49416,45833 49417,45838 49419,45843 49422,45847 49424,45851 49427,45856 49430,45860 49433,45864 49436,45868 49440,45871 49443,45875 49447,45878 49451,45881 49455,45884 49460,45887 49464,45889 49468,45892 49473,45894 49478,45895 49483,45897 49488,45898 49492,45900 49497,45900 49503,45901 49507,45901 49514,45902 49519,45901 49524,45901 49529,45900 49534,45900 49538,45898 49543,45897 49548,45895 49553,45894 49558,45892 49562,45889 49566,45887 49571,45884 49575,45881 49579,45878 49583,45875 49586,45871 49590,45868 49593,45864 49596,45860 49599,45856 49602,45851 49604,45847 49607,45843 49609,45838 49610,45833 49612,45828 49613,45824 49614,45819 49615,45814 49616,45809 49616,45804 49616,45799 49616,45691 49616,45686 49616,45681 49615,45676 49614,45671 49613,45666 49612,45661 49610,45657 49609,45652 49607,45647 49604,45643 49602,45638 49599,45634 49596,45630 49593,45626 49590,45622 49586,45619 49583,45615 49579,45612 49575,45609 49571,45606 49566,45603 49562,45601 49558,45598 49553,45596 49548,45594 49543,45593 49538,45592 49534,45590 49529,45590 49524,45589 49519,45589 49514,45589 49507,45589 49503,45589 49497,45590 49492,45590 49488,45592 49483,45593 49478,45594 49473,45596 49468,45598 49464,45601 49460,45603 49455,45606 49451,45609 49447,45612 49443,45615 49440,45619 49436,45622 49433,45626 49430,45630 49427,45634 49424,45638 49422,45643 49419,45647 49417,45652 49416,45657 49414,45661 49413,45666 49412,45671 49411,45676 49410,45681 49410,45686 49410,45691 Z"/>
   </g>
  </g>
  <g class="com.sun.star.drawing.PolyPolygonShape">
   <g id="id19">
    <rect class="BoundingBox" stroke="none" fill="none" x="49719" y="45588" width="210" height="316"/>
    <path fill="rgb(0,0,0)" stroke="none" d="M 49775,45686 L 49775,45804 49776,45808 49776,45813 49778,45818 49779,45822 49781,45826 49783,45830 49786,45834 49789,45837 49793,45841 49797,45843 49801,45846 49805,45848 49809,45849 49814,45851 49819,45851 49823,45851 49828,45851 49833,45851 49837,45849 49842,45848 49846,45846 49850,45843 49854,45841 49857,45837 49860,45834 49863,45830 49865,45826 49867,45822 49869,45818 49870,45813 49871,45808 49871,45804 49871,45686 49871,45682 49870,45677 49869,45672 49867,45668 49865,45664 49863,45660 49860,45656 49857,45653 49854,45649 49850,45647 49846,45644 49842,45642 49837,45641 49833,45639 49828,45639 49823,45638 49819,45639 49814,45639 49809,45641 49805,45642 49801,45644 49797,45647 49793,45649 49789,45653 49786,45656 49783,45660 49781,45664 49779,45668 49778,45672 49776,45677 49776,45682 49775,45686 Z M 49720,45691 L 49720,45799 49721,45804 49721,45809 49721,45814 49722,45819 49723,45824 49725,45828 49726,45833 49728,45838 49730,45843 49733,45847 49735,45851 49738,45856 49741,45860 49744,45864 49747,45868 49750,45871 49754,45875 49758,45878 49762,45881 49766,45884 49770,45887 49775,45889 49779,45892 49784,45894 49789,45895 49793,45897 49798,45898 49803,45900 49808,45900 49813,45901 49818,45901 49823,45902 49828,45901 49833,45901 49838,45900 49843,45900 49848,45898 49853,45897 49858,45895 49863,45894 49867,45892 49872,45889 49876,45887 49880,45884 49885,45881 49889,45878 49892,45875 49896,45871 49900,45868 49903,45864 49906,45860 49909,45856 49912,45851 49914,45847 49916,45843 49919,45838 49921,45833 49923,45828 49924,45824 49925,45819 49926,45814 49927,45809 49927,45804 49927,45799 49927,45691 49927,45686 49927,45681 49926,45676 49925,45671 49924,45666 49923,45661 49921,45657 49919,45652 49916,45647 49914,45643 49912,45638 49909,45634 49906,45630 49903,45626 49900,45622 49896,45619 49892,45615 49889,45612 49885,45609 49880,45606 49876,45603 49872,45601 49867,45598 49863,45596 49858,45594 49853,45593 49848,45592 49843,45590 49838,45590 49833,45589 49828,45589 49823,45589 49818,45589 49813,45589 49808,45590 49803,45590 49798,45592 49793,45593 49789,45594 49784,45596 49779,45598 49775,45601 49770,45603 49766,45606 49762,45609 49758,45612 49754,45615 49750,45619 49747,45622 49744,45626 49741,45630 49738,45634 49735,45638 49733,45643 49730,45647 49728,45652 49726,45657 49725,45661 49723,45666 49722,45671 49721,45676 49721,45681 49721,45686 49720,45691 Z"/>
    <path fill="none" stroke="rgb(0,0,0)" d="M 49775,45686 L 49775,45804 49776,45808 49776,45813 49778,45818 49779,45822 49781,45826 49783,45830 49786,45834 49789,45837 49793,45841 49797,45843 49801,45846 49805,45848 49809,45849 49814,45851 49819,45851 49823,45851 49828,45851 49833,45851 49837,45849 49842,45848 49846,45846 49850,45843 49854,45841 49857,45837 49860,45834 49863,45830 49865,45826 49867,45822 49869,45818 49870,45813 49871,45808 49871,45804 49871,45686 49871,45682 49870,45677 49869,45672 49867,45668 49865,45664 49863,45660 49860,45656 49857,45653 49854,45649 49850,45647 49846,45644 49842,45642 49837,45641 49833,45639 49828,45639 49823,45638 49819,45639 49814,45639 49809,45641 49805,45642 49801,45644 49797,45647 49793,45649 49789,45653 49786,45656 49783,45660 49781,45664 49779,45668 49778,45672 49776,45677 49776,45682 49775,45686 Z"/>
    <path fill="none" stroke="rgb(0,0,0)" d="M 49720,45691 L 49720,45799 49721,45804 49721,45809 49721,45814 49722,45819 49723,45824 49725,45828 49726,45833 49728,45838 49730,45843 49733,45847 49735,45851 49738,45856 49741,45860 49744,45864 49747,45868 49750,45871 49754,45875 49758,45878 49762,45881 49766,45884 49770,45887 49775,45889 49779,45892 49784,45894 49789,45895 49793,45897 49798,45898 49803,45900 49808,45900 49813,45901 49818,45901 49823,45902 49828,45901 49833,45901 49838,45900 49843,45900 49848,45898 49853,45897 49858,45895 49863,45894 49867,45892 49872,45889 49876,45887 49880,45884 49885,45881 49889,45878 49892,45875 49896,45871 49900,45868 49903,45864 49906,45860 49909,45856 49912,45851 49914,45847 49916,45843 49919,45838 49921,45833 49923,45828 49924,45824 49925,45819 49926,45814 49927,45809 49927,45804 49927,45799 49927,45691 49927,45686 49927,45681 49926,45676 49925,45671 49924,45666 49923,45661 49921,45657 49919,45652 49916,45647 49914,45643 49912,45638 49909,45634 49906,45630 49903,45626 49900,45622 49896,45619 49892,45615 49889,45612 49885,45609 49880,45606 49876,45603 49872,45601 49867,45598 49863,45596 49858,45594 49853,45593 49848,45592 49843,45590 49838,45590 49833,45589 49828,45589 49823,45589 49818,45589 49813,45589 49808,45590 49803,45590 49798,45592 49793,45593 49789,45594 49784,45596 49779,45598 49775,45601 49770,45603 49766,45606 49762,45609 49758,45612 49754,45615 49750,45619 49747,45622 49744,45626 49741,45630 49738,45634 49735,45638 49733,45643 49730,45647 49728,45652 49726,45657 49725,45661 49723,45666 49722,45671 49721,45676 49721,45681 49721,45686 49720,45691 Z"/>
   </g>
  </g>
  <g class="com.sun.star.drawing.PolyPolygonShape">
   <g id="id20">
    <rect class="BoundingBox" stroke="none" fill="none" x="49719" y="45588" width="210" height="316"/>
    <path fill="rgb(0,0,0)" stroke="none" d="M 49775,45686 L 49775,45804 49776,45808 49776,45813 49778,45818 49779,45822 49781,45826 49783,45830 49786,45834 49789,45837 49793,45841 49797,45843 49801,45846 49805,45848 49809,45849 49814,45851 49819,45851 49823,45851 49828,45851 49833,45851 49837,45849 49842,45848 49846,45846 49850,45843 49854,45841 49857,45837 49860,45834 49863,45830 49865,45826 49867,45822 49869,45818 49870,45813 49871,45808 49871,45804 49871,45686 49871,45682 49870,45677 49869,45672 49867,45668 49865,45664 49863,45660 49860,45656 49857,45653 49854,45649 49850,45647 49846,45644 49842,45642 49837,45641 49833,45639 49828,45639 49823,45638 49819,45639 49814,45639 49809,45641 49805,45642 49801,45644 49797,45647 49793,45649 49789,45653 49786,45656 49783,45660 49781,45664 49779,45668 49778,45672 49776,45677 49776,45682 49775,45686 Z M 49720,45691 L 49720,45799 49721,45804 49721,45809 49721,45814 49722,45819 49723,45824 49725,45828 49726,45833 49728,45838 49730,45843 49733,45847 49735,45851 49738,45856 49741,45860 49744,45864 49747,45868 49750,45871 49754,45875 49758,45878 49762,45881 49766,45884 49770,45887 49775,45889 49779,45892 49784,45894 49789,45895 49793,45897 49798,45898 49803,45900 49808,45900 49813,45901 49818,45901 49823,45902 49828,45901 49833,45901 49838,45900 49843,45900 49848,45898 49853,45897 49858,45895 49863,45894 49867,45892 49872,45889 49876,45887 49880,45884 49885,45881 49889,45878 49892,45875 49896,45871 49900,45868 49903,45864 49906,45860 49909,45856 49912,45851 49914,45847 49916,45843 49919,45838 49921,45833 49923,45828 49924,45824 49925,45819 49926,45814 49927,45809 49927,45804 49927,45799 49927,45691 49927,45686 49927,45681 49926,45676 49925,45671 49924,45666 49923,45661 49921,45657 49919,45652 49916,45647 49914,45643 49912,45638 49909,45634 49906,45630 49903,45626 49900,45622 49896,45619 49892,45615 49889,45612 49885,45609 49880,45606 49876,45603 49872,45601 49867,45598 49863,45596 49858,45594 49853,45593 49848,45592 49843,45590 49838,45590 49833,45589 49828,45589 49823,45589 49818,45589 49813,45589 49808,45590 49803,45590 49798,45592 49793,45593 49789,45594 49784,45596 49779,45598 49775,45601 49770,45603 49766,45606 49762,45609 49758,45612 49754,45615 49750,45619 49747,45622 49744,45626 49741,45630 49738,45634 49735,45638 49733,45643 49730,45647 49728,45652 49726,45657 49725,45661 49723,45666 49722,45671 49721,45676 49721,45681 49721,45686 49720,45691 Z"/>
    <path fill="none" stroke="rgb(0,0,0)" d="M 49775,45686 L 49775,45804 49776,45808 49776,45813 49778,45818 49779,45822 49781,45826 49783,45830 49786,45834 49789,45837 49793,45841 49797,45843 49801,45846 49805,45848 49809,45849 49814,45851 49819,45851 49823,45851 49828,45851 49833,45851 49837,45849 49842,45848 49846,45846 49850,45843 49854,45841 49857,45837 49860,45834 49863,45830 49865,45826 49867,45822 49869,45818 49870,45813 49871,45808 49871,45804 49871,45686 49871,45682 49870,45677 49869,45672 49867,45668 49865,45664 49863,45660 49860,45656 49857,45653 49854,45649 49850,45647 49846,45644 49842,45642 49837,45641 49833,45639 49828,45639 49823,45638 49819,45639 49814,45639 49809,45641 49805,45642 49801,45644 49797,45647 49793,45649 49789,45653 49786,45656 49783,45660 49781,45664 49779,45668 49778,45672 49776,45677 49776,45682 49775,45686 Z"/>
    <path fill="none" stroke="rgb(0,0,0)" d="M 49720,45691 L 49720,45799 49721,45804 49721,45809 49721,45814 49722,45819 49723,45824 49725,45828 49726,45833 49728,45838 49730,45843 49733,45847 49735,45851 49738,45856 49741,45860 49744,45864 49747,45868 49750,45871 49754,45875 49758,45878 49762,45881 49766,45884 49770,45887 49775,45889 49779,45892 49784,45894 49789,45895 49793,45897 49798,45898 49803,45900 49808,45900 49813,45901 49818,45901 49823,45902 49828,45901 49833,45901 49838,45900 49843,45900 49848,45898 49853,45897 49858,45895 49863,45894 49867,45892 49872,45889 49876,45887 49880,45884 49885,45881 49889,45878 49892,45875 49896,45871 49900,45868 49903,45864 49906,45860 49909,45856 49912,45851 49914,45847 49916,45843 49919,45838 49921,45833 49923,45828 49924,45824 49925,45819 49926,45814 49927,45809 49927,45804 49927,45799 49927,45691 49927,45686 49927,45681 49926,45676 49925,45671 49924,45666 49923,45661 49921,45657 49919,45652 49916,45647 49914,45643 49912,45638 49909,45634 49906,45630 49903,45626 49900,45622 49896,45619 49892,45615 49889,45612 49885,45609 49880,45606 49876,45603 49872,45601 49867,45598 49863,45596 49858,45594 49853,45593 49848,45592 49843,45590 49838,45590 49833,45589 49828,45589 49823,45589 49818,45589 49813,45589 49808,45590 49803,45590 49798,45592 49793,45593 49789,45594 49784,45596 49779,45598 49775,45601 49770,45603 49766,45606 49762,45609 49758,45612 49754,45615 49750,45619 49747,45622 49744,45626 49741,45630 49738,45634 49735,45638 49733,45643 49730,45647 49728,45652 49726,45657 49725,45661 49723,45666 49722,45671 49721,45676 49721,45681 49721,45686 49720,45691 Z"/>
   </g>
  </g>
  <g class="com.sun.star.drawing.PolyPolygonShape">
   <g id="id21">
    <rect class="BoundingBox" stroke="none" fill="none" x="49719" y="45588" width="210" height="316"/>
    <path fill="rgb(0,0,0)" stroke="none" d="M 49775,45686 L 49775,45804 49776,45808 49776,45813 49778,45818 49779,45822 49781,45826 49783,45830 49786,45834 49789,45837 49793,45841 49797,45843 49801,45846 49805,45848 49809,45849 49814,45851 49819,45851 49823,45851 49828,45851 49833,45851 49837,45849 49842,45848 49846,45846 49850,45843 49854,45841 49857,45837 49860,45834 49863,45830 49865,45826 49867,45822 49869,45818 49870,45813 49871,45808 49871,45804 49871,45686 49871,45682 49870,45677 49869,45672 49867,45668 49865,45664 49863,45660 49860,45656 49857,45653 49854,45649 49850,45647 49846,45644 49842,45642 49837,45641 49833,45639 49828,45639 49823,45638 49819,45639 49814,45639 49809,45641 49805,45642 49801,45644 49797,45647 49793,45649 49789,45653 49786,45656 49783,45660 49781,45664 49779,45668 49778,45672 49776,45677 49776,45682 49775,45686 Z M 49720,45691 L 49720,45799 49721,45804 49721,45809 49721,45814 49722,45819 49723,45824 49725,45828 49726,45833 49728,45838 49730,45843 49733,45847 49735,45851 49738,45856 49741,45860 49744,45864 49747,45868 49750,45871 49754,45875 49758,45878 49762,45881 49766,45884 49770,45887 49775,45889 49779,45892 49784,45894 49789,45895 49793,45897 49798,45898 49803,45900 49808,45900 49813,45901 49818,45901 49823,45902 49828,45901 49833,45901 49838,45900 49843,45900 49848,45898 49853,45897 49858,45895 49863,45894 49867,45892 49872,45889 49876,45887 49880,45884 49885,45881 49889,45878 49892,45875 49896,45871 49900,45868 49903,45864 49906,45860 49909,45856 49912,45851 49914,45847 49916,45843 49919,45838 49921,45833 49923,45828 49924,45824 49925,45819 49926,45814 49927,45809 49927,45804 49927,45799 49927,45691 49927,45686 49927,45681 49926,45676 49925,45671 49924,45666 49923,45661 49921,45657 49919,45652 49916,45647 49914,45643 49912,45638 49909,45634 49906,45630 49903,45626 49900,45622 49896,45619 49892,45615 49889,45612 49885,45609 49880,45606 49876,45603 49872,45601 49867,45598 49863,45596 49858,45594 49853,45593 49848,45592 49843,45590 49838,45590 49833,45589 49828,45589 49823,45589 49818,45589 49813,45589 49808,45590 49803,45590 49798,45592 49793,45593 49789,45594 49784,45596 49779,45598 49775,45601 49770,45603 49766,45606 49762,45609 49758,45612 49754,45615 49750,45619 49747,45622 49744,45626 49741,45630 49738,45634 49735,45638 49733,45643 49730,45647 49728,45652 49726,45657 49725,45661 49723,45666 49722,45671 49721,45676 49721,45681 49721,45686 49720,45691 Z"/>
    <path fill="none" stroke="rgb(0,0,0)" d="M 49775,45686 L 49775,45804 49776,45808 49776,45813 49778,45818 49779,45822 49781,45826 49783,45830 49786,45834 49789,45837 49793,45841 49797,45843 49801,45846 49805,45848 49809,45849 49814,45851 49819,45851 49823,45851 49828,45851 49833,45851 49837,45849 49842,45848 49846,45846 49850,45843 49854,45841 49857,45837 49860,45834 49863,45830 49865,45826 49867,45822 49869,45818 49870,45813 49871,45808 49871,45804 49871,45686 49871,45682 49870,45677 49869,45672 49867,45668 49865,45664 49863,45660 49860,45656 49857,45653 49854,45649 49850,45647 49846,45644 49842,45642 49837,45641 49833,45639 49828,45639 49823,45638 49819,45639 49814,45639 49809,45641 49805,45642 49801,45644 49797,45647 49793,45649 49789,45653 49786,45656 49783,45660 49781,45664 49779,45668 49778,45672 49776,45677 49776,45682 49775,45686 Z"/>
    <path fill="none" stroke="rgb(0,0,0)" d="M 49720,45691 L 49720,45799 49721,45804 49721,45809 49721,45814 49722,45819 49723,45824 49725,45828 49726,45833 49728,45838 49730,45843 49733,45847 49735,45851 49738,45856 49741,45860 49744,45864 49747,45868 49750,45871 49754,45875 49758,45878 49762,45881 49766,45884 49770,45887 49775,45889 49779,45892 49784,45894 49789,45895 49793,45897 49798,45898 49803,45900 49808,45900 49813,45901 49818,45901 49823,45902 49828,45901 49833,45901 49838,45900 49843,45900 49848,45898 49853,45897 49858,45895 49863,45894 49867,45892 49872,45889 49876,45887 49880,45884 49885,45881 49889,45878 49892,45875 49896,45871 49900,45868 49903,45864 49906,45860 49909,45856 49912,45851 49914,45847 49916,45843 49919,45838 49921,45833 49923,45828 49924,45824 49925,45819 49926,45814 49927,45809 49927,45804 49927,45799 49927,45691 49927,45686 49927,45681 49926,45676 49925,45671 49924,45666 49923,45661 49921,45657 49919,45652 49916,45647 49914,45643 49912,45638 49909,45634 49906,45630 49903,45626 49900,45622 49896,45619 49892,45615 49889,45612 49885,45609 49880,45606 49876,45603 49872,45601 49867,45598 49863,45596 49858,45594 49853,45593 49848,45592 49843,45590 49838,45590 49833,45589 49828,45589 49823,45589 49818,45589 49813,45589 49808,45590 49803,45590 49798,45592 49793,45593 49789,45594 49784,45596 49779,45598 49775,45601 49770,45603 49766,45606 49762,45609 49758,45612 49754,45615 49750,45619 49747,45622 49744,45626 49741,45630 49738,45634 49735,45638 49733,45643 49730,45647 49728,45652 49726,45657 49725,45661 49723,45666 49722,45671 49721,45676 49721,45681 49721,45686 49720,45691 Z"/>
   </g>
  </g>
  <g class="com.sun.star.drawing.PolyPolygonShape">
   <g id="id22">
    <rect class="BoundingBox" stroke="none" fill="none" x="50097" y="45673" width="297" height="224"/>
    <path fill="rgb(0,0,0)" stroke="none" d="M 50098,45895 L 50148,45895 50148,45753 50148,45749 50148,45746 50149,45742 50150,45739 50152,45736 50154,45733 50156,45730 50158,45728 50161,45725 50163,45723 50166,45721 50170,45720 50173,45719 50176,45718 50180,45717 50183,45717 50187,45717 50190,45718 50194,45719 50197,45720 50200,45721 50203,45723 50206,45725 50209,45728 50211,45730 50213,45733 50215,45736 50216,45739 50218,45742 50218,45746 50219,45749 50219,45753 50219,45895 50270,45895 50270,45753 50270,45749 50271,45746 50272,45742 50273,45739 50274,45736 50276,45733 50278,45730 50281,45728 50283,45725 50286,45723 50289,45721 50292,45720 50295,45719 50299,45718 50302,45717 50306,45717 50309,45717 50313,45718 50316,45719 50320,45720 50323,45721 50326,45723 50328,45725 50331,45728 50333,45730 50336,45733 50337,45736 50339,45739 50340,45742 50341,45746 50341,45749 50341,45753 50341,45895 50392,45895 50392,45745 50391,45739 50390,45733 50389,45728 50388,45722 50386,45717 50383,45712 50380,45707 50377,45702 50373,45698 50369,45693 50365,45690 50360,45686 50356,45683 50350,45681 50345,45678 50340,45677 50334,45675 50328,45675 50323,45674 50317,45674 50311,45675 50305,45676 50300,45677 50294,45679 50289,45682 50284,45685 50280,45688 50275,45691 50271,45695 50267,45700 50263,45704 50260,45709 50258,45705 50256,45702 50253,45699 50249,45696 50247,45693 50244,45690 50240,45688 50237,45686 50233,45683 50230,45682 50226,45680 50222,45678 50218,45677 50215,45676 50211,45675 50207,45675 50203,45674 50198,45674 50195,45674 50190,45675 50186,45675 50182,45676 50178,45677 50175,45678 50171,45680 50167,45682 50163,45683 50160,45686 50157,45688 50154,45690 50151,45693 50148,45696 50148,45680 50098,45680 50098,45895 Z"/>
    <path fill="none" stroke="rgb(0,0,0)" d="M 50098,45895 L 50148,45895 50148,45753 50148,45749 50148,45746 50149,45742 50150,45739 50152,45736 50154,45733 50156,45730 50158,45728 50161,45725 50163,45723 50166,45721 50170,45720 50173,45719 50176,45718 50180,45717 50183,45717 50187,45717 50190,45718 50194,45719 50197,45720 50200,45721 50203,45723 50206,45725 50209,45728 50211,45730 50213,45733 50215,45736 50216,45739 50218,45742 50218,45746 50219,45749 50219,45753 50219,45895 50270,45895 50270,45753 50270,45749 50271,45746 50272,45742 50273,45739 50274,45736 50276,45733 50278,45730 50281,45728 50283,45725 50286,45723 50289,45721 50292,45720 50295,45719 50299,45718 50302,45717 50306,45717 50309,45717 50313,45718 50316,45719 50320,45720 50323,45721 50326,45723 50328,45725 50331,45728 50333,45730 50336,45733 50337,45736 50339,45739 50340,45742 50341,45746 50341,45749 50341,45753 50341,45895 50392,45895 50392,45745 50391,45739 50390,45733 50389,45728 50388,45722 50386,45717 50383,45712 50380,45707 50377,45702 50373,45698 50369,45693 50365,45690 50360,45686 50356,45683 50350,45681 50345,45678 50340,45677 50334,45675 50328,45675 50323,45674 50317,45674 50311,45675 50305,45676 50300,45677 50294,45679 50289,45682 50284,45685 50280,45688 50275,45691 50271,45695 50267,45700 50263,45704 50260,45709 50258,45705 50256,45702 50253,45699 50249,45696 50247,45693 50244,45690 50240,45688 50237,45686 50233,45683 50230,45682 50226,45680 50222,45678 50218,45677 50215,45676 50211,45675 50207,45675 50203,45674 50198,45674 50195,45674 50190,45675 50186,45675 50182,45676 50178,45677 50175,45678 50171,45680 50167,45682 50163,45683 50160,45686 50157,45688 50154,45690 50151,45693 50148,45696 50148,45680 50098,45680 50098,45895 Z"/>
   </g>
  </g>
  <g class="com.sun.star.drawing.PolyPolygonShape">
   <g id="id23">
    <rect class="BoundingBox" stroke="none" fill="none" x="50097" y="45673" width="297" height="224"/>
    <path fill="rgb(0,0,0)" stroke="none" d="M 50098,45895 L 50148,45895 50148,45753 50148,45749 50148,45746 50149,45742 50150,45739 50152,45736 50154,45733 50156,45730 50158,45728 50161,45725 50163,45723 50166,45721 50170,45720 50173,45719 50176,45718 50180,45717 50183,45717 50187,45717 50190,45718 50194,45719 50197,45720 50200,45721 50203,45723 50206,45725 50209,45728 50211,45730 50213,45733 50215,45736 50216,45739 50218,45742 50218,45746 50219,45749 50219,45753 50219,45895 50270,45895 50270,45753 50270,45749 50271,45746 50272,45742 50273,45739 50274,45736 50276,45733 50278,45730 50281,45728 50283,45725 50286,45723 50289,45721 50292,45720 50295,45719 50299,45718 50302,45717 50306,45717 50309,45717 50313,45718 50316,45719 50320,45720 50323,45721 50326,45723 50328,45725 50331,45728 50333,45730 50336,45733 50337,45736 50339,45739 50340,45742 50341,45746 50341,45749 50341,45753 50341,45895 50392,45895 50392,45745 50391,45739 50390,45733 50389,45728 50388,45722 50386,45717 50383,45712 50380,45707 50377,45702 50373,45698 50369,45693 50365,45690 50360,45686 50356,45683 50350,45681 50345,45678 50340,45677 50334,45675 50328,45675 50323,45674 50317,45674 50311,45675 50305,45676 50300,45677 50294,45679 50289,45682 50284,45685 50280,45688 50275,45691 50271,45695 50267,45700 50263,45704 50260,45709 50258,45705 50256,45702 50253,45699 50249,45696 50247,45693 50244,45690 50240,45688 50237,45686 50233,45683 50230,45682 50226,45680 50222,45678 50218,45677 50215,45676 50211,45675 50207,45675 50203,45674 50198,45674 50195,45674 50190,45675 50186,45675 50182,45676 50178,45677 50175,45678 50171,45680 50167,45682 50163,45683 50160,45686 50157,45688 50154,45690 50151,45693 50148,45696 50148,45680 50098,45680 50098,45895 Z"/>
    <path fill="none" stroke="rgb(0,0,0)" d="M 50098,45895 L 50148,45895 50148,45753 50148,45749 50148,45746 50149,45742 50150,45739 50152,45736 50154,45733 50156,45730 50158,45728 50161,45725 50163,45723 50166,45721 50170,45720 50173,45719 50176,45718 50180,45717 50183,45717 50187,45717 50190,45718 50194,45719 50197,45720 50200,45721 50203,45723 50206,45725 50209,45728 50211,45730 50213,45733 50215,45736 50216,45739 50218,45742 50218,45746 50219,45749 50219,45753 50219,45895 50270,45895 50270,45753 50270,45749 50271,45746 50272,45742 50273,45739 50274,45736 50276,45733 50278,45730 50281,45728 50283,45725 50286,45723 50289,45721 50292,45720 50295,45719 50299,45718 50302,45717 50306,45717 50309,45717 50313,45718 50316,45719 50320,45720 50323,45721 50326,45723 50328,45725 50331,45728 50333,45730 50336,45733 50337,45736 50339,45739 50340,45742 50341,45746 50341,45749 50341,45753 50341,45895 50392,45895 50392,45745 50391,45739 50390,45733 50389,45728 50388,45722 50386,45717 50383,45712 50380,45707 50377,45702 50373,45698 50369,45693 50365,45690 50360,45686 50356,45683 50350,45681 50345,45678 50340,45677 50334,45675 50328,45675 50323,45674 50317,45674 50311,45675 50305,45676 50300,45677 50294,45679 50289,45682 50284,45685 50280,45688 50275,45691 50271,45695 50267,45700 50263,45704 50260,45709 50258,45705 50256,45702 50253,45699 50249,45696 50247,45693 50244,45690 50240,45688 50237,45686 50233,45683 50230,45682 50226,45680 50222,45678 50218,45677 50215,45676 50211,45675 50207,45675 50203,45674 50198,45674 50195,45674 50190,45675 50186,45675 50182,45676 50178,45677 50175,45678 50171,45680 50167,45682 50163,45683 50160,45686 50157,45688 50154,45690 50151,45693 50148,45696 50148,45680 50098,45680 50098,45895 Z"/>
   </g>
  </g>
  <g class="com.sun.star.drawing.PolyPolygonShape">
   <g id="id24">
    <rect class="BoundingBox" stroke="none" fill="none" x="50097" y="45673" width="297" height="224"/>
    <path fill="rgb(0,0,0)" stroke="none" d="M 50098,45895 L 50148,45895 50148,45753 50148,45749 50148,45746 50149,45742 50150,45739 50152,45736 50154,45733 50156,45730 50158,45728 50161,45725 50163,45723 50166,45721 50170,45720 50173,45719 50176,45718 50180,45717 50183,45717 50187,45717 50190,45718 50194,45719 50197,45720 50200,45721 50203,45723 50206,45725 50209,45728 50211,45730 50213,45733 50215,45736 50216,45739 50218,45742 50218,45746 50219,45749 50219,45753 50219,45895 50270,45895 50270,45753 50270,45749 50271,45746 50272,45742 50273,45739 50274,45736 50276,45733 50278,45730 50281,45728 50283,45725 50286,45723 50289,45721 50292,45720 50295,45719 50299,45718 50302,45717 50306,45717 50309,45717 50313,45718 50316,45719 50320,45720 50323,45721 50326,45723 50328,45725 50331,45728 50333,45730 50336,45733 50337,45736 50339,45739 50340,45742 50341,45746 50341,45749 50341,45753 50341,45895 50392,45895 50392,45745 50391,45739 50390,45733 50389,45728 50388,45722 50386,45717 50383,45712 50380,45707 50377,45702 50373,45698 50369,45693 50365,45690 50360,45686 50356,45683 50350,45681 50345,45678 50340,45677 50334,45675 50328,45675 50323,45674 50317,45674 50311,45675 50305,45676 50300,45677 50294,45679 50289,45682 50284,45685 50280,45688 50275,45691 50271,45695 50267,45700 50263,45704 50260,45709 50258,45705 50256,45702 50253,45699 50249,45696 50247,45693 50244,45690 50240,45688 50237,45686 50233,45683 50230,45682 50226,45680 50222,45678 50218,45677 50215,45676 50211,45675 50207,45675 50203,45674 50198,45674 50195,45674 50190,45675 50186,45675 50182,45676 50178,45677 50175,45678 50171,45680 50167,45682 50163,45683 50160,45686 50157,45688 50154,45690 50151,45693 50148,45696 50148,45680 50098,45680 50098,45895 Z"/>
    <path fill="none" stroke="rgb(0,0,0)" d="M 50098,45895 L 50148,45895 50148,45753 50148,45749 50148,45746 50149,45742 50150,45739 50152,45736 50154,45733 50156,45730 50158,45728 50161,45725 50163,45723 50166,45721 50170,45720 50173,45719 50176,45718 50180,45717 50183,45717 50187,45717 50190,45718 50194,45719 50197,45720 50200,45721 50203,45723 50206,45725 50209,45728 50211,45730 50213,45733 50215,45736 50216,45739 50218,45742 50218,45746 50219,45749 50219,45753 50219,45895 50270,45895 50270,45753 50270,45749 50271,45746 50272,45742 50273,45739 50274,45736 50276,45733 50278,45730 50281,45728 50283,45725 50286,45723 50289,45721 50292,45720 50295,45719 50299,45718 50302,45717 50306,45717 50309,45717 50313,45718 50316,45719 50320,45720 50323,45721 50326,45723 50328,45725 50331,45728 50333,45730 50336,45733 50337,45736 50339,45739 50340,45742 50341,45746 50341,45749 50341,45753 50341,45895 50392,45895 50392,45745 50391,45739 50390,45733 50389,45728 50388,45722 50386,45717 50383,45712 50380,45707 50377,45702 50373,45698 50369,45693 50365,45690 50360,45686 50356,45683 50350,45681 50345,45678 50340,45677 50334,45675 50328,45675 50323,45674 50317,45674 50311,45675 50305,45676 50300,45677 50294,45679 50289,45682 50284,45685 50280,45688 50275,45691 50271,45695 50267,45700 50263,45704 50260,45709 50258,45705 50256,45702 50253,45699 50249,45696 50247,45693 50244,45690 50240,45688 50237,45686 50233,45683 50230,45682 50226,45680 50222,45678 50218,45677 50215,45676 50211,45675 50207,45675 50203,45674 50198,45674 50195,45674 50190,45675 50186,45675 50182,45676 50178,45677 50175,45678 50171,45680 50167,45682 50163,45683 50160,45686 50157,45688 50154,45690 50151,45693 50148,45696 50148,45680 50098,45680 50098,45895 Z"/>
   </g>
  </g>
  <g class="com.sun.star.drawing.PolyPolygonShape">
   <g id="id25">
    <rect class="BoundingBox" stroke="none" fill="none" x="50097" y="45673" width="297" height="224"/>
    <path fill="rgb(0,0,0)" stroke="none" d="M 50098,45895 L 50148,45895 50148,45753 50148,45749 50148,45746 50149,45742 50150,45739 50152,45736 50154,45733 50156,45730 50158,45728 50161,45725 50163,45723 50166,45721 50170,45720 50173,45719 50176,45718 50180,45717 50183,45717 50187,45717 50190,45718 50194,45719 50197,45720 50200,45721 50203,45723 50206,45725 50209,45728 50211,45730 50213,45733 50215,45736 50216,45739 50218,45742 50218,45746 50219,45749 50219,45753 50219,45895 50270,45895 50270,45753 50270,45749 50271,45746 50272,45742 50273,45739 50274,45736 50276,45733 50278,45730 50281,45728 50283,45725 50286,45723 50289,45721 50292,45720 50295,45719 50299,45718 50302,45717 50306,45717 50309,45717 50313,45718 50316,45719 50320,45720 50323,45721 50326,45723 50328,45725 50331,45728 50333,45730 50336,45733 50337,45736 50339,45739 50340,45742 50341,45746 50341,45749 50341,45753 50341,45895 50392,45895 50392,45745 50391,45739 50390,45733 50389,45728 50388,45722 50386,45717 50383,45712 50380,45707 50377,45702 50373,45698 50369,45693 50365,45690 50360,45686 50356,45683 50350,45681 50345,45678 50340,45677 50334,45675 50328,45675 50323,45674 50317,45674 50311,45675 50305,45676 50300,45677 50294,45679 50289,45682 50284,45685 50280,45688 50275,45691 50271,45695 50267,45700 50263,45704 50260,45709 50258,45705 50256,45702 50253,45699 50249,45696 50247,45693 50244,45690 50240,45688 50237,45686 50233,45683 50230,45682 50226,45680 50222,45678 50218,45677 50215,45676 50211,45675 50207,45675 50203,45674 50198,45674 50195,45674 50190,45675 50186,45675 50182,45676 50178,45677 50175,45678 50171,45680 50167,45682 50163,45683 50160,45686 50157,45688 50154,45690 50151,45693 50148,45696 50148,45680 50098,45680 50098,45895 Z"/>
    <path fill="none" stroke="rgb(0,0,0)" d="M 50098,45895 L 50148,45895 50148,45753 50148,45749 50148,45746 50149,45742 50150,45739 50152,45736 50154,45733 50156,45730 50158,45728 50161,45725 50163,45723 50166,45721 50170,45720 50173,45719 50176,45718 50180,45717 50183,45717 50187,45717 50190,45718 50194,45719 50197,45720 50200,45721 50203,45723 50206,45725 50209,45728 50211,45730 50213,45733 50215,45736 50216,45739 50218,45742 50218,45746 50219,45749 50219,45753 50219,45895 50270,45895 50270,45753 50270,45749 50271,45746 50272,45742 50273,45739 50274,45736 50276,45733 50278,45730 50281,45728 50283,45725 50286,45723 50289,45721 50292,45720 50295,45719 50299,45718 50302,45717 50306,45717 50309,45717 50313,45718 50316,45719 50320,45720 50323,45721 50326,45723 50328,45725 50331,45728 50333,45730 50336,45733 50337,45736 50339,45739 50340,45742 50341,45746 50341,45749 50341,45753 50341,45895 50392,45895 50392,45745 50391,45739 50390,45733 50389,45728 50388,45722 50386,45717 50383,45712 50380,45707 50377,45702 50373,45698 50369,45693 50365,45690 50360,45686 50356,45683 50350,45681 50345,45678 50340,45677 50334,45675 50328,45675 50323,45674 50317,45674 50311,45675 50305,45676 50300,45677 50294,45679 50289,45682 50284,45685 50280,45688 50275,45691 50271,45695 50267,45700 50263,45704 50260,45709 50258,45705 50256,45702 50253,45699 50249,45696 50247,45693 50244,45690 50240,45688 50237,45686 50233,45683 50230,45682 50226,45680 50222,45678 50218,45677 50215,45676 50211,45675 50207,45675 50203,45674 50198,45674 50195,45674 50190,45675 50186,45675 50182,45676 50178,45677 50175,45678 50171,45680 50167,45682 50163,45683 50160,45686 50157,45688 50154,45690 50151,45693 50148,45696 50148,45680 50098,45680 50098,45895 Z"/>
   </g>
  </g>
 </g>
</svg>