<?xml version="1.0" encoding="UTF-8"?>
<!DOCTYPE svg PUBLIC "-//W3C//DTD SVG 1.1//EN" "http://www.w3.org/Graphics/SVG/1.1/DTD/svg11.dtd">
<svg version="1.2" width="20.04mm" height="25.03mm" viewBox="51154 43499 2004 2503" preserveAspectRatio="xMidYMid" fill-rule="evenodd" stroke-width="28.222" stroke-linejoin="round" xmlns="http://www.w3.org/2000/svg" xmlns:ooo="http://xml.openoffice.org/svg/export" xmlns:xlink="http://www.w3.org/1999/xlink" xmlns:presentation="http://sun.com/xmlns/staroffice/presentation" xmlns:smil="http://www.w3.org/2001/SMIL20/" xmlns:anim="urn:oasis:names:tc:opendocument:xmlns:animation:1.0" xml:space="preserve">
 <defs class="EmbeddedBulletChars">
  <g id="bullet-char-template-57356" transform="scale(0.00048828125,-0.00048828125)">
   <path d="M 580,1141 L 1163,571 580,0 -4,571 580,1141 Z"/>
  </g>
  <g id="bullet-char-template-57354" transform="scale(0.00048828125,-0.00048828125)">
   <path d="M 8,1128 L 1137,1128 1137,0 8,0 8,1128 Z"/>
  </g>
  <g id="bullet-char-template-10146" transform="scale(0.00048828125,-0.00048828125)">
   <path d="M 174,0 L 602,739 174,1481 1456,739 174,0 Z M 1358,739 L 309,1346 659,739 1358,739 Z"/>
  </g>
  <g id="bullet-char-template-10132" transform="scale(0.00048828125,-0.00048828125)">
   <path d="M 2015,739 L 1276,0 717,0 1260,543 174,543 174,936 1260,936 717,1481 1274,1481 2015,739 Z"/>
  </g>
  <g id="bullet-char-template-10007" transform="scale(0.00048828125,-0.00048828125)">
   <path d="M 0,-2 C -7,14 -16,27 -25,37 L 356,567 C 262,823 215,952 215,954 215,979 228,992 255,992 264,992 276,990 289,987 310,991 331,999 354,1012 L 381,999 492,748 772,1049 836,1024 860,1049 C 881,1039 901,1025 922,1006 886,937 835,863 770,784 769,783 710,716 594,584 L 774,223 C 774,196 753,168 711,139 L 727,119 C 717,90 699,76 672,76 641,76 570,178 457,381 L 164,-76 C 142,-110 111,-127 72,-127 30,-127 9,-110 8,-76 1,-67 -2,-52 -2,-32 -2,-23 -1,-13 0,-2 Z"/>
  </g>
  <g id="bullet-char-template-10004" transform="scale(0.00048828125,-0.00048828125)">
   <path d="M 285,-33 C 182,-33 111,30 74,156 52,228 41,333 41,471 41,549 55,616 82,672 116,743 169,778 240,778 293,778 328,747 346,684 L 369,508 C 377,444 397,411 428,410 L 1163,1116 C 1174,1127 1196,1133 1229,1133 1271,1133 1292,1118 1292,1087 L 1292,965 C 1292,929 1282,901 1262,881 L 442,47 C 390,-6 338,-33 285,-33 Z"/>
  </g>
  <g id="bullet-char-template-9679" transform="scale(0.00048828125,-0.00048828125)">
   <path d="M 813,0 C 632,0 489,54 383,161 276,268 223,411 223,592 223,773 276,916 383,1023 489,1130 632,1184 813,1184 992,1184 1136,1130 1245,1023 1353,916 1407,772 1407,592 1407,412 1353,268 1245,161 1136,54 992,0 813,0 Z"/>
  </g>
  <g id="bullet-char-template-8226" transform="scale(0.00048828125,-0.00048828125)">
   <path d="M 346,457 C 273,457 209,483 155,535 101,586 74,649 74,723 74,796 101,859 155,911 209,963 273,989 346,989 419,989 480,963 531,910 582,859 608,796 608,723 608,648 583,586 532,535 482,483 420,457 346,457 Z"/>
  </g>
  <g id="bullet-char-template-8211" transform="scale(0.00048828125,-0.00048828125)">
   <path d="M -4,459 L 1135,459 1135,606 -4,606 -4,459 Z"/>
  </g>
  <g id="bullet-char-template-61548" transform="scale(0.00048828125,-0.00048828125)">
   <path d="M 173,740 C 173,903 231,1043 346,1159 462,1274 601,1332 765,1332 928,1332 1067,1274 1183,1159 1299,1043 1357,903 1357,740 1357,577 1299,437 1183,322 1067,206 928,148 765,148 601,148 462,206 346,322 231,437 173,577 173,740 Z"/>
  </g>
 </defs>
 <g class="Page">
  <g class="com.sun.star.drawing.PolyPolygonShape">
   <g id="id3">
    <rect class="BoundingBox" stroke="none" fill="none" x="51154" y="43499" width="2004" height="2503"/>
    <path fill="rgb(255,129,0)" stroke="none" d="M 53091,46000 L 51220,46000 51213,46000 51207,45999 51201,45998 51195,45996 51189,45993 51184,45989 51179,45986 51174,45981 51170,45977 51166,45972 51162,45966 51160,45960 51157,45954 51156,45948 51155,45942 51155,45935 51155,43565 51155,43558 51156,43552 51157,43546 51160,43540 51162,43534 51166,43528 51170,43523 51174,43519 51179,43514 51184,43511 51189,43507 51195,43504 51201,43502 51207,43501 51213,43500 51220,43500 53091,43500 53097,43500 53104,43501 53110,43502 53116,43504 53122,43507 53127,43511 53132,43514 53137,43519 53141,43523 53145,43528 53148,43534 53151,43540 53153,43546 53155,43552 53156,43558 53156,43565 53156,45935 53156,45942 53155,45948 53153,45954 53151,45960 53148,45966 53145,45972 53141,45977 53137,45981 53132,45986 53127,45989 53122,45993 53116,45996 53110,45998 53104,45999 53097,46000 53091,46000 Z"/>
    <path fill="none" stroke="rgb(255,129,0)" d="M 53091,46000 L 51220,46000 51213,46000 51207,45999 51201,45998 51195,45996 51189,45993 51184,45989 51179,45986 51174,45981 51170,45977 51166,45972 51162,45966 51160,45960 51157,45954 51156,45948 51155,45942 51155,45935 51155,43565 51155,43558 51156,43552 51157,43546 51160,43540 51162,43534 51166,43528 51170,43523 51174,43519 51179,43514 51184,43511 51189,43507 51195,43504 51201,43502 51207,43501 51213,43500 51220,43500 53091,43500 53097,43500 53104,43501 53110,43502 53116,43504 53122,43507 53127,43511 53132,43514 53137,43519 53141,43523 53145,43528 53148,43534 53151,43540 53153,43546 53155,43552 53156,43558 53156,43565 53156,45935 53156,45942 53155,45948 53153,45954 53151,45960 53148,45966 53145,45972 53141,45977 53137,45981 53132,45986 53127,45989 53122,45993 53116,45996 53110,45998 53104,45999 53097,46000 53091,46000 Z"/>
   </g>
  </g>
  <g class="com.sun.star.drawing.PolyPolygonShape">
   <g id="id4">
    <rect class="BoundingBox" stroke="none" fill="none" x="51169" y="43514" width="1974" height="2473"/>
    <path fill="rgb(0,0,0)" stroke="none" d="M 53091,45985 L 51220,45985 51215,45985 51210,45984 51205,45983 51201,45982 51196,45979 51192,45977 51188,45974 51184,45971 51181,45967 51178,45963 51176,45959 51174,45955 51172,45950 51171,45945 51170,45940 51170,45935 51170,43565 51170,43560 51171,43555 51172,43550 51174,43545 51176,43541 51178,43537 51181,43533 51184,43529 51188,43526 51192,43523 51196,43520 51201,43518 51205,43517 51210,43516 51215,43515 51220,43515 53091,43515 53096,43515 53101,43516 53105,43517 53110,43518 53115,43520 53119,43523 53123,43526 53126,43529 53130,43533 53133,43537 53135,43541 53137,43545 53139,43550 53140,43555 53141,43560 53141,43565 53141,45935 53141,45940 53140,45945 53139,45950 53137,45955 53135,45959 53133,45963 53130,45967 53126,45971 53123,45974 53119,45977 53115,45979 53110,45982 53105,45983 53101,45984 53096,45985 53091,45985 Z"/>
    <path fill="none" stroke="rgb(0,0,0)" d="M 53091,45985 L 51220,45985 51215,45985 51210,45984 51205,45983 51201,45982 51196,45979 51192,45977 51188,45974 51184,45971 51181,45967 51178,45963 51176,45959 51174,45955 51172,45950 51171,45945 51170,45940 51170,45935 51170,43565 51170,43560 51171,43555 51172,43550 51174,43545 51176,43541 51178,43537 51181,43533 51184,43529 51188,43526 51192,43523 51196,43520 51201,43518 51205,43517 51210,43516 51215,43515 51220,43515 53091,43515 53096,43515 53101,43516 53105,43517 53110,43518 53115,43520 53119,43523 53123,43526 53126,43529 53130,43533 53133,43537 53135,43541 53137,43545 53139,43550 53140,43555 53141,43560 53141,43565 53141,45935 53141,45940 53140,45945 53139,45950 53137,45955 53135,45959 53133,45963 53130,45967 53126,45971 53123,45974 53119,45977 53115,45979 53110,45982 53105,45983 53101,45984 53096,45985 53091,45985 Z"/>
   </g>
  </g>
  <g class="com.sun.star.drawing.PolyPolygonShape">
   <g id="id5">
    <rect class="BoundingBox" stroke="none" fill="none" x="51184" y="43529" width="1944" height="1973"/>
    <path fill="rgb(255,129,0)" stroke="none" d="M 53091,45500 L 51220,45500 51216,45500 51213,45500 51210,45499 51206,45498 51203,45496 51200,45494 51197,45493 51195,45490 51193,45488 51191,45485 51189,45482 51187,45479 51186,45476 51185,45472 51185,45469 51185,45466 51185,43565 51185,43561 51185,43558 51186,43554 51187,43551 51189,43548 51191,43545 51193,43542 51195,43540 51197,43538 51200,43535 51203,43534 51206,43532 51210,43531 51213,43530 51216,43530 51220,43530 53091,43530 53094,43530 53098,43530 53101,43531 53104,43532 53107,43534 53110,43535 53113,43538 53116,43540 53118,43542 53120,43545 53122,43548 53123,43551 53125,43554 53125,43558 53126,43561 53126,43565 53126,45466 53126,45469 53125,45472 53125,45476 53123,45479 53122,45482 53120,45485 53118,45488 53116,45490 53113,45493 53110,45494 53107,45496 53104,45498 53101,45499 53098,45500 53094,45500 53091,45500 Z"/>
    <path fill="none" stroke="rgb(255,129,0)" d="M 53091,45500 L 51220,45500 51216,45500 51213,45500 51210,45499 51206,45498 51203,45496 51200,45494 51197,45493 51195,45490 51193,45488 51191,45485 51189,45482 51187,45479 51186,45476 51185,45472 51185,45469 51185,45466 51185,43565 51185,43561 51185,43558 51186,43554 51187,43551 51189,43548 51191,43545 51193,43542 51195,43540 51197,43538 51200,43535 51203,43534 51206,43532 51210,43531 51213,43530 51216,43530 51220,43530 53091,43530 53094,43530 53098,43530 53101,43531 53104,43532 53107,43534 53110,43535 53113,43538 53116,43540 53118,43542 53120,43545 53122,43548 53123,43551 53125,43554 53125,43558 53126,43561 53126,43565 53126,45466 53126,45469 53125,45472 53125,45476 53123,45479 53122,45482 53120,45485 53118,45488 53116,45490 53113,45493 53110,45494 53107,45496 53104,45498 53101,45499 53098,45500 53094,45500 53091,45500 Z"/>
   </g>
  </g>
  <g class="com.sun.star.drawing.PolyPolygonShape">
   <g id="id6">
    <rect class="BoundingBox" stroke="none" fill="none" x="51184" y="45518" width="1944" height="455"/>
    <path fill="rgb(255,129,0)" stroke="none" d="M 53091,45971 L 51220,45971 51216,45970 51213,45970 51210,45969 51206,45968 51203,45966 51200,45965 51197,45962 51195,45960 51193,45958 51191,45955 51189,45952 51187,45949 51186,45946 51185,45942 51185,45939 51185,45935 51185,45554 51185,45551 51185,45548 51186,45544 51187,45541 51189,45538 51191,45535 51193,45532 51195,45530 51197,45527 51200,45525 51203,45524 51206,45522 51210,45521 51213,45520 51216,45520 51220,45519 53091,45519 53094,45520 53098,45520 53101,45521 53104,45522 53107,45524 53110,45525 53113,45527 53116,45530 53118,45532 53120,45535 53122,45538 53123,45541 53125,45544 53125,45548 53126,45551 53126,45554 53126,45935 53126,45939 53125,45942 53125,45946 53123,45949 53122,45952 53120,45955 53118,45958 53116,45960 53113,45962 53110,45965 53107,45966 53104,45968 53101,45969 53098,45970 53094,45970 53091,45970 53091,45971 Z"/>
    <path fill="none" stroke="rgb(255,129,0)" d="M 53091,45971 L 51220,45971 51216,45970 51213,45970 51210,45969 51206,45968 51203,45966 51200,45965 51197,45962 51195,45960 51193,45958 51191,45955 51189,45952 51187,45949 51186,45946 51185,45942 51185,45939 51185,45935 51185,45554 51185,45551 51185,45548 51186,45544 51187,45541 51189,45538 51191,45535 51193,45532 51195,45530 51197,45527 51200,45525 51203,45524 51206,45522 51210,45521 51213,45520 51216,45520 51220,45519 53091,45519 53094,45520 53098,45520 53101,45521 53104,45522 53107,45524 53110,45525 53113,45527 53116,45530 53118,45532 53120,45535 53122,45538 53123,45541 53125,45544 53125,45548 53126,45551 53126,45554 53126,45935 53126,45939 53125,45942 53125,45946 53123,45949 53122,45952 53120,45955 53118,45958 53116,45960 53113,45962 53110,45965 53107,45966 53104,45968 53101,45969 53098,45970 53094,45970 53091,45970 53091,45971 Z"/>
   </g>
  </g>
  <g class="com.sun.star.drawing.PolyPolygonShape">
   <g id="id7">
    <rect class="BoundingBox" stroke="none" fill="none" x="51634" y="43569" width="1364" height="1894"/>
    <path fill="rgb(0,0,0)" stroke="none" d="M 52896,45202 L 51735,44041 51735,43820 51635,43820 51785,43570 51935,43820 51835,43820 51835,44000 52996,45161 52996,45461 52896,45461 52896,45202 Z"/>
    <path fill="none" stroke="rgb(0,0,0)" d="M 52896,45202 L 51735,44041 51735,43820 51635,43820 51785,43570 51935,43820 51835,43820 51835,44000 52996,45161 52996,45461 52896,45461 52896,45202 Z"/>
   </g>
  </g>
  <g class="com.sun.star.drawing.PolyPolygonShape">
   <g id="id8">
    <rect class="BoundingBox" stroke="none" fill="none" x="51239" y="43569" width="1364" height="1894"/>
    <path fill="rgb(0,0,0)" stroke="none" d="M 52501,45461 L 52501,45282 51340,44121 51340,43820 51240,43820 51390,43570 51540,43820 51440,43820 51440,44080 52601,45241 52601,45461 52501,45461 Z"/>
    <path fill="none" stroke="rgb(0,0,0)" d="M 52501,45461 L 52501,45282 51340,44121 51340,43820 51240,43820 51390,43570 51540,43820 51440,43820 51440,44080 52601,45241 52601,45461 52501,45461 Z"/>
   </g>
  </g>
  <g class="com.sun.star.drawing.PolyPolygonShape">
   <g id="id9">
    <rect class="BoundingBox" stroke="none" fill="none" x="51418" y="45593" width="89" height="304"/>
    <path fill="rgb(0,0,0)" stroke="none" d="M 51419,45680 L 51449,45680 51449,45895 51505,45895 51505,45594 51449,45594 51419,45650 51419,45680 Z"/>
    <path fill="none" stroke="rgb(0,0,0)" d="M 51419,45680 L 51449,45680 51449,45895 51505,45895 51505,45594 51449,45594 51419,45650 51419,45680 Z"/>
   </g>
  </g>
  <g class="com.sun.star.drawing.PolyPolygonShape">
   <g id="id10">
    <rect class="BoundingBox" stroke="none" fill="none" x="51418" y="45593" width="89" height="304"/>
    <path fill="rgb(0,0,0)" stroke="none" d="M 51419,45680 L 51449,45680 51449,45895 51505,45895 51505,45594 51449,45594 51419,45650 51419,45680 Z"/>
    <path fill="none" stroke="rgb(0,0,0)" d="M 51419,45680 L 51449,45680 51449,45895 51505,45895 51505,45594 51449,45594 51419,45650 51419,45680 Z"/>
   </g>
  </g>
  <g class="com.sun.star.drawing.PolyPolygonShape">
   <g id="id11">
    <rect class="BoundingBox" stroke="none" fill="none" x="51418" y="45593" width="89" height="304"/>
    <path fill="rgb(0,0,0)" stroke="none" d="M 51419,45680 L 51449,45680 51449,45895 51505,45895 51505,45594 51449,45594 51419,45650 51419,45680 Z"/>
    <path fill="none" stroke="rgb(0,0,0)" d="M 51419,45680 L 51449,45680 51449,45895 51505,45895 51505,45594 51449,45594 51419,45650 51419,45680 Z"/>
   </g>
  </g>
  <g class="com.sun.star.drawing.PolyPolygonShape">
   <g id="id12">
    <rect class="BoundingBox" stroke="none" fill="none" x="51610" y="45593" width="208" height="310"/>
    <path fill="rgb(0,0,0)" stroke="none" d="M 51618,45767 L 51672,45767 51673,45764 51676,45760 51679,45757 51681,45755 51684,45752 51688,45750 51691,45748 51695,45746 51698,45745 51702,45744 51706,45743 51710,45743 51714,45743 51718,45743 51721,45743 51725,45744 51729,45745 51733,45747 51736,45749 51740,45751 51743,45753 51746,45755 51748,45758 51751,45761 51753,45764 51755,45768 51757,45771 51758,45775 51760,45779 51760,45783 51761,45787 51761,45791 51761,45806 51761,45810 51760,45814 51759,45818 51758,45822 51756,45826 51754,45830 51752,45834 51749,45837 51746,45840 51743,45843 51740,45845 51736,45848 51732,45849 51728,45851 51724,45852 51720,45853 51715,45853 51711,45853 51707,45853 51702,45852 51698,45851 51694,45849 51691,45848 51687,45845 51683,45843 51680,45840 51677,45837 51675,45834 51672,45830 51670,45826 51668,45822 51667,45818 51611,45818 51613,45826 51616,45833 51619,45841 51622,45848 51626,45854 51631,45861 51636,45867 51641,45873 51647,45878 51654,45883 51660,45887 51668,45891 51675,45894 51683,45896 51690,45898 51698,45900 51706,45901 51714,45901 51722,45900 51730,45899 51737,45898 51745,45896 51752,45893 51760,45890 51766,45886 51773,45882 51779,45877 51785,45871 51790,45866 51795,45860 51800,45853 51804,45846 51807,45839 51810,45832 51813,45824 51814,45817 51815,45809 51816,45801 51816,45793 51815,45785 51814,45778 51812,45770 51810,45762 51807,45755 51803,45748 51799,45741 51794,45735 51789,45729 51784,45723 51778,45718 51772,45713 51765,45709 51758,45705 51751,45702 51743,45700 51736,45698 51728,45696 51720,45695 51712,45695 51704,45695 51697,45697 51689,45698 51681,45700 51674,45703 51674,45646 51795,45646 51795,45594 51618,45594 51618,45767 Z"/>
    <path fill="none" stroke="rgb(0,0,0)" d="M 51618,45767 L 51672,45767 51673,45764 51676,45760 51679,45757 51681,45755 51684,45752 51688,45750 51691,45748 51695,45746 51698,45745 51702,45744 51706,45743 51710,45743 51714,45743 51718,45743 51721,45743 51725,45744 51729,45745 51733,45747 51736,45749 51740,45751 51743,45753 51746,45755 51748,45758 51751,45761 51753,45764 51755,45768 51757,45771 51758,45775 51760,45779 51760,45783 51761,45787 51761,45791 51761,45806 51761,45810 51760,45814 51759,45818 51758,45822 51756,45826 51754,45830 51752,45834 51749,45837 51746,45840 51743,45843 51740,45845 51736,45848 51732,45849 51728,45851 51724,45852 51720,45853 51715,45853 51711,45853 51707,45853 51702,45852 51698,45851 51694,45849 51691,45848 51687,45845 51683,45843 51680,45840 51677,45837 51675,45834 51672,45830 51670,45826 51668,45822 51667,45818 51611,45818 51613,45826 51616,45833 51619,45841 51622,45848 51626,45854 51631,45861 51636,45867 51641,45873 51647,45878 51654,45883 51660,45887 51668,45891 51675,45894 51683,45896 51690,45898 51698,45900 51706,45901 51714,45901 51722,45900 51730,45899 51737,45898 51745,45896 51752,45893 51760,45890 51766,45886 51773,45882 51779,45877 51785,45871 51790,45866 51795,45860 51800,45853 51804,45846 51807,45839 51810,45832 51813,45824 51814,45817 51815,45809 51816,45801 51816,45793 51815,45785 51814,45778 51812,45770 51810,45762 51807,45755 51803,45748 51799,45741 51794,45735 51789,45729 51784,45723 51778,45718 51772,45713 51765,45709 51758,45705 51751,45702 51743,45700 51736,45698 51728,45696 51720,45695 51712,45695 51704,45695 51697,45697 51689,45698 51681,45700 51674,45703 51674,45646 51795,45646 51795,45594 51618,45594 51618,45767 Z"/>
   </g>
  </g>
  <g class="com.sun.star.drawing.PolyPolygonShape">
   <g id="id13">
    <rect class="BoundingBox" stroke="none" fill="none" x="51610" y="45593" width="208" height="310"/>
    <path fill="rgb(0,0,0)" stroke="none" d="M 51618,45767 L 51672,45767 51673,45764 51676,45760 51679,45757 51681,45755 51684,45752 51688,45750 51691,45748 51695,45746 51698,45745 51702,45744 51706,45743 51710,45743 51714,45743 51718,45743 51721,45743 51725,45744 51729,45745 51733,45747 51736,45749 51740,45751 51743,45753 51746,45755 51748,45758 51751,45761 51753,45764 51755,45768 51757,45771 51758,45775 51760,45779 51760,45783 51761,45787 51761,45791 51761,45806 51761,45810 51760,45814 51759,45818 51758,45822 51756,45826 51754,45830 51752,45834 51749,45837 51746,45840 51743,45843 51740,45845 51736,45848 51732,45849 51728,45851 51724,45852 51720,45853 51715,45853 51711,45853 51707,45853 51702,45852 51698,45851 51694,45849 51691,45848 51687,45845 51683,45843 51680,45840 51677,45837 51675,45834 51672,45830 51670,45826 51668,45822 51667,45818 51611,45818 51613,45826 51616,45833 51619,45841 51622,45848 51626,45854 51631,45861 51636,45867 51641,45873 51647,45878 51654,45883 51660,45887 51668,45891 51675,45894 51683,45896 51690,45898 51698,45900 51706,45901 51714,45901 51722,45900 51730,45899 51737,45898 51745,45896 51752,45893 51760,45890 51766,45886 51773,45882 51779,45877 51785,45871 51790,45866 51795,45860 51800,45853 51804,45846 51807,45839 51810,45832 51813,45824 51814,45817 51815,45809 51816,45801 51816,45793 51815,45785 51814,45778 51812,45770 51810,45762 51807,45755 51803,45748 51799,45741 51794,45735 51789,45729 51784,45723 51778,45718 51772,45713 51765,45709 51758,45705 51751,45702 51743,45700 51736,45698 51728,45696 51720,45695 51712,45695 51704,45695 51697,45697 51689,45698 51681,45700 51674,45703 51674,45646 51795,45646 51795,45594 51618,45594 51618,45767 Z"/>
    <path fill="none" stroke="rgb(0,0,0)" d="M 51618,45767 L 51672,45767 51673,45764 51676,45760 51679,45757 51681,45755 51684,45752 51688,45750 51691,45748 51695,45746 51698,45745 51702,45744 51706,45743 51710,45743 51714,45743 51718,45743 51721,45743 51725,45744 51729,45745 51733,45747 51736,45749 51740,45751 51743,45753 51746,45755 51748,45758 51751,45761 51753,45764 51755,45768 51757,45771 51758,45775 51760,45779 51760,45783 51761,45787 51761,45791 51761,45806 51761,45810 51760,45814 51759,45818 51758,45822 51756,45826 51754,45830 51752,45834 51749,45837 51746,45840 51743,45843 51740,45845 51736,45848 51732,45849 51728,45851 51724,45852 51720,45853 51715,45853 51711,45853 51707,45853 51702,45852 51698,45851 51694,45849 51691,45848 51687,45845 51683,45843 51680,45840 51677,45837 51675,45834 51672,45830 51670,45826 51668,45822 51667,45818 51611,45818 51613,45826 51616,45833 51619,45841 51622,45848 51626,45854 51631,45861 51636,45867 51641,45873 51647,45878 51654,45883 51660,45887 51668,45891 51675,45894 51683,45896 51690,45898 51698,45900 51706,45901 51714,45901 51722,45900 51730,45899 51737,45898 51745,45896 51752,45893 51760,45890 51766,45886 51773,45882 51779,45877 51785,45871 51790,45866 51795,45860 51800,45853 51804,45846 51807,45839 51810,45832 51813,45824 51814,45817 51815,45809 51816,45801 51816,45793 51815,45785 51814,45778 51812,45770 51810,45762 51807,45755 51803,45748 51799,45741 51794,45735 51789,45729 51784,45723 51778,45718 51772,45713 51765,45709 51758,45705 51751,45702 51743,45700 51736,45698 51728,45696 51720,45695 51712,45695 51704,45695 51697,45697 51689,45698 51681,45700 51674,45703 51674,45646 51795,45646 51795,45594 51618,45594 51618,45767 Z"/>
   </g>
  </g>
  <g class="com.sun.star.drawing.PolyPolygonShape">
   <g id="id14">
    <rect class="BoundingBox" stroke="none" fill="none" x="51610" y="45593" width="208" height="310"/>
    <path fill="rgb(0,0,0)" stroke="none" d="M 51618,45767 L 51672,45767 51673,45764 51676,45760 51679,45757 51681,45755 51684,45752 51688,45750 51691,45748 51695,45746 51698,45745 51702,45744 51706,45743 51710,45743 51714,45743 51718,45743 51721,45743 51725,45744 51729,45745 51733,45747 51736,45749 51740,45751 51743,45753 51746,45755 51748,45758 51751,45761 51753,45764 51755,45768 51757,45771 51758,45775 51760,45779 51760,45783 51761,45787 51761,45791 51761,45806 51761,45810 51760,45814 51759,45818 51758,45822 51756,45826 51754,45830 51752,45834 51749,45837 51746,45840 51743,45843 51740,45845 51736,45848 51732,45849 51728,45851 51724,45852 51720,45853 51715,45853 51711,45853 51707,45853 51702,45852 51698,45851 51694,45849 51691,45848 51687,45845 51683,45843 51680,45840 51677,45837 51675,45834 51672,45830 51670,45826 51668,45822 51667,45818 51611,45818 51613,45826 51616,45833 51619,45841 51622,45848 51626,45854 51631,45861 51636,45867 51641,45873 51647,45878 51654,45883 51660,45887 51668,45891 51675,45894 51683,45896 51690,45898 51698,45900 51706,45901 51714,45901 51722,45900 51730,45899 51737,45898 51745,45896 51752,45893 51760,45890 51766,45886 51773,45882 51779,45877 51785,45871 51790,45866 51795,45860 51800,45853 51804,45846 51807,45839 51810,45832 51813,45824 51814,45817 51815,45809 51816,45801 51816,45793 51815,45785 51814,45778 51812,45770 51810,45762 51807,45755 51803,45748 51799,45741 51794,45735 51789,45729 51784,45723 51778,45718 51772,45713 51765,45709 51758,45705 51751,45702 51743,45700 51736,45698 51728,45696 51720,45695 51712,45695 51704,45695 51697,45697 51689,45698 51681,45700 51674,45703 51674,45646 51795,45646 51795,45594 51618,45594 51618,45767 Z"/>
    <path fill="none" stroke="rgb(0,0,0)" d="M 51618,45767 L 51672,45767 51673,45764 51676,45760 51679,45757 51681,45755 51684,45752 51688,45750 51691,45748 51695,45746 51698,45745 51702,45744 51706,45743 51710,45743 51714,45743 51718,45743 51721,45743 51725,45744 51729,45745 51733,45747 51736,45749 51740,45751 51743,45753 51746,45755 51748,45758 51751,45761 51753,45764 51755,45768 51757,45771 51758,45775 51760,45779 51760,45783 51761,45787 51761,45791 51761,45806 51761,45810 51760,45814 51759,45818 51758,45822 51756,45826 51754,45830 51752,45834 51749,45837 51746,45840 51743,45843 51740,45845 51736,45848 51732,45849 51728,45851 51724,45852 51720,45853 51715,45853 51711,45853 51707,45853 51702,45852 51698,45851 51694,45849 51691,45848 51687,45845 51683,45843 51680,45840 51677,45837 51675,45834 51672,45830 51670,45826 51668,45822 51667,45818 51611,45818 51613,45826 51616,45833 51619,45841 51622,45848 51626,45854 51631,45861 51636,45867 51641,45873 51647,45878 51654,45883 51660,45887 51668,45891 51675,45894 51683,45896 51690,45898 51698,45900 51706,45901 51714,45901 51722,45900 51730,45899 51737,45898 51745,45896 51752,45893 51760,45890 51766,45886 51773,45882 51779,45877 51785,45871 51790,45866 51795,45860 51800,45853 51804,45846 51807,45839 51810,45832 51813,45824 51814,45817 51815,45809 51816,45801 51816,45793 51815,45785 51814,45778 51812,45770 51810,45762 51807,45755 51803,45748 51799,45741 51794,45735 51789,45729 51784,45723 51778,45718 51772,45713 51765,45709 51758,45705 51751,45702 51743,45700 51736,45698 51728,45696 51720,45695 51712,45695 51704,45695 51697,45697 51689,45698 51681,45700 51674,45703 51674,45646 51795,45646 51795,45594 51618,45594 51618,45767 Z"/>
   </g>
  </g>
  <g class="com.sun.star.drawing.PolyPolygonShape">
   <g id="id15">
    <rect class="BoundingBox" stroke="none" fill="none" x="51909" y="45587" width="209" height="316"/>
    <path fill="rgb(0,0,0)" stroke="none" d="M 51965,45686 L 51965,45804 51965,45808 51965,45813 51967,45818 51969,45822 51971,45826 51974,45830 51976,45834 51980,45837 51983,45841 51987,45843 51991,45846 51995,45848 52000,45849 52004,45851 52009,45851 52014,45851 52018,45851 52023,45851 52027,45849 52032,45848 52036,45846 52040,45843 52044,45841 52047,45837 52050,45834 52053,45830 52056,45826 52058,45822 52059,45818 52060,45813 52061,45808 52061,45804 52061,45686 52061,45682 52060,45677 52059,45672 52058,45668 52056,45664 52053,45660 52050,45656 52047,45652 52044,45649 52040,45647 52036,45644 52032,45642 52027,45641 52023,45639 52018,45639 52014,45638 52009,45639 52004,45639 52000,45641 51995,45642 51991,45644 51987,45647 51983,45649 51980,45652 51976,45656 51974,45660 51971,45664 51969,45668 51967,45672 51965,45677 51965,45682 51965,45686 Z M 51910,45691 L 51910,45799 51910,45804 51910,45809 51911,45814 51912,45819 51913,45824 51914,45828 51916,45833 51917,45838 51919,45843 51922,45847 51924,45851 51927,45856 51930,45860 51933,45864 51936,45868 51940,45871 51943,45875 51947,45878 51951,45881 51955,45884 51960,45887 51964,45889 51969,45892 51974,45894 51979,45895 51984,45897 51988,45898 51993,45900 51998,45900 52003,45901 52008,45901 52014,45901 52019,45901 52024,45901 52028,45900 52034,45900 52038,45898 52043,45897 52048,45895 52053,45894 52057,45892 52062,45889 52066,45887 52071,45884 52075,45881 52079,45878 52083,45875 52086,45871 52090,45868 52093,45864 52096,45860 52099,45856 52102,45851 52104,45847 52107,45843 52109,45838 52110,45833 52112,45828 52113,45824 52114,45819 52115,45814 52116,45809 52116,45804 52116,45799 52116,45691 52116,45686 52116,45681 52115,45676 52114,45671 52113,45666 52112,45661 52110,45657 52109,45652 52107,45647 52104,45643 52102,45638 52099,45634 52096,45630 52093,45626 52090,45622 52086,45619 52083,45615 52079,45612 52075,45609 52071,45606 52066,45603 52062,45601 52057,45598 52053,45596 52048,45594 52043,45593 52038,45592 52034,45590 52028,45590 52024,45589 52019,45589 52014,45588 52008,45589 52003,45589 51998,45590 51993,45590 51988,45592 51984,45593 51979,45594 51974,45596 51969,45598 51964,45601 51960,45603 51955,45606 51951,45609 51947,45612 51943,45615 51940,45619 51936,45622 51933,45626 51930,45630 51927,45634 51924,45638 51922,45643 51919,45647 51917,45652 51916,45657 51914,45661 51913,45666 51912,45671 51911,45676 51910,45681 51910,45686 51910,45691 Z"/>
    <path fill="none" stroke="rgb(0,0,0)" d="M 51965,45686 L 51965,45804 51965,45808 51965,45813 51967,45818 51969,45822 51971,45826 51974,45830 51976,45834 51980,45837 51983,45841 51987,45843 51991,45846 51995,45848 52000,45849 52004,45851 52009,45851 52014,45851 52018,45851 52023,45851 52027,45849 52032,45848 52036,45846 52040,45843 52044,45841 52047,45837 52050,45834 52053,45830 52056,45826 52058,45822 52059,45818 52060,45813 52061,45808 52061,45804 52061,45686 52061,45682 52060,45677 52059,45672 52058,45668 52056,45664 52053,45660 52050,45656 52047,45652 52044,45649 52040,45647 52036,45644 52032,45642 52027,45641 52023,45639 52018,45639 52014,45638 52009,45639 52004,45639 52000,45641 51995,45642 51991,45644 51987,45647 51983,45649 51980,45652 51976,45656 51974,45660 51971,45664 51969,45668 51967,45672 51965,45677 51965,45682 51965,45686 Z"/>
    <path fill="none" stroke="rgb(0,0,0)" d="M 51910,45691 L 51910,45799 51910,45804 51910,45809 51911,45814 51912,45819 51913,45824 51914,45828 51916,45833 51917,45838 51919,45843 51922,45847 51924,45851 51927,45856 51930,45860 51933,45864 51936,45868 51940,45871 51943,45875 51947,45878 51951,45881 51955,45884 51960,45887 51964,45889 51969,45892 51974,45894 51979,45895 51984,45897 51988,45898 51993,45900 51998,45900 52003,45901 52008,45901 52014,45901 52019,45901 52024,45901 52028,45900 52034,45900 52038,45898 52043,45897 52048,45895 52053,45894 52057,45892 52062,45889 52066,45887 52071,45884 52075,45881 52079,45878 52083,45875 52086,45871 52090,45868 52093,45864 52096,45860 52099,45856 52102,45851 52104,45847 52107,45843 52109,45838 52110,45833 52112,45828 52113,45824 52114,45819 52115,45814 52116,45809 52116,45804 52116,45799 52116,45691 52116,45686 52116,45681 52115,45676 52114,45671 52113,45666 52112,45661 52110,45657 52109,45652 52107,45647 52104,45643 52102,45638 52099,45634 52096,45630 52093,45626 52090,45622 52086,45619 52083,45615 52079,45612 52075,45609 52071,45606 52066,45603 52062,45601 52057,45598 52053,45596 52048,45594 52043,45593 52038,45592 52034,45590 52028,45590 52024,45589 52019,45589 52014,45588 52008,45589 52003,45589 51998,45590 51993,45590 51988,45592 51984,45593 51979,45594 51974,45596 51969,45598 51964,45601 51960,45603 51955,45606 51951,45609 51947,45612 51943,45615 51940,45619 51936,45622 51933,45626 51930,45630 51927,45634 51924,45638 51922,45643 51919,45647 51917,45652 51916,45657 51914,45661 51913,45666 51912,45671 51911,45676 51910,45681 51910,45686 51910,45691 Z"/>
   </g>
  </g>
  <g class="com.sun.star.drawing.PolyPolygonShape">
   <g id="id16">
    <rect class="BoundingBox" stroke="none" fill="none" x="51909" y="45587" width="209" height="316"/>
    <path fill="rgb(0,0,0)" stroke="none" d="M 51965,45686 L 51965,45804 51965,45808 51965,45813 51967,45818 51969,45822 51971,45826 51974,45830 51976,45834 51980,45837 51983,45841 51987,45843 51991,45846 51995,45848 52000,45849 52004,45851 52009,45851 52014,45851 52018,45851 52023,45851 52027,45849 52032,45848 52036,45846 52040,45843 52044,45841 52047,45837 52050,45834 52053,45830 52056,45826 52058,45822 52059,45818 52060,45813 52061,45808 52061,45804 52061,45686 52061,45682 52060,45677 52059,45672 52058,45668 52056,45664 52053,45660 52050,45656 52047,45652 52044,45649 52040,45647 52036,45644 52032,45642 52027,45641 52023,45639 52018,45639 52014,45638 52009,45639 52004,45639 52000,45641 51995,45642 51991,45644 51987,45647 51983,45649 51980,45652 51976,45656 51974,45660 51971,45664 51969,45668 51967,45672 51965,45677 51965,45682 51965,45686 Z M 51910,45691 L 51910,45799 51910,45804 51910,45809 51911,45814 51912,45819 51913,45824 51914,45828 51916,45833 51917,45838 51919,45843 51922,45847 51924,45851 51927,45856 51930,45860 51933,45864 51936,45868 51940,45871 51943,45875 51947,45878 51951,45881 51955,45884 51960,45887 51964,45889 51969,45892 51974,45894 51979,45895 51984,45897 51988,45898 51993,45900 51998,45900 52003,45901 52008,45901 52014,45901 52019,45901 52024,45901 52028,45900 52034,45900 52038,45898 52043,45897 52048,45895 52053,45894 52057,45892 52062,45889 52066,45887 52071,45884 52075,45881 52079,45878 52083,45875 52086,45871 52090,45868 52093,45864 52096,45860 52099,45856 52102,45851 52104,45847 52107,45843 52109,45838 52110,45833 52112,45828 52113,45824 52114,45819 52115,45814 52116,45809 52116,45804 52116,45799 52116,45691 52116,45686 52116,45681 52115,45676 52114,45671 52113,45666 52112,45661 52110,45657 52109,45652 52107,45647 52104,45643 52102,45638 52099,45634 52096,45630 52093,45626 52090,45622 52086,45619 52083,45615 52079,45612 52075,45609 52071,45606 52066,45603 52062,45601 52057,45598 52053,45596 52048,45594 52043,45593 52038,45592 52034,45590 52028,45590 52024,45589 52019,45589 52014,45588 52008,45589 52003,45589 51998,45590 51993,45590 51988,45592 51984,45593 51979,45594 51974,45596 51969,45598 51964,45601 51960,45603 51955,45606 51951,45609 51947,45612 51943,45615 51940,45619 51936,45622 51933,45626 51930,45630 51927,45634 51924,45638 51922,45643 51919,45647 51917,45652 51916,45657 51914,45661 51913,45666 51912,45671 51911,45676 51910,45681 51910,45686 51910,45691 Z"/>
    <path fill="none" stroke="rgb(0,0,0)" d="M 51965,45686 L 51965,45804 51965,45808 51965,45813 51967,45818 51969,45822 51971,45826 51974,45830 51976,45834 51980,45837 51983,45841 51987,45843 51991,45846 51995,45848 52000,45849 52004,45851 52009,45851 52014,45851 52018,45851 52023,45851 52027,45849 52032,45848 52036,45846 52040,45843 52044,45841 52047,45837 52050,45834 52053,45830 52056,45826 52058,45822 52059,45818 52060,45813 52061,45808 52061,45804 52061,45686 52061,45682 52060,45677 52059,45672 52058,45668 52056,45664 52053,45660 52050,45656 52047,45652 52044,45649 52040,45647 52036,45644 52032,45642 52027,45641 52023,45639 52018,45639 52014,45638 52009,45639 52004,45639 52000,45641 51995,45642 51991,45644 51987,45647 51983,45649 51980,45652 51976,45656 51974,45660 51971,45664 51969,45668 51967,45672 51965,45677 51965,45682 51965,45686 Z"/>
    <path fill="none" stroke="rgb(0,0,0)" d="M 51910,45691 L 51910,45799 51910,45804 51910,45809 51911,45814 51912,45819 51913,45824 51914,45828 51916,45833 51917,45838 51919,45843 51922,45847 51924,45851 51927,45856 51930,45860 51933,45864 51936,45868 51940,45871 51943,45875 51947,45878 51951,45881 51955,45884 51960,45887 51964,45889 51969,45892 51974,45894 51979,45895 51984,45897 51988,45898 51993,45900 51998,45900 52003,45901 52008,45901 52014,45901 52019,45901 52024,45901 52028,45900 52034,45900 52038,45898 52043,45897 52048,45895 52053,45894 52057,45892 52062,45889 52066,45887 52071,45884 52075,45881 52079,45878 52083,45875 52086,45871 52090,45868 52093,45864 52096,45860 52099,45856 52102,45851 52104,45847 52107,45843 52109,45838 52110,45833 52112,45828 52113,45824 52114,45819 52115,45814 52116,45809 52116,45804 52116,45799 52116,45691 52116,45686 52116,45681 52115,45676 52114,45671 52113,45666 52112,45661 52110,45657 52109,45652 52107,45647 52104,45643 52102,45638 52099,45634 52096,45630 52093,45626 52090,45622 52086,45619 52083,45615 52079,45612 52075,45609 52071,45606 52066,45603 52062,45601 52057,45598 52053,45596 52048,45594 52043,45593 52038,45592 52034,45590 52028,45590 52024,45589 52019,45589 52014,45588 52008,45589 52003,45589 51998,45590 51993,45590 51988,45592 51984,45593 51979,45594 51974,45596 51969,45598 51964,45601 51960,45603 51955,45606 51951,45609 51947,45612 51943,45615 51940,45619 51936,45622 51933,45626 51930,45630 51927,45634 51924,45638 51922,45643 51919,45647 51917,45652 51916,45657 51914,45661 51913,45666 51912,45671 51911,45676 51910,45681 51910,45686 51910,45691 Z"/>
   </g>
  </g>
  <g class="com.sun.star.drawing.PolyPolygonShape">
   <g id="id17">
    <rect class="BoundingBox" stroke="none" fill="none" x="51909" y="45587" width="209" height="316"/>
    <path fill="rgb(0,0,0)" stroke="none" d="M 51965,45686 L 51965,45804 51965,45808 51965,45813 51967,45818 51969,45822 51971,45826 51974,45830 51976,45834 51980,45837 51983,45841 51987,45843 51991,45846 51995,45848 52000,45849 52004,45851 52009,45851 52014,45851 52018,45851 52023,45851 52027,45849 52032,45848 52036,45846 52040,45843 52044,45841 52047,45837 52050,45834 52053,45830 52056,45826 52058,45822 52059,45818 52060,45813 52061,45808 52061,45804 52061,45686 52061,45682 52060,45677 52059,45672 52058,45668 52056,45664 52053,45660 52050,45656 52047,45652 52044,45649 52040,45647 52036,45644 52032,45642 52027,45641 52023,45639 52018,45639 52014,45638 52009,45639 52004,45639 52000,45641 51995,45642 51991,45644 51987,45647 51983,45649 51980,45652 51976,45656 51974,45660 51971,45664 51969,45668 51967,45672 51965,45677 51965,45682 51965,45686 Z M 51910,45691 L 51910,45799 51910,45804 51910,45809 51911,45814 51912,45819 51913,45824 51914,45828 51916,45833 51917,45838 51919,45843 51922,45847 51924,45851 51927,45856 51930,45860 51933,45864 51936,45868 51940,45871 51943,45875 51947,45878 51951,45881 51955,45884 51960,45887 51964,45889 51969,45892 51974,45894 51979,45895 51984,45897 51988,45898 51993,45900 51998,45900 52003,45901 52008,45901 52014,45901 52019,45901 52024,45901 52028,45900 52034,45900 52038,45898 52043,45897 52048,45895 52053,45894 52057,45892 52062,45889 52066,45887 52071,45884 52075,45881 52079,45878 52083,45875 52086,45871 52090,45868 52093,45864 52096,45860 52099,45856 52102,45851 52104,45847 52107,45843 52109,45838 52110,45833 52112,45828 52113,45824 52114,45819 52115,45814 52116,45809 52116,45804 52116,45799 52116,45691 52116,45686 52116,45681 52115,45676 52114,45671 52113,45666 52112,45661 52110,45657 52109,45652 52107,45647 52104,45643 52102,45638 52099,45634 52096,45630 52093,45626 52090,45622 52086,45619 52083,45615 52079,45612 52075,45609 52071,45606 52066,45603 52062,45601 52057,45598 52053,45596 52048,45594 52043,45593 52038,45592 52034,45590 52028,45590 52024,45589 52019,45589 52014,45588 52008,45589 52003,45589 51998,45590 51993,45590 51988,45592 51984,45593 51979,45594 51974,45596 51969,45598 51964,45601 51960,45603 51955,45606 51951,45609 51947,45612 51943,45615 51940,45619 51936,45622 51933,45626 51930,45630 51927,45634 51924,45638 51922,45643 51919,45647 51917,45652 51916,45657 51914,45661 51913,45666 51912,45671 51911,45676 51910,45681 51910,45686 51910,45691 Z"/>
    <path fill="none" stroke="rgb(0,0,0)" d="M 51965,45686 L 51965,45804 51965,45808 51965,45813 51967,45818 51969,45822 51971,45826 51974,45830 51976,45834 51980,45837 51983,45841 51987,45843 51991,45846 51995,45848 52000,45849 52004,45851 52009,45851 52014,45851 52018,45851 52023,45851 52027,45849 52032,45848 52036,45846 52040,45843 52044,45841 52047,45837 52050,45834 52053,45830 52056,45826 52058,45822 52059,45818 52060,45813 52061,45808 52061,45804 52061,45686 52061,45682 52060,45677 52059,45672 52058,45668 52056,45664 52053,45660 52050,45656 52047,45652 52044,45649 52040,45647 52036,45644 52032,45642 52027,45641 52023,45639 52018,45639 52014,45638 52009,45639 52004,45639 52000,45641 51995,45642 51991,45644 51987,45647 51983,45649 51980,45652 51976,45656 51974,45660 51971,45664 51969,45668 51967,45672 51965,45677 51965,45682 51965,45686 Z"/>
    <path fill="none" stroke="rgb(0,0,0)" d="M 51910,45691 L 51910,45799 51910,45804 51910,45809 51911,45814 51912,45819 51913,45824 51914,45828 51916,45833 51917,45838 51919,45843 51922,45847 51924,45851 51927,45856 51930,45860 51933,45864 51936,45868 51940,45871 51943,45875 51947,45878 51951,45881 51955,45884 51960,45887 51964,45889 51969,45892 51974,45894 51979,45895 51984,45897 51988,45898 51993,45900 51998,45900 52003,45901 52008,45901 52014,45901 52019,45901 52024,45901 52028,45900 52034,45900 52038,45898 52043,45897 52048,45895 52053,45894 52057,45892 52062,45889 52066,45887 52071,45884 52075,45881 52079,45878 52083,45875 52086,45871 52090,45868 52093,45864 52096,45860 52099,45856 52102,45851 52104,45847 52107,45843 52109,45838 52110,45833 52112,45828 52113,45824 52114,45819 52115,45814 52116,45809 52116,45804 52116,45799 52116,45691 52116,45686 52116,45681 52115,45676 52114,45671 52113,45666 52112,45661 52110,45657 52109,45652 52107,45647 52104,45643 52102,45638 52099,45634 52096,45630 52093,45626 52090,45622 52086,45619 52083,45615 52079,45612 52075,45609 52071,45606 52066,45603 52062,45601 52057,45598 52053,45596 52048,45594 52043,45593 52038,45592 52034,45590 52028,45590 52024,45589 52019,45589 52014,45588 52008,45589 52003,45589 51998,45590 51993,45590 51988,45592 51984,45593 51979,45594 51974,45596 51969,45598 51964,45601 51960,45603 51955,45606 51951,45609 51947,45612 51943,45615 51940,45619 51936,45622 51933,45626 51930,45630 51927,45634 51924,45638 51922,45643 51919,45647 51917,45652 51916,45657 51914,45661 51913,45666 51912,45671 51911,45676 51910,45681 51910,45686 51910,45691 Z"/>
   </g>
  </g>
  <g class="com.sun.star.drawing.PolyPolygonShape">
   <g id="id18">
    <rect class="BoundingBox" stroke="none" fill="none" x="52219" y="45587" width="210" height="316"/>
    <path fill="rgb(0,0,0)" stroke="none" d="M 52275,45686 L 52275,45804 52276,45808 52276,45813 52277,45818 52279,45822 52281,45826 52283,45830 52286,45834 52289,45837 52293,45841 52297,45843 52301,45846 52305,45848 52309,45849 52314,45851 52319,45851 52323,45851 52328,45851 52333,45851 52337,45849 52342,45848 52346,45846 52350,45843 52354,45841 52357,45837 52360,45834 52363,45830 52365,45826 52367,45822 52369,45818 52370,45813 52371,45808 52371,45804 52371,45686 52371,45682 52370,45677 52369,45672 52367,45668 52365,45664 52363,45660 52360,45656 52357,45652 52354,45649 52350,45647 52346,45644 52342,45642 52337,45641 52333,45639 52328,45639 52323,45638 52319,45639 52314,45639 52309,45641 52305,45642 52301,45644 52297,45647 52293,45649 52289,45652 52286,45656 52283,45660 52281,45664 52279,45668 52277,45672 52276,45677 52276,45682 52275,45686 Z M 52220,45691 L 52220,45799 52220,45804 52221,45809 52221,45814 52222,45819 52223,45824 52225,45828 52226,45833 52228,45838 52230,45843 52233,45847 52235,45851 52238,45856 52241,45860 52244,45864 52247,45868 52250,45871 52254,45875 52258,45878 52262,45881 52266,45884 52270,45887 52275,45889 52279,45892 52284,45894 52289,45895 52293,45897 52298,45898 52303,45900 52308,45900 52313,45901 52318,45901 52323,45901 52328,45901 52333,45901 52338,45900 52343,45900 52348,45898 52353,45897 52358,45895 52363,45894 52367,45892 52372,45889 52376,45887 52381,45884 52385,45881 52389,45878 52393,45875 52397,45871 52400,45868 52404,45864 52407,45860 52410,45856 52413,45851 52415,45847 52417,45843 52419,45838 52421,45833 52423,45828 52424,45824 52425,45819 52426,45814 52427,45809 52427,45804 52427,45799 52427,45691 52427,45686 52427,45681 52426,45676 52425,45671 52424,45666 52423,45661 52421,45657 52419,45652 52417,45647 52415,45643 52413,45638 52410,45634 52407,45630 52404,45626 52400,45622 52397,45619 52393,45615 52389,45612 52385,45609 52381,45606 52376,45603 52372,45601 52367,45598 52363,45596 52358,45594 52353,45593 52348,45592 52343,45590 52338,45590 52333,45589 52328,45589 52323,45588 52318,45589 52313,45589 52308,45590 52303,45590 52298,45592 52293,45593 52289,45594 52284,45596 52279,45598 52275,45601 52270,45603 52266,45606 52262,45609 52258,45612 52254,45615 52250,45619 52247,45622 52244,45626 52241,45630 52238,45634 52235,45638 52233,45643 52230,45647 52228,45652 52226,45657 52225,45661 52223,45666 52222,45671 52221,45676 52221,45681 52220,45686 52220,45691 Z"/>
    <path fill="none" stroke="rgb(0,0,0)" d="M 52275,45686 L 52275,45804 52276,45808 52276,45813 52277,45818 52279,45822 52281,45826 52283,45830 52286,45834 52289,45837 52293,45841 52297,45843 52301,45846 52305,45848 52309,45849 52314,45851 52319,45851 52323,45851 52328,45851 52333,45851 52337,45849 52342,45848 52346,45846 52350,45843 52354,45841 52357,45837 52360,45834 52363,45830 52365,45826 52367,45822 52369,45818 52370,45813 52371,45808 52371,45804 52371,45686 52371,45682 52370,45677 52369,45672 52367,45668 52365,45664 52363,45660 52360,45656 52357,45652 52354,45649 52350,45647 52346,45644 52342,45642 52337,45641 52333,45639 52328,45639 52323,45638 52319,45639 52314,45639 52309,45641 52305,45642 52301,45644 52297,45647 52293,45649 52289,45652 52286,45656 52283,45660 52281,45664 52279,45668 52277,45672 52276,45677 52276,45682 52275,45686 Z"/>
    <path fill="none" stroke="rgb(0,0,0)" d="M 52220,45691 L 52220,45799 52220,45804 52221,45809 52221,45814 52222,45819 52223,45824 52225,45828 52226,45833 52228,45838 52230,45843 52233,45847 52235,45851 52238,45856 52241,45860 52244,45864 52247,45868 52250,45871 52254,45875 52258,45878 52262,45881 52266,45884 52270,45887 52275,45889 52279,45892 52284,45894 52289,45895 52293,45897 52298,45898 52303,45900 52308,45900 52313,45901 52318,45901 52323,45901 52328,45901 52333,45901 52338,45900 52343,45900 52348,45898 52353,45897 52358,45895 52363,45894 52367,45892 52372,45889 52376,45887 52381,45884 52385,45881 52389,45878 52393,45875 52397,45871 52400,45868 52404,45864 52407,45860 52410,45856 52413,45851 52415,45847 52417,45843 52419,45838 52421,45833 52423,45828 52424,45824 52425,45819 52426,45814 52427,45809 52427,45804 52427,45799 52427,45691 52427,45686 52427,45681 52426,45676 52425,45671 52424,45666 52423,45661 52421,45657 52419,45652 52417,45647 52415,45643 52413,45638 52410,45634 52407,45630 52404,45626 52400,45622 52397,45619 52393,45615 52389,45612 52385,45609 52381,45606 52376,45603 52372,45601 52367,45598 52363,45596 52358,45594 52353,45593 52348,45592 52343,45590 52338,45590 52333,45589 52328,45589 52323,45588 52318,45589 52313,45589 52308,45590 52303,45590 52298,45592 52293,45593 52289,45594 52284,45596 52279,45598 52275,45601 52270,45603 52266,45606 52262,45609 52258,45612 52254,45615 52250,45619 52247,45622 52244,45626 52241,45630 52238,45634 52235,45638 52233,45643 52230,45647 52228,45652 52226,45657 52225,45661 52223,45666 52222,45671 52221,45676 52221,45681 52220,45686 52220,45691 Z"/>
   </g>
  </g>
  <g class="com.sun.star.drawing.PolyPolygonShape">
   <g id="id19">
    <rect class="BoundingBox" stroke="none" fill="none" x="52219" y="45587" width="210" height="316"/>
    <path fill="rgb(0,0,0)" stroke="none" d="M 52275,45686 L 52275,45804 52276,45808 52276,45813 52277,45818 52279,45822 52281,45826 52283,45830 52286,45834 52289,45837 52293,45841 52297,45843 52301,45846 52305,45848 52309,45849 52314,45851 52319,45851 52323,45851 52328,45851 52333,45851 52337,45849 52342,45848 52346,45846 52350,45843 52354,45841 52357,45837 52360,45834 52363,45830 52365,45826 52367,45822 52369,45818 52370,45813 52371,45808 52371,45804 52371,45686 52371,45682 52370,45677 52369,45672 52367,45668 52365,45664 52363,45660 52360,45656 52357,45652 52354,45649 52350,45647 52346,45644 52342,45642 52337,45641 52333,45639 52328,45639 52323,45638 52319,45639 52314,45639 52309,45641 52305,45642 52301,45644 52297,45647 52293,45649 52289,45652 52286,45656 52283,45660 52281,45664 52279,45668 52277,45672 52276,45677 52276,45682 52275,45686 Z M 52220,45691 L 52220,45799 52220,45804 52221,45809 52221,45814 52222,45819 52223,45824 52225,45828 52226,45833 52228,45838 52230,45843 52233,45847 52235,45851 52238,45856 52241,45860 52244,45864 52247,45868 52250,45871 52254,45875 52258,45878 52262,45881 52266,45884 52270,45887 52275,45889 52279,45892 52284,45894 52289,45895 52293,45897 52298,45898 52303,45900 52308,45900 52313,45901 52318,45901 52323,45901 52328,45901 52333,45901 52338,45900 52343,45900 52348,45898 52353,45897 52358,45895 52363,45894 52367,45892 52372,45889 52376,45887 52381,45884 52385,45881 52389,45878 52393,45875 52397,45871 52400,45868 52404,45864 52407,45860 52410,45856 52413,45851 52415,45847 52417,45843 52419,45838 52421,45833 52423,45828 52424,45824 52425,45819 52426,45814 52427,45809 52427,45804 52427,45799 52427,45691 52427,45686 52427,45681 52426,45676 52425,45671 52424,45666 52423,45661 52421,45657 52419,45652 52417,45647 52415,45643 52413,45638 52410,45634 52407,45630 52404,45626 52400,45622 52397,45619 52393,45615 52389,45612 52385,45609 52381,45606 52376,45603 52372,45601 52367,45598 52363,45596 52358,45594 52353,45593 52348,45592 52343,45590 52338,45590 52333,45589 52328,45589 52323,45588 52318,45589 52313,45589 52308,45590 52303,45590 52298,45592 52293,45593 52289,45594 52284,45596 52279,45598 52275,45601 52270,45603 52266,45606 52262,45609 52258,45612 52254,45615 52250,45619 52247,45622 52244,45626 52241,45630 52238,45634 52235,45638 52233,45643 52230,45647 52228,45652 52226,45657 52225,45661 52223,45666 52222,45671 52221,45676 52221,45681 52220,45686 52220,45691 Z"/>
    <path fill="none" stroke="rgb(0,0,0)" d="M 52275,45686 L 52275,45804 52276,45808 52276,45813 52277,45818 52279,45822 52281,45826 52283,45830 52286,45834 52289,45837 52293,45841 52297,45843 52301,45846 52305,45848 52309,45849 52314,45851 52319,45851 52323,45851 52328,45851 52333,45851 52337,45849 52342,45848 52346,45846 52350,45843 52354,45841 52357,45837 52360,45834 52363,45830 52365,45826 52367,45822 52369,45818 52370,45813 52371,45808 52371,45804 52371,45686 52371,45682 52370,45677 52369,45672 52367,45668 52365,45664 52363,45660 52360,45656 52357,45652 52354,45649 52350,45647 52346,45644 52342,45642 52337,45641 52333,45639 52328,45639 52323,45638 52319,45639 52314,45639 52309,45641 52305,45642 52301,45644 52297,45647 52293,45649 52289,45652 52286,45656 52283,45660 52281,45664 52279,45668 52277,45672 52276,45677 52276,45682 52275,45686 Z"/>
    <path fill="none" stroke="rgb(0,0,0)" d="M 52220,45691 L 52220,45799 52220,45804 52221,45809 52221,45814 52222,45819 52223,45824 52225,45828 52226,45833 52228,45838 52230,45843 52233,45847 52235,45851 52238,45856 52241,45860 52244,45864 52247,45868 52250,45871 52254,45875 52258,45878 52262,45881 52266,45884 52270,45887 52275,45889 52279,45892 52284,45894 52289,45895 52293,45897 52298,45898 52303,45900 52308,45900 52313,45901 52318,45901 52323,45901 52328,45901 52333,45901 52338,45900 52343,45900 52348,45898 52353,45897 52358,45895 52363,45894 52367,45892 52372,45889 52376,45887 52381,45884 52385,45881 52389,45878 52393,45875 52397,45871 52400,45868 52404,45864 52407,45860 52410,45856 52413,45851 52415,45847 52417,45843 52419,45838 52421,45833 52423,45828 52424,45824 52425,45819 52426,45814 52427,45809 52427,45804 52427,45799 52427,45691 52427,45686 52427,45681 52426,45676 52425,45671 52424,45666 52423,45661 52421,45657 52419,45652 52417,45647 52415,45643 52413,45638 52410,45634 52407,45630 52404,45626 52400,45622 52397,45619 52393,45615 52389,45612 52385,45609 52381,45606 52376,45603 52372,45601 52367,45598 52363,45596 52358,45594 52353,45593 52348,45592 52343,45590 52338,45590 52333,45589 52328,45589 52323,45588 52318,45589 52313,45589 52308,45590 52303,45590 52298,45592 52293,45593 52289,45594 52284,45596 52279,45598 52275,45601 52270,45603 52266,45606 52262,45609 52258,45612 52254,45615 52250,45619 52247,45622 52244,45626 52241,45630 52238,45634 52235,45638 52233,45643 52230,45647 52228,45652 52226,45657 52225,45661 52223,45666 52222,45671 52221,45676 52221,45681 52220,45686 52220,45691 Z"/>
   </g>
  </g>
  <g class="com.sun.star.drawing.PolyPolygonShape">
   <g id="id20">
    <rect class="BoundingBox" stroke="none" fill="none" x="52219" y="45587" width="210" height="316"/>
    <path fill="rgb(0,0,0)" stroke="none" d="M 52275,45686 L 52275,45804 52276,45808 52276,45813 52277,45818 52279,45822 52281,45826 52283,45830 52286,45834 52289,45837 52293,45841 52297,45843 52301,45846 52305,45848 52309,45849 52314,45851 52319,45851 52323,45851 52328,45851 52333,45851 52337,45849 52342,45848 52346,45846 52350,45843 52354,45841 52357,45837 52360,45834 52363,45830 52365,45826 52367,45822 52369,45818 52370,45813 52371,45808 52371,45804 52371,45686 52371,45682 52370,45677 52369,45672 52367,45668 52365,45664 52363,45660 52360,45656 52357,45652 52354,45649 52350,45647 52346,45644 52342,45642 52337,45641 52333,45639 52328,45639 52323,45638 52319,45639 52314,45639 52309,45641 52305,45642 52301,45644 52297,45647 52293,45649 52289,45652 52286,45656 52283,45660 52281,45664 52279,45668 52277,45672 52276,45677 52276,45682 52275,45686 Z M 52220,45691 L 52220,45799 52220,45804 52221,45809 52221,45814 52222,45819 52223,45824 52225,45828 52226,45833 52228,45838 52230,45843 52233,45847 52235,45851 52238,45856 52241,45860 52244,45864 52247,45868 52250,45871 52254,45875 52258,45878 52262,45881 52266,45884 52270,45887 52275,45889 52279,45892 52284,45894 52289,45895 52293,45897 52298,45898 52303,45900 52308,45900 52313,45901 52318,45901 52323,45901 52328,45901 52333,45901 52338,45900 52343,45900 52348,45898 52353,45897 52358,45895 52363,45894 52367,45892 52372,45889 52376,45887 52381,45884 52385,45881 52389,45878 52393,45875 52397,45871 52400,45868 52404,45864 52407,45860 52410,45856 52413,45851 52415,45847 52417,45843 52419,45838 52421,45833 52423,45828 52424,45824 52425,45819 52426,45814 52427,45809 52427,45804 52427,45799 52427,45691 52427,45686 52427,45681 52426,45676 52425,45671 52424,45666 52423,45661 52421,45657 52419,45652 52417,45647 52415,45643 52413,45638 52410,45634 52407,45630 52404,45626 52400,45622 52397,45619 52393,45615 52389,45612 52385,45609 52381,45606 52376,45603 52372,45601 52367,45598 52363,45596 52358,45594 52353,45593 52348,45592 52343,45590 52338,45590 52333,45589 52328,45589 52323,45588 52318,45589 52313,45589 52308,45590 52303,45590 52298,45592 52293,45593 52289,45594 52284,45596 52279,45598 52275,45601 52270,45603 52266,45606 52262,45609 52258,45612 52254,45615 52250,45619 52247,45622 52244,45626 52241,45630 52238,45634 52235,45638 52233,45643 52230,45647 52228,45652 52226,45657 52225,45661 52223,45666 52222,45671 52221,45676 52221,45681 52220,45686 52220,45691 Z"/>
    <path fill="none" stroke="rgb(0,0,0)" d="M 52275,45686 L 52275,45804 52276,45808 52276,45813 52277,45818 52279,45822 52281,45826 52283,45830 52286,45834 52289,45837 52293,45841 52297,45843 52301,45846 52305,45848 52309,45849 52314,45851 52319,45851 52323,45851 52328,45851 52333,45851 52337,45849 52342,45848 52346,45846 52350,45843 52354,45841 52357,45837 52360,45834 52363,45830 52365,45826 52367,45822 52369,45818 52370,45813 52371,45808 52371,45804 52371,45686 52371,45682 52370,45677 52369,45672 52367,45668 52365,45664 52363,45660 52360,45656 52357,45652 52354,45649 52350,45647 52346,45644 52342,45642 52337,45641 52333,45639 52328,45639 52323,45638 52319,45639 52314,45639 52309,45641 52305,45642 52301,45644 52297,45647 52293,45649 52289,45652 52286,45656 52283,45660 52281,45664 52279,45668 52277,45672 52276,45677 52276,45682 52275,45686 Z"/>
    <path fill="none" stroke="rgb(0,0,0)" d="M 52220,45691 L 52220,45799 52220,45804 52221,45809 52221,45814 52222,45819 52223,45824 52225,45828 52226,45833 52228,45838 52230,45843 52233,45847 52235,45851 52238,45856 52241,45860 52244,45864 52247,45868 52250,45871 52254,45875 52258,45878 52262,45881 52266,45884 52270,45887 52275,45889 52279,45892 52284,45894 52289,45895 52293,45897 52298,45898 52303,45900 52308,45900 52313,45901 52318,45901 52323,45901 52328,45901 52333,45901 52338,45900 52343,45900 52348,45898 52353,45897 52358,45895 52363,45894 52367,45892 52372,45889 52376,45887 52381,45884 52385,45881 52389,45878 52393,45875 52397,45871 52400,45868 52404,45864 52407,45860 52410,45856 52413,45851 52415,45847 52417,45843 52419,45838 52421,45833 52423,45828 52424,45824 52425,45819 52426,45814 52427,45809 52427,45804 52427,45799 52427,45691 52427,45686 52427,45681 52426,45676 52425,45671 52424,45666 52423,45661 52421,45657 52419,45652 52417,45647 52415,45643 52413,45638 52410,45634 52407,45630 52404,45626 52400,45622 52397,45619 52393,45615 52389,45612 52385,45609 52381,45606 52376,45603 52372,45601 52367,45598 52363,45596 52358,45594 52353,45593 52348,45592 52343,45590 52338,45590 52333,45589 52328,45589 52323,45588 52318,45589 52313,45589 52308,45590 52303,45590 52298,45592 52293,45593 52289,45594 52284,45596 52279,45598 52275,45601 52270,45603 52266,45606 52262,45609 52258,45612 52254,45615 52250,45619 52247,45622 52244,45626 52241,45630 52238,45634 52235,45638 52233,45643 52230,45647 52228,45652 52226,45657 52225,45661 52223,45666 52222,45671 52221,45676 52221,45681 52220,45686 52220,45691 Z"/>
   </g>
  </g>
  <g class="com.sun.star.drawing.PolyPolygonShape">
   <g id="id21">
    <rect class="BoundingBox" stroke="none" fill="none" x="52596" y="45673" width="298" height="224"/>
    <path fill="rgb(0,0,0)" stroke="none" d="M 52597,45895 L 52648,45895 52648,45753 52648,45749 52648,45746 52649,45742 52650,45739 52652,45736 52654,45733 52656,45730 52658,45728 52661,45725 52663,45723 52666,45721 52670,45720 52673,45719 52676,45718 52680,45717 52683,45717 52687,45717 52690,45718 52694,45719 52697,45720 52700,45721 52703,45723 52706,45725 52708,45728 52711,45730 52713,45733 52715,45736 52716,45739 52718,45742 52718,45746 52719,45749 52719,45753 52719,45895 52769,45895 52769,45753 52769,45749 52770,45746 52770,45742 52772,45739 52773,45736 52775,45733 52777,45730 52779,45728 52782,45725 52785,45723 52788,45721 52791,45720 52794,45719 52798,45718 52801,45717 52805,45717 52808,45717 52812,45718 52815,45719 52818,45720 52822,45721 52825,45723 52827,45725 52830,45728 52832,45730 52834,45733 52836,45736 52838,45739 52839,45742 52840,45746 52840,45749 52840,45753 52840,45895 52892,45895 52892,45745 52891,45739 52890,45733 52889,45728 52888,45722 52885,45717 52882,45712 52879,45707 52876,45702 52872,45698 52868,45693 52864,45690 52859,45686 52854,45683 52849,45681 52844,45678 52838,45677 52833,45675 52827,45675 52822,45674 52816,45674 52810,45675 52804,45676 52799,45677 52793,45679 52788,45682 52783,45684 52778,45688 52774,45691 52770,45695 52766,45700 52762,45704 52759,45709 52757,45705 52755,45702 52752,45699 52749,45696 52747,45693 52743,45690 52740,45688 52737,45686 52733,45683 52730,45682 52726,45680 52722,45678 52718,45677 52715,45676 52711,45675 52707,45675 52703,45674 52698,45674 52694,45674 52690,45675 52686,45675 52682,45676 52678,45677 52675,45678 52671,45680 52667,45681 52663,45683 52660,45686 52657,45688 52654,45690 52650,45693 52648,45696 52648,45680 52597,45680 52597,45895 Z"/>
    <path fill="none" stroke="rgb(0,0,0)" d="M 52597,45895 L 52648,45895 52648,45753 52648,45749 52648,45746 52649,45742 52650,45739 52652,45736 52654,45733 52656,45730 52658,45728 52661,45725 52663,45723 52666,45721 52670,45720 52673,45719 52676,45718 52680,45717 52683,45717 52687,45717 52690,45718 52694,45719 52697,45720 52700,45721 52703,45723 52706,45725 52708,45728 52711,45730 52713,45733 52715,45736 52716,45739 52718,45742 52718,45746 52719,45749 52719,45753 52719,45895 52769,45895 52769,45753 52769,45749 52770,45746 52770,45742 52772,45739 52773,45736 52775,45733 52777,45730 52779,45728 52782,45725 52785,45723 52788,45721 52791,45720 52794,45719 52798,45718 52801,45717 52805,45717 52808,45717 52812,45718 52815,45719 52818,45720 52822,45721 52825,45723 52827,45725 52830,45728 52832,45730 52834,45733 52836,45736 52838,45739 52839,45742 52840,45746 52840,45749 52840,45753 52840,45895 52892,45895 52892,45745 52891,45739 52890,45733 52889,45728 52888,45722 52885,45717 52882,45712 52879,45707 52876,45702 52872,45698 52868,45693 52864,45690 52859,45686 52854,45683 52849,45681 52844,45678 52838,45677 52833,45675 52827,45675 52822,45674 52816,45674 52810,45675 52804,45676 52799,45677 52793,45679 52788,45682 52783,45684 52778,45688 52774,45691 52770,45695 52766,45700 52762,45704 52759,45709 52757,45705 52755,45702 52752,45699 52749,45696 52747,45693 52743,45690 52740,45688 52737,45686 52733,45683 52730,45682 52726,45680 52722,45678 52718,45677 52715,45676 52711,45675 52707,45675 52703,45674 52698,45674 52694,45674 52690,45675 52686,45675 52682,45676 52678,45677 52675,45678 52671,45680 52667,45681 52663,45683 52660,45686 52657,45688 52654,45690 52650,45693 52648,45696 52648,45680 52597,45680 52597,45895 Z"/>
   </g>
  </g>
  <g class="com.sun.star.drawing.PolyPolygonShape">
   <g id="id22">
    <rect class="BoundingBox" stroke="none" fill="none" x="52596" y="45673" width="298" height="224"/>
    <path fill="rgb(0,0,0)" stroke="none" d="M 52597,45895 L 52648,45895 52648,45753 52648,45749 52648,45746 52649,45742 52650,45739 52652,45736 52654,45733 52656,45730 52658,45728 52661,45725 52663,45723 52666,45721 52670,45720 52673,45719 52676,45718 52680,45717 52683,45717 52687,45717 52690,45718 52694,45719 52697,45720 52700,45721 52703,45723 52706,45725 52708,45728 52711,45730 52713,45733 52715,45736 52716,45739 52718,45742 52718,45746 52719,45749 52719,45753 52719,45895 52769,45895 52769,45753 52769,45749 52770,45746 52770,45742 52772,45739 52773,45736 52775,45733 52777,45730 52779,45728 52782,45725 52785,45723 52788,45721 52791,45720 52794,45719 52798,45718 52801,45717 52805,45717 52808,45717 52812,45718 52815,45719 52818,45720 52822,45721 52825,45723 52827,45725 52830,45728 52832,45730 52834,45733 52836,45736 52838,45739 52839,45742 52840,45746 52840,45749 52840,45753 52840,45895 52892,45895 52892,45745 52891,45739 52890,45733 52889,45728 52888,45722 52885,45717 52882,45712 52879,45707 52876,45702 52872,45698 52868,45693 52864,45690 52859,45686 52854,45683 52849,45681 52844,45678 52838,45677 52833,45675 52827,45675 52822,45674 52816,45674 52810,45675 52804,45676 52799,45677 52793,45679 52788,45682 52783,45684 52778,45688 52774,45691 52770,45695 52766,45700 52762,45704 52759,45709 52757,45705 52755,45702 52752,45699 52749,45696 52747,45693 52743,45690 52740,45688 52737,45686 52733,45683 52730,45682 52726,45680 52722,45678 52718,45677 52715,45676 52711,45675 52707,45675 52703,45674 52698,45674 52694,45674 52690,45675 52686,45675 52682,45676 52678,45677 52675,45678 52671,45680 52667,45681 52663,45683 52660,45686 52657,45688 52654,45690 52650,45693 52648,45696 52648,45680 52597,45680 52597,45895 Z"/>
    <path fill="none" stroke="rgb(0,0,0)" d="M 52597,45895 L 52648,45895 52648,45753 52648,45749 52648,45746 52649,45742 52650,45739 52652,45736 52654,45733 52656,45730 52658,45728 52661,45725 52663,45723 52666,45721 52670,45720 52673,45719 52676,45718 52680,45717 52683,45717 52687,45717 52690,45718 52694,45719 52697,45720 52700,45721 52703,45723 52706,45725 52708,45728 52711,45730 52713,45733 52715,45736 52716,45739 52718,45742 52718,45746 52719,45749 52719,45753 52719,45895 52769,45895 52769,45753 52769,45749 52770,45746 52770,45742 52772,45739 52773,45736 52775,45733 52777,45730 52779,45728 52782,45725 52785,45723 52788,45721 52791,45720 52794,45719 52798,45718 52801,45717 52805,45717 52808,45717 52812,45718 52815,45719 52818,45720 52822,45721 52825,45723 52827,45725 52830,45728 52832,45730 52834,45733 52836,45736 52838,45739 52839,45742 52840,45746 52840,45749 52840,45753 52840,45895 52892,45895 52892,45745 52891,45739 52890,45733 52889,45728 52888,45722 52885,45717 52882,45712 52879,45707 52876,45702 52872,45698 52868,45693 52864,45690 52859,45686 52854,45683 52849,45681 52844,45678 52838,45677 52833,45675 52827,45675 52822,45674 52816,45674 52810,45675 52804,45676 52799,45677 52793,45679 52788,45682 52783,45684 52778,45688 52774,45691 52770,45695 52766,45700 52762,45704 52759,45709 52757,45705 52755,45702 52752,45699 52749,45696 52747,45693 52743,45690 52740,45688 52737,45686 52733,45683 52730,45682 52726,45680 52722,45678 52718,45677 52715,45676 52711,45675 52707,45675 52703,45674 52698,45674 52694,45674 52690,45675 52686,45675 52682,45676 52678,45677 52675,45678 52671,45680 52667,45681 52663,45683 52660,45686 52657,45688 52654,45690 52650,45693 52648,45696 52648,45680 52597,45680 52597,45895 Z"/>
   </g>
  </g>
  <g class="com.sun.star.drawing.PolyPolygonShape">
   <g id="id23">
    <rect class="BoundingBox" stroke="none" fill="none" x="52596" y="45673" width="298" height="224"/>
    <path fill="rgb(0,0,0)" stroke="none" d="M 52597,45895 L 52648,45895 52648,45753 52648,45749 52648,45746 52649,45742 52650,45739 52652,45736 52654,45733 52656,45730 52658,45728 52661,45725 52663,45723 52666,45721 52670,45720 52673,45719 52676,45718 52680,45717 52683,45717 52687,45717 52690,45718 52694,45719 52697,45720 52700,45721 52703,45723 52706,45725 52708,45728 52711,45730 52713,45733 52715,45736 52716,45739 52718,45742 52718,45746 52719,45749 52719,45753 52719,45895 52769,45895 52769,45753 52769,45749 52770,45746 52770,45742 52772,45739 52773,45736 52775,45733 52777,45730 52779,45728 52782,45725 52785,45723 52788,45721 52791,45720 52794,45719 52798,45718 52801,45717 52805,45717 52808,45717 52812,45718 52815,45719 52818,45720 52822,45721 52825,45723 52827,45725 52830,45728 52832,45730 52834,45733 52836,45736 52838,45739 52839,45742 52840,45746 52840,45749 52840,45753 52840,45895 52892,45895 52892,45745 52891,45739 52890,45733 52889,45728 52888,45722 52885,45717 52882,45712 52879,45707 52876,45702 52872,45698 52868,45693 52864,45690 52859,45686 52854,45683 52849,45681 52844,45678 52838,45677 52833,45675 52827,45675 52822,45674 52816,45674 52810,45675 52804,45676 52799,45677 52793,45679 52788,45682 52783,45684 52778,45688 52774,45691 52770,45695 52766,45700 52762,45704 52759,45709 52757,45705 52755,45702 52752,45699 52749,45696 52747,45693 52743,45690 52740,45688 52737,45686 52733,45683 52730,45682 52726,45680 52722,45678 52718,45677 52715,45676 52711,45675 52707,45675 52703,45674 52698,45674 52694,45674 52690,45675 52686,45675 52682,45676 52678,45677 52675,45678 52671,45680 52667,45681 52663,45683 52660,45686 52657,45688 52654,45690 52650,45693 52648,45696 52648,45680 52597,45680 52597,45895 Z"/>
    <path fill="none" stroke="rgb(0,0,0)" d="M 52597,45895 L 52648,45895 52648,45753 52648,45749 52648,45746 52649,45742 52650,45739 52652,45736 52654,45733 52656,45730 52658,45728 52661,45725 52663,45723 52666,45721 52670,45720 52673,45719 52676,45718 52680,45717 52683,45717 52687,45717 52690,45718 52694,45719 52697,45720 52700,45721 52703,45723 52706,45725 52708,45728 52711,45730 52713,45733 52715,45736 52716,45739 52718,45742 52718,45746 52719,45749 52719,45753 52719,45895 52769,45895 52769,45753 52769,45749 52770,45746 52770,45742 52772,45739 52773,45736 52775,45733 52777,45730 52779,45728 52782,45725 52785,45723 52788,45721 52791,45720 52794,45719 52798,45718 52801,45717 52805,45717 52808,45717 52812,45718 52815,45719 52818,45720 52822,45721 52825,45723 52827,45725 52830,45728 52832,45730 52834,45733 52836,45736 52838,45739 52839,45742 52840,45746 52840,45749 52840,45753 52840,45895 52892,45895 52892,45745 52891,45739 52890,45733 52889,45728 52888,45722 52885,45717 52882,45712 52879,45707 52876,45702 52872,45698 52868,45693 52864,45690 52859,45686 52854,45683 52849,45681 52844,45678 52838,45677 52833,45675 52827,45675 52822,45674 52816,45674 52810,45675 52804,45676 52799,45677 52793,45679 52788,45682 52783,45684 52778,45688 52774,45691 52770,45695 52766,45700 52762,45704 52759,45709 52757,45705 52755,45702 52752,45699 52749,45696 52747,45693 52743,45690 52740,45688 52737,45686 52733,45683 52730,45682 52726,45680 52722,45678 52718,45677 52715,45676 52711,45675 52707,45675 52703,45674 52698,45674 52694,45674 52690,45675 52686,45675 52682,45676 52678,45677 52675,45678 52671,45680 52667,45681 52663,45683 52660,45686 52657,45688 52654,45690 52650,45693 52648,45696 52648,45680 52597,45680 52597,45895 Z"/>
   </g>
  </g>
  <g class="com.sun.star.drawing.PolyPolygonShape">
   <g id="id24">
    <rect class="BoundingBox" stroke="none" fill="none" x="52004" y="45208" width="304" height="255"/>
    <path fill="rgb(0,0,0)" stroke="none" d="M 52306,45461 L 52306,45359 52306,45352 52305,45345 52304,45337 52303,45330 52301,45323 52299,45316 52297,45309 52295,45302 52291,45295 52288,45289 52285,45282 52281,45276 52276,45270 52272,45264 52267,45259 52262,45253 52257,45248 52251,45244 52245,45239 52239,45235 52233,45231 52227,45227 52220,45224 52213,45221 52206,45218 52199,45216 52192,45214 52185,45212 52178,45211 52171,45210 52163,45210 52156,45209 52149,45210 52141,45210 52134,45211 52127,45212 52119,45214 52112,45216 52105,45218 52098,45221 52092,45224 52085,45227 52079,45231 52072,45235 52067,45239 52061,45244 52055,45248 52049,45253 52044,45259 52039,45264 52034,45270 52030,45276 52026,45282 52023,45289 52019,45295 52016,45302 52014,45309 52011,45316 52009,45323 52008,45330 52006,45337 52006,45345 52005,45352 52005,45359 52005,45461 52306,45461 Z"/>
    <path fill="none" stroke="rgb(0,0,0)" d="M 52306,45461 L 52306,45359 52306,45352 52305,45345 52304,45337 52303,45330 52301,45323 52299,45316 52297,45309 52295,45302 52291,45295 52288,45289 52285,45282 52281,45276 52276,45270 52272,45264 52267,45259 52262,45253 52257,45248 52251,45244 52245,45239 52239,45235 52233,45231 52227,45227 52220,45224 52213,45221 52206,45218 52199,45216 52192,45214 52185,45212 52178,45211 52171,45210 52163,45210 52156,45209 52149,45210 52141,45210 52134,45211 52127,45212 52119,45214 52112,45216 52105,45218 52098,45221 52092,45224 52085,45227 52079,45231 52072,45235 52067,45239 52061,45244 52055,45248 52049,45253 52044,45259 52039,45264 52034,45270 52030,45276 52026,45282 52023,45289 52019,45295 52016,45302 52014,45309 52011,45316 52009,45323 52008,45330 52006,45337 52006,45345 52005,45352 52005,45359 52005,45461 52306,45461 Z"/>
   </g>
  </g>
  <g class="com.sun.star.drawing.PolyPolygonShape">
   <g id="id25">
    <rect class="BoundingBox" stroke="none" fill="none" x="52004" y="43569" width="304" height="354"/>
    <path fill="rgb(0,0,0)" stroke="none" d="M 52005,43570 L 52005,43770 52005,43777 52006,43784 52006,43792 52008,43799 52009,43807 52011,43814 52014,43821 52016,43828 52019,43835 52023,43841 52026,43848 52030,43854 52034,43860 52039,43866 52044,43871 52049,43877 52055,43882 52061,43887 52067,43891 52072,43895 52079,43899 52085,43903 52092,43906 52098,43909 52105,43912 52112,43914 52119,43916 52127,43918 52134,43919 52141,43920 52149,43920 52156,43921 52163,43920 52171,43920 52178,43919 52185,43918 52192,43916 52199,43914 52206,43912 52213,43909 52220,43906 52227,43903 52233,43899 52239,43895 52245,43891 52251,43887 52257,43882 52262,43877 52267,43871 52272,43866 52276,43860 52281,43854 52285,43848 52288,43841 52291,43835 52295,43828 52297,43821 52299,43814 52301,43807 52303,43799 52304,43792 52305,43784 52306,43777 52306,43770 52306,43570 52005,43570 Z"/>
    <path fill="none" stroke="rgb(0,0,0)" d="M 52005,43570 L 52005,43770 52005,43777 52006,43784 52006,43792 52008,43799 52009,43807 52011,43814 52014,43821 52016,43828 52019,43835 52023,43841 52026,43848 52030,43854 52034,43860 52039,43866 52044,43871 52049,43877 52055,43882 52061,43887 52067,43891 52072,43895 52079,43899 52085,43903 52092,43906 52098,43909 52105,43912 52112,43914 52119,43916 52127,43918 52134,43919 52141,43920 52149,43920 52156,43921 52163,43920 52171,43920 52178,43919 52185,43918 52192,43916 52199,43914 52206,43912 52213,43909 52220,43906 52227,43903 52233,43899 52239,43895 52245,43891 52251,43887 52257,43882 52262,43877 52267,43871 52272,43866 52276,43860 52281,43854 52285,43848 52288,43841 52291,43835 52295,43828 52297,43821 52299,43814 52301,43807 52303,43799 52304,43792 52305,43784 52306,43777 52306,43770 52306,43570 52005,43570 Z"/>
   </g>
  </g>
  <g class="com.sun.star.drawing.PolyPolygonShape">
   <g id="id26">
    <rect class="BoundingBox" stroke="none" fill="none" x="52004" y="43569" width="304" height="354"/>
    <path fill="rgb(0,0,0)" stroke="none" d="M 52005,43570 L 52005,43770 52005,43777 52006,43784 52006,43792 52008,43799 52009,43807 52011,43814 52014,43821 52016,43828 52019,43835 52023,43841 52026,43848 52030,43854 52034,43860 52039,43866 52044,43871 52049,43877 52055,43882 52061,43887 52067,43891 52072,43895 52079,43899 52085,43903 52092,43906 52098,43909 52105,43912 52112,43914 52119,43916 52127,43918 52134,43919 52141,43920 52149,43920 52156,43921 52163,43920 52171,43920 52178,43919 52185,43918 52192,43916 52199,43914 52206,43912 52213,43909 52220,43906 52227,43903 52233,43899 52239,43895 52245,43891 52251,43887 52257,43882 52262,43877 52267,43871 52272,43866 52276,43860 52281,43854 52285,43848 52288,43841 52291,43835 52295,43828 52297,43821 52299,43814 52301,43807 52303,43799 52304,43792 52305,43784 52306,43777 52306,43770 52306,43570 52005,43570 Z"/>
    <path fill="none" stroke="rgb(0,0,0)" d="M 52005,43570 L 52005,43770 52005,43777 52006,43784 52006,43792 52008,43799 52009,43807 52011,43814 52014,43821 52016,43828 52019,43835 52023,43841 52026,43848 52030,43854 52034,43860 52039,43866 52044,43871 52049,43877 52055,43882 52061,43887 52067,43891 52072,43895 52079,43899 52085,43903 52092,43906 52098,43909 52105,43912 52112,43914 52119,43916 52127,43918 52134,43919 52141,43920 52149,43920 52156,43921 52163,43920 52171,43920 52178,43919 52185,43918 52192,43916 52199,43914 52206,43912 52213,43909 52220,43906 52227,43903 52233,43899 52239,43895 52245,43891 52251,43887 52257,43882 52262,43877 52267,43871 52272,43866 52276,43860 52281,43854 52285,43848 52288,43841 52291,43835 52295,43828 52297,43821 52299,43814 52301,43807 52303,43799 52304,43792 52305,43784 52306,43777 52306,43770 52306,43570 52005,43570 Z"/>
   </g>
  </g>
 </g>
</svg>