<?xml version="1.0" encoding="UTF-8"?>
<!DOCTYPE svg PUBLIC "-//W3C//DTD SVG 1.1//EN" "http://www.w3.org/Graphics/SVG/1.1/DTD/svg11.dtd">
<svg version="1.2" width="21.47mm" height="25.03mm" viewBox="53682 43499 2147 2503" preserveAspectRatio="xMidYMid" fill-rule="evenodd" stroke-width="28.222" stroke-linejoin="round" xmlns="http://www.w3.org/2000/svg" xmlns:ooo="http://xml.openoffice.org/svg/export" xmlns:xlink="http://www.w3.org/1999/xlink" xmlns:presentation="http://sun.com/xmlns/staroffice/presentation" xmlns:smil="http://www.w3.org/2001/SMIL20/" xmlns:anim="urn:oasis:names:tc:opendocument:xmlns:animation:1.0" xml:space="preserve">
 <defs class="EmbeddedBulletChars">
  <g id="bullet-char-template-57356" transform="scale(0.00048828125,-0.00048828125)">
   <path d="M 580,1141 L 1163,571 580,0 -4,571 580,1141 Z"/>
  </g>
  <g id="bullet-char-template-57354" transform="scale(0.00048828125,-0.00048828125)">
   <path d="M 8,1128 L 1137,1128 1137,0 8,0 8,1128 Z"/>
  </g>
  <g id="bullet-char-template-10146" transform="scale(0.00048828125,-0.00048828125)">
   <path d="M 174,0 L 602,739 174,1481 1456,739 174,0 Z M 1358,739 L 309,1346 659,739 1358,739 Z"/>
  </g>
  <g id="bullet-char-template-10132" transform="scale(0.00048828125,-0.00048828125)">
   <path d="M 2015,739 L 1276,0 717,0 1260,543 174,543 174,936 1260,936 717,1481 1274,1481 2015,739 Z"/>
  </g>
  <g id="bullet-char-template-10007" transform="scale(0.00048828125,-0.00048828125)">
   <path d="M 0,-2 C -7,14 -16,27 -25,37 L 356,567 C 262,823 215,952 215,954 215,979 228,992 255,992 264,992 276,990 289,987 310,991 331,999 354,1012 L 381,999 492,748 772,1049 836,1024 860,1049 C 881,1039 901,1025 922,1006 886,937 835,863 770,784 769,783 710,716 594,584 L 774,223 C 774,196 753,168 711,139 L 727,119 C 717,90 699,76 672,76 641,76 570,178 457,381 L 164,-76 C 142,-110 111,-127 72,-127 30,-127 9,-110 8,-76 1,-67 -2,-52 -2,-32 -2,-23 -1,-13 0,-2 Z"/>
  </g>
  <g id="bullet-char-template-10004" transform="scale(0.00048828125,-0.00048828125)">
   <path d="M 285,-33 C 182,-33 111,30 74,156 52,228 41,333 41,471 41,549 55,616 82,672 116,743 169,778 240,778 293,778 328,747 346,684 L 369,508 C 377,444 397,411 428,410 L 1163,1116 C 1174,1127 1196,1133 1229,1133 1271,1133 1292,1118 1292,1087 L 1292,965 C 1292,929 1282,901 1262,881 L 442,47 C 390,-6 338,-33 285,-33 Z"/>
  </g>
  <g id="bullet-char-template-9679" transform="scale(0.00048828125,-0.00048828125)">
   <path d="M 813,0 C 632,0 489,54 383,161 276,268 223,411 223,592 223,773 276,916 383,1023 489,1130 632,1184 813,1184 992,1184 1136,1130 1245,1023 1353,916 1407,772 1407,592 1407,412 1353,268 1245,161 1136,54 992,0 813,0 Z"/>
  </g>
  <g id="bullet-char-template-8226" transform="scale(0.00048828125,-0.00048828125)">
   <path d="M 346,457 C 273,457 209,483 155,535 101,586 74,649 74,723 74,796 101,859 155,911 209,963 273,989 346,989 419,989 480,963 531,910 582,859 608,796 608,723 608,648 583,586 532,535 482,483 420,457 346,457 Z"/>
  </g>
  <g id="bullet-char-template-8211" transform="scale(0.00048828125,-0.00048828125)">
   <path d="M -4,459 L 1135,459 1135,606 -4,606 -4,459 Z"/>
  </g>
  <g id="bullet-char-template-61548" transform="scale(0.00048828125,-0.00048828125)">
   <path d="M 173,740 C 173,903 231,1043 346,1159 462,1274 601,1332 765,1332 928,1332 1067,1274 1183,1159 1299,1043 1357,903 1357,740 1357,577 1299,437 1183,322 1067,206 928,148 765,148 601,148 462,206 346,322 231,437 173,577 173,740 Z"/>
  </g>
 </defs>
 <g class="Page">
  <g class="com.sun.star.drawing.PolyPolygonShape">
   <g id="id3">
    <rect class="BoundingBox" stroke="none" fill="none" x="53682" y="43499" width="2147" height="2503"/>
    <path fill="rgb(255,129,0)" stroke="none" d="M 53683,45908 L 53683,43592 53684,43583 53685,43574 53687,43566 53690,43557 53694,43549 53699,43541 53704,43533 53711,43527 53717,43521 53725,43515 53732,43511 53741,43507 53749,43504 53758,43501 53767,43500 53776,43500 55735,43500 55744,43500 55753,43501 55762,43504 55770,43507 55778,43511 55786,43515 55793,43521 55800,43527 55806,43533 55812,43541 55816,43549 55820,43557 55823,43566 55826,43574 55827,43583 55827,43592 55827,45908 55827,45917 55826,45926 55823,45935 55820,45943 55816,45951 55812,45959 55806,45967 55800,45973 55793,45979 55786,45985 55778,45989 55770,45993 55762,45996 55753,45999 55744,46000 55735,46000 53776,46000 53767,46000 53758,45999 53749,45996 53741,45993 53732,45989 53725,45985 53717,45979 53711,45973 53704,45967 53699,45959 53694,45951 53690,45943 53687,45935 53685,45926 53684,45917 53683,45908 Z"/>
    <path fill="none" stroke="rgb(255,129,0)" d="M 53683,45908 L 53683,43592 53684,43583 53685,43574 53687,43566 53690,43557 53694,43549 53699,43541 53704,43533 53711,43527 53717,43521 53725,43515 53732,43511 53741,43507 53749,43504 53758,43501 53767,43500 53776,43500 55735,43500 55744,43500 55753,43501 55762,43504 55770,43507 55778,43511 55786,43515 55793,43521 55800,43527 55806,43533 55812,43541 55816,43549 55820,43557 55823,43566 55826,43574 55827,43583 55827,43592 55827,45908 55827,45917 55826,45926 55823,45935 55820,45943 55816,45951 55812,45959 55806,45967 55800,45973 55793,45979 55786,45985 55778,45989 55770,45993 55762,45996 55753,45999 55744,46000 55735,46000 53776,46000 53767,46000 53758,45999 53749,45996 53741,45993 53732,45989 53725,45985 53717,45979 53711,45973 53704,45967 53699,45959 53694,45951 53690,45943 53687,45935 53685,45926 53684,45917 53683,45908 Z"/>
   </g>
  </g>
  <g class="com.sun.star.drawing.PolyPolygonShape">
   <g id="id4">
    <rect class="BoundingBox" stroke="none" fill="none" x="53704" y="43520" width="2104" height="2461"/>
    <path fill="rgb(0,0,0)" stroke="none" d="M 53705,45908 L 53705,43592 53705,43585 53706,43579 53708,43572 53710,43565 53713,43559 53717,43553 53721,43547 53726,43542 53731,43537 53736,43533 53743,43530 53749,43526 53755,43524 53762,43522 53769,43521 53776,43521 55735,43521 55741,43521 55749,43522 55755,43524 55762,43526 55768,43530 55774,43533 55780,43537 55785,43542 55790,43547 55794,43553 55798,43559 55801,43565 55803,43572 55805,43579 55806,43585 55806,43592 55806,45908 55806,45915 55805,45922 55803,45928 55801,45935 55798,45941 55794,45947 55790,45953 55785,45958 55780,45963 55774,45967 55768,45971 55762,45974 55755,45976 55749,45978 55741,45979 55735,45979 53776,45979 53769,45979 53762,45978 53755,45976 53749,45974 53743,45971 53736,45967 53731,45963 53726,45958 53721,45953 53717,45947 53713,45941 53710,45935 53708,45928 53706,45922 53705,45915 53705,45908 Z"/>
    <path fill="none" stroke="rgb(0,0,0)" d="M 53705,45908 L 53705,43592 53705,43585 53706,43579 53708,43572 53710,43565 53713,43559 53717,43553 53721,43547 53726,43542 53731,43537 53736,43533 53743,43530 53749,43526 53755,43524 53762,43522 53769,43521 53776,43521 55735,43521 55741,43521 55749,43522 55755,43524 55762,43526 55768,43530 55774,43533 55780,43537 55785,43542 55790,43547 55794,43553 55798,43559 55801,43565 55803,43572 55805,43579 55806,43585 55806,43592 55806,45908 55806,45915 55805,45922 55803,45928 55801,45935 55798,45941 55794,45947 55790,45953 55785,45958 55780,45963 55774,45967 55768,45971 55762,45974 55755,45976 55749,45978 55741,45979 55735,45979 53776,45979 53769,45979 53762,45978 53755,45976 53749,45974 53743,45971 53736,45967 53731,45963 53726,45958 53721,45953 53717,45947 53713,45941 53710,45935 53708,45928 53706,45922 53705,45915 53705,45908 Z"/>
   </g>
  </g>
  <g class="com.sun.star.drawing.PolyPolygonShape">
   <g id="id5">
    <rect class="BoundingBox" stroke="none" fill="none" x="53725" y="43541" width="2062" height="2419"/>
    <path fill="rgb(255,129,0)" stroke="none" d="M 53726,45908 L 53726,43592 53726,43588 53727,43583 53728,43578 53730,43573 53732,43569 53735,43565 53738,43561 53741,43557 53744,43554 53748,43551 53753,43548 53757,43546 53762,43545 53766,43543 53771,43543 53776,43542 55735,43542 55739,43543 55744,43543 55749,43545 55754,43546 55758,43548 55762,43551 55766,43554 55770,43557 55773,43561 55776,43565 55779,43569 55781,43573 55782,43578 55784,43583 55784,43588 55785,43592 55785,45908 55784,45913 55784,45917 55782,45922 55781,45927 55779,45931 55776,45935 55773,45939 55770,45943 55766,45946 55762,45949 55758,45952 55754,45954 55749,45955 55744,45957 55739,45957 55735,45958 53776,45958 53771,45957 53766,45957 53762,45955 53757,45954 53753,45952 53748,45949 53744,45946 53741,45943 53738,45939 53735,45935 53732,45931 53730,45927 53728,45922 53727,45917 53726,45913 53726,45908 Z"/>
    <path fill="none" stroke="rgb(255,129,0)" d="M 53726,45908 L 53726,43592 53726,43588 53727,43583 53728,43578 53730,43573 53732,43569 53735,43565 53738,43561 53741,43557 53744,43554 53748,43551 53753,43548 53757,43546 53762,43545 53766,43543 53771,43543 53776,43542 55735,43542 55739,43543 55744,43543 55749,43545 55754,43546 55758,43548 55762,43551 55766,43554 55770,43557 55773,43561 55776,43565 55779,43569 55781,43573 55782,43578 55784,43583 55784,43588 55785,43592 55785,45908 55784,45913 55784,45917 55782,45922 55781,45927 55779,45931 55776,45935 55773,45939 55770,45943 55766,45946 55762,45949 55758,45952 55754,45954 55749,45955 55744,45957 55739,45957 55735,45958 53776,45958 53771,45957 53766,45957 53762,45955 53757,45954 53753,45952 53748,45949 53744,45946 53741,45943 53738,45939 53735,45935 53732,45931 53730,45927 53728,45922 53727,45917 53726,45913 53726,45908 Z"/>
   </g>
  </g>
  <g class="com.sun.star.drawing.PolyPolygonShape">
   <g id="id6">
    <rect class="BoundingBox" stroke="none" fill="none" x="53868" y="44313" width="433" height="1504"/>
    <path fill="rgb(0,0,0)" stroke="none" d="M 54156,45457 L 54156,44314 54012,44314 54012,45457 53869,45457 54083,45815 54299,45457 54156,45457 Z"/>
    <path fill="none" stroke="rgb(0,0,0)" d="M 54156,45457 L 54156,44314 54012,44314 54012,45457 53869,45457 54083,45815 54299,45457 54156,45457 Z"/>
   </g>
  </g>
  <g class="com.sun.star.drawing.PolyPolygonShape">
   <g id="id7">
    <rect class="BoundingBox" stroke="none" fill="none" x="54468" y="44313" width="433" height="1504"/>
    <path fill="rgb(0,0,0)" stroke="none" d="M 54756,45457 L 54756,44314 54613,44314 54613,45457 54469,45457 54684,45815 54899,45457 54756,45457 Z"/>
    <path fill="none" stroke="rgb(0,0,0)" d="M 54756,45457 L 54756,44314 54613,44314 54613,45457 54469,45457 54684,45815 54899,45457 54756,45457 Z"/>
   </g>
  </g>
  <g class="com.sun.star.drawing.PolyPolygonShape">
   <g id="id8">
    <rect class="BoundingBox" stroke="none" fill="none" x="55212" y="43684" width="431" height="2132"/>
    <path fill="rgb(0,0,0)" stroke="none" d="M 55355,44042 L 55355,45815 55499,45815 55499,44042 55642,44042 55426,43685 55212,44042 55355,44042 Z"/>
   </g>
  </g>
  <g class="com.sun.star.drawing.PolyPolygonShape">
   <g id="id9">
    <rect class="BoundingBox" stroke="none" fill="none" x="55211" y="43684" width="433" height="2133"/>
    <path fill="none" stroke="rgb(0,0,0)" d="M 55355,44042 L 55355,45815 55499,45815 55499,44042 55642,44042 55426,43685 55212,44042 55355,44042 Z"/>
   </g>
  </g>
  <g class="com.sun.star.drawing.PolyPolygonShape">
   <g id="id10">
    <rect class="BoundingBox" stroke="none" fill="none" x="55211" y="43684" width="433" height="2133"/>
    <path fill="rgb(0,0,0)" stroke="none" d="M 55355,44042 L 55355,45815 55499,45815 55499,44042 55642,44042 55426,43685 55212,44042 55355,44042 Z"/>
    <path fill="none" stroke="rgb(0,0,0)" d="M 55355,44042 L 55355,45815 55499,45815 55499,44042 55642,44042 55426,43685 55212,44042 55355,44042 Z"/>
   </g>
  </g>
 </g>
</svg>