<?xml version="1.0" encoding="UTF-8"?>
<!DOCTYPE svg PUBLIC "-//W3C//DTD SVG 1.1//EN" "http://www.w3.org/Graphics/SVG/1.1/DTD/svg11.dtd">
<svg version="1.2" width="24.96mm" height="25.03mm" viewBox="56408 43499 2496 2503" preserveAspectRatio="xMidYMid" fill-rule="evenodd" stroke-width="28.222" stroke-linejoin="round" xmlns="http://www.w3.org/2000/svg" xmlns:ooo="http://xml.openoffice.org/svg/export" xmlns:xlink="http://www.w3.org/1999/xlink" xmlns:presentation="http://sun.com/xmlns/staroffice/presentation" xmlns:smil="http://www.w3.org/2001/SMIL20/" xmlns:anim="urn:oasis:names:tc:opendocument:xmlns:animation:1.0" xml:space="preserve">
 <defs class="EmbeddedBulletChars">
  <g id="bullet-char-template-57356" transform="scale(0.00048828125,-0.00048828125)">
   <path d="M 580,1141 L 1163,571 580,0 -4,571 580,1141 Z"/>
  </g>
  <g id="bullet-char-template-57354" transform="scale(0.00048828125,-0.00048828125)">
   <path d="M 8,1128 L 1137,1128 1137,0 8,0 8,1128 Z"/>
  </g>
  <g id="bullet-char-template-10146" transform="scale(0.00048828125,-0.00048828125)">
   <path d="M 174,0 L 602,739 174,1481 1456,739 174,0 Z M 1358,739 L 309,1346 659,739 1358,739 Z"/>
  </g>
  <g id="bullet-char-template-10132" transform="scale(0.00048828125,-0.00048828125)">
   <path d="M 2015,739 L 1276,0 717,0 1260,543 174,543 174,936 1260,936 717,1481 1274,1481 2015,739 Z"/>
  </g>
  <g id="bullet-char-template-10007" transform="scale(0.00048828125,-0.00048828125)">
   <path d="M 0,-2 C -7,14 -16,27 -25,37 L 356,567 C 262,823 215,952 215,954 215,979 228,992 255,992 264,992 276,990 289,987 310,991 331,999 354,1012 L 381,999 492,748 772,1049 836,1024 860,1049 C 881,1039 901,1025 922,1006 886,937 835,863 770,784 769,783 710,716 594,584 L 774,223 C 774,196 753,168 711,139 L 727,119 C 717,90 699,76 672,76 641,76 570,178 457,381 L 164,-76 C 142,-110 111,-127 72,-127 30,-127 9,-110 8,-76 1,-67 -2,-52 -2,-32 -2,-23 -1,-13 0,-2 Z"/>
  </g>
  <g id="bullet-char-template-10004" transform="scale(0.00048828125,-0.00048828125)">
   <path d="M 285,-33 C 182,-33 111,30 74,156 52,228 41,333 41,471 41,549 55,616 82,672 116,743 169,778 240,778 293,778 328,747 346,684 L 369,508 C 377,444 397,411 428,410 L 1163,1116 C 1174,1127 1196,1133 1229,1133 1271,1133 1292,1118 1292,1087 L 1292,965 C 1292,929 1282,901 1262,881 L 442,47 C 390,-6 338,-33 285,-33 Z"/>
  </g>
  <g id="bullet-char-template-9679" transform="scale(0.00048828125,-0.00048828125)">
   <path d="M 813,0 C 632,0 489,54 383,161 276,268 223,411 223,592 223,773 276,916 383,1023 489,1130 632,1184 813,1184 992,1184 1136,1130 1245,1023 1353,916 1407,772 1407,592 1407,412 1353,268 1245,161 1136,54 992,0 813,0 Z"/>
  </g>
  <g id="bullet-char-template-8226" transform="scale(0.00048828125,-0.00048828125)">
   <path d="M 346,457 C 273,457 209,483 155,535 101,586 74,649 74,723 74,796 101,859 155,911 209,963 273,989 346,989 419,989 480,963 531,910 582,859 608,796 608,723 608,648 583,586 532,535 482,483 420,457 346,457 Z"/>
  </g>
  <g id="bullet-char-template-8211" transform="scale(0.00048828125,-0.00048828125)">
   <path d="M -4,459 L 1135,459 1135,606 -4,606 -4,459 Z"/>
  </g>
  <g id="bullet-char-template-61548" transform="scale(0.00048828125,-0.00048828125)">
   <path d="M 173,740 C 173,903 231,1043 346,1159 462,1274 601,1332 765,1332 928,1332 1067,1274 1183,1159 1299,1043 1357,903 1357,740 1357,577 1299,437 1183,322 1067,206 928,148 765,148 601,148 462,206 346,322 231,437 173,577 173,740 Z"/>
  </g>
 </defs>
 <g class="Page">
  <g class="com.sun.star.drawing.PolyPolygonShape">
   <g id="id3">
    <rect class="BoundingBox" stroke="none" fill="none" x="56408" y="43499" width="2496" height="2503"/>
    <path fill="rgb(0,0,255)" stroke="none" d="M 56409,45768 L 56409,43732 56410,43709 56413,43686 56419,43664 56426,43643 56436,43622 56448,43603 56461,43584 56476,43568 56493,43552 56512,43539 56531,43527 56552,43517 56573,43510 56595,43504 56617,43501 56640,43500 58671,43500 58693,43501 58716,43504 58738,43510 58759,43517 58780,43527 58799,43539 58817,43552 58834,43568 58850,43584 58863,43603 58875,43622 58884,43643 58892,43664 58898,43686 58901,43709 58902,43732 58902,45768 58901,45791 58898,45814 58892,45836 58884,45857 58875,45878 58863,45897 58850,45916 58834,45932 58817,45948 58799,45961 58780,45973 58759,45983 58738,45991 58716,45996 58693,45999 58671,46000 56640,46000 56617,45999 56595,45996 56573,45991 56552,45983 56531,45973 56512,45961 56493,45948 56476,45932 56461,45916 56448,45897 56436,45878 56426,45857 56419,45836 56413,45814 56410,45791 56409,45768 Z"/>
    <path fill="none" stroke="rgb(0,0,255)" d="M 56409,45768 L 56409,43732 56410,43709 56413,43686 56419,43664 56426,43643 56436,43622 56448,43603 56461,43584 56476,43568 56493,43552 56512,43539 56531,43527 56552,43517 56573,43510 56595,43504 56617,43501 56640,43500 58671,43500 58693,43501 58716,43504 58738,43510 58759,43517 58780,43527 58799,43539 58817,43552 58834,43568 58850,43584 58863,43603 58875,43622 58884,43643 58892,43664 58898,43686 58901,43709 58902,43732 58902,45768 58901,45791 58898,45814 58892,45836 58884,45857 58875,45878 58863,45897 58850,45916 58834,45932 58817,45948 58799,45961 58780,45973 58759,45983 58738,45991 58716,45996 58693,45999 58671,46000 56640,46000 56617,45999 56595,45996 56573,45991 56552,45983 56531,45973 56512,45961 56493,45948 56476,45932 56461,45916 56448,45897 56436,45878 56426,45857 56419,45836 56413,45814 56410,45791 56409,45768 Z"/>
   </g>
  </g>
  <g class="com.sun.star.drawing.PolyPolygonShape">
   <g id="id4">
    <rect class="BoundingBox" stroke="none" fill="none" x="56461" y="43552" width="2390" height="2397"/>
    <path fill="rgb(255,255,255)" stroke="none" d="M 56462,45768 L 56462,43732 56463,43714 56465,43697 56470,43680 56476,43663 56483,43648 56492,43633 56502,43619 56514,43605 56527,43594 56541,43583 56556,43574 56572,43567 56588,43561 56605,43557 56623,43554 56640,43553 58671,43553 58688,43554 58705,43557 58722,43561 58739,43567 58755,43574 58769,43583 58783,43594 58797,43605 58808,43619 58819,43633 58828,43648 58835,43663 58841,43680 58845,43697 58848,43714 58849,43732 58849,45768 58848,45786 58845,45803 58841,45820 58835,45837 58828,45853 58819,45867 58808,45882 58797,45895 58783,45906 58769,45917 58755,45926 58739,45933 58722,45939 58705,45943 58688,45946 58671,45947 56640,45947 56623,45946 56605,45943 56588,45939 56572,45933 56556,45926 56541,45917 56527,45906 56514,45895 56502,45882 56492,45867 56483,45853 56476,45837 56470,45820 56465,45803 56463,45786 56462,45768 Z"/>
    <path fill="none" stroke="rgb(255,255,255)" d="M 56462,45768 L 56462,43732 56463,43714 56465,43697 56470,43680 56476,43663 56483,43648 56492,43633 56502,43619 56514,43605 56527,43594 56541,43583 56556,43574 56572,43567 56588,43561 56605,43557 56623,43554 56640,43553 58671,43553 58688,43554 58705,43557 58722,43561 58739,43567 58755,43574 58769,43583 58783,43594 58797,43605 58808,43619 58819,43633 58828,43648 58835,43663 58841,43680 58845,43697 58848,43714 58849,43732 58849,45768 58848,45786 58845,45803 58841,45820 58835,45837 58828,45853 58819,45867 58808,45882 58797,45895 58783,45906 58769,45917 58755,45926 58739,45933 58722,45939 58705,45943 58688,45946 58671,45947 56640,45947 56623,45946 56605,45943 56588,45939 56572,45933 56556,45926 56541,45917 56527,45906 56514,45895 56502,45882 56492,45867 56483,45853 56476,45837 56470,45820 56465,45803 56463,45786 56462,45768 Z"/>
   </g>
  </g>
  <g class="com.sun.star.drawing.PolyPolygonShape">
   <g id="id5">
    <rect class="BoundingBox" stroke="none" fill="none" x="56515" y="43606" width="2282" height="2289"/>
    <path fill="rgb(0,0,255)" stroke="none" d="M 56516,45768 L 56516,43732 56516,43719 56518,43707 56521,43695 56525,43684 56530,43673 56537,43662 56544,43652 56552,43643 56561,43635 56571,43628 56581,43621 56592,43616 56604,43612 56616,43609 56628,43607 56640,43607 58671,43607 58683,43607 58695,43609 58707,43612 58718,43616 58729,43621 58740,43628 58750,43635 58759,43643 58767,43652 58774,43662 58781,43673 58786,43684 58790,43695 58793,43707 58795,43719 58795,43732 58795,45768 58795,45781 58793,45793 58790,45805 58786,45816 58781,45827 58774,45838 58767,45848 58759,45857 58750,45865 58740,45872 58729,45879 58718,45884 58707,45888 58695,45891 58683,45893 58671,45893 56640,45893 56628,45893 56616,45891 56604,45888 56592,45884 56581,45879 56571,45872 56561,45865 56552,45857 56544,45848 56537,45838 56530,45827 56525,45816 56521,45805 56518,45793 56516,45781 56516,45768 Z"/>
    <path fill="none" stroke="rgb(0,0,255)" d="M 56516,45768 L 56516,43732 56516,43719 56518,43707 56521,43695 56525,43684 56530,43673 56537,43662 56544,43652 56552,43643 56561,43635 56571,43628 56581,43621 56592,43616 56604,43612 56616,43609 56628,43607 56640,43607 58671,43607 58683,43607 58695,43609 58707,43612 58718,43616 58729,43621 58740,43628 58750,43635 58759,43643 58767,43652 58774,43662 58781,43673 58786,43684 58790,43695 58793,43707 58795,43719 58795,43732 58795,45768 58795,45781 58793,45793 58790,45805 58786,45816 58781,45827 58774,45838 58767,45848 58759,45857 58750,45865 58740,45872 58729,45879 58718,45884 58707,45888 58695,45891 58683,45893 58671,45893 56640,45893 56628,45893 56616,45891 56604,45888 56592,45884 56581,45879 56571,45872 56561,45865 56552,45857 56544,45848 56537,45838 56530,45827 56525,45816 56521,45805 56518,45793 56516,45781 56516,45768 Z"/>
   </g>
  </g>
  <g class="com.sun.star.drawing.PolyPolygonShape">
   <g id="id6">
    <rect class="BoundingBox" stroke="none" fill="none" x="56675" y="43869" width="1962" height="1705"/>
    <path fill="rgb(255,255,255)" stroke="none" d="M 57655,43870 L 58635,45572 56676,45572 57655,43870 Z"/>
    <path fill="none" stroke="rgb(255,255,255)" d="M 57655,43870 L 58635,45572 56676,45572 57655,43870 Z"/>
   </g>
  </g>
  <g class="com.sun.star.drawing.PolyPolygonShape">
   <g id="id7">
    <rect class="BoundingBox" stroke="none" fill="none" x="56943" y="45070" width="1425" height="379"/>
    <path fill="rgb(0,0,0)" stroke="none" d="M 57362,45213 L 57376,45197 57390,45181 57405,45167 57421,45153 57438,45140 57456,45129 57474,45118 57492,45108 57511,45100 57531,45092 57552,45086 57573,45080 57593,45076 57614,45073 57635,45072 57656,45071 57677,45072 57698,45073 57719,45076 57739,45080 57760,45086 57780,45092 57799,45100 57819,45108 57837,45118 57855,45129 57873,45140 57889,45153 57906,45167 57921,45181 57935,45197 57949,45213 57959,45225 57970,45237 57982,45248 57994,45258 58007,45268 58020,45277 58034,45285 58048,45292 58062,45299 58078,45305 58093,45310 58108,45314 58124,45317 58140,45319 58156,45320 58172,45321 58366,45321 58366,45447 56944,45447 56944,45321 57139,45321 57155,45320 57171,45319 57187,45317 57202,45314 57218,45310 57233,45305 57248,45299 57263,45292 57277,45285 57291,45277 57304,45268 57317,45258 57329,45248 57341,45237 57352,45225 57362,45213 Z"/>
    <path fill="none" stroke="rgb(0,0,0)" d="M 57362,45213 L 57376,45197 57390,45181 57405,45167 57421,45153 57438,45140 57456,45129 57474,45118 57492,45108 57511,45100 57531,45092 57552,45086 57573,45080 57593,45076 57614,45073 57635,45072 57656,45071 57677,45072 57698,45073 57719,45076 57739,45080 57760,45086 57780,45092 57799,45100 57819,45108 57837,45118 57855,45129 57873,45140 57889,45153 57906,45167 57921,45181 57935,45197 57949,45213 57959,45225 57970,45237 57982,45248 57994,45258 58007,45268 58020,45277 58034,45285 58048,45292 58062,45299 58078,45305 58093,45310 58108,45314 58124,45317 58140,45319 58156,45320 58172,45321 58366,45321 58366,45447 56944,45447 56944,45321 57139,45321 57155,45320 57171,45319 57187,45317 57202,45314 57218,45310 57233,45305 57248,45299 57263,45292 57277,45285 57291,45277 57304,45268 57317,45258 57329,45248 57341,45237 57352,45225 57362,45213 Z"/>
   </g>
  </g>
  <g class="com.sun.star.drawing.PolyPolygonShape">
   <g id="id8">
    <rect class="BoundingBox" stroke="none" fill="none" x="56943" y="45070" width="1425" height="379"/>
    <path fill="rgb(0,0,0)" stroke="none" d="M 57362,45213 L 57376,45197 57390,45181 57405,45167 57421,45153 57438,45140 57456,45129 57474,45118 57492,45108 57511,45100 57531,45092 57552,45086 57573,45080 57593,45076 57614,45073 57635,45072 57656,45071 57677,45072 57698,45073 57719,45076 57739,45080 57760,45086 57780,45092 57799,45100 57819,45108 57837,45118 57855,45129 57873,45140 57889,45153 57906,45167 57921,45181 57935,45197 57949,45213 57959,45225 57970,45237 57982,45248 57994,45258 58007,45268 58020,45277 58034,45285 58048,45292 58062,45299 58078,45305 58093,45310 58108,45314 58124,45317 58140,45319 58156,45320 58172,45321 58366,45321 58366,45447 56944,45447 56944,45321 57139,45321 57155,45320 57171,45319 57187,45317 57202,45314 57218,45310 57233,45305 57248,45299 57263,45292 57277,45285 57291,45277 57304,45268 57317,45258 57329,45248 57341,45237 57352,45225 57362,45213 Z"/>
    <path fill="none" stroke="rgb(0,0,0)" d="M 57362,45213 L 57376,45197 57390,45181 57405,45167 57421,45153 57438,45140 57456,45129 57474,45118 57492,45108 57511,45100 57531,45092 57552,45086 57573,45080 57593,45076 57614,45073 57635,45072 57656,45071 57677,45072 57698,45073 57719,45076 57739,45080 57760,45086 57780,45092 57799,45100 57819,45108 57837,45118 57855,45129 57873,45140 57889,45153 57906,45167 57921,45181 57935,45197 57949,45213 57959,45225 57970,45237 57982,45248 57994,45258 58007,45268 58020,45277 58034,45285 58048,45292 58062,45299 58078,45305 58093,45310 58108,45314 58124,45317 58140,45319 58156,45320 58172,45321 58366,45321 58366,45447 56944,45447 56944,45321 57139,45321 57155,45320 57171,45319 57187,45317 57202,45314 57218,45310 57233,45305 57248,45299 57263,45292 57277,45285 57291,45277 57304,45268 57317,45258 57329,45248 57341,45237 57352,45225 57362,45213 Z"/>
   </g>
  </g>
 </g>
</svg>