<?xml version="1.0" encoding="UTF-8"?>
<!DOCTYPE svg PUBLIC "-//W3C//DTD SVG 1.1//EN" "http://www.w3.org/Graphics/SVG/1.1/DTD/svg11.dtd">
<svg version="1.2" width="25.03mm" height="25.04mm" viewBox="38349 36498 2503 2504" preserveAspectRatio="xMidYMid" fill-rule="evenodd" stroke-width="28.222" stroke-linejoin="round" xmlns="http://www.w3.org/2000/svg" xmlns:ooo="http://xml.openoffice.org/svg/export" xmlns:xlink="http://www.w3.org/1999/xlink" xmlns:presentation="http://sun.com/xmlns/staroffice/presentation" xmlns:smil="http://www.w3.org/2001/SMIL20/" xmlns:anim="urn:oasis:names:tc:opendocument:xmlns:animation:1.0" xml:space="preserve">
 <defs class="EmbeddedBulletChars">
  <g id="bullet-char-template-57356" transform="scale(0.00048828125,-0.00048828125)">
   <path d="M 580,1141 L 1163,571 580,0 -4,571 580,1141 Z"/>
  </g>
  <g id="bullet-char-template-57354" transform="scale(0.00048828125,-0.00048828125)">
   <path d="M 8,1128 L 1137,1128 1137,0 8,0 8,1128 Z"/>
  </g>
  <g id="bullet-char-template-10146" transform="scale(0.00048828125,-0.00048828125)">
   <path d="M 174,0 L 602,739 174,1481 1456,739 174,0 Z M 1358,739 L 309,1346 659,739 1358,739 Z"/>
  </g>
  <g id="bullet-char-template-10132" transform="scale(0.00048828125,-0.00048828125)">
   <path d="M 2015,739 L 1276,0 717,0 1260,543 174,543 174,936 1260,936 717,1481 1274,1481 2015,739 Z"/>
  </g>
  <g id="bullet-char-template-10007" transform="scale(0.00048828125,-0.00048828125)">
   <path d="M 0,-2 C -7,14 -16,27 -25,37 L 356,567 C 262,823 215,952 215,954 215,979 228,992 255,992 264,992 276,990 289,987 310,991 331,999 354,1012 L 381,999 492,748 772,1049 836,1024 860,1049 C 881,1039 901,1025 922,1006 886,937 835,863 770,784 769,783 710,716 594,584 L 774,223 C 774,196 753,168 711,139 L 727,119 C 717,90 699,76 672,76 641,76 570,178 457,381 L 164,-76 C 142,-110 111,-127 72,-127 30,-127 9,-110 8,-76 1,-67 -2,-52 -2,-32 -2,-23 -1,-13 0,-2 Z"/>
  </g>
  <g id="bullet-char-template-10004" transform="scale(0.00048828125,-0.00048828125)">
   <path d="M 285,-33 C 182,-33 111,30 74,156 52,228 41,333 41,471 41,549 55,616 82,672 116,743 169,778 240,778 293,778 328,747 346,684 L 369,508 C 377,444 397,411 428,410 L 1163,1116 C 1174,1127 1196,1133 1229,1133 1271,1133 1292,1118 1292,1087 L 1292,965 C 1292,929 1282,901 1262,881 L 442,47 C 390,-6 338,-33 285,-33 Z"/>
  </g>
  <g id="bullet-char-template-9679" transform="scale(0.00048828125,-0.00048828125)">
   <path d="M 813,0 C 632,0 489,54 383,161 276,268 223,411 223,592 223,773 276,916 383,1023 489,1130 632,1184 813,1184 992,1184 1136,1130 1245,1023 1353,916 1407,772 1407,592 1407,412 1353,268 1245,161 1136,54 992,0 813,0 Z"/>
  </g>
  <g id="bullet-char-template-8226" transform="scale(0.00048828125,-0.00048828125)">
   <path d="M 346,457 C 273,457 209,483 155,535 101,586 74,649 74,723 74,796 101,859 155,911 209,963 273,989 346,989 419,989 480,963 531,910 582,859 608,796 608,723 608,648 583,586 532,535 482,483 420,457 346,457 Z"/>
  </g>
  <g id="bullet-char-template-8211" transform="scale(0.00048828125,-0.00048828125)">
   <path d="M -4,459 L 1135,459 1135,606 -4,606 -4,459 Z"/>
  </g>
  <g id="bullet-char-template-61548" transform="scale(0.00048828125,-0.00048828125)">
   <path d="M 173,740 C 173,903 231,1043 346,1159 462,1274 601,1332 765,1332 928,1332 1067,1274 1183,1159 1299,1043 1357,903 1357,740 1357,577 1299,437 1183,322 1067,206 928,148 765,148 601,148 462,206 346,322 231,437 173,577 173,740 Z"/>
  </g>
 </defs>
 <g class="Page">
  <g class="com.sun.star.drawing.PolyPolygonShape">
   <g id="id3">
    <rect class="BoundingBox" stroke="none" fill="none" x="38349" y="36498" width="2503" height="2504"/>
    <path fill="rgb(0,0,255)" stroke="none" d="M 38350,38820 L 38350,36680 38350,36662 38353,36645 38357,36628 38363,36611 38371,36595 38380,36580 38390,36565 38402,36552 38415,36540 38430,36530 38445,36521 38461,36513 38478,36507 38495,36503 38512,36500 38530,36499 40670,36499 40687,36500 40705,36503 40722,36507 40739,36513 40755,36521 40770,36530 40784,36540 40797,36552 40809,36565 40820,36580 40829,36595 40836,36611 40842,36628 40847,36645 40849,36662 40850,36680 40850,38820 40849,38837 40847,38855 40842,38872 40836,38889 40829,38905 40820,38920 40809,38934 40797,38948 40784,38959 40770,38970 40755,38979 40739,38987 40722,38993 40705,38997 40687,38999 40670,39000 38530,39000 38512,38999 38495,38997 38478,38993 38461,38987 38445,38979 38430,38970 38415,38959 38402,38948 38390,38934 38380,38920 38371,38905 38363,38889 38357,38872 38353,38855 38350,38837 38350,38820 Z"/>
    <path fill="none" stroke="rgb(0,0,255)" d="M 38350,38820 L 38350,36680 38350,36662 38353,36645 38357,36628 38363,36611 38371,36595 38380,36580 38390,36565 38402,36552 38415,36540 38430,36530 38445,36521 38461,36513 38478,36507 38495,36503 38512,36500 38530,36499 40670,36499 40687,36500 40705,36503 40722,36507 40739,36513 40755,36521 40770,36530 40784,36540 40797,36552 40809,36565 40820,36580 40829,36595 40836,36611 40842,36628 40847,36645 40849,36662 40850,36680 40850,38820 40849,38837 40847,38855 40842,38872 40836,38889 40829,38905 40820,38920 40809,38934 40797,38948 40784,38959 40770,38970 40755,38979 40739,38987 40722,38993 40705,38997 40687,38999 40670,39000 38530,39000 38512,38999 38495,38997 38478,38993 38461,38987 38445,38979 38430,38970 38415,38959 38402,38948 38390,38934 38380,38920 38371,38905 38363,38889 38357,38872 38353,38855 38350,38837 38350,38820 Z"/>
   </g>
  </g>
  <g class="com.sun.star.drawing.PolyPolygonShape">
   <g id="id4">
    <rect class="BoundingBox" stroke="none" fill="none" x="38390" y="36540" width="2421" height="2421"/>
    <path fill="rgb(255,255,255)" stroke="none" d="M 38391,38820 L 38391,36680 38392,36666 38394,36653 38397,36640 38402,36627 38408,36615 38415,36603 38423,36592 38432,36582 38442,36573 38453,36565 38465,36558 38477,36552 38490,36547 38503,36544 38516,36542 38530,36541 40670,36541 40683,36542 40697,36544 40710,36547 40723,36552 40735,36558 40747,36565 40758,36573 40768,36582 40777,36592 40785,36603 40792,36615 40798,36627 40803,36640 40806,36653 40808,36666 40809,36680 40809,38820 40808,38834 40806,38847 40803,38860 40798,38873 40792,38885 40785,38897 40777,38908 40768,38918 40758,38927 40747,38935 40735,38942 40723,38948 40710,38953 40697,38956 40683,38958 40670,38959 38530,38959 38516,38958 38503,38956 38490,38953 38477,38948 38465,38942 38453,38935 38442,38927 38432,38918 38423,38908 38415,38897 38408,38885 38402,38873 38397,38860 38394,38847 38392,38834 38391,38820 Z"/>
    <path fill="none" stroke="rgb(255,255,255)" d="M 38391,38820 L 38391,36680 38392,36666 38394,36653 38397,36640 38402,36627 38408,36615 38415,36603 38423,36592 38432,36582 38442,36573 38453,36565 38465,36558 38477,36552 38490,36547 38503,36544 38516,36542 38530,36541 40670,36541 40683,36542 40697,36544 40710,36547 40723,36552 40735,36558 40747,36565 40758,36573 40768,36582 40777,36592 40785,36603 40792,36615 40798,36627 40803,36640 40806,36653 40808,36666 40809,36680 40809,38820 40808,38834 40806,38847 40803,38860 40798,38873 40792,38885 40785,38897 40777,38908 40768,38918 40758,38927 40747,38935 40735,38942 40723,38948 40710,38953 40697,38956 40683,38958 40670,38959 38530,38959 38516,38958 38503,38956 38490,38953 38477,38948 38465,38942 38453,38935 38442,38927 38432,38918 38423,38908 38415,38897 38408,38885 38402,38873 38397,38860 38394,38847 38392,38834 38391,38820 Z"/>
   </g>
  </g>
  <g class="com.sun.star.drawing.PolyPolygonShape">
   <g id="id5">
    <rect class="BoundingBox" stroke="none" fill="none" x="38432" y="36582" width="2337" height="2337"/>
    <path fill="rgb(0,0,255)" stroke="none" d="M 38433,38820 L 38433,36680 38433,36670 38435,36661 38437,36652 38440,36643 38444,36634 38449,36626 38455,36618 38461,36611 38468,36605 38476,36599 38484,36594 38493,36590 38503,36587 38512,36585 38522,36583 38531,36583 40670,36583 40679,36583 40689,36585 40698,36587 40707,36590 40716,36594 40724,36599 40731,36605 40738,36611 40745,36618 40751,36626 40755,36634 40760,36643 40763,36652 40765,36661 40766,36670 40767,36680 40767,38820 40766,38829 40765,38839 40763,38848 40760,38857 40755,38866 40751,38874 40745,38881 40738,38889 40731,38895 40724,38901 40716,38906 40707,38910 40698,38913 40689,38915 40679,38917 40670,38917 38531,38917 38522,38917 38512,38915 38503,38913 38493,38910 38484,38906 38476,38901 38468,38895 38461,38889 38455,38881 38449,38874 38444,38866 38440,38857 38437,38848 38435,38839 38433,38829 38433,38820 Z"/>
    <path fill="none" stroke="rgb(0,0,255)" d="M 38433,38820 L 38433,36680 38433,36670 38435,36661 38437,36652 38440,36643 38444,36634 38449,36626 38455,36618 38461,36611 38468,36605 38476,36599 38484,36594 38493,36590 38503,36587 38512,36585 38522,36583 38531,36583 40670,36583 40679,36583 40689,36585 40698,36587 40707,36590 40716,36594 40724,36599 40731,36605 40738,36611 40745,36618 40751,36626 40755,36634 40760,36643 40763,36652 40765,36661 40766,36670 40767,36680 40767,38820 40766,38829 40765,38839 40763,38848 40760,38857 40755,38866 40751,38874 40745,38881 40738,38889 40731,38895 40724,38901 40716,38906 40707,38910 40698,38913 40689,38915 40679,38917 40670,38917 38531,38917 38522,38917 38512,38915 38503,38913 38493,38910 38484,38906 38476,38901 38468,38895 38461,38889 38455,38881 38449,38874 38444,38866 38440,38857 38437,38848 38435,38839 38433,38829 38433,38820 Z"/>
   </g>
  </g>
  <g class="com.sun.star.drawing.PolyPolygonShape">
   <g id="id6">
    <rect class="BoundingBox" stroke="none" fill="none" x="38759" y="37141" width="1683" height="1278"/>
    <path fill="rgb(255,255,255)" stroke="none" d="M 40340,37813 L 40340,37805 40339,37797 40337,37789 40334,37781 40330,37774 40326,37767 40321,37761 40316,37754 40310,37749 40303,37744 40296,37740 40289,37736 40281,37734 40273,37732 40265,37730 40257,37730 40249,37730 40241,37732 40233,37734 40225,37736 40218,37740 40211,37744 40204,37749 40198,37754 40193,37761 40188,37767 40184,37774 40180,37781 40177,37789 40175,37797 40174,37805 40174,37813 40174,37821 40175,37830 40177,37838 40180,37845 40184,37853 40188,37860 40193,37866 40198,37872 40204,37878 40211,37883 40218,37887 40225,37890 40233,37893 40241,37895 40249,37896 40257,37897 40265,37896 40273,37895 40281,37893 40289,37890 40296,37887 40303,37883 40310,37878 40316,37872 40321,37866 40326,37860 40330,37853 40334,37845 40337,37838 40339,37830 40340,37821 40340,37813 Z M 40029,38086 L 39171,38086 39171,38061 40029,38061 40029,38086 Z M 40043,37867 L 39169,37867 39169,37838 40043,37838 40043,37867 Z M 39026,37811 L 39026,37803 39024,37794 39022,37787 39020,37779 39016,37771 39012,37764 39007,37758 39002,37752 38996,37746 38989,37741 38982,37737 38975,37734 38967,37731 38959,37729 38951,37728 38943,37727 38935,37728 38927,37729 38919,37731 38911,37734 38903,37737 38896,37741 38890,37746 38884,37752 38878,37758 38874,37764 38869,37771 38866,37779 38863,37787 38861,37794 38860,37803 38860,37811 38860,37819 38861,37827 38863,37835 38866,37843 38869,37850 38874,37857 38878,37863 38884,37869 38890,37875 38896,37880 38903,37884 38911,37888 38919,37890 38927,37892 38935,37893 38943,37894 38951,37893 38959,37892 38967,37890 38975,37888 38982,37884 38989,37880 38996,37875 39002,37869 39007,37863 39012,37857 39016,37850 39020,37843 39022,37835 39024,37827 39026,37819 39026,37811 Z M 39026,38383 L 40174,38383 40174,38174 39026,38174 39026,38383 Z M 40203,37973 L 38994,37973 38994,37951 40203,37951 40203,37973 Z M 40306,37649 L 40102,37206 39098,37206 38886,37649 38975,37640 39063,37632 39152,37626 39241,37621 39329,37617 39418,37614 39508,37612 39597,37611 39685,37612 39774,37614 39863,37617 39952,37621 40041,37626 40129,37632 40218,37640 40306,37649 Z M 39058,37142 L 38872,37542 38844,37606 38840,37616 38834,37626 38828,37634 38821,37643 38808,37657 38795,37671 38782,37684 38768,37697 38765,37701 38764,37706 38762,37763 38760,37819 38760,37876 38761,37932 38761,37949 38762,37965 38764,37981 38766,37997 38772,38020 38778,38043 38784,38065 38791,38087 38799,38109 38807,38131 38816,38153 38825,38174 38861,38174 38861,38383 38766,38383 38766,38417 40434,38417 40434,38383 40339,38383 40339,38174 40375,38174 40384,38153 40393,38131 40401,38109 40409,38087 40416,38065 40422,38043 40428,38020 40434,37997 40436,37981 40438,37965 40439,37949 40439,37932 40440,37876 40439,37819 40438,37763 40436,37706 40435,37701 40432,37697 40418,37684 40405,37671 40392,37657 40379,37643 40372,37634 40366,37626 40360,37616 40355,37606 40328,37542 40142,37142 39058,37142 Z"/>
    <path fill="none" stroke="rgb(255,255,255)" d="M 40340,37813 L 40340,37805 40339,37797 40337,37789 40334,37781 40330,37774 40326,37767 40321,37761 40316,37754 40310,37749 40303,37744 40296,37740 40289,37736 40281,37734 40273,37732 40265,37730 40257,37730 40249,37730 40241,37732 40233,37734 40225,37736 40218,37740 40211,37744 40204,37749 40198,37754 40193,37761 40188,37767 40184,37774 40180,37781 40177,37789 40175,37797 40174,37805 40174,37813 40174,37821 40175,37830 40177,37838 40180,37845 40184,37853 40188,37860 40193,37866 40198,37872 40204,37878 40211,37883 40218,37887 40225,37890 40233,37893 40241,37895 40249,37896 40257,37897 40265,37896 40273,37895 40281,37893 40289,37890 40296,37887 40303,37883 40310,37878 40316,37872 40321,37866 40326,37860 40330,37853 40334,37845 40337,37838 40339,37830 40340,37821 40340,37813 Z"/>
    <path fill="none" stroke="rgb(255,255,255)" d="M 40029,38086 L 39171,38086 39171,38061 40029,38061 40029,38086 Z"/>
    <path fill="none" stroke="rgb(255,255,255)" d="M 40043,37867 L 39169,37867 39169,37838 40043,37838 40043,37867 Z"/>
    <path fill="none" stroke="rgb(255,255,255)" d="M 39026,37811 L 39026,37803 39024,37794 39022,37787 39020,37779 39016,37771 39012,37764 39007,37758 39002,37752 38996,37746 38989,37741 38982,37737 38975,37734 38967,37731 38959,37729 38951,37728 38943,37727 38935,37728 38927,37729 38919,37731 38911,37734 38903,37737 38896,37741 38890,37746 38884,37752 38878,37758 38874,37764 38869,37771 38866,37779 38863,37787 38861,37794 38860,37803 38860,37811 38860,37819 38861,37827 38863,37835 38866,37843 38869,37850 38874,37857 38878,37863 38884,37869 38890,37875 38896,37880 38903,37884 38911,37888 38919,37890 38927,37892 38935,37893 38943,37894 38951,37893 38959,37892 38967,37890 38975,37888 38982,37884 38989,37880 38996,37875 39002,37869 39007,37863 39012,37857 39016,37850 39020,37843 39022,37835 39024,37827 39026,37819 39026,37811 Z"/>
    <path fill="none" stroke="rgb(255,255,255)" d="M 39026,38383 L 40174,38383 40174,38174 39026,38174 39026,38383 Z"/>
    <path fill="none" stroke="rgb(255,255,255)" d="M 40203,37973 L 38994,37973 38994,37951 40203,37951 40203,37973 Z"/>
    <path fill="none" stroke="rgb(255,255,255)" d="M 40306,37649 L 40102,37206 39098,37206 38886,37649 38975,37640 39063,37632 39152,37626 39241,37621 39329,37617 39418,37614 39508,37612 39597,37611 39685,37612 39774,37614 39863,37617 39952,37621 40041,37626 40129,37632 40218,37640 40306,37649 Z"/>
    <path fill="none" stroke="rgb(255,255,255)" d="M 39058,37142 L 38872,37542 38844,37606 38840,37616 38834,37626 38828,37634 38821,37643 38808,37657 38795,37671 38782,37684 38768,37697 38765,37701 38764,37706 38762,37763 38760,37819 38760,37876 38761,37932 38761,37949 38762,37965 38764,37981 38766,37997 38772,38020 38778,38043 38784,38065 38791,38087 38799,38109 38807,38131 38816,38153 38825,38174 38861,38174 38861,38383 38766,38383 38766,38417 40434,38417 40434,38383 40339,38383 40339,38174 40375,38174 40384,38153 40393,38131 40401,38109 40409,38087 40416,38065 40422,38043 40428,38020 40434,37997 40436,37981 40438,37965 40439,37949 40439,37932 40440,37876 40439,37819 40438,37763 40436,37706 40435,37701 40432,37697 40418,37684 40405,37671 40392,37657 40379,37643 40372,37634 40366,37626 40360,37616 40355,37606 40328,37542 40142,37142 39058,37142 Z"/>
   </g>
  </g>
  <g class="com.sun.star.drawing.PolyPolygonShape">
   <g id="id7">
    <rect class="BoundingBox" stroke="none" fill="none" x="38759" y="37141" width="1683" height="1278"/>
    <path fill="rgb(255,255,255)" stroke="none" d="M 40340,37813 L 40340,37805 40339,37797 40337,37789 40334,37781 40330,37774 40326,37767 40321,37761 40316,37754 40310,37749 40303,37744 40296,37740 40289,37736 40281,37734 40273,37732 40265,37730 40257,37730 40249,37730 40241,37732 40233,37734 40225,37736 40218,37740 40211,37744 40204,37749 40198,37754 40193,37761 40188,37767 40184,37774 40180,37781 40177,37789 40175,37797 40174,37805 40174,37813 40174,37821 40175,37830 40177,37838 40180,37845 40184,37853 40188,37860 40193,37866 40198,37872 40204,37878 40211,37883 40218,37887 40225,37890 40233,37893 40241,37895 40249,37896 40257,37897 40265,37896 40273,37895 40281,37893 40289,37890 40296,37887 40303,37883 40310,37878 40316,37872 40321,37866 40326,37860 40330,37853 40334,37845 40337,37838 40339,37830 40340,37821 40340,37813 Z M 40029,38086 L 39171,38086 39171,38061 40029,38061 40029,38086 Z M 40043,37867 L 39169,37867 39169,37838 40043,37838 40043,37867 Z M 39026,37811 L 39026,37803 39024,37794 39022,37787 39020,37779 39016,37771 39012,37764 39007,37758 39002,37752 38996,37746 38989,37741 38982,37737 38975,37734 38967,37731 38959,37729 38951,37728 38943,37727 38935,37728 38927,37729 38919,37731 38911,37734 38903,37737 38896,37741 38890,37746 38884,37752 38878,37758 38874,37764 38869,37771 38866,37779 38863,37787 38861,37794 38860,37803 38860,37811 38860,37819 38861,37827 38863,37835 38866,37843 38869,37850 38874,37857 38878,37863 38884,37869 38890,37875 38896,37880 38903,37884 38911,37888 38919,37890 38927,37892 38935,37893 38943,37894 38951,37893 38959,37892 38967,37890 38975,37888 38982,37884 38989,37880 38996,37875 39002,37869 39007,37863 39012,37857 39016,37850 39020,37843 39022,37835 39024,37827 39026,37819 39026,37811 Z M 39026,38383 L 40174,38383 40174,38174 39026,38174 39026,38383 Z M 40203,37973 L 38994,37973 38994,37951 40203,37951 40203,37973 Z M 40306,37649 L 40102,37206 39098,37206 38886,37649 38975,37640 39063,37632 39152,37626 39241,37621 39329,37617 39418,37614 39508,37612 39597,37611 39685,37612 39774,37614 39863,37617 39952,37621 40041,37626 40129,37632 40218,37640 40306,37649 Z M 39058,37142 L 38872,37542 38844,37606 38840,37616 38834,37626 38828,37634 38821,37643 38808,37657 38795,37671 38782,37684 38768,37697 38765,37701 38764,37706 38762,37763 38760,37819 38760,37876 38761,37932 38761,37949 38762,37965 38764,37981 38766,37997 38772,38020 38778,38043 38784,38065 38791,38087 38799,38109 38807,38131 38816,38153 38825,38174 38861,38174 38861,38383 38766,38383 38766,38417 40434,38417 40434,38383 40339,38383 40339,38174 40375,38174 40384,38153 40393,38131 40401,38109 40409,38087 40416,38065 40422,38043 40428,38020 40434,37997 40436,37981 40438,37965 40439,37949 40439,37932 40440,37876 40439,37819 40438,37763 40436,37706 40435,37701 40432,37697 40418,37684 40405,37671 40392,37657 40379,37643 40372,37634 40366,37626 40360,37616 40355,37606 40328,37542 40142,37142 39058,37142 Z"/>
    <path fill="none" stroke="rgb(255,255,255)" d="M 40340,37813 L 40340,37805 40339,37797 40337,37789 40334,37781 40330,37774 40326,37767 40321,37761 40316,37754 40310,37749 40303,37744 40296,37740 40289,37736 40281,37734 40273,37732 40265,37730 40257,37730 40249,37730 40241,37732 40233,37734 40225,37736 40218,37740 40211,37744 40204,37749 40198,37754 40193,37761 40188,37767 40184,37774 40180,37781 40177,37789 40175,37797 40174,37805 40174,37813 40174,37821 40175,37830 40177,37838 40180,37845 40184,37853 40188,37860 40193,37866 40198,37872 40204,37878 40211,37883 40218,37887 40225,37890 40233,37893 40241,37895 40249,37896 40257,37897 40265,37896 40273,37895 40281,37893 40289,37890 40296,37887 40303,37883 40310,37878 40316,37872 40321,37866 40326,37860 40330,37853 40334,37845 40337,37838 40339,37830 40340,37821 40340,37813 Z"/>
    <path fill="none" stroke="rgb(255,255,255)" d="M 40029,38086 L 39171,38086 39171,38061 40029,38061 40029,38086 Z"/>
    <path fill="none" stroke="rgb(255,255,255)" d="M 40043,37867 L 39169,37867 39169,37838 40043,37838 40043,37867 Z"/>
    <path fill="none" stroke="rgb(255,255,255)" d="M 39026,37811 L 39026,37803 39024,37794 39022,37787 39020,37779 39016,37771 39012,37764 39007,37758 39002,37752 38996,37746 38989,37741 38982,37737 38975,37734 38967,37731 38959,37729 38951,37728 38943,37727 38935,37728 38927,37729 38919,37731 38911,37734 38903,37737 38896,37741 38890,37746 38884,37752 38878,37758 38874,37764 38869,37771 38866,37779 38863,37787 38861,37794 38860,37803 38860,37811 38860,37819 38861,37827 38863,37835 38866,37843 38869,37850 38874,37857 38878,37863 38884,37869 38890,37875 38896,37880 38903,37884 38911,37888 38919,37890 38927,37892 38935,37893 38943,37894 38951,37893 38959,37892 38967,37890 38975,37888 38982,37884 38989,37880 38996,37875 39002,37869 39007,37863 39012,37857 39016,37850 39020,37843 39022,37835 39024,37827 39026,37819 39026,37811 Z"/>
    <path fill="none" stroke="rgb(255,255,255)" d="M 39026,38383 L 40174,38383 40174,38174 39026,38174 39026,38383 Z"/>
    <path fill="none" stroke="rgb(255,255,255)" d="M 40203,37973 L 38994,37973 38994,37951 40203,37951 40203,37973 Z"/>
    <path fill="none" stroke="rgb(255,255,255)" d="M 40306,37649 L 40102,37206 39098,37206 38886,37649 38975,37640 39063,37632 39152,37626 39241,37621 39329,37617 39418,37614 39508,37612 39597,37611 39685,37612 39774,37614 39863,37617 39952,37621 40041,37626 40129,37632 40218,37640 40306,37649 Z"/>
    <path fill="none" stroke="rgb(255,255,255)" d="M 39058,37142 L 38872,37542 38844,37606 38840,37616 38834,37626 38828,37634 38821,37643 38808,37657 38795,37671 38782,37684 38768,37697 38765,37701 38764,37706 38762,37763 38760,37819 38760,37876 38761,37932 38761,37949 38762,37965 38764,37981 38766,37997 38772,38020 38778,38043 38784,38065 38791,38087 38799,38109 38807,38131 38816,38153 38825,38174 38861,38174 38861,38383 38766,38383 38766,38417 40434,38417 40434,38383 40339,38383 40339,38174 40375,38174 40384,38153 40393,38131 40401,38109 40409,38087 40416,38065 40422,38043 40428,38020 40434,37997 40436,37981 40438,37965 40439,37949 40439,37932 40440,37876 40439,37819 40438,37763 40436,37706 40435,37701 40432,37697 40418,37684 40405,37671 40392,37657 40379,37643 40372,37634 40366,37626 40360,37616 40355,37606 40328,37542 40142,37142 39058,37142 Z"/>
   </g>
  </g>
 </g>
</svg>