<?xml version="1.0" encoding="UTF-8"?>
<!DOCTYPE svg PUBLIC "-//W3C//DTD SVG 1.1//EN" "http://www.w3.org/Graphics/SVG/1.1/DTD/svg11.dtd">
<svg version="1.2" width="16.61mm" height="25.03mm" viewBox="67026 43499 1661 2503" preserveAspectRatio="xMidYMid" fill-rule="evenodd" stroke-width="28.222" stroke-linejoin="round" xmlns="http://www.w3.org/2000/svg" xmlns:ooo="http://xml.openoffice.org/svg/export" xmlns:xlink="http://www.w3.org/1999/xlink" xmlns:presentation="http://sun.com/xmlns/staroffice/presentation" xmlns:smil="http://www.w3.org/2001/SMIL20/" xmlns:anim="urn:oasis:names:tc:opendocument:xmlns:animation:1.0" xml:space="preserve">
 <defs class="EmbeddedBulletChars">
  <g id="bullet-char-template-57356" transform="scale(0.00048828125,-0.00048828125)">
   <path d="M 580,1141 L 1163,571 580,0 -4,571 580,1141 Z"/>
  </g>
  <g id="bullet-char-template-57354" transform="scale(0.00048828125,-0.00048828125)">
   <path d="M 8,1128 L 1137,1128 1137,0 8,0 8,1128 Z"/>
  </g>
  <g id="bullet-char-template-10146" transform="scale(0.00048828125,-0.00048828125)">
   <path d="M 174,0 L 602,739 174,1481 1456,739 174,0 Z M 1358,739 L 309,1346 659,739 1358,739 Z"/>
  </g>
  <g id="bullet-char-template-10132" transform="scale(0.00048828125,-0.00048828125)">
   <path d="M 2015,739 L 1276,0 717,0 1260,543 174,543 174,936 1260,936 717,1481 1274,1481 2015,739 Z"/>
  </g>
  <g id="bullet-char-template-10007" transform="scale(0.00048828125,-0.00048828125)">
   <path d="M 0,-2 C -7,14 -16,27 -25,37 L 356,567 C 262,823 215,952 215,954 215,979 228,992 255,992 264,992 276,990 289,987 310,991 331,999 354,1012 L 381,999 492,748 772,1049 836,1024 860,1049 C 881,1039 901,1025 922,1006 886,937 835,863 770,784 769,783 710,716 594,584 L 774,223 C 774,196 753,168 711,139 L 727,119 C 717,90 699,76 672,76 641,76 570,178 457,381 L 164,-76 C 142,-110 111,-127 72,-127 30,-127 9,-110 8,-76 1,-67 -2,-52 -2,-32 -2,-23 -1,-13 0,-2 Z"/>
  </g>
  <g id="bullet-char-template-10004" transform="scale(0.00048828125,-0.00048828125)">
   <path d="M 285,-33 C 182,-33 111,30 74,156 52,228 41,333 41,471 41,549 55,616 82,672 116,743 169,778 240,778 293,778 328,747 346,684 L 369,508 C 377,444 397,411 428,410 L 1163,1116 C 1174,1127 1196,1133 1229,1133 1271,1133 1292,1118 1292,1087 L 1292,965 C 1292,929 1282,901 1262,881 L 442,47 C 390,-6 338,-33 285,-33 Z"/>
  </g>
  <g id="bullet-char-template-9679" transform="scale(0.00048828125,-0.00048828125)">
   <path d="M 813,0 C 632,0 489,54 383,161 276,268 223,411 223,592 223,773 276,916 383,1023 489,1130 632,1184 813,1184 992,1184 1136,1130 1245,1023 1353,916 1407,772 1407,592 1407,412 1353,268 1245,161 1136,54 992,0 813,0 Z"/>
  </g>
  <g id="bullet-char-template-8226" transform="scale(0.00048828125,-0.00048828125)">
   <path d="M 346,457 C 273,457 209,483 155,535 101,586 74,649 74,723 74,796 101,859 155,911 209,963 273,989 346,989 419,989 480,963 531,910 582,859 608,796 608,723 608,648 583,586 532,535 482,483 420,457 346,457 Z"/>
  </g>
  <g id="bullet-char-template-8211" transform="scale(0.00048828125,-0.00048828125)">
   <path d="M -4,459 L 1135,459 1135,606 -4,606 -4,459 Z"/>
  </g>
  <g id="bullet-char-template-61548" transform="scale(0.00048828125,-0.00048828125)">
   <path d="M 173,740 C 173,903 231,1043 346,1159 462,1274 601,1332 765,1332 928,1332 1067,1274 1183,1159 1299,1043 1357,903 1357,740 1357,577 1299,437 1183,322 1067,206 928,148 765,148 601,148 462,206 346,322 231,437 173,577 173,740 Z"/>
  </g>
 </defs>
 <g class="Page">
  <g class="com.sun.star.drawing.PolyPolygonShape">
   <g id="id3">
    <rect class="BoundingBox" stroke="none" fill="none" x="67026" y="43499" width="1661" height="2503"/>
    <path fill="rgb(0,0,255)" stroke="none" d="M 67207,46000 L 68505,46000 68523,45999 68540,45997 68557,45993 68574,45987 68590,45979 68605,45970 68619,45960 68632,45948 68644,45934 68654,45920 68663,45905 68671,45889 68677,45872 68681,45855 68684,45838 68685,45820 68685,43680 68684,43662 68681,43645 68677,43628 68671,43611 68663,43595 68654,43580 68644,43565 68632,43552 68619,43540 68605,43530 68590,43521 68574,43513 68557,43507 68540,43503 68523,43500 68505,43500 67207,43500 67190,43500 67172,43503 67155,43507 67139,43513 67123,43521 67108,43530 67093,43540 67080,43552 67067,43565 67057,43580 67048,43595 67040,43611 67035,43628 67030,43645 67028,43662 67027,43680 67027,45820 67028,45838 67030,45855 67035,45872 67040,45889 67048,45905 67057,45920 67067,45934 67080,45948 67093,45960 67108,45970 67123,45979 67139,45987 67155,45993 67172,45997 67190,45999 67207,46000 Z"/>
    <path fill="none" stroke="rgb(0,0,255)" d="M 67207,46000 L 68505,46000 68523,45999 68540,45997 68557,45993 68574,45987 68590,45979 68605,45970 68619,45960 68632,45948 68644,45934 68654,45920 68663,45905 68671,45889 68677,45872 68681,45855 68684,45838 68685,45820 68685,43680 68684,43662 68681,43645 68677,43628 68671,43611 68663,43595 68654,43580 68644,43565 68632,43552 68619,43540 68605,43530 68590,43521 68574,43513 68557,43507 68540,43503 68523,43500 68505,43500 67207,43500 67190,43500 67172,43503 67155,43507 67139,43513 67123,43521 67108,43530 67093,43540 67080,43552 67067,43565 67057,43580 67048,43595 67040,43611 67035,43628 67030,43645 67028,43662 67027,43680 67027,45820 67028,45838 67030,45855 67035,45872 67040,45889 67048,45905 67057,45920 67067,45934 67080,45948 67093,45960 67108,45970 67123,45979 67139,45987 67155,45993 67172,45997 67190,45999 67207,46000 Z"/>
   </g>
  </g>
  <g class="com.sun.star.drawing.PolyPolygonShape">
   <g id="id4">
    <rect class="BoundingBox" stroke="none" fill="none" x="67067" y="43540" width="1578" height="2421"/>
    <path fill="rgb(255,255,255)" stroke="none" d="M 67206,45959 L 68505,45959 68519,45958 68532,45956 68545,45953 68558,45948 68570,45942 68582,45935 68593,45927 68603,45918 68612,45908 68620,45897 68627,45885 68633,45873 68637,45860 68640,45847 68642,45834 68643,45820 68643,43680 68642,43666 68640,43653 68637,43640 68633,43627 68627,43615 68620,43603 68612,43592 68603,43582 68593,43573 68582,43565 68570,43558 68558,43552 68545,43547 68532,43544 68519,43542 68505,43541 67206,43541 67193,43542 67179,43544 67166,43547 67154,43552 67141,43558 67130,43565 67119,43573 67109,43582 67100,43592 67091,43603 67085,43615 67079,43627 67074,43640 67071,43653 67069,43666 67068,43680 67068,45820 67069,45834 67071,45847 67074,45860 67079,45873 67085,45885 67091,45897 67100,45908 67109,45918 67119,45927 67130,45935 67141,45942 67154,45948 67166,45953 67179,45956 67193,45958 67206,45959 Z"/>
    <path fill="none" stroke="rgb(255,255,255)" d="M 67206,45959 L 68505,45959 68519,45958 68532,45956 68545,45953 68558,45948 68570,45942 68582,45935 68593,45927 68603,45918 68612,45908 68620,45897 68627,45885 68633,45873 68637,45860 68640,45847 68642,45834 68643,45820 68643,43680 68642,43666 68640,43653 68637,43640 68633,43627 68627,43615 68620,43603 68612,43592 68603,43582 68593,43573 68582,43565 68570,43558 68558,43552 68545,43547 68532,43544 68519,43542 68505,43541 67206,43541 67193,43542 67179,43544 67166,43547 67154,43552 67141,43558 67130,43565 67119,43573 67109,43582 67100,43592 67091,43603 67085,43615 67079,43627 67074,43640 67071,43653 67069,43666 67068,43680 67068,45820 67069,45834 67071,45847 67074,45860 67079,45873 67085,45885 67091,45897 67100,45908 67109,45918 67119,45927 67130,45935 67141,45942 67154,45948 67166,45953 67179,45956 67193,45958 67206,45959 Z"/>
   </g>
  </g>
  <g class="com.sun.star.drawing.PolyPolygonShape">
   <g id="id5">
    <rect class="BoundingBox" stroke="none" fill="none" x="67109" y="43582" width="1495" height="2337"/>
    <path fill="rgb(0,0,255)" stroke="none" d="M 67206,45917 L 68505,45917 68514,45917 68524,45915 68533,45913 68542,45910 68551,45906 68559,45901 68566,45895 68573,45889 68580,45881 68585,45874 68590,45866 68594,45857 68597,45848 68600,45839 68601,45829 68602,45820 68602,43680 68601,43671 68600,43661 68597,43652 68594,43643 68590,43634 68585,43626 68580,43618 68573,43611 68566,43605 68559,43599 68551,43594 68542,43590 68533,43587 68524,43585 68514,43583 68505,43583 67206,43583 67197,43583 67187,43585 67178,43587 67169,43590 67161,43594 67153,43599 67145,43605 67138,43611 67131,43618 67126,43626 67121,43634 67117,43643 67114,43652 67111,43661 67110,43671 67110,43680 67110,45820 67110,45829 67111,45839 67114,45848 67117,45857 67121,45866 67126,45874 67131,45881 67138,45889 67145,45895 67153,45901 67161,45906 67169,45910 67178,45913 67187,45915 67197,45917 67206,45917 Z"/>
    <path fill="none" stroke="rgb(0,0,255)" d="M 67206,45917 L 68505,45917 68514,45917 68524,45915 68533,45913 68542,45910 68551,45906 68559,45901 68566,45895 68573,45889 68580,45881 68585,45874 68590,45866 68594,45857 68597,45848 68600,45839 68601,45829 68602,45820 68602,43680 68601,43671 68600,43661 68597,43652 68594,43643 68590,43634 68585,43626 68580,43618 68573,43611 68566,43605 68559,43599 68551,43594 68542,43590 68533,43587 68524,43585 68514,43583 68505,43583 67206,43583 67197,43583 67187,43585 67178,43587 67169,43590 67161,43594 67153,43599 67145,43605 67138,43611 67131,43618 67126,43626 67121,43634 67117,43643 67114,43652 67111,43661 67110,43671 67110,43680 67110,45820 67110,45829 67111,45839 67114,45848 67117,45857 67121,45866 67126,45874 67131,45881 67138,45889 67145,45895 67153,45901 67161,45906 67169,45910 67178,45913 67187,45915 67197,45917 67206,45917 Z"/>
   </g>
  </g>
  <g class="com.sun.star.drawing.PolyPolygonShape">
   <g id="id6">
    <rect class="BoundingBox" stroke="none" fill="none" x="67324" y="44887" width="134" height="282"/>
    <path fill="rgb(255,255,255)" stroke="none" d="M 67325,45167 L 67325,44888 67456,44888 67456,44924 67364,44924 67364,45009 67424,45009 67424,45046 67364,45046 67364,45167 67325,45167 Z"/>
    <path fill="none" stroke="rgb(255,255,255)" d="M 67325,45167 L 67325,44888 67456,44888 67456,44924 67364,44924 67364,45009 67424,45009 67424,45046 67364,45046 67364,45167 67325,45167 Z"/>
   </g>
  </g>
  <g class="com.sun.star.drawing.PolyPolygonShape">
   <g id="id7">
    <rect class="BoundingBox" stroke="none" fill="none" x="67324" y="44887" width="134" height="282"/>
    <path fill="rgb(255,255,255)" stroke="none" d="M 67325,45167 L 67325,44888 67456,44888 67456,44924 67364,44924 67364,45009 67424,45009 67424,45046 67364,45046 67364,45167 67325,45167 Z"/>
    <path fill="none" stroke="rgb(255,255,255)" d="M 67325,45167 L 67325,44888 67456,44888 67456,44924 67364,44924 67364,45009 67424,45009 67424,45046 67364,45046 67364,45167 67325,45167 Z"/>
   </g>
  </g>
  <g class="com.sun.star.drawing.PolyPolygonShape">
   <g id="id8">
    <rect class="BoundingBox" stroke="none" fill="none" x="67324" y="44887" width="134" height="282"/>
    <path fill="rgb(255,255,255)" stroke="none" d="M 67325,45167 L 67325,44888 67456,44888 67456,44924 67364,44924 67364,45009 67424,45009 67424,45046 67364,45046 67364,45167 67325,45167 Z"/>
    <path fill="none" stroke="rgb(255,255,255)" d="M 67325,45167 L 67325,44888 67456,44888 67456,44924 67364,44924 67364,45009 67424,45009 67424,45046 67364,45046 67364,45167 67325,45167 Z"/>
   </g>
  </g>
  <g class="com.sun.star.drawing.PolyPolygonShape">
   <g id="id9">
    <rect class="BoundingBox" stroke="none" fill="none" x="67487" y="44887" width="194" height="282"/>
    <path fill="rgb(255,255,255)" stroke="none" d="M 67488,45167 L 67488,44888 67536,44888 67584,45082 67631,44888 67679,44888 67679,45167 67639,45167 67639,45006 67600,45167 67563,45167 67524,45006 67524,45167 67488,45167 Z"/>
    <path fill="none" stroke="rgb(255,255,255)" d="M 67488,45167 L 67488,44888 67536,44888 67584,45082 67631,44888 67679,44888 67679,45167 67639,45167 67639,45006 67600,45167 67563,45167 67524,45006 67524,45167 67488,45167 Z"/>
   </g>
  </g>
  <g class="com.sun.star.drawing.PolyPolygonShape">
   <g id="id10">
    <rect class="BoundingBox" stroke="none" fill="none" x="67487" y="44887" width="194" height="282"/>
    <path fill="rgb(255,255,255)" stroke="none" d="M 67488,45167 L 67488,44888 67536,44888 67584,45082 67631,44888 67679,44888 67679,45167 67639,45167 67639,45006 67600,45167 67563,45167 67524,45006 67524,45167 67488,45167 Z"/>
    <path fill="none" stroke="rgb(255,255,255)" d="M 67488,45167 L 67488,44888 67536,44888 67584,45082 67631,44888 67679,44888 67679,45167 67639,45167 67639,45006 67600,45167 67563,45167 67524,45006 67524,45167 67488,45167 Z"/>
   </g>
  </g>
  <g class="com.sun.star.drawing.PolyPolygonShape">
   <g id="id11">
    <rect class="BoundingBox" stroke="none" fill="none" x="67487" y="44887" width="194" height="282"/>
    <path fill="rgb(255,255,255)" stroke="none" d="M 67488,45167 L 67488,44888 67536,44888 67584,45082 67631,44888 67679,44888 67679,45167 67639,45167 67639,45006 67600,45167 67563,45167 67524,45006 67524,45167 67488,45167 Z"/>
    <path fill="none" stroke="rgb(255,255,255)" d="M 67488,45167 L 67488,44888 67536,44888 67584,45082 67631,44888 67679,44888 67679,45167 67639,45167 67639,45006 67600,45167 67563,45167 67524,45006 67524,45167 67488,45167 Z"/>
   </g>
  </g>
  <g class="com.sun.star.drawing.PolyPolygonShape">
   <g id="id12">
    <rect class="BoundingBox" stroke="none" fill="none" x="67820" y="44883" width="146" height="290"/>
    <path fill="rgb(255,255,255)" stroke="none" d="M 67861,44980 L 67861,44953 67861,44947 67863,44941 67866,44935 67870,44930 67875,44926 67880,44924 67886,44922 67893,44921 67899,44922 67905,44924 67911,44926 67915,44930 67919,44935 67922,44941 67924,44947 67925,44953 67925,44980 67924,44986 67922,44992 67919,44998 67915,45002 67911,45006 67905,45009 67899,45011 67893,45012 67886,45011 67880,45009 67875,45006 67870,45002 67866,44998 67863,44992 67861,44986 67861,44980 Z M 67821,45088 L 67821,45100 67822,45107 67823,45114 67824,45120 67827,45127 67830,45133 67833,45140 67837,45145 67842,45150 67847,45155 67853,45159 67859,45163 67865,45166 67872,45168 67878,45170 67885,45171 67893,45171 67900,45171 67907,45170 67914,45168 67920,45166 67927,45163 67933,45159 67938,45155 67943,45150 67948,45145 67952,45140 67956,45133 67959,45127 67961,45120 67963,45114 67964,45107 67964,45100 67964,44957 67964,44950 67963,44943 67961,44936 67959,44930 67956,44923 67952,44917 67948,44912 67943,44906 67938,44902 67933,44897 67927,44894 67920,44891 67914,44889 67907,44886 67900,44885 67893,44884 67885,44885 67878,44886 67872,44889 67865,44891 67859,44894 67853,44897 67847,44902 67842,44906 67837,44912 67833,44917 67830,44923 67827,44930 67824,44936 67823,44943 67822,44950 67821,44957 67821,44980 67822,44989 67824,44998 67827,45006 67830,45014 67836,45021 67842,45028 67849,45034 67856,45038 67864,45042 67873,45044 67882,45046 67891,45046 67900,45045 67909,45042 67917,45039 67925,45034 67925,45104 67924,45110 67922,45116 67919,45121 67915,45126 67911,45130 67905,45133 67899,45135 67893,45135 67886,45135 67880,45133 67875,45130 67870,45126 67866,45121 67863,45116 67861,45110 67861,45104 67861,45088 67821,45088 Z"/>
    <path fill="none" stroke="rgb(255,255,255)" d="M 67861,44980 L 67861,44953 67861,44947 67863,44941 67866,44935 67870,44930 67875,44926 67880,44924 67886,44922 67893,44921 67899,44922 67905,44924 67911,44926 67915,44930 67919,44935 67922,44941 67924,44947 67925,44953 67925,44980 67924,44986 67922,44992 67919,44998 67915,45002 67911,45006 67905,45009 67899,45011 67893,45012 67886,45011 67880,45009 67875,45006 67870,45002 67866,44998 67863,44992 67861,44986 67861,44980 Z"/>
    <path fill="none" stroke="rgb(255,255,255)" d="M 67821,45088 L 67821,45100 67822,45107 67823,45114 67824,45120 67827,45127 67830,45133 67833,45140 67837,45145 67842,45150 67847,45155 67853,45159 67859,45163 67865,45166 67872,45168 67878,45170 67885,45171 67893,45171 67900,45171 67907,45170 67914,45168 67920,45166 67927,45163 67933,45159 67938,45155 67943,45150 67948,45145 67952,45140 67956,45133 67959,45127 67961,45120 67963,45114 67964,45107 67964,45100 67964,44957 67964,44950 67963,44943 67961,44936 67959,44930 67956,44923 67952,44917 67948,44912 67943,44906 67938,44902 67933,44897 67927,44894 67920,44891 67914,44889 67907,44886 67900,44885 67893,44884 67885,44885 67878,44886 67872,44889 67865,44891 67859,44894 67853,44897 67847,44902 67842,44906 67837,44912 67833,44917 67830,44923 67827,44930 67824,44936 67823,44943 67822,44950 67821,44957 67821,44980 67822,44989 67824,44998 67827,45006 67830,45014 67836,45021 67842,45028 67849,45034 67856,45038 67864,45042 67873,45044 67882,45046 67891,45046 67900,45045 67909,45042 67917,45039 67925,45034 67925,45104 67924,45110 67922,45116 67919,45121 67915,45126 67911,45130 67905,45133 67899,45135 67893,45135 67886,45135 67880,45133 67875,45130 67870,45126 67866,45121 67863,45116 67861,45110 67861,45104 67861,45088 67821,45088 Z"/>
   </g>
  </g>
  <g class="com.sun.star.drawing.PolyPolygonShape">
   <g id="id13">
    <rect class="BoundingBox" stroke="none" fill="none" x="67820" y="44883" width="146" height="290"/>
    <path fill="rgb(255,255,255)" stroke="none" d="M 67861,44980 L 67861,44953 67861,44947 67863,44941 67866,44935 67870,44930 67875,44926 67880,44924 67886,44922 67893,44921 67899,44922 67905,44924 67911,44926 67915,44930 67919,44935 67922,44941 67924,44947 67925,44953 67925,44980 67924,44986 67922,44992 67919,44998 67915,45002 67911,45006 67905,45009 67899,45011 67893,45012 67886,45011 67880,45009 67875,45006 67870,45002 67866,44998 67863,44992 67861,44986 67861,44980 Z M 67821,45088 L 67821,45100 67822,45107 67823,45114 67824,45120 67827,45127 67830,45133 67833,45140 67837,45145 67842,45150 67847,45155 67853,45159 67859,45163 67865,45166 67872,45168 67878,45170 67885,45171 67893,45171 67900,45171 67907,45170 67914,45168 67920,45166 67927,45163 67933,45159 67938,45155 67943,45150 67948,45145 67952,45140 67956,45133 67959,45127 67961,45120 67963,45114 67964,45107 67964,45100 67964,44957 67964,44950 67963,44943 67961,44936 67959,44930 67956,44923 67952,44917 67948,44912 67943,44906 67938,44902 67933,44897 67927,44894 67920,44891 67914,44889 67907,44886 67900,44885 67893,44884 67885,44885 67878,44886 67872,44889 67865,44891 67859,44894 67853,44897 67847,44902 67842,44906 67837,44912 67833,44917 67830,44923 67827,44930 67824,44936 67823,44943 67822,44950 67821,44957 67821,44980 67822,44989 67824,44998 67827,45006 67830,45014 67836,45021 67842,45028 67849,45034 67856,45038 67864,45042 67873,45044 67882,45046 67891,45046 67900,45045 67909,45042 67917,45039 67925,45034 67925,45104 67924,45110 67922,45116 67919,45121 67915,45126 67911,45130 67905,45133 67899,45135 67893,45135 67886,45135 67880,45133 67875,45130 67870,45126 67866,45121 67863,45116 67861,45110 67861,45104 67861,45088 67821,45088 Z"/>
    <path fill="none" stroke="rgb(255,255,255)" d="M 67861,44980 L 67861,44953 67861,44947 67863,44941 67866,44935 67870,44930 67875,44926 67880,44924 67886,44922 67893,44921 67899,44922 67905,44924 67911,44926 67915,44930 67919,44935 67922,44941 67924,44947 67925,44953 67925,44980 67924,44986 67922,44992 67919,44998 67915,45002 67911,45006 67905,45009 67899,45011 67893,45012 67886,45011 67880,45009 67875,45006 67870,45002 67866,44998 67863,44992 67861,44986 67861,44980 Z"/>
    <path fill="none" stroke="rgb(255,255,255)" d="M 67821,45088 L 67821,45100 67822,45107 67823,45114 67824,45120 67827,45127 67830,45133 67833,45140 67837,45145 67842,45150 67847,45155 67853,45159 67859,45163 67865,45166 67872,45168 67878,45170 67885,45171 67893,45171 67900,45171 67907,45170 67914,45168 67920,45166 67927,45163 67933,45159 67938,45155 67943,45150 67948,45145 67952,45140 67956,45133 67959,45127 67961,45120 67963,45114 67964,45107 67964,45100 67964,44957 67964,44950 67963,44943 67961,44936 67959,44930 67956,44923 67952,44917 67948,44912 67943,44906 67938,44902 67933,44897 67927,44894 67920,44891 67914,44889 67907,44886 67900,44885 67893,44884 67885,44885 67878,44886 67872,44889 67865,44891 67859,44894 67853,44897 67847,44902 67842,44906 67837,44912 67833,44917 67830,44923 67827,44930 67824,44936 67823,44943 67822,44950 67821,44957 67821,44980 67822,44989 67824,44998 67827,45006 67830,45014 67836,45021 67842,45028 67849,45034 67856,45038 67864,45042 67873,45044 67882,45046 67891,45046 67900,45045 67909,45042 67917,45039 67925,45034 67925,45104 67924,45110 67922,45116 67919,45121 67915,45126 67911,45130 67905,45133 67899,45135 67893,45135 67886,45135 67880,45133 67875,45130 67870,45126 67866,45121 67863,45116 67861,45110 67861,45104 67861,45088 67821,45088 Z"/>
   </g>
  </g>
  <g class="com.sun.star.drawing.PolyPolygonShape">
   <g id="id14">
    <rect class="BoundingBox" stroke="none" fill="none" x="67820" y="44883" width="146" height="290"/>
    <path fill="rgb(255,255,255)" stroke="none" d="M 67861,44980 L 67861,44953 67861,44947 67863,44941 67866,44935 67870,44930 67875,44926 67880,44924 67886,44922 67893,44921 67899,44922 67905,44924 67911,44926 67915,44930 67919,44935 67922,44941 67924,44947 67925,44953 67925,44980 67924,44986 67922,44992 67919,44998 67915,45002 67911,45006 67905,45009 67899,45011 67893,45012 67886,45011 67880,45009 67875,45006 67870,45002 67866,44998 67863,44992 67861,44986 67861,44980 Z M 67821,45088 L 67821,45100 67822,45107 67823,45114 67824,45120 67827,45127 67830,45133 67833,45140 67837,45145 67842,45150 67847,45155 67853,45159 67859,45163 67865,45166 67872,45168 67878,45170 67885,45171 67893,45171 67900,45171 67907,45170 67914,45168 67920,45166 67927,45163 67933,45159 67938,45155 67943,45150 67948,45145 67952,45140 67956,45133 67959,45127 67961,45120 67963,45114 67964,45107 67964,45100 67964,44957 67964,44950 67963,44943 67961,44936 67959,44930 67956,44923 67952,44917 67948,44912 67943,44906 67938,44902 67933,44897 67927,44894 67920,44891 67914,44889 67907,44886 67900,44885 67893,44884 67885,44885 67878,44886 67872,44889 67865,44891 67859,44894 67853,44897 67847,44902 67842,44906 67837,44912 67833,44917 67830,44923 67827,44930 67824,44936 67823,44943 67822,44950 67821,44957 67821,44980 67822,44989 67824,44998 67827,45006 67830,45014 67836,45021 67842,45028 67849,45034 67856,45038 67864,45042 67873,45044 67882,45046 67891,45046 67900,45045 67909,45042 67917,45039 67925,45034 67925,45104 67924,45110 67922,45116 67919,45121 67915,45126 67911,45130 67905,45133 67899,45135 67893,45135 67886,45135 67880,45133 67875,45130 67870,45126 67866,45121 67863,45116 67861,45110 67861,45104 67861,45088 67821,45088 Z"/>
    <path fill="none" stroke="rgb(255,255,255)" d="M 67861,44980 L 67861,44953 67861,44947 67863,44941 67866,44935 67870,44930 67875,44926 67880,44924 67886,44922 67893,44921 67899,44922 67905,44924 67911,44926 67915,44930 67919,44935 67922,44941 67924,44947 67925,44953 67925,44980 67924,44986 67922,44992 67919,44998 67915,45002 67911,45006 67905,45009 67899,45011 67893,45012 67886,45011 67880,45009 67875,45006 67870,45002 67866,44998 67863,44992 67861,44986 67861,44980 Z"/>
    <path fill="none" stroke="rgb(255,255,255)" d="M 67821,45088 L 67821,45100 67822,45107 67823,45114 67824,45120 67827,45127 67830,45133 67833,45140 67837,45145 67842,45150 67847,45155 67853,45159 67859,45163 67865,45166 67872,45168 67878,45170 67885,45171 67893,45171 67900,45171 67907,45170 67914,45168 67920,45166 67927,45163 67933,45159 67938,45155 67943,45150 67948,45145 67952,45140 67956,45133 67959,45127 67961,45120 67963,45114 67964,45107 67964,45100 67964,44957 67964,44950 67963,44943 67961,44936 67959,44930 67956,44923 67952,44917 67948,44912 67943,44906 67938,44902 67933,44897 67927,44894 67920,44891 67914,44889 67907,44886 67900,44885 67893,44884 67885,44885 67878,44886 67872,44889 67865,44891 67859,44894 67853,44897 67847,44902 67842,44906 67837,44912 67833,44917 67830,44923 67827,44930 67824,44936 67823,44943 67822,44950 67821,44957 67821,44980 67822,44989 67824,44998 67827,45006 67830,45014 67836,45021 67842,45028 67849,45034 67856,45038 67864,45042 67873,45044 67882,45046 67891,45046 67900,45045 67909,45042 67917,45039 67925,45034 67925,45104 67924,45110 67922,45116 67919,45121 67915,45126 67911,45130 67905,45133 67899,45135 67893,45135 67886,45135 67880,45133 67875,45130 67870,45126 67866,45121 67863,45116 67861,45110 67861,45104 67861,45088 67821,45088 Z"/>
   </g>
  </g>
  <g class="com.sun.star.drawing.PolyPolygonShape">
   <g id="id15">
    <rect class="BoundingBox" stroke="none" fill="none" x="68012" y="44883" width="146" height="286"/>
    <path fill="rgb(255,255,255)" stroke="none" d="M 68017,45132 L 68108,44964 68111,44958 68112,44951 68112,44945 68110,44938 68106,44932 68102,44927 68096,44923 68090,44921 68083,44920 68077,44921 68070,44923 68064,44926 68060,44931 68056,44937 68054,44943 68053,44950 68053,44960 68013,44960 68013,44954 68013,44946 68014,44938 68017,44931 68020,44923 68024,44917 68028,44910 68034,44904 68040,44899 68047,44894 68054,44891 68061,44888 68069,44886 68076,44885 68084,44884 68092,44885 68100,44887 68107,44889 68115,44892 68121,44896 68127,44901 68133,44907 68138,44913 68142,44919 68146,44926 68149,44934 68151,44942 68152,44949 68152,44957 68151,44965 68149,44973 68146,44980 68143,44987 68063,45132 68156,45132 68156,45167 68017,45167 68017,45132 Z"/>
    <path fill="none" stroke="rgb(255,255,255)" d="M 68017,45132 L 68108,44964 68111,44958 68112,44951 68112,44945 68110,44938 68106,44932 68102,44927 68096,44923 68090,44921 68083,44920 68077,44921 68070,44923 68064,44926 68060,44931 68056,44937 68054,44943 68053,44950 68053,44960 68013,44960 68013,44954 68013,44946 68014,44938 68017,44931 68020,44923 68024,44917 68028,44910 68034,44904 68040,44899 68047,44894 68054,44891 68061,44888 68069,44886 68076,44885 68084,44884 68092,44885 68100,44887 68107,44889 68115,44892 68121,44896 68127,44901 68133,44907 68138,44913 68142,44919 68146,44926 68149,44934 68151,44942 68152,44949 68152,44957 68151,44965 68149,44973 68146,44980 68143,44987 68063,45132 68156,45132 68156,45167 68017,45167 68017,45132 Z"/>
   </g>
  </g>
  <g class="com.sun.star.drawing.PolyPolygonShape">
   <g id="id16">
    <rect class="BoundingBox" stroke="none" fill="none" x="68012" y="44883" width="146" height="286"/>
    <path fill="rgb(255,255,255)" stroke="none" d="M 68017,45132 L 68108,44964 68111,44958 68112,44951 68112,44945 68110,44938 68106,44932 68102,44927 68096,44923 68090,44921 68083,44920 68077,44921 68070,44923 68064,44926 68060,44931 68056,44937 68054,44943 68053,44950 68053,44960 68013,44960 68013,44954 68013,44946 68014,44938 68017,44931 68020,44923 68024,44917 68028,44910 68034,44904 68040,44899 68047,44894 68054,44891 68061,44888 68069,44886 68076,44885 68084,44884 68092,44885 68100,44887 68107,44889 68115,44892 68121,44896 68127,44901 68133,44907 68138,44913 68142,44919 68146,44926 68149,44934 68151,44942 68152,44949 68152,44957 68151,44965 68149,44973 68146,44980 68143,44987 68063,45132 68156,45132 68156,45167 68017,45167 68017,45132 Z"/>
    <path fill="none" stroke="rgb(255,255,255)" d="M 68017,45132 L 68108,44964 68111,44958 68112,44951 68112,44945 68110,44938 68106,44932 68102,44927 68096,44923 68090,44921 68083,44920 68077,44921 68070,44923 68064,44926 68060,44931 68056,44937 68054,44943 68053,44950 68053,44960 68013,44960 68013,44954 68013,44946 68014,44938 68017,44931 68020,44923 68024,44917 68028,44910 68034,44904 68040,44899 68047,44894 68054,44891 68061,44888 68069,44886 68076,44885 68084,44884 68092,44885 68100,44887 68107,44889 68115,44892 68121,44896 68127,44901 68133,44907 68138,44913 68142,44919 68146,44926 68149,44934 68151,44942 68152,44949 68152,44957 68151,44965 68149,44973 68146,44980 68143,44987 68063,45132 68156,45132 68156,45167 68017,45167 68017,45132 Z"/>
   </g>
  </g>
  <g class="com.sun.star.drawing.PolyPolygonShape">
   <g id="id17">
    <rect class="BoundingBox" stroke="none" fill="none" x="68012" y="44883" width="146" height="286"/>
    <path fill="rgb(255,255,255)" stroke="none" d="M 68017,45132 L 68108,44964 68111,44958 68112,44951 68112,44945 68110,44938 68106,44932 68102,44927 68096,44923 68090,44921 68083,44920 68077,44921 68070,44923 68064,44926 68060,44931 68056,44937 68054,44943 68053,44950 68053,44960 68013,44960 68013,44954 68013,44946 68014,44938 68017,44931 68020,44923 68024,44917 68028,44910 68034,44904 68040,44899 68047,44894 68054,44891 68061,44888 68069,44886 68076,44885 68084,44884 68092,44885 68100,44887 68107,44889 68115,44892 68121,44896 68127,44901 68133,44907 68138,44913 68142,44919 68146,44926 68149,44934 68151,44942 68152,44949 68152,44957 68151,44965 68149,44973 68146,44980 68143,44987 68063,45132 68156,45132 68156,45167 68017,45167 68017,45132 Z"/>
    <path fill="none" stroke="rgb(255,255,255)" d="M 68017,45132 L 68108,44964 68111,44958 68112,44951 68112,44945 68110,44938 68106,44932 68102,44927 68096,44923 68090,44921 68083,44920 68077,44921 68070,44923 68064,44926 68060,44931 68056,44937 68054,44943 68053,44950 68053,44960 68013,44960 68013,44954 68013,44946 68014,44938 68017,44931 68020,44923 68024,44917 68028,44910 68034,44904 68040,44899 68047,44894 68054,44891 68061,44888 68069,44886 68076,44885 68084,44884 68092,44885 68100,44887 68107,44889 68115,44892 68121,44896 68127,44901 68133,44907 68138,44913 68142,44919 68146,44926 68149,44934 68151,44942 68152,44949 68152,44957 68151,44965 68149,44973 68146,44980 68143,44987 68063,45132 68156,45132 68156,45167 68017,45167 68017,45132 Z"/>
   </g>
  </g>
  <g class="com.sun.star.drawing.PolyPolygonShape">
   <g id="id18">
    <rect class="BoundingBox" stroke="none" fill="none" x="68181" y="45131" width="38" height="38"/>
    <path fill="rgb(255,255,255)" stroke="none" d="M 68217,45149 L 68216,45146 68215,45143 68214,45140 68212,45137 68209,45135 68206,45134 68203,45133 68200,45132 68197,45133 68193,45134 68190,45135 68187,45137 68185,45140 68183,45143 68183,45146 68182,45149 68183,45153 68183,45156 68185,45159 68187,45162 68190,45164 68193,45166 68197,45167 68200,45167 68203,45167 68206,45166 68209,45164 68212,45162 68214,45159 68215,45156 68216,45153 68217,45149 Z"/>
    <path fill="none" stroke="rgb(255,255,255)" d="M 68217,45149 L 68216,45146 68215,45143 68214,45140 68212,45137 68209,45135 68206,45134 68203,45133 68200,45132 68197,45133 68193,45134 68190,45135 68187,45137 68185,45140 68183,45143 68183,45146 68182,45149 68183,45153 68183,45156 68185,45159 68187,45162 68190,45164 68193,45166 68197,45167 68200,45167 68203,45167 68206,45166 68209,45164 68212,45162 68214,45159 68215,45156 68216,45153 68217,45149 Z"/>
   </g>
  </g>
  <g class="com.sun.star.drawing.PolyPolygonShape">
   <g id="id19">
    <rect class="BoundingBox" stroke="none" fill="none" x="68181" y="45131" width="38" height="38"/>
    <path fill="rgb(255,255,255)" stroke="none" d="M 68217,45149 L 68216,45146 68215,45143 68214,45140 68212,45137 68209,45135 68206,45134 68203,45133 68200,45132 68197,45133 68193,45134 68190,45135 68187,45137 68185,45140 68183,45143 68183,45146 68182,45149 68183,45153 68183,45156 68185,45159 68187,45162 68190,45164 68193,45166 68197,45167 68200,45167 68203,45167 68206,45166 68209,45164 68212,45162 68214,45159 68215,45156 68216,45153 68217,45149 Z"/>
    <path fill="none" stroke="rgb(255,255,255)" d="M 68217,45149 L 68216,45146 68215,45143 68214,45140 68212,45137 68209,45135 68206,45134 68203,45133 68200,45132 68197,45133 68193,45134 68190,45135 68187,45137 68185,45140 68183,45143 68183,45146 68182,45149 68183,45153 68183,45156 68185,45159 68187,45162 68190,45164 68193,45166 68197,45167 68200,45167 68203,45167 68206,45166 68209,45164 68212,45162 68214,45159 68215,45156 68216,45153 68217,45149 Z"/>
   </g>
  </g>
  <g class="com.sun.star.drawing.PolyPolygonShape">
   <g id="id20">
    <rect class="BoundingBox" stroke="none" fill="none" x="68181" y="45131" width="38" height="38"/>
    <path fill="rgb(255,255,255)" stroke="none" d="M 68217,45149 L 68216,45146 68215,45143 68214,45140 68212,45137 68209,45135 68206,45134 68203,45133 68200,45132 68197,45133 68193,45134 68190,45135 68187,45137 68185,45140 68183,45143 68183,45146 68182,45149 68183,45153 68183,45156 68185,45159 68187,45162 68190,45164 68193,45166 68197,45167 68200,45167 68203,45167 68206,45166 68209,45164 68212,45162 68214,45159 68215,45156 68216,45153 68217,45149 Z"/>
    <path fill="none" stroke="rgb(255,255,255)" d="M 68217,45149 L 68216,45146 68215,45143 68214,45140 68212,45137 68209,45135 68206,45134 68203,45133 68200,45132 68197,45133 68193,45134 68190,45135 68187,45137 68185,45140 68183,45143 68183,45146 68182,45149 68183,45153 68183,45156 68185,45159 68187,45162 68190,45164 68193,45166 68197,45167 68200,45167 68203,45167 68206,45166 68209,45164 68212,45162 68214,45159 68215,45156 68216,45153 68217,45149 Z"/>
   </g>
  </g>
  <g class="com.sun.star.drawing.PolyPolygonShape">
   <g id="id21">
    <rect class="BoundingBox" stroke="none" fill="none" x="68242" y="44883" width="146" height="290"/>
    <path fill="rgb(255,255,255)" stroke="none" d="M 68299,45004 L 68314,45004 68320,45004 68325,45002 68330,45000 68334,44996 68337,44992 68340,44987 68341,44982 68342,44977 68342,44949 68341,44944 68340,44938 68337,44933 68334,44929 68330,44926 68325,44923 68320,44922 68314,44921 68309,44922 68304,44923 68299,44926 68295,44929 68291,44933 68289,44938 68287,44944 68287,44949 68287,44961 68247,44961 68247,44953 68248,44946 68249,44940 68250,44933 68252,44927 68255,44921 68259,44916 68262,44910 68267,44905 68272,44901 68277,44897 68283,44893 68289,44891 68295,44887 68301,44886 68308,44885 68314,44884 68321,44885 68327,44886 68334,44887 68340,44891 68346,44893 68352,44897 68357,44901 68362,44905 68366,44910 68370,44916 68375,44921 68377,44927 68380,44933 68381,44940 68382,44946 68382,44953 68382,44977 68382,44984 68381,44990 68379,44997 68376,45003 68371,45009 68367,45014 68362,45019 68357,45023 68363,45027 68368,45032 68374,45037 68379,45044 68382,45050 68384,45057 68386,45064 68386,45072 68386,45100 68386,45107 68385,45114 68383,45120 68381,45127 68378,45133 68374,45139 68369,45145 68365,45150 68359,45155 68354,45159 68348,45163 68341,45166 68335,45168 68328,45170 68321,45171 68314,45171 68307,45171 68301,45170 68294,45168 68287,45166 68281,45163 68275,45159 68269,45155 68264,45150 68259,45145 68255,45139 68252,45133 68249,45127 68246,45120 68245,45114 68244,45107 68243,45100 68243,45088 68283,45088 68283,45104 68283,45110 68285,45116 68288,45121 68292,45126 68297,45130 68302,45133 68308,45135 68314,45135 68321,45135 68326,45133 68332,45130 68337,45126 68341,45121 68343,45116 68345,45110 68346,45104 68346,45072 68345,45066 68343,45060 68341,45054 68337,45049 68332,45046 68326,45043 68321,45041 68314,45040 68299,45040 68299,45004 Z"/>
    <path fill="none" stroke="rgb(255,255,255)" d="M 68299,45004 L 68314,45004 68320,45004 68325,45002 68330,45000 68334,44996 68337,44992 68340,44987 68341,44982 68342,44977 68342,44949 68341,44944 68340,44938 68337,44933 68334,44929 68330,44926 68325,44923 68320,44922 68314,44921 68309,44922 68304,44923 68299,44926 68295,44929 68291,44933 68289,44938 68287,44944 68287,44949 68287,44961 68247,44961 68247,44953 68248,44946 68249,44940 68250,44933 68252,44927 68255,44921 68259,44916 68262,44910 68267,44905 68272,44901 68277,44897 68283,44893 68289,44891 68295,44887 68301,44886 68308,44885 68314,44884 68321,44885 68327,44886 68334,44887 68340,44891 68346,44893 68352,44897 68357,44901 68362,44905 68366,44910 68370,44916 68375,44921 68377,44927 68380,44933 68381,44940 68382,44946 68382,44953 68382,44977 68382,44984 68381,44990 68379,44997 68376,45003 68371,45009 68367,45014 68362,45019 68357,45023 68363,45027 68368,45032 68374,45037 68379,45044 68382,45050 68384,45057 68386,45064 68386,45072 68386,45100 68386,45107 68385,45114 68383,45120 68381,45127 68378,45133 68374,45139 68369,45145 68365,45150 68359,45155 68354,45159 68348,45163 68341,45166 68335,45168 68328,45170 68321,45171 68314,45171 68307,45171 68301,45170 68294,45168 68287,45166 68281,45163 68275,45159 68269,45155 68264,45150 68259,45145 68255,45139 68252,45133 68249,45127 68246,45120 68245,45114 68244,45107 68243,45100 68243,45088 68283,45088 68283,45104 68283,45110 68285,45116 68288,45121 68292,45126 68297,45130 68302,45133 68308,45135 68314,45135 68321,45135 68326,45133 68332,45130 68337,45126 68341,45121 68343,45116 68345,45110 68346,45104 68346,45072 68345,45066 68343,45060 68341,45054 68337,45049 68332,45046 68326,45043 68321,45041 68314,45040 68299,45040 68299,45004 Z"/>
   </g>
  </g>
  <g class="com.sun.star.drawing.PolyPolygonShape">
   <g id="id22">
    <rect class="BoundingBox" stroke="none" fill="none" x="68242" y="44883" width="146" height="290"/>
    <path fill="rgb(255,255,255)" stroke="none" d="M 68299,45004 L 68314,45004 68320,45004 68325,45002 68330,45000 68334,44996 68337,44992 68340,44987 68341,44982 68342,44977 68342,44949 68341,44944 68340,44938 68337,44933 68334,44929 68330,44926 68325,44923 68320,44922 68314,44921 68309,44922 68304,44923 68299,44926 68295,44929 68291,44933 68289,44938 68287,44944 68287,44949 68287,44961 68247,44961 68247,44953 68248,44946 68249,44940 68250,44933 68252,44927 68255,44921 68259,44916 68262,44910 68267,44905 68272,44901 68277,44897 68283,44893 68289,44891 68295,44887 68301,44886 68308,44885 68314,44884 68321,44885 68327,44886 68334,44887 68340,44891 68346,44893 68352,44897 68357,44901 68362,44905 68366,44910 68370,44916 68375,44921 68377,44927 68380,44933 68381,44940 68382,44946 68382,44953 68382,44977 68382,44984 68381,44990 68379,44997 68376,45003 68371,45009 68367,45014 68362,45019 68357,45023 68363,45027 68368,45032 68374,45037 68379,45044 68382,45050 68384,45057 68386,45064 68386,45072 68386,45100 68386,45107 68385,45114 68383,45120 68381,45127 68378,45133 68374,45139 68369,45145 68365,45150 68359,45155 68354,45159 68348,45163 68341,45166 68335,45168 68328,45170 68321,45171 68314,45171 68307,45171 68301,45170 68294,45168 68287,45166 68281,45163 68275,45159 68269,45155 68264,45150 68259,45145 68255,45139 68252,45133 68249,45127 68246,45120 68245,45114 68244,45107 68243,45100 68243,45088 68283,45088 68283,45104 68283,45110 68285,45116 68288,45121 68292,45126 68297,45130 68302,45133 68308,45135 68314,45135 68321,45135 68326,45133 68332,45130 68337,45126 68341,45121 68343,45116 68345,45110 68346,45104 68346,45072 68345,45066 68343,45060 68341,45054 68337,45049 68332,45046 68326,45043 68321,45041 68314,45040 68299,45040 68299,45004 Z"/>
    <path fill="none" stroke="rgb(255,255,255)" d="M 68299,45004 L 68314,45004 68320,45004 68325,45002 68330,45000 68334,44996 68337,44992 68340,44987 68341,44982 68342,44977 68342,44949 68341,44944 68340,44938 68337,44933 68334,44929 68330,44926 68325,44923 68320,44922 68314,44921 68309,44922 68304,44923 68299,44926 68295,44929 68291,44933 68289,44938 68287,44944 68287,44949 68287,44961 68247,44961 68247,44953 68248,44946 68249,44940 68250,44933 68252,44927 68255,44921 68259,44916 68262,44910 68267,44905 68272,44901 68277,44897 68283,44893 68289,44891 68295,44887 68301,44886 68308,44885 68314,44884 68321,44885 68327,44886 68334,44887 68340,44891 68346,44893 68352,44897 68357,44901 68362,44905 68366,44910 68370,44916 68375,44921 68377,44927 68380,44933 68381,44940 68382,44946 68382,44953 68382,44977 68382,44984 68381,44990 68379,44997 68376,45003 68371,45009 68367,45014 68362,45019 68357,45023 68363,45027 68368,45032 68374,45037 68379,45044 68382,45050 68384,45057 68386,45064 68386,45072 68386,45100 68386,45107 68385,45114 68383,45120 68381,45127 68378,45133 68374,45139 68369,45145 68365,45150 68359,45155 68354,45159 68348,45163 68341,45166 68335,45168 68328,45170 68321,45171 68314,45171 68307,45171 68301,45170 68294,45168 68287,45166 68281,45163 68275,45159 68269,45155 68264,45150 68259,45145 68255,45139 68252,45133 68249,45127 68246,45120 68245,45114 68244,45107 68243,45100 68243,45088 68283,45088 68283,45104 68283,45110 68285,45116 68288,45121 68292,45126 68297,45130 68302,45133 68308,45135 68314,45135 68321,45135 68326,45133 68332,45130 68337,45126 68341,45121 68343,45116 68345,45110 68346,45104 68346,45072 68345,45066 68343,45060 68341,45054 68337,45049 68332,45046 68326,45043 68321,45041 68314,45040 68299,45040 68299,45004 Z"/>
   </g>
  </g>
  <g class="com.sun.star.drawing.PolyPolygonShape">
   <g id="id23">
    <rect class="BoundingBox" stroke="none" fill="none" x="68242" y="44883" width="146" height="290"/>
    <path fill="rgb(255,255,255)" stroke="none" d="M 68299,45004 L 68314,45004 68320,45004 68325,45002 68330,45000 68334,44996 68337,44992 68340,44987 68341,44982 68342,44977 68342,44949 68341,44944 68340,44938 68337,44933 68334,44929 68330,44926 68325,44923 68320,44922 68314,44921 68309,44922 68304,44923 68299,44926 68295,44929 68291,44933 68289,44938 68287,44944 68287,44949 68287,44961 68247,44961 68247,44953 68248,44946 68249,44940 68250,44933 68252,44927 68255,44921 68259,44916 68262,44910 68267,44905 68272,44901 68277,44897 68283,44893 68289,44891 68295,44887 68301,44886 68308,44885 68314,44884 68321,44885 68327,44886 68334,44887 68340,44891 68346,44893 68352,44897 68357,44901 68362,44905 68366,44910 68370,44916 68375,44921 68377,44927 68380,44933 68381,44940 68382,44946 68382,44953 68382,44977 68382,44984 68381,44990 68379,44997 68376,45003 68371,45009 68367,45014 68362,45019 68357,45023 68363,45027 68368,45032 68374,45037 68379,45044 68382,45050 68384,45057 68386,45064 68386,45072 68386,45100 68386,45107 68385,45114 68383,45120 68381,45127 68378,45133 68374,45139 68369,45145 68365,45150 68359,45155 68354,45159 68348,45163 68341,45166 68335,45168 68328,45170 68321,45171 68314,45171 68307,45171 68301,45170 68294,45168 68287,45166 68281,45163 68275,45159 68269,45155 68264,45150 68259,45145 68255,45139 68252,45133 68249,45127 68246,45120 68245,45114 68244,45107 68243,45100 68243,45088 68283,45088 68283,45104 68283,45110 68285,45116 68288,45121 68292,45126 68297,45130 68302,45133 68308,45135 68314,45135 68321,45135 68326,45133 68332,45130 68337,45126 68341,45121 68343,45116 68345,45110 68346,45104 68346,45072 68345,45066 68343,45060 68341,45054 68337,45049 68332,45046 68326,45043 68321,45041 68314,45040 68299,45040 68299,45004 Z"/>
    <path fill="none" stroke="rgb(255,255,255)" d="M 68299,45004 L 68314,45004 68320,45004 68325,45002 68330,45000 68334,44996 68337,44992 68340,44987 68341,44982 68342,44977 68342,44949 68341,44944 68340,44938 68337,44933 68334,44929 68330,44926 68325,44923 68320,44922 68314,44921 68309,44922 68304,44923 68299,44926 68295,44929 68291,44933 68289,44938 68287,44944 68287,44949 68287,44961 68247,44961 68247,44953 68248,44946 68249,44940 68250,44933 68252,44927 68255,44921 68259,44916 68262,44910 68267,44905 68272,44901 68277,44897 68283,44893 68289,44891 68295,44887 68301,44886 68308,44885 68314,44884 68321,44885 68327,44886 68334,44887 68340,44891 68346,44893 68352,44897 68357,44901 68362,44905 68366,44910 68370,44916 68375,44921 68377,44927 68380,44933 68381,44940 68382,44946 68382,44953 68382,44977 68382,44984 68381,44990 68379,44997 68376,45003 68371,45009 68367,45014 68362,45019 68357,45023 68363,45027 68368,45032 68374,45037 68379,45044 68382,45050 68384,45057 68386,45064 68386,45072 68386,45100 68386,45107 68385,45114 68383,45120 68381,45127 68378,45133 68374,45139 68369,45145 68365,45150 68359,45155 68354,45159 68348,45163 68341,45166 68335,45168 68328,45170 68321,45171 68314,45171 68307,45171 68301,45170 68294,45168 68287,45166 68281,45163 68275,45159 68269,45155 68264,45150 68259,45145 68255,45139 68252,45133 68249,45127 68246,45120 68245,45114 68244,45107 68243,45100 68243,45088 68283,45088 68283,45104 68283,45110 68285,45116 68288,45121 68292,45126 68297,45130 68302,45133 68308,45135 68314,45135 68321,45135 68326,45133 68332,45130 68337,45126 68341,45121 68343,45116 68345,45110 68346,45104 68346,45072 68345,45066 68343,45060 68341,45054 68337,45049 68332,45046 68326,45043 68321,45041 68314,45040 68299,45040 68299,45004 Z"/>
   </g>
  </g>
  <g class="com.sun.star.drawing.PolyPolygonShape">
   <g id="id24">
    <rect class="BoundingBox" stroke="none" fill="none" x="67300" y="43762" width="1112" height="866"/>
    <path fill="rgb(255,255,255)" stroke="none" d="M 67301,44626 L 68410,44626 68410,43763 67301,43763 67301,44626 Z"/>
    <path fill="none" stroke="rgb(255,255,255)" d="M 67301,44626 L 68410,44626 68410,43763 67301,43763 67301,44626 Z"/>
   </g>
  </g>
  <g class="com.sun.star.drawing.PolyPolygonShape">
   <g id="id25">
    <rect class="BoundingBox" stroke="none" fill="none" x="68168" y="43920" width="161" height="213"/>
    <path fill="rgb(0,0,0)" stroke="none" d="M 68215,43993 L 68215,44058 68215,44065 68218,44071 68221,44077 68225,44082 68230,44086 68236,44089 68242,44091 68249,44091 68255,44091 68261,44089 68267,44086 68272,44082 68276,44077 68279,44071 68281,44065 68281,44058 68281,43993 68281,43987 68279,43981 68276,43975 68272,43970 68267,43966 68261,43963 68255,43961 68249,43960 68242,43961 68236,43963 68230,43966 68225,43970 68221,43975 68218,43981 68215,43987 68215,43993 Z M 68169,44001 L 68169,44052 68169,44059 68170,44067 68172,44075 68175,44082 68178,44089 68182,44096 68187,44102 68192,44108 68197,44113 68204,44118 68210,44122 68218,44125 68226,44128 68233,44130 68241,44131 68249,44131 68256,44131 68264,44130 68271,44128 68279,44125 68286,44122 68292,44118 68299,44113 68304,44108 68310,44102 68314,44096 68318,44089 68321,44082 68324,44075 68326,44067 68327,44059 68327,44052 68327,44001 68327,43992 68326,43984 68324,43977 68321,43970 68318,43963 68314,43956 68310,43950 68304,43944 68299,43939 68292,43934 68286,43930 68279,43927 68271,43924 68264,43922 68256,43921 68249,43921 68241,43921 68233,43922 68226,43924 68218,43927 68210,43930 68204,43934 68197,43939 68192,43944 68187,43950 68182,43956 68178,43963 68175,43970 68172,43977 68170,43984 68169,43992 68169,44001 Z"/>
    <path fill="none" stroke="rgb(0,0,0)" d="M 68215,43993 L 68215,44058 68215,44065 68218,44071 68221,44077 68225,44082 68230,44086 68236,44089 68242,44091 68249,44091 68255,44091 68261,44089 68267,44086 68272,44082 68276,44077 68279,44071 68281,44065 68281,44058 68281,43993 68281,43987 68279,43981 68276,43975 68272,43970 68267,43966 68261,43963 68255,43961 68249,43960 68242,43961 68236,43963 68230,43966 68225,43970 68221,43975 68218,43981 68215,43987 68215,43993 Z"/>
    <path fill="none" stroke="rgb(0,0,0)" d="M 68169,44001 L 68169,44052 68169,44059 68170,44067 68172,44075 68175,44082 68178,44089 68182,44096 68187,44102 68192,44108 68197,44113 68204,44118 68210,44122 68218,44125 68226,44128 68233,44130 68241,44131 68249,44131 68256,44131 68264,44130 68271,44128 68279,44125 68286,44122 68292,44118 68299,44113 68304,44108 68310,44102 68314,44096 68318,44089 68321,44082 68324,44075 68326,44067 68327,44059 68327,44052 68327,44001 68327,43992 68326,43984 68324,43977 68321,43970 68318,43963 68314,43956 68310,43950 68304,43944 68299,43939 68292,43934 68286,43930 68279,43927 68271,43924 68264,43922 68256,43921 68249,43921 68241,43921 68233,43922 68226,43924 68218,43927 68210,43930 68204,43934 68197,43939 68192,43944 68187,43950 68182,43956 68178,43963 68175,43970 68172,43977 68170,43984 68169,43992 68169,44001 Z"/>
   </g>
  </g>
  <g class="com.sun.star.drawing.PolyPolygonShape">
   <g id="id26">
    <rect class="BoundingBox" stroke="none" fill="none" x="67383" y="43846" width="209" height="282"/>
    <path fill="rgb(0,0,0)" stroke="none" d="M 67434,43959 L 67495,43959 67500,43958 67505,43957 67510,43954 67515,43951 67518,43947 67520,43942 67522,43937 67523,43931 67523,43922 67522,43916 67520,43911 67518,43906 67515,43901 67510,43898 67505,43895 67500,43894 67495,43893 67434,43893 67434,43959 Z M 67384,44126 L 67434,44126 67434,44005 67461,44005 67531,44126 67590,44126 67518,44003 67530,43999 67540,43993 67551,43985 67559,43976 67565,43966 67570,43955 67573,43943 67574,43931 67574,43922 67574,43915 67573,43907 67571,43899 67568,43893 67565,43886 67562,43880 67557,43874 67553,43868 67546,43864 67540,43859 67534,43856 67528,43852 67521,43850 67514,43848 67507,43847 67500,43847 67384,43847 67384,44126 Z"/>
    <path fill="none" stroke="rgb(0,0,0)" d="M 67434,43959 L 67495,43959 67500,43958 67505,43957 67510,43954 67515,43951 67518,43947 67520,43942 67522,43937 67523,43931 67523,43922 67522,43916 67520,43911 67518,43906 67515,43901 67510,43898 67505,43895 67500,43894 67495,43893 67434,43893 67434,43959 Z"/>
    <path fill="none" stroke="rgb(0,0,0)" d="M 67384,44126 L 67434,44126 67434,44005 67461,44005 67531,44126 67590,44126 67518,44003 67530,43999 67540,43993 67551,43985 67559,43976 67565,43966 67570,43955 67573,43943 67574,43931 67574,43922 67574,43915 67573,43907 67571,43899 67568,43893 67565,43886 67562,43880 67557,43874 67553,43868 67546,43864 67540,43859 67534,43856 67528,43852 67521,43850 67514,43848 67507,43847 67500,43847 67384,43847 67384,44126 Z"/>
   </g>
  </g>
  <g class="com.sun.star.drawing.PolyPolygonShape">
   <g id="id27">
    <rect class="BoundingBox" stroke="none" fill="none" x="67662" y="44336" width="162" height="208"/>
    <path fill="rgb(0,0,0)" stroke="none" d="M 67663,44542 L 67709,44542 67709,44411 67710,44405 67711,44398 67714,44393 67719,44388 67724,44383 67729,44380 67735,44379 67742,44378 67749,44379 67755,44380 67761,44383 67766,44388 67770,44393 67773,44398 67775,44405 67776,44411 67776,44542 67822,44542 67822,44404 67821,44394 67819,44384 67815,44375 67811,44367 67805,44359 67798,44352 67790,44346 67781,44342 67772,44339 67762,44337 67753,44337 67742,44339 67733,44341 67724,44345 67716,44351 67709,44358 67709,44343 67663,44343 67663,44542 Z"/>
    <path fill="none" stroke="rgb(0,0,0)" d="M 67663,44542 L 67709,44542 67709,44411 67710,44405 67711,44398 67714,44393 67719,44388 67724,44383 67729,44380 67735,44379 67742,44378 67749,44379 67755,44380 67761,44383 67766,44388 67770,44393 67773,44398 67775,44405 67776,44411 67776,44542 67822,44542 67822,44404 67821,44394 67819,44384 67815,44375 67811,44367 67805,44359 67798,44352 67790,44346 67781,44342 67772,44339 67762,44337 67753,44337 67742,44339 67733,44341 67724,44345 67716,44351 67709,44358 67709,44343 67663,44343 67663,44542 Z"/>
   </g>
  </g>
  <g class="com.sun.star.drawing.PolyPolygonShape">
   <g id="id28">
    <rect class="BoundingBox" stroke="none" fill="none" x="67553" y="44270" width="43" height="44"/>
    <path fill="rgb(0,0,0)" stroke="none" d="M 67554,44312 L 67594,44312 67594,44271 67554,44271 67554,44312 Z"/>
    <path fill="none" stroke="rgb(0,0,0)" d="M 67554,44312 L 67594,44312 67594,44271 67554,44271 67554,44312 Z"/>
   </g>
  </g>
  <g class="com.sun.star.drawing.PolyPolygonShape">
   <g id="id29">
    <rect class="BoundingBox" stroke="none" fill="none" x="67550" y="44342" width="50" height="202"/>
    <path fill="rgb(0,0,0)" stroke="none" d="M 67551,44542 L 67598,44542 67598,44343 67551,44343 67551,44542 Z"/>
    <path fill="none" stroke="rgb(0,0,0)" d="M 67551,44542 L 67598,44542 67598,44343 67551,44343 67551,44542 Z"/>
   </g>
  </g>
  <g class="com.sun.star.drawing.PolyPolygonShape">
   <g id="id30">
    <rect class="BoundingBox" stroke="none" fill="none" x="68001" y="44336" width="162" height="214"/>
    <path fill="rgb(0,0,0)" stroke="none" d="M 68048,44410 L 68048,44475 68049,44481 68050,44488 68053,44493 68058,44498 68064,44503 68069,44506 68075,44507 68082,44508 68088,44507 68094,44506 68100,44503 68105,44498 68109,44493 68112,44488 68114,44481 68115,44475 68115,44410 68114,44404 68112,44397 68109,44392 68105,44387 68100,44382 68094,44379 68088,44378 68082,44377 68075,44378 68069,44379 68064,44382 68058,44387 68053,44392 68050,44397 68049,44404 68048,44410 Z M 68002,44418 L 68002,44468 68002,44476 68003,44484 68005,44491 68008,44499 68011,44506 68015,44513 68020,44519 68025,44525 68031,44530 68037,44534 68044,44538 68051,44542 68058,44544 68066,44546 68074,44547 68082,44548 68089,44547 68097,44546 68105,44544 68112,44542 68119,44538 68126,44534 68132,44530 68138,44525 68143,44519 68147,44513 68151,44506 68155,44499 68157,44491 68159,44484 68160,44476 68161,44468 68161,44418 68160,44409 68159,44401 68157,44394 68155,44386 68151,44379 68147,44373 68143,44366 68138,44360 68132,44355 68126,44351 68119,44347 68112,44343 68105,44341 68097,44339 68089,44338 68082,44337 68074,44338 68066,44339 68058,44341 68051,44343 68044,44347 68037,44351 68031,44355 68025,44360 68020,44366 68015,44373 68011,44379 68008,44386 68005,44394 68003,44401 68002,44409 68002,44418 Z"/>
    <path fill="none" stroke="rgb(0,0,0)" d="M 68048,44410 L 68048,44475 68049,44481 68050,44488 68053,44493 68058,44498 68064,44503 68069,44506 68075,44507 68082,44508 68088,44507 68094,44506 68100,44503 68105,44498 68109,44493 68112,44488 68114,44481 68115,44475 68115,44410 68114,44404 68112,44397 68109,44392 68105,44387 68100,44382 68094,44379 68088,44378 68082,44377 68075,44378 68069,44379 68064,44382 68058,44387 68053,44392 68050,44397 68049,44404 68048,44410 Z"/>
    <path fill="none" stroke="rgb(0,0,0)" d="M 68002,44418 L 68002,44468 68002,44476 68003,44484 68005,44491 68008,44499 68011,44506 68015,44513 68020,44519 68025,44525 68031,44530 68037,44534 68044,44538 68051,44542 68058,44544 68066,44546 68074,44547 68082,44548 68089,44547 68097,44546 68105,44544 68112,44542 68119,44538 68126,44534 68132,44530 68138,44525 68143,44519 68147,44513 68151,44506 68155,44499 68157,44491 68159,44484 68160,44476 68161,44468 68161,44418 68160,44409 68159,44401 68157,44394 68155,44386 68151,44379 68147,44373 68143,44366 68138,44360 68132,44355 68126,44351 68119,44347 68112,44343 68105,44341 68097,44339 68089,44338 68082,44337 68074,44338 68066,44339 68058,44341 68051,44343 68044,44347 68037,44351 68031,44355 68025,44360 68020,44366 68015,44373 68011,44379 68008,44386 68005,44394 68003,44401 68002,44409 68002,44418 Z"/>
   </g>
  </g>
  <g class="com.sun.star.drawing.PolyPolygonShape">
   <g id="id31">
    <rect class="BoundingBox" stroke="none" fill="none" x="67864" y="44262" width="122" height="282"/>
    <path fill="rgb(0,0,0)" stroke="none" d="M 67888,44542 L 67935,44542 67935,44382 67958,44382 67958,44343 67935,44343 67935,44326 67935,44322 67937,44317 67939,44313 67942,44310 67945,44307 67949,44305 67953,44303 67958,44303 67984,44303 67984,44263 67951,44263 67945,44264 67939,44265 67933,44266 67927,44268 67922,44271 67916,44274 67911,44278 67906,44282 67902,44286 67898,44291 67895,44297 67893,44302 67891,44308 67889,44314 67888,44320 67888,44326 67888,44343 67865,44343 67865,44382 67888,44382 67888,44542 Z"/>
    <path fill="none" stroke="rgb(0,0,0)" d="M 67888,44542 L 67935,44542 67935,44382 67958,44382 67958,44343 67935,44343 67935,44326 67935,44322 67937,44317 67939,44313 67942,44310 67945,44307 67949,44305 67953,44303 67958,44303 67984,44303 67984,44263 67951,44263 67945,44264 67939,44265 67933,44266 67927,44268 67922,44271 67916,44274 67911,44278 67906,44282 67902,44286 67898,44291 67895,44297 67893,44302 67891,44308 67889,44314 67888,44320 67888,44326 67888,44343 67865,44343 67865,44382 67888,44382 67888,44542 Z"/>
   </g>
  </g>
  <g class="com.sun.star.drawing.PolyPolygonShape">
   <g id="id32">
    <rect class="BoundingBox" stroke="none" fill="none" x="67629" y="43920" width="168" height="208"/>
    <path fill="rgb(0,0,0)" stroke="none" d="M 67694,44086 L 67725,44086 67730,44085 67734,44084 67738,44082 67742,44079 67745,44076 67747,44072 67748,44067 67749,44063 67749,44033 67746,44037 67742,44041 67739,44044 67734,44047 67730,44048 67724,44050 67720,44051 67715,44051 67694,44051 67690,44052 67687,44052 67684,44054 67682,44056 67679,44059 67678,44062 67677,44065 67676,44068 67677,44072 67678,44075 67679,44078 67682,44081 67684,44083 67687,44084 67690,44086 67694,44086 Z M 67687,44126 L 67715,44126 67724,44125 67734,44122 67742,44117 67749,44112 67749,44126 67795,44126 67795,44001 67794,43994 67793,43986 67792,43979 67789,43972 67786,43966 67783,43958 67779,43952 67774,43946 67769,43941 67763,43937 67757,43932 67751,43929 67744,43926 67737,43923 67730,43922 67722,43921 67715,43921 67707,43921 67700,43922 67693,43924 67686,43926 67680,43929 67673,43933 67667,43937 67661,43941 67656,43947 67652,43952 67648,43958 67644,43966 67641,43973 67639,43979 67637,43987 67683,43987 67684,43982 67686,43978 67689,43974 67692,43971 67695,43968 67699,43965 67704,43963 67708,43961 67713,43960 67717,43960 67722,43961 67726,43963 67732,43965 67735,43968 67739,43971 67742,43974 67745,43980 67747,43986 67746,43992 67744,43999 67741,44004 67736,44008 67730,44011 67723,44012 67687,44012 67676,44013 67665,44016 67656,44021 67647,44028 67640,44037 67635,44047 67631,44057 67630,44068 67631,44080 67635,44090 67640,44100 67647,44109 67656,44116 67665,44121 67676,44125 67687,44126 Z"/>
    <path fill="none" stroke="rgb(0,0,0)" d="M 67694,44086 L 67725,44086 67730,44085 67734,44084 67738,44082 67742,44079 67745,44076 67747,44072 67748,44067 67749,44063 67749,44033 67746,44037 67742,44041 67739,44044 67734,44047 67730,44048 67724,44050 67720,44051 67715,44051 67694,44051 67690,44052 67687,44052 67684,44054 67682,44056 67679,44059 67678,44062 67677,44065 67676,44068 67677,44072 67678,44075 67679,44078 67682,44081 67684,44083 67687,44084 67690,44086 67694,44086 Z"/>
    <path fill="none" stroke="rgb(0,0,0)" d="M 67687,44126 L 67715,44126 67724,44125 67734,44122 67742,44117 67749,44112 67749,44126 67795,44126 67795,44001 67794,43994 67793,43986 67792,43979 67789,43972 67786,43966 67783,43958 67779,43952 67774,43946 67769,43941 67763,43937 67757,43932 67751,43929 67744,43926 67737,43923 67730,43922 67722,43921 67715,43921 67707,43921 67700,43922 67693,43924 67686,43926 67680,43929 67673,43933 67667,43937 67661,43941 67656,43947 67652,43952 67648,43958 67644,43966 67641,43973 67639,43979 67637,43987 67683,43987 67684,43982 67686,43978 67689,43974 67692,43971 67695,43968 67699,43965 67704,43963 67708,43961 67713,43960 67717,43960 67722,43961 67726,43963 67732,43965 67735,43968 67739,43971 67742,43974 67745,43980 67747,43986 67746,43992 67744,43999 67741,44004 67736,44008 67730,44011 67723,44012 67687,44012 67676,44013 67665,44016 67656,44021 67647,44028 67640,44037 67635,44047 67631,44057 67630,44068 67631,44080 67635,44090 67640,44100 67647,44109 67656,44116 67665,44121 67676,44125 67687,44126 Z"/>
   </g>
  </g>
  <g class="com.sun.star.drawing.PolyPolygonShape">
   <g id="id33">
    <rect class="BoundingBox" stroke="none" fill="none" x="68070" y="43854" width="43" height="43"/>
    <path fill="rgb(0,0,0)" stroke="none" d="M 68071,43895 L 68111,43895 68111,43855 68071,43855 68071,43895 Z"/>
    <path fill="none" stroke="rgb(0,0,0)" d="M 68071,43895 L 68111,43895 68111,43855 68071,43855 68071,43895 Z"/>
   </g>
  </g>
  <g class="com.sun.star.drawing.PolyPolygonShape">
   <g id="id34">
    <rect class="BoundingBox" stroke="none" fill="none" x="68066" y="43925" width="50" height="203"/>
    <path fill="rgb(0,0,0)" stroke="none" d="M 68067,44126 L 68114,44126 68114,43926 68067,43926 68067,44126 Z"/>
    <path fill="none" stroke="rgb(0,0,0)" d="M 68067,44126 L 68114,44126 68114,43926 68067,43926 68067,44126 Z"/>
   </g>
  </g>
  <g class="com.sun.star.drawing.PolyPolygonShape">
   <g id="id35">
    <rect class="BoundingBox" stroke="none" fill="none" x="67842" y="43846" width="162" height="287"/>
    <path fill="rgb(0,0,0)" stroke="none" d="M 67956,44058 L 67956,43993 67956,43987 67954,43981 67951,43975 67947,43970 67942,43966 67936,43963 67930,43961 67923,43960 67917,43961 67911,43963 67905,43966 67899,43970 67895,43975 67892,43981 67890,43987 67889,43993 67889,44058 67890,44065 67892,44071 67895,44077 67899,44082 67905,44086 67911,44089 67917,44091 67923,44091 67930,44091 67936,44089 67942,44086 67947,44082 67951,44077 67954,44071 67956,44065 67956,44058 Z M 67956,44126 L 68002,44126 68002,43847 67956,43847 67956,43941 67949,43934 67941,43929 67932,43925 67923,43922 67913,43921 67904,43921 67893,43922 67884,43925 67875,43930 67868,43935 67860,43942 67854,43949 67850,43958 67846,43967 67844,43976 67843,43986 67843,44066 67844,44076 67846,44085 67850,44094 67854,44102 67860,44110 67868,44117 67875,44122 67884,44126 67893,44129 67904,44131 67913,44131 67923,44130 67932,44127 67941,44123 67949,44117 67956,44111 67956,44126 Z"/>
    <path fill="none" stroke="rgb(0,0,0)" d="M 67956,44058 L 67956,43993 67956,43987 67954,43981 67951,43975 67947,43970 67942,43966 67936,43963 67930,43961 67923,43960 67917,43961 67911,43963 67905,43966 67899,43970 67895,43975 67892,43981 67890,43987 67889,43993 67889,44058 67890,44065 67892,44071 67895,44077 67899,44082 67905,44086 67911,44089 67917,44091 67923,44091 67930,44091 67936,44089 67942,44086 67947,44082 67951,44077 67954,44071 67956,44065 67956,44058 Z"/>
    <path fill="none" stroke="rgb(0,0,0)" d="M 67956,44126 L 68002,44126 68002,43847 67956,43847 67956,43941 67949,43934 67941,43929 67932,43925 67923,43922 67913,43921 67904,43921 67893,43922 67884,43925 67875,43930 67868,43935 67860,43942 67854,43949 67850,43958 67846,43967 67844,43976 67843,43986 67843,44066 67844,44076 67846,44085 67850,44094 67854,44102 67860,44110 67868,44117 67875,44122 67884,44126 67893,44129 67904,44131 67913,44131 67923,44130 67932,44127 67941,44123 67949,44117 67956,44111 67956,44126 Z"/>
   </g>
  </g>
  <g class="com.sun.star.drawing.PolyPolygonShape">
   <g id="id36">
    <rect class="BoundingBox" stroke="none" fill="none" x="67842" y="43846" width="162" height="287"/>
    <path fill="rgb(0,0,0)" stroke="none" d="M 67956,44058 L 67956,43993 67956,43987 67954,43981 67951,43975 67947,43970 67942,43966 67936,43963 67930,43961 67923,43960 67917,43961 67911,43963 67905,43966 67899,43970 67895,43975 67892,43981 67890,43987 67889,43993 67889,44058 67890,44065 67892,44071 67895,44077 67899,44082 67905,44086 67911,44089 67917,44091 67923,44091 67930,44091 67936,44089 67942,44086 67947,44082 67951,44077 67954,44071 67956,44065 67956,44058 Z M 67956,44126 L 68002,44126 68002,43847 67956,43847 67956,43941 67949,43934 67941,43929 67932,43925 67923,43922 67913,43921 67904,43921 67893,43922 67884,43925 67875,43930 67868,43935 67860,43942 67854,43949 67850,43958 67846,43967 67844,43976 67843,43986 67843,44066 67844,44076 67846,44085 67850,44094 67854,44102 67860,44110 67868,44117 67875,44122 67884,44126 67893,44129 67904,44131 67913,44131 67923,44130 67932,44127 67941,44123 67949,44117 67956,44111 67956,44126 Z"/>
    <path fill="none" stroke="rgb(0,0,0)" d="M 67956,44058 L 67956,43993 67956,43987 67954,43981 67951,43975 67947,43970 67942,43966 67936,43963 67930,43961 67923,43960 67917,43961 67911,43963 67905,43966 67899,43970 67895,43975 67892,43981 67890,43987 67889,43993 67889,44058 67890,44065 67892,44071 67895,44077 67899,44082 67905,44086 67911,44089 67917,44091 67923,44091 67930,44091 67936,44089 67942,44086 67947,44082 67951,44077 67954,44071 67956,44065 67956,44058 Z"/>
    <path fill="none" stroke="rgb(0,0,0)" d="M 67956,44126 L 68002,44126 68002,43847 67956,43847 67956,43941 67949,43934 67941,43929 67932,43925 67923,43922 67913,43921 67904,43921 67893,43922 67884,43925 67875,43930 67868,43935 67860,43942 67854,43949 67850,43958 67846,43967 67844,43976 67843,43986 67843,44066 67844,44076 67846,44085 67850,44094 67854,44102 67860,44110 67868,44117 67875,44122 67884,44126 67893,44129 67904,44131 67913,44131 67923,44130 67932,44127 67941,44123 67949,44117 67956,44111 67956,44126 Z"/>
   </g>
  </g>
 </g>
</svg>