<?xml version="1.0" encoding="UTF-8"?>
<!DOCTYPE svg PUBLIC "-//W3C//DTD SVG 1.1//EN" "http://www.w3.org/Graphics/SVG/1.1/DTD/svg11.dtd">
<svg version="1.2" width="16.74mm" height="25.04mm" viewBox="69220 43499 1674 2504" preserveAspectRatio="xMidYMid" fill-rule="evenodd" stroke-width="28.222" stroke-linejoin="round" xmlns="http://www.w3.org/2000/svg" xmlns:ooo="http://xml.openoffice.org/svg/export" xmlns:xlink="http://www.w3.org/1999/xlink" xmlns:presentation="http://sun.com/xmlns/staroffice/presentation" xmlns:smil="http://www.w3.org/2001/SMIL20/" xmlns:anim="urn:oasis:names:tc:opendocument:xmlns:animation:1.0" xml:space="preserve">
 <defs class="EmbeddedBulletChars">
  <g id="bullet-char-template-57356" transform="scale(0.00048828125,-0.00048828125)">
   <path d="M 580,1141 L 1163,571 580,0 -4,571 580,1141 Z"/>
  </g>
  <g id="bullet-char-template-57354" transform="scale(0.00048828125,-0.00048828125)">
   <path d="M 8,1128 L 1137,1128 1137,0 8,0 8,1128 Z"/>
  </g>
  <g id="bullet-char-template-10146" transform="scale(0.00048828125,-0.00048828125)">
   <path d="M 174,0 L 602,739 174,1481 1456,739 174,0 Z M 1358,739 L 309,1346 659,739 1358,739 Z"/>
  </g>
  <g id="bullet-char-template-10132" transform="scale(0.00048828125,-0.00048828125)">
   <path d="M 2015,739 L 1276,0 717,0 1260,543 174,543 174,936 1260,936 717,1481 1274,1481 2015,739 Z"/>
  </g>
  <g id="bullet-char-template-10007" transform="scale(0.00048828125,-0.00048828125)">
   <path d="M 0,-2 C -7,14 -16,27 -25,37 L 356,567 C 262,823 215,952 215,954 215,979 228,992 255,992 264,992 276,990 289,987 310,991 331,999 354,1012 L 381,999 492,748 772,1049 836,1024 860,1049 C 881,1039 901,1025 922,1006 886,937 835,863 770,784 769,783 710,716 594,584 L 774,223 C 774,196 753,168 711,139 L 727,119 C 717,90 699,76 672,76 641,76 570,178 457,381 L 164,-76 C 142,-110 111,-127 72,-127 30,-127 9,-110 8,-76 1,-67 -2,-52 -2,-32 -2,-23 -1,-13 0,-2 Z"/>
  </g>
  <g id="bullet-char-template-10004" transform="scale(0.00048828125,-0.00048828125)">
   <path d="M 285,-33 C 182,-33 111,30 74,156 52,228 41,333 41,471 41,549 55,616 82,672 116,743 169,778 240,778 293,778 328,747 346,684 L 369,508 C 377,444 397,411 428,410 L 1163,1116 C 1174,1127 1196,1133 1229,1133 1271,1133 1292,1118 1292,1087 L 1292,965 C 1292,929 1282,901 1262,881 L 442,47 C 390,-6 338,-33 285,-33 Z"/>
  </g>
  <g id="bullet-char-template-9679" transform="scale(0.00048828125,-0.00048828125)">
   <path d="M 813,0 C 632,0 489,54 383,161 276,268 223,411 223,592 223,773 276,916 383,1023 489,1130 632,1184 813,1184 992,1184 1136,1130 1245,1023 1353,916 1407,772 1407,592 1407,412 1353,268 1245,161 1136,54 992,0 813,0 Z"/>
  </g>
  <g id="bullet-char-template-8226" transform="scale(0.00048828125,-0.00048828125)">
   <path d="M 346,457 C 273,457 209,483 155,535 101,586 74,649 74,723 74,796 101,859 155,911 209,963 273,989 346,989 419,989 480,963 531,910 582,859 608,796 608,723 608,648 583,586 532,535 482,483 420,457 346,457 Z"/>
  </g>
  <g id="bullet-char-template-8211" transform="scale(0.00048828125,-0.00048828125)">
   <path d="M -4,459 L 1135,459 1135,606 -4,606 -4,459 Z"/>
  </g>
  <g id="bullet-char-template-61548" transform="scale(0.00048828125,-0.00048828125)">
   <path d="M 173,740 C 173,903 231,1043 346,1159 462,1274 601,1332 765,1332 928,1332 1067,1274 1183,1159 1299,1043 1357,903 1357,740 1357,577 1299,437 1183,322 1067,206 928,148 765,148 601,148 462,206 346,322 231,437 173,577 173,740 Z"/>
  </g>
 </defs>
 <g class="Page">
  <g class="com.sun.star.drawing.PolyPolygonShape">
   <g id="id3">
    <rect class="BoundingBox" stroke="none" fill="none" x="69220" y="43499" width="1674" height="2504"/>
    <path fill="rgb(0,0,255)" stroke="none" d="M 69409,46001 L 70703,46001 70721,46000 70740,45997 70757,45992 70775,45986 70791,45978 70807,45969 70822,45958 70836,45946 70848,45932 70859,45917 70868,45901 70876,45885 70883,45867 70887,45849 70890,45831 70892,45813 70892,43687 70890,43669 70887,43651 70883,43633 70876,43615 70868,43599 70859,43583 70848,43568 70836,43555 70822,43542 70807,43531 70791,43522 70775,43514 70757,43508 70740,43503 70721,43500 70703,43500 69409,43500 69391,43500 69373,43503 69355,43508 69338,43514 69321,43522 69305,43531 69290,43542 69277,43555 69264,43568 69253,43583 69244,43599 69236,43615 69230,43633 69225,43651 69223,43669 69221,43687 69221,45813 69223,45831 69225,45849 69230,45867 69236,45885 69244,45901 69253,45917 69264,45932 69277,45946 69290,45958 69305,45969 69321,45978 69338,45986 69355,45992 69373,45997 69391,46000 69409,46001 Z"/>
    <path fill="none" stroke="rgb(0,0,255)" d="M 69409,46001 L 70703,46001 70721,46000 70740,45997 70757,45992 70775,45986 70791,45978 70807,45969 70822,45958 70836,45946 70848,45932 70859,45917 70868,45901 70876,45885 70883,45867 70887,45849 70890,45831 70892,45813 70892,43687 70890,43669 70887,43651 70883,43633 70876,43615 70868,43599 70859,43583 70848,43568 70836,43555 70822,43542 70807,43531 70791,43522 70775,43514 70757,43508 70740,43503 70721,43500 70703,43500 69409,43500 69391,43500 69373,43503 69355,43508 69338,43514 69321,43522 69305,43531 69290,43542 69277,43555 69264,43568 69253,43583 69244,43599 69236,43615 69230,43633 69225,43651 69223,43669 69221,43687 69221,45813 69223,45831 69225,45849 69230,45867 69236,45885 69244,45901 69253,45917 69264,45932 69277,45946 69290,45958 69305,45969 69321,45978 69338,45986 69355,45992 69373,45997 69391,46000 69409,46001 Z"/>
   </g>
  </g>
  <g class="com.sun.star.drawing.PolyPolygonShape">
   <g id="id4">
    <rect class="BoundingBox" stroke="none" fill="none" x="69282" y="43561" width="1548" height="2379"/>
    <path fill="rgb(255,255,255)" stroke="none" d="M 69408,45938 L 70703,45938 70715,45937 70727,45936 70739,45933 70751,45928 70762,45923 70772,45917 70782,45910 70791,45901 70800,45892 70807,45883 70813,45872 70818,45861 70823,45849 70826,45837 70827,45825 70828,45813 70828,43687 70827,43675 70826,43663 70823,43651 70818,43639 70813,43628 70807,43618 70800,43608 70791,43599 70782,43590 70772,43583 70762,43577 70751,43572 70739,43568 70727,43565 70715,43563 70703,43562 69408,43562 69396,43563 69384,43565 69372,43568 69361,43572 69349,43577 69339,43583 69329,43590 69320,43599 69312,43608 69304,43618 69298,43628 69293,43639 69289,43651 69286,43663 69284,43675 69283,43687 69283,45813 69284,45825 69286,45837 69289,45849 69293,45861 69298,45872 69304,45883 69312,45892 69320,45901 69329,45910 69339,45917 69349,45923 69361,45928 69372,45933 69384,45936 69396,45937 69408,45938 Z"/>
    <path fill="none" stroke="rgb(255,255,255)" d="M 69408,45938 L 70703,45938 70715,45937 70727,45936 70739,45933 70751,45928 70762,45923 70772,45917 70782,45910 70791,45901 70800,45892 70807,45883 70813,45872 70818,45861 70823,45849 70826,45837 70827,45825 70828,45813 70828,43687 70827,43675 70826,43663 70823,43651 70818,43639 70813,43628 70807,43618 70800,43608 70791,43599 70782,43590 70772,43583 70762,43577 70751,43572 70739,43568 70727,43565 70715,43563 70703,43562 69408,43562 69396,43563 69384,43565 69372,43568 69361,43572 69349,43577 69339,43583 69329,43590 69320,43599 69312,43608 69304,43618 69298,43628 69293,43639 69289,43651 69286,43663 69284,43675 69283,43687 69283,45813 69284,45825 69286,45837 69289,45849 69293,45861 69298,45872 69304,45883 69312,45892 69320,45901 69329,45910 69339,45917 69349,45923 69361,45928 69372,45933 69384,45936 69396,45937 69408,45938 Z"/>
   </g>
  </g>
  <g class="com.sun.star.drawing.PolyPolygonShape">
   <g id="id5">
    <rect class="BoundingBox" stroke="none" fill="none" x="69345" y="43624" width="1422" height="2253"/>
    <path fill="rgb(0,0,255)" stroke="none" d="M 69408,45875 L 70703,45875 70715,45874 70727,45871 70738,45865 70747,45857 70755,45848 70761,45837 70764,45825 70765,45813 70765,43687 70764,43675 70761,43663 70755,43652 70747,43643 70738,43635 70727,43629 70715,43626 70703,43625 69408,43625 69396,43626 69384,43629 69374,43635 69364,43643 69356,43652 69351,43663 69347,43675 69346,43687 69346,45813 69347,45825 69351,45837 69356,45848 69364,45857 69374,45865 69384,45871 69396,45874 69408,45875 Z"/>
    <path fill="none" stroke="rgb(0,0,255)" d="M 69408,45875 L 70703,45875 70715,45874 70727,45871 70738,45865 70747,45857 70755,45848 70761,45837 70764,45825 70765,45813 70765,43687 70764,43675 70761,43663 70755,43652 70747,43643 70738,43635 70727,43629 70715,43626 70703,43625 69408,43625 69396,43626 69384,43629 69374,43635 69364,43643 69356,43652 69351,43663 69347,43675 69346,43687 69346,45813 69347,45825 69351,45837 69356,45848 69364,45857 69374,45865 69384,45871 69396,45874 69408,45875 Z"/>
   </g>
  </g>
  <g class="com.sun.star.drawing.PolyPolygonShape">
   <g id="id6">
    <rect class="BoundingBox" stroke="none" fill="none" x="69489" y="43778" width="1096" height="1993"/>
    <path fill="rgb(255,255,255)" stroke="none" d="M 70450,45768 L 70450,44590 70583,44590 70583,43779 70150,43779 70150,44590 70284,44590 70284,44945 69625,43929 69490,44017 69946,44720 69983,44780 70019,44840 70052,44901 70083,44964 70112,45027 70138,45091 70163,45156 70186,45222 70206,45289 70225,45356 70240,45424 70254,45492 70266,45561 70275,45630 70282,45699 70287,45769 70450,45768 Z"/>
    <path fill="none" stroke="rgb(255,255,255)" d="M 70450,45768 L 70450,44590 70583,44590 70583,43779 70150,43779 70150,44590 70284,44590 70284,44945 69625,43929 69490,44017 69946,44720 69983,44780 70019,44840 70052,44901 70083,44964 70112,45027 70138,45091 70163,45156 70186,45222 70206,45289 70225,45356 70240,45424 70254,45492 70266,45561 70275,45630 70282,45699 70287,45769 70450,45768 Z"/>
   </g>
  </g>
  <g class="com.sun.star.drawing.PolyPolygonShape">
   <g id="id7">
    <rect class="BoundingBox" stroke="none" fill="none" x="70505" y="43928" width="59" height="79"/>
    <path fill="rgb(0,0,0)" stroke="none" d="M 70557,44000 L 70562,43987 70562,43945 70556,43932 70543,43929 70535,43930 70528,43932 70522,43936 70516,43941 70512,43946 70508,43953 70506,43960 70506,43968 70507,43975 70509,43982 70513,43989 70518,43995 70524,43999 70530,44003 70537,44004 70546,44005 70557,44000 Z"/>
    <path fill="none" stroke="rgb(0,0,0)" d="M 70557,44000 L 70562,43987 70562,43945 70556,43932 70543,43929 70535,43930 70528,43932 70522,43936 70516,43941 70512,43946 70508,43953 70506,43960 70506,43968 70507,43975 70509,43982 70513,43989 70518,43995 70524,43999 70530,44003 70537,44004 70546,44005 70557,44000 Z"/>
   </g>
  </g>
  <g class="com.sun.star.drawing.PolyPolygonShape">
   <g id="id8">
    <rect class="BoundingBox" stroke="none" fill="none" x="70172" y="43934" width="59" height="79"/>
    <path fill="rgb(0,0,0)" stroke="none" d="M 70178,44007 L 70173,43994 70173,43951 70178,43939 70191,43935 70199,43936 70206,43939 70213,43942 70219,43947 70223,43953 70227,43959 70228,43967 70229,43974 70228,43981 70226,43989 70222,43996 70217,44001 70211,44006 70204,44009 70196,44011 70189,44011 70178,44007 Z"/>
    <path fill="none" stroke="rgb(0,0,0)" d="M 70178,44007 L 70173,43994 70173,43951 70178,43939 70191,43935 70199,43936 70206,43939 70213,43942 70219,43947 70223,43953 70227,43959 70228,43967 70229,43974 70228,43981 70226,43989 70222,43996 70217,44001 70211,44006 70204,44009 70196,44011 70189,44011 70178,44007 Z"/>
   </g>
  </g>
  <g class="com.sun.star.drawing.PolyPolygonShape">
   <g id="id9">
    <rect class="BoundingBox" stroke="none" fill="none" x="70334" y="43939" width="77" height="77"/>
    <path fill="rgb(0,0,0)" stroke="none" d="M 70372,43940 L 70365,43941 70358,43942 70352,43946 70346,43951 70342,43956 70338,43962 70335,43969 70335,43976 70335,43984 70338,43991 70342,43998 70346,44003 70352,44008 70358,44011 70365,44013 70372,44014 70379,44013 70386,44011 70392,44008 70398,44003 70403,43998 70406,43991 70408,43984 70409,43976 70408,43969 70406,43962 70403,43956 70398,43951 70393,43946 70386,43942 70379,43941 70372,43940 Z"/>
    <path fill="none" stroke="rgb(0,0,0)" d="M 70372,43940 L 70365,43941 70358,43942 70352,43946 70346,43951 70342,43956 70338,43962 70335,43969 70335,43976 70335,43984 70338,43991 70342,43998 70346,44003 70352,44008 70358,44011 70365,44013 70372,44014 70379,44013 70386,44011 70392,44008 70398,44003 70403,43998 70406,43991 70408,43984 70409,43976 70408,43969 70406,43962 70403,43956 70398,43951 70393,43946 70386,43942 70379,43941 70372,43940 Z"/>
   </g>
  </g>
  <g class="com.sun.star.drawing.PolyPolygonShape">
   <g id="id10">
    <rect class="BoundingBox" stroke="none" fill="none" x="70435" y="43832" width="77" height="77"/>
    <path fill="rgb(0,0,0)" stroke="none" d="M 70472,43833 L 70465,43834 70458,43836 70452,43840 70446,43845 70442,43850 70438,43857 70436,43864 70436,43871 70436,43878 70438,43885 70442,43891 70446,43897 70452,43901 70458,43904 70465,43906 70472,43907 70479,43906 70487,43904 70494,43901 70499,43897 70504,43891 70507,43885 70509,43878 70510,43871 70509,43864 70507,43857 70504,43850 70499,43845 70494,43840 70487,43836 70480,43834 70472,43833 Z"/>
    <path fill="none" stroke="rgb(0,0,0)" d="M 70472,43833 L 70465,43834 70458,43836 70452,43840 70446,43845 70442,43850 70438,43857 70436,43864 70436,43871 70436,43878 70438,43885 70442,43891 70446,43897 70452,43901 70458,43904 70465,43906 70472,43907 70479,43906 70487,43904 70494,43901 70499,43897 70504,43891 70507,43885 70509,43878 70510,43871 70509,43864 70507,43857 70504,43850 70499,43845 70494,43840 70487,43836 70480,43834 70472,43833 Z"/>
   </g>
  </g>
  <g class="com.sun.star.drawing.PolyPolygonShape">
   <g id="id11">
    <rect class="BoundingBox" stroke="none" fill="none" x="70233" y="43832" width="77" height="77"/>
    <path fill="rgb(0,0,0)" stroke="none" d="M 70271,43833 L 70264,43834 70256,43836 70250,43840 70244,43845 70240,43850 70236,43857 70234,43864 70234,43871 70234,43878 70236,43885 70240,43891 70244,43897 70250,43901 70256,43904 70264,43906 70271,43907 70278,43906 70285,43904 70292,43901 70297,43897 70302,43891 70305,43885 70307,43878 70308,43871 70307,43864 70305,43857 70302,43850 70297,43845 70292,43840 70285,43836 70279,43834 70271,43833 Z"/>
    <path fill="none" stroke="rgb(0,0,0)" d="M 70271,43833 L 70264,43834 70256,43836 70250,43840 70244,43845 70240,43850 70236,43857 70234,43864 70234,43871 70234,43878 70236,43885 70240,43891 70244,43897 70250,43901 70256,43904 70264,43906 70271,43907 70278,43906 70285,43904 70292,43901 70297,43897 70302,43891 70305,43885 70307,43878 70308,43871 70307,43864 70305,43857 70302,43850 70297,43845 70292,43840 70285,43836 70279,43834 70271,43833 Z"/>
   </g>
  </g>
  <g class="com.sun.star.drawing.PolyPolygonShape">
   <g id="id12">
    <rect class="BoundingBox" stroke="none" fill="none" x="70505" y="44174" width="59" height="79"/>
    <path fill="rgb(0,0,0)" stroke="none" d="M 70557,44247 L 70562,44234 70562,44191 70556,44179 70543,44175 70535,44176 70528,44178 70522,44182 70516,44187 70512,44193 70508,44199 70506,44206 70506,44215 70507,44222 70509,44229 70513,44236 70518,44241 70524,44246 70530,44249 70537,44251 70546,44251 70557,44247 Z"/>
    <path fill="none" stroke="rgb(0,0,0)" d="M 70557,44247 L 70562,44234 70562,44191 70556,44179 70543,44175 70535,44176 70528,44178 70522,44182 70516,44187 70512,44193 70508,44199 70506,44206 70506,44215 70507,44222 70509,44229 70513,44236 70518,44241 70524,44246 70530,44249 70537,44251 70546,44251 70557,44247 Z"/>
   </g>
  </g>
  <g class="com.sun.star.drawing.PolyPolygonShape">
   <g id="id13">
    <rect class="BoundingBox" stroke="none" fill="none" x="70167" y="44174" width="60" height="79"/>
    <path fill="rgb(0,0,0)" stroke="none" d="M 70174,44247 L 70168,44234 70168,44191 70174,44179 70187,44175 70195,44176 70202,44178 70209,44182 70215,44187 70219,44193 70222,44199 70224,44206 70225,44215 70224,44222 70221,44229 70218,44236 70213,44241 70206,44246 70199,44249 70192,44251 70185,44251 70174,44247 Z"/>
    <path fill="none" stroke="rgb(0,0,0)" d="M 70174,44247 L 70168,44234 70168,44191 70174,44179 70187,44175 70195,44176 70202,44178 70209,44182 70215,44187 70219,44193 70222,44199 70224,44206 70225,44215 70224,44222 70221,44229 70218,44236 70213,44241 70206,44246 70199,44249 70192,44251 70185,44251 70174,44247 Z"/>
   </g>
  </g>
  <g class="com.sun.star.drawing.PolyPolygonShape">
   <g id="id14">
    <rect class="BoundingBox" stroke="none" fill="none" x="70334" y="44185" width="77" height="77"/>
    <path fill="rgb(0,0,0)" stroke="none" d="M 70372,44186 L 70365,44187 70358,44189 70352,44192 70346,44197 70342,44203 70338,44210 70335,44217 70335,44224 70335,44231 70338,44238 70342,44244 70346,44249 70352,44254 70358,44257 70365,44259 70372,44260 70379,44259 70386,44257 70392,44254 70398,44249 70403,44244 70406,44238 70408,44231 70409,44224 70408,44217 70406,44210 70403,44203 70398,44197 70393,44192 70386,44189 70379,44187 70372,44186 Z"/>
    <path fill="none" stroke="rgb(0,0,0)" d="M 70372,44186 L 70365,44187 70358,44189 70352,44192 70346,44197 70342,44203 70338,44210 70335,44217 70335,44224 70335,44231 70338,44238 70342,44244 70346,44249 70352,44254 70358,44257 70365,44259 70372,44260 70379,44259 70386,44257 70392,44254 70398,44249 70403,44244 70406,44238 70408,44231 70409,44224 70408,44217 70406,44210 70403,44203 70398,44197 70393,44192 70386,44189 70379,44187 70372,44186 Z"/>
   </g>
  </g>
  <g class="com.sun.star.drawing.PolyPolygonShape">
   <g id="id15">
    <rect class="BoundingBox" stroke="none" fill="none" x="70435" y="44078" width="77" height="77"/>
    <path fill="rgb(0,0,0)" stroke="none" d="M 70472,44079 L 70465,44080 70458,44082 70452,44086 70446,44090 70442,44096 70438,44102 70436,44109 70436,44116 70436,44123 70438,44131 70442,44137 70446,44143 70452,44147 70458,44151 70465,44153 70472,44153 70479,44153 70487,44151 70494,44147 70499,44143 70504,44137 70507,44131 70509,44123 70510,44116 70509,44109 70507,44102 70504,44096 70499,44090 70494,44086 70487,44082 70480,44080 70472,44079 Z"/>
    <path fill="none" stroke="rgb(0,0,0)" d="M 70472,44079 L 70465,44080 70458,44082 70452,44086 70446,44090 70442,44096 70438,44102 70436,44109 70436,44116 70436,44123 70438,44131 70442,44137 70446,44143 70452,44147 70458,44151 70465,44153 70472,44153 70479,44153 70487,44151 70494,44147 70499,44143 70504,44137 70507,44131 70509,44123 70510,44116 70509,44109 70507,44102 70504,44096 70499,44090 70494,44086 70487,44082 70480,44080 70472,44079 Z"/>
   </g>
  </g>
  <g class="com.sun.star.drawing.PolyPolygonShape">
   <g id="id16">
    <rect class="BoundingBox" stroke="none" fill="none" x="70233" y="44078" width="77" height="77"/>
    <path fill="rgb(0,0,0)" stroke="none" d="M 70271,44079 L 70264,44080 70256,44082 70250,44086 70244,44090 70240,44096 70236,44102 70234,44109 70234,44116 70234,44123 70236,44131 70240,44137 70244,44143 70250,44147 70256,44151 70264,44153 70271,44153 70278,44153 70285,44151 70292,44147 70297,44143 70302,44137 70305,44131 70307,44123 70308,44116 70307,44109 70305,44102 70302,44096 70297,44090 70292,44086 70285,44082 70279,44080 70271,44079 Z"/>
    <path fill="none" stroke="rgb(0,0,0)" d="M 70271,44079 L 70264,44080 70256,44082 70250,44086 70244,44090 70240,44096 70236,44102 70234,44109 70234,44116 70234,44123 70236,44131 70240,44137 70244,44143 70250,44147 70256,44151 70264,44153 70271,44153 70278,44153 70285,44151 70292,44147 70297,44143 70302,44137 70305,44131 70307,44123 70308,44116 70307,44109 70305,44102 70302,44096 70297,44090 70292,44086 70285,44082 70279,44080 70271,44079 Z"/>
   </g>
  </g>
  <g class="com.sun.star.drawing.PolyPolygonShape">
   <g id="id17">
    <rect class="BoundingBox" stroke="none" fill="none" x="70505" y="44435" width="59" height="79"/>
    <path fill="rgb(0,0,0)" stroke="none" d="M 70557,44507 L 70562,44495 70562,44453 70556,44440 70543,44436 70535,44437 70528,44440 70522,44444 70516,44449 70512,44454 70508,44461 70506,44468 70506,44476 70507,44483 70509,44490 70513,44496 70518,44502 70524,44506 70530,44510 70537,44511 70546,44512 70557,44507 Z"/>
    <path fill="none" stroke="rgb(0,0,0)" d="M 70557,44507 L 70562,44495 70562,44453 70556,44440 70543,44436 70535,44437 70528,44440 70522,44444 70516,44449 70512,44454 70508,44461 70506,44468 70506,44476 70507,44483 70509,44490 70513,44496 70518,44502 70524,44506 70530,44510 70537,44511 70546,44512 70557,44507 Z"/>
   </g>
  </g>
  <g class="com.sun.star.drawing.PolyPolygonShape">
   <g id="id18">
    <rect class="BoundingBox" stroke="none" fill="none" x="70167" y="44435" width="60" height="79"/>
    <path fill="rgb(0,0,0)" stroke="none" d="M 70174,44507 L 70168,44495 70168,44453 70174,44440 70187,44436 70195,44437 70202,44440 70209,44444 70214,44449 70219,44454 70222,44461 70224,44468 70225,44476 70224,44483 70221,44490 70218,44496 70213,44502 70206,44506 70199,44510 70192,44511 70185,44512 70174,44507 Z"/>
    <path fill="none" stroke="rgb(0,0,0)" d="M 70174,44507 L 70168,44495 70168,44453 70174,44440 70187,44436 70195,44437 70202,44440 70209,44444 70214,44449 70219,44454 70222,44461 70224,44468 70225,44476 70224,44483 70221,44490 70218,44496 70213,44502 70206,44506 70199,44510 70192,44511 70185,44512 70174,44507 Z"/>
   </g>
  </g>
  <g class="com.sun.star.drawing.PolyPolygonShape">
   <g id="id19">
    <rect class="BoundingBox" stroke="none" fill="none" x="70334" y="44446" width="77" height="77"/>
    <path fill="rgb(0,0,0)" stroke="none" d="M 70372,44447 L 70365,44447 70358,44450 70352,44453 70346,44458 70342,44463 70338,44469 70335,44476 70335,44483 70335,44490 70338,44498 70342,44505 70346,44510 70352,44515 70358,44518 70365,44520 70372,44521 70379,44520 70386,44518 70392,44515 70398,44510 70403,44505 70406,44498 70408,44490 70409,44483 70408,44476 70406,44469 70403,44463 70398,44458 70393,44453 70386,44450 70379,44447 70372,44447 Z"/>
    <path fill="none" stroke="rgb(0,0,0)" d="M 70372,44447 L 70365,44447 70358,44450 70352,44453 70346,44458 70342,44463 70338,44469 70335,44476 70335,44483 70335,44490 70338,44498 70342,44505 70346,44510 70352,44515 70358,44518 70365,44520 70372,44521 70379,44520 70386,44518 70392,44515 70398,44510 70403,44505 70406,44498 70408,44490 70409,44483 70408,44476 70406,44469 70403,44463 70398,44458 70393,44453 70386,44450 70379,44447 70372,44447 Z"/>
   </g>
  </g>
  <g class="com.sun.star.drawing.PolyPolygonShape">
   <g id="id20">
    <rect class="BoundingBox" stroke="none" fill="none" x="70435" y="44339" width="77" height="77"/>
    <path fill="rgb(0,0,0)" stroke="none" d="M 70472,44340 L 70465,44341 70458,44343 70452,44346 70446,44352 70442,44357 70438,44364 70436,44370 70436,44378 70436,44385 70438,44392 70442,44398 70446,44404 70452,44408 70458,44411 70465,44413 70472,44414 70479,44413 70487,44411 70494,44408 70499,44404 70504,44398 70507,44392 70509,44385 70510,44378 70509,44370 70507,44364 70504,44357 70499,44352 70494,44346 70487,44343 70480,44341 70472,44340 Z"/>
    <path fill="none" stroke="rgb(0,0,0)" d="M 70472,44340 L 70465,44341 70458,44343 70452,44346 70446,44352 70442,44357 70438,44364 70436,44370 70436,44378 70436,44385 70438,44392 70442,44398 70446,44404 70452,44408 70458,44411 70465,44413 70472,44414 70479,44413 70487,44411 70494,44408 70499,44404 70504,44398 70507,44392 70509,44385 70510,44378 70509,44370 70507,44364 70504,44357 70499,44352 70494,44346 70487,44343 70480,44341 70472,44340 Z"/>
   </g>
  </g>
  <g class="com.sun.star.drawing.PolyPolygonShape">
   <g id="id21">
    <rect class="BoundingBox" stroke="none" fill="none" x="70233" y="44339" width="77" height="77"/>
    <path fill="rgb(0,0,0)" stroke="none" d="M 70271,44340 L 70264,44341 70256,44343 70250,44346 70244,44352 70240,44357 70236,44364 70234,44370 70234,44378 70234,44385 70236,44392 70240,44398 70244,44404 70250,44408 70256,44411 70264,44413 70271,44414 70278,44413 70285,44411 70292,44408 70297,44404 70302,44398 70305,44392 70307,44385 70308,44378 70307,44370 70305,44364 70302,44357 70297,44352 70292,44346 70285,44343 70279,44341 70271,44340 Z"/>
    <path fill="none" stroke="rgb(0,0,0)" d="M 70271,44340 L 70264,44341 70256,44343 70250,44346 70244,44352 70240,44357 70236,44364 70234,44370 70234,44378 70234,44385 70236,44392 70240,44398 70244,44404 70250,44408 70256,44411 70264,44413 70271,44414 70278,44413 70285,44411 70292,44408 70297,44404 70302,44398 70305,44392 70307,44385 70308,44378 70307,44370 70305,44364 70302,44357 70297,44352 70292,44346 70285,44343 70279,44341 70271,44340 Z"/>
   </g>
  </g>
  <g class="com.sun.star.drawing.PolyPolygonShape">
   <g id="id22">
    <rect class="BoundingBox" stroke="none" fill="none" x="70233" y="44339" width="77" height="77"/>
    <path fill="rgb(0,0,0)" stroke="none" d="M 70271,44340 L 70264,44341 70256,44343 70250,44346 70244,44352 70240,44357 70236,44364 70234,44370 70234,44378 70234,44385 70236,44392 70240,44398 70244,44404 70250,44408 70256,44411 70264,44413 70271,44414 70278,44413 70285,44411 70292,44408 70297,44404 70302,44398 70305,44392 70307,44385 70308,44378 70307,44370 70305,44364 70302,44357 70297,44352 70292,44346 70285,44343 70279,44341 70271,44340 Z"/>
    <path fill="none" stroke="rgb(0,0,0)" d="M 70271,44340 L 70264,44341 70256,44343 70250,44346 70244,44352 70240,44357 70236,44364 70234,44370 70234,44378 70234,44385 70236,44392 70240,44398 70244,44404 70250,44408 70256,44411 70264,44413 70271,44414 70278,44413 70285,44411 70292,44408 70297,44404 70302,44398 70305,44392 70307,44385 70308,44378 70307,44370 70305,44364 70302,44357 70297,44352 70292,44346 70285,44343 70279,44341 70271,44340 Z"/>
   </g>
  </g>
 </g>
</svg>