<?xml version="1.0" encoding="UTF-8"?>
<!DOCTYPE svg PUBLIC "-//W3C//DTD SVG 1.1//EN" "http://www.w3.org/Graphics/SVG/1.1/DTD/svg11.dtd">
<svg version="1.2" width="16.61mm" height="25.03mm" viewBox="71426 43499 1661 2503" preserveAspectRatio="xMidYMid" fill-rule="evenodd" stroke-width="28.222" stroke-linejoin="round" xmlns="http://www.w3.org/2000/svg" xmlns:ooo="http://xml.openoffice.org/svg/export" xmlns:xlink="http://www.w3.org/1999/xlink" xmlns:presentation="http://sun.com/xmlns/staroffice/presentation" xmlns:smil="http://www.w3.org/2001/SMIL20/" xmlns:anim="urn:oasis:names:tc:opendocument:xmlns:animation:1.0" xml:space="preserve">
 <defs class="EmbeddedBulletChars">
  <g id="bullet-char-template-57356" transform="scale(0.00048828125,-0.00048828125)">
   <path d="M 580,1141 L 1163,571 580,0 -4,571 580,1141 Z"/>
  </g>
  <g id="bullet-char-template-57354" transform="scale(0.00048828125,-0.00048828125)">
   <path d="M 8,1128 L 1137,1128 1137,0 8,0 8,1128 Z"/>
  </g>
  <g id="bullet-char-template-10146" transform="scale(0.00048828125,-0.00048828125)">
   <path d="M 174,0 L 602,739 174,1481 1456,739 174,0 Z M 1358,739 L 309,1346 659,739 1358,739 Z"/>
  </g>
  <g id="bullet-char-template-10132" transform="scale(0.00048828125,-0.00048828125)">
   <path d="M 2015,739 L 1276,0 717,0 1260,543 174,543 174,936 1260,936 717,1481 1274,1481 2015,739 Z"/>
  </g>
  <g id="bullet-char-template-10007" transform="scale(0.00048828125,-0.00048828125)">
   <path d="M 0,-2 C -7,14 -16,27 -25,37 L 356,567 C 262,823 215,952 215,954 215,979 228,992 255,992 264,992 276,990 289,987 310,991 331,999 354,1012 L 381,999 492,748 772,1049 836,1024 860,1049 C 881,1039 901,1025 922,1006 886,937 835,863 770,784 769,783 710,716 594,584 L 774,223 C 774,196 753,168 711,139 L 727,119 C 717,90 699,76 672,76 641,76 570,178 457,381 L 164,-76 C 142,-110 111,-127 72,-127 30,-127 9,-110 8,-76 1,-67 -2,-52 -2,-32 -2,-23 -1,-13 0,-2 Z"/>
  </g>
  <g id="bullet-char-template-10004" transform="scale(0.00048828125,-0.00048828125)">
   <path d="M 285,-33 C 182,-33 111,30 74,156 52,228 41,333 41,471 41,549 55,616 82,672 116,743 169,778 240,778 293,778 328,747 346,684 L 369,508 C 377,444 397,411 428,410 L 1163,1116 C 1174,1127 1196,1133 1229,1133 1271,1133 1292,1118 1292,1087 L 1292,965 C 1292,929 1282,901 1262,881 L 442,47 C 390,-6 338,-33 285,-33 Z"/>
  </g>
  <g id="bullet-char-template-9679" transform="scale(0.00048828125,-0.00048828125)">
   <path d="M 813,0 C 632,0 489,54 383,161 276,268 223,411 223,592 223,773 276,916 383,1023 489,1130 632,1184 813,1184 992,1184 1136,1130 1245,1023 1353,916 1407,772 1407,592 1407,412 1353,268 1245,161 1136,54 992,0 813,0 Z"/>
  </g>
  <g id="bullet-char-template-8226" transform="scale(0.00048828125,-0.00048828125)">
   <path d="M 346,457 C 273,457 209,483 155,535 101,586 74,649 74,723 74,796 101,859 155,911 209,963 273,989 346,989 419,989 480,963 531,910 582,859 608,796 608,723 608,648 583,586 532,535 482,483 420,457 346,457 Z"/>
  </g>
  <g id="bullet-char-template-8211" transform="scale(0.00048828125,-0.00048828125)">
   <path d="M -4,459 L 1135,459 1135,606 -4,606 -4,459 Z"/>
  </g>
  <g id="bullet-char-template-61548" transform="scale(0.00048828125,-0.00048828125)">
   <path d="M 173,740 C 173,903 231,1043 346,1159 462,1274 601,1332 765,1332 928,1332 1067,1274 1183,1159 1299,1043 1357,903 1357,740 1357,577 1299,437 1183,322 1067,206 928,148 765,148 601,148 462,206 346,322 231,437 173,577 173,740 Z"/>
  </g>
 </defs>
 <g class="Page">
  <g class="com.sun.star.drawing.PolyPolygonShape">
   <g id="id3">
    <rect class="BoundingBox" stroke="none" fill="none" x="71426" y="43499" width="1661" height="2503"/>
    <path fill="rgb(0,0,255)" stroke="none" d="M 71606,46000 L 72905,46000 72923,46000 72940,45997 72957,45993 72974,45987 72990,45979 73005,45970 73019,45960 73032,45948 73044,45934 73054,45920 73063,45905 73071,45889 73077,45872 73081,45855 73084,45838 73085,45820 73085,43680 73084,43663 73081,43645 73077,43628 73071,43611 73063,43595 73054,43580 73044,43566 73032,43553 73019,43541 73005,43530 72990,43521 72974,43513 72957,43508 72940,43503 72923,43501 72905,43500 71606,43500 71589,43501 71571,43503 71554,43508 71538,43513 71522,43521 71507,43530 71492,43541 71479,43553 71467,43566 71457,43580 71448,43595 71440,43611 71435,43628 71430,43645 71428,43663 71427,43680 71427,45820 71428,45838 71430,45855 71435,45872 71440,45889 71448,45905 71457,45920 71467,45934 71479,45948 71492,45960 71507,45970 71522,45979 71538,45987 71554,45993 71571,45997 71589,46000 71606,46000 Z"/>
    <path fill="none" stroke="rgb(0,0,255)" d="M 71606,46000 L 72905,46000 72923,46000 72940,45997 72957,45993 72974,45987 72990,45979 73005,45970 73019,45960 73032,45948 73044,45934 73054,45920 73063,45905 73071,45889 73077,45872 73081,45855 73084,45838 73085,45820 73085,43680 73084,43663 73081,43645 73077,43628 73071,43611 73063,43595 73054,43580 73044,43566 73032,43553 73019,43541 73005,43530 72990,43521 72974,43513 72957,43508 72940,43503 72923,43501 72905,43500 71606,43500 71589,43501 71571,43503 71554,43508 71538,43513 71522,43521 71507,43530 71492,43541 71479,43553 71467,43566 71457,43580 71448,43595 71440,43611 71435,43628 71430,43645 71428,43663 71427,43680 71427,45820 71428,45838 71430,45855 71435,45872 71440,45889 71448,45905 71457,45920 71467,45934 71479,45948 71492,45960 71507,45970 71522,45979 71538,45987 71554,45993 71571,45997 71589,46000 71606,46000 Z"/>
   </g>
  </g>
  <g class="com.sun.star.drawing.PolyPolygonShape">
   <g id="id4">
    <rect class="BoundingBox" stroke="none" fill="none" x="71467" y="43540" width="1578" height="2421"/>
    <path fill="rgb(255,255,255)" stroke="none" d="M 71607,45959 L 72905,45959 72919,45958 72932,45956 72945,45953 72958,45948 72970,45942 72982,45935 72993,45927 73003,45918 73012,45908 73020,45897 73027,45885 73033,45873 73037,45860 73040,45847 73042,45834 73043,45820 73043,43680 73042,43667 73040,43653 73037,43640 73033,43627 73027,43615 73020,43603 73012,43592 73003,43582 72993,43573 72982,43565 72970,43558 72958,43552 72945,43547 72932,43544 72919,43542 72905,43541 71607,43541 71594,43542 71580,43544 71566,43547 71554,43552 71541,43558 71530,43565 71519,43573 71509,43582 71500,43592 71491,43603 71485,43615 71479,43627 71474,43640 71471,43653 71469,43667 71468,43680 71468,45820 71469,45834 71471,45847 71474,45860 71479,45873 71485,45885 71491,45897 71500,45908 71509,45918 71519,45927 71530,45935 71541,45942 71554,45948 71566,45953 71580,45956 71594,45958 71607,45959 Z"/>
    <path fill="none" stroke="rgb(255,255,255)" d="M 71607,45959 L 72905,45959 72919,45958 72932,45956 72945,45953 72958,45948 72970,45942 72982,45935 72993,45927 73003,45918 73012,45908 73020,45897 73027,45885 73033,45873 73037,45860 73040,45847 73042,45834 73043,45820 73043,43680 73042,43667 73040,43653 73037,43640 73033,43627 73027,43615 73020,43603 73012,43592 73003,43582 72993,43573 72982,43565 72970,43558 72958,43552 72945,43547 72932,43544 72919,43542 72905,43541 71607,43541 71594,43542 71580,43544 71566,43547 71554,43552 71541,43558 71530,43565 71519,43573 71509,43582 71500,43592 71491,43603 71485,43615 71479,43627 71474,43640 71471,43653 71469,43667 71468,43680 71468,45820 71469,45834 71471,45847 71474,45860 71479,45873 71485,45885 71491,45897 71500,45908 71509,45918 71519,45927 71530,45935 71541,45942 71554,45948 71566,45953 71580,45956 71594,45958 71607,45959 Z"/>
   </g>
  </g>
  <g class="com.sun.star.drawing.PolyPolygonShape">
   <g id="id5">
    <rect class="BoundingBox" stroke="none" fill="none" x="71509" y="43582" width="1495" height="2337"/>
    <path fill="rgb(0,0,255)" stroke="none" d="M 71606,45917 L 72905,45917 72914,45917 72924,45915 72933,45913 72942,45910 72951,45906 72959,45901 72966,45895 72973,45889 72980,45882 72985,45874 72990,45866 72994,45857 72997,45848 73000,45839 73001,45830 73002,45820 73002,43680 73001,43671 73000,43661 72997,43652 72994,43643 72990,43634 72985,43626 72980,43619 72973,43612 72966,43605 72959,43599 72951,43594 72942,43590 72933,43587 72924,43585 72914,43584 72905,43583 71606,43583 71597,43584 71587,43585 71578,43587 71569,43590 71561,43594 71553,43599 71545,43605 71538,43612 71532,43619 71526,43626 71521,43634 71517,43643 71514,43652 71511,43661 71510,43671 71510,43680 71510,45820 71510,45830 71511,45839 71514,45848 71517,45857 71521,45866 71526,45874 71532,45882 71538,45889 71545,45895 71553,45901 71561,45906 71569,45910 71578,45913 71587,45915 71597,45917 71606,45917 Z"/>
    <path fill="none" stroke="rgb(0,0,255)" d="M 71606,45917 L 72905,45917 72914,45917 72924,45915 72933,45913 72942,45910 72951,45906 72959,45901 72966,45895 72973,45889 72980,45882 72985,45874 72990,45866 72994,45857 72997,45848 73000,45839 73001,45830 73002,45820 73002,43680 73001,43671 73000,43661 72997,43652 72994,43643 72990,43634 72985,43626 72980,43619 72973,43612 72966,43605 72959,43599 72951,43594 72942,43590 72933,43587 72924,43585 72914,43584 72905,43583 71606,43583 71597,43584 71587,43585 71578,43587 71569,43590 71561,43594 71553,43599 71545,43605 71538,43612 71532,43619 71526,43626 71521,43634 71517,43643 71514,43652 71511,43661 71510,43671 71510,43680 71510,45820 71510,45830 71511,45839 71514,45848 71517,45857 71521,45866 71526,45874 71532,45882 71538,45889 71545,45895 71553,45901 71561,45906 71569,45910 71578,45913 71587,45915 71597,45917 71606,45917 Z"/>
   </g>
  </g>
  <g class="com.sun.star.drawing.PolyPolygonShape">
   <g id="id6">
    <rect class="BoundingBox" stroke="none" fill="none" x="71592" y="43665" width="1329" height="2171"/>
    <path fill="rgb(255,255,255)" stroke="none" d="M 72698,44166 L 72698,45834 72477,45834 72477,44945 71813,45334 71813,45834 71593,45834 71593,45206 72477,44688 72477,44166 72256,44166 72588,43666 72919,44166 72698,44166 Z"/>
    <path fill="none" stroke="rgb(255,255,255)" d="M 72698,44166 L 72698,45834 72477,45834 72477,44945 71813,45334 71813,45834 71593,45834 71593,45206 72477,44688 72477,44166 72256,44166 72588,43666 72919,44166 72698,44166 Z"/>
   </g>
  </g>
  <g class="com.sun.star.drawing.PolyPolygonShape">
   <g id="id7">
    <rect class="BoundingBox" stroke="none" fill="none" x="71592" y="43665" width="1329" height="2171"/>
    <path fill="rgb(255,255,255)" stroke="none" d="M 72698,44166 L 72698,45834 72477,45834 72477,44945 71813,45334 71813,45834 71593,45834 71593,45206 72477,44688 72477,44166 72256,44166 72588,43666 72919,44166 72698,44166 Z"/>
    <path fill="none" stroke="rgb(255,255,255)" d="M 72698,44166 L 72698,45834 72477,45834 72477,44945 71813,45334 71813,45834 71593,45834 71593,45206 72477,44688 72477,44166 72256,44166 72588,43666 72919,44166 72698,44166 Z"/>
   </g>
  </g>
 </g>
</svg>