<?xml version="1.0" encoding="UTF-8"?>
<!DOCTYPE svg PUBLIC "-//W3C//DTD SVG 1.1//EN" "http://www.w3.org/Graphics/SVG/1.1/DTD/svg11.dtd">
<svg version="1.2" width="16.65mm" height="25.04mm" viewBox="76624 43499 1665 2504" preserveAspectRatio="xMidYMid" fill-rule="evenodd" stroke-width="28.222" stroke-linejoin="round" xmlns="http://www.w3.org/2000/svg" xmlns:ooo="http://xml.openoffice.org/svg/export" xmlns:xlink="http://www.w3.org/1999/xlink" xmlns:presentation="http://sun.com/xmlns/staroffice/presentation" xmlns:smil="http://www.w3.org/2001/SMIL20/" xmlns:anim="urn:oasis:names:tc:opendocument:xmlns:animation:1.0" xml:space="preserve">
 <defs class="EmbeddedBulletChars">
  <g id="bullet-char-template-57356" transform="scale(0.00048828125,-0.00048828125)">
   <path d="M 580,1141 L 1163,571 580,0 -4,571 580,1141 Z"/>
  </g>
  <g id="bullet-char-template-57354" transform="scale(0.00048828125,-0.00048828125)">
   <path d="M 8,1128 L 1137,1128 1137,0 8,0 8,1128 Z"/>
  </g>
  <g id="bullet-char-template-10146" transform="scale(0.00048828125,-0.00048828125)">
   <path d="M 174,0 L 602,739 174,1481 1456,739 174,0 Z M 1358,739 L 309,1346 659,739 1358,739 Z"/>
  </g>
  <g id="bullet-char-template-10132" transform="scale(0.00048828125,-0.00048828125)">
   <path d="M 2015,739 L 1276,0 717,0 1260,543 174,543 174,936 1260,936 717,1481 1274,1481 2015,739 Z"/>
  </g>
  <g id="bullet-char-template-10007" transform="scale(0.00048828125,-0.00048828125)">
   <path d="M 0,-2 C -7,14 -16,27 -25,37 L 356,567 C 262,823 215,952 215,954 215,979 228,992 255,992 264,992 276,990 289,987 310,991 331,999 354,1012 L 381,999 492,748 772,1049 836,1024 860,1049 C 881,1039 901,1025 922,1006 886,937 835,863 770,784 769,783 710,716 594,584 L 774,223 C 774,196 753,168 711,139 L 727,119 C 717,90 699,76 672,76 641,76 570,178 457,381 L 164,-76 C 142,-110 111,-127 72,-127 30,-127 9,-110 8,-76 1,-67 -2,-52 -2,-32 -2,-23 -1,-13 0,-2 Z"/>
  </g>
  <g id="bullet-char-template-10004" transform="scale(0.00048828125,-0.00048828125)">
   <path d="M 285,-33 C 182,-33 111,30 74,156 52,228 41,333 41,471 41,549 55,616 82,672 116,743 169,778 240,778 293,778 328,747 346,684 L 369,508 C 377,444 397,411 428,410 L 1163,1116 C 1174,1127 1196,1133 1229,1133 1271,1133 1292,1118 1292,1087 L 1292,965 C 1292,929 1282,901 1262,881 L 442,47 C 390,-6 338,-33 285,-33 Z"/>
  </g>
  <g id="bullet-char-template-9679" transform="scale(0.00048828125,-0.00048828125)">
   <path d="M 813,0 C 632,0 489,54 383,161 276,268 223,411 223,592 223,773 276,916 383,1023 489,1130 632,1184 813,1184 992,1184 1136,1130 1245,1023 1353,916 1407,772 1407,592 1407,412 1353,268 1245,161 1136,54 992,0 813,0 Z"/>
  </g>
  <g id="bullet-char-template-8226" transform="scale(0.00048828125,-0.00048828125)">
   <path d="M 346,457 C 273,457 209,483 155,535 101,586 74,649 74,723 74,796 101,859 155,911 209,963 273,989 346,989 419,989 480,963 531,910 582,859 608,796 608,723 608,648 583,586 532,535 482,483 420,457 346,457 Z"/>
  </g>
  <g id="bullet-char-template-8211" transform="scale(0.00048828125,-0.00048828125)">
   <path d="M -4,459 L 1135,459 1135,606 -4,606 -4,459 Z"/>
  </g>
  <g id="bullet-char-template-61548" transform="scale(0.00048828125,-0.00048828125)">
   <path d="M 173,740 C 173,903 231,1043 346,1159 462,1274 601,1332 765,1332 928,1332 1067,1274 1183,1159 1299,1043 1357,903 1357,740 1357,577 1299,437 1183,322 1067,206 928,148 765,148 601,148 462,206 346,322 231,437 173,577 173,740 Z"/>
  </g>
 </defs>
 <g class="Page">
  <g class="com.sun.star.drawing.PolyPolygonShape">
   <g id="id3">
    <rect class="BoundingBox" stroke="none" fill="none" x="76624" y="43499" width="1665" height="2504"/>
    <path fill="rgb(0,0,255)" stroke="none" d="M 76805,46001 L 78107,46001 78124,46000 78142,45997 78159,45993 78175,45987 78191,45979 78207,45970 78221,45960 78234,45948 78246,45935 78256,45920 78265,45905 78273,45889 78279,45872 78283,45855 78286,45838 78287,45820 78287,43680 78286,43663 78283,43645 78279,43628 78273,43611 78265,43595 78256,43580 78246,43566 78234,43553 78221,43541 78207,43530 78191,43521 78175,43513 78159,43508 78142,43503 78124,43501 78107,43500 76805,43500 76787,43501 76770,43503 76753,43508 76736,43513 76720,43521 76705,43530 76691,43541 76678,43553 76666,43566 76655,43580 76646,43595 76639,43611 76633,43628 76628,43645 76626,43663 76625,43680 76625,45820 76626,45838 76628,45855 76633,45872 76639,45889 76646,45905 76655,45920 76666,45935 76678,45948 76691,45960 76705,45970 76720,45979 76736,45987 76753,45993 76770,45997 76787,46000 76805,46001 Z"/>
    <path fill="none" stroke="rgb(0,0,255)" d="M 76805,46001 L 78107,46001 78124,46000 78142,45997 78159,45993 78175,45987 78191,45979 78207,45970 78221,45960 78234,45948 78246,45935 78256,45920 78265,45905 78273,45889 78279,45872 78283,45855 78286,45838 78287,45820 78287,43680 78286,43663 78283,43645 78279,43628 78273,43611 78265,43595 78256,43580 78246,43566 78234,43553 78221,43541 78207,43530 78191,43521 78175,43513 78159,43508 78142,43503 78124,43501 78107,43500 76805,43500 76787,43501 76770,43503 76753,43508 76736,43513 76720,43521 76705,43530 76691,43541 76678,43553 76666,43566 76655,43580 76646,43595 76639,43611 76633,43628 76628,43645 76626,43663 76625,43680 76625,45820 76626,45838 76628,45855 76633,45872 76639,45889 76646,45905 76655,45920 76666,45935 76678,45948 76691,45960 76705,45970 76720,45979 76736,45987 76753,45993 76770,45997 76787,46000 76805,46001 Z"/>
   </g>
  </g>
  <g class="com.sun.star.drawing.PolyPolygonShape">
   <g id="id4">
    <rect class="BoundingBox" stroke="none" fill="none" x="76665" y="43540" width="1582" height="2421"/>
    <path fill="rgb(255,255,255)" stroke="none" d="M 76805,45959 L 78107,45959 78120,45958 78134,45956 78147,45953 78160,45948 78172,45942 78183,45935 78194,45927 78204,45918 78213,45908 78222,45897 78229,45885 78235,45873 78239,45860 78242,45847 78244,45834 78245,45820 78245,43680 78244,43667 78242,43653 78239,43640 78235,43627 78229,43615 78222,43603 78213,43592 78204,43582 78194,43573 78183,43565 78172,43558 78160,43552 78147,43547 78134,43544 78120,43542 78107,43541 76805,43541 76791,43542 76778,43544 76765,43547 76752,43552 76740,43558 76728,43565 76717,43573 76707,43582 76698,43592 76690,43603 76683,43615 76677,43627 76672,43640 76669,43653 76667,43667 76666,43680 76666,45820 76667,45834 76669,45847 76672,45860 76677,45873 76683,45885 76690,45897 76698,45908 76707,45918 76717,45927 76728,45935 76740,45942 76752,45948 76765,45953 76778,45956 76791,45958 76805,45959 Z"/>
    <path fill="none" stroke="rgb(255,255,255)" d="M 76805,45959 L 78107,45959 78120,45958 78134,45956 78147,45953 78160,45948 78172,45942 78183,45935 78194,45927 78204,45918 78213,45908 78222,45897 78229,45885 78235,45873 78239,45860 78242,45847 78244,45834 78245,45820 78245,43680 78244,43667 78242,43653 78239,43640 78235,43627 78229,43615 78222,43603 78213,43592 78204,43582 78194,43573 78183,43565 78172,43558 78160,43552 78147,43547 78134,43544 78120,43542 78107,43541 76805,43541 76791,43542 76778,43544 76765,43547 76752,43552 76740,43558 76728,43565 76717,43573 76707,43582 76698,43592 76690,43603 76683,43615 76677,43627 76672,43640 76669,43653 76667,43667 76666,43680 76666,45820 76667,45834 76669,45847 76672,45860 76677,45873 76683,45885 76690,45897 76698,45908 76707,45918 76717,45927 76728,45935 76740,45942 76752,45948 76765,45953 76778,45956 76791,45958 76805,45959 Z"/>
   </g>
  </g>
  <g class="com.sun.star.drawing.PolyPolygonShape">
   <g id="id5">
    <rect class="BoundingBox" stroke="none" fill="none" x="77454" y="43582" width="751" height="2337"/>
    <path fill="rgb(0,0,255)" stroke="none" d="M 77455,45917 L 78107,45917 78116,45917 78125,45915 78135,45913 78144,45910 78152,45906 78160,45901 78168,45895 78175,45889 78181,45882 78187,45874 78192,45866 78196,45857 78199,45848 78202,45839 78203,45830 78203,45820 78203,43680 78203,43671 78202,43661 78199,43652 78196,43643 78192,43634 78187,43626 78181,43619 78175,43612 78168,43605 78160,43599 78152,43595 78144,43590 78135,43587 78125,43585 78116,43584 78107,43583 77455,43583 77455,43909 77870,44173 77870,45326 77455,45591 77455,45917 Z"/>
    <path fill="none" stroke="rgb(0,0,255)" d="M 77455,45917 L 78107,45917 78116,45917 78125,45915 78135,45913 78144,45910 78152,45906 78160,45901 78168,45895 78175,45889 78181,45882 78187,45874 78192,45866 78196,45857 78199,45848 78202,45839 78203,45830 78203,45820 78203,43680 78203,43671 78202,43661 78199,43652 78196,43643 78192,43634 78187,43626 78181,43619 78175,43612 78168,43605 78160,43599 78152,43595 78144,43590 78135,43587 78125,43585 78116,43584 78107,43583 77455,43583 77455,43909 77870,44173 77870,45326 77455,45591 77455,45917 Z"/>
   </g>
  </g>
  <g class="com.sun.star.drawing.PolyPolygonShape">
   <g id="id6">
    <rect class="BoundingBox" stroke="none" fill="none" x="77440" y="45430" width="32" height="129"/>
    <path fill="rgb(0,0,0)" stroke="none" d="M 77441,45431 L 77470,45431 77470,45557 77441,45557 77441,45431 Z"/>
    <path fill="none" stroke="rgb(0,0,0)" d="M 77441,45431 L 77470,45431 77470,45557 77441,45557 77441,45431 Z"/>
   </g>
  </g>
  <g class="com.sun.star.drawing.PolyPolygonShape">
   <g id="id7">
    <rect class="BoundingBox" stroke="none" fill="none" x="77440" y="45265" width="32" height="129"/>
    <path fill="rgb(0,0,0)" stroke="none" d="M 77441,45266 L 77470,45266 77470,45392 77441,45392 77441,45266 Z"/>
    <path fill="none" stroke="rgb(0,0,0)" d="M 77441,45266 L 77470,45266 77470,45392 77441,45392 77441,45266 Z"/>
   </g>
  </g>
  <g class="com.sun.star.drawing.PolyPolygonShape">
   <g id="id8">
    <rect class="BoundingBox" stroke="none" fill="none" x="77440" y="45099" width="32" height="129"/>
    <path fill="rgb(0,0,0)" stroke="none" d="M 77441,45100 L 77470,45100 77470,45226 77441,45226 77441,45100 Z"/>
    <path fill="none" stroke="rgb(0,0,0)" d="M 77441,45100 L 77470,45100 77470,45226 77441,45226 77441,45100 Z"/>
   </g>
  </g>
  <g class="com.sun.star.drawing.PolyPolygonShape">
   <g id="id9">
    <rect class="BoundingBox" stroke="none" fill="none" x="77440" y="44934" width="32" height="129"/>
    <path fill="rgb(0,0,0)" stroke="none" d="M 77441,44935 L 77470,44935 77470,45061 77441,45061 77441,44935 Z"/>
    <path fill="none" stroke="rgb(0,0,0)" d="M 77441,44935 L 77470,44935 77470,45061 77441,45061 77441,44935 Z"/>
   </g>
  </g>
  <g class="com.sun.star.drawing.PolyPolygonShape">
   <g id="id10">
    <rect class="BoundingBox" stroke="none" fill="none" x="77440" y="44769" width="32" height="129"/>
    <path fill="rgb(0,0,0)" stroke="none" d="M 77441,44770 L 77470,44770 77470,44896 77441,44896 77441,44770 Z"/>
    <path fill="none" stroke="rgb(0,0,0)" d="M 77441,44770 L 77470,44770 77470,44896 77441,44896 77441,44770 Z"/>
   </g>
  </g>
  <g class="com.sun.star.drawing.PolyPolygonShape">
   <g id="id11">
    <rect class="BoundingBox" stroke="none" fill="none" x="77440" y="43942" width="32" height="129"/>
    <path fill="rgb(0,0,0)" stroke="none" d="M 77441,43943 L 77470,43943 77470,44069 77441,44069 77441,43943 Z"/>
    <path fill="none" stroke="rgb(0,0,0)" d="M 77441,43943 L 77470,43943 77470,44069 77441,44069 77441,43943 Z"/>
   </g>
  </g>
  <g class="com.sun.star.drawing.PolyPolygonShape">
   <g id="id12">
    <rect class="BoundingBox" stroke="none" fill="none" x="77440" y="44108" width="32" height="129"/>
    <path fill="rgb(0,0,0)" stroke="none" d="M 77441,44109 L 77470,44109 77470,44235 77441,44235 77441,44109 Z"/>
    <path fill="none" stroke="rgb(0,0,0)" d="M 77441,44109 L 77470,44109 77470,44235 77441,44235 77441,44109 Z"/>
   </g>
  </g>
  <g class="com.sun.star.drawing.PolyPolygonShape">
   <g id="id13">
    <rect class="BoundingBox" stroke="none" fill="none" x="77440" y="44273" width="32" height="129"/>
    <path fill="rgb(0,0,0)" stroke="none" d="M 77441,44274 L 77470,44274 77470,44400 77441,44400 77441,44274 Z"/>
    <path fill="none" stroke="rgb(0,0,0)" d="M 77441,44274 L 77470,44274 77470,44400 77441,44400 77441,44274 Z"/>
   </g>
  </g>
  <g class="com.sun.star.drawing.PolyPolygonShape">
   <g id="id14">
    <rect class="BoundingBox" stroke="none" fill="none" x="77440" y="44438" width="32" height="129"/>
    <path fill="rgb(0,0,0)" stroke="none" d="M 77441,44439 L 77470,44439 77470,44565 77441,44565 77441,44439 Z"/>
    <path fill="none" stroke="rgb(0,0,0)" d="M 77441,44439 L 77470,44439 77470,44565 77441,44565 77441,44439 Z"/>
   </g>
  </g>
  <g class="com.sun.star.drawing.PolyPolygonShape">
   <g id="id15">
    <rect class="BoundingBox" stroke="none" fill="none" x="77440" y="44604" width="32" height="129"/>
    <path fill="rgb(0,0,0)" stroke="none" d="M 77441,44605 L 77470,44605 77470,44731 77441,44731 77441,44605 Z"/>
    <path fill="none" stroke="rgb(0,0,0)" d="M 77441,44605 L 77470,44605 77470,44731 77441,44731 77441,44605 Z"/>
   </g>
  </g>
  <g class="com.sun.star.drawing.PolyPolygonShape">
   <g id="id16">
    <rect class="BoundingBox" stroke="none" fill="none" x="76707" y="43582" width="336" height="2337"/>
    <path fill="rgb(0,0,255)" stroke="none" d="M 77041,43583 L 76805,43583 76795,43584 76786,43585 76777,43587 76768,43590 76759,43595 76751,43599 76743,43605 76736,43612 76730,43619 76724,43626 76719,43634 76715,43643 76712,43652 76710,43661 76708,43671 76708,43680 76708,45820 76708,45830 76710,45839 76712,45848 76715,45857 76719,45866 76724,45874 76730,45882 76736,45889 76743,45895 76751,45901 76759,45906 76768,45910 76777,45913 76786,45915 76795,45917 76805,45917 77041,45917 77041,43583 Z"/>
    <path fill="none" stroke="rgb(0,0,255)" d="M 77041,43583 L 76805,43583 76795,43584 76786,43585 76777,43587 76768,43590 76759,43595 76751,43599 76743,43605 76736,43612 76730,43619 76724,43626 76719,43634 76715,43643 76712,43652 76710,43661 76708,43671 76708,43680 76708,45820 76708,45830 76710,45839 76712,45848 76715,45857 76719,45866 76724,45874 76730,45882 76736,45889 76743,45895 76751,45901 76759,45906 76768,45910 76777,45913 76786,45915 76795,45917 76805,45917 77041,45917 77041,43583 Z"/>
   </g>
  </g>
  <g class="com.sun.star.drawing.PolyPolygonShape">
   <g id="id17">
    <rect class="BoundingBox" stroke="none" fill="none" x="77557" y="44965" width="213" height="322"/>
    <path fill="rgb(0,0,0)" stroke="none" d="M 77558,45200 L 77558,45190 77614,45190 77614,45200 77615,45204 77615,45208 77617,45212 77619,45215 77621,45218 77624,45220 77628,45222 77631,45224 77639,45226 77647,45228 77655,45228 77663,45229 77671,45228 77679,45228 77687,45226 77695,45224 77702,45220 77707,45215 77711,45209 77712,45202 77712,45195 77709,45188 77704,45182 77698,45178 77610,45115 77600,45109 77591,45102 77583,45094 77576,45084 77571,45073 77568,45062 77566,45050 77567,45039 77569,45027 77572,45016 77578,45005 77585,44995 77593,44987 77602,44980 77613,44974 77624,44971 77633,44968 77643,44967 77653,44966 77663,44966 77673,44966 77683,44967 77693,44968 77703,44971 77715,44975 77726,44981 77736,44988 77744,44999 77751,45009 77756,45021 77759,45033 77760,45046 77704,45046 77704,45042 77703,45039 77702,45036 77700,45033 77698,45031 77695,45029 77692,45027 77689,45026 77676,45023 77663,45023 77650,45023 77638,45026 77632,45028 77627,45032 77624,45038 77622,45044 77623,45050 77625,45056 77629,45061 77634,45064 77722,45128 77732,45133 77742,45141 77750,45150 77757,45159 77762,45170 77766,45182 77768,45194 77768,45206 77766,45218 77763,45229 77758,45240 77751,45250 77743,45259 77734,45266 77723,45272 77712,45277 77700,45280 77687,45283 77675,45284 77663,45285 77650,45284 77638,45283 77626,45280 77614,45277 77603,45272 77592,45266 77582,45258 77574,45248 77567,45237 77562,45225 77559,45213 77558,45200 Z"/>
    <path fill="none" stroke="rgb(0,0,0)" d="M 77558,45200 L 77558,45190 77614,45190 77614,45200 77615,45204 77615,45208 77617,45212 77619,45215 77621,45218 77624,45220 77628,45222 77631,45224 77639,45226 77647,45228 77655,45228 77663,45229 77671,45228 77679,45228 77687,45226 77695,45224 77702,45220 77707,45215 77711,45209 77712,45202 77712,45195 77709,45188 77704,45182 77698,45178 77610,45115 77600,45109 77591,45102 77583,45094 77576,45084 77571,45073 77568,45062 77566,45050 77567,45039 77569,45027 77572,45016 77578,45005 77585,44995 77593,44987 77602,44980 77613,44974 77624,44971 77633,44968 77643,44967 77653,44966 77663,44966 77673,44966 77683,44967 77693,44968 77703,44971 77715,44975 77726,44981 77736,44988 77744,44999 77751,45009 77756,45021 77759,45033 77760,45046 77704,45046 77704,45042 77703,45039 77702,45036 77700,45033 77698,45031 77695,45029 77692,45027 77689,45026 77676,45023 77663,45023 77650,45023 77638,45026 77632,45028 77627,45032 77624,45038 77622,45044 77623,45050 77625,45056 77629,45061 77634,45064 77722,45128 77732,45133 77742,45141 77750,45150 77757,45159 77762,45170 77766,45182 77768,45194 77768,45206 77766,45218 77763,45229 77758,45240 77751,45250 77743,45259 77734,45266 77723,45272 77712,45277 77700,45280 77687,45283 77675,45284 77663,45285 77650,45284 77638,45283 77626,45280 77614,45277 77603,45272 77592,45266 77582,45258 77574,45248 77567,45237 77562,45225 77559,45213 77558,45200 Z"/>
   </g>
  </g>
  <g class="com.sun.star.drawing.PolyPolygonShape">
   <g id="id18">
    <rect class="BoundingBox" stroke="none" fill="none" x="77557" y="44588" width="213" height="322"/>
    <path fill="rgb(0,0,0)" stroke="none" d="M 77614,44689 L 77614,44808 77615,44817 77618,44826 77622,44835 77628,44842 77636,44848 77644,44853 77653,44855 77663,44857 77672,44855 77681,44853 77691,44848 77698,44842 77704,44835 77709,44826 77711,44817 77712,44808 77712,44689 77711,44680 77709,44671 77704,44662 77698,44655 77691,44649 77681,44644 77672,44641 77663,44640 77653,44641 77644,44644 77636,44649 77628,44655 77622,44662 77618,44671 77615,44680 77614,44689 Z M 77558,44694 L 77558,44803 77559,44813 77560,44823 77563,44833 77566,44843 77571,44852 77576,44862 77582,44870 77589,44878 77597,44885 77605,44891 77613,44896 77623,44900 77633,44904 77642,44906 77653,44908 77663,44908 77673,44908 77683,44906 77694,44904 77704,44900 77713,44896 77722,44891 77730,44885 77738,44878 77744,44870 77751,44862 77756,44852 77760,44843 77764,44833 77766,44823 77768,44813 77768,44803 77768,44694 77768,44684 77766,44674 77764,44664 77760,44654 77756,44645 77750,44636 77744,44628 77738,44620 77730,44613 77722,44607 77713,44602 77704,44597 77694,44594 77683,44591 77673,44590 77663,44589 77653,44590 77642,44591 77633,44594 77623,44597 77613,44602 77605,44607 77597,44613 77589,44620 77582,44628 77576,44636 77571,44645 77566,44654 77563,44664 77560,44674 77559,44684 77558,44694 Z"/>
    <path fill="none" stroke="rgb(0,0,0)" d="M 77614,44689 L 77614,44808 77615,44817 77618,44826 77622,44835 77628,44842 77636,44848 77644,44853 77653,44855 77663,44857 77672,44855 77681,44853 77691,44848 77698,44842 77704,44835 77709,44826 77711,44817 77712,44808 77712,44689 77711,44680 77709,44671 77704,44662 77698,44655 77691,44649 77681,44644 77672,44641 77663,44640 77653,44641 77644,44644 77636,44649 77628,44655 77622,44662 77618,44671 77615,44680 77614,44689 Z"/>
    <path fill="none" stroke="rgb(0,0,0)" d="M 77558,44694 L 77558,44803 77559,44813 77560,44823 77563,44833 77566,44843 77571,44852 77576,44862 77582,44870 77589,44878 77597,44885 77605,44891 77613,44896 77623,44900 77633,44904 77642,44906 77653,44908 77663,44908 77673,44908 77683,44906 77694,44904 77704,44900 77713,44896 77722,44891 77730,44885 77738,44878 77744,44870 77751,44862 77756,44852 77760,44843 77764,44833 77766,44823 77768,44813 77768,44803 77768,44694 77768,44684 77766,44674 77764,44664 77760,44654 77756,44645 77750,44636 77744,44628 77738,44620 77730,44613 77722,44607 77713,44602 77704,44597 77694,44594 77683,44591 77673,44590 77663,44589 77653,44590 77642,44591 77633,44594 77623,44597 77613,44602 77605,44607 77597,44613 77589,44620 77582,44628 77576,44636 77571,44645 77566,44654 77563,44664 77560,44674 77559,44684 77558,44694 Z"/>
   </g>
  </g>
  <g class="com.sun.star.drawing.PolyPolygonShape">
   <g id="id19">
    <rect class="BoundingBox" stroke="none" fill="none" x="77557" y="44214" width="213" height="323"/>
    <path fill="rgb(0,0,0)" stroke="none" d="M 77558,44450 L 77558,44440 77614,44440 77614,44450 77615,44454 77615,44458 77617,44462 77619,44465 77621,44468 77624,44470 77628,44472 77631,44474 77639,44476 77647,44478 77655,44478 77663,44479 77671,44478 77679,44478 77687,44476 77695,44474 77702,44471 77707,44466 77711,44459 77712,44452 77712,44445 77709,44438 77704,44432 77698,44428 77610,44365 77600,44358 77591,44351 77583,44343 77576,44333 77571,44322 77568,44311 77566,44300 77567,44288 77569,44276 77572,44265 77578,44255 77585,44245 77593,44237 77602,44230 77613,44224 77624,44221 77633,44218 77643,44217 77653,44216 77663,44215 77673,44216 77683,44217 77693,44218 77703,44221 77715,44225 77726,44231 77736,44239 77744,44248 77751,44258 77756,44270 77759,44282 77760,44295 77704,44295 77704,44291 77703,44288 77702,44285 77700,44282 77698,44280 77695,44278 77692,44276 77689,44275 77676,44272 77663,44272 77650,44272 77638,44275 77632,44277 77627,44281 77624,44287 77622,44293 77623,44299 77625,44305 77629,44310 77634,44313 77722,44377 77732,44383 77742,44391 77750,44400 77757,44409 77762,44420 77766,44432 77768,44444 77768,44456 77766,44468 77763,44479 77758,44490 77751,44500 77743,44509 77734,44517 77723,44523 77712,44527 77700,44530 77687,44533 77675,44534 77663,44535 77650,44534 77638,44533 77626,44530 77614,44527 77603,44522 77592,44516 77582,44508 77574,44498 77567,44487 77562,44476 77559,44463 77558,44450 Z"/>
    <path fill="none" stroke="rgb(0,0,0)" d="M 77558,44450 L 77558,44440 77614,44440 77614,44450 77615,44454 77615,44458 77617,44462 77619,44465 77621,44468 77624,44470 77628,44472 77631,44474 77639,44476 77647,44478 77655,44478 77663,44479 77671,44478 77679,44478 77687,44476 77695,44474 77702,44471 77707,44466 77711,44459 77712,44452 77712,44445 77709,44438 77704,44432 77698,44428 77610,44365 77600,44358 77591,44351 77583,44343 77576,44333 77571,44322 77568,44311 77566,44300 77567,44288 77569,44276 77572,44265 77578,44255 77585,44245 77593,44237 77602,44230 77613,44224 77624,44221 77633,44218 77643,44217 77653,44216 77663,44215 77673,44216 77683,44217 77693,44218 77703,44221 77715,44225 77726,44231 77736,44239 77744,44248 77751,44258 77756,44270 77759,44282 77760,44295 77704,44295 77704,44291 77703,44288 77702,44285 77700,44282 77698,44280 77695,44278 77692,44276 77689,44275 77676,44272 77663,44272 77650,44272 77638,44275 77632,44277 77627,44281 77624,44287 77622,44293 77623,44299 77625,44305 77629,44310 77634,44313 77722,44377 77732,44383 77742,44391 77750,44400 77757,44409 77762,44420 77766,44432 77768,44444 77768,44456 77766,44468 77763,44479 77758,44490 77751,44500 77743,44509 77734,44517 77723,44523 77712,44527 77700,44530 77687,44533 77675,44534 77663,44535 77650,44534 77638,44533 77626,44530 77614,44527 77603,44522 77592,44516 77582,44508 77574,44498 77567,44487 77562,44476 77559,44463 77558,44450 Z"/>
   </g>
  </g>
  <g class="com.sun.star.drawing.PolyPolygonShape">
   <g id="id20">
    <rect class="BoundingBox" stroke="none" fill="none" x="77557" y="44214" width="213" height="323"/>
    <path fill="rgb(0,0,0)" stroke="none" d="M 77558,44450 L 77558,44440 77614,44440 77614,44450 77615,44454 77615,44458 77617,44462 77619,44465 77621,44468 77624,44470 77628,44472 77631,44474 77639,44476 77647,44478 77655,44478 77663,44479 77671,44478 77679,44478 77687,44476 77695,44474 77702,44471 77707,44466 77711,44459 77712,44452 77712,44445 77709,44438 77704,44432 77698,44428 77610,44365 77600,44358 77591,44351 77583,44343 77576,44333 77571,44322 77568,44311 77566,44300 77567,44288 77569,44276 77572,44265 77578,44255 77585,44245 77593,44237 77602,44230 77613,44224 77624,44221 77633,44218 77643,44217 77653,44216 77663,44215 77673,44216 77683,44217 77693,44218 77703,44221 77715,44225 77726,44231 77736,44239 77744,44248 77751,44258 77756,44270 77759,44282 77760,44295 77704,44295 77704,44291 77703,44288 77702,44285 77700,44282 77698,44280 77695,44278 77692,44276 77689,44275 77676,44272 77663,44272 77650,44272 77638,44275 77632,44277 77627,44281 77624,44287 77622,44293 77623,44299 77625,44305 77629,44310 77634,44313 77722,44377 77732,44383 77742,44391 77750,44400 77757,44409 77762,44420 77766,44432 77768,44444 77768,44456 77766,44468 77763,44479 77758,44490 77751,44500 77743,44509 77734,44517 77723,44523 77712,44527 77700,44530 77687,44533 77675,44534 77663,44535 77650,44534 77638,44533 77626,44530 77614,44527 77603,44522 77592,44516 77582,44508 77574,44498 77567,44487 77562,44476 77559,44463 77558,44450 Z"/>
    <path fill="none" stroke="rgb(0,0,0)" d="M 77558,44450 L 77558,44440 77614,44440 77614,44450 77615,44454 77615,44458 77617,44462 77619,44465 77621,44468 77624,44470 77628,44472 77631,44474 77639,44476 77647,44478 77655,44478 77663,44479 77671,44478 77679,44478 77687,44476 77695,44474 77702,44471 77707,44466 77711,44459 77712,44452 77712,44445 77709,44438 77704,44432 77698,44428 77610,44365 77600,44358 77591,44351 77583,44343 77576,44333 77571,44322 77568,44311 77566,44300 77567,44288 77569,44276 77572,44265 77578,44255 77585,44245 77593,44237 77602,44230 77613,44224 77624,44221 77633,44218 77643,44217 77653,44216 77663,44215 77673,44216 77683,44217 77693,44218 77703,44221 77715,44225 77726,44231 77736,44239 77744,44248 77751,44258 77756,44270 77759,44282 77760,44295 77704,44295 77704,44291 77703,44288 77702,44285 77700,44282 77698,44280 77695,44278 77692,44276 77689,44275 77676,44272 77663,44272 77650,44272 77638,44275 77632,44277 77627,44281 77624,44287 77622,44293 77623,44299 77625,44305 77629,44310 77634,44313 77722,44377 77732,44383 77742,44391 77750,44400 77757,44409 77762,44420 77766,44432 77768,44444 77768,44456 77766,44468 77763,44479 77758,44490 77751,44500 77743,44509 77734,44517 77723,44523 77712,44527 77700,44530 77687,44533 77675,44534 77663,44535 77650,44534 77638,44533 77626,44530 77614,44527 77603,44522 77592,44516 77582,44508 77574,44498 77567,44487 77562,44476 77559,44463 77558,44450 Z"/>
   </g>
  </g>
 </g>
</svg>