<?xml version="1.0" encoding="UTF-8"?>
<!DOCTYPE svg PUBLIC "-//W3C//DTD SVG 1.1//EN" "http://www.w3.org/Graphics/SVG/1.1/DTD/svg11.dtd">
<svg version="1.2" width="24.89mm" height="25.04mm" viewBox="81812 43499 2489 2504" preserveAspectRatio="xMidYMid" fill-rule="evenodd" stroke-width="28.222" stroke-linejoin="round" xmlns="http://www.w3.org/2000/svg" xmlns:ooo="http://xml.openoffice.org/svg/export" xmlns:xlink="http://www.w3.org/1999/xlink" xmlns:presentation="http://sun.com/xmlns/staroffice/presentation" xmlns:smil="http://www.w3.org/2001/SMIL20/" xmlns:anim="urn:oasis:names:tc:opendocument:xmlns:animation:1.0" xml:space="preserve">
 <defs class="EmbeddedBulletChars">
  <g id="bullet-char-template-57356" transform="scale(0.00048828125,-0.00048828125)">
   <path d="M 580,1141 L 1163,571 580,0 -4,571 580,1141 Z"/>
  </g>
  <g id="bullet-char-template-57354" transform="scale(0.00048828125,-0.00048828125)">
   <path d="M 8,1128 L 1137,1128 1137,0 8,0 8,1128 Z"/>
  </g>
  <g id="bullet-char-template-10146" transform="scale(0.00048828125,-0.00048828125)">
   <path d="M 174,0 L 602,739 174,1481 1456,739 174,0 Z M 1358,739 L 309,1346 659,739 1358,739 Z"/>
  </g>
  <g id="bullet-char-template-10132" transform="scale(0.00048828125,-0.00048828125)">
   <path d="M 2015,739 L 1276,0 717,0 1260,543 174,543 174,936 1260,936 717,1481 1274,1481 2015,739 Z"/>
  </g>
  <g id="bullet-char-template-10007" transform="scale(0.00048828125,-0.00048828125)">
   <path d="M 0,-2 C -7,14 -16,27 -25,37 L 356,567 C 262,823 215,952 215,954 215,979 228,992 255,992 264,992 276,990 289,987 310,991 331,999 354,1012 L 381,999 492,748 772,1049 836,1024 860,1049 C 881,1039 901,1025 922,1006 886,937 835,863 770,784 769,783 710,716 594,584 L 774,223 C 774,196 753,168 711,139 L 727,119 C 717,90 699,76 672,76 641,76 570,178 457,381 L 164,-76 C 142,-110 111,-127 72,-127 30,-127 9,-110 8,-76 1,-67 -2,-52 -2,-32 -2,-23 -1,-13 0,-2 Z"/>
  </g>
  <g id="bullet-char-template-10004" transform="scale(0.00048828125,-0.00048828125)">
   <path d="M 285,-33 C 182,-33 111,30 74,156 52,228 41,333 41,471 41,549 55,616 82,672 116,743 169,778 240,778 293,778 328,747 346,684 L 369,508 C 377,444 397,411 428,410 L 1163,1116 C 1174,1127 1196,1133 1229,1133 1271,1133 1292,1118 1292,1087 L 1292,965 C 1292,929 1282,901 1262,881 L 442,47 C 390,-6 338,-33 285,-33 Z"/>
  </g>
  <g id="bullet-char-template-9679" transform="scale(0.00048828125,-0.00048828125)">
   <path d="M 813,0 C 632,0 489,54 383,161 276,268 223,411 223,592 223,773 276,916 383,1023 489,1130 632,1184 813,1184 992,1184 1136,1130 1245,1023 1353,916 1407,772 1407,592 1407,412 1353,268 1245,161 1136,54 992,0 813,0 Z"/>
  </g>
  <g id="bullet-char-template-8226" transform="scale(0.00048828125,-0.00048828125)">
   <path d="M 346,457 C 273,457 209,483 155,535 101,586 74,649 74,723 74,796 101,859 155,911 209,963 273,989 346,989 419,989 480,963 531,910 582,859 608,796 608,723 608,648 583,586 532,535 482,483 420,457 346,457 Z"/>
  </g>
  <g id="bullet-char-template-8211" transform="scale(0.00048828125,-0.00048828125)">
   <path d="M -4,459 L 1135,459 1135,606 -4,606 -4,459 Z"/>
  </g>
  <g id="bullet-char-template-61548" transform="scale(0.00048828125,-0.00048828125)">
   <path d="M 173,740 C 173,903 231,1043 346,1159 462,1274 601,1332 765,1332 928,1332 1067,1274 1183,1159 1299,1043 1357,903 1357,740 1357,577 1299,437 1183,322 1067,206 928,148 765,148 601,148 462,206 346,322 231,437 173,577 173,740 Z"/>
  </g>
 </defs>
 <g class="Page">
  <g class="com.sun.star.drawing.PolyPolygonShape">
   <g id="id3">
    <rect class="BoundingBox" stroke="none" fill="none" x="81812" y="43499" width="2489" height="2504"/>
    <path fill="rgb(0,0,255)" stroke="none" d="M 81813,45768 L 81813,43732 81814,43709 81817,43687 81823,43664 81830,43643 81840,43622 81852,43603 81865,43585 81880,43568 81897,43552 81915,43539 81935,43527 81955,43517 81977,43510 81999,43504 82021,43501 82044,43500 84068,43500 84091,43501 84113,43504 84135,43510 84156,43517 84177,43527 84196,43539 84214,43552 84231,43568 84246,43585 84260,43603 84271,43622 84281,43643 84289,43664 84294,43687 84298,43709 84299,43732 84299,45768 84298,45791 84294,45814 84289,45836 84281,45857 84271,45878 84260,45897 84246,45916 84231,45933 84214,45948 84196,45961 84177,45973 84156,45983 84135,45991 84113,45996 84091,45999 84068,46001 82044,46001 82021,45999 81999,45996 81977,45991 81955,45983 81935,45973 81915,45961 81897,45948 81880,45933 81865,45916 81852,45897 81840,45878 81830,45857 81823,45836 81817,45814 81814,45791 81813,45768 Z"/>
    <path fill="none" stroke="rgb(0,0,255)" d="M 81813,45768 L 81813,43732 81814,43709 81817,43687 81823,43664 81830,43643 81840,43622 81852,43603 81865,43585 81880,43568 81897,43552 81915,43539 81935,43527 81955,43517 81977,43510 81999,43504 82021,43501 82044,43500 84068,43500 84091,43501 84113,43504 84135,43510 84156,43517 84177,43527 84196,43539 84214,43552 84231,43568 84246,43585 84260,43603 84271,43622 84281,43643 84289,43664 84294,43687 84298,43709 84299,43732 84299,45768 84298,45791 84294,45814 84289,45836 84281,45857 84271,45878 84260,45897 84246,45916 84231,45933 84214,45948 84196,45961 84177,45973 84156,45983 84135,45991 84113,45996 84091,45999 84068,46001 82044,46001 82021,45999 81999,45996 81977,45991 81955,45983 81935,45973 81915,45961 81897,45948 81880,45933 81865,45916 81852,45897 81840,45878 81830,45857 81823,45836 81817,45814 81814,45791 81813,45768 Z"/>
   </g>
  </g>
  <g class="com.sun.star.drawing.PolyPolygonShape">
   <g id="id4">
    <rect class="BoundingBox" stroke="none" fill="none" x="81865" y="43552" width="2382" height="2397"/>
    <path fill="rgb(255,255,255)" stroke="none" d="M 81866,45768 L 81866,43732 81867,43714 81869,43697 81874,43680 81880,43664 81887,43648 81896,43633 81906,43619 81918,43606 81931,43594 81945,43583 81960,43574 81976,43567 81992,43561 82009,43557 82026,43554 82045,43553 84068,43553 84085,43554 84103,43557 84119,43561 84136,43567 84152,43574 84166,43583 84180,43594 84193,43606 84205,43619 84215,43633 84224,43648 84232,43664 84238,43680 84242,43697 84245,43714 84245,43732 84245,45768 84245,45786 84242,45803 84238,45820 84232,45837 84224,45853 84215,45868 84205,45882 84193,45895 84180,45906 84166,45917 84152,45926 84136,45933 84119,45939 84103,45944 84085,45946 84068,45947 82045,45947 82026,45946 82009,45944 81992,45939 81976,45933 81960,45926 81945,45917 81931,45906 81918,45895 81906,45882 81896,45868 81887,45853 81880,45837 81874,45820 81869,45803 81867,45786 81866,45768 Z"/>
    <path fill="none" stroke="rgb(255,255,255)" d="M 81866,45768 L 81866,43732 81867,43714 81869,43697 81874,43680 81880,43664 81887,43648 81896,43633 81906,43619 81918,43606 81931,43594 81945,43583 81960,43574 81976,43567 81992,43561 82009,43557 82026,43554 82045,43553 84068,43553 84085,43554 84103,43557 84119,43561 84136,43567 84152,43574 84166,43583 84180,43594 84193,43606 84205,43619 84215,43633 84224,43648 84232,43664 84238,43680 84242,43697 84245,43714 84245,43732 84245,45768 84245,45786 84242,45803 84238,45820 84232,45837 84224,45853 84215,45868 84205,45882 84193,45895 84180,45906 84166,45917 84152,45926 84136,45933 84119,45939 84103,45944 84085,45946 84068,45947 82045,45947 82026,45946 82009,45944 81992,45939 81976,45933 81960,45926 81945,45917 81931,45906 81918,45895 81906,45882 81896,45868 81887,45853 81880,45837 81874,45820 81869,45803 81867,45786 81866,45768 Z"/>
   </g>
  </g>
  <g class="com.sun.star.drawing.PolyPolygonShape">
   <g id="id5">
    <rect class="BoundingBox" stroke="none" fill="none" x="83081" y="43606" width="1113" height="2289"/>
    <path fill="rgb(0,0,255)" stroke="none" d="M 83082,43607 L 84068,43607 84080,43608 84092,43609 84104,43612 84115,43616 84126,43622 84137,43628 84147,43635 84156,43644 84164,43652 84171,43662 84178,43673 84183,43684 84187,43696 84190,43707 84192,43720 84192,43732 84192,45768 84192,45781 84190,45793 84187,45805 84183,45816 84178,45827 84171,45838 84164,45848 84156,45857 84147,45865 84137,45872 84126,45879 84115,45884 84104,45888 84092,45891 84080,45893 84068,45893 83082,45893 83082,43607 Z"/>
    <path fill="none" stroke="rgb(0,0,255)" d="M 83082,43607 L 84068,43607 84080,43608 84092,43609 84104,43612 84115,43616 84126,43622 84137,43628 84147,43635 84156,43644 84164,43652 84171,43662 84178,43673 84183,43684 84187,43696 84190,43707 84192,43720 84192,43732 84192,45768 84192,45781 84190,45793 84187,45805 84183,45816 84178,45827 84171,45838 84164,45848 84156,45857 84147,45865 84137,45872 84126,45879 84115,45884 84104,45888 84092,45891 84080,45893 84068,45893 83082,45893 83082,43607 Z"/>
   </g>
  </g>
  <g class="com.sun.star.drawing.PolyPolygonShape">
   <g id="id6">
    <rect class="BoundingBox" stroke="none" fill="none" x="81918" y="43606" width="1114" height="2289"/>
    <path fill="rgb(0,0,255)" stroke="none" d="M 81919,45768 L 81919,43732 81920,43720 81922,43707 81925,43696 81929,43684 81934,43673 81940,43662 81948,43653 81956,43644 81965,43635 81975,43628 81985,43622 81996,43616 82008,43612 82019,43609 82031,43607 82044,43607 83030,43607 83030,45893 82044,45893 82031,45893 82019,45891 82008,45888 81996,45884 81985,45879 81975,45872 81965,45865 81956,45857 81948,45848 81940,45838 81934,45827 81929,45816 81925,45805 81922,45793 81920,45781 81919,45768 Z"/>
    <path fill="none" stroke="rgb(0,0,255)" d="M 81919,45768 L 81919,43732 81920,43720 81922,43707 81925,43696 81929,43684 81934,43673 81940,43662 81948,43653 81956,43644 81965,43635 81975,43628 81985,43622 81996,43616 82008,43612 82019,43609 82031,43607 82044,43607 83030,43607 83030,45893 82044,45893 82031,45893 82019,45891 82008,45888 81996,45884 81985,45879 81975,45872 81965,45865 81956,45857 81948,45848 81940,45838 81934,45827 81929,45816 81925,45805 81922,45793 81920,45781 81919,45768 Z"/>
   </g>
  </g>
  <g class="com.sun.star.drawing.PolyPolygonShape">
   <g id="id7">
    <rect class="BoundingBox" stroke="none" fill="none" x="81988" y="44480" width="975" height="540"/>
    <path fill="rgb(255,255,255)" stroke="none" d="M 82684,44655 L 82674,44661 82664,44667 82655,44675 82647,44683 82639,44691 82631,44700 82624,44710 82618,44719 82612,44730 82607,44740 82602,44751 82599,44763 82596,44774 82593,44786 82592,44798 82591,44809 82579,44809 82580,44797 82582,44784 82584,44772 82588,44760 82592,44747 82596,44735 82602,44724 82608,44713 82615,44703 82622,44693 82630,44683 82639,44674 82648,44666 82658,44658 82668,44651 82679,44644 82684,44655 Z M 82693,44672 L 82676,44684 82660,44697 82646,44713 82634,44730 82625,44748 82618,44768 82613,44789 82610,44809 82738,44809 82740,44803 82743,44797 82747,44792 82751,44788 82693,44672 Z M 82675,44638 L 82664,44645 82654,44652 82644,44660 82634,44669 82625,44679 82617,44688 82609,44699 82602,44710 82595,44721 82590,44733 82585,44745 82581,44758 82577,44771 82575,44783 82573,44796 82572,44809 82565,44809 82562,44798 82557,44788 82549,44778 82541,44771 82638,44564 82675,44638 Z M 82370,44802 L 82359,44803 82357,44790 82355,44778 82352,44766 82348,44753 82343,44741 82338,44729 82332,44718 82325,44708 82317,44698 82309,44689 82300,44680 82291,44672 82280,44664 82270,44657 82259,44651 82248,44646 82251,44634 82263,44640 82275,44646 82286,44654 82297,44662 82307,44670 82317,44680 82326,44690 82334,44701 82341,44712 82348,44724 82354,44736 82359,44749 82363,44762 82366,44775 82369,44789 82370,44802 Z M 82488,44694 L 82532,44694 82532,44711 82517,44711 82517,44762 82526,44764 82622,44560 82270,44560 82264,44581 82475,44774 82481,44770 82488,44766 82495,44763 82503,44762 82503,44711 82488,44711 82488,44694 Z M 82184,44794 L 82176,44792 82169,44792 82162,44795 82156,44800 82151,44806 82149,44814 82149,44821 82151,44829 82156,44835 82162,44840 82169,44842 82177,44843 82184,44841 82191,44837 82195,44832 82199,44825 82341,44820 82340,44833 82338,44846 82336,44859 82332,44871 82327,44884 82322,44895 82315,44907 82308,44918 82300,44928 82291,44937 82281,44946 82270,44954 82260,44961 82248,44968 82236,44973 82224,44977 82211,44981 82198,44983 82185,44985 82172,44985 82159,44984 82146,44982 82133,44980 82121,44976 82109,44971 82097,44966 82086,44959 82075,44952 82065,44943 82055,44934 82045,44925 82037,44914 82030,44903 82024,44892 82019,44879 82014,44867 82011,44854 82009,44841 82007,44828 82007,44815 82008,44802 82009,44789 82012,44776 82016,44764 82020,44750 82026,44738 82033,44727 82040,44716 82048,44706 82058,44697 82068,44688 82078,44680 82089,44673 82101,44666 82112,44661 82125,44656 82137,44653 82150,44651 82163,44649 82176,44649 82189,44649 82202,44651 82215,44654 82228,44658 82205,44746 82202,44760 82197,44772 82191,44783 82184,44794 Z M 82196,44804 L 82198,44808 82340,44803 82339,44792 82337,44781 82334,44771 82331,44760 82327,44749 82322,44739 82316,44729 82310,44720 82304,44711 82296,44702 82289,44695 82280,44687 82271,44680 82262,44674 82253,44669 82243,44664 82221,44749 82217,44765 82212,44779 82205,44792 82196,44804 Z M 82532,44923 L 82532,44939 82488,44939 82488,44923 82503,44923 82503,44873 82496,44871 82489,44869 82483,44866 82477,44862 82471,44858 82466,44852 82462,44847 82459,44840 82457,44834 82455,44827 82454,44820 82454,44813 82455,44806 82457,44799 82460,44792 82464,44786 82260,44599 82252,44627 82268,44634 82282,44643 82296,44652 82309,44663 82321,44674 82332,44687 82342,44701 82351,44715 82359,44730 82365,44745 82370,44762 82374,44779 82377,44796 82378,44812 82378,44829 82376,44846 82369,44845 82370,44832 82371,44819 82359,44819 82358,44835 82356,44851 82352,44867 82348,44883 82341,44898 82334,44912 82325,44926 82315,44939 82304,44951 82291,44961 82278,44971 82265,44980 82250,44987 82235,44993 82219,44998 82204,45001 82746,45001 82731,44998 82716,44993 82701,44988 82687,44981 82673,44972 82660,44963 82649,44953 82638,44941 82627,44929 82619,44916 82611,44902 82604,44887 82599,44872 82595,44857 82592,44841 82591,44825 82579,44825 82580,44839 82582,44852 82575,44854 82573,44840 82572,44825 82565,44825 82563,44834 82559,44843 82554,44850 82548,44857 82542,44863 82534,44868 82525,44871 82517,44873 82517,44923 82532,44923 Z M 82921,44738 L 82929,44755 82935,44773 82939,44792 82941,44810 82941,44829 82938,44847 82934,44865 82928,44883 82919,44900 82909,44915 82898,44930 82884,44943 82870,44954 82854,44964 82837,44972 82820,44978 82802,44982 82783,44983 82765,44983 82746,44981 82728,44977 82711,44970 82694,44962 82679,44952 82664,44940 82651,44927 82640,44912 82630,44897 82622,44880 82616,44862 82612,44844 82610,44825 82738,44825 82741,44833 82744,44840 82750,44846 82756,44850 82763,44854 82770,44855 82778,44856 82786,44854 82793,44852 82799,44847 82805,44842 82809,44835 82812,44828 82814,44820 82813,44813 82812,44805 82921,44738 Z M 82940,44708 L 82930,44714 82920,44700 82909,44688 82898,44676 82885,44666 82871,44657 82857,44649 82842,44643 82826,44637 82810,44634 82794,44631 82778,44630 82762,44631 82745,44633 82729,44636 82713,44641 82698,44647 82693,44637 82709,44630 82726,44625 82743,44621 82760,44619 82778,44619 82795,44620 82812,44622 82829,44626 82846,44632 82862,44639 82877,44647 82892,44657 82905,44668 82918,44680 82929,44693 82940,44708 Z M 82707,44665 L 82721,44659 82735,44655 82749,44652 82763,44651 82778,44650 82792,44651 82807,44653 82821,44656 82835,44661 82848,44667 82861,44674 82873,44682 82884,44691 82895,44701 82904,44712 82913,44724 82803,44791 82795,44785 82786,44780 82776,44779 82766,44780 82707,44665 Z M 82326,44501 L 82332,44500 82339,44500 82346,44500 82353,44501 82356,44500 82358,44499 82360,44497 82361,44494 82361,44491 82361,44489 82359,44486 82358,44484 82352,44482 82346,44481 82339,44481 82333,44482 82318,44484 82303,44486 82288,44486 82272,44485 82237,44622 82223,44618 82208,44614 82194,44613 82179,44612 82164,44612 82150,44613 82135,44616 82120,44619 82122,44626 82136,44623 82150,44620 82165,44619 82179,44619 82193,44620 82207,44622 82222,44624 82235,44628 82232,44640 82214,44634 82195,44631 82176,44630 82157,44631 82138,44634 82120,44639 82102,44645 82085,44654 82068,44664 82053,44676 82039,44689 82026,44704 82016,44719 82006,44736 81999,44754 81994,44773 81990,44792 81989,44811 81989,44831 81991,44850 81996,44868 82002,44886 82010,44904 82019,44920 82031,44936 82044,44950 82059,44963 82074,44974 82091,44983 82108,44991 82127,44997 82145,45001 82012,45001 82012,45018 82937,45018 82937,45001 82805,45001 82826,44996 82847,44989 82867,44979 82885,44967 82902,44953 82918,44937 82931,44919 82941,44900 82950,44879 82956,44858 82960,44836 82961,44814 82959,44792 82954,44770 82947,44748 82938,44727 82948,44721 82955,44735 82961,44732 82952,44714 82941,44697 82928,44681 82914,44667 82899,44653 82882,44642 82865,44632 82846,44624 82827,44618 82807,44614 82787,44612 82767,44612 82747,44614 82728,44617 82709,44623 82690,44631 82646,44546 82657,44525 82659,44522 82663,44521 82667,44519 82672,44516 82673,44514 82674,44511 82674,44509 82674,44506 82672,44503 82670,44501 82668,44500 82665,44499 82644,44497 82622,44496 82601,44498 82579,44500 82577,44502 82575,44504 82573,44507 82573,44510 82574,44513 82576,44515 82578,44517 82581,44518 82628,44520 82632,44521 82635,44523 82636,44527 82635,44531 82629,44544 82274,44544 82284,44506 82294,44506 82305,44505 82315,44504 82326,44501 Z"/>
    <path fill="none" stroke="rgb(255,255,255)" d="M 82684,44655 L 82674,44661 82664,44667 82655,44675 82647,44683 82639,44691 82631,44700 82624,44710 82618,44719 82612,44730 82607,44740 82602,44751 82599,44763 82596,44774 82593,44786 82592,44798 82591,44809 82579,44809 82580,44797 82582,44784 82584,44772 82588,44760 82592,44747 82596,44735 82602,44724 82608,44713 82615,44703 82622,44693 82630,44683 82639,44674 82648,44666 82658,44658 82668,44651 82679,44644 82684,44655 Z"/>
    <path fill="none" stroke="rgb(255,255,255)" d="M 82693,44672 L 82676,44684 82660,44697 82646,44713 82634,44730 82625,44748 82618,44768 82613,44789 82610,44809 82738,44809 82740,44803 82743,44797 82747,44792 82751,44788 82693,44672 Z"/>
    <path fill="none" stroke="rgb(255,255,255)" d="M 82675,44638 L 82664,44645 82654,44652 82644,44660 82634,44669 82625,44679 82617,44688 82609,44699 82602,44710 82595,44721 82590,44733 82585,44745 82581,44758 82577,44771 82575,44783 82573,44796 82572,44809 82565,44809 82562,44798 82557,44788 82549,44778 82541,44771 82638,44564 82675,44638 Z"/>
    <path fill="none" stroke="rgb(255,255,255)" d="M 82370,44802 L 82359,44803 82357,44790 82355,44778 82352,44766 82348,44753 82343,44741 82338,44729 82332,44718 82325,44708 82317,44698 82309,44689 82300,44680 82291,44672 82280,44664 82270,44657 82259,44651 82248,44646 82251,44634 82263,44640 82275,44646 82286,44654 82297,44662 82307,44670 82317,44680 82326,44690 82334,44701 82341,44712 82348,44724 82354,44736 82359,44749 82363,44762 82366,44775 82369,44789 82370,44802 Z"/>
    <path fill="none" stroke="rgb(255,255,255)" d="M 82488,44694 L 82532,44694 82532,44711 82517,44711 82517,44762 82526,44764 82622,44560 82270,44560 82264,44581 82475,44774 82481,44770 82488,44766 82495,44763 82503,44762 82503,44711 82488,44711 82488,44694 Z"/>
    <path fill="none" stroke="rgb(255,255,255)" d="M 82184,44794 L 82176,44792 82169,44792 82162,44795 82156,44800 82151,44806 82149,44814 82149,44821 82151,44829 82156,44835 82162,44840 82169,44842 82177,44843 82184,44841 82191,44837 82195,44832 82199,44825 82341,44820 82340,44833 82338,44846 82336,44859 82332,44871 82327,44884 82322,44895 82315,44907 82308,44918 82300,44928 82291,44937 82281,44946 82270,44954 82260,44961 82248,44968 82236,44973 82224,44977 82211,44981 82198,44983 82185,44985 82172,44985 82159,44984 82146,44982 82133,44980 82121,44976 82109,44971 82097,44966 82086,44959 82075,44952 82065,44943 82055,44934 82045,44925 82037,44914 82030,44903 82024,44892 82019,44879 82014,44867 82011,44854 82009,44841 82007,44828 82007,44815 82008,44802 82009,44789 82012,44776 82016,44764 82020,44750 82026,44738 82033,44727 82040,44716 82048,44706 82058,44697 82068,44688 82078,44680 82089,44673 82101,44666 82112,44661 82125,44656 82137,44653 82150,44651 82163,44649 82176,44649 82189,44649 82202,44651 82215,44654 82228,44658 82205,44746 82202,44760 82197,44772 82191,44783 82184,44794 Z"/>
    <path fill="none" stroke="rgb(255,255,255)" d="M 82196,44804 L 82198,44808 82340,44803 82339,44792 82337,44781 82334,44771 82331,44760 82327,44749 82322,44739 82316,44729 82310,44720 82304,44711 82296,44702 82289,44695 82280,44687 82271,44680 82262,44674 82253,44669 82243,44664 82221,44749 82217,44765 82212,44779 82205,44792 82196,44804 Z"/>
    <path fill="none" stroke="rgb(255,255,255)" d="M 82532,44923 L 82532,44939 82488,44939 82488,44923 82503,44923 82503,44873 82496,44871 82489,44869 82483,44866 82477,44862 82471,44858 82466,44852 82462,44847 82459,44840 82457,44834 82455,44827 82454,44820 82454,44813 82455,44806 82457,44799 82460,44792 82464,44786 82260,44599 82252,44627 82268,44634 82282,44643 82296,44652 82309,44663 82321,44674 82332,44687 82342,44701 82351,44715 82359,44730 82365,44745 82370,44762 82374,44779 82377,44796 82378,44812 82378,44829 82376,44846 82369,44845 82370,44832 82371,44819 82359,44819 82358,44835 82356,44851 82352,44867 82348,44883 82341,44898 82334,44912 82325,44926 82315,44939 82304,44951 82291,44961 82278,44971 82265,44980 82250,44987 82235,44993 82219,44998 82204,45001 82746,45001 82731,44998 82716,44993 82701,44988 82687,44981 82673,44972 82660,44963 82649,44953 82638,44941 82627,44929 82619,44916 82611,44902 82604,44887 82599,44872 82595,44857 82592,44841 82591,44825 82579,44825 82580,44839 82582,44852 82575,44854 82573,44840 82572,44825 82565,44825 82563,44834 82559,44843 82554,44850 82548,44857 82542,44863 82534,44868 82525,44871 82517,44873 82517,44923 82532,44923 Z"/>
    <path fill="none" stroke="rgb(255,255,255)" d="M 82921,44738 L 82929,44755 82935,44773 82939,44792 82941,44810 82941,44829 82938,44847 82934,44865 82928,44883 82919,44900 82909,44915 82898,44930 82884,44943 82870,44954 82854,44964 82837,44972 82820,44978 82802,44982 82783,44983 82765,44983 82746,44981 82728,44977 82711,44970 82694,44962 82679,44952 82664,44940 82651,44927 82640,44912 82630,44897 82622,44880 82616,44862 82612,44844 82610,44825 82738,44825 82741,44833 82744,44840 82750,44846 82756,44850 82763,44854 82770,44855 82778,44856 82786,44854 82793,44852 82799,44847 82805,44842 82809,44835 82812,44828 82814,44820 82813,44813 82812,44805 82921,44738 Z"/>
    <path fill="none" stroke="rgb(255,255,255)" d="M 82940,44708 L 82930,44714 82920,44700 82909,44688 82898,44676 82885,44666 82871,44657 82857,44649 82842,44643 82826,44637 82810,44634 82794,44631 82778,44630 82762,44631 82745,44633 82729,44636 82713,44641 82698,44647 82693,44637 82709,44630 82726,44625 82743,44621 82760,44619 82778,44619 82795,44620 82812,44622 82829,44626 82846,44632 82862,44639 82877,44647 82892,44657 82905,44668 82918,44680 82929,44693 82940,44708 Z"/>
    <path fill="none" stroke="rgb(255,255,255)" d="M 82707,44665 L 82721,44659 82735,44655 82749,44652 82763,44651 82778,44650 82792,44651 82807,44653 82821,44656 82835,44661 82848,44667 82861,44674 82873,44682 82884,44691 82895,44701 82904,44712 82913,44724 82803,44791 82795,44785 82786,44780 82776,44779 82766,44780 82707,44665 Z"/>
    <path fill="none" stroke="rgb(255,255,255)" d="M 82326,44501 L 82332,44500 82339,44500 82346,44500 82353,44501 82356,44500 82358,44499 82360,44497 82361,44494 82361,44491 82361,44489 82359,44486 82358,44484 82352,44482 82346,44481 82339,44481 82333,44482 82318,44484 82303,44486 82288,44486 82272,44485 82237,44622 82223,44618 82208,44614 82194,44613 82179,44612 82164,44612 82150,44613 82135,44616 82120,44619 82122,44626 82136,44623 82150,44620 82165,44619 82179,44619 82193,44620 82207,44622 82222,44624 82235,44628 82232,44640 82214,44634 82195,44631 82176,44630 82157,44631 82138,44634 82120,44639 82102,44645 82085,44654 82068,44664 82053,44676 82039,44689 82026,44704 82016,44719 82006,44736 81999,44754 81994,44773 81990,44792 81989,44811 81989,44831 81991,44850 81996,44868 82002,44886 82010,44904 82019,44920 82031,44936 82044,44950 82059,44963 82074,44974 82091,44983 82108,44991 82127,44997 82145,45001 82012,45001 82012,45018 82937,45018 82937,45001 82805,45001 82826,44996 82847,44989 82867,44979 82885,44967 82902,44953 82918,44937 82931,44919 82941,44900 82950,44879 82956,44858 82960,44836 82961,44814 82959,44792 82954,44770 82947,44748 82938,44727 82948,44721 82955,44735 82961,44732 82952,44714 82941,44697 82928,44681 82914,44667 82899,44653 82882,44642 82865,44632 82846,44624 82827,44618 82807,44614 82787,44612 82767,44612 82747,44614 82728,44617 82709,44623 82690,44631 82646,44546 82657,44525 82659,44522 82663,44521 82667,44519 82672,44516 82673,44514 82674,44511 82674,44509 82674,44506 82672,44503 82670,44501 82668,44500 82665,44499 82644,44497 82622,44496 82601,44498 82579,44500 82577,44502 82575,44504 82573,44507 82573,44510 82574,44513 82576,44515 82578,44517 82581,44518 82628,44520 82632,44521 82635,44523 82636,44527 82635,44531 82629,44544 82274,44544 82284,44506 82294,44506 82305,44505 82315,44504 82326,44501 Z"/>
   </g>
  </g>
  <g class="com.sun.star.drawing.PolyPolygonShape">
   <g id="id8">
    <rect class="BoundingBox" stroke="none" fill="none" x="83288" y="44266" width="699" height="969"/>
    <path fill="rgb(255,255,255)" stroke="none" d="M 83714,44772 L 83709,44763 83707,44754 83706,44745 83702,44728 83579,44518 83568,44500 83556,44482 83541,44466 83524,44455 83506,44450 83489,44446 83479,44445 83473,44443 83469,44441 83467,44438 83466,44434 83466,44398 83475,44394 83483,44388 83490,44382 83496,44375 83501,44366 83504,44358 83506,44348 83507,44339 83507,44330 83506,44318 83502,44306 83496,44296 83488,44286 83479,44278 83468,44272 83456,44269 83444,44267 83432,44269 83420,44272 83409,44278 83400,44286 83392,44296 83386,44306 83383,44318 83382,44330 83382,44339 83382,44348 83384,44358 83388,44366 83393,44375 83399,44382 83406,44388 83413,44394 83422,44398 83422,44434 83422,44438 83421,44441 83418,44443 83415,44444 83398,44446 83381,44450 83365,44456 83351,44464 83338,44477 83326,44491 83316,44507 83307,44523 83300,44540 83294,44557 83291,44575 83289,44594 83289,44780 83290,44784 83291,44788 83293,44791 83295,44795 83299,44797 83302,44799 83306,44800 83310,44801 83314,44800 83318,44799 83322,44797 83325,44795 83328,44791 83329,44788 83331,44784 83331,44780 83331,44592 83331,44586 83333,44580 83334,44574 83337,44568 83341,44564 83346,44561 83351,44560 83357,44559 83362,44561 83366,44564 83368,44569 83368,44574 83368,45136 83369,45142 83371,45147 83374,45153 83377,45157 83382,45161 83387,45163 83392,45165 83398,45166 83403,45165 83409,45163 83414,45161 83418,45157 83422,45153 83425,45147 83427,45142 83427,45136 83427,44833 83427,44829 83429,44824 83430,44821 83433,44818 83436,44815 83439,44814 83443,44812 83447,44812 83451,44812 83455,44814 83458,44815 83461,44818 83464,44821 83466,44824 83467,44829 83467,44833 83467,45203 83468,45209 83470,45215 83472,45220 83476,45224 83480,45228 83485,45231 83491,45232 83497,45233 83502,45232 83508,45231 83513,45228 83517,45224 83521,45220 83524,45215 83525,45209 83526,45203 83526,44581 83526,44577 83528,44572 83530,44567 83532,44564 83540,44562 83547,44562 83554,44566 83559,44571 83665,44750 83672,44756 83679,44760 83688,44767 83695,44775 83700,44785 83702,44796 83704,44802 83706,44808 83710,44813 83714,44817 83720,44820 83725,44822 83731,44823 83737,44823 83822,44823 83769,45014 83813,45014 83813,45153 83814,45158 83817,45162 83821,45165 83826,45166 83831,45165 83835,45162 83837,45158 83838,45153 83838,45014 83848,45013 83858,45013 83868,45013 83877,45014 83877,45122 83878,45127 83881,45131 83885,45134 83890,45135 83895,45134 83899,45131 83901,45127 83902,45122 83902,45014 83952,45014 83893,44847 83894,44844 83896,44842 83898,44842 83900,44844 83966,44907 83968,44910 83972,44912 83977,44912 83980,44910 83983,44907 83985,44903 83984,44899 83982,44895 83901,44814 83895,44808 83889,44803 83882,44800 83874,44797 83870,44790 83867,44783 83866,44774 83868,44766 83875,44763 83882,44759 83888,44753 83892,44746 83896,44739 83898,44731 83899,44723 83899,44715 83897,44707 83893,44700 83889,44693 83883,44687 83877,44683 83869,44679 83862,44677 83854,44676 83846,44677 83838,44679 83830,44682 83824,44687 83818,44693 83814,44699 83810,44707 83808,44715 83807,44723 83808,44731 83810,44739 83814,44746 83819,44753 83824,44758 83831,44763 83838,44766 83841,44782 83842,44788 83840,44793 83838,44797 83834,44801 83746,44801 83741,44802 83735,44800 83731,44797 83727,44793 83726,44787 83723,44781 83719,44776 83714,44772 Z"/>
    <path fill="none" stroke="rgb(255,255,255)" d="M 83714,44772 L 83709,44763 83707,44754 83706,44745 83702,44728 83579,44518 83568,44500 83556,44482 83541,44466 83524,44455 83506,44450 83489,44446 83479,44445 83473,44443 83469,44441 83467,44438 83466,44434 83466,44398 83475,44394 83483,44388 83490,44382 83496,44375 83501,44366 83504,44358 83506,44348 83507,44339 83507,44330 83506,44318 83502,44306 83496,44296 83488,44286 83479,44278 83468,44272 83456,44269 83444,44267 83432,44269 83420,44272 83409,44278 83400,44286 83392,44296 83386,44306 83383,44318 83382,44330 83382,44339 83382,44348 83384,44358 83388,44366 83393,44375 83399,44382 83406,44388 83413,44394 83422,44398 83422,44434 83422,44438 83421,44441 83418,44443 83415,44444 83398,44446 83381,44450 83365,44456 83351,44464 83338,44477 83326,44491 83316,44507 83307,44523 83300,44540 83294,44557 83291,44575 83289,44594 83289,44780 83290,44784 83291,44788 83293,44791 83295,44795 83299,44797 83302,44799 83306,44800 83310,44801 83314,44800 83318,44799 83322,44797 83325,44795 83328,44791 83329,44788 83331,44784 83331,44780 83331,44592 83331,44586 83333,44580 83334,44574 83337,44568 83341,44564 83346,44561 83351,44560 83357,44559 83362,44561 83366,44564 83368,44569 83368,44574 83368,45136 83369,45142 83371,45147 83374,45153 83377,45157 83382,45161 83387,45163 83392,45165 83398,45166 83403,45165 83409,45163 83414,45161 83418,45157 83422,45153 83425,45147 83427,45142 83427,45136 83427,44833 83427,44829 83429,44824 83430,44821 83433,44818 83436,44815 83439,44814 83443,44812 83447,44812 83451,44812 83455,44814 83458,44815 83461,44818 83464,44821 83466,44824 83467,44829 83467,44833 83467,45203 83468,45209 83470,45215 83472,45220 83476,45224 83480,45228 83485,45231 83491,45232 83497,45233 83502,45232 83508,45231 83513,45228 83517,45224 83521,45220 83524,45215 83525,45209 83526,45203 83526,44581 83526,44577 83528,44572 83530,44567 83532,44564 83540,44562 83547,44562 83554,44566 83559,44571 83665,44750 83672,44756 83679,44760 83688,44767 83695,44775 83700,44785 83702,44796 83704,44802 83706,44808 83710,44813 83714,44817 83720,44820 83725,44822 83731,44823 83737,44823 83822,44823 83769,45014 83813,45014 83813,45153 83814,45158 83817,45162 83821,45165 83826,45166 83831,45165 83835,45162 83837,45158 83838,45153 83838,45014 83848,45013 83858,45013 83868,45013 83877,45014 83877,45122 83878,45127 83881,45131 83885,45134 83890,45135 83895,45134 83899,45131 83901,45127 83902,45122 83902,45014 83952,45014 83893,44847 83894,44844 83896,44842 83898,44842 83900,44844 83966,44907 83968,44910 83972,44912 83977,44912 83980,44910 83983,44907 83985,44903 83984,44899 83982,44895 83901,44814 83895,44808 83889,44803 83882,44800 83874,44797 83870,44790 83867,44783 83866,44774 83868,44766 83875,44763 83882,44759 83888,44753 83892,44746 83896,44739 83898,44731 83899,44723 83899,44715 83897,44707 83893,44700 83889,44693 83883,44687 83877,44683 83869,44679 83862,44677 83854,44676 83846,44677 83838,44679 83830,44682 83824,44687 83818,44693 83814,44699 83810,44707 83808,44715 83807,44723 83808,44731 83810,44739 83814,44746 83819,44753 83824,44758 83831,44763 83838,44766 83841,44782 83842,44788 83840,44793 83838,44797 83834,44801 83746,44801 83741,44802 83735,44800 83731,44797 83727,44793 83726,44787 83723,44781 83719,44776 83714,44772 Z"/>
   </g>
  </g>
  <g class="com.sun.star.drawing.PolyPolygonShape">
   <g id="id9">
    <rect class="BoundingBox" stroke="none" fill="none" x="83288" y="44266" width="699" height="969"/>
    <path fill="rgb(255,255,255)" stroke="none" d="M 83714,44772 L 83709,44763 83707,44754 83706,44745 83702,44728 83579,44518 83568,44500 83556,44482 83541,44466 83524,44455 83506,44450 83489,44446 83479,44445 83473,44443 83469,44441 83467,44438 83466,44434 83466,44398 83475,44394 83483,44388 83490,44382 83496,44375 83501,44366 83504,44358 83506,44348 83507,44339 83507,44330 83506,44318 83502,44306 83496,44296 83488,44286 83479,44278 83468,44272 83456,44269 83444,44267 83432,44269 83420,44272 83409,44278 83400,44286 83392,44296 83386,44306 83383,44318 83382,44330 83382,44339 83382,44348 83384,44358 83388,44366 83393,44375 83399,44382 83406,44388 83413,44394 83422,44398 83422,44434 83422,44438 83421,44441 83418,44443 83415,44444 83398,44446 83381,44450 83365,44456 83351,44464 83338,44477 83326,44491 83316,44507 83307,44523 83300,44540 83294,44557 83291,44575 83289,44594 83289,44780 83290,44784 83291,44788 83293,44791 83295,44795 83299,44797 83302,44799 83306,44800 83310,44801 83314,44800 83318,44799 83322,44797 83325,44795 83328,44791 83329,44788 83331,44784 83331,44780 83331,44592 83331,44586 83333,44580 83334,44574 83337,44568 83341,44564 83346,44561 83351,44560 83357,44559 83362,44561 83366,44564 83368,44569 83368,44574 83368,45136 83369,45142 83371,45147 83374,45153 83377,45157 83382,45161 83387,45163 83392,45165 83398,45166 83403,45165 83409,45163 83414,45161 83418,45157 83422,45153 83425,45147 83427,45142 83427,45136 83427,44833 83427,44829 83429,44824 83430,44821 83433,44818 83436,44815 83439,44814 83443,44812 83447,44812 83451,44812 83455,44814 83458,44815 83461,44818 83464,44821 83466,44824 83467,44829 83467,44833 83467,45203 83468,45209 83470,45215 83472,45220 83476,45224 83480,45228 83485,45231 83491,45232 83497,45233 83502,45232 83508,45231 83513,45228 83517,45224 83521,45220 83524,45215 83525,45209 83526,45203 83526,44581 83526,44577 83528,44572 83530,44567 83532,44564 83540,44562 83547,44562 83554,44566 83559,44571 83665,44750 83672,44756 83679,44760 83688,44767 83695,44775 83700,44785 83702,44796 83704,44802 83706,44808 83710,44813 83714,44817 83720,44820 83725,44822 83731,44823 83737,44823 83822,44823 83769,45014 83813,45014 83813,45153 83814,45158 83817,45162 83821,45165 83826,45166 83831,45165 83835,45162 83837,45158 83838,45153 83838,45014 83848,45013 83858,45013 83868,45013 83877,45014 83877,45122 83878,45127 83881,45131 83885,45134 83890,45135 83895,45134 83899,45131 83901,45127 83902,45122 83902,45014 83952,45014 83893,44847 83894,44844 83896,44842 83898,44842 83900,44844 83966,44907 83968,44910 83972,44912 83977,44912 83980,44910 83983,44907 83985,44903 83984,44899 83982,44895 83901,44814 83895,44808 83889,44803 83882,44800 83874,44797 83870,44790 83867,44783 83866,44774 83868,44766 83875,44763 83882,44759 83888,44753 83892,44746 83896,44739 83898,44731 83899,44723 83899,44715 83897,44707 83893,44700 83889,44693 83883,44687 83877,44683 83869,44679 83862,44677 83854,44676 83846,44677 83838,44679 83830,44682 83824,44687 83818,44693 83814,44699 83810,44707 83808,44715 83807,44723 83808,44731 83810,44739 83814,44746 83819,44753 83824,44758 83831,44763 83838,44766 83841,44782 83842,44788 83840,44793 83838,44797 83834,44801 83746,44801 83741,44802 83735,44800 83731,44797 83727,44793 83726,44787 83723,44781 83719,44776 83714,44772 Z"/>
    <path fill="none" stroke="rgb(255,255,255)" d="M 83714,44772 L 83709,44763 83707,44754 83706,44745 83702,44728 83579,44518 83568,44500 83556,44482 83541,44466 83524,44455 83506,44450 83489,44446 83479,44445 83473,44443 83469,44441 83467,44438 83466,44434 83466,44398 83475,44394 83483,44388 83490,44382 83496,44375 83501,44366 83504,44358 83506,44348 83507,44339 83507,44330 83506,44318 83502,44306 83496,44296 83488,44286 83479,44278 83468,44272 83456,44269 83444,44267 83432,44269 83420,44272 83409,44278 83400,44286 83392,44296 83386,44306 83383,44318 83382,44330 83382,44339 83382,44348 83384,44358 83388,44366 83393,44375 83399,44382 83406,44388 83413,44394 83422,44398 83422,44434 83422,44438 83421,44441 83418,44443 83415,44444 83398,44446 83381,44450 83365,44456 83351,44464 83338,44477 83326,44491 83316,44507 83307,44523 83300,44540 83294,44557 83291,44575 83289,44594 83289,44780 83290,44784 83291,44788 83293,44791 83295,44795 83299,44797 83302,44799 83306,44800 83310,44801 83314,44800 83318,44799 83322,44797 83325,44795 83328,44791 83329,44788 83331,44784 83331,44780 83331,44592 83331,44586 83333,44580 83334,44574 83337,44568 83341,44564 83346,44561 83351,44560 83357,44559 83362,44561 83366,44564 83368,44569 83368,44574 83368,45136 83369,45142 83371,45147 83374,45153 83377,45157 83382,45161 83387,45163 83392,45165 83398,45166 83403,45165 83409,45163 83414,45161 83418,45157 83422,45153 83425,45147 83427,45142 83427,45136 83427,44833 83427,44829 83429,44824 83430,44821 83433,44818 83436,44815 83439,44814 83443,44812 83447,44812 83451,44812 83455,44814 83458,44815 83461,44818 83464,44821 83466,44824 83467,44829 83467,44833 83467,45203 83468,45209 83470,45215 83472,45220 83476,45224 83480,45228 83485,45231 83491,45232 83497,45233 83502,45232 83508,45231 83513,45228 83517,45224 83521,45220 83524,45215 83525,45209 83526,45203 83526,44581 83526,44577 83528,44572 83530,44567 83532,44564 83540,44562 83547,44562 83554,44566 83559,44571 83665,44750 83672,44756 83679,44760 83688,44767 83695,44775 83700,44785 83702,44796 83704,44802 83706,44808 83710,44813 83714,44817 83720,44820 83725,44822 83731,44823 83737,44823 83822,44823 83769,45014 83813,45014 83813,45153 83814,45158 83817,45162 83821,45165 83826,45166 83831,45165 83835,45162 83837,45158 83838,45153 83838,45014 83848,45013 83858,45013 83868,45013 83877,45014 83877,45122 83878,45127 83881,45131 83885,45134 83890,45135 83895,45134 83899,45131 83901,45127 83902,45122 83902,45014 83952,45014 83893,44847 83894,44844 83896,44842 83898,44842 83900,44844 83966,44907 83968,44910 83972,44912 83977,44912 83980,44910 83983,44907 83985,44903 83984,44899 83982,44895 83901,44814 83895,44808 83889,44803 83882,44800 83874,44797 83870,44790 83867,44783 83866,44774 83868,44766 83875,44763 83882,44759 83888,44753 83892,44746 83896,44739 83898,44731 83899,44723 83899,44715 83897,44707 83893,44700 83889,44693 83883,44687 83877,44683 83869,44679 83862,44677 83854,44676 83846,44677 83838,44679 83830,44682 83824,44687 83818,44693 83814,44699 83810,44707 83808,44715 83807,44723 83808,44731 83810,44739 83814,44746 83819,44753 83824,44758 83831,44763 83838,44766 83841,44782 83842,44788 83840,44793 83838,44797 83834,44801 83746,44801 83741,44802 83735,44800 83731,44797 83727,44793 83726,44787 83723,44781 83719,44776 83714,44772 Z"/>
   </g>
  </g>
 </g>
</svg>