<?xml version="1.0" encoding="UTF-8" standalone="no"?>
<svg
   version="1.2"
   width="13.85mm"
   height="9.04mm"
   viewBox="93108 49498 1385 904"
   preserveAspectRatio="xMidYMid"
   fill-rule="evenodd"
   stroke-width="28.222"
   stroke-linejoin="round"
   xml:space="preserve"
   id="svg156"
   sodipodi:docname="Belgian_traffic_sign_GF98.svg"
   inkscape:version="1.2.2 (732a01da63, 2022-12-09)"
   xmlns:inkscape="http://www.inkscape.org/namespaces/inkscape"
   xmlns:sodipodi="http://sodipodi.sourceforge.net/DTD/sodipodi-0.dtd"
   xmlns="http://www.w3.org/2000/svg"
   xmlns:svg="http://www.w3.org/2000/svg"><sodipodi:namedview
   id="namedview158"
   pagecolor="#ffffff"
   bordercolor="#111111"
   borderopacity="1"
   inkscape:showpageshadow="0"
   inkscape:pageopacity="0"
   inkscape:pagecheckerboard="1"
   inkscape:deskcolor="#d1d1d1"
   inkscape:document-units="mm"
   showgrid="false"
   inkscape:zoom="19.536693"
   inkscape:cx="22.675281"
   inkscape:cy="14.587935"
   inkscape:window-width="1920"
   inkscape:window-height="1057"
   inkscape:window-x="-8"
   inkscape:window-y="-8"
   inkscape:window-maximized="1"
   inkscape:current-layer="id3" />
 <defs
   class="EmbeddedBulletChars"
   id="defs32">
  <g
   id="bullet-char-template-57356"
   transform="scale(0.00048828125,-0.00048828125)">
   <path
   d="M 580,1141 L 1163,571 580,0 -4,571 580,1141 Z"
   id="path2" />
  </g>
  <g
   id="bullet-char-template-57354"
   transform="scale(0.00048828125,-0.00048828125)">
   <path
   d="M 8,1128 L 1137,1128 1137,0 8,0 8,1128 Z"
   id="path5" />
  </g>
  <g
   id="bullet-char-template-10146"
   transform="scale(0.00048828125,-0.00048828125)">
   <path
   d="M 174,0 L 602,739 174,1481 1456,739 174,0 Z M 1358,739 L 309,1346 659,739 1358,739 Z"
   id="path8" />
  </g>
  <g
   id="bullet-char-template-10132"
   transform="scale(0.00048828125,-0.00048828125)">
   <path
   d="M 2015,739 L 1276,0 717,0 1260,543 174,543 174,936 1260,936 717,1481 1274,1481 2015,739 Z"
   id="path11" />
  </g>
  <g
   id="bullet-char-template-10007"
   transform="scale(0.00048828125,-0.00048828125)">
   <path
   d="M 0,-2 C -7,14 -16,27 -25,37 L 356,567 C 262,823 215,952 215,954 215,979 228,992 255,992 264,992 276,990 289,987 310,991 331,999 354,1012 L 381,999 492,748 772,1049 836,1024 860,1049 C 881,1039 901,1025 922,1006 886,937 835,863 770,784 769,783 710,716 594,584 L 774,223 C 774,196 753,168 711,139 L 727,119 C 717,90 699,76 672,76 641,76 570,178 457,381 L 164,-76 C 142,-110 111,-127 72,-127 30,-127 9,-110 8,-76 1,-67 -2,-52 -2,-32 -2,-23 -1,-13 0,-2 Z"
   id="path14" />
  </g>
  <g
   id="bullet-char-template-10004"
   transform="scale(0.00048828125,-0.00048828125)">
   <path
   d="M 285,-33 C 182,-33 111,30 74,156 52,228 41,333 41,471 41,549 55,616 82,672 116,743 169,778 240,778 293,778 328,747 346,684 L 369,508 C 377,444 397,411 428,410 L 1163,1116 C 1174,1127 1196,1133 1229,1133 1271,1133 1292,1118 1292,1087 L 1292,965 C 1292,929 1282,901 1262,881 L 442,47 C 390,-6 338,-33 285,-33 Z"
   id="path17" />
  </g>
  <g
   id="bullet-char-template-9679"
   transform="scale(0.00048828125,-0.00048828125)">
   <path
   d="M 813,0 C 632,0 489,54 383,161 276,268 223,411 223,592 223,773 276,916 383,1023 489,1130 632,1184 813,1184 992,1184 1136,1130 1245,1023 1353,916 1407,772 1407,592 1407,412 1353,268 1245,161 1136,54 992,0 813,0 Z"
   id="path20" />
  </g>
  <g
   id="bullet-char-template-8226"
   transform="scale(0.00048828125,-0.00048828125)">
   <path
   d="M 346,457 C 273,457 209,483 155,535 101,586 74,649 74,723 74,796 101,859 155,911 209,963 273,989 346,989 419,989 480,963 531,910 582,859 608,796 608,723 608,648 583,586 532,535 482,483 420,457 346,457 Z"
   id="path23" />
  </g>
  <g
   id="bullet-char-template-8211"
   transform="scale(0.00048828125,-0.00048828125)">
   <path
   d="M -4,459 L 1135,459 1135,606 -4,606 -4,459 Z"
   id="path26" />
  </g>
  <g
   id="bullet-char-template-61548"
   transform="scale(0.00048828125,-0.00048828125)">
   <path
   d="M 173,740 C 173,903 231,1043 346,1159 462,1274 601,1332 765,1332 928,1332 1067,1274 1183,1159 1299,1043 1357,903 1357,740 1357,577 1299,437 1183,322 1067,206 928,148 765,148 601,148 462,206 346,322 231,437 173,577 173,740 Z"
   id="path29" />
  </g>
 </defs>
 <g
   class="Page"
   id="g154">
  <g
   class="com.sun.star.drawing.PolyPolygonShape"
   id="g41">
   <g
   id="id3">
    <rect
   class="BoundingBox"
   stroke="none"
   fill="none"
   x="93108"
   y="49498"
   width="1385"
   height="904"
   id="rect34" />
    
    <path
   fill="none"
   stroke="rgb(0,0,0)"
   d="M 93210,50400 L 94391,50400 94393,50400 94396,50400 94398,50400 94401,50400 94403,50400 94406,50399 94408,50399 94410,50398 94413,50398 94415,50398 94418,50397 94420,50396 94422,50395 94425,50395 94427,50394 94429,50393 94431,50392 94434,50391 94436,50390 94438,50389 94440,50388 94442,50386 94444,50385 94446,50384 94448,50383 94450,50381 94452,50380 94454,50378 94456,50377 94458,50375 94460,50374 94461,50372 94463,50370 94465,50368 94466,50367 94468,50365 94470,50363 94471,50361 94472,50359 94474,50357 94475,50355 94477,50353 94478,50351 94479,50349 94480,50347 94481,50345 94482,50342 94483,50340 94484,50338 94485,50336 94486,50334 94486,50331 94487,50329 94488,50327 94488,50324 94489,50322 94489,50320 94490,50317 94490,50315 94490,50312 94490,50310 94491,50308 94491,50305 94491,50303 94491,49597 94491,49595 94491,49592 94490,49590 94490,49587 94490,49585 94490,49583 94489,49580 94489,49578 94488,49576 94488,49573 94487,49571 94486,49569 94486,49566 94485,49564 94484,49562 94483,49560 94482,49558 94481,49555 94480,49553 94479,49551 94478,49549 94477,49547 94475,49545 94474,49543 94472,49541 94471,49539 94470,49537 94468,49535 94466,49533 94465,49532 94463,49530 94461,49528 94460,49526 94458,49525 94456,49523 94454,49522 94452,49520 94450,49519 94448,49517 94446,49516 94444,49515 94442,49513 94440,49512 94438,49511 94436,49510 94434,49509 94431,49508 94429,49507 94427,49506 94425,49505 94422,49504 94420,49504 94418,49503 94415,49502 94413,49502 94410,49501 94408,49501 94406,49501 94403,49500 94401,49500 94398,49500 94396,49500 94393,49500 94391,49499 93210,49499 93208,49500 93205,49500 93203,49500 93200,49500 93198,49500 93195,49501 93193,49501 93190,49501 93188,49502 93186,49502 93183,49503 93181,49504 93179,49504 93176,49505 93174,49506 93172,49507 93169,49508 93167,49509 93165,49510 93163,49511 93161,49512 93159,49513 93157,49515 93155,49516 93153,49517 93149,49519 93148,49520 93146,49522 93144,49523 93142,49525 93140,49526 93138,49528 93137,49530 93135,49532 93133,49533 93132,49535 93130,49537 93129,49539 93127,49541 93126,49543 93125,49545 93123,49547 93122,49549 93121,49551 93120,49553 93119,49555 93118,49558 93117,49560 93116,49562 93115,49564 93114,49566 93114,49569 93113,49571 93112,49573 93112,49576 93111,49578 93111,49580 93110,49583 93110,49585 93110,49587 93109,49590 93109,49592 93109,49595 93109,49597 93109,50303 93109,50305 93109,50308 93109,50310 93110,50312 93110,50315 93110,50317 93111,50320 93111,50322 93112,50324 93112,50327 93113,50329 93114,50331 93114,50334 93115,50336 93116,50338 93117,50340 93118,50342 93119,50345 93120,50347 93121,50349 93122,50351 93123,50353 93125,50355 93126,50357 93127,50359 93129,50361 93130,50363 93132,50365 93133,50367 93135,50368 93137,50370 93138,50372 93140,50374 93142,50375 93144,50377 93146,50378 93148,50380 93149,50381 93153,50383 93155,50384 93157,50385 93159,50386 93161,50388 93163,50389 93165,50390 93167,50391 93169,50392 93172,50393 93174,50394 93176,50395 93179,50395 93181,50396 93183,50397 93186,50398 93188,50398 93190,50398 93193,50399 93195,50399 93198,50400 93200,50400 93203,50400 93205,50400 93208,50400 93210,50400 Z"
   id="path38"
   style="fill:#ffffff;stroke-width:10.0000002;stroke-dasharray:none" />
   </g>
  </g>
  <g
   class="com.sun.star.drawing.PolyPolygonShape"
   id="g50">
   <g
   id="id4">
    <rect
   class="BoundingBox"
   stroke="none"
   fill="none"
   x="93131"
   y="49521"
   width="1339"
   height="859"
   id="rect43" />
    
    
   </g>
  </g>
  <g
   class="com.sun.star.drawing.PolyPolygonShape"
   id="g59">
   <g
   id="id5">
    <rect
   class="BoundingBox"
   stroke="none"
   fill="none"
   x="93154"
   y="49543"
   width="1293"
   height="814"
   id="rect52" />
    
    
   </g>
  </g>
  <g
   class="com.sun.star.drawing.PolyPolygonShape"
   id="g68">
   <g
   id="id6">
    <rect
   class="BoundingBox"
   stroke="none"
   fill="none"
   x="93205"
   y="49648"
   width="332"
   height="604"
   id="rect61"
   style="stroke:none" />
    <path
   fill="rgb(255,0,0)"
   stroke="none"
   d="M 93469,49708 L 93469,49714 93426,49714 93426,49755 93427,49756 93428,49757 93429,49757 93431,49758 93432,49759 93433,49759 93434,49760 93435,49761 93436,49762 93437,49763 93439,49763 93440,49764 93441,49765 93442,49766 93443,49767 93444,49768 93445,49769 93446,49770 93447,49771 93448,49772 93449,49773 93450,49774 93451,49775 93451,49776 93452,49777 93453,49778 93454,49779 93455,49780 93456,49781 93456,49782 93457,49783 93458,49785 93458,49786 93459,49787 93460,49788 93461,49789 93461,49791 93462,49792 93462,49793 93463,49794 93463,49795 93464,49797 93464,49798 93465,49799 93465,49800 93466,49802 93466,49803 93467,49804 93467,49806 93467,49807 93468,49808 93468,49810 93468,49811 93469,49812 93469,49814 93469,49815 93469,49816 93469,49818 93469,49819 93469,49821 93469,49822 93470,49823 93470,49825 93470,49826 93470,50250 93293,50250 93293,49826 93293,49825 93293,49823 93293,49822 93293,49821 93293,49819 93293,49818 93294,49816 93294,49815 93294,49814 93294,49812 93294,49811 93295,49810 93295,49808 93295,49807 93296,49806 93296,49804 93296,49803 93297,49802 93297,49800 93298,49799 93298,49798 93299,49797 93299,49795 93300,49794 93300,49793 93301,49792 93301,49790 93302,49789 93303,49788 93303,49787 93304,49786 93305,49785 93306,49783 93306,49782 93307,49781 93308,49780 93309,49779 93309,49778 93310,49777 93311,49776 93312,49775 93313,49774 93314,49773 93315,49772 93316,49771 93318,49770 93319,49769 93320,49768 93321,49767 93322,49766 93323,49765 93324,49764 93325,49763 93326,49762 93327,49762 93328,49761 93330,49760 93331,49759 93332,49759 93333,49758 93334,49757 93335,49757 93337,49756 93338,49755 93338,49714 93336,49715 93334,49715 93333,49715 93331,49716 93329,49716 93327,49717 93326,49717 93324,49718 93322,49718 93321,49719 93319,49719 93316,49720 93314,49720 93313,49721 93311,49721 93309,49722 93308,49723 93306,49723 93304,49724 93303,49725 93301,49725 93299,49726 93298,49727 93296,49727 93294,49728 93293,49729 93291,49730 93290,49731 93288,49731 93286,49732 93285,49733 93283,49734 93282,49735 93280,49736 93279,49737 93277,49738 93276,49738 93274,49739 93273,49740 93271,49741 93270,49743 93269,49744 93267,49745 93266,49746 93265,49747 93263,49748 93262,49749 93261,49750 93260,49751 93259,49752 93258,49753 93257,49754 93256,49755 93256,49756 93255,49757 93254,49757 93254,49758 93253,49759 93253,49760 93252,49760 93252,49761 93251,49762 93251,49763 93250,49764 93250,49765 93249,49765 93249,49766 93249,49767 93248,49768 93248,49769 93248,49770 93247,49771 93247,49772 93246,49773 93246,49774 93246,49775 93246,49776 93236,49816 93206,49811 93216,49768 93216,49766 93216,49764 93217,49763 93218,49761 93218,49759 93219,49757 93220,49756 93220,49754 93221,49752 93222,49751 93223,49749 93224,49747 93225,49746 93225,49744 93227,49743 93228,49741 93229,49739 93231,49736 93233,49734 93234,49731 93236,49729 93238,49727 93240,49725 93242,49722 93244,49720 93246,49718 93248,49716 93250,49714 93252,49712 93254,49710 93256,49708 93258,49706 93259,49704 93261,49703 93262,49702 93264,49701 93265,49699 93266,49698 93268,49697 93269,49696 93271,49695 93273,49694 93274,49693 93276,49692 93277,49691 93279,49690 93281,49689 93282,49688 93284,49687 93286,49686 93287,49685 93289,49684 93291,49683 93292,49683 93294,49682 93296,49681 93298,49680 93299,49680 93301,49679 93303,49678 93305,49678 93307,49677 93308,49677 93310,49676 93314,49675 93318,49675 93321,49674 93324,49673 93328,49672 93331,49672 93334,49671 93337,49671 93337,49649 93416,49649 93419,49670 93469,49670 93469,49678 93535,49678 93535,49708 93469,49708 Z"
   id="path63"
   style="stroke:none" />
    <path
   fill="none"
   stroke="rgb(255,0,0)"
   d="M 93469,49708 L 93469,49714 93426,49714 93426,49755 93427,49756 93428,49757 93429,49757 93431,49758 93432,49759 93433,49759 93434,49760 93435,49761 93436,49762 93437,49763 93439,49763 93440,49764 93441,49765 93442,49766 93443,49767 93444,49768 93445,49769 93446,49770 93447,49771 93448,49772 93449,49773 93450,49774 93451,49775 93451,49776 93452,49777 93453,49778 93454,49779 93455,49780 93456,49781 93456,49782 93457,49783 93458,49785 93458,49786 93459,49787 93460,49788 93461,49789 93461,49791 93462,49792 93462,49793 93463,49794 93463,49795 93464,49797 93464,49798 93465,49799 93465,49800 93466,49802 93466,49803 93467,49804 93467,49806 93467,49807 93468,49808 93468,49810 93468,49811 93469,49812 93469,49814 93469,49815 93469,49816 93469,49818 93469,49819 93469,49821 93469,49822 93470,49823 93470,49825 93470,49826 93470,50250 93293,50250 93293,49826 93293,49825 93293,49823 93293,49822 93293,49821 93293,49819 93293,49818 93294,49816 93294,49815 93294,49814 93294,49812 93294,49811 93295,49810 93295,49808 93295,49807 93296,49806 93296,49804 93296,49803 93297,49802 93297,49800 93298,49799 93298,49798 93299,49797 93299,49795 93300,49794 93300,49793 93301,49792 93301,49790 93302,49789 93303,49788 93303,49787 93304,49786 93305,49785 93306,49783 93306,49782 93307,49781 93308,49780 93309,49779 93309,49778 93310,49777 93311,49776 93312,49775 93313,49774 93314,49773 93315,49772 93316,49771 93318,49770 93319,49769 93320,49768 93321,49767 93322,49766 93323,49765 93324,49764 93325,49763 93326,49762 93327,49762 93328,49761 93330,49760 93331,49759 93332,49759 93333,49758 93334,49757 93335,49757 93337,49756 93338,49755 93338,49714 93336,49715 93334,49715 93333,49715 93331,49716 93329,49716 93327,49717 93326,49717 93324,49718 93322,49718 93321,49719 93319,49719 93316,49720 93314,49720 93313,49721 93311,49721 93309,49722 93308,49723 93306,49723 93304,49724 93303,49725 93301,49725 93299,49726 93298,49727 93296,49727 93294,49728 93293,49729 93291,49730 93290,49731 93288,49731 93286,49732 93285,49733 93283,49734 93282,49735 93280,49736 93279,49737 93277,49738 93276,49738 93274,49739 93273,49740 93271,49741 93270,49743 93269,49744 93267,49745 93266,49746 93265,49747 93263,49748 93262,49749 93261,49750 93260,49751 93259,49752 93258,49753 93257,49754 93256,49755 93256,49756 93255,49757 93254,49757 93254,49758 93253,49759 93253,49760 93252,49760 93252,49761 93251,49762 93251,49763 93250,49764 93250,49765 93249,49765 93249,49766 93249,49767 93248,49768 93248,49769 93248,49770 93247,49771 93247,49772 93246,49773 93246,49774 93246,49775 93246,49776 93236,49816 93206,49811 93216,49768 93216,49766 93216,49764 93217,49763 93218,49761 93218,49759 93219,49757 93220,49756 93220,49754 93221,49752 93222,49751 93223,49749 93224,49747 93225,49746 93225,49744 93227,49743 93228,49741 93229,49739 93231,49736 93233,49734 93234,49731 93236,49729 93238,49727 93240,49725 93242,49722 93244,49720 93246,49718 93248,49716 93250,49714 93252,49712 93254,49710 93256,49708 93258,49706 93259,49704 93261,49703 93262,49702 93264,49701 93265,49699 93266,49698 93268,49697 93269,49696 93271,49695 93273,49694 93274,49693 93276,49692 93277,49691 93279,49690 93281,49689 93282,49688 93284,49687 93286,49686 93287,49685 93289,49684 93291,49683 93292,49683 93294,49682 93296,49681 93298,49680 93299,49680 93301,49679 93303,49678 93305,49678 93307,49677 93308,49677 93310,49676 93314,49675 93318,49675 93321,49674 93324,49673 93328,49672 93331,49672 93334,49671 93337,49671 93337,49649 93416,49649 93419,49670 93469,49670 93469,49678 93535,49678 93535,49708 93469,49708 Z"
   id="path65"
   style="stroke:none" />
   </g>
  </g>
  <g
   class="com.sun.star.drawing.PolyPolygonShape"
   id="g75"
   style="stroke:none">
   <g
   id="id7"
   style="stroke:none">
    <rect
   class="BoundingBox"
   stroke="none"
   fill="none"
   x="93958"
   y="49649"
   width="395"
   height="602"
   id="rect70"
   style="stroke:none" />
    <path
   fill="rgb(0,0,0)"
   stroke="none"
   d="M 94163,49775 L 94167,49781 94172,49788 94176,49795 94180,49801 94184,49808 94189,49815 94193,49822 94197,49829 94201,49835 94205,49842 94209,49849 94213,49856 94217,49863 94221,49870 94225,49876 94229,49883 94233,49890 94237,49897 94241,49904 94245,49911 94248,49918 94252,49925 94256,49932 94260,49939 94263,49946 94267,49953 94270,49960 94274,49967 94278,49974 94282,49982 94286,49989 94289,49996 94288,49992 94286,49989 94285,49985 94283,49981 94282,49977 94280,49974 94279,49970 94277,49966 94275,49963 94273,49959 94272,49955 94270,49952 94268,49948 94267,49944 94265,49941 94263,49937 94262,49934 94260,49930 94258,49927 94256,49923 94255,49919 94253,49916 94251,49912 94249,49909 94247,49905 94246,49902 94244,49898 94242,49895 94240,49891 94238,49888 94236,49884 94234,49881 94232,49877 94230,49874 94228,49870 94226,49867 94224,49863 94222,49860 94220,49857 94218,49853 94216,49850 94214,49846 94212,49843 94209,49840 94207,49836 94205,49833 94203,49830 94201,49826 94198,49823 94196,49820 94194,49817 94192,49813 94189,49810 94187,49807 94185,49803 94182,49800 94180,49797 94178,49794 94175,49791 94173,49787 94170,49784 94168,49781 94165,49778 94163,49775 Z M 94262,50064 L 94262,50063 94262,50062 94262,50060 94262,50059 94262,50058 94262,50057 94262,50055 94262,50054 94262,50053 94262,50052 94262,50051 94262,50049 94261,50048 94261,50047 94261,50046 94260,50045 94255,50046 94255,50047 94256,50048 94256,50049 94256,50050 94256,50051 94256,50052 94257,50053 94257,50054 94257,50056 94257,50057 94257,50058 94257,50059 94257,50060 94256,50061 94256,50062 94256,50063 94262,50064 Z M 94289,50125 L 94292,50132 94293,50132 94295,50131 94296,50131 94297,50130 94298,50130 94299,50129 94300,50128 94301,50128 94303,50127 94304,50126 94305,50125 94306,50124 94307,50123 94308,50122 94308,50121 94309,50120 94289,50125 Z M 94270,50048 L 94274,50062 94282,50065 94282,50064 94282,50063 94282,50062 94282,50061 94282,50060 94282,50059 94282,50058 94282,50057 94282,50056 94282,50055 94282,50054 94282,50053 94281,50052 94281,50051 94281,50050 94280,50049 94270,50048 Z M 94280,50127 L 94278,50127 94277,50128 94274,50128 94273,50128 94271,50128 94270,50128 94268,50129 94267,50129 94265,50129 94264,50129 94262,50129 94260,50129 94259,50129 94257,50129 94256,50129 94254,50129 94256,50129 94257,50130 94259,50131 94260,50131 94262,50132 94263,50132 94265,50133 94266,50133 94268,50133 94269,50134 94271,50134 94272,50134 94274,50134 94277,50134 94278,50134 94280,50134 94280,50127 Z M 94109,49696 L 94107,49696 94105,49695 94104,49694 94102,49694 94100,49693 94098,49692 94096,49692 94095,49691 94093,49691 94091,49691 94089,49690 94087,49690 94085,49690 94083,49689 94081,49689 94079,49689 94079,49696 94080,49696 94081,49696 94083,49696 94084,49696 94086,49696 94087,49697 94088,49697 94090,49697 94091,49697 94093,49698 94094,49698 94095,49699 94097,49699 94098,49699 94099,49700 94100,49701 94102,49701 94103,49702 94104,49702 94106,49703 94107,49704 94108,49704 94109,49705 94110,49706 94111,49707 94112,49708 94114,49708 94115,49709 94116,49710 94117,49711 94118,49712 94119,49713 94109,49696 Z M 94058,49742 L 94045,49750 94043,49758 94037,49762 94041,49769 94054,49761 94053,49751 94060,49748 94058,49742 Z M 94263,50022 L 94260,50012 94229,50007 94230,50014 94219,50011 94218,50011 94217,50011 94216,50011 94215,50011 94214,50011 94214,50012 94213,50012 94212,50013 94212,50014 94211,50014 94211,50015 94194,50145 94194,50146 94194,50147 94194,50148 94194,50149 94194,50150 94194,50151 94195,50152 94195,50153 94196,50154 94196,50155 94197,50155 94198,50156 94199,50156 94199,50157 94200,50157 94201,50157 94201,50158 94202,50158 94203,50158 94207,50159 94211,50160 94214,50160 94218,50161 94221,50161 94225,50162 94228,50162 94232,50162 94236,50163 94239,50163 94243,50163 94246,50163 94250,50163 94254,50163 94257,50163 94261,50163 94266,50170 94297,50163 94295,50158 94296,50158 94298,50158 94299,50157 94301,50157 94302,50157 94304,50157 94305,50156 94307,50156 94308,50155 94310,50155 94311,50154 94313,50154 94314,50153 94316,50153 94317,50152 94318,50151 94320,50151 94321,50150 94322,50149 94324,50148 94325,50147 94326,50146 94327,50145 94329,50144 94330,50143 94331,50142 94332,50141 94333,50140 94334,50139 94335,50138 94336,50137 94337,50135 94337,50136 94338,50137 94338,50138 94338,50139 94338,50140 94339,50141 94339,50142 94339,50143 94339,50144 94339,50145 94339,50146 94339,50147 94339,50148 94339,50149 94338,50150 94338,50151 94338,50152 94338,50153 94337,50154 94337,50155 94337,50156 94336,50157 94336,50158 94336,50159 94335,50159 94335,50160 94334,50161 94333,50162 94333,50163 94332,50163 94332,50164 94331,50165 94330,50166 94329,50167 94328,50168 94327,50168 94326,50169 94325,50170 94324,50170 94322,50171 94321,50172 94320,50172 94319,50173 94318,50174 94317,50174 94316,50175 94314,50175 94313,50176 94312,50176 94311,50177 94310,50177 94308,50178 94307,50178 94306,50179 94305,50179 94303,50179 94302,50180 94301,50180 94300,50180 94298,50181 94297,50181 94296,50181 94294,50181 94293,50181 94269,50186 94268,50186 94266,50187 94265,50187 94264,50187 94262,50188 94261,50188 94259,50188 94258,50189 94256,50189 94255,50189 94254,50190 94252,50190 94251,50191 94249,50191 94248,50192 94246,50192 94245,50193 94244,50193 94242,50194 94241,50194 94240,50195 94238,50195 94237,50196 94235,50197 94234,50197 94233,50198 94231,50199 94230,50199 94229,50200 94227,50201 94226,50201 94225,50202 94224,50203 94222,50204 94221,50204 94220,50205 94219,50206 94217,50207 94216,50208 94215,50208 94214,50209 94213,50210 94211,50211 94210,50212 94209,50213 94208,50214 94207,50215 94206,50216 94205,50217 94203,50218 94202,50219 94201,50220 94200,50221 94199,50222 94198,50223 94197,50224 94196,50225 94195,50226 94194,50227 94193,50228 94192,50229 94191,50230 94190,50232 94189,50233 94189,50234 94188,50234 94188,50235 94187,50236 94187,50237 94186,50238 94185,50239 94185,50240 94184,50241 94184,50242 94184,50243 94183,50244 94183,50245 94183,50246 94183,50247 94194,50250 94194,50249 94195,50247 94196,50246 94196,50244 94197,50243 94198,50241 94199,50239 94200,50238 94201,50237 94202,50235 94203,50234 94204,50232 94205,50231 94206,50229 94207,50228 94208,50227 94209,50226 94211,50224 94212,50223 94213,50222 94215,50221 94216,50220 94217,50219 94219,50218 94220,50217 94222,50216 94223,50215 94225,50214 94226,50213 94228,50212 94229,50212 94231,50211 94233,50210 94234,50209 94236,50208 94238,50208 94240,50207 94241,50206 94243,50205 94245,50205 94247,50204 94249,50203 94250,50203 94252,50202 94254,50202 94256,50201 94257,50200 94259,50200 94261,50199 94263,50199 94265,50198 94267,50198 94268,50197 94270,50197 94272,50197 94274,50196 94277,50196 94279,50196 94281,50195 94283,50195 94284,50195 94286,50195 94288,50194 94290,50194 94292,50194 94294,50193 94297,50193 94299,50192 94301,50192 94303,50191 94305,50191 94307,50190 94309,50189 94311,50189 94313,50188 94315,50187 94317,50186 94319,50186 94321,50185 94323,50184 94325,50183 94326,50183 94328,50182 94329,50181 94331,50181 94332,50180 94333,50179 94335,50178 94336,50177 94337,50176 94338,50175 94339,50174 94341,50173 94342,50172 94343,50170 94344,50169 94344,50168 94345,50167 94346,50165 94347,50164 94347,50162 94348,50161 94349,50159 94349,50158 94350,50156 94350,50155 94350,50153 94351,50152 94351,50150 94351,50149 94351,50147 94351,50146 94351,50145 94351,50143 94351,50142 94351,50141 94350,50140 94350,50139 94350,50138 94349,50137 94349,50136 94349,50135 94348,50134 94347,50133 94347,50132 94346,50131 94346,50130 94345,50129 94345,50127 94346,50126 94347,50125 94347,50124 94347,50122 94348,50121 94348,50120 94348,50118 94349,50117 94349,50116 94349,50114 94350,50113 94350,50111 94350,50110 94351,50109 94351,50107 94351,50106 94351,50105 94351,50103 94351,50102 94351,50100 94351,50099 94351,50098 94351,50096 94351,50095 94351,50093 94351,50092 94351,50091 94351,50089 94351,50088 94351,50087 94350,50085 94350,50081 94349,50077 94348,50073 94347,50069 94346,50064 94345,50060 94344,50056 94343,50052 94342,50048 94341,50044 94340,50040 94339,50036 94337,50032 94336,50028 94335,50024 94333,50020 94332,50015 94331,50011 94329,50007 94328,50003 94326,49999 94324,49995 94323,49991 94321,49987 94319,49983 94318,49979 94316,49976 94314,49972 94312,49968 94310,49964 94308,49960 94306,49957 94304,49952 94302,49947 94300,49943 94297,49938 94295,49933 94293,49928 94290,49924 94288,49919 94286,49915 94283,49910 94281,49905 94278,49901 94275,49896 94272,49891 94270,49887 94267,49882 94265,49878 94262,49873 94259,49869 94257,49864 94254,49860 94251,49855 94249,49851 94246,49846 94243,49842 94240,49838 94237,49833 94235,49829 94232,49824 94229,49820 94226,49816 94223,49811 94220,49807 94217,49803 94214,49798 94211,49794 94208,49790 94205,49786 94202,49781 94199,49777 94196,49773 94193,49769 94190,49764 94186,49760 94183,49756 94180,49752 94177,49748 94173,49744 94170,49740 94167,49736 94163,49732 94160,49728 94157,49724 94153,49720 94150,49716 94146,49712 94143,49708 94139,49704 94136,49700 94132,49696 94129,49692 94125,49688 94122,49684 94118,49681 94117,49679 94115,49677 94114,49676 94112,49674 94111,49673 94109,49671 94107,49670 94106,49668 94104,49667 94102,49665 94100,49664 94098,49663 94097,49662 94095,49661 94093,49660 94091,49659 94089,49658 94087,49657 94085,49656 94083,49655 94081,49654 94078,49654 94076,49653 94074,49652 94072,49652 94070,49651 94068,49651 94065,49650 94063,49650 94061,49650 94059,49650 94057,49649 94055,49649 94053,49649 94052,49649 94050,49650 94048,49650 94047,49650 94045,49650 94044,49650 94042,49650 94040,49651 94039,49651 94037,49651 94036,49652 94034,49652 94033,49652 94031,49653 94029,49653 94028,49654 94026,49654 94025,49655 94023,49656 94022,49656 94020,49657 94019,49657 94017,49658 94016,49659 94015,49660 94013,49660 94012,49661 94010,49662 94009,49663 94008,49664 94005,49666 94002,49667 94000,49669 93997,49671 93994,49673 93992,49675 93989,49677 93987,49679 93984,49675 93958,49691 93959,49693 93960,49695 93961,49697 93962,49699 93963,49701 93964,49703 93965,49705 93966,49708 93967,49710 93968,49712 93969,49714 93970,49716 93971,49718 93972,49720 93974,49722 93975,49723 93976,49725 93977,49727 93978,49729 93980,49731 93981,49733 93982,49735 93983,49737 93985,49739 93986,49741 93988,49743 93989,49744 93990,49746 93992,49748 93993,49750 93995,49752 93996,49753 93997,49755 93999,49757 94000,49759 94002,49760 94003,49762 94005,49764 94007,49766 94008,49767 94010,49769 94011,49771 94013,49772 94015,49774 94016,49775 94018,49777 94020,49779 94021,49780 94023,49782 94025,49783 94026,49785 94028,49786 94030,49788 94032,49789 94034,49791 94035,49792 94037,49794 94039,49795 94041,49796 94043,49798 94045,49799 94046,49801 94048,49802 94050,49803 94073,49780 94072,49774 94074,49774 94075,49774 94076,49775 94078,49775 94079,49775 94081,49775 94082,49775 94083,49774 94085,49774 94086,49774 94088,49774 94089,49773 94090,49773 94092,49773 94093,49772 94094,49771 94095,49771 94097,49770 94098,49770 94099,49769 94100,49768 94101,49767 94102,49766 94103,49765 94104,49764 94105,49763 94106,49762 94107,49761 94108,49760 94109,49759 94109,49758 94110,49756 94115,49744 94131,49772 94131,49774 94131,49777 94132,49780 94133,49783 94133,49786 94134,49788 94134,49791 94135,49794 94136,49797 94136,49799 94137,49802 94138,49805 94139,49807 94140,49810 94140,49813 94141,49816 94142,49818 94143,49821 94144,49824 94145,49826 94146,49829 94147,49832 94148,49834 94149,49837 94150,49839 94152,49842 94153,49845 94154,49847 94155,49850 94156,49852 94158,49855 94159,49857 94162,49862 94165,49867 94168,49872 94170,49877 94173,49882 94176,49887 94179,49892 94182,49897 94186,49901 94189,49906 94192,49911 94195,49916 94199,49920 94202,49925 94205,49930 94209,49934 94212,49939 94216,49943 94219,49948 94223,49952 94226,49957 94230,49961 94234,49966 94238,49970 94241,49974 94245,49979 94249,49983 94253,49987 94257,49991 94261,49995 94265,49999 94269,50004 94285,50027 94263,50022 Z"
   id="path72"
   style="stroke:none" />
   </g>
  </g>
  <g
   class="com.sun.star.drawing.PolyPolygonShape"
   id="g96"
   style="stroke:none">
   <g
   id="id8"
   style="stroke:none">
    <rect
   class="BoundingBox"
   stroke="none"
   fill="none"
   x="93957"
   y="49648"
   width="396"
   height="604"
   id="rect77"
   style="stroke:none" />
    <path
   fill="none"
   stroke="rgb(0,0,0)"
   d="M 94163,49775 L 94167,49781 94172,49788 94176,49795 94180,49801 94184,49808 94189,49815 94193,49822 94197,49829 94201,49835 94205,49842 94209,49849 94213,49856 94217,49863 94221,49870 94225,49876 94229,49883 94233,49890 94237,49897 94241,49904 94245,49911 94248,49918 94252,49925 94256,49932 94260,49939 94263,49946 94267,49953 94270,49960 94274,49967 94278,49974 94282,49982 94286,49989 94289,49996 94288,49992 94286,49989 94285,49985 94283,49981 94282,49977 94280,49974 94279,49970 94277,49966 94275,49963 94273,49959 94272,49955 94270,49952 94268,49948 94267,49944 94265,49941 94263,49937 94262,49934 94260,49930 94258,49927 94256,49923 94255,49919 94253,49916 94251,49912 94249,49909 94247,49905 94246,49902 94244,49898 94242,49895 94240,49891 94238,49888 94236,49884 94234,49881 94232,49877 94230,49874 94228,49870 94226,49867 94224,49863 94222,49860 94220,49857 94218,49853 94216,49850 94214,49846 94212,49843 94209,49840 94207,49836 94205,49833 94203,49830 94201,49826 94198,49823 94196,49820 94194,49817 94192,49813 94189,49810 94187,49807 94185,49803 94182,49800 94180,49797 94178,49794 94175,49791 94173,49787 94170,49784 94168,49781 94165,49778 94163,49775 Z"
   id="path79"
   style="stroke:none" />
    <path
   fill="none"
   stroke="rgb(0,0,0)"
   d="M 94262,50064 L 94262,50063 94262,50062 94262,50060 94262,50059 94262,50058 94262,50057 94262,50055 94262,50054 94262,50053 94262,50052 94262,50051 94262,50049 94261,50048 94261,50047 94261,50046 94260,50045 94255,50046 94255,50047 94256,50048 94256,50049 94256,50050 94256,50051 94256,50052 94257,50053 94257,50054 94257,50056 94257,50057 94257,50058 94257,50059 94257,50060 94256,50061 94256,50062 94256,50063 94262,50064 Z"
   id="path81"
   style="stroke:none" />
    <path
   fill="none"
   stroke="rgb(0,0,0)"
   d="M 94289,50125 L 94292,50132 94293,50132 94295,50131 94296,50131 94297,50130 94298,50130 94299,50129 94300,50128 94301,50128 94303,50127 94304,50126 94305,50125 94306,50124 94307,50123 94308,50122 94308,50121 94309,50120 94289,50125 Z"
   id="path83"
   style="stroke:none" />
    <path
   fill="none"
   stroke="rgb(0,0,0)"
   d="M 94270,50048 L 94274,50062 94282,50065 94282,50064 94282,50063 94282,50062 94282,50061 94282,50060 94282,50059 94282,50058 94282,50057 94282,50056 94282,50055 94282,50054 94282,50053 94281,50052 94281,50051 94281,50050 94280,50049 94270,50048 Z"
   id="path85"
   style="stroke:none" />
    <path
   fill="none"
   stroke="rgb(0,0,0)"
   d="M 94280,50127 L 94278,50127 94277,50128 94274,50128 94273,50128 94271,50128 94270,50128 94268,50129 94267,50129 94265,50129 94264,50129 94262,50129 94260,50129 94259,50129 94257,50129 94256,50129 94254,50129 94256,50129 94257,50130 94259,50131 94260,50131 94262,50132 94263,50132 94265,50133 94266,50133 94268,50133 94269,50134 94271,50134 94272,50134 94274,50134 94277,50134 94278,50134 94280,50134 94280,50127 Z"
   id="path87"
   style="stroke:none" />
    <path
   fill="none"
   stroke="rgb(0,0,0)"
   d="M 94109,49696 L 94107,49696 94105,49695 94104,49694 94102,49694 94100,49693 94098,49692 94096,49692 94095,49691 94093,49691 94091,49691 94089,49690 94087,49690 94085,49690 94083,49689 94081,49689 94079,49689 94079,49696 94080,49696 94081,49696 94083,49696 94084,49696 94086,49696 94087,49697 94088,49697 94090,49697 94091,49697 94093,49698 94094,49698 94095,49699 94097,49699 94098,49699 94099,49700 94100,49701 94102,49701 94103,49702 94104,49702 94106,49703 94107,49704 94108,49704 94109,49705 94110,49706 94111,49707 94112,49708 94114,49708 94115,49709 94116,49710 94117,49711 94118,49712 94119,49713 94109,49696 Z"
   id="path89"
   style="stroke:none" />
    <path
   fill="none"
   stroke="rgb(0,0,0)"
   d="M 94058,49742 L 94045,49750 94043,49758 94037,49762 94041,49769 94054,49761 94053,49751 94060,49748 94058,49742 Z"
   id="path91"
   style="stroke:none" />
    <path
   fill="none"
   stroke="rgb(0,0,0)"
   d="M 94263,50022 L 94260,50012 94229,50007 94230,50014 94219,50011 94218,50011 94217,50011 94216,50011 94215,50011 94214,50011 94214,50012 94213,50012 94212,50013 94212,50014 94211,50014 94211,50015 94194,50145 94194,50146 94194,50147 94194,50148 94194,50149 94194,50150 94194,50151 94195,50152 94195,50153 94196,50154 94196,50155 94197,50155 94198,50156 94199,50156 94199,50157 94200,50157 94201,50157 94201,50158 94202,50158 94203,50158 94207,50159 94211,50160 94214,50160 94218,50161 94221,50161 94225,50162 94228,50162 94232,50162 94236,50163 94239,50163 94243,50163 94246,50163 94250,50163 94254,50163 94257,50163 94261,50163 94266,50170 94297,50163 94295,50158 94296,50158 94298,50158 94299,50157 94301,50157 94302,50157 94304,50157 94305,50156 94307,50156 94308,50155 94310,50155 94311,50154 94313,50154 94314,50153 94316,50153 94317,50152 94318,50151 94320,50151 94321,50150 94322,50149 94324,50148 94325,50147 94326,50146 94327,50145 94329,50144 94330,50143 94331,50142 94332,50141 94333,50140 94334,50139 94335,50138 94336,50137 94337,50135 94337,50136 94338,50137 94338,50138 94338,50139 94338,50140 94339,50141 94339,50142 94339,50143 94339,50144 94339,50145 94339,50146 94339,50147 94339,50148 94339,50149 94338,50150 94338,50151 94338,50152 94338,50153 94337,50154 94337,50155 94337,50156 94336,50157 94336,50158 94336,50159 94335,50159 94335,50160 94334,50161 94333,50162 94333,50163 94332,50163 94332,50164 94331,50165 94330,50166 94329,50167 94328,50168 94327,50168 94326,50169 94325,50170 94324,50170 94322,50171 94321,50172 94320,50172 94319,50173 94318,50174 94317,50174 94316,50175 94314,50175 94313,50176 94312,50176 94311,50177 94310,50177 94308,50178 94307,50178 94306,50179 94305,50179 94303,50179 94302,50180 94301,50180 94300,50180 94298,50181 94297,50181 94296,50181 94294,50181 94293,50181 94269,50186 94268,50186 94266,50187 94265,50187 94264,50187 94262,50188 94261,50188 94259,50188 94258,50189 94256,50189 94255,50189 94254,50190 94252,50190 94251,50191 94249,50191 94248,50192 94246,50192 94245,50193 94244,50193 94242,50194 94241,50194 94240,50195 94238,50195 94237,50196 94235,50197 94234,50197 94233,50198 94231,50199 94230,50199 94229,50200 94227,50201 94226,50201 94225,50202 94224,50203 94222,50204 94221,50204 94220,50205 94219,50206 94217,50207 94216,50208 94215,50208 94214,50209 94213,50210 94211,50211 94210,50212 94209,50213 94208,50214 94207,50215 94206,50216 94205,50217 94203,50218 94202,50219 94201,50220 94200,50221 94199,50222 94198,50223 94197,50224 94196,50225 94195,50226 94194,50227 94193,50228 94192,50229 94191,50230 94190,50232 94189,50233 94189,50234 94188,50234 94188,50235 94187,50236 94187,50237 94186,50238 94185,50239 94185,50240 94184,50241 94184,50242 94184,50243 94183,50244 94183,50245 94183,50246 94183,50247 94194,50250 94194,50249 94195,50247 94196,50246 94196,50244 94197,50243 94198,50241 94199,50239 94200,50238 94201,50237 94202,50235 94203,50234 94204,50232 94205,50231 94206,50229 94207,50228 94208,50227 94209,50226 94211,50224 94212,50223 94213,50222 94215,50221 94216,50220 94217,50219 94219,50218 94220,50217 94222,50216 94223,50215 94225,50214 94226,50213 94228,50212 94229,50212 94231,50211 94233,50210 94234,50209 94236,50208 94238,50208 94240,50207 94241,50206 94243,50205 94245,50205 94247,50204 94249,50203 94250,50203 94252,50202 94254,50202 94256,50201 94257,50200 94259,50200 94261,50199 94263,50199 94265,50198 94267,50198 94268,50197 94270,50197 94272,50197 94274,50196 94277,50196 94279,50196 94281,50195 94283,50195 94284,50195 94286,50195 94288,50194 94290,50194 94292,50194 94294,50193 94297,50193 94299,50192 94301,50192 94303,50191 94305,50191 94307,50190 94309,50189 94311,50189 94313,50188 94315,50187 94317,50186 94319,50186 94321,50185 94323,50184 94325,50183 94326,50183 94328,50182 94329,50181 94331,50181 94332,50180 94333,50179 94335,50178 94336,50177 94337,50176 94338,50175 94339,50174 94341,50173 94342,50172 94343,50170 94344,50169 94344,50168 94345,50167 94346,50165 94347,50164 94347,50162 94348,50161 94349,50159 94349,50158 94350,50156 94350,50155 94350,50153 94351,50152 94351,50150 94351,50149 94351,50147 94351,50146 94351,50145 94351,50143 94351,50142 94351,50141 94350,50140 94350,50139 94350,50138 94349,50137 94349,50136 94349,50135 94348,50134 94347,50133 94347,50132 94346,50131 94346,50130 94345,50129 94345,50127 94346,50126 94347,50125 94347,50124 94347,50122 94348,50121 94348,50120 94348,50118 94349,50117 94349,50116 94349,50114 94350,50113 94350,50111 94350,50110 94351,50109 94351,50107 94351,50106 94351,50105 94351,50103 94351,50102 94351,50100 94351,50099 94351,50098 94351,50096 94351,50095 94351,50093 94351,50092 94351,50091 94351,50089 94351,50088 94351,50087 94350,50085 94350,50081 94349,50077 94348,50073 94347,50069 94346,50064 94345,50060 94344,50056 94343,50052 94342,50048 94341,50044 94340,50040 94339,50036 94337,50032 94336,50028 94335,50024 94333,50020 94332,50015 94331,50011 94329,50007 94328,50003 94326,49999 94324,49995 94323,49991 94321,49987 94319,49983 94318,49979 94316,49976 94314,49972 94312,49968 94310,49964 94308,49960 94306,49957 94304,49952 94302,49947 94300,49943 94297,49938 94295,49933 94293,49928 94290,49924 94288,49919 94286,49915 94283,49910 94281,49905 94278,49901 94275,49896 94272,49891 94270,49887 94267,49882 94265,49878 94262,49873 94259,49869 94257,49864 94254,49860 94251,49855 94249,49851 94246,49846 94243,49842 94240,49838 94237,49833 94235,49829 94232,49824 94229,49820 94226,49816 94223,49811 94220,49807 94217,49803 94214,49798 94211,49794 94208,49790 94205,49786 94202,49781 94199,49777 94196,49773 94193,49769 94190,49764 94186,49760 94183,49756 94180,49752 94177,49748 94173,49744 94170,49740 94167,49736 94163,49732 94160,49728 94157,49724 94153,49720 94150,49716 94146,49712 94143,49708 94139,49704 94136,49700 94132,49696 94129,49692 94125,49688 94122,49684 94118,49681 94117,49679 94115,49677 94114,49676 94112,49674 94111,49673 94109,49671 94107,49670 94106,49668 94104,49667 94102,49665 94100,49664 94098,49663 94097,49662 94095,49661 94093,49660 94091,49659 94089,49658 94087,49657 94085,49656 94083,49655 94081,49654 94078,49654 94076,49653 94074,49652 94072,49652 94070,49651 94068,49651 94065,49650 94063,49650 94061,49650 94059,49650 94057,49649 94055,49649 94053,49649 94052,49649 94050,49650 94048,49650 94047,49650 94045,49650 94044,49650 94042,49650 94040,49651 94039,49651 94037,49651 94036,49652 94034,49652 94033,49652 94031,49653 94029,49653 94028,49654 94026,49654 94025,49655 94023,49656 94022,49656 94020,49657 94019,49657 94017,49658 94016,49659 94015,49660 94013,49660 94012,49661 94010,49662 94009,49663 94008,49664 94005,49666 94002,49667 94000,49669 93997,49671 93994,49673 93992,49675 93989,49677 93987,49679 93984,49675 93958,49691 93959,49693 93960,49695 93961,49697 93962,49699 93963,49701 93964,49703 93965,49705 93966,49708 93967,49710 93968,49712 93969,49714 93970,49716 93971,49718 93972,49720 93974,49722 93975,49723 93976,49725 93977,49727 93978,49729 93980,49731 93981,49733 93982,49735 93983,49737 93985,49739 93986,49741 93988,49743 93989,49744 93990,49746 93992,49748 93993,49750 93995,49752 93996,49753 93997,49755 93999,49757 94000,49759 94002,49760 94003,49762 94005,49764 94007,49766 94008,49767 94010,49769 94011,49771 94013,49772 94015,49774 94016,49775 94018,49777 94020,49779 94021,49780 94023,49782 94025,49783 94026,49785 94028,49786 94030,49788 94032,49789 94034,49791 94035,49792 94037,49794 94039,49795 94041,49796 94043,49798 94045,49799 94046,49801 94048,49802 94050,49803 94073,49780 94072,49774 94074,49774 94075,49774 94076,49775 94078,49775 94079,49775 94081,49775 94082,49775 94083,49774 94085,49774 94086,49774 94088,49774 94089,49773 94090,49773 94092,49773 94093,49772 94094,49771 94095,49771 94097,49770 94098,49770 94099,49769 94100,49768 94101,49767 94102,49766 94103,49765 94104,49764 94105,49763 94106,49762 94107,49761 94108,49760 94109,49759 94109,49758 94110,49756 94115,49744 94131,49772 94131,49774 94131,49777 94132,49780 94133,49783 94133,49786 94134,49788 94134,49791 94135,49794 94136,49797 94136,49799 94137,49802 94138,49805 94139,49807 94140,49810 94140,49813 94141,49816 94142,49818 94143,49821 94144,49824 94145,49826 94146,49829 94147,49832 94148,49834 94149,49837 94150,49839 94152,49842 94153,49845 94154,49847 94155,49850 94156,49852 94158,49855 94159,49857 94162,49862 94165,49867 94168,49872 94170,49877 94173,49882 94176,49887 94179,49892 94182,49897 94186,49901 94189,49906 94192,49911 94195,49916 94199,49920 94202,49925 94205,49930 94209,49934 94212,49939 94216,49943 94219,49948 94223,49952 94226,49957 94230,49961 94234,49966 94238,49970 94241,49974 94245,49979 94249,49983 94253,49987 94257,49991 94261,49995 94265,49999 94269,50004 94285,50027 94263,50022 Z"
   id="path93"
   style="stroke:none" />
   </g>
  </g>
  <g
   class="com.sun.star.drawing.PolyPolygonShape"
   id="g105"
   style="stroke:none">
   <g
   id="id9"
   style="stroke:none">
    <rect
   class="BoundingBox"
   stroke="none"
   fill="none"
   x="93568"
   y="50096"
   width="110"
   height="160"
   id="rect98"
   style="stroke:none" />
    <path
   fill="rgb(0,0,0)"
   stroke="none"
   d="M 93569,50213 L 93569,50208 93597,50208 93597,50213 93597,50214 93598,50214 93598,50215 93598,50216 93598,50217 93599,50218 93599,50219 93600,50220 93600,50221 93601,50221 93601,50222 93602,50222 93603,50223 93604,50223 93604,50224 93605,50224 93606,50224 93607,50225 93609,50225 93610,50225 93611,50225 93612,50226 93613,50226 93614,50226 93615,50226 93616,50226 93617,50226 93618,50226 93619,50227 93620,50227 93621,50227 93622,50227 93623,50227 93624,50227 93625,50227 93626,50227 93627,50227 93628,50226 93629,50226 93630,50226 93631,50226 93632,50226 93633,50226 93634,50226 93635,50225 93636,50225 93637,50225 93638,50225 93639,50224 93640,50224 93641,50224 93641,50223 93642,50223 93643,50222 93644,50222 93644,50221 93645,50221 93645,50220 93646,50219 93646,50218 93647,50217 93647,50216 93647,50215 93647,50214 93647,50213 93647,50212 93647,50211 93647,50210 93647,50209 93647,50208 93646,50208 93646,50207 93646,50206 93645,50206 93645,50205 93644,50205 93644,50204 93643,50204 93643,50203 93642,50203 93641,50202 93640,50202 93596,50171 93594,50170 93593,50170 93592,50169 93590,50168 93589,50167 93588,50166 93587,50166 93586,50165 93585,50164 93584,50163 93583,50161 93582,50160 93581,50159 93580,50158 93579,50157 93578,50156 93578,50153 93577,50152 93576,50151 93576,50149 93575,50148 93575,50147 93575,50145 93574,50144 93574,50142 93574,50141 93574,50140 93573,50138 93573,50137 93573,50135 93573,50134 93573,50132 93574,50131 93574,50129 93574,50128 93574,50127 93575,50125 93575,50124 93576,50123 93576,50121 93577,50120 93578,50119 93578,50117 93579,50116 93580,50115 93581,50114 93582,50113 93582,50111 93583,50110 93584,50109 93586,50108 93587,50107 93588,50106 93589,50106 93590,50105 93591,50104 93593,50103 93594,50103 93595,50102 93597,50101 93598,50101 93599,50100 93601,50100 93602,50099 93604,50099 93605,50099 93606,50099 93607,50098 93609,50098 93611,50098 93612,50098 93613,50098 93614,50097 93616,50097 93617,50097 93618,50097 93619,50097 93621,50097 93622,50097 93623,50097 93624,50097 93625,50097 93627,50097 93628,50097 93629,50097 93630,50097 93632,50097 93633,50098 93634,50098 93635,50098 93637,50098 93638,50098 93639,50099 93640,50099 93642,50099 93643,50099 93644,50100 93646,50100 93647,50101 93649,50102 93650,50102 93652,50103 93653,50104 93654,50104 93656,50105 93657,50106 93658,50107 93659,50108 93660,50109 93661,50110 93663,50112 93663,50113 93664,50114 93665,50115 93666,50117 93667,50118 93668,50119 93668,50121 93669,50122 93669,50124 93670,50125 93670,50127 93671,50128 93671,50130 93671,50131 93671,50133 93672,50134 93672,50136 93643,50136 93643,50135 93643,50134 93643,50133 93643,50132 93642,50131 93642,50130 93641,50130 93641,50129 93640,50129 93640,50128 93639,50128 93639,50127 93638,50127 93637,50127 93637,50126 93636,50126 93634,50126 93633,50125 93631,50125 93629,50125 93628,50125 93626,50125 93625,50124 93623,50124 93621,50124 93620,50125 93618,50125 93617,50125 93615,50125 93613,50125 93612,50126 93610,50126 93609,50126 93609,50127 93607,50127 93606,50127 93606,50128 93605,50128 93605,50129 93604,50129 93604,50130 93603,50131 93602,50132 93602,50133 93602,50134 93601,50135 93601,50136 93601,50137 93602,50138 93602,50139 93602,50140 93603,50141 93603,50142 93604,50142 93604,50143 93605,50143 93605,50144 93606,50144 93607,50145 93652,50177 93654,50178 93655,50178 93656,50179 93658,50180 93659,50181 93660,50182 93661,50183 93662,50184 93663,50185 93664,50186 93665,50187 93666,50188 93667,50189 93668,50190 93669,50191 93670,50193 93671,50194 93671,50195 93672,50197 93673,50198 93673,50199 93674,50201 93674,50202 93675,50204 93675,50205 93675,50206 93675,50208 93675,50209 93675,50211 93676,50212 93676,50214 93675,50215 93675,50217 93675,50218 93675,50220 93675,50221 93674,50223 93674,50224 93673,50225 93673,50227 93672,50228 93672,50230 93671,50231 93670,50232 93670,50234 93669,50235 93668,50236 93667,50237 93666,50238 93665,50239 93664,50240 93663,50241 93662,50242 93661,50244 93659,50244 93658,50245 93657,50246 93656,50247 93654,50248 93653,50248 93652,50249 93650,50249 93649,50250 93647,50250 93646,50251 93644,50251 93643,50252 93641,50252 93640,50252 93638,50253 93637,50253 93635,50253 93634,50253 93632,50254 93631,50254 93629,50254 93628,50254 93626,50254 93625,50254 93623,50254 93621,50254 93620,50254 93618,50254 93617,50254 93615,50254 93614,50254 93612,50253 93611,50253 93609,50253 93607,50253 93605,50252 93604,50252 93602,50252 93600,50251 93599,50251 93597,50250 93596,50250 93594,50249 93593,50249 93592,50248 93590,50247 93589,50247 93587,50246 93586,50245 93585,50244 93584,50243 93582,50242 93581,50241 93580,50240 93579,50239 93578,50237 93577,50236 93576,50235 93575,50234 93575,50232 93574,50231 93573,50229 93572,50228 93572,50227 93571,50225 93571,50224 93570,50222 93570,50221 93570,50219 93570,50218 93569,50216 93569,50214 93569,50213 Z"
   id="path100"
   style="stroke:none" />
    <path
   fill="none"
   stroke="rgb(0,0,0)"
   d="M 93569,50213 L 93569,50208 93597,50208 93597,50213 93597,50214 93598,50214 93598,50215 93598,50216 93598,50217 93599,50218 93599,50219 93600,50220 93600,50221 93601,50221 93601,50222 93602,50222 93603,50223 93604,50223 93604,50224 93605,50224 93606,50224 93607,50225 93609,50225 93610,50225 93611,50225 93612,50226 93613,50226 93614,50226 93615,50226 93616,50226 93617,50226 93618,50226 93619,50227 93620,50227 93621,50227 93622,50227 93623,50227 93624,50227 93625,50227 93626,50227 93627,50227 93628,50226 93629,50226 93630,50226 93631,50226 93632,50226 93633,50226 93634,50226 93635,50225 93636,50225 93637,50225 93638,50225 93639,50224 93640,50224 93641,50224 93641,50223 93642,50223 93643,50222 93644,50222 93644,50221 93645,50221 93645,50220 93646,50219 93646,50218 93647,50217 93647,50216 93647,50215 93647,50214 93647,50213 93647,50212 93647,50211 93647,50210 93647,50209 93647,50208 93646,50208 93646,50207 93646,50206 93645,50206 93645,50205 93644,50205 93644,50204 93643,50204 93643,50203 93642,50203 93641,50202 93640,50202 93596,50171 93594,50170 93593,50170 93592,50169 93590,50168 93589,50167 93588,50166 93587,50166 93586,50165 93585,50164 93584,50163 93583,50161 93582,50160 93581,50159 93580,50158 93579,50157 93578,50156 93578,50153 93577,50152 93576,50151 93576,50149 93575,50148 93575,50147 93575,50145 93574,50144 93574,50142 93574,50141 93574,50140 93573,50138 93573,50137 93573,50135 93573,50134 93573,50132 93574,50131 93574,50129 93574,50128 93574,50127 93575,50125 93575,50124 93576,50123 93576,50121 93577,50120 93578,50119 93578,50117 93579,50116 93580,50115 93581,50114 93582,50113 93582,50111 93583,50110 93584,50109 93586,50108 93587,50107 93588,50106 93589,50106 93590,50105 93591,50104 93593,50103 93594,50103 93595,50102 93597,50101 93598,50101 93599,50100 93601,50100 93602,50099 93604,50099 93605,50099 93606,50099 93607,50098 93609,50098 93611,50098 93612,50098 93613,50098 93614,50097 93616,50097 93617,50097 93618,50097 93619,50097 93621,50097 93622,50097 93623,50097 93624,50097 93625,50097 93627,50097 93628,50097 93629,50097 93630,50097 93632,50097 93633,50098 93634,50098 93635,50098 93637,50098 93638,50098 93639,50099 93640,50099 93642,50099 93643,50099 93644,50100 93646,50100 93647,50101 93649,50102 93650,50102 93652,50103 93653,50104 93654,50104 93656,50105 93657,50106 93658,50107 93659,50108 93660,50109 93661,50110 93663,50112 93663,50113 93664,50114 93665,50115 93666,50117 93667,50118 93668,50119 93668,50121 93669,50122 93669,50124 93670,50125 93670,50127 93671,50128 93671,50130 93671,50131 93671,50133 93672,50134 93672,50136 93643,50136 93643,50135 93643,50134 93643,50133 93643,50132 93642,50131 93642,50130 93641,50130 93641,50129 93640,50129 93640,50128 93639,50128 93639,50127 93638,50127 93637,50127 93637,50126 93636,50126 93634,50126 93633,50125 93631,50125 93629,50125 93628,50125 93626,50125 93625,50124 93623,50124 93621,50124 93620,50125 93618,50125 93617,50125 93615,50125 93613,50125 93612,50126 93610,50126 93609,50126 93609,50127 93607,50127 93606,50127 93606,50128 93605,50128 93605,50129 93604,50129 93604,50130 93603,50131 93602,50132 93602,50133 93602,50134 93601,50135 93601,50136 93601,50137 93602,50138 93602,50139 93602,50140 93603,50141 93603,50142 93604,50142 93604,50143 93605,50143 93605,50144 93606,50144 93607,50145 93652,50177 93654,50178 93655,50178 93656,50179 93658,50180 93659,50181 93660,50182 93661,50183 93662,50184 93663,50185 93664,50186 93665,50187 93666,50188 93667,50189 93668,50190 93669,50191 93670,50193 93671,50194 93671,50195 93672,50197 93673,50198 93673,50199 93674,50201 93674,50202 93675,50204 93675,50205 93675,50206 93675,50208 93675,50209 93675,50211 93676,50212 93676,50214 93675,50215 93675,50217 93675,50218 93675,50220 93675,50221 93674,50223 93674,50224 93673,50225 93673,50227 93672,50228 93672,50230 93671,50231 93670,50232 93670,50234 93669,50235 93668,50236 93667,50237 93666,50238 93665,50239 93664,50240 93663,50241 93662,50242 93661,50244 93659,50244 93658,50245 93657,50246 93656,50247 93654,50248 93653,50248 93652,50249 93650,50249 93649,50250 93647,50250 93646,50251 93644,50251 93643,50252 93641,50252 93640,50252 93638,50253 93637,50253 93635,50253 93634,50253 93632,50254 93631,50254 93629,50254 93628,50254 93626,50254 93625,50254 93623,50254 93621,50254 93620,50254 93618,50254 93617,50254 93615,50254 93614,50254 93612,50253 93611,50253 93609,50253 93607,50253 93605,50252 93604,50252 93602,50252 93600,50251 93599,50251 93597,50250 93596,50250 93594,50249 93593,50249 93592,50248 93590,50247 93589,50247 93587,50246 93586,50245 93585,50244 93584,50243 93582,50242 93581,50241 93580,50240 93579,50239 93578,50237 93577,50236 93576,50235 93575,50234 93575,50232 93574,50231 93573,50229 93572,50228 93572,50227 93571,50225 93571,50224 93570,50222 93570,50221 93570,50219 93570,50218 93569,50216 93569,50214 93569,50213 Z"
   id="path102"
   style="stroke:none" />
   </g>
  </g>
  <g
   class="com.sun.star.drawing.PolyPolygonShape"
   id="g114"
   style="stroke:none">
   <g
   id="id10"
   style="stroke:none">
    <rect
   class="BoundingBox"
   stroke="none"
   fill="none"
   x="93698"
   y="50223"
   width="30"
   height="29"
   id="rect107"
   style="stroke:none" />
    <path
   fill="rgb(0,0,0)"
   stroke="none"
   d="M 93726,50237 L 93726,50236 93726,50235 93725,50234 93725,50233 93725,50232 93724,50232 93724,50231 93723,50230 93723,50229 93722,50229 93722,50228 93721,50228 93721,50227 93720,50227 93719,50226 93718,50226 93718,50225 93717,50225 93716,50225 93715,50225 93714,50225 93712,50225 93712,50224 93711,50225 93710,50225 93709,50225 93708,50225 93707,50225 93706,50226 93705,50226 93705,50227 93704,50227 93703,50228 93702,50229 93702,50230 93701,50230 93701,50231 93700,50232 93700,50233 93699,50234 93699,50235 93699,50236 93699,50237 93699,50239 93699,50240 93699,50241 93700,50242 93700,50243 93701,50244 93701,50245 93702,50245 93702,50246 93703,50247 93704,50248 93705,50248 93705,50249 93706,50249 93707,50250 93708,50250 93709,50250 93710,50250 93711,50250 93712,50250 93714,50250 93715,50250 93716,50250 93717,50250 93718,50250 93718,50249 93719,50249 93720,50248 93721,50248 93721,50247 93722,50247 93722,50246 93723,50246 93723,50245 93724,50244 93724,50243 93725,50243 93725,50242 93725,50241 93725,50240 93726,50240 93726,50239 93726,50237 Z"
   id="path109"
   style="stroke:none" />
    <path
   fill="none"
   stroke="rgb(0,0,0)"
   d="M 93726,50237 L 93726,50236 93726,50235 93725,50234 93725,50233 93725,50232 93724,50232 93724,50231 93723,50230 93723,50229 93722,50229 93722,50228 93721,50228 93721,50227 93720,50227 93719,50226 93718,50226 93718,50225 93717,50225 93716,50225 93715,50225 93714,50225 93712,50225 93712,50224 93711,50225 93710,50225 93709,50225 93708,50225 93707,50225 93706,50226 93705,50226 93705,50227 93704,50227 93703,50228 93702,50229 93702,50230 93701,50230 93701,50231 93700,50232 93700,50233 93699,50234 93699,50235 93699,50236 93699,50237 93699,50239 93699,50240 93699,50241 93700,50242 93700,50243 93701,50244 93701,50245 93702,50245 93702,50246 93703,50247 93704,50248 93705,50248 93705,50249 93706,50249 93707,50250 93708,50250 93709,50250 93710,50250 93711,50250 93712,50250 93714,50250 93715,50250 93716,50250 93717,50250 93718,50250 93718,50249 93719,50249 93720,50248 93721,50248 93721,50247 93722,50247 93722,50246 93723,50246 93723,50245 93724,50244 93724,50243 93725,50243 93725,50242 93725,50241 93725,50240 93726,50240 93726,50239 93726,50237 Z"
   id="path111"
   style="stroke:none" />
   </g>
  </g>
  <g
   class="com.sun.star.drawing.PolyPolygonShape"
   id="g125"
   style="stroke:none">
   <g
   id="id11"
   style="stroke:none">
    <rect
   class="BoundingBox"
   stroke="none"
   fill="none"
   x="93745"
   y="50095"
   width="109"
   height="160"
   id="rect116"
   style="stroke:none" />
    <path
   fill="rgb(0,0,0)"
   stroke="none"
   d="M 93774,50146 L 93774,50205 93774,50206 93774,50207 93775,50208 93775,50209 93775,50210 93775,50211 93776,50213 93776,50214 93777,50215 93777,50216 93778,50217 93778,50218 93779,50219 93780,50220 93781,50221 93782,50222 93783,50223 93784,50224 93785,50224 93786,50225 93787,50226 93788,50226 93789,50227 93791,50227 93792,50227 93793,50228 93794,50228 93795,50228 93796,50228 93798,50228 93799,50228 93800,50228 93801,50228 93802,50228 93804,50228 93805,50228 93806,50227 93807,50227 93808,50227 93809,50226 93810,50226 93811,50225 93812,50224 93813,50224 93814,50223 93815,50222 93816,50221 93817,50221 93819,50220 93819,50219 93820,50218 93821,50217 93821,50216 93822,50215 93822,50214 93823,50213 93823,50211 93823,50210 93824,50209 93824,50208 93824,50207 93824,50206 93824,50205 93824,50146 93824,50145 93824,50144 93824,50142 93824,50141 93824,50140 93823,50138 93823,50137 93822,50136 93822,50135 93821,50134 93821,50133 93820,50132 93819,50131 93819,50130 93817,50129 93816,50128 93815,50128 93814,50127 93813,50126 93812,50126 93811,50125 93810,50124 93809,50124 93808,50123 93807,50123 93806,50122 93805,50122 93804,50122 93802,50122 93801,50121 93800,50121 93799,50121 93798,50121 93796,50121 93795,50122 93794,50122 93793,50122 93792,50122 93791,50123 93789,50123 93788,50124 93787,50124 93786,50125 93785,50126 93784,50126 93783,50127 93782,50128 93781,50128 93781,50129 93780,50130 93779,50131 93778,50132 93778,50133 93777,50134 93777,50135 93776,50136 93776,50137 93775,50138 93775,50140 93775,50141 93775,50142 93774,50144 93774,50145 93774,50146 Z M 93746,50149 L 93746,50202 93746,50203 93746,50205 93746,50206 93746,50207 93747,50208 93747,50210 93747,50211 93747,50212 93747,50213 93748,50215 93748,50216 93748,50217 93749,50218 93749,50219 93750,50221 93750,50222 93751,50223 93751,50224 93752,50225 93752,50226 93753,50227 93754,50228 93754,50230 93755,50231 93756,50232 93756,50233 93757,50234 93758,50235 93759,50236 93760,50237 93761,50237 93762,50238 93762,50239 93763,50240 93764,50241 93765,50242 93766,50243 93767,50243 93768,50244 93769,50245 93771,50245 93772,50246 93773,50247 93774,50247 93775,50248 93776,50249 93777,50249 93779,50250 93780,50250 93781,50250 93782,50251 93783,50251 93785,50252 93786,50252 93787,50252 93788,50252 93790,50253 93791,50253 93792,50253 93794,50253 93795,50253 93796,50253 93797,50253 93799,50253 93800,50253 93801,50253 93803,50253 93804,50253 93805,50253 93806,50253 93808,50253 93809,50252 93810,50252 93812,50252 93813,50252 93814,50251 93815,50251 93816,50250 93819,50250 93820,50250 93821,50249 93822,50249 93823,50248 93825,50247 93826,50247 93827,50246 93828,50245 93829,50245 93830,50244 93831,50243 93832,50243 93833,50242 93834,50241 93835,50240 93836,50239 93837,50238 93838,50237 93839,50237 93840,50236 93840,50235 93841,50234 93842,50233 93843,50232 93843,50231 93844,50230 93845,50228 93846,50227 93846,50226 93847,50225 93847,50224 93848,50223 93848,50222 93849,50221 93849,50219 93850,50218 93850,50217 93850,50216 93851,50215 93851,50213 93851,50212 93852,50211 93852,50210 93852,50208 93852,50207 93852,50206 93852,50205 93852,50203 93852,50202 93852,50149 93852,50148 93852,50146 93852,50145 93852,50144 93852,50142 93852,50140 93852,50139 93851,50138 93851,50137 93851,50135 93850,50134 93850,50133 93850,50132 93849,50131 93849,50129 93848,50128 93848,50127 93847,50126 93847,50125 93846,50124 93846,50123 93845,50121 93844,50120 93843,50119 93843,50118 93842,50117 93841,50116 93840,50115 93840,50114 93839,50113 93838,50112 93837,50111 93836,50111 93835,50110 93834,50109 93833,50108 93832,50107 93831,50107 93830,50106 93829,50105 93828,50104 93827,50104 93826,50103 93825,50102 93823,50102 93822,50101 93821,50101 93820,50100 93819,50100 93816,50099 93815,50099 93814,50099 93813,50098 93812,50098 93810,50098 93809,50097 93808,50097 93806,50097 93805,50097 93804,50097 93803,50097 93801,50096 93800,50096 93799,50096 93797,50096 93796,50096 93795,50097 93794,50097 93792,50097 93791,50097 93790,50097 93788,50097 93787,50098 93786,50098 93785,50098 93783,50099 93782,50099 93781,50099 93780,50100 93779,50100 93777,50101 93776,50101 93775,50102 93774,50102 93773,50103 93772,50104 93771,50104 93769,50105 93768,50106 93767,50107 93766,50107 93765,50108 93764,50109 93763,50110 93762,50111 93761,50112 93760,50113 93759,50114 93758,50115 93757,50116 93756,50117 93756,50118 93755,50119 93754,50120 93754,50121 93753,50123 93752,50124 93752,50125 93751,50126 93751,50127 93750,50128 93750,50129 93749,50131 93749,50132 93748,50133 93748,50134 93748,50135 93747,50137 93747,50138 93747,50139 93747,50140 93747,50142 93746,50144 93746,50145 93746,50146 93746,50148 93746,50149 Z"
   id="path118"
   style="stroke:none" />
    <path
   fill="none"
   stroke="rgb(0,0,0)"
   d="M 93774,50146 L 93774,50205 93774,50206 93774,50207 93775,50208 93775,50209 93775,50210 93775,50211 93776,50213 93776,50214 93777,50215 93777,50216 93778,50217 93778,50218 93779,50219 93780,50220 93781,50221 93782,50222 93783,50223 93784,50224 93785,50224 93786,50225 93787,50226 93788,50226 93789,50227 93791,50227 93792,50227 93793,50228 93794,50228 93795,50228 93796,50228 93798,50228 93799,50228 93800,50228 93801,50228 93802,50228 93804,50228 93805,50228 93806,50227 93807,50227 93808,50227 93809,50226 93810,50226 93811,50225 93812,50224 93813,50224 93814,50223 93815,50222 93816,50221 93817,50221 93819,50220 93819,50219 93820,50218 93821,50217 93821,50216 93822,50215 93822,50214 93823,50213 93823,50211 93823,50210 93824,50209 93824,50208 93824,50207 93824,50206 93824,50205 93824,50146 93824,50145 93824,50144 93824,50142 93824,50141 93824,50140 93823,50138 93823,50137 93822,50136 93822,50135 93821,50134 93821,50133 93820,50132 93819,50131 93819,50130 93817,50129 93816,50128 93815,50128 93814,50127 93813,50126 93812,50126 93811,50125 93810,50124 93809,50124 93808,50123 93807,50123 93806,50122 93805,50122 93804,50122 93802,50122 93801,50121 93800,50121 93799,50121 93798,50121 93796,50121 93795,50122 93794,50122 93793,50122 93792,50122 93791,50123 93789,50123 93788,50124 93787,50124 93786,50125 93785,50126 93784,50126 93783,50127 93782,50128 93781,50128 93781,50129 93780,50130 93779,50131 93778,50132 93778,50133 93777,50134 93777,50135 93776,50136 93776,50137 93775,50138 93775,50140 93775,50141 93775,50142 93774,50144 93774,50145 93774,50146 Z"
   id="path120"
   style="stroke:none" />
    <path
   fill="none"
   stroke="rgb(0,0,0)"
   d="M 93746,50149 L 93746,50202 93746,50203 93746,50205 93746,50206 93746,50207 93747,50208 93747,50210 93747,50211 93747,50212 93747,50213 93748,50215 93748,50216 93748,50217 93749,50218 93749,50219 93750,50221 93750,50222 93751,50223 93751,50224 93752,50225 93752,50226 93753,50227 93754,50228 93754,50230 93755,50231 93756,50232 93756,50233 93757,50234 93758,50235 93759,50236 93760,50237 93761,50237 93762,50238 93762,50239 93763,50240 93764,50241 93765,50242 93766,50243 93767,50243 93768,50244 93769,50245 93771,50245 93772,50246 93773,50247 93774,50247 93775,50248 93776,50249 93777,50249 93779,50250 93780,50250 93781,50250 93782,50251 93783,50251 93785,50252 93786,50252 93787,50252 93788,50252 93790,50253 93791,50253 93792,50253 93794,50253 93795,50253 93796,50253 93797,50253 93799,50253 93800,50253 93801,50253 93803,50253 93804,50253 93805,50253 93806,50253 93808,50253 93809,50252 93810,50252 93812,50252 93813,50252 93814,50251 93815,50251 93816,50250 93819,50250 93820,50250 93821,50249 93822,50249 93823,50248 93825,50247 93826,50247 93827,50246 93828,50245 93829,50245 93830,50244 93831,50243 93832,50243 93833,50242 93834,50241 93835,50240 93836,50239 93837,50238 93838,50237 93839,50237 93840,50236 93840,50235 93841,50234 93842,50233 93843,50232 93843,50231 93844,50230 93845,50228 93846,50227 93846,50226 93847,50225 93847,50224 93848,50223 93848,50222 93849,50221 93849,50219 93850,50218 93850,50217 93850,50216 93851,50215 93851,50213 93851,50212 93852,50211 93852,50210 93852,50208 93852,50207 93852,50206 93852,50205 93852,50203 93852,50202 93852,50149 93852,50148 93852,50146 93852,50145 93852,50144 93852,50142 93852,50140 93852,50139 93851,50138 93851,50137 93851,50135 93850,50134 93850,50133 93850,50132 93849,50131 93849,50129 93848,50128 93848,50127 93847,50126 93847,50125 93846,50124 93846,50123 93845,50121 93844,50120 93843,50119 93843,50118 93842,50117 93841,50116 93840,50115 93840,50114 93839,50113 93838,50112 93837,50111 93836,50111 93835,50110 93834,50109 93833,50108 93832,50107 93831,50107 93830,50106 93829,50105 93828,50104 93827,50104 93826,50103 93825,50102 93823,50102 93822,50101 93821,50101 93820,50100 93819,50100 93816,50099 93815,50099 93814,50099 93813,50098 93812,50098 93810,50098 93809,50097 93808,50097 93806,50097 93805,50097 93804,50097 93803,50097 93801,50096 93800,50096 93799,50096 93797,50096 93796,50096 93795,50097 93794,50097 93792,50097 93791,50097 93790,50097 93788,50097 93787,50098 93786,50098 93785,50098 93783,50099 93782,50099 93781,50099 93780,50100 93779,50100 93777,50101 93776,50101 93775,50102 93774,50102 93773,50103 93772,50104 93771,50104 93769,50105 93768,50106 93767,50107 93766,50107 93765,50108 93764,50109 93763,50110 93762,50111 93761,50112 93760,50113 93759,50114 93758,50115 93757,50116 93756,50117 93756,50118 93755,50119 93754,50120 93754,50121 93753,50123 93752,50124 93752,50125 93751,50126 93751,50127 93750,50128 93750,50129 93749,50131 93749,50132 93748,50133 93748,50134 93748,50135 93747,50137 93747,50138 93747,50139 93747,50140 93747,50142 93746,50144 93746,50145 93746,50146 93746,50148 93746,50149 Z"
   id="path122"
   style="stroke:none" />
   </g>
  </g>
  <g
   class="com.sun.star.drawing.PolyPolygonShape"
   id="g134"
   style="stroke:none">
   <g
   id="id12"
   style="stroke:none">
    <rect
   class="BoundingBox"
   stroke="none"
   fill="none"
   x="93872"
   y="50223"
   width="29"
   height="29"
   id="rect127"
   style="stroke:none" />
    <path
   fill="rgb(0,0,0)"
   stroke="none"
   d="M 93899,50237 L 93899,50236 93899,50235 93899,50234 93899,50233 93898,50232 93898,50231 93897,50230 93896,50229 93896,50228 93895,50228 93895,50227 93894,50227 93893,50226 93892,50226 93891,50225 93890,50225 93889,50225 93887,50225 93886,50225 93886,50224 93885,50225 93884,50225 93883,50225 93882,50225 93881,50225 93880,50226 93879,50226 93878,50227 93877,50227 93877,50228 93876,50229 93875,50230 93875,50231 93874,50231 93874,50232 93874,50233 93873,50233 93873,50234 93873,50235 93873,50236 93873,50237 93873,50239 93873,50240 93873,50241 93873,50242 93874,50242 93874,50243 93874,50244 93875,50244 93875,50245 93876,50246 93877,50247 93877,50248 93878,50248 93879,50249 93880,50249 93881,50250 93882,50250 93883,50250 93884,50250 93885,50250 93886,50250 93887,50250 93889,50250 93890,50250 93891,50250 93892,50249 93893,50249 93894,50248 93895,50248 93895,50247 93896,50247 93896,50246 93897,50245 93898,50244 93898,50243 93899,50242 93899,50241 93899,50240 93899,50239 93899,50237 Z"
   id="path129"
   style="stroke:none" />
    <path
   fill="none"
   stroke="rgb(0,0,0)"
   d="M 93899,50237 L 93899,50236 93899,50235 93899,50234 93899,50233 93898,50232 93898,50231 93897,50230 93896,50229 93896,50228 93895,50228 93895,50227 93894,50227 93893,50226 93892,50226 93891,50225 93890,50225 93889,50225 93887,50225 93886,50225 93886,50224 93885,50225 93884,50225 93883,50225 93882,50225 93881,50225 93880,50226 93879,50226 93878,50227 93877,50227 93877,50228 93876,50229 93875,50230 93875,50231 93874,50231 93874,50232 93874,50233 93873,50233 93873,50234 93873,50235 93873,50236 93873,50237 93873,50239 93873,50240 93873,50241 93873,50242 93874,50242 93874,50243 93874,50244 93875,50244 93875,50245 93876,50246 93877,50247 93877,50248 93878,50248 93879,50249 93880,50249 93881,50250 93882,50250 93883,50250 93884,50250 93885,50250 93886,50250 93887,50250 93889,50250 93890,50250 93891,50250 93892,50249 93893,50249 93894,50248 93895,50248 93895,50247 93896,50247 93896,50246 93897,50245 93898,50244 93898,50243 93899,50242 93899,50241 93899,50240 93899,50239 93899,50237 Z"
   id="path131"
   style="stroke:none" />
   </g>
  </g>
  <g
   class="com.sun.star.drawing.PolyPolygonShape"
   id="g143"
   style="stroke:none">
   <g
   id="id13"
   style="stroke:none">
    <rect
   class="BoundingBox"
   stroke="none"
   fill="none"
   x="93922"
   y="50096"
   width="109"
   height="160"
   id="rect136"
   style="stroke:none" />
    <path
   fill="rgb(0,0,0)"
   stroke="none"
   d="M 93923,50213 L 93923,50208 93951,50208 93951,50213 93951,50214 93951,50215 93951,50216 93952,50217 93952,50218 93953,50219 93953,50220 93954,50220 93954,50221 93955,50221 93955,50222 93956,50222 93956,50223 93957,50223 93958,50224 93959,50224 93960,50224 93960,50225 93962,50225 93963,50225 93964,50226 93966,50226 93967,50226 93968,50226 93969,50226 93970,50226 93971,50227 93972,50227 93974,50227 93975,50227 93977,50227 93978,50227 93979,50227 93980,50227 93981,50226 93983,50226 93984,50226 93985,50226 93987,50226 93987,50225 93989,50225 93990,50225 93991,50224 93992,50224 93993,50224 93993,50223 93994,50223 93995,50223 93995,50222 93996,50222 93996,50221 93997,50221 93997,50220 93998,50220 93998,50219 93999,50218 93999,50217 93999,50216 94000,50216 94000,50215 94000,50214 94000,50213 94000,50212 94000,50211 94000,50210 93999,50210 93999,50209 93999,50208 93999,50207 93998,50207 93998,50206 93997,50206 93997,50205 93996,50204 93995,50203 93994,50203 93994,50202 93993,50202 93949,50171 93948,50170 93946,50170 93945,50169 93944,50168 93943,50167 93942,50166 93940,50166 93939,50165 93938,50164 93937,50163 93936,50161 93935,50160 93934,50159 93934,50158 93933,50157 93932,50156 93931,50153 93931,50152 93930,50151 93929,50149 93929,50148 93928,50147 93928,50145 93928,50144 93927,50142 93927,50141 93927,50140 93927,50138 93927,50137 93927,50135 93927,50134 93927,50132 93927,50131 93927,50129 93928,50128 93928,50127 93928,50125 93929,50124 93929,50123 93930,50121 93931,50120 93931,50119 93932,50117 93933,50116 93933,50115 93934,50114 93935,50113 93936,50111 93937,50110 93938,50109 93939,50108 93940,50107 93941,50106 93943,50106 93944,50105 93945,50104 93946,50103 93948,50103 93949,50102 93950,50101 93952,50101 93953,50100 93954,50100 93956,50099 93957,50099 93958,50099 93959,50099 93961,50098 93962,50098 93963,50098 93964,50098 93966,50098 93967,50097 93968,50097 93969,50097 93971,50097 93972,50097 93973,50097 93974,50097 93975,50097 93977,50097 93978,50097 93979,50097 93980,50097 93982,50097 93983,50097 93984,50097 93985,50098 93987,50098 93988,50098 93989,50098 93990,50098 93991,50099 93993,50099 93994,50099 93995,50099 93997,50100 93998,50100 94000,50101 94001,50102 94003,50102 94004,50103 94005,50104 94007,50104 94008,50105 94009,50106 94011,50107 94012,50108 94013,50109 94014,50110 94015,50112 94016,50113 94017,50114 94018,50115 94019,50117 94019,50118 94020,50119 94021,50121 94021,50122 94022,50124 94022,50125 94023,50127 94023,50128 94024,50130 94024,50131 94024,50133 94024,50134 94024,50136 93996,50136 93996,50135 93996,50134 93996,50133 93995,50133 93995,50132 93995,50131 93994,50131 93994,50130 93994,50129 93993,50129 93993,50128 93992,50128 93991,50127 93990,50127 93989,50126 93988,50126 93987,50126 93985,50125 93983,50125 93982,50125 93980,50125 93979,50125 93977,50124 93975,50124 93974,50124 93972,50125 93971,50125 93969,50125 93968,50125 93966,50125 93964,50126 93963,50126 93962,50126 93961,50127 93960,50127 93959,50128 93958,50129 93957,50129 93957,50130 93957,50131 93956,50131 93956,50132 93956,50133 93955,50133 93955,50134 93955,50135 93955,50136 93955,50137 93955,50138 93955,50139 93956,50139 93956,50140 93956,50141 93957,50142 93958,50143 93959,50144 93960,50144 93960,50145 93961,50145 94005,50177 94006,50178 94007,50178 94009,50179 94010,50180 94011,50181 94012,50182 94014,50183 94015,50184 94016,50185 94017,50186 94018,50187 94019,50188 94020,50189 94021,50190 94022,50191 94022,50193 94023,50194 94024,50195 94024,50197 94025,50198 94026,50199 94026,50201 94027,50202 94027,50204 94027,50205 94029,50206 94029,50208 94029,50209 94029,50211 94029,50212 94029,50214 94029,50215 94029,50217 94029,50218 94027,50220 94027,50221 94027,50223 94026,50224 94026,50225 94025,50227 94025,50228 94024,50230 94024,50231 94023,50232 94022,50234 94021,50235 94020,50236 94020,50237 94019,50238 94018,50239 94016,50240 94015,50241 94014,50242 94013,50244 94012,50244 94011,50245 94009,50246 94008,50247 94007,50248 94006,50248 94004,50249 94003,50249 94001,50250 94000,50250 93998,50251 93997,50251 93995,50252 93994,50252 93992,50252 93991,50253 93989,50253 93988,50253 93986,50253 93985,50254 93983,50254 93982,50254 93980,50254 93979,50254 93977,50254 93975,50254 93974,50254 93972,50254 93971,50254 93969,50254 93968,50254 93966,50254 93965,50253 93963,50253 93962,50253 93960,50253 93958,50252 93957,50252 93956,50252 93954,50251 93952,50251 93951,50250 93949,50250 93948,50249 93946,50249 93945,50248 93944,50247 93942,50247 93941,50246 93940,50245 93938,50244 93937,50243 93936,50242 93935,50241 93934,50240 93933,50239 93932,50237 93931,50236 93930,50235 93929,50234 93928,50232 93927,50231 93927,50229 93926,50228 93925,50227 93925,50225 93924,50224 93924,50222 93924,50221 93923,50219 93923,50218 93923,50216 93923,50214 93923,50213 Z"
   id="path138"
   style="stroke:none" />
    <path
   fill="none"
   stroke="rgb(0,0,0)"
   d="M 93923,50213 L 93923,50208 93951,50208 93951,50213 93951,50214 93951,50215 93951,50216 93952,50217 93952,50218 93953,50219 93953,50220 93954,50220 93954,50221 93955,50221 93955,50222 93956,50222 93956,50223 93957,50223 93958,50224 93959,50224 93960,50224 93960,50225 93962,50225 93963,50225 93964,50226 93966,50226 93967,50226 93968,50226 93969,50226 93970,50226 93971,50227 93972,50227 93974,50227 93975,50227 93977,50227 93978,50227 93979,50227 93980,50227 93981,50226 93983,50226 93984,50226 93985,50226 93987,50226 93987,50225 93989,50225 93990,50225 93991,50224 93992,50224 93993,50224 93993,50223 93994,50223 93995,50223 93995,50222 93996,50222 93996,50221 93997,50221 93997,50220 93998,50220 93998,50219 93999,50218 93999,50217 93999,50216 94000,50216 94000,50215 94000,50214 94000,50213 94000,50212 94000,50211 94000,50210 93999,50210 93999,50209 93999,50208 93999,50207 93998,50207 93998,50206 93997,50206 93997,50205 93996,50204 93995,50203 93994,50203 93994,50202 93993,50202 93949,50171 93948,50170 93946,50170 93945,50169 93944,50168 93943,50167 93942,50166 93940,50166 93939,50165 93938,50164 93937,50163 93936,50161 93935,50160 93934,50159 93934,50158 93933,50157 93932,50156 93931,50153 93931,50152 93930,50151 93929,50149 93929,50148 93928,50147 93928,50145 93928,50144 93927,50142 93927,50141 93927,50140 93927,50138 93927,50137 93927,50135 93927,50134 93927,50132 93927,50131 93927,50129 93928,50128 93928,50127 93928,50125 93929,50124 93929,50123 93930,50121 93931,50120 93931,50119 93932,50117 93933,50116 93933,50115 93934,50114 93935,50113 93936,50111 93937,50110 93938,50109 93939,50108 93940,50107 93941,50106 93943,50106 93944,50105 93945,50104 93946,50103 93948,50103 93949,50102 93950,50101 93952,50101 93953,50100 93954,50100 93956,50099 93957,50099 93958,50099 93959,50099 93961,50098 93962,50098 93963,50098 93964,50098 93966,50098 93967,50097 93968,50097 93969,50097 93971,50097 93972,50097 93973,50097 93974,50097 93975,50097 93977,50097 93978,50097 93979,50097 93980,50097 93982,50097 93983,50097 93984,50097 93985,50098 93987,50098 93988,50098 93989,50098 93990,50098 93991,50099 93993,50099 93994,50099 93995,50099 93997,50100 93998,50100 94000,50101 94001,50102 94003,50102 94004,50103 94005,50104 94007,50104 94008,50105 94009,50106 94011,50107 94012,50108 94013,50109 94014,50110 94015,50112 94016,50113 94017,50114 94018,50115 94019,50117 94019,50118 94020,50119 94021,50121 94021,50122 94022,50124 94022,50125 94023,50127 94023,50128 94024,50130 94024,50131 94024,50133 94024,50134 94024,50136 93996,50136 93996,50135 93996,50134 93996,50133 93995,50133 93995,50132 93995,50131 93994,50131 93994,50130 93994,50129 93993,50129 93993,50128 93992,50128 93991,50127 93990,50127 93989,50126 93988,50126 93987,50126 93985,50125 93983,50125 93982,50125 93980,50125 93979,50125 93977,50124 93975,50124 93974,50124 93972,50125 93971,50125 93969,50125 93968,50125 93966,50125 93964,50126 93963,50126 93962,50126 93961,50127 93960,50127 93959,50128 93958,50129 93957,50129 93957,50130 93957,50131 93956,50131 93956,50132 93956,50133 93955,50133 93955,50134 93955,50135 93955,50136 93955,50137 93955,50138 93955,50139 93956,50139 93956,50140 93956,50141 93957,50142 93958,50143 93959,50144 93960,50144 93960,50145 93961,50145 94005,50177 94006,50178 94007,50178 94009,50179 94010,50180 94011,50181 94012,50182 94014,50183 94015,50184 94016,50185 94017,50186 94018,50187 94019,50188 94020,50189 94021,50190 94022,50191 94022,50193 94023,50194 94024,50195 94024,50197 94025,50198 94026,50199 94026,50201 94027,50202 94027,50204 94027,50205 94029,50206 94029,50208 94029,50209 94029,50211 94029,50212 94029,50214 94029,50215 94029,50217 94029,50218 94027,50220 94027,50221 94027,50223 94026,50224 94026,50225 94025,50227 94025,50228 94024,50230 94024,50231 94023,50232 94022,50234 94021,50235 94020,50236 94020,50237 94019,50238 94018,50239 94016,50240 94015,50241 94014,50242 94013,50244 94012,50244 94011,50245 94009,50246 94008,50247 94007,50248 94006,50248 94004,50249 94003,50249 94001,50250 94000,50250 93998,50251 93997,50251 93995,50252 93994,50252 93992,50252 93991,50253 93989,50253 93988,50253 93986,50253 93985,50254 93983,50254 93982,50254 93980,50254 93979,50254 93977,50254 93975,50254 93974,50254 93972,50254 93971,50254 93969,50254 93968,50254 93966,50254 93965,50253 93963,50253 93962,50253 93960,50253 93958,50252 93957,50252 93956,50252 93954,50251 93952,50251 93951,50250 93949,50250 93948,50249 93946,50249 93945,50248 93944,50247 93942,50247 93941,50246 93940,50245 93938,50244 93937,50243 93936,50242 93935,50241 93934,50240 93933,50239 93932,50237 93931,50236 93930,50235 93929,50234 93928,50232 93927,50231 93927,50229 93926,50228 93925,50227 93925,50225 93924,50224 93924,50222 93924,50221 93923,50219 93923,50218 93923,50216 93923,50214 93923,50213 Z"
   id="path140"
   style="stroke:none" />
   </g>
  </g>
  <g
   class="com.sun.star.drawing.PolyPolygonShape"
   id="g152"
   style="stroke:none">
   <g
   id="id14"
   style="stroke:none">
    <rect
   class="BoundingBox"
   stroke="none"
   fill="none"
   x="94052"
   y="50223"
   width="29"
   height="29"
   id="rect145"
   style="stroke:none" />
    <path
   fill="rgb(0,0,0)"
   stroke="none"
   d="M 94079,50237 L 94079,50236 94079,50235 94079,50234 94079,50233 94078,50233 94078,50232 94078,50231 94077,50231 94077,50230 94076,50229 94075,50228 94074,50227 94073,50227 94073,50226 94072,50226 94071,50225 94070,50225 94069,50225 94068,50225 94067,50225 94066,50224 94066,50225 94065,50225 94064,50225 94062,50225 94061,50225 94060,50225 94060,50226 94059,50226 94058,50227 94057,50227 94057,50228 94056,50228 94056,50229 94055,50229 94055,50230 94054,50231 94054,50232 94053,50233 94053,50234 94053,50235 94053,50236 94053,50237 94053,50239 94053,50240 94053,50241 94053,50242 94054,50243 94054,50244 94055,50245 94055,50246 94056,50246 94056,50247 94057,50247 94057,50248 94058,50248 94059,50249 94060,50249 94060,50250 94061,50250 94062,50250 94064,50250 94065,50250 94066,50250 94067,50250 94068,50250 94069,50250 94070,50250 94071,50250 94072,50249 94073,50249 94073,50248 94074,50248 94075,50247 94076,50246 94077,50245 94077,50244 94078,50244 94078,50243 94078,50242 94079,50242 94079,50241 94079,50240 94079,50239 94079,50237 Z"
   id="path147"
   style="stroke:none" />
    <path
   fill="none"
   stroke="rgb(0,0,0)"
   d="M 94079,50237 L 94079,50236 94079,50235 94079,50234 94079,50233 94078,50233 94078,50232 94078,50231 94077,50231 94077,50230 94076,50229 94075,50228 94074,50227 94073,50227 94073,50226 94072,50226 94071,50225 94070,50225 94069,50225 94068,50225 94067,50225 94066,50224 94066,50225 94065,50225 94064,50225 94062,50225 94061,50225 94060,50225 94060,50226 94059,50226 94058,50227 94057,50227 94057,50228 94056,50228 94056,50229 94055,50229 94055,50230 94054,50231 94054,50232 94053,50233 94053,50234 94053,50235 94053,50236 94053,50237 94053,50239 94053,50240 94053,50241 94053,50242 94054,50243 94054,50244 94055,50245 94055,50246 94056,50246 94056,50247 94057,50247 94057,50248 94058,50248 94059,50249 94060,50249 94060,50250 94061,50250 94062,50250 94064,50250 94065,50250 94066,50250 94067,50250 94068,50250 94069,50250 94070,50250 94071,50250 94072,50249 94073,50249 94073,50248 94074,50248 94075,50247 94076,50246 94077,50245 94077,50244 94078,50244 94078,50243 94078,50242 94079,50242 94079,50241 94079,50240 94079,50239 94079,50237 Z"
   id="path149"
   style="stroke:none" />
   </g>
  </g>
 </g>
</svg>
