<?xml version="1.0" encoding="UTF-8" standalone="no"?>
<svg
   version="1.2"
   width="31.39mm"
   height="9.03mm"
   viewBox="55831 49499 3139 903"
   preserveAspectRatio="xMidYMid"
   fill-rule="evenodd"
   stroke-width="28.222"
   stroke-linejoin="round"
   xml:space="preserve"
   id="svg309"
   sodipodi:docname="Belgian_traffic_sign_GVI.svg"
   inkscape:version="1.2.2 (732a01da63, 2022-12-09)"
   xmlns:inkscape="http://www.inkscape.org/namespaces/inkscape"
   xmlns:sodipodi="http://sodipodi.sourceforge.net/DTD/sodipodi-0.dtd"
   xmlns="http://www.w3.org/2000/svg"
   xmlns:svg="http://www.w3.org/2000/svg"><sodipodi:namedview
   id="namedview311"
   pagecolor="#ffffff"
   bordercolor="#111111"
   borderopacity="1"
   inkscape:showpageshadow="0"
   inkscape:pageopacity="0"
   inkscape:pagecheckerboard="1"
   inkscape:deskcolor="#d1d1d1"
   inkscape:document-units="mm"
   showgrid="false"
   inkscape:zoom="6.9149135"
   inkscape:cx="59.292138"
   inkscape:cy="17.064566"
   inkscape:window-width="1920"
   inkscape:window-height="1057"
   inkscape:window-x="-8"
   inkscape:window-y="-8"
   inkscape:window-maximized="1"
   inkscape:current-layer="svg309" />
 <defs
   class="EmbeddedBulletChars"
   id="defs32">
  <g
   id="bullet-char-template-57356"
   transform="scale(0.00048828125,-0.00048828125)">
   <path
   d="M 580,1141 L 1163,571 580,0 -4,571 580,1141 Z"
   id="path2" />
  </g>
  <g
   id="bullet-char-template-57354"
   transform="scale(0.00048828125,-0.00048828125)">
   <path
   d="M 8,1128 L 1137,1128 1137,0 8,0 8,1128 Z"
   id="path5" />
  </g>
  <g
   id="bullet-char-template-10146"
   transform="scale(0.00048828125,-0.00048828125)">
   <path
   d="M 174,0 L 602,739 174,1481 1456,739 174,0 Z M 1358,739 L 309,1346 659,739 1358,739 Z"
   id="path8" />
  </g>
  <g
   id="bullet-char-template-10132"
   transform="scale(0.00048828125,-0.00048828125)">
   <path
   d="M 2015,739 L 1276,0 717,0 1260,543 174,543 174,936 1260,936 717,1481 1274,1481 2015,739 Z"
   id="path11" />
  </g>
  <g
   id="bullet-char-template-10007"
   transform="scale(0.00048828125,-0.00048828125)">
   <path
   d="M 0,-2 C -7,14 -16,27 -25,37 L 356,567 C 262,823 215,952 215,954 215,979 228,992 255,992 264,992 276,990 289,987 310,991 331,999 354,1012 L 381,999 492,748 772,1049 836,1024 860,1049 C 881,1039 901,1025 922,1006 886,937 835,863 770,784 769,783 710,716 594,584 L 774,223 C 774,196 753,168 711,139 L 727,119 C 717,90 699,76 672,76 641,76 570,178 457,381 L 164,-76 C 142,-110 111,-127 72,-127 30,-127 9,-110 8,-76 1,-67 -2,-52 -2,-32 -2,-23 -1,-13 0,-2 Z"
   id="path14" />
  </g>
  <g
   id="bullet-char-template-10004"
   transform="scale(0.00048828125,-0.00048828125)">
   <path
   d="M 285,-33 C 182,-33 111,30 74,156 52,228 41,333 41,471 41,549 55,616 82,672 116,743 169,778 240,778 293,778 328,747 346,684 L 369,508 C 377,444 397,411 428,410 L 1163,1116 C 1174,1127 1196,1133 1229,1133 1271,1133 1292,1118 1292,1087 L 1292,965 C 1292,929 1282,901 1262,881 L 442,47 C 390,-6 338,-33 285,-33 Z"
   id="path17" />
  </g>
  <g
   id="bullet-char-template-9679"
   transform="scale(0.00048828125,-0.00048828125)">
   <path
   d="M 813,0 C 632,0 489,54 383,161 276,268 223,411 223,592 223,773 276,916 383,1023 489,1130 632,1184 813,1184 992,1184 1136,1130 1245,1023 1353,916 1407,772 1407,592 1407,412 1353,268 1245,161 1136,54 992,0 813,0 Z"
   id="path20" />
  </g>
  <g
   id="bullet-char-template-8226"
   transform="scale(0.00048828125,-0.00048828125)">
   <path
   d="M 346,457 C 273,457 209,483 155,535 101,586 74,649 74,723 74,796 101,859 155,911 209,963 273,989 346,989 419,989 480,963 531,910 582,859 608,796 608,723 608,648 583,586 532,535 482,483 420,457 346,457 Z"
   id="path23" />
  </g>
  <g
   id="bullet-char-template-8211"
   transform="scale(0.00048828125,-0.00048828125)">
   <path
   d="M -4,459 L 1135,459 1135,606 -4,606 -4,459 Z"
   id="path26" />
  </g>
  <g
   id="bullet-char-template-61548"
   transform="scale(0.00048828125,-0.00048828125)">
   <path
   d="M 173,740 C 173,903 231,1043 346,1159 462,1274 601,1332 765,1332 928,1332 1067,1274 1183,1159 1299,1043 1357,903 1357,740 1357,577 1299,437 1183,322 1067,206 928,148 765,148 601,148 462,206 346,322 231,437 173,577 173,740 Z"
   id="path29" />
  </g>
 </defs>
 <g
   class="Page"
   id="g307"
   style="stroke:none">
  <g
   class="com.sun.star.drawing.PolyPolygonShape"
   id="g41"
   style="stroke:none">
   <g
   id="id3"
   style="stroke:none">
    <rect
   class="BoundingBox"
   stroke="none"
   fill="none"
   x="55831"
   y="49499"
   width="3139"
   height="903"
   id="rect34"
   style="stroke:none" />
    <path
   fill="rgb(0,0,255)"
   stroke="none"
   d="M 56033,50400 L 58766,50400 58786,50399 58806,50396 58825,50392 58844,50385 58862,50376 58878,50366 58894,50354 58909,50341 58922,50326 58934,50310 58944,50293 58953,50275 58960,50257 58964,50237 58967,50218 58968,50198 58968,49702 58967,49682 58964,49663 58960,49643 58953,49624 58944,49607 58934,49590 58922,49574 58909,49559 58894,49545 58878,49534 58862,49524 58844,49515 58825,49508 58806,49504 58786,49501 58766,49500 56033,49500 56013,49501 55994,49504 55975,49508 55956,49515 55938,49524 55921,49534 55905,49545 55891,49559 55877,49574 55866,49590 55855,49607 55847,49624 55840,49643 55836,49663 55833,49682 55832,49702 55832,50198 55833,50218 55836,50237 55840,50257 55847,50275 55855,50293 55866,50310 55877,50326 55891,50341 55905,50354 55921,50366 55938,50376 55956,50385 55975,50392 55994,50396 56013,50399 56033,50400 Z"
   id="path36"
   style="stroke:none" />
    <path
   fill="none"
   stroke="rgb(0,0,255)"
   d="M 56033,50400 L 58766,50400 58786,50399 58806,50396 58825,50392 58844,50385 58862,50376 58878,50366 58894,50354 58909,50341 58922,50326 58934,50310 58944,50293 58953,50275 58960,50257 58964,50237 58967,50218 58968,50198 58968,49702 58967,49682 58964,49663 58960,49643 58953,49624 58944,49607 58934,49590 58922,49574 58909,49559 58894,49545 58878,49534 58862,49524 58844,49515 58825,49508 58806,49504 58786,49501 58766,49500 56033,49500 56013,49501 55994,49504 55975,49508 55956,49515 55938,49524 55921,49534 55905,49545 55891,49559 55877,49574 55866,49590 55855,49607 55847,49624 55840,49643 55836,49663 55833,49682 55832,49702 55832,50198 55833,50218 55836,50237 55840,50257 55847,50275 55855,50293 55866,50310 55877,50326 55891,50341 55905,50354 55921,50366 55938,50376 55956,50385 55975,50392 55994,50396 56013,50399 56033,50400 Z"
   id="path38"
   style="stroke:none" />
   </g>
  </g>
  <g
   class="com.sun.star.drawing.PolyPolygonShape"
   id="g50"
   style="stroke:none">
   <g
   id="id4"
   style="stroke:none">
    <rect
   class="BoundingBox"
   stroke="none"
   fill="none"
   x="55916"
   y="49679"
   width="281"
   height="543"
   id="rect43"
   style="stroke:none" />
    <path
   fill="rgb(255,255,255)"
   stroke="none"
   d="M 55917,50220 L 55917,49680 55994,49680 55994,49912 56117,49912 56117,49680 56195,49680 56195,50220 56117,50220 56117,49981 55994,49981 55994,50220 55917,50220 Z"
   id="path45"
   style="stroke:none" />
    <path
   fill="none"
   stroke="rgb(255,255,255)"
   d="M 55917,50220 L 55917,49680 55994,49680 55994,49912 56117,49912 56117,49680 56195,49680 56195,50220 56117,50220 56117,49981 55994,49981 55994,50220 55917,50220 Z"
   id="path47"
   style="stroke:none" />
   </g>
  </g>
  <g
   class="com.sun.star.drawing.PolyPolygonShape"
   id="g59"
   style="stroke:none">
   <g
   id="id5"
   style="stroke:none">
    <rect
   class="BoundingBox"
   stroke="none"
   fill="none"
   x="55916"
   y="49679"
   width="281"
   height="543"
   id="rect52"
   style="stroke:none" />
    <path
   fill="rgb(255,255,255)"
   stroke="none"
   d="M 55917,50220 L 55917,49680 55994,49680 55994,49912 56117,49912 56117,49680 56195,49680 56195,50220 56117,50220 56117,49981 55994,49981 55994,50220 55917,50220 Z"
   id="path54"
   style="stroke:none" />
    <path
   fill="none"
   stroke="rgb(255,255,255)"
   d="M 55917,50220 L 55917,49680 55994,49680 55994,49912 56117,49912 56117,49680 56195,49680 56195,50220 56117,50220 56117,49981 55994,49981 55994,50220 55917,50220 Z"
   id="path56"
   style="stroke:none" />
   </g>
  </g>
  <g
   class="com.sun.star.drawing.PolyPolygonShape"
   id="g68"
   style="stroke:none">
   <g
   id="id6"
   style="stroke:none">
    <rect
   class="BoundingBox"
   stroke="none"
   fill="none"
   x="55916"
   y="49679"
   width="281"
   height="543"
   id="rect61"
   style="stroke:none" />
    <path
   fill="rgb(255,255,255)"
   stroke="none"
   d="M 55917,50220 L 55917,49680 55994,49680 55994,49912 56117,49912 56117,49680 56195,49680 56195,50220 56117,50220 56117,49981 55994,49981 55994,50220 55917,50220 Z"
   id="path63"
   style="stroke:none" />
    <path
   fill="none"
   stroke="rgb(255,255,255)"
   d="M 55917,50220 L 55917,49680 55994,49680 55994,49912 56117,49912 56117,49680 56195,49680 56195,50220 56117,50220 56117,49981 55994,49981 55994,50220 55917,50220 Z"
   id="path65"
   style="stroke:none" />
   </g>
  </g>
  <g
   class="com.sun.star.drawing.PolyPolygonShape"
   id="g77"
   style="stroke:none">
   <g
   id="id7"
   style="stroke:none">
    <rect
   class="BoundingBox"
   stroke="none"
   fill="none"
   x="56300"
   y="49679"
   width="258"
   height="543"
   id="rect70"
   style="stroke:none" />
    <path
   fill="rgb(255,255,255)"
   stroke="none"
   d="M 56301,50220 L 56301,49680 56556,49680 56556,49749 56378,49749 56378,49916 56493,49916 56493,49985 56378,49985 56378,50151 56556,50151 56556,50220 56301,50220 Z"
   id="path72"
   style="stroke:none" />
    <path
   fill="none"
   stroke="rgb(255,255,255)"
   d="M 56301,50220 L 56301,49680 56556,49680 56556,49749 56378,49749 56378,49916 56493,49916 56493,49985 56378,49985 56378,50151 56556,50151 56556,50220 56301,50220 Z"
   id="path74"
   style="stroke:none" />
   </g>
  </g>
  <g
   class="com.sun.star.drawing.PolyPolygonShape"
   id="g86"
   style="stroke:none">
   <g
   id="id8"
   style="stroke:none">
    <rect
   class="BoundingBox"
   stroke="none"
   fill="none"
   x="56300"
   y="49679"
   width="258"
   height="543"
   id="rect79"
   style="stroke:none" />
    <path
   fill="rgb(255,255,255)"
   stroke="none"
   d="M 56301,50220 L 56301,49680 56556,49680 56556,49749 56378,49749 56378,49916 56493,49916 56493,49985 56378,49985 56378,50151 56556,50151 56556,50220 56301,50220 Z"
   id="path81"
   style="stroke:none" />
    <path
   fill="none"
   stroke="rgb(255,255,255)"
   d="M 56301,50220 L 56301,49680 56556,49680 56556,49749 56378,49749 56378,49916 56493,49916 56493,49985 56378,49985 56378,50151 56556,50151 56556,50220 56301,50220 Z"
   id="path83"
   style="stroke:none" />
   </g>
  </g>
  <g
   class="com.sun.star.drawing.PolyPolygonShape"
   id="g95"
   style="stroke:none">
   <g
   id="id9"
   style="stroke:none">
    <rect
   class="BoundingBox"
   stroke="none"
   fill="none"
   x="56300"
   y="49679"
   width="258"
   height="543"
   id="rect88"
   style="stroke:none" />
    <path
   fill="rgb(255,255,255)"
   stroke="none"
   d="M 56301,50220 L 56301,49680 56556,49680 56556,49749 56378,49749 56378,49916 56493,49916 56493,49985 56378,49985 56378,50151 56556,50151 56556,50220 56301,50220 Z"
   id="path90"
   style="stroke:none" />
    <path
   fill="none"
   stroke="rgb(255,255,255)"
   d="M 56301,50220 L 56301,49680 56556,49680 56556,49749 56378,49749 56378,49916 56493,49916 56493,49985 56378,49985 56378,50151 56556,50151 56556,50220 56301,50220 Z"
   id="path92"
   style="stroke:none" />
   </g>
  </g>
  <g
   class="com.sun.star.drawing.PolyPolygonShape"
   id="g106"
   style="stroke:none">
   <g
   id="id10"
   style="stroke:none">
    <rect
   class="BoundingBox"
   stroke="none"
   fill="none"
   x="56634"
   y="49679"
   width="292"
   height="543"
   id="rect97"
   style="stroke:none" />
    <path
   fill="rgb(255,255,255)"
   stroke="none"
   d="M 56713,49749 L 56782,49749 56793,49750 56803,49753 56812,49758 56820,49765 56827,49773 56832,49782 56835,49792 56836,49803 56836,49857 56835,49868 56832,49879 56827,49888 56820,49896 56812,49903 56803,49908 56793,49911 56782,49912 56713,49912 56713,49749 Z M 56635,50220 L 56635,49680 56790,49680 56802,49680 56814,49682 56826,49685 56837,49689 56848,49694 56858,49700 56868,49708 56877,49716 56885,49725 56892,49734 56898,49745 56903,49756 56908,49767 56910,49779 56912,49791 56913,49803 56913,49857 56912,49869 56911,49879 56909,49890 56906,49900 56902,49909 56897,49919 56891,49928 56885,49937 56878,49944 56870,49952 56861,49958 56852,49964 56843,49969 56834,49973 56823,49977 56813,49979 56924,50220 56839,50220 56730,49981 56713,49981 56713,50220 56635,50220 Z"
   id="path99"
   style="stroke:none" />
    <path
   fill="none"
   stroke="rgb(255,255,255)"
   d="M 56713,49749 L 56782,49749 56793,49750 56803,49753 56812,49758 56820,49765 56827,49773 56832,49782 56835,49792 56836,49803 56836,49857 56835,49868 56832,49879 56827,49888 56820,49896 56812,49903 56803,49908 56793,49911 56782,49912 56713,49912 56713,49749 Z"
   id="path101"
   style="stroke:none" />
    <path
   fill="none"
   stroke="rgb(255,255,255)"
   d="M 56635,50220 L 56635,49680 56790,49680 56802,49680 56814,49682 56826,49685 56837,49689 56848,49694 56858,49700 56868,49708 56877,49716 56885,49725 56892,49734 56898,49745 56903,49756 56908,49767 56910,49779 56912,49791 56913,49803 56913,49857 56912,49869 56911,49879 56909,49890 56906,49900 56902,49909 56897,49919 56891,49928 56885,49937 56878,49944 56870,49952 56861,49958 56852,49964 56843,49969 56834,49973 56823,49977 56813,49979 56924,50220 56839,50220 56730,49981 56713,49981 56713,50220 56635,50220 Z"
   id="path103"
   style="stroke:none" />
   </g>
  </g>
  <g
   class="com.sun.star.drawing.PolyPolygonShape"
   id="g117"
   style="stroke:none">
   <g
   id="id11"
   style="stroke:none">
    <rect
   class="BoundingBox"
   stroke="none"
   fill="none"
   x="56634"
   y="49679"
   width="292"
   height="543"
   id="rect108"
   style="stroke:none" />
    <path
   fill="rgb(255,255,255)"
   stroke="none"
   d="M 56713,49749 L 56782,49749 56793,49750 56803,49753 56812,49758 56820,49765 56827,49773 56832,49782 56835,49792 56836,49803 56836,49857 56835,49868 56832,49879 56827,49888 56820,49896 56812,49903 56803,49908 56793,49911 56782,49912 56713,49912 56713,49749 Z M 56635,50220 L 56635,49680 56790,49680 56802,49680 56814,49682 56826,49685 56837,49689 56848,49694 56858,49700 56868,49708 56877,49716 56885,49725 56892,49734 56898,49745 56903,49756 56908,49767 56910,49779 56912,49791 56913,49803 56913,49857 56912,49869 56911,49879 56909,49890 56906,49900 56902,49909 56897,49919 56891,49928 56885,49937 56878,49944 56870,49952 56861,49958 56852,49964 56843,49969 56834,49973 56823,49977 56813,49979 56924,50220 56839,50220 56730,49981 56713,49981 56713,50220 56635,50220 Z"
   id="path110"
   style="stroke:none" />
    <path
   fill="none"
   stroke="rgb(255,255,255)"
   d="M 56713,49749 L 56782,49749 56793,49750 56803,49753 56812,49758 56820,49765 56827,49773 56832,49782 56835,49792 56836,49803 56836,49857 56835,49868 56832,49879 56827,49888 56820,49896 56812,49903 56803,49908 56793,49911 56782,49912 56713,49912 56713,49749 Z"
   id="path112"
   style="stroke:none" />
    <path
   fill="none"
   stroke="rgb(255,255,255)"
   d="M 56635,50220 L 56635,49680 56790,49680 56802,49680 56814,49682 56826,49685 56837,49689 56848,49694 56858,49700 56868,49708 56877,49716 56885,49725 56892,49734 56898,49745 56903,49756 56908,49767 56910,49779 56912,49791 56913,49803 56913,49857 56912,49869 56911,49879 56909,49890 56906,49900 56902,49909 56897,49919 56891,49928 56885,49937 56878,49944 56870,49952 56861,49958 56852,49964 56843,49969 56834,49973 56823,49977 56813,49979 56924,50220 56839,50220 56730,49981 56713,49981 56713,50220 56635,50220 Z"
   id="path114"
   style="stroke:none" />
   </g>
  </g>
  <g
   class="com.sun.star.drawing.PolyPolygonShape"
   id="g128"
   style="stroke:none">
   <g
   id="id12"
   style="stroke:none">
    <rect
   class="BoundingBox"
   stroke="none"
   fill="none"
   x="56634"
   y="49679"
   width="292"
   height="543"
   id="rect119"
   style="stroke:none" />
    <path
   fill="rgb(255,255,255)"
   stroke="none"
   d="M 56713,49749 L 56782,49749 56793,49750 56803,49753 56812,49758 56820,49765 56827,49773 56832,49782 56835,49792 56836,49803 56836,49857 56835,49868 56832,49879 56827,49888 56820,49896 56812,49903 56803,49908 56793,49911 56782,49912 56713,49912 56713,49749 Z M 56635,50220 L 56635,49680 56790,49680 56802,49680 56814,49682 56826,49685 56837,49689 56848,49694 56858,49700 56868,49708 56877,49716 56885,49725 56892,49734 56898,49745 56903,49756 56908,49767 56910,49779 56912,49791 56913,49803 56913,49857 56912,49869 56911,49879 56909,49890 56906,49900 56902,49909 56897,49919 56891,49928 56885,49937 56878,49944 56870,49952 56861,49958 56852,49964 56843,49969 56834,49973 56823,49977 56813,49979 56924,50220 56839,50220 56730,49981 56713,49981 56713,50220 56635,50220 Z"
   id="path121"
   style="stroke:none" />
    <path
   fill="none"
   stroke="rgb(255,255,255)"
   d="M 56713,49749 L 56782,49749 56793,49750 56803,49753 56812,49758 56820,49765 56827,49773 56832,49782 56835,49792 56836,49803 56836,49857 56835,49868 56832,49879 56827,49888 56820,49896 56812,49903 56803,49908 56793,49911 56782,49912 56713,49912 56713,49749 Z"
   id="path123"
   style="stroke:none" />
    <path
   fill="none"
   stroke="rgb(255,255,255)"
   d="M 56635,50220 L 56635,49680 56790,49680 56802,49680 56814,49682 56826,49685 56837,49689 56848,49694 56858,49700 56868,49708 56877,49716 56885,49725 56892,49734 56898,49745 56903,49756 56908,49767 56910,49779 56912,49791 56913,49803 56913,49857 56912,49869 56911,49879 56909,49890 56906,49900 56902,49909 56897,49919 56891,49928 56885,49937 56878,49944 56870,49952 56861,49958 56852,49964 56843,49969 56834,49973 56823,49977 56813,49979 56924,50220 56839,50220 56730,49981 56713,49981 56713,50220 56635,50220 Z"
   id="path125"
   style="stroke:none" />
   </g>
  </g>
  <g
   class="com.sun.star.drawing.PolyPolygonShape"
   id="g137"
   style="stroke:none">
   <g
   id="id13"
   style="stroke:none">
    <rect
   class="BoundingBox"
   stroke="none"
   fill="none"
   x="56997"
   y="49679"
   width="280"
   height="543"
   id="rect130"
   style="stroke:none" />
    <path
   fill="rgb(255,255,255)"
   stroke="none"
   d="M 56998,50220 L 56998,49680 57075,49680 57075,49912 57197,49912 57197,49680 57275,49680 57275,50220 57197,50220 57197,49981 57075,49981 57075,50220 56998,50220 Z"
   id="path132"
   style="stroke:none" />
    <path
   fill="none"
   stroke="rgb(255,255,255)"
   d="M 56998,50220 L 56998,49680 57075,49680 57075,49912 57197,49912 57197,49680 57275,49680 57275,50220 57197,50220 57197,49981 57075,49981 57075,50220 56998,50220 Z"
   id="path134"
   style="stroke:none" />
   </g>
  </g>
  <g
   class="com.sun.star.drawing.PolyPolygonShape"
   id="g146"
   style="stroke:none">
   <g
   id="id14"
   style="stroke:none">
    <rect
   class="BoundingBox"
   stroke="none"
   fill="none"
   x="56997"
   y="49679"
   width="280"
   height="543"
   id="rect139"
   style="stroke:none" />
    <path
   fill="rgb(255,255,255)"
   stroke="none"
   d="M 56998,50220 L 56998,49680 57075,49680 57075,49912 57197,49912 57197,49680 57275,49680 57275,50220 57197,50220 57197,49981 57075,49981 57075,50220 56998,50220 Z"
   id="path141"
   style="stroke:none" />
    <path
   fill="none"
   stroke="rgb(255,255,255)"
   d="M 56998,50220 L 56998,49680 57075,49680 57075,49912 57197,49912 57197,49680 57275,49680 57275,50220 57197,50220 57197,49981 57075,49981 57075,50220 56998,50220 Z"
   id="path143"
   style="stroke:none" />
   </g>
  </g>
  <g
   class="com.sun.star.drawing.PolyPolygonShape"
   id="g155"
   style="stroke:none">
   <g
   id="id15"
   style="stroke:none">
    <rect
   class="BoundingBox"
   stroke="none"
   fill="none"
   x="56997"
   y="49679"
   width="280"
   height="543"
   id="rect148"
   style="stroke:none" />
    <path
   fill="rgb(255,255,255)"
   stroke="none"
   d="M 56998,50220 L 56998,49680 57075,49680 57075,49912 57197,49912 57197,49680 57275,49680 57275,50220 57197,50220 57197,49981 57075,49981 57075,50220 56998,50220 Z"
   id="path150"
   style="stroke:none" />
    <path
   fill="none"
   stroke="rgb(255,255,255)"
   d="M 56998,50220 L 56998,49680 57075,49680 57075,49912 57197,49912 57197,49680 57275,49680 57275,50220 57197,50220 57197,49981 57075,49981 57075,50220 56998,50220 Z"
   id="path152"
   style="stroke:none" />
   </g>
  </g>
  <g
   class="com.sun.star.drawing.PolyPolygonShape"
   id="g166"
   style="stroke:none">
   <g
   id="id16"
   style="stroke:none">
    <rect
   class="BoundingBox"
   stroke="none"
   fill="none"
   x="57348"
   y="49679"
   width="327"
   height="543"
   id="rect157"
   style="stroke:none" />
    <path
   fill="rgb(255,255,255)"
   stroke="none"
   d="M 57457,50089 L 57565,50089 57512,49845 57457,50089 Z M 57349,50220 L 57428,50220 57442,50159 57581,50159 57594,50220 57673,50220 57554,49680 57468,49680 57349,50220 Z"
   id="path159"
   style="stroke:none" />
    <path
   fill="none"
   stroke="rgb(255,255,255)"
   d="M 57457,50089 L 57565,50089 57512,49845 57457,50089 Z"
   id="path161"
   style="stroke:none" />
    <path
   fill="none"
   stroke="rgb(255,255,255)"
   d="M 57349,50220 L 57428,50220 57442,50159 57581,50159 57594,50220 57673,50220 57554,49680 57468,49680 57349,50220 Z"
   id="path163"
   style="stroke:none" />
   </g>
  </g>
  <g
   class="com.sun.star.drawing.PolyPolygonShape"
   id="g177"
   style="stroke:none">
   <g
   id="id17"
   style="stroke:none">
    <rect
   class="BoundingBox"
   stroke="none"
   fill="none"
   x="57348"
   y="49679"
   width="327"
   height="543"
   id="rect168"
   style="stroke:none" />
    <path
   fill="rgb(255,255,255)"
   stroke="none"
   d="M 57457,50089 L 57565,50089 57512,49845 57457,50089 Z M 57349,50220 L 57428,50220 57442,50159 57581,50159 57594,50220 57673,50220 57554,49680 57468,49680 57349,50220 Z"
   id="path170"
   style="stroke:none" />
    <path
   fill="none"
   stroke="rgb(255,255,255)"
   d="M 57457,50089 L 57565,50089 57512,49845 57457,50089 Z"
   id="path172"
   style="stroke:none" />
    <path
   fill="none"
   stroke="rgb(255,255,255)"
   d="M 57349,50220 L 57428,50220 57442,50159 57581,50159 57594,50220 57673,50220 57554,49680 57468,49680 57349,50220 Z"
   id="path174"
   style="stroke:none" />
   </g>
  </g>
  <g
   class="com.sun.star.drawing.PolyPolygonShape"
   id="g188"
   style="stroke:none">
   <g
   id="id18"
   style="stroke:none">
    <rect
   class="BoundingBox"
   stroke="none"
   fill="none"
   x="57348"
   y="49679"
   width="327"
   height="543"
   id="rect179"
   style="stroke:none" />
    <path
   fill="rgb(255,255,255)"
   stroke="none"
   d="M 57457,50089 L 57565,50089 57512,49845 57457,50089 Z M 57349,50220 L 57428,50220 57442,50159 57581,50159 57594,50220 57673,50220 57554,49680 57468,49680 57349,50220 Z"
   id="path181"
   style="stroke:none" />
    <path
   fill="none"
   stroke="rgb(255,255,255)"
   d="M 57457,50089 L 57565,50089 57512,49845 57457,50089 Z"
   id="path183"
   style="stroke:none" />
    <path
   fill="none"
   stroke="rgb(255,255,255)"
   d="M 57349,50220 L 57428,50220 57442,50159 57581,50159 57594,50220 57673,50220 57554,49680 57468,49680 57349,50220 Z"
   id="path185"
   style="stroke:none" />
   </g>
  </g>
  <g
   class="com.sun.star.drawing.PolyPolygonShape"
   id="g197"
   style="stroke:none">
   <g
   id="id19"
   style="stroke:none">
    <rect
   class="BoundingBox"
   stroke="none"
   fill="none"
   x="57746"
   y="49679"
   width="235"
   height="543"
   id="rect190"
   style="stroke:none" />
    <path
   fill="rgb(255,255,255)"
   stroke="none"
   d="M 57747,50220 L 57747,49680 57824,49680 57824,50151 57979,50151 57979,50220 57747,50220 Z"
   id="path192"
   style="stroke:none" />
    <path
   fill="none"
   stroke="rgb(255,255,255)"
   d="M 57747,50220 L 57747,49680 57824,49680 57824,50151 57979,50151 57979,50220 57747,50220 Z"
   id="path194"
   style="stroke:none" />
   </g>
  </g>
  <g
   class="com.sun.star.drawing.PolyPolygonShape"
   id="g206"
   style="stroke:none">
   <g
   id="id20"
   style="stroke:none">
    <rect
   class="BoundingBox"
   stroke="none"
   fill="none"
   x="57746"
   y="49679"
   width="235"
   height="543"
   id="rect199"
   style="stroke:none" />
    <path
   fill="rgb(255,255,255)"
   stroke="none"
   d="M 57747,50220 L 57747,49680 57824,49680 57824,50151 57979,50151 57979,50220 57747,50220 Z"
   id="path201"
   style="stroke:none" />
    <path
   fill="none"
   stroke="rgb(255,255,255)"
   d="M 57747,50220 L 57747,49680 57824,49680 57824,50151 57979,50151 57979,50220 57747,50220 Z"
   id="path203"
   style="stroke:none" />
   </g>
  </g>
  <g
   class="com.sun.star.drawing.PolyPolygonShape"
   id="g215"
   style="stroke:none">
   <g
   id="id21"
   style="stroke:none">
    <rect
   class="BoundingBox"
   stroke="none"
   fill="none"
   x="57746"
   y="49679"
   width="235"
   height="543"
   id="rect208"
   style="stroke:none" />
    <path
   fill="rgb(255,255,255)"
   stroke="none"
   d="M 57747,50220 L 57747,49680 57824,49680 57824,50151 57979,50151 57979,50220 57747,50220 Z"
   id="path210"
   style="stroke:none" />
    <path
   fill="none"
   stroke="rgb(255,255,255)"
   d="M 57747,50220 L 57747,49680 57824,49680 57824,50151 57979,50151 57979,50220 57747,50220 Z"
   id="path212"
   style="stroke:none" />
   </g>
  </g>
  <g
   class="com.sun.star.drawing.PolyPolygonShape"
   id="g224"
   style="stroke:none">
   <g
   id="id22"
   style="stroke:none">
    <rect
   class="BoundingBox"
   stroke="none"
   fill="none"
   x="58046"
   y="49679"
   width="81"
   height="543"
   id="rect217"
   style="stroke:none" />
    <path
   fill="rgb(255,255,255)"
   stroke="none"
   d="M 58047,50220 L 58125,50220 58125,49680 58047,49680 58047,50220 Z"
   id="path219"
   style="stroke:none" />
    <path
   fill="none"
   stroke="rgb(255,255,255)"
   d="M 58047,50220 L 58125,50220 58125,49680 58047,49680 58047,50220 Z"
   id="path221"
   style="stroke:none" />
   </g>
  </g>
  <g
   class="com.sun.star.drawing.PolyPolygonShape"
   id="g233"
   style="stroke:none">
   <g
   id="id23"
   style="stroke:none">
    <rect
   class="BoundingBox"
   stroke="none"
   fill="none"
   x="58046"
   y="49679"
   width="81"
   height="543"
   id="rect226"
   style="stroke:none" />
    <path
   fill="rgb(255,255,255)"
   stroke="none"
   d="M 58047,50220 L 58125,50220 58125,49680 58047,49680 58047,50220 Z"
   id="path228"
   style="stroke:none" />
    <path
   fill="none"
   stroke="rgb(255,255,255)"
   d="M 58047,50220 L 58125,50220 58125,49680 58047,49680 58047,50220 Z"
   id="path230"
   style="stroke:none" />
   </g>
  </g>
  <g
   class="com.sun.star.drawing.PolyPolygonShape"
   id="g242"
   style="stroke:none">
   <g
   id="id24"
   style="stroke:none">
    <rect
   class="BoundingBox"
   stroke="none"
   fill="none"
   x="58046"
   y="49679"
   width="81"
   height="543"
   id="rect235"
   style="stroke:none" />
    <path
   fill="rgb(255,255,255)"
   stroke="none"
   d="M 58047,50220 L 58125,50220 58125,49680 58047,49680 58047,50220 Z"
   id="path237"
   style="stroke:none" />
    <path
   fill="none"
   stroke="rgb(255,255,255)"
   d="M 58047,50220 L 58125,50220 58125,49680 58047,49680 58047,50220 Z"
   id="path239"
   style="stroke:none" />
   </g>
  </g>
  <g
   class="com.sun.star.drawing.PolyPolygonShape"
   id="g251"
   style="stroke:none">
   <g
   id="id25"
   style="stroke:none">
    <rect
   class="BoundingBox"
   stroke="none"
   fill="none"
   x="58231"
   y="49679"
   width="280"
   height="543"
   id="rect244"
   style="stroke:none" />
    <path
   fill="rgb(255,255,255)"
   stroke="none"
   d="M 58232,50220 L 58232,49680 58312,49680 58440,50028 58440,49680 58509,49680 58509,50220 58428,50220 58301,49873 58301,50220 58232,50220 Z"
   id="path246"
   style="stroke:none" />
    <path
   fill="none"
   stroke="rgb(255,255,255)"
   d="M 58232,50220 L 58232,49680 58312,49680 58440,50028 58440,49680 58509,49680 58509,50220 58428,50220 58301,49873 58301,50220 58232,50220 Z"
   id="path248"
   style="stroke:none" />
   </g>
  </g>
  <g
   class="com.sun.star.drawing.PolyPolygonShape"
   id="g260"
   style="stroke:none">
   <g
   id="id26"
   style="stroke:none">
    <rect
   class="BoundingBox"
   stroke="none"
   fill="none"
   x="58231"
   y="49679"
   width="280"
   height="543"
   id="rect253"
   style="stroke:none" />
    <path
   fill="rgb(255,255,255)"
   stroke="none"
   d="M 58232,50220 L 58232,49680 58312,49680 58440,50028 58440,49680 58509,49680 58509,50220 58428,50220 58301,49873 58301,50220 58232,50220 Z"
   id="path255"
   style="stroke:none" />
    <path
   fill="none"
   stroke="rgb(255,255,255)"
   d="M 58232,50220 L 58232,49680 58312,49680 58440,50028 58440,49680 58509,49680 58509,50220 58428,50220 58301,49873 58301,50220 58232,50220 Z"
   id="path257"
   style="stroke:none" />
   </g>
  </g>
  <g
   class="com.sun.star.drawing.PolyPolygonShape"
   id="g269"
   style="stroke:none">
   <g
   id="id27"
   style="stroke:none">
    <rect
   class="BoundingBox"
   stroke="none"
   fill="none"
   x="58231"
   y="49679"
   width="280"
   height="543"
   id="rect262"
   style="stroke:none" />
    <path
   fill="rgb(255,255,255)"
   stroke="none"
   d="M 58232,50220 L 58232,49680 58312,49680 58440,50028 58440,49680 58509,49680 58509,50220 58428,50220 58301,49873 58301,50220 58232,50220 Z"
   id="path264"
   style="stroke:none" />
    <path
   fill="none"
   stroke="rgb(255,255,255)"
   d="M 58232,50220 L 58232,49680 58312,49680 58440,50028 58440,49680 58509,49680 58509,50220 58428,50220 58301,49873 58301,50220 58232,50220 Z"
   id="path266"
   style="stroke:none" />
   </g>
  </g>
  <g
   class="com.sun.star.drawing.PolyPolygonShape"
   id="g278"
   style="stroke:none">
   <g
   id="id28"
   style="stroke:none">
    <rect
   class="BoundingBox"
   stroke="none"
   fill="none"
   x="58604"
   y="49671"
   width="280"
   height="559"
   id="rect271"
   style="stroke:none" />
    <path
   fill="rgb(255,255,255)"
   stroke="none"
   d="M 58806,49981 L 58806,50097 58804,50109 58801,50120 58795,50131 58787,50140 58778,50148 58768,50154 58756,50157 58744,50159 58732,50157 58721,50154 58710,50148 58701,50140 58693,50131 58687,50120 58684,50109 58683,50097 58683,49804 58684,49792 58687,49780 58693,49770 58701,49760 58710,49753 58721,49747 58732,49743 58744,49742 58756,49743 58768,49747 58778,49753 58787,49760 58795,49770 58801,49780 58804,49792 58806,49804 58806,49812 58882,49812 58882,49798 58880,49785 58876,49771 58872,49759 58866,49746 58859,49735 58851,49724 58842,49713 58832,49704 58821,49696 58809,49689 58797,49683 58784,49679 58771,49676 58758,49672 58744,49672 58731,49672 58717,49676 58704,49679 58691,49683 58679,49689 58667,49696 58656,49704 58645,49713 58636,49724 58628,49735 58621,49746 58615,49759 58611,49771 58607,49785 58606,49798 58605,49812 58605,50089 58606,50103 58607,50116 58611,50130 58615,50142 58621,50155 58628,50166 58636,50177 58645,50187 58656,50197 58667,50205 58679,50212 58691,50218 58704,50222 58717,50226 58731,50227 58744,50228 58758,50227 58771,50226 58784,50222 58797,50218 58809,50212 58821,50205 58832,50197 58842,50187 58851,50177 58859,50166 58866,50155 58872,50142 58876,50130 58880,50116 58882,50103 58882,50089 58882,49912 58744,49912 58744,49981 58806,49981 Z"
   id="path273"
   style="stroke:none" />
    <path
   fill="none"
   stroke="rgb(255,255,255)"
   d="M 58806,49981 L 58806,50097 58804,50109 58801,50120 58795,50131 58787,50140 58778,50148 58768,50154 58756,50157 58744,50159 58732,50157 58721,50154 58710,50148 58701,50140 58693,50131 58687,50120 58684,50109 58683,50097 58683,49804 58684,49792 58687,49780 58693,49770 58701,49760 58710,49753 58721,49747 58732,49743 58744,49742 58756,49743 58768,49747 58778,49753 58787,49760 58795,49770 58801,49780 58804,49792 58806,49804 58806,49812 58882,49812 58882,49798 58880,49785 58876,49771 58872,49759 58866,49746 58859,49735 58851,49724 58842,49713 58832,49704 58821,49696 58809,49689 58797,49683 58784,49679 58771,49676 58758,49672 58744,49672 58731,49672 58717,49676 58704,49679 58691,49683 58679,49689 58667,49696 58656,49704 58645,49713 58636,49724 58628,49735 58621,49746 58615,49759 58611,49771 58607,49785 58606,49798 58605,49812 58605,50089 58606,50103 58607,50116 58611,50130 58615,50142 58621,50155 58628,50166 58636,50177 58645,50187 58656,50197 58667,50205 58679,50212 58691,50218 58704,50222 58717,50226 58731,50227 58744,50228 58758,50227 58771,50226 58784,50222 58797,50218 58809,50212 58821,50205 58832,50197 58842,50187 58851,50177 58859,50166 58866,50155 58872,50142 58876,50130 58880,50116 58882,50103 58882,50089 58882,49912 58744,49912 58744,49981 58806,49981 Z"
   id="path275"
   style="stroke:none" />
   </g>
  </g>
  <g
   class="com.sun.star.drawing.PolyPolygonShape"
   id="g287"
   style="stroke:none">
   <g
   id="id29"
   style="stroke:none">
    <rect
   class="BoundingBox"
   stroke="none"
   fill="none"
   x="58604"
   y="49671"
   width="280"
   height="559"
   id="rect280"
   style="stroke:none" />
    <path
   fill="rgb(255,255,255)"
   stroke="none"
   d="M 58806,49981 L 58806,50097 58804,50109 58801,50120 58795,50131 58787,50140 58778,50148 58768,50154 58756,50157 58744,50159 58732,50157 58721,50154 58710,50148 58701,50140 58693,50131 58687,50120 58684,50109 58683,50097 58683,49804 58684,49792 58687,49780 58693,49770 58701,49760 58710,49753 58721,49747 58732,49743 58744,49742 58756,49743 58768,49747 58778,49753 58787,49760 58795,49770 58801,49780 58804,49792 58806,49804 58806,49812 58882,49812 58882,49798 58880,49785 58876,49771 58872,49759 58866,49746 58859,49735 58851,49724 58842,49713 58832,49704 58821,49696 58809,49689 58797,49683 58784,49679 58771,49676 58758,49672 58744,49672 58731,49672 58717,49676 58704,49679 58691,49683 58679,49689 58667,49696 58656,49704 58645,49713 58636,49724 58628,49735 58621,49746 58615,49759 58611,49771 58607,49785 58606,49798 58605,49812 58605,50089 58606,50103 58607,50116 58611,50130 58615,50142 58621,50155 58628,50166 58636,50177 58645,50187 58656,50197 58667,50205 58679,50212 58691,50218 58704,50222 58717,50226 58731,50227 58744,50228 58758,50227 58771,50226 58784,50222 58797,50218 58809,50212 58821,50205 58832,50197 58842,50187 58851,50177 58859,50166 58866,50155 58872,50142 58876,50130 58880,50116 58882,50103 58882,50089 58882,49912 58744,49912 58744,49981 58806,49981 Z"
   id="path282"
   style="stroke:none" />
    <path
   fill="none"
   stroke="rgb(255,255,255)"
   d="M 58806,49981 L 58806,50097 58804,50109 58801,50120 58795,50131 58787,50140 58778,50148 58768,50154 58756,50157 58744,50159 58732,50157 58721,50154 58710,50148 58701,50140 58693,50131 58687,50120 58684,50109 58683,50097 58683,49804 58684,49792 58687,49780 58693,49770 58701,49760 58710,49753 58721,49747 58732,49743 58744,49742 58756,49743 58768,49747 58778,49753 58787,49760 58795,49770 58801,49780 58804,49792 58806,49804 58806,49812 58882,49812 58882,49798 58880,49785 58876,49771 58872,49759 58866,49746 58859,49735 58851,49724 58842,49713 58832,49704 58821,49696 58809,49689 58797,49683 58784,49679 58771,49676 58758,49672 58744,49672 58731,49672 58717,49676 58704,49679 58691,49683 58679,49689 58667,49696 58656,49704 58645,49713 58636,49724 58628,49735 58621,49746 58615,49759 58611,49771 58607,49785 58606,49798 58605,49812 58605,50089 58606,50103 58607,50116 58611,50130 58615,50142 58621,50155 58628,50166 58636,50177 58645,50187 58656,50197 58667,50205 58679,50212 58691,50218 58704,50222 58717,50226 58731,50227 58744,50228 58758,50227 58771,50226 58784,50222 58797,50218 58809,50212 58821,50205 58832,50197 58842,50187 58851,50177 58859,50166 58866,50155 58872,50142 58876,50130 58880,50116 58882,50103 58882,50089 58882,49912 58744,49912 58744,49981 58806,49981 Z"
   id="path284"
   style="stroke:none" />
   </g>
  </g>
  <g
   class="com.sun.star.drawing.PolyPolygonShape"
   id="g296"
   style="stroke:none">
   <g
   id="id30"
   style="stroke:none">
    <rect
   class="BoundingBox"
   stroke="none"
   fill="none"
   x="58604"
   y="49671"
   width="280"
   height="559"
   id="rect289"
   style="stroke:none" />
    <path
   fill="rgb(255,255,255)"
   stroke="none"
   d="M 58806,49981 L 58806,50097 58804,50109 58801,50120 58795,50131 58787,50140 58778,50148 58768,50154 58756,50157 58744,50159 58732,50157 58721,50154 58710,50148 58701,50140 58693,50131 58687,50120 58684,50109 58683,50097 58683,49804 58684,49792 58687,49780 58693,49770 58701,49760 58710,49753 58721,49747 58732,49743 58744,49742 58756,49743 58768,49747 58778,49753 58787,49760 58795,49770 58801,49780 58804,49792 58806,49804 58806,49812 58882,49812 58882,49798 58880,49785 58876,49771 58872,49759 58866,49746 58859,49735 58851,49724 58842,49713 58832,49704 58821,49696 58809,49689 58797,49683 58784,49679 58771,49676 58758,49672 58744,49672 58731,49672 58717,49676 58704,49679 58691,49683 58679,49689 58667,49696 58656,49704 58645,49713 58636,49724 58628,49735 58621,49746 58615,49759 58611,49771 58607,49785 58606,49798 58605,49812 58605,50089 58606,50103 58607,50116 58611,50130 58615,50142 58621,50155 58628,50166 58636,50177 58645,50187 58656,50197 58667,50205 58679,50212 58691,50218 58704,50222 58717,50226 58731,50227 58744,50228 58758,50227 58771,50226 58784,50222 58797,50218 58809,50212 58821,50205 58832,50197 58842,50187 58851,50177 58859,50166 58866,50155 58872,50142 58876,50130 58880,50116 58882,50103 58882,50089 58882,49912 58744,49912 58744,49981 58806,49981 Z"
   id="path291"
   style="stroke:none" />
    <path
   fill="none"
   stroke="rgb(255,255,255)"
   d="M 58806,49981 L 58806,50097 58804,50109 58801,50120 58795,50131 58787,50140 58778,50148 58768,50154 58756,50157 58744,50159 58732,50157 58721,50154 58710,50148 58701,50140 58693,50131 58687,50120 58684,50109 58683,50097 58683,49804 58684,49792 58687,49780 58693,49770 58701,49760 58710,49753 58721,49747 58732,49743 58744,49742 58756,49743 58768,49747 58778,49753 58787,49760 58795,49770 58801,49780 58804,49792 58806,49804 58806,49812 58882,49812 58882,49798 58880,49785 58876,49771 58872,49759 58866,49746 58859,49735 58851,49724 58842,49713 58832,49704 58821,49696 58809,49689 58797,49683 58784,49679 58771,49676 58758,49672 58744,49672 58731,49672 58717,49676 58704,49679 58691,49683 58679,49689 58667,49696 58656,49704 58645,49713 58636,49724 58628,49735 58621,49746 58615,49759 58611,49771 58607,49785 58606,49798 58605,49812 58605,50089 58606,50103 58607,50116 58611,50130 58615,50142 58621,50155 58628,50166 58636,50177 58645,50187 58656,50197 58667,50205 58679,50212 58691,50218 58704,50222 58717,50226 58731,50227 58744,50228 58758,50227 58771,50226 58784,50222 58797,50218 58809,50212 58821,50205 58832,50197 58842,50187 58851,50177 58859,50166 58866,50155 58872,50142 58876,50130 58880,50116 58882,50103 58882,50089 58882,49912 58744,49912 58744,49981 58806,49981 Z"
   id="path293"
   style="stroke:none" />
   </g>
  </g>
  <g
   class="com.sun.star.drawing.PolyPolygonShape"
   id="g305"
   style="stroke:none">
   <g
   id="id31"
   style="stroke:none">
    <rect
   class="BoundingBox"
   stroke="none"
   fill="none"
   x="58604"
   y="49671"
   width="280"
   height="559"
   id="rect298"
   style="stroke:none" />
    <path
   fill="rgb(255,255,255)"
   stroke="none"
   d="M 58806,49981 L 58806,50097 58804,50109 58801,50120 58795,50131 58787,50140 58778,50148 58768,50154 58756,50157 58744,50159 58732,50157 58721,50154 58710,50148 58701,50140 58693,50131 58687,50120 58684,50109 58683,50097 58683,49804 58684,49792 58687,49780 58693,49770 58701,49760 58710,49753 58721,49747 58732,49743 58744,49742 58756,49743 58768,49747 58778,49753 58787,49760 58795,49770 58801,49780 58804,49792 58806,49804 58806,49812 58882,49812 58882,49798 58880,49785 58876,49771 58872,49759 58866,49746 58859,49735 58851,49724 58842,49713 58832,49704 58821,49696 58809,49689 58797,49683 58784,49679 58771,49676 58758,49672 58744,49672 58731,49672 58717,49676 58704,49679 58691,49683 58679,49689 58667,49696 58656,49704 58645,49713 58636,49724 58628,49735 58621,49746 58615,49759 58611,49771 58607,49785 58606,49798 58605,49812 58605,50089 58606,50103 58607,50116 58611,50130 58615,50142 58621,50155 58628,50166 58636,50177 58645,50187 58656,50197 58667,50205 58679,50212 58691,50218 58704,50222 58717,50226 58731,50227 58744,50228 58758,50227 58771,50226 58784,50222 58797,50218 58809,50212 58821,50205 58832,50197 58842,50187 58851,50177 58859,50166 58866,50155 58872,50142 58876,50130 58880,50116 58882,50103 58882,50089 58882,49912 58744,49912 58744,49981 58806,49981 Z"
   id="path300"
   style="stroke:none" />
    <path
   fill="none"
   stroke="rgb(255,255,255)"
   d="M 58806,49981 L 58806,50097 58804,50109 58801,50120 58795,50131 58787,50140 58778,50148 58768,50154 58756,50157 58744,50159 58732,50157 58721,50154 58710,50148 58701,50140 58693,50131 58687,50120 58684,50109 58683,50097 58683,49804 58684,49792 58687,49780 58693,49770 58701,49760 58710,49753 58721,49747 58732,49743 58744,49742 58756,49743 58768,49747 58778,49753 58787,49760 58795,49770 58801,49780 58804,49792 58806,49804 58806,49812 58882,49812 58882,49798 58880,49785 58876,49771 58872,49759 58866,49746 58859,49735 58851,49724 58842,49713 58832,49704 58821,49696 58809,49689 58797,49683 58784,49679 58771,49676 58758,49672 58744,49672 58731,49672 58717,49676 58704,49679 58691,49683 58679,49689 58667,49696 58656,49704 58645,49713 58636,49724 58628,49735 58621,49746 58615,49759 58611,49771 58607,49785 58606,49798 58605,49812 58605,50089 58606,50103 58607,50116 58611,50130 58615,50142 58621,50155 58628,50166 58636,50177 58645,50187 58656,50197 58667,50205 58679,50212 58691,50218 58704,50222 58717,50226 58731,50227 58744,50228 58758,50227 58771,50226 58784,50222 58797,50218 58809,50212 58821,50205 58832,50197 58842,50187 58851,50177 58859,50166 58866,50155 58872,50142 58876,50130 58880,50116 58882,50103 58882,50089 58882,49912 58744,49912 58744,49981 58806,49981 Z"
   id="path302"
   style="stroke:none" />
   </g>
  </g>
 </g>
</svg>
