<?xml version="1.0" encoding="UTF-8" standalone="no"?>
<svg
   version="1.2"
   width="20.21mm"
   height="9.03mm"
   viewBox="59490 51099 2021 903"
   preserveAspectRatio="xMidYMid"
   fill-rule="evenodd"
   stroke-width="28.222"
   stroke-linejoin="round"
   xml:space="preserve"
   id="svg110"
   sodipodi:docname="Belgian_traffic_sign_GVIIb.svg"
   inkscape:version="1.2.2 (732a01da63, 2022-12-09)"
   xmlns:inkscape="http://www.inkscape.org/namespaces/inkscape"
   xmlns:sodipodi="http://sodipodi.sourceforge.net/DTD/sodipodi-0.dtd"
   xmlns="http://www.w3.org/2000/svg"
   xmlns:svg="http://www.w3.org/2000/svg"><sodipodi:namedview
   id="namedview112"
   pagecolor="#ffffff"
   bordercolor="#111111"
   borderopacity="1"
   inkscape:showpageshadow="0"
   inkscape:pageopacity="0"
   inkscape:pagecheckerboard="1"
   inkscape:deskcolor="#d1d1d1"
   inkscape:document-units="mm"
   showgrid="false"
   inkscape:zoom="6.9149135"
   inkscape:cx="38.178352"
   inkscape:cy="17.064566"
   inkscape:window-width="1920"
   inkscape:window-height="1057"
   inkscape:window-x="-8"
   inkscape:window-y="-8"
   inkscape:window-maximized="1"
   inkscape:current-layer="svg110" />
 <defs
   class="EmbeddedBulletChars"
   id="defs32">
  <g
   id="bullet-char-template-57356"
   transform="scale(0.00048828125,-0.00048828125)">
   <path
   d="M 580,1141 L 1163,571 580,0 -4,571 580,1141 Z"
   id="path2" />
  </g>
  <g
   id="bullet-char-template-57354"
   transform="scale(0.00048828125,-0.00048828125)">
   <path
   d="M 8,1128 L 1137,1128 1137,0 8,0 8,1128 Z"
   id="path5" />
  </g>
  <g
   id="bullet-char-template-10146"
   transform="scale(0.00048828125,-0.00048828125)">
   <path
   d="M 174,0 L 602,739 174,1481 1456,739 174,0 Z M 1358,739 L 309,1346 659,739 1358,739 Z"
   id="path8" />
  </g>
  <g
   id="bullet-char-template-10132"
   transform="scale(0.00048828125,-0.00048828125)">
   <path
   d="M 2015,739 L 1276,0 717,0 1260,543 174,543 174,936 1260,936 717,1481 1274,1481 2015,739 Z"
   id="path11" />
  </g>
  <g
   id="bullet-char-template-10007"
   transform="scale(0.00048828125,-0.00048828125)">
   <path
   d="M 0,-2 C -7,14 -16,27 -25,37 L 356,567 C 262,823 215,952 215,954 215,979 228,992 255,992 264,992 276,990 289,987 310,991 331,999 354,1012 L 381,999 492,748 772,1049 836,1024 860,1049 C 881,1039 901,1025 922,1006 886,937 835,863 770,784 769,783 710,716 594,584 L 774,223 C 774,196 753,168 711,139 L 727,119 C 717,90 699,76 672,76 641,76 570,178 457,381 L 164,-76 C 142,-110 111,-127 72,-127 30,-127 9,-110 8,-76 1,-67 -2,-52 -2,-32 -2,-23 -1,-13 0,-2 Z"
   id="path14" />
  </g>
  <g
   id="bullet-char-template-10004"
   transform="scale(0.00048828125,-0.00048828125)">
   <path
   d="M 285,-33 C 182,-33 111,30 74,156 52,228 41,333 41,471 41,549 55,616 82,672 116,743 169,778 240,778 293,778 328,747 346,684 L 369,508 C 377,444 397,411 428,410 L 1163,1116 C 1174,1127 1196,1133 1229,1133 1271,1133 1292,1118 1292,1087 L 1292,965 C 1292,929 1282,901 1262,881 L 442,47 C 390,-6 338,-33 285,-33 Z"
   id="path17" />
  </g>
  <g
   id="bullet-char-template-9679"
   transform="scale(0.00048828125,-0.00048828125)">
   <path
   d="M 813,0 C 632,0 489,54 383,161 276,268 223,411 223,592 223,773 276,916 383,1023 489,1130 632,1184 813,1184 992,1184 1136,1130 1245,1023 1353,916 1407,772 1407,592 1407,412 1353,268 1245,161 1136,54 992,0 813,0 Z"
   id="path20" />
  </g>
  <g
   id="bullet-char-template-8226"
   transform="scale(0.00048828125,-0.00048828125)">
   <path
   d="M 346,457 C 273,457 209,483 155,535 101,586 74,649 74,723 74,796 101,859 155,911 209,963 273,989 346,989 419,989 480,963 531,910 582,859 608,796 608,723 608,648 583,586 532,535 482,483 420,457 346,457 Z"
   id="path23" />
  </g>
  <g
   id="bullet-char-template-8211"
   transform="scale(0.00048828125,-0.00048828125)">
   <path
   d="M -4,459 L 1135,459 1135,606 -4,606 -4,459 Z"
   id="path26" />
  </g>
  <g
   id="bullet-char-template-61548"
   transform="scale(0.00048828125,-0.00048828125)">
   <path
   d="M 173,740 C 173,903 231,1043 346,1159 462,1274 601,1332 765,1332 928,1332 1067,1274 1183,1159 1299,1043 1357,903 1357,740 1357,577 1299,437 1183,322 1067,206 928,148 765,148 601,148 462,206 346,322 231,437 173,577 173,740 Z"
   id="path29" />
  </g>
 </defs>
 <g
   class="Page"
   id="g108"
   style="stroke:none">
  <g
   class="com.sun.star.drawing.PolyPolygonShape"
   id="g41"
   style="stroke:none">
   <g
   id="id3"
   style="stroke:none">
    <rect
   class="BoundingBox"
   stroke="none"
   fill="none"
   x="59490"
   y="51099"
   width="2021"
   height="903"
   id="rect34"
   style="stroke:none" />
    <path
   fill="rgb(0,0,255)"
   stroke="none"
   d="M 59693,52000 L 61307,52000 61310,52000 61313,52000 61315,52000 61317,52000 61320,52000 61322,52000 61325,52000 61327,51999 61330,51999 61332,51999 61335,51999 61337,51998 61340,51998 61342,51997 61344,51997 61347,51997 61349,51996 61352,51995 61354,51995 61357,51994 61359,51994 61361,51993 61364,51992 61366,51992 61368,51991 61371,51990 61373,51989 61376,51989 61378,51988 61380,51987 61383,51986 61385,51985 61387,51984 61389,51983 61392,51982 61394,51981 61396,51980 61398,51979 61401,51978 61403,51976 61405,51975 61407,51974 61409,51973 61411,51972 61413,51970 61416,51969 61417,51968 61420,51966 61422,51965 61424,51963 61426,51962 61428,51961 61430,51959 61432,51957 61434,51956 61436,51954 61437,51953 61439,51951 61441,51950 61443,51948 61445,51946 61447,51944 61448,51943 61450,51941 61452,51939 61454,51938 61455,51936 61457,51934 61459,51932 61460,51930 61462,51928 61463,51926 61465,51924 61467,51923 61468,51921 61470,51919 61471,51917 61473,51914 61474,51913 61475,51910 61477,51908 61478,51906 61479,51904 61481,51902 61482,51900 61483,51898 61484,51895 61486,51893 61487,51891 61488,51889 61489,51887 61490,51884 61491,51882 61492,51880 61493,51878 61494,51875 61495,51873 61496,51871 61497,51869 61497,51866 61498,51864 61499,51861 61500,51859 61501,51857 61501,51854 61502,51852 61503,51849 61503,51847 61504,51845 61504,51842 61505,51840 61505,51837 61506,51835 61506,51832 61507,51830 61507,51828 61507,51825 61508,51823 61508,51820 61508,51818 61509,51815 61509,51813 61509,51810 61509,51808 61509,51805 61509,51803 61509,51800 61509,51798 61509,51302 61509,51300 61509,51297 61509,51295 61509,51292 61509,51290 61509,51287 61509,51285 61508,51282 61508,51280 61508,51277 61507,51275 61507,51272 61507,51270 61506,51267 61506,51265 61505,51262 61505,51260 61504,51258 61504,51255 61503,51253 61503,51250 61502,51248 61501,51246 61501,51243 61500,51241 61499,51239 61498,51236 61497,51234 61497,51231 61496,51229 61495,51227 61494,51225 61493,51222 61492,51220 61491,51218 61490,51215 61489,51213 61488,51211 61487,51209 61486,51207 61484,51204 61483,51202 61482,51200 61481,51198 61479,51196 61478,51194 61477,51192 61475,51190 61474,51187 61473,51186 61471,51183 61470,51181 61468,51179 61467,51178 61465,51176 61463,51174 61462,51172 61460,51170 61459,51168 61457,51166 61455,51164 61454,51162 61452,51161 61450,51159 61448,51157 61447,51155 61445,51154 61443,51152 61441,51150 61439,51149 61437,51147 61436,51146 61434,51144 61432,51142 61430,51141 61428,51139 61426,51138 61424,51136 61422,51135 61420,51134 61417,51132 61416,51131 61413,51130 61411,51128 61409,51127 61407,51126 61405,51125 61403,51124 61401,51122 61398,51121 61396,51120 61394,51119 61392,51118 61389,51117 61387,51116 61385,51115 61383,51114 61380,51113 61378,51112 61376,51111 61373,51111 61371,51110 61368,51109 61366,51108 61364,51108 61361,51107 61359,51106 61357,51106 61354,51105 61352,51104 61349,51104 61347,51103 61344,51103 61342,51103 61340,51102 61337,51102 61335,51101 61332,51101 61330,51101 61327,51101 61325,51100 61322,51100 61320,51100 61317,51100 61315,51100 61313,51100 61310,51100 61308,51100 59693,51100 59691,51100 59688,51100 59686,51100 59683,51100 59681,51100 59679,51100 59676,51100 59674,51101 59671,51101 59669,51101 59666,51101 59664,51102 59661,51102 59659,51103 59656,51103 59654,51103 59652,51104 59649,51104 59647,51105 59644,51106 59642,51106 59640,51107 59637,51108 59635,51108 59632,51109 59630,51110 59628,51111 59625,51111 59623,51112 59621,51113 59618,51114 59616,51115 59614,51116 59612,51117 59609,51118 59607,51119 59605,51120 59603,51121 59600,51122 59598,51124 59596,51125 59594,51126 59592,51127 59590,51128 59587,51130 59585,51131 59583,51132 59581,51134 59579,51135 59577,51136 59575,51138 59573,51139 59571,51141 59569,51142 59567,51144 59565,51146 59563,51147 59562,51149 59560,51150 59558,51152 59556,51154 59554,51155 59552,51157 59551,51159 59549,51161 59547,51162 59546,51164 59544,51166 59542,51168 59541,51170 59539,51172 59537,51174 59536,51176 59534,51178 59533,51179 59531,51181 59530,51183 59528,51186 59527,51187 59526,51190 59524,51192 59523,51194 59522,51196 59520,51198 59519,51200 59518,51202 59517,51204 59515,51207 59514,51209 59513,51211 59512,51213 59511,51215 59510,51218 59509,51220 59508,51222 59507,51225 59506,51227 59505,51229 59504,51231 59503,51234 59503,51236 59501,51239 59500,51241 59499,51243 59499,51246 59498,51248 59497,51250 59497,51253 59496,51255 59496,51258 59495,51260 59494,51262 59494,51265 59494,51267 59493,51270 59493,51272 59492,51275 59492,51277 59492,51280 59492,51282 59491,51285 59491,51287 59491,51290 59491,51292 59491,51295 59491,51297 59491,51300 59491,51302 59491,51798 59491,51800 59491,51803 59491,51805 59491,51808 59491,51810 59491,51813 59491,51815 59492,51818 59492,51820 59492,51823 59492,51825 59493,51828 59493,51830 59494,51832 59494,51835 59494,51837 59495,51840 59496,51842 59496,51845 59497,51847 59497,51849 59498,51852 59499,51854 59499,51857 59500,51859 59501,51861 59503,51864 59503,51866 59504,51869 59505,51871 59506,51873 59507,51875 59508,51878 59509,51880 59510,51882 59511,51884 59512,51887 59513,51889 59514,51891 59515,51893 59517,51895 59518,51898 59519,51900 59520,51902 59522,51904 59523,51906 59524,51908 59526,51910 59527,51913 59528,51914 59530,51917 59531,51919 59533,51921 59534,51923 59536,51924 59537,51926 59539,51928 59541,51930 59542,51932 59544,51934 59546,51936 59547,51938 59549,51939 59551,51941 59552,51943 59554,51944 59556,51946 59558,51948 59560,51950 59562,51951 59563,51953 59565,51954 59567,51956 59569,51957 59571,51959 59573,51961 59575,51962 59577,51963 59579,51965 59581,51966 59583,51968 59585,51969 59587,51970 59590,51972 59592,51973 59594,51974 59596,51975 59598,51976 59600,51978 59603,51979 59605,51980 59607,51981 59609,51982 59612,51983 59614,51984 59616,51985 59618,51986 59621,51987 59623,51988 59625,51989 59628,51989 59630,51990 59632,51991 59635,51992 59637,51992 59640,51993 59642,51994 59644,51994 59647,51995 59649,51995 59652,51996 59654,51997 59656,51997 59659,51997 59661,51998 59664,51998 59666,51999 59669,51999 59671,51999 59674,51999 59676,52000 59679,52000 59681,52000 59683,52000 59686,52000 59688,52000 59691,52000 59693,52000 Z"
   id="path36"
   style="stroke:none" />
    <path
   fill="none"
   stroke="rgb(0,0,255)"
   d="M 59693,52000 L 61307,52000 61310,52000 61313,52000 61315,52000 61317,52000 61320,52000 61322,52000 61325,52000 61327,51999 61330,51999 61332,51999 61335,51999 61337,51998 61340,51998 61342,51997 61344,51997 61347,51997 61349,51996 61352,51995 61354,51995 61357,51994 61359,51994 61361,51993 61364,51992 61366,51992 61368,51991 61371,51990 61373,51989 61376,51989 61378,51988 61380,51987 61383,51986 61385,51985 61387,51984 61389,51983 61392,51982 61394,51981 61396,51980 61398,51979 61401,51978 61403,51976 61405,51975 61407,51974 61409,51973 61411,51972 61413,51970 61416,51969 61417,51968 61420,51966 61422,51965 61424,51963 61426,51962 61428,51961 61430,51959 61432,51957 61434,51956 61436,51954 61437,51953 61439,51951 61441,51950 61443,51948 61445,51946 61447,51944 61448,51943 61450,51941 61452,51939 61454,51938 61455,51936 61457,51934 61459,51932 61460,51930 61462,51928 61463,51926 61465,51924 61467,51923 61468,51921 61470,51919 61471,51917 61473,51914 61474,51913 61475,51910 61477,51908 61478,51906 61479,51904 61481,51902 61482,51900 61483,51898 61484,51895 61486,51893 61487,51891 61488,51889 61489,51887 61490,51884 61491,51882 61492,51880 61493,51878 61494,51875 61495,51873 61496,51871 61497,51869 61497,51866 61498,51864 61499,51861 61500,51859 61501,51857 61501,51854 61502,51852 61503,51849 61503,51847 61504,51845 61504,51842 61505,51840 61505,51837 61506,51835 61506,51832 61507,51830 61507,51828 61507,51825 61508,51823 61508,51820 61508,51818 61509,51815 61509,51813 61509,51810 61509,51808 61509,51805 61509,51803 61509,51800 61509,51798 61509,51302 61509,51300 61509,51297 61509,51295 61509,51292 61509,51290 61509,51287 61509,51285 61508,51282 61508,51280 61508,51277 61507,51275 61507,51272 61507,51270 61506,51267 61506,51265 61505,51262 61505,51260 61504,51258 61504,51255 61503,51253 61503,51250 61502,51248 61501,51246 61501,51243 61500,51241 61499,51239 61498,51236 61497,51234 61497,51231 61496,51229 61495,51227 61494,51225 61493,51222 61492,51220 61491,51218 61490,51215 61489,51213 61488,51211 61487,51209 61486,51207 61484,51204 61483,51202 61482,51200 61481,51198 61479,51196 61478,51194 61477,51192 61475,51190 61474,51187 61473,51186 61471,51183 61470,51181 61468,51179 61467,51178 61465,51176 61463,51174 61462,51172 61460,51170 61459,51168 61457,51166 61455,51164 61454,51162 61452,51161 61450,51159 61448,51157 61447,51155 61445,51154 61443,51152 61441,51150 61439,51149 61437,51147 61436,51146 61434,51144 61432,51142 61430,51141 61428,51139 61426,51138 61424,51136 61422,51135 61420,51134 61417,51132 61416,51131 61413,51130 61411,51128 61409,51127 61407,51126 61405,51125 61403,51124 61401,51122 61398,51121 61396,51120 61394,51119 61392,51118 61389,51117 61387,51116 61385,51115 61383,51114 61380,51113 61378,51112 61376,51111 61373,51111 61371,51110 61368,51109 61366,51108 61364,51108 61361,51107 61359,51106 61357,51106 61354,51105 61352,51104 61349,51104 61347,51103 61344,51103 61342,51103 61340,51102 61337,51102 61335,51101 61332,51101 61330,51101 61327,51101 61325,51100 61322,51100 61320,51100 61317,51100 61315,51100 61313,51100 61310,51100 61308,51100 59693,51100 59691,51100 59688,51100 59686,51100 59683,51100 59681,51100 59679,51100 59676,51100 59674,51101 59671,51101 59669,51101 59666,51101 59664,51102 59661,51102 59659,51103 59656,51103 59654,51103 59652,51104 59649,51104 59647,51105 59644,51106 59642,51106 59640,51107 59637,51108 59635,51108 59632,51109 59630,51110 59628,51111 59625,51111 59623,51112 59621,51113 59618,51114 59616,51115 59614,51116 59612,51117 59609,51118 59607,51119 59605,51120 59603,51121 59600,51122 59598,51124 59596,51125 59594,51126 59592,51127 59590,51128 59587,51130 59585,51131 59583,51132 59581,51134 59579,51135 59577,51136 59575,51138 59573,51139 59571,51141 59569,51142 59567,51144 59565,51146 59563,51147 59562,51149 59560,51150 59558,51152 59556,51154 59554,51155 59552,51157 59551,51159 59549,51161 59547,51162 59546,51164 59544,51166 59542,51168 59541,51170 59539,51172 59537,51174 59536,51176 59534,51178 59533,51179 59531,51181 59530,51183 59528,51186 59527,51187 59526,51190 59524,51192 59523,51194 59522,51196 59520,51198 59519,51200 59518,51202 59517,51204 59515,51207 59514,51209 59513,51211 59512,51213 59511,51215 59510,51218 59509,51220 59508,51222 59507,51225 59506,51227 59505,51229 59504,51231 59503,51234 59503,51236 59501,51239 59500,51241 59499,51243 59499,51246 59498,51248 59497,51250 59497,51253 59496,51255 59496,51258 59495,51260 59494,51262 59494,51265 59494,51267 59493,51270 59493,51272 59492,51275 59492,51277 59492,51280 59492,51282 59491,51285 59491,51287 59491,51290 59491,51292 59491,51295 59491,51297 59491,51300 59491,51302 59491,51798 59491,51800 59491,51803 59491,51805 59491,51808 59491,51810 59491,51813 59491,51815 59492,51818 59492,51820 59492,51823 59492,51825 59493,51828 59493,51830 59494,51832 59494,51835 59494,51837 59495,51840 59496,51842 59496,51845 59497,51847 59497,51849 59498,51852 59499,51854 59499,51857 59500,51859 59501,51861 59503,51864 59503,51866 59504,51869 59505,51871 59506,51873 59507,51875 59508,51878 59509,51880 59510,51882 59511,51884 59512,51887 59513,51889 59514,51891 59515,51893 59517,51895 59518,51898 59519,51900 59520,51902 59522,51904 59523,51906 59524,51908 59526,51910 59527,51913 59528,51914 59530,51917 59531,51919 59533,51921 59534,51923 59536,51924 59537,51926 59539,51928 59541,51930 59542,51932 59544,51934 59546,51936 59547,51938 59549,51939 59551,51941 59552,51943 59554,51944 59556,51946 59558,51948 59560,51950 59562,51951 59563,51953 59565,51954 59567,51956 59569,51957 59571,51959 59573,51961 59575,51962 59577,51963 59579,51965 59581,51966 59583,51968 59585,51969 59587,51970 59590,51972 59592,51973 59594,51974 59596,51975 59598,51976 59600,51978 59603,51979 59605,51980 59607,51981 59609,51982 59612,51983 59614,51984 59616,51985 59618,51986 59621,51987 59623,51988 59625,51989 59628,51989 59630,51990 59632,51991 59635,51992 59637,51992 59640,51993 59642,51994 59644,51994 59647,51995 59649,51995 59652,51996 59654,51997 59656,51997 59659,51997 59661,51998 59664,51998 59666,51999 59669,51999 59671,51999 59674,51999 59676,52000 59679,52000 59681,52000 59683,52000 59686,52000 59688,52000 59691,52000 59693,52000 Z"
   id="path38"
   style="stroke:none" />
   </g>
  </g>
  <g
   class="com.sun.star.drawing.PolyPolygonShape"
   id="g50"
   style="stroke:none">
   <g
   id="id4"
   style="stroke:none">
    <rect
   class="BoundingBox"
   stroke="none"
   fill="none"
   x="60247"
   y="51211"
   width="507"
   height="679"
   id="rect43"
   style="stroke:none" />
    <path
   fill="rgb(255,255,255)"
   stroke="none"
   d="M 60588,51212 L 60752,51212 60752,51888 60248,51888 60248,51212 60411,51212 60413,51215 60415,51217 60417,51219 60419,51222 60421,51224 60424,51226 60426,51228 60428,51230 60431,51232 60433,51234 60436,51236 60439,51238 60441,51240 60444,51241 60447,51243 60450,51244 60453,51246 60456,51247 60459,51248 60462,51249 60465,51250 60468,51251 60471,51252 60474,51253 60477,51254 60480,51254 60484,51255 60487,51255 60490,51256 60493,51256 60496,51256 60499,51256 60503,51256 60506,51256 60509,51256 60512,51255 60515,51255 60519,51254 60522,51254 60525,51253 60528,51252 60531,51251 60534,51250 60537,51249 60540,51248 60543,51247 60546,51246 60549,51244 60552,51243 60555,51241 60557,51240 60560,51238 60563,51236 60565,51234 60568,51232 60571,51230 60573,51228 60575,51226 60578,51224 60580,51222 60582,51219 60584,51217 60586,51215 60588,51212 Z"
   id="path45"
   style="stroke:none" />
    <path
   fill="none"
   stroke="rgb(255,255,255)"
   d="M 60588,51212 L 60752,51212 60752,51888 60248,51888 60248,51212 60411,51212 60413,51215 60415,51217 60417,51219 60419,51222 60421,51224 60424,51226 60426,51228 60428,51230 60431,51232 60433,51234 60436,51236 60439,51238 60441,51240 60444,51241 60447,51243 60450,51244 60453,51246 60456,51247 60459,51248 60462,51249 60465,51250 60468,51251 60471,51252 60474,51253 60477,51254 60480,51254 60484,51255 60487,51255 60490,51256 60493,51256 60496,51256 60499,51256 60503,51256 60506,51256 60509,51256 60512,51255 60515,51255 60519,51254 60522,51254 60525,51253 60528,51252 60531,51251 60534,51250 60537,51249 60540,51248 60543,51247 60546,51246 60549,51244 60552,51243 60555,51241 60557,51240 60560,51238 60563,51236 60565,51234 60568,51232 60571,51230 60573,51228 60575,51226 60578,51224 60580,51222 60582,51219 60584,51217 60586,51215 60588,51212 Z"
   id="path47"
   style="stroke:none" />
   </g>
  </g>
  <g
   class="com.sun.star.drawing.PolyPolygonShape"
   id="g59"
   style="stroke:none">
   <g
   id="id5"
   style="stroke:none">
    <rect
   class="BoundingBox"
   stroke="none"
   fill="none"
   x="60265"
   y="51229"
   width="471"
   height="643"
   id="rect52"
   style="stroke:none" />
    <path
   fill="rgb(0,0,255)"
   stroke="none"
   d="M 60598,51230 L 60734,51230 60734,51870 60266,51870 60266,51230 60402,51230 60404,51233 60407,51235 60409,51238 60412,51240 60414,51242 60417,51244 60420,51247 60422,51249 60425,51251 60428,51253 60431,51254 60434,51256 60437,51258 60440,51260 60443,51261 60446,51263 60449,51264 60452,51265 60456,51266 60459,51268 60462,51269 60465,51270 60469,51270 60472,51271 60476,51272 60480,51272 60483,51273 60487,51273 60490,51274 60494,51274 60497,51274 60500,51274 60504,51274 60507,51274 60511,51274 60514,51273 60518,51273 60521,51272 60524,51272 60528,51271 60531,51270 60534,51270 60538,51269 60541,51268 60544,51266 60547,51265 60551,51264 60554,51263 60557,51261 60560,51260 60563,51258 60566,51256 60569,51254 60572,51253 60575,51251 60578,51249 60580,51247 60583,51244 60586,51242 60588,51240 60591,51238 60593,51235 60596,51233 60598,51230 Z"
   id="path54"
   style="stroke:none" />
    <path
   fill="none"
   stroke="rgb(0,0,255)"
   d="M 60598,51230 L 60734,51230 60734,51870 60266,51870 60266,51230 60402,51230 60404,51233 60407,51235 60409,51238 60412,51240 60414,51242 60417,51244 60420,51247 60422,51249 60425,51251 60428,51253 60431,51254 60434,51256 60437,51258 60440,51260 60443,51261 60446,51263 60449,51264 60452,51265 60456,51266 60459,51268 60462,51269 60465,51270 60469,51270 60472,51271 60476,51272 60480,51272 60483,51273 60487,51273 60490,51274 60494,51274 60497,51274 60500,51274 60504,51274 60507,51274 60511,51274 60514,51273 60518,51273 60521,51272 60524,51272 60528,51271 60531,51270 60534,51270 60538,51269 60541,51268 60544,51266 60547,51265 60551,51264 60554,51263 60557,51261 60560,51260 60563,51258 60566,51256 60569,51254 60572,51253 60575,51251 60578,51249 60580,51247 60583,51244 60586,51242 60588,51240 60591,51238 60593,51235 60596,51233 60598,51230 Z"
   id="path56"
   style="stroke:none" />
   </g>
  </g>
  <g
   class="com.sun.star.drawing.PolyPolygonShape"
   id="g68"
   style="stroke:none">
   <g
   id="id6"
   style="stroke:none">
    <rect
   class="BoundingBox"
   stroke="none"
   fill="none"
   x="60348"
   y="51460"
   width="305"
   height="145"
   id="rect61"
   style="stroke:none" />
    <path
   fill="rgb(255,255,255)"
   stroke="none"
   d="M 60349,51515 L 60443,51461 60444,51463 60445,51465 60447,51466 60448,51468 60449,51470 60452,51471 60453,51473 60455,51474 60456,51476 60458,51477 60459,51479 60461,51480 60463,51481 60464,51483 60466,51484 60468,51485 60470,51486 60472,51487 60474,51488 60476,51488 60478,51489 60480,51490 60482,51491 60484,51491 60486,51492 60488,51492 60490,51493 60492,51493 60494,51493 60496,51493 60498,51493 60500,51493 60503,51493 60505,51493 60507,51493 60509,51493 60511,51493 60513,51492 60515,51492 60517,51491 60519,51491 60521,51490 60523,51489 60525,51488 60527,51488 60529,51487 60531,51486 60533,51485 60535,51484 60536,51483 60538,51481 60540,51480 60542,51479 60543,51477 60545,51476 60546,51474 60548,51473 60549,51471 60551,51470 60552,51468 60553,51466 60554,51465 60556,51463 60557,51461 60651,51515 60649,51518 60648,51520 60646,51523 60644,51525 60643,51527 60641,51530 60640,51532 60638,51534 60636,51537 60634,51540 60633,51542 60631,51544 60629,51546 60627,51548 60625,51550 60623,51552 60621,51554 60619,51556 60617,51558 60615,51560 60613,51562 60610,51564 60608,51565 60606,51567 60604,51569 60601,51571 60599,51572 60597,51574 60594,51575 60592,51577 60590,51578 60587,51580 60585,51581 60582,51583 60580,51584 60577,51585 60575,51586 60572,51588 60569,51589 60567,51590 60564,51591 60562,51592 60559,51593 60556,51594 60554,51595 60551,51596 60548,51596 60545,51597 60543,51598 60540,51599 60537,51599 60534,51600 60531,51600 60529,51601 60526,51601 60523,51602 60520,51602 60517,51602 60515,51603 60512,51603 60509,51603 60506,51603 60503,51603 60500,51603 60498,51603 60495,51603 60492,51603 60489,51603 60486,51603 60484,51602 60481,51602 60478,51602 60475,51601 60472,51601 60469,51600 60467,51600 60464,51599 60461,51599 60458,51598 60456,51597 60453,51596 60449,51596 60446,51595 60444,51594 60441,51593 60438,51592 60436,51591 60433,51590 60431,51589 60428,51588 60425,51586 60423,51585 60420,51584 60418,51583 60415,51581 60413,51580 60410,51578 60408,51577 60406,51575 60403,51574 60401,51572 60399,51571 60396,51569 60394,51567 60392,51565 60390,51564 60387,51562 60385,51560 60383,51558 60381,51556 60379,51554 60377,51552 60375,51550 60373,51548 60371,51546 60369,51544 60367,51542 60366,51540 60364,51537 60362,51534 60360,51532 60359,51530 60357,51527 60356,51525 60354,51523 60352,51520 60351,51518 60349,51515 Z"
   id="path63"
   style="stroke:none" />
    <path
   fill="none"
   stroke="rgb(255,255,255)"
   d="M 60349,51515 L 60443,51461 60444,51463 60445,51465 60447,51466 60448,51468 60449,51470 60452,51471 60453,51473 60455,51474 60456,51476 60458,51477 60459,51479 60461,51480 60463,51481 60464,51483 60466,51484 60468,51485 60470,51486 60472,51487 60474,51488 60476,51488 60478,51489 60480,51490 60482,51491 60484,51491 60486,51492 60488,51492 60490,51493 60492,51493 60494,51493 60496,51493 60498,51493 60500,51493 60503,51493 60505,51493 60507,51493 60509,51493 60511,51493 60513,51492 60515,51492 60517,51491 60519,51491 60521,51490 60523,51489 60525,51488 60527,51488 60529,51487 60531,51486 60533,51485 60535,51484 60536,51483 60538,51481 60540,51480 60542,51479 60543,51477 60545,51476 60546,51474 60548,51473 60549,51471 60551,51470 60552,51468 60553,51466 60554,51465 60556,51463 60557,51461 60651,51515 60649,51518 60648,51520 60646,51523 60644,51525 60643,51527 60641,51530 60640,51532 60638,51534 60636,51537 60634,51540 60633,51542 60631,51544 60629,51546 60627,51548 60625,51550 60623,51552 60621,51554 60619,51556 60617,51558 60615,51560 60613,51562 60610,51564 60608,51565 60606,51567 60604,51569 60601,51571 60599,51572 60597,51574 60594,51575 60592,51577 60590,51578 60587,51580 60585,51581 60582,51583 60580,51584 60577,51585 60575,51586 60572,51588 60569,51589 60567,51590 60564,51591 60562,51592 60559,51593 60556,51594 60554,51595 60551,51596 60548,51596 60545,51597 60543,51598 60540,51599 60537,51599 60534,51600 60531,51600 60529,51601 60526,51601 60523,51602 60520,51602 60517,51602 60515,51603 60512,51603 60509,51603 60506,51603 60503,51603 60500,51603 60498,51603 60495,51603 60492,51603 60489,51603 60486,51603 60484,51602 60481,51602 60478,51602 60475,51601 60472,51601 60469,51600 60467,51600 60464,51599 60461,51599 60458,51598 60456,51597 60453,51596 60449,51596 60446,51595 60444,51594 60441,51593 60438,51592 60436,51591 60433,51590 60431,51589 60428,51588 60425,51586 60423,51585 60420,51584 60418,51583 60415,51581 60413,51580 60410,51578 60408,51577 60406,51575 60403,51574 60401,51572 60399,51571 60396,51569 60394,51567 60392,51565 60390,51564 60387,51562 60385,51560 60383,51558 60381,51556 60379,51554 60377,51552 60375,51550 60373,51548 60371,51546 60369,51544 60367,51542 60366,51540 60364,51537 60362,51534 60360,51532 60359,51530 60357,51527 60356,51525 60354,51523 60352,51520 60351,51518 60349,51515 Z"
   id="path65"
   style="stroke:none" />
   </g>
  </g>
  <g
   class="com.sun.star.drawing.PolyPolygonShape"
   id="g77"
   style="stroke:none">
   <g
   id="id7"
   style="stroke:none">
    <rect
   class="BoundingBox"
   stroke="none"
   fill="none"
   x="60440"
   y="51650"
   width="121"
   height="173"
   id="rect70"
   style="stroke:none" />
    <path
   fill="rgb(255,255,255)"
   stroke="none"
   d="M 60441,51821 L 60559,51821 60559,51651 60441,51651 60441,51821 Z"
   id="path72"
   style="stroke:none" />
    <path
   fill="none"
   stroke="rgb(255,255,255)"
   d="M 60441,51821 L 60559,51821 60559,51651 60441,51651 60441,51821 Z"
   id="path74"
   style="stroke:none" />
   </g>
  </g>
  <g
   class="com.sun.star.drawing.PolyPolygonShape"
   id="g86"
   style="stroke:none">
   <g
   id="id8"
   style="stroke:none">
    <rect
   class="BoundingBox"
   stroke="none"
   fill="none"
   x="60455"
   y="51320"
   width="91"
   height="128"
   id="rect79"
   style="stroke:none" />
    <path
   fill="rgb(255,255,255)"
   stroke="none"
   d="M 60456,51321 L 60544,51321 60499,51446 60456,51321 Z"
   id="path81"
   style="stroke:none" />
    <path
   fill="none"
   stroke="rgb(255,255,255)"
   d="M 60456,51321 L 60544,51321 60499,51446 60456,51321 Z"
   id="path83"
   style="stroke:none" />
   </g>
  </g>
  <g
   class="com.sun.star.drawing.PolyPolygonShape"
   id="g95"
   style="stroke:none">
   <g
   id="id9"
   style="stroke:none">
    <rect
   class="BoundingBox"
   stroke="none"
   fill="none"
   x="60453"
   y="51663"
   width="95"
   height="147"
   id="rect88"
   style="stroke:none" />
    <path
   fill="rgb(0,0,255)"
   stroke="none"
   d="M 60454,51808 L 60546,51808 60546,51664 60454,51664 60454,51808 Z"
   id="path90"
   style="stroke:none" />
    <path
   fill="none"
   stroke="rgb(0,0,255)"
   d="M 60454,51808 L 60546,51808 60546,51664 60454,51664 60454,51808 Z"
   id="path92"
   style="stroke:none" />
   </g>
  </g>
  <g
   class="com.sun.star.drawing.PolyPolygonShape"
   id="g106"
   style="stroke:none">
   <g
   id="id10"
   style="stroke:none">
    <rect
   class="BoundingBox"
   stroke="none"
   fill="none"
   x="60471"
   y="51680"
   width="59"
   height="113"
   id="rect97"
   style="stroke:none" />
    <path
   fill="rgb(255,255,255)"
   stroke="none"
   d="M 60488,51695 L 60502,51695 60503,51695 60504,51695 60505,51695 60505,51696 60506,51696 60507,51696 60508,51697 60509,51698 60510,51698 60510,51699 60511,51699 60511,51700 60512,51701 60512,51702 60512,51703 60513,51704 60513,51705 60513,51706 60513,51717 60513,51718 60513,51719 60512,51719 60512,51720 60512,51721 60512,51722 60511,51722 60511,51723 60510,51724 60510,51725 60509,51725 60508,51726 60507,51726 60507,51727 60506,51727 60505,51727 60504,51727 60504,51728 60503,51728 60502,51728 60488,51728 60488,51695 Z M 60472,51791 L 60472,51681 60504,51681 60505,51681 60506,51681 60507,51681 60508,51682 60509,51682 60511,51682 60512,51683 60513,51683 60514,51683 60515,51684 60516,51685 60517,51685 60518,51686 60519,51687 60520,51688 60521,51688 60522,51689 60523,51690 60523,51691 60524,51692 60525,51693 60525,51694 60526,51695 60526,51696 60527,51698 60527,51699 60528,51700 60528,51701 60528,51702 60528,51704 60528,51705 60528,51706 60528,51717 60528,51718 60528,51719 60528,51720 60528,51722 60528,51723 60527,51724 60527,51725 60526,51726 60526,51727 60525,51728 60525,51730 60524,51731 60523,51732 60523,51733 60522,51734 60521,51734 60520,51735 60519,51736 60518,51737 60517,51737 60516,51738 60515,51739 60514,51739 60513,51740 60512,51740 60511,51741 60509,51741 60508,51741 60507,51741 60506,51742 60505,51742 60503,51742 60488,51742 60488,51791 60472,51791 Z"
   id="path99"
   style="stroke:none" />
    <path
   fill="none"
   stroke="rgb(255,255,255)"
   d="M 60488,51695 L 60502,51695 60503,51695 60504,51695 60505,51695 60505,51696 60506,51696 60507,51696 60508,51697 60509,51698 60510,51698 60510,51699 60511,51699 60511,51700 60512,51701 60512,51702 60512,51703 60513,51704 60513,51705 60513,51706 60513,51717 60513,51718 60513,51719 60512,51719 60512,51720 60512,51721 60512,51722 60511,51722 60511,51723 60510,51724 60510,51725 60509,51725 60508,51726 60507,51726 60507,51727 60506,51727 60505,51727 60504,51727 60504,51728 60503,51728 60502,51728 60488,51728 60488,51695 Z"
   id="path101"
   style="stroke:none" />
    <path
   fill="none"
   stroke="rgb(255,255,255)"
   d="M 60472,51791 L 60472,51681 60504,51681 60505,51681 60506,51681 60507,51681 60508,51682 60509,51682 60511,51682 60512,51683 60513,51683 60514,51683 60515,51684 60516,51685 60517,51685 60518,51686 60519,51687 60520,51688 60521,51688 60522,51689 60523,51690 60523,51691 60524,51692 60525,51693 60525,51694 60526,51695 60526,51696 60527,51698 60527,51699 60528,51700 60528,51701 60528,51702 60528,51704 60528,51705 60528,51706 60528,51717 60528,51718 60528,51719 60528,51720 60528,51722 60528,51723 60527,51724 60527,51725 60526,51726 60526,51727 60525,51728 60525,51730 60524,51731 60523,51732 60523,51733 60522,51734 60521,51734 60520,51735 60519,51736 60518,51737 60517,51737 60516,51738 60515,51739 60514,51739 60513,51740 60512,51740 60511,51741 60509,51741 60508,51741 60507,51741 60506,51742 60505,51742 60503,51742 60488,51742 60488,51791 60472,51791 Z"
   id="path103"
   style="stroke:none" />
   </g>
  </g>
 </g>
</svg>
