<?xml version="1.0" encoding="UTF-8" standalone="no"?>
<svg
   version="1.2"
   width="25.03mm"
   height="25.04mm"
   viewBox="71949 49509 2503 2504"
   preserveAspectRatio="xMidYMid"
   fill-rule="evenodd"
   stroke-width="28.222"
   stroke-linejoin="round"
   xml:space="preserve"
   id="svg81"
   sodipodi:docname="Belgian_traffic_sign_GVIII.svg"
   inkscape:version="1.2.2 (732a01da63, 2022-12-09)"
   xmlns:inkscape="http://www.inkscape.org/namespaces/inkscape"
   xmlns:sodipodi="http://sodipodi.sourceforge.net/DTD/sodipodi-0.dtd"
   xmlns="http://www.w3.org/2000/svg"
   xmlns:svg="http://www.w3.org/2000/svg"><sodipodi:namedview
   id="namedview83"
   pagecolor="#ffffff"
   bordercolor="#111111"
   borderopacity="1"
   inkscape:showpageshadow="0"
   inkscape:pageopacity="0"
   inkscape:pagecheckerboard="1"
   inkscape:deskcolor="#d1d1d1"
   inkscape:document-units="mm"
   showgrid="false"
   inkscape:zoom="2.4936767"
   inkscape:cx="47.319687"
   inkscape:cy="47.319687"
   inkscape:window-width="1920"
   inkscape:window-height="1057"
   inkscape:window-x="-8"
   inkscape:window-y="-8"
   inkscape:window-maximized="1"
   inkscape:current-layer="svg81" />
 <defs
   class="EmbeddedBulletChars"
   id="defs32">
  <g
   id="bullet-char-template-57356"
   transform="scale(0.00048828125,-0.00048828125)">
   <path
   d="M 580,1141 L 1163,571 580,0 -4,571 580,1141 Z"
   id="path2" />
  </g>
  <g
   id="bullet-char-template-57354"
   transform="scale(0.00048828125,-0.00048828125)">
   <path
   d="M 8,1128 L 1137,1128 1137,0 8,0 8,1128 Z"
   id="path5" />
  </g>
  <g
   id="bullet-char-template-10146"
   transform="scale(0.00048828125,-0.00048828125)">
   <path
   d="M 174,0 L 602,739 174,1481 1456,739 174,0 Z M 1358,739 L 309,1346 659,739 1358,739 Z"
   id="path8" />
  </g>
  <g
   id="bullet-char-template-10132"
   transform="scale(0.00048828125,-0.00048828125)">
   <path
   d="M 2015,739 L 1276,0 717,0 1260,543 174,543 174,936 1260,936 717,1481 1274,1481 2015,739 Z"
   id="path11" />
  </g>
  <g
   id="bullet-char-template-10007"
   transform="scale(0.00048828125,-0.00048828125)">
   <path
   d="M 0,-2 C -7,14 -16,27 -25,37 L 356,567 C 262,823 215,952 215,954 215,979 228,992 255,992 264,992 276,990 289,987 310,991 331,999 354,1012 L 381,999 492,748 772,1049 836,1024 860,1049 C 881,1039 901,1025 922,1006 886,937 835,863 770,784 769,783 710,716 594,584 L 774,223 C 774,196 753,168 711,139 L 727,119 C 717,90 699,76 672,76 641,76 570,178 457,381 L 164,-76 C 142,-110 111,-127 72,-127 30,-127 9,-110 8,-76 1,-67 -2,-52 -2,-32 -2,-23 -1,-13 0,-2 Z"
   id="path14" />
  </g>
  <g
   id="bullet-char-template-10004"
   transform="scale(0.00048828125,-0.00048828125)">
   <path
   d="M 285,-33 C 182,-33 111,30 74,156 52,228 41,333 41,471 41,549 55,616 82,672 116,743 169,778 240,778 293,778 328,747 346,684 L 369,508 C 377,444 397,411 428,410 L 1163,1116 C 1174,1127 1196,1133 1229,1133 1271,1133 1292,1118 1292,1087 L 1292,965 C 1292,929 1282,901 1262,881 L 442,47 C 390,-6 338,-33 285,-33 Z"
   id="path17" />
  </g>
  <g
   id="bullet-char-template-9679"
   transform="scale(0.00048828125,-0.00048828125)">
   <path
   d="M 813,0 C 632,0 489,54 383,161 276,268 223,411 223,592 223,773 276,916 383,1023 489,1130 632,1184 813,1184 992,1184 1136,1130 1245,1023 1353,916 1407,772 1407,592 1407,412 1353,268 1245,161 1136,54 992,0 813,0 Z"
   id="path20" />
  </g>
  <g
   id="bullet-char-template-8226"
   transform="scale(0.00048828125,-0.00048828125)">
   <path
   d="M 346,457 C 273,457 209,483 155,535 101,586 74,649 74,723 74,796 101,859 155,911 209,963 273,989 346,989 419,989 480,963 531,910 582,859 608,796 608,723 608,648 583,586 532,535 482,483 420,457 346,457 Z"
   id="path23" />
  </g>
  <g
   id="bullet-char-template-8211"
   transform="scale(0.00048828125,-0.00048828125)">
   <path
   d="M -4,459 L 1135,459 1135,606 -4,606 -4,459 Z"
   id="path26" />
  </g>
  <g
   id="bullet-char-template-61548"
   transform="scale(0.00048828125,-0.00048828125)">
   <path
   d="M 173,740 C 173,903 231,1043 346,1159 462,1274 601,1332 765,1332 928,1332 1067,1274 1183,1159 1299,1043 1357,903 1357,740 1357,577 1299,437 1183,322 1067,206 928,148 765,148 601,148 462,206 346,322 231,437 173,577 173,740 Z"
   id="path29" />
  </g>
 </defs>
 <g
   class="Page"
   id="g79"
   style="stroke:none">
  <g
   class="com.sun.star.drawing.PolyPolygonShape"
   id="g41"
   style="stroke:none">
   <g
   id="id3"
   style="stroke:none">
    <rect
   class="BoundingBox"
   stroke="none"
   fill="none"
   x="71949"
   y="49509"
   width="2503"
   height="2504"
   id="rect34"
   style="stroke:none" />
    <path
   fill="rgb(0,0,255)"
   stroke="none"
   d="M 71950,51779 L 71950,49742 71951,49720 71954,49697 71959,49675 71967,49654 71977,49633 71989,49613 72002,49595 72017,49578 72034,49563 72053,49549 72072,49538 72093,49528 72114,49520 72136,49515 72159,49511 72182,49510 74218,49510 74241,49511 74264,49515 74286,49520 74307,49528 74328,49538 74347,49549 74366,49563 74382,49578 74398,49595 74411,49613 74423,49633 74433,49654 74440,49675 74446,49697 74449,49720 74450,49742 74450,51779 74449,51802 74446,51824 74440,51846 74433,51868 74423,51888 74411,51908 74398,51926 74382,51943 74366,51958 74347,51972 74328,51984 74307,51993 74286,52001 74264,52007 74241,52010 74218,52011 72182,52011 72159,52010 72136,52007 72114,52001 72093,51993 72072,51984 72053,51972 72034,51958 72017,51943 72002,51926 71989,51908 71977,51888 71967,51868 71959,51846 71954,51824 71951,51802 71950,51779 Z"
   id="path36"
   style="stroke:none" />
    <path
   fill="none"
   stroke="rgb(0,0,255)"
   d="M 71950,51779 L 71950,49742 71951,49720 71954,49697 71959,49675 71967,49654 71977,49633 71989,49613 72002,49595 72017,49578 72034,49563 72053,49549 72072,49538 72093,49528 72114,49520 72136,49515 72159,49511 72182,49510 74218,49510 74241,49511 74264,49515 74286,49520 74307,49528 74328,49538 74347,49549 74366,49563 74382,49578 74398,49595 74411,49613 74423,49633 74433,49654 74440,49675 74446,49697 74449,49720 74450,49742 74450,51779 74449,51802 74446,51824 74440,51846 74433,51868 74423,51888 74411,51908 74398,51926 74382,51943 74366,51958 74347,51972 74328,51984 74307,51993 74286,52001 74264,52007 74241,52010 74218,52011 72182,52011 72159,52010 72136,52007 72114,52001 72093,51993 72072,51984 72053,51972 72034,51958 72017,51943 72002,51926 71989,51908 71977,51888 71967,51868 71959,51846 71954,51824 71951,51802 71950,51779 Z"
   id="path38"
   style="stroke:none" />
   </g>
  </g>
  <g
   class="com.sun.star.drawing.PolyPolygonShape"
   id="g50"
   style="stroke:none">
   <g
   id="id4"
   style="stroke:none">
    <rect
   class="BoundingBox"
   stroke="none"
   fill="none"
   x="73056"
   y="50616"
   width="1218"
   height="1218"
   id="rect43"
   style="stroke:none" />
    <path
   fill="rgb(255,255,255)"
   stroke="none"
   d="M 74272,50903 L 74272,50617 73986,50617 73941,50618 73895,50622 73850,50627 73805,50635 73761,50645 73717,50657 73673,50672 73631,50688 73589,50707 73548,50727 73509,50749 73470,50774 73432,50800 73396,50828 73362,50858 73328,50889 73297,50922 73267,50957 73239,50993 73213,51030 73189,51068 73166,51108 73146,51149 73127,51190 73111,51233 73097,51276 73084,51320 73074,51365 73067,51409 73061,51455 73058,51500 73057,51546 73057,51832 73342,51832 73342,51546 73343,51514 73345,51483 73349,51451 73355,51420 73362,51390 73370,51359 73380,51329 73391,51300 73404,51271 73418,51243 73434,51215 73452,51189 73470,51163 73489,51138 73510,51114 73532,51091 73554,51070 73578,51049 73603,51029 73629,51011 73656,50994 73683,50979 73711,50965 73740,50952 73770,50941 73800,50931 73830,50922 73861,50915 73892,50910 73923,50906 73955,50904 73986,50903 74272,50903 Z"
   id="path45"
   style="stroke:none" />
    <path
   fill="none"
   stroke="rgb(255,255,255)"
   d="M 74272,50903 L 74272,50617 73986,50617 73941,50618 73895,50622 73850,50627 73805,50635 73761,50645 73717,50657 73673,50672 73631,50688 73589,50707 73548,50727 73509,50749 73470,50774 73432,50800 73396,50828 73362,50858 73328,50889 73297,50922 73267,50957 73239,50993 73213,51030 73189,51068 73166,51108 73146,51149 73127,51190 73111,51233 73097,51276 73084,51320 73074,51365 73067,51409 73061,51455 73058,51500 73057,51546 73057,51832 73342,51832 73342,51546 73343,51514 73345,51483 73349,51451 73355,51420 73362,51390 73370,51359 73380,51329 73391,51300 73404,51271 73418,51243 73434,51215 73452,51189 73470,51163 73489,51138 73510,51114 73532,51091 73554,51070 73578,51049 73603,51029 73629,51011 73656,50994 73683,50979 73711,50965 73740,50952 73770,50941 73800,50931 73830,50922 73861,50915 73892,50910 73923,50906 73955,50904 73986,50903 74272,50903 Z"
   id="path47"
   style="stroke:none" />
   </g>
  </g>
  <g
   class="com.sun.star.drawing.PolyPolygonShape"
   id="g59"
   style="stroke:none">
   <g
   id="id5"
   style="stroke:none">
    <rect
   class="BoundingBox"
   stroke="none"
   fill="none"
   x="72127"
   y="50670"
   width="808"
   height="182"
   id="rect52"
   style="stroke:none" />
    <path
   fill="rgb(255,255,255)"
   stroke="none"
   d="M 72128,50850 L 72933,50850 72933,50671 72128,50671 72128,50850 Z"
   id="path54"
   style="stroke:none" />
    <path
   fill="none"
   stroke="rgb(255,255,255)"
   d="M 72128,50850 L 72933,50850 72933,50671 72128,50671 72128,50850 Z"
   id="path56"
   style="stroke:none" />
   </g>
  </g>
  <g
   class="com.sun.star.drawing.PolyPolygonShape"
   id="g68"
   style="stroke:none">
   <g
   id="id6"
   style="stroke:none">
    <rect
   class="BoundingBox"
   stroke="none"
   fill="none"
   x="73109"
   y="49688"
   width="183"
   height="807"
   id="rect61"
   style="stroke:none" />
    <path
   fill="rgb(255,255,255)"
   stroke="none"
   d="M 73110,50493 L 73290,50493 73290,49689 73110,49689 73110,50493 Z"
   id="path63"
   style="stroke:none" />
    <path
   fill="none"
   stroke="rgb(255,255,255)"
   d="M 73110,50493 L 73290,50493 73290,49689 73110,49689 73110,50493 Z"
   id="path65"
   style="stroke:none" />
   </g>
  </g>
  <g
   class="com.sun.star.drawing.PolyPolygonShape"
   id="g77"
   style="stroke:none">
   <g
   id="id7"
   style="stroke:none">
    <rect
   class="BoundingBox"
   stroke="none"
   fill="none"
   x="73109"
   y="49688"
   width="183"
   height="807"
   id="rect70"
   style="stroke:none" />
    <path
   fill="rgb(255,255,255)"
   stroke="none"
   d="M 73110,50493 L 73290,50493 73290,49689 73110,49689 73110,50493 Z"
   id="path72"
   style="stroke:none" />
    <path
   fill="none"
   stroke="rgb(255,255,255)"
   d="M 73110,50493 L 73290,50493 73290,49689 73110,49689 73110,50493 Z"
   id="path74"
   style="stroke:none" />
   </g>
  </g>
 </g>
</svg>
