<?xml version="1.0" encoding="UTF-8" standalone="no"?>
<svg
   version="1.2"
   width="6.25mm"
   height="25.03mm"
   viewBox="81888 49499 625 2503"
   preserveAspectRatio="xMidYMid"
   fill-rule="evenodd"
   stroke-width="28.222"
   stroke-linejoin="round"
   xml:space="preserve"
   id="svg63"
   sodipodi:docname="Belgian_traffic_sign_GXb.svg"
   inkscape:version="1.2.2 (732a01da63, 2022-12-09)"
   xmlns:inkscape="http://www.inkscape.org/namespaces/inkscape"
   xmlns:sodipodi="http://sodipodi.sourceforge.net/DTD/sodipodi-0.dtd"
   xmlns="http://www.w3.org/2000/svg"
   xmlns:svg="http://www.w3.org/2000/svg"><sodipodi:namedview
   id="namedview65"
   pagecolor="#ffffff"
   bordercolor="#111111"
   borderopacity="1"
   inkscape:showpageshadow="0"
   inkscape:pageopacity="0"
   inkscape:pagecheckerboard="1"
   inkscape:deskcolor="#d1d1d1"
   inkscape:document-units="mm"
   showgrid="false"
   inkscape:zoom="9.978692"
   inkscape:cx="26.456373"
   inkscape:cy="23.850821"
   inkscape:window-width="1920"
   inkscape:window-height="1057"
   inkscape:window-x="-8"
   inkscape:window-y="-8"
   inkscape:window-maximized="1"
   inkscape:current-layer="g61" />
 <defs
   class="EmbeddedBulletChars"
   id="defs32">
  <g
   id="bullet-char-template-57356"
   transform="scale(0.00048828125,-0.00048828125)">
   <path
   d="M 580,1141 L 1163,571 580,0 -4,571 580,1141 Z"
   id="path2" />
  </g>
  <g
   id="bullet-char-template-57354"
   transform="scale(0.00048828125,-0.00048828125)">
   <path
   d="M 8,1128 L 1137,1128 1137,0 8,0 8,1128 Z"
   id="path5" />
  </g>
  <g
   id="bullet-char-template-10146"
   transform="scale(0.00048828125,-0.00048828125)">
   <path
   d="M 174,0 L 602,739 174,1481 1456,739 174,0 Z M 1358,739 L 309,1346 659,739 1358,739 Z"
   id="path8" />
  </g>
  <g
   id="bullet-char-template-10132"
   transform="scale(0.00048828125,-0.00048828125)">
   <path
   d="M 2015,739 L 1276,0 717,0 1260,543 174,543 174,936 1260,936 717,1481 1274,1481 2015,739 Z"
   id="path11" />
  </g>
  <g
   id="bullet-char-template-10007"
   transform="scale(0.00048828125,-0.00048828125)">
   <path
   d="M 0,-2 C -7,14 -16,27 -25,37 L 356,567 C 262,823 215,952 215,954 215,979 228,992 255,992 264,992 276,990 289,987 310,991 331,999 354,1012 L 381,999 492,748 772,1049 836,1024 860,1049 C 881,1039 901,1025 922,1006 886,937 835,863 770,784 769,783 710,716 594,584 L 774,223 C 774,196 753,168 711,139 L 727,119 C 717,90 699,76 672,76 641,76 570,178 457,381 L 164,-76 C 142,-110 111,-127 72,-127 30,-127 9,-110 8,-76 1,-67 -2,-52 -2,-32 -2,-23 -1,-13 0,-2 Z"
   id="path14" />
  </g>
  <g
   id="bullet-char-template-10004"
   transform="scale(0.00048828125,-0.00048828125)">
   <path
   d="M 285,-33 C 182,-33 111,30 74,156 52,228 41,333 41,471 41,549 55,616 82,672 116,743 169,778 240,778 293,778 328,747 346,684 L 369,508 C 377,444 397,411 428,410 L 1163,1116 C 1174,1127 1196,1133 1229,1133 1271,1133 1292,1118 1292,1087 L 1292,965 C 1292,929 1282,901 1262,881 L 442,47 C 390,-6 338,-33 285,-33 Z"
   id="path17" />
  </g>
  <g
   id="bullet-char-template-9679"
   transform="scale(0.00048828125,-0.00048828125)">
   <path
   d="M 813,0 C 632,0 489,54 383,161 276,268 223,411 223,592 223,773 276,916 383,1023 489,1130 632,1184 813,1184 992,1184 1136,1130 1245,1023 1353,916 1407,772 1407,592 1407,412 1353,268 1245,161 1136,54 992,0 813,0 Z"
   id="path20" />
  </g>
  <g
   id="bullet-char-template-8226"
   transform="scale(0.00048828125,-0.00048828125)">
   <path
   d="M 346,457 C 273,457 209,483 155,535 101,586 74,649 74,723 74,796 101,859 155,911 209,963 273,989 346,989 419,989 480,963 531,910 582,859 608,796 608,723 608,648 583,586 532,535 482,483 420,457 346,457 Z"
   id="path23" />
  </g>
  <g
   id="bullet-char-template-8211"
   transform="scale(0.00048828125,-0.00048828125)">
   <path
   d="M -4,459 L 1135,459 1135,606 -4,606 -4,459 Z"
   id="path26" />
  </g>
  <g
   id="bullet-char-template-61548"
   transform="scale(0.00048828125,-0.00048828125)">
   <path
   d="M 173,740 C 173,903 231,1043 346,1159 462,1274 601,1332 765,1332 928,1332 1067,1274 1183,1159 1299,1043 1357,903 1357,740 1357,577 1299,437 1183,322 1067,206 928,148 765,148 601,148 462,206 346,322 231,437 173,577 173,740 Z"
   id="path29" />
  </g>
 </defs>
 <g
   class="Page"
   id="g61">
  <g
   class="com.sun.star.drawing.PolyPolygonShape"
   id="g41">
   <g
   id="id3">
    <rect
   class="BoundingBox"
   stroke="none"
   fill="none"
   x="81888"
   y="49499"
   width="625"
   height="2503"
   id="rect34" />
    <path
   fill="rgb(255,255,255)"
   stroke="none"
   d="M 81889,51844 L 81889,49656 81889,49641 81892,49625 81895,49610 81900,49596 81907,49582 81915,49569 81924,49557 81934,49545 81945,49535 81958,49526 81971,49518 81985,49512 81999,49506 82014,49503 82029,49500 82044,49500 82356,49500 82371,49500 82386,49503 82401,49506 82415,49512 82429,49518 82442,49526 82454,49535 82466,49545 82476,49557 82485,49569 82493,49582 82499,49596 82504,49610 82508,49625 82510,49641 82511,49656 82511,51844 82510,51859 82508,51875 82504,51890 82499,51904 82493,51918 82485,51931 82476,51943 82466,51955 82454,51965 82442,51974 82429,51982 82415,51988 82401,51994 82386,51997 82371,52000 82356,52000 82044,52000 82029,52000 82014,51997 81999,51994 81985,51988 81971,51982 81958,51974 81945,51965 81934,51955 81924,51943 81915,51931 81907,51918 81900,51904 81895,51890 81892,51875 81889,51859 81889,51844 Z"
   id="path36" />
    <path
   fill="none"
   stroke="rgb(0,0,0)"
   d="M 81889,51844 L 81889,49656 81889,49641 81892,49625 81895,49610 81900,49596 81907,49582 81915,49569 81924,49557 81934,49545 81945,49535 81958,49526 81971,49518 81985,49512 81999,49506 82014,49503 82029,49500 82044,49500 82356,49500 82371,49500 82386,49503 82401,49506 82415,49512 82429,49518 82442,49526 82454,49535 82466,49545 82476,49557 82485,49569 82493,49582 82499,49596 82504,49610 82508,49625 82510,49641 82511,49656 82511,51844 82510,51859 82508,51875 82504,51890 82499,51904 82493,51918 82485,51931 82476,51943 82466,51955 82454,51965 82442,51974 82429,51982 82415,51988 82401,51994 82386,51997 82371,52000 82356,52000 82044,52000 82029,52000 82014,51997 81999,51994 81985,51988 81971,51982 81958,51974 81945,51965 81934,51955 81924,51943 81915,51931 81907,51918 81900,51904 81895,51890 81892,51875 81889,51859 81889,51844 Z"
   id="path38" />
   </g>
  </g>
  
  <g
   class="com.sun.star.drawing.PolyPolygonShape"
   id="g59">
   <g
   id="id5">
    <rect
   class="BoundingBox"
   stroke="none"
   fill="none"
   x="81950"
   y="49711"
   width="501"
   height="2079"
   id="rect52" />
    <path
   fill="rgb(0,0,0)"
   stroke="none"
   d="M 81951,51388 L 82199,51788 82449,51388 82263,51388 82263,49712 82137,49712 82137,51388 81951,51388 Z"
   id="path54" />
    
   </g>
  </g>
 </g>
</svg>
