<?xml version="1.0" encoding="UTF-8" standalone="no"?>
<svg
   version="1.2"
   width="6.25mm"
   height="25.04mm"
   viewBox="83388 49509 625 2504"
   preserveAspectRatio="xMidYMid"
   fill-rule="evenodd"
   stroke-width="28.222"
   stroke-linejoin="round"
   xml:space="preserve"
   id="svg134"
   sodipodi:docname="Belgian_traffic_sign_GXc.svg"
   inkscape:version="1.2.2 (732a01da63, 2022-12-09)"
   xmlns:inkscape="http://www.inkscape.org/namespaces/inkscape"
   xmlns:sodipodi="http://sodipodi.sourceforge.net/DTD/sodipodi-0.dtd"
   xmlns="http://www.w3.org/2000/svg"
   xmlns:svg="http://www.w3.org/2000/svg"><sodipodi:namedview
   id="namedview136"
   pagecolor="#ffffff"
   bordercolor="#111111"
   borderopacity="1"
   inkscape:showpageshadow="0"
   inkscape:pageopacity="0"
   inkscape:pagecheckerboard="1"
   inkscape:deskcolor="#d1d1d1"
   inkscape:document-units="mm"
   showgrid="false"
   inkscape:zoom="7.0531828"
   inkscape:cx="32.751172"
   inkscape:cy="56.853765"
   inkscape:window-width="1920"
   inkscape:window-height="1057"
   inkscape:window-x="-8"
   inkscape:window-y="-8"
   inkscape:window-maximized="1"
   inkscape:current-layer="id4" />
 <defs
   class="EmbeddedBulletChars"
   id="defs32">
  <g
   id="bullet-char-template-57356"
   transform="scale(0.00048828125,-0.00048828125)">
   <path
   d="M 580,1141 L 1163,571 580,0 -4,571 580,1141 Z"
   id="path2" />
  </g>
  <g
   id="bullet-char-template-57354"
   transform="scale(0.00048828125,-0.00048828125)">
   <path
   d="M 8,1128 L 1137,1128 1137,0 8,0 8,1128 Z"
   id="path5" />
  </g>
  <g
   id="bullet-char-template-10146"
   transform="scale(0.00048828125,-0.00048828125)">
   <path
   d="M 174,0 L 602,739 174,1481 1456,739 174,0 Z M 1358,739 L 309,1346 659,739 1358,739 Z"
   id="path8" />
  </g>
  <g
   id="bullet-char-template-10132"
   transform="scale(0.00048828125,-0.00048828125)">
   <path
   d="M 2015,739 L 1276,0 717,0 1260,543 174,543 174,936 1260,936 717,1481 1274,1481 2015,739 Z"
   id="path11" />
  </g>
  <g
   id="bullet-char-template-10007"
   transform="scale(0.00048828125,-0.00048828125)">
   <path
   d="M 0,-2 C -7,14 -16,27 -25,37 L 356,567 C 262,823 215,952 215,954 215,979 228,992 255,992 264,992 276,990 289,987 310,991 331,999 354,1012 L 381,999 492,748 772,1049 836,1024 860,1049 C 881,1039 901,1025 922,1006 886,937 835,863 770,784 769,783 710,716 594,584 L 774,223 C 774,196 753,168 711,139 L 727,119 C 717,90 699,76 672,76 641,76 570,178 457,381 L 164,-76 C 142,-110 111,-127 72,-127 30,-127 9,-110 8,-76 1,-67 -2,-52 -2,-32 -2,-23 -1,-13 0,-2 Z"
   id="path14" />
  </g>
  <g
   id="bullet-char-template-10004"
   transform="scale(0.00048828125,-0.00048828125)">
   <path
   d="M 285,-33 C 182,-33 111,30 74,156 52,228 41,333 41,471 41,549 55,616 82,672 116,743 169,778 240,778 293,778 328,747 346,684 L 369,508 C 377,444 397,411 428,410 L 1163,1116 C 1174,1127 1196,1133 1229,1133 1271,1133 1292,1118 1292,1087 L 1292,965 C 1292,929 1282,901 1262,881 L 442,47 C 390,-6 338,-33 285,-33 Z"
   id="path17" />
  </g>
  <g
   id="bullet-char-template-9679"
   transform="scale(0.00048828125,-0.00048828125)">
   <path
   d="M 813,0 C 632,0 489,54 383,161 276,268 223,411 223,592 223,773 276,916 383,1023 489,1130 632,1184 813,1184 992,1184 1136,1130 1245,1023 1353,916 1407,772 1407,592 1407,412 1353,268 1245,161 1136,54 992,0 813,0 Z"
   id="path20" />
  </g>
  <g
   id="bullet-char-template-8226"
   transform="scale(0.00048828125,-0.00048828125)">
   <path
   d="M 346,457 C 273,457 209,483 155,535 101,586 74,649 74,723 74,796 101,859 155,911 209,963 273,989 346,989 419,989 480,963 531,910 582,859 608,796 608,723 608,648 583,586 532,535 482,483 420,457 346,457 Z"
   id="path23" />
  </g>
  <g
   id="bullet-char-template-8211"
   transform="scale(0.00048828125,-0.00048828125)">
   <path
   d="M -4,459 L 1135,459 1135,606 -4,606 -4,459 Z"
   id="path26" />
  </g>
  <g
   id="bullet-char-template-61548"
   transform="scale(0.00048828125,-0.00048828125)">
   <path
   d="M 173,740 C 173,903 231,1043 346,1159 462,1274 601,1332 765,1332 928,1332 1067,1274 1183,1159 1299,1043 1357,903 1357,740 1357,577 1299,437 1183,322 1067,206 928,148 765,148 601,148 462,206 346,322 231,437 173,577 173,740 Z"
   id="path29" />
  </g>
 </defs>
 <g
   class="Page"
   id="g132">
  <g
   class="com.sun.star.drawing.PolyPolygonShape"
   id="g41">
   <g
   id="id3">
    <rect
   class="BoundingBox"
   stroke="none"
   fill="none"
   x="83388"
   y="49509"
   width="625"
   height="2504"
   id="rect34" />
    <path
   fill="rgb(255,255,255)"
   stroke="none"
   d="M 83389,51855 L 83389,49667 83389,49651 83392,49636 83395,49621 83400,49607 83407,49593 83415,49580 83424,49568 83434,49556 83445,49546 83458,49537 83471,49529 83485,49522 83499,49517 83514,49513 83530,49511 83545,49510 83856,49510 83871,49511 83886,49513 83901,49517 83915,49522 83929,49529 83942,49537 83954,49546 83966,49556 83976,49568 83985,49580 83993,49593 83999,49607 84004,49621 84008,49636 84010,49651 84011,49667 84011,51855 84010,51870 84008,51885 84004,51900 83999,51915 83993,51928 83985,51942 83976,51954 83966,51965 83954,51976 83942,51985 83929,51993 83915,51999 83901,52004 83886,52008 83871,52010 83856,52011 83545,52011 83530,52010 83514,52008 83499,52004 83485,51999 83471,51993 83458,51985 83445,51976 83434,51965 83424,51954 83415,51942 83407,51928 83400,51915 83395,51900 83392,51885 83389,51870 83389,51855 Z"
   id="path36" />
    <path
   fill="none"
   stroke="rgb(0,0,0)"
   d="M 83389,51855 L 83389,49667 83389,49651 83392,49636 83395,49621 83400,49607 83407,49593 83415,49580 83424,49568 83434,49556 83445,49546 83458,49537 83471,49529 83485,49522 83499,49517 83514,49513 83530,49511 83545,49510 83856,49510 83871,49511 83886,49513 83901,49517 83915,49522 83929,49529 83942,49537 83954,49546 83966,49556 83976,49568 83985,49580 83993,49593 83999,49607 84004,49621 84008,49636 84010,49651 84011,49667 84011,51855 84010,51870 84008,51885 84004,51900 83999,51915 83993,51928 83985,51942 83976,51954 83966,51965 83954,51976 83942,51985 83929,51993 83915,51999 83901,52004 83886,52008 83871,52010 83856,52011 83545,52011 83530,52010 83514,52008 83499,52004 83485,51999 83471,51993 83458,51985 83445,51976 83434,51965 83424,51954 83415,51942 83407,51928 83400,51915 83395,51900 83392,51885 83389,51870 83389,51855 Z"
   id="path38" />
   </g>
  </g>
  <g
   class="com.sun.star.drawing.PolyPolygonShape"
   id="g50">
   <g
   id="id4">
    <rect
   class="BoundingBox"
   stroke="none"
   fill="none"
   x="83450"
   y="50416"
   width="501"
   height="1472"
   id="rect43" />
    <path
   fill="rgb(0,0,0)"
   stroke="none"
   d="M 83451,50818 L 83699,50417 83949,50818 83762,50818 83762,51886 83637,51886 83637,50818 83451,50818 Z"
   id="path45" />
    
   </g>
  </g>
  <g
   class="com.sun.star.drawing.PolyPolygonShape"
   id="g59"
   style="stroke:none">
   <g
   id="id5"
   style="stroke:none">
    <rect
   class="BoundingBox"
   stroke="none"
   fill="none"
   x="83550"
   y="50066"
   width="301"
   height="229"
   id="rect52"
   style="stroke:none" />
    <path
   fill="rgb(0,0,0)"
   stroke="none"
   d="M 83551,50293 L 83601,50293 83601,50147 83602,50140 83604,50133 83609,50127 83613,50121 83619,50117 83625,50113 83632,50111 83639,50111 83646,50111 83653,50113 83659,50117 83664,50121 83669,50127 83672,50133 83674,50140 83675,50147 83675,50293 83726,50293 83726,50147 83727,50140 83728,50133 83732,50127 83736,50121 83742,50117 83748,50113 83755,50111 83762,50111 83769,50111 83776,50113 83782,50117 83788,50121 83792,50127 83795,50133 83798,50140 83798,50147 83798,50293 83849,50293 83849,50139 83848,50127 83845,50116 83841,50105 83834,50095 83826,50086 83817,50079 83807,50073 83796,50069 83785,50067 83773,50067 83762,50069 83751,50072 83740,50077 83731,50084 83723,50092 83716,50102 83706,50089 83693,50078 83678,50071 83663,50067 83646,50067 83630,50071 83615,50078 83601,50089 83601,50073 83551,50073 83551,50293 Z"
   id="path54"
   style="stroke:none" />
    <path
   fill="none"
   stroke="rgb(0,0,0)"
   d="M 83551,50293 L 83601,50293 83601,50147 83602,50140 83604,50133 83609,50127 83613,50121 83619,50117 83625,50113 83632,50111 83639,50111 83646,50111 83653,50113 83659,50117 83664,50121 83669,50127 83672,50133 83674,50140 83675,50147 83675,50293 83726,50293 83726,50147 83727,50140 83728,50133 83732,50127 83736,50121 83742,50117 83748,50113 83755,50111 83762,50111 83769,50111 83776,50113 83782,50117 83788,50121 83792,50127 83795,50133 83798,50140 83798,50147 83798,50293 83849,50293 83849,50139 83848,50127 83845,50116 83841,50105 83834,50095 83826,50086 83817,50079 83807,50073 83796,50069 83785,50067 83773,50067 83762,50069 83751,50072 83740,50077 83731,50084 83723,50092 83716,50102 83706,50089 83693,50078 83678,50071 83663,50067 83646,50067 83630,50071 83615,50078 83601,50089 83601,50073 83551,50073 83551,50293 Z"
   id="path56"
   style="stroke:none" />
   </g>
  </g>
  <g
   class="com.sun.star.drawing.PolyPolygonShape"
   id="g68"
   style="stroke:none">
   <g
   id="id6"
   style="stroke:none">
    <rect
   class="BoundingBox"
   stroke="none"
   fill="none"
   x="83448"
   y="49629"
   width="217"
   height="322"
   id="rect61"
   style="stroke:none" />
    <path
   fill="rgb(0,0,0)"
   stroke="none"
   d="M 83455,49949 L 83663,49949 83663,49897 83540,49897 83627,49807 83636,49798 83643,49787 83649,49776 83653,49763 83655,49750 83657,49738 83656,49725 83655,49712 83651,49700 83646,49688 83640,49677 83632,49667 83623,49658 83613,49650 83603,49643 83591,49637 83579,49634 83567,49631 83554,49630 83542,49630 83529,49633 83517,49636 83506,49641 83495,49648 83484,49655 83476,49664 83468,49674 83461,49685 83456,49696 83452,49709 83450,49721 83449,49734 83449,49739 83506,49739 83506,49729 83507,49717 83511,49707 83518,49697 83527,49690 83537,49685 83548,49682 83559,49682 83570,49685 83580,49691 83588,49699 83594,49708 83598,49719 83599,49730 83597,49742 83593,49752 83586,49761 83455,49897 83455,49949 Z"
   id="path63"
   style="stroke:none" />
    <path
   fill="none"
   stroke="rgb(0,0,0)"
   d="M 83455,49949 L 83663,49949 83663,49897 83540,49897 83627,49807 83636,49798 83643,49787 83649,49776 83653,49763 83655,49750 83657,49738 83656,49725 83655,49712 83651,49700 83646,49688 83640,49677 83632,49667 83623,49658 83613,49650 83603,49643 83591,49637 83579,49634 83567,49631 83554,49630 83542,49630 83529,49633 83517,49636 83506,49641 83495,49648 83484,49655 83476,49664 83468,49674 83461,49685 83456,49696 83452,49709 83450,49721 83449,49734 83449,49739 83506,49739 83506,49729 83507,49717 83511,49707 83518,49697 83527,49690 83537,49685 83548,49682 83559,49682 83570,49685 83580,49691 83588,49699 83594,49708 83598,49719 83599,49730 83597,49742 83593,49752 83586,49761 83455,49897 83455,49949 Z"
   id="path65"
   style="stroke:none" />
   </g>
  </g>
  <g
   class="com.sun.star.drawing.PolyPolygonShape"
   id="g77"
   style="stroke:none">
   <g
   id="id7"
   style="stroke:none">
    <rect
   class="BoundingBox"
   stroke="none"
   fill="none"
   x="83448"
   y="49629"
   width="217"
   height="322"
   id="rect70"
   style="stroke:none" />
    <path
   fill="rgb(0,0,0)"
   stroke="none"
   d="M 83455,49949 L 83663,49949 83663,49897 83540,49897 83627,49807 83636,49798 83643,49787 83649,49776 83653,49763 83655,49750 83657,49738 83656,49725 83655,49712 83651,49700 83646,49688 83640,49677 83632,49667 83623,49658 83613,49650 83603,49643 83591,49637 83579,49634 83567,49631 83554,49630 83542,49630 83529,49633 83517,49636 83506,49641 83495,49648 83484,49655 83476,49664 83468,49674 83461,49685 83456,49696 83452,49709 83450,49721 83449,49734 83449,49739 83506,49739 83506,49729 83507,49717 83511,49707 83518,49697 83527,49690 83537,49685 83548,49682 83559,49682 83570,49685 83580,49691 83588,49699 83594,49708 83598,49719 83599,49730 83597,49742 83593,49752 83586,49761 83455,49897 83455,49949 Z"
   id="path72"
   style="stroke:none" />
    <path
   fill="none"
   stroke="rgb(0,0,0)"
   d="M 83455,49949 L 83663,49949 83663,49897 83540,49897 83627,49807 83636,49798 83643,49787 83649,49776 83653,49763 83655,49750 83657,49738 83656,49725 83655,49712 83651,49700 83646,49688 83640,49677 83632,49667 83623,49658 83613,49650 83603,49643 83591,49637 83579,49634 83567,49631 83554,49630 83542,49630 83529,49633 83517,49636 83506,49641 83495,49648 83484,49655 83476,49664 83468,49674 83461,49685 83456,49696 83452,49709 83450,49721 83449,49734 83449,49739 83506,49739 83506,49729 83507,49717 83511,49707 83518,49697 83527,49690 83537,49685 83548,49682 83559,49682 83570,49685 83580,49691 83588,49699 83594,49708 83598,49719 83599,49730 83597,49742 83593,49752 83586,49761 83455,49897 83455,49949 Z"
   id="path74"
   style="stroke:none" />
   </g>
  </g>
  <g
   class="com.sun.star.drawing.PolyPolygonShape"
   id="g86"
   style="stroke:none">
   <g
   id="id8"
   style="stroke:none">
    <rect
   class="BoundingBox"
   stroke="none"
   fill="none"
   x="83448"
   y="49629"
   width="217"
   height="322"
   id="rect79"
   style="stroke:none" />
    <path
   fill="rgb(0,0,0)"
   stroke="none"
   d="M 83455,49949 L 83663,49949 83663,49897 83540,49897 83627,49807 83636,49798 83643,49787 83649,49776 83653,49763 83655,49750 83657,49738 83656,49725 83655,49712 83651,49700 83646,49688 83640,49677 83632,49667 83623,49658 83613,49650 83603,49643 83591,49637 83579,49634 83567,49631 83554,49630 83542,49630 83529,49633 83517,49636 83506,49641 83495,49648 83484,49655 83476,49664 83468,49674 83461,49685 83456,49696 83452,49709 83450,49721 83449,49734 83449,49739 83506,49739 83506,49729 83507,49717 83511,49707 83518,49697 83527,49690 83537,49685 83548,49682 83559,49682 83570,49685 83580,49691 83588,49699 83594,49708 83598,49719 83599,49730 83597,49742 83593,49752 83586,49761 83455,49897 83455,49949 Z"
   id="path81"
   style="stroke:none" />
    <path
   fill="none"
   stroke="rgb(0,0,0)"
   d="M 83455,49949 L 83663,49949 83663,49897 83540,49897 83627,49807 83636,49798 83643,49787 83649,49776 83653,49763 83655,49750 83657,49738 83656,49725 83655,49712 83651,49700 83646,49688 83640,49677 83632,49667 83623,49658 83613,49650 83603,49643 83591,49637 83579,49634 83567,49631 83554,49630 83542,49630 83529,49633 83517,49636 83506,49641 83495,49648 83484,49655 83476,49664 83468,49674 83461,49685 83456,49696 83452,49709 83450,49721 83449,49734 83449,49739 83506,49739 83506,49729 83507,49717 83511,49707 83518,49697 83527,49690 83537,49685 83548,49682 83559,49682 83570,49685 83580,49691 83588,49699 83594,49708 83598,49719 83599,49730 83597,49742 83593,49752 83586,49761 83455,49897 83455,49949 Z"
   id="path83"
   style="stroke:none" />
   </g>
  </g>
  <g
   class="com.sun.star.drawing.PolyPolygonShape"
   id="g97"
   style="stroke:none">
   <g
   id="id9"
   style="stroke:none">
    <rect
   class="BoundingBox"
   stroke="none"
   fill="none"
   x="83736"
   y="49629"
   width="217"
   height="329"
   id="rect88"
   style="stroke:none" />
    <path
   fill="rgb(0,0,0)"
   stroke="none"
   d="M 83794,49732 L 83794,49854 83795,49864 83797,49873 83802,49882 83808,49889 83817,49895 83825,49900 83834,49903 83844,49904 83854,49903 83863,49900 83872,49895 83879,49889 83885,49882 83890,49873 83893,49864 83894,49854 83894,49732 83893,49722 83890,49713 83885,49704 83879,49697 83872,49690 83863,49686 83854,49683 83844,49682 83834,49683 83825,49686 83817,49690 83808,49697 83802,49704 83797,49713 83795,49722 83794,49732 Z M 83737,49738 L 83737,49849 83739,49870 83745,49890 83755,49908 83768,49925 83784,49938 83802,49948 83823,49954 83844,49956 83865,49954 83885,49948 83903,49938 83919,49925 83933,49908 83943,49890 83949,49870 83951,49849 83951,49738 83949,49716 83943,49696 83933,49677 83919,49661 83903,49648 83885,49638 83865,49632 83844,49630 83823,49632 83802,49638 83784,49648 83768,49661 83755,49677 83745,49696 83739,49716 83737,49738 Z"
   id="path90"
   style="stroke:none" />
    <path
   fill="none"
   stroke="rgb(0,0,0)"
   d="M 83794,49732 L 83794,49854 83795,49864 83797,49873 83802,49882 83808,49889 83817,49895 83825,49900 83834,49903 83844,49904 83854,49903 83863,49900 83872,49895 83879,49889 83885,49882 83890,49873 83893,49864 83894,49854 83894,49732 83893,49722 83890,49713 83885,49704 83879,49697 83872,49690 83863,49686 83854,49683 83844,49682 83834,49683 83825,49686 83817,49690 83808,49697 83802,49704 83797,49713 83795,49722 83794,49732 Z"
   id="path92"
   style="stroke:none" />
    <path
   fill="none"
   stroke="rgb(0,0,0)"
   d="M 83737,49738 L 83737,49849 83739,49870 83745,49890 83755,49908 83768,49925 83784,49938 83802,49948 83823,49954 83844,49956 83865,49954 83885,49948 83903,49938 83919,49925 83933,49908 83943,49890 83949,49870 83951,49849 83951,49738 83949,49716 83943,49696 83933,49677 83919,49661 83903,49648 83885,49638 83865,49632 83844,49630 83823,49632 83802,49638 83784,49648 83768,49661 83755,49677 83745,49696 83739,49716 83737,49738 Z"
   id="path94"
   style="stroke:none" />
   </g>
  </g>
  <g
   class="com.sun.star.drawing.PolyPolygonShape"
   id="g108"
   style="stroke:none">
   <g
   id="id10"
   style="stroke:none">
    <rect
   class="BoundingBox"
   stroke="none"
   fill="none"
   x="83736"
   y="49629"
   width="217"
   height="329"
   id="rect99"
   style="stroke:none" />
    <path
   fill="rgb(0,0,0)"
   stroke="none"
   d="M 83794,49732 L 83794,49854 83795,49864 83797,49873 83802,49882 83808,49889 83817,49895 83825,49900 83834,49903 83844,49904 83854,49903 83863,49900 83872,49895 83879,49889 83885,49882 83890,49873 83893,49864 83894,49854 83894,49732 83893,49722 83890,49713 83885,49704 83879,49697 83872,49690 83863,49686 83854,49683 83844,49682 83834,49683 83825,49686 83817,49690 83808,49697 83802,49704 83797,49713 83795,49722 83794,49732 Z M 83737,49738 L 83737,49849 83739,49870 83745,49890 83755,49908 83768,49925 83784,49938 83802,49948 83823,49954 83844,49956 83865,49954 83885,49948 83903,49938 83919,49925 83933,49908 83943,49890 83949,49870 83951,49849 83951,49738 83949,49716 83943,49696 83933,49677 83919,49661 83903,49648 83885,49638 83865,49632 83844,49630 83823,49632 83802,49638 83784,49648 83768,49661 83755,49677 83745,49696 83739,49716 83737,49738 Z"
   id="path101"
   style="stroke:none" />
    <path
   fill="none"
   stroke="rgb(0,0,0)"
   d="M 83794,49732 L 83794,49854 83795,49864 83797,49873 83802,49882 83808,49889 83817,49895 83825,49900 83834,49903 83844,49904 83854,49903 83863,49900 83872,49895 83879,49889 83885,49882 83890,49873 83893,49864 83894,49854 83894,49732 83893,49722 83890,49713 83885,49704 83879,49697 83872,49690 83863,49686 83854,49683 83844,49682 83834,49683 83825,49686 83817,49690 83808,49697 83802,49704 83797,49713 83795,49722 83794,49732 Z"
   id="path103"
   style="stroke:none" />
    <path
   fill="none"
   stroke="rgb(0,0,0)"
   d="M 83737,49738 L 83737,49849 83739,49870 83745,49890 83755,49908 83768,49925 83784,49938 83802,49948 83823,49954 83844,49956 83865,49954 83885,49948 83903,49938 83919,49925 83933,49908 83943,49890 83949,49870 83951,49849 83951,49738 83949,49716 83943,49696 83933,49677 83919,49661 83903,49648 83885,49638 83865,49632 83844,49630 83823,49632 83802,49638 83784,49648 83768,49661 83755,49677 83745,49696 83739,49716 83737,49738 Z"
   id="path105"
   style="stroke:none" />
   </g>
  </g>
  <g
   class="com.sun.star.drawing.PolyPolygonShape"
   id="g119"
   style="stroke:none">
   <g
   id="id11"
   style="stroke:none">
    <rect
   class="BoundingBox"
   stroke="none"
   fill="none"
   x="83736"
   y="49629"
   width="217"
   height="329"
   id="rect110"
   style="stroke:none" />
    <path
   fill="rgb(0,0,0)"
   stroke="none"
   d="M 83794,49732 L 83794,49854 83795,49864 83797,49873 83802,49882 83808,49889 83817,49895 83825,49900 83834,49903 83844,49904 83854,49903 83863,49900 83872,49895 83879,49889 83885,49882 83890,49873 83893,49864 83894,49854 83894,49732 83893,49722 83890,49713 83885,49704 83879,49697 83872,49690 83863,49686 83854,49683 83844,49682 83834,49683 83825,49686 83817,49690 83808,49697 83802,49704 83797,49713 83795,49722 83794,49732 Z M 83737,49738 L 83737,49849 83739,49870 83745,49890 83755,49908 83768,49925 83784,49938 83802,49948 83823,49954 83844,49956 83865,49954 83885,49948 83903,49938 83919,49925 83933,49908 83943,49890 83949,49870 83951,49849 83951,49738 83949,49716 83943,49696 83933,49677 83919,49661 83903,49648 83885,49638 83865,49632 83844,49630 83823,49632 83802,49638 83784,49648 83768,49661 83755,49677 83745,49696 83739,49716 83737,49738 Z"
   id="path112"
   style="stroke:none" />
    <path
   fill="none"
   stroke="rgb(0,0,0)"
   d="M 83794,49732 L 83794,49854 83795,49864 83797,49873 83802,49882 83808,49889 83817,49895 83825,49900 83834,49903 83844,49904 83854,49903 83863,49900 83872,49895 83879,49889 83885,49882 83890,49873 83893,49864 83894,49854 83894,49732 83893,49722 83890,49713 83885,49704 83879,49697 83872,49690 83863,49686 83854,49683 83844,49682 83834,49683 83825,49686 83817,49690 83808,49697 83802,49704 83797,49713 83795,49722 83794,49732 Z"
   id="path114"
   style="stroke:none" />
    <path
   fill="none"
   stroke="rgb(0,0,0)"
   d="M 83737,49738 L 83737,49849 83739,49870 83745,49890 83755,49908 83768,49925 83784,49938 83802,49948 83823,49954 83844,49956 83865,49954 83885,49948 83903,49938 83919,49925 83933,49908 83943,49890 83949,49870 83951,49849 83951,49738 83949,49716 83943,49696 83933,49677 83919,49661 83903,49648 83885,49638 83865,49632 83844,49630 83823,49632 83802,49638 83784,49648 83768,49661 83755,49677 83745,49696 83739,49716 83737,49738 Z"
   id="path116"
   style="stroke:none" />
   </g>
  </g>
  <g
   class="com.sun.star.drawing.PolyPolygonShape"
   id="g130"
   style="stroke:none">
   <g
   id="id12"
   style="stroke:none">
    <rect
   class="BoundingBox"
   stroke="none"
   fill="none"
   x="83736"
   y="49629"
   width="217"
   height="329"
   id="rect121"
   style="stroke:none" />
    <path
   fill="rgb(0,0,0)"
   stroke="none"
   d="M 83794,49732 L 83794,49854 83795,49864 83797,49873 83802,49882 83808,49889 83817,49895 83825,49900 83834,49903 83844,49904 83854,49903 83863,49900 83872,49895 83879,49889 83885,49882 83890,49873 83893,49864 83894,49854 83894,49732 83893,49722 83890,49713 83885,49704 83879,49697 83872,49690 83863,49686 83854,49683 83844,49682 83834,49683 83825,49686 83817,49690 83808,49697 83802,49704 83797,49713 83795,49722 83794,49732 Z M 83737,49738 L 83737,49849 83739,49870 83745,49890 83755,49908 83768,49925 83784,49938 83802,49948 83823,49954 83844,49956 83865,49954 83885,49948 83903,49938 83919,49925 83933,49908 83943,49890 83949,49870 83951,49849 83951,49738 83949,49716 83943,49696 83933,49677 83919,49661 83903,49648 83885,49638 83865,49632 83844,49630 83823,49632 83802,49638 83784,49648 83768,49661 83755,49677 83745,49696 83739,49716 83737,49738 Z"
   id="path123"
   style="stroke:none" />
    <path
   fill="none"
   stroke="rgb(0,0,0)"
   d="M 83794,49732 L 83794,49854 83795,49864 83797,49873 83802,49882 83808,49889 83817,49895 83825,49900 83834,49903 83844,49904 83854,49903 83863,49900 83872,49895 83879,49889 83885,49882 83890,49873 83893,49864 83894,49854 83894,49732 83893,49722 83890,49713 83885,49704 83879,49697 83872,49690 83863,49686 83854,49683 83844,49682 83834,49683 83825,49686 83817,49690 83808,49697 83802,49704 83797,49713 83795,49722 83794,49732 Z"
   id="path125"
   style="stroke:none" />
    <path
   fill="none"
   stroke="rgb(0,0,0)"
   d="M 83737,49738 L 83737,49849 83739,49870 83745,49890 83755,49908 83768,49925 83784,49938 83802,49948 83823,49954 83844,49956 83865,49954 83885,49948 83903,49938 83919,49925 83933,49908 83943,49890 83949,49870 83951,49849 83951,49738 83949,49716 83943,49696 83933,49677 83919,49661 83903,49648 83885,49638 83865,49632 83844,49630 83823,49632 83802,49638 83784,49648 83768,49661 83755,49677 83745,49696 83739,49716 83737,49738 Z"
   id="path127"
   style="stroke:none" />
   </g>
  </g>
 </g>
</svg>
