<?xml version="1.0" encoding="UTF-8" standalone="no"?>
<svg
   version="1.2"
   width="6.25mm"
   height="25.04mm"
   viewBox="84888 49509 625 2504"
   preserveAspectRatio="xMidYMid"
   fill-rule="evenodd"
   stroke-width="28.222"
   stroke-linejoin="round"
   xml:space="preserve"
   id="svg63"
   sodipodi:docname="Belgian_traffic_sign_GXd.svg"
   inkscape:version="1.2.2 (732a01da63, 2022-12-09)"
   xmlns:inkscape="http://www.inkscape.org/namespaces/inkscape"
   xmlns:sodipodi="http://sodipodi.sourceforge.net/DTD/sodipodi-0.dtd"
   xmlns="http://www.w3.org/2000/svg"
   xmlns:svg="http://www.w3.org/2000/svg"><sodipodi:namedview
   id="namedview65"
   pagecolor="#ffffff"
   bordercolor="#111111"
   borderopacity="1"
   inkscape:showpageshadow="0"
   inkscape:pageopacity="0"
   inkscape:pagecheckerboard="1"
   inkscape:deskcolor="#d1d1d1"
   inkscape:document-units="mm"
   showgrid="false"
   inkscape:zoom="2.4936767"
   inkscape:cx="11.629415"
   inkscape:cy="47.319687"
   inkscape:window-width="1920"
   inkscape:window-height="1057"
   inkscape:window-x="-8"
   inkscape:window-y="-8"
   inkscape:window-maximized="1"
   inkscape:current-layer="g61" />
 <defs
   class="EmbeddedBulletChars"
   id="defs32">
  <g
   id="bullet-char-template-57356"
   transform="scale(0.00048828125,-0.00048828125)">
   <path
   d="M 580,1141 L 1163,571 580,0 -4,571 580,1141 Z"
   id="path2" />
  </g>
  <g
   id="bullet-char-template-57354"
   transform="scale(0.00048828125,-0.00048828125)">
   <path
   d="M 8,1128 L 1137,1128 1137,0 8,0 8,1128 Z"
   id="path5" />
  </g>
  <g
   id="bullet-char-template-10146"
   transform="scale(0.00048828125,-0.00048828125)">
   <path
   d="M 174,0 L 602,739 174,1481 1456,739 174,0 Z M 1358,739 L 309,1346 659,739 1358,739 Z"
   id="path8" />
  </g>
  <g
   id="bullet-char-template-10132"
   transform="scale(0.00048828125,-0.00048828125)">
   <path
   d="M 2015,739 L 1276,0 717,0 1260,543 174,543 174,936 1260,936 717,1481 1274,1481 2015,739 Z"
   id="path11" />
  </g>
  <g
   id="bullet-char-template-10007"
   transform="scale(0.00048828125,-0.00048828125)">
   <path
   d="M 0,-2 C -7,14 -16,27 -25,37 L 356,567 C 262,823 215,952 215,954 215,979 228,992 255,992 264,992 276,990 289,987 310,991 331,999 354,1012 L 381,999 492,748 772,1049 836,1024 860,1049 C 881,1039 901,1025 922,1006 886,937 835,863 770,784 769,783 710,716 594,584 L 774,223 C 774,196 753,168 711,139 L 727,119 C 717,90 699,76 672,76 641,76 570,178 457,381 L 164,-76 C 142,-110 111,-127 72,-127 30,-127 9,-110 8,-76 1,-67 -2,-52 -2,-32 -2,-23 -1,-13 0,-2 Z"
   id="path14" />
  </g>
  <g
   id="bullet-char-template-10004"
   transform="scale(0.00048828125,-0.00048828125)">
   <path
   d="M 285,-33 C 182,-33 111,30 74,156 52,228 41,333 41,471 41,549 55,616 82,672 116,743 169,778 240,778 293,778 328,747 346,684 L 369,508 C 377,444 397,411 428,410 L 1163,1116 C 1174,1127 1196,1133 1229,1133 1271,1133 1292,1118 1292,1087 L 1292,965 C 1292,929 1282,901 1262,881 L 442,47 C 390,-6 338,-33 285,-33 Z"
   id="path17" />
  </g>
  <g
   id="bullet-char-template-9679"
   transform="scale(0.00048828125,-0.00048828125)">
   <path
   d="M 813,0 C 632,0 489,54 383,161 276,268 223,411 223,592 223,773 276,916 383,1023 489,1130 632,1184 813,1184 992,1184 1136,1130 1245,1023 1353,916 1407,772 1407,592 1407,412 1353,268 1245,161 1136,54 992,0 813,0 Z"
   id="path20" />
  </g>
  <g
   id="bullet-char-template-8226"
   transform="scale(0.00048828125,-0.00048828125)">
   <path
   d="M 346,457 C 273,457 209,483 155,535 101,586 74,649 74,723 74,796 101,859 155,911 209,963 273,989 346,989 419,989 480,963 531,910 582,859 608,796 608,723 608,648 583,586 532,535 482,483 420,457 346,457 Z"
   id="path23" />
  </g>
  <g
   id="bullet-char-template-8211"
   transform="scale(0.00048828125,-0.00048828125)">
   <path
   d="M -4,459 L 1135,459 1135,606 -4,606 -4,459 Z"
   id="path26" />
  </g>
  <g
   id="bullet-char-template-61548"
   transform="scale(0.00048828125,-0.00048828125)">
   <path
   d="M 173,740 C 173,903 231,1043 346,1159 462,1274 601,1332 765,1332 928,1332 1067,1274 1183,1159 1299,1043 1357,903 1357,740 1357,577 1299,437 1183,322 1067,206 928,148 765,148 601,148 462,206 346,322 231,437 173,577 173,740 Z"
   id="path29" />
  </g>
 </defs>
 <g
   class="Page"
   id="g61">
  <g
   class="com.sun.star.drawing.PolyPolygonShape"
   id="g41">
   <g
   id="id3">
    <rect
   class="BoundingBox"
   stroke="none"
   fill="none"
   x="84888"
   y="49509"
   width="625"
   height="2504"
   id="rect34" />
    <path
   fill="rgb(255,255,255)"
   stroke="none"
   d="M 84889,51855 L 84889,49667 84889,49651 84892,49636 84895,49621 84900,49607 84907,49593 84915,49580 84924,49568 84934,49556 84945,49546 84958,49537 84971,49529 84985,49522 84999,49517 85014,49513 85029,49511 85044,49510 85355,49510 85370,49511 85385,49513 85401,49517 85415,49522 85429,49529 85442,49537 85454,49546 85466,49556 85476,49568 85485,49580 85493,49593 85499,49607 85504,49621 85508,49636 85510,49651 85511,49667 85511,51855 85510,51870 85508,51885 85504,51900 85499,51915 85493,51928 85485,51942 85476,51954 85466,51965 85454,51976 85442,51985 85429,51993 85415,51999 85401,52004 85385,52008 85370,52010 85355,52011 85044,52011 85029,52010 85014,52008 84999,52004 84985,51999 84971,51993 84958,51985 84945,51976 84934,51965 84924,51954 84915,51942 84907,51928 84900,51915 84895,51900 84892,51885 84889,51870 84889,51855 Z"
   id="path36" />
    <path
   fill="none"
   stroke="rgb(0,0,0)"
   d="M 84889,51855 L 84889,49667 84889,49651 84892,49636 84895,49621 84900,49607 84907,49593 84915,49580 84924,49568 84934,49556 84945,49546 84958,49537 84971,49529 84985,49522 84999,49517 85014,49513 85029,49511 85044,49510 85355,49510 85370,49511 85385,49513 85401,49517 85415,49522 85429,49529 85442,49537 85454,49546 85466,49556 85476,49568 85485,49580 85493,49593 85499,49607 85504,49621 85508,49636 85510,49651 85511,49667 85511,51855 85510,51870 85508,51885 85504,51900 85499,51915 85493,51928 85485,51942 85476,51954 85466,51965 85454,51976 85442,51985 85429,51993 85415,51999 85401,52004 85385,52008 85370,52010 85355,52011 85044,52011 85029,52010 85014,52008 84999,52004 84985,51999 84971,51993 84958,51985 84945,51976 84934,51965 84924,51954 84915,51942 84907,51928 84900,51915 84895,51900 84892,51885 84889,51870 84889,51855 Z"
   id="path38" />
   </g>
  </g>
  
  <g
   class="com.sun.star.drawing.PolyPolygonShape"
   id="g59">
   <g
   id="id5">
    <rect
   class="BoundingBox"
   stroke="none"
   fill="none"
   x="84950"
   y="49722"
   width="501"
   height="2079"
   id="rect52" />
    <path
   fill="rgb(0,0,0)"
   stroke="none"
   d="M 84951,51399 L 85199,51799 85449,51399 85262,51399 85262,50123 85449,50123 85199,49723 84951,50123 85137,50123 85137,51399 84951,51399 Z"
   id="path54" />
    <path
   fill="none"
   stroke="rgb(0,0,0)"
   d="M 84951,51399 L 85199,51799 85449,51399 85262,51399 85262,50123 85449,50123 85199,49723 84951,50123 85137,50123 85137,51399 84951,51399 Z"
   id="path56"
   style="stroke:none" />
   </g>
  </g>
 </g>
</svg>
