<?xml version="1.0" encoding="UTF-8"?><svg xmlns="http://www.w3.org/2000/svg" xmlns:xlink="http://www.w3.org/1999/xlink" height="200.000000000025" viewBox="0.0 0.0 401.0000305175781 201.00003051757812" width="400.000000002976">
<!--Gegenereerd door de SIMaD-toepassing (http://www.dlw.be).-->
<g style="stroke:none;fill-rule:evenodd;" transform="matrix(1,0,0,-1,0,200.000000000025)">
<path d=" M45 0 L354.999966227879 1.26760824059602E-11 A45 45 0 0 1 399.999999999987 45.000033772121 L399.999999999888 154.999899469035 A45 45 0 0 1 355.000033772121 199.999999999987 L45.000033772121 199.999999999987 A45 45 0 0 1 1.26760824059602E-11 154.999966227879 L1.26760824059602E-11 45.000033772121 A45 45 0 0 1 45.000033772121 1.26760824059602E-11 Z" style="fill:rgb(255,255,255);stroke:rgb(0,0,0);"/>
<path d=" M225.961947631185 79.9233122735713 A43.81 43.81 0 1 1 308.230970043883 102.744339398317 L308.23 102.74 L310.581577612887 104.157058644414 A46.55 46.55 0 0 0 312.110789685321 101.095419124199 L312.11 101.1 L313.603903118253 101.773808596707 A48.19 48.19 0 0 1 249.432173443015 125.546685267389 L249.43 125.55 L239.17 145.53 L241.516227466959 150.456674612871 A1.76 1.76 0 0 0 242.963575337864 151.386779380369 L242.957223628809 151.392162643049 A4.33 4.33 0 0 1 245.106120390726 152.46753286723 L245.101184397604 152.465839198447 A2.38 2.38 0 0 1 243.611689662016 156.489652652554 L243.615876488763 156.497903438701 A65.59 65.59 0 0 1 223.267447798287 156.200056718108 L223.268868408311 156.199795051902 A2.16 2.16 0 0 1 223.600446268069 152.018471865423 L223.6 152.02 L234.759935749417 151.55756131736 A1.78 1.78 0 0 0 236.542456712331 148.955865785474 L236.55 148.96 L235.1 145.91 L150.89 145.91 L153.248046826871 154.950793734093 A29.47 29.47 0 0 1 163.180382252897 156.008048511129 L163.182295539862 156.011747341348 A14.9 14.9 0 0 0 169.677704460137 156.011747341348 L169.674525903502 156.01265938729 A2.28 2.28 0 0 1 170.745905899559 160.014633298336 L170.752297662294 160.013763974209 A10.19 10.19 0 0 1 164.968644039533 160.585296804891 L164.964753459136 160.582643036242 A49.2 49.2 0 0 0 150.569228510239 159.875763278967 L150.57 159.88 L142.188068920294 127.688749281923 A48.19 48.19 0 0 1 114.599806929823 128.312665908824 L114.6 128.31 L115.033719383062 126.731109718572 A46.55 46.55 0 0 0 141.774207287618 126.098838034045 L141.77 126.1 L141.082248099244 123.442180978175 A43.81 43.81 0 1 1 171.158281490874 81.4519628672674 L171.16 81.45 L173.899081617533 81.5475952048335 A46.55 46.55 0 0 0 173.444312330814 75.3425489036575 L173.44 75.34 L175.068258380589 75.1136401283236 A48.19 48.19 0 0 1 145.802460368538 126.357219211756 L145.8 126.36 L147.57 133.14 L195.84756253201 89.1746068235843 A13.14 13.14 0 0 1 205.107499495198 68.8030604783282 L205.11 68.8 L205.11 56.92 L201.55 56.92 L201.55 53.09 L211.96 53.09 L211.96 56.92 L208.4 56.92 L208.392500504802 68.8030604783282 A13.14 13.14 0 0 1 219.749522482041 79.9237496930438 L219.76 79.92 L221.578130284493 79.9233511273948 A48.19 48.19 0 0 1 222.300599696038 73.3119236162834 L222.3 73.31 L223.9147157189 73.6021467455433 A46.55 46.55 0 0 0 223.219479471643 79.9232370565655 L223.22 79.92 Z M246.022473443274 123.795086515965 A48.19 48.19 0 0 1 221.57813021759 83.7566471917879 L221.58 83.76 L219.749522716155 83.756248718765 A13.14 13.14 0 0 1 214.063515052973 92.7565973439503 L214.07 92.76 L237.09 141.18 Z M248.025594953895 119.895681594141 A43.81 43.81 0 0 1 225.96194756428 83.7566861986355 L225.96 83.76 L223.21947943819 83.7567621316728 A46.55 46.55 0 0 0 246.772374117899 122.335060363673 L246.77 122.33 Z M201.55 110.59 L211.96 110.59 L211.96 106.76 L208.4 106.76 L208.392499367114 94.8769396650069 A13.14 13.14 0 0 0 210.602470218534 94.4025663467028 L210.61 94.41 L233.28 142.08 L149.89 142.08 L148.66 137.33 L198.427684667077 92.0085135344057 A13.14 13.14 0 0 0 205.107500405349 94.8769396363399 L205.11 94.88 L205.11 106.76 L201.55 106.76 Z M129.573657702932 87.4342601316163 A6.02 6.02 0 1 1 133.120510633547 80.1248886251564 L133.12 80.12 L166.77628693717 81.2988915562155 A39.43 39.43 0 1 0 139.975983134049 119.193841166588 L139.97 119.19 L134.538520215705 98.3128953682022 A23.31 23.31 0 0 0 129.575854106586 87.4386139658856 Z M173.76 85.38 L171.024498737081 85.2830016068457 A43.81 43.81 0 0 1 144.687070990705 122.073593792542 L144.69 122.07 L145.385415722371 124.754173413002 A46.55 46.55 0 0 0 173.765293452135 85.3787898711492 Z M132.508286525173 84.9436237085405 A6.02 6.02 0 0 0 132.986814022516 83.9534634313301 L132.99 83.96 L166.642500896485 85.1300263372385 A39.43 39.43 0 0 1 143.569060087004 117.779768918208 L143.57 117.78 L138.316331466617 97.606176832098 A26.98 26.98 0 0 0 132.513421513735 84.9483153311798 Z M304.232480570533 100.341387366356 A39.15 39.15 0 1 0 230.62693388882 79.923565627345 L230.62 79.92 L260.89571997025 79.9224243545664 A9.04 9.04 0 1 1 278.289699318645 84.7474297195958 L278.29 84.75 Z M253.566771599305 117.497713719011 A39.15 39.15 0 0 0 302.257977963958 103.626535970095 L302.26 103.63 L276.314018745351 88.0345376874195 A9.04 9.04 0 0 1 267.398910678575 90.5742785950266 L267.4 90.57 Z M250.157455230546 115.746311967651 A39.15 39.15 0 0 1 230.626933755028 83.756431642746 L230.62 83.76 L260.895720171058 83.7575765705572 A9.04 9.04 0 0 0 263.98755811523 88.8218307914217 L263.99 88.82 Z M308.6 107.44 L306.256205787422 106.029923331314 A43.81 43.81 0 0 1 251.435362888896 121.647315319838 L251.43 121.65 L250.182278538675 124.086764203551 A46.55 46.55 0 0 0 308.606734569038 107.4427734679 Z" style="fill:rgb(0,0,0);"/>
</g>
</svg>