<?xml version="1.0" encoding="UTF-8"?><svg xmlns="http://www.w3.org/2000/svg" xmlns:xlink="http://www.w3.org/1999/xlink" height="400.000000000025" viewBox="0.0 0.0 701.0 401.0000305175781" width="700.000000002977">
<!--Gegenereerd door de SIMaD-toepassing (http://www.dlw.be).-->
<g style="stroke:none;fill-rule:evenodd;" transform="matrix(1,0,0,-1,0,400.000000000025)">
<path d=" M45 0 L654.999966227879 1.26760824059602E-11 A45 45 0 0 1 699.999999999987 45.000033772121 L699.999999999888 354.999899469035 A45 45 0 0 1 655.000033772121 399.999999999987 L45.000033772121 399.999999999987 A45 45 0 0 1 1.26760824059602E-11 354.999966227879 L1.26760824059602E-11 45.000033772121 A45 45 0 0 1 45.000033772121 1.26760824059602E-11 Z" style="fill:rgb(255,255,255);stroke:rgb(0,0,0);"/>
<path d=" M220.961947631185 272.423312273571 A43.81 43.81 0 1 1 303.230970043883 295.244339398317 L303.23 295.24 L305.581577612887 296.657058644414 A46.55 46.55 0 0 0 307.110789685321 293.595419124199 L307.11 293.6 L308.603903118253 294.273808596707 A48.19 48.19 0 0 1 244.432173443015 318.046685267389 L244.43 318.05 L234.17 338.03 L236.516227466959 342.956674612871 A1.76 1.76 0 0 0 237.963575337864 343.886779380369 L237.957223628809 343.892162643049 A4.33 4.33 0 0 1 240.106120390726 344.96753286723 L240.101184426475 344.965839228313 A2.38 2.38 0 0 1 238.611689620658 348.989652656423 L238.615876488763 348.997903438701 A65.59 65.59 0 0 1 218.267447798287 348.700056718108 L218.268868479862 348.699795075678 A2.16 2.16 0 0 1 218.600446193665 344.518471877625 L218.6 344.52 L229.759935780266 344.057561321026 A1.78 1.78 0 0 0 231.542456697773 341.455865758029 L231.55 341.46 L230.1 338.41 L145.89 338.41 L148.248046826871 347.450793734092 A29.47 29.47 0 0 1 158.180382252897 348.508048511129 L158.182295539862 348.511747341348 A14.9 14.9 0 0 0 164.677704460137 348.511747341348 L164.674525903502 348.51265938729 A2.28 2.28 0 0 1 165.745905899559 352.514633298336 L165.752297662294 352.513763974209 A10.19 10.19 0 0 1 159.968644039533 353.085296804891 L159.964753459136 353.082643036242 A49.2 49.2 0 0 0 145.569228510239 352.375763278967 L145.57 352.38 L137.188068920294 320.188749281923 A48.19 48.19 0 0 1 109.599806929823 320.812665908824 L109.6 320.81 L110.033719383062 319.231109718572 A46.55 46.55 0 0 0 136.774207287618 318.598838034045 L136.77 318.6 L136.082248099244 315.942180978175 A43.81 43.81 0 1 1 166.158281490874 273.951962867267 L166.16 273.95 L168.899081617533 274.047595204833 A46.55 46.55 0 0 0 168.444312330814 267.842548903657 L168.44 267.84 L170.068258380589 267.613640128323 A48.19 48.19 0 0 1 140.802460368538 318.857219211756 L140.8 318.86 L142.57 325.64 L190.84756253201 281.674606823584 A13.14 13.14 0 0 1 200.107499495198 261.303060478328 L200.11 261.3 L200.11 249.42 L196.55 249.42 L196.55 245.59 L206.96 245.59 L206.96 249.42 L203.4 249.42 L203.392500277264 261.303060449661 A13.14 13.14 0 0 1 214.749522482041 272.423749693044 L214.76 272.42 L216.578130284493 272.423351127395 A48.19 48.19 0 0 1 217.300599696038 265.811923616283 L217.3 265.81 L218.9147157189 266.102146745543 A46.55 46.55 0 0 0 218.219479471643 272.423237056565 L218.22 272.42 Z M196.55 303.09 L206.96 303.09 L206.96 299.26 L203.4 299.26 L203.392499367114 287.376939665007 A13.14 13.14 0 0 0 205.602469999276 286.902566413941 L205.61 286.91 L228.28 334.58 L144.89 334.58 L143.66 329.83 L193.427684844551 284.508513679657 A13.14 13.14 0 0 0 200.107500405349 287.37693963634 L200.11 287.38 L200.11 299.26 L196.55 299.26 Z M124.573657702932 279.934260131616 A6.02 6.02 0 1 1 128.120510633547 272.624888625156 L128.12 272.62 L161.77628693717 273.798891556215 A39.43 39.43 0 1 0 134.975983134049 311.693841166588 L134.97 311.69 L129.538520147338 290.812894967151 A23.31 23.31 0 0 0 124.575853848428 279.93861365145 Z M168.76 277.88 L166.024498737081 277.783001606846 A43.81 43.81 0 0 1 139.687070990705 314.573593792542 L139.69 314.57 L140.385415722371 317.254173413002 A46.55 46.55 0 0 0 168.765293390372 277.878790681249 Z M127.508286796016 277.443623258395 A6.02 6.02 0 0 0 127.986814170063 276.453463037806 L127.99 276.46 L161.642500896485 277.630026337238 A39.43 39.43 0 0 1 138.569060087004 310.279768918208 L138.57 310.28 L133.316331466617 290.106176832098 A26.98 26.98 0 0 0 127.513421513735 277.44831533118 Z M241.022473443274 316.295086515965 A48.19 48.19 0 0 1 216.578130184138 276.256646351379 L216.58 276.26 L214.749522716155 276.256248718765 A13.14 13.14 0 0 1 209.063515052973 285.25659734395 L209.07 285.26 L232.09 333.68 Z M245.157455230546 308.246311967651 A39.15 39.15 0 0 1 225.626933755028 276.256431642746 L225.62 276.26 L255.895720171058 276.257576570557 A9.04 9.04 0 0 0 258.98755811523 281.321830791422 L258.99 281.32 Z M243.025594953895 312.395681594141 A43.81 43.81 0 0 1 220.96194756428 276.256686198635 L220.96 276.26 L218.21947943819 276.256762131673 A46.55 46.55 0 0 0 241.772374117899 314.835060363673 L241.77 314.83 Z M299.232480570533 292.841387366356 A39.15 39.15 0 1 0 225.62693388882 272.423565627345 L225.62 272.42 L255.89571997025 272.422424354566 A9.04 9.04 0 1 1 273.289699318645 277.247429719596 L273.29 277.25 Z M248.566771599305 309.997713719011 A39.15 39.15 0 0 0 297.257977963958 296.126535970095 L297.26 296.13 L271.314018745351 280.534537687419 A9.04 9.04 0 0 1 262.398910678575 283.074278595027 L262.4 283.07 Z M303.6 299.94 L301.256205787422 298.529923331314 A43.81 43.81 0 0 1 246.435362888896 314.147315319838 L246.43 314.15 L245.182278538675 316.586764203551 A46.55 46.55 0 0 0 303.606734569038 299.9427734679 Z" style="fill:rgb(0,0,0);"/>
<path d=" M480.33 306.02 L472.561119935145 305.842799320884 A12.18 12.18 0 0 0 464.112866806679 309.00205954362 L464.117018821546 309.01256328525 A28.36 28.36 0 0 0 455.280797629041 324.918427839628 L455.28 324.92 L446.937351594882 309.438628289145 A42.84 42.84 0 0 0 464.35048428487 255.502948957609 L464.34 255.5 L461.849714460574 256.623060236746 A40.1 40.1 0 1 0 411.093057923832 310.185304178621 L411.09 310.18 L411.096354272995 313.096948343006 A42.84 42.84 0 0 0 442.460464271536 311.751466797815 L442.46 311.74 L459.449050501094 348.625197396378 A7.36 7.36 0 0 0 462.563020686298 351.792917315398 L462.57 351.79 L463.784252324956 352.593171053248 A9 9 0 0 1 465.643349063684 354.216576544162 L465.636988560725 354.217806121252 A1.97 1.97 0 0 1 464.036690860621 357.476738680896 L464.045783539676 357.478941273667 A6.68 6.68 0 0 1 461.178965906407 356.645510031034 L461.173951530313 356.645366416743 A45.13 45.13 0 0 0 456.751007890626 354.488394184676 L456.744879196964 354.497176958472 A13.7 13.7 0 0 0 453.85055727906 353.637329963497 L453.858538208053 353.634905677101 A1.57 1.57 0 0 0 452.071279136536 354.745648349665 L452.07 354.74 L448.949609249604 363.010075146468 A61.2 61.2 0 0 1 454.624932889742 365.405414399342 L454.624820601355 365.400351974881 A14.78 14.78 0 0 0 460.535079241023 366.861027608531 L460.532604279202 366.866211919153 A6.24 6.24 0 0 0 464.600356825694 365.540433006857 L464.594763519238 365.536197089649 A42.55 42.55 0 0 1 468.191374401377 363.004875593975 L468.198159610498 363.01174714665 A10.82 10.82 0 0 1 472.205325870347 361.493225267024 L472.2 361.49 L472.206574064164 376.128992033826 A3.57 3.57 0 0 0 472.363889390527 381.848442934445 L472.35388933959 381.848442898559 A3.57 3.57 0 0 0 476.653206292689 381.707215427085 L476.654484769131 381.710529138584 A10.67 10.67 0 0 0 478.98585679773 379.084697518891 L478.98 379.08 L485.35 379.08 L485.35 377 L475.26 377 L475.27 361.810000292168 A16.74 16.74 0 0 0 474.502394342588 356.798990225028 L474.495878813293 356.802848556391 A151.04 151.04 0 0 1 473.07691113173 352.002889583155 L473.08 352 L474.193648130842 351.236336019126 A0.82 0.82 0 0 0 474.461260524993 350.188977029569 L474.46 350.19 L464.83 330.27 L467.376673570046 327.034913465562 A1.01 1.01 0 0 1 468.561001510031 326.728754694426 L468.56 326.73 L469.159626562908 327.106149496184 A1.57 1.57 0 0 0 471.088302305579 326.911590955987 L471.087746815186 326.910167892723 A4.44 4.44 0 0 0 472.105776587889 325.424121974104 L472.105955527167 325.42770161229 A1.6 1.6 0 0 0 472.092644134845 324.1614075742 L472.09083649808 324.166687147092 A1.99 1.99 0 0 1 472.157680724897 322.416879033155 L472.16 322.42 L499.74 294.47 L530.2 294.47 A5.61 5.61 0 0 1 535.723274117517 299.097379512342 L535.72 299.1 L545.01 338.04 L520.22 345.67 L520.22 347.99 L555.109999862817 348 A3.93 3.93 0 0 0 558.32412736883 341.80852144451 L558.318441945526 341.805602781902 A10 10 0 0 0 556.63977055779 339.960461678754 L556.64 339.96 L552.69662503844 336.771981011229 A3.73 3.73 0 0 1 551.527669506854 335.125561430961 L551.52 335.13 L549.2 324.24 L608.078262322593 324.258374237605 A2.5 2.5 0 0 1 611.221139085048 322.149005369101 L611.22 322.15 L615.71 322.15 L615.75 311.07 L613.6 311.07 L625.03 280.34 L622.113321785897 280.343711787567 A40.11 40.11 0 0 0 546.690048405933 254.657420321722 L546.69 254.65 L519.82 254.65 L519.82 246.13 L522.14 246.13 L522.14 243.05 L514.55 243.05 L514.55 246.13 L517.5 246.13 L517.50325563124 253.785689556231 A36.23 36.23 0 0 1 509.665102694095 252.224086422216 L509.66340346593 252.221609527592 A714.63 714.63 0 0 0 501.279743741198 249.618709418106 L501.27171184613 249.626147447047 A16.59 16.59 0 0 0 488.578675848836 250.896221170282 L488.577355427903 250.89618100164 A9.49 9.49 0 0 0 484.557416290917 255.075593824065 L484.556802265713 255.077727213211 A35.97 35.97 0 0 0 481.67550773986 278.376122283385 L481.673012087275 278.37709802462 A217.65 217.65 0 0 0 487.076542035893 298.851394766033 L487.08 298.85 Z M541.08 292.52 L548.42 321.12 L553.066872632243 321.124793380879 A22.99 22.99 0 0 1 558.393181316195 312.18049334335 L558.39308096669 312.173316664743 A3.56 3.56 0 0 1 560.963066733706 311.080001320907 L560.96 311.08 L565.34884358193 311.088333404937 A42.93 42.93 0 0 1 540.032374080894 274.2233413193 L540.04 274.22 L538.34 274.21 L538.337195108771 287.88069897206 A0.99 0.99 0 0 1 539.104547025549 288.293108256533 L539.110323490205 288.288606038426 A12.65 12.65 0 0 1 541.082931882645 292.515455473482 Z M598.79 254.65 L553.243814957492 254.656397804386 A34.31 34.31 0 1 1 581.313360761711 306.183293917094 L581.32 306.18 L584.054076467176 280.179861395931 A8.35 8.35 0 0 0 586.358154179968 264.309758578337 L586.36 264.31 L598.668717150339 265.415003595892 A2.07 2.07 0 0 0 600.484178515592 263.515135604453 L600.48 263.51 L600.967218873951 257.002440567162 A2.12 2.12 0 0 0 598.794408952064 254.651014909342 Z M578.83 279.19 L575.986112496704 305.516164011856 A34.31 34.31 0 0 1 548.668065677721 274.223173697586 L548.67 274.22 L574.877211706284 274.224598884085 A8.35 8.35 0 0 0 578.823630263277 279.197366449516 Z M428.52 280.17 L438.764166914167 303.796709642636 A34.07 34.07 0 1 1 459.091024663599 270.77386176897 L459.09 270.77 L433.186941518802 270.773073515341 A8.32 8.32 0 1 0 428.521630532372 280.170247464119 Z M433.23 274.2 L459.102288574884 274.202571170285 A34.07 34.07 0 0 1 442.811573557049 301.686104375111 L442.81 301.68 L431.121978818281 278.309286503853 A8.32 8.32 0 0 0 433.233049973996 274.208420070147 Z M484.89 268.6 L492.102238553223 266.486898333085 A17.97 17.97 0 0 1 494.983014234497 257.372198599541 L494.985271552819 257.374993980552 A12.58 12.58 0 0 1 499.317413216194 253.286756486842 L499.323262913745 253.281102735825 A6.49 6.49 0 0 0 493.312910645336 253.460830164019 L493.307147412904 253.467800911213 A21.23 21.23 0 0 0 486.377059396477 259.706914452884 L486.376601548832 259.700871964485 A10.36 10.36 0 0 0 484.885660539082 268.595118360074 Z M538.42 270.79 L539.984487086472 270.794808819631 A42.93 42.93 0 0 1 540.469266907753 265.381769822189 L540.48 265.38 L538.42 265.94 Z M548.61 270.79 L574.624907249067 270.794051988908 A8.35 8.35 0 0 1 580.865108927267 263.811745970759 L580.87 263.81 L550.347966343496 261.068357835372 A34.31 34.31 0 0 0 548.60811643132 270.795181040673 Z M530.56 258.77 L519.83 257.61 L519.83 260.73 L530.36 264.41 Z M517.474844230493 257.26677050128 A40.78 40.78 0 0 1 506.665797568693 254.689621709756 L506.67 254.69 L517.46 259.45 Z M616.279519541078 298.906158526849 A42.93 42.93 0 0 1 600.450262014982 311.088734068439 L600.45 311.08 L611.64 311.08 Z" style="fill:rgb(0,0,0);"/>
<path d=" M385.63 47.5 L385.63 65 L275 65 L275 75 L385.63 75 L385.63 92.5 L425 70 Z" style="fill:rgb(0,0,0);"/>
<path d=" M275 162.5 L314.38 185 L314.38 167.5 L425 167.5 L425 157.5 L314.38 157.5 L314.38 140 Z" style="fill:rgb(0,0,0);"/>
</g>
</svg>