<?xml version="1.0" encoding="UTF-8"?><svg xmlns="http://www.w3.org/2000/svg" xmlns:xlink="http://www.w3.org/1999/xlink" height="400.000000000025" viewBox="0.0 0.0 701.0 401.0000305175781" width="700.000000002977">
<!--Gegenereerd door de SIMaD-toepassing (http://www.dlw.be).-->
<g style="stroke:none;fill-rule:evenodd;" transform="matrix(1,0,0,-1,0,400.000000000025)">
<path d=" M45 0 L654.999966227879 1.26760824059602E-11 A45 45 0 0 1 699.999999999987 45.000033772121 L699.999999999888 354.999899469035 A45 45 0 0 1 655.000033772121 399.999999999987 L45.000033772121 399.999999999987 A45 45 0 0 1 1.26760824059602E-11 354.999966227879 L1.26760824059602E-11 45.000033772121 A45 45 0 0 1 45.000033772121 1.26760824059602E-11 Z" style="fill:rgb(255,255,255);stroke:rgb(0,0,0);"/>
<path d=" M521.02 40 L529.27 40 L529.27 59.5 L539.88 59.5 A12 12 0 0 1 551.879999999999 71.4999951828913 L551.88 73 A12 12 0 0 1 539.880006702064 84.9999999999981 L521.02 85 L521.02 40 Z M529.27 67 L539.13 67 A4.5 4.5 0 0 1 543.63 71.4999981935842 L543.63 73 A4.5 4.5 0 0 1 539.130002513274 77.4999999999993 L529.27 77.5 L529.27 67 Z" style="fill:rgb(0,0,0);"/>
<path d=" M501.63 29.0700000000002 L507.09 29.0700000000002 L513.52 40 L508.05 40 L501.63 29.0700000000002 Z" style="fill:rgb(0,0,0);"/>
<path d=" M458.13 40 L466.72 40 L468.6 46.4299999999998 L483.65 46.4299999999998 L485.53 40 L494.13 40 L480.95 85 L471.3 85 L458.13 40 Z M470.8 53.9299999999998 L481.45 53.9299999999998 L476.13 72.1100000000001 L470.8 53.9299999999998 Z" style="fill:rgb(0,0,0);"/>
<path d=" M494.84 314.1 L503.09 314.1 L503.09 333.6 L507.43 333.6 L518.73 314.1 L528.26 314.1 L516.735468088163 333.992884763044 A12 12 0 0 1 525.689999999996 345.600009424778 L525.689999999996 347.100009424778 A12 12 0 0 1 513.690013613568 359.099999999992 L494.84 359.1 Z M503.09 341.1 L512.940004790929 341.100000000002 A4.5 4.5 0 0 1 517.439999999998 345.599996151549 L517.439999999998 347.100003848451 A4.5 4.5 0 0 1 512.940004790929 351.599999999997 L503.09 351.6 Z" style="fill:rgb(0,0,0);"/>
<path d=" M536.36 314.1 L555.220013613568 314.100000000008 A12 12 0 0 1 567.219999999996 326.099990575222 L567.219999999996 347.100009424778 A12 12 0 0 1 555.220013613568 359.099999999992 L536.36 359.1 Z M544.61 321.6 L554.470005340707 321.600000000003 A4.5 4.5 0 0 1 558.969999999999 326.099996701328 L558.969999999999 347.100003298672 A4.5 4.5 0 0 1 554.470005340707 351.599999999997 L544.61 351.6 Z" style="fill:rgb(0,0,0);"/>
<path d=" M417.44 314.1 L436.290013613568 314.100000000008 A12 12 0 0 1 448.289999999996 326.099990575222 L448.289999999996 347.100009424778 A12 12 0 0 1 436.290013613568 359.099999999992 L417.44 359.1 Z M425.69 321.6 L435.540004790929 321.600000000002 A4.5 4.5 0 0 1 440.039999999998 326.099996151549 L440.039999999998 347.100003848451 A4.5 4.5 0 0 1 435.540004790929 351.599999999997 L425.69 351.6 Z" style="fill:rgb(0,0,0);"/>
<path d=" M375.33 314.1 L382.83 314.1 L382.83 343.99 L396.54 314.1 L406.19 314.1 L406.19 359.1 L398.69 359.1 L398.69 329.21 L384.97 359.1 L375.33 359.1 Z" style="fill:rgb(0,0,0);"/>
<path d=" M458.19 314.1 L485.84 314.1 L485.84 321.6 L466.44 321.6 L466.44 333.6 L479.41 333.6 L479.41 341.1 L466.44 341.1 L466.44 351.6 L485.84 351.6 L485.84 359.1 L458.19 359.1 Z" style="fill:rgb(0,0,0);"/>
<path d=" M480.33 198.52 L472.561119935145 198.352799320884 A12.18 12.18 0 0 0 464.112866806679 201.51205954362 L464.117018821546 201.51256328525 A28.36 28.36 0 0 0 455.280797629041 217.418427839628 L455.28 217.42 L446.937351594882 201.938628289145 A42.84 42.84 0 0 0 464.35048428487 148.002948957609 L464.34 148 L461.849714460574 149.123060236746 A40.1 40.1 0 1 0 411.093057923832 202.685304178621 L411.09 202.68 L411.096354272995 205.596948343006 A42.84 42.84 0 0 0 442.460464271536 204.251466797815 L442.46 204.24 L459.449050501094 241.125197396378 A7.36 7.36 0 0 0 462.563020686298 244.292917315398 L462.57 244.29 L463.784252324956 245.093171053248 A9 9 0 0 1 465.643349063684 246.716576544162 L465.636988560725 246.717806121253 A1.97 1.97 0 0 1 464.036690860621 249.976738680896 L464.045783539676 249.978941273667 A6.68 6.68 0 0 1 461.178965906407 249.145510031034 L461.173951530313 249.145366416744 A45.13 45.13 0 0 0 456.751007890626 246.988394184676 L456.744879196964 246.997176958472 A13.7 13.7 0 0 0 453.85055727906 246.137329963497 L453.858538208053 246.134905677101 A1.57 1.57 0 0 0 452.071279136536 247.245648349665 L452.07 247.24 L448.949609249604 255.510075146468 A61.2 61.2 0 0 1 454.624932889742 257.905414399342 L454.624820601355 257.900351974881 A14.78 14.78 0 0 0 460.535079241023 259.361027608531 L460.532604279202 259.366211919153 A6.24 6.24 0 0 0 464.600356825694 258.040433006857 L464.594763519238 258.036197089649 A42.55 42.55 0 0 1 468.191374401377 255.504875593975 L468.198159610498 255.51174714665 A10.82 10.82 0 0 1 472.205325870347 253.993225267024 L472.2 253.99 L472.206574064164 268.628992033826 A3.57 3.57 0 0 0 472.363889390527 274.348442934445 L472.35388933959 274.348442898559 A3.57 3.57 0 0 0 476.653206292689 274.207215427085 L476.654484769131 274.210529138584 A10.67 10.67 0 0 0 478.98585679773 271.584697518891 L478.98 271.58 L485.35 271.58 L485.35 269.5 L475.26 269.5 L475.27 254.310000292168 A16.74 16.74 0 0 0 474.502394342588 249.298990225028 L474.495878813293 249.302848556391 A151.04 151.04 0 0 1 473.07691113173 244.502889583155 L473.08 244.5 L474.193648130842 243.736336019126 A0.82 0.82 0 0 0 474.461260524993 242.688977029569 L474.46 242.69 L464.83 222.77 L467.376673570046 219.534913465562 A1.01 1.01 0 0 1 468.561001510031 219.228754694426 L468.56 219.23 L469.159626562908 219.606149496184 A1.57 1.57 0 0 0 471.088302305579 219.411590955987 L471.087746815186 219.410167892723 A4.44 4.44 0 0 0 472.105776587889 217.924121974104 L472.105955527167 217.92770161229 A1.6 1.6 0 0 0 472.092644134845 216.6614075742 L472.09083649808 216.666687147093 A1.99 1.99 0 0 1 472.157680724897 214.916879033156 L472.16 214.92 L499.74 186.97 L530.2 186.97 A5.61 5.61 0 0 1 535.723274117517 191.597379512342 L535.72 191.6 L545.01 230.54 L520.22 238.17 L520.22 240.49 L555.109999862817 240.5 A3.93 3.93 0 0 0 558.32412736883 234.308521444511 L558.318441945526 234.305602781902 A10 10 0 0 0 556.63977055779 232.460461678754 L556.64 232.46 L552.69662503844 229.271981011229 A3.73 3.73 0 0 1 551.527669506854 227.625561430961 L551.52 227.63 L549.2 216.74 L608.078262327858 216.758374194291 A2.5 2.5 0 0 1 611.221139169208 214.649005392179 L611.22 214.65 L615.71 214.65 L615.75 203.57 L613.6 203.57 L625.03 172.84 L622.113321785897 172.843711787566 A40.11 40.11 0 0 0 546.690048405933 147.157420321721 L546.69 147.15 L519.82 147.15 L519.82 138.63 L522.14 138.63 L522.14 135.55 L514.55 135.55 L514.55 138.63 L517.5 138.63 L517.50325563124 146.285689556231 A36.23 36.23 0 0 1 509.665102694095 144.724086422216 L509.66340346593 144.721609527592 A714.63 714.63 0 0 0 501.279743741198 142.118709418106 L501.27171184613 142.126147447047 A16.59 16.59 0 0 0 488.578675848836 143.396221170282 L488.577355427903 143.39618100164 A9.49 9.49 0 0 0 484.557416290917 147.575593824065 L484.556802265713 147.577727213211 A35.97 35.97 0 0 0 481.67550773986 170.876122283384 L481.673012087275 170.877098024619 A217.65 217.65 0 0 0 487.076542035893 191.351394766033 L487.08 191.35 Z M530.56 151.27 L519.83 150.11 L519.83 153.23 L530.36 156.91 Z M484.89 161.1 L492.102238553223 158.986898333085 A17.97 17.97 0 0 1 494.983014234497 149.872198599541 L494.985271552819 149.874993980552 A12.58 12.58 0 0 1 499.317413216194 145.786756486842 L499.323262913745 145.781102735825 A6.49 6.49 0 0 0 493.312910645336 145.960830164019 L493.307147412904 145.967800911213 A21.23 21.23 0 0 0 486.377059610683 152.206914150542 L486.376601548832 152.200871964485 A10.36 10.36 0 0 0 484.885660539082 161.095118360074 Z M517.474844230493 149.766770501279 A40.78 40.78 0 0 1 506.665797568693 147.189621709756 L506.67 147.19 L517.46 151.95 Z M578.83 171.69 L575.986112496704 198.016164011856 A34.31 34.31 0 0 1 548.668065677721 166.723173697585 L548.67 166.72 L574.877211706284 166.724598884085 A8.35 8.35 0 0 0 578.823630263277 171.697366449516 Z M616.279519541078 191.406158526849 A42.93 42.93 0 0 1 600.450262014982 203.588734068439 L600.45 203.58 L611.64 203.58 Z M548.61 163.29 L574.624907249067 163.294051988908 A8.35 8.35 0 0 1 580.865108927267 156.311745970759 L580.87 156.31 L550.347966343496 153.568357835372 A34.31 34.31 0 0 0 548.60811643132 163.295181040673 Z M538.42 163.29 L539.984487086472 163.294808819631 A42.93 42.93 0 0 1 540.469266907753 157.881769822188 L540.48 157.88 L538.42 158.44 Z M541.08 185.02 L548.42 213.62 L553.066872632243 213.624793380879 A22.99 22.99 0 0 1 558.393181316195 204.68049334335 L558.393081052794 204.673316575141 A3.56 3.56 0 0 1 560.963066857974 203.580001321014 L560.96 203.58 L565.34884358193 203.588333404937 A42.93 42.93 0 0 1 540.032374080894 166.7233413193 L540.04 166.72 L538.34 166.71 L538.337195108771 180.38069897206 A0.99 0.99 0 0 1 539.104547025549 180.793108256533 L539.110323490205 180.788606038425 A12.65 12.65 0 0 1 541.082931882645 185.015455473482 Z M598.79 147.15 L553.243814957492 147.156397804386 A34.31 34.31 0 1 1 581.313360761711 198.683293917094 L581.32 198.68 L584.054076467176 172.679861395931 A8.35 8.35 0 0 0 586.358154179968 156.809758578336 L586.36 156.81 L598.668717150339 157.915003595892 A2.07 2.07 0 0 0 600.484178515592 156.015135604453 L600.48 156.01 L600.967218873951 149.502440567162 A2.12 2.12 0 0 0 598.794408952064 147.151014909342 Z M433.23 166.7 L459.102288574884 166.702571170285 A34.07 34.07 0 0 1 442.811573557049 194.186104375111 L442.81 194.18 L431.121978818281 170.809286503853 A8.32 8.32 0 0 0 433.233049973996 166.708420070147 Z M428.52 172.67 L438.764166914167 196.296709642636 A34.07 34.07 0 1 1 459.091024663599 163.27386176897 L459.09 163.27 L433.186941518802 163.273073515341 A8.32 8.32 0 1 0 428.521630532372 172.670247464119 Z" style="fill:rgb(0,0,0);"/>
<path d=" M295.16 314.1 L326.02 314.1 L326.02 321.6 L304.57 321.6 L325.12 351.6 L325.12 359.1 L296.06 359.1 L296.06 351.6 L315.71 351.6 L295.16 321.6 Z" style="fill:rgb(0,0,0);"/>
<path d=" M260.77 314.1 L288.41 314.1 L288.41 321.6 L269.02 321.6 L269.02 333.6 L281.99 333.6 L281.99 341.1 L269.02 341.1 L269.02 351.6 L288.41 351.6 L288.41 359.1 L260.77 359.1 Z" style="fill:rgb(0,0,0);"/>
<path d=" M242.62 327.88 L242.62 333.6 L235.44 333.6 L235.44 341.1 L250.87 341.1 L250.87 328.629997037653 A15.43 15.43 0 1 0 220.01 328.630002962347 L220.01 344.570001077217 A15.43 15.43 0 0 0 250.334712557242 348.598949967069 L250.34 348.6 L241.827415338519 348.599226325408 A7.18 7.18 0 0 1 228.26 345.319997994966 L228.26 327.880001378461 A7.18 7.18 0 0 1 242.62 327.879998621539 Z" style="fill:rgb(0,0,0);"/>
<path d=" M167.41 314.1 L175.66 314.1 L175.66 359.1 L167.41 359.1 Z" style="fill:rgb(0,0,0);"/>
<path d=" M126.2 359.1 L126.2 328.630002962347 A15.43 15.43 0 0 1 157.06 328.629997037653 L157.06 359.1 L148.81 359.1 L148.81 327.87999837091 A7.18 7.18 0 1 0 134.45 327.88000162909 L134.45 359.1 Z" style="fill:rgb(0,0,0);"/>
<path d=" M220.961947631185 164.923312273571 A43.81 43.81 0 1 1 303.230970043883 187.744339398318 L303.23 187.74 L305.581577612887 189.157058644414 A46.55 46.55 0 0 0 307.110789685321 186.0954191242 L307.11 186.1 L308.603903118253 186.773808596707 A48.19 48.19 0 0 1 244.432173443015 210.546685267389 L244.43 210.55 L234.17 230.53 L236.516227466959 235.456674612871 A1.76 1.76 0 0 0 237.963575337864 236.386779380369 L237.957223628809 236.392162643049 A4.33 4.33 0 0 1 240.106120390726 237.46753286723 L240.101184426475 237.465839228313 A2.38 2.38 0 0 1 238.611689620658 241.489652656423 L238.615876488763 241.497903438701 A65.59 65.59 0 0 1 218.267447798287 241.200056718108 L218.268868479862 241.199795075678 A2.16 2.16 0 0 1 218.600446193665 237.018471877625 L218.6 237.02 L229.759935780266 236.557561321026 A1.78 1.78 0 0 0 231.542456697773 233.955865758029 L231.55 233.96 L230.1 230.91 L145.89 230.91 L148.248046826871 239.950793734093 A29.47 29.47 0 0 1 158.180382252897 241.008048511129 L158.182295539862 241.011747341348 A14.9 14.9 0 0 0 164.677704460137 241.011747341348 L164.674525903502 241.01265938729 A2.28 2.28 0 0 1 165.745905899559 245.014633298336 L165.752297662294 245.013763974209 A10.19 10.19 0 0 1 159.968644039533 245.585296804891 L159.964753459136 245.582643036242 A49.2 49.2 0 0 0 145.569228510239 244.875763278968 L145.57 244.88 L137.188068920294 212.688749281923 A48.19 48.19 0 0 1 109.599806929823 213.312665908825 L109.6 213.31 L110.033719383062 211.731109718572 A46.55 46.55 0 0 0 136.774207287618 211.098838034045 L136.77 211.1 L136.082248099244 208.442180978175 A43.81 43.81 0 1 1 166.158281490874 166.451962867268 L166.16 166.45 L168.899081617533 166.547595204834 A46.55 46.55 0 0 0 168.444312330814 160.342548903658 L168.44 160.34 L170.068258380589 160.113640128324 A48.19 48.19 0 0 1 140.802460368538 211.357219211756 L140.8 211.36 L142.57 218.14 L190.84756253201 174.174606823584 A13.14 13.14 0 0 1 200.107499495198 153.803060478328 L200.11 153.8 L200.11 141.92 L196.55 141.92 L196.55 138.09 L206.96 138.09 L206.96 141.92 L203.4 141.92 L203.392500277264 153.803060449661 A13.14 13.14 0 0 1 214.749522482041 164.923749693044 L214.76 164.92 L216.578130284493 164.923351127395 A48.19 48.19 0 0 1 217.300599696038 158.311923616284 L217.3 158.31 L218.9147157189 158.602146745543 A46.55 46.55 0 0 0 218.219479471643 164.923237056566 L218.22 164.92 Z M303.6 192.44 L301.256205787422 191.029923331315 A43.81 43.81 0 0 1 246.435362888896 206.647315319838 L246.43 206.65 L245.182278538675 209.086764203551 A46.55 46.55 0 0 0 303.606734569038 192.4427734679 Z M248.566771599305 202.497713719011 A39.15 39.15 0 0 0 297.257977963958 188.626535970095 L297.26 188.63 L271.314018745351 173.03453768742 A9.04 9.04 0 0 1 262.398910678575 175.574278595027 L262.4 175.57 Z M299.232480570533 185.341387366357 A39.15 39.15 0 1 0 225.62693388882 164.923565627345 L225.62 164.92 L255.89571997025 164.922424354567 A9.04 9.04 0 1 1 273.289699318645 169.747429719596 L273.29 169.75 Z M241.022473443274 208.795086515966 A48.19 48.19 0 0 1 216.578130184138 168.756646351379 L216.58 168.76 L214.749522716155 168.756248718765 A13.14 13.14 0 0 1 209.063515052973 177.75659734395 L209.07 177.76 L232.09 226.18 Z M243.025594953895 204.895681594141 A43.81 43.81 0 0 1 220.96194756428 168.756686198636 L220.96 168.76 L218.21947943819 168.756762131673 A46.55 46.55 0 0 0 241.772374117899 207.335060363673 L241.77 207.33 Z M245.157455230546 200.746311967652 A39.15 39.15 0 0 1 225.626933755028 168.756431642746 L225.62 168.76 L255.895720171058 168.757576570557 A9.04 9.04 0 0 0 258.98755811523 173.821830791422 L258.99 173.82 Z M124.573657702932 172.434260131616 A6.02 6.02 0 1 1 128.120510633547 165.124888625157 L128.12 165.12 L161.77628693717 166.298891556216 A39.43 39.43 0 1 0 134.975983134049 204.193841166588 L134.97 204.19 L129.538520147338 183.312894967151 A23.31 23.31 0 0 0 124.575853848428 172.43861365145 Z M168.76 170.38 L166.024498737081 170.283001606846 A43.81 43.81 0 0 1 139.687070990705 207.073593792542 L139.69 207.07 L140.385415722371 209.754173413002 A46.55 46.55 0 0 0 168.765293390372 170.378790681249 Z M127.508286796016 169.943623258395 A6.02 6.02 0 0 0 127.986814170063 168.953463037806 L127.99 168.96 L161.642500896485 170.130026337239 A39.43 39.43 0 0 1 138.569060087004 202.779768918208 L138.57 202.78 L133.316331466617 182.606176832098 A26.98 26.98 0 0 0 127.513421513735 169.94831533118 Z M196.55 195.59 L206.96 195.59 L206.96 191.76 L203.4 191.76 L203.392499367114 179.876939665007 A13.14 13.14 0 0 0 205.602469999276 179.402566413941 L205.61 179.41 L228.28 227.08 L144.89 227.08 L143.66 222.33 L193.427684667077 177.008513534406 A13.14 13.14 0 0 0 200.107500177811 179.876939607673 L200.11 179.88 L200.11 191.76 L196.55 191.76 Z" style="fill:rgb(0,0,0);"/>
<path d=" M195.06 314.1 L203.31 314.1 L203.31 351.6 L214.61 351.6 L214.61 359.1 L183.76 359.1 L183.76 351.6 L195.06 351.6 Z" style="fill:rgb(0,0,0);"/>
<path d=" M334.57 344.57 L334.57 328.630002962347 A15.43 15.43 0 0 1 365.43 328.629997037653 L365.43 344.57 A15.43 15.43 0 0 1 334.57 344.57 Z M342.82 345.32 L342.82 327.880001378461 A7.18 7.18 0 0 1 357.18 327.879998621539 L357.18 345.32 A7.18 7.18 0 0 1 342.82 345.32 Z" style="fill:rgb(0,0,0);"/>
</g>
</svg>