<?xml version="1.0" encoding="UTF-8"?><svg xmlns="http://www.w3.org/2000/svg" xmlns:xlink="http://www.w3.org/1999/xlink" height="300.000000000025" viewBox="0.0 0.0 401.0000305175781 301.0" width="400.000000002976">
<!--Gegenereerd door de SIMaD-toepassing (http://www.dlw.be).-->
<g style="stroke:none;fill-rule:evenodd;" transform="matrix(1,0,0,-1,0,300.000000000025)">
<path d=" M45 0 L354.999966227879 1.26760824059602E-11 A45 45 0 0 1 399.999999999987 45.000033772121 L399.999999999888 254.999899469035 A45 45 0 0 1 355.000033772121 299.999999999987 L45.000033772121 299.999999999987 A45 45 0 0 1 1.26760824059602E-11 254.999966227879 L1.26760824059602E-11 45.000033772121 A45 45 0 0 1 45.000033772121 1.26760824059602E-11 Z" style="fill:rgb(255,255,255);stroke:rgb(0,0,0);"/>
<path d=" M184.57 75 L192.82 75 L192.82 94.5 L203.43 94.5 A12 12 0 0 1 215.429999999999 106.499995182891 L215.43 108 A12 12 0 0 1 203.430006702064 119.999999999998 L184.57 120 L184.57 75 Z M192.82 102 L202.68 102 A4.5 4.5 0 0 1 207.18 106.499998193584 L207.18 108 A4.5 4.5 0 0 1 202.680002513274 112.499999999999 L192.82 112.5 L192.82 102 Z" style="fill:rgb(0,0,0);"/>
<path d=" M342.1 15 L350.35 15 L350.35 52.5 L361.66 52.5 L361.66 60 L330.8 60 L330.8 52.5 L342.1 52.5 Z" style="fill:rgb(0,0,0);"/>
<path d=" M273.69 28.7800000000002 L273.69 29.5300000000002 L281.94 29.5299967683485 A15.43 15.43 0 0 0 251.08 29.5300032316518 L251.09 29.5300000000002 L251.08 45.4700008079127 A15.43 15.43 0 0 0 281.849188540499 47.1415845533621 L281.85 47.1399999999999 L273.630606271376 47.1416107247845 A7.18 7.18 0 0 1 259.33 46.2199983709095 L259.34 46.2199999999998 L259.33 28.7800008772027 A7.18 7.18 0 1 1 273.69 28.7799991227977 Z" style="fill:rgb(0,0,0);"/>
<path d=" M160.61 15 L168.86 15 L168.86 34.5 L179.470013613568 34.5000000000077 A12 12 0 0 1 191.469999999996 46.499990575222 L191.469999999996 48.000009424778 A12 12 0 0 1 179.470013613568 59.9999999999923 L160.61 60 Z M168.86 42 L178.720004790929 42.0000000000026 A4.5 4.5 0 0 1 183.219999999998 46.499996151549 L183.219999999998 48.000003848451 A4.5 4.5 0 0 1 178.720004790929 52.4999999999974 L168.86 52.5 Z" style="fill:rgb(0,0,0);"/>
<path d=" M199.57 15 L225.29 15 L225.29 22.5 L207.82 22.5 L207.82 60 L199.57 60 Z" style="fill:rgb(0,0,0);"/>
<path d=" M232.94 15 L241.19 15 L241.19 60 L232.94 60 Z" style="fill:rgb(0,0,0);"/>
<path d=" M291.84 15 L300.09 15 L300.09 34.5 L314.45 34.5 L314.45 15 L322.7 15 L322.7 60 L314.45 60 L314.45 42 L300.09 42 L300.09 60 L291.84 60 Z" style="fill:rgb(0,0,0);"/>
<path d=" M119.09 15 L127.34 15 L127.34 34.5 L131.68 34.5 L142.98 15 L152.51 15 L140.985468088163 34.8928847630437 A12 12 0 0 1 149.939999999996 46.500009424778 L149.939999999996 48.000009424778 A12 12 0 0 1 137.940013613568 59.9999999999923 L119.09 60 Z M127.34 42 L137.190004790929 42.0000000000026 A4.5 4.5 0 0 1 141.689999999998 46.499996151549 L141.689999999998 48.000003848451 A4.5 4.5 0 0 1 137.190004790929 52.4999999999974 L127.34 52.5 Z" style="fill:rgb(0,0,0);"/>
<path d=" M82.4400000000001 15 L110.09 15 L110.09 22.5 L90.6900000000001 22.5 L90.6900000000001 34.5 L103.66 34.5 L103.66 42 L90.6900000000001 42 L90.6900000000001 52.5 L110.09 52.5 L110.09 60 L82.4400000000001 60 Z" style="fill:rgb(0,0,0);"/>
<path d=" M51.52 15 L61.1600000000001 15 L74.3399999999999 60 L65.75 60 L56.3399999999999 27.8899999999999 L46.9400000000001 60 L38.3399999999999 60 Z" style="fill:rgb(0,0,0);"/>
<path d=" M175.33 208.52 L167.561119935145 208.342799320884 A12.18 12.18 0 0 0 159.112866806679 211.50205954362 L159.117018821546 211.51256328525 A28.36 28.36 0 0 0 150.280797629041 227.418427839628 L150.28 227.42 L141.937351594882 211.938628289145 A42.84 42.84 0 0 0 159.350484284869 158.002948957609 L159.34 158 L156.849714460574 159.123060236746 A40.1 40.1 0 1 0 106.093057923832 212.685304178621 L106.09 212.68 L106.096354272995 215.596948343006 A42.84 42.84 0 0 0 137.460464271536 214.251466797815 L137.46 214.24 L154.449050501094 251.125197396378 A7.36 7.36 0 0 0 157.563020686297 254.292917315398 L157.57 254.29 L158.784252324956 255.093171053248 A9 9 0 0 1 160.643349063684 256.716576544162 L160.636988560725 256.717806121253 A1.97 1.97 0 0 1 159.036690860621 259.976738680896 L159.045783539676 259.978941273667 A6.68 6.68 0 0 1 156.178965906407 259.145510031034 L156.173951530313 259.145366416743 A45.13 45.13 0 0 0 151.751007890626 256.988394184675 L151.744879196964 256.997176958472 A13.7 13.7 0 0 0 148.85055727906 256.137329963497 L148.858538208053 256.134905677101 A1.57 1.57 0 0 0 147.071279136536 257.245648349666 L147.07 257.24 L143.949609249604 265.510075146469 A61.2 61.2 0 0 1 149.624932889742 267.905414399342 L149.624820601355 267.900351974881 A14.78 14.78 0 0 0 155.535079241022 269.361027608531 L155.532604279201 269.366211919153 A6.24 6.24 0 0 0 159.600356825694 268.040433006857 L159.594763519238 268.036197089649 A42.55 42.55 0 0 1 163.191374401377 265.504875593976 L163.198159610498 265.51174714665 A10.82 10.82 0 0 1 167.205325870347 263.993225267024 L167.2 263.99 L167.206574064164 278.628992033826 A3.57 3.57 0 0 0 167.363889390527 284.348442934445 L167.35388933959 284.348442898559 A3.57 3.57 0 0 0 171.653206292689 284.207215427086 L171.654484769132 284.210529138584 A10.67 10.67 0 0 0 173.985856797731 281.584697518891 L173.98 281.58 L180.35 281.58 L180.35 279.5 L170.26 279.5 L170.27 264.310000292169 A16.74 16.74 0 0 0 169.502394342588 259.298990225028 L169.495878813293 259.302848556391 A151.04 151.04 0 0 1 168.07691113173 254.502889583155 L168.08 254.5 L169.193648130842 253.736336019126 A0.82 0.82 0 0 0 169.461260524993 252.68897702957 L169.46 252.69 L159.83 232.77 L162.376673570046 229.534913465562 A1.01 1.01 0 0 1 163.561001510031 229.228754694426 L163.56 229.23 L164.159626562908 229.606149496184 A1.57 1.57 0 0 0 166.088302305579 229.411590955987 L166.087746815185 229.410167892723 A4.44 4.44 0 0 0 167.105776587888 227.924121974104 L167.105955581072 227.927701483489 A1.6 1.6 0 0 0 167.092644089564 226.661407472089 L167.090836455843 226.666687051841 A1.99 1.99 0 0 1 167.157680774279 224.916878941404 L167.16 224.92 L194.74 196.97 L225.2 196.97 A5.61 5.61 0 0 1 230.723274117517 201.597379512342 L230.72 201.6 L240.01 240.54 L215.22 248.17 L215.22 250.49 L250.109999862817 250.5 A3.93 3.93 0 0 0 253.32412736883 244.30852144451 L253.318441945526 244.305602781902 A10 10 0 0 0 251.639770557791 242.460461678755 L251.64 242.46 L247.69662503844 239.271981011229 A3.73 3.73 0 0 1 246.527669506854 237.625561430961 L246.52 237.63 L244.2 226.74 L303.078262322593 226.758374237606 A2.5 2.5 0 0 1 306.221139085048 224.649005369102 L306.22 224.65 L310.71 224.65 L310.75 213.57 L308.6 213.57 L320.03 182.84 L317.113321785897 182.843711787566 A40.11 40.11 0 0 0 241.690048405933 157.157420321721 L241.69 157.15 L214.82 157.15 L214.82 148.63 L217.14 148.63 L217.14 145.55 L209.55 145.55 L209.55 148.63 L212.5 148.63 L212.50325563124 156.285689556231 A36.23 36.23 0 0 1 204.665102694095 154.724086422216 L204.66340346593 154.721609527592 A714.63 714.63 0 0 0 196.279743741198 152.118709418105 L196.27171184613 152.126147447047 A16.59 16.59 0 0 0 183.578675848837 153.396221170282 L183.577355427903 153.39618100164 A9.49 9.49 0 0 0 179.557416290917 157.575593824065 L179.556802265713 157.577727213211 A35.97 35.97 0 0 0 176.675507739859 180.876122283384 L176.673012087275 180.877098024619 A217.65 217.65 0 0 0 182.076542035893 201.351394766033 L182.08 201.35 Z M236.08 195.02 L243.42 223.62 L248.066872632243 223.624793380879 A22.99 22.99 0 0 1 253.393181316195 214.680493343349 L253.39308096669 214.673316664744 A3.56 3.56 0 0 1 255.963066733706 213.580001320907 L255.96 213.58 L260.34884358193 213.588333404937 A42.93 42.93 0 0 1 235.032374080894 176.7233413193 L235.04 176.72 L233.34 176.71 L233.337195108771 190.38069897206 A0.99 0.99 0 0 1 234.104547025549 190.793108256533 L234.110323490205 190.788606038425 A12.65 12.65 0 0 1 236.082931882645 195.015455473482 Z M293.79 157.15 L248.243814957492 157.156397804386 A34.31 34.31 0 1 1 276.313360761711 208.683293917094 L276.32 208.68 L279.054076467176 182.679861395931 A8.35 8.35 0 0 0 281.358154179968 166.809758578336 L281.36 166.81 L293.668717150339 167.915003595892 A2.07 2.07 0 0 0 295.484178515592 166.015135604453 L295.48 166.01 L295.967218873951 159.502440567162 A2.12 2.12 0 0 0 293.794408952063 157.151014909342 Z M243.61 173.29 L269.624907249067 173.294051988908 A8.35 8.35 0 0 1 275.865108927267 166.311745970759 L275.87 166.31 L245.347966343496 163.568357835372 A34.31 34.31 0 0 0 243.60811643132 173.295181040673 Z M233.42 173.29 L234.984487086472 173.294808819631 A42.93 42.93 0 0 1 235.469266907753 167.881769822188 L235.48 167.88 L233.42 168.44 Z M179.89 171.1 L187.102238553223 168.986898333085 A17.97 17.97 0 0 1 189.983014234497 159.872198599541 L189.985271552819 159.874993980552 A12.58 12.58 0 0 1 194.317413216194 155.786756486842 L194.323262913746 155.781102735825 A6.49 6.49 0 0 0 188.312910645336 155.960830164019 L188.307147412904 155.967800911213 A21.23 21.23 0 0 0 181.377059396477 162.206914452884 L181.376601548832 162.200871964485 A10.36 10.36 0 0 0 179.885660539082 171.095118360074 Z M212.474844230493 159.766770501279 A40.78 40.78 0 0 1 201.665797568693 157.189621709756 L201.67 157.19 L212.46 161.95 Z M311.279519541078 201.406158526849 A42.93 42.93 0 0 1 295.450262014982 213.588734068439 L295.45 213.58 L306.64 213.58 Z M225.56 161.27 L214.83 160.11 L214.83 163.23 L225.36 166.91 Z M273.83 181.69 L270.986112496704 208.016164011856 A34.31 34.31 0 0 1 243.668065677721 176.723173697585 L243.67 176.73 L269.877211706284 176.724598884085 A8.35 8.35 0 0 0 273.823630263277 181.697366449516 Z M128.23 176.7 L154.102288574884 176.702571170285 A34.07 34.07 0 0 1 137.811573557048 204.186104375111 L137.81 204.18 L126.12197881828 180.809286503853 A8.32 8.32 0 0 0 128.233049973995 176.708420070147 Z M123.52 182.67 L133.764166914166 206.296709642636 A34.07 34.07 0 1 1 154.091024663598 173.27386176897 L154.09 173.27 L128.186941518802 173.273073515341 A8.32 8.32 0 1 0 123.521630532371 182.670247464119 Z" style="fill:rgb(0,0,0);"/>
</g>
</svg>