<?xml version="1.0" encoding="UTF-8"?><svg xmlns="http://www.w3.org/2000/svg" xmlns:xlink="http://www.w3.org/1999/xlink" height="400.000000000029" viewBox="0.0 0.0 701.0 401.0000305175781" width="700.000000002979">
<!--Gegenereerd door de SIMaD-toepassing (http://www.dlw.be).-->
<g style="stroke:none;fill-rule:evenodd;" transform="matrix(1,0,0,-1,0,400.000000000029)">
<path d=" M45 0 L654.999966227879 1.26760824059602E-11 A45 45 0 0 1 699.999999999987 45.000033772121 L699.999999999888 354.999899469035 A45 45 0 0 1 655.000033772121 399.999999999987 L45.000033772121 399.999999999987 A45 45 0 0 1 1.26760824059602E-11 354.999966227879 L1.26760824059602E-11 45.000033772121 A45 45 0 0 1 45.000033772121 1.26760824059602E-11 Z" style="fill:rgb(255,255,255);stroke:rgb(0,0,0);"/>
<path d=" M334.57 25 L342.82 25 L342.82 44.5 L353.43 44.5 A12 12 0 0 1 365.429999999999 56.4999951828913 L365.43 58 A12 12 0 0 1 353.430006702064 69.9999999999981 L334.57 70 L334.57 25 Z M342.82 52 L352.68 52 A4.5 4.5 0 0 1 357.18 56.4999981935842 L357.18 58 A4.5 4.5 0 0 1 352.680002513274 62.4999999999993 L342.82 62.5 L342.82 52 Z" style="fill:rgb(0,0,0);"/>
<path d=" M587.5 125 L587.5 240 L602.5 240 L582.5 275 L562.5 240 L577.5 240 L577.5 125 Z" style="fill:rgb(0,0,0);"/>
<path d=" M112.5 275 L112.5 160 L97.5 160 L117.5 125 L137.5 160 L122.5 160 L122.5 275 Z" style="fill:rgb(0,0,0);"/>
<path d=" M326.34 159.6 L318.561119935145 159.432799320883 A12.18 12.18 0 0 0 310.112866806679 162.59205954362 L310.117018821546 162.602563285251 A28.36 28.36 0 0 0 301.280797629041 178.508427839628 L301.28 178.5 L292.937351594882 163.018628289146 A42.84 42.84 0 0 0 310.350484284869 109.082948957609 L310.35 109.09 L307.849714460574 110.203060236746 A40.1 40.1 0 1 0 257.093057923832 163.765304178621 L257.1 163.77 L257.096354272995 166.676948343007 A42.84 42.84 0 0 0 288.460464271536 165.331466797816 L288.46 165.33 L305.459050559304 202.215197510888 A7.36 7.36 0 0 0 308.573020799795 205.38291737556 L308.57 205.38 L309.794251930852 206.183170794891 A9 9 0 0 1 311.653348754582 207.806576188463 L311.646988560725 207.807806121253 A1.97 1.97 0 0 1 310.046690860621 211.066738680897 L310.045783539676 211.068941273666 A6.68 6.68 0 0 1 307.178965906407 210.235510031033 L307.183951530313 210.235366416743 A45.13 45.13 0 0 0 302.761007890626 208.078394184676 L302.754879196964 208.077176958471 A13.7 13.7 0 0 0 299.86055727906 207.217329963497 L299.858538181087 207.21490567224 A1.57 1.57 0 0 0 298.071279121374 208.32564840233 L298.07 208.33 L294.949608245866 216.600074781177 A61.2 61.2 0 0 1 300.624931927811 218.995413934998 L300.624820601355 218.990351974882 A14.78 14.78 0 0 0 306.535079241022 220.451027608531 L306.532604170359 220.456211915358 A6.24 6.24 0 0 0 310.600356739991 219.130433074058 L310.604763519238 219.126197089648 A42.55 42.55 0 0 1 314.20137502996 216.594875198507 L314.198159610498 216.60174714665 A10.82 10.82 0 0 1 318.205325870347 215.083225267024 L318.21 215.08 L318.206574113051 229.718991995195 A3.57 3.57 0 0 0 318.36388933959 235.438442898559 A3.57 3.57 0 0 0 322.66320634116 235.297215387934 L322.654484769132 235.300529138584 A10.67 10.67 0 0 0 324.985856797731 232.674697518891 L324.99 232.67 L331.36 232.67 L331.36 230.58 L321.27 230.58 L321.27 215.4 A16.74 16.74 0 0 0 320.502394255129 210.388989946257 L320.505878813293 210.382848556391 A151.04 151.04 0 0 1 319.08691113173 205.582889583155 L319.08 205.59 L320.19364807182 204.826336059586 A0.82 0.82 0 0 0 320.461260557371 203.778977093383 L320.47 203.77 L310.83 183.86 L313.376673515496 180.624913534793 A1.01 1.01 0 0 1 314.561001412511 180.318754653481 L314.56 180.32 L315.159626562908 180.696149496184 A1.57 1.57 0 0 0 317.088302305579 180.501590955987 L317.087746703478 180.500168000157 A4.44 4.44 0 0 0 318.105776498137 179.014122188558 L318.115955581072 179.017701483488 A1.6 1.6 0 0 0 318.102644089564 177.751407472088 L318.100836455842 177.756687051841 A1.99 1.99 0 0 1 318.167680774278 176.006878941404 L318.16 176 L345.74 148.06 L376.199999902087 148.06 A5.61 5.61 0 0 1 381.723274100367 152.687379415943 L381.73 152.69 L391.01 191.62 L366.22 199.26 L366.22 201.58 L401.109999862817 201.58 A3.93 3.93 0 0 0 404.32412736883 195.38852144451 L404.328441945526 195.395602781901 A10 10 0 0 0 402.64977055779 193.550461678754 L402.65 193.55 L398.69662503844 190.361981011229 A3.73 3.73 0 0 1 397.527669506854 188.715561430961 L397.53 188.71 L395.21 177.83 L454.078262327858 177.84837419429 A2.5 2.5 0 0 1 457.221139127128 175.73900538064 L457.22 175.74 L461.71 175.74 L461.76 164.66 L459.6 164.66 L471.03 133.93 L468.123321785896 133.923711787566 A40.11 40.11 0 0 0 392.700048405933 108.237420321721 L392.7 108.24 L365.82 108.24 L365.82 99.7200000000003 L368.14 99.7200000000003 L368.14 96.6400000000003 L360.55 96.6400000000003 L360.55 99.7200000000003 L363.5 99.7200000000003 L363.50325563124 107.375689556231 A36.23 36.23 0 0 1 355.665102694095 105.814086422216 L355.66340346593 105.811609527592 A714.63 714.63 0 0 0 347.279743741198 103.208709418106 L347.28171184613 103.216147447047 A16.59 16.59 0 0 0 334.588675848837 104.486221170282 L334.587355573705 104.486180923054 A9.49 9.49 0 0 0 330.567416290918 108.665593824066 L330.566801989562 108.657727777008 A35.97 35.97 0 0 0 327.685507870343 131.956122897469 L327.683012087275 131.95709802462 A217.65 217.65 0 0 0 333.086542035893 152.431394766033 L333.09 152.43 Z M444.8 108.24 L399.253814957492 108.236397804386 A34.31 34.31 0 1 1 427.323360761711 159.763293917094 L427.32 159.77 L430.064076322839 133.759861416073 A8.35 8.35 0 0 0 432.368154179968 117.889758578336 L432.37 117.9 L444.668717042739 119.005003608914 A2.07 2.07 0 0 0 446.484178507469 117.105135712533 L446.48 117.1 L446.967218878008 110.592440530384 A2.12 2.12 0 0 0 444.794408878097 108.241014911631 Z M424.84 132.78 L421.996112496704 159.096164011856 A34.31 34.31 0 0 1 394.678065677721 127.803173697585 L394.68 127.81 L420.887211706284 127.804598884084 A8.35 8.35 0 0 0 424.833630263277 132.777366449516 Z M384.42 124.38 L385.994487067008 124.374809568648 A42.93 42.93 0 0 1 386.479266907753 118.961769822188 L386.48 118.97 L384.42 119.53 Z M387.09 146.1 L394.43 174.71 L399.066872632243 174.704793380879 A22.99 22.99 0 0 1 404.393181316195 165.760493343349 L404.393080923639 165.763316709544 A3.56 3.56 0 0 1 406.963066733706 164.670001320906 L406.97 164.67 L411.358844265721 164.668333711263 A42.93 42.93 0 0 1 386.042374080894 127.8033413193 L386.04 127.81 L384.34 127.8 L384.347195108771 141.47069897206 A0.99 0.99 0 0 1 385.114547025549 141.883108256533 L385.110323747515 141.878606397277 A12.65 12.65 0 0 1 387.082931937528 146.105455687336 Z M394.62 124.38 L420.634907249067 124.374051988908 A8.35 8.35 0 0 1 426.875108927267 117.391745970759 L426.88 117.4 L396.357966532718 114.648357267232 A34.31 34.31 0 0 0 394.61811643132 124.375181040673 Z M462.289519541078 152.486158526849 A42.93 42.93 0 0 1 446.460262014982 164.668734068439 L446.46 164.67 L457.64 164.67 Z M279.23 127.79 L305.102288574884 127.782571170285 A34.07 34.07 0 0 1 288.811573557048 155.266104375111 L288.81 155.27 L277.121978818281 131.889286503854 A8.32 8.32 0 0 0 279.233049973995 127.788420070148 Z M330.89 122.19 L338.112238553223 120.076898333085 A17.97 17.97 0 0 1 340.993014234497 110.96219859954 L340.995271672287 110.964993796338 A12.58 12.58 0 0 1 345.327413407016 106.876756378238 L345.323262913746 106.871102735825 A6.49 6.49 0 0 0 339.312910645336 107.050830164019 L339.317147736003 107.047800729824 A21.23 21.23 0 0 0 332.387059610683 113.286914150542 L332.386601444302 113.290872112024 A10.36 10.36 0 0 0 330.895660589786 122.185118533635 Z M363.484844230493 110.85677050128 A40.78 40.78 0 0 1 352.675797568693 108.279621709756 L352.67 108.28 L363.46 113.04 Z M274.52 133.75 L284.764166914166 157.376709642636 A34.07 34.07 0 1 1 305.091024663598 124.353861768971 L305.09 124.36 L279.186941518802 124.353073515341 A8.32 8.32 0 1 0 274.521630532371 133.750247464119 Z M376.56 112.36 L365.83 111.2 L365.83 114.31 L376.37 117.99 Z" style="fill:rgb(0,0,0);"/>
<path d=" M377.421947631185 294.913312273571 A43.81 43.81 0 1 1 459.690970043883 317.734339398317 L459.69 317.73 L462.041577612888 319.147058644414 A46.55 46.55 0 0 0 463.570789685321 316.085419124199 L463.57 316.08 L465.063903118253 316.763808596707 A48.19 48.19 0 0 1 400.892173443015 340.536685267389 L400.89 340.54 L390.63 360.52 L392.976227423674 365.446674531516 A1.76 1.76 0 0 0 394.423575276541 366.376779376654 L394.417223628809 366.372162643049 A4.33 4.33 0 0 1 396.566120390726 367.44753286723 L396.561184426475 367.455839228312 A2.38 2.38 0 0 1 395.071689620658 371.479652656423 L395.075876488763 371.477903438701 A65.59 65.59 0 0 1 374.727447798287 371.180056718108 L374.728868479862 371.189795075679 A2.16 2.16 0 0 1 375.060446193665 367.008471877625 L375.06 367.01 L386.219935780267 366.547561321026 A1.78 1.78 0 0 0 388.002456697773 363.945865758029 L388.01 363.94 L386.56 360.9 L302.35 360.9 L304.708047340159 369.940793701072 A29.47 29.47 0 0 1 314.640382747732 370.998048651461 L314.642295539863 371.001747341348 A14.9 14.9 0 0 0 321.137704460137 371.001747341348 L321.134525903502 371.00265938729 A2.28 2.28 0 0 1 322.205905899559 375.004633298336 L322.212297662293 375.003763974209 A10.19 10.19 0 0 1 316.428644039533 375.575296804891 L316.424753459136 375.572643036242 A49.2 49.2 0 0 0 302.029228510239 374.865763278967 L302.03 374.86 L293.648068920294 342.678749281923 A48.19 48.19 0 0 1 266.059806929823 343.302665908824 L266.06 343.3 L266.49372016656 341.721109933531 A46.55 46.55 0 0 0 293.234207287618 341.088838034045 L293.23 341.09 L292.542248099244 338.432180978175 A43.81 43.81 0 1 1 322.618281490874 296.441962867267 L322.62 296.44 L325.359081617533 296.537595204833 A46.55 46.55 0 0 0 324.904312330814 290.332548903657 L324.9 290.33 L326.52825838059 290.103640128324 A48.19 48.19 0 0 1 297.262460368538 341.347219211756 L297.26 341.35 L299.03 348.12 L347.30756253201 304.164606823584 A13.14 13.14 0 0 1 356.567499495199 283.793060478328 L356.57 283.79 L356.57 271.91 L353.01 271.91 L353.01 268.08 L363.42 268.08 L363.42 271.91 L359.86 271.91 L359.852500277264 283.793060449661 A13.14 13.14 0 0 1 371.209522482041 294.913749693044 L371.22 294.91 L373.038130317945 294.913350286986 A48.19 48.19 0 0 1 373.760599696038 288.301923616283 L373.76 288.3 L375.3747157189 288.592146745543 A46.55 46.55 0 0 0 374.679479471644 294.913237056565 L374.68 294.91 Z M460.07 322.43 L457.716205787422 321.019923331314 A43.81 43.81 0 0 1 402.895362888896 336.637315319838 L402.9 336.64 L401.642278538675 339.076764203551 A46.55 46.55 0 0 0 460.066734569038 322.4327734679 Z M405.026771599305 332.487713719011 A39.15 39.15 0 0 0 453.717977963958 318.616535970095 L453.72 318.62 L427.774018745351 303.024537687419 A9.04 9.04 0 0 1 418.858910678575 305.564278595027 L418.86 305.56 Z M401.617455230546 330.736311967651 A39.15 39.15 0 0 1 382.086933755028 298.746431642746 L382.08 298.75 L412.355720171058 298.747576570557 A9.04 9.04 0 0 0 415.44755811523 303.811830791422 L415.45 303.81 Z M283.968286687679 299.933623438453 A6.02 6.02 0 0 0 284.44681409629 298.943463234568 L284.45 298.94 L318.102500896485 300.120026337238 A39.43 39.43 0 0 1 295.029060087004 332.769768918208 L295.03 332.77 L289.776331466618 312.596176832098 A26.98 26.98 0 0 0 283.973421513735 299.93831533118 Z M325.22 300.37 L322.484498737081 300.273001606846 A43.81 43.81 0 0 1 296.147070990705 337.063593792542 L296.15 337.06 L296.845415722372 339.744173413002 A46.55 46.55 0 0 0 325.225293390372 300.368790681249 Z M353.01 325.58 L363.42 325.58 L363.42 321.75 L359.86 321.75 L359.852499367114 309.866939665007 A13.14 13.14 0 0 0 362.062469999276 309.392566413941 L362.07 309.39 L384.74 357.07 L301.36 357.07 L300.12 352.31 L349.887684667077 306.998513534406 A13.14 13.14 0 0 0 356.567500177811 309.866939607673 L356.57 309.87 L356.57 321.75 L353.01 321.75 Z M397.482473443274 338.785086515965 A48.19 48.19 0 0 1 373.038130184138 298.746646351379 L373.04 298.75 L371.209522716155 298.746248718765 A13.14 13.14 0 0 1 365.523515052973 307.74659734395 L365.53 307.75 L388.55 356.16 Z M399.485594953895 334.885681594141 A43.81 43.81 0 0 1 377.42194756428 298.746686198635 L377.42 298.75 L374.67947943819 298.746762131673 A46.55 46.55 0 0 0 398.232374117899 337.325060363673 L398.23 337.32 Z M281.033657702932 302.424260131616 A6.02 6.02 0 1 1 284.580510633547 295.114888625156 L284.58 295.11 L318.23628693717 296.288891556215 A39.43 39.43 0 1 0 291.435983134049 334.183841166588 L291.44 334.18 L285.998520215705 313.302895368202 A23.31 23.31 0 0 0 281.035854106586 302.428613965886 Z M455.692480570533 315.331387366356 A39.15 39.15 0 1 0 382.08693388882 294.913565627345 L382.08 294.91 L412.35571997025 294.912424354566 A9.04 9.04 0 1 1 429.749699318645 299.737429719596 L429.75 299.73 Z" style="fill:rgb(0,0,0);"/>
</g>
</svg>