<?xml version="1.0" encoding="UTF-8"?><svg xmlns="http://www.w3.org/2000/svg" xmlns:xlink="http://www.w3.org/1999/xlink" height="299.999999999998" viewBox="0.0 0.0 401.0 301.0" width="400">
<!--Gegenereerd door de SIMaD-toepassing (http://www.dlw.be).-->
<g style="stroke:none;fill-rule:evenodd;" transform="matrix(1,0,0,-1,0,299.999999999998)">
<path d=" M45 0 L354.999996858407 1.06581410364015E-13 A45 45 0 0 1 400 45.0000031415927 L399.999999999999 254.99999136062 A45 45 0 0 1 355.000003141593 300 L45.0000031415927 300 A45 45 0 0 1 1.06581410364015E-13 254.999996858407 L1.06581410364015E-13 45.0000031415927 A45 45 0 0 1 45.0000031415927 1.06581410364015E-13 Z" style="fill:rgb(255,255,255);stroke:rgb(0,0,0);"/>
<path d=" M181.14 30 L191.23 30 L191.23 53.8299999999999 L204.19 53.8299999999999 A14.67 14.67 0 0 1 218.859999999999 68.4999941110846 L218.86 70.3299999999999 A14.67 14.67 0 0 1 204.190008193274 84.9999999999976 L181.14 85 L181.14 30 Z M191.23 63 L203.27 63 A5.5 5.5 0 0 1 208.77 68.4999977921585 L208.77 70.3299999999999 A5.5 5.5 0 0 1 203.270003071779 75.8299999999991 L191.23 75.8299999999999 L191.23 63 Z" style="fill:rgb(0,0,0);"/>
<path d=" M174.06 190.7 L166.000775818381 190.522902928377 A12.63 12.63 0 0 0 157.240378355901 193.798891812194 L157.24123143659 193.805154662172 A29.41 29.41 0 0 0 148.07785819006 210.299917586864 L148.08 210.3 L139.428774126555 194.238673446445 A44.41 44.41 0 0 0 157.480047243608 138.326404075969 L157.49 138.33 L154.887997101218 139.487369259399 A41.57 41.57 0 1 0 102.270683511624 195.013118557165 L102.28 195.02 L102.27427165543 198.031088293747 A44.41 44.41 0 0 0 134.787764375137 196.63630078776 L134.79 196.64 L152.41836077947 234.877543045827 A7.63 7.63 0 0 0 155.646574294261 238.16147823 L155.64 238.17 L156.905167283855 238.997182325712 A9.33 9.33 0 0 1 158.832442267775 240.680121986097 L158.837374023801 240.675331404969 A2.05 2.05 0 0 1 157.172089795731 244.066606260063 L157.17140635465 244.0685275244 A6.93 6.93 0 0 1 154.19729504613 243.203904632065 L154.20186835704 243.195238697582 A46.79 46.79 0 0 0 149.616187427768 240.95890297334 L149.613110339702 240.957278656617 A14.21 14.21 0 0 0 146.611032508806 240.065419380992 L146.609183652278 240.06585760755 A1.63 1.63 0 0 0 144.753620888436 241.219049360953 L144.76 241.22 L141.519048958706 249.795728312308 A63.45 63.45 0 0 1 147.40307137919 252.27915057255 L147.405727071429 252.285664284398 A15.33 15.33 0 0 0 153.535909221719 253.800693425578 L153.534593214425 253.796072361257 A6.47 6.47 0 0 0 157.752276496033 252.421426949218 L157.752170114867 252.418592129619 A44.11 44.11 0 0 1 161.4806429726 249.794464562038 L161.47515688159 249.793176862214 A11.22 11.22 0 0 1 165.630454200509 248.218520736435 L165.63 248.22 L165.635970333038 263.396996746971 A3.7 3.7 0 0 0 165.799015114906 269.324715427855 L165.799013900708 269.334714572423 A3.7 3.7 0 0 0 170.254893886307 269.18834473568 L170.249550223794 269.18391490468 A11.06 11.06 0 0 0 172.666121763986 266.462122329753 L172.66 266.46 L179.27 266.46 L179.27 264.29 L168.81 264.29 L168.799999999999 248.550007267551 A17.35 17.35 0 0 0 168.004420964368 243.356384059781 L168.020800936588 243.357104766064 A156.6 156.6 0 0 1 166.549652597182 238.380633177278 L166.54 238.38 L167.70061139349 237.581079659131 A0.85 0.85 0 0 0 167.978014213908 236.49540352119 L167.98 236.5 L157.99 215.85 L160.633109789379 212.496346068302 A1.04 1.04 0 0 1 161.852615265645 212.181093879533 L161.86 212.18 L162.477510909263 212.576830703661 A1.63 1.63 0 0 0 164.479893517502 212.374836430787 L164.478652154627 212.365493543471 A4.6 4.6 0 0 0 165.533373225435 210.825889543204 L165.532079281923 210.827004442324 A1.65 1.65 0 0 0 165.51835109865 209.521137560329 L165.526845516067 209.525062386677 A2.06 2.06 0 0 1 165.596040961501 207.713704651938 L165.59 207.71 L194.18 178.73 L225.760000406313 178.73 A5.82 5.82 0 0 1 231.490027765276 183.530597327274 L231.49 183.53 L241.12 223.9 L215.42 231.82 L215.42 234.22 L251.589999431721 234.22 A4.07 4.07 0 0 0 254.918625136056 227.807959286515 L254.912869497271 227.81844965783 A10.36 10.36 0 0 0 253.173757763277 225.906874420822 L253.18 225.9 L249.088671470004 222.590903781131 A3.87 3.87 0 0 1 247.875839044137 220.882686043436 L247.87 220.88 L245.47 209.6 L306.508919766207 209.617515710159 A2.59 2.59 0 0 1 309.76494009211 207.432209562389 L309.76 207.43 L314.42 207.43 L314.46 195.94 L312.23 195.94 L324.08 164.08 L321.070230794687 164.084926055877 A41.59 41.59 0 0 0 242.863944464123 137.45084647903 L242.86 137.45 L215 137.45 L215 128.61 L217.41 128.61 L217.41 125.43 L209.54 125.43 L209.54 128.61 L212.6 128.61 L212.598855904122 136.550760385536 A37.56 37.56 0 0 1 204.472935664904 134.93182522845 L204.472762287176 134.932244125976 A740.92 740.92 0 0 0 195.780682335411 132.233587526131 L195.781905269643 132.232910285253 A17.21 17.21 0 0 0 182.614512333368 133.550448483005 L182.611299919156 133.558081069697 A9.84 9.84 0 0 0 178.443091799143 137.891645410826 L178.451376699572 137.887067047567 A37.29 37.29 0 0 0 175.464339799185 162.04050404262 L175.467723221149 162.03988308685 A225.65 225.65 0 0 0 181.069843078726 183.266651071123 L181.06 183.27 Z M234.29 154.18 L235.915021299849 154.183725606469 A44.51 44.51 0 0 1 236.417637251511 148.57153490034 L236.42 148.57 L234.29 149.15 Z M226.14 141.72 L215.01 140.52 L215.01 143.75 L225.93 147.56 Z M272.098967145911 157.737755804551 A8.65 8.65 0 0 0 276.1871746561 162.889188440814 L276.19 162.89 L273.242227047281 190.1803204764 A35.57 35.57 0 0 1 244.920931388729 157.738105315561 L244.92 157.74 Z M244.86 154.18 L271.837598809951 154.183955953757 A8.65 8.65 0 0 1 278.30199818985 146.950790956925 L278.3 146.95 L246.662535293187 144.100181235341 A35.57 35.57 0 0 0 244.858780851362 154.184267744884 Z M237.05 176.71 L244.66 206.36 L249.467049803342 206.366555145227 A23.84 23.84 0 0 1 254.990309427979 197.091521315866 L254.99934243724 197.093243982361 A3.69 3.69 0 0 1 257.663181941304 195.960001371917 L257.66 195.95 L262.212881981746 195.960253517547 A44.51 44.51 0 0 1 235.964670163262 157.73849029674 L235.97 157.74 L234.2 157.73 L234.208697474379 171.900727195795 A1.03 1.03 0 0 1 235.007054164635 172.32979976219 L235.00228831278 172.324739511622 A13.12 13.12 0 0 1 237.048176137315 176.708610838465 Z M125.23 157.72 L152.040904597068 157.711376180342 A35.32 35.32 0 0 1 135.152501890407 186.203246495384 L135.16 186.21 L123.047468673585 161.972017143859 A8.63 8.63 0 0 0 125.237203415826 157.718342385432 Z M315.018015378417 183.329736897071 A44.51 44.51 0 0 1 298.606189279609 195.960669562437 L298.6 195.96 L310.2 195.95 Z M178.79 151.91 L186.272688205314 149.722539790633 A18.63 18.63 0 0 1 189.259266744335 140.273083413077 L189.250943821638 140.269248715589 A13.05 13.05 0 0 1 193.744924113908 136.028285169129 L193.743677215774 136.034180122295 A6.72 6.72 0 0 0 187.520312021892 136.22027705376 L187.525297152496 136.217660941199 A22.01 22.01 0 0 0 180.340613668672 142.685985594077 L180.336539795028 142.691186487269 A10.74 10.74 0 0 0 178.790908930185 151.911684132552 Z M296.88 137.45 L249.664722222691 137.452775665406 A35.57 35.57 0 1 1 278.76509490312 190.871946009503 L278.76 190.87 L281.605543581829 163.906981705592 A8.65 8.65 0 0 0 283.992402126042 147.466697325307 L283.99 147.46 L296.747126392051 148.604496650623 A2.14 2.14 0 0 0 298.623981656599 146.640381698759 L298.63 146.64 L299.13673640312 139.891213397784 A2.2 2.2 0 0 0 296.88193312736 137.451053229192 Z M212.579002294391 140.169663709023 A42.28 42.28 0 0 1 201.372353030333 137.497716139262 L201.37 137.49 L212.55 142.43 Z M120.34 163.9 L130.956594523286 188.391291006103 A35.32 35.32 0 1 1 152.02922786527 154.156863505271 L152.04 154.16 L125.179375604818 154.155002790241 A8.63 8.63 0 1 0 120.340237095506 163.902311910512 Z" style="fill:rgb(0,0,0);"/>
</g>
</svg>