<?xml version="1.0" encoding="UTF-8"?><svg xmlns="http://www.w3.org/2000/svg" xmlns:xlink="http://www.w3.org/1999/xlink" height="400.000000000025" viewBox="0.0 0.0 701.0 401.0000305175781" width="700.000000002978">
<!--Gegenereerd door de SIMaD-toepassing (http://www.dlw.be).-->
<g style="stroke:none;fill-rule:evenodd;" transform="matrix(1,0,0,-1,0,400.000000000025)">
<path d=" M45 0 L654.999966227879 1.26760824059602E-11 A45 45 0 0 1 699.999999999987 45.000033772121 L699.999999999888 354.999899469035 A45 45 0 0 1 655.000033772121 399.999999999987 L45.000033772121 399.999999999987 A45 45 0 0 1 1.26760824059602E-11 354.999966227879 L1.26760824059602E-11 45.000033772121 A45 45 0 0 1 45.000033772121 1.26760824059602E-11 Z" style="fill:rgb(255,255,255);stroke:rgb(0,0,0);"/>
<path d=" M498.64 285 L535.5 285 L535.5 295 L509.64 295 L509.64 311 L526.93 311 L526.93 321 L509.64 321 L509.64 335 L535.5 335 L535.5 345 L498.64 345 Z" style="fill:rgb(0,0,0);"/>
<path d=" M389.503835849603 110.753187155421 A66.67 66.67 0 1 1 514.700725241398 145.482196021133 L514.7 145.48 L518.269339255012 147.627406311146 A70.83 70.83 0 0 0 520.596172064606 142.968848312758 L520.6 142.97 L522.872260129933 144.002977472433 A73.33 73.33 0 0 1 425.223101858816 180.177807235062 L425.22 180.18 L409.6 210.59 L413.164028188323 218.08879997869 A2.68 2.68 0 0 0 415.367944264475 219.505095874653 L415.368107093268 219.499827209629 A6.59 6.59 0 0 1 418.638598931844 221.136476118948 L418.632725936282 221.144007611179 A3.62 3.62 0 0 1 416.36719177596 227.264261603467 L416.369254952637 227.277687791077 A99.81 99.81 0 0 1 385.404524542568 226.824446730208 L385.405689118799 226.812651763534 A3.28 3.28 0 0 1 385.909196128354 220.463235064166 L385.91 220.46 L402.900183079168 219.761062455082 A2.71 2.71 0 0 0 405.614021152227 215.800054047336 L405.62 215.8 L403.41 211.17 L275.27 211.17 L278.851304470062 224.932500493928 A44.84 44.84 0 0 1 293.963822199522 226.541163733934 L293.966514284838 226.544686557166 A22.68 22.68 0 0 0 303.853485715162 226.544686557166 L303.855221440856 226.539705295568 A3.47 3.47 0 0 1 305.485786610294 232.630428747906 L305.479726571693 232.619690049092 A15.5 15.5 0 0 1 296.682216154343 233.489048133053 L296.685579095234 233.50446512446 A74.87 74.87 0 0 0 274.779219563914 232.428772162803 L274.78 232.42 L262.018866858791 183.43735390835 A73.33 73.33 0 0 1 220.038222497695 184.386758478815 L220.04 184.39 L220.699675604671 181.975849980495 A70.83 70.83 0 0 0 261.387725073727 181.013791577904 L261.39 181.02 L260.337716977325 176.980143935515 A66.67 66.67 0 1 1 306.107384775087 113.079485605129 L306.11 113.08 L310.268602598708 113.225079878805 A70.83 70.83 0 0 0 309.576630341387 103.783545410227 L309.58 103.78 L312.052157855336 103.434599099605 A73.33 73.33 0 0 1 267.518832098463 181.411184577673 L267.52 181.41 L270.21 191.73 L343.685726837154 124.833785119611 A20 20 0 0 1 357.779999231657 93.8268652638178 L357.78 93.83 L357.78 75.75 L352.36 75.75 L352.36 69.92 L368.19 69.92 L368.19 75.75 L362.78 75.75 L362.780000422015 93.8268652201845 A20 20 0 0 1 380.066183382102 110.753332866124 L380.06 110.75 L382.838022281841 110.753464166256 A73.33 73.33 0 0 1 383.937393146098 100.692954114589 L383.93 100.69 L386.397935643091 101.13536864929 A70.83 70.83 0 0 0 385.340071506057 110.753474505126 L385.34 110.75 Z M508.617223305042 141.826134336846 A59.58 59.58 0 1 0 396.601425826204 110.753495276557 L396.6 110.75 L442.672903715812 110.753333503904 A13.75 13.75 0 1 1 469.129454162762 118.092252062438 L469.13 118.09 Z M242.827199524234 122.191489270253 A9.17 9.17 0 1 1 248.229963872031 111.057446626692 L248.23 111.06 L299.434349891712 112.846603940475 A60 60 0 1 0 258.652756480927 170.510742328057 L258.66 170.51 L250.375598972589 138.739480854146 A35.47 35.47 0 0 0 242.824086021476 122.192472645644 Z M352.36 157.42 L368.19 157.42 L368.19 151.59 L362.78 151.59 L362.779999729359 133.513134867082 A20 20 0 0 0 366.143730071614 132.791105345854 L366.14 132.79 L400.64 205.34 L273.75 205.34 L271.87 198.1 L347.612853374546 129.147189550085 A20 20 0 0 0 357.780000616969 133.513134910715 L357.78 133.51 L357.78 151.59 L352.36 151.59 Z M310.07 119.06 L305.903794357479 118.909555287113 A66.67 66.67 0 0 1 265.82353168113 174.897429768289 L265.83 174.89 L266.882502591097 178.967763756025 A70.83 70.83 0 0 0 310.065031811816 119.054587410373 Z M247.297389939508 118.397612858358 A9.17 9.17 0 0 0 248.026309675784 116.889345609211 L248.03 116.89 L299.230769814585 118.676380426942 A60 60 0 0 1 264.120284180072 168.358971217156 L264.12 168.36 L256.126107117099 137.660119374572 A41.06 41.06 0 0 0 247.294843860414 118.396524369838 Z M431.512167353425 167.935302257438 A59.58 59.58 0 0 0 505.612348073886 146.825601867133 L505.62 146.83 L466.124409042985 123.0920014604 A13.75 13.75 0 0 1 452.564371883895 126.954992332037 L452.56 126.96 Z M423.080265135271 171.583085868098 A66.67 66.67 0 0 1 389.503835747787 116.586810519585 L389.51 116.59 L385.340071506057 116.586525494874 A70.83 70.83 0 0 0 421.177913185194 175.286866284832 L421.18 175.29 Z M426.323736465796 165.269950626633 A59.58 59.58 0 0 1 396.601425622594 116.586500568961 L396.6 116.59 L442.672904021244 116.586667903226 A13.75 13.75 0 0 0 447.375644257126 124.289488205979 L447.38 124.29 Z M420.034612525323 177.512425694454 A73.33 73.33 0 0 1 382.838022129131 116.586531997233 L382.83 116.59 L380.06618373844 116.586664716537 A20 20 0 0 1 371.411681967995 130.285825485465 L371.41 130.29 L406.45 203.96 Z M515.27 152.63 L511.695531610305 150.482193300587 A66.67 66.67 0 0 1 428.269245464567 174.248719752878 L428.27 174.25 L426.366388590642 177.95224078491 A70.83 70.83 0 0 0 515.264438443071 152.626916105937 Z" style="fill:rgb(0,0,0);"/>
<path d=" M55.9899999999998 345 L55.9900000000002 304.370003231128 A20.57 20.57 0 0 1 97.1299999999997 304.369996768872 L97.1300000000001 345 L86.1300000000001 345 L86.1299999999998 303.36999832972 A9.57 9.57 0 0 0 66.9900000000001 303.37000167028 L66.9899999999998 345 Z" style="fill:rgb(0,0,0);"/>
<path d=" M110.93 285 L121.93 285 L121.93 345 L110.93 345 Z" style="fill:rgb(0,0,0);"/>
<path d=" M211.21 303.37 L211.21 311 L201.64 311 L201.64 321 L222.21 321 L222.21 304.369996409858 A20.57 20.57 0 0 0 181.07 304.370003590142 L181.07 325.630001436057 A20.57 20.57 0 0 0 221.49639904747 331.001062917862 L221.5 331 L210.153588334527 331.000779526606 A9.57 9.57 0 0 1 192.07 326.629997160524 L192.07 303.370001336224 A9.57 9.57 0 0 1 211.21 303.369998663776 Z" style="fill:rgb(0,0,0);"/>
<path d=" M147.8 285 L158.8 285 L158.8 335 L173.87 335 L173.87 345 L132.73 345 L132.73 335 L147.8 335 Z" style="fill:rgb(0,0,0);"/>
<path d=" M235.41 285 L272.27 285 L272.27 295 L246.41 295 L246.41 311 L263.7 311 L263.7 321 L246.41 321 L246.41 335 L272.27 335 L272.27 345 L235.41 345 Z" style="fill:rgb(0,0,0);"/>
<path d=" M281.27 285 L322.41 285 L322.41 295 L293.81 295 L321.21 335 L321.21 345 L282.47 345 L282.47 335 L308.67 335 L281.27 295 Z" style="fill:rgb(0,0,0);"/>
<path d=" M444.3 285 L469.440017872172 285.00000000001 A16 16 0 0 1 485.439999999995 300.999987154377 L485.439999999995 329.000012845623 A16 16 0 0 1 469.440017872172 344.99999999999 L444.3 345 Z M455.3 295 L468.440006806784 295.000000000004 A6 6 0 0 1 474.439999999998 300.999995287611 L474.439999999998 329.000004712389 A6 6 0 0 1 468.440006806784 334.999999999996 L455.3 335 Z" style="fill:rgb(0,0,0);"/>
<path d=" M388.16 285 L398.16 285 L398.16 324.85 L416.44 285 L429.3 285 L429.3 345 L419.3 345 L419.3 305.15 L401.01 345 L388.16 345 Z" style="fill:rgb(0,0,0);"/>
<path d=" M333.81 325.63 L333.82 304.370003231128 A20.57 20.57 0 0 1 374.96 304.369996768872 L374.96 325.63 A20.57 20.57 0 0 1 333.82 325.63 Z M344.81 326.63 L344.82 303.370001336224 A9.57 9.57 0 0 1 363.96 303.369998663776 L363.96 326.63 A9.57 9.57 0 0 1 344.82 326.63 Z" style="fill:rgb(0,0,0);"/>
<path d=" M547.5 285 L558.5 285 L558.5 311 L564.29 311 L579.36 285 L592.07 285 L576.70062438766 311.523846421596 A16 16 0 0 1 588.639999999995 327.000012845623 L588.639999999995 329.000012845623 A16 16 0 0 1 572.640017872171 344.99999999999 L547.5 345 Z M558.5 321 L571.640006806784 321.000000000004 A6 6 0 0 1 577.639999999998 326.999995287611 L577.639999999998 329.000004712389 A6 6 0 0 1 571.640006806784 334.999999999996 L558.5 335 Z" style="fill:rgb(0,0,0);"/>
<path d=" M602.87 285 L628.010017872172 285.00000000001 A16 16 0 0 1 644.009999999995 300.999987154377 L644.009999999995 329.000012845623 A16 16 0 0 1 628.010017872172 344.99999999999 L602.87 345 Z M613.87 295 L627.010006806784 295.000000000004 A6 6 0 0 1 633.009999999998 300.999995287611 L633.009999999998 329.000004712389 A6 6 0 0 1 627.010006806784 334.999999999996 L613.87 335 Z" style="fill:rgb(0,0,0);"/>
</g>
</svg>