<?xml version="1.0" encoding="UTF-8"?><svg xmlns="http://www.w3.org/2000/svg" xmlns:xlink="http://www.w3.org/1999/xlink" height="400.000000000025" viewBox="0.0 0.0 401.0000305175781 401.0" width="400.000000002976">
<!--Gegenereerd door de SIMaD-toepassing (http://www.dlw.be).-->
<g style="stroke:none;fill-rule:evenodd;" transform="matrix(1,0,0,-1,0,400.000000000025)">
<path d=" M45 0 L354.999966227879 1.26760824059602E-11 A45 45 0 0 1 399.999999999987 45.000033772121 L399.999999999888 354.999899469035 A45 45 0 0 1 355.000033772121 399.999999999987 L45.000033772121 399.999999999987 A45 45 0 0 1 1.26760824059602E-11 354.999966227879 L1.26760824059602E-11 45.000033772121 A45 45 0 0 1 45.000033772121 1.26760824059602E-11 Z" style="fill:rgb(255,255,255);stroke:rgb(0,0,0);"/>
<path d=" M182.86 30 L192.02 30 L192.02 51.6700000000001 L203.81 51.6700000000001 A13.33 13.33 0 0 1 217.139999999999 64.999994648995 L217.14 66.6700000000001 A13.33 13.33 0 0 1 203.810007444876 79.999999999998 L182.86 80 L182.86 30 Z M192.02 60 L202.97 60 A5 5 0 0 1 207.97 64.9999979928714 L207.97 66.6700000000001 A5 5 0 0 1 202.970002792527 71.6699999999993 L192.02 71.6700000000001 L192.02 60 Z" style="fill:rgb(0,0,0);"/>
<path d=" M223.465944169703 300.897624805977 A37.54 37.54 0 1 1 293.960787844039 320.452551951902 L293.95 320.45 L295.968086255681 321.659318984731 A39.88 39.88 0 0 0 297.278182153558 319.036372592302 L297.28 319.03 L298.561895823878 319.619621435112 A41.29 41.29 0 0 1 243.578481873046 339.988620765521 L243.58 339.98 L234.78 357.1 L236.786933792675 361.329249241725 A1.51 1.51 0 0 0 238.028692477372 362.127236854748 L238.034503322674 362.121829874074 A3.71 3.71 0 0 1 239.875705876102 363.043220957807 L239.866729508407 363.042147909982 A2.04 2.04 0 0 1 238.59001967485 366.491130848363 L238.595080937163 366.501258930554 A56.2 56.2 0 0 1 221.159775366119 366.246052562245 L221.156623405266 366.245611502786 A1.85 1.85 0 0 1 221.440613701819 362.664385625478 L221.44 362.66 L231.009439181915 362.2693083265 A1.53 1.53 0 0 0 232.541606037974 360.033019443699 L232.54 360.04 L231.3 357.43 L159.15 357.43 L161.168967844537 365.172088285912 A25.25 25.25 0 0 1 169.679027888892 366.077947909943 L169.676564700943 366.082960640873 A12.77 12.77 0 0 0 175.243435299057 366.082960640873 L175.238870838522 366.087932370709 A1.95 1.95 0 0 1 176.155182677255 369.510673215682 L176.160349223927 369.51211575023 A8.73 8.73 0 0 1 171.205364324349 370.001760658165 L171.203276541406 369.997760780649 A42.16 42.16 0 0 0 158.867599064872 369.392028045554 L158.87 369.39 L151.693506240277 341.823977129085 A41.29 41.29 0 0 1 128.055420795443 342.358559356202 L128.05 342.35 L128.428479677691 340.998806779305 A39.88 39.88 0 0 0 151.337408950165 340.45713127385 L151.34 340.45 L150.746916084128 338.188159642106 A37.54 37.54 0 1 1 176.518527440479 302.20749796935 L176.51 302.2 L178.859213205235 302.289492252822 A39.88 39.88 0 0 0 178.469606353445 296.973547804036 L178.47 296.97 L179.865803870814 296.776742081313 A41.29 41.29 0 0 1 154.790377435504 340.683099839249 L154.79 340.68 L156.3 346.48 L197.667424209318 308.825211022341 A11.26 11.26 0 0 1 205.60249937244 291.368315168095 L205.6 291.36 L205.6 281.19 L202.55 281.19 L202.55 277.9 L211.47 277.9 L211.47 281.19 L208.42 281.19 L208.417500237595 291.368315118964 A11.26 11.26 0 0 1 218.149621244123 300.897916403628 L218.15 300.89 L219.712670667083 300.897783109569 A41.29 41.29 0 0 1 220.331694572513 295.233001164481 L220.33 295.23 L221.719440539976 295.482522966733 A39.88 39.88 0 0 0 221.123822556284 300.8978845583 L221.12 300.89 Z M240.656993742951 338.487821586309 A41.29 41.29 0 0 1 219.712670581097 304.182214730202 L219.71 304.18 L218.149621444742 304.18208223541 A11.26 11.26 0 0 1 213.277137111252 311.894709638934 L213.28 311.89 L233.01 353.37 Z M242.371886203361 335.149228190916 A37.54 37.54 0 0 1 223.465944112373 304.182373884884 L223.47 304.18 L221.123822556284 304.182115441699 A39.88 39.88 0 0 0 241.301898599824 337.232653218115 L241.3 337.23 Z M143.401388589439 305.200248661531 A5.16 5.16 0 0 0 143.811554971294 304.351539831018 L143.81 304.35 L172.642203405612 305.358592180368 A33.78 33.78 0 0 1 152.87499999338 333.329890795259 L152.87 333.33 L148.371222516983 316.044826106675 A23.12 23.12 0 0 0 143.398528739717 305.197911432797 Z M178.74 305.57 L176.403891408126 305.49024606987 A37.54 37.54 0 0 1 153.83582389845 337.015441930427 L153.83 337.01 L154.431178926062 339.305139327831 A39.88 39.88 0 0 0 178.744595067842 305.571728729714 Z M202.55 327.17 L211.47 327.17 L211.47 323.88 L208.42 323.88 L208.417500237595 313.711684881036 A11.26 11.26 0 0 0 210.311280406094 313.305182194479 L210.31 313.3 L229.74 354.15 L158.3 354.15 L157.23 350.07 L199.87839644987 311.253657716698 A11.26 11.26 0 0 0 205.602500152371 313.711684930167 L205.6 313.71 L205.6 323.88 L202.55 323.88 Z M140.885992316799 307.335080112814 A5.16 5.16 0 1 1 143.926151971612 301.069904535848 L143.92 301.06 L172.756818989034 302.076428018487 A33.78 33.78 0 1 0 149.796781898762 334.541337930696 L149.8 334.54 L145.136016675574 316.654162183741 A19.97 19.97 0 0 0 140.884431853648 307.338014624571 Z M290.537259850355 318.394956478704 A33.55 33.55 0 1 0 227.460220484544 300.897691616792 L227.46 300.89 L253.40613634621 300.898181914197 A7.74 7.74 0 1 1 268.298769106893 305.029325888238 L268.3 305.02 Z M244.197104035372 331.596366960784 A33.55 33.55 0 0 1 227.46022036989 304.182306043784 L227.46 304.18 L253.40613651814 304.181818877889 A7.74 7.74 0 0 0 256.053351749102 308.517806451947 L256.05 308.51 Z M294.27 324.47 L292.268647917367 323.267909652078 A37.54 37.54 0 0 1 245.293654938351 336.650171584267 L245.29 336.64 L244.223208767398 338.733361040551 A39.88 39.88 0 0 0 294.276212129178 324.474234283563 Z M247.118753184079 333.0972489214 A33.55 33.55 0 0 0 288.845189289676 321.210198768753 L288.84 321.2 L266.607201890378 307.843730276618 A7.74 7.74 0 0 1 258.974133700462 310.018242956361 L258.97 310.01 Z" style="fill:rgb(0,0,0);"/>
<path d=" M179.54 171.56 L173.096528025038 171.422321275938 A10.1 10.1 0 0 0 166.090997926721 174.042069079685 L166.090362576967 174.046046843057 A23.52 23.52 0 0 0 158.762156566821 187.237370338083 L158.76 187.24 L151.836017790993 174.392671874728 A35.53 35.53 0 0 0 166.277861966419 129.660302905318 L166.28 129.66 L164.206067405454 130.588303827286 A33.26 33.26 0 1 0 122.107154776725 175.014244812492 L122.11 175.01 L122.110746202603 177.426754776541 A35.53 35.53 0 0 0 148.123043214035 176.310859619759 L148.13 176.31 L162.213342147557 206.908757526115 A6.11 6.11 0 0 0 164.79844516213 209.538481630038 L164.81 209.53 L165.819946818241 210.201095046087 A7.46 7.46 0 0 1 167.360931471828 211.546717792771 L167.357899087615 211.534264972737 A1.64 1.64 0 0 1 166.0256715794 214.247284993234 L166.031353511172 214.240828546896 A5.54 5.54 0 0 1 163.653783186487 213.549629623694 L163.646501917457 213.551927306165 A37.43 37.43 0 0 0 159.978193053632 211.762973760061 L159.975374648391 211.773192143048 A11.36 11.36 0 0 0 157.575411194403 211.060209406367 L157.580636688125 211.060622527129 A1.3 1.3 0 0 0 156.100740667472 211.98034583265 L156.1 211.98 L153.509264142319 218.83059173913 A50.76 50.76 0 0 1 158.216444337963 220.817314295925 L158.220318036036 220.820927957513 A12.26 12.26 0 0 0 163.122873578818 222.032557407347 L163.119882161248 222.026861481031 A5.17 5.17 0 0 0 166.490119357186 220.92841965472 L166.494505880552 220.929296806637 A35.29 35.29 0 0 1 169.477452991945 218.829876515989 L169.467992119931 218.829157899617 A8.98 8.98 0 0 1 172.793717928752 217.568869003961 L172.8 217.58 L172.794778495778 229.717595635889 A2.96 2.96 0 0 0 172.925213612313 234.459773413433 A2.96 2.96 0 0 0 176.489913340717 234.342677216855 L176.490889428942 234.344693802856 A8.85 8.85 0 0 0 178.424595375812 232.16675473685 L178.42 232.17 L183.71 232.17 L183.71 230.43 L175.34 230.43 L175.33 217.84 A13.88 13.88 0 0 0 174.693538366858 213.685112332978 L174.694664312297 213.681758919125 A125.28 125.28 0 0 1 173.51770277134 209.700437016536 L173.52 209.7 L174.444488693869 209.070864015861 A0.68 0.68 0 0 0 174.666411167067 208.202322414765 L174.67 208.2 L166.68 191.68 L168.798058424561 188.996315094426 A0.83 0.83 0 0 1 169.771317979103 188.744719165074 L169.78 188.75 L170.26879670556 189.066532394405 A1.31 1.31 0 0 0 171.878073914765 188.904193711758 L171.870925149383 188.892391540147 A3.68 3.68 0 0 0 172.714697638096 187.660713886012 L172.717663363278 187.659603702626 A1.32 1.32 0 0 0 172.706681364551 186.614911143412 L172.711648317658 186.618861123386 A1.65 1.65 0 0 1 172.767071985125 185.16801522803 L172.76 185.17 L195.64 161.98 L220.899999918668 161.98 A4.66 4.66 0 0 1 225.487960318651 165.823776921125 L225.48 165.82 L233.18 198.12 L212.63 204.45 L212.63 206.38 L241.559999943102 206.38 A3.26 3.26 0 0 0 244.226171812312 201.244066134632 L244.219928206323 201.249604469532 A8.29 8.29 0 0 0 242.828309572496 199.7199825436 L242.83 199.72 L239.552423038388 197.071834152382 A3.1 3.1 0 0 1 238.580904988502 195.703496197332 L238.59 195.71 L236.66 186.68 L285.495121203107 186.700253868737 A2.07 2.07 0 0 1 288.097423197262 184.95369645517 L288.1 184.95 L291.83 184.95 L291.86 175.75 L290.08 175.75 L299.55 150.27 L297.146233253971 150.2655021484 A33.27 33.27 0 0 0 234.584969096619 128.959520670747 L234.58 128.96 L212.29 128.96 L212.29 121.89 L214.22 121.89 L214.22 119.34 L207.92 119.34 L207.92 121.89 L210.37 121.89 L210.364900130244 128.248599811337 A30.05 30.05 0 0 1 203.863754787677 126.9533700521 L203.86437588173 126.94550818646 A592.73 592.73 0 0 0 196.910782233771 124.78660500314 L196.909201627653 124.793983657105 A13.76 13.76 0 0 0 186.381403235684 125.847402248528 L186.385983900695 125.84222808039 A7.87 7.87 0 0 0 183.052272459024 129.308190154482 L183.050887172261 129.308554427859 A29.83 29.83 0 0 0 180.661423402066 148.629965138491 L180.662172028463 148.629875650836 A180.52 180.52 0 0 0 185.143886828943 165.61135990427 L185.14 165.61 Z M292.307973232187 165.663039952041 A35.61 35.61 0 0 1 279.177764508584 175.768362920501 L279.17 175.77 L288.45 175.76 Z M229.93 160.37 L236.02 184.09 L239.871551156889 184.085833395971 A19.07 19.07 0 0 1 244.289676715957 176.666616270452 L244.275707734261 176.669049848385 A2.96 2.96 0 0 1 246.412549868475 175.760001098282 L246.42 175.76 L250.061494160315 175.76803082828 A35.61 35.61 0 0 1 229.061738668079 145.188893183794 L229.06 145.19 L227.65 145.18 L227.650807998383 156.520578943866 A0.82 0.82 0 0 1 228.28639244411 156.862170416955 L228.294948202517 156.857278990139 A10.49 10.49 0 0 1 229.930731701555 160.36238973598 Z M221.5 132.41 L212.3 131.41 L212.3 134.09 L221.34 137.24 Z M140.47 145.18 L161.928719551694 145.169282690703 A28.26 28.26 0 0 1 148.416080678667 167.966014371607 L148.42 167.97 L138.719068889252 148.574865096805 A6.9 6.9 0 0 0 140.469837117857 145.173906067791 Z M227.72 142.35 L229.022016875289 142.344960837166 A35.61 35.61 0 0 1 229.424136841022 137.854899216588 L229.43 137.86 L227.72 138.32 Z M183.32 140.53 L189.300154525796 138.77981380892 A14.91 14.91 0 0 1 191.69038075884 131.217199839685 L191.690750100054 131.219406616356 A10.44 10.44 0 0 1 195.285945625536 127.826624530111 L195.288683278267 127.819743099959 A5.38 5.38 0 0 0 190.306295727567 127.968731322407 L190.309268296809 127.974379371006 A17.61 17.61 0 0 0 184.560853319452 133.14964029747 L184.560859691752 133.154111143078 A8.59 8.59 0 0 0 183.324645218751 140.528780714665 Z M210.351585478971 131.129749403967 A33.82 33.82 0 0 1 201.387338738921 128.9924474307 L201.39 128.99 L210.33 132.94 Z M136.57 150.12 L145.058883386978 169.716695465245 A28.26 28.26 0 1 1 161.919376489383 142.325275420931 L161.92 142.33 L140.43159810814 142.324880562301 A6.9 6.9 0 1 0 136.562530238585 150.118209986388 Z M261.32 148.56 L258.877476964012 171.146067180312 A29.44 29.44 0 0 1 235.436984947599 144.294839220546 L235.44 144.29 L257.930579174399 144.294734013487 A7.16 7.16 0 0 0 261.314574083321 148.558807699154 Z M236.17 142.35 L257.762078821981 142.345166438712 A6.92 6.92 0 0 1 262.933599371829 136.558632559507 L262.93 136.56 L237.61822565246 134.276903643098 A28.46 28.46 0 0 0 236.175027503216 142.345262384656 Z M277.79 128.96 L240.020319839411 128.958209895448 A28.46 28.46 0 1 1 263.303889457251 171.699552459356 L263.3 171.7 L265.576432114257 150.123585748411 A6.92 6.92 0 0 0 267.485919502193 136.971356859851 L267.48 136.97 L277.686663525885 137.887539219775 A1.72 1.72 0 0 0 279.19516282455 136.308904946695 L279.19 136.31 L279.599389257214 130.912969496923 A1.76 1.76 0 0 0 277.79554702384 128.960842567196 Z" style="fill:rgb(0,0,0);"/>
</g>
</svg>