<?xml version="1.0" encoding="UTF-8"?><svg xmlns="http://www.w3.org/2000/svg" xmlns:xlink="http://www.w3.org/1999/xlink" height="200.000000000025" viewBox="0.0 0.0 401.0000305175781 201.00003051757812" width="400.000000002978">
<!--Aangemaakt vanuit SIMaD (https://www.dlw.be).-->
<g style="stroke:none;fill-rule:evenodd;" transform="matrix(1,0,0,-1,0,200.000000000025)">
<path d=" M45 0 L354.999966227879 1.26760824059602E-11 A45 45 0 0 1 399.999999999987 45.000033772121 L399.999999999888 154.999899469035 A45 45 0 0 1 355.000033772121 199.999999999987 L45.000033772121 199.999999999987 A45 45 0 0 1 1.26760824059602E-11 154.999966227879 L1.26760824059602E-11 45.000033772121 A45 45 0 0 1 45.000033772121 1.26760824059602E-11 Z" style="fill:rgb(255,255,255);stroke:rgb(0,0,0);"/>
<path d=" M174.8 172.04 L137.636050745034 179.916581319675 A3.84 3.84 0 0 1 136.043947746978 172.403418999881 L136.05 172.4 L150.87 169.26 L129.003336907035 66.0802767838705 A23.05 23.05 0 1 1 136.519759958007 64.4874827406049 L136.52 64.49 L138.54 74.03 L162.95 39.07 L249.227181798239 39.1801120210395 A23.05 23.05 0 1 1 249.217640221739 46.8634392497708 L249.21 46.87 L244.361445798628 46.8571218890371 A27.85 27.85 0 0 0 281.072578991871 69.3635146367236 L281.076623693289 69.3688897222024 A2.88 2.88 0 0 1 282.963376306711 74.8111102777976 L282.962608135985 74.8151831734563 A33.62 33.62 0 0 1 238.545535038306 46.8508052598015 L238.55 46.85 L166.95 46.76 L148.26 73.54 L157.51 117.19 L152.93 122.44 L148.98 123.27 L158.39 167.67 L173.205486539469 164.528968278374 A3.84 3.84 0 0 1 174.797301916897 172.04077363455 Z M271.95 39.21 L259.065447466517 39.1911392857592 A13.45 13.45 0 1 1 259.055903000124 46.8768476005454 L259.06 46.88 L271.945231281395 46.8899970389732 A3.84 3.84 0 0 0 271.954768718605 39.2100029610268 Z M124.29 43.85 L126.96264855545 56.4559750423471 A13.45 13.45 0 1 1 134.481400954388 54.8626873218544 L134.48 54.86 L131.806581139057 42.2539484026247 A3.84 3.84 0 1 0 124.293418860943 43.8460515973753 Z" style="fill:rgb(0,0,0);"/>
</g>
</svg>