<?xml version="1.0" encoding="UTF-8"?><svg xmlns="http://www.w3.org/2000/svg" xmlns:xlink="http://www.w3.org/1999/xlink" height="200.000000000025" viewBox="0.0 0.0 401.0000305175781 201.00003051757812" width="400.000000002976">
<!--Aangemaakt vanuit SIMaD (https://www.dlw.be).-->
<g style="stroke:none;fill-rule:evenodd;" transform="matrix(1,0,0,-1,0,200.000000000025)">
<path d=" M45 0 L354.999966227879 1.26760824059602E-11 A45 45 0 0 1 399.999999999987 45.000033772121 L399.999999999888 154.999899469035 A45 45 0 0 1 355.000033772121 199.999999999987 L45.000033772121 199.999999999987 A45 45 0 0 1 1.26760824059602E-11 154.999966227879 L1.26760824059602E-11 45.000033772121 A45 45 0 0 1 45.000033772121 1.26760824059602E-11 Z" style="fill:rgb(255,255,255);stroke:rgb(0,0,0);"/>
<path d=" M294.69 132.179998150649 A35.32 35.32 0 0 1 259.201966147532 167.499600289703 L259.2 167.5 A2.42 2.42 0 0 1 259.2 162.66 L259.201976650939 162.659536875651 A30.48 30.48 0 0 0 289.85 132.179999468024 A2.42 2.42 0 0 1 294.69 132.18 Z" style="fill:rgb(0,0,0);"/>
<path d=" M285.02 132.180000447677 A25.65 25.65 0 0 1 259.201924472167 157.829449323854 L259.201229967807 157.814623137775 A2.42 2.42 0 1 1 259.201229967807 152.985376862224 L259.201928541372 152.989321276409 A20.81 20.81 0 0 0 280.18 132.180001089609 L280.17504878391 132.173761003893 A2.42 2.42 0 0 1 285.00495121609 132.173761003893 Z" style="fill:rgb(0,0,0);"/>
<path d=" M175.85910170877 75.064028626223 A45.52 45.52 0 0 0 175.414400316918 68.9963525380886 L175.42 68.99 L177.018637230454 68.7716112115288 A47.13 47.13 0 0 1 148.396591121845 118.888000056054 L148.39 118.88 L150.12 125.51 L197.33817623799 82.5227271011686 A12.85 12.85 0 0 1 206.39374372093 62.6007866608976 L206.4 62.59 L206.4 50.98 L202.91 50.98 L202.91 47.23 L213.09 47.23 L213.09 50.98 L209.61 50.98 L209.606247823471 62.6007855955909 A12.85 12.85 0 0 1 220.712623150068 73.4760435852563 L220.72 73.47 L222.497291920536 73.475501202346 A47.13 47.13 0 0 1 223.203867596901 67.0095191576169 L223.21 67 L224.788450837252 67.2944681977006 A45.52 45.52 0 0 0 224.108607784122 73.4756035356708 L224.11 73.47 L226.781028735386 73.4753055541155 A42.85 42.85 0 1 1 307.247308638457 95.7962614212971 L307.24 95.79 L309.537660964663 97.1732624383318 A45.52 45.52 0 0 0 311.033044355596 94.1793514105007 L311.04 94.1799999999999 L312.498827858036 94.8453684717531 A47.13 47.13 0 0 1 249.738678906336 118.095314957738 L249.74 118.09 L239.7 137.63 L241.991540563675 142.447886712501 A1.72 1.72 0 0 0 243.405993630714 143.356852549041 L243.409043380123 143.370496149841 A4.23 4.23 0 0 1 245.508310683271 144.421030102392 L245.515233958464 144.410589247779 A2.33 2.33 0 0 1 244.057030696601 148.349870185319 L244.053338565695 148.362218203499 A64.15 64.15 0 0 1 224.151625366455 148.070910032459 L224.154635133619 148.062346022691 A2.11 2.11 0 0 1 224.478537462573 143.977812848101 L224.48 143.98 L235.394655842026 143.527840784559 A1.74 1.74 0 0 0 237.137120336043 140.984609864836 L237.14 140.98 L235.73 138.01 L153.37 138.01 L155.669793936326 146.849451717293 A28.82 28.82 0 0 1 165.383024487602 147.883383799905 L165.384238711095 147.879684955578 A14.57 14.57 0 0 0 171.735761288905 147.879684955578 L171.746094200256 147.88194332363 A2.23 2.23 0 0 1 172.79397891737 151.796153851753 L172.785354122931 151.79083013231 A9.96 9.96 0 0 1 167.132229280339 152.34946428543 L167.134337485472 152.351947108928 A48.12 48.12 0 0 0 153.054850035277 151.660586098706 L153.05 151.66 L144.861713436158 120.19023944123 A47.13 47.13 0 0 1 117.880236581825 120.80043344452 L117.88 120.8 L118.306256210693 119.247820396206 A45.52 45.52 0 0 0 144.455029906714 118.629539407562 L144.45 118.63 L143.781332469454 116.040561658633 A42.85 42.85 0 1 1 173.198319115109 74.9704621101832 L173.19 74.97 Z M253.781819827374 110.224425294617 A38.29 38.29 0 0 0 301.403446651241 96.6579495064316 L301.41 96.65 L276.028350173443 81.4074951130089 A8.84 8.84 0 0 1 267.310490010224 83.8910440934648 L267.31 83.88 Z M250.447394930451 108.511495309338 A38.29 38.29 0 0 1 231.345903130729 77.2243411252449 L231.34 77.22 L260.951168512564 77.2251508023862 A8.84 8.84 0 0 0 263.974604719592 82.1773666845115 L263.98 82.17 Z M248.361171421105 112.571758920931 A42.85 42.85 0 0 1 226.781029782419 77.2247183549242 L226.79 77.22 L224.108606933553 77.2243758255279 A45.52 45.52 0 0 0 247.140329545314 114.949023933375 L247.14 114.95 Z M246.403950474819 116.382231323873 A47.13 47.13 0 0 1 222.497291462511 77.2244872907347 L222.5 77.22 L220.712623411721 77.2239546397267 A12.85 12.85 0 0 1 215.152103614855 86.0256692475166 L215.16 86.02 L237.67 133.37 Z M307.61 100.38 L305.31580176354 99.0098729572294 A42.85 42.85 0 0 1 251.696270096199 114.285034739035 L251.7 114.28 L250.474806716315 116.661981140189 A45.52 45.52 0 0 0 307.606518959884 100.386267416945 Z M135.396898082614 78.3865967370909 A5.89 5.89 0 0 0 135.865086781699 77.4178292459312 L135.86 77.41 L168.775536531122 78.5674123601802 A38.56 38.56 0 0 1 146.211176336726 110.496787694116 L146.21 110.49 L141.074721626845 90.7653231597159 A26.39 26.39 0 0 0 135.398709923924 78.3842639581111 Z M175.74 78.8099999999999 L173.067466069068 78.7175796409368 A42.85 42.85 0 0 1 147.30718910797 114.701953414749 L147.3 114.69 L147.986327232399 117.314632272329 A45.52 45.52 0 0 0 175.738275941926 78.8104634111023 Z M202.91 103.46 L213.09 103.46 L213.09 99.71 L209.61 99.71 L209.606253386365 88.0992137035501 A12.85 12.85 0 0 0 211.767440138438 87.6353121573401 L211.77 87.63 L233.94 134.26 L152.4 134.26 L151.18 129.61 L199.861352912874 85.2940898824991 A12.85 12.85 0 0 0 206.393758184455 88.0992151613342 L206.4 88.1 L206.4 99.71 L202.91 99.71 Z M303.334568831868 93.4449764949087 A38.29 38.29 0 1 0 231.345902607315 73.4756695545218 L231.34 73.47 L260.951168283471 73.4748502530462 A8.84 8.84 0 1 1 277.960324894077 78.1931076602202 L277.96 78.1900000000001 Z M132.525639185365 80.8234535838999 A5.89 5.89 0 1 1 135.995898424113 73.6719264066796 L135.99 73.67 L168.906368891447 74.8208328178853 A38.56 38.56 0 1 0 142.697400715327 111.87964954082 L142.69 111.88 L137.375773404734 91.4586021011823 A22.8 22.8 0 0 0 132.521682062807 80.8222316414267 Z" style="fill:rgb(0,0,0);"/>
<path d=" M259.201940331442 143.308731102323 A11.13 11.13 0 0 0 270.5 132.179999222979 L270.501483616561 132.175273953015 A2.42 2.42 0 0 1 275.338516383439 132.175273953015 L275.34 132.179999721271 A15.97 15.97 0 0 1 259.201931696206 148.149115599972 L259.200727302271 148.137531691112 A2.42 2.42 0 0 1 259.200727302271 143.302468308888 Z" style="fill:rgb(0,0,0);"/>
</g>
</svg>