<?xml version="1.0" encoding="UTF-8"?><svg xmlns="http://www.w3.org/2000/svg" xmlns:xlink="http://www.w3.org/1999/xlink" height="400" viewBox="0.0 0.0 401.0 401.0" width="400">
<!--Aangemaakt vanuit SIMaD (https://www.dlw.be).-->
<g style="stroke:none;fill-rule:evenodd;" transform="matrix(1,0,0,-1,0,400)">
<path d=" M45 0 L355 0 A45 45 0 0 1 400 45 L400 355 A45 45 0 0 1 355 400 L45 400 A45 45 0 0 1 0 355 L0 45 A45 45 0 0 1 45 0 Z" style="fill:rgb(255,255,255);stroke:rgb(0,0,0);"/>
<path d=" M284.17 315.2699983559 A31.4 31.4 0 0 1 252.620615431271 346.669644651662 L252.62 346.67 A2.15 2.15 0 0 1 252.62 342.37 L252.620609161432 342.369588232616 A27.1 27.1 0 0 0 279.87 315.269999527016 A2.15 2.15 0 0 1 284.17 315.27 Z" style="fill:rgb(0,0,0);"/>
<path d=" M275.57 315.270000397935 A22.8 22.8 0 0 1 252.620599530815 338.069510510092 L252.623907739861 338.075200817188 A2.16 2.16 0 1 1 252.623907739861 333.764799182812 L252.620665964919 333.759396943815 A18.49 18.49 0 0 0 271.26 315.270000968134 L271.264506352581 315.270547011739 A2.16 2.16 0 0 1 275.575493647419 315.270547011739 Z" style="fill:rgb(0,0,0);"/>
<path d=" M178.54920136542 264.495754360792 A40.47 40.47 0 0 0 178.153835255397 259.101227750801 L178.15 259.11 L179.559932390913 258.903008564629 A41.89 41.89 0 0 1 154.120137960834 303.447365210017 L154.13 303.45 L155.66 309.35 L197.626369880882 271.130098726803 A11.43 11.43 0 0 1 205.681244414804 253.409649146619 L205.68 253.42 L205.68 243.09 L202.59 243.09 L202.59 239.76 L211.64 239.76 L211.64 243.09 L208.54 243.09 L208.538748261917 253.409648223972 A11.43 11.43 0 0 1 218.417804093796 263.083126706574 L218.42 263.09 L220.003145765367 263.083910692466 A41.89 41.89 0 0 1 220.631163030642 257.336829143063 L220.63 257.34 L222.028745599598 257.588151573063 A40.47 40.47 0 0 0 221.424324627052 263.083549540611 L221.43 263.09 L223.816461475927 263.083993827321 A38.08 38.08 0 1 1 295.325351527478 282.920213183734 L295.33 282.93 L297.367081780103 284.147390119835 A40.46 40.46 0 0 0 298.696238458423 281.48628203139 L298.7 281.49 L299.99814553306 282.077837582893 A41.89 41.89 0 0 1 244.215785261753 302.742812297468 L244.21 302.75 L235.29 320.12 L237.329277361874 324.408643412864 A1.53 1.53 0 0 0 238.587482706391 325.217200232577 L238.583594115665 325.222663244303 A3.76 3.76 0 0 1 240.449609544474 326.156471246625 L240.458298005377 326.151296052973 A2.07 2.07 0 0 1 239.162812642983 329.651000554271 L239.160432813966 329.653104940974 A57.02 57.02 0 0 1 221.470710497198 329.39417443571 L221.46716308858 329.394080826773 A1.88 1.88 0 0 1 221.755758497458 325.754781115843 L221.76 325.76 L231.467078453102 325.359168511788 A1.55 1.55 0 0 0 233.019273875244 323.093646742574 L233.01 323.1 L231.76 320.45 L158.55 320.45 L160.595229277873 328.312850583774 A25.62 25.62 0 0 1 169.229961393906 329.231981018514 L169.235163603006 329.238395128641 A12.96 12.96 0 0 0 174.884836396994 329.238395128641 L174.883931173321 329.238362233537 A1.98 1.98 0 0 1 175.814340025288 332.713759922184 L175.809501616797 332.712465417122 A8.86 8.86 0 0 1 170.780717862605 333.209402939457 L170.782095059303 333.209444676825 A42.77 42.77 0 0 0 158.267970407497 332.594949448081 L158.27 332.59 L150.978274471476 304.604819227522 A41.89 41.89 0 0 1 126.996647791484 305.147170740313 L127 305.15 L127.375037923652 303.768141766926 A40.46 40.46 0 0 0 150.61711577385 303.218588849516 L150.62 303.23 L150.016175972854 300.910947210286 A38.08 38.08 0 1 1 176.158506228783 264.412711718921 L176.17 264.42 Z M247.806449384273 295.753537138385 A34.04 34.04 0 0 0 290.142311604831 283.692873337676 L290.14 283.7 L267.57731321963 270.129110479312 A7.85 7.85 0 0 1 259.835774500029 272.334524449513 L259.83 272.34 Z M244.842129105055 294.230733881689 A34.04 34.04 0 0 1 227.860808110995 266.416298561069 L227.86 266.42 L254.188639430624 266.415150748319 A7.85 7.85 0 0 0 256.873478172941 270.81276340197 L256.87 270.82 Z M242.994333902349 297.828286574307 A38.08 38.08 0 0 1 223.816462406407 266.416027420199 L223.81 266.42 L221.434315389533 266.416020340529 A40.46 40.46 0 0 0 241.905833334873 299.947199216704 L241.9 299.96 Z M241.251818064718 301.220192449757 A41.89 41.89 0 0 1 220.003145329187 266.416078349435 L220 266.42 L218.417804326535 266.416871714558 A11.43 11.43 0 0 1 213.471754587354 274.245945375279 L213.47 274.25 L233.49 316.34 Z M295.65 287.01 L293.608857203165 285.776090133286 A38.08 38.08 0 0 1 245.958174218513 299.350843007291 L245.96 299.36 L244.869650257955 301.469744220827 A40.46 40.46 0 0 0 295.650605384818 287.003237690896 Z M142.569939984435 267.451488281702 A5.24 5.24 0 0 0 142.986460970175 266.589630601004 L142.99 266.59 L172.240461418227 267.610292938459 A34.28 34.28 0 0 1 152.180651577359 295.995640097363 L152.18 296 L147.616387622804 278.457691600111 A23.46 23.46 0 0 0 142.57056618797 267.451263387081 Z M178.43 267.83 L176.042219554495 267.742705547885 A38.08 38.08 0 0 1 153.14953935196 299.721350899268 L153.16 299.73 L153.755874337057 302.049846698998 A40.46 40.46 0 0 0 178.422918378962 267.82579854159 Z M202.59 289.75 L211.64 289.75 L211.64 286.42 L208.54 286.42 L208.538753012152 276.090351177555 A11.43 11.43 0 0 0 210.46111601419 275.677713459797 L210.46 275.68 L230.17 317.12 L157.68 317.12 L156.61 312.99 L199.870720917833 273.595209911048 A11.43 11.43 0 0 0 205.681257280025 276.090352474245 L205.68 276.09 L205.68 286.42 L202.59 286.42 Z M291.859089136506 280.83652389362 A34.04 34.04 0 1 0 227.860807645678 263.083710933296 L227.86 263.09 L254.18863925625 263.084850055024 A7.85 7.85 0 1 1 269.292924255487 267.274705331757 L269.3 267.28 Z M140.015543180189 269.619422203673 A5.24 5.24 0 1 1 143.102836628583 263.257112796435 L143.1 263.26 L172.35677193764 264.279568777628 A34.28 34.28 0 1 0 149.056890469953 297.225010017099 L149.06 297.23 L144.341751180437 279.073752832937 A20.27 20.27 0 0 0 140.026293433979 269.617646014805 Z" style="fill:rgb(0,0,0);"/>
<path d=" M252.620663960284 325.158872470977 A9.89 9.89 0 0 0 262.66 315.269999309548 L262.671318089094 315.274726859084 A2.15 2.15 0 0 1 266.968681910906 315.274726859084 L266.96 315.269999752338 A14.19 14.19 0 0 1 252.620664418858 329.459214174302 L252.622918884249 329.457807080947 A2.15 2.15 0 0 1 252.622918884249 325.162192919053 Z" style="fill:rgb(0,0,0);"/>
<path d=" M181.1 167.36 L153.227038107949 173.267435979336 A2.88 2.88 0 0 1 152.032960810233 167.63256424991 L152.03 167.63 L163.15 165.27 L146.755106079073 87.8952054487254 A17.29 17.29 0 1 1 152.393238597568 86.7004371620416 L152.39 86.7 L153.91 93.85 L172.21 67.63 L236.915421834774 67.7171642882331 A17.29 17.29 0 1 1 236.908264617521 73.4804930424528 L236.91 73.48 L233.266107818074 73.4756831691915 A20.89 20.89 0 0 0 260.802753146865 90.3574980524652 L260.802467805586 90.3591672793031 A2.16 2.16 0 0 1 262.217532194414 94.4408327206969 L262.217818295901 94.4391632303044 A25.21 25.21 0 0 1 228.911619224143 73.4700386852944 L228.91 73.47 L175.22 73.4 L161.19 93.49 L168.13 126.22 L164.7 130.16 L161.73 130.79 L168.79 164.08 L179.906614855239 161.721726218264 A2.88 2.88 0 0 1 181.10047648664 167.35558021456 Z M253.97 67.74 L244.294190701647 67.7251372039636 A10.09 10.09 0 1 1 244.287030577789 73.490847010372 L244.29 73.49 L253.956423461046 73.4999977792299 A2.88 2.88 0 0 0 253.963576538954 67.7400022207701 Z M143.22 71.22 L145.224284306653 80.6769730986827 A10.09 10.09 0 1 1 150.864746143478 79.4817111581792 L150.86 79.48 L148.857435854292 70.0229613019685 A2.88 2.88 0 1 0 143.222564145708 71.2170386980315 Z" style="fill:rgb(0,0,0);"/>
<path d=" M224.259977616833 130.606049495909 A29.03 29.03 0 0 1 195.055840134545 159.599477576099 L195.057528710931 159.59999846551 A1.99 1.99 0 1 1 195.062471289069 155.62000153449 L195.060734541723 155.629428349518 A25.06 25.06 0 0 0 220.289980677302 130.601119981557 L220.29000153449 130.597528710931 A1.99 1.99 0 0 1 224.26999846551 130.602471289069 Z" style="fill:rgb(0,0,0);"/>
<path d=" M216.30998374474 130.596178646092 A21.08 21.08 0 0 1 195.065692850782 151.649359647786 L195.070115767258 151.645741646617 A1.99 1.99 0 1 1 195.075047363759 147.674587647479 L195.07065736516 147.669257584022 A17.1 17.1 0 0 0 212.329986813066 130.591236595393 L212.334312765245 130.589056478852 A1.99 1.99 0 0 1 216.306006333067 130.593988710759 Z" style="fill:rgb(0,0,0);"/>
<path d=" M195.080476178479 139.718778204044 A9.15 9.15 0 0 0 204.37999294542 130.581362163814 L204.381308054009 130.577858860913 A1.99 1.99 0 0 1 208.358864989424 130.582798408931 L208.349989883443 130.586292892915 A13.12 13.12 0 0 1 195.075633216286 143.689091847231 L195.077674826263 143.687857153393 A1.99 1.99 0 0 1 195.082612397856 139.711919667873 Z" style="fill:rgb(0,0,0);"/>
</g>
</svg>