<?xml version="1.0" encoding="UTF-8" standalone="no"?>
<!DOCTYPE svg PUBLIC "-//W3C//DTD SVG 1.1//EN" "http://www.w3.org/Graphics/SVG/1.1/DTD/svg11.dtd">
<svg xmlns="http://www.w3.org/2000/svg" xmlns:xlink="http://www.w3.org/1999/xlink" version="1.1" width="700pt" height="400pt" viewBox="0 0 700 400">
<g enable-background="new">
<g id="Layer-1" data-name="Laag 1">
<clipPath id="cp0">
<path transform="matrix(1,0,0,-1,0,400)" d="M 0 400 L 700 400 L 700 0 L 0 0 Z "/>
</clipPath>
<g clip-path="url(#cp0)">
<path transform="matrix(1,0,0,-1,45.2619,399.0025)" d="M 0 0 L 608.479 0 C 633.27 0 653.366 20.097 653.367 44.888 L 653.367 354.115 C 653.367 378.905 633.27 399.002 608.479 399.002 L 0 399.002 C -24.791 399.003 -44.888 378.906 -44.888 354.115 L -44.888 44.888 C -44.888 20.097 -24.791 0 0 0 Z " fill="#ffffff" fill-rule="evenodd"/>
<path transform="matrix(1,0,0,-1,45.2619,399.0025)" stroke-width=".998" stroke-linecap="butt" stroke-miterlimit="3.99" stroke-linejoin="miter" fill="none" stroke="#000000" d="M 0 0 L 608.479 0 C 633.27 0 653.366 20.097 653.367 44.888 L 653.367 354.115 C 653.367 378.905 633.27 399.002 608.479 399.002 L 0 399.002 C -24.791 399.003 -44.888 378.906 -44.888 354.115 L -44.888 44.888 C -44.888 20.097 -24.791 0 0 0 Z "/>
<path transform="matrix(1,0,0,-1,342.3391,54.54361)" d="M 0 0 L 0 -17.396 C .006 -21.352 3.217 -24.554 7.172 -24.548 C 11.12 -24.543 14.319 -21.344 14.324 -17.396 L 14.324 0 C 14.319 3.956 11.107 7.158 7.152 7.152 C 3.204 7.146 .006 3.948 0 0 M -8.229 -.748 L -8.229 -16.648 C -8.221 -25.149 -1.323 -32.033 7.178 -32.024 C 15.666 -32.016 22.545 -25.137 22.554 -16.648 L 22.554 -.748 C 22.545 7.752 15.647 14.636 7.147 14.628 C -1.342 14.619 -8.221 7.74 -8.229 -.748 " fill-rule="evenodd"/>
<path transform="matrix(1,0,0,-1,194.9476,85.68579)" d="M 0 0 L 8.229 0 L 8.229 37.406 L 19.501 37.406 L 19.501 44.888 L -11.272 44.888 L -11.272 37.406 L 0 37.406 Z " fill-rule="evenodd"/>
<path transform="matrix(1,0,0,-1,303.2169,207.0424)" d="M 0 0 L -2.338 -1.407 C -14.234 16.556 -37.446 23.169 -57.022 14.172 L -57.027 14.175 L -58.272 16.605 C -37.414 26.256 -12.634 19.197 .007 .003 Z M -54.896 10.033 C -37.501 17.918 -16.955 12.064 -6.326 -3.804 L -6.324 -3.8 L -32.205 -19.357 C -34.478 -16.941 -37.894 -15.968 -41.098 -16.824 L -41.097 -16.828 Z M -4.357 -7.081 C 5.836 -26.089 -1.31 -49.76 -20.318 -59.953 C -39.325 -70.145 -62.997 -62.999 -73.189 -43.991 C -75.927 -38.886 -77.495 -33.234 -77.779 -27.448 L -77.786 -27.451 L -47.585 -27.449 C -46.529 -32.316 -41.727 -35.405 -36.86 -34.348 C -31.993 -33.292 -28.904 -28.49 -29.961 -23.623 C -30.033 -23.289 -30.125 -22.96 -30.235 -22.636 L -30.234 -22.633 Z M -62.421 16.314 C -76.918 8.123 -86.143 -6.987 -86.805 -23.624 L -86.803 -23.621 L -88.629 -23.625 C -89.168 -19.966 -91.228 -16.705 -94.301 -14.647 L -94.294 -14.643 L -71.332 33.656 Z M -60.423 12.425 C -73.465 4.987 -81.775 -8.625 -82.432 -23.624 L -82.434 -23.621 L -85.168 -23.624 C -84.507 -7.6 -75.625 6.949 -61.673 14.858 L -61.676 14.853 Z M -58.297 8.286 C -69.791 1.65 -77.129 -10.368 -77.779 -23.624 L -77.786 -23.621 L -47.585 -23.623 C -47.155 -21.64 -46.068 -19.861 -44.501 -18.572 L -44.499 -18.574 Z M -178.58 -19.956 C -181.662 -18.731 -185.153 -20.236 -186.378 -23.318 C -187.603 -26.4 -186.098 -29.891 -183.016 -31.116 C -179.934 -32.341 -176.443 -30.836 -175.218 -27.754 C -175.152 -27.588 -175.093 -27.419 -175.042 -27.247 L -175.042 -27.252 L -141.47 -26.076 C -141.768 -47.796 -159.618 -65.162 -181.338 -64.864 C -203.058 -64.566 -220.424 -46.717 -220.126 -24.996 C -219.828 -3.276 -201.978 14.09 -180.258 13.792 C -176.157 13.736 -172.089 13.038 -168.203 11.725 L -168.209 11.721 L -173.627 -9.104 C -174.307 -13.089 -176.013 -16.828 -178.578 -19.952 Z M -134.504 -22.005 L -137.232 -22.102 C -138.506 -5.943 -148.619 8.183 -163.504 14.597 L -163.501 14.594 L -162.808 17.271 C -146.752 10.523 -135.822 -4.641 -134.498 -22.006 Z M -175.653 -22.44 C -175.464 -22.754 -175.304 -23.085 -175.175 -23.428 L -175.172 -23.421 L -141.603 -22.254 C -142.795 -8.025 -151.604 4.441 -164.619 10.314 L -164.618 10.314 L -169.859 -9.809 C -170.65 -14.452 -172.646 -18.806 -175.647 -22.436 Z M -106.783 3.142 L -96.399 3.142 L -96.399 -.678 L -99.95 -.678 L -99.958 -12.532 C -99.211 -12.626 -98.473 -12.784 -97.753 -13.005 L -97.746 -12.997 L -75.132 34.554 L -158.314 34.554 L -159.541 29.815 L -109.898 -15.393 C -107.99 -13.832 -105.68 -12.84 -103.234 -12.532 L -103.232 -12.529 L -103.232 -.678 L -106.783 -.678 Z M -82.432 -27.448 C -81.376 -51.56 -60.973 -70.251 -36.861 -69.195 C -12.749 -68.139 5.942 -47.736 4.886 -23.624 C 4.595 -16.994 2.799 -10.517 -.368 -4.684 L -.369 -4.688 L 1.977 -3.275 C 2.522 -4.274 3.031 -5.292 3.502 -6.329 L 3.501 -6.324 L 4.991 -5.652 C -5.99 18.518 -34.487 29.21 -58.657 18.228 C -58.778 18.173 -58.899 18.118 -59.02 18.062 L -59.022 18.065 L -69.257 37.995 L -66.916 42.909 C -66.629 43.449 -66.083 43.8 -65.473 43.837 L -65.479 43.843 C -64.678 43.991 -63.935 44.363 -63.336 44.915 L -63.34 44.914 C -62.429 45.856 -62.455 47.359 -63.397 48.27 C -63.785 48.645 -64.289 48.877 -64.826 48.927 L -64.822 48.936 C -71.562 49.893 -78.411 49.793 -85.12 48.638 L -85.118 48.638 C -86.248 48.263 -86.859 47.043 -86.484 45.914 C -86.231 45.154 -85.578 44.597 -84.788 44.467 L -84.788 44.469 L -73.656 44.008 C -72.682 44.123 -71.799 43.428 -71.683 42.454 C -71.641 42.095 -71.708 41.732 -71.878 41.412 L -71.87 41.416 L -73.317 38.374 L -157.317 38.374 L -154.965 47.392 C -151.626 47.178 -148.275 47.534 -145.057 48.447 L -145.055 48.451 C -142.922 48.927 -140.709 48.927 -138.576 48.451 L -138.579 48.452 C -137.341 48.663 -136.509 49.839 -136.721 51.077 C -136.812 51.612 -137.092 52.097 -137.51 52.444 L -137.504 52.443 C -139.331 53.189 -141.336 53.387 -143.273 53.013 L -143.277 53.01 C -148.003 52.071 -152.841 51.834 -157.637 52.305 L -157.636 52.309 L -165.997 20.198 C -174.913 23.084 -184.479 23.3 -193.516 20.821 L -193.516 20.818 L -193.084 19.243 C -184.322 21.647 -175.048 21.428 -166.41 18.612 L -166.414 18.613 L -167.1 15.962 C -190.019 23.527 -214.731 11.081 -222.296 -11.838 C -229.862 -34.757 -217.415 -59.469 -194.496 -67.035 C -171.577 -74.6 -146.865 -62.153 -139.3 -39.234 C -137.881 -34.938 -137.139 -30.447 -137.099 -25.923 L -137.097 -25.925 L -134.365 -25.828 C -134.378 -27.899 -134.53 -29.967 -134.819 -32.017 L -134.823 -32.02 L -133.199 -32.246 C -130.14 -10.545 -142.146 10.478 -162.392 18.87 L -162.394 18.873 L -160.628 25.636 L -112.471 -18.22 C -116.512 -24.226 -114.919 -32.371 -108.912 -36.411 C -107.212 -37.555 -105.267 -38.284 -103.234 -38.541 L -103.232 -38.544 L -103.232 -50.394 L -106.783 -50.394 L -106.783 -54.214 L -96.399 -54.214 L -96.399 -50.394 L -99.95 -50.394 L -99.958 -38.541 C -94.119 -37.805 -89.487 -33.269 -88.629 -27.448 L -88.618 -27.451 L -86.805 -27.448 C -86.717 -29.66 -86.476 -31.864 -86.084 -34.043 L -86.085 -34.045 L -84.474 -33.753 C -84.849 -31.67 -85.08 -29.563 -85.168 -27.448 L -85.167 -27.451 Z " fill-rule="evenodd"/>
<path transform="matrix(1,0,0,-1,126.2594,40.798006)" d="M 0 0 L 0 -30.394 C .001 -38.895 6.893 -45.784 15.394 -45.783 C 23.893 -45.782 30.782 -38.893 30.783 -30.394 L 30.783 0 L 22.554 0 L 22.554 -31.142 C 22.554 -35.098 19.347 -38.304 15.392 -38.304 C 11.436 -38.304 8.229 -35.098 8.229 -31.142 L 8.229 0 Z " fill-rule="evenodd"/>
<path transform="matrix(1,0,0,-1,0,400)" d="M 167.367 314.314 L 175.59601 314.314 L 175.59601 359.202 L 167.367 359.202 Z " fill-rule="evenodd"/>
<path transform="matrix(1,0,0,-1,242.389,71.940097)" d="M 0 0 L 0 5.706 L -7.162 5.706 L -7.162 13.187 L 8.229 13.187 L 8.229 .748 C 8.231 -7.752 1.341 -14.644 -7.16 -14.646 C -15.66 -14.647 -22.552 -7.757 -22.554 .743 L -22.554 .748 L -22.554 16.648 C -22.554 25.149 -15.663 32.04 -7.162 32.04 C -.209 32.04 5.88 27.379 7.695 20.667 L 7.701 20.668 L -.791 20.668 C -2.597 24.186 -6.914 25.574 -10.433 23.768 C -12.822 22.542 -14.324 20.082 -14.324 17.396 L -14.324 0 C -14.324 -3.956 -11.118 -7.162 -7.162 -7.162 C -3.207 -7.162 0 -3.956 0 0 " fill-rule="evenodd"/>
<path transform="matrix(1,0,0,-1,260.4937,85.68579)" d="M 0 0 L 27.571 0 L 27.571 7.481 L 8.229 7.481 L 8.229 19.451 L 21.167 19.451 L 21.167 26.933 L 8.229 26.933 L 8.229 37.406 L 27.571 37.406 L 27.571 44.888 L 0 44.888 Z " fill-rule="evenodd"/>
<path transform="matrix(1,0,0,-1,294.798,85.68579)" d="M 0 0 L 30.783 0 L 30.783 7.481 L 9.387 7.481 L 29.885 37.406 L 29.885 44.888 L .898 44.888 L .898 37.406 L 20.499 37.406 L 0 7.481 Z " fill-rule="evenodd"/>
<path transform="matrix(1,0,0,-1,529.611,248.1097)" d="M 0 0 L -10.703 -1.157 L -10.703 1.955 L -.2 5.626 Z M -45.556 9.805 L -38.362 7.698 C -38.242 4.463 -37.249 1.321 -35.488 -1.394 L -35.486 -1.392 C -34.393 -3.077 -32.911 -4.476 -31.165 -5.47 L -31.159 -5.475 C -33.066 -6.401 -35.306 -6.334 -37.154 -5.296 L -37.16 -5.289 C -39.897 -3.752 -42.258 -1.627 -44.073 .935 L -44.073 .929 C -45.898 3.504 -46.445 6.771 -45.56 9.801 Z M -13.053 -1.499 C -16.747 -1.86 -20.375 -2.725 -23.835 -4.07 L -23.83 -4.07 L -13.067 .678 Z M 48.15 20.369 L 45.313 46.63 C 30.247 43.53 19.1 30.761 18.063 15.415 L 18.065 15.411 L 44.207 15.416 C 44.815 17.523 46.229 19.306 48.143 20.376 Z M 85.506 40.036 C 81.271 45.272 75.861 49.435 69.716 52.188 L 69.716 52.18 L 80.878 52.18 Z M 18.005 11.99 L 43.955 11.994 C 44.41 8.618 46.876 5.859 50.18 5.029 L 50.185 5.027 L 19.739 2.293 C 18.695 5.426 18.11 8.694 18.003 11.995 Z M 7.84 11.99 L 9.401 11.995 C 9.448 10.187 9.609 8.383 9.885 6.595 L 9.895 6.594 L 7.84 7.152 Z M 10.494 33.666 L 17.815 62.194 L 22.451 62.199 C 23.516 58.858 25.334 55.806 27.764 53.277 L 27.764 53.27 C 28.434 52.573 29.36 52.179 30.327 52.18 L 30.324 52.18 L 34.702 52.188 C 20.06 45.629 10.313 31.435 9.449 15.415 L 9.456 15.411 L 7.761 15.401 L 7.758 29.038 C 8.063 29.05 8.345 29.201 8.523 29.449 L 8.529 29.445 C 9.441 30.716 10.108 32.146 10.497 33.661 Z M 68.06 -4.11 L 22.627 -4.103 C 32.132 -20.441 53.082 -25.98 69.42 -16.475 C 85.758 -6.97 91.297 13.98 81.792 30.318 C 75.378 41.342 63.367 47.885 50.627 47.295 L 50.633 47.292 L 53.361 21.356 C 57.917 20.721 61.094 16.512 60.459 11.956 C 60.065 9.132 58.254 6.707 55.659 5.526 L 55.661 5.526 L 67.939 6.628 C 68.917 6.51 69.676 5.716 69.75 4.733 L 69.746 4.728 L 70.232 -1.763 C 70.36 -2.924 69.522 -3.969 68.362 -4.097 C 68.263 -4.108 68.164 -4.112 68.064 -4.109 Z M -97.087 15.392 L -71.28 15.394 C -71.81 26.663 -77.898 36.934 -87.53 42.809 L -87.531 42.803 L -99.19 19.491 C -98.117 18.353 -97.387 16.935 -97.084 15.4 Z M -101.786 21.347 L -91.567 44.914 C -108.753 52.459 -128.802 44.642 -136.346 27.455 C -143.89 10.269 -136.073 -9.779 -118.887 -17.323 C -101.7 -24.868 -81.652 -17.051 -74.108 .135 C -72.464 3.88 -71.51 7.89 -71.291 11.974 L -71.292 11.97 L -97.13 11.973 C -98.137 7.501 -102.578 4.692 -107.049 5.699 C -111.521 6.705 -114.33 11.146 -113.324 15.618 C -112.317 20.09 -107.876 22.899 -103.405 21.892 C -102.847 21.767 -102.304 21.584 -101.784 21.347 Z M -50.105 47.132 L -57.854 46.965 C -60.963 46.899 -63.979 48.027 -66.281 50.117 L -66.277 50.117 C -70.878 54.294 -73.976 59.87 -75.091 65.983 L -75.092 65.985 L -83.414 50.542 C -64.893 39.548 -57.449 16.49 -66.044 -3.259 L -66.055 -3.262 L -68.539 -2.142 C -77.341 -22.404 -100.902 -31.694 -121.164 -22.892 C -141.426 -14.091 -150.717 9.47 -141.915 29.733 C -137.58 39.712 -129.367 47.495 -119.169 51.287 L -119.172 51.282 L -119.166 54.191 C -108.943 57.719 -97.763 57.239 -87.88 52.849 L -87.88 52.838 L -70.934 89.631 C -70.248 90.979 -69.164 92.083 -67.827 92.791 L -67.82 92.788 L -66.609 93.589 C -65.92 94.041 -65.296 94.586 -64.755 95.209 L -64.761 95.21 C -64.049 96.029 -64.136 97.27 -64.955 97.982 C -65.342 98.318 -65.846 98.49 -66.357 98.461 L -66.348 98.463 C -67.352 98.405 -68.33 98.121 -69.208 97.631 L -69.213 97.631 C -70.643 96.834 -72.116 96.116 -73.625 95.48 L -73.631 95.488 C -74.559 95.097 -75.527 94.809 -76.518 94.631 L -76.51 94.628 C -77.301 94.486 -78.071 94.964 -78.293 95.736 L -78.294 95.731 L -81.407 103.98 C -79.481 104.681 -77.591 105.479 -75.746 106.369 L -75.746 106.364 C -73.903 107.254 -71.895 107.75 -69.85 107.821 L -69.853 107.827 C -68.387 107.878 -66.95 107.409 -65.795 106.504 L -65.801 106.5 C -64.649 105.597 -63.452 104.754 -62.213 103.975 L -62.206 103.982 C -60.988 103.215 -59.629 102.7 -58.209 102.467 L -58.214 102.464 L -58.208 117.066 C -59.751 118.286 -60.013 120.525 -58.794 122.068 C -58.582 122.337 -58.331 122.574 -58.051 122.771 L -58.061 122.771 C -56.76 123.688 -55.01 123.63 -53.772 122.631 L -53.771 122.634 C -52.857 121.895 -52.071 121.01 -51.446 120.015 L -51.451 120.01 L -45.097 120.01 L -45.097 117.935 L -55.162 117.935 L -55.152 102.783 C -55.152 101.088 -55.41 99.402 -55.918 97.785 L -55.924 97.788 C -56.423 96.2 -56.894 94.604 -57.34 93 L -57.337 92.997 L -56.226 92.236 C -55.887 92.004 -55.773 91.557 -55.959 91.191 L -55.96 91.192 L -65.566 71.322 L -63.026 68.095 C -62.745 67.739 -62.262 67.614 -61.844 67.789 L -61.845 67.791 L -61.247 68.166 C -60.638 68.552 -59.843 68.472 -59.323 67.972 L -59.324 67.97 C -58.888 67.551 -58.542 67.046 -58.308 66.488 L -58.308 66.491 C -58.139 66.087 -58.144 65.63 -58.322 65.228 L -58.323 65.234 C -58.572 64.673 -58.547 64.028 -58.257 63.488 L -58.254 63.491 L -30.743 35.611 L -.359 35.611 C 2.353 35.611 4.675 37.556 5.15 40.227 L 5.147 40.229 L 14.414 79.072 L -10.314 86.683 L -10.314 88.997 L 24.489 89.007 C 26.654 89.007 28.409 87.252 28.409 85.087 C 28.409 84.28 28.16 83.492 27.695 82.831 L 27.689 82.829 C 27.21 82.148 26.647 81.529 26.015 80.988 L 22.081 77.807 C 21.549 77.378 21.146 76.809 20.915 76.165 L 20.908 76.17 L 18.594 65.307 L 77.325 65.325 C 77.491 63.958 78.734 62.984 80.101 63.15 C 80.222 63.165 80.342 63.189 80.46 63.221 L 80.459 63.222 L 84.938 63.222 L 84.978 52.17 L 82.833 52.17 L 94.234 21.516 L 91.325 21.52 C 95.971 -.083 82.225 -21.362 60.622 -26.008 C 42.495 -29.907 24.065 -20.841 16.09 -4.102 L 16.09 -4.11 L -10.713 -4.11 L -10.713 -12.608 L -8.399 -12.608 L -8.399 -15.681 L -15.97 -15.681 L -15.97 -12.608 L -13.027 -12.608 L -13.024 -4.972 C -15.68 -5.201 -18.302 -5.724 -20.843 -6.53 L -20.845 -6.532 C -23.627 -7.415 -26.414 -8.28 -29.207 -9.128 L -29.215 -9.121 C -33.436 -10.403 -37.994 -9.947 -41.877 -7.854 L -41.878 -7.854 C -43.617 -6.917 -45.019 -5.459 -45.888 -3.685 L -45.888 -3.683 C -49.419 3.524 -50.431 11.707 -48.763 19.557 L -48.765 19.558 C -47.301 26.449 -45.502 33.265 -43.375 39.981 L -43.372 39.98 Z " fill-rule="evenodd"/>
<path transform="matrix(1,0,0,-1,457.4214,85.68579)" d="M 0 0 L 27.581 0 L 27.581 7.481 L 8.229 7.481 L 8.229 19.451 L 21.167 19.451 L 21.167 26.933 L 8.229 26.933 L 8.229 37.406 L 27.581 37.406 L 27.581 44.888 L 0 44.888 Z " fill-rule="evenodd"/>
<path transform="matrix(1,0,0,-1,374.7681,85.68579)" d="M 0 0 L 7.481 0 L 7.481 29.815 L 21.157 0 L 30.783 0 L 30.783 44.888 L 23.302 44.888 L 23.302 15.072 L 9.616 44.888 L 0 44.888 Z " fill-rule="evenodd"/>
<path transform="matrix(1,0,0,-1,425.0025,78.2045)" d="M 0 0 L 9.825 0 C 12.305 0 14.314 2.01 14.314 4.489 L 14.314 25.436 C 14.314 27.915 12.305 29.925 9.825 29.925 L 0 29.925 Z M -8.229 -7.481 L 10.574 -7.481 C 17.184 -7.481 22.544 -2.122 22.544 4.489 L 22.544 25.436 C 22.544 32.047 17.184 37.406 10.574 37.406 L -8.229 37.406 Z " fill-rule="evenodd"/>
<path transform="matrix(1,0,0,-1,543.6259,78.2045)" d="M 0 0 L 9.835 0 C 12.314 0 14.324 2.01 14.324 4.489 L 14.324 25.436 C 14.324 27.915 12.314 29.925 9.835 29.925 L 0 29.925 Z M -8.229 -7.481 L 10.584 -7.481 C 17.194 -7.481 22.554 -2.122 22.554 4.489 L 22.554 25.436 C 22.554 32.047 17.194 37.406 10.584 37.406 L -8.229 37.406 Z " fill-rule="evenodd"/>
<path transform="matrix(1,0,0,-1,502.2094,58.753114)" d="M 0 0 L 9.825 0 C 12.305 0 14.314 2.01 14.314 4.489 L 14.314 5.985 C 14.314 8.464 12.305 10.474 9.825 10.474 L 0 10.474 Z M -8.229 -26.933 L 0 -26.933 L 0 -7.481 L 4.329 -7.481 L 15.601 -26.933 L 25.107 -26.933 L 13.611 -7.089 C 18.874 -5.709 22.544 -.952 22.544 4.489 L 22.544 5.985 C 22.544 12.596 17.184 17.955 10.574 17.955 L -8.229 17.955 Z " fill-rule="evenodd"/>
</g>
</g>
</g>
</svg>
