<?xml version="1.0" encoding="UTF-8"?><svg xmlns="http://www.w3.org/2000/svg" xmlns:xlink="http://www.w3.org/1999/xlink" height="200.000000000025" viewBox="0.0 0.0 701.0 201.00003051757812" width="700.000000002976">
<!--Gegenereerd door de SIMaD-toepassing (http://www.dlw.be).-->
<g style="stroke:none;fill-rule:evenodd;" transform="matrix(1,0,0,-1,0,200.000000000025)">
<path d=" M45 0 L654.999966227879 1.26760824059602E-11 A45 45 0 0 1 699.999999999987 45.000033772121 L699.999999999888 154.999899469035 A45 45 0 0 1 655.000033772121 199.999999999987 L45.000033772121 199.999999999987 A45 45 0 0 1 1.26760824059602E-11 154.999966227879 L1.26760824059602E-11 45.000033772121 A45 45 0 0 1 45.000033772121 1.26760824059602E-11 Z" style="fill:rgb(255,255,255);stroke:rgb(0,0,0);"/>
<path d=" M375.961947631185 79.9233122735714 A43.81 43.81 0 1 1 458.230970043883 102.744339398318 L458.23 102.74 L460.581577612887 104.157058644414 A46.55 46.55 0 0 0 462.110789685321 101.0954191242 L462.11 101.1 L463.603903118253 101.773808596707 A48.19 48.19 0 0 1 399.432173443015 125.546685267389 L399.43 125.55 L389.17 145.53 L391.516227466959 150.456674612871 A1.76 1.76 0 0 0 392.963575337864 151.386779380369 L392.957223628809 151.392162643049 A4.33 4.33 0 0 1 395.106120390726 152.467532867229 L395.101184397604 152.465839198447 A2.38 2.38 0 0 1 393.611689662017 156.489652652554 L393.615876488763 156.497903438702 A65.59 65.59 0 0 1 373.267447798287 156.200056718108 L373.268868408311 156.199795051902 A2.16 2.16 0 0 1 373.600446268069 152.018471865423 L373.6 152.02 L384.759935749417 151.55756131736 A1.78 1.78 0 0 0 386.542456712331 148.955865785474 L386.55 148.96 L385.1 145.91 L300.89 145.91 L303.248046826871 154.950793734092 A29.47 29.47 0 0 1 313.180382252897 156.008048511129 L313.182295539862 156.011747341348 A14.9 14.9 0 0 0 319.677704460137 156.011747341348 L319.674525903502 156.01265938729 A2.28 2.28 0 0 1 320.745905899559 160.014633298336 L320.752297662294 160.013763974209 A10.19 10.19 0 0 1 314.968644039533 160.585296804891 L314.964753459136 160.582643036242 A49.2 49.2 0 0 0 300.569228510239 159.875763278968 L300.57 159.88 L292.188068920294 127.688749281923 A48.19 48.19 0 0 1 264.599806929823 128.312665908825 L264.6 128.31 L265.033719383062 126.731109718572 A46.55 46.55 0 0 0 291.774207287618 126.098838034045 L291.77 126.1 L291.082248099244 123.442180978175 A43.81 43.81 0 1 1 321.158281490874 81.4519628672676 L321.16 81.4499999999998 L323.899081617533 81.5475952048336 A46.55 46.55 0 0 0 323.444312330814 75.3425489036577 L323.44 75.3400000000001 L325.068258380589 75.1136401283237 A48.19 48.19 0 0 1 295.802460368538 126.357219211756 L295.8 126.36 L297.57 133.14 L345.84756253201 89.1746068235845 A13.14 13.14 0 0 1 355.107499495199 68.8030604783284 L355.11 68.8000000000002 L355.11 56.9200000000001 L351.55 56.9200000000001 L351.55 53.0900000000001 L361.96 53.0900000000001 L361.96 56.9200000000001 L358.4 56.9200000000001 L358.392500504801 68.8030604783284 A13.14 13.14 0 0 1 369.749522482041 79.9237496930439 L369.76 79.9200000000001 L371.578130284493 79.9233511273949 A48.19 48.19 0 0 1 372.300599696038 73.3119236162836 L372.3 73.3100000000004 L373.9147157189 73.6021467455434 A46.55 46.55 0 0 0 373.219479471643 79.9232370565657 L373.22 79.9200000000001 Z M403.566771599305 117.497713719011 A39.15 39.15 0 0 0 452.257977963958 103.626535970095 L452.26 103.63 L426.314018745351 88.0345376874197 A9.04 9.04 0 0 1 417.398910678575 90.5742785950268 L417.4 90.5699999999997 Z M458.6 107.44 L456.256205787422 106.029923331315 A43.81 43.81 0 0 1 401.435362888896 121.647315319838 L401.43 121.65 L400.182278538675 124.086764203551 A46.55 46.55 0 0 0 458.606734569038 107.4427734679 Z M400.157455230546 115.746311967652 A39.15 39.15 0 0 1 380.626933755028 83.7564316427461 L380.62 83.7600000000002 L410.895720171058 83.7575765705574 A9.04 9.04 0 0 0 413.98755811523 88.8218307914219 L413.99 88.8199999999997 Z M454.232480570533 100.341387366357 A39.15 39.15 0 1 0 380.62693388882 79.9235656273451 L380.62 79.9200000000001 L410.89571997025 79.9224243545665 A9.04 9.04 0 1 1 428.289699318645 84.747429719596 L428.29 84.75 Z M279.573657702932 87.4342601316164 A6.02 6.02 0 1 1 283.120510633547 80.1248886251566 L283.12 80.1199999999999 L316.77628693717 81.2988915562156 A39.43 39.43 0 1 0 289.975983134049 119.193841166588 L289.97 119.19 L284.538520215705 98.3128953682018 A23.31 23.31 0 0 0 279.575854106586 87.4386139658852 Z M396.022473443274 123.795086515966 A48.19 48.19 0 0 1 371.57813021759 83.756647191788 L371.58 83.7600000000002 L369.749522716155 83.7562487187651 A13.14 13.14 0 0 1 364.063515052973 92.7565973439505 L364.07 92.7600000000002 L387.09 141.18 Z M398.025594953895 119.895681594141 A43.81 43.81 0 0 1 375.96194756428 83.7566861986356 L375.96 83.7600000000002 L373.21947943819 83.7567621316729 A46.55 46.55 0 0 0 396.772374117899 122.335060363673 L396.77 122.33 Z M351.55 110.59 L361.96 110.59 L361.96 106.76 L358.4 106.76 L358.392499367114 94.8769396650071 A13.14 13.14 0 0 0 360.602470218534 94.4025663467029 L360.61 94.4099999999999 L383.28 142.08 L299.89 142.08 L298.66 137.33 L348.427684667077 92.0085135344059 A13.14 13.14 0 0 0 355.107500405349 94.87693963634 L355.11 94.8800000000001 L355.11 106.76 L351.55 106.76 Z M282.508286525173 84.9436237085406 A6.02 6.02 0 0 0 282.986814022516 83.9534634313302 L282.99 83.96 L316.642500896485 85.1300263372386 A39.43 39.43 0 0 1 293.569060087004 117.779768918208 L293.57 117.78 L288.316331466617 97.6061768320984 A26.98 26.98 0 0 0 282.513421513735 84.9483153311801 Z M323.76 85.3800000000001 L321.024498737081 85.2830016068458 A43.81 43.81 0 0 1 294.687070990705 122.073593792542 L294.69 122.07 L295.385415722371 124.754173413002 A46.55 46.55 0 0 0 323.765293452135 85.3787898711494 Z" style="fill:rgb(0,0,0);"/>
<path d=" M112.5 160 L112.5 75 L97.5 75 L117.5 40 L137.5 75 L122.5 75 L122.5 160 Z" style="fill:rgb(0,0,0);"/>
<path d=" M587.5 40 L587.5 125 L602.5 125 L582.5 160 L562.5 125 L577.5 125 L577.5 40 Z" style="fill:rgb(0,0,0);"/>
</g>
</svg>