<?xml version="1.0" encoding="UTF-8"?><svg xmlns="http://www.w3.org/2000/svg" xmlns:xlink="http://www.w3.org/1999/xlink" height="400.000000000025" viewBox="0.0 0.0 701.0 401.0000305175781" width="700.000000002976">
<!--Gegenereerd door de SIMaD-toepassing (http://www.dlw.be).-->
<g style="stroke:none;fill-rule:evenodd;" transform="matrix(1,0,0,-1,0,400.000000000025)">
<path d=" M45 0 L654.999966227879 1.26760824059602E-11 A45 45 0 0 1 699.999999999987 45.000033772121 L699.999999999888 354.999899469035 A45 45 0 0 1 655.000033772121 399.999999999987 L45.000033772121 399.999999999987 A45 45 0 0 1 1.26760824059602E-11 354.999966227879 L1.26760824059602E-11 45.000033772121 A45 45 0 0 1 45.000033772121 1.26760824059602E-11 Z" style="fill:rgb(255,255,255);stroke:rgb(0,0,0);"/>
<path d=" M587.5 94.52 L587.5 209.52 L602.5 209.52 L582.5 244.52 L562.5 209.52 L577.5 209.52 L577.5 94.52 Z" style="fill:rgb(0,0,0);"/>
<path d=" M112.5 244.52 L112.5 129.52 L97.5 129.52 L117.5 94.52 L137.5 129.52 L122.5 129.52 L122.5 244.52 Z" style="fill:rgb(0,0,0);"/>
<path d=" M326.34 129.13 L318.561119935145 128.962799320884 A12.18 12.18 0 0 0 310.112866806679 132.12205954362 L310.117018821546 132.12256328525 A28.36 28.36 0 0 0 301.280797629041 148.028427839628 L301.28 148.03 L292.937351594882 132.548628289146 A42.84 42.84 0 0 0 310.350484284869 78.6129489576087 L310.35 78.6099999999999 L307.849714460574 79.7330602367457 A40.1 40.1 0 1 0 257.093057923832 133.295304178621 L257.1 133.29 L257.096354272995 136.206948343007 A42.84 42.84 0 0 0 288.460464271536 134.861466797815 L288.46 134.86 L305.459050559304 171.735197510888 A7.36 7.36 0 0 0 308.573020799795 174.902917375559 L308.57 174.9 L309.794252193588 175.703170967129 A9 9 0 0 1 311.653348857616 177.326576307029 L311.646988560725 177.327806121252 A1.97 1.97 0 0 1 310.046690826295 180.586738678918 L310.045783539676 180.588941273667 A6.68 6.68 0 0 1 307.178965906407 179.755510031034 L307.183951530313 179.755366416743 A45.13 45.13 0 0 0 302.761007890626 177.598394184676 L302.754879196964 177.607176958472 A13.7 13.7 0 0 0 299.86055727906 176.747329963497 L299.858538181087 176.74490567224 A1.57 1.57 0 0 0 298.071279121374 177.85564840233 L298.07 177.85 L294.949608245866 186.120074781178 A61.2 61.2 0 0 1 300.624931927811 188.515413934998 L300.624820601355 188.520351974881 A14.78 14.78 0 0 0 306.535079241022 189.981027608531 L306.532604170359 189.986211915358 A6.24 6.24 0 0 0 310.600356739991 188.660433074058 L310.604763519238 188.646197089649 A42.55 42.55 0 0 1 314.20137502996 186.114875198508 L314.198159610498 186.121747146649 A10.82 10.82 0 0 1 318.205325870347 184.603225267023 L318.21 184.6 L318.206574113051 199.238991995194 A3.57 3.57 0 0 0 318.36388933959 204.958442898559 L318.363889390527 204.968442934445 A3.57 3.57 0 0 0 322.663206341161 204.827215387934 L322.654484769132 204.820529138584 A10.67 10.67 0 0 0 324.985856797731 202.194697518891 L324.99 202.2 L331.36 202.2 L331.36 200.11 L321.27 200.11 L321.27 184.92 A16.74 16.74 0 0 0 320.502394255129 179.908989946257 L320.505878813293 179.912848556391 A151.04 151.04 0 0 1 319.08691113173 175.112889583155 L319.08 175.11 L320.19364807182 174.346336059587 A0.82 0.82 0 0 0 320.461260557371 173.298977093384 L320.47 173.3 L310.83 153.39 L313.376673515497 150.144913534793 A1.01 1.01 0 0 1 314.561001412511 149.838754653481 L314.56 149.84 L315.159626562908 150.216149496184 A1.57 1.57 0 0 0 317.088302305579 150.021590955987 L317.087746703478 150.030168000157 A4.44 4.44 0 0 0 318.105776498137 148.544122188558 L318.115955581072 148.537701483488 A1.6 1.6 0 0 0 318.102644078244 147.271407446561 L318.100836455842 147.276687051841 A1.99 1.99 0 0 1 318.167680774278 145.526878941404 L318.16 145.53 L345.74 117.58 L376.199999902087 117.58 A5.61 5.61 0 0 1 381.723274100367 122.207379415943 L381.73 122.21 L391.01 161.15 L366.22 168.78 L366.22 171.1 L401.109999862817 171.11 A3.93 3.93 0 0 0 404.32412736883 164.918521444511 L404.328441945526 164.915602781902 A10 10 0 0 0 402.64977055779 163.070461678754 L402.65 163.07 L398.69662503844 159.881981011229 A3.73 3.73 0 0 1 397.527669506854 158.235561430961 L397.53 158.24 L395.21 147.35 L454.078262327858 147.378374194291 A2.5 2.5 0 0 1 457.221139127128 145.269005380641 L457.22 145.26 L461.71 145.26 L461.76 134.18 L459.6 134.18 L471.03 103.45 L468.123321785896 103.453711787566 A40.11 40.11 0 0 0 392.700048405933 77.7674203217214 L392.7 77.76 L365.82 77.76 L365.82 69.24 L368.14 69.24 L368.14 66.1700000000001 L360.55 66.1700000000001 L360.55 69.24 L363.5 69.24 L363.50325563124 76.8956895562309 A36.23 36.23 0 0 1 355.665102694095 75.3340864222157 L355.66340346593 75.3416095275923 A714.63 714.63 0 0 0 347.279743741198 72.7387094181058 L347.28171184613 72.7461474470471 A16.59 16.59 0 0 0 334.588675848837 74.0162211702822 L334.587355427903 74.0061810016396 A9.49 9.49 0 0 0 330.567416290917 78.1855938240653 L330.566801989562 78.1877277770081 A35.97 35.97 0 0 0 327.685507870343 101.48612289747 L327.683012087275 101.48709802462 A217.65 217.65 0 0 0 333.086542035893 121.961394766033 L333.09 121.96 Z M444.8 77.76 L399.253814957492 77.7663978043859 A34.31 34.31 0 1 1 427.323360761711 129.293293917094 L427.32 129.29 L430.064076322839 103.289861416074 A8.35 8.35 0 0 0 432.368154179968 87.4197585783364 L432.37 87.4200000000001 L444.668717042739 88.5250036089144 A2.07 2.07 0 0 0 446.484178507469 86.6251357125334 L446.48 86.6300000000001 L446.967218878008 80.1224405303846 A2.12 2.12 0 0 0 444.794408878097 77.7710149116317 Z M424.84 102.3 L421.996112496704 128.626164011856 A34.31 34.31 0 0 1 394.678065677721 97.3331736975856 L394.68 97.3299999999999 L420.887211706284 97.3345988840847 A8.35 8.35 0 0 0 424.833630263277 102.307366449516 Z M384.42 93.9000000000001 L385.994487067008 93.9048095686478 A42.93 42.93 0 0 1 386.479266907753 88.4917698221884 L386.48 88.49 L384.42 89.0499999999999 Z M387.09 115.63 L394.43 144.23 L399.066872632243 144.234793380879 A22.99 22.99 0 0 1 404.393181316195 135.29049334335 L404.393080923639 135.283316709544 A3.56 3.56 0 0 1 406.963066733706 134.190001320907 L406.97 134.19 L411.358844265721 134.198333711263 A42.93 42.93 0 0 1 386.042374080894 97.3333413192998 L386.04 97.3299999999999 L384.34 97.3199999999999 L384.347195108771 110.99069897206 A0.99 0.99 0 0 1 385.114547025549 111.403108256533 L385.110323747515 111.398606397277 A12.65 12.65 0 0 1 387.082931937528 115.625455687336 Z M394.62 93.9000000000001 L420.634907249067 93.9040519889078 A8.35 8.35 0 0 1 426.875108927267 86.9217459707594 L426.88 86.9200000000001 L396.357966532718 84.1783572672319 A34.31 34.31 0 0 0 394.61811643132 93.9051810406732 Z M462.289519541078 122.016158526849 A42.93 42.93 0 0 1 446.460262014982 134.198734068439 L446.46 134.2 L457.64 134.19 Z M279.23 97.3199999999999 L305.102288574884 97.3125711702852 A34.07 34.07 0 0 1 288.811573557048 124.796104375111 L288.81 124.79 L277.121978818281 101.419286503854 A8.32 8.32 0 0 0 279.233049973995 97.3184200701473 Z M330.89 91.71 L338.112238553223 89.596898333085 A17.97 17.97 0 0 1 340.993014234497 80.4821985995406 L340.995271672287 80.4849937963374 A12.58 12.58 0 0 1 345.327413407016 76.3967563782374 L345.323262913746 76.3911027358247 A6.49 6.49 0 0 0 339.312910645336 76.5708301640187 L339.317147736003 76.5778007298231 A21.23 21.23 0 0 0 332.387059610683 82.816914150542 L332.386601444302 82.8108721120246 A10.36 10.36 0 0 0 330.895660589786 91.7051185336351 Z M363.484844230493 80.3867705012796 A40.78 40.78 0 0 1 352.675797568693 77.8096217097559 L352.67 77.8099999999999 L363.46 82.5699999999999 Z M274.52 103.28 L284.764166914166 126.906709642636 A34.07 34.07 0 1 1 305.091024631726 93.8838611751917 L305.09 93.8800000000001 L279.186941518802 93.8830735153408 A8.32 8.32 0 1 0 274.521630532371 103.280247464119 Z M376.56 81.8800000000001 L365.83 80.72 L365.83 83.8399999999999 L376.37 87.52 Z" style="fill:rgb(0,0,0);"/>
<path d=" M377.421947631185 264.433312273571 A43.81 43.81 0 1 1 459.690970043883 287.254339398317 L459.69 287.26 L462.041577612887 288.667058644414 A46.55 46.55 0 0 0 463.570789685321 285.605419124199 L463.57 285.61 L465.063903118253 286.283808596707 A48.19 48.19 0 0 1 400.892173443015 310.056685267389 L400.89 310.06 L390.63 330.04 L392.976227423674 334.966674531516 A1.76 1.76 0 0 0 394.423575276541 335.896779376654 L394.417223628809 335.902162643049 A4.33 4.33 0 0 1 396.566120390726 336.97753286723 L396.561184426475 336.975839228313 A2.38 2.38 0 0 1 395.071689620658 340.999652656423 L395.075876488763 341.007903438701 A65.59 65.59 0 0 1 374.727447798287 340.710056718108 L374.728868479863 340.709795075678 A2.16 2.16 0 0 1 375.060446193665 336.528471877625 L375.06 336.53 L386.219935780267 336.067561321026 A1.78 1.78 0 0 0 388.002456697773 333.465865758029 L388.01 333.47 L386.56 330.42 L302.35 330.42 L304.708047340159 339.470793701072 A29.47 29.47 0 0 1 314.640382747732 340.52804865146 L314.642295539863 340.521747341348 A14.9 14.9 0 0 0 321.137704460137 340.521747341348 L321.134525903502 340.52265938729 A2.28 2.28 0 0 1 322.205905899559 344.524633298336 L322.212297662293 344.523763974209 A10.19 10.19 0 0 1 316.428644039533 345.095296804891 L316.424753459136 345.102643036242 A49.2 49.2 0 0 0 302.029228510239 344.395763278967 L302.03 344.39 L293.648068920294 312.198749281923 A48.19 48.19 0 0 1 266.059806929823 312.822665908824 L266.06 312.83 L266.49372016656 311.241109933531 A46.55 46.55 0 0 0 293.234207287618 310.608838034045 L293.23 310.61 L292.542248099244 307.952180978175 A43.81 43.81 0 1 1 322.618281490874 265.961962867267 L322.62 265.96 L325.359081617533 266.057595204833 A46.55 46.55 0 0 0 324.904312330814 259.852548903657 L324.9 259.86 L326.52825838059 259.623640128323 A48.19 48.19 0 0 1 297.262460368539 310.867219211756 L297.26 310.87 L299.03 317.65 L347.30756253201 273.684606823584 A13.14 13.14 0 0 1 356.567499495198 253.313060478328 L356.57 253.31 L356.57 241.44 L353.01 241.44 L353.01 237.6 L363.42 237.6 L363.42 241.44 L359.86 241.44 L359.852500277264 253.313060449661 A13.14 13.14 0 0 1 371.209522482041 264.433749693044 L371.22 264.44 L373.038130317945 264.433350286986 A48.19 48.19 0 0 1 373.760599696038 257.821923616283 L373.76 257.82 L375.3747157189 258.112146745543 A46.55 46.55 0 0 0 374.679479471643 264.433237056565 L374.68 264.44 Z M460.07 291.95 L457.716205787422 290.539923331314 A43.81 43.81 0 0 1 402.895362888896 306.157315319838 L402.9 306.16 L401.642278538675 308.596764203551 A46.55 46.55 0 0 0 460.066734569038 291.9527734679 Z M405.026771599305 302.007713719011 A39.15 39.15 0 0 0 453.717977963958 288.136535970095 L453.72 288.14 L427.774018745351 272.544537687419 A9.04 9.04 0 0 1 418.858910678575 275.084278595027 L418.86 275.08 Z M401.617455230546 300.256311967651 A39.15 39.15 0 0 1 382.086933755028 268.266431642746 L382.08 268.27 L412.355720171058 268.267576570557 A9.04 9.04 0 0 0 415.44755811523 273.331830791422 L415.45 273.33 Z M283.968286796016 269.453623258395 A6.02 6.02 0 0 0 284.446814170063 268.463463037806 L284.45 268.47 L318.102500896485 269.640026337238 A39.43 39.43 0 0 1 295.029060087004 302.289768918208 L295.03 302.29 L289.776331466618 282.116176832098 A26.98 26.98 0 0 0 283.973421513735 269.45831533118 Z M325.22 269.89 L322.484498737081 269.793001606846 A43.81 43.81 0 0 1 296.147070990705 306.583593792542 L296.15 306.59 L296.845415722372 309.264173413002 A46.55 46.55 0 0 0 325.225293390372 269.888790681249 Z M353.01 295.1 L363.42 295.1 L363.42 291.27 L359.86 291.27 L359.852499367114 279.386939665007 A13.14 13.14 0 0 0 362.062469999276 278.912566413941 L362.07 278.92 L384.74 326.59 L301.36 326.59 L300.12 321.84 L349.887684667077 276.518513534406 A13.14 13.14 0 0 0 356.567500177811 279.386939607673 L356.57 279.39 L356.57 291.27 L353.01 291.27 Z M397.482473443274 308.305086515965 A48.19 48.19 0 0 1 373.038130184138 268.266646351379 L373.04 268.27 L371.209522716155 268.266248718765 A13.14 13.14 0 0 1 365.523515052973 277.26659734395 L365.53 277.27 L388.55 325.69 Z M399.485594953895 304.405681594141 A43.81 43.81 0 0 1 377.42194756428 268.266686198635 L377.42 268.27 L374.67947943819 268.266762131673 A46.55 46.55 0 0 0 398.232374117899 306.845060363672 L398.23 306.85 Z M281.033657702932 271.944260131616 A6.02 6.02 0 1 1 284.580510633547 264.634888625156 L284.58 264.64 L318.23628693717 265.808891556215 A39.43 39.43 0 1 0 291.435983134049 303.703841166588 L291.44 303.71 L285.998520215705 282.822895368202 A23.31 23.31 0 0 0 281.035854106586 271.948613965886 Z M455.692480570533 284.851387366356 A39.15 39.15 0 1 0 382.08693388882 264.433565627345 L382.08 264.44 L412.35571997025 264.432424354566 A9.04 9.04 0 1 1 429.749699318645 269.257429719596 L429.75 269.26 Z" style="fill:rgb(0,0,0);"/>
</g>
</svg>