<svg xmlns="http://www.w3.org/2000/svg" width="400" height="400" viewBox="0 0 401.00003052 401">
  <g fill-rule="evenodd">
    <path fill="#fff" stroke="#000" d="M45 400h309.99996623A45 45 0 0 0 400 354.99996623V45.00010053A45 45 0 0 0 355.00003377 0h-310A45 45 0 0 0 0 45.00003377v309.99993246A45 45 0 0 0 45.00003377 400Z"/>
    <path d="m177.13 283.93-7.51766982.1672949a11.77 11.77 0 0 1-8.16387037-3.05291415l.00040677-.00290985a27.42 27.42 0 0 1-8.54334222-15.3786603L152.9 265.66l-8.06258101 14.97104581a41.41 41.41 0 0 1 16.831882 52.13530535L161.67 332.77l-2.41933335-1.08695299a38.76 38.76 0 1 1-49.06054882-51.77238342L110.19 279.91l.00279551-2.81515969a41.41 41.41 0 0 1 30.31717474 1.30056959L140.51 278.4l16.42299445-35.65644085a7.12 7.12 0 0 1 3.01242774-3.06442481L159.95 239.68l1.179777-.76406518a8.7 8.7 0 0 0 1.7971269-1.56929192l.00479567-.00380518a1.91 1.91 0 0 0-1.5515577-3.15967573l-.0017045-.00246747a6.46 6.46 0 0 0-2.77240148.8059829l-.0069746-.0011482a43.62 43.62 0 0 1-4.27495617 2.08480195l.00198273-.00134023a13.24 13.24 0 0 1-2.7971403.83097627l.00072001.00592029a1.52 1.52 0 0 1-1.73034-1.07536873L149.8 236.83l-3.0080444-7.98707264a59.16 59.16 0 0 0 5.4861462-2.31549461l-.0102678-.00650783a14.29 14.29 0 0 1 5.71431661-1.41225l.00776977.00498568a6.03 6.03 0 0 1 3.93085696 1.28116122l-.00981143.00154234a41.13 41.13 0 0 0 3.47658354 2.4468454l.00231665.00033257a10.46 10.46 0 0 0 3.87384098 1.46799798L169.27 230.31l.00097494-14.15314356a3.45 3.45 0 0 1 .15202741-5.52720045h-.01a3.45 3.45 0 0 1 4.1548021.1364804l.00047465.00338981a10.31 10.31 0 0 1 2.2527128 2.5372375L175.82 213.3h6.16v2.02h-9.75V230a16.18 16.18 0 0 1-.7419271 4.84337743l-.00284273-.00052797a146.01 146.01 0 0 0-1.3717126 4.64010864L170.11 239.48l1.07668534.74840794a.79.79 0 0 1 .25782179 1.00904095L171.45 241.24l-9.31 19.25 2.46809244 3.12033063a.97.97 0 0 0 1.13742385.29403368L165.74 263.91l.5763901-.36391546a1.52 1.52 0 0 1 1.86725292.18836245l.00012575.0034988a4.29 4.29 0 0 1 .98363693 1.43584162l.00320155-.00832509a1.54 1.54 0 0 1-.01281231 1.21880799l.00703222.0074185a1.92 1.92 0 0 0 .06449294 1.68825705L169.23 268.08l26.66 27.02h29.4399999a5.43 5.43 0 0 0 5.34605685-4.47890735L230.67 290.62l8.97-37.64-23.96-7.38v-2.24l33.72999993-.01a3.8 3.8 0 0 1 3.1078077 5.98667138l-.0074328.00207647a9.66 9.66 0 0 1-1.6215966 1.78240628L250.89 251.12l-3.81798498 3.08138039a3.61 3.61 0 0 0-1.13134833 1.5934517L245.94 255.8l-2.24 10.52 56.90767793-.02802622a2.42 2.42 0 0 0 3.04230475 2.04186901L303.65 268.34h4.34l.04 10.71h-2.08l11.05 29.7-2.80694543.00594009a38.78 38.78 0 0 1-72.92232714 24.83456452L241.27 333.59H215.3v8.24h2.24v2.97h-7.34v-2.97h2.85l.00734723-7.41017517a35.02 35.02 0 0 0-7.57637634 1.50944926l-.00004517.00412322a690.81 690.81 0 0 1-8.10421613 2.51614042l-.00484955-.0019431a16.04 16.04 0 0 1-12.2722301-1.2279676l-.00044652-.00749627a9.17 9.17 0 0 1-3.88438812-4.03848433l-.00032172.00077739a34.77 34.77 0 0 1-2.78517127-22.52113418l-.00483315.00855482a210.39 210.39 0 0 1 5.22328815-19.79134983L183.65 290.87Zm114.51 49.66-44.03081486.000326a33.17 33.17 0 1 0 27.13689403-49.81483953L274.74 283.78l2.65537676 25.1374513a8.07 8.07 0 0 1 2.22681536 15.33793173L279.62 324.25l11.89030636-1.06551073a2 2 0 0 1 1.75406901 1.83562122L293.27 325.02l.4676409 6.2852344a2.05 2.05 0 0 1-2.10106624 2.2737842Zm-48.51-15.6 25.15239539-.001473a8.07 8.07 0 0 0 6.0309494 6.74816881L274.31 324.73l-29.50044466 2.66141273a33.17 33.17 0 0 1-1.68204085-9.40363526Zm29.31-7.25-2.8438875-26.31616401a34.31 34.31 0 0 0-27.31804682 31.29299031L242.28 315.71l26.2072117.00540112a8.35 8.35 0 0 1 3.94641856-4.97276757Zm-145.4-1.82 9.89595293-22.83285144a32.93 32.93 0 1 0 19.64671044 31.9178867L156.59 318.01l-25.04622478-.00455662a8.04 8.04 0 1 1-4.50830533-9.0809229Zm85.99708091 22.13678536a39.42 39.42 0 0 0-10.4485684 2.4912017L202.58 333.55l10.43-4.61ZM181.53 320.11l6.97182992 2.03096138a17.37 17.37 0 0 0 2.78458952 8.81036919l.00123585.00514601a12.16 12.16 0 0 0 4.18750743 3.95174619l.00205728.00274582a6.27 6.27 0 0 1-5.8066115-.17363507l.00410958-.00424236a20.52 20.52 0 0 1-6.6983232-6.03045707l-.00420555-.00584146a10.01 10.01 0 0 1-1.44057133-8.59376527Zm51.75-2.12 1.51400452-.00195588a41.5 41.5 0 0 0 .46863179 5.23273045L235.26 323.22l-1.98-.55Zm-101.69-3.3 25.00355042.0010517a32.93 32.93 0 0 0-15.74561918-26.56391983L140.85 288.13l-11.30169355 22.59285295a8.04 8.04 0 0 1 2.0400255 3.9628565Zm94.44 14.88-10.72 1.16v-3.12l10.53-3.68Zm9.82-32.59 7.1-27.65 4.48094296.0042907a22.23 22.23 0 0 0 5.15023236 8.6486207l-.001569.0006253a3.44 3.44 0 0 0 2.4833571 1.05646202L255.07 279.04l4.24347396-.00330186a41.5 41.5 0 0 0-24.47317756 35.63701803L234.84 314.67l-1.64.01-.00393202-13.2106778a.96.96 0 0 0 .74409883-.39991202l.00883369-.00275815a12.23 12.23 0 0 0 1.90711467-4.08651135Zm72.69764642-6.16691542a41.5 41.5 0 0 0-15.30198433-11.77677347L293.24 279.04h10.81Zm-81.12569879-165.15639685a43.81 43.81 0 1 0 82.26902241-22.82102713L309.69 102.84l2.35157761-1.41705864a46.55 46.55 0 0 1 1.52921208 3.06163952L313.57 104.49l1.49390312-.6838086a48.19 48.19 0 0 0-64.17172968-23.77287667L250.89 80.04l-10.26-19.99 2.34622742-4.92667453a1.76 1.76 0 0 1 1.44734786-.93010485l-.00635165.00461674a4.33 4.33 0 0 0 2.14889676-1.07537023l-.004936-.00830633a2.38 2.38 0 0 0-1.48949473-4.02381345l.00418683.00174921a65.59 65.59 0 0 0-20.3484287.29784672l.00142062.00026167a2.16 2.16 0 0 0 .33157786 4.18132318L225.06 53.56l11.15993575.46243868a1.78 1.78 0 0 1 1.78252096 2.60169553L238.01 56.63l-1.45 3.04h-84.21l2.35804734-9.0407937a29.47 29.47 0 0 0 9.9323354-1.05725495l.0019128.0063013a14.9 14.9 0 0 1 6.49540892 0l-.00317856-.00091204a2.28 2.28 0 0 0 1.07138-4.0019739l.00639176-.00913068a10.19 10.19 0 0 0-5.78365362-.57153283l-.00389058.00265376a49.2 49.2 0 0 1-14.39552495.70687976L152.03 45.71l-8.38193108 32.18125072a48.19 48.19 0 0 0-27.58826199-.62391663L116.06 77.27l.43372017 1.57889007a46.55 46.55 0 0 1 26.74048712.6322719L143.23 79.49l-.6877519 2.64781902a43.81 43.81 0 1 0 30.0760334 41.99021811L172.62 124.13l2.73908162-.0975952a46.55 46.55 0 0 1-.45476929 6.2050463L174.9 130.24l1.62825838.22635987a48.19 48.19 0 0 0-29.26579801-51.24357908L147.26 79.22l1.77-6.77 48.27756253 43.95539318a13.14 13.14 0 0 0 9.25993697 20.37154634L206.57 136.78v11.88h-3.56v3.83h10.41v-3.83h-3.56l-.00749972-11.88306045a13.14 13.14 0 0 0 11.3570222-11.12068924L221.22 125.66l1.81813032-.00335029a48.19 48.19 0 0 0 .72246938 6.61142667L223.76 132.27l1.61471572-.29214675a46.55 46.55 0 0 1-.69523625-6.3210903L224.68 125.66Zm27.60482397-37.57440145a39.15 39.15 0 0 1 48.69120636 13.87117775L303.72 101.95l-25.94598125 15.59546231a9.04 9.04 0 0 0-8.91510807-2.5397409L268.86 115.01ZM310.07 98.14l-2.35379421 1.41007667a43.81 43.81 0 0 0-54.8208429-15.61739199L252.9 83.94l-1.25772146-2.4467642a46.55 46.55 0 0 1 58.42445603 16.64399073Zm-58.45254477-8.30631197a39.15 39.15 0 0 0-19.53052147 31.98988033L232.08 121.83l30.27572017-.00757657a9.04 9.04 0 0 1 3.09183795-5.06425422L265.45 116.76Zm54.07502534 15.4049246a39.15 39.15 0 1 1-73.60554668 20.41782174L232.08 125.66l30.27571997-.00242435a9.04 9.04 0 1 0 17.39397935-4.82500537L279.75 120.84ZM131.0336577 118.14573987a6.02 6.02 0 1 0 3.54685293 7.3093715L134.58 125.46l33.65628694-1.17889156a39.43 39.43 0 1 1-26.8003038-37.8949496L141.44 86.39l-5.44147978 20.87710463a23.31 23.31 0 0 1-4.96266611 10.8742814ZM203.01 94.99h10.41v3.84h-3.56l-.00750063 11.87306034a13.14 13.14 0 0 1 2.20997085.47437331L212.07 111.18l22.67-47.68h-83.38l-1.24 4.76 49.76768467 45.31148647a13.14 13.14 0 0 1 6.67981574-2.8684261L206.57 110.7V98.83h-3.56Zm-27.79 25.21-2.73550126.0969984a43.81 43.81 0 0 0-26.33742775-36.7905922L146.15 83.51l.69541572-2.68417341a46.55 46.55 0 0 1 28.37987773 39.37538354Zm-41.25171358.43637611a6.02 6.02 0 0 1 .47852753.99016026L134.45 121.63l33.6525009-1.18002634a39.43 39.43 0 0 0-23.07344081-32.64974258L145.03 87.8l-5.25366853 20.17382317a26.98 26.98 0 0 1-5.80290996 12.6578615Zm115.51730853-34.9520577a43.81 43.81 0 0 0-22.06364739 36.1389954L227.42 121.83l-2.74052056-.00676213a46.55 46.55 0 0 1 23.55289468-38.57829823L248.23 83.25Zm-2.0031215-3.89940493a48.19 48.19 0 0 0-24.44434323 40.03843933L223.04 121.83l-1.83047728-.00624872a13.14 13.14 0 0 0-5.68600767-9.00034862L215.53 112.82l23.02-48.41Z"/>
  </g>
</svg>