<?xml version="1.0" encoding="UTF-8"?><svg xmlns="http://www.w3.org/2000/svg" xmlns:xlink="http://www.w3.org/1999/xlink" height="400.000000000025" viewBox="0.0 0.0 401.0000305175781 401.0" width="400.000000002976">
<!--Gegenereerd door de SIMaD-toepassing (http://www.dlw.be).-->
<g style="stroke:none;fill-rule:evenodd;" transform="matrix(1,0,0,-1,0,400.000000000025)">
<path d=" M45 0 L354.999966227879 1.26760824059602E-11 A45 45 0 0 1 399.999999999987 45.000033772121 L399.999999999888 354.999899469035 A45 45 0 0 1 355.000033772121 399.999999999987 L45.000033772121 399.999999999987 A45 45 0 0 1 1.26760824059602E-11 354.999966227879 L1.26760824059602E-11 45.000033772121 A45 45 0 0 1 45.000033772121 1.26760824059602E-11 Z" style="fill:rgb(255,255,255);stroke:rgb(0,0,0);"/>
<path d=" M227.421947631185 269.343312273571 A43.81 43.81 0 1 1 309.690970043883 292.164339398317 L309.69 292.16 L312.041577612888 293.577058644414 A46.55 46.55 0 0 0 313.570789685321 290.515419124199 L313.57 290.51 L315.063903118253 291.193808596707 A48.19 48.19 0 0 1 250.892173443015 314.966685267389 L250.89 314.96 L240.63 334.95 L242.976227423674 339.876674531516 A1.76 1.76 0 0 0 244.423575276541 340.806779376654 L244.417223628809 340.802162643049 A4.33 4.33 0 0 1 246.566120390726 341.87753286723 L246.561184397604 341.885839198447 A2.38 2.38 0 0 1 245.071689662017 345.909652652554 L245.075876488763 345.907903438701 A65.59 65.59 0 0 1 224.727447798287 345.610056718108 L224.728868408311 345.609795051902 A2.16 2.16 0 0 1 225.060446268069 341.428471865423 L225.06 341.44 L236.219935749417 340.97756131736 A1.78 1.78 0 0 0 238.002456712331 338.375865785474 L238.01 338.37 L236.56 335.33 L152.35 335.33 L154.708047340159 344.370793701072 A29.47 29.47 0 0 1 164.640382747732 345.42804865146 L164.642295539863 345.421747341348 A14.9 14.9 0 0 0 171.137704460137 345.421747341348 L171.134525903502 345.42265938729 A2.28 2.28 0 0 1 172.205905899559 349.424633298336 L172.212297662294 349.433763974209 A10.19 10.19 0 0 1 166.428644039533 350.005296804891 L166.424753459136 350.002643036242 A49.2 49.2 0 0 0 152.02922851024 349.295763278967 L152.03 349.29 L143.648068920294 317.108749281923 A48.19 48.19 0 0 1 116.059806929823 317.732665908824 L116.06 317.73 L116.49372016656 316.151109933531 A46.55 46.55 0 0 0 143.234207287618 315.518838034045 L143.23 315.51 L142.542248099244 312.862180978175 A43.81 43.81 0 1 1 172.618281490874 270.871962867267 L172.62 270.87 L175.359081617533 270.967595204833 A46.55 46.55 0 0 0 174.904312330814 264.762548903658 L174.9 264.76 L176.528258380589 264.533640128324 A48.19 48.19 0 0 1 147.262460368538 315.777219211756 L147.26 315.78 L149.03 322.55 L197.30756253201 278.594606823584 A13.14 13.14 0 0 1 206.567499495199 258.223060478328 L206.57 258.22 L206.57 246.34 L203.01 246.34 L203.01 242.51 L213.42 242.51 L213.42 246.34 L209.86 246.34 L209.852500277264 258.223060449661 A13.14 13.14 0 0 1 221.209522482041 269.343749693044 L221.22 269.34 L223.038130317945 269.343350286986 A48.19 48.19 0 0 1 223.760599696038 262.731923616283 L223.76 262.73 L225.3747157189 263.022146745543 A46.55 46.55 0 0 0 224.679479471643 269.343237056566 L224.68 269.34 Z M251.617455230546 305.166311967652 A39.15 39.15 0 0 1 232.086933755028 273.176431642746 L232.08 273.17 L262.355720171058 273.177576570557 A9.04 9.04 0 0 0 265.44755811523 278.241830791422 L265.45 278.24 Z M249.485594953895 309.315681594141 A43.81 43.81 0 0 1 227.42194756428 273.176686198635 L227.42 273.17 L224.67947943819 273.176762131673 A46.55 46.55 0 0 0 248.232374117899 311.755060363673 L248.23 311.75 Z M247.482473443274 313.215086515965 A48.19 48.19 0 0 1 223.03813021759 273.176647191788 L223.04 273.17 L221.209522716155 273.176248718765 A13.14 13.14 0 0 1 215.523515052973 282.17659734395 L215.53 282.18 L238.55 330.59 Z M133.968286416836 274.363623888599 A6.02 6.02 0 0 0 134.446813948742 273.373463628092 L134.45 273.37 L168.102500896485 274.550026337238 A39.43 39.43 0 0 1 145.029060087004 307.199768918208 L145.03 307.2 L139.776331466617 287.026176832098 A26.98 26.98 0 0 0 133.973421513735 274.36831533118 Z M175.22 274.8 L172.484498737081 274.703001606846 A43.81 43.81 0 0 1 146.147070990705 311.493593792542 L146.15 311.49 L146.845415722372 314.174173413002 A46.55 46.55 0 0 0 175.225293452135 274.798789871149 Z M131.033657702932 276.854260131616 A6.02 6.02 0 1 1 134.580510633547 269.544888625156 L134.58 269.54 L168.23628693717 270.718891556215 A39.43 39.43 0 1 0 141.435983134049 308.613841166588 L141.44 308.61 L135.998520215705 287.732895368202 A23.31 23.31 0 0 0 131.035854106586 276.858613965886 Z M305.692480570533 289.761387366356 A39.15 39.15 0 1 0 232.08693388882 269.343565627345 L232.08 269.34 L262.35571997025 269.342424354566 A9.04 9.04 0 1 1 279.749699318645 274.167429719596 L279.75 274.16 Z M203.01 300.01 L213.42 300.01 L213.42 296.17 L209.86 296.17 L209.852499367114 284.296939665007 A13.14 13.14 0 0 0 212.062470218534 283.822566346703 L212.07 283.82 L234.74 331.5 L151.36 331.5 L150.12 326.74 L199.887684667077 281.428513534406 A13.14 13.14 0 0 0 206.567500405349 284.29693963634 L206.57 284.3 L206.57 296.17 L203.01 296.17 Z M310.07 296.86 L307.716205787422 295.449923331314 A43.81 43.81 0 0 1 252.895362888896 311.067315319838 L252.9 311.06 L251.642278538675 313.506764203551 A46.55 46.55 0 0 0 310.066734569038 296.8627734679 Z M255.026771599305 306.917713719011 A39.15 39.15 0 0 0 303.717977963958 293.046535970095 L303.72 293.05 L277.774018745351 277.45453768742 A9.04 9.04 0 0 1 268.858910678576 279.994278595027 L268.86 279.99 Z" style="fill:rgb(0,0,0);"/>
<path d=" M240 50 L240 65 L125 65 L125 75 L240 75 L240 90 L275 70 Z" style="fill:rgb(0,0,0);"/>
<path d=" M125 160 L160 180 L160 165 L275 165 L275 155 L160 155 L160 140 Z" style="fill:rgb(0,0,0);"/>
</g>
</svg>