<?xml version="1.0" encoding="UTF-8"?>
<!DOCTYPE svg PUBLIC "-//W3C//DTD SVG 1.1//EN" "http://www.w3.org/Graphics/SVG/1.1/DTD/svg11.dtd">
<svg version="1.2" width="200.03mm" height="300.23mm" viewBox="108466 61498 20003 30023" preserveAspectRatio="xMidYMid" fill-rule="evenodd" stroke-width="28.222" stroke-linejoin="round" xmlns="http://www.w3.org/2000/svg" xmlns:ooo="http://xml.openoffice.org/svg/export" xmlns:xlink="http://www.w3.org/1999/xlink" xmlns:presentation="http://sun.com/xmlns/staroffice/presentation" xmlns:smil="http://www.w3.org/2001/SMIL20/" xmlns:anim="urn:oasis:names:tc:opendocument:xmlns:animation:1.0" xml:space="preserve">
 <defs class="EmbeddedBulletChars">
  <g id="bullet-char-template-57356" transform="scale(0.00048828125,-0.00048828125)">
   <path d="M 580,1141 L 1163,571 580,0 -4,571 580,1141 Z"/>
  </g>
  <g id="bullet-char-template-57354" transform="scale(0.00048828125,-0.00048828125)">
   <path d="M 8,1128 L 1137,1128 1137,0 8,0 8,1128 Z"/>
  </g>
  <g id="bullet-char-template-10146" transform="scale(0.00048828125,-0.00048828125)">
   <path d="M 174,0 L 602,739 174,1481 1456,739 174,0 Z M 1358,739 L 309,1346 659,739 1358,739 Z"/>
  </g>
  <g id="bullet-char-template-10132" transform="scale(0.00048828125,-0.00048828125)">
   <path d="M 2015,739 L 1276,0 717,0 1260,543 174,543 174,936 1260,936 717,1481 1274,1481 2015,739 Z"/>
  </g>
  <g id="bullet-char-template-10007" transform="scale(0.00048828125,-0.00048828125)">
   <path d="M 0,-2 C -7,14 -16,27 -25,37 L 356,567 C 262,823 215,952 215,954 215,979 228,992 255,992 264,992 276,990 289,987 310,991 331,999 354,1012 L 381,999 492,748 772,1049 836,1024 860,1049 C 881,1039 901,1025 922,1006 886,937 835,863 770,784 769,783 710,716 594,584 L 774,223 C 774,196 753,168 711,139 L 727,119 C 717,90 699,76 672,76 641,76 570,178 457,381 L 164,-76 C 142,-110 111,-127 72,-127 30,-127 9,-110 8,-76 1,-67 -2,-52 -2,-32 -2,-23 -1,-13 0,-2 Z"/>
  </g>
  <g id="bullet-char-template-10004" transform="scale(0.00048828125,-0.00048828125)">
   <path d="M 285,-33 C 182,-33 111,30 74,156 52,228 41,333 41,471 41,549 55,616 82,672 116,743 169,778 240,778 293,778 328,747 346,684 L 369,508 C 377,444 397,411 428,410 L 1163,1116 C 1174,1127 1196,1133 1229,1133 1271,1133 1292,1118 1292,1087 L 1292,965 C 1292,929 1282,901 1262,881 L 442,47 C 390,-6 338,-33 285,-33 Z"/>
  </g>
  <g id="bullet-char-template-9679" transform="scale(0.00048828125,-0.00048828125)">
   <path d="M 813,0 C 632,0 489,54 383,161 276,268 223,411 223,592 223,773 276,916 383,1023 489,1130 632,1184 813,1184 992,1184 1136,1130 1245,1023 1353,916 1407,772 1407,592 1407,412 1353,268 1245,161 1136,54 992,0 813,0 Z"/>
  </g>
  <g id="bullet-char-template-8226" transform="scale(0.00048828125,-0.00048828125)">
   <path d="M 346,457 C 273,457 209,483 155,535 101,586 74,649 74,723 74,796 101,859 155,911 209,963 273,989 346,989 419,989 480,963 531,910 582,859 608,796 608,723 608,648 583,586 532,535 482,483 420,457 346,457 Z"/>
  </g>
  <g id="bullet-char-template-8211" transform="scale(0.00048828125,-0.00048828125)">
   <path d="M -4,459 L 1135,459 1135,606 -4,606 -4,459 Z"/>
  </g>
  <g id="bullet-char-template-61548" transform="scale(0.00048828125,-0.00048828125)">
   <path d="M 173,740 C 173,903 231,1043 346,1159 462,1274 601,1332 765,1332 928,1332 1067,1274 1183,1159 1299,1043 1357,903 1357,740 1357,577 1299,437 1183,322 1067,206 928,148 765,148 601,148 462,206 346,322 231,437 173,577 173,740 Z"/>
  </g>
 </defs>
 <g class="Page">
  <g class="com.sun.star.drawing.PolyPolygonShape">
   <g id="id3">
    <rect class="BoundingBox" stroke="none" fill="none" x="108466" y="61498" width="20003" height="30023"/>
    <path fill="rgb(255,255,255)" stroke="none" d="M 110628,91519 L 126294,91519 126510,91507 126714,91483 126918,91435 127122,91363 127315,91267 127495,91159 127675,91027 127831,90895 127975,90727 128095,90559 128203,90379 128299,90187 128371,89983 128419,89779 128455,89562 128467,89358 128467,63672 128455,63456 128419,63251 128371,63047 128299,62843 128203,62651 128095,62471 127975,62291 127831,62135 127675,61991 127495,61871 127315,61763 127122,61667 126918,61595 126714,61547 126510,61511 126294,61499 110628,61499 110424,61511 110208,61547 110004,61595 109800,61667 109607,61763 109427,61871 109259,61991 109103,62135 108959,62291 108827,62471 108719,62651 108635,62843 108563,63047 108503,63251 108479,63456 108467,63672 108467,89358 108479,89562 108503,89779 108563,89983 108635,90187 108719,90379 108827,90559 108959,90727 109103,90895 109259,91027 109427,91159 109607,91267 109800,91363 110004,91435 110208,91483 110424,91507 110628,91519 Z"/>
    <path fill="none" stroke="rgb(0,0,0)" d="M 110628,91519 L 126294,91519 126510,91507 126714,91483 126918,91435 127122,91363 127315,91267 127495,91159 127675,91027 127831,90895 127975,90727 128095,90559 128203,90379 128299,90187 128371,89983 128419,89779 128455,89562 128467,89358 128467,63672 128455,63456 128419,63251 128371,63047 128299,62843 128203,62651 128095,62471 127975,62291 127831,62135 127675,61991 127495,61871 127315,61763 127122,61667 126918,61595 126714,61547 126510,61511 126294,61499 110628,61499 110424,61511 110208,61547 110004,61595 109800,61667 109607,61763 109427,61871 109259,61991 109103,62135 108959,62291 108827,62471 108719,62651 108635,62843 108563,63047 108503,63251 108479,63456 108467,63672 108467,89358 108479,89562 108503,89779 108563,89983 108635,90187 108719,90379 108827,90559 108959,90727 109103,90895 109259,91027 109427,91159 109607,91267 109800,91363 110004,91435 110208,91483 110424,91507 110628,91519 Z"/>
   </g>
  </g>
  <g class="com.sun.star.drawing.PolyPolygonShape">
   <g id="id4">
    <rect class="BoundingBox" stroke="none" fill="none" x="110963" y="69672" width="14997" height="15019"/>
    <path fill="rgb(255,0,0)" stroke="none" d="M 125958,77175 L 125958,76803 125922,76443 125886,76071 125814,75711 125742,75351 125646,75003 125526,74643 125394,74306 125238,73970 125082,73634 124902,73322 124697,73010 124493,72710 124265,72410 124025,72134 123773,71870 123509,71618 123221,71378 122933,71150 122633,70934 122321,70741 121996,70561 121672,70393 121336,70249 120988,70117 120640,69997 120292,69901 119932,69817 119571,69757 119211,69709 118839,69685 118467,69673 118107,69685 117735,69709 117375,69757 116990,69817 116642,69901 116282,69997 115934,70117 115586,70249 115250,70393 114926,70561 114601,70741 114289,70934 113989,71150 113701,71378 113425,71618 113161,71870 112909,72134 112669,72410 112441,72710 112225,73010 112032,73322 111852,73634 111684,73970 111540,74306 111408,74643 111288,75003 111192,75351 111108,75711 111048,76071 111000,76443 110976,76803 110964,77175 110976,77547 111000,77907 111048,78279 111108,78640 111192,79000 111288,79348 111408,79708 111540,80044 111684,80380 111852,80728 112032,81040 112225,81352 112441,81652 112669,81940 112909,82229 113161,82493 113425,82745 113701,82985 113989,83213 114289,83429 114601,83621 114926,83801 115250,83969 115586,84113 115934,84245 116282,84365 116642,84461 116990,84545 117375,84605 117735,84653 118107,84677 118467,84689 118839,84677 119211,84653 119571,84605 119932,84545 120292,84461 120640,84365 120988,84245 121336,84113 121672,83969 121996,83801 122321,83621 122633,83429 122933,83213 123221,82985 123509,82745 123773,82493 124025,82229 124265,81940 124493,81652 124697,81352 124902,81040 125082,80728 125238,80380 125394,80044 125526,79708 125646,79348 125742,79000 125814,78640 125886,78279 125922,77907 125958,77547 125958,77175 Z"/>
    <path fill="none" stroke="rgb(255,0,0)" d="M 125958,77175 L 125958,76803 125922,76443 125886,76071 125814,75711 125742,75351 125646,75003 125526,74643 125394,74306 125238,73970 125082,73634 124902,73322 124697,73010 124493,72710 124265,72410 124025,72134 123773,71870 123509,71618 123221,71378 122933,71150 122633,70934 122321,70741 121996,70561 121672,70393 121336,70249 120988,70117 120640,69997 120292,69901 119932,69817 119571,69757 119211,69709 118839,69685 118467,69673 118107,69685 117735,69709 117375,69757 116990,69817 116642,69901 116282,69997 115934,70117 115586,70249 115250,70393 114926,70561 114601,70741 114289,70934 113989,71150 113701,71378 113425,71618 113161,71870 112909,72134 112669,72410 112441,72710 112225,73010 112032,73322 111852,73634 111684,73970 111540,74306 111408,74643 111288,75003 111192,75351 111108,75711 111048,76071 111000,76443 110976,76803 110964,77175 110976,77547 111000,77907 111048,78279 111108,78640 111192,79000 111288,79348 111408,79708 111540,80044 111684,80380 111852,80728 112032,81040 112225,81352 112441,81652 112669,81940 112909,82229 113161,82493 113425,82745 113701,82985 113989,83213 114289,83429 114601,83621 114926,83801 115250,83969 115586,84113 115934,84245 116282,84365 116642,84461 116990,84545 117375,84605 117735,84653 118107,84677 118467,84689 118839,84677 119211,84653 119571,84605 119932,84545 120292,84461 120640,84365 120988,84245 121336,84113 121672,83969 121996,83801 122321,83621 122633,83429 122933,83213 123221,82985 123509,82745 123773,82493 124025,82229 124265,81940 124493,81652 124697,81352 124902,81040 125082,80728 125238,80380 125394,80044 125526,79708 125646,79348 125742,79000 125814,78640 125886,78279 125922,77907 125958,77547 125958,77175 Z"/>
   </g>
  </g>
  <g class="com.sun.star.drawing.PolyPolygonShape">
   <g id="id5">
    <rect class="BoundingBox" stroke="none" fill="none" x="112764" y="63671" width="2187" height="3183"/>
    <path fill="rgb(0,0,0)" stroke="none" d="M 112765,66852 L 114950,66852 114950,66312 113425,66312 114890,64200 114890,63672 112837,63672 112837,64200 114217,64200 112765,66312 112765,66852 Z"/>
   </g>
  </g>
  <g class="com.sun.star.drawing.PolyPolygonShape">
   <g id="id6">
    <rect class="BoundingBox" stroke="none" fill="none" x="112764" y="63671" width="2188" height="3183"/>
    <path fill="none" stroke="rgb(0,0,0)" d="M 112765,66852 L 114950,66852 114950,66312 113425,66312 114890,64200 114890,63672 112837,63672 112837,64200 114217,64200 112765,66312 112765,66852 Z"/>
   </g>
  </g>
  <g class="com.sun.star.drawing.PolyPolygonShape">
   <g id="id7">
    <rect class="BoundingBox" stroke="none" fill="none" x="115777" y="63611" width="2188" height="3303"/>
    <path fill="rgb(0,0,0)" stroke="none" d="M 116366,64644 L 116366,65880 116366,65976 116402,66072 116450,66168 116510,66240 116582,66300 116678,66348 116762,66372 116870,66384 116978,66372 117074,66348 117158,66300 117231,66240 117303,66168 117339,66072 117375,65976 117387,65880 117387,64644 117375,64548 117339,64452 117303,64368 117231,64284 117158,64224 117074,64176 116978,64152 116870,64140 116762,64152 116678,64176 116582,64224 116510,64284 116450,64368 116402,64452 116366,64548 116366,64644 Z M 115778,64692 L 115778,65832 115790,65940 115802,66036 115826,66144 115862,66240 115910,66336 115970,66432 116030,66516 116102,66600 116174,66672 116258,66732 116354,66792 116450,66828 116546,66864 116654,66888 116762,66912 116870,66912 116978,66912 117086,66888 117194,66864 117291,66828 117387,66792 117483,66732 117567,66672 117651,66600 117723,66516 117783,66432 117831,66336 117879,66240 117915,66144 117939,66036 117951,65940 117963,65832 117963,64692 117951,64584 117939,64488 117915,64380 117879,64284 117831,64188 117783,64092 117723,64008 117651,63924 117567,63852 117483,63792 117387,63732 117291,63696 117194,63660 117086,63624 116978,63612 116870,63612 116762,63612 116654,63624 116546,63660 116450,63696 116354,63732 116258,63792 116174,63852 116102,63924 116030,64008 115970,64092 115910,64188 115862,64284 115826,64380 115802,64488 115790,64584 115778,64692 Z"/>
    <path fill="none" stroke="rgb(0,0,0)" d="M 116366,64644 L 116366,65880 116366,65976 116402,66072 116450,66168 116510,66240 116582,66300 116678,66348 116762,66372 116870,66384 116978,66372 117074,66348 117158,66300 117231,66240 117303,66168 117339,66072 117375,65976 117387,65880 117387,64644 117375,64548 117339,64452 117303,64368 117231,64284 117158,64224 117074,64176 116978,64152 116870,64140 116762,64152 116678,64176 116582,64224 116510,64284 116450,64368 116402,64452 116366,64548 116366,64644 Z"/>
    <path fill="none" stroke="rgb(0,0,0)" d="M 115778,64692 L 115778,65832 115790,65940 115802,66036 115826,66144 115862,66240 115910,66336 115970,66432 116030,66516 116102,66600 116174,66672 116258,66732 116354,66792 116450,66828 116546,66864 116654,66888 116762,66912 116870,66912 116978,66912 117086,66888 117194,66864 117291,66828 117387,66792 117483,66732 117567,66672 117651,66600 117723,66516 117783,66432 117831,66336 117879,66240 117915,66144 117939,66036 117951,65940 117963,65832 117963,64692 117951,64584 117939,64488 117915,64380 117879,64284 117831,64188 117783,64092 117723,64008 117651,63924 117567,63852 117483,63792 117387,63732 117291,63696 117194,63660 117086,63624 116978,63612 116870,63612 116762,63612 116654,63624 116546,63660 116450,63696 116354,63732 116258,63792 116174,63852 116102,63924 116030,64008 115970,64092 115910,64188 115862,64284 115826,64380 115802,64488 115790,64584 115778,64692 Z"/>
   </g>
  </g>
  <g class="com.sun.star.drawing.PolyPolygonShape">
   <g id="id8">
    <rect class="BoundingBox" stroke="none" fill="none" x="122199" y="63671" width="1960" height="3183"/>
    <path fill="rgb(0,0,0)" stroke="none" d="M 122200,66852 L 124157,66852 124157,66312 122777,66312 122777,65472 123701,65472 123701,64944 122777,64944 122777,64200 124157,64200 124157,63672 122200,63672 122200,66852 Z"/>
    <path fill="none" stroke="rgb(0,0,0)" d="M 122200,66852 L 124157,66852 124157,66312 122777,66312 122777,65472 123701,65472 123701,64944 122777,64944 122777,64200 124157,64200 124157,63672 122200,63672 122200,66852 Z"/>
   </g>
  </g>
  <g class="com.sun.star.drawing.PolyPolygonShape">
   <g id="id9">
    <rect class="BoundingBox" stroke="none" fill="none" x="118922" y="63671" width="2188" height="3183"/>
    <path fill="rgb(0,0,0)" stroke="none" d="M 118923,66852 L 119463,66852 119463,64740 120424,66852 121108,66852 121108,63672 120580,63672 120580,65772 119619,63672 118923,63672 118923,66852 Z"/>
    <path fill="none" stroke="rgb(0,0,0)" d="M 118923,66852 L 119463,66852 119463,64740 120424,66852 121108,66852 121108,63672 120580,63672 120580,65772 119619,63672 118923,63672 118923,66852 Z"/>
   </g>
  </g>
  <g class="com.sun.star.drawing.PolyPolygonShape">
   <g id="id10">
    <rect class="BoundingBox" stroke="none" fill="none" x="115249" y="71833" width="8562" height="8573"/>
    <path fill="rgb(0,0,255)" stroke="none" d="M 115250,72902 L 122741,80404 122873,80200 123005,80008 123125,79804 123245,79576 123341,79360 123437,79144 123521,78916 123593,78688 123653,78460 123701,78219 123749,77991 123773,77751 123797,77511 123809,77271 123809,77031 123797,76803 123773,76563 123737,76323 123701,76083 123641,75855 123581,75627 123509,75399 123425,75171 123329,74955 123221,74739 123113,74534 122993,74330 122861,74126 122717,73934 122573,73742 122405,73562 122249,73394 122068,73226 121888,73070 121708,72926 121516,72782 121312,72650 121108,72530 120904,72410 120688,72314 120472,72218 120244,72134 120016,72062 119788,71990 119559,71942 119319,71894 119079,71870 118851,71846 118611,71834 118371,71834 118131,71846 117891,71858 117663,71894 117423,71930 117182,71990 116954,72050 116726,72122 116498,72206 116270,72302 116054,72398 115850,72518 115646,72638 115442,72758 115250,72902 Z"/>
    <path fill="none" stroke="rgb(0,0,255)" d="M 115250,72902 L 122741,80404 122873,80200 123005,80008 123125,79804 123245,79576 123341,79360 123437,79144 123521,78916 123593,78688 123653,78460 123701,78219 123749,77991 123773,77751 123797,77511 123809,77271 123809,77031 123797,76803 123773,76563 123737,76323 123701,76083 123641,75855 123581,75627 123509,75399 123425,75171 123329,74955 123221,74739 123113,74534 122993,74330 122861,74126 122717,73934 122573,73742 122405,73562 122249,73394 122068,73226 121888,73070 121708,72926 121516,72782 121312,72650 121108,72530 120904,72410 120688,72314 120472,72218 120244,72134 120016,72062 119788,71990 119559,71942 119319,71894 119079,71870 118851,71846 118611,71834 118371,71834 118131,71846 117891,71858 117663,71894 117423,71930 117182,71990 116954,72050 116726,72122 116498,72206 116270,72302 116054,72398 115850,72518 115646,72638 115442,72758 115250,72902 Z"/>
   </g>
  </g>
  <g class="com.sun.star.drawing.PolyPolygonShape">
   <g id="id11">
    <rect class="BoundingBox" stroke="none" fill="none" x="113124" y="73957" width="8550" height="8574"/>
    <path fill="rgb(0,0,255)" stroke="none" d="M 114193,73958 L 114049,74162 113917,74354 113797,74558 113689,74775 113581,74991 113497,75207 113413,75435 113341,75663 113281,75891 113221,76119 113185,76359 113149,76599 113125,76839 113125,77067 113125,77307 113137,77547 113161,77787 113185,78027 113233,78255 113281,78496 113353,78724 113425,78952 113509,79168 113605,79396 113701,79612 113821,79828 113941,80032 114073,80236 114217,80428 114361,80620 114517,80788 114685,80968 114854,81136 115034,81292 115226,81436 115418,81580 115610,81712 115814,81832 116030,81940 116246,82048 116462,82145 116702,82229 116918,82301 117158,82361 117387,82421 117615,82469 117855,82493 118095,82517 118335,82529 118575,82529 118815,82517 119043,82505 119283,82469 119523,82433 119752,82373 119980,82313 120208,82241 120436,82157 120652,82060 120868,81964 121084,81844 121288,81724 121480,81604 121672,81460 114193,73958 Z"/>
    <path fill="none" stroke="rgb(0,0,255)" d="M 114193,73958 L 114049,74162 113917,74354 113797,74558 113689,74775 113581,74991 113497,75207 113413,75435 113341,75663 113281,75891 113221,76119 113185,76359 113149,76599 113125,76839 113125,77067 113125,77307 113137,77547 113161,77787 113185,78027 113233,78255 113281,78496 113353,78724 113425,78952 113509,79168 113605,79396 113701,79612 113821,79828 113941,80032 114073,80236 114217,80428 114361,80620 114517,80788 114685,80968 114854,81136 115034,81292 115226,81436 115418,81580 115610,81712 115814,81832 116030,81940 116246,82048 116462,82145 116702,82229 116918,82301 117158,82361 117387,82421 117615,82469 117855,82493 118095,82517 118335,82529 118575,82529 118815,82517 119043,82505 119283,82469 119523,82433 119752,82373 119980,82313 120208,82241 120436,82157 120652,82060 120868,81964 121084,81844 121288,81724 121480,81604 121672,81460 114193,73958 Z"/>
   </g>
  </g>
  <g class="com.sun.star.drawing.PolyPolygonShape">
   <g id="id12">
    <rect class="BoundingBox" stroke="none" fill="none" x="113124" y="73957" width="8550" height="8574"/>
    <path fill="rgb(0,0,255)" stroke="none" d="M 114193,73958 L 114049,74162 113917,74354 113797,74558 113689,74775 113581,74991 113497,75207 113413,75435 113341,75663 113281,75891 113221,76119 113185,76359 113149,76599 113125,76839 113125,77067 113125,77307 113137,77547 113161,77787 113185,78027 113233,78255 113281,78496 113353,78724 113425,78952 113509,79168 113605,79396 113701,79612 113821,79828 113941,80032 114073,80236 114217,80428 114361,80620 114517,80788 114685,80968 114854,81136 115034,81292 115226,81436 115418,81580 115610,81712 115814,81832 116030,81940 116246,82048 116462,82145 116702,82229 116918,82301 117158,82361 117387,82421 117615,82469 117855,82493 118095,82517 118335,82529 118575,82529 118815,82517 119043,82505 119283,82469 119523,82433 119752,82373 119980,82313 120208,82241 120436,82157 120652,82060 120868,81964 121084,81844 121288,81724 121480,81604 121672,81460 114193,73958 Z"/>
    <path fill="none" stroke="rgb(0,0,255)" d="M 114193,73958 L 114049,74162 113917,74354 113797,74558 113689,74775 113581,74991 113497,75207 113413,75435 113341,75663 113281,75891 113221,76119 113185,76359 113149,76599 113125,76839 113125,77067 113125,77307 113137,77547 113161,77787 113185,78027 113233,78255 113281,78496 113353,78724 113425,78952 113509,79168 113605,79396 113701,79612 113821,79828 113941,80032 114073,80236 114217,80428 114361,80620 114517,80788 114685,80968 114854,81136 115034,81292 115226,81436 115418,81580 115610,81712 115814,81832 116030,81940 116246,82048 116462,82145 116702,82229 116918,82301 117158,82361 117387,82421 117615,82469 117855,82493 118095,82517 118335,82529 118575,82529 118815,82517 119043,82505 119283,82469 119523,82433 119752,82373 119980,82313 120208,82241 120436,82157 120652,82060 120868,81964 121084,81844 121288,81724 121480,81604 121672,81460 114193,73958 Z"/>
   </g>
  </g>
 </g>
</svg>