<?xml version="1.0" encoding="UTF-8"?><!-- Generator: Adobe Illustrator 16.0.3, SVG Export Plug-In . SVG Version: 6.00 Build 0)  --><svg xmlns="http://www.w3.org/2000/svg" xmlns:xlink="http://www.w3.org/1999/xlink" enable-background="new 0 0 114.07 170.984" height="170.984px" id="Laag_1" version="1.1" viewBox="0.0 0.0 114.06960268691182 170.98359597101808" width="114.07px" x="0px" xml:space="preserve" y="0px">
<polyline clip-rule="evenodd" fill="#FFFFFF" fill-rule="evenodd" points="12.842,170.924 101.228,170.924 102.434,170.803   103.64,170.683 104.845,170.32 106.05,169.959 107.257,169.357 108.342,168.754 109.307,168.029 110.272,167.186 111.115,166.221   111.839,165.256 112.442,164.172 113.045,162.966 113.408,161.881 113.769,160.555 113.889,159.35 114.009,158.143 114.009,12.841   113.889,11.636 113.769,10.31 113.408,9.103 113.045,7.897 112.442,6.813 111.839,5.727 111.115,4.762 110.272,3.798 109.307,2.954   108.342,2.23 107.257,1.507 106.05,1.025 104.845,0.542 103.64,0.301 102.434,0.061 11.635,0.061 10.43,0.301 9.104,0.542   8.019,1.025 6.812,1.507 5.728,2.23 4.763,2.954 3.798,3.798 2.956,4.762 2.231,5.727 1.627,6.813 1.024,7.897 0.664,9.103   0.302,10.31 0.18,11.636 0.06,12.841 0.06,158.143 0.18,159.35 0.302,160.555 0.664,161.881 1.024,162.966 1.627,164.172   2.231,165.256 2.956,166.221 3.798,167.186 4.763,168.029 5.728,168.754 6.812,169.357 8.019,169.959 9.104,170.32 10.43,170.683   11.635,170.803 12.842,170.924 "/>
<polygon fill="none" points="  12.842,170.924 101.228,170.924 102.434,170.803 103.64,170.683 104.845,170.32 106.05,169.959 107.257,169.357 108.342,168.754   109.307,168.029 110.272,167.186 111.115,166.221 111.839,165.256 112.442,164.172 113.045,162.966 113.408,161.881   113.769,160.555 113.889,159.35 114.009,158.143 114.009,12.841 113.889,11.636 113.769,10.31 113.408,9.103 113.045,7.897   112.442,6.813 111.839,5.727 111.115,4.762 110.272,3.798 109.307,2.954 108.342,2.23 107.257,1.507 106.05,1.025 104.845,0.542   103.64,0.301 102.434,0.061 11.635,0.061 10.43,0.301 9.104,0.542 8.019,1.025 6.812,1.507 5.728,2.23 4.763,2.954 3.798,3.798   2.956,4.762 2.231,5.727 1.627,6.813 1.024,7.897 0.664,9.103 0.302,10.31 0.18,11.636 0.06,12.841 0.06,158.143 0.18,159.35   0.302,160.555 0.664,161.881 1.024,162.966 1.627,164.172 2.231,165.256 2.956,166.221 3.798,167.186 4.763,168.029 5.728,168.754   6.812,169.357 8.019,169.959 9.104,170.32 10.43,170.683 11.635,170.803 " stroke="#000000" stroke-linecap="round" stroke-linejoin="round" stroke-miterlimit="10" stroke-width="0.1206"/>
<polyline clip-rule="evenodd" fill="#0000FF" fill-rule="evenodd" points="15.013,155.852 15.013,46.846 15.736,43.228   17.786,40.093 20.921,37.922 24.658,37.199 90.858,37.199 94.596,37.922 97.611,40.093 99.78,43.228 100.504,46.846   100.504,155.852 99.78,159.469 97.611,162.604 94.596,164.653 90.858,165.377 24.658,165.377 20.921,164.653 17.786,162.604   15.736,159.469 15.013,155.852 "/>
<polygon fill="none" points="  15.013,155.852 15.013,46.846 15.736,43.228 17.786,40.093 20.921,37.922 24.658,37.199 90.858,37.199 94.596,37.922 97.611,40.093   99.78,43.228 100.504,46.846 100.504,155.852 99.78,159.469 97.611,162.604 94.596,164.653 90.858,165.377 24.658,165.377   20.921,164.653 17.786,162.604 15.736,159.469 " stroke="#0000FF" stroke-linecap="round" stroke-linejoin="round" stroke-miterlimit="10" stroke-width="0.1206"/>
<polyline clip-rule="evenodd" fill="#FFFFFF" fill-rule="evenodd" points="18.267,155.852 18.267,46.846 18.75,44.434   20.078,42.264 22.126,40.937 24.658,40.455 90.858,40.455 93.27,40.937 95.44,42.264 96.766,44.434 97.25,46.846 97.25,155.852   96.766,158.264 95.44,160.313 93.27,161.76 90.858,162.242 24.658,162.242 22.126,161.76 20.078,160.313 18.75,158.264   18.267,155.852 "/>
<polygon fill="none" points="  18.267,155.852 18.267,46.846 18.75,44.434 20.078,42.264 22.126,40.937 24.658,40.455 90.858,40.455 93.27,40.937 95.44,42.264   96.766,44.434 97.25,46.846 97.25,155.852 96.766,158.264 95.44,160.313 93.27,161.76 90.858,162.242 24.658,162.242 22.126,161.76   20.078,160.313 18.75,158.264 " stroke="#FFFFFF" stroke-linecap="round" stroke-linejoin="round" stroke-miterlimit="10" stroke-width="0.1206"/>
<polyline clip-rule="evenodd" fill="#0000FF" fill-rule="evenodd" points="21.404,155.852 21.404,46.846 21.644,45.64   22.367,44.555 23.453,43.831 24.658,43.59 90.858,43.59 92.065,43.831 93.149,44.555 93.873,45.64 94.114,46.846 94.114,155.852   93.873,157.057 93.149,158.021 92.065,158.745 90.858,158.986 24.658,158.986 23.453,158.745 22.367,158.021 21.644,157.057   21.404,155.852 "/>
<polygon fill="none" points="  21.404,155.852 21.404,46.846 21.644,45.64 22.367,44.555 23.453,43.831 24.658,43.59 90.858,43.59 92.065,43.831 93.149,44.555   93.873,45.64 94.114,46.846 94.114,155.852 93.873,157.057 93.149,158.021 92.065,158.745 90.858,158.986 24.658,158.986   23.453,158.745 22.367,158.021 21.644,157.057 " stroke="#0000FF" stroke-linecap="round" stroke-linejoin="round" stroke-miterlimit="10" stroke-width="0.1206"/>
<polyline clip-rule="evenodd" fill="#FF0000" fill-rule="evenodd" points="55.77,93.512 74.218,93.512 81.211,108.704   82.297,110.994 83.141,112.441 85.191,114.371 85.312,114.732 85.431,123.295 85.191,125.826 83.02,132.459 81.573,132.459   81.573,141.622 75.424,141.622 75.424,132.459 36.114,132.459 36.114,141.622 29.844,141.622 29.844,132.459 28.518,132.459   26.347,125.826 26.106,123.295 26.226,114.732 26.347,114.371 28.397,112.441 29.241,110.994 30.326,108.704 37.321,93.512   55.77,93.512 "/>
<polygon fill="none" points="  55.77,93.512 74.218,93.512 81.211,108.704 82.297,110.994 83.141,112.441 85.191,114.371 85.312,114.732 85.431,123.295   85.191,125.826 83.02,132.459 81.573,132.459 81.573,141.622 75.424,141.622 75.424,132.459 36.114,132.459 36.114,141.622   29.844,141.622 29.844,132.459 28.518,132.459 26.347,125.826 26.106,123.295 26.226,114.732 26.347,114.371 28.397,112.441   29.241,110.994 30.326,108.704 37.321,93.512 " stroke="#FF0000" stroke-linecap="round" stroke-linejoin="round" stroke-miterlimit="10" stroke-width="0.1206"/>
<rect clip-rule="evenodd" fill="#0000FF" fill-rule="evenodd" height="1.568" width="41.601" x="34.909" y="123.656"/>
<rect fill="none" height="1.568" stroke="#0000FF" stroke-linecap="round" stroke-linejoin="round" stroke-miterlimit="10" stroke-width="0.1206" width="41.601" x="34.909" y="123.656"/>
<polyline clip-rule="evenodd" fill="#FFFFFF" fill-rule="evenodd" points="81.694,118.833 81.454,117.627 80.729,116.662   79.764,115.938 78.559,115.697 77.353,115.938 76.269,116.662 75.665,117.627 75.424,118.833 75.665,120.039 76.269,121.003   77.353,121.727 78.559,121.968 79.764,121.727 80.729,121.003 81.454,120.039 81.694,118.833 "/>
<polygon fill="none" points="  81.694,118.833 81.454,117.627 80.729,116.662 79.764,115.938 78.559,115.697 77.353,115.938 76.269,116.662 75.665,117.627   75.424,118.833 75.665,120.039 76.269,121.003 77.353,121.727 78.559,121.968 79.764,121.727 80.729,121.003 81.454,120.039 " stroke="#FFFFFF" stroke-linecap="round" stroke-linejoin="round" stroke-miterlimit="10" stroke-width="0.1206"/>
<polygon fill="#FFFFFF" points="36.114,118.712 35.873,117.507 35.151,116.541 34.184,115.818 32.979,115.577 31.773,115.818   30.809,116.541 30.085,117.507 29.844,118.712 30.085,119.918 30.809,121.003 31.773,121.606 32.979,121.848 34.184,121.606   35.151,121.003 35.873,119.918 "/>
<polyline clip-rule="evenodd" fill="#0000FF" fill-rule="evenodd" points="56.493,95.922 40.335,95.922 32.618,112.683   44.313,111.719 56.13,111.236 56.853,111.236 68.67,111.719 80.367,112.683 72.65,95.922 56.493,95.922 "/>
<polygon fill="none" points="  56.493,95.922 40.335,95.922 32.618,112.683 44.313,111.719 56.13,111.236 56.853,111.236 68.67,111.719 80.367,112.683   72.65,95.922 " stroke="#0000FF" stroke-linecap="round" stroke-linejoin="round" stroke-miterlimit="10" stroke-width="0.1206"/>
<rect clip-rule="evenodd" fill="#0000FF" fill-rule="evenodd" height="1.568" width="28.337" x="41.541" y="127.876"/>
<rect fill="none" height="1.568" stroke="#0000FF" stroke-linecap="round" stroke-linejoin="round" stroke-miterlimit="10" stroke-width="0.1206" width="28.337" x="41.541" y="127.876"/>
<rect clip-rule="evenodd" fill="#0000FF" fill-rule="evenodd" height="1.567" width="28.94" x="41.541" y="119.557"/>
<rect fill="none" height="1.567" stroke="#0000FF" stroke-linecap="round" stroke-linejoin="round" stroke-miterlimit="10" stroke-width="0.1206" width="28.94" x="41.541" y="119.557"/>
<polyline clip-rule="evenodd" fill="#FFFFFF" fill-rule="evenodd" points="61.437,138.607 61.437,105.328 61.677,104.725   62.401,104.363 63.848,104.363 64.571,104.725 64.812,105.328 64.812,138.607 67.584,138.607 67.584,140.899 61.437,140.899   61.437,138.607 "/>
<polygon fill="none" points="  61.437,138.607 61.437,105.328 61.677,104.725 62.401,104.363 63.848,104.363 64.571,104.725 64.812,105.328 64.812,138.607   67.584,138.607 67.584,140.899 61.437,140.899 " stroke="#FFFFFF" stroke-linecap="round" stroke-linejoin="round" stroke-miterlimit="10" stroke-width="0.1206"/>
<polyline clip-rule="evenodd" fill="#FFFFFF" fill-rule="evenodd" points="54.081,123.174 54.081,105.328 53.839,104.725   53.117,104.363 51.668,104.363 50.946,104.725 50.705,105.328 50.705,123.174 47.811,123.174 47.811,125.586 54.081,125.586   54.081,123.174 "/>
<polygon fill="none" points="  54.081,123.174 54.081,105.328 53.839,104.725 53.117,104.363 51.668,104.363 50.946,104.725 50.705,105.328 50.705,123.174   47.811,123.174 47.811,125.586 54.081,125.586 " stroke="#FFFFFF" stroke-linecap="round" stroke-linejoin="round" stroke-miterlimit="10" stroke-width="0.1206"/>
<path clip-rule="evenodd" d="M57.698,100.625h6.392l-0.723-2.895l1.688-10.248l4.461,15.795  h-2.05v0.242l-5.668-2.051h-8.079l-5.666,2.051v-0.242h-2.051l4.463-15.795l1.566,10.248l-0.603,2.895H57.698 M55.287,83.623  l-1.447,0.362l-2.894,0.724l-0.481,0.241l-0.242,0.12l-2.051,1.447l-0.36,0.482l-4.462,15.675v0.604h-2.896v2.051h7.599v-0.242  l6.149-2.291h3.135h-0.12l-0.363,2.291v12.541h-0.239v3.135l-0.604,1.086v27.372l0.362,0.844l0.964,0.362h0.845l0.965-0.362  l0.361-0.844v-27.372l-0.604-1.086v-3.135h-0.24v-12.541l-0.361-2.291h-0.12h3.135l6.149,2.291v0.242h7.597v-2.051h-2.894v-0.604  l-4.461-15.675l-0.361-0.482l-2.052-1.447l-0.36-0.12l-0.363-0.241l-2.894-0.724l-1.446-0.362l1.446-1.085l1.206-1.567l0.483-1.809  l-0.122-1.929l-0.723-1.689l-1.206-1.447l-1.688-0.964l-1.93-0.242l-1.809,0.242l-1.688,0.964l-1.206,1.447l-0.724,1.689  l-0.12,1.929l0.483,1.809l1.083,1.567L55.287,83.623z" fill="#FFFFFF" fill-rule="evenodd"/>
<path d="  M57.698,100.625h6.392l-0.723-2.895l1.688-10.248l4.461,15.795h-2.05v0.242l-5.668-2.051h-8.079l-5.666,2.051v-0.242h-2.051  l4.463-15.795l1.566,10.248l-0.603,2.895H57.698z M55.287,83.623l-1.447,0.362l-2.894,0.724l-0.481,0.241l-0.242,0.12l-2.051,1.447  l-0.36,0.482l-4.462,15.675v0.604h-2.896v2.051h7.599v-0.242l6.149-2.291h3.135h-0.12l-0.363,2.291v12.541h-0.239v3.135  l-0.604,1.086v27.372l0.362,0.844l0.964,0.362h0.845l0.965-0.362l0.361-0.844v-27.372l-0.604-1.086v-3.135h-0.24v-12.541  l-0.361-2.291h-0.12h3.135l6.149,2.291v0.242h7.597v-2.051h-2.894v-0.604l-4.461-15.675l-0.361-0.482l-2.052-1.447l-0.36-0.12  l-0.363-0.241l-2.894-0.724l-1.446-0.362l1.446-1.085l1.206-1.567l0.483-1.809l-0.122-1.929l-0.723-1.689l-1.206-1.447l-1.688-0.964  l-1.93-0.242l-1.809,0.242l-1.688,0.964l-1.206,1.447l-0.724,1.689l-0.12,1.929l0.483,1.809l1.083,1.567L55.287,83.623z" fill="none" stroke="#FFFFFF" stroke-linecap="round" stroke-linejoin="round" stroke-miterlimit="10" stroke-width="0.1206"/>
<g>
	<polyline clip-rule="evenodd" fill-rule="evenodd" points="19.835,32.255 35.39,32.255 35.39,28.396 24.538,28.396 34.909,13.203    34.909,9.465 20.197,9.465 20.197,13.203 30.206,13.203 19.835,28.396 19.835,32.255  "/>
	
		<polygon fill="none" points="   19.835,32.255 35.39,32.255 35.39,28.396 24.538,28.396 34.909,13.203 34.909,9.465 20.197,9.465 20.197,13.203 30.206,13.203    19.835,28.396  " stroke="#000000" stroke-linecap="round" stroke-linejoin="round" stroke-miterlimit="10" stroke-width="0.1206"/>
	<path clip-rule="evenodd" d="M43.952,16.339v9.646l0.121,0.241l0.121,0.362l0.119,0.361l0.241,0.242   l0.242,0.361l0.242,0.242l0.24,0.241l0.241,0.241l0.362,0.12l0.239,0.242l0.362,0.12h0.361l0.363,0.121h0.723l0.362-0.121h0.361   l0.241-0.12l0.361-0.242l0.362-0.12l0.241-0.241l0.241-0.241l0.24-0.242l0.241-0.361l0.241-0.242l0.121-0.361l0.12-0.362   l0.121-0.241V15.736l-0.121-0.362l-0.12-0.362l-0.121-0.361l-0.241-0.242l-0.241-0.362l-0.24-0.241l-0.241-0.241l-0.241-0.242   l-0.362-0.121l-0.361-0.12l-0.241-0.121l-0.361-0.121l-0.362-0.12h-0.723l-0.363,0.12l-0.361,0.121l-0.362,0.121l-0.239,0.12   l-0.362,0.121l-0.241,0.242l-0.24,0.241l-0.242,0.241l-0.242,0.362l-0.241,0.242l-0.119,0.361l-0.121,0.362l-0.121,0.362V16.339    M39.731,16.82v8.803l0.121,0.724l0.241,0.724l0.242,0.723l0.361,0.724l0.36,0.724l0.483,0.602l0.483,0.482l0.602,0.603   l0.603,0.361l0.604,0.483l0.723,0.241l0.725,0.361l0.723,0.121l0.844,0.121h1.448l0.845-0.121l0.723-0.121l0.723-0.361l0.604-0.241   l0.725-0.483l0.601-0.361l0.604-0.603l0.481-0.482l0.482-0.602l0.362-0.724l0.362-0.724l0.24-0.723l0.121-0.724l0.12-0.724   l0.121-0.723v-8.08l-0.121-0.843l-0.12-0.724l-0.121-0.723l-0.24-0.724l-0.362-0.724l-0.362-0.603l-0.482-0.724l-0.481-0.483   l-0.604-0.481l-0.601-0.482l-0.725-0.483l-0.604-0.24l-0.723-0.242l-0.723-0.241l-0.845-0.12h-1.448l-0.844,0.12l-0.723,0.241   l-0.725,0.242l-0.723,0.24l-0.604,0.483l-0.603,0.482l-0.602,0.481l-0.483,0.483l-0.483,0.724l-0.36,0.603l-0.361,0.724   l-0.242,0.724l-0.241,0.723l-0.121,0.724V16.82z" fill-rule="evenodd"/>
	
		<path d="   M43.952,16.339v9.646l0.121,0.241l0.121,0.362l0.119,0.361l0.241,0.242l0.242,0.361l0.242,0.242l0.24,0.241l0.241,0.241l0.362,0.12   l0.239,0.242l0.362,0.12h0.361l0.363,0.121h0.723l0.362-0.121h0.361l0.241-0.12l0.361-0.242l0.362-0.12l0.241-0.241l0.241-0.241   l0.24-0.242l0.241-0.361l0.241-0.242l0.121-0.361l0.12-0.362l0.121-0.241V15.736l-0.121-0.362l-0.12-0.362l-0.121-0.361   l-0.241-0.242l-0.241-0.362l-0.24-0.241l-0.241-0.241l-0.241-0.242l-0.362-0.121l-0.361-0.12l-0.241-0.121l-0.361-0.121   l-0.362-0.12h-0.723l-0.363,0.12l-0.361,0.121l-0.362,0.121l-0.239,0.12l-0.362,0.121l-0.241,0.242l-0.24,0.241l-0.242,0.241   l-0.242,0.362l-0.241,0.242l-0.119,0.361l-0.121,0.362l-0.121,0.362V16.339z M39.731,16.82v8.803l0.121,0.724l0.241,0.724   l0.242,0.723l0.361,0.724l0.36,0.724l0.483,0.602l0.483,0.482l0.602,0.603l0.603,0.361l0.604,0.483l0.723,0.241l0.725,0.361   l0.723,0.121l0.844,0.121h1.448l0.845-0.121l0.723-0.121l0.723-0.361l0.604-0.241l0.725-0.483l0.601-0.361l0.604-0.603l0.481-0.482   l0.482-0.602l0.362-0.724l0.362-0.724l0.24-0.723l0.121-0.724l0.12-0.724l0.121-0.723v-8.08l-0.121-0.843l-0.12-0.724l-0.121-0.723   l-0.24-0.724l-0.362-0.724l-0.362-0.603l-0.482-0.724l-0.481-0.483l-0.604-0.481l-0.601-0.482l-0.725-0.483l-0.604-0.24   l-0.723-0.242l-0.723-0.241l-0.845-0.12h-1.448l-0.844,0.12l-0.723,0.241l-0.725,0.242l-0.723,0.24l-0.604,0.483l-0.603,0.482   l-0.602,0.481l-0.483,0.483l-0.483,0.724l-0.36,0.603l-0.361,0.724l-0.242,0.724l-0.241,0.723l-0.121,0.724V16.82z" fill="none" stroke="#000000" stroke-linecap="round" stroke-linejoin="round" stroke-miterlimit="10" stroke-width="0.1206"/>
	<polyline clip-rule="evenodd" fill-rule="evenodd" points="60.351,32.255 64.21,32.255 64.21,17.062 71.083,32.255 76.027,32.255    76.027,9.465 72.168,9.465 72.168,24.538 65.294,9.465 60.351,9.465 60.351,32.255  "/>
	
		<polygon fill="none" points="   60.351,32.255 64.21,32.255 64.21,17.062 71.083,32.255 76.027,32.255 76.027,9.465 72.168,9.465 72.168,24.538 65.294,9.465    60.351,9.465  " stroke="#000000" stroke-linecap="round" stroke-linejoin="round" stroke-miterlimit="10" stroke-width="0.1206"/>
	<polyline clip-rule="evenodd" fill-rule="evenodd" points="81.694,32.255 95.682,32.255 95.682,28.396 85.914,28.396    85.914,22.367 92.426,22.367 92.426,18.51 85.914,18.51 85.914,13.203 95.682,13.203 95.682,9.465 81.694,9.465 81.694,32.255  "/>
	
		<polygon fill="none" points="   81.694,32.255 95.682,32.255 95.682,28.396 85.914,28.396 85.914,22.367 92.426,22.367 92.426,18.51 85.914,18.51 85.914,13.203    95.682,13.203 95.682,9.465 81.694,9.465  " stroke="#000000" stroke-linecap="round" stroke-linejoin="round" stroke-miterlimit="10" stroke-width="0.1206"/>
</g>
<g>
	
		<polygon clip-rule="evenodd" fill="#FFFFFF" fill-rule="evenodd" points="   83.412,55.753 84.099,55.753 84.099,55.753 84.099,58.953 84.099,58.953 84.128,59.256 84.22,59.54 84.363,59.813 84.551,60.046    84.787,60.239 85.046,60.38 85.33,60.461 85.632,60.492 86.852,60.492 86.852,60.492 86.852,59.307 86.852,59.307 85.833,59.307    85.833,59.307 85.693,59.287 85.583,59.207 85.501,59.094 85.469,58.953 85.469,55.753 85.469,55.753 86.852,55.753 86.852,55.753    86.852,54.568 86.852,54.568 85.469,54.568 85.469,54.568 85.469,52.199 85.469,52.199 84.099,53 84.099,53 84.099,54.568    84.099,54.568 83.412,54.568 83.412,54.568 83.412,55.753 83.412,55.753  " stroke="#FFFFFF" stroke-linecap="square" stroke-miterlimit="10" stroke-width="0.0101"/>
	
		<path clip-rule="evenodd" d="   M78.902,60.492h0.828l0,0l0.273-0.02l0.26-0.081l0.245-0.131l0.198-0.183v0.415l0,0h1.385l0,0v-3.716l0,0L82.05,56.34l-0.119-0.425   l-0.193-0.385l-0.263-0.354l-0.323-0.293l-0.371-0.233l-0.406-0.152l-0.433-0.082h-0.435l-0.433,0.082L78.67,54.66l-0.374,0.233   l-0.323,0.293l-0.252,0.344l-0.201,0.395l-0.112,0.425h1.362l0,0l0.103-0.263l0.17-0.213l0.224-0.172l0.261-0.091l0.273-0.021   l0.273,0.062l0.24,0.132l0.194,0.192l0.1,0.171l0.04,0.182l-0.011,0.193l-0.059,0.182l-0.103,0.162l-0.152,0.121l-0.169,0.071   l-0.193,0.03h-1.06l0,0l-0.332,0.03l-0.324,0.102l-0.292,0.151l-0.253,0.213L77.49,57.85l-0.162,0.293l-0.09,0.314l-0.03,0.334   l0.03,0.334l0.09,0.314l0.162,0.293l0.211,0.263l0.253,0.212l0.292,0.152l0.324,0.102L78.902,60.492L78.902,60.492z M79.094,59.307   h0.929l0,0l0.262-0.05l0.224-0.152l0.149-0.223l0.049-0.263v-0.87l0,0l-0.179,0.212l-0.243,0.172l-0.271,0.101l-0.283,0.041h-0.636   l0,0l-0.192,0.041l-0.171,0.111l-0.112,0.162l-0.039,0.203l0.039,0.203l0.112,0.162l0.171,0.112L79.094,59.307L79.094,59.307z" fill="#FFFFFF" fill-rule="evenodd" stroke="#FFFFFF" stroke-linecap="square" stroke-miterlimit="10" stroke-width="0.0101"/>
	
		<path clip-rule="evenodd" d="   M72.525,60.492h0.828l0,0l0.271-0.02l0.263-0.081l0.242-0.131l0.211-0.183v0.415l0,0h1.374l0,0v-3.716l0,0l-0.04-0.436   l-0.123-0.425l-0.189-0.385l-0.264-0.354l-0.323-0.293l-0.374-0.233l-0.403-0.152l-0.434-0.082H73.13l-0.423,0.082l-0.414,0.162   l-0.363,0.233l-0.323,0.293l-0.263,0.344l-0.191,0.395l-0.121,0.425h1.362l0,0l0.102-0.263l0.171-0.213l0.223-0.172l0.261-0.091   l0.272-0.021l0.273,0.062l0.242,0.132l0.202,0.192l0.091,0.171l0.04,0.182v0.193l-0.06,0.182L74.1,56.867l-0.152,0.121   l-0.171,0.071l-0.191,0.03h-1.061l0,0l-0.333,0.03l-0.313,0.102l-0.292,0.151l-0.263,0.213l-0.213,0.264l-0.15,0.293l-0.102,0.314   l-0.031,0.334l0.031,0.334l0.102,0.314l0.15,0.293l0.213,0.263l0.263,0.212l0.292,0.152l0.313,0.102L72.525,60.492L72.525,60.492z    M72.728,59.307h0.929l0,0l0.26-0.05l0.224-0.152l0.151-0.223l0.049-0.263v-0.87l0,0l-0.19,0.212l-0.233,0.172l-0.271,0.101   l-0.293,0.041h-0.625l0,0l-0.203,0.041l-0.172,0.111l-0.11,0.162l-0.04,0.203l0.04,0.203l0.11,0.162l0.172,0.112L72.728,59.307   L72.728,59.307z" fill="#FFFFFF" fill-rule="evenodd" stroke="#FFFFFF" stroke-linecap="square" stroke-miterlimit="10" stroke-width="0.0101"/>
	
		<polygon clip-rule="evenodd" fill="#FFFFFF" fill-rule="evenodd" points="   66.482,60.492 67.853,60.492 67.853,60.492 67.853,57.141 67.853,57.141 67.883,56.867 67.964,56.614 68.086,56.371 68.256,56.158    68.469,55.986 68.7,55.864 68.963,55.784 69.236,55.753 69.922,55.753 69.922,55.753 69.922,54.568 69.922,54.568 69.236,54.568    69.236,54.568 68.852,54.609 68.49,54.721 68.147,54.903 67.853,55.156 67.853,54.568 67.853,54.568 66.482,54.568 66.482,54.568    66.482,60.492 66.482,60.492  " stroke="#FFFFFF" stroke-linecap="square" stroke-miterlimit="10" stroke-width="0.0101"/>
	
		<polygon clip-rule="evenodd" fill="#FFFFFF" fill-rule="evenodd" points="   61.719,55.753 62.404,55.753 62.404,55.753 62.404,58.953 62.404,58.953 62.435,59.256 62.516,59.54 62.657,59.813 62.849,60.046    63.08,60.239 63.354,60.38 63.634,60.461 63.938,60.492 65.16,60.492 65.16,60.492 65.16,59.307 65.16,59.307 64.13,59.307    64.13,59.307 63.998,59.287 63.888,59.207 63.808,59.094 63.778,58.953 63.778,55.753 63.778,55.753 65.16,55.753 65.16,55.753    65.16,54.568 65.16,54.568 63.778,54.568 63.778,54.568 63.778,52.199 63.778,52.199 62.404,53 62.404,53 62.404,54.568    62.404,54.568 61.719,54.568 61.719,54.568 61.719,55.753 61.719,55.753  " stroke="#FFFFFF" stroke-linecap="square" stroke-miterlimit="10" stroke-width="0.0101"/>
	
		<polygon clip-rule="evenodd" fill="#FFFFFF" fill-rule="evenodd" points="   56.967,58.78 55.594,58.78 55.594,58.78 55.655,59.247 55.835,59.672 56.127,60.036 56.511,60.31 56.853,60.461 57.208,60.572    57.581,60.634 57.944,60.664 58.318,60.634 58.692,60.572 59.045,60.461 59.388,60.31 59.802,60.005 60.103,59.59 60.275,59.104    60.296,58.599 60.166,58.102 59.893,57.667 59.508,57.323 59.045,57.12 57.419,56.665 57.419,56.665 57.299,56.614 57.208,56.523    57.147,56.412 57.117,56.279 57.137,56.148 57.188,56.037 57.278,55.936 57.4,55.875 57.672,55.814 57.944,55.784 58.228,55.814    58.5,55.875 58.611,55.936 58.702,56.027 58.762,56.138 58.781,56.27 60.154,56.27 60.154,56.27 60.134,55.986 60.074,55.713    59.963,55.459 59.822,55.216 59.64,55.004 59.428,54.821 59.196,54.68 58.932,54.568 58.45,54.448 57.944,54.406 57.451,54.448    56.967,54.568 56.703,54.68 56.461,54.832 56.25,55.024 56.068,55.237 55.916,55.49 55.816,55.753 55.756,56.037 55.746,56.32    55.776,56.604 55.845,56.888 55.966,57.141 56.127,57.383 56.321,57.596 56.551,57.768 56.793,57.91 57.068,58 58.682,58.457    58.682,58.457 58.851,58.558 58.932,58.74 58.892,58.943 58.752,59.084 58.357,59.227 57.944,59.277 57.541,59.227 57.147,59.084    57.018,58.953 56.967,58.78  " stroke="#FFFFFF" stroke-linecap="square" stroke-miterlimit="10" stroke-width="0.0101"/>
	
		<polygon clip-rule="evenodd" fill="#FFFFFF" fill-rule="evenodd" points="   50.84,58.78 49.459,58.78 49.459,58.78 49.53,59.247 49.71,59.672 50.002,60.036 50.387,60.31 50.73,60.461 51.083,60.572    51.448,60.634 51.821,60.664 52.194,60.634 52.565,60.572 52.918,60.461 53.261,60.31 53.676,60.005 53.979,59.59 54.15,59.104    54.171,58.599 54.04,58.102 53.766,57.667 53.385,57.323 52.918,57.12 51.295,56.665 51.295,56.665 51.173,56.614 51.083,56.523    51.024,56.412 50.992,56.279 51.014,56.148 51.063,56.037 51.153,55.936 51.275,55.875 51.547,55.814 51.821,55.784 52.102,55.814    52.375,55.875 52.485,55.936 52.576,56.027 52.637,56.138 52.659,56.27 54.03,56.27 54.03,56.27 54.009,55.986 53.95,55.713    53.837,55.459 53.696,55.216 53.516,55.004 53.301,54.821 53.071,54.68 52.809,54.568 52.325,54.448 51.821,54.406 51.326,54.448    50.84,54.568 50.579,54.68 50.336,54.832 50.125,55.024 49.944,55.237 49.792,55.49 49.69,55.753 49.629,56.037 49.62,56.32    49.65,56.604 49.72,56.888 49.842,57.141 50.002,57.383 50.195,57.596 50.417,57.768 50.67,57.91 50.943,58 52.555,58.457    52.555,58.457 52.729,58.558 52.809,58.74 52.769,58.943 52.626,59.084 52.234,59.227 51.821,59.277 51.417,59.227 51.024,59.084    50.891,58.953 50.84,58.78  " stroke="#FFFFFF" stroke-linecap="square" stroke-miterlimit="10" stroke-width="0.0101"/>
	
		<polygon clip-rule="evenodd" fill="#FFFFFF" fill-rule="evenodd" points="   44.787,55.753 45.473,55.753 45.473,55.753 45.473,58.953 45.473,58.953 45.503,59.256 45.584,59.54 45.725,59.813 45.917,60.046    46.148,60.239 46.42,60.38 46.704,60.461 47.006,60.492 48.227,60.492 48.227,60.492 48.227,59.307 48.227,59.307 47.199,59.307    47.199,59.307 47.068,59.287 46.957,59.207 46.875,59.094 46.844,58.953 46.844,55.753 46.844,55.753 48.227,55.753 48.227,55.753    48.227,54.568 48.227,54.568 46.844,54.568 46.844,54.568 46.844,52.199 46.844,52.199 45.473,53 45.473,53 45.473,54.568    45.473,54.568 44.787,54.568 44.787,54.568 44.787,55.753 44.787,55.753  " stroke="#FFFFFF" stroke-linecap="square" stroke-miterlimit="10" stroke-width="0.0101"/>
	
		<path clip-rule="evenodd" d="   M38.661,56.827v1.468l0,0l0.031,0.415l0.111,0.405l0.181,0.385l0.253,0.344l0.303,0.293l0.345,0.232l0.393,0.173l0.404,0.091   l0.424,0.02l0.414-0.051l0.402-0.121l0.374-0.202l0.332-0.253l0.283-0.314l0.221-0.364l0.151-0.395h-1.401l0,0l-0.192,0.264   l-0.272,0.172l-0.312,0.081l-0.324-0.02l-0.303-0.132l-0.231-0.223l-0.162-0.283l-0.05-0.324v-0.477l0,0h3.339l0,0v-1.184l0,0   l-0.039-0.466l-0.132-0.445L42.98,55.51l-0.291-0.365l-0.363-0.293l-0.404-0.212l-0.443-0.142l-0.466-0.041l-0.453,0.041   l-0.444,0.142l-0.414,0.212l-0.353,0.293l-0.292,0.365l-0.223,0.405l-0.131,0.445L38.661,56.827L38.661,56.827z M40.035,56.573   v0.254l0,0h1.969l0,0v-0.254l0,0l-0.071-0.375l-0.224-0.314l-0.312-0.222l-0.385-0.072l-0.373,0.072l-0.312,0.222l-0.223,0.314   L40.035,56.573L40.035,56.573z" fill="#FFFFFF" fill-rule="evenodd" stroke="#FFFFFF" stroke-linecap="square" stroke-miterlimit="10" stroke-width="0.0101"/>
	
		<polygon clip-rule="evenodd" fill="#FFFFFF" fill-rule="evenodd" points="   35.725,52.442 35.725,53.627 35.725,53.627 36.907,53.627 36.907,53.627 36.907,52.442 36.907,52.442 35.725,52.442 35.725,52.442     " stroke="#FFFFFF" stroke-linecap="square" stroke-miterlimit="10" stroke-width="0.0101"/>
	
		<polygon clip-rule="evenodd" fill="#FFFFFF" fill-rule="evenodd" points="   35.625,60.492 37.006,60.492 37.006,60.492 37.006,54.568 37.006,54.568 35.625,54.568 35.625,54.568 35.625,60.492 35.625,60.492     " stroke="#FFFFFF" stroke-linecap="square" stroke-miterlimit="10" stroke-width="0.0101"/>
	
		<polygon clip-rule="evenodd" fill="#FFFFFF" fill-rule="evenodd" points="   29.228,60.492 30.752,60.492 30.752,60.492 30.752,56.897 30.752,56.897 33.123,56.897 33.123,56.897 33.123,55.521 33.123,55.521    30.752,55.521 30.752,55.521 30.752,53.586 30.752,53.586 34.305,53.586 34.305,53.586 34.305,52.199 34.305,52.199 29.228,52.199    29.228,52.199 29.228,60.492 29.228,60.492  " stroke="#FFFFFF" stroke-linecap="square" stroke-miterlimit="10" stroke-width="0.0101"/>
</g>
</svg>